<?xml version="1.0" standalone="no"?> <!DOCTYPE svg PUBLIC "-//W3C//DTD SVG 20010904//EN" "http://www.w3.org/TR/2001/REC-SVG-20010904/DTD/svg10.dtd"> <svg version="1.0" xmlns="http://www.w3.org/2000/svg" width="255.000000pt" height="200.000000pt" viewBox="0 0 255.000000 200.000000" preserveAspectRatio="xMidYMid meet"> <g transform="translate(0.000000,200.000000) scale(0.100000,-0.100000)" fill="#e93131" stroke="none"> <path d="M1055 1973 c-272 -58 -530 -254 -664 -505 -36 -66 -91 -210 -91 -238 0 -6 36 18 80 54 43 36 88 70 100 76 11 6 42 43 69 83 65 96 121 158 190 210 76 59 86 64 78 44 -9 -25 1 -21 41 15 43 37 153 90 237 112 259 70 539 -13 760 -226 l81 -77 82 22 c45 12 82 25 82 28 0 13 -171 188 -220 225 -34 26 -46 40 -37 46 18 11 -14 32 -113 71 -130 53 -357 95 -373 70 -3 -5 6 -10 21 -11 14 -1 28 -6 31 -10 3 -4 27 -9 54 -10 26 -1 55 -6 65 -11 9 -5 33 -11 52 -14 19 -2 55 -12 80 -22 25 -9 53 -17 63 -18 9 -1 17 -5 17 -9 0 -4 7 -8 15 -8 14 0 106 -84 95 -86 -3 -1 11 -14 30 -30 61 -52 144 -134 134 -134 -5 0 -3 -4 4 -8 17 -11 4 -45 -15 -38 -8 3 -11 1 -8 -4 9 -14 -8 -12 -24 3 -11 10 -13 10 -7 0 4 -8 2 -13 -6 -13 -15 0 -48 20 -34 20 6 0 -5 11 -24 25 -19 14 -30 25 -24 25 5 1 -4 8 -19 16 -16 8 -25 20 -21 26 4 7 3 8 -4 4 -7 -4 -26 8 -45 27 -19 18 -40 31 -47 29 -7 -3 -10 0 -6 7 5 7 1 9 -8 5 -9 -3 -16 -2 -16 3 0 6 -18 18 -40 29 -22 10 -40 23 -40 28 0 4 -7 6 -15 3 -8 -4 -17 -1 -21 5 -5 7 -2 8 6 3 8 -5 11 -4 6 3 -4 6 -13 9 -21 5 -8 -3 -15 0 -15 7 0 6 -4 9 -8 6 -5 -3 -37 4 -72 15 -73 22 -128 30 -217 28 -35 0 -73 -1 -85 -1 -72 -1 -349 -113 -330 -133 4 -5 -1 -5 -11 -2 -12 5 -16 3 -11 -5 5 -7 0 -9 -13 -6 -11 3 -30 -3 -44 -13 -13 -10 -27 -19 -31 -19 -5 0 -16 -8 -26 -17 -42 -40 -63 -53 -74 -47 -6 4 -8 3 -5 -3 4 -6 -3 -21 -14 -34 -12 -13 -28 -34 -36 -46 -8 -13 -20 -20 -26 -16 -5 3 -7 1 -4 -4 4 -6 -2 -18 -13 -28 -11 -10 -20 -22 -20 -26 0 -24 -108 -131 -123 -122 -6 3 -7 2 -4 -4 4 -6 -5 -15 -19 -22 -15 -6 -23 -7 -19 -1 3 5 8 18 10 27 6 33 23 68 49 102 14 19 26 39 26 45 0 5 19 34 42 65 24 31 42 60 40 64 -1 5 2 6 7 3 5 -4 18 7 28 24 11 20 23 28 32 25 9 -3 13 -3 9 0 -8 9 93 106 103 99 4 -2 11 1 15 7 5 8 3 9 -6 4 -9 -6 -11 -4 -6 4 5 7 15 10 23 7 9 -4 11 -2 7 6 -5 8 -2 9 9 5 9 -3 20 0 24 8 5 8 29 25 55 38 36 18 45 20 41 8 -5 -13 -3 -13 8 1 15 18 104 60 112 52 2 -2 23 3 47 11 23 8 63 15 89 16 35 0 41 2 26 9 -17 7 -16 9 10 10 17 2 34 2 38 1 5 -1 6 3 2 9 -9 14 -66 11 -150 -7z"/> <path d="M2366 1499 c-200 -52 -501 -136 -554 -155 l-42 -16 -37 32 c-35 31 -39 32 -105 28 -91 -7 -153 -45 -273 -170 -52 -54 -97 -98 -100 -98 -3 0 -5 24 -5 53 0 91 -70 177 -144 177 -30 0 -128 -49 -141 -70 -5 -7 -12 -5 -20 7 -13 17 -16 15 -55 -22 -90 -88 -207 -290 -249 -431 -25 -84 -27 -114 -6 -114 12 0 15 -13 15 -55 0 -46 -3 -55 -17 -55 -10 0 -60 -11 -111 -23 -87 -22 -109 -20 -83 8 4 6 32 64 61 130 68 154 153 325 197 394 l35 54 -24 18 c-12 10 -19 19 -15 19 5 0 -1 12 -12 26 -12 15 -21 34 -21 43 0 37 -45 17 -161 -70 -65 -50 -119 -97 -119 -104 0 -18 38 -29 54 -16 8 6 20 9 29 6 9 -4 30 7 51 25 40 35 45 31 18 -15 -24 -39 -125 -282 -163 -390 -24 -72 -28 -92 -20 -126 7 -29 6 -41 -2 -44 -7 -1 -32 -8 -57 -14 -109 -28 -280 -95 -286 -113 -8 -25 4 -40 26 -33 10 3 21 1 25 -5 9 -15 46 -12 80 6 36 20 304 102 431 133 l92 23 45 -46 c28 -28 58 -47 79 -51 64 -12 159 38 253 134 35 37 57 51 76 51 35 0 60 10 54 21 -3 4 -19 6 -35 2 -29 -5 -42 9 -20 22 19 12 41 66 50 123 14 85 30 88 23 5 -6 -79 7 -134 42 -173 13 -14 26 -34 29 -46 21 -71 109 -89 174 -37 20 17 51 37 68 46 127 66 294 393 294 578 l0 54 110 35 c61 20 110 34 110 32 0 -2 -15 -36 -34 -75 -90 -191 -161 -411 -150 -462 4 -16 13 -35 21 -40 12 -9 13 -19 5 -47 -5 -19 -6 -41 -2 -48 16 -26 38 16 84 161 26 79 79 231 119 337 l73 194 130 34 c71 19 141 37 157 40 40 9 34 32 -8 32 -22 0 -33 -4 -28 -11 4 -6 0 -8 -9 -4 -9 3 -50 -5 -92 -18 -42 -13 -89 -25 -104 -27 -15 -2 -35 -10 -45 -18 -10 -8 -20 -13 -23 -10 -3 3 -13 -15 -21 -40 -20 -61 -62 -172 -72 -190 -5 -9 -12 -30 -16 -48 -3 -18 -11 -32 -16 -32 -6 0 -9 -6 -8 -12 4 -31 -2 -49 -13 -42 -8 5 -9 2 -5 -9 3 -10 3 -17 -1 -17 -4 0 -8 -8 -9 -17 -1 -18 -50 -183 -56 -189 -1 -2 -8 0 -14 4 -16 10 -17 56 -3 112 6 25 14 57 17 73 3 15 10 27 16 27 6 0 8 3 4 6 -3 3 8 37 24 74 16 38 29 76 29 85 0 8 7 18 15 21 9 4 14 11 13 18 -1 6 5 25 14 41 24 46 30 85 17 101 -15 18 -66 18 -102 -1 -16 -8 -42 -16 -58 -17 -16 -1 -29 -6 -29 -11 0 -4 -4 -6 -8 -3 -10 6 -24 -4 -38 -28 -6 -11 -24 -24 -40 -29 -35 -12 -44 -23 -44 -61 0 -46 -29 -146 -66 -224 -34 -76 -122 -207 -131 -198 -3 3 4 17 15 33 28 41 92 170 92 188 0 35 -20 10 -65 -80 -87 -176 -169 -237 -216 -162 -17 27 -20 43 -16 102 3 39 15 97 27 130 11 33 25 77 29 97 18 81 137 240 205 272 53 25 93 21 109 -11 17 -33 12 -53 -13 -53 -29 0 -50 -11 -50 -26 0 -14 29 -18 66 -8 16 4 20 13 19 40 0 19 2 34 6 34 4 0 5 9 2 20 -6 23 12 26 64 11 23 -7 37 -5 50 5 10 7 29 14 43 14 14 0 45 7 70 16 90 32 363 103 373 97 6 -3 7 -1 3 5 -5 8 2 12 21 12 16 0 33 4 39 8 5 5 19 3 32 -3 l23 -12 -23 -8 -23 -8 25 -4 c36 -5 115 20 115 37 0 9 -9 15 -22 14 -12 0 -20 3 -17 8 3 4 14 8 24 8 24 0 33 15 17 28 -8 6 -60 -3 -161 -29z m82 -26 c-10 -2 -26 -2 -35 0 -10 3 -2 5 17 5 19 0 27 -2 18 -5z m-1290 -195 c45 -49 54 -136 26 -243 -18 -72 -97 -250 -125 -285 l-20 -25 16 38 c8 20 22 53 30 72 9 20 13 40 9 46 -3 6 -25 -29 -49 -78 -24 -48 -63 -109 -87 -136 -41 -45 -46 -48 -117 -57 -41 -6 -75 -11 -75 -13 -1 -1 -6 -11 -12 -23 -14 -25 -2 -52 29 -64 21 -8 21 -8 3 -16 -13 -5 -21 -3 -24 4 -2 7 -9 9 -14 6 -7 -4 -8 -2 -4 4 4 7 2 12 -4 12 -6 0 -23 14 -37 30 -13 17 -29 28 -33 25 -5 -3 -12 0 -16 6 -4 7 -3 9 3 6 19 -12 34 58 22 104 -19 76 -16 104 30 213 55 131 170 314 198 315 7 1 -6 -31 -29 -70 -22 -38 -38 -73 -34 -76 3 -3 1 -12 -5 -20 -7 -8 -7 -13 -2 -13 6 0 23 19 38 43 121 186 224 257 283 195z m-503 -79 c19 -40 19 -42 0 -73 -38 -63 -97 -181 -161 -319 -36 -78 -69 -150 -75 -160 -5 -10 -7 -22 -4 -26 3 -5 -2 -11 -9 -14 -9 -4 -16 1 -18 11 -5 21 43 158 107 307 26 61 47 116 48 123 0 6 4 12 9 12 4 0 7 3 6 8 -1 4 1 17 6 29 9 27 -10 67 -29 59 -8 -3 -12 2 -11 11 3 18 73 71 96 72 8 0 24 -18 35 -40z m759 1 c-9 -16 -19 -32 -24 -35 -24 -15 -68 -137 -112 -310 -11 -46 -6 -144 9 -153 5 -4 12 -14 15 -22 3 -9 21 -24 40 -34 45 -24 80 -16 125 29 18 18 33 31 33 28 0 -7 74 50 83 64 4 7 13 13 19 13 7 0 6 -5 -2 -15 -7 -8 -9 -15 -4 -15 5 0 1 -5 -8 -11 -10 -5 -18 -14 -18 -19 0 -14 -93 -100 -107 -100 -7 0 -13 -4 -13 -8 0 -14 -47 -31 -56 -22 -5 5 -25 11 -44 14 -86 10 -123 60 -135 182 -4 38 -14 81 -22 95 -14 23 -14 30 0 60 8 19 24 60 34 92 10 33 21 58 26 58 12 -2 65 28 74 42 4 7 23 23 41 36 18 13 31 26 28 29 -4 4 21 30 31 32 1 0 -5 -13 -13 -30z m-309 -459 c-3 -6 -10 -9 -14 -7 -4 3 -7 -5 -6 -16 1 -12 -6 -31 -14 -41 -31 -39 -141 -148 -141 -141 0 4 -10 -2 -22 -13 -13 -11 -41 -23 -63 -26 l-40 -6 38 20 c21 11 46 34 55 50 10 16 21 29 26 29 4 0 46 39 92 87 46 47 87 84 90 80 3 -3 3 -11 -1 -16z m-235 -171 c-41 -32 -100 -39 -100 -12 0 9 68 29 105 31 18 0 18 -1 -5 -19z m483 2 c42 -5 49 -19 13 -28 -27 -6 -55 6 -77 32 -13 16 -12 17 6 9 11 -4 37 -10 58 -13z m-937 -16 c23 -24 17 -32 -33 -43 -45 -11 -46 -10 -26 5 11 10 23 25 26 35 8 21 14 21 33 3z"/> <path d="M968 1173 c-14 -16 -44 -54 -68 -85 -23 -32 -46 -58 -50 -58 -5 0 -11 -13 -15 -30 -4 -16 -11 -30 -16 -30 -5 0 -9 -9 -9 -20 0 -11 -4 -20 -10 -20 -5 0 -25 -50 -45 -112 -34 -109 -44 -178 -26 -178 5 0 12 -8 15 -18 6 -18 10 -18 83 -2 43 9 79 22 81 30 5 13 6 13 -110 -6 -38 -7 -38 -6 -38 27 0 43 30 146 63 221 31 70 137 235 172 268 14 13 25 27 25 32 0 17 -27 7 -52 -19z"/> <path d="M1557 1213 c-14 -13 -6 -23 18 -23 16 0 25 6 25 15 0 15 -31 21 -43 8z"/> <path d="M2172 1058 c-29 -79 -52 -159 -52 -178 0 -19 -7 -64 -15 -100 -43 -180 -121 -317 -259 -449 -66 -63 -82 -93 -28 -55 15 11 35 23 45 27 10 4 15 11 12 17 -3 5 -2 10 3 10 13 0 92 82 92 95 0 6 9 17 20 25 30 22 109 189 140 296 15 51 23 91 18 88 -5 -3 -7 5 -4 18 19 94 29 129 37 134 5 3 7 10 4 15 -4 5 6 28 20 51 20 33 24 37 20 17 -4 -15 -2 -30 4 -33 12 -8 6 -205 -9 -261 -6 -22 -12 -47 -15 -57 -2 -9 -11 -30 -19 -47 -9 -17 -17 -34 -18 -38 -4 -28 -61 -132 -69 -128 -5 4 -9 -1 -9 -11 0 -9 -13 -30 -30 -46 -16 -15 -30 -34 -30 -41 0 -15 -84 -100 -96 -97 -5 1 -10 -4 -12 -12 -2 -9 0 -8 7 2 7 9 11 10 11 3 0 -6 -13 -20 -30 -30 -16 -9 -30 -20 -30 -23 0 -3 -16 -14 -35 -24 -19 -11 -35 -23 -35 -29 0 -5 -7 -6 -16 -3 -8 3 -13 2 -10 -2 3 -4 -4 -14 -16 -21 -11 -7 -17 -8 -14 -2 4 7 1 8 -8 5 -9 -3 -16 -10 -16 -15 0 -5 -7 -9 -15 -9 -8 0 -15 -4 -15 -10 0 -5 -6 -10 -13 -10 -7 0 -32 -9 -56 -20 -62 -31 -170 -62 -183 -54 -7 4 -8 3 -4 -5 6 -8 1 -10 -17 -6 -14 4 -28 2 -32 -4 -3 -6 -10 -9 -15 -6 -4 3 -21 -2 -36 -10 l-29 -15 36 0 c134 0 341 75 494 179 248 169 425 482 425 750 0 108 -23 261 -38 261 -4 0 -31 -64 -60 -142z"/> <path d="M1834 555 c3 -9 6 -19 6 -21 0 -2 7 -4 16 -4 22 0 13 34 -10 38 -14 3 -17 0 -12 -13z"/> <path d="M538 378 c-21 -6 -38 -14 -38 -18 0 -4 54 -59 119 -123 129 -124 188 -161 282 -177 29 -5 77 -16 104 -24 51 -16 195 -33 195 -24 0 5 -93 31 -151 42 -7 2 -21 6 -29 9 -8 3 -45 13 -82 22 -90 21 -173 59 -228 103 -53 42 -61 53 -53 66 4 5 1 6 -7 1 -10 -6 -12 -4 -7 9 4 10 3 15 -3 11 -6 -3 -10 0 -10 7 0 10 -3 9 -11 -2 -9 -12 -10 -11 -6 6 3 15 0 21 -10 20 -8 0 -22 10 -31 24 -9 14 -12 22 -7 18 4 -4 14 -3 22 4 11 9 24 2 61 -34 50 -49 172 -128 198 -128 9 0 12 -5 8 -12 -4 -6 -3 -8 3 -5 5 3 33 -6 63 -20 29 -14 87 -31 129 -38 79 -14 237 -15 260 -1 7 4 15 5 18 2 3 -3 12 -1 18 4 7 6 28 12 46 13 19 1 37 5 40 10 3 4 22 10 43 12 44 6 36 2 144 69 75 47 95 67 74 80 -4 2 -39 -15 -77 -40 -140 -88 -340 -143 -475 -130 -161 16 -342 94 -453 195 -70 64 -81 67 -149 49z"/> <path d="M1755 298 c-36 -48 -87 -85 -178 -128 -65 -30 -86 -51 -35 -34 13 4 28 8 33 9 11 1 29 8 87 32 48 20 104 74 122 118 21 49 6 50 -29 3z"/> </g> </svg>