<?xml version="1.0" encoding="UTF-8"?>
<svg version="1.1" xmlns="http://www.w3.org/2000/svg" width="791" height="791">
<path d="M0 0 C1.65066551 1.36555466 3.31368321 2.7131506 4.98583984 4.05224609 C9.6135775 7.77085111 13.9948922 11.53546488 18.11865234 15.80615234 C19.894627 17.5862862 21.75211059 19.21737591 23.66162109 20.85302734 C30.26512611 26.56244077 36.31346685 32.77714315 41.98974609 39.40380859 C43.96124539 41.67960452 45.99796505 43.88725401 48.03662109 46.10302734 C115.36391605 120.93640586 148.43760584 223.25691315 144.47802734 326.66943359 C139.7218372 410.63121212 109.35609918 492.07519272 55.23242188 556.73974609 C53.87768237 558.36854468 52.54434171 560.01180067 51.22021484 561.66552734 C47.50012151 566.29833393 43.73265274 570.68294862 39.45849609 574.81005859 C37.67836224 576.58603325 36.04727253 578.44351684 34.41162109 580.35302734 C28.70220766 586.95653236 22.48750529 593.0048731 15.86083984 598.68115234 C13.58504391 600.65265164 11.37739442 602.6893713 9.16162109 604.72802734 C-12.00982936 623.77589766 -36.19532708 639.81570995 -61.18554688 653.37158203 C-63.24772568 654.49676796 -65.29462577 655.64698006 -67.34228516 656.79833984 C-113.1635243 682.1562243 -166.18886732 696.441747 -218.21337891 700.47802734 C-218.89029785 700.53442383 -219.5672168 700.59082031 -220.26464844 700.64892578 C-317.51219073 708.49184377 -416.72768539 678.88346722 -505.50048828 609.05371094 C-515.91603127 600.17643709 -525.88869527 590.88059246 -535.58837891 581.22802734 C-536.24241699 580.57866211 -536.89645508 579.92929687 -537.5703125 579.26025391 C-541.98613757 574.82980317 -546.15577412 570.23770837 -550.21337891 565.47802734 C-551.03056396 564.52089844 -551.03056396 564.52089844 -551.86425781 563.54443359 C-573.85679975 537.58602343 -592.57074688 509.09469927 -607.28662109 478.39648438 C-608.21484182 476.474999 -609.16904962 474.56820901 -610.12744141 472.66162109 C-628.89336815 434.77294738 -638.57752367 393.14169242 -644.21337891 351.47802734 C-644.41471436 350.02589844 -644.41471436 350.02589844 -644.62011719 348.54443359 C-654.56044307 273.27197993 -638.09788806 192.38305236 -603.2109375 125.39941406 C-602.17396515 123.40211295 -601.15636578 121.39561451 -600.13916016 119.38818359 C-581.55400854 83.08721306 -555.63001208 50.9097418 -526.96337891 22.10302734 C-526.31409424 21.44906982 -525.66480957 20.7951123 -524.99584961 20.12133789 C-520.5651772 15.70529002 -515.96081933 11.54972819 -511.21337891 7.47802734 C-510.19250163 6.58875487 -509.17166474 5.69943603 -508.15087891 4.81005859 C-432.67819644 -59.92382464 -335.18670646 -92.45064179 0 0 Z " fill="#FDFDFD" transform="translate(646.21337890625,89.52197265625)"/>
<path d="M0 0 C0.72654785 0.12358887 1.4530957 0.24717773 2.20166016 0.37451172 C22.27058799 3.91003712 41.72470086 9.98664492 60 19 C61.16740723 19.57041016 61.16740723 19.57041016 62.35839844 20.15234375 C78.2384353 27.98640965 92.59941089 37.40011505 106 49 C106.804375 49.69351563 107.60875 50.38703125 108.4375 51.1015625 C144.54279444 82.92513933 169.88398551 125.54997588 179 173 C179.15098145 173.78197754 179.30196289 174.56395508 179.45751953 175.36962891 C184.02914507 200.23986365 183.17229119 226.14609303 179 251 C178.86078125 251.87011719 178.7215625 252.74023438 178.578125 253.63671875 C172.63802027 289.99235973 155.02215434 325.24877477 131 353 C130.30648438 353.804375 129.61296875 354.60875 128.8984375 355.4375 C118.54545723 367.18342671 107.59219124 377.69272821 95 387 C93.72382812 387.95132813 93.72382812 387.95132813 92.421875 388.921875 C48.17636008 420.86069041 -10.03854347 436.04303062 -64.30078125 427.8828125 C-82.28840742 424.69165493 -100.19800422 420.24248464 -117 413 C-118.25103516 412.46101074 -118.25103516 412.46101074 -119.52734375 411.91113281 C-141.80880792 402.13609226 -161.61999963 389.10944112 -179.34765625 372.46484375 C-181.45711064 370.50451132 -183.58945942 368.63945317 -185.8125 366.8125 C-189.63675771 363.5673967 -192.78471657 359.83634422 -196 356 C-196.77472656 355.10152344 -197.54945313 354.20304687 -198.34765625 353.27734375 C-222.8930705 324.48295516 -241.04228024 288.11991835 -246.625 250.5 C-246.74617187 249.73558594 -246.86734375 248.97117187 -246.9921875 248.18359375 C-248.81060052 236.34414373 -249.24087528 224.58441388 -249.25 212.625 C-249.25067474 211.82697968 -249.25134949 211.02895935 -249.25204468 210.20675659 C-249.23512839 197.57945745 -248.61050975 185.39108497 -246 173 C-245.82307617 172.13955078 -245.64615234 171.27910156 -245.46386719 170.39257812 C-244.16380505 164.2088629 -242.66126964 158.09616891 -241 152 C-240.80100098 151.26281738 -240.60200195 150.52563477 -240.39697266 149.76611328 C-232.87419031 122.79869452 -218.17666022 97.18280018 -200 76 C-199.11332515 74.92030286 -198.22801689 73.83948263 -197.34375 72.7578125 C-181.02498269 52.99789597 -161.18401102 37.68569857 -139 25 C-138.30438965 24.59797363 -137.6087793 24.19594727 -136.89208984 23.78173828 C-120.29246827 14.2766421 -102.63968195 7.91172509 -84.06298828 3.49511719 C-82.22256413 3.05341539 -80.3899014 2.57965644 -78.55859375 2.1015625 C-53.94485653 -4.12118458 -24.99804651 -4.36340452 0 0 Z " fill="#FDFDFD" transform="translate(429,182)"/>
<path d="M0 0 C1.65066551 1.36555466 3.31368321 2.7131506 4.98583984 4.05224609 C9.6135775 7.77085111 13.9948922 11.53546488 18.11865234 15.80615234 C19.894627 17.5862862 21.75211059 19.21737591 23.66162109 20.85302734 C30.26512611 26.56244077 36.31346685 32.77714315 41.98974609 39.40380859 C43.96124539 41.67960452 45.99796505 43.88725401 48.03662109 46.10302734 C115.36391605 120.93640586 148.43760584 223.25691315 144.47802734 326.66943359 C139.7218372 410.63121212 109.35609918 492.07519272 55.23242188 556.73974609 C53.87768237 558.36854468 52.54434171 560.01180067 51.22021484 561.66552734 C47.50012151 566.29833393 43.73265274 570.68294862 39.45849609 574.81005859 C37.67836224 576.58603325 36.04727253 578.44351684 34.41162109 580.35302734 C28.70220766 586.95653236 22.48750529 593.0048731 15.86083984 598.68115234 C13.58504391 600.65265164 11.37739442 602.6893713 9.16162109 604.72802734 C-12.00982936 623.77589766 -36.19532708 639.81570995 -61.18554688 653.37158203 C-63.24772568 654.49676796 -65.29462577 655.64698006 -67.34228516 656.79833984 C-113.1635243 682.1562243 -166.18886732 696.441747 -218.21337891 700.47802734 C-218.89029785 700.53442383 -219.5672168 700.59082031 -220.26464844 700.64892578 C-317.51219073 708.49184377 -416.72768539 678.88346722 -505.50048828 609.05371094 C-515.91603127 600.17643709 -525.88869527 590.88059246 -535.58837891 581.22802734 C-536.24241699 580.57866211 -536.89645508 579.92929687 -537.5703125 579.26025391 C-541.98613757 574.82980317 -546.15577412 570.23770837 -550.21337891 565.47802734 C-551.03056396 564.52089844 -551.03056396 564.52089844 -551.86425781 563.54443359 C-573.85679975 537.58602343 -592.57074688 509.09469927 -607.28662109 478.39648438 C-608.21484182 476.474999 -609.16904962 474.56820901 -610.12744141 472.66162109 C-628.89336815 434.77294738 -638.57752367 393.14169242 -644.21337891 351.47802734 C-644.41471436 350.02589844 -644.41471436 350.02589844 -644.62011719 348.54443359 C-654.56044307 273.27197993 -638.09788806 192.38305236 -603.2109375 125.39941406 C-602.17396515 123.40211295 -601.15636578 121.39561451 -600.13916016 119.38818359 C-581.55400854 83.08721306 -555.63001208 50.9097418 -526.96337891 22.10302734 C-526.31409424 21.44906982 -525.66480957 20.7951123 -524.99584961 20.12133789 C-520.5651772 15.70529002 -515.96081933 11.54972819 -511.21337891 7.47802734 C-510.19250163 6.58875487 -509.17166474 5.69943603 -508.15087891 4.81005859 C-432.67819644 -59.92382464 -335.18670646 -92.45064179 0 0 Z M-319.21337891 -55.27197266 C-320.26549561 -55.06362793 -321.3176123 -54.8552832 -322.40161133 -54.640625 C-396.84345787 -39.41551467 -461.26515892 -2.19950745 -514.90087891 50.97802734 C-515.78001953 51.84411621 -516.65916016 52.71020508 -517.56494141 53.60253906 C-523.55051626 59.58023816 -528.95242415 65.85884593 -534.21337891 72.47802734 C-535.21478045 73.69753631 -536.21833576 74.91528358 -537.22509766 76.13037109 C-583.31824459 132.42612049 -609.77705209 201.45445575 -617.21337891 273.47802734 C-617.31650391 274.45102783 -617.41962891 275.42402832 -617.52587891 276.42651367 C-618.36385548 285.20357006 -618.45668123 293.98126153 -618.46337891 302.79052734 C-618.46405365 303.59660431 -618.46472839 304.40268127 -618.46542358 305.23318481 C-618.34904221 393.74284909 -586.38258819 481.32807954 -527.21337891 547.47802734 C-526.56175781 548.21577393 -525.91013672 548.95352051 -525.23876953 549.71362305 C-519.47367115 556.19680101 -513.47013277 562.4044975 -507.33837891 568.54052734 C-506.42185547 569.46929688 -505.50533203 570.39806641 -504.56103516 571.35498047 C-498.42404605 577.50491681 -492.00300963 583.06519433 -485.21337891 588.47802734 C-484.17401755 589.35303765 -483.13888132 590.23314715 -482.11181641 591.12255859 C-421.03389181 643.59662694 -336.94559438 673.41569208 -256.76147461 672.81420898 C-253.38387387 672.79040751 -250.00705944 672.79371358 -246.62939453 672.80029297 C-227.50617522 672.77701201 -208.83286756 671.13885739 -189.96337891 668.10302734 C-189.2752713 667.99276215 -188.5871637 667.88249695 -187.87820435 667.76889038 C-120.9221835 656.99019932 -56.81699239 625.54297698 -6.79541016 579.81396484 C-4.6922866 577.91129028 -2.56346639 576.05303177 -0.41650391 574.20068359 C3.84444624 570.47964324 7.86178193 566.5510712 11.84912109 562.54052734 C12.5175 561.87601563 13.18587891 561.21150391 13.87451172 560.52685547 C18.38344046 556.00916301 22.6486183 551.33667005 26.78662109 546.47802734 C27.3310083 545.84034424 27.87539551 545.20266113 28.4362793 544.5456543 C73.50946776 491.35056591 102.50585004 427.45089981 112.78662109 358.47802734 C113.03436279 356.83036377 113.03436279 356.83036377 113.28710938 355.14941406 C115.62015528 338.84221939 116.04787866 322.67130268 116.03662109 306.22802734 C116.03602692 305.27316437 116.03543274 304.31830139 116.03482056 303.33450317 C115.99267382 285.61971518 115.224043 268.39145166 112.36743164 250.89404297 C111.97459707 248.48095118 111.59750778 246.06577034 111.22216797 243.64990234 C103.10359939 192.33002126 82.76051112 141.94616722 52.78662109 99.47802734 C51.67480469 97.86541016 51.67480469 97.86541016 50.54052734 96.22021484 C42.15411265 84.16080594 32.93745127 72.68621555 22.98193359 61.88427734 C21.12603272 59.85005147 19.32330923 57.78531044 17.52490234 55.70068359 C13.79895715 51.43265615 9.86572616 47.40889265 5.84912109 43.41552734 C5.18460938 42.74714844 4.52009766 42.07876953 3.83544922 41.39013672 C-0.68224324 36.88120797 -5.3547362 32.61603014 -10.21337891 28.47802734 C-10.85106201 27.93364014 -11.48874512 27.38925293 -12.14575195 26.82836914 C-78.73674571 -29.59541926 -162.36007447 -60.61448223 -249.56079102 -60.76220703 C-252.98104811 -60.77184631 -256.40068547 -60.80293496 -259.82080078 -60.83447266 C-279.79633624 -60.9303785 -299.61413014 -59.2380996 -319.21337891 -55.27197266 Z " fill="#FDFDFD" transform="translate(646.21337890625,89.52197265625)"/>
<path d="M0 0 C3.37760074 0.02380147 6.75441517 0.02049541 10.13208008 0.01391602 C29.25529939 0.03719697 47.92860705 1.6753516 66.7980957 4.71118164 C67.83025711 4.87657944 67.83025711 4.87657944 68.88327026 5.0453186 C135.83929111 15.82400967 199.94448222 47.27123201 249.96606445 93.00024414 C252.06918801 94.90291871 254.19800822 96.76117722 256.3449707 98.61352539 C260.60592085 102.33456574 264.62325654 106.26313779 268.6105957 110.27368164 C269.27897461 110.93819336 269.94735352 111.60270508 270.63598633 112.28735352 C275.14497616 116.80510718 279.40914331 121.47829268 283.5480957 126.33618164 C284.09780029 126.97918213 284.64750488 127.62218262 285.21386719 128.28466797 C293.9398649 138.56498001 302.00154422 149.16383977 309.5480957 160.33618164 C310.22171143 161.32424805 310.22171143 161.32424805 310.90893555 162.33227539 C342.18620231 208.43229646 361.37544473 260.36477234 369.7980957 315.27368164 C369.96148438 316.32620117 370.12487305 317.3787207 370.29321289 318.46313477 C372.6370187 334.5849206 372.78797679 350.82474784 372.7980957 367.08618164 C372.79910782 368.56451981 372.79910782 368.56451981 372.80014038 370.07272339 C372.76490842 402.66821036 368.78770993 435.004082 359.5480957 466.33618164 C359.35779785 466.99376465 359.1675 467.65134766 358.97143555 468.32885742 C351.89082618 492.62697605 342.27608055 515.92926313 330.5480957 538.33618164 C329.93925537 539.50020508 329.93925537 539.50020508 329.31811523 540.68774414 C315.92473816 566.09332202 299.26763066 589.55101984 279.8840332 610.75415039 C277.98135864 612.85727395 276.12310013 614.98609415 274.27075195 617.13305664 C270.5497116 621.39400679 266.62113956 625.41134248 262.6105957 629.39868164 C261.94608398 630.06706055 261.28157227 630.73543945 260.59692383 631.42407227 C256.07923137 635.93300101 251.40673841 640.19817884 246.5480957 644.33618164 C245.9104126 644.88056885 245.27272949 645.42495605 244.61572266 645.98583984 C197.57946297 685.84053811 139.92019864 715.59580105 78.9855957 726.89868164 C77.87079834 727.10847656 76.75600098 727.31827148 75.60742188 727.53442383 C68.5433083 728.84104576 61.46854215 730.04361195 54.3605957 731.08618164 C53.58578857 731.2016333 52.81098145 731.31708496 52.01269531 731.43603516 C37.13999059 733.5003409 22.18620899 733.55102937 7.20068359 733.57641602 C3.7804265 733.58605529 0.36078914 733.61714394 -3.05932617 733.64868164 C-23.03486163 733.74458749 -42.85265553 732.05230859 -62.4519043 728.08618164 C-63.504021 727.87783691 -64.5561377 727.66949219 -65.64013672 727.45483398 C-140.12674213 712.22056941 -204.4814279 675.03578272 -258.1394043 621.83618164 C-259.01854492 620.97009277 -259.89768555 620.10400391 -260.8034668 619.21166992 C-266.78904165 613.23397083 -272.19094955 606.95536305 -277.4519043 600.33618164 C-278.45330584 599.11667267 -279.45686115 597.89892541 -280.46362305 596.68383789 C-306.06719796 565.41662656 -325.12923631 530.15960592 -339.29614258 492.41186523 C-340.25701756 489.85480924 -341.23788166 487.30726834 -342.22924805 484.76196289 C-360.83193795 435.9447888 -366.49770337 377.17659323 -359.4519043 325.33618164 C-359.32831543 324.34666504 -359.20472656 323.35714844 -359.07739258 322.33764648 C-354.2855571 284.17140295 -343.96157318 247.10794236 -327.4519043 212.33618164 C-326.7700708 210.88622803 -326.7700708 210.88622803 -326.07446289 209.40698242 C-315.6303473 187.36147875 -303.20737745 166.7595423 -288.4519043 147.33618164 C-287.98187988 146.71453125 -287.51185547 146.09288086 -287.02758789 145.45239258 C-283.91109389 141.35086979 -280.71044652 137.32552539 -277.4519043 133.33618164 C-277.01072266 132.79058594 -276.56954102 132.24499023 -276.11499023 131.68286133 C-268.56602542 122.41896274 -260.24744994 113.92434922 -251.8269043 105.46118164 C-251.2979657 104.92697601 -250.7690271 104.39277039 -250.22406006 103.84237671 C-243.3013285 96.86640575 -236.15684973 90.45682852 -228.4519043 84.33618164 C-227.41238488 83.46135913 -226.37725682 82.5812349 -225.3503418 81.69165039 C-164.29806277 29.239615 -80.1504189 -0.60123029 0 0 Z M-45.1394043 16.96118164 C-46.69498047 17.22112915 -46.69498047 17.22112915 -48.28198242 17.48632812 C-116.78259807 29.34648345 -180.73594407 58.17929426 -231.8503418 105.91821289 C-234.05366718 107.96604834 -236.29072013 109.94495055 -238.5769043 111.89868164 C-246.13064012 118.46305082 -252.98761427 125.70992212 -259.4519043 133.33618164 C-260.26143555 134.26817383 -261.0709668 135.20016602 -261.9050293 136.16040039 C-273.11773079 149.13311669 -283.22831099 162.8854948 -292.4519043 177.33618164 C-293.15444336 178.43317383 -293.85698242 179.53016602 -294.58081055 180.66040039 C-316.83931392 216.2307654 -331.9455112 255.34160347 -340.4519043 296.33618164 C-340.76036287 297.75938803 -341.06893919 299.18256891 -341.37768555 300.60571289 C-345.64913665 321.52487084 -346.9716686 342.65796611 -346.89794922 363.96704102 C-346.88942382 367.70262649 -346.9183903 371.43668223 -346.94995117 375.17211914 C-346.99517738 391.20175715 -345.57146176 406.61399586 -342.93560791 422.4211731 C-342.36285076 425.872857 -341.84074822 429.33071645 -341.32806396 432.79174805 C-334.11730242 479.791489 -313.46932179 526.43729947 -286.4519043 565.33618164 C-285.70553711 566.4202832 -284.95916992 567.50438477 -284.19018555 568.62133789 C-275.17093595 581.57465266 -265.16449486 593.74947344 -254.4519043 605.33618164 C-253.53441482 606.34454818 -252.61779441 607.35370594 -251.7019043 608.36352539 C-245.04957223 615.68641434 -238.35603771 622.82905371 -230.8425293 629.28149414 C-229.04819091 630.82368694 -227.26948221 632.38409539 -225.4987793 633.95336914 C-171.54643026 681.47975183 -101.13755666 712.18277793 -29.4519043 718.33618164 C-28.44023193 718.42971924 -27.42855957 718.52325684 -26.38623047 718.61962891 C-16.50980495 719.44272523 -6.65626535 719.52233124 3.24951172 719.52148438 C6.08161731 719.52365939 8.91332474 719.54185338 11.74536133 719.56079102 C63.2500273 719.72123037 114.52983086 707.36087655 160.5480957 684.33618164 C162.08965332 683.576521 162.08965332 683.576521 163.66235352 682.80151367 C199.74152599 664.94875227 230.71750405 641.08890798 259.2355957 612.83618164 C260.55466919 611.53680664 260.55466919 611.53680664 261.90039062 610.21118164 C267.885485 604.23340195 273.28854565 597.95619174 278.5480957 591.33618164 C279.58492153 590.07002386 280.62369723 588.8054577 281.6652832 587.54321289 C317.82845638 543.22302911 343.56502255 488.14221323 353.13500977 431.70581055 C353.51857256 429.5055384 353.9413323 427.31817616 354.3840332 425.12915039 C361.86158336 387.56433557 361.25913828 345.94448929 354.5480957 308.33618164 C354.36617676 307.26045898 354.18425781 306.18473633 353.99682617 305.07641602 C345.6198915 256.11738765 326.33567519 207.90721919 297.5480957 167.33618164 C297.12351074 166.73435059 296.69892578 166.13251953 296.26147461 165.51245117 C283.2900027 147.21984233 268.78116345 130.53302133 253.00265503 114.61651611 C251.59228414 113.19327337 250.18548692 111.76649204 248.77880859 110.33959961 C242.68079384 104.23449732 236.3152009 98.68519494 229.5480957 93.33618164 C228.35605748 92.37081565 227.16455036 91.40479299 225.97387695 90.43774414 C205.0533566 73.79582457 182.45814677 60.23805556 158.5480957 48.33618164 C157.68829102 47.90450684 156.82848633 47.47283203 155.94262695 47.02807617 C125.19180881 31.76589686 92.10729539 22.72681601 58.2980957 17.52368164 C57.61148865 17.41790802 56.92488159 17.3121344 56.21746826 17.20315552 C40.67704039 14.84336817 25.37383956 14.17115281 9.68188477 14.20581055 C6.81692144 14.21114658 3.95211665 14.20584693 1.0871582 14.19946289 C-14.38344632 14.19229984 -29.84810409 14.37656722 -45.1394043 16.96118164 Z " fill="#050505" transform="translate(389.451904296875,28.663818359375)"/>
<path d="M0 0 C0.72654785 0.12358887 1.4530957 0.24717773 2.20166016 0.37451172 C22.27058799 3.91003712 41.72470086 9.98664492 60 19 C61.16740723 19.57041016 61.16740723 19.57041016 62.35839844 20.15234375 C78.2384353 27.98640965 92.59941089 37.40011505 106 49 C106.804375 49.69351563 107.60875 50.38703125 108.4375 51.1015625 C144.54279444 82.92513933 169.88398551 125.54997588 179 173 C179.15098145 173.78197754 179.30196289 174.56395508 179.45751953 175.36962891 C184.02914507 200.23986365 183.17229119 226.14609303 179 251 C178.86078125 251.87011719 178.7215625 252.74023438 178.578125 253.63671875 C172.63802027 289.99235973 155.02215434 325.24877477 131 353 C130.30648438 353.804375 129.61296875 354.60875 128.8984375 355.4375 C118.54545723 367.18342671 107.59219124 377.69272821 95 387 C93.72382812 387.95132813 93.72382812 387.95132813 92.421875 388.921875 C48.17636008 420.86069041 -10.03854347 436.04303062 -64.30078125 427.8828125 C-82.28840742 424.69165493 -100.19800422 420.24248464 -117 413 C-118.25103516 412.46101074 -118.25103516 412.46101074 -119.52734375 411.91113281 C-141.80880792 402.13609226 -161.61999963 389.10944112 -179.34765625 372.46484375 C-181.45711064 370.50451132 -183.58945942 368.63945317 -185.8125 366.8125 C-189.63675771 363.5673967 -192.78471657 359.83634422 -196 356 C-196.77472656 355.10152344 -197.54945313 354.20304687 -198.34765625 353.27734375 C-222.8930705 324.48295516 -241.04228024 288.11991835 -246.625 250.5 C-246.74617187 249.73558594 -246.86734375 248.97117187 -246.9921875 248.18359375 C-248.81060052 236.34414373 -249.24087528 224.58441388 -249.25 212.625 C-249.25067474 211.82697968 -249.25134949 211.02895935 -249.25204468 210.20675659 C-249.23512839 197.57945745 -248.61050975 185.39108497 -246 173 C-245.82307617 172.13955078 -245.64615234 171.27910156 -245.46386719 170.39257812 C-244.16380505 164.2088629 -242.66126964 158.09616891 -241 152 C-240.80100098 151.26281738 -240.60200195 150.52563477 -240.39697266 149.76611328 C-232.87419031 122.79869452 -218.17666022 97.18280018 -200 76 C-199.11332515 74.92030286 -198.22801689 73.83948263 -197.34375 72.7578125 C-181.02498269 52.99789597 -161.18401102 37.68569857 -139 25 C-138.30438965 24.59797363 -137.6087793 24.19594727 -136.89208984 23.78173828 C-120.29246827 14.2766421 -102.63968195 7.91172509 -84.06298828 3.49511719 C-82.22256413 3.05341539 -80.3899014 2.57965644 -78.55859375 2.1015625 C-53.94485653 -4.12118458 -24.99804651 -4.36340452 0 0 Z M-183.5 77.6875 C-206.68182596 103.25378998 -222.68677705 134.3532802 -230.8125 167.8125 C-231.00739014 168.61075195 -231.20228027 169.40900391 -231.40307617 170.23144531 C-234.57562568 184.05140093 -235.41068001 197.6963151 -235.375 211.8125 C-235.37368576 213.09000122 -235.37368576 213.09000122 -235.37234497 214.39331055 C-235.18477949 269.95422869 -212.61592169 320.37132283 -173.56005859 359.44042969 C-148.69375853 383.82049336 -115.79549534 401.73260556 -82 410 C-80.89914062 410.27457031 -79.79828125 410.54914063 -78.6640625 410.83203125 C-54.5134241 416.44139005 -27.42279104 417.39278708 -3 413 C-1.13601563 412.70802734 -1.13601563 412.70802734 0.765625 412.41015625 C52.42526035 403.71446066 99.46955508 374.37206005 130.24609375 331.94140625 C134.12146899 326.4498609 137.69526192 320.8544859 141 315 C141.37688965 314.34966797 141.7537793 313.69933594 142.14208984 313.02929688 C153.69228776 292.96867144 161.98281232 270.76283852 165.625 247.875 C165.74617188 247.15441406 165.86734375 246.43382812 165.9921875 245.69140625 C167.76486531 234.8433888 168.24084951 224.10620637 168.25 213.125 C168.25067474 212.39390015 168.25134949 211.66280029 168.25204468 210.9095459 C168.23468848 199.0314162 167.47823643 187.63502735 165 176 C164.83371094 175.17209961 164.66742187 174.34419922 164.49609375 173.49121094 C157.86828307 140.90447508 143.80297695 110.25735807 122 85 C121.35289062 84.24332031 120.70578125 83.48664063 120.0390625 82.70703125 C117.7410843 80.08870293 115.38670996 77.53785654 113 75 C112.4755127 74.44151367 111.95102539 73.88302734 111.41064453 73.30761719 C98.55184585 59.72936854 84.36625692 48.14546261 68 39 C67.30181152 38.6071582 66.60362305 38.21431641 65.88427734 37.80957031 C-17.00044336 -8.40128104 -118.67591692 8.9516188 -183.5 77.6875 Z " fill="#040404" transform="translate(429,182)"/>
<path d="M0 0 C3.8239492 1.57877433 6.23642099 3.99501713 9.13574219 6.90869141 C9.63375839 7.40641556 10.1317746 7.90413971 10.6448822 8.41694641 C12.28366733 10.0571207 13.91526134 11.70425661 15.546875 13.3515625 C16.68415347 14.49257256 17.8218754 15.63314077 18.96002197 16.77328491 C21.94989979 19.77078762 24.93372191 22.77424851 27.9163208 25.7789917 C30.96271321 28.84586712 34.01479703 31.90706694 37.06640625 34.96875 C43.04985434 40.97362783 49.02691663 46.98481232 55 53 C61.36508567 47.75179943 67.15322975 41.97528548 72.96484375 36.1328125 C74.00837079 35.08741675 75.05212152 34.04224425 76.09608459 32.99728394 C78.82230745 30.2672716 81.54551181 27.53426807 84.26806641 24.80059814 C87.05512459 22.00324846 89.84507146 19.20878299 92.63476562 16.4140625 C98.09265081 10.94550306 103.54734559 5.47377555 109 0 C113.29843409 3.60531629 117.41150526 7.2957734 121.35546875 11.29296875 C121.82439041 11.76567703 122.29331207 12.23838531 122.77644348 12.72541809 C124.24930682 14.21031846 125.71881861 15.69846401 127.1875 17.1875 C129.1363789 19.16309766 131.08864125 21.13526254 133.04296875 23.10546875 C133.89914795 23.97324951 134.75532715 24.84103027 135.63745117 25.73510742 C137.67153501 27.68511215 139.70244104 29.37680762 142 31 C141.4953028 35.23058286 139.1505571 37.21173202 136.20483398 40.13574219 C135.70725586 40.63375839 135.20967773 41.1317746 134.69702148 41.6448822 C133.05372425 43.28609261 131.40006365 44.91642663 129.74609375 46.546875 C128.60343749 47.68393494 127.46144262 48.82165988 126.32008362 49.96002197 C123.31652494 52.95213476 120.30406586 55.93512859 117.28967285 58.9163208 C114.21438808 61.96089934 111.14759455 65.0140045 108.08007812 68.06640625 C102.06166955 74.05265518 96.03383283 80.02929845 90 86 C91.56943684 89.78301227 93.93101277 92.17256547 96.81689453 95.04394531 C97.30486511 95.53220795 97.79283569 96.02047058 98.29559326 96.52352905 C99.90330275 98.12984962 101.51797101 99.72897713 103.1328125 101.328125 C104.25140235 102.44298317 105.36955029 103.55828487 106.48727417 104.67401123 C109.42559325 107.60470609 112.36986955 110.52934422 115.31542969 113.45275879 C118.32198262 116.43882725 121.32285882 119.43058859 124.32421875 122.421875 C130.21060686 128.28683456 136.103301 134.14540732 142 140 C140.68623083 142.90543872 139.27943508 144.96661059 137.01904297 147.20800781 C136.11833572 148.10848846 136.11833572 148.10848846 135.19943237 149.02716064 C134.55354156 149.66272888 133.90765076 150.29829712 133.2421875 150.953125 C132.57913605 151.61334656 131.91608459 152.27356812 131.23294067 152.95379639 C129.11828168 155.05727824 126.99676788 157.15369142 124.875 159.25 C123.43834443 160.67662261 122.00214102 162.10370072 120.56640625 163.53125 C117.04949196 167.02613661 113.52641453 170.51470062 110 174 C103.63491433 168.75179943 97.84677025 162.97528548 92.03515625 157.1328125 C90.99162921 156.08741675 89.94787848 155.04224425 88.90391541 153.99728394 C86.17769255 151.2672716 83.45448819 148.53426807 80.73193359 145.80059814 C77.94487541 143.00324846 75.15492854 140.20878299 72.36523438 137.4140625 C66.90734919 131.94550306 61.45265441 126.47377555 56 121 C49.63491433 126.24820057 43.84677025 132.02471452 38.03515625 137.8671875 C36.99162921 138.91258325 35.94787848 139.95775575 34.90391541 141.00271606 C32.17769255 143.7327284 29.45448819 146.46573193 26.73193359 149.19940186 C23.94487541 151.99675154 21.15492854 154.79121701 18.36523438 157.5859375 C12.90734919 163.05449694 7.45265441 168.52622445 2 174 C-0.82779011 172.70949477 -2.9140819 171.34597974 -5.13208008 169.17431641 C-5.71560745 168.60677643 -6.29913483 168.03923645 -6.90034485 167.45449829 C-7.51717636 166.84302948 -8.13400787 166.23156067 -8.76953125 165.6015625 C-9.40992844 164.97019379 -10.05032562 164.33882507 -10.71012878 163.68832397 C-12.05840931 162.35452493 -13.40391793 161.01791882 -14.74682617 159.67871094 C-16.81043182 157.62705621 -18.89195356 155.59479077 -20.97460938 153.5625 C-22.28239464 152.2641728 -23.58907447 150.96473095 -24.89453125 149.6640625 C-25.52148392 149.05664215 -26.14843658 148.4492218 -26.79438782 147.82339478 C-28.51489258 146.08447266 -28.51489258 146.08447266 -31 143 C-30.90019079 138.84681262 -28.00770579 136.64646963 -25.20483398 133.86425781 C-24.4584668 133.11723351 -24.4584668 133.11723351 -23.69702148 132.3551178 C-22.05372425 130.71390739 -20.40006365 129.08357337 -18.74609375 127.453125 C-17.60343749 126.31606506 -16.46144262 125.17834012 -15.32008362 124.03997803 C-12.31652494 121.04786524 -9.30406586 118.06487141 -6.28967285 115.0836792 C-3.21438808 112.03910066 -0.14759455 108.9859955 2.91992188 105.93359375 C8.93833045 99.94734482 14.96616717 93.97070155 21 88 C19.42122567 84.1760508 17.00498287 81.76357901 14.09130859 78.86425781 C13.34472237 78.11723351 13.34472237 78.11723351 12.58305359 77.3551178 C10.9428793 75.71633267 9.29574339 74.08473866 7.6484375 72.453125 C6.50742744 71.31584653 5.36685923 70.1781246 4.22671509 69.03997803 C1.22921238 66.05010021 -1.77424851 63.06627809 -4.7789917 60.0836792 C-7.84586712 57.03728679 -10.90706694 53.98520297 -13.96875 50.93359375 C-19.97362783 44.95014566 -25.98481232 38.97308337 -32 33 C-28.10023279 28.33125463 -24.04785356 23.90872191 -19.7265625 19.62890625 C-19.15795502 19.06171371 -18.58934753 18.49452118 -18.00350952 17.91014099 C-16.21303764 16.12520087 -14.41909516 14.34379744 -12.625 12.5625 C-11.39950677 11.34203061 -10.17424428 10.12132947 -8.94921875 8.90039062 C-5.96880226 5.93091244 -2.98527106 2.96459743 0 0 Z " fill="#010101" transform="translate(340,274)"/>
<path d="M0 0 C57.42 0 114.84 0 174 0 C174 15.18 174 30.36 174 46 C116.58 46 59.16 46 0 46 C0 30.82 0 15.64 0 0 Z " fill="#000000" transform="translate(308,471)"/>
<path d="M0 0 C6.27378144 -1.43820019 12.1320848 -2.09803135 18 1 C24.52431521 7.88953353 28.69223884 16.90941659 33.03222656 25.27001953 C35.85799087 30.68789456 39.03342673 35.893955 42.1875 41.125 C43.18321792 42.81379231 44.17681626 44.5038367 45.16796875 46.1953125 C48.08014355 51.14938046 51.03563476 56.07702464 54 61 C57.08152983 33.50882502 57.08152983 33.50882502 60 6 C66.10261698 5.94009701 71.94192336 6.23072043 78 7 C78.21331719 16.01056275 77.38112635 24.85166164 76.50390625 33.8046875 C76.34903273 35.41745923 76.19449241 37.03026299 76.04026794 38.64309692 C75.71789968 42.0035717 75.39230169 45.36371221 75.06420898 48.72363281 C74.64413472 53.02709431 74.23104336 57.33119127 73.82019138 61.63554192 C73.5025484 64.95745494 73.18184548 68.27906681 72.86015129 71.60058975 C72.7066516 73.18812445 72.55396121 74.77573761 72.40210152 76.36343002 C72.18978816 78.5770654 71.97350257 80.79027703 71.75610352 83.00341797 C71.63396988 84.26121063 71.51183624 85.5190033 71.38600159 86.81491089 C71.08367565 89.30955105 70.6971086 91.59382292 70 94 C63.72621856 95.43820019 57.8679152 96.09803135 52 93 C45.47568479 86.11046647 41.30776116 77.09058341 36.96777344 68.72998047 C34.14200913 63.31210544 30.96657327 58.106045 27.8125 52.875 C26.81678208 51.18620769 25.82318374 49.4961633 24.83203125 47.8046875 C21.91985645 42.85061954 18.96436524 37.92297536 16 33 C15.2348831 35.80431309 14.78859933 38.48790049 14.53515625 41.38208008 C14.45837646 42.2400972 14.38159668 43.09811432 14.30249023 43.98213196 C14.22329346 44.90197372 14.14409668 45.82181549 14.0625 46.76953125 C13.97750244 47.72389572 13.89250488 48.67826019 13.80493164 49.6615448 C13.53361715 52.71160612 13.26649361 55.76201397 13 58.8125 C12.73305687 61.85223062 12.46516609 64.89186819 12.19506836 67.93132019 C12.02726988 69.82105119 11.8613239 71.71094789 11.69750977 73.60102844 C11.27014214 78.42951464 10.7382841 83.20891186 10 88 C7.18711295 87.85980308 4.37483115 87.71312045 1.5625 87.5625 C0.76005859 87.52318359 -0.04238281 87.48386719 -0.86914062 87.44335938 C-6.88671875 87.11328125 -6.88671875 87.11328125 -8 86 C-8.37109707 77.55536392 -7.35060151 69.19145646 -6.50390625 60.80078125 C-6.34903352 59.23621292 -6.19449317 57.67161166 -6.04026794 56.10697937 C-5.71762805 52.84309703 -5.39207641 49.5795234 -5.06420898 46.31616211 C-4.64511144 42.14394923 -4.23166899 37.97120072 -3.82019138 33.79823017 C-3.50184848 30.57323303 -3.18136358 27.34845175 -2.86015129 24.12373924 C-2.70700065 22.58527379 -2.55431115 21.04676235 -2.40210152 19.50820351 C-2.18881 17.35722832 -1.97284137 15.20653852 -1.75610352 13.0559082 C-1.63396988 11.83507034 -1.51183624 10.61423248 -1.38600159 9.35639954 C-1.02453611 6.21334887 -0.55107942 3.11482176 0 0 Z " fill="#030303" transform="translate(389,68)"/>
<path d="M0 0 C9.2073919 5.60037239 15.3195669 12.6827889 18.46484375 22.98828125 C21.04273029 33.75910605 19.92758243 43.5456082 14.109375 53.1640625 C8.23923753 61.15658377 0.44654422 67.37244875 -9.34765625 69.61328125 C-18.40894635 70.66419245 -27.51326832 70.77758187 -35.34765625 65.61328125 C-36.04117188 65.16597656 -36.7346875 64.71867187 -37.44921875 64.2578125 C-46.58915926 57.87354694 -51.51103639 50.47897767 -54.34765625 39.61328125 C-55.836195 28.76135355 -53.75058432 19.70243709 -47.328125 10.8203125 C-42.69517273 5.32730254 -37.92705651 1.49477042 -31.34765625 -1.38671875 C-30.60128906 -1.74894531 -29.85492187 -2.11117187 -29.0859375 -2.484375 C-19.89275243 -5.51379833 -8.55586081 -4.16643427 0 0 Z " fill="#F8F8F8" transform="translate(669.34765625,238.38671875)"/>
<path d="M0 0 C9.81983911 5.97289183 16.18768311 13.86679814 19.14453125 24.98046875 C21.25073759 35.90033856 18.67157369 45.09188642 12.83984375 54.42578125 C7.13614203 62.41096365 -0.58621588 67.78516698 -10.34765625 69.61328125 C-19.23596972 70.20583548 -27.60375163 70.62586881 -35.34765625 65.61328125 C-36.04246094 65.16597656 -36.73726562 64.71867187 -37.453125 64.2578125 C-46.31985316 58.05276634 -51.42164145 50.74390749 -53.9296875 40.15625 C-55.53596554 30.38347427 -54.34240721 22.22051488 -49.34765625 13.61328125 C-37.56334361 -2.4501259 -18.53125763 -9.0241378 0 0 Z " fill="#F9F9F9" transform="translate(154.34765625,238.38671875)"/>
<path d="M0 0 C24.42 0 48.84 0 74 0 C74 6.86268354 73.93725593 7.94782746 70.4375 13.1875 C69.70885132 14.31590031 68.98100536 15.44481933 68.25390625 16.57421875 C67.50296829 17.71638532 66.75166743 18.85831337 66 20 C64.60405824 22.15323386 63.22755005 24.31924834 61.875 26.5 C61.27429688 27.4384375 60.67359375 28.376875 60.0546875 29.34375 C58.70190809 31.93092181 58.70190809 31.93092181 59.7578125 34.36376953 C60.98247781 36.96281355 62.32724356 39.38202616 63.8203125 41.8359375 C64.35527344 42.73570312 64.89023437 43.63546875 65.44140625 44.5625 C66.56243364 46.43521397 67.6926471 48.30246002 68.83203125 50.1640625 C69.36441406 51.06640625 69.89679688 51.96875 70.4453125 52.8984375 C71.18031982 54.11539307 71.18031982 54.11539307 71.93017578 55.35693359 C73 58 73 58 73 65 C48.91 65 24.82 65 0 65 C0 57.12612613 0 57.12612613 2.046875 53.84375 C2.6965625 52.77447266 2.6965625 52.77447266 3.359375 51.68359375 C3.81828125 50.96300781 4.2771875 50.24242187 4.75 49.5 C6.07577908 47.34560899 7.40071343 45.19070497 8.72460938 43.03515625 C9.5530778 41.71315916 10.40749185 40.40694833 11.29101562 39.12109375 C13.13694493 36.29790775 14.08071287 34.61221572 13.6328125 31.21484375 C10.76586729 25.57011669 7.48353527 20.17775014 4.16796875 14.78710938 C3.63558594 13.88927734 3.10320313 12.99144531 2.5546875 12.06640625 C1.81968018 10.8589978 1.81968018 10.8589978 1.06982422 9.62719727 C0 7 0 7 0 0 Z " fill="#090909" transform="translate(643,369)"/>
<path d="M0 0 C9.29715724 5.89729387 14.16745055 13.45213766 16.73046875 24.09765625 C17.32687241 30.44311383 17.00395841 36.73834029 16.73046875 43.09765625 C16.68749921 44.5167496 16.64505359 45.93585887 16.60302734 47.35498047 C15.6696732 75.02908668 15.6696732 75.02908668 10.92089844 81.60253906 C5.74228743 86.00447682 -0.47886938 88.09765625 -7.26953125 88.09765625 C-7.12709528 85.43076996 -6.98066547 82.76419858 -6.83203125 80.09765625 C-6.79271484 79.35386719 -6.75339844 78.61007813 -6.71289062 77.84375 C-6.50558337 74.17600632 -6.22688355 70.55191256 -5.73828125 66.91015625 C-5.32914951 63.58255144 -5.1652045 60.44379646 -5.20703125 57.09765625 C-5.21605469 56.14890625 -5.22507812 55.20015625 -5.234375 54.22265625 C-5.24597656 53.52140625 -5.25757813 52.82015625 -5.26953125 52.09765625 C-5.800625 52.37480469 -6.33171875 52.65195313 -6.87890625 52.9375 C-7.93851562 53.48083984 -7.93851562 53.48083984 -9.01953125 54.03515625 C-9.715625 54.39480469 -10.41171875 54.75445312 -11.12890625 55.125 C-17.31013946 57.93362604 -24.49220883 58.26917364 -30.96484375 56.26171875 C-38.43501831 52.85787774 -42.88139412 47.87245365 -47.20703125 41.03515625 C-49.95605224 33.49696032 -49.55783975 23.81903562 -46.20703125 16.59765625 C-37.14233238 1.44809046 -17.08475805 -8.10866 0 0 Z " fill="#040404" transform="translate(282.26953125,99.90234375)"/>
<path d="M0 0 C3.5425814 0.58723313 6.40462264 1.51818144 9.60668945 3.13305664 C10.48722488 3.57343765 11.36776031 4.01381866 12.27497864 4.46754456 C13.67993843 5.18163734 13.67993843 5.18163734 15.11328125 5.91015625 C16.08283249 6.39705429 17.05238373 6.88395233 18.05131531 7.38560486 C21.14124299 8.93895149 24.22688858 10.50059986 27.3125 12.0625 C29.40922819 13.11838882 31.50623031 14.17373385 33.60351562 15.22851562 C38.73887013 17.81271356 43.87073584 20.40373649 49 23 C47.74437758 26.87889305 46.41115452 30.33852109 44.375 33.875 C43.70597656 35.04675781 43.70597656 35.04675781 43.0234375 36.2421875 C42.68570313 36.82226562 42.34796875 37.40234375 42 38 C37.6865604 36.66017669 33.75658491 34.99589931 29.7265625 32.9609375 C28.57285156 32.38085938 27.41914062 31.80078125 26.23046875 31.203125 C25.02860117 30.59383809 23.82677881 29.98446198 22.625 29.375 C21.39992668 28.75744122 20.1746679 28.14025018 18.94921875 27.5234375 C15.96430368 26.01922833 12.98132497 24.51130878 10 23 C9.6920752 23.93279785 9.38415039 24.8655957 9.06689453 25.82666016 C8.09301407 28.72334168 7.02283931 31.54366303 5.875 34.375 C5.34519531 35.68597656 5.34519531 35.68597656 4.8046875 37.0234375 C4.53914062 37.67570312 4.27359375 38.32796875 4 39 C4.78632812 39.22429687 5.57265625 39.44859375 6.3828125 39.6796875 C11.12315644 41.40996423 15.43668806 43.73873891 19.875 46.125 C20.75414062 46.59292969 21.63328125 47.06085938 22.5390625 47.54296875 C24.69494271 48.6912093 26.84846777 49.84363903 29 51 C28.29920108 54.84172903 27.24403589 57.83839253 25.4375 61.3125 C24.98246094 62.19550781 24.52742187 63.07851562 24.05859375 63.98828125 C23.70925781 64.65214844 23.35992188 65.31601563 23 66 C22.47156494 65.74831055 21.94312988 65.49662109 21.39868164 65.23730469 C18.95385044 64.07368342 16.50818061 62.91183487 14.0625 61.75 C13.23169922 61.35425781 12.40089844 60.95851562 11.54492188 60.55078125 C6.06568632 57.94974336 0.55490404 55.4352565 -5 53 C-5.19174805 53.60400635 -5.38349609 54.2080127 -5.58105469 54.83032227 C-7.35223736 60.40954767 -9.58061426 65.67401128 -12 71 C-11.09644775 71.4439209 -10.19289551 71.8878418 -9.26196289 72.34521484 C-5.91747649 73.99035293 -2.57693832 75.64337182 0.76245117 77.29882812 C2.20962383 78.01486102 3.65786504 78.72873839 5.10717773 79.44042969 C7.18756783 80.46247559 9.26401961 81.49215597 11.33984375 82.5234375 C11.99089584 82.84122162 12.64194794 83.15900574 13.31272888 83.48641968 C17.88612829 85.77225659 17.88612829 85.77225659 19 88 C17.92481882 90.44332726 16.80191434 92.76754523 15.5625 95.125 C15.22412109 95.78371094 14.88574219 96.44242187 14.53710938 97.12109375 C13.69850074 98.75106547 12.85015189 100.37601909 12 102 C7.24382376 100.20570031 2.72038622 97.98016014 -1.84375 95.75390625 C-3.11381897 95.13623634 -3.11381897 95.13623634 -4.4095459 94.50608826 C-6.19517359 93.6370234 -7.9803616 92.76705465 -9.76513672 91.89624023 C-12.48911469 90.56780856 -15.21516277 89.24369678 -17.94140625 87.91992188 C-19.67981469 87.07317774 -21.41810009 86.22618094 -23.15625 85.37890625 C-23.96783569 84.98506241 -24.77942139 84.59121857 -25.61560059 84.18544006 C-29.52023622 82.27621154 -33.3167679 80.31956806 -37 78 C-36.3920573 74.13341463 -35.22597163 71.11038537 -33.4453125 67.6328125 C-32.9186499 66.59431152 -32.3919873 65.55581055 -31.84936523 64.48583984 C-31.28032471 63.3767627 -30.71128418 62.26768555 -30.125 61.125 C-28.92930169 58.76645675 -27.7349556 56.40728998 -26.54296875 54.046875 C-26.24191727 53.45180145 -25.94086578 52.85672791 -25.63069153 52.24362183 C-22.8132415 46.66111108 -20.11294964 41.02657261 -17.4375 35.375 C-11.80260356 23.49419424 -5.9208788 11.74039939 0 0 Z " fill="#030303" transform="translate(516,93)"/>
<path d="M0 0 C1.98 0 3.96 0 6 0 C6 4.29 6 8.58 6 13 C7.98 13.33 9.96 13.66 12 14 C19.305143 17.29948959 23.91052682 22.65795785 27 30 C27 31.32 27 32.64 27 34 C31.29 34 35.58 34 40 34 C40 35.98 40 37.96 40 40 C35.71 40 31.42 40 27 40 C26.67 41.98 26.34 43.96 26 46 C22.64873282 52.3003823 16.73530424 58.31640222 10 61 C8.68 61 7.36 61 6 61 C6 65.29 6 69.58 6 74 C4.02 74 2.04 74 0 74 C0 69.71 0 65.42 0 61 C-2.97 60.505 -2.97 60.505 -6 60 C-12.19948208 56.70240315 -17.24320837 51.43720102 -20.4375 45.1875 C-21 43 -21 43 -21 40 C-25.29 40 -29.58 40 -34 40 C-34 38.02 -34 36.04 -34 34 C-29.71 34 -25.42 34 -21 34 C-20.505 31.03 -20.505 31.03 -20 28 C-16.70051041 20.694857 -11.34204215 16.08947318 -4 13 C-2.68 13 -1.36 13 0 13 C0 8.71 0 4.42 0 0 Z " fill="#060606" transform="translate(108,365)"/>
<path d="M0 0 C2.8795301 11.03990772 5.31023195 22.10486058 7.4375 33.3125 C7.73813699 34.88171642 8.03900302 36.45088898 8.34008789 38.02001953 C8.94338814 41.17014983 9.54340532 44.32087939 10.140625 47.47216797 C10.81772997 51.04492261 11.50207363 54.61622698 12.18955994 58.18699646 C12.77754513 61.2486525 13.3572972 64.31186112 13.9375 67.375 C14.25448853 69.02109253 14.25448853 69.02109253 14.57788086 70.70043945 C15.47971896 75.52467925 16.27976387 80.06598266 16 85 C13.58525383 85.53160457 11.16891893 86.05054766 8.75 86.5625 C8.06808594 86.71396484 7.38617188 86.86542969 6.68359375 87.02148438 C3.07779197 87.77415174 0.51399559 88.06166083 -3 87 C-6.45089592 69.25651094 -9.86619293 51.50640669 -13.25 33.75 C-13.42217041 32.84735413 -13.59434082 31.94470825 -13.77172852 31.01470947 C-14.71982392 26.04286551 -15.66303655 21.07014035 -16.60131836 16.09643555 C-16.96511473 14.18344139 -17.33849656 12.27227646 -17.71289062 10.36132812 C-17.90560547 9.36037109 -18.09832031 8.35941406 -18.296875 7.328125 C-18.46026367 6.49700195 -18.62365234 5.66587891 -18.79199219 4.80957031 C-18.86063477 4.21241211 -18.92927734 3.61525391 -19 3 C-17.23986329 1.23986329 -14.70101226 1.33411643 -12.3125 0.9375 C-11.27738281 0.76089844 -10.24226563 0.58429688 -9.17578125 0.40234375 C-6.07534558 0.00954563 -3.12068525 -0.02801138 0 0 Z " fill="#040404" transform="translate(342,75)"/>
<path d="M0 0 C9.81983911 5.97289183 16.18768311 13.86679814 19.14453125 24.98046875 C21.25073759 35.90033856 18.67157369 45.09188642 12.83984375 54.42578125 C7.13614203 62.41096365 -0.58621588 67.78516698 -10.34765625 69.61328125 C-19.23596972 70.20583548 -27.60375163 70.62586881 -35.34765625 65.61328125 C-36.04246094 65.16597656 -36.73726562 64.71867187 -37.453125 64.2578125 C-46.31985316 58.05276634 -51.42164145 50.74390749 -53.9296875 40.15625 C-55.53596554 30.38347427 -54.34240721 22.22051488 -49.34765625 13.61328125 C-37.56334361 -2.4501259 -18.53125763 -9.0241378 0 0 Z M-35.34765625 7.61328125 C-35.93160156 7.99742187 -36.51554687 8.3815625 -37.1171875 8.77734375 C-42.76542638 12.98134939 -46.89987045 19.76920291 -48.34765625 26.61328125 C-49.31847448 36.75459786 -47.69139623 45.751818 -41.34765625 53.92578125 C-34.91651133 60.54808547 -27.37118631 63.94699757 -18.16015625 64.17578125 C-6.64309459 63.56895473 -0.25509401 60.11911971 7.65234375 51.61328125 C12.3900465 45.52194914 14.24764085 37.73766499 14.0234375 30.1015625 C12.63896398 20.81830321 8.0554783 13.27129384 0.65234375 7.61328125 C-10.65136583 0.57667075 -24.14801743 0.11925306 -35.34765625 7.61328125 Z " fill="#0B0B0B" transform="translate(154.34765625,238.38671875)"/>
<path d="M0 0 C9.2073919 5.60037239 15.3195669 12.6827889 18.46484375 22.98828125 C21.04273029 33.75910605 19.92758243 43.5456082 14.109375 53.1640625 C8.23923753 61.15658377 0.44654422 67.37244875 -9.34765625 69.61328125 C-18.40894635 70.66419245 -27.51326832 70.77758187 -35.34765625 65.61328125 C-36.04117188 65.16597656 -36.7346875 64.71867187 -37.44921875 64.2578125 C-46.58915926 57.87354694 -51.51103639 50.47897767 -54.34765625 39.61328125 C-55.836195 28.76135355 -53.75058432 19.70243709 -47.328125 10.8203125 C-42.69517273 5.32730254 -37.92705651 1.49477042 -31.34765625 -1.38671875 C-30.60128906 -1.74894531 -29.85492187 -2.11117187 -29.0859375 -2.484375 C-19.89275243 -5.51379833 -8.55586081 -4.16643427 0 0 Z M-35.34765625 7.61328125 C-35.93160156 7.99742187 -36.51554688 8.3815625 -37.1171875 8.77734375 C-42.76542638 12.98134939 -46.89987045 19.76920291 -48.34765625 26.61328125 C-49.37246589 37.46049716 -46.99211911 46.2191759 -40.1953125 54.7890625 C-34.11941575 60.78788657 -27.15246035 63.75308773 -18.72265625 63.86328125 C-8.09540963 63.72143915 -2.33665482 61.48284754 5.4140625 54.09375 C11.82348031 46.99081752 14.05121456 39.9747293 13.92578125 30.5546875 C13.04416708 21.07103797 7.89054012 14.17782931 0.890625 8.078125 C-9.7605331 -0.13164405 -24.41663961 0.29899655 -35.34765625 7.61328125 Z " fill="#0B0B0B" transform="translate(669.34765625,238.38671875)"/>
<path d="M0 0 C4.82397894 2.63953564 8.17993255 5.71698486 10.3125 10.8125 C11.15432359 16.72713066 10.23852672 21.5658314 7.3125 26.8125 C3.10427459 31.79592482 -0.08001659 33.51328059 -6.5 34.25 C-11.45262378 34.10956643 -14.97464474 31.97377809 -18.6875 28.8125 C-22.81550558 23.52018515 -24.23764366 19.52425266 -23.6875 12.8125 C-21.72578932 6.90494842 -18.68917137 3.40065554 -13.6875 -0.1875 C-9.25615993 -2.40317003 -4.50514582 -1.45080967 0 0 Z " fill="#0B0B0B" transform="translate(327.6875,659.1875)"/>
<path d="M0 0 C5.48289372 2.20630141 9.53816756 5.56345335 12 11 C12.84149069 16.92912405 12.52202744 22.00099331 9 27 C3.42098351 32.48861576 -0.19060593 34.4763535 -8.1015625 34.4140625 C-13.86460083 33.59077131 -17.21628888 29.95093404 -21 25.8125 C-22.648077 21.17728343 -22.83432704 16.84316674 -22 12 C-17.60475153 2.90742412 -10.03414291 -1.78075067 0 0 Z " fill="#070707" transform="translate(203,592)"/>
<path d="M0 0 C5.48345028 2.45312249 9.17195764 5.86735278 11.890625 11.3046875 C12.44775632 17.26170695 12.41242686 22.25677149 8.890625 27.3046875 C3.71110853 32.38751967 0.01836988 33.78073115 -7.14453125 33.71484375 C-12.11209454 33.02763144 -15.49329518 30.67969533 -19.109375 27.3046875 C-22.2721541 23.0876487 -22.69796942 18.98736977 -22.51953125 13.8359375 C-21.71057677 8.84353273 -19.30796414 5.19376652 -15.5 1.921875 C-10.52377867 -1.34234358 -5.51845074 -1.81904487 0 0 Z " fill="#080808" transform="translate(644.109375,539.6953125)"/>
<path d="M0 0 C3.20777299 2.40582974 5.2488455 4.53237665 7.5 7.875 C7.625 10.125 7.625 10.125 6.5 11.875 C3.60888212 13.39664099 1.78176588 13.875 -1.5 13.875 C-2.263125 13.05 -3.02625 12.225 -3.8125 11.375 C-6.27506054 8.65190549 -6.27506054 8.65190549 -9.5 8.25 C-13.67862962 9.12054784 -15.06887157 10.37131491 -17.5 13.875 C-18.43951288 18.39283149 -18.02484337 21.80344478 -16 25.9375 C-13.13830614 28.15531274 -11.08912154 28.58560495 -7.47265625 28.3828125 C-4.20915936 27.54270439 -2.54382557 25.42978196 -0.5 22.875 C2.47 23.865 5.44 24.855 8.5 25.875 C6.12302601 31.55332676 3.06025557 35.09487222 -2.5 37.875 C-14.45100391 38.80962979 -14.45100391 38.80962979 -20.0625 36.25 C-25.96326654 30.50053517 -28.64101851 26.53729579 -28.8125 18.0625 C-28.76049823 12.4463083 -28.56574117 9.04773436 -24.5 4.875 C-17.25847221 -1.84927581 -9.58483213 -3.0808389 0 0 Z " fill="#050505" transform="translate(661.5,253.125)"/>
<path d="M0 0 C0 2.97 0 5.94 0 9 C1.98 9 3.96 9 6 9 C6 6.03 6 3.06 6 0 C11.88094285 1.29093868 15.36633092 4.36922911 19 9 C20.4375 12.4375 20.4375 12.4375 21 15 C17.7 15 14.4 15 11 15 C11 16.98 11 18.96 11 21 C13.97 21 16.94 21 20 21 C19.68327951 26.22588808 16.69889181 29.5609835 13 33 C10.32231172 34.60661297 9.19012124 35 6 35 C6 32.03 6 29.06 6 26 C4.02 26 2.04 26 0 26 C0 28.97 0 31.94 0 35 C-5.22588808 34.68327951 -8.5609835 31.69889181 -12 28 C-13.60661297 25.32231172 -14 24.19012124 -14 21 C-11.03 21 -8.06 21 -5 21 C-5 19.02 -5 17.04 -5 15 C-8.3 15 -11.6 15 -15 15 C-13.70923237 9.11983634 -10.54003898 5.71631883 -6 2 C-2.50649351 0 -2.50649351 0 0 0 Z " fill="#F3F3F3" transform="translate(108,384)"/>
<path d="M0 0 C4.08405556 3.75605556 6.53232401 8.56719381 9.3125 13.3125 C9.88806641 14.25029297 10.46363281 15.18808594 11.05664062 16.15429688 C15.08271193 23.04572653 15.08271193 23.04572653 14.73828125 27.01953125 C14.16464844 28.00308594 13.59101562 28.98664063 13 30 C12.56695557 30.76836182 12.13391113 31.53672363 11.68774414 32.32836914 C10.13259879 35.04313881 8.51361711 37.70987101 6.875 40.375 C6.31167969 41.30183594 5.74835937 42.22867188 5.16796875 43.18359375 C3.78393957 45.45903155 2.39451078 47.7309763 1 50 C-2.85922299 45.49449565 -5.85443819 40.58357439 -8.875 35.5 C-9.39835938 34.65824219 -9.92171875 33.81648438 -10.4609375 32.94921875 C-10.945625 32.13066406 -11.4303125 31.31210937 -11.9296875 30.46875 C-12.59846924 29.36176758 -12.59846924 29.36176758 -13.28076172 28.23242188 C-14 26 -14 26 -13.30566406 23.53833008 C-11.98087953 20.96282806 -10.62668722 18.42712784 -9.1796875 15.91796875 C-8.64472656 14.98662109 -8.10976563 14.05527344 -7.55859375 13.09570312 C-7.00300781 12.13599609 -6.44742188 11.17628906 -5.875 10.1875 C-5.31167969 9.20845703 -4.74835937 8.22941406 -4.16796875 7.22070312 C-2.78155585 4.81210445 -1.39214945 2.40528605 0 0 Z " fill="#FAFAFA" transform="translate(679,377)"/>
<path d="M0 0 C16.03125 0.05566406 16.03125 0.05566406 21.25 4.1328125 C22.98791993 7.60865236 22.84490609 11.34110338 22.25 15.1328125 C19.9375 18.1953125 19.9375 18.1953125 17.25 20.1328125 C16.26 20.1328125 15.27 20.1328125 14.25 20.1328125 C16.77790326 25.49390487 16.77790326 25.49390487 20 30.4453125 C21.25 32.1328125 21.25 32.1328125 21.25 35.1328125 C17.94026929 35.30700885 16.24290038 35.39243318 13.25 34.1328125 C10.27027665 30.6462577 6.25 25.89847396 6.25 21.1328125 C4.93 21.1328125 3.61 21.1328125 2.25 21.1328125 C2.25 24.7628125 2.25 28.3928125 2.25 32.1328125 C-0.39 32.1328125 -3.03 32.1328125 -5.75 32.1328125 C-4.16124027 0.31580841 -4.16124027 0.31580841 0 0 Z " fill="#0A0A0A" transform="translate(352.75,665.8671875)"/>
<path d="M0 0 C4.02597754 1.53203533 7.15202498 3.36864657 10.625 5.9375 C11.56601563 6.62714844 12.50703125 7.31679688 13.4765625 8.02734375 C18.88404151 12.25455257 18.88404151 12.25455257 19.4375 15.8125 C18.88773858 19.81790465 17.54632587 21.88782394 15 25 C11.45930911 27.59650665 9.85153598 27 5 27 C5 31.62 5 36.24 5 41 C0 39 0 39 -1.2734375 37.296875 C-2.23131569 34.26874396 -2.43494039 31.41766009 -2.625 28.25 C-2.73714844 26.49429688 -2.73714844 26.49429688 -2.8515625 24.703125 C-2.90054688 23.81109375 -2.94953125 22.9190625 -3 22 C-3.66 22 -4.32 22 -5 22 C-6.58969247 24.01791336 -6.58969247 24.01791336 -8.125 26.5 C-8.66382813 27.3353125 -9.20265625 28.170625 -9.7578125 29.03125 C-10.16773438 29.6809375 -10.57765625 30.330625 -11 31 C-12.98 29.68 -14.96 28.36 -17 27 C-15.61624948 23.16598382 -13.83573405 20.05008918 -11.5234375 16.69921875 C-10.853125 15.72275391 -10.1828125 14.74628906 -9.4921875 13.74023438 C-8.44417969 12.22913086 -8.44417969 12.22913086 -7.375 10.6875 C-6.31539062 9.14739258 -6.31539062 9.14739258 -5.234375 7.57617188 C-3.49388988 5.04776444 -1.74898214 2.52253376 0 0 Z " fill="#080808" transform="translate(228,614)"/>
<path d="M0 0 C6.1490905 2.34116748 9.71253023 8.58894728 13 14 C14.15986739 17.39961131 13.92910587 18.34551692 13 22 C11.03113638 25.74813297 8.85006405 28.32724943 4.80859375 29.796875 C0.62399362 30.50492917 -1.52239903 30.23880049 -5.375 28.3125 C-7.63855485 26.31841596 -9.37519109 24.52748053 -11 22 C-13.46800047 23.15173355 -15.04783565 24.04783565 -17 26 C-19 25.9375 -19 25.9375 -21 25 C-21.72251755 23.35677433 -22.39437405 21.68980455 -23 20 C-16.90705793 14.4092961 -10.69057526 9.03488092 -4.25 3.84765625 C-1.97880251 2.04394839 -1.97880251 2.04394839 0 0 Z " fill="#080808" transform="translate(173,560)"/>
<path d="M0 0 C1.06494141 2.00610352 1.06494141 2.00610352 1.8515625 4.62890625 C2.29242188 6.05879883 2.29242188 6.05879883 2.7421875 7.51757812 C3.17917969 9.02481445 3.17917969 9.02481445 3.625 10.5625 C3.9240625 11.54025391 4.223125 12.51800781 4.53125 13.52539062 C6.18294615 18.98110378 7.66882752 24.4578413 9 30 C6.52122005 30.93430937 4.76020809 31.31177073 2.26171875 30.28710938 C0.29415381 29.17077516 -1.60458253 27.98483633 -3.5 26.75 C-4.15097656 26.34136719 -4.80195313 25.93273437 -5.47265625 25.51171875 C-6.73924752 24.71594121 -8.00242388 23.91469616 -9.26171875 23.10742188 C-11.4813395 21.69334888 -13.73573156 20.34114362 -16 19 C-15.6390625 19.97582031 -15.278125 20.95164062 -14.90625 21.95703125 C-14.43724838 23.24209569 -13.96851221 24.52725704 -13.5 25.8125 C-13.26152344 26.45509766 -13.02304687 27.09769531 -12.77734375 27.75976562 C-11.72931254 30.64933739 -11 32.90076061 -11 36 C-13.31 36.66 -15.62 37.32 -18 38 C-27.71723653 11.1753956 -27.71723653 11.1753956 -26 6 C-20.10386453 6.4426811 -16.03504201 9.03741479 -11.125 12.0625 C-10.34125 12.53494141 -9.5575 13.00738281 -8.75 13.49414062 C-6.82801567 14.65436287 -4.91177465 15.82305776 -3 17 C-3.28875 16.19175781 -3.5775 15.38351562 -3.875 14.55078125 C-4.24625 13.48214844 -4.6175 12.41351562 -5 11.3125 C-5.37125 10.25675781 -5.7425 9.20101562 -6.125 8.11328125 C-6.9391857 5.21637944 -7.17709796 2.98299377 -7 0 C-3.88276094 -1.03907969 -2.93207845 -1.29526737 0 0 Z " fill="#080808" transform="translate(493,653)"/>
<path d="M0 0 C2.98261927 1.56632521 3.31573088 1.82219263 4.4375 5.1875 C3.5 7.375 3.5 7.375 2.4375 9.1875 C-2.3125 7.3125 -2.3125 7.3125 -4.5625 6.1875 C-8.81811995 5.68635557 -12.37158635 5.49037982 -16.125 7.6875 C-18.15949776 11.22575697 -18.11954215 14.1980952 -17.5625 18.1875 C-16.55374788 20.99759519 -16.22854583 21.85447708 -13.5625 23.1875 C-7.95546787 23.40127721 -7.95546787 23.40127721 -2.5625 22.1875 C-2.2325 20.8675 -1.9025 19.5475 -1.5625 18.1875 C-4.5325 18.1875 -7.5025 18.1875 -10.5625 18.1875 C-10.5625 16.2075 -10.5625 14.2275 -10.5625 12.1875 C-5.2825 12.1875 -0.0025 12.1875 5.4375 12.1875 C5.96111164 21.61250944 5.96111164 21.61250944 5.4375 26.1875 C1.11844274 30.50655726 -3.42512253 31.35780167 -9.375 31.5 C-14.62714595 31.44298032 -17.63097047 30.92245305 -21.5625 27.1875 C-25.17188411 23.3881483 -25.87181409 20.34131391 -26.0625 15.25 C-25.84783932 9.66189769 -25.09704993 6.53771529 -21.5625 2.1875 C-14.94468107 -2.97439876 -7.6506225 -3.55109539 0 0 Z " fill="#080808" transform="translate(411.5625,669.8125)"/>
<path d="M0 0 C3.79665446 0.60337404 6.78011691 1.71814046 10.1953125 3.46875 C11.15824219 3.95730469 12.12117187 4.44585937 13.11328125 4.94921875 C14.10714844 5.46097656 15.10101562 5.97273438 16.125 6.5 C18.10590112 7.51212065 20.08763535 8.5226129 22.0703125 9.53125 C23.38153076 10.20510742 23.38153076 10.20510742 24.71923828 10.89257812 C27.07323113 12.09657789 27.07323113 12.09657789 30 13 C29.8828125 14.8671875 29.8828125 14.8671875 29 17 C26.3046875 18.1953125 26.3046875 18.1953125 22.875 19.125 C21.69808594 19.45242188 20.52117188 19.77984375 19.30859375 20.1171875 C17.67083984 20.55417969 17.67083984 20.55417969 16 21 C14.64493193 21.41372576 13.29050924 21.82959013 11.9375 22.25 C9 23 9 23 5 23 C5 23.66 5 24.32 5 25 C5.78375 25.226875 6.5675 25.45375 7.375 25.6875 C12.12301625 27.40660933 16.52102552 29.68084721 21 32 C20.01 34.31 19.02 36.62 18 39 C-2.61990132 29.28699135 -2.61990132 29.28699135 -11 25 C-10.67 23.35 -10.34 21.7 -10 20 C-3.07 18.02 3.86 16.04 11 14 C8.06489842 11.79867381 5.4339774 10.04495829 2.25 8.3125 C1.45078125 7.87550781 0.6515625 7.43851562 -0.171875 6.98828125 C-0.77515625 6.66214844 -1.3784375 6.33601563 -2 6 C-1.34 4.02 -0.68 2.04 0 0 Z " fill="#070707" transform="translate(651,501)"/>
<path d="M0 0 C1.37478516 0.01740234 1.37478516 0.01740234 2.77734375 0.03515625 C3.69644531 0.04417969 4.61554688 0.05320312 5.5625 0.0625 C6.27277344 0.07410156 6.98304687 0.08570313 7.71484375 0.09765625 C8.37484375 1.41765625 9.03484375 2.73765625 9.71484375 4.09765625 C9.05484375 4.75765625 8.39484375 5.41765625 7.71484375 6.09765625 C7.71484375 12.00857023 8.87597966 15.35287552 12.98828125 19.62109375 C17.85717878 23.78499254 23.01796166 24.6677173 29.22265625 24.44140625 C34.95494722 23.65074543 39.10676357 21.29138957 42.65234375 16.72265625 C44.64360899 13.59448619 45.62732997 10.86074882 45.71484375 7.09765625 C45.05484375 6.43765625 44.39484375 5.77765625 43.71484375 5.09765625 C44.08984375 2.47265625 44.08984375 2.47265625 44.71484375 0.09765625 C48.01484375 0.09765625 51.31484375 0.09765625 54.71484375 0.09765625 C55.33984375 2.47265625 55.33984375 2.47265625 55.71484375 5.09765625 C55.05484375 5.75765625 54.39484375 6.41765625 53.71484375 7.09765625 C53.20555128 8.49681138 52.75338967 9.9172739 52.33984375 11.34765625 C49.78107962 19.26462447 45.11976713 25.04021018 37.87109375 29.140625 C31.52549606 31.91032235 24.53089576 32.41484466 17.96484375 30.1484375 C7.33760583 25.13529104 1.85735085 16.80899605 -2.28515625 6.09765625 C-3.09765625 3.09765625 -3.09765625 3.09765625 -3.28515625 1.09765625 C-2.28515625 0.09765625 -2.28515625 0.09765625 0 0 Z " fill="#0B0B0B" transform="translate(110.28515625,266.90234375)"/>
<path d="M0 0 C2.2303265 2.06328016 3.68051002 3.97701464 5.04296875 6.6875 C5.39423828 7.38617188 5.74550781 8.08484375 6.10742188 8.8046875 C6.46384766 9.52914063 6.82027344 10.25359375 7.1875 11 C7.55552734 11.72445313 7.92355469 12.44890625 8.30273438 13.1953125 C8.65013672 13.89398437 8.99753906 14.59265625 9.35546875 15.3125 C9.82956177 16.26576172 9.82956177 16.26576172 10.31323242 17.23828125 C11 19 11 19 11 22 C9.02 22.66 7.04 23.32 5 24 C3.99515796 22.04414675 2.99626195 20.08523763 2 18.125 C1.443125 17.03445313 0.88625 15.94390625 0.3125 14.8203125 C-1 12 -1 12 -1 10 C-2.65 10.66 -4.3 11.32 -6 12 C-5.79503906 12.60328125 -5.59007812 13.2065625 -5.37890625 13.828125 C-5.10949219 14.62734375 -4.84007812 15.4265625 -4.5625 16.25 C-4.29566406 17.03890625 -4.02882812 17.8278125 -3.75390625 18.640625 C-3.08045292 20.74821988 -2.50849405 22.84753973 -2 25 C-5 27 -5 27 -8 27 C-9.65 23.7 -11.3 20.4 -13 17 C-14.65 17.33 -16.3 17.66 -18 18 C-17.33291016 19.35544922 -17.33291016 19.35544922 -16.65234375 20.73828125 C-15.80349609 22.50751953 -15.80349609 22.50751953 -14.9375 24.3125 C-14.36902344 25.48425781 -13.80054687 26.65601563 -13.21484375 27.86328125 C-12 31 -12 31 -13 34 C-15.5625 35.1875 -15.5625 35.1875 -18 36 C-19.70370011 32.73735861 -21.38509062 29.46372527 -23.0625 26.1875 C-23.54783203 25.25873047 -24.03316406 24.32996094 -24.53320312 23.37304688 C-24.98759766 22.48037109 -25.44199219 21.58769531 -25.91015625 20.66796875 C-26.33433838 19.84578857 -26.75852051 19.0236084 -27.19555664 18.17651367 C-28 16 -28 16 -27 13 C-24.40795898 11.46606445 -24.40795898 11.46606445 -20.99609375 9.86328125 C-20.39821548 9.57897751 -19.80033722 9.29467377 -19.18434143 9.00175476 C-17.27313204 8.09564391 -15.3555694 7.20398352 -13.4375 6.3125 C-12.14083238 5.70080939 -10.84460232 5.08819031 -9.54882812 4.47460938 C-6.37089271 2.97226499 -3.18710585 1.48280834 0 0 Z " fill="#080808" transform="translate(138,500)"/>
<path d="M0 0 C4.37457141 0.85900675 6.43986582 3.40962975 8.8984375 6.921875 C11.20506222 11.53512445 11.24775064 15.25759193 11.1484375 20.421875 C8.1784375 20.916875 8.1784375 20.916875 5.1484375 21.421875 C4.8803125 20.205 4.6121875 18.988125 4.3359375 17.734375 C3.43909007 14.19715857 2.4398534 11.33021056 0.1484375 8.421875 C-1.90316908 7.77067919 -1.90316908 7.77067919 -3.8515625 7.421875 C-3.37425412 8.8808176 -2.89465208 10.33900996 -2.4140625 11.796875 C-2.14722656 12.60898437 -1.88039062 13.42109375 -1.60546875 14.2578125 C-0.89976521 16.43219299 -0.89976521 16.43219299 0.1484375 18.421875 C0.7295513 25.51146338 0.7295513 25.51146338 -1.7265625 29.359375 C-4.47434051 32.02633601 -5.2983085 32.38011998 -9.1640625 32.671875 C-13.18461068 32.39929546 -14.63108542 31.73310066 -17.8515625 29.421875 C-21.40713496 25.07960321 -24.23676865 20.52252397 -24.2265625 14.796875 C-24.1028125 13.683125 -23.9790625 12.569375 -23.8515625 11.421875 C-20.3865625 10.926875 -20.3865625 10.926875 -16.8515625 10.421875 C-16.71878906 11.10894531 -16.58601562 11.79601562 -16.44921875 12.50390625 C-16.27261719 13.40496094 -16.09601563 14.30601562 -15.9140625 15.234375 C-15.74003906 16.12769531 -15.56601563 17.02101563 -15.38671875 17.94140625 C-14.87415097 20.53584671 -14.87415097 20.53584671 -13.8515625 23.421875 C-11.8715625 23.751875 -9.8915625 24.081875 -7.8515625 24.421875 C-8.28184681 20.89354363 -8.95534209 18.18940872 -10.4140625 14.921875 C-11.90527606 11.29109417 -12.52221764 9.27814208 -11.8515625 5.421875 C-8.57384867 0.55817061 -5.58666687 -0.33408639 0 0 Z " fill="#0A0A0A" transform="translate(153.8515625,533.578125)"/>
<path d="M0 0 C3.78027701 1.91607522 7.37938911 4.12338974 11.00341797 6.31933594 C12.75181933 7.37609963 14.50993918 8.41512756 16.26953125 9.453125 C17.37167969 10.11570312 18.47382812 10.77828125 19.609375 11.4609375 C21.1248291 12.37045166 21.1248291 12.37045166 22.67089844 13.29833984 C25 15 25 15 26 18 C24.5 19.625 24.5 19.625 22 21 C20.7625 20.608125 19.525 20.21625 18.25 19.8125 C15.49860026 18.97466775 14.3995366 18.83556487 11.703125 19.9453125 C9.44291456 21.47616425 7.70408409 22.86427456 6 25 C5.74984127 28.58357241 5.74984127 28.58357241 6 32 C3.5 34.4375 3.5 34.4375 1 36 C-2.03480133 31.44779801 -2.88358032 26.35714395 -4.1965332 21.08544922 C-4.68481304 19.13572913 -5.19046883 17.19107105 -5.69726562 15.24609375 C-6.00728516 14.01246094 -6.31730469 12.77882813 -6.63671875 11.5078125 C-6.92248779 10.38004395 -7.20825684 9.25227539 -7.50268555 8.09033203 C-8.0028332 4.98239435 -7.98112901 2.97812621 -7 0 C-4.23265634 -1.38367183 -2.96306988 -0.82799409 0 0 Z " fill="#0A0A0A" transform="translate(568,613)"/>
<path d="M0 0 C1.47045898 2.0378418 1.47045898 2.0378418 2.99609375 4.69921875 C3.55490234 5.66150391 4.11371094 6.62378906 4.68945312 7.61523438 C5.26630859 8.62908203 5.84316406 9.64292969 6.4375 10.6875 C7.58054271 12.67143128 8.72503636 14.65452743 9.87109375 16.63671875 C10.40847168 17.5704834 10.94584961 18.50424805 11.49951172 19.46630859 C12.74062819 21.56203048 14.02770903 23.57866982 15.41015625 25.58203125 C17 28 17 28 17 30 C14.36 30 11.72 30 9 30 C8.34 28.35 7.68 26.7 7 25 C2.38 25.66 -2.24 26.32 -7 27 C-7.33 29.31 -7.66 31.62 -8 34 C-10.31 34 -12.62 34 -15 34 C-12.82301584 22.48977525 -10.48531391 11.19749789 -7 0 C-3.98968256 -0.93423645 -3.13349732 -1.04449911 0 0 Z " fill="#080808" transform="translate(445,665)"/>
<path d="M0 0 C4.20475482 1.6997945 6.20472472 3.8425204 8 8 C8.63829578 12.923996 7.95915878 16.36571072 5.328125 20.48828125 C2.15440578 24.10072048 -1.94698688 24.83076575 -6.5 25.5625 C-11.20801433 24.80585484 -13.91829642 22.57791009 -17 19 C-18.2517847 15.24464589 -18.77373976 11.88289586 -18 8 C-13.28072638 0.40559968 -8.62460841 -0.74819158 0 0 Z " fill="#FAFAFA" transform="translate(270,115)"/>
<path d="M0 0 C2.3178452 3.47676781 2.16319252 4.2947464 1.75 8.3125 C1.64300781 9.36566406 1.53601563 10.41882813 1.42578125 11.50390625 C0.71358216 17.35177949 -0.12610505 23.17403365 -1 29 C3.29 27.02 7.58 25.04 12 23 C12.99 24.98 13.98 26.96 15 29 C11.57204403 31.03736586 8.13124835 33.05196199 4.6875 35.0625 C3.71103516 35.64322266 2.73457031 36.22394531 1.72851562 36.82226562 C0.79072266 37.36689453 -0.14707031 37.91152344 -1.11328125 38.47265625 C-2.40939331 39.23461304 -2.40939331 39.23461304 -3.73168945 40.01196289 C-6 41 -6 41 -9 40 C-10.7165287 36.5669426 -9.50281129 32.70251954 -9 29 C-8.76216797 27.23462891 -8.76216797 27.23462891 -8.51953125 25.43359375 C-7.03869787 14.75600569 -7.03869787 14.75600569 -6 11 C-7.24716797 11.75796875 -7.24716797 11.75796875 -8.51953125 12.53125 C-9.60621094 13.1809375 -10.69289063 13.830625 -11.8125 14.5 C-12.89144531 15.1496875 -13.97039063 15.799375 -15.08203125 16.46875 C-18 18 -18 18 -21 18 C-21.66 16.02 -22.32 14.04 -23 12 C-19.54565686 9.99304709 -16.0858937 7.99563221 -12.625 6 C-11.64015625 5.42765625 -10.6553125 4.8553125 -9.640625 4.265625 C-8.69960938 3.72421875 -7.75859375 3.1828125 -6.7890625 2.625 C-5.91975098 2.12226562 -5.05043945 1.61953125 -4.15478516 1.1015625 C-2 0 -2 0 0 0 Z " fill="#0C0C0C" transform="translate(543,627)"/>
<path d="M0 0 C2.43270079 0.94169063 3.72437686 1.52981934 5.0625 3.8125 C5 6 5 6 2.6875 8.75 C0 11 0 11 -2 11 C3.56331247 17.429126 9.26582134 23.72355495 15 30 C13.95125002 32.62187494 13.35068687 33.79371361 10.875 35.25 C10.25625 35.4975 9.6375 35.745 9 36 C8.43152344 35.35933594 7.86304688 34.71867188 7.27734375 34.05859375 C2.65861886 28.88469658 -2.02392428 23.83207353 -7 19 C-10.40212299 20.61382757 -13.10324519 22.58603766 -16 25 C-17.32 23.68 -18.64 22.36 -20 21 C-18.37514186 16.62860745 -15.07989887 14.07838401 -11.6875 11.0625 C-10.54466469 10.03355994 -9.40272567 9.00362346 -8.26171875 7.97265625 C-7.71306152 7.47781738 -7.1644043 6.98297852 -6.59912109 6.47314453 C-4.32880602 4.38168176 -2.16216104 2.20272692 0 0 Z " fill="#0A0A0A" transform="translate(597,582)"/>
<path d="M0 0 C3.53438866 1.36473636 6.91654955 2.89955124 10.30078125 4.6015625 C11.27724609 5.09140625 12.25371094 5.58125 13.25976562 6.0859375 C14.26716797 6.59382812 15.27457031 7.10171875 16.3125 7.625 C17.33923828 8.140625 18.36597656 8.65625 19.42382812 9.1875 C21.95013349 10.45652781 24.47548382 11.72741766 27 13 C26.01 14.98 25.02 16.96 24 19 C22.63875 18.5359375 22.63875 18.5359375 21.25 18.0625 C18.83105932 17.27169247 16.46799921 16.59553894 14 16 C13.71801758 16.60062256 13.43603516 17.20124512 13.14550781 17.82006836 C11.8616711 20.53310658 10.55621748 23.23517086 9.25 25.9375 C8.8065625 26.88302734 8.363125 27.82855469 7.90625 28.80273438 C7.46796875 29.70185547 7.0296875 30.60097656 6.578125 31.52734375 C6.18012695 32.35999756 5.78212891 33.19265137 5.37207031 34.05053711 C4 36 4 36 1.97949219 36.83813477 C-0.5460132 37.04464809 -1.86501065 36.29624353 -4 35 C-2.48437197 29.92663458 -0.30018445 25.42897777 2.125 20.75 C4.86835066 16.09824872 4.86835066 16.09824872 6 11 C3.36 9.68 0.72 8.36 -2 7 C-1.34 4.69 -0.68 2.38 0 0 Z " fill="#090909" transform="translate(256,632)"/>
<path d="M0 0 C0.33 0 0.66 0 1 0 C1.103125 1.0725 1.20625 2.145 1.3125 3.25 C2.01848605 7.10083298 2.74142645 8.02406314 5 11 C5.6720431 12.62719096 6.29604032 14.27491224 6.875 15.9375 C9.81326943 23.4709577 15.07324099 27.23230681 22 31 C29.24778664 33.41592888 36.81172415 32.48981524 43.70703125 29.3984375 C51.67237972 24.5405248 55.21092836 16.5415319 58 8 C58.96008549 5.64731527 59.97645829 3.32623116 61 1 C61.33 1 61.66 1 62 1 C62.44731238 10.24445579 61.04931981 18.67713918 55 26 C47.40204396 33.96485935 41.14281662 36.99667595 30.1875 37.5625 C20.97646994 37.33371632 13.43114492 33.93480422 7 27.3125 C0.54589658 18.99633251 -0.64521239 10.26963053 0 0 Z " fill="#EDEDED" transform="translate(106,265)"/>
<path d="M0 0 C3.64751591 0.28057815 5.34775143 1.07331357 8.25 3.25 C10.73386059 6.97579089 10.6304212 8.83711402 10.25 13.25 C8.61534368 16.84624391 6.82092133 19.46453934 3.25 21.25 C-0.97260145 21.25 -3.19010051 20.63120817 -6.6875 18.25 C-9.12229694 14.70847718 -9.47185604 12.62463294 -9.25390625 8.40625 C-8.45500939 4.9877146 -6.44395048 3.35259549 -3.75 1.25 C-2.75 0.25 -2.75 0.25 0 0 Z " fill="#F6F6F6" transform="translate(320.75,664.75)"/>
<path d="M0 0 C5.57894737 3.15789474 5.57894737 3.15789474 7 6 C7.67660495 11.86390959 7.67660495 11.86390959 5.953125 14.7578125 C4.16405507 16.93626824 2.54084375 18.72957812 0 20 C-3.91093991 20.3689566 -6.33546589 20.33226705 -9.875 18.5625 C-12.47003408 15.4331942 -13.01954256 13.26364634 -13.27734375 9.2578125 C-12.79386147 5.32185816 -10.85725154 3.65790841 -8 1 C-5.13391871 -0.43304064 -3.18699217 -0.30644155 0 0 Z " fill="#F8F8F8" transform="translate(201,599)"/>
<path d="M0 0 C2.70567626 1.82339052 4.53728718 3.07457436 6 6 C6.39447548 10.18144011 6.45035186 12.30946048 4.125 15.875 C1.43858355 18.56141645 0.55493957 18.93596851 -3.25 19.375 C-8.19272958 18.88072704 -9.53828301 17.46171699 -13 14 C-14.56935594 10.86128812 -14.35201103 8.46144178 -14 5 C-9.41551389 -0.54964108 -7.00689793 -1.54389276 0 0 Z " fill="#F8F8F8" transform="translate(643,547)"/>
<path d="M0 0 C2.2985087 2.1387104 3.89875923 4.26948483 5.48046875 6.9765625 C5.92197266 7.729375 6.36347656 8.4821875 6.81835938 9.2578125 C7.27017578 10.03898437 7.72199219 10.82015625 8.1875 11.625 C8.65091797 12.41390625 9.11433594 13.2028125 9.59179688 14.015625 C13 19.85825893 13 19.85825893 13 21 C5.08 21 -2.84 21 -11 21 C-9.69646 17.74115 -8.5363417 14.99957184 -6.8359375 12.01171875 C-6.43632813 11.30595703 -6.03671875 10.60019531 -5.625 9.87304688 C-5.2125 9.15181641 -4.8 8.43058594 -4.375 7.6875 C-3.95476563 6.94693359 -3.53453125 6.20636719 -3.1015625 5.44335938 C-2.07051505 3.62730989 -1.03563954 1.81343467 0 0 Z " fill="#F0F0F0" transform="translate(697,408)"/>
<path d="M0 0 C2.2212569 2.07197566 3.77354751 4.07911996 5.26171875 6.72265625 C5.65810547 7.42583984 6.05449219 8.12902344 6.46289062 8.85351562 C6.86701172 9.58248047 7.27113281 10.31144531 7.6875 11.0625 C8.10322266 11.79533203 8.51894531 12.52816406 8.94726562 13.28320312 C12 18.74203356 12 18.74203356 12 21 C4.41 21 -3.18 21 -11 21 C-9.69646 17.74115 -8.5363417 14.99957184 -6.8359375 12.01171875 C-6.43632813 11.30595703 -6.03671875 10.60019531 -5.625 9.87304688 C-5.2125 9.15181641 -4.8 8.43058594 -4.375 7.6875 C-3.95476563 6.94693359 -3.53453125 6.20636719 -3.1015625 5.44335938 C-2.07051505 3.62730989 -1.03563954 1.81343467 0 0 Z " fill="#F0F0F0" transform="translate(661,408)"/>
<path d="M0 0 C7.59 0 15.18 0 23 0 C20.75 6.75 20.75 6.75 18.8359375 9.8671875 C18.43632813 10.52460938 18.03671875 11.18203125 17.625 11.859375 C17.2125 12.52453125 16.8 13.1896875 16.375 13.875 C15.95476563 14.56335938 15.53453125 15.25171875 15.1015625 15.9609375 C14.07307528 17.64391658 13.037279 19.32242532 12 21 C8.74951058 17.15651589 6.21217131 13.17601471 3.75 8.8125 C3.38648438 8.18408203 3.02296875 7.55566406 2.6484375 6.90820312 C0 2.25352444 0 2.25352444 0 0 Z " fill="#F5F5F5" transform="translate(686,375)"/>
<path d="M0 0 C7.59 0 15.18 0 23 0 C20.75 6.75 20.75 6.75 18.8359375 9.8671875 C18.43632813 10.52460938 18.03671875 11.18203125 17.625 11.859375 C17.2125 12.52453125 16.8 13.1896875 16.375 13.875 C15.95476563 14.56335938 15.53453125 15.25171875 15.1015625 15.9609375 C14.07307528 17.64391658 13.037279 19.32242532 12 21 C8.74951058 17.15651589 6.21217131 13.17601471 3.75 8.8125 C3.38648438 8.18408203 3.02296875 7.55566406 2.6484375 6.90820312 C0 2.25352444 0 2.25352444 0 0 Z " fill="#F5F5F5" transform="translate(650,375)"/>
<path d="M0 0 C1.74218769 3.76528745 3.46898182 7.53721454 5.18188477 11.31591797 C5.76657131 12.60005626 6.35541055 13.88231228 6.94848633 15.16259766 C7.80090817 17.00462909 8.63810286 18.85294225 9.47265625 20.703125 C9.98062744 21.81333008 10.48859863 22.92353516 11.01196289 24.06738281 C12.01154772 27.03427507 12.36098678 28.21278712 11 31 C8 33 8 33 5 33 C3.44794361 29.37205389 1.89980494 25.74246368 0.35522461 22.11132812 C-0.42844607 20.27125875 -1.21518206 18.43249586 -2.00195312 16.59375 C-2.74155273 14.85351562 -2.74155273 14.85351562 -3.49609375 13.078125 C-4.17949829 11.47565918 -4.17949829 11.47565918 -4.87670898 9.84082031 C-5.78279797 7.54930729 -6.49042767 5.40335604 -7 3 C-2.25 0 -2.25 0 0 0 Z " fill="#0B0B0B" transform="translate(510,644)"/>
<path d="M0 0 C4.88731322 1.48981295 7.79002849 4.28633044 11.375 7.75 C12.52128572 8.83423237 13.66841404 9.91757464 14.81640625 11 C15.36312988 11.51820313 15.90985352 12.03640625 16.47314453 12.5703125 C19.22936378 15.15112797 22.10559311 17.57677562 25 20 C24.75 21.875 24.75 21.875 24 24 C21.9375 25.25 21.9375 25.25 20 26 C12.27034848 19.40285788 4.55607059 12.79646561 -3 6 C-2 4 -1 2 0 0 Z " fill="#080808" transform="translate(608,569)"/>
<path d="M0 0 C2.375 0.3125 2.375 0.3125 5 1 C7.28219901 4.42329851 7.29741163 5.84137668 7.3125 9.875 C7.32925781 10.90367187 7.34601563 11.93234375 7.36328125 12.9921875 C6.95707915 16.3553662 5.92437719 18.2479883 4 21 C1.625 20.6875 1.625 20.6875 -1 20 C-3.97093503 15.54359745 -3.51397346 11.2291213 -3 6 C-1.5 2.3125 -1.5 2.3125 0 0 Z " fill="#070707" transform="translate(142,248)"/>
<path d="M0 0 C2.375 0.1875 2.375 0.1875 5 1 C7.73924043 5.17408066 7.41002485 10.18438897 7 15 C6.3125 18 6.3125 18 5 20 C2.375 20.8125 2.375 20.8125 0 21 C-2.65713291 17.18300749 -3.41018336 14.57583934 -3.375 9.9375 C-3.38273437 8.91527344 -3.39046875 7.89304688 -3.3984375 6.83984375 C-2.95754857 3.69742953 -2.10517879 2.32237977 0 0 Z " fill="#060606" transform="translate(126,248)"/>
<path d="M0 0 C2.84574968 1.27568089 5.18089981 2.41496289 7 5 C6.57894737 9.42105263 6.57894737 9.42105263 5 11 C1.3162753 11.40930274 -0.3794986 11.47354054 -3.375 9.1875 C-5 7 -5 7 -5 4 C-2.5 1.8125 -2.5 1.8125 0 0 Z " fill="#F1F1F1" transform="translate(172,571)"/>
<path d="M0 0 C3.87132028 0.57352893 6.08172796 2.48704352 9 5 C8.67 6.65 8.34 8.3 8 10 C4.04179141 9.43454163 1.3340947 8.19097652 -2 6 C-1.49396008 3.83125748 -1.00016187 2.00032373 0 0 Z " fill="#EDEDED" transform="translate(230,624)"/>
<path d="M0 0 C1.258125 -0.04125 2.51625 -0.0825 3.8125 -0.125 C4.52019531 -0.14820313 5.22789062 -0.17140625 5.95703125 -0.1953125 C8 0 8 0 11 2 C10.67 3.65 10.34 5.3 10 7 C2.25 7.125 2.25 7.125 0 6 C0 4.02 0 2.04 0 0 Z " fill="#F1F1F1" transform="translate(357,673)"/>
<path d="M0 0 C2.92824652 2.92824652 4.27239967 5.2979993 6 9 C3.36 9.33 0.72 9.66 -2 10 C-1.34 6.7 -0.68 3.4 0 0 Z " fill="#E9E9E9" transform="translate(442,675)"/>
<path d="M0 0 C2.9719385 1.12451727 5.33440687 2.22293791 8 4 C7.25 5.9375 7.25 5.9375 6 8 C4.68 8.33 3.36 8.66 2 9 C1.34 6.03 0.68 3.06 0 0 Z " fill="#EBEBEB" transform="translate(568,622)"/>
</svg>
