<?xml version="1.0" encoding="UTF-8"?>
<svg version="1.1" xmlns="http://www.w3.org/2000/svg" width="67" height="75">
<path d="M0 0 C0.99 0 1.98 0 3 0 C5.5991113 5.59723734 8.18034089 11.20224351 10.74536133 16.81518555 C11.62037594 18.72334993 12.50023021 20.62930276 13.38500977 22.53295898 C14.65620249 25.27019879 15.90975942 28.01492865 17.16015625 30.76171875 C17.55904556 31.61086349 17.95793488 32.46000824 18.36891174 33.33488464 C19.83432378 36.58913809 20.95913251 39.22660969 21.1484375 42.80908203 C19.40841367 46.12859179 16.63549518 47.53012969 13.46484375 49.29296875 C12.7984639 49.68109238 12.13208405 50.069216 11.44551086 50.46910095 C9.28454757 51.7237471 7.11144502 52.95551022 4.9375 54.1875 C3.46153701 55.03907344 1.98659971 55.89242708 0.51269531 56.74755859 C-1.6671087 58.01223179 -3.84735282 59.27598337 -6.03121948 60.53363037 C-11.98718376 63.96717532 -17.82518969 67.56302189 -23.58227539 71.32104492 C-26.34226458 73.09482843 -28.73248915 74.4765638 -32 75 C-31.40884301 69.69473158 -29.63238458 65.46950625 -27.421875 60.68359375 C-27.0584903 59.88172134 -26.69510559 59.07984894 -26.32070923 58.25367737 C-25.13697459 55.6452722 -23.94352187 53.04143932 -22.75 50.4375 C-21.93366705 48.64291479 -21.1180794 46.84799036 -20.30322266 45.05273438 C-18.6604054 41.43472812 -17.01444734 37.81817718 -15.36621094 34.20263672 C-12.28878739 27.44518338 -9.25168917 20.6698223 -6.2208252 13.89138794 C-4.88578583 10.90604609 -3.54816233 7.9218635 -2.2109375 4.9375 C-1.47391175 3.29168753 -0.73691229 1.64586328 0 0 Z M1 17 C-1.4257999 22.37304053 -3.84675239 27.74822781 -6.26318359 33.12548828 C-7.08638844 34.95551847 -7.91092879 36.7849485 -8.73681641 38.61376953 C-9.92179031 41.23835159 -11.10198828 43.86503487 -12.28125 46.4921875 C-12.65310425 47.31306854 -13.0249585 48.13394958 -13.40808105 48.97970581 C-13.74843384 49.74034332 -14.08878662 50.50098083 -14.43945312 51.28466797 C-14.7414563 51.95529266 -15.04345947 52.62591736 -15.35461426 53.31686401 C-16.11934161 55.01079927 -16.11934161 55.01079927 -16 57 C-12.21649746 55.60181429 -8.91464622 53.85257589 -5.48046875 51.7421875 C-4.45888672 51.11699219 -3.43730469 50.49179687 -2.38476562 49.84765625 C-1.32966797 49.19667969 -0.27457031 48.54570313 0.8125 47.875 C2.42415039 46.88693359 2.42415039 46.88693359 4.06835938 45.87890625 C6.71436546 44.25602252 9.35813849 42.62961877 12 41 C10.89647451 38.31223516 9.7921978 35.62478298 8.6875 32.9375 C8.2244043 31.80924805 8.2244043 31.80924805 7.75195312 30.65820312 C5.87262041 26.08845725 3.95802718 21.53659835 2 17 C1.67 17 1.34 17 1 17 Z " fill="#9CA6B3" transform="translate(32,0)"/>
<path d="M0 0 C0.79519043 0.35276001 0.79519043 0.35276001 1.60644531 0.71264648 C1.60644531 1.70264648 1.60644531 2.69264648 1.60644531 3.71264648 C3.25644531 3.38264648 4.90644531 3.05264648 6.60644531 2.71264648 C2.96230285 5.75935369 -0.83688286 8.31239901 -4.91699219 10.72436523 C-5.85183945 11.28315117 -5.85183945 11.28315117 -6.80557251 11.85322571 C-8.79117057 13.03903248 -10.77976093 14.21970897 -12.76855469 15.40014648 C-14.06433408 16.17258669 -15.35990858 16.94537069 -16.65527344 17.71850586 C-18.59652945 18.87705833 -20.53830429 20.03467531 -22.4821167 21.18893433 C-25.88109545 23.20787939 -29.26974591 25.24185233 -32.64453125 27.30102539 C-33.33205475 27.71890823 -34.01957825 28.13679108 -34.72793579 28.56733704 C-36.04718132 29.37002327 -37.36431598 30.17619178 -38.67904663 30.98625183 C-43.16993535 33.71264648 -43.16993535 33.71264648 -45.39355469 33.71264648 C-44.83385613 29.54034814 -43.88045894 26.12750374 -42.10839844 22.31420898 C-41.66044922 21.3409668 -41.2125 20.36772461 -40.75097656 19.36499023 C-40.28240234 18.3659668 -39.81382813 17.36694336 -39.33105469 16.33764648 C-38.85861328 15.31541992 -38.38617188 14.29319336 -37.89941406 13.23999023 C-36.73723249 10.72779977 -35.56846224 8.21890396 -34.39355469 5.71264648 C-31.39355469 9.33764648 -31.39355469 9.33764648 -31.39355469 12.71264648 C-30.40355469 13.04264648 -29.41355469 13.37264648 -28.39355469 13.71264648 C-28.72355469 14.37264648 -29.05355469 15.03264648 -29.39355469 15.71264648 C-28.5965918 15.22272217 -27.79962891 14.73279785 -26.97851562 14.22802734 C-24.01745891 12.41587962 -21.05006027 10.61516737 -18.07763672 8.82177734 C-16.79268639 8.04337838 -15.51042521 7.26052213 -14.23095703 6.47314453 C-12.3910138 5.34191489 -10.54198569 4.2270829 -8.69042969 3.11499023 C-7.02512207 2.10166626 -7.02512207 2.10166626 -5.32617188 1.06787109 C-2.39355469 -0.28735352 -2.39355469 -0.28735352 0 0 Z " fill="#8A97A5" transform="translate(45.3935546875,41.287353515625)"/>
<path d="M0 0 C1.67899301 3.57768405 3.34101282 7.16300069 5 10.75 C5.47695313 11.76578125 5.95390625 12.7815625 6.4453125 13.828125 C7.12207031 15.29765625 7.12207031 15.29765625 7.8125 16.796875 C8.23144531 17.69760742 8.65039062 18.59833984 9.08203125 19.52636719 C10 22 10 22 10 26 C5.64295519 25.43205836 2.13850757 24.35510838 -1.8359375 22.49609375 C-2.89941406 22.00302734 -3.96289062 21.50996094 -5.05859375 21.00195312 C-6.15300781 20.48568359 -7.24742188 19.96941406 -8.375 19.4375 C-9.49261719 18.91736328 -10.61023438 18.39722656 -11.76171875 17.86132812 C-14.51092832 16.58071341 -17.2568061 15.29343785 -20 14 C-20 12.68 -20 11.36 -20 10 C-17.55385626 8.22937284 -15.24880543 6.76564772 -12.625 5.3125 C-11.92632812 4.90966797 -11.22765625 4.50683594 -10.5078125 4.09179688 C-3.37972414 0 -3.37972414 0 0 0 Z " fill="#ACB6C3" transform="translate(57,49)"/>
<path d="M0 0 C0.33 0 0.66 0 1 0 C1.33 2.97 1.66 5.94 2 9 C3.65 9 5.3 9 7 9 C7 8.34 7 7.68 7 7 C7.928125 6.896875 8.85625 6.79375 9.8125 6.6875 C13.26210921 5.94346664 13.69026782 5.40597102 16 3 C19.1875 1.8125 19.1875 1.8125 22 1 C22 1.66 22 2.32 22 3 C22.66 3.33 23.32 3.66 24 4 C9.3515625 12.7890625 9.3515625 12.7890625 6.69238281 14.37988281 C4.8476794 15.48991653 3.00873494 16.6095612 1.17480469 17.73730469 C0.27922852 18.28547852 -0.61634766 18.83365234 -1.5390625 19.3984375 C-2.75263428 20.14746338 -2.75263428 20.14746338 -3.99072266 20.91162109 C-6 22 -6 22 -8 22 C-7.40644629 16.69981613 -5.62627368 12.41863107 -3.4375 7.625 C-3.10814453 6.88894531 -2.77878906 6.15289062 -2.43945312 5.39453125 C-1.63252195 3.59355443 -0.8171174 1.79637819 0 0 Z " fill="#8994A1" transform="translate(8,53)"/>
<path d="M0 0 C0.99 0 1.98 0 3 0 C3.33 1.65 3.66 3.3 4 5 C3.67 4.34 3.34 3.68 3 3 C2.34 3 1.68 3 1 3 C0.62447835 9.31268603 0.62447835 9.31268603 3 15 C2.01 15 1.02 15 0 15 C-0.25910156 15.85335938 -0.51820312 16.70671875 -0.78515625 17.5859375 C-2.05399852 21.15175147 -3.62850661 24.30267665 -5.4375 27.625 C-6.03433594 28.73101563 -6.63117187 29.83703125 -7.24609375 30.9765625 C-8.70604541 33.49327204 -10.08472163 35.81263473 -12 38 C-12.66 38 -13.32 38 -14 38 C-13.39305845 34.84669446 -12.3583335 32.81111133 -10.4375 30.25 C-9.98246094 29.63640625 -9.52742188 29.0228125 -9.05859375 28.390625 C-8.70925781 27.93171875 -8.35992187 27.4728125 -8 27 C-8.33 26.67 -8.66 26.34 -9 26 C-9.66 26 -10.32 26 -11 26 C-8.34810503 16.88411104 -4.1194169 8.5225941 0 0 Z " fill="#444B54" transform="translate(32,0)"/>
<path d="M0 0 C0 0.99 0 1.98 0 3 C-2.14775034 4.54295801 -4.21834754 5.8759056 -6.5 7.1875 C-7.12003906 7.55552734 -7.74007812 7.92355469 -8.37890625 8.30273438 C-9.9134788 9.2116735 -11.4560256 10.1071247 -13 11 C-11.35 11 -9.7 11 -8 11 C-8 11.66 -8 12.32 -8 13 C-7.360625 13.0825 -6.72125 13.165 -6.0625 13.25 C-1.84366862 14.2831832 2.26310937 15.76095396 6 18 C6.33 18.99 6.66 19.98 7 21 C4.65762885 20.7009739 2.33178864 20.36930723 0 20 C-0.71027344 19.88914062 -1.42054687 19.77828125 -2.15234375 19.6640625 C-8.13794194 18.548995 -12.84381161 16.19366752 -18 13 C-16.63790536 9.71886535 -15.42073837 8.32230325 -12.3046875 6.640625 C-11.58925781 6.24746094 -10.87382813 5.85429688 -10.13671875 5.44921875 C-9.39035156 5.05347656 -8.64398438 4.65773438 -7.875 4.25 C-6.74384766 3.63318359 -6.74384766 3.63318359 -5.58984375 3.00390625 C-3.73194799 1.99264653 -1.86666168 0.99498595 0 0 Z " fill="#99A7B7" transform="translate(54,49)"/>
<path d="M0 0 C0.99 0 1.98 0 3 0 C6 6.625 6 6.625 6 10 C4.13671875 11.640625 4.13671875 11.640625 1.6875 13.25 C0.48673828 14.06210937 0.48673828 14.06210937 -0.73828125 14.890625 C-3 16 -3 16 -6 15 C-4.02 10.05 -2.04 5.1 0 0 Z " fill="#8895A4" transform="translate(32,30)"/>
<path d="M0 0 C6.81801126 5.3358349 6.81801126 5.3358349 8 9 C8 10.32 8 11.64 8 13 C5.36 13.66 2.72 14.32 0 15 C0.33 13.68 0.66 12.36 1 11 C0.34 10.34 -0.32 9.68 -1 9 C-1.66 8.34 -2.32 7.68 -3 7 C-2.81367553 3.92564622 -1.75085936 2.62628904 0 0 Z " fill="#9CA7B4" transform="translate(45,31)"/>
<path d="M0 0 C2.76553168 1.89636458 3.53295045 3.85171403 4.86328125 6.90625 C5.30285156 7.8859375 5.74242187 8.865625 6.1953125 9.875 C6.47761719 10.7103125 6.75992188 11.545625 7.05078125 12.40625 C6.72078125 13.06625 6.39078125 13.72625 6.05078125 14.40625 C5.06078125 13.08625 4.07078125 11.76625 3.05078125 10.40625 C2.39078125 11.72625 1.73078125 13.04625 1.05078125 14.40625 C0.01481225 12.83277824 -1.00253607 11.24703454 -2.01171875 9.65625 C-2.58019531 8.77453125 -3.14867187 7.8928125 -3.734375 6.984375 C-4.94921875 4.40625 -4.94921875 4.40625 -4.7578125 2.140625 C-3.58280708 -0.37967649 -2.66028927 -0.81034864 0 0 Z " fill="#2F3338" transform="translate(40.94921875,16.59375)"/>
<path d="M0 0 C-5.36742988 3.84011244 -10.94930513 7.17982682 -16.75 10.3125 C-17.38752197 10.66183594 -18.02504395 11.01117188 -18.68188477 11.37109375 C-22.09748507 13.18821636 -25.15247673 14.49336049 -29 15 C-25.10705466 10.74036845 -19.97421596 8.17626255 -15.0625 5.25 C-14.06025391 4.63511719 -13.05800781 4.02023438 -12.02539062 3.38671875 C-11.05923828 2.81050781 -10.09308594 2.23429687 -9.09765625 1.640625 C-7.77519897 0.84446777 -7.77519897 0.84446777 -6.42602539 0.03222656 C-3.72146281 -1.11851215 -2.68648528 -1.06257963 0 0 Z " fill="#33383E" transform="translate(47,42)"/>
<path d="M0 0 C0.66 0 1.32 0 2 0 C2 0.66 2 1.32 2 2 C2.66 2 3.32 2 4 2 C4.86366822 3.78710586 5.71568594 5.5798465 6.5625 7.375 C7.27599609 8.87160156 7.27599609 8.87160156 8.00390625 10.3984375 C8.33261719 11.25695313 8.66132812 12.11546875 9 13 C8.67 13.66 8.34 14.32 8 15 C7.34 14.67 6.68 14.34 6 14 C3.88316159 14.89163577 3.88316159 14.89163577 2 16 C1.814375 14.576875 1.814375 14.576875 1.625 13.125 C1.28312823 9.91332809 1.28312823 9.91332809 -1 8 C-0.96712417 5.27130593 -0.43602229 2.7033382 0 0 Z " fill="#646D78" transform="translate(33,3)"/>
<path d="M0 0 C1.32 0.33 2.64 0.66 4 1 C3.10082582 2.98717494 2.1800538 4.96458885 1.25 6.9375 C0.48429687 8.59072266 0.48429687 8.59072266 -0.296875 10.27734375 C-2 13 -2 13 -4.203125 13.87890625 C-4.79609375 13.91886719 -5.3890625 13.95882812 -6 14 C-5.979375 13.195625 -5.95875 12.39125 -5.9375 11.5625 C-5.70366379 9.06645115 -5.70366379 9.06645115 -7 8 C-7.04063832 6.33382885 -7.042721 4.66611905 -7 3 C-6.67 4.32 -6.34 5.64 -6 7 C-2.57421051 3.82460444 -2.57421051 3.82460444 0 0 Z " fill="#97A3B2" transform="translate(19,41)"/>
<path d="M0 0 C0.99 0 1.98 0 3 0 C3 0.66 3 1.32 3 2 C2.01 2 1.02 2 0 2 C-0.25910156 2.85335938 -0.51820312 3.70671875 -0.78515625 4.5859375 C-2.05399852 8.15175147 -3.62850661 11.30267665 -5.4375 14.625 C-6.33275391 16.28402344 -6.33275391 16.28402344 -7.24609375 17.9765625 C-8.70604541 20.49327204 -10.08472163 22.81263473 -12 25 C-12.66 25 -13.32 25 -14 25 C-13.3567124 21.32897212 -11.74194599 18.82946936 -9.6875 15.75 C-7.48609569 12.38022742 -5.43731044 9.0630542 -3.6875 5.4375 C-2 2 -2 2 0 0 Z " fill="#1C1F22" transform="translate(32,13)"/>
<path d="M0 0 C0.33 0 0.66 0 1 0 C1.33 2.97 1.66 5.94 2 9 C4.64 9 7.28 9 10 9 C8.67368911 11.65262179 7.14656892 12.21099749 4.5625 13.625 C3.35787109 14.29402344 3.35787109 14.29402344 2.12890625 14.9765625 C0 16 0 16 -2 16 C-2.20674944 10.21101581 -1.59162079 5.57067277 0 0 Z " fill="#D2D8DE" transform="translate(8,53)"/>
<path d="M0 0 C1.50559539 1.96382007 2.89131683 3.78263366 4 6 C4.66 4.68 5.32 3.36 6 2 C9.53586014 5.17320782 11.58578031 7.16743695 12 12 C10.68 10.68 9.36 9.36 8 8 C7.34 9.32 6.68 10.64 6 12 C3 11 3 11 1.3125 8.25 C0.06049331 5.14979295 -0.28970125 3.28328088 0 0 Z " fill="#7A838D" transform="translate(38,24)"/>
<path d="M0 0 C0.33 0.99 0.66 1.98 1 3 C-0.1796875 4.9375 -0.1796875 4.9375 -1.875 7 C-3.87571307 9.45668953 -4.98453785 10.95361354 -6 14 C-5.34 14 -4.68 14 -4 14 C-3.34 12.68 -2.68 11.36 -2 10 C-1.67 10.66 -1.34 11.32 -1 12 C-1.99 13.485 -1.99 13.485 -3 15 C-5.625 15.1875 -5.625 15.1875 -8 15 C-7.41849224 10.23163636 -6.21830405 6.27228927 -4 2 C-1.8125 0.5625 -1.8125 0.5625 0 0 Z " fill="#85909D" transform="translate(24,24)"/>
<path d="M0 0 C1.32 0 2.64 0 4 0 C4.144375 0.886875 4.28875 1.77375 4.4375 2.6875 C4.91019978 5.47117646 5.43070185 8.23483757 6 11 C4.25728062 8.702779 2.60088848 6.40133271 1 4 C-0.65 7.3 -2.3 10.6 -4 14 C-5.14897419 9.40410325 -4.7140729 8.73828148 -2.5625 4.75 C-2.08941406 3.85796875 -1.61632812 2.9659375 -1.12890625 2.046875 C-0.75636719 1.37140625 -0.38382813 0.6959375 0 0 Z " fill="#ACB4BE" transform="translate(32,15)"/>
<path d="M0 0 C-0.66 1.98 -1.32 3.96 -2 6 C-3.32 6 -4.64 6 -6 6 C-6 5.34 -6 4.68 -6 4 C-7.03060547 4.55880859 -7.03060547 4.55880859 -8.08203125 5.12890625 C-9.43361328 5.83853516 -9.43361328 5.83853516 -10.8125 6.5625 C-11.70582031 7.03816406 -12.59914063 7.51382813 -13.51953125 8.00390625 C-16 9 -16 9 -19 8 C-16.39939496 6.65929682 -13.79495084 5.32726646 -11.1875 4 C-10.44951172 3.6184375 -9.71152344 3.236875 -8.95117188 2.84375 C-8.23896484 2.4828125 -7.52675781 2.121875 -6.79296875 1.75 C-6.1383667 1.41484375 -5.48376465 1.0796875 -4.80932617 0.734375 C-3 0 -3 0 0 0 Z " fill="#A5B0BD" transform="translate(36,50)"/>
<path d="M0 0 C0 0.99 0 1.98 0 3 C-2.43442921 4.71476218 -4.80072379 6.21480731 -7.375 7.6875 C-8.07367188 8.10322266 -8.77234375 8.51894531 -9.4921875 8.94726562 C-14.70539563 12 -14.70539563 12 -17 12 C-15.85500131 8.56500392 -15.43024564 8.38336181 -12.40234375 6.73828125 C-11.68369141 6.34189453 -10.96503906 5.94550781 -10.22460938 5.53710938 C-9.09249023 4.93092773 -9.09249023 4.93092773 -7.9375 4.3125 C-7.17888672 3.89677734 -6.42027344 3.48105469 -5.63867188 3.05273438 C-3.76366859 2.02678918 -1.88240657 1.01229756 0 0 Z " fill="#393F46" transform="translate(54,49)"/>
<path d="M0 0 C0.99 0 1.98 0 3 0 C3.75 2.1875 3.75 2.1875 4 5 C2.22336478 7.69558448 0.90715555 9.54642223 -2 11 C-2.19622241 6.78121808 -1.80230168 3.82989106 0 0 Z " fill="#5A626B" transform="translate(32,30)"/>
<path d="M0 0 C7.88264059 0.75794621 7.88264059 0.75794621 11 4 C11 4.99 11 5.98 11 7 C6.96678237 5.78065514 3.45730521 4.44045073 0 2 C0 1.34 0 0.68 0 0 Z " fill="#778390" transform="translate(36,60)"/>
<path d="M0 0 C1.65 0 3.3 0 5 0 C4.40312566 3.34249629 3.26396123 5.46436342 1 8 C0.34 8 -0.32 8 -1 8 C-1.125 2.25 -1.125 2.25 0 0 Z " fill="#D5DBE1" transform="translate(14,40)"/>
<path d="M0 0 C0 0.66 0 1.32 0 2 C0.66 2.33 1.32 2.66 2 3 C-0.97 4.65 -3.94 6.3 -7 8 C-6.67 7.01 -6.34 6.02 -6 5 C-6.66 4.34 -7.32 3.68 -8 3 C-2.25 0 -2.25 0 0 0 Z " fill="#8E9CAC" transform="translate(30,54)"/>
<path d="M0 0 C0.66 0 1.32 0 2 0 C2 0.66 2 1.32 2 2 C2.721875 2.103125 3.44375 2.20625 4.1875 2.3125 C7.25938525 3.06340528 9.40185854 4.21841728 12 6 C12 6.33 12 6.66 12 7 C6.18319224 6.34149346 3.04590694 5.23856917 -1 1 C-0.67 0.67 -0.34 0.34 0 0 Z " fill="#8E9CAD" transform="translate(44,60)"/>
<path d="M0 0 C0.33 0.66 0.66 1.32 1 2 C-0.21484375 4.6015625 -0.21484375 4.6015625 -1.9375 7.625 C-2.50339844 8.62789062 -3.06929687 9.63078125 -3.65234375 10.6640625 C-4.09707031 11.43492188 -4.54179687 12.20578125 -5 13 C-5.66 13 -6.32 13 -7 13 C-5.69045524 8.76916309 -4.16145284 4.872603 -2 1 C-1.34 0.67 -0.68 0.34 0 0 Z " fill="#33393F" transform="translate(31,6)"/>
<path d="M0 0 C-0.1875 2.375 -0.1875 2.375 -1 5 C-3.5625 6.3125 -3.5625 6.3125 -6 7 C-6 5.02 -6 3.04 -6 1 C-3 0 -3 0 0 0 Z " fill="#8896A6" transform="translate(19,48)"/>
<path d="M0 0 C4.0042343 3.49087093 5.62671065 5.64951939 6 11 C5.01 11 4.02 11 3 11 C2.49384702 9.73160474 1.99530901 8.46016898 1.5 7.1875 C1.2215625 6.47980469 0.943125 5.77210937 0.65625 5.04296875 C0 3 0 3 0 0 Z " fill="#DADFE5" transform="translate(45,31)"/>
<path d="M0 0 C0.99 0 1.98 0 3 0 C3.33 1.65 3.66 3.3 4 5 C3.67 4.34 3.34 3.68 3 3 C2.34 3 1.68 3 1 3 C1 5.64 1 8.28 1 11 C0.71125 10.360625 0.4225 9.72125 0.125 9.0625 C-0.82823451 6.84793921 -0.82823451 6.84793921 -3 6 C-2.01 4.02 -1.02 2.04 0 0 Z " fill="#434B53" transform="translate(32,0)"/>
<path d="M0 0 C2.62386487 3.06117568 3 3.73173127 3 8 C0.36 8.66 -2.28 9.32 -5 10 C-4.67 9.01 -4.34 8.02 -4 7 C-2.35 6.67 -0.7 6.34 1 6 C0.67 4.02 0.34 2.04 0 0 Z " fill="#A7B1BE" transform="translate(50,36)"/>
<path d="M0 0 C0.33 0.66 0.66 1.32 1 2 C1.99 2 2.98 2 4 2 C4.33 3.98 4.66 5.96 5 8 C3.68 7.67 2.36 7.34 1 7 C0.67 4.69 0.34 2.38 0 0 Z " fill="#97A1AD" transform="translate(35,7)"/>
<path d="M0 0 C0.66 0.99 1.32 1.98 2 3 C1.21654285 4.17219543 0.42297164 5.33763668 -0.375 6.5 C-0.81585937 7.1496875 -1.25671875 7.799375 -1.7109375 8.46875 C-2.13632812 8.9740625 -2.56171875 9.479375 -3 10 C-3.66 10 -4.32 10 -5 10 C-4.38545304 6.00544473 -2.29353263 3.25533664 0 0 Z " fill="#373D43" transform="translate(23,28)"/>
<path d="M0 0 C0.66 0 1.32 0 2 0 C2.69937202 1.4317616 3.38412718 2.87067032 4.0625 4.3125 C4.63677734 5.51326172 4.63677734 5.51326172 5.22265625 6.73828125 C6 9 6 9 5 12 C4.15885829 10.56705502 3.32734313 9.12845595 2.5 7.6875 C1.80390625 6.48673828 1.80390625 6.48673828 1.09375 5.26171875 C0 3 0 3 0 0 Z " fill="#101214" transform="translate(37,19)"/>
<path d="M0 0 C0.33 0.99 0.66 1.98 1 3 C-0.45381897 3.69699552 -1.91322953 4.38233866 -3.375 5.0625 C-4.18710937 5.44535156 -4.99921875 5.82820313 -5.8359375 6.22265625 C-6.55007812 6.47917969 -7.26421875 6.73570313 -8 7 C-8.66 6.67 -9.32 6.34 -10 6 C-6.7 4.02 -3.4 2.04 0 0 Z " fill="#6A747E" transform="translate(28,50)"/>
<path d="M0 0 C0.33 0.66 0.66 1.32 1 2 C0.4225 2.2475 -0.155 2.495 -0.75 2.75 C-3.13449889 3.93990475 -3.13449889 3.93990475 -5.125 6.125 C-5.74375 6.74375 -6.3625 7.3625 -7 8 C-7.66 8 -8.32 8 -9 8 C-9 7.01 -9 6.02 -9 5 C-6.03 3.35 -3.06 1.7 0 0 Z " fill="#4C545D" transform="translate(38,44)"/>
<path d="M0 0 C0.66 0.33 1.32 0.66 2 1 C1.8125 3.375 1.8125 3.375 1 6 C-1.5625 7.3125 -1.5625 7.3125 -4 8 C-3.34 6.35 -2.68 4.7 -2 3 C-2.66 2.67 -3.32 2.34 -4 2 C-2.125 0.9375 -2.125 0.9375 0 0 Z " fill="#8C98A7" transform="translate(38,47)"/>
<path d="M0 0 C5.78461538 4.30769231 5.78461538 4.30769231 6.875 7.8125 C6.936875 8.8953125 6.936875 8.8953125 7 10 C4.56070254 8.07423885 2.19909405 6.19909405 0 4 C0 2.68 0 1.36 0 0 Z " fill="#8D959F" transform="translate(43,26)"/>
<path d="M0 0 C0.33 0 0.66 0 1 0 C1 1.65 1 3.3 1 5 C1.66 5.33 2.32 5.66 3 6 C1.35 6.66 -0.3 7.32 -2 8 C-1.125 2.25 -1.125 2.25 0 0 Z " fill="#6D7782" transform="translate(2,67)"/>
<path d="M0 0 C-5.14285714 4.42857143 -5.14285714 4.42857143 -9 5 C-8 2 -8 2 -5.625 0.25 C-3 -1 -3 -1 0 0 Z " fill="#49515A" transform="translate(46,56)"/>
<path d="M0 0 C0.99 1.32 1.98 2.64 3 4 C2.03114628 5.68496298 1.03013277 7.35178756 0 9 C-0.33 9 -0.66 9 -1 9 C-1.125 2.25 -1.125 2.25 0 0 Z " fill="#555E68" transform="translate(11,47)"/>
<path d="M0 0 C-0.33 1.65 -0.66 3.3 -1 5 C-2.65 5.33 -4.3 5.66 -6 6 C-5.6875 4.125 -5.6875 4.125 -5 2 C-2 0 -2 0 0 0 Z " fill="#606B77" transform="translate(27,20)"/>
<path d="M0 0 C1.32 0 2.64 0 4 0 C4.144375 0.886875 4.28875 1.77375 4.4375 2.6875 C4.91019978 5.47117646 5.43070185 8.23483757 6 11 C3.13546142 7.58983503 1.65296434 4.09305456 0 0 Z " fill="#9AA2AB" transform="translate(32,15)"/>
<path d="M0 0 C0.99 0.33 1.98 0.66 3 1 C3 2.32 3 3.64 3 5 C1.35 5.66 -0.3 6.32 -2 7 C-1.34 4.69 -0.68 2.38 0 0 Z " fill="#A4AEBA" transform="translate(34,34)"/>
<path d="M0 0 C-1 3 -1 3 -4.0625 4.6875 C-5.031875 5.120625 -6.00125 5.55375 -7 6 C-7.33 5.34 -7.66 4.68 -8 4 C-2.25 0 -2.25 0 0 0 Z " fill="#86919F" transform="translate(13,66)"/>
</svg>
