<?xml version="1.0" encoding="UTF-8"?>
<svg version="1.1" xmlns="http://www.w3.org/2000/svg" width="137" height="100">
<path d="M0 0 C9.57 0 19.14 0 29 0 C29.44419134 26.65148064 29.44419134 26.65148064 26 36 C26.45890625 35.48308594 26.9178125 34.96617188 27.390625 34.43359375 C28.00421875 33.77488281 28.6178125 33.11617187 29.25 32.4375 C29.85328125 31.77621094 30.4565625 31.11492188 31.078125 30.43359375 C33 29 33 29 34.86499023 29.17578125 C37.590516 30.22796821 39.0314482 31.67549266 41.08203125 33.75390625 C41.84966797 34.52669922 42.61730469 35.29949219 43.40820312 36.09570312 C44.20162109 36.90974609 44.99503906 37.72378906 45.8125 38.5625 C46.59431641 39.34947266 47.37613281 40.13644531 48.18164062 40.94726562 C51.69696185 44.50957527 55.13343953 48.10189017 58.390625 51.90234375 C62.96101427 57.20436575 67.96848773 62.07572319 72.9375 67 C73.9175531 67.97502386 74.8973724 68.9502828 75.87695312 69.92578125 C78.24902313 72.28616618 80.6234086 74.64416905 83 77 C80.70597565 82.2481044 76.56505419 85.76397163 72.5625 89.75 C71.39750977 90.93916016 71.39750977 90.93916016 70.20898438 92.15234375 C69.46068359 92.90128906 68.71238281 93.65023437 67.94140625 94.421875 C67.25763916 95.10862305 66.57387207 95.79537109 65.86938477 96.50292969 C64 98 64 98 61 98 C59.4997406 96.57739258 59.4997406 96.57739258 57.88842773 94.58203125 C53.77596606 89.67837773 49.32263232 85.19630938 44.78515625 80.6875 C43.92941513 79.83317383 43.07367401 78.97884766 42.19200134 78.09863281 C39.48452619 75.39671138 36.77357746 72.69830641 34.0625 70 C32.21526325 68.15778423 30.36825573 66.31533857 28.52148438 64.47265625 C24.01696997 59.97910939 19.50960595 55.4884368 15 51 C14.42006287 51.59104019 13.84012573 52.18208038 13.24261475 52.79103088 C7.78195616 58.35176702 2.30942424 63.90047781 -3.17686844 69.4359293 C-5.99719738 72.2823808 -8.81267677 75.13330725 -11.61767578 77.99487305 C-14.32353428 80.75495573 -17.04133491 83.5027354 -19.76793671 86.24232292 C-20.80735931 87.29100262 -21.84236203 88.34408189 -22.8728714 89.40152168 C-24.31436332 90.87917616 -25.77061675 92.34056744 -27.23144531 93.79907227 C-28.05751282 94.63624283 -28.88358032 95.47341339 -29.73468018 96.33595276 C-32 98 -32 98 -34.17112732 97.86222839 C-38.41370743 95.86204923 -41.53329247 92.02109737 -44.8125 88.75 C-45.61365234 87.98558594 -46.41480469 87.22117187 -47.24023438 86.43359375 C-47.99240234 85.68722656 -48.74457031 84.94085938 -49.51953125 84.171875 C-50.55750854 83.1523877 -50.55750854 83.1523877 -51.61645508 82.11230469 C-53 80 -53 80 -52.86024475 77.66815186 C-51.76326571 74.26574031 -50.16725795 72.6987633 -47.61962891 70.19726562 C-46.68841217 69.2728064 -45.75719543 68.34834717 -44.79776001 67.39587402 C-43.77408487 66.39927375 -42.75035093 65.40273389 -41.7265625 64.40625 C-40.68041174 63.3726493 -39.63529073 62.33800541 -38.59115601 61.30236816 C-35.84208273 58.57987372 -33.08210319 55.86873384 -30.31878662 53.16070557 C-25.90087941 48.82908374 -21.49628313 44.48403552 -17.09824753 40.13224792 C-15.56360761 38.61796945 -14.02227938 37.11075419 -12.48013306 35.60412598 C-11.07385147 34.21743713 -11.07385147 34.21743713 -9.63916016 32.80273438 C-8.81388824 31.99396851 -7.98861633 31.18520264 -7.13833618 30.35192871 C-2.62901844 25.39218761 -0.99419243 21.02006847 -0.68359375 14.453125 C-0.64548584 13.69161133 -0.60737793 12.93009766 -0.56811523 12.14550781 C-0.52501221 11.18999023 -0.48190918 10.23447266 -0.4375 9.25 C-0.293125 6.1975 -0.14875 3.145 0 0 Z " fill="#43D62B" transform="translate(53,1)"/>
</svg>
