<?xml version="1.0" encoding="UTF-8"?>
<svg version="1.1" xmlns="http://www.w3.org/2000/svg" width="900" height="925">
<path d="M0 0 C4.90876127 -0.58544859 7.08993953 1.13759309 10.9375 4.0625 C12.17638129 4.98446997 13.41741892 5.90354677 14.66015625 6.8203125 C15.34480957 7.32723633 16.02946289 7.83416016 16.73486328 8.35644531 C21.04525762 11.48401318 25.46665459 14.45044509 29.875 17.4375 C31.79047807 18.73941638 33.70584389 20.04149792 35.62109375 21.34375 C36.54132324 21.96894531 37.46155273 22.59414063 38.40966797 23.23828125 C47.3750584 29.33576074 56.29174719 35.50256579 65.18676758 41.70214844 C76.54559338 49.61887721 87.95840207 57.45139694 99.40820312 65.23583984 C103.44403885 67.98291492 107.47212107 70.74127733 111.5 73.5 C117.44356208 77.56975444 123.39201929 81.63222322 129.3449707 85.68823242 C155.51615425 103.52006263 155.51615425 103.52006263 168.4375 112.625 C169.17846924 113.14666748 169.91943848 113.66833496 170.68286133 114.20581055 C171.36372803 114.68703369 172.04459473 115.16825684 172.74609375 115.6640625 C173.35122803 116.09154785 173.9563623 116.5190332 174.57983398 116.95947266 C176 118 176 118 177 119 C177.09083929 120.41731313 177.11193891 121.83916107 177.10514545 123.25936604 C177.10321951 124.18402332 177.10129357 125.1086806 177.09930927 126.0613578 C177.09210194 127.08914271 177.08489461 128.11692763 177.07746887 129.17585754 C177.07394006 130.25855366 177.07041125 131.34124977 177.0667755 132.45675486 C177.05840823 134.84349244 177.04772244 137.23022268 177.03508186 139.61694145 C177.01453686 143.50009522 176.99971435 147.38323324 176.98648071 151.26641846 C176.97223094 155.44746422 176.95770544 159.62850695 176.94112074 163.80954421 C176.90044275 174.18973907 176.87978217 184.56985028 176.8712616 194.95011902 C176.87061564 195.7004096 176.86996969 196.45070018 176.86930416 197.22372685 C176.86340715 204.19483656 176.85875746 211.16594696 176.85458529 218.1370579 C176.85162665 222.92169492 176.84791245 227.70633089 176.84350586 232.4909668 C176.84242194 233.68313817 176.84242194 233.68313817 176.84131613 234.89939382 C176.82842942 247.75658145 176.7761517 260.61333468 176.71010736 273.47034589 C176.64327303 286.67360768 176.62225572 299.87639215 176.64257544 313.07980937 C176.65360422 321.22083205 176.62878248 329.36011399 176.55745133 337.5008386 C176.51184558 343.08916474 176.51063665 348.6764212 176.54366646 354.26483092 C176.56138966 357.48579046 176.55346055 360.70301511 176.50561714 363.92375755 C176.45664962 367.42760407 176.48228727 370.92357173 176.52571106 374.42732239 C176.49396579 375.43056937 176.46222052 376.43381634 176.42951328 377.46746475 C176.73355386 388.29940171 181.11650745 389.11650745 190 398 C190.33 309.56 190.66 221.12 191 130 C194.53223331 130.88305833 195.89829582 131.41565169 198.6875 133.44140625 C199.72596069 134.18692749 199.72596069 134.18692749 200.78540039 134.94750977 C201.8816272 135.74692993 201.8816272 135.74692993 203 136.5625 C204.53950095 137.66787048 206.0798686 138.77203485 207.62109375 139.875 C208.37245605 140.41382813 209.12381836 140.95265625 209.89794922 141.5078125 C212.58394073 143.41452331 215.31375217 145.24764586 218.0625 147.0625 C224.75957971 151.48458265 231.36060467 156.04179832 237.96630859 160.59863281 C240.52685939 162.36304597 243.09163185 164.12125759 245.65649414 165.87939453 C248.31100358 167.70120336 250.96092717 169.52964307 253.61132812 171.35742188 C255.3709856 172.56745616 257.13306597 173.77396886 258.89648438 174.97851562 C262.03929052 177.12554224 265.17614761 179.28105978 268.3125 181.4375 C269.3219165 182.12416748 270.33133301 182.81083496 271.37133789 183.51831055 C272.3174292 184.170979 273.26352051 184.82364746 274.23828125 185.49609375 C275.08430908 186.07544678 275.93033691 186.6547998 276.80200195 187.25170898 C279.14710288 189.11700586 280.48856368 190.40702424 282 193 C282.28234994 195.66998187 282.39246111 198.10249935 282.36076355 200.77008057 C282.36332682 201.55754032 282.3658901 202.34500007 282.36853105 203.15632224 C282.3734762 205.79745636 282.35696416 208.43802003 282.34057617 211.07910156 C282.33973006 212.97129299 282.34020474 214.86348541 282.34190369 216.75567627 C282.34276567 221.89585736 282.32510695 227.03582912 282.30418181 232.17596149 C282.28544893 237.54647579 282.28366725 242.9169947 282.28010559 248.28753662 C282.27077516 258.45891558 282.24614785 268.630198 282.21605712 278.80153441 C282.17627981 292.54499523 282.1600663 306.28848239 282.14255047 320.03198624 C282.11432751 341.68806316 282.05456455 363.34393634 282 385 C322.59 385 363.18 385 405 385 C397.54308259 367.60052604 388.26700799 354.48392271 375.43359375 340.875 C374 339 374 339 374 336 C383.17368553 340.11234179 390.91221336 348.62843486 398.45043945 355.20043945 C402.08551402 358.36331861 405.7543109 361.46777549 409.5 364.5 C413.91669367 368.07541869 418.21773362 371.76606935 422.5 375.5 C427.71787311 380.0477236 432.98387584 384.51361352 438.37890625 388.8515625 C440.10578133 390.26703387 441.80268683 391.72000118 443.46484375 393.2109375 C453.1386133 401.76249296 464.13391104 408.29934661 475.04443359 415.14013672 C478.88646503 417.55783005 482.69634608 420.02255151 486.5 422.5 C493.41716109 426.99025211 500.36339026 431.43439021 507.3125 435.875 C517.48324924 442.37771081 527.63375011 448.90955032 537.73388672 455.52148438 C539.99543651 456.99702257 542.26474056 458.460026 544.53515625 459.921875 C545.91954089 460.82250169 547.30367051 461.72352055 548.6875 462.625 C549.3180127 463.02702637 549.94852539 463.42905273 550.59814453 463.84326172 C554.88624296 466.65872889 554.88624296 466.65872889 556 470 C542.14 470 528.28 470 514 470 C516.371875 474.29 518.74375 478.58 521.1875 483 C527.0728053 493.65255948 532.91500223 504.32597941 538.6652832 515.05224609 C541.90179794 521.06578629 545.27044962 526.92329065 549.0234375 532.6328125 C550.36205707 535.87762633 549.93482422 537.63547501 549 541 C547.98373766 543.34368366 546.93268887 545.55723569 545.75 547.8125 C545.22490845 548.8329541 545.22490845 548.8329541 544.68920898 549.87402344 C543.89942753 551.40614899 543.10616869 552.93648535 542.31005859 554.46533203 C540.9103728 557.17340842 539.54220002 559.89609065 538.17578125 562.62109375 C532.39274342 574.06010025 526.24595375 585.19392107 519.5625 596.125 C519.20475494 596.710466 518.84700989 597.29593201 518.47842407 597.8991394 C514.69366968 604.08167657 510.85881478 610.23110945 506.98046875 616.35546875 C493.6557484 637.53112732 486.77013958 657.54104319 492.0625 682.9375 C495.36540919 694.7928697 501.64295478 705.23298786 509.3125 714.7421875 C511 717 511 717 511 719 C506.44594009 718.12402984 503.74397212 715.45275511 500.375 712.4375 C499.11440272 711.33205315 497.85267975 710.22788869 496.58984375 709.125 C495.9747998 708.58617187 495.35975586 708.04734375 494.72607422 707.4921875 C492.51143296 705.57763483 490.23651519 703.74953168 487.9375 701.9375 C484.07805458 698.88790542 480.30863648 695.74903856 476.5625 692.5625 C470.76760852 687.6342609 464.90306652 682.7983991 459 678 C452.52879744 672.73978271 446.11861568 667.41843127 439.76611328 662.01611328 C436.55146271 659.29000563 433.3037187 656.61834432 430 654 C425.54666032 650.47052982 421.21131161 646.81666836 416.88452148 643.13452148 C413.4753091 640.23696577 410.03647722 637.38255209 406.5625 634.5625 C401.65570021 630.57259127 396.86319912 626.46124667 392.08178711 622.32299805 C388.0029534 618.80973839 383.82455293 615.48267323 379.4765625 612.3046875 C378.98929688 611.87414062 378.50203125 611.44359375 378 611 C378 610.34 378 609.68 378 609 C378.59425781 609.0721875 379.18851563 609.144375 379.80078125 609.21875 C394.27732688 610.83976289 406.50711296 610.34533976 418.54956055 601.11181641 C426.44382453 594.30845051 431.95922386 584.82751669 437.625 576.1875 C439.19405663 573.80255703 440.76481639 571.41873957 442.3359375 569.03515625 C442.72571777 568.44265076 443.11549805 567.85014526 443.51708984 567.23968506 C446.07200454 563.36757522 448.69024027 559.54632511 451.3515625 555.74609375 C452.0120459 554.79259033 452.6725293 553.83908691 453.35302734 552.85668945 C454.59163721 551.07305937 455.84403944 549.29890661 457.11181641 547.53588867 C457.65757324 546.74287354 458.20333008 545.9498584 458.765625 545.1328125 C459.48927246 544.11018311 459.48927246 544.11018311 460.22753906 543.06689453 C461.24495463 540.95944173 461.24495463 540.95944173 460.33056641 538.55859375 C458.96657668 535.9357291 457.52300506 533.43024336 455.9453125 530.9296875 C455.3366333 529.9605542 454.7279541 528.9914209 454.10083008 527.99291992 C453.44880615 526.96400635 452.79678223 525.93509277 452.125 524.875 C451.45170654 523.80548096 450.77841309 522.73596191 450.0847168 521.6340332 C448.06033031 518.42023889 446.03057792 515.20988484 444 512 C442.92024622 510.28796642 441.84079115 508.57574438 440.76171875 506.86328125 C437.29324098 501.36224045 433.81598074 495.8667771 430.3359375 490.37304688 C429.20561209 488.58852627 428.0756412 486.80378106 426.94604492 485.01879883 C425.87933882 483.33320869 424.81182885 481.64812693 423.7434082 479.96362305 C423.26734131 479.21121338 422.79127441 478.45880371 422.30078125 477.68359375 C421.87966064 477.01900146 421.45854004 476.35440918 421.0246582 475.66967773 C420 474 420 474 419 472 C345.74 471.505 345.74 471.505 271 471 C271.95127785 489.07427916 273.94288262 517.39836346 288.6796875 531.62109375 C290 533 290 533 290 536 C286.11649732 535.43384016 284.24229686 533.66155353 281.4375 531 C276.14007817 526.09095221 270.61782022 521.5353429 265 517 C258.55268403 511.76331541 252.16572361 506.46456408 245.83642578 501.08642578 C241.54585154 497.44636206 237.19879819 493.88042898 232.83203125 490.33203125 C230.74970795 488.61734572 228.68694173 486.88898143 226.63671875 485.13671875 C226.06308594 484.646875 225.48945313 484.15703125 224.8984375 483.65234375 C223.79310624 482.7059985 222.69007073 481.7569622 221.58984375 480.8046875 C218.20300557 477.90534875 214.74390755 475.4008017 211 473 C217.84461901 480.15077436 217.84461901 480.15077436 225.25 486.6875 C227.52593874 488.60135758 229.22892993 490.37058176 231.125 492.625 C233.97402376 495.97063884 237.02101143 498.90433164 240.29296875 501.8359375 C247.14244036 508.04146792 253.70642343 514.52029245 260.24047852 521.05517578 C262.21808617 523.03055165 264.20363289 524.99772787 266.18945312 526.96484375 C267.45361143 528.22607513 268.71730166 529.48777589 269.98046875 530.75 C270.57200241 531.33434814 271.16353607 531.91869629 271.772995 532.52075195 C275.88555527 536.6566658 275.88555527 536.6566658 277 540 C275.35 540.66 273.7 541.32 272 542 C272.00054207 542.69810763 272.00108415 543.39621527 272.00164264 544.11547768 C272.03287164 585.47568541 272.02773828 626.8357491 271.97527504 668.19593949 C271.96900957 673.16024842 271.96304844 678.12455766 271.95727539 683.08886719 C271.95554373 684.57134663 271.95554373 684.57134663 271.95377708 686.08377515 C271.93580167 702.09410851 271.94248906 718.10434166 271.95826416 734.11467327 C271.97389859 750.53836963 271.96309142 766.96189449 271.92765242 783.38556087 C271.90661408 793.52288498 271.90628917 803.65977781 271.93231983 813.79709212 C271.94818717 820.74525278 271.93840941 827.69308004 271.90833985 834.64119263 C271.89174235 838.652249 271.88657231 842.66247599 271.91181374 846.67350578 C271.93467296 850.34560918 271.92534191 854.01616991 271.89036006 857.68816482 C271.8800928 859.64619735 271.90431524 861.60431681 271.92974228 863.56221116 C271.80527528 871.88550261 271.80527528 871.88550261 269.51223862 875.05905509 C267.74440592 876.6097083 266.02298336 877.80876569 264 879 C262.7722991 879.84804026 261.54670939 880.6991535 260.32421875 881.5546875 C259.11552395 882.333653 257.90327964 883.10713918 256.6875 883.875 C256.06810547 884.2771875 255.44871094 884.679375 254.81054688 885.09375 C250.2584104 888 250.2584104 888 248 888 C249.29575843 899.03099609 251.7570349 906.84365119 258 916 C258.71573527 917.64619113 259.4025696 919.30728055 260 921 C256.12883985 919.31402027 252.96940316 916.79410878 249.6875 914.1875 C249.07865967 913.70684082 248.46981934 913.22618164 247.8425293 912.73095703 C242.57001596 908.5304429 237.47335732 904.14170928 232.40161133 899.70239258 C227.9241338 895.78481845 223.36537667 891.98738229 218.7421875 888.2421875 C215.62999924 885.69746377 212.56271236 883.10384377 209.5 880.5 C205.40732909 877.02147175 201.28871292 873.58121121 197.125 870.1875 C195.41659194 868.79175813 193.70825219 867.39593263 192 866 C190.89205078 865.09894531 190.89205078 865.09894531 189.76171875 864.1796875 C188.13632542 862.83116478 186.56116044 861.42239062 185 860 C185 859.34 185 858.68 185 858 C186.65 857.67 188.3 857.34 190 857 C190.2519239 807.8265708 190.44568034 758.65320697 190.56171862 709.47925907 C190.57547596 703.67033507 190.58971355 697.86141234 190.60424805 692.05249023 C190.60713346 690.89606636 190.61001888 689.73964248 190.61299173 688.54817546 C190.66082162 669.83751695 190.74753251 651.12723121 190.84868076 632.41679364 C190.95164467 613.20992369 191.012667 594.00324862 191.03497344 574.79611403 C191.05004701 562.94952193 191.09760684 551.10398358 191.18708114 539.25771595 C191.24534733 531.12790815 191.26277426 522.99864297 191.24851515 514.86864167 C191.24148745 510.18161956 191.25205195 505.49643502 191.31126022 500.80974197 C191.36518728 496.50945531 191.3672532 492.21222355 191.32988784 487.91178984 C191.32527739 486.36503771 191.33890905 484.81808715 191.37371501 483.27171981 C191.3889542 482.55221036 191.4041934 481.83270092 191.4198944 481.09138817 C191.43886269 480.47209778 191.45783097 479.8528074 191.47737406 479.21475064 C190.80023467 466.58758115 187.86202872 466.08458462 179 454 C178.67 585.34 178.34 716.68 178 852 C173.60197604 850.90049401 171.4006565 849.03988828 168.125 846.125 C163.55552514 842.15250283 158.91980909 838.32220219 154.125 834.625 C148.30915927 830.12346894 142.73374667 825.38778488 137.23681641 820.50244141 C136.65464355 819.98858887 136.0724707 819.47473633 135.47265625 818.9453125 C134.97000244 818.49687988 134.46734863 818.04844727 133.94946289 817.58642578 C131.07158592 815.24447907 128.0348531 813.13255684 125 811 C125.5902446 811.5902446 126.1804892 812.1804892 126.78862 812.78862 C142.19241333 828.19241333 157.59620667 843.59620667 173 859 C174.37381836 860.20626038 174.37381836 860.20626038 175.77539062 861.43688965 C178.47272671 864.54465774 178.61109186 865.92402025 178.56762695 869.98364258 C178.5672493 871.16448929 178.56687164 872.345336 178.56648254 873.56196594 C178.54067612 874.82671249 178.51486969 876.09145905 178.48828125 877.39453125 C178.48120651 878.69702316 178.47413177 879.99951508 178.46684265 881.34147644 C178.44781513 884.79263884 178.39875439 888.24273739 178.34332275 891.69348145 C178.29203649 895.21933604 178.26930883 898.74536373 178.24414062 902.27148438 C178.19062898 909.18142469 178.10536972 916.09066117 178 923 C174.31542969 924.15509033 174.31542969 924.15509033 171.4765625 922.75927734 C170.53554688 922.1245752 169.59453125 921.48987305 168.625 920.8359375 C167.56829102 920.13299561 166.51158203 919.43005371 165.42285156 918.70581055 C164.28180527 917.92901436 163.14085719 917.15207389 162 916.375 C160.81565612 915.58177749 159.63042467 914.78987868 158.44433594 913.99926758 C156.06031878 912.40876599 153.68015102 910.81275145 151.30273438 909.21240234 C147.74275653 906.82768034 144.16023066 904.48437317 140.54614258 902.18261719 C138.98949912 901.16901968 137.45552932 900.11988876 135.9440918 899.04003906 C131.49715732 895.92597201 127.38086097 893.68882323 122.20890808 891.96266174 C113.29501458 888.89179388 104.39846461 885.00098968 99.1842041 876.7857666 C93.18126738 862.66423079 95.89661944 843.25529352 96.6184082 828.29150391 C96.65192886 827.50658255 96.68544952 826.72166119 96.71998596 825.91295433 C96.8808186 822.15678868 97.08665393 818.41929459 97.40658569 814.67318726 C98.01212528 805.60767851 96.35800029 800.48790883 90.34336853 793.55688477 C89.57005692 792.71311279 88.7967453 791.86934082 88 791 C86.69944199 789.32533985 85.412557 787.6398336 84.1484375 785.9375 C82.89093559 784.29142935 81.63311652 782.64560095 80.375 781 C74.32913453 773.08429398 68.34801457 765.1230077 62.39550781 757.13696289 C57.92946909 751.17208908 53.33404575 745.32573589 48.59082031 739.57861328 C46.5268796 737.05321067 45.0415608 735.1246824 44 732 C48.06738501 732.52164037 50.01113078 733.53555264 52.9375 736.375 C56.73407403 739.90713604 60.65177484 743.14510201 64.75 746.3125 C69.50700889 750.00424767 74.17077053 753.7772386 78.75 757.6875 C88.0784166 765.72917073 88.0784166 765.72917073 98 773 C98 673.34 98 573.68 98 471 C25.4 471.33 -47.2 471.66 -122 472 C-115.97048591 485.5664067 -109.86772807 498.87029717 -103 512 C-102.6066748 512.75571289 -102.21334961 513.51142578 -101.80810547 514.29003906 C-96.92680209 523.51004327 -91.54327152 529.82985946 -83 536 C-81.19811972 537.44569464 -79.40648153 538.90424199 -77.625 540.375 C-76.72136719 541.11363281 -75.81773437 541.85226562 -74.88671875 542.61328125 C-71.71391561 545.23653256 -68.57357093 547.89557979 -65.4375 550.5625 C-61.64665831 553.78557485 -57.83322176 556.96590065 -53.9375 560.0625 C-50.06463754 563.1442011 -46.2047078 566.23986014 -42.375 569.375 C-40.83972656 570.62410156 -40.83972656 570.62410156 -39.2734375 571.8984375 C-38.52320313 572.59195313 -37.77296875 573.28546875 -37 574 C-37 574.66 -37 575.32 -37 576 C-41.38638667 575.39390208 -45.24670539 574.31056867 -49.38671875 572.75 C-50.57201172 572.3065625 -51.75730469 571.863125 -52.97851562 571.40625 C-54.20248047 570.9421875 -55.42644531 570.478125 -56.6875 570 C-59.12880968 569.08307618 -61.57021153 568.16639769 -64.01171875 567.25 C-65.08897217 566.84265625 -66.16622559 566.4353125 -67.27612305 566.015625 C-69.17146065 565.30892926 -71.08100257 564.63966581 -73 564 C-50.61495591 604.95974295 -50.61495591 604.95974295 -24.78057957 643.55467606 C-20.36655908 649.59816368 -20.31523315 654.8919532 -20.43237305 662.19921875 C-20.43127785 664.00050484 -20.43127785 664.00050484 -20.43016052 665.83818054 C-20.43303346 669.10869881 -20.45799081 672.37812726 -20.49303031 675.64842987 C-20.52442927 679.07432762 -20.52723513 682.50025009 -20.53315735 685.92626953 C-20.54865635 692.40378754 -20.58963049 698.88088023 -20.6399048 705.35821152 C-20.69592193 712.7366728 -20.72331569 720.11515511 -20.74838197 727.49377632 C-20.80055056 742.66275393 -20.88841505 757.83133429 -21 773 C-24.55080331 772.24018924 -25.87359923 771.40202761 -28.1875 768.5625 C-30.85199075 765.36965607 -33.56688911 762.25534889 -36.375 759.1875 C-40.26924618 754.87225424 -43.96654724 750.42908245 -47.62109375 745.91015625 C-49.72973037 743.33062541 -51.87373798 740.78999657 -54.03979492 738.2590332 C-59.50948334 731.86451363 -64.70405353 725.30576655 -69.78369141 718.59863281 C-71.75359599 716.00952498 -73.75560464 713.44526481 -75.75 710.875 C-105.66191698 672.05315031 -132.57256758 631.04690075 -156 588 C-156.54881836 586.99791504 -157.09763672 585.99583008 -157.66308594 584.96337891 C-164.55934807 572.35269642 -171.28118747 559.67881874 -177.53726196 546.73681641 C-178.13688528 545.49671269 -178.73858819 544.25761233 -179.34237671 543.01953125 C-182.1105292 537.3391392 -184.83692299 531.71209719 -186.9140625 525.73828125 C-191.58074978 512.57498581 -200.07777749 506.5533742 -211.41894531 498.80029297 C-215.06256936 496.25885486 -218.5017303 493.50021457 -221.9375 490.6875 C-223.13207077 489.72303891 -224.32737001 488.75947932 -225.5234375 487.796875 C-226.09803711 487.33345703 -226.67263672 486.87003906 -227.26464844 486.39257812 C-230.18039993 484.05275729 -233.12065109 481.74436748 -236.0625 479.4375 C-236.63379639 478.98938965 -237.20509277 478.5412793 -237.79370117 478.07958984 C-239.52879819 476.71929735 -241.26439582 475.35964532 -243 474 C-246.57380701 471.19841295 -250.14594989 468.39483446 -253.7109375 465.58203125 C-255.82758816 463.91363437 -257.95742514 462.27047581 -260.1015625 460.63671875 C-261.01679688 459.93160156 -261.93203125 459.22648437 -262.875 458.5 C-263.67679687 457.8915625 -264.47859375 457.283125 -265.3046875 456.65625 C-265.86414063 456.1096875 -266.42359375 455.563125 -267 455 C-267 454.01 -267 453.02 -267 452 C-260.13443477 454.18173775 -253.55888185 456.78349086 -246.9453125 459.6328125 C-245.92194794 460.07011688 -244.89858337 460.50742126 -243.84420776 460.95797729 C-240.60302507 462.34363327 -237.36392117 463.73406705 -234.125 465.125 C-230.86430415 466.52223509 -227.60317883 467.91845522 -224.34152222 469.31344604 C-222.3186865 470.17891713 -220.2964677 471.04583187 -218.27493286 471.91433716 C-217.36323334 472.30499359 -216.45153381 472.69565002 -215.51220703 473.09814453 C-214.71106476 473.44217316 -213.90992249 473.78620178 -213.08450317 474.14065552 C-211.41611359 474.82845557 -209.71199692 475.42933436 -208 476 C-208.27038086 475.28497314 -208.54076172 474.56994629 -208.81933594 473.83325195 C-238.18584024 395.82001326 -257.96384097 314.25511164 -266.6875 158.0625 C-266.66510254 157.32281982 -266.64270508 156.58313965 -266.61962891 155.82104492 C-266.39424273 151.43825262 -265.84877835 148.39520351 -263 145 C-261.1329628 144.06513043 -259.23337349 143.19356831 -257.3125 142.375 C-253.43458416 140.02471724 -253.43458416 140.02471724 -251.44384766 136.09960938 C-250.7401452 130.382828 -251.31519341 124.69342434 -252 119 C-252.0918457 118.22108398 -252.18369141 117.44216797 -252.27832031 116.63964844 C-253.32695167 108.47856089 -255.07510164 100.73589642 -258.23046875 93.1015625 C-259 91 -259 91 -259 88 C-256.16185267 89.27880091 -254.23976675 90.54655163 -252.1640625 92.859375 C-251.33213379 93.76925171 -251.33213379 93.76925171 -250.48339844 94.69750977 C-249.87012695 95.37483154 -249.25685547 96.05215332 -248.625 96.75 C-241.14318891 104.82930424 -233.4863627 112.72882705 -225.73748779 120.55163574 C-224.42638374 121.87816076 -223.11903895 123.2084133 -221.81573486 124.54260254 C-214.02852242 132.50788119 -206.53034681 139.16262137 -197 145 C-195.18565686 146.21479432 -193.37822171 147.43997459 -191.578125 148.67578125 C-190.27004883 149.56777222 -190.27004883 149.56777222 -188.93554688 150.4777832 C-188.04931641 151.08323975 -187.16308594 151.68869629 -186.25 152.3125 C-185.30189453 152.95985107 -184.35378906 153.60720215 -183.37695312 154.27416992 C-180.58404539 156.18191826 -177.79197512 158.09088715 -175 160 C-174.22978516 160.5259375 -173.45957031 161.051875 -172.66601562 161.59375 C-168.72795873 164.28350367 -164.79778267 166.98403169 -160.87890625 169.70166016 C-159.57703816 170.60126184 -158.27213354 171.49647897 -156.96484375 172.38818359 C-154.96996759 173.74948784 -152.98427027 175.12329872 -151 176.5 C-150.39349609 176.90968018 -149.78699219 177.31936035 -149.16210938 177.74145508 C-147.5 178.90625 -147.5 178.90625 -145 181 C-145 181.99 -145 182.98 -145 184 C-145.66531738 184.34256836 -146.33063477 184.68513672 -147.01611328 185.03808594 C-150.0543132 186.60506281 -153.08966673 188.17747794 -156.125 189.75 C-157.17171875 190.28882813 -158.2184375 190.82765625 -159.296875 191.3828125 C-165.60726385 194.63116663 -165.60726385 194.63116663 -171.6171875 198.390625 C-174 200 -174 200 -176 200 C-173.29081428 247.43605385 -168.8733325 294.59810094 -158.625 341.0625 C-158.38152832 342.17665283 -158.13805664 343.29080566 -157.88720703 344.4387207 C-154.87642731 357.50258562 -150.82573062 370.08815917 -147 383 C-69.78 383.33 7.44 383.66 87 384 C88.45310713 349.39980657 88.45310713 349.39980657 75.67724609 322.30761719 C73.97020548 319.95900759 72.45475642 317.55689836 70.95703125 315.0703125 C58.26117331 293.99916558 43.39186281 274.12540688 27.109375 255.69921875 C25.12287796 253.15723828 23.99869753 251.04602746 23 248 C26 248 26 248 28.29296875 250.1015625 C29.18628906 251.05804688 30.07960938 252.01453125 31 253 C32.01330026 254.03221874 33.03037613 255.06074175 34.05078125 256.0859375 C34.57978027 256.62017334 35.1087793 257.15440918 35.65380859 257.70483398 C40.21444738 262.29702267 44.77433318 266.80523179 49.7109375 270.99609375 C53.04844582 273.91783738 56.26632628 276.96425009 59.5 280 C64.58608943 284.7692165 69.7304975 289.43309783 75 294 C80.445 298.95 80.445 298.95 86 304 C86.33 247.57 86.66 191.14 87 133 C82.71 133.66 78.42 134.32 74 135 C70.82502003 135.3831381 67.65654927 135.74848235 64.4765625 136.078125 C62.71608676 136.26751812 60.95567252 136.45748351 59.1953125 136.64794922 C58.28813477 136.74557556 57.38095703 136.8432019 56.44628906 136.94378662 C13.22164574 141.63524637 -29.51631121 148.86600234 -71.75341797 159.21533203 C-74.80999748 159.9540782 -77.87298601 160.65224695 -80.94140625 161.33984375 C-82.66955479 161.74619007 -84.39744239 162.15364864 -86.125 162.5625 C-86.88304932 162.72379395 -87.64109863 162.88508789 -88.42211914 163.05126953 C-92.27902587 164.00387087 -93.87721616 164.84836097 -96.41015625 167.9765625 C-99.80098835 174.42497538 -100.4180173 178.92884951 -99 186 C-98.00628885 188.7424 -96.68612107 191.21544798 -95.25 193.75 C-94.86384521 194.45592285 -94.47769043 195.1618457 -94.07983398 195.88916016 C-88.17904479 206.50667974 -81.73756095 216.89365857 -75 227 C-75 227.99 -75 228.98 -75 230 C-79.21187407 228.32142916 -82.20206422 225.25614731 -85.4375 222.1875 C-86.0756665 221.58800537 -86.71383301 220.98851074 -87.37133789 220.37084961 C-94.25489705 213.85168068 -100.93238711 207.12291686 -107.58959961 200.3737793 C-111.98130512 195.9377258 -116.42747232 191.67366711 -121.16625977 187.61108398 C-124.08567351 185.04615105 -126.78507105 182.27776483 -129.5 179.5 C-134.17132053 174.78197294 -138.9164362 170.27522327 -144 166 C-146.27426439 164.06650963 -148.54371449 162.12741457 -150.8125 160.1875 C-151.41868164 159.67010254 -152.02486328 159.15270508 -152.64941406 158.61962891 C-156.39091928 155.41505269 -160.06119144 152.14787263 -163.6875 148.8125 C-167.16136309 145.62263156 -170.69910025 142.57951106 -174.375 139.625 C-179.22376545 135.71269139 -183.80470018 131.57640636 -188.34814453 127.31884766 C-191.99294992 123.90521386 -195.72096695 120.636867 -199.609375 117.5 C-201.26652433 115.71251308 -201.49142141 114.34691584 -202 112 C-135.1863121 82.20391335 -65.34675714 62.71972931 7 52.0625 C7.72900513 51.95468201 8.45801025 51.84686401 9.20910645 51.73577881 C21.92235743 49.87103834 21.92235743 49.87103834 27 50 C27.67297094 36.31625747 23.06061066 24.50163381 14.00317383 14.26074219 C9.62565303 9.48040936 5.0074673 5.11725089 0 1 C0 0.67 0 0.34 0 0 Z " fill="#FEFEFE" transform="translate(267,0)"/>
<path d="M0 0 C5.38961711 0.45092414 9.23820252 3.48382349 13.625 6.375 C22.42077724 12.04030631 31.31140891 17.44943495 40.44433594 22.55419922 C42.21756033 23.55735502 43.9806514 24.57855282 45.73535156 25.61376953 C58.23710693 32.98433595 68.48508004 37.41362404 83.1171875 37.7890625 C84.39851563 37.85867187 85.67984375 37.92828125 87 38 C88 40 88 40 87.9296875 42.3359375 C87.71623444 54.19782908 94.00021185 63.16246969 100 73 C100.01981934 72.01080566 100.03963867 71.02161133 100.06005859 70.00244141 C100.13603456 66.33827923 100.22476352 62.67451836 100.31738281 59.01074219 C100.35570585 57.42390862 100.39055288 55.83698719 100.421875 54.25 C100.46745431 51.97103434 100.52545838 49.69267532 100.5859375 47.4140625 C100.59748871 46.70255035 100.60903992 45.99103821 100.62094116 45.25796509 C100.77225659 40.22774341 100.77225659 40.22774341 103 38 C112.51797675 36.58728171 122.39154393 36.75960337 132 36.75 C133.07948914 36.74848938 133.07948914 36.74848938 134.18078613 36.74694824 C170.46409319 36.78006945 206.86476477 39.46732831 242.88244629 43.74932861 C244.95596568 43.99478731 247.03008988 44.23429836 249.10449219 44.47216797 C300.12959074 50.35710878 350.85352493 61.14826815 400 76 C399.30777344 75.36835937 398.61554688 74.73671875 397.90234375 74.0859375 C391.90739996 68.60754833 385.9400831 63.10034815 380 57.5625 C379.36570068 56.97194824 378.73140137 56.38139648 378.07788086 55.77294922 C376.37982701 54.18761512 374.68875222 52.59522955 373 51 C371.7934375 49.86884766 371.7934375 49.86884766 370.5625 48.71484375 C369 47 369 47 369 45 C372.44837671 45.66884891 375.06225956 47.02733192 378.09375 48.78125 C379.10953125 49.36696777 380.1253125 49.95268555 381.171875 50.55615234 C382.27015625 51.19762207 383.3684375 51.8390918 384.5 52.5 C385.66145032 53.17530674 386.82290882 53.85059944 387.984375 54.52587891 C396.3622736 59.40913156 404.6997744 64.36091807 413 69.375 C413.58175995 69.72605804 414.1635199 70.07711609 414.76290894 70.43881226 C421.14108054 74.29772882 427.42827814 78.24541996 433.59765625 82.43359375 C447.46781063 91.84850541 461.23874222 99.11189594 476.69042969 105.58496094 C530.66030928 128.66030928 530.66030928 128.66030928 543 141 C543.11123236 143.703524 543.1573987 146.38172697 543.16113281 149.08618164 C543.16609772 149.93535156 543.17106262 150.78452148 543.17617798 151.65942383 C543.19087373 154.49300945 543.19762301 157.32653862 543.203125 160.16015625 C543.20888185 162.14147441 543.21463951 164.12279256 543.22039795 166.10411072 C543.23093659 170.28156798 543.23675672 174.45900591 543.24023438 178.63647461 C543.24458081 182.8794025 543.2583138 187.12212265 543.28125 191.36499023 C543.52066799 236.42524527 543.52066799 236.42524527 540 256 C536.75152057 255.27094733 534.91108411 254.3803442 532.34765625 252.2265625 C531.66010254 251.65446045 530.97254883 251.0823584 530.26416016 250.49291992 C529.17433838 249.56829956 529.17433838 249.56829956 528.0625 248.625 C526.93013916 247.67814331 526.93013916 247.67814331 525.77490234 246.7121582 C523.51031361 244.81542752 521.25397962 242.90931891 519 241 C517.79298071 239.98045459 516.58595051 238.9609221 515.37890625 237.94140625 C513.76223128 236.57420198 512.14658449 235.20584963 510.53344727 233.83447266 C506.338438 230.27032647 502.08151834 226.78728237 497.8125 223.3125 C494.12949033 220.2842476 490.49772974 217.19772733 486.86450195 214.11010742 C481.6321273 209.6711119 476.32776708 205.32413961 471 201 C473.58789984 204.32230385 476.26721997 207.40294939 479.25 210.375 C480.30960938 211.43847656 480.30960938 211.43847656 481.390625 212.5234375 C483.3861937 214.41743533 485.39947124 216.21968536 487.4831543 218.01171875 C495.49501793 225.00923281 503.09670823 232.46058511 510.70182896 239.89432716 C513.40303087 242.5334819 516.11617175 245.15727723 518.86157227 247.75048828 C521.54111672 250.28224561 524.18420507 252.84733781 526.80601311 255.43879318 C527.8023011 256.41191274 528.81061388 257.37289131 529.8312397 258.32045364 C537.70080812 265.65064808 537.70080812 265.65064808 538.41671753 271.27220154 C538.18952374 274.6075749 537.68933301 277.73111399 537 281 C536.78768196 282.5338405 536.58226613 284.0686677 536.38671875 285.60473633 C536.1598351 287.01484442 535.92665827 288.423953 535.6875 289.83203125 C535.55828659 290.61448715 535.42907318 291.39694305 535.29594421 292.20310974 C534.87248527 294.74110321 534.43790424 297.27696089 534 299.8125 C533.84794098 300.69860962 533.69588196 301.58471924 533.53921509 302.49768066 C527.24376116 338.94534448 518.07293809 374.63935453 507.7956543 410.14624023 C504.35228695 422.49650748 506.57301351 436.45322023 512 448 C513.74425231 450.56573888 515.57150394 452.92025452 517.609375 455.2578125 C519 457 519 457 519 459 C515.39254862 458.30327042 512.51880687 456.81159629 509.29296875 455.078125 C508.16117188 454.47162109 507.029375 453.86511719 505.86328125 453.24023438 C504.63788701 452.57707014 503.41263001 451.91365225 502.1875 451.25 C500.91672438 450.56564803 499.64589034 449.88140453 498.375 449.19726562 C489.76518401 444.55086695 481.23510518 439.77365401 472.73828125 434.92358398 C465.12175979 430.59234856 457.41920086 426.43289919 449.6875 422.3125 C440.69273482 417.51810698 431.73205021 412.67454924 422.8359375 407.69921875 C417.25285637 404.57686445 411.65047064 401.48952842 406.04858398 398.40109253 C404.18783128 397.37518265 402.32728878 396.3488925 400.46679688 395.32250977 C394.68901264 392.13536372 388.91025665 388.94999578 383.12937927 385.76846313 C380.55717657 384.35266962 377.98542999 382.93604875 375.41372681 381.51934814 C373.6326293 380.53861557 371.85087388 379.55907813 370.0690918 378.57958984 C361.99894288 374.13357069 353.98783519 369.5916288 346 365 C346 364.34 346 363.68 346 363 C351.60231335 364.10045441 357.0008756 365.57740711 362.4375 367.3125 C371.23174893 370.10679832 380.07198426 372.66704155 389 375 C389.74008301 375.19513184 390.48016602 375.39026367 391.24267578 375.59130859 C402.83890462 378.59002685 414.03556425 379.73471318 426 380 C426.17885742 379.26934326 426.35771484 378.53868652 426.54199219 377.78588867 C427.82210058 372.60459615 429.1352802 367.43934947 430.578125 362.30078125 C445.96203185 307.45001884 451.66294708 251.69770947 455 195 C454.26547607 194.72019287 453.53095215 194.44038574 452.77416992 194.15209961 C450.24787704 193.10294216 447.97770308 191.93401852 445.61328125 190.56640625 C370.54240513 147.89158898 278.42401174 137.67682775 194 129 C198.52865398 138.18067898 203.11374546 147.29216752 208.1875 156.1875 C208.73792969 157.15526367 209.28835938 158.12302734 209.85546875 159.12011719 C221.4402785 179.34745831 233.67927253 199.55909624 248.57470703 217.55053711 C251.03931186 220.56528534 252.77588372 223.29345798 254 227 C250.9231392 225.62076149 248.74104678 224.02099102 246.3125 221.69140625 C245.6201123 221.03253418 244.92772461 220.37366211 244.21435547 219.69482422 C243.48361816 218.99115723 242.75288086 218.28749023 242 217.5625 C240.4615182 216.09704637 238.92245369 214.63220425 237.3828125 213.16796875 C236.63161133 212.4517334 235.88041016 211.73549805 235.10644531 210.99755859 C232.39182308 208.42326107 229.63999882 205.89514198 226.875 203.375 C222.38731629 199.28075706 217.93614437 195.15001362 213.5 191 C209.02066868 186.8101685 204.52736128 182.63791084 200 178.5 C195.49466013 174.38169603 191.02134346 170.23107927 186.5625 166.0625 C176.11250576 156.29626257 165.67557519 146.54320894 154.7890625 137.26171875 C153.58837959 136.23716908 152.38786379 135.21242354 151.1875 134.1875 C150.58131836 133.67018311 149.97513672 133.15286621 149.35058594 132.61987305 C145.6092918 129.41497771 141.93884617 126.14790722 138.3125 122.8125 C134.81740111 119.60354956 131.2571616 116.53934163 127.5625 113.5625 C123.0260327 109.90364231 118.741339 106.05131037 114.47851562 102.08398438 C111.26718772 99.1129881 107.97381211 96.30046168 104.5625 93.5625 C99.78298078 89.71825361 95.30679656 85.62910955 90.83398438 81.43945312 C87.50862723 78.34234535 84.11289193 75.40385624 80.5625 72.5625 C76.187478 69.05356678 72.07980841 65.34153921 68 61.5 C63.06828271 56.85661697 58.01167434 52.48744601 52.72265625 48.25 C48.59307044 44.83731503 44.69116515 41.18979586 40.76171875 37.55078125 C36.20038758 33.3378403 31.50977708 29.28567106 26.78515625 25.2578125 C25.5857762 24.23456403 24.38656217 23.21112095 23.1875 22.1875 C22.58574951 21.67388916 21.98399902 21.16027832 21.36401367 20.63110352 C16.62019558 16.56670368 11.98958426 12.39715032 7.40234375 8.15625 C4.98757348 5.93344176 4.98757348 5.93344176 2.19140625 3.84375 C1.46824219 3.2353125 0.74507813 2.626875 0 2 C0 1.34 0 0.68 0 0 Z " fill="#FEFEFE" transform="translate(357,5)"/>
<path d="M0 0 C4.28454303 1.65729195 7.15819806 4.87742984 10.32910156 8.0703125 C10.95391418 8.69162048 11.57872681 9.31292847 12.22247314 9.95306396 C14.28357967 12.00537694 16.3372954 14.0649084 18.390625 16.125 C19.81951115 17.55253916 21.24869409 18.97978129 22.67816162 20.40673828 C25.67054221 23.39617111 28.65927687 26.3891901 31.64550781 29.38476562 C35.48131679 33.23198948 39.326061 37.07013868 43.17355728 40.90567017 C46.12472656 43.84962911 49.07113626 46.79831431 52.01610565 49.74847412 C53.43248247 51.16618866 54.85035623 52.58240924 56.26972198 53.99713135 C58.24750847 55.96986399 60.21881229 57.94884983 62.18847656 59.9296875 C62.78063965 60.51780212 63.37280273 61.10591675 63.98291016 61.71185303 C68 65.77146944 68 65.77146944 68 68 C67.443125 67.855625 66.88625 67.71125 66.3125 67.5625 C61.06404248 66.28584817 56.39400452 65.37069947 51 66 C47.43226637 69.15065261 44.61687649 72.66963211 41.8125 76.5 C41.03261719 77.55445313 40.25273438 78.60890625 39.44921875 79.6953125 C39.04622559 80.2409082 38.64323242 80.78650391 38.22802734 81.34863281 C28.43880594 94.51250827 18.17994175 107.3466525 7.88330078 120.11474609 C5.81265126 122.69033003 3.83446584 125.24830125 2 128 C1.01 128 0.02 128 -1 128 C-1.02332889 111.45852931 -1.04097912 94.91706394 -1.05181217 78.37558079 C-1.05697515 70.69561273 -1.06401789 63.01565487 -1.07543945 55.33569336 C-1.08538623 48.64422011 -1.09185341 41.95275424 -1.09408849 35.2612738 C-1.09539561 31.71604399 -1.09848153 28.17083532 -1.10573006 24.62561226 C-1.1137438 20.67431355 -1.11399114 16.7230358 -1.11352539 12.77172852 C-1.11712067 11.58778 -1.12071594 10.40383148 -1.12442017 9.18400574 C-1.1230455 8.11403351 -1.12167084 7.04406128 -1.12025452 5.94166565 C-1.12117631 5.00604577 -1.1220981 4.07042589 -1.12304783 3.1064539 C-1 1 -1 1 0 0 Z " fill="#FFFFFF" transform="translate(655,650)"/>
<path d="M0 0 C3.52849911 0.76270752 5.08391909 1.73294895 7.609375 4.3515625 C8.28226562 5.03863281 8.95515625 5.72570312 9.6484375 6.43359375 C10.68871094 7.51833984 10.68871094 7.51833984 11.75 8.625 C15.68786211 12.69013142 19.59561156 16.71892674 23.890625 20.41015625 C28.82104757 24.64833491 33.40276139 29.2187923 38 33.8125 C38.87011719 34.67037109 39.74023438 35.52824219 40.63671875 36.41210938 C41.45785156 37.23130859 42.27898437 38.05050781 43.125 38.89453125 C43.87007813 39.63550049 44.61515625 40.37646973 45.3828125 41.13989258 C47 43 47 43 47 45 C43.57272485 44.55777095 40.88207991 43.50213485 37.8125 42 C28.52943249 37.80270545 18.30624439 38.34083685 8.7890625 41.8046875 C7.1834946 42.51601505 5.59046919 43.25552506 4 44 C3.01 44 2.02 44 1 44 C-0.14315747 41.71368506 -0.12112732 40.45652594 -0.11352539 37.91748047 C-0.11344986 37.07675995 -0.11337433 36.23603943 -0.11329651 35.36984253 C-0.10813522 34.46146637 -0.10297394 33.55309021 -0.09765625 32.6171875 C-0.0962413 31.68778351 -0.09482635 30.75837952 -0.09336853 29.80081177 C-0.08776053 26.82550876 -0.07520668 23.85028036 -0.0625 20.875 C-0.05748603 18.86067817 -0.05292295 16.84635516 -0.04882812 14.83203125 C-0.0377885 9.88799198 -0.02051849 4.94400865 0 0 Z " fill="#FFFFFF" transform="translate(458,880)"/>
</svg>
