<?xml version="1.0" encoding="UTF-8"?>
<svg version="1.1" xmlns="http://www.w3.org/2000/svg" width="63" height="75">
<path d="M0 0 C5.85289225 -0.27285766 11.70205662 -0.47191556 17.55981445 -0.60424805 C19.54972828 -0.65942006 21.53919899 -0.73438477 23.52758789 -0.82983398 C40.09577197 -1.60497795 40.09577197 -1.60497795 44.79638672 2.35693359 C46.58528354 5.18688271 47.79733834 7.88514745 49 11 C49.99606351 12.33627664 50.9952066 13.67027521 52 15 C52.06640625 17.44921875 52.06640625 17.44921875 51 20 C48.99312294 21.81108418 47.14285694 23.29773484 44.9375 24.8125 C44.08575195 25.42254883 44.08575195 25.42254883 43.21679688 26.04492188 C41.82011523 27.04255162 40.41120009 28.02301533 39 29 C39.7496385 32.96611069 41.55107193 35.23047319 44.0390625 38.31640625 C44.35617188 38.87199219 44.67328125 39.42757812 45 40 C43.72318316 43.83045053 41.44148159 45.20288175 38.3125 47.5 C37.11919705 48.39634435 35.92650904 49.29350784 34.734375 50.19140625 C34.11626953 50.65434082 33.49816406 51.11727539 32.86132812 51.59423828 C29.89573588 53.83399171 26.97987487 56.13552501 24.0625 58.4375 C23.48943115 58.88649658 22.9163623 59.33549316 22.32592773 59.7980957 C19.24139303 62.21714473 16.18093316 64.66136807 13.14453125 67.140625 C12.51345459 67.65052979 11.88237793 68.16043457 11.23217773 68.68579102 C10.02079406 69.66531263 8.81553137 70.65246747 7.61743164 71.64819336 C4.37329847 74.25736576 3.31906135 75 -1 75 C-3.00184112 72.84255987 -4.63239976 70.82348408 -6.3125 68.4375 C-6.77978516 67.82841797 -7.24707031 67.21933594 -7.72851562 66.59179688 C-8.16486328 65.98271484 -8.60121094 65.37363281 -9.05078125 64.74609375 C-9.44950439 64.19622803 -9.84822754 63.6463623 -10.2590332 63.07983398 C-12.39821517 57.07532288 -8.75573658 50.14625882 -6.5859375 44.5234375 C-5.90075422 42.70062886 -5.21586717 40.87770884 -4.53125 39.0546875 C-3.45150906 36.2046049 -2.36778374 33.35614649 -1.27832031 30.50976562 C-0.22415738 27.74745952 0.81452706 24.97971046 1.8515625 22.2109375 C2.18169342 21.36187836 2.51182434 20.51281921 2.85195923 19.63803101 C5.06147962 13.91029351 5.06147962 13.91029351 4 8 C2.68133728 6.321702 1.34919532 4.65385233 0 3 C0 2.01 0 1.02 0 0 Z M20 18 C19.319375 19.423125 18.63875 20.84625 17.9375 22.3125 C17.55464844 23.11300781 17.17179687 23.91351563 16.77734375 24.73828125 C15.70264486 27.12028753 15.70264486 27.12028753 17 30 C19.14949538 28.37965717 21.2946141 26.75404206 23.4375 25.125 C24.35499023 24.43470703 24.35499023 24.43470703 25.29101562 23.73046875 C28.64257013 21.30765076 28.64257013 21.30765076 31 18 C27.37 18 23.74 18 20 18 Z M15 30 C14.3012307 31.76641683 13.61633417 33.53832664 12.9375 35.3125 C12.55464844 36.29863281 12.17179687 37.28476562 11.77734375 38.30078125 C10.70610152 41.06233263 10.70610152 41.06233263 12 44 C14.00297785 42.35767739 16.00243908 40.71138756 18 39.0625 C18.57234375 38.59392578 19.1446875 38.12535156 19.734375 37.64257812 C21.17497065 36.45065672 22.58974871 35.22767412 24 34 C24 33.67 24 33.34 24 33 C21.36 33 18.72 33 16 33 C15.67 32.01 15.34 31.02 15 30 Z " fill="#F7F7F7" transform="translate(11,0)"/>
<path d="M0 0 C0.33 0.66 0.66 1.32 1 2 C-0.61594832 4.04119788 -2.2856382 6.04072937 -4 8 C-4.66 8 -5.32 8 -6 8 C-5.65120368 4.74456771 -4.97866739 3.98126893 -2.4375 1.75 C-1.633125 1.1725 -0.82875 0.595 0 0 Z " fill="#CDCDCD" transform="translate(33,25)"/>
</svg>
