<?xml version="1.0" encoding="UTF-8"?>
<svg version="1.1" xmlns="http://www.w3.org/2000/svg" width="407" height="363">
<path d="M0 0 C-1.31281629 4.15641426 -2.86635518 8.04973584 -4.73046875 11.98828125 C-5.27815918 13.15190186 -5.82584961 14.31552246 -6.39013672 15.5144043 C-6.68208923 16.13117035 -6.97404175 16.7479364 -7.27484131 17.38339233 C-8.86469019 20.74389248 -10.44208856 24.11022506 -12.01953125 27.4765625 C-12.34860474 28.17849228 -12.67767822 28.88042206 -13.01672363 29.60362244 C-16.52760337 37.10522283 -19.95719552 44.64314015 -23.375 52.1875 C-24.63404675 54.96617658 -25.89311535 57.74484323 -27.15234375 60.5234375 C-27.46736847 61.21870544 -27.78239319 61.91397339 -28.10696411 62.63031006 C-30.37249456 67.62654622 -32.65309919 72.61572121 -34.94140625 77.6015625 C-41.76139575 92.46566364 -48.51208617 107.35497575 -55.125 122.3125 C-60.54008839 134.55945503 -66.08987859 146.73202772 -71.78393555 158.8515625 C-76.0686581 167.97528053 -80.27439826 177.13266495 -84.4375 186.3125 C-84.90635117 187.34630798 -84.90635117 187.34630798 -85.38467407 188.40100098 C-86.65032573 191.19249521 -87.91550184 193.98420412 -89.1799469 196.77624512 C-91.31987496 201.50132881 -93.46470204 206.2241567 -95.61328125 210.9453125 C-96.21712342 212.27229771 -96.82096456 213.59928339 -97.42480469 214.92626953 C-97.875755 215.91726654 -97.875755 215.91726654 -98.33581543 216.92828369 C-103.23082052 227.68664078 -108.11140012 238.45141163 -112.97602844 249.22354126 C-115.02438094 253.7589603 -117.07465722 258.29348506 -119.13012695 262.82568359 C-119.52645828 263.69963776 -119.92278961 264.57359192 -120.33113098 265.47402954 C-121.11538468 267.20337426 -121.89971587 268.93268384 -122.68412781 270.66195679 C-124.76100744 275.24593773 -126.82148567 279.83654199 -128.85844421 284.43840027 C-129.70072037 286.33815446 -130.54888879 288.23513988 -131.3996582 290.13110352 C-132.39425333 292.35035015 -133.37793559 294.57453396 -134.34838867 296.80444336 C-134.99384644 298.23348999 -134.99384644 298.23348999 -135.65234375 299.69140625 C-136.01320068 300.50810791 -136.37405762 301.32480957 -136.74584961 302.16625977 C-138 304 -138 304 -139.81477356 304.65341187 C-142.1965048 305.03116667 -143.85950833 304.85225913 -146.21777344 304.37915039 C-147.03832214 304.21890884 -147.85887085 304.0586673 -148.70428467 303.89356995 C-150.01855438 303.62334267 -150.01855438 303.62334267 -151.359375 303.34765625 C-152.26375305 303.16867294 -153.1681311 302.98968964 -154.09991455 302.80528259 C-156.98494767 302.23239175 -159.86742298 301.6476108 -162.75 301.0625 C-164.70687445 300.67173997 -166.66390416 300.28175661 -168.62109375 299.89257812 C-173.41590994 298.93738474 -178.20846671 297.97152163 -183 297 C-182.3581369 293.06184205 -181.71083121 289.12459786 -181.0625 285.1875 C-180.88009766 284.06794922 -180.69769531 282.94839844 -180.50976562 281.79492188 C-180.33251953 280.72177734 -180.15527344 279.64863281 -179.97265625 278.54296875 C-179.72914429 277.0583313 -179.72914429 277.0583313 -179.48071289 275.54370117 C-179 273 -179 273 -178 270 C-170.1177798 270.51599184 -162.65541695 272.0921453 -155 274 C-154.64679688 272.81921875 -154.29359375 271.6384375 -153.9296875 270.421875 C-151.83648965 264.1544938 -148.95404269 258.25810167 -146.10821533 252.30728149 C-144.40362905 248.74060216 -142.71751918 245.16521106 -141.03125 241.58984375 C-140.6882486 240.86314987 -140.34524719 240.13645599 -139.99185181 239.38774109 C-136.78092047 232.56824504 -133.68801346 225.69979227 -130.625 218.8125 C-125.73034077 207.81412708 -120.73215764 196.86778106 -115.6875 185.9375 C-109.85338866 173.29538715 -104.12970381 160.60942606 -98.5 147.875 C-94.26202545 138.2900647 -90.01113633 128.72465162 -85.45922852 119.28344727 C-81.4898054 111.01926959 -77.72466303 102.66128013 -73.9375 94.3125 C-73.59322968 93.55361481 -73.24895935 92.79472961 -72.89425659 92.0128479 C-70.92746384 87.67615436 -68.96285672 83.33847638 -67 79 C-73.75476257 83.25329092 -80.43054377 87.59098887 -87 92.125 C-88.65621605 93.26307025 -90.31246705 94.40108963 -91.96875 95.5390625 C-92.80277344 96.11301758 -93.63679687 96.68697266 -94.49609375 97.27832031 C-98.49240691 100.02617527 -102.49645563 102.76269678 -106.5 105.5 C-108.08337329 106.58327494 -109.66670656 107.66660837 -111.25 108.75 C-120.75 115.25 -120.75 115.25 -123.12573242 116.87548828 C-124.70664032 117.95717066 -126.28753229 119.03887634 -127.8684082 120.12060547 C-131.8637193 122.85439101 -135.85931967 125.58775202 -139.85546875 128.3203125 C-147.24255668 133.37212747 -154.62728892 138.42722009 -162 143.5 C-170.18181487 149.12948224 -178.37861487 154.73696291 -186.57666016 160.34277344 C-190.55162332 163.061094 -194.52578556 165.78058496 -198.5 168.5 C-203.28474811 171.77403469 -208.06968067 175.0477981 -212.85546875 178.3203125 C-222.91375659 185.19889007 -232.96235559 192.09133164 -243 199 C-241.27023978 205.15899471 -239.25991704 211.07390423 -236.76953125 216.96875 C-236 219 -236 219 -236 221 C-239.74561895 222.51110807 -243.4971569 224.00693339 -247.25 225.5 C-248.84521484 226.14388672 -248.84521484 226.14388672 -250.47265625 226.80078125 C-251.49746094 227.20683594 -252.52226562 227.61289063 -253.578125 228.03125 C-254.52075195 228.40830078 -255.46337891 228.78535156 -256.43457031 229.17382812 C-259 230 -259 230 -263 230 C-263.31751221 229.13310547 -263.63502441 228.26621094 -263.9621582 227.37304688 C-265.15283321 224.12263224 -266.34378287 220.8723185 -267.53491211 217.62207031 C-268.04804118 216.22171934 -268.56106425 214.82132953 -269.07397461 213.42089844 C-269.57220083 212.06060017 -270.07072193 210.70040987 -270.56954956 209.34033203 C-271.05492266 208.01505138 -271.53876255 206.68920815 -272.02102661 205.36279297 C-273.25051583 201.99060285 -274.5485338 198.66094702 -275.91796875 195.34375 C-277.5678229 190.24528376 -277.5678229 190.24528376 -276 187 C-273.7312123 185.11236863 -271.59870483 183.57037415 -269.125 182 C-267.65465482 181.02908955 -266.18461523 180.0577162 -264.71484375 179.0859375 C-263.94124512 178.5815918 -263.16764648 178.07724609 -262.37060547 177.55761719 C-258.43592311 174.97231611 -254.5659426 172.29358688 -250.6875 169.625 C-249.07718275 168.52291155 -247.46650261 167.42135315 -245.85546875 166.3203125 C-241.06968067 163.0477981 -236.28474811 159.77403469 -231.5 156.5 C-226.71525189 153.22596531 -221.93031933 149.9522019 -217.14453125 146.6796875 C-209.75744332 141.62787253 -202.37271108 136.57277991 -195 131.5 C-185.2014317 124.75811362 -175.38162146 118.04731311 -165.56347656 111.33398438 C-157.36983078 105.73109762 -149.1774633 100.12648815 -141 94.5 C-132.81818513 88.87051776 -124.62138513 83.26303709 -116.42333984 77.65722656 C-112.44837668 74.938906 -108.47421444 72.21941504 -104.5 69.5 C-99.71525189 66.22596531 -94.93031933 62.9522019 -90.14453125 59.6796875 C-82.75744332 54.62787253 -75.37271108 49.57277991 -68 44.5 C-59.81818513 38.87051776 -51.62138513 33.26303709 -43.42333984 27.65722656 C-40.23661251 25.4779494 -37.05033989 23.29800878 -33.86450195 21.11743164 C-32.29726993 20.0453705 -30.72940573 18.97423288 -29.16088867 17.90405273 C-24.9878306 15.05505883 -20.82930364 12.18725027 -16.6875 9.29296875 C-15.81931641 8.6896875 -14.95113281 8.08640625 -14.05664062 7.46484375 C-12.38471676 6.30254373 -10.71657085 5.13478542 -9.05273438 3.9609375 C-8.30314453 3.44144531 -7.55355469 2.92195312 -6.78125 2.38671875 C-6.12189453 1.92483154 -5.46253906 1.46294434 -4.78320312 0.98706055 C-3 0 -3 0 0 0 Z " fill="#FEFEFE" transform="translate(355,3)"/>
<path d="M0 0 C0.92261627 -0.00570007 1.84523254 -0.01140015 2.79580688 -0.01727295 C4.74390536 -0.02667642 6.6920194 -0.0332383 8.64013672 -0.03710938 C11.5585674 -0.04673322 14.47626777 -0.07776748 17.39453125 -0.109375 C33.99255706 -0.20537799 49.21294903 1.88570078 65.1015625 6.765625 C66.64650391 7.22098633 66.64650391 7.22098633 68.22265625 7.68554688 C72.40888366 8.93814034 76.35934845 10.14303601 80.2265625 12.203125 C78.72672228 16.75508763 75.00845372 18.64765539 71.1640625 21.078125 C69.79643699 21.95634953 68.42924766 22.83525367 67.0625 23.71484375 C66.40088867 24.13813965 65.73927734 24.56143555 65.05761719 24.99755859 C62.07887554 26.9587621 59.25017179 29.13357288 56.44921875 31.33984375 C52.9846386 32.68548912 49.775962 31.85915249 46.2265625 31.203125 C45.54408447 31.0801001 44.86160645 30.9570752 44.15844727 30.83032227 C43.46420654 30.70455811 42.76996582 30.57879395 42.0546875 30.44921875 C1.31222166 23.07002654 -40.37504196 30.97817743 -74.7734375 54.203125 C-110.34352398 78.90883649 -132.862296 115.72639488 -140.52734375 158.19140625 C-144.92228725 187.78812366 -141.09270335 219.36190309 -127.77734375 246.29296875 C-126.2611265 250.68822887 -127.25726195 253.93887345 -128.98852539 258.17919922 C-129.48602295 259.1951416 -129.98352051 260.21108398 -130.49609375 261.2578125 C-131.03427734 262.36640625 -131.57246094 263.475 -132.12695312 264.6171875 C-132.69091797 265.75929688 -133.25488281 266.90140625 -133.8359375 268.078125 C-134.40376953 269.2434375 -134.97160156 270.40875 -135.55664062 271.609375 C-136.95538925 274.4773974 -138.36116638 277.34174366 -139.7734375 280.203125 C-144.16860958 278.29243009 -145.79437888 275.41965966 -148.0234375 271.328125 C-148.41112305 270.62558594 -148.79880859 269.92304688 -149.19824219 269.19921875 C-153.84825186 260.52727231 -157.41868886 251.4401204 -160.7734375 242.203125 C-161.02609375 241.51250977 -161.27875 240.82189453 -161.5390625 240.11035156 C-167.3645782 223.85554457 -170.32797586 206.44055373 -170.7734375 189.203125 C-170.81339844 188.05585938 -170.85335937 186.90859375 -170.89453125 185.7265625 C-171.82340806 135.5672145 -152.69504363 90.58033562 -118.7734375 54.203125 C-118.04898438 53.41292969 -117.32453125 52.62273438 -116.578125 51.80859375 C-105.65344594 40.34693894 -92.50442372 31.00406242 -78.7734375 23.203125 C-77.65195313 22.54957031 -76.53046875 21.89601563 -75.375 21.22265625 C-52.78520736 8.37680967 -26.04978227 0.12803261 0 0 Z " fill="#E10013" transform="translate(191.7734375,-0.203125)"/>
<path d="M0 0 C9.24 0 18.48 0 28 0 C24.47354191 31.73812283 7.81677426 61.3036354 -13 85 C-13.51594727 85.59425781 -14.03189453 86.18851562 -14.56347656 86.80078125 C-21.14660979 94.34108114 -28.04949612 100.87998661 -36 107 C-36.96035156 107.78761719 -37.92070312 108.57523437 -38.91015625 109.38671875 C-56.71029229 123.72134158 -77.46829126 133.672115 -99.25 140.375 C-99.98017334 140.6016333 -100.71034668 140.8282666 -101.46264648 141.06176758 C-116.75334069 145.49218666 -131.63856625 146.50917914 -147.49121094 146.44604492 C-150.73177003 146.4375478 -153.97055159 146.46638906 -157.2109375 146.49804688 C-175.69754415 146.56255783 -192.89084272 144.00927806 -210.3125 137.75 C-211.36244141 137.38648438 -212.41238281 137.02296875 -213.49414062 136.6484375 C-216.00095193 135.77849385 -218.50245009 134.89610486 -221 134 C-221 133.01 -221 132.02 -221 131 C-219.0859375 129.52734375 -219.0859375 129.52734375 -216.375 127.9375 C-212.93026218 125.87597736 -209.64564729 123.77922332 -206.50390625 121.28515625 C-196.29140099 113.2274545 -196.29140099 113.2274545 -191.1875 113.6875 C-189.44884931 114.08564242 -187.72058492 114.52988179 -186 115 C-183.21623445 115.54522911 -180.42027679 116.01780252 -177.625 116.5 C-176.88765625 116.63341797 -176.1503125 116.76683594 -175.390625 116.90429688 C-169.27397431 118.00312881 -163.21312828 118.72192992 -157 119 C-156.10925781 119.04125 -155.21851563 119.0825 -154.30078125 119.125 C-112.16431644 120.06528373 -73.37623339 103.69432785 -43 75 C-42.25234375 74.30519531 -41.5046875 73.61039062 -40.734375 72.89453125 C-19.90519958 52.9028926 -8.59947089 27.05250219 0 0 Z " fill="#E10013" transform="translate(355,217)"/>
<path d="M0 0 C-0.53789302 3.8719827 -1.09290574 7.74129371 -1.65563965 11.60974121 C-1.89545379 13.27432852 -2.13123328 14.93949999 -2.3638916 16.60510254 C-3.20056134 22.57735723 -4.1212425 28.52974067 -5.1171875 34.47753906 C-5.45568033 36.57554369 -5.76920506 38.67772948 -6.05761719 40.78320312 C-8.74537265 60.19544143 -8.74537265 60.19544143 -16.70809937 66.61813354 C-19.38144954 68.49949881 -22.10641691 70.20635839 -24.95240784 71.81358337 C-28.40142884 73.81201643 -31.61828007 76.14384157 -34.875 78.4375 C-36.20885498 79.34619872 -37.5432833 80.25405813 -38.87890625 81.16015625 C-43.25012122 84.14999613 -47.53207846 87.25715061 -51.8125 90.375 C-58.00875691 94.88635682 -64.27802181 99.26600484 -70.625 103.5625 C-78.07121063 108.60778698 -85.29154119 113.89397425 -92.45703125 119.328125 C-104.31433325 128.3108333 -104.31433325 128.3108333 -110 131 C-109.36462802 126.6489277 -107.80216045 123.20780192 -105.859375 119.27734375 C-105.54128876 118.62868851 -105.22320251 117.98003326 -104.89547729 117.3117218 C-104.21000644 115.91476148 -103.52204542 114.51902084 -102.83184814 113.12438965 C-100.98186754 109.38476735 -99.15137294 105.63563233 -97.3203125 101.88671875 C-96.94961639 101.12859894 -96.57892029 100.37047913 -96.19699097 99.58938599 C-92.91066419 92.8525385 -89.7511332 86.0627727 -86.625 79.25 C-80.61834912 66.18337195 -74.33266559 53.25895265 -68.00244141 40.34667969 C-67.43882904 39.19505089 -67.43882904 39.19505089 -66.86383057 38.02015686 C-66.16160153 36.58581523 -65.45789959 35.15219329 -64.75238037 33.71946716 C-64.43367981 33.06849564 -64.11497925 32.41752411 -63.78662109 31.74682617 C-63.47543839 31.12254227 -63.16425568 30.49825836 -62.84364319 29.85505676 C-61.8311819 27.72636532 -61.8311819 27.72636532 -60.80786133 24.24755859 C-58.22641736 19.61037187 -55.1869422 18.85192174 -50.30078125 17.24609375 C-49.43293503 16.93728775 -48.56508881 16.62848175 -47.67094421 16.31031799 C-44.89279658 15.32782151 -42.10374047 14.38207528 -39.3125 13.4375 C-37.48547138 12.79997605 -35.65928824 12.1600236 -33.83398438 11.51757812 C-30.26262539 10.26266128 -26.68691042 9.02150967 -23.10791016 7.78857422 C-17.62349164 5.8865199 -12.19223438 3.85309159 -6.78010559 1.75474548 C-2.20682467 0 -2.20682467 0 0 0 Z " fill="#FEFEFE" transform="translate(164,230)"/>
<path d="M0 0 C0.66 0 1.32 0 2 0 C7 21.26666667 7 21.26666667 7 27 C8.010625 26.95875 9.02125 26.9175 10.0625 26.875 C17.52878799 26.86157142 25.91612169 27.63870723 33 30 C31.57270711 33.60508722 30.07656287 34.84120815 26.6484375 36.578125 C25.79765625 37.01640625 24.946875 37.4546875 24.0703125 37.90625 C22.73613281 38.57140625 22.73613281 38.57140625 21.375 39.25 C20.02921875 39.93835938 20.02921875 39.93835938 18.65625 40.640625 C16.44260556 41.77099663 14.22401557 42.89021179 12 44 C12.58464278 50.59923166 13.42773107 57.09872126 14.5625 63.625 C14.70107422 64.43839844 14.83964844 65.25179687 14.98242188 66.08984375 C15.31857835 68.06041619 15.65884065 70.03028753 16 72 C7.76021406 68.41995507 1.18154067 60.36575877 -5 54 C-5.87140625 54.43570313 -6.7428125 54.87140625 -7.640625 55.3203125 C-15.42708333 59.21354167 -23.21354167 63.10677083 -31 67 C-30.31859429 63.77042572 -29.16273298 61.0471318 -27.71484375 58.0859375 C-27.26689453 57.16039062 -26.81894531 56.23484375 -26.35742188 55.28125 C-25.4069731 53.33590229 -24.45645168 51.39059007 -23.50585938 49.4453125 C-23.05919922 48.52234375 -22.61253906 47.599375 -22.15234375 46.6484375 C-21.73976318 45.80458496 -21.32718262 44.96073242 -20.90209961 44.09130859 C-19.86797376 42.07352392 -19.86797376 42.07352392 -20 40 C-21.51719983 38.46542633 -21.51719983 38.46542633 -23.5 36.875 C-27.28945551 33.6643956 -30.78410779 30.2654952 -34.23828125 26.69921875 C-36.09309306 24.80910864 -36.09309306 24.80910864 -39 23 C-39 22.34 -39 21.68 -39 21 C-29.55636393 21.54537716 -20.34561968 22.53708385 -11 24 C-10.75378906 23.19175781 -10.50757813 22.38351563 -10.25390625 21.55078125 C-8.74749305 17.28495696 -6.88201791 13.26785691 -4.9375 9.1875 C-4.57333984 8.41212891 -4.20917969 7.63675781 -3.83398438 6.83789062 C-1.13446065 1.13446065 -1.13446065 1.13446065 0 0 Z " fill="#FEFEFE" transform="translate(374,108)"/>
</svg>
