<?xml version="1.0" encoding="UTF-8"?>
<svg version="1.1" xmlns="http://www.w3.org/2000/svg" width="768" height="217">
<path d="M0 0 C14.19 0 28.38 0 43 0 C45.37518563 5.93796408 47.63196764 11.65312423 49.60961914 17.69360352 C49.83947006 18.3926178 50.06932098 19.09163208 50.30613708 19.81182861 C51.05219369 22.08320056 51.79370872 24.35602606 52.53515625 26.62890625 C53.06004916 28.22982608 53.58523667 29.83064935 54.11070251 31.43138123 C55.48507536 35.62068428 56.85561696 39.81123057 58.22528076 44.0020752 C59.61476377 48.25146006 61.00765974 52.49972561 62.40039062 56.74804688 C63.96923922 61.53393601 65.53778559 66.31992133 67.10353088 71.10682678 C67.34279297 71.83812302 67.58205505 72.56941925 67.8285675 73.32287598 C68.47090516 75.28640233 69.11297373 77.2500167 69.75502014 79.21363831 C71.15776336 83.47980628 72.57986347 87.7395904 74 92 C79.94 71.87 85.88 51.74 92 31 C101.9 31 111.8 31 122 31 C123.21558594 35.24746094 124.43117188 39.49492188 125.68359375 43.87109375 C126.65238297 47.24924131 127.62183133 50.62719814 128.59172821 54.00502777 C129.61665987 57.57521039 130.6404165 61.14572053 131.66137695 64.71704102 C132.64406467 68.1543148 133.62992538 71.5906636 134.61802864 75.02638435 C134.9951591 76.33982714 135.37112906 77.6536037 135.74593925 78.96771049 C136.26956364 80.80282969 136.79763381 82.6366786 137.32592773 84.47045898 C137.6257103 85.51636703 137.92549286 86.56227509 138.23435974 87.63987732 C138.78031907 89.93178698 138.78031907 89.93178698 140 91 C140.19822861 90.29256149 140.39645721 89.58512299 140.60069275 88.85624695 C142.46859929 82.19056078 144.33720938 75.52507221 146.20661068 68.85980511 C147.16767034 65.43309416 148.12845744 62.00630728 149.08862305 58.5793457 C150.19238664 54.6399093 151.29733311 50.70080554 152.40234375 46.76171875 C152.91957253 44.9147364 152.91957253 44.9147364 153.44725037 43.03044128 C153.92763512 41.31900688 153.92763512 41.31900688 154.41772461 39.57299805 C154.69974228 38.567061 154.98175995 37.56112396 155.27232361 36.52470398 C155.80669975 34.67066338 156.38983409 32.83049774 157 31 C172.18 31 187.36 31 203 31 C201.10106234 37.32979219 199.17300272 43.57519694 196.98828125 49.80078125 C196.70306107 50.61883743 196.41784088 51.43689362 196.12397766 52.27973938 C195.18920378 54.95816662 194.25101957 57.63538316 193.3125 60.3125 C192.64953979 62.20815762 191.98661735 64.10382845 191.32373047 65.99951172 C181.03664848 95.38749137 170.57993753 124.71624435 160 154 C148.45 154 136.9 154 125 154 C119.06 134.2 113.12 114.4 107 94 C104.46484829 100.75112585 104.46484829 100.75112585 102.29833984 107.57397461 C102.00148285 108.59120102 101.70462585 109.60842743 101.39877319 110.65647888 C101.08928741 111.72761429 100.77980164 112.79874969 100.4609375 113.90234375 C100.13461334 115.02065079 99.80828918 116.13895782 99.47207642 117.29115295 C98.08321614 122.05091843 96.70147221 126.81274133 95.31933594 131.57446289 C94.30665175 135.05952427 93.29016889 138.54346138 92.2734375 142.02734375 C91.95990326 143.11264877 91.64636902 144.1979538 91.32333374 145.31614685 C91.03278107 146.31130814 90.74222839 147.30646942 90.44287109 148.33178711 C90.18766693 149.21144638 89.93246277 150.09110565 89.66952515 150.99742126 C89 153 89 153 88 154 C85.47905924 154.08847743 82.98569107 154.11527301 80.46484375 154.09765625 C79.33496788 154.09553383 79.33496788 154.09553383 78.18226624 154.09336853 C75.7673044 154.08775376 73.35243399 154.07519883 70.9375 154.0625 C69.30403779 154.0574869 67.67057414 154.05292366 66.03710938 154.04882812 C62.02470415 154.03777954 58.01236759 154.02050506 54 154 C46.66954834 134.47681946 39.74765081 114.81299869 32.875 95.125 C32.65021091 94.48107552 32.42542183 93.83715103 32.19382095 93.17371368 C31.73820192 91.86853131 31.28259135 90.56334599 30.82698917 89.25815773 C29.68426304 85.9845617 28.54140881 82.71101043 27.3984375 79.4375 C27.17208555 78.78915569 26.9457336 78.14081139 26.71252251 77.47282028 C22.01170727 64.01055007 17.26543861 50.56452385 12.5 37.125 C12.15096619 36.14033752 11.80193237 35.15567505 11.44232178 34.14117432 C10.45154565 31.34657316 9.4602253 28.55216566 8.46875 25.7578125 C8.16583038 24.90333527 7.86291077 24.04885803 7.55081177 23.16848755 C6.18740623 19.3264542 4.81729308 15.48722524 3.42578125 11.65527344 C3.1879895 10.99816376 2.95019775 10.34105408 2.7052002 9.66403198 C2.0827573 7.94678972 1.45658527 6.23090038 0.83007812 4.51513672 C0 2 0 2 0 0 Z " fill="#000000" transform="translate(323,13)"/>
<path d="M0 0 C14.52 0 29.04 0 44 0 C44 14.52 44 29.04 44 44 C46.64 43.34 49.28 42.68 52 42 C68.73694107 39.58623707 86.1589754 40.67573565 100.3125 50.875 C101.55948912 51.89526383 102.78941738 52.93679266 104 54 C104.59296875 54.50015625 105.1859375 55.0003125 105.796875 55.515625 C116.1532083 64.95546863 122.23455517 79.71892689 123.17700195 93.60864258 C123.65574003 115.37310534 122.20655782 135.2784088 106.27734375 151.94140625 C91.07299013 165.68530737 72.80680231 169.42148169 52.9375 169.3125 C52.25024841 169.31067719 51.56299683 169.30885437 50.85491943 169.30697632 C32.96234614 169.22705925 16.93570368 165.64523456 0 160 C0 107.2 0 54.4 0 0 Z M44 77 C44 96.14 44 115.28 44 135 C51.1265627 137.3755209 59.65256531 137.10583796 66.5 134 C72.41217011 130.50512112 75.83399222 126.46698891 78.02734375 119.9453125 C81.13197624 107.78430967 81.16760801 95.90408416 75.1875 84.5625 C70.65400428 79.25183359 66.03755035 75.33979384 58.84375 74.734375 C57.7403125 74.73953125 56.636875 74.7446875 55.5 74.75 C54.3965625 74.74484375 53.293125 74.7396875 52.15625 74.734375 C48.5957782 74.8792108 48.5957782 74.8792108 44 77 Z " fill="#000000" transform="translate(0,0)"/>
<path d="M0 0 C15.84 0 31.68 0 48 0 C52.5 11.25 52.5 11.25 54.29003906 16.45947266 C54.69015198 17.61992096 55.09026489 18.78036926 55.50250244 19.97598267 C56.12774811 21.80158218 56.12774811 21.80158218 56.765625 23.6640625 C57.20809556 24.95021927 57.65078757 26.23629988 58.09368896 27.52230835 C59.2466244 30.87186703 60.39659225 34.2224368 61.54589844 37.57324219 C62.72408496 41.00648752 63.90513965 44.43874585 65.0859375 47.87109375 C67.39339815 54.57977784 69.69771828 61.28953666 72 68 C72.33620361 67.04150146 72.67240723 66.08300293 73.01879883 65.09545898 C80.63634221 43.38157593 88.29301379 21.68232121 96 0 C111.18 0 126.36 0 142 0 C138.62512803 10.12461591 138.62512803 10.12461591 137.21679688 13.43847656 C136.73740913 14.57365471 136.73740913 14.57365471 136.24833679 15.73176575 C135.90857315 16.5266893 135.56880951 17.32161285 135.21875 18.140625 C134.85308426 19.00398972 134.48741852 19.86735443 134.110672 20.75688171 C132.91025336 23.58926425 131.70509853 26.41960586 130.5 29.25 C129.64961854 31.25448379 128.7996089 33.25912535 127.94995117 35.26391602 C126.18341495 39.43128062 124.41528135 43.59796197 122.64599609 47.76416016 C118.9169386 56.54829491 115.20653072 65.34029261 111.49642944 74.13244629 C110.31373219 76.93458061 109.13024091 79.73637833 107.9465332 82.53808594 C104.10738919 91.62642978 100.27632523 100.7180618 96.4609375 109.81640625 C95.7327009 111.55152831 95.00443006 113.28663601 94.27612305 115.02172852 C92.93131873 118.22559652 91.58940114 121.4306506 90.24926758 124.63647461 C74.51009547 162.19776817 74.51009547 162.19776817 60.5546875 168.57421875 C41.58352438 175.60281315 22.4816306 173.71373142 4 166 C4.92530787 159.53421672 7.09727466 153.78185689 9.375 147.6875 C9.77460937 146.57826172 10.17421875 145.46902344 10.5859375 144.32617188 C10.9778125 143.27365234 11.3696875 142.22113281 11.7734375 141.13671875 C12.30590088 139.69365356 12.30590088 139.69365356 12.84912109 138.22143555 C14 136 14 136 17 135 C19.12890625 135.77734375 19.12890625 135.77734375 21.5625 136.9375 C27.37823102 139.39832908 32.87161666 140.09772043 39.02734375 138.4609375 C42.2149334 136.10022754 43.50474068 132.77337598 45.1875 129.25 C45.54263672 128.54617187 45.89777344 127.84234375 46.26367188 127.1171875 C49.67063018 120.42839773 49.67063018 120.42839773 49.46876526 113.13052368 C48.58181587 110.9325843 47.59984687 108.8047591 46.57421875 106.66796875 C46.20002304 105.85573853 45.82582733 105.0435083 45.44029236 104.20666504 C44.62838509 102.44857565 43.80949396 100.69369832 42.98443604 98.94174194 C41.21924181 95.19308215 39.48748467 91.42930159 37.75384521 87.66596985 C36.85208804 85.70904618 35.94862285 83.75290873 35.04351807 81.79753113 C30.43175338 71.82117508 26.01608457 61.76247031 21.625 51.6875 C20.15234846 48.31322996 18.67838242 44.93953779 17.203125 41.56640625 C16.84985641 40.75853165 16.49658783 39.95065704 16.13261414 39.11830139 C13.78436462 33.75963906 11.39847657 28.41914037 8.984375 23.08984375 C8.51775955 22.05820351 8.51775955 22.05820351 8.04171753 21.00572205 C6.60396463 17.82927617 5.16008336 14.65586447 3.70556641 11.48706055 C3.21233887 10.40078369 2.71911133 9.31450684 2.2109375 8.1953125 C1.78087402 7.25703613 1.35081055 6.31875977 0.90771484 5.35205078 C0 3 0 3 0 0 Z " fill="#000000" transform="translate(626,44)"/>
<path d="M0 0 C14.64137867 15.5491907 17.8125 37.13713663 17.8125 57.625 C-8.2575 57.625 -34.3275 57.625 -61.1875 57.625 C-58.11126394 69.19693748 -58.11126394 69.19693748 -49.8125 76.5 C-42.73577049 79.72999914 -34.98211202 79.93706268 -27.50390625 77.890625 C-22.4692139 75.81901466 -16.6958242 72.64164841 -14.1875 67.625 C-8.98660815 69.19336233 -5.38986493 72.50413009 -1.3125 75.9375 C3.60654627 80.0429044 8.55134659 83.96417132 13.8125 87.625 C12.33599838 94.48859266 6.14380227 98.86466917 0.625 102.8125 C-16.11052836 113.38382342 -38.48969379 115.40944165 -57.72265625 111.9375 C-61.33487107 111.0409834 -64.71938863 109.97089724 -68.1875 108.625 C-69.22648437 108.22410156 -70.26546875 107.82320313 -71.3359375 107.41015625 C-86.34152969 100.75600547 -95.58945234 89.19384879 -101.52734375 74.25390625 C-107.63184558 55.46246823 -106.23676727 34.58105776 -98.1875 16.625 C-90.65884144 2.18724831 -79.60741403 -7.26244035 -64.1875 -12.1875 C-42.34225659 -18.71034764 -17.32010002 -15.73594453 0 0 Z M-54.95703125 19.390625 C-58.90913074 24.27545843 -59.52074897 26.95799588 -61.1875 33.625 C-48.9775 33.625 -36.7675 33.625 -24.1875 33.625 C-25.30751059 25.78492587 -27.06963092 21.52016414 -32.8125 16.1875 C-40.34896263 11.2293009 -48.85251043 13.29957994 -54.95703125 19.390625 Z " fill="#000000" transform="translate(232.1875,56.375)"/>
<path d="M0 0 C12.56165511 13.09373258 11.97943716 30.35305117 11.87890625 47.34765625 C11.87516936 49.21523384 11.87232559 51.08281341 11.87033081 52.95039368 C11.86274752 57.83130443 11.84314545 62.71209342 11.82092285 67.59295654 C11.79672282 73.46769444 11.78765815 79.34247338 11.77601624 85.21724701 C11.7567173 94.11106149 11.7183579 103.00460954 11.68359375 111.8984375 C-0.85640625 111.8984375 -13.39640625 111.8984375 -26.31640625 111.8984375 C-27.30640625 109.2584375 -28.29640625 106.6184375 -29.31640625 103.8984375 C-30.08082031 104.36894531 -30.84523438 104.83945313 -31.6328125 105.32421875 C-46.0786919 113.7205602 -60.58571841 115.70841636 -76.87890625 111.93359375 C-86.34515918 109.08296076 -93.87510079 103.26695096 -98.59765625 94.52734375 C-103.17000748 84.58247983 -104.23468355 73.38136263 -100.62890625 62.8984375 C-95.59783992 51.1302685 -86.94644532 44.93113571 -75.26953125 39.95703125 C-61.91522142 35.16997045 -46.46438602 33.65353239 -32.31640625 33.8984375 C-32.97651979 29.37616711 -33.71638886 25.77971304 -36.31640625 21.9609375 C-41.82558492 18.17337716 -47.68973985 17.38454556 -54.25390625 18.3984375 C-60.15588798 19.81565902 -65.12744307 22.84805659 -70.31640625 25.8984375 C-71.64640486 26.57173233 -72.97920736 27.23955864 -74.31640625 27.8984375 C-76.54830877 25.52599607 -78.7764155 23.15002104 -81.00390625 20.7734375 C-81.62974609 20.10828125 -82.25558594 19.443125 -82.90039062 18.7578125 C-86.50876764 14.90383914 -89.98175042 10.99183911 -93.31640625 6.8984375 C-90.34444119 -0.4830192 -81.02430894 -4.69172862 -74.1484375 -7.97265625 C-50.60521678 -17.35747113 -19.65446927 -17.8315421 0 0 Z M-57.00390625 62.4609375 C-60.70476518 66.36184286 -60.71322018 69.19142868 -60.66796875 74.41796875 C-60.47922599 77.18321851 -60.47922599 77.18321851 -58.06640625 79.8984375 C-53.15127339 83.47307958 -49.51586915 84.82129975 -43.31640625 83.8984375 C-40.18845054 82.79592041 -37.2605337 81.41936641 -34.31640625 79.8984375 C-33.65640625 79.5684375 -32.99640625 79.2384375 -32.31640625 78.8984375 C-32.31640625 71.6384375 -32.31640625 64.3784375 -32.31640625 56.8984375 C-45.43601491 56.84935911 -45.43601491 56.84935911 -57.00390625 62.4609375 Z " fill="#000000" transform="translate(619.31640625,55.1015625)"/>
<path d="M0 0 C14.85 0 29.7 0 45 0 C45 10.23 45 20.46 45 31 C50.94 31 56.88 31 63 31 C66.00209361 37.97545281 68.77555264 44.96941001 71.3125 52.125 C71.57885254 52.87128662 71.84520508 53.61757324 72.11962891 54.38647461 C74 59.75040909 74 59.75040909 74 62 C64.43 62 54.86 62 45 62 C45.09686705 69.90231222 45.19955838 77.80409159 45.31738281 85.70605469 C45.35678011 88.3948189 45.39136788 91.0835815 45.421875 93.77246094 C45.46748377 97.63495331 45.52548615 101.49708997 45.5859375 105.359375 C45.59748871 106.5636615 45.60903992 107.767948 45.62094116 109.00872803 C45.64081085 110.12958801 45.66068054 111.250448 45.68115234 112.40527344 C45.69447601 113.39122498 45.70779968 114.37717651 45.7215271 115.39300537 C46.00557881 118.05222747 46.64455563 119.71758616 48 122 C53.97201881 122.49766823 58.00633006 121.99617808 63.17578125 118.875 C65 118 65 118 69 118 C70.70600233 121.90886389 72.38652672 125.82817765 74.0625 129.75 C74.54783203 130.86117187 75.03316406 131.97234375 75.53320312 133.1171875 C75.98759766 134.18710938 76.44199219 135.25703125 76.91015625 136.359375 C77.33433838 137.34389648 77.75852051 138.32841797 78.19555664 139.34277344 C79.0422678 142.13961843 79.16321661 143.34863764 78 146 C63.2435171 156.67376702 42.55929515 158.06396529 25.125 155.41015625 C16.40270452 153.17815375 9.46608466 148.40218099 4.56640625 140.765625 C-0.16301203 130.99495867 -0.3182514 120.31889674 -0.4140625 109.6796875 C-0.43281578 108.32633336 -0.45239213 106.97299041 -0.4727478 105.61965942 C-0.5236366 102.09186456 -0.56349082 98.56403197 -0.60089111 95.03607178 C-0.64120525 91.42239381 -0.69217114 87.80886689 -0.7421875 84.1953125 C-0.8384331 77.13031383 -0.92201176 70.06522727 -1 63 C-6.28 62.67 -11.56 62.34 -17 62 C-17 51.77 -17 41.54 -17 31 C-11.39 31 -5.78 31 0 31 C0 20.77 0 10.54 0 0 Z " fill="#000000" transform="translate(265,13)"/>
</svg>
