<?xml version="1.0" encoding="UTF-8"?>
<svg version="1.1" xmlns="http://www.w3.org/2000/svg" width="900" height="900">
<path d="M0 0 C0.13296295 10.23461964 0.2634679 20.46926776 0.39115143 30.7039547 C0.45056289 35.46052927 0.51070436 40.21709186 0.57275391 44.97363281 C0.70322136 55.01613049 0.81952986 65.05851916 0.91113281 75.10145187 C0.96189998 80.30841644 1.04483363 85.51355062 1.15647125 90.71955681 C1.22132388 93.91145949 1.26670902 97.10344723 1.30784607 100.29573441 C1.33156415 101.77767333 1.36408379 103.25950054 1.40589905 104.74103928 C1.46202713 106.76126221 1.48486406 108.78232923 1.50585938 110.80322266 C1.52886108 111.93426422 1.55186279 113.06530579 1.57556152 114.23062134 C1.38562622 115.1445163 1.19569092 116.05841125 1 117 C-0.65886568 118.01288816 -2.32733963 119.01005805 -4 120 C-5.97990305 121.7997921 -7.8740579 123.60877829 -9.75335407 125.50725842 C-10.31459824 126.06619489 -10.8758424 126.62513137 -11.45409396 127.20100531 C-13.33796925 129.07957688 -15.21461194 130.96521068 -17.09138489 132.85087585 C-18.45233263 134.21095161 -19.81371972 135.57058784 -21.17550868 136.92982131 C-24.91983919 140.66967299 -28.65789354 144.41574376 -32.39497173 148.16284049 C-36.42471005 152.20120325 -40.46021364 156.23379744 -44.49502563 160.26708984 C-51.48599464 167.25700936 -58.47328793 174.25058593 -65.4581089 181.24664879 C-75.55703432 191.36181759 -85.6614677 201.4714694 -95.76726063 211.5797765 C-112.16247521 227.97937001 -128.5532253 244.38341741 -144.94116211 260.7902832 C-160.86199076 276.72948007 -176.78491841 292.66657527 -192.71069336 308.60083008 C-193.44702351 309.3375548 -193.44702351 309.3375548 -194.19822901 310.08916286 C-199.12791058 315.02148146 -204.05763486 319.95375737 -208.98739044 324.886002 C-250.33138696 366.25088128 -291.66817329 407.62296072 -333 449 C-331.39574278 452.98498596 -328.61366065 455.6625759 -325.61578941 458.63030624 C-325.05800678 459.19039656 -324.50022415 459.75048688 -323.92553902 460.32754964 C-322.04487778 462.213528 -320.15713472 464.09225546 -318.26937866 465.97113037 C-316.91016583 467.33121492 -315.5513924 468.6917387 -314.19302237 470.052665 C-310.45091406 473.79925752 -306.70257752 477.53956491 -302.95322514 481.27890611 C-298.91416698 485.30934754 -294.88086942 489.34554622 -290.84687805 493.38105774 C-283.85421284 500.37477293 -276.85788776 507.36480962 -269.85908127 514.35237885 C-259.73991979 524.45530358 -249.626269 534.56372998 -239.51396556 544.67351857 C-223.10827066 561.07483349 -206.69812097 577.47168304 -190.28515625 593.86572266 C-174.3391248 609.7933886 -158.39519299 625.72315153 -142.45410156 641.65576172 C-141.96282022 642.14678001 -141.47153888 642.6377983 -140.96537022 643.14369593 C-136.03177201 648.07465713 -131.09821648 653.00566103 -126.16469222 657.93669622 C-84.78291324 699.29758918 -43.39393423 740.6512721 -2 782 C1.11200799 780.61617294 3.22992793 779.01916193 5.63128281 776.61481285 C6.69347286 775.55859594 6.69347286 775.55859594 7.77712131 774.48104131 C8.54755055 773.70478639 9.31797979 772.92853146 10.11175537 772.12875366 C10.93596709 771.30625079 11.76017882 770.48374791 12.60936666 769.63632071 C14.89568923 767.35272453 17.17746338 765.06469315 19.45740342 762.77472782 C21.91727064 760.30622912 24.38290939 757.8435073 26.84785461 755.38008118 C31.11761349 751.11137134 35.38369326 746.83901295 39.64730072 742.56415939 C45.81177596 736.38343474 51.981762 730.20823568 58.15310994 724.03437419 C68.16539691 714.01770924 78.17320879 703.99658547 88.17822266 693.97265625 C97.8975598 684.23496297 107.61899389 674.49937107 117.34326172 664.76660156 C117.94259694 664.1667409 118.54193215 663.56688023 119.15942904 662.94884197 C122.16611042 659.93955054 125.17283313 656.93030041 128.1795764 653.92107081 C153.12613009 628.95378142 178.065428 603.97925517 203 579 C201.63133433 576.1606102 200.339978 574.09144761 198.10202026 571.86151123 C197.51028015 571.26702179 196.91854004 570.67253235 196.30886841 570.06002808 C195.66150726 569.41985748 195.01414612 568.77968689 194.34716797 568.12011719 C193.66412598 567.43678314 192.98108398 566.7534491 192.27734375 566.04940796 C190.02033362 563.79379024 187.7563237 561.54533778 185.4921875 559.296875 C183.92519314 557.73361108 182.35864001 556.16990477 180.79251099 554.60577393 C176.67051858 550.49141555 172.54255516 546.3830988 168.41333008 542.27600098 C164.20032416 538.08345834 159.99297842 533.88524412 155.78515625 529.6875 C147.5289751 521.45276472 139.26647643 513.22439935 131 505 C127.12456055 506.57867949 124.52868231 509.20989272 121.64855957 512.14457703 C120.85749903 512.93836603 120.85749903 512.93836603 120.05045748 513.74819118 C118.28471333 515.52234819 116.52623364 517.30353496 114.76757812 519.0847168 C113.50302582 520.35801851 112.23799414 521.63084429 110.97251892 522.90322876 C108.24865901 525.64357901 105.52779136 528.38685444 102.80906677 531.13229942 C98.51295055 535.4697365 94.20764359 539.79796992 89.9005127 544.12446594 C77.65430441 556.42829311 65.41817302 568.7420815 53.19677734 581.07055664 C46.44669744 587.87961933 39.68777147 594.67977051 32.91892385 601.47017795 C28.63139479 605.77238532 24.35520391 610.08546427 20.08689117 614.40673292 C17.43420239 617.08707248 14.7711842 619.75695536 12.10504341 622.42390823 C10.86708512 623.66645248 9.63345189 624.91332248 8.40441704 626.16469383 C6.73134735 627.86693945 5.04372879 629.55326618 3.35144043 631.2363739 C2.86388794 631.73985483 2.37633546 632.24333577 1.87400866 632.7620737 C0.49565887 634.11399364 0.49565887 634.11399364 -2 636 C-5.35727092 635.66380243 -7.02816527 634.34575537 -9.36578751 632.00335598 C-10.01469649 631.36042015 -10.66360547 630.71748431 -11.33217835 630.05506557 C-12.03646147 629.34204393 -12.7407446 628.62902228 -13.46636963 627.89439392 C-14.22116096 627.14216586 -14.9759523 626.3899378 -15.75361609 625.61491495 C-18.29117776 623.08231056 -20.81784066 620.53910251 -23.34472656 617.99584961 C-25.15745719 616.18227314 -26.97084794 614.36935627 -28.78485107 612.55705261 C-32.69403757 608.64855017 -36.59856846 604.73548783 -40.49897003 600.81822014 C-46.13830985 595.15451057 -51.78590465 589.49909232 -57.43555567 583.84567053 C-66.60126123 574.6733973 -75.76024576 565.49444306 -84.91503906 556.3112793 C-93.80866116 547.39012478 -102.70542524 538.47212312 -111.60644531 529.55834961 C-112.1550016 529.00900515 -112.7035579 528.45966068 -113.26873711 527.89366942 C-116.02067206 525.13781939 -118.77266902 522.38203129 -121.52469683 519.62627399 C-144.35942137 496.76044373 -167.183252 473.88376873 -190 451 C-188.42062836 447.13419846 -185.80306075 444.52709117 -182.88407803 441.64077568 C-182.090907 440.84459252 -182.090907 440.84459252 -181.28171232 440.03232485 C-179.49969552 438.24599967 -177.71060336 436.46693263 -175.92149353 434.68771362 C-174.63311359 433.39917769 -173.34517453 432.1102008 -172.05764014 430.82081997 C-168.51127956 427.27192148 -164.95870218 423.72930313 -161.40511501 420.18764281 C-157.5766605 416.36985908 -153.75397711 412.54630481 -149.93061829 408.72341919 C-143.30293487 402.09810039 -136.67165028 395.47640373 -130.03797722 388.85708237 C-120.44515393 379.28491515 -110.85831258 369.706775 -101.27303047 360.12705697 C-85.72014841 344.58343576 -70.16317009 329.04392134 -54.60327148 313.50732422 C-53.67159299 312.57703904 -52.73991449 311.64675386 -51.78000332 310.68827821 C-50.84713648 309.75680691 -49.91426965 308.82533561 -48.95313412 307.8656379 C-47.06529188 305.98061717 -45.17745069 304.09559539 -43.28961182 302.21057129 C-42.58788405 301.50989121 -42.58788405 301.50989121 -41.87197997 300.79505598 C-31.0024306 289.94169158 -20.1341714 279.08703568 -9.26635742 268.23193359 C-7.87007977 266.83729221 -7.87007977 266.83729221 -6.44559448 265.41447626 C9.05428195 249.9325996 24.55214438 234.44870787 40.04897016 218.96377766 C49.61589809 209.40445537 59.18490226 199.84721975 68.75656807 190.29264142 C75.30943581 183.75131081 81.8606331 177.20831059 88.41049988 170.6639751 C92.19456592 166.88325227 95.97948669 163.10339466 99.76658249 159.32570648 C103.22834999 155.87252343 106.68785411 152.41709009 110.14552205 148.95980228 C111.40165728 147.70463867 112.65865587 146.45033842 113.916569 145.19695662 C115.61665164 143.50276722 117.31367356 141.80557178 119.00991917 140.10754204 C119.75595477 139.3663045 119.75595477 139.3663045 120.5170618 138.61009246 C123.0830083 136.04949383 123.0830083 136.04949383 125 133 C125.99 133 126.98 133 128 133 C128.0268334 140.01903383 128.04343099 147.03805362 128.05493164 154.05712891 C128.05975707 156.41162607 128.0664008 158.76612071 128.07543945 161.12060547 C128.07954834 162.2242041 128.08365723 163.32780273 128.08789062 164.46484375 C128.09361588 165.560849 128.09934113 166.65685425 128.10523987 167.78607178 C128.10028718 170.32379899 128.0662145 172.86168263 127.99917603 175.39852905 C127.80460658 183.585225 128.09892586 191.53785009 128.95596319 199.68716884 C131.37169352 223.81344423 132.50552294 246.26008353 116.75014746 266.0810008 C108.01370963 276.32392193 98.26828616 285.61122306 88.38133653 294.72740939 C82.69633209 299.98089767 77.18940849 305.40815643 71.68312264 310.8476592 C61.86852978 320.53446299 51.93092214 330.08333796 41.90258789 339.54833984 C32.18683082 348.7188895 22.53785532 357.95210862 12.96704102 367.27392578 C12.07581692 368.14189885 12.07581692 368.14189885 11.1665883 369.02740672 C8.18501437 371.93195937 5.2046605 374.83776026 2.22490966 377.74418306 C-22.33094677 401.69261976 -47.09185647 425.41829315 -72 449 C-70.6745976 451.74209153 -69.45404996 453.79480738 -67.2918396 455.94866943 C-66.74217026 456.5010881 -66.19250092 457.05350677 -65.62617493 457.62266541 C-65.02556747 458.21608231 -64.42496002 458.80949921 -63.80615234 459.42089844 C-62.85474113 460.37274773 -62.85474113 460.37274773 -61.8841095 461.34382629 C-59.78942522 463.43711882 -57.68774898 465.5232408 -55.5859375 467.609375 C-54.1310443 469.06053753 -52.67659244 470.51214267 -51.2225647 471.96417236 C-47.39649074 475.78261418 -43.56444838 479.59501149 -39.73114014 483.40618896 C-35.81974796 487.29711379 -31.91401915 491.19371428 -28.0078125 495.08984375 C-20.34407973 502.73213399 -12.67403095 510.36805174 -5 518 C-1.10908381 516.41652098 1.50520791 513.76411882 4.40286255 510.82418823 C5.20216511 510.02533225 5.20216511 510.02533225 6.0176152 509.21033776 C7.80184837 507.42471568 9.57883113 505.63204904 11.35595703 503.83935547 C12.63362922 502.55784508 13.91175743 501.2767892 15.19030762 499.99615479 C17.94216646 497.23797305 20.69088703 494.47671429 23.43725967 491.71306992 C27.77610642 487.34721192 32.12254147 482.98896268 36.47018433 478.63186646 C45.69437368 469.38546784 54.91009784 460.1306528 64.125 450.875 C74.07921158 440.87679233 84.03483481 430.88001606 94.00022018 420.8929435 C98.32610909 416.55706094 102.64706794 412.21634092 106.96438241 407.8719213 C109.64473399 405.17670498 112.3291741 402.48559016 115.01477051 399.79560089 C116.26382128 398.54278993 117.51113403 397.28824352 118.7566185 396.03188705 C120.45024244 394.32394063 122.14982911 392.622164 123.85110474 390.92184448 C124.34837385 390.41738544 124.84564297 389.9129264 125.35798085 389.39318073 C128.77181407 386 128.77181407 386 131 386 C132.29844761 387.31789398 132.29844761 387.31789398 133.86390686 389.23181152 C138.976863 395.23681507 144.59612454 400.72778125 150.17749023 406.29101562 C151.4003971 407.51363996 152.6230829 408.73648543 153.8455658 409.95953369 C157.14446428 413.25871759 160.44642393 416.55482192 163.74896502 419.85035896 C167.20741397 423.30253173 170.66300733 426.75756057 174.11891174 430.21228027 C180.65446035 436.7447281 187.19255257 443.27462389 193.73157507 449.80359411 C201.17977039 457.24058929 208.62510648 464.68044412 216.07021034 472.12053394 C231.3769733 487.41686091 246.68730202 502.70961455 262 518 C264.76369272 516.73552916 266.80626516 515.44254777 268.94866943 513.2918396 C269.5010881 512.74217026 270.05350677 512.19250092 270.62266541 511.62617493 C271.51279076 510.72526375 271.51279076 510.72526375 272.42089844 509.80615234 C273.37274773 508.85474113 273.37274773 508.85474113 274.34382629 507.8841095 C276.43711882 505.78942522 278.5232408 503.68774898 280.609375 501.5859375 C282.06053753 500.1310443 283.51214267 498.67659244 284.96417236 497.2225647 C288.78261418 493.39649074 292.59501149 489.56444838 296.40618896 485.73114014 C300.29711379 481.81974796 304.19371428 477.91401915 308.08984375 474.0078125 C315.73213399 466.34407973 323.36805174 458.67403095 331 451 C329.67264607 448.04445107 328.24468789 446.01245277 325.91893005 443.76589966 C325.28656433 443.14957169 324.65419861 442.53324371 324.00267029 441.89823914 C323.3101265 441.23330948 322.6175827 440.56837982 321.90405273 439.88330078 C320.3906746 438.41259579 318.87736716 436.94181804 317.36412048 435.47097778 C316.56066633 434.69360386 315.75721218 433.91622993 314.92941093 433.11529922 C310.67160679 428.98686002 306.44495669 424.82666489 302.21289062 420.671875 C296.82896592 415.38971656 291.43640045 410.11743154 286.0090332 404.87988281 C281.62105806 400.64375737 277.26594552 396.3761754 272.93065071 392.08617783 C271.27688854 390.46135195 269.61150273 388.84826587 267.93429375 387.24765396 C253.17920409 373.14754217 253.17920409 373.14754217 252.47900391 365.40527344 C252.5682418 363.63697889 252.66332095 361.86768757 252.83812523 360.105793 C253.09995269 356.6997376 252.98308696 353.30336511 252.92905235 349.88998795 C252.85398301 344.55442482 252.8895849 339.21875873 252.90234375 333.8828125 C252.90421233 331.57111644 252.90563415 329.25941999 252.90663147 326.94772339 C252.91042202 320.90788653 252.92022215 314.8680743 252.93133545 308.82824707 C252.9416246 302.64722018 252.94614506 296.46618926 252.95117188 290.28515625 C252.96184802 278.19009344 252.9788821 266.09504878 253 254 C256.03513458 255.35957341 258.14164614 256.88886012 260.49351978 259.23066425 C261.17091263 259.90037481 261.84830547 260.57008536 262.54622537 261.26009017 C263.2823182 261.99791596 264.01841102 262.73574175 264.77680969 263.4959259 C265.56497501 264.27814898 266.35314033 265.06037205 267.16518945 265.86629885 C269.81325843 268.49698044 272.45409049 271.13480832 275.0949707 273.77270508 C276.98839946 275.65687875 278.88220041 277.54067196 280.77641296 279.42405701 C285.92614063 284.54663754 291.06831921 289.67675154 296.20889306 294.80851579 C299.4173227 298.0114199 302.62722385 301.21284647 305.83739281 304.41400719 C314.72229447 313.27453103 323.60530648 322.1369397 332.48141193 331.00627613 C333.04930437 331.57372944 333.61719681 332.14118275 334.20229812 332.72583161 C334.77155119 333.29464813 335.34080426 333.86346464 335.92730743 334.44951802 C337.08084835 335.60217201 338.23439236 336.7548229 339.38793945 337.9074707 C339.96013779 338.47922618 340.53233613 339.05098167 341.12187382 339.64006307 C350.40378572 348.9140708 359.69913536 358.17448413 369.00033317 367.42914537 C378.54561258 376.92705048 388.07965287 386.43611595 397.60244244 395.9565708 C402.95110782 401.30340021 408.30453662 406.64526175 413.67037392 411.97486305 C418.23694946 416.51070825 422.79320349 421.05660729 427.33615408 425.61611942 C429.65560097 427.94340385 431.98125703 430.26382404 434.31695938 432.57481003 C436.84470451 435.07735807 439.35345982 437.59749123 441.85810852 440.12312317 C442.60535496 440.8542568 443.35260139 441.58539042 444.12249166 442.33867961 C444.78684576 443.01621341 445.45119987 443.6937472 446.13568592 444.39181232 C446.71714778 444.97208 447.29860963 445.55234769 447.89769155 446.15019923 C449 448 449 448 448.76886338 450.61223048 C447.93162897 453.21233196 447.16096028 454.35767019 445 456 C444.34 456 443.68 456 443 456 C442.773125 456.556875 442.54625 457.11375 442.3125 457.6875 C440.62449964 460.66159588 438.53323483 462.72008865 436 465 C435.34 465 434.68 465 434 465 C433.773125 465.55171875 433.54625 466.1034375 433.3125 466.671875 C431.61274074 469.68692417 429.45195184 471.81230369 427 474.25 C426.113125 475.14203125 425.22625 476.0340625 424.3125 476.953125 C422 479 422 479 420 479 C419.773125 479.556875 419.54625 480.11375 419.3125 480.6875 C417.62449964 483.66159588 415.53323483 485.72008865 413 488 C412.34 488 411.68 488 411 488 C410.773125 488.55171875 410.54625 489.1034375 410.3125 489.671875 C408.61274074 492.68692417 406.45195184 494.81230369 404 497.25 C403.113125 498.14203125 402.22625 499.0340625 401.3125 499.953125 C399 502 399 502 397 502 C396.773125 502.556875 396.54625 503.11375 396.3125 503.6875 C394.62449964 506.66159588 392.53323483 508.72008865 390 511 C389.34 511 388.68 511 388 511 C387.731875 511.639375 387.46375 512.27875 387.1875 512.9375 C386 515 386 515 383 516 C382.71125 516.5775 382.4225 517.155 382.125 517.75 C380.60387378 520.79225245 378.51286104 522.73842507 376 525 C375.34 525 374.68 525 374 525 C373.773125 525.55171875 373.54625 526.1034375 373.3125 526.671875 C371.61274074 529.68692417 369.45195184 531.81230369 367 534.25 C366.113125 535.14203125 365.22625 536.0340625 364.3125 536.953125 C362 539 362 539 360 539 C359.773125 539.556875 359.54625 540.11375 359.3125 540.6875 C357.62449964 543.66159588 355.53323483 545.72008865 353 548 C352.34 548 351.68 548 351 548 C350.773125 548.55171875 350.54625 549.1034375 350.3125 549.671875 C348.61274074 552.68692417 346.45195184 554.81230369 344 557.25 C343.113125 558.14203125 342.22625 559.0340625 341.3125 559.953125 C339 562 339 562 337 562 C336.773125 562.556875 336.54625 563.11375 336.3125 563.6875 C334.62449964 566.66159588 332.53323483 568.72008865 330 571 C329.34 571 328.68 571 328 571 C327.731875 571.639375 327.46375 572.27875 327.1875 572.9375 C326 575 326 575 323 576 C322.71125 576.5775 322.4225 577.155 322.125 577.75 C320.60387378 580.79225245 318.51286104 582.73842507 316 585 C315.34 585 314.68 585 314 585 C313.773125 585.55171875 313.54625 586.1034375 313.3125 586.671875 C311.61274074 589.68692417 309.45195184 591.81230369 307 594.25 C306.113125 595.14203125 305.22625 596.0340625 304.3125 596.953125 C302 599 302 599 300 599 C299.773125 599.556875 299.54625 600.11375 299.3125 600.6875 C297.62449964 603.66159588 295.53323483 605.72008865 293 608 C292.34 608 291.68 608 291 608 C290.773125 608.55171875 290.54625 609.1034375 290.3125 609.671875 C288.61274074 612.68692417 286.45195184 614.81230369 284 617.25 C283.113125 618.14203125 282.22625 619.0340625 281.3125 619.953125 C279 622 279 622 277 622 C276.773125 622.556875 276.54625 623.11375 276.3125 623.6875 C274.62449964 626.66159588 272.53323483 628.72008865 270 631 C269.34 631 268.68 631 268 631 C267.7525 631.639375 267.505 632.27875 267.25 632.9375 C266 635 266 635 264.2600708 635.93162537 C262 636 262 636 259.46893311 634.07020569 C258.49601409 633.11188818 257.5370046 632.1393366 256.58886719 631.15649414 C256.05312702 630.62135665 255.51738686 630.08621916 254.96541214 629.53486538 C253.2306444 627.79635967 251.51372526 626.04134001 249.796875 624.28515625 C248.72981334 623.21074499 247.66162342 622.13745305 246.59228516 621.06530762 C242.63115237 617.07793934 238.6919009 613.06888191 234.75 609.0625 C225.9225 600.131875 217.095 591.20125 208 582 C207.67 618.96 207.34 655.92 207 694 C205.68 694.66 204.36 695.32 203 696 C202.31513275 697.32407669 201.65129797 698.65909241 201 700 C198.5 702.75 198.5 702.75 196 705 C195.34 705 194.68 705 194 705 C193.773125 705.55171875 193.54625 706.1034375 193.3125 706.671875 C191.61274074 709.68692417 189.45195184 711.81230369 187 714.25 C186.113125 715.14203125 185.22625 716.0340625 184.3125 716.953125 C182 719 182 719 180 719 C179.773125 719.556875 179.54625 720.11375 179.3125 720.6875 C177.62449964 723.66159588 175.53323483 725.72008865 173 728 C172.34 728 171.68 728 171 728 C170.773125 728.55171875 170.54625 729.1034375 170.3125 729.671875 C168.61274074 732.68692417 166.45195184 734.81230369 164 737.25 C163.113125 738.14203125 162.22625 739.0340625 161.3125 739.953125 C159 742 159 742 157 742 C156.773125 742.556875 156.54625 743.11375 156.3125 743.6875 C154.62449964 746.66159588 152.53323483 748.72008865 150 751 C149.34 751 148.68 751 148 751 C147.731875 751.639375 147.46375 752.27875 147.1875 752.9375 C146 755 146 755 143 756 C142.71125 756.5775 142.4225 757.155 142.125 757.75 C140.60387378 760.79225245 138.51286104 762.73842507 136 765 C135.34 765 134.68 765 134 765 C133.773125 765.55171875 133.54625 766.1034375 133.3125 766.671875 C131.61274074 769.68692417 129.45195184 771.81230369 127 774.25 C126.113125 775.14203125 125.22625 776.0340625 124.3125 776.953125 C122 779 122 779 120 779 C119.773125 779.556875 119.54625 780.11375 119.3125 780.6875 C117.62449964 783.66159588 115.53323483 785.72008865 113 788 C112.34 788 111.68 788 111 788 C110.773125 788.55171875 110.54625 789.1034375 110.3125 789.671875 C108.61274074 792.68692417 106.45195184 794.81230369 104 797.25 C103.113125 798.14203125 102.22625 799.0340625 101.3125 799.953125 C99 802 99 802 97 802 C96.773125 802.556875 96.54625 803.11375 96.3125 803.6875 C94.62449964 806.66159588 92.53323483 808.72008865 90 811 C89.34 811 88.68 811 88 811 C87.731875 811.639375 87.46375 812.27875 87.1875 812.9375 C86 815 86 815 83 816 C82.71125 816.5775 82.4225 817.155 82.125 817.75 C80.60387378 820.79225245 78.51286104 822.73842507 76 825 C75.34 825 74.68 825 74 825 C73.773125 825.55171875 73.54625 826.1034375 73.3125 826.671875 C71.61274074 829.68692417 69.45195184 831.81230369 67 834.25 C66.113125 835.14203125 65.22625 836.0340625 64.3125 836.953125 C62 839 62 839 60 839 C59.6596875 839.8353125 59.6596875 839.8353125 59.3125 840.6875 C57.62449964 843.66159588 55.53323483 845.72008865 53 848 C52.34 848 51.68 848 51 848 C50.773125 848.55171875 50.54625 849.1034375 50.3125 849.671875 C48.61274074 852.68692417 46.45195184 854.81230369 44 857.25 C43.113125 858.14203125 42.22625 859.0340625 41.3125 859.953125 C39 862 39 862 37 862 C36.6596875 862.8353125 36.6596875 862.8353125 36.3125 863.6875 C34.62449964 866.66159588 32.53323483 868.72008865 30 871 C29.34 871 28.68 871 28 871 C27.5978125 871.9590625 27.5978125 871.9590625 27.1875 872.9375 C26 875 26 875 23 876 C22.71125 876.5775 22.4225 877.155 22.125 877.75 C20.60387378 880.79225245 18.51286104 882.73842507 16 885 C15.34 885 14.68 885 14 885 C13.77957031 885.54011719 13.55914062 886.08023438 13.33203125 886.63671875 C11.55353346 889.79211806 9.20247903 892.24408184 6.6875 894.8125 C6.21376953 895.32748047 5.74003906 895.84246094 5.25195312 896.37304688 C3.82421875 897.83203125 3.82421875 897.83203125 1 900 C-2.82158649 899.72336669 -4.81030628 898.68993857 -7.48832023 896.01537776 C-8.4666655 895.05282228 -8.4666655 895.05282228 -9.46477532 894.07082123 C-10.16906852 893.35773506 -10.87336171 892.6446489 -11.59899712 891.90995407 C-12.35976897 891.15559517 -13.12054083 890.40123627 -13.90436637 889.62401801 C-16.47178996 887.07330407 -19.02462989 884.5084679 -21.57785034 881.94354248 C-23.42581964 880.10160954 -25.27465731 878.26054746 -27.12429154 876.42028642 C-31.15491909 872.40721382 -35.17800943 868.38670583 -39.19629478 864.36127663 C-45.17147435 858.3755021 -51.15797799 852.40115057 -57.14675402 846.42898326 C-68.46273545 835.14352171 -79.76511772 823.84450573 -91.06338124 812.54130998 C-99.78524529 803.81578444 -108.51068582 795.09385009 -117.23868179 786.37445831 C-118.49140798 785.12293691 -119.74413298 783.87141431 -120.99685679 782.61989053 C-122.88444433 780.73411743 -124.77203331 778.84834578 -126.65963008 776.96258193 C-144.21437418 759.42470256 -161.76501396 741.88272444 -179.30715752 724.33224106 C-179.96879119 723.67029463 -180.63042487 723.0083482 -181.31210805 722.32634279 C-184.66573136 718.97110785 -188.01931471 715.61583296 -191.37288211 712.26054212 C-192.03894564 711.59413642 -192.70500917 710.92773072 -193.39125644 710.2411309 C-194.73819793 708.89349611 -196.08513754 707.54585944 -197.43207527 706.1982209 C-218.39939406 685.22018317 -239.37996824 664.25548487 -260.37109375 643.30126953 C-283.93885891 619.77489645 -307.49665339 596.23860475 -331.03970921 572.6875031 C-333.5478475 570.17857408 -336.05601961 567.66967888 -338.5642128 565.16080475 C-339.18181599 564.5430201 -339.79941917 563.92523545 -340.43573761 563.28873005 C-349.77596534 553.94616636 -359.12400023 544.61146225 -368.47597885 535.28066254 C-379.10527965 524.67540837 -389.72412001 514.05980959 -400.32896404 503.43009701 C-406.26967429 497.47608143 -412.21860907 491.53056693 -418.1794921 485.59674598 C-422.61933529 481.17522248 -427.04349063 476.73831964 -431.46152867 472.29501382 C-433.25892372 470.49227193 -435.0614828 468.69466225 -436.86947034 466.90254387 C-439.31233387 464.47965226 -441.73626914 462.03932246 -444.15604973 459.59341049 C-445.23356001 458.53782825 -445.23356001 458.53782825 -446.33283818 457.46092111 C-447.28865178 456.48334451 -447.28865178 456.48334451 -448.26377475 455.4860189 C-449.09901074 454.65084429 -449.09901074 454.65084429 -449.95112019 453.79879747 C-451 452 -451 452 -450.8576968 449.50007192 C-449.93012877 446.79633467 -449.0202378 445.52016226 -447.01307642 443.51283044 C-446.37086032 442.86085648 -445.72864421 442.20888253 -445.06696701 441.53715178 C-444.35330915 440.83314444 -443.6396513 440.1291371 -442.90436745 439.4037962 C-442.14940935 438.64332394 -441.39445126 437.88285168 -440.61661565 437.09933481 C-438.06387798 434.53291444 -435.49702153 431.98109107 -432.93008423 429.42887878 C-431.08672208 427.58162696 -429.24423472 425.73350186 -427.40255201 423.88457566 C-423.38639747 419.85549227 -419.36283008 415.83393175 -415.33436012 411.81716347 C-409.34410019 405.84425629 -403.36528922 399.859987 -397.38873412 393.87337055 C-386.71605638 383.18348012 -376.03201066 372.50500889 -365.3432294 361.83122302 C-355.99043953 352.49147029 -346.64157041 343.14781461 -337.29658127 333.80025673 C-336.67738837 333.18090342 -336.05819547 332.5615501 -335.42023916 331.92342851 C-332.90693629 329.40946209 -330.39365286 326.89547625 -327.88039791 324.38146192 C-304.29206506 300.78610097 -280.6924791 277.20202448 -257.08756514 253.62325261 C-236.0999865 232.65879426 -215.12129434 211.6854839 -194.15039062 190.7043457 C-188.78005183 185.33140506 -183.40970459 179.95847285 -178.0392704 174.58562756 C-177.37817845 173.92423816 -176.7170865 173.26284876 -176.03596146 172.58141726 C-158.52915266 155.06700025 -141.01534148 137.55958846 -123.49932611 120.05437928 C-121.61549973 118.17170075 -119.73167568 116.28901988 -117.84785531 114.40633531 C-116.59809773 113.15733298 -115.34833495 111.90833585 -114.09856694 110.65934395 C-104.75257236 101.31901649 -95.41008811 91.9751876 -86.06920242 82.62975121 C-75.45319094 72.00864142 -64.83174639 61.39299812 -54.20309426 50.78453734 C-48.2490449 44.84150707 -42.2991728 38.89436521 -36.35515089 32.94130544 C-31.92739127 28.50774252 -27.49189664 24.08199807 -23.05321603 19.65937022 C-21.25044814 17.86067492 -19.45024876 16.05940118 -17.65277751 14.25541284 C-15.22442455 11.81900479 -12.78718397 9.3918651 -10.34731483 6.9669981 C-9.63833931 6.25128493 -8.92936379 5.53557175 -8.19890416 4.7981703 C-7.55168101 4.15871394 -6.90445787 3.51925757 -6.2376219 2.86042374 C-5.68052687 2.30375573 -5.12343184 1.74708772 -4.54945514 1.17355097 C-3 0 -3 0 0 0 Z " fill="#F42535" transform="translate(451,0)"/>
</svg>
