<?xml version="1.0" encoding="UTF-8"?>
<svg version="1.1" xmlns="http://www.w3.org/2000/svg" width="900" height="284">
<path d="M0 0 C2.86196052 -0.00072465 5.7239166 -0.00288463 8.58587599 -0.00549722 C18.67189403 -0.01467346 28.75789911 -0.01884214 38.84392118 -0.01804566 C47.06236556 -0.01751364 55.28076234 -0.02456915 63.49919462 -0.03855348 C150.54459592 -0.18323539 150.54459592 -0.18323539 188.29043913 2.03528762 C192.00888805 2.24922935 195.72865362 2.43649719 199.44841337 2.6259973 C207.43350772 3.03842791 215.41512902 3.50323252 223.39665556 3.97975707 C224.8150742 4.06337669 226.23350091 4.14685942 227.6519351 4.23021483 C250.7312675 5.58811055 273.80392357 7.05065283 296.87303114 8.57191634 C299.21871053 8.72627304 301.56446297 8.8794718 303.91023588 9.03239989 C320.40629896 10.1104274 336.8857097 11.30789966 353.35368681 12.75710082 C354.07802097 12.82049714 354.80235514 12.88389346 355.54863882 12.94921088 C357.60084198 13.1298766 359.65273058 13.31370968 361.70451689 13.49904418 C362.86751814 13.60397689 364.03051939 13.7089096 365.2287631 13.81702209 C368.6964823 14.17898171 372.13607108 14.65259023 375.58415556 15.16725707 C375.58415556 16.15725707 375.58415556 17.14725707 375.58415556 18.16725707 C361.0696687 18.35781926 346.67584865 17.85381206 332.18779325 16.99922729 C301.19244691 15.18763055 270.18540072 14.09400935 239.14989042 13.2629602 C235.81004415 13.17331984 232.47029406 13.08065108 229.13054228 12.98756957 C168.32560992 11.32857642 107.25961287 11.19679634 46.45878935 13.07869506 C43.45737218 13.17116303 40.45583662 13.25888955 37.45427275 13.34645629 C-10.32579536 14.77018034 -58.07062676 17.7242441 -105.60004854 22.86324096 C-108.66175534 23.1938076 -111.72384252 23.52070848 -114.78596163 23.84743285 C-248.5601358 35.475723 -248.5601358 35.475723 -383.41584444 88.16725707 C-385.86631038 92.06676014 -387.29784171 95.69524613 -388.41584444 100.16725707 C-378.51584444 100.16725707 -368.61584444 100.16725707 -358.41584444 100.16725707 C-358.41584444 100.82725707 -358.41584444 101.48725707 -358.41584444 102.16725707 C-357.60276072 101.95531707 -357.60276072 101.95531707 -356.77325106 101.73909545 C-351.14598875 100.36725634 -345.91763733 99.87228097 -340.13850069 99.90163207 C-338.86141489 99.89876189 -338.86141489 99.89876189 -337.55852938 99.89583373 C-335.77113722 99.89448243 -333.9837349 99.89810448 -332.19636202 99.90651488 C-329.48869527 99.91721616 -326.78169387 99.90659033 -324.07404757 99.89381957 C-302.94253963 99.8726445 -302.94253963 99.8726445 -296.97834444 103.75319457 C-296.46271944 104.3435852 -295.94709444 104.93397582 -295.41584444 105.54225707 C-294.61146944 106.42010863 -294.61146944 106.42010863 -293.79084444 107.31569457 C-292.39956434 109.1891797 -291.38623708 111.04918851 -290.41584444 113.16725707 C-289.7777585 112.31260863 -289.13967257 111.4579602 -288.48225069 110.57741332 C-287.64765737 109.46149642 -286.81301966 108.34561271 -285.97834444 107.22975707 C-285.55746553 106.66579223 -285.13658663 106.10182738 -284.70295382 105.5207727 C-281.52912569 101.28053832 -281.52912569 101.28053832 -280.41584444 100.16725707 C-310.11584444 99.67225707 -310.11584444 99.67225707 -340.41584444 99.16725707 C-340.41584444 98.17725707 -340.41584444 97.18725707 -340.41584444 96.16725707 C-290.05579368 94.29176788 -239.69411557 93.94201966 -189.30507684 93.92159581 C-183.50582822 93.91907441 -177.70660148 93.91162103 -171.90736055 93.90212035 C-137.05164411 93.84923705 -102.22346334 94.07938944 -67.38068819 95.08522582 C-66.66023451 95.10573217 -65.93978083 95.12623853 -65.19749522 95.14736629 C-46.00068357 95.69555582 -26.83518614 96.55833426 -7.66584444 97.72975707 C8.36967473 98.69695445 24.33861988 99.28544826 40.40056181 99.40553832 C41.67550442 99.41617781 41.67550442 99.41617781 42.97620344 99.42703223 C51.45760351 99.49771067 59.93808704 99.55022629 68.41979647 99.52796626 C71.56216826 99.52404511 74.70425524 99.53944936 77.84655905 99.55907798 C79.31987401 99.56345752 80.79324612 99.55878989 82.2665 99.5446775 C84.29067614 99.52581607 86.31507915 99.53976979 88.33928251 99.55544066 C89.47831526 99.55305388 90.617348 99.5506671 91.79089689 99.548208 C94.58415556 100.16725707 94.58415556 100.16725707 96.30038786 102.65031981 C96.7240312 103.48090911 97.14767454 104.3114984 97.58415556 105.16725707 C100.40579507 106.17967709 100.40579507 106.17967709 103.64665556 106.29225707 C104.71013212 106.3979602 105.77360868 106.50366332 106.86931181 106.61256957 C110.54931044 106.17143409 112.03886538 105.47033865 115.16618681 103.67897582 C121.43261564 100.32359179 127.24466276 100.60242037 134.20915556 100.85475707 C135.4041165 100.87731566 136.59907743 100.89987426 137.83024931 100.92311645 C140.74956545 100.98150277 143.66616585 101.06334006 146.58415556 101.16725707 C146.91415556 102.81725707 147.24415556 104.46725707 147.58415556 106.16725707 C148.24415556 106.16725707 148.90415556 106.16725707 149.58415556 106.16725707 C149.89353056 105.54850707 150.20290556 104.92975707 150.52165556 104.29225707 C151.20915556 102.91725707 151.89665556 101.54225707 152.58415556 100.16725707 C203.07415556 100.16725707 253.56415556 100.16725707 305.58415556 100.16725707 C304.17389472 102.98777875 303.07573121 104.99857034 301.20134306 107.40163207 C300.7566165 107.97526488 300.31188993 108.5488977 299.85368681 109.13991332 C299.3934915 109.72643676 298.93329618 110.3129602 298.45915556 110.91725707 C297.99122587 111.51924926 297.52329618 112.12124145 297.04118681 112.74147582 C295.89190549 114.21912323 294.73844321 115.69351712 293.58415556 117.16725707 C297.44926151 117.88248228 300.7386918 118.06915708 304.58415556 117.16725707 C308.98188586 113.31261997 312.17038583 108.52754661 315.16350126 103.53053832 C318.5737572 100.20111044 321.76635435 100.4382913 326.28728056 100.46022582 C327.12507048 100.44510451 327.96286039 100.42998321 328.82603788 100.41440368 C331.49568358 100.37149699 334.16419929 100.36268621 336.83415556 100.35475707 C338.64668566 100.33161495 340.45918885 100.3062502 342.27165556 100.2785852 C346.70925557 100.21570391 351.1461493 100.18339182 355.58415556 100.16725707 C353.39951694 104.67258412 350.94143216 108.56721774 347.83415556 112.47975707 C347.38950956 113.0473474 346.94486357 113.61493773 346.48674345 114.19972777 C345.59608005 115.33650188 344.70362481 116.47187469 343.80925322 117.60573363 C342.18931999 119.67051899 340.60933483 121.76511831 339.02165556 123.85475707 C337.88368561 125.29848997 336.73750327 126.73577905 335.58415556 128.16725707 C334.55548368 129.45309691 334.55548368 129.45309691 333.50603056 130.76491332 C332.76868681 131.64018676 332.03134306 132.5154602 331.27165556 133.41725707 C330.28745634 134.60061645 330.28745634 134.60061645 329.28337431 135.80788207 C325.47512478 139.1366559 321.15880758 141.07125477 316.58415556 143.16725707 C317.23674345 143.38752563 317.88933134 143.60779418 318.56169462 143.83473754 C367.81717143 160.6126539 367.81717143 160.6126539 382.58415556 180.91725707 C384.44639855 186.9695468 385.05247449 194.20552446 382.02165556 199.97975707 C380.88884306 201.59694457 380.88884306 201.59694457 379.58415556 203.16725707 C379.13298368 203.7267102 378.68181181 204.28616332 378.21696806 204.86256957 C330.70218975 257.57797039 197.67945458 262.4416159 2.78039694 280.53347182 C-17.39179896 281.56009939 -37.5766041 282.39348963 -57.7633462 283.07471824 C-59.70744878 283.14254297 -61.65143109 283.21383889 -63.59533548 283.2871244 C-85.77667806 284.12085767 -107.93082894 284.33129744 -130.12624812 284.33451414 C-132.95304423 284.33523835 -135.77983584 284.33739766 -138.6066308 284.34001136 C-148.5729049 284.34919523 -158.53916586 284.35335563 -168.50544405 284.3525598 C-176.62004758 284.35202862 -184.7346028 284.35906064 -192.84919405 284.37306762 C-278.48983474 284.51758527 -278.48983474 284.51758527 -320.17141008 282.28453994 C-323.47559034 282.11188007 -326.78055291 281.96461765 -330.08601046 281.81838012 C-336.07290712 281.55061845 -342.05691902 281.244317 -348.04084444 280.91725707 C-349.10724154 280.85989379 -350.17363863 280.80253051 -351.27235079 280.74342895 C-374.64453913 279.4758979 -397.99934452 277.92702661 -421.35327578 276.36368346 C-424.24039546 276.17063044 -427.12758282 275.97861743 -430.01478243 275.78676391 C-448.9145758 274.52798982 -467.80472964 273.20701284 -486.67365694 271.54225707 C-487.38470457 271.47981811 -488.0957522 271.41737914 -488.82834673 271.35304809 C-495.38751093 270.77309311 -501.90119975 270.13684506 -508.41584444 269.16725707 C-508.41584444 268.17725707 -508.41584444 267.18725707 -508.41584444 266.16725707 C-493.54195305 265.9828238 -478.79142108 266.45633933 -463.944592 267.33528686 C-431.787007 269.22141279 -399.61556718 270.3189563 -367.41584444 271.16725707 C-366.29053316 271.19755004 -365.16522188 271.22784301 -364.00581026 271.25905395 C-302.51701463 272.90259008 -240.79809385 273.14082435 -179.31190157 271.25581908 C-176.29894007 271.16368211 -173.28586864 271.07586255 -170.27277803 270.98805785 C-121.55068414 269.53645349 -72.87378396 266.47657763 -24.41584444 261.16725707 C-22.51048405 260.96010185 -20.60512353 260.75294787 -18.69975996 260.54582191 C112.82275245 247.95868133 112.82275245 247.95868133 250.95915556 195.85475707 C253.57609757 191.52673759 254.92392358 187.17986685 254.34978056 182.08913207 C252.32884616 175.15241128 246.87892082 170.59808271 240.76042509 167.13503051 C233.00025444 163.07645171 224.86864845 159.76647847 216.70915556 156.60475707 C216.03747343 156.34098266 215.3657913 156.07720824 214.67375517 155.80544066 C210.69705715 154.29979897 210.69705715 154.29979897 206.58415556 155.16725707 C205.45161957 156.79264435 205.45161957 156.79264435 204.43303251 158.68703246 C202.18054747 161.96910811 202.18054747 161.96910811 199.71266508 162.78905272 C197.44642248 162.97627858 195.27371907 162.95559618 193.00212431 162.85085082 C192.18794538 162.84094619 191.37376646 162.83104156 190.53491545 162.82083678 C187.94529574 162.78178167 185.35998376 162.69399318 182.77165556 162.60475707 C181.01195135 162.56963097 179.2521804 162.53769421 177.49235868 162.50905395 C173.18797538 162.43205083 168.88679456 162.31134338 164.58415556 162.16725707 C166.41520826 158.36077128 168.71480851 154.98449239 171.14665556 151.54225707 C174.07832241 147.48588686 174.07832241 147.48588686 176.58415556 143.16725707 C175.59415556 143.02288207 174.60415556 142.87850707 173.58415556 142.72975707 C172.74884306 142.60794066 172.74884306 142.60794066 171.89665556 142.48366332 C168.46296039 142.0138503 165.02351309 141.5935941 161.58415556 141.16725707 C161.23635038 141.66129027 160.88854521 142.15532348 160.53020048 142.66432738 C158.94464586 144.91574627 157.35815973 147.16650721 155.77165556 149.41725707 C155.22444853 150.19456176 154.6772415 150.97186645 154.11345243 151.77272582 C153.58171415 152.52682738 153.04997587 153.28092895 152.50212431 154.05788207 C151.77158842 155.09477172 151.77158842 155.09477172 151.02629423 156.15260863 C150.31243559 157.14985961 150.31243559 157.14985961 149.58415556 158.16725707 C149.17814116 158.85944335 148.77212675 159.55162963 148.35380888 160.26479125 C146.58415556 162.16725707 146.58415556 162.16725707 143.98352385 162.64827514 C142.94205702 162.63939269 141.90059019 162.63051024 140.82756376 162.62135863 C139.0560671 162.62090545 139.0560671 162.62090545 137.24878263 162.62044311 C135.97371351 162.59979796 134.69864439 162.57915282 133.38493681 162.55788207 C132.079615 162.55222228 130.77429319 162.54656249 129.42941618 162.54073119 C125.9619661 162.52547099 122.49518807 162.48618739 119.02800322 162.44191527 C115.48887044 162.40096998 111.94962888 162.38272186 108.41032743 162.36256957 C101.46796651 162.31969222 94.5261625 162.24934001 87.58415556 162.16725707 C85.60415556 158.53725707 83.62415556 154.90725707 81.58415556 151.16725707 C80.41497587 151.79374145 79.24579618 152.42022582 78.04118681 153.06569457 C76.49308181 153.89135057 74.94490071 154.71686391 73.39665556 155.54225707 C72.24326689 156.16100707 72.24326689 156.16100707 71.06657743 156.79225707 C69.94025908 157.39167113 69.94025908 157.39167113 68.79118681 158.00319457 C68.10516386 158.36977172 67.41914091 158.73634887 66.71232939 159.11403441 C62.15459322 161.36963541 58.75887523 162.41520291 53.62712431 162.36256957 C52.5153079 162.35612426 51.4034915 162.34967895 50.25798368 162.34303832 C48.53225126 162.3179016 48.53225126 162.3179016 46.77165556 162.29225707 C45.60183134 162.28323363 44.43200712 162.2742102 43.22673368 162.26491332 C40.34566503 162.24139439 37.46501567 162.20852559 34.58415556 162.16725707 C33.92415556 160.18725707 33.26415556 158.20725707 32.58415556 156.16725707 C31.87492949 157.14299682 31.16570341 158.11873656 30.43498564 159.12404418 C26.39140796 163.13081053 22.30187615 162.88164525 16.83481169 162.9239862 C15.55971235 162.90242965 14.28461302 162.8808731 12.97087431 162.85866332 C11.63337941 162.8550804 10.29587684 162.85373003 8.95837736 162.85449767 C6.15973194 162.8498174 3.36224557 162.82507695 0.56389189 162.78468871 C-3.00015685 162.73386648 -6.56292921 162.72224243 -10.12729788 162.72452426 C-12.88914562 162.72370293 -15.65072147 162.70715839 -18.41247797 162.68551993 C-20.35817219 162.67149457 -22.30392293 162.66616546 -24.24966097 162.66104674 C-32.2612162 162.53339517 -40.45158387 162.38775028 -46.47834444 156.47975707 C-47.11771944 155.71663207 -47.75709444 154.95350707 -48.41584444 154.16725707 C-48.76716433 154.73446975 -49.11848421 155.30168242 -49.48045015 155.88608336 C-52.01831859 159.40374101 -53.9703408 161.7946681 -58.27003145 162.90294433 C-61.76626743 163.14242119 -65.18588972 163.14505878 -68.68928194 163.05397582 C-69.9675989 163.04977126 -71.24591585 163.0455667 -72.56296968 163.04123473 C-75.2619155 163.03050492 -77.95871834 162.99358413 -80.65705538 162.93556762 C-84.09221746 162.86215934 -87.52553835 162.83633748 -90.96141291 162.8281486 C-94.26680384 162.81742422 -97.57158603 162.7795008 -100.87678194 162.74147582 C-102.70999498 162.72705695 -102.70999498 162.72705695 -104.58024263 162.71234679 C-113.47962678 162.5156379 -121.83529138 161.74781013 -128.41584444 155.16725707 C-130.26816252 152.14029825 -130.64455732 149.94349507 -130.54084444 146.41725707 C-130.52279757 145.61803832 -130.50475069 144.81881957 -130.48615694 143.99538207 C-130.45135225 143.0904602 -130.45135225 143.0904602 -130.41584444 142.16725707 C-130.98710054 142.33325912 -131.55835665 142.49926116 -132.14692354 142.67029357 C-134.46426266 143.17786215 -136.35451399 143.2236726 -138.71857882 143.11867309 C-143.4321037 142.94120264 -148.14077901 142.85059927 -152.85725069 142.79103637 C-154.88271558 142.75045593 -156.90783545 142.68309687 -158.93146944 142.58791137 C-170.30993003 141.75456132 -170.30993003 141.75456132 -180.54865694 145.77535033 C-185.20353559 150.59365441 -188.43852887 156.21262593 -191.41584444 162.16725707 C-105.67688894 174.99643053 -18.13449368 179.46840892 90.58415556 183.16725707 C92.31674174 183.22026663 94.04932645 183.27332406 95.78190947 183.32643676 C133.03600192 184.44997251 170.3172359 184.71338813 207.58415556 185.16725707 C207.58415556 186.15725707 207.58415556 187.14725707 207.58415556 188.16725707 C122.58410227 190.8883087 37.33710879 191.51544309 -96.41584444 188.16725707 C-98.24475222 188.08734527 -98.24475222 188.08734527 -100.11060762 188.00581908 C-117.55758143 187.24103981 -134.9883652 186.29015998 -152.41584444 185.16725707 C-153.48403414 185.09913817 -154.55222383 185.03101928 -155.65278292 184.96083617 C-212.64604947 181.30412642 -270.01966784 175.97080893 -326.40021944 166.71803832 C-329.19680085 166.26178635 -331.99369356 165.80750412 -334.79084444 165.35475707 C-335.44852816 165.24744262 -336.10621187 165.14012816 -336.7838254 165.02956176 C-348.29748031 163.17906981 -359.64515415 162.56432454 -371.28449678 162.53127074 C-386.60128481 162.41284728 -386.60128481 162.41284728 -392.15412569 157.68825316 C-393.41584444 156.16725707 -393.41584444 156.16725707 -393.41584444 154.16725707 C-396.26083279 154.75135336 -396.26083279 154.75135336 -399.41584444 156.16725707 C-400.0356418 157.17135619 -400.65543917 158.17545531 -401.29401827 159.20998168 C-403.16779578 161.53449365 -404.14257439 162.11131921 -407.11027193 162.71880126 C-410.64591381 162.91324834 -414.13697772 162.9194662 -417.67756319 162.85866332 C-418.97853441 162.85728866 -420.27950563 162.85591399 -421.61990023 162.85449767 C-424.37325418 162.84981225 -427.12543288 162.82503826 -429.87849092 162.78468871 C-433.38082082 162.73396845 -436.88185165 162.72223925 -440.38450575 162.72452426 C-443.75319374 162.72350383 -447.12147009 162.69692319 -450.49006319 162.67116332 C-451.73519182 162.66782485 -452.98032045 162.66448638 -454.26318026 162.66104674 C-470.67833785 162.39577171 -470.67833785 162.39577171 -476.096066 157.71585631 C-480.08638864 153.0649802 -480.80491013 149.72424329 -480.77912569 143.77663207 C-480.19176856 139.55776583 -478.11955295 137.39851846 -475.41584444 134.16725707 C-475.08584444 133.17725707 -474.75584444 132.18725707 -474.41584444 131.16725707 C-475.61209444 130.83725707 -476.80834444 130.50725707 -478.04084444 130.16725707 C-490.44704535 126.01881134 -502.68707798 117.86588647 -511.41584444 108.16725707 C-511.881196 107.71479613 -512.34654757 107.2623352 -512.82600069 106.79616332 C-517.21460363 101.89413051 -517.08837814 96.77660105 -516.82600069 90.40553832 C-516.29604944 86.22144699 -515.33045895 84.2276023 -512.41584444 81.16725707 C-511.91439913 80.57042113 -511.41295382 79.9735852 -510.89631319 79.35866332 C-459.32159807 21.71633466 -308.33231753 18.84004652 -195.41584444 8.16725707 C-194.25460054 8.06564269 -193.09335665 7.96402831 -191.89692354 7.85933471 C-163.36892878 5.36999261 -134.83524311 3.69182569 -106.22834444 2.47975707 C-105.50156244 2.44894168 -104.77478045 2.41812629 -104.02597475 2.3863771 C-93.49059219 1.94200345 -82.9537637 1.54595373 -72.41584444 1.16725707 C-70.49813486 1.09779168 -70.49813486 1.09779168 -68.54168367 1.02692294 C-45.69171257 0.22050551 -22.86293417 0.00327526 0 0 Z M-204.41584444 101.16725707 C-203.50705538 101.83241332 -203.50705538 101.83241332 -202.57990694 102.51100707 C-198.92608441 105.30743442 -195.96672044 108.34094307 -193.41584444 112.16725707 C-192.91955538 111.76893676 -192.42326632 111.37061645 -191.91193819 110.96022582 C-187.56281811 107.56840732 -183.58075154 105.10409723 -178.41584444 103.16725707 C-178.41584444 102.83725707 -178.41584444 102.50725707 -178.41584444 102.16725707 C-187.10575745 101.37080023 -195.69042143 101.03873202 -204.41584444 101.16725707 Z M-115.41584444 105.16725707 C-114.09584444 107.80725707 -112.77584444 110.44725707 -111.41584444 113.16725707 C-107.23784801 111.07825885 -106.49192543 110.11181095 -104.41584444 106.16725707 C-108.04584444 105.83725707 -111.67584444 105.50725707 -115.41584444 105.16725707 Z M-75.45100069 113.94338012 C-77.37107362 117.18606328 -79.01171903 120.4461488 -80.43684053 123.9348352 C-81.74745984 126.92343942 -83.60174722 129.21130158 -85.72834444 131.66725707 C-87.92914445 134.11014951 -87.92914445 134.11014951 -88.41584444 137.16725707 C-64.20728089 140.17740457 -64.20728089 140.17740457 -41.12043428 135.48122191 C-36.70441159 131.50000761 -34.26733426 126.79736282 -32.25568819 121.25954223 C-31.1362037 118.47059395 -29.35728964 116.433721 -27.41584444 114.16725707 C-27.41584444 113.50725707 -27.41584444 112.84725707 -27.41584444 112.16725707 C-38.71441451 106.51797203 -66.99752611 103.26332071 -75.45100069 113.94338012 Z M53.12321806 122.66725707 C51.58415556 124.16725707 51.58415556 124.16725707 48.98259306 124.29225707 C47.98485868 124.25100707 46.98712431 124.20975707 45.95915556 124.16725707 C41.68595342 124.37519878 40.04249169 124.76155898 36.79509306 127.63600707 C32.72615711 131.96097698 32.72615711 131.96097698 30.58415556 137.16725707 C44.80596339 139.18213574 53.86500351 138.0771169 65.98259306 130.19215941 C67.78651361 129.03776026 69.64018335 128.06485648 71.58415556 127.16725707 C70.92608154 125.15031667 70.92608154 125.15031667 69.58415556 123.16725707 C67.35309187 122.24738977 67.35309187 122.24738977 64.77165556 121.91725707 C63.91958525 121.76772582 63.06751493 121.61819457 62.18962431 121.46413207 C57.23041878 120.55078609 57.23041878 120.55078609 53.12321806 122.66725707 Z M-345.41584444 125.16725707 C-346.07584444 126.48725707 -346.73584444 127.80725707 -347.41584444 129.16725707 C-342.74443013 131.53040179 -342.74443013 131.53040179 -337.66584444 132.10475707 C-334.89967958 130.95218838 -333.89909662 129.74343191 -332.41584444 127.16725707 C-332.41584444 126.50725707 -332.41584444 125.84725707 -332.41584444 125.16725707 C-336.70584444 125.16725707 -340.99584444 125.16725707 -345.41584444 125.16725707 Z M241.58415556 125.16725707 C244.23154472 126.62788557 245.4786389 127.16725707 248.58415556 127.16725707 C248.58415556 126.50725707 248.58415556 125.84725707 248.58415556 125.16725707 C246.27415556 125.16725707 243.96415556 125.16725707 241.58415556 125.16725707 Z M111.58415556 135.16725707 C113.07585822 140.13959927 115.18872973 144.58571446 117.58415556 149.16725707 C118.92401454 147.50583194 120.25498264 145.83724357 121.58415556 144.16725707 C122.50454618 143.06317504 122.50454618 143.06317504 123.44353056 141.93678832 C124.41032743 140.75149535 124.41032743 140.75149535 125.39665556 139.54225707 C126.33444853 138.40917113 126.33444853 138.40917113 127.29118681 137.25319457 C127.7178665 136.5648352 128.14454618 135.87647582 128.58415556 135.16725707 C128.25415556 134.17725707 127.92415556 133.18725707 127.58415556 132.16725707 C120.88819514 130.73240841 117.37839907 131.57667532 111.58415556 135.16725707 Z " fill="#191818" transform="translate(516.4158444404602,-0.16725707054138184)"/>
<path d="M0 0 C1.76730469 0.23396484 1.76730469 0.23396484 3.5703125 0.47265625 C4.7975 0.62476562 6.0246875 0.776875 7.2890625 0.93359375 C10.89876655 1.57108735 14.24650697 2.30343999 17.6953125 3.53515625 C17.9221875 4.75203125 18.1490625 5.96890625 18.3828125 7.22265625 C19.49575443 11.55929204 21.02001014 13.81862842 24.6953125 16.53515625 C27.37246739 17.48383266 29.88616954 18.01141773 32.6953125 18.53515625 C30.21018349 23.28931609 27.27749833 27.53317621 24.03515625 31.80078125 C23.61745972 32.3539502 23.19976318 32.90711914 22.76940918 33.47705078 C21.74653571 34.83113346 20.72117537 36.18333695 19.6953125 37.53515625 C24.37438578 37.69011531 29.04565248 37.76421502 33.72729492 37.76708984 C35.31516926 37.77901542 36.90304325 37.81212031 38.48999023 37.86767578 C47.31985084 38.41725946 47.31985084 38.41725946 55.302948 35.35754395 C58.4441288 32.16112929 60.59717593 28.48659224 62.6953125 24.53515625 C64.25030529 21.64245641 65.01422276 20.68002804 67.6953125 18.53515625 C84.27941872 14.45213922 104.52495252 25.69231214 119.0078125 32.53515625 C120.51758667 33.24526855 120.51758667 33.24526855 122.05786133 33.96972656 C133.44522671 39.55223223 144.16532236 46.93141981 151.6953125 57.28515625 C153.5575555 63.33744598 154.16363143 70.57342364 151.1328125 76.34765625 C150 77.96484375 150 77.96484375 148.6953125 79.53515625 C148.24414062 80.09460938 147.79296875 80.6540625 147.328125 81.23046875 C99.81334669 133.94586957 -33.20938848 138.80951508 -228.10844612 156.901371 C-248.28064202 157.92799857 -268.46544716 158.76138881 -288.65218925 159.44261742 C-290.59629184 159.51044215 -292.54027415 159.58173807 -294.48417854 159.65502357 C-316.66552112 160.48875685 -338.819672 160.69919661 -361.01509118 160.70241332 C-363.84188729 160.70313753 -366.6686789 160.70529684 -369.49547386 160.70791054 C-379.46174796 160.71709441 -389.42800892 160.72125481 -399.39428711 160.72045898 C-407.50889064 160.7199278 -415.62344586 160.72695982 -423.73803711 160.7409668 C-509.3786778 160.88548445 -509.3786778 160.88548445 -551.06025314 158.65243912 C-554.3644334 158.47977925 -557.66939597 158.33251683 -560.97485352 158.1862793 C-566.96175018 157.91851763 -572.94576208 157.61221618 -578.9296875 157.28515625 C-579.99608459 157.22779297 -581.06248169 157.17042969 -582.16119385 157.11132812 C-605.53338219 155.84379708 -628.88818758 154.29492578 -652.24211884 152.73158264 C-655.12923851 152.53852962 -658.01642588 152.34651661 -660.90362549 152.15466309 C-679.80341886 150.895889 -698.6935727 149.57491202 -717.5625 147.91015625 C-718.27354763 147.84771729 -718.98459526 147.78527832 -719.71718979 147.72094727 C-726.27635399 147.14099229 -732.79004281 146.50474424 -739.3046875 145.53515625 C-739.3046875 144.54515625 -739.3046875 143.55515625 -739.3046875 142.53515625 C-724.43079611 142.35072298 -709.68026414 142.82423851 -694.83343506 143.70318604 C-662.67585006 145.58931197 -630.50441024 146.68685548 -598.3046875 147.53515625 C-597.17937622 147.56544922 -596.05406494 147.59574219 -594.89465332 147.62695312 C-533.40585769 149.27048926 -471.68693691 149.50872353 -410.20074463 147.62371826 C-407.18778313 147.53158129 -404.1747117 147.44376173 -401.16162109 147.35595703 C-352.4395272 145.90435267 -303.76262702 142.84447681 -255.3046875 137.53515625 C-253.39932711 137.32800103 -251.49396659 137.12084705 -249.58860302 136.91372108 C-118.06609061 124.32658051 -118.06609061 124.32658051 20.0703125 72.22265625 C22.68725451 67.89463677 24.03508052 63.54776603 23.4609375 58.45703125 C21.44382647 51.53343392 16.00885815 46.98173257 9.90380859 43.51904297 C-0.74235459 37.9462959 -12.06769827 33.74081304 -23.3046875 29.53515625 C-21.6937867 24.27634462 -18.34170934 20.41304525 -14.9921875 16.16015625 C-13.84919171 14.69484342 -12.70725133 13.22870668 -11.56640625 11.76171875 C-10.73012695 10.70440552 -10.73012695 10.70440552 -9.87695312 9.62573242 C-8.28665291 7.57843411 -8.28665291 7.57843411 -7.01367188 5.4387207 C-4.91653557 2.04284807 -4.04137296 0.65445401 0 0 Z " fill="#D3D4D6" transform="translate(747.3046875,123.46484375)"/>
<path d="M0 0 C2.86196052 -0.00072465 5.7239166 -0.00288463 8.58587599 -0.00549722 C18.67189403 -0.01467346 28.75789911 -0.01884214 38.84392118 -0.01804566 C47.06236556 -0.01751364 55.28076234 -0.02456915 63.49919462 -0.03855348 C150.54459592 -0.18323539 150.54459592 -0.18323539 188.29043913 2.03528762 C192.00888805 2.24922935 195.72865362 2.43649719 199.44841337 2.6259973 C207.43350772 3.03842791 215.41512902 3.50323252 223.39665556 3.97975707 C224.8150742 4.06337669 226.23350091 4.14685942 227.6519351 4.23021483 C250.7312675 5.58811055 273.80392357 7.05065283 296.87303114 8.57191634 C299.21871053 8.72627304 301.56446297 8.8794718 303.91023588 9.03239989 C320.40629896 10.1104274 336.8857097 11.30789966 353.35368681 12.75710082 C354.07802097 12.82049714 354.80235514 12.88389346 355.54863882 12.94921088 C357.60084198 13.1298766 359.65273058 13.31370968 361.70451689 13.49904418 C362.86751814 13.60397689 364.03051939 13.7089096 365.2287631 13.81702209 C368.6964823 14.17898171 372.13607108 14.65259023 375.58415556 15.16725707 C375.58415556 16.15725707 375.58415556 17.14725707 375.58415556 18.16725707 C361.0696687 18.35781926 346.67584865 17.85381206 332.18779325 16.99922729 C301.19244691 15.18763055 270.18540072 14.09400935 239.14989042 13.2629602 C235.81004415 13.17331984 232.47029406 13.08065108 229.13054228 12.98756957 C168.32560992 11.32857642 107.25961287 11.19679634 46.45878935 13.07869506 C43.45737218 13.17116303 40.45583662 13.25888955 37.45427275 13.34645629 C-10.32579536 14.77018034 -58.07062676 17.7242441 -105.60004854 22.86324096 C-108.66175534 23.1938076 -111.72384252 23.52070848 -114.78596163 23.84743285 C-248.5601358 35.475723 -248.5601358 35.475723 -383.41584444 88.16725707 C-386.11277408 92.38381889 -387.47756689 96.26876297 -388.41584444 101.16725707 C-389.01560091 101.16868209 -389.61535738 101.17010711 -390.23328829 101.17157531 C-396.52896857 101.19140604 -402.82369662 101.24596294 -409.11896944 101.31984496 C-411.46199867 101.34290754 -413.80512985 101.35739283 -416.14826632 101.36281371 C-434.02867233 100.98046404 -434.02867233 100.98046404 -450.41584444 107.16725707 C-451.40584444 107.71144286 -451.40584444 107.71144286 -452.41584444 108.2666223 C-457.83124783 111.59312213 -461.1056279 116.77729077 -464.66584444 121.91725707 C-465.87262381 123.64595579 -467.08586904 125.37016425 -468.30646944 127.08913207 C-469.09585909 128.22753539 -469.09585909 128.22753539 -469.901196 129.38893676 C-471.41584444 131.16725707 -471.41584444 131.16725707 -474.41584444 132.16725707 C-477.03402707 131.07065163 -479.4730393 129.91950793 -481.97834444 128.60475707 C-483.05753145 128.04884887 -483.05753145 128.04884887 -484.15852022 127.4817102 C-511.89009588 113.06502575 -511.89009588 113.06502575 -516.41584444 101.16725707 C-517.29368239 95.07039817 -517.44223112 89.4766271 -514.91584444 83.79225707 C-514.09084444 82.92600707 -513.26584444 82.05975707 -512.41584444 81.16725707 C-511.91439913 80.57042113 -511.41295382 79.9735852 -510.89631319 79.35866332 C-459.32159807 21.71633466 -308.33231753 18.84004652 -195.41584444 8.16725707 C-194.25460054 8.06564269 -193.09335665 7.96402831 -191.89692354 7.85933471 C-163.36892878 5.36999261 -134.83524311 3.69182569 -106.22834444 2.47975707 C-105.50156244 2.44894168 -104.77478045 2.41812629 -104.02597475 2.3863771 C-93.49059219 1.94200345 -82.9537637 1.54595373 -72.41584444 1.16725707 C-70.49813486 1.09779168 -70.49813486 1.09779168 -68.54168367 1.02692294 C-45.69171257 0.22050551 -22.86293417 0.00327526 0 0 Z " fill="#C2141B" transform="translate(516.4158444404602,-0.16725707054138184)"/>
<path d="M0 0 C1.52011374 0.08832798 3.04383734 0.12034902 4.56651306 0.11784363 C5.50518723 0.11896149 6.44386139 0.12007935 7.41098022 0.12123108 C8.44058868 0.11756027 9.47019714 0.11388947 10.53100586 0.11010742 C12.78799948 0.11065093 15.04499309 0.111238 17.30198669 0.11186218 C18.50626249 0.11043402 19.71053829 0.10900585 20.9513073 0.10753441 C26.75356106 0.10434978 32.55571388 0.12558544 38.35793221 0.14405501 C47.22948745 0.17183988 56.10081756 0.19212444 64.97241211 0.17504883 C98.11381341 0.12160926 130.48621486 1.37044022 163.34199429 5.85660267 C174.26384834 7.33978928 185.2215783 8.46104149 196.1875 9.5625 C197.44917999 9.69005676 198.71085999 9.81761353 200.01077271 9.94903564 C202.89447615 10.2350759 205.77876215 10.51183894 208.6640625 10.78125 C209.71187897 10.8793396 210.75969543 10.9774292 211.83926392 11.07849121 C279.39704978 17.32496567 347.19108109 20.98548848 415 23 C416.73258618 23.05300956 418.46517089 23.10606699 420.19775391 23.15917969 C457.45184636 24.28271544 494.73308034 24.54613105 532 25 C532 25.99 532 26.98 532 28 C446.99994671 30.72105163 361.75295323 31.34818602 228 28 C226.78072815 27.94672546 225.5614563 27.89345093 224.30523682 27.83856201 C206.85826301 27.07378274 189.42747924 26.12290291 172 25 C170.39771545 24.89782166 170.39771545 24.89782166 168.76306152 24.7935791 C103.52566025 20.60792251 38.57150494 13.14568621 -26 3 C-26 2.34 -26 1.68 -26 1 C-25.44538086 0.97494385 -24.89076172 0.9498877 -24.31933594 0.92407227 C-21.79601157 0.80772073 -19.27302464 0.68517246 -16.75 0.5625 C-15.87730469 0.52318359 -15.00460938 0.48386719 -14.10546875 0.44335938 C-13.26113281 0.40146484 -12.41679687 0.35957031 -11.546875 0.31640625 C-10.77182617 0.27974854 -9.99677734 0.24309082 -9.19824219 0.20532227 C-6.99344993 0.06473538 -6.99344993 0.06473538 -4.90332031 -0.58227539 C-3 -1 -3 -1 0 0 Z " fill="#C1141B" transform="translate(192,160)"/>
<path d="M0 0 C1.42661453 -0.00430527 1.42661453 -0.00430527 2.88204956 -0.00869751 C4.88051961 -0.01072812 6.87901 -0.0052689 8.87744141 0.00732422 C11.92786143 0.02342786 14.97696381 0.00742281 18.02734375 -0.01171875 C19.97656541 -0.00973684 21.92578625 -0.00589424 23.875 0 C25.23457321 -0.00910904 25.23457321 -0.00910904 26.62161255 -0.0184021 C32.75871699 0.0495043 37.28447991 0.87822991 41.8046875 5.3984375 C42.37432893 9.61896267 42.13114339 12.38632497 39.75 15.87109375 C38.8264028 17.08049464 37.88528991 18.27666289 36.9296875 19.4609375 C35.91788848 20.76846272 34.90750521 22.07708452 33.8984375 23.38671875 C33.3828125 24.04752441 32.8671875 24.70833008 32.3359375 25.38916016 C30.84074119 27.35112853 29.42185052 29.34708848 28.0234375 31.37890625 C27.58628418 32.0123999 27.14913086 32.64589355 26.69873047 33.29858398 C25.87389327 34.5009294 25.05486102 35.70728513 24.24267578 36.91821289 C19.92427314 43.12786667 15.08625609 45.0787427 7.8046875 46.3984375 C4.34281117 46.67868463 0.89780199 46.70265435 -2.57421875 46.69921875 C-4.03056984 46.70564644 -4.03056984 46.70564644 -5.51634216 46.71220398 C-7.5576805 46.71791788 -9.59903918 46.71846938 -11.64038086 46.71411133 C-14.75214409 46.71094327 -17.86296281 46.73447567 -20.97460938 46.75976562 C-22.96614464 46.76203821 -24.95768245 46.7627423 -26.94921875 46.76171875 C-27.87231339 46.7709285 -28.79540802 46.78013824 -29.74647522 46.78962708 C-36.12384986 46.74420737 -41.47578319 46.11796681 -46.1953125 41.3984375 C-46.02827786 35.62878262 -44.30771986 32.60937794 -40.6953125 28.2109375 C-39.78001981 27.0817252 -38.86598462 25.95149261 -37.953125 24.8203125 C-37.49067383 24.25376953 -37.02822266 23.68722656 -36.55175781 23.10351562 C-35.25132874 21.468851 -34.02249129 19.80390913 -32.8125 18.1015625 C-24.00932142 5.77097786 -15.34744243 -0.10328807 0 0 Z M-3.1953125 19.3984375 C-3.8553125 20.7184375 -4.5153125 22.0384375 -5.1953125 23.3984375 C-0.52389819 25.76158222 -0.52389819 25.76158222 4.5546875 26.3359375 C7.32085236 25.18336881 8.32143532 23.97461234 9.8046875 21.3984375 C9.8046875 20.7384375 9.8046875 20.0784375 9.8046875 19.3984375 C5.5146875 19.3984375 1.2246875 19.3984375 -3.1953125 19.3984375 Z " fill="#F4F4F4" transform="translate(174.1953125,105.6015625)"/>
<path d="M0 0 C1.47487902 0.01480185 2.94981483 0.02467887 4.42475891 0.02989197 C7.50191192 0.0527049 10.5748217 0.11399803 13.65063477 0.20727539 C17.58152294 0.32631594 21.50967094 0.3801584 25.44215679 0.40920353 C29.21180359 0.43919276 32.98079538 0.49871046 36.75 0.5625 C37.81838891 0.57778087 37.81838891 0.57778087 38.90836143 0.59337044 C40.9349344 0.62833065 42.96105857 0.68687196 44.98706055 0.74633789 C46.13683884 0.77587051 47.28661713 0.80540314 48.47123718 0.83583069 C53.033528 1.46441028 56.41615311 3.01771561 59.67578125 6.27734375 C60.3096514 10.7592539 59.45565394 13.25040272 56.77929688 16.86987305 C56.35326172 17.41683838 55.92722656 17.96380371 55.48828125 18.52734375 C54.57776174 19.74712476 53.66762589 20.96719222 52.7578125 22.1875 C52.01845459 23.16420654 52.01845459 23.16420654 51.26416016 24.16064453 C48.34329228 28.05303993 45.51809855 32.01494933 42.67578125 35.96484375 C41.09663171 38.14562782 39.51741547 40.32636255 37.9375 42.5065918 C36.81962908 44.07546134 35.7443514 45.67448852 34.67578125 47.27734375 C32.79638672 47.61791992 32.79638672 47.61791992 30.54296875 47.5703125 C29.73730469 47.56064453 28.93164062 47.55097656 28.1015625 47.54101562 C27.25980469 47.51587891 26.41804688 47.49074219 25.55078125 47.46484375 C24.27654297 47.44454102 24.27654297 47.44454102 22.9765625 47.42382812 C20.87603288 47.38842594 18.77582832 47.33461776 16.67578125 47.27734375 C18.0775903 44.28021276 19.71982313 41.70414849 21.6875 39.046875 C22.28111328 38.24314453 22.87472656 37.43941406 23.48632812 36.61132812 C24.10572266 35.77923828 24.72511719 34.94714844 25.36328125 34.08984375 C25.96333984 33.27708984 26.56339844 32.46433594 27.18164062 31.62695312 C30.82773317 26.70414074 34.55508371 21.86464321 38.40161133 17.09643555 C39.86701651 15.37448104 39.86701651 15.37448104 39.67578125 13.27734375 C34.72578125 12.94734375 29.77578125 12.61734375 24.67578125 12.27734375 C24.01578125 13.59734375 23.35578125 14.91734375 22.67578125 16.27734375 C21.87791055 17.49979089 21.05355661 18.70525859 20.20703125 19.89453125 C19.48241699 20.91945679 19.48241699 20.91945679 18.74316406 21.96508789 C17.67949623 23.44941812 16.61096417 24.93027235 15.53808594 26.40795898 C12.92082312 30.02845453 10.42295928 33.61687597 8.22265625 37.5078125 C2.87763478 46.62672249 2.87763478 46.62672249 -1.31542969 47.86572266 C-6.06958253 48.46290874 -10.61053695 48.01422205 -15.32421875 47.27734375 C-10.58005799 39.44516562 -5.3437989 32.03847848 0.05541992 24.64892578 C3.02562038 20.58172832 5.92078125 16.49363329 8.67578125 12.27734375 C3.75829527 11.84511515 -0.54667882 11.9643939 -5.32421875 13.27734375 C-9.0136956 16.51929591 -11.4636083 20.20045723 -14.06933594 24.33349609 C-16.26847941 27.74002922 -18.72116781 30.96021526 -21.13671875 34.21484375 C-21.58104248 34.82859863 -22.02536621 35.44235352 -22.4831543 36.07470703 C-23.33667456 37.25329379 -24.20070558 38.42435233 -25.07592773 39.58691406 C-25.90531662 40.7100685 -26.69761176 41.86161592 -27.44946289 43.03808594 C-29.07297206 45.381352 -30.4726313 47.07687787 -33.31030273 47.74487305 C-35.61620654 47.86781065 -37.83286932 47.80297263 -40.13671875 47.65234375 C-40.92498047 47.62527344 -41.71324219 47.59820312 -42.52539062 47.5703125 C-44.45952032 47.49998051 -46.39223179 47.39236833 -48.32421875 47.27734375 C-46.78908949 42.4435141 -44.01687275 39.16575144 -40.82421875 35.33984375 C-35.94991593 29.37991742 -31.3752619 23.29640556 -26.96875 16.984375 C-26.56415558 16.43554657 -26.15956116 15.88671814 -25.7427063 15.32125854 C-24.20825957 13.17253507 -24.20825957 13.17253507 -22.63595581 10.3352356 C-16.65003352 0.82020017 -10.80322457 -0.41802687 0 0 Z " fill="#F6F6F6" transform="translate(254.32421875,104.72265625)"/>
<path d="M0 0 C5.79924862 -0.0025214 11.59847536 -0.0099748 17.39771628 -0.01947546 C52.17011614 -0.07223161 86.91507057 0.152597 121.67438865 1.16363001 C122.74286336 1.19438954 122.74286336 1.19438954 123.83292341 1.22577047 C191.40992205 3.18023665 191.40992205 3.18023665 219.8892324 6.24566126 C219.8892324 6.57566126 219.8892324 6.90566126 219.8892324 7.24566126 C218.83123435 7.24977015 217.7732363 7.25387903 216.68317771 7.25811243 C212.70174657 7.28012996 208.72127236 7.33464703 204.74030662 7.39824915 C203.02783587 7.42123426 201.31522766 7.43577841 199.6026113 7.4412179 C188.55301504 7.48319474 178.43997789 7.77206699 169.10610557 14.5382638 C163.74634821 18.31064668 160.12121909 18.82137632 153.68220115 18.11284876 C152.41138442 18.00591196 152.41138442 18.00591196 151.11489463 17.89681482 C148.43238415 17.66433605 145.75548231 17.3927576 143.0767324 17.12066126 C141.25989526 16.95930863 139.44283656 16.80043061 137.62556052 16.64409876 C124.60286624 15.48353921 124.60286624 15.48353921 120.8892324 14.24566126 C122.7642324 9.37066126 122.7642324 9.37066126 123.8892324 8.24566126 C112.3392324 7.91566126 100.7892324 7.58566126 88.8892324 7.24566126 C88.2292324 8.56566126 87.5692324 9.88566126 86.8892324 11.24566126 C85.8892324 12.24566126 85.8892324 12.24566126 82.3267324 12.43316126 C76.97521659 12.36626731 72.13906895 11.09020112 67.14655662 9.21612024 C61.13273072 7.51422102 54.8118777 8.02261282 48.61970115 8.08550501 C47.21551534 8.09179377 45.81132445 8.09702771 44.40713096 8.10126734 C40.71341843 8.11452683 37.01987342 8.1388995 33.32624412 8.16662073 C26.75746327 8.21492059 20.18861071 8.24839432 13.61970115 8.27300501 C12.91432904 8.27585379 12.20895694 8.27870256 11.48220992 8.28163767 C2.32166443 8.31284614 -6.77357876 8.12280005 -15.91276956 7.50176477 C-24.69114632 6.92062427 -33.50445093 6.89874494 -42.2982676 6.74566126 C-44.47762979 6.70538944 -46.65699176 6.66510583 -48.83635354 6.62481165 C-82.92526288 6.01237415 -117.01886409 5.64760877 -151.1107676 5.24566126 C-151.1107676 4.25566126 -151.1107676 3.26566126 -151.1107676 2.24566126 C-100.75071684 0.37017207 -50.38903873 0.02042385 0 0 Z " fill="#D3D4D6" transform="translate(327.11076760292053,93.75433874130249)"/>
<path d="M0 0 C1.45635109 -0.00786278 1.45635109 -0.00786278 2.94212341 -0.0158844 C4.98345996 -0.02227534 7.02483348 -0.0210058 9.06616211 -0.01245117 C12.17824003 -0.00392092 15.28849259 -0.03277674 18.40039062 -0.06445312 C20.39192654 -0.06606496 22.38346568 -0.06548795 24.375 -0.0625 C25.29809464 -0.07373398 26.22118927 -0.08496796 27.17225647 -0.09654236 C33.13975759 -0.0325338 36.78565988 0.8455465 41.62109375 4.43359375 C42.80859375 7.76171875 42.80859375 7.76171875 42.62109375 11.43359375 C41.38615631 14.034087 40.29773252 15.92146208 38.62109375 18.18359375 C38.24597656 18.74691406 37.87085938 19.31023437 37.484375 19.890625 C34.54940661 24.0151819 31.43199603 26.13301502 26.62109375 27.43359375 C22.81388895 27.82208215 19.04233448 27.78372637 15.21875 27.7265625 C14.14104843 27.72231766 13.06334686 27.71807281 11.95298767 27.71369934 C8.52959629 27.69698094 5.10680555 27.65934058 1.68359375 27.62109375 C-0.64517376 27.60603811 -2.97395054 27.59235125 -5.30273438 27.58007812 C-10.99499469 27.54709983 -16.68690754 27.49696858 -22.37890625 27.43359375 C-22.68561752 28.05804886 -22.9923288 28.68250397 -23.30833435 29.32588196 C-24.31904529 31.31574118 -25.4255322 33.04221541 -26.7265625 34.8515625 C-27.16677734 35.46580078 -27.60699219 36.08003906 -28.06054688 36.71289062 C-28.51623047 37.34259766 -28.97191406 37.97230469 -29.44140625 38.62109375 C-29.90095703 39.26240234 -30.36050781 39.90371094 -30.83398438 40.56445312 C-34.22418351 45.27887101 -34.22418351 45.27887101 -35.37890625 46.43359375 C-38.24158192 46.50684543 -41.07962525 46.5259758 -43.94140625 46.49609375 C-44.74771484 46.49158203 -45.55402344 46.48707031 -46.38476562 46.48242188 C-48.38284381 46.47059893 -50.38088408 46.45266289 -52.37890625 46.43359375 C-50.72136032 42.77464928 -48.47571242 39.6094813 -46.12890625 36.37109375 C-45.48332764 35.47874023 -45.48332764 35.47874023 -44.82470703 34.56835938 C-43.86967111 33.25028242 -42.91338652 31.93310958 -41.95605469 30.61669922 C-40.25028913 28.25556057 -38.56863204 25.87817932 -36.88671875 23.5 C-35.67639153 21.81076049 -34.4654591 20.12195443 -33.25390625 18.43359375 C-32.6928418 17.63300537 -32.13177734 16.83241699 -31.55371094 16.00756836 C-23.31690915 4.63117309 -13.96150939 -0.04449817 0 0 Z " fill="#F2F2F2" transform="translate(354.37890625,105.56640625)"/>
<path d="M0 0 C1.29824707 0.00424484 2.59649414 0.00848969 3.93408203 0.01286316 C7.36022757 0.02423453 10.78598234 0.05363332 14.2119751 0.0869751 C17.7180859 0.11784395 21.22426078 0.13140415 24.73046875 0.14648438 C31.59130481 0.17851202 38.45188357 0.22961302 45.3125 0.29296875 C43.45154903 4.16760253 41.8306113 6.67176282 38.3125 9.29296875 C34.63232504 9.98818648 31.0158205 9.895327 27.28125 9.82421875 C26.2125769 9.82748169 25.14390381 9.83074463 24.04284668 9.83410645 C19.47820496 9.8472716 14.91454037 9.802449 10.35009766 9.76318359 C7.01434193 9.74273051 3.67953006 9.75153374 0.34375 9.76171875 C-0.68657349 9.74210083 -1.71689697 9.72248291 -2.77844238 9.70227051 C-8.7105574 9.69841209 -8.7105574 9.69841209 -13.75195312 12.63867188 C-15.10496276 14.49411093 -16.41370625 16.38227813 -17.6875 18.29296875 C-5.8075 18.29296875 6.0725 18.29296875 18.3125 18.29296875 C17.6525 19.61296875 16.9925 20.93296875 16.3125 22.29296875 C15.95317383 23.19313721 15.59384766 24.09330566 15.22363281 25.02075195 C13.3125 27.29296875 13.3125 27.29296875 9.50292969 27.79370117 C7.91289495 27.76719918 6.32314306 27.71720434 4.734375 27.6484375 C2.99871144 27.63077795 1.26303286 27.61454737 -0.47265625 27.59960938 C-3.20345858 27.54787663 -5.93195763 27.48066098 -8.66162109 27.38598633 C-11.30174691 27.30439462 -13.93688999 27.28530121 -16.578125 27.2734375 C-17.38566223 27.22801315 -18.19319946 27.18258881 -19.02520752 27.13578796 C-21.73028661 27.04851402 -21.73028661 27.04851402 -25.6875 28.29296875 C-27.9975 31.59296875 -30.3075 34.89296875 -32.6875 38.29296875 C-15.1975 38.29296875 2.2925 38.29296875 20.3125 38.29296875 C14.3125 45.29296875 14.3125 45.29296875 13.3125 46.29296875 C11.72848857 46.39676592 10.13988451 46.43148998 8.55249023 46.43823242 C7.5373082 46.44461227 6.52212616 46.45099213 5.47618103 46.45756531 C3.81541283 46.45923454 3.81541283 46.45923454 2.12109375 46.4609375 C0.98728775 46.4642659 -0.14651825 46.4675943 -1.31468201 46.47102356 C-3.7232116 46.47610024 -6.13174826 46.47843166 -8.5402832 46.47827148 C-12.20991838 46.48044501 -15.87924673 46.49855707 -19.54882812 46.51757812 C-21.88801981 46.52051455 -24.22721292 46.52249768 -26.56640625 46.5234375 C-27.65941544 46.53062302 -28.75242462 46.53780853 -29.8785553 46.54521179 C-36.43248542 46.52577186 -42.91360544 46.46581713 -48.75 43.10546875 C-50.33667373 40.03789953 -49.41929879 37.58095771 -48.6875 34.29296875 C-46.71875 31.1875 -46.71875 31.1875 -44.1875 28.10546875 C-43.27220731 26.97625645 -42.35817212 25.84602386 -41.4453125 24.71484375 C-40.98286133 24.14830078 -40.52041016 23.58175781 -40.04394531 22.99804688 C-38.74351624 21.36338225 -37.51467879 19.69844038 -36.3046875 17.99609375 C-26.267964 3.93768662 -17.14208304 -0.21246576 0 0 Z " fill="#F1F1F1" transform="translate(526.6875,105.70703125)"/>
<path d="M0 0 C1.33520529 0.00560373 2.6704168 0.00987016 4.00563049 0.01286316 C7.49919021 0.02425096 10.99236852 0.05366451 14.48577881 0.0869751 C18.05882612 0.11780793 21.63193578 0.13139655 25.20507812 0.14648438 C32.20067631 0.17854113 39.1960229 0.22966276 46.19140625 0.29296875 C46.19140625 0.95296875 46.19140625 1.61296875 46.19140625 2.29296875 C44.20880199 3.98029152 42.20817205 5.64662932 40.19140625 7.29296875 C39.86140625 7.95296875 39.53140625 8.61296875 39.19140625 9.29296875 C38.28724724 9.29843719 38.28724724 9.29843719 37.36482239 9.30401611 C31.08649247 9.34585267 24.80889282 9.41520643 18.53100586 9.50048828 C16.18863227 9.52869988 13.84616344 9.54991343 11.50366211 9.56396484 C8.13475786 9.58539099 4.76699888 9.63204191 1.3984375 9.68359375 C-0.17057564 9.68543671 -0.17057564 9.68543671 -1.77128601 9.68731689 C-7.62291355 9.79066266 -7.62291355 9.79066266 -12.87524414 12.16894531 C-15.10397408 14.61748054 -17.11286169 17.11218235 -19.05859375 19.79296875 C-23.5944957 25.99999248 -28.19275813 32.13852125 -32.80859375 38.29296875 C-15.31859375 38.29296875 2.17140625 38.29296875 20.19140625 38.29296875 C14.19140625 46.29296875 14.19140625 46.29296875 11.38427734 47.27519226 C9.93915771 47.26211784 9.93915771 47.26211784 8.46484375 47.2487793 C7.36350098 47.25785812 6.2621582 47.26693695 5.12744141 47.27629089 C3.364729 47.22847221 3.364729 47.22847221 1.56640625 47.1796875 C0.34614746 47.17548294 -0.87411133 47.17127838 -2.13134766 47.16694641 C-4.70689412 47.1505075 -7.28238004 47.11484557 -9.85742188 47.0612793 C-13.79504409 46.98074587 -17.72959903 46.9588288 -21.66796875 46.94726562 C-24.17321131 46.92400626 -26.67842569 46.89742492 -29.18359375 46.8671875 C-30.35873535 46.85757492 -31.53387695 46.84796234 -32.74462891 46.83805847 C-43.13619608 46.59656096 -43.13619608 46.59656096 -47.80859375 43.29296875 C-49.80859375 40.29296875 -49.80859375 40.29296875 -49.74609375 38.046875 C-48.45706964 34.26036666 -46.21807612 31.36646674 -43.80859375 28.23046875 C-42.80199715 26.89850263 -41.79548793 25.56647046 -40.7890625 24.234375 C-40.28552246 23.57324707 -39.78198242 22.91211914 -39.26318359 22.23095703 C-37.92617877 20.44963037 -36.63456715 18.64616781 -35.359375 16.8203125 C-31.15265904 10.89567066 -27.48873007 6.33723752 -20.80859375 3.29296875 C-19.894729 2.78411133 -18.98086426 2.27525391 -18.03930664 1.75097656 C-12.312919 -0.67946359 -6.10576947 -0.07407429 0 0 Z " fill="#F1F1F1" transform="translate(92.80859375,105.70703125)"/>
<path d="M0 0 C5.94 0 11.88 0 18 0 C24 12.75 24 12.75 24 15 C27.68575922 13.1694556 31.37021436 11.33631577 35.0534668 9.50073242 C36.30734013 8.87631422 37.56157109 8.25261363 38.81616211 7.62963867 C40.61665615 6.73543835 42.41577175 5.83846419 44.21484375 4.94140625 C45.29886475 4.40201416 46.38288574 3.86262207 47.49975586 3.30688477 C49.87640584 2.22329553 49.87640584 2.22329553 51 1 C52.34267413 0.91368126 53.68974322 0.89293527 55.03515625 0.90234375 C55.84404297 0.90556641 56.65292969 0.90878906 57.48632812 0.91210938 C58.33646484 0.92048828 59.18660156 0.92886719 60.0625 0.9375 C60.91650391 0.94201172 61.77050781 0.94652344 62.65039062 0.95117188 C64.76695663 0.96299627 66.88348685 0.98093231 69 1 C68 4 68 4 66.43711853 5.08207703 C65.76427322 5.41294815 65.09142792 5.74381927 64.39819336 6.0847168 C63.25712379 6.65496834 63.25712379 6.65496834 62.09300232 7.23674011 C61.26695999 7.63685806 60.44091766 8.03697601 59.58984375 8.44921875 C58.74780899 8.86669876 57.90577423 9.28417877 57.03822327 9.71430969 C54.34252169 11.04814453 51.64020391 12.36792058 48.9375 13.6875 C47.11087602 14.58827649 45.28469798 15.4899579 43.45898438 16.39257812 C38.97776713 18.60559321 34.49056646 20.80602219 30 23 C30.68712696 25.88384569 31.54957739 28.36936282 32.84765625 31.0390625 C33.20537109 31.78414062 33.56308594 32.52921875 33.93164062 33.296875 C34.68936298 34.85681463 35.44717638 36.41671002 36.20507812 37.9765625 C36.56150391 38.7190625 36.91792969 39.4615625 37.28515625 40.2265625 C37.61394775 40.90283691 37.94273926 41.57911133 38.28149414 42.27587891 C39 44 39 44 39 46 C33.06 46 27.12 46 21 46 C15 33.25 15 33.25 15 31 C11.02940981 32.97296171 7.06012394 34.94851596 3.09204102 36.92651367 C1.74116245 37.59943418 0.38992622 38.27163718 -0.96166992 38.94311523 C-2.90116709 39.90681845 -4.83937536 40.87307068 -6.77734375 41.83984375 C-7.94515381 42.42113037 -9.11296387 43.00241699 -10.31616211 43.60131836 C-12.85235201 44.75226248 -12.85235201 44.75226248 -14 46 C-16.86267567 46.07325168 -19.700719 46.09238205 -22.5625 46.0625 C-23.36880859 46.05798828 -24.17511719 46.05347656 -25.00585938 46.04882812 C-27.00393756 46.03700518 -29.00197783 46.01906914 -31 46 C-31 45.01 -31 44.02 -31 43 C-25.96589179 40.47056163 -20.93046038 37.9437839 -15.89379883 35.41943359 C-14.18152065 34.56078431 -12.46960261 33.70141647 -10.75805664 32.84130859 C-8.29408188 31.60323821 -5.82881217 30.36778041 -3.36328125 29.1328125 C-2.60163162 28.74940704 -1.83998199 28.36600159 -1.05525208 27.97097778 C2.58017508 26.15307362 6.18902342 24.42952795 10 23 C9.7326001 22.40985107 9.4652002 21.81970215 9.18969727 21.21166992 C7.97910605 18.53763417 6.77077872 15.86258141 5.5625 13.1875 C5.14162109 12.25873047 4.72074219 11.32996094 4.28710938 10.37304688 C3.88427734 9.48037109 3.48144531 8.58769531 3.06640625 7.66796875 C2.69459229 6.84578857 2.32277832 6.0236084 1.93969727 5.17651367 C1 3 1 3 0 0 Z " fill="#F5F5F5" transform="translate(587,106)"/>
<path d="M0 0 C0.81662109 0.05865234 1.63324219 0.11730469 2.47460938 0.17773438 C3.31056641 0.20931641 4.14652344 0.24089844 5.0078125 0.2734375 C7.06076443 0.35555558 9.11189835 0.48110842 11.16210938 0.61523438 C9.41695498 4.66720205 6.73842784 7.92185241 4.03710938 11.36523438 C1.62398437 14.45898438 1.62398437 14.45898438 -0.83789062 17.61523438 C15.00210938 18.11023438 15.00210938 18.11023438 31.16210938 18.61523438 C31.82210937 17.29523438 32.48210938 15.97523437 33.16210938 14.61523438 C40.61337269 2.58863394 40.61337269 2.58863394 46.34277344 1.01708984 C51.33961327 0.48133971 56.19994328 0.93460901 61.16210938 1.61523438 C57.75122272 7.18491006 53.91450797 12.37519222 49.78710938 17.42773438 C49.35358154 17.97840576 48.92005371 18.52907715 48.47338867 19.09643555 C45.03835807 23.21633598 41.36579463 26.0853881 36.16210938 27.61523438 C33.74128389 27.73042626 31.42452591 27.58893059 29.00878906 27.40844727 C24.53391374 27.11141556 20.4095375 27.03323519 16.16210938 28.61523438 C12.60249567 31.92811544 10.35878734 36.0592905 7.92236328 40.22460938 C4.20334244 46.19433099 4.20334244 46.19433099 1.06396484 47.46337891 C-3.68256117 48.18766972 -8.16852658 47.58627029 -12.83789062 46.61523438 C-11.30695575 41.94324346 -8.73031667 38.59353433 -5.71289062 34.80273438 C-5.01099609 33.90651367 -5.01099609 33.90651367 -4.29492188 32.9921875 C-3.14783498 31.52906646 -1.99357829 30.07157141 -0.83789062 28.61523438 C-2.6090625 28.55916016 -2.6090625 28.55916016 -4.41601562 28.50195312 C-5.9733385 28.43628288 -7.53062876 28.3698359 -9.08789062 28.30273438 C-9.86519531 28.28017578 -10.6425 28.25761719 -11.44335938 28.234375 C-15.77768156 28.03062481 -18.61830167 27.84347814 -21.83789062 24.61523438 C-21.32693372 19.96552654 -19.44386301 17.38112632 -16.58789062 13.74023438 C-13.46557092 9.85331582 -13.46557092 9.85331582 -10.75317383 5.68823242 C-7.86040399 0.75196348 -5.69075686 -0.16127651 0 0 Z " fill="#F4F4F4" transform="translate(794.837890625,105.384765625)"/>
<path d="M0 0 C0.66368088 -0.00058411 1.32736176 -0.00116821 2.01115417 -0.00177002 C4.20303814 0.00101493 6.39355899 0.03212281 8.58520508 0.06347656 C10.10548662 0.07093758 11.62577779 0.07663117 13.14607239 0.08062744 C17.14613429 0.09589502 21.14561457 0.13518574 25.14544678 0.17944336 C29.22749971 0.22037229 33.30964669 0.23863332 37.3918457 0.25878906 C45.40057606 0.30167959 53.40883383 0.36994371 61.41723633 0.45410156 C61.1155957 1.05714111 60.81395508 1.66018066 60.50317383 2.28149414 C59.68142246 3.92555112 58.86141556 5.57048021 58.04223633 7.21582031 C54.31554355 10.39349139 51.5324558 9.67957409 46.78564453 9.43212891 C37.19008723 8.79954224 37.19008723 8.79954224 28.29858398 11.74365234 C24.65641804 15.27112082 22.27835133 19.59298338 19.85083008 24.00439453 C17.18465497 28.56032113 13.90790078 32.68524273 10.72973633 36.89160156 C9.53642674 38.51390117 8.3448634 40.13748754 7.15551758 41.76269531 C4.5402661 45.33107179 4.5402661 45.33107179 3.41723633 46.45410156 C0.72068779 46.52729778 -1.94967825 46.54652693 -4.64526367 46.51660156 C-5.78318359 46.50983398 -5.78318359 46.50983398 -6.9440918 46.50292969 C-8.82368238 46.49110836 -10.70323266 46.47317234 -12.58276367 46.45410156 C-11.01147255 41.6007645 -8.22378565 38.05851261 -5.14526367 34.07910156 C-4.06767018 32.6656262 -2.99086733 31.25154776 -1.91479492 29.83691406 C-1.09035889 28.75651855 -1.09035889 28.75651855 -0.24926758 27.65429688 C2.42992027 24.11710952 5.04997114 20.53721945 7.66723633 16.95410156 C9.23473633 14.80910156 10.80223633 12.66410156 12.41723633 10.45410156 C4.49723633 10.12410156 -3.42276367 9.79410156 -11.58276367 9.45410156 C-7.77811937 -0.0575092 -7.77811937 -0.0575092 0 0 Z " fill="#F0F0F0" transform="translate(710.582763671875,105.5458984375)"/>
<path d="M0 0 C0.76892578 0.05865234 1.53785156 0.11730469 2.33007812 0.17773438 C3.5124707 0.22510742 3.5124707 0.22510742 4.71875 0.2734375 C6.65330738 0.35550963 8.58593476 0.4810629 10.51757812 0.61523438 C9.25626234 4.06842499 7.81989148 6.83359199 5.61132812 9.76757812 C5.03125 10.54552734 4.45117188 11.32347656 3.85351562 12.125 C3.24765625 12.92615234 2.64179688 13.72730469 2.01757812 14.55273438 C-3.93910334 22.49275037 -9.70920618 30.5327324 -15.48242188 38.61523438 C1.67757812 38.61523438 18.83757812 38.61523438 36.51757812 38.61523438 C30.51757812 46.61523438 30.51757812 46.61523438 27.79310608 47.59745789 C26.86823898 47.58874161 25.94337189 47.58002533 24.99047852 47.57104492 C23.93240494 47.58012375 22.87433136 47.58920258 21.78419495 47.59855652 C20.65593796 47.5666774 19.52768097 47.53479828 18.36523438 47.50195312 C17.19173935 47.49774857 16.01824432 47.49354401 14.80918884 47.48921204 C12.33198796 47.47277483 9.85484993 47.43711642 7.37817383 47.38354492 C3.59636141 47.30308083 -0.18225471 47.2810988 -3.96484375 47.26953125 C-6.37568658 47.24626851 -8.78650013 47.21968602 -11.19726562 47.18945312 C-12.32349838 47.17984055 -13.44973114 47.17022797 -14.61009216 47.1603241 C-21.47924482 46.99465195 -27.38043875 46.7172175 -32.48242188 41.61523438 C-32.31008075 35.88661551 -30.64740972 32.9083164 -27.04492188 28.55273438 C-26.13376938 27.42568231 -25.22499162 26.29670709 -24.31835938 25.16601562 C-23.61598145 24.29710693 -23.61598145 24.29710693 -22.89941406 23.41064453 C-20.5479487 20.4312034 -18.35927038 17.33975677 -16.16992188 14.24023438 C-15.77426025 13.68198975 -15.37859863 13.12374512 -14.97094727 12.54858398 C-14.58672607 12.00596924 -14.20250488 11.46335449 -13.80664062 10.90429688 C-13.42064697 10.37296143 -13.03465332 9.84162598 -12.63696289 9.29418945 C-11.43679292 7.60398732 -11.43679292 7.60398732 -10.38842773 5.66088867 C-7.56173877 0.90366069 -5.53553544 -0.16630364 0 0 Z " fill="#F5F5F5" transform="translate(425.482421875,105.384765625)"/>
<path d="M0 0 C0.6852475 0.00141495 1.370495 0.0028299 2.07650757 0.00428772 C4.26719511 0.0098895 6.4577808 0.02244219 8.6484375 0.03515625 C10.13281102 0.04017103 11.61718615 0.04473397 13.1015625 0.04882812 C16.74222065 0.05985948 20.38281914 0.07712526 24.0234375 0.09765625 C24.0234375 4.24077657 21.84133696 6.46580274 19.4609375 9.66015625 C18.54108335 10.9162397 17.62181615 12.17275319 16.703125 13.4296875 C16.02008301 14.359021 16.02008301 14.359021 15.32324219 15.30712891 C12.96787336 18.55173352 10.73638073 21.88237933 8.49609375 25.20703125 C7.0234375 27.09765625 7.0234375 27.09765625 4.0234375 29.09765625 C1.48114153 29.26894765 -0.94845731 29.33008559 -3.48828125 29.29296875 C-4.21650589 29.29013885 -4.94473053 29.28730896 -5.69502258 29.28439331 C-8.01820387 29.27320882 -10.34099797 29.24810791 -12.6640625 29.22265625 C-14.2402288 29.21262419 -15.81640115 29.20349873 -17.39257812 29.1953125 C-21.25405517 29.17327521 -25.11524321 29.13875766 -28.9765625 29.09765625 C-27.66996762 26.32743117 -26.21734165 23.926703 -24.3671875 21.48828125 C-23.85929688 20.81539062 -23.35140625 20.1425 -22.828125 19.44921875 C-22.29960937 18.75570312 -21.77109375 18.0621875 -21.2265625 17.34765625 C-20.71351563 16.66960937 -20.20046875 15.9915625 -19.671875 15.29296875 C-18.63564405 13.92347759 -17.5972309 12.55563485 -16.55664062 11.18945312 C-15.46620861 9.74587749 -14.3874489 8.29343639 -13.31835938 6.83398438 C-12.78791016 6.11146484 -12.25746094 5.38894531 -11.7109375 4.64453125 C-11.23366211 3.98807617 -10.75638672 3.33162109 -10.26464844 2.65527344 C-7.4445519 -0.7549267 -4.16426448 -0.0169279 0 0 Z M-2.9765625 10.09765625 C-3.6365625 11.41765625 -4.2965625 12.73765625 -4.9765625 14.09765625 C-0.30514819 16.46080097 -0.30514819 16.46080097 4.7734375 17.03515625 C7.53960236 15.88258756 8.54018532 14.67383109 10.0234375 12.09765625 C10.0234375 11.43765625 10.0234375 10.77765625 10.0234375 10.09765625 C5.7334375 10.09765625 1.4434375 10.09765625 -2.9765625 10.09765625 Z " fill="#1D1C1C" transform="translate(173.9765625,114.90234375)"/>
<path d="M0 0 C-1.6410861 5.30441379 -5.01134544 9.32039842 -8.3125 13.6875 C-9.57633666 15.37959929 -10.83933621 17.0723241 -12.1015625 18.765625 C-13.06884277 20.06016602 -13.06884277 20.06016602 -14.05566406 21.38085938 C-17.140806 25.53673616 -20.16557114 29.73554277 -23.1875 33.9375 C-26.31367305 38.28316511 -26.31367305 38.28316511 -27.79321289 40.28955078 C-29.10712395 42.07542311 -29.10712395 42.07542311 -30.3203125 44.48828125 C-33.25285246 47.12756722 -36.9145108 46.41094786 -40.6875 46.25 C-41.88342773 46.22292969 -41.88342773 46.22292969 -43.10351562 46.1953125 C-45.06952449 46.14822247 -47.03491494 46.07647899 -49 46 C-47.33402836 42.31169915 -45.05424452 39.13491713 -42.6875 35.875 C-42.25526123 35.27461914 -41.82302246 34.67423828 -41.37768555 34.05566406 C-39.92158694 32.03483012 -38.46107803 30.01723631 -37 28 C-35.33479953 25.69748825 -33.67005845 23.39466583 -32.00805664 21.08984375 C-30.87936688 19.53226814 -29.74313189 17.98013188 -28.59936523 16.43359375 C-26.23905976 13.22488514 -24.08466194 10.15969058 -22.21484375 6.6328125 C-17.28863181 -2.6416025 -9.3427177 -0.94583194 0 0 Z " fill="#F4F4F4" transform="translate(689,106)"/>
<path d="M0 0 C2.27594442 0.05019513 4.55199461 0.09581646 6.828125 0.13671875 C12.38773413 0.24656895 17.94337634 0.41356293 23.5 0.625 C17.11000199 13.71539495 17.11000199 13.71539495 11.98001099 15.50323486 C8.97223478 15.78204102 6.11455222 15.75190786 3.09765625 15.6015625 C2.01995468 15.58741302 0.94225311 15.57326355 -0.16810608 15.5586853 C-3.59412202 15.50291458 -7.01347863 15.37751959 -10.4375 15.25 C-12.76618125 15.19981639 -15.09496553 15.15419304 -17.42382812 15.11328125 C-23.11813895 15.00331401 -28.8085939 14.83622744 -34.5 14.625 C-34.19235718 14.01772064 -33.88471436 13.41044128 -33.56774902 12.78475952 C-32.80199021 11.23584226 -32.09060048 9.65959167 -31.41601562 8.06884766 C-24.87788578 -3.42785737 -11.47381108 -0.43812103 0 0 Z " fill="#BE141B" transform="translate(110.5,123.375)"/>
<path d="M0 0 C-11.49304482 18.49768161 -11.49304482 18.49768161 -16 20 C-18.61324385 19.43165516 -21.12423315 18.80204198 -23.6875 18.0625 C-24.38939453 17.86720703 -25.09128906 17.67191406 -25.81445312 17.47070312 C-27.54508944 16.98800864 -29.27284066 16.49499154 -31 16 C-24.92080032 -0.4619912 -15.94430366 -1.64386116 0 0 Z " fill="#CECFD1" transform="translate(709,124)"/>
<path d="M0 0 C1.41792958 0.02510613 2.83590179 0.04791525 4.25390625 0.06835938 C7.71182988 0.12319176 11.16814188 0.20933389 14.625 0.3125 C14.625 4.3125 14.625 4.3125 12.60668945 7.03198242 C8.96017735 9.82098345 6.32108093 9.96403409 1.91796875 9.80078125 C1.19257401 9.79370651 0.46717926 9.78663177 -0.28019714 9.77934265 C-2.58370703 9.75148406 -4.88473251 9.68877191 -7.1875 9.625 C-8.75452203 9.59990563 -10.3215824 9.57709444 -11.88867188 9.55664062 C-15.71839656 9.50168681 -19.54627797 9.41548226 -23.375 9.3125 C-18.33503116 -1.34941037 -10.49858828 -0.32267756 0 0 Z " fill="#191919" transform="translate(363.375,114.6875)"/>
<path d="M0 0 C2.99841948 0.78905776 5.74422845 1.65646748 8.5625 2.9375 C8.05646008 5.10624252 7.56266187 6.93717627 6.5625 8.9375 C1.2825 8.9375 -3.9975 8.9375 -9.4375 8.9375 C-4.92398649 -0.08952703 -4.92398649 -0.08952703 0 0 Z " fill="#BE141B" transform="translate(170.4375,129.0625)"/>
<path d="M0 0 C2.8748155 2.71376141 4.43316707 5.34405649 6 9 C6 10.32 6 11.64 6 13 C-1.425 12.01 -1.425 12.01 -9 11 C-7.25323081 7.50646162 -6.08594785 5.86054237 -3.375 3.25 C-2.74335937 2.63640625 -2.11171875 2.0228125 -1.4609375 1.390625 C-0.73777344 0.70226562 -0.73777344 0.70226562 0 0 Z " fill="#C8C9CB" transform="translate(580,110)"/>
<path d="M0 0 C-2.23213412 4.91520443 -5.65752049 8.79095173 -9 13 C-12.63 12.34 -16.26 11.68 -20 11 C-17.63746539 8.63746539 -16.29456633 7.44701967 -13.49609375 5.95703125 C-12.50899414 5.43012695 -12.50899414 5.43012695 -11.50195312 4.89257812 C-10.82068359 4.53615234 -10.13941406 4.17972656 -9.4375 3.8125 C-8.75236328 3.44447266 -8.06722656 3.07644531 -7.36132812 2.69726562 C-2.26204487 0 -2.26204487 0 0 0 Z " fill="#C5C6C8" transform="translate(656,120)"/>
<path d="M0 0 C4.29 0.33 8.58 0.66 13 1 C10.43833199 3.56166801 9.44696024 4.44554406 6.3125 5.6875 C5.219375 6.120625 4.12625 6.55375 3 7 C0 2.25 0 2.25 0 0 Z " fill="#CDCED0" transform="translate(613,106)"/>
<path d="M0 0 C2 2 2 2 2 5 C0.35 5 -1.3 5 -3 5 C-1.125 1.125 -1.125 1.125 0 0 Z " fill="#A4141A" transform="translate(121,149)"/>
</svg>
