<?xml version="1.0" encoding="UTF-8"?>
<svg version="1.1" xmlns="http://www.w3.org/2000/svg" width="68" height="75">
<path d="M0 0 C1.89551022 -0.05441656 3.7914792 -0.09298035 5.6875 -0.125 C6.74324219 -0.14820312 7.79898438 -0.17140625 8.88671875 -0.1953125 C12.05419949 0.00340022 14.14420626 0.67024037 17 2 C17.886875 2.350625 18.77375 2.70125 19.6875 3.0625 C22.7700713 5.64519487 22.82198793 7.73499571 23.4609375 11.59375 C24.02687648 14.11997035 24.91811975 15.94233765 26.1875 18.1875 C27.57075565 20.82873531 27.99973463 21.99349834 28.125 25.0625 C26.79931005 28.52402375 24.93170752 30.50367513 22.43359375 33.1875 C20.2412312 35.95931532 19.70030683 38.56849653 19 42 C20.65 42 22.3 42 24 42 C24.66 40.68 25.32 39.36 26 38 C26.66 38 27.32 38 28 38 C28 37.34 28 36.68 28 36 C28.66 36 29.32 36 30 36 C30 36.66 30 37.32 30 38 C30.99 38.33 31.98 38.66 33 39 C35 42 35 42 35 45 C36.98 45.495 36.98 45.495 39 46 C39.05379226 48.95857409 39.09357093 51.91617721 39.125 54.875 C39.14175781 55.71675781 39.15851563 56.55851562 39.17578125 57.42578125 C39.18222656 58.23144531 39.18867187 59.03710938 39.1953125 59.8671875 C39.20578613 60.61081543 39.21625977 61.35444336 39.22705078 62.12060547 C39 64 39 64 37 66 C35.0542415 65.74390168 33.11729194 65.41952318 31.1875 65.0625 C23.37238043 64.25313906 19.42429653 67.25411594 13.58203125 71.8984375 C12.72996094 72.59195313 11.87789062 73.28546875 11 74 C8.16253845 75.41873078 6.1530634 75.26339149 3 75 C0.1484375 73.57421875 0.1484375 73.57421875 -2.625 71.6875 C-3.54539062 71.07261719 -4.46578125 70.45773438 -5.4140625 69.82421875 C-8 68 -8 68 -9.92578125 66.23828125 C-12.95157157 64.43192432 -15.12394886 65.03057322 -18.5625 65.5 C-24.57054911 66.31834948 -24.57054911 66.31834948 -26.68261719 64.75268555 C-28.30854443 62.58950325 -28.29455027 61.65228968 -28.07421875 58.98828125 C-28.01943359 58.23095703 -27.96464844 57.47363281 -27.90820312 56.69335938 C-27.83537109 55.90767578 -27.76253906 55.12199219 -27.6875 54.3125 C-27.5956543 53.11657227 -27.5956543 53.11657227 -27.50195312 51.89648438 C-27.34886031 49.92983047 -27.17629291 47.96471011 -27 46 C-26.01 45.505 -26.01 45.505 -25 45 C-26.20381448 42.50638429 -27.45428722 40.31856917 -29 38 C-29 36.68 -29 35.36 -29 34 C-28.01 34 -27.02 34 -26 34 C-25.87625 32.14375 -25.87625 32.14375 -25.75 30.25 C-25.26664327 26.21254968 -24.08466161 24.69907891 -21 22 C-20.7834375 20.9790625 -20.7834375 20.9790625 -20.5625 19.9375 C-20 18 -20 18 -17.6875 16.625 C-14.34909257 14.60642806 -13.04952396 12.27923834 -11 9 C-9.375 7.125 -9.375 7.125 -8 6 C-7.34 6 -6.68 6 -6 6 C-5.67 5.01 -5.34 4.02 -5 3 C-3.35 2.67 -1.7 2.34 0 2 C0 1.34 0 0.68 0 0 Z " fill="#0C0304" transform="translate(29,0)"/>
<path d="M0 0 C2.625 0.25 2.625 0.25 4.5 1.4375 C5.625 3.25 5.625 3.25 5.3125 5.9375 C5.085625 6.700625 4.85875 7.46375 4.625 8.25 C2.315 8.91 0.005 9.57 -2.375 10.25 C-1.79555068 12.24863756 -1.79555068 12.24863756 -0.375 14.25 C3.07783254 15.8979428 5.02245096 16.35633218 8.8125 15.6875 C9.740625 15.543125 10.66875 15.39875 11.625 15.25 C13.5 16.6875 13.5 16.6875 14.625 18.25 C14.295 19.24 13.965 20.23 13.625 21.25 C12.965 20.92 12.305 20.59 11.625 20.25 C11.625 21.57 11.625 22.89 11.625 24.25 C10.965 24.25 10.305 24.25 9.625 24.25 C8 22.25 8 22.25 6.625 20.25 C5.965 20.58 5.305 20.91 4.625 21.25 C5.285 22.57 5.945 23.89 6.625 25.25 C7.945 25.25 9.265 25.25 10.625 25.25 C10.955 26.57 11.285 27.89 11.625 29.25 C12.285 28.26 12.945 27.27 13.625 26.25 C15.7890625 25.95703125 15.7890625 25.95703125 18.25 26.0625 C19.06726562 26.08957031 19.88453125 26.11664063 20.7265625 26.14453125 C21.35304687 26.17933594 21.97953125 26.21414062 22.625 26.25 C22.625 27.57 22.625 28.89 22.625 30.25 C23.285 30.25 23.945 30.25 24.625 30.25 C24.625 28.93 24.625 27.61 24.625 26.25 C27.595 26.25 30.565 26.25 33.625 26.25 C33.625 26.91 33.625 27.57 33.625 28.25 C32.635 28.25 31.645 28.25 30.625 28.25 C30.625 28.91 30.625 29.57 30.625 30.25 C31.285 30.25 31.945 30.25 32.625 30.25 C32.625 30.91 32.625 31.57 32.625 32.25 C31.965 32.25 31.305 32.25 30.625 32.25 C30.625 33.24 30.625 34.23 30.625 35.25 C31.615 35.25 32.605 35.25 33.625 35.25 C33.625 35.91 33.625 36.57 33.625 37.25 C30.655 37.25 27.685 37.25 24.625 37.25 C24.295 38.57 23.965 39.89 23.625 41.25 C21.75 44.5 21.75 44.5 19.625 47.25 C18.635 47.25 17.645 47.25 16.625 47.25 C16.955 48.24 17.285 49.23 17.625 50.25 C24.36692622 49.37975136 30.07610229 47.50544553 34.625 42.25 C35.98566155 37.030325 35.25334468 31.53698103 34.625 26.25 C36.74993141 26.22306425 38.87495912 26.20363372 41 26.1875 C42.77503906 26.17009766 42.77503906 26.17009766 44.5859375 26.15234375 C47.625 26.25 47.625 26.25 49.625 27.25 C49.955 26.59 50.285 25.93 50.625 25.25 C49.965 25.25 49.305 25.25 48.625 25.25 C48.625 24.59 48.625 23.93 48.625 23.25 C50.605 23.745 50.605 23.745 52.625 24.25 C52.67879226 27.20857409 52.71857093 30.16617721 52.75 33.125 C52.76675781 33.96675781 52.78351563 34.80851562 52.80078125 35.67578125 C52.80722656 36.48144531 52.81367187 37.28710938 52.8203125 38.1171875 C52.83078613 38.86081543 52.84125977 39.60444336 52.85205078 40.37060547 C52.625 42.25 52.625 42.25 50.625 44.25 C48.6792415 43.99390168 46.74229194 43.66952318 44.8125 43.3125 C36.99738043 42.50313906 33.04929653 45.50411594 27.20703125 50.1484375 C26.35496094 50.84195313 25.50289062 51.53546875 24.625 52.25 C21.78753845 53.66873078 19.7780634 53.51339149 16.625 53.25 C13.7734375 51.82421875 13.7734375 51.82421875 11 49.9375 C10.07960938 49.32261719 9.15921875 48.70773438 8.2109375 48.07421875 C5.625 46.25 5.625 46.25 3.69921875 44.48828125 C0.67342843 42.68192432 -1.49894886 43.28057322 -4.9375 43.75 C-10.94554911 44.56834948 -10.94554911 44.56834948 -13.05761719 43.00268555 C-14.68354443 40.83950325 -14.66955027 39.90228968 -14.44921875 37.23828125 C-14.39443359 36.48095703 -14.33964844 35.72363281 -14.28320312 34.94335938 C-14.21037109 34.15767578 -14.13753906 33.37199219 -14.0625 32.5625 C-14.00126953 31.76521484 -13.94003906 30.96792969 -13.87695312 30.14648438 C-13.72386031 28.17983047 -13.55129291 26.21471011 -13.375 24.25 C-12.715 23.92 -12.055 23.59 -11.375 23.25 C-12.57881448 20.75638429 -13.82928722 18.56856917 -15.375 16.25 C-15.375 14.93 -15.375 13.61 -15.375 12.25 C-14.385 12.25 -13.395 12.25 -12.375 12.25 C-12.16875 11.63125 -11.9625 11.0125 -11.75 10.375 C-9.82724112 7.40346355 -7.70905473 7.11975341 -4.375 6.25 C-4.230625 5.445625 -4.08625 4.64125 -3.9375 3.8125 C-3.17394875 0.33409987 -3.17394875 0.33409987 0 0 Z " fill="#9C0B11" transform="translate(15.375,21.75)"/>
<path d="M0 0 C0.99 0.33 1.98 0.66 3 1 C3 1.66 3 2.32 3 3 C4.32 3 5.64 3 7 3 C7.33 4.32 7.66 5.64 8 7 C8.66 6.01 9.32 5.02 10 4 C12.1640625 3.70703125 12.1640625 3.70703125 14.625 3.8125 C15.44226563 3.83957031 16.25953125 3.86664063 17.1015625 3.89453125 C17.72804687 3.92933594 18.35453125 3.96414062 19 4 C19 5.32 19 6.64 19 8 C19.66 8 20.32 8 21 8 C21 6.68 21 5.36 21 4 C23.97 4 26.94 4 30 4 C30 4.66 30 5.32 30 6 C29.01 6 28.02 6 27 6 C27 6.66 27 7.32 27 8 C27.66 8 28.32 8 29 8 C29 8.66 29 9.32 29 10 C28.34 10 27.68 10 27 10 C27 10.99 27 11.98 27 13 C27.99 13 28.98 13 30 13 C30 13.66 30 14.32 30 15 C27.03 15 24.06 15 21 15 C20.67 16.32 20.34 17.64 20 19 C18.125 22.25 18.125 22.25 16 25 C15.01 25 14.02 25 13 25 C13 25.66 13 26.32 13 27 C9.26548513 26.38764306 7.06530617 24.67267151 4.0625 22.4375 C-2.43096569 18.13777272 -7.36090816 18.42501459 -15 19 C-14.67 14.38 -14.34 9.76 -14 5 C-10.535 4.505 -10.535 4.505 -7 4 C-7 5.32 -7 6.64 -7 8 C-7.66 8 -8.32 8 -9 8 C-9 7.34 -9 6.68 -9 6 C-9.66 6 -10.32 6 -11 6 C-11 8.64 -11 11.28 -11 14 C-10.34 14 -9.68 14 -9 14 C-9 13.34 -9 12.68 -9 12 C-8.01 12 -7.02 12 -6 12 C-6 9.36 -6 6.72 -6 4 C-4.02 3.34 -2.04 2.68 0 2 C0 1.34 0 0.68 0 0 Z " fill="#0F0B0C" transform="translate(19,44)"/>
<path d="M0 0 C2.10409639 -0.02701408 4.20829178 -0.04640223 6.3125 -0.0625 C7.48425781 -0.07410156 8.65601563 -0.08570313 9.86328125 -0.09765625 C13 0 13 0 16 1 C16.19393875 3.14526099 16.37998676 5.29123677 16.5625 7.4375 C16.66691406 8.63246094 16.77132812 9.82742187 16.87890625 11.05859375 C16.91886719 12.02925781 16.95882812 12.99992187 17 14 C16 15 16 15 12.62109375 15.09765625 C11.22652923 15.09098369 9.83198257 15.07902532 8.4375 15.0625 C7.37112305 15.05573242 7.37112305 15.05573242 6.28320312 15.04882812 C4.52209987 15.03700864 2.76103964 15.01907263 1 15 C-0.09506492 11.71480525 -0.09960608 9.26336585 -0.0625 5.8125 C-0.05347656 4.72582031 -0.04445312 3.63914063 -0.03515625 2.51953125 C-0.02355469 1.68808594 -0.01195312 0.85664062 0 0 Z " fill="#140304" transform="translate(50,48)"/>
<path d="M0 0 C2.625 0.25 2.625 0.25 4.5 1.4375 C5.625 3.25 5.625 3.25 5.3125 5.9375 C5.085625 6.700625 4.85875 7.46375 4.625 8.25 C2.315 8.91 0.005 9.57 -2.375 10.25 C-1.79555068 12.24863756 -1.79555068 12.24863756 -0.375 14.25 C3.07783254 15.8979428 5.02245096 16.35633218 8.8125 15.6875 C9.740625 15.543125 10.66875 15.39875 11.625 15.25 C13.5 16.6875 13.5 16.6875 14.625 18.25 C14.295 19.24 13.965 20.23 13.625 21.25 C12.965 20.92 12.305 20.59 11.625 20.25 C11.625 21.57 11.625 22.89 11.625 24.25 C10.965 24.25 10.305 24.25 9.625 24.25 C8 22.25 8 22.25 6.625 20.25 C5.965 20.58 5.305 20.91 4.625 21.25 C3.635 21.25 2.645 21.25 1.625 21.25 C0.29166667 19.91666667 -1.04166667 18.58333333 -2.375 17.25 C-3.385625 16.775625 -4.39625 16.30125 -5.4375 15.8125 C-8.75010206 14.05047763 -9.75822631 12.57336815 -11.375 9.25 C-9.01546906 6.89046906 -7.59604383 6.75858587 -4.375 6.25 C-4.230625 5.445625 -4.08625 4.64125 -3.9375 3.8125 C-3.17394875 0.33409987 -3.17394875 0.33409987 0 0 Z " fill="#920608" transform="translate(15.375,21.75)"/>
<path d="M0 0 C1.89551022 -0.05441656 3.7914792 -0.09298035 5.6875 -0.125 C6.74324219 -0.14820312 7.79898438 -0.17140625 8.88671875 -0.1953125 C12.05419949 0.00340022 14.14420626 0.67024037 17 2 C17.886875 2.350625 18.77375 2.70125 19.6875 3.0625 C22.7700713 5.64519487 22.82198793 7.73499571 23.4609375 11.59375 C24.02687648 14.11997035 24.91811975 15.94233765 26.1875 18.1875 C27.57075565 20.82873531 27.99973463 21.99349834 28.125 25.0625 C27.0118632 27.96902387 26.08971047 29.11174211 24 31.3125 C20.36257164 35.19358384 20.02350706 38.816693 20 44 C19.01 43.34 18.02 42.68 17 42 C17.144375 41.319375 17.28875 40.63875 17.4375 39.9375 C18.06945909 36.63726918 18.54313941 33.32855574 19 30 C19.61875 29.87625 20.2375 29.7525 20.875 29.625 C23.19120832 29.12802644 23.19120832 29.12802644 25 27 C25.33333333 24 25.33333333 24 25 21 C24.34 20.34 23.68 19.68 23 19 C21.40124678 15.62485432 21 13.83441243 21 10 C20.34 10 19.68 10 19 10 C18.505 8.515 18.505 8.515 18 7 C14.58188942 4.07019094 12.67262651 3.02989451 8.1328125 2.828125 C6.79469292 2.94619437 5.45841676 3.08719912 4.125 3.25 C3.43664062 3.31574219 2.74828125 3.38148437 2.0390625 3.44921875 C0.35730063 3.61272338 -1.32176574 3.80356546 -3 4 C-3.33 4.99 -3.66 5.98 -4 7 C-7.44444444 10 -7.44444444 10 -10 10 C-10.061875 10.7425 -10.12375 11.485 -10.1875 12.25 C-11.25929168 15.87760262 -13.03083459 16.70564491 -16 19 C-17.31783677 20.7927329 -18.52072681 22.61999799 -19.69140625 24.51171875 C-21.32922924 26.37443684 -22.59184458 26.61815718 -25 27 C-24.360625 26.2575 -23.72125 25.515 -23.0625 24.75 C-20.89857338 22.27187135 -20.89857338 22.27187135 -20.5625 19.875 C-20 18 -20 18 -17.6875 16.625 C-14.34909257 14.60642806 -13.04952396 12.27923834 -11 9 C-9.375 7.125 -9.375 7.125 -8 6 C-7.34 6 -6.68 6 -6 6 C-5.67 5.01 -5.34 4.02 -5 3 C-3.35 2.67 -1.7 2.34 0 2 C0 1.34 0 0.68 0 0 Z " fill="#C71C20" transform="translate(29,0)"/>
<path d="M0 0 C2.475 0.99 2.475 0.99 5 2 C5 2.66 5 3.32 5 4 C5.86625 4.350625 6.7325 4.70125 7.625 5.0625 C11.69381381 7.39830052 14.26784855 10.22149267 17 14 C17 14.33 17 14.66 17 15 C15.02 15.33 13.04 15.66 11 16 C10.67 18.64 10.34 21.28 10 24 C9.01 24 8.02 24 7 24 C7 24.66 7 25.32 7 26 C6.34 26 5.68 26 5 26 C5 23.36 5 20.72 5 18 C5.66 18 6.32 18 7 18 C7 18.66 7 19.32 7 20 C7.66 20 8.32 20 9 20 C9 18.68 9 17.36 9 16 C6.69 16.33 4.38 16.66 2 17 C2 20.96 2 24.92 2 29 C1.67 29 1.34 29 1 29 C1 24.38 1 19.76 1 15 C1.99 15 2.98 15 4 15 C3.89386164 12.54775306 3.89386164 12.54775306 3 10 C2.175 9.690625 1.35 9.38125 0.5 9.0625 C-0.325 8.711875 -1.15 8.36125 -2 8 C-2.8125 4.875 -2.8125 4.875 -3 2 C-2.01 2 -1.02 2 0 2 C0 1.34 0 0.68 0 0 Z " fill="#080204" transform="translate(3,32)"/>
<path d="M0 0 C1.0725 0.309375 2.145 0.61875 3.25 0.9375 C6.72714087 2.03585728 6.72714087 2.03585728 9.3125 2.25 C11 3 11 3 12.1875 5.875 C12.455625 6.90625 12.72375 7.9375 13 9 C13.33 9.99 13.66 10.98 14 12 C13.01 12.495 13.01 12.495 12 13 C12 14.65 12 16.3 12 18 C10.35 18 8.7 18 7 18 C7 15.03 7 12.06 7 9 C7.66 9 8.32 9 9 9 C9 8.01 9 7.02 9 6 C8.05125 5.855625 7.1025 5.71125 6.125 5.5625 C3 5 3 5 1 4 C2.11854586 7.72614153 2.11854586 7.72614153 5 10 C3.02 10 1.04 10 -1 10 C-1.33 10.99 -1.66 11.98 -2 13 C-3 12 -3 12 -3.0625 8.9375 C-3.0315625 7.4834375 -3.0315625 7.4834375 -3 6 C-4.32 6 -5.64 6 -7 6 C-7.66 7.65 -8.32 9.3 -9 11 C-8.34 11 -7.68 11 -7 11 C-5.82428549 14.67410785 -5.92633254 18.16929183 -6 22 C-6.66 21.34 -7.32 20.68 -8 20 C-8 18.68 -8 17.36 -8 16 C-8.99 16.33 -9.98 16.66 -11 17 C-11.54372951 13.94152152 -12 11.11227195 -12 8 C-8.67495601 4.87054683 -5.09768693 2.95571422 -1 1 C-0.67 0.67 -0.34 0.34 0 0 Z " fill="#650508" transform="translate(39,11)"/>
<path d="M0 0 C4.10297544 0.51287193 7.14469253 2.37608239 10 5.375 C10 6.365 10 7.355 10 8.375 C10.66 8.375 11.32 8.375 12 8.375 C11.67 9.695 11.34 11.015 11 12.375 C7.76138705 12.375 5.90259811 11.7499149 3 10.375 C2.67 9.715 2.34 9.055 2 8.375 C1.01 8.045 0.02 7.715 -1 7.375 C-1 8.035 -1 8.695 -1 9.375 C-3.16874252 8.86896008 -4.99967627 8.37516187 -7 7.375 C-7.33 8.695 -7.66 10.015 -8 11.375 C-8.0825 10.59125 -8.165 9.8075 -8.25 9 C-8.72806339 6.22750896 -8.72806339 6.22750896 -11.0625 5.0625 C-11.701875 4.835625 -12.34125 4.60875 -13 4.375 C-11.06132034 1.75208046 -9.95515865 1.3656933 -6.6875 0.6875 C-4.45458856 0.49827022 -2.22361068 0.27795133 0 0 Z " fill="#57090C" transform="translate(38,1.625)"/>
<path d="M0 0 C3.3 0 6.6 0 10 0 C10.33 1.65 10.66 3.3 11 5 C8.80448693 6.54287426 6.59674111 8.05824269 4.375 9.5625 C3.75753906 10.00013672 3.14007813 10.43777344 2.50390625 10.88867188 C-0.8486805 13.12961144 -2.30955585 14.04441909 -6.4609375 13.77734375 C-7.71777344 13.39255859 -7.71777344 13.39255859 -9 13 C-8.67 12.01 -8.34 11.02 -8 10 C-7.01 9.67 -6.02 9.34 -5 9 C-3.04454571 6.10592765 -1.56513032 3.13026064 0 0 Z " fill="#050103" transform="translate(40,59)"/>
<path d="M0 0 C0 1.32 0 2.64 0 4 C-0.66 4 -1.32 4 -2 4 C-2 3.34 -2 2.68 -2 2 C-2.66 2 -3.32 2 -4 2 C-4 4.64 -4 7.28 -4 10 C-3.34 10 -2.68 10 -2 10 C-2 9.34 -2 8.68 -2 8 C-1.01 8 -0.02 8 1 8 C1 8.99 1 9.98 1 11 C1.66 11 2.32 11 3 11 C3 10.01 3 9.02 3 8 C3.66 8 4.32 8 5 8 C5 8.99 5 9.98 5 11 C5.66 11 6.32 11 7 11 C8 12 9 13 10 14 C11.98188345 15.36011609 13.97951869 16.69791204 16 18 C15.34 18.99 14.68 19.98 14 21 C13.50113281 20.566875 13.00226562 20.13375 12.48828125 19.6875 C5.78409167 14.4878413 0.2942589 14.30774346 -8 15 C-7.88658363 12.68690295 -7.75896193 10.37449815 -7.625 8.0625 C-7.55539063 6.77472656 -7.48578125 5.48695312 -7.4140625 4.16015625 C-7.27742187 3.11730469 -7.14078125 2.07445312 -7 1 C-4.53721199 -0.231394 -2.7204945 -0.07159196 0 0 Z " fill="#2E2826" transform="translate(12,48)"/>
<path d="M0 0 C3.125 0.375 3.125 0.375 6 1 C6.33 2.32 6.66 3.64 7 5 C7.33 4.01 7.66 3.02 8 2 C9.98 2.66 11.96 3.32 14 4 C14 3.34 14 2.68 14 2 C15.32 2.33 16.64 2.66 18 3 C15.02982901 6.46519949 11.95041991 8.14187269 7.90625 10.05078125 C5.72770166 11.13559118 3.86795979 12.44336684 2 14 C2 12.33333333 2 10.66666667 2 9 C1.34 8.67 0.68 8.34 0 8 C0.33 6.68 0.66 5.36 1 4 C-0.98 4.99 -0.98 4.99 -3 6 C-2.42655063 3.13275314 -2.1385485 2.1385485 0 0 Z " fill="#0A0204" transform="translate(23,7)"/>
<path d="M0 0 C0.66 0 1.32 0 2 0 C1.67 1.32 1.34 2.64 1 4 C1.639375 4.103125 2.27875 4.20625 2.9375 4.3125 C3.618125 4.539375 4.29875 4.76625 5 5 C5.33 5.99 5.66 6.98 6 8 C6.66 8 7.32 8 8 8 C7.9278125 8.61488281 7.855625 9.22976562 7.78125 9.86328125 C7.6884375 10.67152344 7.595625 11.47976562 7.5 12.3125 C7.4071875 13.11300781 7.314375 13.91351563 7.21875 14.73828125 C6.95186537 17.11896555 6.95186537 17.11896555 7 20 C4.525 19.01 4.525 19.01 2 18 C2 17.34 2 16.68 2 16 C2.99 16 3.98 16 5 16 C5 15.34 5 14.68 5 14 C2.69 13.67 0.38 13.34 -2 13 C-1.85966889 11.02043559 -1.7125877 9.04134859 -1.5625 7.0625 C-1.48128906 5.96035156 -1.40007813 4.85820312 -1.31640625 3.72265625 C-1 1 -1 1 0 0 Z " fill="#491919" transform="translate(40,25)"/>
<path d="M0 0 C2 0.125 2 0.125 4 1 C5.72101535 3.58152302 6 4.84918025 6 8 C9.82517513 10.39073445 13.59665524 10.55966552 18 11 C18 10.01 18 9.02 18 8 C20.86724686 8.57344937 21.8614515 8.8614515 24 11 C23.67 11.99 23.34 12.98 23 14 C22.34 13.67 21.68 13.34 21 13 C21 14.32 21 15.64 21 17 C20.34 17 19.68 17 19 17 C17.375 15 17.375 15 16 13 C15.01 13.495 15.01 13.495 14 14 C13.01 14 12.02 14 11 14 C9.66666667 12.66666667 8.33333333 11.33333333 7 10 C5.989375 9.525625 4.97875 9.05125 3.9375 8.5625 C0.62489794 6.80047763 -0.38322631 5.32336815 -2 2 C-1.34 1.34 -0.68 0.68 0 0 Z " fill="#890709" transform="translate(6,29)"/>
<path d="M0 0 C2.475 0.99 2.475 0.99 5 2 C5 2.66 5 3.32 5 4 C7.475 4.99 7.475 4.99 10 6 C10 6.99 10 7.98 10 9 C9.01 9.33 8.02 9.66 7 10 C7 10.66 7 11.32 7 12 C6.34 12 5.68 12 5 12 C4.67 12.99 4.34 13.98 4 15 C3.9071875 13.824375 3.9071875 13.824375 3.8125 12.625 C3.544375 11.75875 3.27625 10.8925 3 10 C2.175 9.690625 1.35 9.38125 0.5 9.0625 C-0.325 8.711875 -1.15 8.36125 -2 8 C-2.8125 4.875 -2.8125 4.875 -3 2 C-2.01 2 -1.02 2 0 2 C0 1.34 0 0.68 0 0 Z " fill="#110204" transform="translate(3,32)"/>
<path d="M0 0 C0.99 0 1.98 0 3 0 C4 3 5 6 6 9 C5.01 9.495 5.01 9.495 4 10 C4 11.65 4 13.3 4 15 C2.35 15 0.7 15 -1 15 C-1 12.03 -1 9.06 -1 6 C-0.34 6 0.32 6 1 6 C1 5.01 1 4.02 1 3 C0.071875 2.87625 -0.85625 2.7525 -1.8125 2.625 C-5 2 -5 2 -8 0 C-4.90281114 -0.99552499 -3.09728725 -0.89921243 0 0 Z " fill="#CA1316" transform="translate(47,14)"/>
<path d="M0 0 C0.99 0 1.98 0 3 0 C9.33573467 13.13905124 9.33573467 13.13905124 9 17 C7.33094544 19.30930036 5.51205702 21.44452878 3.66015625 23.609375 C1.04951213 27.36870253 1.07156018 30.49170842 1 35 C0.01 34.34 -0.98 33.68 -2 33 C-1.7834375 31.9790625 -1.7834375 31.9790625 -1.5625 30.9375 C-0.93054091 27.63726918 -0.45686059 24.32855574 0 21 C0.61875 20.87625 1.2375 20.7525 1.875 20.625 C4.19120832 20.12802644 4.19120832 20.12802644 6 18 C6.33333333 15 6.33333333 15 6 12 C5.34 11.34 4.68 10.68 4 10 C2.40124678 6.62485432 2 4.83441243 2 1 C1.34 0.67 0.68 0.34 0 0 Z " fill="#B01218" transform="translate(48,9)"/>
<path d="M0 0 C1.99954746 -0.04254356 4.00041636 -0.04080783 6 0 C6.33 0.33 6.66 0.66 7 1 C6.91036938 2.69141656 6.75422324 4.37959602 6.5625 6.0625 C6.46066406 6.98160156 6.35882812 7.90070312 6.25390625 8.84765625 C6.12822266 9.91306641 6.12822266 9.91306641 6 11 C5.34 11 4.68 11 4 11 C4 10.01 4 9.02 4 8 C3.34 8 2.68 8 2 8 C2 8.99 2 9.98 2 11 C1.34 11 0.68 11 0 11 C0 7.37 0 3.74 0 0 Z " fill="#B6A99C" transform="translate(13,48)"/>
<path d="M0 0 C1.98 0 3.96 0 6 0 C6.33 3.96 6.66 7.92 7 12 C6.01 11.67 5.02 11.34 4 11 C4 10.01 4 9.02 4 8 C3.34 8 2.68 8 2 8 C2 8.99 2 9.98 2 11 C1.34 11 0.68 11 0 11 C0 7.37 0 3.74 0 0 Z " fill="#B9AEA2" transform="translate(50,48)"/>
<path d="M0 0 C0.66 0.66 1.32 1.32 2 2 C2.66 1.34 3.32 0.68 4 0 C4.99 0.33 5.98 0.66 7 1 C6.01 1.495 6.01 1.495 5 2 C5.33 2.99 5.66 3.98 6 5 C6.99 4.67 7.98 4.34 9 4 C8 7 8 7 6 8 C6 10.64 6 13.28 6 16 C4.5 14.8125 4.5 14.8125 3 13 C2.8125 10.3125 2.8125 10.3125 3 8 C0.525 7.01 0.525 7.01 -2 6 C-1.34 4.02 -0.68 2.04 0 0 Z " fill="#3C0508" transform="translate(19,10)"/>
<path d="M0 0 C-0.66 1.32 -1.32 2.64 -2 4 C-2.66 4 -3.32 4 -4 4 C-4.061875 4.7425 -4.12375 5.485 -4.1875 6.25 C-5.25929168 9.87760262 -7.03083459 10.70564491 -10 13 C-11.31783677 14.7927329 -12.52072681 16.61999799 -13.69140625 18.51171875 C-15.32922924 20.37443684 -16.59184458 20.61815718 -19 21 C-18.360625 20.2575 -17.72125 19.515 -17.0625 18.75 C-14.89857338 16.27187135 -14.89857338 16.27187135 -14.5625 13.875 C-14 12 -14 12 -11.6875 10.625 C-8.34909257 8.60642806 -7.04952396 6.27923834 -5 3 C-2.4 0 -2.4 0 0 0 Z " fill="#B31117" transform="translate(23,6)"/>
<path d="M0 0 C1.65 0 3.3 0 5 0 C5.33 1.32 5.66 2.64 6 4 C5.34 4 4.68 4 4 4 C4 3.34 4 2.68 4 2 C3.34 2 2.68 2 2 2 C2 2.99 2 3.98 2 5 C3.32 5.66 4.64 6.32 6 7 C6 8.98 6 10.96 6 13 C4.35 12.67 2.7 12.34 1 12 C0.67 10.68 0.34 9.36 0 8 C0.66 8 1.32 8 2 8 C2 8.66 2 9.32 2 10 C2.66 10 3.32 10 4 10 C3.34 9.46375 2.68 8.9275 2 8.375 C0 6 0 6 -0.25 2.75 C-0.1675 1.8425 -0.085 0.935 0 0 Z " fill="#CBBEB0" transform="translate(58,48)"/>
<path d="M0 0 C1.32 0 2.64 0 4 0 C5.1577506 3.47325181 5.06866652 6.36067448 5 10 C3.02 10.33 1.04 10.66 -1 11 C-1.14285714 3.57142857 -1.14285714 3.57142857 0 0 Z " fill="#B8AC9F" transform="translate(22,48)"/>
<path d="M0 0 C1.2065625 0.0309375 1.2065625 0.0309375 2.4375 0.0625 C2.4375 1.3825 2.4375 2.7025 2.4375 4.0625 C1.7775 4.0625 1.1175 4.0625 0.4375 4.0625 C0.4375 3.4025 0.4375 2.7425 0.4375 2.0625 C-0.2225 2.0625 -0.8825 2.0625 -1.5625 2.0625 C-1.5625 4.7025 -1.5625 7.3425 -1.5625 10.0625 C-0.9025 10.0625 -0.2425 10.0625 0.4375 10.0625 C0.4375 9.4025 0.4375 8.7425 0.4375 8.0625 C1.0975 8.0625 1.7575 8.0625 2.4375 8.0625 C2.1075 9.3825 1.7775 10.7025 1.4375 12.0625 C-0.2125 12.3925 -1.8625 12.7225 -3.5625 13.0625 C-3.58936553 11.08340602 -3.60883375 9.10421029 -3.625 7.125 C-3.63660156 6.02285156 -3.64820313 4.92070313 -3.66015625 3.78515625 C-3.52747618 0.086036 -3.52747618 0.086036 0 0 Z " fill="#CFC0B1" transform="translate(9.5625,47.9375)"/>
<path d="M0 0 C2.78633754 1.39316877 2.93492694 3.15980516 4 6 C4.33 6.33 4.66 6.66 5 7 C5.3125 9.8125 5.3125 9.8125 5 13 C3 15.375 3 15.375 1 17 C0.01 16.67 -0.98 16.34 -2 16 C-1.01 15.67 -0.02 15.34 1 15 C1 14.34 1 13.68 1 13 C0.01 12.67 -0.98 12.34 -2 12 C-1.01 12 -0.02 12 1 12 C0.67 11.01 0.34 10.02 0 9 C0.99 9 1.98 9 3 9 C2.505 8.443125 2.01 7.88625 1.5 7.3125 C-0.24754367 4.61837017 -0.26218749 3.14624993 0 0 Z " fill="#410D0F" transform="translate(50,14)"/>
<path d="M0 0 C1.98 0 3.96 0 6 0 C6 0.66 6 1.32 6 2 C5.01 2 4.02 2 3 2 C3 2.66 3 3.32 3 4 C3.66 4 4.32 4 5 4 C5 4.66 5 5.32 5 6 C4.34 6 3.68 6 3 6 C3 6.99 3 7.98 3 9 C3.99 9 4.98 9 6 9 C6 9.66 6 10.32 6 11 C3.03 10.505 3.03 10.505 0 10 C0 6.7 0 3.4 0 0 Z " fill="#B4A99D" transform="translate(43,48)"/>
<path d="M0 0 C0.66 0 1.32 0 2 0 C2 0.66 2 1.32 2 2 C2.99 2.33 3.98 2.66 5 3 C5.33 3.99 5.66 4.98 6 6 C5.01 6.495 5.01 6.495 4 7 C3.67 6.01 3.34 5.02 3 4 C2.01 3.67 1.02 3.34 0 3 C-0.2502157 5.91634129 -0.2502157 5.91634129 0 9 C0.99 9.66 1.98 10.32 3 11 C0.625 11.1875 0.625 11.1875 -2 11 C-4 8 -4 8 -3.625 5.3125 C-3.41875 4.549375 -3.2125 3.78625 -3 3 C-2.01 2.67 -1.02 2.34 0 2 C0 1.34 0 0.68 0 0 Z " fill="#6B0D0E" transform="translate(57,36)"/>
<path d="M0 0 C6.91995707 -0.88339877 10.59422159 1.88131168 16 6 C15.01 7.485 15.01 7.485 14 9 C13.41992188 8.57847656 12.83984375 8.15695313 12.2421875 7.72265625 C6.18555508 3.46953991 6.18555508 3.46953991 -1 2 C-0.67 1.34 -0.34 0.68 0 0 Z " fill="#120204" transform="translate(12,60)"/>
<path d="M0 0 C0.66 0 1.32 0 2 0 C2 1.32 2 2.64 2 4 C2.66 4 3.32 4 4 4 C4 2.68 4 1.36 4 0 C4.66 0 5.32 0 6 0 C6 3.3 6 6.6 6 10 C5.34 10 4.68 10 4 10 C4 8.68 4 7.36 4 6 C3.34 6 2.68 6 2 6 C2 7.32 2 8.64 2 10 C1.34 10 0.68 10 0 10 C0 6.7 0 3.4 0 0 Z " fill="#D7C9BA" transform="translate(36,48)"/>
<path d="M0 0 C1.3303125 0.37125 1.3303125 0.37125 2.6875 0.75 C0.6875 2.75 0.6875 2.75 -2.3125 3.75 C-1.19395414 7.47614153 -1.19395414 7.47614153 1.6875 9.75 C0.0375 9.75 -1.6125 9.75 -3.3125 9.75 C-3.580625 8.945625 -3.84875 8.14125 -4.125 7.3125 C-4.516875 6.466875 -4.90875 5.62125 -5.3125 4.75 C-6.3025 4.42 -7.2925 4.09 -8.3125 3.75 C-4.12788462 -0.31153846 -4.12788462 -0.31153846 0 0 Z " fill="#9A090C" transform="translate(42.3125,11.25)"/>
<path d="M0 0 C1.65 0 3.3 0 5 0 C4.67 0.99 4.34 1.98 4 3 C3.34 2.67 2.68 2.34 2 2 C2.7425 2.5878125 2.7425 2.5878125 3.5 3.1875 C5.45593143 5.55091715 5.24207973 7.01435003 5 10 C3.35 10 1.7 10 0 10 C0 7 0 7 1 6 C0.34 5.67 -0.32 5.34 -1 5 C-0.67 3.35 -0.34 1.7 0 0 Z " fill="#BDB1A4" transform="translate(29,48)"/>
<path d="M0 0 C0.99 0.33 1.98 0.66 3 1 C3 1.66 3 2.32 3 3 C4.32 3.33 5.64 3.66 7 4 C5.68 4 4.36 4 3 4 C2.67 7.63 2.34 11.26 2 15 C1.34 15 0.68 15 0 15 C0 11.7 0 8.4 0 5 C-1.65 4.67 -3.3 4.34 -5 4 C-5 3.67 -5 3.34 -5 3 C-3.35 2.67 -1.7 2.34 0 2 C0 1.34 0 0.68 0 0 Z " fill="#22201F" transform="translate(19,44)"/>
<path d="M0 0 C2.475 0.99 2.475 0.99 5 2 C5 2.99 5 3.98 5 5 C5.66 5 6.32 5 7 5 C6.67 6.32 6.34 7.64 6 9 C2.89448334 9 1.64738916 8.4606285 -1 7 C-0.67 6.01 -0.34 5.02 0 4 C0.33 4.33 0.66 4.66 1 5 C0.67 3.35 0.34 1.7 0 0 Z " fill="#110305" transform="translate(43,5)"/>
<path d="M0 0 C1.9375 0.375 1.9375 0.375 4 1 C4.33 1.66 4.66 2.32 5 3 C5.66 3 6.32 3 7 3 C7 4.65 7 6.3 7 8 C6.67 7.34 6.34 6.68 6 6 C3.69 6.33 1.38 6.66 -1 7 C-0.67 4.69 -0.34 2.38 0 0 Z " fill="#2C0507" transform="translate(57,39)"/>
<path d="M0 0 C0.66 0 1.32 0 2 0 C1.73958333 1.98567708 1.47916667 3.97135417 1.21875 5.95703125 C0.946767 8.15471706 0.946767 8.15471706 1 11 C2.65 11 4.3 11 6 11 C5.67 11.99 5.34 12.98 5 14 C2.69 13.67 0.38 13.34 -2 13 C-1.85966889 11.02043559 -1.7125877 9.04134859 -1.5625 7.0625 C-1.48128906 5.96035156 -1.40007813 4.85820312 -1.31640625 3.72265625 C-1 1 -1 1 0 0 Z " fill="#720609" transform="translate(40,25)"/>
<path d="M0 0 C1.98 0.66 3.96 1.32 6 2 C6 1.34 6 0.68 6 0 C7.32 0.33 8.64 0.66 10 1 C6.98112756 4.48331435 4.43090471 5.79157144 0 7 C0 4.69 0 2.38 0 0 Z " fill="#1B0305" transform="translate(31,9)"/>
<path d="M0 0 C2.64 0.66 5.28 1.32 8 2 C8 2.99 8 3.98 8 5 C7.34 5 6.68 5 6 5 C6 6.65 6 8.3 6 10 C5.34 9.34 4.68 8.68 4 8 C2.68252676 7.30251417 1.35085807 6.63040043 0 6 C0.66 5.67 1.32 5.34 2 5 C1.34 3.35 0.68 1.7 0 0 Z " fill="#5B080A" transform="translate(40,15)"/>
<path d="M0 0 C0.33 0.99 0.66 1.98 1 3 C-0.73656095 4.22756895 -2.48980377 5.43156853 -4.25 6.625 C-5.22453125 7.29789062 -6.1990625 7.97078125 -7.203125 8.6640625 C-10 10 -10 10 -12.359375 9.2109375 C-12.90078125 8.81132813 -13.4421875 8.41171875 -14 8 C-12.98679688 7.51080078 -12.98679688 7.51080078 -11.953125 7.01171875 C-11.06109375 6.57472656 -10.1690625 6.13773437 -9.25 5.6875 C-8.36828125 5.25824219 -7.4865625 4.82898438 -6.578125 4.38671875 C-4.18399785 3.09896854 -2.12223042 1.69084246 0 0 Z " fill="#87090D" transform="translate(48,65)"/>
<path d="M0 0 C2.4375 0.8125 2.4375 0.8125 5 2 C5.33 2.99 5.66 3.98 6 5 C9.17242648 6.31035007 11.55881664 7 15 7 C15 7.66 15 8.32 15 9 C7.74559194 9.3627204 7.74559194 9.3627204 4.6875 7.875 C2.5294255 5.47713944 1.30467042 2.93550845 0 0 Z " fill="#C40F12" transform="translate(9,31)"/>
<path d="M0 0 C1 3 1 3 1 4 C1.99 4.33 2.98 4.66 4 5 C3.49396008 7.16874252 3.00016187 8.99967627 2 11 C0.68 11 -0.64 11 -2 11 C-2 8.03 -2 5.06 -2 2 C-1.34 2 -0.68 2 0 2 C0 1.34 0 0.68 0 0 Z " fill="#902A29" transform="translate(48,18)"/>
<path d="M0 0 C1.98 0.495 1.98 0.495 4 1 C4 2.65 4 4.3 4 6 C3.01 6 2.02 6 1 6 C0.67 9.63 0.34 13.26 0 17 C-0.33 17 -0.66 17 -1 17 C-1 13.04 -1 9.08 -1 5 C-0.34 4.67 0.32 4.34 1 4 C0.67 2.68 0.34 1.36 0 0 Z " fill="#A90C0F" transform="translate(3,41)"/>
<path d="M0 0 C0.33 0 0.66 0 1 0 C1 2.31 1 4.62 1 7 C0.01 7 -0.98 7 -2 7 C-2 7.66 -2 8.32 -2 9 C-2.66 9 -3.32 9 -4 9 C-4 6.36 -4 3.72 -4 1 C-3.34 1 -2.68 1 -2 1 C-2 1.66 -2 2.32 -2 3 C-1.34 3 -0.68 3 0 3 C0 2.01 0 1.02 0 0 Z " fill="#131213" transform="translate(12,49)"/>
<path d="M0 0 C0.66 0 1.32 0 2 0 C2 1.65 2 3.3 2 5 C3.32 5.66 4.64 6.32 6 7 C6 7.66 6 8.32 6 9 C5.34 9 4.68 9 4 9 C4 8.34 4 7.68 4 7 C3.34 7 2.68 7 2 7 C2.33 8.32 2.66 9.64 3 11 C2.34 11 1.68 11 1 11 C-0.20272819 8.59454362 -0.10071472 7.05003047 -0.0625 4.375 C-0.05347656 3.55773438 -0.04445312 2.74046875 -0.03515625 1.8984375 C-0.02355469 1.27195313 -0.01195312 0.64546875 0 0 Z " fill="#2C2A29" transform="translate(56,49)"/>
<path d="M0 0 C0.99 0 1.98 0 3 0 C5.32590854 3.63423209 5.16265833 6.77088331 5 11 C4.34 10.34 3.68 9.68 3 9 C3 7.68 3 6.36 3 5 C2.01 5.33 1.02 5.66 0 6 C0 4.02 0 2.04 0 0 Z " fill="#7E0507" transform="translate(28,22)"/>
<path d="M0 0 C0.33 0 0.66 0 1 0 C1 4.29 1 8.58 1 13 C2.65 13 4.3 13 6 13 C6 13.33 6 13.66 6 14 C4.02 14.33 2.04 14.66 0 15 C-2.27477677 11.46145836 -1.99082706 9.29052627 -1.125 5.25 C-0.92132813 4.26515625 -0.71765625 3.2803125 -0.5078125 2.265625 C-0.34023438 1.51796875 -0.17265625 0.7703125 0 0 Z " fill="#76060B" transform="translate(3,50)"/>
<path d="M0 0 C0.33 0 0.66 0 1 0 C1 3.63 1 7.26 1 11 C0.67 10.34 0.34 9.68 0 9 C-0.99 9 -1.98 9 -3 9 C-3 8.01 -3 7.02 -3 6 C-2.34 6 -1.68 6 -1 6 C-1 5.34 -1 4.68 -1 4 C-1.66 4 -2.32 4 -3 4 C-3 3.34 -3 2.68 -3 2 C-2.01 2 -1.02 2 0 2 C0 1.34 0 0.68 0 0 Z " fill="#232221" transform="translate(49,48)"/>
<path d="M0 0 C0.66 0 1.32 0 2 0 C2 3.3 2 6.6 2 10 C1.34 10 0.68 10 0 10 C0 8.35 0 6.7 0 5 C-0.99 4.67 -1.98 4.34 -3 4 C-3 3.34 -3 2.68 -3 2 C-2.34 2 -1.68 2 -1 2 C-0.67 1.34 -0.34 0.68 0 0 Z " fill="#43403D" transform="translate(34,48)"/>
<path d="M0 0 C1.32 0.33 2.64 0.66 4 1 C3.67 3.31 3.34 5.62 3 8 C1.35 6.35 -0.3 4.7 -2 3 C-1.34 2.01 -0.68 1.02 0 0 Z " fill="#680507" transform="translate(6,29)"/>
<path d="M0 0 C-0.66 1.32 -1.32 2.64 -2 4 C-2.66 4 -3.32 4 -4 4 C-4.33 5.65 -4.66 7.3 -5 9 C-5.99 9 -6.98 9 -8 9 C-6.68994234 5.06982701 -4.75047804 0 0 0 Z " fill="#9E1F26" transform="translate(23,6)"/>
<path d="M0 0 C0.33 0 0.66 0 1 0 C1.28571429 7.42857143 1.28571429 7.42857143 -1 11 C-1.28875 10.030625 -1.5775 9.06125 -1.875 8.0625 C-2.64214682 4.89335797 -2.64214682 4.89335797 -5 4 C-5 3.01 -5 2.02 -5 1 C-4.34 1 -3.68 1 -3 1 C-3 1.66 -3 2.32 -3 3 C-2.01 3 -1.02 3 0 3 C0 2.01 0 1.02 0 0 Z " fill="#282524" transform="translate(65,49)"/>
<path d="M0 0 C1.65 0.33 3.3 0.66 5 1 C4.67 1.99 4.34 2.98 4 4 C3.34 3.67 2.68 3.34 2 3 C2 4.32 2 5.64 2 7 C1.34 7 0.68 7 0 7 C-1.125 2.25 -1.125 2.25 0 0 Z " fill="#584B45" transform="translate(25,39)"/>
<path d="M0 0 C0.66 0.33 1.32 0.66 2 1 C1.67 2.65 1.34 4.3 1 6 C-0.98 6.33 -2.96 6.66 -5 7 C-5 6.01 -5 5.02 -5 4 C-4.360625 3.71125 -3.72125 3.4225 -3.0625 3.125 C-0.84793921 2.17176549 -0.84793921 2.17176549 0 0 Z " fill="#880609" transform="translate(19,24)"/>
<path d="M0 0 C4.30764815 1.56641751 8.06171464 3.68336156 12 6 C9.46100862 6.9435441 8.39090725 7.16906025 5.859375 6.07421875 C5.16328125 5.61660156 4.4671875 5.15898438 3.75 4.6875 C3.04359375 4.23761719 2.3371875 3.78773437 1.609375 3.32421875 C1.07828125 2.88722656 0.5471875 2.45023437 0 2 C0 1.34 0 0.68 0 0 Z " fill="#A2090F" transform="translate(24,68)"/>
<path d="M0 0 C0.33 0.99 0.66 1.98 1 3 C-1.375 4.5625 -1.375 4.5625 -4 6 C-4.66 5.67 -5.32 5.34 -6 5 C-5.67 3.68 -5.34 2.36 -5 1 C-3.35 0.67 -1.7 0.34 0 0 Z " fill="#120305" transform="translate(50,61)"/>
<path d="M0 0 C0.33 0 0.66 0 1 0 C1 1.98 1 3.96 1 6 C1.66 6 2.32 6 3 6 C3 5.34 3 4.68 3 4 C3.66 4 4.32 4 5 4 C4.67 5.32 4.34 6.64 4 8 C2.35 8.33 0.7 8.66 -1 9 C-0.67 6.03 -0.34 3.06 0 0 Z " fill="#B0A498" transform="translate(7,52)"/>
<path d="M0 0 C0.99 0.495 0.99 0.495 2 1 C1.01 1.495 1.01 1.495 0 2 C0 1.34 0 0.68 0 0 Z M-3 2 C-0.03824877 2.61277612 1.38058783 3.25372522 4 5 C3.67 5.66 3.34 6.32 3 7 C0.03 6.505 0.03 6.505 -3 6 C-3 4.68 -3 3.36 -3 2 Z " fill="#1E0407" transform="translate(3,32)"/>
<path d="M0 0 C0.99 0 1.98 0 3 0 C2.8125 1.875 2.8125 1.875 2 4 C-0.5625 5.25 -0.5625 5.25 -3 6 C-2.42655063 3.13275314 -2.1385485 2.1385485 0 0 Z " fill="#D71215" transform="translate(16,23)"/>
<path d="M0 0 C0 0.66 0 1.32 0 2 C-1.65 1.67 -3.3 1.34 -5 1 C-5 1.66 -5 2.32 -5 3 C-6.65 2.67 -8.3 2.34 -10 2 C-10 1.34 -10 0.68 -10 0 C-2.25 -1.125 -2.25 -1.125 0 0 Z " fill="#070204" transform="translate(38,4)"/>
<path d="M0 0 C0.66 0 1.32 0 2 0 C2.66 1.98 3.32 3.96 4 6 C2.35 6.33 0.7 6.66 -1 7 C-1.33 5.68 -1.66 4.36 -2 3 C-1.34 3 -0.68 3 0 3 C0 2.01 0 1.02 0 0 Z " fill="#261A1A" transform="translate(52,56)"/>
<path d="M0 0 C0.66 0.66 1.32 1.32 2 2 C2.99 2.33 3.98 2.66 5 3 C4.34 3 3.68 3 3 3 C3 4.32 3 5.64 3 7 C1.68 7.33 0.36 7.66 -1 8 C-0.67 5.36 -0.34 2.72 0 0 Z " fill="#110B0D" transform="translate(45,26)"/>
<path d="M0 0 C3.87132028 0.57352893 6.08172796 2.48704352 9 5 C5 5 5 5 2.25 2.5 C1.5075 1.675 0.765 0.85 0 0 Z " fill="#8A1519" transform="translate(16,63)"/>
<path d="M0 0 C2.475 0.99 2.475 0.99 5 2 C5 2.99 5 3.98 5 5 C5.66 5.33 6.32 5.66 7 6 C5.35 6 3.7 6 2 6 C1.34 4.02 0.68 2.04 0 0 Z " fill="#1E0507" transform="translate(43,5)"/>
<path d="M0 0 C1.32 0.33 2.64 0.66 4 1 C4.33 3.31 4.66 5.62 5 8 C4.67 7.01 4.34 6.02 4 5 C3.01 5 2.02 5 1 5 C0.67 3.35 0.34 1.7 0 0 Z " fill="#D61C22" transform="translate(47,4)"/>
<path d="M0 0 C0.33 0.99 0.66 1.98 1 3 C1.66 3 2.32 3 3 3 C3 2.01 3 1.02 3 0 C3.66 0 4.32 0 5 0 C5 0.99 5 1.98 5 3 C5.66 3.33 6.32 3.66 7 4 C4.39417629 4.93065133 3.35801776 5.14917407 0.75 4.0625 C0.1725 3.711875 -0.405 3.36125 -1 3 C-0.67 2.01 -0.34 1.02 0 0 Z " fill="#32302E" transform="translate(12,56)"/>
<path d="M0 0 C0.66 0 1.32 0 2 0 C2 0.66 2 1.32 2 2 C2.66 2 3.32 2 4 2 C4.33 1.34 4.66 0.68 5 0 C5.33 1.65 5.66 3.3 6 5 C4.35 4.67 2.7 4.34 1 4 C0.67 2.68 0.34 1.36 0 0 Z " fill="#A2978D" transform="translate(58,56)"/>
<path d="M0 0 C1.65 0.33 3.3 0.66 5 1 C4.67 1.66 4.34 2.32 4 3 C3.34 2.67 2.68 2.34 2 2 C1.67 3.32 1.34 4.64 1 6 C0.34 5.67 -0.32 5.34 -1 5 C-0.67 3.35 -0.34 1.7 0 0 Z " fill="#363432" transform="translate(27,53)"/>
<path d="M0 0 C2.31 0.66 4.62 1.32 7 2 C7 2.66 7 3.32 7 4 C5.35 4 3.7 4 2 4 C1.34 2.68 0.68 1.36 0 0 Z " fill="#2D0F11" transform="translate(40,15)"/>
</svg>
