<?xml version="1.0" encoding="UTF-8"?>
<svg version="1.1" xmlns="http://www.w3.org/2000/svg" width="297" height="329">
<path d="M0 0 C3.54886497 0.6835586 6.30707855 2.1318263 9.453125 3.88671875 C10.53480957 4.48814697 11.61649414 5.0895752 12.73095703 5.70922852 C13.90411129 6.36840336 15.07712192 7.02783387 16.25 7.6875 C17.4685084 8.36854928 18.68709676 9.04945552 19.90576172 9.73022461 C28.68366365 14.6457545 37.38482128 19.68749858 46.05737305 24.78662109 C54.30868988 29.62843283 62.64074468 34.31640842 71.01416016 38.94360352 C72.90358941 39.99217145 74.78340761 41.05830469 76.65167904 42.14412212 C79.03402372 43.46458717 81.33295204 44.62221643 83.80270481 45.73853016 C94.02310059 50.64405498 94.02310059 50.64405498 96.42835808 56.44470787 C97.02142664 60.73384106 97.13456132 64.81055895 97.08374023 69.12963867 C97.1188528 70.75369205 97.1601766 72.37762111 97.2071991 74.00137329 C97.31363977 78.39335962 97.32458082 82.78058761 97.31126666 87.17366195 C97.30768452 90.85148771 97.34812261 94.52833831 97.38741547 98.20591527 C97.47827539 106.89131391 97.48843462 115.57429846 97.44995117 124.26000977 C97.41194141 133.19276166 97.51727384 142.11577479 97.69260257 151.04666919 C97.83804347 158.73846449 97.88956769 166.42715697 97.8681789 174.12029058 C97.85658682 178.70545009 97.88011701 183.28328257 97.99600029 187.86714745 C98.6387459 215.51024964 98.6387459 215.51024964 92.69496536 222.84412003 C87.09827039 227.51815783 80.9490614 230.27704114 74.14583015 232.75896645 C68.89517879 234.83035435 64.15602773 237.75273372 59.3125 240.625 C57.40742281 241.70360177 55.50016438 242.77836864 53.58984375 243.84765625 C45.56408259 248.3676247 37.57314941 252.94832183 29.57958984 257.52490234 C27.00913645 258.99477546 24.43655807 260.46085746 21.86328125 261.92578125 C11.65426697 267.74073687 1.48487098 273.61943065 -8.65795898 279.54907227 C-16.54998616 284.16068235 -24.45812542 288.74373219 -32.375 293.3125 C-33.50510498 293.96516846 -34.63520996 294.61783691 -35.79956055 295.2902832 C-36.84281494 295.89187256 -37.88606934 296.49346191 -38.9609375 297.11328125 C-39.88696777 297.64735596 -40.81299805 298.18143066 -41.76708984 298.73168945 C-45.51088719 300.85819582 -47.6312003 301.32958948 -52 301 C-54.74145508 299.79418945 -54.74145508 299.79418945 -57.51953125 298.11328125 C-58.54240234 297.50419922 -59.56527344 296.89511719 -60.61914062 296.26757812 C-61.67294922 295.62240234 -62.72675781 294.97722656 -63.8125 294.3125 C-65.90188756 293.05783375 -67.99172452 291.80391554 -70.08203125 290.55078125 C-71.00218018 289.99044189 -71.9223291 289.43010254 -72.87036133 288.8527832 C-76.86645066 286.48705094 -80.94053755 284.25525691 -85 282 C-85 270.45 -85 258.9 -85 247 C-81.14113339 248.54354665 -77.81306965 250.12892911 -74.21875 252.15234375 C-73.12949219 252.76400391 -72.04023437 253.37566406 -70.91796875 254.00585938 C-69.79003906 254.64330078 -68.66210938 255.28074219 -67.5 255.9375 C-66.37207031 256.57107422 -65.24414062 257.20464844 -64.08203125 257.85742188 C-55.47520941 262.70066896 -55.47520941 262.70066896 -52.28686523 264.70898438 C-50.09331545 266.2051463 -50.09331545 266.2051463 -47.62890625 265.94140625 C-44.13063907 264.68868353 -41.08631075 262.87581996 -37.9375 260.9375 C-36.41785658 260.02275989 -34.89692655 259.11015517 -33.375 258.19921875 C-32.52808594 257.69181152 -31.68117187 257.1844043 -30.80859375 256.66162109 C-25.985342 253.80808742 -21.11032138 251.04496722 -16.23898315 248.2746582 C-5.77594224 242.32342814 4.64885376 236.31106121 15.03881836 230.23291016 C22.55320439 225.83861292 30.08444383 221.4742326 37.625 217.125 C38.65512207 216.53066162 39.68524414 215.93632324 40.74658203 215.32397461 C48.48653198 210.86272758 56.24331359 206.43239223 64 202 C64 158.77 64 115.54 64 71 C55.75 66.38 47.5 61.76 39 57 C34.21283535 54.20886359 29.43872543 51.41203923 24.6875 48.5625 C22.52497949 47.27173341 20.36222079 45.98136577 18.19921875 44.69140625 C17.18166504 44.06194092 16.16411133 43.43247559 15.11572266 42.78393555 C12.01628647 40.92062243 12.01628647 40.92062243 8.56787109 39.58520508 C5.05538729 38.02924773 2.6594976 36.78487839 0 34 C-1.48044217 28.12088096 -1.14126661 22.56745813 -0.75 16.5625 C-0.68974761 14.95657934 -0.63500484 13.35044194 -0.5859375 11.74414062 C-0.4542286 7.82404485 -0.24764713 3.91441209 0 0 Z " fill="#FEFEFE" transform="translate(192,28)"/>
<path d="M0 0 C2.83325195 1.18994141 2.83325195 1.18994141 5.73828125 2.8515625 C7.34026367 3.75841797 7.34026367 3.75841797 8.97460938 4.68359375 C10.07611328 5.32425781 11.17761719 5.96492187 12.3125 6.625 C13.94735352 7.55119141 13.94735352 7.55119141 15.61523438 8.49609375 C17.76356727 9.72334345 19.89658431 10.97784076 22.01245117 12.26025391 C24.90554627 14.02680183 24.90554627 14.02680183 27.77856445 15.18896484 C30.59968211 16.53854531 32.13522735 17.47202607 34 20 C35.1062198 25.83152009 34.84939199 31.4723628 34.5625 37.375 C34.51732125 38.98556569 34.47626251 40.59625255 34.43945312 42.20703125 C34.34059804 46.14102423 34.18553571 50.06918014 34 54 C30.06512143 53.31225218 27.02696045 51.45163185 23.58984375 49.47265625 C22.9811293 49.12367783 22.37241486 48.7746994 21.74525452 48.41514587 C19.80669816 47.30211351 17.87216028 46.18228782 15.9375 45.0625 C14.63240363 44.31272934 13.32706753 43.56337581 12.02148438 42.81445312 C2.56953788 37.37969192 2.56953788 37.37969192 -1 35 C-4.79788433 35.33785693 -7.51322404 36.65807063 -10.75390625 38.59765625 C-12.13823853 39.4170166 -12.13823853 39.4170166 -13.55053711 40.25292969 C-14.54448486 40.85008789 -15.53843262 41.44724609 -16.5625 42.0625 C-18.72058479 43.34114319 -20.87947265 44.6184317 -23.0390625 45.89453125 C-24.7391748 46.9012085 -24.7391748 46.9012085 -26.47363281 47.92822266 C-31.82690957 51.08410322 -37.23096093 54.15130474 -42.63259888 57.22338867 C-51.30548653 62.15644822 -59.95986186 67.11661623 -68.54589844 72.19970703 C-75.06635547 76.05445726 -81.62582856 79.84092574 -88.1875 83.625 C-89.24469238 84.23480713 -90.30188477 84.84461426 -91.39111328 85.47290039 C-92.43122559 86.07223389 -93.47133789 86.67156738 -94.54296875 87.2890625 C-95.52301376 87.88948868 -96.50305878 88.48991486 -97.51280212 89.10853577 C-101 91 -101 91 -104.62962341 92.07748413 C-109.05577314 93.66677842 -112.27769441 95.06475002 -115 99 C-117.64473114 107.68613037 -116.93706094 117.25979518 -116.82337332 126.26386261 C-116.7919909 129.91443815 -116.83989162 133.56397975 -116.87918091 137.21435547 C-116.94153496 144.11728378 -116.93316544 151.01822015 -116.89903176 157.92127228 C-116.86362331 165.7838658 -116.90759327 173.64539901 -116.95804572 181.5078373 C-117.06000301 197.67234306 -117.06288157 213.83527687 -117 230 C-115.81939751 230.46644928 -115.81939751 230.46644928 -114.61494446 230.94232178 C-112.44361615 231.8205686 -110.46057096 232.75645002 -108.41796875 233.890625 C-107.74580322 234.2630835 -107.0736377 234.63554199 -106.38110352 235.01928711 C-105.65721436 235.42542236 -104.9333252 235.83155762 -104.1875 236.25 C-103.41269287 236.68256104 -102.63788574 237.11512207 -101.83959961 237.56079102 C-97.25494286 240.13361527 -92.69508091 242.74733473 -88.1484375 245.38671875 C-87.14917236 245.96607178 -86.14990723 246.5454248 -85.12036133 247.14233398 C-83.0732138 248.34414443 -81.03652926 249.56394865 -79.01049805 250.80102539 C-74.17595147 253.72863999 -69.60006074 256.26655415 -64.24609375 258.109375 C-53.95572601 261.97712105 -53.95572601 261.97712105 -51 267 C-48.66198609 278.46158508 -49.85319483 290.44373256 -51 302 C-54.63632623 300.62551133 -57.97064121 298.99565142 -61.359375 297.09375 C-62.89525269 296.23354248 -62.89525269 296.23354248 -64.4621582 295.35595703 C-65.547146 294.74349121 -66.63213379 294.13102539 -67.75 293.5 C-68.87817139 292.86562012 -70.00634277 292.23124023 -71.16870117 291.57763672 C-77.90787978 287.77738057 -84.60779745 283.91985528 -91.25927734 279.96850586 C-98.0866018 275.92205135 -104.98074588 271.99334217 -111.875 268.0625 C-120.32144235 263.24465787 -128.76668749 258.4250727 -137.1875 253.5625 C-138.37158447 252.88102905 -138.37158447 252.88102905 -139.57958984 252.18579102 C-144.88176992 249.11823008 -144.88176992 249.11823008 -146 248 C-146.13425768 245.87181933 -146.1976007 243.73916038 -146.23464966 241.60707092 C-146.2474987 240.93131891 -146.26034775 240.2555669 -146.27358615 239.55933756 C-146.31528537 237.27797935 -146.34943712 234.99657501 -146.38330078 232.71508789 C-146.41082973 231.08586288 -146.43856484 229.45664134 -146.4664917 227.8274231 C-146.71217003 212.92387426 -146.85157827 198.0187938 -146.96293831 183.11370182 C-147.03952343 173.09102164 -147.14810317 163.0708028 -147.33740234 153.04956055 C-147.50248972 144.30921987 -147.60749315 135.57059494 -147.64017475 126.82871813 C-147.65943898 122.20195182 -147.70791728 117.57979453 -147.82797623 112.95445442 C-148.52808444 84.83786956 -148.52808444 84.83786956 -144.36228943 78.51380157 C-140.47509994 74.83938391 -136.23872646 73.05702701 -131.13491249 71.66085148 C-127.73145082 70.60732695 -124.97800346 68.81397158 -121.953125 66.9453125 C-119.71937611 65.67077706 -117.48499457 64.39734979 -115.25 63.125 C-114.03459804 62.4318446 -112.81926746 61.73856405 -111.60400391 61.04516602 C-109.18782409 59.66674834 -106.7713384 58.28887001 -104.35449219 56.91162109 C-89.77596081 48.60376806 -75.22116088 40.25618539 -60.69140625 31.86328125 C-56.24330774 29.29394729 -51.79272122 26.7290111 -47.33984375 24.16796875 C-46.24792725 23.53938965 -45.15601074 22.91081055 -44.03100586 22.26318359 C-41.85942002 21.01345929 -39.68706724 19.76506665 -37.51391602 18.51806641 C-32.20062863 15.46048488 -26.92057755 12.36115744 -21.6875 9.16796875 C-20.6862207 8.56098145 -19.68494141 7.95399414 -18.65332031 7.32861328 C-16.77070751 6.18340465 -14.89457925 5.0274403 -13.02636719 3.85888672 C-12.18750977 3.34986816 -11.34865234 2.84084961 -10.484375 2.31640625 C-9.75959961 1.86724854 -9.03482422 1.41809082 -8.28808594 0.95532227 C-5.29482657 -0.2944242 -3.22390154 -0.33826804 0 0 Z " fill="#FEFEFE" transform="translate(146,0)"/>
<path d="M0 0 C4.40393064 0.88078613 6.53098371 1.65819435 10.26171875 3.8515625 C11.28475098 4.44783447 12.3077832 5.04410645 13.36181641 5.65844727 C14.45929199 6.30740967 15.55676758 6.95637207 16.6875 7.625 C17.8477084 8.30404975 19.00836111 8.98234087 20.16943359 9.65991211 C22.58227311 11.06872425 24.99316635 12.4807863 27.40283203 13.89501953 C32.95760474 17.15087928 38.54359527 20.35260067 44.125 23.5625 C52.65630151 28.48202842 61.17792913 33.41797501 69.6875 38.375 C70.60611816 38.90939697 71.52473633 39.44379395 72.47119141 39.99438477 C74.30340129 41.0633105 76.12463206 42.15126138 77.93481445 43.25708008 C80.29023514 44.59641486 82.53884762 45.69936163 85.00854492 46.7800293 C94.95338386 51.41434525 94.95338386 51.41434525 96.76785278 55.89697266 C97.85760852 61.27490278 97.37105838 66.63456726 96.9375 72.0625 C96.86215099 73.70737699 96.79372814 75.35258666 96.73242188 76.99804688 C96.56806276 81.00699118 96.31015451 84.99980212 96 89 C92.19037936 87.575794 88.75596032 85.82091117 85.23046875 83.796875 C84.10535889 83.15266602 82.98024902 82.50845703 81.82104492 81.84472656 C80.60979251 81.14660715 79.39861248 80.44836214 78.1875 79.75 C76.93931844 79.03333799 75.69102607 78.31686891 74.44262695 77.60058594 C63.44709468 71.28476363 52.49103118 64.90098599 41.5534668 58.48535156 C38.37934399 56.63896442 35.18826177 54.82186387 32 53 C31.67 67.52 31.34 82.04 31 97 C40.41897964 96.96139026 40.41897964 96.96139026 49.83789062 96.90991211 C65.23318725 96.87939714 80.61577935 97.47163132 96 98 C96.30191938 107.37914427 96.5325298 116.75660492 96.67355824 126.13955688 C96.74126814 130.49729613 96.83298339 134.85170042 96.98071289 139.20751953 C97.1225401 143.41590744 97.1997985 147.6211017 97.23340416 151.83169556 C97.25732998 153.43326128 97.30406485 155.03466175 97.37449074 156.63485718 C97.58869367 161.7061141 97.56441708 166.13700239 96 171 C92.06766093 174.83022444 88.02115335 176.76541362 83 179 C80.85084268 180.21789026 78.71218314 181.45470516 76.58984375 182.71875 C74.37362432 183.9813255 72.15613108 185.24166715 69.9375 186.5 C68.72349065 187.19099378 67.50962696 187.88224354 66.29589844 188.57373047 C63.7842896 190.00430957 61.27207439 191.43381371 58.75927734 192.86230469 C53.33647097 195.94538376 47.91701593 199.03432356 42.49951172 202.12670898 C40.75922236 203.11973762 39.01828466 204.11162972 37.27734375 205.10351562 C31.49851375 208.40242821 25.73915995 211.73008455 20.01171875 215.1171875 C18.9040918 215.77058105 17.79646484 216.42397461 16.65527344 217.09716797 C14.55740555 218.33774326 12.46282713 219.58390326 10.37207031 220.83642578 C8.97939941 221.65989502 8.97939941 221.65989502 7.55859375 222.5 C6.74704834 222.9846875 5.93550293 223.469375 5.09936523 223.96875 C3 225 3 225 0 225 C-0.02971966 221.60418597 -0.04703393 218.20840648 -0.0625 214.8125 C-0.07087891 213.87212891 -0.07925781 212.93175781 -0.08789062 211.96289062 C-0.09450381 210.01199987 -0.07911674 208.06093204 -0.04370117 206.11035156 C-0.01314088 203.93527819 -0.04445336 201.75885508 -0.12231445 199.58496094 C-0.10979516 191.22207015 -0.10979516 191.22207015 2.81958008 187.99633789 C5.44414748 186.26258789 8.07826578 184.93597814 10.9375 183.625 C13.04051247 182.55362265 15.14201837 181.47928409 17.2421875 180.40234375 C18.3465918 179.85433105 19.45099609 179.30631836 20.58886719 178.74169922 C26.37802007 175.78580052 31.9556985 172.47238763 37.5625 169.1875 C39.74013212 167.92838379 41.91849322 166.6705273 44.09765625 165.4140625 C47.62961676 163.37282438 51.15858121 161.32664639 54.68359375 159.2734375 C55.95569662 158.53640215 57.22782861 157.79941706 58.5 157.0625 C59.5415625 156.45535156 60.583125 155.84820312 61.65625 155.22265625 C64 154 64 154 66 154 C66 145.42 66 136.84 66 128 C44.22 128 22.44 128 0 128 C0 85.76 0 43.52 0 0 Z " fill="#FEFEFE" transform="translate(149,52)"/>
<path d="M0 0 C0 11.55 0 23.1 0 35 C-3.3 36.85625 -6.6 38.7125 -10 40.625 C-26.90452482 50.13997039 -26.90452482 50.13997039 -43.57408142 60.05741882 C-46.13861753 61.51157468 -48.56087333 62.70729509 -51.24855042 63.87236023 C-59.35329689 67.45195253 -59.35329689 67.45195253 -64.96786499 73.94825554 C-66.45978838 79.51575646 -66.10049966 85.2071671 -65.87890625 90.9140625 C-65.86962222 92.73820773 -65.86786674 94.56240533 -65.87327576 96.38656616 C-65.86741249 101.16047625 -65.76016638 105.92678151 -65.63085938 110.69873047 C-65.51686184 115.57863933 -65.49996748 120.45881187 -65.47460938 125.33984375 C-65.41079389 134.895938 -65.23973186 144.44681205 -65 154 C-64.21456818 154.30998428 -63.42913635 154.61996857 -62.61990356 154.93934631 C-60.38338836 155.84478731 -58.34510884 156.8234932 -56.2421875 157.99609375 C-55.54448242 158.38385986 -54.84677734 158.77162598 -54.12792969 159.17114258 C-53.38446289 159.58904053 -52.64099609 160.00693848 -51.875 160.4375 C-50.69019043 161.10011841 -50.69019043 161.10011841 -49.48144531 161.77612305 C-36.51259286 169.0528627 -23.68697082 176.5764995 -10.875 184.125 C-9.42432129 184.97831909 -9.42432129 184.97831909 -7.94433594 185.84887695 C-7.05262695 186.37570068 -6.16091797 186.90252441 -5.2421875 187.4453125 C-4.4466748 187.91469238 -3.65116211 188.38407227 -2.83154297 188.86767578 C-1 190 -1 190 0 191 C0.08847743 193.52094076 0.11527301 196.01430893 0.09765625 198.53515625 C0.0962413 199.28840683 0.09482635 200.04165741 0.09336853 200.81773376 C0.08775376 203.2326956 0.07519883 205.64756601 0.0625 208.0625 C0.0574869 209.69596221 0.05292366 211.32942586 0.04882812 212.96289062 C0.03777954 216.97529585 0.02050506 220.98763241 0 225 C-3.48289877 223.90196904 -6.68394546 222.78835668 -9.828125 220.92578125 C-10.88302124 220.30751465 -10.88302124 220.30751465 -11.95922852 219.67675781 C-12.71518311 219.22655273 -13.4711377 218.77634766 -14.25 218.3125 C-15.95155331 217.3133428 -17.65339193 216.31467138 -19.35546875 215.31640625 C-20.26603027 214.78031738 -21.1765918 214.24422852 -22.11474609 213.69189453 C-27.2472199 210.68224455 -32.4065854 207.71924749 -37.5625 204.75 C-39.78258905 203.46881406 -42.00264068 202.18756327 -44.22265625 200.90625 C-48.74789678 198.29611271 -53.27686707 195.69260834 -57.80859375 193.09375 C-58.92999756 192.44954102 -60.05140137 191.80533203 -61.20678711 191.14160156 C-63.30149613 189.93841337 -65.39724733 188.73703642 -67.49438477 187.53808594 C-69.45986887 186.40813021 -71.40942853 185.24995978 -73.34091187 184.06282043 C-75.9850598 182.49287835 -78.64813468 181.29936645 -81.49745178 180.14756775 C-87.42110963 177.52227756 -93.48560196 174.72692332 -96.045681 168.42658615 C-97.75092306 160.58951071 -97.39451039 152.58548566 -97.21484375 144.61328125 C-97.21427068 142.02499338 -97.21978467 139.43669767 -97.23109436 136.84843445 C-97.23505883 131.43724311 -97.17883526 126.03184303 -97.07202148 120.62182617 C-96.94966378 114.38428982 -96.93764326 108.15397205 -96.98531049 101.91558105 C-97.02916982 95.88795573 -96.99856073 89.86358076 -96.93429756 83.835989 C-96.91309808 81.28326052 -96.90971237 78.73031826 -96.92466545 76.17754555 C-96.9761703 56.83082343 -96.9761703 56.83082343 -93.7315464 52.18296623 C-90.29834541 48.97354809 -86.41039166 47.54773447 -82 46 C-79.9634157 44.86052056 -77.94507525 43.68704262 -75.95703125 42.46484375 C-73.90996603 41.28712779 -71.86175185 40.11140705 -69.8125 38.9375 C-68.10746291 37.95744222 -66.40242782 36.97738094 -64.69750977 35.99711609 C-62.94888264 34.9919943 -61.19979366 33.98767954 -59.45068359 32.98339844 C-55.06882116 30.46477311 -50.69285259 27.93602569 -46.31713867 25.40673828 C-42.03036567 22.93008182 -37.74047002 20.45886567 -33.45019531 17.98828125 C-31.0215901 16.58872274 -28.59380768 15.18780968 -26.16699219 13.78515625 C-22.91123577 11.903637 -19.65294981 10.02656614 -16.39300537 8.15231323 C-15.13745195 7.42948447 -13.8827617 6.70515416 -12.62896729 5.97927856 C-10.89037053 4.97307087 -9.14838938 3.97271775 -7.40625 2.97265625 C-6.40916016 2.39781494 -5.41207031 1.82297363 -4.38476562 1.23071289 C-2 0 -2 0 0 0 Z " fill="#FEFEFE" transform="translate(137,52)"/>
</svg>
