<?xml version="1.0" encoding="UTF-8"?>
<svg version="1.1" xmlns="http://www.w3.org/2000/svg" width="62" height="75">
<path d="M0 0 C3.96 0 7.92 0 12 0 C12 8.91 12 17.82 12 27 C13.32 26.67 14.64 26.34 16 26 C16 19.4 16 12.8 16 6 C15.01 6 14.02 6 13 6 C13 4.02 13 2.04 13 0 C20.92 0 28.84 0 37 0 C37 3.3 37 6.6 37 10 C36.01 10.33 35.02 10.66 34 11 C34.99 11.66 35.98 12.32 37 13 C37.2208564 15.95064148 37.28060989 18.68368231 37.1875 21.625 C37.16719727 22.82769531 37.16719727 22.82769531 37.14648438 24.0546875 C37.11109051 26.03674378 37.05728234 28.01845551 37 30 C36.34 30 35.68 30 35 30 C35.020625 30.763125 35.04125 31.52625 35.0625 32.3125 C35 35 35 35 34 38 C33.34 38 32.68 38 32 38 C32 38.66 32 39.32 32 40 C31.34 40 30.68 40 30 40 C29.67 40.66 29.34 41.32 29 42 C28.01 42 27.02 42 26 42 C26 42.66 26 43.32 26 44 C24.35 44 22.7 44 21 44 C20.67 43.01 20.34 42.02 20 41 C19.34 41 18.68 41 18 41 C18 41.99 18 42.98 18 44 C16.02 44 14.04 44 12 44 C12 43.34 12 42.68 12 42 C11.01 42 10.02 42 9 42 C8.67 41.34 8.34 40.68 8 40 C7.34 40 6.68 40 6 40 C6 39.34 6 38.68 6 38 C5.34 37.67 4.68 37.34 4 37 C3 36 3 36 2.9375 32.9375 C2.958125 31.968125 2.97875 30.99875 3 30 C2.34 30 1.68 30 1 30 C-0.40912096 27.18175808 -0.11183553 24.82748718 -0.09765625 21.6796875 C-0.09443359 20.42285156 -0.09121094 19.16601562 -0.08789062 17.87109375 C-0.07951172 16.55238281 -0.07113281 15.23367187 -0.0625 13.875 C-0.05748489 12.53515789 -0.05292201 11.195314 -0.04882812 9.85546875 C-0.03701086 6.57026794 -0.02053617 3.28515603 0 0 Z M5 6 C5 11.61 5 17.22 5 23 C5.66 23 6.32 23 7 23 C7 17.39 7 11.78 7 6 C6.34 6 5.68 6 5 6 Z M22 6 C22 12.6 22 19.2 22 26 C22.99 26.33 23.98 26.66 25 27 C25 23.37 25 19.74 25 16 C26.65 16 28.3 16 30 16 C29.360625 15.835 28.72125 15.67 28.0625 15.5 C26 14 26 14 25.51171875 12.0859375 C25.2724022 10.06424845 25.13106972 8.03158061 25 6 C24.01 6 23.02 6 22 6 Z M31 6 C32 10 32 10 32 10 Z M31 16 C31 18.31 31 20.62 31 23 C31.33 23 31.66 23 32 23 C32 20.69 32 18.38 32 16 C31.67 16 31.34 16 31 16 Z " fill="#795131" transform="translate(25,31)"/>
<path d="M0 0 C7.92 0 15.84 0 24 0 C24 9.24 24 18.48 24 28 C16.08 28 8.16 28 0 28 C0 18.76 0 9.52 0 0 Z M5 6 C6 10 6 10 6 10 Z M17 6 C17 11.61 17 17.22 17 23 C17.66 23 18.32 23 19 23 C19 17.39 19 11.78 19 6 C18.34 6 17.68 6 17 6 Z M11 12 C12 15 12 15 12 15 Z " fill="#357830" transform="translate(0,31)"/>
<path d="M0 0 C5.66666667 0 11.33333333 0 17 0 C17 6.93 17 13.86 17 21 C17.66 21 18.32 21 19 21 C19 14.07 19 7.14 19 0 C20.65 0 22.3 0 24 0 C24 8.91 24 17.82 24 27 C20.04 27 16.08 27 12 27 C11.67 26.34 11.34 25.68 11 25 C10.34 25.66 9.68 26.32 9 27 C6.03 27 3.06 27 0 27 C0 18.09 0 9.18 0 0 Z M5 5 C5 10.28 5 15.56 5 21 C5.33 21 5.66 21 6 21 C6 15.72 6 10.44 6 5 C5.67 5 5.34 5 5 5 Z " fill="#A5A8A9" transform="translate(0,0)"/>
<path d="M0 0 C7.92 0 15.84 0 24 0 C24 4.29 24 8.58 24 13 C23.01 13.495 23.01 13.495 22 14 C21.53045739 17.04581269 21.53045739 17.04581269 21.375 20.5625 C21.30023438 21.76003906 21.22546875 22.95757813 21.1484375 24.19140625 C21.09945312 25.11824219 21.05046875 26.04507812 21 27 C19.35 27 17.7 27 16 27 C16 22.38 16 17.76 16 13 C14.68 12.34 13.36 11.68 12 11 C12 9.02 12 7.04 12 5 C11.01 5 10.02 5 9 5 C9 12.26 9 19.52 9 27 C7.02 27 5.04 27 3 27 C3 19.74 3 12.48 3 5 C2.01 5 1.02 5 0 5 C0 3.35 0 1.7 0 0 Z " fill="#9FA2A3" transform="translate(38,0)"/>
<path d="M0 0 C3.96 0 7.92 0 12 0 C12 9.24 12 18.48 12 28 C8.04 28 4.08 28 0 28 C0 18.76 0 9.52 0 0 Z M5 6 C5 11.61 5 17.22 5 23 C5.66 23 6.32 23 7 23 C7 17.39 7 11.78 7 6 C6.34 6 5.68 6 5 6 Z " fill="#187C3A" transform="translate(25,31)"/>
<path d="M0 0 C3.96 0 7.92 0 12 0 C12 9.24 12 18.48 12 28 C8.04 28 4.08 28 0 28 C0 18.76 0 9.52 0 0 Z M5 6 C5 11.61 5 17.22 5 23 C5.66 23 6.32 23 7 23 C7 17.39 7 11.78 7 6 C6.34 6 5.68 6 5 6 Z " fill="#5EB744" transform="translate(12,31)"/>
<path d="M0 0 C3.96 0 7.92 0 12 0 C12 2.97 12 5.94 12 9 C11.01 9.33 10.02 9.66 9 10 C9.99 10.66 10.98 11.32 12 12 C12.22137393 14.62697064 12.28162025 17.00893964 12.1875 19.625 C12.17396484 20.33140625 12.16042969 21.0378125 12.14648438 21.765625 C12.1111104 23.51074128 12.05730221 25.25546608 12 27 C8.04 27 4.08 27 0 27 C0 23.04 0 19.08 0 15 C0.99 14.67 1.98 14.34 3 14 C2.01 13.34 1.02 12.68 0 12 C-0.41820365 7.97409284 -0.12945079 4.05612469 0 0 Z M5 5 C5 6.32 5 7.64 5 9 C5.66 9 6.32 9 7 9 C7 7.68 7 6.36 7 5 C6.34 5 5.68 5 5 5 Z M5 15 C5 16.98 5 18.96 5 21 C5.66 21 6.32 21 7 21 C7 19.02 7 17.04 7 15 C6.34 15 5.68 15 5 15 Z " fill="#A8ABAC" transform="translate(25,0)"/>
<path d="M0 0 C3.63 0 7.26 0 11 0 C11 3.3 11 6.6 11 10 C10.01 10.33 9.02 10.66 8 11 C8.99 11.66 9.98 12.32 11 13 C11.22137393 15.62697064 11.28162025 18.00893964 11.1875 20.625 C11.17396484 21.33140625 11.16042969 22.0378125 11.14648438 22.765625 C11.1111104 24.51074128 11.05730221 26.25546608 11 28 C7.37 28 3.74 28 0 28 C0 24.04 0 20.08 0 16 C0.66 15.67 1.32 15.34 2 15 C1.34 14.67 0.68 14.34 0 14 C0 9.38 0 4.76 0 0 Z M5 6 C6 10 6 10 6 10 Z M5 16 C5 18.31 5 20.62 5 23 C5.33 23 5.66 23 6 23 C6 20.69 6 18.38 6 16 C5.67 16 5.34 16 5 16 Z " fill="#449E40" transform="translate(51,31)"/>
<path d="M0 0 C1.65 0 3.3 0 5 0 C5 6.93 5 13.86 5 21 C5.66 21 6.32 21 7 21 C7 14.07 7 7.14 7 0 C8.65 0 10.3 0 12 0 C12 8.91 12 17.82 12 27 C8.04 27 4.08 27 0 27 C0 18.09 0 9.18 0 0 Z " fill="#C5C7C7" transform="translate(12,0)"/>
<path d="M0 0 C3.96 0 7.92 0 12 0 C12.84728203 4.23641013 13.08384078 7.72412002 13 12 C12.67 12 12.34 12 12 12 C12 10.02 12 8.04 12 6 C11.01 6 10.02 6 9 6 C9 12.6 9 19.2 9 26 C9.66 26 10.32 26 11 26 C11.33 22.7 11.66 19.4 12 16 C12.33 16 12.66 16 13 16 C13 19.96 13 23.92 13 28 C14.65 28.33 16.3 28.66 18 29 C13.8204355 31.78637633 11.85331323 30.79562512 7 30 C7.33 27.36 7.66 24.72 8 22 C6.35 22.33 4.7 22.66 3 23 C3 17.39 3 11.78 3 6 C2.01 6 1.02 6 0 6 C0 4.02 0 2.04 0 0 Z " fill="#744A27" transform="translate(38,31)"/>
<path d="M0 0 C0.103125 1.093125 0.20625 2.18625 0.3125 3.3125 C0.74514528 6.82217915 0.74514528 6.82217915 2.125 8.875 C4.94403684 10.56642211 7.76977183 10.69526149 11 11 C11.33 10.34 11.66 9.68 12 9 C12.99 9.33 13.98 9.66 15 10 C15.33 11.65 15.66 13.3 16 15 C15.01 15 14.02 15 13 15 C13 15.66 13 16.32 13 17 C11.35 17 9.7 17 8 17 C7.67 16.01 7.34 15.02 7 14 C6.34 14 5.68 14 5 14 C5 14.99 5 15.98 5 17 C3.02 17 1.04 17 -1 17 C-1 16.34 -1 15.68 -1 15 C-1.99 15 -2.98 15 -4 15 C-4.33 14.34 -4.66 13.68 -5 13 C-5.66 13 -6.32 13 -7 13 C-7 12.34 -7 11.68 -7 11 C-7.66 10.67 -8.32 10.34 -9 10 C-10 9 -10 9 -10.0625 5.9375 C-10.041875 4.968125 -10.02125 3.99875 -10 3 C-10.66 3 -11.32 3 -12 3 C-12 2.34 -12 1.68 -12 1 C-10.18755015 0.83278881 -8.37503867 0.66624559 -6.5625 0.5 C-5.55316406 0.4071875 -4.54382812 0.314375 -3.50390625 0.21875 C-1 0 -1 0 0 0 Z " fill="#573314" transform="translate(38,58)"/>
<path d="M0 0 C3.96 0 7.92 0 12 0 C13.28317892 3.84953676 13.06643637 6.94738135 13 11 C12.67 11 12.34 11 12 11 C12 9.02 12 7.04 12 5 C11.01 5 10.02 5 9 5 C9 12.26 9 19.52 9 27 C7.02 27 5.04 27 3 27 C3 19.74 3 12.48 3 5 C2.01 5 1.02 5 0 5 C0 3.35 0 1.7 0 0 Z " fill="#838585" transform="translate(38,0)"/>
<path d="M0 0 C1.32 0 2.64 0 4 0 C4 9.24 4 18.48 4 28 C1.36 28 -1.28 28 -4 28 C-3.67 26.35 -3.34 24.7 -3 23 C-2.34 23 -1.68 23 -1 23 C-1 17.39 -1 11.78 -1 6 C-1.66 5.67 -2.32 5.34 -3 5 C-2.34 4.67 -1.68 4.34 -1 4 C-0.34786708 1.97536745 -0.34786708 1.97536745 0 0 Z " fill="#36943E" transform="translate(20,31)"/>
<path d="M0 0 C1.65 0 3.3 0 5 0 C5 9.24 5 18.48 5 28 C3.02 27.67 1.04 27.34 -1 27 C-1.02886537 22.68751391 -1.04675255 18.37505238 -1.0625 14.0625 C-1.07087891 12.83080078 -1.07925781 11.59910156 -1.08789062 10.33007812 C-1.09111328 9.16025391 -1.09433594 7.99042969 -1.09765625 6.78515625 C-1.10289307 5.70113525 -1.10812988 4.61711426 -1.11352539 3.50024414 C-1 1 -1 1 0 0 Z " fill="#1D803B" transform="translate(32,31)"/>
<path d="M0 0 C1.32 0 2.64 0 4 0 C4 1.65 4 3.3 4 5 C4.66 5.33 5.32 5.66 6 6 C6 7.65 6 9.3 6 11 C5.34 11 4.68 11 4 11 C4.350625 11.763125 4.70125 12.52625 5.0625 13.3125 C6.34768287 18.36755261 5.67463171 22.8764457 5 28 C3.35 28 1.7 28 0 28 C0 18.76 0 9.52 0 0 Z " fill="#107036" transform="translate(0,31)"/>
<path d="M0 0 C1.65 0 3.3 0 5 0 C5 8.58 5 17.16 5 26 C3.35 26 1.7 26 0 26 C0 17.42 0 8.84 0 0 Z " fill="#CDCFCE" transform="translate(12,0)"/>
<path d="M0 0 C1.65 0 3.3 0 5 0 C5 8.58 5 17.16 5 26 C3.35 26.33 1.7 26.66 0 27 C0 18.09 0 9.18 0 0 Z " fill="#C6C7C7" transform="translate(0,0)"/>
<path d="M0 0 C0.103125 1.093125 0.20625 2.18625 0.3125 3.3125 C0.74514528 6.82217915 0.74514528 6.82217915 2.125 8.875 C4.94403684 10.56642211 7.76977183 10.69526149 11 11 C11.33 10.34 11.66 9.68 12 9 C12.99 9.33 13.98 9.66 15 10 C15.33 11.65 15.66 13.3 16 15 C15.01 15 14.02 15 13 15 C13 15.66 13 16.32 13 17 C11.35 17 9.7 17 8 17 C7.67 16.01 7.34 15.02 7 14 C6.34 14 5.68 14 5 14 C5 14.99 5 15.98 5 17 C4.01 17 3.02 17 2 17 C2 16.34 2 15.68 2 15 C1.34 15 0.68 15 0 15 C-0.185625 13.4840625 -0.185625 13.4840625 -0.375 11.9375 C-0.98085335 8.12062388 -1.87193912 4.68499888 -3 1 C-1 0 -1 0 0 0 Z " fill="#664124" transform="translate(38,58)"/>
<path d="M0 0 C1.98 0 3.96 0 6 0 C6 8.58 6 17.16 6 26 C5.01 26 4.02 26 3 26 C3 19.07 3 12.14 3 5 C2.01 5 1.02 5 0 5 C0 3.35 0 1.7 0 0 Z " fill="#B0B3B3" transform="translate(38,0)"/>
<path d="M0 0 C1.98 0 3.96 0 6 0 C6 2.31 6 4.62 6 7 C5.67 7 5.34 7 5 7 C5 5.02 5 3.04 5 1 C4.01 1 3.02 1 2 1 C2 7.6 2 14.2 2 21 C2.66 21 3.32 21 4 21 C4.33 17.7 4.66 14.4 5 11 C5.33 11 5.66 11 6 11 C6 14.96 6 18.92 6 23 C7.65 23.33 9.3 23.66 11 24 C8 26 8 26 0 25 C0 16.75 0 8.5 0 0 Z " fill="#4D3D20" transform="translate(45,36)"/>
<path d="M0 0 C1.65 0 3.3 0 5 0 C5.14256667 9.39355936 4.72492332 18.64072209 4 28 C3.34 28 2.68 28 2 28 C1.93941406 27.19175781 1.87882813 26.38351563 1.81640625 25.55078125 C1.73261719 24.48214844 1.64882812 23.41351563 1.5625 22.3125 C1.48128906 21.25675781 1.40007813 20.20101562 1.31640625 19.11328125 C1.03548319 16.34913703 0.59843148 13.71054259 0 11 C0.66 11 1.32 11 2 11 C2 9.02 2 7.04 2 5 C1.34 5 0.68 5 0 5 C0 3.35 0 1.7 0 0 Z " fill="#38943D" transform="translate(4,31)"/>
<path d="M0 0 C1.32 0 2.64 0 4 0 C4.125 5.75 4.125 5.75 3 8 C4.65 8.33 6.3 8.66 8 9 C7.67 9.99 7.34 10.98 7 12 C1.25 13 1.25 13 -1 13 C-2.42857143 4.57142857 -2.42857143 4.57142857 0 0 Z " fill="#AE703B" transform="translate(42,53)"/>
<path d="M0 0 C1.98 0.495 1.98 0.495 4 1 C4 2.65 4 4.3 4 6 C3.34 6 2.68 6 2 6 C2 11.61 2 17.22 2 23 C2.66 23.33 3.32 23.66 4 24 C3.67 24.99 3.34 25.98 3 27 C3.99 27.33 4.98 27.66 6 28 C3.69 28 1.38 28 -1 28 C-0.67 18.76 -0.34 9.52 0 0 Z " fill="#0C7138" transform="translate(28,31)"/>
<path d="M0 0 C1.65 0 3.3 0 5 0 C4.67 1.65 4.34 3.3 4 5 C3.34 5 2.68 5 2 5 C2.00523682 5.62567871 2.01047363 6.25135742 2.01586914 6.89599609 C2.03661618 9.72232057 2.04965286 12.54862905 2.0625 15.375 C2.07087891 16.35984375 2.07925781 17.3446875 2.08789062 18.359375 C2.09111328 19.30039062 2.09433594 20.24140625 2.09765625 21.2109375 C2.10289307 22.08024902 2.10812988 22.94956055 2.11352539 23.84521484 C2 26 2 26 1 28 C-0.32 27.67 -1.64 27.34 -3 27 C-2.34 26.67 -1.68 26.34 -1 26 C-0.67 17.42 -0.34 8.84 0 0 Z " fill="#53AD42" transform="translate(15,31)"/>
<path d="M0 0 C1.32 0.66 2.64 1.32 4 2 C4 6.95 4 11.9 4 17 C2.02 17 0.04 17 -2 17 C-1.34 16.67 -0.68 16.34 0 16 C-0.165 15.484375 -0.33 14.96875 -0.5 14.4375 C-1.50323715 9.54671888 -1.17018562 4.82701566 0 0 Z " fill="#24833B" transform="translate(58,42)"/>
<path d="M0 0 C0.99 0 1.98 0 3 0 C3 7.26 3 14.52 3 22 C2.01 22 1.02 22 0 22 C0 14.74 0 7.48 0 0 Z " fill="#9E9F9F" transform="translate(9,2)"/>
<path d="M0 0 C1.65 0 3.3 0 5 0 C5 4.29 5 8.58 5 13 C3.35 12.67 1.7 12.34 0 12 C0 8.04 0 4.08 0 0 Z " fill="#C5C6C6" transform="translate(51,0)"/>
<path d="M0 0 C1.32 0 2.64 0 4 0 C4 4.62 4 9.24 4 14 C2.68 14 1.36 14 0 14 C0 9.38 0 4.76 0 0 Z " fill="#CBCCCC" transform="translate(33,12)"/>
<path d="M0 0 C1.65 0 3.3 0 5 0 C5 3.63 5 7.26 5 11 C3.35 11 1.7 11 0 11 C0 7.37 0 3.74 0 0 Z " fill="#CBCCCC" transform="translate(25,15)"/>
<path d="M0 0 C1.32 0 2.64 0 4 0 C4 4.29 4 8.58 4 13 C2.68 13 1.36 13 0 13 C0 8.71 0 4.42 0 0 Z " fill="#C2C3C3" transform="translate(58,0)"/>
<path d="M0 0 C2.475 0.99 2.475 0.99 5 2 C4.01 2.33 3.02 2.66 2 3 C2 7.62 2 12.24 2 17 C3.32 17.33 4.64 17.66 6 18 C2.04 18 -1.92 18 -6 18 C-6 17.67 -6 17.34 -6 17 C-4.35 17 -2.7 17 -1 17 C-1 15.35 -1 13.7 -1 12 C-0.34 12 0.32 12 1 12 C1 10.02 1 8.04 1 6 C0.34 5.67 -0.32 5.34 -1 5 C-0.67 3.35 -0.34 1.7 0 0 Z " fill="#9FA2A3" transform="translate(31,9)"/>
<path d="M0 0 C1.32 0 2.64 0 4 0 C4 3.96 4 7.92 4 12 C2.68 12 1.36 12 0 12 C0 8.04 0 4.08 0 0 Z " fill="#D0D1D1" transform="translate(25,0)"/>
<path d="M0 0 C1.32 0 2.64 0 4 0 C4 3.3 4 6.6 4 10 C2.35 10 0.7 10 -1 10 C-1.33 8.35 -1.66 6.7 -2 5 C-1.34 5 -0.68 5 0 5 C0 3.35 0 1.7 0 0 Z " fill="#25863D" transform="translate(58,31)"/>
<path d="M0 0 C1.32 0.33 2.64 0.66 4 1 C4 3.97 4 6.94 4 10 C2.68 10.33 1.36 10.66 0 11 C0 7.37 0 3.74 0 0 Z " fill="#54AC42" transform="translate(51,47)"/>
<path d="M0 0 C2.875 -0.125 2.875 -0.125 6 0 C6.66 0.66 7.32 1.32 8 2 C7.01 2 6.02 2 5 2 C5.66 5.3 6.32 8.6 7 12 C6.34 12 5.68 12 5 12 C5 11.34 5 10.68 5 10 C4.34 9.67 3.68 9.34 3 9 C2 8 2 8 1.9375 4.9375 C1.958125 3.968125 1.97875 2.99875 2 2 C1.34 2 0.68 2 0 2 C0 1.34 0 0.68 0 0 Z " fill="#3C210E" transform="translate(26,59)"/>
<path d="M0 0 C0.99 0 1.98 0 3 0 C3 4.29 3 8.58 3 13 C2.01 13 1.02 13 0 13 C0 8.71 0 4.42 0 0 Z " fill="#57AF43" transform="translate(51,31)"/>
<path d="M0 0 C1.32 0 2.64 0 4 0 C4 2.97 4 5.94 4 9 C2.68 8.67 1.36 8.34 0 8 C0 5.36 0 2.72 0 0 Z " fill="#CBCCCC" transform="translate(33,0)"/>
<path d="M0 0 C0.99 0 1.98 0 3 0 C3.05423638 1.91635217 3.09289963 3.83314925 3.125 5.75 C3.14820313 6.81734375 3.17140625 7.8846875 3.1953125 8.984375 C3.00487687 11.92470106 2.52670104 13.52361878 1 16 C0.67 14.35 0.34 12.7 0 11 C0.66 11 1.32 11 2 11 C2 9.02 2 7.04 2 5 C1.34 5 0.68 5 0 5 C0 3.35 0 1.7 0 0 Z " fill="#29883B" transform="translate(4,31)"/>
<path d="M0 0 C0.99 0.33 1.98 0.66 3 1 C3 2.32 3 3.64 3 5 C4.32 5.33 5.64 5.66 7 6 C3.04 6 -0.92 6 -5 6 C-5 5.67 -5 5.34 -5 5 C-3.35 5 -1.7 5 0 5 C0 3.35 0 1.7 0 0 Z " fill="#9FA1A2" transform="translate(17,21)"/>
<path d="M0 0 C0.66 0.33 1.32 0.66 2 1 C2 3.64 2 6.28 2 9 C2.66 9.33 3.32 9.66 4 10 C0.125 9.125 0.125 9.125 -1 8 C-1.125 4.5 -1.125 4.5 -1 1 C-0.67 0.67 -0.34 0.34 0 0 Z " fill="#8B572A" transform="translate(39,57)"/>
<path d="M0 0 C0.144375 1.11375 0.28875 2.2275 0.4375 3.375 C0.78372035 6.82142047 0.78372035 6.82142047 2 9 C0.0625 8.375 0.0625 8.375 -2 7 C-2.75 3.875 -2.75 3.875 -3 1 C-1 0 -1 0 0 0 Z " fill="#72441E" transform="translate(38,58)"/>
<path d="M0 0 C1.65 0.33 3.3 0.66 5 1 C4.67 1.99 4.34 2.98 4 4 C2.35 4.33 0.7 4.66 -1 5 C-0.34 4.67 0.32 4.34 1 4 C0.67 2.68 0.34 1.36 0 0 Z " fill="#946137" transform="translate(45,61)"/>
<path d="M0 0 C2.31 0 4.62 0 7 0 C7 0.66 7 1.32 7 2 C6.34 2 5.68 2 5 2 C5 2.66 5 3.32 5 4 C4.01 3.67 3.02 3.34 2 3 C2 2.34 2 1.68 2 1 C1.34 0.67 0.68 0.34 0 0 Z " fill="#875636" transform="translate(55,59)"/>
<path d="M0 0 C1.32 0 2.64 0 4 0 C4 1.98 4 3.96 4 6 C3.34 6 2.68 6 2 6 C2 4.68 2 3.36 2 2 C1.01 1.67 0.02 1.34 -1 1 C-0.67 0.67 -0.34 0.34 0 0 Z " fill="#A16738" transform="translate(42,53)"/>
<path d="M0 0 C0.99 0.99 1.98 1.98 3 3 C2.67 3.99 2.34 4.98 2 6 C0.35 5.67 -1.3 5.34 -3 5 C-2.01 4.67 -1.02 4.34 0 4 C0 2.68 0 1.36 0 0 Z " fill="#39933E" transform="translate(56,41)"/>
<path d="M0 0 C0.99 0 1.98 0 3 0 C2.67 1.65 2.34 3.3 2 5 C1.01 4.67 0.02 4.34 -1 4 C-0.67 2.68 -0.34 1.36 0 0 Z " fill="#47A341" transform="translate(17,31)"/>
</svg>
