<?xml version="1.0" encoding="UTF-8"?>
<svg version="1.1" xmlns="http://www.w3.org/2000/svg" width="900" height="741">
<path d="M0 0 C1.84066795 -0.01073296 1.84066795 -0.01073296 3.71852112 -0.02168274 C5.09191869 -0.02452375 6.46531654 -0.02723539 7.8387146 -0.02983093 C9.27623154 -0.03609423 10.71374685 -0.04274091 12.15126038 -0.04974365 C16.89911762 -0.07086647 21.64697537 -0.0811785 26.39486694 -0.09111023 C28.03760164 -0.09515982 29.68033617 -0.0992768 31.32307053 -0.10346031 C39.07000501 -0.1225584 46.8169299 -0.13675926 54.56388342 -0.14507228 C63.43663754 -0.15475351 72.30913605 -0.1808095 81.18180048 -0.22157317 C88.07312046 -0.25211538 94.96436907 -0.26657794 101.85575521 -0.26985329 C105.95200314 -0.27216822 110.04797984 -0.28064285 114.14415359 -0.30631447 C145.00016387 -0.48933621 174.27881135 2.90285181 204.35580444 10.14717102 C205.59596313 10.44228577 205.59596313 10.44228577 206.86117554 10.74336243 C227.97602766 15.87471472 248.79736182 23.71917022 268.35580444 33.14717102 C269.02434448 33.46895325 269.69288452 33.79073547 270.38168335 34.12226868 C274.40352915 36.0725778 278.39354586 38.07928529 282.36703491 40.12617493 C284.35888742 41.14875376 286.35894205 42.15389091 288.35971069 43.15888977 C306.47520827 52.37668474 323.38362459 63.60512937 339.35580444 76.14717102 C340.25041382 76.84068665 341.14502319 77.53420227 342.06674194 78.24873352 C353.8286303 87.49837388 364.91647465 97.36881492 375.45321655 107.98384094 C377.17828922 109.71971833 378.91392435 111.44452192 380.65072632 113.1686554 C387.34315187 119.85270718 393.50468234 126.70540887 399.35580444 134.14717102 C400.3803835 135.4020376 401.4074057 136.65491696 402.43783569 137.90498352 C420.39172712 159.95243924 434.60636292 183.77056222 447.35580444 209.14717102 C447.73720581 209.90062805 448.11860718 210.65408508 448.51156616 211.43037415 C470.00986852 254.20892323 483.3954623 305.02271043 483.55892944 353.02607727 C483.56175682 353.68075422 483.5645842 354.33543118 483.56749725 355.00994682 C483.58240558 358.48822793 483.59168252 361.96646862 483.59603882 365.44477844 C483.60038434 368.26131931 483.61413368 371.07754708 483.63705444 373.89399719 C483.78007079 391.84257366 483.08496382 409.36500549 480.35580444 427.14717102 C480.19863953 428.20736954 480.19863953 428.20736954 480.03829956 429.28898621 C479.47298529 433.07072081 478.82260353 436.82890376 478.10580444 440.58467102 C477.89600952 441.69189514 477.6862146 442.79911926 477.47006226 443.93989563 C465.98977907 502.45537942 439.85824051 559.45197217 401.35580444 605.14717102 C399.91763375 606.93829936 398.48014858 608.72997833 397.04330444 610.52217102 C388.94862119 620.38321986 380.1014144 629.48778291 371.10580444 638.52217102 C370.36145142 639.2711969 369.61709839 640.02022278 368.85018921 640.79194641 C364.18110334 645.44754531 359.38182729 649.88003419 354.35580444 654.14717102 C353.76057983 654.65441711 353.16535522 655.16166321 352.55209351 655.6842804 C336.26308991 669.43625151 318.76538717 681.42155244 300.35580444 692.14717102 C299.64279175 692.56418274 298.92977905 692.98119446 298.19515991 693.4108429 C240.8290464 726.72606714 178.82041135 741.87733531 112.93622649 741.62609255 C107.70624472 741.61065468 102.47628702 741.61877925 97.24629211 741.6237793 C87.04816634 741.62995484 76.85017814 741.6151433 66.65207873 741.59305368 C54.7684421 741.56821093 42.88482964 741.56544302 31.0011709 741.56364992 C9.81311853 741.55978794 -11.37487225 741.53741127 -32.56289673 741.50386047 C-53.12377176 741.47132948 -73.68461426 741.45015588 -94.24551392 741.44233704 C-95.51602636 741.44185155 -96.78653881 741.44136605 -98.09555163 741.44086585 C-103.20246631 741.43893715 -108.30938099 741.43702501 -113.41629569 741.43514975 C-133.03260427 741.42763053 -152.64890754 741.41200828 -172.26520961 741.39465315 C-178.18988414 741.3894141 -184.11455855 741.38448095 -190.03923392 741.38029122 C-202.47874382 741.37139026 -214.91823817 741.3596547 -227.35773434 741.33872519 C-232.50020586 741.33010529 -237.64266654 741.32303159 -242.78514481 741.3202095 C-247.48355185 741.31755529 -252.18192756 741.31030297 -256.88032208 741.29921903 C-258.58743004 741.29599645 -260.29454218 741.29448191 -262.00165316 741.29476932 C-264.30618103 741.29489332 -266.61061241 741.28896944 -268.91512585 741.2813921 C-270.1997305 741.27960353 -271.48433516 741.27781496 -272.80786723 741.27597219 C-275.64419556 741.14717102 -275.64419556 741.14717102 -276.64419556 740.14717102 C-277.18546659 737.48592177 -277.00170386 735.75313743 -275.61489868 733.40254211 C-274.09626685 731.33066397 -272.51262899 729.32959529 -270.89419556 727.33467102 C-269.68634577 725.80276397 -268.47933208 724.27019736 -267.27310181 722.73701477 C-266.66095825 721.96599426 -266.0488147 721.19497375 -265.41812134 720.40058899 C-262.82844157 717.11091871 -260.32867565 713.75740017 -257.83169556 710.39717102 C-253.18668959 704.17687511 -248.48448013 698.00180684 -243.76919556 691.83467102 C-238.08033885 684.38964505 -232.48184163 676.88568747 -226.94473267 669.3273468 C-221.15553167 661.44337454 -215.21716598 653.67545852 -209.27700806 645.90498352 C-205.02832395 640.34699769 -200.82849349 634.75379948 -196.64419556 629.14717102 C-191.80577258 622.66406672 -186.93237977 616.21039025 -182.0194397 609.78364563 C-175.57523782 601.35180141 -169.20535738 592.87439767 -162.93447876 584.3129425 C-157.91474858 577.47598063 -152.77383803 570.73554466 -147.61831665 564.00068665 C-142.51094155 557.31638006 -137.504071 550.5636177 -132.53335571 543.77729797 C-128.35514837 538.08232755 -124.08238971 532.47175706 -119.73013306 526.90888977 C-117.55346785 524.19480717 -117.55346785 524.19480717 -116.05357552 521.02119064 C-113.64419556 518.14717102 -113.64419556 518.14717102 -109.79769707 517.3988533 C-108.20147199 517.3688888 -106.60442249 517.37218711 -105.00817871 517.40113831 C-103.68678082 517.38943985 -103.68678082 517.38943985 -102.33868802 517.37750506 C-99.37981897 517.35855981 -96.42283346 517.38242539 -93.46401978 517.40596008 C-91.34487156 517.4010649 -89.22572806 517.39350791 -87.1065979 517.38348389 C-82.53712762 517.36766505 -77.96820065 517.37087002 -73.39873886 517.38872528 C-66.15987085 517.41700401 -58.92143433 517.40401275 -51.68255615 517.38563538 C-40.21512392 517.36156147 -28.74790603 517.36631973 -17.28046715 517.3827579 C3.20493502 517.41120426 23.69031915 517.39096891 44.17570865 517.36035895 C51.35615071 517.35076 58.5364482 517.35355285 65.71688294 517.36703444 C70.21043708 517.37390229 74.70396756 517.37279681 79.19752502 517.37002754 C81.26372031 517.37053407 83.32991836 517.37443648 85.39609909 517.38220787 C101.35463924 517.44002001 117.21884031 516.85198376 132.79330444 513.02217102 C133.66036011 512.8111676 134.52741577 512.60016418 135.42074585 512.38276672 C144.8244397 509.96055141 153.60937577 506.32700192 162.35580444 502.14717102 C163.03369019 501.8234552 163.71157593 501.49973938 164.41000366 501.16621399 C198.78544168 484.43360162 224.65167224 454.22198576 237.15267944 418.15107727 C248.83977361 382.26552492 247.25009357 343.47883553 231.35580444 309.14717102 C230.58623413 307.46881165 230.58623413 307.46881165 229.80111694 305.75654602 C212.42567164 269.40423188 181.50136107 244.82313979 144.20053101 231.36982727 C123.73148642 224.28180996 102.68230833 223.69706188 81.22299194 223.67060852 C78.60662611 223.65655185 75.99026723 223.64114723 73.37391663 223.62449646 C67.84625549 223.59106008 62.3186299 223.56734767 56.79089355 223.55073547 C48.17563109 223.5246012 39.56055097 223.47738992 30.94540405 223.4264679 C28.0552526 223.40959291 25.16510047 223.39283445 22.27494812 223.37611389 C21.56071849 223.37196559 20.84648886 223.36781728 20.11061591 223.36354327 C15.07139912 223.33450948 10.03217277 223.30811588 4.99293518 223.28297424 C-17.91828502 223.16794644 -40.8281907 222.98156659 -63.73812866 222.70948792 C-68.15902246 222.6571059 -72.57995618 222.61067887 -77.00093174 222.56580925 C-80.22162836 222.53209743 -83.4422625 222.49412864 -86.6628933 222.45466232 C-88.1295918 222.43738292 -89.59630998 222.42168898 -91.06304359 222.4077034 C-93.02300589 222.38862131 -94.98289974 222.36284438 -96.94277954 222.33662415 C-98.02897079 222.32409607 -99.11516205 222.31156799 -100.23426819 222.29866028 C-102.64419556 222.14717102 -102.64419556 222.14717102 -103.64419556 221.14717102 C-104.13527717 216.07266097 -102.75584705 212.40908024 -100.60122681 207.92451477 C-100.28172562 207.23566193 -99.96222443 206.54680908 -99.63304138 205.83708191 C-98.58437985 203.58140017 -97.52038807 201.33329815 -96.45669556 199.08467102 C-95.71691847 197.49829655 -94.97849082 195.91129215 -94.24136353 194.32368469 C-92.74823987 191.10852026 -91.25097616 187.8953367 -89.75112915 184.68330383 C-86.85777759 178.47147643 -84.0583801 172.21893192 -81.26919556 165.95967102 C-80.21605836 163.60409128 -79.16266504 161.24862603 -78.10903931 158.89326477 C-77.83839661 158.28787369 -77.56775391 157.6824826 -77.28890991 157.05874634 C-73.48082865 148.54162234 -69.65789738 140.03116743 -65.83169556 131.52217102 C-65.45020355 130.6737262 -65.06871155 129.82528137 -64.67565918 128.9511261 C-58.94207137 116.2045086 -53.15444982 103.4834889 -47.33163452 90.77742004 C-40.39935465 75.64771815 -33.58830167 60.46581088 -26.80569458 45.26838684 C-14.70125054 18.14716434 -14.70125054 18.14716434 -9.89419556 7.89717102 C-9.40922607 6.86028137 -9.40922607 6.86028137 -8.91445923 5.80244446 C-6.34879307 0.38200293 -6.00550356 0.02393307 0 0 Z " fill="#E90A2A" transform="translate(416.6441955566406,-0.1471710205078125)"/>
<path d="M0 0 C67.98 0 135.96 0 206 0 C204.875467 7.87173101 204.875467 7.87173101 202.91015625 12 C202.46502686 12.94883057 202.01989746 13.89766113 201.5612793 14.87524414 C201.06668213 15.90641357 200.57208496 16.93758301 200.0625 18 C199.25442181 19.71774123 198.44638841 21.43550387 197.63954163 23.15382385 C196.74494443 25.0567007 195.84659798 26.9577818 194.94824219 28.85888672 C191.70339246 35.74049123 188.52579057 42.65342854 185.34024048 49.56262207 C184.17842804 52.08217381 183.01543908 54.60118 181.85229492 57.12011719 C176.06293329 69.66344417 170.33127653 82.23226646 164.62451172 94.81333923 C164.32174316 95.48079666 164.01897461 96.14825409 163.70703125 96.8359375 C163.40458496 97.50271011 163.10213867 98.16948273 162.79052734 98.85646057 C159.56323073 105.96809572 156.31759134 113.07132176 153.06939697 120.1734314 C152.06278384 122.37437938 151.05651677 124.57548533 150.05029297 126.77661133 C147.03640014 133.36837174 144.01991106 139.95891833 140.9954834 146.54585266 C139.3289542 150.17577492 137.66403351 153.80643305 136 157.4375 C135.67042297 158.15658539 135.34084595 158.87567078 135.00128174 159.61654663 C129.5531241 171.51310569 124.22889357 183.46187454 118.94671631 195.43292236 C113.39819149 207.99856786 107.63523504 220.45327535 101.69506836 232.83862305 C101.10139715 234.08642455 100.50772839 235.33422722 99.9140625 236.58203125 C99.3979541 237.65686768 98.8818457 238.7317041 98.35009766 239.83911133 C96.68077649 243.56501272 96.68077649 243.56501272 95 250 C157.04 250.33 219.08 250.66 283 251 C281.47694125 254.80764687 280.64045963 256.7585667 278.234375 259.7578125 C277.68152832 260.45559814 277.12868164 261.15338379 276.55908203 261.87231445 C275.96208496 262.61570068 275.36508789 263.35908691 274.75 264.125 C269.75661715 270.43925058 264.8720569 276.81096252 260.125 283.3125 C253.73100444 292.05468067 247.18344166 300.67309879 240.60546875 309.27734375 C237.88400925 312.83735601 235.18127105 316.40965039 232.5 320 C228.43217646 325.44450569 224.31049628 330.84718889 220.1875 336.25 C214.95112195 343.11246218 209.74109306 349.99286825 204.57446289 356.90795898 C200.46153768 362.40449181 196.29455596 367.85885962 192.125 373.3125 C186.89167752 380.16058364 181.72194192 387.0498156 176.625 394 C171.65404127 400.77789121 166.59840782 407.47302518 161.45214844 414.11914062 C152.5276744 425.67834506 143.72217706 437.32130248 135.09008789 449.1003418 C130.12820057 455.85881123 125.0454925 462.51961921 119.9375 469.16796875 C117.49748301 472.34481485 115.08444048 475.54046038 112.6875 478.75 C108.55692251 484.27768458 104.37385325 489.76446732 100.1875 495.25 C95.43280192 501.48116564 90.69245218 507.72181144 86 514 C81.36984983 520.19474481 76.69231702 526.35222639 72 532.5 C65.28584344 541.29827005 58.62511728 550.13457103 52 559 C44.69446474 568.7759332 37.33523837 578.50852026 29.93164062 588.21044922 C24.39400752 595.47163751 18.90290316 602.76638367 13.43554688 610.08056641 C10.45839539 614.06124072 7.47350641 618.03611905 4.49023438 622.01220703 C2.0379717 625.28109544 -0.41273249 628.5511212 -2.859375 631.82421875 C-8.49025196 639.35214447 -14.16578949 646.84377868 -19.875 654.3125 C-25.02817286 661.05455763 -30.1142836 667.83895522 -35.125 674.6875 C-40.20737965 681.63246037 -45.43017083 688.44939354 -50.74169922 695.22021484 C-55.62300663 701.46374758 -60.33168361 707.82433651 -65.01147461 714.21972656 C-69.19397157 719.92944973 -73.46443598 725.55924198 -77.81640625 731.140625 C-79.9585515 733.73352935 -79.9585515 733.73352935 -80.88305664 735.89672852 C-82.05787246 738.17090801 -82.938372 739.45764709 -85 741 C-89.79105425 741.88067718 -94.46229225 741.65741475 -99.3125 741.4375 C-100.62541016 741.40591797 -101.93832031 741.37433594 -103.29101562 741.34179688 C-106.52961009 741.25935992 -109.7636694 741.14432328 -113 741 C-111.53335727 733.66101975 -109.35187983 726.72921241 -106.921875 719.65625 C-106.51910843 718.47165695 -106.11634186 717.2870639 -105.70137024 716.0665741 C-104.61444002 712.87273068 -103.52335388 709.68036766 -102.43031693 706.48861313 C-101.28134073 703.13007673 -100.13792909 699.76964666 -98.99389648 696.40942383 C-96.73511439 689.77788209 -94.47049019 683.14834984 -92.20355225 676.51959229 C-90.56783875 671.7362149 -88.93430298 666.95209495 -87.30078125 662.16796875 C-85.67261928 657.40046143 -84.04397184 652.63312117 -82.4140625 647.86621094 C-77.33359694 633.00288348 -72.28863707 618.12755148 -67.25 603.25 C-67.03208675 602.60657276 -66.81417351 601.96314552 -66.58965683 601.30022049 C-58.11207426 576.26702609 -49.65851288 551.22572303 -41.20736694 526.18359375 C-35.65304775 509.72546516 -30.09664252 493.26808551 -24.51171875 476.8203125 C-24.29731392 476.18881916 -24.08290909 475.55732582 -23.86200714 474.90669632 C-21.71003507 468.56876792 -19.55633755 462.23143071 -17.39990234 455.89501953 C-13.30213039 443.84430764 -9.25142409 431.77857901 -5.23022461 419.70214844 C-4.7199739 418.17047268 -4.20969726 416.63880555 -3.69939423 415.10714722 C-2.46596487 411.40486399 -1.23288303 407.70246519 0 404 C-0.89067389 404.00092179 -1.78134779 404.00184359 -2.6990118 404.00279331 C-24.3384672 404.02484631 -45.97792066 404.04141046 -67.61738491 404.05181217 C-78.08192281 404.05697564 -88.54645323 404.06401929 -99.01098633 404.07543945 C-108.12839435 404.08538476 -117.24579696 404.09185306 -126.36321026 404.09408849 C-131.19393876 404.09539586 -136.02465175 404.09848336 -140.85537529 404.10573006 C-145.39673687 404.11248785 -149.93807647 404.11461746 -154.4794426 404.11310768 C-156.15124569 404.11338412 -157.82304948 404.11539066 -159.49484825 404.11920547 C-161.76725853 404.12413898 -164.03958446 404.12299958 -166.31199646 404.12025452 C-167.58683616 404.12117631 -168.86167585 404.1220981 -170.17514706 404.12304783 C-173 404 -173 404 -174 403 C-174.32739022 398.0086346 -173.75737234 394.60982192 -171.6484375 390.09765625 C-170.87753784 388.41784668 -170.87753784 388.41784668 -170.09106445 386.70410156 C-169.81251617 386.11310669 -169.5339679 385.52211182 -169.24697876 384.91320801 C-168.0393442 382.35009632 -166.86170136 379.77351859 -165.68128967 377.19778442 C-165.05841947 375.83972099 -164.43399638 374.4823688 -163.80809021 373.1257019 C-160.83899434 366.68526316 -157.98627525 360.19682639 -155.15789795 353.69360352 C-153.70366532 350.35026484 -152.24394369 347.00932188 -150.78515625 343.66796875 C-150.33251404 342.6305806 -150.33251404 342.6305806 -149.87072754 341.57223511 C-146.01140505 332.72940652 -142.12997607 323.89628038 -138.25 315.0625 C-137.48477189 313.31999138 -136.71955383 311.57747834 -135.9543457 309.83496094 C-134.40779854 306.31327704 -132.86115372 302.79163605 -131.31445312 299.27001953 C-127.91550474 291.53088926 -124.51786845 283.79118297 -121.12014771 276.05151367 C-119.99934576 273.49850976 -118.87846887 270.94553876 -117.75756836 268.39257812 C-114.35362167 260.63966581 -110.95003069 252.88659814 -107.54800415 245.13284302 C-100.21310217 228.41550749 -92.87383114 211.70020663 -85.5 195 C-74.76950211 170.69482379 -64.04124878 146.3879752 -53.5 122 C-44.10785105 100.27055405 -34.56583498 78.60613356 -25.0078125 56.94921875 C-24.68753082 56.22350677 -24.36724915 55.4977948 -24.03726196 54.75009155 C-22.57557008 51.43870624 -21.11299275 48.12771905 -19.64892578 44.81738281 C-13.05596826 29.89699763 -6.53837142 14.94484897 0 0 Z " fill="#E90A2A" transform="translate(174,0)"/>
</svg>
