<?xml version="1.0" encoding="UTF-8"?>
<svg version="1.1" xmlns="http://www.w3.org/2000/svg" width="900" height="645">
<path d="M0 0 C7.47380986 3.16199648 13.21662915 9.89450876 18.375 15.9375 C21.16379458 19.16280156 24.10048142 21.92442447 27.37890625 24.640625 C30.90445621 27.59698979 33.94224132 30.9089038 36.875 34.4375 C39.46144363 37.50266842 42.26460479 40.04626692 45.34375 42.60546875 C48.87647883 45.57995977 51.93091756 48.89527944 54.875 52.4375 C57.46144363 55.50266842 60.26460479 58.04626692 63.34375 60.60546875 C66.87647883 63.57995977 69.93091756 66.89527944 72.875 70.4375 C75.46144363 73.50266842 78.26460479 76.04626692 81.34375 78.60546875 C84.87647883 81.57995977 87.93091756 84.89527944 90.875 88.4375 C93.46144363 91.50266842 96.26460479 94.04626692 99.34375 96.60546875 C102.87647883 99.57995977 105.93091756 102.89527944 108.875 106.4375 C111.47196088 109.51637115 114.28747369 112.08129753 117.38671875 114.64453125 C119.37743836 116.31712133 121.19869566 118.12664349 123 120 C126.66752005 118.4608199 128.98580573 116.24514548 131.765625 113.4296875 C133.09980469 112.08583984 133.09980469 112.08583984 134.4609375 110.71484375 C135.38132812 109.77769531 136.30171875 108.84054688 137.25 107.875 C138.19484856 106.92011363 139.14015633 105.96568141 140.0859375 105.01171875 C142.39518338 102.67890913 144.69963203 100.34155914 147 98 C150.80858597 99.76827206 153.05090508 101.98388019 156 105 C157.32639605 106.15385672 158.66023013 107.29919929 160 108.4375 C163.42273291 111.397875 166.16778289 114.47886522 169 118 C171.85405287 121.008326 174.85295539 123.74509411 178 126.4375 C181.42273291 129.397875 184.16778289 132.47886522 187 136 C189.85405287 139.008326 192.85295539 141.74509411 196 144.4375 C199.42273291 147.397875 202.16778289 150.47886522 205 154 C207.71778582 156.86082718 210.53914808 159.47301929 213.5625 162 C219.10924234 166.76995567 219.10924234 166.76995567 221 170 C220.875 173.25 220.875 173.25 220 177 C219.690625 178.918125 219.690625 178.918125 219.375 180.875 C217.95953764 187.13734864 215.22854346 192.95464417 212.73046875 198.84375 C211.33415123 202.14889109 210.09444966 205.47737568 208.9375 208.875 C205.55295419 218.35744059 199.98325777 226.77700864 194.63671875 235.25 C192.89911287 237.94690285 192.89911287 237.94690285 192 241 C191.34 241 190.68 241 190 241 C189.731875 241.7425 189.46375 242.485 189.1875 243.25 C188.04723249 245.89061949 186.90619694 247.85552844 185 250 C184.34 250 183.68 250 183 250 C183 250.99 183 251.98 183 253 C182.34 253 181.68 253 181 253 C180.731875 253.804375 180.46375 254.60875 180.1875 255.4375 C179.795625 256.283125 179.40375 257.12875 179 258 C178.01 258.33 177.02 258.66 176 259 C175.30873891 260.32074991 174.64697503 261.65700129 174 263 C172.60672013 264.68343245 171.16421737 266.32676122 169.6875 267.9375 C168.47900391 269.25814453 168.47900391 269.25814453 167.24609375 270.60546875 C164.8827646 273.12498313 162.44246881 275.55753119 160 278 C159.236875 278.969375 158.47375 279.93875 157.6875 280.9375 C154.69461542 284.60711963 151.01278308 287.5019761 147 290 C146.34 290 145.68 290 145 290 C144.773125 290.598125 144.54625 291.19625 144.3125 291.8125 C142.64390958 294.59348403 140.8716168 295.5641916 138 297 C137.34 297 136.68 297 136 297 C135.67 297.99 135.34 298.98 135 300 C133.45288086 301.28686523 133.45288086 301.28686523 131.46484375 302.55859375 C130.37333008 303.26145508 130.37333008 303.26145508 129.25976562 303.97851562 C128.49341797 304.45998047 127.72707031 304.94144531 126.9375 305.4375 C126.19822266 305.91509766 125.45894531 306.39269531 124.69726562 306.88476562 C120.4991961 309.56227453 116.25908436 311.94222836 111.77954102 314.11303711 C109.42515678 315.28651467 107.22115475 316.65551853 105 318.0625 C101.48563723 320.19774162 98.16223674 321.85249013 94.27734375 323.16796875 C91.37943063 324.22672603 88.61987294 325.5328141 85.8125 326.8125 C77.3244905 330.48941791 68.52753197 332.90672368 59.60424805 335.29321289 C57.84035053 335.77193074 56.08137971 336.26911622 54.32739258 336.78295898 C18.46362712 347.14217471 -26.64169467 344.8041496 -62 334 C-63.43335911 333.57992772 -64.86695056 333.16064734 -66.30078125 332.7421875 C-85.39798613 327.06800925 -85.39798613 327.06800925 -93 322 C-94.299375 321.5978125 -94.299375 321.5978125 -95.625 321.1875 C-100.06734247 319.62445357 -103.92626133 317.33850223 -108 315 C-109.45783495 314.20741594 -110.91616673 313.41574504 -112.375 312.625 C-120.19439812 308.2778521 -127.93325415 303.49635788 -135 298 C-135 297.34 -135 296.68 -135 296 C-136.3303125 295.6596875 -136.3303125 295.6596875 -137.6875 295.3125 C-141.51383078 293.79640667 -143.21392622 291.99502931 -146 289 C-147.09337093 288.09102179 -148.19763938 287.1949892 -149.3125 286.3125 C-150.199375 285.549375 -151.08625 284.78625 -152 284 C-152 283.34 -152 282.68 -152 282 C-152.53625 281.773125 -153.0725 281.54625 -153.625 281.3125 C-159.35590284 278.14542211 -162.49428452 274.42820462 -166 269 C-167.62449243 267.29220027 -169.29220027 265.62449243 -171 264 C-174.92979518 260.16605348 -178.57271173 256.39210325 -181.3984375 251.65625 C-182.99273428 249.01205045 -184.70871504 246.51408416 -186.5 244 C-193 234.87719298 -193 234.87719298 -193 232 C-193.66 232 -194.32 232 -195 232 C-195.51949219 230.96101562 -196.03898437 229.92203125 -196.57421875 228.8515625 C-197.07695312 227.84657715 -197.07695312 227.84657715 -197.58984375 226.82128906 C-198.32916425 225.34199029 -199.06742485 223.86216139 -199.8046875 222.38183594 C-201.30127106 219.37947927 -202.79876277 216.38171646 -204.36328125 213.4140625 C-220.48913203 182.71398919 -220.48913203 182.71398919 -218.6640625 170.80859375 C-216.75036878 165.59659263 -212.15601919 162.39266872 -208 159 C-204.991674 156.14594713 -202.25490589 153.14704461 -199.5625 150 C-196.602125 146.57726709 -193.52113478 143.83221711 -190 141 C-186.991674 138.14594713 -184.25490589 135.14704461 -181.5625 132 C-178.602125 128.57726709 -175.52113478 125.83221711 -172 123 C-169.18069916 120.3216642 -166.60611167 117.54902331 -164.125 114.5625 C-161.54226677 111.50172874 -158.75049518 108.95663039 -155.6640625 106.4140625 C-153.76602878 104.84531194 -153.76602878 104.84531194 -151.3125 102.25 C-149 100 -149 100 -145 98 C-137.41 105.59 -129.82 113.18 -122 121 C-117.21508173 116.94960122 -117.21508173 116.94960122 -112.6875 112.625 C-111 111 -111 111 -109 111 C-108.773125 110.443125 -108.54625 109.88625 -108.3125 109.3125 C-106.62449964 106.33840412 -104.53323483 104.27991135 -102 102 C-101.34 102 -100.68 102 -100 102 C-99.773125 101.443125 -99.54625 100.88625 -99.3125 100.3125 C-97.62449964 97.33840412 -95.53323483 95.27991135 -93 93 C-92.34 93 -91.68 93 -91 93 C-90.73574219 92.39671875 -90.47148437 91.7934375 -90.19921875 91.171875 C-88.94244926 88.8957713 -87.84559838 87.83181567 -85.8125 86.25 C-82.3560024 83.41150405 -79.51984747 80.27867988 -76.62109375 76.8828125 C-73.69966266 73.48972868 -70.61245704 70.49262849 -67.125 67.6875 C-63.9224848 65.07773826 -61.33597799 62.05019467 -58.65625 58.91796875 C-55.71888882 55.51644908 -52.62590558 52.50344579 -49.125 49.6875 C-45.9224848 47.07773826 -43.33597799 44.05019467 -40.65625 40.91796875 C-37.71888882 37.51644908 -34.62590558 34.50344579 -31.125 31.6875 C-27.9224848 29.07773826 -25.33597799 26.05019467 -22.65625 22.91796875 C-19.71888882 19.51644908 -16.62590558 16.50344579 -13.125 13.6875 C-9.90614803 11.06750421 -7.28892711 8.02875526 -4.61328125 4.8671875 C-3.14080217 3.16296232 -1.61363306 1.56975784 0 0 Z M2 53 C1.82216044 59.4408224 1.6997821 65.88100963 1.61547852 72.32373047 C1.58032803 74.5140753 1.53259678 76.70425649 1.47192383 78.89404297 C1.38676787 82.04696022 1.34725755 85.19770312 1.31640625 88.3515625 C1.28027725 89.32678864 1.24414825 90.30201477 1.20692444 91.30679321 C1.14625558 96.47234622 1.14625558 96.47234622 3.51266479 100.88568115 C5.33001641 102.4855977 5.33001641 102.4855977 7.23643494 103.76278687 C9.05739605 105.04026568 10.24787391 106.32578693 11.625 108.0625 C15.60680876 112.98736873 20.10946728 117.01933383 25 121 C23.61389588 128.31289415 17.07648992 132.98363729 11.5390625 137.421875 C9.65090451 138.99056287 9.65090451 138.99056287 10 142 C9.1028125 142.4021875 9.1028125 142.4021875 8.1875 142.8125 C6.02775192 143.98493467 4.64209744 145.19369282 3 147 C4.44077046 150.36179774 6.24750021 152.59156268 9 155 C9.66 155 10.32 155 11 155 C11.226875 155.556875 11.45375 156.11375 11.6875 156.6875 C13.37550036 159.66159588 15.46676517 161.72008865 18 164 C18.66 164 19.32 164 20 164 C20.226875 164.556875 20.45375 165.11375 20.6875 165.6875 C22.37550036 168.66159588 24.46676517 170.72008865 27 173 C27.66 173 28.32 173 29 173 C29.226875 173.556875 29.45375 174.11375 29.6875 174.6875 C31.37550036 177.66159588 33.46676517 179.72008865 36 182 C36.66 182 37.32 182 38 182 C38.226875 182.556875 38.45375 183.11375 38.6875 183.6875 C40.37550036 186.66159588 42.46676517 188.72008865 45 191 C45.66 191 46.32 191 47 191 C47.226875 191.556875 47.45375 192.11375 47.6875 192.6875 C49.37550036 195.66159588 51.46676517 197.72008865 54 200 C54.66 200 55.32 200 56 200 C56.226875 200.556875 56.45375 201.11375 56.6875 201.6875 C58.37550036 204.66159588 60.46676517 206.72008865 63 209 C63.66 209 64.32 209 65 209 C65.226875 209.556875 65.45375 210.11375 65.6875 210.6875 C67.37550036 213.66159588 69.46676517 215.72008865 72 218 C72.66 218 73.32 218 74 218 C74 202.82 74 187.64 74 172 C81.12572095 173.94337844 87.84645197 175.92696783 94.6875 178.5625 C101.24006491 181.08611279 101.24006491 181.08611279 107.98828125 182.99609375 C113.48590345 184.28559196 118.67110682 186.41475847 123.93359375 188.43359375 C130.52163524 190.92146031 137.06892653 192.70042372 144 194 C139.68431972 188.8538108 135.37872495 183.91332224 130.125 179.6875 C126.9224848 177.07773826 124.33597799 174.05019467 121.65625 170.91796875 C118.71888882 167.51644908 115.62590558 164.50344579 112.125 161.6875 C108.9224848 159.07773826 106.33597799 156.05019467 103.65625 152.91796875 C100.71888882 149.51644908 97.62590558 146.50344579 94.125 143.6875 C90.9224848 141.07773826 88.33597799 138.05019467 85.65625 134.91796875 C82.71888882 131.51644908 79.62590558 128.50344579 76.125 125.6875 C72.9224848 123.07773826 70.33597799 120.05019467 67.65625 116.91796875 C64.71888882 113.51644908 61.62590558 110.50344579 58.125 107.6875 C54.9224848 105.07773826 52.33597799 102.05019467 49.65625 98.91796875 C46.69919161 95.49363934 43.57952433 92.46855158 40.0625 89.625 C37.15304749 87.25267718 34.8283529 84.56856189 32.4296875 81.69140625 C29.4373881 78.1513362 26.11828093 75.08035301 22.5625 72.125 C19.50068972 69.54139002 16.95747048 66.74452553 14.40625 63.6640625 C12.40822624 61.29973439 10.21655624 59.15822582 8 57 C7.278125 56.236875 6.55625 55.47375 5.8125 54.6875 C4.16877727 52.77286049 4.16877727 52.77286049 2 53 Z M-96 151 C-96 166.18 -96 181.36 -96 197 C-83.80692672 203.13159178 -83.80692672 203.13159178 -71.5 209 C-63.92495704 212.53215835 -56.44476153 216.23370185 -48.98388672 220 C-45.66024905 221.67531626 -42.32969996 223.33677585 -39 225 C-38.01966797 225.49064941 -38.01966797 225.49064941 -37.01953125 225.99121094 C-33.57732526 227.71400793 -30.13250734 229.43129162 -26.68359375 231.140625 C-25.97267578 231.49382812 -25.26175781 231.84703125 -24.52929688 232.2109375 C-23.18378254 232.87929756 -21.8374895 233.54609345 -20.49023438 234.2109375 C-17.299729 235.79785554 -14.21368457 237.45829301 -11.16015625 239.296875 C-10.11730469 239.85890625 -9.07445312 240.4209375 -8 241 C-7.34 240.67 -6.68 240.34 -6 240 C-10.85976689 234.35594796 -15.69773109 228.89767436 -21.4375 224.125 C-24.50266842 221.53855637 -27.04626692 218.73539521 -29.60546875 215.65625 C-32.57995977 212.12352117 -35.89527944 209.06908244 -39.4375 206.125 C-42.50266842 203.53855637 -45.04626692 200.73539521 -47.60546875 197.65625 C-50.57995977 194.12352117 -53.89527944 191.06908244 -57.4375 188.125 C-60.50266842 185.53855637 -63.04626692 182.73539521 -65.60546875 179.65625 C-68.57995977 176.12352117 -71.89527944 173.06908244 -75.4375 170.125 C-78.49931028 167.54139002 -81.04252952 164.74452553 -83.59375 161.6640625 C-85.59177376 159.29973439 -87.78344376 157.15822582 -90 155 C-90.721875 154.236875 -91.44375 153.47375 -92.1875 152.6875 C-93.83122273 150.77286049 -93.83122273 150.77286049 -96 151 Z " fill="#D62027" transform="translate(449,111)"/>
<path d="M0 0 C3.48386368 0.02144366 6.96566111 0.00007254 10.44946289 -0.02539062 C24.90961379 -0.04256678 38.44403947 1.40710655 52.55297852 4.52148438 C54.10994966 4.84756285 55.66722966 5.17217098 57.22485352 5.49511719 C72.93166028 8.7539509 87.90760846 14.22768364 102.07250977 21.72460938 C105.54188491 23.57224745 105.54188491 23.57224745 109.22485352 25.07226562 C112.11540978 26.33094681 114.43784009 27.63980727 116.99047852 29.45898438 C121.02984766 32.2421236 125.12056158 34.42616001 129.55297852 36.52148438 C129.55297852 37.18148437 129.55297852 37.84148438 129.55297852 38.52148438 C130.25422852 38.76898438 130.95547852 39.01648437 131.67797852 39.27148438 C137.40539669 41.76166619 142.09912661 45.66629927 146.80297852 49.70898438 C147.36726563 50.19093262 147.93155273 50.67288086 148.51293945 51.16943359 C179.20643885 77.48186539 179.20643885 77.48186539 182.55297852 87.52148438 C183.54297852 87.85148437 184.53297852 88.18148437 185.55297852 88.52148438 C186.58759936 90.26740704 187.61736603 92.01783008 188.56860352 93.81054688 C189.52605243 95.64638511 189.52605243 95.64638511 191.30297852 97.27148438 C192.55297852 98.52148438 192.55297852 98.52148438 192.55297852 101.52148438 C193.21297852 101.52148438 193.87297852 101.52148438 194.55297852 101.52148438 C195.15045898 102.64296875 195.15045898 102.64296875 195.76000977 103.78710938 C196.28981445 104.77195312 196.81961914 105.75679688 197.36547852 106.77148438 C197.88754883 107.74601562 198.40961914 108.72054687 198.94750977 109.72460938 C200.34480228 112.15882213 201.86714392 114.28799165 203.55297852 116.52148438 C204.24884964 118.14518366 204.94104142 119.77069271 205.60375977 121.40820312 C206.76783797 123.99983403 208.15286174 126.42467327 209.55297852 128.89648438 C211.73549085 132.84961333 213.4160038 136.59076075 214.71313477 140.90429688 C215.59817389 143.66232577 216.63668252 146.34348292 217.6940918 149.03930664 C222.98793677 162.63095339 225.90864191 176.64898524 228.72094727 190.92773438 C228.85782959 191.62189453 228.99471191 192.31605469 229.13574219 193.03125 C230.2279103 199.54974898 230.69496319 205.80006858 230.65063477 212.39648438 C230.64851234 213.6113855 230.64851234 213.6113855 230.64634705 214.85083008 C230.64080235 217.40775431 230.62826059 219.96458713 230.61547852 222.52148438 C230.61045635 224.26757685 230.60589471 226.01367071 230.60180664 227.75976562 C230.59085111 232.01370646 230.57362545 236.26757998 230.55297852 240.52148438 C224.21914299 237.44708515 219.88693736 233.01116558 215.55297852 227.52148438 C214.31547852 226.53148437 214.31547852 226.53148437 213.05297852 225.52148438 C210.42398308 223.41828803 208.64978217 221.14248894 206.55297852 218.52148438 C205.31547852 217.53148437 205.31547852 217.53148437 204.05297852 216.52148438 C201.42398308 214.41828803 199.64978217 212.14248894 197.55297852 209.52148438 C195.90295024 208.16761502 194.23553982 206.83470295 192.55297852 205.52148438 C189.54337531 202.67028134 186.80668889 199.66813035 184.11547852 196.52148438 C181.15510352 193.09875146 178.0741133 190.35370148 174.55297852 187.52148438 C171.54465252 184.6674315 168.80788441 181.66852898 166.11547852 178.52148438 C163.15510352 175.09875146 160.0741133 172.35370148 156.55297852 169.52148438 C153.54465252 166.6674315 150.80788441 163.66852898 148.11547852 160.52148438 C145.15510352 157.09875146 142.0741133 154.35370148 138.55297852 151.52148438 C135.54465252 148.6674315 132.80788441 145.66852898 130.11547852 142.52148438 C127.15510352 139.09875146 124.0741133 136.35370148 120.55297852 133.52148438 C117.58626143 130.70690663 114.88834774 127.75563399 112.24047852 124.64648438 C109.1302637 121.02931825 105.74914943 117.97946064 102.05688477 114.96679688 C101.5605957 114.48984375 101.06430664 114.01289062 100.55297852 113.52148438 C100.55297852 112.86148438 100.55297852 112.20148438 100.55297852 111.52148438 C109.72695465 113.17312714 118.22821324 117.18545989 126.73266602 120.87695312 C130.90281029 122.68212045 135.10024055 124.41880529 139.30297852 126.14648438 C140.3920752 126.59447388 140.3920752 126.59447388 141.50317383 127.05151367 C145.30133213 128.60976586 149.10785746 130.14269069 152.92797852 131.64648438 C158.22284528 133.74617292 163.38701144 136.12510421 168.55297852 138.52148438 C168.88297852 138.19148437 169.21297852 137.86148438 169.55297852 137.52148438 C168.89297852 136.40773437 168.23297852 135.29398438 167.55297852 134.14648438 C165.55297852 130.77148438 165.55297852 130.77148438 165.55297852 128.52148438 C164.89297852 128.52148438 164.23297852 128.52148438 163.55297852 128.52148438 C163.14047852 127.44898437 162.72797852 126.37648438 162.30297852 125.27148438 C160.90985211 121.9653088 159.13854457 120.01789298 156.55297852 117.52148438 C156.55297852 116.53148438 156.55297852 115.54148437 156.55297852 114.52148438 C155.89297852 114.52148438 155.23297852 114.52148438 154.55297852 114.52148438 C154.22297852 113.53148438 153.89297852 112.54148437 153.55297852 111.52148438 C151.92084323 109.8209874 150.24816949 108.15912997 148.55297852 106.52148438 C146.81486225 104.63385273 145.08609001 102.73758557 143.36547852 100.83398438 C133.06856473 89.47166598 133.06856473 89.47166598 121.24438477 79.77539062 C119.50539653 78.48620997 118.07722448 77.05394729 116.55297852 75.52148438 C114.56697515 74.16739117 112.56480309 72.83690813 110.55297852 71.52148438 C109.44647426 70.71217071 108.34238424 69.89954801 107.24047852 69.08398438 C103.88412756 66.66859715 100.37289218 64.67124807 96.73657227 62.70898438 C94.82917562 61.67168817 92.97475621 60.57892577 91.11547852 59.45898438 C87.62031115 57.4502675 83.96384871 56.02913009 80.20532227 54.58789062 C77.52578358 53.51055033 74.96251763 52.28334439 72.36547852 51.02148438 C66.34834939 48.27271229 60.17449411 46.5944484 53.76245117 45.06591797 C51.40272257 44.48445998 49.06406228 43.84225709 46.72094727 43.19726562 C31.39488294 39.15050393 16.3562123 38.46550013 0.55297852 38.52148438 C-0.47456543 38.52422363 -1.50210938 38.52696289 -2.56079102 38.52978516 C-26.63012399 38.75104762 -52.65459546 43.55380107 -73.91967773 55.23242188 C-77.91199762 57.26869013 -82.11503211 58.42890298 -86.44702148 59.52148438 C-86.44702148 60.18148437 -86.44702148 60.84148438 -86.44702148 61.52148438 C-87.30424805 61.9571875 -88.16147461 62.39289062 -89.04467773 62.84179688 C-94.86201278 65.87179551 -100.14637587 68.78156781 -104.95092773 73.31054688 C-107.17831919 75.11339635 -109.74138711 75.68402612 -112.44702148 76.52148438 C-112.94202148 78.00648437 -112.94202148 78.00648437 -113.44702148 79.52148438 C-115.23999023 81.07226562 -115.23999023 81.07226562 -117.63452148 82.83398438 C-127.10583734 90.20963551 -135.99484723 98.8987342 -143.01733398 108.65429688 C-144.66125881 110.80128066 -146.53283157 112.61510748 -148.44702148 114.52148438 C-149.4849173 116.16481942 -150.48270072 117.83392304 -151.44702148 119.52148438 C-152.06577148 120.42898437 -152.68452148 121.33648437 -153.32202148 122.27148438 C-155.45370719 125.53170957 -157.34168372 128.85560081 -159.20092773 132.27539062 C-160.5605801 134.72617467 -161.9940178 137.1250812 -163.44702148 139.52148438 C-162.49182617 139.06257812 -161.53663086 138.60367188 -160.55249023 138.13085938 C-153.80513251 134.91841607 -147.11736166 131.92860818 -140.04858398 129.47851562 C-136.38032632 128.1290815 -132.88185585 126.46167537 -129.34155273 124.81054688 C-126.18629475 123.40537126 -122.99232942 122.17454999 -119.75952148 120.95898438 C-116.13201145 119.5927793 -112.6320742 118.19254574 -109.19702148 116.39648438 C-104.2953088 113.83635418 -99.02686165 111.52148438 -93.44702148 111.52148438 C-94.85579289 114.83029107 -96.48452594 116.63616295 -99.25952148 118.89648438 C-102.78668051 121.87610608 -105.55841091 124.93023879 -108.44702148 128.52148438 C-111.30107436 131.52981037 -114.29997688 134.26657848 -117.44702148 136.95898438 C-120.8697544 139.91935937 -123.61480438 143.00034959 -126.44702148 146.52148438 C-129.30107436 149.52981037 -132.29997688 152.26657848 -135.44702148 154.95898438 C-138.8697544 157.91935937 -141.61480438 161.00034959 -144.44702148 164.52148438 C-147.30107436 167.52981037 -150.29997688 170.26657848 -153.44702148 172.95898438 C-156.8697544 175.91935937 -159.61480438 179.00034959 -162.44702148 182.52148438 C-165.30107436 185.52981037 -168.29997688 188.26657848 -171.44702148 190.95898438 C-174.8697544 193.91935937 -177.61480438 197.00034959 -180.44702148 200.52148438 C-183.32082044 203.55062381 -186.34346836 206.30688697 -189.50952148 209.02148438 C-192.54417319 211.64128669 -194.97100602 214.36243016 -197.44702148 217.52148438 C-199.11368815 218.85481771 -200.78035482 220.18815104 -202.44702148 221.52148438 C-203.10702148 222.34648437 -203.76702148 223.17148438 -204.44702148 224.02148438 C-206.55021783 226.65047981 -208.82601692 228.42468072 -211.44702148 230.52148438 C-212.40608398 231.72804687 -212.40608398 231.72804687 -213.38452148 232.95898438 C-215.83558991 236.00425121 -218.33602644 238.15442293 -221.44702148 240.52148438 C-222.10702148 240.52148438 -222.76702148 240.52148438 -223.44702148 240.52148438 C-223.88959139 220.13603354 -223.99993763 200.51921358 -219.44702148 180.52148438 C-219.22739746 179.51166504 -219.00777344 178.5018457 -218.78149414 177.46142578 C-216.17391926 165.59723687 -213.01851661 154.28187116 -208.06030273 143.17773438 C-206.91731984 140.58734215 -205.89143179 138.05838342 -204.93139648 135.40429688 C-203.69477369 132.04524635 -202.17605111 129.00302423 -200.38452148 125.89648438 C-198.29770251 122.17335077 -196.56749312 118.66722941 -195.44702148 114.52148438 C-194.78702148 114.52148438 -194.12702148 114.52148438 -193.44702148 114.52148438 C-193.15827148 113.77898437 -192.86952148 113.03648438 -192.57202148 112.27148438 C-191.62399504 109.95408641 -190.59856237 107.74231323 -189.44702148 105.52148438 C-188.78702148 105.52148438 -188.12702148 105.52148438 -187.44702148 105.52148438 C-187.24077148 104.69648437 -187.03452148 103.87148437 -186.82202148 103.02148438 C-185.33136874 99.22709557 -183.41657749 96.6035816 -180.88452148 93.45117188 C-179.40167849 91.60353969 -179.40167849 91.60353969 -178.57202148 89.59179688 C-177.0073849 86.71243094 -174.78798294 84.80893814 -172.44702148 82.52148438 C-170.48742925 80.30761501 -168.59705998 78.03651074 -166.69702148 75.77148438 C-157.19017306 64.57241693 -146.63507424 53.84071541 -134.44702148 45.52148438 C-133.78702148 45.52148438 -133.12702148 45.52148438 -132.44702148 45.52148438 C-132.11702148 44.53148437 -131.78702148 43.54148438 -131.44702148 42.52148438 C-128.7861818 40.5275218 -125.83459824 38.52148438 -122.44702148 38.52148438 C-122.44702148 37.86148438 -122.44702148 37.20148437 -122.44702148 36.52148438 C-119.8248782 35.01629051 -117.1995794 33.51717119 -114.57202148 32.02148438 C-113.8256543 31.59222656 -113.07928711 31.16296875 -112.31030273 30.72070312 C-111.59487305 30.31464844 -110.87944336 29.90859375 -110.14233398 29.49023438 C-109.48249512 29.11318359 -108.82265625 28.73613281 -108.14282227 28.34765625 C-106.44702148 27.52148438 -106.44702148 27.52148438 -104.44702148 27.52148438 C-104.44702148 26.86148437 -104.44702148 26.20148437 -104.44702148 25.52148438 C-103.9481543 25.30234375 -103.44928711 25.08320313 -102.93530273 24.85742188 C-102.21729492 24.5403125 -101.49928711 24.22320313 -100.75952148 23.89648438 C-99.92291992 23.5278125 -99.08631836 23.15914062 -98.22436523 22.77929688 C-96.39067503 21.94884927 -94.56963302 21.08981436 -92.76342773 20.20117188 C-78.86105238 13.44384202 -63.78870673 7.71869231 -48.49267578 5.22973633 C-45.66296608 4.75748588 -42.87644357 4.18211002 -40.08007812 3.54199219 C-26.67133632 0.56340048 -13.71051313 -0.10002759 0 0 Z " fill="#FFFFFF" transform="translate(446.447021484375,-0.521484375)"/>
<path d="M0 0 C45.21 0 90.42 0 137 0 C137 10.23 137 20.46 137 31 C104.99 31 72.98 31 40 31 C40 36.28 40 41.56 40 47 C72.01 47 104.02 47 137 47 C137 57.23 137 67.46 137 78 C104.99 78 72.98 78 40 78 C40 83.28 40 88.56 40 94 C72.01 94 104.02 94 137 94 C137 103.9 137 113.8 137 124 C91.79 124 46.58 124 0 124 C0 83.08 0 42.16 0 0 Z " fill="#FFFFFF" transform="translate(0,521)"/>
<path d="M0 0 C88.77 0 177.54 0 269 0 C269 10.23 269 20.46 269 31 C216.86 31 164.72 31 111 31 C111 61.69 111 92.38 111 124 C97.47 124 83.94 124 70 124 C70 93.31 70 62.62 70 31 C52.78182839 31.31636349 52.78182839 31.31636349 35.56567383 31.72070312 C33.40449174 31.74407152 31.24327443 31.76445647 29.08203125 31.78125 C27.96324585 31.82217773 26.84446045 31.86310547 25.69177246 31.90527344 C17.98184933 31.91220448 17.98184933 31.91220448 15.17709351 29.30639648 C13.03460486 26.01344734 11.85171182 22.82335166 11 19 C10.34 19 9.68 19 9 19 C7.87247351 16.77208002 6.74791861 14.54274113 5.625 12.3125 C5.14933594 11.37374023 5.14933594 11.37374023 4.6640625 10.41601562 C2.93608683 6.97806402 1.43270907 3.58177266 0 0 Z " fill="#FFFFFF" transform="translate(631,521)"/>
<path d="M0 0 C13.53 0 27.06 0 41 0 C41 31.02 41 62.04 41 94 C54.56222656 93.88398437 68.12445313 93.76796875 82.09765625 93.6484375 C90.67905543 93.59735457 99.26034469 93.54880276 107.84179688 93.51171875 C121.46905094 93.45235728 135.09568721 93.38253553 148.72241211 93.24560547 C158.64633008 93.14593112 168.56974739 93.08141764 178.49415201 93.05911505 C183.74935186 93.04607753 189.00311946 93.01544403 194.25786018 92.94269943 C199.20523066 92.87476553 204.15058082 92.85389381 209.09837341 92.86892319 C210.91289698 92.86617437 212.72748878 92.84630993 214.54160881 92.80794525 C228.24890907 92.53231058 228.24890907 92.53231058 232.6049633 96.18336868 C234.42589739 98.73015181 235.75742489 101.13374053 237 104 C237.61230469 105.11890625 238.22460938 106.2378125 238.85546875 107.390625 C239.29503906 108.33421875 239.73460937 109.2778125 240.1875 110.25 C241.75769326 113.5250948 243.30086072 116.64115051 245.375 119.625 C247 122 247 122 247 124 C165.49 124 83.98 124 0 124 C0 83.08 0 42.16 0 0 Z " fill="#FFFFFF" transform="translate(159,521)"/>
<path d="M0 0 C0.80067902 -0.00841919 1.60135803 -0.01683838 2.42630005 -0.0255127 C3.33419281 -0.04142456 4.24208557 -0.05733643 5.17749023 -0.07373047 C6.65247482 -0.07403259 6.65247482 -0.07403259 8.15725708 -0.07434082 C9.16595856 -0.08195435 10.17466003 -0.08956787 11.21392822 -0.09741211 C13.35077435 -0.1082319 15.48767344 -0.11105862 17.62454224 -0.10656738 C20.8954607 -0.10559664 24.16402237 -0.14716478 27.43460083 -0.19152832 C29.50881468 -0.19673624 31.5830367 -0.1994235 33.65725708 -0.19934082 C34.63653168 -0.21573608 35.61580627 -0.23213135 36.62475586 -0.24902344 C43.41760384 -0.17988047 43.41760384 -0.17988047 46.62356567 2.7779541 C47.96007615 5.24665158 48.98791874 7.51970385 49.79006958 10.20690918 C50.03241333 10.99710449 50.27475708 11.7872998 50.52444458 12.60144043 C50.69460083 13.19312012 50.86475708 13.7847998 51.04006958 14.39440918 C51.70006958 14.39440918 52.36006958 14.39440918 53.04006958 14.39440918 C53.64335083 15.5519873 54.24663208 16.70956543 54.86819458 17.90222168 C55.67531189 19.44137562 56.48261334 20.98043302 57.29006958 22.51940918 C57.68581177 23.27995605 58.08155396 24.04050293 58.48928833 24.82409668 C60.27340136 28.21683621 62.07539682 31.44714588 64.21194458 34.63659668 C65.91458438 37.20510885 66.92465437 39.54239225 68.04006958 42.39440918 C69.12852002 44.18793959 70.25600179 45.95818463 71.41506958 47.70690918 C73.91003692 51.47134228 76.01788495 55.26694798 78.00003052 59.31311035 C79.71129376 62.73764536 81.59269363 66.06316956 83.47756958 69.39440918 C83.8729895 70.09646484 84.26840942 70.79852051 84.67581177 71.52185059 C86.98562611 75.60151035 89.38881817 79.59289496 91.92678833 83.53503418 C93.77281551 86.61822343 95.28371301 89.86684248 96.86038208 93.09362793 C98.36268506 96.0236162 100.20144894 98.66433611 102.04006958 101.39440918 C113.04006958 120.61385362 113.04006958 120.61385362 113.04006958 124.39440918 C99.18006958 124.39440918 85.32006958 124.39440918 71.04006958 124.39440918 C70.05006958 120.92940918 70.05006958 120.92940918 69.04006958 117.39440918 C68.38006958 117.39440918 67.72006958 117.39440918 67.04006958 117.39440918 C66.42518677 116.28581543 65.81030396 115.17722168 65.17678833 114.03503418 C64.36053487 112.57140729 63.54412014 111.10787034 62.72756958 109.64440918 C62.32344849 108.9147998 61.91932739 108.18519043 61.50296021 107.43347168 C60.90838013 106.36999512 60.90838013 106.36999512 60.30178833 105.28503418 C59.940448 104.63566895 59.57910767 103.98630371 59.20681763 103.31726074 C57.90316837 101.16879003 56.72453285 99.27096876 55.04006958 97.39440918 C52.85618918 96.78099305 52.85618918 96.78099305 50.38504028 96.84851074 C49.44429153 96.82879211 48.50354279 96.80907349 47.5342865 96.78875732 C46.52170273 96.78752869 45.50911896 96.78630005 44.46585083 96.78503418 C43.42688156 96.76849792 42.38791229 96.75196167 41.31745911 96.73492432 C37.99577 96.68630061 34.67453916 96.66504104 31.35256958 96.64440918 C29.1018953 96.6162616 26.85124251 96.58633589 24.60061646 96.55456543 C19.08051776 96.48053808 13.56054871 96.42897992 8.04006958 96.39440918 C8.60506023 92.67870488 9.15034236 89.66993637 11.04006958 86.39440918 C11.70006958 86.39440918 12.36006958 86.39440918 13.04006958 86.39440918 C13.29788208 85.53202637 13.55569458 84.66964355 13.82131958 83.78112793 C15.07537119 80.29631144 16.640933 77.3815252 18.54006958 74.20690918 C19.14850708 73.18210449 19.75694458 72.1572998 20.38381958 71.10144043 C21.56292381 69.17427243 22.78685669 67.27422852 24.04006958 65.39440918 C26.86038208 64.88269043 26.86038208 64.88269043 30.16506958 64.70690918 C31.26077271 64.64116699 32.35647583 64.5754248 33.48538208 64.50769043 C34.32842896 64.47030762 35.17147583 64.4329248 36.04006958 64.39440918 C31.37154004 55.8423241 26.48137363 47.48030401 21.04006958 39.39440918 C16.58370388 46.50875951 12.26743586 53.6173359 8.36428833 61.05456543 C7.07706699 63.32903618 5.61960375 65.31745265 4.04006958 67.39440918 C3.60694458 68.28128418 3.17381958 69.16815918 2.72756958 70.08190918 C1.32236374 72.84027621 -0.15532502 75.22628547 -1.89743042 77.76940918 C-4.21498238 81.18025347 -6.12541069 84.58668949 -7.90133667 88.30065918 C-9.56539494 91.5919331 -11.51456391 94.70354047 -13.43258667 97.85144043 C-15.70995412 101.64316987 -17.84086169 105.51257531 -19.95993042 109.39440918 C-20.61993042 109.39440918 -21.27993042 109.39440918 -21.95993042 109.39440918 C-22.18680542 110.38440918 -22.41368042 111.37440918 -22.64743042 112.39440918 C-23.99503595 116.89410832 -25.60880102 121.01139794 -28.95993042 124.39440918 C-32.27172988 125.49175126 -35.39608795 125.33176163 -38.85446167 125.17565918 C-39.80181686 125.1643396 -40.74917206 125.15302002 -41.72523499 125.14135742 C-44.74304821 125.09666775 -47.75606085 124.99632493 -50.77243042 124.89440918 C-52.82118978 124.85427233 -54.87002384 124.81777191 -56.91891479 124.78503418 C-61.93442865 124.69695681 -66.94636658 124.55896471 -71.95993042 124.39440918 C-70.74467365 121.25902749 -69.59741128 118.66969625 -67.52243042 116.01940918 C-65.47174347 113.24740502 -64.10610876 110.5559443 -62.83102417 107.33581543 C-61.3920227 104.1287135 -59.50575796 101.19779237 -57.65524292 98.21472168 C-54.40547856 92.80843167 -51.42767342 87.24573462 -48.38961792 81.71862793 C-47.53805542 80.17305501 -46.68649292 78.6274821 -45.83493042 77.08190918 C-45.40567261 76.29751465 -44.97641479 75.51312012 -44.53414917 74.70495605 C-42.52904551 71.07417604 -40.52568118 67.6657414 -37.95993042 64.39440918 C-37.67118042 63.67253418 -37.38243042 62.95065918 -37.08493042 62.20690918 C-35.42678028 58.06153383 -33.17041144 54.26696943 -30.95993042 50.39440918 C-30.29993042 50.39440918 -29.63993042 50.39440918 -28.95993042 50.39440918 C-28.62993042 48.41440918 -28.29993042 46.43440918 -27.95993042 44.39440918 C-27.29993042 44.39440918 -26.63993042 44.39440918 -25.95993042 44.39440918 C-25.85422729 43.84526855 -25.74852417 43.29612793 -25.63961792 42.73034668 C-24.81467895 39.89521161 -23.53316194 37.59164128 -22.08493042 35.01940918 C-19.94801286 31.18220386 -17.88104636 27.34336973 -15.95993042 23.39440918 C-15.29993042 23.39440918 -14.63993042 23.39440918 -13.95993042 23.39440918 C-13.71243042 22.55265137 -13.46493042 21.71089355 -13.20993042 20.84362793 C-11.82043821 17.00949785 -10.02265807 13.70831463 -7.95993042 10.20690918 C-7.60414917 9.59138184 -7.24836792 8.97585449 -6.88180542 8.3416748 C-2.30730287 0.46431313 -2.30730287 0.46431313 0 0 Z " fill="#FFFFFF" transform="translate(565.9599304199219,520.6055908203125)"/>
<path d="M0 0 C6.01375038 -0.22297148 12.02508338 -0.38601105 18.04199219 -0.49438477 C20.08701491 -0.53956701 22.13174812 -0.60092981 24.17578125 -0.67895508 C27.12051719 -0.78852332 30.06140613 -0.83924086 33.0078125 -0.87890625 C33.9174173 -0.92535782 34.82702209 -0.97180939 35.76419067 -1.01966858 C38.45133016 -1.02179152 40.46601348 -0.90505551 43 0 C46.98864627 3.99918456 48.94041952 8.83164962 51 14 C52.08845044 15.79353041 53.21593221 17.56377545 54.375 19.3125 C56.83020679 23.10414925 59.03342318 26.85934652 60.98828125 30.92578125 C64.85427028 38.85180509 69.41534583 46.34207807 74.06640625 53.82421875 C76.28757644 57.47232252 78.33618767 61.18649685 80.34765625 64.953125 C81.66228546 67.37726398 83.00408628 69.7773219 84.37109375 72.171875 C84.78431885 72.89721436 85.19754395 73.62255371 85.62329102 74.36987305 C86.44731597 75.81332305 87.27454725 77.25494813 88.10522461 78.69458008 C91 83.77861871 91 83.77861871 91 86 C95.3914695 82.04767745 97.8948185 77.26486947 100.15234375 71.88623047 C101.54942713 68.77739805 103.27157307 65.87127728 105 62.9375 C107.48420523 58.69287114 109.84527122 54.42392753 112 50 C112.66 50 113.32 50 114 50 C114.495 48.14375 114.495 48.14375 115 46.25 C116.7800422 40.80668254 119.83811004 36.51570168 123.16015625 31.89453125 C125.01518097 28.97611656 126.05284833 26.31257708 127 23 C127.66 23 128.32 23 129 23 C129.37125 21.700625 129.37125 21.700625 129.75 20.375 C131.08030445 16.78317799 132.85045773 14.16109157 135 11 C136.07035281 8.9640028 137.07953044 6.9077606 138.0703125 4.83203125 C139 3 139 3 141 0 C142.87295532 -0.36076355 142.87295532 -0.36076355 145.17431641 -0.34057617 C146.03505768 -0.34034958 146.89579895 -0.34012299 147.78262329 -0.33988953 C148.71287323 -0.32440567 149.64312317 -0.30892181 150.6015625 -0.29296875 C151.55316254 -0.28872391 152.50476257 -0.28447906 153.48519897 -0.28010559 C156.53208414 -0.26327896 159.57831391 -0.22561954 162.625 -0.1875 C164.68749046 -0.17245831 166.74999127 -0.15876901 168.8125 -0.14648438 C173.8752535 -0.11336239 178.93751554 -0.06155284 184 0 C183.43500935 3.7157043 182.88972722 6.72447281 181 10 C180.34 10 179.68 10 179 10 C178.79375 10.763125 178.5875 11.52625 178.375 12.3125 C175.98008887 18.73521622 172.59896101 24.80671547 168.6875 30.4375 C167.17396959 32.73582396 166.41376225 34.31054536 166 37 C165.34 37 164.68 37 164 37 C163.6596875 38.2375 163.6596875 38.2375 163.3125 39.5 C162.01049074 42.97202468 160.42025831 45.65361181 158.41796875 48.7421875 C155.72272887 53.03378159 153.39584878 57.53666751 151 62 C145.33777006 72.54841821 145.33777006 72.54841821 142.5 77 C140.05351026 80.84005984 137.89378184 84.80535328 135.734375 88.8125 C133.69355796 92.56319077 131.59988517 96.28216335 129.5 100 C126.37867216 105.52911622 123.29992474 111.07762512 120.2890625 116.66796875 C119.86367188 117.43753906 119.43828125 118.20710937 119 119 C118.69215576 119.85722656 118.38431152 120.71445312 118.06713867 121.59765625 C115.62427359 124.43665382 115.03667007 124.40578272 111.44018555 124.69458008 C109.50627253 124.74798487 107.57136851 124.77091346 105.63671875 124.76953125 C104.61197952 124.7814299 103.5872403 124.79332855 102.53144836 124.80558777 C100.36192731 124.82214412 98.19227134 124.82547955 96.02270508 124.81665039 C92.70877934 124.81252648 89.40098134 124.8774878 86.08789062 124.94726562 C83.97917743 124.95474827 81.87044493 124.95813688 79.76171875 124.95703125 C78.28018562 124.99543877 78.28018562 124.99543877 76.76872253 125.03462219 C70.04154171 124.92235634 70.04154171 124.92235634 67.05264282 122.27548218 C63.88323167 118.15621402 62.01268855 113.7801353 60 109 C59.02636593 107.48275358 58.02419896 105.98358232 57 104.5 C54.45460736 100.80044649 52.74590804 97.1465316 51 93 C49.56705121 90.49024466 48.06636009 88.02945487 46.5546875 85.56640625 C44.6347696 82.39709454 42.84974668 79.16403474 41.078125 75.91015625 C40.12861996 74.22788102 39.07153517 72.60730276 38 71 C38 70.01 38 69.02 38 68 C37.34 68 36.68 68 36 68 C35.7421875 67.2884375 35.484375 66.576875 35.21875 65.84375 C33.91729758 62.80702768 32.32425334 60.25183979 30.5 57.5 C28.21479087 54.05282013 26.50924752 50.83746656 25 47 C23.82482643 44.81517027 22.61273337 42.65000697 21.375 40.5 C21.02526123 39.89124023 20.67552246 39.28248047 20.31518555 38.65527344 C17.89415452 34.46783653 15.37424584 30.35268215 12.8125 26.25 C9.95460646 21.658355 7.42928573 17.02900608 5.09765625 12.15234375 C4.08745503 10.17148656 2.97928951 8.42990451 1.6875 6.625 C0 4 0 4 0 0 Z " fill="#FFFFFF" transform="translate(358,521)"/>
<path d="M0 0 C28.45819037 -0.44180035 28.45819037 -0.44180035 42.52470493 -0.55279255 C50.13011343 -0.61373095 57.73419368 -0.69106232 65.33862305 -0.82983398 C72.00425143 -0.95141541 78.66814577 -1.0151321 85.33492851 -1.04364967 C87.87763537 -1.06396956 90.42026381 -1.10365235 92.96235847 -1.16303062 C112.9345593 -1.61097113 112.9345593 -1.61097113 118.08143616 2.40341187 C119.93569864 5.26524919 121.02278414 7.74847982 122 11 C122.63550781 12.11375 123.27101563 13.2275 123.92578125 14.375 C124.38339844 15.24125 124.84101563 16.1075 125.3125 17 C126.78717477 19.77966093 128.25181594 22.37772391 130 25 C130 25.99 130 26.98 130 28 C130.66 28 131.32 28 132 28 C132 28.99 132 29.98 132 31 C101.97 31 71.94 31 41 31 C41 36.28 41 41.56 41 47 C42.86588776 46.98334541 42.86588776 46.98334541 44.76947021 46.96635437 C56.48219498 46.86507352 68.19483112 46.79008013 79.90789413 46.74093914 C85.92999242 46.71482598 91.95173771 46.67939566 97.97363281 46.62280273 C103.7832207 46.56854563 109.59246869 46.53859242 115.40229034 46.52561378 C117.62074384 46.51636267 119.83917837 46.49829764 122.05748749 46.47134972 C125.16080682 46.43514409 128.26271499 46.43005122 131.36621094 46.43237305 C132.28690369 46.41439667 133.20759644 46.39642029 134.15618896 46.37789917 C140.40234921 46.42859129 140.40234921 46.42859129 143.52606201 49.41514587 C144.25566132 50.69464867 144.25566132 50.69464867 145 52 C145.60231445 52.95302002 145.60231445 52.95302002 146.21679688 53.92529297 C146.54744141 54.52486816 146.87808594 55.12444336 147.21875 55.7421875 C147.78142578 56.75345703 147.78142578 56.75345703 148.35546875 57.78515625 C148.73316406 58.47480469 149.11085938 59.16445313 149.5 59.875 C150.26020195 61.24751478 151.02061704 62.61991153 151.78125 63.9921875 C152.14734375 64.65959961 152.5134375 65.32701172 152.890625 66.01464844 C153.63191637 67.34127287 154.39258312 68.65724957 155.171875 69.96191406 C158 74.69952135 158 74.69952135 158 78 C105.86 78 53.72 78 0 78 C0 52.26 0 26.52 0 0 Z " fill="#FFFFFF" transform="translate(221,521)"/>
<path d="M0 0 C45.21 0 90.42 0 137 0 C137 10.23 137 20.46 137 31 C104.99 31 72.98 31 40 31 C40 36.28 40 41.56 40 47 C72.01 47 104.02 47 137 47 C137 56.9 137 66.8 137 77 C91.79 77 46.58 77 0 77 C0 51.59 0 26.18 0 0 Z " fill="#FFFFFF" transform="translate(763,568)"/>
</svg>
