<?xml version="1.0" encoding="UTF-8"?>
<svg version="1.1" xmlns="http://www.w3.org/2000/svg" width="329" height="390">
<path d="M0 0 C-0.49918945 0.54382324 -0.99837891 1.08764648 -1.51269531 1.64794922 C-25.98263785 28.68058314 -45.77929531 65.41583941 -44.17480469 102.74804688 C-42.94548192 118.58502067 -35.86684364 134.39634361 -24 145 C-16.22162031 151.48275301 -16.22162031 151.48275301 -7 155 C-7.4846875 154.50113281 -7.969375 154.00226563 -8.46875 153.48828125 C-27.18300557 133.44243442 -32.09174547 110.81474652 -31.19091797 84.14501953 C-30.80042275 77.7123348 -29.33211376 72.02059042 -27 66 C-26.76394043 65.36094727 -26.52788086 64.72189453 -26.28466797 64.06347656 C-20.73217928 49.22104066 -11.89448698 37.41130325 -1 26 C-0.47535156 25.4121875 0.04929687 24.824375 0.58984375 24.21875 C8.84386792 15.31364505 19.50526692 8.52691683 30.125 2.8125 C30.8351123 2.42594238 31.54522461 2.03938477 32.27685547 1.64111328 C35.9831691 -0.27979336 38.71251682 -1.50882582 43 -1 C39.66830092 4.32666784 36.32188057 9.60537144 32.625 14.6875 C21.84115991 29.98270048 12.59786041 47.81637127 8 66 C7.81050781 66.74894531 7.62101562 67.49789062 7.42578125 68.26953125 C4.98045132 83.95105073 6.87180611 98.0822422 16.0625 111.25 C22.71658349 119.55927287 30.68604379 125.89009884 40 131 C38.83886935 128.62215267 37.67216912 126.24740768 36.5 123.875 C35.96838257 122.79532959 35.96838257 122.79532959 35.42602539 121.69384766 C33.61525991 118.0627549 31.75011452 114.50560058 29.65234375 111.03125 C29.09546875 110.10530029 29.09546875 110.10530029 28.52734375 109.16064453 C27.48954575 107.46027388 26.43083973 105.77271654 25.37109375 104.0859375 C23.47740363 99.82378594 24.10048483 97.43205812 25.68481445 93.1484375 C26.55057444 91.00996084 27.48085088 88.91187733 28.4375 86.8125 C28.79021973 86.03293945 29.14293945 85.25337891 29.50634766 84.45019531 C42.18147182 56.82845887 57.68805555 30.27725422 87 18 C107.09424681 11.12282462 126.28203301 14.53988981 146 21 C146.66 21.33 147.32 21.66 148 22 C149.41330224 22.18364843 150.83295062 22.31998301 152.25390625 22.4296875 C153.10919922 22.50316406 153.96449219 22.57664062 154.84570312 22.65234375 C156.62911231 22.79850381 158.4129704 22.9393054 160.19726562 23.07421875 C170.2513251 23.958916 178.17992128 26.21708663 185 34 C188.79078852 40.04689795 189.13349408 46.91757985 189.0625 53.875 C189.05347656 55.02742188 189.04445313 56.17984375 189.03515625 57.3671875 C189.01775391 58.67042969 189.01775391 58.67042969 189 60 C184.32644393 59.18720764 180.13646047 57.62516467 175.71875 55.9375 C167.3694651 53.05843624 160.03838542 53.47964327 152 57 C144.70236862 60.72179201 141.80492265 66.66818565 138.75 74 C135.76584678 85.93661289 137.42352723 96.41571511 143.3203125 107.25 C152.13557969 121.68243744 167.22856984 127.28498215 182.375 133 C191.20282054 136.34676905 199.90014389 139.73158056 208.25390625 144.15625 C208.85476044 144.47295654 209.45561462 144.78966309 210.07467651 145.1159668 C221.60404448 151.41962322 230.46139502 160.99234031 234.24609375 173.61328125 C239.4591685 197.03160149 232.72337212 223.20490818 224 245 C223.34 245 222.68 245 222 245 C222.165 243.7625 222.33 242.525 222.5 241.25 C224.37676777 221.50192117 223.50116519 203.076993 211.1875 186.5703125 C194.98939141 167.17177116 168.91729097 160.57758641 145 157 C144.13890625 156.86722656 143.2778125 156.73445312 142.390625 156.59765625 C135.95473521 155.74032057 129.48017479 155.90985847 123 156 C124.90845703 156.49306641 124.90845703 156.49306641 126.85546875 156.99609375 C152.49437378 163.83575942 175.24213449 173.9136372 194 193 C195.15628906 194.15822266 195.15628906 194.15822266 196.3359375 195.33984375 C209.83412817 209.63965111 215.63059151 227.96449844 215.26953125 247.36328125 C214.44772693 266.71818987 205.41452543 283.80314662 194 299 C193.48050781 299.77730469 192.96101563 300.55460937 192.42578125 301.35546875 C191.95527344 301.89816406 191.48476563 302.44085938 191 303 C190.01 303 189.02 303 188 303 C188.2165625 301.98421875 188.433125 300.9684375 188.65625 299.921875 C192.88823046 279.35685965 190.80913529 260.65329305 179.75 242.375 C167.5740649 224.1894832 150.91063654 214.51252421 130 209 C129.34 209 128.68 209 128 209 C128.92619141 209.70962891 128.92619141 209.70962891 129.87109375 210.43359375 C150.48013072 226.52558152 164.37733643 246.94673543 169 273 C170.6203964 296.88129044 167.21162669 317.81921519 151.3046875 336.48046875 C138.44710736 350.53663687 124.52725039 361.45596939 108 371 C107.32598145 371.3904248 106.65196289 371.78084961 105.95751953 372.18310547 C97.71376974 376.92849617 89.36392903 381.45688625 80.8125 385.625 C80.13026367 385.96789062 79.44802734 386.31078125 78.74511719 386.6640625 C74.3469976 388.7511583 70.95575828 389.59491549 66 389 C63.50311011 388.01742759 61.33497912 387.02220946 59 385.75 C58.32195312 385.39429932 57.64390625 385.03859863 56.9453125 384.67211914 C55.4412754 383.88246621 53.94010025 383.0873449 52.44140625 382.28759766 C49.87272501 380.93287517 47.28361333 379.62554391 44.6875 378.32421875 C23.81492766 367.78623917 4.21626651 355.67236535 -14 341 C-15.46373047 339.85337891 -15.46373047 339.85337891 -16.95703125 338.68359375 C-27.70879477 330.13570562 -38.38284545 320.73461774 -47 310 C-48.02578071 308.7510877 -49.05185285 307.50241475 -50.078125 306.25390625 C-51.19902251 304.87850465 -52.31880409 303.50219289 -53.4375 302.125 C-53.98301514 301.45734619 -54.52853027 300.78969238 -55.09057617 300.10180664 C-59 295.23202028 -59 295.23202028 -59 293 C-55.41789504 294.31006312 -52.50970846 295.90292072 -49.375 298.0625 C-31.92663523 309.26105103 -12.3606925 315.28268364 7.34375 321.21875 C27.72776954 327.37625733 47.79665518 333.54836813 64 348 C63.53417415 338.37293245 60.39478324 330.30869066 53.171875 323.703125 C40.22602917 313.55134662 24.47479107 307.36612554 9.50952148 300.85595703 C-28.93515294 284.12585753 -60.91541345 261.22368733 -76.79150391 221.29663086 C-81.02894285 210.13958114 -83.74563527 198.70266817 -86 187 C-86.2475 185.73027344 -86.495 184.46054688 -86.75 183.15234375 C-88.68926396 171.20701646 -88.1861301 159.06266225 -88 147 C-85.13032392 149.86967608 -84.35484473 153.42343698 -83.0625 157.1875 C-77.33967639 173.22350641 -70.33206497 189.36681884 -60 203 C-59.37867187 203.84046875 -58.75734375 204.6809375 -58.1171875 205.546875 C-36.8952461 233.21272573 -9.25547387 242.4025136 23.73355103 248.98486328 C51.73549818 254.57718397 73.74406647 261.86337371 94 283 C90.6390664 268.53198107 82.20993538 255.56957118 69.8125 247.25 C58.8000271 240.85442629 47.7876955 237.0927952 35.375 234.4375 C34.053245 234.14234187 32.73187804 233.84544109 31.41088867 233.546875 C28.80251283 232.95817511 26.19308379 232.37544773 23.58251953 231.79638672 C-2.06841698 226.09423632 -25.14903339 218.97004412 -45 201 C-45.4856543 200.56349121 -45.97130859 200.12698242 -46.47167969 199.67724609 C-65.52606043 182.33004975 -78.05341425 157.87121558 -80 132 C-81.85125666 91.54156005 -69.81687413 58.15116601 -42.6875 27.9375 C-34.87977848 19.41579804 -12.18347596 -3.81565053 0 0 Z " fill="#00BD6D" transform="translate(88,1)"/>
</svg>
