<?xml version="1.0" encoding="UTF-8"?>
<svg version="1.1" xmlns="http://www.w3.org/2000/svg" width="900" height="649">
<path d="M0 0 C229.68 0 459.36 0 696 0 C694.88209285 6.70744289 694.88209285 6.70744289 691.375 9.375 C688.46215882 11.72907235 685.96457747 14.0628827 683.5625 16.9375 C680.29876783 20.80423119 676.66966184 24.0607284 672.8203125 27.3359375 C670.90876334 28.88379879 670.90876334 28.88379879 670 31 C669.34 31 668.68 31 668 31 C667.67 31.99 667.34 32.98 667 34 C665.31090232 35.58749782 663.51598057 36.97391918 661.69140625 38.40234375 C659.85359458 40.13829057 659.09761343 41.74919777 658 44 C656.33720673 45.0064275 654.67016516 46.00585407 653 47 C651.65576661 48.65788785 650.32381517 50.32576317 649 52 C647.2842806 53.55937087 645.51535671 55.03928607 643.734375 56.5234375 C641.35209237 58.55159704 639.18157974 60.75945865 637 63 C636.278125 63.680625 635.55625 64.36125 634.8125 65.0625 C632.91403292 66.87812471 632.91403292 66.87812471 632.0625 69.125 C630.57474809 71.75044454 628.77556042 71.98455107 626 73 C625.52820313 73.474375 625.05640625 73.94875 624.5703125 74.4375 C622.89540721 76.10407242 621.4398859 76.93206204 619.3125 77.9375 C617.20320865 78.93845462 615.12232463 79.93134842 613.0859375 81.07421875 C603.00883232 86.65187573 591.73018239 86.29275039 580.51367188 86.27124023 C578.9831159 86.27563664 577.45256231 86.28094209 575.92201233 86.28707886 C572.64713585 86.29850739 569.37232345 86.30403296 566.09742737 86.30496025 C560.90990415 86.30691472 555.72251203 86.32504183 550.53503418 86.34571838 C537.65451669 86.39471429 524.77396397 86.42577014 511.89337158 86.44702148 C501.87077567 86.46357929 491.84829355 86.48647541 481.82577372 86.53004223 C476.67806441 86.55171376 471.53057187 86.55988641 466.38282013 86.55764949 C463.17114467 86.55932576 459.95960885 86.5734317 456.74798393 86.59086227 C455.26905274 86.59642249 453.79009212 86.59698363 452.31115913 86.59192467 C439.96810693 86.55415681 428.64060922 87.57548226 419 96 C411.62257347 103.82963306 407.53876933 110.77149184 407.58007812 121.53051758 C407.57160858 122.35428391 407.56313904 123.17805023 407.55441284 124.02677917 C407.53113591 126.73285639 407.53001858 129.43836175 407.53125 132.14453125 C407.52414191 134.03871382 407.51644196 135.93289426 407.50817871 137.82707214 C407.49475458 141.79208361 407.49315543 145.75689604 407.49902344 149.72192383 C407.50491214 154.78244794 407.47435263 159.84201022 407.43390656 164.90234852 C407.40794989 168.81366548 407.40515945 172.72475343 407.40879822 176.63614464 C407.40711387 178.50072327 407.39753789 180.36531327 407.37965393 182.2298069 C407.29251261 192.4388981 407.38867754 200.13091507 413 209 C413 209.66 413 210.32 413 211 C413.99 211.33 414.98 211.66 416 212 C416.721875 212.928125 417.44375 213.85625 418.1875 214.8125 C423.89670191 221.85216489 433.36745701 223.81056055 442 225 C448.68762036 225.52167407 455.40821906 225.38059774 462.1105957 225.34057617 C464.11248766 225.33972846 466.11438055 225.34020785 468.11627197 225.34190369 C473.51417346 225.34275944 478.91187229 225.32520201 484.30972695 225.30418181 C489.96446452 225.28534464 495.61920745 225.28365904 501.27397156 225.28010559 C511.96566363 225.27080573 522.65726297 225.24621995 533.34891433 225.21605712 C545.52793109 225.18244883 557.70695244 225.16601097 569.88600409 225.15097082 C594.92405401 225.11966847 619.96202179 225.06694824 645 225 C645 226.65 645 228.3 645 230 C644.01 230.33 643.02 230.66 642 231 C639.11523511 233.65086503 636.56681517 236.49744411 634.0625 239.5 C631.33155599 242.7421207 628.26369722 245.29182571 625 248 C623.32932867 249.99665598 621.66247014 251.99651034 620 254 C618.33729713 255.33827304 616.67083819 256.67189785 615 258 C614.34 258.825 613.68 259.65 613 260.5 C611 263 611 263 608.5625 264.9375 C605.58498621 267.33403549 603.41421701 270.04258417 601 273 C598.6204688 275.49850776 596.29741732 277.77121745 593.5625 279.875 C590.84162147 282.13133829 588.73163812 284.55953426 586.4765625 287.265625 C584.44840296 289.64790763 582.24054135 291.81842026 580 294 C579.278125 294.763125 578.55625 295.52625 577.8125 296.3125 C576 298 576 298 574 298 C574 298.66 574 299.32 574 300 C570.55748252 303.76525349 566.70459543 307.03936923 562.84375 310.3671875 C560.90645988 312.033557 560.90645988 312.033557 558.9375 314.1875 C556.24358919 316.70761011 553.23430977 318.29162099 550 320 C549.00871094 320.57363281 548.01742187 321.14726562 546.99609375 321.73828125 C545.29646484 322.67220703 545.29646484 322.67220703 543.5625 323.625 C542.51191406 324.21539062 541.46132813 324.80578125 540.37890625 325.4140625 C527.2564953 330.99499019 510.72049525 329.18756869 496.8125 329 C472.21797111 328.08341463 472.21797111 328.08341463 448.97265625 335.09375 C447 336 447 336 443 336 C443 336.66 443 337.32 443 338 C440.03 338.99 437.06 339.98 434 341 C434 341.66 434 342.32 434 343 C432.42578125 344.11328125 432.42578125 344.11328125 430.3125 345.3125 C426.65039825 347.51103927 423.99513263 349.93355468 421 353 C419.34600602 354.34902167 417.67795443 355.68090013 416 357 C412.42297056 359.82258223 409.18237694 362.7338763 406 366 C403.90698922 367.83639643 401.79579277 369.64867944 399.671875 371.44921875 C397.89673637 372.91350467 397.89673637 372.91350467 397 375 C396.29875 375.4125 395.5975 375.825 394.875 376.25 C391.2251105 378.47167187 388.19641139 381.18003963 385 384 C383.81431651 385.02294262 382.6268424 386.04381379 381.4375 387.0625 C380.86644531 387.55363281 380.29539062 388.04476563 379.70703125 388.55078125 C378.03094202 389.97373115 376.33022635 391.36221436 374.625 392.75 C371.97473587 394.72714742 371.97473587 394.72714742 371 397 C370.26136719 397.44214844 369.52273438 397.88429688 368.76171875 398.33984375 C365.76213564 400.14298777 363.38801343 402.1973916 360.8125 404.5625 C359.95269531 405.34753906 359.09289062 406.13257813 358.20703125 406.94140625 C356.7821211 408.27048173 355.37782629 409.62217371 354 411 C353.25234375 411.59167969 352.5046875 412.18335938 351.734375 412.79296875 C348.78228601 415.17572629 346.01698776 417.72160147 343.25 420.3125 C338.97951781 424.27709833 334.6257059 427.99308522 329.9375 431.46484375 C327.93934265 432.98595485 327.93934265 432.98595485 326.10546875 434.90625 C322.78338814 438.20984037 319.04408839 440.98788819 315.36328125 443.87890625 C312.77513274 445.84993874 312.77513274 445.84993874 312 449 C311.01 449 310.02 449 309 449 C308.566875 449.763125 308.13375 450.52625 307.6875 451.3125 C305.58200218 454.66570023 303.50881172 455.28139834 300 457 C299.29875 457.886875 298.5975 458.77375 297.875 459.6875 C297.25625 460.450625 296.6375 461.21375 296 462 C294.68 462 293.36 462 292 462 C291.99945523 460.8150186 291.99891047 459.63003719 291.99834919 458.40914726 C291.98430508 430.28012472 291.94455344 402.15122373 291.87314438 374.02228754 C291.86437763 370.56010621 291.85582782 367.09792438 291.84741211 363.63574219 C291.84573305 362.94648404 291.84405398 362.25722589 291.84232404 361.54708113 C291.81565415 350.38666901 291.80655897 339.22630824 291.80395857 328.06586753 C291.80089912 316.61421099 291.77858127 305.16274126 291.73947543 293.71114361 C291.71812107 287.27890351 291.7055575 280.84691441 291.71384621 274.41463852 C291.72137066 268.36201799 291.70562813 262.30990669 291.67193985 256.25737953 C291.66368731 254.03458596 291.66397917 251.81174193 291.67340279 249.58895302 C291.68499033 246.55575911 291.66595784 243.52424364 291.63923645 240.49118042 C291.64990971 239.60984841 291.66058297 238.7285164 291.67157966 237.82047737 C291.60168135 233.57304479 291.30879089 230.84871735 288.57719994 227.49167919 C284.03793176 223.10304022 281.29619893 222.7501447 274.9909668 222.72875977 C274.29271286 222.72353302 273.59445892 222.71830627 272.87504578 222.71292114 C271.36040679 222.70269411 269.84573278 222.696903 268.33106041 222.69503975 C265.91950233 222.69136092 263.50835005 222.67458647 261.09687805 222.65428162 C254.24068841 222.59906122 247.3844362 222.56842929 240.52807617 222.54370117 C236.32819926 222.52764483 232.12860284 222.49722736 227.92887306 222.45893669 C226.34200886 222.44742794 224.75509403 222.4413576 223.1681881 222.44125557 C197.28604862 222.43899093 197.28604862 222.43899093 187 215 C185.66910862 214.32847163 184.33612266 213.66105859 183 213 C180.24525981 211.11428094 177.62639016 209.05972062 175 207 C174.38511719 206.52304688 173.77023437 206.04609375 173.13671875 205.5546875 C169.36307936 202.49226617 166.50998986 199.24025615 163.6796875 195.30078125 C161.61256433 192.46930323 159.44597361 189.7326892 157.25 187 C156.49203125 186.05125 155.7340625 185.1025 154.953125 184.125 C154.30859375 183.42375 153.6640625 182.7225 153 182 C152.34 182 151.68 182 151 182 C150.59265625 181.11054688 150.1853125 180.22109375 149.765625 179.3046875 C148.03600846 176.06739636 146.24998754 173.79107063 143.75 171.125 C142.95335937 170.26390625 142.15671875 169.4028125 141.3359375 168.515625 C140.56507813 167.68546875 139.79421875 166.8553125 139 166 C137.21263118 163.98461293 135.44387163 161.95416279 133.67578125 159.921875 C132.55408277 158.63545157 131.4264076 157.35421634 130.29296875 156.078125 C126.42579385 151.71336777 122.73980394 147.23523572 119.12890625 142.65625 C117.6239723 140.77853425 116.0866869 138.92653247 114.52734375 137.09375 C113.71394531 136.1346875 112.90054688 135.175625 112.0625 134.1875 C111.31097656 133.31480469 110.55945313 132.44210938 109.78515625 131.54296875 C107.91821931 128.88350278 107.52263521 127.14993656 107 124 C107.91275538 123.99853344 108.82551077 123.99706688 109.76592541 123.99555588 C131.9660071 123.95851884 154.16593575 123.89954537 176.36589336 123.81609726 C187.10159751 123.77627257 197.83722798 123.74389751 208.57299805 123.72900391 C217.92931353 123.71600517 227.28546716 123.68908603 236.64169151 123.64538693 C241.59666733 123.6227321 246.55144323 123.60709173 251.50647545 123.60811615 C256.16950423 123.60886039 260.83209037 123.59100488 265.49500465 123.55883217 C267.20703234 123.55030755 268.91910953 123.54860057 270.63114929 123.55419731 C272.96833849 123.56082048 275.3041124 123.5429591 277.64115906 123.51898193 C278.9491833 123.51529476 280.25720755 123.51160759 281.60486889 123.50780869 C285.56976543 122.91478037 287.22319578 121.84612776 290 119 C291.42727587 114.71817238 291.22447769 110.61054564 291.25 106.125 C291.2809375 104.77728516 291.2809375 104.77728516 291.3125 103.40234375 C291.34163376 98.47145478 291.30283016 94.96018956 288 91 C287.34 90.67 286.68 90.34 286 90 C286 89.34 286 88.68 286 88 C285.02946403 87.99761165 284.05892805 87.99522329 283.0589819 87.99276257 C259.39500385 87.93385136 235.73112667 87.85789709 212.06725979 87.76428509 C200.62338116 87.71940484 189.1795331 87.67997237 177.7355957 87.65356445 C167.7558795 87.63052132 157.77626071 87.59705313 147.79662186 87.55129844 C142.51719081 87.52745118 137.23785572 87.50866688 131.95837212 87.50238609 C126.97856624 87.49629661 121.99900563 87.47615874 117.01929092 87.44572449 C115.20180661 87.43700576 113.38429016 87.43320872 111.56678581 87.43499184 C97.68182972 87.44430436 83.53094932 87.16831446 71.375 79.625 C70.72144531 79.25117187 70.06789063 78.87734375 69.39453125 78.4921875 C65.35346475 76.10836645 62.23940597 73.43028951 59 70 C57.86648075 69.04764797 56.72208416 68.10793731 55.5625 67.1875 C52.23863855 64.39951164 49.81613571 61.29529783 47.359375 57.734375 C45.93488787 55.73076333 45.93488787 55.73076333 43 54 C42 52.33333333 41 50.66666667 40 49 C39.01 48.34 38.02 47.68 37 47 C37 46.01 37 45.02 37 44 C36.4225 43.79375 35.845 43.5875 35.25 43.375 C32.19346381 41.50711677 30.97947185 38.96920777 29 36 C27.989375 35.175 26.97875 34.35 25.9375 33.5 C22.81446185 30.84209519 21.70913348 28.66242888 20 25 C19.01 24.34 18.02 23.68 17 23 C16.06167721 21.84577993 15.16964451 20.65322073 14.3125 19.4375 C11.38566227 15.42041522 8.17918509 11.74877102 4.83203125 8.078125 C0 2.59701493 0 2.59701493 0 0 Z " fill="#FBFBFB" transform="translate(99,0)"/>
<path d="M0 0 C11.49274047 -0.09074135 22.98523899 -0.16396876 34.47825813 -0.20724869 C39.81620835 -0.22803167 45.15389858 -0.2561777 50.49169922 -0.30175781 C55.65293776 -0.34554924 60.81392784 -0.36920677 65.97533798 -0.37950897 C67.93431376 -0.38684103 69.89327754 -0.40115699 71.85214615 -0.42292023 C98.45978336 -0.70649922 98.45978336 -0.70649922 106.37088013 6.01409912 C108 8 108 8 108 10 C108.66 10 109.32 10 110 10 C111.86167865 13.96077132 112.2442487 17.08295447 112.22705078 21.44262695 C112.22689972 22.72357742 112.22674866 24.00452789 112.22659302 25.32429504 C112.2163813 26.71229205 112.20594933 28.10028744 112.1953125 29.48828125 C112.1915795 30.91602887 112.18873388 32.34377905 112.18673706 33.77153015 C112.17912318 37.51818999 112.15949419 41.26469326 112.1373291 45.0112915 C112.11682214 48.83888634 112.107725 52.66650662 112.09765625 56.49414062 C112.07624599 63.9961649 112.04213741 71.49806046 112 79 C98.57830928 79.09276503 85.1566951 79.16379835 71.73474884 79.20724869 C65.50208699 79.22810486 59.26964481 79.25638718 53.03710938 79.30175781 C47.02003323 79.34528484 41.00316812 79.36915193 34.98594666 79.37950897 C32.69266946 79.38688795 30.39940355 79.40129737 28.10621643 79.42292023 C24.88891831 79.45204452 21.6724873 79.45595212 18.45507812 79.45410156 C17.51136353 79.46848267 16.56764893 79.48286377 15.59533691 79.49768066 C8.29453706 79.45237428 2.91472152 77.76524862 -2.4375 72.6875 C-7.31128119 64.30459635 -6.00669381 50.19734662 -4 41 C-1.58269455 37.02871248 0.56646558 35.35469107 5 34 C5 33.34 5 32.68 5 32 C10.28322281 31.2599135 15.35430556 30.87731902 20.70117188 30.88647461 C21.42410431 30.88632858 22.14703674 30.88618256 22.89187622 30.8860321 C25.25086606 30.88672162 27.60977417 30.89446837 29.96875 30.90234375 C31.61641395 30.90421135 33.26407846 30.90563364 34.91174316 30.90663147 C39.22547976 30.9104297 43.53918211 30.92023668 47.85290527 30.93133545 C52.2639113 30.94160779 56.67492293 30.94614151 61.0859375 30.95117188 C69.72397396 30.96186162 78.36198271 30.9789053 87 31 C86.505 25.06 86.505 25.06 86 19 C80.96414363 18.1814365 76.05778048 17.83585019 70.95336914 17.79467773 C70.18181488 17.78477814 69.41026062 17.77487854 68.61532593 17.76467896 C66.08863292 17.73332573 63.56192117 17.70841114 61.03515625 17.68359375 C59.27395668 17.66300156 57.51276179 17.64200452 55.75157166 17.62062073 C51.13373634 17.56563388 46.51585817 17.51612223 41.89794922 17.46777344 C37.1786725 17.41738681 32.45945741 17.36179064 27.74023438 17.30664062 C18.49354047 17.19934543 9.2467937 17.0983197 0 17 C0 11.39 0 5.78 0 0 Z M20 51 C19.53668563 56.87646031 19.53668563 56.87646031 22 62 C25.25371545 63.08457182 27.6089932 63.12046857 31.03198242 63.11352539 C32.89357246 63.11341209 32.89357246 63.11341209 34.79277039 63.11329651 C36.14700358 63.10818991 37.50123637 63.10297391 38.85546875 63.09765625 C40.24123585 63.09579083 41.62700361 63.09436751 43.01277161 63.09336853 C46.6574791 63.0895531 50.30214665 63.07973113 53.94683838 63.06866455 C57.66702738 63.0584295 61.38722285 63.05386642 65.10742188 63.04882812 C72.40496822 63.03810798 79.70247342 63.02051907 87 63 C87 57.72 87 52.44 87 47 C79.13295848 46.93215368 71.26607758 46.8771434 63.39882374 46.84456348 C59.74550802 46.82892467 56.09240329 46.80771952 52.43920898 46.77368164 C48.91194784 46.74102375 45.38488932 46.72313356 41.85748863 46.71536827 C39.86055692 46.70714867 37.86370642 46.68373939 35.86689758 46.66011047 C34.64600937 46.65988388 33.42512115 46.65965729 32.16723633 46.65942383 C30.55840324 46.64943108 30.55840324 46.64943108 28.91706848 46.63923645 C25.28499283 47.08842731 22.60562253 48.39437747 20 51 Z " fill="#F6F6F6" transform="translate(74,570)"/>
<path d="M0 0 C0.72608459 -0.0049649 1.45216919 -0.00992981 2.20025635 -0.01504517 C4.58696463 -0.02957213 6.97360645 -0.03645319 9.36035156 -0.04199219 C10.18084236 -0.04481956 11.00133316 -0.04764694 11.84668732 -0.05056 C16.18946145 -0.06551497 20.53220268 -0.0747675 24.875 -0.07910156 C29.33780978 -0.08457815 33.80031325 -0.10859954 38.26302719 -0.13707352 C41.71536104 -0.155791 45.16762246 -0.16091034 48.62000275 -0.16243744 C50.26407799 -0.16544439 51.90815256 -0.1734059 53.55217743 -0.18662262 C74.57143287 -0.34353146 74.57143287 -0.34353146 80.12445068 4.60906982 C86.18687828 11.44458933 86.74860201 15.97294255 86.87597656 24.84863281 C86.93205078 26.30172852 86.93205078 26.30172852 86.98925781 27.78417969 C87.07097993 34.49901362 85.95692159 39.0246922 81.50097656 44.16113281 C75.64230383 48.82415805 71.17441198 49.31130454 63.88671875 49.2746582 C63.12535614 49.27480423 62.36399353 49.27495026 61.57955933 49.27510071 C59.06896085 49.27440537 56.55843704 49.26663068 54.04785156 49.25878906 C52.30478964 49.25692354 50.56172719 49.25550027 48.81866455 49.25450134 C44.23525541 49.25068675 39.65187805 49.24086548 35.06848145 49.22979736 C30.38973419 49.21956051 25.71098179 49.21499885 21.03222656 49.20996094 C11.85512928 49.19924227 2.67805557 49.18217853 -6.49902344 49.16113281 C-6.16902344 52.46113281 -5.83902344 55.76113281 -5.49902344 59.16113281 C-4.01402344 59.65613281 -4.01402344 59.65613281 -2.49902344 60.16113281 C-2.49902344 60.82113281 -2.49902344 61.48113281 -2.49902344 62.16113281 C25.22097656 62.49113281 52.94097656 62.82113281 81.50097656 63.16113281 C81.50097656 68.44113281 81.50097656 73.72113281 81.50097656 79.16113281 C69.17421068 79.27729036 56.84757631 79.36598196 44.52037334 79.42019367 C38.7955299 79.44622056 33.07106258 79.48149242 27.34643555 79.53833008 C21.81561937 79.59289606 16.2851636 79.62260525 10.75409889 79.63551903 C8.65028019 79.64471485 6.54647988 79.66267179 4.44281578 79.6897831 C-18.43146384 79.97269438 -18.43146384 79.97269438 -25.49902344 74.16113281 C-31.07994363 68.01700364 -31.19232996 61.17212393 -31.02246094 53.23144531 C-31.01775787 52.11929657 -31.01305481 51.00714783 -31.00820923 49.86129761 C-30.98699113 46.33559327 -30.93041664 42.81143067 -30.87402344 39.28613281 C-30.85750296 36.89552199 -30.84315835 34.50489508 -30.83105469 32.11425781 C-30.79718706 27.75615065 -30.76247159 23.39820707 -30.69189453 19.04052734 C-30.67903412 18.1683255 -30.66617371 17.29612366 -30.65292358 16.39749146 C-30.49902344 14.16113281 -30.49902344 14.16113281 -29.49902344 11.16113281 C-28.83902344 11.16113281 -28.17902344 11.16113281 -27.49902344 11.16113281 C-27.49902344 10.17113281 -27.49902344 9.18113281 -27.49902344 8.16113281 C-20.49348958 0.92961399 -9.52667251 0.04978253 0 0 Z M-5.43652344 21.22363281 C-6.47930219 24.10660936 -6.61179224 25.83116078 -6.56542969 28.84472656 C-6.55584229 29.65353271 -6.54625488 30.46233887 -6.53637695 31.2956543 C-6.52405029 31.91126221 -6.51172363 32.52687012 -6.49902344 33.16113281 C1.48108837 33.25398234 9.46097292 33.32497281 17.44149208 33.3683815 C21.14755006 33.38921996 24.85323736 33.41746784 28.55908203 33.46289062 C32.13823442 33.50648393 35.71703121 33.53029805 39.29642868 33.54064178 C40.65915904 33.54800917 42.02187083 33.56239619 43.38444901 33.58405304 C51.70506024 33.98874342 51.70506024 33.98874342 59.34423828 31.27978516 C61.64523825 29.36737519 61.64523825 29.36737519 62.15722656 26.87207031 C62.07988281 25.71578125 62.07988281 25.71578125 62.00097656 24.53613281 C61.97003906 23.76011719 61.93910156 22.98410156 61.90722656 22.18457031 C61.65140649 19.94217451 61.65140649 19.94217451 59.50097656 18.16113281 C56.45099763 17.12051476 53.59015711 17.02954058 50.38452148 17.01586914 C49.36633835 17.00948929 48.34815521 17.00310944 47.29911804 16.99653625 C46.20428604 16.99542343 45.10945404 16.99431061 43.98144531 16.99316406 C42.84951248 16.98983566 41.71757965 16.98650726 40.55134583 16.983078 C38.15654913 16.9780161 35.76174539 16.97566945 33.36694336 16.97583008 C29.71293427 16.97364742 26.05922897 16.95549415 22.40527344 16.93652344 C20.07649843 16.93358857 17.74772198 16.9316044 15.41894531 16.93066406 C14.330186 16.92347855 13.2414267 16.91629303 12.11967468 16.90888977 C2.5188423 16.67380123 2.5188423 16.67380123 -5.43652344 21.22363281 Z " fill="#F6F6F6" transform="translate(338.4990234375,569.8388671875)"/>
<path d="M0 0 C0.495 0.99 0.495 0.99 1 2 C1.825 1.34 2.65 0.68 3.5 0 C7.45881475 -2.62985094 10.31446777 -2.52061469 15 -2 C15.886875 -1.46375 16.77375 -0.9275 17.6875 -0.375 C18.450625 0.07875 19.21375 0.5325 20 1 C22.7004039 0.35336433 22.7004039 0.35336433 25 -1 C28.18616887 -2.59308443 31.53197768 -2.39273189 35 -2 C37.875 -0.5625 37.875 -0.5625 40 1 C40.99 1.495 40.99 1.495 42 2 C42.433125 1.525625 42.86625 1.05125 43.3125 0.5625 C45.98139209 -1.90869638 48.515522 -2.13819878 52 -2.125 C52.680625 -2.12757813 53.36125 -2.13015625 54.0625 -2.1328125 C56 -2 56 -2 59 -1 C59 -0.34 59 0.32 59 1 C59.99 1 60.98 1 62 1 C63.79068573 3.6860286 64.66055791 5.6626589 65.625 8.6875 C66.01558594 9.89986328 66.01558594 9.89986328 66.4140625 11.13671875 C66.60742188 11.75160156 66.80078125 12.36648438 67 13 C69.79080975 13.65666112 72.12027788 13.99498842 75 13.875 C78.56269345 14.02344556 80.22931242 14.78344993 83 17 C84.58142338 20.40614266 84.20113557 24.31251464 84 28 C83.01 29.485 83.01 29.485 82 31 C81.34 31 80.68 31 80 31 C80 31.66 80 32.32 80 33 C80.99 33 81.98 33 83 33 C84.23125293 36.69375878 84.46420032 40.15487401 84 44 C82.5 46.5 82.5 46.5 81 48 C81.495 48.33 81.99 48.66 82.5 49 C84.80706461 52.07608614 84.39054667 55.27478561 84 59 C83.67 59.99 83.34 60.98 83 62 C82.34 62 81.68 62 81 62 C81 62.66 81 63.32 81 64 C80.09636719 64.09796875 79.19273437 64.1959375 78.26171875 64.296875 C77.08222656 64.44640625 75.90273438 64.5959375 74.6875 64.75 C72.92986328 64.95882812 72.92986328 64.95882812 71.13671875 65.171875 C67.95181699 65.72731094 67.95181699 65.72731094 66.140625 67.890625 C64.87004262 70.07931504 64.87004262 70.07931504 64.0625 73 C62.82946802 76.48150207 61.94803068 77.78308093 59 80 C56.13757599 80.34536404 53.71801156 80.47163188 50.875 80.375 C50.14667969 80.37371094 49.41835938 80.37242187 48.66796875 80.37109375 C43.28148496 80.28148496 43.28148496 80.28148496 41 78 C40.34 78.66 39.68 79.32 39 80 C36.47524284 80.19893799 34.08485251 80.27847435 31.5625 80.25 C30.88123047 80.25773438 30.19996094 80.26546875 29.49804688 80.2734375 C25.78590558 80.25889434 24.16410628 80.10940418 21 78 C20.34 78.66 19.68 79.32 19 80 C16.49583553 80.19939483 14.12687809 80.27843043 11.625 80.25 C10.95210937 80.25773438 10.27921875 80.26546875 9.5859375 80.2734375 C5.8924164 80.25889608 3.13646599 80.02663956 0 78 C-0.66 78.66 -1.32 79.32 -2 80 C-4.50737177 80.2260745 -6.86846808 80.32436805 -9.375 80.3125 C-10.38433594 80.33666992 -10.38433594 80.33666992 -11.4140625 80.36132812 C-14.50350589 80.36436892 -16.70241602 80.158047 -19.44921875 78.69921875 C-21 77 -21 77 -21.4375 73.5 C-21.623125 72.345 -21.80875 71.19 -22 70 C-24.46115547 68.15565651 -24.46115547 68.15565651 -27 67 C-27 66.34 -27 65.68 -27 65 C-28.85625 65.0309375 -28.85625 65.0309375 -30.75 65.0625 C-37.05817474 65.00687236 -37.05817474 65.00687236 -39 64 C-42.29472583 59.45555058 -42.13576733 56.04596777 -41.32421875 50.7578125 C-41.21722656 50.17773438 -41.11023438 49.59765625 -41 49 C-36.03884646 47.08516881 -31.13376862 45.40926982 -26 44 C-24.515 43.505 -24.515 43.505 -23 43 C-22.08131178 40.48359313 -21.53849114 37.95755563 -20.94140625 35.34765625 C-20 33 -20 33 -18.32421875 31.69140625 C-15.22882486 30.7705916 -12.47389589 30.81052208 -9.25 30.875 C-8.07953125 30.89304687 -6.9090625 30.91109375 -5.703125 30.9296875 C-4.81109375 30.95289063 -3.9190625 30.97609375 -3 31 C-3 31.66 -3 32.32 -3 33 C0.71599191 33.20086443 1.77208445 33.1519437 5 31 C7.7421875 30.734375 7.7421875 30.734375 10.875 30.75 C12.41800781 30.74226562 12.41800781 30.74226562 13.9921875 30.734375 C17 31 17 31 19.703125 32.1015625 C20.46109375 32.39804687 21.2190625 32.69453125 22 33 C24.01723344 32.03523618 26.01612292 31.03161608 28 30 C32.14928922 29.54735027 34.97742334 29.84923681 38.6875 31.625 C39.780625 32.07875 40.87375 32.5325 42 33 C43.33898243 32.34475328 44.67149721 31.67624149 46 31 C48.83984375 30.734375 48.83984375 30.734375 51.9375 30.75 C52.95714844 30.74484375 53.97679687 30.7396875 55.02734375 30.734375 C58.05332204 31.00476465 60.25825647 31.72758864 63 33 C63.33 32.67 63.66 32.34 64 32 C62.515 31.01 62.515 31.01 61 30 C60.35374123 27.70599535 60.05570889 25.45191578 59.72265625 23.09375 C59.18695191 20.86689708 59.18695191 20.86689708 57.2109375 19.77734375 C54.99209179 18.99721955 52.87522412 18.48335968 50.5625 18.0625 C46.86961889 17.3007671 44.11265465 16.20898072 41 14 C40.566875 14.474375 40.13375 14.94875 39.6875 15.4375 C37.16065178 17.77717427 35.07910973 17.99402945 31.6875 18.25 C28 18 28 18 25.125 16.3125 C20.97970325 14.57147537 19.33108145 15.70865169 15.3046875 17.28125 C10.51739102 18.77423738 6.41324169 17.73606338 2 15.4375 C1.34 14.963125 0.68 14.48875 0 14 C-0.515625 14.474375 -1.03125 14.94875 -1.5625 15.4375 C-5.92033935 18.23098676 -9.76087692 18.24782462 -14.75 17.25 C-17.84328105 16.06027652 -19.05223206 15.55284378 -21 13 C-21.3984375 10.66015625 -21.3984375 10.66015625 -21.375 8.0625 C-21.38273438 7.20785156 -21.39046875 6.35320313 -21.3984375 5.47265625 C-20.91780766 2.48992401 -20.11694095 1.14088825 -18 -1 C-12.51701848 -3.11918918 -5.1084546 -2.87350571 0 0 Z M41 45 C39.32111559 45.97934924 37.65661761 46.98343919 36 48 C30.14518755 48.70848151 25.55077278 47.85025759 20 46 C19.38640625 46.30679688 18.7728125 46.61359375 18.140625 46.9296875 C14.33099513 48.83450244 10.16636021 48.35655064 6 48 C4.906875 47.62875 3.81375 47.2575 2.6875 46.875 C-0.78944404 45.74297171 -1.7107779 46.50489905 -5 48 C-7.55804605 48.50585155 -10.11918356 48.93658952 -12.6953125 49.33984375 C-15.30625322 50.08772338 -16.36483649 50.85483373 -18 53 C-18.41679297 55.54230847 -18.41679297 55.54230847 -18 58 C-17.34 58.66 -16.68 59.32 -16 60 C-15.01 60 -14.02 60 -13 60 C-13 60.66 -13 61.32 -13 62 C-11.80375 62.103125 -10.6075 62.20625 -9.375 62.3125 C-6.19464266 62.67709123 -4.72451235 63.15124812 -1.8125 64.75 C-0.884375 65.1625 0.04375 65.575 1 66 C2.67888441 65.02065076 4.34338239 64.01656081 6 63 C11.24723033 62.38368583 15.31170865 62.53564173 20 65 C22.79564735 64.61412603 22.79564735 64.61412603 25 63 C27.35313555 62.92728259 29.70833668 62.91629132 32.0625 62.9375 C33.35285156 62.94652344 34.64320313 62.95554687 35.97265625 62.96484375 C36.97167969 62.97644531 37.97070312 62.98804688 39 63 C39.66 64.32 40.32 65.64 41 67 C41.639375 66.360625 42.27875 65.72125 42.9375 65.0625 C46.91930882 62.38087365 50.294792 62.20501996 55 62 C55 61.34 55 60.68 55 60 C55.99 60.33 56.98 60.66 58 61 C60.60334924 58.28817788 60.99456691 57.10866187 61.1875 53.25 C61.125625 52.1775 61.06375 51.105 61 50 C62.32 49.34 63.64 48.68 65 48 C63.2857711 46.76603959 63.2857711 46.76603959 61 46 C60.278125 46.28875 59.55625 46.5775 58.8125 46.875 C54.86043635 48.45582546 51.20835523 48.53628598 47 48 C45.9275 47.443125 44.855 46.88625 43.75 46.3125 C42.38875 45.6628125 42.38875 45.6628125 41 45 Z " fill="#E5E5E5" transform="translate(657,569)"/>
<path d="M0 0 C34.32 0 68.64 0 104 0 C104 5.94 104 11.88 104 18 C103.01 18 102.02 18 101 18 C101 18.66 101 19.32 101 20 C100.01 20 99.02 20 98 20 C98 20.66 98 21.32 98 22 C96.6696875 22.7425 96.6696875 22.7425 95.3125 23.5 C91.55173196 25.65565673 87.83187042 27.87822719 84.125 30.125 C83.54145752 30.47369141 82.95791504 30.82238281 82.35668945 31.18164062 C79.12991331 33.04788302 79.12991331 33.04788302 77 36 C75.01306737 37.07862057 72.97274101 37.97773679 70.91015625 38.90234375 C68.68264809 39.99389198 68.68264809 39.99389198 67 43 C66.01 43 65.02 43 64 43 C64 43.66 64 44.32 64 45 C63.34 45.226875 62.68 45.45375 62 45.6875 C54.96287088 48.64355599 54.96287088 48.64355599 50 54 C48.88625 54.474375 47.7725 54.94875 46.625 55.4375 C43.43057453 56.81440753 42.26801187 57.61858754 40 60 C39.01 60 38.02 60 37 60 C37 60.66 37 61.32 37 62 C70.165 62.495 70.165 62.495 104 63 C104 68.28 104 73.56 104 79 C69.68 79 35.36 79 0 79 C0 73.72 0 68.44 0 63 C5 59 5 59 8 59 C8 58.34 8 57.68 8 57 C12.81974858 53.40290823 18.08426317 50.35682855 23.5 47.75 C26.87873259 46.29458805 26.87873259 46.29458805 28.59375 44.390625 C30 43 30 43 32 43 C32 42.34 32 41.68 32 41 C32.56847656 40.69707031 33.13695312 40.39414062 33.72265625 40.08203125 C37.59304809 37.98206906 41.322606 35.85914591 44.875 33.25 C48 31 48 31 51 30 C51.33 29.34 51.66 28.68 52 28 C53.76259832 26.96942541 55.56035668 25.99839872 57.375 25.0625 C61.30667566 23.08077607 61.30667566 23.08077607 64.6640625 20.30859375 C66 19 66 19 69 19 C69 18.34 69 17.68 69 17 C46.23 17 23.46 17 0 17 C0 11.39 0 5.78 0 0 Z " fill="#EEEEEE" transform="translate(195,570)"/>
<path d="M0 0 C0 0.66 0 1.32 0 2 C1.98 2 3.96 2 6 2 C6 1.34 6 0.68 6 0 C10.48474674 -1.49491558 15.5121496 -2.15796289 19.921875 -0.10546875 C21.5625 1 21.5625 1 24 3 C24.45375 2.525625 24.9075 2.05125 25.375 1.5625 C28.57851588 -1.51780373 31.49461346 -1.26461324 35.7421875 -1.23046875 C38.74412395 -0.92404271 40.61737033 0.19497752 43 2 C43.99 2.495 43.99 2.495 45 3 C45.66 2.01 46.32 1.02 47 0 C52.03903455 -1.67967818 57.05140623 -1.87064828 61.9375 0.3125 C64.95289126 2.7796383 65.94894427 4.81811395 67 8.5625 C67.70977006 12.03073325 67.70977006 12.03073325 70 14 C72.56175464 14.42641108 72.56175464 14.42641108 75.4375 14.5625 C78.57963901 14.76751306 80.99894319 14.99964773 84 16 C84 16.99 84 17.98 84 19 C84.66 19 85.32 19 86 19 C86.08107583 20.93681161 86.13922475 22.8745934 86.1875 24.8125 C86.23970703 26.43091797 86.23970703 26.43091797 86.29296875 28.08203125 C86 31 86 31 84.78515625 32.83203125 C81.24249806 35.14987545 77.13593085 35.12533124 73 35 C70.3610083 34.28727961 68.43267127 33.31769694 66 32 C65.34 31.67 64.68 31.34 64 31 C63.3671875 28.93359375 63.3671875 28.93359375 62.875 26.4375 C62.70742188 25.61121094 62.53984375 24.78492188 62.3671875 23.93359375 C62.18542969 22.97646484 62.18542969 22.97646484 62 22 C61.02160156 21.70996094 61.02160156 21.70996094 60.0234375 21.4140625 C46.33613445 17.33613445 46.33613445 17.33613445 44 15 C42.5459375 16.0209375 42.5459375 16.0209375 41.0625 17.0625 C36.60100297 19.62356219 32.88066882 19.20167982 28 18 C27.13375 17.5875 26.2675 17.175 25.375 16.75 C22.21990409 15.75365392 20.82101528 16.90552318 17.97265625 18.3203125 C14.37659017 19.55935309 10.62274786 18.98131459 7 18 C6.34 17.34 5.68 16.68 5 16 C2.74662104 16.31081089 0.90089815 17.04247222 -1.1875 17.9375 C-4 19 -4 19 -6.1796875 19.2578125 C-8.69616669 19.57959181 -10.68934527 19.93787916 -13 21 C-14.50818985 23.1996236 -15.34472546 25.28875923 -16.2265625 27.80078125 C-17.09027815 30.25669999 -18.29582075 32.04019387 -20 34 C-18.515 34.495 -18.515 34.495 -17 35 C-15.5625 38.1875 -15.5625 38.1875 -15 42 C-16.875 45.4375 -16.875 45.4375 -19 48 C-18.505 48.495 -18.505 48.495 -18 49 C-17.44688749 50.2781771 -16.93121848 51.57272806 -16.4375 52.875 C-16.16808594 53.57367187 -15.89867187 54.27234375 -15.62109375 54.9921875 C-15 57 -15 57 -15 60 C-13.68 60.33 -12.36 60.66 -11 61 C-11 61.66 -11 62.32 -11 63 C-7.7 63 -4.4 63 -1 63 C-1 63.66 -1 64.32 -1 65 C0.65 65.66 2.3 66.32 4 67 C4 66.34 4 65.68 4 65 C8.73739985 62.47338675 13.75760586 62.42035317 19 63 C22.74186551 64.48373102 22.74186551 64.48373102 24 67 C24.80050781 66.02160156 24.80050781 66.02160156 25.6171875 65.0234375 C28.64289485 62.45406634 30.21074657 62.51920937 34.125 62.625 C35.17945313 62.63789062 36.23390625 62.65078125 37.3203125 62.6640625 C40 63 40 63 42 65 C44.9425963 64.69347955 47.34542308 64.32728846 50 63 C52.6723621 62.86584528 55.32250488 62.95681459 58 63 C58.495 62.01 58.495 62.01 59 61 C59.99 60.67 60.98 60.34 62 60 C62.77015597 57.96069994 62.77015597 57.96069994 63.125 55.5625 C63.93670886 51.12658228 63.93670886 51.12658228 65 49 C68.26038311 47.81782876 71.49709428 47.83419234 74.9375 47.8125 C75.95714844 47.79832031 76.97679687 47.78414062 78.02734375 47.76953125 C81.07159667 48.00555086 83.24737643 48.71747005 86 50 C86.02693575 52.12493141 86.04636628 54.24995912 86.0625 56.375 C86.07410156 57.55835938 86.08570313 58.74171875 86.09765625 59.9609375 C86 63 86 63 85 65 C81.61211045 65.71659679 78.23865135 66.26480706 74.81445312 66.76757812 C72.85939158 67.08839965 70.92644721 67.53740595 69 68 C66.81221218 70.9173173 66.81221218 70.9173173 66.125 74.5 C64.8824015 78.36586199 64.47374877 79.12168633 61 81 C57.46875 81.328125 57.46875 81.328125 53.5 81.25 C52.1903125 81.23453125 50.880625 81.2190625 49.53125 81.203125 C46.79222836 81.04557066 44.61334929 80.69176893 42 80 C41.67 80.33 41.34 80.66 41 81 C38.50761431 81.12653198 36.05529559 81.18519825 33.5625 81.1875 C32.86833984 81.19974609 32.17417969 81.21199219 31.45898438 81.22460938 C29.63779099 81.22989842 27.8171308 81.12169207 26 81 C25.01 80.01 25.01 80.01 24 79 C23.01 79.66 22.02 80.32 21 81 C18.47727742 81.1693295 16.08042584 81.23336826 13.5625 81.1875 C12.24378906 81.18105469 10.92507813 81.17460938 9.56640625 81.16796875 C6.78402878 81.03692578 4.64859906 80.68249952 2 80 C1.01 80.495 1.01 80.495 0 81 C-2.47760344 81.20308225 -4.89435735 81.32331994 -7.375 81.375 C-8.38433594 81.43107422 -8.38433594 81.43107422 -9.4140625 81.48828125 C-13.1465087 81.55440727 -14.67199433 81.311049 -17.41796875 78.70703125 C-19 76 -19 76 -19.9375 72.3125 C-20.63704352 68.93845518 -20.63704352 68.93845518 -23 67.6875 C-24.80260586 67.27440282 -26.61734805 66.90532682 -28.4453125 66.625 C-35.54790367 65.46539328 -35.54790367 65.46539328 -38.125 62.8125 C-39.59964585 58.07256692 -39.78297811 54.53333214 -37.5 50.0625 C-37.005 49.381875 -36.51 48.70125 -36 48 C-36.495 47.484375 -36.99 46.96875 -37.5 46.4375 C-39.55402253 43.09971339 -39.41314312 40.85600245 -39 37 C-37.5 34.6875 -37.5 34.6875 -36 33 C-36 32.34 -36 31.68 -36 31 C-36.99 30.67 -37.98 30.34 -39 30 C-39.6271777 22.00348432 -39.6271777 22.00348432 -37.125 18 C-33.43564062 14.52766176 -30.29226036 14.71684276 -25.41015625 14.37890625 C-22.74469973 14.13222921 -22.74469973 14.13222921 -20 12 C-19.20603383 9.6812126 -19.20603383 9.6812126 -18.6875 7.0625 C-17.34712914 2.27447421 -17.34712914 2.27447421 -14.3125 -0.125 C-9.32912334 -1.44136365 -4.97227437 -1.65742479 0 0 Z " fill="#E4E4E4" transform="translate(474,568)"/>
<path d="M0 0 C0.99 0.99 0.99 0.99 2 2 C4.84877852 1.68346905 7.20437952 0.9200254 9.875 -0.125 C13.81330262 -1.22772473 16.05378053 -1.10771073 20 0 C22.81594889 1.63897025 25.04956456 3.37619995 27 6 C27.4375 9.875 27.4375 9.875 27 13 C27.89203125 13.13277344 28.7840625 13.26554688 29.703125 13.40234375 C31.45882812 13.66724609 31.45882812 13.66724609 33.25 13.9375 C34.41015625 14.11152344 35.5703125 14.28554688 36.765625 14.46484375 C43.72141215 15.6157409 43.72141215 15.6157409 45.8125 18.5 C47.30167852 22.88915775 47.18960055 26.52781746 46 31 C45.01 31.99 45.01 31.99 44 33 C44.495 33.680625 44.99 34.36125 45.5 35.0625 C47.35084433 38.68707015 47.43908161 40.97508528 47 45 C45.5 47.4375 45.5 47.4375 44 49 C44.495 49.495 44.99 49.99 45.5 50.5 C47.59277269 53.98795449 47.63612876 57.02011751 47 61 C45.5 63.5 45.5 63.5 44 65 C44.495 65.515625 44.99 66.03125 45.5 66.5625 C47.59311615 69.96381375 47.55147685 72.07072743 47 76 C45.3125 78.9375 45.3125 78.9375 42 81 C36.33010613 81.90336392 30.05915951 82.44556104 25.1875 78.9375 C23 76 23 76 22.375 72.5625 C23.08680949 68.50518591 24.48466987 66.22276672 27 63 C26.34 63 25.68 63 25 63 C22.5084096 59.2626144 22.54206715 57.42668417 23 53 C25 50.0625 25 50.0625 27 48 C26.34 47.67 25.68 47.34 25 47 C23 45 23 45 22.5625 41.125 C22.73402064 37.40643263 23.74080039 35.01226614 26 32 C25.319375 31.4740625 25.319375 31.4740625 24.625 30.9375 C23 29 23 29 22.0625 25.4375 C21.35300373 22.04838899 21.35300373 22.04838899 19.375 20.625 C16.76995194 19.87103938 16.76995194 19.87103938 13.0625 19.625 C9.04949608 19.22745008 6.92740151 17.83592021 4 15 C3.01 16.485 3.01 16.485 2 18 C-0.88920694 18.96306898 -2.92247881 19.1955936 -5.9375 19.25 C-6.79214844 19.27578125 -7.64679688 19.3015625 -8.52734375 19.328125 C-11.46144478 18.93876562 -12.80700201 17.93350171 -15 16 C-15.51046875 16.29648437 -16.0209375 16.59296875 -16.546875 16.8984375 C-19.71586127 18.32145363 -22.84867392 18.93213728 -26.25 19.625 C-28.14492188 20.01558594 -28.14492188 20.01558594 -30.078125 20.4140625 C-31.04234375 20.60742188 -32.0065625 20.80078125 -33 21 C-33.99 24.3 -34.98 27.6 -36 31 C-36.66 31 -37.32 31 -38 31 C-38 31.66 -38 32.32 -38 33 C-43.23340765 35.28122898 -47.53342989 35.26615411 -53 34 C-56.0625 32.4375 -56.0625 32.4375 -58 31 C-58.66 31.99 -59.32 32.98 -60 34 C-59.0409375 34.2784375 -59.0409375 34.2784375 -58.0625 34.5625 C-56 36 -56 36 -55 39.25 C-55 43.758007 -56.21770099 45.54320426 -59 49 C-57.9790625 50.299375 -57.9790625 50.299375 -56.9375 51.625 C-55 55 -55 55 -55.125 58.25 C-56 61 -56 61 -58 63 C-57.61121812 66.01305957 -56.73543126 67.39685311 -55 70 C-55.07430712 74.08689177 -55.25017511 76.2296881 -58.14453125 79.203125 C-61.60161759 81.37858289 -63.57684924 81.44743836 -67.625 81.3125 C-68.75164063 81.28800781 -69.87828125 81.26351562 -71.0390625 81.23828125 C-74 81 -74 81 -77 80 C-79.68400928 76.46840885 -79.45137349 72.23596657 -79 68 C-78 65.5 -78 65.5 -77 64 C-77.66 63.01 -78.32 62.02 -79 61 C-79.5968343 56.79115555 -79.66857733 53.14215294 -77.5 49.4375 C-77.005 48.963125 -76.51 48.48875 -76 48 C-76.495 47.484375 -76.99 46.96875 -77.5 46.4375 C-79.54753364 43.11025784 -79.33786825 40.85169806 -79 37 C-78.62875 36.0925 -78.2575 35.185 -77.875 34.25 C-77.441875 33.13625 -77.441875 33.13625 -77 32 C-77.66 31.01 -78.32 30.02 -79 29 C-79.1953125 26.73828125 -79.1953125 26.73828125 -79.125 24.3125 C-79.10695313 23.50425781 -79.08890625 22.69601562 -79.0703125 21.86328125 C-79.04710937 21.24839844 -79.02390625 20.63351562 -79 20 C-78.34 19.67 -77.68 19.34 -77 19 C-77.50603992 16.83125748 -77.99983813 15.00032373 -79 13 C-79.45875706 8.33596993 -79.62397088 6.06966437 -77.25 2 C-72.38284475 -0.99517246 -67.58123921 -0.72932287 -62 0 C-59.62890625 1.02734375 -59.62890625 1.02734375 -58 2 C-58 2.66 -58 3.32 -58 4 C-57.34 4 -56.68 4 -56 4 C-54.64615385 11.26153846 -54.64615385 11.26153846 -56.4375 15 C-56.953125 15.66 -57.46875 16.32 -58 17 C-54.81509993 17.2773501 -54.81509993 17.2773501 -52 15 C-49.30078125 14.5859375 -49.30078125 14.5859375 -46.3125 14.375 C-45.31863281 14.30023437 -44.32476563 14.22546875 -43.30078125 14.1484375 C-42.54152344 14.09945312 -41.78226563 14.05046875 -41 14 C-40.76925781 13.32453125 -40.53851562 12.6490625 -40.30078125 11.953125 C-36.74219156 2.21974924 -36.74219156 2.21974924 -32 0 C-25.84708463 -0.77827055 -21.96213423 -0.78716798 -17 3 C-16.01 2.67 -15.02 2.34 -14 2 C-13.67 1.34 -13.34 0.68 -13 0 C-8.52321813 -1.49226062 -4.55008535 -0.82050719 0 0 Z " fill="#E7E7E7" transform="translate(830,568)"/>
<path d="M0 0 C2.20961922 0.02009629 4.4192561 0.03834152 6.62890625 0.0546875 C12.00304541 0.09843325 17.37632507 0.16728892 22.75 0.25 C22.75 5.86 22.75 11.47 22.75 17.25 C20.12546875 17.28738281 17.5009375 17.32476563 14.796875 17.36328125 C12.25170615 17.40950835 9.70668368 17.46073762 7.16162109 17.51245117 C5.39445917 17.54568069 3.62719161 17.57371882 1.85986328 17.59643555 C-0.68242351 17.63001831 -3.22374408 17.68233451 -5.765625 17.73828125 C-6.55430969 17.74467117 -7.34299438 17.7510611 -8.15557861 17.75764465 C-11.33787287 17.84271387 -13.84286556 18.04880921 -16.71777344 19.46948242 C-18.72755033 21.51025505 -18.72755033 21.51025505 -19.25 26.25 C-5.39 26.25 8.47 26.25 22.75 26.25 C22.75 31.86 22.75 37.47 22.75 43.25 C8.89 43.25 -4.97 43.25 -19.25 43.25 C-19.25 63.71 -19.25 84.17 -19.25 105.25 C-27.17 105.25 -35.09 105.25 -43.25 105.25 C-43.36304973 93.37560401 -43.45474466 81.50156659 -43.50906086 69.62675381 C-43.53513253 64.11253776 -43.57048682 58.59870961 -43.62719727 53.0847168 C-43.68160278 47.76140096 -43.71143882 42.43845777 -43.72438622 37.11488533 C-43.73361069 35.085909 -43.75162421 33.0569526 -43.77865028 31.0281353 C-43.81505388 28.18164187 -43.8199406 25.33667974 -43.81762695 22.48999023 C-43.83560333 21.65488922 -43.85357971 20.81978821 -43.87210083 19.9593811 C-43.8188914 13.89221938 -42.28712285 10.80624165 -38.25 6.25 C-37.59 6.25 -36.93 6.25 -36.25 6.25 C-36.25 5.59 -36.25 4.93 -36.25 4.25 C-24.75895471 -1.36573398 -12.45168038 -0.19743876 0 0 Z " fill="#F4F4F4" transform="translate(43.25,543.75)"/>
<path d="M0 0 C0.92683594 0.00644531 1.85367188 0.01289062 2.80859375 0.01953125 C5.47966056 0.18244738 7.95591958 0.5961705 10.5625 1.1875 C11.39041734 4.0951457 11.72443659 6.72840519 11.75 9.75 C11.76417969 10.51441406 11.77835938 11.27882813 11.79296875 12.06640625 C11.5625 14.1875 11.5625 14.1875 9.5625 17.1875 C9.871875 17.6825 10.18125 18.1775 10.5 18.6875 C11.97894382 22.16736781 12.18652851 25.42778509 12.5625 29.1875 C11.9025 29.1875 11.2425 29.1875 10.5625 29.1875 C9.9025 30.5075 9.2425 31.8275 8.5625 33.1875 C9.5525 33.8475 10.5425 34.5075 11.5625 35.1875 C12.52496715 40.36205456 11.53952107 45.36851113 9.5625 50.1875 C10.2225 50.5175 10.8825 50.8475 11.5625 51.1875 C11.58962066 52.62489513 11.60895067 54.06243863 11.625 55.5 C11.63660156 56.30050781 11.64820313 57.10101562 11.66015625 57.92578125 C11.5625 60.1875 11.5625 60.1875 10.5625 63.1875 C9.5725 63.1875 8.5825 63.1875 7.5625 63.1875 C7.5625 63.8475 7.5625 64.5075 7.5625 65.1875 C9.0475 65.6825 9.0475 65.6825 10.5625 66.1875 C12.13420996 69.33091993 11.79425783 72.74521451 11.5625 76.1875 C10.5625 79.1875 10.5625 79.1875 8.5625 80.1875 C9.01625 80.6825 9.47 81.1775 9.9375 81.6875 C12.14409367 85.08225949 12.70641425 88.23633498 13.5625 92.1875 C17.5225 92.5175 21.4825 92.8475 25.5625 93.1875 C25.5625 93.8475 25.5625 94.5075 25.5625 95.1875 C27.0165625 95.6515625 27.0165625 95.6515625 28.5 96.125 C31.5625 97.1875 31.5625 97.1875 32.5625 98.1875 C32.98933913 106.86656225 32.98933913 106.86656225 30.5625 110.1875 C26.90672573 112.62468285 24.97580098 112.48630388 20.625 112.5 C18.78615234 112.52513672 18.78615234 112.52513672 16.91015625 112.55078125 C13.36096366 112.16562966 11.95557134 111.80022523 9.5625 109.1875 C8.91015625 106.99609375 8.91015625 106.99609375 8.625 104.625 C8.07893304 101.09159517 8.07893304 101.09159517 5.5625 98.75 C3.76203619 98.41241304 1.95917961 98.08678363 0.15234375 97.78515625 C-6.88147272 96.53170737 -6.88147272 96.53170737 -10.0625 94.5625 C-12.05411761 91.12243322 -12.26392778 88.06535343 -11.4375 84.1875 C-9.4375 81.6875 -9.4375 81.6875 -7.4375 80.1875 C-8.4275 79.5275 -9.4175 78.8675 -10.4375 78.1875 C-11.61103189 74.66690432 -11.63896402 71.881007 -11.4375 68.1875 C-10.4475 67.1975 -10.4475 67.1975 -9.4375 66.1875 C-9.79105436 63.92475212 -10.41294426 62.23661148 -11.4375 60.1875 C-11.90351942 52.96419903 -11.90351942 52.96419903 -9.9375 49.6875 C-9.4425 49.1925 -8.9475 48.6975 -8.4375 48.1875 C-8.9325 47.671875 -9.4275 47.15625 -9.9375 46.625 C-11.99928923 43.2745925 -11.84550889 41.06358446 -11.4375 37.1875 C-9.9375 34.25 -9.9375 34.25 -8.4375 32.1875 C-8.9325 31.6925 -9.4275 31.1975 -9.9375 30.6875 C-12.03027269 27.19954551 -12.07362876 24.16738249 -11.4375 20.1875 C-9.9375 17.6875 -9.9375 17.6875 -8.4375 16.1875 C-8.9325 15.836875 -9.4275 15.48625 -9.9375 15.125 C-12.21866718 12.1784924 -11.75515543 9.80877195 -11.4375 6.1875 C-10.58803218 3.56830754 -10.02542114 2.55742791 -7.69921875 1.09375 C-4.98635554 0.00673054 -2.91598563 -0.04448799 0 0 Z " fill="#E9E9E9" transform="translate(579.4375,536.8125)"/>
<path d="M0 0 C3.13842828 3.6473626 2.99239675 6.34244575 3.01171875 11.03125 C2.03676184 14.73499692 0.58058196 15.76405122 -2.6875 17.6875 C-5.87890625 18.21875 -5.87890625 18.21875 -9.25 18.1875 C-10.36503906 18.1978125 -11.48007812 18.208125 -12.62890625 18.21875 C-15.6875 17.6875 -15.6875 17.6875 -18.0546875 16.03515625 C-20.11997779 13.06568385 -20.25445646 11.2213622 -20.25 7.625 C-20.27191406 6.58214844 -20.29382813 5.53929687 -20.31640625 4.46484375 C-19.6875 1.6875 -19.6875 1.6875 -17.4921875 -0.15625 C-11.66708342 -2.55768566 -5.85560366 -2.08419791 0 0 Z " fill="#FAFAFA" transform="translate(897.6875,561.3125)"/>
<path d="M0 0 C1.95559168 0.24377963 1.95559168 0.24377963 3.95069027 0.49248409 C8.58187569 1.00447449 13.13342015 1.13801251 17.78895569 1.12025452 C18.62560664 1.12110894 19.46225759 1.12196337 20.32426161 1.12284368 C23.10169489 1.1244786 25.87906651 1.11900996 28.65649414 1.11352539 C30.65779621 1.11324306 32.65909838 1.11340214 34.66040039 1.1139679 C40.07499314 1.11425409 45.48956361 1.10838609 50.9041512 1.10139394 C56.56959879 1.09513081 62.23504692 1.09455426 67.90049744 1.09336853 C78.62061592 1.09026394 89.34072418 1.0820623 100.06083816 1.07201904 C112.26879388 1.06083082 124.4767501 1.05534063 136.68470967 1.05032361 C161.78981211 1.03987896 186.89490548 1.02229641 212 1 C212 2.65 212 4.3 212 6 C211.01 6 210.02 6 209 6 C209 5.01 209 4.02 209 3 C207.94109653 3.00092179 206.88219305 3.00184359 205.79120159 3.00279331 C180.05355059 3.02496982 154.31590083 3.0414148 128.5782423 3.05181217 C116.13182931 3.0569736 103.68542262 3.0640134 91.23901367 3.07543945 C80.39369382 3.08539095 69.54837854 3.09185454 58.70305425 3.09408849 C52.95788051 3.0953948 47.21271984 3.09847567 41.46755028 3.10573006 C36.06436877 3.11249759 30.66120575 3.11461545 25.2580204 3.11310768 C23.27099634 3.11338368 21.2839717 3.11538446 19.29695129 3.11920547 C16.59171792 3.12415413 13.88655507 3.1229939 11.18132019 3.12025452 C9.99212495 3.12462378 9.99212495 3.12462378 8.77890557 3.12908131 C5.58404117 3.12028979 3.05395198 3.01798399 0 2 C0 1.34 0 0.68 0 0 Z " fill="#C7C7C7" transform="translate(532,224)"/>
<path d="M0 0 C26.4 0 52.8 0 80 0 C80 4.62 80 9.24 80 14 C79.34 14 78.68 14 78 14 C78 10.04 78 6.08 78 2 C52.26 2 26.52 2 0 2 C0 1.34 0 0.68 0 0 Z " fill="#6B6B6B" transform="translate(340,633)"/>
<path d="M0 0 C0.66 0 1.32 0 2 0 C2 0.66 2 1.32 2 2 C35.165 2.495 35.165 2.495 69 3 C69 7.29 69 11.58 69 16 C68.67 16 68.34 16 68 16 C68 12.37 68 8.74 68 5 C43.58 5 19.16 5 -6 5 C-4.35 3.68 -2.7 2.36 -1 1 C-0.67 0.67 -0.34 0.34 0 0 Z " fill="#666666" transform="translate(230,630)"/>
<path d="M0 0 C0.66 0 1.32 0 2 0 C2 5.94 2 11.88 2 18 C-19.12 18 -40.24 18 -62 18 C-62 17.34 -62 16.68 -62 16 C-41.54 16 -21.08 16 0 16 C0 10.72 0 5.44 0 0 Z " fill="#616161" transform="translate(161,617)"/>
<path d="M0 0 C2.28122425 1.71091819 3.81204897 3.03452524 4.37109375 5.90625 C4.48204186 9.40437875 4.3278037 11.4536605 2.5 14.5 C2.005 14.995 1.51 15.49 1 16 C1.495 16.515625 1.99 17.03125 2.5 17.5625 C4.56851618 20.9238388 4.48505011 23.11959911 4 27 C2 29.4375 2 29.4375 0 31 C0.5259375 29.9790625 0.5259375 29.9790625 1.0625 28.9375 C2.26464175 25.17078919 1.97146473 22.81646859 1 19 C-0.91621575 16.579887 -0.91621575 16.579887 -3 15 C-2.01 14.34 -1.02 13.68 0 13 C0.33 12.01 0.66 11.02 1 10 C1.66 10 2.32 10 3 10 C2.05066101 6.64566891 1.10251165 3.30753495 0 0 Z " fill="#545454" transform="translate(873,617)"/>
<path d="M0 0 C0 0.66 0 1.32 0 2 C-0.68707031 2.10957031 -1.37414062 2.21914063 -2.08203125 2.33203125 C-2.98308594 2.49058594 -3.88414062 2.64914062 -4.8125 2.8125 C-5.70582031 2.96332031 -6.59914063 3.11414063 -7.51953125 3.26953125 C-10.25279125 4.07444404 -11.29863888 4.74569651 -13 7 C-13.74386068 9.30988315 -14.42190703 11.64315944 -15 14 C-15.66 13.67 -16.32 13.34 -17 13 C-15.03644384 3.81951373 -15.03644384 3.81951373 -11.3125 0.875 C-7.32104538 -0.1793465 -4.11660139 -0.21292766 0 0 Z " fill="#7B7B7B" transform="translate(471,567)"/>
<path d="M0 0 C0.3403125 0.86625 0.3403125 0.86625 0.6875 1.75 C2.33038023 4.5663661 4.39533227 6.08077114 7 8 C4.03 10.475 4.03 10.475 1 13 C0.34 11.68 -0.32 10.36 -1 9 C0.32 8.67 1.64 8.34 3 8 C2.01 7.34 1.02 6.68 0 6 C-0.1875 2.875 -0.1875 2.875 0 0 Z " fill="#696969" transform="translate(718,593)"/>
<path d="M0 0 C0 0.66 0 1.32 0 2 C-4.47058824 6 -4.47058824 6 -7 6 C-7.33 8.64 -7.66 11.28 -8 14 C-8.66 14 -9.32 14 -10 14 C-9.38768397 9.15425761 -8.87327924 5.2061698 -5 1.9375 C-2 0 -2 0 0 0 Z " fill="#929292" transform="translate(800,568)"/>
<path d="M0 0 C-1.15173355 2.46800047 -2.04783565 4.04783565 -4 6 C-4.64767793 8.57061311 -4.64767793 8.57061311 -5 11 C-5.66 11 -6.32 11 -7 11 C-6.93993922 9.54052295 -6.8511311 8.08220728 -6.75 6.625 C-6.70359375 5.81289063 -6.6571875 5.00078125 -6.609375 4.1640625 C-6 2 -6 2 -4.078125 0.7109375 C-2 0 -2 0 0 0 Z " fill="#8B8B8B" transform="translate(622,616)"/>
<path d="M0 0 C0.804375 0.474375 1.60875 0.94875 2.4375 1.4375 C6.66939929 3.29359618 10.43172078 3.70559978 15 4 C15.33 4.99 15.66 5.98 16 7 C15.01 7 14.02 7 13 7 C13 6.34 13 5.68 13 5 C11.7625 5.020625 10.525 5.04125 9.25 5.0625 C6.3359175 5.06766681 3.79046673 4.93015558 1 4 C0.67 2.68 0.34 1.36 0 0 Z " fill="#424242" transform="translate(617,629)"/>
<path d="M0 0 C-1.39253532 3.48133831 -2.63176216 4.47886033 -6 6 C-6.33 6.66 -6.66 7.32 -7 8 C-7.25 5.6875 -7.25 5.6875 -7 3 C-4.51960083 0.51960083 -3.55547616 0 0 0 Z " fill="#7C7C7C" transform="translate(725,616)"/>
<path d="M0 0 C0.66 0.33 1.32 0.66 2 1 C-0.62764592 4.01406444 -2.30402935 5.79530275 -6.1875 6.9375 C-7.115625 6.958125 -8.04375 6.97875 -9 7 C-9.66 6.34 -10.32 5.68 -11 5 C-9.906875 4.690625 -8.81375 4.38125 -7.6875 4.0625 C-5.44592006 3.41662103 -3.2130649 2.7376883 -1 2 C-0.67 1.34 -0.34 0.68 0 0 Z " fill="#888888" transform="translate(635,610)"/>
<path d="M0 0 C1.32 0.33 2.64 0.66 4 1 C3.34 1 2.68 1 2 1 C1.7525 1.598125 1.505 2.19625 1.25 2.8125 C-0.16370012 5.28647521 -1.65055383 6.43370255 -4 8 C-4.66 7.67 -5.32 7.34 -6 7 C-4.71937515 5.2925002 -3.38232443 3.62626404 -2 2 C-1.34 2 -0.68 2 0 2 C0 1.34 0 0.68 0 0 Z " fill="#939393" transform="translate(7,548)"/>
<path d="M0 0 C1.010625 0.804375 2.02125 1.60875 3.0625 2.4375 C6.75545309 5.10547019 9.49377556 5.72410871 14 6 C14 6.33 14 6.66 14 7 C5.07081668 7.45402627 5.07081668 7.45402627 1 4 C0.37109375 1.890625 0.37109375 1.890625 0 0 Z " fill="#0F0F0F" transform="translate(568,627)"/>
<path d="M0 0 C0.99 0.66 1.98 1.32 3 2 C1.68 3.65 0.36 5.3 -1 7 C-1.99 6.67 -2.98 6.34 -4 6 C-2.68 4.02 -1.36 2.04 0 0 Z " fill="#7C7C7C" transform="translate(857,631)"/>
<path d="M0 0 C1.32 0 2.64 0 4 0 C2.54744301 3.82946843 0.57104439 5.12050295 -3 7 C-2.690625 6.401875 -2.38125 5.80375 -2.0625 5.1875 C-0.89790296 2.91043228 -0.89790296 2.91043228 0 0 Z " fill="#858585" transform="translate(571,600)"/>
<path d="M0 0 C0.33 1.32 0.66 2.64 1 4 C-3.625 8 -3.625 8 -7 8 C-7 7.34 -7 6.68 -7 6 C-5.5459375 5.62875 -5.5459375 5.62875 -4.0625 5.25 C-2.5465625 4.63125 -2.5465625 4.63125 -1 4 C-0.03122943 1.96756452 -0.03122943 1.96756452 0 0 Z " fill="#454545" transform="translate(899,571)"/>
<path d="M0 0 C0.99 0 1.98 0 3 0 C2.45773019 3.79588866 0.79872437 5.47211993 -2 8 C-1.125 2.25 -1.125 2.25 0 0 Z " fill="#747474" transform="translate(539,617)"/>
<path d="M0 0 C0.99 0 1.98 0 3 0 C1.66666667 2.66666667 0.33333333 5.33333333 -1 8 C-1.66 8 -2.32 8 -3 8 C-3 6.68 -3 5.36 -3 4 C-2.34 3.67 -1.68 3.34 -1 3 C-0.67 2.01 -0.34 1.02 0 0 Z " fill="#929292" transform="translate(754,584)"/>
<path d="M0 0 C0 0.66 0 1.32 0 2 C-2.64 2.99 -5.28 3.98 -8 5 C-5.96115496 0.48541456 -5.19128917 0 0 0 Z " fill="#494949" transform="translate(707,631)"/>
<path d="M0 0 C0 0.66 0 1.32 0 2 C-4.47058824 6 -4.47058824 6 -7 6 C-7 5.01 -7 4.02 -7 3 C-2.77777778 0 -2.77777778 0 0 0 Z " fill="#8C8C8C" transform="translate(885,560)"/>
<path d="M0 0 C0.99 0 1.98 0 3 0 C3 0.66 3 1.32 3 2 C3.99 2.33 4.98 2.66 6 3 C5.67 3.66 5.34 4.32 5 5 C0.25 3.125 0.25 3.125 -2 2 C-1.34 1.34 -0.68 0.68 0 0 Z " fill="#6A6A6A" transform="translate(497,581)"/>
<path d="M0 0 C0.66 0 1.32 0 2 0 C2 0.66 2 1.32 2 2 C3.65 2.33 5.3 2.66 7 3 C7 3.66 7 4.32 7 5 C3.31245243 4.50168276 1.39509338 3.89932357 -1 1 C-0.67 0.67 -0.34 0.34 0 0 Z " fill="#565656" transform="translate(879,574)"/>
<path d="M0 0 C0 0.66 0 1.32 0 2 C-1.32 2 -2.64 2 -4 2 C-4 2.66 -4 3.32 -4 4 C-5.65 4 -7.3 4 -9 4 C-8 2 -8 2 -5.0625 0.875 C-2 0 -2 0 0 0 Z " fill="#696969" transform="translate(324,572)"/>
<path d="M0 0 C0 0.99 0 1.98 0 3 C-0.99 3.33 -1.98 3.66 -3 4 C-3.33 4.99 -3.66 5.98 -4 7 C-4.66 7 -5.32 7 -6 7 C-5.37162381 3.35541809 -4.14650034 0 0 0 Z " fill="#5F5F5F" transform="translate(574,553)"/>
<path d="M0 0 C0.33 0.66 0.66 1.32 1 2 C0.34 1.67 -0.32 1.34 -1 1 C-0.67 0.67 -0.34 0.34 0 0 Z " fill="#000000" transform="translate(501,369)"/>
<path d="" fill="#000000" transform="translate(0,0)"/>
<path d="" fill="#000000" transform="translate(0,0)"/>
<path d="" fill="#000000" transform="translate(0,0)"/>
<path d="" fill="#000000" transform="translate(0,0)"/>
<path d="" fill="#000000" transform="translate(0,0)"/>
</svg>
