<?xml version="1.0" encoding="UTF-8"?>
<svg version="1.1" xmlns="http://www.w3.org/2000/svg" width="754" height="1084">
<path d="M0 0 C1.29608185 -0.00176743 1.29608185 -0.00176743 2.61834717 -0.00357056 C5.11674669 -0.00318439 7.61492041 0.00612049 10.11328125 0.01953125 C10.85839462 0.02074982 11.603508 0.02196838 12.37120056 0.02322388 C17.22038094 0.06588157 21.91400467 0.28956084 26.6875 1.1875 C28.33483043 3.78600868 28.9836088 5.29401855 29.6875 8.1875 C29.97222168 9.32783691 29.97222168 9.32783691 30.26269531 10.49121094 C30.83786822 13.00645918 31.33448051 15.52708463 31.8125 18.0625 C31.98136719 18.90941406 32.15023438 19.75632812 32.32421875 20.62890625 C38.62366702 53.0189828 36.73421751 88.46789394 29.25 120.5 C29.05696289 121.32894775 28.86392578 122.15789551 28.66503906 123.01196289 C27.18869704 128.96489666 25.08470117 134.54680735 22.6875 140.1875 C22.0275 140.1875 21.3675 140.1875 20.6875 140.1875 C20.28660156 139.18332031 19.88570313 138.17914063 19.47265625 137.14453125 C9.96495737 113.99992934 -5.85442997 95.42402101 -29.08984375 85.4296875 C-43.00636664 80.0655005 -56.04663278 77.80991671 -70.9375 77.875 C-71.92911636 77.87773422 -71.92911636 77.87773422 -72.94076538 77.88052368 C-83.42673012 77.92913653 -93.14571966 78.58304701 -103.3125 81.1875 C-104.00021484 81.35910645 -104.68792969 81.53071289 -105.39648438 81.70751953 C-144.31161786 91.59535658 -176.20707284 117.36912438 -197 151.4375 C-226.19449636 201.24615091 -233.68818777 260.3215481 -219.78222656 316.19775391 C-211.15398354 349.13672532 -195.82210782 378.40507901 -172.3125 403.1875 C-171.85037109 403.68217773 -171.38824219 404.17685547 -170.91210938 404.68652344 C-142.3786928 435.07105944 -103.81355034 451.77774443 -63.3125 459.1875 C-62.60303223 459.32027344 -61.89356445 459.45304687 -61.16259766 459.58984375 C-24.68377838 466.07496718 14.84501904 459.97248361 48.984375 446.60546875 C52.6875 445.1875 52.6875 445.1875 56.6875 444.1875 C56.6875 462.3375 56.6875 480.4875 56.6875 499.1875 C34.38344877 506.2308846 34.38344877 506.2308846 24.4375 508.375 C23.30417236 508.6227417 22.17084473 508.8704834 21.00317383 509.12573242 C9.97012143 511.46351099 -1.09961591 513.02834271 -12.3125 514.1875 C-14.106875 514.38472656 -14.106875 514.38472656 -15.9375 514.5859375 C-81.1477066 520.4996082 -149.12897127 502.37161164 -202.3125 464.1875 C-202.87710938 463.7857959 -203.44171875 463.3840918 -204.0234375 462.97021484 C-224.0603826 448.63280321 -243.85135033 431.25137222 -259.15625 411.8984375 C-261.36856347 409.1170144 -263.67858462 406.44073146 -266 403.75 C-278.47958083 388.73973018 -288.79819897 372.19279264 -298.3125 355.1875 C-298.82022949 354.28193359 -299.32795898 353.37636719 -299.85107422 352.44335938 C-315.04800074 325.04690849 -338.3125 280.66906879 -338.3125 248.1875 C-337.5390625 248.04054688 -336.765625 247.89359375 -335.96875 247.7421875 C-323.22928656 244.9987882 -315.60548441 238.09936282 -308.41723633 227.35449219 C-300.0501193 213.67221078 -293.22955026 199.18377693 -286.18359375 184.79272461 C-273.61929616 159.17399533 -259.45903023 135.26163541 -241.3125 113.1875 C-240.84714844 112.61773437 -240.38179688 112.04796875 -239.90234375 111.4609375 C-232.93049819 102.98834044 -225.41855518 95.09482212 -217.6875 87.3125 C-216.82914551 86.44488037 -215.97079102 85.57726074 -215.08642578 84.68334961 C-209.13651599 78.76234489 -202.87067408 73.4195165 -196.3125 68.1875 C-195.09226859 67.17522094 -193.87441604 66.16005952 -192.66015625 65.140625 C-149.4883775 29.38505566 -96.29758426 10.0665887 -41.3125 2.1875 C-40.42997559 2.05617676 -39.54745117 1.92485352 -38.63818359 1.78955078 C-25.81334357 -0.04110206 -12.92794778 0.01377173 0 0 Z " fill="#C3291F" transform="translate(338.3125,245.8125)"/>
<path d="M0 0 C0 67.32 0 134.64 0 204 C3.96 204 7.92 204 12 204 C51.96241911 205.29607846 91.50180441 211.91774569 127 231 C127.90226318 231.47324707 127.90226318 231.47324707 128.82275391 231.95605469 C142.18938248 238.99112236 153.37273765 248.24064001 164.34375 258.52734375 C166.48095766 260.51683264 168.64624054 262.42844275 170.875 264.3125 C179.13773501 271.48393039 187.05758847 279.4254242 194.12109375 287.78125 C195.67485351 289.61604323 197.25209233 291.42058297 198.84765625 293.21875 C206.4347504 301.80405481 213.49585714 310.68806881 220.375 319.84716797 C221.98694047 321.98269848 223.61500949 324.10473435 225.25 326.22265625 C234.36798811 338.03811194 243.10108555 350.11116197 251.75146484 362.27148438 C261.1383474 375.4571753 270.537244 388.63985301 281 401 C281.93184148 402.13992914 282.86277424 403.28060152 283.79296875 404.421875 C300.12263534 424.24789187 321.69814928 439.09111736 347.71533203 441.63916016 C372.87055512 443.65817535 397.10320668 434.54132245 417.36328125 420.03125 C419 419 419 419 421 419 C418.96718134 442.76294914 409.24809756 464.70228293 394 483 C393.52240234 483.57621094 393.04480469 484.15242188 392.55273438 484.74609375 C383.78321583 495.28734476 374.78988917 504.48015409 364 513 C363.08347656 513.73347656 362.16695312 514.46695313 361.22265625 515.22265625 C348.83768645 524.85541054 330.30111498 538.7022026 314.12890625 539.4765625 C309.1287099 538.35725249 305.62558798 534.40132481 302 531 C300.60974609 529.78376953 300.60974609 529.78376953 299.19140625 528.54296875 C287.03168082 517.77200346 276.22151904 505.7978509 266.41699219 492.86279297 C264.90789131 490.87891294 263.3812052 488.90948453 261.8515625 486.94140625 C260.75480714 485.52374779 259.65844657 484.1057838 258.5625 482.6875 C258.08546631 482.07342285 257.60843262 481.4593457 257.11694336 480.82666016 C246.49407314 466.97771401 236.83668722 452.40855675 227.1875 437.875 C226.03019538 436.13560444 224.87280505 434.39626592 223.71533203 432.65698242 C217.32925317 423.05340868 210.98837805 413.42276063 204.7109375 403.74780273 C199.2903607 395.40968918 193.79595102 387.12107805 188.28668213 378.84140015 C187.24057499 377.26888563 186.19525465 375.69584734 185.15081787 374.1222229 C172.14724432 354.53659034 158.53376153 335.66574423 143 318 C142.54560547 317.48099121 142.09121094 316.96198242 141.62304688 316.42724609 C136.4178314 310.50334292 131.1425626 304.95056182 125 300 C124.05640625 299.23042969 123.1128125 298.46085937 122.140625 297.66796875 C86.21417787 268.8887818 45.02127553 263.73158752 0 262 C0 292.03 0 322.06 0 353 C-7.77550097 353 -14.54652583 352.60554153 -22.125 351.4375 C-23.80722656 351.17839844 -23.80722656 351.17839844 -25.5234375 350.9140625 C-63.31370596 344.68629404 -63.31370596 344.68629404 -71 337 C-71.09745465 335.21202267 -71.12371423 333.42014679 -71.12304783 331.62951565 C-71.12503888 330.45710369 -71.12702993 329.28469172 -71.12908131 328.07675213 C-71.12616847 326.77230634 -71.12325563 325.46786055 -71.12025452 324.12388611 C-71.1206901 322.73708993 -71.12156476 321.35029383 -71.12284368 319.96349818 C-71.12509125 316.13481831 -71.12106381 312.30616616 -71.11606562 308.47748983 C-71.11176503 304.35545116 -71.11320727 300.23341418 -71.1139679 296.1113739 C-71.11449338 288.96372543 -71.11134403 281.81608605 -71.10573006 274.66843987 C-71.09761836 264.33402114 -71.09500018 253.99960684 -71.09374207 243.66518528 C-71.09155102 226.90007871 -71.08488953 210.13497698 -71.07543945 193.36987305 C-71.06626668 177.07983423 -71.05918519 160.78979673 -71.05493164 144.49975586 C-71.05466892 143.49638807 -71.05440619 142.49302028 -71.05413551 141.4592474 C-71.05283051 136.4258701 -71.0515668 131.3924928 -71.05032361 126.35911548 C-71.03994937 84.57274028 -71.02232964 42.78637042 -71 1 C-68.31339217 0.35025795 -65.62581326 -0.29488418 -62.9375 -0.9375 C-62.18533203 -1.11990234 -61.43316406 -1.30230469 -60.65820312 -1.49023438 C-41.34751286 -6.08801777 -18.95773888 -6.31924629 0 0 Z " fill="#C3291F" transform="translate(299,341)"/>
<path d="M0 0 C0.57758057 0.17595703 1.15516113 0.35191406 1.75024414 0.53320312 C36.92549469 11.17573968 69.85675372 15.14709935 106.5078125 15.02734375 C107.33613335 15.02475178 108.16445419 15.02215981 109.01787567 15.01948929 C116.7863985 14.99314417 124.55484023 14.95465943 132.32324219 14.90405273 C158.59424789 14.7393277 184.75678474 14.95677546 210.8125 18.8125 C212.5927356 19.06906372 212.5927356 19.06906372 214.40893555 19.33081055 C247.63135288 24.27920802 280.29380905 33.0534471 310 49 C310.72815918 49.38414062 311.45631836 49.76828125 312.20654297 50.1640625 C329.59640756 59.36151701 345.01705871 70.49295882 359.5546875 83.77734375 C361.90151662 85.91048395 364.29034586 87.98632073 366.6875 90.0625 C370.1547179 93.14109803 373.23240202 96.37116785 376.21875 99.9140625 C377.41389334 101.31363826 378.64423956 102.68384445 379.90625 104.0234375 C393.18202035 118.14132762 404.08774826 134.40600772 414 151 C414.48533203 151.80985352 414.97066406 152.61970703 415.47070312 153.45410156 C426.96797909 172.7752814 436.95538235 192.84463272 445.8125 213.5 C446.21009521 214.42548141 446.21009521 214.42548141 446.61572266 215.36965942 C451 225.61550255 451 225.61550255 451 228 C450.154375 228.20753906 449.30875 228.41507813 448.4375 228.62890625 C437.04111696 231.72406028 430.88639858 236.40223488 424.83203125 246.515625 C418.25858715 259.01778307 413.44607375 272.35874728 408.5 285.5625 C399.20768613 310.34614891 388.52232827 334.13490754 372 355 C371.58443848 355.52980469 371.16887695 356.05960938 370.74072266 356.60546875 C368.22707678 359.79752764 365.68340305 362.94913996 363 366 C362.23453857 367.02875244 361.46907715 368.05750488 360.68041992 369.11743164 C356.80717454 372.93785289 352.8531089 372.68185421 347.62966919 372.67977905 C346.41383148 372.64881134 345.19799377 372.61784363 343.9453125 372.5859375 C342.68862762 372.57744781 341.43194275 372.56895813 340.13717651 372.56021118 C336.81204009 372.53237572 333.48941781 372.47857809 330.16497803 372.4119873 C326.76645524 372.35036792 323.3676716 372.32315476 319.96875 372.29296875 C313.31181011 372.22689529 306.65605007 372.1265496 300 372 C301.69917405 368.40637723 303.78597884 365.85318857 306.4375 362.875 C337.40800808 326.71616297 345.43300648 277.58936697 342.79785156 231.46142578 C339.33786064 187.74150276 321.59134306 143.30878614 287.73828125 114.20703125 C277.10123489 105.63366293 266.14511379 98.27153807 254 92 C253.33274902 91.65340332 252.66549805 91.30680664 251.97802734 90.94970703 C190.40422037 59.39961436 112.8757688 62.96934039 48.39794922 82.80029297 C45.13550002 83.85781407 41.90770233 84.97134973 38.6875 86.15234375 C36 87 36 87 32 87 C31.77608582 86.417379 31.55217163 85.834758 31.32147217 85.23448181 C29.37970881 80.18222634 27.43759078 75.13010745 25.49511719 70.078125 C23.66142598 65.30898072 21.82889583 60.53939242 19.99707031 55.76953125 C16.02484863 45.43081053 12.05088351 35.09335588 8 24.78515625 C7.43388649 23.34058902 6.86780416 21.89600957 6.30175781 20.45141602 C5.29276202 17.87733636 4.27527066 15.30684078 3.25292969 12.73803711 C2.81368164 11.61792236 2.37443359 10.49780762 1.921875 9.34375 C1.35871582 7.92352539 1.35871582 7.92352539 0.78417969 6.47460938 C0 4 0 4 0 0 Z " fill="#C3291F" transform="translate(193,164)"/>
<path d="M0 0 C5.84402703 1.21325124 11.50188313 2.70864447 17.20556641 4.4621582 C33.02962401 9.30628391 48.84312435 12.5516013 65.3125 14.1875 C66.61840088 14.31934692 66.61840088 14.31934692 67.95068359 14.45385742 C73.79486787 14.95468456 79.51865937 14.96740109 85.37109375 14.77734375 C106.89615879 14.21311816 106.89615879 14.21311816 112.31884766 17.33496094 C115.91549531 20.84136285 117.6279865 25.03132029 119.20214844 29.73291016 C119.99465548 31.98481357 120.95524067 33.99701558 122.0703125 36.10546875 C135 60.73837054 135 60.73837054 135 72 C122.46 72 109.92 72 97 72 C97 134.04 97 196.08 97 260 C128.3396875 259.814375 128.3396875 259.814375 160.3125 259.625 C170.15509644 259.57400146 170.15509644 259.57400146 180.1965332 259.52197266 C186.15316882 259.48199899 186.15316882 259.48199899 192.10978699 259.43954468 C194.7331614 259.42202649 197.35638446 259.40743212 199.9797821 259.39730835 C245.2720778 259.46689632 245.2720778 259.46689632 283.57421875 237.55078125 C285.98540702 235.12436357 285.98540702 235.12436357 287.70703125 232.66796875 C288.13371094 232.11753906 288.56039063 231.56710937 289 231 C289.66 231 290.32 231 291 231 C302.5946806 263.7829294 301.57974273 302.62770257 286.92724609 334.3203125 C282.60335189 342.98724166 277.36571722 350.69268711 271 358 C270.484375 358.65871094 269.96875 359.31742188 269.4375 359.99609375 C261.89945122 369.36211936 250.76692726 377.72776496 240 383 C239.34 383 238.68 383 238 383 C237.96132813 381.13021484 237.96132813 381.13021484 237.921875 379.22265625 C237.39327016 361.32964749 235.51332307 344.08662439 223 330.25 C215.39082316 323.09069003 205.32024948 318.44117873 195 317 C194.34604752 316.90440796 193.69209503 316.80881592 193.01832581 316.71032715 C185.28827404 315.76377032 177.59569877 316.04183717 169.83183098 316.22868347 C164.60812017 316.33887358 159.38316827 316.36742227 154.15853024 316.40752411 C149.5987555 316.44696702 145.04353797 316.51702829 140.4855957 316.65478516 C106.849675 317.63178997 106.849675 317.63178997 97.47816467 309.05419922 C94.87270134 306.17219408 92.57781878 303.19416343 90.41456604 299.96910095 C88.36647906 297.11812764 86.01587691 295.21134999 83.25 293.0625 C82.39277344 292.39347656 81.53554688 291.72445313 80.65234375 291.03515625 C79.77707031 290.36355469 78.90179688 289.69195313 78 289 C77.01128906 288.19433594 76.02257812 287.38867188 75.00390625 286.55859375 C61.52318888 275.66213282 46.16090556 268.19372404 30.28735352 261.40576172 C29.20252686 260.94186035 28.1177002 260.47795898 27 260 C27.02268857 258.61138228 27.02268857 258.61138228 27.04583549 257.19471169 C27.41364103 234.35903932 27.64652399 211.52477345 27.74871635 188.68633461 C27.80107018 177.64002958 27.89327536 166.59704977 28.08691406 155.55224609 C28.93205077 106.08804759 29.46561138 61.77804204 6.44387817 16.89437866 C0 4.29817541 0 4.29817541 0 0 Z " fill="#C3291F" transform="translate(382,290)"/>
<path d="M0 0 C3.84025249 1.79505662 6.68224258 4.24273941 9.75 7.125 C10.28149658 7.62 10.81299316 8.115 11.3605957 8.625 C12.91308685 10.07709531 14.45773774 11.53705408 16 13 C17.11181641 14.04800781 17.11181641 14.04800781 18.24609375 15.1171875 C23.65007596 20.35807166 28.30892293 26.12318465 33 32 C33.93768112 33.14805189 34.87653244 34.29514876 35.81640625 35.44140625 C41.59510713 42.52310084 47.18580476 49.71031729 52.31359863 57.28192139 C54.84794665 61.02222199 57.4429819 64.58110455 60.39404297 68.00439453 C71.73803792 81.74567819 71.69333203 94.37087967 71.1875 111.625 C71.13638749 115.37874116 71.10383705 119.13231764 71.07333374 122.88627625 C71.05327221 125.29959733 71.0268803 127.71287504 70.99380493 130.12605286 C70.66986406 161.07766338 79.01452973 192.5587637 100.55029297 215.53662109 C105.13012617 220.15964572 110.16934574 224.37688246 115.8203125 227.6171875 C116.89925781 228.30167969 116.89925781 228.30167969 118 229 C118 229.66 118 230.32 118 231 C72.82486012 241.66457504 23.14103316 242.52194761 -18.4375 219.0625 C-23.38179047 215.94818461 -28.00982126 212.27932212 -32 208 C-32 207.34 -32 206.68 -32 206 C-30.70445248 204.97135926 -29.36102173 204.00280048 -28 203.0625 C-15.82322459 193.78677453 -9.06939352 179.04162602 -5.1875 164.5625 C-4.89516479 163.47388672 -4.89516479 163.47388672 -4.59692383 162.36328125 C-1.57960382 150.19293629 -0.70265721 137.94093889 -0.68115234 125.44555664 C-0.67182028 124.06404556 -0.66164695 122.68253996 -0.65071106 121.30104065 C-0.62376555 117.60371118 -0.60836894 113.90641898 -0.59528303 110.20901799 C-0.57949457 106.32529193 -0.55275585 102.44164037 -0.5272522 98.55796814 C-0.48073931 91.22739084 -0.44386355 83.89679909 -0.41057932 76.56615108 C-0.37216185 68.21041395 -0.32280414 59.85475217 -0.27259517 51.49907887 C-0.16968497 34.332774 -0.08029353 17.16642527 0 0 Z " fill="#C3291F" transform="translate(409,647)"/>
<path d="M0 0 C0.99 0.33 1.98 0.66 3 1 C3.76782227 2.73974609 3.76782227 2.73974609 4.31640625 5.0234375 C4.52241455 5.86986816 4.72842285 6.71629883 4.94067383 7.58837891 C5.24847778 8.96775635 5.24847778 8.96775635 5.5625 10.375 C5.77865967 11.32165527 5.99481934 12.26831055 6.2175293 13.24365234 C14.42075136 50.66831779 10.9814278 92.19724854 -9.74072266 125.11572266 C-19.7430712 140.08240083 -34.81365174 154.82063883 -52 161 C-51.98428955 160.4016333 -51.9685791 159.8032666 -51.95239258 159.18676758 C-51.51101721 139.79418675 -52.90063001 122.57788363 -65.8125 107 C-72.87027132 99.69792121 -81.10535553 95.89442917 -91 94 C-92.28261719 94.0928125 -93.56523438 94.185625 -94.88671875 94.28125 C-96.9609375 94.02612305 -96.9609375 94.02612305 -99 93 C-101.62824303 89.36973932 -103.45200103 85.43079764 -105.27310181 81.35687256 C-106.81664401 77.90588661 -108.45704947 74.50115025 -110.0859375 71.08984375 C-110.41038345 70.40355896 -110.73482941 69.71727417 -111.06910706 69.01019287 C-115.37042517 59.98579712 -120.56538618 51.49567452 -125.81762695 42.99755859 C-126.97781332 41.03748325 -127.99180837 39.04136671 -129 37 C-128.24626099 36.99191315 -127.49252197 36.98382629 -126.71594238 36.97549438 C-119.53931 36.89687132 -112.36286153 36.80939035 -105.18645477 36.71247292 C-101.49885152 36.66297045 -97.81127077 36.61664541 -94.12353516 36.578125 C-90.55072429 36.54067904 -86.97812634 36.49417832 -83.40550232 36.44193649 C-81.40977082 36.41495507 -79.41392536 36.39685496 -77.41809082 36.37905884 C-65.31151696 36.18815805 -52.86434888 35.41542135 -41.25 31.75 C-40.54738037 31.53384033 -39.84476074 31.31768066 -39.12084961 31.0949707 C-22.37196331 25.73616768 -8.22463737 15.79130376 0 0 Z " fill="#C3291F" transform="translate(744,269)"/>
<path d="M0 0 C5.79302242 0.47994071 11.43174041 1.21986839 17.13061523 2.35839844 C34.88933364 5.86081694 52.9721216 6.77681557 71 8 C71.05607422 9.83498047 71.05607422 9.83498047 71.11328125 11.70703125 C72.13565586 39.76054105 77.27780248 66.40726782 95 89 C95.75990234 90.00546875 95.75990234 90.00546875 96.53515625 91.03125 C102.41028577 98.30659467 110.26413501 103.84275667 118 109 C118 109.66 118 110.32 118 111 C74.44656822 121.93208629 23.69698729 122.62407129 -16.625 100.0625 C-22.34035408 96.63462918 -27.27960135 92.695423 -32 88 C-29.71197049 84.85395942 -27.3460032 82.44812926 -24.3125 80.0625 C-8.09388843 66.04865313 -2.77669651 42.36891405 -1 22 C-0.76195558 18.14760832 -0.59318943 14.29400376 -0.4375 10.4375 C-0.39431641 9.42880859 -0.35113281 8.42011719 -0.30664062 7.38085938 C-0.20170382 4.92067425 -0.09954299 2.46040825 0 0 Z " fill="#C3291F" transform="translate(228,767)"/>
<path d="M0 0 C9.85875 -0.061875 19.7175 -0.12375 29.875 -0.1875 C32.96858887 -0.21481201 36.06217773 -0.24212402 39.24951172 -0.27026367 C41.72623302 -0.27903292 44.20295867 -0.28667582 46.6796875 -0.29296875 C47.94562744 -0.30831665 49.21156738 -0.32366455 50.51586914 -0.33947754 C61.99511373 -0.34284126 72.08574974 1.58746404 80.72265625 9.59765625 C88.39059883 17.86848375 88.50681208 26.87408169 88.44604492 37.58056641 C88.43754385 39.8632258 88.46633987 42.14336857 88.49804688 44.42578125 C88.54854204 54.68616173 87.69241123 63.23015095 80.5 71.0625 C78.04028907 73.43835715 76.30710608 74.26428005 73 75 C73.33209473 75.74459473 73.66418945 76.48918945 74.00634766 77.25634766 C77.68123658 85.4996729 81.34419819 93.7481935 85 102 C85.38188477 102.85948242 85.76376953 103.71896484 86.15722656 104.60449219 C87.02746969 106.56711256 87.89072751 108.5325585 88.75 110.5 C89.42289063 112.03140625 89.42289063 112.03140625 90.109375 113.59375 C91 116 91 116 91 119 C81.1 119 71.2 119 61 119 C59.1025 114.75125 57.205 110.5025 55.25 106.125 C54.65993164 104.8064502 54.06986328 103.48790039 53.46191406 102.12939453 C45 83.13436867 45 83.13436867 45 80 C39.72 80 34.44 80 29 80 C29 92.87 29 105.74 29 119 C19.43 119 9.86 119 0 119 C0 79.73 0 40.46 0 0 Z M29 26 C29 35.24 29 44.48 29 54 C35.0328125 54.1546875 35.0328125 54.1546875 41.1875 54.3125 C42.44715576 54.35802002 43.70681152 54.40354004 45.00463867 54.45043945 C51.44756724 54.54107021 51.44756724 54.54107021 57.26171875 52.04296875 C59.62168264 47.91170612 59.73903315 44.68296116 59.625 40 C59.64433594 39.2059375 59.66367187 38.411875 59.68359375 37.59375 C59.65097484 33.6794804 59.22933256 31.40146081 57.26171875 27.95703125 C52.10648684 24.8638921 47.06410887 25.47513773 41.1875 25.6875 C37.165625 25.790625 33.14375 25.89375 29 26 Z " fill="#D42B1F" transform="translate(437,964)"/>
<path d="M0 0 C2.06945083 0.00852428 4.13614069 -0.02039456 6.20532227 -0.05200195 C17.42300025 -0.11133753 28.63042739 1.37542018 37.48852539 8.81323242 C43.11751103 14.38886275 45.80647754 19.94243006 46.3976593 27.99862671 C46.40226669 29.25277374 46.40687408 30.50692078 46.41162109 31.79907227 C46.41673203 32.49764847 46.42184296 33.19622467 46.42710876 33.91596985 C46.44090661 36.20473006 46.44005536 38.49318579 46.43774414 40.78198242 C46.44163669 42.38709625 46.44597251 43.99220906 46.45072937 45.59732056 C46.45817068 48.95448146 46.45791569 52.31153715 46.45263672 55.66870117 C46.44684731 59.95113351 46.46377027 64.23313261 46.48698139 68.51549339 C46.50178033 71.82883177 46.50258205 75.14206731 46.49947166 78.45543289 C46.49998187 80.03334027 46.5051625 81.61125387 46.51528358 83.18912888 C46.6308053 103.71727061 46.6308053 103.71727061 38.91821289 111.88354492 C28.60658599 120.92883168 15.21203719 121.93714164 2.07446289 121.75854492 C0.29072266 121.76337891 0.29072266 121.76337891 -1.52905273 121.76831055 C-14.59548088 121.689381 -26.93527041 120.3567641 -36.80053711 111.00854492 C-42.7891081 104.51270674 -43.9761705 98.10150608 -44.02416992 89.50366211 C-44.02913483 88.8248851 -44.03409973 88.14610809 -44.03921509 87.44676208 C-44.05376016 85.21213751 -44.06062642 82.97758396 -44.06616211 80.74291992 C-44.06898949 79.97542671 -44.07181686 79.2079335 -44.07472992 78.41718292 C-44.0896929 74.35437173 -44.09894016 70.29159577 -44.10327148 66.22875977 C-44.10874698 62.05166919 -44.13276361 57.87490607 -44.16124344 53.69791794 C-44.17995574 50.46865933 -44.18508 47.2394782 -44.18660736 44.01016998 C-44.18961585 42.47132836 -44.19758276 40.93248751 -44.21079254 39.39369965 C-44.2928422 29.09989934 -44.06658788 19.51350886 -37.48803711 11.07495117 C-27.49357922 1.05646814 -13.40307652 -0.08385823 0 0 Z M-14.86303711 31.44604492 C-15.58076548 35.79228063 -15.49141262 40.08570607 -15.42163086 44.48120117 C-15.41929947 45.75201035 -15.41696808 47.02281952 -15.41456604 48.33213806 C-15.40482757 51.01687491 -15.38578361 53.69947818 -15.35009766 56.38378906 C-15.30477984 59.81928722 -15.29006846 63.25402793 -15.28636074 66.6897974 C-15.28086083 69.97451791 -15.25748416 73.25906589 -15.23413086 76.54370117 C-15.22876816 77.77604996 -15.22340546 79.00839874 -15.21788025 80.27809143 C-15.20189285 81.42285446 -15.18590546 82.56761749 -15.16943359 83.74707031 C-15.15879379 84.75347061 -15.14815399 85.75987091 -15.13719177 86.79676819 C-14.85581523 89.51583308 -14.3231739 91.15301406 -12.86303711 93.44604492 C-8.56675629 96.32373707 -3.9101751 95.77643666 1.07446289 95.75854492 C2.41541016 95.78271484 2.41541016 95.78271484 3.78344727 95.80737305 C8.6916143 95.81101682 12.19399709 95.71990138 16.13696289 92.44604492 C17.4506463 89.81867811 17.29304587 87.82472523 17.32983398 84.88232422 C17.34589691 83.71738937 17.36195984 82.55245453 17.37850952 81.35221863 C17.42286745 76.02224179 17.46446381 70.69241316 17.48706055 65.36230469 C17.50039613 62.54817164 17.52824008 59.73476441 17.5690918 56.92089844 C17.62789307 52.87056224 17.64572043 48.82100443 17.66040039 44.77026367 C17.68306976 43.51179123 17.70573914 42.25331879 17.72909546 40.95671082 C17.79065909 34.1488876 17.79065909 34.1488876 14.92456055 28.15478516 C11.97585236 26.34728747 10.43640216 25.8043435 7.01196289 25.78198242 C6.05805664 25.77553711 5.10415039 25.7690918 4.12133789 25.76245117 C2.64407227 25.79145508 2.64407227 25.79145508 1.13696289 25.82104492 C0.15211914 25.80170898 -0.83272461 25.78237305 -1.84741211 25.76245117 C-3.27827148 25.77211914 -3.27827148 25.77211914 -4.73803711 25.78198242 C-6.03354492 25.79044189 -6.03354492 25.79044189 -7.35522461 25.79907227 C-11.31665826 26.82105427 -12.55057147 28.0282049 -14.86303711 31.44604492 Z " fill="#D42B1F" transform="translate(376.863037109375,962.553955078125)"/>
<path d="M0 0 C1.25167969 -0.02900391 2.50335938 -0.05800781 3.79296875 -0.08789062 C14.74685751 -0.1616733 25.65902745 1.39302592 34.34765625 8.59375 C39.04256689 13.47734499 42.13482111 18.7750576 42.09765625 25.5390625 C42.09515869 26.46799316 42.09266113 27.39692383 42.09008789 28.35400391 C42.08098389 29.53655762 42.07187988 30.71911133 42.0625 31.9375 C42.041875 35.69125 42.02125 39.445 42 43.3125 C32.76 43.3125 23.52 43.3125 14 43.3125 C13.67 39.6825 13.34 36.0525 13 32.3125 C12.34 30.9925 11.68 29.6725 11 28.3125 C7.53655473 27.15801824 4.71162274 27.10844908 1.0625 27.0625 C-0.16339844 27.03671875 -1.38929688 27.0109375 -2.65234375 26.984375 C-6.19415254 27.33153012 -7.63021505 27.68397923 -10 30.3125 C-10.48057715 32.3613648 -10.48057715 32.3613648 -10.25 34.5 C-10.1675 35.758125 -10.085 37.01625 -10 38.3125 C-2.23258967 42.36726559 5.585226 46.04094235 13.6875 49.375 C39.39977441 60.06088487 39.39977441 60.06088487 45.20385742 73.76391602 C46.61380789 78.27740051 46.53743764 82.68437848 46.4375 87.375 C46.44458984 88.31666016 46.45167969 89.25832031 46.45898438 90.22851562 C46.37811973 99.16716889 44.27628578 105.86041604 38.078125 112.48828125 C27.92059139 121.40476282 14.90029069 121.64510241 2.0625 121.5625 C0.86431641 121.57023437 -0.33386719 121.57796875 -1.56835938 121.5859375 C-14.68379615 121.55734799 -26.97023886 120.23609792 -36.9375 110.9375 C-44.34743825 102.91733154 -44 94.04971282 -44 83.3125 C-34.43 83.3125 -24.86 83.3125 -15 83.3125 C-14.34 85.9525 -13.68 88.5925 -13 91.3125 C-10.92556392 93.54665663 -9.75828364 94.18570367 -6.7734375 94.68481445 C-5.98195312 94.6818335 -5.19046875 94.67885254 -4.375 94.67578125 C-3.50359375 94.67513672 -2.6321875 94.67449219 -1.734375 94.67382812 C-0.38085938 94.6496582 -0.38085938 94.6496582 1 94.625 C1.90234375 94.62822266 2.8046875 94.63144531 3.734375 94.63476562 C9.64680159 94.62384418 9.64680159 94.62384418 15 92.3125 C16.455276 89.40194799 16.45067148 87.53158202 16 84.3125 C10.7203444 79.90521435 4.23345367 77.91725177 -2.125 75.5 C-10.9029714 72.07501972 -19.21738981 68.69722489 -27 63.3125 C-27.90298828 62.7246875 -27.90298828 62.7246875 -28.82421875 62.125 C-34.23478452 58.19995481 -37.91590244 51.56479267 -40 45.3125 C-40.31124064 41.46375338 -40.32406041 37.60983159 -40.375 33.75 C-40.41238281 32.70263672 -40.44976562 31.65527344 -40.48828125 30.57617188 C-40.58013909 22.36510121 -38.90188263 15.67349433 -33.31933594 9.43408203 C-23.87504337 0.42762381 -12.33333019 0.0929648 0 0 Z " fill="#D42B1F" transform="translate(173,962.6875)"/>
<path d="M0 0 C1.21236328 -0.020625 2.42472656 -0.04125 3.67382812 -0.0625 C16.12757068 -0.11592088 27.04082195 1.5589333 36.4375 10.25 C40.45984396 15.30110014 42.57278939 19.84493637 42.53515625 26.35546875 C42.53265869 27.24129639 42.53016113 28.12712402 42.52758789 29.03979492 C42.51848389 30.1610376 42.50937988 31.28228027 42.5 32.4375 C42.479375 36.005625 42.45875 39.57375 42.4375 43.25 C33.1975 43.25 23.9575 43.25 14.4375 43.25 C13.4475 35.825 13.4475 35.825 12.4375 28.25 C8.54272918 27.27630729 5.43254187 27.11653593 1.4375 27.125 C0.220625 27.12242187 -0.99625 27.11984375 -2.25 27.1171875 C-4.91000011 27.22383845 -7.04478971 27.45692126 -9.5625 28.25 C-9.81 29.4875 -10.0575 30.725 -10.3125 32 C-10.45171875 32.69609375 -10.5909375 33.3921875 -10.734375 34.109375 C-10.74973409 36.4224807 -10.74973409 36.4224807 -8.86328125 38.375 C-6.59725295 40.22167841 -4.67611668 41.34879732 -2 42.5 C-1.03835938 42.92023437 -0.07671875 43.34046875 0.9140625 43.7734375 C3.59168926 44.89554716 6.27360463 46.00316407 8.9609375 47.1015625 C38.78417493 59.33942537 38.78417493 59.33942537 44.875 71.5 C46.67485331 76.55045045 46.82200948 81.50521628 46.875 86.8125 C46.88523193 87.60366211 46.89546387 88.39482422 46.90600586 89.20996094 C46.76916729 98.44608582 44.03787866 106.63514682 37.4375 113.25 C27.41113255 120.90903069 14.72408854 121.7695731 2.5625 121.625 C1.33104248 121.61484863 0.09958496 121.60469727 -1.16918945 121.59423828 C-14.73439783 121.36244652 -26.06753986 120.22104189 -36.3359375 110.5859375 C-44.23813748 102.14407509 -43.5625 95.32563304 -43.5625 83.25 C-33.9925 83.25 -24.4225 83.25 -14.5625 83.25 C-13.9025 86.22 -13.2425 89.19 -12.5625 92.25 C-8.89291967 94.08479017 -7.76553092 94.50471449 -3.9375 94.515625 C-3.06609375 94.51820312 -2.1946875 94.52078125 -1.296875 94.5234375 C-0.39453125 94.51570313 0.5078125 94.50796875 1.4375 94.5 C2.33984375 94.50773437 3.2421875 94.51546875 4.171875 94.5234375 C5.47898437 94.51957031 5.47898437 94.51957031 6.8125 94.515625 C7.60398437 94.51336914 8.39546875 94.51111328 9.2109375 94.50878906 C11.70617499 94.21877242 13.31334636 93.57759603 15.4375 92.25 C16.79189668 89.54120665 16.50251451 87.24066732 16.4375 84.25 C9.5109197 80.00404541 2.11944864 77.14889864 -5.40625 74.13671875 C-18.85350593 68.65883911 -31.72814915 62.74270982 -38.5625 49.25 C-40.19627942 44.34866175 -39.87263285 39.32085034 -39.9375 34.1875 C-39.97488281 33.09244141 -40.01226563 31.99738281 -40.05078125 30.86914062 C-40.14047098 22.50308181 -38.58119813 15.73688464 -32.88183594 9.37353516 C-23.54857626 0.46134662 -12.20042785 0.05075581 0 0 Z " fill="#D42B1F" transform="translate(669.5625,962.75)"/>
<path d="M0 0 C9.796875 -0.0825 19.59375 -0.165 29.6875 -0.25 C34.28691528 -0.30462402 34.28691528 -0.30462402 38.97924805 -0.36035156 C41.44839786 -0.37204957 43.91755547 -0.38223875 46.38671875 -0.390625 C48.26260681 -0.4213208 48.26260681 -0.4213208 50.1763916 -0.45263672 C60.47054734 -0.45665984 71.78066835 0.75754247 79.5625 8.1875 C80.32691406 8.88230469 81.09132813 9.57710937 81.87890625 10.29296875 C88.49050635 18.73097772 88.63022482 27.21417568 88.52148438 37.56542969 C88.50004275 39.99515589 88.52135155 42.42192633 88.546875 44.8515625 C88.56432909 54.16983365 87.94491141 61.54287255 82.359375 69.26953125 C74.02573868 77.25930394 64.73234393 80.28816406 53.21875 80.1953125 C51.93935547 80.19031738 50.65996094 80.18532227 49.34179688 80.18017578 C46.94510742 80.15286377 46.94510742 80.15286377 44.5 80.125 C39.385 80.08375 34.27 80.0425 29 80 C29 92.87 29 105.74 29 119 C19.43 119 9.86 119 0 119 C0 79.73 0 40.46 0 0 Z M29 26 C29 35.24 29 44.48 29 54 C33.021875 54.0825 37.04375 54.165 41.1875 54.25 C43.07698364 54.30462402 43.07698364 54.30462402 45.00463867 54.36035156 C46.0072876 54.3703418 47.00993652 54.38033203 48.04296875 54.390625 C49.57473755 54.4220459 49.57473755 54.4220459 51.13745117 54.45410156 C54.8145606 53.87078186 56.43988087 52.67278166 59 50 C59.75576112 47.77599726 59.75576112 47.77599726 59.6640625 45.375 C59.67050781 44.50359375 59.67695313 43.6321875 59.68359375 42.734375 C59.65458984 41.38085938 59.65458984 41.38085938 59.625 40 C59.64433594 39.09765625 59.66367187 38.1953125 59.68359375 37.265625 C59.67714844 36.39421875 59.67070312 35.5228125 59.6640625 34.625 C59.65842285 33.83351563 59.6527832 33.04203125 59.64697266 32.2265625 C58.66968414 28.86321484 56.93751926 27.80076644 54 26 C51.11092204 25.45516934 51.11092204 25.45516934 48.04296875 25.609375 C46.53899536 25.62436035 46.53899536 25.62436035 45.00463867 25.63964844 C43.74498291 25.67606445 42.48532715 25.71248047 41.1875 25.75 C37.165625 25.8325 33.14375 25.915 29 26 Z " fill="#D42B1F" transform="translate(233,964)"/>
<path d="M0 0 C24.75 0 49.5 0 75 0 C75 8.58 75 17.16 75 26 C59.82 26 44.64 26 29 26 C29 32.6 29 39.2 29 46 C42.2 46 55.4 46 69 46 C69 54.58 69 63.16 69 72 C55.8 72 42.6 72 29 72 C29 78.93 29 85.86 29 93 C44.84 93 60.68 93 77 93 C77 101.58 77 110.16 77 119 C51.59 119 26.18 119 0 119 C0 79.73 0 40.46 0 0 Z " fill="#D42B1F" transform="translate(38,964)"/>
<path d="M0 0 C2.60126785 1.30063393 2.6444761 2.23526259 3.60400391 4.93725586 C4.05424423 6.18876686 4.05424423 6.18876686 4.51358032 7.46556091 C4.9902565 8.82645592 4.9902565 8.82645592 5.4765625 10.21484375 C5.80667328 11.14091934 6.13678406 12.06699493 6.47689819 13.02113342 C7.17455321 14.98284285 7.86867869 16.94581049 8.55957031 18.90991211 C9.62023821 21.92396861 10.69196484 24.93390964 11.765625 27.94335938 C12.44075965 29.84612172 13.11526021 31.74910919 13.7890625 33.65234375 C14.11089508 34.55758286 14.43272766 35.46282196 14.76431274 36.39549255 C15.05816864 37.23298538 15.35202454 38.07047821 15.65478516 38.93334961 C16.04544662 40.0413517 16.04544662 40.0413517 16.44400024 41.17173767 C17 43 17 43 17 45 C17.95777344 44.99419922 18.91554688 44.98839844 19.90234375 44.98242188 C29.94538445 44.94096388 39.9635086 45.1557465 50 45.5 C51.46874213 45.5484165 52.93749214 45.59659444 54.40625 45.64453125 C57.93759455 45.76028969 61.46882353 45.87921012 65 46 C63.73003345 49.80989965 62.24095756 50.54115828 59 52.875 C57.9119144 53.66811147 56.82472908 54.46245901 55.73828125 55.2578125 C54.84616943 55.9079834 54.84616943 55.9079834 53.93603516 56.57128906 C49.59079335 59.77789121 45.33112979 63.09913049 41.05273438 66.39404297 C40.36888672 66.91885254 39.68503906 67.44366211 38.98046875 67.984375 C38.38129639 68.44553711 37.78212402 68.90669922 37.16479492 69.38183594 C34.14547873 71.6387467 31.07225971 73.81571263 28 76 C28.32274902 77.10923828 28.64549805 78.21847656 28.97802734 79.36132812 C30.18347522 83.50574729 31.3869464 87.65073834 32.58984375 91.79589844 C33.10916745 93.58446476 33.62901576 95.37287886 34.14941406 97.16113281 C34.90049457 99.74243247 35.64964075 102.32428706 36.3984375 104.90625 C36.6287265 105.69616333 36.8590155 106.48607666 37.09628296 107.29992676 C38.50804821 112.17640544 39.79644467 117.06787937 41 122 C37.82060288 121.27351236 35.70234607 120.31855771 33.015625 118.4453125 C31.87105835 117.65374756 31.87105835 117.65374756 30.70336914 116.84619141 C29.89375732 116.27819824 29.08414551 115.71020508 28.25 115.125 C27.4139624 114.5479834 26.5779248 113.9709668 25.71655273 113.37646484 C21.56209048 110.50565162 17.43417644 107.60128977 13.33203125 104.65625 C12.61047852 104.14433105 11.88892578 103.63241211 11.14550781 103.10498047 C9.78149713 102.13584864 8.42499347 101.15604229 7.07714844 100.16455078 C3.85983658 97.67777718 3.85983658 97.67777718 0.0065918 97.25195312 C-3.42615224 98.53166206 -6.28175501 100.76957939 -9.25 102.875 C-9.94585205 103.36025146 -10.6417041 103.84550293 -11.35864258 104.34545898 C-13.57608159 105.89182111 -15.78831907 107.44541617 -18 109 C-20.89113779 111.02765805 -23.78782796 113.04707233 -26.6875 115.0625 C-27.34588867 115.5270459 -28.00427734 115.9915918 -28.68261719 116.47021484 C-32.02098702 118.79087307 -35.11241084 120.68431495 -39 122 C-37.92033753 115.75293565 -36.40863048 109.75293197 -34.58203125 103.69140625 C-34.3596579 102.95296478 -34.13728455 102.21452332 -33.90817261 101.45370483 C-32.97456963 98.36817747 -32.03454629 95.28469229 -31.0871582 92.20336914 C-30.39042525 89.93075465 -29.70434484 87.65513583 -29.01953125 85.37890625 C-28.80190628 84.68205215 -28.58428131 83.98519806 -28.36006165 83.26722717 C-27.12045348 79.15798792 -27.12045348 79.15798792 -28 75 C-29.76222016 73.37488102 -29.76222016 73.37488102 -31.98046875 71.8125 C-32.80885254 71.20116211 -33.63723633 70.58982422 -34.49072266 69.95996094 C-35.82562744 68.98978027 -35.82562744 68.98978027 -37.1875 68 C-39.0125662 66.65218845 -40.83677976 65.30322159 -42.66015625 63.953125 C-43.5639502 63.28603516 -44.46774414 62.61894531 -45.39892578 61.93164062 C-49.0102374 59.2497655 -52.57943277 56.51801798 -56.125 53.75 C-56.69758545 53.30914062 -57.2701709 52.86828125 -57.86010742 52.4140625 C-60.4339436 50.39717069 -62.1649549 48.75256765 -64 46 C-63.11441406 45.97494385 -62.22882813 45.9498877 -61.31640625 45.92407227 C-57.94654583 45.82742109 -54.57677441 45.72831398 -51.20703125 45.62768555 C-49.76435047 45.5850754 -48.3216426 45.54337045 -46.87890625 45.50268555 C-36.56868656 45.21109065 -26.29025833 44.70546438 -16 44 C-15.81429947 43.47826202 -15.62859894 42.95652405 -15.43727112 42.41897583 C-13.50845174 37.0006158 -11.57786533 31.58288777 -9.64624023 26.16552734 C-8.92508096 24.14225237 -8.20437611 22.11881537 -7.48413086 20.09521484 C-6.4502444 17.19065563 -5.4147381 14.28667842 -4.37890625 11.3828125 C-4.05596085 10.47443634 -3.73301544 9.56606018 -3.40028381 8.63015747 C-3.10004807 7.78943695 -2.79981232 6.94871643 -2.49047852 6.08251953 C-2.22622574 5.34083527 -1.96197296 4.599151 -1.68971252 3.83499146 C-1 2 -1 2 0 0 Z " fill="#CEB043" transform="translate(391,0)"/>
<path d="M0 0 C26.4 0 52.8 0 80 0 C80 8.58 80 17.16 80 26 C72.08 26 64.16 26 56 26 C56 56.69 56 87.38 56 119 C46.43 119 36.86 119 27 119 C27 88.31 27 57.62 27 26 C18.09 26 9.18 26 0 26 C0 17.42 0 8.84 0 0 Z " fill="#D42B1F" transform="translate(537,964)"/>
</svg>
