<?xml version="1.0" encoding="UTF-8"?>
<svg version="1.1" xmlns="http://www.w3.org/2000/svg" width="208" height="132">
<path d="M0 0 C1.44335781 0.00502912 2.88671733 0.00958951 4.33007812 0.01367188 C7.82425505 0.0245562 11.31836612 0.0417415 14.8125 0.0625 C14.93683022 7.56957325 14.88813695 14.84025318 13.625 22.25 C13.42644409 23.44737793 13.42644409 23.44737793 13.22387695 24.66894531 C6.34022555 63.98421881 -15.20360052 100.60081967 -48.09765625 123.8984375 C-49.4354388 124.81414497 -50.77785107 125.72312857 -52.125 126.625 C-52.76356934 127.05449951 -53.40213867 127.48399902 -54.06005859 127.92651367 C-57.07948009 129.89718037 -59.66772058 131.31889812 -63.1875 132.0625 C-65.4436463 100.01187254 -65.4436463 100.01187254 -60.64453125 93.51953125 C-58.03052015 90.93784115 -55.04888681 88.98907518 -51.88867188 87.13427734 C-34.18294846 75.97926503 -25.16793291 49.91995016 -19.1875 31.0625 C-25.96974778 30.8191179 -32.26840405 31.75318951 -38.9375 32.9375 C-45.046875 33.9921875 -45.046875 33.9921875 -48.10083008 34.49755859 C-50.21601193 34.88469225 -52.31873778 35.34490172 -54.4050293 35.86572266 C-62.08896098 37.63962405 -62.08896098 37.63962405 -65.14208984 36.03564453 C-66.85303281 34.36447877 -68.15587592 32.66464112 -69.5 30.6875 C-70.49040324 29.379843 -71.48128642 28.07254935 -72.47265625 26.765625 C-72.93430176 26.12689453 -73.39594727 25.48816406 -73.87158203 24.83007812 C-76.04309966 21.91323441 -78.57712951 19.34293752 -81.078125 16.7109375 C-82.1875 15.0625 -82.1875 15.0625 -82.1875 11.0625 C-67.86263827 7.95935001 -53.5549729 4.96847462 -39.0625 2.75 C-37.51199951 2.51168457 -37.51199951 2.51168457 -35.93017578 2.26855469 C-23.90709772 0.48808259 -12.13576211 -0.07431489 0 0 Z " fill="#FE5800" transform="translate(82.1875,-0.0625)"/>
<path d="M0 0 C33.27964969 -0.61602655 65.86934333 3.11681845 98 12 C96.68230669 14.86264267 95.21923962 17.10085851 93.13671875 19.4609375 C92.57919922 20.09773438 92.02167969 20.73453125 91.44726562 21.390625 C90.57618164 22.37289063 90.57618164 22.37289063 89.6875 23.375 C88.54504192 24.67401236 87.40310783 25.97348576 86.26171875 27.2734375 C85.42133057 28.20687988 85.42133057 28.20687988 84.56396484 29.15917969 C82.9824821 30.9447535 82.9824821 30.9447535 81.78369141 32.84863281 C80.64453125 34.5390625 80.64453125 34.5390625 78 37 C74.86818085 37.34670606 72.05422439 36.67878298 69 36 C67.26743381 35.6963135 65.53434133 35.3956169 63.80078125 35.09765625 C61.97090616 34.75498796 60.14148842 34.40986975 58.3125 34.0625 C49.8960183 32.49459891 41.49190804 31.10133961 33 30 C39.20123739 50.29495873 47.56611481 67.96469759 61.9375 83.8125 C62.39092773 84.31547607 62.84435547 84.81845215 63.31152344 85.33666992 C65.6235153 87.80030078 67.66130595 89.79679637 70.58398438 91.55029297 C73.65444832 93.49190988 75.77027328 95.11566976 78 98 C79.23365657 103.88495145 78.95107401 109.52730852 78.625 115.5 C78.57477325 117.10142331 78.52915735 118.70299824 78.48828125 120.3046875 C78.37871769 124.20690312 78.20660888 128.10176714 78 132 C73.26227424 131.22427905 70.17623789 129.32820506 66.375 126.5 C65.76180908 126.05148682 65.14861816 125.60297363 64.5168457 125.14086914 C31.70557821 100.93611513 8.13211213 66.50611267 1.52636719 25.78393555 C0.25422062 17.15825565 -0.43706934 8.72519896 0 0 Z " fill="#FE5800" transform="translate(106,0)"/>
<path d="M0 0 C8.91 0 17.82 0 27 0 C27.16173201 4.27177892 27.30064526 8.53276044 27.38452148 12.80517578 C27.41950365 14.25443684 27.46710991 15.70345481 27.52807617 17.15185547 C28.0848003 30.72843878 28.0848003 30.72843878 23.75 35.6953125 C22.52597028 36.82566253 21.27796176 37.93100342 20 39 C19.21753906 39.86367187 18.43507813 40.72734375 17.62890625 41.6171875 C16.94699219 42.36226562 16.26507813 43.10734375 15.5625 43.875 C11.69876663 48.12840905 8.16673787 52.5630049 4.7265625 57.1640625 C3.87191406 58.07285156 3.87191406 58.07285156 3 59 C2.01 59 1.02 59 0 59 C0 39.53 0 20.06 0 0 Z " fill="#FE5800" transform="translate(88,73)"/>
</svg>
