<?xml version="1.0" encoding="UTF-8"?>
<svg version="1.1" xmlns="http://www.w3.org/2000/svg" width="900" height="993">
<path d="M0 0 C80.85 0 161.7 0 245 0 C245 314.49 245 628.98 245 953 C203.75 953 162.5 953 120 953 C107 901 107 901 108 899 C135.72 899 163.44 899 192 899 C192 620.15 192 341.3 192 54 C124.35 54 56.7 54 -13 54 C-9.68806871 35.78437789 -4.58844892 17.93666397 0 0 Z " fill="#BB0000" transform="translate(655,20)"/>
<path d="M0 0 C80.52 0 161.04 0 244 0 C247.3756235 10.12687049 247.3756235 10.12687049 248.3503418 13.93725586 C248.57034348 14.79101303 248.79034515 15.6447702 249.01701355 16.5243988 C249.24214127 17.41224564 249.46726898 18.30009247 249.69921875 19.21484375 C249.9391304 20.15179581 250.17904205 21.08874786 250.42622375 22.05409241 C250.92773904 24.01588262 251.42765373 25.97808266 251.92602539 27.94067383 C252.69179687 30.95441056 253.46370408 33.96652922 254.23632812 36.97851562 C254.72432033 38.89053265 255.21196324 40.80263886 255.69921875 42.71484375 C256.04601936 44.06786842 256.04601936 44.06786842 256.39982605 45.44822693 C256.71564384 46.695765 256.71564384 46.695765 257.0378418 47.96850586 C257.224207 48.70080917 257.4105722 49.43311249 257.60258484 50.18760681 C258 52 258 52 258 54 C190.02 54 122.04 54 52 54 C52 333.18 52 612.36 52 900 C80.05 900 108.1 900 137 900 C134.99966128 918.00304852 129.39325091 935.42699634 125 953 C83.75 953 42.5 953 0 953 C0 638.51 0 324.02 0 0 Z " fill="#BB0000" transform="translate(0,20)"/>
<path d="M0 0 C1.09315461 -0.00128164 1.09315461 -0.00128164 2.20839316 -0.00258917 C4.63273386 -0.0042268 7.05700425 0.0012491 9.4813385 0.00672913 C11.22619119 0.00701139 12.97104399 0.00685249 14.71589661 0.00628662 C19.44054848 0.0060002 24.16517486 0.01187194 28.88982081 0.01886058 C33.83191088 0.02511986 38.77400155 0.02569995 43.71609497 0.02688599 C53.06922444 0.02999171 62.42234219 0.03819487 71.7754665 0.04823548 C84.41818342 0.06151231 97.06090355 0.06690265 109.70362568 0.07273769 C129.61529719 0.08213527 149.52694398 0.10205927 169.43861389 0.12025452 C169.43861389 40.05025452 169.43861389 79.98025452 169.43861389 121.12025452 C151.94861389 121.12025452 134.45861389 121.12025452 116.43861389 121.12025452 C116.43861389 98.35025452 116.43861389 75.58025452 116.43861389 52.12025452 C96.89850133 52.24037121 96.89850133 52.24037121 77.35853577 52.37806702 C69.37963536 52.43818708 61.40076692 52.49632472 53.42176819 52.54212952 C46.98315262 52.57922181 40.54466359 52.62564438 34.1061573 52.67831802 C31.65963033 52.69673552 29.21307637 52.71188919 26.7665081 52.72359848 C-5.29285362 52.88241361 -33.32065123 57.699971 -58.56138611 79.12025452 C-59.23685486 79.6500592 -59.91232361 80.17986389 -60.60826111 80.72572327 C-76.7326744 93.78649803 -84.59388572 113.20846776 -91.56138611 132.12025452 C-5.43138611 132.12025452 80.69861389 132.12025452 169.43861389 132.12025452 C169.43861389 185.76689257 169.43861389 185.76689257 161.43861389 209.12025452 C161.22366272 209.77654846 161.00871155 210.43284241 160.7872467 211.10902405 C153.47874573 233.3021776 140.5772575 252.4235022 124.43861389 269.12025452 C123.62650452 269.98392639 122.81439514 270.84759827 121.97767639 271.73744202 C94.0095243 300.79173594 53.34766783 316.1649825 13.49159241 317.45887756 C-26.03049549 318.05101342 -62.28146504 303.95552101 -92.56138611 279.12025452 C-93.22138611 278.46025452 -93.88138611 277.80025452 -94.56138611 277.12025452 C-94.89138611 290.32025452 -95.22138611 303.52025452 -95.56138611 317.12025452 C-113.05138611 317.12025452 -130.54138611 317.12025452 -148.56138611 317.12025452 C-148.56138611 276.86025452 -148.56138611 236.60025452 -148.56138611 195.12025452 C-89.56138611 195.12025452 -89.56138611 195.12025452 -87.56138611 196.12025452 C-86.29515604 198.72999629 -85.10336668 201.34174622 -83.93638611 203.99525452 C-72.72552104 228.56592589 -51.73156021 247.21525681 -26.58580017 256.87953186 C0.3909377 266.5271449 30.20882 265.64733592 56.25111389 253.37025452 C81.05490512 241.06661056 99.1570671 220.66977956 109.43861389 195.12025452 C110.92361389 190.17025452 110.92361389 190.17025452 112.43861389 185.12025452 C26.30861389 184.79025452 -59.82138611 184.46025452 -148.56138611 184.12025452 C-148.56138611 150.00211556 -147.69305161 119.61515191 -132.56138611 89.12025452 C-132.25475037 88.49070862 -131.94811462 87.86116272 -131.63218689 87.21253967 C-125.27132707 74.26988816 -117.36084919 62.77783034 -107.51451111 52.22572327 C-105.92077887 50.50767991 -104.44679685 48.77160116 -102.99888611 46.93275452 C-79.12444578 19.38532337 -36.27569065 -0.0257457 0 0 Z " fill="#BB0000" transform="translate(611.5613861083984,511.87974548339844)"/>
<path d="M0 0 C17.49 0 34.98 0 53 0 C53 43.56 53 87.12 53 132 C121.64 132 190.28 132 261 132 C254.56836728 114.54271118 248.88866906 101.66023016 237 88 C236.21882812 87.01773438 235.43765625 86.03546875 234.6328125 85.0234375 C231.93389739 81.78370431 228.88781844 79.20182887 225.5625 76.625 C224.95414307 76.15239746 224.34578613 75.67979492 223.71899414 75.19287109 C202.0255339 58.70729182 178.12474785 53.46370142 151.375 53.25 C141.784375 53.12625 141.784375 53.12625 132 53 C132 35.51 132 18.02 132 0 C181.39350935 -0.61549544 181.39350935 -0.61549544 198 4 C198.97340332 4.26844727 199.94680664 4.53689453 200.94970703 4.81347656 C225.28425579 11.76840536 247.61724433 23.53373551 265.9609375 41.1015625 C267.85744722 43.04629291 267.85744722 43.04629291 270 44 C270 44.66 270 45.32 270 46 C270.66 46 271.32 46 272 46 C272 46.66 272 47.32 272 48 C272.66 48 273.32 48 274 48 C276.77857869 50.98418176 279.2523731 54.21814197 281.76660156 57.42675781 C282.91620133 58.89311192 284.07870659 60.34932288 285.2421875 61.8046875 C309.55642987 93.0411341 318.20945578 129.47211008 318.11352539 168.50878906 C318.11324271 170.13615416 318.11340282 171.76351938 318.1139679 173.3908844 C318.11425273 177.77227685 318.10840709 182.15364147 318.10139394 186.5350275 C318.0951078 191.12741514 318.09455246 195.71980355 318.09336853 200.31219482 C318.09027064 208.99225487 318.08207819 217.6723022 318.07201904 226.35235667 C318.06080981 236.2411996 318.05533537 246.13004315 318.05032361 256.01889086 C318.03989417 276.3459359 318.02156803 296.67296352 318 317 C300.51 317 283.02 317 265 317 C265 273.44 265 229.88 265 185 C196.36 185 127.72 185 57 185 C62.43634323 201.30902969 68.73151042 216.99707481 81.265625 229.20703125 C83 231 83 231 83 233 C83.66 233 84.32 233 85 233 C85 233.66 85 234.32 85 235 C85.59941406 235.27585937 86.19882813 235.55171875 86.81640625 235.8359375 C89 237 89 237 91.9375 239.625 C111.19035649 256.45585536 135.22788853 262.09445296 160 264 C160 281.49 160 298.98 160 317 C107.2 317 54.4 317 0 317 C0 299.51 0 282.02 0 264 C19.305 263.505 19.305 263.505 39 263 C35.37 258.38 31.74 253.76 28 249 C8.57851697 219.43296613 -0.39700536 187.89654692 -0.22705078 152.578125 C-0.2264849 150.90090949 -0.22680667 149.22369349 -0.22793579 147.54647827 C-0.2285034 143.04752445 -0.21684629 138.54867997 -0.20278788 134.04975128 C-0.19018055 129.32793246 -0.18910221 124.6061104 -0.18673706 119.88427734 C-0.18055141 110.96704578 -0.16418056 102.04986397 -0.14403808 93.13265419 C-0.12158769 82.97045207 -0.11066279 72.80824741 -0.10064721 62.64602661 C-0.07981134 41.7639839 -0.04317209 20.8820093 0 0 Z " fill="#BB0000" transform="translate(119,164)"/>
<path d="M0 0 C17.49 0 34.98 0 53 0 C53.029729 7.32638672 53.029729 7.32638672 53.06005859 14.80078125 C53.12709209 30.97384623 53.2046326 47.14684839 53.28752708 63.31983948 C53.33751037 73.1214138 53.38395413 82.92298035 53.421875 92.72460938 C53.45496104 101.27417696 53.49488214 109.8236816 53.54279006 118.37317944 C53.56789107 122.89417904 53.58971938 127.41513778 53.60334396 131.93618774 C53.61631491 136.20434534 53.63852573 140.47236157 53.66738319 144.74044037 C53.67634304 146.29465949 53.68212151 147.8489013 53.68421364 149.40314484 C53.73640498 182.33013814 62.88461816 209.825495 85.625 234.125 C107.44357164 255.12409477 135.11314094 263.53746267 164.8671875 263.2109375 C187.93912958 262.63820464 210.66343719 253.1048038 228 238 C229.18610248 237.03993754 230.37339059 236.08133563 231.5625 235.125 C234.03988626 233.23715667 234.03988626 233.23715667 235 231 C235.66 231 236.32 231 237 231 C237.24492188 230.44957031 237.48984375 229.89914062 237.7421875 229.33203125 C239.26111555 226.51588205 241.13515589 224.19387159 243.125 221.6875 C259.75545084 199.98077629 266.87904886 172.49238246 263.69091797 145.37060547 C259.58509869 117.52130002 246.37395175 92.4988194 224 75 C203.481236 60.10938406 183.52340488 55.43080047 158 53 C158 35.51 158 18.02 158 0 C210.8 0 263.6 0 318 0 C318 17.49 318 34.98 318 53 C305.13 53.33 292.26 53.66 279 54 C281.31 56.64 283.62 59.28 286 62 C287.69265024 64.29568924 289.31221654 66.56030826 290.875 68.9375 C291.29499268 69.5759082 291.71498535 70.21431641 292.14770508 70.87207031 C315.4745147 106.98027383 323.49506517 149.77860273 315 192 C310.47398698 212.66502112 301.9927351 231.61267482 290 249 C289.26652344 250.07121094 288.53304688 251.14242187 287.77734375 252.24609375 C276.72958424 267.42491943 262.75870865 280.81152898 247 291 C246.34741211 291.42716309 245.69482422 291.85432617 245.02246094 292.29443359 C210.08874078 314.85264394 166.65530461 322.53117534 126 314 C112.3167583 310.90318704 99.56794958 306.19802623 87 300 C85.46279297 299.24396484 85.46279297 299.24396484 83.89453125 298.47265625 C73.11301819 292.8563125 63.56863674 285.44227302 54 278 C53.67 290.87 53.34 303.74 53 317 C35.51 317 18.02 317 0 317 C0 212.39 0 107.78 0 0 Z " fill="#BB0000" transform="translate(463,164)"/>
<path d="M0 0 C17.49 0 34.98 0 53 0 C53.33 12.87 53.66 25.74 54 39 C56.97 36.36 59.94 33.72 63 31 C65.33989802 29.25206315 67.62847371 27.59419225 70.0625 26 C71.01286133 25.37399902 71.01286133 25.37399902 71.98242188 24.73535156 C79.01816743 20.20250862 86.38345018 16.45169486 94 13 C94.61311035 12.72172363 95.2262207 12.44344727 95.85791016 12.15673828 C103.25945317 8.8625248 110.75348892 6.35420576 118.5625 4.25 C119.29315674 4.05124268 120.02381348 3.85248535 120.77661133 3.64770508 C133.34575273 0.4334327 145.84840332 -0.37649388 158.75 -0.3125 C159.49568237 -0.31100952 160.24136475 -0.30951904 161.00964355 -0.3079834 C172.25300227 -0.26762417 183.05153241 0.29193954 194 3 C195.19367188 3.29003906 196.38734375 3.58007812 197.6171875 3.87890625 C225.68473965 11.34900086 250.04738108 25.01993059 270.5546875 45.55859375 C272.01970522 47.02127118 273.50679284 48.46301994 275.03515625 49.859375 C293.09778883 66.70391097 305.68169189 91.35453506 312 115 C312.19529297 115.71929688 312.39058594 116.43859375 312.59179688 117.1796875 C323.3840496 158.02309513 317.55457483 201.78870546 296.515625 238.42578125 C291.2389735 247.25915007 285.29748354 255.70251646 278 263 C297.8 263.495 297.8 263.495 318 264 C318 281.49 318 298.98 318 317 C265.2 317 212.4 317 158 317 C158 299.51 158 282.02 158 264 C165.92 263.01 173.84 262.02 182 261 C211.07346315 252.77527029 234.8699556 237.50640914 250.17089844 210.67578125 C263.9548326 185.41185581 267.79326429 156.23954814 259.875 128.4375 C251.51483651 100.9018649 233.0552663 78.92614114 208.02001953 65.0559082 C194.42352081 57.82064017 179.37337599 53.74088559 164 53 C163.2265625 52.95875 162.453125 52.9175 161.65625 52.875 C136.73188413 52.21035024 111.0189661 60.89176263 92 77 C91.18660156 77.67933594 90.37320313 78.35867188 89.53515625 79.05859375 C69.03911643 96.77550953 56.92185592 121.16949501 54 148 C53.28822629 160.03365373 53.38980784 172.10359648 53.39249516 184.15389538 C53.38933103 188.83705343 53.3636414 193.52009169 53.34051514 198.20318604 C53.30021629 207.03880238 53.27967643 215.87434542 53.26654124 224.71003938 C53.25058186 234.78292806 53.21212949 244.85569356 53.17194796 254.92851019 C53.08990703 275.61898969 53.03855971 296.30939063 53 317 C35.51 317 18.02 317 0 317 C0 212.39 0 107.78 0 0 Z " fill="#BB0000" transform="translate(119,512)"/>
<path d="M0 0 C10.23 0 20.46 0 31 0 C31 9.9 31 19.8 31 30 C39.58 30 48.16 30 57 30 C57 20.1 57 10.2 57 0 C67.23 0 77.46 0 88 0 C88 30.36 88 60.72 88 92 C77.77 92 67.54 92 57 92 C57 81.11 57 70.22 57 59 C48.42 59 39.84 59 31 59 C31 69.89 31 80.78 31 92 C20.77 92 10.54 92 0 92 C0 61.64 0 31.28 0 0 Z " fill="#BB0000" transform="translate(403,0)"/>
<path d="M0 0 C10.5332018 7.55210695 17.13373683 18.72521143 19.5234375 31.390625 C21.07664083 46.66379108 17.47254034 59.94350628 7.8984375 72.078125 C1.7334864 78.83745479 -8.24714493 85.58828244 -17.57836914 86.25512695 C-20.77369555 86.32187909 -23.96815247 86.36308988 -27.1640625 86.390625 C-28.25912109 86.41962891 -29.35417969 86.44863281 -30.48242188 86.47851562 C-42.19766473 86.56922328 -50.52169879 82.95299991 -59.1015625 75.078125 C-68.87295244 65.4170572 -74.26138883 56.06601973 -74.43115234 42.12670898 C-74.4255127 41.32692627 -74.41987305 40.52714355 -74.4140625 39.703125 C-74.40842285 38.86531494 -74.4027832 38.02750488 -74.39697266 37.16430664 C-74.14385575 24.27163398 -69.18078311 13.36369153 -60.1015625 4.078125 C-53.95773067 -0.92266835 -47.6306133 -4.46502685 -40.1015625 -6.921875 C-39.51375 -7.11523438 -38.9259375 -7.30859375 -38.3203125 -7.5078125 C-24.45785416 -10.09482057 -11.88321853 -7.27045247 0 0 Z M-41.640625 22.7265625 C-47.13310581 30.08199002 -47.98876968 37.01984921 -47.1015625 46.078125 C-45.11566786 52.80869765 -40.92778509 57.53170132 -34.7890625 60.890625 C-29.01809144 62.74907331 -24.51367985 62.95117529 -18.9765625 60.578125 C-13.64607542 57.64478004 -10.00970808 52.80256174 -8.1015625 47.078125 C-7.22797826 35.60241699 -7.22797826 35.60241699 -11.1015625 25.078125 C-15.75371123 19.955018 -20.44818075 17.08416469 -27.4140625 16.703125 C-33.0728975 16.86319188 -37.72722283 18.53505053 -41.640625 22.7265625 Z " fill="#BB0000" transform="translate(474.1015625,906.921875)"/>
<path d="M0 0 C8.20875 -0.0825 16.4175 -0.165 24.875 -0.25 C28.73227783 -0.30462402 28.73227783 -0.30462402 32.66748047 -0.36035156 C34.73404102 -0.37204758 36.80061087 -0.38223724 38.8671875 -0.390625 C39.91720947 -0.41108887 40.96723145 -0.43155273 42.04907227 -0.45263672 C53.12536902 -0.45781377 60.8688745 2.94068968 68.86328125 10.55859375 C74.61446947 17.12987828 76.38312747 25.05445221 76.19921875 33.61328125 C75.43773695 42.73613181 70.82551175 49.03802786 64 55 C61.85913086 55.62304688 61.85913086 55.62304688 60 56 C65.25638175 65.58000265 70.54065217 75.11710629 76.30639648 84.40258789 C79 88.7909195 79 88.7909195 79 91 C53.1157906 93.69069157 53.1157906 93.69069157 46.69433594 89.49267578 C43.25321712 85.59846645 41.42603815 81.01008104 39.75585938 76.13769531 C38.72862146 73.23249662 37.31096081 70.65054237 35.75 68 C35.35296875 67.236875 34.9559375 66.47375 34.546875 65.6875 C32.69129826 63.31540168 32.69129826 63.31540168 27 63 C27 72.24 27 81.48 27 91 C18.09 91 9.18 91 0 91 C0 60.97 0 30.94 0 0 Z M26 23 C26 28.94 26 34.88 26 41 C36.47886635 41.62465374 36.47886635 41.62465374 46 38 C48.17222379 35.35555365 47.99893321 33.97012982 47.875 30.5 C46.87811906 26.51247622 46.30213789 25.38085177 43 23 C40.06253483 22.51602405 37.21659178 22.62306896 34.25 22.75 C30.16625 22.87375 30.16625 22.87375 26 23 Z " fill="#BB0000" transform="translate(504,901)"/>
<path d="M0 0 C23.43 0 46.86 0 71 0 C69.58954902 3.52612746 68.21951805 6.58110119 66.3984375 9.86328125 C65.95677246 10.66290283 65.51510742 11.46252441 65.06005859 12.28637695 C64.50398926 13.28499756 63.94791992 14.28361816 63.375 15.3125 C61.60125 18.509375 59.8275 21.70625 58 25 C49.09 25 40.18 25 31 25 C31 27.64 31 30.28 31 33 C42.55 33 54.1 33 66 33 C63.86261031 41.54955874 59.78767992 51.1523378 53 57 C45.88140464 59.43030403 38.27247142 58.16463066 31 57 C31 59.97 31 62.94 31 66 C44.53 66 58.06 66 72 66 C71.16933269 70.15333656 70.50607149 72.28789624 68.53125 75.828125 C68.04269531 76.70984375 67.55414062 77.5915625 67.05078125 78.5 C66.53902344 79.4075 66.02726563 80.315 65.5 81.25 C64.98824219 82.17296875 64.47648438 83.0959375 63.94921875 84.046875 C60.16689161 90.83310839 60.16689161 90.83310839 59 92 C57.15881971 92.09381302 55.31402359 92.11743954 53.47045898 92.11352539 C51.67384827 92.11334412 51.67384827 92.11334412 49.84094238 92.11315918 C48.57214233 92.10804321 47.30334229 92.10292725 45.99609375 92.09765625 C44.83726685 92.09664917 43.67843994 92.09564209 42.48449707 92.09460449 C38.13548805 92.08935327 33.78649308 92.07539216 29.4375 92.0625 C14.8659375 92.0315625 14.8659375 92.0315625 0 92 C0 61.64 0 31.28 0 0 Z " fill="#BB0000" transform="translate(503,0)"/>
<path d="M0 0 C7.9309506 6.69440454 11.07772254 13.57575961 12.1875 23.8125 C9.18801609 24.15115141 6.18805074 24.48355073 3.1875 24.8125 C2.34832031 24.90789063 1.50914062 25.00328125 0.64453125 25.1015625 C-4.54390945 25.66464909 -9.59376961 25.90914316 -14.8125 25.8125 C-17.8125 20.0625 -17.8125 20.0625 -17.8125 17.8125 C-19.22793415 17.61591192 -20.64494031 17.43062454 -22.0625 17.25 C-22.85140625 17.14558594 -23.6403125 17.04117188 -24.453125 16.93359375 C-26.81782874 16.81222651 -28.5636037 17.11616743 -30.8125 17.8125 C-31.10878737 20.65784204 -31.10878737 20.65784204 -29.8125 23.8125 C-24.56784044 27.75487389 -17.79902835 29.57737008 -11.6875 31.8125 C-2.12810868 35.31982297 5.38049948 39.1422139 11.1875 47.8125 C14.37092791 55.09901278 14.00953776 63.22863069 11.28515625 70.578125 C7.64631829 77.98529694 1.65673885 82.59561894 -5.8125 85.8125 C-17.07246585 89.19372759 -33.31194044 88.89778088 -43.9375 83.875 C-51.81626219 79.042302 -58.05318784 72.73968639 -60.8125 63.8125 C-61.22383292 61.15238107 -61.50605002 58.48772547 -61.8125 55.8125 C-52.45123691 54.58335408 -43.27826558 53.44450047 -33.8125 53.8125 C-33.35875 54.92625 -32.905 56.04 -32.4375 57.1875 C-31.08784014 60.77449008 -31.08784014 60.77449008 -28.8125 62.8125 C-23.54377583 63.88843637 -23.54377583 63.88843637 -18.375 63.0625 C-16.50640671 61.79963894 -16.50640671 61.79963894 -15.8125 58.8125 C-17.77308195 55.27949937 -19.89494441 54.04519046 -23.6015625 52.62890625 C-25.01501953 52.07299805 -25.01501953 52.07299805 -26.45703125 51.50585938 C-27.44058594 51.13267578 -28.42414062 50.75949219 -29.4375 50.375 C-52.13992286 41.64447094 -52.13992286 41.64447094 -57.91015625 31.97265625 C-60.85682209 25.27070463 -60.93695692 17.40944841 -58.625 10.5 C-55.14901477 2.61466313 -49.28181398 -1.65071244 -41.70703125 -5.1640625 C-28.00817265 -10.20976945 -11.80554692 -8.40461122 0 0 Z " fill="#BB0000" transform="translate(725.8125,906.1875)"/>
<path d="M0 0 C7.52656222 5.30629619 12.21244007 11.73297222 14.73046875 20.609375 C14.8359375 23.41796875 14.8359375 23.41796875 14.73046875 25.609375 C11.73098484 25.94802641 8.73101949 26.28042573 5.73046875 26.609375 C4.47169922 26.75246094 4.47169922 26.75246094 3.1875 26.8984375 C-2.0009407 27.46152409 -7.05080086 27.70601816 -12.26953125 27.609375 C-12.68203125 26.495625 -13.09453125 25.381875 -13.51953125 24.234375 C-14.52121559 21.94348581 -15.10039941 20.75434515 -17.01953125 19.109375 C-20.28797754 18.3830536 -23.02132051 18.93521805 -26.26953125 19.609375 C-27.56586746 20.67582615 -27.56586746 20.67582615 -27.33203125 23.171875 C-27.31140625 23.97625 -27.29078125 24.780625 -27.26953125 25.609375 C-21.42718569 28.78334158 -15.51492067 31.30841833 -9.26953125 33.546875 C1.18093897 37.37887675 9.57934611 41.15506707 14.73046875 51.609375 C16.98823663 58.50888926 16.73380427 66.34074046 13.73046875 72.921875 C8.9204655 81.31580224 1.92819584 85.98190223 -7.26953125 88.609375 C-11.45414895 89.1442792 -15.55572094 89.17066679 -19.76953125 89.109375 C-20.83300781 89.12484375 -21.89648438 89.1403125 -22.9921875 89.15625 C-33.25071071 89.10590142 -41.28440794 86.18229516 -49.22265625 79.6796875 C-54.22507213 74.61999205 -58.20998668 68.12250481 -58.33203125 60.921875 C-58.31140625 59.82875 -58.29078125 58.735625 -58.26953125 57.609375 C-49.68578341 55.14206584 -40.13615293 55.42924047 -31.26953125 55.609375 C-30.81578125 56.723125 -30.36203125 57.836875 -29.89453125 58.984375 C-28.54487139 62.57136508 -28.54487139 62.57136508 -26.26953125 64.609375 C-21.59659182 65.45203621 -17.9007487 65.91190491 -13.26953125 64.609375 C-13.26953125 62.299375 -13.26953125 59.989375 -13.26953125 57.609375 C-16.44339233 56.33064998 -19.62737981 55.08009266 -22.81640625 53.83984375 C-24.55084742 53.15902271 -26.28522047 52.47802812 -28.01953125 51.796875 C-29.3034375 51.3009082 -29.3034375 51.3009082 -30.61328125 50.79492188 C-46.27397068 44.61369521 -46.27397068 44.61369521 -51.20703125 38.546875 C-51.75230469 37.89589844 -52.29757813 37.24492188 -52.859375 36.57421875 C-57.43500595 30.19875512 -57.991809 22.57439659 -56.76953125 14.921875 C-54.89784332 7.81710042 -49.02755532 2.79313989 -43.26953125 -1.390625 C-29.65644378 -7.69153977 -12.91394336 -7.91284653 0 0 Z " fill="#BB0000" transform="translate(294.26953125,904.390625)"/>
<path d="M0 0 C22.44 0 44.88 0 68 0 C66.76205058 3.09487354 65.57602305 5.97006007 64.08984375 8.91796875 C63.73986328 9.61470703 63.38988281 10.31144531 63.02929688 11.02929688 C62.66900391 11.74150391 62.30871094 12.45371094 61.9375 13.1875 C61.39125977 14.27321289 61.39125977 14.27321289 60.83398438 15.38085938 C59.89095009 17.25472602 58.94563115 19.1274425 58 21 C57.67 21.66 57.34 22.32 57 23 C47.1 23 37.2 23 27 23 C27 26.63 27 30.26 27 34 C38.88 34 50.76 34 63 34 C60.75 40.75 60.75 40.75 58.8359375 44.0859375 C58.4754834 44.72063965 58.1150293 45.3553418 57.74365234 46.00927734 C57.29199707 46.78996582 56.8403418 47.5706543 56.375 48.375 C54.209375 52.149375 54.209375 52.149375 52 56 C43.75 56 35.5 56 27 56 C27 59.63 27 63.26 27 67 C40.86 67 54.72 67 69 67 C67.27412849 75.62935756 62.09868622 83.21249618 58 91 C38.86 91 19.72 91 0 91 C0 60.97 0 30.94 0 0 Z " fill="#BB0000" transform="translate(161,901)"/>
<path d="M0 0 C7.693125 -0.0825 15.38625 -0.165 23.3125 -0.25 C25.71829346 -0.28641602 28.12408691 -0.32283203 30.6027832 -0.36035156 C32.54377352 -0.37205142 34.48477378 -0.38224016 36.42578125 -0.390625 C37.89597717 -0.4213208 37.89597717 -0.4213208 39.39587402 -0.45263672 C49.54414323 -0.45767746 58.23192558 2.4630656 66.05859375 9.015625 C72.32591193 15.42165646 74.99356263 23.69062213 75.25 32.5 C74.97825159 41.83535722 71.82344986 50.69995014 64.9375 57.25 C52.98434634 66.31616316 41.42958126 65.43992626 27 65 C27 73.58 27 82.16 27 91 C18.09 91 9.18 91 0 91 C0 60.97 0 30.94 0 0 Z M26 23 C26 29.27 26 35.54 26 42 C28.371875 42.0825 30.74375 42.165 33.1875 42.25 C34.29387817 42.30462402 34.29387817 42.30462402 35.42260742 42.36035156 C38.94267594 42.41929667 40.90033707 42.06027678 43.92578125 40.23046875 C46.59196777 37.36343955 46.89043464 35.74354568 47.13671875 31.96484375 C46.92745214 28.95738362 45.93641716 27.27028219 44 25 C40.37636658 22.54445547 37.03070399 22.7957277 32.75 22.875 C30.5225 22.91625 28.295 22.9575 26 23 Z " fill="#BB0000" transform="translate(319,901)"/>
<path d="M0 0 C27.06 0 54.12 0 82 0 C82 9.24 82 18.48 82 28 C73.42 28 64.84 28 56 28 C56 49.12 56 70.24 56 92 C45.77 92 35.54 92 25 92 C25 70.88 25 49.76 25 28 C16.75 28 8.5 28 0 28 C0 18.76 0 9.52 0 0 Z " fill="#BB0000" transform="translate(315,0)"/>
<path d="M0 0 C25.74 0 51.48 0 78 0 C78 8.58 78 17.16 78 26 C69.75 26 61.5 26 53 26 C53 47.45 53 68.9 53 91 C44.09 91 35.18 91 26 91 C26 69.55 26 48.1 26 26 C17.75 26 9.5 26 1 26 C0.67 25.67 0.34 25.34 0 25 C0 16.75 0 8.5 0 0 Z " fill="#BB0000" transform="translate(584,901)"/>
</svg>
