<?xml version="1.0" encoding="UTF-8"?>
<svg version="1.1" xmlns="http://www.w3.org/2000/svg" width="63" height="75">
<path d="M0 0 C5.4667514 0.16565913 8.58716905 0.99636613 12.75390625 4.62890625 C12.75390625 5.28890625 12.75390625 5.94890625 12.75390625 6.62890625 C19.68390625 6.62890625 26.61390625 6.62890625 33.75390625 6.62890625 C34.83348091 12.02677955 34.89395754 16.81114194 34.77783203 22.2890625 C34.7490723 25.10164718 34.8020114 27.91024942 34.84375 30.72265625 C34.88149796 47.72433676 34.88149796 47.72433676 31.71875 53.06640625 C29.25390625 55.37890625 29.25390625 55.37890625 26.78515625 57.05078125 C24.50261076 58.50477082 24.50261076 58.50477082 23.97265625 61.33203125 C23.90046875 62.09 23.82828125 62.84796875 23.75390625 63.62890625 C23.09390625 63.62890625 22.43390625 63.62890625 21.75390625 63.62890625 C21.42390625 64.61890625 21.09390625 65.60890625 20.75390625 66.62890625 C20.20605469 66.36207031 19.65820312 66.09523438 19.09375 65.8203125 C16.50299357 65.33942659 16.50299357 65.33942659 14.1328125 67.71875 C13.18216323 68.65610348 12.24370374 69.60594544 11.31640625 70.56640625 C6.4951864 75.44126971 6.4951864 75.44126971 3.25390625 76.26171875 C-0.92952701 75.20278721 -3.30157247 72.12732375 -6.22851562 69.09570312 C-7.7672692 67.53024549 -7.7672692 67.53024549 -10.24609375 65.62890625 C-12.54090966 65.67407209 -12.54090966 65.67407209 -14.24609375 66.62890625 C-14.57609375 65.63890625 -14.90609375 64.64890625 -15.24609375 63.62890625 C-16.23609375 63.29890625 -17.22609375 62.96890625 -18.24609375 62.62890625 C-18.32859375 61.87714111 -18.41109375 61.12537598 -18.49609375 60.35083008 C-19.41176298 57.02765423 -20.58478458 56.19618256 -23.24609375 54.078125 C-26.72478578 50.76327315 -27.84868283 48.63358764 -28.24609375 43.8359375 C-28.28617258 41.70480392 -28.28480138 39.57256518 -28.24609375 37.44140625 C-28.25624512 36.33313477 -28.26639648 35.22486328 -28.27685547 34.08300781 C-28.29953811 30.93058366 -28.27457352 27.78119479 -28.24609375 24.62890625 C-28.26360251 23.17960375 -28.28603293 21.73033998 -28.31640625 20.28125 C-28.39259297 15.54134756 -28.29672617 11.26503024 -27.24609375 6.62890625 C-26.37658081 6.62274292 -26.37658081 6.62274292 -25.48950195 6.61645508 C-22.84485266 6.58341348 -20.20247536 6.51276361 -17.55859375 6.44140625 C-16.19057617 6.43270508 -16.19057617 6.43270508 -14.79492188 6.42382812 C-9.06045743 6.27360066 -9.06045743 6.27360066 -4.37890625 3.11328125 C-2.24609375 0.62890625 -2.24609375 0.62890625 0 0 Z " fill="#20272D" transform="translate(28.24609375,-0.62890625)"/>
<path d="M0 0 C3.54530533 1.8158881 6.15794519 3.41284063 8 7 C8.42194635 9.855363 8.27988888 12.06116675 8 15 C7.01 15.99 6.02 16.98 5 18 C11.93 18.495 11.93 18.495 19 19 C16.81915421 22.27126868 16.18713893 22.59023384 12.625 23.75 C11.85414062 24.01296875 11.08328125 24.2759375 10.2890625 24.546875 C7.75868273 25.04776929 6.4266824 24.78756427 4 24 C-1.1059176 22.84775029 -1.1059176 22.84775029 -5.9375 24.4375 C-6.618125 24.953125 -7.29875 25.46875 -8 26 C-8 25.34 -8 24.68 -8 24 C-9.65 24 -11.3 24 -13 24 C-13 24.66 -13 25.32 -13 26 C-13.66 26 -14.32 26 -15 26 C-15 25.01 -15 24.02 -15 23 C-15.94875 22.855625 -16.8975 22.71125 -17.875 22.5625 C-21 22 -21 22 -23 21 C-23 25.62 -23 30.24 -23 35 C-23.33 35 -23.66 35 -24 35 C-24 30.38 -24 25.76 -24 21 C-25.32 21 -26.64 21 -28 21 C-29.43736768 35.94179438 -29.43736768 35.94179438 -24.09765625 49.2421875 C-21.21326094 52.0780989 -18.05364614 54.49258729 -14.72802734 56.78808594 C-12.40725711 58.41570722 -10.34123628 60.27794229 -8.25 62.1875 C-7.36054687 62.95126953 -7.36054687 62.95126953 -6.453125 63.73046875 C-5.25939375 64.77337911 -4.12086045 65.87913955 -3 67 C0.28288776 66.88679697 1.30354487 65.71715137 3.75 63.4375 C4.4925 62.633125 5.235 61.82875 6 61 C6.99 61.33 7.98 61.66 9 62 C5.7 64.97 2.4 67.94 -1 71 C-4.44599867 68.9324008 -6.72217295 67.53101948 -9.48828125 64.890625 C-10.10880371 64.30369873 -10.72932617 63.71677246 -11.36865234 63.11206055 C-12.01012207 62.49758057 -12.6515918 61.88310059 -13.3125 61.25 C-14.64365267 59.98995661 -15.97567607 58.73083241 -17.30859375 57.47265625 C-17.94394043 56.87211426 -18.57928711 56.27157227 -19.23388672 55.65283203 C-21.98775028 53.07560556 -24.81945536 50.59453727 -27.6796875 48.13671875 C-29 47 -29 47 -30 46 C-30.15996166 43.40846893 -30.25938697 40.8404798 -30.31640625 38.24609375 C-30.33718735 37.47064713 -30.35796844 36.6952005 -30.37937927 35.89625549 C-30.44495802 33.41009692 -30.50379799 30.92382955 -30.5625 28.4375 C-30.60567733 26.75584796 -30.64929136 25.07420706 -30.69335938 23.39257812 C-30.80064779 19.26183129 -30.90189132 15.13097464 -31 11 C-30.34 11 -29.68 11 -29 11 C-28.67 9.68 -28.34 8.36 -28 7 C-28 7.99 -28 8.98 -28 10 C-22.39 10 -16.78 10 -11 10 C-10.67 8.35 -10.34 6.7 -10 5 C-9.03788628 2.40969383 -8.39884895 1.27919426 -6.125 -0.3125 C-3.52347327 -1.15417041 -2.53216764 -0.99752059 0 0 Z " fill="#1B242B" transform="translate(33,2)"/>
<path d="M0 0 C5.4667514 0.16565913 8.58716905 0.99636613 12.75390625 4.62890625 C12.75390625 5.28890625 12.75390625 5.94890625 12.75390625 6.62890625 C19.68390625 6.62890625 26.61390625 6.62890625 33.75390625 6.62890625 C34.83348091 12.02677955 34.89395754 16.81114194 34.77783203 22.2890625 C34.7490723 25.10164718 34.8020114 27.91024942 34.84375 30.72265625 C34.88149796 47.72433676 34.88149796 47.72433676 31.71875 53.06640625 C29.25390625 55.37890625 29.25390625 55.37890625 26.78515625 57.05078125 C24.50261076 58.50477082 24.50261076 58.50477082 23.97265625 61.33203125 C23.90046875 62.09 23.82828125 62.84796875 23.75390625 63.62890625 C23.09390625 63.62890625 22.43390625 63.62890625 21.75390625 63.62890625 C21.42390625 64.61890625 21.09390625 65.60890625 20.75390625 66.62890625 C20.20605469 66.36207031 19.65820312 66.09523438 19.09375 65.8203125 C16.50299357 65.33942659 16.50299357 65.33942659 14.1328125 67.71875 C13.18216323 68.65610348 12.24370374 69.60594544 11.31640625 70.56640625 C6.4951864 75.44126971 6.4951864 75.44126971 3.25390625 76.26171875 C-0.92952701 75.20278721 -3.30157247 72.12732375 -6.22851562 69.09570312 C-7.7672692 67.53024549 -7.7672692 67.53024549 -10.24609375 65.62890625 C-12.54090966 65.67407209 -12.54090966 65.67407209 -14.24609375 66.62890625 C-14.57609375 65.63890625 -14.90609375 64.64890625 -15.24609375 63.62890625 C-16.23609375 63.29890625 -17.22609375 62.96890625 -18.24609375 62.62890625 C-18.32859375 61.87714111 -18.41109375 61.12537598 -18.49609375 60.35083008 C-19.41176298 57.02765423 -20.58478458 56.19618256 -23.24609375 54.078125 C-26.72478578 50.76327315 -27.84868283 48.63358764 -28.24609375 43.8359375 C-28.28617258 41.70480392 -28.28480138 39.57256518 -28.24609375 37.44140625 C-28.25624512 36.33313477 -28.26639648 35.22486328 -28.27685547 34.08300781 C-28.29953811 30.93058366 -28.27457352 27.78119479 -28.24609375 24.62890625 C-28.26360251 23.17960375 -28.28603293 21.73033998 -28.31640625 20.28125 C-28.39259297 15.54134756 -28.29672617 11.26503024 -27.24609375 6.62890625 C-26.37658081 6.62274292 -26.37658081 6.62274292 -25.48950195 6.61645508 C-22.84485266 6.58341348 -20.20247536 6.51276361 -17.55859375 6.44140625 C-16.19057617 6.43270508 -16.19057617 6.43270508 -14.79492188 6.42382812 C-9.06045743 6.27360066 -9.06045743 6.27360066 -4.37890625 3.11328125 C-2.24609375 0.62890625 -2.24609375 0.62890625 0 0 Z M-4.24609375 4.62890625 C-6.28281004 7.63548743 -6.24609375 8.81987221 -6.24609375 12.62890625 C-11.85609375 12.62890625 -17.46609375 12.62890625 -23.24609375 12.62890625 C-23.57609375 11.63890625 -23.90609375 10.64890625 -24.24609375 9.62890625 C-24.24609375 10.94890625 -24.24609375 12.26890625 -24.24609375 13.62890625 C-24.90609375 13.62890625 -25.56609375 13.62890625 -26.24609375 13.62890625 C-26.27629756 18.48636689 -26.26051291 23.34077806 -26.20336914 28.19799805 C-26.19028535 29.84768588 -26.18944387 31.49752053 -26.20141602 33.1472168 C-26.54695689 42.51517053 -26.54695689 42.51517053 -23.75732422 51.19555664 C-22.01522708 52.94900823 -20.31852843 54.29265931 -18.24609375 55.62890625 C-17.570625 56.24378906 -16.89515625 56.85867187 -16.19921875 57.4921875 C-15.35617187 58.20955078 -15.35617187 58.20955078 -14.49609375 58.94140625 C-10.11093187 62.70869797 -5.88891096 66.64506282 -1.6640625 70.58984375 C0.65670474 72.80197323 0.65670474 72.80197323 3.75390625 73.62890625 C4.45515625 72.98824219 5.15640625 72.34757812 5.87890625 71.6875 C14.58698242 63.74847947 14.58698242 63.74847947 18.87890625 60.00390625 C19.46164307 59.47595459 20.04437988 58.94800293 20.64477539 58.40405273 C22.75390625 56.62890625 22.75390625 56.62890625 25.0637207 55.18212891 C28.35121879 52.90452472 31.15876404 50.77657187 32.26843262 46.77215576 C33.06156369 41.41639067 32.91298306 36.02749605 32.81640625 30.62890625 C32.81948475 28.979154 32.82660911 27.32940405 32.83789062 25.6796875 C32.85662708 21.66127173 32.82034102 17.64677971 32.75390625 13.62890625 C32.09390625 13.62890625 31.43390625 13.62890625 30.75390625 13.62890625 C30.25890625 11.64890625 30.25890625 11.64890625 29.75390625 9.62890625 C29.75390625 10.61890625 29.75390625 11.60890625 29.75390625 12.62890625 C24.14390625 12.62890625 18.53390625 12.62890625 12.75390625 12.62890625 C12.25890625 10.15390625 12.25890625 10.15390625 11.75390625 7.62890625 C9.42604079 4.81941345 7.16365917 2.94881061 3.75390625 1.62890625 C0.10038762 1.62890625 -1.30636151 2.51832926 -4.24609375 4.62890625 Z " fill="#AAB6B8" transform="translate(28.24609375,-0.62890625)"/>
<path d="M0 0 C1.32 0 2.64 0 4 0 C3.96745117 0.60884033 3.93490234 1.21768066 3.90136719 1.8449707 C2.93533314 14.44598568 2.93533314 14.44598568 7.45703125 25.6640625 C10.36334827 28.49994341 13.64935684 30.72056618 17 33 C18.51859397 34.39671644 20.02164029 35.81076513 21.5 37.25 C23.17288654 38.97125668 23.17288654 38.97125668 25 40 C28.65388156 39.58257842 30.45123408 37.94973998 33.0390625 35.4375 C33.78414062 34.72335938 34.52921875 34.00921875 35.296875 33.2734375 C36.06515625 32.52320313 36.8334375 31.77296875 37.625 31 C39.156992 29.51890475 40.69075987 28.0396435 42.2265625 26.5625 C42.90283691 25.90378906 43.57911133 25.24507812 44.27587891 24.56640625 C46 23 46 23 48 22 C48.33 14.74 48.66 7.48 49 0 C50.32 0 51.64 0 53 0 C55.37454011 19.76104454 55.37454011 19.76104454 51.65673828 26.39794922 C48.26197678 30.48847738 44.17518025 33.64466674 39.84228516 36.68994141 C37.46757101 38.37861303 35.33592618 40.28492744 33.1875 42.25 C32.60355469 42.75015625 32.01960938 43.2503125 31.41796875 43.765625 C30.23487906 44.79553228 29.10914612 45.89085388 28 47 C24.59191774 46.68135816 23.01970031 45.33200568 20.75 42.875 C18.29601563 40.31136952 15.80743045 37.88691683 13.125 35.5625 C12.46757812 34.964375 11.81015625 34.36625 11.1328125 33.75 C9.03468468 31.91870133 9.03468468 31.91870133 6.4921875 30.625 C3.2789931 28.61045806 1.85346068 27.36648981 0 24 C-1.14584191 16.07924263 -0.54724295 7.95513516 0 0 Z " fill="#A5AEB1" transform="translate(5,23)"/>
<path d="M0 0 C2.64 0.66 5.28 1.32 8 2 C8 2.99 8 3.98 8 5 C9.98 4.67 11.96 4.34 14 4 C14 5.65 14 7.3 14 9 C17.36327963 8.43945339 19.99112219 7.58158962 23 6 C24.67262717 7.61886415 26.33795537 9.2452729 28 10.875 C28.928125 11.77992187 29.85625 12.68484375 30.8125 13.6171875 C33 16 33 16 33 18 C29.56404834 16.47291037 26.88087546 14.40072955 24 12 C24.433125 12.48210938 24.86625 12.96421875 25.3125 13.4609375 C25.869375 14.09257813 26.42625 14.72421875 27 15.375 C27.556875 16.00148438 28.11375 16.62796875 28.6875 17.2734375 C30 19 30 19 30 21 C27.50638429 19.79618552 25.31856917 18.54571278 23 17 C23.66 17.61875 24.32 18.2375 25 18.875 C27 21 27 21 27 23 C26.01 22.67 25.02 22.34 24 22 C23.67 22.66 23.34 23.32 23 24 C23.66 24 24.32 24 25 24 C25 24.99 25 25.98 25 27 C22.6568787 26.74438677 20.32156597 26.40729228 18 26 C17.67 25.34 17.34 24.68 17 24 C16.01 24 15.02 24 14 24 C14 23.34 14 22.68 14 22 C13.01 21.67 12.02 21.34 11 21 C11 20.34 11 19.68 11 19 C10.34 19 9.68 19 9 19 C9.3125 17.125 9.3125 17.125 10 15 C10.99 14.34 11.98 13.68 13 13 C13.33 13.66 13.66 14.32 14 15 C15.64363134 15.72159424 17.31050386 16.39351421 19 17 C18.67 16.34 18.34 15.68 18 15 C17.01 14.67 16.02 14.34 15 14 C15 13.34 15 12.68 15 12 C12.08482708 13.07401108 10.22189824 13.77810176 8 16 C7.01 16 6.02 16 5 16 C4.67 15.34 4.34 14.68 4 14 C2.68 13.67 1.36 13.34 0 13 C0 8.71 0 4.42 0 0 Z " fill="#EAEDED" transform="translate(10,23)"/>
<path d="M0 0 C0 1.32 0 2.64 0 4 C0.99 4.33 1.98 4.66 3 5 C3.3125 7.75 3.3125 7.75 3 11 C-0.14760197 14.63941478 -2.92962741 15.3268978 -7.6015625 15.83227539 C-12.23194492 16.15608165 -16.86087641 16.10207258 -21.5 16.0625 C-22.51320313 16.05798828 -23.52640625 16.05347656 -24.5703125 16.04882812 C-27.04693827 16.03714593 -29.52343657 16.02076582 -32 16 C-32 13.69 -32 11.38 -32 9 C-26.06 9 -20.12 9 -14 9 C-13.67 9.99 -13.34 10.98 -13 12 C-12.34 12.33 -11.68 12.66 -11 13 C-11.01160156 12.39671875 -11.02320312 11.7934375 -11.03515625 11.171875 C-11.04417969 10.37265625 -11.05320312 9.5734375 -11.0625 8.75 C-11.07410156 7.96109375 -11.08570312 7.1721875 -11.09765625 6.359375 C-11.00270397 4.06532803 -10.73093122 2.17380844 -10 0 C-6.46408959 -2.88111219 -3.9536831 -1.61741581 0 0 Z " fill="#4D5459" transform="translate(36,5)"/>
<path d="M0 0 C0.66 0 1.32 0 2 0 C1.92136719 1.30453125 1.84273438 2.6090625 1.76171875 3.953125 C1.25820397 14.5410904 1.25820397 14.5410904 5.6796875 23.75390625 C8.37504351 26.37646915 11.31616993 28.6326185 14.37890625 30.80859375 C16.62213505 32.45723179 18.56640785 34.37689549 20.5625 36.3125 C22.20656024 38.00618653 22.20656024 38.00618653 24 39 C27.63679459 38.57591471 29.42539713 36.97513598 32.00390625 34.47265625 C32.74447266 33.76302734 33.48503906 33.05339844 34.24804688 32.32226562 C35.39370117 31.20368164 35.39370117 31.20368164 36.5625 30.0625 C38.08285445 28.59320699 39.60491951 27.12568142 41.12890625 25.66015625 C41.79994385 25.00668213 42.47098145 24.35320801 43.16235352 23.67993164 C45 22 45 22 48 20 C48.50702517 17.87893205 48.50702517 17.87893205 48.51171875 15.4296875 C48.54716797 14.53378906 48.58261719 13.63789062 48.61914062 12.71484375 C48.64169922 11.77769531 48.66425781 10.84054688 48.6875 9.875 C48.72166016 8.93011719 48.75582031 7.98523438 48.79101562 7.01171875 C48.87364112 4.67459747 48.94273988 2.33785809 49 0 C49.66 0 50.32 0 51 0 C52.79174982 19.26318999 52.79174982 19.26318999 49.0078125 25.04296875 C46.3125 27.125 46.3125 27.125 43.296875 28.96875 C38.71555032 31.7913671 35.19303769 35.47960324 31.41723633 39.28173828 C29.84765625 40.7890625 29.84765625 40.7890625 27 43 C23.66491681 42.69891898 21.95740675 41.34204964 19.609375 39.05078125 C18.98160156 38.44943359 18.35382812 37.84808594 17.70703125 37.22851562 C17.06121094 36.59623047 16.41539063 35.96394531 15.75 35.3125 C14.4778209 34.07544241 13.20177433 32.84234954 11.921875 31.61328125 C10.97054688 30.68950684 10.97054688 30.68950684 10 29.74707031 C7.95923243 27.96438809 5.85266997 26.66743216 3.546875 25.25390625 C1.01470546 23.4066324 0.13535412 22.54346253 -0.62988281 19.47094727 C-0.78755339 16.48207254 -0.70034031 13.61084109 -0.5 10.625 C-0.46390625 9.60277344 -0.4278125 8.58054687 -0.390625 7.52734375 C-0.29668081 5.01433677 -0.16553566 2.50913861 0 0 Z " fill="#ECEFEF" transform="translate(6,24)"/>
<path d="M0 0 C0.33 0 0.66 0 1 0 C1.71369183 5.36199125 2.0514197 10.51063976 1.75390625 15.91796875 C1.0050958 28.63692438 1.0050958 28.63692438 6.34375 39.71484375 C9.60449497 42.95623252 13.13382383 45.75680741 16.87158203 48.42675781 C19.80679144 50.59634825 22.46879062 53.03139693 25.15600586 55.49755859 C27.22325932 57.29351868 27.22325932 57.29351868 31 59 C34.63 55.7 38.26 52.4 42 49 C42.99 49.33 43.98 49.66 45 50 C42.63086495 53.2575607 40.00451947 56.07625505 37.0625 58.8125 C36.41410156 59.41707031 35.76570313 60.02164063 35.09765625 60.64453125 C32.38473027 62.39757653 31.17640005 62.63145302 28 62 C25.48043355 59.96647758 23.26388754 57.79344197 21.01757812 55.46679688 C19.47882455 53.90133924 19.47882455 53.90133924 17 52 C14.70518409 52.04516584 14.70518409 52.04516584 13 53 C12.505 51.515 12.505 51.515 12 50 C11.01 49.67 10.02 49.34 9 49 C8.91741943 48.24734863 8.83483887 47.49469727 8.74975586 46.71923828 C7.83409216 43.39828021 6.67274027 42.59494135 4.00390625 40.4921875 C0.41696332 37.07582256 -0.62014353 34.81927961 -1.03515625 29.8828125 C-1.0838858 27.63071702 -1.09210334 25.37742808 -1.0625 23.125 C-1.08248047 22.00480469 -1.10246094 20.88460937 -1.12304688 19.73046875 C-1.19660605 13.09465642 -0.82590614 6.5830399 0 0 Z " fill="#A1ABAE" transform="translate(1,13)"/>
<path d="M0 0 C0.99 0.33 1.98 0.66 3 1 C2.67 1.66 2.34 2.32 2 3 C8.93 3.495 8.93 3.495 16 4 C13.81915421 7.27126868 13.18713893 7.59023384 9.625 8.75 C8.85414062 9.01296875 8.08328125 9.2759375 7.2890625 9.546875 C4.75868273 10.04776929 3.4266824 9.78756427 1 9 C-4.1059176 7.84775029 -4.1059176 7.84775029 -8.9375 9.4375 C-9.618125 9.953125 -10.29875 10.46875 -11 11 C-11 10.34 -11 9.68 -11 9 C-12.65 9 -14.3 9 -16 9 C-16 9.66 -16 10.32 -16 11 C-16.66 11 -17.32 11 -18 11 C-18 10.01 -18 9.02 -18 8 C-18.94875 7.855625 -19.8975 7.71125 -20.875 7.5625 C-24 7 -24 7 -26 6 C-26 10.62 -26 15.24 -26 20 C-26.33 20 -26.66 20 -27 20 C-27 14.72 -27 9.44 -27 4 C-24.32777344 3.81824219 -24.32777344 3.81824219 -21.6015625 3.6328125 C-19.27600674 3.46402216 -16.95048772 3.29472514 -14.625 3.125 C-12.8615625 3.00705078 -12.8615625 3.00705078 -11.0625 2.88671875 C-9.38027344 2.76103516 -9.38027344 2.76103516 -7.6640625 2.6328125 C-6.10872803 2.52283936 -6.10872803 2.52283936 -4.52197266 2.41064453 C-1.83585452 2.22537201 -1.83585452 2.22537201 0 0 Z " fill="#181F25" transform="translate(36,17)"/>
<path d="M0 0 C6.27 0 12.54 0 19 0 C19 2.31 19 4.62 19 7 C11.41 7 3.82 7 -4 7 C-2.68 4.69 -1.36 2.38 0 0 Z " fill="#1B8CA2" transform="translate(41,14)"/>
<path d="M0 0 C2.93902349 -0.13481759 5.87189559 -0.23399416 8.8125 -0.3125 C10.06256836 -0.3753418 10.06256836 -0.3753418 11.33789062 -0.43945312 C13.65851795 -0.48605207 15.7269737 -0.47548292 18 0 C20.10715614 2.43255501 21 3.77575232 21 7 C14.07 7 7.14 7 0 7 C0 4.69 0 2.38 0 0 Z " fill="#1699BA" transform="translate(4,14)"/>
<path d="M0 0 C0.33 0 0.66 0 1 0 C0.95697754 0.62865967 0.91395508 1.25731934 0.86962891 1.9050293 C-0.20383936 15.32501546 -0.20383936 15.32501546 4.90234375 27.17578125 C7.7951777 30.0136123 10.95584149 32.44938716 14.27197266 34.77197266 C16.5834026 36.41459665 18.65585252 38.27915488 20.75 40.1875 C21.63945313 40.95126953 21.63945313 40.95126953 22.546875 41.73046875 C23.74060625 42.77337911 24.87913955 43.87913955 26 45 C29.28288776 44.88679697 30.30354487 43.71715137 32.75 41.4375 C33.4925 40.633125 34.235 39.82875 35 39 C35.99 39.33 36.98 39.66 38 40 C34.7 42.97 31.4 45.94 28 49 C24.55400133 46.9324008 22.27782705 45.53101948 19.51171875 42.890625 C18.88716797 42.30023438 18.26261719 41.70984375 17.61914062 41.1015625 C16.98169922 40.49054688 16.34425781 39.87953125 15.6875 39.25 C14.42180978 38.04557388 13.1548787 36.84245043 11.88671875 35.640625 C11.25878418 35.03033447 10.63084961 34.42004395 9.98388672 33.79125977 C8.02779438 31.94870953 8.02779438 31.94870953 5.75439453 30.44116211 C2.31858736 27.96879699 0.29334314 26.34680986 -0.63012695 22.10693359 C-0.78702179 18.72317581 -0.69990395 15.44356777 -0.5 12.0625 C-0.46390625 10.90169922 -0.4278125 9.74089844 -0.390625 8.54492188 C-0.29674037 5.69317612 -0.16558219 2.84833205 0 0 Z " fill="#21292F" transform="translate(4,24)"/>
<path d="M0 0 C9.53498294 2.06591297 9.53498294 2.06591297 12.75 6.6875 C13.80254326 9.97669769 13.7992518 11.56935807 12.75 14.8125 C11.43 14.1525 10.11 13.4925 8.75 12.8125 C8.75 11.8225 8.75 10.8325 8.75 9.8125 C7.9146875 9.7196875 7.9146875 9.7196875 7.0625 9.625 C4.75 8.8125 4.75 8.8125 2.25 6.1875 C1.425 5.40375 0.6 4.62 -0.25 3.8125 C-2.36149645 3.73607291 -2.36149645 3.73607291 -4.25 4.8125 C-5.36375 5.3384375 -5.36375 5.3384375 -6.5 5.875 C-7.0775 6.184375 -7.655 6.49375 -8.25 6.8125 C-6.63227301 2.08375957 -5.46004201 -0.31500242 0 0 Z " fill="#EBEEEE" transform="translate(33.25,24.1875)"/>
<path d="M0 0 C2.64 0.66 5.28 1.32 8 2 C8.73790757 4.86964055 9.0506599 6.75795825 8.4375 9.6875 C8.293125 10.450625 8.14875 11.21375 8 12 C8.66 12.66 9.32 13.32 10 14 C9.34 14.66 8.68 15.32 8 16 C7.01 16 6.02 16 5 16 C4.67 15.34 4.34 14.68 4 14 C2.68 13.67 1.36 13.34 0 13 C0 8.71 0 4.42 0 0 Z " fill="#515A5E" transform="translate(10,23)"/>
<path d="M0 0 C1.0828125 0.680625 1.0828125 0.680625 2.1875 1.375 C4.89463419 3.08569846 4.89463419 3.08569846 7.75 3.8125 C8.4925 4.204375 9.235 4.59625 10 5 C10.8125 8.125 10.8125 8.125 11 11 C11.66 11 12.32 11 13 11 C13 11.99 13 12.98 13 14 C10.6568787 13.74438677 8.32156597 13.40729228 6 13 C5.67 12.34 5.34 11.68 5 11 C4.01 11 3.02 11 2 11 C2 10.34 2 9.68 2 9 C1.01 8.67 0.02 8.34 -1 8 C-1 7.34 -1 6.68 -1 6 C-1.66 6 -2.32 6 -3 6 C-2.42655063 3.13275314 -2.1385485 2.1385485 0 0 Z " fill="#3A4046" transform="translate(22,36)"/>
<path d="M0 0 C0.33 0.99 0.66 1.98 1 3 C6.61 3 12.22 3 18 3 C18 3.66 18 4.32 18 5 C12.06 5 6.12 5 0 5 C0 7.31 0 9.62 0 12 C1.65 12 3.3 12 5 12 C5 12.66 5 13.32 5 14 C3.68 14.33 2.36 14.66 1 15 C0.67 22.92 0.34 30.84 0 39 C-0.33 39 -0.66 39 -1 39 C-1.495 21.675 -1.495 21.675 -2 4 C-1.34 4 -0.68 4 0 4 C0 2.68 0 1.36 0 0 Z " fill="#2F3C42" transform="translate(4,9)"/>
<path d="M0 0 C0.99 0.33 1.98 0.66 3 1 C0.63086495 4.2575607 -1.99548053 7.07625505 -4.9375 9.8125 C-5.58589844 10.41707031 -6.23429687 11.02164063 -6.90234375 11.64453125 C-9.64252384 13.41518766 -10.78893668 13.66026302 -14 13 C-16.29689213 11.22473582 -18.26602041 9.5241001 -20.3125 7.5 C-21.13717773 6.71302734 -21.13717773 6.71302734 -21.97851562 5.91015625 C-23.32963171 4.61778434 -24.66628217 3.31031927 -26 2 C-25.01 1.67 -24.02 1.34 -23 1 C-21.09765625 2.36328125 -21.09765625 2.36328125 -19.0625 4.3125 C-16.32720826 6.91076363 -14.47217644 8.26391178 -11 10 C-7.37 6.7 -3.74 3.4 0 0 Z " fill="#727F83" transform="translate(43,62)"/>
<path d="M0 0 C-0.33 2.97 -0.66 5.94 -1 9 C-0.34 9 0.32 9 1 9 C1 6.69 1 4.38 1 2 C1.99 2.33 2.98 2.66 4 3 C4 3.99 4 4.98 4 6 C4.66 6 5.32 6 6 6 C5.67 4.02 5.34 2.04 5 0 C5.99 0.33 6.98 0.66 8 1 C8.48 6.4 8.48 6.4 6.5 8.875 C2.83822032 10.52280086 0.00145326 10.26239038 -4 10 C-5 9 -5 9 -5.09765625 7.15234375 C-5.06510417 5.1015625 -5.03255208 3.05078125 -5 1 C-2 0 -2 0 0 0 Z " fill="#BDC1C2" transform="translate(31,9)"/>
<path d="M0 0 C6.6 0 13.2 0 20 0 C20.33 1.65 20.66 3.3 21 5 C20.01 4.67 19.02 4.34 18 4 C16.66474283 3.92026524 15.32587917 3.89228662 13.98828125 3.90234375 C13.23095703 3.90556641 12.47363281 3.90878906 11.69335938 3.91210938 C10.51483398 3.92467773 10.51483398 3.92467773 9.3125 3.9375 C8.51521484 3.94201172 7.71792969 3.94652344 6.89648438 3.95117188 C4.93095743 3.9629415 2.96546915 3.98087652 1 4 C0.67 2.68 0.34 1.36 0 0 Z " fill="#82888A" transform="translate(40,8)"/>
<path d="M0 0 C0.33 0 0.66 0 1 0 C3.37318664 20.66497907 3.37318664 20.66497907 -0.39160156 27.54199219 C-4.70697822 32.89876553 -10.2779108 37.94905717 -16.98828125 39.84375 C-17.65214844 39.8953125 -18.31601562 39.946875 -19 40 C-16.37627976 37.22832561 -13.86610958 34.83519464 -10.703125 32.6953125 C-5.94506242 29.27010313 -1.76707448 26.10835686 -0.30810547 20.19628906 C0.50531324 13.47471439 0.40232692 6.74948447 0 0 Z " fill="#32393F" transform="translate(59,23)"/>
<path d="M0 0 C6.27 0 12.54 0 19 0 C19 1.32 19 2.64 19 4 C17.79601562 3.98839844 16.59203125 3.97679687 15.3515625 3.96484375 C13.77604321 3.95546566 12.20052225 3.94636548 10.625 3.9375 C9.8309375 3.92912109 9.036875 3.92074219 8.21875 3.91210938 C3.97607778 3.76959849 3.97607778 3.76959849 0 5 C0 3.35 0 1.7 0 0 Z " fill="#83898C" transform="translate(3,8)"/>
<path d="M0 0 C0.33 0 0.66 0 1 0 C1.98089538 8.13867004 1.97929719 16.00965172 1.5625 24.1875 C1.51029297 25.33025391 1.45808594 26.47300781 1.40429688 27.65039062 C1.27618196 30.43397839 1.14131009 33.21705629 1 36 C-0.32 36.66 -1.64 37.32 -3 38 C-2.67 37.01 -2.34 36.02 -2 35 C-1.86227351 33.19943913 -1.77523409 31.39478075 -1.71875 29.58984375 C-1.68136719 28.51669922 -1.64398438 27.44355469 -1.60546875 26.33789062 C-1.57066406 25.21576172 -1.53585938 24.09363281 -1.5 22.9375 C-1.25571776 15.25165679 -0.88718332 7.64118933 0 0 Z " fill="#9FA9AC" transform="translate(61,13)"/>
<path d="M0 0 C5.61 0 11.22 0 17 0 C17 1.65 17 3.3 17 5 C10.73 5 4.46 5 -2 5 C-2 4.34 -2 3.68 -2 3 C1.3111013 1.89629957 3.24748949 2.07326359 6.6875 2.4375 C7.68136719 2.53933594 8.67523438 2.64117188 9.69921875 2.74609375 C10.45847656 2.82988281 11.21773437 2.91367187 12 3 C12 2.34 12 1.68 12 1 C8.04 1 4.08 1 0 1 C0 0.67 0 0.34 0 0 Z " fill="#1ABFE8" transform="translate(42,15)"/>
<path d="M0 0 C1.65 0 3.3 0 5 0 C5.33 0.99 5.66 1.98 6 3 C5.67 3.66 5.34 4.32 5 5 C5.7425 4.319375 6.485 3.63875 7.25 2.9375 C10 1 10 1 12 0.9375 C14.84843127 2.45072911 16.75982702 4.70238669 19 7 C19.99 7.33 20.98 7.66 22 8 C23.95542188 10.98459129 24 12.26414791 24 16 C23.01 15.67 22.02 15.34 21 15 C21.66 15 22.32 15 23 15 C21.89718873 13.72799029 20.79269231 12.45744147 19.6875 11.1875 C18.76517578 10.12595703 18.76517578 10.12595703 17.82421875 9.04296875 C16.26665665 7.29863261 14.67341125 5.63221959 13 4 C12.443125 4.309375 11.88625 4.61875 11.3125 4.9375 C8.87459567 6.05761821 6.63775814 6.56037364 4 7 C3.896875 6.21625 3.79375 5.4325 3.6875 4.625 C3.22404978 1.66954819 3.22404978 1.66954819 0 0 Z " fill="#353C42" transform="translate(20,26)"/>
<path d="M0 0 C0 4.62 0 9.24 0 14 C-0.99 14 -1.98 14 -3 14 C-3.6708712 12.3767313 -4.33657029 10.75132422 -5 9.125 C-5.37125 8.22007813 -5.7425 7.31515625 -6.125 6.3828125 C-7 4 -7 4 -7 2 C-2.25 0 -2.25 0 0 0 Z " fill="#D5DBDC" transform="translate(52,23)"/>
<path d="M0 0 C1.32 0 2.64 0 4 0 C4 6.93 4 13.86 4 21 C3.67 21 3.34 21 3 21 C3 14.4 3 7.8 3 1 C2.34 1 1.68 1 1 1 C1 8.26 1 15.52 1 23 C2.32 23.66 3.64 24.32 5 25 C5.75 27.125 5.75 27.125 6 29 C3.27860224 27.41787506 1.80832084 26.50248271 0 24 C-0.76619968 19.87959878 -0.56524262 15.86064269 -0.375 11.6875 C-0.34792969 10.56537109 -0.32085938 9.44324219 -0.29296875 8.28710938 C-0.22239001 5.52277541 -0.12384488 2.76237585 0 0 Z " fill="#9DA4A6" transform="translate(5,23)"/>
<path d="M0 0 C0.66 0 1.32 0 2 0 C2 7.26 2 14.52 2 22 C0.68 22.33 -0.64 22.66 -2 23 C-1.505 21.515 -1.505 21.515 -1 20 C-0.8535286 18.44733347 -0.75305926 16.89004338 -0.68359375 15.33203125 C-0.64169922 14.43935547 -0.59980469 13.54667969 -0.55664062 12.62695312 C-0.51732422 11.69818359 -0.47800781 10.76941406 -0.4375 9.8125 C-0.37272461 8.40194336 -0.37272461 8.40194336 -0.30664062 6.96289062 C-0.20061335 4.64207146 -0.09854971 2.32114675 0 0 Z " fill="#F6FBFA" transform="translate(55,24)"/>
<path d="M0 0 C5.94 0 11.88 0 18 0 C17 2 17 2 15 3 C13.12620395 3.07033769 11.24998898 3.0843022 9.375 3.0625 C8.37210938 3.05347656 7.36921875 3.04445313 6.3359375 3.03515625 C5.56507812 3.02355469 4.79421875 3.01195312 4 3 C4 3.66 4 4.32 4 5 C2.68 5 1.36 5 0 5 C0 3.35 0 1.7 0 0 Z " fill="#25BFD8" transform="translate(4,14)"/>
<path d="M0 0 C1.32 0.33 2.64 0.66 4 1 C4.33 2.98 4.66 4.96 5 7 C3.68 7 2.36 7 1 7 C1 7.66 1 8.32 1 9 C-0.32 8.67 -1.64 8.34 -3 8 C-2.45276317 4.62537285 -1.9451 2.91765 0 0 Z " fill="#EDF0F0" transform="translate(20,27)"/>
<path d="M0 0 C1.98 0.66 3.96 1.32 6 2 C5.125 7.75 5.125 7.75 4 10 C2.68 9.67 1.36 9.34 0 9 C0 6.03 0 3.06 0 0 Z " fill="#F2F5F5" transform="translate(11,23)"/>
<path d="M0 0 C4.07819457 0.12358165 5.88823286 1.63681686 8.625 4.4375 C9.19476563 5.05496094 9.76453125 5.67242187 10.3515625 6.30859375 C12.09189107 8.21199898 12.09189107 8.21199898 15 10 C15 10.66 15 11.32 15 12 C10.73466767 11.51253345 8.23528405 8.82074083 5.25 6 C4.74339844 5.5359375 4.23679687 5.071875 3.71484375 4.59375 C2.4514736 3.42232323 1.22247428 2.21404342 0 1 C0 0.67 0 0.34 0 0 Z " fill="#798589" transform="translate(17,63)"/>
<path d="M0 0 C2.63840764 1.03937271 3.54887645 2.4663835 5.0625 4.8125 C4.4025 4.8125 3.7425 4.8125 3.0625 4.8125 C3.0625 5.8025 3.0625 6.7925 3.0625 7.8125 C1.7425 7.4825 0.4225 7.1525 -0.9375 6.8125 C-0.9375 6.1525 -0.9375 5.4925 -0.9375 4.8125 C-1.9275 4.4825 -2.9175 4.1525 -3.9375 3.8125 C-3.9375 2.8225 -3.9375 1.8325 -3.9375 0.8125 C-1.9375 -0.1875 -1.9375 -0.1875 0 0 Z " fill="#B6BCBE" transform="translate(13.9375,58.1875)"/>
<path d="M0 0 C4.11842473 2.26626297 7.37138642 4.99514161 10.8125 8.1875 C11.31458984 8.65091797 11.81667969 9.11433594 12.33398438 9.59179688 C13.55956829 10.72400297 14.78029342 11.86146479 16 13 C15.01 13.33 14.02 13.66 13 14 C11.01436365 12.23598822 9.03656344 10.46438117 7.0625 8.6875 C6.49853516 8.18798828 5.93457031 7.68847656 5.35351562 7.17382812 C1.11328125 3.33984375 1.11328125 3.33984375 0 0 Z " fill="#AAB5B9" transform="translate(11,50)"/>
<path d="M0 0 C1.5625 1.6875 1.5625 1.6875 3 4 C2.6875 6.75 2.6875 6.75 2 9 C0.68 8.34 -0.64 7.68 -2 7 C-2 6.01 -2 5.02 -2 4 C-3.32 3.67 -4.64 3.34 -6 3 C-6 2.67 -6 2.34 -6 2 C-4.02 2 -2.04 2 0 2 C0 1.34 0 0.68 0 0 Z " fill="#A5AFB2" transform="translate(44,30)"/>
<path d="M0 0 C3 1 3 1 4 3 C4.66 2.67 5.32 2.34 6 2 C5.67 3.32 5.34 4.64 5 6 C2.39417629 6.93065133 1.35801776 7.14917407 -1.25 6.0625 C-1.8275 5.711875 -2.405 5.36125 -3 5 C-2.67 4.01 -2.34 3.02 -2 2 C-1.67 2.33 -1.34 2.66 -1 3 C-0.67 2.01 -0.34 1.02 0 0 Z " fill="#A9AEB1" transform="translate(30,52)"/>
<path d="M0 0 C1.65 0.99 3.3 1.98 5 3 C4.25 4.9375 4.25 4.9375 3 7 C0.875 7.75 0.875 7.75 -1 8 C-1 7.34 -1 6.68 -1 6 C-1.66 6 -2.32 6 -3 6 C-2.42655063 3.13275314 -2.1385485 2.1385485 0 0 Z " fill="#BEC1C2" transform="translate(22,36)"/>
<path d="M0 0 C-0.33 1.65 -0.66 3.3 -1 5 C-1.66 5 -2.32 5 -3 5 C-3 4.01 -3 3.02 -3 2 C-5.31 2.33 -7.62 2.66 -10 3 C-10 2.01 -10 1.02 -10 0 C-6.22996568 -2.61002376 -4.07631429 -1.66758312 0 0 Z " fill="#DEE0E1" transform="translate(36,5)"/>
<path d="M0 0 C0.33 0.66 0.66 1.32 1 2 C1.66 2.33 2.32 2.66 3 3 C2.34 3 1.68 3 1 3 C1 5.97 1 8.94 1 12 C0.01 11.67 -0.98 11.34 -2 11 C-2.05399736 9.54207116 -2.09279177 8.08357288 -2.125 6.625 C-2.15980469 5.40683594 -2.15980469 5.40683594 -2.1953125 4.1640625 C-2 2 -2 2 0 0 Z " fill="#131C23" transform="translate(24,6)"/>
<path d="M0 0 C3.80635497 3.20760251 7.54563567 6.40746109 11 10 C10.01 10.33 9.02 10.66 8 11 C5.03 8.03 2.06 5.06 -1 2 C-0.67 1.34 -0.34 0.68 0 0 Z " fill="#838E92" transform="translate(3,48)"/>
<path d="M0 0 C1.65 0 3.3 0 5 0 C5.33 0.99 5.66 1.98 6 3 C5.67 3.66 5.34 4.32 5 5 C6.98 3.68 8.96 2.36 11 1 C10.42655063 3.86724686 10.1385485 4.8614515 8 7 C5.375 6.625 5.375 6.625 3 6 C3 4.68 3 3.36 3 2 C2.01 1.34 1.02 0.68 0 0 Z " fill="#555C5F" transform="translate(20,26)"/>
<path d="M0 0 C5.16463415 6.57317073 5.16463415 6.57317073 4.625 11.25 C4.41875 12.1575 4.2125 13.065 4 14 C3.34 13.67 2.68 13.34 2 13 C1.6451046 11.00371336 1.31421071 9.00309329 1 7 C-0.09692267 4.36738559 -0.96458891 3.03541109 -3 1 C-2.01 0.67 -1.02 0.34 0 0 Z " fill="#30373C" transform="translate(44,25)"/>
<path d="M0 0 C5.61 0 11.22 0 17 0 C17 1.32 17 2.64 17 4 C15.68 4 14.36 4 13 4 C12.67 3.34 12.34 2.68 12 2 C9.1840151 1.53101037 9.1840151 1.53101037 5.9375 1.375 C4.28041016 1.26285156 4.28041016 1.26285156 2.58984375 1.1484375 C1.73519531 1.09945313 0.88054688 1.05046875 0 1 C0 0.67 0 0.34 0 0 Z " fill="#25DCFC" transform="translate(42,15)"/>
<path d="M0 0 C0.66 0.33 1.32 0.66 2 1 C0.83709195 4.48872415 -0.13967609 5.09976864 -3.0625 7.1875 C-3.79597656 7.71730469 -4.52945313 8.24710938 -5.28515625 8.79296875 C-5.85105469 9.19128906 -6.41695312 9.58960937 -7 10 C-7.66 9.34 -8.32 8.68 -9 8 C-8.43410156 7.50628906 -7.86820313 7.01257812 -7.28515625 6.50390625 C-6.55167969 5.86324219 -5.81820312 5.22257812 -5.0625 4.5625 C-4.33160156 3.92441406 -3.60070313 3.28632812 -2.84765625 2.62890625 C-1.87860647 1.77458541 -0.91348825 0.91348825 0 0 Z " fill="#DDE1E1" transform="translate(40,56)"/>
<path d="M0 0 C0.99 0 1.98 0 3 0 C2.67 1.32 2.34 2.64 2 4 C1.34 4 0.68 4 0 4 C-0.33 4.99 -0.66 5.98 -1 7 C-1.99 7 -2.98 7 -4 7 C-3.67 5.68 -3.34 4.36 -3 3 C-2.34 3 -1.68 3 -1 3 C-0.67 2.01 -0.34 1.02 0 0 Z " fill="#E5E9E9" transform="translate(50,59)"/>
<path d="M0 0 C1.32 0 2.64 0 4 0 C4 0.66 4 1.32 4 2 C5.32 2.33 6.64 2.66 8 3 C8 3.66 8 4.32 8 5 C5.0625 4.625 5.0625 4.625 2 4 C1.67 3.34 1.34 2.68 1 2 C-0.32 3.65 -1.64 5.3 -3 7 C-2.25 2.25 -2.25 2.25 0 0 Z " fill="#3B4146" transform="translate(21,35)"/>
<path d="M0 0 C0.33 0 0.66 0 1 0 C1 2.97 1 5.94 1 9 C1.99 9.33 2.98 9.66 4 10 C4 11.32 4 12.64 4 14 C2.68 13.67 1.36 13.34 0 13 C0 8.71 0 4.42 0 0 Z " fill="#7C8689" transform="translate(10,23)"/>
<path d="M0 0 C5.75 1.625 5.75 1.625 8 5 C7.34 5.66 6.68 6.32 6 7 C5.5875 6.54625 5.175 6.0925 4.75 5.625 C2.93591905 3.94049626 1.24714373 3.00734029 -1 2 C-0.67 1.34 -0.34 0.68 0 0 Z " fill="#ADBABB" transform="translate(33,0)"/>
<path d="M0 0 C0.66 0 1.32 0 2 0 C2 0.99 2 1.98 2 3 C2.66 3 3.32 3 4 3 C4 3.99 4 4.98 4 6 C1.69 5.67 -0.62 5.34 -3 5 C-1.125 1.125 -1.125 1.125 0 0 Z " fill="#9CA1A3" transform="translate(31,44)"/>
<path d="M0 0 C2.00720923 0.28674418 4.0085944 0.61866701 6 1 C6 1.33 6 1.66 6 2 C4.35 2 2.7 2 1 2 C1 6.29 1 10.58 1 15 C0.67 15 0.34 15 0 15 C-0.19390729 12.68802845 -0.37996367 10.3753971 -0.5625 8.0625 C-0.71912109 6.13083984 -0.71912109 6.13083984 -0.87890625 4.16015625 C-0.91886719 3.11730469 -0.95882812 2.07445312 -1 1 C-0.67 0.67 -0.34 0.34 0 0 Z " fill="#40484D" transform="translate(52,21)"/>
<path d="M0 0 C0.33 0 0.66 0 1 0 C1 2.31 1 4.62 1 7 C2.65 7 4.3 7 6 7 C6 7.66 6 8.32 6 9 C1.25 10.125 1.25 10.125 -1 9 C-0.67 6.03 -0.34 3.06 0 0 Z " fill="#223B46" transform="translate(3,14)"/>
<path d="M0 0 C-0.556875 0.268125 -1.11375 0.53625 -1.6875 0.8125 C-4.08933398 2.00699665 -4.08933398 2.00699665 -6.625 3.625 C-9 5 -9 5 -11 5 C-8.45499142 -0.63537615 -5.97208347 -0.11059414 0 0 Z " fill="#C4D1D0" transform="translate(33,0)"/>
<path d="M0 0 C4.29 0 8.58 0 13 0 C13.33 1.32 13.66 2.64 14 4 C13.34 4 12.68 4 12 4 C11.67 3.34 11.34 2.68 11 2 C8.41394668 1.5316735 8.41394668 1.5316735 5.4375 1.375 C3.91962891 1.26285156 3.91962891 1.26285156 2.37109375 1.1484375 C1.19740234 1.07496094 1.19740234 1.07496094 0 1 C0 0.67 0 0.34 0 0 Z " fill="#28E2FC" transform="translate(8,15)"/>
<path d="M0 0 C4.875 4.625 4.875 4.625 6 8 C2.2047869 6.50902342 0.38957269 4.24299151 -2 1 C-1.34 0.67 -0.68 0.34 0 0 Z " fill="#CBCFD0" transform="translate(31,38)"/>
<path d="M0 0 C2.86697492 1.28519565 4.97607712 2.57129254 7 5 C7 5.66 7 6.32 7 7 C4.13302508 5.71480435 2.02392288 4.42870746 0 2 C0 1.34 0 0.68 0 0 Z " fill="#E2E5E5" transform="translate(36,34)"/>
<path d="M0 0 C0.99 0.33 1.98 0.66 3 1 C2.34 1 1.68 1 1 1 C0.67 1.99 0.34 2.98 0 4 C-0.99 4 -1.98 4 -3 4 C-3.33 4.99 -3.66 5.98 -4 7 C-4.33 5.68 -4.66 4.36 -5 3 C-2.6875 1.4375 -2.6875 1.4375 0 0 Z " fill="#4C565B" transform="translate(29,1)"/>
<path d="M0 0 C3.25543229 0.34879632 4.01873107 1.02133261 6.25 3.5625 C6.8275 4.366875 7.405 5.17125 8 6 C4.74456771 5.65120368 3.98126893 4.97866739 1.75 2.4375 C1.1725 1.633125 0.595 0.82875 0 0 Z " fill="#9AA7AB" transform="translate(25,64)"/>
<path d="M0 0 C0.33 0 0.66 0 1 0 C1 3.63 1 7.26 1 11 C-0.98 11.99 -0.98 11.99 -3 13 C-2.67 12.01 -2.34 11.02 -2 10 C-1.34 10 -0.68 10 0 10 C0 6.7 0 3.4 0 0 Z " fill="#909A9E" transform="translate(61,38)"/>
<path d="M0 0 C0.66 0 1.32 0 2 0 C1.75 1.875 1.75 1.875 1 4 C-1.0625 5.25 -1.0625 5.25 -3 6 C-2.42655063 3.13275314 -2.1385485 2.1385485 0 0 Z " fill="#D1D4D5" transform="translate(28,41)"/>
<path d="M0 0 C3.36720387 1.39332574 4.9859524 2.9789286 7 6 C4 6 4 6 1.8125 4.125 C0 2 0 2 0 0 Z " fill="#606569" transform="translate(34,35)"/>
<path d="M0 0 C0.66 0.33 1.32 0.66 2 1 C3.53668865 1.22467831 5.07968054 1.40796805 6.625 1.5625 C7.44226562 1.64628906 8.25953125 1.73007812 9.1015625 1.81640625 C9.72804688 1.87699219 10.35453125 1.93757813 11 2 C11 2.33 11 2.66 11 3 C6.71 3 2.42 3 -2 3 C-2 2.34 -2 1.68 -2 1 C-1.34 0.67 -0.68 0.34 0 0 Z " fill="#1CCFFB" transform="translate(42,17)"/>
<path d="M0 0 C0.99 0.33 1.98 0.66 3 1 C1.37660195 2.70884005 -0.29319053 4.37446717 -2 6 C-2.66 6 -3.32 6 -4 6 C-2.84826645 3.53199953 -1.95216435 1.95216435 0 0 Z " fill="#AEBABE" transform="translate(49,51)"/>
<path d="M0 0 C0.66 0.33 1.32 0.66 2 1 C2 2.32 2 3.64 2 5 C1.34 5 0.68 5 0 5 C-0.66 5.99 -1.32 6.98 -2 8 C-2 5.69 -2 3.38 -2 1 C-1.34 0.67 -0.68 0.34 0 0 Z " fill="#5E6467" transform="translate(35,10)"/>
</svg>
