<?xml version="1.0" encoding="UTF-8"?>
<svg version="1.1" xmlns="http://www.w3.org/2000/svg" width="821" height="906">
<path d="M0 0 C53.46 0 106.92 0 162 0 C162.185625 26.11125 162.37125 52.2225 162.5625 79.125 C162.68540405 91.49444092 162.68540405 91.49444092 162.81079102 104.11376953 C162.85144043 114.17944336 162.85144043 114.17944336 162.85899353 118.89083862 C162.8673835 122.18362945 162.90112209 125.47511611 162.95018005 128.76754761 C163.0119444 132.96842901 163.03041811 137.167416 163.01765049 141.36870933 C163.0203197 142.90977132 163.03815692 144.45089987 163.07293618 145.99157166 C163.32109363 157.52084931 163.32109363 157.52084931 160.02958488 161.20615768 C157.73897917 162.755551 155.53309044 163.90469128 153 165 C151.56527344 165.92619141 151.56527344 165.92619141 150.1015625 166.87109375 C149.28429687 167.38800781 148.46703125 167.90492188 147.625 168.4375 C146.40683594 169.20900391 146.40683594 169.20900391 145.1640625 169.99609375 C144.11992187 170.65738281 143.07578125 171.31867188 142 172 C138.37 174.31 134.74 176.62 131 179 C141.23 179.33 151.46 179.66 162 180 C162.31654815 217.68261129 162.5671644 255.36487279 162.71491461 293.04854631 C162.73242432 297.49826813 162.75054485 301.94798726 162.76904297 306.39770508 C162.77271531 307.28355687 162.77638766 308.16940866 162.78017129 309.08210445 C162.84107628 323.42243091 162.95145103 337.76197096 163.08013915 352.10183101 C163.21110179 366.81797688 163.28883096 381.53371117 163.31723893 396.25041586 C163.33644177 405.33061214 163.3970615 414.40858581 163.51083054 423.48809773 C163.584888 429.71595004 163.60719133 435.94265504 163.58901928 442.1709156 C163.58005678 445.76435186 163.59369037 449.35390908 163.66887665 452.94665337 C164.08671156 473.9331611 164.08671156 473.9331611 160.63796854 479.00177693 C156.93010855 482.58123042 152.77085534 484.22902066 148 486 C146.14641183 487.11611947 144.313901 488.26956958 142.5234375 489.484375 C140.80731031 490.57294605 139.09116428 491.66148742 137.375 492.75 C130.01930938 497.42415475 122.68308394 502.12673114 115.375 506.875 C114.54991943 507.4105249 113.72483887 507.9460498 112.87475586 508.49780273 C109.29134253 510.83023416 105.72079326 513.17628964 102.19140625 515.58984375 C101.11761719 516.32332031 100.04382813 517.05679688 98.9375 517.8125 C98.03902344 518.43769531 97.14054687 519.06289063 96.21484375 519.70703125 C94 521 94 521 91 521 C91 416.72 91 312.44 91 205 C81.44026884 210.90748472 81.44026884 210.90748472 72 217 C71.54255637 219.2852139 71.54255637 219.2852139 71.61523914 221.99377632 C71.6057826 223.05671067 71.59632606 224.11964503 71.58658296 225.21478951 C71.59143053 226.39181211 71.59627811 227.56883471 71.60127258 228.78152466 C71.59462576 230.02463343 71.58797893 231.26774219 71.58113068 232.54852092 C71.56565184 236.01023237 71.56367205 239.47148642 71.56726015 242.93320012 C71.56788181 246.66193347 71.55128453 250.39059375 71.53674316 254.11929321 C71.51390816 260.58320779 71.50206364 267.0470683 71.49761391 273.51102066 C71.49116451 282.85687775 71.46824858 292.20263691 71.44127061 301.54845463 C71.39795334 316.71018647 71.36801485 331.8719142 71.34643555 347.03369141 C71.32544063 361.76483177 71.29817857 376.49593846 71.26245117 391.22705078 C71.26025235 392.13457199 71.25805352 393.0420932 71.25578807 393.97711505 C71.24471879 398.5297317 71.23352591 403.08234803 71.22227156 407.63496423 C71.12901656 445.42328043 71.05745104 483.21161326 71 521 C67.6418704 520.23633472 65.3015541 519.10192766 62.39453125 517.2265625 C61.5022583 516.65470215 60.60998535 516.0828418 59.69067383 515.49365234 C58.74087646 514.87699707 57.7910791 514.2603418 56.8125 513.625 C55.82725342 512.99158691 54.84200684 512.35817383 53.8269043 511.70556641 C50.8807737 509.80956303 47.93962636 507.90606841 45 506 C43.47919389 505.01558295 41.95836319 504.03120387 40.4375 503.046875 C38.38504141 501.71791225 36.33300851 500.38832128 34.2824707 499.05639648 C28.11816238 495.05802571 21.90647259 491.13608804 15.6809082 487.23388672 C14.23308258 486.32413102 12.79601074 485.39692188 11.37289327 484.4489814 C9.07028544 482.94851313 9.07028544 482.94851313 6.63594967 482.07369983 C3.67819936 480.72029544 2.05169736 479.55066543 0 477 C-1.39858264 470.75169904 -1.17584858 464.54466868 -1.08229065 458.16970825 C-1.08621479 456.19698876 -1.09409404 454.22427382 -1.10559314 452.25158393 C-1.1257467 446.82599002 -1.08968179 441.40199081 -1.04459059 435.97660017 C-1.0057758 430.12798036 -1.0188731 424.27945271 -1.02571106 418.43074036 C-1.03043354 408.29599775 -1.00216228 398.16177604 -0.95157051 388.02716446 C-0.8784712 373.37428473 -0.85496196 358.72156986 -0.84367859 344.06852482 C-0.82477459 320.29586734 -0.7641379 296.5234812 -0.67895508 272.75097656 C-0.59629646 249.65626468 -0.53254344 226.56162705 -0.49438477 203.46679688 C-0.49260916 202.39898361 -0.49260916 202.39898361 -0.49079769 201.30959835 C-0.47893101 194.16065486 -0.46744869 187.01171078 -0.45624795 179.86276622 C-0.43342201 165.29952857 -0.40803074 150.73629577 -0.38108826 136.17306519 C-0.37985265 135.50347071 -0.37861704 134.83387623 -0.37734399 134.14399101 C-0.29453724 89.42919173 -0.14616547 44.71464156 0 0 Z M71 71 C71 91.13 71 111.26 71 132 C73.97 130.35 76.94 128.7 80 127 C81.07612549 126.62286865 82.15225098 126.2457373 83.26098633 125.85717773 C86.92688077 124.38063241 88.62485722 123.20673519 91 120 C92.90902475 111.92300469 92.02415809 103.28030675 91.6875 95.0625 C91.6322985 92.73383865 91.58211269 90.40505263 91.53710938 88.07617188 C91.41612783 82.38103352 91.22648416 76.6918795 91 71 C84.4 71 77.8 71 71 71 Z " fill="#FB188D" transform="translate(329,35)"/>
<path d="M0 0 C23.43 0 46.86 0 71 0 C71.33 43.23 71.66 86.46 72 131 C88.74583538 122.61641505 88.74583538 122.61641505 91.08229065 114.12153625 C91.22030717 110.9861658 91.22030717 110.9861658 91.02172852 107.7355957 C91.03396454 106.56356094 91.04620056 105.39152618 91.05880737 104.18397522 C91.07911348 100.34302201 90.98002157 96.51529015 90.87890625 92.67578125 C90.86962659 90.00077277 90.86703018 87.32658761 90.87327576 84.6516571 C90.87344321 78.35321935 90.78751069 72.05909508 90.66970628 65.76187915 C90.52696069 57.88128891 90.50077347 50.00083231 90.47460938 42.11914062 C90.42748405 28.07644468 90.20573864 14.04325323 90 0 C113.76 0 137.52 0 162 0 C162.56424248 39.51040788 162.56424248 39.51040788 162.68359375 56.08007812 C162.76663769 67.51725237 162.86420214 78.95298173 163.05615234 90.38891602 C163.19589234 98.71827633 163.28605896 107.04646374 163.31723893 115.37696368 C163.33546224 119.78687922 163.37812794 124.19344021 163.48022079 128.60227776 C163.57565617 132.75749338 163.60449365 136.90799385 163.58350754 141.06420135 C163.58734252 142.58454914 163.61498277 144.10506312 163.66887665 145.62446022 C164.04514761 156.78497986 164.04514761 156.78497986 160.63167429 160.48198056 C156.75988545 163.63497531 152.45345883 165.78742331 148 168 C146.28896855 169.07032467 144.58893277 170.15908649 142.9140625 171.28515625 C142.25873535 171.70933838 141.6034082 172.13352051 140.92822266 172.57055664 C140.16815918 173.06289795 139.4080957 173.55523926 138.625 174.0625 C136.10875 175.691875 133.5925 177.32125 131 179 C141.23 179.33 151.46 179.66 162 180 C162 273.39 162 366.78 162 463 C157.61019167 461.24407667 153.89011975 459.20383655 149.9375 456.6875 C149.24269531 456.24946045 148.54789063 455.8114209 147.83203125 455.36010742 C141.51962266 451.3653621 135.26825105 447.27712586 129.01660156 443.18823242 C121.12833884 438.04551249 113.14338875 433.06217839 105.1328125 428.11254883 C104.17503906 427.51853271 103.21726562 426.9245166 102.23046875 426.3125 C101.38895264 425.79300781 100.54743652 425.27351563 99.68041992 424.73828125 C98.79588135 424.16464844 97.91134277 423.59101563 97 423 C96.4185132 422.68339269 95.8370264 422.36678538 95.23791879 422.04058391 C90.40135514 419.14296057 90.40135514 419.14296057 89.34998238 416.14890993 C89.09938569 413.85751776 89.07332624 411.65518838 89.12025452 409.35038757 C89.11018999 408.48040235 89.10012546 407.61041712 89.08975595 406.71406871 C89.06451421 403.79899407 89.08913911 400.88648603 89.11352539 397.97143555 C89.10563762 395.88204118 89.09467744 393.79265649 89.08087158 391.70329285 C89.05210683 386.0299417 89.06639769 380.35741408 89.08831334 374.68406272 C89.10392757 368.75560374 89.08009249 362.82730794 89.06040955 356.89888 C89.0291462 345.67208947 89.03345434 334.44560445 89.05048412 323.21879464 C89.06814394 310.43772244 89.04623747 297.65681439 89.02097714 284.87576616 C88.96990196 258.58378953 88.96861297 232.29199833 89 206 C88.52578613 206.30292969 88.05157227 206.60585937 87.56298828 206.91796875 C85.41992379 208.28331246 83.27254862 209.64172139 81.125 211 C80.00544922 211.71542969 80.00544922 211.71542969 78.86328125 212.4453125 C78.14785156 212.89648438 77.43242187 213.34765625 76.6953125 213.8125 C75.7055542 214.44091797 75.7055542 214.44091797 74.69580078 215.08203125 C73 216 73 216 71 216 C71 278.37 71 340.74 71 405 C67.65603021 403.66241208 65.32629735 402.71666272 62.4609375 400.8203125 C61.80770508 400.39210205 61.15447266 399.9638916 60.48144531 399.52270508 C59.78631836 399.0614624 59.09119141 398.60021973 58.375 398.125 C56.85738143 397.13057794 55.33912806 396.13712414 53.8203125 395.14453125 C53.03172852 394.62842285 52.24314453 394.11231445 51.43066406 393.58056641 C47.3932115 390.95516787 43.32305466 388.38219367 39.25 385.8125 C38.45795166 385.31137695 37.66590332 384.81025391 36.84985352 384.29394531 C33.22372479 382.00565912 29.5880795 379.7393818 25.91015625 377.53515625 C25.29688477 377.16608154 24.68361328 376.79700684 24.05175781 376.41674805 C22.43041683 375.44562761 20.80331263 374.48414718 19.17578125 373.5234375 C18.45777344 373.02070313 17.73976562 372.51796875 17 372 C17 371.34 17 370.68 17 370 C15.69420006 369.58902096 15.69420006 369.58902096 14.36202031 369.16973931 C8.85524695 367.25378144 4.12836128 365.22087632 0 361 C-1.60106528 356.1937695 -1.44214093 351.46189128 -1.32279968 346.45326233 C-1.32759927 344.95814557 -1.33723583 343.46303786 -1.35128051 341.96797937 C-1.37585077 337.86663672 -1.33193092 333.76846043 -1.27672184 329.66752136 C-1.22918609 325.24292924 -1.2452959 320.81851345 -1.25364685 316.39373779 C-1.25941292 308.73011569 -1.22492296 301.06752428 -1.16303062 293.40416145 C-1.07360466 282.32443325 -1.04498218 271.24520306 -1.03116272 260.16515308 C-1.00709192 242.18851422 -0.93389964 224.21242463 -0.82983398 206.23608398 C-0.72885357 188.77452339 -0.65099666 171.31311202 -0.60424805 153.85131836 C-0.60135809 152.77485202 -0.59846813 151.69838568 -0.5954906 150.58929915 C-0.58113511 145.18894481 -0.56723434 139.78858941 -0.55355966 134.3882333 C-0.43953838 89.59166767 -0.2367607 44.79611808 0 0 Z " fill="#FA188C" transform="translate(147,35)"/>
<path d="M0 0 C23.43 0 46.86 0 71 0 C72.59715907 1.59715907 72.13171852 3.26628911 72.1386652 5.48029423 C72.14413964 6.45415264 72.14961409 7.42801106 72.15525442 8.43138033 C72.15623253 9.51404206 72.15721064 10.5967038 72.15821838 11.71217346 C72.16562535 13.42242176 72.16562535 13.42242176 72.17318195 15.16722053 C72.18593865 18.34600221 72.19419609 21.52476007 72.20060861 24.70355976 C72.20859025 28.12621826 72.22229566 31.54885423 72.23532104 34.97149658 C72.25711565 40.90612142 72.27524918 46.8407485 72.29092598 52.77539253 C72.31359751 61.35598794 72.34174404 69.93655843 72.37124526 78.51713275 C72.41895457 92.43711073 72.46220967 106.35709886 72.50268555 120.27709961 C72.54202351 133.80249828 72.58344563 147.32788792 72.62768555 160.85327148 C72.63040982 161.68638053 72.63313409 162.51948957 72.63594092 163.37784434 C72.64962011 167.5571297 72.66334044 171.73641492 72.67708123 175.91570008 C72.79109844 210.610448 72.89789616 245.30521505 73 280 C75.27103391 278.54197823 77.54183435 277.08359508 79.8125 275.625 C80.45509766 275.2125 81.09769531 274.8 81.75976562 274.375 C84.51957989 272.60185508 87.27052708 270.81964862 90 269 C90.45600388 266.95672786 90.45600388 266.95672786 90.38476086 264.55283165 C90.3942174 263.61181614 90.40367394 262.67080064 90.41341704 261.70126951 C90.40856947 260.6604301 90.40372189 259.61959069 90.39872742 258.54721069 C90.40869766 256.89693404 90.40869766 256.89693404 90.41886932 255.21331847 C90.43762162 251.50198334 90.43488579 247.79096714 90.43237305 244.07958984 C90.44138276 241.42906813 90.45157596 238.77857575 90.46325684 236.12806702 C90.48608884 230.40898409 90.49793584 224.68996226 90.50238609 218.97083664 C90.50883623 210.70189175 90.53175347 202.43305751 90.55872939 194.16415711 C90.60204374 180.74942757 90.6319839 167.33470268 90.65356445 153.91992188 C90.67456025 140.88636998 90.70182307 127.85285614 90.73754883 114.81933594 C90.73974765 114.01635957 90.74194648 113.21338321 90.74421193 112.38607423 C90.75528124 108.35790004 90.76647411 104.32972621 90.77772844 100.30155253 C90.87097934 66.86772475 90.94009209 33.43390829 91 0 C114.43 0 137.86 0 162 0 C162.22039785 39.26269027 162.40505991 78.52479785 162.51065329 117.78792954 C162.52316057 122.42177183 162.53610378 127.0556128 162.54931641 131.68945312 C162.55193951 132.61197923 162.55456261 133.53450533 162.55726521 134.48498677 C162.60079545 149.42851332 162.67965011 164.37165574 162.77152796 179.3149543 C162.8649968 194.64470753 162.9205778 209.97425938 162.94088495 225.30428588 C162.95461629 234.76632801 162.9980039 244.22728447 163.07916467 253.68899243 C163.13196787 260.17460167 163.14801439 266.65964856 163.13501377 273.14545722 C163.12859878 276.88963809 163.13852364 280.63192048 163.19205475 284.37576485 C163.24966218 288.43430195 163.22991799 292.48878602 163.20254517 296.54763794 C163.23167358 297.73246391 163.26080199 298.91728989 163.29081309 300.13801968 C163.23137124 303.38713643 163.08790953 305.93612127 162 309 C158.98655584 311.81781201 155.74157772 313.34099211 152 315 C151.10822984 315.54469031 150.21645969 316.08938063 149.29766619 316.65057671 C147 318 147 318 145 318 C145 318.66 145 319.32 145 320 C144.47212891 320.28190186 143.94425781 320.56380371 143.40039062 320.85424805 C137.22475955 324.21147482 131.36068957 327.93669327 125.5 331.8125 C117.13860504 337.30508912 108.74620128 342.74407202 100.3125 348.125 C92.72768859 352.96640627 85.16107515 357.83307092 77.625 362.75 C67.36800064 369.43761269 57.01293424 375.96491275 46.64550781 382.47949219 C36.66048895 388.75685382 26.72026223 395.09512031 16.84790039 401.54858398 C14.56850062 403.03744593 12.28543454 404.52042103 10 406 C9.24509277 406.49129395 8.49018555 406.98258789 7.71240234 407.48876953 C6.99648926 407.94751465 6.28057617 408.40625977 5.54296875 408.87890625 C4.59006958 409.49294312 4.59006958 409.49294312 3.61791992 410.11938477 C2 411 2 411 0 411 C0 275.37 0 139.74 0 0 Z " fill="#FB188C" transform="translate(511,87)"/>
<path d="M0 0 C1.0094165 -0.01401855 2.01883301 -0.02803711 3.05883789 -0.04248047 C12.75906599 0.01942068 22.08601828 1.69637189 29.21484375 8.765625 C36.97511687 18.03296565 35.1105942 32.70905273 35.078125 44.1015625 C35.07947503 45.78355973 35.08141838 47.46555658 35.08392334 49.14755249 C35.08685058 52.64544447 35.08264955 56.14323339 35.07324219 59.64111328 C35.06176016 64.12914887 35.06847696 68.61694751 35.08038712 73.10497475 C35.08759566 76.56555996 35.08532398 80.02608839 35.08013153 83.48667526 C35.0787968 85.14292809 35.08043658 86.79918606 35.08509064 88.45543289 C35.09014896 90.75770147 35.08245984 93.05957725 35.07128906 95.36181641 C35.06969788 96.67131256 35.06810669 97.98080872 35.06646729 99.32998657 C34.8125 102.375 34.8125 102.375 32.8125 104.375 C29.93920898 104.61791992 29.93920898 104.61791992 26.30859375 104.60546875 C25.01115234 104.60353516 23.71371094 104.60160156 22.37695312 104.59960938 C21.70027588 104.59340576 21.02359863 104.58720215 20.32641602 104.58081055 C18.25459529 104.56254052 16.18322103 104.56030095 14.11132812 104.56054688 C3.95258257 104.51508257 3.95258257 104.51508257 2.8125 103.375 C2.68843185 101.16705589 2.63447722 98.95515514 2.60717773 96.74389648 C2.59727814 96.05124695 2.58737854 95.35859741 2.57717896 94.6449585 C2.5454797 92.34537221 2.52077349 90.04576523 2.49609375 87.74609375 C2.47553148 86.15567982 2.45453521 84.56527145 2.43312073 82.97486877 C2.37782491 78.78110237 2.3284489 74.58728605 2.28027344 70.39343262 C2.23011309 66.11706072 2.17439856 61.84076166 2.11914062 57.56445312 C2.01146726 49.16803027 1.91004284 40.77154662 1.8125 32.375 C-1.10384129 32.1247843 -1.10384129 32.1247843 -4.1875 32.375 C-6.30513807 35.55145711 -6.43678824 36.31457811 -6.43041992 39.94726562 C-6.43349655 40.87253052 -6.43657318 41.79779541 -6.43974304 42.75109863 C-6.43255753 43.75104858 -6.42537201 44.75099854 -6.41796875 45.78125 C-6.41751053 46.8163269 -6.41705231 47.85140381 -6.4165802 48.91784668 C-6.4135562 51.11353701 -6.40566553 53.30922516 -6.39331055 55.50488281 C-6.37522242 58.83406356 -6.37279983 62.16296307 -6.37304688 65.4921875 C-6.36812467 67.6302107 -6.36229331 69.76823203 -6.35546875 71.90625 C-6.35435593 72.8900061 -6.3532431 73.87376221 -6.35209656 74.8873291 C-6.81886851 87.76265501 -6.81886851 87.76265501 -2.41015625 99.37890625 C-1.77867676 100.28656738 -1.14719727 101.19422852 -0.49658203 102.12939453 C0.64641357 103.73596924 0.64641357 103.73596924 1.8125 105.375 C3.8115895 108.35097545 5.78035754 111.34688923 7.75390625 114.33984375 C8.84245822 115.98154482 9.93166167 117.62281409 11.02148438 119.26367188 C11.57280029 120.09439209 12.12411621 120.9251123 12.69213867 121.78100586 C13.81377036 123.46825365 14.93746895 125.15412925 16.06323242 126.83862305 C33.63153154 153.14375574 33.63153154 153.14375574 34.36450195 167.52758789 C34.40654157 168.32415078 34.44858118 169.12071367 34.49189472 169.94141483 C34.9021351 178.27229711 34.97642817 186.59415853 34.98046875 194.93359375 C34.98369686 196.54061408 34.98706197 198.14763415 34.99055481 199.75465393 C34.99646965 203.08473391 34.99840225 206.41478821 34.99780273 209.74487305 C34.99770043 213.98297282 35.01145689 218.22090764 35.02857494 222.45896816 C35.03974902 225.7629114 35.04172044 229.06681504 35.04119301 232.37077522 C35.04236095 233.9330713 35.04671476 235.49536881 35.05452538 237.0576458 C35.16302444 260.9533048 35.16302444 260.9533048 29.8125 268.375 C20.17715782 276.99162758 8.98637928 277.62187265 -3.375 277.6875 C-4.3966626 277.69313965 -5.4183252 277.6987793 -6.47094727 277.70458984 C-16.21089701 277.61135434 -24.37956323 276.51866 -32.1875 270.375 C-39.30822094 262.87950428 -39.34045375 253.86903448 -39.31689453 244.05908203 C-39.31952301 242.6993351 -39.31952301 242.6993351 -39.32220459 241.31211853 C-39.32658273 238.33566335 -39.32370087 235.35926822 -39.3203125 232.3828125 C-39.32098635 230.31012969 -39.32195705 228.23744695 -39.32321167 226.1647644 C-39.32468286 221.83249149 -39.32255136 217.50023925 -39.31787109 213.16796875 C-39.31215273 207.60247226 -39.31546973 202.03702377 -39.32144356 196.47152901 C-39.32504657 192.19776036 -39.32391216 187.92400321 -39.32131577 183.65023422 C-39.32064688 181.59682077 -39.32147359 179.54340629 -39.32379532 177.48999405 C-39.32631987 174.63148449 -39.32248505 171.77305438 -39.31689453 168.91455078 C-39.31891876 168.05952469 -39.32094299 167.2044986 -39.32302856 166.32356262 C-39.30176697 160.48926697 -39.30176697 160.48926697 -38.1875 159.375 C-35.98099344 159.27487599 -33.77127614 159.2441882 -31.5625 159.2421875 C-30.90040527 159.24123077 -30.23831055 159.24027405 -29.55615234 159.23928833 C-28.15397039 159.23860674 -26.7517853 159.24045958 -25.34960938 159.24462891 C-23.19654287 159.24997754 -21.04368498 159.2446833 -18.890625 159.23828125 C-17.53124954 159.23894204 -16.1718742 159.24022321 -14.8125 159.2421875 C-12.94464844 159.24387939 -12.94464844 159.24387939 -11.0390625 159.24560547 C-8.1875 159.375 -8.1875 159.375 -7.1875 160.375 C-7.07307227 162.95017272 -7.02266706 165.49962955 -7.01391602 168.07592773 C-7.007229 168.88240753 -7.00054199 169.68888733 -6.99365234 170.51980591 C-6.97956913 172.27680873 -6.96768559 174.03383021 -6.95770454 175.79086113 C-6.94134987 178.56816754 -6.91811523 181.3453355 -6.89280701 184.12257385 C-6.82187345 192.02085523 -6.76183985 199.91919317 -6.71069336 207.81762695 C-6.678964 212.6428725 -6.63770375 217.46795971 -6.59049797 222.29307747 C-6.57444075 224.13630394 -6.56213648 225.97956695 -6.55359077 227.82284355 C-6.54148466 230.39695252 -6.5173554 232.97068684 -6.49047852 235.54467773 C-6.48988937 236.31202744 -6.48930023 237.07937714 -6.48869324 237.86997986 C-6.57115553 242.08108214 -6.57115553 242.08108214 -4.1875 245.375 C-1.60395782 245.54187448 -1.60395782 245.54187448 0.8125 245.375 C2.25170286 242.49659427 1.98779541 239.97755829 2.03710938 236.76074219 C2.04849945 236.08068115 2.05988953 235.40062012 2.07162476 234.69995117 C2.18282395 227.54435881 2.22982232 220.38772036 2.27246094 213.23144531 C2.29461336 209.84810754 2.33619064 206.4658943 2.39550781 203.08300781 C2.46725266 198.9826913 2.50339033 194.88342078 2.51557922 190.78250885 C2.52587911 189.23094205 2.54805859 187.67940026 2.58317566 186.12819672 C2.8286516 174.68043536 0.75192263 167.23711187 -5.1875 157.375 C-6.32026977 155.36920028 -7.45197491 153.36279846 -8.58203125 151.35546875 C-9.71663921 149.42170499 -10.85602799 147.49073897 -12 145.5625 C-12.60529541 144.53495605 -13.21059082 143.50741211 -13.83422852 142.44873047 C-15.04899021 140.38689788 -16.26533876 138.32599926 -17.48339844 136.26611328 C-19.02445128 133.6516222 -20.55133064 131.0296993 -22.0703125 128.40234375 C-26.0615445 121.51387771 -30.08493189 114.77632447 -34.8125 108.35546875 C-39.05276739 102.24803816 -39.29302698 95.92709387 -39.39282227 88.61352539 C-39.4227401 86.66229515 -39.4227401 86.66229515 -39.45326233 84.67164612 C-39.47024028 83.271984 -39.48711931 81.87232067 -39.50390625 80.47265625 C-39.5245062 79.02533923 -39.54550341 77.57802781 -39.56687927 76.13072205 C-39.62178626 72.34146698 -39.6713324 68.55216048 -39.71972656 64.76281738 C-39.7701723 60.88805625 -39.82573731 57.01336881 -39.88085938 53.13867188 C-39.98805657 45.55084221 -40.08911132 37.96294993 -40.1875 30.375 C-47.7775 30.375 -55.3675 30.375 -63.1875 30.375 C-63.18527939 33.40235321 -63.18305878 36.42970642 -63.18077087 39.54879761 C-63.16088763 67.28619016 -63.14595075 95.02358092 -63.13643467 122.76097875 C-63.13518391 126.39354965 -63.13388959 130.02612053 -63.13256836 133.65869141 C-63.13230605 134.38189556 -63.13204374 135.10509971 -63.13177348 135.85021915 C-63.12741772 147.57268307 -63.11953068 159.29514212 -63.1103472 171.01760314 C-63.10100807 183.03868441 -63.09544384 195.05976311 -63.09341151 207.08084786 C-63.09216042 213.83594538 -63.08914197 220.5910327 -63.08176994 227.34612656 C-63.0750094 233.6973003 -63.07288311 240.04845832 -63.07439232 246.39963531 C-63.07411601 248.73700419 -63.07211109 251.07437357 -63.06829453 253.41173935 C-63.06335677 256.5902576 -63.06450205 259.76871562 -63.06724548 262.94723511 C-63.06433264 263.88301891 -63.0614198 264.81880272 -63.05841869 265.78294361 C-63.06040974 266.62990743 -63.06240079 267.47687126 -63.06445217 268.34950066 C-63.06388259 269.45106933 -63.06388259 269.45106933 -63.0633015 270.57489192 C-63.1875 272.375 -63.1875 272.375 -64.1875 274.375 C-68.44164623 274.39965622 -72.69575498 274.41783899 -76.94995117 274.42993164 C-78.39820073 274.43497101 -79.84644517 274.44180253 -81.29467773 274.45043945 C-83.37224588 274.46252247 -85.44974697 274.46823211 -87.52734375 274.47265625 C-88.77894287 274.47789307 -90.03054199 274.48312988 -91.32006836 274.48852539 C-94.1875 274.375 -94.1875 274.375 -95.1875 273.375 C-95.28555942 270.25260807 -95.31740476 267.15231859 -95.30775452 264.02952576 C-95.30860894 263.03636811 -95.30946337 262.04321046 -95.31034368 261.01995713 C-95.31200149 257.66489819 -95.30647221 254.30988837 -95.30102539 250.95483398 C-95.30074356 248.56062827 -95.30090118 246.16642246 -95.3014679 243.7722168 C-95.30169621 238.60369319 -95.29884489 233.43518086 -95.29323006 228.26666069 C-95.28511712 220.79376712 -95.28250005 213.32087967 -95.28124207 205.84798218 C-95.27905122 193.72490459 -95.27239025 181.60183371 -95.26293945 169.47875977 C-95.25376618 157.69946323 -95.24668493 145.92016852 -95.24243164 134.14086914 C-95.24203756 133.05250334 -95.24203756 133.05250334 -95.24163551 131.94215035 C-95.24033051 128.30229168 -95.23906679 124.662433 -95.23782361 121.02257431 C-95.22744998 90.8067114 -95.20975666 60.59085663 -95.1875 30.375 C-95.87900146 30.38023682 -96.57050293 30.38547363 -97.28295898 30.39086914 C-100.39696352 30.411575 -103.51095361 30.42463963 -106.625 30.4375 C-107.71361328 30.44587891 -108.80222656 30.45425781 -109.92382812 30.46289062 C-110.95830078 30.46611328 -111.99277344 30.46933594 -113.05859375 30.47265625 C-114.01693115 30.47789307 -114.97526855 30.48312988 -115.96264648 30.48852539 C-118.1875 30.375 -118.1875 30.375 -119.1875 29.375 C-119.28721786 27.46041718 -119.31830589 25.54217683 -119.3203125 23.625 C-119.32160156 22.4596875 -119.32289063 21.294375 -119.32421875 20.09375 C-119.32035156 18.8665625 -119.31648437 17.639375 -119.3125 16.375 C-119.31636719 15.1478125 -119.32023438 13.920625 -119.32421875 12.65625 C-119.32292969 11.4909375 -119.32164062 10.325625 -119.3203125 9.125 C-119.31918457 8.04734375 -119.31805664 6.9696875 -119.31689453 5.859375 C-119.1875 3.375 -119.1875 3.375 -118.1875 2.375 C-115.75892965 2.27470143 -113.35878387 2.23881575 -110.9296875 2.24560547 C-109.79071014 2.24297699 -109.79071014 2.24297699 -108.62872314 2.24029541 C-106.10662584 2.2358767 -103.58459807 2.23881494 -101.0625 2.2421875 C-99.31754544 2.24151447 -97.57259096 2.24054445 -95.82763672 2.23928833 C-92.16568105 2.23781133 -88.50374972 2.23996597 -84.84179688 2.24462891 C-80.13705508 2.2503262 -75.43237032 2.2470472 -70.72763062 2.24105644 C-67.12296109 2.23745088 -63.51830518 2.23858939 -59.91363525 2.24118423 C-58.17840569 2.24185352 -56.44317491 2.24102504 -54.70794678 2.23870468 C-52.28703513 2.23617823 -49.86621714 2.24001862 -47.4453125 2.24560547 C-46.72112122 2.24358124 -45.99692993 2.24155701 -45.25079346 2.23947144 C-40.30176266 2.26073734 -40.30176266 2.26073734 -39.1875 3.375 C-38.95222227 5.72487262 -38.77363583 8.08056039 -38.625 10.4375 C-38.54121094 11.72785156 -38.45742188 13.01820313 -38.37109375 14.34765625 C-38.31050781 15.34667969 -38.24992188 16.34570312 -38.1875 17.375 C-37.713125 16.17875 -37.23875 14.9825 -36.75 13.75 C-33.61512589 7.59998656 -28.85171288 4.81567717 -22.5546875 2.33984375 C-15.11920192 0.20833788 -7.69140977 0.07399539 0 0 Z " fill="#FFFFFF" transform="translate(786.1875,628.625)"/>
<path d="M0 0 C1.04607422 -0.01160156 2.09214844 -0.02320313 3.16992188 -0.03515625 C14.45239189 0.00686412 23.94231706 2.00470758 32.1875 10.0625 C37.01206886 16.23202348 36.73056 24.7550493 36.69819641 32.23558044 C36.70393473 33.66373324 36.70393473 33.66373324 36.70978898 35.12073761 C36.72005182 38.28945201 36.71613965 41.45798292 36.7121582 44.62670898 C36.71650836 46.90735033 36.72169252 49.18799021 36.72764587 51.46862793 C36.74101355 57.64833793 36.74161708 63.82798668 36.73908257 70.00770831 C36.73801148 75.17173441 36.74289972 80.3357482 36.747688 85.49977165 C36.75940858 98.38024763 36.75856248 111.26068459 36.75213119 124.14116222 C36.74696202 135.31126019 36.75822005 146.48127096 36.77722941 157.65135168 C36.79662904 169.13940229 36.80456906 180.62740136 36.80110615 192.11546952 C36.79929473 198.55772292 36.80191564 204.99989642 36.81582069 211.44213676 C36.8284085 217.50049263 36.82644573 223.55867405 36.81340981 229.61702728 C36.81104668 231.83655163 36.81376922 234.0560883 36.82203293 236.27559853 C36.8325241 239.31307876 36.82438048 242.34997619 36.8117218 245.38743591 C36.81909609 246.25875937 36.82647037 247.13008283 36.83406812 248.02781004 C36.76127607 256.37100674 35.20697684 264.66955566 29.30859375 270.90625 C20.7030918 277.66129955 9.65106664 277.57590942 -0.75 277.625 C-2.3597168 277.6559375 -2.3597168 277.6559375 -4.00195312 277.6875 C-14.84105679 277.73995785 -24.55621953 276.16489451 -32.5625 268.375 C-35.68266036 264.14768596 -36.68282176 260.34073457 -36.69951439 255.14695549 C-36.70458893 254.30565995 -36.70966347 253.46436441 -36.71489179 252.59757507 C-36.71538955 251.67832909 -36.71588731 250.75908312 -36.71640015 249.8119812 C-36.7207824 248.83148304 -36.72516465 247.85098488 -36.7296797 246.84077466 C-36.7430642 243.54602882 -36.74924581 240.25130973 -36.75537109 236.95654297 C-36.76327233 234.59782287 -36.7715413 232.23910397 -36.78015137 229.88038635 C-36.80410521 222.79555901 -36.81929868 215.71073085 -36.83221143 208.62587565 C-36.83716352 205.95625182 -36.84261096 203.28662901 -36.84802675 200.61700609 C-36.87173236 188.84371151 -36.89191655 177.0704149 -36.90369225 165.29710197 C-36.90662179 162.41681794 -36.90958348 159.53653395 -36.91259766 156.65625 C-36.91334371 155.94039695 -36.91408976 155.2245439 -36.91485842 154.48699833 C-36.92750622 142.89621797 -36.96072311 131.3055912 -37.00239949 119.7148826 C-37.04486555 107.80663599 -37.06839265 95.89846792 -37.07361281 83.9901458 C-37.07702163 77.30742333 -37.08928465 70.62490902 -37.12171555 63.94225693 C-37.1517985 57.65326787 -37.15810677 51.36469683 -37.14633179 45.07565117 C-37.14611108 42.77065027 -37.15441393 40.46562996 -37.17198563 38.16069603 C-37.19471711 35.00660368 -37.18636271 31.85402204 -37.17050171 28.69992065 C-37.1843838 27.79405901 -37.19826588 26.88819736 -37.21256864 25.95488536 C-37.12343729 18.7300624 -35.0261611 12.05593504 -29.97909009 6.69226348 C-22.05298552 -0.03172624 -9.8323782 -0.10945133 0 0 Z M-2.5625 27.375 C-5.16325489 29.97575489 -4.81109636 31.78153973 -4.8439731 35.32491535 C-4.84155802 36.16527004 -4.83914293 37.00562472 -4.83665466 37.8714447 C-4.84189134 38.76125127 -4.84712802 39.65105784 -4.85252339 40.56782824 C-4.86759713 43.56731756 -4.86823015 46.56663742 -4.86889648 49.56616211 C-4.87651296 51.70934846 -4.88493956 53.85253206 -4.89411926 55.99571228 C-4.91612023 61.83032517 -4.92487054 67.66488563 -4.92994571 73.49953532 C-4.93358232 77.14090207 -4.93981869 80.78225493 -4.9469471 84.42361641 C-4.97145991 97.11599459 -4.98449769 109.80833178 -4.98803711 122.50073242 C-4.99167502 134.35008369 -5.02158413 146.19917634 -5.06344169 158.0484485 C-5.09807558 168.20727176 -5.11358434 178.36600902 -5.11428314 188.52489096 C-5.11507824 194.59877837 -5.12392363 200.67240252 -5.15228081 206.74622917 C-5.17834363 212.45655303 -5.18073274 218.16639316 -5.16462517 223.87674904 C-5.16280132 225.97666346 -5.16958498 228.07660494 -5.18544388 230.17646027 C-5.2057253 233.03541279 -5.19545905 235.89264398 -5.17723083 238.75157166 C-5.1904308 239.58969562 -5.20363077 240.42781958 -5.21723074 241.29134125 C-5.23675054 243.86245229 -5.23675054 243.86245229 -4.5625 247.375 C-2.1862045 249.49241983 -2.1862045 249.49241983 0.4375 250.375 C2.5786898 249.4590218 2.5786898 249.4590218 4.4375 247.375 C4.83545461 244.39395883 4.97308527 241.77984745 4.93870544 238.79626465 C4.94423984 237.90968721 4.94977424 237.02310977 4.95547634 236.10966635 C4.96913358 233.12686565 4.95408617 230.14489438 4.93920898 227.16210938 C4.94299031 225.02862695 4.94848881 222.89514696 4.95558167 220.76167297 C4.96957776 214.95801147 4.95833729 209.15464504 4.94187045 203.35099983 C4.92805152 197.28652827 4.93447642 191.22207439 4.93800354 185.15759277 C4.94070816 174.97203803 4.92720834 164.78660096 4.90405273 154.60107422 C4.87744148 142.8136717 4.87569499 131.02646598 4.8874411 119.23904371 C4.89820841 107.91477399 4.89204003 96.59057569 4.87788582 85.26631165 C4.87211693 80.44019387 4.87221578 75.6141282 4.87695122 70.78800964 C4.88171238 65.10810595 4.87165502 59.42841864 4.84999657 53.74855614 C4.84441677 51.65994687 4.84397426 49.57131686 4.84894943 47.48270607 C4.85487435 44.63947312 4.84245098 41.79690798 4.82518005 38.95373535 C4.8311901 38.12018445 4.83720014 37.28663356 4.84339231 36.42782354 C4.8910142 32.27857443 4.8910142 32.27857443 3.1637302 28.64064169 C1.25660718 26.98081031 1.25660718 26.98081031 -2.5625 27.375 Z " fill="#FFFFFF" transform="translate(546.5625,628.625)"/>
<path d="M0 0 C1.00872665 -0.00637985 2.01745331 -0.0127597 3.05674744 -0.01933289 C4.15765213 -0.02044571 5.25855682 -0.02155853 6.39282227 -0.02270508 C8.08641624 -0.02769768 8.08641624 -0.02769768 9.81422424 -0.03279114 C12.21436149 -0.03786866 14.61450583 -0.04019921 17.01464844 -0.04003906 C20.66231245 -0.04220843 24.30966566 -0.06030782 27.95727539 -0.0793457 C30.28995665 -0.082283 32.62263935 -0.08426554 34.95532227 -0.08520508 C36.57935219 -0.09598335 36.57935219 -0.09598335 38.2361908 -0.10697937 C56.46136548 -0.05291291 56.46136548 -0.05291291 62.75380611 6.25650978 C67.30180103 11.91558898 67.71332215 19.29110713 67.65991211 26.27001953 C67.66516907 27.13309219 67.67042603 27.99616486 67.67584229 28.88539124 C67.6889396 31.71048616 67.68034008 34.53500774 67.67016602 37.36010742 C67.67218989 39.34111132 67.67510393 41.32211448 67.67886353 43.30311584 C67.68327315 47.44450002 67.67690047 51.58568936 67.6628418 55.72705078 C67.64576207 61.01373553 67.65559222 66.29996287 67.67355919 71.58663082 C67.68444346 75.67464084 67.68092925 79.76254394 67.67317581 83.85055733 C67.67118604 85.79884458 67.67358969 87.7471418 67.68061447 89.6954174 C67.74850048 113.81427426 67.74850048 113.81427426 60.09985352 123.31713867 C56.89470829 126.5222839 53.16594803 128.86065489 49.27172852 131.14526367 C50.1418457 131.58225586 50.1418457 131.58225586 51.02954102 132.02807617 C62.55193074 138.0744787 62.55193074 138.0744787 65.17079926 144.27337646 C67.13700507 150.63750428 67.69909069 156.39710608 67.65649414 163.03588867 C67.66186691 164.07467163 67.66723969 165.11345459 67.67277527 166.18371582 C67.68250065 168.42181549 67.68551341 170.65995263 67.68241882 172.89807129 C67.67791267 176.44712101 67.69201993 179.99567952 67.71081543 183.54467773 C67.7536803 192.3553628 67.7648279 201.16603564 67.77703857 209.97680664 C67.78859476 217.4347174 67.81223375 224.89240304 67.85173035 232.35021973 C67.86524251 235.83440801 67.86114076 239.3182863 67.85632324 242.80249023 C67.86566893 244.95321032 67.87583902 247.10392704 67.88696289 249.25463867 C67.88081467 250.21285522 67.87466644 251.17107178 67.86833191 252.1583252 C67.92034952 257.91660112 68.79586235 262.71036402 70.72666168 268.14532471 C71.27172852 270.14526367 71.27172852 270.14526367 70.27172852 272.14526367 C65.91188391 272.26889595 61.55296796 272.35961275 57.19189453 272.41992188 C55.70864084 272.44506177 54.22551099 272.47917959 52.74267578 272.52246094 C50.61012257 272.58314625 48.47920647 272.61147483 46.34594727 272.63354492 C44.42141724 272.67282104 44.42141724 272.67282104 42.45800781 272.71289062 C39.27172852 272.14526367 39.27172852 272.14526367 37.59762573 270.2943573 C35.62809564 265.61659301 35.84897153 261.21935845 35.87109375 256.19213867 C35.86062515 254.5352301 35.86062515 254.5352301 35.84994507 252.84484863 C35.82995568 249.19490951 35.83046847 245.54525269 35.83032227 241.89526367 C35.81855258 239.35847204 35.80518937 236.82168734 35.79029846 234.28491211 C35.7503813 226.92230458 35.73072994 219.55976743 35.71412659 212.19708252 C35.69023594 202.18920845 35.65064362 192.18146601 35.59684944 182.17370605 C35.58050616 178.4373051 35.57674131 174.70103193 35.57383728 170.96459961 C35.56406169 168.67586038 35.55379853 166.38712316 35.54296875 164.09838867 C35.54679817 162.53815979 35.54679817 162.53815979 35.55070496 160.94641113 C35.54387695 159.98755005 35.53704895 159.02868896 35.53001404 158.04077148 C35.52837974 157.21119934 35.52674543 156.3816272 35.52506161 155.5269165 C35.23436289 152.79397931 34.391823 150.64310774 33.27172852 148.14526367 C30.96172852 147.81526367 28.65172852 147.48526367 26.27172852 147.14526367 C26.27265031 147.78340468 26.2735721 148.4215457 26.27452183 149.07902431 C26.29657713 164.58475696 26.3131401 180.09048417 26.32354069 195.5962286 C26.32870362 203.09459432 26.33574627 210.59294958 26.34716797 218.09130859 C26.35711488 224.62456871 26.36358196 231.15782126 26.36581701 237.69108874 C26.36712411 241.15248174 26.37020988 244.6138531 26.37745857 248.07523918 C26.38547258 251.93313894 26.38571965 255.79101724 26.38525391 259.64892578 C26.38884918 260.80482208 26.39244446 261.96071838 26.39614868 263.15164185 C26.39477402 264.19637161 26.39339935 265.24110138 26.39198303 266.31748962 C26.39290483 267.23098647 26.39382662 268.14448332 26.39477634 269.08566189 C26.27172852 271.14526367 26.27172852 271.14526367 25.27172852 272.14526367 C23.06522196 272.24538769 20.85550465 272.27607547 18.64672852 272.27807617 C17.98463379 272.2790329 17.32253906 272.27998962 16.64038086 272.28097534 C15.23819891 272.28165694 13.83601381 272.27980409 12.43383789 272.27563477 C10.28077138 272.27028614 8.12791349 272.27558037 5.97485352 272.28198242 C4.61547805 272.28132164 3.25610272 272.28004047 1.89672852 272.27807617 C0.65149414 272.27694824 -0.59374023 272.27582031 -1.87670898 272.2746582 C-4.72827148 272.14526367 -4.72827148 272.14526367 -5.72827148 271.14526367 C-5.82581486 269.70230021 -5.85382603 268.2545757 -5.85411263 266.80831909 C-5.85672037 265.86642794 -5.85932812 264.92453678 -5.86201489 263.95410347 C-5.85866881 262.38366185 -5.85866881 262.38366185 -5.85525513 260.78149414 C-5.85681512 259.67878614 -5.85837511 258.57607815 -5.85998237 257.43995476 C-5.86399758 253.71410697 -5.86080072 249.98829933 -5.85766602 246.26245117 C-5.85901983 243.60386026 -5.86076322 240.9452722 -5.86297607 238.28668213 C-5.86743448 231.79669631 -5.86645699 225.30672202 -5.86356343 218.81673574 C-5.86130967 213.54455056 -5.86099676 208.27236863 -5.86208725 203.00018311 C-5.86224048 202.25125978 -5.86239372 201.50233646 -5.86255159 200.73071849 C-5.8628713 199.20953576 -5.86319551 197.68835302 -5.86352418 196.16717029 C-5.86637918 181.88609518 -5.86309164 167.60502649 -5.85772382 153.32395244 C-5.85325576 141.05670401 -5.85403169 128.78946505 -5.85864258 116.5222168 C-5.86398799 102.29400285 -5.86610449 88.06579453 -5.86303031 73.83757973 C-5.86271175 72.32183457 -5.86239738 70.8060894 -5.86208725 69.29034424 C-5.86193297 68.54447017 -5.8617787 67.79859609 -5.86161975 67.03011978 C-5.86075449 61.7611877 -5.86221765 56.49225917 -5.8645668 51.22332764 C-5.86736464 44.80668328 -5.86662689 38.39005117 -5.86128606 31.97340822 C-5.85864882 28.69638811 -5.85817812 25.41939279 -5.86093521 22.14237213 C-5.86364358 18.59790503 -5.86026945 15.05349651 -5.85525513 11.5090332 C-5.85748585 10.46207212 -5.85971657 9.41511105 -5.86201489 8.33642387 C-5.85940714 7.39453272 -5.8567994 6.45264156 -5.85411263 5.48220825 C-5.85395027 4.66293413 -5.85378792 3.84366001 -5.85362065 2.9995594 C-5.59960689 -0.75807736 -3.21032696 0.0137281 0 0 Z M26.27172852 29.14526367 C26.27172852 58.51526367 26.27172852 87.88526367 26.27172852 118.14526367 C32.90506185 117.91193034 32.90506185 117.91193034 35.27172852 115.14526367 C36.61221254 111.49771683 36.41269885 107.76326414 36.43286133 103.91748047 C36.43782623 103.19662262 36.44279114 102.47576477 36.44790649 101.73306274 C36.4624846 99.35352617 36.46932298 96.97405627 36.47485352 94.59448242 C36.48060873 92.93545023 36.48636641 91.27641804 36.49212646 89.61738586 C36.5026242 86.13977754 36.50847483 82.66219225 36.51196289 79.18457031 C36.51744381 74.73934314 36.5414683 70.29442284 36.56993484 65.8492918 C36.58860489 62.42195256 36.59376915 58.99468659 36.59529877 55.5673008 C36.59831618 53.92911922 36.6063138 52.29093865 36.61948395 50.65280724 C36.63663569 48.35538084 36.63464233 46.05869579 36.62817383 43.76123047 C36.63181946 42.45647263 36.63546509 41.15171478 36.63922119 39.80741882 C36.21804237 35.61026799 35.1107825 32.90869308 33.27172852 29.14526367 C30.96172852 29.14526367 28.65172852 29.14526367 26.27172852 29.14526367 Z " fill="#FFFFFF" transform="translate(86.728271484375,630.854736328125)"/>
<path d="M0 0 C1.00872665 -0.00637985 2.01745331 -0.0127597 3.05674744 -0.01933289 C4.15765213 -0.02044571 5.25855682 -0.02155853 6.39282227 -0.02270508 C8.08641624 -0.02769768 8.08641624 -0.02769768 9.81422424 -0.03279114 C12.21436149 -0.03786866 14.61450583 -0.04019921 17.01464844 -0.04003906 C20.66231245 -0.04220843 24.30966566 -0.06030782 27.95727539 -0.0793457 C30.28995665 -0.082283 32.62263935 -0.08426554 34.95532227 -0.08520508 C36.57935219 -0.09598335 36.57935219 -0.09598335 38.2361908 -0.10697937 C56.46136548 -0.05291291 56.46136548 -0.05291291 62.75380611 6.25650978 C67.30180103 11.91558898 67.71332215 19.29110713 67.65991211 26.27001953 C67.66516907 27.13309219 67.67042603 27.99616486 67.67584229 28.88539124 C67.6889396 31.71048616 67.68034008 34.53500774 67.67016602 37.36010742 C67.67218989 39.34111132 67.67510393 41.32211448 67.67886353 43.30311584 C67.68327315 47.44450002 67.67690047 51.58568936 67.6628418 55.72705078 C67.64576207 61.01373553 67.65559222 66.29996287 67.67355919 71.58663082 C67.68444346 75.67464084 67.68092925 79.76254394 67.67317581 83.85055733 C67.67118604 85.79884458 67.67358969 87.7471418 67.68061447 89.6954174 C67.74850048 113.81427426 67.74850048 113.81427426 60.09985352 123.31713867 C56.89470829 126.5222839 53.16594803 128.86065489 49.27172852 131.14526367 C50.1418457 131.58225586 50.1418457 131.58225586 51.02954102 132.02807617 C62.55098367 138.07398172 62.55098367 138.07398172 65.17024136 144.27114487 C67.14235303 150.6535065 67.70395977 156.44136882 67.67236328 163.09936523 C67.68283188 164.66717743 67.68283188 164.66717743 67.69351196 166.2666626 C67.71335887 169.68982197 67.71298804 173.11267714 67.71313477 176.53588867 C67.72491666 178.9286174 67.73828287 181.3213388 67.75315857 183.71405029 C67.7892395 189.99165291 67.80951747 196.26919053 67.82470703 202.546875 C67.84959955 212.60791866 67.88920983 222.66881886 67.94660759 232.7297287 C67.96291412 236.23841224 67.96671156 239.74695954 67.96961975 243.25567627 C67.97939587 245.40669999 67.98965912 247.55772156 68.00048828 249.70874023 C67.99793533 250.68133789 67.99538239 251.65393555 67.99275208 252.65600586 C68.03013026 257.59665226 68.46556629 261.48128926 70.27172852 266.14526367 C70.39672852 269.52026367 70.39672852 269.52026367 70.27172852 272.14526367 C65.91188391 272.26889595 61.55296796 272.35961275 57.19189453 272.41992188 C55.70864084 272.44506177 54.22551099 272.47917959 52.74267578 272.52246094 C50.61012257 272.58314625 48.47920647 272.61147483 46.34594727 272.63354492 C44.42141724 272.67282104 44.42141724 272.67282104 42.45800781 272.71289062 C39.27172852 272.14526367 39.27172852 272.14526367 37.59762573 270.2943573 C35.62809564 265.61659301 35.84897153 261.21935845 35.87109375 256.19213867 C35.86062515 254.5352301 35.86062515 254.5352301 35.84994507 252.84484863 C35.82995568 249.19490951 35.83046847 245.54525269 35.83032227 241.89526367 C35.81855258 239.35847204 35.80518937 236.82168734 35.79029846 234.28491211 C35.7503813 226.92230458 35.73072994 219.55976743 35.71412659 212.19708252 C35.69023594 202.18920845 35.65064362 192.18146601 35.59684944 182.17370605 C35.58050616 178.4373051 35.57674131 174.70103193 35.57383728 170.96459961 C35.56406169 168.67586038 35.55379853 166.38712316 35.54296875 164.09838867 C35.54679817 162.53815979 35.54679817 162.53815979 35.55070496 160.94641113 C35.54387695 159.98755005 35.53704895 159.02868896 35.53001404 158.04077148 C35.52837974 157.21119934 35.52674543 156.3816272 35.52506161 155.5269165 C35.23436289 152.79397931 34.391823 150.64310774 33.27172852 148.14526367 C30.96172852 147.81526367 28.65172852 147.48526367 26.27172852 147.14526367 C26.27265031 147.78340468 26.2735721 148.4215457 26.27452183 149.07902431 C26.29657713 164.58475696 26.3131401 180.09048417 26.32354069 195.5962286 C26.32870362 203.09459432 26.33574627 210.59294958 26.34716797 218.09130859 C26.35711488 224.62456871 26.36358196 231.15782126 26.36581701 237.69108874 C26.36712411 241.15248174 26.37020988 244.6138531 26.37745857 248.07523918 C26.38547258 251.93313894 26.38571965 255.79101724 26.38525391 259.64892578 C26.38884918 260.80482208 26.39244446 261.96071838 26.39614868 263.15164185 C26.39477402 264.19637161 26.39339935 265.24110138 26.39198303 266.31748962 C26.39290483 267.23098647 26.39382662 268.14448332 26.39477634 269.08566189 C26.27172852 271.14526367 26.27172852 271.14526367 25.27172852 272.14526367 C23.06522196 272.24538769 20.85550465 272.27607547 18.64672852 272.27807617 C17.98463379 272.2790329 17.32253906 272.27998962 16.64038086 272.28097534 C15.23819891 272.28165694 13.83601381 272.27980409 12.43383789 272.27563477 C10.28077138 272.27028614 8.12791349 272.27558037 5.97485352 272.28198242 C4.61547805 272.28132164 3.25610272 272.28004047 1.89672852 272.27807617 C0.65149414 272.27694824 -0.59374023 272.27582031 -1.87670898 272.2746582 C-4.72827148 272.14526367 -4.72827148 272.14526367 -5.72827148 271.14526367 C-5.82581486 269.70230021 -5.85382603 268.2545757 -5.85411263 266.80831909 C-5.85672037 265.86642794 -5.85932812 264.92453678 -5.86201489 263.95410347 C-5.85866881 262.38366185 -5.85866881 262.38366185 -5.85525513 260.78149414 C-5.85681512 259.67878614 -5.85837511 258.57607815 -5.85998237 257.43995476 C-5.86399758 253.71410697 -5.86080072 249.98829933 -5.85766602 246.26245117 C-5.85901983 243.60386026 -5.86076322 240.9452722 -5.86297607 238.28668213 C-5.86743448 231.79669631 -5.86645699 225.30672202 -5.86356343 218.81673574 C-5.86130967 213.54455056 -5.86099676 208.27236863 -5.86208725 203.00018311 C-5.86224048 202.25125978 -5.86239372 201.50233646 -5.86255159 200.73071849 C-5.8628713 199.20953576 -5.86319551 197.68835302 -5.86352418 196.16717029 C-5.86637918 181.88609518 -5.86309164 167.60502649 -5.85772382 153.32395244 C-5.85325576 141.05670401 -5.85403169 128.78946505 -5.85864258 116.5222168 C-5.86398799 102.29400285 -5.86610449 88.06579453 -5.86303031 73.83757973 C-5.86271175 72.32183457 -5.86239738 70.8060894 -5.86208725 69.29034424 C-5.86193297 68.54447017 -5.8617787 67.79859609 -5.86161975 67.03011978 C-5.86075449 61.7611877 -5.86221765 56.49225917 -5.8645668 51.22332764 C-5.86736464 44.80668328 -5.86662689 38.39005117 -5.86128606 31.97340822 C-5.85864882 28.69638811 -5.85817812 25.41939279 -5.86093521 22.14237213 C-5.86364358 18.59790503 -5.86026945 15.05349651 -5.85525513 11.5090332 C-5.85748585 10.46207212 -5.85971657 9.41511105 -5.86201489 8.33642387 C-5.85940714 7.39453272 -5.8567994 6.45264156 -5.85411263 5.48220825 C-5.85395027 4.66293413 -5.85378792 3.84366001 -5.85362065 2.9995594 C-5.59960689 -0.75807736 -3.21032696 0.0137281 0 0 Z M26.27172852 29.14526367 C26.27172852 58.51526367 26.27172852 87.88526367 26.27172852 118.14526367 C29.73672852 117.65026367 29.73672852 117.65026367 33.27172852 117.14526367 C36.4502957 112.83143598 36.6502613 108.93853569 36.65991211 103.69042969 C36.66779755 102.60870483 36.66779755 102.60870483 36.67584229 101.50512695 C36.6889776 99.13625011 36.68032669 96.76805286 36.67016602 94.39916992 C36.67218884 92.74299491 36.67510202 91.08682078 36.67886353 89.4306488 C36.6832783 85.9649098 36.67688407 82.4994033 36.6628418 79.03369141 C36.6457637 74.60416142 36.65558755 70.17517737 36.67355919 65.74566746 C36.68443145 62.32687818 36.68093472 58.90821701 36.67317581 55.48942375 C36.67118261 53.85684074 36.67360198 52.22424588 36.68061447 50.59167671 C36.68828449 48.30397136 36.67654788 46.0171334 36.65991211 43.72949219 C36.65752533 42.43076675 36.65513855 41.13204132 36.65267944 39.79396057 C36.21625297 35.61392636 35.10155419 32.89730122 33.27172852 29.14526367 C30.96172852 29.14526367 28.65172852 29.14526367 26.27172852 29.14526367 Z " fill="#FFFFFF" transform="translate(598.728271484375,630.854736328125)"/>
<path d="M0 0 C0.66209473 -0.00095673 1.32418945 -0.00191345 2.00634766 -0.00289917 C3.40852961 -0.00358076 4.8107147 -0.00172792 6.21289062 0.00244141 C8.36595713 0.00779004 10.51881502 0.0024958 12.671875 -0.00390625 C14.03125046 -0.00324546 15.3906258 -0.00196429 16.75 0 C18.61785156 0.00169189 18.61785156 0.00169189 20.5234375 0.00341797 C23.375 0.1328125 23.375 0.1328125 24.375 1.1328125 C24.48102004 4.19778655 24.5210399 7.24057642 24.51976013 10.3062439 C24.5250504 11.76830401 24.5250504 11.76830401 24.53044754 13.25990069 C24.54119166 16.55266633 24.54482537 19.8454031 24.54858398 23.13818359 C24.55488482 25.48811466 24.56165008 27.83804453 24.56884766 30.18797302 C24.58354953 35.26153693 24.5952612 40.33509612 24.60479546 45.40867233 C24.61890063 52.74756159 24.63983275 60.08642044 24.66322399 67.42528565 C24.70116946 79.3352734 24.73612839 91.24526742 24.76782227 103.15527344 C24.76972276 103.86867794 24.77162325 104.58208243 24.77358133 105.31710525 C24.80041294 115.44127023 24.82428551 125.56544006 24.84696633 135.68961509 C24.84856363 136.4024132 24.85016094 137.11521132 24.85180664 137.84960938 C24.85340011 138.56154239 24.85499357 139.2734754 24.85663532 140.00698213 C24.88338347 151.86879395 24.91777522 163.73056891 24.95846039 175.59234107 C24.98547729 183.56720085 25.00316476 191.54200719 25.01449764 199.51690269 C25.02359797 204.47191001 25.04094757 209.42686251 25.06067657 214.38183784 C25.06817525 216.68652679 25.07223452 218.99122976 25.07267189 221.29593086 C25.07374813 224.432535 25.08693928 227.56885751 25.10325623 230.70541382 C25.10063937 231.62592982 25.09802252 232.54644582 25.09532636 233.49485624 C25.10217516 234.33274423 25.10902395 235.17063222 25.11608028 236.03391075 C25.11781653 236.75825479 25.11955278 237.48259883 25.12134165 238.22889268 C25.27678702 240.46211532 25.27678702 240.46211532 27.375 243.1328125 C30.66575996 242.75377042 30.66575996 242.75377042 33.375 241.1328125 C33.48325103 238.0507856 33.52550835 234.99075457 33.52648926 231.90795898 C33.53072167 230.92775756 33.53495408 229.94755613 33.53931475 228.93765163 C33.55241554 225.62640174 33.55838258 222.31517596 33.56445312 219.00390625 C33.57238956 216.64087779 33.58077702 214.27785081 33.58958435 211.91482544 C33.61004893 206.14675361 33.62603239 200.37868131 33.64031208 194.61059117 C33.65727589 187.90031591 33.68067846 181.19006791 33.70473462 174.47981489 C33.74756046 162.51096764 33.78666817 150.54211158 33.82275391 138.57324219 C33.82491671 137.85632245 33.82707951 137.13940272 33.82930785 136.40075815 C33.84463706 131.31144322 33.85983391 126.22212791 33.875 121.1328125 C33.89232408 115.31933566 33.909708 109.50585901 33.92724609 103.69238281 C33.92940496 102.976332 33.93156383 102.26028119 33.93378812 101.52253187 C33.96985574 89.59972182 34.00980586 77.67692784 34.05254889 65.7541399 C34.07639423 59.05443186 34.09805319 52.35472905 34.11463928 45.65499878 C34.13028704 39.35797212 34.15031444 33.06097545 34.17378426 26.76397324 C34.18157091 24.44554026 34.18762697 22.12710076 34.19187737 19.8086586 C34.19788112 16.65829253 34.20990789 13.50800703 34.22351074 10.35766602 C34.22380673 9.42743339 34.22410272 8.49720076 34.22440767 7.53877926 C34.26090721 1.24690529 34.26090721 1.24690529 35.375 0.1328125 C37.50853174 0.03277961 39.64537542 0.00200202 41.78125 0 C43.08191406 -0.00128906 44.38257813 -0.00257813 45.72265625 -0.00390625 C46.74383545 -0.00076416 46.74383545 -0.00076416 47.78564453 0.00244141 C49.86628515 0.0077901 51.94670989 0.0024957 54.02734375 -0.00390625 C55.97833984 -0.00197266 55.97833984 -0.00197266 57.96875 0 C59.17208984 0.00112793 60.37542969 0.00225586 61.61523438 0.00341797 C64.375 0.1328125 64.375 0.1328125 65.375 1.1328125 C65.47408389 2.49710139 65.5042234 3.86647357 65.50642776 5.23435402 C65.51026891 6.12377744 65.51411005 7.01320087 65.5180676 7.92957652 C65.51720112 8.9179716 65.51633463 9.90636668 65.51544189 10.92471313 C65.51841302 11.966018 65.52138414 13.00732287 65.5244453 14.08018243 C65.53317453 17.59854754 65.53464411 21.1168788 65.53613281 24.63525391 C65.54075809 27.14617995 65.54578235 29.65710528 65.55117798 32.16802979 C65.56433405 39.01119781 65.57078984 45.8543546 65.57518864 52.69753313 C65.57794852 56.96959464 65.5821855 61.24165387 65.58669281 65.51371384 C65.59889022 77.33814922 65.60918732 89.16258277 65.6125679 100.98702431 C65.61289725 102.12314294 65.61289725 102.12314294 65.61323325 103.28221347 C65.61356067 104.42108903 65.61356067 104.42108903 65.6138947 105.58297217 C65.61433817 107.12155827 65.61478473 108.66014437 65.61523438 110.19873047 C65.6154558 110.96192618 65.61567723 111.72512188 65.61590537 112.51144473 C65.61985112 124.87067806 65.63729618 137.22985235 65.6605939 149.58906288 C65.68431186 162.2735199 65.69677002 174.9579473 65.69793582 187.64242685 C65.69885254 194.76602094 65.70460377 201.88953819 65.72275543 209.01311111 C65.73977363 215.71565053 65.74140564 222.41801928 65.73261642 229.12058258 C65.73184443 231.58163467 65.73621 234.04269451 65.74607468 236.50372696 C65.75874796 239.86232937 65.75294199 243.22041144 65.74249268 246.57901001 C65.75457728 248.04152614 65.75457728 248.04152614 65.76690602 249.53358805 C65.71615718 256.50359352 64.71781003 261.33445607 60.125 266.8203125 C50.48496894 274.92670226 40.66081695 275.48049764 28.4375 275.4453125 C27.32181641 275.46142578 26.20613281 275.47753906 25.05664062 275.49414062 C13.77162881 275.50075165 4.9544087 273.45861172 -3.375 265.5078125 C-8.48005024 258.98256204 -7.91506526 249.29159776 -7.87223816 241.4080658 C-7.87465257 240.37525547 -7.87706699 239.34244515 -7.87955457 238.27833754 C-7.88515744 234.84296328 -7.87655449 231.4077778 -7.86791992 227.97241211 C-7.86899359 225.49968414 -7.87093354 223.02695642 -7.87367249 220.55422974 C-7.8780068 214.55273847 -7.87309985 208.55132023 -7.86382218 202.54983997 C-7.85340825 195.56109187 -7.85350911 188.57235558 -7.85399476 181.58360118 C-7.85449447 169.12058247 -7.84535565 156.65758951 -7.83081055 144.19458008 C-7.81669762 132.09561698 -7.809641 119.99667652 -7.81030273 107.89770508 C-7.81034269 107.15116183 -7.81038265 106.40461857 -7.81042381 105.6354528 C-7.81046417 104.89020642 -7.81050452 104.14496005 -7.8105461 103.37713045 C-7.81123502 89.5990676 -7.80535476 75.82101437 -7.79639288 62.04295463 C-7.79337271 57.1676583 -7.79231291 52.29236374 -7.79186058 47.41706657 C-7.79110919 40.86795142 -7.78478659 34.31885714 -7.77469444 27.76974869 C-7.77176132 25.35938857 -7.7705457 22.9490257 -7.77112198 20.53866386 C-7.77160886 17.26398549 -7.76599502 13.98937534 -7.75871277 10.71470642 C-7.76026137 9.74781244 -7.76180997 8.78091845 -7.7634055 7.78472465 C-7.76018106 6.9145683 -7.75695661 6.04441195 -7.75363445 5.14788723 C-7.75293003 4.39120925 -7.7522256 3.63453128 -7.75149983 2.85492367 C-7.44412378 -1.32955409 -3.30972514 0.00299794 0 0 Z " fill="#FFFFFF" transform="translate(171.625,630.8671875)"/>
<path d="M0 0 C0.66209473 -0.00095673 1.32418945 -0.00191345 2.00634766 -0.00289917 C3.40852961 -0.00358076 4.8107147 -0.00172792 6.21289062 0.00244141 C8.36595713 0.00779004 10.51881502 0.0024958 12.671875 -0.00390625 C14.03125046 -0.00324546 15.3906258 -0.00196429 16.75 0 C18.61785156 0.00169189 18.61785156 0.00169189 20.5234375 0.00341797 C23.375 0.1328125 23.375 0.1328125 24.375 1.1328125 C24.47009559 3.74969691 24.50056 6.3401015 24.48852539 8.95727539 C24.48867142 9.77672134 24.48881744 10.5961673 24.4889679 11.44044495 C24.48826852 14.16214603 24.48047501 16.88377955 24.47265625 19.60546875 C24.47079216 21.48733991 24.46936821 23.36921156 24.46836853 25.25108337 C24.46454267 30.21429779 24.45471181 35.17748314 24.44366455 40.14068604 C24.4334519 45.20120856 24.42887122 50.26173577 24.42382812 55.32226562 C24.4130896 65.25912738 24.39601236 75.19596753 24.375 85.1328125 C24.54595184 84.12692078 24.71690369 83.12102905 24.89303589 82.08465576 C26.50453016 72.60755826 28.12272502 63.13162619 29.74749565 53.6567955 C30.58259993 48.78560013 31.41533406 43.91402421 32.24267578 39.04150391 C33.04111536 34.33972539 33.84574894 29.63904545 34.65469742 24.93906403 C34.96231279 23.14529438 35.26769021 21.35113948 35.57079697 19.55660248 C35.995553 17.04416685 36.42822847 14.53321588 36.86279297 12.02246094 C37.04837265 10.90791786 37.04837265 10.90791786 37.23770142 9.77085876 C37.88172238 6.10034279 38.68206489 3.51868271 40.375 0.1328125 C50.275 0.1328125 60.175 0.1328125 70.375 0.1328125 C72.4537706 4.2903537 72.61008609 4.69863093 71.68418884 8.87632751 C71.48066299 9.82751968 71.27713715 10.77871185 71.06744385 11.75872803 C70.83112244 12.79604065 70.59480103 13.83335327 70.35131836 14.90209961 C70.11270584 16.00036575 69.87409332 17.0986319 69.62825012 18.23017883 C69.10784297 20.62022075 68.58152504 23.00898144 68.05006218 25.39658928 C67.20765027 29.1925707 66.38596994 32.99248299 65.57044983 36.79432678 C63.24983991 47.60587054 60.90427739 58.41174065 58.51245117 69.20776367 C57.04938815 75.8127664 55.62512158 82.4253383 54.22061348 89.04303169 C53.68166186 91.54893956 53.12965108 94.05207983 52.5636425 96.5520153 C49.24012146 111.25150265 47.65341209 123.49605486 50.79360008 138.29039955 C51.66779717 142.56427207 52.34701236 146.86674183 53.04999733 151.1715517 C53.97490025 156.81004852 54.95109841 162.43964647 55.91969275 168.07077169 C56.50299636 171.46753776 57.08205915 174.86502618 57.66133118 178.26248169 C59.62401737 189.7692917 61.59323751 201.27497765 63.56762695 212.77978516 C64.66512448 219.1751932 65.75844865 225.57130096 66.84731895 231.96818364 C67.42081777 235.33611704 67.99652744 238.70363929 68.57758141 242.07027817 C69.22193754 245.80883344 69.85918884 249.54853614 70.49487305 253.28857422 C70.78235161 254.94057327 70.78235161 254.94057327 71.07563782 256.62594604 C71.95985172 261.87202355 72.60155856 266.81196659 72.375 272.1328125 C67.71194962 272.20687137 63.04924016 272.26137013 58.38574219 272.29760742 C56.79876749 272.31271064 55.21183463 272.33319473 53.625 272.35913086 C51.34624927 272.39544845 49.06804942 272.41252273 46.7890625 272.42578125 C46.07755035 272.44126511 45.36603821 272.45674896 44.63296509 272.47270203 C42.63134766 272.47338867 42.63134766 272.47338867 39.375 272.1328125 C37.39282116 269.15954424 37.04355938 268.07035785 36.64096069 264.67195129 C36.4727607 263.30267235 36.4727607 263.30267235 36.30116272 261.9057312 C36.18679367 260.90663727 36.07242462 259.90754333 35.95458984 258.87817383 C35.82750137 257.82435013 35.7004129 256.77052643 35.56947327 255.68476868 C35.15063132 252.19566102 34.74325584 248.70531387 34.3359375 245.21484375 C34.04803639 242.79766084 33.75942258 240.38056272 33.47012329 237.96354675 C32.71006997 231.59723569 31.95972599 225.22981618 31.21136475 218.86212158 C30.44622402 212.36637136 29.67195258 205.87171048 28.8984375 199.37695312 C27.38166183 186.62995942 25.87482593 173.88181106 24.375 161.1328125 C24.37592179 161.69880126 24.37684359 162.26479002 24.37779331 162.84792995 C24.39984965 176.60116885 24.41634833 190.35440466 24.42681217 204.10765743 C24.43204174 210.7585478 24.43914072 217.40942036 24.45043945 224.06030273 C24.46126571 230.47284127 24.46727628 236.88536754 24.46987724 243.29791451 C24.47173197 245.75045528 24.47535347 248.20299535 24.48073006 250.65553093 C24.48793702 254.07757927 24.48899109 257.49957621 24.48852539 260.92163086 C24.49212067 261.94661682 24.49571594 262.97160278 24.49942017 264.02764893 C24.4980455 264.95458054 24.49667084 265.88151215 24.49525452 266.83653259 C24.49617631 267.64678863 24.4970981 268.45704466 24.49804783 269.2918539 C24.375 271.1328125 24.375 271.1328125 23.375 272.1328125 C21.16849344 272.23293651 18.95877614 272.2636243 16.75 272.265625 C16.08790527 272.26658173 15.42581055 272.26753845 14.74365234 272.26852417 C13.34147039 272.26920576 11.9392853 272.26735292 10.53710938 272.26318359 C8.38404287 272.25783496 6.23118498 272.2631292 4.078125 272.26953125 C2.71874954 272.26887046 1.3593742 272.26758929 0 272.265625 C-1.24523437 272.26449707 -2.49046875 272.26336914 -3.7734375 272.26220703 C-6.625 272.1328125 -6.625 272.1328125 -7.625 271.1328125 C-7.72254337 269.68984904 -7.75055454 268.24212453 -7.75084114 266.79586792 C-7.75344889 265.85397676 -7.75605664 264.91208561 -7.75874341 263.9416523 C-7.75539732 262.37121068 -7.75539732 262.37121068 -7.75198364 260.76904297 C-7.75354363 259.66633497 -7.75510362 258.56362698 -7.75671089 257.42750359 C-7.76072609 253.70165579 -7.75752923 249.97584815 -7.75439453 246.25 C-7.75574834 243.59140909 -7.75749174 240.93282102 -7.75970459 238.27423096 C-7.76416299 231.78424514 -7.76318551 225.29427085 -7.76029195 218.80428457 C-7.75803819 213.53209939 -7.75772527 208.25991746 -7.75881577 202.98773193 C-7.758969 202.23880861 -7.75912223 201.48988529 -7.75928011 200.71826732 C-7.75959982 199.19708458 -7.75992403 197.67590185 -7.7602527 196.15471911 C-7.7631077 181.87364401 -7.75982016 167.59257532 -7.75445233 153.31150126 C-7.74998428 141.04425284 -7.7507602 128.77701388 -7.75537109 116.50976562 C-7.76071651 102.28155168 -7.762833 88.05334336 -7.75975883 73.82512856 C-7.75944026 72.30938339 -7.75912589 70.79363823 -7.75881577 69.27789307 C-7.75866149 68.53201899 -7.75850721 67.78614492 -7.75834826 67.0176686 C-7.75748301 61.74873652 -7.75894616 56.479808 -7.76129532 51.21087646 C-7.76409316 44.79423211 -7.76335541 38.37759999 -7.75801457 31.96095705 C-7.75537733 28.68393694 -7.75490664 25.40694162 -7.75766373 22.12992096 C-7.76037209 18.58545386 -7.75699796 15.04104534 -7.75198364 11.49658203 C-7.75421436 10.44962095 -7.75644509 9.40265987 -7.75874341 8.3239727 C-7.75613566 7.38208155 -7.75352791 6.44019039 -7.75084114 5.46975708 C-7.75067879 4.65048296 -7.75051644 3.83120884 -7.75034916 2.98710823 C-7.45829761 -1.33322332 -3.47773274 0.00315012 0 0 Z " fill="#FFFFFF" transform="translate(7.625,630.8671875)"/>
<path d="M0 0 C1.06347656 -0.01611328 2.12695312 -0.03222656 3.22265625 -0.04882812 C13.29380117 -0.05500674 21.44811223 1.37909314 28.875 8.4765625 C34.18766832 14.47885603 34.64978539 20.71249716 34.62939453 28.36987305 C34.63202301 29.5826593 34.63202301 29.5826593 34.63470459 30.81994629 C34.63910035 33.48805904 34.63619394 36.15610535 34.6328125 38.82421875 C34.63348599 40.67698682 34.6344564 42.52975481 34.63571167 44.38252258 C34.63718539 48.26194095 34.63504379 52.14133627 34.63037109 56.02075195 C34.62466206 61.00453611 34.62796228 65.98826655 34.63394356 70.97204876 C34.63754778 74.79546009 34.63641144 78.61885857 34.63381577 82.44227028 C34.63314673 84.28077005 34.63397412 86.11927097 34.63629532 87.95776939 C34.63882085 90.51964818 34.63498323 93.0814384 34.62939453 95.64331055 C34.63141876 96.40954239 34.63344299 97.17577423 34.63552856 97.96522522 C34.61426512 103.19823488 34.61426512 103.19823488 33.5 104.3125 C31.36646826 104.41253289 29.22962458 104.44331048 27.09375 104.4453125 C25.79308594 104.44660156 24.49242187 104.44789063 23.15234375 104.44921875 C22.47155762 104.44712402 21.79077148 104.4450293 21.08935547 104.44287109 C19.00871485 104.4375224 16.92829011 104.4428168 14.84765625 104.44921875 C12.89666016 104.44728516 12.89666016 104.44728516 10.90625 104.4453125 C9.70291016 104.44418457 8.49957031 104.44305664 7.25976562 104.44189453 C4.5 104.3125 4.5 104.3125 3.5 103.3125 C3.38661293 101.21206046 3.34313436 99.10782587 3.32641602 97.00439453 C3.319729 96.34582458 3.31304199 95.68725464 3.30615234 95.00872803 C3.29207218 93.57421873 3.28018764 92.13968663 3.27020454 90.70514297 C3.2538378 88.43582157 3.23060163 86.16666878 3.20530701 83.89743042 C3.13441474 77.44391235 3.07440812 70.99032468 3.02319336 64.53662109 C2.99141629 60.59315491 2.95014158 56.64988063 2.90299797 52.70656967 C2.886967 51.20189744 2.87465049 49.69718094 2.86609077 48.19244766 C2.85394818 46.08789833 2.82980295 43.98380058 2.80297852 41.87939453 C2.79267105 40.68105988 2.78236359 39.48272522 2.77174377 38.24807739 C2.71716424 35.12296484 2.71716424 35.12296484 0.5 32.3125 C-2.58365871 32.0622843 -2.58365871 32.0622843 -5.5 32.3125 C-5.55094801 39.96221047 -5.5858374 47.61187673 -5.60986328 55.26171875 C-5.61988546 57.86101924 -5.63350679 60.46030855 -5.65087891 63.05957031 C-5.67529378 66.80797086 -5.68652129 70.55622159 -5.6953125 74.3046875 C-5.71079636 76.03185501 -5.71079636 76.03185501 -5.72659302 77.79391479 C-5.82858203 90.62547022 -5.82858203 90.62547022 -0.52734375 101.953125 C2.63754458 106.14895625 5.6109071 110.40673276 8.49609375 114.796875 C9.15770004 115.80022888 9.15770004 115.80022888 9.83267212 116.82385254 C10.74294329 118.20521908 11.65230535 119.58718509 12.56079102 120.96972656 C13.92772673 123.04764338 15.30069347 125.12148866 16.67382812 127.1953125 C20.91321858 133.62162119 25.09155126 140.09030471 29.03515625 146.703125 C29.65914307 147.73985352 30.28312988 148.77658203 30.92602539 149.84472656 C34.28022087 157.23467422 34.79920287 165.00236671 34.79052734 173.02563477 C34.79724457 173.9392276 34.80396179 174.85282043 34.81088257 175.7940979 C34.82970932 178.78075763 34.83377818 181.76719107 34.8359375 184.75390625 C34.84237333 186.84797759 34.84910226 188.94204805 34.85610962 191.03611755 C34.86804203 195.41106247 34.87179433 199.78592864 34.87060547 204.16088867 C34.87040188 209.75148565 34.89776388 215.34157662 34.93214989 220.93205357 C34.95443712 225.25162556 34.95844253 229.57107579 34.95738602 233.89069939 C34.95973691 235.9514739 34.9685314 238.01225202 34.98405075 240.07296944 C35.0037588 242.95859035 34.99785498 245.84311936 34.98583984 248.72875977 C34.99707886 249.56901199 35.00831787 250.40926422 35.01989746 251.27497864 C34.94969705 257.94663036 33.36989198 264.07737023 28.85321617 269.16886234 C20.08753858 277.47210199 8.66784807 277.50883209 -2.75 277.5625 C-4.37228516 277.5934375 -4.37228516 277.5934375 -6.02734375 277.625 C-15.44244943 277.67042874 -24.00487803 276.41318068 -31.5 270.3125 C-38.26911075 263.38954583 -38.80164629 256.82875449 -38.74291992 247.62939453 C-38.74481827 246.68388229 -38.74671661 245.73837006 -38.74867249 244.76420593 C-38.75235944 241.65782218 -38.74170956 238.55167524 -38.73046875 235.4453125 C-38.72927614 233.28294909 -38.72882396 231.12058516 -38.7290802 228.95822144 C-38.72751918 224.4376092 -38.7192554 219.91707659 -38.70581055 215.39648438 C-38.68876019 209.58884622 -38.68499814 203.78129498 -38.68575573 197.97363472 C-38.68548458 193.51456872 -38.6800132 189.05552189 -38.67275429 184.59646225 C-38.66956349 182.45373556 -38.66759926 180.31100668 -38.66686058 178.16827774 C-38.66470481 175.18522642 -38.65597903 172.20226949 -38.64526367 169.21923828 C-38.64571686 168.32680923 -38.64617004 167.43438019 -38.64663696 166.51490784 C-38.61447954 160.42697954 -38.61447954 160.42697954 -37.5 159.3125 C-35.29349344 159.21237599 -33.08377614 159.1816882 -30.875 159.1796875 C-30.21290527 159.17873077 -29.55081055 159.17777405 -28.86865234 159.17678833 C-27.46647039 159.17610674 -26.0642853 159.17795958 -24.66210938 159.18212891 C-22.50904287 159.18747754 -20.35618498 159.1821833 -18.203125 159.17578125 C-16.84374954 159.17644204 -15.4843742 159.17772321 -14.125 159.1796875 C-12.25714844 159.18137939 -12.25714844 159.18137939 -10.3515625 159.18310547 C-7.5 159.3125 -7.5 159.3125 -6.5 160.3125 C-6.37490166 162.95901343 -6.31394005 165.58072219 -6.29467773 168.22875977 C-6.28477814 169.05795929 -6.27487854 169.88715881 -6.26467896 170.7414856 C-6.2329688 173.49559629 -6.20826912 176.24972426 -6.18359375 179.00390625 C-6.16303243 180.90820273 -6.14203618 182.81249455 -6.12062073 184.71678162 C-6.06531515 189.73912806 -6.01594344 194.76151627 -5.96777344 199.78393555 C-5.91762021 204.90482315 -5.86190197 210.0256498 -5.80664062 215.14648438 C-5.69895533 225.2017709 -5.59753355 235.25711025 -5.5 245.3125 C-2.58365871 245.5627157 -2.58365871 245.5627157 0.5 245.3125 C2.89740566 241.71639151 2.76310546 240.07326782 2.79052734 235.79663086 C2.79724457 235.13925934 2.80396179 234.48188782 2.81088257 233.80459595 C2.82989387 231.62876838 2.83378947 229.45324926 2.8359375 227.27734375 C2.84236756 225.75858943 2.84909608 224.23983634 2.85610962 222.72108459 C2.86809324 219.53253311 2.87178977 216.34409 2.87060547 213.15551758 C2.8704032 209.09266251 2.89760419 205.03051418 2.93214989 200.96782589 C2.95452994 197.82685741 2.9584395 194.68605534 2.95738602 191.54501534 C2.9597292 190.04886014 2.9684796 188.55269946 2.98405075 187.05662346 C3.06562241 178.4027567 2.60936488 171.09149449 -1.5 163.3125 C-2.04140625 162.25498535 -2.5828125 161.1974707 -3.140625 160.10791016 C-3.67171875 159.19831543 -4.2028125 158.2887207 -4.75 157.3515625 C-5.35247559 156.31290039 -5.95495117 155.27423828 -6.57568359 154.20410156 C-7.52822021 152.58713379 -7.52822021 152.58713379 -8.5 150.9375 C-9.16209473 149.80280273 -9.82418945 148.66810547 -10.50634766 147.49902344 C-12.49346742 144.09714034 -14.49536929 140.70409658 -16.5 137.3125 C-17.35416504 135.86472168 -17.35416504 135.86472168 -18.22558594 134.38769531 C-23.89291941 124.80237508 -29.67546524 115.32693769 -35.85546875 106.0625 C-38.66504893 101.36429467 -38.65268194 97.11420907 -38.66113281 91.73339844 C-38.66858017 90.59599968 -38.66858017 90.59599968 -38.67617798 89.43562317 C-38.69076301 86.93103114 -38.69759609 84.42650249 -38.703125 81.921875 C-38.7088802 80.17555745 -38.71463789 78.4292399 -38.72039795 76.68292236 C-38.73089805 73.02119656 -38.73674695 69.35949264 -38.74023438 65.69775391 C-38.74571187 61.01946317 -38.76972811 56.34146453 -38.79820633 51.66326523 C-38.81688742 48.05488253 -38.82204125 44.44656936 -38.82357025 40.8381424 C-38.82658582 39.11426449 -38.83457711 37.39038748 -38.84775543 35.66655731 C-38.86492814 33.24720959 -38.86290851 30.82856465 -38.85644531 28.40917969 C-38.8656601 27.70551773 -38.87487488 27.00185577 -38.8843689 26.27687073 C-38.82917693 19.63761692 -36.97630231 14.50586344 -33.3125 9.0625 C-24.29217755 0.24262916 -11.97974244 -0.03630225 0 0 Z " fill="#FFFFFF" transform="translate(381.5,628.6875)"/>
<path d="M0 0 C1.00872665 -0.00637985 2.01745331 -0.0127597 3.05674744 -0.01933289 C4.15765213 -0.02044571 5.25855682 -0.02155853 6.39282227 -0.02270508 C8.08641624 -0.02769768 8.08641624 -0.02769768 9.81422424 -0.03279114 C12.21436149 -0.03786866 14.61450583 -0.04019921 17.01464844 -0.04003906 C20.66231245 -0.04220843 24.30966566 -0.06030782 27.95727539 -0.0793457 C30.28995665 -0.082283 32.62263935 -0.08426554 34.95532227 -0.08520508 C36.57935219 -0.09598335 36.57935219 -0.09598335 38.2361908 -0.10697937 C47.26035332 -0.08020846 55.68096307 0.07055889 62.79907227 6.12182617 C68.07280772 13.36796667 67.70610736 21.26102894 67.67578125 29.85400391 C67.68149213 31.22973177 67.68845916 32.6054549 67.69657898 33.98117065 C67.71444622 37.69819379 67.71335427 41.41498002 67.70763659 45.13203311 C67.70453544 48.24323427 67.71064745 51.35439054 67.71667534 54.46558529 C67.73069777 61.80912647 67.7291783 69.15255126 67.71777344 76.49609375 C67.70629375 84.05451889 67.72037038 91.61258913 67.74716991 99.17096752 C67.76936989 105.67739805 67.77595466 112.18371753 67.7700935 118.69018322 C67.76673304 122.56873871 67.76907796 126.44706675 67.78634453 130.32559013 C67.80188055 133.97425395 67.79778536 137.62239442 67.77903938 141.27103806 C67.77363282 143.23613565 67.78781674 145.20125713 67.80273438 147.16630554 C67.73436281 155.42032513 66.87347641 162.34341867 61.02172852 168.52026367 C48.94683242 175.65542954 42.08589676 173.14526367 26.27172852 173.14526367 C26.27172852 205.81526367 26.27172852 238.48526367 26.27172852 272.14526367 C16.04172852 272.14526367 5.81172852 272.14526367 -4.72827148 272.14526367 C-6.30475302 270.56878214 -5.85367871 268.9979792 -5.85411263 266.80831909 C-5.85672037 265.86642794 -5.85932812 264.92453678 -5.86201489 263.95410347 C-5.85866881 262.38366185 -5.85866881 262.38366185 -5.85525513 260.78149414 C-5.85681512 259.67878614 -5.85837511 258.57607815 -5.85998237 257.43995476 C-5.86399758 253.71410697 -5.86080072 249.98829933 -5.85766602 246.26245117 C-5.85901983 243.60386026 -5.86076322 240.9452722 -5.86297607 238.28668213 C-5.86743448 231.79669631 -5.86645699 225.30672202 -5.86356343 218.81673574 C-5.86130967 213.54455056 -5.86099676 208.27236863 -5.86208725 203.00018311 C-5.86224048 202.25125978 -5.86239372 201.50233646 -5.86255159 200.73071849 C-5.8628713 199.20953576 -5.86319551 197.68835302 -5.86352418 196.16717029 C-5.86637918 181.88609518 -5.86309164 167.60502649 -5.85772382 153.32395244 C-5.85325576 141.05670401 -5.85403169 128.78946505 -5.85864258 116.5222168 C-5.86398799 102.29400285 -5.86610449 88.06579453 -5.86303031 73.83757973 C-5.86271175 72.32183457 -5.86239738 70.8060894 -5.86208725 69.29034424 C-5.86193297 68.54447017 -5.8617787 67.79859609 -5.86161975 67.03011978 C-5.86075449 61.7611877 -5.86221765 56.49225917 -5.8645668 51.22332764 C-5.86736464 44.80668328 -5.86662689 38.39005117 -5.86128606 31.97340822 C-5.85864882 28.69638811 -5.85817812 25.41939279 -5.86093521 22.14237213 C-5.86364358 18.59790503 -5.86026945 15.05349651 -5.85525513 11.5090332 C-5.85748585 10.46207212 -5.85971657 9.41511105 -5.86201489 8.33642387 C-5.85940714 7.39453272 -5.8567994 6.45264156 -5.85411263 5.48220825 C-5.85395027 4.66293413 -5.85378792 3.84366001 -5.85362065 2.9995594 C-5.59960689 -0.75807736 -3.21032696 0.0137281 0 0 Z M26.27172852 29.14526367 C26.27172852 67.09526367 26.27172852 105.04526367 26.27172852 144.14526367 C31.85420963 144.74965015 31.85420963 144.74965015 34.08422852 142.77026367 C36.10436882 140.00586114 36.39922183 138.27948319 36.41217041 134.90750122 C36.41788055 134.0186322 36.4235907 133.12976318 36.42947388 132.21395874 C36.43059174 131.23625519 36.43170959 130.25855164 36.43286133 129.2512207 C36.43782623 128.22347534 36.44279114 127.19572998 36.44790649 126.13684082 C36.46255174 122.72557921 36.46933385 119.3143641 36.47485352 115.90307617 C36.48060276 113.53897093 36.48636052 111.1748657 36.49212646 108.8107605 C36.50264301 103.84917991 36.50848148 98.88761556 36.51196289 93.92602539 C36.51745075 87.5613288 36.54148244 81.19684581 36.56993484 74.83221626 C36.58853686 69.94753386 36.59376552 65.06290316 36.59529877 60.17818832 C36.59833104 57.83138739 36.60637877 55.48458749 36.61948395 53.1378212 C36.63649422 49.85774624 36.63467637 46.57819659 36.62817383 43.2980957 C36.641996 41.83761307 36.641996 41.83761307 36.65609741 40.34762573 C36.65052826 39.45311707 36.64495911 38.5586084 36.63922119 37.63699341 C36.64068775 36.86159777 36.64215431 36.08620213 36.64366531 35.28730965 C36.14076507 32.39102336 35.47061533 31.11988403 33.27172852 29.14526367 C30.96172852 29.14526367 28.65172852 29.14526367 26.27172852 29.14526367 Z " fill="#FFFFFF" transform="translate(431.728271484375,630.854736328125)"/>
<path d="M0 0 C1.19794189 -0.00315216 2.39588379 -0.00630432 3.63012695 -0.009552 C4.93425537 -0.00752777 6.23838379 -0.00550354 7.58203125 -0.00341797 C8.9234214 -0.00409107 10.26481144 -0.00506115 11.60620117 -0.00631714 C14.42074746 -0.00779382 17.23526207 -0.00564051 20.04980469 -0.00097656 C23.66493756 0.00472073 27.2799962 0.00144156 30.89512634 -0.00454903 C33.66598067 -0.00815544 36.43681727 -0.00701569 39.20767212 -0.00442123 C41.19142708 -0.0034258 43.17518272 -0.00647288 45.15893555 -0.009552 C46.35687744 -0.00639984 47.55481934 -0.00324768 48.7890625 0 C49.84971924 0.00079559 50.91037598 0.00159119 52.00317383 0.00241089 C54.39453125 0.12939453 54.39453125 0.12939453 55.39453125 1.12939453 C55.49424911 3.04397735 55.52533714 4.9622177 55.52734375 6.87939453 C55.52927734 8.62736328 55.52927734 8.62736328 55.53125 10.41064453 C55.52738281 11.63783203 55.52351563 12.86501953 55.51953125 14.12939453 C55.52533203 15.97017578 55.52533203 15.97017578 55.53125 17.84814453 C55.52996094 19.01345703 55.52867187 20.17876953 55.52734375 21.37939453 C55.52621582 22.45705078 55.52508789 23.53470703 55.52392578 24.64501953 C55.39453125 27.12939453 55.39453125 27.12939453 54.39453125 28.12939453 C44.49453125 28.12939453 34.59453125 28.12939453 24.39453125 28.12939453 C24.39453125 56.17939453 24.39453125 84.22939453 24.39453125 113.12939453 C33.96453125 113.12939453 43.53453125 113.12939453 53.39453125 113.12939453 C55.16902719 114.90389047 54.52483197 117.47956714 54.52734375 119.87939453 C54.52927734 121.62736328 54.52927734 121.62736328 54.53125 123.41064453 C54.52738281 124.63783203 54.52351563 125.86501953 54.51953125 127.12939453 C54.52533203 128.97017578 54.52533203 128.97017578 54.53125 130.84814453 C54.52996094 132.01345703 54.52867187 133.17876953 54.52734375 134.37939453 C54.52621582 135.45705078 54.52508789 136.53470703 54.52392578 137.64501953 C54.39453125 140.12939453 54.39453125 140.12939453 53.39453125 141.12939453 C43.82453125 141.12939453 34.25453125 141.12939453 24.39453125 141.12939453 C24.39453125 175.11939453 24.39453125 209.10939453 24.39453125 244.12939453 C34.29453125 244.12939453 44.19453125 244.12939453 54.39453125 244.12939453 C56.16902719 245.90389047 55.52483197 248.47956714 55.52734375 250.87939453 C55.52927734 252.62736328 55.52927734 252.62736328 55.53125 254.41064453 C55.52738281 255.63783203 55.52351563 256.86501953 55.51953125 258.12939453 C55.52533203 259.97017578 55.52533203 259.97017578 55.53125 261.84814453 C55.52996094 263.01345703 55.52867187 264.17876953 55.52734375 265.37939453 C55.52621582 266.45705078 55.52508789 267.53470703 55.52392578 268.64501953 C55.39453125 271.12939453 55.39453125 271.12939453 54.39453125 272.12939453 C52.52817337 272.22850014 50.65804931 272.25738714 48.7890625 272.25878906 C47.59112061 272.26194122 46.39317871 272.26509338 45.15893555 272.26834106 C43.85480713 272.26631683 42.55067871 272.2642926 41.20703125 272.26220703 C39.8656411 272.26288013 38.52425106 272.26385021 37.18286133 272.2651062 C34.36831504 272.26658289 31.55380043 272.26442957 28.73925781 272.25976562 C25.12412494 272.25406834 21.5090663 272.2573475 17.89393616 272.26333809 C15.12308183 272.2669445 12.35224523 272.26580475 9.58139038 272.2632103 C7.59763542 272.26221486 5.61387978 272.26526194 3.63012695 272.26834106 C2.43218506 272.2651889 1.23424316 272.26203674 0 272.25878906 C-1.06065674 272.25799347 -2.12131348 272.25719788 -3.21411133 272.25637817 C-5.60546875 272.12939453 -5.60546875 272.12939453 -6.60546875 271.12939453 C-6.70301212 269.68643107 -6.73102329 268.23870656 -6.73130989 266.79244995 C-6.73391764 265.8505588 -6.73652539 264.90866764 -6.73921216 263.93823433 C-6.73586607 262.36779271 -6.73586607 262.36779271 -6.73245239 260.765625 C-6.73401238 259.662917 -6.73557237 258.56020901 -6.73717964 257.42408562 C-6.74119484 253.69823783 -6.73799798 249.97243019 -6.73486328 246.24658203 C-6.73621709 243.58799112 -6.73796049 240.92940305 -6.74017334 238.27081299 C-6.74463174 231.78082717 -6.74365426 225.29085288 -6.7407607 218.8008666 C-6.73850694 213.52868142 -6.73819402 208.25649949 -6.73928452 202.98431396 C-6.73943775 202.23539064 -6.73959098 201.48646732 -6.73974886 200.71484935 C-6.74006857 199.19366662 -6.74039278 197.67248388 -6.74072145 196.15130115 C-6.74357645 181.87022604 -6.74028891 167.58915735 -6.73492108 153.3080833 C-6.73045303 141.04083487 -6.73122895 128.77359591 -6.73583984 116.50634766 C-6.74118526 102.27813371 -6.74330175 88.04992539 -6.74022758 73.82171059 C-6.73990901 72.30596542 -6.73959464 70.79022026 -6.73928452 69.2744751 C-6.73913024 68.52860103 -6.73897596 67.78272695 -6.73881701 67.01425064 C-6.73795176 61.74531856 -6.73941491 56.47639003 -6.74176407 51.2074585 C-6.74456191 44.79081414 -6.74382416 38.37418203 -6.73848332 31.95753908 C-6.73584608 28.68051897 -6.73537539 25.40352365 -6.73813248 22.12650299 C-6.74084084 18.58203589 -6.73746671 15.03762737 -6.73245239 11.49316406 C-6.73468311 10.44620298 -6.73691384 9.39924191 -6.73921216 8.32055473 C-6.73660441 7.37866358 -6.73399666 6.43677242 -6.73130989 5.46633911 C-6.73114754 4.64706499 -6.73098519 3.82779087 -6.73081791 2.98369026 C-6.45801192 -1.05194091 -3.35825189 0.00251901 0 0 Z " fill="#FFFFFF" transform="translate(281.60546875,630.87060546875)"/>
<path d="M0 0 C2.35412286 1.01888301 3.68822967 2.18808749 5.49111938 4.01177979 C6.15150208 4.67238907 6.81188477 5.33299835 7.49227905 6.0136261 C8.19346863 6.73029953 8.8946582 7.44697296 9.61709595 8.18536377 C10.34390564 8.9164183 11.07071533 9.64747284 11.81954956 10.40068054 C14.13940496 12.73732909 16.44861295 15.08419236 18.75772095 17.43145752 C20.32864538 19.01742788 21.90025189 20.60272295 23.4725647 22.18731689 C27.32556578 26.07339574 31.16987613 29.96791295 35.00772095 33.86895752 C33.64659081 36.91477238 32.11441999 39.00734778 29.75137329 41.35235596 C29.09083954 42.01273865 28.43030579 42.67312134 27.74975586 43.35351562 C27.03824371 44.0547052 26.32673157 44.75589478 25.59365845 45.47833252 C24.86401886 46.20514221 24.13437927 46.9319519 23.38262939 47.68078613 C21.05398214 49.9982495 18.71847269 52.30865702 16.38272095 54.61895752 C14.80153442 56.19011196 13.2207997 57.76172123 11.64053345 59.33380127 C7.76815405 63.18414405 3.89011924 67.02871869 0.00772095 70.86895752 C-4.89701806 66.75565881 -9.51423186 62.48353291 -14.0196228 57.93927002 C-14.65340347 57.3040744 -15.28718414 56.66887878 -15.94017029 56.01443481 C-17.93909312 54.00997036 -19.93448689 52.00203538 -21.92977905 49.99395752 C-23.29478039 48.62393363 -24.66001266 47.25413978 -26.02548218 45.88458252 C-29.35042116 42.54869208 -32.67220258 39.20968716 -35.99227905 35.86895752 C-34.65247048 32.89905783 -33.16890308 30.78309004 -30.89120483 28.46148682 C-30.2636026 27.81789719 -29.63600037 27.17430756 -28.98937988 26.51121521 C-27.97374466 25.48753593 -27.97374466 25.48753593 -26.93759155 24.44317627 C-25.89065628 23.38269829 -25.89065628 23.38269829 -24.8225708 22.30079651 C-23.34753862 20.81127617 -21.86969517 19.32453522 -20.38925171 17.84039307 C-18.12033791 15.55953248 -15.87074154 13.26068851 -13.6211853 10.96075439 C-12.18613914 9.51624989 -10.74997857 8.07285147 -9.31259155 6.63067627 C-8.63954987 5.93810226 -7.96650818 5.24552826 -7.27307129 4.53196716 C-6.63916473 3.90413834 -6.00525818 3.27630951 -5.35214233 2.62945557 C-4.79858063 2.07082321 -4.24501892 1.51219086 -3.67468262 0.93663025 C-1.99227905 -0.13104248 -1.99227905 -0.13104248 0 0 Z " fill="#F51789" transform="translate(637.9922790527344,0.13104248046875)"/>
<path d="M0 0 C3.42541583 0.58344447 5.05698381 1.68841054 7.48339844 4.14282227 C8.14378113 4.80343155 8.80416382 5.46404083 9.48455811 6.14466858 C10.18574768 6.86134201 10.88693726 7.57801544 11.609375 8.31640625 C12.33618469 9.04746078 13.06299438 9.77851532 13.81182861 10.53172302 C16.13168401 12.86837157 18.440892 15.21523484 20.75 17.5625 C22.32092443 19.14847036 23.89253094 20.73376543 25.46484375 22.31835938 C29.31784484 26.20443822 33.16215519 30.09895543 37 34 C35.63886987 37.04581486 34.10669904 39.13839026 31.74365234 41.48339844 C31.08311859 42.14378113 30.42258484 42.80416382 29.74203491 43.48455811 C29.03052277 44.18574768 28.31901062 44.88693726 27.5859375 45.609375 C26.85629791 46.33618469 26.12665833 47.06299438 25.37490845 47.81182861 C23.0462612 50.12929198 20.71075174 52.4396995 18.375 54.75 C16.79381347 56.32115444 15.21307875 57.89276371 13.6328125 59.46484375 C9.7604331 63.31518653 5.88239829 67.15976117 2 71 C-2.90473901 66.88670129 -7.5219528 62.61457539 -12.02734375 58.0703125 C-12.66112442 57.43511688 -13.29490509 56.79992126 -13.94789124 56.14547729 C-15.94681406 54.14101284 -17.94220784 52.13307786 -19.9375 50.125 C-21.30250133 48.75497611 -22.6677336 47.38518226 -24.03320312 46.015625 C-27.35814211 42.67973457 -30.67992353 39.34072964 -34 36 C-33.67 35.01 -33.34 34.02 -33 33 C-32.34 33 -31.68 33 -31 33 C-31 32.34 -31 31.68 -31 31 C-29.625 29.375 -29.625 29.375 -28 28 C-27.34 28 -26.68 28 -26 28 C-26 27.34 -26 26.68 -26 26 C-25.34 26 -24.68 26 -24 26 C-24 25.34 -24 24.68 -24 24 C-23.34 24 -22.68 24 -22 24 C-22 23.34 -22 22.68 -22 22 C-21.34 22 -20.68 22 -20 22 C-20 21.34 -20 20.68 -20 20 C-18.625 18.375 -18.625 18.375 -17 17 C-16.34 17 -15.68 17 -15 17 C-15 16.34 -15 15.68 -15 15 C-14.34 15 -13.68 15 -13 15 C-13 14.34 -13 13.68 -13 13 C-12.34 13 -11.68 13 -11 13 C-11 12.34 -11 11.68 -11 11 C-10.34 11 -9.68 11 -9 11 C-8.67 10.01 -8.34 9.02 -8 8 C-7.34 8 -6.68 8 -6 8 C-6 7.34 -6 6.68 -6 6 C-5.34 6 -4.68 6 -4 6 C-4 5.34 -4 4.68 -4 4 C-3.34 4 -2.68 4 -2 4 C-2 3.34 -2 2.68 -2 2 C-1.34 2 -0.68 2 0 2 C0 1.34 0 0.68 0 0 Z " fill="#F6188A" transform="translate(545,0)"/>
<path d="M0 0 C1.07507813 -0.00128906 2.15015625 -0.00257813 3.2578125 -0.00390625 C4.38960937 -0.00003906 5.52140625 0.00382813 6.6875 0.0078125 C7.81929687 0.00394531 8.95109375 0.00007812 10.1171875 -0.00390625 C11.19226563 -0.00261719 12.26734375 -0.00132812 13.375 0 C14.86580078 0.00169189 14.86580078 0.00169189 16.38671875 0.00341797 C18.6875 0.1328125 18.6875 0.1328125 19.6875 1.1328125 C19.78696453 2.90140443 19.81830217 4.67392701 19.8203125 6.4453125 C19.82224609 8.05792969 19.82224609 8.05792969 19.82421875 9.703125 C19.82035156 10.83492187 19.81648438 11.96671875 19.8125 13.1328125 C19.81830078 14.83050781 19.81830078 14.83050781 19.82421875 16.5625 C19.82292969 17.63757813 19.82164062 18.71265625 19.8203125 19.8203125 C19.81918457 20.81417969 19.81805664 21.80804687 19.81689453 22.83203125 C19.6875 25.1328125 19.6875 25.1328125 18.6875 26.1328125 C16.91890807 26.23227703 15.14638549 26.26361467 13.375 26.265625 C12.29992187 26.26691406 11.22484375 26.26820313 10.1171875 26.26953125 C8.98539063 26.26566406 7.85359375 26.26179687 6.6875 26.2578125 C5.55570313 26.26167969 4.42390625 26.26554688 3.2578125 26.26953125 C2.18273437 26.26824219 1.10765625 26.26695312 0 26.265625 C-0.99386719 26.26449707 -1.98773438 26.26336914 -3.01171875 26.26220703 C-5.3125 26.1328125 -5.3125 26.1328125 -6.3125 25.1328125 C-6.41196453 23.36422057 -6.44330217 21.59169799 -6.4453125 19.8203125 C-6.44660156 18.74523437 -6.44789063 17.67015625 -6.44921875 16.5625 C-6.44341797 14.86480469 -6.44341797 14.86480469 -6.4375 13.1328125 C-6.44136719 12.00101563 -6.44523438 10.86921875 -6.44921875 9.703125 C-6.44792969 8.62804687 -6.44664062 7.55296875 -6.4453125 6.4453125 C-6.44418457 5.45144531 -6.44305664 4.45757813 -6.44189453 3.43359375 C-6.19695254 -0.92175212 -3.80529632 0.00431859 0 0 Z " fill="#FFFFFF" transform="translate(208.3125,599.8671875)"/>
<path d="M0 0 C1.07507813 -0.00128906 2.15015625 -0.00257813 3.2578125 -0.00390625 C4.38960937 -0.00003906 5.52140625 0.00382813 6.6875 0.0078125 C7.81929687 0.00394531 8.95109375 0.00007812 10.1171875 -0.00390625 C11.19226563 -0.00261719 12.26734375 -0.00132812 13.375 0 C14.86580078 0.00169189 14.86580078 0.00169189 16.38671875 0.00341797 C18.6875 0.1328125 18.6875 0.1328125 19.6875 1.1328125 C19.78696453 2.90140443 19.81830217 4.67392701 19.8203125 6.4453125 C19.82224609 8.05792969 19.82224609 8.05792969 19.82421875 9.703125 C19.82035156 10.83492187 19.81648438 11.96671875 19.8125 13.1328125 C19.81830078 14.83050781 19.81830078 14.83050781 19.82421875 16.5625 C19.82292969 17.63757813 19.82164062 18.71265625 19.8203125 19.8203125 C19.81918457 20.81417969 19.81805664 21.80804687 19.81689453 22.83203125 C19.6875 25.1328125 19.6875 25.1328125 18.6875 26.1328125 C16.91890807 26.23227703 15.14638549 26.26361467 13.375 26.265625 C12.29992187 26.26691406 11.22484375 26.26820313 10.1171875 26.26953125 C8.98539063 26.26566406 7.85359375 26.26179687 6.6875 26.2578125 C5.55570313 26.26167969 4.42390625 26.26554688 3.2578125 26.26953125 C2.18273437 26.26824219 1.10765625 26.26695312 0 26.265625 C-0.99386719 26.26449707 -1.98773438 26.26336914 -3.01171875 26.26220703 C-5.3125 26.1328125 -5.3125 26.1328125 -6.3125 25.1328125 C-6.41196453 23.36422057 -6.44330217 21.59169799 -6.4453125 19.8203125 C-6.44660156 18.74523437 -6.44789063 17.67015625 -6.44921875 16.5625 C-6.44341797 14.86480469 -6.44341797 14.86480469 -6.4375 13.1328125 C-6.44136719 12.00101563 -6.44523438 10.86921875 -6.44921875 9.703125 C-6.44792969 8.62804687 -6.44664062 7.55296875 -6.4453125 6.4453125 C-6.44418457 5.45144531 -6.44305664 4.45757813 -6.44189453 3.43359375 C-6.19695254 -0.92175212 -3.80529632 0.00431859 0 0 Z " fill="#FFFFFF" transform="translate(180.3125,599.8671875)"/>
</svg>
