<?xml version="1.0" encoding="UTF-8"?>
<svg version="1.1" xmlns="http://www.w3.org/2000/svg" width="900" height="567">
<path d="M0 0 C1.32 0 2.64 0 4 0 C5.56248344 3.12496689 4.86860077 6.35176924 4.625 9.75 C4.55925781 10.80574219 4.55925781 10.80574219 4.4921875 11.8828125 C4.21830279 15.97586729 3.74944856 19.96059926 3 24 C4.32 24 5.64 24 7 24 C7.76905625 26.73599206 8.12807412 29.17241486 8.1328125 32.01171875 C8.13474609 32.76598145 8.13667969 33.52024414 8.13867188 34.29736328 C8.13416016 35.0861084 8.12964844 35.87485352 8.125 36.6875 C8.12306641 37.49171387 8.12113281 38.29592773 8.11914062 39.12451172 C8.08007153 44.48240363 7.78613882 49.69356297 7 55 C8.98 55 10.96 55 13 55 C15.99223097 63.37824672 16.0698826 68.12279479 13.0625 76.375 C12.77181641 77.20644531 12.48113281 78.03789063 12.18164062 78.89453125 C11.46664967 80.93401364 10.73497517 82.96763389 10 85 C11.32 85.66 12.64 86.32 14 87 C14.103125 85.88625 14.20625 84.7725 14.3125 83.625 C14.929197 78.56445698 16.42506148 73.83377357 18 69 C18.66 69 19.32 69 20 69 C20 67.35 20 65.7 20 64 C21.65 64 23.3 64 25 64 C25 64.99 25 65.98 25 67 C27.31 67.33 29.62 67.66 32 68 C31.67 69.65 31.34 71.3 31 73 C33.475 72.505 33.475 72.505 36 72 C36 75.3 36 78.6 36 82 C36.66 82.33 37.32 82.66 38 83 C37.61593286 84.58622852 37.21673564 86.16879096 36.8125 87.75 C36.59207031 88.63171875 36.37164062 89.5134375 36.14453125 90.421875 C34.79207431 94.6500339 33.08769128 98.66705145 31.35766602 102.75292969 C29.14631133 108.04172978 27.10895225 113.39570468 25.0625 118.75 C24.629375 119.87873535 24.19625 121.0074707 23.75 122.17041016 C20.83807148 129.7707609 17.96920958 137.38592515 15.15625 145.0234375 C14.21756659 147.43991303 13.21600352 149.71436375 12 152 C13.98 151.67 15.96 151.34 18 151 C17.50843201 158.74942471 14.87299269 165.51184804 12.1875 172.75 C11.30475981 175.16100844 10.42323803 177.57246333 9.54296875 179.984375 C9.11371094 181.15621338 8.68445313 182.32805176 8.2421875 183.53540039 C6.72184278 187.77581154 5.30707015 192.04567079 3.92456055 196.33276367 C2.9509579 199.14148004 1.81989685 201.84128244 0.625 204.5625 C-1.95294463 210.58034007 -3.84706168 216.73772191 -5.76245117 222.98803711 C-7.48065131 228.52938492 -9.45112183 233.86333056 -11.82421875 239.1640625 C-13.11370162 242.27424378 -14.16933632 245.41885133 -15.21655273 248.6171875 C-16.49032786 252.49130567 -17.83991854 256.33855103 -19.1875 260.1875 C-19.48793213 261.04625732 -19.78836426 261.90501465 -20.09790039 262.78979492 C-22.3307134 269.14817085 -24.62276503 275.48355415 -26.9375 281.8125 C-30.74651345 292.23148909 -34.39985995 302.70105147 -38.02539062 313.18505859 C-39.61347026 317.77187175 -41.2116348 322.35513606 -42.8125 326.9375 C-43.09037354 327.73559082 -43.36824707 328.53368164 -43.65454102 329.35595703 C-44.92220365 332.98346988 -46.21497664 336.59711732 -47.57421875 340.19140625 C-48.80031707 343.4356841 -49.92461083 346.70213988 -51 350 C-52.27816679 353.91971149 -53.66192479 357.78212155 -55.12060547 361.63818359 C-56.99563397 366.67400417 -58.76544668 371.74845991 -60.5625 376.8125 C-64.52247532 387.95657981 -68.58476289 399.05656372 -72.77563477 410.11645508 C-74.87173557 415.70391265 -76.70495569 421.17230059 -78 427 C-78.66 427 -79.32 427 -80 427 C-80.144375 428.0725 -80.28875 429.145 -80.4375 430.25 C-80.83749442 432.91662949 -81.27591924 435.41399729 -82 438 C-82.66 438 -83.32 438 -84 438 C-84.103125 439.175625 -84.20625 440.35125 -84.3125 441.5625 C-84.61550844 445.01679622 -85.71150802 447.76891289 -87.11938477 450.92260742 C-88.91259811 455.15284095 -90.32404115 459.5304165 -91.8125 463.875 C-92.51659826 465.91547808 -93.22102869 467.95584157 -93.92578125 469.99609375 C-94.27334473 471.00397949 -94.6209082 472.01186523 -94.97900391 473.05029297 C-96.46810436 477.3523761 -97.98131511 481.64578662 -99.5 485.9375 C-99.88248901 487.019104 -99.88248901 487.019104 -100.27270508 488.12255859 C-100.84799372 489.74854101 -101.4239131 491.37430024 -102 493 C-92.01556405 492.59334559 -82.05065229 492.11288754 -72.09103394 491.28782654 C-55.27706712 489.91430051 -38.47265241 489.41519081 -21.61474609 488.99383545 C-15.64628497 488.8437131 -9.67809155 488.68360984 -3.70994949 488.52136421 C-1.67375843 488.46718069 0.36253705 488.41696493 2.39883423 488.3669281 C8.69646388 488.20114594 14.95715694 487.94832311 21.24223328 487.51647949 C33.76950398 486.73322635 46.32074917 486.65362756 58.86791992 486.47094727 C60.20989659 486.4503977 61.55187096 486.42969698 62.89384305 486.40885079 C91.01260164 485.97273185 119.13254437 485.71022717 147.25379968 485.49474788 C153.21972676 485.44852254 159.18563362 485.39984849 165.15154173 485.35125155 C176.90854835 485.25555563 188.66557117 485.16204628 200.42260742 485.07006836 C211.79175801 484.98111992 223.16089882 484.89104422 234.5300293 484.79956055 C235.23984309 484.79384928 235.94965688 484.78813801 236.68098018 484.78225368 C240.24460094 484.75357365 243.80822152 484.72487261 247.37184203 484.69616115 C276.58120238 484.46085332 305.79059106 484.22919789 335 484 C333.8626088 483.39048744 333.8626088 483.39048744 332.70223999 482.7686615 C331.21260239 481.96459618 331.21260239 481.96459618 329.69287109 481.14428711 C328.21516739 480.34914955 328.21516739 480.34914955 326.70761108 479.53794861 C313.9733033 472.3047418 308.1990626 461.5971878 303.75 448.25 C300.52628519 433.62605737 304.76793761 419.76753632 310.63671875 406.44921875 C313.35220876 399.57879561 315.26916884 392.42381195 317.30151367 385.32666016 C317.80625777 383.64535599 318.34386701 381.97379954 318.90161133 380.30932617 C320.31028232 376.06515296 321.60769043 371.79065892 322.90625 367.51171875 C323.1872757 366.58796951 323.46830139 365.66422028 323.75784302 364.71247864 C324.67272112 361.70440277 325.58641685 358.69596939 326.5 355.6875 C327.13195843 353.60806068 327.76395742 351.52863368 328.39599609 349.44921875 C329.66523272 345.27278121 330.93390115 341.09617166 332.20214844 336.91943359 C333.56775391 332.42232851 334.93492097 327.92570153 336.30316162 323.42939758 C337.20427093 320.46754223 338.10437054 317.50538081 339.00415039 314.54312134 C339.41019547 313.20688895 339.81659375 311.87076382 340.22338867 310.53475952 C342.23552879 303.92481987 344.20801288 297.30735735 346.09375 290.66015625 C347.59145366 285.38460768 349.18410327 280.15371773 350.875 274.9375 C352.97051621 268.38462273 354.94512746 261.80888378 356.8125 255.1875 C361.45803019 238.74006304 366.3742094 222.36740091 371.47265625 206.0546875 C371.67500381 205.40659119 371.87735138 204.75849487 372.08583069 204.09075928 C373.04970733 201.00606293 374.01810795 197.92290258 374.9934082 194.84179688 C376.98900456 188.48453477 378.78025843 182.13315619 380.29345703 175.64306641 C381.00416792 172.98440847 381.95958978 170.54487725 383 168 C383.43079215 166.59060239 383.83778522 165.17367459 384.21875 163.75 C384.42886719 162.9765625 384.63898437 162.203125 384.85546875 161.40625 C385.06816406 160.6121875 385.28085937 159.818125 385.5 159 C386.7844313 154.20478982 388.13806462 149.60623371 390 145 C390.71266896 142.50422759 391.39701197 140.00820143 392.0625 137.5 C394.33810295 129.10160286 396.896168 120.80182452 399.5 112.5 C402.28720825 103.60979642 405.0200165 94.72125569 407.41601562 85.71679688 C408.31449028 82.35861973 409.29787194 79.05241661 410.4140625 75.76171875 C412.28269651 70.24541682 413.88720725 64.65797527 415.5 59.0625 C421.52461136 38.23944372 421.52461136 38.23944372 424.6875 28.875 C424.91244141 28.2046875 425.13738281 27.534375 425.36914062 26.84375 C425.91133967 25.22868901 426.45545267 23.61427074 427 22 C420.565 21.505 420.565 21.505 414 21 C414 17.7 414 14.4 414 11 C415.62679687 10.96261719 417.25359375 10.92523438 418.9296875 10.88671875 C431.28649637 10.5507122 443.52622992 9.95155784 455.83187675 8.75878525 C472.95534167 7.11553457 490.07160441 6.14858434 507.25696182 5.46261978 C509.48726809 5.37300019 511.71743989 5.28049779 513.94760132 5.18734741 C544.2914467 3.92561612 574.63063996 3.27504861 605 3 C606.61312001 2.98338274 608.22623866 2.96663246 609.83935547 2.94970703 C637.55975674 2.67598463 665.28703669 3.43616367 693 4 C693.07625924 5.43536832 693.13063857 6.87191013 693.17578125 8.30859375 C693.22472534 9.50826782 693.22472534 9.50826782 693.2746582 10.73217773 C692.9406901 13.48971522 692.27561531 14.28259831 690.1875 16.0625 C687 18 687 18 684 18 C684 18.66 684 19.32 684 20 C686.475 19.505 686.475 19.505 689 19 C687.82911989 23.97624046 686.65376692 27.23876935 683 31 C680.75 32.3125 680.75 32.3125 679 33 C679.99 33.66 680.98 34.32 682 35 C681.69201674 36.48011371 681.378482 37.95907325 681.0625 39.4375 C680.88847656 40.26121094 680.71445312 41.08492187 680.53515625 41.93359375 C680 44 680 44 679 45 C677.33382885 45.04063832 675.66611905 45.042721 674 45 C674 46.98 674 48.96 674 51 C675.98 51 677.96 51 680 51 C680 54.3 680 57.6 680 61 C674.06 61 668.12 61 662 61 C662 61.66 662 62.32 662 63 C662.54140625 62.82597656 663.0828125 62.65195312 663.640625 62.47265625 C666.48751809 61.90233495 668.86718522 62.12862699 671.75 62.4375 C672.73484375 62.53933594 673.7196875 62.64117187 674.734375 62.74609375 C675.48203125 62.82988281 676.2296875 62.91367187 677 63 C677 65.64 677 68.28 677 71 C672.05 71.33 667.1 71.66 662 72 C661.67 73.32 661.34 74.64 661 76 C656.60345623 78.80794885 651.9622002 77.98726434 647 77.5625 C641.65460525 77.11334453 636.55292245 76.97275924 631.203125 77.46484375 C620.80661223 78.37766001 610.36608322 78.05558219 599.93994141 77.97949219 C582.86315087 77.86614406 566.46332065 78.27479219 549.625 81.4375 C536.2960944 83.8124286 523.09334849 85.02449707 509.58984375 85.8125 C506.36621967 86.04588455 503.19724115 86.53302956 500 87 C496.16957289 87.28175843 492.33281091 87.43536799 488.49609375 87.60546875 C484.56930747 87.79750383 480.8390984 88.07491605 477 89 C476.34 91.97 475.68 94.94 475 98 C476.32 98 477.64 98 479 98 C479.8929535 109.70761258 476.66173021 120.63018024 472.78515625 131.58203125 C471.29446279 136.17277378 470.16226702 140.87259622 468.96484375 145.546875 C468.14396746 148.48474805 467.14047721 151.17956673 466 154 C465.63213267 155.49190641 465.29726581 156.99243768 465 158.5 C464.52380897 160.9149688 463.98137504 163.04596563 463.05517578 165.33178711 C462.05436328 167.8625321 461.27601164 170.35027456 460.5546875 172.97265625 C460.2865625 173.94017822 460.0184375 174.9077002 459.7421875 175.90454102 C459.45601562 176.94666748 459.16984375 177.98879395 458.875 179.0625 C458.24804355 181.32309641 457.62041427 183.58350629 456.9921875 185.84375 C456.66573242 187.019375 456.33927734 188.195 456.00292969 189.40625 C454.3585922 195.2983259 452.68149649 201.18093725 451 207.0625 C450.66693848 208.22813477 450.33387695 209.39376953 449.99072266 210.59472656 C447.48715518 219.33838435 444.9370477 228.06797794 442.37426758 236.79443359 C440.40588998 243.52597573 438.55652453 250.27824993 436.82421875 257.07421875 C436 260 436 260 435.05078125 262.3046875 C433.51055328 266.25545814 432.54304638 270.33169016 431.5 274.4375 C430.15922682 279.69089308 428.79674551 284.87927529 427 290 C426.49844403 291.43695785 425.99831899 292.8744164 425.5 294.3125 C425.14421875 295.32763672 425.14421875 295.32763672 424.78125 296.36328125 C424.11514866 298.61137328 423.59361129 300.81489495 423.10546875 303.10546875 C421.93691762 308.48445222 420.38503016 313.72737318 418.8125 319 C416.31984872 327.43857474 413.90487357 335.89355215 411.5625 344.375 C408.80542183 354.32749466 405.8395066 364.20514361 402.75219727 374.06005859 C400.94085154 379.85655008 399.24387965 385.66583095 397.66992188 391.53125 C396.80180532 394.73037341 395.85255066 397.8950819 394.875 401.0625 C394.54242187 402.14660156 394.20984375 403.23070312 393.8671875 404.34765625 C393 407 393 407 392 409 C410.48 409 428.96 409 448 409 C448.33 407.02 448.66 405.04 449 403 C449.42545081 401.1668341 449.87249493 399.33855964 450.33984375 397.515625 C450.59830078 396.49726563 450.85675781 395.47890625 451.12304688 394.4296875 C451.66201931 392.32549776 452.20108046 390.22133075 452.74023438 388.1171875 C454.16901241 382.48716387 455.46758503 376.86525955 456.56860352 371.16210938 C457.28988466 367.54713157 458.26421642 364.00406269 459.21875 360.4453125 C459.89645367 357.45663932 460.4260255 354.50404566 460.9140625 351.48046875 C462.79941404 339.89646818 465.43820988 328.44984622 468 317 C468.18852539 316.15244141 468.37705078 315.30488281 468.57128906 314.43164062 C473.18015797 294.13818654 485.35712767 279.15628858 501 266 C501.62390625 265.45601563 502.2478125 264.91203125 502.890625 264.3515625 C514.8849203 254.74448131 534.51842499 253.64327917 549.1875 252 C549.92129883 251.91728851 550.65509766 251.83457703 551.41113281 251.74935913 C596.44965581 246.76123823 641.74022225 246.36564364 687 246 C686.21069814 251.87197507 685.01639493 257.4241367 683.4375 263.125 C683.11555664 264.44564453 683.11555664 264.44564453 682.78710938 265.79296875 C681.44193157 270.57502175 680.34709931 273.2415779 675.98046875 275.8203125 C675.27962158 276.19075684 674.57877441 276.56120117 673.85668945 276.94287109 C665.77991056 281.54148419 662.39657305 297.37200602 660 306 C658.84962466 310.96898238 657.81579826 315.96174105 656.91186523 320.98144531 C655.45492281 328.53518202 653.08313165 334.32795257 647.1875 339.4375 C641.86838172 342.04491092 637.50779718 342.51511374 631.875 341.0625 C614.6329809 336.81064155 596.01210652 342.62650246 580 349 C578.89686383 345.6905915 579.10058886 344.80517706 579.99609375 341.55078125 C580.22490234 340.70322266 580.45371094 339.85566406 580.68945312 338.98242188 C580.93630859 338.10134766 581.18316406 337.22027344 581.4375 336.3125 C581.68048828 335.41982422 581.92347656 334.52714844 582.17382812 333.60742188 C582.77509306 331.40278378 583.38406657 329.20057655 584 327 C582.78828125 327.0721875 581.5765625 327.144375 580.328125 327.21875 C568.20512024 327.9029558 556.14070728 328.11624081 544 328 C543.91363281 328.80179687 543.82726562 329.60359375 543.73828125 330.4296875 C542.80100966 338.01384845 541.26792457 345.07138562 539.12373352 352.38659668 C537.28359801 358.75340321 535.77746316 365.16738986 534.328125 371.6328125 C530.97800586 386.35041066 527.26563091 400.97017893 523.52075195 415.59075928 C522.13750787 420.99419834 520.76013235 426.39913935 519.38153076 431.80376434 C518.88044892 433.76770599 518.3789609 435.73154361 517.87744141 437.69537354 C514.87729266 449.45337543 511.92697862 461.22358982 509 473 C509.65288498 472.9830307 510.30576996 472.9660614 510.97843933 472.94857788 C517.77515736 472.77399522 524.57210887 472.61416596 531.36938477 472.46289062 C533.90593305 472.40450087 536.44239772 472.34235278 538.97875977 472.27636719 C542.62500791 472.18215995 546.27134331 472.10148335 549.91796875 472.0234375 C551.05147263 471.99124115 552.1849765 471.9590448 553.35282898 471.9258728 C554.94391228 471.89561508 554.94391228 471.89561508 556.56713867 471.86474609 C557.49757492 471.84253998 558.42801117 471.82033386 559.38664246 471.79745483 C562.53997317 472.04184998 565.69195784 472.69195784 568 475 C567.71269945 477.33944736 567.38063221 479.6739143 567 482 C561.24171892 483.88266645 555.71455585 484.58349788 549.6875 485.0625 C548.67171875 485.14556396 547.6559375 485.22862793 546.609375 485.31420898 C535.44836432 486.18253425 524.28789289 486.63423462 513.09875488 486.94140625 C510.87140733 487.00359009 508.64420859 487.07000996 506.41699219 487.13671875 C456.03165468 488.6181595 405.37457124 489.05165065 355 487 C355 487.99 355 488.98 355 490 C354.01 490.66 353.02 491.32 352 492 C353.24652344 492.09796875 354.49304688 492.1959375 355.77734375 492.296875 C389.49523955 495.16499477 389.49523955 495.16499477 400.734375 504.4296875 C402 506 402 506 402.375 509.5625 C402.189375 511.2640625 402.189375 511.2640625 402 513 C398.75323151 515.16451233 397.59693235 515.32068494 393.80859375 515.55859375 C392.64440918 515.63190918 391.48022461 515.70522461 390.28076172 515.78076172 C388.85395675 515.85606448 387.42702184 515.92892554 386 516 C385.15914856 516.04215637 384.31829712 516.08431274 383.45196533 516.12774658 C377.39999889 516.42341292 371.34687916 516.68350695 365.29272461 516.92993164 C362.10051705 517.06093978 358.90867955 517.19922021 355.71679688 517.33789062 C342.13641069 517.90768879 328.59166347 518.11394613 315 518 C324.15365767 521.05121922 334.86493257 520.23254166 344.44647217 520.44500732 C348.55835147 520.53811857 352.66976199 520.64897764 356.78125 520.7578125 C358.38150989 520.79982477 359.98177029 520.84181751 361.58203125 520.88378906 C362.33468262 520.90364868 363.08733398 520.9235083 363.86279297 520.94396973 C365.79261747 520.99456314 367.72247865 521.0437528 369.65234375 521.09277344 C372.56064892 521.17197759 375.4675637 521.26913756 378.375 521.375 C379.57358643 521.40303711 379.57358643 521.40303711 380.79638672 521.43164062 C385.83669028 521.63939705 389.46895683 522.76436656 394 525 C394.3125 527.25 394.3125 527.25 394 530 C392.37373596 531.38232443 390.7074998 532.71937515 389 534 C389 534.99 389 535.98 389 537 C391.67343931 538.33671966 393.73072378 538.12961184 396.72265625 538.1328125 C397.8936084 538.13458496 399.06456055 538.13635742 400.27099609 538.13818359 C401.52219238 538.13383301 402.77338867 538.12948242 404.0625 538.125 C405.32916504 538.1245166 406.59583008 538.1240332 407.90087891 538.12353516 C416.20440223 538.09283234 424.41280525 537.78731779 432.6796875 537.0234375 C436.21814693 536.99846014 438.73340486 537.69136403 442 539 C442.1875 541.875 442.1875 541.875 442 545 C441.01 545.66 440.02 546.32 439 547 C443.01984249 548.3399475 446.88811232 548.13903137 451.0793457 548.12939453 C452.01004883 548.13114685 452.94075195 548.13289917 453.8996582 548.13470459 C456.99171797 548.1391208 460.08372084 548.13618139 463.17578125 548.1328125 C465.33839428 548.13348668 467.50100723 548.13445767 469.66362 548.13571167 C474.21414913 548.1371892 478.76465869 548.13503627 483.31518555 548.13037109 C489.08499158 548.12473829 494.85475042 548.12791087 500.62455463 548.13394356 C505.1042057 548.1376033 509.5838461 548.13638501 514.06349754 548.13381577 C516.18607781 548.13315796 518.30865912 548.13393382 520.43123817 548.13629532 C523.44157291 548.13890429 526.45182938 548.13550759 529.4621582 548.12939453 C530.41813054 548.12933977 531.37410288 548.12928501 532.35904408 548.12922859 C537.32181176 548.10599261 542.24017134 547.94668523 547.19100952 547.5927124 C548.6960833 547.49179448 548.6960833 547.49179448 550.23156261 547.38883781 C552.13785856 547.25277573 554.04273626 547.09429569 555.94492817 546.90951729 C560.56493356 546.58148329 562.29673154 546.46623554 566.11445618 549.36380005 C568 552 568 552 568 554 C568.66 554 569.32 554 570 554 C570.33 555.98 570.66 557.96 571 560 C570.3590165 559.99826121 569.71803301 559.99652243 569.05762577 559.99473095 C550.23585939 559.95131305 531.41887423 560.09349541 512.59852004 560.30535412 C509.30898733 560.34216923 506.01944351 560.37793959 502.7298997 560.41374767 C493.67502483 560.5123592 484.62017732 560.61330846 475.56534082 560.71537769 C468.80133878 560.79161933 462.03732895 560.86713648 455.27331543 560.94235229 C404.65690816 561.50593373 354.04116004 562.11627274 303.42578125 562.765625 C301.50676817 562.7902376 301.50676817 562.7902376 299.54898715 562.81534743 C272.94186528 563.15675572 246.3347908 563.50170768 219.72778225 563.8518362 C209.06005434 563.99219349 198.39231611 564.13175795 187.72457194 564.27087379 C185.40175605 564.30117681 183.07894063 564.3315164 180.75612569 564.36189294 C155.031078 564.69820329 129.30603269 565.01785979 103.58007812 565.27685547 C102.51631714 565.28757403 101.45255616 565.29829258 100.35655999 565.30933595 C90.99173956 565.40342975 81.62690562 565.4961145 72.26205063 565.58670425 C51.52568719 565.78778204 30.79469458 566.02146055 10.06240463 566.49090958 C-29.00875596 567.37014758 -68.09743226 567.11359973 -107.17598462 567.07202756 C-118.09103796 567.06062063 -129.00609211 567.05529446 -139.92114997 567.05032361 C-162.2807733 567.04001239 -184.64038587 567.02255097 -207 567 C-205.94201302 559.32808934 -205.94201302 559.32808934 -204.74072266 555.69213867 C-204.49021149 554.92411423 -204.23970032 554.15608978 -203.9815979 553.36479187 C-203.57691788 552.15361443 -203.57691788 552.15361443 -203.1640625 550.91796875 C-202.88404388 550.06374832 -202.60402527 549.20952789 -202.31552124 548.329422 C-201.42414689 545.61361308 -200.52490538 542.90049265 -199.625 540.1875 C-198.73382972 537.4847189 -197.84432914 534.78139703 -196.9559021 532.07771301 C-196.40464268 530.40185091 -195.85157297 528.72658268 -195.29629517 527.05204773 C-193.67476964 522.14305582 -192.14266781 517.21436872 -190.67538452 512.2570343 C-188.83534614 506.10790056 -186.67007828 500.11875815 -184.375 494.125 C-181.5990232 486.8398268 -179.12739721 479.46616314 -176.6875 472.0625 C-173.39057803 462.06037511 -169.92492216 452.13703552 -166.31860352 442.24267578 C-163.27833131 433.8650665 -160.4266061 425.43255653 -157.65014648 416.96411133 C-155.88533816 411.59131264 -154.02297481 406.28050013 -152 401 C-148.32793808 391.21058461 -144.7700491 381.38896464 -141.375 371.5 C-137.34833418 359.78578519 -133.01773653 348.18825407 -128.65576172 336.59570312 C-125.63250834 328.53840998 -122.76414356 320.45839578 -120.1159668 312.26953125 C-119.03805018 309.11147844 -117.81944551 306.06395822 -116.5 303 C-114.59359239 298.56760231 -112.98327935 294.08826201 -111.5 289.5 C-109.70315308 283.94788988 -107.6239424 278.59502319 -105.3203125 273.234375 C-103.72423039 269.32444604 -102.32367128 265.36322893 -100.9375 261.375 C-99.09119039 256.06345206 -97.17483955 250.81200496 -95.046875 245.60546875 C-91.83447035 237.61041687 -88.89542001 229.5004819 -85.9765625 221.39453125 C-85.62819336 220.42870117 -85.27982422 219.46287109 -84.92089844 218.46777344 C-84.24137602 216.58021115 -83.56477607 214.6915933 -82.89160156 212.80175781 C-81.09520687 207.81015146 -79.12748933 202.96626913 -76.93310547 198.13745117 C-75.46841543 194.78230694 -74.29891488 191.34027472 -73.125 187.875 C-70.77522448 181.07818439 -68.20792292 174.41473039 -65.50390625 167.75 C-61.9060344 158.84321627 -58.62684297 149.80972737 -55.4375 140.75 C-53.58316379 135.52253792 -51.54199846 130.41457631 -49.37890625 125.30859375 C-44.97288885 114.73664833 -40.89539458 104.03152161 -37.21704102 93.18481445 C-35.47967767 88.13025904 -33.45228287 83.22250235 -31.37841797 78.29736328 C-28.89255295 72.35083601 -26.51413294 66.36089059 -24.125 60.375 C-23.86431732 59.72235168 -23.60363464 59.06970337 -23.33505249 58.39727783 C-20.14068945 50.39785812 -16.95182617 42.39620832 -13.8125 34.375 C-13.5335791 33.66649902 -13.2546582 32.95799805 -12.96728516 32.22802734 C-11.78352352 29.18461191 -10.67417607 26.20030568 -10 23 C-9.34 23 -8.68 23 -8 23 C-7.938125 22.0925 -7.87625 21.185 -7.8125 20.25 C-6.82352913 13.13813594 -3.25120048 6.33606048 0 0 Z M4 63 C5 65 5 65 5 65 Z M30 74 C29.67 75.32 29.34 76.64 29 78 C29.66 77.67 30.32 77.34 31 77 C30.67 76.01 30.34 75.02 30 74 Z M28 79 C26.99394407 81.60197202 25.99497475 84.20629362 25 86.8125 C24.71382812 87.55048828 24.42765625 88.28847656 24.1328125 89.04882812 C23.86210937 89.76103516 23.59140625 90.47324219 23.3125 91.20703125 C23.06113281 91.8616333 22.80976563 92.51623535 22.55078125 93.19067383 C21.85439094 95.16311143 21.85439094 95.16311143 22 98 C22.66 98 23.32 98 24 98 C24.867242 95.58732675 25.71896936 93.17095531 26.5625 90.75 C26.80935547 90.06808594 27.05621094 89.38617188 27.31054688 88.68359375 C28.58101813 84.99743771 29.17886454 82.7121692 28 79 Z M21 99 C18.6109802 103.53338332 18.6109802 103.53338332 18.3125 108.4375 C18.539375 108.953125 18.76625 109.46875 19 110 C21.3890198 105.46661668 21.3890198 105.46661668 21.6875 100.5625 C21.460625 100.046875 21.23375 99.53125 21 99 Z M17 110 C16.73445312 110.74765625 16.46890625 111.4953125 16.1953125 112.265625 C15.84210938 113.25046875 15.48890625 114.2353125 15.125 115.25 C14.77695313 116.22453125 14.42890625 117.1990625 14.0703125 118.203125 C13 121 13 121 11.8046875 123.109375 C10.8005098 125.46870512 11.1536244 126.63014831 12 129 C16.16120623 119.81668901 16.16120623 119.81668901 18 110 C17.67 110 17.34 110 17 110 Z M10 129 C9.46770674 130.26607607 8.94955456 131.53810412 8.4375 132.8125 C8.14746094 133.52019531 7.85742188 134.22789062 7.55859375 134.95703125 C6.74936976 137.1735067 6.74936976 137.1735067 8 140 C8.7734375 138.39125 8.7734375 138.39125 9.5625 136.75 C9.99755859 135.84507812 9.99755859 135.84507812 10.44140625 134.921875 C11.11761944 132.59532334 10.75753907 131.26760041 10 129 Z M6 140 C5.67 141.98 5.34 143.96 5 146 C5.66 145.34 6.32 144.68 7 144 C6.6814823 141.89179203 6.6814823 141.89179203 6 140 Z " fill="#FFFFFF" transform="translate(207,0)"/>
<path d="M0 0 C-0.5281048 6.34983158 -1.69695606 11.86068338 -3.75 17.875 C-6.24466459 25.44214925 -8.41189888 33.04108958 -10.35058594 40.76904297 C-11.33672971 44.66051801 -12.49664419 48.27304948 -14 52 C-14.95286102 55.10889143 -15.81565855 58.24257131 -16.6875 61.375 C-18.85025895 69.0489382 -21.09735882 76.69081297 -23.4375 84.3125 C-26.7994745 95.2750148 -30.01757445 106.27643665 -33.2109375 117.2890625 C-34.13499561 120.46379681 -35.07219178 123.63450448 -36.01171875 126.8046875 C-39.86600501 139.81597232 -43.4515319 152.90240229 -47 166 C-47.66 166 -48.32 166 -49 166 C-49.103125 167.27875 -49.20625 168.5575 -49.3125 169.875 C-49.67569948 173.07336037 -50.20968649 176.01111516 -51.1796875 179.078125 C-52.7365392 184.11958124 -54.23055796 189.17675262 -55.70703125 194.2421875 C-56.21674852 195.98699329 -56.72651525 197.73178464 -57.23632812 199.4765625 C-58.01957013 202.1587717 -58.80259315 204.84104438 -59.58520508 207.5234375 C-63.11255849 219.61081571 -66.68938429 231.68209904 -70.32015991 243.73881531 C-73.4382732 254.10982778 -76.50149735 264.45753761 -79 275 C-79.66 275 -80.32 275 -81 275 C-81.061875 276.175625 -81.12375 277.35125 -81.1875 278.5625 C-81.75057463 283.84867828 -83.41982654 288.70061983 -85.18432617 293.68188477 C-86.39396227 297.10299183 -87.39856394 300.41872163 -88 304 C-92.49652778 304.36458333 -92.49652778 304.36458333 -94.8125 302.6875 C-96 301 -96 301 -96 298 C-96.66 298 -97.32 298 -98 298 C-98.17015625 298.54527344 -98.3403125 299.09054687 -98.515625 299.65234375 C-102.57607568 312.28725678 -108.4034419 327.44805623 -120 334.9375 C-123.2371308 336.08398382 -125.59209 336.30981 -129 336 C-129.66 335.67 -130.32 335.34 -131 335 C-131.16382927 332.21490242 -131.04542614 330.1346114 -130.1484375 327.4765625 C-128.63054256 322.88157442 -127.58461683 318.21315315 -126.5 313.5 C-125.21181104 307.90223341 -123.8790648 302.43470896 -122 297 C-121.64105707 295.5268384 -121.30522004 294.0477225 -121 292.5625 C-119.97677747 287.806114 -118.93110237 283.08128765 -116.9375 278.625 C-115.58074496 274.8260859 -115.35117646 270.99797016 -115 267 C-115.39832031 268.134375 -115.79664063 269.26875 -116.20703125 270.4375 C-116.74214459 271.95834843 -117.27730327 273.47918091 -117.8125 275 C-118.07353516 275.74378906 -118.33457031 276.48757813 -118.60351562 277.25390625 C-132.87391153 317.77478351 -132.87391153 317.77478351 -138 322 C-141.22090079 322.4026126 -143.1335699 322.6274149 -145.8125 320.6875 C-147 319 -147 319 -148 316 C-148.66 315.67 -149.32 315.34 -150 315 C-150.16435547 315.81791016 -150.16435547 315.81791016 -150.33203125 316.65234375 C-151.13936722 320.49211241 -152.0181824 324.23104506 -153.3125 327.9375 C-154.92177347 332.5692668 -156.20817526 337.2724405 -157.5 342 C-159.16066858 348.06902271 -160.91053808 354.06152927 -163 360 C-165.3125 359.8125 -165.3125 359.8125 -168 359 C-169.66796875 356.44921875 -169.66796875 356.44921875 -171 354 C-176.62161482 371.64734029 -182.20312932 389.31711109 -187.17578125 407.16015625 C-188.03965909 410.13664531 -189.01090349 413.0629119 -190 416 C-190.6951353 418.18508568 -191.38253369 420.37264651 -192.0625 422.5625 C-192.40410156 423.65691406 -192.74570312 424.75132812 -193.09765625 425.87890625 C-193.87858705 428.58004783 -194.50058463 431.23519535 -195 434 C-195.66 434 -196.32 434 -197 434 C-197.17015625 435.72089844 -197.17015625 435.72089844 -197.34375 437.4765625 C-197.90528493 441.96291022 -199.09295661 446.08954784 -200.5 450.375 C-200.72558594 451.08527344 -200.95117188 451.79554688 -201.18359375 452.52734375 C-202.82874504 457.65749008 -202.82874504 457.65749008 -204 460 C-206.5625 460.625 -206.5625 460.625 -209 461 C-209 461.66 -209 462.32 -209 463 C-211.4375 462.625 -211.4375 462.625 -214 462 C-217.3309388 455.33812239 -213.83515174 446.86118675 -211.875 440.25 C-211.40175293 438.6103125 -211.40175293 438.6103125 -210.91894531 436.9375 C-209.95784961 433.62138244 -208.98107563 430.31025519 -208 427 C-207.7122168 426.02095703 -207.42443359 425.04191406 -207.12792969 424.03320312 C-202.82726887 409.41197666 -202.82726887 409.41197666 -200.47265625 402.45703125 C-199.05415341 398.23805853 -197.84550643 393.98412005 -196.6875 389.6875 C-193.95994691 379.73940749 -190.99814031 369.8694012 -188 360 C-186.64784835 355.54854837 -185.2958295 351.09705682 -183.94470215 346.64529419 C-183.52304826 345.25615265 -183.10125451 343.86705355 -182.67932129 342.47799683 C-180.09909765 333.98116815 -177.54086668 325.4781871 -175.015625 316.96484375 C-174.76826096 316.13102676 -174.52089691 315.29720978 -174.26603699 314.43812561 C-173.06382547 310.38342701 -171.86405622 306.3280217 -170.66723633 302.27172852 C-168.55888582 295.13980705 -166.40184221 288.03988233 -164 281 C-163.32215008 278.66989091 -162.65583207 276.33640176 -162 274 C-160.515 269.05 -160.515 269.05 -159 264 C-206.52 264 -254.04 264 -303 264 C-303.33 265.98 -303.66 267.96 -304 270 C-304.71501611 272.22349464 -305.48361743 274.43017456 -306.29296875 276.62109375 C-306.51953156 277.23810654 -306.74609436 277.85511932 -306.97952271 278.49082947 C-307.71004877 280.47512232 -308.44845686 282.45636529 -309.1875 284.4375 C-309.69383146 285.80606803 -310.19993433 287.17472066 -310.70581055 288.54345703 C-313.58582269 296.31420394 -316.54682203 304.04428268 -319.67578125 311.71875 C-323.40643532 320.96284857 -326.78418197 330.33758 -330.0625 339.75 C-332.10245825 345.60491086 -334.33791376 351.32488201 -336.77734375 357.02734375 C-338.61150062 361.48674751 -340.19742626 366.02754085 -341.7890625 370.578125 C-344.14242721 377.22827818 -346.6858917 383.80378508 -349.25 390.375 C-349.87114225 391.9687311 -350.49223461 393.56248164 -351.11328125 395.15625 C-351.4273291 395.96191406 -351.74137695 396.76757812 -352.06494141 397.59765625 C-352.95602946 399.8870313 -353.84392062 402.17761362 -354.73046875 404.46875 C-358.09443668 413.15514715 -361.52857926 421.80959201 -365.01269531 430.44848633 C-367.35006334 436.28113773 -369.54749951 442.15490129 -371.6875 448.0625 C-373.82427775 453.95683304 -376.11312726 459.68550104 -378.80078125 465.35546875 C-381.11874361 470.46706653 -383.03640755 475.74425681 -385 481 C-386.98 481 -388.96 481 -391 481 C-391.23737365 472.08530089 -390.79362465 463.74392018 -389 455 C-389.66 456.32 -390.32 457.64 -391 459 C-392.65 458.67 -394.3 458.34 -396 458 C-397.26991104 447.97799937 -396.53749569 438.89842269 -395 429 C-396.16402344 429.07927734 -396.16402344 429.07927734 -397.3515625 429.16015625 C-400 429 -400 429 -402.375 426.4375 C-405.93663959 418.90326241 -401.42142603 410.48952703 -399 403 C-399.99 402.67 -400.98 402.34 -402 402 C-403.66885046 406.80628933 -405.21177864 411.58565411 -406.39453125 416.5390625 C-407.25563818 420.03904552 -408.19266809 423.51848171 -409.125 427 C-409.39944946 428.02601318 -409.39944946 428.02601318 -409.67944336 429.07275391 C-410.11910869 430.71530861 -410.55948033 432.35767422 -411 434 C-412.65 434 -414.3 434 -416 434 C-417.63371267 428.08184881 -415.73556698 423.76208238 -414 418 C-417.63 417.67 -421.26 417.34 -425 417 C-424.67 413.37 -424.34 409.74 -424 406 C-424.99 405.67 -425.98 405.34 -427 405 C-427.26246967 400.35152399 -426.54506248 397.2855276 -424.625 393.0625 C-422.72102655 388.73136493 -421.14623534 384.58494138 -420 380 C-419.34 380 -418.68 380 -418 380 C-417.79375 378.845 -417.5875 377.69 -417.375 376.5 C-415.88548838 369.78135184 -413.28080715 363.43835326 -410.79345703 357.04101562 C-410.02163373 355.0556486 -409.25748341 353.06751374 -408.49609375 351.078125 C-407.33578983 348.05009541 -406.170313 345.02417166 -405 342 C-406.65 342.33 -408.3 342.66 -410 343 C-409.63325245 339.33252452 -408.84320185 336.48559745 -407.1171875 333.26953125 C-405.1018513 329.33349674 -403.68729641 325.40087005 -402.375 321.1875 C-399.84506279 313.33014709 -397.02731971 305.60188373 -394.125 297.875 C-390.38908394 287.91185321 -386.87707608 277.90040777 -383.60009766 267.77685547 C-381.95392938 262.71805034 -380.13271001 257.87137105 -378 253 C-377.30899447 251.00827818 -376.64097297 249.00838196 -376 247 C-374.54490216 242.54651875 -372.84586007 238.30700684 -371 234 C-369.98716941 231.06360808 -369.01725231 228.11591027 -368.0625 225.16015625 C-367.04102444 222.12201753 -365.93810934 219.12966027 -364.80371094 216.13256836 C-363.37827068 212.35030206 -362.00457422 208.54918543 -360.625 204.75 C-360.12432007 203.37158936 -360.12432007 203.37158936 -359.61352539 201.96533203 C-358.40799872 198.64392307 -357.20384298 195.32201959 -356 192 C-355.7542926 191.32215454 -355.50858521 190.64430908 -355.25543213 189.94592285 C-346.60224106 166.13776562 -346.60224106 166.13776562 -338.17944336 142.24755859 C-336.181061 136.47566775 -334.09493408 130.73747261 -332 125 C-331.36810586 123.26055602 -330.7365889 121.52097496 -330.10546875 119.78125 C-329.46622241 118.02080552 -328.8268974 116.26038962 -328.1875 114.5 C-327.67038452 113.0761499 -327.67038452 113.0761499 -327.14282227 111.62353516 C-325.21022369 106.30833513 -323.26308846 100.9989222 -321.29760742 95.69580078 C-318.26910262 87.5240816 -315.34940057 79.32084982 -312.49511719 71.08666992 C-310.44946876 65.2109579 -308.25688477 59.41304235 -305.984375 53.62109375 C-304.89881882 50.84083742 -304.89881882 50.84083742 -303.9375 47.25 C-302.92523774 43.74082417 -301.51160341 40.60710526 -299.99609375 37.29296875 C-298.79574925 34.52982278 -297.87630581 31.72869958 -296.96508789 28.85986328 C-295.69731924 25.10306034 -294.29905133 21.40036249 -292.8984375 17.69140625 C-292.480177 16.58013367 -292.480177 16.58013367 -292.0534668 15.44641113 C-291.36988426 13.63059927 -290.68506633 11.81525258 -290 10 C-251.7340365 8.4838549 -213.46913295 6.9997019 -175.1875 5.9375 C-174.48056881 5.91786446 -173.77363762 5.89822891 -173.04528427 5.87799835 C-171.61644425 5.83831731 -170.18760393 5.79864699 -168.75876331 5.75898743 C-165.23630418 5.66118212 -161.71385184 5.56313556 -158.19140625 5.46484375 C-157.50597685 5.44574699 -156.82054745 5.42665024 -156.11434746 5.40697479 C-139.28126858 4.93640415 -122.45256092 4.34823288 -105.62353516 3.75195312 C-92.76926814 3.29753986 -79.91466165 2.86458504 -67.05859375 2.46484375 C-65.62239582 2.42005463 -64.1861979 2.375265 -62.75 2.33047485 C-57.17829933 2.15701289 -51.60659374 1.98379566 -46.034729 1.81567383 C-32.45772788 1.40525604 -18.89123354 0.96642468 -5.32983398 0.18579102 C-3.55490427 0.08675725 -1.77769041 0 0 0 Z M-212.75 82.4375 C-214.39542786 82.4669722 -214.39542786 82.4669722 -216.07409668 82.49703979 C-219.10685803 82.55304953 -222.13934225 82.61643794 -225.171875 82.68359375 C-226.05141846 82.70031128 -226.93096191 82.71702881 -227.8371582 82.73425293 C-232.05383417 82.7321648 -232.05383417 82.7321648 -236 84 C-237.03258268 86.25655493 -237.03258268 86.25655493 -237.9609375 89.0625 C-238.34419189 90.15344971 -238.72744629 91.24439941 -239.12231445 92.3684082 C-239.53570068 93.5668335 -239.94908691 94.76525879 -240.375 96 C-241.03926835 97.89524566 -241.70357555 99.79047825 -242.36952209 101.68513489 C-242.839808 103.02323221 -243.30930259 104.36160787 -243.77806091 105.70024109 C-245.53365086 110.70537451 -247.33155595 115.69402162 -249.15234375 120.67578125 C-249.41589661 121.39708221 -249.67944946 122.11838318 -249.95098877 122.86154175 C-250.98716682 125.69499388 -252.02444134 128.52803762 -253.06439209 131.36010742 C-256.14998263 139.76749072 -259.09210518 148.20472665 -261.8984375 156.70947266 C-263.17268357 160.51583094 -264.55306115 164.2562012 -266 168 C-270.14589704 178.95120703 -274.14138355 189.94410606 -278 201 C-276.19982422 200.7834375 -276.19982422 200.7834375 -274.36328125 200.5625 C-265.06297759 199.50453393 -255.86529557 198.80591573 -246.5 198.8125 C-245.61094971 198.81185547 -244.72189941 198.81121094 -243.8059082 198.81054688 C-237.54088161 198.86386109 -237.54088161 198.86386109 -235.02319336 199.49755859 C-227.70445704 201.31509924 -220.52825209 199.60386421 -213.4375 197.6875 C-194.44803456 192.99876364 -174.32163044 191.86574628 -154.8125 191.5 C-153.893479 191.4693042 -152.97445801 191.4386084 -152.02758789 191.40698242 C-147.60828885 191.40572324 -144.86387111 191.66449731 -141.38671875 194.53125 C-140.59910156 195.3459375 -139.81148437 196.160625 -139 197 C-133.02479566 177.87831437 -133.02479566 177.87831437 -127.5480957 158.60986328 C-126.48934745 154.68967206 -125.30715064 150.84395287 -124 147 C-123.34761558 144.91870881 -122.7019575 142.83529916 -122.0625 140.75 C-121.71058594 139.60273438 -121.35867188 138.45546875 -120.99609375 137.2734375 C-120.19577379 134.64336642 -119.40646228 132.01070117 -118.625 129.375 C-117.46910776 125.50338244 -116.26139623 121.64990119 -115.03909302 117.79888916 C-114.77869232 116.97838074 -114.51829163 116.15787231 -114.25 115.3125 C-114.01076813 114.5590329 -113.77153625 113.8055658 -113.52505493 113.02926636 C-111.40178595 106.31882346 -109.34046282 99.59055647 -107.296875 92.85546875 C-106.9776709 91.80500366 -106.6584668 90.75453857 -106.32958984 89.67224121 C-105.55258702 87.11497068 -104.77606475 84.55755533 -104 82 C-158.37743681 81.82327157 -158.37743681 81.82327157 -212.75 82.4375 Z M-113 259 C-112.67 259.99 -112.34 260.98 -112 262 C-111.67 261.01 -111.34 260.02 -111 259 C-111.66 259 -112.32 259 -113 259 Z M-114 262 C-113 266 -113 266 -113 266 Z M-405 340 C-404 342 -404 342 -404 342 Z M-397 349 C-398.50776616 353.10135565 -400.00487576 357.20652067 -401.5 361.3125 C-401.92925781 362.47974609 -402.35851562 363.64699219 -402.80078125 364.84960938 C-403.20683594 365.96787109 -403.61289062 367.08613281 -404.03125 368.23828125 C-404.40830078 369.26993408 -404.78535156 370.30158691 -405.17382812 371.36450195 C-406.14956274 374.01678062 -406.14956274 374.01678062 -406 377 C-405.34 377 -404.68 377 -404 377 C-403.60167969 375.78183594 -403.20335937 374.56367188 -402.79296875 373.30859375 C-402.25797544 371.68484214 -401.72281004 370.06114722 -401.1875 368.4375 C-400.92646484 367.63763672 -400.66542969 366.83777344 -400.39648438 366.01367188 C-399.16849345 362.29937833 -397.89947958 358.67005622 -396.30078125 355.09765625 C-394.80641341 352.09894456 -394.80641341 352.09894456 -395 349 C-395.66 349 -396.32 349 -397 349 Z M-407 379 C-407.33 379.66 -407.66 380.32 -408 381 C-407.34 381 -406.68 381 -406 381 C-406.33 380.34 -406.66 379.68 -407 379 Z M-409 382 C-408.67 383.32 -408.34 384.64 -408 386 C-407.67 384.68 -407.34 383.36 -407 382 C-407.66 382 -408.32 382 -409 382 Z M-410 387 C-409 389 -409 389 -409 389 Z M-412 391 C-411 394 -411 394 -411 394 Z M-416 403 C-415 405 -415 405 -415 405 Z M-394 423 C-394.33 424.98 -394.66 426.96 -395 429 C-394.34 428.01 -393.68 427.02 -393 426 C-393.33 425.01 -393.66 424.02 -394 423 Z " fill="#FFFFFF" transform="translate(606,3)"/>
<path d="M0 0 C0.88945313 0.00644531 1.77890625 0.01289062 2.6953125 0.01953125 C9.41569911 0.28637013 13.59320168 2.24922354 18.375 7 C21.66172574 11.93008861 20.8956537 17.23648462 20.375 23 C19.40667551 27.7685858 17.92269188 32.39147105 16.375 37 C17.66535156 37.03738281 18.95570313 37.07476562 20.28515625 37.11328125 C22.00263149 37.17897702 23.72007815 37.2454231 25.4375 37.3125 C26.70883789 37.34633789 26.70883789 37.34633789 28.00585938 37.38085938 C34.58770691 37.6603973 39.95866669 38.45305407 44.6875 43.4375 C45.244375 44.283125 45.80125 45.12875 46.375 46 C46.808125 46.598125 47.24125 47.19625 47.6875 47.8125 C48.78693544 51.31070367 48.05144279 54.48361556 47.375 58 C47.18808594 58.98613281 47.00117187 59.97226563 46.80859375 60.98828125 C44.78626543 70.63767635 42.47192799 81.63812801 34.375 88 C33.80394531 88.44988281 33.23289062 88.89976562 32.64453125 89.36328125 C27.70546175 93.10180933 24.19920281 94.13235668 17.953125 94.09765625 C16.92832031 94.09443359 15.90351562 94.09121094 14.84765625 94.08789062 C13.78417969 94.07951172 12.72070312 94.07113281 11.625 94.0625 C10.54605469 94.05798828 9.46710938 94.05347656 8.35546875 94.04882812 C5.69525617 94.03705727 3.03515635 94.02061399 0.375 94 C0.31731445 94.74040527 0.25962891 95.48081055 0.20019531 96.24365234 C0.11866211 97.22285645 0.03712891 98.20206055 -0.046875 99.2109375 C-0.12518555 100.17821777 -0.20349609 101.14549805 -0.28417969 102.14208984 C-1.35007288 111.08001661 -5.29799732 120.61093729 -12.3125 126.4375 C-20.26935737 131.66037301 -30.02811217 131.387622 -39.25 131.4375 C-40.33023438 131.47037109 -41.41046875 131.50324219 -42.5234375 131.53710938 C-49.43178806 131.58344587 -54.39551173 130.74847003 -59.625 126 C-62.67256493 121.4286526 -62.25867296 117.36468759 -61.625 112 C-60.31721487 106.55920476 -58.47814601 101.27484776 -56.625 96 C-57.2547876 96.0314209 -57.8845752 96.0628418 -58.53344727 96.09521484 C-61.41775844 96.22079246 -64.30149371 96.29823479 -67.1875 96.375 C-68.17814453 96.42527344 -69.16878906 96.47554688 -70.18945312 96.52734375 C-76.35026717 96.65015067 -79.8556049 95.99641091 -84.38598633 91.70825195 C-86.80889809 88.36773696 -86.96160299 85.01383193 -86.625 81 C-85.89932667 77.23810944 -84.77885404 73.64994646 -83.625 70 C-82.95397809 67.62622684 -82.28746445 65.25117556 -81.625 62.875 C-80.95972222 60.58292975 -80.29316295 58.29123085 -79.625 56 C-79.37878906 55.10410156 -79.13257813 54.20820313 -78.87890625 53.28515625 C-77.40585231 48.28343074 -75.81368148 45.35094519 -71.625 42 C-71.09608154 41.57017822 -70.56716309 41.14035645 -70.0222168 40.69750977 C-64.03994038 36.37043397 -58.8254223 36.39461674 -51.625 36.6875 C-50.56410156 36.71005859 -49.50320313 36.73261719 -48.41015625 36.75585938 C-45.81360301 36.8143403 -43.22007134 36.89623546 -40.625 37 C-40.45665649 35.77228882 -40.45665649 35.77228882 -40.28491211 34.51977539 C-38.7926844 23.98175042 -36.00424848 13.48058451 -27.65625 6.30859375 C-19.2462306 0.1639493 -10.16587489 -0.43100932 0 0 Z M-4.625 16 C-4.625 16.99 -4.625 17.98 -4.625 19 C-8.255 19 -11.885 19 -15.625 19 C-15.86734375 20.19496094 -16.1096875 21.38992187 -16.359375 22.62109375 C-21.32188529 46.42563531 -21.32188529 46.42563531 -29.39550781 52.28491211 C-35.79787607 56.2255683 -41.26847326 56.77037303 -48.6875 56.8125 C-49.74388672 56.83763672 -50.80027344 56.86277344 -51.88867188 56.88867188 C-54.4678235 56.94702372 -57.04529843 56.9836829 -59.625 57 C-61.45902304 62.96668828 -63.16389252 68.93078433 -64.625 75 C-64.02550537 75.00410889 -63.42601074 75.00821777 -62.80834961 75.01245117 C-60.058771 75.04560419 -57.31134523 75.11626747 -54.5625 75.1875 C-53.14807617 75.19620117 -53.14807617 75.19620117 -51.70507812 75.20507812 C-46.15118168 75.37924212 -42.26963782 75.98020228 -37.93261719 79.60302734 C-35.35798362 82.35359741 -34.66573278 84.77219772 -34.54296875 88.47265625 C-35.27743221 95.5298921 -36.77120353 102.14901303 -38.625 109 C-34.005 109 -29.385 109 -24.625 109 C-24.27308594 107.58847656 -23.92117188 106.17695313 -23.55859375 104.72265625 C-17.89190159 82.89770709 -17.89190159 82.89770709 -9.0625 77.40625 C-3.98313299 74.74844168 0.48376689 72.86732586 6.26171875 72.90234375 C7.19951172 72.90556641 8.13730469 72.90878906 9.10351562 72.91210938 C10.56821289 72.92467773 10.56821289 72.92467773 12.0625 72.9375 C13.54459961 72.94426758 13.54459961 72.94426758 15.05664062 72.95117188 C17.49615474 72.96295697 19.93554689 72.97940989 22.375 73 C23.71630761 70.73354942 25.04816234 68.46239903 26.375 66.1875 C26.7565625 65.54490234 27.138125 64.90230469 27.53125 64.24023438 C29.80684269 60.37934476 29.80684269 60.37934476 30.375 56 C32.355 56.33 34.335 56.66 36.375 57 C36.375 57.66 36.375 58.32 36.375 59 C37.035 59 37.695 59 38.375 59 C39.39187046 54.22237362 39.39187046 54.22237362 38.4375 49.5625 C38.086875 49.046875 37.73625 48.53125 37.375 48 C36.055 48 34.735 48 33.375 48 C33.375 47.01 33.375 46.02 33.375 45 C27.68660882 44.0197752 22.20205667 43.88051199 16.4375 43.9375 C15.56287109 43.94201172 14.68824219 43.94652344 13.78710938 43.95117188 C11.64970953 43.96285166 9.51234537 43.98078311 7.375 44 C7.84679687 42.59621094 7.84679687 42.59621094 8.328125 41.1640625 C10.28809667 35.93899427 10.28809667 35.93899427 9.4375 30.6875 C9.086875 30.130625 8.73625 29.57375 8.375 29 C6.725 29.33 5.075 29.66 3.375 30 C3.375 25.38 3.375 20.76 3.375 16 C0.735 16 -1.905 16 -4.625 16 Z " fill="#FFFC07" transform="translate(809.625,97)"/>
<path d="M0 0 C0.88945313 0.00644531 1.77890625 0.01289062 2.6953125 0.01953125 C9.41569911 0.28637013 13.59320168 2.24922354 18.375 7 C21.66172574 11.93008861 20.8956537 17.23648462 20.375 23 C19.40667551 27.7685858 17.92269188 32.39147105 16.375 37 C17.66535156 37.03738281 18.95570313 37.07476562 20.28515625 37.11328125 C22.00263149 37.17897702 23.72007815 37.2454231 25.4375 37.3125 C26.70883789 37.34633789 26.70883789 37.34633789 28.00585938 37.38085938 C34.58770691 37.6603973 39.95866669 38.45305407 44.6875 43.4375 C45.244375 44.283125 45.80125 45.12875 46.375 46 C46.808125 46.598125 47.24125 47.19625 47.6875 47.8125 C48.78693544 51.31070367 48.05144279 54.48361556 47.375 58 C47.18808594 58.98613281 47.00117187 59.97226563 46.80859375 60.98828125 C44.78626543 70.63767635 42.47192799 81.63812801 34.375 88 C33.80394531 88.44988281 33.23289062 88.89976562 32.64453125 89.36328125 C27.70546175 93.10180933 24.19920281 94.13235668 17.953125 94.09765625 C16.92832031 94.09443359 15.90351562 94.09121094 14.84765625 94.08789062 C13.78417969 94.07951172 12.72070312 94.07113281 11.625 94.0625 C10.54605469 94.05798828 9.46710938 94.05347656 8.35546875 94.04882812 C5.69525617 94.03705727 3.03515635 94.02061399 0.375 94 C0.31731445 94.74040527 0.25962891 95.48081055 0.20019531 96.24365234 C0.11866211 97.22285645 0.03712891 98.20206055 -0.046875 99.2109375 C-0.12518555 100.17821777 -0.20349609 101.14549805 -0.28417969 102.14208984 C-1.35007288 111.08001661 -5.29799732 120.61093729 -12.3125 126.4375 C-20.26935737 131.66037301 -30.02811217 131.387622 -39.25 131.4375 C-40.33023438 131.47037109 -41.41046875 131.50324219 -42.5234375 131.53710938 C-49.43178806 131.58344587 -54.39551173 130.74847003 -59.625 126 C-62.67256493 121.4286526 -62.25867296 117.36468759 -61.625 112 C-60.31721487 106.55920476 -58.47814601 101.27484776 -56.625 96 C-57.2547876 96.0314209 -57.8845752 96.0628418 -58.53344727 96.09521484 C-61.41775844 96.22079246 -64.30149371 96.29823479 -67.1875 96.375 C-68.17814453 96.42527344 -69.16878906 96.47554688 -70.18945312 96.52734375 C-76.35026717 96.65015067 -79.8556049 95.99641091 -84.38598633 91.70825195 C-86.80889809 88.36773696 -86.96160299 85.01383193 -86.625 81 C-85.89932667 77.23810944 -84.77885404 73.64994646 -83.625 70 C-82.95397809 67.62622684 -82.28746445 65.25117556 -81.625 62.875 C-80.95972222 60.58292975 -80.29316295 58.29123085 -79.625 56 C-79.37878906 55.10410156 -79.13257813 54.20820313 -78.87890625 53.28515625 C-77.40585231 48.28343074 -75.81368148 45.35094519 -71.625 42 C-71.09608154 41.57017822 -70.56716309 41.14035645 -70.0222168 40.69750977 C-64.03994038 36.37043397 -58.8254223 36.39461674 -51.625 36.6875 C-50.56410156 36.71005859 -49.50320313 36.73261719 -48.41015625 36.75585938 C-45.81360301 36.8143403 -43.22007134 36.89623546 -40.625 37 C-40.45665649 35.77228882 -40.45665649 35.77228882 -40.28491211 34.51977539 C-38.7926844 23.98175042 -36.00424848 13.48058451 -27.65625 6.30859375 C-19.2462306 0.1639493 -10.16587489 -0.43100932 0 0 Z M-29.3125 11.625 C-34.34125334 18.66525468 -39.625 30.23115606 -39.625 39 C-40.32061035 38.98428955 -41.0162207 38.9685791 -41.73291016 38.95239258 C-44.90518971 38.88977137 -48.07733885 38.85092323 -51.25 38.8125 C-52.34441406 38.78736328 -53.43882812 38.76222656 -54.56640625 38.73632812 C-62.56173196 38.59127334 -62.56173196 38.59127334 -69.625 42 C-73.86158818 46.23047478 -75.71401925 50.04367638 -77.3125 55.75 C-77.52108643 56.45229736 -77.72967285 57.15459473 -77.94458008 57.87817383 C-79.30374009 62.5538776 -80.3857061 67.24054828 -81.22265625 72.0390625 C-81.625 74 -81.625 74 -82.75 76.5625 C-83.61721663 78.97831776 -83.94701339 80.88635858 -84.125 83.4375 C-84.1765625 84.15808594 -84.228125 84.87867188 -84.28125 85.62109375 C-83.19674941 89.5524084 -81.07403853 91.9910534 -77.625 94 C-73.63656538 94.71852098 -69.7858673 94.56884092 -65.75 94.375 C-64.68007813 94.34792969 -63.61015625 94.32085937 -62.5078125 94.29296875 C-59.87811847 94.22253052 -57.2526178 94.12409433 -54.625 94 C-55.26797504 96.62573061 -55.91424411 99.25057303 -56.5625 101.875 C-56.74490234 102.62136719 -56.92730469 103.36773437 -57.11523438 104.13671875 C-58.51171875 109.7734375 -58.51171875 109.7734375 -59.625 112 C-60.15618173 115.79415519 -60.47589348 119.46331178 -58.578125 122.890625 C-56.80389137 125.0405787 -55.13228754 126.74635623 -52.625 128 C-50.14400266 128.08649451 -47.69155072 128.11565054 -45.2109375 128.09765625 C-44.48129791 128.0962413 -43.75165833 128.09482635 -42.99990845 128.09336853 C-40.66656415 128.08776531 -38.33331536 128.07521235 -36 128.0625 C-34.41927222 128.05748541 -32.83854293 128.05292243 -31.2578125 128.04882812 C-27.38017146 128.03779484 -23.50260193 128.02052811 -19.625 128 C-19.625 127.34 -19.625 126.68 -19.625 126 C-18.903125 125.938125 -18.18125 125.87625 -17.4375 125.8125 C-13.53973519 124.68647906 -12.15797267 123.18245284 -9.625 120 C-7.27306316 115.28085401 -5.625 111.3107616 -5.625 106 C-4.965 106 -4.305 106 -3.625 106 C-2.635 101.38 -1.645 96.76 -0.625 92 C1.36660156 92.05220703 1.36660156 92.05220703 3.3984375 92.10546875 C19.00940872 92.73558475 19.00940872 92.73558475 32.9375 86.5625 C35.17510594 84.21014503 36.13940192 83.1805741 36.375 80 C37.035 80 37.695 80 38.375 80 C38.54515625 79.32195312 38.7153125 78.64390625 38.890625 77.9453125 C40.15376792 73.0943062 41.51584113 68.51881113 43.5625 63.9375 C45.62904424 58.91874971 46.30401254 54.37898262 45.375 49 C43.33769817 44.99815712 41.19059072 42.34284008 37.375 40 C34.67094915 39.58907863 34.67094915 39.58907863 31.734375 39.70703125 C30.66445313 39.71669922 29.59453125 39.72636719 28.4921875 39.73632812 C27.38101563 39.76146484 26.26984375 39.78660156 25.125 39.8125 C23.99835938 39.82603516 22.87171875 39.83957031 21.7109375 39.85351562 C18.93180736 39.88884355 16.15364637 39.9381748 13.375 40 C13.65214844 39.05640625 13.92929687 38.1128125 14.21484375 37.140625 C18.8231195 22.51844416 18.8231195 22.51844416 16.375 8 C14.68770446 5.57029443 13.45909871 4.21766669 10.5 3.62353516 C-11.2775493 1.1012345 -11.2775493 1.1012345 -29.3125 11.625 Z " fill="#FFFD6D" transform="translate(809.625,97)"/>
<path d="M0 0 C11.52164009 -0.18451025 11.52164009 -0.18451025 17 1 C18.01885997 6.84841667 18.11753524 12.51074064 18.0625 18.4375 C18.041875 21.593125 18.02125 24.74875 18 28 C25.92 28.33 33.84 28.66 42 29 C42.495 30.485 42.495 30.485 43 32 C43.845625 32.37125 44.69125 32.7425 45.5625 33.125 C48 35 48 35 48.36328125 37.0859375 C48.38077224 40.68908235 48.14565417 43.56303749 47 47 C46.05833984 47.10828125 46.05833984 47.10828125 45.09765625 47.21875 C44.40542969 47.4765625 43.71320313 47.734375 43 48 C41.95305075 50.53877778 41.15410758 52.87002607 40.4375 55.5 C39.72288687 58.07072049 38.93494629 60.4911786 38 63 C36.515 63.495 36.515 63.495 35 64 C35.51621228 57.16018724 37.48590969 51.36123316 40 45 C39.34 45 38.68 45 38 45 C37.773125 45.99 37.54625 46.98 37.3125 48 C35.99289951 52.68553798 33.47232733 57.52767267 30 61 C28.61597084 61.06265537 27.22882487 61.05943765 25.84375 61.02734375 C24.98523438 61.01509766 24.12671875 61.00285156 23.2421875 60.99023438 C21.44522021 60.95567731 19.64833005 60.91677352 17.8515625 60.87304688 C8.67855944 60.7573636 1.53681477 61.46190012 -5.21484375 68.0390625 C-12.03858675 75.53472768 -13.3320577 83.21774378 -15 93 C-15.495 94.98 -15.495 94.98 -16 97 C-21.94 97 -27.88 97 -34 97 C-33.56124904 92.39311495 -33.05760812 88.03723343 -31.875 83.5625 C-30.72697636 78.59642806 -30.77998983 73.95791369 -32 69 C-33.82367488 66.11741713 -34.96935582 64.51532209 -38 63 C-39.59262066 62.84824451 -41.19064856 62.75099675 -42.7890625 62.68359375 C-43.73007812 62.64169922 -44.67109375 62.59980469 -45.640625 62.55664062 C-47.11789062 62.49766602 -47.11789062 62.49766602 -48.625 62.4375 C-49.61757813 62.39431641 -50.61015625 62.35113281 -51.6328125 62.30664062 C-54.08839838 62.20038931 -56.54408703 62.09835036 -59 62 C-58.49654234 56.72257911 -57.82645946 51.6466627 -56.5 46.5 C-56.2421875 45.4790625 -55.984375 44.458125 -55.71875 43.40625 C-55 41 -55 41 -54 40 C-52.31333652 39.90296372 -50.62302435 39.86797772 -48.93359375 39.859375 C-47.89009766 39.84003906 -46.84660156 39.82070312 -45.77148438 39.80078125 C-43.57635081 39.76734629 -41.38093347 39.74873085 -39.18554688 39.74609375 C-32.24977477 39.58469795 -27.28932497 38.69318367 -22 34 C-17.31239055 28.56273578 -15.72664681 22.2786784 -13.9140625 15.43359375 C-12.79114273 11.21544642 -11.42246597 7.12515132 -10 3 C-6.7 3 -3.4 3 0 3 C0 2.01 0 1.02 0 0 Z M2 2 C2 2.99 2 3.98 2 5 C-1.63 5 -5.26 5 -9 5 C-9.24234375 6.19496094 -9.4846875 7.38992187 -9.734375 8.62109375 C-14.69688529 32.42563531 -14.69688529 32.42563531 -22.77050781 38.28491211 C-29.17287607 42.2255683 -34.64347326 42.77037303 -42.0625 42.8125 C-43.11888672 42.83763672 -44.17527344 42.86277344 -45.26367188 42.88867188 C-47.8428235 42.94702372 -50.42029843 42.9836829 -53 43 C-54.83402304 48.96668828 -56.53889252 54.93078433 -58 61 C-57.40050537 61.00410889 -56.80101074 61.00821777 -56.18334961 61.01245117 C-53.433771 61.04560419 -50.68634523 61.11626747 -47.9375 61.1875 C-46.52307617 61.19620117 -46.52307617 61.19620117 -45.08007812 61.20507812 C-39.52618168 61.37924212 -35.64463782 61.98020228 -31.30761719 65.60302734 C-28.73298362 68.35359741 -28.04073278 70.77219772 -27.91796875 74.47265625 C-28.65243221 81.5298921 -30.14620353 88.14901303 -32 95 C-27.38 95 -22.76 95 -18 95 C-17.64808594 93.58847656 -17.29617188 92.17695313 -16.93359375 90.72265625 C-11.26690159 68.89770709 -11.26690159 68.89770709 -2.4375 63.40625 C2.64186701 60.74844168 7.10876689 58.86732586 12.88671875 58.90234375 C13.82451172 58.90556641 14.76230469 58.90878906 15.72851562 58.91210938 C17.19321289 58.92467773 17.19321289 58.92467773 18.6875 58.9375 C20.16959961 58.94426758 20.16959961 58.94426758 21.68164062 58.95117188 C24.12115474 58.96295697 26.56054689 58.97940989 29 59 C30.34130761 56.73354942 31.67316234 54.46239903 33 52.1875 C33.3815625 51.54490234 33.763125 50.90230469 34.15625 50.24023438 C36.43184269 46.37934476 36.43184269 46.37934476 37 42 C38.98 42.33 40.96 42.66 43 43 C43 43.66 43 44.32 43 45 C43.66 45 44.32 45 45 45 C46.01687046 40.22237362 46.01687046 40.22237362 45.0625 35.5625 C44.711875 35.046875 44.36125 34.53125 44 34 C42.68 34 41.36 34 40 34 C40 33.01 40 32.02 40 31 C34.31160882 30.0197752 28.82705667 29.88051199 23.0625 29.9375 C22.18787109 29.94201172 21.31324219 29.94652344 20.41210938 29.95117188 C18.27470953 29.96285166 16.13734537 29.98078311 14 30 C14.47179687 28.59621094 14.47179687 28.59621094 14.953125 27.1640625 C16.91309667 21.93899427 16.91309667 21.93899427 16.0625 16.6875 C15.711875 16.130625 15.36125 15.57375 15 15 C13.35 15.33 11.7 15.66 10 16 C10 11.38 10 6.76 10 2 C7.36 2 4.72 2 2 2 Z " fill="#FFFD7A" transform="translate(803,111)"/>
<path d="M0 0 C11.52164009 -0.18451025 11.52164009 -0.18451025 17 1 C17 3.31 17 5.62 17 8 C16.67 8 16.34 8 16 8 C15.67 10.64 15.34 13.28 15 16 C13.35 16 11.7 16 10 16 C10 11.38 10 6.76 10 2 C7.36 2 4.72 2 2 2 C2 2.99 2 3.98 2 5 C-1.3 5.33 -4.6 5.66 -8 6 C-8.24234375 7.12277344 -8.4846875 8.24554688 -8.734375 9.40234375 C-14.08614176 33.5703071 -14.08614176 33.5703071 -24.359375 40.15234375 C-30.0354003 42.8951515 -35.82826904 42.43380871 -42 42.25 C-43.15628906 42.23195312 -44.31257812 42.21390625 -45.50390625 42.1953125 C-48.33681275 42.1484876 -51.16795884 42.08292012 -54 42 C-54.66 44.97 -55.32 47.94 -56 51 C-57.28485596 45.86057616 -56.22194431 44.62164416 -54 40 C-52.97229492 39.99383667 -52.97229492 39.99383667 -51.92382812 39.98754883 C-48.78171011 39.95439853 -45.64147628 39.88373115 -42.5 39.8125 C-41.42234375 39.80669922 -40.3446875 39.80089844 -39.234375 39.79492188 C-32.29596551 39.60453869 -27.29122155 38.69403668 -22 34 C-17.31243144 28.56266233 -15.72665799 22.27872062 -13.9140625 15.43359375 C-12.79114273 11.21544642 -11.42246597 7.12515132 -10 3 C-6.7 3 -3.4 3 0 3 C0 2.01 0 1.02 0 0 Z " fill="#FFFD63" transform="translate(803,111)"/>
<path d="M0 0 C0.33 0 0.66 0 1 0 C1.33 2.64 1.66 5.28 2 8 C2.66 8 3.32 8 4 8 C3.34 11.3 2.68 14.6 2 18 C9.92 18 17.84 18 26 18 C27.231394 20.46278801 27.07159196 22.2795055 27 25 C26.01 24.67 25.02 24.34 24 24 C24 23.01 24 22.02 24 21 C16.08 21 8.16 21 0 21 C-0.9584336 18.12469919 -1.06656387 16.70950069 -0.87890625 13.76953125 C-0.83056641 12.96708984 -0.78222656 12.16464844 -0.73242188 11.33789062 C-0.67634766 10.50451172 -0.62027344 9.67113281 -0.5625 8.8125 C-0.48418945 7.5450293 -0.48418945 7.5450293 -0.40429688 6.25195312 C-0.27476311 4.16763701 -0.13806823 2.08376818 0 0 Z " fill="#FFFC25" transform="translate(821,119)"/>
<path d="M0 0 C-1.98 0.66 -3.96 1.32 -6 2 C-6 2.66 -6 3.32 -6 4 C-13.59 4 -21.18 4 -29 4 C-29.66 6.97 -30.32 9.94 -31 13 C-31.99 13.495 -31.99 13.495 -33 14 C-32.88490339 12.58249437 -32.75746342 11.16598831 -32.625 9.75 C-32.55539062 8.96109375 -32.48578125 8.1721875 -32.4140625 7.359375 C-31.98321879 4.90437874 -31.15224715 3.19129107 -30 1 C-29.43603516 1.01047363 -28.87207031 1.02094727 -28.29101562 1.03173828 C-25.69405719 1.07374478 -23.09717061 1.09946602 -20.5 1.125 C-19.613125 1.14175781 -18.72625 1.15851563 -17.8125 1.17578125 C-13.50711276 1.20743851 -9.64055409 1.05184999 -5.46875 -0.0703125 C-2 -1 -2 -1 0 0 Z " fill="#FFFD56" transform="translate(839,187)"/>
<path d="M0 0 C1.16337891 0.00322266 2.32675781 0.00644531 3.52539062 0.00976562 C4.74033203 0.01814453 5.95527344 0.02652344 7.20703125 0.03515625 C8.43357422 0.03966797 9.66011719 0.04417969 10.92382812 0.04882812 C13.95577793 0.0606256 16.98763031 0.07708704 20.01953125 0.09765625 C20.51453125 1.08765625 20.51453125 1.08765625 21.01953125 2.09765625 C20.28428223 2.07147217 19.5490332 2.04528809 18.79150391 2.01831055 C15.40940347 1.91336713 12.02764691 1.84902305 8.64453125 1.78515625 C7.48824219 1.74326172 6.33195313 1.70136719 5.140625 1.65820312 C-2.61102351 1.54871656 -8.58378789 2.50085118 -14.98046875 7.09765625 C-18.62955478 10.94502217 -21.38549495 14.9937401 -22.98046875 20.09765625 C-24.30756709 17.08152367 -23.90503892 15.86717622 -22.85546875 12.66015625 C-19.81500157 6.26421853 -15.39040189 3.47170556 -8.98046875 1.09765625 C-5.74295197 0.01848399 -3.40295104 -0.01659976 0 0 Z " fill="#FFFD57" transform="translate(798.98046875,98.90234375)"/>
<path d="M0 0 C0.88945313 0.00644531 1.77890625 0.01289062 2.6953125 0.01953125 C9.41569911 0.28637013 13.59320168 2.24922354 18.375 7 C20.75581145 10.57121718 20.64406871 12.26674633 20.625 16.5 C20.63273438 18.21703125 20.63273438 18.21703125 20.640625 19.96875 C20.375 23 20.375 23 18.375 26 C18.44460938 25.07058594 18.51421875 24.14117187 18.5859375 23.18359375 C19.18894621 14.87122719 19.18894621 14.87122719 15.5625 7.75 C11.70049675 4.05010552 8.94073298 2.74834862 3.5703125 2.76953125 C1.85908203 2.77243164 1.85908203 2.77243164 0.11328125 2.77539062 C-1.07910156 2.78763672 -2.27148438 2.79988281 -3.5 2.8125 C-4.68464844 2.81314453 -5.86929688 2.81378906 -7.08984375 2.81445312 C-12.08024004 2.83977081 -16.74446271 2.87341961 -21.625 4 C-21.295 3.34 -20.965 2.68 -20.625 2 C-13.92737126 -0.21714607 -6.97309534 -0.29564293 0 0 Z " fill="#FFFD87" transform="translate(809.625,97)"/>
<path d="M0 0 C0 0.33 0 0.66 0 1 C-0.55349121 0.97905273 -1.10698242 0.95810547 -1.67724609 0.93652344 C-19.10906579 0.08183294 -19.10906579 0.08183294 -33.875 8.3125 C-36.87979886 11.59433706 -38.98236808 15.04544143 -41 19 C-41.66 19 -42.32 19 -43 19 C-41.65481803 13.02141348 -38.50708709 8.99716118 -34 5 C-23.24641759 -1.61508251 -12.31363517 -2.34545432 0 0 Z " fill="#FFFD88" transform="translate(832,170)"/>
<path d="M0 0 C0.33 1.32 0.66 2.64 1 4 C1.62044189 3.98428955 2.24088379 3.9685791 2.88012695 3.95239258 C5.69082528 3.89003786 8.50137812 3.85100852 11.3125 3.8125 C12.28896484 3.78736328 13.26542969 3.76222656 14.27148438 3.73632812 C15.20927734 3.72666016 16.14707031 3.71699219 17.11328125 3.70703125 C17.97735596 3.6913208 18.84143066 3.67561035 19.73168945 3.65942383 C22 4 22 4 25 7 C12.13 6.505 12.13 6.505 -1 6 C-0.67 4.02 -0.34 2.04 0 0 Z " fill="#FFFD42" transform="translate(743,169)"/>
<path d="M0 0 C0.99 0.66 1.98 1.32 3 2 C2.54636829 3.58468677 2.08688548 5.16769924 1.625 6.75 C1.36976563 7.63171875 1.11453125 8.5134375 0.8515625 9.421875 C0.0790066 11.76080572 -0.83625676 13.83442562 -2 16 C-2.66 16 -3.32 16 -4 16 C-3.47606294 10.13190493 -2.23891142 5.45126259 0 0 Z " fill="#FFFD62" transform="translate(842,159)"/>
<path d="M0 0 C0.88816406 0.97195312 1.77632812 1.94390625 2.69140625 2.9453125 C7.83723837 7.35602575 13.44135087 6.88977237 19.9375 6.875 C21.09830078 6.895625 22.25910156 6.91625 23.45507812 6.9375 C26.30410721 6.9843976 29.15066559 7.00445955 32 7 C32 7.33 32 7.66 32 8 C28.06734104 8.04947698 24.13480286 8.08575578 20.2019043 8.10986328 C18.20680382 8.12485495 16.21179054 8.15026731 14.21679688 8.17578125 C12.96318359 8.18222656 11.70957031 8.18867188 10.41796875 8.1953125 C9.26063232 8.20578613 8.1032959 8.21625977 6.91088867 8.22705078 C4 8 4 8 1 6 C0.3125 2.875 0.3125 2.875 0 0 Z " fill="#FFFD49" transform="translate(750,218)"/>
<path d="M0 0 C1.98 0 3.96 0 6 0 C5.01 0.33 4.02 0.66 3 1 C3 4.96 3 8.92 3 13 C2.01 13 1.02 13 0 13 C0 8.71 0 4.42 0 0 Z " fill="#FFFC40" transform="translate(814,112)"/>
<path d="M0 0 C1.53823456 3.96391213 0.42805657 6.90546157 -0.75 10.875 C-1.26820313 12.66550781 -1.26820313 12.66550781 -1.796875 14.4921875 C-2.94732509 17.84642184 -4.33629257 20.87337742 -6 24 C-7.25312512 20.24062464 -6.50868401 19.57319897 -5 16 C-4.51970586 14.04680384 -4.04009612 12.09340369 -3.57421875 10.13671875 C-2.63846699 6.65470371 -1.31766191 3.3540485 0 0 Z " fill="#FFFD86" transform="translate(809,193)"/>
<path d="M0 0 C0.66 0 1.32 0 2 0 C1.00956295 4.83628305 0.04301154 9.47618873 -2 14 C-2.99 13.34 -3.98 12.68 -5 12 C-3.41037341 7.96479403 -1.71767682 3.98188718 0 0 Z " fill="#FFFC1D" transform="translate(841,156)"/>
<path d="M0 0 C0.33 0 0.66 0 1 0 C1.07654536 4.51617599 1.10228696 8.59085217 0 13 C-0.66 13 -1.32 13 -2 13 C-2.33 14.65 -2.66 16.3 -3 18 C-4.63129887 13.93714243 -3.29968777 10.79897816 -2.0625 6.75 C-1.68222656 5.48671875 -1.30195312 4.2234375 -0.91015625 2.921875 C-0.60980469 1.95765625 -0.30945313 0.9934375 0 0 Z " fill="#FFFD5E" transform="translate(792,116)"/>
<path d="M0 0 C0.33 0 0.66 0 1 0 C1.3690205 10.55808656 1.3690205 10.55808656 -1 15 C-1.33 14.01 -1.66 13.02 -2 12 C-2.66 12 -3.32 12 -4 12 C-3.67 8.7 -3.34 5.4 -3 2 C-2.67 2 -2.34 2 -2 2 C-1.67 3.98 -1.34 5.96 -1 8 C-0.67 5.36 -0.34 2.72 0 0 Z " fill="#FFFC22" transform="translate(854,146)"/>
<path d="M0 0 C2.9375 0.75 2.9375 0.75 6 2 C8.00540688 5.47603859 6.56703724 10.21975176 6 14 C5.67 14 5.34 14 5 14 C4.83564453 12.98679688 4.83564453 12.98679688 4.66796875 11.953125 C4.50941406 11.06109375 4.35085938 10.1690625 4.1875 9.25 C3.96126953 7.92742187 3.96126953 7.92742187 3.73046875 6.578125 C2.94585752 3.8089089 1.85404641 2.1740599 0 0 Z " fill="#FFFD54" transform="translate(768,176)"/>
<path d="M0 0 C0.33 0 0.66 0 1 0 C0.53411505 5.70709064 -0.93757784 9.15939723 -4 14 C-4.33 14 -4.66 14 -5 14 C-5 12.02 -5 10.04 -5 8 C-4.34 8 -3.68 8 -3 8 C-1.92474806 5.34771188 -0.90543849 2.71631546 0 0 Z " fill="#FFFD7B" transform="translate(851,169)"/>
<path d="M0 0 C0.66 0.33 1.32 0.66 2 1 C0.90344712 2.31886772 -0.20253423 3.62990057 -1.3125 4.9375 C-1.92738281 5.66839844 -2.54226563 6.39929688 -3.17578125 7.15234375 C-5 9 -5 9 -8 10 C-6.34908222 5.70761377 -3.26245434 3.1206085 0 0 Z " fill="#FFFC28" transform="translate(802,174)"/>
<path d="M0 0 C0.33 0 0.66 0 1 0 C1.27429625 5.39449293 1.36055646 8.51925805 -2 13 C-3.45047396 10.09905209 -2.45356803 8.44027404 -1.5625 5.375 C-1.27503906 4.37210938 -0.98757813 3.36921875 -0.69140625 2.3359375 C-0.46324219 1.56507813 -0.23507812 0.79421875 0 0 Z " fill="#FFFD83" transform="translate(730,153)"/>
<path d="M0 0 C2.71675995 0.36712972 4.61063713 0.72744599 6.875 2.3125 C8 4 8 4 7.6875 6.1875 C7.460625 6.785625 7.23375 7.38375 7 8 C5.76302083 6.50260417 4.52604167 5.00520833 3.2890625 3.5078125 C2.24749008 2.28948839 1.13339903 1.13339903 0 0 Z " fill="#FFFD70" transform="translate(820,100)"/>
<path d="M0 0 C4.875 4.625 4.875 4.625 6 8 C3.5625 7.375 3.5625 7.375 1 6 C0.1875 2.875 0.1875 2.875 0 0 Z " fill="#FFFD62" transform="translate(750,218)"/>
</svg>
