<?xml version="1.0" encoding="UTF-8"?>
<svg version="1.1" xmlns="http://www.w3.org/2000/svg" width="900" height="1108">
<path d="M0 0 C2.13191695 1.99822046 4.17612227 4.04489756 6.1953125 6.15625 C7.950978 7.94991692 9.77256101 9.56655579 11.6875 11.1875 C21.76501806 19.92134898 30.56877315 29.47619653 38.58007812 40.11816406 C40.0568529 42.07534769 41.54978749 44.01925464 43.046875 45.9609375 C49.00676641 53.70054417 54.88970308 61.49730423 60.75 69.3125 C61.38873047 70.16344238 62.02746094 71.01438477 62.68554688 71.89111328 C65.32985581 75.41800504 67.97025426 78.94632881 70.5625 82.51171875 C94.1986759 114.80042333 127.73143328 132.6107669 166.7734375 139.68359375 C208.50032601 145.81990088 250.54489263 134.59015831 284.67041016 110.13305664 C302.74689573 96.84083937 302.74689573 96.84083937 315 79 C299.71084138 62.17937175 299.71084138 62.17937175 282 48 C282.59087023 43.79134541 285.06106023 40.76189448 287.4375 37.375 C298.19754831 21.60683655 306.55934665 4.54355881 314 -13 C318.22319714 -12.41749005 321.27175231 -9.94297668 324.625 -7.5 C325.24455566 -7.05293701 325.86411133 -6.60587402 326.50244141 -6.14526367 C332.00473128 -2.11352373 337.01653628 2.34702777 342 7 C343.39112536 8.21375054 344.78671325 9.42241253 346.1875 10.625 C361.46960135 23.97382347 374.2351393 40.53505908 384.5390625 57.9609375 C386.25281927 60.85299035 388.10722748 63.57186306 390.0859375 66.2890625 C397.34873982 76.60407754 397.34873982 76.60407754 396.48828125 82.515625 C394.99075024 85.63397044 393.38429044 88.28191754 391.36376953 91.0703125 C389.88107191 93.1682792 388.56252178 95.32536849 387.24609375 97.53125 C378.00026635 112.91176443 367.50819736 127.12130373 355 140 C354.1025708 140.93610107 354.1025708 140.93610107 353.18701172 141.89111328 C344.35528685 151.07832896 335.3574993 159.56195419 325 167 C324.36497559 167.46293457 323.72995117 167.92586914 323.07568359 168.40283203 C274.3641342 203.56689025 213.89038981 217.21290079 154.67382812 208.51123047 C140.77202952 206.17547782 127.25320328 202.79852544 114 198 C112.80479736 197.56929199 112.80479736 197.56929199 111.58544922 197.12988281 C81.4187969 186.07216401 55.13120097 169.1723562 32 147 C31.47019531 146.49742676 30.94039063 145.99485352 30.39453125 145.47705078 C22.09098902 137.5655107 14.82756414 129.20772174 8 120 C7.36433105 119.15550293 7.36433105 119.15550293 6.71582031 118.29394531 C1.66206255 111.56207583 -2.8675606 104.67400005 -7.0625 97.375 C-13.49590903 86.19157396 -21.12877745 76.38593512 -30 67 C-30.73476563 66.20078125 -31.46953125 65.4015625 -32.2265625 64.578125 C-57.33584106 38.20918364 -96.56142286 20.35379944 -133.03320312 18.87719727 C-148.25728347 18.52004364 -163.11029755 18.6069404 -178 22 C-178.72622559 22.16097168 -179.45245117 22.32194336 -180.20068359 22.48779297 C-213.29481089 30.07444492 -250.51741757 50.64278186 -269 80 C-242.8722388 113.35321614 -204.85984361 135.10177324 -162.67553711 140.28564453 C-121.78918406 144.75702697 -78.04611867 133.26034699 -45.2746582 108.04760742 C-41.28261794 105 -41.28261794 105 -38 105 C-36.38278321 107.45190933 -34.96298176 109.8645672 -33.5625 112.4375 C-24.86351636 127.81437631 -14.48777771 142.52460498 -2.15234375 155.2109375 C-1 157 -1 157 -1.05859375 159 C-3.17937935 163.50556941 -8.08166177 166.14174316 -12 169 C-13.02996094 169.75410156 -14.05992187 170.50820313 -15.12109375 171.28515625 C-63.60796641 205.62766699 -125.36763355 217.3328001 -183.52319336 207.78540039 C-220.14861373 201.34346266 -254.8752957 186.18971057 -284 163 C-284.96550781 162.23945313 -285.93101562 161.47890625 -286.92578125 160.6953125 C-308.04169746 143.4698764 -325.43965174 123.3993879 -339.62988281 100.19873047 C-341.07973113 97.87204945 -342.5969979 95.59763312 -344.1171875 93.31640625 C-351.30064119 82.13969858 -351.30064119 82.13969858 -350.56640625 76.9140625 C-348.97900558 73.98016749 -347.09922612 71.59005237 -345 69 C-343.76152109 66.8084308 -342.55489888 64.59865559 -341.375 62.375 C-311.72022079 9.77159017 -260.73709206 -27.63309445 -203.10571289 -43.98242188 C-133.15101193 -62.69434337 -55.71296723 -46.2250641 0 0 Z " fill="#FBC500" transform="translate(427,293)"/>
<path d="M0 0 C3.72483256 1.63572599 6.63770839 3.97614051 9.8125 6.5 C53.07253926 40.23754376 107.60523044 59.92063301 162.53979492 60.20532227 C163.74109039 60.21522186 164.94238586 60.22512146 166.18008423 60.23532104 C169.43758126 60.26128337 172.69507412 60.28323638 175.95261168 60.30332303 C179.370558 60.32537475 182.78846261 60.35266845 186.20637512 60.37937927 C192.66231667 60.42904938 199.11828169 60.47408211 205.57426864 60.51740164 C212.93112232 60.56699529 220.28793411 60.62183046 227.64474714 60.67708123 C242.76312562 60.79050636 257.88154368 60.89742941 273 61 C271.72281355 63.80005944 270.40289866 65.84483666 268.22264099 68.01113892 C267.37506226 68.8606739 267.37506226 68.8606739 266.51036072 69.72737122 C265.58375389 70.64083565 265.58375389 70.64083565 264.63842773 71.57275391 C263.98625275 72.22361465 263.33407776 72.8744754 262.66213989 73.5450592 C260.50718451 75.69352771 258.34534742 77.83493636 256.18359375 79.9765625 C254.68618424 81.46770185 253.18928856 82.95935736 251.69288635 84.45150757 C247.75358044 88.37751039 243.80874651 92.29790755 239.86230469 96.21673584 C233.5403914 102.49552492 227.22519612 108.7810535 220.91319466 115.06980515 C218.70355804 117.26919083 216.49055509 119.46514789 214.27720642 121.66079712 C212.92874957 123.0024286 211.58040072 124.34416866 210.23217773 125.68603516 C209.30253456 126.60557228 209.30253456 126.60557228 208.35411072 127.54368591 C205.30254944 130.48619886 205.30254944 130.48619886 203 134 C193.99419346 134.20343367 185.08842423 133.60540813 176.125 132.8125 C175.38589386 132.74753326 174.64678772 132.68256653 173.88528442 132.6156311 C122.7581004 128.03060514 68.82834584 115.16295089 27 84 C26.05898438 83.30648437 25.11796875 82.61296875 24.1484375 81.8984375 C15.58241905 75.29036612 7.58897802 67.69896321 0 60 C-0.24234375 60.56589844 -0.4846875 61.13179687 -0.734375 61.71484375 C-18.20118797 93.25214495 -70.15982792 110.72896823 -102.1640625 120.1171875 C-129.76154631 127.90149929 -158.5948909 132.38021834 -187.22705078 133.84570312 C-189.12507903 133.95131625 -191.02053625 134.11440145 -192.90966797 134.32617188 C-199.96995099 134.86954799 -199.96995099 134.86954799 -202.53274536 132.70608521 C-202.99131927 132.10069916 -203.44989319 131.49531311 -203.92236328 130.87158203 C-207.26369362 126.78323091 -210.83518353 123.05581645 -214.57788086 119.34033203 C-215.1971451 118.72386873 -215.81640934 118.10740543 -216.45443916 117.47226143 C-217.77115836 116.16319807 -219.08886 114.85512229 -220.40745354 113.54794693 C-222.49850582 111.47443276 -224.58586731 109.39726687 -226.67225647 107.31906128 C-232.59892831 101.41673149 -238.53138366 95.52023887 -244.46801758 89.62792969 C-248.1112482 86.01139625 -251.74966195 82.39007534 -255.38510323 78.76571274 C-256.77037651 77.38666083 -258.15754596 76.00951099 -259.54661369 74.63428116 C-261.47822396 72.72177002 -263.40370366 70.80328584 -265.32788086 68.88330078 C-265.90598007 68.31396317 -266.48407928 67.74462555 -267.07969666 67.15803528 C-271 63.22789929 -271 63.22789929 -271 61 C-270.08370363 60.99641747 -270.08370363 60.99641747 -269.14889622 60.99276257 C-254.1603744 60.93315822 -239.17202523 60.85732798 -224.18367863 60.76428509 C-216.934886 60.71966262 -209.68613885 60.68017491 -202.43725586 60.65356445 C-196.10583709 60.63030809 -189.77456643 60.59661456 -183.44326586 60.55129844 C-180.10290137 60.52773029 -176.76280863 60.51032824 -173.42234993 60.50238609 C-141.53598102 60.41902045 -111.2017828 56.42983837 -81 46 C-80.35111816 45.7829541 -79.70223633 45.5659082 -79.03369141 45.34228516 C-49.89265263 35.54324369 -23.41833521 19.75473062 0 0 Z " fill="#FCC600" transform="translate(449,474)"/>
<path d="M0 0 C0.9787207 0.21430664 1.95744141 0.42861328 2.96582031 0.64941406 C61.08260473 13.73569099 112.18433896 49.88938333 144.43359375 99.88671875 C165.79191392 133.76911739 178.69441592 172.85328963 180 213 C179.01 213 178.02 213 177 213 C175.44921875 211.12109375 175.44921875 211.12109375 173.6875 208.4375 C168.20622105 200.59987789 161.62884443 193.86815289 155 187 C154.16984375 186.12859375 153.3396875 185.2571875 152.484375 184.359375 C147.52948848 179.26190182 142.25011195 174.69522349 136.66064453 170.30566406 C135.48339853 169.38006694 134.31030101 168.44918238 133.14013672 167.51464844 C121.45620507 158.19849955 109.2914276 149.42178081 95.77734375 142.92578125 C88.41384232 139.37467762 83.79503151 136.40296107 79.78515625 128.98828125 C76.51620586 123.51618706 71.94275608 119.12406583 67.52001953 114.57128906 C66.09935656 113.1027078 64.7029808 111.61073996 63.30859375 110.1171875 C36.25590131 81.81466874 -4.73588246 65.89325408 -43.546875 64.91015625 C-51.75973633 64.83473201 -59.81462028 65.3187902 -68 66 C-68.02496148 71.06794894 -68.0429822 76.13586106 -68.05493164 81.20385742 C-68.05992009 82.92326482 -68.06671324 84.64266806 -68.07543945 86.36206055 C-68.12122492 95.62419203 -68.15167056 104.79053072 -67 114 C-67.93175049 114.16435547 -67.93175049 114.16435547 -68.88232422 114.33203125 C-81.3959343 116.58187454 -93.65611779 119.24809598 -105.8125 123 C-106.85325684 123.3196875 -107.89401367 123.639375 -108.96630859 123.96875 C-115.29170802 125.97572145 -121.35385375 128.33835489 -127.4128418 131.046875 C-130 132 -130 132 -134 132 C-134.48523151 129.39683978 -134.96323254 126.7926622 -135.4375 124.1875 C-135.57220703 123.46884766 -135.70691406 122.75019531 -135.84570312 122.00976562 C-141.77405534 89.18693749 -138.04847481 54.93239021 -129.76171875 22.94726562 C-128.47608176 17.97283944 -127.24144854 12.98560453 -126 8 C-84.34151116 -2.97380811 -42.80188456 -9.56165867 0 0 Z " fill="#FCC600" transform="translate(311,100)"/>
<path d="M0 0 C3.18976419 1.43499464 6.14165352 3.1798645 9.125 5 C9.96812744 5.50257324 10.81125488 6.00514648 11.67993164 6.52294922 C36.47406997 21.41319751 58.96950584 39.27303833 77 62 C77.65613281 62.78890625 78.31226563 63.5778125 78.98828125 64.390625 C116.48452688 109.7768622 132.71195047 170.6549463 127.22802734 228.81591797 C122.63238288 271.07932049 106.79699404 310.55225909 81.04296875 344.28515625 C79.32609977 346.56665518 77.71350696 348.87916529 76.125 351.25 C75.42375 352.1575 74.7225 353.065 74 354 C73.01 354 72.02 354 71 354 C70.96907761 353.38708603 70.93815521 352.77417206 70.90629578 352.14268494 C70.5761185 345.63431855 70.23298788 339.12671821 69.88305664 332.61938477 C69.75488151 330.20613985 69.62977059 327.7927298 69.50805664 325.37915039 C68.49712097 305.39757013 67.08805898 285.41928471 62.5625 265.875 C62.35149658 264.92616943 62.14049316 263.97733887 61.9230957 262.99975586 C60.73207785 257.76527491 59.34763364 252.66652791 57.6875 247.5625 C55.82042734 241.74963007 55.50084869 237.10912044 56.4609375 231.12890625 C62.83610399 190.4294738 53.70975678 147.57615334 29.53173828 113.95849609 C20.51266924 101.91289382 9.9805938 90.1669695 -2 81 C-15.36400114 86.8752898 -26.9938787 102.13992919 -35 114 C-38.43551494 113.37959098 -40.52989577 112.07613995 -43.3125 110 C-59.63052832 98.31696069 -77.59546034 89.831719 -96 82 C-95.39821441 78.93812165 -94.46356802 76.94878102 -92.59375 74.4609375 C-92.10156982 73.80287109 -91.60938965 73.14480469 -91.10229492 72.46679688 C-90.5735376 71.77650391 -90.04478027 71.08621094 -89.5 70.375 C-88.95899658 69.66150391 -88.41799316 68.94800781 -87.8605957 68.21289062 C-84.11323754 63.32190492 -80.19490868 58.65385665 -75.9921875 54.14453125 C-74.19306211 52.20782568 -72.50290804 50.21851264 -70.8125 48.1875 C-55.17932482 30.31585632 -35.17988777 16.93500034 -14.9375 4.875 C-14.14005371 4.389104 -13.34260742 3.90320801 -12.52099609 3.40258789 C-4.96027675 -1.01650289 -4.96027675 -1.01650289 0 0 Z " fill="#FCC600" transform="translate(453,0)"/>
<path d="M0 0 C0.86846054 -0.00988449 1.73692108 -0.01976898 2.63169861 -0.029953 C33.48095232 -0.30837246 61.06759887 3.69958497 90.6640625 12.23828125 C99.85305104 47.72025547 99.85305104 47.72025547 101.6640625 62.23828125 C101.80110596 63.27299561 101.80110596 63.27299561 101.94091797 64.32861328 C102.92469011 72.6459596 102.90767285 80.99987816 102.9140625 89.36328125 C102.91473724 90.15896515 102.91541199 90.95464905 102.91610718 91.77444458 C102.85662211 136.12862478 90.40375267 179.23338241 65.6640625 216.23828125 C65.03201904 217.18453369 65.03201904 217.18453369 64.38720703 218.14990234 C41.69071669 251.72936423 10.37421501 279.29921166 -26.45703125 296.35351562 C-28.3434823 297.24183405 -30.19769852 298.18078185 -32.0546875 299.12890625 C-40.05189117 302.98842628 -44.93092529 304.13620571 -53.3359375 301.23828125 C-54.05507324 301.00351074 -54.77420898 300.76874023 -55.51513672 300.52685547 C-64.73071556 297.49730626 -73.73318599 294.47116762 -81.3359375 288.23828125 C-79.95607118 284.06916642 -78.08755059 281.66504349 -75.0234375 278.55078125 C-62.4437041 265.02847417 -51.60961535 248.8215652 -43.33203125 232.3125 C-39.350644 224.47989021 -35.24364947 220.17456411 -27.76953125 215.5 C-21.60599736 211.59812069 -16.493385 206.35306453 -11.3359375 201.23828125 C-10.39878906 200.31402344 -9.46164062 199.38976562 -8.49609375 198.4375 C3.55735492 185.93442483 12.59018253 171.03620874 19.6640625 155.23828125 C20.07712646 154.3251416 20.07712646 154.3251416 20.49853516 153.39355469 C23.80636613 145.96439362 26.31302856 138.45437437 28.4140625 130.61328125 C28.71219849 129.50472778 28.71219849 129.50472778 29.01635742 128.3737793 C32.46151853 114.84269861 32.92355256 101.79728927 32.7890625 87.92578125 C32.77900646 86.10612475 32.76988528 84.28646284 32.76171875 82.46679688 C32.7399273 78.05715521 32.70554414 73.64777983 32.6640625 69.23828125 C16.52255194 69.01088676 0.68767433 69.17071843 -15.3359375 71.23828125 C-15.5378772 70.13262817 -15.5378772 70.13262817 -15.74389648 69.00463867 C-19.19558805 50.45376664 -23.89433948 33.00961648 -30.3359375 15.23828125 C-30.71975586 14.17770508 -31.10357422 13.11712891 -31.49902344 12.02441406 C-32.44135817 9.4278136 -33.38683338 6.83241351 -34.3359375 4.23828125 C-31.85755068 3.75476775 -29.37833972 3.27640924 -26.8984375 2.80078125 C-26.21072266 2.66607422 -25.52300781 2.53136719 -24.81445312 2.39257812 C-16.55508803 0.81753641 -8.4047584 0.07889457 0 0 Z " fill="#FCC600" transform="translate(624.3359375,95.76171875)"/>
<path d="M0 0 C8.67796462 7.15932081 13.13778339 16.51674265 16.34375 27.12109375 C16.570625 27.86359375 16.7975 28.60609375 17.03125 29.37109375 C19.20264127 38.05665884 18.50790663 47.23839598 18.34375 56.12109375 C11.77596423 58.243435 5.09435995 59.21899175 -1.71875 60.24609375 C-2.87697266 60.42785156 -4.03519531 60.60960937 -5.22851562 60.796875 C-6.91170898 61.05404297 -6.91170898 61.05404297 -8.62890625 61.31640625 C-9.64218994 61.47125488 -10.65547363 61.62610352 -11.69946289 61.78564453 C-14.71152609 62.12736485 -17.62760995 62.17915795 -20.65625 62.12109375 C-20.71232422 60.45433594 -20.71232422 60.45433594 -20.76953125 58.75390625 C-21.15512282 42.96302687 -21.15512282 42.96302687 -28.75 29.59375 C-36.56998957 23.55248756 -46.1722238 23.21994642 -55.65625 24.12109375 C-62.23586963 25.2723058 -67.07740348 27.21518676 -71.65625 32.12109375 C-76.21135714 39.34189059 -76.80658726 45.99943326 -76.81738281 54.35839844 C-76.82234772 55.28101471 -76.82731262 56.20363098 -76.83242798 57.15420532 C-76.84700884 60.20046745 -76.85384505 63.24667749 -76.859375 66.29296875 C-76.86513009 68.41660564 -76.87088777 70.54024252 -76.87664795 72.66387939 C-76.88714654 77.1157658 -76.89299659 81.56763421 -76.89648438 86.01953125 C-76.9019647 91.70993748 -76.92598786 97.40010391 -76.95445633 103.09043503 C-76.97312711 107.47776981 -76.97829069 111.86504737 -76.97982025 116.25241852 C-76.9828376 118.34947266 -76.99083494 120.44652601 -77.00400543 122.54354095 C-77.0211577 125.48461383 -77.0191632 128.42510764 -77.01269531 131.36621094 C-77.0219101 132.22366913 -77.03112488 133.08112732 -77.0406189 133.96456909 C-76.99277601 140.94798712 -75.8047669 147.27746845 -71.53125 152.93359375 C-63.10499216 159.34487689 -53.60977861 161.12161725 -43.203125 159.8125 C-36.16541033 158.59277338 -29.99960361 156.89611776 -25.28125 151.30859375 C-21.65074399 144.18721657 -21.27795779 137.5554431 -21.03125 129.68359375 C-20.9075 126.19796875 -20.78375 122.71234375 -20.65625 119.12109375 C-30.22625 119.12109375 -39.79625 119.12109375 -49.65625 119.12109375 C-49.65625 107.24109375 -49.65625 95.36109375 -49.65625 83.12109375 C-26.88625 82.79109375 -4.11625 82.46109375 19.34375 82.12109375 C19.26125 92.51609375 19.17875 102.91109375 19.09375 113.62109375 C19.07795898 116.86888672 19.06216797 120.11667969 19.04589844 123.46289062 C19.01648538 126.08855903 18.98565198 128.71421207 18.953125 131.33984375 C18.95282288 131.99714478 18.95252075 132.6544458 18.95220947 133.33166504 C18.9315965 149.91354739 15.86459728 167.51941083 4.09375 179.99609375 C-7.44064872 190.62846794 -22.32360138 196.20735757 -37.9296875 196.359375 C-38.73048737 196.36744675 -39.53128723 196.37551849 -40.35635376 196.38383484 C-42.05248887 196.39763602 -43.74865129 196.40837583 -45.44482422 196.41625977 C-47.15128933 196.42769634 -48.85772109 196.44801358 -50.56396484 196.4777832 C-69.98136857 196.81582203 -87.93461525 193.47942695 -102.47265625 179.453125 C-111.49686978 169.81545867 -115.41123544 157.83956924 -116.78027344 144.87915039 C-116.86336636 144.1051719 -116.94645927 143.33119341 -117.03207016 142.53376102 C-117.93783951 133.34007993 -117.94572306 124.15932249 -117.921875 114.9296875 C-117.92322796 113.0455775 -117.92517368 111.16146784 -117.92767334 109.27735901 C-117.93059428 105.36040875 -117.92642549 101.44355072 -117.91699219 97.52661133 C-117.90559161 92.55596043 -117.91218054 87.58552551 -117.92413712 82.61488247 C-117.93143167 78.7342217 -117.92903344 74.8536105 -117.92388153 70.97294807 C-117.92256634 69.14209021 -117.92411608 67.31122754 -117.92884064 65.48037529 C-117.97439835 42.88022432 -117.20005885 19.45256512 -100.65625 2.12109375 C-73.97551508 -19.11886386 -27.7480987 -19.62769923 0 0 Z " fill="#FFF7E2" transform="translate(384.65625,911.87890625)"/>
<path d="M0 0 C22.11 0 44.22 0 67 0 C67 0.66 67 1.32 67 2 C66.43410156 2.24234375 65.86820313 2.4846875 65.28515625 2.734375 C64.55167969 3.06953125 63.81820312 3.4046875 63.0625 3.75 C61.96615234 4.23726562 61.96615234 4.23726562 60.84765625 4.734375 C58.89352153 5.82949646 58.89352153 5.82949646 58.28126526 7.69020081 C57.89301239 10.87860086 58.70015845 13.15685656 59.65209961 16.22241211 C59.84114868 16.84113662 60.03019775 17.45986113 60.22497559 18.09733486 C60.85792411 20.16040229 61.50518186 22.21869492 62.15234375 24.27734375 C62.60449794 25.74219375 63.05569524 27.20733941 63.5059967 28.67276001 C64.71984808 32.61440634 65.94578935 36.55219125 67.17443848 40.48924637 C69.21488525 47.03594157 71.23595745 53.58867275 73.26115799 60.14009666 C74.02967824 62.62473496 74.79964397 65.10892239 75.56967163 67.59309387 C78.53720734 77.17906405 81.44144931 86.78068594 84.25799751 96.41209984 C85.16120285 99.49856277 86.07073545 102.58316483 86.97875977 105.66821289 C87.98379246 109.08530017 88.98310278 112.50348896 89.96359253 115.92770386 C90.85580708 119.04129229 91.76939472 122.14787187 92.6875 125.25390625 C92.93669693 126.14856598 93.18589386 127.04322571 93.44264221 127.96499634 C95.46581695 134.69754147 98.50750978 140.03731888 104.7734375 143.55859375 C106.06121094 143.99365234 106.06121094 143.99365234 107.375 144.4375 C108.24898437 144.74558594 109.12296875 145.05367187 110.0234375 145.37109375 C110.67570313 145.57863281 111.32796875 145.78617188 112 146 C112 146.99 112 147.98 112 149 C108.535 149.99 108.535 149.99 105 151 C103.00577837 160.38233793 105.51452256 167.90205597 108.34960938 176.80566406 C109.12545724 179.25144141 109.86526037 181.70612717 110.6015625 184.1640625 C111.08904407 185.74023491 111.57855872 187.31578026 112.0703125 188.890625 C112.2882547 189.6157428 112.5061969 190.3408606 112.73074341 191.08795166 C114.33168895 196.02557965 116.35485098 199.27516403 120 203 C123.15501165 204.41590372 123.15501165 204.41590372 126 205 C126 205.99 126 206.98 126 208 C115.36297381 208.07681704 104.75524404 207.83736025 94.125 207.5 C92.55078724 207.45162761 90.9765685 207.40344948 89.40234375 207.35546875 C85.6014901 207.23920939 81.80072613 207.12035313 78 207 C76.5706505 202.21434018 75.14663107 197.42713925 73.72753906 192.63842773 C73.24397808 191.0094114 72.75896055 189.38082669 72.27246094 187.75268555 C71.57364125 185.41306576 70.88006544 183.07194639 70.1875 180.73046875 C69.96876221 180.00224411 69.75002441 179.27401947 69.5246582 178.52372742 C68.65811896 175.57847474 68 173.08801335 68 170 C45.23 170 22.46 170 -1 170 C-2.32 175.28 -3.64 180.56 -5 186 C-6.98 192.93 -8.96 199.86 -11 207 C-26.84 207 -42.68 207 -59 207 C-59 206.34 -59 205.68 -59 205 C-56.41210938 203.97460938 -56.41210938 203.97460938 -53.82421875 202.94921875 C-51.15475797 201.56018455 -49.44090682 199.96116706 -48.17694092 197.20574951 C-47.96740784 196.54069397 -47.75787476 195.87563843 -47.54199219 195.19042969 C-47.29874207 194.4324408 -47.05549194 193.6744519 -46.80487061 192.89349365 C-46.55473206 192.0778595 -46.30459351 191.26222534 -46.046875 190.421875 C-45.78239563 189.57707581 -45.51791626 188.73227661 -45.24542236 187.86187744 C-44.68936936 186.07462015 -44.13827782 184.28581276 -43.59179688 182.49560547 C-42.75571469 179.76863904 -41.89453439 177.05049016 -41.03125 174.33203125 C-40.49324055 172.59162457 -39.95673294 170.85075278 -39.421875 169.109375 C-39.03452179 167.89806915 -39.03452179 167.89806915 -38.63934326 166.66229248 C-37.16905204 161.74989428 -36.76973301 158.11273407 -38 153 C-39.59676594 150.7189058 -40.53860567 150.14500965 -43.1875 149.3125 C-44.0846875 149.1578125 -44.0846875 149.1578125 -45 149 C-45 148.01 -45 147.02 -45 146 C-44.00419922 145.67128906 -44.00419922 145.67128906 -42.98828125 145.3359375 C-42.10527344 145.01882813 -41.22226562 144.70171875 -40.3125 144.375 C-39.44238281 144.07335938 -38.57226562 143.77171875 -37.67578125 143.4609375 C-30.47793907 139.53102075 -28.63241744 132.97924383 -26.44140625 125.5703125 C-26.1106459 124.49580841 -25.77988556 123.42130432 -25.43910217 122.3142395 C-24.49187721 119.23140921 -23.55741713 116.14495593 -22.62497711 113.05763245 C-21.50589709 109.37324893 -20.36299413 105.69625094 -19.22216797 102.01855469 C-16.37728295 92.83909483 -13.5535088 83.6532269 -10.73321533 74.46618652 C-9.40865665 70.1528618 -8.08212521 65.8401438 -6.75585938 61.52734375 C-4.49783993 54.18433031 -2.24511078 46.83970905 0.00516701 39.49431992 C1.42718382 34.85634171 2.86157341 30.22242941 4.30419922 25.59082031 C4.63826279 24.51196564 4.97232635 23.43311096 5.31651306 22.32156372 C5.91289744 20.39607263 6.51341587 18.47185431 7.11915588 16.54928589 C7.37301559 15.72622955 7.62687531 14.90317322 7.88842773 14.05517578 C8.1057103 13.35997833 8.32299286 12.66478088 8.54685974 11.94851685 C9.15100799 9.68407999 9.15100799 9.68407999 9 6 C8.2575 5.71125 7.515 5.4225 6.75 5.125 C4.43260203 4.17697356 2.22082885 3.15154089 0 2 C0 1.34 0 0.68 0 0 Z M33 53 C30.29304331 62.23119344 27.58925927 71.46330857 24.88944435 80.69659328 C23.63551683 84.98462339 22.38052699 89.27233641 21.12304688 93.55932617 C19.90799878 97.70180552 18.69582291 101.84511566 17.48557663 105.98900032 C17.02493406 107.56440791 16.56328308 109.13952102 16.10057449 110.71432304 C15.44924963 112.93172654 14.80162284 115.15018052 14.15478516 117.36889648 C13.78616364 118.62798325 13.41754211 119.88707001 13.03775024 121.18431091 C11.88558429 125.42069349 10.95238212 129.71428046 10 134 C25.51 134 41.02 134 57 134 C51.91927712 115.79351998 46.76357583 97.60991938 41.5625 79.4375 C40.82342695 76.85355587 40.08456294 74.26955198 39.34570312 71.68554688 C37.56452041 65.4568256 35.7825788 59.22832187 34 53 C33.67 53 33.34 53 33 53 Z " fill="#FFF7E2" transform="translate(461,900)"/>
<path d="M0 0 C2.68469147 1.66305193 4.68399613 3.62912277 6.91244507 5.86955261 C7.37144699 6.32826248 7.83044891 6.78697235 8.30335999 7.25958252 C9.81228713 8.76989781 11.31401492 10.28716258 12.81576538 11.80461121 C13.86336262 12.85594041 14.91140366 13.90682756 15.95986938 14.95729065 C18.71301558 17.71805887 21.46010165 20.4847812 24.20596313 23.25279236 C27.01105954 26.07837798 29.82185359 28.89828315 32.63217163 31.71867371 C38.1416657 37.24959245 43.64476915 42.78681459 49.14389038 48.32804871 C52.80270215 46.78848737 55.12680828 44.58715813 57.91244507 41.7865448 C58.37144699 41.32783493 58.83044891 40.86912506 59.30335999 40.39651489 C60.81228713 38.8861996 62.31401492 37.36893483 63.81576538 35.85148621 C64.86336262 34.800157 65.91140366 33.74926985 66.95986938 32.69880676 C69.71301558 29.93803854 72.46010165 27.17131621 75.20596313 24.40330505 C78.01105954 21.57771943 80.82185359 18.75781426 83.63217163 15.93742371 C89.1416657 10.40650496 94.64476915 4.86928282 100.14389038 -0.67195129 C104.99589785 0.92688069 109.83103092 2.54278401 114.61264038 4.34367371 C133.70626055 11.43862277 153.09510829 17.56217729 173.14389038 21.32804871 C173.14389038 24.32804871 173.14389038 24.32804871 171.23857117 26.60251141 C170.33890121 27.49941598 169.43923126 28.39632055 168.51229858 29.32040405 C168.0141052 29.82116072 167.51591181 30.32191738 167.00262165 30.83784848 C165.32369636 32.52173339 163.63423807 34.19464091 161.94467163 35.86784363 C160.74207237 37.06959709 159.5401325 38.27201071 158.33880615 39.47503662 C155.06873603 42.74596996 151.789477 46.00755044 148.50854111 49.26757979 C145.08388131 52.67352706 141.66767584 56.08793211 138.25057983 59.50146484 C131.77544616 65.96726209 125.29270085 72.42537197 118.80721378 78.88078243 C111.42540195 86.22909995 104.05207389 93.58590481 96.67946053 100.94344938 C81.51038517 116.08113951 66.33064079 131.20809235 51.14389038 146.32804871 C47.37647016 144.75978554 44.97971578 142.4178789 42.10720825 139.55206299 C41.36704228 138.81763534 41.36704228 138.81763534 40.61192346 138.06837076 C38.9612154 136.42797427 37.31773575 134.78052443 35.67416382 133.13298035 C34.49172962 131.9548935 33.30887818 130.77722529 32.12564087 129.59994507 C28.91456898 126.40226841 25.70993764 123.19821016 22.50682354 119.99256444 C19.83437586 117.31904791 17.15895972 114.64851181 14.48358178 111.9779281 C8.17528343 105.68072567 1.8723302 99.3782079 -4.42739868 93.07243347 C-10.93413524 86.55964909 -17.4500115 80.05611226 -23.970402 73.55700022 C-29.56394959 67.98103864 -35.15170511 62.39931942 -40.73483634 56.81292814 C-44.0714982 53.47444928 -47.41037114 50.13825853 -50.75485992 46.80761909 C-53.89696992 43.67803487 -57.03181174 40.54135149 -60.16110992 37.39895821 C-61.31307924 36.24461248 -62.46763415 35.09284066 -63.62489319 33.94379807 C-65.19939042 32.37967965 -66.7644398 30.80668999 -68.32736206 29.23101807 C-69.20708805 28.35145982 -70.08681404 27.47190157 -70.99319839 26.56569004 C-72.85610962 24.32804871 -72.85610962 24.32804871 -72.85610962 21.32804871 C-71.93390625 21.14181946 -71.93390625 21.14181946 -70.99307251 20.951828 C-56.85062905 18.03469795 -43.15731074 14.3589678 -29.48110962 9.76554871 C-28.78913483 9.5344339 -28.09716003 9.30331909 -27.38421631 9.06520081 C-19.51284972 6.42426936 -11.84049779 3.59166736 -4.32241821 0.0353241 C-1.85610962 -0.67195129 -1.85610962 -0.67195129 0 0 Z " fill="#FCC600" transform="translate(399.8561096191406,608.6719512939453)"/>
<path d="M0 0 C10.45065792 10.02547056 16.20282695 24.93769952 16.63964844 39.28369141 C16.72676395 45.44020808 16.67394159 51.59413795 16.5625 57.75 C9.75109783 59.58957577 2.90257462 60.77137902 -4.0625 61.875 C-5.16851563 62.05675781 -6.27453125 62.23851562 -7.4140625 62.42578125 C-8.4865625 62.59722656 -9.5590625 62.76867187 -10.6640625 62.9453125 C-11.62908691 63.10016113 -12.59411133 63.25500977 -13.58837891 63.41455078 C-16.5638349 63.76487439 -19.44429355 63.80703983 -22.4375 63.75 C-22.4468457 63.14115967 -22.45619141 62.53231934 -22.46582031 61.9050293 C-22.21642397 43.60244137 -22.21642397 43.60244137 -30.0625 27.75 C-39.74080695 22.01470699 -50.36529307 21.46188187 -61.375 23.21875 C-67.07604212 24.67877298 -71.76158129 27.06038783 -75.4375 31.75 C-81.13804938 42.73039401 -79.60023404 56.73929749 -79.60546875 68.734375 C-79.60868969 70.48016384 -79.61205437 72.22595242 -79.61555481 73.97174072 C-79.62151654 77.61951319 -79.62339778 81.26726207 -79.62280273 84.91503906 C-79.62270131 89.55214544 -79.63634655 94.18909803 -79.65357494 98.82616806 C-79.66478191 102.42963331 -79.66671929 106.0330624 -79.66619301 109.63654327 C-79.66736033 111.3442869 -79.6717105 113.05203185 -79.67952538 114.759758 C-80.43166272 133.8868645 -80.43166272 133.8868645 -73.9765625 151.203125 C-68.14022587 157.06908771 -59.11811992 158.73065567 -51.125 159.0625 C-43.71626826 158.87989041 -36.29644322 157.36731287 -30.4375 152.75 C-29.7775 152.75 -29.1175 152.75 -28.4375 152.75 C-24.10997684 144.50296725 -22.96532601 136.34095306 -22.75 127.125 C-22.71583984 126.12082031 -22.68167969 125.11664062 -22.64648438 124.08203125 C-22.56502109 121.63813282 -22.49555078 119.19454719 -22.4375 116.75 C-9.40261794 118.56254277 3.59278556 120.51711876 16.5625 122.75 C17.27382985 142.358081 16.63074427 161.22789719 3.4375 176.9375 C-6.55822478 187.44371484 -20.78764323 194.26979936 -35.36303711 194.92700195 C-36.89687495 194.95377833 -38.43084041 194.97381575 -39.96484375 194.98828125 C-40.79021133 194.996353 -41.61557892 195.00442474 -42.46595764 195.01274109 C-44.213368 195.02654269 -45.96080487 195.03728231 -47.70825195 195.04516602 C-49.47005284 195.0566178 -51.23182094 195.0769601 -52.9934082 195.10668945 C-72.28435752 195.43162405 -89.79626636 191.97231402 -104.25 178.09765625 C-117.12638319 164.27853786 -119.59307252 145.60265179 -119.58276367 127.42333984 C-119.58612228 126.55025177 -119.5894809 125.6771637 -119.59294128 124.77761841 C-119.60235548 121.92204319 -119.60438975 119.06652723 -119.60546875 116.2109375 C-119.60868861 114.20089698 -119.61205321 112.1908567 -119.61555481 110.18081665 C-119.62152278 105.97649595 -119.62339718 101.77219573 -119.62280273 97.56787109 C-119.6227014 92.22249626 -119.63633451 86.87725511 -119.65357494 81.53191185 C-119.66478252 77.38106706 -119.66671925 73.23025366 -119.66619301 69.07939529 C-119.66736071 67.11094326 -119.67171308 65.14249007 -119.67952538 63.17405319 C-119.7559619 41.9213897 -119.37653252 19.10378384 -104.21484375 2.4375 C-78.74318392 -21.74658142 -27.1699147 -21.70470197 0 0 Z " fill="#FFF7E2" transform="translate(704.4375,913.25)"/>
<path d="M0 0 C39.6 0 79.2 0 120 0 C120 11.88 120 23.76 120 36 C97.56 36 75.12 36 52 36 C52 52.83 52 69.66 52 87 C68.5 87 85 87 102 87 C102 98.88 102 110.76 102 123 C85.5 123 69 123 52 123 C52 138.84 52 154.68 52 171 C75.43 171 98.86 171 123 171 C123 183.21 123 195.42 123 208 C82.41 208 41.82 208 0 208 C0 207.01 0 206.02 0 205 C1.953125 204.44661458 3.90625 203.89322917 5.859375 203.33984375 C9.06552633 201.33307385 10.54910403 198.39709849 12 195 C12.37058364 192.27413106 12.5431304 189.96325088 12.50793457 187.25120544 C12.51417453 186.50216778 12.5204145 185.75313012 12.52684355 184.98139435 C12.54271546 182.48783945 12.53019282 179.99527 12.51757812 177.50170898 C12.5230018 175.70747307 12.53012584 173.91324161 12.53881836 172.11901855 C12.55702415 167.25750352 12.54999586 162.39632876 12.53730202 157.53480792 C12.52716171 152.44336718 12.53657042 147.35195521 12.54284668 142.26051331 C12.55011941 133.71211526 12.54054448 125.16385555 12.52148438 116.61547852 C12.49970942 106.73546757 12.50677307 96.85578673 12.52879 86.97578377 C12.54694632 78.48811692 12.54950138 70.00054941 12.53903532 61.51286942 C12.53280258 56.44561703 12.53195891 51.37851978 12.54518127 46.31127739 C12.55674275 41.54804668 12.54870857 36.78524138 12.52560425 32.02205658 C12.52031905 30.2749534 12.52182771 28.52781436 12.53065491 26.78072548 C12.54160169 24.3939387 12.52785881 22.0085113 12.50793457 19.62181091 C12.51685746 18.93201926 12.52578034 18.24222761 12.53497362 17.53153318 C12.45530521 12.60454515 11.06030913 9.80702999 8 6 C5.93923226 4.49481877 5.93923226 4.49481877 3.75 3.625 C3.04359375 3.30789063 2.3371875 2.99078125 1.609375 2.6640625 C1.07828125 2.44492187 0.5471875 2.22578125 0 2 C0 1.34 0 0.68 0 0 Z " fill="#FFF7E2" transform="translate(129,900)"/>
<path d="M0 0 C14.19 0 28.38 0 43 0 C51.81841199 17.63682399 51.81841199 17.63682399 55.3671875 24.76953125 C62.79174727 39.67481362 70.23872188 54.55440331 78.07177734 69.25048828 C79.44694701 71.8424046 80.7937939 74.44776184 82.125 77.0625 C82.49882813 77.79597656 82.87265625 78.52945313 83.2578125 79.28515625 C84 81 84 81 84 83 C84.66 83 85.32 83 86 83 C86.27134766 82.12682129 86.54269531 81.25364258 86.82226562 80.35400391 C87.94465185 77.15762292 89.26514214 74.32892545 90.84375 71.3359375 C91.4219751 70.23113037 92.0002002 69.12632324 92.59594727 67.98803711 C92.9054129 67.4010202 93.21487854 66.8140033 93.53372192 66.209198 C95.21985268 63.00856898 96.88969669 59.79948475 98.55859375 56.58984375 C98.91364487 55.90722977 99.26869598 55.22461578 99.63450623 54.52131653 C104.03436216 46.03897273 108.29922717 37.48907422 112.5625 28.9375 C112.94100098 28.17854431 113.31950195 27.41958862 113.70947266 26.63763428 C115.44270967 23.16145367 117.17451526 19.68456688 118.90454102 16.20678711 C121.59698429 10.80151039 124.29939758 5.40120484 127 0 C140.86 0 154.72 0 169 0 C168.21536083 4.70783503 167.79034916 6.91032851 165.69921875 10.84375 C165.22218506 11.7500415 164.74515137 12.65633301 164.25366211 13.59008789 C163.73682861 14.55035889 163.21999512 15.51062988 162.6875 16.5 C161.89194702 18.0013147 161.89194702 18.0013147 161.08032227 19.53295898 C156.7585915 27.66173183 152.3597852 35.75011046 147.92260742 43.81640625 C141.93648932 53.79025709 141.93648932 53.79025709 141 65 C143.39056942 66.9354148 143.39056942 66.9354148 146 68 C146 68.66 146 69.32 146 70 C145.443125 70.21914063 144.88625 70.43828125 144.3125 70.6640625 C143.549375 70.98117187 142.78625 71.29828125 142 71.625 C141.2575 71.92664063 140.515 72.22828125 139.75 72.5390625 C130.29721327 77.56085545 126.20993107 84.06104165 121.5 93.4375 C120.59158142 95.19860742 119.67805804 96.95699614 118.76399612 98.71517944 C117.84109129 100.50503899 116.93752289 102.30483149 116.03533936 104.10522461 C114.75027593 106.6239568 113.39891435 108.97826948 111.91314697 111.3963623 C105.97850169 121.10415698 104.8524688 128.99125103 105.078125 140.22265625 C105.08291039 141.82351585 105.08470101 143.42438687 105.0836792 145.0252533 C105.0898742 148.34789351 105.12254023 151.66876991 105.17675781 154.9909668 C105.245217 159.23789616 105.25999762 163.48292307 105.25697708 167.73034 C105.25806602 171.02225212 105.28001581 174.31375287 105.30898285 177.60552788 C105.32164972 179.17191915 105.32958036 180.73835656 105.33255768 182.30479622 C105.3412718 184.4892407 105.37634754 186.67169906 105.41894531 188.85571289 C105.4341925 190.09398331 105.4494397 191.33225372 105.46514893 192.60804749 C106.10010456 196.63484946 107.48470522 198.82836077 110 202 C112.06076774 203.50518123 112.06076774 203.50518123 114.25 204.375 C115.30960938 204.85066406 115.30960938 204.85066406 116.390625 205.3359375 C116.92171875 205.55507812 117.4528125 205.77421875 118 206 C118 206.66 118 207.32 118 208 C96.55 208 75.1 208 53 208 C53 207.01 53 206.02 53 205 C54.0725 204.608125 55.145 204.21625 56.25 203.8125 C60.58198545 201.97096773 62.90058741 199.19882519 65 195 C65.16878656 192.90341846 65.27443003 190.801657 65.3515625 188.69970703 C65.38792313 187.72797798 65.38792313 187.72797798 65.42501831 186.73661804 C65.6392347 180.66439366 65.76214431 174.58984041 65.85931396 168.51472664 C65.92547467 164.45271315 66.01906705 160.39611927 66.18652344 156.33691406 C67.10399067 133.51694184 64.47059646 118.08179532 51.7842865 98.78097534 C49.67977813 95.50090464 47.87509978 92.12815238 46.12254333 88.65058899 C41.76005184 80.06553937 36.47766529 74.59580404 27.4375 71.0625 C26.303125 70.711875 25.16875 70.36125 24 70 C24 69.34 24 68.68 24 68 C24.825 67.62875 25.65 67.2575 26.5 66.875 C27.325 66.25625 28.15 65.6375 29 65 C29.5898272 59.03257039 28.58217656 55.04144217 25.703125 49.7734375 C25.35783249 49.11103561 25.01253998 48.44863373 24.65678406 47.76615906 C23.53668128 45.62718765 22.39384637 43.50135309 21.25 41.375 C20.47335291 39.90231609 19.69805188 38.42892155 18.92407227 36.95483398 C13.86473807 27.35189894 8.70475242 17.79625362 3.40527344 8.32373047 C2.95055664 7.50662598 2.49583984 6.68952148 2.02734375 5.84765625 C1.63281006 5.14648682 1.23827637 4.44531738 0.83178711 3.72290039 C0 2 0 2 0 0 Z " fill="#FFF7E2" transform="translate(731,900)"/>
<path d="M0 0 C16.83 0 33.66 0 51 0 C51 56.43 51 112.86 51 171 C74.76 171 98.52 171 123 171 C123 182.88 123 194.76 123 207 C82.41 207 41.82 207 0 207 C0 206.34 0 205.68 0 205 C0.81404297 204.67128906 0.81404297 204.67128906 1.64453125 204.3359375 C2.35996094 204.01882813 3.07539062 203.70171875 3.8125 203.375 C4.52019531 203.07335938 5.22789063 202.77171875 5.95703125 202.4609375 C8.86168631 200.38380367 9.64669328 198.29648264 11 195 C11.28386174 192.27746569 11.4211113 189.78754675 11.40405273 187.0703125 C11.41091599 186.29878845 11.41777924 185.5272644 11.42485046 184.73236084 C11.44306769 182.19638372 11.43928883 179.66102815 11.43359375 177.125 C11.43815756 175.35432739 11.44346373 173.58365656 11.44947815 171.81298828 C11.45839893 168.10767404 11.45599741 164.40257546 11.44604492 160.69726562 C11.43454862 155.95590635 11.45478186 151.2152911 11.48396206 146.47402954 C11.50233193 142.81936947 11.50203018 139.16488753 11.49632454 135.51019287 C11.49617146 133.76233882 11.50220451 132.01447259 11.51461601 130.2666626 C11.52954186 127.82053271 11.51883894 125.37577527 11.50170898 122.9296875 C11.51137695 122.21262634 11.52104492 121.49556519 11.53100586 120.7567749 C11.45746026 115.72584896 10.15692959 112.87480475 7 109 C4.48635244 107.17380913 4.48635244 107.17380913 2 106 C1.34 105.67 0.68 105.34 0 105 C0.33 104.01 0.66 103.02 1 102 C1.928125 101.566875 2.85625 101.13375 3.8125 100.6875 C7.73448421 98.61115542 8.89917316 96.89178277 11 93 C11.37994303 90.19028428 11.54879581 87.77919587 11.51757812 84.97851562 C11.5245874 84.19723801 11.53159668 83.41596039 11.53881836 82.61100769 C11.55634568 80.04238776 11.54479495 77.47488008 11.53125 74.90625 C11.53394644 73.11315704 11.53783013 71.32006551 11.54284668 69.52697754 C11.54873458 65.77451617 11.54020174 62.02243644 11.52148438 58.27001953 C11.49869511 53.46809763 11.51182201 48.66707008 11.53577423 43.86518097 C11.55025145 40.16417747 11.54561743 36.46338484 11.53526306 32.76237488 C11.53260109 30.99220167 11.53584688 29.22200912 11.54518127 27.45185852 C11.55537884 24.97455377 11.53980245 22.49868276 11.51757812 20.02148438 C11.52567505 19.29507248 11.53377197 18.56866058 11.54211426 17.82023621 C11.45843657 12.76718696 10.1500279 9.90774379 7 6 C5.16680754 4.5128497 5.16680754 4.5128497 3.25 3.625 C2.1775 3.08875 1.105 2.5525 0 2 C0 1.34 0 0.68 0 0 Z " fill="#FFF7E2" transform="translate(0,900)"/>
<path d="M0 0 C2.17578125 2.2265625 2.17578125 2.2265625 2.17578125 6.2265625 C-0.07521043 8.02425103 -2.17527239 9.45641889 -4.63671875 10.9140625 C-5.34578369 11.34468994 -6.05484863 11.77531738 -6.78540039 12.21899414 C-36.33605108 29.76339023 -36.33605108 29.76339023 -47.82421875 28.2265625 C-50.65495272 27.32802403 -53.31746362 26.15851942 -56.01171875 24.9140625 C-56.79345459 24.55795898 -57.57519043 24.20185547 -58.38061523 23.83496094 C-76.85306398 15.21779632 -94.04350118 4.03685009 -109.57421875 -9.1484375 C-110.13471924 -9.624021 -110.69521973 -10.09960449 -111.27270508 -10.58959961 C-114.85629526 -13.71668846 -117.86088962 -17.05281315 -120.82421875 -20.7734375 C-81.15345745 -37.77519234 -32.97244075 -25.21180401 0 0 Z " fill="#FCC600" transform="translate(362.82421875,369.7734375)"/>
</svg>
