<?xml version="1.0" encoding="UTF-8"?>
<svg version="1.1" xmlns="http://www.w3.org/2000/svg" width="900" height="1164">
<path d="M0 0 C2.49869234 0.92695852 4.99838115 1.85056323 7.5 2.76953125 C8.48393486 3.13293358 8.48393486 3.13293358 9.48774719 3.50367737 C17.42851651 6.42039348 25.46521951 9.04386928 33.5 11.6875 C45.54738281 15.66324005 57.53289572 19.77733057 69.47418213 24.06072998 C78.90137303 27.4399015 88.36500248 30.67506721 97.875 33.8125 C108.57737178 37.34491621 119.21344561 41.03158408 129.81468201 44.85542297 C137.91518968 47.77133712 146.03489516 50.62469854 154.17578125 53.42578125 C155.42048187 53.85450027 156.6651825 54.2832193 157.94760132 54.72492981 C169.9491907 58.85419636 181.97285322 62.9178694 193.9988451 66.9754467 C215.9897287 74.39540471 237.95458084 81.88079263 259.85571289 89.5625 C271.30186672 93.57650536 282.76821152 97.52664626 294.25 101.4375 C307.70127694 106.02055651 321.12048312 110.68713876 334.51196289 115.44213867 C342.56776999 118.30195275 350.63439244 121.12869718 358.70922852 123.93432617 C359.76855843 124.30258263 360.82788834 124.67083908 361.91931915 125.05025482 C364.50864774 125.95035715 367.09804274 126.85026792 369.6875 127.75 C369.71050131 157.25274591 369.72810551 186.75549152 369.73856533 216.25824451 C369.73981547 219.77144688 369.74110985 223.28464922 369.74243164 226.79785156 C369.74269395 227.49702698 369.74295626 228.19620239 369.74322652 228.91656494 C369.74753297 240.11649708 369.75539162 251.31642388 369.7646528 262.51635289 C369.77413133 274.07887123 369.77958498 285.64138686 369.78158849 297.20390892 C369.78287204 303.66872044 369.78580306 310.13352002 369.79323006 316.59832764 C369.83993533 358.9540913 369.64313257 401.3195601 367.375 443.625 C367.31125183 444.84598389 367.24750366 446.06696777 367.18182373 447.32495117 C363.51185897 516.91420658 357.40633627 594.15485123 321.6875 655.75 C320.70524941 657.60253479 319.72593223 659.45662887 318.75 661.3125 C302.91760772 690.09095032 280.55060078 716.53699201 254.6875 736.75 C253.04150037 738.14563723 251.39567425 739.54147912 249.75 740.9375 C224.52329384 761.53512352 195.52058129 777.59098655 167.0625 793.1875 C166.2480542 793.63480469 165.4336084 794.08210937 164.59448242 794.54296875 C151.10895968 801.86518092 137.23642986 808.48166516 123.4375 815.1875 C122.67270325 815.55917297 121.90790649 815.93084595 121.11993408 816.31378174 C110.19902984 821.61513359 99.24862709 826.81492569 88.12548828 831.68115234 C85.442651 832.85734518 82.76612947 834.0472593 80.08984375 835.23828125 C56.03824313 845.91829053 31.82213836 856.20450942 7.40374756 866.01751709 C5.47765307 866.79358236 3.55350734 867.5745029 1.63140869 868.3604126 C-1.06698937 869.46178397 -3.77239332 870.54377641 -6.48046875 871.62109375 C-7.28531204 871.95365677 -8.09015533 872.28621979 -8.91938782 872.62886047 C-17.62289179 876.03775366 -23.63943608 873.02529122 -31.95703125 869.6640625 C-32.99103058 869.25127045 -34.02502991 868.83847839 -35.09036255 868.41317749 C-38.43801269 867.07391054 -41.78170563 865.72510025 -45.125 864.375 C-46.83129074 863.68905762 -46.83129074 863.68905762 -48.572052 862.98925781 C-63.6653584 856.92113558 -78.69194588 850.76244333 -93.5 844.02294922 C-96.61683692 842.61225584 -99.74464323 841.22808185 -102.875 839.84765625 C-167.43920565 811.36954684 -234.82711594 781.44507543 -289.3125 735.75 C-290.09898926 735.1010376 -290.09898926 735.1010376 -290.90136719 734.43896484 C-304.60186587 723.12978179 -317.47407856 710.86428284 -328.3125 696.75 C-329.32582841 695.47577099 -330.34023393 694.20239811 -331.35546875 692.9296875 C-339.19585673 683.00798639 -346.07919026 672.75035706 -352.3125 661.75 C-352.76866699 660.9461084 -353.22483398 660.1422168 -353.69482422 659.31396484 C-395.46331282 584.76810436 -399.78871704 493.97093692 -402.390625 410.4921875 C-402.41234315 409.79809288 -402.43406131 409.10399827 -402.45643759 408.38887048 C-404.01002954 357.94770091 -403.5394909 307.45722322 -403.45655453 256.99766701 C-403.4404931 247.11620395 -403.42970995 237.23474476 -403.42236328 227.35327148 C-403.42183783 226.64854648 -403.42131239 225.94382147 -403.42077102 225.21774115 C-403.4181593 221.67926973 -403.41563227 218.14079826 -403.41314721 214.60232675 C-403.39270727 185.6515322 -403.35759399 156.7007665 -403.3125 127.75 C-399.38872478 126.33166882 -395.46419945 124.91542403 -391.53955078 123.49951172 C-390.44463821 123.10370407 -389.34972565 122.70789642 -388.22163391 122.3000946 C-378.22690908 118.69621527 -368.18009071 115.25787272 -358.11309814 111.8621521 C-343.68282484 106.9931052 -329.27350395 102.07781728 -314.9375 96.9375 C-304.85373839 93.3240744 -294.73314626 89.85819629 -284.5625 86.5 C-270.91502379 81.99372896 -257.33892287 77.29949425 -243.77603149 72.5451355 C-229.79178119 67.64428001 -215.78191927 62.82508325 -201.75 58.0625 C-188.73990795 53.64667362 -175.7562422 49.16920786 -162.8125 44.5625 C-151.54293426 40.55204096 -140.23260632 36.69121405 -128.875 32.9375 C-109.19635809 26.43147697 -89.63971217 19.58695856 -70.08380127 12.72235107 C-62.60760433 10.09921941 -55.1289338 7.48314173 -47.65075684 4.86566162 C-45.05893284 3.95813531 -42.46741495 3.04974005 -39.87597656 2.14111328 C-38.29622443 1.58756375 -36.71647185 1.03401551 -35.13671875 0.48046875 C-34.07565163 0.10807823 -34.07565163 0.10807823 -32.9931488 -0.27183533 C-31.10078852 -0.93462903 -29.20669889 -1.59247928 -27.3125 -2.25 C-26.24580078 -2.62825928 -25.17910156 -3.00651855 -24.08007812 -3.39624023 C-15.40706742 -6.07174468 -8.16922181 -3.13794399 0 0 Z " fill="#EDEDED" transform="translate(465.3125,4.25)"/>
<path d="M0 0 C2.38317656 0.71495297 4.76618562 1.43040665 7.1484375 2.1484375 C8.94244354 2.68418177 10.73901748 3.21147269 12.5390625 3.7265625 C16.49195463 4.86850912 20.33094346 6.09147622 24.125 7.6875 C31.45685446 10.65214893 38.9559132 13.1443275 46.44042969 15.69116211 C48.99531112 16.56090379 51.54852082 17.43542147 54.1015625 18.31054688 C63.78223122 21.63672157 63.78223122 21.63672157 73.5625 24.65234375 C77.52565571 25.8046213 81.27723941 27.29077877 85.09277344 28.85742188 C91.51815587 31.38268135 98.09022905 33.52677018 104.625 35.75 C106.19145806 36.28524877 107.75786379 36.82065075 109.32421875 37.35620117 C119.16321313 40.71577871 129.02264911 44.01005068 138.89575195 47.26806641 C145.6941266 49.5261001 152.40907984 51.96793453 159.11303711 54.49072266 C165.50519679 56.87382174 171.97791265 58.92856027 178.49584961 60.9375 C183.31113526 62.43202087 187.96894429 64.11060021 192.6171875 66.0703125 C195.53661866 67.20936925 198.49805096 68.10150481 201.5 69 C205.29740543 70.13657842 208.97314952 71.33536966 212.625 72.875 C217.49037849 74.9009117 222.46987032 76.44463414 227.5 78 C233.25651093 79.78029013 238.863087 81.65937648 244.41796875 84.00390625 C247.89171916 85.34400664 251.44033028 86.41598199 255 87.5 C259.34223323 88.82233028 263.62647861 90.1707204 267.8125 91.9375 C273.42108528 94.28948737 279.22603006 95.98786186 285.03027344 97.78222656 C290.06580445 99.35171682 294.95295463 101.08850602 299.81640625 103.13671875 C302.9253735 104.36584534 306.11445194 105.24694644 309.32641602 106.16479492 C312.0529745 107.01654879 314.66695688 108.0178958 317.3125 109.09375 C318.19550781 109.45146484 319.07851563 109.80917969 319.98828125 110.17773438 C320.98408203 110.58475586 320.98408203 110.58475586 322 111 C322.02373076 133.73763744 322.04117062 156.47527273 322.05181217 179.21292019 C322.05689225 189.77875124 322.06379738 200.34457437 322.07543945 210.91040039 C322.1276995 259.31118286 322.01844614 307.68982019 321.05648613 356.08230782 C320.94668559 361.75386267 320.85520671 367.42573881 320.76252747 373.09759521 C319.86247897 416.91276896 316.48241432 461.7804778 306.56005859 504.55419922 C306.04743654 506.79284251 305.57280592 509.03512465 305.11328125 511.28515625 C293.54788103 566.25878618 263.58742789 619.25421164 219 654 C217.79247194 654.95119256 216.58546914 655.9030522 215.37890625 656.85546875 C212.43836684 659.17396366 209.49373215 661.48698334 206.53613281 663.78369141 C205.08801748 664.93030784 203.67912247 666.12596293 202.2734375 667.32421875 C200 669 200 669 197 669 C195.4140625 667.15625 195.4140625 667.15625 193.625 664.5 C190.1499531 659.53017189 186.4769537 654.80814115 182.625 650.125 C177.79222545 644.2304585 173.08147913 638.26587976 168.45703125 632.20703125 C165.8559742 628.80145877 163.21308007 625.42960435 160.5625 622.0625 C160.10472168 621.48097168 159.64694336 620.89944336 159.17529297 620.30029297 C158.24740379 619.1220986 157.31934346 617.94403901 156.39111328 616.76611328 C154.09125763 613.84628952 151.79584055 610.92298107 149.5 608 C148.5833549 606.83331639 147.66668823 605.66664973 146.75 604.5 C119.25 569.5 119.25 569.5 117.87524414 567.75024414 C116.95784991 566.5826959 116.04036933 565.41521551 115.12280273 564.24780273 C112.84155755 561.3451721 110.56178786 558.44140726 108.28515625 555.53515625 C103.53558775 549.47559723 98.75830009 543.4405861 93.9375 537.4375 C90.58852476 533.26622452 87.26512707 529.07920602 84.01147461 524.83300781 C83.17623908 523.74349988 82.33725125 522.65685743 81.49438477 521.57324219 C79.63508609 519.17745722 77.84835804 516.77285971 76.1640625 514.25 C71.22703092 507.17861852 65.571637 504.44209927 57.96875 500.91796875 C36.84501187 491.01370655 23.03917705 470.28792706 14.4921875 449.296875 C13.11640426 445.23009436 12.01742815 441.16778823 11 437 C10.77296387 436.12875488 10.54592773 435.25750977 10.31201172 434.35986328 C2.02450565 401.58527032 4.33872121 365.87317015 11 333 C11.33 333 11.66 333 12 333 C12.03963867 333.70382812 12.07927734 334.40765625 12.12011719 335.1328125 C12.92971058 348.83775265 13.86887493 361.84562807 18 375 C18.31710937 376.06541016 18.31710937 376.06541016 18.640625 377.15234375 C21.77720116 387.67446261 25.6725118 397.56285902 30.99414062 407.17773438 C31.95640573 408.92102242 32.8777111 410.68673176 33.796875 412.453125 C38.35101912 420.35475967 43.26483756 423.37728179 51.82202148 426.24975586 C62.84067992 430.04533229 73.62972801 434.60749027 84.42358398 438.9934082 C86.19733058 439.71199793 87.97275694 440.42645392 89.74975586 441.13696289 C92.34892267 442.17667715 94.94245166 443.22944769 97.53515625 444.28515625 C98.32680679 444.5988063 99.11845734 444.91245636 99.93409729 445.23561096 C107.0224194 448.15225657 110.20774401 451.7749935 113.5 458.6875 C113.83257813 459.37175049 114.16515625 460.05600098 114.5078125 460.76098633 C115.25736496 462.30643274 116.00323367 463.85366934 116.74609375 465.40234375 C118.11397173 468.23610965 119.50925634 471.05548016 120.90625 473.875 C130.69648523 493.76229139 138.27374102 513.59159993 144 535 C159.05525027 538.56473333 174.70459548 537.13904486 190 536 C185.35811544 527.94396925 180.57106166 519.99761522 175.625 512.125 C174.97523193 511.08794922 174.32546387 510.05089844 173.65600586 508.98242188 C168.82621176 501.28548146 163.95032171 493.62000741 159 486 C159.66 485.67 160.32 485.34 161 485 C162.97338867 485.87353516 162.97338867 485.87353516 165.41796875 487.2890625 C166.78767822 488.07349731 166.78767822 488.07349731 168.18505859 488.8737793 C169.17586426 489.45168213 170.16666992 490.02958496 171.1875 490.625 C173.28760383 491.83230367 175.3878688 493.03932708 177.48828125 494.24609375 C178.56803223 494.86983887 179.6477832 495.49358398 180.76025391 496.13623047 C185.77811407 499.02291807 190.82801137 501.85216097 195.875 504.6875 C201.3292069 507.75227573 206.76419583 510.83512745 212.1171875 514.07421875 C212.90367676 514.54835205 213.69016602 515.02248535 214.50048828 515.51098633 C215.96023186 516.39611628 217.41471401 517.2900046 218.86279297 518.1940918 C220.5310863 519.20597635 222.26164591 520.11386341 224 521 C227.70016395 519.76661202 228.54703034 518.36179556 230.9375 515.3125 C234.48727844 510.86666098 238.09870403 506.49724049 241.8125 502.1875 C242.5691394 501.30759399 242.5691394 501.30759399 243.34106445 500.40991211 C244.89313446 498.60582378 246.44652985 496.80288273 248 495 C251.03506399 491.47395567 254.06619332 487.94485192 257.08203125 484.40234375 C259.02981621 482.11740447 261.00807612 479.86496881 263.01171875 477.62890625 C263.94543673 476.5652132 264.87903604 475.50141597 265.8125 474.4375 C266.64394531 473.50808594 267.47539063 472.57867188 268.33203125 471.62109375 C270.24536884 469.19903478 270.24536884 469.19903478 269.80981445 466.75415039 C268.8200953 463.38815046 267.34230864 460.40046172 265.7109375 457.3125 C265.37603302 456.66639771 265.04112854 456.02029541 264.69607544 455.35461426 C263.59483553 453.2333432 262.48491994 451.11674034 261.375 449 C260.59899132 447.50878501 259.82360901 446.01724391 259.04882812 444.52539062 C257.46497001 441.47756314 255.87791902 438.43143368 254.28808594 435.38671875 C251.0069359 429.10067554 247.75465749 422.79979145 244.5 416.5 C243.58092736 414.7240568 242.66185388 412.94811403 241.74264526 411.17224121 C237.31690639 402.62075941 232.9076798 394.06080027 228.5 385.5 C221.28874256 371.49480844 214.06100074 357.4982478 206.81738281 343.50976562 C205.59508476 341.14923945 204.37301845 338.78859517 203.15136719 336.42773438 C201.92820391 334.06396508 200.70447979 331.70048894 199.48046875 329.3371582 C198.29989236 327.05750764 197.12018221 324.77740823 195.94140625 322.49682617 C193.3327461 317.45828904 190.7065499 312.43235781 188.0078125 307.44140625 C187.54930908 306.58885254 187.09080566 305.73629883 186.6184082 304.85791016 C185.78901368 303.32068501 184.95242196 301.78730444 184.10620117 300.25927734 C179.64518808 291.97634803 177.48943193 284.0984319 177.75 274.6875 C177.76752319 273.46027222 177.76752319 273.46027222 177.78540039 272.20825195 C177.95057222 263.39015194 178.52254309 254.69874352 180 246 C179.15252197 245.46052734 178.30504395 244.92105469 177.43188477 244.36523438 C169.43739107 239.26043902 161.53311823 234.03935275 153.69506836 228.69775391 C151.93531082 227.49850811 150.17386642 226.30177475 148.41210938 225.10546875 C141.54157187 220.43584911 134.6997703 215.72616238 127.8737793 210.99169922 C124.98376355 208.98874718 122.08656607 206.99672067 119.18554688 205.00976562 C111.56655413 199.79139406 103.99612686 194.50571165 96.43676758 189.20141602 C91.18654404 185.52065432 85.91655174 181.87104836 80.625 178.25 C73.34436146 173.26662355 66.15875888 168.15654351 59 163 C60.36301014 159.90877125 61.18590857 158.84969094 63.9375 156.625 C76.18628718 146.49865402 85.44341734 131.02069458 90 116 C90.22558594 115.29875 90.45117188 114.5975 90.68359375 113.875 C95.39196674 96.73002802 90.6558838 79.343752 82.87890625 63.98828125 C80.90584842 60.85025788 78.71458357 58.50970934 76 56 C74.97561545 56.99636187 73.95577287 57.99739287 72.9375 59 C72.36902344 59.556875 71.80054688 60.11375 71.21484375 60.6875 C69.31125211 62.67502425 67.49973899 64.70075107 65.6953125 66.77734375 C62.2010788 70.79582859 58.59353514 74.69140397 54.9375 78.5625 C53.61312024 79.96990058 52.28890526 81.37745626 50.96484375 82.78515625 C50.30210449 83.48914551 49.63936523 84.19313477 48.95654297 84.91845703 C45.96221102 88.10409144 42.98104009 91.30193306 40 94.5 C38.2693837 96.35449562 36.53850299 98.20874421 34.80761719 100.06298828 C33.55790045 101.4021634 32.30857678 102.74170538 31.05957031 104.08154297 C18.09466656 117.98524068 18.09466656 117.98524068 11.703125 124.265625 C9.19504152 126.81972836 6.87495067 129.52682246 4.53515625 132.234375 C2.77261866 134.26151747 1.00931289 136.2139441 -1 138 C-1.66 138 -2.32 138 -3 138 C-5.1572426 129.86380074 -7.17298279 121.72040913 -8.6875 113.4375 C-8.91824219 112.17808594 -9.14898437 110.91867188 -9.38671875 109.62109375 C-14.23804376 76.94698763 -15.78244149 29.91274944 0 0 Z " fill="#011538" transform="translate(470,53)"/>
<path d="M0 0 C14.85 0 29.7 0 45 0 C47.72963873 24.17680016 50.38734723 48.35347611 52.8125 72.5625 C52.92322845 73.66156677 53.03395691 74.76063354 53.14804077 75.89300537 C53.46177914 79.01307124 53.77252464 82.13341806 54.08203125 85.25390625 C54.22229233 86.64937935 54.22229233 86.64937935 54.36538696 88.07304382 C54.4495285 88.93009415 54.53367004 89.78714447 54.62036133 90.67016602 C54.73097649 91.78561546 54.73097649 91.78561546 54.84382629 92.92359924 C54.99579016 94.94402822 55 96.9738642 55 99 C55.66 99 56.32 99 57 99 C57.08975098 98.06172363 57.17950195 97.12344727 57.27197266 96.15673828 C60.3458379 64.08689037 63.66101468 32.04312909 67 0 C82.84 0 98.68 0 115 0 C115 70.95 115 141.9 115 215 C105.1 215 95.2 215 85 215 C84.20490187 211.02450937 83.87624723 207.9544086 83.87974548 203.96989441 C83.87768349 202.15474838 83.87768349 202.15474838 83.87557983 200.30293274 C83.88097275 198.32416389 83.88097275 198.32416389 83.88647461 196.30541992 C83.88675682 194.89583335 83.88659808 193.48624664 83.8860321 192.07666016 C83.88574546 188.25681721 83.89162077 184.43700573 83.89860606 180.6171701 C83.90486166 176.62265543 83.90544515 172.62814002 83.90663147 168.63362122 C83.90973827 161.07247176 83.9179429 153.51133679 83.92798096 145.9501937 C83.93916229 137.34081187 83.94465764 128.73142935 83.94967639 120.12204206 C83.96012605 102.4146865 83.9777129 84.70734442 84 67 C83.34 67 82.68 67 82 67 C81.95604599 67.79522064 81.91209198 68.59044128 81.86680603 69.40975952 C81.10926099 81.90314221 79.82761727 94.33811715 78.56640625 106.7890625 C78.32577038 109.18351942 78.0853727 111.57800028 77.84519958 113.97250366 C77.21520951 120.24779843 76.58233516 126.52279878 75.94873047 132.79772949 C75.060179 141.60264551 74.17551746 150.4079533 73.29051208 159.21322632 C72.82075227 163.88701909 72.34988621 168.56069815 71.87806702 173.23428345 C71.65900088 175.40830221 71.43996034 177.58232355 71.22094727 179.75634766 C71.11638497 180.79057673 71.01182268 181.82480579 70.90409184 182.89037514 C70.3914277 187.98782944 69.89570507 193.08609484 69.43112183 198.18817139 C69.34152915 199.16454748 69.25193647 200.14092358 69.15962887 201.14688683 C68.99223971 202.98453579 68.82825963 204.8224996 68.66825962 206.66080666 C68.11047045 212.7790591 68.11047045 212.7790591 67 215 C59.41 215 51.82 215 44 215 C42.72695713 202.74919469 41.4557415 190.49820102 40.1857605 178.24707794 C39.87652399 175.26469785 39.56706669 172.28234073 39.25756836 169.29998779 C37.16901224 149.16974585 35.08627607 129.03922039 33.1015625 108.8984375 C32.96028529 107.46769117 32.81899925 106.03694571 32.67770386 104.60620117 C32.03347744 98.0756705 31.39545154 91.54458425 30.76513672 85.01269531 C30.54146027 82.72980603 30.31767227 80.44692768 30.09375 78.1640625 C29.99623444 77.13292328 29.89871887 76.10178406 29.79824829 75.03939819 C29.7069162 74.11583527 29.61558411 73.19227234 29.52148438 72.24072266 C29.44426147 71.43945953 29.36703857 70.63819641 29.28747559 69.81265259 C29.17937348 67.98350016 29.17937348 67.98350016 28 67 C27.67 115.84 27.34 164.68 27 215 C18.09 215 9.18 215 0 215 C0 144.05 0 73.1 0 0 Z " fill="#EEEEEE" transform="translate(279,911)"/>
<path d="M0 0 C9.70451931 -0.4828894 19.6605968 2.1851983 27.1640625 8.50390625 C38.14180954 19.35604977 41.05510047 33.16544545 41.16436768 48.15356445 C41.1634613 49.40314941 41.16255493 50.65273438 41.16162109 51.94018555 C41.16761885 53.29661931 41.17442722 54.65304969 41.18197632 56.00947571 C41.19951888 59.66681743 41.20432675 63.32406534 41.20560789 66.98144507 C41.20703699 69.27483368 41.21132087 71.56819902 41.21660233 73.8615818 C41.23506528 81.88649615 41.24327783 89.91134441 41.24169922 97.9362793 C41.24049953 105.37759867 41.26157749 112.81862722 41.29318655 120.25987309 C41.31947386 126.68065187 41.3300613 133.10133639 41.3287884 139.52216846 C41.32828232 143.34277627 41.33376668 147.16312536 41.3551445 150.98367882 C41.37473807 154.58312034 41.3745102 158.18206193 41.36011124 161.78152275 C41.35707676 163.70490873 41.37355133 165.62829592 41.39099121 167.55160522 C41.30267926 180.01731888 38.94942639 193.26711977 30.87109375 203.19140625 C29.43787814 204.36850571 27.97917246 205.51528707 26.49609375 206.62890625 C23.79076855 208.76847903 22.97210756 209.6195127 22.36328125 213.06640625 C22.37030515 215.81977668 22.51579948 218.46254883 22.87109375 221.19140625 C28.21994591 224.18445882 28.21994591 224.18445882 40.87109375 224.19140625 C40.87109375 233.76140625 40.87109375 243.33140625 40.87109375 253.19140625 C36.29234375 253.29453125 31.71359375 253.39765625 26.99609375 253.50390625 C25.57312988 253.54942627 24.15016602 253.59494629 22.68408203 253.6418457 C14.68836837 253.72847618 8.45606368 252.98260357 1.87109375 248.19140625 C-4.08149962 242.19595543 -6.91281591 235.36092914 -7.43359375 226.98046875 C-7.51234587 219.01053571 -7.51234587 219.01053571 -11.0078125 212.3828125 C-13.36082821 211.42329171 -15.6634638 210.79659723 -18.12890625 210.19140625 C-25.96839831 206.3762941 -30.50100618 198.83518951 -33.30975437 190.82289314 C-35.75104742 181.97364671 -36.70181143 173.89025425 -36.63061523 164.65966797 C-36.6344124 163.27954562 -36.63992381 161.89942712 -36.64698792 160.51931763 C-36.66077561 156.8209369 -36.64989364 153.1230301 -36.6332767 149.42467642 C-36.61926787 145.52571986 -36.62590385 141.62678647 -36.62940979 137.72781372 C-36.63209892 131.18679301 -36.61874668 124.64595716 -36.59545898 118.10498047 C-36.56883512 110.5755002 -36.56711411 103.04632823 -36.57884735 95.51681697 C-36.58967717 88.22803095 -36.58339888 80.93935489 -36.56929207 73.65057755 C-36.56357943 70.56877116 -36.56357722 67.48704652 -36.56835747 64.40523911 C-36.57317817 60.76883128 -36.56281844 57.13275525 -36.54140282 53.49641037 C-36.53331018 51.54887214 -36.53962846 49.60129012 -36.54660034 47.65374756 C-36.43523678 34.2626048 -34.17942463 21.21440992 -25.08984375 10.87109375 C-17.89115185 3.97764673 -9.83242787 0.88401645 0 0 Z M-2.50390625 31.44140625 C-5.4776942 34.64394712 -5.25600044 37.82960199 -5.26261902 41.99205017 C-5.266884 43.20203171 -5.27114899 44.41201324 -5.27554321 45.65866089 C-5.27519369 47.00152591 -5.27473216 48.34439091 -5.27416992 49.68725586 C-5.27716171 51.09991037 -5.28056429 52.51256406 -5.28434753 53.92521667 C-5.29318921 57.76403251 -5.2955257 61.60282607 -5.29616332 65.44165111 C-5.29711239 68.64501512 -5.30079063 71.84837393 -5.30433542 75.05173594 C-5.31248043 82.60830515 -5.31491959 90.16486245 -5.31420898 97.72143555 C-5.31360801 105.52003059 -5.32416372 113.31855649 -5.33995265 121.11713403 C-5.35302117 127.81019858 -5.35839318 134.50324052 -5.35775357 141.19631773 C-5.35749841 145.19489284 -5.36036003 149.19340651 -5.37093163 153.19196892 C-5.38060118 156.95203392 -5.38069969 160.7119786 -5.37341499 164.47204781 C-5.37236776 165.85233358 -5.37474026 167.2326268 -5.38077545 168.61289978 C-5.3884783 170.49651096 -5.38265892 172.38016302 -5.37614441 174.26377869 C-5.37668918 175.31810058 -5.37723394 176.37242247 -5.37779522 177.4586935 C-5.12473552 180.23719943 -4.65061327 181.87085356 -3.12890625 184.19140625 C-0.07906629 185.71632623 2.51343065 185.42703173 5.87109375 185.19140625 C8.48702528 183.36025418 8.8409883 182.28172259 9.87109375 179.19140625 C9.96841585 177.27465406 10.00607389 175.35466889 10.01153564 173.43545532 C10.01724579 172.2353331 10.02295593 171.03521088 10.02883911 169.79872131 C10.02995697 168.48020676 10.03107483 167.1616922 10.03222656 165.80322266 C10.03685535 164.40204233 10.0418801 163.00086327 10.04727173 161.59968567 C10.06039096 157.79179828 10.06683963 153.98392851 10.07128239 150.17602205 C10.07421359 147.79715901 10.07831846 145.41830078 10.08278656 143.03944016 C10.09645958 135.59690677 10.10612747 128.15438439 10.10998845 120.71183932 C10.11447035 112.11961316 10.13202508 103.52754599 10.16098905 94.93536818 C10.18259984 88.29409223 10.19269239 81.65286104 10.19402957 75.01155031 C10.19507794 71.04476394 10.20099249 67.07812707 10.21884918 63.11137772 C10.23531978 59.3799959 10.23749043 55.64887613 10.22871017 51.91747093 C10.2275719 49.89667737 10.24129665 47.87589254 10.25546265 45.85514832 C10.24989349 44.64938644 10.24432434 43.44362457 10.23858643 42.20132446 C10.24005299 41.15529871 10.24151955 40.10927296 10.24303055 39.03154945 C9.80757413 35.70636468 8.91728187 33.83626293 6.87109375 31.19140625 C3.13100662 30.1033809 1.00031247 29.59708061 -2.50390625 31.44140625 Z " fill="#EEEEEE" transform="translate(621.12890625,910.80859375)"/>
<path d="M0 0 C54.97628458 0 54.97628458 0 65.265625 8.9765625 C70.1238543 14.06870654 72.94992149 19.29381097 75 26 C75.17636364 26.5767491 75.35272728 27.15349819 75.53443527 27.74772453 C76.13103879 30.63393001 76.13265523 33.34972688 76.14044189 36.29812622 C76.14615204 37.59336716 76.15186218 38.88860809 76.15774536 40.22309875 C76.15899066 41.65670767 76.16011577 43.09031669 76.16113281 44.52392578 C76.16576279 46.03536602 76.17078769 47.54680508 76.17617798 49.0582428 C76.18928961 53.1639179 76.19574492 57.26957665 76.20018864 61.37526941 C76.20312231 63.9429601 76.20722775 66.51064636 76.21169281 69.07833481 C76.22536659 77.11941733 76.23503294 85.16048968 76.2388947 93.20158303 C76.24337055 102.46953027 76.26089694 111.73732967 76.2898953 121.00523198 C76.31155337 128.17738714 76.32160124 135.34950084 76.32293582 142.52168834 C76.32398121 146.80104756 76.32983174 151.08026778 76.34775543 155.35959244 C76.36430684 159.38975941 76.36635757 163.41968399 76.35761642 167.44987297 C76.35684973 168.92278508 76.36113994 170.3957106 76.37107468 171.8685894 C76.45411349 184.95532724 74.67904979 196.99454765 65.25390625 206.8203125 C47.70563477 221.34050387 19.16049303 215 0 215 C0 144.05 0 73.1 0 0 Z M31 30 C31 81.15 31 132.3 31 185 C40.18415303 185.98418332 40.18415303 185.98418332 43.5625 183.125 C45.93457203 179.61845874 46.12834188 177.6278656 46.14044189 173.40226746 C46.14615204 172.21193405 46.15186218 171.02160065 46.15774536 169.79519653 C46.15886322 168.48243744 46.15998108 167.16967834 46.16113281 165.81713867 C46.16576021 164.42595793 46.17078476 163.03477845 46.17617798 161.64360046 C46.18931245 157.85838042 46.19574908 154.07317811 46.20018864 150.28793883 C46.20311796 147.9236545 46.20722252 145.55937504 46.21169281 143.19509315 C46.22537111 135.79954271 46.23503588 128.40400337 46.2388947 121.00844115 C46.24337505 112.46827496 46.26092036 103.92826886 46.2898953 95.38815135 C46.31150723 88.78935803 46.32159874 82.19060977 46.32293582 75.59178144 C46.3239843 71.64957201 46.32990087 67.707513 46.34775543 63.76534081 C46.36422755 60.05613272 46.36639594 56.34718824 46.35761642 52.63795662 C46.3564782 50.62908133 46.37020261 48.62021482 46.3843689 46.61138916 C46.37879974 45.41259628 46.37323059 44.21380341 46.36749268 42.97868347 C46.36969252 41.41875813 46.36969252 41.41875813 46.3719368 39.82731915 C45.93656516 36.51779295 44.97553252 34.67197081 43 32 C39.35284977 29.16794971 39.35284977 29.16794971 31 30 Z " fill="#EEEEEE" transform="translate(824,911)"/>
<path d="M0 0 C1.15405273 1.58203125 1.15405273 1.58203125 2.43359375 3.8125 C3.15083618 5.04250732 3.15083618 5.04250732 3.88256836 6.29736328 C4.3956958 7.1892334 4.90882324 8.08110352 5.4375 9 C10.90686671 18.30343473 16.73414956 27.2181567 23 36 C23.52239258 36.73492676 24.04478516 37.46985352 24.58300781 38.22705078 C31.52484133 47.97572786 38.62583372 57.57419764 46 67 C46.89219415 68.15083467 47.78411363 69.30188232 48.67578125 70.453125 C53.65556188 76.86087895 58.74551306 83.15068008 64.01977539 89.31860352 C66.86500327 92.646228 69.63716303 96.02019984 72.375 99.4375 C76.99525279 105.12140811 81.97706311 110.43324514 86.98828125 115.76953125 C89.86681465 118.83967119 92.63412286 121.99181675 95.36328125 125.1953125 C97.92981559 128.02523819 100.75953956 130.58137527 103.59375 133.140625 C105 135 105 135 104.77050781 136.92895508 C103.88665226 139.30466695 102.95862015 140.31603898 101.078125 141.99609375 C100.4706543 142.54861816 99.86318359 143.10114258 99.23730469 143.67041016 C98.58149414 144.2535498 97.92568359 144.83668945 97.25 145.4375 C95.88367253 146.68168108 94.51912553 147.92781988 93.15625 149.17578125 C92.46402344 149.80822754 91.77179688 150.44067383 91.05859375 151.09228516 C87.88518171 154.03311078 84.80839301 157.06528492 81.75 160.125 C81.21407227 160.65665771 80.67814453 161.18831543 80.12597656 161.73608398 C77.51981939 164.35105141 75.11602023 166.97090254 73 170 C68.47178875 168.45042201 64.76309327 165.97418185 60.875 163.25 C60.18776855 162.77264404 59.50053711 162.29528809 58.79248047 161.8034668 C47.44054843 153.86777823 36.17141578 145.73513961 25.4375 136.9765625 C22.97919243 134.9831272 20.4893231 133.03613764 17.99145508 131.09277344 C11.06384854 125.69619701 4.31074064 120.12799452 -2.35253906 114.40917969 C-4.0280879 112.97597461 -5.71226974 111.55350262 -7.3984375 110.1328125 C-21.1658096 98.49621823 -34.13976171 86.04710947 -46.88183594 73.3034668 C-48.8897899 71.29772641 -50.90567656 69.30018314 -52.921875 67.30273438 C-59.3438402 60.90832914 -65.48412059 54.49877493 -71.10888672 47.38354492 C-72.85729865 45.17985971 -74.66547514 43.06619663 -76.5390625 40.96875 C-77.31443359 40.09476563 -77.31443359 40.09476563 -78.10546875 39.203125 C-79.15134131 38.03088738 -80.2038301 36.8645302 -81.26171875 35.703125 C-82.58523486 34.20020645 -83.80384917 32.60613892 -85 31 C-84.505 29.515 -84.505 29.515 -84 28 C-81.43408203 26.85253906 -81.43408203 26.85253906 -78.0078125 25.765625 C-76.12968872 25.15763062 -76.12968872 25.15763062 -74.21362305 24.53735352 C-73.21363785 24.22255539 -73.21363785 24.22255539 -72.19345093 23.90139771 C-68.71376926 22.80557444 -65.24653096 21.67148173 -61.77734375 20.54296875 C-61.09180923 20.32120468 -60.40627472 20.09944061 -59.69996643 19.87095642 C-54.6427798 18.22945693 -49.65408916 16.45766886 -44.6875 14.5625 C-35.68501484 11.15811073 -26.56469562 8.11203452 -17.4375 5.0625 C-16.68769867 4.81090118 -15.93789734 4.55930237 -15.16537476 4.30007935 C-13.02675525 3.58329203 -10.8867213 2.87092118 -8.74609375 2.16015625 C-6.86942017 1.53572632 -6.86942017 1.53572632 -4.95483398 0.89868164 C-2 0 -2 0 0 0 Z " fill="#021639" transform="translate(228,122)"/>
<path d="M0 0 C9.9 0 19.8 0 30 0 C30.00808685 2.17464844 30.01617371 4.34929688 30.02450562 6.58984375 C30.10160893 27.07228207 30.1895695 47.55465321 30.28752708 68.03700256 C30.33762839 78.56745962 30.38407163 89.09790899 30.421875 99.62841797 C30.45483739 108.8078291 30.49469212 117.98718013 30.54279006 127.16652489 C30.56801277 132.02597157 30.58980656 136.8853786 30.60334396 141.74487305 C30.61620266 146.32161452 30.63829807 150.89821972 30.66738319 155.47488594 C30.67642923 157.15179531 30.68214224 158.82872661 30.68421364 160.5056591 C30.68755729 162.80202174 30.7030908 165.09800292 30.7215271 167.39428711 C30.72705786 168.67742294 30.73258862 169.96055878 30.73828697 171.28257751 C31.10084509 178.1273711 31.10084509 178.1273711 34 184 C37.45821402 184.25003964 37.45821402 184.25003964 41 184 C44.76176425 180.23823575 44.1329862 175.87994128 44.15821838 170.76141357 C44.16315636 170.03112355 44.16809434 169.30083354 44.17318195 168.54841352 C44.18854198 166.10096284 44.19691352 163.65353838 44.20532227 161.20605469 C44.21490196 159.45179006 44.2249121 157.69752773 44.23532104 155.94326782 C44.26236621 151.17920855 44.2833779 146.41513938 44.30332303 141.6510458 C44.32518495 136.67288341 44.35257264 131.69475154 44.37937927 126.71661377 C44.42930335 117.28903318 44.47424326 107.86143564 44.51740164 98.43382192 C44.56677643 87.70114417 44.62169367 76.96849704 44.67708123 66.2358489 C44.79089691 44.15726096 44.89754028 22.07864332 45 0 C54.9 0 64.8 0 75 0 C75.06956032 23.11416301 75.12304187 46.22830066 75.15543652 69.34254742 C75.17088026 80.07581339 75.19192197 90.80901298 75.22631836 101.54223633 C75.25629719 110.90147489 75.27559311 120.26066535 75.28226548 129.61995059 C75.2861634 134.57184069 75.29527174 139.52359323 75.31719017 144.47543907 C75.33768956 149.14492408 75.34380684 153.81421603 75.33932304 158.48374176 C75.34014227 160.18921524 75.34602725 161.89469578 75.35761642 163.60013008 C75.45639752 178.8985902 73.63313681 191.33457208 64.8125 204.1875 C57.07543484 211.92456516 48.06663394 215.26823715 37.1875 215.375 C26.72732534 215.32924878 18.67213465 212.12648714 11 205 C5.73415892 199.45380164 3.19567793 193.25136711 1 186 C0.8217698 185.4405431 0.6435396 184.8810862 0.45990849 184.30467606 C-0.18435324 181.07617597 -0.13396184 177.887171 -0.12025452 174.60955811 C-0.12110894 173.86293388 -0.12196337 173.11630965 -0.12284368 172.34706044 C-0.1244913 169.84430498 -0.11898884 167.34161648 -0.11352539 164.83886719 C-0.11324334 163.04519655 -0.11340161 161.2515258 -0.1139679 159.45785522 C-0.11425516 154.58633654 -0.10836977 149.7148424 -0.10139394 144.84332943 C-0.09514872 139.75307781 -0.09455567 134.66282566 -0.09336853 129.5725708 C-0.09025867 119.93247228 -0.08204991 110.29238507 -0.07201904 100.65229154 C-0.06084721 89.6778021 -0.05534475 78.70331212 -0.05032361 67.72881842 C-0.03986703 45.15253912 -0.02207314 22.57627067 0 0 Z " fill="#EEEEEE" transform="translate(681,911)"/>
<path d="M0 0 C13.53 0 27.06 0 41 0 C42.2676283 2.53525659 42.35056137 4.63530368 42.61810303 7.46455383 C42.73005005 8.62759033 42.84199707 9.79062683 42.95733643 10.98890686 C43.13652618 12.91506081 43.13652618 12.91506081 43.31933594 14.88012695 C43.44895617 16.24271872 43.57892913 17.60527697 43.70922852 18.96780396 C44.06433903 22.69186475 44.41445967 26.41638025 44.7637434 30.14099145 C45.13489372 34.08964319 45.51060347 38.03786112 45.88580322 41.98612976 C46.60198432 49.52997059 47.31404623 57.07419447 48.02466607 64.61856097 C48.89044005 73.80789842 49.76163022 82.99672087 50.6328125 92.18554688 C51.55676535 101.93204957 52.47950861 111.67866138 53.39660645 121.42581177 C53.69470331 124.59328579 53.99283899 127.76075615 54.29101562 130.92822266 C54.36357858 131.6991696 54.43614153 132.47011654 54.51090336 133.26442552 C55.39095413 142.60958988 56.28239625 151.95352553 57.19199753 161.29586124 C57.67175267 166.2236141 58.14746327 171.15175389 58.62299347 176.079916 C58.83922087 178.30718793 59.05761963 180.53425038 59.27843475 182.76107216 C59.57819661 185.78446045 59.8704362 188.80849234 60.16113281 191.83276367 C60.2474572 192.68122801 60.33378159 193.52969234 60.42272186 194.40386772 C61.07914057 201.35789798 61 207.91424599 61 215 C51.1 215 41.2 215 31 215 C30.12653892 212.37961676 29.79827419 210.51414374 29.61108398 207.80395508 C29.55109726 206.96331009 29.49111053 206.1226651 29.42930603 205.25654602 C29.36884598 204.35333115 29.30838593 203.45011627 29.24609375 202.51953125 C29.18092056 201.59154221 29.11574738 200.66355316 29.04859924 199.70744324 C28.84123109 196.74270407 28.63930207 193.77762273 28.4375 190.8125 C28.29788403 188.80270947 28.15791443 186.79294348 28.01757812 184.78320312 C27.67428101 179.85574406 27.3358616 174.92797124 27 170 C22.05 170 17.1 170 12 170 C12.01933594 171.51980469 12.03867188 173.03960938 12.05859375 174.60546875 C12.05748392 181.53412473 11.57857215 188.4059174 11.0625 195.3125 C10.97548828 196.54806641 10.88847656 197.78363281 10.79882812 199.05664062 C10.40531033 204.45803668 9.89234409 209.64593545 9 215 C-0.57 215 -10.14 215 -20 215 C-20 202.62513724 -20 202.62513724 -19.59153748 198.43640137 C-19.50069791 197.47804854 -19.40985834 196.51969572 -19.31626606 195.5323019 C-19.21504035 194.52068524 -19.11381464 193.50906858 -19.00952148 192.46679688 C-18.90359523 191.36510949 -18.79766897 190.26342211 -18.68853283 189.12835026 C-18.3376352 185.49132168 -17.97934669 181.8550608 -17.62109375 178.21875 C-17.37038799 175.63358751 -17.12018519 173.04837621 -16.87045288 170.46311951 C-16.34018188 164.98037401 -15.80636204 159.49798444 -15.26992798 154.01583862 C-14.4356877 145.48963226 -13.60798103 136.96279935 -12.78198242 128.43579102 C-12.71374272 127.73138622 -12.64550301 127.02698142 -12.57519543 126.30123103 C-12.30000704 123.46048457 -12.02483577 120.61973646 -11.74975234 117.77897984 C-11.33852812 113.53254723 -10.92674736 109.28616903 -10.51456267 105.03982955 C-8.8696262 88.0908214 -7.24855701 71.13983405 -5.6796875 54.18359375 C-5.59602747 53.28023411 -5.51236744 52.37687447 -5.42617226 51.44614029 C-4.66961222 43.27235019 -3.91766405 35.09815142 -3.17323685 26.92324734 C-2.91295997 24.07098367 -2.65038909 21.21893432 -2.38728714 18.36693001 C-2.21387065 16.47688555 -2.04392153 14.58652393 -1.87411499 12.69615173 C-1.77232941 11.59364578 -1.67054382 10.49113983 -1.56567383 9.35522461 C-1.47973465 8.40876572 -1.39379547 7.46230682 -1.30525208 6.48716736 C-1 4 -1 4 0 0 Z M19 67 C17.70990034 69.58019933 17.71240528 71.6756221 17.51928711 74.56030273 C17.43927963 75.72589218 17.35927216 76.89148163 17.27684021 78.09239197 C17.19450638 79.35998856 17.11217255 80.62758514 17.02734375 81.93359375 C16.93997452 83.23643814 16.85260529 84.53928253 16.7625885 85.88160706 C16.57748325 88.64802833 16.39543941 91.41462957 16.21557617 94.18139648 C15.98674745 97.69833957 15.75093045 101.21476977 15.51279354 104.73109341 C15.28480513 108.11085297 15.06256118 111.4909827 14.83984375 114.87109375 C14.75548569 116.12047226 14.67112762 117.36985077 14.58421326 118.65708923 C14.12509593 125.78954589 13.91874267 132.85275617 14 140 C17.96 140 21.92 140 26 140 C25.4980891 131.8107255 24.99427913 123.62157442 24.48720646 115.43261814 C24.25177892 111.62938443 24.01715525 107.82610481 23.78442383 104.02270508 C23.55942628 100.34619612 23.33224516 96.6698278 23.10360527 92.99354362 C23.01713127 91.5971135 22.9314191 90.20063596 22.84651375 88.80410957 C22.40247433 81.50881925 21.89255314 74.25503313 21 67 C20.34 67 19.68 67 19 67 Z " fill="#EEEEEE" transform="translate(199,911)"/>
<path d="M0 0 C2.70008926 1.32488568 5.13916602 2.71134053 7.58203125 4.46875 C8.25814453 4.95190674 8.93425781 5.43506348 9.63085938 5.93286133 C10.35080078 6.45001709 11.07074219 6.96717285 11.8125 7.5 C35.54208426 24.35374098 60.48317976 39.01142768 86 53 C86.7827832 53.43006348 87.56556641 53.86012695 88.37207031 54.30322266 C113.39164803 67.98562804 139.59473623 79.29612126 166 90 C164.46915105 94.25592038 162.30285623 97.98155248 159.9375 101.8125 C156.57052916 107.34375472 153.29755001 112.91735331 150.125 118.5625 C149.75624756 119.21645752 149.38749512 119.87041504 149.00756836 120.54418945 C146.89723246 124.31330466 144.90134157 128.11958906 143 132 C135.14567969 131.50176219 127.61995464 130.50499858 119.9375 128.8125 C118.91873779 128.59327881 117.89997559 128.37405762 116.8503418 128.14819336 C114.68232946 127.67984742 112.5151037 127.20784724 110.34863281 126.73242188 C106.96151994 125.99158354 103.57099068 125.26826427 100.1796875 124.546875 C87.1717759 121.7524595 74.36546558 118.5959911 61.62207031 114.77539062 C58.9187208 113.97596436 56.20745943 113.21100783 53.4921875 112.453125 C41.42837771 109.0604988 29.53994908 105.24841046 17.6875 101.1875 C16.61959732 100.82345566 16.61959732 100.82345566 15.53012085 100.45205688 C13.50125039 99.75857034 11.47482819 99.05841634 9.44921875 98.35546875 C8.27705811 97.94965576 7.10489746 97.54384277 5.8972168 97.12573242 C3 96 3 96 0 94 C-0.28605123 90.97973549 -0.37795795 88.16547516 -0.34057617 85.14404297 C-0.34101425 84.22691528 -0.34145233 83.3097876 -0.34190369 82.36486816 C-0.33980832 79.32376043 -0.31644202 76.2831993 -0.29296875 73.2421875 C-0.28737546 71.13754579 -0.2831041 69.03290018 -0.28010559 66.92825317 C-0.26863584 61.38134021 -0.23915031 55.83466188 -0.20599365 50.2878418 C-0.17533865 44.63072891 -0.16161004 38.97357821 -0.14648438 33.31640625 C-0.11428268 22.21083426 -0.06306061 11.10543662 0 0 Z " fill="#021639" transform="translate(105,239)"/>
<path d="M0 0 C1.87513628 4.14113474 2.67469737 8.26232835 3.3828125 12.71875 C4.7708125 20.98205651 6.48792186 29.13850455 8.36962891 37.30224609 C8.87457079 39.49813346 9.36927118 41.69616199 9.86328125 43.89453125 C11.8754212 52.74381492 14.22571489 61.43947201 16.84375 70.12792969 C17.820079 73.37032816 18.72966135 76.62508637 19.59765625 79.8984375 C23.45902273 94.38737026 28.126493 108.50481483 33.08813477 122.64794922 C33.34648102 123.38665756 33.60482727 124.12536591 33.8710022 124.88645935 C34.36062612 126.28392637 34.85322996 127.68035392 35.34921265 129.07557678 C37 133.77864607 37 133.77864607 37 136 C35.52853516 136.72703125 35.52853516 136.72703125 34.02734375 137.46875 C15.1175647 146.73395985 15.1175647 146.73395985 -2.73046875 157.84765625 C-5 159 -5 159 -7.0625 159.0546875 C-10.09852872 157.40201058 -11.10944056 155.04873244 -12.8125 152.0625 C-13.18938965 151.40846191 -13.5662793 150.75442383 -13.95458984 150.08056641 C-14.82018776 148.57655183 -15.68048158 147.06947726 -16.53662109 145.56005859 C-18.13094042 142.77093072 -19.76039814 140.00426177 -21.39453125 137.23828125 C-38.30077859 108.49090728 -53.34016546 78.68005114 -66.5625 48.0625 C-67.06354248 46.90741943 -67.56458496 45.75233887 -68.08081055 44.56225586 C-70.81921063 38.13601212 -73.18410309 31.74789196 -75 25 C-68.58040439 22.10052897 -61.9740374 19.84046819 -55.3125 17.5625 C-54.07258301 17.13727051 -52.83266602 16.71204102 -51.55517578 16.27392578 C-47.37253529 14.84214717 -43.1866175 13.4201012 -39 12 C-38.21490051 11.73350647 -37.42980103 11.46701294 -36.62091064 11.19244385 C-31.68334301 9.51745923 -26.74340424 7.84970964 -21.80062866 6.19015503 C-20.18607577 5.64756954 -18.5719983 5.10356723 -16.95840454 4.55813599 C-14.68989723 3.79206624 -12.41948059 3.03195144 -10.1484375 2.2734375 C-9.12847435 1.92730156 -9.12847435 1.92730156 -8.08790588 1.57417297 C-5.25563619 0.63451944 -3.00768214 0 0 0 Z " fill="#011639" transform="translate(380,70)"/>
<path d="M0 0 C21.78 0 43.56 0 66 0 C66 9.9 66 19.8 66 30 C54.12 30 42.24 30 30 30 C30 50.79 30 71.58 30 93 C39.57 93 49.14 93 59 93 C59 102.9 59 112.8 59 123 C49.76 123 40.52 123 31 123 C30.67 143.46 30.34 163.92 30 185 C41.88 185 53.76 185 66 185 C66 194.9 66 204.8 66 215 C44.22 215 22.44 215 0 215 C0 144.05 0 73.1 0 0 Z " fill="#EEEEEE" transform="translate(94,911)"/>
<path d="M0 0 C24.75 0 49.5 0 75 0 C75 9.9 75 19.8 75 30 C67.41 30 59.82 30 52 30 C52 91.05 52 152.1 52 215 C42.1 215 32.2 215 22 215 C22 153.95 22 92.9 22 30 C14.74 30 7.48 30 0 30 C0 20.1 0 10.2 0 0 Z " fill="#EEEEEE" transform="translate(0,911)"/>
<path d="M0 0 C9.9 0 19.8 0 30 0 C30 61.05 30 122.1 30 185 C40.89 185 51.78 185 63 185 C63 194.9 63 204.8 63 215 C42.21 215 21.42 215 0 215 C0 144.05 0 73.1 0 0 Z " fill="#EEEEEE" transform="translate(454,911)"/>
<path d="M0 0 C7.83658117 -0.11596388 15.51438327 0.17446429 23.3125 0.9375 C37.96506599 2.32758883 52.50323994 3.15305526 67.21484375 3.31640625 C68.80766754 3.33704734 70.40048674 3.35804525 71.99330139 3.37937927 C76.13097348 3.43386313 80.26868872 3.4835886 84.40643311 3.53222656 C88.65055049 3.58298935 92.89460732 3.6383857 97.13867188 3.69335938 C105.42572965 3.80003572 113.71283899 3.90167099 122 4 C120.95759208 9.31861177 119.90420539 14.62149622 118.59765625 19.8828125 C118.34878662 20.89786865 118.09991699 21.9129248 117.84350586 22.95874023 C117.58577393 24.00360596 117.32804199 25.04847168 117.0625 26.125 C114.84433155 35.06738225 114.84433155 35.06738225 113.1171875 44.11328125 C112.99722412 44.85497559 112.87726074 45.59666992 112.75366211 46.36083984 C112.45864929 48.2985843 112.19489973 50.24101677 111.93359375 52.18359375 C111 55 111 55 108.8828125 56.29296875 C107.45582031 56.64294922 107.45582031 56.64294922 106 57 C104.84371094 57.30679688 103.68742187 57.61359375 102.49609375 57.9296875 C101.14441387 58.24983548 99.79145975 58.56463538 98.4375 58.875 C97.70297607 59.04572021 96.96845215 59.21644043 96.21166992 59.39233398 C89.6597304 60.89311896 83.07738318 62.23122056 76.48022461 63.51708984 C71.77048369 64.43570347 67.08350583 65.42302387 62.3984375 66.4609375 C55.26541501 67.9963549 48.10170208 69.17912528 40.88842773 70.25268555 C38.83019251 70.55985954 36.77350362 70.87613144 34.71679688 71.19335938 C24.17658275 72.79446965 13.60843656 73.95317694 3 75 C1.11411686 49.97192316 -0.58610056 25.11215474 0 0 Z " fill="#021639" transform="translate(107,414)"/>
<path d="M0 0 C9.9 0 19.8 0 30 0 C30 70.95 30 141.9 30 215 C20.1 215 10.2 215 0 215 C0 144.05 0 73.1 0 0 Z " fill="#EEEEEE" transform="translate(775,911)"/>
<path d="M0 0 C9.9 0 19.8 0 30 0 C30 70.95 30 141.9 30 215 C20.1 215 10.2 215 0 215 C0 144.05 0 73.1 0 0 Z " fill="#EEEEEE" transform="translate(536,911)"/>
<path d="M0 0 C0.05534912 1.2689209 0.11069824 2.5378418 0.16772461 3.84521484 C0.37726845 8.6426253 0.58822269 13.43997295 0.79956055 18.23730469 C0.89010272 20.29685864 0.98028385 22.3564285 1.07006836 24.41601562 C1.15732714 26.41663041 1.24561113 28.41720076 1.33493042 30.41772461 C1.42154375 32.40496838 1.50286292 34.39244995 1.57888794 36.38012695 C1.76648833 41.02664424 2.03483613 45.61892814 2.57958984 50.23828125 C3.83505616 61.51730459 3.83505616 61.51730459 1.60327148 65.47998047 C-0.55915519 67.4843358 -2.66826766 68.82965185 -5.25 70.25 C-7.02723472 71.3835483 -8.80324566 72.51901725 -10.578125 73.65625 C-11.94420898 74.48576172 -11.94420898 74.48576172 -13.33789062 75.33203125 C-17.41815086 77.88855527 -21.17894232 80.82698277 -25 83.75 C-32.40920647 89.25675659 -39.99831841 94.48973071 -47.65917969 99.63781738 C-48.88130754 100.4591878 -50.10202628 101.28265895 -51.32128906 102.10827637 C-53.03219176 103.2646373 -54.74926642 104.41113724 -56.46875 105.5546875 C-57.46326172 106.21968262 -58.45777344 106.88467773 -59.48242188 107.56982422 C-62 109 -62 109 -65 109 C-71.30085167 96.20318219 -77.36426884 83.49949073 -82 70 C-82.36480469 68.97132813 -82.72960937 67.94265625 -83.10546875 66.8828125 C-90.37968703 45.86840414 -90.37968703 45.86840414 -90 37 C-89.02546875 36.62230469 -88.0509375 36.24460937 -87.046875 35.85546875 C-83.94772397 34.65355081 -80.85057438 33.44658042 -77.75390625 32.23828125 C-73.70448 30.65921064 -69.64860001 29.09788789 -65.58984375 27.54296875 C-47.18795997 20.45221345 -29.18201975 12.67182065 -11.33544922 4.27978516 C-10.16127441 3.72983887 -8.98709961 3.17989258 -7.77734375 2.61328125 C-6.71636475 2.11223877 -5.65538574 1.61119629 -4.56225586 1.0949707 C-2 0 -2 0 0 0 Z " fill="#021739" transform="translate(213,526)"/>
<path d="M0 0 C0.66 0 1.32 0 2 0 C5.67364572 11.85117773 9.22729339 23.71890391 12.5 35.6875 C15.71549394 47.38169116 19.33585696 58.9801144 23.90429688 70.22607422 C26.10106156 75.69681531 26.10106156 75.69681531 25 79 C5.10473445 66.6644952 -13.31163722 53.32991441 -31 38 C-30.4234559 34.59986814 -29.39002339 33.07329515 -26.875 30.75 C-23.68309935 27.69433901 -20.76470625 24.51119471 -17.8828125 21.1640625 C-15.79250395 18.76150869 -13.64759521 16.41393475 -11.5 14.0625 C-7.88731241 10.07928035 -4.58520631 5.95567198 -1.41015625 1.6171875 C-0.94480469 1.08351563 -0.47945312 0.54984375 0 0 Z " fill="#061A3C" transform="translate(227,659)"/>
<path d="M0 0 C15.31133604 5.63375773 31.48294694 17.66484067 41 31 C42.2890625 33.86328125 42.2890625 33.86328125 43 36 C37.98056114 38.00777555 33.68829018 38.30534677 28.375 38.25 C27.62476563 38.25773437 26.87453125 38.26546875 26.1015625 38.2734375 C18.92858901 38.24800142 18.92858901 38.24800142 16 36 C14.4375 33.86328125 14.4375 33.86328125 13 31.3125 C12.48695313 30.40886719 11.97390625 29.50523437 11.4453125 28.57421875 C10.96835937 27.72472656 10.49140625 26.87523437 10 26 C9.29875 24.88625 8.5975 23.7725 7.875 22.625 C3.95884336 15.73909124 2.07404682 7.60483836 0 0 Z " fill="#05193B" transform="translate(574,310)"/>
<path d="M0 0 C3.30121041 1.34871304 5.53846849 3.35345935 8.11157227 5.78344727 C14.90412806 12.10457548 21.51904726 15.21202752 30.34765625 17.87890625 C33.1320008 18.73356602 35.48138157 19.58041507 38 21 C38 21.66 38 22.32 38 23 C28.43 23.33 18.86 23.66 9 24 C7.700625 20.7825 6.40125 17.565 5.0625 14.25 C4.65394775 13.24227539 4.24539551 12.23455078 3.82446289 11.19628906 C3.3409436 9.99311035 3.3409436 9.99311035 2.84765625 8.765625 C2.51773682 7.94868164 2.18781738 7.13173828 1.84790039 6.29003906 C1.07597895 4.20520661 0.4893803 2.16632348 0 0 Z " fill="#0B1F40" transform="translate(673,502)"/>
</svg>
