<?xml version="1.0" encoding="UTF-8"?>
<svg version="1.1" xmlns="http://www.w3.org/2000/svg" width="32" height="32">
<path d="M0 0 C0 2.31 0 4.62 0 7 C-0.94875 7.4125 -1.8975 7.825 -2.875 8.25 C-5.96546609 9.72068391 -5.96546609 9.72068391 -7.4375 11.8125 C-8.22172343 14.86225778 -7.8349927 16.98118023 -7 20 C-5.09054786 22.54593619 -2.87839991 23.7096828 0 25 C0 27.31 0 29.62 0 32 C-3.75626559 32.35773958 -5.73929307 32.13556761 -9.125 30.375 C-13.18138291 27.02407499 -15.65820815 24.53902515 -16.3828125 19.15625 C-16.56096164 14.35809977 -16.41347955 10.89057134 -14.375 6.5 C-9.9241857 1.81493231 -6.61041255 -0.6295631 0 0 Z " fill="#000000" transform="translate(16,0)"/>
<path d="M0 0 C4.95 0 9.9 0 15 0 C15 4.95 15 9.9 15 15 C12.69 15 10.38 15 8 15 C8 12.36 8 9.72 8 7 C5.36 7 2.72 7 0 7 C0 4.69 0 2.38 0 0 Z " fill="#000000" transform="translate(15,13)"/>
</svg>
