<?xml version="1.0" encoding="UTF-8"?>
<svg version="1.1" xmlns="http://www.w3.org/2000/svg" width="680" height="730">
<path d="M0 0 C0.04675122 12.3630995 0.0820832 24.72617728 0.10362434 37.08934784 C0.11397334 42.83270942 0.12796588 48.57600965 0.15087891 54.31933594 C0.17292961 59.88259974 0.18463499 65.44580529 0.18975449 71.0091095 C0.1933934 73.11050837 0.2004949 75.21190478 0.21146011 77.3132782 C0.3097448 96.96615165 -0.56379691 116.64412252 -4.1875 136 C-4.40108154 137.16023682 -4.61466309 138.32047363 -4.8347168 139.51586914 C-13.06874435 182.3380663 -31.87680442 221.97931873 -59 256 C-59.76183594 256.969375 -60.52367187 257.93875 -61.30859375 258.9375 C-73.77849989 274.26052067 -88.30911906 289.25286734 -104.36669922 300.81103516 C-106.0744939 302.054228 -107.74269615 303.34001498 -109.41015625 304.63671875 C-119.99872695 312.77739407 -131.43549822 319.35715666 -143 326 C-145.0928323 327.21027305 -147.18527306 328.4212234 -149.27734375 329.6328125 C-156.99191274 334.09581531 -164.71821554 338.53835326 -172.44482422 342.98046875 C-175.85968157 344.94421668 -179.27378587 346.90926548 -182.6875 348.875 C-183.77063477 349.49818115 -184.85376953 350.1213623 -185.96972656 350.76342773 C-192.63865708 354.60942444 -199.27357189 358.50438106 -205.81518555 362.56396484 C-209.78854186 365 -209.78854186 365 -212 365 C-231.69060891 325.99435238 -239.81596481 285.45012632 -239 242 C-227.12 242 -215.24 242 -203 242 C-203 237.71 -203 233.42 -203 229 C-202.55016681 224.78744446 -202.04240197 220.67430763 -201.375 216.5 C-201.1982373 215.37996582 -201.02147461 214.25993164 -200.83935547 213.10595703 C-199.06545412 202.46405864 -196.39101034 192.23366212 -193 182 C-192.77086914 181.30293945 -192.54173828 180.60587891 -192.30566406 179.88769531 C-182.34635068 150.21212148 -165.75017107 123.43544065 -144 101 C-143.19973389 100.16106201 -143.19973389 100.16106201 -142.38330078 99.30517578 C-130.74712926 87.13169186 -118.1766343 77.06162156 -104 68 C-105.50736873 62.63952582 -108.01291279 58.28118896 -110.875 53.5625 C-112.17226351 51.39718628 -113.4684327 49.23126275 -114.76074219 47.06298828 C-115.57672043 45.70463207 -116.4052507 44.3537251 -117.24707031 43.01123047 C-118.24073054 41.38489147 -119.13006399 39.69574483 -120 38 C-118.60233808 33.80701425 -115.69396595 32.81115089 -112 30.8125 C-111.27868896 30.41740234 -110.55737793 30.02230469 -109.81420898 29.61523438 C-83.23568795 15.2313611 -30.81611262 -10.27203754 0 0 Z M-121.6875 121.375 C-150.92391733 151.29731568 -170.09479711 192.5170809 -172.54296875 234.34765625 C-172.58756226 235.08568481 -172.63215576 235.82371338 -172.67810059 236.58410645 C-172.78695349 238.38931132 -172.89369271 240.19464343 -173 242 C-162.79389374 242.09313461 -152.58789042 242.16398385 -142.38144398 242.20724869 C-137.6409422 242.22802528 -132.90073354 242.25615892 -128.16040039 242.30175781 C-123.57622632 242.34557303 -118.9923322 242.36921154 -114.40796471 242.37950897 C-112.66865323 242.38683689 -110.92935516 242.40114451 -109.19016457 242.42292023 C-90.64065444 242.6457004 -75.10208304 238.50839249 -61.28515625 225.4140625 C-53.11899989 216.78725117 -46.96025519 205.80608238 -45 194 C-44.8659375 193.19304687 -44.731875 192.38609375 -44.59375 191.5546875 C-42.25319687 173.30901199 -49.38694695 158.06796827 -58.4375 142.6875 C-59.14258314 141.47394542 -59.84683269 140.25990618 -60.55029297 139.04541016 C-62.34080104 135.95906341 -64.14218677 132.87922099 -65.9463501 129.80084229 C-67.62140191 126.93793296 -69.2848331 124.06834257 -70.94921875 121.19921875 C-74.28450394 115.45725902 -77.6293928 109.7213023 -81 104 C-81.55913086 103.04383789 -82.11826172 102.08767578 -82.69433594 101.10253906 C-83.23606445 100.1844043 -83.77779297 99.26626953 -84.3359375 98.3203125 C-84.82368652 97.49031738 -85.31143555 96.66032227 -85.81396484 95.80517578 C-86.20535645 95.20946777 -86.59674805 94.61375977 -87 94 C-96.87760914 94 -114.93675387 114.84480382 -121.6875 121.375 Z " fill="#D5FF00" transform="translate(329,1)"/>
<path d="M0 0 C3.60731777 0.29177545 7.21384479 0.59244418 10.8203125 0.89453125 C11.82618408 0.97578247 12.83205566 1.05703369 13.8684082 1.14074707 C49.25511707 4.13347596 91.49791759 14.87606179 120 37 C118.70292057 41.29920993 117.04816219 44.91738864 114.7421875 48.765625 C114.11699219 49.82007813 113.49179687 50.87453125 112.84765625 51.9609375 C112.19667969 53.04632813 111.54570312 54.13171875 110.875 55.25 C109.576829 57.41954605 108.28235301 59.5913088 106.9921875 61.765625 C106.41839355 62.72243164 105.84459961 63.67923828 105.25341797 64.66503906 C103.84234409 66.85200774 103.84234409 66.85200774 104 69 C105.92982874 70.45795839 107.85669331 71.79979544 109.875 73.125 C119.5726556 79.67015876 128.47593075 86.98359693 137 95 C137.55848633 95.5244873 138.11697266 96.04897461 138.69238281 96.58935547 C175.11826611 131.085196 198.91352664 179.85556643 203 230 C203 234.29 203 238.58 203 243 C214.88 243 226.76 243 239 243 C239.82816712 287.09989912 230.86663539 326.20024752 212 366 C203.03548399 361.70953433 194.45017071 357.00454573 185.91796875 351.91796875 C180.16636233 348.49130243 174.36420939 345.15339978 168.5625 341.8125 C167.46413818 341.17868408 166.36577637 340.54486816 165.23413086 339.8918457 C159.52372545 336.59812782 153.80645078 333.31714551 148.078125 330.0546875 C131.574839 320.63673036 115.83731052 310.8894387 101 299 C100.03449219 298.24074219 99.06898438 297.48148437 98.07421875 296.69921875 C82.74159731 284.23027758 67.74506797 269.68828273 56.18457031 253.62451172 C54.95678963 251.94074159 53.68403278 250.30012042 52.3984375 248.66015625 C13.83460607 198.81855277 -0.51502512 136.93406657 -0.1953125 75 C-0.19156731 72.81469861 -0.1887275 70.62939549 -0.18673706 68.4440918 C-0.1792189 62.78248183 -0.159677 57.12097986 -0.1373291 51.45941162 C-0.11661098 45.64613301 -0.10768071 39.83283639 -0.09765625 34.01953125 C-0.07641584 22.6796409 -0.04242911 11.33982954 0 0 Z M87 95 C79.83632954 107.10238916 72.77705402 119.26358637 65.76953125 131.45703125 C63.36936928 135.63258817 60.95098762 139.79639661 58.51171875 143.94921875 C57.69936768 145.34285645 57.69936768 145.34285645 56.87060547 146.76464844 C55.87273815 148.47643963 54.86843525 150.18450533 53.85595703 151.88769531 C45.35163846 166.55240745 41.97782545 182.32036619 46 199 C48.46284624 207.14491845 51.79333398 214.26724221 57 221 C57.52335937 221.68707031 58.04671875 222.37414062 58.5859375 223.08203125 C67.19186398 233.64752315 79.68719344 240.42388795 93 243 C95.75641897 243.24802946 98.48589539 243.25470206 101.25195312 243.22705078 C102.03340698 243.22734283 102.81486084 243.22763489 103.61999512 243.22793579 C106.17386422 243.22655505 108.72743259 243.2110538 111.28125 243.1953125 C113.06343425 243.19157789 114.84562057 243.18873304 116.62780762 243.18673706 C121.29668949 243.17913585 125.96544505 243.15951785 130.63427734 243.1373291 C135.40720919 243.11679468 140.18016163 243.10771916 144.953125 243.09765625 C154.30213854 243.07626837 163.65105873 243.04217524 173 243 C172.84889719 240.61086947 172.69558315 238.22191464 172.54101562 235.83300781 C172.49881897 235.16222198 172.45662231 234.49143616 172.41314697 233.80032349 C170.80438889 209.12453643 163.07987088 184.52818464 151 163 C150.34509255 161.78323028 149.69145337 160.56577712 149.0390625 159.34765625 C134.72519943 133.02930431 112.66652432 110.34753393 87 95 Z " fill="#D5FF00" transform="translate(351,0)"/>
<path d="M0 0 C6.43831038 3.78467576 12.9059036 7.51724449 19.37890625 11.2421875 C31.74011434 18.36139866 44.06526577 25.5410416 56.37890625 32.7421875 C52.12584213 40.7309005 47.03687561 47.70700378 41.37890625 54.7421875 C40.59 55.73863281 39.80109375 56.73507812 38.98828125 57.76171875 C27.00234878 72.44260144 13.40205233 86.42967692 -1.98095703 97.55517578 C-3.66594753 98.7746494 -5.32920321 100.020258 -6.9921875 101.26953125 C-15.79352081 107.79793775 -25.10399395 113.32688858 -34.62109375 118.7421875 C-37.94418401 115.70136746 -40.07091382 112.57181427 -42.29296875 108.6640625 C-42.62024963 108.09262512 -42.94753052 107.52118774 -43.284729 106.93243408 C-44.31957651 105.12239532 -45.34543447 103.30744544 -46.37109375 101.4921875 C-47.07493106 100.25747612 -47.77935238 99.02309745 -48.484375 97.7890625 C-50.20338603 94.77725604 -51.91437734 91.76098181 -53.62109375 88.7421875 C-54.20785889 89.00845947 -54.79462402 89.27473145 -55.39916992 89.54907227 C-77.06832887 99.32449034 -98.17444846 106.60956684 -121.62109375 110.7421875 C-122.34619141 110.87496094 -123.07128906 111.00773438 -123.81835938 111.14453125 C-166.85362385 118.72146209 -211.78556061 108.94826091 -250.73022461 90.58666992 C-252.77489244 89.63640842 -252.77489244 89.63640842 -255.62109375 88.7421875 C-256.05454102 89.50885742 -256.48798828 90.27552734 -256.93457031 91.06542969 C-258.5545605 93.92357379 -260.18032923 96.77826579 -261.81005859 99.63085938 C-262.51257912 100.86326077 -263.2128092 102.09697088 -263.91064453 103.33203125 C-264.91741925 105.11291662 -265.93249295 106.88884387 -266.94921875 108.6640625 C-267.55668945 109.73237305 -268.16416016 110.80068359 -268.79003906 111.90136719 C-270.51359381 114.57540492 -272.28222119 116.60198366 -274.62109375 118.7421875 C-289.61629053 110.20981161 -303.48730469 100.96816317 -316.62109375 89.7421875 C-317.38164062 89.09378906 -318.1421875 88.44539062 -318.92578125 87.77734375 C-332.06296406 76.2546632 -344.32375996 63.87686552 -354.62109375 49.7421875 C-355.08692871 49.11054688 -355.55276367 48.47890625 -356.03271484 47.828125 C-357.44541792 45.90948599 -358.84868522 43.98448988 -360.24609375 42.0546875 C-360.88599243 41.1716394 -360.88599243 41.1716394 -361.53881836 40.27075195 C-363.31987611 37.76537045 -364.64231907 35.67851153 -365.62109375 32.7421875 C-364.95916016 32.3611084 -364.29722656 31.9800293 -363.61523438 31.58740234 C-360.4501236 29.76468628 -357.28544748 27.94121742 -354.12109375 26.1171875 C-353.53487244 25.77928192 -352.94865112 25.44137634 -352.34466553 25.0932312 C-344.12962229 20.35667868 -335.93097226 15.59323296 -327.74609375 10.8046875 C-243.3395569 -38.49520389 -158.44087423 -65.20659199 0 0 Z M-200.62109375 -7.2578125 C-203.18019693 -3.81729609 -205.31027516 -0.22337939 -207.38476562 3.52636719 C-208.86602381 6.18116562 -210.39069242 8.80890488 -211.91796875 11.4375 C-214.48090193 15.85119567 -217.0309114 20.27194222 -219.5703125 24.69921875 C-222.32424167 29.49979487 -225.1003262 34.28688786 -227.890625 39.06640625 C-228.92501497 40.84268297 -229.95893531 42.61923201 -230.99264526 44.39590454 C-231.97890188 46.08769713 -232.97000025 47.77666417 -233.96118164 49.46557617 C-234.55793701 50.49271729 -235.15469238 51.5198584 -235.76953125 52.578125 C-236.29724121 53.48095215 -236.82495117 54.3837793 -237.36865234 55.31396484 C-238.49293378 57.49371204 -239.16142833 59.34620764 -239.62109375 61.7421875 C-195.14093875 84.18630241 -144.53513967 89.03519501 -96.93359375 73.4921875 C-87.47876251 70.29832086 -78.52227263 66.23360804 -69.62109375 61.7421875 C-70.87870445 57.63321463 -72.40085567 54.08811764 -74.5703125 50.3828125 C-75.46049072 48.8517688 -75.46049072 48.8517688 -76.36865234 47.28979492 C-77.00883301 46.20158447 -77.64901367 45.11337402 -78.30859375 43.9921875 C-79.32194089 42.25605826 -80.33527636 40.51992208 -81.34790039 38.78337097 C-82.04721249 37.58471835 -82.74725382 36.38649088 -83.44799805 35.18867493 C-85.87102662 31.04384677 -88.26111837 26.8814169 -90.6328125 22.70703125 C-108.76003987 -9.21719714 -108.76003987 -9.21719714 -139.93359375 -27.1953125 C-162.5379835 -32.56302157 -185.37674188 -24.29825884 -200.62109375 -7.2578125 Z " fill="#D5FF00" transform="translate(494.62109375,352.2578125)"/>
<path d="M0 0 C1.86974739 -0.00744736 1.86974739 -0.00744736 3.77726746 -0.01504517 C7.18265869 -0.02710942 10.58798887 -0.03460072 13.99339414 -0.03905582 C16.12778497 -0.04199906 18.26217058 -0.04610623 20.39655876 -0.05056 C27.0942563 -0.06421878 33.79194172 -0.07389233 40.48965222 -0.07776189 C48.18409845 -0.0822334 55.87836623 -0.0997458 63.57275826 -0.12876248 C69.54419767 -0.15048856 75.51558728 -0.16047202 81.48706573 -0.16180301 C85.04216808 -0.16284361 88.59710233 -0.16859003 92.15216255 -0.18662262 C96.12889273 -0.20640299 100.10525699 -0.20177122 104.08203125 -0.1953125 C105.8134285 -0.20913467 105.8134285 -0.20913467 107.57980347 -0.22323608 C123.72090459 -0.14173584 137.34645269 3.48263439 149.16967773 14.71191406 C161.50890382 27.71476239 163.92050999 41.87545364 163.71264648 59.15332031 C163.48038645 66.90790224 161.93879521 73.73460427 158.18139648 80.53613281 C156.17445296 83.94548995 156.17445296 83.94548995 156.99389648 87.03613281 C157.48889648 88.06738281 157.98389648 89.09863281 158.49389648 90.16113281 C159.19388818 91.8225917 159.88037124 93.4897789 160.55639648 95.16113281 C160.89799805 95.96550781 161.23959961 96.76988281 161.59155273 97.59863281 C166.56404077 111.7196378 164.33039611 129.91917171 158.36889648 143.28613281 C151.63975084 155.80033501 140.85392471 164.21748508 127.45092773 168.43457031 C119.95047921 170.27748105 112.68045406 170.31490594 104.98779297 170.32226562 C103.74129471 170.32723053 102.49479645 170.33219543 101.21052551 170.33731079 C97.80513428 170.34937505 94.3998041 170.35686634 90.99439883 170.36132145 C88.860008 170.36426468 86.72562239 170.36837186 84.59123421 170.37282562 C77.89353667 170.38648441 71.19585124 170.39615796 64.49814075 170.40002751 C56.80369452 170.40449903 49.10942674 170.42201143 41.41503471 170.45102811 C35.4435953 170.47275418 29.47220569 170.48273764 23.50072724 170.48406863 C19.94562489 170.48510924 16.39069064 170.49085566 12.83563042 170.50888824 C8.85890023 170.52866861 4.88253598 170.52403685 0.90576172 170.51757812 C-0.24850311 170.52679291 -1.40276794 170.53600769 -2.5920105 170.54550171 C-18.73311162 170.46400147 -32.35865972 166.83963124 -44.18188477 155.61035156 C-56.52111085 142.60750324 -58.93271702 128.44681199 -58.72485352 111.16894531 C-58.49259348 103.41436339 -56.95100224 96.58766135 -53.19360352 89.78613281 C-51.18665999 86.37677567 -51.18665999 86.37677567 -52.00610352 83.28613281 C-52.50110352 82.25488281 -52.99610352 81.22363281 -53.50610352 80.16113281 C-54.20609521 78.49967392 -54.89257828 76.83248673 -55.56860352 75.16113281 C-55.91020508 74.35675781 -56.25180664 73.55238281 -56.60375977 72.72363281 C-61.5762478 58.60262783 -59.34260314 40.40309392 -53.38110352 27.03613281 C-46.65195787 14.52193061 -35.86613174 6.10478054 -22.46313477 1.88769531 C-14.96268624 0.04478458 -7.69266109 0.00735969 0 0 Z M-8.50610352 50.16113281 C-8.50610352 52.80113281 -8.50610352 55.44113281 -8.50610352 58.16113281 C31.75389648 58.16113281 72.01389648 58.16113281 113.49389648 58.16113281 C113.49389648 55.52113281 113.49389648 52.88113281 113.49389648 50.16113281 C73.23389648 50.16113281 32.97389648 50.16113281 -8.50610352 50.16113281 Z M-8.50610352 112.16113281 C-8.50610352 114.80113281 -8.50610352 117.44113281 -8.50610352 120.16113281 C31.75389648 120.16113281 72.01389648 120.16113281 113.49389648 120.16113281 C113.49389648 117.52113281 113.49389648 114.88113281 113.49389648 112.16113281 C73.23389648 112.16113281 32.97389648 112.16113281 -8.50610352 112.16113281 Z " fill="#D6FF00" transform="translate(287.506103515625,559.8388671875)"/>
<path d="M0 0 C10.23714782 8.78647309 16.6727497 20.25813366 18.17362213 33.74506569 C18.29905588 37.10917055 18.3083513 40.45146701 18.26660156 43.81762695 C18.26718567 45.0777359 18.26776978 46.33784485 18.26837158 47.63613892 C18.2695056 51.04665438 18.24621343 54.45659149 18.21807575 57.86697412 C18.19283933 61.44767737 18.19070278 65.02839816 18.18597412 68.60917664 C18.17360895 75.36977786 18.14087631 82.13011614 18.10057616 88.89060229 C18.05565557 96.59567752 18.03382076 104.30076621 18.01379442 112.00594008 C17.97213665 127.83747097 17.89886676 143.66864028 17.8125 159.5 C1.6425 159.5 -14.5275 159.5 -31.1875 159.5 C-31.1875 119.9 -31.1875 80.3 -31.1875 39.5 C-33.8275 39.5 -36.4675 39.5 -39.1875 39.5 C-39.1875 79.1 -39.1875 118.7 -39.1875 159.5 C-55.3575 159.5 -71.5275 159.5 -88.1875 159.5 C-89.81612068 157.87137932 -89.32040692 156.05359263 -89.32794189 153.80439758 C-89.33365204 152.78831421 -89.33936218 151.77223083 -89.34524536 150.72535706 C-89.34636322 149.60080612 -89.34748108 148.47625519 -89.34863281 147.31762695 C-89.35359772 146.14027985 -89.35856262 144.96293274 -89.36367798 143.74990845 C-89.37581874 140.50738968 -89.38325532 137.26490705 -89.38768864 134.02236962 C-89.39061934 131.99220199 -89.39472455 129.96204002 -89.39919281 127.93187523 C-89.41288758 121.56840106 -89.4225397 115.20493983 -89.4263947 108.84145194 C-89.43085488 101.51992451 -89.44829857 94.19858569 -89.4773953 86.87711555 C-89.49913601 81.20728061 -89.50910583 75.53749818 -89.51043582 69.86762208 C-89.51147674 66.48792571 -89.51722812 63.10840613 -89.53525543 59.72875404 C-89.63476944 37.82195789 -89.50089327 19.49937483 -73.6015625 2.72265625 C-54.22555186 -15.11706875 -20.86524082 -15.33352581 0 0 Z " fill="#D6FF00" transform="translate(203.1875,570.5)"/>
<path d="M0 0 C9.36394652 8.82790665 15.25407747 20.7622272 15.73101807 33.69085693 C15.74243714 35.99669328 15.73238277 38.30270725 15.70410156 40.60839844 C15.70468567 41.87811493 15.70526978 43.14783142 15.70587158 44.45602417 C15.70700722 47.89758676 15.68368785 51.33857807 15.65557575 54.78000927 C15.63036724 58.39141539 15.62820493 62.00283832 15.62347412 65.61431885 C15.61110091 72.43515919 15.57835707 79.25573942 15.53807616 86.07646585 C15.49318098 93.84923165 15.47132707 101.62201066 15.45129442 109.3948741 C15.40961839 125.36759181 15.3363381 141.33995176 15.25 157.3125 C-0.92 157.3125 -17.09 157.3125 -33.75 157.3125 C-33.75 117.7125 -33.75 78.1125 -33.75 37.3125 C-36.39 37.3125 -39.03 37.3125 -41.75 37.3125 C-41.75 76.9125 -41.75 116.5125 -41.75 157.3125 C-57.92 157.3125 -74.09 157.3125 -90.75 157.3125 C-90.84050085 140.56984229 -90.91409815 123.82739526 -90.95724869 107.08456039 C-90.97782204 99.30953934 -91.00584178 91.53468173 -91.05175781 83.75976562 C-91.09178663 76.97845793 -91.11747075 70.19726868 -91.12635398 63.41584611 C-91.1315418 59.82932501 -91.14362382 56.24314257 -91.17292023 52.65673065 C-91.20545794 48.64047096 -91.20594922 44.62478973 -91.20410156 40.60839844 C-91.21848267 39.43594574 -91.23286377 38.26349304 -91.24768066 37.05551147 C-91.18129642 23.65063604 -86.67742501 12.150702 -77.7890625 2.09375 C-57.00795784 -17.99207606 -21.92385059 -18.04188717 0 0 Z " fill="#D6FF00" transform="translate(90.75,572.6875)"/>
<path d="M0 0 C16.17 0 32.34 0 49 0 C49.16043524 17.48744087 49.16043524 17.48744087 49.1953125 25.0078125 C49.21911781 30.11638243 49.24711521 35.22466249 49.30175781 40.33300781 C49.34558736 44.4568268 49.36921434 48.58033444 49.37950897 52.70436859 C49.38683443 54.26867313 49.40113711 55.83296286 49.42292023 57.39713287 C49.62798715 72.74892783 46.44120391 85.44899637 36.0390625 97.21875 C23.20745319 109.62104896 8.09568546 112.31835941 -9.11547852 112.25878906 C-10.37873962 112.2622937 -11.64200073 112.26579834 -12.94354248 112.26940918 C-16.37531119 112.27844436 -19.80695822 112.27502626 -23.23872876 112.26865101 C-26.84949878 112.26354572 -30.46025919 112.26829483 -34.07102966 112.27142334 C-40.13062386 112.27504943 -46.19016911 112.2702992 -52.24975586 112.26074219 C-59.23270797 112.24985532 -66.21554329 112.25339036 -73.19849259 112.264395 C-79.22006235 112.27350084 -85.24159718 112.27473724 -91.26317161 112.26951766 C-94.84821766 112.26641665 -98.43320899 112.26593683 -102.01825142 112.27259064 C-106.01687551 112.27949538 -110.01530139 112.26989774 -114.01391602 112.25878906 C-115.77148476 112.26486176 -115.77148476 112.26486176 -117.56455994 112.27105713 C-132.00366507 112.19703552 -145.41568542 109.02878771 -156.61328125 99.41796875 C-167.21793572 88.67446446 -172 77.15444671 -172 62 C-115.24 62 -58.48 62 0 62 C0 41.54 0 21.08 0 0 Z " fill="#D6FF00" transform="translate(631,618)"/>
<path d="M0 0 C1.25625183 -0.0049649 2.51250366 -0.00992981 3.80682373 -0.01504517 C7.23905747 -0.02809958 10.6712717 -0.03460089 14.10352635 -0.03905582 C16.25466814 -0.04199891 18.40580474 -0.04610605 20.55694389 -0.05056 C27.30696716 -0.06421898 34.05697841 -0.07389244 40.80701452 -0.07776189 C48.56202069 -0.08223351 56.31684981 -0.09974635 64.0718022 -0.12876248 C70.08995032 -0.15048724 76.10804904 -0.16047195 82.1262359 -0.16180301 C85.70928337 -0.1628437 89.29216407 -0.16859208 92.87516975 -0.18662262 C96.88303214 -0.20640008 100.89053139 -0.20177173 104.8984375 -0.1953125 C106.06205307 -0.20452728 107.22566864 -0.21374207 108.42454529 -0.22323608 C124.54668481 -0.14244789 138.44062512 3.69309246 150.33569336 14.90722656 C159.89749558 25.33664033 163.40209961 36.19423985 163.40209961 50.16113281 C106.64209961 50.16113281 49.88209961 50.16113281 -8.59790039 50.16113281 C-8.59790039 70.62113281 -8.59790039 91.08113281 -8.59790039 112.16113281 C-24.76790039 112.16113281 -40.93790039 112.16113281 -57.59790039 112.16113281 C-57.71822682 94.84304025 -57.71822682 94.84304025 -57.74438477 87.41113281 C-57.76225742 82.35732469 -57.78330771 77.30368099 -57.82421875 72.25 C-57.85702476 68.17159101 -57.87479777 64.09335857 -57.88253212 60.01482773 C-57.88803778 58.46563822 -57.89878812 56.91645741 -57.91509056 55.3673439 C-58.0695698 40.06752577 -55.10224132 26.40677753 -44.33618164 14.77832031 C-31.42173631 2.76353297 -16.97295792 0.01610937 0 0 Z " fill="#D6FF00" transform="translate(516.597900390625,559.8388671875)"/>
</svg>
