<?xml version="1.0" encoding="UTF-8"?>
<svg version="1.1" xmlns="http://www.w3.org/2000/svg" width="100" height="100">
<path d="M0 0 C4.40975134 0.88195027 6.76727935 1.77860536 10.5625 3.9375 C12.37401129 4.96008682 14.18643831 5.98105401 16 7 C16.67804688 7.40992188 17.35609375 7.81984375 18.0546875 8.2421875 C20.57948555 9.22574337 21.96392866 8.8690204 24.5625 8.1875 C25.32691406 7.99542969 26.09132813 7.80335937 26.87890625 7.60546875 C28.59914557 7.11442438 30.30285148 6.56571617 32 6 C32 5.34 32 4.68 32 4 C33.4774746 3.63883954 34.95704675 3.28624952 36.4375 2.9375 C37.26121094 2.74027344 38.08492188 2.54304687 38.93359375 2.33984375 C39.95646484 2.17162109 39.95646484 2.17162109 41 2 C41.495 2.495 41.495 2.495 42 3 C41.9140625 4.890625 41.9140625 4.890625 41.625 7.25 C41.52703125 8.06082031 41.4290625 8.87164062 41.328125 9.70703125 C41.0770796 11.46136039 40.74380847 13.20410021 40.375 14.9375 C39.77708333 17.05416667 39.77708333 17.05416667 41 19 C41.60675743 24.33946537 40.15389121 26.76477467 37 31 C36.525625 31.845625 36.05125 32.69125 35.5625 33.5625 C29.41532139 43.15209864 19.2678761 44.59458789 8.890625 47.01757812 C2.51780338 48.60053784 -2.99933139 50.68524403 -6.5625 56.5625 C-8.61932086 59.67444325 -10.59042111 61.34391882 -14 63 C-13.505 64.485 -13.505 64.485 -13 66 C-22.76827372 66.61586314 -22.76827372 66.61586314 -27.125 64.4375 C-29.52142114 61.32215252 -29.77641602 58.87545563 -30 55 C-30.69867187 55.2165625 -31.39734375 55.433125 -32.1171875 55.65625 C-33.02726562 55.9346875 -33.93734375 56.213125 -34.875 56.5 C-35.77992187 56.7784375 -36.68484375 57.056875 -37.6171875 57.34375 C-40 58 -40 58 -42 58 C-42.165 58.886875 -42.33 59.77375 -42.5 60.6875 C-44.53021981 65.17090209 -47.56804427 67.01659011 -52 69 C-52.99 69 -53.98 69 -55 69 C-54.45458744 66.1820351 -53.85807648 63.38663747 -53.2109375 60.58984375 C-52.79714844 58.78193359 -52.79714844 58.78193359 -52.375 56.9375 C-52.09398437 55.72964844 -51.81296875 54.52179688 -51.5234375 53.27734375 C-51.04746317 50.29717612 -50.88488937 48.74635818 -52 46 C-52.515625 45.38125 -53.03125 44.7625 -53.5625 44.125 C-55.55445142 41.18037616 -55.48989896 39.49927825 -55 36 C-51.86540052 30.0924856 -47.49068173 26.66045449 -42 23 C-41.01 23 -40.02 23 -39 23 C-39 23.99 -39 24.98 -39 26 C-38.49210937 25.67386719 -37.98421875 25.34773438 -37.4609375 25.01171875 C-26.4159292 18 -26.4159292 18 -22 18 C-22.50522222 22.37859255 -25.17827222 24.81651224 -28 28 C-22.2780032 26.52084437 -18.16390382 24.73298295 -13.83203125 20.6953125 C-11.69963468 18.72205 -9.46942149 16.92287754 -7.1875 15.125 C-6.43855469 14.52945312 -5.68960938 13.93390625 -4.91796875 13.3203125 C-3 12 -3 12 -1 12 C-0.67 8.04 -0.34 4.08 0 0 Z M-19 57 C-19.33 58.65 -19.66 60.3 -20 62 C-19.01 62.33 -18.02 62.66 -17 63 C-17 61.02 -17 59.04 -17 57 C-17.66 57 -18.32 57 -19 57 Z " fill="#282627" transform="translate(57,11)"/>
<path d="M0 0 C1.08163941 1.04300943 2.14239421 2.107886 3.1875 3.1875 C5.49075113 5.31318771 6.42441182 5.99567877 9.6015625 6.01953125 C14.81921926 5.05100941 14.81921926 5.05100941 19 2 C20.32 2 21.64 2 23 2 C23 1.34 23 0.68 23 0 C24.65 -0.33 26.3 -0.66 28 -1 C27.88637738 0.4800841 27.75877092 1.95910074 27.625 3.4375 C27.52058594 4.67306641 27.52058594 4.67306641 27.4140625 5.93359375 C27.27742188 6.61550781 27.14078125 7.29742187 27 8 C26.34 8.33 25.68 8.66 25 9 C25 8.34 25 7.68 25 7 C23.68 7 22.36 7 21 7 C21 7.66 21 8.32 21 9 C21.804375 9.309375 22.60875 9.61875 23.4375 9.9375 C26 11 26 11 27 12 C27.49779089 16.31418769 27.46718467 18.33461577 24.9375 21.9375 C21.3110749 24.48371337 19.34503601 24.40231815 15 24 C14.01 24 13.02 24 12 24 C11.505 24.495 11.505 24.495 11 25 C5.47058824 25.23529412 5.47058824 25.23529412 3 24 C2.731875 24.598125 2.46375 25.19625 2.1875 25.8125 C0.12844037 29.60550459 0.12844037 29.60550459 -2 31 C-5.6875 30.6875 -5.6875 30.6875 -9 30 C-9.33 31.32 -9.66 32.64 -10 34 C-9.42145264 33.823479 -8.84290527 33.64695801 -8.24682617 33.46508789 C12.98173114 27.04224014 12.98173114 27.04224014 22 27 C20.58606032 30.41702091 19.095791 32.0007182 16 34 C13.37792969 34.90380859 13.37792969 34.90380859 10.421875 35.6484375 C9.34292969 35.93203125 8.26398438 36.215625 7.15234375 36.5078125 C4.90065335 37.08172211 2.64805683 37.65208932 0.39453125 38.21875 C-7.87584369 40.40189297 -15.50193356 42.77736496 -20.3125 50.3125 C-21.67578125 52.42578125 -21.67578125 52.42578125 -23 54 C-23.99 54 -24.98 54 -26 54 C-26 52.68 -26 51.36 -26 50 C-24.35 49.34 -22.7 48.68 -21 48 C-22.485 48.495 -22.485 48.495 -24 49 C-25.010625 49.144375 -26.02125 49.28875 -27.0625 49.4375 C-30.11051481 49.73618053 -30.11051481 49.73618053 -32 52 C-32 53.32 -32 54.64 -32 56 C-30.68 56.33 -29.36 56.66 -28 57 C-28 57.66 -28 58.32 -28 59 C-31.75149976 58.7114231 -34.34903797 58.43939937 -37.5 56.3125 C-39 54 -39 54 -39.25 51.125 C-37.47320713 46.68301782 -34.3103891 44.05523191 -30 42 C-27.73828125 42.33984375 -27.73828125 42.33984375 -26 43 C-26.55429687 43.44730469 -27.10859375 43.89460938 -27.6796875 44.35546875 C-33.14132545 48.74888571 -33.14132545 48.74888571 -36 55 C-35.73960938 54.40832031 -35.47921875 53.81664062 -35.2109375 53.20703125 C-33.9230347 50.85972454 -32.62775822 49.44975232 -30.625 47.6875 C-30.03976563 47.15511719 -29.45453125 46.62273438 -28.8515625 46.07421875 C-27 45 -27 45 -24.7734375 45.33203125 C-23.89558594 45.66267578 -23.89558594 45.66267578 -23 46 C-20.72525723 42.58788584 -20.43370356 40.3431471 -19.875 36.3125 C-19.70742188 35.13300781 -19.53984375 33.95351563 -19.3671875 32.73828125 C-19.24601562 31.83464844 -19.12484375 30.93101563 -19 30 C-16 31 -16 31 -15 33 C-14.01 32.505 -14.01 32.505 -13 32 C-12.64442669 29.74053416 -12.55669494 27.5100223 -12.44140625 25.2265625 C-11.91873345 22.59007139 -11.03933349 21.68584902 -9 20 C-8.855625 21.134375 -8.71125 22.26875 -8.5625 23.4375 C-8.38828522 26.80777201 -8.38828522 26.80777201 -7 28 C-4.58462162 28.41717279 -4.58462162 28.41717279 -2 28 C-0.15684329 26.0995533 -0.15684329 26.0995533 1 24 C0.505 24.495 0.505 24.495 0 25 C-2.5 25.625 -2.5 25.625 -5 26 C-6 25 -6 25 -6.25 22.25 C-5.96959318 18.60471134 -5.31691374 16.81339526 -3 14 C-1.68 14 -0.36 14 1 14 C1 13.01 1 12.02 1 11 C0.05125 11.474375 -0.8975 11.94875 -1.875 12.4375 C-3.58333333 13.29166667 -5.29166667 14.14583333 -7 15 C-5.96508351 12.17750049 -5.30084735 11.16625774 -2.625 9.6875 C0.10579853 8.97229086 1.39189261 9.0340343 4 10 C1.42215154 7.35247996 -0.91648098 5.05567935 -4 3 C-4.433125 4.0828125 -4.433125 4.0828125 -4.875 5.1875 C-7.97831877 9.29483367 -12.19258137 11.26833977 -17 13 C-17.66 12.67 -18.32 12.34 -19 12 C-18.52949219 11.67386719 -18.05898438 11.34773438 -17.57421875 11.01171875 C-16.95160156 10.57472656 -16.32898438 10.13773438 -15.6875 9.6875 C-14.76517578 9.04361328 -14.76517578 9.04361328 -13.82421875 8.38671875 C-12.05354669 7.04070466 -10.53261991 5.60807197 -9 4 C-8.67 4.33 -8.34 4.66 -8 5 C-7.87625 4.195625 -7.7525 3.39125 -7.625 2.5625 C-7.315625 1.2940625 -7.315625 1.2940625 -7 0 C-4.14256951 -1.42871525 -3.0411049 -1.01370163 0 0 Z " fill="#232222" transform="translate(68,17)"/>
<path d="M0 0 C0.66 0.33 1.32 0.66 2 1 C1.175 1.825 0.35 2.65 -0.5 3.5 C-2.7614318 6.16275632 -3.34355513 7.88440321 -3.3125 11.375 C-3.209375 12.57125 -3.10625 13.7675 -3 15 C-2.773125 14.05125 -2.54625 13.1025 -2.3125 12.125 C-1 9 -1 9 1.4375 7.625 C4 7 4 7 7 7 C7 8.32 7 9.64 7 11 C7.5775 10.071875 8.155 9.14375 8.75 8.1875 C11.44590568 4.36830028 13.19831531 2.45042117 17.75 1.3125 C18.4925 1.209375 19.235 1.10625 20 1 C20 3.31 20 5.62 20 8 C18.35 8.33 16.7 8.66 15 9 C15.66 9 16.32 9 17 9 C18.32 9 19.64 9 21 9 C21 10.65 21 12.3 21 14 C20.505 12.02 20.505 12.02 20 10 C18.02 10.99 18.02 10.99 16 12 C16 14.31 16 16.62 16 19 C14.68 19 13.36 19 12 19 C11.53568358 10.95184867 11.53568358 10.95184867 13.25 7.4375 C15 6 15 6 19 6 C19 5.34 19 4.68 19 4 C14.60071232 5.17314338 12.31787774 6.0264953 10 10 C9.63965477 12.58881802 9.63965477 12.58881802 9.8125 15.25 C9.83957031 16.14203125 9.86664063 17.0340625 9.89453125 17.953125 C9.94673828 18.96632813 9.94673828 18.96632813 10 20 C12.07553648 20.5534764 13.84365964 21 16 21 C15.67 23.64 15.34 26.28 15 29 C14.67 29 14.34 29 14 29 C14 27.35 14 25.7 14 24 C12.68 24 11.36 24 10 24 C10 24.66 10 25.32 10 26 C7.36 26.66 4.72 27.32 2 28 C1.67 27.34 1.34 26.68 1 26 C0.88011719 26.92232422 0.88011719 26.92232422 0.7578125 27.86328125 C0 30 0 30 -1.8203125 31.23046875 C-2.58085937 31.54628906 -3.34140625 31.86210938 -4.125 32.1875 C-4.93582031 32.52652344 -5.74664063 32.86554688 -6.58203125 33.21484375 C-9 34 -9 34 -12.8125 34.25 C-16.0435106 34.62253985 -16.0435106 34.62253985 -17.14453125 36.76171875 C-17.79462492 38.20435689 -18.42135365 39.65776822 -19.0234375 41.12109375 C-20 43 -20 43 -22.75 44.5 C-23.86375 44.7475 -23.86375 44.7475 -25 45 C-24.83628906 44.29488281 -24.67257813 43.58976562 -24.50390625 42.86328125 C-23.98300176 39.90341312 -23.90133268 37.18938727 -23.9375 34.1875 C-23.94652344 33.21167969 -23.95554687 32.23585937 -23.96484375 31.23046875 C-23.97644531 30.49441406 -23.98804688 29.75835937 -24 29 C-23.67 29 -23.34 29 -23 29 C-22.67 27.35 -22.34 25.7 -22 24 C-23.32 23.34 -24.64 22.68 -26 22 C-26.32289152 17.96385598 -26.23629571 15.48204325 -24.4375 11.8125 C-21.52013512 8.44630975 -18.96091436 6.98045718 -15 5 C-14.34 6.32 -13.68 7.64 -13 9 C-12.01 7.88625 -12.01 7.88625 -11 6.75 C-7.88155033 3.62261494 -4.18518981 1.42277976 0 0 Z " fill="#7C7B7A" transform="translate(30,32)"/>
<path d="M0 0 C2.0972299 4.1944598 2.22924545 4.4965161 1.0625 8.625 C-0.00940981 11.89228249 -0.00940981 11.89228249 1 15 C1.60675743 20.33946537 0.15389121 22.76477467 -3 27 C-3.474375 27.845625 -3.94875 28.69125 -4.4375 29.5625 C-10.58467861 39.15209864 -20.7321239 40.59458789 -31.109375 43.01757812 C-37.48219662 44.60053784 -42.99933139 46.68524403 -46.5625 52.5625 C-48.61932086 55.67444325 -50.59042111 57.34391882 -54 59 C-53.67 59.99 -53.34 60.98 -53 62 C-62.76827372 62.61586314 -62.76827372 62.61586314 -67.125 60.4375 C-69.52142114 57.32215252 -69.77641602 54.87545563 -70 51 C-70.69867188 51.2165625 -71.39734375 51.433125 -72.1171875 51.65625 C-73.02726562 51.9346875 -73.93734375 52.213125 -74.875 52.5 C-75.77992187 52.7784375 -76.68484375 53.056875 -77.6171875 53.34375 C-80 54 -80 54 -82 54 C-82.165 54.886875 -82.33 55.77375 -82.5 56.6875 C-84.53021981 61.17090209 -87.56804427 63.01659011 -92 65 C-92.99 65 -93.98 65 -95 65 C-94.34728444 61.48294042 -93.48606976 58.10674923 -92.4375 54.6875 C-92.16808594 53.80449219 -91.89867188 52.92148438 -91.62109375 52.01171875 C-91.41613281 51.34785156 -91.21117188 50.68398437 -91 50 C-90.67 50 -90.34 50 -90 50 C-89.82164485 54.54805635 -90.00214565 57.8794254 -92 62 C-88.14690368 60.53848071 -86.75981224 58.68722565 -85 55 C-84.28598768 51.80604974 -84.28598768 51.80604974 -84 49 C-83.67 49.99 -83.34 50.98 -83 52 C-82.18015625 51.72285156 -81.3603125 51.44570312 -80.515625 51.16015625 C-78.89914063 50.61681641 -78.89914063 50.61681641 -77.25 50.0625 C-75.64898437 49.52302734 -75.64898437 49.52302734 -74.015625 48.97265625 C-71.68264275 48.22017881 -69.38625005 47.55022756 -67 47 C-66.67 45.35 -66.34 43.7 -66 42 C-65.34 42.33 -64.68 42.66 -64 43 C-64.33 43.66 -64.66 44.32 -65 45 C-63.8553125 44.505 -63.8553125 44.505 -62.6875 44 C-60 43 -60 43 -57 43 C-57.33 42.01 -57.66 41.02 -58 40 C-55.5625 40.375 -55.5625 40.375 -53 41 C-52.67 41.66 -52.34 42.32 -52 43 C-51.67 41.35 -51.34 39.7 -51 38 C-51.78375 38.20625 -52.5675 38.4125 -53.375 38.625 C-54.24125 38.74875 -55.1075 38.8725 -56 39 C-58.45993942 36.54006058 -58.34992473 35.64998115 -58.4375 32.25 C-58.36388483 28.62182379 -58.02845008 26.28778972 -55.8125 23.375 C-53 21 -53 21 -50.1875 20.625 C-49.465625 20.74875 -48.74375 20.8725 -48 21 C-48 21.66 -48 22.32 -48 23 C-48.804375 23.28875 -49.60875 23.5775 -50.4375 23.875 C-53.1326468 24.73262568 -53.1326468 24.73262568 -54 27 C-54.22467831 28.53668865 -54.40796805 30.07968054 -54.5625 31.625 C-54.64628906 32.44226562 -54.73007812 33.25953125 -54.81640625 34.1015625 C-54.87699219 34.72804687 -54.93757813 35.35453125 -55 36 C-53.68 36 -52.36 36 -51 36 C-51.495 32.535 -51.495 32.535 -52 29 C-50.68 28.67 -49.36 28.34 -48 28 C-47.7932204 34.41016775 -47.83728204 40.8819369 -50 47 C-50.99 47.66 -51.98 48.32 -53 49 C-53 48.34 -53 47.68 -53 47 C-58.90642376 49.97729568 -58.90642376 49.97729568 -63 55 C-63 55.99 -63 56.98 -63 58 C-64.485 57.505 -64.485 57.505 -66 57 C-64.62968895 51.34746692 -60.32310587 48.4886459 -56 45 C-60.40339556 45.74621301 -62.82368382 46.73545282 -66 50 C-67.15196754 52.99096209 -67.15196754 52.99096209 -67 56 C-65.32780308 58.92634461 -63.55961595 59.14181859 -60.3125 60.1875 C-59.219375 60.455625 -58.12625 60.72375 -57 61 C-57 58.36 -57 55.72 -57 53 C-57.66 53 -58.32 53 -59 53 C-59 54.98 -59 56.96 -59 59 C-59.99 58.67 -60.98 58.34 -62 58 C-61.67995042 55.03954142 -61.40971004 53.42488449 -59.3125 51.25 C-56.54621456 49.75471057 -54.10187089 49.40459186 -51 49 C-50.34 48.67 -49.68 48.34 -49 48 C-49.66 49.32 -50.32 50.64 -51 52 C-52.32 52 -53.64 52 -55 52 C-55 53.32 -55 54.64 -55 56 C-51.60085446 54.34898645 -49.74408929 52.79142673 -47.8125 49.625 C-42.08276755 41.15913306 -30.06916077 39.46345639 -20.77148438 37.24023438 C-15.66347606 35.94997622 -11.79561291 34.88952498 -8 31 C-7.67 30.34 -7.34 29.68 -7 29 C-17.02961836 30.99109636 -26.85472676 33.00891946 -36.53125 36.36328125 C-39 37 -39 37 -42 36 C-41.34 35.67 -40.68 35.34 -40 35 C-38.86649466 32.98330173 -38.86649466 32.98330173 -38 31 C-36.948125 31.28875 -35.89625 31.5775 -34.8125 31.875 C-33.554375 31.91625 -32.29625 31.9575 -31 32 C-30.195625 31.030625 -29.39125 30.06125 -28.5625 29.0625 C-26 26 -26 26 -24.01953125 25.6328125 C-22.00994457 25.68405879 -20.00373476 25.83840849 -18 26 C-17.01 25.67 -16.02 25.34 -15 25 C-14.67 24.34 -14.34 23.68 -14 23 C-14 23.99 -14 24.98 -14 26 C-12.53890937 25.74445946 -11.08111904 25.46999628 -9.625 25.1875 C-8.81289062 25.03667969 -8.00078125 24.88585937 -7.1640625 24.73046875 C-4.64179359 24.12455058 -4.64179359 24.12455058 -3 21 C-2.41666667 17.5 -2.41666667 17.5 -3 14 C-5.40858714 12.1375562 -5.40858714 12.1375562 -8 11 C-8 10.34 -8 9.68 -8 9 C-6.35 9.33 -4.7 9.66 -3 10 C-2.01 6.7 -1.02 3.4 0 0 Z " fill="#131011" transform="translate(97,15)"/>
<path d="M0 0 C1.08163941 1.04300943 2.14239421 2.107886 3.1875 3.1875 C5.49075113 5.31318771 6.42441182 5.99567877 9.6015625 6.01953125 C14.81921926 5.05100941 14.81921926 5.05100941 19 2 C20.32 2 21.64 2 23 2 C23 1.34 23 0.68 23 0 C24.65 -0.33 26.3 -0.66 28 -1 C27.88637738 0.4800841 27.75877092 1.95910074 27.625 3.4375 C27.52058594 4.67306641 27.52058594 4.67306641 27.4140625 5.93359375 C27.27742188 6.61550781 27.14078125 7.29742187 27 8 C26.34 8.33 25.68 8.66 25 9 C25 8.34 25 7.68 25 7 C23.68 7 22.36 7 21 7 C21 7.66 21 8.32 21 9 C21.804375 9.309375 22.60875 9.61875 23.4375 9.9375 C26 11 26 11 27 12 C27.49779089 16.31418769 27.46718467 18.33461577 24.9375 21.9375 C21.35134537 24.45543836 19.29107165 24.4206933 15 24 C15 23.01 15 22.02 15 21 C14.05125 21.515625 13.1025 22.03125 12.125 22.5625 C11.09375 23.036875 10.0625 23.51125 9 24 C8.34 23.67 7.68 23.34 7 23 C6.34 23 5.68 23 5 23 C3.33034549 22.68197057 1.66321482 22.35015049 0 22 C-0.66 22.99 -1.32 23.98 -2 25 C-2.66 25 -3.32 25 -4 25 C-4.25 18.375 -4.25 18.375 -2 15 C-1.01 15 -0.02 15 1 15 C1.33 14.01 1.66 13.02 2 12 C2.66 12 3.32 12 4 12 C3.61479436 9.46089803 3.29902057 8.27248877 1.37109375 6.515625 C0.73300781 6.09796875 0.09492187 5.6803125 -0.5625 5.25 C-1.20316406 4.82203125 -1.84382813 4.3940625 -2.50390625 3.953125 C-2.99761719 3.63859375 -3.49132812 3.3240625 -4 3 C-4.433125 4.0828125 -4.433125 4.0828125 -4.875 5.1875 C-7.97831877 9.29483367 -12.19258137 11.26833977 -17 13 C-17.66 12.67 -18.32 12.34 -19 12 C-18.52949219 11.67386719 -18.05898438 11.34773438 -17.57421875 11.01171875 C-16.95160156 10.57472656 -16.32898437 10.13773438 -15.6875 9.6875 C-15.07261719 9.25824219 -14.45773438 8.82898437 -13.82421875 8.38671875 C-12.05354669 7.04070466 -10.53261991 5.60807197 -9 4 C-8.67 4.33 -8.34 4.66 -8 5 C-7.87625 4.195625 -7.7525 3.39125 -7.625 2.5625 C-7.41875 1.716875 -7.2125 0.87125 -7 0 C-4.14256951 -1.42871525 -3.0411049 -1.01370163 0 0 Z " fill="#6C6A66" transform="translate(68,17)"/>
<path d="M0 0 C0.66 0.33 1.32 0.66 2 1 C1.21625 1.9075 0.4325 2.815 -0.375 3.75 C-2.30052496 6.05190236 -3.82205741 8.21577207 -5 11 C-5 9.02 -5 7.04 -5 5 C-7.90349865 6.70970478 -8.89021838 7.6940042 -10.046875 10.91796875 C-10.39492188 12.53638672 -10.39492188 12.53638672 -10.75 14.1875 C-10.99234375 15.27417969 -11.2346875 16.36085938 -11.484375 17.48046875 C-11.65453125 18.31191406 -11.8246875 19.14335938 -12 20 C-12.66 20 -13.32 20 -14 20 C-14.66 16.7 -15.32 13.4 -16 10 C-18.8249 11.41245 -19.55088882 13.22778731 -21 16 C-21.97610842 18.54051214 -21.97610842 18.54051214 -22 21 C-21.49082031 21.37511719 -20.98164063 21.75023438 -20.45703125 22.13671875 C-19 24 -19 24 -19.14453125 27.79296875 C-19.35035216 29.26027266 -19.5736797 30.72520458 -19.8125 32.1875 C-19.92142578 32.93708984 -20.03035156 33.68667969 -20.14257812 34.45898438 C-20.41348723 36.30823349 -20.70480057 38.15447261 -21 40 C-19.05543072 35.86581409 -18.62971979 32.230003 -18.375 27.6875 C-18.26285156 25.80611328 -18.26285156 25.80611328 -18.1484375 23.88671875 C-18.09945313 22.93410156 -18.05046875 21.98148438 -18 21 C-17.34 21 -16.68 21 -16 21 C-15.34 24.63 -14.68 28.26 -14 32 C-13.566875 30.2365625 -13.566875 30.2365625 -13.125 28.4375 C-12.16686279 24.5981073 -11.10794489 20.7986682 -10 17 C-9.67 17 -9.34 17 -9 17 C-9.33 21.95 -9.66 26.9 -10 32 C-8.68 31.67 -7.36 31.34 -6 31 C-6 25.72 -6 20.44 -6 15 C-5.67 15 -5.34 15 -5 15 C-5 19.95 -5 24.9 -5 30 C-2.72826908 29.15433261 -2.72826908 29.15433261 -2.125 26.5 C-1 24 -1 24 1.125 23.1875 C1.74375 23.125625 2.3625 23.06375 3 23 C1.21775808 29.17843866 1.21775808 29.17843866 -1.95703125 31.3203125 C-5.71569317 33.04916892 -8.64920241 33.97699688 -12.8125 34.25 C-16.0435106 34.62253985 -16.0435106 34.62253985 -17.14453125 36.76171875 C-17.79462492 38.20435689 -18.42135365 39.65776822 -19.0234375 41.12109375 C-20 43 -20 43 -22.75 44.5 C-23.86375 44.7475 -23.86375 44.7475 -25 45 C-24.83628906 44.29488281 -24.67257813 43.58976562 -24.50390625 42.86328125 C-23.98300176 39.90341312 -23.90133268 37.18938727 -23.9375 34.1875 C-23.94652344 33.21167969 -23.95554687 32.23585937 -23.96484375 31.23046875 C-23.97644531 30.49441406 -23.98804688 29.75835937 -24 29 C-23.67 29 -23.34 29 -23 29 C-22.67 27.35 -22.34 25.7 -22 24 C-23.32 23.34 -24.64 22.68 -26 22 C-26.32289152 17.96385598 -26.23629571 15.48204325 -24.4375 11.8125 C-21.52013512 8.44630975 -18.96091436 6.98045718 -15 5 C-14.34 6.32 -13.68 7.64 -13 9 C-12.01 7.88625 -12.01 7.88625 -11 6.75 C-7.88155033 3.62261494 -4.18518981 1.42277976 0 0 Z " fill="#9A9893" transform="translate(30,32)"/>
<path d="M0 0 C2.0972299 4.1944598 2.22924545 4.4965161 1.0625 8.625 C-0.00940981 11.89228249 -0.00940981 11.89228249 1 15 C1.60675743 20.33946537 0.15389121 22.76477467 -3 27 C-3.474375 27.845625 -3.94875 28.69125 -4.4375 29.5625 C-10.17758735 38.51703626 -19.0487532 40.14861049 -28.75 42.5625 C-30.41252396 42.97620974 -32.07402971 43.39403771 -33.734375 43.81640625 C-34.45850586 43.99631104 -35.18263672 44.17621582 -35.92871094 44.36157227 C-38.06040953 44.94305546 -38.06040953 44.94305546 -40.07910156 46.13647461 C-42 47 -42 47 -45 46 C-37.13804201 41.66846974 -29.45943611 39.31766155 -20.77148438 37.24023438 C-15.66347606 35.94997622 -11.79561291 34.88952498 -8 31 C-7.67 30.34 -7.34 29.68 -7 29 C-17.02961836 30.99109636 -26.85472676 33.00891946 -36.53125 36.36328125 C-39 37 -39 37 -42 36 C-41.01 35.505 -41.01 35.505 -40 35 C-38.86649466 32.98330173 -38.86649466 32.98330173 -38 31 C-36.4221875 31.433125 -36.4221875 31.433125 -34.8125 31.875 C-33.554375 31.91625 -32.29625 31.9575 -31 32 C-29.7934375 30.5459375 -29.7934375 30.5459375 -28.5625 29.0625 C-26 26 -26 26 -24.01953125 25.6328125 C-22.00994457 25.68405879 -20.00373476 25.83840849 -18 26 C-17.01 25.67 -16.02 25.34 -15 25 C-14.67 24.34 -14.34 23.68 -14 23 C-14 23.99 -14 24.98 -14 26 C-12.53890937 25.74445946 -11.08111904 25.46999628 -9.625 25.1875 C-8.81289062 25.03667969 -8.00078125 24.88585937 -7.1640625 24.73046875 C-4.64179359 24.12455058 -4.64179359 24.12455058 -3 21 C-2.41666667 17.5 -2.41666667 17.5 -3 14 C-5.40858714 12.1375562 -5.40858714 12.1375562 -8 11 C-8 10.34 -8 9.68 -8 9 C-5.525 9.495 -5.525 9.495 -3 10 C-2.01 6.7 -1.02 3.4 0 0 Z " fill="#121010" transform="translate(97,15)"/>
<path d="M0 0 C-0.33 2.31 -0.66 4.62 -1 7 C-2.32 7 -3.64 7 -5 7 C-5.66 9.97 -6.32 12.94 -7 16 C-6.38125 15.34 -5.7625 14.68 -5.125 14 C-3 12 -3 12 -1 12 C-0.67 9.69 -0.34 7.38 0 5 C0.33 5 0.66 5 1 5 C1.495 8.96 1.495 8.96 2 13 C3.32 12.67 4.64 12.34 6 12 C6 12.66 6 13.32 6 14 C7.65 13.34 9.3 12.68 11 12 C11 12.66 11 13.32 11 14 C7.54337669 16.30441554 6.05142119 16.25860135 2 16 C1.34 15.67 0.68 15.34 0 15 C-0.268125 15.598125 -0.53625 16.19625 -0.8125 16.8125 C-2.87155963 20.60550459 -2.87155963 20.60550459 -5 22 C-8.6875 21.6875 -8.6875 21.6875 -12 21 C-12.185625 21.61875 -12.37125 22.2375 -12.5625 22.875 C-14.71437233 26.05602866 -17.37533763 26.19451947 -21 27 C-20.87625 28.299375 -20.87625 28.299375 -20.75 29.625 C-21.07139128 33.96378223 -22.07687684 35.78456452 -25 39 C-27.6534517 40.00684333 -30.19361617 40.45682894 -33 41 C-33.66 41.66 -34.32 42.32 -35 43 C-35 44.32 -35 45.64 -35 47 C-33.68 47.33 -32.36 47.66 -31 48 C-31 48.66 -31 49.32 -31 50 C-34.75149976 49.7114231 -37.34903797 49.43939937 -40.5 47.3125 C-42 45 -42 45 -42.25 42.125 C-40.47320713 37.68301782 -37.3103891 35.05523191 -33 33 C-30.73828125 33.33984375 -30.73828125 33.33984375 -29 34 C-29.55429687 34.44730469 -30.10859375 34.89460938 -30.6796875 35.35546875 C-36.14132545 39.74888571 -36.14132545 39.74888571 -39 46 C-38.73960938 45.40832031 -38.47921875 44.81664062 -38.2109375 44.20703125 C-36.9230347 41.85972454 -35.62775822 40.44975232 -33.625 38.6875 C-33.03976563 38.15511719 -32.45453125 37.62273438 -31.8515625 37.07421875 C-30 36 -30 36 -27.7734375 36.33203125 C-26.89558594 36.66267578 -26.89558594 36.66267578 -26 37 C-23.72525723 33.58788584 -23.43370356 31.3431471 -22.875 27.3125 C-22.70742188 26.13300781 -22.53984375 24.95351563 -22.3671875 23.73828125 C-22.24601562 22.83464844 -22.12484375 21.93101563 -22 21 C-19 22 -19 22 -18 24 C-17.34 23.67 -16.68 23.34 -16 23 C-15.64442669 20.74053416 -15.55669494 18.5100223 -15.44140625 16.2265625 C-14.91873345 13.59007139 -14.03933349 12.68584902 -12 11 C-11.855625 12.134375 -11.71125 13.26875 -11.5625 14.4375 C-11.38828522 17.80777201 -11.38828522 17.80777201 -10 19 C-7.58462162 19.41717279 -7.58462162 19.41717279 -5 19 C-3.15684329 17.0995533 -3.15684329 17.0995533 -2 15 C-2.33 15.33 -2.66 15.66 -3 16 C-5.5 16.625 -5.5 16.625 -8 17 C-9 16 -9 16 -9.25 13.25 C-8.96959318 9.60471134 -8.31691374 7.81339526 -6 5 C-4.68 5 -3.36 5 -2 5 C-2 4.01 -2 3.02 -2 2 C-2.94875 2.474375 -3.8975 2.94875 -4.875 3.4375 C-6.58333333 4.29166667 -8.29166667 5.14583333 -10 6 C-8.94901234 3.13367003 -8.33137046 2.16993357 -5.5625 0.75 C-3 0 -3 0 0 0 Z " fill="#9C9994" transform="translate(71,26)"/>
<path d="M0 0 C-0.11362262 1.4800841 -0.24122908 2.95910074 -0.375 4.4375 C-0.44460937 5.26121094 -0.51421875 6.08492187 -0.5859375 6.93359375 C-0.72257812 7.61550781 -0.85921875 8.29742187 -1 9 C-1.99 9.495 -1.99 9.495 -3 10 C-3 9.34 -3 8.68 -3 8 C-4.32 8 -5.64 8 -7 8 C-7 8.66 -7 9.32 -7 10 C-6.195625 10.309375 -5.39125 10.61875 -4.5625 10.9375 C-2 12 -2 12 -1 13 C-0.50220911 17.31418769 -0.53281533 19.33461577 -3.0625 22.9375 C-6.64865463 25.45543836 -8.70892835 25.4206933 -13 25 C-13 24.01 -13 23.02 -13 22 C-13.66 21.67 -14.32 21.34 -15 21 C-14.649375 20.46375 -14.29875 19.9275 -13.9375 19.375 C-12.71075751 16.26725237 -13.27143569 14.20568297 -14 11 C-14.33 11 -14.66 11 -15 11 C-15.04898438 11.63808594 -15.09796875 12.27617187 -15.1484375 12.93359375 C-15.22320312 13.75988281 -15.29796875 14.58617187 -15.375 15.4375 C-15.47941406 16.67306641 -15.47941406 16.67306641 -15.5859375 17.93359375 C-15.72257812 18.61550781 -15.85921875 19.29742187 -16 20 C-16.66 20.33 -17.32 20.66 -18 21 C-17.88652381 19.02013918 -17.7589065 17.04108402 -17.625 15.0625 C-17.55539063 13.96035156 -17.48578125 12.85820312 -17.4140625 11.72265625 C-17.27742188 10.82417969 -17.14078125 9.92570312 -17 9 C-16.34 8.67 -15.68 8.34 -15 8 C-15.99 7.34 -16.98 6.68 -18 6 C-16.88625 5.87625 -15.7725 5.7525 -14.625 5.625 C-10.96896323 5.3534187 -10.96896323 5.3534187 -9 3 C-7.68 3 -6.36 3 -5 3 C-5 2.34 -5 1.68 -5 1 C-3 0 -3 0 0 0 Z " fill="#A19E99" transform="translate(96,16)"/>
<path d="M0 0 C0.33 0.66 0.66 1.32 1 2 C0.67 2.99 0.34 3.98 0 5 C-0.14777936 6.69867188 -0.24747066 8.40177489 -0.31640625 10.10546875 C-0.35830078 11.08837891 -0.40019531 12.07128906 -0.44335938 13.08398438 C-0.48267578 14.10814453 -0.52199219 15.13230469 -0.5625 16.1875 C-0.60568359 17.22326172 -0.64886719 18.25902344 -0.69335938 19.32617188 C-0.79944366 21.8839819 -0.90150146 24.44188845 -1 27 C-2.32 27.33 -3.64 27.66 -5 28 C-5 23.38 -5 18.76 -5 14 C-5.268125 15.918125 -5.53625 17.83625 -5.8125 19.8125 C-6.625 25.625 -6.625 25.625 -10 29 C-10.33 25.04 -10.66 21.08 -11 17 C-11.66 17 -12.32 17 -13 17 C-12.97679687 17.95261719 -12.95359375 18.90523437 -12.9296875 19.88671875 C-12.90261719 21.76810547 -12.90261719 21.76810547 -12.875 23.6875 C-12.85179687 24.92886719 -12.82859375 26.17023437 -12.8046875 27.44921875 C-12.99103941 30.83709655 -13.41999261 33.02229376 -15 36 C-15.99 36.495 -15.99 36.495 -17 37 C-16.82082031 35.80761719 -16.64164063 34.61523438 -16.45703125 33.38671875 C-16.24131517 31.82043239 -16.02651919 30.25401912 -15.8125 28.6875 C-15.69197266 27.90181641 -15.57144531 27.11613281 -15.44726562 26.30664062 C-15.29741211 25.1706543 -15.29741211 25.1706543 -15.14453125 24.01171875 C-15.04503174 23.31522217 -14.94553223 22.61872559 -14.84301758 21.90112305 C-15.05315035 19.35632696 -16.1745303 18.69044713 -18 17 C-17.87910519 12.52689211 -15.67813545 9.46582235 -13 6 C-12.01 5.67 -11.02 5.34 -10 5 C-9.67 8.63 -9.34 12.26 -9 16 C-8.34 16 -7.68 16 -7 16 C-6.91363281 15.18015625 -6.82726563 14.3603125 -6.73828125 13.515625 C-5.57632933 4.60377358 -5.57632933 4.60377358 -2.375 1.25 C-1.59125 0.8375 -0.8075 0.425 0 0 Z " fill="#3E3D3A" transform="translate(25,36)"/>
<path d="M0 0 C-0.50522222 4.37859255 -3.17827222 6.81651224 -6 10 C-3.03 9.01 -0.06 8.02 3 7 C3.66 7.99 4.32 8.98 5 10 C4.01 11.65 3.02 13.3 2 15 C1.505 13.515 1.505 13.515 1 12 C1.33 11.34 1.66 10.68 2 10 C-2.285553 10.93546891 -2.285553 10.93546891 -6 13 C-7.31981097 16.27841044 -7.73654691 19.48948756 -8 23 C-8.33 23 -8.66 23 -9 23 C-9.86140345 10.0980905 -9.86140345 10.0980905 -6.5 6.1875 C-5.675 5.465625 -4.85 4.74375 -4 4 C-10.68524265 6.11699351 -13.82962619 7.98480845 -17.25 14.3125 C-17.4975 14.869375 -17.745 15.42625 -18 16 C-18.99 13.69 -19.98 11.38 -21 9 C-25.18111999 11.508672 -28.08827914 13.43311128 -30 18 C-30.50070321 21.62642666 -30.50070321 21.62642666 -30 25 C-29.01 25.66 -28.02 26.32 -27 27 C-26.59156077 29.71203652 -26.86663133 32.2437142 -27 35 C-27.33 35 -27.66 35 -28 35 C-28.268125 33.9275 -28.53625 32.855 -28.8125 31.75 C-29.72638967 28.09775371 -29.72638967 28.09775371 -31.625 25.9375 C-33.62263565 23.12264977 -33.47371897 21.38370696 -33 18 C-29.86540052 12.0924856 -25.49068173 8.66045449 -20 5 C-19.01 5 -18.02 5 -17 5 C-17 5.99 -17 6.98 -17 8 C-16.49210937 7.67386719 -15.98421875 7.34773438 -15.4609375 7.01171875 C-4.4159292 0 -4.4159292 0 0 0 Z " fill="#322E2E" transform="translate(35,29)"/>
<path d="M0 0 C0.66 0.33 1.32 0.66 2 1 C2 5 2 5 0 7.25 C-0.99 8.11625 -0.99 8.11625 -2 9 C-1.401875 8.67 -0.80375 8.34 -0.1875 8 C2 7 2 7 5 7 C5 7.99 5 8.98 5 10 C4.071875 10.12375 4.071875 10.12375 3.125 10.25 C0.89350206 10.81469049 0.89350206 10.81469049 -0.25 12.6875 C-1.1758912 15.54233119 -1.135557 18.01774607 -1 21 C0.32 21 1.64 21 3 21 C3.33 20.34 3.66 19.68 4 19 C4.66 19.33 5.32 19.66 6 20 C2.7518797 24.81203008 2.7518797 24.81203008 -0.5 25.625 C-4.08027575 24.72993106 -5.07976257 23.08609588 -7 20 C-7.75 17.1875 -7.75 17.1875 -8 15 C-8.66 15 -9.32 15 -10 15 C-10.33 18.3 -10.66 21.6 -11 25 C-11.33 25 -11.66 25 -12 25 C-12.08075665 22.70890403 -12.13907731 20.41700733 -12.1875 18.125 C-12.22230469 16.84882812 -12.25710937 15.57265625 -12.29296875 14.2578125 C-12.19628906 13.18273437 -12.09960938 12.10765625 -12 11 C-11.01 10.34 -10.02 9.68 -9 9 C-8.360625 8.505 -7.72125 8.01 -7.0625 7.5 C-5 6 -5 6 -2.8125 5.0625 C-0.79253008 4.14026135 -0.79253008 4.14026135 -0.25 1.875 C-0.1675 1.25625 -0.085 0.6375 0 0 Z " fill="#92918F" transform="translate(64,21)"/>
<path d="M0 0 C0.721875 0.12375 1.44375 0.2475 2.1875 0.375 C2.1875 1.035 2.1875 1.695 2.1875 2.375 C0.9809375 2.808125 0.9809375 2.808125 -0.25 3.25 C-2.9451468 4.10762568 -2.9451468 4.10762568 -3.8125 6.375 C-4.03717831 7.91168865 -4.22046805 9.45468054 -4.375 11 C-4.45878906 11.81726562 -4.54257812 12.63453125 -4.62890625 13.4765625 C-4.68949219 14.10304688 -4.75007813 14.72953125 -4.8125 15.375 C-3.4925 15.375 -2.1725 15.375 -0.8125 15.375 C-1.1425 13.065 -1.4725 10.755 -1.8125 8.375 C-0.4925 8.045 0.8275 7.715 2.1875 7.375 C2.3942796 13.78516775 2.35021796 20.2569369 0.1875 26.375 C-0.8025 27.035 -1.7925 27.695 -2.8125 28.375 C-2.8125 27.715 -2.8125 27.055 -2.8125 26.375 C-8.71892376 29.35229568 -8.71892376 29.35229568 -12.8125 34.375 C-12.8125 35.365 -12.8125 36.355 -12.8125 37.375 C-13.8025 37.045 -14.7925 36.715 -15.8125 36.375 C-14.44218895 30.72246692 -10.13560587 27.8636459 -5.8125 24.375 C-6.4725 22.725 -7.1325 21.075 -7.8125 19.375 C-5.375 19.75 -5.375 19.75 -2.8125 20.375 C-2.4825 21.035 -2.1525 21.695 -1.8125 22.375 C-1.4825 20.725 -1.1525 19.075 -0.8125 17.375 C-1.59625 17.58125 -2.38 17.7875 -3.1875 18 C-4.05375 18.12375 -4.92 18.2475 -5.8125 18.375 C-8.27243942 15.91506058 -8.16242473 15.02498115 -8.25 11.625 C-8.17638483 7.99682379 -7.84095008 5.66278972 -5.625 2.75 C-2.8125 0.375 -2.8125 0.375 0 0 Z " fill="#090909" transform="translate(46.8125,35.625)"/>
<path d="M0 0 C0.66 0.33 1.32 0.66 2 1 C1.21625 1.9075 0.4325 2.815 -0.375 3.75 C-2.30052496 6.05190236 -3.82205741 8.21577207 -5 11 C-5 9.02 -5 7.04 -5 5 C-7.90349865 6.70970478 -8.89021838 7.6940042 -10.046875 10.91796875 C-10.39492188 12.53638672 -10.39492188 12.53638672 -10.75 14.1875 C-10.99234375 15.27417969 -11.2346875 16.36085938 -11.484375 17.48046875 C-11.65453125 18.31191406 -11.8246875 19.14335938 -12 20 C-12.66 20 -13.32 20 -14 20 C-14.66 16.7 -15.32 13.4 -16 10 C-18.8249 11.41245 -19.55088882 13.22778731 -21 16 C-21.97610842 18.54051214 -21.97610842 18.54051214 -22 21 C-20.66621425 22.8354799 -20.66621425 22.8354799 -19 24 C-19.66 24.99 -20.32 25.98 -21 27 C-21 26.01 -21 25.02 -21 24 C-21.639375 23.855625 -22.27875 23.71125 -22.9375 23.5625 C-25 23 -25 23 -26 22 C-26.39814956 17.93887446 -26.24672012 15.50330905 -24.4375 11.8125 C-21.52013512 8.44630975 -18.96091436 6.98045718 -15 5 C-14.34 6.32 -13.68 7.64 -13 9 C-12.01 7.88625 -12.01 7.88625 -11 6.75 C-7.88155033 3.62261494 -4.18518981 1.42277976 0 0 Z " fill="#A49D8F" transform="translate(30,32)"/>
<path d="M0 0 C0 0.99 0 1.98 0 3 C-1.98 3.66 -3.96 4.32 -6 5 C-6 5.66 -6 6.32 -6 7 C-4.03852126 8.38938077 -2.03833424 9.7260411 0 11 C-0.125 14.3125 -0.125 14.3125 -1 18 C-4.21142334 20.16422008 -6.12446408 21 -10 21 C-9.67 18.36 -9.34 15.72 -9 13 C-7.02 13.495 -7.02 13.495 -5 14 C-5.98115932 13.01884068 -7.05389368 12.13208756 -8.125 11.25 C-10 9 -10 9 -10 6.4375 C-8.80456828 3.52363519 -7.69046866 2.58262862 -5 1 C-2 0 -2 0 0 0 Z " fill="#131312" transform="translate(94,19)"/>
<path d="M0 0 C0.33 0 0.66 0 1 0 C1.99405792 4.14190801 2.28028343 6.35412949 0.5625 10.3125 C-2.86083807 13.90283017 -5.18532732 14.06812787 -10 15 C-10.66 15.66 -11.32 16.32 -12 17 C-12 18.32 -12 19.64 -12 21 C-10.68 21.33 -9.36 21.66 -8 22 C-8 22.66 -8 23.32 -8 24 C-11.75149976 23.7114231 -14.34903797 23.43939937 -17.5 21.3125 C-19 19 -19 19 -19.25 16.125 C-17.47320713 11.68301782 -14.3103891 9.05523191 -10 7 C-7.73828125 7.33984375 -7.73828125 7.33984375 -6 8 C-6.55429687 8.44730469 -7.10859375 8.89460938 -7.6796875 9.35546875 C-13.14132545 13.74888571 -13.14132545 13.74888571 -16 20 C-15.73960938 19.40832031 -15.47921875 18.81664063 -15.2109375 18.20703125 C-13.9230347 15.85972454 -12.62775822 14.44975232 -10.625 12.6875 C-10.03976563 12.15511719 -9.45453125 11.62273438 -8.8515625 11.07421875 C-7 10 -7 10 -4.7734375 10.33203125 C-4.18820313 10.55246094 -3.60296875 10.77289063 -3 11 C-1.06604999 8.09907498 -0.69868059 7.10325263 -0.375 3.8125 C-0.25125 2.554375 -0.1275 1.29625 0 0 Z " fill="#9A9790" transform="translate(48,52)"/>
<path d="M0 0 C0.66 0 1.32 0 2 0 C0.58606032 3.41702091 -0.904209 5.0007182 -4 7 C-6.62207031 7.90380859 -6.62207031 7.90380859 -9.578125 8.6484375 C-10.65707031 8.93203125 -11.73601562 9.215625 -12.84765625 9.5078125 C-15.09934665 10.08172211 -17.35194317 10.65208932 -19.60546875 11.21875 C-27.87584369 13.40189297 -35.50193356 15.77736496 -40.3125 23.3125 C-41.67578125 25.42578125 -41.67578125 25.42578125 -43 27 C-43.99 27 -44.98 27 -46 27 C-46 25.68 -46 24.36 -46 23 C-45.278125 22.79375 -44.55625 22.5875 -43.8125 22.375 C-40.78683799 21.15103915 -40.78683799 21.15103915 -38.8125 18.1875 C-32.59594298 10.42622275 -22.26258062 8.83822117 -13.04467773 6.78686523 C-8.55328187 5.76564086 -4.75074806 4.82990572 -1 2 C-0.67 1.34 -0.34 0.68 0 0 Z " fill="#BBB5A8" transform="translate(88,44)"/>
<path d="M0 0 C1.0625 1.8125 1.0625 1.8125 2 4 C1.67 4.99 1.34 5.98 1 7 C-1.36083984 7.99902344 -1.36083984 7.99902344 -4.4609375 8.859375 C-5.57210937 9.17003906 -6.68328125 9.48070312 -7.828125 9.80078125 C-8.99859375 10.11402344 -10.1690625 10.42726563 -11.375 10.75 C-12.53773437 11.07871094 -13.70046875 11.40742187 -14.8984375 11.74609375 C-23.60058036 14.13313988 -23.60058036 14.13313988 -27 13 C-26.34 12.67 -25.68 12.34 -25 12 C-23.86649466 9.98330173 -23.86649466 9.98330173 -23 8 C-21.4221875 8.433125 -21.4221875 8.433125 -19.8125 8.875 C-17.9253125 8.936875 -17.9253125 8.936875 -16 9 C-15.195625 8.030625 -14.39125 7.06125 -13.5625 6.0625 C-11 3 -11 3 -9.01953125 2.6328125 C-7.00994457 2.68405879 -5.00373476 2.83840849 -3 3 C-2.01 2.67 -1.02 2.34 0 2 C0 1.34 0 0.68 0 0 Z " fill="#080706" transform="translate(82,38)"/>
<path d="M0 0 C3.125 -0.1875 3.125 -0.1875 6 0 C3 2 3 2 0 2 C0.33 4.31 0.66 6.62 1 9 C1.33 8.01 1.66 7.02 2 6 C2.66 6 3.32 6 4 6 C4 10.29 4 14.58 4 19 C2.35 19.66 0.7 20.32 -1 21 C-2.64826111 18.03312999 -3.44271087 15.34373475 -4 12 C-5.32 12.33 -6.64 12.66 -8 13 C-7.67 12.01 -7.34 11.02 -7 10 C-5.35 10 -3.7 10 -2 10 C-2.04125 8.906875 -2.0825 7.81375 -2.125 6.6875 C-2 3 -2 3 0 0 Z " fill="#54524F" transform="translate(52,30)"/>
<path d="M0 0 C5.62162162 4 5.62162162 4 6.875 7.3125 C6.91625 7.869375 6.9575 8.42625 7 9 C3.84669446 8.39305845 1.81111133 7.3583335 -0.75 5.4375 C-1.67039062 4.75494141 -1.67039062 4.75494141 -2.609375 4.05859375 C-3.06828125 3.70925781 -3.5271875 3.35992187 -4 3 C-4.433125 4.0828125 -4.433125 4.0828125 -4.875 5.1875 C-7.97831877 9.29483367 -12.19258137 11.26833977 -17 13 C-17.66 12.67 -18.32 12.34 -19 12 C-18.52949219 11.67386719 -18.05898438 11.34773438 -17.57421875 11.01171875 C-16.95160156 10.57472656 -16.32898437 10.13773438 -15.6875 9.6875 C-15.07261719 9.25824219 -14.45773438 8.82898437 -13.82421875 8.38671875 C-12.05354669 7.04070466 -10.53261991 5.60807197 -9 4 C-8.67 4.33 -8.34 4.66 -8 5 C-7.87625 4.195625 -7.7525 3.39125 -7.625 2.5625 C-7.41875 1.716875 -7.2125 0.87125 -7 0 C-4.18514379 -1.40742811 -2.99225935 -0.95208252 0 0 Z " fill="#8C7760" transform="translate(68,17)"/>
<path d="M0 0 C0 2.31 0 4.62 0 7 C-1.65 7.33 -3.3 7.66 -5 8 C-4.34 8 -3.68 8 -3 8 C-1.68 8 -0.36 8 1 8 C1 9.65 1 11.3 1 13 C0.67 11.68 0.34 10.36 0 9 C-1.98 9.99 -1.98 9.99 -4 11 C-4 13.31 -4 15.62 -4 18 C-5.32 18 -6.64 18 -8 18 C-8.46431642 9.95184867 -8.46431642 9.95184867 -6.75 6.4375 C-5 5 -5 5 -1 5 C-1 4.34 -1 3.68 -1 3 C-5.19162145 3.95264124 -6.7207791 4.63260408 -9.375 8.125 C-9.91125 9.07375 -10.4475 10.0225 -11 11 C-11.33 10.01 -11.66 9.02 -12 8 C-8.99109862 3.53223735 -5.90214639 0 0 0 Z " fill="#A3A09B" transform="translate(50,33)"/>
<path d="M0 0 C0.66 0 1.32 0 2 0 C1.93963048 2.71059145 1.8524809 5.41593977 1.75 8.125 C1.72873047 9.26582031 1.72873047 9.26582031 1.70703125 10.4296875 C1.48067254 15.68120967 0.48458896 18.83929676 -3 23 C-5.25 23.875 -5.25 23.875 -7 24 C-6.83628906 23.29488281 -6.67257813 22.58976562 -6.50390625 21.86328125 C-5.98300176 18.90341312 -5.90133268 16.18938727 -5.9375 13.1875 C-5.94652344 12.21167969 -5.95554687 11.23585938 -5.96484375 10.23046875 C-5.97644531 9.49441406 -5.98804688 8.75835937 -6 8 C-5.67 8 -5.34 8 -5 8 C-4.67 6.35 -4.34 4.7 -4 3 C-1.50689357 6.73965964 -1.9396739 8.29070641 -2.375 12.6875 C-2.48585938 13.86699219 -2.59671875 15.04648438 -2.7109375 16.26171875 C-2.80632813 17.16535156 -2.90171875 18.06898437 -3 19 C-1.05543072 14.86581409 -0.62971979 11.230003 -0.375 6.6875 C-0.26285156 4.80611328 -0.26285156 4.80611328 -0.1484375 2.88671875 C-0.09945313 1.93410156 -0.05046875 0.98148438 0 0 Z " fill="#918F8C" transform="translate(12,53)"/>
<path d="M0 0 C-1.0975223 2.99324263 -1.67682892 3.84610901 -4.625 5.25 C-5.40875 5.4975 -6.1925 5.745 -7 6 C-7.66 5.34 -8.32 4.68 -9 4 C-9.64026123 4.176521 -10.28052246 4.35304199 -10.94018555 4.53491211 C-13.8554659 5.33757101 -16.77147241 6.13756023 -19.6875 6.9375 C-20.69490234 7.21529297 -21.70230469 7.49308594 -22.74023438 7.77929688 C-23.71669922 8.04677734 -24.69316406 8.31425781 -25.69921875 8.58984375 C-26.59471436 8.83597412 -27.49020996 9.08210449 -28.4128418 9.33569336 C-30.92981875 9.98197951 -33.44747238 10.51524101 -36 11 C-33.53919582 8.06663888 -31.27970607 7.24335497 -27.6328125 6.2109375 C-26.58222656 5.90929688 -25.53164063 5.60765625 -24.44921875 5.296875 C-23.35222656 4.99265625 -22.25523438 4.6884375 -21.125 4.375 C-20.03574219 4.06304687 -18.94648437 3.75109375 -17.82421875 3.4296875 C-5.74639682 0 -5.74639682 0 0 0 Z " fill="#737372" transform="translate(88,44)"/>
<path d="M0 0 C0 0.99 0 1.98 0 3 C-0.61875 3.0825 -1.2375 3.165 -1.875 3.25 C-4.10649794 3.81469049 -4.10649794 3.81469049 -5.25 5.6875 C-6.1758912 8.54233119 -6.135557 11.01774607 -6 14 C-4.68 14 -3.36 14 -2 14 C-1.67 13.34 -1.34 12.68 -1 12 C-0.34 12.33 0.32 12.66 1 13 C-0.6875 15.5 -0.6875 15.5 -3 18 C-5.625 18.4375 -5.625 18.4375 -8 18 C-10 16 -10 16 -10.3125 12.75 C-9.90038809 7.80465703 -8.64688589 4.54395552 -5 1.125 C-3 0 -3 0 0 0 Z " fill="#0D0D0D" transform="translate(69,28)"/>
<path d="M0 0 C0.33 0 0.66 0 1 0 C1.66 4.29 2.32 8.58 3 13 C2.01 13.33 1.02 13.66 0 14 C0 13.01 0 12.02 0 11 C-1.65 11.33 -3.3 11.66 -5 12 C-5.33 13.65 -5.66 15.3 -6 17 C-6.66 16.67 -7.32 16.34 -8 16 C-7.01 11.71 -6.02 7.42 -5 3 C-4.67 3 -4.34 3 -4 3 C-4 4.98 -4 6.96 -4 9 C-1.82961523 8.20700294 -1.82961523 8.20700294 -1.3671875 6.15234375 C-1.20476563 5.42144531 -1.04234375 4.69054688 -0.875 3.9375 C-0.62363281 2.83728516 -0.62363281 2.83728516 -0.3671875 1.71484375 C-0.24601562 1.14894531 -0.12484375 0.58304688 0 0 Z " fill="#0C0C0C" transform="translate(34,44)"/>
<path d="M0 0 C0.66 0.33 1.32 0.66 2 1 C1.34 2.32 0.68 3.64 0 5 C0.9075 4.46375 1.815 3.9275 2.75 3.375 C6 2 6 2 8.375 2.8125 C8.91125 3.204375 9.4475 3.59625 10 4 C9.01 5.98 8.02 7.96 7 10 C6.67 9.01 6.34 8.02 6 7 C6.33 6.34 6.66 5.68 7 5 C2.714447 5.93546891 2.714447 5.93546891 -1 8 C-2.31981097 11.27841044 -2.73654691 14.48948756 -3 18 C-3.33 18 -3.66 18 -4 18 C-4.10864945 15.93867858 -4.18588321 13.87568679 -4.25 11.8125 C-4.29640625 10.66394531 -4.3428125 9.51539063 -4.390625 8.33203125 C-3.92924572 4.39646601 -2.70028512 2.82254213 0 0 Z " fill="#121010" transform="translate(30,34)"/>
<path d="M0 0 C0.33 0 0.66 0 1 0 C1 5.61 1 11.22 1 17 C-0.32 17.33 -1.64 17.66 -3 18 C-3.09038099 12.84828377 -2.84681133 8.08086796 -2 3 C-1.34 3 -0.68 3 0 3 C0 2.01 0 1.02 0 0 Z " fill="#0A0A0A" transform="translate(23,46)"/>
<path d="M0 0 C-0.33 1.32 -0.66 2.64 -1 4 C-2.32 4 -3.64 4 -5 4 C-10.88302204 6.12285632 -14.26921431 8.7206166 -17.1875 14.25 C-17.455625 14.8275 -17.72375 15.405 -18 16 C-18.66 14.02 -19.32 12.04 -20 10 C-17.25230513 7.25230513 -13.96067301 5.68437528 -10.5625 3.875 C-9.88123047 3.50246094 -9.19996094 3.12992188 -8.49804688 2.74609375 C-3.36295215 0 -3.36295215 0 0 0 Z " fill="#272324" transform="translate(35,29)"/>
<path d="M0 0 C1.45047396 2.90094791 0.45356803 4.55972596 -0.4375 7.625 C-0.72496094 8.62789062 -1.01242188 9.63078125 -1.30859375 10.6640625 C-1.65083984 11.82035156 -1.65083984 11.82035156 -2 13 C-3.65 13.33 -5.3 13.66 -7 14 C-5.82713348 4.82713348 -5.82713348 4.82713348 -2.375 1.375 C-1.59125 0.92125 -0.8075 0.4675 0 0 Z " fill="#3A3934" transform="translate(25,36)"/>
<path d="M0 0 C1.65 0.33 3.3 0.66 5 1 C5.33 3.64 5.66 6.28 6 9 C5.67 8.34 5.34 7.68 5 7 C-0.90642376 9.97729568 -0.90642376 9.97729568 -5 15 C-5 15.99 -5 16.98 -5 18 C-5.99 17.67 -6.98 17.34 -8 17 C-6.62968895 11.34746692 -2.32310587 8.4886459 2 5 C1.34 3.35 0.68 1.7 0 0 Z " fill="#4A4037" transform="translate(39,55)"/>
<path d="M0 0 C0.33 0.99 0.66 1.98 1 3 C1.66 3 2.32 3 3 3 C3.33 2.34 3.66 1.68 4 1 C3.91284983 2.93833996 3.80467036 4.8757429 3.6875 6.8125 C3.62949219 7.89144531 3.57148438 8.97039063 3.51171875 10.08203125 C2.96931493 13.17497517 2.44710376 14.13022903 0 16 C-0.19504458 13.89651926 -0.38078496 11.79217415 -0.5625 9.6875 C-0.66691406 8.51574219 -0.77132813 7.34398437 -0.87890625 6.13671875 C-1 3 -1 3 0 0 Z " fill="#121211" transform="translate(15,49)"/>
<path d="M0 0 C0.33 0 0.66 0 1 0 C1.17835515 4.54805635 0.99785435 7.8794254 -1 12 C2.12197478 10.6910428 2.12197478 10.6910428 4 8 C4.99 8 5.98 8 7 8 C5.90537324 11.1744176 5.01822665 11.98914157 2.0625 13.75 C-1 15 -1 15 -4 15 C-3.34728444 11.48294042 -2.48606976 8.10674923 -1.4375 4.6875 C-1.16808594 3.80449219 -0.89867187 2.92148438 -0.62109375 2.01171875 C-0.41613281 1.34785156 -0.21117187 0.68398437 0 0 Z " fill="#2D2929" transform="translate(6,65)"/>
<path d="M0 0 C1.65 0.33 3.3 0.66 5 1 C5 2.98 5 4.96 5 7 C4.01 7 3.02 7 2 7 C1.01 8.485 1.01 8.485 0 10 C-0.66 10 -1.32 10 -2 10 C-2.25 3.375 -2.25 3.375 0 0 Z " fill="#161515" transform="translate(66,32)"/>
<path d="M0 0 C7.57142857 4 7.57142857 4 10 8 C9.34 8.66 8.68 9.32 8 10 C8 9.01 8 8.02 8 7 C5.36 7.66 2.72 8.32 0 9 C0.33 8.34 0.66 7.68 1 7 C1.66 7 2.32 7 3 7 C2.67 5.68 2.34 4.36 2 3 C1.79375 3.61875 1.5875 4.2375 1.375 4.875 C-0.54775888 7.84653645 -2.66594527 8.13024659 -6 9 C-4.7934375 7.88625 -4.7934375 7.88625 -3.5625 6.75 C-1.23011409 4.24695171 -0.36465606 3.2819045 0 0 Z " fill="#0A0909" transform="translate(63,19)"/>
<path d="M0 0 C3.82097239 0.53069061 6.06171403 1.49701566 9 4 C7.35 4.66 5.7 5.32 4 6 C4 7.65 4 9.3 4 11 C3.01 11.495 3.01 11.495 2 12 C0.52966748 9.05933495 1 6.25525674 1 3 C0.67 2.01 0.34 1.02 0 0 Z " fill="#504947" transform="translate(57,11)"/>
<path d="M0 0 C-0.78375 0.9075 -1.5675 1.815 -2.375 2.75 C-4.30052496 5.05190236 -5.82205741 7.21577207 -7 10 C-7 8.02 -7 6.04 -7 4 C-10.34243648 5.89404734 -10.97997149 6.94091591 -12.25 10.6875 C-12.4975 11.780625 -12.745 12.87375 -13 14 C-13.33 14 -13.66 14 -14 14 C-14.48238394 9.94797487 -14.18904731 8.29216402 -11.9375 4.8125 C-9.04491656 1.67198084 -4.25342532 -2.12671266 0 0 Z " fill="#A3A19D" transform="translate(32,33)"/>
<path d="M0 0 C0 0.99 0 1.98 0 3 C-1.98 3.66 -3.96 4.32 -6 5 C-6 5.66 -6 6.32 -6 7 C-5.34 7.33 -4.68 7.66 -4 8 C-4.33 8.99 -4.66 9.98 -5 11 C-5.99 11.33 -6.98 11.66 -8 12 C-10 9 -10 9 -9.875 6.5 C-8.81205199 3.46300568 -7.74099148 2.61234793 -5 1 C-2 0 -2 0 0 0 Z " fill="#3B3A36" transform="translate(94,19)"/>
<path d="M0 0 C0.33 0 0.66 0 1 0 C1.05410136 3.06273831 1.09372225 6.12451452 1.125 9.1875 C1.14175781 10.05181641 1.15851562 10.91613281 1.17578125 11.80664062 C1.23927831 20.09300742 1.23927831 20.09300742 -1 24 C-1.66 24.33 -2.32 24.66 -3 25 C-2.01 16.75 -1.02 8.5 0 0 Z " fill="#121210" transform="translate(11,48)"/>
<path d="M0 0 C0.33 0.99 0.66 1.98 1 3 C2.32 2.34 3.64 1.68 5 1 C4.484375 1.556875 3.96875 2.11375 3.4375 2.6875 C1.73610753 4.91984933 1.73610753 4.91984933 2.1875 7.625 C2.85676551 10.15020365 2.85676551 10.15020365 5 12 C4.01 13.485 4.01 13.485 3 15 C3 14.01 3 13.02 3 12 C2.360625 11.855625 1.72125 11.71125 1.0625 11.5625 C-1 11 -1 11 -2 10 C-2.35897436 3.53846154 -2.35897436 3.53846154 0 0 Z " fill="#C0B5A3" transform="translate(6,44)"/>
<path d="M0 0 C0.33 0 0.66 0 1 0 C1 1.98 1 3.96 1 6 C0.34 6 -0.32 6 -1 6 C-0.67 8.31 -0.34 10.62 0 13 C-5.75 16 -5.75 16 -8 16 C-8.33 17.32 -8.66 18.64 -9 20 C-9 16.7 -9 13.4 -9 10 C-6 11 -6 11 -5 13 C-4.34 12.67 -3.68 12.34 -3 12 C-2.60806489 9.97304618 -2.60806489 9.97304618 -2.5 7.625 C-2.27058537 4.10348536 -2.04707136 3.07060704 0 0 Z " fill="#A09C97" transform="translate(58,37)"/>
<path d="M0 0 C-0.56589844 0.48210938 -1.13179687 0.96421875 -1.71484375 1.4609375 C-2.44832031 2.09257813 -3.18179688 2.72421875 -3.9375 3.375 C-4.66839844 4.00148438 -5.39929687 4.62796875 -6.15234375 5.2734375 C-8.08380906 6.87747714 -8.08380906 6.87747714 -9 9 C-9.99 9 -10.98 9 -12 9 C-11.92014753 6.20516353 -11.51996787 4.51859953 -9.515625 2.51953125 C-4.22976499 -1.51263119 -4.22976499 -1.51263119 0 0 Z " fill="#B29674" transform="translate(42,60)"/>
<path d="M0 0 C-0.66 3.63 -1.32 7.26 -2 11 C-2.99 11.33 -3.98 11.66 -5 12 C-6.38461538 4 -6.38461538 4 -5 1 C-2 0 -2 0 0 0 Z " fill="#52524F" transform="translate(35,41)"/>
<path d="M0 0 C1.5625 1.125 1.5625 1.125 3 3 C2.89491459 7.83392886 1.39077689 10.60922311 -2 14 C-4.25 14.8125 -4.25 14.8125 -6 15 C-5.360625 14.360625 -4.72125 13.72125 -4.0625 13.0625 C-1.65281077 9.4844766 -1.41985607 7.10265897 -1.17578125 2.890625 C-1 1 -1 1 0 0 Z " fill="#0D0D0C" transform="translate(81,26)"/>
<path d="M0 0 C0.66 0 1.32 0 2 0 C2 4.29 2 8.58 2 13 C1.01 13.33 0.02 13.66 -1 14 C-1.02705729 12.22925083 -1.04642195 10.45838289 -1.0625 8.6875 C-1.07410156 7.70136719 -1.08570313 6.71523438 -1.09765625 5.69921875 C-1 3 -1 3 0 0 Z " fill="#121211" transform="translate(54,36)"/>
<path d="M0 0 C2.36660382 2.36660382 2.30990526 3.13963758 2.5625 6.375 C2.75288587 8.69848475 2.95499815 10.83076771 3.5546875 13.0859375 C4.20110139 15.86438318 3.56469363 18.23927557 3 21 C2.34 21 1.68 21 1 21 C0.67 14.07 0.34 7.14 0 0 Z " fill="#76736F" transform="translate(24,41)"/>
<path d="M0 0 C-0.33 2.64 -0.66 5.28 -1 8 C-1.33 8 -1.66 8 -2 8 C-2 6.02 -2 4.04 -2 2 C-3.65 2.33 -5.3 2.66 -7 3 C-7.12375 4.258125 -7.2475 5.51625 -7.375 6.8125 C-7.69868059 10.10325263 -8.06604999 11.09907498 -10 14 C-9.98726675 10.25005643 -9.84273204 6.6626431 -9 3 C-5.75488732 0.53089253 -4.04192629 0 0 0 Z " fill="#949493" transform="translate(37,39)"/>
<path d="M0 0 C0.33 0.99 0.66 1.98 1 3 C-7.261959 8.55580866 -7.261959 8.55580866 -12 9 C-10.33333333 7.33333333 -8.66666667 5.66666667 -7 4 C-6.29875 3.236875 -5.5975 2.47375 -4.875 1.6875 C-3 0 -3 0 0 0 Z " fill="#C4C0B8" transform="translate(61,21)"/>
<path d="M0 0 C2 4 2 4 1.125 7.75 C0.75375 8.8225 0.3825 9.895 0 11 C-0.66 11 -1.32 11 -2 11 C-2 11.66 -2 12.32 -2 13 C-3.98 12.34 -5.96 11.68 -8 11 C-8 10.34 -8 9.68 -8 9 C-5.525 9.495 -5.525 9.495 -3 10 C-2.01 6.7 -1.02 3.4 0 0 Z " fill="#0E0B0A" transform="translate(97,15)"/>
<path d="M0 0 C0 0.99 0 1.98 0 3 C-0.61359375 3.08121094 -1.2271875 3.16242187 -1.859375 3.24609375 C-4.13830628 3.81193356 -4.13830628 3.81193356 -5.265625 5.84765625 C-5.75289062 6.94400391 -5.75289062 6.94400391 -6.25 8.0625 C-6.58515625 8.79597656 -6.9203125 9.52945313 -7.265625 10.28515625 C-7.50796875 10.85105469 -7.7503125 11.41695312 -8 12 C-8.66 11.01 -9.32 10.02 -10 9 C-6 0 -6 0 0 0 Z " fill="#393935" transform="translate(69,28)"/>
<path d="M0 0 C0.721875 0.12375 1.44375 0.2475 2.1875 0.375 C2.1875 1.035 2.1875 1.695 2.1875 2.375 C1.40375 2.519375 0.62 2.66375 -0.1875 2.8125 C-2.96406763 4.09036857 -2.96406763 4.09036857 -3.58984375 6.51171875 C-4.08085609 8.79474691 -4.49362401 11.06195927 -4.8125 13.375 C-6.01878008 11.04285852 -6.9779738 8.87857861 -7.8125 6.375 C-3.91006098 0.52134146 -3.91006098 0.52134146 0 0 Z " fill="#31312F" transform="translate(46.8125,35.625)"/>
<path d="M0 0 C-0.33 2.31 -0.66 4.62 -1 7 C-2.32 7 -3.64 7 -5 7 C-6.77409808 8.92022703 -6.77409808 8.92022703 -8 11 C-7.67 9.35 -7.34 7.7 -7 6 C-5.35 5.67 -3.7 5.34 -2 5 C-2 4.01 -2 3.02 -2 2 C-2.94875 2.474375 -3.8975 2.94875 -4.875 3.4375 C-6.58333333 4.29166667 -8.29166667 5.14583333 -10 6 C-8.94901234 3.13367003 -8.33137046 2.16993357 -5.5625 0.75 C-3 0 -3 0 0 0 Z " fill="#A9A6A0" transform="translate(71,26)"/>
<path d="M0 0 C-0.11362262 1.4800841 -0.24122908 2.95910074 -0.375 4.4375 C-0.44460937 5.26121094 -0.51421875 6.08492187 -0.5859375 6.93359375 C-0.72257812 7.61550781 -0.85921875 8.29742187 -1 9 C-1.99 9.495 -1.99 9.495 -3 10 C-3 9.01 -3 8.02 -3 7 C-3.99 6.67 -4.98 6.34 -6 6 C-4.68 6 -3.36 6 -2 6 C-2 5.01 -2 4.02 -2 3 C-3.65 3.33 -5.3 3.66 -7 4 C-6.34 3.67 -5.68 3.34 -5 3 C-5 2.34 -5 1.68 -5 1 C-3 0 -3 0 0 0 Z " fill="#AEABA4" transform="translate(96,16)"/>
<path d="M0 0 C0.33 0.66 0.66 1.32 1 2 C1.66 2.33 2.32 2.66 3 3 C3.33 3.66 3.66 4.32 4 5 C4 4.34 4 3.68 4 3 C4.66 3 5.32 3 6 3 C6.33 3.99 6.66 4.98 7 6 C9.01508358 6.73323796 9.01508358 6.73323796 11 7 C11 7.66 11 8.32 11 9 C7.18752628 8.70673279 4.6706646 8.49869932 1.5625 6.1875 C0 4 0 4 0 0 Z " fill="#8D8479" transform="translate(29,67)"/>
<path d="M0 0 C2.97 0.495 2.97 0.495 6 1 C5.67 2.32 5.34 3.64 5 5 C4.195625 5.12375 3.39125 5.2475 2.5625 5.375 C1.2940625 5.684375 1.2940625 5.684375 0 6 C-0.33 6.66 -0.66 7.32 -1 8 C-0.67 5.36 -0.34 2.72 0 0 Z " fill="#454545" transform="translate(85,32)"/>
<path d="M0 0 C-0.33 1.32 -0.66 2.64 -1 4 C-1.66 4 -2.32 4 -3 4 C-3 3.34 -3 2.68 -3 2 C-4.65 2.33 -6.3 2.66 -8 3 C-8 3.66 -8 4.32 -8 5 C-9.32 4.34 -10.64 3.68 -12 3 C-11.34 3 -10.68 3 -10 3 C-10 2.34 -10 1.68 -10 1 C-8.71073008 0.63720544 -7.41846728 0.28503302 -6.125 -0.0625 C-5.40570313 -0.25972656 -4.68640625 -0.45695313 -3.9453125 -0.66015625 C-2 -1 -2 -1 0 0 Z " fill="#4D4547" transform="translate(99,14)"/>
<path d="M0 0 C-1.0975223 2.99324263 -1.67682892 3.84610901 -4.625 5.25 C-5.40875 5.4975 -6.1925 5.745 -7 6 C-7 5.01 -7 4.02 -7 3 C-7.66 2.34 -8.32 1.68 -9 1 C-5.846632 0.29925156 -3.27275026 0 0 0 Z " fill="#585653" transform="translate(88,44)"/>
<path d="M0 0 C0.99 0.33 1.98 0.66 3 1 C3.765625 2.7421875 3.765625 2.7421875 4.25 4.875 C4.50523438 5.92300781 4.50523438 5.92300781 4.765625 6.9921875 C5 9 5 9 4 12 C3.34 12 2.68 12 2 12 C1.34 8.04 0.68 4.08 0 0 Z " fill="#96938E" transform="translate(14,40)"/>
<path d="M0 0 C0.99 0.33 1.98 0.66 3 1 C2.01 1.495 2.01 1.495 1 2 C1.66 2.66 2.32 3.32 3 4 C0.66666667 6.33333333 -1.66666667 8.66666667 -4 11 C-3.71890887 9.35232753 -3.42481474 7.70686855 -3.125 6.0625 C-2.96257813 5.14597656 -2.80015625 4.22945312 -2.6328125 3.28515625 C-2.42398438 2.53105469 -2.21515625 1.77695312 -2 1 C-1.34 0.67 -0.68 0.34 0 0 Z " fill="#121110" transform="translate(52,52)"/>
<path d="M0 0 C0.33 0 0.66 0 1 0 C1 2.97 1 5.94 1 9 C-0.32 8.34 -1.64 7.68 -3 7 C-2.25 2.25 -2.25 2.25 0 0 Z " fill="#5A5B5A" transform="translate(10,46)"/>
<path d="M0 0 C2 2 2 2 2.1953125 3.9453125 C2.13020833 5.96354167 2.06510417 7.98177083 2 10 C1.01 10 0.02 10 -1 10 C-1.125 2.25 -1.125 2.25 0 0 Z " fill="#1E1E1D" transform="translate(73,29)"/>
<path d="M0 0 C0 1.32 0 2.64 0 4 C-0.598125 4.0825 -1.19625 4.165 -1.8125 4.25 C-4.599343 5.20548903 -5.32876986 6.6450848 -7 9 C-7.66 9 -8.32 9 -9 9 C-7.45665977 5.21180126 -4.44676575 0 0 0 Z " fill="#534B4E" transform="translate(48,29)"/>
<path d="M0 0 C2.5654594 2.5654594 2.54046087 4.47686668 3 8 C3.99 8.33 4.98 8.66 6 9 C4.34385343 9.38218767 2.67542976 9.71395102 1 10 C0 9 0 9 -0.09765625 6.93359375 C-0.08605469 6.10988281 -0.07445312 5.28617188 -0.0625 4.4375 C-0.05347656 3.61121094 -0.04445312 2.78492188 -0.03515625 1.93359375 C-0.02355469 1.29550781 -0.01195312 0.65742187 0 0 Z " fill="#10100F" transform="translate(39,43)"/>
<path d="M0 0 C1.65 1.65 3.3 3.3 5 5 C4.34 5.66 3.68 6.32 3 7 C3 6.01 3 5.02 3 4 C0.36 4.66 -2.28 5.32 -5 6 C-3.35 4.02 -1.7 2.04 0 0 Z " fill="#161515" transform="translate(68,22)"/>
<path d="M0 0 C0.33 0 0.66 0 1 0 C1 2.97 1 5.94 1 9 C-0.32 9.33 -1.64 9.66 -3 10 C-3 7.36 -3 4.72 -3 2 C-2.34 3.32 -1.68 4.64 -1 6 C-0.67 4.02 -0.34 2.04 0 0 Z " fill="#2E2E2E" transform="translate(23,54)"/>
<path d="M0 0 C1.5 1.375 1.5 1.375 3 3 C3 3.66 3 4.32 3 5 C0.36 5.66 -2.28 6.32 -5 7 C-4.67 5.35 -4.34 3.7 -4 2 C-2.68 2.66 -1.36 3.32 0 4 C0 2.68 0 1.36 0 0 Z " fill="#908E8B" transform="translate(37,53)"/>
<path d="M0 0 C0.556875 0.28875 1.11375 0.5775 1.6875 0.875 C4.08494645 2.0413253 6.51596939 3.0339881 9 4 C9 4.33 9 4.66 9 5 C7.88625 4.79375 6.7725 4.5875 5.625 4.375 C4.42875 4.25125 3.2325 4.1275 2 4 C1.34 4.66 0.68 5.32 0 6 C0 4.02 0 2.04 0 0 Z " fill="#7C7A77" transform="translate(57,43)"/>
<path d="M0 0 C2.09749995 2.35968744 2.96905704 3.54616994 3.1875 6.75 C3.125625 7.4925 3.06375 8.235 3 9 C2.01 9.33 1.02 9.66 0 10 C-1.125 2.25 -1.125 2.25 0 0 Z " fill="#1F1A1A" transform="translate(95,26)"/>
<path d="M0 0 C0.66 0.33 1.32 0.66 2 1 C0.02 1.99 0.02 1.99 -2 3 C-2 4.98 -2 6.96 -2 9 C-2.99 8.67 -3.98 8.34 -5 8 C-4.64950425 4.75791433 -4.43778819 3.38472296 -1.9375 1.1875 C-1.298125 0.795625 -0.65875 0.40375 0 0 Z " fill="#0C0809" transform="translate(40,65)"/>
<path d="M0 0 C0.99 0.33 1.98 0.66 3 1 C3 1.66 3 2.32 3 3 C0.1875 4.5625 0.1875 4.5625 -3 6 C-3.99 5.67 -4.98 5.34 -6 5 C-4.68 4.34 -3.36 3.68 -2 3 C-2 2.34 -2 1.68 -2 1 C-1.34 0.67 -0.68 0.34 0 0 Z " fill="#3D3D3C" transform="translate(57,53)"/>
<path d="M0 0 C-0.33 0.66 -0.66 1.32 -1 2 C-4.23097953 2.86159454 -6.22486274 3.30597523 -9.375 2.0625 C-9.91125 1.711875 -10.4475 1.36125 -11 1 C-3.375 -1.125 -3.375 -1.125 0 0 Z " fill="#191818" transform="translate(82,48)"/>
<path d="M0 0 C0.33 0.66 0.66 1.32 1 2 C1.66 2 2.32 2 3 2 C3 3.65 3 5.3 3 7 C1.68 7 0.36 7 -1 7 C-0.67 4.69 -0.34 2.38 0 0 Z " fill="#898885" transform="translate(43,44)"/>
<path d="M0 0 C0.33 0.66 0.66 1.32 1 2 C0.67 2.99 0.34 3.98 0 5 C-0.66 5 -1.32 5 -2 5 C-2.33 5.99 -2.66 6.98 -3 8 C-3.66 6.68 -4.32 5.36 -5 4 C-3.35 2.68 -1.7 1.36 0 0 Z " fill="#4D4B46" transform="translate(25,36)"/>
<path d="M0 0 C3 2 3 2 3.6875 4.125 C3.790625 4.74375 3.89375 5.3625 4 6 C1.11424181 5.60196439 0.17810487 5.20990931 -1.75 2.9375 C-2.1625 2.298125 -2.575 1.65875 -3 1 C-2.01 0.67 -1.02 0.34 0 0 Z " fill="#CDB99E" transform="translate(71,20)"/>
<path d="M0 0 C-0.33 2.64 -0.66 5.28 -1 8 C-1.33 8 -1.66 8 -2 8 C-2 6.35 -2 4.7 -2 3 C-3.32 2.67 -4.64 2.34 -6 2 C-2.25 0 -2.25 0 0 0 Z " fill="#8C8A87" transform="translate(46,53)"/>
<path d="M0 0 C2.125 0.9375 2.125 0.9375 4 2 C3.01 3.98 2.02 5.96 1 8 C0 5 0 5 0 3 C-0.66 2.34 -1.32 1.68 -2 1 C-1.34 0.67 -0.68 0.34 0 0 Z " fill="#272321" transform="translate(36,36)"/>
<path d="M0 0 C0 2.64 0 5.28 0 8 C-0.33 6.68 -0.66 5.36 -1 4 C-1.66 4 -2.32 4 -3 4 C-3.33 4.99 -3.66 5.98 -4 7 C-4 5.02 -4 3.04 -4 1 C-1 0 -1 0 0 0 Z " fill="#535350" transform="translate(57,32)"/>
<path d="M0 0 C0.66 0 1.32 0 2 0 C1.67 1.98 1.34 3.96 1 6 C0.01 6 -0.98 6 -2 6 C-1.125 1.125 -1.125 1.125 0 0 Z " fill="#DABD97" transform="translate(32,63)"/>
<path d="M0 0 C1.5625 1.25 1.5625 1.25 3 3 C2.6875 5.1875 2.6875 5.1875 2 7 C1.67 6.34 1.34 5.68 1 5 C0.34 5.99 -0.32 6.98 -1 8 C-1.04241723 5.66705225 -1.04092937 3.33297433 -1 1 C-0.67 0.67 -0.34 0.34 0 0 Z " fill="#464643" transform="translate(81,26)"/>
<path d="M0 0 C-0.33 2.64 -0.66 5.28 -1 8 C-1.33 8 -1.66 8 -2 8 C-2 6.02 -2 4.04 -2 2 C-3.32 2.33 -4.64 2.66 -6 3 C-6 2.34 -6 1.68 -6 1 C-3 0 -3 0 0 0 Z " fill="#A3A19D" transform="translate(37,39)"/>
</svg>
