<?xml version="1.0" encoding="UTF-8"?>
<svg version="1.1" xmlns="http://www.w3.org/2000/svg" width="1158" height="900">
<path d="M0 0 C1.19882812 0.19867676 2.39765625 0.39735352 3.6328125 0.60205078 C59.87133943 10.08165096 119.31408446 31.91176881 162.89453125 69.81469727 C164.97152088 71.23838411 164.97152088 71.23838411 167.56347656 70.81958008 C171.12577403 69.6213203 173.82108276 67.40658267 176.75 65.125 C189.79607832 55.28758229 203.53445809 46.8775142 217.91113281 39.13476562 C219.8053313 38.1057527 221.68195039 37.0517821 223.5546875 35.984375 C255.33094915 18.25884129 291.06571661 7.54420069 326.75 1.25 C327.8726123 1.05116211 328.99522461 0.85232422 330.15185547 0.64746094 C349.2890465 -2.56179618 368.18106445 -3.37388049 387.5625 -3.3125 C388.75621216 -3.31067719 389.94992432 -3.30885437 391.17980957 -3.30697632 C408.30074592 -3.26292711 425.09037489 -2.92134936 442 0 C443.04752441 0.17160645 444.09504883 0.34321289 445.17431641 0.52001953 C505.23645341 10.51697495 563.85982959 35.03788454 611 74 C611.79784912 74.65790527 611.79784912 74.65790527 612.61181641 75.32910156 C623.91360819 84.68028054 634.68552344 94.50525478 645.0625 104.875 C646.4556543 106.24978516 646.4556543 106.24978516 647.87695312 107.65234375 C654.02693336 113.78937666 659.59301789 120.2053136 665 127 C665.95260841 128.13912995 666.90894912 129.27516312 667.87109375 130.40625 C682.26821204 147.61923462 694.73649944 167.07101431 705 187 C705.34144043 187.65403809 705.68288086 188.30807617 706.03466797 188.98193359 C708.09137089 192.93351016 710.07483387 196.91457563 712.00244141 200.93066406 C712.66819288 202.31169919 713.34238975 203.68869439 714.02490234 205.06152344 C734.27448914 245.93760884 746.01030411 294.42669631 746.203125 339.9375 C746.21371445 341.60286049 746.21371445 341.60286049 746.22451782 343.30186462 C746.44998023 389.16183877 746.44998023 389.16183877 743 409 C742.80132324 410.19882812 742.60264648 411.39765625 742.39794922 412.6328125 C731.04563188 479.98139174 701.96276235 543.2368741 656 594 C655.49758789 594.55880859 654.99517578 595.11761719 654.47753906 595.69335938 C644.47326923 606.79764326 634.25536762 617.68539477 622.515625 626.9765625 C620.24702481 628.80130613 618.1274226 630.70246396 616 632.6875 C593.56406568 652.76806043 566.14498428 668.2302825 539 681 C538.27135742 681.34353516 537.54271484 681.68707031 536.79199219 682.04101562 C453.13893214 720.90150297 354.10420422 724.2651728 267.38012695 693.56079102 C235.14326157 681.72934853 204.25163026 665.78785733 176.77026367 645.13696289 C171.80446667 641.0712039 171.80446667 641.0712039 166 639 C163.00555591 640.50012525 160.48986089 642.54847615 157.875 644.625 C156.26126999 645.84702712 154.64396917 647.06435078 153.0234375 648.27734375 C152.19295898 648.90108887 151.36248047 649.52483398 150.50683594 650.16748047 C95.59065853 690.31169819 24.8322535 712.72704787 -43 714 C-43.80888672 714.02046387 -44.61777344 714.04092773 -45.45117188 714.06201172 C-102.86778954 715.38482412 -159.3987029 703.10386796 -211 678 C-212.42261468 677.32693499 -213.84574269 676.65495323 -215.26953125 675.984375 C-233.19320894 667.42227928 -250.07631509 656.84079549 -266 645 C-266.58040039 644.57122559 -267.16080078 644.14245117 -267.75878906 643.70068359 C-288.79362017 628.09203503 -309.75046232 610.08892871 -326.0078125 589.484375 C-327.83861472 587.20125694 -329.75337611 585.07496458 -331.75 582.9375 C-338.14734294 575.81376554 -343.51729732 567.83218847 -349 560 C-349.45165527 559.35756348 -349.90331055 558.71512695 -350.36865234 558.05322266 C-388.05894487 504.10835653 -411.92315044 436.14386387 -412.203125 370.0625 C-412.21018463 368.95225967 -412.21724426 367.84201935 -412.22451782 366.69813538 C-412.44998023 320.83816123 -412.44998023 320.83816123 -409 301 C-408.80132324 299.80117188 -408.60264648 298.60234375 -408.39794922 297.3671875 C-396.88105888 229.04226506 -366.86662665 164.40517601 -319.41796875 113.6015625 C-317.3701333 111.39823712 -315.39123109 109.16118417 -313.4375 106.875 C-307.5461542 100.09572409 -301.11770231 93.77657911 -294.28515625 87.94921875 C-292.52699229 86.44951992 -290.7884375 84.92680984 -289.05859375 83.39453125 C-238.14515392 38.52616284 -174.59747642 11.03692049 -108 0 C-106.96875 -0.17934082 -105.9375 -0.35868164 -104.875 -0.54345703 C-71.45450554 -6.13761227 -33.36254031 -5.80195428 0 0 Z " fill="#F79D1A" transform="translate(412,3)"/>
<path d="M0 0 C1.19882812 0.19867676 2.39765625 0.39735352 3.6328125 0.60205078 C59.01126394 9.93667612 110.30905912 31.38740519 156 64 C156.66386719 64.47324707 157.32773437 64.94649414 158.01171875 65.43408203 C161.02972297 67.59365718 164.02942224 69.77562 167 72 C165.44836578 76.12811327 162.45549706 78.37835537 159.125 81.0625 C157.93465549 82.04761838 156.74588665 83.03464337 155.55859375 84.0234375 C154.95901855 84.52198242 154.35944336 85.02052734 153.74169922 85.53417969 C140.58238772 96.60910347 127.68459641 108.84862721 117.0546875 122.38671875 C114.85901197 125.17931747 112.56055923 127.8643869 110.25 130.5625 C75.23185342 172.75693856 51.15195127 224.74625388 39.60400391 278.20996094 C39.04238755 280.80420173 38.45189289 283.39015128 37.85546875 285.9765625 C27.93333881 330.32712412 27.84140886 382.37656067 38.44970703 426.69140625 C39.03406571 429.14291274 39.57908871 431.60130226 40.12109375 434.0625 C50.91350921 482.22297832 71.15627453 528.55127671 101 568 C101.45681152 568.60553711 101.91362305 569.21107422 102.38427734 569.83496094 C120.58707247 593.7999312 141.74828434 619.16552289 167 636 C165.89779369 639.30661894 165.34737382 639.75850671 162.6328125 641.71484375 C161.92189453 642.23006592 161.21097656 642.74528809 160.47851562 643.27612305 C159.70185547 643.82437744 158.92519531 644.37263184 158.125 644.9375 C157.31998047 645.51089111 156.51496094 646.08428223 155.68554688 646.67504883 C97.69779047 687.56629882 28.2703617 712.66252772 -43 714 C-43.80888672 714.02046387 -44.61777344 714.04092773 -45.45117188 714.06201172 C-102.86778954 715.38482412 -159.3987029 703.10386796 -211 678 C-212.42261468 677.32693499 -213.84574269 676.65495323 -215.26953125 675.984375 C-233.19320894 667.42227928 -250.07631509 656.84079549 -266 645 C-266.58040039 644.57122559 -267.16080078 644.14245117 -267.75878906 643.70068359 C-288.79362017 628.09203503 -309.75046232 610.08892871 -326.0078125 589.484375 C-327.83861472 587.20125694 -329.75337611 585.07496458 -331.75 582.9375 C-338.14734294 575.81376554 -343.51729732 567.83218847 -349 560 C-349.45165527 559.35756348 -349.90331055 558.71512695 -350.36865234 558.05322266 C-388.05894487 504.10835653 -411.92315044 436.14386387 -412.203125 370.0625 C-412.21018463 368.95225967 -412.21724426 367.84201935 -412.22451782 366.69813538 C-412.44998023 320.83816123 -412.44998023 320.83816123 -409 301 C-408.80132324 299.80117188 -408.60264648 298.60234375 -408.39794922 297.3671875 C-396.88105888 229.04226506 -366.86662665 164.40517601 -319.41796875 113.6015625 C-317.3701333 111.39823712 -315.39123109 109.16118417 -313.4375 106.875 C-307.5461542 100.09572409 -301.11770231 93.77657911 -294.28515625 87.94921875 C-292.52699229 86.44951992 -290.7884375 84.92680984 -289.05859375 83.39453125 C-238.14515392 38.52616284 -174.59747642 11.03692049 -108 0 C-106.96875 -0.17934082 -105.9375 -0.35868164 -104.875 -0.54345703 C-71.45450554 -6.13761227 -33.36254031 -5.80195428 0 0 Z " fill="#EB001A" transform="translate(412,3)"/>
<path d="M0 0 C4.52106541 1.42987992 7.46172346 3.95904646 10.8125 7.1875 C11.79715528 8.11957022 12.78285283 9.05054046 13.76953125 9.98046875 C14.5440564 10.71354248 14.5440564 10.71354248 15.33422852 11.46142578 C17.11031558 13.10189195 18.93216758 14.67790131 20.765625 16.25390625 C25.69564266 20.5451411 30.31946342 25.12759276 34.9375 29.75 C36.2685376 31.08224609 36.2685376 31.08224609 37.62646484 32.44140625 C43.5048554 38.3751816 48.88631138 44.39698862 54 51 C55.60078117 52.87789119 57.20516285 54.75271717 58.8125 56.625 C97.53748437 103.13089313 122.438829 161.75421292 133 221 C133.31759277 222.77818115 133.31759277 222.77818115 133.64160156 224.59228516 C139.68153474 260.32935411 139.81323109 299.23048385 134 335 C133.88253418 335.75667969 133.76506836 336.51335937 133.64404297 337.29296875 C133.02712089 341.17948806 132.29272253 345.0299529 131.45654297 348.875 C130.91814603 351.38099304 130.41526174 353.89333929 129.91015625 356.40625 C127.35410069 368.89706444 124.15089064 380.94983867 120 393 C119.52071045 394.41853271 119.52071045 394.41853271 119.03173828 395.86572266 C99.50824053 453.39743599 65.52231413 507.36862357 19.58154297 547.61425781 C18.44627973 548.60897133 17.31562216 549.60895059 16.18798828 550.61230469 C14.29949317 552.29193622 12.40152621 553.96014443 10.5 555.625 C9.91210693 556.14674805 9.32421387 556.66849609 8.71850586 557.20605469 C5.88405008 559.65539197 3.74481753 561.47080013 0 562 C-2.15625 560.734375 -2.15625 560.734375 -4.5 558.75 C-5.3765625 558.01136719 -6.253125 557.27273438 -7.15625 556.51171875 C-11.17757621 552.95991552 -15.1483848 549.35968018 -19.07421875 545.703125 C-21.61516016 543.35555296 -24.20169929 541.08125551 -26.8125 538.8125 C-37.49174805 529.21840135 -47.19065576 518.31558016 -56 507 C-56.47614746 506.39639648 -56.95229492 505.79279297 -57.44287109 505.17089844 C-69.90607269 489.35236868 -80.92129754 472.83561163 -90.74023438 455.25244141 C-91.53929249 453.82373789 -92.34455883 452.39847466 -93.15820312 450.97802734 C-105.28651379 429.78556916 -113.92796061 406.30796144 -121 383 C-121.42104004 381.61506348 -121.42104004 381.61506348 -121.85058594 380.20214844 C-125.7723132 367.08815114 -128.5043469 353.93077583 -130.61816406 340.41308594 C-130.93018245 338.44122548 -131.26974172 336.4737399 -131.6171875 334.5078125 C-132.16265563 331.34409732 -132.60221524 328.18582971 -133 325 C-133.09023438 324.29214355 -133.18046875 323.58428711 -133.2734375 322.85498047 C-144.40798206 230.78809594 -118.17263231 139.3082543 -58 58 C-54.145016 53.20480435 -50.10385901 48.58245151 -46 44 C-45.1440625 43.03320312 -44.288125 42.06640625 -43.40625 41.0703125 C-32.11319378 28.51869278 -20.33252612 16.38722945 -7 6 C-4.6461034 4.02256138 -2.3232447 2.01347874 0 0 Z " fill="#FE5900" transform="translate(578,77)"/>
<path d="M0 0 C1.63636275 1.82887601 2.61186722 3.54255725 3.59375 5.78125 C4.0784375 5.33394531 4.563125 4.88664063 5.0625 4.42578125 C16.34239914 -5.74782009 26.22463423 -10.20204444 41.59375 -10.21875 C51.96217928 -9.52668251 60.72745638 -6.62421355 67.96875 1.03125 C74.138065 8.49674431 76.72452493 16.07038704 76.70727539 25.66113281 C76.70742142 26.34446686 76.70756744 27.0278009 76.7077179 27.73184204 C76.70702315 29.98271904 76.69925132 32.23351252 76.69140625 34.484375 C76.68954051 36.0480749 76.68811734 37.61177538 76.68711853 39.17547607 C76.68330562 43.28541689 76.6734858 47.39532221 76.66241455 51.50524902 C76.65217407 55.70141113 76.64761526 59.89757899 76.64257812 64.09375 C76.63186242 72.32293475 76.61427555 80.55208387 76.59375 88.78125 C68.67375 88.78125 60.75375 88.78125 52.59375 88.78125 C52.5844043 86.95021729 52.57505859 85.11918457 52.56542969 83.23266602 C52.52977505 77.15362523 52.47589704 71.07495466 52.40984726 64.996171 C52.37049382 61.31391798 52.33824659 57.63189974 52.32275391 53.94946289 C52.30750632 50.3894734 52.27292046 46.83012991 52.22544098 43.27042961 C52.2035863 41.26498652 52.20128325 39.25936073 52.19940186 37.25379944 C52.06461825 28.77382511 51.33483251 21.62078205 45.21875 15.34375 C39.9107794 12.18424369 34.75315602 10.912198 28.59375 11.78125 C21.85373919 13.59230634 17.38149132 15.86290419 13.59375 21.78125 C11.93393679 25.99099027 11.33107462 29.54950528 11.27490234 34.06201172 C11.25503265 35.2828244 11.23516296 36.50363708 11.21469116 37.76144409 C11.20313995 39.06477692 11.19158875 40.36810974 11.1796875 41.7109375 C11.1609585 43.07000888 11.14138381 44.42906885 11.1210022 45.78811646 C11.06985759 49.34884892 11.03013796 52.909619 10.99285889 56.47052002 C10.9527078 60.11064832 10.90166636 63.7506225 10.8515625 67.390625 C10.75501278 74.5207261 10.67154926 81.65091605 10.59375 88.78125 C3.33375 88.78125 -3.92625 88.78125 -11.40625 88.78125 C-11.42083252 87.07662598 -11.43541504 85.37200195 -11.45043945 83.61572266 C-11.50234071 77.94784206 -11.56769186 72.28022016 -11.64196491 66.61258888 C-11.68646103 63.18038969 -11.72576085 59.74830354 -11.75268555 56.31591797 C-11.78396427 52.35879927 -11.83874342 48.40216431 -11.89453125 44.4453125 C-11.90092117 43.22824615 -11.9073111 42.01117981 -11.91389465 40.75723267 C-12.03621559 33.58607054 -12.96728489 27.52173934 -15.40625 20.78125 C-15.695 19.79125 -15.98375 18.80125 -16.28125 17.78125 C-17.85531616 14.98291016 -19.36793166 14.67893496 -22.40625 13.78125 C-23.334375 13.41 -24.2625 13.03875 -25.21875 12.65625 C-33.09622784 10.4938051 -39.3204764 11.95518397 -46.40625 15.78125 C-51.25545387 20.13309963 -53.08690322 26.50813178 -53.7071228 32.86502075 C-53.84706693 36.43435929 -53.89962217 39.99437447 -53.91796875 43.56640625 C-53.93591995 44.86323837 -53.95387115 46.1600705 -53.97236633 47.49620056 C-54.01951468 50.91387977 -54.04954962 54.33149463 -54.07580566 57.74938965 C-54.1057907 61.24907131 -54.15225843 64.74853188 -54.19726562 68.24804688 C-54.28289746 75.0923359 -54.34889227 81.93666616 -54.40625 88.78125 C-61.66625 88.78125 -68.92625 88.78125 -76.40625 88.78125 C-76.40625 56.77125 -76.40625 24.76125 -76.40625 -8.21875 C-69.14625 -8.21875 -61.88625 -8.21875 -54.40625 -8.21875 C-54.07625 -5.24875 -53.74625 -2.27875 -53.40625 0.78125 C-52.4575 -0.12625 -51.50875 -1.03375 -50.53125 -1.96875 C-35.96216936 -14.44389395 -13.74635613 -12.39425553 0 0 Z " fill="#000000" transform="translate(133.40625,809.21875)"/>
<path d="M0 0 C7.26 0 14.52 0 22 0 C22 44.22 22 88.44 22 134 C14.74 134 7.48 134 0 134 C-0.495 129.545 -0.495 129.545 -1 125 C-1.94875 125.9075 -2.8975 126.815 -3.875 127.75 C-12.66187649 135.28924697 -23.79192185 136.78527936 -35 136 C-48.94413424 133.89428651 -60.1984944 128.01527188 -68.82421875 116.58203125 C-77.15193055 103.38774732 -79.98873815 88.85644913 -76.875 73.5625 C-73.51022679 60.36945901 -66.96628685 49.787167 -55.625 42.125 C-44.42405084 35.47828292 -31.41706551 33.42707261 -18.63671875 36.20703125 C-11.20171173 38.44304077 -6.51919763 41.48080237 -1 47 C-0.67 31.49 -0.34 15.98 0 0 Z M-50 67 C-54.79208838 74.81401219 -56.18052211 83.53714165 -54.5390625 92.5234375 C-52.44700058 100.52249779 -48.12842601 107.56453493 -41 112 C-32.13235781 116.02820339 -24.65395517 117.63326919 -15.30078125 114.16015625 C-7.15888801 110.05465151 -2.08915115 103.45379309 1 95 C3.315167 85.35347085 1.94671663 76.56602031 -2.6875 67.8125 C-9.43242941 59.60920747 -15.88616708 55.76219638 -26.5 54.625 C-36.63618248 55.71101955 -43.25949792 59.18742538 -50 67 Z " fill="#000000" transform="translate(1081,764)"/>
<path d="M0 0 C1.11375 1.0725 2.2275 2.145 3.375 3.25 C3.705 -0.05 4.035 -3.35 4.375 -6.75 C11.635 -6.75 18.895 -6.75 26.375 -6.75 C26.375 25.26 26.375 57.27 26.375 90.25 C19.115 90.25 11.855 90.25 4.375 90.25 C3.88 85.795 3.88 85.795 3.375 81.25 C2.42625 82.1575 1.4775 83.065 0.5 84 C-8.28687649 91.53924697 -19.41692185 93.03527936 -30.625 92.25 C-44.84703596 90.10232037 -55.14063456 84.11264259 -64.44921875 73.08984375 C-72.87165905 61.40026036 -75.00954599 46.77489618 -73.1640625 32.74609375 C-70.63731749 19.20571316 -64.29643512 7.80543899 -53.17578125 -0.6015625 C-37.39960202 -10.6567097 -14.80645826 -12.80979051 0 0 Z M-43.625 21.25 C-49.47700612 28.6953004 -51.60682487 36.85253335 -50.625 46.25 C-49.0630234 54.68992399 -45.34661374 60.42205443 -39.4375 66.5 C-31.88587515 71.19878879 -24.24512368 73.47418804 -15.44921875 71.84765625 C-7.94581723 69.86489212 -2.14446146 65.19715629 2.015625 58.6796875 C6.53540535 49.97781154 7.76124663 41.57591175 5.125 32.0625 C2.54908488 24.37036638 -1.92907136 18.79817795 -8.625 14.25 C-21.37679766 8.58253437 -34.2777521 10.84103798 -43.625 21.25 Z " fill="#000000" transform="translate(884.625,807.75)"/>
<path d="M0 0 C1.11375 1.0725 2.2275 2.145 3.375 3.25 C3.705 -0.05 4.035 -3.35 4.375 -6.75 C11.635 -6.75 18.895 -6.75 26.375 -6.75 C26.375 25.26 26.375 57.27 26.375 90.25 C19.115 90.25 11.855 90.25 4.375 90.25 C3.88 85.795 3.88 85.795 3.375 81.25 C2.42625 82.1575 1.4775 83.065 0.5 84 C-8.28687649 91.53924697 -19.41692185 93.03527936 -30.625 92.25 C-44.56913424 90.14428651 -55.8234944 84.26527188 -64.44921875 72.83203125 C-69.31176957 65.12788902 -72.97182629 56.3944319 -73.625 47.25 C-73.71974609 46.10724609 -73.71974609 46.10724609 -73.81640625 44.94140625 C-74.46495999 30.86151377 -69.89068271 17.4571175 -61 6.625 C-52.68509479 -2.31508605 -42.03430177 -7.52944508 -29.87890625 -8.68359375 C-18.52505042 -9.01810943 -8.76104104 -7.57960468 0 0 Z M-45.625 22.25 C-51.163965 29.99661931 -52.13490533 38.41939321 -51.4375 47.76171875 C-50.14839966 55.45603639 -45.82394286 61.76545038 -39.8125 66.625 C-32.56963196 71.59153809 -25.09254432 73.34360295 -16.4765625 71.88671875 C-8.77440699 69.90037338 -2.24742362 64.57699898 1.859375 57.80078125 C5.9074714 48.9272366 6.87208827 39.95046744 3.8125 30.5625 C0.75650365 23.00349842 -4.38884585 17.089592 -11.625 13.25 C-24.62093923 8.61620199 -36.65279908 11.87976383 -45.625 22.25 Z " fill="#000000" transform="translate(301.625,807.75)"/>
<path d="M0 0 C12.98727827 -0.54287658 24.52847208 3.68182152 34.2421875 12.2109375 C46.74760965 25.5461033 46.5546875 42.76874445 46.5546875 60.2109375 C23.4546875 60.2109375 0.3546875 60.2109375 -23.4453125 60.2109375 C-19.08699742 70.01714643 -16.38100646 75.66164186 -6.5390625 79.5 C2.6466264 82.61902123 11.53116892 81.37322322 20.5546875 78.2109375 C23.31611854 76.74240922 25.90461395 75.16689847 28.49609375 73.41796875 C30.5546875 72.2109375 30.5546875 72.2109375 33.5546875 72.2109375 C35.32862971 74.43356526 36.84931175 76.57401276 38.3671875 78.9609375 C39.0159082 79.91226563 39.0159082 79.91226563 39.67773438 80.8828125 C40.88671875 82.7578125 40.88671875 82.7578125 42.5546875 86.2109375 C41.94029921 88.90690999 41.05714845 89.77773808 38.99609375 91.5546875 C23.32014453 101.20142548 5.32279381 103.28085714 -12.4453125 99.2109375 C-23.95504501 95.86234573 -34.04136896 88.09598231 -39.91796875 77.57421875 C-44.08899474 68.85519357 -45.82714516 60.53369573 -45.7578125 50.8984375 C-45.75217285 50.06957031 -45.7465332 49.24070312 -45.74072266 48.38671875 C-45.4778306 35.01826735 -41.54865259 23.46107504 -32.4453125 13.4609375 C-23.32322165 4.90705769 -12.27105149 1.05852521 0 0 Z M-18.4453125 29.2109375 C-20.75596348 33.12928085 -22.4453125 36.62639656 -22.4453125 41.2109375 C-6.6053125 41.2109375 9.2346875 41.2109375 25.5546875 41.2109375 C23.58447976 32.34500265 22.12781122 27.2023145 14.5546875 22.2109375 C2.65579997 16.24869923 -9.86784201 19.10385038 -18.4453125 29.2109375 Z " fill="#000000" transform="translate(581.4453125,798.7890625)"/>
<path d="M0 0 C-0.60266785 4.50727647 -2.36599794 7.8587963 -4.5625 11.8125 C-4.89185547 12.40998047 -5.22121094 13.00746094 -5.56054688 13.62304688 C-6.36773267 15.08533998 -7.18304917 16.5431399 -8 18 C-12.98101974 17.15867613 -17.63645776 15.48331473 -22.38476562 13.81640625 C-32.51167554 10.34138538 -42.18124375 9.3490102 -52 14 C-54.44976195 16.06415128 -54.93960785 16.68461878 -55.5625 19.9375 C-55.28961181 23.14901752 -55.28961181 23.14901752 -52.75390625 25.0703125 C-47.00259076 28.64352447 -39.56662914 28.56212299 -33.00390625 29.33398438 C-22.25974526 30.75361449 -10.73399655 33.90877497 -3 42 C2.53084478 49.3158607 3.12655343 57.08145205 2 66 C-0.23953276 74.1838245 -5.25906274 80.54793456 -12.5625 84.8359375 C-30.02870072 93.17716797 -50.40525082 92.82737018 -68.54296875 86.828125 C-73.75663261 84.72970625 -78.50156011 82.37382992 -83 79 C-81.68925635 74.53817564 -79.92933989 71.00381243 -77.375 67.125 C-76.74335938 66.15820312 -76.11171875 65.19140625 -75.4609375 64.1953125 C-74.73777344 63.10863281 -74.73777344 63.10863281 -74 62 C-70.61487133 63.07124325 -67.51093773 64.16189444 -64.4375 65.9375 C-53.82101728 71.33673978 -40.9985151 72.81402599 -29.5 69.75 C-25.8358419 68.48345017 -23.13234358 67.39236478 -21 64 C-20.16666667 61 -20.16666667 61 -21 58 C-26.95086113 51.87411354 -37.16295034 51.55545799 -45.26953125 50.359375 C-57.24602716 48.54992798 -67.58549044 45.80836962 -75.6953125 36.125 C-79.87988143 29.30941468 -79.83466801 21.74197167 -79 14 C-75.96984935 4.52138824 -69.66255316 -1.48176184 -61 -6 C-43.5756096 -13.37185748 -14.98908166 -12.53964636 0 0 Z " fill="#000000" transform="translate(429,809)"/>
<path d="M0 0 C7.26 0 14.52 0 22 0 C22 9.24 22 18.48 22 28 C33.22 28 44.44 28 56 28 C56 34.6 56 41.2 56 48 C44.78 48 33.56 48 22 48 C22.07406019 54.7267087 22.15694908 61.4521028 22.26245117 68.17822266 C22.29566006 70.46526226 22.32370451 72.75238303 22.34643555 75.03955078 C22.3800551 78.33140578 22.43237624 81.62251972 22.48828125 84.9140625 C22.49467117 85.93303619 22.5010611 86.95200989 22.50764465 88.00186157 C22.61841464 93.37715082 22.89599085 97.400267 26 102 C30.45844969 105.1105463 34.69355493 105.71935963 40 105 C42.60993056 104.35144798 45.14929065 103.5956956 47.703125 102.75390625 C49.78994389 102.06894699 51.86765365 101.52018707 54 101 C55.00380916 103.79035046 56.0031945 106.58214855 57 109.375 C57.28617188 110.1690625 57.57234375 110.963125 57.8671875 111.78125 C58.27324219 112.92207031 58.27324219 112.92207031 58.6875 114.0859375 C58.93886719 114.7876709 59.19023438 115.4894043 59.44921875 116.21240234 C60 118 60 118 60 120 C48.11333943 126.7590815 33.60324679 129.35017973 20.22265625 125.8046875 C12.3975486 122.97169598 7.36364967 119.14484304 3.15625 111.953125 C-0.03598858 103.79997512 -0.27930504 95.52431943 -0.1953125 86.8671875 C-0.1924826 85.74933868 -0.18965271 84.63148987 -0.18673706 83.47976685 C-0.17563217 79.94473099 -0.15054578 76.40995797 -0.125 72.875 C-0.11495767 70.46354535 -0.10583402 68.05208669 -0.09765625 65.640625 C-0.07572462 59.76031695 -0.04126235 53.88020288 0 48 C-6.27 48 -12.54 48 -19 48 C-19 41.4 -19 34.8 -19 28 C-12.73 28 -6.46 28 0 28 C0 18.76 0 9.52 0 0 Z " fill="#000000" transform="translate(464,773)"/>
<path d="M0 0 C0.99 0.99 0.99 0.99 2 2 C1.42748109 6.21175721 -0.94233039 9.64681019 -3.0625 13.25 C-3.43955078 13.8996875 -3.81660156 14.549375 -4.20507812 15.21875 C-5.13234115 16.81505091 -6.06558456 18.40787529 -7 20 C-10.25272132 19.33602707 -12.83186746 18.12844055 -15.75 16.5625 C-23.98851852 12.41317316 -30.81726094 11.02316034 -40 13 C-49.12621283 16.35751296 -54.6241668 21.40461336 -59 30 C-61.81587219 38.29843129 -61.09759947 50.06680838 -57.3125 57.88671875 C-53.1542638 64.58197406 -48.33590262 67.96423578 -40.828125 70.34375 C-29.84107013 72.89323235 -20.23380562 69.6915359 -10.8125 63.98828125 C-9 63 -9 63 -7 63 C-5.49212623 65.59988552 -3.99354539 68.20440197 -2.5 70.8125 C-1.85611328 71.91948242 -1.85611328 71.91948242 -1.19921875 73.04882812 C-0.79316406 73.76103516 -0.38710938 74.47324219 0.03125 75.20703125 C0.40830078 75.8616333 0.78535156 76.51623535 1.17382812 77.19067383 C2 79 2 79 2 82 C-9.22195146 91.16857311 -24.03153621 92.83439939 -38 92 C-51.46316962 90.24263936 -64.02581306 85.41354042 -72.8359375 74.78515625 C-82.51739914 61.8561157 -84.1932009 47.68717798 -83 32 C-80.57948955 18.59728787 -73.7204358 7.97262991 -63.16796875 -0.46484375 C-45.11576593 -12.96836949 -17.94433502 -11.71796015 0 0 Z " fill="#000000" transform="translate(800,808)"/>
<path d="M0 0 C-0.62057657 2.56364399 -1.24629199 5.12584926 -1.875 7.6875 C-2.04902344 8.40873047 -2.22304688 9.12996094 -2.40234375 9.87304688 C-3.35097866 13.72028845 -4.40490841 17.35715569 -6 21 C-7.299375 20.835 -8.59875 20.67 -9.9375 20.5 C-21.57481894 19.24777396 -21.57481894 19.24777396 -32 24 C-38.78875075 32.0393101 -38.32495355 41.01291929 -38.4140625 51.02734375 C-38.43279754 52.38498582 -38.45237266 53.74261654 -38.4727478 55.10023499 C-38.52382867 58.65273304 -38.56358202 62.20526875 -38.60089111 65.75793457 C-38.64108262 69.39145029 -38.69210542 73.02481265 -38.7421875 76.65820312 C-38.83866154 83.77202861 -38.9221539 90.88594271 -39 98 C-46.26 98 -53.52 98 -61 98 C-61 65.99 -61 33.98 -61 1 C-53.74 1 -46.48 1 -39 1 C-38.67 3.97 -38.34 6.94 -38 10 C-37.11248047 9.16855469 -37.11248047 9.16855469 -36.20703125 8.3203125 C-35.41683594 7.59585938 -34.62664063 6.87140625 -33.8125 6.125 C-33.03519531 5.40570312 -32.25789062 4.68640625 -31.45703125 3.9453125 C-22.90108758 -2.82870967 -10.16772274 -1.90644801 0 0 Z " fill="#000000" transform="translate(711,800)"/>
<path d="M0 0 C-0.44437985 4.77708343 -1.51610066 9.25371764 -2.8125 13.875 C-3.28623047 15.57269531 -3.28623047 15.57269531 -3.76953125 17.3046875 C-5 20 -5 20 -7.00390625 20.91015625 C-9 21 -9 21 -11.125 20.5625 C-17.72587224 19.271025 -24.25971355 19.06967005 -30.2421875 22.47265625 C-35.63036704 27.15438558 -37.36606386 34.15744687 -38 41 C-38.19320818 45.38295688 -38.25585309 49.76578845 -38.31640625 54.15234375 C-38.33718735 55.40761368 -38.35796844 56.66288361 -38.37937927 57.95619202 C-38.43348743 61.27199117 -38.48379613 64.58780275 -38.53222656 67.90368652 C-38.5827194 71.29586878 -38.63825952 74.68796812 -38.69335938 78.08007812 C-38.8001979 84.7199877 -38.90155636 91.35996087 -39 98 C-45.93 98 -52.86 98 -60 98 C-60 65.99 -60 33.98 -60 1 C-53.07 1 -46.14 1 -39 1 C-38.67 3.97 -38.34 6.94 -38 10 C-37.50371094 9.52949219 -37.00742187 9.05898438 -36.49609375 8.57421875 C-26.04279391 -1.00631981 -13.87324417 -3.08294315 0 0 Z " fill="#000000" transform="translate(998,800)"/>
</svg>
