<?xml version="1.0" encoding="UTF-8"?>
<svg version="1.1" xmlns="http://www.w3.org/2000/svg" width="900" height="359">
<path d="M0 0 C40.74029401 -0.06867291 81.48058047 -0.12153224 122.2209208 -0.15319599 C127.03115107 -0.15694809 131.84138123 -0.16083106 136.65161133 -0.16479492 C137.60923788 -0.16558185 138.56686442 -0.16636878 139.55350996 -0.16717956 C155.0574113 -0.18023198 170.56127926 -0.20388492 186.0651608 -0.23145839 C201.97464677 -0.25951714 217.88411525 -0.27617726 233.79362494 -0.28226548 C243.60992054 -0.28638094 253.42612177 -0.29937741 263.24238832 -0.3237494 C269.97459955 -0.33961238 276.70676202 -0.34439908 283.43899059 -0.34050413 C287.32260629 -0.33858346 291.20605712 -0.34151912 295.08964348 -0.35761642 C299.30363918 -0.37495538 303.51728467 -0.3689559 307.73130798 -0.36076355 C308.95408681 -0.36950207 310.17686564 -0.3782406 311.43669838 -0.38724393 C319.74001997 -0.34358808 327.52877848 0.45200143 334.18359375 5.86328125 C335.22060425 6.68904663 335.22060425 6.68904663 336.27856445 7.53149414 C337.34723755 8.41309204 337.34723755 8.41309204 338.4375 9.3125 C340.00220739 10.56820291 341.56732426 11.82339571 343.1328125 13.078125 C343.92977539 13.72330078 344.72673828 14.36847656 345.54785156 15.03320312 C348.00709065 17.0056872 350.49256159 18.9383934 352.9921875 20.859375 C353.79986572 21.48030029 354.60754395 22.10122559 355.43969727 22.7409668 C356.98343723 23.92605208 358.52814596 25.10987683 360.07397461 26.29223633 C372.35603423 35.78809449 372.35603423 35.78809449 373.29954529 41.959198 C373.33316183 48.45715575 371.86714488 54.17823649 370.03515625 60.3828125 C369.56776283 62.01801346 369.56776283 62.01801346 369.09092712 63.68624878 C368.09253106 67.16913383 367.07783917 70.64702119 366.0625 74.125 C365.41493584 76.37468947 364.76844349 78.62468774 364.12304688 80.875 C362.09794537 87.92131611 360.05003589 94.96090501 358 102 C356.50953861 107.12344289 355.01999274 112.24715126 353.53125 117.37109375 C353.3432999 118.01787268 353.15534981 118.6646516 352.96170425 119.33102989 C348.93080734 133.20576235 344.95596729 147.09633315 340.99296188 160.9906044 C340.03646159 164.34314085 339.07884209 167.69535759 338.12133789 171.04760742 C334.56423899 183.50245477 331.01094211 195.95837758 327.46421814 208.41618347 C325.9769803 213.63985424 324.48802247 218.86303448 322.99905396 224.08621216 C322.29361445 226.56245998 321.588918 229.03891961 320.88497925 231.51559448 C319.91334847 234.93407399 318.9393582 238.35187288 317.96484375 241.76953125 C317.6771814 242.78409393 317.38951904 243.79865662 317.09313965 244.84396362 C316.6988678 246.22408127 316.6988678 246.22408127 316.29663086 247.63208008 C315.95504189 248.83263786 315.95504189 248.83263786 315.60655212 250.05744934 C315 252 315 252 314 254 C284.96 254 255.92 254 226 254 C227.12359389 245.01124892 227.12359389 245.01124892 228.3203125 241.140625 C228.60044189 240.21725342 228.88057129 239.29388184 229.16918945 238.3425293 C229.48460693 237.32199463 229.80002441 236.30145996 230.125 235.25 C230.85243132 232.84570783 231.57746893 230.44069079 232.30078125 228.03515625 C232.50408554 227.36003494 232.70738983 226.68491364 232.91685486 225.98933411 C236.14025456 215.24896841 239.21227218 204.46388882 242.3125 193.6875 C243.63125814 189.10669818 244.95038735 184.52600325 246.26953125 179.9453125 C246.59191772 178.82552505 246.9143042 177.70573761 247.24645996 176.55201721 C249.11885244 170.05065775 250.99770632 163.55123687 252.88671875 157.0546875 C257.99531332 139.48235458 263.04331349 121.8932932 268.04003906 104.28878784 C268.71548467 101.90974924 269.39173903 99.53094009 270.06884766 97.15237427 C271.01858628 93.81456368 271.964851 90.47578726 272.91015625 87.13671875 C273.19298965 86.14459381 273.47582306 85.15246887 273.76722717 84.13027954 C274.53076342 81.42493026 275.27391399 78.71562369 276 76 C276.34936111 74.70299667 276.34936111 74.70299667 276.70578003 73.37979126 C277.23175925 71.27458991 277.62895007 69.13795435 278 67 C275.65199864 64.65199864 275.19115983 64.7397146 272.00927734 64.68115234 C271.18857758 64.66128265 270.36787781 64.64141296 269.52230835 64.62094116 C268.63580597 64.60938995 267.74930359 64.59783875 266.8359375 64.5859375 C265.92872955 64.56657135 265.02152161 64.5472052 264.08682251 64.5272522 C261.18297796 64.46736784 258.27909396 64.42103584 255.375 64.375 C253.40883667 64.33682835 251.4426902 64.29777711 249.4765625 64.2578125 C244.6511783 64.16165909 239.82571582 64.077661 235 64 C234.77521973 64.94262695 234.77521973 64.94262695 234.54589844 65.90429688 C232.04044803 76.17557437 229.1361934 86.33059962 226.25 96.5 C225.97021301 97.48798584 225.69042603 98.47597168 225.40216064 99.49389648 C216.87378395 129.60843431 208.15215884 159.66752931 199.4440918 189.73046875 C199.21394379 190.52501465 198.98379578 191.31956055 198.74667358 192.13818359 C198.29394806 193.70102465 197.84116974 195.2638504 197.38833618 196.82666016 C193.22182065 211.20727077 189.10227518 225.60092275 185 240 C183.68 244.62 182.36 249.24 181 254 C152.62 254 124.24 254 95 254 C96.85371132 246.58515473 98.73173886 239.24135083 100.87109375 231.9140625 C101.14515045 230.96810715 101.41920715 230.02215179 101.7015686 229.04753113 C102.29772921 226.9901404 102.89480536 224.93301479 103.4927063 222.87612915 C105.1644839 217.12337607 106.82814188 211.36827478 108.4921875 205.61328125 C108.85029007 204.37521225 109.20839264 203.13714325 109.5773468 201.86155701 C114.97148978 183.20259591 120.29401622 164.52302515 125.61987305 145.84448242 C126.46134623 142.89369476 127.30291929 139.94293559 128.14453125 136.9921875 C128.45344457 135.90893786 128.45344457 135.90893786 128.76859856 134.8038044 C131.62100121 124.80336665 134.49551299 114.80960098 137.38671875 104.8203125 C138.36760767 101.42227364 139.34796777 98.02408275 140.32809448 94.62582397 C140.93680423 92.52065826 141.54786255 90.41617005 142.16140747 88.31240845 C142.99363442 85.4586167 143.81798836 82.60266198 144.640625 79.74609375 C145.00464668 78.51072372 145.00464668 78.51072372 145.37602234 77.25039673 C146.47655658 73.40045901 147.30576821 70.05041631 147 66 C144.73961146 64.86980573 143.42881174 64.84731043 140.91748047 64.79467773 C140.07675995 64.77473251 139.23603943 64.75478729 138.36984253 64.73423767 C137.46146637 64.71752518 136.55309021 64.70081268 135.6171875 64.68359375 C134.68778351 64.66281265 133.75837952 64.64203156 132.80081177 64.62062073 C129.8256179 64.55512354 126.85033423 64.49623948 123.875 64.4375 C121.86066772 64.39431494 119.84634459 64.35070066 117.83203125 64.30664062 C112.88811337 64.19944197 107.94410497 64.09817499 103 64 C102.82132385 64.73215225 102.64264771 65.4643045 102.45855713 66.21864319 C100.69307319 73.37680862 98.77721232 80.47508679 96.734375 87.55859375 C96.42408859 88.6411293 96.11380219 89.72366486 95.79411316 90.83900452 C95.12766172 93.1635844 94.46033582 95.48791373 93.79220581 97.81201172 C91.99920837 104.04925501 90.21267299 110.28834902 88.42578125 116.52734375 C88.24266954 117.1664053 88.05955784 117.80546684 87.87089729 118.46389389 C83.25003814 134.59189282 78.68966902 150.73696241 74.13769531 166.88452148 C70.73527122 178.94277808 67.27085375 190.98116231 63.75170898 203.00585938 C61.9795331 209.06280863 60.22384092 215.12445243 58.47265625 221.1875 C58.21963745 222.06345825 57.96661865 222.9394165 57.70593262 223.84191895 C56.82451383 226.89453336 55.94352934 229.94727316 55.0625 233 C53.061875 239.93 51.06125 246.86 49 254 C19.96 254 -9.08 254 -39 254 C-37.87560409 243.88043677 -37.87560409 243.88043677 -36.41601562 239.13549805 C-36.09701294 238.08159378 -35.77801025 237.02768951 -35.44934082 235.94184875 C-35.10512085 234.83053085 -34.76090088 233.71921295 -34.40625 232.57421875 C-33.67340707 230.15576081 -32.9416634 227.73696953 -32.2109375 225.31787109 C-31.84000977 224.09565857 -31.46908203 222.87344604 -31.08691406 221.61419678 C-29.43399836 216.11793648 -27.85326243 210.60188389 -26.28125 205.08203125 C-25.82378891 203.47908958 -25.82378891 203.47908958 -25.35708618 201.84376526 C-24.40358622 198.50033332 -23.45178899 195.15641936 -22.5 191.8125 C-21.81183207 189.39880281 -21.12351467 186.98514823 -20.43505859 184.5715332 C-19.00789484 179.56770749 -17.581363 174.56370228 -16.15527344 169.55957031 C-12.99068056 158.45717437 -9.81760262 147.35720351 -6.64505005 136.25708008 C-5.63400691 132.71901895 -4.62343978 129.18082221 -3.61303711 125.64257812 C-0.68434684 115.38755625 2.24702739 105.13334195 5.19140625 94.8828125 C5.89093116 92.44482898 6.59030489 90.00680216 7.28961182 87.5687561 C7.91541518 85.38940991 8.54334773 83.21068519 9.17138672 81.03198242 C9.54015091 79.74661411 9.90881073 78.46121586 10.27734375 77.17578125 C10.58921631 76.09208252 10.90108887 75.00838379 11.22241211 73.8918457 C13.80563471 64.284853 13.80417692 55.31880933 11.27734375 45.6640625 C11.01138397 44.63669731 11.01138397 44.63669731 10.74005127 43.58857727 C10.16824275 41.39013477 9.5852747 39.1948929 9 37 C8.60910691 35.52287418 8.21823782 34.045742 7.82739258 32.56860352 C6.43750536 27.3341173 5.03681415 22.10252648 3.62548828 16.8737793 C3.02305532 14.6393824 2.42523793 12.40379228 1.828125 10.16796875 C1.6438092 9.48993698 1.45949341 8.81190521 1.26959229 8.11332703 C0.52374376 5.30947989 0 2.91728444 0 0 Z " fill="#D0D3D3" transform="translate(39,105)"/>
<path d="M0 0 C28.05 0 56.1 0 85 0 C83.80185478 5.99072611 82.66667171 11.52964848 80.9609375 17.3203125 C80.76285995 17.99821838 80.56478241 18.67612427 80.36070251 19.37457275 C79.92907367 20.85056034 79.49559967 22.32600937 79.06045532 23.80096436 C77.84500715 27.92194027 76.64417803 32.04718506 75.44140625 36.171875 C75.17730453 37.07630341 74.91320282 37.98073181 74.64109802 38.91256714 C70.81003473 52.05089811 67.06723887 65.21470401 63.3125 78.375 C62.58585667 80.92075907 61.85908152 83.46648049 61.13232422 86.01220703 C59.42084531 92.00793724 57.71009651 98.00387537 56 104 C56.78181137 104.00586624 57.56362274 104.01173248 58.36912537 104.01777649 C65.76875253 104.07589217 73.16805019 104.14807531 80.56738186 104.23571491 C84.37066429 104.28027507 88.17384314 104.31956183 91.97729492 104.34643555 C95.65389949 104.37261308 99.33010235 104.41311483 103.00645638 104.46318626 C104.40288322 104.47975805 105.79937939 104.49133225 107.19589043 104.49761391 C117.31094872 104.54767813 125.89134187 105.11959401 134.125 111.4375 C135.04796875 112.14003906 135.9709375 112.84257813 136.921875 113.56640625 C141.05663612 116.83538617 145.18942689 120.10639104 149.28686523 123.42211914 C152.38850322 125.93059311 155.50564966 128.40088851 158.70703125 130.78125 C159.29371582 131.21969238 159.88040039 131.65813477 160.48486328 132.10986328 C162.0821455 133.2967168 163.68729428 134.4729626 165.29296875 135.6484375 C168.79894888 138.6940364 171.69285868 141.34449523 172.25047302 146.16555786 C172.28421779 152.4816726 171.2665349 157.87044717 169.421875 163.890625 C169.00449066 165.31359894 169.00449066 165.31359894 168.57867432 166.76531982 C167.96964659 168.83601408 167.35447885 170.90491016 166.73388672 172.97216797 C165.36658581 177.5273496 164.02928306 182.0912031 162.68908691 186.65441895 C161.95947842 189.13690257 161.22823474 191.6189061 160.4954834 194.10046387 C156.32943233 208.21230054 152.30521003 222.36429071 148.27700806 236.51596069 C146.15731175 243.96134089 144.02946127 251.40439366 141.90234375 258.84765625 C141.48422675 260.3109383 141.06611049 261.77422057 140.647995 263.23750305 C139.43231282 267.4917591 138.2162593 271.74590891 137 276 C136.80846596 276.6699575 136.61693192 277.33991501 136.41959381 278.03017426 C134.12427839 286.0581261 131.82485815 294.08488628 129.51831055 302.10961914 C128.89218204 304.28963388 128.26714121 306.46996137 127.64331055 308.65063477 C116.04380011 349.18669559 116.04380011 349.18669559 102.234375 356.90625 C97.78367712 359.0849133 93.8940648 359.13860564 89.04646301 359.12025452 C87.81755239 359.12153615 87.81755239 359.12153615 86.5638153 359.12284368 C83.80920447 359.12449528 81.05465408 359.11898232 78.30004883 359.11352539 C76.32918804 359.11324342 74.35832715 359.11340144 72.38746643 359.1139679 C67.02830171 359.1142555 61.66915924 359.10836471 56.3099997 359.10139394 C50.71258293 359.09515427 45.11516568 359.09455611 39.51774597 359.09336853 C28.91430033 359.09025703 18.31086497 359.08204607 7.70742387 359.07201904 C-4.36254769 359.0608523 -16.43251973 359.05534604 -28.50249517 359.05032361 C-53.33500248 359.03986332 -78.16750067 359.02226736 -103 359 C-102.36777478 356.28883081 -101.73408602 353.5780175 -101.0995636 350.86738586 C-100.92213009 350.10581822 -100.74469659 349.34425057 -100.56188631 348.55960512 C-99.16152675 342.58511426 -97.58497349 336.68093402 -95.85546875 330.79296875 C-95.56911057 329.80469086 -95.28275238 328.81641296 -94.98771667 327.79818726 C-94.05822514 324.59347287 -93.12286268 321.39050513 -92.1875 318.1875 C-91.52314811 315.90044054 -90.85925799 313.61324689 -90.19580078 311.32592773 C-88.81931294 306.5816783 -87.44086019 301.83800642 -86.06103516 297.09472656 C-83.12834895 287.00725123 -80.22117888 276.9124295 -77.31298828 266.81787109 C-75.74489502 261.37566506 -74.17529984 255.93389247 -72.60546875 250.4921875 C-72.29991058 249.43296082 -71.99435242 248.37373413 -71.67953491 247.28240967 C-69.72324332 240.50242212 -67.76328827 233.72350332 -65.80078125 226.9453125 C-59.18586446 204.09344034 -52.62841595 181.22551342 -46.10113525 158.34848022 C-40.09926363 137.31362501 -34.0544274 116.29152985 -27.98724365 95.27542114 C-23.56917161 79.96757219 -19.18517648 64.65108667 -14.875 49.3125 C-11.94451255 38.88774328 -9.01175584 28.46416726 -6 18.0625 C-5.59950439 16.66801636 -5.59950439 16.66801636 -5.19091797 15.24536133 C-4.81797607 13.96568481 -4.81797607 13.96568481 -4.4375 12.66015625 C-4.22996094 11.94480713 -4.02242188 11.22945801 -3.80859375 10.49243164 C-2.66041655 6.95325863 -1.30644613 3.48385634 0 0 Z M37 169 C35.14281107 173.84194508 33.43893423 178.64568105 32.00390625 183.6328125 C31.72545364 184.5958857 31.72545364 184.5958857 31.44137573 185.57841492 C30.81179088 187.75967626 30.18704628 189.94229105 29.5625 192.125 C29.10507829 193.71579047 28.64746958 195.30652718 28.18969727 196.8972168 C27.11403753 200.63865636 26.04117656 204.38088793 24.96972656 208.12353516 C23.50300445 213.24637743 22.03301153 218.36827147 20.56152344 223.48974609 C18.30682548 231.33756387 16.05571123 239.18640414 13.80661011 247.03582764 C12.89608418 250.21340038 11.98449757 253.39066596 11.072052 256.56768799 C9.97908331 260.37383673 8.88886784 264.18076433 7.80060196 267.98826027 C7.39479166 269.40645366 6.98807636 270.82438844 6.58037949 272.24204063 C4.50678803 279.45467921 2.52044904 286.64705816 1 294 C6.90815343 294.09890033 12.81582472 294.17148371 18.72460938 294.21972656 C20.73446038 294.23983805 22.74425291 294.26713115 24.75390625 294.30175781 C27.64337596 294.35029634 30.53207191 294.37297322 33.421875 294.390625 C34.76895538 294.42159271 34.76895538 294.42159271 36.14324951 294.45318604 C41.18478383 294.4975257 41.18478383 294.4975257 45.52563477 292.15063477 C47.41180229 289.3993101 48.25517021 286.89885818 49.1875 283.6875 C49.49530396 282.64625977 49.49530396 282.64625977 49.80932617 281.58398438 C50.28477768 279.96707528 50.75377889 278.34826134 51.21777344 276.72802734 C52.05126669 273.82120662 52.90344112 270.92028198 53.7578125 268.01953125 C59.79063782 247.45422753 65.62932303 226.83180363 71.50317383 206.22070312 C71.84307846 205.02886917 72.18298309 203.83703522 72.53318787 202.60908508 C73.17289583 200.36591293 73.81206373 198.12258667 74.45057678 195.8790741 C76.05156121 190.2667055 77.69253655 184.67273804 79.43545532 179.10261536 C80.18491641 176.31128906 80.35817819 173.86542548 80 171 C77.99957164 168.55570533 77.99957164 168.55570533 74.00927734 168.77294922 C72.28479831 168.77326663 70.56029967 168.78460876 68.8359375 168.8046875 C67.92872955 168.8075174 67.02152161 168.81034729 66.08682251 168.81326294 C63.18274877 168.82447847 60.27898088 168.84958537 57.375 168.875 C55.40885861 168.88502803 53.4427124 168.89415419 51.4765625 168.90234375 C46.65092341 168.92442228 41.8255136 168.95896135 37 169 Z " fill="#D0D3D3" transform="translate(505,0)"/>
<path d="M0 0 C0.92401611 -0.00137466 1.84803223 -0.00274933 2.80004883 -0.00416565 C4.30193001 0.00122726 4.30193001 0.00122726 5.83415222 0.00672913 C6.89802155 0.0065831 7.96189087 0.00643707 9.05799866 0.00628662 C12.56958566 0.00698251 16.08111942 0.01475984 19.59269714 0.02259827 C22.02935762 0.02446359 24.46601846 0.02588696 26.90267944 0.02688599 C33.31254616 0.03070213 39.72239017 0.04052474 46.13224792 0.05158997 C52.67439975 0.06182348 59.21655525 0.06638777 65.75871277 0.07142639 C78.59270682 0.08214779 91.42668515 0.09902088 104.26066589 0.12025452 C103.43986 3.95539061 101.99468587 5.97613714 99.44816589 8.99525452 C98.63734558 9.96205139 97.82652527 10.92884827 96.99113464 11.92494202 C96.08224789 12.99112969 95.1720378 14.05619036 94.26066589 15.12025452 C93.54064392 15.9618512 93.54064392 15.9618512 92.80607605 16.82044983 C90.77524011 19.19163822 88.74238865 21.56105399 86.70475769 23.92640686 C82.92945892 28.31483956 79.25607678 32.77745235 75.60832214 37.27259827 C72.39065012 41.17556483 69.09034136 45.00545672 65.77238464 48.82337952 C65.30316589 49.36607483 64.83394714 49.90877014 64.35050964 50.46791077 C63.84737244 51.02744446 63.34423523 51.58697815 62.82585144 52.16346741 C61.1516504 54.14848101 61.1516504 54.14848101 59.78337097 56.7469635 C57.5653911 60.3441108 55.59915889 63.47399822 51.32783508 64.65440369 C45.60141073 65.46476712 39.83743828 65.23210431 34.07316589 65.05775452 C31.46767952 65.01654296 28.86295426 64.98960599 26.25717163 64.97756958 C24.64307224 64.96618455 23.02896242 64.93604817 21.41564941 64.88439941 C16.79608105 64.80589984 13.88966626 65.19016664 10.26066589 68.12025452 C7.83153833 70.97178758 6.65557179 73.44664564 5.65422058 77.04286194 C5.37672974 78.02296738 5.09923889 79.00307281 4.81333923 80.01287842 C4.52267578 81.07311722 4.23201233 82.13335602 3.93254089 83.22572327 C3.46439972 84.89288139 3.46439972 84.89288139 2.98680115 86.59371948 C1.98661384 90.16284712 0.99845092 93.73517688 0.01066589 97.30775452 C-0.63827818 99.63154453 -1.28801027 101.95511463 -1.93855286 104.27845764 C-3.23567835 108.9163602 -4.52815383 113.55551653 -5.8162384 118.19593811 C-7.71134047 125.02311623 -9.61552398 131.84772228 -11.52449036 138.67103577 C-11.80169922 139.66370956 -12.07890808 140.65638336 -12.36451721 141.67913818 C-14.73925881 150.16575504 -17.1900789 158.62952175 -19.67292786 167.08509827 C-19.99374329 168.17806213 -20.31455872 169.271026 -20.64509583 170.39710999 C-21.44312934 173.11241814 -22.24163692 175.82758428 -23.04060364 178.5426178 C-24.27497934 182.73736252 -25.50721155 186.9327339 -26.73875427 191.12831116 C-27.44457109 193.53041285 -28.15277841 195.93179894 -28.86116028 198.33314514 C-34.30888952 216.88734376 -39.48887422 235.50498765 -44.73933411 254.12025452 C-73.11933411 254.12025452 -101.49933411 254.12025452 -130.73933411 254.12025452 C-126.11585283 235.62632942 -126.11585283 235.62632942 -123.49299622 226.60771179 C-123.20656754 225.6208029 -123.20656754 225.6208029 -122.91435242 224.61395645 C-122.71737762 223.93540981 -122.52040283 223.25686317 -122.31745911 222.55775452 C-121.89572541 221.09676141 -121.47426513 219.63568937 -121.05305481 218.17454529 C-120.1623412 215.08655174 -119.26996841 211.99904503 -118.37617493 208.91194153 C-116.96802772 204.04811362 -115.56369369 199.1831903 -114.16023254 194.31800842 C-113.92478352 193.50182604 -113.68933449 192.68564365 -113.44675064 191.84472847 C-112.97025662 190.19292604 -112.49377678 188.54111953 -112.0173111 186.88930893 C-111.30147726 184.4080801 -110.58528712 181.92695433 -109.86903381 179.44584656 C-105.54680486 164.4705546 -101.26306432 149.48445916 -96.98933411 134.49525452 C-92.57408147 119.01444676 -88.14143656 103.53953715 -83.626297 88.08753967 C-81.97775157 82.43457602 -80.35707026 76.77581333 -78.78620911 71.10072327 C-78.47175842 69.96497864 -78.15730774 68.82923401 -77.83332825 67.65907288 C-77.25785932 65.57123503 -76.68627159 63.48232044 -76.11994934 61.39198303 C-75.3587506 58.62409659 -74.5595698 55.87118364 -73.73933411 53.12025452 C-73.47330383 52.1876178 -73.20727356 51.25498108 -72.93318176 50.29408264 C-69.3439085 38.98267145 -62.1522814 32.72754368 -52.11433411 26.93275452 C-50.2617556 25.8263811 -48.41022847 24.71824565 -46.55964661 23.60853577 C-45.60735168 23.04215393 -44.65505676 22.47577209 -43.67390442 21.89222717 C-37.80018694 18.34551823 -32.05298032 14.59670222 -26.28767395 10.87733459 C-9.29955044 -0.01072613 -9.29955044 -0.01072613 0 0 Z " fill="#D0D3D3" transform="translate(795.7393341064453,104.87974548339844)"/>
<path d="M0 0 C29.37 0 58.74 0 89 0 C86.35665833 10.57336667 83.63361975 21.05313819 80.5625 31.5 C80.36612946 32.16988953 80.16975891 32.83977905 79.96743774 33.52996826 C78.99466271 36.84756926 78.01847731 40.16413407 77.03808594 43.47949219 C76.16379624 46.44451041 75.30205407 49.41269757 74.4453125 52.3828125 C74.02713169 53.79719774 73.60798971 55.21129947 73.1875 56.625 C72.85105469 57.77226563 72.51460938 58.91953125 72.16796875 60.1015625 C70.4341247 64.40427918 68.41400653 67.08715334 64.50366211 69.61157227 C59.82640487 71.46507111 55.69200571 71.4862603 50.703125 71.50390625 C49.71431335 71.51389145 48.72550171 71.52387665 47.70672607 71.53416443 C45.61897956 71.54931434 43.5311608 71.55639119 41.44335938 71.5559082 C38.27349937 71.56245149 35.10680396 71.61691665 31.9375 71.67382812 C12.62479991 71.84068249 12.62479991 71.84068249 5 65 C4.27329102 64.44046631 3.54658203 63.88093262 2.79785156 63.30444336 C0.6506377 61.64931916 -1.42763957 59.93505779 -3.5 58.1875 C-4.8841414 57.03362477 -6.26949851 55.8812058 -7.65625 54.73046875 C-8.25244141 54.22926514 -8.84863281 53.72806152 -9.46289062 53.21166992 C-11.00090819 51.91517302 -11.00090819 51.91517302 -13 51 C-12.3824098 44.70249997 -11.01623076 38.88881381 -9.27734375 32.8125 C-9.04245239 31.97525391 -8.80756104 31.13800781 -8.56555176 30.27539062 C-7.69583434 27.18181571 -6.816092 24.0910662 -5.9375 21 C-3.978125 14.07 -2.01875 7.14 0 0 Z " fill="#D0D3D3" transform="translate(367,0)"/>
</svg>
