<?xml version="1.0" encoding="UTF-8"?>
<svg version="1.1" xmlns="http://www.w3.org/2000/svg" width="65" height="75">
<path d="M0 0 C2.72510244 2.74900685 2.98829753 3.76595068 3.1875 7.75 C3.0946875 9.35875 3.0946875 9.35875 3 11 C3.721875 11.185625 4.44375 11.37125 5.1875 11.5625 C9.8618571 13.95161585 12.36393917 18.09181752 14 23 C14.02172852 24.90112305 14.02172852 24.90112305 13.87890625 27.01171875 C13.83056641 27.76904297 13.78222656 28.52636719 13.73242188 29.30664062 C13.67634766 30.09232422 13.62027344 30.87800781 13.5625 31.6875 C13.51029297 32.48478516 13.45808594 33.28207031 13.40429688 34.10351562 C13.27480978 36.06936522 13.13809959 38.03473665 13 40 C13.91007812 40.10570312 14.82015625 40.21140625 15.7578125 40.3203125 C19.05053398 41.01059387 20.41433523 41.67680614 22.875 43.875 C23.47054687 44.38804688 24.06609375 44.90109375 24.6796875 45.4296875 C26 47 26 47 26 50 C26.99 50.66 27.98 51.32 29 52 C29.625 54.625 29.625 54.625 29 58 C22.2398557 68.6523486 10.38023604 72.05179092 -1.34375 74.77734375 C-5.94042469 75.05726945 -9.18678846 73.99891542 -13.4375 72.375 C-14.18668701 72.09793213 -14.93587402 71.82086426 -15.70776367 71.53540039 C-22.90777204 68.79444794 -29.90474727 65.88002458 -34 59 C-34.75 55.1875 -34.75 55.1875 -35 52 C-34.360625 51.5875 -33.72125 51.175 -33.0625 50.75 C-30.84391747 49.22667791 -30.84391747 49.22667791 -30.578125 47.0625 C-29.84666641 44.45297206 -28.88846191 43.77700569 -26.6875 42.25 C-26.09324219 41.82203125 -25.49898437 41.3940625 -24.88671875 40.953125 C-23 40 -23 40 -19 40 C-19.12568359 38.21142578 -19.12568359 38.21142578 -19.25390625 36.38671875 C-19.35708136 34.82033292 -19.45992889 33.25392549 -19.5625 31.6875 C-19.61857422 30.90181641 -19.67464844 30.11613281 -19.73242188 29.30664062 C-19.78076172 28.54931641 -19.82910156 27.79199219 -19.87890625 27.01171875 C-19.9260376 26.31522217 -19.97316895 25.61872559 -20.02172852 24.90112305 C-20 23 -20 23 -19 20 C-20.051875 20.04125 -21.10375 20.0825 -22.1875 20.125 C-25.74010173 20.00852125 -27.84866641 19.52791932 -31 18 C-31 18.66 -31 19.32 -31 20 C-34.875 19.125 -34.875 19.125 -36 18 C-36.46302251 10.82315113 -36.46302251 10.82315113 -34.875 8 C-32.21065116 6.57901395 -29.96508915 6.80232739 -27 7 C-26.855625 6.195625 -26.71125 5.39125 -26.5625 4.5625 C-26 2 -26 2 -25 1 C-23.00041636 0.95919217 -20.99954746 0.95745644 -19 1 C-18.67 1.99 -18.34 2.98 -18 4 C-16.88625 3.34 -15.7725 2.68 -14.625 2 C-9.97089886 -0.32290253 -5.12235699 -1.2373722 0 0 Z " fill="#142445" transform="translate(36,0)"/>
<path d="M0 0 C2.72510244 2.74900685 2.98829753 3.76595068 3.1875 7.75 C3.0946875 9.35875 3.0946875 9.35875 3 11 C3.721875 11.185625 4.44375 11.37125 5.1875 11.5625 C8.9074149 13.46378984 11.29879425 16.1601356 13 20 C12.6328125 22.2265625 12.6328125 22.2265625 12 24 C11.34 23.01 10.68 22.02 10 21 C5.96877183 15.60683917 5.96877183 15.60683917 0 13 C-4.36650381 12.43397173 -7.1078803 12.73533919 -10.75 15.125 C-13.91790394 17.60949096 -15.51057307 20.23262601 -17 24 C-16.34 24.33 -15.68 24.66 -15 25 C-15.99 25 -16.98 25 -18 25 C-17.7525 25.7734375 -17.7525 25.7734375 -17.5 26.5625 C-16.84951 29.73363876 -16.9379266 32.77218334 -17 36 C-20.03764389 32.96235611 -19.97544731 30.69975167 -20.125 26.4375 C-20 23 -20 23 -19 20 C-20.051875 20.04125 -21.10375 20.0825 -22.1875 20.125 C-25.74010173 20.00852125 -27.84866641 19.52791932 -31 18 C-31 18.66 -31 19.32 -31 20 C-34.875 19.125 -34.875 19.125 -36 18 C-36.46302251 10.82315113 -36.46302251 10.82315113 -34.875 8 C-32.21065116 6.57901395 -29.96508915 6.80232739 -27 7 C-26.855625 6.195625 -26.71125 5.39125 -26.5625 4.5625 C-26 2 -26 2 -25 1 C-23.00041636 0.95919217 -20.99954746 0.95745644 -19 1 C-18.67 1.99 -18.34 2.98 -18 4 C-16.88625 3.34 -15.7725 2.68 -14.625 2 C-9.97089886 -0.32290253 -5.12235699 -1.2373722 0 0 Z " fill="#181E40" transform="translate(36,0)"/>
<path d="M0 0 C1.65 0 3.3 0 5 0 C5.33 2.97 5.66 5.94 6 9 C6.33 8.34 6.66 7.68 7 7 C8.19625 7.391875 9.3925 7.78375 10.625 8.1875 C14.15952231 9.09943191 14.89323585 9.04194306 18.5 7.625 C19.325 7.08875 20.15 6.5525 21 6 C21.33 6.66 21.66 7.32 22 8 C22.66 5.36 23.32 2.72 24 0 C25.32 0.33 26.64 0.66 28 1 C29.37426782 12.92728742 29.37426782 12.92728742 26.1015625 17.86328125 C22.93967469 20.9893548 19.6956764 23.53621573 16 26 C11.92415048 25.72478187 9.82237645 24.36432635 6.875 21.625 C6.21242188 21.01914062 5.54984375 20.41328125 4.8671875 19.7890625 C4.25101563 19.19867188 3.63484375 18.60828125 3 18 C2.42894531 17.58878906 1.85789062 17.17757812 1.26953125 16.75390625 C-0.80261733 13.89115329 -0.31087291 10.70051001 -0.1875 7.3125 C-0.17396484 6.61060547 -0.16042969 5.90871094 -0.14648438 5.18554688 C-0.11120182 3.45670171 -0.05739583 1.72825235 0 0 Z " fill="#B4B7BA" transform="translate(19,27)"/>
<path d="M0 0 C1.64352248 0.96925685 3.26865908 1.97029428 4.875 3 C7.75585321 4.61608838 10.17740924 5.05841968 13.4375 5.4375 C13.1075 6.7575 12.7775 8.0775 12.4375 9.4375 C11.1175 8.7775 9.7975 8.1175 8.4375 7.4375 C8.499375 8.345 8.56125 9.2525 8.625 10.1875 C8.42077924 13.72732642 7.79198165 14.88681155 5.4375 17.4375 C5.1075 16.4475 4.7775 15.4575 4.4375 14.4375 C3.73625 14.97375 3.035 15.51 2.3125 16.0625 C-0.5625 17.4375 -0.5625 17.4375 -3.75 16.6875 C-5.36820795 15.96829647 -6.97861852 15.22944074 -8.5625 14.4375 C-8.5625 16.0875 -8.5625 17.7375 -8.5625 19.4375 C-11.12866632 15.58825052 -11.11347676 13.0025696 -11.5625 8.4375 C-12.8825 8.1075 -14.2025 7.7775 -15.5625 7.4375 C-15.8925 8.0975 -16.2225 8.7575 -16.5625 9.4375 C-16.5625 8.1175 -16.5625 6.7975 -16.5625 5.4375 C-15.36625 5.19 -14.17 4.9425 -12.9375 4.6875 C-9.68450603 3.90724042 -8.22141364 3.19673316 -5.375 1.1875 C-2.5625 -0.5625 -2.5625 -0.5625 0 0 Z " fill="#B3B6B9" transform="translate(34.5625,19.5625)"/>
<path d="M0 0 C1.9375 1.125 1.9375 1.125 3 3 C3.1875 6.1875 3.1875 6.1875 3 9 C2.34 9 1.68 9 1 9 C0.34 7.35 -0.32 5.7 -1 4 C-2.33641852 4.32074044 -3.66869885 4.65864073 -5 5 C-6.0725 5.2475 -7.145 5.495 -8.25 5.75 C-12.67158347 7.22386116 -16.16884553 9.39282475 -20 12 C-19.01 12.66 -18.02 13.32 -17 14 C-17.33 14.33 -17.66 14.66 -18 15 C-24.39534884 14.30232558 -24.39534884 14.30232558 -27 13 C-27 12.34 -27 11.68 -27 11 C-30.0745356 11.7763932 -30.0745356 11.7763932 -32 14 C-32.125 11.625 -32.125 11.625 -32 9 C-30 7 -30 7 -27.8359375 6.8046875 C-26.61777344 6.83949219 -26.61777344 6.83949219 -25.375 6.875 C-24.14910156 6.90207031 -24.14910156 6.90207031 -22.8984375 6.9296875 C-21.95871094 6.96449219 -21.95871094 6.96449219 -21 7 C-21.66 6.67 -22.32 6.34 -23 6 C-22.67 4.35 -22.34 2.7 -22 1 C-21.34 1 -20.68 1 -20 1 C-19.67 1.99 -19.34 2.98 -19 4 C-15.5891674 3.5939485 -13.11642813 3.06192985 -10.0625 1.4375 C-6.40804239 -0.27785765 -3.99371973 -0.45211921 0 0 Z " fill="#AD1D2E" transform="translate(34,2)"/>
<path d="M0 0 C0.99 0.33 1.98 0.66 3 1 C3 3.64 3 6.28 3 9 C3.33 8.34 3.66 7.68 4 7 C5.65 7.66 7.3 8.32 9 9 C7.63835184 14.14400416 4.3115928 17.1256048 0 20 C-2.2265625 20.671875 -2.2265625 20.671875 -4 21 C-3.01 19.68 -2.02 18.36 -1 17 C-1.68707031 17.44472656 -2.37414063 17.88945313 -3.08203125 18.34765625 C-4.43361328 19.19650391 -4.43361328 19.19650391 -5.8125 20.0625 C-6.70582031 20.63097656 -7.59914063 21.19945313 -8.51953125 21.78515625 C-11 23 -11 23 -14 22 C-13.2575 21.278125 -12.515 20.55625 -11.75 19.8125 C-7.42155588 15.38568215 -4.53749083 11.46976849 -2.25 5.6875 C-1.82203125 4.61886719 -1.3940625 3.55023438 -0.953125 2.44921875 C-0.63859375 1.64097656 -0.3240625 0.83273438 0 0 Z " fill="#A9ACB1" transform="translate(53,45)"/>
<path d="M0 0 C0.66 0 1.32 0 2 0 C2.27972656 0.845625 2.55945312 1.69125 2.84765625 2.5625 C5.21427242 9.25903451 7.53742959 14.42604265 12.546875 19.51171875 C14 21 14 21 15 23 C10.38486888 21.68139111 6.90102388 19.78644563 3 17 C2.9254644 18.2236068 2.9254644 18.2236068 4 20 C-0.43909781 18.60485497 -2.98024981 16.52304189 -6 13 C-6.8125 10.6875 -6.8125 10.6875 -7 9 C-5.68 8.34 -4.36 7.68 -3 7 C-2.34 7.66 -1.68 8.32 -1 9 C-1.20625 7.88625 -1.4125 6.7725 -1.625 5.625 C-1.74875 4.42875 -1.8725 3.2325 -2 2 C-1.34 1.34 -0.68 0.68 0 0 Z " fill="#ABAEB3" transform="translate(12,45)"/>
<path d="M0 0 C5.24091316 1.88672874 7.81537814 4.59772861 11 9 C11 9.66 11 10.32 11 11 C5.73840541 11.64165788 3.31407151 10.20577001 -0.6796875 7.09375 C-1.11539063 6.7328125 -1.55109375 6.371875 -2 6 C-4.30968238 7.11206929 -6.41573234 8.27377496 -8.5625 9.6875 C-9.7690625 10.3371875 -9.7690625 10.3371875 -11 11 C-11.99 10.67 -12.98 10.34 -14 10 C-14.99 10.33 -15.98 10.66 -17 11 C-15.86255538 6.16586038 -13.05786049 3.91209289 -9.15234375 1.171875 C-5.89929045 -0.5992974 -3.61753931 -0.60292322 0 0 Z " fill="#B3B6B9" transform="translate(36,12)"/>
<path d="M0 0 C0.9075 0.309375 1.815 0.61875 2.75 0.9375 C4.35875 1.4634375 4.35875 1.4634375 6 2 C6.66 2.268125 7.32 2.53625 8 2.8125 C11.14953752 3.10776914 13.28572646 1.47514866 16 0 C16.66 0 17.32 0 18 0 C18.125 2.875 18.125 2.875 18 6 C17.34 6.66 16.68 7.32 16 8 C15.67 7.01 15.34 6.02 15 5 C14.29875 5.53625 13.5975 6.0725 12.875 6.625 C10 8 10 8 6.8125 7.25 C5.19429205 6.53079647 3.58388148 5.79194074 2 5 C2 6.65 2 8.3 2 10 C-0.4294516 6.3558226 -0.16179575 4.28758728 0 0 Z " fill="#1F2E4D" transform="translate(24,29)"/>
<path d="M0 0 C3.61966519 0.9049163 6.07859842 2.76025879 9 5 C9.99 5.33 10.98 5.66 12 6 C12.33 5.34 12.66 4.68 13 4 C13 4.66 13 5.32 13 6 C14.65 6 16.3 6 18 6 C18 8.31 18 10.62 18 13 C17.01 13.495 17.01 13.495 16 14 C15.53348793 16.12576782 15.53348793 16.12576782 15.375 18.5625 C15.30023438 19.38878906 15.22546875 20.21507813 15.1484375 21.06640625 C15.09945312 21.70449219 15.05046875 22.34257813 15 23 C14.67 23 14.34 23 14 23 C13.6309795 12.44191344 13.6309795 12.44191344 16 8 C15.175 8.103125 14.35 8.20625 13.5 8.3125 C9.25295596 7.93329964 7.26083922 6.42690206 3.9296875 3.8984375 C2.00269737 2.72508396 2.00269737 2.72508396 -0.05859375 3.74609375 C-0.69925781 4.15988281 -1.33992188 4.57367188 -2 5 C-7.34597156 8.07109005 -7.34597156 8.07109005 -10.875 7.6875 C-11.57625 7.460625 -12.2775 7.23375 -13 7 C-12.34 6.67 -11.68 6.34 -11 6 C-10.67 5.01 -10.34 4.02 -10 3 C-9.67 3.66 -9.34 4.32 -9 5 C-6.25648576 4.00928652 -4.21135401 3.18493476 -2 1.25 C-1.01 0.63125 -1.01 0.63125 0 0 Z " fill="#243251" transform="translate(32,17)"/>
<path d="M0 0 C2.8124344 2.71930744 5.29958259 5.52744118 7.6875 8.625 C8.28949219 9.40101562 8.89148438 10.17703125 9.51171875 10.9765625 C11 13 11 13 12 15 C7.64236704 14.4971962 5.08094266 11.94698863 2 9 C0.17211232 5.59348204 0 3.95533952 0 0 Z " fill="#9FA3AA" transform="translate(18,48)"/>
<path d="M0 0 C0.33 0 0.66 0 1 0 C1 3.90313457 0.87611052 6.00013396 -1.7421875 8.98828125 C-4.76220489 11.65983509 -7.14465018 13.71488339 -11 15 C-9.67265823 12.1039816 -8.18177448 9.87272461 -6.0625 7.5 C-4.34806713 5.55558223 -2.73642716 3.64553997 -1.1875 1.5625 C-0.795625 1.046875 -0.40375 0.53125 0 0 Z " fill="#9FA3AA" transform="translate(47,49)"/>
<path d="M0 0 C4.78875567 1.89322899 7.2576978 4.14125663 10.21484375 8.18359375 C11.2156256 10.49883533 10.82505618 11.6683195 10 14 C9.34 13.01 8.68 12.02 8 11 C4.98741489 7.01036025 2.88636408 4.39610402 -2 3 C-1.34 2.01 -0.68 1.02 0 0 Z " fill="#162546" transform="translate(38,10)"/>
<path d="M0 0 C0 0.99 0 1.98 0 3 C-0.78375 3.165 -1.5675 3.33 -2.375 3.5 C-5.1093471 4.70396899 -5.1093471 4.70396899 -5.77734375 6.9140625 C-6.26413052 8.92516699 -6.63853255 10.962638 -7 13 C-7.33 13 -7.66 13 -8 13 C-8 11.35 -8 9.7 -8 8 C-9.32 7.67 -10.64 7.34 -12 7 C-12.33 7.66 -12.66 8.32 -13 9 C-13 7.68 -13 6.36 -13 5 C-11.783125 4.731875 -10.56625 4.46375 -9.3125 4.1875 C-5.77878956 3.31505639 -3.0231718 2.07843061 0 0 Z " fill="#808794" transform="translate(31,20)"/>
<path d="M0 0 C0 0.33 0 0.66 0 1 C-1.3303125 1.0928125 -1.3303125 1.0928125 -2.6875 1.1875 C-6.81611627 2.20017946 -8.21579141 3.84944817 -11 7 C-12.29579647 8.36984198 -13.61992749 9.7151049 -15 11 C-15.66 11 -16.32 11 -17 11 C-15.86278019 6.16681583 -13.05305051 3.9316595 -9.17578125 1.16015625 C-5.89205753 -0.59077004 -3.64828706 -0.45603588 0 0 Z " fill="#8F949E" transform="translate(36,12)"/>
<path d="M0 0 C1.32 0.33 2.64 0.66 4 1 C1.36 1.99 -1.28 2.98 -4 4 C-4 3.34 -4 2.68 -4 2 C-7.16666667 3.83333333 -7.16666667 3.83333333 -9 7 C-11.97 6.505 -11.97 6.505 -15 6 C-14.01 5.34 -13.02 4.68 -12 4 C-11.37222656 3.56300781 -10.74445312 3.12601563 -10.09765625 2.67578125 C-9.42605469 2.22589844 -8.75445312 1.77601562 -8.0625 1.3125 C-7.39347656 0.85488281 -6.72445313 0.39726562 -6.03515625 -0.07421875 C-3.49779276 -1.22845128 -2.58358366 -0.91512455 0 0 Z " fill="#381E3B" transform="translate(26,9)"/>
<path d="M0 0 C2.6875 0.6875 2.6875 0.6875 5 2 C5.33 2.66 5.66 3.32 6 4 C5.175 3.731875 4.35 3.46375 3.5 3.1875 C-0.96886431 2.94809655 -2.54414515 4.44210593 -6.09765625 6.91796875 C-8 8 -8 8 -11 7.8125 C-11.66 7.544375 -12.32 7.27625 -13 7 C-12.34 6.67 -11.68 6.34 -11 6 C-10.67 5.01 -10.34 4.02 -10 3 C-9.67 3.66 -9.34 4.32 -9 5 C-6.25648576 4.00928652 -4.21135401 3.18493476 -2 1.25 C-1.01 0.63125 -1.01 0.63125 0 0 Z " fill="#303D5A" transform="translate(32,17)"/>
<path d="M0 0 C3.79379058 1.49041773 5.68343758 3.69062512 8 7 C8 7.66 8 8.32 8 9 C6.02 9 4.04 9 2 9 C2.66 8.67 3.32 8.34 4 8 C2.35 5.69 0.7 3.38 -1 1 C-0.67 0.67 -0.34 0.34 0 0 Z " fill="#898F9A" transform="translate(39,14)"/>
<path d="M0 0 C0.76183594 0.41572266 0.76183594 0.41572266 1.5390625 0.83984375 C5.7077298 3.0334683 9.24131553 4.52413155 14 5 C13.67 6.32 13.34 7.64 13 9 C11.01501949 8.07487334 9.03713982 7.13449763 7.0625 6.1875 C5.96035156 5.66542969 4.85820313 5.14335937 3.72265625 4.60546875 C1 3 1 3 0 0 Z " fill="#808693" transform="translate(34,20)"/>
<path d="M0 0 C1.98 0.99 1.98 0.99 4 2 C3.34 4.64 2.68 7.28 2 10 C-0.4294516 6.3558226 -0.16179575 4.28758728 0 0 Z " fill="#34415C" transform="translate(24,29)"/>
<path d="M0 0 C3.43595166 1.52708963 6.11912454 3.59927045 9 6 C7.125 6.625 7.125 6.625 5 7 C2.84365964 4.84365964 1.52206009 2.62901288 0 0 Z " fill="#323F5B" transform="translate(12,60)"/>
<path d="M0 0 C0 3 0 3 -2 5.1875 C-2.66 5.785625 -3.32 6.38375 -4 7 C-5.32 6.34 -6.64 5.68 -8 5 C-4.04 2.525 -4.04 2.525 0 0 Z " fill="#323F5B" transform="translate(53,60)"/>
<path d="M0 0 C-1.25 1.5 -1.25 1.5 -3 3 C-4.32 3 -5.64 3 -7 3 C-7 2.34 -7 1.68 -7 1 C-7.66 0.67 -8.32 0.34 -9 0 C-5.93109813 -1.53445094 -3.29905734 -0.54984289 0 0 Z " fill="#8E1E31" transform="translate(32,4)"/>
</svg>
