<?xml version="1.0" encoding="UTF-8"?>
<svg version="1.1" xmlns="http://www.w3.org/2000/svg" width="500" height="439">
<path d="M0 0 C4.0441884 1.56549347 6.43174932 4.43492153 9.20361328 7.62719727 C10.25994041 8.81756918 11.31731878 10.00700883 12.37559509 11.19564819 C12.93491163 11.8262553 13.49422817 12.45686241 14.0704937 13.10657883 C41.5754672 47.15659702 41.5754672 47.15659702 79.00950623 65.48019409 C87.76289103 65.92466858 96.47302285 63.76121212 105 62 C104.86762436 63.09621674 104.73524872 64.19243347 104.59886169 65.3218689 C102.84040288 81.68532264 101.19843214 99.66456813 111.89501953 113.27832031 C118.78145919 121.45742573 126.78405353 128.59236271 134.80950928 135.62475586 C138.61843803 139.0063887 142.307394 142.51437201 146.00976562 146.01171875 C153.23106808 152.79936147 160.56928121 159.44276446 168 166 C163.47274793 171.73475398 158.24542235 176.44979994 152.7829895 181.25813293 C119.32834907 208.00111285 119.32834907 208.00111285 102.02761841 244.78620911 C101.78236645 253.63938553 104.09640523 262.40641384 106 271 C104.87119919 270.87024277 103.74239838 270.74048553 102.57939148 270.60679626 C86.06946506 268.9176944 67.52197178 267.06145399 53.73291016 277.80126953 C45.66632337 284.54913606 38.66336083 292.43324362 31.7701416 300.34594727 C28.45772197 304.09645645 25.01537374 307.72389053 21.58398438 311.36523438 C14.92755314 318.46563621 8.41952094 325.68516362 2 333 C-2.04340498 331.43573616 -4.42234715 328.56826281 -7.18774414 325.37280273 C-8.24081411 324.1824003 -9.29497487 322.99296217 -10.35006714 321.80435181 C-10.90776669 321.1737447 -11.46546623 320.54313759 -12.04006577 319.89342117 C-39.63834524 285.72921798 -39.63834524 285.72921798 -77.29086304 267.51980591 C-86.27902494 267.07372977 -95.23168042 269.24071522 -104 271 C-103.83765869 269.90378326 -103.67531738 268.80756653 -103.50805664 267.6781311 C-100.29267818 243.84166281 -100.29267818 243.84166281 -108.10488892 221.90954208 C-115.26091007 212.74094992 -124.0099487 205.00276697 -132.74084473 197.37524414 C-136.55804894 193.9955117 -140.25263749 190.48650322 -143.9609375 186.98828125 C-151.19614374 180.19751617 -158.5507751 173.55477319 -166 167 C-161.47520162 161.2740788 -156.25838283 156.55268121 -150.80851746 151.74186707 C-117.43697689 124.92980981 -117.43697689 124.92980981 -99.7462616 88.21379089 C-99.29812375 79.39975065 -101.34220744 70.61509473 -103 62 C-101.35174728 62.19463585 -101.35174728 62.19463585 -99.67019653 62.39320374 C-83.4038664 64.10223803 -65.36880411 65.81085164 -51.81542969 55.19873047 C-43.76057433 48.43434808 -36.74747985 40.55666864 -29.83880615 32.65405273 C-26.51761907 28.90542087 -23.06988465 25.27683413 -19.6328125 21.63476562 C-12.96345999 14.53186045 -6.43859715 7.31229148 0 0 Z " fill="#FDFBFA" transform="translate(249,0)"/>
<path d="M0 0 C38.472099 0 38.472099 0 48.06787109 9.04589844 C48.54047363 9.52575195 49.01307617 10.00560547 49.5 10.5 C50.03061035 11.01336914 50.5612207 11.52673828 51.10791016 12.05566406 C58.88928883 19.67814509 66.16873782 27.80936852 73.29296875 36.04296875 C75.33633431 38.3855915 77.41680859 40.69273422 79.5 43 C82.20919191 46.0025731 84.9032688 49.01559045 87.5625 52.0625 C91.34805035 56.39867586 95.17584808 60.69782909 99 65 C99.33 55.1 99.66 45.2 100 35 C95.38 35 90.76 35 86 35 C84.24250942 23.51772823 84.24250942 23.51772823 87.34326172 19.07568359 C91.46802041 14.56345824 96.23884549 10.81350164 101 7 C104.96 3.535 104.96 3.535 109 0 C125.17 0 141.34 0 158 0 C158 52.47 158 104.94 158 159 C120.90601901 159 120.90601901 159 109.7421875 149.30078125 C108.43853979 147.98565344 107.1495448 146.6558518 105.875 145.3125 C105.18833252 144.60697998 104.50166504 143.90145996 103.79418945 143.17456055 C99.32637857 138.53444322 95.12133175 133.7693872 91.13671875 128.70703125 C88.66327159 125.57339527 86.09040849 122.53693881 83.5 119.5 C79.37050631 114.64135245 75.30727279 109.73406876 71.28125 104.7890625 C67.22412951 99.82881588 63.10806696 94.91810833 59 90 C58.67 98.91 58.34 107.82 58 117 C62.62 117 67.24 117 72 117 C73.51869877 134.53253357 73.51869877 134.53253357 70.23046875 139.875 C67.62861807 142.09434921 64.80303725 144.04088794 62 146 C57.71 150.29 53.42 154.58 49 159 C32.83 159 16.66 159 0 159 C0 106.53 0 54.06 0 0 Z " fill="#DF2627" transform="translate(170,84)"/>
<path d="M0 0 C4.0441884 1.56549347 6.43174932 4.43492153 9.20361328 7.62719727 C10.25994041 8.81756918 11.31731878 10.00700883 12.37559509 11.19564819 C12.93491163 11.8262553 13.49422817 12.45686241 14.0704937 13.10657883 C41.5754672 47.15659702 41.5754672 47.15659702 79.00950623 65.48019409 C87.76289103 65.92466858 96.47302285 63.76121212 105 62 C104.86762436 63.09621674 104.73524872 64.19243347 104.59886169 65.3218689 C102.84040288 81.68532264 101.19843214 99.66456813 111.89501953 113.27832031 C118.78145919 121.45742573 126.78405353 128.59236271 134.80950928 135.62475586 C138.61843803 139.0063887 142.307394 142.51437201 146.00976562 146.01171875 C153.23106808 152.79936147 160.56928121 159.44276446 168 166 C163.47274793 171.73475398 158.24542235 176.44979994 152.7829895 181.25813293 C119.32834907 208.00111285 119.32834907 208.00111285 102.02761841 244.78620911 C101.78236645 253.63938553 104.09640523 262.40641384 106 271 C104.87119919 270.87024277 103.74239838 270.74048553 102.57939148 270.60679626 C86.06946506 268.9176944 67.52197178 267.06145399 53.73291016 277.80126953 C45.66632337 284.54913606 38.66336083 292.43324362 31.7701416 300.34594727 C28.45772197 304.09645645 25.01537374 307.72389053 21.58398438 311.36523438 C14.92755314 318.46563621 8.41952094 325.68516362 2 333 C-2.04340498 331.43573616 -4.42234715 328.56826281 -7.18774414 325.37280273 C-8.24081411 324.1824003 -9.29497487 322.99296217 -10.35006714 321.80435181 C-10.90776669 321.1737447 -11.46546623 320.54313759 -12.04006577 319.89342117 C-39.63834524 285.72921798 -39.63834524 285.72921798 -77.29086304 267.51980591 C-86.27902494 267.07372977 -95.23168042 269.24071522 -104 271 C-103.83765869 269.90378326 -103.67531738 268.80756653 -103.50805664 267.6781311 C-100.29267818 243.84166281 -100.29267818 243.84166281 -108.10488892 221.90954208 C-115.26091007 212.74094992 -124.0099487 205.00276697 -132.74084473 197.37524414 C-136.55804894 193.9955117 -140.25263749 190.48650322 -143.9609375 186.98828125 C-151.19614374 180.19751617 -158.5507751 173.55477319 -166 167 C-161.47520162 161.2740788 -156.25838283 156.55268121 -150.80851746 151.74186707 C-117.43697689 124.92980981 -117.43697689 124.92980981 -99.7462616 88.21379089 C-99.29812375 79.39975065 -101.34220744 70.61509473 -103 62 C-101.35174728 62.19463585 -101.35174728 62.19463585 -99.67019653 62.39320374 C-83.4038664 64.10223803 -65.36880411 65.81085164 -51.81542969 55.19873047 C-43.76057433 48.43434808 -36.74747985 40.55666864 -29.83880615 32.65405273 C-26.51761907 28.90542087 -23.06988465 25.27683413 -19.6328125 21.63476562 C-12.96345999 14.53186045 -6.43859715 7.31229148 0 0 Z M0 16 C-1.61544474 17.62204475 -3.15966529 19.31512367 -4.67285156 21.03295898 C-5.66004135 22.14288003 -6.6483156 23.25183721 -7.63751221 24.35997009 C-8.42864285 25.24861409 -8.42864285 25.24861409 -9.23575592 26.15521049 C-12.67032974 29.97584471 -16.19458074 33.71420244 -19.70872879 37.46151638 C-22.77381617 40.73962906 -25.79747368 44.04121289 -28.74462891 47.42602539 C-50.10828534 71.87101016 -50.10828534 71.87101016 -67.98766708 73.13280201 C-76.36014058 73.45808042 -84.68342409 72.95292171 -93 72 C-93 74.01667531 -92.99996369 76.03335064 -92.99975586 78.05002594 C-92.99991933 79.75717436 -93.00073877 81.46432284 -93.00219727 83.17147064 C-93.0045518 86.69003511 -93.00318847 90.2074358 -92.96484375 93.72583008 C-92.81363305 107.91128412 -92.81363305 107.91128412 -95.56640625 112.7578125 C-97.6001084 114.81937359 -99.62792687 116.33880638 -102 118 C-108.20339096 123.10808488 -113.87159907 128.73890331 -119.53125 134.43359375 C-120.40777222 135.31153091 -121.28429443 136.18946808 -122.18737793 137.0940094 C-124.96062796 139.87281496 -127.73036282 142.65509397 -130.5 145.4375 C-132.39010805 147.33319865 -134.28101518 149.22809783 -136.171875 151.12304688 C-140.78391004 155.74605189 -145.39307141 160.37190657 -150 165 C-148.44851792 168.8773702 -146.04200126 170.97949207 -142.92358398 173.70043945 C-141.85461645 174.64522365 -140.78647926 175.59094793 -139.71905518 176.53747559 C-139.15324989 177.03684128 -138.58744461 177.53620697 -138.00449371 178.05070496 C-92.75466758 218.26129816 -92.75466758 218.26129816 -91.00526428 236.97221375 C-90.74785869 245.12265225 -91.85282247 253.15080329 -94 261 C-93.10659912 260.74226807 -92.21319824 260.48453613 -91.29272461 260.21899414 C-79.22505404 257.12302076 -66.40994422 256.40370407 -55 262 C-43.71551346 269.38756866 -34.29671697 279.84369785 -25.0625 289.5625 C-24.12605715 290.54773588 -24.12605715 290.54773588 -23.17069626 291.55287552 C-15.27892155 299.88644384 -7.56817547 308.37175746 0 317 C3.8773702 315.44851792 5.97949207 313.04200126 8.70043945 309.92358398 C9.64522365 308.85461645 10.59094793 307.78647926 11.53747559 306.71905518 C12.03684128 306.15324989 12.53620697 305.58744461 13.05070496 305.00449371 C53.26129816 259.75466758 53.26129816 259.75466758 71.97221375 258.00526428 C80.12265225 257.74785869 88.15080329 258.85282247 96 261 C95.81763794 259.45566284 95.81763794 259.45566284 95.6315918 257.88012695 C92.37411177 226.90641869 92.37411177 226.90641869 101.43809509 215.27128601 C108.27772858 207.41571245 116.26100381 200.69210728 124.42092896 194.25430298 C130.98798894 189.0378924 136.99265602 183.21588037 142.9375 177.3125 C143.70384766 176.56677734 144.47019531 175.82105469 145.25976562 175.05273438 C145.98744141 174.33021484 146.71511719 173.60769531 147.46484375 172.86328125 C148.120896 172.21657471 148.77694824 171.56986816 149.45288086 170.90356445 C151.2228555 168.72580016 151.87775295 167.80892754 152 165 C150.43399163 162.94139905 148.93689349 161.2844885 147.09643555 159.49707031 C146.56334778 158.96003983 146.03026001 158.42300934 145.48101807 157.8697052 C143.7114984 156.09345932 141.92464925 154.33582273 140.13671875 152.578125 C138.90602185 151.35167621 137.67628183 150.12426653 136.44746399 148.89593506 C133.86813138 146.3227749 131.28073368 143.75811334 128.68676758 141.19970703 C125.35557866 137.91381479 122.03986958 134.61283564 118.7294035 131.30607986 C116.190086 128.77118308 113.64537566 126.24176228 111.09870338 123.71425629 C109.87398155 122.49843716 108.65034661 121.28152221 107.42780113 120.06351471 C105.7208525 118.36557153 104.00740849 116.67448564 102.29174805 114.98535156 C101.52874138 114.2233419 101.52874138 114.2233419 100.75032043 113.44593811 C98.32285414 110.77442965 98.32285414 110.77442965 95 110 C95 97.46 95 84.92 95 72 C83.36264463 72.10535416 83.36264463 72.10535416 71.72753906 72.33276367 C64.14084998 72.37600604 58.08594765 72.11343356 52.2109375 66.84375 C50.71448082 65.27592587 49.27406163 63.67112274 47.84521484 62.04135132 C44.3041296 58.12386764 40.48771819 54.47057242 36.73703003 50.7553196 C34.27981218 48.31330277 31.84109158 45.85301891 29.40234375 43.39257812 C28.90947372 42.89570653 28.4166037 42.39883493 27.90879822 41.88690662 C25.36761536 39.32453553 22.8283942 36.76023526 20.29052734 34.19458008 C17.80405557 31.68141619 15.31280292 29.17307557 12.81850052 26.66768456 C11.41766508 25.25763529 10.0224341 23.84202535 8.62728882 22.42634583 C7.36424423 21.15823311 7.36424423 21.15823311 6.07568359 19.86450195 C5.334664 19.11602493 4.59364441 18.36754791 3.83016968 17.59638977 C2.15356338 15.78088809 2.15356338 15.78088809 0 16 Z " fill="#D92A2B" transform="translate(249,0)"/>
<path d="M0 0 C21.08268836 -0.84690501 21.08268836 -0.84690501 27.140625 2.98828125 C29.37556658 5.86726133 31.14311201 8.86424362 33 12 C35.17612621 14.71010236 37.49256029 17.28780375 39.8125 19.875 C43.2994313 23.84946113 46.73366243 27.83996717 50 32 C53.71786343 30.76071219 54.55103725 29.32529278 56.9375 26.25 C61.00104387 21.14895557 65.28273997 16.34265913 69.74975586 11.59277344 C70.46917358 10.82562012 70.46917358 10.82562012 71.203125 10.04296875 C71.68177002 9.54474609 72.16041504 9.04652344 72.65356445 8.53320312 C74.25176769 6.79223765 74.25176769 6.79223765 76.12109375 3.66796875 C80.54995488 -0.43638966 84.97901445 0.11074591 90.8125 0.125 C91.88693359 0.104375 92.96136719 0.08375 94.06835938 0.0625 C96.71301554 0.01548389 99.3550121 -0.0044491 102 0 C100.58814227 3.20510754 98.83322578 5.25920426 96.43139648 7.77905273 C91.49284576 14.06825664 92.01736134 20.92806852 92.09765625 28.53515625 C92.08825683 30.02447176 92.07579023 31.51377075 92.06040955 33.0030365 C92.02835399 36.89461607 92.0375626 40.78501022 92.05578613 44.67663574 C92.0669923 48.65890176 92.0385943 52.64087208 92.01367188 56.62304688 C91.97066663 64.41570124 91.9749815 72.20721272 92 80 C86.06 80 80.12 80 74 80 C74 65.48 74 50.96 74 36 C66.9203367 43.82285307 66.9203367 43.82285307 60.1875 51.875 C57.60212453 55.10554203 54.976599 58.1237358 52 61 C48.26676074 59.75558691 47.40139836 58.27312032 45 55.1875 C39.92498441 48.90716821 34.45617201 42.95218764 29 37 C28.67 51.19 28.34 65.38 28 80 C22.06 80 16.12 80 10 80 C10.01683838 77.99768311 10.03367676 75.99536621 10.05102539 73.93237305 C10.10035098 67.27861361 10.09969391 60.62551269 10.07515812 53.97163677 C10.06180335 49.94141209 10.06470813 45.91263116 10.10620117 41.88256836 C10.14570829 37.98497421 10.14063776 34.08964202 10.10607719 30.19202614 C10.10052564 28.71344359 10.11039963 27.23471124 10.13676643 25.75635338 C10.29692729 16.05460258 8.81596023 10.16277742 1.93016052 2.94319153 C1.29320755 2.30193832 0.65625458 1.66068512 0 1 C0 0.67 0 0.34 0 0 Z " fill="#DB292A" transform="translate(178,359)"/>
<path d="M0 0 C20.03162874 -1.28738594 20.03162874 -1.28738594 25.99072266 2.14746094 C29.30032005 5.19912727 31.44797781 9.00960274 33.67919922 12.88085938 C36.12531698 16.80549934 39.19858556 20.23298529 42.1875 23.75 C43.38247366 25.19083256 44.5752534 26.63348804 45.765625 28.078125 C46.32314453 28.75294922 46.88066406 29.42777344 47.45507812 30.12304688 C53.10092033 36.98228121 58.54548695 43.98705465 64 51 C64.33 34.17 64.66 17.34 65 0 C70.94 0 76.88 0 83 0 C83 26.4 83 52.8 83 80 C76.73 80 70.46 80 64 80 C57.30979864 73.10072984 57.30979864 73.10072984 55.46875 69.92578125 C53.13668249 66.11568214 50.45141906 62.84165937 47.5 59.5 C43.01601106 54.28602185 38.73853501 48.92824049 34.52734375 43.4921875 C32.76360715 41.21927694 31.03677958 39.03677958 29 37 C28.67 51.19 28.34 65.38 28 80 C22.06 80 16.12 80 10 80 C10.01683838 77.99244629 10.03367676 75.98489258 10.05102539 73.91650391 C10.10031644 67.25076352 10.09970748 60.58568107 10.07515812 53.9198246 C10.06179449 49.88172531 10.06474432 45.84506701 10.10620117 41.80712891 C10.14566305 37.90305595 10.14067235 34.0012429 10.10607719 30.0971489 C10.10051895 28.61494882 10.11043205 27.13259985 10.13676643 25.65062332 C10.26563189 17.81702398 9.95251468 12.18386001 4.43139648 6.13427734 C3.60598862 5.37239105 2.78058075 4.61050476 1.93016052 3.82553101 C1.29320755 3.22310577 0.65625458 2.62068054 0 2 C0 1.34 0 0.68 0 0 Z " fill="#DC2828" transform="translate(0,359)"/>
<path d="M0 0 C6.6 0 13.2 0 20 0 C23.0768973 6.12858366 26.15086102 12.25862773 29.22241211 18.38989258 C30.26202204 20.4641642 31.30235649 22.53807291 32.34350586 24.61157227 C39.33197715 38.53103831 46.17130685 52.51114718 52.83505249 66.58908081 C53.95386443 68.90452005 55.12703276 71.18482797 56.31176758 73.46704102 C58 77 58 77 58 80 C51.4 80 44.8 80 38 80 C36.35 76.7 34.7 73.4 33 70 C28.69442718 70.0691735 24.38976978 70.15728014 20.08496094 70.26245117 C18.62250292 70.29557135 17.15992105 70.32364305 15.69726562 70.34643555 C13.58670597 70.38022175 11.47726814 70.4325438 9.3671875 70.48828125 C7.46622314 70.52755737 7.46622314 70.52755737 5.52685547 70.56762695 C1.70069123 71.03669361 -0.74622083 71.95462177 -4 74 C-4.87398438 75.56621094 -4.87398438 75.56621094 -5.765625 77.1640625 C-8 80 -8 80 -10.08789062 80.48339844 C-12.66599484 80.59090477 -15.17409688 80.52339028 -17.75 80.375 C-18.63816406 80.34792969 -19.52632813 80.32085937 -20.44140625 80.29296875 C-22.63008395 80.22236624 -24.81379568 80.12385527 -27 80 C-22.14739016 68.65000706 -16.94139447 57.51592639 -11.5 46.4375 C-9.34601955 42.04151355 -7.19625481 37.64363628 -5.0625 33.23779297 C-3.69114313 30.406198 -2.29231555 27.59058066 -0.875 24.78173828 C-0.21825883 23.44978634 0.43801304 22.11760286 1.09375 20.78515625 C1.67833984 19.61992432 2.26292969 18.45469238 2.86523438 17.25415039 C4.57876342 12.3402888 3.64263181 9.33667415 1.4375 4.75 C0.963125 3.8425 0.48875 2.935 0 2 C0 1.34 0 0.68 0 0 Z " fill="#DC292A" transform="translate(442,359)"/>
<path d="M0 0 C2.03833146 1.81894158 2.97765133 3.27092706 3.99609375 5.78125 C3.35800781 6.40773438 2.71992188 7.03421875 2.0625 7.6796875 C1.23621094 8.49695313 0.40992188 9.31421875 -0.44140625 10.15625 C-1.26511719 10.96835937 -2.08882813 11.78046875 -2.9375 12.6171875 C-5.03825297 14.60473515 -5.03825297 14.60473515 -6.00390625 16.78125 C-9.00390625 15.78125 -9.00390625 15.78125 -11.25390625 13.40625 C-16.54654384 8.35418684 -20.78700666 7.57305768 -27.94140625 7.34375 C-35.66024077 7.52402002 -40.00763926 9.25106899 -45.81640625 14.15625 C-50.88177996 20.23469846 -52.52335319 25.98954587 -52.00390625 33.78125 C-50.41418229 40.62514637 -46.89574699 46.16352379 -41.03515625 50.10546875 C-34.91992334 53.26279009 -28.76997033 53.70430245 -22.00390625 52.78125 C-18.51958117 51.66965559 -14.64507954 50.42242329 -12.00390625 47.78125 C-11.63629894 45.45307036 -11.30149044 43.1194115 -11.00390625 40.78125 C-13.97390625 40.78125 -16.94390625 40.78125 -20.00390625 40.78125 C-22.31390625 35.17125 -24.62390625 29.56125 -27.00390625 23.78125 C-24.10743603 22.33301489 -21.69225708 22.77605366 -18.46484375 22.90234375 C-16.51191406 22.97485352 -16.51191406 22.97485352 -14.51953125 23.04882812 C-13.13931821 23.10535394 -11.75910993 23.16199608 -10.37890625 23.21875 C-8.99090406 23.27197293 -7.60288328 23.32471332 -6.21484375 23.37695312 C-2.81098484 23.50696163 0.59260492 23.64193883 3.99609375 23.78125 C4.22022003 28.19174877 4.38260864 32.59915708 4.49047852 37.01367188 C4.53547608 38.5116554 4.59670346 40.0092494 4.67504883 41.50585938 C5.30706768 53.89838597 5.30706768 53.89838597 2.09326172 58.51416016 C-0.18092783 60.56647756 -2.3796186 62.20881342 -5.00390625 63.78125 C-5.72022217 64.21920898 -6.43653809 64.65716797 -7.17456055 65.10839844 C-16.8979262 70.67795474 -28.91119043 71.21457482 -39.62890625 68.65625 C-50.78570217 65.20486709 -60.3502723 58.24016078 -65.87890625 47.84375 C-70.62461398 37.29416998 -71.36570024 26.58085576 -67.37890625 15.53125 C-62.60185991 5.00468716 -54.69477721 -2.33405248 -44.19140625 -7.09375 C-28.492819 -12.63442785 -13.27308999 -9.34425536 0 0 Z " fill="#DB2A2A" transform="translate(400.00390625,369.21875)"/>
<path d="M0 0 C-0.33 4.95 -0.66 9.9 -1 15 C-15.52 15 -30.04 15 -45 15 C-44.505 22.92 -44.505 22.92 -44 31 C-41.69 30.34 -39.38 29.68 -37 29 C-34.00219727 28.77294922 -34.00219727 28.77294922 -31.06640625 28.8046875 C-29.47602539 28.81435547 -29.47602539 28.81435547 -27.85351562 28.82421875 C-26.22446289 28.84935547 -26.22446289 28.84935547 -24.5625 28.875 C-23.44939453 28.88402344 -22.33628906 28.89304687 -21.18945312 28.90234375 C-18.45954191 28.92577646 -15.72974231 28.96164297 -13 29 C-13 34.61 -13 40.22 -13 46 C-15.83658203 46.09087891 -15.83658203 46.09087891 -18.73046875 46.18359375 C-21.21615318 46.26801322 -23.70182987 46.35266052 -26.1875 46.4375 C-28.05631836 46.49647461 -28.05631836 46.49647461 -29.96289062 46.55664062 C-31.16494141 46.59853516 -32.36699219 46.64042969 -33.60546875 46.68359375 C-35.26292114 46.73858032 -35.26292114 46.73858032 -36.95385742 46.79467773 C-40.34895156 46.95736051 -40.34895156 46.95736051 -45 48 C-45 53.28 -45 58.56 -45 64 C-29.82 64 -14.64 64 1 64 C1 68.95 1 73.9 1 79 C-19.46 79 -39.92 79 -61 79 C-61 52.93 -61 26.86 -61 0 C-51.30625 -0.185625 -41.6125 -0.37125 -31.625 -0.5625 C-28.56299316 -0.62381104 -25.50098633 -0.68512207 -22.34619141 -0.74829102 C-19.93132253 -0.79223933 -17.51644663 -0.83580432 -15.1015625 -0.87890625 C-13.20603638 -0.9189679 -13.20603638 -0.9189679 -11.2722168 -0.95983887 C-10.07459717 -0.98026245 -8.87697754 -1.00068604 -7.64306641 -1.02172852 C-6.59937897 -1.04171402 -5.55569153 -1.06169952 -4.4803772 -1.08229065 C-2 -1 -2 -1 0 0 Z " fill="#DA2B2C" transform="translate(166,360)"/>
<path d="M0 0 C1.34204102 1.36328125 1.34204102 1.36328125 2.94140625 3.3125 C7.64135929 8.83984949 12.78755691 13.89642127 17.9375 19 C18.9175531 19.97502386 19.8973724 20.9502828 20.87695312 21.92578125 C23.24902313 24.28616618 25.6234086 26.64416905 28 29 C26.35503261 33.15125625 23.34271245 35.99807357 20.2578125 39.11328125 C19.41064163 39.97399483 19.41064163 39.97399483 18.5463562 40.85209656 C17.35378977 42.05913623 16.15842146 43.26341323 14.96044922 44.46508789 C13.12604751 46.31144566 11.3111236 48.1756365 9.49609375 50.04101562 C8.33448555 51.21208154 7.17176243 52.38204281 6.0078125 53.55078125 C5.46601349 54.11211258 4.92421448 54.67344391 4.36599731 55.25178528 C2.80908203 56.7902832 2.80908203 56.7902832 0 59 C-4.65110362 58.53334362 -7.19631694 55.18088526 -10.296875 51.99609375 C-10.89050842 51.39821548 -11.48414185 50.80033722 -12.09576416 50.18434143 C-13.98767195 48.27565898 -15.86887499 46.3568046 -17.75 44.4375 C-19.03186002 43.14059164 -20.3144043 41.84435922 -21.59765625 40.54882812 C-24.73976072 37.37367043 -27.87230539 34.18935054 -31 31 C-29.34505714 26.73294513 -26.15086959 23.8628007 -22.96875 20.703125 C-22.37703003 20.10949158 -21.78531006 19.51585815 -21.17565918 18.90423584 C-19.92734419 17.65456282 -18.67651177 16.40740008 -17.42333984 15.16259766 C-15.49992003 13.24992048 -13.58743901 11.32676881 -11.67578125 9.40234375 C-10.46157861 8.18946202 -9.24675607 6.97720048 -8.03125 5.765625 C-7.45725464 5.18758118 -6.88325928 4.60953735 -6.29187012 4.01397705 C-2.22993434 0 -2.22993434 0 0 0 Z " fill="#DD2627" transform="translate(251,229)"/>
<path d="M0 0 C1.34204102 1.36328125 1.34204102 1.36328125 2.94140625 3.3125 C7.64135929 8.83984949 12.78755691 13.89642127 17.9375 19 C18.9175531 19.97502386 19.8973724 20.9502828 20.87695312 21.92578125 C23.24902313 24.28616618 25.6234086 26.64416905 28 29 C26.36221955 33.19625909 23.26676818 35.98676785 20.1171875 39.078125 C19.54292023 39.64956238 18.96865295 40.22099976 18.37698364 40.80975342 C16.5476419 42.62792945 14.71145807 44.43901492 12.875 46.25 C11.63105226 47.48391329 10.3875573 48.71828322 9.14453125 49.953125 C6.10157633 52.97406743 3.05246746 55.98867092 0 59 C-4.08290097 57.38448553 -6.78433836 54.45360304 -9.7890625 51.37109375 C-10.33356049 50.8213942 -10.87805847 50.27169464 -11.4390564 49.70533752 C-13.17253779 47.95408824 -14.89916551 46.19628312 -16.625 44.4375 C-18.35884152 42.67604189 -20.09412183 40.91606377 -21.83236694 39.15895081 C-22.91247367 38.06658495 -23.98989603 36.97155704 -25.06436157 35.87364197 C-27.76313489 33.08448055 -27.76313489 33.08448055 -31 31 C-29.34505714 26.73294513 -26.15086959 23.8628007 -22.96875 20.703125 C-22.37703003 20.10949158 -21.78531006 19.51585815 -21.17565918 18.90423584 C-19.92734419 17.65456282 -18.67651177 16.40740008 -17.42333984 15.16259766 C-15.49992003 13.24992048 -13.58743901 11.32676881 -11.67578125 9.40234375 C-10.46157861 8.18946202 -9.24675607 6.97720048 -8.03125 5.765625 C-7.45725464 5.18758118 -6.88325928 4.60953735 -6.29187012 4.01397705 C-2.22993434 0 -2.22993434 0 0 0 Z " fill="#DD2526" transform="translate(251,41)"/>
<path d="M0 0 C6.6 0 13.2 0 20 0 C20 26.4 20 52.8 20 80 C13.73 80 7.46 80 1 80 C0.67 53.6 0.34 27.2 0 0 Z " fill="#DC2B2C" transform="translate(291,359)"/>
<path d="M0 0 C4.04195067 2.02097533 6.7372619 4.39815441 9.89453125 7.5234375 C10.44614426 8.06602203 10.99775726 8.60860657 11.56608582 9.16763306 C12.72604491 10.3131221 13.8832449 11.46141101 15.0378418 12.61230469 C16.81178562 14.37429044 18.60353036 16.11676416 20.39648438 17.859375 C21.52197714 18.97541018 22.64636557 20.0925604 23.76953125 21.2109375 C24.3089888 21.73086273 24.84844635 22.25078796 25.4042511 22.78646851 C26.88208008 24.28271484 26.88208008 24.28271484 29 27 C28.51726265 31.64128025 25.2058656 34.18957311 22.03125 37.296875 C21.43574341 37.89050842 20.84023682 38.48414185 20.22668457 39.09576416 C18.96923431 40.34650088 17.70819573 41.59363893 16.44384766 42.83740234 C14.50027875 44.74972573 12.56766928 46.67260026 10.63671875 48.59765625 C9.41468519 49.81052355 8.19204957 51.02278461 6.96875 52.234375 C6.3864563 52.81241882 5.8041626 53.39046265 5.20422363 53.98602295 C1.11715932 58 1.11715932 58 0 58 C0 38.86 0 19.72 0 0 Z " fill="#DC2828" transform="translate(344,136)"/>
<path d="M0 0 C0.66 0 1.32 0 2 0 C2 19.14 2 38.28 2 58 C-3.87902865 52.96083259 -9.48330563 47.80047283 -14.98242188 42.36767578 C-16.00322465 41.36362363 -17.02938622 40.36499369 -18.06054688 39.37158203 C-19.56295013 37.923648 -21.04849524 36.46020309 -22.53125 34.9921875 C-23.41361328 34.12964355 -24.29597656 33.26709961 -25.20507812 32.37841797 C-27 30 -27 30 -27.01611328 27.9453125 C-25.72924334 25.48164606 -24.19150523 23.83709954 -22.2109375 21.8828125 C-21.43363281 21.11066406 -20.65632812 20.33851563 -19.85546875 19.54296875 C-19.03691406 18.74503906 -18.21835938 17.94710937 -17.375 17.125 C-16.18197266 15.93970703 -16.18197266 15.93970703 -14.96484375 14.73046875 C-11.39931213 11.21177498 -7.81009129 7.78096339 -3.9765625 4.5546875 C-1.00956819 2.3420194 -1.00956819 2.3420194 0 0 Z " fill="#DC2829" transform="translate(153,136)"/>
<path d="M0 0 C5.94 0 11.88 0 18 0 C18 26.4 18 52.8 18 80 C11.73 80 5.46 80 -1 80 C-1 79.67 -1 79.34 -1 79 C4.61 79 10.22 79 16 79 C16 53.59 16 28.18 16 2 C11.05 2 6.1 2 1 2 C1 18.83 1 35.66 1 53 C0.01 53 -0.98 53 -2 53 C-1.67 52.34 -1.34 51.68 -1 51 C-0.88127427 49.36664808 -0.82290908 47.72872646 -0.79467773 46.09130859 C-0.7647599 44.55994766 -0.7647599 44.55994766 -0.73423767 42.99765015 C-0.70916893 41.33978989 -0.70916893 41.33978989 -0.68359375 39.6484375 C-0.66281265 38.5192691 -0.64203156 37.39010071 -0.62062073 36.22671509 C-0.55508665 32.60954028 -0.49622226 28.99229119 -0.4375 25.375 C-0.39431846 22.92707556 -0.35070429 20.47915872 -0.30664062 18.03125 C-0.19940129 12.02091001 -0.0981447 6.0104951 0 0 Z " fill="#B73F3F" transform="translate(65,359)"/>
<path d="M0 0 C0.66 0 1.32 0 2 0 C3.50626117 3.12202006 5.00393243 6.24808399 6.5 9.375 C6.92925781 10.26445312 7.35851562 11.15390625 7.80078125 12.0703125 C8.40986328 13.34648437 8.40986328 13.34648437 9.03125 14.6484375 C9.40830078 15.43395996 9.78535156 16.21948242 10.17382812 17.02880859 C11 19 11 19 11 21 C0.605 21.495 0.605 21.495 -10 22 C-9.2215957 18.10797848 -8.71895474 16.08708551 -6.93359375 12.79296875 C-6.3293457 11.66665039 -6.3293457 11.66665039 -5.71289062 10.51757812 C-5.29201172 9.74865234 -4.87113281 8.97972656 -4.4375 8.1875 C-4.01275391 7.39923828 -3.58800781 6.61097656 -3.15039062 5.79882812 C-2.10603446 3.8626622 -1.0557923 1.92994633 0 0 Z " fill="#F7F0F0" transform="translate(456,391)"/>
<path d="M0 0 C4.83559963 0.4459559 6.8881947 2.40073261 10.24926758 5.79516602 C10.74742981 6.29274414 11.24559204 6.79032227 11.7588501 7.30297852 C13.3970752 8.94398217 15.02068957 10.59867868 16.64453125 12.25390625 C17.77994203 13.39678021 18.91624134 14.53877208 20.0533905 15.67991638 C23.03952367 18.68129968 26.01344839 21.69450142 28.98498535 24.71032715 C32.02111626 27.78742382 35.06864558 30.8531853 38.11523438 33.91992188 C44.08803437 39.93558182 50.04798397 45.96377557 56 52 C55.34 52.66 54.68 53.32 54 54 C36 36 18 18 0 0 Z " fill="#D03F3D" transform="translate(249,15)"/>
<path d="M0 0 C3.2908988 1.09696627 3.96796717 1.84801856 6.125 4.4375 C8.86831895 7.67276433 11.65231352 10.85588199 14.5 14 C17.20919191 17.0025731 19.9032688 20.01559045 22.5625 23.0625 C26.34805035 27.39867586 30.17584808 31.69782909 34 36 C34.33 26.43 34.66 16.86 35 7 C35.33 7 35.66 7 36 7 C36 17.23 36 27.46 36 38 C29.07054749 36.26763687 25.39971451 30.55479527 21.0625 25.125 C16.13578457 18.97089727 10.71681544 13.3210302 5.23266602 7.66259766 C4.55647217 6.95796387 3.88027832 6.25333008 3.18359375 5.52734375 C2.57056396 4.89562256 1.95753418 4.26390137 1.32592773 3.61303711 C0 2 0 2 0 0 Z " fill="#C13535" transform="translate(235,113)"/>
<path d="M0 0 C0.33 0.66 0.66 1.32 1 2 C-0.0828125 3.2684375 -0.0828125 3.2684375 -1.1875 4.5625 C-3.06502175 6.79764495 -4.75029911 9.07644286 -6.375 11.5 C-8.6434795 14.73864683 -11.24530588 17.10657945 -14.3046875 19.58984375 C-16.22456527 21.13748351 -16.22456527 21.13748351 -18.625 23.6875 C-22.01818121 26.99138697 -25.79947242 28.91305712 -30 31 C-24.33425951 24.07189276 -17.96966361 17.85795858 -11.625 11.5625 C-10.49586045 10.43838533 -9.36695222 9.31403826 -8.23828125 8.18945312 C-5.49484812 5.45694765 -2.74830015 2.72760991 0 0 Z " fill="#D13435" transform="translate(223,26)"/>
<path d="M0 0 C3.66771845 1.83385923 5.46834996 3.25062829 8.25 6.125 C8.95640625 6.84945312 9.6628125 7.57390625 10.390625 8.3203125 C11.18726563 9.15175781 11.18726563 9.15175781 12 10 C11.34 10.66 10.68 11.32 10 12 C7.36 9.36 4.72 6.72 2 4 C2 21.49 2 38.98 2 57 C1.01 57.495 1.01 57.495 0 58 C0 38.86 0 19.72 0 0 Z " fill="#CD3E3E" transform="translate(344,136)"/>
<path d="M0 0 C4.19625909 1.63778045 6.98676785 4.73323182 10.078125 7.8828125 C10.64956238 8.45707977 11.22099976 9.03134705 11.80975342 9.62301636 C13.62792945 11.4523581 15.43901492 13.28854193 17.25 15.125 C18.48391329 16.36894774 19.71828322 17.6124427 20.953125 18.85546875 C23.97406743 21.89842367 26.98867092 24.94753254 30 28 C29.34 28.66 28.68 29.32 28 30 C24.00602615 26.05534383 20.01857403 22.10425446 16.03710938 18.14697266 C14.68082557 16.80076671 13.32275497 15.45635851 11.96289062 14.11376953 C10.01223399 12.18728284 8.06802606 10.25449117 6.125 8.3203125 C5.51253418 7.71816925 4.90006836 7.116026 4.26904297 6.49563599 C2.80757815 5.03456499 1.39820649 3.52171827 0 2 C0 1.34 0 0.68 0 0 Z " fill="#CF3C3D" transform="translate(99,168)"/>
<path d="M0 0 C0.66 0 1.32 0 2 0 C2 19.14 2 38.28 2 58 C0.02 56.35 -1.96 54.7 -4 53 C-4 52.34 -4 51.68 -4 51 C-2.68 51.33 -1.36 51.66 0 52 C0 34.84 0 17.68 0 0 Z " fill="#CC3636" transform="translate(153,136)"/>
<path d="M0 0 C0.33 0.66 0.66 1.32 1 2 C-1.04566189 6.22189794 -4.06638616 9.37003936 -7.375 12.625 C-7.84421875 13.10195312 -8.3134375 13.57890625 -8.796875 14.0703125 C-15.76506076 21 -15.76506076 21 -21 21 C-14.07 14.07 -7.14 7.14 0 0 Z " fill="#D23C3C" transform="translate(371,196)"/>
<path d="M0 0 C10.23 0.33 20.46 0.66 31 1 C31 11.56 31 22.12 31 33 C30.67 33 30.34 33 30 33 C30 22.77 30 12.54 30 2 C25.75125 2.103125 21.5025 2.20625 17.125 2.3125 C15.7858252 2.33739502 14.44665039 2.36229004 13.06689453 2.38793945 C11.49077393 2.43760864 11.49077393 2.43760864 9.8828125 2.48828125 C8.80402832 2.51446533 7.72524414 2.54064941 6.61376953 2.56762695 C5.75122559 2.71031006 4.88868164 2.85299316 4 3 C3.01 4.485 3.01 4.485 2 6 C1.34 4.02 0.68 2.04 0 0 Z " fill="#B63A3B" transform="translate(373,392)"/>
<path d="M0 0 C3.66752005 1.5391801 5.98580573 3.75485452 8.765625 6.5703125 C9.65507812 7.46621094 10.54453125 8.36210937 11.4609375 9.28515625 C12.38132813 10.22230469 13.30171875 11.15945313 14.25 12.125 C15.19484856 13.07988637 16.14015633 14.03431859 17.0859375 14.98828125 C19.39518338 17.32109087 21.69963203 19.65844086 24 22 C23.34 22.66 22.68 23.32 22 24 C18.86050859 20.90984779 15.72756243 17.81325304 12.60058594 14.71044922 C11.5353174 13.65525491 10.46826303 12.60186036 9.39941406 11.55029297 C7.86573784 10.04080273 6.33854432 8.52501301 4.8125 7.0078125 C3.89082031 6.09660645 2.96914062 5.18540039 2.01953125 4.24658203 C0 2 0 2 0 0 Z " fill="#CE3E3E" transform="translate(225,263)"/>
<path d="M0 0 C1.32 0.66 2.64 1.32 4 2 C3.29875 2.53625 2.5975 3.0725 1.875 3.625 C-0.2550913 5.38464064 -2.09798456 7.08657205 -4 9.0625 C-7.54280219 12.66889095 -11.51133398 14.76513675 -16 17 C-11.01595832 10.96668638 -5.58084697 5.4815829 0 0 Z " fill="#CE3B3B" transform="translate(249,0)"/>
<path d="M0 0 C3.04332765 1.3584202 5.12309151 2.88463024 7.453125 5.2578125 C8.071875 5.88300781 8.690625 6.50820312 9.328125 7.15234375 C9.96234375 7.80332031 10.5965625 8.45429688 11.25 9.125 C11.8996875 9.78371094 12.549375 10.44242188 13.21875 11.12109375 C14.81711727 12.74296643 16.41061897 14.3693281 18 16 C17.34 16.66 16.68 17.32 16 18 C13.32529045 15.38308836 10.66165519 12.75518292 8 10.125 C7.236875 9.37863281 6.47375 8.63226563 5.6875 7.86328125 C4.965625 7.14785156 4.24375 6.43242187 3.5 5.6953125 C2.8296875 5.03547363 2.159375 4.37563477 1.46875 3.69580078 C0 2 0 2 0 0 Z " fill="#CE3939" transform="translate(133,202)"/>
<path d="M0 0 C0.66 1.32 1.32 2.64 2 4 C7.94 4 13.88 4 20 4 C20.33 3.01 20.66 2.02 21 1 C21.33 2.65 21.66 4.3 22 6 C18.70849875 6.08685287 15.4172904 6.14033895 12.125 6.1875 C11.18785156 6.21263672 10.25070312 6.23777344 9.28515625 6.26367188 C8.38925781 6.27333984 7.49335938 6.28300781 6.5703125 6.29296875 C5.74289551 6.3086792 4.91547852 6.32438965 4.06298828 6.34057617 C3.38220215 6.22818604 2.70141602 6.1157959 2 6 C0 3 0 3 0 0 Z " fill="#CA4648" transform="translate(478,433)"/>
<path d="M0 0 C5.33845574 -0.12368107 10.67607624 -0.21437609 16.015625 -0.2746582 C17.83152799 -0.299789 19.64732996 -0.33389961 21.46289062 -0.37719727 C24.07447223 -0.43791511 26.68471594 -0.46622281 29.296875 -0.48828125 C30.10743347 -0.51408768 30.91799194 -0.5398941 31.75311279 -0.56648254 C35.86660087 -0.56852529 37.56817326 -0.42954743 40.54394531 2.53051758 C41.26469238 3.75291138 41.26469238 3.75291138 42 5 C41.01 5 40.02 5 39 5 C38.34 4.01 37.68 3.02 37 2 C34.16975238 1.66228483 31.54756033 1.51096665 28.7109375 1.48828125 C27.89251373 1.47033005 27.07408997 1.45237885 26.23086548 1.43388367 C23.61229636 1.37962486 20.99391106 1.34583596 18.375 1.3125 C16.60153683 1.27934057 14.82809796 1.24485221 13.0546875 1.20898438 C8.70325736 1.12388981 4.35188321 1.0571536 0 1 C0 0.67 0 0.34 0 0 Z " fill="#C62220" transform="translate(156,261)"/>
<path d="M0 0 C6.6 0 13.2 0 20 0 C20 0.66 20 1.32 20 2 C11.585 2.495 11.585 2.495 3 3 C2.67 3.99 2.34 4.98 2 6 C1.34 4.02 0.68 2.04 0 0 Z " fill="#CB474A" transform="translate(442,359)"/>
<path d="M0 0 C0 3.67819168 -0.76843318 4.22382655 -3.1875 6.875 C-3.82171875 7.57367188 -4.4559375 8.27234375 -5.109375 8.9921875 C-7.35961863 11.38190904 -9.64357276 13.71497964 -12 16 C-12.99 15.67 -13.98 15.34 -15 15 C-10.05 10.05 -5.1 5.1 0 0 Z " fill="#D31D1E" transform="translate(395,173)"/>
<path d="M0 0 C0 4.08321607 -1.57888255 5.10217106 -4.3125 8.0625 C-5.11300781 8.94035156 -5.91351563 9.81820312 -6.73828125 10.72265625 C-9 13 -9 13 -12 15 C-11.58685438 10.55073948 -8.49538473 8.15899896 -5.4375 5.25 C-4.91736328 4.74339844 -4.39722656 4.23679687 -3.86132812 3.71484375 C-2.58089916 2.46965595 -1.29132446 1.23388498 0 0 Z " fill="#CD3031" transform="translate(244,46)"/>
<path d="M0 0 C0.33 0.66 0.66 1.32 1 2 C-0.32732954 3.67145202 -1.66226218 5.33686649 -3 7 C-3.40863281 7.53882813 -3.81726563 8.07765625 -4.23828125 8.6328125 C-6.67482117 11.75580794 -8.10466126 13.30676175 -12 14 C-8 9.33333333 -4 4.66666667 0 0 Z " fill="#C93A3A" transform="translate(251,367)"/>
<path d="M0 0 C0.66 0.99 1.32 1.98 2 3 C-0.23407889 6.35111834 -1.26215824 7.81553956 -5.25 8.8125 C-6.1575 8.874375 -7.065 8.93625 -8 9 C-7.04270084 7.87411986 -6.08412105 6.7493285 -5.125 5.625 C-4.59132812 4.99851562 -4.05765625 4.37203125 -3.5078125 3.7265625 C-2.38567993 2.44163349 -1.20628025 1.20628025 0 0 Z " fill="#D23737" transform="translate(232,17)"/>
<path d="M0 0 C0 3.93169105 -1.39419615 5.16427228 -4 8 C-4.66 8 -5.32 8 -6 8 C-6.66 9.32 -7.32 10.64 -8 12 C-8.99 11.67 -9.98 11.34 -11 11 C-7.37 7.37 -3.74 3.74 0 0 Z " fill="#CC3536" transform="translate(275,292)"/>
<path d="M0 0 C-0.66 1.32 -1.32 2.64 -2 4 C-2.33 3.34 -2.66 2.68 -3 2 C-9.6 2 -16.2 2 -23 2 C-23 1.67 -23 1.34 -23 1 C-19.54170353 0.83256252 -16.08335707 0.66618079 -12.625 0.5 C-11.64015625 0.45230469 -10.6553125 0.40460938 -9.640625 0.35546875 C-8.69960938 0.31035156 -7.75859375 0.26523437 -6.7890625 0.21875 C-5.91975098 0.17685547 -5.05043945 0.13496094 -4.15478516 0.09179688 C-2.77077412 0.03283606 -1.38526637 0 0 0 Z " fill="#AE4040" transform="translate(280,359)"/>
<path d="M0 0 C7.92 0.33 15.84 0.66 24 1 C23.67 1.66 23.34 2.32 23 3 C19.541824 3.0868329 16.08392656 3.14033282 12.625 3.1875 C11.64015625 3.21263672 10.6553125 3.23777344 9.640625 3.26367188 C8.22910156 3.27817383 8.22910156 3.27817383 6.7890625 3.29296875 C5.91975098 3.3086792 5.05043945 3.32438965 4.15478516 3.34057617 C3.44370605 3.22818604 2.73262695 3.1157959 2 3 C1.34 2.01 0.68 1.02 0 0 Z " fill="#AF3E3F" transform="translate(178,359)"/>
<path d="M0 0 C7.92 0.33 15.84 0.66 24 1 C23.67 1.66 23.34 2.32 23 3 C15.74 3 8.48 3 1 3 C0.67 2.01 0.34 1.02 0 0 Z " fill="#AF4141" transform="translate(0,359)"/>
<path d="M0 0 C0.66 0.99 1.32 1.98 2 3 C-0.25 5.5625 -0.25 5.5625 -3 8 C-4.32 7.67 -5.64 7.34 -7 7 C-4.69 4.69 -2.38 2.38 0 0 Z " fill="#D43736" transform="translate(236,242)"/>
<path d="M0 0 C0.33 0.66 0.66 1.32 1 2 C1.99 2.33 2.98 2.66 4 3 C4.70211894 4.65204456 5.36971413 6.31923769 6 8 C6.66 8.33 7.32 8.66 8 9 C7.01 9 6.02 9 5 9 C0 3.76744186 0 3.76744186 0 0 Z " fill="#C93331" transform="translate(248,194)"/>
<path d="M0 0 C0.33 0.66 0.66 1.32 1 2 C-1.3125 4.5 -1.3125 4.5 -4 7 C-4.99 7 -5.98 7 -7 7 C-4.69 4.69 -2.38 2.38 0 0 Z " fill="#CA3434" transform="translate(98,151)"/>
<path d="M0 0 C0.33 0.66 0.66 1.32 1 2 C-1.3125 4.5 -1.3125 4.5 -4 7 C-4.99 7 -5.98 7 -7 7 C-4.69 4.69 -2.38 2.38 0 0 Z " fill="#C74040" transform="translate(223,26)"/>
<path d="M0 0 C3.25 -0.3125 3.25 -0.3125 7 0 C9.4375 2.5 9.4375 2.5 11 5 C10.01 5 9.02 5 8 5 C7.34 4.01 6.68 3.02 6 2 C2.93443402 1.26656572 2.93443402 1.26656572 0 1 C0 0.67 0 0.34 0 0 Z " fill="#C83332" transform="translate(187,261)"/>
</svg>
