<?xml version="1.0" encoding="UTF-8"?>
<svg version="1.1" xmlns="http://www.w3.org/2000/svg" width="634" height="948">
<path d="M0 0 C3.94507626 1.5780305 7.21671955 3.18381352 10.84765625 5.31640625 C11.40757263 5.6443367 11.96748901 5.97226715 12.54437256 6.31013489 C14.38598605 7.39049954 16.22434289 8.47626649 18.0625 9.5625 C19.36609271 10.32965246 20.66972291 11.09674122 21.97338867 11.86376953 C31.7809953 17.64472617 41.5199871 23.53438692 51.23754883 29.46533203 C60.3641848 35.03140546 69.54911801 40.49520628 78.75 45.9375 C87.13219293 50.89639232 95.49685482 55.86617478 103.71679688 61.09130859 C111.4936237 65.99851122 119.44183862 70.62636371 127.35546875 75.30810547 C136.94038748 80.97977295 146.49123514 86.70158897 156 92.5 C166.06226354 98.63438375 176.17166841 104.68391927 186.3125 110.6875 C198.28526715 117.7770769 210.20212537 124.95077725 222.07275391 132.21044922 C227.5236161 135.5427945 232.9787969 138.86801838 238.4375 142.1875 C239.01777954 142.540401 239.59805908 142.893302 240.19592285 143.25689697 C250.42482713 149.473325 260.70891635 155.59419569 271.01034546 161.68951416 C282.16541627 168.29092977 293.26309086 174.98207351 304.3203125 181.74609375 C305.40570313 182.40867188 306.49109375 183.07125 307.609375 183.75390625 C308.55780273 184.33470947 309.50623047 184.9155127 310.48339844 185.51391602 C311.31387695 186.00432373 312.14435547 186.49473145 313 187 C313.9585791 187.69947754 313.9585791 187.69947754 314.93652344 188.41308594 C317.18376148 189.28527858 317.18376148 189.28527858 319.94726562 187.75268555 C321.11026283 187.06398098 322.26264615 186.35716772 323.40625 185.63671875 C324.03430542 185.25864578 324.66236084 184.88057281 325.30944824 184.49104309 C327.38246801 183.2381471 329.44083205 181.96301124 331.5 180.6875 C332.94961879 179.80580687 334.40015208 178.92561568 335.8515625 178.046875 C339.54749154 175.8046474 343.23231854 173.54484306 346.91455078 171.2802124 C350.00937109 169.3803688 353.11335865 167.49578048 356.21875 165.61328125 C359.61947601 163.55109229 363.02003483 161.48869395 366.41601562 159.41870117 C375.23758374 154.04480485 384.11093958 148.76135273 393 143.5 C403.65377735 137.19342431 414.27024213 130.83085252 424.84375 124.390625 C434.50389518 118.50671839 444.19378117 112.67424274 453.89807129 106.86346436 C462.33651488 101.80968913 470.75578823 96.7260199 479.15625 91.609375 C490.40486591 84.75794531 501.70616025 78.00093788 513.04046631 71.29226685 C522.39647883 65.75313854 531.71672488 60.16014546 541 54.5 C551.62826982 48.01979206 562.31333145 41.64081716 573.02590942 35.30105591 C582.70062546 29.57389656 592.33605076 23.78662849 601.9375 17.9375 C609.66452858 13.23173704 617.39580447 8.53567049 625.1875 3.9375 C625.88286865 3.52556396 626.5782373 3.11362793 627.29467773 2.68920898 C631.87702296 -0 631.87702296 -0 633 0 C633.17448018 56.10883109 633.33713885 112.21769409 633.49095565 168.32658559 C633.49996668 171.61284804 633.50899608 174.89911043 633.51802588 178.18537283 C633.83545419 293.84909161 634.05473399 409.51238502 634.06315851 613.23075378 C634.06249763 616.57448284 634.06185505 619.9182119 634.06121445 623.26194096 C634.05038132 679.17463159 634.03063991 735.08731671 634 791 C617.97011754 799.02670258 601.93904137 807.05101589 585.9066 815.07260609 C578.45988677 818.79852385 571.01354353 822.52517726 563.56811523 826.25366211 C557.06691067 829.50930078 550.56496694 832.76345796 544.06218773 836.01595038 C540.62976388 837.73280535 537.19767609 839.45032348 533.76647758 841.16962624 C520.16920966 847.98237594 506.5531608 854.74210553 492.81673288 861.27158523 C484.71915388 865.12172139 476.68685754 869.09173694 468.67382812 873.11425781 C467.19734657 873.85346368 465.72077058 874.59248095 464.24411011 875.33132935 C461.12112384 876.89437544 457.99875715 878.45864923 454.87690735 880.02396393 C449.92376575 882.50742739 444.96900535 884.98764981 440.01403809 887.46746826 C429.5081519 892.7259035 419.00398517 897.98776868 408.5 903.25 C397.12383925 908.949148 385.74735836 914.64765214 374.3689189 920.34224963 C369.45896665 922.79969137 364.54999077 925.25906877 359.64179897 927.72002459 C356.5781377 929.25562281 353.51362121 930.78950839 350.44888687 932.32296371 C349.04543315 933.02561476 347.64232031 933.72894723 346.23960495 934.43307114 C342.46340881 936.3283729 338.67898932 938.20522561 334.88485909 940.0643549 C332.88870347 941.05524766 330.90915035 942.07566683 328.9283905 943.09694672 C327.59243886 943.76537808 326.25609139 944.43301902 324.91931152 945.09979248 C324.31299723 945.42122703 323.70668294 945.74266158 323.08199549 946.07383657 C320.04704667 947.55858732 318.34790873 948.07119921 315.00484848 947.38704491 C314.01324848 946.92932009 313.02164848 946.47159527 312 946 C310.90046368 945.50267805 309.80092735 945.0053561 308.66807175 944.49296379 C307.44453946 943.90167865 306.22298525 943.30628828 305.00311279 942.70748901 C304.33183365 942.38147115 303.66055451 942.05545329 302.96893358 941.71955609 C300.75695673 940.6436577 298.54782759 939.56205701 296.33886719 938.47998047 C294.7684077 937.71367726 293.19789457 936.94748399 291.62733078 936.18139458 C275.67341515 928.38830006 259.79093053 920.45278422 243.91927433 912.49386835 C239.88187187 910.47002595 235.84306452 908.44899092 231.80438232 906.42770386 C221.6183653 901.32924315 211.43408645 896.22731563 201.25 891.125 C190.19939022 885.58858179 179.14843481 880.0528586 168.09551692 874.52104938 C163.34499595 872.14334412 158.59544623 869.76371448 153.8467164 867.38243413 C150.87227533 865.89141268 147.8969549 864.40215218 144.92142487 862.91330528 C143.57291907 862.23813827 142.22474922 861.56229964 140.8769989 860.88562584 C128.66181699 854.75352413 116.33500076 848.89934819 104 843 C69.68 825.84 35.36 808.68 0 791 C0 529.97 0 268.94 0 0 Z " fill="#2CBB9D" transform="translate(0,0)"/>
<path d="M0 0 C3.94507626 1.5780305 7.21671955 3.18381352 10.84765625 5.31640625 C11.40757263 5.6443367 11.96748901 5.97226715 12.54437256 6.31013489 C14.38598605 7.39049954 16.22434289 8.47626649 18.0625 9.5625 C19.36609271 10.32965246 20.66972291 11.09674122 21.97338867 11.86376953 C31.7809953 17.64472617 41.5199871 23.53438692 51.23754883 29.46533203 C60.3641848 35.03140546 69.54911801 40.49520628 78.75 45.9375 C87.13219293 50.89639232 95.49685482 55.86617478 103.71679688 61.09130859 C111.4936237 65.99851122 119.44183862 70.62636371 127.35546875 75.30810547 C136.94038748 80.97977295 146.49123514 86.70158897 156 92.5 C166.06226354 98.63438375 176.17166841 104.68391927 186.3125 110.6875 C198.28526715 117.7770769 210.20212537 124.95077725 222.07275391 132.21044922 C227.5236161 135.5427945 232.9787969 138.86801838 238.4375 142.1875 C239.01777954 142.540401 239.59805908 142.893302 240.19592285 143.25689697 C250.42482713 149.473325 260.70891635 155.59419569 271.01034546 161.68951416 C282.16541627 168.29092977 293.26309086 174.98207351 304.3203125 181.74609375 C305.40570313 182.40867188 306.49109375 183.07125 307.609375 183.75390625 C308.55780273 184.33470947 309.50623047 184.9155127 310.48339844 185.51391602 C311.31387695 186.00432373 312.14435547 186.49473145 313 187 C313.9585791 187.69947754 313.9585791 187.69947754 314.93652344 188.41308594 C317.18376148 189.28527858 317.18376148 189.28527858 319.94726562 187.75268555 C321.11026283 187.06398098 322.26264615 186.35716772 323.40625 185.63671875 C324.03430542 185.25864578 324.66236084 184.88057281 325.30944824 184.49104309 C327.38246801 183.2381471 329.44083205 181.96301124 331.5 180.6875 C332.94961879 179.80580687 334.40015208 178.92561568 335.8515625 178.046875 C339.54749154 175.8046474 343.23231854 173.54484306 346.91455078 171.2802124 C350.00937109 169.3803688 353.11335865 167.49578048 356.21875 165.61328125 C359.61947601 163.55109229 363.02003483 161.48869395 366.41601562 159.41870117 C375.23758374 154.04480485 384.11093958 148.76135273 393 143.5 C403.65377735 137.19342431 414.27024213 130.83085252 424.84375 124.390625 C434.50389518 118.50671839 444.19378117 112.67424274 453.89807129 106.86346436 C462.33651488 101.80968913 470.75578823 96.7260199 479.15625 91.609375 C490.40486591 84.75794531 501.70616025 78.00093788 513.04046631 71.29226685 C522.39647883 65.75313854 531.71672488 60.16014546 541 54.5 C551.62826982 48.01979206 562.31333145 41.64081716 573.02590942 35.30105591 C582.70062546 29.57389656 592.33605076 23.78662849 601.9375 17.9375 C609.66452858 13.23173704 617.39580447 8.53567049 625.1875 3.9375 C625.88286865 3.52556396 626.5782373 3.11362793 627.29467773 2.68920898 C631.87702296 -0 631.87702296 -0 633 0 C633.17448018 56.10883109 633.33713885 112.21769409 633.49095565 168.32658559 C633.49996668 171.61284804 633.50899608 174.89911043 633.51802588 178.18537283 C633.83545419 293.84909161 634.05473399 409.51238502 634.06315851 613.23075378 C634.06249763 616.57448284 634.06185505 619.9182119 634.06121445 623.26194096 C634.05038132 679.17463159 634.03063991 735.08731671 634 791 C617.97011754 799.02670258 601.93904137 807.05101589 585.9066 815.07260609 C578.45988677 818.79852385 571.01354353 822.52517726 563.56811523 826.25366211 C557.06691067 829.50930078 550.56496694 832.76345796 544.06218773 836.01595038 C540.62976388 837.73280535 537.19767609 839.45032348 533.76647758 841.16962624 C520.16920966 847.98237594 506.5531608 854.74210553 492.81673288 861.27158523 C484.71915388 865.12172139 476.68685754 869.09173694 468.67382812 873.11425781 C467.19734657 873.85346368 465.72077058 874.59248095 464.24411011 875.33132935 C461.12112384 876.89437544 457.99875715 878.45864923 454.87690735 880.02396393 C449.92376575 882.50742739 444.96900535 884.98764981 440.01403809 887.46746826 C429.5081519 892.7259035 419.00398517 897.98776868 408.5 903.25 C397.12383925 908.949148 385.74735836 914.64765214 374.3689189 920.34224963 C369.45896665 922.79969137 364.54999077 925.25906877 359.64179897 927.72002459 C356.5781377 929.25562281 353.51362121 930.78950839 350.44888687 932.32296371 C349.04543315 933.02561476 347.64232031 933.72894723 346.23960495 934.43307114 C342.46340881 936.3283729 338.67898932 938.20522561 334.88485909 940.0643549 C332.88870347 941.05524766 330.90915035 942.07566683 328.9283905 943.09694672 C327.59243886 943.76537808 326.25609139 944.43301902 324.91931152 945.09979248 C324.31299723 945.42122703 323.70668294 945.74266158 323.08199549 946.07383657 C320.04704667 947.55858732 318.34790873 948.07119921 315.00484848 947.38704491 C314.01324848 946.92932009 313.02164848 946.47159527 312 946 C310.90046368 945.50267805 309.80092735 945.0053561 308.66807175 944.49296379 C307.44453946 943.90167865 306.22298525 943.30628828 305.00311279 942.70748901 C304.33183365 942.38147115 303.66055451 942.05545329 302.96893358 941.71955609 C300.75695673 940.6436577 298.54782759 939.56205701 296.33886719 938.47998047 C294.7684077 937.71367726 293.19789457 936.94748399 291.62733078 936.18139458 C275.67341515 928.38830006 259.79093053 920.45278422 243.91927433 912.49386835 C239.88187187 910.47002595 235.84306452 908.44899092 231.80438232 906.42770386 C221.6183653 901.32924315 211.43408645 896.22731563 201.25 891.125 C190.19939022 885.58858179 179.14843481 880.0528586 168.09551692 874.52104938 C163.34499595 872.14334412 158.59544623 869.76371448 153.8467164 867.38243413 C150.87227533 865.89141268 147.8969549 864.40215218 144.92142487 862.91330528 C143.57291907 862.23813827 142.22474922 861.56229964 140.8769989 860.88562584 C128.66181699 854.75352413 116.33500076 848.89934819 104 843 C69.68 825.84 35.36 808.68 0 791 C0 529.97 0 268.94 0 0 Z M571.19921875 102.90234375 C569.66128662 103.85355103 569.66128662 103.85355103 568.09228516 104.82397461 C567.53921692 105.16733856 566.98614868 105.51070251 566.4163208 105.86447144 C563.44866414 107.70640923 560.47613147 109.54044661 557.50390625 111.375 C556.88441101 111.75756454 556.26491577 112.14012909 555.62664795 112.5342865 C549.14527855 116.53367342 542.63778369 120.48954145 536.125 124.4375 C535.25710342 124.96378494 535.25710342 124.96378494 534.37167358 125.5007019 C531.42547142 127.28722604 528.47895341 129.07322816 525.53222656 130.85888672 C520.26836014 134.04908126 515.00760167 137.24439467 509.74661255 140.43933105 C506.83769815 142.2058334 503.92861436 143.97205676 501.01953125 145.73828125 C500.44305344 146.08829193 499.86657562 146.43830261 499.27262878 146.79891968 C495.7224932 148.95435582 492.17218237 151.10950303 488.62174988 153.26445007 C474.34739439 161.92832698 460.07779721 170.59994909 445.81640625 179.28515625 C442.90921313 181.055278 440.00154559 182.82461813 437.09375 184.59375 C436.10479736 185.19550049 435.11584473 185.79725098 434.09692383 186.41723633 C432.26089731 187.53438228 430.42480586 188.65142152 428.58862305 189.76831055 C426.84761566 190.82777783 425.11963509 191.90894926 423.40536499 193.01115417 C420.7721852 194.5490183 418.33167078 195.74464042 415.54795837 196.93228149 C406.72264648 200.94009026 406.72264648 200.94009026 400.97408867 208.36117744 C399.3687538 215.35156173 399.78714057 222.48691171 400.0234375 229.60546875 C400.03458631 231.89900788 400.03776848 234.1925983 400.03335571 236.48616028 C400.04302507 242.4943871 400.16017592 248.49579055 400.30047607 254.50219727 C400.42464066 260.64229361 400.44616409 266.7826784 400.4765625 272.92382812 C400.55111195 284.95168679 400.73932474 296.97483517 401 309 C400.28504364 308.55949814 399.57008728 308.11899628 398.83346558 307.66514587 C380.00911044 296.06499745 380.00911044 296.06499745 361.125 284.5625 C359.96739233 283.86076878 358.8098423 283.15894246 357.65234375 282.45703125 C355.27918692 281.01803591 352.90579832 279.5794241 350.53222656 278.14111328 C345.26881666 274.95119542 340.0085172 271.75615466 334.74798584 268.56149292 C331.83211834 266.79078481 328.91604895 265.02040926 326 263.25 C324.83333237 262.54166826 323.6666657 261.83333493 322.5 261.125 C321.9225 260.774375 321.345 260.42375 320.75 260.0625 C287.50000011 239.87500007 287.50000011 239.87500007 285.75007629 238.81254578 C284.58315596 238.10405879 283.41623498 237.39557287 282.24931335 236.68708801 C279.33652253 234.91861422 276.42374284 233.1501221 273.51098633 231.3815918 C268.21476739 228.16592611 262.91846018 224.95040621 257.62174988 221.73554993 C241.48278592 211.93994148 225.3517299 202.13143396 209.22753906 192.31152344 C197.82316353 185.36642286 186.41461176 178.42826216 175 171.5 C163.59268949 164.57616944 152.19147444 157.64238396 140.79443359 150.70166016 C136.03004919 147.80040563 131.26499277 144.9002552 126.5 142 C120.80827431 138.53568058 115.11666106 135.07117757 109.42578125 131.60546875 C98.57973945 125.00085884 87.72936899 118.40341324 76.875 111.8125 C76.26532379 111.44224701 75.65564758 111.07199402 75.02749634 110.69052124 C73.28665315 109.63337116 71.54569188 108.57641584 69.8046875 107.51953125 C68.80421387 106.91214111 67.80374023 106.30475098 66.77294922 105.67895508 C65.85787598 105.1248999 64.94280273 104.57084473 64 104 C63.09652832 103.43240967 62.19305664 102.86481934 61.26220703 102.2800293 C59.1430957 100.83584578 59.1430957 100.83584578 57 101 C57 317.15 57 533.3 57 756 C71.64122362 763.76545334 71.64122362 763.76545334 86.4921875 771.02929688 C96.18556056 775.61001976 105.7949567 780.346248 115.3828125 785.14257812 C116.11866199 785.5106574 116.85451149 785.87873667 117.61265945 786.25796986 C122.30015386 788.60357754 126.98607157 790.9523233 131.67171478 793.30162621 C135.8533517 795.39752611 140.0363493 797.49070678 144.21923828 799.58410645 C155.70993475 805.33541289 167.19859724 811.09077759 178.68722534 816.84621429 C189.23740241 822.13146325 199.78803644 827.41579495 210.34030724 832.6968627 C214.47784716 834.76768796 218.61496612 836.83934434 222.7510376 838.9131012 C253.62074151 854.49109827 253.62074151 854.49109827 285 869 C283.58992503 864.47412118 281.80350905 860.22977513 279.76171875 855.9609375 C279.44495682 855.29131989 279.12819489 854.62170227 278.80183411 853.93179321 C278.12131013 852.49403507 277.43927306 851.05699229 276.75585938 849.62060547 C274.92815114 845.77890978 273.11151758 841.93197502 271.29296875 838.0859375 C270.92577728 837.310224 270.55858582 836.5345105 270.18026733 835.73529053 C266.91805458 828.83979387 263.70218207 821.92359576 260.5 815 C254.87632591 802.85133662 249.18244824 790.73647271 243.46679688 778.63085938 C243.1405835 777.9392421 242.81437012 777.24762482 242.47827148 776.53504944 C241.5961466 774.66492592 240.71314705 772.79521504 239.83007812 770.92553711 C239.40766342 769.98902061 239.40766342 769.98902061 238.97671509 769.03358459 C238.00520821 766.93590346 238.00520821 766.93590346 236.68612671 764.77879333 C231.67281462 755.60798508 232.35208415 746.38367448 232.4765625 736.23046875 C232.48309049 734.16488705 232.4873963 732.09929738 232.48971558 730.03370667 C232.5026581 724.29892546 232.5472635 718.56475108 232.59677124 712.83018494 C232.64460705 706.65737436 232.66328353 700.4844696 232.68554688 694.31152344 C232.73087638 682.94306403 232.79641972 671.57483819 232.87207031 660.20654297 C232.97001847 645.44000513 233.05000902 630.67343411 233.12011719 615.90673828 C233.1250902 614.86045608 233.1300632 613.81417387 233.13518691 612.73618615 C233.16072573 607.35118691 233.18607363 601.96618679 233.21134567 596.58118629 C233.44102392 547.72059716 233.71131697 498.86027255 234 450 C237.51146484 452.07246353 241.02249297 454.14566584 244.53344727 456.21899414 C245.52019691 456.80136086 246.50694656 457.38372757 247.52359772 457.98374176 C255.02757522 462.41578671 262.4967963 466.89990719 269.9375 471.4375 C271.12256324 472.15873612 272.3077053 472.87984275 273.49291992 473.60083008 C275.86848379 475.04624714 278.24357018 476.49244309 280.61816406 477.93945312 C283.77334618 479.86190022 286.92942971 481.78285555 290.0859375 483.703125 C294.79318455 486.56704128 299.49954799 489.43240521 304.20556641 492.29833984 C308.96995081 495.19959437 313.73500723 498.0997448 318.5 501 C324.19172569 504.46431942 329.88333894 507.92882243 335.57421875 511.39453125 C345.51980389 517.45093173 355.46748541 523.50389237 365.4190979 529.55038452 C367.09822036 530.5707469 368.77702442 531.59163318 370.45581055 532.61254883 C371.53644775 533.26892334 372.61708496 533.92529785 373.73046875 534.6015625 C374.78519379 535.29650314 375.83991882 535.99144379 376.92660522 536.70744324 C379.88753746 538.53102809 382.6526463 539.54440665 385.9940033 540.48376465 C392.35734985 542.6358521 397.225504 545.29542396 401 551 C405.43069636 563.69432083 403.79798138 579.14638694 403.62064695 592.36079168 C403.56213992 597.95519664 403.60375764 603.54905432 403.62954712 609.14358521 C403.65676502 618.5647467 403.60123701 627.98275035 403.49755859 637.40332031 C403.37991161 648.19316332 403.39618818 658.97633175 403.48625219 669.76629245 C403.56989547 680.23318851 403.54941376 690.69765818 403.48656082 701.16461563 C403.46209562 705.57186883 403.47261781 709.97676942 403.51444626 714.3838768 C403.74454518 743.35177586 399.56964408 764.77891366 385.18254471 790.06309891 C381.86273328 795.94603314 379.1390735 802.0911948 376.375 808.25 C375.35407031 810.46339804 374.33093584 812.6757817 373.3046875 814.88671875 C372.78229492 816.01384277 372.25990234 817.1409668 371.72167969 818.30224609 C367.67459627 827.00925699 363.56571055 835.68765216 359.46630859 844.37011719 C357.91849928 847.64892191 356.37791685 850.93105082 354.84033203 854.21466064 C354.03026435 855.93570144 353.20870753 857.6513201 352.38671875 859.36669922 C351.91878906 860.35814941 351.45085937 861.34959961 350.96875 862.37109375 C350.56076172 863.22501709 350.15277344 864.07894043 349.73242188 864.95874023 C349.36987305 865.96916382 349.36987305 865.96916382 349 867 C349.33 867.66 349.66 868.32 350 869 C351.18251343 868.40481567 351.18251343 868.40481567 352.38891602 867.79760742 C355.44303343 866.26179607 358.49818454 864.72807467 361.55395508 863.19555664 C362.85219686 862.54398981 364.15007424 861.89169621 365.44750977 861.23852539 C372.65532783 857.61058087 379.88605503 854.04138075 387.18044472 850.59034634 C403.35304653 842.92686498 419.33661667 834.88831603 435.33371973 826.86737132 C439.4655766 824.79636147 443.59879418 822.72807089 447.73190308 820.65956116 C458.19747537 815.42128243 468.66133387 810.17958508 479.125 804.9375 C490.4379793 799.26993155 501.75127933 793.6030083 513.06655014 787.94001585 C517.1559589 785.89325402 521.24494515 783.84565804 525.33288956 781.79597282 C529.89683405 779.50766073 534.46173891 777.22127769 539.02783203 774.93725586 C540.09346323 774.40416693 540.09346323 774.40416693 541.18062234 773.86030853 C550.80290359 769.05074551 560.45869364 764.3230143 570.20379829 759.765769 C573.85005962 758.26228185 573.85005962 758.26228185 577 756 C577.09707597 754.55917645 577.12447372 753.11360039 577.1241985 751.6695103 C577.12644579 750.72694133 577.12869308 749.78437235 577.13100848 748.81324068 C577.12838146 747.76341708 577.12575445 746.71359349 577.12304783 745.63195705 C577.1247786 743.96886658 577.1247786 743.96886658 577.12654433 742.27217832 C577.12921969 738.50658718 577.12468132 734.74103764 577.12025452 730.97544861 C577.12013401 728.26871597 577.12152218 725.56198459 577.12284368 722.85525233 C577.12492329 716.94433924 577.12326368 711.03343619 577.11920547 705.12252426 C577.11318769 696.33311875 577.11286806 687.54371961 577.11374746 678.75431241 C577.11506357 663.97145454 577.1117116 649.18860113 577.10573006 634.40574455 C577.09981984 619.76173824 577.09596549 605.11773377 577.09487724 590.47372627 C577.0948085 589.56435152 577.09473976 588.65497678 577.09466894 587.71804522 C577.09433062 583.10008472 577.09402923 578.48212421 577.09374207 573.8641637 C577.09163977 541.12648222 577.08489717 508.38880316 577.07543945 475.65112305 C577.06626007 443.84025078 577.05917399 412.02937918 577.05493164 380.21850586 C577.05480011 379.23853671 577.05466859 378.25856756 577.05453308 377.24890237 C577.05321459 367.40795164 577.05193878 357.56700091 577.05069422 347.72605018 C577.04815777 327.67760133 577.04533652 307.62915252 577.04234314 287.58070374 C577.0421372 286.19790857 577.0421372 286.19790857 577.04192711 284.78717815 C577.03272121 223.19145109 577.01687541 161.59572538 577 100 C574.93803403 100 572.86923122 101.86599429 571.19921875 102.90234375 Z " fill="#171D27" transform="translate(0,0)"/>
<path d="M0 0 C3.82366195 1.4110047 7.15612443 3.18848613 10.62890625 5.31640625 C12.28369995 6.32610474 12.28369995 6.32610474 13.97192383 7.35620117 C15.16880442 8.09159852 16.36566254 8.82703246 17.5625 9.5625 C18.81184784 10.32632903 20.06144535 11.08974983 21.3112793 11.8527832 C23.91095601 13.44032705 26.50954643 15.02962761 29.10742188 16.62011719 C34.58223881 19.96992586 40.07103192 23.29665624 45.55935669 26.62426758 C48.48177641 28.39663346 51.40299155 30.17098203 54.32421875 31.9453125 C59.18270803 34.89624853 59.18270803 34.89624853 64.04150391 37.84667969 C80.47912836 47.82873064 96.86256875 57.89755827 113.23095703 67.99267578 C123.29611634 74.20016186 133.36104962 80.40743354 143.47265625 86.5390625 C144.09765015 86.91807205 144.72264404 87.2970816 145.36657715 87.68757629 C148.37632033 89.51200249 151.38725942 91.33441899 154.39990234 93.15405273 C155.49383301 93.81606689 156.58776367 94.47808105 157.71484375 95.16015625 C158.66480225 95.73386963 159.61476074 96.30758301 160.59350586 96.89868164 C161.09867015 97.22218835 161.60383444 97.54569507 162.12430674 97.87900501 C164.10075005 99.09751863 164.10075005 99.09751863 166.69666904 100.30477518 C174.38684461 104.38141296 174.38684461 104.38141296 175.99310887 108.62157547 C176.33729523 111.88852271 176.32796721 114.99593776 176.20167542 118.27894592 C176.19672315 120.13430132 176.19672315 120.13430132 176.19167084 122.02713865 C176.17181405 125.45263576 176.10270174 128.87070874 176.01285899 132.2946564 C175.92816363 135.99155642 175.9078547 139.68886177 175.88038635 143.3865509 C175.82476311 149.79814245 175.73081964 156.20824233 175.61285591 162.61897469 C175.4432344 171.92897386 175.35245842 181.23854013 175.2839713 190.54977363 C175.17202936 205.71111058 175.02426077 220.87183018 174.84106445 236.0324707 C174.8246513 237.39324527 174.8246513 237.39324527 174.80790656 238.78151023 C174.68537556 248.86173673 174.55235786 258.94176988 174.4052124 269.02166748 C174.39207273 269.92306414 174.37893306 270.8244608 174.36539521 271.75317251 C174.35226864 272.65343155 174.33914208 273.55369059 174.32561773 274.4812302 C174.29917519 276.2961617 174.27274855 278.11109343 174.24633789 279.92602539 C174.23327068 280.82269564 174.22020346 281.7193659 174.20674027 282.64320797 C173.98910304 297.7108476 173.84384703 312.77824438 173.75378078 327.84717935 C173.70067811 336.2850932 173.61210741 344.71961135 173.43307686 353.15587044 C172.10329684 402.95697778 172.10329684 402.95697778 190.79989433 448.42898369 C194.37295581 454.0579845 196.93955355 460.16202269 199.625 466.25 C200.64446346 468.46407374 201.66741019 470.67655018 202.6953125 472.88671875 C203.47890137 474.57740479 203.47890137 474.57740479 204.27832031 476.30224609 C208.32540373 485.00925699 212.43428945 493.68765216 216.53369141 502.37011719 C218.08150072 505.64892191 219.62208315 508.93105082 221.15966797 512.21466064 C221.96973565 513.93570144 222.79129247 515.6513201 223.61328125 517.36669922 C224.08121094 518.35814941 224.54914063 519.34959961 225.03125 520.37109375 C225.43923828 521.22501709 225.84722656 522.07894043 226.26757812 522.95874023 C226.50927734 523.63235596 226.75097656 524.30597168 227 525 C226.67 525.66 226.34 526.32 226 527 C225.27224365 526.63350342 224.5444873 526.26700684 223.79467773 525.8894043 C220.96420338 524.46539338 218.13267771 523.04349649 215.30053711 521.62280273 C213.52447052 520.73116191 211.74951091 519.83731711 209.97460938 518.94335938 C203.64293058 515.76414897 197.28495555 512.65062894 190.88036156 509.62074947 C174.55168651 501.88234584 158.4144849 493.76377201 142.26242208 485.66544223 C138.07451015 483.5664064 133.88523865 481.47008757 129.69607544 479.37355042 C119.08784404 474.0639412 108.48132602 468.75091407 97.875 463.4375 C86.40804218 457.6929435 74.94076422 451.94903098 63.47151577 446.20904881 C59.32621585 444.13434097 55.18133869 442.05879836 51.03750229 439.98116875 C46.411291 437.66172517 41.78412069 435.34420784 37.15576172 433.02905273 C36.43596815 432.66897373 35.71617458 432.30889473 34.97456908 431.93790424 C25.29311211 427.09874279 15.57913392 422.33937334 5.77384758 417.75459194 C0.09370086 415.09370086 0.09370086 415.09370086 -1 414 C-1.0989797 411.81175954 -1.12555747 409.62024927 -1.12584114 407.42977142 C-1.12729458 406.73161884 -1.12874802 406.03346626 -1.13024551 405.31415755 C-1.13393147 402.9452163 -1.13040716 400.57633837 -1.12698364 398.20739746 C-1.12813444 396.50370421 -1.12972168 394.8000112 -1.13171089 393.09631872 C-1.13590993 388.39165203 -1.13381094 383.68700546 -1.13072467 378.98233867 C-1.12847311 373.91753038 -1.13194895 368.85272568 -1.13470459 363.78791809 C-1.13916391 353.85685763 -1.1381851 343.92580471 -1.13529195 333.99474394 C-1.13303855 325.92745948 -1.13272512 317.86017714 -1.13381577 309.79289246 C-1.133969 308.64709248 -1.13412223 307.5012925 -1.13428011 306.32077131 C-1.13459982 303.99349757 -1.13492403 301.66622383 -1.1352527 299.3389501 C-1.13810797 277.4881532 -1.13481974 255.6373605 -1.12945233 233.78656429 C-1.12498425 215.01542227 -1.12576017 196.24428644 -1.13037109 177.47314453 C-1.13571603 155.7034382 -1.13783327 133.93373554 -1.13475883 112.16402864 C-1.13444026 109.84505494 -1.13412589 107.52608124 -1.13381577 105.20710754 C-1.13366149 104.0659657 -1.13350721 102.92482386 -1.13334826 101.74910197 C-1.13248287 93.6864274 -1.13394647 85.62375514 -1.13629532 77.56108093 C-1.13909263 67.74267245 -1.13835652 57.92427197 -1.13301457 48.10586441 C-1.13037662 43.09116925 -1.12937407 38.07648745 -1.13266373 33.06179237 C-1.13562477 28.47888985 -1.13403711 23.89601318 -1.12868617 19.31311303 C-1.12756116 17.64759132 -1.128155 15.98206745 -1.13056196 14.3165471 C-1.13356471 12.06774236 -1.13052278 9.81902841 -1.12584114 7.57022858 C-1.12567879 6.3165544 -1.12551644 5.06288022 -1.12534916 3.77121592 C-1 1 -1 1 0 0 Z " fill="#04988E" transform="translate(58,342)"/>
<path d="M0 0 C0 104.61 0 209.22 0 317 C-8.42379996 312.18640002 -16.79597803 307.37690262 -25.0625 302.3125 C-26.04436279 301.7129248 -27.02622559 301.11334961 -28.0378418 300.49560547 C-36.21025479 295.49883742 -44.35580876 290.45903045 -52.49609375 285.41015625 C-70.60747231 274.18077194 -88.7867742 263.06322289 -107 252 C-120.22549879 243.96646204 -133.43145028 235.90278509 -146.60449219 227.78344727 C-151.60003731 224.70492934 -156.59801971 221.63085467 -161.609375 218.578125 C-162.45330811 218.06403076 -163.29724121 217.54993652 -164.16674805 217.02026367 C-165.7221302 216.073847 -167.27824113 215.12862663 -168.83520508 214.18481445 C-173.89146393 211.10853607 -173.89146393 211.10853607 -175 210 C-175.20207539 206.83787888 -175.33817708 203.69607739 -175.4309082 200.5300293 C-175.46318008 199.53478745 -175.49545197 198.53954559 -175.52870178 197.5141449 C-175.81190164 188.29784023 -175.98289499 179.0794174 -176.11837482 169.85986614 C-176.21138621 163.66485686 -176.34211881 157.47578941 -176.5637207 151.28393555 C-176.77692349 145.29748204 -176.8906256 139.31651071 -176.93648338 133.32651711 C-176.97076815 131.04973057 -177.03984272 128.7731789 -177.1451664 126.4985714 C-177.78607808 112.01718008 -177.78607808 112.01718008 -175 106 C-170.15975855 100.76053683 -163.80266879 97.83238768 -157.34246826 95.04274559 C-154.30740639 93.69169319 -151.61797068 92.05014204 -148.82421875 90.2578125 C-147.54224609 89.47664063 -147.54224609 89.47664063 -146.234375 88.6796875 C-145.39390625 88.16664063 -144.5534375 87.65359375 -143.6875 87.125 C-141.74350061 85.94008608 -139.79948985 84.7551908 -137.85546875 83.5703125 C-136.88786621 82.98024414 -135.92026367 82.39017578 -134.92333984 81.78222656 C-130.1171912 78.85213761 -125.30848026 75.92626043 -120.5 73 C-118.58332076 71.83335399 -116.6666541 70.66668731 -114.75 69.5 C-57.25 34.5 -57.25 34.5 -54.37329102 32.74902344 C-52.46224548 31.58573597 -50.55127507 30.42232509 -48.64038086 29.25878906 C-43.76332861 26.28938912 -38.88487239 23.32233773 -34.00390625 20.359375 C-32.02333814 19.15641357 -30.0428681 17.95329066 -28.0625 16.75 C-27.11165527 16.17233887 -26.16081055 15.59467773 -25.18115234 14.99951172 C-18.61918646 11.00532119 -12.0907968 6.96073507 -5.60571289 2.84277344 C-1.10505818 0 -1.10505818 0 0 0 Z " fill="#01A297" transform="translate(577,100)"/>
<path d="M0 0 C8.85598419 4.69496043 17.43764552 9.79764913 26 15 C26.85174805 15.51626953 27.70349609 16.03253906 28.58105469 16.56445312 C38.81267476 22.76653406 49.02354177 29.00009509 59.1875 35.3125 C70.86850125 42.5645431 82.62797292 49.68646478 94.38720703 56.81054688 C100.84147343 60.72122255 107.29082898 64.63999373 113.74102783 68.55737305 C115.48487224 69.61642597 117.2287507 70.67542277 118.97265625 71.734375 C119.54874634 72.08419434 120.12483643 72.43401367 120.71838379 72.79443359 C124.28686373 74.9609485 127.85653143 77.12549262 131.42709351 79.28857422 C133.85038385 80.75673731 136.27322687 82.22563776 138.69604492 83.69458008 C140.33795257 84.68966865 141.98047986 85.68373459 143.62304688 86.67773438 C145.73798445 87.96018273 147.83966986 89.26475804 149.92706299 90.59156799 C152.9391267 92.44785378 156.01835101 93.97172265 159.22393799 95.46653748 C173.24076028 102.40256566 173.24076028 102.40256566 176.17619514 108.40517807 C177.9351366 115.15711065 177.41453256 122.02427803 177.05078125 128.92578125 C177.01154622 131.12666056 176.98168515 133.32772502 176.96073914 135.52885437 C176.88104467 141.28626945 176.67532983 147.03231735 176.44195557 152.78527832 C176.22598492 158.66974021 176.13098567 164.55606566 176.02539062 170.44335938 C175.80105957 181.96719966 175.44335613 193.48265036 175 205 C165.26274566 210.23789294 155.47792278 215.3180291 145.48046875 220.04296875 C135.86069988 224.59569998 126.31847049 229.28952086 116.80078125 234.05078125 C116.07453112 234.41406084 115.34828098 234.77734043 114.60002327 235.15162849 C109.9762537 237.46537307 105.3540609 239.78225566 100.7321434 242.09969711 C96.60656156 244.16757107 92.47961787 246.23272347 88.3527832 248.2980957 C77.90064887 253.52965559 67.45022644 258.76463032 57 264 C45.70808119 269.65704196 34.41584145 275.31343823 23.12162685 280.96589565 C19.03997807 283.00877488 14.95874998 285.05248455 10.87857056 287.09829712 C-10.27258913 297.70322245 -31.43163931 308.26122285 -53 318 C-51.59649403 313.49986975 -49.82653155 309.27669515 -47.796875 305.03125 C-47.48275665 304.36691956 -47.16863831 303.70258911 -46.84500122 303.01812744 C-46.16896372 301.58930378 -45.49139556 300.16120351 -44.81243896 298.73376465 C-43.36226685 295.68479589 -41.91959588 292.63229727 -40.47640991 289.58001709 C-39.73430226 288.01070247 -38.99180682 286.44157118 -38.24893188 284.87261963 C-34.76404236 277.51091156 -31.31444903 270.13302329 -27.875 262.75 C-27.30634301 261.53001629 -26.7376581 260.31004559 -26.16894531 259.09008789 C-25.31576187 257.25978376 -24.46264615 255.42944821 -23.60974121 253.59901428 C-21.48425657 249.03761795 -19.35594715 244.47754561 -17.2265625 239.91796875 C-16.59651386 238.56868633 -15.96646826 237.21940248 -15.33642578 235.87011719 C-14.43565228 233.94106263 -13.53481957 232.0120359 -12.63372803 230.08312988 C-11.80763137 228.31466091 -10.98193692 226.54600407 -10.15625 224.77734375 C-9.69025391 223.77952881 -9.22425781 222.78171387 -8.74414062 221.75366211 C-8.49049838 221.18496273 -8.23685614 220.61626335 -7.97552776 220.03033066 C-7 218 -7 218 -5.54056263 215.49557877 C-0.05154723 205.33929485 -0.19000267 196.21901777 -0.3347168 184.92114258 C-0.33805221 182.92249817 -0.33871537 180.92384781 -0.33692932 178.92520142 C-0.33946347 173.53516325 -0.37870713 168.14595592 -0.42456794 162.75613618 C-0.46598807 157.1077172 -0.4722742 151.45926121 -0.48213196 145.81071472 C-0.50588032 135.12834769 -0.55936872 124.44635655 -0.62442762 113.76416939 C-0.71873116 98.05678025 -0.76782722 82.3492343 -0.81721973 66.6416502 C-0.82456644 64.32658572 -0.83192961 62.01152129 -0.83930969 59.69645691 C-0.8446343 58.00192124 -0.8446343 58.00192124 -0.85006648 56.27315253 C-0.8722035 49.54736962 -0.9028987 42.82169209 -0.9412092 36.09598219 C-0.96452476 31.92663089 -0.98420164 27.75726673 -1.0033474 23.58789444 C-1.01324205 21.64880699 -1.02491515 19.70972772 -1.03845596 17.77066231 C-1.05675261 15.13367382 -1.06903318 12.49672344 -1.07987976 9.85969543 C-1.08688532 9.08452617 -1.09389088 8.30935691 -1.10110873 7.51069766 C-1.11395063 2.22790125 -1.11395063 2.22790125 0 0 Z " fill="#029D92" transform="translate(402,551)"/>
</svg>
