<?xml version="1.0" encoding="UTF-8"?>
<svg version="1.1" xmlns="http://www.w3.org/2000/svg" width="681" height="642">
<path d="M0 0 C4.8194765 0.57798661 8.83188102 2.05923243 13.1875 4.10546875 C14.21776558 4.57897263 14.21776558 4.57897263 15.2688446 5.06204224 C17.51584285 6.09692045 19.75788933 7.14208031 22 8.1875 C23.57240007 8.91424538 25.1450763 9.64039353 26.71801758 10.3659668 C31.48340691 12.56719268 36.2422523 14.78231642 41 17 C42.39630022 17.65011107 43.79262091 18.30017815 45.18896484 18.95019531 C50.2650342 21.31413747 55.33965794 23.68114732 60.41113281 26.05493164 C69.94938966 30.5189069 79.51621102 34.91795335 89.09375 39.296875 C103.08990491 45.69698589 117.05599862 52.16281995 131.00952148 58.65527344 C142.54875347 64.02342837 154.10845647 69.34337649 165.6875 74.625 C178.56203812 80.49804805 191.41345886 86.41936819 204.25 92.375 C205.53346817 92.97039581 205.53346817 92.97039581 206.84286499 93.57781982 C210.3091608 95.1858318 213.77542961 96.79390196 217.24165344 98.40206909 C226.49076136 102.69266539 235.74372773 106.97488217 245 111.25 C245.80847382 111.62346558 246.61694763 111.99693115 247.44992065 112.38171387 C259.2242337 117.81871207 271.02474768 123.19546754 282.84008789 128.54260254 C293.98928535 133.59199448 305.0709394 138.77603491 316.13461304 144.00979614 C327.27237151 149.27644611 338.46069471 154.41979131 349.68701172 159.49462891 C360.4938897 164.38168518 371.24622542 169.37515076 381.97518921 174.4307251 C391.71426364 179.01755873 401.48738196 183.52281779 411.29296875 187.96569824 C413.40544765 188.92297537 415.51728315 189.88165708 417.62890625 190.84082031 C424.84739229 194.12084472 424.84739229 194.12084472 432.07470703 197.38134766 C434.55396693 198.49535883 437.02770628 199.62064034 439.5 200.75 C440.17603271 201.04898193 440.85206543 201.34796387 441.54858398 201.65600586 C443.34375 202.484375 443.34375 202.484375 446 204 C447.33219396 207.99658189 445.88623087 209.99968319 444.125 213.5703125 C443.80950699 214.23041321 443.49401398 214.89051392 443.16896057 215.57061768 C442.48242689 217.004732 441.7914854 218.43674253 441.09671021 219.86688232 C439.22052608 223.72993066 437.37645424 227.6083153 435.52734375 231.484375 C435.14617905 232.28100555 434.76501434 233.07763611 434.37229919 233.89840698 C430.97422614 241.01355495 427.70283648 248.18199455 424.46551514 255.37139893 C419.04851095 267.39059435 413.57153142 279.38362589 407.99972534 291.33184814 C407.25717948 292.92831672 406.51843051 294.52655747 405.78372192 296.12664795 C404.75949531 298.35509449 403.72140916 300.57656383 402.6796875 302.796875 C402.38129471 303.45368256 402.08290192 304.11049011 401.77546692 304.78720093 C398.80618591 311.0393693 394.7032203 314.78893684 388.921875 318.42578125 C387.93872314 319.0492041 386.95557129 319.67262695 385.94262695 320.31494141 C384.88906006 320.97413574 383.83549316 321.63333008 382.75 322.3125 C381.06519631 323.37828322 379.38039891 324.44407656 377.69599915 325.51049805 C375.95202289 326.61357806 374.20634227 327.7139217 372.46044922 328.81396484 C367.05884434 332.22129954 361.68801458 335.67672381 356.3125 339.125 C354.25148942 340.44300133 352.19029245 341.76071123 350.12890625 343.078125 C345.98594437 345.72676293 341.84876564 348.38415243 337.71484375 351.046875 C335.72661788 352.32300296 333.7383389 353.59904816 331.75 354.875 C330.83903564 355.4642627 329.92807129 356.05352539 328.98950195 356.66064453 C328.14218506 357.20317871 327.29486816 357.74571289 326.421875 358.3046875 C325.68549805 358.77890137 324.94912109 359.25311523 324.19042969 359.74169922 C318.04134821 363.27406279 318.04134821 363.27406279 314.74951172 362.40771484 C313.98396973 362.01277832 313.21842773 361.6178418 312.4296875 361.2109375 C311.54659912 360.76975586 310.66351074 360.32857422 309.75366211 359.87402344 C308.80370361 359.3793457 307.85374512 358.88466797 306.875 358.375 C304.81306445 357.34261777 302.74917599 356.31412899 300.68359375 355.2890625 C299.59804199 354.74797852 298.51249023 354.20689453 297.39404297 353.64941406 C291.64629986 350.85616472 285.79153506 348.3108858 279.9375 345.75 C273.13358608 342.75843634 266.36170224 339.77256954 259.75 336.375 C258.7084375 335.87742187 257.666875 335.37984375 256.59375 334.8671875 C253.56532682 333.37938658 250.80299051 331.58564681 247.96875 329.7578125 C242.24399166 326.34462063 236.7824024 323.26774017 230 323 C221.31189397 325.69390479 214.18067154 331.93686825 207.17041016 337.54248047 C202.42406135 341.29311974 197.27300629 344.39988714 192.125 347.5625 C185.36449797 351.81929089 178.69070976 356.16082099 172.14453125 360.7421875 C170 362 170 362 167 362 C168.53653696 357.00748372 170.57448577 352.39135527 172.7890625 347.67578125 C173.3523954 346.46469444 173.3523954 346.46469444 173.92710876 345.22914124 C175.58051851 341.67671304 177.24276353 338.1284445 178.90499878 334.58013916 C180.2104173 331.79245903 181.51410517 329.00398158 182.81640625 326.21484375 C183.25301071 325.27985046 183.68961517 324.34485718 184.13945007 323.38153076 C187.00767462 317.21074338 189.76663363 311.00063674 192.46484375 304.75390625 C193.50202655 302.3815982 194.54121977 300.01018093 195.58099365 297.63900757 C196.22814069 296.14625533 196.86516482 294.64906788 197.49127197 293.14736938 C201.35713405 283.88347723 204.92489611 277.9734535 214 273 C215.67799323 271.9248541 217.34985879 270.84008777 219.015625 269.74609375 C220.75895447 268.64091928 222.50379949 267.53813256 224.25 266.4375 C226.17842746 265.21621222 228.10681157 263.99485599 230.03515625 262.7734375 C231.01629395 262.15307617 231.99743164 261.53271484 233.00830078 260.89355469 C237.90742516 257.7927216 242.79706431 254.67701083 247.6875 251.5625 C250.25488401 249.92855906 252.82233001 248.29475313 255.39208984 246.66455078 C257.27333232 245.46381017 259.14785982 244.25252617 261.01806641 243.03466797 C262.0085498 242.39287598 262.9990332 241.75108398 264.01953125 241.08984375 C264.92421143 240.49937256 265.8288916 239.90890137 266.76098633 239.30053711 C269 238 269 238 271 238 C271.09893555 237.32146973 271.19787109 236.64293945 271.29980469 235.94384766 C272.1525602 232.35858754 273.61609488 229.20227945 275.203125 225.8984375 C275.52279236 225.22132721 275.84245972 224.54421692 276.17181396 223.84658813 C277.19268812 221.68688911 278.2210721 219.53087192 279.25 217.375 C280.2602545 215.2455752 281.26893786 213.11541142 282.27746582 210.98516846 C282.93199428 209.60297739 283.58717783 208.22109633 284.24304199 206.83953857 C286.89131835 201.25451108 289.46979042 195.63956939 292 190 C281.42327085 184.66024944 270.78952864 179.46818865 260.0625 174.4375 C259.3390036 174.09750977 258.6155072 173.75751953 257.87008667 173.40722656 C245.79275904 167.73388883 233.67468299 162.15294045 221.50854492 156.67260742 C214.99647127 153.73726247 208.49918568 150.77816615 202.04069519 147.72631836 C198.91273725 146.24899109 195.77931311 144.78344698 192.64572144 143.31811523 C191.16109242 142.61976675 189.67912341 141.91572769 188.20022583 141.20532227 C169.36584279 132.1631234 152.6723325 129.69830025 132.3046875 135.80859375 C122.96106049 139.18852314 108.62901127 146.74197745 104 156 C103.01 156 102.02 156 101 156 C99.33691406 153.97827148 99.33691406 153.97827148 97.515625 151.12109375 C96.83564453 150.06664062 96.15566406 149.0121875 95.45507812 147.92578125 C94.71994013 146.76309161 93.9849171 145.60032928 93.25 144.4375 C92.48480235 143.24409952 91.71851276 142.05139854 90.95117188 140.859375 C89.38127566 138.4182307 87.81655135 135.97389395 86.25585938 133.52685547 C83.04181113 128.49318401 79.76969797 123.49762659 76.5 118.5 C75.27057051 116.6147547 74.04140698 114.72933594 72.8125 112.84375 C68.71373011 106.5589695 64.60713306 100.27931716 60.5 94 C54.54743921 84.8992437 48.60257377 75.79352275 42.6640625 66.68359375 C38.66771636 60.55417678 34.66630237 54.42809854 30.66113281 48.30444336 C29.22778795 46.11281179 27.79484101 43.92091991 26.36230469 41.72875977 C22.83685999 36.33421456 19.30648502 30.94303525 15.765625 25.55859375 C14.42707707 23.51823327 13.08853514 21.47786886 11.75 19.4375 C10.83831055 18.05594727 10.83831055 18.05594727 9.90820312 16.64648438 C6.35404727 11.22129934 3.05831668 5.71995887 0 0 Z M338 210 C337.58339111 210.88333008 337.16678223 211.76666016 336.73754883 212.67675781 C336.31919769 213.56377129 336.31919769 213.56377129 335.89239502 214.46870422 C335.25735917 215.81596437 334.62281371 217.16345576 333.9887085 218.51115417 C332.20099865 222.30991676 330.40642451 226.10517518 328.59936523 229.89477539 C325.10942391 237.23581458 321.70295759 244.57473285 318.640625 252.10546875 C312.85249119 266.14707984 308.06213146 275.4703534 293.97998047 282.04003906 C290.95360713 283.50732636 288.24186493 285.33236026 285.4375 287.1875 C283.95878128 288.12570638 282.47981766 289.06352792 281 290 C283.05648653 292.05648653 284.52087897 292.81712638 287.1484375 293.98828125 C287.99019531 294.36533203 288.83195312 294.74238281 289.69921875 295.13085938 C291.02373047 295.71577148 291.02373047 295.71577148 292.375 296.3125 C293.21933594 296.69083984 294.06367188 297.06917969 294.93359375 297.45898438 C296.68489984 298.23954388 298.44362112 299.0036419 300.20874023 299.75244141 C303 301 303 301 305.96508789 302.61865234 C311.60375589 305.60486764 311.60375589 305.60486764 317.73730469 305.2590332 C320.58717779 303.70305291 323.09732105 301.95748697 325.6875 300 C327.59628572 298.66917265 329.50514073 297.33844469 331.4140625 296.0078125 C332.81833496 294.99315918 332.81833496 294.99315918 334.25097656 293.95800781 C338.25618139 291.10527755 342.40410742 288.49660532 346.5625 285.875 C347.89982868 285.02243917 349.23465921 284.16594111 350.56640625 283.3046875 C351.11240479 282.95390137 351.65840332 282.60311523 352.22094727 282.24169922 C352.80803467 281.83193848 353.39512207 281.42217773 354 281 C354.81194824 280.45641846 355.62389648 279.91283691 356.46044922 279.3527832 C359.76132176 276.29466855 361.23383098 273.10925301 363.06640625 269.05078125 C363.42717758 268.27872849 363.78794891 267.50667572 364.15965271 266.71122742 C365.30603496 264.25038975 366.43436879 261.78174935 367.5625 259.3125 C368.3237096 257.67198721 369.08606875 256.03200729 369.84960938 254.39257812 C371.58542877 250.65535707 373.3153575 246.91573306 375.01687622 243.16275024 C375.71480496 241.62739368 376.42151353 240.0960147 377.13424683 238.56747437 C377.50107574 237.7694339 377.86790466 236.97139343 378.24584961 236.14916992 C378.58160507 235.42638351 378.91736053 234.70359711 379.26329041 233.95890808 C380.17600549 231.88081202 380.17600549 231.88081202 380 229 C375.46531463 226.93651296 370.93039342 224.87354536 366.39526367 222.81103516 C364.85613803 222.11097864 363.31707419 221.41078625 361.77807617 220.71044922 C353.86540065 217.10980947 345.95316481 213.510612 338 210 Z " fill="#D8FE00" transform="translate(41,0)"/>
<path d="M0 0 C2.4170363 0.98584297 4.77689186 2.00573882 7.14453125 3.09765625 C8.1757032 3.56648476 8.1757032 3.56648476 9.22770691 4.04478455 C10.68542222 4.70890392 12.14196825 5.37559505 13.59741211 6.04467773 C15.76465753 7.04051662 17.93562769 8.02779977 20.10742188 9.01367188 C29.85174615 13.4559924 39.4524789 18.1501716 49 23 C47.75748494 26.72754519 46.6584972 27.11189713 43.35546875 29.1171875 C42.37860107 29.71748779 41.4017334 30.31778809 40.39526367 30.9362793 C39.33670166 31.57605713 38.27813965 32.21583496 37.1875 32.875 C34.97822381 34.23153856 32.76990416 35.58963607 30.5625 36.94921875 C29.45390625 37.63032715 28.3453125 38.31143555 27.203125 39.01318359 C22.65235252 41.83591122 18.16541464 44.75101531 13.6875 47.6875 C6.20571276 52.58532825 -1.32748136 57.3932887 -8.91137695 62.1315918 C-9.65218506 62.59605713 -10.39299316 63.06052246 -11.15625 63.5390625 C-12.12788086 64.14548584 -12.12788086 64.14548584 -13.11914062 64.76416016 C-15.14610183 66.09599786 -17.07406248 67.52668986 -19 69 C-7.53435915 74.830371 4.0568008 80.33018846 15.75 85.6875 C18.34210796 86.87877424 20.93378543 88.07098187 23.52546692 89.26318359 C25.24878241 90.05581531 26.97224115 90.84813565 28.69584656 91.64013672 C36.07719534 95.03224667 43.44675113 98.44915621 50.8125 101.875 C53.02729185 102.90375757 55.24213477 103.9324052 57.45703125 104.9609375 C60.80942455 106.51782023 64.16160481 108.07515354 67.51318359 109.63378906 C71.00772835 111.25815581 74.50371422 112.87938464 78 114.5 C79.54844604 115.22098877 79.54844604 115.22098877 81.12817383 115.95654297 C83.09719342 116.8679865 85.07139052 117.76834256 87.05102539 118.65649414 C89.10845981 119.59382849 91.14578521 120.57602944 93.16577148 121.59155273 C99.28425293 124.69823627 99.28425293 124.69823627 105.78515625 123.72265625 C107.45385228 122.50103128 107.45385228 122.50103128 109.0625 121.0625 C110.34095977 120.08617917 111.62235261 119.11369028 112.90625 118.14453125 C113.57011719 117.62455566 114.23398437 117.10458008 114.91796875 116.56884766 C118.47803241 113.88627624 122.2726947 111.59061201 126.0625 109.25 C127.68701206 108.23046275 129.31069322 107.20960053 130.93359375 106.1875 C132.17665283 105.40632813 132.17665283 105.40632813 133.44482422 104.609375 C137.84697168 101.83668667 142.23625618 99.04383988 146.625 96.25 C147.52565186 95.67677002 148.42630371 95.10354004 149.35424805 94.51293945 C154.46415795 91.25841084 159.56978697 87.99724434 164.671875 84.73046875 C165.23172089 84.37201874 165.79156677 84.01356873 166.36837769 83.64425659 C169.08808222 81.902672 171.80727877 80.16030032 174.52587891 78.41699219 C176.468899 77.17186414 178.41300637 75.92843053 180.35839844 74.68701172 C182.05240165 73.60516678 183.74344169 72.51865959 185.43066406 71.42626953 C190.77752062 68 190.77752062 68 193 68 C191.52548283 72.73810906 189.62996193 77.20234006 187.54296875 81.6953125 C187.20346695 82.43269653 186.86396515 83.17008057 186.51417542 83.92980957 C185.40831309 86.32961726 184.29796992 88.72732139 183.1875 91.125 C182.42000004 92.78813457 181.65274961 94.45138432 180.88574219 96.11474609 C175.67702289 107.40351959 170.44828892 118.68320268 165.19995117 129.95361328 C162.09661164 136.61935707 159.03020829 143.30068409 156 150 C172.5624487 157.04052479 188.92625411 158.76168208 206 152 C215.81420794 147.55434388 224.47995293 141.73865308 232 134 C232.66 133.34 233.32 132.68 234 132 C234.66 132 235.32 132 236 132 C237.33422852 133.69873047 237.33422852 133.69873047 238.87890625 136.1171875 C239.4615625 137.02082031 240.04421875 137.92445313 240.64453125 138.85546875 C241.27746094 139.85191406 241.91039062 140.84835937 242.5625 141.875 C243.92800392 143.9976413 245.29390415 146.12002769 246.66015625 148.2421875 C247.38041348 149.36553272 248.10062788 150.4889054 248.82080078 151.61230469 C252.34370071 157.09884953 255.92580399 162.54680277 259.5 168 C264.79900078 176.0993975 270.09055016 184.20360283 275.375 192.3125 C281.06995228 201.05046327 286.78193886 209.77715267 292.5 218.5 C298.81436667 228.13250568 305.12327298 237.76846476 311.40454102 247.42260742 C314.42120428 252.05696713 317.4478017 256.68435704 320.49554443 261.29832458 C322.08987707 263.71253489 323.68094924 266.1288864 325.27191162 268.5453186 C326.04438016 269.71647993 326.81849113 270.88655974 327.59429932 272.05551147 C328.66980467 273.6762387 329.73934572 275.30091906 330.80859375 276.92578125 C331.42532959 277.85817627 332.04206543 278.79057129 332.67749023 279.7512207 C334 282 334 282 334 284 C326.11733765 284.66276222 320.81691112 283.12689593 313.8125 279.625 C311.68540243 278.6070137 309.55775803 277.59016954 307.4296875 276.57421875 C306.2550293 276.00622559 305.08037109 275.43823242 303.87011719 274.85302734 C297.26174029 271.67266324 290.58363836 268.64019003 283.91958618 265.5788269 C279.70038508 263.63872999 275.48515577 261.69004042 271.26953125 259.7421875 C264.60109348 256.66225491 257.9318066 253.58416984 251.26171875 250.5078125 C248.0494484 249.02610835 244.83721568 247.54432266 241.625 246.0625 C240.82720123 245.6944928 240.02940247 245.3264856 239.20742798 244.94732666 C229.9982272 240.6988163 220.79266738 236.44260988 211.59375 232.171875 C208.10420131 230.5520087 204.61462622 228.93219928 201.125 227.3125 C200.27043213 226.91582123 199.41586426 226.51914246 198.53540039 226.11044312 C186.06249971 220.32277217 173.56146432 214.60059812 161.03546143 208.92886353 C152.77145016 205.18611103 144.53676339 201.39363246 136.35571289 197.47216797 C128.80786677 193.8718297 121.18211541 190.44474878 113.5625 187 C101.65256215 181.61477971 89.80731513 176.10648612 78 170.5 C66.64697464 165.11085185 55.26400357 159.80173338 43.8125 154.625 C31.23984163 148.94104163 18.70361566 143.18246505 6.1875 137.375 C5.30919525 136.96754547 4.4308905 136.56009094 3.52597046 136.14028931 C-4.85091776 132.25351603 -13.2251943 128.36114135 -21.59765625 124.46484375 C-33.42278402 118.96363596 -45.26393966 113.50036989 -57.12976074 108.08761597 C-59.35319157 107.07245715 -61.57570101 106.05531145 -63.79785156 105.03735352 C-64.5252655 104.70416611 -65.25267944 104.3709787 -66.00213623 104.0276947 C-67.46868157 103.35594325 -68.93519365 102.68411918 -70.40167236 102.01222229 C-74.8194112 99.9904667 -79.24475643 97.98654093 -83.67623901 95.99510193 C-86.49573172 94.7250749 -89.30983775 93.44342615 -92.12286377 92.15914917 C-93.44824491 91.55730742 -94.77599121 90.96064494 -96.10614014 90.36941528 C-97.93353359 89.5565138 -99.75219431 88.7240648 -101.5703125 87.890625 C-102.59914551 87.42688477 -103.62797852 86.96314453 -104.68798828 86.48535156 C-107 85 -107 85 -107.94580078 83.12695312 C-108.16283689 74.60975213 -100.96285317 62.38678342 -95.515625 56.16015625 C-92.77627812 54.14818253 -90.0099844 52.57996751 -87 51 C-84.92922269 49.75805986 -82.8791391 48.48511526 -80.82714844 47.21240234 C-78.51573384 45.78359129 -76.19056865 44.37934383 -73.86328125 42.9765625 C-68.92676124 39.97864364 -64.08248202 36.849677 -59.25 33.6875 C-51.33388924 28.51018955 -43.38653301 23.38671054 -35.38989258 18.33447266 C-30.52583818 15.2591239 -25.69243793 12.14651498 -20.89453125 8.96875 C-19.89728027 8.31511475 -18.9000293 7.66147949 -17.87255859 6.98803711 C-15.95485685 5.72993416 -14.04462091 4.46035657 -12.14306641 3.17797852 C-11.27987793 2.61522217 -10.41668945 2.05246582 -9.52734375 1.47265625 C-8.77187256 0.97000244 -8.01640137 0.46734863 -7.23803711 -0.05053711 C-4.28868904 -1.30176593 -3.04275262 -0.96888383 0 0 Z " fill="#D8FE00" transform="translate(280,358)"/>
<path d="M0 0 C-0.64308192 4.33545246 -2.18063218 7.8237572 -4.0703125 11.765625 C-4.38288498 12.42266922 -4.69545746 13.07971344 -5.01750183 13.75666809 C-5.69390721 15.17767203 -6.37270007 16.59754146 -7.05361938 18.01638794 C-8.89868481 21.86297648 -10.72419236 25.71883071 -12.55078125 29.57421875 C-12.92617538 30.36569809 -13.30156952 31.15717743 -13.68833923 31.97264099 C-17.31385165 39.63153536 -20.82554576 47.33976414 -24.3125 55.0625 C-28.48329768 64.29354297 -32.68653913 73.50807407 -36.953125 82.6953125 C-37.58911873 84.06492378 -37.58911873 84.06492378 -38.23796082 85.46220398 C-40.31511272 89.93287457 -42.39563046 94.40195204 -44.47973633 98.86938477 C-59.78232618 130.92637261 -59.78232618 130.92637261 -56.875 165.6875 C-52.24193549 178.32313049 -45.28670767 187.52856577 -36 197 C-37.48081753 201.59998637 -41.25594475 203.31759151 -45.1875 205.625 C-51.93334667 209.65175155 -58.46762435 213.94682855 -64.99194336 218.31933594 C-71.52621777 222.69718352 -78.10980874 227.00030271 -84.6875 231.3125 C-85.3850943 231.77009705 -86.0826886 232.22769409 -86.80142212 232.69915771 C-95.6839074 238.52569974 -104.57604311 244.33684764 -113.48852539 250.11743164 C-120.71465867 254.80697752 -127.92055729 259.52723897 -135.125 264.25 C-136.36555864 265.06315295 -137.60611854 265.876304 -138.84667969 266.68945312 C-140.71189418 267.9120728 -142.57710207 269.13470256 -144.44229126 270.35736084 C-148.67578276 273.1323686 -152.90975088 275.90664696 -157.14453125 278.6796875 C-158.00276741 279.24171371 -158.00276741 279.24171371 -158.87834167 279.81509399 C-162.68679718 282.30831997 -166.49913719 284.79553335 -170.3125 287.28125 C-173.76392989 289.53198405 -177.2031554 291.79831332 -180.625 294.09375 C-181.28508057 294.53187012 -181.94516113 294.96999023 -182.62524414 295.42138672 C-184.27411353 296.51648656 -185.91671134 297.62101464 -187.55859375 298.7265625 C-188.36425781 299.14679688 -189.16992188 299.56703125 -190 300 C-190.99 299.67 -191.98 299.34 -193 299 C-192.53851563 298.00186279 -192.07703125 297.00372559 -191.6015625 295.9753418 C-183.38791917 278.20734406 -175.18562744 260.43458838 -167.0625 242.625 C-160.10239733 227.36839728 -153.05919092 212.15102034 -146.0010376 196.9395752 C-145.60237488 196.08037476 -145.20371216 195.22117432 -144.79296875 194.3359375 C-144.3941449 193.47641479 -143.99532104 192.61689209 -143.58441162 191.73132324 C-137.48989072 178.59320818 -131.42814196 165.43994848 -125.36289978 152.28829956 C-122.71135017 146.53964341 -120.05561862 140.79292994 -117.3984375 135.046875 C-110.56339989 120.26304713 -103.74111773 105.47414401 -97.00875854 90.64321899 C-96.07546889 88.59101716 -95.1380399 86.54075509 -94.19946289 84.4909668 C-91.38193092 78.32691593 -88.62370844 72.15353465 -86.01171875 65.8984375 C-77.81433674 46.50644319 -77.81433674 46.50644319 -67 41 C-64.87678598 39.72976413 -62.77839853 38.4228743 -60.67773438 37.11572266 C-58.34699802 35.67013236 -56.00159634 34.25120241 -53.65234375 32.8359375 C-49.36318584 30.23714477 -45.13914125 27.55005682 -40.9375 24.8125 C-34.12336291 20.37418261 -27.28993323 15.96696609 -20.44094849 11.58261108 C-18.78174765 10.52032608 -17.12316747 9.45707184 -15.46459961 8.39379883 C-14.43987549 7.73790771 -13.41515137 7.0820166 -12.359375 6.40625 C-11.44639648 5.82166016 -10.53341797 5.23707031 -9.59277344 4.63476562 C-8.7371582 4.09529297 -7.88154297 3.55582031 -7 3 C-6.10571289 2.43474609 -5.21142578 1.86949219 -4.29003906 1.28710938 C-2 0 -2 0 0 0 Z " fill="#D8FE00" transform="translate(198,311)"/>
<path d="M0 0 C-1.50382167 4.8583914 -3.45505473 9.36304849 -5.60546875 13.95703125 C-6.13913307 15.10776123 -6.13913307 15.10776123 -6.68357849 16.28173828 C-7.44933265 17.93224228 -8.21649322 19.58209437 -8.98492432 21.23135376 C-11.03933808 25.6408412 -13.08372871 30.05497301 -15.12890625 34.46875 C-15.75034515 35.80894951 -15.75034515 35.80894951 -16.38433838 37.17622375 C-19.87105398 44.70292565 -23.30411984 52.2530853 -26.72061157 59.81185913 C-32.37086072 72.31104533 -38.14938345 84.74363478 -44.01382446 97.14367676 C-49.18004534 108.07233469 -54.23502013 119.04623856 -59.21603394 130.0604248 C-65.55139499 144.06600453 -72.00690162 158.01477983 -78.47973633 171.95727539 C-78.86412369 172.7864296 -79.24851105 173.6155838 -79.64454651 174.46986389 C-80.39770594 176.08895869 -81.15498443 177.70614455 -81.91661072 179.3212738 C-83.5472346 182.78990061 -85.12681151 186.24453546 -86.49902344 189.82421875 C-89.94872106 198.44722812 -94.05090553 202.08425969 -102.125 206.5 C-104.29278055 207.7676283 -106.45943145 209.03719023 -108.625 210.30859375 C-110.24148438 211.23647705 -110.24148438 211.23647705 -111.890625 212.18310547 C-116.40627705 214.8217269 -120.76449931 217.67712769 -125.125 220.5625 C-133.17255959 225.83323982 -141.2750385 231.01349807 -149.40478516 236.15649414 C-154.40076651 239.32261194 -159.33456577 242.55188938 -164.19848633 245.91821289 C-166 247 -166 247 -168 247 C-167.36291455 242.68327574 -165.78101912 239.05451485 -163.89453125 235.1640625 C-163.57854477 234.50037155 -163.26255829 233.8366806 -162.93699646 233.15287781 C-162.25526829 231.72159353 -161.57123391 230.29140589 -160.88513184 228.86221313 C-159.05576767 225.0466658 -157.25017799 221.21987167 -155.44140625 217.39453125 C-155.07135468 216.61291122 -154.7013031 215.8312912 -154.32003784 215.02598572 C-150.89431651 207.78732858 -147.48406209 200.54220314 -144.14706421 193.262146 C-143.56005823 191.98636903 -142.96876991 190.7125516 -142.37271118 189.440979 C-133.88646532 171.32085301 -129.76085998 154.2398913 -135.68359375 134.59375 C-139.77815119 123.41572969 -146.83208498 110.77861001 -157 104 C-157 103.01 -157 102.02 -157 101 C-155.58911133 99.7800293 -155.58911133 99.7800293 -153.58203125 98.57421875 C-152.8336499 98.1150708 -152.08526855 97.65592285 -151.31420898 97.18286133 C-150.48864502 96.68939209 -149.66308105 96.19592285 -148.8125 95.6875 C-147.04799067 94.6039828 -145.28502119 93.51795476 -143.5234375 92.4296875 C-142.6065918 91.86475586 -141.68974609 91.29982422 -140.74511719 90.71777344 C-136.41413683 88.00763667 -132.17603943 85.16427376 -127.9375 82.3125 C-120.28230792 77.17877626 -112.59444157 72.0991173 -104.875 67.0625 C-94.34001636 60.18808475 -83.82254716 53.28748014 -73.3125 46.375 C-63.30435105 39.79285091 -53.28944058 33.22186077 -43.25 26.6875 C-37.14802623 22.71508132 -31.05617086 18.72946756 -25 14.6875 C-24.41927734 14.30053955 -23.83855469 13.9135791 -23.24023438 13.51489258 C-20.100129 11.41808099 -16.97494467 9.30108005 -13.859375 7.16796875 C-12.82876953 6.46764526 -12.82876953 6.46764526 -11.77734375 5.75317383 C-10.45827103 4.8564776 -9.14293895 3.95424549 -7.83203125 3.0456543 C-3.33761668 0 -3.33761668 0 0 0 Z " fill="#D8FE00" transform="translate(653,35)"/>
<path d="M0 0 C3.12601009 0.00314927 6.25105968 -0.02036628 9.37695312 -0.0456543 C27.91635628 -0.10393372 46.22768521 1.77425897 64.40039062 5.50317383 C65.41528564 5.71039062 66.43018066 5.91760742 67.47583008 6.13110352 C87.36985587 10.38093448 106.45107174 17.08911695 125.02539062 25.31567383 C125.88938477 25.6941748 126.75337891 26.07267578 127.64355469 26.46264648 C146.22913323 34.68385991 163.47873684 45.07458782 179.96289062 56.94067383 C180.78031738 57.52042969 181.59774414 58.10018555 182.43994141 58.69750977 C183.54764893 59.51783691 183.54764893 59.51783691 184.67773438 60.35473633 C185.32734131 60.83120605 185.97694824 61.30767578 186.64624023 61.79858398 C188.02539062 63.31567383 188.02539062 63.31567383 188.02539062 67.31567383 C185.87670898 69.17163086 185.87670898 69.17163086 182.86523438 71.07348633 C181.76775879 71.77747559 180.6702832 72.48146484 179.53955078 73.20678711 C178.34761695 73.95187408 177.15539157 74.69649485 175.96289062 75.44067383 C174.76462153 76.20090633 173.56719281 76.96246501 172.37060547 77.7253418 C170.58589676 78.86296367 168.80063883 79.99955903 167.01177979 81.13064575 C163.66021743 83.25307485 160.35669363 85.42608567 157.09960938 87.69067383 C156.41584229 88.1648877 155.7320752 88.63910156 155.02758789 89.12768555 C153.80948398 89.97967707 152.59730292 90.8402242 151.39233398 91.71069336 C147.52439469 94.38556323 147.52439469 94.38556323 145.08178711 94.04345703 C142.95219725 93.28976982 141.26615662 92.38033057 139.36523438 91.16333008 C138.66487061 90.72182617 137.96450684 90.28032227 137.24291992 89.82543945 C136.49051025 89.3478418 135.73810059 88.87024414 134.96289062 88.37817383 C83.60489103 56.62037019 22.81183991 43.68366646 -36.99316406 53.91992188 C-42.63588166 54.66892656 -46.3541306 54.49937769 -51.48242188 51.92895508 C-52.5383252 51.40873779 -53.59422852 50.88852051 -54.68212891 50.35253906 C-55.80989746 49.78349854 -56.93766602 49.21445801 -58.09960938 48.62817383 C-59.89649681 47.74155336 -61.69340993 46.85498141 -63.4916687 45.97114563 C-64.73928654 45.35786998 -65.9862883 44.74333956 -67.23269653 44.12760925 C-74.13609935 40.72353509 -81.11321246 37.48253519 -88.09960938 34.25317383 C-89.25348145 33.71797119 -90.40735352 33.18276855 -91.59619141 32.63134766 C-97.69941611 29.80657765 -103.8176232 27.02137677 -109.97460938 24.31567383 C-109.97460938 23.32567383 -109.97460938 22.33567383 -109.97460938 21.31567383 C-86.7459579 12.51787718 -63.61534604 5.74515232 -38.97460938 2.31567383 C-37.70198242 2.13689697 -36.42935547 1.95812012 -35.11816406 1.77392578 C-23.41484066 0.24488017 -11.79302457 -0.02470606 0 0 Z " fill="#D8FE00" transform="translate(325.974609375,23.684326171875)"/>
<path d="M0 0 C2.89553496 1.73279671 5.70603816 3.54013677 8.5 5.43359375 C58.59390859 38.22612687 117.55140535 47.66629499 176.13354492 40.88500977 C177.2444751 40.75666748 178.35540527 40.6283252 179.5 40.49609375 C180.20461868 40.3704303 180.90923737 40.24476685 181.63520813 40.11529541 C187.48953536 39.18319091 191.04579484 39.97081481 196.26953125 42.66015625 C196.98088226 43.00399353 197.69223328 43.34783081 198.42514038 43.7020874 C200.73123506 44.82195544 203.02140098 45.97090325 205.3125 47.12109375 C206.90623658 47.90274164 208.50105778 48.68218168 210.09692383 49.45947266 C212.52537549 50.64285773 214.95284193 51.82792687 217.37632751 53.02145386 C222.56488003 55.57418824 227.78564663 58.0360526 233.0546875 60.41796875 C234.03936256 60.86473465 234.03936256 60.86473465 235.04393005 61.32052612 C238.11907387 62.71426125 241.1979323 64.09828379 244.2824707 65.47119141 C245.35843506 65.96151855 246.43439941 66.4518457 247.54296875 66.95703125 C248.48164795 67.37774902 249.42032715 67.7984668 250.38745117 68.23193359 C252.5 69.49609375 252.5 69.49609375 253.5 72.49609375 C220.71495138 86.11513541 186.00406819 93.48983768 150.5 94.49609375 C149.79198242 94.51800781 149.08396484 94.53992188 148.35449219 94.5625 C95.63243938 95.96282013 44.97914352 82.87935665 -1.5 58.49609375 C-2.14114746 58.16029297 -2.78229492 57.82449219 -3.44287109 57.47851562 C-17.96906395 49.78667575 -31.43126599 40.43785717 -44.5 30.49609375 C-44.11972913 28.14387713 -43.85241079 26.82815355 -42.09138489 25.16882324 C-41.18920479 24.58735535 -41.18920479 24.58735535 -40.26879883 23.99414062 C-39.58751419 23.54687622 -38.90622955 23.09961182 -38.20429993 22.63879395 C-37.46270126 22.16889038 -36.7211026 21.69898682 -35.95703125 21.21484375 C-35.19581467 20.7194812 -34.43459808 20.22411865 -33.65031433 19.71374512 C-31.21135688 18.13009359 -28.76228257 16.56293535 -26.3125 14.99609375 C-24.68093969 13.94118748 -23.05007161 12.88520974 -21.41992188 11.828125 C-17.74648 9.44792609 -14.06744529 7.07680025 -10.37832642 4.72096252 C-8.60347927 3.56357325 -6.87586563 2.35380213 -5.14331055 1.13452148 C-2.5 -0.50390625 -2.5 -0.50390625 0 0 Z " fill="#D8FE00" transform="translate(188.5,528.50390625)"/>
<path d="M0 0 C3.61115001 1.20371667 3.95488095 2.07436357 5.8984375 5.2421875 C6.4545874 6.13502441 7.0107373 7.02786133 7.58374023 7.94775391 C8.17485596 8.91374512 8.76597168 9.87973633 9.375 10.875 C14.70224817 19.4602521 20.21972375 27.84288976 26.17529297 36.00732422 C26.69365723 36.73967285 27.21202148 37.47202148 27.74609375 38.2265625 C28.20685303 38.86158691 28.6676123 39.49661133 29.14233398 40.15087891 C30 42 30 42 29.77978516 43.99829102 C28.95728378 46.10965257 27.99145751 47.88763962 26.77734375 49.80078125 C26.32544678 50.52209229 25.8735498 51.24340332 25.40795898 51.98657227 C24.92270752 52.75412842 24.43745605 53.52168457 23.9375 54.3125 C-0.60719781 94.01774125 -13.48126094 138.39223182 -13.3125 185.0625 C-13.3126712 185.95443054 -13.31284241 186.84636108 -13.3130188 187.76531982 C-13.30200403 201.25494518 -12.62138865 214.35475648 -10.16186523 227.65283203 C-9.69194215 234.4670711 -11.9750462 239.7159365 -14.90234375 245.66015625 C-15.29617249 246.47975327 -15.69000122 247.29935028 -16.09576416 248.14378357 C-17.36794716 250.78750079 -18.65276029 253.42486574 -19.9375 256.0625 C-21.24415084 258.77167747 -22.54728356 261.48252676 -23.85005188 264.193573 C-24.7076593 265.97802186 -25.56628534 267.76198155 -26.4259491 269.54544067 C-29.77023986 276.4905196 -33.02066208 283.47193243 -36.1875 290.5 C-36.59025146 291.39340088 -36.99300293 292.28680176 -37.40795898 293.20727539 C-38.27510132 295.13678058 -39.13818238 297.06811064 -40 299 C-40.99 299 -41.98 299 -43 299 C-45.39029356 292.35243804 -47.72234253 285.68701401 -50 279 C-50.27183105 278.2044873 -50.54366211 277.40897461 -50.82373047 276.58935547 C-54.46219262 265.75745188 -57.03481655 254.76361354 -59.25 243.5625 C-59.4962915 242.33813232 -59.74258301 241.11376465 -59.99633789 239.85229492 C-63.39439418 221.95117005 -64.38721935 204.0032832 -64.3125 185.8125 C-64.31067719 184.88077972 -64.30885437 183.94905945 -64.30697632 182.98910522 C-64.257264 167.8164842 -63.59440932 152.98176462 -61 138 C-60.74259033 136.50944092 -60.74259033 136.50944092 -60.47998047 134.98876953 C-51.88651544 87.06042702 -32.1905786 42.87598346 -3 4 C-2.38253906 3.175 -1.76507813 2.35 -1.12890625 1.5 C-0.75636719 1.005 -0.38382813 0.51 0 0 Z " fill="#D8FE00" transform="translate(94,137)"/>
<path d="M0 0 C0.99 0.33 1.98 0.66 3 1 C4.25512695 3.71435547 4.25512695 3.71435547 5.48828125 7.3671875 C5.71215012 8.02491653 5.93601898 8.68264557 6.16667175 9.36030579 C6.89711683 11.52714781 7.60653645 13.70006688 8.3125 15.875 C8.67891602 16.98894638 8.67891602 16.98894638 9.05273438 18.12539673 C15.99828102 39.3160932 20.64332013 60.81810284 23 83 C23.13148438 84.21300781 23.26296875 85.42601562 23.3984375 86.67578125 C29.82423336 161.9617949 7.2853924 234.44463888 -37 295 C-37.49290527 295.74233887 -37.98581055 296.48467773 -38.49365234 297.24951172 C-38.99074707 297.82717285 -39.4878418 298.40483398 -40 299 C-40.99 299 -41.98 299 -43 299 C-44.5252267 296.90518657 -45.8253313 294.85735293 -47.125 292.625 C-50.44153109 287.08641255 -53.86997786 281.64636729 -57.47265625 276.2890625 C-58.25707727 275.11642625 -59.04141942 273.94373725 -59.82568359 272.77099609 C-61.00376947 271.01041592 -62.1854992 269.2529315 -63.37969971 267.50323486 C-64.5079086 265.84833616 -65.6195259 264.18216363 -66.73046875 262.515625 C-67.38426514 261.54915039 -68.03806152 260.58267578 -68.71166992 259.58691406 C-70 257 -70 257 -69.86401367 254.91625977 C-68.88267794 252.73979631 -67.75970314 250.81926791 -66.4453125 248.82421875 C-65.91824707 248.00808105 -65.39118164 247.19194336 -64.84814453 246.35107422 C-64.27950684 245.47209473 -63.71086914 244.59311523 -63.125 243.6875 C-43.8716542 213.20259222 -32.84458221 179.60472123 -28 144 C-27.8954248 143.26064209 -27.79084961 142.52128418 -27.68310547 141.75952148 C-26.58854018 132.74551199 -26.77077061 123.62779596 -26.75 114.5625 C-26.74400787 113.65227081 -26.73801575 112.74204163 -26.73184204 111.80422974 C-26.6671507 100.39540534 -27.28973103 89.69607972 -29.1875 78.4375 C-31.17159657 65.24809585 -27.00723023 56.46375154 -20.66552734 45.08154297 C-17.7490924 39.68558256 -15.27984132 34.08469836 -12.75 28.5 C-11.75091955 26.33551282 -10.75094693 24.17143718 -9.75 22.0078125 C-6.39826837 14.71571868 -3.16400398 7.37524871 0 0 Z " fill="#D8FE00" transform="translate(604,210)"/>
<path d="M0 0 C-0.64308192 4.33545246 -2.18063218 7.8237572 -4.0703125 11.765625 C-4.38347412 12.42398346 -4.69663574 13.08234192 -5.01928711 13.76065063 C-5.69627001 15.18299039 -6.37565627 16.60418822 -7.05718994 18.02435303 C-8.88345296 21.83085093 -10.69163609 25.64591135 -12.5 29.4609375 C-12.87271027 30.24642975 -13.24542053 31.031922 -13.62942505 31.84121704 C-18.19303369 41.48269053 -22.57694479 51.20540393 -26.94970703 60.93457031 C-28.08429209 63.45668255 -29.22959933 65.97338795 -30.38647461 68.48535156 C-31.44222616 70.78503371 -32.47779526 73.09411592 -33.49047852 75.41308594 C-36.54874943 82.09777517 -39.23900916 85.95468984 -45.6875 89.5 C-47.2123595 90.41256007 -48.73709467 91.32532792 -50.26171875 92.23828125 C-51.04595215 92.69283691 -51.83018555 93.14739258 -52.63818359 93.61572266 C-56.48895121 95.87268486 -60.23680071 98.28843539 -64 100.6875 C-65.59075188 101.6907291 -67.18191162 102.69331173 -68.7734375 103.6953125 C-81.79987501 111.91803088 -94.76434673 120.24097081 -107.6875 128.625 C-114.98881127 133.36103394 -122.31609823 138.05591125 -129.67260742 142.70581055 C-134.28549832 145.6223402 -138.87248485 148.56713537 -143.4140625 151.59375 C-144.2714502 152.15715088 -145.12883789 152.72055176 -146.01220703 153.30102539 C-147.62907276 154.36460252 -149.23742781 155.44127282 -150.83544922 156.53295898 C-151.56006348 157.00548096 -152.28467773 157.47800293 -153.03125 157.96484375 C-153.65580078 158.3837085 -154.28035156 158.80257324 -154.92382812 159.23413086 C-158.83279134 160.67608966 -162.19778312 159.3182701 -165.93408203 157.8359375 C-166.94841309 157.35382813 -167.96274414 156.87171875 -169.0078125 156.375 C-170.15088867 155.83705811 -171.29396484 155.29911621 -172.47167969 154.74487305 C-173.68946898 154.1632819 -174.90724211 153.58165691 -176.125 153 C-178.00242007 152.11333816 -179.88110332 151.22939351 -181.7598877 150.34562683 C-183.01898383 149.75320017 -184.27769201 149.15994828 -185.53601074 148.56587219 C-191.24455056 145.87331187 -196.98880971 143.26507081 -202.75 140.6875 C-203.59449707 140.30916016 -204.43899414 139.93082031 -205.30908203 139.54101562 C-207.20537655 138.69249327 -209.10256769 137.845975 -211 137 C-211 135.68 -211 134.36 -211 133 C-208.4429797 131.15017493 -205.98562295 129.60657584 -203.25 128.0625 C-201.58172025 127.08347272 -199.91511044 126.10159543 -198.25 125.1171875 C-197.38117188 124.60639648 -196.51234375 124.09560547 -195.6171875 123.56933594 C-191.42159287 121.05354468 -187.3376079 118.37400319 -183.25 115.6875 C-176.30040559 111.13992623 -169.3242088 106.63874981 -162.3125 102.1875 C-154.4281787 97.18112711 -146.55270965 92.16135428 -138.6875 87.125 C-137.64722656 86.45895752 -136.60695313 85.79291504 -135.53515625 85.10668945 C-132.35662157 83.07135926 -129.1782765 81.03573334 -126 79 C-109.45475705 68.40252597 -92.89315049 57.83146145 -76.31152344 47.29101562 C-65.69745119 40.54325095 -55.09152728 33.78310877 -44.5 27 C-36.31889303 21.76076424 -28.13293697 16.52929649 -19.9375 11.3125 C-19.05191406 10.74853516 -18.16632813 10.18457031 -17.25390625 9.60351562 C-15.60775057 8.55630736 -13.96051675 7.51079119 -12.31201172 6.46728516 C-10.76257011 5.48395421 -9.21733892 4.49395921 -7.67626953 3.49755859 C-6.95938965 3.03816895 -6.24250977 2.5787793 -5.50390625 2.10546875 C-4.87427979 1.6983667 -4.24465332 1.29126465 -3.59594727 0.87182617 C-2 0 -2 0 0 0 Z " fill="#D8FE00" transform="translate(536,289)"/>
<path d="M0 0 C1.09787842 0.53471924 2.19575684 1.06943848 3.3269043 1.62036133 C4.48488525 2.18779053 5.64286621 2.75521973 6.8359375 3.33984375 C18.19834347 8.87270867 29.64826161 14.17499989 41.2109375 19.27734375 C40.83706699 21.66582058 40.58516454 22.94389145 38.75 24.57910156 C38.11835938 24.95905273 37.48671875 25.33900391 36.8359375 25.73046875 C35.74901611 26.39900879 35.74901611 26.39900879 34.64013672 27.08105469 C33.83850098 27.55833008 33.03686523 28.03560547 32.2109375 28.52734375 C30.46280054 29.59905245 28.7154435 30.67203408 26.96875 31.74609375 C26.03321289 32.31714844 25.09767578 32.88820312 24.13378906 33.4765625 C19.07512714 36.59322557 14.08400452 39.81474776 9.0859375 43.02734375 C6.94807494 44.39738243 4.81005238 45.76717146 2.671875 47.13671875 C1.60291992 47.82185547 0.53396484 48.50699219 -0.56738281 49.21289062 C-5.80642944 52.57007297 -11.04784288 55.92355533 -16.2890625 59.27734375 C-18.37240766 60.6106586 -20.45574098 61.94399195 -22.5390625 63.27734375 C-60.0390625 87.27734375 -60.0390625 87.27734375 -63.16918945 89.28051758 C-65.23556323 90.60306794 -67.30180846 91.92581918 -69.36791992 93.2487793 C-74.2479032 96.37315648 -79.12917297 99.49546713 -84.01504517 102.61062622 C-85.75643872 103.72104468 -87.49742194 104.83210359 -89.23828125 105.94335938 C-91.43147352 107.34307964 -93.62544735 108.74157628 -95.8203125 110.13867188 C-96.80644531 110.76837891 -97.79257813 111.39808594 -98.80859375 112.046875 C-99.67589111 112.59964111 -100.54318848 113.15240723 -101.43676758 113.72192383 C-103.80065084 115.23361395 -103.80065084 115.23361395 -105.9128418 116.97924805 C-107.7890625 118.27734375 -107.7890625 118.27734375 -110.7890625 118.27734375 C-108.41179558 110.15806288 -104.8065025 102.69514098 -101.15264893 95.09454346 C-99.24104949 91.11680311 -97.34687005 87.13079581 -95.453125 83.14453125 C-95.06591278 82.3300351 -94.67870056 81.51553894 -94.27975464 80.67636108 C-89.57025023 70.74520729 -85.04270807 60.73210252 -80.52441406 50.71289062 C-80.22677155 50.05368622 -79.92912903 49.39448181 -79.62246704 48.71530151 C-78.8257722 46.9497018 -78.03120709 45.18314151 -77.23681641 43.41650391 C-76.75905762 42.38058105 -76.28129883 41.3446582 -75.7890625 40.27734375 C-75.29277344 39.19807617 -74.79648438 38.11880859 -74.28515625 37.00683594 C-72.3078701 33.3994503 -69.63371396 31.87635063 -66.1640625 29.90234375 C-64.7174592 29.03861656 -63.27224109 28.17256681 -61.828125 27.3046875 C-61.02922852 26.8288623 -60.23033203 26.35303711 -59.40722656 25.86279297 C-54.39116507 22.82527867 -49.47292644 19.63341475 -44.5390625 16.46484375 C-43.4756665 15.78776367 -42.41227051 15.11068359 -41.31665039 14.41308594 C-36.14112027 11.1111095 -31.00820964 7.76738866 -25.94921875 4.2890625 C-25.04397461 3.67458252 -24.13873047 3.06010254 -23.20605469 2.42700195 C-21.51124702 1.27218784 -19.82752135 0.10088195 -18.15722656 -1.08911133 C-17.40280273 -1.59982178 -16.64837891 -2.11053223 -15.87109375 -2.63671875 C-15.22374268 -3.08998535 -14.5763916 -3.54325195 -13.90942383 -4.01025391 C-9.23275293 -5.58152917 -4.17597369 -2.04785321 0 0 Z " fill="#D8FE00" transform="translate(257.7890625,185.72265625)"/>
</svg>
