<?xml version="1.0" encoding="UTF-8"?>
<svg version="1.1" xmlns="http://www.w3.org/2000/svg" width="586" height="390">
<path d="M0 0 C125.4 0 250.8 0 380 0 C377.74972811 12.37649538 377.74972811 12.37649538 376.13647461 18.36743164 C375.96222458 19.01931458 375.78797455 19.67119751 375.60844421 20.34283447 C375.04405828 22.44979547 374.47338219 24.5549895 373.90234375 26.66015625 C373.50370527 28.14171167 373.10540091 29.62335704 372.70741272 31.10508728 C371.8789066 34.18596242 371.04745197 37.26602027 370.21362305 40.34545898 C369.14422501 44.29525139 368.08074773 48.24660803 367.01923275 52.19852543 C366.20001128 55.24695172 365.3785336 58.2947661 364.55627632 61.3423748 C364.16304211 62.8003207 363.77032255 64.25840552 363.37812614 65.71663094 C362.83230455 67.74405648 362.28364721 69.77069238 361.73413086 71.79711914 C361.42261581 72.94974747 361.11110077 74.10237579 360.79014587 75.28993225 C360 78 360 78 359 80 C367.30254233 79.96178857 375.60455078 79.90220537 383.90672112 79.81609726 C387.76269998 79.77675926 391.61845517 79.74450449 395.47460938 79.72900391 C399.20316904 79.71374613 402.93111318 79.6791424 406.65939713 79.63169098 C408.07453149 79.61697031 409.48975378 79.60896439 410.90496445 79.60811615 C420.53654877 79.59654818 428.43812927 78.74766175 436.55078125 73.28125 C444.91489914 64.82440353 447.65536231 53.55947941 450.515625 42.3046875 C450.81692322 41.15001984 451.11822144 39.99535217 451.4286499 38.80569458 C452.37732669 35.16420581 453.31417058 31.51980932 454.25 27.875 C455.20240553 24.19512032 456.15726295 20.51589335 457.11419678 16.83718872 C457.70607979 14.55876573 458.29492373 12.27955066 458.88043213 9.9994812 C459.14450867 8.97726471 459.40858521 7.95504822 459.68066406 6.90185547 C460.02777435 5.55050003 460.02777435 5.55050003 460.38189697 4.17184448 C461 2 461 2 462 0 C498.96 0 535.92 0 574 0 C559.234375 57.72017045 559.234375 57.72017045 556.62817383 67.58178711 C556.07216519 69.6988137 555.52330121 71.81772656 554.98071289 73.93823242 C551.59739479 87.1413529 547.77426683 99.13802082 541 111 C540.13205811 112.53865723 540.13205811 112.53865723 539.24658203 114.10839844 C526.87627365 135.42649594 504.5785282 152.28254746 481 159 C480.39485093 159.17308622 479.78970186 159.34617245 479.16621494 159.52450371 C472.33369645 161.26722218 465.69721361 161.26840255 458.67749023 161.22705078 C456.71505119 161.22748886 456.71505119 161.22748886 454.71296692 161.22793579 C451.15157392 161.228506 447.59031761 161.21680598 444.02895617 161.20278788 C440.29739256 161.19022468 436.56582528 161.18910563 432.83424377 161.18673706 C425.77965283 161.18053863 418.7251244 161.16415014 411.6705609 161.14403808 C403.63423821 161.12162792 395.59791243 161.11067282 387.56156623 161.10064721 C371.04100765 161.07978233 354.52051182 161.04463844 338 161 C337.66884186 162.45786171 337.66884186 162.45786171 337.33099365 163.94517517 C334.55086694 176.04322869 331.38025239 188.02194324 328.140625 200.00390625 C327.6480314 201.83322714 327.15568118 203.66261357 326.66357422 205.49206543 C324.86198004 212.18300005 323.0557232 218.87267852 321.25 225.5625 C317.2075 240.556875 313.165 255.55125 309 271 C272.04 271 235.08 271 197 271 C201.59552295 251.46902744 201.59552295 251.46902744 203.63110352 243.83349609 C203.86451447 242.95019623 204.09792542 242.06689636 204.33840942 241.15682983 C205.09964771 238.2784283 205.86421273 235.40092284 206.62890625 232.5234375 C207.18319808 230.4310065 207.73730585 228.33852673 208.29124451 226.2460022 C209.45729499 221.8431443 210.62487682 217.44069654 211.79370117 213.03857422 C213.22717212 207.63965214 214.65802202 202.2400408 216.08776283 196.84012985 C226.31763034 158.20693082 236.65695305 119.60301535 247 81 C245.54777857 81.02350572 245.54777857 81.02350572 244.06621933 81.04748631 C220.47913661 81.42533967 196.89244746 81.70444896 173.3029747 81.88080692 C161.8948976 81.96836723 150.48882278 82.08767122 139.08203125 82.2824707 C129.13644815 82.45223502 119.19231515 82.56166174 109.24532342 82.59950441 C103.98038404 82.62161949 98.71959176 82.67334055 93.45598602 82.79741096 C88.49364757 82.91342478 83.53713224 82.9482889 78.57356644 82.92283058 C76.75931916 82.92748175 74.94486362 82.96096985 73.13179398 83.02649307 C59.81663606 83.48381106 59.81663606 83.48381106 55.09768963 79.32247424 C51.52404867 75.22507148 48.75618903 70.72571503 46.12748861 65.98199928 C44.68273144 63.44227724 42.99813503 61.1337254 41.22265625 58.81640625 C40.69663818 58.10669678 40.17062012 57.3969873 39.62866211 56.66577148 C39.11182861 55.97169189 38.59499512 55.2776123 38.0625 54.5625 C31.85713428 46.18253803 25.73582033 37.74498829 19.64404297 29.28222656 C16.23533689 24.55033105 12.81669523 19.82559969 9.40014648 15.09936523 C8.40586921 13.72310213 7.4130404 12.34579107 6.421875 10.96728516 C5.46122822 9.63814852 4.49223122 8.31501324 3.515625 6.99755859 C0 2.21418539 0 2.21418539 0 0 Z " fill="#F8F8F9" transform="translate(0,119)"/>
<path d="M0 0 C48.46656079 -0.05136082 96.93312353 -0.09912193 145.39970398 -0.12702942 C146.1171515 -0.12744359 146.83459902 -0.12785776 147.57378737 -0.12828448 C163.16627098 -0.13726344 178.75875489 -0.14557395 194.35123922 -0.15319599 C201.9979128 -0.15693796 209.6445863 -0.16082763 217.29125977 -0.16479492 C218.05219119 -0.1651872 218.81312261 -0.16557948 219.59711257 -0.16598364 C244.25615884 -0.17876514 268.91518448 -0.20129718 293.57421826 -0.22889166 C318.91692623 -0.25719966 344.25962279 -0.27565871 369.60234631 -0.28174497 C373.18273985 -0.28260942 376.76313335 -0.28358633 380.34352684 -0.28463173 C381.40052448 -0.28493513 381.40052448 -0.28493513 382.4788756 -0.28524467 C393.81696462 -0.28878828 405.1550183 -0.30269833 416.49309291 -0.3204961 C427.89476426 -0.33817208 439.29639003 -0.34465769 450.69807837 -0.34050413 C456.87451947 -0.33858087 463.05085695 -0.34154894 469.22727966 -0.35761642 C474.88341956 -0.37222301 480.53938623 -0.37294727 486.19553413 -0.36269668 C488.24013434 -0.3614299 490.28474539 -0.36522888 492.32932428 -0.37464955 C512.03599636 -0.46015994 512.03599636 -0.46015994 521 3 C521.64860892 3.24785069 522.29721784 3.49570138 522.96548158 3.75106269 C531.58580529 7.33600478 538.50204846 12.31505705 545 19 C545.63421875 19.61359375 546.2684375 20.2271875 546.921875 20.859375 C560.55296813 34.9729847 562.47176278 52.72567952 562.2746582 71.36035156 C561.92585538 74.71257923 560.95110091 77.77265654 560 81 C512.36333425 81.18830118 464.72664092 81.36342807 417.08970642 81.46577454 C416.38467043 81.46729316 415.67963443 81.46881179 414.95323371 81.47037644 C399.63091726 81.50329839 384.30859686 81.5337704 368.98627055 81.56171862 C361.47221009 81.57543933 353.9581507 81.58970142 346.4440918 81.60424805 C345.32248276 81.60640557 345.32248276 81.60640557 344.17821496 81.60860668 C319.94156545 81.655482 295.70519804 81.73810639 271.46871943 81.83926943 C246.56264797 81.94303853 221.65673261 82.0107422 196.75044862 82.03306489 C193.23265888 82.0362346 189.71486968 82.0398166 186.19708061 82.04364967 C185.50472903 82.04439133 184.81237744 82.04513298 184.09904551 82.04589711 C172.95375686 82.05889638 161.80895091 82.10991502 150.66385911 82.17515237 C139.45930754 82.23992639 128.25522523 82.26375412 117.05044699 82.24851515 C110.97905239 82.24145727 104.90907445 82.25240384 98.83793068 82.31126022 C93.27988581 82.36474962 87.72421134 82.36752742 82.16605788 82.32988784 C80.15509621 82.32523555 78.14398732 82.33923256 76.13331593 82.37371501 C61.11325628 82.61633576 61.11325628 82.61633576 55.87217987 78.60766947 C53.56837135 75.83919945 51.76432671 73.13215486 50 70 C49.01200146 68.61352546 48.01162411 67.23559625 46.98828125 65.875 C46.09264913 64.58589962 45.20076804 63.29418569 44.3125 62 C39.98557743 55.78527223 35.56972134 49.6477474 31.0625 43.5625 C25.89681086 36.5848373 20.78251195 29.57328484 15.71240234 22.52587891 C13.07401532 18.86149779 10.42337123 15.20744035 7.7421875 11.57421875 C7.22744873 10.87651367 6.71270996 10.17880859 6.18237305 9.45996094 C5.20677521 8.14004383 4.22916323 6.8216124 3.24926758 5.50488281 C0 1.10906617 0 1.10906617 0 0 Z " fill="#F8F8F9" transform="translate(24,0)"/>
<path d="M0 0 C36.3 0 72.6 0 110 0 C108.64756991 6.76215045 107.19782969 13.3536221 105.40209961 19.99194336 C105.02368172 21.40604996 105.02368172 21.40604996 104.63761902 22.84872437 C103.81224967 25.92992647 102.9823747 29.00989446 102.15234375 32.08984375 C101.57441984 34.24306095 100.99675153 36.39634677 100.41932678 38.54969788 C99.21336193 43.0444755 98.00534428 47.53869422 96.7956543 52.0324707 C95.24375585 57.79756967 93.69543842 63.56362236 92.14844418 69.33003902 C90.67179887 74.83363549 89.19339081 80.33675794 87.71484375 85.83984375 C87.29154439 87.41622777 87.29154439 87.41622777 86.85969353 89.02445793 C86.06360603 91.98784141 85.26626564 94.95088469 84.46850586 97.91381836 C84.23212402 98.79434372 83.99574219 99.67486908 83.75219727 100.58207703 C83.53494492 101.38792236 83.31769257 102.1937677 83.09385681 103.02403259 C82.81153655 104.07336928 82.81153655 104.07336928 82.52351284 105.14390469 C82.06298395 106.77669274 81.53647774 108.39056677 81 110 C77.11287407 108.70429136 75.89236681 106.37314961 73.6875 103.125 C72.7932365 101.84005188 71.89731129 100.55625913 71 99.2734375 C70.51789063 98.58217773 70.03578125 97.89091797 69.5390625 97.17871094 C66.81627728 93.3243113 63.99756767 89.54097328 61.1875 85.75 C56.58628505 79.52735704 52.0207086 73.28136931 47.5 67 C40.74024399 57.61213466 33.87582562 48.30303378 27 39 C22.32407179 32.67344076 17.65644655 26.34091255 13 20 C12.0706665 18.73736328 12.0706665 18.73736328 11.12255859 17.44921875 C9.28488687 14.94903673 7.45403182 12.44400702 5.625 9.9375 C5.059021 9.16913818 4.49304199 8.40077637 3.90991211 7.60913086 C3.39565674 6.90151611 2.88140137 6.19390137 2.3515625 5.46484375 C1.89604004 4.842146 1.44051758 4.21944824 0.97119141 3.57788086 C0 2 0 2 0 0 Z " fill="#FF0000" transform="translate(87,239)"/>
</svg>
