<?xml version="1.0" encoding="UTF-8"?>
<svg version="1.1" xmlns="http://www.w3.org/2000/svg" width="756" height="900">
<path d="M0 0 C4.41580057 0.06629993 8.82842278 -0.03597914 13.24356604 -0.11541772 C21.86909709 -0.24372654 30.48727447 -0.2168461 39.11308217 -0.13245113 C46.12823484 -0.06668372 53.1413398 -0.05818772 60.15671301 -0.08964181 C61.15888446 -0.09408557 62.1610559 -0.09852933 63.19359618 -0.10310774 C65.23012673 -0.11238072 67.2666567 -0.12178292 69.30318606 -0.13131289 C88.35634284 -0.21381586 107.40543971 -0.11924617 126.45793021 0.03689773 C142.77145109 0.16646023 159.07898732 0.14394957 175.39240026 0.01025367 C194.38149579 -0.14530006 213.3670423 -0.20585298 232.35668612 -0.11699069 C234.38530375 -0.10775374 236.41392193 -0.09863697 238.44254065 -0.08964181 C239.44039849 -0.08516782 240.43825633 -0.08069383 241.46635228 -0.07608426 C248.4651688 -0.05114728 255.46171515 -0.09307582 262.46017981 -0.16154885 C271.00286619 -0.24330137 279.53784219 -0.22009413 288.07965541 -0.06640728 C292.43266801 0.00935806 296.77289125 0.04064921 301.12577963 -0.05623269 C325.96346736 -0.56541223 325.96346736 -0.56541223 333.00266838 5.18137437 C340.7366724 12.92049397 345.81051738 22.92715693 350.29962683 32.79101539 C354.51956911 32.14413968 357.90274878 31.25810531 361.76447058 29.41992164 C363.31980505 28.68841895 363.31980505 28.68841895 364.90656042 27.94213843 C366.00564734 27.41789283 367.10473425 26.89364722 368.23712683 26.35351539 C370.56053592 25.26584668 372.8847731 24.17994532 375.20978308 23.09570289 C376.38556921 22.54624 377.56135534 21.99677711 378.77277136 21.43066382 C384.21916126 18.89861658 389.68560502 16.41665508 395.17462683 13.97851539 C396.13618689 13.5403147 397.09774694 13.10211402 398.08844519 12.65063453 C398.980557 12.2573899 399.87266882 11.86414527 400.79181433 11.45898414 C401.56895788 11.11117896 402.34610144 10.76337379 403.1467948 10.40502906 C405.69302557 9.67881332 406.87068876 9.76138415 409.29962683 10.79101539 C410.7249198 12.16357398 410.7249198 12.16357398 412.04181433 13.93945289 C412.54309851 14.60501197 413.04438269 15.27057105 413.5608573 15.95629859 C414.09340124 16.68550513 414.62594519 17.41471168 415.17462683 18.16601539 C415.74197546 18.9255149 416.30932409 19.68501441 416.89386511 20.46752906 C418.70686938 22.90069314 420.50432361 25.34476935 422.29962683 27.79101539 C423.44507113 29.34208401 424.59089892 30.8928695 425.73712683 32.44335914 C428.05590587 35.58425976 430.36848829 38.7296248 432.67853308 41.87695289 C436.45825246 47.01786736 440.28241319 52.12479457 444.11212683 57.22851539 C444.73845007 58.06833961 445.36477331 58.90816382 446.01007605 59.77343726 C448.71101025 63.38805974 451.42309636 66.9776244 454.28009558 70.47070289 C454.71281775 71.01025611 455.14553991 71.54980933 455.59137487 72.10571265 C456.69812458 73.4776887 457.82599656 74.83255596 458.95587683 76.18554664 C460.74074527 79.64632354 460.19999165 82.14656265 459.29962683 85.79101539 C458.14245729 89.12282845 456.76367779 92.3446415 455.36212683 95.58007789 C454.96316198 96.51919013 454.56419714 97.45830237 454.15314245 98.42587256 C452.87642033 101.42597719 451.58824559 104.42100428 450.29962683 107.41601539 C449.4642312 109.37402455 448.62958931 111.33235547 447.79572058 113.29101539 C446.963691 115.24153693 446.13165976 117.19205777 445.29962683 119.14257789 C444.89010778 120.10504432 444.48058874 121.06751075 444.05866003 122.05914283 C441.95621187 126.98387892 439.8139027 131.88462653 437.59650183 136.75878882 C437.16853308 137.71417548 436.74056433 138.66956214 436.29962683 139.65389991 C435.48595671 141.46711689 434.6584898 143.27422602 433.81525183 145.07388282 C431.73551281 149.54634639 431.73551281 149.54634639 431.7092948 154.3361814 C432.23410437 155.14627662 432.75891394 155.95637183 433.29962683 156.79101539 C433.68056494 157.39570655 434.06150305 158.00039771 434.45398474 158.62341285 C435.92619047 160.91902644 437.45473276 163.16938961 438.99493933 165.41992164 C439.85779043 166.69330642 439.85779043 166.69330642 440.73807287 167.99241614 C441.97985863 169.8240465 443.22376165 171.65424284 444.4695487 173.48315406 C447.79978087 178.37245721 451.11475761 183.27209789 454.43243933 188.16992164 C455.10398046 189.16029426 455.7755216 190.15066688 456.46741247 191.17105079 C462.45968476 200.01254251 468.38872652 208.89500777 474.29962683 217.79101539 C485.09434211 234.02591901 495.98881483 250.19279099 506.90765905 266.34442115 C508.04369694 268.02735514 509.17776988 269.7116174 510.30975866 271.39727759 C513.12408661 275.5869692 515.9647428 279.75354641 518.8601737 283.88769507 C519.42564917 284.70611884 519.99112463 285.52454261 520.57373571 286.3677671 C521.64411826 287.91652505 522.72593893 289.45746221 523.8209281 290.98892188 C527.31082788 296.07902095 527.31082788 296.07902095 527.25641394 299.53784156 C526.30947828 301.76781584 525.32814938 303.81019224 524.06915808 305.88085914 C523.60340368 306.65332984 523.13764929 307.42580054 522.65778112 308.22167945 C521.89268225 309.46256324 521.89268225 309.46256324 521.11212683 310.72851539 C520.57821325 311.60604468 520.04429968 312.48357398 519.49420691 313.38769507 C514.41628187 321.69288438 509.18008341 329.89715365 503.93243933 338.09570289 C500.20326281 343.92820749 496.52688068 349.79287181 492.86212683 355.66601539 C492.23975134 356.6634275 491.61737585 357.66083961 490.9761405 358.68847632 C489.71410777 360.71176876 488.45230804 362.73520654 487.19074011 364.75878882 C484.06419258 369.7719208 480.93162521 374.78128782 477.79962683 379.79101539 C476.54959756 381.7909971 475.29959757 383.7909971 474.04962683 385.79101539 C412.17462683 484.79101539 350.29962683 583.79101539 254.67487097 736.79052711 C253.42394014 738.79208158 252.17312648 740.79370928 250.92242956 742.79540992 C247.81262414 747.77223134 244.70084351 752.74779507 241.58478308 757.72070289 C235.04977618 768.15492771 228.55367055 778.61129356 222.11212683 789.10351539 C217.06064086 797.33046285 211.9701425 805.52919047 206.80011511 813.68212867 C202.83724435 819.93193661 198.90701235 826.20166337 194.98712683 832.47851539 C194.04147863 833.99276099 194.04147863 833.99276099 193.07672644 835.53759742 C191.79202533 837.59514311 190.50743938 839.6527607 189.22296667 841.71044898 C185.46537713 847.72888828 181.70380141 853.74483682 177.94293737 859.76123023 C174.71672827 864.9226572 171.49163593 870.08477681 168.26837683 875.24804664 C167.27160925 876.84422828 167.27160925 876.84422828 166.25470495 878.47265601 C164.99781407 880.48543931 163.74127437 882.49844198 162.4851737 884.51171851 C158.45767467 890.96021696 154.39092726 897.382814 150.29962683 903.79101539 C146.83304078 902.6354867 146.61837127 902.12838043 144.87384558 899.09179664 C144.4145365 898.30643531 143.95522741 897.52107398 143.48199987 896.71191382 C142.98869177 895.85114234 142.49538366 894.99037086 141.98712683 894.10351539 C140.90638946 892.25954354 139.82295812 890.41714851 138.73712683 888.57617164 C138.17251745 887.61855933 137.60790808 886.66094703 137.02618933 885.67431617 C134.270189 881.07188915 131.38366254 876.55586678 128.48712683 872.04101539 C123.56900379 864.35908407 118.69083162 856.65450963 113.86212683 848.91601539 C113.23975134 847.91860328 112.61737585 846.92119117 111.9761405 845.89355445 C110.71410777 843.87026201 109.45230804 841.84682423 108.19074011 839.82324195 C105.06419258 834.81010998 101.93162521 829.80074296 98.79962683 824.79101539 C97.54959756 822.79103368 96.29959757 820.79103367 95.04962683 818.79101539 C94.43087683 817.80101539 93.81212683 816.81101539 93.17462683 815.79101539 C71.29962683 780.79101539 49.42462683 745.79101539 27.54962683 710.79101539 C26.62162268 709.30625709 26.62162268 709.30625709 25.67487097 707.79150367 C24.42394014 705.7899492 23.17312648 703.7883215 21.92242956 701.78662086 C18.81262414 696.80979943 15.70084351 691.8342357 12.58478308 686.86132789 C6.04977618 676.42710306 -0.44632945 665.97073721 -6.88787317 655.47851539 C-11.93711966 647.25521517 -17.02458703 639.05960629 -22.19329309 630.91088843 C-26.22408462 624.55524125 -30.21600453 618.17585433 -34.20037317 611.79101539 C-38.68134303 604.61218601 -43.17460168 597.44168838 -47.70037317 590.29101539 C-54.10035653 580.17686195 -60.43913276 570.02471591 -66.77703333 559.87158179 C-69.91626541 554.84355052 -73.05844468 549.81736198 -76.20037317 544.79101539 C-77.45038781 542.79102453 -78.7003878 540.79102453 -79.95037317 538.79101539 C-80.87849817 537.30601539 -80.87849817 537.30601539 -81.82537317 535.79101539 C-83.70037317 532.79101539 -85.57537317 529.79101539 -87.45037317 526.79101539 C-88.06928431 525.80077369 -88.68819544 524.81053199 -89.32586145 523.79028296 C-90.57429239 521.79276095 -91.8226649 519.79520243 -93.07097864 517.79760718 C-96.21950435 512.75939105 -99.3690821 507.7218381 -102.52068567 502.68554664 C-108.96937675 492.37821254 -115.39865566 482.05953994 -121.79119349 471.71728492 C-127.75783965 462.07005697 -133.77585426 452.45504369 -139.79314661 442.83935523 C-142.9307888 437.82442942 -146.0654445 432.80763773 -149.20037317 427.79101539 C-150.45035854 425.79100624 -151.70035855 423.79100624 -152.95037317 421.79101539 C-190.45037318 361.79101538 -190.45037318 361.79101538 -192.32610559 358.78979468 C-193.57360565 356.7938271 -194.82116405 354.79789599 -196.06878138 352.80200171 C-199.232515 347.74060622 -202.39516878 342.67854145 -205.55584192 337.61523414 C-206.19134974 336.59792212 -206.82685755 335.58061011 -207.48162317 334.53247046 C-208.73996056 332.51651985 -209.99650869 330.49945115 -211.25115442 328.48120093 C-214.23062397 323.6970128 -217.24232546 318.94178016 -220.34490442 314.23632789 C-220.91185022 313.36790259 -221.47879602 312.4994773 -222.062922 311.60473609 C-223.1245512 309.98308838 -224.19795419 308.36906403 -225.28508997 306.76440406 C-225.75213343 306.04744361 -226.21917688 305.33048316 -226.70037317 304.59179664 C-227.11287317 303.97473853 -227.52537317 303.35768043 -227.95037317 302.72192359 C-229.04403571 299.90624098 -228.68629428 298.66796967 -227.70037317 295.79101539 C-226.12328525 292.9615068 -224.32007369 290.30288434 -222.49724817 287.62695289 C-221.95651163 286.81945594 -221.41577509 286.01195899 -220.85865259 285.17999244 C-219.06351265 282.50345831 -217.25695635 279.83483614 -215.45037317 277.16601539 C-214.18004624 275.27635866 -212.91044573 273.38621342 -211.64153528 271.49560523 C-207.67191964 265.58678115 -203.68714241 259.68827381 -199.70037317 253.79101539 C-198.46672328 251.96490343 -197.23315975 250.13873312 -195.99968958 248.31249976 C-195.40443476 247.43124427 -194.80917994 246.54998878 -194.19588709 245.64202857 C-191.81265898 242.1136066 -189.42953121 238.58511688 -187.04656458 235.05651832 C-185.85571701 233.29363687 -184.66447232 231.53102362 -183.47283411 229.76867652 C-172.62802491 213.72776481 -161.9434631 197.58431863 -151.32757044 181.39111304 C-150.75382181 180.51764228 -150.18007318 179.64417151 -149.58893824 178.74423194 C-148.48165141 177.05554861 -147.3781253 175.36439219 -146.27872705 173.67056251 C-143.88685208 170.00505559 -141.46635308 166.42114781 -138.7726388 162.96972632 C-138.33216211 162.39173285 -137.89168543 161.81373939 -137.43786097 161.21823096 C-136.28690802 159.72797926 -135.10020458 158.26551878 -133.91033411 156.80615211 C-132.31922262 152.84121527 -133.13350869 151.03160823 -134.66839075 147.16540504 C-135.00894495 146.38185645 -135.34949915 145.59830787 -135.70037317 144.79101539 C-136.00354456 144.04484962 -136.30671595 143.29868384 -136.61907434 142.52990699 C-137.58777285 140.17214815 -138.59585599 137.83466579 -139.61443567 135.49804664 C-140.3808413 133.72604864 -141.14711248 131.95399249 -141.9132638 130.18188453 C-142.30876429 129.26988288 -142.70426477 128.35788123 -143.11175013 127.41824317 C-144.33665464 124.57735054 -145.54332858 121.7293281 -146.74529505 118.87866187 C-151.68554987 107.1639331 -151.68554987 107.1639331 -157.38006067 95.80664039 C-162.71828427 85.75133701 -162.71828427 85.75133701 -162.70037317 80.79101539 C-160.48506779 74.11134993 -155.55296713 69.13095934 -150.81218958 64.10888648 C-147.48004495 60.45161698 -144.68762582 56.44361375 -141.82537317 52.41601539 C-136.7717711 45.51148487 -131.59412945 38.70580579 -126.38787317 31.91601539 C-120.58956713 24.35243496 -115.02169032 16.69680934 -109.70037317 8.79101539 C-102.37732646 11.73971724 -95.17140663 14.90730362 -87.98943567 18.18164039 C-87.12671045 18.5742002 -86.26398523 18.96676002 -85.37511683 19.37121558 C-81.77600202 21.00981678 -78.17755701 22.64975449 -74.58367395 24.29980445 C-71.93016036 25.5168903 -69.27268865 26.72494814 -66.61443567 27.93164039 C-65.80809687 28.30452186 -65.00175806 28.67740333 -64.17098475 29.06158423 C-63.40934015 29.40574378 -62.64769556 29.74990333 -61.86297083 30.10449195 C-61.20189325 30.40695838 -60.54081568 30.70942481 -59.85970545 31.02105689 C-57.17842747 31.97712687 -54.50741656 32.34828536 -51.70037317 32.79101539 C-51.30950683 31.93217014 -50.91864048 31.07332489 -50.5159297 30.18845403 C-38.61150114 4.94647032 -27.23146978 -0.60608869 0 0 Z " fill="#FEFEFE" transform="translate(228.70037317276,-3.791015386581421)"/>
<path d="M0 0 C4.41580057 0.06629993 8.82842278 -0.03597914 13.24356604 -0.11541772 C21.86909709 -0.24372654 30.48727447 -0.2168461 39.11308217 -0.13245113 C46.12823484 -0.06668372 53.1413398 -0.05818772 60.15671301 -0.08964181 C61.15888446 -0.09408557 62.1610559 -0.09852933 63.19359618 -0.10310774 C65.23012673 -0.11238072 67.2666567 -0.12178292 69.30318606 -0.13131289 C88.35634284 -0.21381586 107.40543971 -0.11924617 126.45793021 0.03689773 C142.77145109 0.16646023 159.07898732 0.14394957 175.39240026 0.01025367 C194.38149579 -0.14530006 213.3670423 -0.20585298 232.35668612 -0.11699069 C234.38530375 -0.10775374 236.41392193 -0.09863697 238.44254065 -0.08964181 C239.44039849 -0.08516782 240.43825633 -0.08069383 241.46635228 -0.07608426 C248.4651688 -0.05114728 255.46171515 -0.09307582 262.46017981 -0.16154885 C271.00286619 -0.24330137 279.53784219 -0.22009413 288.07965541 -0.06640728 C292.43266801 0.00935806 296.77289125 0.04064921 301.12577963 -0.05623269 C325.96346736 -0.56541223 325.96346736 -0.56541223 333.00266838 5.18137437 C340.7366724 12.92049397 345.81051738 22.92715693 350.29962683 32.79101539 C354.51956911 32.14413968 357.90274878 31.25810531 361.76447058 29.41992164 C363.31980505 28.68841895 363.31980505 28.68841895 364.90656042 27.94213843 C366.00564734 27.41789283 367.10473425 26.89364722 368.23712683 26.35351539 C370.56053592 25.26584668 372.8847731 24.17994532 375.20978308 23.09570289 C376.38556921 22.54624 377.56135534 21.99677711 378.77277136 21.43066382 C384.21916126 18.89861658 389.68560502 16.41665508 395.17462683 13.97851539 C396.13618689 13.5403147 397.09774694 13.10211402 398.08844519 12.65063453 C398.980557 12.2573899 399.87266882 11.86414527 400.79181433 11.45898414 C401.56895788 11.11117896 402.34610144 10.76337379 403.1467948 10.40502906 C405.69302557 9.67881332 406.87068876 9.76138415 409.29962683 10.79101539 C410.7249198 12.16357398 410.7249198 12.16357398 412.04181433 13.93945289 C412.54309851 14.60501197 413.04438269 15.27057105 413.5608573 15.95629859 C414.09340124 16.68550513 414.62594519 17.41471168 415.17462683 18.16601539 C415.74197546 18.9255149 416.30932409 19.68501441 416.89386511 20.46752906 C418.70686938 22.90069314 420.50432361 25.34476935 422.29962683 27.79101539 C423.44507113 29.34208401 424.59089892 30.8928695 425.73712683 32.44335914 C428.05590587 35.58425976 430.36848829 38.7296248 432.67853308 41.87695289 C436.45825246 47.01786736 440.28241319 52.12479457 444.11212683 57.22851539 C444.73845007 58.06833961 445.36477331 58.90816382 446.01007605 59.77343726 C448.71101025 63.38805974 451.42309636 66.9776244 454.28009558 70.47070289 C454.71281775 71.01025611 455.14553991 71.54980933 455.59137487 72.10571265 C456.69812458 73.4776887 457.82599656 74.83255596 458.95587683 76.18554664 C460.74074527 79.64632354 460.19999165 82.14656265 459.29962683 85.79101539 C458.14245729 89.12282845 456.76367779 92.3446415 455.36212683 95.58007789 C454.96316198 96.51919013 454.56419714 97.45830237 454.15314245 98.42587256 C452.87642033 101.42597719 451.58824559 104.42100428 450.29962683 107.41601539 C449.4642312 109.37402455 448.62958931 111.33235547 447.79572058 113.29101539 C446.963691 115.24153693 446.13165976 117.19205777 445.29962683 119.14257789 C444.89010778 120.10504432 444.48058874 121.06751075 444.05866003 122.05914283 C441.95621187 126.98387892 439.8139027 131.88462653 437.59650183 136.75878882 C437.16853308 137.71417548 436.74056433 138.66956214 436.29962683 139.65389991 C435.48595671 141.46711689 434.6584898 143.27422602 433.81525183 145.07388282 C431.73551281 149.54634639 431.73551281 149.54634639 431.7092948 154.3361814 C432.23410437 155.14627662 432.75891394 155.95637183 433.29962683 156.79101539 C433.68056494 157.39570655 434.06150305 158.00039771 434.45398474 158.62341285 C435.92619047 160.91902644 437.45473276 163.16938961 438.99493933 165.41992164 C439.85779043 166.69330642 439.85779043 166.69330642 440.73807287 167.99241614 C441.97985863 169.8240465 443.22376165 171.65424284 444.4695487 173.48315406 C447.79978087 178.37245721 451.11475761 183.27209789 454.43243933 188.16992164 C455.10398046 189.16029426 455.7755216 190.15066688 456.46741247 191.17105079 C462.45968476 200.01254251 468.38872652 208.89500777 474.29962683 217.79101539 C485.09434211 234.02591901 495.98881483 250.19279099 506.90765905 266.34442115 C508.04369694 268.02735514 509.17776988 269.7116174 510.30975866 271.39727759 C513.12408661 275.5869692 515.9647428 279.75354641 518.8601737 283.88769507 C519.42564917 284.70611884 519.99112463 285.52454261 520.57373571 286.3677671 C521.64411826 287.91652505 522.72593893 289.45746221 523.8209281 290.98892188 C527.31082788 296.07902095 527.31082788 296.07902095 527.25641394 299.53784156 C526.30947828 301.76781584 525.32814938 303.81019224 524.06915808 305.88085914 C523.60340368 306.65332984 523.13764929 307.42580054 522.65778112 308.22167945 C521.89268225 309.46256324 521.89268225 309.46256324 521.11212683 310.72851539 C520.57821325 311.60604468 520.04429968 312.48357398 519.49420691 313.38769507 C514.41628187 321.69288438 509.18008341 329.89715365 503.93243933 338.09570289 C500.20326281 343.92820749 496.52688068 349.79287181 492.86212683 355.66601539 C492.23975134 356.6634275 491.61737585 357.66083961 490.9761405 358.68847632 C489.71410777 360.71176876 488.45230804 362.73520654 487.19074011 364.75878882 C484.06419258 369.7719208 480.93162521 374.78128782 477.79962683 379.79101539 C476.54959756 381.7909971 475.29959757 383.7909971 474.04962683 385.79101539 C412.17462683 484.79101539 350.29962683 583.79101539 254.67487097 736.79052711 C253.42394014 738.79208158 252.17312648 740.79370928 250.92242956 742.79540992 C247.81262414 747.77223134 244.70084351 752.74779507 241.58478308 757.72070289 C235.04977618 768.15492771 228.55367055 778.61129356 222.11212683 789.10351539 C217.06064086 797.33046285 211.9701425 805.52919047 206.80011511 813.68212867 C202.83724435 819.93193661 198.90701235 826.20166337 194.98712683 832.47851539 C194.04147863 833.99276099 194.04147863 833.99276099 193.07672644 835.53759742 C191.79202533 837.59514311 190.50743938 839.6527607 189.22296667 841.71044898 C185.46537713 847.72888828 181.70380141 853.74483682 177.94293737 859.76123023 C174.71672827 864.9226572 171.49163593 870.08477681 168.26837683 875.24804664 C167.27160925 876.84422828 167.27160925 876.84422828 166.25470495 878.47265601 C164.99781407 880.48543931 163.74127437 882.49844198 162.4851737 884.51171851 C158.45767467 890.96021696 154.39092726 897.382814 150.29962683 903.79101539 C146.83304078 902.6354867 146.61837127 902.12838043 144.87384558 899.09179664 C144.4145365 898.30643531 143.95522741 897.52107398 143.48199987 896.71191382 C142.98869177 895.85114234 142.49538366 894.99037086 141.98712683 894.10351539 C140.90638946 892.25954354 139.82295812 890.41714851 138.73712683 888.57617164 C138.17251745 887.61855933 137.60790808 886.66094703 137.02618933 885.67431617 C134.270189 881.07188915 131.38366254 876.55586678 128.48712683 872.04101539 C123.56900379 864.35908407 118.69083162 856.65450963 113.86212683 848.91601539 C113.23975134 847.91860328 112.61737585 846.92119117 111.9761405 845.89355445 C110.71410777 843.87026201 109.45230804 841.84682423 108.19074011 839.82324195 C105.06419258 834.81010998 101.93162521 829.80074296 98.79962683 824.79101539 C97.54959756 822.79103368 96.29959757 820.79103367 95.04962683 818.79101539 C94.43087683 817.80101539 93.81212683 816.81101539 93.17462683 815.79101539 C71.29962683 780.79101539 49.42462683 745.79101539 27.54962683 710.79101539 C26.62162268 709.30625709 26.62162268 709.30625709 25.67487097 707.79150367 C24.42394014 705.7899492 23.17312648 703.7883215 21.92242956 701.78662086 C18.81262414 696.80979943 15.70084351 691.8342357 12.58478308 686.86132789 C6.04977618 676.42710306 -0.44632945 665.97073721 -6.88787317 655.47851539 C-11.93711966 647.25521517 -17.02458703 639.05960629 -22.19329309 630.91088843 C-26.22408462 624.55524125 -30.21600453 618.17585433 -34.20037317 611.79101539 C-38.68134303 604.61218601 -43.17460168 597.44168838 -47.70037317 590.29101539 C-54.10035653 580.17686195 -60.43913276 570.02471591 -66.77703333 559.87158179 C-69.91626541 554.84355052 -73.05844468 549.81736198 -76.20037317 544.79101539 C-77.45038781 542.79102453 -78.7003878 540.79102453 -79.95037317 538.79101539 C-80.87849817 537.30601539 -80.87849817 537.30601539 -81.82537317 535.79101539 C-83.70037317 532.79101539 -85.57537317 529.79101539 -87.45037317 526.79101539 C-88.06928431 525.80077369 -88.68819544 524.81053199 -89.32586145 523.79028296 C-90.57429239 521.79276095 -91.8226649 519.79520243 -93.07097864 517.79760718 C-96.21950435 512.75939105 -99.3690821 507.7218381 -102.52068567 502.68554664 C-108.96937675 492.37821254 -115.39865566 482.05953994 -121.79119349 471.71728492 C-127.75783965 462.07005697 -133.77585426 452.45504369 -139.79314661 442.83935523 C-142.9307888 437.82442942 -146.0654445 432.80763773 -149.20037317 427.79101539 C-150.45035854 425.79100624 -151.70035855 423.79100624 -152.95037317 421.79101539 C-190.45037318 361.79101538 -190.45037318 361.79101538 -192.32610559 358.78979468 C-193.57360565 356.7938271 -194.82116405 354.79789599 -196.06878138 352.80200171 C-199.232515 347.74060622 -202.39516878 342.67854145 -205.55584192 337.61523414 C-206.19134974 336.59792212 -206.82685755 335.58061011 -207.48162317 334.53247046 C-208.73996056 332.51651985 -209.99650869 330.49945115 -211.25115442 328.48120093 C-214.23062397 323.6970128 -217.24232546 318.94178016 -220.34490442 314.23632789 C-220.91185022 313.36790259 -221.47879602 312.4994773 -222.062922 311.60473609 C-223.1245512 309.98308838 -224.19795419 308.36906403 -225.28508997 306.76440406 C-225.75213343 306.04744361 -226.21917688 305.33048316 -226.70037317 304.59179664 C-227.11287317 303.97473853 -227.52537317 303.35768043 -227.95037317 302.72192359 C-229.04403571 299.90624098 -228.68629428 298.66796967 -227.70037317 295.79101539 C-226.12328525 292.9615068 -224.32007369 290.30288434 -222.49724817 287.62695289 C-221.95651163 286.81945594 -221.41577509 286.01195899 -220.85865259 285.17999244 C-219.06351265 282.50345831 -217.25695635 279.83483614 -215.45037317 277.16601539 C-214.18004624 275.27635866 -212.91044573 273.38621342 -211.64153528 271.49560523 C-207.67191964 265.58678115 -203.68714241 259.68827381 -199.70037317 253.79101539 C-198.46672328 251.96490343 -197.23315975 250.13873312 -195.99968958 248.31249976 C-195.40443476 247.43124427 -194.80917994 246.54998878 -194.19588709 245.64202857 C-191.81265898 242.1136066 -189.42953121 238.58511688 -187.04656458 235.05651832 C-185.85571701 233.29363687 -184.66447232 231.53102362 -183.47283411 229.76867652 C-172.62802491 213.72776481 -161.9434631 197.58431863 -151.32757044 181.39111304 C-150.75382181 180.51764228 -150.18007318 179.64417151 -149.58893824 178.74423194 C-148.48165141 177.05554861 -147.3781253 175.36439219 -146.27872705 173.67056251 C-143.88685208 170.00505559 -141.46635308 166.42114781 -138.7726388 162.96972632 C-138.33216211 162.39173285 -137.89168543 161.81373939 -137.43786097 161.21823096 C-136.28690802 159.72797926 -135.10020458 158.26551878 -133.91033411 156.80615211 C-132.31922262 152.84121527 -133.13350869 151.03160823 -134.66839075 147.16540504 C-135.00894495 146.38185645 -135.34949915 145.59830787 -135.70037317 144.79101539 C-136.00354456 144.04484962 -136.30671595 143.29868384 -136.61907434 142.52990699 C-137.58777285 140.17214815 -138.59585599 137.83466579 -139.61443567 135.49804664 C-140.3808413 133.72604864 -141.14711248 131.95399249 -141.9132638 130.18188453 C-142.30876429 129.26988288 -142.70426477 128.35788123 -143.11175013 127.41824317 C-144.33665464 124.57735054 -145.54332858 121.7293281 -146.74529505 118.87866187 C-151.68554987 107.1639331 -151.68554987 107.1639331 -157.38006067 95.80664039 C-162.71828427 85.75133701 -162.71828427 85.75133701 -162.70037317 80.79101539 C-160.48506779 74.11134993 -155.55296713 69.13095934 -150.81218958 64.10888648 C-147.48004495 60.45161698 -144.68762582 56.44361375 -141.82537317 52.41601539 C-136.7717711 45.51148487 -131.59412945 38.70580579 -126.38787317 31.91601539 C-120.58956713 24.35243496 -115.02169032 16.69680934 -109.70037317 8.79101539 C-102.37732646 11.73971724 -95.17140663 14.90730362 -87.98943567 18.18164039 C-87.12671045 18.5742002 -86.26398523 18.96676002 -85.37511683 19.37121558 C-81.77600202 21.00981678 -78.17755701 22.64975449 -74.58367395 24.29980445 C-71.93016036 25.5168903 -69.27268865 26.72494814 -66.61443567 27.93164039 C-65.80809687 28.30452186 -65.00175806 28.67740333 -64.17098475 29.06158423 C-63.40934015 29.40574378 -62.64769556 29.74990333 -61.86297083 30.10449195 C-61.20189325 30.40695838 -60.54081568 30.70942481 -59.85970545 31.02105689 C-57.17842747 31.97712687 -54.50741656 32.34828536 -51.70037317 32.79101539 C-51.30950683 31.93217014 -50.91864048 31.07332489 -50.5159297 30.18845403 C-38.61150114 4.94647032 -27.23146978 -0.60608869 0 0 Z M-3.24409193 74.43342185 C-4.10190955 76.20085773 -4.90240197 77.99576537 -5.70037317 79.79101539 C-6.88886315 81.63202645 -8.10578425 83.45556917 -9.37078333 85.24487281 C-10.49637225 86.96030486 -11.61922877 88.6775327 -12.73943567 90.39648414 C-13.65527933 91.79257659 -13.65527933 91.79257659 -14.58962488 93.21687293 C-16.50424204 96.13566175 -18.41527189 99.05676967 -20.32537317 101.97851539 C-34.5861189 123.78981023 -34.5861189 123.78981023 -40.64177942 131.93676734 C-45.15617126 138.19598875 -49.35093944 144.68141332 -53.61333704 151.11358619 C-56.69791813 155.76761793 -59.79082567 160.41610755 -62.88396692 165.06445289 C-63.52419794 166.02676826 -64.16442896 166.98908362 -64.82406092 167.98056006 C-71.8213782 178.48926791 -78.88282943 188.95446392 -85.95037317 199.41601539 C-93.90764882 211.19668108 -101.85173791 222.98435906 -109.71746302 234.82641578 C-116.99930217 245.77263277 -124.37793537 256.65376007 -131.74822474 267.54052711 C-138.10436449 276.93181761 -144.4244982 286.34588444 -150.70037317 295.79101539 C-145.00117525 306.07713422 -138.81709755 315.98492485 -132.47381067 325.88476539 C-128.69462487 331.78570246 -124.97164333 337.72063273 -121.26287317 343.66601539 C-120.64299524 344.65931861 -120.02311731 345.65262183 -119.3844552 346.67602515 C-118.12424414 348.69611251 -116.86431666 350.7163768 -115.60467005 352.73681617 C-112.40995731 357.8606439 -109.21200612 362.98244653 -106.01287317 368.10351539 C-105.38646936 369.10624488 -104.76006556 370.10897437 -104.11467981 371.14208961 C-100.3262696 377.20215625 -96.52178679 383.25171359 -92.70037317 389.29101539 C-85.65323304 400.4282045 -78.67897382 411.61080163 -71.70037317 422.79101539 C-68.93010165 427.22886655 -66.15916222 431.66629952 -63.38787317 436.10351539 C-62.74745081 437.12985084 -62.10702845 438.15618629 -61.44719934 439.21362281 C-60.8539889 440.16342017 -60.26077845 441.11321754 -59.64959192 442.09179664 C-59.12711878 442.92880103 -58.60464563 443.76580543 -58.06633997 444.62817359 C-56.96933219 446.36515159 -55.83994376 448.0816595 -54.70037317 449.79101539 C-51.60996738 450.25725371 -51.60996738 450.25725371 -47.89211512 450.1897428 C-47.18395171 450.19638963 -46.4757883 450.20303646 -45.74616539 450.2098847 C-43.3614539 450.22861098 -40.97723989 450.22590307 -38.59246302 450.22338843 C-36.88774892 450.23239975 -35.18304134 450.24272541 -33.47834253 450.25427222 C-28.84016222 450.2819425 -24.2021045 450.29114028 -19.56385231 450.29712629 C-14.72044431 450.30648398 -9.87712883 450.33268513 -5.03377771 450.35713172 C4.14241454 450.40087237 13.31858892 450.42937279 22.49485385 450.4524551 C32.93973638 450.47946632 43.38452617 450.52338026 53.8293426 450.56874382 C75.31938753 450.66169841 96.80946021 450.73332953 118.29962683 450.79101539 C117.6239768 451.87128501 116.94832678 452.95155463 116.25220251 454.0645597 C115.35101033 455.5058439 114.44982671 456.94713345 113.54865026 458.3884275 C113.10508184 459.09758056 112.66151342 459.80673362 112.20450354 460.53737617 C108.29330193 466.79338919 104.41332553 473.0680344 100.54962683 479.35351539 C99.86771276 480.46210914 99.1857987 481.57070289 98.48322058 482.71289039 C93.49379725 490.82873534 88.53608779 498.96360841 83.58966589 507.10571265 C78.51462952 515.45341591 73.39303704 523.77207344 68.26715612 532.08862281 C63.28264043 540.18069794 58.33301585 548.29337617 53.40411901 556.41943336 C50.49902368 561.20237561 47.57254168 565.97029353 44.60822058 570.71679664 C44.01098181 571.67416724 43.41374304 572.63153785 42.79840612 573.61791968 C41.66411524 575.43281678 40.52645656 577.24561505 39.38483191 579.05590796 C38.87718298 579.86825904 38.36953405 580.68061011 37.84650183 581.51757789 C37.401453 582.2247898 36.95640417 582.93200171 36.49786901 583.66064429 C35.16212445 586.03548274 34.05641409 588.16576428 33.29962683 590.79101539 C33.9133382 592.88168631 33.9133382 592.88168631 35.30743933 594.76757789 C35.79317419 595.51031959 36.27890905 596.25306129 36.77936316 597.01831031 C37.32230017 597.80955298 37.86523718 598.60079566 38.42462683 599.41601539 C39.55658008 601.13317147 40.68807854 602.85062742 41.81915808 604.56835914 C42.40261999 605.44089332 42.98608191 606.3134275 43.58722448 607.21240211 C46.1635669 611.09197562 48.63716172 615.03381603 51.11212683 618.97851539 C52.11194684 620.56196238 53.11195158 622.14529275 54.11212683 623.72851539 C59.56052883 632.37222082 64.96579099 641.04299028 70.37628698 649.71044898 C73.51551906 654.73848025 76.65769834 659.76466879 79.79962683 664.79101539 C81.04964146 666.79100624 82.29964145 668.79100625 83.54962683 670.79101539 C84.16837683 671.78101539 84.78712683 672.77101539 85.42462683 673.79101539 C106.04962683 706.79101539 106.04962683 706.79101539 107.92535925 709.79223609 C109.1728593 711.78820367 110.42041771 713.78413478 111.66803503 715.78002906 C114.83176865 720.84142455 117.99442244 725.90348933 121.15509558 730.96679664 C124.86596888 736.91069101 128.58105797 742.85193261 132.29962683 748.79101539 C133.16176794 750.16870093 133.16176794 750.16870093 134.04132605 751.57421851 C135.66653925 754.16893119 137.29498188 756.76158441 138.92462683 759.35351539 C139.39730993 760.10866431 139.86999304 760.86381324 140.35699987 761.64184546 C143.19226511 766.14143231 146.16930487 770.4910605 149.29962683 774.79101539 C152.24691848 772.02032097 154.4329412 769.26022097 156.54962683 765.81835914 C157.15161901 764.84640601 157.7536112 763.87445289 158.37384558 762.87304664 C159.3271073 761.31650367 159.3271073 761.31650367 160.29962683 759.72851539 C161.65338455 757.53946035 163.00755571 755.35066094 164.36212683 753.16210914 C165.03115026 752.07784644 165.7001737 750.99358375 166.38947058 749.87646461 C168.99784179 745.66319833 171.64512715 741.47531161 174.29962683 737.29101539 C178.82630565 730.14092042 183.31855996 722.96977503 187.79962683 715.79101539 C192.75644923 707.85008575 197.73467434 699.92344709 202.74103308 692.01367164 C206.78385816 685.62061758 210.79426244 679.20759193 214.79962683 672.79101539 C221.73940483 661.67488549 228.72911989 650.59113056 235.73810339 639.51855445 C242.43781836 628.93218942 249.09847084 618.32224709 255.73248816 607.69457984 C260.04649464 600.786768 264.3854218 593.89530138 268.74103308 587.01367164 C272.78385816 580.62061758 276.79426244 574.20759193 280.79962683 567.79101539 C287.73940483 556.67488549 294.72911989 545.59113056 301.73810339 534.51855445 C308.43781836 523.93218942 315.09847084 513.32224709 321.73248816 502.69457984 C326.04649464 495.786768 330.3854218 488.89530138 334.74103308 482.01367164 C338.78385798 475.62061786 342.79430663 469.20761926 346.79962683 462.79101539 C351.75644923 454.85008575 356.73467434 446.92344709 361.74103308 439.01367164 C365.78385816 432.62061758 369.79426244 426.20759193 373.79962683 419.79101539 C380.73940483 408.67488549 387.72911989 397.59113056 394.73810339 386.51855445 C401.43781836 375.93218942 408.09847084 365.32224709 414.73248816 354.69457984 C418.5705936 348.54880553 422.4246899 342.41362604 426.29962683 336.29101539 C430.98395987 328.88539971 435.64849575 321.46753125 440.29962683 314.04101539 C440.93513464 313.02845679 441.57064245 312.0158982 442.22540808 310.97265601 C445.35706005 305.96670698 448.41965667 300.94616197 451.29962683 295.79101539 C450.84563513 295.11264625 450.39164343 294.43427711 449.92389441 293.73535132 C447.65178404 290.33825352 445.38140214 286.94000753 443.11212683 283.54101539 C442.67568853 282.88732978 442.23925024 282.23364417 441.78958654 281.56014991 C436.00843745 272.89717439 430.2545904 264.21676691 424.53400183 255.51367164 C423.66372602 254.18977927 423.66372602 254.18977927 422.77586889 252.83914161 C421.58036707 251.0204066 420.38486639 249.20167083 419.18936682 247.38293433 C408.23356818 230.71804387 397.16995645 214.13235929 385.98959875 197.61733985 C376.21142397 183.168766 366.57449947 168.63255391 356.99921179 154.04888892 C346.66959625 138.32166185 336.19766204 122.69498468 325.62970495 107.12695289 C325.110031 106.35730405 324.59035704 105.58765522 324.0549354 104.79468369 C322.94170918 103.15701005 321.81829927 101.52616625 320.68042332 99.90552258 C317.38208072 95.14599211 314.516676 90.37324374 311.90988588 85.19962287 C305.63603456 72.90817926 305.63603456 72.90817926 295.29651523 64.29147506 C287.53039078 62.11602811 279.61886037 62.31405665 271.61746275 62.56808257 C268.04157874 62.65260952 264.46783872 62.58493599 260.89171362 62.53753638 C253.90997216 62.46858347 246.93625536 62.53716052 239.95542527 62.65456527 C231.81505547 62.78645611 223.67640444 62.78163818 215.53517949 62.77257282 C201.00715317 62.76121953 186.48285646 62.87563861 171.95612097 63.06054664 C157.88013662 63.23963214 143.80766525 63.32440755 129.73053503 63.30664039 C128.86247866 63.30555555 127.99442229 63.30447072 127.10006119 63.30335301 C126.23345754 63.30226869 125.3668539 63.30118437 124.47398955 63.30006719 C108.41029155 63.280908 92.34811232 63.35404316 76.28484376 63.46760425 C70.61812565 63.50543552 64.95174928 63.51536885 59.28491926 63.51609778 C52.37839176 63.51868218 45.4745063 63.57406134 38.56899763 63.69465297 C35.04876721 63.75511997 31.53202856 63.79404172 28.01126242 63.77222419 C9.51020613 63.00796018 9.51020613 63.00796018 -3.24409193 74.43342185 Z " fill="#1C1C1C" transform="translate(228.70037317276,-3.791015386581421)"/>
<path d="M0 0 C4.41580057 0.06629993 8.82842278 -0.03597914 13.24356604 -0.11541772 C21.86909709 -0.24372654 30.48727447 -0.2168461 39.11308217 -0.13245113 C46.12823484 -0.06668372 53.1413398 -0.05818772 60.15671301 -0.08964181 C61.15888446 -0.09408557 62.1610559 -0.09852933 63.19359618 -0.10310774 C65.23012673 -0.11238072 67.2666567 -0.12178292 69.30318606 -0.13131289 C88.35634284 -0.21381586 107.40543971 -0.11924617 126.45793021 0.03689773 C142.77145109 0.16646023 159.07898732 0.14394957 175.39240026 0.01025367 C194.38149579 -0.14530006 213.3670423 -0.20585298 232.35668612 -0.11699069 C234.38530375 -0.10775374 236.41392193 -0.09863697 238.44254065 -0.08964181 C239.44039849 -0.08516782 240.43825633 -0.08069383 241.46635228 -0.07608426 C248.4651688 -0.05114728 255.46171515 -0.09307582 262.46017981 -0.16154885 C271.00286619 -0.24330137 279.53784219 -0.22009413 288.07965541 -0.06640728 C292.43266801 0.00935806 296.77289125 0.04064921 301.12577963 -0.05623269 C325.96346736 -0.56541223 325.96346736 -0.56541223 333.00266838 5.18137437 C340.7366724 12.92049397 345.81051738 22.92715693 350.29962683 32.79101539 C354.51956911 32.14413968 357.90274878 31.25810531 361.76447058 29.41992164 C363.31980505 28.68841895 363.31980505 28.68841895 364.90656042 27.94213843 C366.00564734 27.41789283 367.10473425 26.89364722 368.23712683 26.35351539 C370.56053592 25.26584668 372.8847731 24.17994532 375.20978308 23.09570289 C376.38556921 22.54624 377.56135534 21.99677711 378.77277136 21.43066382 C384.21916126 18.89861658 389.68560502 16.41665508 395.17462683 13.97851539 C396.13618689 13.5403147 397.09774694 13.10211402 398.08844519 12.65063453 C398.980557 12.2573899 399.87266882 11.86414527 400.79181433 11.45898414 C401.56895788 11.11117896 402.34610144 10.76337379 403.1467948 10.40502906 C405.69302557 9.67881332 406.87068876 9.76138415 409.29962683 10.79101539 C410.7249198 12.16357398 410.7249198 12.16357398 412.04181433 13.93945289 C412.54309851 14.60501197 413.04438269 15.27057105 413.5608573 15.95629859 C414.09340124 16.68550513 414.62594519 17.41471168 415.17462683 18.16601539 C415.74197546 18.9255149 416.30932409 19.68501441 416.89386511 20.46752906 C418.70686938 22.90069314 420.50432361 25.34476935 422.29962683 27.79101539 C423.44507113 29.34208401 424.59089892 30.8928695 425.73712683 32.44335914 C428.05590587 35.58425976 430.36848829 38.7296248 432.67853308 41.87695289 C436.45825246 47.01786736 440.28241319 52.12479457 444.11212683 57.22851539 C444.73845007 58.06833961 445.36477331 58.90816382 446.01007605 59.77343726 C448.71101025 63.38805974 451.42309636 66.9776244 454.28009558 70.47070289 C454.71281775 71.01025611 455.14553991 71.54980933 455.59137487 72.10571265 C456.69812458 73.4776887 457.82599656 74.83255596 458.95587683 76.18554664 C460.74074527 79.64632354 460.19999165 82.14656265 459.29962683 85.79101539 C458.14245729 89.12282845 456.76367779 92.3446415 455.36212683 95.58007789 C454.96316198 96.51919013 454.56419714 97.45830237 454.15314245 98.42587256 C452.87642033 101.42597719 451.58824559 104.42100428 450.29962683 107.41601539 C449.4642312 109.37402455 448.62958931 111.33235547 447.79572058 113.29101539 C446.963691 115.24153693 446.13165976 117.19205777 445.29962683 119.14257789 C444.89010778 120.10504432 444.48058874 121.06751075 444.05866003 122.05914283 C441.95621187 126.98387892 439.8139027 131.88462653 437.59650183 136.75878882 C437.16853308 137.71417548 436.74056433 138.66956214 436.29962683 139.65389991 C435.48595671 141.46711689 434.6584898 143.27422602 433.81525183 145.07388282 C431.73551281 149.54634639 431.73551281 149.54634639 431.7092948 154.3361814 C432.23410437 155.14627662 432.75891394 155.95637183 433.29962683 156.79101539 C433.68056494 157.39570655 434.06150305 158.00039771 434.45398474 158.62341285 C435.92619047 160.91902644 437.45473276 163.16938961 438.99493933 165.41992164 C439.85779043 166.69330642 439.85779043 166.69330642 440.73807287 167.99241614 C441.97985863 169.8240465 443.22376165 171.65424284 444.4695487 173.48315406 C447.79978087 178.37245721 451.11475761 183.27209789 454.43243933 188.16992164 C455.10398046 189.16029426 455.7755216 190.15066688 456.46741247 191.17105079 C462.45968476 200.01254251 468.38872652 208.89500777 474.29962683 217.79101539 C485.09434211 234.02591901 495.98881483 250.19279099 506.90765905 266.34442115 C508.04369694 268.02735514 509.17776988 269.7116174 510.30975866 271.39727759 C513.12408661 275.5869692 515.9647428 279.75354641 518.8601737 283.88769507 C519.42564917 284.70611884 519.99112463 285.52454261 520.57373571 286.3677671 C521.64411826 287.91652505 522.72593893 289.45746221 523.8209281 290.98892188 C527.31082788 296.07902095 527.31082788 296.07902095 527.25641394 299.53784156 C526.30947828 301.76781584 525.32814938 303.81019224 524.06915808 305.88085914 C523.60340368 306.65332984 523.13764929 307.42580054 522.65778112 308.22167945 C521.89268225 309.46256324 521.89268225 309.46256324 521.11212683 310.72851539 C520.57821325 311.60604468 520.04429968 312.48357398 519.49420691 313.38769507 C514.41628187 321.69288438 509.18008341 329.89715365 503.93243933 338.09570289 C500.20326281 343.92820749 496.52688068 349.79287181 492.86212683 355.66601539 C492.23975134 356.6634275 491.61737585 357.66083961 490.9761405 358.68847632 C489.71410777 360.71176876 488.45230804 362.73520654 487.19074011 364.75878882 C484.06419258 369.7719208 480.93162521 374.78128782 477.79962683 379.79101539 C476.54959756 381.7909971 475.29959757 383.7909971 474.04962683 385.79101539 C412.17462683 484.79101539 350.29962683 583.79101539 254.67487097 736.79052711 C253.42394014 738.79208158 252.17312648 740.79370928 250.92242956 742.79540992 C247.81262414 747.77223134 244.70084351 752.74779507 241.58478308 757.72070289 C235.04977618 768.15492771 228.55367055 778.61129356 222.11212683 789.10351539 C217.06064086 797.33046285 211.9701425 805.52919047 206.80011511 813.68212867 C202.83724435 819.93193661 198.90701235 826.20166337 194.98712683 832.47851539 C194.04147863 833.99276099 194.04147863 833.99276099 193.07672644 835.53759742 C191.79202533 837.59514311 190.50743938 839.6527607 189.22296667 841.71044898 C185.46537713 847.72888828 181.70380141 853.74483682 177.94293737 859.76123023 C174.71672827 864.9226572 171.49163593 870.08477681 168.26837683 875.24804664 C167.27160925 876.84422828 167.27160925 876.84422828 166.25470495 878.47265601 C164.99781407 880.48543931 163.74127437 882.49844198 162.4851737 884.51171851 C158.45767467 890.96021696 154.39092726 897.382814 150.29962683 903.79101539 C146.83304078 902.6354867 146.61837127 902.12838043 144.87384558 899.09179664 C144.4145365 898.30643531 143.95522741 897.52107398 143.48199987 896.71191382 C142.98869177 895.85114234 142.49538366 894.99037086 141.98712683 894.10351539 C140.90638946 892.25954354 139.82295812 890.41714851 138.73712683 888.57617164 C138.17251745 887.61855933 137.60790808 886.66094703 137.02618933 885.67431617 C134.270189 881.07188915 131.38366254 876.55586678 128.48712683 872.04101539 C123.56900379 864.35908407 118.69083162 856.65450963 113.86212683 848.91601539 C113.23975134 847.91860328 112.61737585 846.92119117 111.9761405 845.89355445 C110.71410777 843.87026201 109.45230804 841.84682423 108.19074011 839.82324195 C105.06419258 834.81010998 101.93162521 829.80074296 98.79962683 824.79101539 C97.54959756 822.79103368 96.29959757 820.79103367 95.04962683 818.79101539 C94.43087683 817.80101539 93.81212683 816.81101539 93.17462683 815.79101539 C71.29962683 780.79101539 49.42462683 745.79101539 27.54962683 710.79101539 C26.62162268 709.30625709 26.62162268 709.30625709 25.67487097 707.79150367 C24.42394014 705.7899492 23.17312648 703.7883215 21.92242956 701.78662086 C18.81262414 696.80979943 15.70084351 691.8342357 12.58478308 686.86132789 C6.04977618 676.42710306 -0.44632945 665.97073721 -6.88787317 655.47851539 C-11.93711966 647.25521517 -17.02458703 639.05960629 -22.19329309 630.91088843 C-26.22408462 624.55524125 -30.21600453 618.17585433 -34.20037317 611.79101539 C-38.68134303 604.61218601 -43.17460168 597.44168838 -47.70037317 590.29101539 C-54.10035653 580.17686195 -60.43913276 570.02471591 -66.77703333 559.87158179 C-69.91626541 554.84355052 -73.05844468 549.81736198 -76.20037317 544.79101539 C-77.45038781 542.79102453 -78.7003878 540.79102453 -79.95037317 538.79101539 C-80.87849817 537.30601539 -80.87849817 537.30601539 -81.82537317 535.79101539 C-83.70037317 532.79101539 -85.57537317 529.79101539 -87.45037317 526.79101539 C-88.06928431 525.80077369 -88.68819544 524.81053199 -89.32586145 523.79028296 C-90.57429239 521.79276095 -91.8226649 519.79520243 -93.07097864 517.79760718 C-96.21950435 512.75939105 -99.3690821 507.7218381 -102.52068567 502.68554664 C-108.96937675 492.37821254 -115.39865566 482.05953994 -121.79119349 471.71728492 C-127.75783965 462.07005697 -133.77585426 452.45504369 -139.79314661 442.83935523 C-142.9307888 437.82442942 -146.0654445 432.80763773 -149.20037317 427.79101539 C-150.45035854 425.79100624 -151.70035855 423.79100624 -152.95037317 421.79101539 C-190.45037318 361.79101538 -190.45037318 361.79101538 -192.32610559 358.78979468 C-193.57360565 356.7938271 -194.82116405 354.79789599 -196.06878138 352.80200171 C-199.232515 347.74060622 -202.39516878 342.67854145 -205.55584192 337.61523414 C-206.19134974 336.59792212 -206.82685755 335.58061011 -207.48162317 334.53247046 C-208.73996056 332.51651985 -209.99650869 330.49945115 -211.25115442 328.48120093 C-214.23062397 323.6970128 -217.24232546 318.94178016 -220.34490442 314.23632789 C-220.91185022 313.36790259 -221.47879602 312.4994773 -222.062922 311.60473609 C-223.1245512 309.98308838 -224.19795419 308.36906403 -225.28508997 306.76440406 C-225.75213343 306.04744361 -226.21917688 305.33048316 -226.70037317 304.59179664 C-227.11287317 303.97473853 -227.52537317 303.35768043 -227.95037317 302.72192359 C-229.04403571 299.90624098 -228.68629428 298.66796967 -227.70037317 295.79101539 C-226.12328525 292.9615068 -224.32007369 290.30288434 -222.49724817 287.62695289 C-221.95651163 286.81945594 -221.41577509 286.01195899 -220.85865259 285.17999244 C-219.06351265 282.50345831 -217.25695635 279.83483614 -215.45037317 277.16601539 C-214.18004624 275.27635866 -212.91044573 273.38621342 -211.64153528 271.49560523 C-207.67191964 265.58678115 -203.68714241 259.68827381 -199.70037317 253.79101539 C-198.46672328 251.96490343 -197.23315975 250.13873312 -195.99968958 248.31249976 C-195.40443476 247.43124427 -194.80917994 246.54998878 -194.19588709 245.64202857 C-191.81265898 242.1136066 -189.42953121 238.58511688 -187.04656458 235.05651832 C-185.85571701 233.29363687 -184.66447232 231.53102362 -183.47283411 229.76867652 C-172.62802491 213.72776481 -161.9434631 197.58431863 -151.32757044 181.39111304 C-150.75382181 180.51764228 -150.18007318 179.64417151 -149.58893824 178.74423194 C-148.48165141 177.05554861 -147.3781253 175.36439219 -146.27872705 173.67056251 C-143.88685208 170.00505559 -141.46635308 166.42114781 -138.7726388 162.96972632 C-138.33216211 162.39173285 -137.89168543 161.81373939 -137.43786097 161.21823096 C-136.28690802 159.72797926 -135.10020458 158.26551878 -133.91033411 156.80615211 C-132.31922262 152.84121527 -133.13350869 151.03160823 -134.66839075 147.16540504 C-135.00894495 146.38185645 -135.34949915 145.59830787 -135.70037317 144.79101539 C-136.00354456 144.04484962 -136.30671595 143.29868384 -136.61907434 142.52990699 C-137.58777285 140.17214815 -138.59585599 137.83466579 -139.61443567 135.49804664 C-140.3808413 133.72604864 -141.14711248 131.95399249 -141.9132638 130.18188453 C-142.30876429 129.26988288 -142.70426477 128.35788123 -143.11175013 127.41824317 C-144.33665464 124.57735054 -145.54332858 121.7293281 -146.74529505 118.87866187 C-151.68554987 107.1639331 -151.68554987 107.1639331 -157.38006067 95.80664039 C-162.71828427 85.75133701 -162.71828427 85.75133701 -162.70037317 80.79101539 C-160.48506779 74.11134993 -155.55296713 69.13095934 -150.81218958 64.10888648 C-147.48004495 60.45161698 -144.68762582 56.44361375 -141.82537317 52.41601539 C-136.7717711 45.51148487 -131.59412945 38.70580579 -126.38787317 31.91601539 C-120.58956713 24.35243496 -115.02169032 16.69680934 -109.70037317 8.79101539 C-102.37732646 11.73971724 -95.17140663 14.90730362 -87.98943567 18.18164039 C-87.12671045 18.5742002 -86.26398523 18.96676002 -85.37511683 19.37121558 C-81.77600202 21.00981678 -78.17755701 22.64975449 -74.58367395 24.29980445 C-71.93016036 25.5168903 -69.27268865 26.72494814 -66.61443567 27.93164039 C-65.80809687 28.30452186 -65.00175806 28.67740333 -64.17098475 29.06158423 C-63.40934015 29.40574378 -62.64769556 29.74990333 -61.86297083 30.10449195 C-61.20189325 30.40695838 -60.54081568 30.70942481 -59.85970545 31.02105689 C-57.17842747 31.97712687 -54.50741656 32.34828536 -51.70037317 32.79101539 C-51.30950683 31.93217014 -50.91864048 31.07332489 -50.5159297 30.18845403 C-38.61150114 4.94647032 -27.23146978 -0.60608869 0 0 Z M-39.71877408 36.75202692 C-43.36050677 44.47434154 -43.36050677 44.47434154 -44.70037317 52.79101539 C-56.51855211 48.53575161 -67.85393927 43.2721817 -79.26287317 38.04101539 C-82.12921951 36.72742385 -84.99607908 35.41503234 -87.8649087 34.10687232 C-89.63709955 33.29876708 -91.40789054 32.4875828 -93.177073 31.67291236 C-93.97568247 31.30873206 -94.77429193 30.94455176 -95.59710169 30.5693357 C-96.29513407 30.24910438 -96.99316645 29.92887305 -97.71235132 29.59893775 C-99.69019744 28.79515075 -101.61907912 28.25519687 -103.70037317 27.79101539 C-110.67358573 37.05031777 -117.61750739 46.32977616 -124.45305872 55.69140601 C-127.3352327 59.62913151 -130.25450823 63.52080481 -133.29021692 67.34179664 C-133.85418177 68.06109351 -134.41814661 68.78039039 -134.9992013 69.52148414 C-136.06281835 70.87287363 -137.14027282 72.21352818 -138.2335763 73.54101539 C-141.08911911 77.16080904 -141.08911911 77.16080904 -141.48943567 81.6083982 C-140.65291434 84.98243661 -139.51284333 87.95030195 -138.11052942 91.13085914 C-137.85037546 91.72622474 -137.5902215 92.32159034 -137.32218409 92.93499732 C-136.47539092 94.86901194 -135.61922395 96.79871627 -134.76287317 98.72851539 C-134.17236914 100.07238235 -133.58253179 101.41654244 -132.99334192 102.76098609 C-131.80259371 105.47614835 -130.6085164 108.18980719 -129.41179895 110.90234351 C-126.98150698 116.41623724 -124.59308826 121.94824039 -122.20037317 127.47851539 C-121.44111236 129.23292231 -120.68074707 130.98685178 -119.91912317 132.74023414 C-119.56463099 133.56185035 -119.2101388 134.38346656 -118.84490442 135.22998023 C-118.02296025 137.06918552 -117.16127098 138.89082079 -116.27459192 140.69970679 C-115.80666224 141.66440894 -115.33873255 142.62911109 -114.85662317 143.62304664 C-114.20403528 144.92785987 -114.20403528 144.92785987 -113.5382638 146.25903296 C-112.53076882 149.30353485 -112.87062497 150.72202702 -113.70037317 153.79101539 C-114.75335169 155.81372046 -114.75335169 155.81372046 -116.07927942 157.81054664 C-116.83054102 158.95444106 -116.83054102 158.95444106 -117.59697962 160.12144446 C-118.14672449 160.94052787 -118.69646936 161.75961127 -119.26287317 162.60351539 C-119.83678797 163.47194571 -120.41070276 164.34037604 -121.00200891 165.23512244 C-122.89353078 168.09243933 -124.79668714 170.94179131 -126.70037317 173.79101539 C-128.02836232 175.79059195 -129.35583032 177.79051471 -130.68279505 179.79077125 C-141.30499821 195.78165871 -152.03617266 211.69916698 -162.81405115 227.58541846 C-168.94489168 236.62253617 -175.06063249 245.66983263 -181.17083216 254.72091651 C-183.01065531 257.44518612 -184.85251687 260.16806882 -186.6945138 262.8908689 C-189.50377498 267.04662369 -192.29888487 271.21160251 -195.08550501 275.38256812 C-196.1765784 277.00981719 -197.27283065 278.63360397 -198.37383509 280.25415015 C-199.96562978 282.59742029 -201.54152538 284.95066793 -203.11443567 287.30664039 C-203.83546976 288.35582648 -203.83546976 288.35582648 -204.57107019 289.42620826 C-207.05372052 292.85686257 -207.05372052 292.85686257 -207.37678003 296.88204932 C-206.61532618 299.03103633 -205.648015 300.83045381 -204.46990442 302.78320289 C-204.00415003 303.55889625 -203.53839563 304.33458961 -203.05852747 305.13378882 C-202.29342859 306.38724097 -202.29342859 306.38724097 -201.51287317 307.66601539 C-200.9789596 308.5480564 -200.44504602 309.43009742 -199.89495325 310.33886695 C-194.82618036 318.67017177 -189.58500112 326.8894361 -184.32927942 335.10351539 C-174.52975274 350.43131948 -164.99181909 365.92349218 -155.47258997 381.42626929 C-151.09758522 388.5432002 -146.67472701 395.62701142 -142.20086145 402.68212867 C-138.23799069 408.93193661 -134.30775869 415.20166337 -130.38787317 421.47851539 C-129.75744104 422.48801246 -129.12700891 423.49750953 -128.47747278 424.53759742 C-127.19277168 426.59514311 -125.90818573 428.6527607 -124.62371302 430.71044898 C-122.10643839 434.7423062 -119.58724129 438.77296 -117.06780481 442.80346656 C-115.82332591 444.79440503 -114.57902238 446.78545314 -113.33489466 448.77661109 C-110.16263173 453.85347498 -106.98814479 458.92892645 -103.80974817 464.00195289 C-103.16328333 465.03449195 -102.51681849 466.06703101 -101.8507638 467.13085914 C-100.64712031 469.05322499 -99.44277997 470.97515484 -98.23748255 472.89648414 C-97.6735177 473.79753882 -97.10955286 474.69859351 -96.52849817 475.62695289 C-95.94645121 476.50931617 -95.36440424 477.39167945 -94.76471949 478.30078101 C-93.15184901 480.8681114 -91.9785051 483.45536121 -90.83475733 486.26098609 C-88.21656196 492.15315456 -85.4410721 498.28528765 -79.15369272 500.81611991 C-71.42216818 502.44173132 -63.53896176 502.00242287 -55.68865442 501.76757789 C-53.14849016 501.75643131 -50.60827961 501.75324603 -48.06809473 501.75765967 C-42.08750735 501.74896935 -36.11333851 501.66065821 -30.13454789 501.53274071 C-23.32206496 501.39150334 -16.5101838 501.35349093 -9.69644463 501.32359791 C4.30452542 501.25988869 18.30137315 501.06833363 32.29962683 500.79101539 C30.07515995 504.45165445 27.84959542 508.11162502 25.62384558 511.77148414 C24.99957678 512.79882667 24.37530798 513.8261692 23.73212194 514.88464332 C20.2271665 520.64663853 16.70004192 526.39279686 13.11212683 532.10351539 C3.20356707 547.89465633 -6.40381147 563.87359796 -16.07537317 579.81054664 C-16.70185755 580.842844 -17.32834192 581.87514136 -17.97381067 582.93872046 C-18.5435763 583.87997779 -19.11334192 584.82123511 -19.70037317 585.79101539 C-20.2907638 586.63623755 -20.88115442 587.48145972 -21.48943567 588.35229468 C-22.91496678 590.71688636 -22.91496678 590.71688636 -22.55242395 593.32495093 C-21.65381786 595.92575901 -20.57313085 597.94624706 -19.06756067 600.24804664 C-18.24107019 601.5268772 -18.24107019 601.5268772 -17.39788294 602.83154273 C-16.79645472 603.74629371 -16.19502649 604.66104468 -15.57537317 605.60351539 C-14.28922436 607.59115472 -13.00410263 609.57945897 -11.71990442 611.56835914 C-11.05426477 612.59558082 -10.38862513 613.6228025 -9.70281458 614.68115211 C-6.50649121 619.64515687 -3.38393007 624.65446859 -0.26287317 629.66601539 C0.99622208 631.68425661 2.25533677 633.70248571 3.51447058 635.72070289 C4.13950476 636.72327125 4.76453894 637.72583961 5.40851355 638.75878882 C8.53506107 643.7719208 11.66762844 648.78128782 14.79962683 653.79101539 C16.04965609 655.7909971 17.29965608 657.7909971 18.54962683 659.79101539 C19.16837683 660.78101539 19.78712683 661.77101539 20.42462683 662.79101539 C52.29962683 713.79101539 84.17462683 764.79101539 116.04962683 815.79101539 C116.97883947 817.27770728 116.97883947 817.27770728 117.92682409 818.79443336 C119.16961705 820.7829669 120.41229393 822.77157299 121.65485144 824.76025367 C124.88914296 829.93630903 128.12578812 835.11087199 131.36603308 840.28320289 C132.36956823 841.88615211 132.36956823 841.88615211 133.39337683 843.52148414 C134.6621517 845.54799956 135.93162915 847.57407536 137.20197058 849.59960914 C137.7820487 850.52644507 138.36212683 851.45328101 138.95978308 852.40820289 C139.51681921 853.29733375 140.07385534 854.18646461 140.64777136 855.10253882 C142.85196517 858.68997339 144.9532002 862.33536511 147.03571081 865.99462867 C147.4528031 866.58743629 147.86989538 867.1802439 148.29962683 867.79101539 C148.95962683 867.79101539 149.61962683 867.79101539 150.29962683 867.79101539 C151.91798957 865.61000968 151.91798957 865.61000968 153.57306433 862.77148414 C154.22669958 861.69624488 154.88033484 860.62100562 155.55377722 859.51318336 C155.89941717 858.93711341 156.24505713 858.36104346 156.60117102 857.76751685 C158.04620231 855.3592546 159.50672067 852.96052801 160.96645117 850.56115699 C161.70326521 849.34966085 162.43925424 848.13766259 163.17442846 846.92517066 C166.18099579 841.96916681 169.25190662 837.05742134 172.36212683 832.16601539 C176.80546338 825.16168884 181.21841954 818.13909085 185.61212683 811.10351539 C186.55777502 809.58926978 186.55777502 809.58926978 187.52252722 808.04443336 C188.80722832 805.98688767 190.09181427 803.92927007 191.37628698 801.87158179 C194.51551906 796.84355052 197.65769834 791.81736198 200.79962683 786.79101539 C202.04964146 784.79102453 203.29964145 782.79102453 204.54962683 780.79101539 C227.04962682 744.79101539 227.04962682 744.79101539 228.92438269 741.79150367 C230.17531352 739.7899492 231.42612718 737.7883215 232.67682409 735.78662086 C235.78662951 730.80979943 238.89841014 725.8342357 242.01447058 720.86132789 C248.54947748 710.42710306 255.04558311 699.97073721 261.48712683 689.47851539 C266.53861279 681.25156792 271.62911116 673.0528403 276.79913855 664.89990211 C280.76200931 658.65009417 284.69224131 652.3803674 288.61212683 646.10351539 C289.55777502 644.58926978 289.55777502 644.58926978 290.52252722 643.04443336 C291.80722832 640.98688767 293.09181427 638.92927007 294.37628698 636.87158179 C297.51551906 631.84355052 300.65769834 626.81736198 303.79962683 621.79101539 C305.04964146 619.79102453 306.29964145 617.79102453 307.54962683 615.79101539 C480.04962683 339.79101539 480.04962683 339.79101539 481.92853308 336.78637671 C483.16744759 334.80304658 484.40445464 332.81852354 485.63947058 330.83276343 C488.56557936 326.1331265 491.50980621 321.44850094 494.52289343 316.80398536 C495.59826528 315.14443821 496.66676753 313.48044616 497.7351737 311.81640601 C499.08383746 309.71749222 500.44405988 307.6259485 501.81720495 305.54296851 C502.41984167 304.60001929 503.02247839 303.65707007 503.64337683 302.68554664 C504.18156042 301.85901587 504.71974401 301.03248511 505.2742362 300.18090796 C506.61975481 297.04488852 506.48779782 296.00219473 505.29962683 292.79101539 C503.64642593 289.89995377 501.77383161 287.17948642 499.87775183 284.44335914 C499.31432074 283.61562995 498.75088964 282.78790076 498.17038488 281.93508887 C496.94638477 280.13830201 495.71878969 278.34396005 494.48804235 276.55178809 C491.16607791 271.71339745 487.87095333 266.85677089 484.57306433 262.00195289 C483.88926702 260.99671073 483.20546972 259.99146857 482.50095129 258.95576453 C475.28198241 248.32727062 468.22276354 237.59571044 461.17462683 226.85351539 C453.20515077 214.72048201 445.21236049 202.60757357 437.04962683 190.60351539 C436.31308874 189.51739966 435.57655066 188.43128394 434.81769323 187.31225562 C431.44592814 182.354557 428.04784412 177.41846694 424.58521032 172.52391028 C422.95264328 170.21255013 421.33247758 167.89263727 419.71332312 165.57186866 C418.58404547 163.96499056 417.43575739 162.37152508 416.28693151 160.77856421 C415.28001257 159.33453223 415.28001257 159.33453223 414.25275183 157.86132789 C413.65623816 157.02359839 413.05972448 156.1858689 412.44513464 155.32275367 C410.92370283 151.96016887 411.30248331 150.32082024 412.29962683 146.79101539 C413.25984696 144.50010868 414.2977705 142.24101328 415.38947058 140.00976539 C416.02948276 138.6787678 416.66725408 137.34669089 417.3030448 136.01367164 C417.63310522 135.32225074 417.96316565 134.63082984 418.3032279 133.91845679 C420.98637025 128.18959862 423.42504594 122.34789698 425.90680456 116.52978492 C426.86202248 114.29125992 427.82176073 112.05471316 428.7820487 109.81835914 C430.33736906 106.19015732 431.87490495 102.55480048 433.40295935 98.91503882 C434.30299184 96.78304435 435.21895488 94.65832424 436.13507605 92.53320289 C436.69989309 91.19241573 437.26389619 89.85128532 437.82697058 88.50976539 C438.32833532 87.33349586 438.82970007 86.15722632 439.34625769 84.94531226 C440.3617772 81.58538598 440.46081573 80.06402168 439.29962683 76.79101539 C438.15301788 74.82745027 438.15301788 74.82745027 436.63165808 73.03320289 C436.07502478 72.33469214 435.51839148 71.6361814 434.9448905 70.91650367 C434.34007849 70.17384254 433.73526648 69.4311814 433.11212683 68.66601539 C431.83132692 67.05835415 430.55274905 65.4489206 429.27618933 63.83789039 C428.61780066 63.00837867 427.95941198 62.17886695 427.28107214 61.32421851 C424.09587484 57.25206386 421.0386208 53.08880864 417.98712683 48.91601539 C416.83218116 47.33919083 415.6772333 45.76236787 414.52228308 44.18554664 C413.97845984 43.44256324 413.43463659 42.69957984 412.87433386 41.93408179 C409.38872205 37.1904073 405.84503354 32.49008619 402.29962683 27.79101539 C397.10159728 29.39080942 392.25228969 31.53005603 387.31525183 33.78320289 C386.03179876 34.36402122 386.03179876 34.36402122 384.72241735 34.95657325 C381.9968779 36.19026166 379.27309743 37.42776724 376.54962683 38.66601539 C373.84032181 39.89685817 371.13060986 41.12676736 368.41968298 42.35403419 C366.73792377 43.11545874 365.0570694 43.87888647 363.37732458 44.64474463 C361.02503105 45.71019809 358.66573665 46.75661912 356.29962683 47.79101539 C355.40497717 48.18355506 354.51032751 48.57609473 353.58856726 48.98052955 C352.2539646 49.54438361 352.2539646 49.54438361 350.89240026 50.11962867 C350.0849436 50.46406013 349.27748693 50.80849158 348.44556189 51.16336036 C346.29962683 51.79101539 346.29962683 51.79101539 343.29962683 50.79101539 C341.71389663 48.67570546 340.28264307 46.575559 338.86212683 44.35351539 C338.43393074 43.72520987 338.00573465 43.09690435 337.56456292 42.44955927 C335.08197726 38.76636561 332.98107687 35.21490438 331.27720213 31.10758471 C328.83407892 25.75862828 326.14869931 21.26262151 321.29962683 17.79101539 C311.80336897 14.4855938 301.08726541 15.1481684 291.14654994 15.21808565 C286.97762049 15.22798731 282.8107489 15.13448734 278.64273596 15.05528235 C270.48703743 14.91772965 262.33379033 14.87900507 254.17703934 14.87933461 C247.54007856 14.87897903 240.90389947 14.84895676 234.26713705 14.79825377 C215.41292835 14.65707743 196.56056679 14.5877807 177.70583482 14.61579327 C176.6908731 14.61730065 175.67591137 14.61880803 174.63019323 14.62036109 C173.10587128 14.62264526 173.10587128 14.62264526 171.55075495 14.62497558 C155.09986876 14.64533577 138.65547619 14.4969568 122.20630188 14.27053396 C105.27998403 14.03938686 88.35679799 13.93244165 71.42886627 13.95402902 C61.93872148 13.96371452 52.4550529 13.92338173 42.96630239 13.7517488 C-5.06716112 10.07456721 -5.06716112 10.07456721 -39.71877408 36.75202692 Z " fill="#77EA00" transform="translate(228.70037317276,-3.791015386581421)"/>
<path d="M0 0 C4.17879326 1.5621657 6.51481407 4.64400829 9.25 8 C9.97678955 8.87567627 9.97678955 8.87567627 10.71826172 9.76904297 C14.21458267 13.99583494 17.6526059 18.26966469 21.0625 22.56640625 C29.23013901 32.82535605 37.66079803 42.88042017 46 53 C62.23704838 72.7035769 62.23704838 72.7035769 66.5546875 78.0390625 C68.57129587 80.48089819 70.62165672 82.88043664 72.6953125 85.2734375 C73.34306641 86.03205078 73.99082031 86.79066406 74.65820312 87.57226562 C75.94942899 89.08403851 77.25252214 90.58577131 78.56835938 92.07617188 C79.15681641 92.77033203 79.74527344 93.46449219 80.3515625 94.1796875 C81.15327881 95.10370361 81.15327881 95.10370361 81.97119141 96.04638672 C83 98 83 98 82.86621094 100.30761719 C81.78896206 103.65595445 80.35162101 106.75712159 78.7890625 109.8984375 C78.4652359 110.56130768 78.1414093 111.22417786 77.80776978 111.90713501 C76.75201854 114.06566798 75.68845166 116.22025202 74.625 118.375 C73.88962773 119.87597316 73.15493228 121.3772781 72.42089844 122.87890625 C71.31657448 125.13783382 70.21185867 127.3965586 69.10498047 129.65423584 C66.11568045 135.75165954 63.17022097 141.86917961 60.25 148 C59.38553091 149.81255449 58.52094769 151.62505455 57.65625 153.4375 C57.22828125 154.3346875 56.8003125 155.231875 56.359375 156.15625 C54.35411611 160.35115941 52.33762205 164.54064771 50.32226562 168.73071289 C45.48392726 178.79130125 40.68032029 188.86479938 36 199 C32.2550384 195.34355567 28.77180196 191.54300465 25.375 187.5625 C24.85212402 186.95124268 24.32924805 186.33998535 23.79052734 185.71020508 C19.83415425 181.05266481 16.0331306 176.2901316 12.28662109 171.46313477 C8.60913233 166.73708419 4.82109384 162.11045207 1 157.5 C-3.3042242 152.30564893 -7.54665552 147.07554659 -11.6875 141.75 C-15.69970548 136.59239472 -19.84893953 131.57539655 -24.09106445 126.60571289 C-27.40469815 122.71996657 -30.61967514 118.7700786 -33.79296875 114.76953125 C-36.56873411 111.28631419 -39.37700787 107.83021803 -42.1875 104.375 C-42.74147461 103.69348877 -43.29544922 103.01197754 -43.86621094 102.30981445 C-46.68780462 98.83954595 -49.51219949 95.37158998 -52.33984375 91.90625 C-57.64036653 85.4058752 -62.92017161 78.88987648 -68.125 72.3125 C-68.57439941 71.74837402 -69.02379883 71.18424805 -69.48681641 70.60302734 C-71.91098012 67.52323118 -74.0648019 64.4087313 -76 61 C-70.42582302 55.85347151 -64.63166253 51.07456284 -58.64794922 46.4206543 C-54.04920986 42.83944859 -49.51399097 39.18732451 -45 35.5 C-39.48208568 30.9964033 -33.92010001 26.55818601 -28.30444336 22.17724609 C-23.00317795 18.03013629 -17.7871653 13.78079471 -12.59179688 9.50195312 C-8.50611091 6.15530183 -4.32840027 3.02708767 0 0 Z " fill="#1D1D1D" transform="translate(487,153)"/>
<path d="M0 0 C3.12151233 0.59428956 4.97084717 1.52087369 7.3984375 3.5546875 C8.03523438 4.08126953 8.67203125 4.60785156 9.328125 5.15039062 C10.00359375 5.71951172 10.6790625 6.28863281 11.375 6.875 C12.81949294 8.07130279 14.26481983 9.26659924 15.7109375 10.4609375 C16.4337793 11.0600293 17.15662109 11.65912109 17.90136719 12.27636719 C20.89509452 14.73515208 23.94249269 17.12134947 27 19.5 C32.04921875 23.44095925 37.03759296 27.45032883 42 31.5 C47.53906688 36.01928901 53.11847965 40.47927322 58.75048828 44.88208008 C65.54575348 50.19777833 72.27148884 55.60022844 79 61 C75.10085259 66.27159881 71.09214258 71.4278309 66.9375 76.5 C65.79032344 77.90621643 64.64318922 79.31246741 63.49609375 80.71875 C62.91585449 81.42902344 62.33561523 82.13929688 61.73779297 82.87109375 C58.98579309 86.24246758 56.24319214 89.6214591 53.5 93 C52.41671574 94.3333732 51.3333823 95.66670646 50.25 97 C49.71375 97.66 49.1775 98.32 48.625 99 C43.75 105 43.75 105 42.12451172 107.00048828 C41.04265888 108.33207451 39.96095282 109.66378 38.87939453 110.99560547 C36.14960892 114.35666941 33.41719783 117.71553619 30.6796875 121.0703125 C25.51982364 127.39886347 20.39349147 133.7460689 15.375 140.1875 C11.34017962 145.36372575 7.16978529 150.40258191 2.90917969 155.39404297 C-0.40104131 159.27568525 -3.61372965 163.22040464 -6.78125 167.21875 C-9.06130229 170.07684371 -11.3702306 172.90964351 -13.68334961 175.7409668 C-19.92976687 183.39010093 -26.03172309 191.13211351 -32 199 C-34.93882078 196.46073658 -36.31134085 193.65627377 -37.96875 190.171875 C-38.53416504 188.99141602 -39.09958008 187.81095703 -39.68212891 186.59472656 C-40.28819679 185.31320346 -40.89415109 184.03162664 -41.5 182.75 C-42.13010617 181.42908016 -42.76080917 180.10844487 -43.39208984 178.78808594 C-44.66681925 176.11944559 -45.93806477 173.44919283 -47.20605469 170.77734375 C-49.22823841 166.51666841 -51.26516387 162.26311086 -53.30322266 158.01000977 C-54.63181689 155.23576563 -55.95671214 152.45977649 -57.28125 149.68359375 C-59.18769519 145.69162572 -61.10604392 141.70560956 -63.03125 137.72265625 C-69.22305235 124.90096153 -75.23871736 112.02108072 -81 99 C-63.4453125 77.68359375 -63.4453125 77.68359375 -61.71801758 75.58618164 C-60.56679036 74.18825119 -59.41558616 72.79030178 -58.2644043 71.39233398 C-55.2848809 67.77413284 -52.30492256 64.1562913 -49.32421875 60.5390625 C-43.66829206 53.67460447 -38.01779347 46.80603979 -32.390625 39.91796875 C-29.94915078 36.93793404 -27.49929616 33.96495342 -25.0480957 30.99291992 C-19.61684397 24.40683585 -14.19962471 17.80974771 -8.8125 11.1875 C-8.00184082 10.19230347 -8.00184082 10.19230347 -7.17480469 9.17700195 C-4.7237341 6.15930704 -2.29905739 3.13651472 0 0 Z " fill="#1D1D1D" transform="translate(268,153)"/>
<path d="M0 0 C40.26 0 80.52 0 122 0 C115.2983871 8.93548387 115.2983871 8.93548387 111.5625 12.5 C108.25288116 15.73290582 105.16727947 19.04282256 102.16015625 22.5546875 C98.49900995 26.69913159 94.68525324 30.70347287 90.88598633 34.72119141 C90.29970459 35.34429199 89.71342285 35.96739258 89.109375 36.609375 C88.55032471 37.1981543 87.99127441 37.78693359 87.4152832 38.39355469 C85.86842972 40.04329858 85.86842972 40.04329858 84.58984375 42.4375 C83 44 83 44 79.20703125 44.390625 C77.741615 44.36782841 76.27660733 44.31598629 74.8125 44.25 C72.234375 44.1675 69.65625 44.085 67 44 C67 54.23 67 64.46 67 75 C63.04 75 59.08 75 55 75 C55 64.77 55 54.54 55 44 C51.5040625 44.495 51.5040625 44.495 47.9375 45 C43.75592947 45.25248523 40.40809177 44.95864551 36.8828125 42.55859375 C32.71936481 38.80191968 29.17940598 34.52563744 25.7043457 30.13671875 C20.40538643 23.493474 14.54937049 17.32414613 8.74609375 11.125 C5.63233906 7.58160918 2.83026346 3.77368461 0 0 Z " fill="#1E1E1E" transform="translate(318,308)"/>
<path d="M0 0 C4.67903255 1.47254469 7.85361435 4.22164543 11.4375 7.4375 C16.13067326 11.55601161 20.87597288 15.551311 25.8125 19.375 C31.3690276 23.70599967 36.89570416 28.07153584 42.375 32.5 C43.13143799 33.09989746 43.88787598 33.69979492 44.66723633 34.31787109 C45.36228271 34.88328613 46.0573291 35.44870117 46.7734375 36.03125 C47.39653809 36.53205078 48.01963867 37.03285156 48.66162109 37.54882812 C50 39 50 39 50 42 C43.92514747 48.36332319 35.21675186 52.15472808 26.5 52.4375 C15.46388833 51.95496197 8.09385801 47.9753962 0.3125 40.375 C-4.92369166 33.55370271 -7.85185453 25.25570538 -7.4296875 16.67578125 C-6.41562554 10.36094089 -3.96426398 4.98656701 0 0 Z " fill="#FBFBFB" transform="translate(270,178)"/>
<path d="M0 0 C2.33635032 1.26615114 2.91111515 2.39273457 4.00390625 4.796875 C4.32746094 5.48394531 4.65101563 6.17101562 4.984375 6.87890625 C8.10860662 14.7848257 8.13493144 24.47069284 5.19140625 32.421875 C0.89926413 41.57644385 -5.87969734 46.78864345 -14.99609375 50.796875 C-23.24832713 53.62298232 -32.31816297 52.48156654 -40.18359375 48.984375 C-44.68896346 46.29020919 -48.06673113 43.88491196 -50.18359375 38.984375 C-49.32378906 38.31792969 -48.46398437 37.65148437 -47.578125 36.96484375 C-40.8696339 31.74213227 -34.26946555 26.42689649 -27.80444336 20.90551758 C-23.82424228 17.51051494 -19.78086574 14.21299073 -15.66796875 10.98046875 C-13.83627063 9.50877419 -12.03883594 7.99419011 -10.26171875 6.45703125 C-9.2871875 5.62042969 -8.31265625 4.78382813 -7.30859375 3.921875 C-6.42429687 3.14714844 -5.54 2.37242187 -4.62890625 1.57421875 C-2.18359375 -0.015625 -2.18359375 -0.015625 0 0 Z " fill="#FBFBFB" transform="translate(487.18359375,178.015625)"/>
</svg>
