<?xml version="1.0" encoding="UTF-8"?>
<svg version="1.1" xmlns="http://www.w3.org/2000/svg" width="900" height="799">
<path d="M0 0 C5.22291149 0.74613021 9.26653131 3.42256325 13.5 6.5 C13.995 7.49 13.995 7.49 14.5 8.5 C15.325 8.83 16.15 9.16 17 9.5 C19.5 10.5 19.5 10.5 20.5 12.5 C22.16072849 13.18132451 23.827767 13.84742127 25.5 14.5 C26.49 15.49 26.49 15.49 27.5 16.5 C30.25322256 18.42506235 30.25322256 18.42506235 32.375 19.4375 C35.76429285 21.13214643 38.81126795 22.81126795 41.5 25.5 C42.345625 25.83 43.19125 26.16 44.0625 26.5 C46.5 27.5 46.5 27.5 47.5 29.5 C48.655 29.995 49.81 30.49 51 31 C54.5 32.5 54.5 32.5 55.5 34.5 C57.16072849 35.18132451 58.827767 35.84742127 60.5 36.5 C61.16 37.16 61.82 37.82 62.5 38.5 C63.49 39.16 64.48 39.82 65.5 40.5 C66.49 41.16 67.48 41.82 68.5 42.5 C69.49 42.83 70.48 43.16 71.5 43.5 C73.04319893 44.44352448 74.56246105 45.42676535 76.0625 46.4375 C76.84753906 46.96214844 77.63257813 47.48679688 78.44140625 48.02734375 C80.5 49.5 80.5 49.5 82.5 51.5 C83.675625 51.995 84.85125 52.49 86.0625 53 C89.5 54.5 89.5 54.5 90.5 56.5 C91.2425 56.78875 91.985 57.0775 92.75 57.375 C95.85467075 58.64509258 97.94427498 60.34781051 100.5 62.5 C101.49 63.16 102.48 63.82 103.5 64.5 C104.49 65.16 105.48 65.82 106.5 66.5 C105.5 69.5 105.5 69.5 104.4375 71.4375 C103.22413137 73.7293158 103.22413137 73.7293158 103.5 77.5 C102.84 77.5 102.18 77.5 101.5 77.5 C101.70625 78.0775 101.9125 78.655 102.125 79.25 C102.597549 82.08529401 101.85500506 83.01582406 100.5 85.5 C100.335 86.325 100.17 87.15 100 88 C99.37404979 91.12975105 98.07131571 93.50019751 96.5 96.25 C94.81553662 100.0400426 93.5 104.34046952 93.5 108.5 C92.84 108.5 92.18 108.5 91.5 108.5 C91.45101562 109.17546875 91.40203125 109.8509375 91.3515625 110.546875 C91.27679687 111.43890625 91.20203125 112.3309375 91.125 113.25 C91.05539062 114.13171875 90.98578125 115.0134375 90.9140625 115.921875 C90.49817825 118.51134296 89.73588138 120.21313288 88.5 122.5 C88.335 123.36625 88.17 124.2325 88 125.125 C87.5 127.5 87.5 127.5 85.5 129.5 C85.15458149 131.83157492 84.82205743 134.16508361 84.5 136.5 C83.86525925 137.84882408 83.20151152 139.1846659 82.5 140.5 C82.12331656 142.15740715 81.77942455 143.82345271 81.5 145.5 C80.84 145.5 80.18 145.5 79.5 145.5 C79.70625 146.0775 79.9125 146.655 80.125 147.25 C80.59828535 150.08971208 79.94941679 151.05887699 78.5 153.5 C76.92492947 156.18688502 76.44438199 157.89627835 76 161.0625 C75.5 164.5 75.5 164.5 73.5 167.5 C72.93236147 169.1513121 72.41489346 170.82037486 71.9375 172.5 C71.16559177 175.18768048 70.38451299 177.84646102 69.5 180.5 C69.190625 181.69625 68.88125 182.8925 68.5625 184.125 C68.211875 185.23875 67.86125 186.3525 67.5 187.5 C66.84 187.83 66.18 188.16 65.5 188.5 C65.70625 189.0775 65.9125 189.655 66.125 190.25 C66.59828535 193.08971208 65.94941679 194.05887699 64.5 196.5 C62.90812375 199.21555361 62.44235984 200.91789115 62 204.125 C61.5 207.5 61.5 207.5 59.5 209.5 C59.14820803 211.8306218 58.81669821 214.16435067 58.5 216.5 C57.86096883 218.17745682 57.19658363 219.84561387 56.5 221.5 C56.335 222.345625 56.17 223.19125 56 224.0625 C55.49469316 226.52587085 54.61729788 228.26540424 53.5 230.5 C53.14386903 232.16194453 52.80791692 233.828451 52.5 235.5 C52.17 236.16 51.84 236.82 51.5 237.5 C51.17 238.49 50.84 239.48 50.5 240.5 C50.17 241.49 49.84 242.48 49.5 243.5 C49.4314505 245.39470816 49.41519628 247.2916834 49.4375 249.1875 C49.44652344 250.18136719 49.45554687 251.17523438 49.46484375 252.19921875 C49.48224609 253.33810547 49.48224609 253.33810547 49.5 254.5 C49.83 254.5 50.16 254.5 50.5 254.5 C50.47679687 255.10328125 50.45359375 255.7065625 50.4296875 256.328125 C50.41164063 257.12734375 50.39359375 257.9265625 50.375 258.75 C50.35179687 259.53890625 50.32859375 260.3278125 50.3046875 261.140625 C50.52051191 263.74778384 51.28647055 265.20827896 52.5 267.5 C52.85429907 268.99068052 53.1663652 270.49197408 53.4375 272 C54.17789045 275.56203592 55.04816425 277.74168479 57.5 280.5 C58.19580267 281.81836295 58.87224433 283.14791086 59.5 284.5 C60.16 284.5 60.82 284.5 61.5 284.5 C61.685625 285.20125 61.87125 285.9025 62.0625 286.625 C64.02554458 290.55108917 66.86207403 293.07471602 70.5 295.5 C71.83236812 295.83717071 73.1657895 296.17019516 74.5 296.5 C76.16810793 297.49759396 77.83465463 298.49780114 79.5 299.5 C81.3997137 300.25261882 83.31731466 300.96161882 85.25 301.625 C90.40204082 303.40204082 90.40204082 303.40204082 91.5 304.5 C92.325 304.5 93.15 304.5 94 304.5 C94.825 304.5 95.65 304.5 96.5 304.5 C96.83 304.83 97.16 305.16 97.5 305.5 C100.6728935 305.59808162 103.82403901 305.62990152 106.99732971 305.62025452 C108.00682157 305.62110894 109.01631343 305.62196337 110.05639595 305.62284368 C113.46673273 305.62450153 116.8770212 305.61897215 120.28735352 305.61352539 C122.7209676 305.61324356 125.15458177 305.61340117 127.5881958 305.6139679 C132.84184462 305.61419622 138.09547816 305.61134484 143.349123 305.60573006 C150.94509291 305.5976172 158.54105682 305.59500006 166.13703059 305.59374207 C178.45976533 305.59155121 190.78249346 305.58489021 203.10522461 305.57543945 C215.07853156 305.56626621 227.05183673 305.55918495 239.02514648 305.55493164 C239.76267167 305.55466892 240.50019685 305.55440619 241.26007129 305.55413551 C244.95986624 305.55283051 248.65966121 305.55156679 252.35945618 305.55032361 C283.07297559 305.53994994 313.78648679 305.52225659 344.5 305.5 C344.55238867 309.76998844 344.55047588 313.18928211 343 317.1875 C341.77598985 320.37785979 341.5 321.9216638 341.5 325.5 C340.84 325.5 340.18 325.5 339.5 325.5 C339.70625 326.0775 339.9125 326.655 340.125 327.25 C340.60169309 330.11015855 339.89870728 330.99705013 338.5 333.5 C337.46117641 336.37204168 336.5716867 339.12364481 336 342.125 C335.48625595 344.56528422 334.63712891 346.29263212 333.5 348.5 C333.17 349.49 332.84 350.48 332.5 351.5 C331.5 354.5 331.5 354.5 330.5078125 356.359375 C329.3527028 358.81286381 328.86564971 361.08647302 328.375 363.75 C328.20742188 364.64203125 328.03984375 365.5340625 327.8671875 366.453125 C327.74601562 367.12859375 327.62484375 367.8040625 327.5 368.5 C326.84 368.5 326.18 368.5 325.5 368.5 C325.83 369.82 326.16 371.14 326.5 372.5 C325.84 372.83 325.18 373.16 324.5 373.5 C324.561875 374.61375 324.561875 374.61375 324.625 375.75 C324.49255254 378.66384418 323.94374398 380.01355204 322.5 382.5 C320.6552417 385.72832703 319.85078551 388.89640912 319.0625 392.5 C318.5 394.5 318.5 394.5 317.5 396.45703125 C316.0658674 399.38691934 315.64721073 402.38441291 315.0625 405.57421875 C314.876875 406.20972656 314.69125 406.84523438 314.5 407.5 C313.84 407.83 313.18 408.16 312.5 408.5 C312.70625 409.0775 312.9125 409.655 313.125 410.25 C313.59828535 413.08971208 312.94941679 414.05887699 311.5 416.5 C311.149375 417.221875 310.79875 417.94375 310.4375 418.6875 C309.5 420.5 309.5 420.5 308.5 421.5 C306.88944614 421.60841875 305.27414747 421.64686577 303.6599884 421.65821838 C302.60418642 421.66800752 301.54838444 421.67779665 300.46058846 421.68788242 C299.28483694 421.69363757 298.10908543 421.69939272 296.89770508 421.70532227 C295.03789662 421.72016741 295.03789662 421.72016741 293.14051628 421.73531246 C289.67154765 421.76176821 286.20260654 421.78360967 282.73359656 421.80331039 C279.74327981 421.82099766 276.75299113 421.84212253 273.7626968 421.86322176 C265.55572898 421.92102588 257.34872889 421.9710807 249.14169031 422.01765215 C243.06504938 422.05214833 236.98842542 422.08888097 230.9118042 422.12667847 C140.77539445 422.68302403 50.63765797 422.5996781 -39.5 422.5 C-39.7990625 421.89414062 -40.098125 421.28828125 -40.40625 420.6640625 C-42.12255213 417.26823615 -43.79956574 414.20043426 -46.5 411.5 C-47.5 409.83333333 -48.5 408.16666667 -49.5 406.5 C-50.16 405.84 -50.82 405.18 -51.5 404.5 C-52.5 402.83333333 -53.5 401.16666667 -54.5 399.5 C-55.16 398.84 -55.82 398.18 -56.5 397.5 C-57.5 395.83333333 -58.5 394.16666667 -59.5 392.5 C-60.16 391.84 -60.82 391.18 -61.5 390.5 C-64.6068806 386.57324813 -67.15014553 382.31105865 -69.78125 378.05859375 C-71.2349738 375.89452764 -72.63465088 374.28608499 -74.5 372.5 C-75.51187895 370.84051852 -76.5126546 369.17419438 -77.5 367.5 C-78.16 366.84 -78.82 366.18 -79.5 365.5 C-80.5 363.83333333 -81.5 362.16666667 -82.5 360.5 C-83.16 359.84 -83.82 359.18 -84.5 358.5 C-86.26334986 355.80285649 -87.95169795 353.0636683 -89.6484375 350.32421875 C-91.98568007 346.7591842 -94.48499209 343.51500791 -97.5 340.5 C-99.02339477 338.59575654 -100.34196306 336.83865059 -101.375 334.625 C-102.4861005 332.23479005 -102.4861005 332.23479005 -105.1875 330.0625 C-108.01883947 326.82311455 -107.7183037 324.05429513 -107.4375 319.875 C-107.02830977 315.93022229 -106.43802847 312.9537628 -104.5 309.5 C-104.17 308.51 -103.84 307.52 -103.5 306.5 C-103.17 305.571875 -102.84 304.64375 -102.5 303.6875 C-101.41596826 300.51780839 -101.41596826 300.51780839 -101 297.1875 C-100.835 296.300625 -100.67 295.41375 -100.5 294.5 C-99.84 294.17 -99.18 293.84 -98.5 293.5 C-98.09270772 291.17843403 -97.75561323 288.8431213 -97.5 286.5 C-96.84 286.5 -96.18 286.5 -95.5 286.5 C-95.70625 285.9225 -95.9125 285.345 -96.125 284.75 C-96.59586385 281.92481692 -95.88065256 280.95449344 -94.5 278.5 C-94.13215869 277.1757713 -93.78797019 275.84386088 -93.5 274.5 C-92.84 274.5 -92.18 274.5 -91.5 274.5 C-91.70625 273.901875 -91.9125 273.30375 -92.125 272.6875 C-92.5 270.5 -92.5 270.5 -90.5 267.5 C-89.47410477 264.24127396 -88.59809299 261.05177307 -88 257.6875 C-87.5 255.5 -87.5 255.5 -85.5 253.5 C-84.89128071 250.94221162 -84.89128071 250.94221162 -84.5 248.0625 C-83.95175624 244.38632977 -83.60046809 242.65070214 -81.5 239.5 C-81.15977214 237.50116131 -80.82670903 235.50109278 -80.5 233.5 C-79.61433777 231.49249895 -78.58735971 229.65287948 -77.5 227.75 C-76.2861691 225.01888048 -75.68297284 222.28231697 -75.00390625 219.37890625 C-74.5 217.5 -74.5 217.5 -73.4375 215.4375 C-72.05736156 212.5852139 -71.93838762 209.62351179 -71.5 206.5 C-70.86096883 204.82254318 -70.19658363 203.15438613 -69.5 201.5 C-69.335 200.654375 -69.17 199.80875 -69 198.9375 C-68.49469316 196.47412915 -67.61729788 194.73459576 -66.5 192.5 C-66.335 191.675 -66.17 190.85 -66 190 C-65.50083073 187.50415364 -64.68995612 185.73116772 -63.5 183.5 C-62.46258968 180.6271951 -62.46258968 180.6271951 -62.0625 178.0625 C-61.37087872 174.91178082 -60.10191416 172.49138803 -58.4375 169.75 C-57.49210862 167.48106068 -57.24684287 165.74195349 -57 163.3125 C-56.835 162.054375 -56.67 160.79625 -56.5 159.5 C-55.84 159.17 -55.18 158.84 -54.5 158.5 C-54.23788429 156.50136768 -53.98110322 154.50151587 -53.77734375 152.49609375 C-53.45207925 150.15510557 -52.72275912 148.5139562 -51.5 146.5 C-49.63297121 143.23269961 -48.85346527 140.01127278 -48.00390625 136.37890625 C-47.5 134.5 -47.5 134.5 -46.4375 132.4375 C-45.05188509 129.57389585 -44.89909218 126.63572427 -44.5 123.5 C-44.005 122.015 -44.005 122.015 -43.5 120.5 C-42.84 120.5 -42.18 120.5 -41.5 120.5 C-41.17 117.53 -40.84 114.56 -40.5 111.5 C-39.84 111.5 -39.18 111.5 -38.5 111.5 C-38.809375 110.63375 -38.809375 110.63375 -39.125 109.75 C-39.597549 106.91470599 -38.85500506 105.98417594 -37.5 103.5 C-37.335 102.675 -37.17 101.85 -37 101 C-36.4995453 98.49772652 -35.63273008 96.76546016 -34.5 94.5 C-34.335 93.63375 -34.17 92.7675 -34 91.875 C-33.5 89.5 -33.5 89.5 -31.5 87.5 C-31.09952556 85.17724823 -30.7602896 82.84260643 -30.5 80.5 C-29.84 80.5 -29.18 80.5 -28.5 80.5 C-28.809375 79.63375 -28.809375 79.63375 -29.125 78.75 C-29.597549 75.91470599 -28.85500506 74.98417594 -27.5 72.5 C-27.335 71.675 -27.17 70.85 -27 70 C-26.37404979 66.87024895 -25.07131571 64.49980249 -23.5 61.75 C-22.28567743 59.01777422 -21.68320677 56.27862876 -21 53.375 C-20.43073718 51.24026442 -19.48643839 49.47287677 -18.5 47.5 C-17.933495 45.47794929 -17.43986952 43.44770265 -16.96484375 41.40234375 C-16.56000887 39.74558252 -16.0393282 38.11798459 -15.5 36.5 C-15.15657551 35.16923011 -14.82380126 33.83568021 -14.5 32.5 C-14.16666667 31.16666667 -13.83333333 29.83333333 -13.5 28.5 C-12.84 28.5 -12.18 28.5 -11.5 28.5 C-11.995 27.015 -11.995 27.015 -12.5 25.5 C-11.84 25.5 -11.18 25.5 -10.5 25.5 C-10.809375 24.63375 -10.809375 24.63375 -11.125 23.75 C-11.59407708 20.93553751 -10.90784762 19.92462646 -9.5 17.5 C-8.46258968 14.6271951 -8.46258968 14.6271951 -8.0625 12.0625 C-7.51435539 9.56539679 -6.69545331 7.74147495 -5.5 5.5 C-5.17 4.51 -4.84 3.52 -4.5 2.5 C-2.5 0.5 -2.5 0.5 0 0 Z " fill="#00C7B1" transform="translate(555.5,-0.5)"/>
<path d="M0 0 C0.46277344 0.95648438 0.92554688 1.91296875 1.40234375 2.8984375 C2.80369209 5.61890347 3.85997838 6.9530228 6 9 C6.68268138 10.32520503 7.3507041 11.65812182 8 13 C9.84188612 15.05270463 9.84188612 15.05270463 12 16 C12.34342449 17.33076989 12.67619874 18.66431979 13 20 C13.66 20.66 14.32 21.32 15 22 C15.495 22.86625 15.99 23.7325 16.5 24.625 C17.2425 25.800625 17.2425 25.800625 18 27 C18.66 27 19.32 27 20 27 C20.33 27.99 20.66 28.98 21 30 C21.99307821 31.33849671 22.99357052 32.67151309 24 34 C24.66666667 35.33333333 25.33333333 36.66666667 26 38 C27.84188612 40.05270463 27.84188612 40.05270463 30 41 C30.34342449 42.33076989 30.67619874 43.66431979 31 45 C31.66 45.66 32.32 46.32 33 47 C34 48.66666667 35 50.33333333 36 52 C36.66 52.66 37.32 53.32 38 54 C39 55.66666667 40 57.33333333 41 59 C42.84188612 61.05270463 42.84188612 61.05270463 45 62 C45.34342449 63.33076989 45.67619874 64.66431979 46 66 C46.66 66.66 47.32 67.32 48 68 C49 69.66666667 50 71.33333333 51 73 C51.66 73.66 52.32 74.32 53 75 C54.64973137 77.08009608 56.08770069 79.14870987 57.4375 81.4375 C59.50410829 84.8267376 61.97377259 87.8095762 64.5625 90.8125 C66.9692188 94.47489817 69.41172494 98.80413365 68.578125 103.25 C68.38734375 103.8275 68.1965625 104.405 68 105 C67.34 105 66.68 105 66 105 C66.20625 105.598125 66.4125 106.19625 66.625 106.8125 C67 109 67 109 65 112 C64.4552374 113.63156399 63.9587043 115.27968284 63.5 116.9375 C62.79847444 119.4652796 62.12600591 121.75077799 60.94140625 124.09375 C59.5364559 126.93862872 59.39786183 129.87394277 59 133 C58.67 133.99 58.34 134.98 58 136 C57.34 136 56.68 136 56 136 C56.20625 136.5775 56.4125 137.155 56.625 137.75 C57.09586385 140.57518308 56.38065256 141.54550656 55 144 C54.63215869 145.3242287 54.28797019 146.65613912 54 148 C53.34 148 52.68 148 52 148 C52.309375 148.8971875 52.309375 148.8971875 52.625 149.8125 C53 152 53 152 51 155 C49.88909852 158.46339873 49.03325385 161.77553651 48.5 165.375 C48.335 166.24125 48.17 167.1075 48 168 C47.34 168.33 46.68 168.66 46 169 C45.73754808 171.0011959 45.48064718 173.00365158 45.27734375 175.01171875 C44.95154498 177.34737473 44.15798644 178.95649452 43 181 C41.96117641 183.87204168 41.0716867 186.62364481 40.5 189.625 C39.84928151 192.71591281 38.5242499 195.10569135 36.9375 197.8125 C35.81395174 200.16763967 35.81395174 200.16763967 35.5 203.625 C35 207 35 207 33 209 C32.59952556 211.32275177 32.2602896 213.65739357 32 216 C31.34 216 30.68 216 30 216 C30.20625 216.5775 30.4125 217.155 30.625 217.75 C31.097549 220.58529401 30.35500506 221.51582406 29 224 C28.835 224.825 28.67 225.65 28.5 226.5 C27.9995453 229.00227348 27.13273008 230.73453984 26 233 C25.835 233.86625 25.67 234.7325 25.5 235.625 C25 238 25 238 23 240 C22.65458149 242.33157492 22.32205743 244.66508361 22 247 C21.12074029 249.05160599 20.09360749 250.84582296 18.9375 252.75 C18.00649489 254.98441226 17.74903339 256.6726533 17.5 259.0625 C17 263 17 263 15 266 C14.65977214 267.99883869 14.32670903 269.99890722 14 272 C13.11433777 274.00750105 12.08735971 275.84712052 11 277.75 C9.7861691 280.48111952 9.18297284 283.21768303 8.50390625 286.12109375 C8 288 8 288 6.9375 290.0625 C5.55188509 292.92610415 5.39909218 295.86427573 5 299 C4.67 299.99 4.34 300.98 4 302 C3.34 302 2.68 302 2 302 C2.33 303.32 2.66 304.64 3 306 C2.34 306.33 1.68 306.66 1 307 C1 308.32 1 309.64 1 311 C0.34 311 -0.32 311 -1 311 C-0.79375 311.5775 -0.5875 312.155 -0.375 312.75 C0.09913849 315.59483096 -0.66916358 316.48619786 -2 319 C-2.165 320.051875 -2.33 321.10375 -2.5 322.1875 C-2.665 323.115625 -2.83 324.04375 -3 325 C-3.66 325.33 -4.32 325.66 -5 326 C-5.33926947 328.33247761 -5.67240066 330.66585471 -6 333 C-6.66 333.66 -7.32 334.32 -8 335 C-8.40047444 337.32275177 -8.7397104 339.65739357 -9 342 C-9.66 342 -10.32 342 -11 342 C-10.79375 342.598125 -10.5875 343.19625 -10.375 343.8125 C-10 346 -10 346 -12 349 C-12.34022786 350.99883869 -12.67329097 352.99890722 -13 355 C-13.88566223 357.00750105 -14.91264029 358.84712052 -16 360.75 C-17.21432257 363.48222578 -17.81679323 366.22137124 -18.5 369.125 C-19.06926282 371.25973558 -20.01356161 373.02712323 -21 375 C-21.566505 377.02205071 -22.06013048 379.05229735 -22.53515625 381.09765625 C-22.93999113 382.75441748 -23.4606718 384.38201541 -24 386 C-24.34342449 387.33076989 -24.67619874 388.66431979 -25 390 C-25.33333333 391.33333333 -25.66666667 392.66666667 -26 394 C-26.66 394 -27.32 394 -28 394 C-27.67 394.99 -27.34 395.98 -27 397 C-27.66 397 -28.32 397 -29 397 C-28.79375 397.598125 -28.5875 398.19625 -28.375 398.8125 C-28 401 -28 401 -30 404 C-30.67784992 406.33010909 -31.34416793 408.66359824 -32 411 C-32.63270867 412.34977849 -33.30062468 413.68352881 -34 415 C-35.02518322 417.32307527 -36.01056843 419.66134357 -37 422 C-42.56451613 422.37096774 -42.56451613 422.37096774 -44.6875 420.5625 C-45.120625 420.046875 -45.55375 419.53125 -46 419 C-46.99 418.67 -47.98 418.34 -49 418 C-50.66666667 416.66666667 -52.33333333 415.33333333 -54 414 C-54.99 413.67 -55.98 413.34 -57 413 C-57.66 412.34 -58.32 411.68 -59 411 C-60.32338632 410.31379969 -61.65949948 409.65213539 -63 409 C-69.80597015 405.3880597 -69.80597015 405.3880597 -71 403 C-71.99 402.67 -72.98 402.34 -74 402 C-74.66 401.34 -75.32 400.68 -76 400 C-76.845625 399.67 -77.69125 399.34 -78.5625 399 C-81 398 -81 398 -82 396 C-83.32510482 395.33744759 -84.65855152 394.69130398 -86 394.0625 C-88 393 -88 393 -90 391 C-90.66 390.67 -91.32 390.34 -92 390 C-93.33333333 389.33333333 -94.66666667 388.66666667 -96 388 C-97.5778125 387.2575 -97.5778125 387.2575 -99.1875 386.5 C-102 385 -102 385 -103 383 C-103.825 382.67 -104.65 382.34 -105.5 382 C-108 381 -108 381 -109 379 C-109.99 378.67 -110.98 378.34 -112 378 C-112.66 377.34 -113.32 376.68 -114 376 C-115.22502834 375.38748583 -116.4534671 374.78166399 -117.6875 374.1875 C-126.72727273 369.54545455 -126.72727273 369.54545455 -128 367 C-129.650065 366.29324139 -131.32041049 365.63340452 -133 365 C-136.57701868 363.29086238 -139.90208103 361.48746348 -143 359 C-144.6656527 354.17837375 -143.9122463 349.96667427 -143 345 C-142.34 345 -141.68 345 -141 345 C-141.20625 344.4225 -141.4125 343.845 -141.625 343.25 C-142.10169309 340.38984145 -141.39870728 339.50294987 -140 337 C-138.96117641 334.12795832 -138.0716867 331.37635519 -137.5 328.375 C-136.98625595 325.93471578 -136.13712891 324.20736788 -135 322 C-133.8396418 318.86020722 -133.00040912 316.00271043 -132.5 312.6875 C-132.335 311.800625 -132.17 310.91375 -132 310 C-131.34 309.67 -130.68 309.34 -130 309 C-130.0309375 307.824375 -130.0309375 307.824375 -130.0625 306.625 C-130 304 -130 304 -129 302 C-128.34 302 -127.68 302 -127 302 C-127.20625 301.4225 -127.4125 300.845 -127.625 300.25 C-128.09407708 297.43553751 -127.40784762 296.42462646 -126 294 C-124.95169017 291.10849914 -124.95169017 291.10849914 -124.5625 288.4375 C-124 286 -124 286 -122 284 C-121.38712303 281.68043092 -120.9855801 279.35703182 -120.5625 276.99609375 C-120.376875 276.33738281 -120.19125 275.67867187 -120 275 C-119.34 274.67 -118.68 274.34 -118 274 C-118.20625 273.4225 -118.4125 272.845 -118.625 272.25 C-119.10169309 269.38984145 -118.39870728 268.50294987 -117 266 C-115.94372335 263.07970574 -115.05579076 260.30684918 -114.5 257.25 C-114 255 -114 255 -112 253 C-111.36146707 251.13436115 -111.36146707 251.13436115 -110.9375 249.0625 C-110.22021918 245.89105175 -109.51509765 242.93929571 -107.9375 240.0625 C-106.72413137 237.7706842 -106.72413137 237.7706842 -107 234 C-106.34 234 -105.68 234 -105 234 C-105.20625 233.4225 -105.4125 232.845 -105.625 232.25 C-106.10169309 229.38984145 -105.39870728 228.50294987 -104 226 C-102.94372335 223.07970574 -102.05579076 220.30684918 -101.5 217.25 C-101 215 -101 215 -99 213 C-97.93390354 209.23730661 -97.0942394 205.61255611 -96.5 201.75 C-96.01969071 199.10829888 -95.42504405 197.26330526 -94 195 C-93.34 194.67 -92.68 194.34 -92 194 C-92.33 193.01 -92.66 192.02 -93 191 C-92.39351421 189.31050386 -91.72159424 187.64363134 -91 186 C-90.65772583 184.66893378 -90.32248257 183.33599921 -90 182 C-89.67 181.34 -89.34 180.68 -89 180 C-88.7632285 176.83880202 -88.81481999 173.66910262 -88.8125 170.5 C-88.80025391 169.61957031 -88.78800781 168.73914063 -88.77539062 167.83203125 C-88.77345703 166.99027344 -88.77152344 166.14851562 -88.76953125 165.28125 C-88.76542236 164.50845703 -88.76131348 163.73566406 -88.75708008 162.93945312 C-88.82823384 160.76260287 -88.82823384 160.76260287 -91 159 C-90.625 156.375 -90.625 156.375 -90 154 C-90.66 154 -91.32 154 -92 154 C-92.226875 152.845 -92.45375 151.69 -92.6875 150.5 C-94.07419674 144.89335561 -96.92090243 140.07909757 -101 136 C-102.5306809 134.16151914 -104.04967929 132.31414287 -105.5625 130.4609375 C-106.036875 129.97882813 -106.51125 129.49671875 -107 129 C-107.66 129 -108.32 129 -109 129 C-109.66 128.34 -110.32 127.68 -111 127 C-111.845625 126.67 -112.69125 126.34 -113.5625 126 C-116 125 -116 125 -117 123 C-120.04034769 122.02479414 -123.07549248 121.211316 -126.1875 120.5 C-128.28801117 119.92054864 -130.05381312 118.97309344 -132 118 C-134.85174505 117.14577155 -137.39426731 116.87545165 -140.36529922 116.87695217 C-141.23714552 116.87496112 -142.10899182 116.87297007 -143.0072577 116.87091869 C-143.96056151 116.87383153 -144.91386532 116.87674437 -145.89605713 116.87974548 C-146.91219581 116.87889106 -147.9283345 116.87803663 -148.97526526 116.87715632 C-152.39010347 116.87550537 -155.80489286 116.88101664 -159.21972656 116.88647461 C-161.66363524 116.88675659 -164.10754401 116.88659853 -166.55145264 116.8860321 C-171.81814454 116.88580417 -177.08482117 116.88864598 -182.35150909 116.89426994 C-189.9662601 116.90239597 -197.58100511 116.9050013 -205.19575998 116.90625793 C-217.5501064 116.90844672 -229.90444622 116.91510211 -242.25878906 116.92456055 C-254.26009081 116.93373915 -266.26139076 116.94081779 -278.26269531 116.94506836 C-279.00241932 116.94533108 -279.74214333 116.94559381 -280.50428322 116.94586449 C-284.21525034 116.94716953 -287.92621748 116.94843323 -291.63718462 116.94967639 C-322.42479455 116.9600436 -353.21239627 116.97773153 -384 117 C-384.05391993 115.20866022 -384.09275571 113.41686101 -384.125 111.625 C-384.14820313 110.62726563 -384.17140625 109.62953125 -384.1953125 108.6015625 C-384 106 -384 106 -382 104 C-381.65458149 101.66842508 -381.32205743 99.33491639 -381 97 C-380.0625 94.8125 -380.0625 94.8125 -379 93 C-377.21289844 89.82293056 -377 88.88871684 -377 85 C-376.34 85 -375.68 85 -375 85 C-375.20625 84.4225 -375.4125 83.845 -375.625 83.25 C-376.097549 80.41470599 -375.35500506 79.48417594 -374 77 C-373.835 76.175 -373.67 75.35 -373.5 74.5 C-373 72 -373 72 -372 70.0625 C-370.82459687 67.89353668 -370.82459687 67.89353668 -370.5 64.8125 C-370.335 63.884375 -370.17 62.95625 -370 62 C-369.01 61.505 -369.01 61.505 -368 61 C-366.85593824 58.37231213 -366.85593824 58.37231213 -365.875 55.25 C-365.52179688 54.20328125 -365.16859375 53.1565625 -364.8046875 52.078125 C-364.05340131 49.20427297 -363.92283786 46.94244968 -364 44 C-363.36729133 42.65022151 -362.69937532 41.31647119 -362 40 C-361.835 39.175 -361.67 38.35 -361.5 37.5 C-360.9995453 34.99772652 -360.13273008 33.26546016 -359 31 C-358.7525 29.7315625 -358.7525 29.7315625 -358.5 28.4375 C-358 26 -358 26 -356 23 C-355.43236147 21.3486879 -354.91489346 19.67962514 -354.4375 18 C-353.66559177 15.31231952 -352.88451299 12.65353898 -352 10 C-351.46910995 7.94280106 -350.97923587 5.89617937 -350.5625 3.8125 C-350.2840625 2.9153125 -350.2840625 2.9153125 -350 2 C-347.48882687 0.74441343 -345.76224799 0.86121029 -342.9503479 0.84178162 C-341.87344696 0.83199248 -340.79654602 0.82220335 -339.68701172 0.81211758 C-338.49301758 0.80636243 -337.29902344 0.80060728 -336.06884766 0.79467773 C-334.17481705 0.77983259 -334.17481705 0.77983259 -332.24252319 0.76468754 C-328.71593946 0.73734145 -325.18934236 0.71641103 -321.66270876 0.69668961 C-318.62425469 0.678994 -315.58582813 0.65787457 -312.54739606 0.63677824 C-304.21873519 0.57904647 -295.89004286 0.52896812 -287.56131303 0.48234785 C-281.4004011 0.44784553 -275.23950581 0.41111802 -269.07861328 0.37332153 C-179.38650038 -0.17280916 -89.69332716 -0.10065399 0 0 Z M-373 74 C-372 76 -372 76 -372 76 Z " fill="#00C7B0" transform="translate(384,377)"/>
<path d="M0 0 C0.33 0 0.66 0 1 0 C1 1.98 1 3.96 1 6 C0.67 6 0.34 6 0 6 C0 4.02 0 2.04 0 0 Z " fill="#00D2D2" transform="translate(294,551)"/>
<path d="M0 0 C0.33 0 0.66 0 1 0 C1 1.98 1 3.96 1 6 C0.67 6 0.34 6 0 6 C0 4.02 0 2.04 0 0 Z " fill="#00DED6" transform="translate(294,538)"/>
<path d="M0 0 C0.33 0 0.66 0 1 0 C1 1.98 1 3.96 1 6 C0.67 6 0.34 6 0 6 C0 4.02 0 2.04 0 0 Z " fill="#00C3AF" transform="translate(605,243)"/>
<path d="" fill="#00DFDF" transform="translate(0,0)"/>
<path d="" fill="#008C82" transform="translate(0,0)"/>
<path d="" fill="#00E2E2" transform="translate(0,0)"/>
<path d="" fill="#00FFD1" transform="translate(0,0)"/>
<path d="" fill="#00B259" transform="translate(0,0)"/>
<path d="" fill="#00E0E0" transform="translate(0,0)"/>
<path d="" fill="#00D6C5" transform="translate(0,0)"/>
<path d="" fill="#00D9D5" transform="translate(0,0)"/>
<path d="" fill="#00D762" transform="translate(0,0)"/>
<path d="" fill="#00A277" transform="translate(0,0)"/>
<path d="" fill="#00F9D8" transform="translate(0,0)"/>
<path d="" fill="#00C8B3" transform="translate(0,0)"/>
<path d="" fill="#007A7F" transform="translate(0,0)"/>
<path d="" fill="#00F8C3" transform="translate(0,0)"/>
<path d="" fill="#00FFD6" transform="translate(0,0)"/>
<path d="" fill="#00FAFD" transform="translate(0,0)"/>
<path d="" fill="#00B279" transform="translate(0,0)"/>
<path d="" fill="#00E6D4" transform="translate(0,0)"/>
<path d="" fill="#00F9F3" transform="translate(0,0)"/>
<path d="" fill="#007777" transform="translate(0,0)"/>
<path d="" fill="#00E7E7" transform="translate(0,0)"/>
<path d="" fill="#00D1B9" transform="translate(0,0)"/>
<path d="" fill="#0070A5" transform="translate(0,0)"/>
<path d="" fill="#008D85" transform="translate(0,0)"/>
<path d="" fill="#00E0CF" transform="translate(0,0)"/>
<path d="" fill="#00F4CD" transform="translate(0,0)"/>
<path d="" fill="#009C60" transform="translate(0,0)"/>
<path d="" fill="#00E1E1" transform="translate(0,0)"/>
<path d="" fill="#009A9B" transform="translate(0,0)"/>
<path d="" fill="#00D08E" transform="translate(0,0)"/>
<path d="" fill="#008784" transform="translate(0,0)"/>
<path d="" fill="#00C6C4" transform="translate(0,0)"/>
<path d="" fill="#00DCCA" transform="translate(0,0)"/>
<path d="" fill="#00EB6A" transform="translate(0,0)"/>
<path d="" fill="#00C2A4" transform="translate(0,0)"/>
<path d="" fill="#005866" transform="translate(0,0)"/>
<path d="" fill="#00DBDD" transform="translate(0,0)"/>
<path d="" fill="#00FFE4" transform="translate(0,0)"/>
<path d="" fill="#00BEBD" transform="translate(0,0)"/>
<path d="" fill="#009E9E" transform="translate(0,0)"/>
<path d="" fill="#00BEB3" transform="translate(0,0)"/>
<path d="" fill="#006053" transform="translate(0,0)"/>
<path d="" fill="#00D2D2" transform="translate(0,0)"/>
<path d="" fill="#007691" transform="translate(0,0)"/>
<path d="" fill="#00D5AF" transform="translate(0,0)"/>
<path d="" fill="#00B5B9" transform="translate(0,0)"/>
<path d="" fill="#0099C6" transform="translate(0,0)"/>
<path d="" fill="#00E7E7" transform="translate(0,0)"/>
<path d="" fill="#00645F" transform="translate(0,0)"/>
<path d="" fill="#00F4CB" transform="translate(0,0)"/>
<path d="" fill="#00BF72" transform="translate(0,0)"/>
<path d="" fill="#009AA2" transform="translate(0,0)"/>
<path d="" fill="#00B076" transform="translate(0,0)"/>
<path d="" fill="#00B356" transform="translate(0,0)"/>
<path d="" fill="#00B2B3" transform="translate(0,0)"/>
<path d="" fill="#00A699" transform="translate(0,0)"/>
<path d="" fill="#00968D" transform="translate(0,0)"/>
<path d="" fill="#00E8C6" transform="translate(0,0)"/>
<path d="" fill="#00A19B" transform="translate(0,0)"/>
<path d="" fill="#007651" transform="translate(0,0)"/>
<path d="" fill="#00C5C4" transform="translate(0,0)"/>
<path d="" fill="#00E3C3" transform="translate(0,0)"/>
<path d="" fill="#00E6D3" transform="translate(0,0)"/>
<path d="" fill="#00594C" transform="translate(0,0)"/>
<path d="" fill="#00AF58" transform="translate(0,0)"/>
<path d="" fill="#00D5D6" transform="translate(0,0)"/>
<path d="" fill="#00E0E4" transform="translate(0,0)"/>
<path d="" fill="#007290" transform="translate(0,0)"/>
<path d="" fill="#00AA73" transform="translate(0,0)"/>
<path d="" fill="#0058A5" transform="translate(0,0)"/>
<path d="" fill="#009FA0" transform="translate(0,0)"/>
<path d="" fill="#00EFD6" transform="translate(0,0)"/>
<path d="" fill="#00585C" transform="translate(0,0)"/>
<path d="" fill="#00BBBB" transform="translate(0,0)"/>
<path d="" fill="#00FF65" transform="translate(0,0)"/>
<path d="" fill="#00CB9A" transform="translate(0,0)"/>
<path d="" fill="#00FFAB" transform="translate(0,0)"/>
<path d="" fill="#004093" transform="translate(0,0)"/>
<path d="" fill="#00FF00" transform="translate(0,0)"/>
<path d="" fill="#008F8F" transform="translate(0,0)"/>
<path d="" fill="#00FFFF" transform="translate(0,0)"/>
<path d="" fill="#005A67" transform="translate(0,0)"/>
<path d="" fill="#00FFD1" transform="translate(0,0)"/>
<path d="" fill="#0099A5" transform="translate(0,0)"/>
<path d="" fill="#00D889" transform="translate(0,0)"/>
<path d="" fill="#00FFFF" transform="translate(0,0)"/>
<path d="" fill="#00FFFF" transform="translate(0,0)"/>
<path d="" fill="#00FFED" transform="translate(0,0)"/>
<path d="" fill="#00FFFF" transform="translate(0,0)"/>
<path d="" fill="#00E4F3" transform="translate(0,0)"/>
<path d="" fill="#00C2C2" transform="translate(0,0)"/>
<path d="" fill="#00FFFF" transform="translate(0,0)"/>
<path d="" fill="#00FFCD" transform="translate(0,0)"/>
<path d="" fill="#00ADAD" transform="translate(0,0)"/>
<path d="" fill="#00FBFB" transform="translate(0,0)"/>
<path d="" fill="#00CF80" transform="translate(0,0)"/>
<path d="" fill="#000014" transform="translate(0,0)"/>
<path d="" fill="#000B0D" transform="translate(0,0)"/>
<path d="" fill="#00FFFF" transform="translate(0,0)"/>
<path d="" fill="#00906B" transform="translate(0,0)"/>
<path d="" fill="#00354B" transform="translate(0,0)"/>
<path d="" fill="#00A39F" transform="translate(0,0)"/>
<path d="" fill="#00FFDC" transform="translate(0,0)"/>
<path d="" fill="#00D8AA" transform="translate(0,0)"/>
<path d="" fill="#00B2B2" transform="translate(0,0)"/>
<path d="" fill="#00FFC5" transform="translate(0,0)"/>
<path d="" fill="#00FFCA" transform="translate(0,0)"/>
<path d="" fill="#00FFFF" transform="translate(0,0)"/>
<path d="" fill="#00FFFF" transform="translate(0,0)"/>
<path d="" fill="#000912" transform="translate(0,0)"/>
<path d="" fill="#008DA2" transform="translate(0,0)"/>
<path d="" fill="#000000" transform="translate(0,0)"/>
<path d="" fill="#00FFFF" transform="translate(0,0)"/>
<path d="" fill="#00FF2D" transform="translate(0,0)"/>
<path d="" fill="#007D8D" transform="translate(0,0)"/>
<path d="" fill="#00FFFF" transform="translate(0,0)"/>
<path d="" fill="#00B0B0" transform="translate(0,0)"/>
<path d="" fill="#00FFFF" transform="translate(0,0)"/>
<path d="" fill="#005CA9" transform="translate(0,0)"/>
<path d="" fill="#00FCFC" transform="translate(0,0)"/>
<path d="" fill="#00A2A2" transform="translate(0,0)"/>
<path d="" fill="#00CDD4" transform="translate(0,0)"/>
<path d="" fill="#00B9C7" transform="translate(0,0)"/>
<path d="" fill="#00EF80" transform="translate(0,0)"/>
<path d="" fill="#008C9F" transform="translate(0,0)"/>
<path d="" fill="#00BAC1" transform="translate(0,0)"/>
<path d="" fill="#00BBC3" transform="translate(0,0)"/>
<path d="" fill="#00B5CB" transform="translate(0,0)"/>
<path d="" fill="#00B9CD" transform="translate(0,0)"/>
<path d="" fill="#007076" transform="translate(0,0)"/>
<path d="" fill="#00FFC7" transform="translate(0,0)"/>
<path d="" fill="#00FFFF" transform="translate(0,0)"/>
<path d="" fill="#00F4F4" transform="translate(0,0)"/>
<path d="" fill="#004E5F" transform="translate(0,0)"/>
<path d="" fill="#00D1E3" transform="translate(0,0)"/>
<path d="" fill="#00FF1A" transform="translate(0,0)"/>
<path d="" fill="#0095A9" transform="translate(0,0)"/>
<path d="" fill="#000000" transform="translate(0,0)"/>
<path d="" fill="#00E0E5" transform="translate(0,0)"/>
<path d="" fill="#008989" transform="translate(0,0)"/>
<path d="" fill="#00EC2A" transform="translate(0,0)"/>
<path d="" fill="#00F09E" transform="translate(0,0)"/>
<path d="" fill="#00303D" transform="translate(0,0)"/>
<path d="" fill="#00CED5" transform="translate(0,0)"/>
<path d="" fill="#008CA2" transform="translate(0,0)"/>
<path d="" fill="#00FFD5" transform="translate(0,0)"/>
<path d="" fill="#00FF77" transform="translate(0,0)"/>
<path d="" fill="#00E8F4" transform="translate(0,0)"/>
<path d="" fill="#00976B" transform="translate(0,0)"/>
<path d="" fill="#00F3FF" transform="translate(0,0)"/>
<path d="" fill="#00B36F" transform="translate(0,0)"/>
<path d="" fill="#00CFD4" transform="translate(0,0)"/>
<path d="" fill="#0075A3" transform="translate(0,0)"/>
<path d="" fill="#00D3D6" transform="translate(0,0)"/>
<path d="" fill="#009191" transform="translate(0,0)"/>
<path d="" fill="#00FFFF" transform="translate(0,0)"/>
<path d="" fill="#00415B" transform="translate(0,0)"/>
<path d="" fill="#009595" transform="translate(0,0)"/>
<path d="" fill="#00C7D2" transform="translate(0,0)"/>
<path d="" fill="#00BAB6" transform="translate(0,0)"/>
<path d="" fill="#00FFA4" transform="translate(0,0)"/>
<path d="" fill="#00FFD5" transform="translate(0,0)"/>
<path d="" fill="#00FFFF" transform="translate(0,0)"/>
<path d="" fill="#00FFE5" transform="translate(0,0)"/>
<path d="" fill="#00B5B6" transform="translate(0,0)"/>
<path d="" fill="#00E88E" transform="translate(0,0)"/>
<path d="" fill="#00A1E1" transform="translate(0,0)"/>
<path d="" fill="#00E0E1" transform="translate(0,0)"/>
<path d="" fill="#00A5B2" transform="translate(0,0)"/>
<path d="" fill="#007679" transform="translate(0,0)"/>
<path d="" fill="#00B194" transform="translate(0,0)"/>
<path d="" fill="#00FFFF" transform="translate(0,0)"/>
<path d="" fill="#00DCCB" transform="translate(0,0)"/>
<path d="" fill="#00CED7" transform="translate(0,0)"/>
<path d="" fill="#002B44" transform="translate(0,0)"/>
<path d="" fill="#00FFFF" transform="translate(0,0)"/>
<path d="" fill="#00FFFF" transform="translate(0,0)"/>
<path d="" fill="#00FF84" transform="translate(0,0)"/>
<path d="" fill="#006774" transform="translate(0,0)"/>
<path d="" fill="#00FFFF" transform="translate(0,0)"/>
<path d="" fill="#00A5F8" transform="translate(0,0)"/>
<path d="" fill="#00B0B0" transform="translate(0,0)"/>
<path d="" fill="#00DAA0" transform="translate(0,0)"/>
<path d="" fill="#00B5CD" transform="translate(0,0)"/>
<path d="" fill="#00FFFF" transform="translate(0,0)"/>
<path d="" fill="#00FFFF" transform="translate(0,0)"/>
<path d="" fill="#00B0B6" transform="translate(0,0)"/>
<path d="" fill="#002300" transform="translate(0,0)"/>
<path d="" fill="#00FFFF" transform="translate(0,0)"/>
<path d="" fill="#008BA0" transform="translate(0,0)"/>
<path d="" fill="#00797B" transform="translate(0,0)"/>
<path d="" fill="#00ABB1" transform="translate(0,0)"/>
<path d="" fill="#00FFFF" transform="translate(0,0)"/>
<path d="" fill="#00FFFF" transform="translate(0,0)"/>
<path d="" fill="#00A0A0" transform="translate(0,0)"/>
<path d="" fill="#00CB7F" transform="translate(0,0)"/>
<path d="" fill="#008289" transform="translate(0,0)"/>
<path d="" fill="#00FFCC" transform="translate(0,0)"/>
<path d="" fill="#00A9A9" transform="translate(0,0)"/>
<path d="" fill="#00F2F3" transform="translate(0,0)"/>
<path d="" fill="#00B3DC" transform="translate(0,0)"/>
<path d="" fill="#00FFE6" transform="translate(0,0)"/>
<path d="" fill="#00B0B0" transform="translate(0,0)"/>
<path d="" fill="#00A1A1" transform="translate(0,0)"/>
<path d="" fill="#007581" transform="translate(0,0)"/>
<path d="" fill="#00A460" transform="translate(0,0)"/>
<path d="" fill="#00BEC5" transform="translate(0,0)"/>
<path d="" fill="#00FFFF" transform="translate(0,0)"/>
<path d="" fill="#00BDC0" transform="translate(0,0)"/>
<path d="" fill="#00FFFF" transform="translate(0,0)"/>
<path d="" fill="#00FFFB" transform="translate(0,0)"/>
<path d="" fill="#009FB8" transform="translate(0,0)"/>
<path d="" fill="#00FFFF" transform="translate(0,0)"/>
<path d="" fill="#00B3CA" transform="translate(0,0)"/>
<path d="" fill="#00CCCC" transform="translate(0,0)"/>
<path d="" fill="#00FF66" transform="translate(0,0)"/>
<path d="" fill="#00BEBF" transform="translate(0,0)"/>
<path d="" fill="#005569" transform="translate(0,0)"/>
<path d="" fill="#00BEBE" transform="translate(0,0)"/>
<path d="" fill="#00C4AB" transform="translate(0,0)"/>
<path d="" fill="#00FFFF" transform="translate(0,0)"/>
<path d="" fill="#00D0DD" transform="translate(0,0)"/>
<path d="" fill="#00B1C9" transform="translate(0,0)"/>
<path d="" fill="#000000" transform="translate(0,0)"/>
<path d="" fill="#00FF77" transform="translate(0,0)"/>
<path d="" fill="#009A81" transform="translate(0,0)"/>
<path d="" fill="#00D3DB" transform="translate(0,0)"/>
<path d="" fill="#007C78" transform="translate(0,0)"/>
<path d="" fill="#00BDBD" transform="translate(0,0)"/>
<path d="" fill="#00FF6C" transform="translate(0,0)"/>
<path d="" fill="#00BFBF" transform="translate(0,0)"/>
<path d="" fill="#00D6C5" transform="translate(0,0)"/>
<path d="" fill="#00B6CB" transform="translate(0,0)"/>
<path d="" fill="#00FFFF" transform="translate(0,0)"/>
<path d="" fill="#009B86" transform="translate(0,0)"/>
<path d="" fill="#00BCB9" transform="translate(0,0)"/>
<path d="" fill="#00FFFA" transform="translate(0,0)"/>
<path d="" fill="#0082A0" transform="translate(0,0)"/>
<path d="" fill="#00CBCB" transform="translate(0,0)"/>
<path d="" fill="#00FFFF" transform="translate(0,0)"/>
<path d="" fill="#00D8E0" transform="translate(0,0)"/>
<path d="" fill="#005461" transform="translate(0,0)"/>
<path d="" fill="#0094A4" transform="translate(0,0)"/>
<path d="" fill="#00DDDD" transform="translate(0,0)"/>
<path d="" fill="#00ABB8" transform="translate(0,0)"/>
<path d="" fill="#0097A6" transform="translate(0,0)"/>
<path d="" fill="#00F5CC" transform="translate(0,0)"/>
<path d="" fill="#004D4D" transform="translate(0,0)"/>
<path d="" fill="#003825" transform="translate(0,0)"/>
<path d="" fill="#00FFFF" transform="translate(0,0)"/>
<path d="" fill="#009F9F" transform="translate(0,0)"/>
<path d="" fill="#00F8FF" transform="translate(0,0)"/>
<path d="" fill="#00FFFF" transform="translate(0,0)"/>
<path d="" fill="#00CCCC" transform="translate(0,0)"/>
<path d="" fill="#00FF40" transform="translate(0,0)"/>
<path d="" fill="#00FFFF" transform="translate(0,0)"/>
<path d="" fill="#00FFFF" transform="translate(0,0)"/>
<path d="" fill="#000000" transform="translate(0,0)"/>
<path d="" fill="#00DFB0" transform="translate(0,0)"/>
<path d="" fill="#00CDCD" transform="translate(0,0)"/>
<path d="" fill="#00FFFF" transform="translate(0,0)"/>
<path d="" fill="#00848F" transform="translate(0,0)"/>
<path d="" fill="#00FFF5" transform="translate(0,0)"/>
<path d="" fill="#00FFFF" transform="translate(0,0)"/>
<path d="" fill="#00CCCC" transform="translate(0,0)"/>
<path d="" fill="#000072" transform="translate(0,0)"/>
<path d="" fill="#00FF6B" transform="translate(0,0)"/>
<path d="" fill="#00C1D3" transform="translate(0,0)"/>
<path d="" fill="#00FFFF" transform="translate(0,0)"/>
<path d="" fill="#00FFFF" transform="translate(0,0)"/>
<path d="" fill="#00ACAC" transform="translate(0,0)"/>
<path d="" fill="#00FFCA" transform="translate(0,0)"/>
<path d="" fill="#00FFC7" transform="translate(0,0)"/>
<path d="" fill="#00D605" transform="translate(0,0)"/>
<path d="" fill="#00ADA9" transform="translate(0,0)"/>
<path d="" fill="#00FFFF" transform="translate(0,0)"/>
<path d="" fill="#00FF50" transform="translate(0,0)"/>
<path d="" fill="#00FFFF" transform="translate(0,0)"/>
<path d="" fill="#004D56" transform="translate(0,0)"/>
<path d="" fill="#00DFDF" transform="translate(0,0)"/>
<path d="" fill="#00F07E" transform="translate(0,0)"/>
<path d="" fill="#00ADA3" transform="translate(0,0)"/>
<path d="" fill="#009191" transform="translate(0,0)"/>
<path d="" fill="#00FFFF" transform="translate(0,0)"/>
<path d="" fill="#00EBFB" transform="translate(0,0)"/>
<path d="" fill="#00D0D0" transform="translate(0,0)"/>
<path d="" fill="#005D66" transform="translate(0,0)"/>
<path d="" fill="#00B0B0" transform="translate(0,0)"/>
<path d="" fill="#00FFFF" transform="translate(0,0)"/>
<path d="" fill="#00FFFF" transform="translate(0,0)"/>
<path d="" fill="#00FFFF" transform="translate(0,0)"/>
<path d="" fill="#00B3C2" transform="translate(0,0)"/>
<path d="" fill="#00D5D5" transform="translate(0,0)"/>
<path d="" fill="#00D0D0" transform="translate(0,0)"/>
<path d="" fill="#00FFFF" transform="translate(0,0)"/>
<path d="" fill="#000000" transform="translate(0,0)"/>
<path d="" fill="#00FFFF" transform="translate(0,0)"/>
</svg>
