<?xml version="1.0" encoding="UTF-8"?>
<svg version="1.1" xmlns="http://www.w3.org/2000/svg" width="900" height="823">
<path d="M0 0 C152.79 0 305.58 0 463 0 C459.62591154 12.37165768 459.62591154 12.37165768 458.06152344 17.1784668 C457.70922668 18.26569534 457.35692993 19.35292389 456.99395752 20.47309875 C456.61954529 21.62021835 456.24513306 22.76733795 455.859375 23.94921875 C455.24709557 25.83705975 454.63482128 27.72490242 454.0227623 29.6128149 C453.37641892 31.60532054 452.72897446 33.59746563 452.08129883 35.58953857 C449.82144813 42.54252338 447.57435188 49.49963536 445.328125 56.45703125 C445.10223694 57.15659943 444.87634888 57.8561676 444.64361572 58.57693481 C440.5311105 71.31732389 436.45850654 84.06994474 432.45129395 96.84390259 C431.82625556 98.8354555 431.1995958 100.82650041 430.57116699 102.81698608 C427.87031488 111.37813796 425.20053917 119.90031066 423.140625 128.640625 C420.55556552 139.32957666 416.96153465 149.703423 413.49407959 160.13223267 C411.56484426 165.93626565 409.65182062 171.74562568 407.73835373 177.55487251 C407.08507511 179.53777386 406.43117629 181.52047001 405.7772522 183.50315857 C401.74035204 195.75077455 397.79227619 208.02614815 393.875 220.3125 C393.55700439 221.30935822 393.23900879 222.30621643 392.91137695 223.33328247 C391.61941574 227.38350236 390.32768467 231.43379526 389.0368042 235.48435974 C386.4903507 243.4719859 383.93091738 251.45540357 381.3671875 259.4375 C380.98033783 260.64214401 380.59348816 261.84678802 380.19491577 263.0879364 C378.68057095 267.80314489 377.1660692 272.51830241 375.65032959 277.23306274 C374.61514606 280.45332828 373.58093301 283.67390416 372.546875 286.89453125 C372.24651337 287.82785278 371.94615173 288.76117432 371.63668823 289.72277832 C369.36590383 296.79897385 367.18602424 303.89542121 365 311 C483.8 310.505 483.8 310.505 605 310 C618.05454152 269.26425069 618.05454152 269.26425069 630.95947266 228.48144531 C631.83851566 225.68205461 632.72059779 222.88364582 633.60498047 220.0859375 C639.89334007 200.32440963 639.89334007 200.32440963 645.18457031 180.27978516 C646.55949059 174.74964174 648.39560072 169.38462606 650.25 164 C650.79527344 162.39125 650.79527344 162.39125 651.3515625 160.75 C652.22872486 158.16467935 653.11149817 155.58144053 654 153 C655.32 153 656.64 153 658 153 C659.98519712 155.27607948 661.67344971 157.46316229 663.375 159.9375 C663.83132813 160.57751953 664.28765625 161.21753906 664.7578125 161.87695312 C667.20377549 165.32947111 669.55374898 168.83779993 671.875 172.375 C675.23917922 177.44189464 678.91244299 182.24776359 682.625 187.0625 C684.04738119 188.91758074 685.46925156 190.77305326 686.890625 192.62890625 C687.58736328 193.53785645 688.28410156 194.44680664 689.00195312 195.38330078 C691.81750877 199.07063282 694.59910387 202.78277276 697.375 206.5 C702.06188061 212.76602037 706.79614982 218.99163357 711.58837891 225.17773438 C712.60967798 226.49613222 713.63007084 227.81523223 714.64990234 229.13476562 C721.1071106 237.48758625 727.57227758 245.81895747 734.328125 253.93359375 C737.31076446 257.62008038 738.4071455 259.8463283 738.2741394 264.6395874 C737.73087844 269.31720761 736.15299724 273.68542542 734.66015625 278.1328125 C734.30733582 279.21605301 733.95451538 280.29929352 733.59100342 281.4153595 C732.82647458 283.75846348 732.05665779 286.09984729 731.28213501 288.43966675 C730.03835499 292.19795824 728.80802058 295.96049602 727.58276367 299.72485352 C727.16213526 301.01674235 726.74149617 302.30862771 726.32084656 303.60050964 C726.11126501 304.24425222 725.90168346 304.8879948 725.68575096 305.55124474 C725.04320999 307.52296532 724.39916487 309.49418884 723.75471497 311.46528625 C719.6822475 323.92733672 715.73326264 336.42699037 711.8125 348.9375 C710.77984431 352.22791147 709.7468025 355.51820156 708.71374512 358.80848694 C707.99261393 361.1054161 707.27166955 363.40240392 706.55090332 365.69944763 C703.68826041 374.81914183 700.81277163 383.93473786 697.93361855 393.04923058 C696.4009547 397.90169834 694.86932169 402.75449163 693.33755779 407.60724354 C692.09637166 411.53906243 690.85457306 415.47068548 689.61123657 419.40182495 C684.74866842 434.7780216 679.91045391 450.16163786 675.20379448 465.58640099 C674.78439473 466.95979564 674.36376377 468.33281513 673.94169807 469.70539284 C671.50895327 477.62581666 669.28258983 485.56533213 667.33800411 493.61783886 C666.03378426 499.00566665 664.38891302 504.20827921 662.5625 509.4375 C659.06130637 519.73254845 655.71536593 530.06980206 652.4375 540.4375 C652.17411835 541.27006317 651.91073669 542.10262634 651.63937378 542.9604187 C649.42197589 549.9722656 647.21087693 556.98609486 645 564 C644.39127515 565.93053445 643.7825496 567.86106867 643.17380047 569.79159546 C639.16784324 582.49591715 635.1634667 595.20073634 631.1628418 607.90673828 C630.91569711 608.69166405 630.66855242 609.47658981 630.4139185 610.28530121 C628.90054554 615.09176304 628.90054554 615.09176304 627.38719368 619.89823151 C623.78350703 631.34326612 620.17451965 642.78661683 616.56162643 654.22874832 C615.02927355 659.08235047 613.49780015 663.93623022 611.96632576 668.79010963 C610.76017174 672.61262486 609.55346463 676.4349633 608.34527588 680.25683594 C603.4405216 695.77338446 598.57090825 711.30035187 593.79691315 726.85770226 C593.32780234 728.38587256 592.85786438 729.91378927 592.38698578 731.44141579 C589.70608565 740.14572076 587.19332509 748.86931618 584.88189697 757.67903137 C583.76681536 761.87810584 582.54448328 766.03588077 581.265625 770.1875 C581.02626221 770.97080185 580.78689941 771.7541037 580.5402832 772.56114197 C579.78041173 775.0418708 579.01571652 777.52106965 578.25 780 C577.98876343 780.84885773 577.72752686 781.69771545 577.45837402 782.57229614 C573.27233494 796.15902044 568.85011682 809.63364865 564 823 C560.67508168 822.43148139 559.23104826 821.55080846 557.08203125 818.97265625 C556.55448242 818.35036133 556.02693359 817.72806641 555.48339844 817.08691406 C554.93200195 816.41885742 554.38060547 815.75080078 553.8125 815.0625 C552.6479548 813.68290168 551.48258821 812.30399629 550.31640625 810.92578125 C549.74937988 810.25111816 549.18235352 809.57645508 548.59814453 808.88134766 C546.536075 806.45386403 544.40125431 804.09854748 542.25 801.75 C539.2992512 798.49989987 536.49702373 795.17382667 533.75 791.75 C529.65413373 786.6802914 525.27534432 781.94482182 520.80883789 777.20556641 C516.67172528 772.79110885 512.84274052 768.19025422 509.05859375 763.46875 C505.94251301 759.73181826 502.51054579 756.3626514 499 753 C492.32334307 746.4945394 486.07768755 739.63311141 480.5703125 732.109375 C474.98394375 724.60529757 468.82918655 717.65703819 462.44287109 710.8371582 C459.32497756 707.4899058 456.36459256 704.07036174 453.5 700.5 C449.16122738 695.09625592 444.49813294 690.05131805 439.7734375 684.98828125 C437.63645686 682.6964159 435.54776652 680.37241243 433.5 678 C428.48002876 672.20211554 423.21506594 666.62184744 418 661 C400.1375803 641.74428979 400.1375803 641.74428979 397.125 637.125 C394.5373107 633.31957456 391.5194703 630.08394968 388.4140625 626.6953125 C386.07970217 624.08898786 383.87582506 621.41693817 381.6875 618.6875 C377.27745248 613.23479676 372.56231202 608.12013668 367.78125 602.99609375 C365.0450396 600.06143494 362.39823878 597.05796386 359.7734375 594.0234375 C356.70882687 590.52681128 353.55647294 587.10959081 350.421875 583.67578125 C348.33479654 581.36989618 346.28354214 579.04047022 344.25 576.6875 C342.11457675 574.21730731 339.90920524 571.89512278 337.5625 569.625 C335 567 335 567 335 565 C334.34 565 333.68 565 333 565 C331.56450274 563.40665761 330.20172673 561.74748918 328.875 560.0625 C325.9400895 556.38797321 322.97258826 552.79529477 319.8125 549.3125 C317.43042855 546.6683539 315.21193641 544.00695981 313.125 541.125 C309.87736057 536.68272481 306.1711294 532.70294563 302.4453125 528.66015625 C299.83156393 525.81676523 297.29037508 522.91929806 294.7578125 520.00390625 C292.79996415 517.77195913 290.80750098 515.57379141 288.8125 513.375 C284.55118405 508.6620574 280.43735465 503.83393477 276.32836914 498.98876953 C273.58348374 495.77418301 270.78783647 492.69559447 267.75 489.75 C266.8425 488.8425 265.935 487.935 265 487 C265 486.34 265 485.68 265 485 C264.34 485 263.68 485 263 485 C261.50370821 483.3214487 260.07707339 481.58041102 258.6875 479.8125 C256.29902741 476.7833166 253.9640178 473.96472235 251.20703125 471.26171875 C249 469 249 469 249 467 C248.34 467 247.68 467 247 467 C245.50122497 465.34516392 244.07511527 463.62409488 242.6875 461.875 C241.88183594 460.86824219 241.07617188 459.86148437 240.24609375 458.82421875 C239.50488281 457.89222656 238.76367188 456.96023438 238 456 C237.08795295 454.89201445 236.17248065 453.786814 235.25 452.6875 C234.5075 451.800625 233.765 450.91375 233 450 C232.53464844 449.46503906 232.06929688 448.93007813 231.58984375 448.37890625 C228 444.20908774 228 444.20908774 228 442 C227.34 442 226.68 442 226 442 C224.58561594 440.42713316 223.24395599 438.78860004 221.9375 437.125 C218.08615012 432.25288584 213.99658331 427.82157966 209.5546875 423.484375 C207.36707825 419.98859741 208.23549323 417.98960912 209 414 C209.57701134 411.92229655 210.20759436 409.8588576 210.88598633 407.81201172 C211.27341507 406.63323456 211.66084381 405.4544574 212.06001282 404.23995972 C212.4839375 402.96984179 212.9079458 401.69975176 213.33203125 400.4296875 C213.76997532 399.10338205 214.20735831 397.77689122 214.64421082 396.45022583 C215.79329621 392.96505455 216.94916689 389.48217336 218.10675049 385.99981689 C219.72651737 381.1231461 221.33723887 376.24347952 222.94865417 371.36404419 C223.80431133 368.7730864 224.66288748 366.18315924 225.52314758 363.59371948 C228.87113968 353.49040287 232.1490055 343.40133784 234.77807617 333.08422852 C237.21497684 323.83070893 240.34695971 314.83061839 243.4682827 305.78924751 C245.37530054 300.26302168 247.26386763 294.7304816 249.15478516 289.19873047 C249.55157439 288.03919766 249.94836363 286.87966486 250.35717678 285.6849947 C254.79330033 272.70775204 259.14202147 259.70156931 263.48046875 246.69140625 C263.8775919 245.50080975 264.27471504 244.31021324 264.68387222 243.08353806 C266.7068639 237.0174877 268.72840869 230.95095702 270.7487793 224.8840332 C272.78668586 218.76459393 274.82733458 212.64607305 276.86868095 206.52778053 C286.01965947 179.09650713 295.10984999 151.6471807 304.00575447 124.13199425 C305.6419006 119.07775033 307.31986421 114.04040736 309 109 C240.03 108.67 171.06 108.34 100 108 C99.34 111.3 98.68 114.6 98 118 C95.27474206 129.6504777 91.81306459 141.08341657 88.25 152.5 C87.8684375 153.72477051 87.486875 154.94954102 87.09375 156.21142578 C84.3976583 164.79782743 81.55860231 173.33392956 78.69921875 181.8671875 C74.1669601 195.40591727 69.83915488 209.00372084 65.5625 222.625 C64.8888863 224.76569249 64.21505737 226.90631726 63.54101562 229.046875 C61.02718 237.03119845 58.51360606 245.01560428 56 253 C50.06 271.81 44.12 290.62 38 310 C100.04 310.33 162.08 310.66 226 311 C222.62530109 323.37389601 222.62530109 323.37389601 220.81445312 328.85961914 C220.40939041 330.09147446 220.0043277 331.32332977 219.58699036 332.59251404 C219.15177685 333.90673913 218.71652912 335.22095289 218.28125 336.53515625 C217.82144351 337.93062166 217.36191113 339.32617741 216.90263367 340.72181702 C215.68755384 344.41215564 214.46929137 348.10143573 213.2503624 351.79050446 C211.24906642 357.85015718 209.25378407 363.91179534 207.25777245 369.97319031 C206.76603491 371.46634072 206.27418456 372.959454 205.78222084 374.45252991 C202.87563605 383.27424509 199.98227509 392.09976522 197.13671875 400.94140625 C196.87098053 401.76695511 196.60524231 402.59250397 196.33145142 403.44306946 C195.17682754 407.03474402 194.027123 410.62792761 192.8828125 414.22290039 C192.50253906 415.41004639 192.12226563 416.59719238 191.73046875 417.8203125 C191.41489014 418.81305176 191.09931152 419.80579102 190.77416992 420.82861328 C190 423 190 423 189 424 C186.58451609 424.11005224 184.19700482 424.15495687 181.78050232 424.15821838 C181.0160236 424.16315636 180.25154489 424.16809434 179.46390015 424.17318195 C176.88275541 424.1886331 174.30163567 424.19693805 171.72045898 424.20532227 C169.87796811 424.21489482 168.03547946 424.22490452 166.19299316 424.23532104 C161.17463156 424.26244373 156.15626049 424.28341329 151.13786578 424.30332303 C145.89943369 424.32513733 140.66103105 424.35254823 135.42262268 424.37937927 C125.49557643 424.42936797 115.56851389 424.4742838 105.64143568 424.51740164 C94.34293814 424.56672134 83.04447013 424.62165894 71.74600112 424.67708123 C48.49736162 424.79099606 25.2486938 424.8978143 2 425 C-0.71524041 433.37782765 -3.42938051 441.75601085 -6.14226013 450.13460326 C-7.40312018 454.02859868 -8.66430601 457.92248784 -9.92634583 461.81610107 C-16.33979493 481.60371804 -22.69730942 501.40696144 -28.9375 521.25 C-29.49722346 523.02954449 -29.49722346 523.02954449 -30.06825447 524.84503937 C-30.8120566 527.21006911 -31.55580502 529.57511574 -32.29949188 531.94018173 C-36.16843122 544.24315481 -40.08269153 556.53111281 -44.01953125 568.8125 C-44.54148009 570.44162301 -45.06340696 572.07075306 -45.58531189 573.69989014 C-49.73861951 586.66234056 -49.73861951 586.66234056 -51.74874878 592.90930176 C-57.09796748 609.53422305 -62.3792286 626.15373938 -67 643 C-70.39698996 642.2638935 -71.73881906 641.57478824 -73.91796875 638.82421875 C-74.44592041 638.16671631 -74.97387207 637.50921387 -75.51782227 636.83178711 C-76.06881592 636.12417236 -76.61980957 635.41655762 -77.1875 634.6875 C-78.04589478 633.60577515 -78.04589478 633.60577515 -78.92163086 632.50219727 C-80.62674169 630.34411038 -82.31585173 628.17446992 -84 626 C-84.46760742 625.39994141 -84.93521484 624.79988281 -85.41699219 624.18164062 C-92.31456302 615.30069282 -92.31456302 615.30069282 -94.98046875 610.51171875 C-96.81454137 607.23598594 -98.92284857 604.3286922 -101.25 601.375 C-102.13484192 600.24275553 -103.0188989 599.10989738 -103.90234375 597.9765625 C-104.63493408 597.03925293 -104.63493408 597.03925293 -105.38232422 596.08300781 C-108.55657927 591.9956634 -111.68017482 587.8695025 -114.8125 583.75 C-116.20167641 581.92566968 -117.59099896 580.10145064 -118.98046875 578.27734375 C-119.65899902 577.38644043 -120.3375293 576.49553711 -121.03662109 575.57763672 C-127.74916364 566.7650249 -134.46228551 557.95436577 -141.28027344 549.22290039 C-143.03987287 546.96651542 -144.79181102 544.70434599 -146.54296875 542.44140625 C-148.84820669 539.46503135 -151.18733506 536.5201513 -153.55078125 533.58984375 C-154.65934362 532.185282 -155.76743722 530.78035011 -156.875 529.375 C-157.39328369 528.74843506 -157.91156738 528.12187012 -158.44555664 527.47631836 C-158.91469482 526.87311768 -159.38383301 526.26991699 -159.8671875 525.6484375 C-160.28081543 525.13458496 -160.69444336 524.62073242 -161.12060547 524.09130859 C-164.31228635 516.50109803 -160.47819825 508.27840486 -158.0390625 501.00390625 C-157.61680661 499.71567109 -157.1956772 498.42706622 -156.77558899 497.13812256 C-155.87557086 494.383547 -154.96856716 491.63141478 -154.05587769 488.88101196 C-152.60274521 484.50101521 -151.16593343 480.11577985 -149.73266602 475.72924805 C-149.4913498 474.99082074 -149.25003359 474.25239344 -149.00140476 473.49158955 C-148.51150454 471.99244596 -148.02164825 470.49328802 -147.53183556 468.99411583 C-146.78972653 466.72445904 -146.04612578 464.45529553 -145.30220032 462.18623352 C-140.73992713 448.26180749 -136.32343134 434.29347019 -131.9375 420.3125 C-127.2581252 405.42001497 -122.54570589 390.53901065 -117.75 375.68359375 C-117.41716601 374.65255492 -117.41716601 374.65255492 -117.07760811 373.60068703 C-114.71898134 366.29630653 -112.35475306 358.9937566 -109.98608398 351.69262695 C-99.60628968 320.42526043 -99.60628968 320.42526043 -90.92285156 288.66894531 C-89.07122175 281.30749218 -86.68951241 274.10144656 -84.375 266.875 C-83.83656427 265.18145594 -83.29831909 263.48785128 -82.76025391 261.79418945 C-79.71407582 252.23040476 -76.58442287 242.69785164 -73.375 233.1875 C-68.16312398 217.73482029 -63.29399594 202.17596666 -58.40106201 186.6199646 C-52.89370858 169.11429483 -47.32604421 151.63002372 -41.68457031 134.16699219 C-35.16198603 113.97548025 -28.66407596 93.77623946 -22.24902344 73.55029297 C-21.46997646 71.0961347 -20.68926785 68.64250316 -19.90673828 66.18945312 C-15.09478218 51.27313226 -15.09478218 51.27313226 -11.05859375 36.13671875 C-7.96890271 23.92452438 -3.85479124 11.99268387 0 0 Z M344 420 C345.98 422.97 345.98 422.97 348 426 C348.66 426 349.32 426 350 426 C350.24621094 426.56589844 350.49242187 427.13179688 350.74609375 427.71484375 C352.21536224 430.39248258 353.97752435 432.33043612 356.0625 434.5625 C359.25385812 438.03798539 362.30455526 441.56411074 365.25 445.25 C369.34521925 450.31890774 373.7233457 455.05356762 378.18896484 459.79223633 C382.35328587 464.23601326 386.19804012 468.8420694 390.00390625 473.59765625 C392.34474283 476.41490576 394.86099148 478.96093511 397.5 481.49609375 C399 483 399 483 401.3125 485.9375 C401.869375 486.618125 402.42625 487.29875 403 488 C403.66 488 404.32 488 405 488 C405 488.66 405 489.32 405 490 C405.66 490 406.32 490 407 490 C407.22558594 490.5465625 407.45117188 491.093125 407.68359375 491.65625 C409.38699546 494.68901268 411.67077473 497.01048698 414.0625 499.5 C418.71593734 504.44666345 422.80105266 509.63010061 426.8125 515.1171875 C430.26446386 519.66638273 434.13024727 523.80716958 438 528 C441.27592285 531.67505827 444.49335579 535.39947916 447.6796875 539.15234375 C453.21770889 545.66588495 458.84158353 552.05599272 464.69213867 558.29101562 C468.73436026 562.62946618 472.43439372 567.16229339 476.0625 571.85546875 C477.83308338 574.07965963 477.83308338 574.07965963 480.125 575.05078125 C482.56513943 576.28610184 482.80265026 577.58041909 484 580 C485.29663402 581.62419444 485.29663402 581.62419444 486.79296875 583.13671875 C487.33751709 583.7095459 487.88206543 584.28237305 488.44311523 584.87255859 C489.01876221 585.47148926 489.59440918 586.07041992 490.1875 586.6875 C495.12238388 591.90980689 499.74342474 597.20263317 504 603 C505.14536413 604.52118673 506.29117979 606.04203361 507.4375 607.5625 C508.29250133 608.70771066 509.14700232 609.85329616 510 611 C512.18560919 607.72158621 513.08870857 604.90417698 514.25 601.140625 C514.46366714 600.45372086 514.67733429 599.76681671 514.8974762 599.05909729 C515.35949723 597.57231266 515.81938217 596.08486292 516.27737427 594.59683228 C517.5171459 590.5704934 518.77367184 586.54937145 520.02734375 582.52734375 C520.28168686 581.70977097 520.53602997 580.89219818 520.79808044 580.04985046 C523.00692153 572.95574061 525.2718831 565.88063279 527.5625 558.8125 C528.16176807 556.96032997 528.76103178 555.10815853 529.36018372 553.25595093 C529.79955202 551.89771145 530.23899752 550.53949693 530.67851257 549.18130493 C537.48796858 528.13235888 544.25078537 507.06832734 551 486 C551.31527649 485.01656616 551.63055298 484.03313232 551.9553833 483.01989746 C553.57868242 477.95494017 555.19669675 472.88837691 556.80374146 467.8182373 C557.25983025 466.38154259 557.71767154 464.94540277 558.17745972 463.5098877 C560.31776772 456.82214071 562.26073864 450.25140244 563.51660156 443.34130859 C564.38640854 439.1284556 565.77398614 435.07889831 567.125 431 C567.67180179 429.33416198 568.21619816 427.66753184 568.7578125 426 C568.9964502 425.278125 569.23508789 424.55625 569.48095703 423.8125 C570.09176753 421.99377322 570.09176753 421.99377322 570 420 C495.42 420 420.84 420 344 420 Z " fill="#AC4FC6" transform="translate(162,0)"/>
</svg>
