<?xml version="1.0" encoding="UTF-8"?>
<svg version="1.1" xmlns="http://www.w3.org/2000/svg" width="579" height="778">
<path d="M0 0 C0.33 1.32 0.66 2.64 1 4 C-0.96382007 5.50559539 -2.78263366 6.89131683 -5 8 C-6.13350534 10.01669827 -6.13350534 10.01669827 -7 12 C-7.66 12 -8.32 12 -9 12 C-9.33 12.99 -9.66 13.98 -10 15 C-11.42866392 16.19609072 -12.86127847 17.38802501 -14.3203125 18.546875 C-16.67833165 20.58683575 -18.58292879 22.92227821 -20.5703125 25.31640625 C-22.57770531 27.68030325 -24.80763569 29.80763569 -27 32 C-32.55292882 37.82053985 -36.84792177 44.12440511 -41 51 C-41.54011719 51.88429687 -42.08023438 52.76859375 -42.63671875 53.6796875 C-44.04406808 56.07500413 -45.04603468 58.39249479 -46 61 C-46.391875 61.94875 -46.78375 62.8975 -47.1875 63.875 C-48.47899849 68.84230189 -47.83673312 72.42694174 -45.4375 76.9375 C-40.98924377 82.52633474 -36.87641518 87.6023026 -30 90 C-28.0790007 90.9313936 -26.18731465 91.89986867 -24.3046875 92.90625 C-21.33140073 94.31730135 -18.28842202 95.39804721 -15.1875 96.5 C-14.00542969 96.9228125 -12.82335937 97.345625 -11.60546875 97.78125 C-5.46374256 99.85732646 0.57966258 101.35788853 6.9609375 102.4375 C7.63382813 102.623125 8.30671875 102.80875 9 103 C9.33 103.66 9.66 104.32 10 105 C10.62648437 104.98839844 11.25296875 104.97679688 11.8984375 104.96484375 C12.71570313 104.95582031 13.53296875 104.94679688 14.375 104.9375 C15.18710938 104.92589844 15.99921875 104.91429688 16.8359375 104.90234375 C19 105 19 105 21 106 C23.87910588 106.23274209 26.74146495 106.41972757 29.625 106.5625 C30.82769531 106.62727539 30.82769531 106.62727539 32.0546875 106.69335938 C34.0362511 106.79951457 36.01810271 106.90026855 38 107 C38 107.66 38 108.32 38 109 C39.299375 108.814375 40.59875 108.62875 41.9375 108.4375 C44.15234375 108.12109375 44.15234375 108.12109375 46 108 C46.33 108.33 46.66 108.66 47 109 C49.14204311 109.20983279 51.28924113 109.36823385 53.4375 109.5 C59.77972466 109.88986233 59.77972466 109.88986233 62 111 C63.87379605 111.07033769 65.75001102 111.0843022 67.625 111.0625 C68.62789062 111.05347656 69.63078125 111.04445313 70.6640625 111.03515625 C71.43492187 111.02355469 72.20578125 111.01195313 73 111 C73.33 111.66 73.66 112.32 74 113 C74.78761719 112.97679688 75.57523437 112.95359375 76.38671875 112.9296875 C83.54666514 112.81106117 90.26745767 113.32092164 97.3203125 114.5625 C100.04093862 115.08056595 100.04093862 115.08056595 103 115 C103.99 115 104.98 115 106 115 C106 115.66 106 116.32 106 117 C107.98 117.33 109.96 117.66 112 118 C110.33221795 124.17079358 107.09403228 129.46068414 104 135 C100.21574114 142.00788678 97 149.93715589 97 158 C101.2505466 159.85961414 105.49933525 160.93204565 110 162 C110 162.66 110 163.32 110 164 C111.299375 163.95875 112.59875 163.9175 113.9375 163.875 C118.83591302 163.85944948 123.28176811 164.7507282 128 166 C128 166.99 128 167.98 128 169 C128.71542969 168.80019531 129.43085938 168.60039062 130.16796875 168.39453125 C138.64434782 167.21368396 149.47487245 174.04078849 156.1875 178.9375 C161.13553995 182.79891157 164.77195002 186.6199167 168 192 C168.886875 192.886875 169.77375 193.77375 170.6875 194.6875 C173 197 173 197 173 199 C173.495 199.495 173.99 199.99 174.5 200.5 C174.995 200.995 175.49 201.49 176 202 C176 202.66 176 203.32 176 204 C176.721875 204.680625 177.44375 205.36125 178.1875 206.0625 C181.18003644 208.91091996 182.90604143 212.17042251 184.7890625 215.81640625 C186.05162374 218.09308926 187.25898524 220.0594055 189 222 C190.32582582 222.36204251 191.66046156 222.69254977 193 223 C203.45246307 227.67272875 214.12362315 232.86626358 222.140625 241.234375 C223.87479329 243.28691221 223.87479329 243.28691221 226.5 243 C229.09386719 242.16936737 229.09386719 242.16936737 230.75390625 240.109375 C233.47099737 237.55767203 235.95591784 236.55408396 239.4375 235.25 C241.10619141 234.60804688 241.10619141 234.60804688 242.80859375 233.953125 C245.77134944 233.06828732 247.94672155 232.8891732 251 233 C251.33 232.67 251.66 232.34 252 232 C261.05033927 230.9702021 267.92834175 233.62000004 274.96875 239.1796875 C278.63879068 242.46860858 282.03647705 246.05914502 285 250 C285 250.66 285 251.32 285 252 C288.92177735 252.99860071 292.40217689 253.75428766 296.16796875 251.9765625 C300.79814015 248.59125343 304.47587578 244.4918889 308 240 C308.60070312 239.26265625 309.20140625 238.5253125 309.8203125 237.765625 C313.11877142 233.65290216 315.68068787 229.74906769 318 225 C320.1875 222.625 320.1875 222.625 322 221 C322.99 221.33 323.98 221.66 325 222 C325 223.65 325 225.3 325 227 C325.33 227 325.66 227 326 227 C326.11138159 232.45769811 325.91657981 237.61509359 325 243 C325.66 243 326.32 243 327 243 C327 258.51 327 274.02 327 290 C326.34 290 325.68 290 325 290 C325.185625 290.9075 325.37125 291.815 325.5625 292.75 C326.3594358 298.67009448 323.76880406 303.83953794 321 309 C318.3342017 312.1209346 316.88358957 313.70547014 313 315 C312.31526605 317.32809543 311.65146849 319.66237777 311 322 C309.18541644 325.00540403 307.47882265 327.52117735 305 330 C304.34 330.99 303.68 331.98 303 333 C302.01 333 301.02 333 300 333 C299.835 333.721875 299.67 334.44375 299.5 335.1875 C296.75094613 340.341976 291.70588398 342.38235235 286.375 344.3125 C283.14119074 344.97123892 280.28637409 345.078247 277 345 C276.67 345.33 276.34 345.66 276 346 C273.13732433 346.07325168 270.299281 346.09238205 267.4375 346.0625 C266.63119141 346.05798828 265.82488281 346.05347656 264.99414062 346.04882812 C262.99606244 346.03700518 260.99802217 346.01906914 259 346 C259 346.33 259 346.66 259 347 C257.27716797 346.93425781 257.27716797 346.93425781 255.51953125 346.8671875 C243.06066359 346.75279954 236.99241413 349.65534452 228 358 C226.55834448 359.10543049 225.10234494 360.19273979 223.625 361.25 C220.40905438 363.63470544 217.41023759 366.20931939 214.4453125 368.8984375 C213 370 213 370 211 370 C209.31126121 371.64429829 207.64694485 373.31384218 206 375 C204.66666667 376 203.33333333 377 202 378 C201.195625 378.804375 200.39125 379.60875 199.5625 380.4375 C197.15370203 382.84629797 194.75090355 384.99258389 192 387 C191.34 387 190.68 387 190 387 C189.78601563 387.55042969 189.57203125 388.10085938 189.3515625 388.66796875 C187.54161773 391.79090813 185.04895386 393.94802773 182.375 396.3125 C181.83665527 396.795979 181.29831055 397.27945801 180.74365234 397.77758789 C179.66431856 398.74486058 178.58249068 399.70935827 177.49804688 400.67089844 C176.20567863 401.8175172 174.92227959 402.9742307 173.640625 404.1328125 C170.81973384 406.65849412 168.14514686 408.90817239 164.9375 410.9375 C160.02770219 414.38480485 156.47205439 419.05169271 152.875 423.8125 C150.81619681 426.21443705 148.69767215 427.39597872 146 429 C145.67 429.99 145.34 430.98 145 432 C145.87325928 432.02505615 146.74651855 432.0501123 147.64624023 432.07592773 C150.87602552 432.17087709 154.10564154 432.27012029 157.33520508 432.37231445 C158.73489199 432.41571434 160.13463359 432.45738564 161.53442383 432.49731445 C163.54261495 432.55489445 165.55061149 432.61914 167.55859375 432.68359375 C168.76829834 432.72025146 169.97800293 432.75690918 171.22436523 432.79467773 C174 433 174 433 175 434 C177.3306218 434.35179197 179.66435067 434.68330179 182 435 C185.04527194 435.57613253 185.74813226 435.74813226 188 438 C188.8353125 438.4021875 188.8353125 438.4021875 189.6875 438.8125 C193.03454553 440.53125311 195.97479633 442.77358606 199 445 C199.80050781 444.16855469 199.80050781 444.16855469 200.6171875 443.3203125 C201.36226563 442.59585937 202.10734375 441.87140625 202.875 441.125 C203.59429687 440.40570313 204.31359375 439.68640625 205.0546875 438.9453125 C213.08589783 433.64087915 223.60776337 434.65739148 232.89624023 434.68432617 C235.19367003 434.68750855 237.48983581 434.66387362 239.78710938 434.63867188 C241.26822757 434.63640024 242.74934917 434.63569476 244.23046875 434.63671875 C244.9066777 434.627509 245.58288666 434.61829926 246.27958679 434.60881042 C252.73518982 434.6708734 257.9824516 436.65634992 262.8125 441 C263.37582031 441.495 263.93914062 441.99 264.51953125 442.5 C266 444 266 444 268 447 C268.53625 446.2575 269.0725 445.515 269.625 444.75 C272.18115589 441.79024055 274.61690985 439.94347732 278 438 C278.99 438 279.98 438 281 438 C281.33 437.34 281.66 436.68 282 436 C287.58672194 435.92563749 293.17315339 435.87129746 298.76025391 435.83520508 C300.65939353 435.82015309 302.55849859 435.79970684 304.45751953 435.77368164 C307.19312081 435.73714008 309.928261 435.72023762 312.6640625 435.70703125 C313.50804596 435.69154739 314.35202942 435.67606354 315.22158813 435.66011047 C320.31009639 435.65866988 323.4902263 436.41251627 328 439 C331.20696326 438.83554035 333.2181694 437.89279725 336.11328125 436.47021484 C340.33998415 434.65439271 344.19952381 434.56581926 348.75 434.6015625 C349.56694336 434.59869232 350.38388672 434.59582214 351.22558594 434.59286499 C352.94336648 434.59083427 354.66117067 434.5962943 356.37890625 434.60888672 C358.99271867 434.62495524 361.60498508 434.60900481 364.21875 434.58984375 C365.89583671 434.59182636 367.57292247 434.5956704 369.25 434.6015625 C370.02311523 434.59548981 370.79623047 434.58941711 371.59277344 434.5831604 C377.61244896 434.66032941 382.4753947 435.77240709 387.125 439.875 C387.74375 440.57625 388.3625 441.2775 389 442 C389.886875 442.78375 390.77375 443.5675 391.6875 444.375 C395.91932925 449.17869807 395.19392575 455.62305001 395.1875 461.75 C395.18669434 462.5433374 395.18588867 463.3366748 395.18505859 464.15405273 C395.12611506 469.80858637 395.04706894 475.65487554 393 481 C392.01 481.495 392.01 481.495 391 482 C391.04125 482.94875 391.0825 483.8975 391.125 484.875 C391.125 489.64613127 390.41484044 494.44106971 389 499 C388.01 499.495 388.01 499.495 387 500 C387.061875 501.546875 387.061875 501.546875 387.125 503.125 C387.00292545 506.90931105 386.32595149 509.4901284 385 513 C384.64830932 514.32860925 384.31229724 515.66158328 384 517 C383.8453125 517.56074219 383.690625 518.12148438 383.53125 518.69921875 C382.58175368 522.81137561 382.1511032 527.01813636 381.59765625 531.19921875 C381.40042969 532.12347656 381.20320312 533.04773438 381 534 C380.34 534.33 379.68 534.66 379 535 C379.061875 536.60875 379.061875 536.60875 379.125 538.25 C379.00780624 541.76581294 378.67021593 543.07712211 377 546 C377 546.99 377 547.98 377 549 C376.67 549.99 376.34 550.98 376 552 C375.18776206 554.91202344 374.7469477 557.74393667 374.4375 560.75 C374.35371094 561.54921875 374.26992188 562.3484375 374.18359375 563.171875 C374.12300781 563.77515625 374.06242188 564.3784375 374 565 C373.34 565 372.68 565 372 565 C372.20625 565.515625 372.4125 566.03125 372.625 566.5625 C373.05383016 569.34989607 372.46339725 571.26352491 371.61328125 573.91796875 C370.4476718 577.87510146 369.76602678 581.94983714 369 586 C368.34 586 367.68 586 367 586 C367.1959375 586.57492187 367.391875 587.14984375 367.59375 587.7421875 C368.08069814 590.44849541 367.59759128 591.63649564 366.5 594.125 C365.58449271 596.12758597 365.58449271 596.12758597 365 598 C365.33 598.66 365.66 599.32 366 600 C362.58823529 606.70588235 362.58823529 606.70588235 360 608 C359.67 608.99 359.34 609.98 359 611 C353.78571001 614.54571719 349.41056353 616 343 616 C343 616.66 343 617.32 343 618 C332 618 321 618 310 618 C310.0309375 619.85625 310.0309375 619.85625 310.0625 621.75 C310.11185228 624.71113666 309.76895908 627.14618707 309 630 C308.52167549 632.61671641 308.05424656 635.23487057 307.59765625 637.85546875 C307.40042969 638.56316406 307.20320313 639.27085937 307 640 C306.34 640.33 305.68 640.66 305 641 C305.061875 642.60875 305.061875 642.60875 305.125 644.25 C305.00813299 647.75601022 304.62861179 649.06849877 303 652 C303.33 652.66 303.66 653.32 304 654 C303.36959957 655.35085807 302.69748583 656.68252676 302 658 C301.30867294 660.30442355 300.9369971 662.48302225 300.625 664.875 C299.12891466 672.35542672 294.61198641 678.01057944 289 683 C279.19631902 689 279.19631902 689 275 689 C275 688.34 275 687.68 275 687 C274.34 687.33 273.68 687.66 273 688 C270.20347685 688.09589902 267.43194425 688.130107 264.63522339 688.12025452 C263.75963433 688.12110894 262.88404528 688.12196337 261.98192322 688.12284368 C259.03073437 688.1244985 256.07960163 688.11897706 253.12841797 688.11352539 C251.0197754 688.11324349 248.91113274 688.1134013 246.80249023 688.1139679 C241.06311375 688.11425577 235.323758 688.10836063 229.58438635 688.10139394 C223.59191333 688.09515876 217.59943988 688.09455647 211.60696411 688.09336853 C200.252667 688.0902557 188.89837946 688.08204296 177.54408658 688.07201904 C164.62046632 688.06085641 151.69684561 688.05534707 138.77322173 688.05032361 C112.1821425 688.03986031 85.59107179 688.02226179 59 688 C58.79913557 691.71599191 58.8480563 692.77208445 61 696 C61.29029308 697.99979675 61.57544751 700.0014694 61.78125 702.01171875 C61.98174827 704.12856888 61.98174827 704.12856888 62.5625 706.6875 C63.03252611 709.17192373 63.07207379 711.47741736 63 714 C63.66 714 64.32 714 65 714 C65.81639318 716.87394498 66.62822141 719.7490513 67.4375 722.625 C67.78264648 723.83736328 67.78264648 723.83736328 68.13476562 725.07421875 C69.09557079 728.49969803 69.97092526 731.81876039 70.53515625 735.3359375 C70.99323091 737.96120573 71.7553257 739.67217403 73 742 C73.48921212 743.53214786 73.94583586 745.0749601 74.375 746.625 C75.4009153 750.16388965 76.57957397 753.53823618 78 756.9375 C80.15869771 762.17296225 81.62413052 767.51404908 83 773 C83.19207031 773.76570312 83.38414062 774.53140625 83.58203125 775.3203125 C83.78892578 776.15175781 83.78892578 776.15175781 84 777 C77.5021851 779.1659383 71.8059832 775.80580265 66 773 C64.89785156 772.46890625 63.79570312 771.9378125 62.66015625 771.390625 C42.86518855 761.7303771 42.86518855 761.7303771 41 758 C39.68027598 757.30678233 38.34402179 756.64484701 37 756 C29.56897377 751.21818098 22.74940793 745.68635111 16 740 C14.77603516 738.98099609 14.77603516 738.98099609 13.52734375 737.94140625 C12.79644531 737.32136719 12.06554687 736.70132813 11.3125 736.0625 C10.66925781 735.51722656 10.02601563 734.97195313 9.36328125 734.41015625 C8 733 8 733 8 731 C7.443125 730.773125 6.88625 730.54625 6.3125 730.3125 C3.32795251 728.61856764 1.37345955 726.48385302 -1 724 C-1.51578613 723.50121338 -2.03157227 723.00242676 -2.56298828 722.48852539 C-7.02013536 718.17327251 -10.84388172 713.58352954 -14.5625 708.625 C-15.12606201 707.87911621 -15.68962402 707.13323242 -16.27026367 706.36474609 C-27 692.08437455 -27 692.08437455 -27 688 C-35.31001875 687.97685685 -43.62002408 687.95907482 -51.93006706 687.94818783 C-55.7885133 687.94296333 -59.64693753 687.93587351 -63.50537109 687.92456055 C-67.2271153 687.91371632 -70.9488383 687.90771989 -74.67059708 687.90512276 C-76.09240172 687.90327129 -77.51420517 687.89965597 -78.93600082 687.89426994 C-80.9233055 687.88703928 -82.91063139 687.88659177 -84.89794922 687.88647461 C-86.59671707 687.88314369 -86.59671707 687.88314369 -88.32980347 687.87974548 C-90.97384777 687.81754044 -90.97384777 687.81754044 -93 689 C-99.58117743 685.89567103 -104.10004901 681.84388435 -107 675 C-107.76886435 669.08652863 -107.02745661 662.60679358 -105 657 C-104.34 656.67 -103.68 656.34 -103 656 C-102.59038404 653.67884289 -102.26871451 651.34165499 -102 649 C-101.5625 645.625 -101.5625 645.625 -101 643 C-100.34 642.67 -99.68 642.34 -99 642 C-98.73204816 640.09084312 -98.47360518 638.17957162 -98.27734375 636.26171875 C-97.65951551 631.22337298 -96.41588198 626.48663796 -94 622 C-94 621.34 -94 620.68 -94 620 C-94.67794113 619.98969254 -95.35588226 619.97938507 -96.05436707 619.96876526 C-103.11096603 619.86057725 -110.16744048 619.74598916 -117.22387695 619.62768555 C-119.85731399 619.58437617 -122.49077839 619.54269825 -125.12426758 619.50268555 C-128.90975183 619.44488645 -132.69509889 619.38121933 -136.48046875 619.31640625 C-137.65772018 619.29969376 -138.83497162 619.28298126 -140.04789734 619.26576233 C-141.14866104 619.24581711 -142.24942474 619.22587189 -143.38354492 619.20532227 C-144.83249397 619.18200584 -144.83249397 619.18200584 -146.31071472 619.15821838 C-148.98589248 619.00082999 -151.41601438 618.71528465 -154 618 C-154.33 617.34 -154.66 616.68 -155 616 C-155.928125 615.855625 -156.85625 615.71125 -157.8125 615.5625 C-161.17010104 614.96998217 -162.43368255 614.12384892 -165 612 C-165.99 611.67 -166.98 611.34 -168 611 C-168.33 610.34 -168.66 609.68 -169 609 C-169.61617187 608.70738281 -170.23234375 608.41476562 -170.8671875 608.11328125 C-175.42337517 605.73505142 -178.19509851 600.60980297 -180.4375 596.125 C-181 594 -181 594 -180 592 C-180.99 591.67 -181.98 591.34 -183 591 C-184.68170768 580.70955065 -185.45738135 568.22363372 -183 558 C-182.34 557.67 -181.68 557.34 -181 557 C-180.56736524 554.58262458 -180.56736524 554.58262458 -180.4375 551.75 C-180.19440759 548.07880852 -179.79381096 544.59511079 -179 541 C-178.34 541 -177.68 541 -177 541 C-176.9175 539.948125 -176.835 538.89625 -176.75 537.8125 C-175.44730116 531.19044755 -171.21102644 528.0451875 -165.97265625 524.2265625 C-163.67874684 522.80025051 -161.69913325 522.16869583 -159 522 C-159.86066486 517.53466819 -160.73171506 513.31438565 -162.6875 509.1875 C-164.02518115 505.93884579 -164.16490547 505.14524477 -163 502 C-163.33 501.34 -163.66 500.68 -164 500 C-164.23188406 492.69565217 -164.23188406 492.69565217 -163 489 C-163 487.68 -163 486.36 -163 485 C-160.92983709 469.4737782 -154.20326602 456.01376182 -142 446 C-141.34 446 -140.68 446 -140 446 C-139.278125 445.2575 -138.55625 444.515 -137.8125 443.75 C-130.59363324 436.6915525 -121.15467682 433.84251651 -111.16137695 433.7512207 C-109.1032775 433.79288314 -107.04546767 433.8516656 -104.98828125 433.92578125 C-103.89404343 433.95222214 -102.7998056 433.97866302 -101.67240906 434.00590515 C-98.21849769 434.09283553 -94.76573824 434.20227231 -91.3125 434.3125 C-88.95381576 434.37584539 -86.5950912 434.43770833 -84.23632812 434.49804688 C-78.49030834 434.64824114 -72.74505908 434.81685819 -67 435 C-67.97633465 433.80428614 -67.97633465 433.80428614 -69.79066467 433.87974548 C-70.57009933 433.88196609 -71.349534 433.88418671 -72.15258789 433.88647461 C-73.47384422 433.88658791 -73.47384422 433.88658791 -74.8217926 433.88670349 C-76.25772011 433.89444542 -76.25772011 433.89444542 -77.72265625 433.90234375 C-79.18547279 433.90446617 -79.18547279 433.90446617 -80.67784119 433.90663147 C-83.80609143 433.91224867 -86.93427123 433.92480407 -90.0625 433.9375 C-92.17773334 433.94251278 -94.29296781 433.94707607 -96.40820312 433.95117188 C-101.60549296 433.96222369 -106.80274145 433.97897854 -112 434 C-112 433.67 -112 433.34 -112 433 C-97.81 433 -83.62 433 -69 433 C-69 429.7 -69 426.4 -69 423 C-68.67 422.34 -68.34 421.68 -68 421 C-67.97958916 419.56249394 -68.00842051 418.12413346 -68.0625 416.6875 C-68.13366968 411.26278907 -67.35350379 406.12215058 -66.4375 400.78515625 C-65.92241006 397.97594167 -65.92241006 397.97594167 -66 395 C-65.87244857 393.47752438 -65.72517393 391.95662428 -65.5625 390.4375 C-65.44068359 389.25994141 -65.44068359 389.25994141 -65.31640625 388.05859375 C-65 386 -65 386 -64 384 C-63.60844422 381.6935364 -63.26031366 379.37958472 -62.9375 377.0625 C-62.76089844 375.81597656 -62.58429688 374.56945312 -62.40234375 373.28515625 C-61.93921754 370.05532538 -61.93921754 370.05532538 -62 367 C-61.34 366.67 -60.68 366.34 -60 366 C-60.04125 365.05125 -60.0825 364.1025 -60.125 363.125 C-60.14484508 358.29272342 -59.05774196 353.69372996 -58 349 C-57.34 349 -56.68 349 -56 349 C-56.04125 347.865625 -56.0825 346.73125 -56.125 345.5625 C-56.125 340.94113212 -55.5499837 336.37248488 -54 332 C-53.34 331.67 -52.68 331.34 -52 331 C-52.0309375 329.9171875 -52.0309375 329.9171875 -52.0625 328.8125 C-52.00179441 326.08074862 -51.60741465 323.65743909 -51 321 C-50.34 321 -49.68 321 -49 321 C-49.33 320.01 -49.66 319.02 -50 318 C-49.34 317.67 -48.68 317.34 -48 317 C-47.73377842 315.06989352 -47.47615483 313.13782574 -47.28125 311.19921875 C-46.74249562 306.98645877 -45.33813159 303.01439476 -44 299 C-43.51530631 297.51182251 -43.03097252 296.02352778 -42.546875 294.53515625 C-39.69519182 285.82479325 -36.85045308 277.18377056 -33.1875 268.7734375 C-31.38843806 264.57168101 -29.80969435 260.28904729 -28.2109375 256.0078125 C-27 253 -27 253 -25.3515625 249.8046875 C-23.78294131 247.06846471 -23.78294131 247.06846471 -24 244 C-24.63808594 243.87882813 -25.27617187 243.75765625 -25.93359375 243.6328125 C-27.17302734 243.38144531 -27.17302734 243.38144531 -28.4375 243.125 C-29.67306641 242.88136719 -29.67306641 242.88136719 -30.93359375 242.6328125 C-31.61550781 242.42398438 -32.29742187 242.21515625 -33 242 C-33.33 241.34 -33.66 240.68 -34 240 C-36.32961443 239.64159778 -38.66365343 239.31151288 -41 239 C-43.44256108 238.13153384 -45.68550217 237.15724891 -48 236 C-49.155 235.484375 -50.31 234.96875 -51.5 234.4375 C-56.05663489 232.17581261 -59.80141897 229.13926865 -63.703125 225.90234375 C-65.95475492 223.98774651 -65.95475492 223.98774651 -68.296875 222.37890625 C-68.85890625 221.92386719 -69.4209375 221.46882812 -70 221 C-70 220.34 -70 219.68 -70 219 C-70.8971875 218.566875 -70.8971875 218.566875 -71.8125 218.125 C-74 217 -74 217 -77 215 C-77 214.34 -77 213.68 -77 213 C-77.61875 212.731875 -78.2375 212.46375 -78.875 212.1875 C-81 211 -81 211 -83 208 C-82.89253624 204.77608732 -81.79411665 203.77827947 -79.5625 201.375 C-78.2940625 200.199375 -78.2940625 200.199375 -77 199 C-76.34 198.34 -75.68 197.68 -75 197 C-74.01 197 -73.02 197 -72 197 C-71.76796875 196.4328125 -71.5359375 195.865625 -71.296875 195.28125 C-67.63380788 188.83778253 -60.27892657 183.80040292 -54 180 C-54.80824219 179.52949219 -55.61648437 179.05898437 -56.44921875 178.57421875 C-57.51785156 177.95160156 -58.58648437 177.32898438 -59.6875 176.6875 C-60.74324219 176.07261719 -61.79898438 175.45773438 -62.88671875 174.82421875 C-63.91410156 174.22222656 -64.94148438 173.62023437 -66 173 C-66.84175781 172.50886719 -67.68351562 172.01773438 -68.55078125 171.51171875 C-76.47671692 166.61963405 -83.67198814 161.1689535 -89.5 153.875 C-91.75476967 150.96129802 -91.75476967 150.96129802 -94.4375 149.61328125 C-97.30904278 147.80543496 -98.62934034 146.12290142 -100.5 143.3125 C-101.09425781 142.42304688 -101.68851562 141.53359375 -102.30078125 140.6171875 C-102.86152344 139.75351563 -103.42226562 138.88984375 -104 138 C-104.46792969 137.30132812 -104.93585938 136.60265625 -105.41796875 135.8828125 C-110.5458746 128.02528292 -114.43274812 119.30098078 -116 110 C-115.81824219 109.29488281 -115.63648437 108.58976562 -115.44921875 107.86328125 C-115.22685547 106.94095703 -115.22685547 106.94095703 -115 106 C-115.66 105.01 -116.32 104.02 -117 103 C-117.01171875 100.84375 -117.01171875 100.84375 -116.6875 98.5 C-116.58824219 97.7265625 -116.48898438 96.953125 -116.38671875 96.15625 C-116 94 -116 94 -115 91 C-115.66 91 -116.32 91 -117 91 C-117 89.68 -117 88.36 -117 87 C-116.34 87 -115.68 87 -115 87 C-115.19980469 86.1440625 -115.39960937 85.288125 -115.60546875 84.40625 C-116.53067917 76.41829465 -112.71937708 68.29250277 -108 62 C-107.31246699 60.34183216 -106.64438717 58.67540664 -106 57 C-104.5 54.1875 -104.5 54.1875 -103 52 C-102.34 52 -101.68 52 -101 52 C-100.9175 51.401875 -100.835 50.80375 -100.75 50.1875 C-99.77039902 47.33033048 -98.46476229 46.71164048 -96 45 C-95.13375 44.13375 -94.2675 43.2675 -93.375 42.375 C-91 40 -91 40 -89 39 C-89 38.34 -89 37.68 -89 37 C-82.52353306 30.93930625 -73.70564879 24.0418366 -65 22 C-63.7625 21.01 -63.7625 21.01 -62.5 20 C-59.99193449 17.99354759 -58.99024498 17.70358705 -56 17 C-54.96875 16.38125 -53.9375 15.7625 -52.875 15.125 C-49.26124926 12.98294732 -45.6338623 11.89982523 -41.6015625 10.78515625 C-38.99179376 9.99752334 -36.56529381 9.01409861 -34.0625 7.9375 C-29.62475944 6.09831082 -25.34403065 5.2466406 -20.61328125 4.50390625 C-18.10588659 4.02041759 -15.92949255 3.31916215 -13.5625 2.375 C-10 1 -10 1 -6 1 C-1.75 0 -1.75 0 0 0 Z M97 145 C98 147 98 147 98 147 Z M324 234 C325 236 325 236 325 236 Z M-29 260 C-28 262 -28 262 -28 262 Z M-162 507 C-161 510 -161 510 -161 510 Z M308 615 C308.33 615.99 308.66 616.98 309 618 C309 617.34 309 616.68 309 616 C309.99 615.67 310.98 615.34 312 615 C310.68 615 309.36 615 308 615 Z M66 724 C67 726 67 726 67 726 Z M78 762 C79 764 79 764 79 764 Z " fill="#FDFCFC" transform="translate(184,0)"/>
<path d="M0 0 C0.66 0.33 1.32 0.66 2 1 C1.46890625 1.67804687 0.9378125 2.35609375 0.390625 3.0546875 C-5.49799515 10.813052 -10.93198475 18.58492463 -10.37890625 28.71875 C-8.40631405 40.59497523 -0.41787476 49.98368331 9 57 C47.70275777 83.16597736 94.88805537 84.69282941 140 89 C139.60806978 92.84091616 139.06090779 95.86501098 137.46484375 99.40234375 C135.72997081 103.66319169 135.51810235 107.02183147 135.5625 111.5625 C135.54251953 112.29146484 135.52253906 113.02042969 135.50195312 113.77148438 C135.507834 120.30513197 137.94343271 123.89201853 142.5 128.5625 C147.03659097 132.15011021 152.6296197 134.00708543 158 136 C158.92039062 136.35320312 159.84078125 136.70640625 160.7890625 137.0703125 C164.15718376 138.04551063 167.35291658 138.48519968 170.82641602 138.88476562 C187.51754895 140.86742726 200.21994666 145.75108829 211 159 C215 164.59863946 215 164.59863946 215 167 C204.43319404 171.24694594 193.16318011 170.28805348 182 170 C182.27268682 171.42379988 182.55766967 172.84524759 182.84765625 174.265625 C183.08367554 175.45333496 183.08367554 175.45333496 183.32446289 176.66503906 C184.8053159 181.78353498 188.02146469 184.86120945 192.55859375 187.47265625 C200.80432276 191.3953817 208.45555254 193.17912025 217.5 193.375 C240.1180599 194.28516462 258.6711239 202.89778971 274.48828125 219.12109375 C277.5964819 222.68368144 280.08539594 226.41487283 282.46484375 230.4921875 C284.98546675 234.60984644 287.32208289 238.34897043 292 240 C293.9973833 240.3486704 295.99726841 240.68349201 298 241 C297.98428955 240.39003174 297.9685791 239.78006348 297.95239258 239.15161133 C297.88980187 236.3720029 297.85093378 233.59254308 297.8125 230.8125 C297.77479492 229.37293945 297.77479492 229.37293945 297.73632812 227.90429688 C297.67180642 221.68870617 298.18659536 218.1738966 302.40234375 213.41796875 C307.02335692 209.71410323 311.28593317 209.18406346 317.13671875 209.4609375 C324.49821863 210.8468679 328.06746446 217.30201545 332.3046875 222.9453125 C336.04479876 227.4782584 340.29837996 229.51294473 346.078125 230.2734375 C351.61746526 230.5324714 354.78270528 229.43471286 359.2734375 226.19140625 C361 225 361 225 364 224 C364.08767555 227.37483413 364.14061628 230.74937215 364.1875 234.125 C364.22520508 235.55199219 364.22520508 235.55199219 364.26367188 237.0078125 C364.32009756 242.42467869 364.16360131 246.37459671 361 251 C359.3515625 252.4765625 359.3515625 252.4765625 357.625 253.625 C353.33785795 257.02048855 352.07305241 261.2094464 350.1875 266.21484375 C348.1510395 270.99114749 345.29074693 273.13950204 341 276 C338.45233392 276.29748252 335.99748588 276.48758906 333.44140625 276.58984375 C332.31539757 276.64397682 332.31539757 276.64397682 331.16664124 276.69920349 C328.7780893 276.80972022 326.38923166 276.9054413 324 277 C322.8655545 277.0509079 322.8655545 277.0509079 321.70819092 277.10284424 C317.20665216 277.30430369 312.70884006 277.44210551 308.20336914 277.51489258 C306.67626374 277.54697808 305.14942235 277.59517375 303.62329102 277.65844727 C290.8903499 278.17411994 290.8903499 278.17411994 286.25244141 275.29345703 C284.22830517 273.29684135 282.6007933 271.34348986 281 269 C277.41463568 264.22744697 273.88382503 260.59275518 268 259 C260.91354893 258.34500155 255.04137548 259.8823203 248.36523438 262.046875 C235.39946098 265.99348463 221.88337195 266.35214077 208.43652344 266.31567383 C206.00150153 266.31250196 203.56768682 266.33613808 201.1328125 266.36132812 C187.82948918 266.41450418 173.83538968 265.69146341 162 259 C161.16597656 258.55269531 160.33195313 258.10539062 159.47265625 257.64453125 C149.05390911 251.5905964 140.36780993 242.47484044 133 233 C133 232.34 133 231.68 133 231 C132.34 231 131.68 231 131 231 C131.23547216 243.88674912 133.96146767 255.92342769 142.65234375 265.81640625 C154.30288291 276.65276463 170.10105324 279.65360945 185.49584961 280.48071289 C186.56539886 280.53945335 186.56539886 280.53945335 187.65655518 280.59938049 C189.98833699 280.72672358 192.32032557 280.84972474 194.65234375 280.97265625 C196.27903171 281.06063884 197.90570491 281.14889474 199.53236389 281.2374115 C203.79499227 281.46863671 208.05780993 281.69616851 212.32067871 281.9229126 C216.67809973 282.15534768 221.03533007 282.39130168 225.39257812 282.62695312 C233.92820346 283.08806536 242.46403213 283.54527302 251 284 C247.7024189 287.41918581 244.2478802 289.83031152 240.1875 292.25 C217.80537998 305.94691284 196.78027392 321.77889899 177 339 C176.08476562 339.79148437 175.16953125 340.58296875 174.2265625 341.3984375 C169.72556115 345.35877803 165.55800516 349.39875554 161.703125 353.9921875 C160.54114644 355.36204295 159.34081387 356.70004477 158.109375 358.0078125 C150.64397039 365.97287017 144.72827222 375.17056342 140 385 C140.33 385.33 140.66 385.66 141 386 C141.81339844 385.27296875 142.62679687 384.5459375 143.46484375 383.796875 C163.57583797 366.05941289 188.50149308 347.55300914 215 341 C217.390625 341.37890625 217.390625 341.37890625 219 342 C217.50067938 343.35491884 216.00049946 344.70888678 214.5 346.0625 C213.6646875 346.81660156 212.829375 347.57070313 211.96875 348.34765625 C210.42705362 349.72504025 208.88262274 351.09991212 207.30834961 352.43994141 C201.33351626 357.54877794 195.76439619 363.04947412 190.2097168 368.60498047 C188.57424118 370.23827448 186.93092292 371.8633847 185.28710938 373.48828125 C178.73083988 380.01009282 172.70781535 386.7111466 167 394 C163.13148597 398.86144974 159.18092221 402.5062619 154.18359375 406.22265625 C152.02425039 407.98026131 150.3284203 409.79162619 148.5625 411.9375 C147.716875 412.948125 146.87125 413.95875 146 415 C145.34 415 144.68 415 144 415 C143.38125 413.453125 143.38125 413.453125 142.75 411.875 C139.16433005 403.67918298 134.73421304 399.72279393 126.79032898 395.95077515 C123.47740795 394.82193227 120.75674386 394.73199671 117.25708008 394.70947266 C116.5994165 394.70275543 115.94175293 394.69603821 115.26416016 394.68911743 C113.09920598 394.67018901 110.93456294 394.66621528 108.76953125 394.6640625 C107.25363542 394.65762872 105.73774081 394.65089993 104.22184753 394.64389038 C101.04524868 394.63192887 97.86875845 394.62820816 94.69213867 394.62939453 C90.64503503 394.62959714 86.5986382 394.60235103 82.55170155 394.56785011 C79.41931539 394.54547547 76.28709613 394.54156027 73.15463829 394.54261398 C71.66406518 394.54027173 70.17348649 394.53152671 68.68299294 394.51594925 C57.25033874 394.40769376 48.00097525 395.90675123 38.828125 403.140625 C35.44289862 406.5837185 33.22000392 410.74499248 31 415 C27.80621368 411.92931465 25.33233928 408.75122187 22.85546875 405.09765625 C21.05346067 403.06043869 19.65270791 402.18705586 17.34765625 400.828125 C15.23900373 399.35337727 14.18532559 398.54770894 13.35424805 396.09155273 C13.11168665 393.58804195 13.13947876 391.20090153 13.25 388.6875 C13.2708667 387.72344238 13.2917334 386.75938477 13.31323242 385.76611328 C13.70666694 375.25590517 15.02445405 364.80614098 16.3125 354.375 C16.41864624 353.5140976 16.52479248 352.65319519 16.63415527 351.76620483 C17.78642106 342.5870773 19.1115991 333.58416964 21.3894043 324.6081543 C21.95312332 322.20023332 22.28886953 319.8981719 22.5 317.4375 C22.91396139 313.01129743 23.94032197 308.86016705 25.07421875 304.56640625 C25.74203064 301.99378071 26.3675261 299.43002241 26.95703125 296.83984375 C30.57885897 281.21676229 35.78683706 266.14530031 41 251 C41.67586349 249.01825721 42.35165226 247.03648894 43.02734375 245.0546875 C46.80761665 234.03956316 50.77007763 223.20164776 56.11328125 212.83203125 C57.27450474 210.43285143 58.1314058 207.93696948 59.0390625 205.43359375 C63.56474062 193.97222191 69.44279339 182.98450449 75 172 C74.46221924 172.12117187 73.92443848 172.24234375 73.37036133 172.3671875 C52.12226464 177.08243781 35.34128686 177.01213627 16 166 C13.8001399 164.44781594 11.96339494 162.86522519 10 161 C10 160.34 10 159.68 10 159 C11.88502225 157.47982076 13.7502932 156.1052196 15.75 154.75 C16.34200195 154.34813477 16.93400391 153.94626953 17.54394531 153.53222656 C28.38379342 146.31144241 39.48012204 142.21939719 52 139 C53.80017578 138.53400391 53.80017578 138.53400391 55.63671875 138.05859375 C64.40377323 135.98928899 73.03186615 135.33776089 82 135 C82 134.01 82 133.02 82 132 C80.9790625 131.85304687 80.9790625 131.85304687 79.9375 131.703125 C47.37875314 126.68076511 12.90444527 116.38059687 -12 94 C-12.93714844 93.19175781 -13.87429687 92.38351563 -14.83984375 91.55078125 C-25.12482356 82.11230183 -32.59187474 68.92758598 -33.40625 54.77734375 C-33.8366363 38.56105216 -31.53508005 26.22033233 -20 14 C-14.17399228 8.03644741 -8.03438335 2.68842827 0 0 Z " fill="#7B2E2F" transform="translate(124,43)"/>
<path d="M0 0 C2.42639932 0.11285578 4.40487447 0.3097766 6.6875 1.125 C7.1825 2.115 7.1825 2.115 7.6875 3.125 C9.61219088 3.51868517 9.61219088 3.51868517 11.875 3.625 C17.3335211 4.11886619 21.83146213 5.62340474 26.6875 8.125 C27.76 8.57875 28.8325 9.0325 29.9375 9.5 C47.17503806 16.82410416 65.12708686 27.49102342 72.76171875 45.296875 C73.95779655 48.95071605 74.33443901 52.39654387 74.44921875 56.2265625 C74.52785156 56.85304687 74.60648438 57.47953125 74.6875 58.125 C75.3475 58.455 76.0075 58.785 76.6875 59.125 C76.6875 60.445 76.6875 61.765 76.6875 63.125 C76.0275 63.125 75.3675 63.125 74.6875 63.125 C74.6875 66.425 74.6875 69.725 74.6875 73.125 C75.3475 73.125 76.0075 73.125 76.6875 73.125 C76.6875 74.775 76.6875 76.425 76.6875 78.125 C75.6975 78.62 75.6975 78.62 74.6875 79.125 C74.749375 80.259375 74.81125 81.39375 74.875 82.5625 C74.83716225 93.30842001 68.81047788 103.42448338 61.6875 111.125 C60.35416667 111.79166667 59.02083333 112.45833333 57.6875 113.125 C57.3575 114.115 57.0275 115.105 56.6875 116.125 C54.64602068 117.59988849 52.65650327 118.90596168 50.5 120.1875 C49.65211914 120.7144043 49.65211914 120.7144043 48.78710938 121.25195312 C44.75364878 123.69605467 40.51162443 126.125 35.6875 126.125 C35.3575 126.785 35.0275 127.445 34.6875 128.125 C32.91015625 128.7578125 32.91015625 128.7578125 30.75 129.25 C30.03972656 129.41757813 29.32945312 129.58515625 28.59765625 129.7578125 C26.6875 130.125 26.6875 130.125 24.6875 130.125 C24.3575 130.785 24.0275 131.445 23.6875 132.125 C21.140625 132.7578125 21.140625 132.7578125 17.9375 133.25 C16.89078125 133.41757813 15.8440625 133.58515625 14.765625 133.7578125 C12.0313423 134.08398328 9.43642942 134.19626854 6.6875 134.125 C6.3575 134.785 6.0275 135.445 5.6875 136.125 C4.53121094 136.10759766 4.53121094 136.10759766 3.3515625 136.08984375 C2.34867187 136.08082031 1.34578125 136.07179687 0.3125 136.0625 C-1.18410156 136.04509766 -1.18410156 136.04509766 -2.7109375 136.02734375 C-5.29682453 135.94493398 -5.29682453 135.94493398 -7.3125 137.125 C-9.64583333 137.125 -11.97916667 137.125 -14.3125 137.125 C-14.6425 137.455 -14.9725 137.785 -15.3125 138.125 C-17.53105264 138.21283542 -19.75238496 138.23194609 -21.97265625 138.22265625 C-22.96935585 138.22053383 -22.96935585 138.22053383 -23.9861908 138.21836853 C-26.11583899 138.21275518 -28.24538339 138.20020054 -30.375 138.1875 C-31.81575369 138.18248671 -33.25650903 138.17792351 -34.69726562 138.17382812 C-38.23571102 138.16278145 -41.77409539 138.14550792 -45.3125 138.125 C-45.3125 137.465 -45.3125 136.805 -45.3125 136.125 C-45.9725 136.125 -46.6325 136.125 -47.3125 136.125 C-48.4375 131.375 -48.4375 131.375 -47.3125 129.125 C-48.3025 129.125 -49.2925 129.125 -50.3125 129.125 C-50.56902344 128.38378906 -50.82554687 127.64257812 -51.08984375 126.87890625 C-56.20133244 112.81800976 -63.05882539 99.90762916 -72.3125 88.125 C-72.86292969 87.38378906 -73.41335938 86.64257812 -73.98046875 85.87890625 C-77.88788457 80.67211224 -82.17901341 75.90224357 -86.66918945 71.19750977 C-88.89489105 68.83454023 -90.27149796 67.24800613 -91.3125 64.125 C-92.93939134 62.51429039 -92.93939134 62.51429039 -94.9375 60.9375 C-99.11166485 57.38870642 -103.16979068 53.64264464 -106.3125 49.125 C-106.3125 46.125 -106.3125 46.125 -105.3125 44.125 C-104.6525 44.125 -103.9925 44.125 -103.3125 44.125 C-103.3125 44.785 -103.3125 45.445 -103.3125 46.125 C-102.63147217 46.11976318 -101.95044434 46.11452637 -101.2487793 46.10913086 C-98.16586223 46.08835542 -95.0829599 46.07533802 -92 46.0625 C-90.92814453 46.05412109 -89.85628906 46.04574219 -88.75195312 46.03710938 C-87.72392578 46.03388672 -86.69589844 46.03066406 -85.63671875 46.02734375 C-84.68885498 46.02210693 -83.74099121 46.01687012 -82.7644043 46.01147461 C-80.3125 46.125 -80.3125 46.125 -77.3125 47.125 C-75.72149339 47.24936298 -74.12647022 47.32592018 -72.53125 47.37109375 C-71.60699219 47.40396484 -70.68273437 47.43683594 -69.73046875 47.47070312 C-67.7852751 47.5318973 -65.83995478 47.58918966 -63.89453125 47.64257812 C-62.50814453 47.69381836 -62.50814453 47.69381836 -61.09375 47.74609375 C-59.8262793 47.78367798 -59.8262793 47.78367798 -58.53320312 47.82202148 C-56.3125 48.125 -56.3125 48.125 -53.3125 50.125 C-50.8023448 50.29202383 -50.8023448 50.29202383 -48.0625 50.125 C-43.31808789 50.01817218 -39.79629482 50.69400165 -35.3125 52.125 C-34.6525 51.795 -33.9925 51.465 -33.3125 51.125 C-31.8275 51.62 -31.8275 51.62 -30.3125 52.125 C-28.91810336 52.19165376 -27.52080125 52.21038199 -26.125 52.1875 C-24.866875 52.166875 -23.60875 52.14625 -22.3125 52.125 C-22.3125 52.785 -22.3125 53.445 -22.3125 54.125 C-14.0625 54.125 -5.8125 54.125 2.6875 54.125 C3.1825 53.135 3.1825 53.135 3.6875 52.125 C4.6775 51.815625 5.6675 51.50625 6.6875 51.1875 C7.6775 50.836875 8.6675 50.48625 9.6875 50.125 C10.0175 49.135 10.3475 48.145 10.6875 47.125 C11.3475 47.125 12.0075 47.125 12.6875 47.125 C12.20099578 42.34104185 11.55805812 38.56757553 9.6875 34.125 C9.48640625 32.75408203 9.48640625 32.75408203 9.28125 31.35546875 C8.65649764 27.95632267 7.58715961 25.2158029 6.1875 22.0625 C4.89284213 19.13822917 3.76727441 16.55815014 3.1875 13.41015625 C2.837228 10.82504201 2.837228 10.82504201 0.1875 8.625 C-2.44892949 5.98857051 -3.10909029 4.7863747 -3.3125 1.125 C-2.3125 0.125 -2.3125 0.125 0 0 Z " fill="#FEFDFD" transform="translate(430.3125,70.875)"/>
<path d="M0 0 C1.29862473 -0.01283524 2.59724945 -0.02567047 3.93522644 -0.03889465 C5.36086648 -0.0470639 6.78651084 -0.05450728 8.2121582 -0.0612793 C9.28852508 -0.06739259 9.28852508 -0.06739259 10.38663673 -0.07362938 C14.18776792 -0.094497 17.98886297 -0.10879332 21.79003906 -0.11816406 C25.70633381 -0.12920501 29.62205667 -0.16357526 33.53814983 -0.20333576 C36.55716465 -0.22955748 39.57604468 -0.23786097 42.59516335 -0.24144554 C44.03799089 -0.24630049 45.48081285 -0.25788337 46.92352867 -0.27648354 C61.23977911 -0.44951999 61.23977911 -0.44951999 66.82543945 4.17700195 C73.41785173 12.82812911 68.08209783 35.41927452 67.34414673 45.50457764 C66.87792812 51.87639075 66.42805259 58.24935745 65.9777832 64.62231445 C65.93073935 65.28548801 65.88369549 65.94866158 65.83522606 66.6319313 C65.07430326 77.37047715 64.3728567 88.11201515 63.7043457 98.85668945 C63.63658117 99.94299526 63.63658117 99.94299526 63.56744766 101.05124664 C63.12518128 108.14345953 62.68688967 115.23589677 62.25699711 122.32887077 C62.05981303 125.56747443 61.85815691 128.8058012 61.6574707 132.04418945 C61.55300377 133.80422806 61.55300377 133.80422806 61.44642639 135.599823 C61.37918869 136.67571686 61.31195099 137.75161072 61.24267578 138.86010742 C61.18590164 139.79547333 61.1291275 140.73083923 61.07063293 141.69454956 C60.82543945 144.17700195 60.82543945 144.17700195 59.82543945 148.17700195 C46.62543945 148.17700195 33.42543945 148.17700195 19.82543945 148.17700195 C19.82543945 132.42619809 19.82543945 132.42619809 20.34106445 125.66918945 C20.39685165 124.91928238 20.45263885 124.16937531 20.51011658 123.39674377 C20.69356161 120.94808892 20.88441192 118.50007589 21.07543945 116.05200195 C21.20779286 114.30602259 21.33969796 112.56000919 21.47119141 110.81396484 C21.83507518 106.0021835 22.20594166 101.19096268 22.57818604 96.37982178 C22.93338916 91.7786655 23.28487847 87.17722711 23.6366272 82.57580566 C24.69166718 68.77559157 25.7557996 54.97609148 26.82543945 41.17700195 C22.20543945 41.50700195 17.58543945 41.83700195 12.82543945 42.17700195 C12.46192383 43.21856445 12.0984082 44.26012695 11.72387695 45.33325195 C9.08642494 52.86490832 6.41668374 60.38367603 3.63793945 67.86450195 C3.40059082 68.51032227 3.16324219 69.15614258 2.91870117 69.8215332 C1.43483673 73.78680059 -0.26472889 77.35733863 -2.17456055 81.17700195 C4.42543945 81.17700195 11.02543945 81.17700195 17.82543945 81.17700195 C17.82543945 87.06709315 17.71726872 92.10990209 16.95043945 97.8371582 C16.78801758 99.07344971 16.6255957 100.30974121 16.45825195 101.58349609 C16.24942383 103.11997803 16.0405957 104.65645996 15.82543945 106.23950195 C14.83543945 113.63356445 14.83543945 113.63356445 13.82543945 121.17700195 C-1.51956055 121.67200195 -1.51956055 121.67200195 -17.17456055 122.17700195 C-19.34528115 128.11384258 -19.34528115 128.11384258 -21.51171875 134.05224609 C-21.78846436 134.80626709 -22.06520996 135.56028809 -22.3503418 136.3371582 C-22.7666687 137.47616577 -22.7666687 137.47616577 -23.19140625 138.63818359 C-24.43570219 141.85135306 -25.81723957 145.00991967 -27.17456055 148.17700195 C-41.03456055 148.17700195 -54.89456055 148.17700195 -69.17456055 148.17700195 C-67.37133427 142.1662477 -65.88258516 137.33587259 -63.3347168 131.83325195 C-61.85872545 128.45387783 -60.57764293 125.00956846 -59.29956055 121.55200195 C-57.31508914 116.184623 -55.26436656 110.85431196 -53.11206055 105.55200195 C-50.68920507 99.5486342 -48.47446099 93.49441056 -46.3269043 87.38793945 C-45.0221771 83.75239453 -43.59685137 80.17908907 -42.1394043 76.6027832 C-41.09576154 73.97888784 -40.12971357 71.33433429 -39.17456055 68.67700195 C-37.65658196 64.46299963 -36.04402434 60.30202804 -34.3659668 56.1496582 C-30.73227377 47.08329626 -27.19940767 37.97413668 -23.79931641 28.81762695 C-23.06221643 26.83602572 -22.31691298 24.85770406 -21.5690918 22.88012695 C-20.67333127 20.50146875 -19.79424173 18.11642835 -18.9362793 15.72387695 C-15.30218644 6.11187891 -10.69607619 0.09180556 0 0 Z " fill="#78797D" transform="translate(185.174560546875,451.822998046875)"/>
<path d="M0 0 C13.53 0 27.06 0 41 0 C40.34467168 5.24262656 39.64866704 9.95063016 38.44140625 15.02734375 C38.29219223 15.66056046 38.14297821 16.29377716 37.98924255 16.94618225 C37.51758752 18.94424253 37.04026067 20.94089185 36.5625 22.9375 C36.08958632 24.93082265 35.61786436 26.92442384 35.14646912 28.91810608 C34.71750303 30.72963662 34.28572235 32.5405 33.85375977 34.35131836 C32.86900091 38.55984597 31.93761787 42.78071956 31 47 C40.24 47 49.48 47 59 47 C59.4125 44.36 59.825 41.72 60.25 39 C61.68323325 30.1799792 63.72764189 21.63830253 66 13 C66.99 9.04 67.98 5.08 69 1 C82.53 1 96.06 1 110 1 C108.87628866 12.2371134 108.87628866 12.2371134 107.765625 16.41796875 C107.52360352 17.35141113 107.28158203 18.28485352 107.03222656 19.24658203 C106.7740918 20.21708496 106.51595703 21.18758789 106.25 22.1875 C103.81743115 31.58606145 101.6264014 41.00764256 99.64941406 50.51245117 C98.90081057 54.06895759 98.16410336 57.51599086 96.99609375 60.9609375 C95.49185619 65.55033679 94.71170728 70.26018016 93.8125 75 C91.66976599 86.01989156 89.19227033 96.93792281 86.59814453 107.859375 C84.43033028 117.02952625 82.43612233 126.22329546 80.59765625 135.46508789 C80.41460937 136.37379639 80.2315625 137.28250488 80.04296875 138.21875 C79.88852295 139.00185547 79.73407715 139.78496094 79.57495117 140.59179688 C78.89426304 143.44288295 77.92693194 146.21920419 77 149 C63.47 149 49.94 149 36 149 C37.11171171 138.99459459 37.11171171 138.99459459 38.4375 134.6875 C39.56715224 130.78010383 40.38654435 126.95846981 41 122.9375 C41.57123364 119.2504465 42.29013356 115.79910759 43.4375 112.25 C45.29790495 106.45158052 46.28948636 100.52304429 47.3515625 94.5390625 C47.81516628 92.00879125 48.37610328 89.49558689 49 87 C39.76 87 30.52 87 21 87 C20.67 89.97 20.34 92.94 20 96 C19.3759958 98.01371875 18.71321239 100.01612185 18 102 C17.52674785 104.11732465 17.09242527 106.24355289 16.6875 108.375 C16.43327116 109.68508629 16.17798215 110.9949671 15.921875 112.3046875 C15.70821289 113.40055176 15.70821289 113.40055176 15.49023438 114.51855469 C14.50245024 119.51847399 13.46984629 124.5091266 12.4375 129.5 C12.22762451 130.52657715 12.01774902 131.5531543 11.80151367 132.61083984 C11.5976001 133.5952002 11.39368652 134.57956055 11.18359375 135.59375 C11.00368896 136.46708984 10.82378418 137.34042969 10.63842773 138.24023438 C9.87888236 141.52356167 8.92582028 144.75962901 8 148 C-5.53 148 -19.06 148 -33 148 C-31.87904067 135.66944734 -31.87904067 135.66944734 -30.6171875 131.09765625 C-29.53141553 127.01317952 -28.5027981 122.93105957 -27.5703125 118.80859375 C-27.33481689 117.7714624 -27.09932129 116.73433105 -26.85668945 115.66577148 C-26.61523193 114.60044189 -26.37377441 113.5351123 -26.125 112.4375 C-24.33022099 104.5605703 -22.44133124 96.73068882 -20.3125 88.9375 C-18.57453943 82.53932037 -17.23665137 76.17631907 -16.16333008 69.63598633 C-14.06725583 57.08433784 -11.10287949 44.63361999 -7.60546875 32.40234375 C-6.9389708 29.7578519 -6.52396108 27.13506252 -6.125 24.4375 C-4.67933312 16.16507286 -2.24761898 8.09142833 0 0 Z " fill="#797A7D" transform="translate(398,452)"/>
<path d="M0 0 C1.21551544 -0.00428513 2.43103088 -0.00857025 3.68338013 -0.01298523 C6.25033954 -0.01871914 8.8173152 -0.01923573 11.38427734 -0.01489258 C15.29943749 -0.01173558 19.2138396 -0.03519469 23.12890625 -0.06054688 C25.62760322 -0.06282033 28.12630221 -0.06352315 30.625 -0.0625 C31.78981903 -0.07170975 32.95463806 -0.08091949 34.15475464 -0.09040833 C43.15727955 -0.03948637 50.10394668 1.31538386 56.90625 7.55859375 C62.8479512 14.28447886 63.62519092 21.94754012 63.6328125 30.61328125 C63.64505859 31.33451172 63.65730469 32.05574219 63.66992188 32.79882812 C63.67185547 33.51748047 63.67378906 34.23613281 63.67578125 34.9765625 C63.67989014 35.61505127 63.68399902 36.25354004 63.68823242 36.91137695 C63.32988713 40.43612611 62.30459633 43.86364593 61.4453125 47.30078125 C47.5853125 47.30078125 33.7253125 47.30078125 19.4453125 47.30078125 C19.7753125 45.32078125 20.1053125 43.34078125 20.4453125 41.30078125 C10.0503125 41.79578125 10.0503125 41.79578125 -0.5546875 42.30078125 C3.44281383 45.49878232 7.07657637 47.78955804 11.5703125 50.05078125 C26.1355069 57.64800371 39.71319238 67.61695621 44.85205078 83.88720703 C45.82579324 87.84869588 45.93386466 91.67396201 45.8828125 95.73828125 C45.87523926 96.5986499 45.86766602 97.45901855 45.85986328 98.34545898 C45.52970269 111.50488907 43.01115846 124.31319591 35.4453125 135.30078125 C34.99414062 135.96335937 34.54296875 136.6259375 34.078125 137.30859375 C30.1864324 142.3875824 25.0861999 145.41821324 19.4453125 148.30078125 C18.02762573 149.07192261 18.02762573 149.07192261 16.58129883 149.85864258 C11.15308187 152.1497797 5.40602324 151.74876628 -0.390625 151.734375 C-1.62454987 151.73961685 -2.85847473 151.7448587 -4.12979126 151.7502594 C-6.73365529 151.75666809 -9.33754831 151.75535761 -11.94140625 151.74682617 C-15.90938303 151.73832475 -19.87591554 151.76708348 -23.84375 151.79882812 C-26.3802079 151.80044059 -28.91666834 151.79986174 -31.453125 151.796875 C-32.63151947 151.80810898 -33.80991394 151.81934296 -35.02401733 151.83091736 C-43.52174381 151.75960857 -49.98011021 150.48681753 -56.4296875 144.73828125 C-57.1309375 143.93390625 -57.8321875 143.12953125 -58.5546875 142.30078125 C-59.05871094 141.83929687 -59.56273437 141.3778125 -60.08203125 140.90234375 C-64.33456247 136.27757505 -65.04108884 129.22391386 -64.8515625 123.1875 C-64.04299723 115.32526665 -62.49113718 107.64190546 -59.5546875 100.30078125 C-58.5646875 94.36078125 -58.5646875 94.36078125 -57.5546875 88.30078125 C-44.0246875 88.30078125 -30.4946875 88.30078125 -16.5546875 88.30078125 C-17.5546875 99.30078125 -17.5546875 99.30078125 -20.5546875 110.30078125 C-12.6346875 110.30078125 -4.7146875 110.30078125 3.4453125 110.30078125 C2.97973761 100.52232436 2.97973761 100.52232436 1.4453125 96.30078125 C-0.0396875 95.80578125 -0.0396875 95.80578125 -1.5546875 95.30078125 C-1.5546875 94.64078125 -1.5546875 93.98078125 -1.5546875 93.30078125 C-2.24046875 93.048125 -2.92625 92.79546875 -3.6328125 92.53515625 C-7.00466097 91.11068551 -10.14157295 89.37949058 -13.3046875 87.55078125 C-13.92013428 87.19661133 -14.53558105 86.84244141 -15.16967773 86.47753906 C-20.10301654 83.61347795 -24.89324395 80.59180041 -29.5546875 77.30078125 C-30.4415625 76.70265625 -31.3284375 76.10453125 -32.2421875 75.48828125 C-35.69680412 72.22040066 -38.13924106 68.37932196 -40.5546875 64.30078125 C-41.10253906 63.38296875 -41.65039062 62.46515625 -42.21484375 61.51953125 C-43.82215651 57.65823179 -43.96924512 54.28406435 -43.8671875 50.17578125 C-43.8559082 49.42876953 -43.84462891 48.68175781 -43.83300781 47.91210938 C-43.49592242 34.13300468 -40.4543475 22.11478459 -31.5546875 11.30078125 C-29.04040971 9.03348556 -26.39740673 7.1328872 -23.5546875 5.30078125 C-22.6884375 4.72328125 -21.8221875 4.14578125 -20.9296875 3.55078125 C-14.02465789 -0.08344486 -7.64704972 -0.00596268 0 0 Z " fill="#78797C" transform="translate(80.5546875,450.69921875)"/>
<path d="M0 0 C3.89560723 0.05280853 7.787259 0.04108858 11.68310547 0.02148438 C14.18442847 0.03329421 16.68573737 0.04879199 19.18701172 0.06835938 C20.33828552 0.06451233 21.48955933 0.06066528 22.67572021 0.05670166 C31.26843653 0.23099899 38.0744442 2.17358256 44.57763672 7.97851562 C51.6952192 17.71180966 51.90227787 27.04558632 51.14013672 38.80273438 C50.48013672 41.77273438 49.82013672 44.74273437 49.14013672 47.80273438 C35.61013672 47.80273438 22.08013672 47.80273438 8.14013672 47.80273438 C8.14013672 45.82273437 8.14013672 43.84273438 8.14013672 41.80273438 C1.21013672 41.80273438 -5.71986328 41.80273438 -12.85986328 41.80273438 C-9.81703704 44.84556062 -7.85455696 46.60319309 -4.29736328 48.67773438 C-2.97671875 49.45697266 -2.97671875 49.45697266 -1.62939453 50.25195312 C0.16258221 51.255359 1.9773555 52.21951044 3.81591797 53.13476562 C17.12548619 59.81844171 28.13049138 70.564795 33.14013672 84.80273438 C33.82763672 88.05273438 33.82763672 88.05273438 34.14013672 91.80273438 C34.20458984 92.51171875 34.26904297 93.22070312 34.33544922 93.95117188 C35.08683387 109.83043427 31.17940658 126.57469855 21.20263672 138.99023438 C15.31401653 145.28599357 5.4344235 151.40961916 -3.32400513 151.95663452 C-4.30279633 151.96949493 -5.28158752 151.98235535 -6.29003906 151.99560547 C-7.40194611 152.0116684 -8.51385315 152.02773132 -9.65945435 152.04428101 C-14.75457096 152.08885043 -19.84955801 152.12981312 -24.94482422 152.15283203 C-27.6277914 152.16613051 -30.30999059 152.19390751 -32.99267578 152.23486328 C-36.86790752 152.28980061 -40.74210634 152.31153549 -44.61767578 152.32617188 C-45.80861847 152.34884125 -46.99956116 152.37151062 -48.22659302 152.39486694 C-56.91282055 152.37297481 -62.54786685 150.46427711 -69.16455078 144.84570312 C-75.91383194 136.87080623 -77.6664081 130.20958764 -76.85986328 119.80273438 C-75.9449842 114.72219137 -74.7065068 109.73745859 -73.42236328 104.74023438 C-73.09246874 103.41043323 -72.76368568 102.08035583 -72.43603516 100.75 C-70.04596618 91.17494018 -70.04596618 91.17494018 -68.85986328 88.80273438 C-55.32986328 88.80273438 -41.79986328 88.80273438 -27.85986328 88.80273438 C-29.85986328 99.80273438 -29.85986328 99.80273438 -32.85986328 110.80273438 C-24.93986328 110.80273438 -17.01986328 110.80273438 -8.85986328 110.80273438 C-8.21248244 101.79594632 -8.21248244 101.79594632 -12.50439453 95.58007812 C-17.58841532 91.7438767 -23.29885069 88.88304462 -28.89599609 85.87402344 C-36.48160239 81.73607709 -43.13560673 77.30899319 -48.85986328 70.80273438 C-49.62298828 69.93648437 -50.38611328 69.07023438 -51.17236328 68.17773438 C-57.84084746 58.79246035 -56.42922431 46.10054688 -54.67236328 35.30273438 C-53.48484495 28.69368876 -51.98121458 23.2321216 -47.85986328 17.80273438 C-47.25529297 16.97386719 -46.65072266 16.145 -46.02783203 15.29101562 C-33.47114406 -0.29418707 -18.71211157 -0.2748645 0 0 Z " fill="#78797C" transform="translate(327.85986328125,450.197265625)"/>
<path d="M0 0 C13.53 0 27.06 0 41 0 C40.37190394 4.39667241 39.72543553 8.54829167 38.765625 12.8515625 C38.52352295 13.94041748 38.2814209 15.02927246 38.03198242 16.15112305 C37.77392822 17.29750244 37.51587402 18.44388184 37.25 19.625 C36.98485596 20.81327393 36.71971191 22.00154785 36.4465332 23.22583008 C34.57444833 31.57223177 32.62969931 39.89957844 30.56152344 48.19970703 C29.66354977 51.86932549 28.89814332 55.44892498 28.48828125 59.20703125 C28.02950931 62.77077165 27.13551525 65.60937756 26 69 C25.47621425 71.16999362 24.98466588 73.34793289 24.51953125 75.53125 C24.10912598 77.43789429 24.10912598 77.43789429 23.69042969 79.38305664 C23.5474646 80.05370148 23.40449951 80.72434631 23.25720215 81.41531372 C22.49335925 84.99607627 21.71831014 88.5743951 20.94140625 92.15234375 C20.78211639 92.88601669 20.62282654 93.61968964 20.45870972 94.37559509 C18.54343859 103.15381074 16.48170085 111.89718909 14.39770508 120.63671875 C12.63775294 128.06867632 11.07256657 135.51296653 9.63964844 143.01342773 C9 146 9 146 8 148 C-5.53 148 -19.06 148 -33 148 C-31.81182781 139.68279466 -30.65268616 131.69666948 -28.7578125 123.5703125 C-28.54816864 122.65144257 -28.33852478 121.73257263 -28.12252808 120.78585815 C-27.68313021 118.86460621 -27.24107092 116.94396106 -26.79638672 115.02392578 C-26.12808542 112.1383223 -25.46759704 109.25102089 -24.80859375 106.36328125 C-22.90318323 98.0439943 -20.96080071 89.73794587 -18.86328125 81.46484375 C-17.09924121 74.48684852 -15.54008816 67.48107896 -14.0625 60.4375 C-13.54836989 58.01688612 -13.03404372 55.59631388 -12.51953125 53.17578125 C-12.2663916 51.98033691 -12.01325195 50.78489258 -11.75244141 49.55322266 C-10.59246577 44.07551811 -9.4260729 38.59927055 -8.25 33.125 C-8.05156494 32.18712646 -7.85312988 31.24925293 -7.64868164 30.28295898 C-6.66956432 25.73511193 -5.48128487 21.4136243 -4 17 C-3.44465534 14.41724878 -2.91942281 11.84575354 -2.4375 9.25 C-1.12902607 2.25805215 -1.12902607 2.25805215 0 0 Z " fill="#797A7D" transform="translate(524,452)"/>
<path d="M0 0 C8.72913806 2.72785564 15.67580085 9.81358096 21 17 C25.3120801 25.89909149 25.73090495 38.74785196 23.09375 48.2734375 C21.90003873 51.00519984 20.58375463 53.47602165 19 56 C18.54238281 56.73734375 18.08476562 57.4746875 17.61328125 58.234375 C8.24578653 71.88781936 -7.4947369 75.68186991 -22.90429688 78.62329102 C-31.30255106 80.13290264 -39.47778278 80.11675506 -48 80.0625 C-49.36067544 80.05747487 -50.72135267 80.05291376 -52.08203125 80.04882812 C-55.38806725 80.03710459 -58.69401001 80.02069427 -62 80 C-62.20044922 79.45174561 -62.40089844 78.90349121 -62.60742188 78.33862305 C-68.19105938 63.25425541 -74.24200398 52.15172818 -86.09375 40.99609375 C-88 39 -88 39 -88 37 C-83.40989003 37.40599824 -78.82006402 37.81503077 -74.23046875 38.22680664 C-72.67097183 38.36630144 -71.1114021 38.50498485 -69.55175781 38.64282227 C-67.30253515 38.84174777 -65.05359548 39.04364542 -62.8046875 39.24609375 C-61.76838699 39.33678383 -61.76838699 39.33678383 -60.71115112 39.42930603 C-57.76701583 39.6968016 -54.87248279 40.02241689 -51.95996094 40.53442383 C-46.52691198 41.38899529 -41.0232702 41.22526886 -35.53466797 41.24023438 C-33.40161216 41.24987966 -31.26954669 41.28092448 -29.13671875 41.3125 C-19.71206275 41.38530215 -10.16046514 41.09627908 -1.875 36.125 C2.47128821 31.19920669 2.31840338 26.05980525 2.25 19.8125 C2.24613281 18.96840576 2.24226563 18.12431152 2.23828125 17.25463867 C2.15548163 11.28214085 1.52016228 5.7956187 0 0 Z " fill="#7C2F30" transform="translate(458,100)"/>
<path d="M0 0 C1.50336914 -0.00580078 1.50336914 -0.00580078 3.03710938 -0.01171875 C4.59848633 0.00568359 4.59848633 0.00568359 6.19140625 0.0234375 C7.22845703 0.01183594 8.26550781 0.00023437 9.33398438 -0.01171875 C18.80831499 0.02479119 18.80831499 0.02479119 22.75390625 3.3984375 C25.11339936 6.65678512 24.93618412 9.46310502 24.75390625 13.3984375 C24.2400922 15.68600322 23.64997534 17.95715034 23.00390625 20.2109375 C21.80859156 24.43669509 20.67141872 28.65288015 19.73828125 32.9453125 C19.49029785 34.0748938 19.49029785 34.0748938 19.23730469 35.22729492 C18.92324978 36.67845067 18.6186603 38.1316989 18.32519531 39.5871582 C16.94158632 45.89287291 14.82127465 49.84855806 9.6328125 53.73828125 C5.12857288 56.05224279 0.66460211 56.02370241 -4.30859375 55.9609375 C-5.61666992 55.99670898 -5.61666992 55.99670898 -6.95117188 56.03320312 C-11.33438196 56.02324883 -14.32886182 55.80688251 -17.8046875 52.98828125 C-21.1555139 49.43372461 -21.48905776 47.58446878 -21.42431641 42.71679688 C-21.10574731 38.57278019 -20.01484197 34.64963205 -18.93359375 30.6484375 C-18.46966591 28.88161177 -18.00612296 27.11468493 -17.54296875 25.34765625 C-17.20555664 24.07607666 -17.20555664 24.07607666 -16.86132812 22.77880859 C-16.06267559 19.68878389 -15.37998757 16.5753654 -14.68359375 13.4609375 C-12.74919513 5.74507785 -8.34400613 0.0309994 0 0 Z " fill="#7E3333" transform="translate(312.24609375,616.6015625)"/>
<path d="M0 0 C4.18076075 -0.14883585 8.36010137 -0.25743418 12.54272461 -0.32958984 C13.9638964 -0.35967954 15.38488372 -0.40056404 16.80541992 -0.45263672 C28.54746577 -0.87214238 28.54746577 -0.87214238 32.05297852 1.23266602 C34.80450194 4.3689218 35.6933741 7.56897557 35.4375 11.7109375 C34.55289505 16.33931696 32.75242026 20.64358177 31 25 C29.82654912 27.96353534 29.82654912 27.96353534 30.05859375 31.1015625 C29.98892809 35.73665133 29.11541866 39.87914662 28.0625 44.375 C27.78889648 45.60283203 27.78889648 45.60283203 27.50976562 46.85546875 C26.14074248 52.85925752 26.14074248 52.85925752 25 54 C23.31391034 54.07205511 21.62499341 54.08386068 19.9375 54.0625 C19.01839844 54.05347656 18.09929687 54.04445313 17.15234375 54.03515625 C16.44207031 54.02355469 15.73179687 54.01195312 15 54 C15.40841364 45.9303097 16.65840922 38.73743039 19 31 C14.05 31.33 9.1 31.66 4 32 C3.65066406 33.50433594 3.30132812 35.00867188 2.94140625 36.55859375 C2.48195981 38.51827348 2.02231412 40.47790651 1.5625 42.4375 C1.33240234 43.43072266 1.10230469 44.42394531 0.86523438 45.44726562 C0.64287109 46.39150391 0.42050781 47.33574219 0.19140625 48.30859375 C-0.01282959 49.18314209 -0.21706543 50.05769043 -0.42749023 50.95874023 C-1 53 -1 53 -2 54 C-3.68608966 54.07205511 -5.37500659 54.08386068 -7.0625 54.0625 C-7.98160156 54.05347656 -8.90070313 54.04445313 -9.84765625 54.03515625 C-10.55792969 54.02355469 -11.26820313 54.01195312 -12 54 C-12.34929699 48.76054515 -11.45330734 44.62591751 -9.984375 39.609375 C-8.4417435 33.95305948 -7.22218515 28.22425524 -5.9777832 22.49584961 C-4.29549583 14.90326768 -2.19315115 7.45807823 0 0 Z " fill="#7E3233" transform="translate(361,617)"/>
<path d="M0 0 C4.01993847 -0.12426099 8.03912279 -0.21464411 12.06054688 -0.2746582 C13.42630503 -0.2996928 14.79193067 -0.33373218 16.15722656 -0.37719727 C28.96220707 -0.77443206 28.96220707 -0.77443206 32.8984375 2.22265625 C36.19890907 6.58443187 35.64760176 9.76456891 35 15 C34.90332031 15.79277344 34.80664062 16.58554687 34.70703125 17.40234375 C33.80340402 22.63622422 32.06020616 27.41363941 28 31 C22.40005095 34.05516208 17.86367631 34.38552246 11.5625 34.1875 C10.32209961 34.16719727 10.32209961 34.16719727 9.05664062 34.14648438 C7.0374736 34.11146992 5.01864682 34.05767562 3 34 C2.87882813 34.68964844 2.75765625 35.37929688 2.6328125 36.08984375 C1.56140094 42.09799013 0.36517177 48.05175157 -1 54 C-4.63 54 -8.26 54 -12 54 C-11.39850896 47.51027128 -10.29309165 41.36598936 -8.75 35.0390625 C-8.53182617 34.12667816 -8.31365234 33.21429382 -8.08886719 32.27426147 C-7.39765761 29.38992623 -6.69878958 26.50750701 -6 23.625 C-5.53078022 21.66808133 -5.0620259 19.711051 -4.59375 17.75390625 C-4.1462549 15.89052371 -3.69835275 14.02723887 -3.25 12.1640625 C-3.03956055 11.28908112 -2.82912109 10.41409973 -2.61230469 9.51260376 C-2.41540039 8.701008 -2.21849609 7.88941223 -2.015625 7.05322266 C-1.84321289 6.34090485 -1.67080078 5.62858704 -1.49316406 4.89468384 C-1.06348382 3.24389807 -0.53941809 1.61825427 0 0 Z " fill="#7E3333" transform="translate(245,617)"/>
<path d="M0 0 C11.22 0 22.44 0 34 0 C33.34 3.63 32.68 7.26 32 11 C24.08 11 16.16 11 8 11 C7.67 13.64 7.34 16.28 7 19 C13.93 19 20.86 19 28 19 C27 28 27 28 26 30 C18.74 30.33 11.48 30.66 4 31 C3.34 34.96 2.68 38.92 2 43 C9.26 43 16.52 43 24 43 C23 51 23 51 22 54 C10.78 54 -0.44 54 -12 54 C-10.87871148 41.66582633 -10.87871148 41.66582633 -9.6640625 37.2578125 C-9.26622559 35.76169434 -9.26622559 35.76169434 -8.86035156 34.23535156 C-8.57643555 33.16768555 -8.29251953 32.10001953 -8 31 C-7.3968006 28.51988403 -6.80075293 26.03802044 -6.2109375 23.5546875 C-5.90929687 22.29398438 -5.60765625 21.03328125 -5.296875 19.734375 C-4.83092771 17.78371432 -4.36502935 15.83304104 -3.90136719 13.88183594 C-3.44427055 11.95975877 -2.9839076 10.03845928 -2.5234375 8.1171875 C-2.1200415 6.42505127 -2.1200415 6.42505127 -1.70849609 4.69873047 C-1 2 -1 2 0 0 Z " fill="#7F3435" transform="translate(134,617)"/>
<path d="M0 0 C0.95068359 -0.020625 1.90136719 -0.04125 2.88085938 -0.0625 C11.75196487 -0.11209388 11.75196487 -0.11209388 15.6875 3.25 C18.14160358 6.93115537 17.92037843 8.90293598 17.6875 13.25 C17.3575 14.24 17.0275 15.23 16.6875 16.25 C13.0575 16.25 9.4275 16.25 5.6875 16.25 C6.0175 14.27 6.3475 12.29 6.6875 10.25 C4.56186897 10.36376617 2.4369739 10.49135631 0.3125 10.625 C-1.46253906 10.72941406 -1.46253906 10.72941406 -3.2734375 10.8359375 C-6.41812319 10.95217346 -6.41812319 10.95217346 -8.3125 13.25 C-8.38837826 15.25311915 -8.38837826 15.25311915 -7.3125 17.25 C-4.95399232 19.09071256 -4.95399232 19.09071256 -2.0625 20.6875 C2.13796146 23.22414231 5.45151099 25.58254579 8.6875 29.25 C9.0175 29.58 9.3475 29.91 9.6875 30.25 C10.29243135 36.86934499 10.23895601 43.44928852 6.6875 49.25 C3.60147188 52.6311401 0.36627281 55.01356096 -4.31787109 55.42700195 C-6.77453396 55.49337681 -9.2300907 55.53482647 -11.6875 55.5625 C-12.96367187 55.60600586 -12.96367187 55.60600586 -14.265625 55.65039062 C-18.42863677 55.6925395 -20.71578581 55.60971588 -24.3515625 53.41796875 C-27.64896271 49.77243664 -27.51872304 46.40546646 -27.48046875 41.74609375 C-27.21362588 37.78068457 -26.28979027 34.09808043 -25.3125 30.25 C-21.6825 30.25 -18.0525 30.25 -14.3125 30.25 C-14.80683509 34.981493 -15.32820402 39.59320474 -16.3125 44.25 C-14.18670987 44.19011859 -12.06171587 44.10137256 -9.9375 44 C-8.75414062 43.95359375 -7.57078125 43.9071875 -6.3515625 43.859375 C-3.27515735 43.568714 -3.27515735 43.568714 -1.8359375 41.515625 C-1.14352613 38.51862058 -1.11843215 37.12197733 -2.3125 34.25 C-4.57855678 32.56438209 -6.68324212 31.18430166 -9.125 29.8125 C-14.17653153 26.95324009 -17.54832446 24.59176923 -20.3125 19.25 C-21.07641409 14.69507299 -20.28036211 10.7210541 -17.7421875 6.86328125 C-12.01836723 0.19347395 -8.5270976 0.04569108 0 0 Z " fill="#7E3333" transform="translate(204.3125,616.75)"/>
<path d="M0 0 C11.22 0 22.44 0 34 0 C34.67546875 2.47113281 35.3509375 4.94226563 36.046875 7.48828125 C36.7144089 9.91802517 37.38349939 12.34733547 38.05273438 14.77661133 C38.51204054 16.44706412 38.96976291 18.11795331 39.42578125 19.78930664 C42.88303836 32.48004225 42.88303836 32.48004225 47.30957031 44.86010742 C48 47 48 47 48 51 C32.3407103 45.36840224 19.65885056 31.31786419 9.9375 18.3125 C9.50872559 17.7438623 9.07995117 17.17522461 8.63818359 16.58935547 C4.80532201 11.23606994 2.85352654 6.27775839 0 0 Z " fill="#7C2F30" transform="translate(186,687)"/>
<path d="M0 0 C12.87 0 25.74 0 39 0 C38.34 3.63 37.68 7.26 37 11 C32.05 11 27.1 11 22 11 C21.91878906 12.12277344 21.83757812 13.24554687 21.75390625 14.40234375 C20.88167267 22.25244601 18.78783197 29.89842657 16.9375 37.5625 C16.55614652 39.15938729 16.17528289 40.75639165 15.79492188 42.35351562 C14.86892785 46.23705086 13.93630342 50.11893801 13 54 C9.37 54 5.74 54 2 54 C3.95146197 39.45273808 7.39978698 25.21750791 11 11 C6.71 11 2.42 11 -2 11 C-1.125 2.25 -1.125 2.25 0 0 Z " fill="#7E3333" transform="translate(416,617)"/>
<path d="M0 0 C1.38294718 0.01329757 2.76582404 0.03715018 4.1484375 0.0703125 C4.85484375 0.07933594 5.56125 0.08835937 6.2890625 0.09765625 C8.03399848 0.12123647 9.77876045 0.15710789 11.5234375 0.1953125 C10.86214098 3.19658133 10.19538863 6.19641951 9.5234375 9.1953125 C9.29398437 10.22011719 9.06453125 11.24492188 8.828125 12.30078125 C4.24996378 32.46878622 4.24996378 32.46878622 2.5234375 34.1953125 C0.17030195 34.26802991 -2.18489918 34.27902118 -4.5390625 34.2578125 C-5.82941406 34.24878906 -7.11976563 34.23976563 -8.44921875 34.23046875 C-9.44824219 34.21886719 -10.44726562 34.20726562 -11.4765625 34.1953125 C-11.28201759 26.64343283 -9.76198153 19.45661733 -8.0390625 12.1328125 C-7.82161377 11.19219971 -7.60416504 10.25158691 -7.38012695 9.2824707 C-7.16573975 8.39648193 -6.95135254 7.51049316 -6.73046875 6.59765625 C-6.53783447 5.79835693 -6.3452002 4.99905762 -6.14672852 4.17553711 C-4.90932016 0.51920955 -3.82232384 0.21473729 0 0 Z " fill="#F9F6F6" transform="translate(314.4765625,626.8046875)"/>
<path d="M0 0 C5.28 0 10.56 0 16 0 C14.125 10.875 14.125 10.875 13 12 C10.46950598 12.07313567 7.96695163 12.09247527 5.4375 12.0625 C4.37112305 12.05573242 4.37112305 12.05573242 3.28320312 12.04882812 C1.52209987 12.03700864 -0.23896036 12.01907263 -2 12 C-1.34 8.04 -0.68 4.08 0 0 Z " fill="#F9F6F6" transform="translate(253,628)"/>
<path d="M0 0 C4.95 0 9.9 0 15 0 C14.125 8.875 14.125 8.875 13 10 C10.46950598 10.07313567 7.96695163 10.09247527 5.4375 10.0625 C4.37112305 10.05573242 4.37112305 10.05573242 3.28320312 10.04882812 C1.52209987 10.03700864 -0.23896036 10.01907263 -2 10 C-1.34 6.7 -0.68 3.4 0 0 Z " fill="#F5EFEF" transform="translate(369,628)"/>
<path d="M0 0 C6.93 0 13.86 0 21 0 C21 0.33 21 0.66 21 1 C14.07 1 7.14 1 0 1 C0 0.67 0 0.34 0 0 Z " fill="#FFFFFF" transform="translate(411,124)"/>
<path d="M0 0 C3.63 0 7.26 0 11 0 C11 0.33 11 0.66 11 1 C7.37 1 3.74 1 0 1 C0 0.67 0 0.34 0 0 Z " fill="#FFFFFF" transform="translate(330,116)"/>
<path d="M0 0 C1 4 1 4 1 4 Z " fill="#FFFFFF" transform="translate(567,517)"/>
<path d="M0 0 C1 4 1 4 1 4 Z " fill="#FFFFFF" transform="translate(123,362)"/>
<path d="M0 0 C1 4 1 4 1 4 Z " fill="#FFFFFF" transform="translate(505,150)"/>
<path d="M0 0 C1 4 1 4 1 4 Z " fill="#FFFFFF" transform="translate(505,125)"/>
<path d="M0 0 C4 1 4 1 4 1 Z " fill="#FFFFFF" transform="translate(378,120)"/>
<path d="M0 0 C4 1 4 1 4 1 Z " fill="#FFFFFF" transform="translate(259,112)"/>
<path d="M0 0 C4 1 4 1 4 1 Z " fill="#FFFFFF" transform="translate(194,104)"/>
<path d="" fill="#FFFFFF" transform="translate(0,0)"/>
<path d="" fill="#FFFFFF" transform="translate(0,0)"/>
<path d="" fill="#FFFFFF" transform="translate(0,0)"/>
<path d="" fill="#FFFFFF" transform="translate(0,0)"/>
<path d="" fill="#FFFFFF" transform="translate(0,0)"/>
<path d="" fill="#FFFFFF" transform="translate(0,0)"/>
<path d="M0 0 C3 1 3 1 3 1 Z " fill="#FFFFFF" transform="translate(437,205)"/>
<path d="M0 0 C3 1 3 1 3 1 Z " fill="#FFFFFF" transform="translate(296,163)"/>
<path d="" fill="#FFFFFF" transform="translate(0,0)"/>
<path d="" fill="#FFFFFF" transform="translate(0,0)"/>
<path d="" fill="#FFFFFF" transform="translate(0,0)"/>
<path d="" fill="#FFFFFF" transform="translate(0,0)"/>
<path d="M0 0 C2 1 2 1 2 1 Z " fill="#FFFFFF" transform="translate(530,616)"/>
<path d="M0 0 C2 1 2 1 2 1 Z " fill="#FFFFFF" transform="translate(27,616)"/>
<path d="" fill="#FFFFFF" transform="translate(0,0)"/>
<path d="" fill="#FFFFFF" transform="translate(0,0)"/>
<path d="" fill="#FFFFFF" transform="translate(0,0)"/>
<path d="M0 0 C2 1 2 1 2 1 Z " fill="#FFFFFF" transform="translate(148,240)"/>
<path d="M0 0 C2 1 2 1 2 1 Z " fill="#FFFFFF" transform="translate(455,201)"/>
<path d="M0 0 C2 1 2 1 2 1 Z " fill="#FFFFFF" transform="translate(466,197)"/>
<path d="M0 0 C2 1 2 1 2 1 Z " fill="#FFFFFF" transform="translate(313,167)"/>
<path d="M0 0 C2 1 2 1 2 1 Z " fill="#FFFFFF" transform="translate(292,116)"/>
<path d="M0 0 C2 1 2 1 2 1 Z " fill="#FFFFFF" transform="translate(439,73)"/>
<path d="" fill="#FFFFFF" transform="translate(0,0)"/>
<path d="" fill="#FFFFFF" transform="translate(0,0)"/>
<path d="" fill="#FFFFFF" transform="translate(0,0)"/>
<path d="" fill="#FFFFFF" transform="translate(0,0)"/>
<path d="" fill="#FFFFFF" transform="translate(0,0)"/>
<path d="" fill="#FFFFFF" transform="translate(0,0)"/>
<path d="" fill="#FFFFFF" transform="translate(0,0)"/>
<path d="" fill="#FFFFFF" transform="translate(0,0)"/>
<path d="" fill="#FFFFFF" transform="translate(0,0)"/>
<path d="" fill="#FFFFFF" transform="translate(0,0)"/>
<path d="" fill="#FFFFFF" transform="translate(0,0)"/>
<path d="" fill="#FFFFFF" transform="translate(0,0)"/>
<path d="" fill="#FFFFFF" transform="translate(0,0)"/>
<path d="" fill="#FFFFFF" transform="translate(0,0)"/>
<path d="" fill="#FFFFFF" transform="translate(0,0)"/>
<path d="" fill="#FFFFFF" transform="translate(0,0)"/>
<path d="" fill="#FFFFFF" transform="translate(0,0)"/>
<path d="" fill="#FFFFFF" transform="translate(0,0)"/>
<path d="" fill="#FFFFFF" transform="translate(0,0)"/>
<path d="" fill="#FFFFFF" transform="translate(0,0)"/>
<path d="" fill="#FFFFFF" transform="translate(0,0)"/>
<path d="" fill="#FFFFFF" transform="translate(0,0)"/>
<path d="" fill="#FFFFFF" transform="translate(0,0)"/>
<path d="" fill="#FFFFFF" transform="translate(0,0)"/>
<path d="" fill="#FFFFFF" transform="translate(0,0)"/>
<path d="" fill="#FFFFFF" transform="translate(0,0)"/>
<path d="" fill="#FFFFFF" transform="translate(0,0)"/>
<path d="" fill="#FFFFFF" transform="translate(0,0)"/>
<path d="" fill="#FFFFFF" transform="translate(0,0)"/>
<path d="" fill="#FFFFFF" transform="translate(0,0)"/>
<path d="" fill="#FFFFFF" transform="translate(0,0)"/>
</svg>
