<?xml version="1.0" encoding="UTF-8"?>
<svg version="1.1" xmlns="http://www.w3.org/2000/svg" width="900" height="1434">
<path d="M0 0 C13.34044935 1.45603724 25.95541333 15.00620755 34.3125 24.8125 C49.49714653 44.94389735 54.83146268 71.84153441 57.94921875 96.3359375 C58.11454102 97.6144458 58.27986328 98.8929541 58.45019531 100.21020508 C58.76580742 102.70521685 59.06444251 105.20245903 59.34277344 107.7019043 C60.83770997 119.81340973 64.38007906 130.94351563 74 139 C82.43371277 144.54692566 92.43436903 148.21933317 102.625 146.5 C110.36768974 144.32809796 118.29803234 139.55911524 122.44921875 132.5546875 C126.47726266 123.83784799 128.48005578 116.24691468 125.26171875 106.94140625 C119.36404137 93.19233173 111.27859464 80.41789196 103 68 C103 67.01 103 66.02 103 65 C106.14327856 66.28059497 108.07238908 68.03387893 110.40625 70.453125 C118.04951101 77.87158421 127.08594273 83.8035768 136.42578125 88.8515625 C146.09205555 94.35938116 154.46432268 103.47376849 160 113 C160.37237793 113.6276123 160.74475586 114.25522461 161.12841797 114.90185547 C172.05677244 133.59385037 180.07900935 154.57476216 186.703125 175.16796875 C189.55458262 183.9620847 194.27201019 191.8989643 200.71484375 198.51171875 C202 200 202 200 202 202 C202.85658203 202.38865234 202.85658203 202.38865234 203.73046875 202.78515625 C206.1962037 204.1050247 208.15767642 205.65776116 210.3125 207.4375 C216.60419004 212.37437261 222.92118357 215.2085753 231 215 C237.23241141 213.8475074 240.42022412 211.09846868 244 206 C245.14814997 203.70370006 245.30769809 201.92301914 245.5625 199.375 C245.64628906 198.55773437 245.73007812 197.74046875 245.81640625 196.8984375 C245.87699219 196.27195313 245.93757812 195.64546875 246 195 C250.65029974 196.45268143 253.72497713 199.14321153 257.1875 202.4375 C257.75412354 202.96956055 258.32074707 203.50162109 258.90454102 204.04980469 C268.1308105 212.8154743 277.37643867 222.10281014 282.83203125 233.7265625 C284.23814051 236.46353772 285.89090662 238.97882018 287.5625 241.5625 C298.44729314 259.08782925 305.92745834 278.29987888 312.21484375 297.8671875 C312.60397949 299.06698242 312.99311523 300.26677734 313.39404297 301.50292969 C314.15309673 303.85590119 314.8989927 306.21317273 315.62939453 308.57519531 C317.60568609 314.7303213 319.81351622 319.86728585 323.64819336 325.09326172 C325 327 325 327 326.03344727 329.17626953 C327.44546778 331.84052648 329.19236664 332.08588681 332 333 C333.0828125 333.556875 333.0828125 333.556875 334.1875 334.125 C340.56913256 336.1103968 346.25665745 335.68599557 352.3125 332.875 C357.66867505 329.89000449 360.68824874 326.81089555 363.3125 321.1875 C365.13133671 312.75471161 363.63376177 306.72796596 360 299 C359.66484375 298.25105469 359.3296875 297.50210937 358.984375 296.73046875 C357.12870521 292.76139725 355.24641445 290.0145277 352 287 C352 286.34 352 285.68 352 285 C351.45859375 284.77699219 350.9171875 284.55398438 350.359375 284.32421875 C347.25030152 282.57922552 344.82126169 280.24703587 342.25 277.8125 C341.17779211 276.81174008 340.10487498 275.8117395 339.03125 274.8125 C338.51175781 274.3278125 337.99226562 273.843125 337.45703125 273.34375 C335.59133471 271.62310761 333.67688215 269.96411327 331.75 268.3125 C330.49659382 267.21220141 329.24655776 266.10805134 328 265 C327.33355469 264.4121875 326.66710937 263.824375 325.98046875 263.21875 C319.27011296 256.957462 313.1244071 249.1154307 312.0625 239.75 C312.0315625 237.89375 312.0315625 237.89375 312 236 C313.9375 236.3125 313.9375 236.3125 316 237 C316.33 237.99 316.66 238.98 317 240 C318.866518 241.05703876 318.866518 241.05703876 321 242 C322.21972324 242.91676027 323.42097054 243.85847147 324.60546875 244.8203125 C329.18250329 248.31211447 334.07292538 250.54866866 339.3125 252.875 C347.29597084 256.55696319 354.26106323 260.29264756 361 266 C362.30130859 267.06154297 362.30130859 267.06154297 363.62890625 268.14453125 C379.05997467 281.27588754 388.16628506 301.12150432 391 321 C391.12309291 323.70025339 391.20720674 326.38100646 391.24609375 329.08203125 C391.27908914 330.67122828 391.31229964 332.26042087 391.34570312 333.84960938 C391.39255222 336.31270656 391.4369054 338.77579388 391.47680664 341.23901367 C391.71584965 355.35400261 392.10503419 369.7139802 396 383.375 C396.20367188 384.09010742 396.40734375 384.80521484 396.6171875 385.54199219 C399.02455612 393.64657446 402.10728534 401.53952109 405.2578125 409.38037109 C412.50732317 428.04273169 414.80915901 446.16028727 414.59692383 466.11450195 C414.56242805 469.69496848 414.57639642 473.27297673 414.59570312 476.85351562 C414.58438571 493.06920052 412.79219523 507.73957349 407.76953125 523.18359375 C406.8906877 526.40007193 406.28289261 529.62504874 405.67285156 532.90161133 C401.5196568 555.13624507 393.22778721 574.04572866 381 593 C380.37480469 594.00675781 379.74960937 595.01351562 379.10546875 596.05078125 C372.75958804 606.01549414 365.1956035 614.56985076 356 622 C355.13375 622.70125 354.2675 623.4025 353.375 624.125 C322.04083029 648.86250241 283.41939727 661.08119014 243.5 656.4296875 C238.6360894 655.77544295 233.81742297 654.93284374 229 654 C227.41251953 653.70996094 227.41251953 653.70996094 225.79296875 653.4140625 C204.73615708 648.87874922 177.95922189 636.96933012 163 621 C163 620.34 163 619.68 163 619 C162.4534375 618.78472656 161.906875 618.56945312 161.34375 618.34765625 C158.19435376 616.53675341 155.92901686 614.0912049 153.5 611.4375 C152.97954102 610.8695874 152.45908203 610.3016748 151.92285156 609.71655273 C135.33675904 591.17051204 123.69165953 570.19261701 118.75 545.75 C118.36714844 543.94789063 118.36714844 543.94789063 117.9765625 542.109375 C115.90222818 532.15257029 114.94326229 522.55147519 114.4050293 512.4050293 C112.12441065 470.8086953 102.20959335 432.88168956 76.65625 399.26171875 C75 397 75 397 73.54296875 394.51171875 C69.34293917 387.67470857 63.24231168 381.95660804 57.12890625 376.82421875 C55.600103 375.5142167 54.11191868 374.15624886 52.65234375 372.76953125 C45.26785172 365.76373112 37.26686545 360.00256247 28.86914062 354.27880859 C27.3343207 353.22873195 25.81354064 352.15816251 24.296875 351.08203125 C-9.90358699 327.15401018 -61.09307255 318.71164707 -101.78320312 325.51733398 C-117.39695558 328.43923425 -132.43268738 332.67902146 -147 339 C-148.64406333 339.62964127 -150.28975536 340.25505647 -151.9375 340.875 C-167.94334319 347.34093665 -184.01474713 356.01474713 -196.3125 368.3125 C-199.33192855 371.33192855 -202.50334858 374.12968467 -205.71875 376.9375 C-215.87180495 386.11697434 -223.88384328 396.68146213 -230.96826172 408.3125 C-231.94262376 409.90615603 -232.94130223 411.48487112 -233.94140625 413.0625 C-237.81163548 419.34848787 -240.48255025 425.58753609 -242.82421875 432.58203125 C-243.89647791 435.6990637 -245.11245652 438.67144866 -246.4375 441.6875 C-263.09392623 481.18103892 -266.80961504 526.84410641 -250.70703125 567.078125 C-248.44561766 572.44346583 -245.69446489 577.5336046 -242.859375 582.61328125 C-241.33087852 585.39732842 -239.98954955 588.17062908 -238.6875 591.0625 C-229.56800352 609.48572521 -210.80314924 625.79790051 -194 637 C-194 637.66 -194 638.32 -194 639 C-193.27103516 639.26377441 -192.54207031 639.52754883 -191.79101562 639.79931641 C-188.97929169 641.00890863 -186.80991209 642.40846616 -184.34375 644.2109375 C-179.18680398 647.8991089 -173.89339184 651.29495895 -168.5 654.625 C-167.62730469 655.1715625 -166.75460937 655.718125 -165.85546875 656.28125 C-160.05205567 659.87506728 -154.13420032 663.01415607 -148 666 C-146.71648393 666.65967194 -145.43504911 667.32341743 -144.15625 667.9921875 C-108.7448368 686.33417051 -72.41907762 691.29764131 -32.97724533 691.02162361 C-29.6196615 690.99814089 -26.26209485 690.98116686 -22.90446472 690.96574402 C-19.27893308 690.94904417 -15.65340777 690.93196505 -12.02788723 690.91299295 C-3.05615149 690.86650848 5.91546932 690.84144405 14.88731384 690.82891846 C16.19625534 690.82708392 17.50519683 690.82524938 18.85380322 690.82335925 C24.24163026 690.81627621 29.62945774 690.809949 35.01728642 690.80426168 C39.14474488 690.79981419 43.2722017 690.79456843 47.3996582 690.78857422 C48.08482375 690.7875893 48.76998931 690.78660437 49.47591745 690.78558961 C60.58600235 690.76831498 71.69548055 690.70802396 82.8053071 690.63295457 C94.26335102 690.5566105 105.7205162 690.53115437 117.17885011 690.54848695 C123.59229993 690.55649098 130.0038148 690.5417787 136.4169178 690.4708786 C142.44838163 690.40473129 148.47685661 690.40030358 154.5085125 690.44149208 C156.70905019 690.44590403 158.90976885 690.42846728 161.10990906 690.38641167 C176.3141702 690.11284417 184.94765173 692.89387996 196.13433444 703.32285547 C199.90877293 706.71589601 204.06622421 709.66152367 208.23611444 712.54774213 C208.81819668 713.02698723 209.40027891 713.50623232 210 714 C210 714.66 210 715.32 210 716 C210.680625 716.185625 211.36125 716.37125 212.0625 716.5625 C215.50597418 718.24760439 217.49556964 720.32803965 220.11328125 723.08203125 C221.98643147 724.98620673 223.94548117 726.67018651 226 728.375 C229.607894 731.47737335 232.32609106 734.88304061 235.16015625 738.6875 C237.08778184 741.11033302 239.15403403 743.21946976 241.375 745.375 C246.36226386 750.25293093 250.65761301 755.54950787 255 761 C255.97112274 762.1822509 256.94385698 763.36317943 257.91796875 764.54296875 C267.87401076 776.67426711 276.91137142 789.46436265 283 804 C283.72635353 805.55393981 284.46001697 807.10447453 285.19921875 808.65234375 C293.28343863 825.72625515 299.6877681 843.10268668 303.8125 861.5625 C303.99530518 862.37388428 304.17811035 863.18526855 304.36645508 864.02124023 C308.16794016 882.34323839 309.52775245 900.63803456 309.375 919.3125 C309.36802094 920.84713898 309.36802094 920.84713898 309.36090088 922.41278076 C309.27744012 938.11838293 308.75801197 953.50259941 306 969 C305.80132324 970.13920898 305.60264648 971.27841797 305.39794922 972.45214844 C300.43150673 1000.13774018 291.68239746 1026.0688774 281 1052 C280.72486572 1052.67329346 280.44973145 1053.34658691 280.16625977 1054.0402832 C269.28782901 1080.12095782 251.67266119 1102.49478261 234.22998047 1124.44091797 C233.07914145 1125.89968294 231.94704229 1127.37317741 230.81640625 1128.84765625 C227.13894263 1133.60040164 223.3868557 1137.68796086 218.7578125 1141.52734375 C216.83193205 1143.09051669 216.83193205 1143.09051669 214.625 1145.4375 C213 1147 213 1147 211 1147 C211 1147.66 211 1148.32 211 1149 C209.45111498 1150.41706502 207.83238466 1151.75809496 206.1875 1153.0625 C205.18589844 1153.86429688 204.18429687 1154.66609375 203.15234375 1155.4921875 C202.36899658 1156.11432129 202.36899658 1156.11432129 201.56982422 1156.74902344 C199.1124802 1158.70725528 196.68172496 1160.69760024 194.25 1162.6875 C193.40953125 1163.37199219 192.5690625 1164.05648438 191.703125 1164.76171875 C190.26530715 1165.95228179 188.83193554 1167.14922739 187.43603516 1168.38867188 C182.85823916 1172.4372963 178.01192645 1175.82287191 172.875 1179.125 C172.01479248 1179.68123047 171.15458496 1180.23746094 170.26831055 1180.81054688 C161.48585915 1186.42903028 152.46971578 1191.6272943 143.35400391 1196.68359375 C141.79502411 1197.55540655 140.24492587 1198.44331091 138.70458984 1199.34765625 C134.39505022 1201.84810357 130.26253619 1203.73370414 125.50488281 1205.20410156 C120.22296162 1206.88237282 115.06413666 1208.93233326 109.875 1210.875 C106.28339264 1212.20533137 102.69039171 1213.53181091 99.09667969 1214.85644531 C97.30415746 1215.51839534 95.51258823 1216.18296238 93.72363281 1216.85449219 C65.4132922 1227.44317983 34.00636278 1231.22485168 3.9375 1231.25 C2.83341797 1231.25101212 2.83341797 1231.25101212 1.70703125 1231.25204468 C-37.98773613 1231.19493221 -76.2314238 1222.82178251 -113 1208 C-113.97453125 1207.61714844 -114.9490625 1207.23429687 -115.953125 1206.83984375 C-133.93913732 1199.5913825 -152.64811791 1191.23241449 -167.71875 1178.828125 C-170.61774688 1176.50495627 -173.64937612 1174.38483082 -176.6875 1172.25 C-182.2702194 1168.30711431 -187.68590654 1164.19082623 -193.0300293 1159.93066406 C-193.564104 1159.50495117 -194.09817871 1159.07923828 -194.6484375 1158.640625 C-195.18694336 1158.21023926 -195.72544922 1157.77985352 -196.28027344 1157.33642578 C-197.48478385 1156.40038234 -198.70878095 1155.48913004 -199.94628906 1154.59716797 C-204.87691435 1151.04090408 -208.94317868 1147.1416365 -213 1142.625 C-214.22148584 1141.28799228 -215.44413233 1139.95204395 -216.66796875 1138.6171875 C-217.24466309 1137.98651367 -217.82135742 1137.35583984 -218.41552734 1136.70605469 C-220.32019748 1134.65523267 -222.29961122 1132.69431341 -224.3125 1130.75 C-228.44613531 1126.66868919 -232.03915084 1122.19975734 -235.66064453 1117.66455078 C-237.16506617 1115.79485579 -238.68866129 1113.94181523 -240.21484375 1112.08984375 C-255.50214376 1093.50925145 -255.50214376 1093.50925145 -260.58203125 1082.83984375 C-261.94010183 1080.11996135 -263.4193344 1077.49613048 -264.94580078 1074.86791992 C-287.67150676 1035.58235867 -301.36788075 992.50951 -303.54296875 947.07421875 C-303.58384109 946.2236792 -303.62471344 945.37313965 -303.66682434 944.49682617 C-303.86052288 940.30382255 -304.02355182 936.11231129 -304.1418457 931.91650391 C-304.51200442 920.87472225 -305.60699236 911.01998508 -314 903 C-321.26386199 898.28553578 -327.3023516 896.12530731 -336 897 C-344.29112685 899.15274065 -350.13213593 903.27952769 -355.3125 910 C-360.12736861 919.3874555 -359.24239214 931.50125893 -358.4375 941.6875 C-358.34380127 942.95988525 -358.25010254 944.23227051 -358.15356445 945.54321289 C-355.5327508 979.04161391 -350.85452393 1015.44288679 -337.5078125 1046.46875 C-336.13056605 1049.69421838 -335.14343897 1052.80988103 -334.1640625 1056.171875 C-332.14849044 1062.85478597 -329.45132274 1068.99479392 -326.375 1075.25 C-325.58113892 1076.87723999 -325.58113892 1076.87723999 -324.77124023 1078.53735352 C-315.49055321 1097.33412245 -304.23469415 1114.48837507 -290.87890625 1130.6640625 C-289.82159838 1131.97855336 -288.78077739 1133.30819936 -287.80297852 1134.68286133 C-283.3812733 1140.85335134 -278.19449943 1146.10166497 -272.8125 1151.4375 C-271.93013672 1152.32759766 -271.04777344 1153.21769531 -270.13867188 1154.13476562 C-261.61399424 1162.63460808 -252.32467894 1170.03932181 -242.80078125 1177.37109375 C-241.90939453 1178.17740234 -241.90939453 1178.17740234 -241 1179 C-241 1179.66 -241 1180.32 -241 1181 C-240.42121094 1181.27972656 -239.84242188 1181.55945312 -239.24609375 1181.84765625 C-237.10259591 1182.94736384 -235.09477079 1184.14570015 -233.0625 1185.4375 C-230.98225228 1186.75678235 -228.89988715 1188.05939794 -226.78125 1189.31640625 C-224.51452479 1190.68853907 -222.28448388 1192.09483044 -220.05859375 1193.53125 C-202.93733747 1204.56436641 -186.13002499 1213.83591156 -167.04272461 1221.06860352 C-158.23402744 1224.42739408 -150.16468735 1228.30917692 -142 1233 C-140.99582031 1233.48984375 -139.99164063 1233.9796875 -138.95703125 1234.484375 C-131.2642324 1238.4273155 -123.40510683 1244.17443847 -118 1251 C-118 1251.66 -118 1252.32 -118 1253 C-117.34 1253 -116.68 1253 -116 1253 C-114.4539624 1255.05328373 -113.05789502 1257.08278522 -111.6875 1259.25 C-111.28450684 1259.88389648 -110.88151367 1260.51779297 -110.46630859 1261.17089844 C-106.9429359 1266.8497295 -104.17760764 1272.67381137 -102 1279 C-101.75048584 1279.70624512 -101.50097168 1280.41249023 -101.24389648 1281.14013672 C-98.99907346 1287.93811919 -98.24988632 1294.50041829 -97.8125 1301.625 C-97.6897168 1303.47303223 -97.6897168 1303.47303223 -97.56445312 1305.35839844 C-96.92358841 1316.32580166 -96.93071639 1327.26745089 -97 1338.25 C-97.53436345 1385.36197408 -97.53436345 1385.36197408 -76.7734375 1426.4609375 C-75.37720812 1427.82756485 -73.95652596 1429.17003168 -72.50390625 1430.4765625 C-71 1432 -71 1432 -71 1434 C-84.34044935 1432.54396276 -96.95541333 1418.99379245 -105.3125 1409.1875 C-120.49714653 1389.05610265 -125.83146268 1362.15846559 -128.94921875 1337.6640625 C-129.11454102 1336.3855542 -129.27986328 1335.1070459 -129.45019531 1333.78979492 C-129.76580742 1331.29478315 -130.06444251 1328.79754097 -130.34277344 1326.2980957 C-131.83770997 1314.18659027 -135.38007906 1303.05648437 -145 1295 C-153.38269965 1289.48662611 -163.35813545 1285.81114695 -173.5 1287.4375 C-180.37083278 1289.39700624 -188.82886389 1293.13845848 -192.5625 1299.5 C-193.2740625 1301.2325 -193.2740625 1301.2325 -194 1303 C-194.556875 1304.093125 -195.11375 1305.18625 -195.6875 1306.3125 C-199.51895664 1317.07706866 -197.35030419 1325.24803034 -192.625 1335.3125 C-187.15606143 1345.91724382 -180.61498006 1356.07752991 -174 1366 C-174 1366.99 -174 1367.98 -174 1369 C-177.14327856 1367.71940503 -179.07238908 1365.96612107 -181.40625 1363.546875 C-189.04951101 1356.12841579 -198.08594273 1350.1964232 -207.42578125 1345.1484375 C-217.09628772 1339.63820736 -225.45575353 1330.52535737 -231 1321 C-231.36706055 1320.38833984 -231.73412109 1319.77667969 -232.11230469 1319.14648438 C-241.75469688 1302.84753254 -247.99534881 1285.06907198 -254.60186768 1267.39675903 C-260.61712436 1251.18000769 -260.61712436 1251.18000769 -270.375 1237 C-273 1234 -273 1234 -273 1232 C-273.57105469 1231.74089844 -274.14210938 1231.48179688 -274.73046875 1231.21484375 C-277.1962037 1229.8949753 -279.15767642 1228.34223884 -281.3125 1226.5625 C-287.60419004 1221.62562739 -293.92118357 1218.7914247 -302 1219 C-308.23241141 1220.1524926 -311.42022412 1222.90153132 -315 1228 C-316.14814997 1230.29629994 -316.30769809 1232.07698086 -316.5625 1234.625 C-316.64628906 1235.44226562 -316.73007812 1236.25953125 -316.81640625 1237.1015625 C-316.87699219 1237.72804688 -316.93757812 1238.35453125 -317 1239 C-321.65014983 1237.5473654 -324.72530631 1234.85701794 -328.1875 1231.5625 C-328.75484863 1231.02898926 -329.32219727 1230.49547852 -329.90673828 1229.94580078 C-356.4434642 1204.70645905 -372.15002139 1170.57783445 -383.21875 1136.125 C-383.80160767 1134.32699951 -383.80160767 1134.32699951 -384.39624023 1132.49267578 C-385.15428325 1130.14126664 -385.89933766 1127.78561658 -386.62915039 1125.42529297 C-390.16151009 1114.42472437 -395.19586666 1105.6402955 -405.3125 1099.625 C-412.95452906 1097.84778394 -418.93976025 1098.68807282 -425.80078125 1102.51171875 C-430.81278876 1105.90350358 -433.70903685 1110.01462539 -435 1116 C-436.35173822 1124.82283192 -433.29122804 1134.46436136 -428.109375 1141.60546875 C-426.89850311 1142.95662458 -425.65076955 1144.27643072 -424.35546875 1145.546875 C-423 1147 -423 1147 -423 1149 C-422.45859375 1149.22300781 -421.9171875 1149.44601562 -421.359375 1149.67578125 C-418.25030152 1151.42077448 -415.82126169 1153.75296413 -413.25 1156.1875 C-412.17779211 1157.18825992 -411.10487498 1158.1882605 -410.03125 1159.1875 C-409.51175781 1159.6721875 -408.99226563 1160.156875 -408.45703125 1160.65625 C-406.59133471 1162.37689239 -404.67688215 1164.03588673 -402.75 1165.6875 C-401.49659382 1166.78779859 -400.24655776 1167.89194866 -399 1169 C-398.33355469 1169.5878125 -397.66710937 1170.175625 -396.98046875 1170.78125 C-390.47871415 1176.84789674 -384.22059187 1184.67828035 -383.0625 1193.75 C-383.041875 1194.8225 -383.02125 1195.895 -383 1197 C-387 1197 -387 1197 -389.125 1194.9375 C-389.558125 1194.47730469 -389.99125 1194.01710938 -390.4375 1193.54296875 C-396.47437001 1187.58155962 -403.81749736 1184.03956696 -411.4375 1180.5625 C-418.97863278 1177.10502104 -425.60399986 1173.35238784 -432 1168 C-432.87011719 1167.29101562 -433.74023438 1166.58203125 -434.63671875 1165.8515625 C-450.05984015 1152.71078642 -459.165949 1132.88085308 -462 1113 C-462.12309291 1110.29974661 -462.20720674 1107.61899354 -462.24609375 1104.91796875 C-462.27908914 1103.32877172 -462.31229964 1101.73957913 -462.34570312 1100.15039062 C-462.39255222 1097.68729344 -462.4369054 1095.22420612 -462.47680664 1092.76098633 C-462.71584965 1078.64599739 -463.10503419 1064.2860198 -467 1050.625 C-467.30550781 1049.55233887 -467.30550781 1049.55233887 -467.6171875 1048.45800781 C-469.70777693 1041.41988582 -472.38231924 1034.604868 -475 1027.75 C-481.44985356 1010.84451935 -486.10037289 993.54149596 -486.203125 975.35546875 C-486.21167511 974.14157219 -486.21167511 974.14157219 -486.22039795 972.90315247 C-486.22979274 971.19464398 -486.23635979 969.48611782 -486.24023438 967.77758789 C-486.24983132 965.23223797 -486.28086164 962.68773551 -486.3125 960.14257812 C-486.41942967 943.66332895 -483.92942708 928.36520564 -479.25 912.59765625 C-477.8825155 907.78348923 -476.96921789 902.91805676 -476.0625 898 C-471.0436582 871.61224883 -458.27623052 843.92485956 -440 824 C-439.34 824 -438.68 824 -438 824 C-437.690625 823.1646875 -437.690625 823.1646875 -437.375 822.3125 C-435.48105476 819.12722845 -432.88323975 817.29482348 -430 815 C-429.484375 814.484375 -428.96875 813.96875 -428.4375 813.4375 C-403.74058948 788.74058948 -365.8977988 777.03012227 -331.8125 776.6875 C-317.38923466 776.71362695 -302.7195507 778.37215687 -289 783 C-288.33210449 783.22139648 -287.66420898 783.44279297 -286.97607422 783.67089844 C-272.26020026 788.60902587 -258.56430802 794.82434156 -246 804 C-245.175 804.474375 -244.35 804.94875 -243.5 805.4375 C-240.05567888 807.5902007 -236.82802234 810.07417861 -234 813 C-234 813.66 -234 814.32 -234 815 C-233.4534375 815.21527344 -232.906875 815.43054688 -232.34375 815.65234375 C-229.19435376 817.46324659 -226.92901686 819.9087951 -224.5 822.5625 C-223.97954102 823.1304126 -223.45908203 823.6983252 -222.92285156 824.28344727 C-197.97994632 852.17380993 -187.36404115 884.66485317 -185.4050293 921.5949707 C-183.13237085 963.04611812 -173.13789424 999.88116908 -148.53515625 1033.859375 C-147.34665252 1035.51662703 -146.21392702 1037.21395601 -145.10546875 1038.92578125 C-140.11314857 1046.21512445 -133.79391827 1052.61104462 -127.03125 1058.2734375 C-125.60093369 1059.48920636 -124.20768017 1060.74925897 -122.84375 1062.0390625 C-117.03548664 1067.51819093 -110.85077284 1072.01409895 -104.18164062 1076.37011719 C-102.42268929 1077.5334582 -100.70669724 1078.76126814 -99 1080 C-99 1080.66 -99 1081.32 -99 1082 C-98.31679688 1082.25652344 -97.63359375 1082.51304688 -96.9296875 1082.77734375 C-94.21694583 1083.90946127 -91.64133379 1085.19784474 -89.0402832 1086.56347656 C-41.69887767 1111.25704335 9.95848218 1116.83551594 61 1101 C66.10745438 1099.24323412 71.04597275 1097.14962778 76 1095 C77.64406333 1094.37035873 79.28975536 1093.74494353 80.9375 1093.125 C91.1946981 1088.98136368 100.96696126 1083.92284085 110.1875 1077.8125 C111.10438599 1077.20704346 111.10438599 1077.20704346 112.03979492 1076.58935547 C114.93252807 1074.61789801 117.30562706 1072.69437294 119.80078125 1070.19921875 C120.52652344 1069.47347656 121.25226562 1068.74773437 122 1068 C122.66 1068 123.32 1068 124 1068 C124 1067.34 124 1066.68 124 1066 C125.6785513 1064.50370821 127.41958898 1063.07707339 129.1875 1061.6875 C133.04393679 1058.64674864 136.58307351 1055.52859076 140 1052 C140.67160156 1051.32582031 141.34320312 1050.65164063 142.03515625 1049.95703125 C155.06556758 1036.17341695 165.32763073 1018.91467531 171.82421875 1001.16015625 C172.93321161 998.17950767 174.16161306 995.28726257 175.4375 992.375 C191.94293405 952.87614682 195.90707068 907.29572574 179.7734375 867.05859375 C176.95919411 860.40689362 173.48618458 854.08595087 169.97949219 847.77978516 C169.18138892 846.32959254 168.41752557 844.86059827 167.6640625 843.38671875 C153.19210616 815.31522897 123.31390362 795.51089176 97.2265625 779.3815918 C95.75867109 778.47075874 94.29499647 777.55308948 92.8359375 776.62817383 C89.13423098 774.28274115 85.44572606 772.10814019 81.5 770.1875 C78.06054518 768.5066609 74.63059519 766.81712669 71.234375 765.05078125 C52.06595529 755.13386885 31.65325847 748.30525803 10.25 745.1875 C9.10204956 745.01988159 9.10204956 745.01988159 7.9309082 744.84887695 C-7.30501528 742.86790651 -22.68909291 742.87106996 -38.02275467 742.97837639 C-41.3803385 743.00185911 -44.73790515 743.01883314 -48.09553528 743.03425598 C-51.72106692 743.05095583 -55.34659223 743.06803495 -58.97211277 743.08700705 C-67.94384851 743.13349152 -76.91546932 743.15855595 -85.88731384 743.17108154 C-87.85072608 743.17383335 -87.85072608 743.17383335 -89.85380322 743.17664075 C-95.24163026 743.18372379 -100.62945774 743.190051 -106.01728642 743.19573832 C-110.14474488 743.20018581 -114.2722017 743.20543157 -118.3996582 743.21142578 C-119.08482375 743.2124107 -119.76998931 743.21339563 -120.47591745 743.21441039 C-131.58600235 743.23168502 -142.69548055 743.29197604 -153.8053071 743.36704543 C-165.26335102 743.4433895 -176.7205162 743.46884563 -188.17885011 743.45151305 C-194.59229993 743.44350902 -201.0038148 743.4582213 -207.4169178 743.5291214 C-213.44838163 743.59526871 -219.47685661 743.59969642 -225.5085125 743.55850792 C-227.70905019 743.55409597 -229.90976885 743.57153272 -232.10990906 743.61358833 C-247.3141702 743.88715583 -255.94765173 741.10612004 -267.13433444 730.67714453 C-270.90877293 727.28410399 -275.06622421 724.33847633 -279.23611444 721.45225787 C-280.10923779 720.73339023 -280.10923779 720.73339023 -281 720 C-281 719.34 -281 718.68 -281 718 C-281.73605469 717.75636719 -282.47210938 717.51273438 -283.23046875 717.26171875 C-286.33480197 715.84747386 -287.98285432 714.28694998 -290.3125 711.8125 C-293.14398867 708.86831527 -295.98098761 706.10678309 -299.125 703.5 C-302.73444296 700.41231811 -305.46101378 696.97693637 -308.29296875 693.1796875 C-309.87979015 691.1534945 -311.52193235 689.40564892 -313.375 687.625 C-317.53491253 683.58499625 -321.10114883 679.12192137 -324.71386719 674.59375 C-326.06374697 672.92100603 -327.43966483 671.27241688 -328.8203125 669.625 C-351.91279191 641.84847088 -366.90854794 607.56886046 -374.8125 572.4375 C-374.99562744 571.62539063 -375.17875488 570.81328125 -375.36743164 569.9765625 C-379.16527286 551.65404552 -380.5277529 533.36202022 -380.375 514.6875 C-380.37034729 513.66440735 -380.36569458 512.6413147 -380.36090088 511.58721924 C-380.27744012 495.88161707 -379.75801197 480.49740059 -377 465 C-376.80132324 463.86079102 -376.60264648 462.72158203 -376.39794922 461.54785156 C-372.03904314 437.24899084 -364.94862885 414.08501822 -355.84472656 391.16992188 C-355.11655799 389.29941255 -354.43993457 387.4089861 -353.7734375 385.515625 C-345.78906275 362.88365628 -330.92060792 342.73760718 -316.42724609 323.86083984 C-315.03393221 322.04424073 -313.65061088 320.22044175 -312.26953125 318.39453125 C-306.25405165 310.46773761 -300.03481493 303.03481493 -293 296 C-291.23417792 293.90183499 -289.47721548 291.79879593 -287.74609375 289.671875 C-285.82219063 287.82974853 -284.60056393 287.38695481 -282 287 C-282 286.34 -282 285.68 -282 285 C-280.45111498 283.58293498 -278.83238466 282.24190504 -277.1875 280.9375 C-276.19105469 280.14214844 -275.19460938 279.34679687 -274.16796875 278.52734375 C-273.38558838 277.90641846 -273.38558838 277.90641846 -272.58740234 277.27294922 C-269.11608948 274.48927877 -265.72416042 271.60627384 -262.3125 268.75 C-260 267 -260 267 -257 266 C-256.67 265.01 -256.34 264.02 -256 263 C-254.10839844 261.47290039 -254.10839844 261.47290039 -251.609375 259.84765625 C-250.68205566 259.24163574 -249.75473633 258.63561523 -248.79931641 258.01123047 C-247.79304199 257.36814941 -246.78676758 256.72506836 -245.75 256.0625 C-244.72181152 255.39879395 -243.69362305 254.73508789 -242.63427734 254.05126953 C-233.37861374 248.13166964 -223.92332217 242.59280837 -214.30566406 237.28417969 C-212.7666718 236.42701119 -211.23720878 235.55250887 -209.71777344 234.66113281 C-205.40350183 232.15769784 -201.26786025 230.26794131 -196.50488281 228.79589844 C-191.22296162 227.11762718 -186.06413666 225.06766674 -180.875 223.125 C-177.28339264 221.79466863 -173.69039171 220.46818909 -170.09667969 219.14355469 C-168.30415746 218.48160466 -166.51258823 217.81703762 -164.72363281 217.14550781 C-136.41329118 206.55681978 -105.00636305 202.77515153 -74.9375 202.75 C-74.20177765 202.74932526 -73.4660553 202.74865051 -72.70803833 202.74795532 C-31.11189273 202.80783488 12.73287922 211.27156458 50.2734375 229.73828125 C52.97418369 231.05512328 52.97418369 231.05512328 55.83691406 231.91357422 C58.84816949 232.94785074 61.51755849 234.17195527 64.3359375 235.64453125 C65.31820312 236.15693359 66.30046875 236.66933594 67.3125 237.19726562 C68.8284375 237.99680664 68.8284375 237.99680664 70.375 238.8125 C71.37789062 239.33392578 72.38078125 239.85535156 73.4140625 240.39257812 C79.09727444 243.37180114 84.6993791 246.37558977 90 250 C90 250.66 90 251.32 90 252 C90.6909375 252.2371875 91.381875 252.474375 92.09375 252.71875 C95.55332606 254.24393945 98.46667865 256.27834071 101.5 258.5 C102.10730957 258.93924805 102.71461914 259.37849609 103.34033203 259.83105469 C108.66859389 263.70690657 113.89675478 267.70947354 119.09765625 271.75390625 C121.48098148 273.59833694 123.88435505 275.40307379 126.3125 277.1875 C132.53289693 281.8527977 138.00602266 286.84097553 143.02734375 292.77734375 C145.36588061 295.41224964 147.85610264 297.84965599 150.375 300.3125 C154.78559301 304.6520027 158.7643653 309.21058705 162.6171875 314.05078125 C164.8555013 316.82115325 167.15843544 319.51418707 169.49658203 322.19970703 C176.81534374 330.61388677 183.57730497 338.67667416 188 349 C189.02082516 350.73680665 190.04410767 352.4726218 191.10766602 354.18359375 C217.94656912 397.43039365 232.29225587 447.20101744 232.58544922 498.04199219 C232.72019676 509.84224311 233.95958921 520.83242882 242 530 C247.95645881 535.47350269 254.30025443 537.5061217 262.34765625 537.3125 C270.12457209 536.39622126 276.75482893 532.74870749 282 527 C289.37421797 517.43344696 288.34301369 503.7721482 287.4375 492.3125 C287.34380127 491.04011475 287.25010254 489.76772949 287.15356445 488.45678711 C284.38386649 453.05539444 278.61025187 416.31796961 264.9296875 383.39746094 C263.99912852 380.99775264 263.28436662 378.60836482 262.59765625 376.12890625 C260.84785878 370.09581168 258.18675058 364.57143867 255.4375 358.9375 C254.90374756 357.83913818 254.36999512 356.74077637 253.82006836 355.60913086 C245.95636226 339.61838574 236.69528038 325.23578699 226 311 C225.5246582 310.36481445 225.04931641 309.72962891 224.55957031 309.07519531 C217.06791302 299.09525672 209.07873992 289.88184265 200.25 281.0625 C199.45505127 280.26835693 198.66010254 279.47421387 197.84106445 278.65600586 C192.96738124 273.83289907 188.05202905 269.2978007 182.64453125 265.078125 C180.05502059 263.04323627 177.56359741 260.92668018 175.0715332 258.77514648 C168.96252448 253.50833525 162.72910016 248.80242973 155.78515625 244.6875 C153.51756339 243.3135868 151.2859345 241.9060132 149.05859375 240.46875 C132.61451741 229.87369185 116.32269912 220.62908794 98.03930664 213.57348633 C89.38926195 210.22562484 81.19625944 206.32275315 73 202 C71.9790625 201.49597656 70.958125 200.99195313 69.90625 200.47265625 C61.13429155 196.02772569 53.30158471 190.63969899 47 183 C47 182.34 47 181.68 47 181 C46.34 181 45.68 181 45 181 C43.45389092 178.94662134 42.05739807 176.91767051 40.6875 174.75 C40.08192261 173.79262939 40.08192261 173.79262939 39.46411133 172.81591797 C25.63889082 150.44758413 25.93283652 126.7588274 26.04101562 101.37524414 C27.17300992 51.34997639 27.17300992 51.34997639 5.7734375 7.5390625 C4.37720812 6.17243515 2.95652596 4.82996832 1.50390625 3.5234375 C0 2 0 2 0 0 Z " fill="#006836" transform="translate(486,0)"/>
<path d="M0 0 C0.67748291 0.00149048 1.35496582 0.00298096 2.05297852 0.0045166 C12.91789338 0.04736235 23.23540436 0.8043088 33.8125 3.3125 C34.47620605 3.4676709 35.13991211 3.6228418 35.82373047 3.78271484 C44.02090511 5.73026348 51.9743355 8.22334105 59.8125 11.3125 C61.18921875 11.83070313 61.18921875 11.83070313 62.59375 12.359375 C76.06107072 17.64493636 89.54574704 25.1872018 100.8125 34.3125 C100.8125 34.9725 100.8125 35.6325 100.8125 36.3125 C93.25830559 35.81714299 86.05449926 34.40062018 78.6784668 32.77246094 C77.89383057 32.60004883 77.10919434 32.42763672 76.30078125 32.25 C75.60509033 32.09402344 74.90939941 31.93804687 74.19262695 31.77734375 C67.94105071 30.55639789 61.88690815 30.13076585 55.5390625 30.07421875 C54.6570517 30.066147 53.77504089 30.05807526 52.86630249 30.04975891 C51.0021965 30.035982 49.13806596 30.02523152 47.27392578 30.01733398 C45.40080162 30.00588694 43.52770816 29.98555252 41.65478516 29.95581055 C18.71628405 29.59264128 -5.17007225 33.86227725 -22.359375 50.40234375 C-33.82755587 62.66812367 -40.04651436 78.0105115 -39.77905273 94.85668945 C-38.76311895 114.28000377 -29.61093147 130.17972581 -17.4375 144.80859375 C-16.381364 146.07925737 -15.34466737 147.36604079 -14.3125 148.65625 C-10.42069146 153.37132573 -5.96339455 157.05364883 -1.18359375 160.84765625 C1.9715823 163.44337475 4.91502014 166.18829542 7.875 169 C20.09539334 180.47651113 33.67228106 190.34827632 47.8125 199.3125 C49.09157227 200.12557617 49.09157227 200.12557617 50.39648438 200.95507812 C64.81188611 210.09386099 79.40085665 218.93453974 94.06225586 227.671875 C96.71996305 229.2572982 99.37429215 230.84820708 102.02734375 232.44140625 C115.31741547 240.41835335 128.61525418 248.32517563 142.54296875 255.15234375 C143.46106323 255.60347534 143.46106323 255.60347534 144.39770508 256.0637207 C146.06088575 256.87568682 147.72945573 257.67658827 149.3984375 258.4765625 C152.91491151 260.36757255 156.12989263 262.506998 159.42919922 264.74658203 C163.39629994 267.35311594 167.54425069 269.62562729 171.6875 271.9375 C179.09326249 276.12507247 186.41022727 280.42809503 193.625 284.9375 C194.44919434 285.44619629 195.27338867 285.95489258 196.12255859 286.47900391 C197.24718506 287.18935791 197.24718506 287.18935791 198.39453125 287.9140625 C199.05686768 288.32994629 199.7192041 288.74583008 200.40161133 289.17431641 C200.86720459 289.54991699 201.33279785 289.92551758 201.8125 290.3125 C201.8125 290.9725 201.8125 291.6325 201.8125 292.3125 C202.67875 292.7146875 202.67875 292.7146875 203.5625 293.125 C205.88613365 294.3513622 207.85074646 295.56093434 209.8125 297.3125 C209.8125 298.3025 209.8125 299.2925 209.8125 300.3125 C209.14963989 300.31027939 208.48677979 300.30805878 207.80383301 300.30577087 C169.02186288 300.10421036 169.02186288 300.10421036 130.25 300.8125 C112.85882652 301.35111545 95.46864686 301.45959959 78.07048416 301.49417114 C75.92838239 301.49985827 73.78633708 301.50950878 71.64425659 301.52050781 C56.10720338 301.59571474 40.63701327 301.34939444 25.125 300.4140625 C24.45127413 300.37431494 23.77754826 300.33456738 23.08340645 300.29361534 C-21.90254988 297.5753192 -21.90254988 297.5753192 -39.859375 285.83203125 C-42.26344244 284.26293354 -44.71538643 282.90948775 -47.25 281.5625 C-53.07930011 278.42621946 -58.76092101 275.05364244 -64.43774414 271.65136719 C-65.13891357 271.2340332 -65.84008301 270.81669922 -66.5625 270.38671875 C-67.18898438 270.01119873 -67.81546875 269.63567871 -68.4609375 269.2487793 C-70.34025922 268.16477374 -70.34025922 268.16477374 -73.1875 267.3125 C-73.8475 266.6525 -74.5075 265.9925 -75.1875 265.3125 C-76.50829503 264.41868612 -77.84380582 263.5465045 -79.1875 262.6875 C-86.46624833 257.88587409 -93.07431616 252.52695647 -99.1875 246.3125 C-100.19093998 245.32892186 -101.19623706 244.34723568 -102.203125 243.3671875 C-109.01368526 236.69478522 -115.39785684 229.91075701 -121.1875 222.3125 C-121.78425537 221.5383374 -121.78425537 221.5383374 -122.39306641 220.74853516 C-145.60295647 190.42082473 -151.73462828 156.78026447 -147.46484375 119.05541992 C-142.98762741 87.03624706 -123.5138315 61.25454038 -101.10546875 39.203125 C-99.58481461 37.70415025 -98.09848687 36.17036428 -96.625 34.625 C-91.02547441 29.31262957 -84.62822332 25.23563342 -78.125 21.125 C-77.45235107 20.69678955 -76.77970215 20.2685791 -76.08666992 19.82739258 C-71.91582403 17.22615956 -67.76815898 15.13958771 -63.1875 13.3125 C-62.02734375 12.84070313 -60.8671875 12.36890625 -59.671875 11.8828125 C-52.38618631 9.02981213 -45.06248757 6.57763558 -37.5 4.5625 C-36.76555664 4.36414551 -36.03111328 4.16579102 -35.27441406 3.96142578 C-23.56872239 0.95660506 -12.06593095 -0.05089847 0 0 Z " fill="#006836" transform="translate(422.1875,360.6875)"/>
<path d="M0 0 C2.14210177 -0.00568713 4.28414708 -0.01533764 6.42622757 -0.02633667 C21.96328078 -0.10154359 37.43347089 0.1447767 52.94548416 1.08010864 C53.95607297 1.13972999 53.95607297 1.13972999 54.98707771 1.2005558 C86.7150549 3.11773274 110.04162701 10.35967849 137.10026932 26.59988403 C138.88056064 27.66734766 140.66290798 28.73131011 142.44548416 29.79495239 C143.49091385 30.4218396 144.53634354 31.04872681 145.61345291 31.6946106 C148.23767033 33.2800935 148.23767033 33.2800935 151.25798416 34.18167114 C151.91798416 34.84167114 152.57798416 35.50167114 153.25798416 36.18167114 C154.5787792 37.07548502 155.91428998 37.94766665 157.25798416 38.80667114 C163.52940811 42.93688077 170.28786753 47.49008597 175.25798416 53.18167114 C175.25798416 53.84167114 175.25798416 54.50167114 175.25798416 55.18167114 C175.81099197 55.40983521 176.36399979 55.63799927 176.93376541 55.87307739 C185.78332061 60.85560007 193.18778321 71.2745746 199.25798416 79.18167114 C199.65872147 79.70067993 200.05945877 80.21968872 200.47233963 80.75442505 C223.674047 111.07700005 229.80960588 144.72350214 225.53483963 182.43948364 C220.97908449 215.05737943 200.82332004 241.20437032 177.90910721 263.55667114 C176.47348038 264.96958438 175.06796818 266.41296973 173.66814041 267.86135864 C166.82174346 274.45254145 158.22511866 279.35561087 150.00798416 284.05667114 C149.37142899 284.42566528 148.73487381 284.79465942 148.07902908 285.17483521 C144.0023571 287.45345325 139.94772697 289.07642363 135.49480057 290.47561646 C133.37681272 291.14416272 131.29898404 291.87935362 129.21501541 292.64651489 C102.22627339 302.37013685 72.3175057 304.83554356 44.25798416 298.18167114 C43.59427811 298.02650024 42.93057205 297.87132935 42.24675369 297.7114563 C34.04957905 295.76390766 26.09614866 293.27083009 18.25798416 290.18167114 C16.88126541 289.66346802 16.88126541 289.66346802 15.47673416 289.13479614 C2.00941344 283.84923479 -11.47526288 276.30696934 -22.74201584 267.18167114 C-22.74201584 266.52167114 -22.74201584 265.86167114 -22.74201584 265.18167114 C-16.25936385 265.81029194 -9.98804642 266.84346381 -3.61701584 268.18167114 C-1.90646755 268.53771287 -0.19553529 268.89191541 1.51579666 269.24417114 C2.25974686 269.40014771 3.00369705 269.55612427 3.77019119 269.71682739 C10.06675948 270.89334025 16.14445743 271.36305682 22.53142166 271.41995239 C23.41343246 271.42802414 24.29544327 271.43609589 25.20418167 271.44441223 C27.06828766 271.45818915 28.93241821 271.46893963 30.79655838 271.47683716 C32.66968254 271.48828421 34.542776 271.50861862 36.41569901 271.5383606 C58.36371905 271.88584826 81.08681689 268.08325804 98.25798416 253.18167114 C106.04857614 245.53923622 110.94005786 237.86229994 114.44548416 227.61917114 C114.70523026 226.8902063 114.96497635 226.16124146 115.23259354 225.41018677 C121.25431514 208.12302216 116.78471757 192.22726437 109.25798416 176.18167114 C100.26678046 159.83057918 86.07954319 145.26933742 71.25798416 134.18167114 C68.38315463 131.90140863 65.63790586 129.57665281 63.09001541 126.92776489 C59.66161182 123.60339561 55.99853382 120.74904748 52.19548416 117.86917114 C51.06819901 117.01150146 51.06819901 117.01150146 49.91814041 116.13650513 C43.85347707 111.55760668 37.64306694 107.30320907 31.25798416 103.18167114 C28.99849375 101.65997352 26.74252404 100.13325509 24.48845291 98.60354614 C22.73424684 97.48527818 20.93652178 96.4352591 19.12517166 95.41213989 C14.36060266 92.71435252 9.79563678 89.71045244 5.19548416 86.74417114 C-4.34672938 80.62755346 -14.03539985 74.80506672 -23.81623459 69.08010864 C-27.78767562 66.75371001 -31.71216578 64.36798943 -35.61701584 61.93167114 C-40.41766306 58.95893835 -45.27320179 56.10037356 -50.17951584 53.30667114 C-50.84257736 52.92478638 -51.50563889 52.54290161 -52.18879318 52.14944458 C-54.98858068 50.57087878 -57.53796297 49.24635729 -60.61310959 48.27151489 C-65.22639321 46.66464082 -69.19561768 44.13673928 -73.36701584 41.61917114 C-74.78011032 40.77491577 -74.78011032 40.77491577 -76.22175217 39.91360474 C-79.39983909 38.01061104 -82.57145235 36.09717164 -85.74201584 34.18167114 C-86.9374492 33.46073578 -88.1329255 32.7398716 -89.32844162 32.01907349 C-93.03119976 29.78556393 -96.73111085 27.54738066 -100.42951584 25.30667114 C-101.01380356 24.95281342 -101.59809128 24.59895569 -102.20008469 24.234375 C-125.9691352 9.82626554 -125.9691352 9.82626554 -131.74201584 4.18167114 C-131.74201584 3.19167114 -131.74201584 2.20167114 -131.74201584 1.18167114 C-130.74772568 1.18500206 -130.74772568 1.18500206 -129.73334885 1.18840027 C-90.95137872 1.38996079 -90.95137872 1.38996079 -52.17951584 0.68167114 C-34.78834235 0.14305569 -17.3981627 0.03457155 0 0 Z " fill="#006836" transform="translate(400.74201583862305,771.8183288574219)"/>
</svg>
