<?xml version="1.0" encoding="UTF-8"?>
<svg version="1.1" xmlns="http://www.w3.org/2000/svg" width="64" height="75">
<path d="M0 0 C0.99 0 1.98 0 3 0 C4.70060743 2.13824216 6.20205658 4.22089861 7.6875 6.5 C8.10322266 7.12003906 8.51894531 7.74007813 8.94726562 8.37890625 C9.97403506 9.91315943 10.98822225 11.45581929 12 13 C11.34 10.03 10.68 7.06 10 4 C10.99 4 11.98 4 13 4 C14.875 6.31640625 14.875 6.31640625 17 9.5625 C19.56524943 13.4614834 22.16301183 17.26729442 25.0703125 20.921875 C25.57820313 21.5708374 26.08609375 22.2197998 26.609375 22.88842773 C27.60021406 24.14628898 28.60754255 25.39137916 29.6328125 26.62133789 C33.00512139 30.97025115 33.00512139 30.97025115 32.98925781 34.15991211 C32.68266325 36.11038942 32.34336245 38.05565842 32 40 C32.825 40.639375 33.65 41.27875 34.5 41.9375 C37 44 37 44 37.21875 46.09765625 C36.82852846 50.38312499 36.29909383 53.96483368 33 57 C32.34 57 31.68 57 31 57 C30.67 58.32 30.34 59.64 30 61 C29.01 61 28.02 61 27 61 C26.484375 59.9275 25.96875 58.855 25.4375 57.75 C23.123184 53.7803052 20.37899199 51.44904826 16 50 C12.33578605 49.41728134 8.70609865 49.13403612 5 49 C5 48.01 5 47.02 5 46 C3.68 45.67 2.36 45.34 1 45 C1.10169161 47.94727535 1.10169161 47.94727535 2 51 C4.42383077 52.16953416 4.42383077 52.16953416 7 53 C8.3125 55.125 8.3125 55.125 9 57 C9.55429687 56.74863281 10.10859375 56.49726562 10.6796875 56.23828125 C13 56 13 56 15.5078125 57.73046875 C16.37148438 58.54128906 17.23515625 59.35210937 18.125 60.1875 C19.42824219 61.38439453 19.42824219 61.38439453 20.7578125 62.60546875 C22.73523102 64.71724149 23.91578227 66.35036679 25 69 C23.35 70.32 21.7 71.64 20 73 C15.7257442 71.4169423 13.73468206 68.49431596 11 65 C5.555 65.99 5.555 65.99 0 67 C0 63 0 63 1.5 61.25 C2.2425 60.63125 2.2425 60.63125 3 60 C-0.47325181 58.8422494 -3.36067448 58.93133348 -7 59 C-7.33 58.01 -7.66 57.02 -8 56 C-7.01 55.505 -7.01 55.505 -6 55 C-6.495 50.05 -6.495 50.05 -7 45 C-8.67775756 51.2695151 -9.62296002 55.8315115 -7.18359375 61.95703125 C-4.24657177 67.02654443 0.42885566 70.31177444 6 72 C6 72.99 6 73.98 6 75 C-0.60797447 75.55066454 -5.52694578 74.91097744 -11 71 C-16.00831997 66.53530829 -18.6155331 61.18558767 -21 55 C-21.66 56.98 -22.32 58.96 -23 61 C-23.99 61 -24.98 61 -26 61 C-28.31432976 54.05701071 -28.38380184 44.63029027 -25.765625 37.76171875 C-23.55114922 34.06179015 -21.11582898 30.97547632 -18 28 C-18.66 27.67 -19.32 27.34 -20 27 C-18.10942187 21.89543906 -13.98908968 18.94933825 -9.25 16.6875 C-4.75837439 15.73734843 -0.58880118 15.87597835 4 16 C2.68 10.72 1.36 5.44 0 0 Z M20 33 C20.66 34.32 21.32 35.64 22 37 C22.66 36.67 23.32 36.34 24 36 C22.68 35.01 21.36 34.02 20 33 Z M2 40 C2.33 40.66 2.66 41.32 3 42 C3.33 41.34 3.66 40.68 4 40 C3.34 40 2.68 40 2 40 Z " fill="#FFFFFF" transform="translate(27,0)"/>
</svg>
