<?xml version="1.0" encoding="UTF-8"?>
<svg version="1.1" xmlns="http://www.w3.org/2000/svg" width="900" height="518">
<path d="M0 0 C0.78889114 0.36120438 1.57778229 0.72240875 2.39057922 1.09455872 C4.96468335 2.2762783 7.5288452 3.47815034 10.09375 4.6796875 C11.9024163 5.51293703 13.71191699 6.34437764 15.5222168 7.17407227 C18.27056261 8.43382823 21.01843094 9.69450182 23.76383972 10.96064758 C31.6010114 14.57419063 39.48930503 18.05781474 47.40625 21.4921875 C49.99790815 22.61991923 52.58886955 23.74924578 55.1796875 24.87890625 C56.17212715 25.311427 56.17212715 25.311427 57.18461609 25.75268555 C67.22368793 30.13236387 77.23530001 34.57467083 87.2505188 39.00854492 C97.55916451 43.57222793 107.87402425 48.12061349 118.20703125 52.62890625 C120.09449608 53.45341925 121.98194746 54.27796306 123.86938477 55.10253906 C127.43965507 56.66212971 131.01206416 58.21667894 134.58569336 59.76855469 C136.20825579 60.47701841 137.83073741 61.18566725 139.453125 61.89453125 C140.53929863 62.36363167 140.53929863 62.36363167 141.64741516 62.84220886 C142.33063339 63.14169937 143.01385162 63.44118988 143.71777344 63.74975586 C144.30089294 64.00333359 144.88401245 64.25691132 145.48480225 64.51817322 C148.59858784 66.04854932 151.5813452 67.83331333 154.59375 69.5546875 C154.59375 123.6746875 154.59375 177.7946875 154.59375 233.5546875 C202.11375 233.5546875 249.63375 233.5546875 298.59375 233.5546875 C297.7645049 238.5301581 296.86084996 241.6559038 294.84765625 246.13671875 C294.5655278 246.77038361 294.28339935 247.40404846 293.99272156 248.05691528 C293.37789131 249.43562554 292.7598741 250.81291803 292.13903809 252.18893433 C291.13115006 254.42281905 290.13144439 256.66020962 289.13378906 258.89868164 C288.06575095 261.29477958 286.99717048 263.69062111 285.92611694 266.08537292 C282.22936325 274.3523037 278.59343842 282.64552677 274.96118164 290.94094849 C268.38748723 305.9495316 261.78089594 320.94353397 255.15625 335.9296875 C254.76329742 336.81862701 254.37034485 337.70756653 253.96548462 338.6234436 C250.77649475 345.83699826 247.58620911 353.04997968 244.39587402 360.26293945 C235.47365957 380.43545611 226.55632637 400.61011449 217.6789856 420.8024292 C216.87773045 422.62460426 216.07603981 424.44658788 215.27389526 426.26837158 C214.16825013 428.77989655 213.06434058 431.29217687 211.9609375 433.8046875 C211.63274521 434.54939301 211.30455292 435.29409851 210.96641541 436.06137085 C209.73437343 438.87109796 208.56455998 441.64225756 207.59375 444.5546875 C120.14375 444.5546875 32.69375 444.5546875 -57.40625 444.5546875 C-57.73625 434.9846875 -58.06625 425.4146875 -58.40625 415.5546875 C-62.7375 417.4521875 -67.06875 419.3496875 -71.53125 421.3046875 C-99.12762495 433.38396313 -126.75920525 445.38298294 -154.40258789 457.35424805 C-166.76071467 462.70641531 -179.11470682 468.06810225 -191.46875 473.4296875 C-193.73779211 474.41439001 -196.00683508 475.39909052 -198.27587891 476.38378906 C-208.99997169 481.03783424 -219.72383487 485.69240771 -230.44721985 490.3480835 C-235.25662909 492.43612873 -240.06616586 494.52388016 -244.8757019 496.6116333 C-247.15971047 497.6031705 -249.44366768 498.59482602 -251.72756958 499.58660889 C-252.81464203 500.0586676 -253.90171448 500.53072632 -255.02172852 501.01708984 C-256.60318916 501.70402924 -256.60318916 501.70402924 -258.21659851 502.40484619 C-260.24408576 503.28433083 -262.2723106 504.16211746 -264.30134583 505.0380249 C-268.47036697 506.83819463 -272.6322029 508.64647584 -276.76220703 510.53466797 C-277.40170792 510.8225267 -278.0412088 511.11038544 -278.7000885 511.40696716 C-280.30623484 512.13191548 -281.90653232 512.86978781 -283.50610352 513.60913086 C-289.45049362 515.54722522 -293.99240583 514.68438764 -299.578125 512.16015625 C-301.37624634 511.36013184 -301.37624634 511.36013184 -303.21069336 510.54394531 C-304.52591835 509.94344577 -305.84110248 509.3428567 -307.15625 508.7421875 C-308.56003116 508.1129241 -309.96442819 507.48503309 -311.36938477 506.85839844 C-314.42294832 505.49469815 -317.47338421 504.12429648 -320.52197266 502.74951172 C-328.20439146 499.29030158 -335.91835548 495.90220541 -343.62750244 492.50311279 C-346.37199642 491.292225 -349.11559134 490.07932327 -351.85888672 488.86572266 C-363.31996723 483.79558861 -374.79090861 478.74848877 -386.26950073 473.71813965 C-401.26994616 467.14313121 -416.25930064 460.54316282 -431.23223877 453.9057312 C-433.2529328 453.0103439 -435.27404637 452.11590274 -437.29559326 451.22244263 C-440.10193487 449.98177036 -442.90664722 448.73748809 -445.7109375 447.4921875 C-446.54951294 447.12222153 -447.38808838 446.75225555 -448.2520752 446.37107849 C-449.02208862 446.0281929 -449.79210205 445.68530731 -450.58544922 445.33203125 C-451.25454315 445.03546631 -451.92363708 444.73890137 -452.61300659 444.43334961 C-454.40625 443.5546875 -454.40625 443.5546875 -457.40625 441.5546875 C-457.77539349 438.74734306 -457.77539349 438.74734306 -457.76701355 435.08810425 C-457.76957682 434.41669281 -457.7721401 433.74528137 -457.77478105 433.05352414 C-457.77974112 430.79309181 -457.76319033 428.53332048 -457.74682617 426.27294922 C-457.74598038 424.65691137 -457.74645411 423.04087238 -457.74815369 421.42483521 C-457.74901692 417.02829937 -457.73133825 412.63200745 -457.71043181 408.23552847 C-457.69171955 403.64442769 -457.68991889 399.05332175 -457.68635559 394.46218872 C-457.67701906 385.76403963 -457.65238358 377.06600322 -457.62230712 368.36790383 C-457.58255424 356.61713444 -457.56632123 344.86633439 -457.54880047 333.11551476 C-457.52056358 314.59515455 -457.4608048 296.07503216 -457.40625 277.5546875 C-504.92625 277.5546875 -552.44625 277.5546875 -601.40625 277.5546875 C-600.28129268 270.80494356 -600.28129268 270.80494356 -598.92602539 267.76049805 C-598.6230957 267.07077408 -598.32016602 266.38105011 -598.00805664 265.67042542 C-597.67668701 264.93484909 -597.34531738 264.19927277 -597.00390625 263.44140625 C-596.65505371 262.65205185 -596.30620117 261.86269745 -595.94677734 261.04942322 C-594.79374089 258.44416367 -593.63119625 255.84326037 -592.46875 253.2421875 C-591.65153932 251.39989739 -590.83506407 249.55728089 -590.01928711 247.71435547 C-588.32426793 243.88660089 -586.62609008 240.06027091 -584.92578125 236.23486328 C-581.44689022 228.40087048 -578.01011631 220.54849035 -574.5715332 212.69674683 C-568.06487463 197.84555433 -561.52350201 183.00970471 -554.96875 168.1796875 C-554.57619019 167.29144287 -554.18363037 166.40319824 -553.7791748 165.48803711 C-549.77787013 156.43493653 -545.77392696 147.38301143 -541.76417542 138.33364868 C-540.13733184 134.66150973 -538.51170989 130.98883054 -536.88619995 127.31610107 C-536.13999818 125.63097832 -535.39324655 123.94609887 -534.64578247 122.26153564 C-526.43190906 103.7496466 -518.44529111 85.14497006 -510.40625 66.5546875 C-422.95625 66.5546875 -335.50625 66.5546875 -245.40625 66.5546875 C-245.40625 76.1246875 -245.40625 85.6946875 -245.40625 95.5546875 C-241.36375 93.8015625 -237.32125 92.0484375 -233.15625 90.2421875 C-220.05702901 84.56405747 -206.95143487 78.90074839 -193.84375 73.2421875 C-180.80822274 67.6147346 -167.77320981 61.98611063 -154.74139404 56.35006714 C-152.46646255 55.36619822 -150.19148532 54.38243511 -147.91650391 53.39868164 C-141.15323806 50.47390678 -134.39038545 47.54818444 -127.62876892 44.61959839 C-123.82564725 42.97245779 -120.02226786 41.325913 -116.21875 39.6796875 C-115.46238251 39.35230591 -114.70601501 39.02492432 -113.92672729 38.68762207 C-104.99603533 34.82322882 -96.05938759 30.97311442 -87.11328125 27.14453125 C-86.24452866 26.77262665 -85.37577606 26.40072205 -84.48069763 26.01754761 C-80.0800653 24.13415589 -75.67837239 22.25329674 -71.27514648 20.37597656 C-62.27142171 16.53190802 -53.29722158 12.63175468 -44.359375 8.63671875 C-41.69016528 7.44979761 -39.02060001 6.26367888 -36.35101318 5.0776062 C-33.84248107 3.95703955 -31.34149557 2.82073326 -28.84033203 1.68383789 C-27.30796425 1.00198641 -25.77526709 0.32087453 -24.2421875 -0.359375 C-23.224664 -0.83137581 -23.224664 -0.83137581 -22.18658447 -1.31291199 C-13.93694959 -4.92477845 -7.84710058 -3.74403298 0 0 Z " fill="#010102" transform="translate(601.40625,3.4453125)"/>
<path d="M0 0 C0.78889114 0.36120438 1.57778229 0.72240875 2.39057922 1.09455872 C4.96468335 2.2762783 7.5288452 3.47815034 10.09375 4.6796875 C11.9024163 5.51293703 13.71191699 6.34437764 15.5222168 7.17407227 C18.27056261 8.43382823 21.01843094 9.69450182 23.76383972 10.96064758 C31.6010114 14.57419063 39.48930503 18.05781474 47.40625 21.4921875 C49.99790815 22.61991923 52.58886955 23.74924578 55.1796875 24.87890625 C56.17212715 25.311427 56.17212715 25.311427 57.18461609 25.75268555 C67.22368793 30.13236387 77.23530001 34.57467083 87.2505188 39.00854492 C97.55916451 43.57222793 107.87402425 48.12061349 118.20703125 52.62890625 C120.09449608 53.45341925 121.98194746 54.27796306 123.86938477 55.10253906 C127.43965507 56.66212971 131.01206416 58.21667894 134.58569336 59.76855469 C136.20825579 60.47701841 137.83073741 61.18566725 139.453125 61.89453125 C140.53929863 62.36363167 140.53929863 62.36363167 141.64741516 62.84220886 C142.33063339 63.14169937 143.01385162 63.44118988 143.71777344 63.74975586 C144.30089294 64.00333359 144.88401245 64.25691132 145.48480225 64.51817322 C148.59858784 66.04854932 151.5813452 67.83331333 154.59375 69.5546875 C154.59375 123.6746875 154.59375 177.7946875 154.59375 233.5546875 C202.11375 233.5546875 249.63375 233.5546875 298.59375 233.5546875 C297.7645049 238.5301581 296.86084996 241.6559038 294.84765625 246.13671875 C294.5655278 246.77038361 294.28339935 247.40404846 293.99272156 248.05691528 C293.37789131 249.43562554 292.7598741 250.81291803 292.13903809 252.18893433 C291.13115006 254.42281905 290.13144439 256.66020962 289.13378906 258.89868164 C288.06575095 261.29477958 286.99717048 263.69062111 285.92611694 266.08537292 C282.22936325 274.3523037 278.59343842 282.64552677 274.96118164 290.94094849 C268.38748723 305.9495316 261.78089594 320.94353397 255.15625 335.9296875 C254.76329742 336.81862701 254.37034485 337.70756653 253.96548462 338.6234436 C250.77649475 345.83699826 247.58620911 353.04997968 244.39587402 360.26293945 C235.47365957 380.43545611 226.55632637 400.61011449 217.6789856 420.8024292 C216.87773045 422.62460426 216.07603981 424.44658788 215.27389526 426.26837158 C214.16825013 428.77989655 213.06434058 431.29217687 211.9609375 433.8046875 C211.63274521 434.54939301 211.30455292 435.29409851 210.96641541 436.06137085 C209.73437343 438.87109796 208.56455998 441.64225756 207.59375 444.5546875 C120.14375 444.5546875 32.69375 444.5546875 -57.40625 444.5546875 C-57.73625 434.9846875 -58.06625 425.4146875 -58.40625 415.5546875 C-62.7375 417.4521875 -67.06875 419.3496875 -71.53125 421.3046875 C-99.12762495 433.38396313 -126.75920525 445.38298294 -154.40258789 457.35424805 C-166.76071467 462.70641531 -179.11470682 468.06810225 -191.46875 473.4296875 C-193.73779211 474.41439001 -196.00683508 475.39909052 -198.27587891 476.38378906 C-208.99997169 481.03783424 -219.72383487 485.69240771 -230.44721985 490.3480835 C-235.25662909 492.43612873 -240.06616586 494.52388016 -244.8757019 496.6116333 C-247.15971047 497.6031705 -249.44366768 498.59482602 -251.72756958 499.58660889 C-252.81464203 500.0586676 -253.90171448 500.53072632 -255.02172852 501.01708984 C-256.60318916 501.70402924 -256.60318916 501.70402924 -258.21659851 502.40484619 C-260.24408576 503.28433083 -262.2723106 504.16211746 -264.30134583 505.0380249 C-268.47036697 506.83819463 -272.6322029 508.64647584 -276.76220703 510.53466797 C-277.40170792 510.8225267 -278.0412088 511.11038544 -278.7000885 511.40696716 C-280.30623484 512.13191548 -281.90653232 512.86978781 -283.50610352 513.60913086 C-289.45049362 515.54722522 -293.99240583 514.68438764 -299.578125 512.16015625 C-301.37624634 511.36013184 -301.37624634 511.36013184 -303.21069336 510.54394531 C-304.52591835 509.94344577 -305.84110248 509.3428567 -307.15625 508.7421875 C-308.56003116 508.1129241 -309.96442819 507.48503309 -311.36938477 506.85839844 C-314.42294832 505.49469815 -317.47338421 504.12429648 -320.52197266 502.74951172 C-328.20439146 499.29030158 -335.91835548 495.90220541 -343.62750244 492.50311279 C-346.37199642 491.292225 -349.11559134 490.07932327 -351.85888672 488.86572266 C-363.31996723 483.79558861 -374.79090861 478.74848877 -386.26950073 473.71813965 C-401.26994616 467.14313121 -416.25930064 460.54316282 -431.23223877 453.9057312 C-433.2529328 453.0103439 -435.27404637 452.11590274 -437.29559326 451.22244263 C-440.10193487 449.98177036 -442.90664722 448.73748809 -445.7109375 447.4921875 C-446.54951294 447.12222153 -447.38808838 446.75225555 -448.2520752 446.37107849 C-449.02208862 446.0281929 -449.79210205 445.68530731 -450.58544922 445.33203125 C-451.25454315 445.03546631 -451.92363708 444.73890137 -452.61300659 444.43334961 C-454.40625 443.5546875 -454.40625 443.5546875 -457.40625 441.5546875 C-457.77539349 438.74734306 -457.77539349 438.74734306 -457.76701355 435.08810425 C-457.76957682 434.41669281 -457.7721401 433.74528137 -457.77478105 433.05352414 C-457.77974112 430.79309181 -457.76319033 428.53332048 -457.74682617 426.27294922 C-457.74598038 424.65691137 -457.74645411 423.04087238 -457.74815369 421.42483521 C-457.74901692 417.02829937 -457.73133825 412.63200745 -457.71043181 408.23552847 C-457.69171955 403.64442769 -457.68991889 399.05332175 -457.68635559 394.46218872 C-457.67701906 385.76403963 -457.65238358 377.06600322 -457.62230712 368.36790383 C-457.58255424 356.61713444 -457.56632123 344.86633439 -457.54880047 333.11551476 C-457.52056358 314.59515455 -457.4608048 296.07503216 -457.40625 277.5546875 C-504.92625 277.5546875 -552.44625 277.5546875 -601.40625 277.5546875 C-600.28129268 270.80494356 -600.28129268 270.80494356 -598.92602539 267.76049805 C-598.6230957 267.07077408 -598.32016602 266.38105011 -598.00805664 265.67042542 C-597.67668701 264.93484909 -597.34531738 264.19927277 -597.00390625 263.44140625 C-596.65505371 262.65205185 -596.30620117 261.86269745 -595.94677734 261.04942322 C-594.79374089 258.44416367 -593.63119625 255.84326037 -592.46875 253.2421875 C-591.65153932 251.39989739 -590.83506407 249.55728089 -590.01928711 247.71435547 C-588.32426793 243.88660089 -586.62609008 240.06027091 -584.92578125 236.23486328 C-581.44689022 228.40087048 -578.01011631 220.54849035 -574.5715332 212.69674683 C-568.06487463 197.84555433 -561.52350201 183.00970471 -554.96875 168.1796875 C-554.57619019 167.29144287 -554.18363037 166.40319824 -553.7791748 165.48803711 C-549.77787013 156.43493653 -545.77392696 147.38301143 -541.76417542 138.33364868 C-540.13733184 134.66150973 -538.51170989 130.98883054 -536.88619995 127.31610107 C-536.13999818 125.63097832 -535.39324655 123.94609887 -534.64578247 122.26153564 C-526.43190906 103.7496466 -518.44529111 85.14497006 -510.40625 66.5546875 C-422.95625 66.5546875 -335.50625 66.5546875 -245.40625 66.5546875 C-245.40625 76.1246875 -245.40625 85.6946875 -245.40625 95.5546875 C-241.36375 93.8015625 -237.32125 92.0484375 -233.15625 90.2421875 C-220.05702901 84.56405747 -206.95143487 78.90074839 -193.84375 73.2421875 C-180.80822274 67.6147346 -167.77320981 61.98611063 -154.74139404 56.35006714 C-152.46646255 55.36619822 -150.19148532 54.38243511 -147.91650391 53.39868164 C-141.15323806 50.47390678 -134.39038545 47.54818444 -127.62876892 44.61959839 C-123.82564725 42.97245779 -120.02226786 41.325913 -116.21875 39.6796875 C-115.46238251 39.35230591 -114.70601501 39.02492432 -113.92672729 38.68762207 C-104.99603533 34.82322882 -96.05938759 30.97311442 -87.11328125 27.14453125 C-86.24452866 26.77262665 -85.37577606 26.40072205 -84.48069763 26.01754761 C-80.0800653 24.13415589 -75.67837239 22.25329674 -71.27514648 20.37597656 C-62.27142171 16.53190802 -53.29722158 12.63175468 -44.359375 8.63671875 C-41.69016528 7.44979761 -39.02060001 6.26367888 -36.35101318 5.0776062 C-33.84248107 3.95703955 -31.34149557 2.82073326 -28.84033203 1.68383789 C-27.30796425 1.00198641 -25.77526709 0.32087453 -24.2421875 -0.359375 C-23.224664 -0.83137581 -23.224664 -0.83137581 -22.18658447 -1.31291199 C-13.93694959 -4.92477845 -7.84710058 -3.74403298 0 0 Z M-22.4375 29.96484375 C-23.24768585 30.32340454 -24.0578717 30.68196533 -24.89260864 31.0513916 C-26.64634183 31.82807546 -28.39899728 32.60719633 -30.1506958 33.38845825 C-34.83240621 35.47607987 -39.52214988 37.54552284 -44.2109375 39.6171875 C-45.16181244 40.03787003 -46.11268738 40.45855255 -47.09237671 40.89198303 C-55.71044293 44.70054804 -64.36373701 48.42284802 -73.03125 52.1171875 C-87.30626478 58.20768728 -101.53945269 64.39088218 -115.76074219 70.60571289 C-125.43211446 74.83089898 -135.11209762 79.03227694 -144.83740234 83.13232422 C-148.37632352 84.43466073 -148.37632352 84.43466073 -151.40625 86.5546875 C-151.56621166 89.14621857 -151.66563697 91.7142077 -151.72265625 94.30859375 C-151.7538279 95.47176369 -151.7538279 95.47176369 -151.78562927 96.65843201 C-151.85120802 99.14459058 -151.91004799 101.63085795 -151.96875 104.1171875 C-152.01192733 105.79883954 -152.05554136 107.48048044 -152.09960938 109.16210938 C-152.20772281 113.2928587 -152.30673331 117.42368617 -152.40625 121.5546875 C-158.01625 112.9746875 -163.62625 104.3946875 -169.40625 95.5546875 C-175.47450378 96.3504824 -175.47450378 96.3504824 -180.83642578 98.25024414 C-181.63875641 98.59951462 -182.44108704 98.9487851 -183.26773071 99.30863953 C-184.1203952 99.69018692 -184.97305969 100.07173431 -185.8515625 100.46484375 C-186.7629599 100.8642366 -187.6743573 101.26362946 -188.6133728 101.67512512 C-191.58951878 102.98130208 -194.56028907 104.29926523 -197.53125 105.6171875 C-199.59529274 106.52518475 -201.65975031 107.43223958 -203.72460938 108.33837891 C-207.92235096 110.18112837 -212.11845045 112.02754261 -216.31347656 113.87646484 C-224.38459859 117.42949755 -232.4780413 120.9304474 -240.57513428 124.42379761 C-242.83456073 125.39875317 -245.09340475 126.37504466 -247.35205078 127.35180664 C-256.02959648 131.10312997 -264.71684627 134.83065733 -273.40625 138.5546875 C-273.40625 124.0346875 -273.40625 109.5146875 -273.40625 94.5546875 C-345.34625 94.5546875 -417.28625 94.5546875 -491.40625 94.5546875 C-500.6098891 114.37964699 -500.6098891 114.37964699 -509.40625 134.3671875 C-510.49418879 136.89928084 -511.58349205 139.43072338 -512.67578125 141.9609375 C-512.96427444 142.62922073 -513.25276764 143.29750397 -513.55000305 143.98603821 C-517.65875981 153.47833459 -521.88391518 162.91942198 -526.09375 172.3671875 C-533.64628217 189.3191066 -541.14328575 206.29429762 -548.58276367 223.29614258 C-549.28300666 224.89535981 -549.98328215 226.49456281 -550.68359375 228.09375 C-551.01115158 228.84281113 -551.33870941 229.59187225 -551.67619324 230.3636322 C-553.91598053 235.47370663 -556.22107272 240.55012901 -558.59594727 245.59912109 C-559.53384886 247.50983218 -559.53384886 247.50983218 -559.40625 249.5546875 C-516.17625 249.5546875 -472.94625 249.5546875 -428.40625 249.5546875 C-428.40625 306.9746875 -428.40625 364.3946875 -428.40625 423.5546875 C-418.69725092 428.40918704 -409.17589765 433.08608956 -399.21875 437.3046875 C-396.59472404 438.4272079 -393.97291194 439.55483889 -391.3515625 440.68359375 C-390.65236191 440.98445389 -389.95316132 441.28531403 -389.23277283 441.59529114 C-379.65038708 445.72912996 -370.12565493 449.9936326 -360.59375 454.2421875 C-345.21459945 461.09291343 -329.8218016 467.91123757 -314.40625 474.6796875 C-313.5239975 475.06740326 -312.641745 475.45511902 -311.73275757 475.85458374 C-309.24935252 476.9457074 -306.76541591 478.03560989 -304.28125 479.125 C-303.18910942 479.60482582 -303.18910942 479.60482582 -302.0749054 480.09434509 C-300.18803108 480.92060082 -298.29731478 481.73806814 -296.40625 482.5546875 C-295.50132812 482.9760498 -294.59640625 483.39741211 -293.6640625 483.83154297 C-288.82655171 485.38092737 -284.40476891 482.352466 -279.9765625 480.4140625 C-279.24267807 480.09574966 -278.50879364 479.77743683 -277.75267029 479.44947815 C-275.3442726 478.40408265 -272.93777478 477.3543864 -270.53125 476.3046875 C-268.85030934 475.57416298 -267.16923696 474.8439415 -265.48803711 474.11401367 C-262.07876712 472.63334822 -258.67019077 471.15110397 -255.26220703 469.66748047 C-250.95665176 467.79345431 -246.64899203 465.92434155 -242.33984375 464.05859375 C-241.71911987 463.78983429 -241.098396 463.52107483 -240.4588623 463.24417114 C-239.84772583 462.97958099 -239.23658936 462.71499084 -238.60693359 462.44238281 C-234.95756615 460.86234532 -231.30877398 459.28098662 -227.66015625 457.69921875 C-220.8679063 454.75471833 -214.07527284 451.81110392 -207.28253174 448.86773682 C-205.42188849 448.06146413 -203.56128059 447.2551099 -201.70068359 446.44873047 C-195.8820344 443.92700296 -190.06313077 441.40586729 -184.24337769 438.88668823 C-181.51607962 437.70609024 -178.78891863 436.52517582 -176.06176758 435.34423828 C-174.77082017 434.78532419 -173.47980678 434.22656245 -172.1887207 433.66796875 C-170.3899656 432.88971829 -168.59146337 432.11088347 -166.79296875 431.33203125 C-165.77420654 430.89109131 -164.75544434 430.45015137 -163.70581055 429.99584961 C-159.59747099 428.20143389 -155.50297853 426.37545574 -151.40625 424.5546875 C-151.07625 412.6746875 -150.74625 400.7946875 -150.40625 388.5546875 C-144.13625 397.7946875 -137.86625 407.0346875 -131.40625 416.5546875 C-118.62358581 411.04059706 -105.89256095 405.43761848 -93.21875 399.6796875 C-80.7475035 394.01587057 -68.20336319 388.55335502 -55.59765625 383.1953125 C-49.13946515 380.45016282 -42.71951143 377.62398146 -36.3125 374.76171875 C-33.40625 373.5546875 -33.40625 373.5546875 -29.40625 372.5546875 C-29.40625 387.0746875 -29.40625 401.5946875 -29.40625 416.5546875 C42.53375 416.5546875 114.47375 416.5546875 188.59375 416.5546875 C200.55196715 389.68766924 200.55196715 389.68766924 212.40686035 362.77584839 C214.2493426 358.56567405 216.09531239 354.3570292 217.94140625 350.1484375 C218.3209848 349.2830687 218.70056335 348.41769989 219.09164429 347.52610779 C223.08812273 338.41995557 227.10972861 329.32494776 231.13275146 320.23049927 C233.49635558 314.88591396 235.85679569 309.53993025 238.2175293 304.19407654 C240.42661783 299.19274488 242.64042101 294.19353676 244.85794067 289.19593811 C246.19253109 286.18520305 247.52262931 283.17249984 248.85144043 280.15921021 C249.46526472 278.76988576 250.08103065 277.38141733 250.69885254 275.99386597 C251.53737663 274.11008102 252.36912595 272.22344948 253.19921875 270.3359375 C253.66481201 269.28470703 254.13040527 268.23347656 254.61010742 267.15039062 C255.77092996 264.54977113 255.77092996 264.54977113 255.59375 261.5546875 C212.69375 261.5546875 169.79375 261.5546875 125.59375 261.5546875 C125.59375 204.1346875 125.59375 146.7146875 125.59375 87.5546875 C116.58203251 82.99114135 116.58203251 82.99114135 107.44140625 78.828125 C106.35947998 78.36446533 105.27755371 77.90080566 104.1628418 77.4230957 C103.0056665 76.930271 101.84849121 76.43744629 100.65625 75.9296875 C97.99592841 74.78855194 95.3374965 73.64306806 92.6796875 72.49609375 C91.96811996 72.18905014 91.25655243 71.88200653 90.52342224 71.56565857 C80.90998865 67.40696924 71.34841401 63.13092685 61.78125 58.8671875 C44.7695007 51.28826352 27.73442819 43.76471365 10.67651367 36.2902832 C9.86161972 35.93319778 9.04672577 35.57611237 8.20713806 35.20820618 C6.71008983 34.55237251 5.21292033 33.89681555 3.71559143 33.24162292 C3.03890915 32.94532486 2.36222687 32.64902679 1.66503906 32.34375 C1.00636841 32.05661133 0.34769775 31.76947266 -0.33093262 31.47363281 C-1.8314452 30.80920962 -3.32522337 30.12950685 -4.8145752 29.44042969 C-5.6134314 29.07336914 -6.4122876 28.70630859 -7.23535156 28.328125 C-7.96127502 27.98958496 -8.68719849 27.65104492 -9.43511963 27.30224609 C-14.24273666 25.47893928 -18.07832041 28.00599752 -22.4375 29.96484375 Z " fill="#AEB2FD" transform="translate(601.40625,3.4453125)"/>
<path d="M0 0 C0 88.44 0 176.88 0 268 C-48.15909091 288.99242424 -48.15909091 288.99242424 -62.30859375 295.1015625 C-66.68543171 296.99183261 -71.05165455 298.90378334 -75.41015625 300.8359375 C-76.39290527 301.26777344 -77.3756543 301.69960938 -78.38818359 302.14453125 C-80.19531624 302.93887527 -81.99929497 303.74045191 -83.79931641 304.55078125 C-84.58097168 304.89238281 -85.36262695 305.23398437 -86.16796875 305.5859375 C-87.17766724 306.03525635 -87.17766724 306.03525635 -88.20776367 306.49365234 C-90 307 -90 307 -93 306 C-94.26657104 304.49868774 -94.26657104 304.49868774 -95.54248047 302.52978516 C-96.03028992 301.78620255 -96.51809937 301.04261993 -97.02069092 300.27650452 C-97.54753479 299.45564865 -98.07437866 298.63479279 -98.6171875 297.7890625 C-99.17851379 296.92965561 -99.73984009 296.07024872 -100.31817627 295.18479919 C-101.53787118 293.31597933 -102.75394751 291.44479401 -103.96685791 289.57156372 C-107.20613899 284.5694477 -110.47140708 279.58433999 -113.734375 274.59765625 C-114.40868561 273.56573654 -115.08299622 272.53381683 -115.77774048 271.47062683 C-123.73622228 259.3106291 -131.88078389 247.27712784 -140.03314209 235.24664307 C-141.24977233 233.45124655 -142.46601581 231.65558787 -143.68182373 229.8596344 C-144.77964688 228.23839632 -145.87871828 226.61800247 -146.97930908 224.99864197 C-147.46711853 224.27858475 -147.95492798 223.55852753 -148.45751953 222.81665039 C-148.87856964 222.19657608 -149.29961975 221.57650177 -149.73342896 220.93763733 C-151.21885324 218.66519194 -152.60321335 216.32797775 -154 214 C-154.33 253.93 -154.66 293.86 -155 335 C-193.83971292 352.13516746 -193.83971292 352.13516746 -211.3125 359.5625 C-214.78873297 361.04069764 -218.26412424 362.52083579 -221.73828125 364.00390625 C-222.54580841 364.34829742 -223.35333557 364.6926886 -224.18533325 365.04751587 C-230.06934153 367.56949456 -235.87683075 370.22302724 -241.65307617 372.98413086 C-244 374 -244 374 -246 374 C-246 285.56 -246 197.12 -246 106 C-237.1734881 101.58674405 -228.50312623 97.37244423 -219.4375 93.5625 C-217.64608288 92.80210628 -215.85467992 92.04167863 -214.06370544 91.28024292 C-212.78604001 90.73707476 -211.50817386 90.19437851 -210.2301178 89.65213013 C-202.39669582 86.32615104 -194.58668071 82.94600504 -186.77639771 79.56613159 C-184.36027202 78.52067101 -181.94371805 77.47620571 -179.52709961 76.43188477 C-178.76710159 76.1030983 -178.00710358 75.77431183 -177.22407532 75.43556213 C-175.75468521 74.80016185 -174.28487889 74.16572304 -172.81462097 73.53233337 C-168.44909111 71.64707586 -164.12140882 69.69989213 -159.84838867 67.61132812 C-157.39875023 66.80114524 -155.57050566 66.73592181 -153 67 C-151.41889954 68.48872375 -151.41889954 68.48872375 -150.0559082 70.6105957 C-149.53313797 71.40532791 -149.01036774 72.20006012 -148.47175598 73.01887512 C-147.92033432 73.89565414 -147.36891266 74.77243317 -146.80078125 75.67578125 C-146.21266159 76.57967087 -145.62454193 77.48356049 -145.01860046 78.4148407 C-143.10033354 81.3705771 -141.20665744 84.34126798 -139.3125 87.3125 C-137.99856868 89.34558093 -136.68280709 91.37748016 -135.36523438 93.40820312 C-132.75678845 97.43121492 -130.15598668 101.45899488 -127.56103516 105.49072266 C-123.11882466 112.38011952 -118.57207862 119.19642081 -114 126 C-108.76640759 133.82446781 -103.57074124 141.67177956 -98.4375 149.5625 C-97.89416016 150.39716797 -97.35082031 151.23183594 -96.79101562 152.09179688 C-93.12981808 157.74036383 -93.12981808 157.74036383 -92 160 C-91.67 120.07 -91.34 80.14 -91 39 C-79.75283447 33.37641723 -79.75283447 33.37641723 -74.515625 31.125 C-72.76439331 30.36932739 -72.76439331 30.36932739 -70.9777832 29.59838867 C-69.73520928 29.06554469 -68.49261433 28.53274974 -67.25 28 C-65.93631519 27.43429516 -64.62275988 26.86828953 -63.30932617 26.30200195 C-60.58021693 25.12554554 -57.8505569 23.95037953 -55.12060547 22.77587891 C-51.08854255 21.03979064 -47.06118635 19.29299438 -43.03515625 17.54296875 C-31.95364913 12.72654306 -20.87110712 7.91194113 -9.75 3.1875 C-8.97567627 2.85580811 -8.20135254 2.52411621 -7.40356445 2.18237305 C-2.23428171 0 -2.23428171 0 0 0 Z " fill="#FDFDFD" transform="translate(573,72)"/>
<path d="M0 0 C1.21584495 0.00092179 2.43168989 0.00184359 3.68437862 0.00279331 C4.69388828 0.00150928 4.69388828 0.00150928 5.72379208 0.00019932 C8.0025863 -0.0014655 10.2813082 0.00408327 12.56009579 0.00952244 C14.21224846 0.00982854 15.86440126 0.00969568 17.51655388 0.00915718 C21.95652188 0.00893064 26.39646315 0.01474278 30.83642483 0.02176762 C34.99679814 0.02744621 39.15716482 0.02772984 43.31754208 0.02844334 C55.49922696 0.03369878 67.68090682 0.04765982 79.86258602 0.06054783 C107.06696102 0.08117283 134.27133602 0.10179783 162.30008602 0.12304783 C162.30008602 104.40304783 162.30008602 208.68304783 162.30008602 316.12304783 C156.12019301 314.06308349 150.2919091 311.92522278 144.38602352 309.27148533 C143.11222332 308.70574299 143.11222332 308.70574299 141.81268978 308.12857151 C139.09839832 306.9222986 136.38660751 305.71053263 133.67508602 304.49804783 C112.93596961 295.24984422 92.11774655 286.19741268 71.30008602 277.12304783 C71.30008602 221.02304783 71.30008602 164.92304783 71.30008602 107.12304783 C98.30008602 94.12304783 98.30008602 94.12304783 103.30008602 92.12304783 C31.52508602 91.62804783 31.52508602 91.62804783 -41.69991398 91.12304783 C-40.57497756 84.37342933 -40.57497756 84.37342933 -39.12789249 81.14526463 C-38.80503773 80.41572071 -38.48218296 79.6861768 -38.14954472 78.93452549 C-37.79620564 78.15498005 -37.44286655 77.37543461 -37.07882023 76.57226658 C-36.70691059 75.73652607 -36.33500095 74.90078556 -35.95182133 74.03971958 C-34.72833801 71.29379208 -33.49538818 68.55222513 -32.26241398 65.81054783 C-30.97574288 62.92988269 -29.69138566 60.04819239 -28.40700626 57.16650486 C-27.5209289 55.1791488 -26.6339955 53.19217421 -25.74623966 51.20556736 C-22.62420618 44.21569149 -19.53591965 37.21168228 -16.46944523 30.19726658 C-16.05443256 29.24835041 -15.6394199 28.29943424 -15.21183109 27.32176304 C-13.60135582 23.63805831 -11.99167656 19.95401189 -10.38500309 16.26864719 C-9.28108248 13.73744292 -8.17436026 11.2074807 -7.06710148 8.67773533 C-6.73881855 7.92252094 -6.41053562 7.16730656 -6.07230473 6.38920689 C-3.3380854 0.15213231 -3.3380854 0.15213231 0 0 Z " fill="#FDFDFD" transform="translate(133.69991397857666,129.87695217132568)"/>
<path d="M0 0 C3.84902375 0.96225594 7.23179273 2.34159077 10.82421875 3.96484375 C11.50669174 4.26984802 12.18916473 4.57485229 12.89231873 4.88909912 C15.15864983 5.90241939 17.42303048 6.92002734 19.6875 7.9375 C22.93796047 9.39251081 26.18957964 10.84492035 29.44140625 12.296875 C30.2901532 12.67611618 31.13890015 13.05535736 32.0133667 13.4460907 C38.38135616 16.28780136 44.76324263 19.09673555 51.15234375 21.890625 C52.53044472 22.49355125 52.53044472 22.49355125 53.93638611 23.10865784 C57.54838999 24.68835207 61.16064167 26.26745134 64.7749939 27.84176636 C67.29108665 28.93783932 69.80578322 30.03706474 72.3203125 31.13671875 C73.41683388 31.61247345 73.41683388 31.61247345 74.5355072 32.09783936 C80.14069328 34.55331279 85.50487062 37.25243531 91 40 C91 95.77 91 151.54 91 209 C81.76 213.29 72.52 217.58 63 222 C61.02 222.99 61.02 222.99 59 224 C130.775 224.495 130.775 224.495 204 225 C203.30619597 228.46902017 202.81580358 230.75755902 201.44384766 233.83251953 C201.12485504 234.55424347 200.80586243 235.27596741 200.47720337 236.01956177 C200.12636688 236.79943451 199.7755304 237.57930725 199.4140625 238.3828125 C199.03881439 239.22818573 198.66356628 240.07355896 198.27694702 240.94454956 C197.06438291 243.67351012 195.84494125 246.39933048 194.625 249.125 C193.874521 250.80968253 193.12451822 252.49457729 192.375 254.1796875 C189.58370194 260.45328901 186.79181461 266.72662834 184 273 C177.73 287.19 171.46 301.38 165 316 C110.55 316 56.1 316 0 316 C0 211.72 0 107.44 0 0 Z " fill="#FDFDFD" transform="translate(604,72)"/>
</svg>
