<?xml version="1.0" encoding="UTF-8"?>
<svg version="1.1" xmlns="http://www.w3.org/2000/svg" width="249" height="245">
<path d="M0 0 C2.20834318 0.00141166 4.4166887 0.0006162 6.62503052 -0.00221252 C12.59966169 -0.00364347 18.57378802 0.02569489 24.54830217 0.06065726 C30.7996211 0.09197403 37.05095238 0.09485571 43.30233765 0.1007843 C53.7882295 0.11454487 64.27396582 0.14574767 74.75976562 0.19042969 C85.55598026 0.23638635 96.35214468 0.27174825 107.1484375 0.29296875 C107.81489727 0.29428237 108.48135705 0.29559598 109.16801257 0.29694941 C112.51173789 0.30347501 115.85546354 0.30978216 119.19918942 0.31600893 C146.9003367 0.36823156 174.60127839 0.45614357 202.30224609 0.56762695 C202.44252223 29.30550989 202.54826935 58.04334138 202.61311913 86.78149796 C202.64403286 100.12570341 202.68616623 113.46965189 202.75488281 126.8137207 C202.81476034 138.44689827 202.8534133 150.07992158 202.86677706 161.71324897 C202.87458654 167.87081742 202.89288966 174.02794462 202.93662643 180.1853714 C202.97749887 185.98681593 202.98988533 191.78763948 202.98089218 197.58921432 C202.98253626 199.71278386 202.99438327 201.83637521 203.01747894 203.95981979 C203.14940186 216.72010465 203.15350457 227.1557021 194.01389122 237.04324722 C186.96866561 243.88435737 180.58206227 246.0272714 170.99452209 245.9283905 C169.61960237 245.93223541 169.61960237 245.93223541 168.21690649 245.936158 C165.15671171 245.94108504 162.09701429 245.92462063 159.03686523 245.90820312 C156.83881644 245.90735662 154.6407668 245.90783245 152.44271851 245.90953064 C146.48250486 245.9103911 140.52247246 245.89275689 134.56230092 245.87180877 C128.33096693 245.85305058 122.09962875 245.8512922 115.86827087 245.84773254 C105.41157964 245.83946871 94.9549504 245.82073213 84.49829102 245.79394531 C73.73006522 245.76638911 62.96185748 245.74516319 52.19360352 245.73242188 C51.52934257 245.7316337 50.86508162 245.73084553 50.18069155 245.73003348 C46.84813821 245.72611824 43.51558475 245.72233392 40.1830312 245.71859777 C12.55605658 245.68724305 -15.07084399 245.63447757 -42.69775391 245.56762695 C-42.7911908 216.49985191 -42.86173006 187.43209937 -42.90500259 158.36420441 C-42.90908198 155.6774545 -42.91324726 152.99070474 -42.91748047 150.30395508 C-42.91852971 149.63615585 -42.91957895 148.96835663 -42.92065999 148.28032106 C-42.93805553 137.47364807 -42.96958849 126.66706036 -43.00636509 115.86043793 C-43.04379826 104.76820649 -43.06569545 93.67600979 -43.07410789 82.58371687 C-43.07932298 76.3548442 -43.09158183 70.12616485 -43.12067413 63.89735413 C-43.14783915 58.0336347 -43.15619656 52.17018812 -43.15018463 46.30641174 C-43.15128437 44.15538042 -43.15923156 42.00433991 -43.17457581 39.85336304 C-43.19452034 36.91309801 -43.18967644 33.97385883 -43.17877197 31.03356934 C-43.19042334 30.18529965 -43.2020747 29.33702996 -43.21407914 28.46305513 C-43.12985582 20.04294815 -39.59388018 13.53599162 -33.78096581 7.52830029 C-24.17881908 -1.50902953 -12.32682106 -0.110312 0 0 Z M-0.38525391 60.19262695 C-3.9870444 66.7101526 -4.03793999 74.41672444 -4.01025391 81.69262695 C-4.02636719 82.54727539 -4.04248047 83.40192383 -4.05908203 84.2824707 C-4.06332012 89.80046676 -3.38876011 93.71499281 -0.69775391 98.56762695 C2.44496898 100.66277554 4.36556465 101.11241137 8.11474609 101.0090332 C13.68280839 99.88547778 17.83547191 95.45394646 21.23974609 91.13012695 C23.48956517 87.66006702 24.30224609 84.75818031 24.30224609 80.56762695 C22.27103052 74.13544431 18.93296011 69.3214363 13.30224609 65.56762695 C12.97224609 64.57762695 12.64224609 63.58762695 12.30224609 62.56762695 C20.16357462 63.59419219 27.07834933 65.27532002 34.30224609 68.56762695 C31.75439981 62.35892785 25.25938422 59.21663528 19.30224609 56.69262695 C11.82213397 54.18432588 5.41702445 54.60524779 -0.38525391 60.19262695 Z M125.30224609 66.56762695 C125.63224609 67.22762695 125.96224609 67.88762695 126.30224609 68.56762695 C126.84494141 68.29047852 127.38763672 68.01333008 127.94677734 67.7277832 C128.66220703 67.36555664 129.37763672 67.00333008 130.11474609 66.63012695 C130.82244141 66.27047852 131.53013672 65.91083008 132.25927734 65.5402832 C135.6533512 63.92436659 138.2772823 63.45132313 141.98974609 63.50512695 C143.20210937 63.51866211 143.20210937 63.51866211 144.43896484 63.5324707 C145.36128906 63.54987305 145.36128906 63.54987305 146.30224609 63.56762695 C146.30224609 64.55762695 146.30224609 65.54762695 146.30224609 66.56762695 C145.41085938 66.9543457 145.41085938 66.9543457 144.50146484 67.34887695 C142.1247391 68.66599673 140.83439037 69.98106629 139.11474609 72.06762695 C138.60556641 72.67606445 138.09638672 73.28450195 137.57177734 73.91137695 C134.56390975 77.83548729 134.75114845 81.79414883 135.30224609 86.56762695 C138.00322552 92.32188746 143.04118868 97.05448664 148.30224609 100.56762695 C152.34276215 101.76535136 155.35012365 101.00229155 159.17724609 99.25512695 C164.62840058 92.3610198 163.84210681 81.65080984 162.95458984 73.29418945 C161.7765929 63.99223609 161.7765929 63.99223609 156.17724609 56.75512695 C144.80459502 52.0577276 133.23190475 58.4789207 125.30224609 66.56762695 Z M-0.69775391 134.56762695 C-4.07510561 139.27073733 -4.53809997 142.93069883 -3.69775391 148.56762695 C0.3446516 160.92322798 11.50484486 168.50392692 22.53271484 174.2512207 C28.2635559 176.81520916 33.02766162 178.57604231 39.30224609 177.56762695 C41.76847613 175.89929487 43.00098226 174.05377855 44.55615234 171.54418945 C47.84037501 166.30017179 51.09620678 162.76665489 56.15380859 159.1730957 C59.06042488 157.00106062 61.66501999 154.84207915 63.30224609 151.56762695 C63.38450163 143.16111102 61.19642114 133.97042515 56.05224609 127.19262695 C49.96513683 121.38220447 44.15895645 118.21083787 35.62646484 118.3527832 C22.55477045 119.56109109 8.96670689 125.81490774 -0.69775391 134.56762695 Z M104.13037109 126.4699707 C98.04611114 133.45126899 95.72558092 142.02691938 95.83349609 151.14575195 C96.67967989 155.51770159 99.79636454 157.17514446 103.30224609 159.56762695 C108.97453336 163.93343731 112.65825536 168.20918598 116.07568359 174.52856445 C117.13962556 176.70961881 117.13962556 176.70961881 119.30224609 177.56762695 C130.75637201 178.84030761 141.38530494 172.183422 150.30224609 165.56762695 C156.66884586 160.14264195 161.82541621 154.54147609 163.30224609 146.06762695 C163.61924877 141.39976258 162.27034136 138.1396951 159.30224609 134.56762695 C149.98628567 124.26831516 134.90451997 119.23632416 121.38037109 118.51293945 C114.17513429 118.64095127 109.34316346 121.63685022 104.13037109 126.4699707 Z M70.30224609 171.56762695 C67.66837254 176.30859935 66.58736103 180.15492574 67.30224609 185.56762695 C69.52087639 188.47479768 70.82169538 189.40744338 74.30224609 190.56762695 C80.16470909 191.09232244 85.41754974 191.23114922 90.30224609 187.56762695 C92.05030645 184.63088555 92.50383818 182.73398114 91.91943359 179.3527832 C90.43586972 174.22851949 88.45287236 171.06289118 84.30224609 167.56762695 C83.97224609 167.23762695 83.64224609 166.90762695 83.30224609 166.56762695 C77.47353429 165.88189615 74.03608239 167.07570875 70.30224609 171.56762695 Z " fill="#E41C2E" transform="translate(42.69775390625,-0.567626953125)"/>
</svg>
