<?xml version="1.0" encoding="UTF-8"?>
<svg version="1.1" xmlns="http://www.w3.org/2000/svg" width="75" height="75">
<path d="M0 0 C0.89912109 -0.02449219 1.79824219 -0.04898438 2.72460938 -0.07421875 C12.60086896 -0.11706586 20.45438043 3.75356073 27.6875 10.375 C35.0046817 18.36813382 38.44628589 26.87859145 38.3125 37.6875 C38.30484619 38.60813232 38.29719238 39.52876465 38.28930664 40.47729492 C38.03694086 48.24455269 36.25307245 54.00158343 31.6875 60.375 C31.20410156 61.1175 30.72070312 61.86 30.22265625 62.625 C25.45724425 69.02738558 18.37040699 73.3793738 10.6875 75.375 C7.07484485 75.88654477 3.52135779 76.03937707 -0.125 76.0625 C-0.99592285 76.06958984 -1.8668457 76.07667969 -2.76416016 76.08398438 C-12.34890261 75.81424833 -20.29370811 71.80023655 -27.3125 65.375 C-34.6296817 57.38186618 -38.07128589 48.87140855 -37.9375 38.0625 C-37.92984619 37.14186768 -37.92219238 36.22123535 -37.91430664 35.27270508 C-37.66253194 27.52363937 -35.90273415 21.71823748 -31.3125 15.375 C-30.75949219 14.60929688 -30.20648438 13.84359375 -29.63671875 13.0546875 C-21.73212987 3.20575147 -12.3181254 0.01743542 0 0 Z " fill="#94E1E7" transform="translate(37.3125,-0.375)"/>
<path d="M0 0 C0.89912109 -0.02449219 1.79824219 -0.04898438 2.72460938 -0.07421875 C12.60086896 -0.11706586 20.45438043 3.75356073 27.6875 10.375 C35.0046817 18.36813382 38.44628589 26.87859145 38.3125 37.6875 C38.30484619 38.60813232 38.29719238 39.52876465 38.28930664 40.47729492 C38.03694086 48.24455269 36.25307245 54.00158343 31.6875 60.375 C31.20410156 61.1175 30.72070312 61.86 30.22265625 62.625 C25.45724425 69.02738558 18.37040699 73.3793738 10.6875 75.375 C7.07484485 75.88654477 3.52135779 76.03937707 -0.125 76.0625 C-0.99592285 76.06958984 -1.8668457 76.07667969 -2.76416016 76.08398438 C-12.34890261 75.81424833 -20.29370811 71.80023655 -27.3125 65.375 C-34.6296817 57.38186618 -38.07128589 48.87140855 -37.9375 38.0625 C-37.92984619 37.14186768 -37.92219238 36.22123535 -37.91430664 35.27270508 C-37.66253194 27.52363937 -35.90273415 21.71823748 -31.3125 15.375 C-30.75949219 14.60929688 -30.20648438 13.84359375 -29.63671875 13.0546875 C-21.73212987 3.20575147 -12.3181254 0.01743542 0 0 Z M-26.3125 13.375 C-33.86077964 22.92533231 -36.07729286 31.33326139 -35.3125 43.375 C-34.85464979 45.88675767 -34.20256472 47.96658958 -33.3125 50.375 C-32.9825 51.365 -32.6525 52.355 -32.3125 53.375 C-24.9123487 52.87991362 -24.9123487 52.87991362 -17.6875 51.3125 C-8.00075559 48.62173766 2.05632594 51.51732234 11.6875 53.375 C10.82769531 53.3028125 9.96789063 53.230625 9.08203125 53.15625 C-5.91884691 51.33083281 -5.91884691 51.33083281 -20.3125 54.375 C-17.56288736 55.14918633 -15.11935189 55.50108823 -12.26586914 55.50439453 C-11.0892849 55.50912277 -11.0892849 55.50912277 -9.88893127 55.51394653 C-9.05031052 55.5119223 -8.21168976 55.50989807 -7.34765625 55.5078125 C-6.04217079 55.50924759 -6.04217079 55.50924759 -4.71031189 55.51071167 C-2.8720594 55.51139129 -1.0338045 55.50955222 0.80444336 55.50537109 C3.61122053 55.50002624 6.41783721 55.50532015 9.22460938 55.51171875 C11.01302119 55.5110578 12.8014329 55.5097763 14.58984375 55.5078125 C15.84473854 55.51084885 15.84473854 55.51084885 17.12498474 55.51394653 C21.11223329 55.49798744 24.79562547 55.36580208 28.6875 54.375 C28.6875 53.715 28.6875 53.055 28.6875 52.375 C30.0075 52.375 31.3275 52.375 32.6875 52.375 C36.3094673 43.47099706 37.45343407 34.34992718 34.125 25.125 C29.0112925 14.14923755 21.46104677 7.8319966 10.25 3.5 C-3.39040768 -0.53448678 -16.16577871 3.91093275 -26.3125 13.375 Z " fill="#93E0E8" transform="translate(37.3125,-0.375)"/>
<path d="M0 0 C3 1 3 1 4.3515625 3.1796875 C4.77179688 4.06914062 5.19203125 4.95859375 5.625 5.875 C6.05039063 6.75929688 6.47578125 7.64359375 6.9140625 8.5546875 C10.21801251 15.99451739 10.09032583 24.62705215 7.5 32.3125 C7.005 33.529375 6.51 34.74625 6 36 C4.68 36 3.36 36 2 36 C2 36.66 2 37.32 2 38 C-3.00221397 39.3226348 -7.98145962 39.12593478 -13.11328125 39.09765625 C-14.08283249 39.0962413 -15.05238373 39.09482635 -16.05131531 39.09336853 C-19.13840867 39.08778513 -22.22542867 39.07523564 -25.3125 39.0625 C-27.40950416 39.05748286 -29.50650946 39.05292032 -31.60351562 39.04882812 C-36.73570521 39.03782112 -41.86784018 39.02056788 -47 39 C-44.51924345 36.51924345 -42.830178 36.04169284 -39.35546875 35.8671875 C-31.19940549 35.8873011 -23.12688653 36.31768269 -15 37 C-27.54432669 34.58042838 -37.60446316 32.7290014 -50.10546875 36.34375 C-53.1595515 37.03617362 -55.87902385 37.11096804 -59 37 C-59.33 35.35 -59.66 33.7 -60 32 C-59.16597656 31.72027344 -58.33195312 31.44054687 -57.47265625 31.15234375 C-49.82919402 28.42941505 -44.12705585 25.26502419 -38 20 C-34.77208445 17.8480563 -33.71599191 17.79913557 -30 18 C-30 15.69 -30 13.38 -30 11 C-33.51338901 12.4876512 -35.64183258 14.49172222 -38.25 17.25 C-42.21315242 21.31831069 -46.34128716 24.76301969 -51 28 C-51.66 27.67 -52.32 27.34 -53 27 C-51.5459375 25.88625 -51.5459375 25.88625 -50.0625 24.75 C-45.65910842 21.01649558 -42.52137061 16.50143917 -39.2109375 11.8046875 C-36.21187791 8.00022675 -32.62945801 4.63392636 -28 3 C-25.66796188 2.9222654 -23.33160941 2.91032272 -21 3 C-21 3.66 -21 4.32 -21 5 C-21.66 5 -22.32 5 -23 5 C-25.24828052 9.49656104 -25.16682272 13.07872966 -25 18 C-22.525 18.99 -22.525 18.99 -20 20 C-20.680625 20.556875 -21.36125 21.11375 -22.0625 21.6875 C-22.701875 22.450625 -23.34125 23.21375 -24 24 C-23.85974801 26.70705512 -23.85974801 26.70705512 -23 29 C-22.01 29 -21.02 29 -20 29 C-20.495 27.02 -20.495 27.02 -21 25 C-20.34 25 -19.68 25 -19 25 C-18.505 25.99 -18.505 25.99 -18 27 C-14.54797535 28.15067488 -11.82381728 28.13274508 -8.1875 28.125 C-6.38345703 28.12886719 -6.38345703 28.12886719 -4.54296875 28.1328125 C-1.26839682 28.01006118 1.78672598 27.62001918 5 27 C5.37364832 18.28831088 5.37364832 18.28831088 3 10 C2.34 9.34 1.68 8.68 1 8 C1.375 5.375 1.375 5.375 2 3 C1.34 3 0.68 3 0 3 C0 2.01 0 1.02 0 0 Z " fill="#82D9F2" transform="translate(64,16)"/>
<path d="M0 0 C0.89912109 -0.02449219 1.79824219 -0.04898438 2.72460938 -0.07421875 C12.60086896 -0.11706586 20.45438043 3.75356073 27.6875 10.375 C35.0046817 18.36813382 38.44628589 26.87859145 38.3125 37.6875 C38.30484619 38.60813232 38.29719238 39.52876465 38.28930664 40.47729492 C38.03694086 48.24455269 36.25307245 54.00158343 31.6875 60.375 C31.20410156 61.1175 30.72070312 61.86 30.22265625 62.625 C25.45724425 69.02738558 18.37040699 73.3793738 10.6875 75.375 C7.07484485 75.88654477 3.52135779 76.03937707 -0.125 76.0625 C-0.99592285 76.06958984 -1.8668457 76.07667969 -2.76416016 76.08398438 C-12.34890261 75.81424833 -20.29370811 71.80023655 -27.3125 65.375 C-34.6296817 57.38186618 -38.07128589 48.87140855 -37.9375 38.0625 C-37.92984619 37.14186768 -37.92219238 36.22123535 -37.91430664 35.27270508 C-37.66253194 27.52363937 -35.90273415 21.71823748 -31.3125 15.375 C-30.75949219 14.60929688 -30.20648438 13.84359375 -29.63671875 13.0546875 C-21.73212987 3.20575147 -12.3181254 0.01743542 0 0 Z M-26.3125 13.375 C-33.88310621 22.95358061 -36.02383725 31.31253639 -35.3125 43.375 C-33.74340987 51.93367342 -28.73084056 61.044559 -21.7265625 66.32421875 C-20.80617188 66.89785156 -19.88578125 67.47148438 -18.9375 68.0625 C-18.02226562 68.64386719 -17.10703125 69.22523437 -16.1640625 69.82421875 C-8.45252573 74.0180271 -0.40052522 74.51054075 8.1796875 72.91015625 C18.91314135 69.68248063 26.36712053 63.89051542 31.90234375 54.26171875 C36.24232284 46.06054831 37.17653486 36.69891312 35.0390625 27.62109375 C31.20025318 17.13819139 24.68974531 10.1834754 14.6875 5.375 C0.06423391 -1.31571447 -14.83598813 2.6706082 -26.3125 13.375 Z " fill="#F9FDFD" transform="translate(37.3125,-0.375)"/>
<path d="M0 0 C0 0.66 0 1.32 0 2 C-0.66 2 -1.32 2 -2 2 C-4.24828052 6.49656104 -4.16682272 10.07872966 -4 15 C-1.525 15.99 -1.525 15.99 1 17 C0.319375 17.556875 -0.36125 18.11375 -1.0625 18.6875 C-1.701875 19.450625 -2.34125 20.21375 -3 21 C-2.85974801 23.70705512 -2.85974801 23.70705512 -2 26 C-1.01 26 -0.02 26 1 26 C0.505 24.02 0.505 24.02 0 22 C0.66 22 1.32 22 2 22 C2.495 22.99 2.495 22.99 3 24 C5.88265149 24.96088383 7.67662271 25.11670941 10.66796875 25.09765625 C11.56064453 25.09443359 12.45332031 25.09121094 13.37304688 25.08789062 C14.30181641 25.07951172 15.23058594 25.07113281 16.1875 25.0625 C17.12787109 25.05798828 18.06824219 25.05347656 19.03710938 25.04882812 C21.35813712 25.03704626 23.67903644 25.02059558 26 25 C18.59560793 29.93626138 9.734269 31.10378125 1 30 C-3.58127623 28.52123362 -6.31072976 27.03390536 -9 23 C-14.85879435 22.02353427 -18.4570207 24.01489138 -23.578125 26.75390625 C-28.66287637 29.37009284 -33.32257048 30.27694778 -39 30 C-36.78143883 28.87754506 -34.5534419 27.79126155 -32.30078125 26.73828125 C-26.22408339 23.83894175 -21.07345021 20.80526782 -16.03515625 16.3203125 C-13.52718818 14.6932622 -11.93293256 14.74496239 -9 15 C-9 12.69 -9 10.38 -9 8 C-12.51338901 9.4876512 -14.64183258 11.49172222 -17.25 14.25 C-21.21315242 18.31831069 -25.34128716 21.76301969 -30 25 C-30.66 24.67 -31.32 24.34 -32 24 C-30.5459375 22.88625 -30.5459375 22.88625 -29.0625 21.75 C-24.65910842 18.01649558 -21.52137061 13.50143917 -18.2109375 8.8046875 C-12.96038512 2.14409279 -8.38597075 -0.32253734 0 0 Z " fill="#3EADBF" transform="translate(43,19)"/>
<path d="M0 0 C-0.33 1.98 -0.66 3.96 -1 6 C-2.32 6 -3.64 6 -5 6 C-5 6.66 -5 7.32 -5 8 C-10.00221397 9.3226348 -14.98145962 9.12593478 -20.11328125 9.09765625 C-21.08283249 9.0962413 -22.05238373 9.09482635 -23.05131531 9.09336853 C-26.13840867 9.08778513 -29.22542867 9.07523564 -32.3125 9.0625 C-34.40950416 9.05748286 -36.50650946 9.05292032 -38.60351562 9.04882812 C-43.73570521 9.03782112 -48.86784018 9.02056788 -54 9 C-51.51924345 6.51924345 -49.830178 6.04169284 -46.35546875 5.8671875 C-38.19940549 5.8873011 -30.12688653 6.31768269 -22 7 C-34.59001084 4.57161674 -44.6498238 2.75709252 -57.203125 6.34375 C-59.91542066 6.98015457 -62.22716178 7.12143817 -65 7 C-61.20560006 2.4543598 -55.59145331 1.93725853 -50 1 C-42.79090419 0.4587027 -36.93403361 0.98296498 -30 3 C-20.77834008 4.45821348 -13.30476797 4.10074607 -4.51171875 0.91015625 C-2 0 -2 0 0 0 Z " fill="#47B3C5" transform="translate(71,46)"/>
<path d="M0 0 C0.99 0.33 1.98 0.66 3 1 C2.67 3.31 2.34 5.62 2 8 C1.01 8.185625 0.02 8.37125 -1 8.5625 C-4.34874303 9.4982765 -6.19756396 10.91130382 -8.6875 13.3125 C-13.37286676 17.69469597 -18.84634844 20.249628 -25 22 C-25.99 21.67 -26.98 21.34 -28 21 C-28 20.34 -28 19.68 -28 19 C-27.34 19 -26.68 19 -26 19 C-25.73058594 18.41476563 -25.46117187 17.82953125 -25.18359375 17.2265625 C-23.99937503 14.99882431 -22.71029447 13.278559 -21.0625 11.375 C-20.30646484 10.48941406 -20.30646484 10.48941406 -19.53515625 9.5859375 C-18 8 -18 8 -15 6 C-14.01 6.33 -13.02 6.66 -12 7 C-12.66 7.66 -13.32 8.32 -14 9 C-14 9.99 -14 10.98 -14 12 C-16 14.1875 -16 14.1875 -18 16 C-11.56383136 11.04098482 -5.60466829 5.88646725 0 0 Z " fill="#98DFDA" transform="translate(32,26)"/>
<path d="M0 0 C2.63016161 2.1727422 4.47336894 3.94673788 6 7 C4.76765625 6.96519531 3.5353125 6.93039063 2.265625 6.89453125 C-8.69126194 6.67953822 -19.07378181 6.70294621 -29 12 C-29.33 10.68 -29.66 9.36 -30 8 C-29.17757813 7.84144531 -28.35515625 7.68289062 -27.5078125 7.51953125 C-21.82402864 6.33158104 -16.74949517 5.09617639 -11.625 2.3125 C-7.5481552 0.13862327 -4.69486601 -0.92056196 0 0 Z " fill="#98E1DF" transform="translate(34,41)"/>
<path d="M0 0 C0.66 0 1.32 0 2 0 C1.34 1.32 0.68 2.64 0 4 C-0.66 4 -1.32 4 -2 4 C-2.13148437 4.70253906 -2.26296875 5.40507812 -2.3984375 6.12890625 C-3.23588931 10.12583536 -4.37101559 14.03457379 -5.4765625 17.96484375 C-6.04833763 21.2802861 -5.62500043 23.72107983 -5 27 C-5.33 27.66 -5.66 28.32 -6 29 C-6.66 29 -7.32 29 -8 29 C-8 29.66 -8 30.32 -8 31 C-7.01 31.33 -6.02 31.66 -5 32 C-6.98 32.495 -6.98 32.495 -9 33 C-10.83544059 23.03191612 -11.43948608 12.96878475 -6 4 C-3 2 -3 2 0 2 C0 1.34 0 0.68 0 0 Z " fill="#C3EFD8" transform="translate(12,16)"/>
<path d="M0 0 C-0.75390625 1.96875 -0.75390625 1.96875 -2 4 C-4.11318877 4.26834143 -6.23043173 4.52034905 -8.35546875 4.66796875 C-15.50587664 5.56573045 -21.54994421 8.37571024 -27 13 C-28.32 13 -29.64 13 -31 13 C-31.99 13.495 -31.99 13.495 -33 14 C-30.5166674 7.85915036 -24.34361608 4.49651674 -18.50390625 1.8828125 C-12.34159037 -0.18772563 -6.45260849 -0.33121755 0 0 Z " fill="#BAECDE" transform="translate(43,2)"/>
<path d="M0 0 C1.98 0 3.96 0 6 0 C6 1.32 6 2.64 6 4 C6.66 4 7.32 4 8 4 C8.3403125 5.175625 8.3403125 5.175625 8.6875 6.375 C9.7469192 9.12956768 9.7469192 9.12956768 12.125 10.125 C13.548125 10.558125 13.548125 10.558125 15 11 C16.44021611 11.53440301 17.87761549 12.07644238 19.3125 12.625 C20.529375 13.07875 21.74625 13.5325 23 14 C22.34 15.32 21.68 16.64 21 18 C13.87631539 17.08372897 7.60432384 12.24564556 3.17578125 6.7265625 C0 1.685351 0 1.685351 0 0 Z " fill="#B7EBDD" transform="translate(6,53)"/>
<path d="M0 0 C0.66 0 1.32 0 2 0 C2.33 0.66 2.66 1.32 3 2 C5.88265149 2.96088383 7.67662271 3.11670941 10.66796875 3.09765625 C11.56064453 3.09443359 12.45332031 3.09121094 13.37304688 3.08789062 C14.30181641 3.07951172 15.23058594 3.07113281 16.1875 3.0625 C17.12787109 3.05798828 18.06824219 3.05347656 19.03710938 3.04882812 C21.35813712 3.03704626 23.67903644 3.02059558 26 3 C18.30160936 8.13226043 10.01032104 8.41800458 1 8 C1.66 7.34 2.32 6.68 3 6 C2.505 5.566875 2.01 5.13375 1.5 4.6875 C0 3 0 3 0 0 Z " fill="#4CB6CA" transform="translate(43,41)"/>
<path d="M0 0 C0.99 0 1.98 0 3 0 C1.63436578 5.21423975 -0.29048618 8.20216442 -4 12 C-6.3125 12.875 -6.3125 12.875 -8 13 C-8 12.34 -8 11.68 -8 11 C-7.34 11 -6.68 11 -6 11 C-5.29925156 7.846632 -5 5.27275026 -5 2 C-3.35 2 -1.7 2 0 2 C0 1.34 0 0.68 0 0 Z " fill="#81DAF7" transform="translate(66,52)"/>
<path d="M0 0 C0.97582031 0.00902344 1.95164062 0.01804688 2.95703125 0.02734375 C3.69308594 0.03894531 4.42914063 0.05054687 5.1875 0.0625 C4.5703125 2.015625 4.5703125 2.015625 3.1875 4.0625 C0.3671875 4.671875 0.3671875 4.671875 -2.9375 4.8125 C-4.03320312 4.86921875 -5.12890625 4.9259375 -6.2578125 4.984375 C-7.10085937 5.01015625 -7.94390625 5.0359375 -8.8125 5.0625 C-9.4725 3.7425 -10.1325 2.4225 -10.8125 1.0625 C-7.13862505 0.20951624 -3.7677607 -0.04539471 0 0 Z " fill="#B0E9E6" transform="translate(37.8125,1.9375)"/>
<path d="M0 0 C2.49974657 0.35595097 4.99976452 0.70999953 7.5 1.0625 C9.66676551 1.37431394 11.83346581 1.68658284 14 2 C14 2.33 14 2.66 14 3 C4.07092668 3.27538262 -5.20460071 2.53653322 -15 1 C-15 0.67 -15 0.34 -15 0 C-9.74065564 -0.98612707 -5.28489217 -0.83754234 0 0 Z " fill="#7BD3DF" transform="translate(42,51)"/>
<path d="M0 0 C1.60463449 0.31008884 3.20869231 0.62316287 4.8125 0.9375 C5.70582031 1.11152344 6.59914063 1.28554687 7.51953125 1.46484375 C10 2 10 2 13 3 C12.34 4.32 11.68 5.64 11 7 C6.4923533 6.46968862 3.58045212 4.74778884 0 2 C0 1.34 0 0.68 0 0 Z " fill="#ADE9E3" transform="translate(16,64)"/>
<path d="M0 0 C2.6875 0.3125 2.6875 0.3125 5 1 C4.67 1.66 4.34 2.32 4 3 C5.65 3 7.3 3 9 3 C9 2.34 9 1.68 9 1 C10.65 1 12.3 1 14 1 C13.67 2.32 13.34 3.64 13 5 C10.89611431 5.05402274 8.79183286 5.09280256 6.6875 5.125 C4.92986328 5.15980469 4.92986328 5.15980469 3.13671875 5.1953125 C0 5 0 5 -3 3 C-1.8125 1.4375 -1.8125 1.4375 0 0 Z " fill="#B0E9F0" transform="translate(30,68)"/>
<path d="M0 0 C0.66 0 1.32 0 2 0 C2 5.61 2 11.22 2 17 C1.67 16.34 1.34 15.68 1 15 C0.01 15.33 -0.98 15.66 -2 16 C-1.9278125 15.41992188 -1.855625 14.83984375 -1.78125 14.2421875 C-1.35211661 10.63031477 -1 7.14286006 -1 3.5 C-1 1 -1 1 0 0 Z " fill="#79D7F9" transform="translate(70,31)"/>
<path d="M0 0 C0.99 0.33 1.98 0.66 3 1 C1.21427748 2.83947337 -0.57802449 4.67157741 -2.375 6.5 C-2.88289062 7.02464844 -3.39078125 7.54929687 -3.9140625 8.08984375 C-5.23832604 9.43153181 -6.61605865 10.71995815 -8 12 C-8.66 12 -9.32 12 -10 12 C-7.87880087 6.98625661 -4.506805 3.00453667 0 0 Z " fill="#45B0BF" transform="translate(17,32)"/>
<path d="M0 0 C-3.0817499 2.05449993 -5.3095757 2.74475809 -8.875 3.625 C-9.90367188 3.88539062 -10.93234375 4.14578125 -11.9921875 4.4140625 C-14.75879061 4.95301116 -17.19284196 5.11394368 -20 5 C-15.32447553 -0.54080011 -6.77911233 -0.29474401 0 0 Z " fill="#3BABBE" transform="translate(26,48)"/>
<path d="M0 0 C0.99 0.33 1.98 0.66 3 1 C2.52949219 1.39832031 2.05898438 1.79664063 1.57421875 2.20703125 C0.95160156 2.73683594 0.32898437 3.26664063 -0.3125 3.8125 C-0.92738281 4.33457031 -1.54226563 4.85664062 -2.17578125 5.39453125 C-4.00695054 6.95611369 -4.00695054 6.95611369 -5.5625 8.65625 C-7.53433835 10.49949019 -9.37641807 10.6454619 -12 11 C-12 10.34 -12 9.68 -12 9 C-11.34 9 -10.68 9 -10 9 C-9.67 8.34 -9.34 7.68 -9 7 C-8.4225 6.731875 -7.845 6.46375 -7.25 6.1875 C-4.27792388 4.61890427 -2.29748431 2.42512233 0 0 Z " fill="#84D2CD" transform="translate(16,36)"/>
<path d="M0 0 C0.77601562 -0.00515625 1.55203125 -0.0103125 2.3515625 -0.015625 C4.375 0.25 4.375 0.25 6.375 2.25 C-1.545 3.735 -1.545 3.735 -9.625 5.25 C-8.625 2.25 -8.625 2.25 -6.8515625 1.078125 C-4.42085003 0.17407054 -2.58604401 -0.01729795 0 0 Z " fill="#99E1DD" transform="translate(27.625,48.75)"/>
<path d="M0 0 C-3.50966748 1.96541379 -7.1321775 2.94513932 -11 4 C-11.99 4.33 -12.98 4.66 -14 5 C-14.33 3.68 -14.66 2.36 -15 1 C-9.69276568 -0.42705634 -5.46108889 -1.4002792 0 0 Z " fill="#96DBD2" transform="translate(19,48)"/>
<path d="M0 0 C0.88171875 0.53367188 0.88171875 0.53367188 1.78125 1.078125 C-3.32209017 2.983372 -7.68217706 4.50401523 -13.21875 4.078125 C-11.89616528 3.39038095 -10.55888497 2.73101127 -9.21875 2.078125 C-8.06375 1.500625 -6.90875 0.923125 -5.71875 0.328125 C-2.21875 -0.921875 -2.21875 -0.921875 0 0 Z " fill="#48B2C1" transform="translate(17.21875,44.921875)"/>
<path d="M0 0 C0.79921875 0.00902344 1.5984375 0.01804688 2.421875 0.02734375 C3.02515625 0.03894531 3.6284375 0.05054688 4.25 0.0625 C-0.26667907 3.07361938 -3.4139991 3.16317926 -8.75 3.0625 C-8.75 2.4025 -8.75 1.7425 -8.75 1.0625 C-5.75519083 0.1901588 -3.11424089 -0.04579766 0 0 Z " fill="#59C1DB" transform="translate(64.75,43.9375)"/>
<path d="M0 0 C0.66 1.32 1.32 2.64 2 4 C-1.51187196 6.40814077 -3.72656908 7.36629408 -8 7 C-5 5 -5 5 -3 5 C-3 4.34 -3 3.68 -3 3 C-2.01 3 -1.02 3 0 3 C0 2.01 0 1.02 0 0 Z " fill="#83DCF3" transform="translate(55,63)"/>
<path d="M0 0 C1.65 0.33 3.3 0.66 5 1 C4.01 2.485 4.01 2.485 3 4 C-0.125 4.1875 -0.125 4.1875 -3 4 C-2.01 2.68 -1.02 1.36 0 0 Z " fill="#A8E7E9" transform="translate(30,68)"/>
<path d="M0 0 C0.66 0 1.32 0 2 0 C1.67 1.98 1.34 3.96 1 6 C-0.32 5.67 -1.64 5.34 -3 5 C-1.625 2.5 -1.625 2.5 0 0 Z " fill="#4DB2C6" transform="translate(69,46)"/>
<path d="M0 0 C3.6875 0.3125 3.6875 0.3125 7 1 C7 1.33 7 1.66 7 2 C3.7 2.33 0.4 2.66 -3 3 C-2.01 2.01 -1.02 1.02 0 0 Z " fill="#50B6C3" transform="translate(9,50)"/>
</svg>
