<svg xmlns="http://www.w3.org/2000/svg" viewBox="0 0 500 500">
<path d="m257.47 18.01c-33.06.049-66.11.31-99.14.949-67.64 3.048-126.96 58.46-137.71 124.87-4.87 43.679-1.232 87.92-2.306 131.83l62.6.012.414-97.11c.034-53.865 45.08-103.98 99.32-107.09l174.74-.09 67.36-52.6c-55.06-.35-110.17-.861-165.27-.781m68.52 102.63l-79.67.313-102 102.02c-.034 17.492-.032 34.973.046 52.47 32.592.672 65.43-1.928 97.81 2.756 16.738 2.521 34.662 10.207 41.895 26.646 9.797 22.837 7.557 48.29 8.08 72.56l60.19-.067c-.202-39.21 4.445-83.63-22.605-115.92-25.46-31.32-68.63-39.03-106.83-38.647l103.08-102.12zm93.11 103.68l-.414 97.11c-.034 53.865-45.08 103.98-99.32 107.09l-174.74.089-67.36 52.6c88.09.56 176.33 1.535 264.41-.168 67.64-3.048 126.96-58.46 137.71-124.87 4.87-43.679 1.231-87.92 2.306-131.83l-62.6-.012"/>
</svg>
