<?xml version="1.0" standalone="no"?>
<!DOCTYPE svg PUBLIC "-//W3C//DTD SVG 20010904//EN"
 "http://www.w3.org/TR/2001/REC-SVG-20010904/DTD/svg10.dtd">
<svg version="1.0" xmlns="http://www.w3.org/2000/svg"
 width="300.000000pt" height="300.000000pt" viewBox="0 0 300.000000 300.000000"
 preserveAspectRatio="xMidYMid meet">

<g transform="translate(0.000000,300.000000) scale(0.100000,-0.100000)"
fill="#000000" stroke="none">
<path d="M1326 2930 c-322 -41 -609 -182 -842 -414 -206 -207 -334 -442 -396
-729 -31 -147 -31 -427 0 -575 26 -119 74 -257 127 -362 194 -385 565 -669
995 -761 150 -32 429 -32 578 -1 284 61 522 191 728 396 206 207 334 442 396
729 31 147 31 427 0 574 -124 576 -582 1027 -1147 1128 -107 19 -342 27 -439
15z m389 -45 c569 -88 982 -496 1091 -1080 25 -133 25 -391 0 -520 -53 -279
-169 -513 -345 -698 -262 -276 -619 -412 -1036 -394 -634 27 -1109 440 -1236
1074 -30 151 -30 402 0 555 56 283 174 512 361 699 296 299 722 431 1165 364z"/>
<path d="M1375 2844 c-55 -20 -140 -48 -190 -64 -246 -76 -403 -167 -561 -325
-205 -204 -344 -512 -361 -800 l-5 -100 81 80 81 80 27 -28 27 -27 -49 -52
c-28 -29 -63 -67 -80 -84 -80 -84 -76 -73 -64 -144 5 -36 14 -69 18 -73 5 -5
82 69 172 162 160 167 164 171 182 152 19 -18 18 -20 -27 -64 -32 -32 -46 -55
-46 -73 0 -21 -28 -55 -127 -155 l-126 -128 12 -41 c21 -72 109 -232 177 -323
44 -61 71 -109 85 -153 23 -74 66 -135 132 -184 68 -52 133 -72 261 -81 72 -4
132 -15 171 -29 209 -74 400 -76 645 -5 83 25 140 35 187 35 123 1 210 32 293
107 50 45 110 147 110 188 0 12 32 65 70 116 71 95 190 316 190 353 0 13 -46
67 -118 141 -93 93 -121 129 -131 161 -7 27 -26 55 -52 79 -41 37 -41 37 -22
57 20 19 21 19 184 -151 90 -94 167 -171 170 -171 6 0 29 110 29 139 0 7 -12
25 -27 40 -16 14 -61 61 -102 104 l-74 77 23 25 c13 14 27 25 30 25 4 0 42
-35 85 -77 l77 -78 -6 100 c-9 176 -83 411 -178 569 -155 256 -399 448 -683
536 -99 31 -137 44 -250 84 -55 20 -109 36 -120 36 -11 0 -65 -16 -120 -36z
m223 -59 c211 -102 335 -220 366 -347 7 -30 5 -31 -113 -42 -91 -9 -79 -23 26
-29 54 -4 125 -12 158 -19 l60 -13 -2 -48 c-1 -39 -9 -61 -40 -104 -86 -124
-92 -136 -98 -188 l-7 -52 -71 -5 c-40 -3 -104 -15 -143 -28 -71 -23 -71 -23
-110 -4 -27 13 -48 35 -69 71 -41 72 -68 72 -115 1 -20 -30 -51 -61 -72 -73
l-37 -19 -73 23 c-40 13 -106 26 -145 29 -67 4 -73 6 -73 27 0 45 -32 125 -66
166 -49 59 -75 114 -77 162 l-2 42 60 13 c33 7 107 16 165 20 102 8 104 8 65
20 -22 6 -58 12 -80 12 -66 0 -86 9 -79 34 27 96 104 191 218 268 57 40 231
127 252 128 6 0 52 -20 102 -45z m507 -780 c-8 -23 -26 -52 -39 -64 -24 -23
-24 -23 -31 -2 -9 29 9 85 47 144 l33 52 3 -44 c2 -25 -4 -63 -13 -86z m-1192
76 c31 -46 52 -123 42 -148 -6 -16 -10 -14 -35 14 -31 34 -50 88 -50 141 0 42
12 41 43 -7z m-73 -247 l24 -41 -41 -49 c-22 -27 -50 -66 -62 -86 -13 -21 -26
-38 -31 -38 -5 0 -15 -3 -24 -6 -36 -14 -8 163 46 292 l31 75 17 -53 c9 -29
27 -71 40 -94z m1410 43 c26 -66 65 -255 55 -265 -10 -11 -58 15 -69 37 -8 14
-34 54 -59 88 l-46 62 29 53 c16 29 32 70 36 91 8 47 13 41 54 -66z m-1062
-27 c34 -21 45 -38 13 -20 -28 15 -87 12 -121 -5 -33 -17 -101 -99 -131 -157
-16 -31 -25 -38 -50 -38 l-30 0 23 41 c32 57 130 163 170 182 44 22 86 21 126
-3z m748 1 c55 -33 134 -124 173 -198 11 -21 10 -23 -16 -23 -24 0 -34 9 -62
56 -42 71 -86 121 -122 140 -33 16 -92 18 -120 4 -31 -17 -22 -4 14 19 40 26
93 27 133 2z m-964 -323 c42 -16 117 -54 167 -86 94 -59 281 -206 281 -221 0
-5 -16 -21 -35 -36 l-36 -26 -92 87 c-233 220 -456 320 -565 254 -31 -19 -32
-19 -23 -2 24 45 107 73 186 64 22 -3 74 -18 117 -34z m1308 10 c45 -31 52
-52 10 -31 -104 52 -359 -66 -546 -252 -44 -44 -139 -150 -211 -235 -262 -311
-398 -415 -573 -440 -106 -15 -163 0 -221 59 -32 33 -49 62 -57 94 -17 65 -15
154 5 218 l17 54 8 -55 c19 -120 69 -170 173 -170 105 0 238 58 382 166 40 30
145 124 234 209 208 201 407 341 547 386 84 27 190 25 232 -3z m-1010 -58 c8
-5 12 -11 10 -14 -3 -2 -14 2 -24 10 -22 15 -10 19 14 4z m105 -60 c3 -6 -1
-7 -9 -4 -18 7 -21 14 -7 14 6 0 13 -4 16 -10z m-496 -49 c59 -30 176 -128
270 -225 l85 -88 -75 -47 c-142 -91 -228 -112 -294 -71 -58 36 -89 153 -88
331 0 64 3 121 7 127 7 12 29 6 95 -27z m1337 -48 c14 -149 -28 -339 -84 -384
-23 -18 -36 -20 -87 -16 -63 5 -129 33 -234 100 l-54 34 72 75 c130 137 304
268 357 268 21 0 23 -6 30 -77z m105 -439 c11 -59 0 -144 -25 -191 -39 -76
-117 -117 -221 -116 -121 0 -250 65 -391 196 l-84 79 19 26 c11 15 32 42 48
61 l28 33 50 -42 c28 -23 96 -64 152 -92 92 -45 112 -51 185 -55 75 -5 86 -3
117 18 54 38 72 69 78 140 l6 64 14 -34 c8 -19 19 -58 24 -87z m-631 -369 c0
-2 -33 -9 -72 -15 -79 -14 -246 -9 -290 9 l-27 10 97 98 97 98 98 -98 c53 -54
97 -100 97 -102z"/>
<path d="M1440 2511 c-73 -34 -156 -35 -199 -3 -17 12 -33 22 -36 22 -8 0 -35
-65 -35 -84 0 -10 18 -18 53 -26 31 -6 84 -30 124 -55 39 -24 90 -49 113 -56
50 -15 74 -8 188 56 43 24 99 50 125 57 34 9 47 17 47 31 0 19 -27 77 -36 77
-2 0 -18 -10 -35 -22 -43 -32 -126 -31 -199 3 l-55 25 -55 -25z"/>
<path d="M1090 2313 c-14 -1 -48 -8 -77 -14 -62 -12 -62 -14 10 -114 28 -38
60 -92 73 -119 l22 -48 11 38 c6 22 11 47 11 58 0 14 5 17 25 12 13 -3 53 -9
87 -12 80 -8 102 -26 94 -76 -8 -49 8 -57 45 -22 33 32 52 88 43 131 -5 24 -2
31 17 40 23 9 22 10 -16 23 -22 7 -75 30 -117 51 -42 21 -96 41 -120 44 -24 4
-52 7 -63 9 -11 2 -31 1 -45 -1z m170 -95 c53 -12 72 -30 52 -50 -17 -17 -99
0 -122 25 -38 40 -21 46 70 25z"/>
<path d="M1812 2309 c-29 -5 -96 -29 -150 -53 -53 -24 -106 -47 -117 -50 -19
-7 -19 -8 -3 -20 12 -9 17 -26 16 -57 -1 -73 54 -156 86 -130 12 10 13 18 4
36 -8 19 -7 29 5 48 13 20 27 25 84 30 37 4 78 9 89 13 19 5 23 1 28 -33 12
-66 22 -71 43 -22 11 24 40 71 65 104 51 68 72 104 64 112 -8 8 -118 33 -141
32 -11 -1 -44 -5 -73 -10z m8 -87 c0 -38 -121 -82 -141 -51 -5 8 -7 18 -6 24
7 19 147 46 147 27z"/>
<path d="M850 1307 c0 -62 64 -232 107 -285 l18 -23 56 20 c103 39 103 38 26
124 -60 68 -185 177 -201 177 -3 0 -6 -6 -6 -13z"/>
<path d="M2045 1251 c-73 -63 -175 -171 -175 -186 0 -7 94 -49 131 -58 22 -6
29 0 56 46 49 81 102 267 77 267 -5 0 -45 -31 -89 -69z"/>
</g>
</svg>
