<?xml version="1.0" standalone="no"?>
<!DOCTYPE svg PUBLIC "-//W3C//DTD SVG 20010904//EN"
 "http://www.w3.org/TR/2001/REC-SVG-20010904/DTD/svg10.dtd">
<svg version="1.0" xmlns="http://www.w3.org/2000/svg"
 width="300.000000pt" height="300.000000pt" viewBox="0 0 300.000000 300.000000"
 preserveAspectRatio="xMidYMid meet">

<g transform="translate(0.000000,300.000000) scale(0.100000,-0.100000)"
fill="#000000" stroke="none">
<path d="M185 2016 c-35 -15 -92 -76 -107 -115 -6 -16 -7 -67 -3 -131 5 -86 3
-112 -11 -145 -55 -132 14 -292 161 -367 56 -29 134 -29 214 2 l64 24 -54 17
c-74 24 -109 66 -109 132 0 81 43 137 140 181 113 52 230 43 403 -30 42 -17
77 -29 77 -26 0 4 5 0 10 -8 6 -10 8 18 4 83 -4 66 -2 97 5 97 17 0 13 28 -10
59 -11 15 -22 34 -23 42 -17 78 -16 77 -75 98 -78 29 -199 51 -285 51 -86 0
-212 -30 -272 -65 -70 -41 -124 -26 -110 30 8 33 46 56 103 63 36 4 43 7 28
13 -32 12 -117 9 -150 -5z"/>
<path d="M2160 1886 c0 -8 5 -18 10 -21 6 -3 10 1 10 9 0 8 -4 18 -10 21 -5 3
-10 -1 -10 -9z"/>
<path d="M2696 1873 c-2 -10 -5 -145 -5 -299 l0 -282 29 -6 c59 -11 88 -104
56 -180 -8 -19 -33 -53 -55 -75 -40 -40 -40 -41 -16 -41 30 0 88 29 127 62
147 128 173 416 56 628 -38 67 -97 139 -148 180 -34 27 -39 28 -44 13z"/>
<path d="M2448 1832 c-29 -27 -61 -52 -70 -55 -10 -4 -18 -11 -18 -17 0 -14
-27 -12 -75 4 -51 17 -115 27 -115 17 0 -4 20 -12 44 -19 63 -16 127 -69 156
-127 22 -43 25 -63 25 -151 0 -96 -1 -103 -32 -153 -18 -29 -33 -54 -33 -57 0
-11 88 57 126 98 49 51 85 113 109 186 36 113 7 310 -48 320 -9 2 -40 -18 -69
-46z"/>
<path d="M2120 1820 c0 -5 5 -10 10 -10 6 0 10 5 10 10 0 6 -4 10 -10 10 -5 0
-10 -4 -10 -10z"/>
<path d="M1652 1739 c-5 -11 -12 -19 -17 -17 -6 2 -11 -7 -13 -19 -4 -26 -6
-27 -32 -13 -29 15 -36 -8 -11 -34 21 -20 23 -20 35 -3 7 9 20 17 29 17 8 0
18 11 21 25 5 21 11 24 31 19 29 -7 48 22 24 37 -25 16 -59 10 -67 -12z"/>
<path d="M2076 1742 c-10 -16 10 -29 55 -35 41 -5 48 -4 52 13 3 10 2 21 -1
24 -8 9 -100 7 -106 -2z"/>
<path d="M1970 1663 c-48 -8 -111 -36 -120 -54 -18 -32 -11 -41 18 -21 41 29
69 35 158 33 65 -1 83 2 88 14 10 28 -62 42 -144 28z"/>
<path d="M1716 1631 c-4 -6 -3 -18 2 -27 8 -14 10 -14 15 -2 7 19 -8 44 -17
29z"/>
<path d="M1827 1553 c-4 -3 -7 -11 -7 -17 0 -6 5 -5 12 2 6 6 9 14 7 17 -3 3
-9 2 -12 -2z"/>
<path d="M1394 1324 c-9 -27 -9 -37 0 -40 20 -8 18 -52 -3 -56 -15 -2 -1 -19
60 -73 206 -181 349 -239 592 -239 157 0 209 17 80 27 -204 15 -358 98 -597
320 -58 53 -108 97 -113 97 -4 0 -13 -16 -19 -36z"/>
<path d="M1155 1271 c-3 -6 -42 -38 -87 -72 -71 -53 -103 -89 -79 -89 10 0 11
-39 1 -66 -30 -78 85 51 141 159 22 42 38 77 35 77 -3 0 -7 -4 -11 -9z"/>
</g>
</svg>
