<?xml version="1.0" encoding="UTF-8"?>
<svg width="185" height="210" fill="none" version="1.1" viewBox="0 0 185 210" xmlns="http://www.w3.org/2000/svg" xmlns:cc="http://creativecommons.org/ns#" xmlns:dc="http://purl.org/dc/elements/1.1/" xmlns:rdf="http://www.w3.org/1999/02/22-rdf-syntax-ns#">
 <path d="m61.722 5.3839c-12.594 0.84969-33.183 3.1865-46.201 5.2401-5.943 0.99131-10.966 1.7702-11.108 1.7702-0.21226 0-0.35376 29.599-0.35376 65.713v65.785l8.9148 7.3643c22.995 19.048 53.703 40.078 75.846 51.974l3.7498 2.0537 4.3869-2.4078c23.136-12.604 53.348-33.422 75.352-51.691l8.6318-7.2228v-63.516l-3.6793-0.77909c-2.0517-0.42454-6.7921-1.3451-10.471-2.0532l-6.7216-1.2746-0.21253 28.537-0.14151 28.536-5.8725 4.886c-8.2072 6.9393-21.862 17.136-33.041 24.642-11.533 7.7184-27.028 17.278-28.231 17.278-1.0611 0-12.877-7.0813-24.127-14.516-11.179-7.3643-23.49-16.357-34.103-24.854l-8.3487-6.7273v-103.17l1.6273-0.35404c3.5376-0.9205 27.876-3.3281 40.117-4.0362 25.047-1.3453 49.81-0.63727 75.352 2.1951 11.249 1.2038 31.768 4.2486 36.296 5.3816l1.5566 0.35404v-11.046c0-6.0897-0.14152-11.046-0.35353-11.046-0.14151 0-5.165-0.77894-11.108-1.7702-13.726-2.1951-32.97-4.3194-47.97-5.3106-13.443-0.84975-46.272-0.77894-59.785 0.071014z" fill="#d72e34" stroke-width="5.1459"/>
 <path d="m87.256 39.797c-2.6887 5.8067-6.7216 15.153-9.0563 20.889l-4.2454 10.409-2.9718 0.35404c-1.5561 0.21253-7.6412 0.70808-13.514 1.1326-10.754 0.77909-25.824 2.5493-28.23 3.2574-1.0613 0.35404 0.07076 1.6997 6.014 7.2228 6.8631 6.5142 20.518 18.411 24.976 21.951l2.0517 1.6287-2.9718 12.533c-3.3958 14.516-6.5801 30.448-6.2971 31.794 0.21227 1.0621 19.386-9.4181 32.334-17.703l7.2876-4.673 4.0329 2.6908c5.0945 3.4694 21.297 13.029 29.292 17.277 5.8725 3.1864 6.1556 3.2574 6.1556 1.7702 0-2.4783-4.7404-25.421-7.0751-34.484-1.2031-4.461-2.1227-8.2849-2.1227-8.568 0-0.28354 4.0328-3.9654 8.9858-8.1434 13.443-11.542 25.117-22.447 24.48-23.013-0.77806-0.70808-16.485-2.6203-29.221-3.5409-15.849-1.2036-16.132-1.2741-16.698-3.0448-2.0517-6.5852-17.051-40.149-17.9-40.149-0.21253 0-2.6182 4.6735-5.3065 10.409z" fill="#d72e34" stroke-width="5.1459"/>
</svg>
