<?xml version="1.0" encoding="UTF-8"?><svg id="a" xmlns="http://www.w3.org/2000/svg" viewBox="0 0 150 150"><defs><style>.c{fill:none;}.d{fill:red;}</style></defs><path class="c" d="M0,0H150V150H0V0Z"/><path id="b" class="d" d="M75.59,36.3l-14.12-20.14-.35-.18-43.7,.15V81.65l.14,.4,48.2,57.45,.35,.15h19.29l.35-.15,48.2-57.46,.14-.4V16.13l-43.72-.17-.35,.18-14.12,20.16h-.32Zm-.02,82.09l-26.17-31.2-.35-.72,5.35-19.97-.33-.37h-15.34l-.24-.27v-28.57l.27-.26h11.37l.38,.18,15.8,22.58,.67,.35h17.56l.67-.35,15.8-22.58,.38-.18h11.37l.27,.26v28.57l-.24,.27h-15.34l-.33,.37,5.35,19.97-.35,.72-26.15,31.2h-.41Z"/></svg>