<?xml version="1.0" standalone="no"?>
<!DOCTYPE svg PUBLIC "-//W3C//DTD SVG 20010904//EN"
 "http://www.w3.org/TR/2001/REC-SVG-20010904/DTD/svg10.dtd">
<svg version="1.0" xmlns="http://www.w3.org/2000/svg"
 width="1000.000000pt" height="1473.000000pt" viewBox="0 0 1000.000000 1473.000000"
 preserveAspectRatio="xMidYMid meet">

<g transform="translate(0.000000,1473.000000) scale(0.100000,-0.100000)"
fill="#000000" stroke="none">
<path d="M2577 13092 l-2427 -1467 2 -4264 3 -4264 2427 -1463 2427 -1463
2418 1463 2418 1463 2 4264 3 4264 -2417 1465 c-1328 806 -2418 1466 -2422
1467 -3 1 -1098 -659 -2434 -1465z m2641 137 c159 -40 300 -125 418 -252 l70
-75 74 -4 c63 -3 83 -9 124 -36 28 -18 87 -43 131 -57 59 -18 94 -35 126 -64
31 -27 58 -41 89 -46 68 -11 111 -32 155 -75 47 -45 80 -60 138 -60 52 0 115
-29 170 -75 54 -46 152 -95 191 -95 45 0 76 25 76 61 0 47 -25 83 -91 135 -33
27 -67 61 -75 76 -20 38 -17 87 6 125 25 41 53 59 118 72 51 11 104 34 149 67
20 14 23 14 42 -5 15 -15 21 -34 21 -66 0 -89 -43 -145 -128 -167 -38 -9 -41
-12 -26 -21 120 -63 165 -255 81 -345 -35 -38 -91 -61 -163 -70 l-67 -7 -13
-50 c-8 -27 -16 -59 -19 -71 -7 -24 28 -44 77 -44 32 0 68 -24 68 -44 0 -6 9
-26 20 -44 l20 -33 29 22 c28 20 30 21 65 4 58 -27 136 -105 146 -145 5 -19
12 -44 15 -56 4 -13 -1 -29 -13 -44 -18 -22 -31 -25 -113 -31 -103 -7 -133 1
-162 44 -12 18 -28 26 -61 29 -31 4 -64 18 -100 43 -54 37 -55 37 -128 31 -69
-7 -77 -5 -150 28 -74 35 -78 38 -103 94 l-26 57 -57 4 c-31 2 -66 4 -77 3
-11 -1 -69 -4 -129 -7 -72 -3 -115 -10 -125 -19 -9 -7 -30 -21 -47 -29 -28
-15 -44 -35 -44 -56 0 -7 70 -35 74 -29 1 1 13 20 25 41 31 51 58 67 111 66
67 -1 94 -12 104 -41 7 -21 3 -35 -25 -77 -22 -35 -42 -54 -59 -57 -14 -3 -33
-18 -42 -34 -22 -38 -72 -64 -113 -57 -18 3 -68 22 -110 41 -43 20 -92 36
-110 36 -18 0 -44 9 -58 20 l-25 20 -64 -66 c-115 -120 -253 -202 -413 -245
-63 -17 -109 -21 -215 -21 -106 0 -152 4 -215 21 -161 43 -301 126 -415 247
l-65 69 -22 -22 c-15 -16 -34 -23 -58 -23 -20 0 -53 -9 -74 -20 -57 -29 -143
-60 -166 -60 -29 0 -84 36 -96 64 -7 14 -23 26 -39 29 -40 9 -97 99 -84 135
10 29 36 39 102 41 51 1 84 -18 114 -68 12 -20 22 -37 24 -39 4 -7 74 28 74
37 0 9 -32 37 -85 74 -20 14 -51 19 -133 23 -59 3 -116 5 -127 6 -11 1 -46 -1
-78 -3 l-59 -4 -26 -58 c-25 -56 -29 -60 -101 -93 -72 -33 -80 -35 -151 -29
-70 6 -77 5 -110 -19 -50 -37 -94 -56 -130 -56 -21 0 -39 -10 -63 -36 -35 -39
-35 -39 -152 -34 -111 4 -131 25 -109 110 11 44 24 64 64 101 27 26 66 54 86
64 35 17 37 16 65 -4 15 -12 30 -21 32 -21 2 0 12 19 22 43 27 62 43 77 82 77
28 0 65 12 82 26 2 1 -4 22 -12 46 -9 24 -18 55 -21 69 -5 24 -11 27 -70 32
-135 13 -206 80 -206 196 0 90 41 166 113 211 l28 17 -44 11 c-85 22 -127 78
-127 170 0 36 5 54 20 67 19 17 21 16 66 -13 48 -32 84 -46 145 -56 47 -8 88
-40 105 -82 30 -71 10 -116 -82 -192 -94 -77 -115 -141 -58 -179 48 -31 136
-1 235 81 59 49 121 76 173 76 55 0 97 18 146 64 45 43 122 76 173 76 11 0 39
18 63 39 31 29 62 46 116 62 40 12 104 39 141 62 62 36 74 40 134 39 l66 -1
70 75 c143 153 319 246 518 274 89 12 245 3 337 -21z m-268 -2589 l0 -690
-175 0 c-165 0 -175 1 -175 19 0 19 -1 19 -50 0 -186 -71 -408 10 -494 179
l-23 45 -23 -34 c-110 -160 -262 -239 -433 -224 -40 3 -349 9 -687 13 l-615 7
-3 673 -2 674 272 -5 c218 -3 285 -8 332 -21 214 -62 316 -201 316 -430 0 -40
-7 -95 -15 -122 -31 -103 -12 -110 63 -24 97 110 258 163 422 140 156 -22 253
-88 316 -215 l36 -73 34 67 c92 184 312 273 497 202 16 -6 33 -11 38 -11 5 0
9 103 9 253 0 140 3 257 7 260 3 4 84 7 180 7 l173 0 0 -690z m2778 3 l-3
-688 -510 -5 c-366 -4 -520 -9 -545 -18 -19 -6 -80 -12 -135 -12 -163 0 -262
36 -344 126 -27 30 -55 70 -62 89 -16 42 -24 44 -43 6 -25 -47 -111 -117 -179
-144 -94 -38 -190 -47 -488 -47 l-269 0 0 665 0 665 248 0 c260 0 338 -8 427
-41 144 -54 237 -216 216 -376 l-7 -53 473 0 473 0 0 253 c0 140 3 257 7 260
3 4 172 7 375 7 l368 0 -2 -687z m-3200 -5357 c2 -3746 1 -3968 -15 -3962 -10
4 -833 501 -1830 1104 l-1813 1097 0 2861 c0 1573 3 2864 7 2867 3 4 826 6
1827 5 l1821 -3 3 -3969z m4600 2917 l2 -1053 -485 0 -485 0 -2 568 -3 567
-855 0 -855 0 -3 -2617 c-1 -1440 2 -2618 6 -2618 5 0 391 231 858 514 l849
514 3 566 2 566 -430 0 -430 0 0 490 0 490 913 -2 912 -3 3 -1330 2 -1330
-1814 -1097 c-997 -604 -1821 -1100 -1830 -1104 -15 -6 -16 291 -16 3958 0
2181 3 3968 7 3971 3 4 826 6 1827 5 l1821 -3 3 -1052z"/>
<path d="M2890 12860 c0 -43 24 -96 52 -113 12 -9 44 -18 69 -22 25 -4 51 -10
58 -15 24 -14 6 -45 -44 -77 -63 -42 -95 -95 -102 -170 -4 -49 -1 -63 19 -92
38 -57 81 -76 170 -75 l77 0 6 -50 c4 -28 15 -70 26 -94 10 -23 16 -49 13 -56
-8 -21 -79 -56 -115 -56 -31 0 -36 -4 -52 -45 -10 -24 -35 -58 -55 -74 -21
-17 -48 -42 -62 -56 -14 -14 -30 -25 -34 -25 -16 0 -35 -35 -36 -62 0 -27 2
-28 47 -28 41 0 50 4 80 39 29 35 38 39 76 39 34 -1 54 7 97 36 52 36 55 37
139 35 76 -2 93 1 143 26 45 23 59 36 71 67 15 36 15 38 -5 38 -11 0 -29 -11
-39 -24 -11 -13 -40 -34 -65 -46 -39 -19 -55 -22 -110 -16 -81 8 -130 -5 -189
-49 -56 -43 -68 -45 -29 -4 45 48 98 70 188 78 99 9 144 30 195 87 36 42 39
49 43 119 5 105 28 125 28 24 0 -52 5 -81 16 -97 15 -22 22 -23 112 -20 54 1
134 -1 180 -6 l83 -9 -11 28 c-11 29 -7 55 7 55 4 0 16 -19 27 -41 13 -28 35
-51 72 -75 61 -39 84 -68 84 -106 0 -23 -7 -29 -56 -48 -61 -23 -90 -20 -99
11 -4 10 -18 33 -32 49 -21 26 -32 30 -73 30 -27 0 -52 -4 -55 -10 -11 -17 46
-90 70 -90 16 0 30 -11 44 -35 35 -60 56 -63 157 -20 49 21 109 40 132 42 39
5 47 10 73 51 16 25 29 53 29 62 0 9 -16 46 -36 83 -29 54 -40 67 -60 67 l-24
0 37 -75 37 -75 -21 -37 c-23 -40 -52 -60 -39 -27 20 52 17 70 -24 141 -23 39
-39 76 -36 81 3 5 21 13 40 16 45 9 66 34 86 108 16 60 17 62 24 31 8 -33 -8
-108 -24 -118 -6 -3 -10 -10 -10 -15 0 -16 46 -18 105 -6 33 7 61 13 62 12 8
-6 -28 -80 -50 -102 -33 -33 -37 -69 -7 -59 24 7 25 -2 5 -29 -19 -25 -19 -57
-1 -81 14 -19 15 -19 90 3 41 12 96 22 122 22 29 0 61 8 85 22 l38 21 35 -31
c36 -31 103 -56 134 -50 12 2 4 12 -27 33 -24 17 -47 37 -51 45 -3 8 -19 39
-34 69 -15 29 -24 56 -21 60 7 6 55 -45 89 -94 21 -31 80 -59 104 -50 12 5 9
10 -15 25 -18 10 -47 43 -66 72 -18 29 -41 59 -50 67 -10 7 -17 19 -17 26 0 7
-11 47 -25 89 -14 43 -30 110 -35 149 -8 50 -20 88 -43 126 -63 106 -266 299
-367 351 -27 14 -62 22 -95 22 -43 1 -63 -6 -119 -40 -37 -22 -90 -46 -119
-52 -66 -16 -120 -45 -145 -80 -17 -22 -31 -28 -80 -34 -58 -7 -152 -53 -152
-75 0 -22 -72 -52 -146 -60 -62 -7 -84 -15 -118 -40 -99 -74 -159 -110 -206
-121 -60 -14 -88 -9 -129 26 -25 21 -31 33 -31 65 0 57 18 85 104 165 67 62
76 75 76 106 0 48 -31 86 -78 93 -62 11 -105 26 -144 51 -21 13 -40 24 -43 24
-3 0 -5 -14 -5 -30z m1416 -295 c3 -19 1 -47 -4 -62 -10 -28 -10 -28 -11 -3
-1 14 -10 45 -22 69 -24 55 -17 88 11 53 11 -13 22 -39 26 -57z m347 -275 c40
-53 48 -98 22 -120 -13 -11 -15 -7 -15 22 0 25 -8 42 -31 64 l-31 29 -15 -22
c-28 -42 -34 -23 -8 27 14 28 29 50 33 50 4 0 24 -22 45 -50z m-46 -276 c5
-16 -25 -44 -48 -44 -23 0 -24 17 -2 42 18 20 44 21 50 2z"/>
<path d="M7085 12880 c-11 -18 -79 -47 -137 -59 -75 -16 -98 -35 -105 -89 l-6
-43 78 -72 c87 -81 105 -109 105 -164 0 -49 -21 -78 -66 -93 -70 -23 -166 11
-263 93 -55 47 -104 67 -167 67 -48 0 -119 31 -133 58 -17 33 -75 62 -143 73
-54 9 -69 16 -102 50 -30 30 -57 45 -110 61 -63 18 -119 44 -190 85 -35 21
-117 16 -167 -10 -100 -51 -295 -236 -363 -345 -14 -23 -31 -66 -37 -95 -26
-133 -34 -166 -54 -222 -24 -72 -63 -132 -129 -199 l-49 -49 39 6 c39 6 55 20
129 112 40 50 65 44 31 -6 -14 -20 -28 -48 -32 -63 -6 -24 -42 -61 -90 -94
-16 -11 -12 -12 29 -7 47 5 99 32 124 64 10 14 16 13 51 -7 24 -13 57 -22 83
-22 24 0 76 -10 116 -21 39 -12 79 -19 87 -16 22 9 31 54 16 85 -13 30 -12 38
7 34 22 -5 14 31 -14 60 -14 15 -32 44 -39 64 l-12 36 36 -5 c20 -3 53 -9 72
-12 49 -8 67 5 47 36 -21 32 -30 89 -19 118 7 20 10 17 21 -32 15 -70 42 -104
87 -113 19 -3 37 -10 39 -15 6 -9 -26 -78 -57 -122 -20 -28 -20 -54 -2 -101
13 -33 -16 -13 -39 27 l-21 37 37 75 37 75 -25 0 c-21 0 -30 -12 -60 -71 -19
-39 -35 -77 -35 -83 0 -7 13 -33 30 -59 26 -42 34 -47 65 -47 20 0 57 -11 83
-23 26 -13 70 -32 99 -42 63 -22 91 -13 116 41 13 25 23 34 42 34 18 0 32 11
51 40 33 50 24 62 -42 58 -46 -3 -51 -6 -82 -53 -19 -27 -40 -52 -48 -53 -9
-2 -40 6 -70 18 -47 19 -54 26 -54 50 0 36 32 76 82 101 25 13 51 38 70 69 34
55 53 56 43 2 l-6 -35 78 8 c43 5 121 8 174 6 91 -2 98 -1 113 21 11 16 16 45
16 97 0 101 23 81 28 -24 4 -67 7 -78 38 -114 55 -64 92 -81 193 -91 54 -5
103 -16 127 -28 41 -21 106 -82 87 -82 -6 0 -16 7 -23 16 -8 8 -34 27 -59 42
-42 24 -54 27 -139 25 -103 -3 -152 13 -190 62 -11 14 -29 25 -40 25 -20 0
-20 -1 -5 -40 14 -34 25 -44 80 -69 59 -28 70 -30 141 -25 77 6 77 6 132 -32
43 -30 65 -38 99 -39 37 0 48 -5 76 -37 28 -34 37 -38 79 -38 39 0 46 3 46 20
0 26 -21 70 -34 70 -6 0 -22 11 -36 25 -14 14 -41 39 -62 56 -20 16 -45 50
-55 74 -16 41 -21 45 -52 45 -36 0 -107 35 -115 56 -3 7 3 33 13 56 11 24 22
66 26 93 l6 50 82 0 c96 0 144 23 171 79 39 83 1 205 -80 252 -74 44 -81 94
-12 94 38 0 88 22 112 49 21 23 36 121 18 121 -6 0 -14 -5 -17 -10z m-1354
-309 c-11 -27 -21 -60 -22 -73 0 -23 0 -23 -10 2 -19 47 17 158 43 132 8 -8 4
-26 -11 -61z m-306 -281 c26 -50 20 -69 -8 -27 l-15 22 -31 -29 c-23 -22 -31
-39 -31 -64 0 -29 -2 -33 -15 -22 -26 22 -18 67 22 120 21 28 41 50 45 50 4 0
19 -22 33 -50z m17 -277 c24 -21 23 -43 -1 -43 -19 0 -51 24 -51 39 0 25 27
27 52 4z"/>
<path d="M2897 11935 c-39 -27 -47 -49 -21 -59 21 -8 47 7 68 39 16 24 15 45
-2 45 -4 0 -24 -11 -45 -25z"/>
<path d="M7045 11950 c-7 -12 22 -58 46 -70 21 -12 49 -3 49 16 0 12 -66 64
-82 64 -4 0 -10 -4 -13 -10z"/>
<path d="M2804 11843 c-3 -16 -10 -39 -15 -52 -11 -26 1 -41 33 -41 23 0 47
98 27 111 -25 15 -38 10 -45 -18z"/>
<path d="M7151 11861 c-20 -13 4 -111 28 -111 27 0 41 20 31 44 -5 11 -11 33
-14 49 -7 28 -20 33 -45 18z"/>
<path d="M4660 10979 c0 -154 -3 -279 -7 -277 -5 2 -39 19 -77 38 -204 99
-431 9 -496 -199 -53 -167 -1 -374 116 -463 122 -93 299 -94 420 -2 l44 34 0
-45 0 -45 115 0 115 0 0 620 0 620 -115 0 -115 0 0 -281z m-117 -405 c85 -29
135 -116 121 -210 -23 -157 -235 -216 -327 -92 -23 30 -34 122 -23 182 9 46
50 94 101 117 49 23 69 23 128 3z"/>
<path d="M2330 10630 l0 -610 125 0 125 0 0 495 0 495 83 0 c94 0 155 -23 191
-73 30 -40 30 -144 0 -184 -29 -40 -80 -63 -141 -63 l-53 0 0 -143 0 -143 121
-192 121 -192 140 0 c77 0 138 4 136 8 -1 4 -76 114 -165 244 -90 130 -163
238 -163 241 0 3 15 9 33 12 37 9 99 39 139 68 145 107 143 418 -4 542 -93 79
-212 104 -490 105 l-198 0 0 -610z"/>
<path d="M3455 10766 c-139 -44 -226 -144 -255 -294 -24 -120 1 -246 66 -335
70 -96 178 -141 340 -142 96 0 104 2 177 38 50 25 90 53 116 84 23 25 41 49
41 52 0 4 -40 27 -89 51 l-90 44 -44 -41 c-49 -46 -88 -58 -148 -48 -48 8
-106 55 -125 102 -28 66 -42 63 257 63 l272 0 -7 80 c-15 179 -102 304 -239
345 -61 18 -216 19 -272 1z m203 -166 c35 -21 72 -74 72 -102 0 -16 -14 -18
-150 -18 l-150 0 15 37 c19 46 32 62 70 85 39 24 102 23 143 -2z"/>
<path d="M7040 10640 l0 -620 115 0 115 0 0 620 0 620 -115 0 -115 0 0 -620z"/>
<path d="M7440 10640 l0 -620 115 0 115 0 0 620 0 620 -115 0 -115 0 0 -620z"/>
<path d="M5210 10615 l0 -595 284 0 c254 0 291 2 348 20 170 52 248 168 235
349 -8 126 -56 205 -151 253 -22 11 -43 22 -45 24 -2 2 9 17 23 35 71 85 95
206 61 310 -27 81 -102 151 -190 178 -60 19 -92 21 -316 21 l-249 0 0 -595z
m443 381 c68 -29 97 -91 77 -165 -14 -54 -47 -75 -130 -81 l-65 -5 -3 -102 -3
-103 90 0 c49 0 102 -5 118 -11 98 -37 132 -161 66 -240 -47 -55 -92 -69 -230
-69 l-123 0 0 395 0 395 85 0 c50 0 99 -6 118 -14z"/>
<path d="M6160 10485 c0 -297 8 -335 87 -411 71 -69 133 -88 289 -89 130 0
131 0 200 35 45 23 79 49 101 78 56 74 63 116 63 394 l0 248 -115 0 -115 0 0
-212 c-1 -221 -8 -267 -46 -309 -49 -54 -153 -45 -201 18 l-28 36 -3 234 -3
233 -115 0 -114 0 0 -255z"/>
<path d="M1845 8278 c-3 -7 -4 -955 -3 -2107 l3 -2093 855 -518 855 -518 3
2611 c1 1437 0 2618 -3 2625 -3 9 -184 12 -855 12 -671 0 -852 -3 -855 -12z"/>
</g>
</svg>
