<?xml version="1.0" standalone="no"?>
<!DOCTYPE svg PUBLIC "-//W3C//DTD SVG 20010904//EN"
 "http://www.w3.org/TR/2001/REC-SVG-20010904/DTD/svg10.dtd">
<svg version="1.0" xmlns="http://www.w3.org/2000/svg"
 width="300.000000pt" height="300.000000pt" viewBox="0 0 300.000000 300.000000"
 preserveAspectRatio="xMidYMid meet">

<g transform="translate(0.000000,300.000000) scale(0.100000,-0.100000)"
fill="#000000" stroke="none">
<path d="M635 2846 c-162 -53 -277 -101 -427 -178 -112 -56 -117 -61 -107 -81
7 -12 42 -74 79 -137 212 -365 260 -449 260 -456 0 -4 -23 -44 -52 -87 l-52
-79 27 -24 c15 -12 34 -27 44 -32 14 -8 7 -25 -59 -123 -75 -114 -168 -280
-222 -396 l-30 -63 25 -26 c56 -62 219 -201 287 -245 173 -113 344 -122 576
-28 43 17 79 29 80 28 2 -2 99 -169 216 -372 117 -202 216 -367 220 -367 4 0
36 51 72 113 139 238 500 861 610 1052 64 110 246 425 406 701 159 275 297
514 306 531 l16 32 -128 64 c-70 36 -172 83 -227 105 -111 44 -317 112 -339
112 -8 0 -51 -69 -102 -165 -52 -100 -92 -164 -99 -161 -7 2 -36 7 -67 11 -47
6 -56 10 -65 34 -15 41 -73 64 -173 69 -108 5 -156 -8 -213 -58 -25 -22 -52
-40 -61 -40 -41 0 -181 -35 -291 -72 -96 -32 -121 -37 -128 -27 -4 8 -55 103
-113 212 -74 139 -110 197 -122 196 -9 0 -75 -19 -147 -43z m1137 -267 c39
-21 35 -120 -8 -239 -14 -40 -24 -72 -22 -73 126 -63 169 -89 215 -131 46 -42
55 -46 48 -26 -12 40 -74 128 -112 159 l-35 29 16 64 c9 35 16 73 16 84 0 42
13 48 82 35 103 -20 232 -52 242 -62 5 -5 4 -15 -4 -24 -7 -8 -11 -17 -9 -19
2 -2 47 -18 99 -36 102 -34 280 -117 280 -130 0 -4 -69 -126 -153 -271 -84
-145 -250 -430 -367 -634 -118 -203 -275 -475 -350 -604 -74 -129 -139 -234
-144 -234 -5 1 -46 64 -90 141 -45 77 -84 143 -88 147 -3 4 -17 -12 -30 -34
-13 -22 -26 -41 -29 -41 -4 0 -43 63 -88 139 -72 124 -90 161 -78 161 2 0 39
9 83 21 54 14 133 23 249 29 94 4 190 13 215 20 59 15 118 56 154 107 25 36
30 54 34 121 4 65 1 86 -18 129 -23 55 -79 119 -66 76 31 -100 23 -202 -20
-265 -43 -61 -111 -88 -251 -99 -206 -17 -379 -60 -481 -120 -43 -25 -50 -24
-26 2 29 33 132 103 199 137 90 45 219 82 307 89 72 5 78 8 78 28 0 70 -82
249 -153 335 -44 52 -45 56 -31 78 27 41 11 42 -61 7 -186 -93 -321 -266 -416
-534 -39 -113 -77 -165 -142 -199 -128 -66 -327 0 -327 109 0 32 6 43 35 66
27 21 35 35 35 60 0 44 -21 60 -87 69 -66 8 -197 -1 -238 -16 -15 -6 -30 -8
-33 -6 -8 9 147 280 228 400 l75 111 45 3 c25 1 113 16 195 33 128 27 164 30
243 25 50 -3 92 -3 92 -1 0 2 -15 12 -32 21 l-33 17 29 8 c58 16 120 109 102
155 -3 7 7 22 22 33 l27 20 -36 1 c-102 1 -212 -41 -342 -129 -78 -52 -162
-91 -198 -91 -19 0 -20 4 -14 38 3 20 19 61 35 89 l28 53 -28 -20 c-34 -24
-130 -128 -130 -141 0 -12 -27 -11 -51 1 -18 10 -17 15 28 73 108 143 291 302
457 399 89 53 235 112 336 138 115 29 113 30 84 -35 -13 -31 -24 -59 -24 -62
0 -4 38 34 85 84 92 99 131 127 191 142 42 10 128 4 156 -10z m-433 -1095 c7
-31 15 -63 18 -71 5 -13 -5 -14 -58 -12 l-64 4 -9 -52 c-8 -51 -11 -53 -48
-63 -27 -8 -42 -19 -48 -36 -16 -41 -11 -51 10 -22 15 19 33 28 69 33 42 6 50
11 64 41 l17 34 72 0 73 0 -3 86 c-2 50 0 84 5 81 16 -10 73 -131 79 -167 l5
-35 -92 -22 c-107 -26 -266 -100 -358 -168 -61 -45 -63 -46 -57 -20 11 45 82
203 118 261 34 58 159 184 181 184 7 0 18 -25 26 -56z"/>
<path d="M1612 2485 c-50 -23 -152 -113 -152 -134 0 -11 19 -18 81 -26 44 -7
47 -6 53 20 8 33 50 101 84 138 23 25 24 27 6 27 -10 0 -43 -11 -72 -25z"/>
</g>
</svg>
