<svg xmlns="http://www.w3.org/2000/svg" width="260" height="57" viewBox="0 0 260 57" fill="none"><path d="M150.342 16.9801C152.651 7.68466 147.016 -0.00268555 133.176 -0.00268555L103.213 0.0399587L91.9863 45.4696L98.498 56.6473H119.818C133.798 56.6473 144.604 50.1295 147.4 38.8056C148.795 33.0066 147.18 28.9314 143.526 26.9091V26.769C147.18 24.4604 149.355 20.8969 150.336 16.9801H150.342ZM131.989 38.4401C131.428 40.8158 129.82 43.2462 123.18 43.2462H109.572L111.948 33.5H125.483C132.123 33.5 132.61 35.9975 131.982 38.4401H131.989ZM134.784 17.2908C134.297 19.106 132.896 21.3172 127.164 21.3172H114.957L116.985 13.3984H129.193C134.992 13.3984 135.272 15.2624 134.784 17.2908Z" fill="#14A0FF"></path><path d="M169.214 34.7183H196.491L199.61 21.3172H172.497L174.598 13.3984H201.449L204.568 -0.00268555H160.497L146.517 56.6473H196.424L199.713 43.2462H167.185L169.214 34.7183Z" fill="#14A0FF"></path><path d="M208.369 -0.00268555L205.25 13.3984H221.551L210.848 56.6473H227.977L238.692 13.3984H256.144L259.5 -0.00268555H208.369Z" fill="#14A0FF"></path><path d="M18.3965 56.6475H1.13959L8.61374 26.4829L10.3498 21.9144L5.77513 26.3672L0.701026 31.5205L0.5 16.4261L18.4087 -0.00244141H32.358L18.3965 56.6475Z" fill="white"></path><path d="M80.7236 33.165L75.2109 23.8512L101.909 -0.00878906H77.0383L66.8291 9.74353L66.7926 9.68262L32.4432 41.297L15.9233 56.6351H39.4544L57.1377 40.8584L63.0768 50.964C65.0139 53.5102 67.9621 56.629 80.1023 56.629H94.3866L80.7236 33.1406L80.7053 33.1528L80.7236 33.165Z" fill="white"></path><path d="M64.9713 6.61256L64.8921 6.47855C60.8779 0.655179 54.6768 0.00339943 51.4971 0.0155822C50.5347 -0.0148748 49.9256 -0.00877928 49.9256 -0.00877928H33.1133L46.8189 23.3091L64.9652 6.60648L64.9713 6.61256Z" fill="white"></path></svg>