<?xml version="1.0" encoding="UTF-8"?>
<svg version="1.1" xmlns="http://www.w3.org/2000/svg" width="54" height="75">
<path d="M0 0 C1.85625 0.061875 1.85625 0.061875 3.75 0.125 C3.58832336 0.99747375 3.42664673 1.86994751 3.2600708 2.76885986 C2.79212874 5.84780326 2.61103386 8.71408812 2.58886719 11.82324219 C2.57925964 12.91747498 2.5696521 14.01170776 2.55975342 15.13909912 C2.5533786 16.88782318 2.5533786 16.88782318 2.546875 18.671875 C2.53832489 20.48319916 2.53832489 20.48319916 2.52960205 22.33111572 C2.52017729 24.87617115 2.51362813 27.42123865 2.50976562 29.96630859 C2.50000028 33.87488611 2.46892872 37.7829507 2.4375 41.69140625 C2.43097543 44.16405938 2.42572282 46.63671626 2.421875 49.109375 C2.4095282 50.28328796 2.3971814 51.45720093 2.38446045 52.66668701 C2.38746155 53.74831116 2.39046265 54.8299353 2.39355469 55.94433594 C2.38990906 56.89886658 2.38626343 57.85339722 2.38250732 58.83685303 C2.5644162 59.96948578 2.5644162 59.96948578 2.75 61.125 C5.64461901 63.48639302 5.64461901 63.48639302 9.3125 62.9375 C13.00825752 62.47660238 13.00825752 62.47660238 14.75 59.125 C15.06020352 54.85970166 15.14158035 51.7270428 12.75 48.125 C10.59255767 46.79153971 10.59255767 46.79153971 8.125 45.875 C7.30773437 45.53984375 6.49046875 45.2046875 5.6484375 44.859375 C5.02195312 44.61703125 4.39546875 44.3746875 3.75 44.125 C3.75 43.135 3.75 42.145 3.75 41.125 C14.31 41.125 24.87 41.125 35.75 41.125 C35.42 42.445 35.09 43.765 34.75 45.125 C34.09 45.125 33.43 45.125 32.75 45.125 C33.245 53.54 33.245 53.54 33.75 62.125 C34.74 62.62 34.74 62.62 35.75 63.125 C35.75 66.125 35.75 66.125 34.0703125 67.87890625 C33.34585938 68.47574219 32.62140625 69.07257813 31.875 69.6875 C31.15570313 70.28691406 30.43640625 70.88632813 29.6953125 71.50390625 C29.05335937 72.03886719 28.41140625 72.57382813 27.75 73.125 C27.09 73.785 26.43 74.445 25.75 75.125 C22.37855944 74.93769775 20.75023953 74.12517421 18 72.125 C13.34458384 69.26012851 8.91806707 68.393048 3.53515625 69.63671875 C0.46169445 70.71843994 -1.91916087 71.86768068 -4.5 73.875 C-6.25 75.125 -6.25 75.125 -8.08984375 74.94140625 C-10.87248513 73.88973889 -12.448237 72.39584142 -14.5625 70.3125 C-15.28050781 69.62542969 -15.99851562 68.93835938 -16.73828125 68.23046875 C-17.23714844 67.53566406 -17.73601563 66.84085937 -18.25 66.125 C-17.96474492 64.78056018 -17.62372568 63.44758006 -17.25 62.125 C-17.14003795 60.62975362 -17.07482965 59.13081701 -17.04467773 57.63183594 C-17.02473251 56.75122498 -17.00478729 55.87061401 -16.98423767 54.96331787 C-16.96752518 54.02151672 -16.95081268 53.07971558 -16.93359375 52.109375 C-16.91281265 51.13840881 -16.89203156 50.16744263 -16.87062073 49.16705322 C-16.80531138 46.06977315 -16.74632677 42.97240932 -16.6875 39.875 C-16.64429708 37.77342889 -16.60068222 35.6718662 -16.55664062 33.5703125 C-16.44964902 28.42196052 -16.3483291 23.27352442 -16.25 18.125 C-16.91 18.125 -17.57 18.125 -18.25 18.125 C-17.80967297 13.02019168 -16.41928701 10.59042574 -12.9375 6.875 C-11.76767578 5.59882813 -11.76767578 5.59882813 -10.57421875 4.296875 C-7.12888272 1.07736772 -4.71689429 -0.15722981 0 0 Z " fill="#784AFB" transform="translate(18.25,-0.125)"/>
<path d="M0 0 C6.81361678 -0.14937004 10.68123276 1.77424803 16 6 C19.67356156 10.20354178 22 13.33321619 22 19 C21.34 19 20.68 19 20 19 C20 25.27 20 31.54 20 38 C14.39 38 8.78 38 3 38 C2.92652344 35.39351562 2.92652344 35.39351562 2.8515625 32.734375 C2.77646126 30.40623643 2.7009167 28.07811213 2.625 25.75 C2.5940625 24.61046875 2.563125 23.4709375 2.53125 22.296875 C2.27290452 14.71874078 1.44429407 7.44380001 0 0 Z " fill="#7849FB" transform="translate(31,0)"/>
</svg>
