<?xml version="1.0" encoding="UTF-8"?>
<svg version="1.1" xmlns="http://www.w3.org/2000/svg" width="54" height="74">
<path d="M0 0 C-0.33 0.99 -0.66 1.98 -1 3 C-1.46036249 7.14326238 -1.54210581 9.22298167 0.875 12.6875 C3.78492139 14.84084183 5.82671959 15.72231555 9.1875 16.875 C13.69567763 18.49606833 13.69567763 18.49606833 15.08984375 20.8046875 C15.625 22.75 15.625 22.75 16 26 C16.66 26 17.32 26 18 26 C18.185625 24.39125 18.185625 24.39125 18.375 22.75 C18.91015625 20.8046875 18.91015625 20.8046875 20 19 C22.43883279 17.68241949 24.89176105 16.84781495 27.51171875 15.94921875 C30.99478677 14.62051305 32.87239379 13.04956889 35 10 C35.39544552 6.17735999 35.21260877 3.63782632 34 0 C37.64626587 0.20835805 39.00957126 1.00829509 41.8125 3.4375 C44.563498 7.00168609 44.48523408 10.35956544 44.37109375 14.73046875 C44 17 44 17 42 20 C41.77327568 22.11069923 41.77327568 22.11069923 41.91015625 24.4296875 C41.94399414 25.73703857 41.94399414 25.73703857 41.97851562 27.07080078 C42.00623047 27.99618652 42.03394531 28.92157227 42.0625 29.875 C42.28948034 49.49878525 36.18004854 59.80340516 23 74 C22.4225 73.67 21.845 73.34 21.25 73 C18.80116138 71.72924102 18.80116138 71.72924102 15 72 C12.79932579 72.93283296 12.79932579 72.93283296 11 74 C0.31564406 62.61304469 -8.51825246 52.49262253 -8 36 C-2.98842349 38.2297727 0.6851635 41.95357078 2.875 47.02734375 C3.32885034 48.37084389 3.77435131 49.71719712 4.2109375 51.06640625 C5.52069013 54.27594859 7.66115764 56.47152178 10 59 C10.41890218 56.21061788 10.41890218 56.21061788 10 53 C7.75041666 50.41666771 7.75041666 50.41666771 5 48 C0.77883315 42.98023402 0.49754837 39.28064539 1 33 C1.66 33 2.32 33 3 33 C3.433125 33.763125 3.86625 34.52625 4.3125 35.3125 C6.20048159 38.31928549 7.88138542 39.39854927 11 41 C10.08016794 35.7318709 9.29265669 33.05904404 5.08203125 29.609375 C2.83883129 28.06651 0.55360071 26.65857699 -1.7734375 25.23828125 C-5.92322523 22.35955441 -9.34717873 19.51912208 -10.6640625 14.4375 C-10.59371704 10.04794327 -10.45885163 6.93764413 -7.625 3.4375 C-3.92307692 0 -3.92307692 0 0 0 Z M32 27 C26.26479797 30.45449607 26.26479797 30.45449607 23 36 C22.83249586 38.66709069 22.83249586 38.66709069 23 41 C26.32310483 39.83242263 28.83361132 38.85051143 31 36 C31 35.01 31 34.02 31 33 C31.66 33 32.32 33 33 33 C33.33 34.32 33.66 35.64 34 37 C34.04125 35.72125 34.0825 34.4425 34.125 33.125 C34.15980469 32.04605469 34.15980469 32.04605469 34.1953125 30.9453125 C34.18331689 28.76136355 34.18331689 28.76136355 32 27 Z M32 41 C31.608125 41.9075 31.21625 42.815 30.8125 43.75 C28.90977536 47.16178211 27.10490175 48.71217766 24 51 C22.5216774 53.95664519 22.93967217 56.74229737 23 60 C29.30747717 54.04293823 32.40592326 49.61411271 33 41 C32.67 41 32.34 41 32 41 Z " fill="#E20F12" transform="translate(10,0)"/>
</svg>
