<?xml version="1.0" encoding="UTF-8"?>
<svg version="1.1" xmlns="http://www.w3.org/2000/svg" width="89" height="75">
<path d="M0 0 C5.9592353 0.42888436 9.54039604 4.47021876 13.828125 8.2265625 C17.26772414 11.25129555 17.26772414 11.25129555 21.61328125 11.96484375 C22.40089844 11.64644531 23.18851562 11.32804688 24 11 C25.28970703 10.51853516 25.28970703 10.51853516 26.60546875 10.02734375 C27.45753906 9.66769531 28.30960937 9.30804688 29.1875 8.9375 C33.78647687 7 33.78647687 7 36 7 C35.37183502 10.94949704 34.1354471 14.19892028 32.4375 17.8125 C31.98246094 18.78832031 31.52742188 19.76414062 31.05859375 20.76953125 C30.53458984 21.87361328 30.53458984 21.87361328 30 23 C30.56203125 23.26167969 31.1240625 23.52335937 31.703125 23.79296875 C34.22791271 25.11977046 36.45389843 26.62043822 38.75 28.3125 C39.54921875 28.88613281 40.3484375 29.45976562 41.171875 30.05078125 C43 32 43 32 43.58984375 34.46875 C42.73125502 38.15328973 40.89375895 39.06290618 37.8125 41.1875 C36.70484571 41.97010527 35.59810577 42.75400594 34.4921875 43.5390625 C33.9156543 43.94157227 33.33912109 44.34408203 32.74511719 44.75878906 C29.91008598 46.77519906 27.18008422 48.92306184 24.4375 51.0625 C20.2691399 54.27523306 16.09124677 57.47531368 11.875 60.625 C10.57175781 61.60339844 10.57175781 61.60339844 9.2421875 62.6015625 C7 64 7 64 4 64 C4.875 57.25 4.875 57.25 6 55 C5.28158936 55.32162109 4.56317871 55.64324219 3.82299805 55.97460938 C-4.44196662 59.67107017 -12.71662595 63.34499703 -21 67 C-22.01078613 67.44666016 -23.02157227 67.89332031 -24.06298828 68.35351562 C-26.66240191 69.49665597 -29.26713323 70.62630426 -31.875 71.75 C-32.63337158 72.08451172 -33.39174316 72.41902344 -34.1730957 72.76367188 C-38.18106943 74.47134136 -40.5211096 75 -45 75 C-42.36 69.39 -39.72 63.78 -37 58 C-39.97 58.99 -42.94 59.98 -46 61 C-45.18300106 54.29277355 -42.26068717 48.81296184 -39.27270508 42.85913086 C-38.31717773 40.94686141 -37.38572171 39.02408688 -36.45507812 37.09960938 C-35.84258175 35.86647324 -35.22869404 34.634027 -34.61328125 33.40234375 C-34.06454346 32.29366943 -33.51580566 31.18499512 -32.95043945 30.04272461 C-29.32920608 24.39352802 -24.70804198 21.55661773 -18.578125 19.10546875 C-17.38832031 18.62529297 -16.19851562 18.14511719 -14.97265625 17.65039062 C-13.74417969 17.16763672 -12.51570313 16.68488281 -11.25 16.1875 C-9.99311168 15.68127583 -8.73659744 15.1741218 -7.48046875 14.66601562 C1.6870642 11 1.6870642 11 4 11 C3.71125 10.45730469 3.4225 9.91460937 3.125 9.35546875 C2.75375 8.64003906 2.3825 7.92460938 2 7.1875 C1.62875 6.47980469 1.2575 5.77210937 0.875 5.04296875 C0 3 0 3 0 0 Z " fill="#F8F8F8" transform="translate(46,0)"/>
<path d="M0 0 C-2.14043583 6.91489652 -5.3561292 13.2683531 -8.54736328 19.73999023 C-9.26300811 21.19932851 -9.97077352 22.66255848 -10.67041016 24.12963867 C-15.89763175 35.08759896 -20.5209816 43.4453681 -32.5 47.9375 C-33.5415625 48.33839844 -34.583125 48.73929688 -35.65625 49.15234375 C-36.4296875 49.43207031 -37.203125 49.71179688 -38 50 C-36.6077541 45.37324343 -34.70479016 41.35313769 -32.375 37.125 C-31.74335938 35.97257812 -31.11171875 34.82015625 -30.4609375 33.6328125 C-29.97882812 32.76398437 -29.49671875 31.89515625 -29 31 C-30.60875 31.4640625 -30.60875 31.4640625 -32.25 31.9375 C-34.82972239 32.66842134 -37.39796433 33.36100452 -40 34 C-38.59455651 30.93222817 -37.17367854 27.87184683 -35.75 24.8125 C-35.35425781 23.94818359 -34.95851563 23.08386719 -34.55078125 22.19335938 C-34.15761719 21.35224609 -33.76445313 20.51113281 -33.359375 19.64453125 C-33.00327148 18.87471924 -32.64716797 18.10490723 -32.28027344 17.31176758 C-29.47708918 12.2501063 -26.8428763 9.51214403 -21.46484375 7.32421875 C-19.88026367 6.67163086 -19.88026367 6.67163086 -18.26367188 6.00585938 C-17.16603516 5.57080078 -16.06839844 5.13574219 -14.9375 4.6875 C-13.83599609 4.23310547 -12.73449219 3.77871094 -11.59960938 3.31054688 C-3.45018797 0 -3.45018797 0 0 0 Z " fill="#0A0A0A" transform="translate(49,17)"/>
<path d="M0 0 C-2.82380331 7.61490087 -7.70092385 13.92164794 -13 20 C-10.03 19.34 -7.06 18.68 -4 18 C-6.93069307 25.32673267 -6.93069307 25.32673267 -11.375 28.125 C-12.90850397 28.76976871 -14.45188842 29.39113905 -16 30 C-17.82130696 30.80281294 -19.64259133 31.60567777 -21.46337891 32.40966797 C-29.63081058 36 -29.63081058 36 -32 36 C-29.65890013 27.80615045 -24.59764087 22.19514186 -19 16 C-21.31 16.33 -23.62 16.66 -26 17 C-24.76962457 12.48862343 -23.60770006 9.98251833 -20 7 C-17.22038277 5.55323499 -14.35183721 4.39606003 -11.4375 3.25 C-10.66986328 2.93417969 -9.90222656 2.61835938 -9.11132812 2.29296875 C-3.41861134 0 -3.41861134 0 0 0 Z " fill="#0C0C0C" transform="translate(72,17)"/>
<path d="M0 0 C3.5786304 1.65167557 6.74820188 3.78286492 10 6 C8.4114658 10.28904235 5.56872632 12.32345526 2 15 C1.34 15 0.68 15 0 15 C0.33 14.29875 0.66 13.5975 1 12.875 C2.40236969 8.84318715 2.67411769 5.60102951 1 1.625 C0.67 1.08875 0.34 0.5525 0 0 Z " fill="#1B1B1B" transform="translate(74,27)"/>
<path d="M0 0 C0.66 0.33 1.32 0.66 2 1 C0.1875 3.5 0.1875 3.5 -2 6 C-2.99 6 -3.98 6 -5 6 C-4.1875 3.5625 -4.1875 3.5625 -3 1 C-2.01 0.67 -1.02 0.34 0 0 Z " fill="#C5C5C5" transform="translate(29,32)"/>
</svg>
