<?xml version="1.0" encoding="UTF-8"?>
<svg version="1.1" xmlns="http://www.w3.org/2000/svg" width="305" height="353">
<path d="M0 0 C0.66 0 1.32 0 2 0 C9.71405346 23.09199563 17.38864422 46.19657051 24.99359512 69.32473755 C25.76686285 71.6762807 26.54045572 74.02771675 27.3140564 76.37915039 C34.5535059 98.38911248 41.70384363 120.42479521 48.72167969 142.5065918 C52.98250209 155.90171481 57.36125438 169.25287016 61.90551758 182.5546875 C62.31825928 183.77285156 62.73100098 184.99101562 63.15625 186.24609375 C63.69475586 187.81895142 63.69475586 187.81895142 64.24414062 189.42358398 C65 192 65 192 65 195 C91.4 195 117.8 195 145 195 C143.69834121 198.90497637 141.32374055 200.15423988 138.0625 202.375 C136.77555323 203.27273771 135.48911935 204.17121099 134.203125 205.0703125 C133.51798828 205.54629883 132.83285156 206.02228516 132.12695312 206.51269531 C128.49417166 209.05297363 124.90404309 211.65189588 121.3125 214.25 C120.558479 214.79446777 119.80445801 215.33893555 119.02758789 215.89990234 C112.69166037 220.48203446 106.39808917 225.12041299 100.10888672 229.76635742 C91.04893979 236.45240175 81.90963888 243.02736019 72.77050781 249.60449219 C64.31406964 255.6923875 55.88111091 261.80868741 47.5 268 C39.12051542 274.19011119 30.68892637 280.30474309 22.23388672 286.39111328 C18.48640231 289.09012118 14.74338799 291.79531494 11 294.5 C6.51389621 297.74131453 2.02695169 300.98141954 -2.46484375 304.21484375 C-10.9719433 310.34233504 -19.43882522 316.52029985 -27.87011719 322.75170898 C-34.16827206 327.40130558 -40.50457456 331.99610381 -46.86328125 336.5625 C-47.89582031 337.305 -47.89582031 337.305 -48.94921875 338.0625 C-49.61614746 338.54074219 -50.28307617 339.01898438 -50.97021484 339.51171875 C-52.39306496 340.55498244 -53.79840792 341.62234874 -55.18994141 342.70703125 C-55.89683105 343.25746094 -56.6037207 343.80789063 -57.33203125 344.375 C-58.28106323 345.12910156 -58.28106323 345.12910156 -59.24926758 345.8984375 C-61 347 -61 347 -64 347 C-61.96211387 339.11452494 -59.55656333 331.38687651 -56.97889137 323.66227913 C-56.31595577 321.67445361 -55.65727163 319.68526266 -54.99967957 317.69566345 C-53.13249923 312.04828525 -51.25909443 306.4029887 -49.38012695 300.75952148 C-48.22398909 297.28609741 -47.07362553 293.81080493 -45.92682457 290.33428764 C-45.49087729 289.01666196 -45.05269871 287.6997723 -44.61222267 286.38365364 C-43.99885699 284.55061781 -43.39341256 282.71493714 -42.78833008 280.87915039 C-42.44208084 279.83755264 -42.0958316 278.7959549 -41.73908997 277.72279358 C-40.82535612 274.82683559 -40.82535612 274.82683559 -41 271 C-42.93109711 269.31417085 -44.74788558 267.96091524 -46.875 266.5625 C-48.17124731 265.67416035 -49.46678672 264.7847871 -50.76171875 263.89453125 C-51.45313965 263.4248291 -52.14456055 262.95512695 -52.85693359 262.47119141 C-56.51306045 259.96130072 -60.09745346 257.35311783 -63.6875 254.75 C-64.44144043 254.20545166 -65.19538086 253.66090332 -65.97216797 253.09985352 C-72.30865565 248.51846494 -78.60189886 243.87959585 -84.89111328 239.23364258 C-92.4701364 233.64048791 -100.10381679 228.12492783 -107.74853516 222.62207031 C-110.04634996 220.96660712 -112.34188876 219.30803543 -114.63671875 217.6484375 C-115.40177734 217.09534912 -116.16683594 216.54226074 -116.95507812 215.97241211 C-118.46865742 214.87764343 -119.98169087 213.78211964 -121.49414062 212.68579102 C-125.04492277 210.11587705 -128.60710893 207.56712858 -132.20703125 205.06640625 C-133.18591309 204.38227661 -133.18591309 204.38227661 -134.18457031 203.68432617 C-135.40203349 202.83548907 -136.6238124 201.99279561 -137.85058594 201.1574707 C-141.8885192 198.33444241 -141.8885192 198.33444241 -143 195 C-116.6 195 -90.2 195 -63 195 C-62.34 192.03 -61.68 189.06 -61 186 C-60.34112266 183.77103986 -59.64740734 181.55201488 -58.91552734 179.34594727 C-58.50620972 178.10457504 -58.09689209 176.86320282 -57.6751709 175.58421326 C-57.22879596 174.24493219 -56.78238373 172.90566355 -56.3359375 171.56640625 C-55.86679163 170.14781377 -55.39809305 168.72907331 -54.92980957 167.31019592 C-53.93414449 164.29557552 -52.93605528 161.28177398 -51.93597412 158.26861572 C-49.29025643 150.29593049 -46.661304 142.31770669 -44.03125 134.33984375 C-43.76850155 133.54328369 -43.5057531 132.74672363 -43.23504257 131.92602539 C-38.70294233 118.18383349 -34.25707661 104.41581093 -29.875 90.625 C-23.77630368 71.44959708 -17.55462519 52.31594751 -11.28287506 33.19658661 C-10.56579622 31.01005093 -9.84932662 28.82331642 -9.13299561 26.63653564 C-8.01017678 23.20944491 -6.88559049 19.78293939 -5.7595005 16.35692215 C-5.14098852 14.47427638 -4.5238119 12.59119207 -3.90666199 10.70809937 C-3.53729019 9.58626251 -3.1679184 8.46442566 -2.78735352 7.30859375 C-2.46477066 6.32689209 -2.14218781 5.34519043 -1.80982971 4.33374023 C-1 2 -1 2 0 0 Z M0 154 C-1.85702866 159.63985074 -3.70828942 165.2815491 -5.55419922 170.92504883 C-6.18314443 172.84516628 -6.81367067 174.7647666 -7.44580078 176.68383789 C-8.35343603 179.44022783 -9.25539408 182.19841937 -10.15625 184.95703125 C-10.44060913 185.81649857 -10.72496826 186.67596588 -11.01794434 187.56147766 C-11.27821411 188.36208115 -11.53848389 189.16268463 -11.80664062 189.98754883 C-12.03758423 190.6914827 -12.26852783 191.39541656 -12.50646973 192.12068176 C-13.12699944 194.15976205 -13.12699944 194.15976205 -13 197 C-28.51 197 -44.02 197 -60 197 C-50.52609243 204.57912606 -40.90215362 211.87025284 -30.99609375 218.87109375 C-28.63597229 220.54810313 -26.30436953 222.2477777 -24 224 C-24.60131556 229.28366266 -25.82249299 233.99249816 -27.5390625 239.015625 C-28.04181014 240.52859816 -28.54441006 242.04162043 -29.046875 243.5546875 C-29.83849914 245.91475397 -30.63304644 248.2737882 -31.43066406 250.63183594 C-32.20356086 252.92397281 -32.96559084 255.2195067 -33.7265625 257.515625 C-33.9691983 258.22189026 -34.21183411 258.92815552 -34.46182251 259.65582275 C-35.8591511 263.78570908 -35.8591511 263.78570908 -35 268 C-34.54375244 267.6690332 -34.08750488 267.33806641 -33.61743164 266.99707031 C-29.7901639 264.22245635 -25.95718709 261.45618951 -22.1171875 258.69921875 C-18.78136517 256.30044655 -15.4778734 253.86560405 -12.1953125 251.39453125 C-10.69279744 250.28373363 -9.19019675 249.17305181 -7.6875 248.0625 C-6.98955322 247.52463867 -6.29160645 246.98677734 -5.57250977 246.43261719 C-0.74577802 242.90618398 -0.74577802 242.90618398 2.453125 243.30859375 C6.18451771 245.78665057 9.83747119 248.33408834 13.4375 251 C15.03750444 252.17092277 16.63776827 253.34149118 18.23828125 254.51171875 C19.43251709 255.38836182 19.43251709 255.38836182 20.65087891 256.28271484 C24.12243733 258.82053879 27.62171543 261.31874535 31.125 263.8125 C32.27343908 264.63150821 33.42187675 265.45051838 34.5703125 266.26953125 C35.37210937 266.84058594 36.17390625 267.41164063 37 268 C38.40204707 263.79385879 36.8370227 260.81092056 35.4375 256.7890625 C34.88269237 255.13545697 34.32800874 253.48180983 33.7734375 251.828125 C32.88813785 249.22430251 31.99892847 246.62187674 31.10644531 244.02050781 C30.24837251 241.50914491 29.40487383 238.99322654 28.5625 236.4765625 C28.29171631 235.70245026 28.02093262 234.92833801 27.74194336 234.13076782 C25.36901219 227.0114837 25.36901219 227.0114837 27 223 C28.49609375 221.42944336 28.49609375 221.42944336 30.4375 220.08984375 C31.521521 219.32559082 31.521521 219.32559082 32.62744141 218.54589844 C33.41038574 218.01512695 34.19333008 217.48435547 35 216.9375 C36.19568604 216.1007373 36.19568604 216.1007373 37.41552734 215.24707031 C39.08759217 214.07843346 40.76396652 212.91594129 42.44433594 211.75927734 C45.75856514 209.47781616 49.05324206 207.16926468 52.34375 204.85375977 C53.84821917 203.79609089 55.35597381 202.74307794 56.8671875 201.69506836 C58.5956003 200.48802435 60.30064812 199.24762543 62 198 C62 197.67 62 197.34 62 197 C46.49 197 30.98 197 15 197 C14.01 192.545 14.01 192.545 13 188 C12.16684601 185.20927948 11.31116553 182.44710368 10.3984375 179.68359375 C10.1571109 178.94166275 9.9157843 178.19973175 9.66714478 177.43531799 C8.90701594 175.10141106 8.1411242 172.76944488 7.375 170.4375 C6.85378162 168.84062042 6.33294496 167.24361619 5.8125 165.64648438 C4.54606675 161.76287065 3.27446703 157.88098436 2 154 C1.34 154 0.68 154 0 154 Z " fill="#FE0000" transform="translate(150,0)"/>
</svg>
