<?xml version="1.0" encoding="UTF-8"?>
<svg version="1.1" xmlns="http://www.w3.org/2000/svg" width="62" height="75">
<path d="M0 0 C0.66 0 1.32 0 2 0 C3.69884058 4.85355736 5.38921679 9.7099512 7.07202148 14.5690918 C7.64493282 16.21962593 8.22009655 17.86938013 8.79760742 19.51831055 C9.63021397 21.89687852 10.45451736 24.27818997 11.27734375 26.66015625 C11.53466782 27.38960953 11.79199188 28.11906281 12.05711365 28.87062073 C12.29728714 29.57081833 12.53746063 30.27101593 12.78491211 30.99243164 C12.99587021 31.5986586 13.20682831 32.20488556 13.42417908 32.82948303 C14.21950808 35.82742045 14.56136172 38.92953204 15 42 C20.61 42 26.22 42 32 42 C29.75111712 46.49776577 29.75111712 46.49776577 26.71875 48.55859375 C26.05012939 49.02072266 25.38150879 49.48285156 24.69262695 49.95898438 C23.96906006 50.44689453 23.24549316 50.93480469 22.5 51.4375 C20.96146518 52.49757487 19.42373226 53.55881432 17.88671875 54.62109375 C16.68668213 55.44649658 16.68668213 55.44649658 15.46240234 56.28857422 C10.60948879 59.66145981 5.8447416 63.15724375 1.06640625 66.63452148 C-0.32044296 67.64065148 -1.71009039 68.6429402 -3.10302734 69.640625 C-4.32430335 70.51579421 -5.53881122 71.40052689 -6.74462891 72.296875 C-8.33203125 73.4375 -8.33203125 73.4375 -11 75 C-12.485 74.505 -12.485 74.505 -14 74 C-13.69964844 73.18015625 -13.39929688 72.3603125 -13.08984375 71.515625 C-12.70957031 70.43796875 -12.32929688 69.3603125 -11.9375 68.25 C-11.55464844 67.18265625 -11.17179687 66.1153125 -10.77734375 65.015625 C-9.97653371 61.90896493 -9.84630711 60.89957483 -11 58 C-12.75778544 56.3163427 -12.75778544 56.3163427 -15 54.87109375 C-16.2065625 54.03094727 -16.2065625 54.03094727 -17.4375 53.17382812 C-18.283125 52.60083984 -19.12875 52.02785156 -20 51.4375 C-21.67142693 50.29731166 -23.33833933 49.15046859 -25 47.99609375 C-25.7425 47.49263428 -26.485 46.9891748 -27.25 46.47045898 C-29 45 -29 45 -30 42 C-24.39 42 -18.78 42 -13 42 C-12.78601563 40.69289062 -12.57203125 39.38578125 -12.3515625 38.0390625 C-10.79355458 30.2490229 -8.00834199 22.85163241 -5.375 15.375 C-4.8535646 13.87911598 -4.33272654 12.3830236 -3.8125 10.88671875 C-2.54853735 7.25537475 -1.27653581 3.62694222 0 0 Z M0 37 C-0.33 38.98 -0.66 40.96 -1 43 C-3.97 43 -6.94 43 -10 43 C-8.71034824 44.37562854 -7.37310707 45.70766393 -6 47 C-5.34 47 -4.68 47 -4 47 C-4.33 49.64 -4.66 52.28 -5 55 C-4.443125 54.649375 -3.88625 54.29875 -3.3125 53.9375 C0.44318137 52.41492647 3.2832512 53.76108373 7 55 C6.67 52.36 6.34 49.72 6 47 C6.61875 46.71125 7.2375 46.4225 7.875 46.125 C10.13325765 45.06279958 10.13325765 45.06279958 12 43 C9.03 43 6.06 43 3 43 C2.67 41.02 2.34 39.04 2 37 C1.34 37 0.68 37 0 37 Z " fill="#F5323C" transform="translate(30,0)"/>
</svg>
