<?xml version="1.0" encoding="UTF-8"?>
<svg version="1.1" xmlns="http://www.w3.org/2000/svg" width="75" height="75">
<path d="M0 0 C-1.55500981 3.81684226 -4.03595495 6.19195732 -7 9 C-6.72736328 9.77714355 -6.45472656 10.55428711 -6.17382812 11.35498047 C-4.94601599 14.86054151 -3.72295032 18.36774007 -2.5 21.875 C-2.07074219 23.09832031 -1.64148437 24.32164063 -1.19921875 25.58203125 C-0.79316406 26.74863281 -0.38710938 27.91523438 0.03125 29.1171875 C0.40830078 30.19597168 0.78535156 31.27475586 1.17382812 32.38623047 C2 35 2 35 2 37 C3.05960938 36.4946875 4.11921875 35.989375 5.2109375 35.46875 C6.59886314 34.81229869 7.98688919 34.15605967 9.375 33.5 C10.07367188 33.16613281 10.77234375 32.83226562 11.4921875 32.48828125 C16.7734375 30 16.7734375 30 19 30 C18.40911833 38.27234332 16.3687623 44.23739458 9.9609375 49.80859375 C8.4440118 51.03289451 6.91504673 52.2424134 5.375 53.4375 C4.59898438 54.06076172 3.82296875 54.68402344 3.0234375 55.32617188 C-2.1940217 59.48836372 -5.15489645 61.57742212 -12 61 C-16.17567404 60.30007749 -20.30270571 59.40793702 -24.4375 58.5 C-25.55060547 58.26152344 -26.66371094 58.02304687 -27.81054688 57.77734375 C-30.54180031 57.19123786 -33.27146868 56.59862748 -36 56 C-34.515 56.495 -34.515 56.495 -33 57 C-33.26586941 60.62502715 -33.42766408 62.45416111 -36.109375 65.01171875 C-37.41648437 65.84123047 -37.41648437 65.84123047 -38.75 66.6875 C-40.04164062 67.52861328 -40.04164062 67.52861328 -41.359375 68.38671875 C-42.23078125 68.91910156 -43.1021875 69.45148438 -44 70 C-45.30710937 70.84498047 -45.30710937 70.84498047 -46.640625 71.70703125 C-49 73 -49 73 -52 73 C-52.48066535 71.10454608 -52.95946743 69.20861961 -53.4375 67.3125 C-53.70433594 66.25675781 -53.97117188 65.20101562 -54.24609375 64.11328125 C-57.12530837 52.2234675 -57.12530837 52.2234675 -56 48 C-53.33348189 44.02253679 -50.20386121 40.5486476 -47 37 C-46.360625 36.0615625 -45.72125 35.123125 -45.0625 34.15625 C-43 32 -43 32 -40.203125 31.73046875 C-39.22859375 31.88128906 -38.2540625 32.03210937 -37.25 32.1875 C-36.26515625 32.32542969 -35.2803125 32.46335938 -34.265625 32.60546875 C-33.51796875 32.73566406 -32.7703125 32.86585937 -32 33 C-33.65 32.34 -35.3 31.68 -37 31 C-35.58496319 23.96835552 -33.58426333 17.31947684 -31.1875 10.5625 C-30.85685547 9.57056641 -30.52621094 8.57863281 -30.18554688 7.55664062 C-29.6818457 6.13834961 -29.6818457 6.13834961 -29.16796875 4.69140625 C-28.72360474 3.41052124 -28.72360474 3.41052124 -28.27026367 2.10375977 C-23.3443903 -6.05427422 -7.52846514 -1.86546039 0 0 Z M-19 19 C-19.31453125 19.98742187 -19.6290625 20.97484375 -19.953125 21.9921875 C-20.3846355 23.28671899 -20.8169704 24.58097587 -21.25 25.875 C-21.45496094 26.52597656 -21.65992188 27.17695313 -21.87109375 27.84765625 C-23.33909329 32.16268519 -23.70464597 32.85232299 -28 35 C-22.72 35.99 -17.44 36.98 -12 38 C-13.88590034 31.62386075 -15.85635256 25.29411375 -18 19 C-18.33 19 -18.66 19 -19 19 Z M-49 55 C-49.25015873 58.58357241 -49.25015873 58.58357241 -49 62 C-46.89767656 59.1315587 -46.89767656 59.1315587 -46 56 C-44.02 55.67 -42.04 55.34 -40 55 C-40 54.67 -40 54.34 -40 54 C-44.74076549 52.81301999 -44.74076549 52.81301999 -49 55 Z " fill="#0EC5BA" transform="translate(56,2)"/>
<path d="M0 0 C0.99 0.33 1.98 0.66 3 1 C3.89135742 2.85766602 3.89135742 2.85766602 4.60546875 5.25390625 C4.86650391 6.10791016 5.12753906 6.96191406 5.39648438 7.84179688 C5.65751953 8.73962891 5.91855469 9.63746094 6.1875 10.5625 C6.46013672 11.46419922 6.73277344 12.36589844 7.01367188 13.29492188 C7.68680791 15.52689927 8.348329 17.76167928 9 20 C4.55294876 19.44658918 1.14345941 18.34974316 -2.8125 16.25 C-4.24529297 15.51523438 -4.24529297 15.51523438 -5.70703125 14.765625 C-8 13 -8 13 -9.1015625 10.56640625 C-9 8 -9 8 -7.12890625 5.76171875 C-6.28199219 5.07722656 -5.43507812 4.39273438 -4.5625 3.6875 C-3.71816406 2.99011719 -2.87382813 2.29273438 -2.00390625 1.57421875 C-1.01197266 0.79498047 -1.01197266 0.79498047 0 0 Z " fill="#0EC5BA" transform="translate(62,55)"/>
</svg>
