<?xml version="1.0" encoding="UTF-8"?>
<svg version="1.1" xmlns="http://www.w3.org/2000/svg" width="260" height="257">
<path d="M0 0 C1.16082596 0.19834946 2.32165192 0.39669891 3.51765442 0.60105896 C7.18564531 1.22874142 10.85258913 1.86231617 14.51953125 2.49609375 C17.02271931 2.92552179 19.52597394 3.35456202 22.02929688 3.78320312 C28.13098483 4.82885233 34.2318267 5.87932694 40.33203125 6.93359375 C39.57222049 10.48439706 38.73405886 11.80719298 35.89453125 14.12109375 C32.62429799 16.85214877 29.42383261 19.63117784 26.26953125 22.49609375 C22.34270162 26.0405582 18.36684573 29.51277278 14.33203125 32.93359375 C16.38976989 39.99679136 18.65890064 46.96431831 21.0703125 53.9140625 C21.42813309 54.94982925 21.78595367 55.98559601 22.15461731 57.05274963 C23.31547501 60.40971727 24.47975841 63.76548273 25.64453125 67.12109375 C26.04065613 68.2644519 26.43678101 69.40781006 26.84490967 70.58581543 C34.18231466 91.75910009 41.68938845 112.86872287 49.33203125 133.93359375 C63.12022864 127.76720327 63.12022864 127.76720327 76.83203125 121.43359375 C82.90232077 118.59232387 88.9838711 115.77709888 95.08203125 112.99609375 C96.38817383 112.3928125 96.38817383 112.3928125 97.72070312 111.77734375 C98.94370117 111.22240234 98.94370117 111.22240234 100.19140625 110.65625 C100.91811523 110.32375244 101.64482422 109.99125488 102.39355469 109.64868164 C104.33203125 108.93359375 104.33203125 108.93359375 107.33203125 108.93359375 C104.93882183 117.37706638 102.0955313 125.65901391 99.19848633 133.93969727 C98.65992576 135.48472663 98.12578382 137.03130292 97.59594727 138.5793457 C96.82109014 140.84286338 96.03315521 143.10144404 95.2421875 145.359375 C95.00975845 146.04590652 94.77732941 146.73243805 94.53785706 147.43977356 C92.03183268 154.49269034 87.99482326 158.4601593 82.14453125 162.87109375 C76.61742082 167.12226486 71.19726287 171.47989814 65.83203125 175.93359375 C60.63805942 180.23825483 55.40764249 184.48036552 50.08203125 188.62109375 C45.47005826 192.20752604 40.96488818 195.89267231 36.51953125 199.68359375 C35.44661458 200.58984375 34.37369792 201.49609375 33.30078125 202.40234375 C31.44704928 203.98289416 29.61039031 205.58396151 27.80078125 207.21484375 C26.6715625 208.189375 26.6715625 208.189375 25.51953125 209.18359375 C24.89433594 209.745625 24.26914063 210.30765625 23.625 210.88671875 C16.92407883 213.9460831 5.75844982 209.41985934 -1.15234375 207.94140625 C-2.59204577 207.63593602 -4.03181072 207.33076225 -5.47163391 207.02586365 C-8.53253094 206.37705723 -11.59298399 205.72620965 -14.65310669 205.07376099 C-19.44164549 204.05293524 -24.23136095 203.03770768 -29.02124023 202.02319336 C-42.66074865 199.13287055 -56.29774858 196.23102019 -69.92965698 193.30505371 C-74.74706137 192.27158601 -79.56531827 191.24212838 -84.38366699 190.21307373 C-87.67380018 189.50823377 -90.96238843 188.79648083 -94.25097656 188.08447266 C-96.23495336 187.66014181 -98.21899855 187.23613053 -100.203125 186.8125 C-101.52477409 186.52299721 -101.52477409 186.52299721 -102.87312317 186.22764587 C-109.80837539 184.75926413 -114.88476115 184.18503748 -121.41796875 187.43359375 C-126.50130208 189.93359375 -126.50130208 189.93359375 -128.66796875 189.93359375 C-128.51328125 190.67996094 -128.35859375 191.42632812 -128.19921875 192.1953125 C-127.46390909 197.3695136 -127.34035368 202.52666124 -127.16796875 207.74609375 C-127.09817449 209.83604411 -127.02530437 211.92589422 -126.94921875 214.015625 C-126.9037793 215.39584839 -126.9037793 215.39584839 -126.85742188 216.80395508 C-126.61194079 220.8591381 -126.11660857 224.89583538 -125.66796875 228.93359375 C-121.37796875 216.72359375 -117.08796875 204.51359375 -112.66796875 191.93359375 C-103.66796875 193.05859375 -103.66796875 193.05859375 -100.63867188 193.78149414 C-99.95857056 193.94158463 -99.27846924 194.10167511 -98.57775879 194.26661682 C-97.52413147 194.52136024 -97.52413147 194.52136024 -96.44921875 194.78125 C-95.7058728 194.95740341 -94.96252686 195.13355682 -94.19665527 195.31504822 C-91.85279517 195.87143261 -89.51038229 196.43365391 -87.16796875 196.99609375 C-85.5664988 197.37734211 -83.96493705 197.75820505 -82.36328125 198.13867188 C-78.46376933 199.06586476 -74.56554294 199.99829035 -70.66796875 200.93359375 C-71.39664613 203.66370499 -72.13607932 206.38920373 -72.90209961 209.10913086 C-73.72432678 211.99736916 -73.72432678 211.99736916 -74.296875 215.25 C-76.53124095 219.62324618 -80.45465838 221.44686759 -84.60546875 223.87109375 C-86.23979845 224.85901923 -87.873911 225.847304 -89.5078125 226.8359375 C-90.34876465 227.33762451 -91.1897168 227.83931152 -92.05615234 228.35620117 C-96.64783869 231.12932563 -101.15118234 234.04070612 -105.66796875 236.93359375 C-107.59461001 238.15954918 -109.52169585 239.38480621 -111.44921875 240.609375 C-112.3928125 241.20943359 -113.33640625 241.80949219 -114.30859375 242.42773438 C-116.24593912 243.6597484 -118.18344403 244.89151157 -120.12109375 246.12304688 C-121.054375 246.71666016 -121.98765625 247.31027344 -122.94921875 247.921875 C-123.78517578 248.45337158 -124.62113281 248.98486816 -125.48242188 249.5324707 C-127.22265465 250.64810921 -128.948006 251.78695191 -130.66796875 252.93359375 C-131.65796875 252.93359375 -132.64796875 252.93359375 -133.66796875 252.93359375 C-135.6331096 243.55568046 -137.58960508 234.17601656 -139.53524017 224.79403687 C-140.43904925 220.43715876 -141.34576793 216.08092967 -142.25927734 211.72607422 C-143.14157959 207.51944508 -144.01605386 203.31125651 -144.88523865 199.10189819 C-145.21736774 197.50026086 -145.55226201 195.89919424 -145.89002991 194.29873657 C-146.36447098 192.04828597 -146.82882979 189.79596361 -147.29101562 187.54296875 C-147.55748901 186.26389648 -147.8239624 184.98482422 -148.09851074 183.66699219 C-149.63678984 173.58194867 -149.63678984 173.58194867 -146.71875 168.6171875 C-145.82632897 167.51832085 -144.91216587 166.43686281 -143.98046875 165.37109375 C-143.24594482 164.48490356 -143.24594482 164.48490356 -142.49658203 163.58081055 C-140.90868502 161.67878283 -139.29227453 159.80458708 -137.66796875 157.93359375 C-136.56507525 156.64976442 -135.46221075 155.36591018 -134.359375 154.08203125 C-132.16604211 151.53949498 -129.96129978 149.00738492 -127.75 146.48046875 C-121.80271233 139.66575368 -116.06583264 132.69864811 -110.859375 125.296875 C-110.46621094 124.84699219 -110.07304688 124.39710938 -109.66796875 123.93359375 C-109.00796875 123.93359375 -108.34796875 123.93359375 -107.66796875 123.93359375 C-107.29671875 123.09828125 -107.29671875 123.09828125 -106.91796875 122.24609375 C-105.34422668 119.33467092 -104.12503146 117.19667783 -101.66796875 114.93359375 C-98.91142927 115.12223238 -96.3751833 115.44434966 -93.66796875 115.93359375 C-92.89198334 116.07361816 -92.11599792 116.21364258 -91.3164978 116.35791016 C-88.69353845 116.85218176 -86.07721482 117.37386186 -83.4609375 117.90234375 C-81.98644386 118.19692978 -81.98644386 118.19692978 -80.48216248 118.49746704 C-77.27264986 119.13981872 -74.06405176 119.7866161 -70.85546875 120.43359375 C-68.6287605 120.88013042 -66.40203504 121.32658127 -64.17529297 121.77294922 C-53.08866985 124.00085873 -42.01067768 126.26637672 -30.9453125 128.59765625 C-29.95079575 128.80706848 -28.95627899 129.01648071 -27.93162537 129.23223877 C-23.2109228 130.22776956 -18.49166579 131.22961836 -13.77416992 132.24023438 C-12.08513142 132.59899469 -10.39608562 132.95772066 -8.70703125 133.31640625 C-7.94579453 133.48153717 -7.1845578 133.64666809 -6.4002533 133.81680298 C-3.0463352 134.52616474 -0.11680517 134.93359375 3.33203125 134.93359375 C1.04185767 128.30220104 -1.25140565 121.67188226 -3.54663086 115.04223633 C-4.32400365 112.79572675 -5.10071749 110.54898903 -5.87670898 108.30200195 C-7.00453109 105.03663982 -8.13437572 101.77198886 -9.265625 98.5078125 C-9.82040024 96.90654007 -9.82040024 96.90654007 -10.38638306 95.2729187 C-13.02624443 87.6890227 -15.7628542 80.14533693 -18.63380432 72.64567566 C-19.78149077 69.60351681 -20.66796875 67.21450304 -20.66796875 63.93359375 C-21.32796875 63.93359375 -21.98796875 63.93359375 -22.66796875 63.93359375 C-22.84453003 65.21810425 -22.84453003 65.21810425 -23.0246582 66.52856445 C-23.68556442 70.02672729 -24.70317903 73.08601561 -25.9609375 76.4140625 C-26.42863798 77.66519867 -26.89632971 78.91633812 -27.36401367 80.16748047 C-27.60799896 80.81392517 -27.85198425 81.46036987 -28.10336304 82.12640381 C-32.68534389 94.2784603 -36.95244259 106.48579725 -40.66796875 118.93359375 C-49.45473072 117.47161007 -58.07900007 115.48067762 -66.73046875 113.37109375 C-68.06049256 113.05120639 -69.39057042 112.73154363 -70.72070312 112.41210938 C-80.40704218 110.06405704 -80.40704218 110.06405704 -82.66796875 108.93359375 C-81.3425727 102.40840919 -79.53884873 96.28952689 -77.28125 90.03125 C-76.94717133 89.09141769 -76.61309265 88.15158539 -76.26889038 87.18327332 C-75.17814071 84.11892582 -74.07970996 81.05740446 -72.98046875 77.99609375 C-72.21881358 75.86633369 -71.45750598 73.73644929 -70.6965332 71.60644531 C-69.52544108 68.3289751 -68.35381514 65.05170416 -67.17991638 61.77523804 C-64.89211591 55.38471974 -62.62934076 48.98623244 -60.39552307 42.5766449 C-59.04297229 38.69617349 -57.68207659 34.81865419 -56.32040405 30.94137573 C-55.68000551 29.11111877 -55.04343197 27.27951871 -54.41079712 25.44656372 C-53.5317277 22.90197511 -52.63862721 20.36273029 -51.7421875 17.82421875 C-51.48867523 17.0785112 -51.23516296 16.33280365 -50.97396851 15.5644989 C-49.13174912 10.41163698 -47.18205714 7.40990116 -42.46069336 4.63745117 C-39.85292337 3.43917141 -37.23643155 2.26763964 -34.60546875 1.12109375 C-33.71408203 0.70150391 -32.82269531 0.28191406 -31.90429688 -0.15039062 C-31.01033203 -0.54162109 -30.11636719 -0.93285156 -29.1953125 -1.3359375 C-28.00023071 -1.87118042 -28.00023071 -1.87118042 -26.78100586 -2.41723633 C-18.17542798 -4.21178041 -8.53265018 -1.48360877 0 0 Z " fill="#0EC6BB" transform="translate(148.66796875,4.06640625)"/>
<path d="M0 0 C6.36819349 17.50727284 12.71971624 35.01961276 18.8125 52.625 C19.23837402 53.84985107 19.66424805 55.07470215 20.10302734 56.33666992 C20.48797363 57.45533447 20.87291992 58.57399902 21.26953125 59.7265625 C21.60573486 60.70189941 21.94193848 61.67723633 22.28833008 62.68212891 C23 65 23 65 23 67 C17.47262724 66.45005626 13.28483238 64.41049413 8.41796875 61.921875 C7.60435379 61.51342346 6.79073883 61.10497192 5.95246887 60.68414307 C3.36030914 59.38021673 0.77401592 58.0650795 -1.8125 56.75 C-3.53936485 55.8808173 -5.2665753 55.01232086 -6.99414062 54.14453125 C-8.66958011 53.30009251 -10.34472006 52.45505916 -12.01953125 51.609375 C-13.16842583 51.02938751 -13.16842583 51.02938751 -14.3405304 50.43768311 C-18.19713883 48.47596615 -22.03480305 46.47844573 -25.84643555 44.43066406 C-26.56083298 44.04879944 -27.27523041 43.66693481 -28.01127625 43.27349854 C-33.10817603 40.00964935 -35.94409003 35.58442523 -38 30 C-37.35675781 29.47792969 -36.71351563 28.95585937 -36.05078125 28.41796875 C-30.14774989 23.60965076 -24.30033839 18.74487573 -18.50512695 13.80737305 C-17.00753149 12.53339725 -15.50389023 11.26653885 -14 10 C-13.08992188 9.23300781 -12.17984375 8.46601563 -11.2421875 7.67578125 C-9 6 -9 6 -7 6 C-7 5.34 -7 4.68 -7 4 C-2.52941176 0 -2.52941176 0 0 0 Z " fill="#0EC6BA" transform="translate(216,190)"/>
</svg>
