<?xml version="1.0" encoding="UTF-8"?>
<svg version="1.1" xmlns="http://www.w3.org/2000/svg" width="62" height="74">
<path d="M0 0 C0.7145636 0.00091141 1.4291272 0.00182281 2.16534424 0.00276184 C2.90294983 -0.00152328 3.64055542 -0.00580841 4.4005127 -0.01022339 C5.96403986 -0.0159718 7.52759376 -0.01646318 9.09112549 -0.01213074 C11.47050466 -0.00898725 13.8486204 -0.03236387 16.22784424 -0.05778503 C17.74867601 -0.06005981 19.26951111 -0.0607607 20.79034424 -0.05973816 C21.85004425 -0.07355278 21.85004425 -0.07355278 22.93115234 -0.08764648 C28.98650564 -0.0316689 32.83945273 1.70948276 37.43096924 5.55354309 C41.00766254 9.80690809 42.77774099 13.31578149 42.68096924 18.92854309 C41.65939677 22.60620397 40.18171591 24.42866875 37.74346924 27.30354309 C38.44214111 27.89522278 39.14081299 28.48690247 39.86065674 29.09651184 C41.22577393 30.28180481 41.22577393 30.28180481 42.61846924 31.49104309 C43.52339111 32.26834778 44.42831299 33.04565247 45.36065674 33.84651184 C50.32051933 38.96086196 50.18409902 44.50639005 50.17950439 51.27351379 C49.96843866 59.1487914 47.34815322 62.69885911 41.99346924 68.05354309 C34.81113141 73.02593082 28.62840217 74.90905626 19.93096924 74.72932434 C18.58857178 74.72439217 18.58857178 74.72439217 17.21905518 74.71936035 C15.34674694 74.70901526 13.47446873 74.68919609 11.60235596 74.66023254 C8.72343504 74.61573342 5.84534951 74.59872465 2.96612549 74.58674622 C1.14189456 74.57333805 -0.68232604 74.5584195 -2.50653076 74.54182434 C-3.36996094 74.53443741 -4.23339111 74.52705048 -5.12298584 74.5194397 C-11.13815027 74.42192358 -11.13815027 74.42192358 -12.25653076 73.30354309 C-13.08265557 59.31063658 -11.58199697 45.3239133 -10.23016357 31.41145325 C-9.87688827 27.75549916 -9.54258647 24.09811893 -9.20965576 20.44026184 C-8.98942041 18.11333276 -8.76810745 15.78650536 -8.54559326 13.45979309 C-8.44654694 12.36727234 -8.34750061 11.27475159 -8.24545288 10.14912415 C-8.14550018 9.1462738 -8.04554749 8.14342346 -7.94256592 7.11018372 C-7.85818268 6.22737732 -7.77379944 5.34457092 -7.68685913 4.43501282 C-6.76659296 -0.12317952 -4.08854083 0.05894239 0 0 Z M11.74346924 5.30354309 C11.74346924 5.63354309 11.74346924 5.96354309 11.74346924 6.30354309 C15.04346924 6.30354309 18.34346924 6.30354309 21.74346924 6.30354309 C21.74346924 5.97354309 21.74346924 5.64354309 21.74346924 5.30354309 C18.44346924 5.30354309 15.14346924 5.30354309 11.74346924 5.30354309 Z M3.02471924 9.81135559 C0.88291559 12.30577326 0.54067714 14.05886957 0.74346924 17.30354309 C5.40394417 22.85443396 11.67455499 26.41144153 17.70635986 30.31135559 C29.6665961 38.25333064 29.6665961 38.25333064 31.28302002 44.33283997 C31.56489711 48.32563355 30.87207483 50.14447828 28.36846924 53.24104309 C24.60520902 56.19789041 22.67520037 56.48334485 17.93096924 56.55354309 C16.89327393 56.57932434 15.85557861 56.60510559 14.78643799 56.63166809 C11.33318464 56.25930188 9.52720633 55.34006654 6.74346924 53.30354309 C3.83799418 49.59655768 3.41852454 46.9610837 3.74346924 42.30354309 C5.72346924 42.63354309 7.70346924 42.96354309 9.74346924 43.30354309 C9.41346924 39.01354309 9.08346924 34.72354309 8.74346924 30.30354309 C3.14109123 33.04980682 -0.18400238 35.83139543 -3.25653076 41.30354309 C-5.04294412 46.66278316 -4.9128322 52.1705634 -3.25653076 57.55354309 C1.39512448 63.94956905 7.02751459 67.07878838 14.74346924 68.30354309 C21.76381688 68.94175651 28.48367669 67.3254989 34.11846924 62.99104309 C38.27763939 58.73284508 40.5088712 54.28579308 40.74346924 48.30354309 C39.71171934 41.67606728 36.99008444 37.93494878 31.81378174 33.79963684 C30.00698971 32.49397393 28.18293545 31.25498282 26.30596924 30.05354309 C23.74346924 28.30354309 23.74346924 28.30354309 22.74346924 25.30354309 C23.46534424 25.05604309 24.18721924 24.80854309 24.93096924 24.55354309 C28.15184052 23.12204475 30.31128774 21.87470639 32.74346924 19.30354309 C33.66027144 15.84675862 33.66027144 15.84675862 32.74346924 12.30354309 C30.90884122 10.18869811 29.08240672 8.91156261 26.74346924 7.30354309 C25.75346924 7.79854309 25.75346924 7.79854309 24.74346924 8.30354309 C25.40346924 10.28354309 26.06346924 12.26354309 26.74346924 14.30354309 C24.00109346 17.24905781 21.45511368 19.67404065 17.74346924 21.30354309 C15.18096924 20.61604309 15.18096924 20.61604309 12.74346924 19.30354309 C12.00096924 19.05604309 11.25846924 18.80854309 10.49346924 18.55354309 C8.74346924 17.30354309 8.74346924 17.30354309 7.74346924 14.49104309 C7.74346924 10.45777953 8.99144897 9.13895791 11.74346924 6.30354309 C7.46088992 6.30354309 6.14460306 6.99390949 3.02471924 9.81135559 Z " fill="#FFFFFF" transform="translate(12.25653076171875,-0.3035430908203125)"/>
</svg>
