<?xml version="1.0" encoding="UTF-8"?>
<svg version="1.1" xmlns="http://www.w3.org/2000/svg" width="86" height="75">
<path d="M0 0 C7.30371161 1.2780164 14.53219327 1.82351335 21.93774414 2.14453125 C21.36065533 5.98304622 19.58145641 7.83311597 17.06274414 10.70703125 C12.61628079 16.59879264 11.82199198 21.8742742 10.94555664 29.09082031 C10.20953817 34.97663887 8.79543162 39.82457515 6.26586914 45.2265625 C4.21529918 49.73178532 2.72183568 54.42549337 1.14868164 59.11328125 C0.02679632 61.92161353 -1.01361989 63.93330512 -3.06225586 66.14453125 C-3.72225586 66.14453125 -4.38225586 66.14453125 -5.06225586 66.14453125 C-5.06225586 65.15453125 -5.06225586 64.16453125 -5.06225586 63.14453125 C-6.36549805 64.22734375 -6.36549805 64.22734375 -7.69506836 65.33203125 C-8.85851537 66.27029497 -10.02261252 67.20775291 -11.18725586 68.14453125 C-11.75702148 68.62148437 -12.32678711 69.0984375 -12.91381836 69.58984375 C-15.89034049 71.95753181 -17.4994221 73.08066359 -21.36694336 73.51953125 C-24.06225586 73.14453125 -24.06225586 73.14453125 -26.06225586 72.14453125 C-28.09973216 71.91595011 -30.14265889 71.73428847 -32.18725586 71.58203125 C-33.83081055 71.45634766 -33.83081055 71.45634766 -35.50756836 71.328125 C-36.35061523 71.26753906 -37.19366211 71.20695312 -38.06225586 71.14453125 C-38.68725586 69.26953125 -38.68725586 69.26953125 -39.06225586 67.14453125 C-38.07225586 66.15453125 -38.07225586 66.15453125 -37.06225586 65.14453125 C-37.39225586 64.15453125 -37.72225586 63.16453125 -38.06225586 62.14453125 C-38.61913086 62.80453125 -39.17600586 63.46453125 -39.74975586 64.14453125 C-42.51447115 66.53563636 -43.54048005 66.33142483 -47.06225586 66.14453125 C-51.996325 59.19585948 -52.46847487 53.56188982 -51.49609375 45.38696289 C-50.90260385 40.0900192 -51.66062236 36.28910364 -53.06225586 31.14453125 C-53.10246109 29.26996236 -53.10547204 27.39403315 -53.06225586 25.51953125 C-53.50272601 18.16274259 -57.48548812 13.63100057 -61.90991211 8.078125 C-64.06225586 5.14453125 -64.06225586 5.14453125 -64.06225586 2.14453125 C-63.49418213 2.09441895 -62.9261084 2.04430664 -62.34082031 1.99267578 C-59.68505944 1.75590422 -57.02983925 1.51378543 -54.37475586 1.26953125 C-53.40884521 1.18074707 -52.44293457 1.09196289 -51.44775391 1.00048828 C-46.37820075 0.51759287 -41.38966743 -0.07571666 -36.37475586 -0.98046875 C-24.12074322 -2.951835 -12.16276001 -2.14070578 0 0 Z " fill="#252C37" transform="translate(64.062255859375,1.85546875)"/>
<path d="M0 0 C7.30371161 1.2780164 14.53219327 1.82351335 21.93774414 2.14453125 C21.36065533 5.98304622 19.58145641 7.83311597 17.06274414 10.70703125 C12.61628079 16.59879264 11.82199198 21.8742742 10.94555664 29.09082031 C10.20953817 34.97663887 8.79543162 39.82457515 6.26586914 45.2265625 C4.21529918 49.73178532 2.72183568 54.42549337 1.14868164 59.11328125 C0.02679632 61.92161353 -1.01361989 63.93330512 -3.06225586 66.14453125 C-3.72225586 66.14453125 -4.38225586 66.14453125 -5.06225586 66.14453125 C-5.06225586 65.15453125 -5.06225586 64.16453125 -5.06225586 63.14453125 C-6.36549805 64.22734375 -6.36549805 64.22734375 -7.69506836 65.33203125 C-8.85851537 66.27029497 -10.02261252 67.20775291 -11.18725586 68.14453125 C-11.75702148 68.62148437 -12.32678711 69.0984375 -12.91381836 69.58984375 C-15.89034049 71.95753181 -17.4994221 73.08066359 -21.36694336 73.51953125 C-24.06225586 73.14453125 -24.06225586 73.14453125 -26.06225586 72.14453125 C-28.09973216 71.91595011 -30.14265889 71.73428847 -32.18725586 71.58203125 C-33.83081055 71.45634766 -33.83081055 71.45634766 -35.50756836 71.328125 C-36.35061523 71.26753906 -37.19366211 71.20695312 -38.06225586 71.14453125 C-38.68725586 69.26953125 -38.68725586 69.26953125 -39.06225586 67.14453125 C-38.07225586 66.15453125 -38.07225586 66.15453125 -37.06225586 65.14453125 C-37.39225586 64.15453125 -37.72225586 63.16453125 -38.06225586 62.14453125 C-38.61913086 62.80453125 -39.17600586 63.46453125 -39.74975586 64.14453125 C-42.51447115 66.53563636 -43.54048005 66.33142483 -47.06225586 66.14453125 C-51.996325 59.19585948 -52.46847487 53.56188982 -51.49609375 45.38696289 C-50.90260385 40.0900192 -51.66062236 36.28910364 -53.06225586 31.14453125 C-53.10246109 29.26996236 -53.10547204 27.39403315 -53.06225586 25.51953125 C-53.50272601 18.16274259 -57.48548812 13.63100057 -61.90991211 8.078125 C-64.06225586 5.14453125 -64.06225586 5.14453125 -64.06225586 2.14453125 C-63.49418213 2.09441895 -62.9261084 2.04430664 -62.34082031 1.99267578 C-59.68505944 1.75590422 -57.02983925 1.51378543 -54.37475586 1.26953125 C-53.40884521 1.18074707 -52.44293457 1.09196289 -51.44775391 1.00048828 C-46.37820075 0.51759287 -41.38966743 -0.07571666 -36.37475586 -0.98046875 C-24.12074322 -2.951835 -12.16276001 -2.14070578 0 0 Z M-30.68725586 1.01953125 C-40.41238067 2.63079453 -50.2447966 3.32233391 -60.06225586 4.14453125 C-59.73225586 5.13453125 -59.40225586 6.12453125 -59.06225586 7.14453125 C-56.42225586 7.14453125 -53.78225586 7.14453125 -51.06225586 7.14453125 C-51.06225586 7.80453125 -51.06225586 8.46453125 -51.06225586 9.14453125 C-52.71225586 9.14453125 -54.36225586 9.14453125 -56.06225586 9.14453125 C-55.73225586 10.13453125 -55.40225586 11.12453125 -55.06225586 12.14453125 C-54.40225586 12.47453125 -53.74225586 12.80453125 -53.06225586 13.14453125 C-51.8579776 16.75736602 -51.57022179 20.31688443 -51.18725586 24.08203125 C-50.50554707 30.51240682 -49.37569458 36.52985828 -47.45288086 42.7265625 C-46.98055974 45.65023021 -47.61465757 46.63191422 -49.06225586 49.14453125 C-49.44961783 54.4827793 -49.44961783 54.4827793 -47.06225586 59.14453125 C-45.74225586 59.14453125 -44.42225586 59.14453125 -43.06225586 59.14453125 C-43.39225586 58.48453125 -43.72225586 57.82453125 -44.06225586 57.14453125 C-44.39225586 57.14453125 -44.72225586 57.14453125 -45.06225586 57.14453125 C-45.18725586 49.39453125 -45.18725586 49.39453125 -44.06225586 47.14453125 C-41.99975586 46.01953125 -41.99975586 46.01953125 -40.06225586 45.14453125 C-40.72225586 45.14453125 -41.38225586 45.14453125 -42.06225586 45.14453125 C-42.06225586 44.48453125 -42.06225586 43.82453125 -42.06225586 43.14453125 C-41.05163086 43.35078125 -40.04100586 43.55703125 -38.99975586 43.76953125 C-34.74871457 44.17439233 -32.03115615 43.65271336 -28.06225586 42.14453125 C-27.56725586 41.15453125 -27.56725586 41.15453125 -27.06225586 40.14453125 C-28.05225586 39.64953125 -28.05225586 39.64953125 -29.06225586 39.14453125 C-27.81632504 35.30291123 -26.72833882 33.02994535 -23.06225586 31.14453125 C-20.31225586 31.45703125 -20.31225586 31.45703125 -18.06225586 32.14453125 C-17.93725586 39.76953125 -17.93725586 39.76953125 -19.06225586 43.14453125 C-17.74225586 43.47453125 -16.42225586 43.80453125 -15.06225586 44.14453125 C-14.57232964 49.7296901 -14.82084073 53.03014374 -18.35131836 57.46875 C-21.53188658 60.58396408 -25.25045536 62.87738194 -29.06225586 65.14453125 C-28.3280497 68.27165004 -28.3280497 68.27165004 -25.81225586 69.89453125 C-22.49699199 71.40146937 -21.4845454 71.24310644 -18.06225586 70.14453125 C-15.48632103 68.2303974 -15.48632103 68.2303974 -13.06225586 65.83203125 C-9.82931347 62.7758904 -6.57089469 59.88252262 -3.06225586 57.14453125 C-2.73225586 57.80453125 -2.40225586 58.46453125 -2.06225586 59.14453125 C-1.75932617 58.3453125 -1.45639648 57.54609375 -1.14428711 56.72265625 C-0.7253418 55.624375 -0.30639648 54.52609375 0.12524414 53.39453125 C0.57899414 52.19699219 1.03274414 50.99945313 1.50024414 49.765625 C2.37395104 47.56473833 3.29892616 45.38214988 4.31274414 43.2421875 C7.93856104 35.54811771 8.88895029 28.32906315 9.57836914 19.953125 C9.93774414 16.14453125 9.93774414 16.14453125 10.93774414 13.14453125 C11.92774414 12.48453125 12.91774414 11.82453125 13.93774414 11.14453125 C13.93774414 10.48453125 13.93774414 9.82453125 13.93774414 9.14453125 C14.92774414 8.48453125 15.91774414 7.82453125 16.93774414 7.14453125 C16.93774414 6.48453125 16.93774414 5.82453125 16.93774414 5.14453125 C14.29774414 5.14453125 11.65774414 5.14453125 8.93774414 5.14453125 C8.93774414 4.48453125 8.93774414 3.82453125 8.93774414 3.14453125 C8.25671631 3.08918213 7.57568848 3.03383301 6.87402344 2.97680664 C3.79076817 2.72405493 0.70801596 2.46560997 -2.37475586 2.20703125 C-3.44661133 2.12001953 -4.5184668 2.03300781 -5.62280273 1.94335938 C-6.65083008 1.85634766 -7.67885742 1.76933594 -8.73803711 1.6796875 C-9.68590088 1.60113525 -10.63376465 1.52258301 -11.61035156 1.44165039 C-14.06225586 1.14453125 -14.06225586 1.14453125 -17.06225586 0.14453125 C-21.76748251 -0.11687023 -26.04198246 0.24734575 -30.68725586 1.01953125 Z " fill="#E4E4E5" transform="translate(64.062255859375,1.85546875)"/>
<path d="M0 0 C0.99 0 1.98 0 3 0 C3 1.98 3 3.96 3 6 C7.62 6 12.24 6 17 6 C17 7.32 17 8.64 17 10 C17.61488281 9.69964844 18.22976562 9.39929687 18.86328125 9.08984375 C20.07564453 8.51943359 20.07564453 8.51943359 21.3125 7.9375 C22.11300781 7.55464844 22.91351563 7.17179687 23.73828125 6.77734375 C26 6 26 6 29 7 C22.25 11 22.25 11 20 11 C19.7525 11.53625 19.505 12.0725 19.25 12.625 C18 15 18 15 15.9375 18 C14.3098164 20.52028428 13.44658072 22.09722532 13 25 C12.34 25 11.68 25 11 25 C11.33 25.99 11.66 26.98 12 28 C14.01508358 28.73323796 14.01508358 28.73323796 16 29 C16.33 27.68 16.66 26.36 17 25 C17.66 25 18.32 25 19 25 C19.268125 23.783125 19.53625 22.56625 19.8125 21.3125 C20.68494361 17.77878956 21.92156939 15.0231718 24 12 C24.99 12.33 25.98 12.66 27 13 C28.8871875 12.87625 28.8871875 12.87625 30.8125 12.75 C34.6342701 12.72195031 36.84392568 13.65139466 39.68359375 16.375 C44.95604094 22.88342146 46.30463081 29.7749682 46 38 C45.67 38.99 45.34 39.98 45 41 C43.68 40.67 42.36 40.34 41 40 C40.773125 40.721875 40.54625 41.44375 40.3125 42.1875 C38.75168987 45.53209313 36.6968713 47.51603959 34 50 C38.7258231 50 41.67265109 47.19564135 45 44 C46.41761295 41.66373655 47.15952955 39.62647015 48 37 C48.99 37 49.98 37 51 37 C51.495 32.05 51.495 32.05 52 27 C52.495 28.485 52.495 28.485 53 30 C54.32 29.34 55.64 28.68 57 28 C56.31583566 32.17576168 54.98634991 35.88080407 53.4375 39.8125 C52.98246094 40.97394531 52.52742188 42.13539062 52.05859375 43.33203125 C51.70925781 44.21246094 51.35992187 45.09289063 51 46 C50.67 45.34 50.34 44.68 50 44 C49.27296875 44.63615234 49.27296875 44.63615234 48.53125 45.28515625 C47.12195239 46.51829166 45.70892128 47.74716813 44.29296875 48.97265625 C42.78805191 50.3032386 41.3099083 51.66485983 39.86328125 53.05859375 C39.18652344 53.69925781 38.50976562 54.33992188 37.8125 55 C37.20019531 55.598125 36.58789062 56.19625 35.95703125 56.8125 C34 58 34 58 31.40234375 57.7421875 C29.05221621 57.01613184 27.07103301 56.33137836 25 55 C24.67 54.01 24.34 53.02 24 52 C24.88751953 51.47212891 24.88751953 51.47212891 25.79296875 50.93359375 C30.8841746 47.75262827 35.58554026 44.69291733 38 39 C38.37564878 36.18757689 38.25042252 33.85481675 38 31 C36.68 30.67 35.36 30.34 34 30 C34.495 28.515 34.495 28.515 35 27 C35.06665376 25.60560336 35.08538199 24.20830125 35.0625 22.8125 C35.041875 21.554375 35.02125 20.29625 35 19 C32.760165 18.04979584 32.760165 18.04979584 30 18 C26.91382062 20.52505586 25.26710868 22.19867395 24 26 C24.66 26.66 25.32 27.32 26 28 C23.12488551 30.87511449 19.89517306 30.83614951 16 31 C13 30.5625 13 30.5625 11 30 C11 30.66 11 31.32 11 32 C11.66 32.33 12.32 32.66 13 33 C12.360625 33.12375 11.72125 33.2475 11.0625 33.375 C10.381875 33.58125 9.70125 33.7875 9 34 C7.85647084 36.28705831 7.89665561 37.59264762 7.9375 40.125 C7.958125 41.40375 7.97875 42.6825 8 44 C8.66 44 9.32 44 10 44 C10 44.66 10 45.32 10 46 C8.35 46 6.7 46 5 46 C3.82009761 42.46029282 3.80430732 39.71816101 4 36 C4.37125 35.43152344 4.7425 34.86304688 5.125 34.27734375 C6.50054967 30.69723011 5.17840108 27.55468595 4.1875 24 C2.56503503 17.74737786 1.49152826 11.79763682 1.17578125 5.3203125 C1.08282797 2.84238455 1.08282797 2.84238455 0 0 Z " fill="#162433" transform="translate(11,15)"/>
<path d="M0 0 C1.87643761 1.87643761 1.17984987 4.49805701 1.23046875 6.9921875 C1 9 1 9 -1 12 C1.475 12.495 1.475 12.495 4 13 C4.53600115 18.00267744 4.46955034 20.96762952 1.5 25.125 C-1.39738988 28.6462298 -4.68537737 31.24225674 -8.4609375 33.7734375 C-8.96882813 34.17820313 -9.47671875 34.58296875 -10 35 C-10 35.66 -10 36.32 -10 37 C-12.31 37 -14.62 37 -17 37 C-16.34 35.02 -15.68 33.04 -15 31 C-16.1645201 29.33378575 -16.1645201 29.33378575 -18 28 C-21.85120178 28.19749753 -24.10345247 29.53257062 -27 32 C-27.66 30.35 -28.32 28.7 -29 27 C-28.34 27 -27.68 27 -27 27 C-27.33 26.67 -27.66 26.34 -28 26 C-28.59757236 18.70961718 -28.59757236 18.70961718 -26 15.625 C-25.34 15.08875 -24.68 14.5525 -24 14 C-24 13.34 -24 12.68 -24 12 C-23.07316406 11.93941406 -22.14632813 11.87882812 -21.19140625 11.81640625 C-19.99386719 11.73261719 -18.79632813 11.64882813 -17.5625 11.5625 C-15.77005859 11.44068359 -15.77005859 11.44068359 -13.94140625 11.31640625 C-11.11429756 11.32343886 -11.11429756 11.32343886 -10 10 C-10.66 9.34 -11.32 8.68 -12 8 C-9.28925197 1.90081693 -7.12371093 -2.31039273 0 0 Z " fill="#18202B" transform="translate(46,33)"/>
<path d="M0 0 C0.08636719 0.7734375 0.17273438 1.546875 0.26171875 2.34375 C1.14540579 8.89438418 2.16841473 15.12540359 7 20 C7.99 20 8.98 20 10 20 C9.01 19.34 8.02 18.68 7 18 C7.65784963 14.70319035 8.89420573 12.15882078 10.5625 9.25 C11.01753906 8.45078125 11.47257812 7.6515625 11.94140625 6.828125 C12.46541016 5.92320313 12.46541016 5.92320313 13 5 C15.64 5 18.28 5 21 5 C20.3741355 12.00435592 19.71325905 19.00399099 19 26 C17.35 26.33 15.7 26.66 14 27 C13.34 29.97 12.68 32.94 12 36 C11.67 35.34 11.34 34.68 11 34 C10.34 34 9.68 34 9 34 C8.9071875 35.051875 8.9071875 35.051875 8.8125 36.125 C7.50658432 40.74593239 4.94916172 43.73095514 0.99609375 46.3046875 C-1.00156053 47.37157469 -2.83172046 48.3422583 -5 49 C-6.485 48.505 -6.485 48.505 -8 48 C-7.0925 47.484375 -6.185 46.96875 -5.25 46.4375 C-1.48237384 43.96443733 0.0084148 40.98317039 2 37 C3.32 37.33 4.64 37.66 6 38 C6.54218337 28.38126535 5.04244724 20.74188553 -1 13 C-4.20380017 10.86413322 -5.01939967 10.76867825 -8.6875 10.875 C-9.89986328 10.90207031 -9.89986328 10.90207031 -11.13671875 10.9296875 C-11.75160156 10.95289063 -12.36648437 10.97609375 -13 11 C-13 10.34 -13 9.68 -13 9 C-16.56539592 11.37693061 -16.78162717 12.58505279 -18.0625 16.5625 C-18.65522834 18.39305458 -19.29084637 20.21132505 -20 22 C-20.66 22.33 -21.32 22.66 -22 23 C-22.33 23.99 -22.66 24.98 -23 26 C-24.65 25.67 -26.3 25.34 -28 25 C-28 24.01 -28 23.02 -28 22 C-27.34 22 -26.68 22 -26 22 C-25.95875 21.175 -25.9175 20.35 -25.875 19.5 C-24.6207804 14.48312159 -22.93666901 11.41601278 -19 8 C-5.52703863 0 -5.52703863 0 0 0 Z " fill="#0F6099" transform="translate(50,18)"/>
<path d="M0 0 C-0.99 0.33 -1.98 0.66 -3 1 C-2.34 1.33 -1.68 1.66 -1 2 C-1 5.96 -1 9.92 -1 14 C-2.32 14.33 -3.64 14.66 -5 15 C-1.37 14.67 2.26 14.34 6 14 C5.67 15.32 5.34 16.64 5 18 C3.4840625 18.185625 3.4840625 18.185625 1.9375 18.375 C-1.87937612 18.98085335 -5.31500112 19.87193912 -9 21 C-9.33 20.01 -9.66 19.02 -10 18 C-10.60328125 18.01160156 -11.2065625 18.02320312 -11.828125 18.03515625 C-13.02695312 18.04869141 -13.02695312 18.04869141 -14.25 18.0625 C-15.43335938 18.07990234 -15.43335938 18.07990234 -16.640625 18.09765625 C-18.90691002 18.00385306 -20.8288895 17.63241063 -23 17 C-23.061875 16.05125 -23.12375 15.1025 -23.1875 14.125 C-23.5896875 12.578125 -23.5896875 12.578125 -24 11 C-26.46255685 9.54708727 -26.46255685 9.54708727 -29 9 C-29 8.34 -29 7.68 -29 7 C-27.35 7 -25.7 7 -24 7 C-24 6.34 -24 5.68 -24 5 C-26.64 5 -29.28 5 -32 5 C-32.33 4.01 -32.66 3.02 -33 2 C-28.94414984 1.54541251 -24.88739586 1.10012453 -20.82958984 0.66333008 C-19.45008011 0.5135242 -18.07084082 0.36120537 -16.69189453 0.20629883 C-14.70678933 -0.01625623 -12.7205865 -0.22895079 -10.734375 -0.44140625 C-9.54038086 -0.57232666 -8.34638672 -0.70324707 -7.11621094 -0.83813477 C-4.39876821 -0.9792868 -2.54819401 -0.86318693 0 0 Z " fill="#2E353F" transform="translate(37,4)"/>
<path d="M0 0 C7.30371161 1.2780164 14.53219327 1.82351335 21.93774414 2.14453125 C21.34835844 6.04354434 19.44031602 8.24260665 17.00024414 11.26953125 C13.11614992 16.43211087 11.49311136 20.74392399 10.93774414 27.14453125 C10.60774414 27.14453125 10.27774414 27.14453125 9.93774414 27.14453125 C9.91079563 25.18627252 9.89137196 23.22790899 9.87524414 21.26953125 C9.86364258 20.17898437 9.85204102 19.0884375 9.84008789 17.96484375 C9.93774414 15.14453125 9.93774414 15.14453125 10.93774414 13.14453125 C9.94774414 12.64953125 9.94774414 12.64953125 8.93774414 12.14453125 C9.57711914 12.02078125 10.21649414 11.89703125 10.87524414 11.76953125 C11.55586914 11.56328125 12.23649414 11.35703125 12.93774414 11.14453125 C13.26774414 10.48453125 13.59774414 9.82453125 13.93774414 9.14453125 C12.61774414 8.81453125 11.29774414 8.48453125 9.93774414 8.14453125 C11.39180664 7.95890625 11.39180664 7.95890625 12.87524414 7.76953125 C14.39118164 7.46015625 14.39118164 7.46015625 15.93774414 7.14453125 C16.26774414 6.48453125 16.59774414 5.82453125 16.93774414 5.14453125 C14.29774414 5.14453125 11.65774414 5.14453125 8.93774414 5.14453125 C8.93774414 4.48453125 8.93774414 3.82453125 8.93774414 3.14453125 C7.37926758 3.17933594 7.37926758 3.17933594 5.78930664 3.21484375 C-1.34515696 3.32449929 -7.93133384 3.21970386 -14.91772461 1.59765625 C-20.3609993 0.44752899 -25.29083833 1.15113173 -30.68725586 2.08203125 C-40.39476807 3.70186465 -50.24181809 3.81925487 -60.06225586 4.14453125 C-59.73225586 4.80453125 -59.40225586 5.46453125 -59.06225586 6.14453125 C-57.16692244 6.60976188 -57.16692244 6.60976188 -54.99975586 6.76953125 C-53.70038086 6.89328125 -52.40100586 7.01703125 -51.06225586 7.14453125 C-51.06225586 7.80453125 -51.06225586 8.46453125 -51.06225586 9.14453125 C-52.71225586 9.14453125 -54.36225586 9.14453125 -56.06225586 9.14453125 C-54.80684029 11.65536239 -53.56162098 12.01578571 -51.06225586 13.14453125 C-51.72225586 13.14453125 -52.38225586 13.14453125 -53.06225586 13.14453125 C-52.07225586 14.62953125 -52.07225586 14.62953125 -51.06225586 16.14453125 C-50.91979689 18.91108449 -50.87456141 21.57106431 -50.93725586 24.33203125 C-50.9462793 25.08162109 -50.95530273 25.83121094 -50.96459961 26.60351562 C-50.98813008 28.45065779 -51.02400025 30.29763537 -51.06225586 32.14453125 C-51.72225586 31.81453125 -52.38225586 31.48453125 -53.06225586 31.14453125 C-53.11068985 29.41604304 -53.09879547 27.68581181 -53.06225586 25.95703125 C-53.49372055 18.30082794 -57.31499566 13.85077887 -61.90991211 8.078125 C-64.06225586 5.14453125 -64.06225586 5.14453125 -64.06225586 2.14453125 C-63.49418213 2.09441895 -62.9261084 2.04430664 -62.34082031 1.99267578 C-59.68505944 1.75590422 -57.02983925 1.51378543 -54.37475586 1.26953125 C-53.40884521 1.18074707 -52.44293457 1.09196289 -51.44775391 1.00048828 C-46.37820075 0.51759287 -41.38966743 -0.07571666 -36.37475586 -0.98046875 C-24.12074322 -2.951835 -12.16276001 -2.14070578 0 0 Z " fill="#E9E9EA" transform="translate(64.062255859375,1.85546875)"/>
<path d="M0 0 C3.3 0 6.6 0 10 0 C10 0.66 10 1.32 10 2 C12.64 2 15.28 2 18 2 C17 5 17 5 15 6 C14.67 6.99 14.34 7.98 14 9 C13.01 9.495 13.01 9.495 12 10 C11.15861374 12.52415878 10.78009618 14.41393398 10.53515625 17.01953125 C10.41817383 18.18258789 10.41817383 18.18258789 10.29882812 19.36914062 C10.14243498 20.98606475 9.98874768 22.60325309 9.83789062 24.22070312 C9.37817673 28.73935432 8.64546281 32.7245506 7 37 C6.67 37 6.34 37 6 37 C5.75205598 30.4294834 6.67611771 24.43028541 8 18 C5.36 18 2.72 18 0 18 C-0.2475 18.66 -0.495 19.32 -0.75 20 C-2.31817045 23.76360907 -4.14505046 27.3711424 -6 31 C-5.360625 31.28875 -4.72125 31.5775 -4.0625 31.875 C-2 33 -2 33 -1 35 C-4.16031676 34.68826807 -5.60204879 34.44197236 -7.765625 32.0390625 C-8.25546875 31.24242188 -8.7453125 30.44578125 -9.25 29.625 C-10.00023437 28.43777344 -10.00023437 28.43777344 -10.765625 27.2265625 C-12.85874537 23.45099727 -13.1124452 20.55784193 -13.0625 16.3125 C-13.05347656 15.31863281 -13.04445312 14.32476562 -13.03515625 13.30078125 C-13.02355469 12.54152344 -13.01195312 11.78226563 -13 11 C-12.67 11.66 -12.34 12.32 -12 13 C-10.68 12.34 -9.36 11.68 -8 11 C-7.67 12.65 -7.34 14.3 -7 16 C-8.32 16 -9.64 16 -11 16 C-10.34 19.63 -9.68 23.26 -9 27 C-8.34 27 -7.68 27 -7 27 C-6.814375 25.1128125 -6.814375 25.1128125 -6.625 23.1875 C-6.30131941 19.89674737 -5.93395001 18.90092502 -4 16 C-1.875 15.3125 -1.875 15.3125 0 15 C0.06058594 14.24074219 0.12117188 13.48148438 0.18359375 12.69921875 C0.26738281 11.70535156 0.35117187 10.71148437 0.4375 9.6875 C0.51871094 8.70136719 0.59992187 7.71523437 0.68359375 6.69921875 C1 4 1 4 2 1 C1.34 0.67 0.68 0.34 0 0 Z " fill="#102538" transform="translate(63,5)"/>
<path d="M0 0 C0.99 0 1.98 0 3 0 C3 1.98 3 3.96 3 6 C7.62 6 12.24 6 17 6 C17 7.32 17 8.64 17 10 C17.61488281 9.69964844 18.22976562 9.39929687 18.86328125 9.08984375 C20.07564453 8.51943359 20.07564453 8.51943359 21.3125 7.9375 C22.11300781 7.55464844 22.91351563 7.17179687 23.73828125 6.77734375 C26 6 26 6 29 7 C22.25 11 22.25 11 20 11 C19.7525 11.53625 19.505 12.0725 19.25 12.625 C18 15 18 15 15.9375 18 C14.3098164 20.52028428 13.44658072 22.09722532 13 25 C11.68 25.33 10.36 25.66 9 26 C8.01 24.68 7.02 23.36 6 22 C5.34 22.33 4.68 22.66 4 23 C2.32410437 17.19022847 1.62468217 11.67095459 1.24609375 5.63671875 C1.09059313 2.89394815 1.09059313 2.89394815 0 0 Z " fill="#0E1D2D" transform="translate(11,15)"/>
<path d="M0 0 C4.70588235 0.70588235 4.70588235 0.70588235 6 2 C6.36090226 9.45864662 6.36090226 9.45864662 4 13 C5.65 13.33 7.3 13.66 9 14 C9.53162002 18.96178682 9.47072077 21.97497697 6.5625 26.125 C3.04463772 30.39367701 -1.26351664 33.22126309 -6 36 C-7.33332095 33.3333581 -6.67102033 31.83319697 -6 29 C-2.535 28.505 -2.535 28.505 1 28 C0.67 27.34 0.34 26.68 0 26 C-0.07116382 23.62597499 -0.08409085 21.24999323 -0.0625 18.875 C-0.05347656 17.59367187 -0.04445313 16.31234375 -0.03515625 14.9921875 C-0.02355469 14.00476562 -0.01195312 13.01734375 0 12 C-1.32 12.33 -2.64 12.66 -4 13 C-3.2575 11.9790625 -3.2575 11.9790625 -2.5 10.9375 C-0.69569408 7.40406757 -0.84942966 4.91482882 -1 1 C-0.67 0.67 -0.34 0.34 0 0 Z " fill="#F9F9F9" transform="translate(41,32)"/>
<path d="M0 0 C2.64 0 5.28 0 8 0 C7.3741355 7.00435592 6.71325905 14.00399099 6 21 C4.35 21.33 2.7 21.66 1 22 C0.67 24.31 0.34 26.62 0 29 C-0.33 29 -0.66 29 -1 29 C-1 25.37 -1 21.74 -1 18 C-1.66 17.67 -2.32 17.34 -3 17 C-3 16.34 -3 15.68 -3 15 C-3.99 14.34 -4.98 13.68 -6 13 C-5.34215037 9.70319035 -4.10579427 7.15882078 -2.4375 4.25 C-1.98246094 3.45078125 -1.52742188 2.6515625 -1.05859375 1.828125 C-0.53458984 0.92320313 -0.53458984 0.92320313 0 0 Z " fill="#143853" transform="translate(63,23)"/>
<path d="M0 0 C-0.66 4.62 -1.32 9.24 -2 14 C-2.99 14 -3.98 14 -5 14 C-7.21399303 17.79541663 -8.00980198 21.75629421 -9 26 C-9.66 26 -10.32 26 -11 26 C-12.80230168 22.17010894 -13.19622241 19.21878192 -13 15 C-11.68 15 -10.36 15 -9 15 C-9.66 13.68 -10.32 12.36 -11 11 C-11.99 11.495 -11.99 11.495 -13 12 C-13 8.37 -13 4.74 -13 1 C-11.35 0.67 -9.7 0.34 -8 0 C-5 -1 -5 -1 0 0 Z " fill="#272E38" transform="translate(65,6)"/>
<path d="M0 0 C0.66 0 1.32 0 2 0 C1.67 1.19625 1.34 2.3925 1 3.625 C0.12102167 7.16602698 -0.34920902 10.33330526 0 14 C0.66 14.66 1.32 15.32 2 16 C-0.87511449 18.87511449 -4.10482694 18.83614951 -8 19 C-11 18.5625 -11 18.5625 -13 18 C-13 18.66 -13 19.32 -13 20 C-12.34 20.33 -11.68 20.66 -11 21 C-11.639375 21.12375 -12.27875 21.2475 -12.9375 21.375 C-13.618125 21.58125 -14.29875 21.7875 -15 22 C-16.14352916 24.28705831 -16.10334439 25.59264762 -16.0625 28.125 C-16.041875 29.40375 -16.02125 30.6825 -16 32 C-15.34 32 -14.68 32 -14 32 C-14 32.66 -14 33.32 -14 34 C-15.65 34 -17.3 34 -19 34 C-20.17990239 30.46029282 -20.19569268 27.71816101 -20 24 C-19.65839844 23.37480469 -19.31679688 22.74960937 -18.96484375 22.10546875 C-17.72686025 19.40395819 -17.99036916 17.67319441 -18.375 14.75 C-18.48585938 13.85796875 -18.59671875 12.9659375 -18.7109375 12.046875 C-18.80632813 11.37140625 -18.90171875 10.6959375 -19 10 C-18.34 9.67 -17.68 9.34 -17 9 C-14.47411298 11.36292656 -13.11179163 12.66462511 -12 16 C-9.98491642 16.73323796 -9.98491642 16.73323796 -8 17 C-7.67 15.68 -7.34 14.36 -7 13 C-6.34 13 -5.68 13 -5 13 C-4.731875 11.783125 -4.46375 10.56625 -4.1875 9.3125 C-3.3042542 5.78578094 -2.20858278 2.94477704 0 0 Z " fill="#222B37" transform="translate(35,27)"/>
<path d="M0 0 C0.33 2.31 0.66 4.62 1 7 C-4.94 7.495 -4.94 7.495 -11 8 C-11 7.34 -11 6.68 -11 6 C-14.56539592 8.37693061 -14.78162717 9.58505279 -16.0625 13.5625 C-16.65522834 15.39305458 -17.29084637 17.21132505 -18 19 C-18.66 19.33 -19.32 19.66 -20 20 C-20.33 20.99 -20.66 21.98 -21 23 C-22.65 22.67 -24.3 22.34 -26 22 C-26 21.01 -26 20.02 -26 19 C-25.34 19 -24.68 19 -24 19 C-23.95875 18.175 -23.9175 17.35 -23.875 16.5 C-22.40766656 10.63066624 -19.55626416 6.57396087 -14.3671875 3.37890625 C-9.35048615 0.96624198 -5.62223815 -0.26457591 0 0 Z " fill="#1475B1" transform="translate(48,21)"/>
<path d="M0 0 C6.875 0.875 6.875 0.875 8 2 C11.00331018 2.14193337 13.99217134 2.04236378 17 2 C17.33 5.63 17.66 9.26 18 13 C16.35 13.66 14.7 14.32 13 15 C12.67 14.34 12.34 13.68 12 13 C8.97065509 12.34227572 8.97065509 12.34227572 6 12 C6.33 11.34 6.66 10.68 7 10 C13.75 9.875 13.75 9.875 16 11 C16 8.69 16 6.38 16 4 C10.9417745 5.58595194 8.15602935 6.66045965 5 11 C2.41537765 12.51762394 -0.2647103 13.77854047 -3 15 C-4 14 -4 14 -4.3125 10.1875 C-4.29483467 6.89586029 -4.21642044 6.25699927 -2 3.625 C-1.34 3.08875 -0.68 2.5525 0 2 C0 1.34 0 0.68 0 0 Z " fill="#B1B2B6" transform="translate(22,45)"/>
<path d="M0 0 C0 4.95 0 9.9 0 15 C-2.31 15.33 -4.62 15.66 -7 16 C-7.061875 15.05125 -7.12375 14.1025 -7.1875 13.125 C-7.5896875 11.578125 -7.5896875 11.578125 -8 10 C-10.46255685 8.54708727 -10.46255685 8.54708727 -13 8 C-13 7.34 -13 6.68 -13 6 C-11.35 6 -9.7 6 -8 6 C-8 5.34 -8 4.68 -8 4 C-10.64 4 -13.28 4 -16 4 C-16.33 3.01 -16.66 2.02 -17 1 C-11.29014022 0.25983299 -5.75813575 -0.10469338 0 0 Z " fill="#5C6167" transform="translate(21,5)"/>
<path d="M0 0 C2.38684793 1.44718359 4.00342702 3.00342702 6 5 C5.67 5.99 5.34 6.98 5 8 C5.33 8.66 5.66 9.32 6 10 C6.12145993 11.83037287 6.17543185 13.66564133 6.1875 15.5 C6.20167969 16.4796875 6.21585938 17.459375 6.23046875 18.46875 C6 21 6 21 4 23 C3.67 21.35 3.34 19.7 3 18 C1.68 17.67 0.36 17.34 -1 17 C-0.67 16.01 -0.34 15.02 0 14 C0.06665376 12.60560336 0.08538199 11.20830125 0.0625 9.8125 C0.041875 8.554375 0.02125 7.29625 0 6 C-2.239835 5.04979584 -2.239835 5.04979584 -5 5 C-7.72926391 7.31256494 -7.72926391 7.31256494 -10 10 C-10.99 10.495 -10.99 10.495 -12 11 C-11.40706956 3.76624857 -11.40706956 3.76624857 -9.9375 1 C-6.68531635 -0.6785464 -3.50349753 -0.73896746 0 0 Z " fill="#16202C" transform="translate(46,28)"/>
<path d="M0 0 C2.375 -0.1875 2.375 -0.1875 5 0 C5.66 0.99 6.32 1.98 7 3 C10.58357241 3.25015873 10.58357241 3.25015873 14 3 C11.25 7.875 11.25 7.875 9 9 C7.9458482 12.16245541 7.68724328 14.86948218 7.4375 18.1875 C7.35371094 19.27417969 7.26992187 20.36085938 7.18359375 21.48046875 C7.12300781 22.31191406 7.06242187 23.14335937 7 24 C6.67 24 6.34 24 6 24 C6 21.36 6 18.72 6 16 C3.03 15.505 3.03 15.505 0 15 C0 14.01 0 13.02 0 12 C0.99 12 1.98 12 3 12 C3 11.01 3 10.02 3 9 C2.01 9 1.02 9 0 9 C0 6.03 0 3.06 0 0 Z " fill="#323943" transform="translate(66,6)"/>
<path d="M0 0 C4.29 0 8.58 0 13 0 C13.09765625 6.15234375 13.09765625 6.15234375 13 8 C12 9 12 9 9.27734375 9.09765625 C7.62412109 9.08025391 7.62412109 9.08025391 5.9375 9.0625 C4.83277344 9.05347656 3.72804687 9.04445313 2.58984375 9.03515625 C1.30787109 9.01775391 1.30787109 9.01775391 0 9 C0 6.03 0 3.06 0 0 Z " fill="#6E7277" transform="translate(37,7)"/>
<path d="M0 0 C1.98 0 3.96 0 6 0 C7 3 7 3 5.56640625 5.91796875 C4.90511719 6.99691406 4.24382812 8.07585938 3.5625 9.1875 C2.90378906 10.27417969 2.24507812 11.36085938 1.56640625 12.48046875 C1.04949219 13.31191406 0.53257813 14.14335938 0 15 C-2.16874252 14.49396008 -3.99967627 14.00016187 -6 13 C-5.34215037 9.70319035 -4.10579427 7.15882078 -2.4375 4.25 C-1.98246094 3.45078125 -1.52742188 2.6515625 -1.05859375 1.828125 C-0.53458984 0.92320313 -0.53458984 0.92320313 0 0 Z " fill="#1E93CD" transform="translate(63,23)"/>
<path d="M0 0 C0.33 0 0.66 0 1 0 C2.21005659 10.36439777 2.20936194 18.21046418 -2 28 C-2.73032632 29.8537102 -3.4595575 31.70785239 -4.1875 33.5625 C-4.51105469 34.34753906 -4.83460937 35.13257813 -5.16796875 35.94140625 C-5.83999047 37.60410788 -6.43288538 39.29865614 -7 41 C-9.0625 42.1875 -9.0625 42.1875 -11 43 C-9.61875541 37.19428087 -8.01680801 31.77017976 -5.4375 26.375 C-1.38741785 17.77617693 -0.60584509 9.42248547 0 0 Z " fill="#D8D9DB" transform="translate(73,18)"/>
<path d="M0 0 C3.96 0 7.92 0 12 0 C10.94625617 4.21497533 9.73868065 5.80518097 7.0625 9.125 C3.17840578 14.28757962 1.55536722 18.59939274 1 25 C0.67 25 0.34 25 0 25 C-0.02694851 23.04174127 -0.04637218 21.08337774 -0.0625 19.125 C-0.07410156 18.03445312 -0.08570312 16.94390625 -0.09765625 15.8203125 C0 13 0 13 1 11 C0.34 10.67 -0.32 10.34 -1 10 C-0.360625 9.87625 0.27875 9.7525 0.9375 9.625 C1.618125 9.41875 2.29875 9.2125 3 9 C3.33 8.34 3.66 7.68 4 7 C2.68 6.67 1.36 6.34 0 6 C1.134375 5.71125 2.26875 5.4225 3.4375 5.125 C4.613125 4.75375 5.78875 4.3825 7 4 C7.33 3.34 7.66 2.68 8 2 C5.36 2 2.72 2 0 2 C0 1.34 0 0.68 0 0 Z " fill="#F4F5F5" transform="translate(74,4)"/>
<path d="M0 0 C-0.99 0.33 -1.98 0.66 -3 1 C-2.34 1.33 -1.68 1.66 -1 2 C-1 5.96 -1 9.92 -1 14 C-3.31 14 -5.62 14 -8 14 C-7.96519531 13.15695313 -7.93039063 12.31390625 -7.89453125 11.4453125 C-7.86746094 10.34960938 -7.84039063 9.25390625 -7.8125 8.125 C-7.77769531 7.03445313 -7.74289063 5.94390625 -7.70703125 4.8203125 C-7.85205078 3.42425781 -7.85205078 3.42425781 -8 2 C-8.99 1.34 -9.98 0.68 -11 0 C-3.57142857 -1.28571429 -3.57142857 -1.28571429 0 0 Z " fill="#888B8F" transform="translate(37,4)"/>
<path d="M0 0 C0.33 0 0.66 0 1 0 C1.33 2.97 1.66 5.94 2 9 C3.98 8.67 5.96 8.34 8 8 C8 5.69 8 3.38 8 1 C8.33 1 8.66 1 9 1 C9.53162002 5.96178682 9.47072077 8.97497697 6.5625 13.125 C3.04463772 17.39367701 -1.26351664 20.22126309 -6 23 C-7.33332095 20.3333581 -6.67102033 18.83319697 -6 16 C-2.535 15.505 -2.535 15.505 1 15 C0.67 14.34 0.34 13.68 0 13 C-0.07092842 10.7927077 -0.08415025 8.58332548 -0.0625 6.375 C-0.05347656 5.18648437 -0.04445313 3.99796875 -0.03515625 2.7734375 C-0.02355469 1.85820313 -0.01195312 0.94296875 0 0 Z " fill="#CFD0D2" transform="translate(41,45)"/>
<path d="M0 0 C6.1073134 -0.16201639 11.79462383 0.42747395 17.8125 1.4375 C18.65748047 1.57220703 19.50246094 1.70691406 20.37304688 1.84570312 C23.70495209 2.38822939 26.78957654 2.92985885 30 4 C30 4.66 30 5.32 30 6 C32.64 6 35.28 6 38 6 C37.67 6.66 37.34 7.32 37 8 C34.36 7.67 31.72 7.34 29 7 C29 6.34 29 5.68 29 5 C27.44152344 5.03480469 27.44152344 5.03480469 25.8515625 5.0703125 C16.84634039 5.20971891 8.62699295 4.87566432 0 2 C0 1.34 0 0.68 0 0 Z " fill="#DCDDDE" transform="translate(44,0)"/>
<path d="M0 0 C0.66 0 1.32 0 2 0 C1.67 1.19625 1.34 2.3925 1 3.625 C0.12102167 7.16602698 -0.34920902 10.33330526 0 14 C0.66 14.66 1.32 15.32 2 16 C-0.24497221 18.24497221 -0.96027349 18.37003419 -4 18.75 C-5.051875 18.89695312 -5.051875 18.89695312 -6.125 19.046875 C-8 19 -8 19 -10 17 C-9.34 17 -8.68 17 -8 17 C-7.67 15.68 -7.34 14.36 -7 13 C-6.34 13 -5.68 13 -5 13 C-4.731875 11.783125 -4.46375 10.56625 -4.1875 9.3125 C-3.3042542 5.78578094 -2.20858278 2.94477704 0 0 Z " fill="#121F2F" transform="translate(35,27)"/>
<path d="M0 0 C3.3 0 6.6 0 10 0 C10 0.66 10 1.32 10 2 C12.64 2 15.28 2 18 2 C18 2.66 18 3.32 18 4 C15.36 4 12.72 4 10 4 C9.67 4.66 9.34 5.32 9 6 C8.67 4.68 8.34 3.36 8 2 C6.35 1.67 4.7 1.34 3 1 C3 3.97 3 6.94 3 10 C3.99 10 4.98 10 6 10 C6 10.99 6 11.98 6 13 C5.01 13 4.02 13 3 13 C2.67 13.66 2.34 14.32 2 15 C0 13 0 13 -0.01171875 10.94140625 C0.09527344 10.15636719 0.20226563 9.37132812 0.3125 8.5625 C0.41175781 7.78003906 0.51101562 6.99757813 0.61328125 6.19140625 C1 4 1 4 2 1 C1.34 0.67 0.68 0.34 0 0 Z " fill="#222934" transform="translate(63,5)"/>
<path d="M0 0 C0 2.31 0 4.62 0 7 C-2.97 7 -5.94 7 -9 7 C-8.67 7.66 -8.34 8.32 -8 9 C-9.98 9.33 -11.96 9.66 -14 10 C-14 9.01 -14 8.02 -14 7 C-13.01 6.67 -12.02 6.34 -11 6 C-10.34 5.175 -9.68 4.35 -9 3.5 C-6.14353 -0.07058751 -4.54266474 0 0 0 Z " fill="#5E636B" transform="translate(38,49)"/>
<path d="M0 0 C1.65 0 3.3 0 5 0 C5 0.99 5 1.98 5 3 C4.01 3 3.02 3 2 3 C2 4.32 2 5.64 2 7 C3.32 7 4.64 7 6 7 C6 9.64 6 12.28 6 15 C4.02 15 2.04 15 0 15 C0 14.01 0 13.02 0 12 C0.99 12 1.98 12 3 12 C3 11.01 3 10.02 3 9 C2.01 9 1.02 9 0 9 C0 6.03 0 3.06 0 0 Z " fill="#A6A7A9" transform="translate(66,6)"/>
<path d="M0 0 C0.66 0.33 1.32 0.66 2 1 C2.66666667 3 3.33333333 5 4 7 C3.525625 7.433125 3.05125 7.86625 2.5625 8.3125 C0.76313043 10.02309613 0.76313043 10.02309613 0 13 C-1.65 12.67 -3.3 12.34 -5 12 C-5 11.01 -5 10.02 -5 9 C-4.34 9 -3.68 9 -3 9 C-2.87625 8.071875 -2.7525 7.14375 -2.625 6.1875 C-2 3 -2 3 0 0 Z " fill="#106EAD" transform="translate(27,31)"/>
<path d="M0 0 C2.875 -0.1875 2.875 -0.1875 6 0 C8 3 8 3 7.8125 5.5 C6.95559826 8.13662075 6.11007147 9.25689748 4 11 C0 4.5 0 4.5 0 0 Z " fill="#1276B7" transform="translate(16,23)"/>
<path d="M0 0 C0.66 0.99 1.32 1.98 2 3 C5.05429073 4.21284876 5.05429073 4.21284876 8 5 C8.0544452 7.20805524 8.09299283 9.41650554 8.125 11.625 C8.14820312 12.85476562 8.17140625 14.08453125 8.1953125 15.3515625 C8.0030428 18.94316041 7.30258556 21.66661175 6 25 C5.67 25 5.34 25 5 25 C4.75057389 18.39020814 5.70215522 12.4892239 7 6 C3.37 5.67 -0.26 5.34 -4 5 C-4 4.34 -4 3.68 -4 3 C-3.01 3 -2.02 3 -1 3 C-0.67 2.01 -0.34 1.02 0 0 Z " fill="#0E1622" transform="translate(64,17)"/>
<path d="M0 0 C0.99 0 1.98 0 3 0 C3.33872513 1.41538717 3.67074624 2.83237963 4 4.25 C4.185625 5.03890625 4.37125 5.8278125 4.5625 6.640625 C5 9 5 9 5 13 C4.38125 12.649375 3.7625 12.29875 3.125 11.9375 C2.42375 11.628125 1.7225 11.31875 1 11 C0.01 11.495 0.01 11.495 -1 12 C-1.02687279 10.18757948 -1.04633715 8.37504767 -1.0625 6.5625 C-1.07410156 5.55316406 -1.08570313 4.54382813 -1.09765625 3.50390625 C-1 1 -1 1 0 0 Z " fill="#76797C" transform="translate(53,6)"/>
<path d="M0 0 C1.125 1.75 1.125 1.75 2 4 C1.125 6.0625 1.125 6.0625 0 8 C0 8.99 0 9.98 0 11 C-3.8503105 13.56687367 -5.58569763 12.83288724 -10 12 C-10 11.67 -10 11.34 -10 11 C-7.69 10.34 -5.38 9.68 -3 9 C-3.66 8.34 -4.32 7.68 -5 7 C-2.25 1.125 -2.25 1.125 0 0 Z " fill="#616663" transform="translate(39,34)"/>
<path d="M0 0 C0.33 2.31 0.66 4.62 1 7 C-2.3 6.67 -5.6 6.34 -9 6 C-9 4.35 -9 2.7 -9 1 C-5.8035914 -0.06546953 -3.34252724 -0.07427838 0 0 Z " fill="#1F9AD5" transform="translate(48,21)"/>
<path d="M0 0 C2.475 0.495 2.475 0.495 5 1 C5 5.29 5 9.58 5 14 C4.67 13.34 4.34 12.68 4 12 C3.01 12 2.02 12 1 12 C0.67 8.04 0.34 4.08 0 0 Z " fill="#157FC0" transform="translate(57,40)"/>
<path d="M0 0 C1.53266582 3.06533164 1.10276471 6.26754272 1.0625 9.625 C1.05798828 10.33140625 1.05347656 11.0378125 1.04882812 11.765625 C1.03703875 13.51045275 1.01910324 15.255237 1 17 C-0.98 17.33 -2.96 17.66 -5 18 C-4.67 17.01 -4.34 16.02 -4 15 C-3.01 15 -2.02 15 -1 15 C-1.66 11.7 -2.32 8.4 -3 5 C-5.64 5 -8.28 5 -11 5 C-11.33 4.34 -11.66 3.68 -12 3 C-10.948125 3.061875 -9.89625 3.12375 -8.8125 3.1875 C-4.84183507 2.9922214 -3.15803031 2.29674932 0 0 Z " fill="#444A53" transform="translate(41,43)"/>
<path d="M0 0 C4.70588235 0.70588235 4.70588235 0.70588235 6 2 C6.14115161 4.67058851 6.04247107 7.32432238 6 10 C5.01 10.495 5.01 10.495 4 11 C3.731875 10.360625 3.46375 9.72125 3.1875 9.0625 C2.11332248 6.66868314 2.11332248 6.66868314 -1 6 C-1.042721 4.33388095 -1.04063832 2.66617115 -1 1 C-0.67 0.67 -0.34 0.34 0 0 Z " fill="#D8D9DB" transform="translate(41,32)"/>
<path d="M0 0 C2.15377564 2.62198774 3.40072174 4.64404172 4 8 C4.66 8 5.32 8 6 8 C5.67 9.32 5.34 10.64 5 12 C4.01 12 3.02 12 2 12 C1.67 11.34 1.34 10.68 1 10 C0.01 10.495 0.01 10.495 -1 11 C-2.25 3.375 -2.25 3.375 0 0 Z " fill="#121E2E" transform="translate(16,27)"/>
<path d="M0 0 C1.98 0 3.96 0 6 0 C6 4.29 6 8.58 6 13 C4.35 13 2.7 13 1 13 C1 9.37 1 5.74 1 2 C1.33 3.32 1.66 4.64 2 6 C2.99 6 3.98 6 5 6 C5 4.35 5 2.7 5 1 C3.35 1 1.7 1 0 1 C0 0.67 0 0.34 0 0 Z " fill="#B5B6B8" transform="translate(15,7)"/>
<path d="M0 0 C1.98 0 3.96 0 6 0 C5.34 3.63 4.68 7.26 4 11 C3.34 11 2.68 11 2 11 C0.19769832 7.17010894 -0.19622241 4.21878192 0 0 Z " fill="#1E8DC3" transform="translate(52,21)"/>
<path d="M0 0 C0.33 3.63 0.66 7.26 1 11 C-0.65 11.66 -2.3 12.32 -4 13 C-4.33 12.34 -4.66 11.68 -5 11 C-8.02934491 10.34227572 -8.02934491 10.34227572 -11 10 C-10.67 9.34 -10.34 8.68 -10 8 C-3.25 7.875 -3.25 7.875 -1 9 C-1 6.69 -1 4.38 -1 2 C-2.98 2.33 -4.96 2.66 -7 3 C-7 2.34 -7 1.68 -7 1 C-1.125 0 -1.125 0 0 0 Z " fill="#8C8E94" transform="translate(39,47)"/>
<path d="M0 0 C2.64 0.33 5.28 0.66 8 1 C7.01 1.33 6.02 1.66 5 2 C4.28752268 3.6476038 3.62599617 5.31763529 3 7 C2.04175747 8.36365283 1.05278825 9.70794169 0 11 C-0.66 10.67 -1.32 10.34 -2 10 C-1.34 6.7 -0.68 3.4 0 0 Z " fill="#162B41" transform="translate(58,21)"/>
<path d="M0 0 C0.66 0 1.32 0 2 0 C2.33 0.66 2.66 1.32 3 2 C3.33 1.34 3.66 0.68 4 0 C4.99 0 5.98 0 7 0 C6.34 3.96 5.68 7.92 5 12 C4.01 12 3.02 12 2 12 C1.34 8.04 0.68 4.08 0 0 Z " fill="#BEBEBF" transform="translate(58,7)"/>
<path d="M0 0 C0.33 0.99 0.66 1.98 1 3 C-0.8125 6.1875 -0.8125 6.1875 -3 9 C-3.66 9 -4.32 9 -5 9 C-5 8.01 -5 7.02 -5 6 C-7.97 8.475 -7.97 8.475 -11 11 C-11.66 10.67 -12.32 10.34 -13 10 C-11.73861805 8.65772182 -10.46555441 7.32641323 -9.1875 6 C-8.12595703 4.88625 -8.12595703 4.88625 -7.04296875 3.75 C-5 2 -5 2 -2 2 C-1.34 1.34 -0.68 0.68 0 0 Z " fill="#F1F1F1" transform="translate(64,59)"/>
<path d="M0 0 C1.11375 0.1546875 1.11375 0.1546875 2.25 0.3125 C1.610625 1.385 0.97125 2.4575 0.3125 3.5625 C-1.15601273 6.12072182 -2.27854542 8.36590886 -2.75 11.3125 C-4.07 11.6425 -5.39 11.9725 -6.75 12.3125 C-6.09 10.3325 -5.43 8.3525 -4.75 6.3125 C-5.41 5.9825 -6.07 5.6525 -6.75 5.3125 C-3.42692308 0.38942308 -3.42692308 0.38942308 0 0 Z " fill="#0E2940" transform="translate(26.75,28.6875)"/>
<path d="M0 0 C0.33 0.99 0.66 1.98 1 3 C0.443125 3.0515625 -0.11375 3.103125 -0.6875 3.15625 C-4.10806438 4.40429376 -5.66996932 6.74374419 -8 9.5 C-13.1971831 15.64788732 -13.1971831 15.64788732 -17 16 C-14.81424884 11.49188824 -11.69573861 8.81001978 -7.93359375 5.6484375 C-5.86389462 3.93532758 -5.86389462 3.93532758 -3.625 1.5625 C-2 0 -2 0 0 0 Z " fill="#D7D8D9" transform="translate(61,59)"/>
<path d="M0 0 C1.32 0 2.64 0 4 0 C3.42655063 2.86724686 3.1385485 3.8614515 1 6 C0.29289322 7.64991582 -0.37943989 9.31562256 -1 11 C-1.66 10.67 -2.32 10.34 -3 10 C-3 7.36 -3 4.72 -3 2 C-2.01 2 -1.02 2 0 2 C0 1.34 0 0.68 0 0 Z " fill="#C5C6C8" transform="translate(21,49)"/>
<path d="M0 0 C0.99 0 1.98 0 3 0 C3.375 2.25 3.375 2.25 3 5 C-0.80820506 8.26417577 -4.03595477 9.52723379 -9 10 C-6.94741176 7.94741176 -4.89466913 5.89767859 -2.8125 3.875 C-0.93535679 2.12080131 -0.93535679 2.12080131 0 0 Z " fill="#167FBC" transform="translate(51,57)"/>
<path d="M0 0 C-0.33 1.32 -0.66 2.64 -1 4 C-2.5159375 4.185625 -2.5159375 4.185625 -4.0625 4.375 C-7.87937612 4.98085335 -11.31500112 5.87193912 -15 7 C-15 5.68 -15 4.36 -15 3 C-13.0636296 2.49564306 -11.12585854 1.99666126 -9.1875 1.5 C-8.10855469 1.2215625 -7.02960937 0.943125 -5.91796875 0.65625 C-3 0 -3 0 0 0 Z " fill="#132D45" transform="translate(43,18)"/>
<path d="M0 0 C-2.39509338 2.89932357 -4.31245243 3.50168276 -8 4 C-7.34 3.67 -6.68 3.34 -6 3 C-6 2.34 -6 1.68 -6 1 C-6.825 1.33 -7.65 1.66 -8.5 2 C-12.5873983 3.16782809 -15.76923344 3.1458885 -20 3 C-13.94869261 -1.03420492 -6.98194609 -1.51781437 0 0 Z " fill="#0F1825" transform="translate(49,17)"/>
<path d="M0 0 C0.99 0.33 1.98 0.66 3 1 C3 4.3 3 7.6 3 11 C3.66 11 4.32 11 5 11 C5 11.66 5 12.32 5 13 C3.35 13 1.7 13 0 13 C0 8.71 0 4.42 0 0 Z " fill="#A5A7AA" transform="translate(23,6)"/>
<path d="M0 0 C2 2 2 2 2.125 4.625 C2.08375 5.40875 2.0425 6.1925 2 7 C3.32 7.33 4.64 7.66 6 8 C3.69 8 1.38 8 -1 8 C-1.33 7.34 -1.66 6.68 -2 6 C-3.32 6.33 -4.64 6.66 -6 7 C-4.19587357 3.73539027 -3.16605307 2.11070205 0 0 Z " fill="#E8E8E9" transform="translate(43,38)"/>
<path d="M0 0 C0.66 0 1.32 0 2 0 C1.54705135 1.75140143 1.08741252 3.50107344 0.625 5.25 C0.36976562 6.22453125 0.11453125 7.1990625 -0.1484375 8.203125 C-0.90269673 10.68041679 -1.65166066 12.79362653 -3 15 C-5.125 15.75 -5.125 15.75 -7 16 C-6.505 15.62875 -6.01 15.2575 -5.5 14.875 C-3.7071742 13.03416301 -3.7071742 13.03416301 -4 10.1875 C-4 6.268816 -2.84087126 2.84087126 0 0 Z " fill="#0E3A5D" transform="translate(35,27)"/>
<path d="M0 0 C0.66 0 1.32 0 2 0 C2 3.63 2 7.26 2 11 C2.66 11 3.32 11 4 11 C4 11.66 4 12.32 4 13 C2.35 13 0.7 13 -1 13 C-2.17664871 9.47005387 -2.19850603 6.70544587 -2 3 C-1.34 2.01 -0.68 1.02 0 0 Z " fill="#373D47" transform="translate(17,48)"/>
<path d="M0 0 C1.65 0 3.3 0 5 0 C5 0.66 5 1.32 5 2 C4.34 2 3.68 2 3 2 C3 2.66 3 3.32 3 4 C3.66 4 4.32 4 5 4 C5 4.66 5 5.32 5 6 C4.34 6 3.68 6 3 6 C3 6.66 3 7.32 3 8 C3.66 8.33 4.32 8.66 5 9 C3.35 9 1.7 9 0 9 C0 6.03 0 3.06 0 0 Z " fill="#ABABAC" transform="translate(37,7)"/>
<path d="M0 0 C2.97 0 5.94 0 9 0 C9 2.31 9 4.62 9 7 C7.35 7 5.7 7 4 7 C3.67 6.01 3.34 5.02 3 4 C4.65 4 6.3 4 8 4 C8 3.34 8 2.68 8 2 C5.36 2 2.72 2 0 2 C0 1.34 0 0.68 0 0 Z " fill="#121A26" transform="translate(5,7)"/>
<path d="M0 0 C3.63 0 7.26 0 11 0 C9.68 0.33 8.36 0.66 7 1 C7 4.63 7 8.26 7 12 C6.34 12 5.68 12 5 12 C4.67 8.7 4.34 5.4 4 2 C2.68 2 1.36 2 0 2 C0 1.34 0 0.68 0 0 Z " fill="#101824" transform="translate(21,5)"/>
<path d="M0 0 C-6.75 4 -6.75 4 -9 4 C-9.33 4.99 -9.66 5.98 -10 7 C-11.65 7 -13.3 7 -15 7 C-11.01070672 2.52715601 -6.28600736 -2.09533579 0 0 Z " fill="#0E1F31" transform="translate(40,22)"/>
<path d="M0 0 C0.33 0 0.66 0 1 0 C1.19522373 2.58296017 1.38144403 5.16604079 1.5625 7.75 C1.61857422 8.47960938 1.67464844 9.20921875 1.73242188 9.9609375 C1.97709908 13.54953651 1.99666259 16.55027225 1 20 C0.34 20 -0.32 20 -1 20 C-0.67 13.4 -0.34 6.8 0 0 Z " fill="#D7D8DA" transform="translate(73,18)"/>
<path d="M0 0 C1.33735521 2.67471043 0.71006471 3.69340172 -0.1875 6.5 C-0.42855469 7.2940625 -0.66960937 8.088125 -0.91796875 8.90625 C-2.22818739 11.44154671 -3.37907206 12.00155126 -6 13 C-5.57674417 11.20491499 -5.13589265 9.4139717 -4.6875 7.625 C-4.44386719 6.62726562 -4.20023438 5.62953125 -3.94921875 4.6015625 C-3 2 -3 2 0 0 Z " fill="#E3E4E5" transform="translate(68,48)"/>
<path d="M0 0 C1.65 0 3.3 0 5 0 C5 1.65 5 3.3 5 5 C4.01 5 3.02 5 2 5 C1.67 7.31 1.34 9.62 1 12 C1.66 12.33 2.32 12.66 3 13 C2.01 13 1.02 13 0 13 C0 8.71 0 4.42 0 0 Z " fill="#7D7E80" transform="translate(15,8)"/>
<path d="M0 0 C0.33 0.99 0.66 1.98 1 3 C2.32 2.34 3.64 1.68 5 1 C4.4359146 4.94859783 3.2568294 7.70879046 1 11 C0.67 11 0.34 11 0 11 C0 7.37 0 3.74 0 0 Z " fill="#131C28" transform="translate(63,42)"/>
<path d="M0 0 C0.99 0.33 1.98 0.66 3 1 C4.6875 4.5625 4.6875 4.5625 6 8 C5.34 8 4.68 8 4 8 C4 9.32 4 10.64 4 12 C3.34 12 2.68 12 2 12 C1.34 8.04 0.68 4.08 0 0 Z " fill="#0E3D62" transform="translate(50,34)"/>
<path d="M0 0 C0 3.63 0 7.26 0 11 C-1.32 10.67 -2.64 10.34 -4 10 C-3.34 9.67 -2.68 9.34 -2 9 C-2.185625 8.38125 -2.37125 7.7625 -2.5625 7.125 C-3 5 -3 5 -2 3 C-3.32 2.67 -4.64 2.34 -6 2 C-2.25 0 -2.25 0 0 0 Z " fill="#1374B1" transform="translate(50,18)"/>
<path d="M0 0 C0.66 1.32 1.32 2.64 2 4 C0.35 5.32 -1.3 6.64 -3 8 C-3.66 6.02 -4.32 4.04 -5 2 C-3.35 1.34 -1.7 0.68 0 0 Z " fill="#152A40" transform="translate(27,21)"/>
<path d="M0 0 C0.66 0.33 1.32 0.66 2 1 C1.5206753 5.31392226 0.2542015 7.16569547 -3 10 C-3 8.68 -3 7.36 -3 6 C-3.66 6 -4.32 6 -5 6 C-5 5.34 -5 4.68 -5 4 C-3.68 4.33 -2.36 4.66 -1 5 C-0.67 3.35 -0.34 1.7 0 0 Z " fill="#106CAB" transform="translate(57,51)"/>
<path d="M0 0 C0.99 0 1.98 0 3 0 C2.25 5.75 2.25 5.75 0 8 C-0.66 8 -1.32 8 -2 8 C-2.125 5.125 -2.125 5.125 -2 2 C-1.34 1.34 -0.68 0.68 0 0 Z " fill="#1A8FCC" transform="translate(30,28)"/>
<path d="M0 0 C0.66 0 1.32 0 2 0 C3.1577506 3.47325181 3.06866652 6.36067448 3 10 C2.67 9.34 2.34 8.68 2 8 C1.01 8 0.02 8 -1 8 C-0.67 5.36 -0.34 2.72 0 0 Z " fill="#BFBFC0" transform="translate(54,7)"/>
<path d="M0 0 C-0.99 0.33 -1.98 0.66 -3 1 C-3 2.98 -3 4.96 -3 7 C-3.309375 6.360625 -3.61875 5.72125 -3.9375 5.0625 C-4.8345163 3.06389179 -4.8345163 3.06389179 -6 2 C-6.33 3.32 -6.66 4.64 -7 6 C-8.0625 4.125 -8.0625 4.125 -9 2 C-6.98558063 -2.02883874 -3.72407517 -0.90585612 0 0 Z " fill="#484D55" transform="translate(65,6)"/>
<path d="M0 0 C0.66 0.33 1.32 0.66 2 1 C0.19587357 4.26460973 -0.83394693 5.88929795 -4 8 C-4.66 6.35 -5.32 4.7 -6 3 C-4.68 3.33 -3.36 3.66 -2 4 C-2 3.01 -2 2.02 -2 1 C-1.34 0.67 -0.68 0.34 0 0 Z " fill="#252C37" transform="translate(23,57)"/>
<path d="M0 0 C2.31 0.33 4.62 0.66 7 1 C6.01 1.495 6.01 1.495 5 2 C5 2.66 5 3.32 5 4 C3.02 4 1.04 4 -1 4 C-1 4.66 -1 5.32 -1 6 C-1.66 6 -2.32 6 -3 6 C-2.67 5.01 -2.34 4.02 -2 3 C-1.34 2.67 -0.68 2.34 0 2 C0 1.34 0 0.68 0 0 Z " fill="#86898F" transform="translate(22,45)"/>
<path d="M0 0 C0.66 0 1.32 0 2 0 C4.21538462 6.27692308 4.21538462 6.27692308 3.125 9.9375 C2.568125 10.9584375 2.568125 10.9584375 2 12 C1.67 12 1.34 12 1 12 C0.67 8.04 0.34 4.08 0 0 Z " fill="#1E99D6" transform="translate(57,40)"/>
<path d="M0 0 C0.66 0.33 1.32 0.66 2 1 C1.34 3.64 0.68 6.28 0 9 C-0.99 9 -1.98 9 -3 9 C-2.5020163 5.26512223 -2.12508244 3.18762365 0 0 Z " fill="#0F588C" transform="translate(27,31)"/>
<path d="M0 0 C0.99 0.33 1.98 0.66 3 1 C3 1.99 3 2.98 3 4 C1.02 4.66 -0.96 5.32 -3 6 C-2.42655063 3.13275314 -2.1385485 2.1385485 0 0 Z " fill="#B9BABD" transform="translate(24,52)"/>
<path d="M0 0 C0.99 0 1.98 0 3 0 C3 1.98 3 3.96 3 6 C3.66 6.33 4.32 6.66 5 7 C4.34 7 3.68 7 3 7 C3 9.64 3 12.28 3 15 C2.67 15 2.34 15 2 15 C1.93941406 14.16855469 1.87882813 13.33710938 1.81640625 12.48046875 C1.73261719 11.39378906 1.64882812 10.30710937 1.5625 9.1875 C1.48128906 8.10855469 1.40007813 7.02960937 1.31640625 5.91796875 C1.09787539 2.94010095 1.09787539 2.94010095 0 0 Z " fill="#2D343E" transform="translate(11,15)"/>
<path d="M0 0 C0.66 0.66 1.32 1.32 2 2 C1.25 4.9375 1.25 4.9375 0 8 C-2.125 8.875 -2.125 8.875 -4 9 C-2.94124926 5.59687262 -1.99097846 2.98646769 0 0 Z " fill="#0E3C61" transform="translate(24,32)"/>
<path d="M0 0 C0.66 0 1.32 0 2 0 C1.67 0.99 1.34 1.98 1 3 C0.77674186 5.05893621 0.59294241 7.12233653 0.4375 9.1875 C0.35371094 10.27417969 0.26992187 11.36085938 0.18359375 12.48046875 C0.12300781 13.31191406 0.06242187 14.14335937 0 15 C-0.33 15 -0.66 15 -1 15 C-1 12.36 -1 9.72 -1 7 C-1.66 6.67 -2.32 6.34 -3 6 C-2.34 6 -1.68 6 -1 6 C-1.0309375 4.7934375 -1.0309375 4.7934375 -1.0625 3.5625 C-1 1 -1 1 0 0 Z " fill="#232A35" transform="translate(73,15)"/>
<path d="M0 0 C1.65 0 3.3 0 5 0 C5 0.99 5 1.98 5 3 C3.68 3 2.36 3 1 3 C1 4.98 1 6.96 1 9 C0.67 9 0.34 9 0 9 C0 6.03 0 3.06 0 0 Z " fill="#969799" transform="translate(66,6)"/>
<path d="M0 0 C0.33 0.66 0.66 1.32 1 2 C2.32 1.34 3.64 0.68 5 0 C5.33 1.32 5.66 2.64 6 4 C4.35 4 2.7 4 1 4 C0.67 4.99 0.34 5.98 0 7 C0 4.69 0 2.38 0 0 Z " fill="#131B27" transform="translate(50,16)"/>
<path d="M0 0 C0.33 0.66 0.66 1.32 1 2 C-5.0546875 2.9765625 -5.0546875 2.9765625 -7 3 C-7.66 2.34 -8.32 1.68 -9 1 C-2.25 -1.125 -2.25 -1.125 0 0 Z " fill="#A2A5A9" transform="translate(38,44)"/>
<path d="M0 0 C0.66 0.66 1.32 1.32 2 2 C1.625 4.625 1.625 4.625 1 7 C0.01 7.33 -0.98 7.66 -2 8 C-2.20086443 4.28400809 -2.1519437 3.22791555 0 0 Z " fill="#192839" transform="translate(16,27)"/>
<path d="M0 0 C1.98 0 3.96 0 6 0 C6 0.66 6 1.32 6 2 C4.02 2.66 2.04 3.32 0 4 C0 2.68 0 1.36 0 0 Z " fill="#1171B0" transform="translate(28,21)"/>
<path d="M0 0 C0.66 0 1.32 0 2 0 C1.34 2.97 0.68 5.94 0 9 C-0.33 9 -0.66 9 -1 9 C-1.09765625 2.84765625 -1.09765625 2.84765625 -1 1 C-0.67 0.67 -0.34 0.34 0 0 Z " fill="#212833" transform="translate(70,33)"/>
<path d="M0 0 C2.0625 0.4375 2.0625 0.4375 4 1 C3.67 1.66 3.34 2.32 3 3 C2.34 3 1.68 3 1 3 C0.67 4.32 0.34 5.64 0 7 C-1 6 -1 6 -1.125 3.5 C-1 1 -1 1 0 0 Z " fill="#BCBEC1" transform="translate(41,32)"/>
<path d="M0 0 C1.98 0 3.96 0 6 0 C6 0.99 6 1.98 6 3 C4.35 3 2.7 3 1 3 C0.67 2.01 0.34 1.02 0 0 Z " fill="#202833" transform="translate(8,11)"/>
</svg>
