<?xml version="1.0" encoding="UTF-8"?>
<svg version="1.1" xmlns="http://www.w3.org/2000/svg" width="900" height="383">
<path d="M0 0 C297 0 594 0 900 0 C900 126.39 900 252.78 900 383 C603 383 306 383 0 383 C0 256.61 0 130.22 0 0 Z " fill="#000000" transform="translate(0,0)"/>
<path d="M0 0 C13.7705454 -0.06986506 27.54104784 -0.12299531 41.31173515 -0.15543652 C47.70772489 -0.17101567 54.10359233 -0.19211064 60.49951172 -0.22631836 C66.68520414 -0.25919033 72.87077978 -0.2769111 79.05655289 -0.28463173 C81.4029537 -0.29012569 83.74934895 -0.30085217 86.09569931 -0.31719017 C107.99178891 -0.46343248 132.04990463 -0.45250378 149.26171875 15.03515625 C162.55339534 28.9850873 162.58794909 43.87693326 162.24606323 61.99781799 C161.95766938 72.18533477 160.17400343 82.06797554 158 92 C157.83983398 92.76425293 157.67966797 93.52850586 157.51464844 94.31591797 C155.21230871 105.07239053 151.55380356 114.66816837 143 122 C142.44957031 122.47953125 141.89914063 122.9590625 141.33203125 123.453125 C133.14581005 130.13713242 123.07040225 133.25960293 113 136 C113 136.33 113 136.66 113 137 C113.59425781 137.14695313 114.18851563 137.29390625 114.80078125 137.4453125 C124.99961408 140.20518328 136.56980226 145.01869938 142.25 154.4375 C145.93585229 161.94084217 146.33632871 168.11120305 146.3125 176.375 C146.32861328 177.45394531 146.34472656 178.53289062 146.36132812 179.64453125 C146.36624209 187.98844622 145.0903408 195.81800467 143.41183472 203.94671631 C142.73206951 207.3358206 142.1544931 210.74179641 141.5703125 214.1484375 C131.65026586 271.14916401 131.65026586 271.14916401 111.625 285.25 C90.34550709 298.50017494 62.80290552 296.29622594 38.69921875 296.1953125 C36.03879972 296.19157234 33.37839156 296.18863143 30.7179718 296.18673706 C24.49250939 296.18058996 18.26711958 296.16427379 12.04168874 296.14403808 C4.93856608 296.12146453 -2.16456057 296.11063246 -9.26771033 296.10064721 C-23.84517719 296.07989913 -38.42258758 296.04485921 -53 296 C-52.52682414 292.62995849 -52.05043485 289.26037862 -51.57348633 285.89086914 C-51.44025215 284.94166847 -51.30701797 283.9924678 -51.1697464 283.01450348 C-50.23584166 276.43195396 -49.09597761 269.93573067 -47.6875 263.4375 C-45.1634993 251.32483826 -43.1266517 239.14741428 -41.14331055 226.93725586 C-39.76992973 218.49991302 -38.29391036 210.09234651 -36.69628906 201.69458008 C-35.54142514 195.56675547 -34.49948857 189.42019401 -33.45117188 183.2734375 C-33.21043945 181.87351563 -33.21043945 181.87351563 -32.96484375 180.4453125 C-32.8268335 179.63594238 -32.68882324 178.82657227 -32.54663086 177.99267578 C-32.08579055 175.46968312 -31.59269844 172.9580846 -31.0847168 170.44433594 C-29.88018643 164.45721649 -28.7775806 158.45276663 -27.6796875 152.4453125 C-27.34989647 150.64602043 -27.34989647 150.64602043 -27.01344299 148.81037903 C-26.42197468 145.58223068 -25.83124572 142.35394822 -25.24091721 139.12559128 C-24.74998494 136.44150101 -24.25844829 133.75752155 -23.76692867 131.07353878 C-19.60655392 108.35429188 -15.46887144 85.63092931 -11.34567261 62.90490723 C-10.22371493 56.72210524 -9.09851017 50.53989656 -7.97181702 44.35795593 C-7.46444043 41.57364387 -6.95741725 38.78926751 -6.45043945 36.00488281 C-6.19376441 34.59567381 -5.93693093 33.18649366 -5.67993164 31.77734375 C-4.2333902 23.84499606 -2.80212749 15.91028559 -1.40405273 7.96923828 C-1.26789299 7.19673233 -1.13173325 6.42422638 -0.99144745 5.62831116 C-0.66079985 3.75223653 -0.33037588 1.8761225 0 0 Z " fill="#AC8A25" transform="translate(95,43)"/>
<path d="M0 0 C11.13015833 9.48497656 19.40650558 23.10941784 21.02734375 37.83203125 C22.09306825 53.9320835 19.37158565 69.97543999 16.35797119 85.74383545 C15.0678841 92.52771826 13.87161366 99.32717189 12.6796875 106.12890625 C8.36036325 130.73952136 4.02210057 155.34548088 -0.66378784 179.88952637 C-1.06916931 182.01309531 -1.47267932 184.13702262 -1.87405396 186.26135254 C-4.02974814 197.64657493 -6.38015501 208.97418687 -9.01953125 220.2578125 C-9.3720269 221.79783684 -9.3720269 221.79783684 -9.73164368 223.36897278 C-11.87205903 232.30880452 -15.30080008 239.95453498 -19.97265625 247.83203125 C-20.56175781 248.85425781 -21.15085937 249.87648438 -21.7578125 250.9296875 C-31.663207 267.33338181 -45.92455357 277.76349923 -62.97265625 285.83203125 C-63.98457031 286.31542969 -64.99648438 286.79882812 -66.0390625 287.296875 C-91.97228395 298.42077312 -124.85644183 298.50746041 -151.0234375 288.328125 C-166.35286452 281.37543405 -176.8619242 269.3707499 -182.97265625 253.83203125 C-183.4934375 252.65898437 -184.01421875 251.4859375 -184.55078125 250.27734375 C-192.12433406 229.71444684 -183.63749189 200.72400408 -179.97265625 179.83203125 C-179.58820471 177.6225889 -179.20393471 175.41311495 -178.81982422 173.20361328 C-176.13208216 157.78316861 -173.36030401 142.37866527 -170.54681396 126.98071289 C-170.0173018 124.07686748 -169.49138371 121.17240475 -168.96728516 118.26757812 C-165.94576211 101.53993293 -162.67360465 84.89593873 -158.84765625 68.33203125 C-158.68916199 67.63482971 -158.53066772 66.93762817 -158.36737061 66.21929932 C-154.25125264 48.23016017 -147.90757726 32.9896501 -135.97265625 18.83203125 C-135.33714844 18.001875 -134.70164062 17.17171875 -134.046875 16.31640625 C-104.63593223 -18.91025966 -36.9694525 -26.96195287 0 0 Z " fill="#AC8A25" transform="translate(445.97265625,51.16796875)"/>
<path d="M0 0 C1.20762749 -0.0049926 1.20762749 -0.0049926 2.43965149 -0.01008606 C4.13643833 -0.0151242 5.83323498 -0.01749535 7.5300293 -0.01733398 C10.08855081 -0.01951021 12.64663325 -0.03767093 15.20507812 -0.05664062 C35.32611434 -0.1266592 59.76974584 3.65904884 74.97265625 18.421875 C85.82033182 31.45658193 86.46442179 44.23335765 85.078125 60.6171875 C83.89363267 72.53178685 82.12057313 84.30442556 80.42578125 96.16796875 C56.66578125 96.16796875 32.90578125 96.16796875 8.42578125 96.16796875 C8.42578125 88.31989183 8.42578125 88.31989183 9.30078125 84.6015625 C9.4817334 83.79259521 9.66268555 82.98362793 9.84912109 82.15014648 C10.03941895 81.31040283 10.2297168 80.47065918 10.42578125 79.60546875 C12.16379557 71.45843273 13.48395758 63.52264003 12.42578125 55.16796875 C10.70351629 51.91946898 10.70351629 51.91946898 7.42578125 51.16796875 C2.86615579 50.79422896 0.39100203 50.71374721 -3.76171875 52.66796875 C-10.6940252 58.83001893 -13.97836854 67.00394947 -14.74267578 76.19335938 C-15.32339041 87.03012605 -14.99686764 95.63899784 -7.57421875 104.16796875 C-1.13520948 109.69641106 5.83717723 114.51859222 12.92578125 119.16796875 C22.99295019 125.77163841 32.3811585 132.97387361 41.2265625 141.1640625 C43.09436366 142.86598434 45.00273028 144.4220157 46.98828125 145.98046875 C57.45029828 154.90541219 63.50589057 166.7600934 65.42578125 180.16796875 C65.66788931 184.15245279 65.66160398 188.11502833 65.61328125 192.10546875 C65.61231445 193.61657227 65.61231445 193.61657227 65.61132812 195.15820312 C65.54750175 206.18598212 64.33188543 216.68287338 62.11328125 227.48046875 C61.77562744 229.13067017 61.77562744 229.13067017 61.43115234 230.81420898 C56.62090304 253.9023829 49.87920031 276.26758687 29.42578125 290.16796875 C2.34589606 307.14341917 -31.7004089 314.14377853 -63.22216797 307.78442383 C-79.97167011 303.8162785 -97.54241803 295.79767813 -107.57421875 281.16796875 C-118.49596988 262.82654973 -114.65557226 236.76341717 -111.00634766 216.5625 C-110.56030273 214.09085668 -110.14836229 211.61520404 -109.7421875 209.13671875 C-107.77679337 197.37054337 -107.77679337 197.37054337 -106.57421875 196.16796875 C-104.36554044 196.0736389 -102.15380354 196.05054444 -99.94311523 196.05444336 C-99.2504657 196.05429733 -98.55781616 196.05415131 -97.84417725 196.05400085 C-95.54452429 196.05470001 -93.24495138 196.06249247 -90.9453125 196.0703125 C-89.35490463 196.07217667 -87.76449618 196.07360058 -86.17408752 196.07460022 C-81.98025945 196.07842546 -77.7864658 196.0882558 -73.59265137 196.0993042 C-69.31632961 196.10951818 -65.04000231 196.11409781 -60.76367188 196.11914062 C-52.36717167 196.12987806 -43.97069949 196.14695456 -35.57421875 196.16796875 C-35.71127345 198.37310573 -35.85429405 200.57787234 -35.99975586 202.7824707 C-36.07874619 204.01028763 -36.15773651 205.23810455 -36.23912048 206.50312805 C-36.73302325 211.90475238 -37.92558089 217.07800355 -39.13671875 222.35546875 C-40.83600994 230.28189412 -42.06073322 237.92388436 -42.07421875 246.04296875 C-42.0801001 246.82696045 -42.08598145 247.61095215 -42.09204102 248.41870117 C-42.02617089 251.34353122 -41.90770735 253.61613745 -40.375 256.15234375 C-36.48829095 258.34441393 -31.87437955 257.59983569 -27.57421875 257.16796875 C-22.6463157 255.70784933 -20.24026457 253.21689328 -17.73828125 248.8828125 C-13.24855472 238.411806 -11.40257566 226.54597379 -11.26171875 215.23046875 C-11.23271484 214.45767578 -11.20371094 213.68488281 -11.17382812 212.88867188 C-11.09598551 205.80499351 -13.12102312 201.83257799 -17.9765625 196.55859375 C-18.83378906 195.7696875 -19.69101562 194.98078125 -20.57421875 194.16796875 C-21.46238281 193.3171875 -22.35054687 192.46640625 -23.265625 191.58984375 C-30.04993946 185.27627764 -37.08878704 179.64650581 -44.57421875 174.16796875 C-86.28423857 142.68870851 -86.28423857 142.68870851 -90.19921875 119.0925293 C-90.81378478 114.29963445 -90.95720294 109.55890796 -90.94921875 104.73046875 C-90.94760742 103.69349854 -90.94599609 102.65652832 -90.94433594 101.58813477 C-90.78611144 91.44237671 -89.02906894 81.97874087 -86.57421875 72.16796875 C-86.25831876 70.81919656 -85.94317488 69.47024698 -85.62890625 68.12109375 C-79.97592049 45.22412622 -69.64917722 26.18114869 -49.40332031 13.26660156 C-34.99183178 4.61047524 -16.71066537 0.02455147 0 0 Z " fill="#AC8A25" transform="translate(770.57421875,36.83203125)"/>
<path d="M0 0 C0.72835556 -0.01270935 1.45671112 -0.0254187 2.20713806 -0.03851318 C27.72035054 -0.3971357 53.90940095 1.02042756 73.9296875 19.1484375 C81.56542506 28.36899689 84.07979454 37.26913062 83.8046875 49.0859375 C83.82692383 50.76139648 83.82692383 50.76139648 83.84960938 52.47070312 C83.71318885 67.40473842 80.52873905 81.32181788 78.1171875 96.2734375 C54.3571875 96.2734375 30.5971875 96.2734375 6.1171875 96.2734375 C6.73052231 90.75342419 7.285948 86.44951679 8.640625 81.2734375 C10.15361213 74.92385218 10.27708454 68.39787026 10.4296875 61.8984375 C10.45949707 61.19589844 10.48930664 60.49335937 10.52001953 59.76953125 C10.55644006 56.56452466 10.55930721 54.76391405 8.3671875 52.33203125 C4.54629833 50.53435597 1.23709751 50.4313613 -2.8828125 51.2734375 C-8.62424706 54.33478835 -11.64121259 59.3517536 -13.8828125 65.2734375 C-15.66443785 71.44747446 -16.24742333 77.43101561 -16.2578125 83.8359375 C-16.29455078 85.03379883 -16.29455078 85.03379883 -16.33203125 86.25585938 C-16.36647527 93.29966214 -14.40903988 98.31895443 -9.83203125 103.671875 C-4.50130952 108.33050228 1.03193158 112.34093828 6.94995117 116.1953125 C20.62971762 125.12848339 33.43740653 134.84393755 45.1171875 146.2734375 C45.89578125 147.00175781 46.674375 147.73007813 47.4765625 148.48046875 C55.09858878 155.74431711 59.65396396 163.01295959 62.1171875 173.2734375 C62.28919678 173.84143066 62.46120605 174.40942383 62.63842773 174.99462891 C63.81708253 180.60480934 63.36244188 186.61167796 63.3671875 192.3359375 C63.36786224 193.06062225 63.36853699 193.78530701 63.36923218 194.5319519 C63.35345994 205.18764668 62.8538804 215.47027803 60.61328125 225.9140625 C60.05532376 228.56765559 59.57131729 231.23064634 59.0859375 233.8984375 C55.20112448 254.35113353 48.10278864 275.17480305 30.72265625 288.046875 C14.74683996 298.63354786 -2.77049476 306.01336908 -21.8828125 308.2734375 C-22.58688232 308.35956299 -23.29095215 308.44568848 -24.01635742 308.53442383 C-30.83242516 309.3025567 -37.59015348 309.45680041 -44.4453125 309.4609375 C-45.51716797 309.47318359 -46.58902344 309.48542969 -47.69335938 309.49804688 C-54.05588448 309.50972123 -59.75128747 308.9553776 -65.8828125 307.2734375 C-67.04425781 306.98984375 -68.20570313 306.70625 -69.40234375 306.4140625 C-81.37085549 303.1770273 -91.51747594 298.46358704 -100.8828125 290.2734375 C-101.50929688 289.74105469 -102.13578125 289.20867187 -102.78125 288.66015625 C-111.89733637 280.32033051 -115.69886126 269.6323868 -116.25390625 257.54296875 C-116.65132263 236.42899198 -113.01006448 216.9096974 -108.8828125 196.2734375 C-85.1228125 196.2734375 -61.3628125 196.2734375 -36.8828125 196.2734375 C-38.12621872 207.46409348 -39.50596004 218.39544617 -42.19921875 229.3359375 C-43.44956168 234.70883968 -44.06072174 239.8149869 -44.1328125 245.3359375 C-44.15859375 246.52316406 -44.184375 247.71039063 -44.2109375 248.93359375 C-43.84787541 252.62904717 -43.33881905 254.48511717 -40.8828125 257.2734375 C-35.75331527 258.39852203 -30.49241106 257.6831535 -25.4453125 256.3984375 C-17.19230687 249.55448161 -15.11608217 236.55836502 -14.07324219 226.46289062 C-13.70905345 222.27565393 -13.4954368 218.09971228 -13.3828125 213.8984375 C-13.3401123 213.06683105 -13.29741211 212.23522461 -13.25341797 211.37841797 C-13.17988894 204.69529804 -15.44097019 201.12709268 -19.8828125 196.2734375 C-20.40568848 195.68844482 -20.92856445 195.10345215 -21.46728516 194.50073242 C-29.3375792 185.93951397 -39.58524494 179.25384473 -48.80712891 172.24804688 C-66.68302639 158.66501821 -66.68302639 158.66501821 -72.8828125 153.2734375 C-73.66527344 152.60957031 -74.44773437 151.94570312 -75.25390625 151.26171875 C-84.52278348 142.80562671 -91.15417531 130.67106252 -92.13061523 118.07739258 C-92.29941348 114.20387587 -92.37454961 110.33748553 -92.3828125 106.4609375 C-92.385159 105.76046295 -92.38750549 105.0599884 -92.3899231 104.33828735 C-92.35173899 76.56033412 -85.06893361 45.34419143 -65.6953125 24.4609375 C-48.03092085 7.96190502 -23.83634063 0.37976585 0 0 Z " fill="#AC8A25" transform="translate(577.8828125,36.7265625)"/>
<path d="M0 0 C1.15628906 -0.05607422 1.15628906 -0.05607422 2.3359375 -0.11328125 C5.58627882 0.49130442 6.59721103 1.72351579 8.625 4.3125 C11.16443808 18.64764458 6.5678286 34.3173013 3.8125 48.3125 C3.35465927 50.69242783 2.89827053 53.07263546 2.44335938 55.453125 C1.56738052 60.0317207 0.68497053 64.60900314 -0.20166016 69.18554688 C-1.43694309 75.59410764 -2.58717401 82.01488735 -3.7019043 88.4453125 C-4.40735709 92.49840362 -5.13662039 96.54655999 -5.875 100.59375 C-5.99892624 101.2736499 -6.12285248 101.9535498 -6.25053406 102.65405273 C-6.74976739 105.39105814 -7.24990499 108.12789802 -7.75 110.86474609 C-8.99428711 117.67754208 -10.23500048 124.49062297 -11.42977905 131.31230164 C-13.27681078 141.85613393 -15.1948933 152.38624648 -17.171875 162.90649414 C-17.55814161 164.97337937 -17.93995981 167.04110075 -18.31738281 169.10961914 C-24.05201429 200.50400278 -24.05201429 200.50400278 -30 206.6875 C-34.66882466 208.93545261 -39.28611611 209.47088016 -44.375 208.3125 C-46.61710409 206.04592684 -47.32769431 204.65677045 -47.76464844 201.47680664 C-47.67522767 191.68018414 -46.34408946 182.37456895 -44.625 172.75 C-44.34848742 171.15476024 -44.0727781 169.55938105 -43.79785156 167.96386719 C-43.00853818 163.41006914 -42.19638974 158.86061017 -41.375 154.3125 C-41.16230469 153.13252441 -40.94960938 151.95254883 -40.73046875 150.73681641 C-38.00054338 135.73847642 -38.00054338 135.73847642 -36.40893555 129.56591797 C-35.37362139 125.45461017 -34.63720703 121.33356194 -33.97265625 117.1484375 C-33.78780922 116.01663559 -33.78780922 116.01663559 -33.59922791 114.86196899 C-33.07943106 111.6788061 -32.56734584 108.49441691 -32.05493164 105.31005859 C-30.61608322 96.39675671 -29.04844599 87.56599388 -27.09594727 78.74755859 C-25.78780642 72.51473038 -24.81811202 66.22495432 -23.8125 59.9375 C-21.50798794 45.53965066 -21.50798794 45.53965066 -20.30859375 40.9140625 C-19.46574497 37.66257054 -18.86256589 34.48401381 -18.33666992 31.17333984 C-14.75383353 8.70981303 -14.75383353 8.70981303 -6.375 1.3125 C-4.07513269 0.16256634 -2.56030912 0.0808071 0 0 Z " fill="#020201" transform="translate(382.375,86.6875)"/>
<path d="M0 0 C2.37662822 0.0876873 4.74983127 0.19463114 7.125 0.3125 C7.79015625 0.33505859 8.4553125 0.35761719 9.140625 0.38085938 C13.90347696 0.63767982 18.49501828 1.49501828 22 5 C24.0727058 25.93432857 20.82134663 61.06885038 7 78 C1.32029363 83.01150562 -7.77237248 83.05311216 -15 83 C-13.71226476 71.40244 -11.80105089 60.01149558 -9.5625 48.5625 C-8.95756148 45.4392008 -8.35555543 42.31534053 -7.75390625 39.19140625 C-7.60650497 38.42937393 -7.4591037 37.66734161 -7.30723572 36.88221741 C-6.14725852 30.85476251 -5.06521031 24.81540937 -4.03370667 18.7646637 C-2.94431226 12.44578257 -1.52690849 6.22675449 0 0 Z " fill="#020201" transform="translate(143,206)"/>
<path d="M0 0 C2.22855574 -0.0814222 4.45797655 -0.13938079 6.6875 -0.1875 C8.54955078 -0.23970703 8.54955078 -0.23970703 10.44921875 -0.29296875 C15.13360362 0.09353165 17.47859705 1.50855903 20.78515625 4.75 C26.28330075 14.93305862 20.59767455 32.48520238 18 43 C17.71116943 44.17151611 17.71116943 44.17151611 17.41650391 45.36669922 C13.85688608 59.28697577 13.85688608 59.28697577 7 64 C3.42894576 65.50245575 -0.42240629 65.09794068 -4.25 65.0625 C-5.51328125 65.05347656 -6.7765625 65.04445313 -8.078125 65.03515625 C-9.52445313 65.01775391 -9.52445313 65.01775391 -11 65 C-10.03308088 55.40714457 -8.7284584 45.92478047 -7 36.4375 C-6.8340332 35.52274902 -6.66806641 34.60799805 -6.49707031 33.66552734 C-5.76325653 29.72470223 -4.98499116 25.82168534 -3.9765625 21.94140625 C-2.8292215 17.50528301 -2.09674389 13.02194641 -1.375 8.5 C-1.2409375 7.67757812 -1.106875 6.85515625 -0.96875 6.0078125 C-0.64282404 4.0056959 -0.32098005 2.00291548 0 0 Z " fill="#010101" transform="translate(163,94)"/>
<path d="M0 0 C23.43 0 46.86 0 71 0 C69.875 15.75 69.875 15.75 68 22 C67.67 22 67.34 22 67 22 C66.72470152 14.84223954 67.76508567 9.40948599 69 2 C46.56 2 24.12 2 1 2 C0.34 4.97 -0.32 7.94 -1 11 C-2 7 -2 7 0 0 Z " fill="#84753C" transform="translate(664,233)"/>
<path d="M0 0 C23.76 0 47.52 0 72 0 C71.67 2.97 71.34 5.94 71 9 C70.67 9 70.34 9 70 9 C70 6.69 70 4.38 70 2 C47.56 2 25.12 2 2 2 C1.67 4.97 1.34 7.94 1 11 C0.67 11.66 0.34 12.32 0 13 C-0.22467831 14.53668865 -0.40796805 16.07968054 -0.5625 17.625 C-0.64628906 18.44226563 -0.73007812 19.25953125 -0.81640625 20.1015625 C-0.87699219 20.72804687 -0.93757813 21.35453125 -1 22 C-3 20 -3 20 -3.046875 17.96875 C-2.94890625 17.1540625 -2.8509375 16.339375 -2.75 15.5 C-2.66234375 14.7059375 -2.5746875 13.911875 -2.484375 13.09375 C-1.79721078 8.70476561 -0.87123649 4.35618246 0 0 Z " fill="#86773C" transform="translate(469,233)"/>
<path d="M0 0 C0.33 0 0.66 0 1 0 C0.88494258 2.83404585 0.75822275 5.66679619 0.625 8.5 C0.5940625 9.29148437 0.563125 10.08296875 0.53125 10.8984375 C0.49257813 11.68476563 0.45390625 12.47109375 0.4140625 13.28125 C0.36693115 14.34956055 0.36693115 14.34956055 0.31884766 15.43945312 C-0.1308804 19.05105182 -1.09989481 22.4733478 -2 26 C-0.73784668 25.98747192 0.52430664 25.97494385 1.82470703 25.96203613 C13.82559536 25.84307166 25.82649553 25.72537027 37.82740784 25.60884857 C43.99448258 25.5489309 50.16155261 25.48859603 56.32861328 25.42724609 C62.30034421 25.36785568 68.27208564 25.30964155 74.24383545 25.25218201 C76.5015299 25.23026371 78.75922055 25.2079491 81.01690674 25.18519592 C96.3450979 25.03106901 111.67103702 24.97046105 127 25 C127 25.33 127 25.66 127 26 C119.22262608 26.84566724 111.55536637 27.13949599 103.7355957 27.11352539 C102.56356094 27.11367142 101.39152618 27.11381744 100.18397522 27.1139679 C96.34789109 27.1132767 92.5118568 27.10552173 88.67578125 27.09765625 C86.00107237 27.09578925 83.32636617 27.09431742 80.6516571 27.09336853 C74.35505601 27.09027513 68.05847253 27.08208889 61.76187915 27.07201904 C54.58643051 27.06079568 47.41098098 27.05533185 40.23552573 27.05032361 C25.49034153 27.03990436 10.74517107 27.02234393 -4 27 C-3.52200865 23.62483247 -3.0423961 20.24989719 -2.5625 16.875 C-2.36043945 15.44800781 -2.36043945 15.44800781 -2.15429688 13.9921875 C-1.48888877 9.3181013 -0.8067161 4.65232392 0 0 Z " fill="#A08C46" transform="translate(46,312)"/>
<path d="M0 0 C0.33 0 0.66 0 1 0 C1 3.3 1 6.6 1 10 C23.44 10 45.88 10 69 10 C69.66 6.7 70.32 3.4 71 0 C72 4 72 4 71 12 C47.24 12 23.48 12 -1 12 C-1 4.125 -1 4.125 0 0 Z " fill="#80723C" transform="translate(780,121)"/>
<path d="M0 0 C13.83964428 -0.04692784 27.67927605 -0.08195653 41.51898384 -0.10362434 C47.94644062 -0.11402776 54.37384367 -0.12812369 60.80126953 -0.15087891 C67.01287229 -0.17273052 73.2244236 -0.18459447 79.43606186 -0.18975449 C81.79692265 -0.19342823 84.15778086 -0.20060167 86.51861954 -0.21146011 C110.25381793 -0.316211 110.25381793 -0.316211 122 2 C122 2.33 122 2.66 122 3 C116.39 3 110.78 3 105 3 C105 2.67 105 2.34 105 2 C71.01 1.67 37.02 1.34 2 1 C1.67 4.63 1.34 8.26 1 12 C0.69424388 14.00440123 0.37691162 16.00775284 0 18 C-0.66 18 -1.32 18 -2 18 C-2.33 18.99 -2.66 19.98 -3 21 C-2 14 -1 7 0 0 Z " fill="#918042" transform="translate(95,43)"/>
<path d="M0 0 C0.33 0 0.66 0 1 0 C0.8567257 2.770986 0.71041993 5.54176105 0.5625 8.3125 C0.50352539 9.46202148 0.50352539 9.46202148 0.44335938 10.63476562 C0.21419856 14.88305462 -0.09423349 19.10923461 -0.5078125 23.34375 C-2.14205816 40.96860333 -2.76214224 57.22369232 6.69921875 72.796875 C8 75 8 75 8 77 C8.66 77 9.32 77 10 77 C9.67 77.99 9.34 78.98 9 80 C4.91867547 74.24533242 1.5830248 68.56826306 -1 62 C-1.78503906 60.26363281 -1.78503906 60.26363281 -2.5859375 58.4921875 C-4.62221095 52.98576205 -4.48790773 47.49657065 -4.4375 41.6875 C-4.43427734 40.52500732 -4.43105469 39.36251465 -4.42773438 38.16479492 C-4.22718988 25.27203127 -2.2693916 12.67026682 0 0 Z " fill="#89793C" transform="translate(264,243)"/>
<path d="M0 0 C0.33 0 0.66 0 1 0 C1.28429302 13.78821133 0.82186424 26.62347517 -3 40 C20.1 40 43.2 40 67 40 C67 40.33 67 40.66 67 41 C43.24 41 19.48 41 -5 41 C-4.38533063 35.46797567 -3.85252001 31.37817549 -2.48144531 26.25 C-1.44486204 21.40560271 -1.23486814 16.43196334 -0.875 11.5 C-0.78863281 10.39140625 -0.70226562 9.2828125 -0.61328125 8.140625 C-0.40277926 5.42748819 -0.19851016 2.71403606 0 0 Z " fill="#5F5736" transform="translate(589,92)"/>
<path d="M0 0 C0.33 0 0.66 0 1 0 C0.99476318 0.71953857 0.98952637 1.43907715 0.98413086 2.18041992 C0.94043893 9.08982819 0.93897107 15.99780537 0.98339844 22.90722656 C0.99292834 24.68259173 0.99699576 26.45804588 0.98535156 28.23339844 C0.93493668 38.50122956 4.8784619 46.80735376 9 56 C9.33 56.99 9.66 57.98 10 59 C10.639375 59.309375 11.27875 59.61875 11.9375 59.9375 C14.50051718 61.25784218 14.7407337 62.4814674 16 65 C16.66 65.33 17.32 65.66 18 66 C20.49016793 67.24508396 20.98686718 68.46716796 22 71 C13.867515 66.9337575 8.83222909 60.31937901 4.625 52.5 C4.29137451 51.88350586 3.95774902 51.26701172 3.61401367 50.63183594 C-1.04582468 41.55407323 -1.29245017 32.98532838 -1.20581055 22.99926758 C-1.18745677 20.80733684 -1.18530204 18.61582806 -1.18554688 16.42382812 C-1.14489458 4.79371071 -1.14489458 4.79371071 0 0 Z " fill="#82743C" transform="translate(487,121)"/>
<path d="M0 0 C28.5720324 -0.76705027 51.79890171 0.01320367 77 15 C77 15.99 77 16.98 77 18 C76.505 17.01 76.505 17.01 76 16 C74.35380887 15.28426473 72.68261855 14.62531356 71 14 C69.30946981 13.21482484 67.62209394 12.42283182 65.9375 11.625 C49.53299299 4.1783613 33.37637797 1.58643838 15.5625 1.3125 C14.04098859 1.27920831 12.51950312 1.2447085 10.99804688 1.20898438 C7.33222295 1.12546921 3.66632649 1.05804295 0 1 C0 0.67 0 0.34 0 0 Z " fill="#8C7C40" transform="translate(570,37)"/>
<path d="M0 0 C4.82261384 7.23392075 4.28925455 16.53471667 4.1875 24.9375 C4.18685547 25.94490234 4.18621094 26.95230469 4.18554688 27.99023438 C4.12819501 37.89936195 3.36841845 47.36843162 1 57 C0.67 57 0.34 57 0 57 C-0.0278024 55.37510429 -0.0467446 53.75005717 -0.0625 52.125 C-0.07410156 51.22007812 -0.08570313 50.31515625 -0.09765625 49.3828125 C-0.01843385 46.63854857 0.19514132 44.01268202 0.49609375 41.2890625 C1.06035861 35.93130493 1.15170449 30.63381594 1.125 25.25 C1.12306641 24.29786621 1.12113281 23.34573242 1.11914062 22.36474609 C1.07355298 14.87444266 0.71281492 7.45909894 0 0 Z " fill="#A68E3D" transform="translate(832,204)"/>
<path d="M0 0 C5.603631 0.0456973 9.32567219 0.59626237 13.984375 3.6953125 C19.31725232 9.85965994 17.69253336 19.31418177 17.3125 26.85546875 C16.94166928 30.97323487 16.01672963 33.21492509 13.4375 36.375 C13.5096875 35.7665625 13.581875 35.158125 13.65625 34.53125 C14.27411601 28.69584875 14.62051293 22.86468516 14.75 17 C14.79447266 15.98389648 14.79447266 15.98389648 14.83984375 14.94726562 C14.88206291 11.39733801 14.51092599 9.49179272 12.60546875 6.4609375 C8.91993025 2.91485181 5.17325943 3.12867262 0.25 2.8125 C-1.02230469 2.72871094 -2.29460937 2.64492187 -3.60546875 2.55859375 C-4.58128906 2.49800781 -5.55710938 2.43742187 -6.5625 2.375 C-6.8925 3.695 -7.2225 5.015 -7.5625 6.375 C-7.605221 4.70888095 -7.60313832 3.04117115 -7.5625 1.375 C-5.65851112 -0.52898888 -2.54204559 0.07008821 0 0 Z " fill="#917F3D" transform="translate(169.5625,91.625)"/>
<path d="M0 0 C0.33 0 0.66 0 1 0 C0.55972998 10.34634542 -0.09898949 20.60800684 -1.26464844 30.89892578 C-2.18669928 39.24783523 -2.61915702 47.61143218 -3 56 C-3.33 56 -3.66 56 -4 56 C-4.34755772 38.99818925 -4.05476058 22.76633024 -1 6 C-0.66489092 4.00029677 -0.33072956 2.00043222 0 0 Z " fill="#8D7C3D" transform="translate(661,245)"/>
<path d="M0 0 C4.72006844 4.72006844 4.25872769 10.90986094 4.2734375 17.18359375 C4.26570312 18.31925781 4.25796875 19.45492187 4.25 20.625 C4.25773438 21.73746094 4.26546875 22.84992188 4.2734375 23.99609375 C4.25593351 31.5140572 3.46655895 38.6287874 2 46 C1.67 46 1.34 46 1 46 C1.00523682 44.9262915 1.01047363 43.85258301 1.01586914 42.74633789 C1.03410016 38.72632699 1.04549758 34.70631967 1.05493164 30.6862793 C1.05993075 28.95320011 1.06673224 27.22012507 1.07543945 25.48706055 C1.08770027 22.98224862 1.09327266 20.47749292 1.09765625 17.97265625 C1.10281754 17.20977798 1.10797882 16.44689972 1.11329651 15.66090393 C1.11383644 10.3703667 0.65827807 5.25028011 0 0 Z " fill="#927F3C" transform="translate(237,199)"/>
<path d="M0 0 C0.99 0.33 1.98 0.66 3 1 C5.02124128 5.48335734 5.38525602 9.83355575 5.375 14.6875 C5.37483887 15.41573975 5.37467773 16.14397949 5.37451172 16.89428711 C5.19455447 25.82111355 3.14967821 34.3721324 1 43 C0.80889648 43.77069824 0.61779297 44.54139648 0.42089844 45.33544922 C-0.04958123 47.22442095 -0.52433236 49.11232799 -1 51 C-1.66 50.67 -2.32 50.34 -3 50 C-2.80664062 49.36835938 -2.61328125 48.73671875 -2.4140625 48.0859375 C0.84150651 36.90096278 2.17109618 26.0426736 2.25 14.4375 C2.25926514 13.580354 2.26853027 12.72320801 2.27807617 11.84008789 C2.25593647 7.44991525 2.05731167 3.99216431 0 0 Z " fill="#86763C" transform="translate(562,236)"/>
<path d="M0 0 C0.33 0 0.66 0 1 0 C1.35702282 8.07929427 0.74624442 15.16918437 -1.27734375 23 C-1.90969083 25.62509489 -2.28101171 28.06622863 -2.5 30.75 C-2.90807201 35.42980449 -4.35430553 39.62183171 -6 44 C-6.90829897 41.03156405 -7.02048967 38.92060939 -6.47094727 35.87402344 C-6.33072647 35.07349548 -6.19050568 34.27296753 -6.04603577 33.44818115 C-5.80861916 32.16672211 -5.80861916 32.16672211 -5.56640625 30.859375 C-5.33122536 29.53610199 -5.33122536 29.53610199 -5.09129333 28.18609619 C-4.58942862 25.3726136 -4.07612261 22.56135739 -3.5625 19.75 C-3.21994682 17.84128141 -2.87814096 15.93242854 -2.53710938 14.0234375 C-1.70006552 9.34735678 -0.85275561 4.67323988 0 0 Z " fill="#86773C" transform="translate(389,112)"/>
<path d="M0 0 C0.33 0 0.66 0 1 0 C0.88481642 2.66740923 0.75810454 5.33347241 0.625 8 C0.5940625 8.74378906 0.563125 9.48757812 0.53125 10.25390625 C0.26144555 15.4251582 -0.67195691 19.9970285 -2 25 C-2.53993478 28.31085009 -2.99156616 31.62462273 -3.4375 34.94921875 C-3.97467076 37.86262403 -4.79840897 40.30142682 -6 43 C-7.00048896 39.83944635 -6.95669255 37.63521206 -6.328125 34.39453125 C-6.15958008 33.50072754 -5.99103516 32.60692383 -5.81738281 31.68603516 C-5.63014648 30.73776855 -5.44291016 29.78950195 -5.25 28.8125 C-4.87455602 26.83732392 -4.49956163 24.86206234 -4.125 22.88671875 C-3.93550781 21.90106934 -3.74601562 20.91541992 -3.55078125 19.89990234 C-2.7433292 15.64861004 -1.99345433 11.38787122 -1.25 7.125 C-1.00527293 5.73175949 -0.76048818 4.3385291 -0.515625 2.9453125 C-0.34546875 1.97335938 -0.1753125 1.00140625 0 0 Z " fill="#85763B" transform="translate(69,186)"/>
<path d="M0 0 C6.36703748 -0.42446917 11.96625075 0.98527058 18 3 C18.33 3.33 18.66 3.66 19 4 C25.74081755 5.30561029 32.59236464 5.33470226 39.4375 5.5625 C40.64599609 5.60568359 41.85449219 5.64886719 43.09960938 5.69335938 C46.06630606 5.79889404 49.03307902 5.90100714 52 6 C52 6.33 52 6.66 52 7 C12.59639397 8.39759598 12.59639397 8.39759598 0 0 Z " fill="#726738" transform="translate(692,339)"/>
<path d="M0 0 C0.33 0 0.66 0 1 0 C0.26457036 15.2969366 -4.14154652 32.8941787 -14 45 C-13.36732755 41.17615551 -12.23252235 37.92424639 -10.6875 34.375 C-5.90552611 23.06590658 -2.63769694 11.96784833 0 0 Z " fill="#8E7E40" transform="translate(636,265)"/>
<path d="M0 0 C5.45989947 -0.28240859 10.05465561 0.15112565 15.375 1.4375 C24.17681203 3.48353525 32.99426988 3.72157124 42 4 C42 4.33 42 4.66 42 5 C38.0208966 5.05868218 34.04190647 5.0938239 30.0625 5.125 C28.94552734 5.14175781 27.82855469 5.15851563 26.67773438 5.17578125 C20.1455216 5.21409335 14.29281626 4.75726454 8 3 C6.69869141 2.68675781 6.69869141 2.68675781 5.37109375 2.3671875 C3.58072917 1.91145833 1.79036458 1.45572917 0 1 C0 0.67 0 0.34 0 0 Z " fill="#7C6E3A" transform="translate(504,341)"/>
<path d="M0 0 C0 0.33 0 0.66 0 1 C-14.63306997 4.4673565 -29.02568018 4.32275808 -44 4 C-44 3.67 -44 3.34 -44 3 C-43.31373535 2.97494385 -42.6274707 2.9498877 -41.92041016 2.92407227 C-38.82174183 2.80828573 -35.72339077 2.68548115 -32.625 2.5625 C-31.54476563 2.52318359 -30.46453125 2.48386719 -29.3515625 2.44335938 C-27.8046875 2.38051758 -27.8046875 2.38051758 -26.2265625 2.31640625 C-25.27346191 2.27974854 -24.32036133 2.24309082 -23.33837891 2.20532227 C-20.97867651 2.14236535 -20.97867651 2.14236535 -19 1 C-12.70238618 -0.09936793 -6.37255715 -0.11973489 0 0 Z " fill="#7C6F3A" transform="translate(365,342)"/>
<path d="M0 0 C0.33 0 0.66 0 1 0 C1.05469084 2.0205228 1.09310129 4.04148888 1.125 6.0625 C1.14820313 7.18785156 1.17140625 8.31320313 1.1953125 9.47265625 C0.98536968 13.26422365 0.08311717 16.36837186 -1 20 C-1.47403451 22.63480344 -1.80681595 25.27988076 -2.125 27.9375 C-2.21136719 28.62134766 -2.29773438 29.30519531 -2.38671875 30.00976562 C-2.59602285 31.67257046 -2.79871722 33.33620513 -3 35 C-5 33 -5 33 -5.04907227 31.04345703 C-4.95166748 30.24794434 -4.8542627 29.45243164 -4.75390625 28.6328125 C-4.64449707 27.73723633 -4.53508789 26.84166016 -4.42236328 25.91894531 C-3.69405309 20.88560619 -2.83852915 15.88000999 -1.9375 10.875 C-1.75123047 9.823125 -1.56496094 8.77125 -1.37304688 7.6875 C-0.91867754 5.12439092 -0.46094303 2.56193355 0 0 Z " fill="#8F7C3B" transform="translate(274,186)"/>
<path d="M0 0 C0.33 0 0.66 0 1 0 C0.76083243 9.33949356 -0.02475591 18.341033 -1.9375 27.5 C-2.10733398 28.33055908 -2.27716797 29.16111816 -2.45214844 30.0168457 C-2.89541308 32.02863396 -3.43881916 34.01786691 -4 36 C-4.99 36.495 -4.99 36.495 -6 37 C-5.20366578 28.24032359 -3.57746544 19.64508876 -2 11 C-1.78859375 9.83082031 -1.5771875 8.66164062 -1.359375 7.45703125 C-0.90909118 4.97082132 -0.45623225 2.48512391 0 0 Z " fill="#87773C" transform="translate(381,157)"/>
<path d="M0 0 C0 0.66 0 1.32 0 2 C-0.66 2 -1.32 2 -2 2 C-2.226875 2.55171875 -2.45375 3.1034375 -2.6875 3.671875 C-4.38725926 6.68692417 -6.54804816 8.81230369 -9 11.25 C-9.886875 12.14203125 -10.77375 13.0340625 -11.6875 13.953125 C-14 16 -14 16 -16 16 C-16 16.66 -16 17.32 -16 18 C-16.66 18 -17.32 18 -18 18 C-16.58793323 13.57340865 -14.43885555 11.09052155 -11.125 7.875 C-10.26132812 7.02679688 -9.39765625 6.17859375 -8.5078125 5.3046875 C-2.73559322 0 -2.73559322 0 0 0 Z " fill="#968139" transform="translate(523,54)"/>
<path d="M0 0 C2.33994754 2.88147826 3.79903432 5.60141636 5.125 9.0625 C5.45757812 9.91972656 5.79015625 10.77695313 6.1328125 11.66015625 C6.78810254 13.42825866 7.40371222 15.21113666 8 17 C8.9590625 17.4640625 8.9590625 17.4640625 9.9375 17.9375 C12.50051718 19.25784218 12.7407337 20.4814674 14 23 C14.66 23.33 15.32 23.66 16 24 C18.49016793 25.24508396 18.98686718 26.46716796 20 29 C9.62588197 23.81294098 4.10928252 14.4273044 0 4 C0 2.68 0 1.36 0 0 Z " fill="#917F3E" transform="translate(489,163)"/>
<path d="M0 0 C3.01145944 0.28680566 6.00031126 0.61696282 9 1 C10.00933594 1.11408203 10.00933594 1.11408203 11.0390625 1.23046875 C19.31436271 2.58838481 26.66858084 7.13188928 34 11 C31 12 31 12 28.7578125 11.14453125 C27.88898438 10.70496094 27.02015625 10.26539063 26.125 9.8125 C19.92262603 6.85115434 13.59776254 4.88135936 7 3 C6.21496094 2.77183594 5.42992187 2.54367188 4.62109375 2.30859375 C3.08305315 1.86427091 1.54201431 1.43032957 0 1 C0 0.67 0 0.34 0 0 Z " fill="#8B7B3E" transform="translate(409,38)"/>
<path d="M0 0 C0.33 0 0.66 0 1 0 C1.28186393 13.67040049 0.99257687 26.79765546 -3 40 C-3.33 40 -3.66 40 -4 40 C-4.15005299 35.79851623 -4.1601454 32.59787616 -3.0625 28.5 C-1.59353429 22.91610549 -1.29389149 17.24087352 -0.875 11.5 C-0.78863281 10.39140625 -0.70226562 9.2828125 -0.61328125 8.140625 C-0.40277926 5.42748819 -0.19851016 2.71403606 0 0 Z " fill="#7A6D39" transform="translate(589,92)"/>
<path d="M0 0 C2.13114517 4.26229035 -0.88140569 10.45455585 -2.25976562 14.89697266 C-4.2424846 20.52993481 -7.13452772 25.77614744 -10 31 C-11.33436539 26.99690382 -9.90694268 24.73999746 -8.3125 21.0625 C-5.84898286 15.18018048 -3.68484343 9.2811501 -1.76171875 3.1953125 C-1 1 -1 1 0 0 Z " fill="#8E7D3F" transform="translate(230,283)"/>
<path d="M0 0 C3.18559952 1.39633107 5.23943845 3.04557493 7.625 5.5625 C10.04521959 8.14015389 10.04521959 8.14015389 13 10 C13 10.66 13 11.32 13 12 C13.70125 12.226875 14.4025 12.45375 15.125 12.6875 C18.69343613 14.31656867 21.06514511 16.40640731 24 19 C23.67 19.66 23.34 20.32 23 21 C5.83902905 8.11582275 5.83902905 8.11582275 0 2 C0 1.34 0 0.68 0 0 Z " fill="#8C7C3E" transform="translate(694,183)"/>
<path d="M0 0 C0.33 0 0.66 0 1 0 C0.67 5.94 0.34 11.88 0 18 C-0.66 18 -1.32 18 -2 18 C-1.9071875 19.1446875 -1.9071875 19.1446875 -1.8125 20.3125 C-2.07323155 25.44022041 -3.53498808 30.09918633 -5 35 C-5.66 34.67 -6.32 34.34 -7 34 C-6.73445312 32.81664062 -6.46890625 31.63328125 -6.1953125 30.4140625 C-2.77511587 15.27103663 -2.77511587 15.27103663 0 0 Z " fill="#7F723B" transform="translate(161,244)"/>
<path d="M0 0 C0.33 0 0.66 0 1 0 C0.29420984 21.68479418 0.29420984 21.68479418 -3 31 C-3.66 31.33 -4.32 31.66 -5 32 C-4.2629974 23.89297142 -2.8001792 15.94610237 -1.34765625 7.94384766 C-0.87476399 5.29976887 -0.43412812 2.65068614 0 0 Z " fill="#87783D" transform="translate(372,206)"/>
<path d="M0 0 C0.33 0 0.66 0 1 0 C0.85953745 2.95867918 0.71287776 5.91682264 0.5625 8.875 C0.50352539 10.13763672 0.50352539 10.13763672 0.44335938 11.42578125 C0.40146484 12.23144531 0.35957031 13.03710938 0.31640625 13.8671875 C0.27974854 14.61081543 0.24309082 15.35444336 0.20532227 16.12060547 C0 18 0 18 -1 20 C-1.22467831 21.53668865 -1.40796805 23.07968054 -1.5625 24.625 C-1.64628906 25.44226563 -1.73007812 26.25953125 -1.81640625 27.1015625 C-1.87699219 27.72804688 -1.93757813 28.35453125 -2 29 C-2.66 29 -3.32 29 -4 29 C-4.33 29.99 -4.66 30.98 -5 32 C-4.08141977 25.33787598 -3.00571322 18.70203025 -1.9375 12.0625 C-1.75123047 10.90169922 -1.56496094 9.74089844 -1.37304688 8.54492188 C-0.91589733 5.69652859 -0.45819956 2.84822453 0 0 Z " fill="#85763C" transform="translate(54,268)"/>
<path d="M0 0 C0 2 0 2 -2 4.1875 C-4.99092175 7.07528652 -8.15778094 9.76157745 -11.328125 12.44921875 C-13.10326363 13.91350467 -13.10326363 13.91350467 -14 16 C-14.66 16 -15.32 16 -16 16 C-13.54199486 10.57543694 -6.47895251 0 0 0 Z " fill="#927F3A" transform="translate(716,55)"/>
<path d="M0 0 C0 0.33 0 0.66 0 1 C-1.78857422 1.41572266 -1.78857422 1.41572266 -3.61328125 1.83984375 C-5.17970477 2.20565523 -6.74611007 2.57154471 -8.3125 2.9375 C-9.49102539 3.21110352 -9.49102539 3.21110352 -10.69335938 3.49023438 C-11.8293457 3.75610352 -11.8293457 3.75610352 -12.98828125 4.02734375 C-13.68477783 4.18968506 -14.38127441 4.35202637 -15.09887695 4.51928711 C-16.7534406 4.93765565 -18.38094108 5.46031369 -20 6 C-21.39439664 6.06665376 -22.79169875 6.08538199 -24.1875 6.0625 C-26.0746875 6.0315625 -26.0746875 6.0315625 -28 6 C-24.4294387 3.6196258 -20.92698018 2.83021036 -16.8125 1.875 C-15.71711914 1.60236328 -15.71711914 1.60236328 -14.59960938 1.32421875 C-9.61739215 0.15037483 -5.11660306 -0.17383702 0 0 Z " fill="#86773B" transform="translate(570,38)"/>
<path d="M0 0 C4.96023639 7.44035459 4.26118877 17.00320341 4.125 25.625 C4.11597656 26.72457031 4.10695313 27.82414062 4.09765625 28.95703125 C4.07434124 31.63825758 4.0416204 34.31900607 4 37 C3.67 37 3.34 37 3 37 C2.96241577 36.00818726 2.96241577 36.00818726 2.92407227 34.99633789 C2.80846898 32.01817695 2.68558246 29.0403608 2.5625 26.0625 C2.52318359 25.02158203 2.48386719 23.98066406 2.44335938 22.90820312 C2.40146484 21.91884766 2.35957031 20.92949219 2.31640625 19.91015625 C2.27974854 18.99371338 2.24309082 18.07727051 2.20532227 17.13305664 C2.22996136 15.0179272 2.22996136 15.0179272 1 14 C0.76472227 11.65012738 0.58613583 9.29443961 0.4375 6.9375 C0.35371094 5.64714844 0.26992188 4.35679687 0.18359375 3.02734375 C0.12300781 2.02832031 0.06242188 1.02929688 0 0 Z " fill="#6C6237" transform="translate(832,204)"/>
<path d="M0 0 C0.66 0.33 1.32 0.66 2 1 C-3.33333333 6.33333333 -8.66666667 11.66666667 -14 17 C-14.99 16.67 -15.98 16.34 -17 16 C-12.52034826 9.97564076 -6.84211711 5.65604971 -1 1 C-0.67 0.67 -0.34 0.34 0 0 Z " fill="#97833C" transform="translate(326,55)"/>
<path d="M0 0 C0.66 0 1.32 0 2 0 C0.70119601 5.77967773 -1.07908743 10.97606108 -3.5 16.375 C-3.80808594 17.08527344 -4.11617187 17.79554688 -4.43359375 18.52734375 C-5.71304691 21.4212142 -6.74315682 23.74315682 -9 26 C-8.37658609 22.4617797 -7.44678155 19.26706972 -6.15234375 15.91796875 C-5.79462891 14.98662109 -5.43691406 14.05527344 -5.06835938 13.09570312 C-4.69517578 12.13599609 -4.32199219 11.17628906 -3.9375 10.1875 C-3.56044922 9.20845703 -3.18339844 8.22941406 -2.79492188 7.22070312 C-1.86684405 4.8123999 -0.93509884 2.40558386 0 0 Z " fill="#917F3E" transform="translate(826,283)"/>
<path d="M0 0 C0.33 0 0.66 0 1 0 C0.40546697 17.85649203 0.40546697 17.85649203 -3 26 C-4.09964408 22.64283117 -3.88421538 20.24500139 -3.22265625 16.796875 C-3.03896484 15.8171875 -2.85527344 14.8375 -2.66601562 13.828125 C-2.46685547 12.81234375 -2.26769531 11.7965625 -2.0625 10.75 C-1.86720703 9.71875 -1.67191406 8.6875 -1.47070312 7.625 C-0.98796618 5.08180048 -0.49747983 2.54034954 0 0 Z " fill="#7D703B" transform="translate(279,160)"/>
<path d="M0 0 C0.33 0 0.66 0 1 0 C0.40546697 19.00455581 0.40546697 19.00455581 -3 27 C-4.40444502 24.19110996 -3.73665437 22.4199262 -3.22265625 19.3359375 C-3.03896484 18.21445312 -2.85527344 17.09296875 -2.66601562 15.9375 C-2.46685547 14.761875 -2.26769531 13.58625 -2.0625 12.375 C-1.86720703 11.19164062 -1.67191406 10.00828125 -1.47070312 8.7890625 C-0.98619416 5.85837414 -0.49571764 2.92880975 0 0 Z " fill="#85763E" transform="translate(46,312)"/>
<path d="M0 0 C0.93979382 3.03856659 0.99875808 5.20695472 0.44140625 8.328125 C0.30283203 9.12734375 0.16425781 9.9265625 0.02148438 10.75 C-0.12998047 11.575 -0.28144531 12.4 -0.4375 13.25 C-0.58509766 14.09046875 -0.73269531 14.9309375 -0.88476562 15.796875 C-1.2491936 17.86588544 -1.62362541 19.93312939 -2 22 C-2.33 22 -2.66 22 -3 22 C-3.22382264 14.65115663 -2.97947087 8.10280723 -1 1 C-0.67 0.67 -0.34 0.34 0 0 Z " fill="#89793B" transform="translate(464,116)"/>
<path d="M0 0 C2.17916874 2.17916874 2.56632773 3.3559362 3.4375 6.25 C4.63581798 10.04671156 6.18282725 13.45218653 8 17 C8 17.66 8 18.32 8 19 C8.66 19 9.32 19 10 19 C9.67 19.99 9.34 20.98 9 22 C-0.7805794 8.32618026 -0.7805794 8.32618026 0 0 Z " fill="#8D7D40" transform="translate(463,300)"/>
<path d="M0 0 C0.33 0 0.66 0 1 0 C1.55353075 19.00455581 1.55353075 19.00455581 -2 27 C-3.0249196 23.81697503 -2.91957923 21.78979782 -2.125 18.5625 C-0.76604812 12.41967022 -0.37337816 6.26882279 0 0 Z " fill="#8D7D40" transform="translate(784,93)"/>
<path d="M0 0 C0.33 0 0.66 0 1 0 C1.23658921 8.26747851 0.81344335 15.92046224 -1 24 C-1.66 23.34 -2.32 22.68 -3 22 C-2.69140625 18.87109375 -2.69140625 18.87109375 -2 15 C-1.81432489 13.67938983 -1.63596984 12.35773038 -1.46484375 11.03515625 C-1.37783203 10.38095703 -1.29082031 9.72675781 -1.20117188 9.05273438 C-1.11416016 8.39595703 -1.02714844 7.73917969 -0.9375 7.0625 C-0.84662109 6.37865234 -0.75574219 5.69480469 -0.66210938 4.99023438 C-0.44110203 3.32686331 -0.22050715 1.66343745 0 0 Z " fill="#8A793A" transform="translate(87,86)"/>
<path d="M0 0 C0.33 0 0.66 0 1 0 C1.38028169 14.04929577 1.38028169 14.04929577 -1 20 C-1.66 20.66 -2.32 21.32 -3 22 C-2.37727768 14.5928819 -1.29512034 7.31805865 0 0 Z " fill="#7F7039" transform="translate(268,219)"/>
<path d="M0 0 C8.13710995 0.15955118 14.12883757 3.98833047 21 8 C18 9 18 9 15.80078125 8.109375 C14.97964844 7.66078125 14.15851563 7.2121875 13.3125 6.75 C8.95102231 4.45077755 4.6477726 2.6353274 0 1 C0 0.67 0 0.34 0 0 Z " fill="#8E7D3F" transform="translate(208,181)"/>
<path d="M0 0 C5.785014 1.52237211 11.27535988 4.33046726 16 8 C16 8.99 16 9.98 16 11 C15.34 10.67 14.68 10.34 14 10 C14 9.34 14 8.68 14 8 C13.28457031 7.71382812 12.56914062 7.42765625 11.83203125 7.1328125 C7.5546875 5.421875 3.27734375 3.7109375 -1 2 C-0.67 1.34 -0.34 0.68 0 0 Z " fill="#8D7C3E" transform="translate(226,48)"/>
<path d="M0 0 C2.18226237 3.27339356 2.210226 3.66601383 1.6875 7.3125 C1.57921875 8.10140625 1.4709375 8.8903125 1.359375 9.703125 C0.47727273 15.34090909 0.47727273 15.34090909 0 18 C-0.66 18 -1.32 18 -2 18 C-2.33 18.99 -2.66 19.98 -3 21 C-2 14 -1 7 0 0 Z " fill="#8A793A" transform="translate(95,43)"/>
<path d="M0 0 C0.54785156 0.48984375 1.09570312 0.9796875 1.66015625 1.484375 C4.50307562 3.32586534 6.08256444 3.3430634 9.4375 3.25 C10.36433594 3.23453125 11.29117188 3.2190625 12.24609375 3.203125 C14.90617325 3.00692055 17.40031954 2.58504606 20 2 C18.44140625 4.0078125 18.44140625 4.0078125 16 6 C12.65234375 6.2421875 12.65234375 6.2421875 8.9375 5.875 C7.70902344 5.76929688 6.48054687 5.66359375 5.21484375 5.5546875 C2 5 2 5 -1 3 C-0.67 2.01 -0.34 1.02 0 0 Z " fill="#7F7039" transform="translate(728,291)"/>
<path d="M0 0 C7.2274605 -0.24091535 13.90294338 0.65504172 21 2 C21 2.33 21 2.66 21 3 C13.64657821 3.20177072 7.05112439 3.21211746 0 1 C0 0.67 0 0.34 0 0 Z " fill="#7A6D39" transform="translate(791,37)"/>
<path d="M0 0 C2.8125 0.1875 2.8125 0.1875 6 1 C9.30339122 5.03747815 9.37425497 8.80842465 9.1875 13.8125 C9.17396484 14.50537109 9.16042969 15.19824219 9.14648438 15.91210938 C9.11138845 17.60841265 9.05758943 19.30431136 9 21 C8.67 21 8.34 21 8 21 C7.96132812 19.57107422 7.96132812 19.57107422 7.921875 18.11328125 C7.86515625 16.85902344 7.8084375 15.60476562 7.75 14.3125 C7.70359375 13.07113281 7.6571875 11.82976562 7.609375 10.55078125 C6.91798789 6.52212175 5.8420563 4.87835994 3 2 C2.01 1.34 1.02 0.68 0 0 Z " fill="#776B39" transform="translate(177,94)"/>
<path d="M0 0 C2.24353987 2.24353987 2.80167078 3.85419177 3.875 6.8125 C5.40907431 10.79763289 7.05237582 13.84183123 10 17 C9.01 17 8.02 17 7 17 C3.33046726 12.27535988 0.52237211 6.785014 -1 1 C-0.67 0.67 -0.34 0.34 0 0 Z " fill="#8C7C3F" transform="translate(659,305)"/>
<path d="M0 0 C3.86038436 2.08906965 6.46552611 4.35798817 9.3125 7.6875 C10.00988281 8.49574219 10.70726562 9.30398437 11.42578125 10.13671875 C12.20501953 11.05904297 12.20501953 11.05904297 13 12 C12.67 12.66 12.34 13.32 12 14 C10.32737283 12.38113585 8.66204463 10.7547271 7 9.125 C6.071875 8.22007812 5.14375 7.31515625 4.1875 6.3828125 C2 4 2 4 2 2 C1.34 2 0.68 2 0 2 C0 1.34 0 0.68 0 0 Z " fill="#8B7B3E" transform="translate(813,180)"/>
<path d="M0 0 C0.556875 0.721875 1.11375 1.44375 1.6875 2.1875 C3.95448439 5.03742394 3.95448439 5.03742394 6.5625 7.5625 C8.61694931 9.61694931 10.33303969 11.63116166 12 14 C9 14 9 14 6.5625 11.8125 C0 4.6097561 0 4.6097561 0 0 Z " fill="#8B7B3E" transform="translate(756,132)"/>
<path d="M0 0 C0.33 0 0.66 0 1 0 C1.40368295 6.45892714 0.5915262 11.06108578 -2 17 C-3.44715727 13.12813552 -2.5441918 10.1767672 -1.5625 6.25 C-1.27503906 5.07953125 -0.98757813 3.9090625 -0.69140625 2.703125 C-0.46324219 1.81109375 -0.23507812 0.9190625 0 0 Z " fill="#87773D" transform="translate(288,117)"/>
<path d="M0 0 C0.33 0 0.66 0 1 0 C1.20190089 6.35987804 0.6277833 11.85221129 -1 18 C-1.33 18 -1.66 18 -2 18 C-2.20852314 11.59370576 -2.1583195 6.07027358 0 0 Z " fill="#88783D" transform="translate(834,243)"/>
<path d="M0 0 C0.99 0.33 1.98 0.66 3 1 C3.90238747 3.70716242 4.11851302 5.23776768 4.09765625 8.01171875 C4.09443359 8.76904297 4.09121094 9.52636719 4.08789062 10.30664062 C4.07951172 11.09232422 4.07113281 11.87800781 4.0625 12.6875 C4.05798828 13.48478516 4.05347656 14.28207031 4.04882812 15.10351562 C4.0370585 17.06904257 4.01912348 19.03453085 4 21 C3.67 21 3.34 21 3 21 C2.92652344 19.35451172 2.92652344 19.35451172 2.8515625 17.67578125 C2.77649409 16.22133075 2.70094803 14.76690484 2.625 13.3125 C2.5940625 12.59126953 2.563125 11.87003906 2.53125 11.12695312 C2.30664413 7.02789606 1.82259091 3.75631541 0 0 Z " fill="#7D703B" transform="translate(562,236)"/>
<path d="M0 0 C0.33 0 0.66 0 1 0 C1.0810206 2.10353495 1.13919907 4.20795952 1.1875 6.3125 C1.22230469 7.48425781 1.25710938 8.65601563 1.29296875 9.86328125 C1 13 1 13 -2 16 C-1.34 10.72 -0.68 5.44 0 0 Z " fill="#786B38" transform="translate(274,186)"/>
<path d="M0 0 C0.33 0 0.66 0 1 0 C1.0810206 2.10353495 1.13919907 4.20795952 1.1875 6.3125 C1.22230469 7.48425781 1.25710938 8.65601562 1.29296875 9.86328125 C1 13 1 13 -2 16 C-1.34 10.72 -0.68 5.44 0 0 Z " fill="#7A6D39" transform="translate(389,112)"/>
<path d="M0 0 C3.50755794 3.50755794 4.125 7.5605227 4.125 12.375 C4.08375 13.57125 4.0425 14.7675 4 16 C3.67 16 3.34 16 3 16 C2.49411853 14.08487728 1.99551609 12.16783078 1.5 10.25 C1.2215625 9.18265625 0.943125 8.1153125 0.65625 7.015625 C0 4 0 4 0 0 Z " fill="#80723D" transform="translate(237,199)"/>
<path d="M0 0 C0 0.66 0 1.32 0 2 C-6.45 6.09326923 -6.45 6.09326923 -9.234375 5.62109375 C-9.81703125 5.41613281 -10.3996875 5.21117187 -11 5 C-9.54462432 4.16151196 -8.08559627 3.32936066 -6.625 2.5 C-5.81289063 2.0359375 -5.00078125 1.571875 -4.1640625 1.09375 C-2 0 -2 0 0 0 Z " fill="#8A7A3D" transform="translate(537,46)"/>
<path d="M0 0 C2.30143236 3.45214853 2.13833854 4.23479324 1.625 8.1875 C1.51414063 9.08855469 1.40328125 9.98960937 1.2890625 10.91796875 C1.19367187 11.60503906 1.09828125 12.29210937 1 13 C-1.30143236 9.54785147 -1.13833854 8.76520676 -0.625 4.8125 C-0.51414063 3.91144531 -0.40328125 3.01039063 -0.2890625 2.08203125 C-0.19367187 1.39496094 -0.09828125 0.70789063 0 0 Z " fill="#897737" transform="translate(48,301)"/>
<path d="M0 0 C2.23551759 3.35327639 2.17283528 3.90743657 1.625 7.6875 C1.51414063 8.49574219 1.40328125 9.30398438 1.2890625 10.13671875 C1.19367187 10.75160156 1.09828125 11.36648438 1 12 C0.34 11.34 -0.32 10.68 -1 10 C-0.9765625 7.6171875 -0.9765625 7.6171875 -0.625 4.875 C-0.51414063 3.96492188 -0.40328125 3.05484375 -0.2890625 2.1171875 C-0.19367187 1.41851562 -0.09828125 0.71984375 0 0 Z " fill="#877638" transform="translate(56,257)"/>
<path d="M0 0 C3.71888239 0.50712033 6.73454239 1.11608215 10 3 C10 3.66 10 4.32 10 5 C2.42857143 3.14285714 2.42857143 3.14285714 0 0 Z " fill="#89793E" transform="translate(488,334)"/>
<path d="M0 0 C0.33 0.66 0.66 1.32 1 2 C0.22265625 3.9453125 0.22265625 3.9453125 -0.9375 6.125 C-1.31777344 6.84945312 -1.69804687 7.57390625 -2.08984375 8.3203125 C-2.39019531 8.87460938 -2.69054687 9.42890625 -3 10 C-3.66 10 -4.32 10 -5 10 C-3.66511872 6.40608886 -2.03977277 3.24509304 0 0 Z " fill="#87783E" transform="translate(504,72)"/>
<path d="M0 0 C2.96404505 2.80804268 5.44499019 5.18315774 7 9 C6.34 9 5.68 9 5 9 C3.7109375 7.5390625 3.7109375 7.5390625 2.375 5.625 C1.92898438 4.99851562 1.48296875 4.37203125 1.0234375 3.7265625 C0 2 0 2 0 0 Z " fill="#8B7B3F" transform="translate(450,56)"/>
<path d="M0 0 C5.75 1.75 5.75 1.75 8 4 C1.25 3.25 1.25 3.25 -1 1 C-0.67 0.67 -0.34 0.34 0 0 Z " fill="#83743A" transform="translate(226,48)"/>
</svg>
