<?xml version="1.0" encoding="UTF-8"?>
<svg version="1.1" xmlns="http://www.w3.org/2000/svg" width="900" height="1140">
<path d="M0 0 C0.33 79.86 0.66 159.72 1 242 C5.95 239.69 10.9 237.38 16 235 C19.14341616 233.64505026 22.28083694 232.310402 25.44921875 231.01953125 C26.26179138 230.68477783 27.07436401 230.35002441 27.91156006 230.00512695 C29.62411713 229.29980993 31.33726689 228.59593037 33.05099487 227.89346313 C37.59454271 226.03061536 42.13325863 224.15607437 46.671875 222.28125 C48.017407 221.72568169 48.017407 221.72568169 49.39012146 221.15888977 C56.7675177 218.1076545 64.10951204 214.98074363 71.4375 211.8125 C83.21072439 206.72503308 95.05604268 201.82481878 106.93139648 196.98168945 C108.2824792 196.42941904 109.63347322 195.87693158 110.984375 195.32421875 C111.64043228 195.05650162 112.29648956 194.78878448 112.97242737 194.51295471 C116.48403398 193.07021039 119.96783474 191.58016291 123.43164062 190.02587891 C124.15740295 189.70126175 124.88316528 189.37664459 125.63092041 189.04219055 C127.01919766 188.41776349 128.40460421 187.78690066 129.78656006 187.14860535 C133.17755516 185.62244994 135.202602 185 139 185 C139 329.54 139 474.08 139 623 C134.70258497 622.14051699 131.31543541 621.04066291 127.2890625 619.40234375 C126.63773346 619.13800034 125.98640442 618.87365692 125.31533813 618.6013031 C118.0949478 615.65746236 110.91718968 612.61119616 103.7394104 609.56533813 C87.95474658 602.87045013 72.10987931 596.33986682 56.19482422 589.96118164 C49.24794005 587.17129602 42.36382597 584.31982509 35.56860352 581.1730957 C30.9486224 579.06312429 26.25401648 577.1318544 21.5625 575.1875 C20.01139526 574.54228394 20.01139526 574.54228394 18.42895508 573.8840332 C10.87439305 570.75120211 3.28628498 567.7091148 -4.31616211 564.69482422 C-9.39249909 562.67216856 -14.3899977 560.53378615 -19.34057617 558.21728516 C-26.76568596 554.8186257 -34.37936578 551.8378904 -41.9609375 548.80859375 C-44.05658139 547.96876383 -46.15209158 547.1286012 -48.24755859 546.28833008 C-49.67573273 545.71715876 -51.10478425 545.14817676 -52.53466797 544.58129883 C-54.63768751 543.74673313 -56.73703701 542.90345621 -58.8359375 542.05859375 C-59.46728607 541.81056503 -60.09863464 541.56253632 -60.74911499 541.30699158 C-64.92155553 539.61555509 -68.57223973 537.93491009 -72 535 C-72.6119674 531.94980721 -72.80363322 529.68260255 -72.74666691 526.62941647 C-72.75448876 525.77307117 -72.76231062 524.91672587 -72.7703695 524.03443071 C-72.78936469 521.14476288 -72.76532794 518.25702786 -72.74171448 515.36741638 C-72.74647627 513.28307065 -72.7538646 511.19872953 -72.76366371 509.1144014 C-72.78296381 503.37121169 -72.76465495 497.62865324 -72.74037087 491.88550484 C-72.72068446 485.69798144 -72.73547548 479.51053035 -72.74601746 473.32299805 C-72.75941459 462.59685591 -72.75069477 451.8709395 -72.72607613 441.14483452 C-72.70025303 429.89166979 -72.68551517 418.63858888 -72.68607903 407.38539314 C-72.68610196 406.68599835 -72.6861249 405.98660356 -72.68614853 405.26601499 C-72.68627125 402.42712557 -72.68646808 399.58823617 -72.68676597 396.74934676 C-72.68948551 370.10644547 -72.6596295 343.46367202 -72.61347697 316.82081511 C-72.5725995 293.1358145 -72.55389325 269.45090472 -72.5559082 245.76586914 C-72.55602944 244.24497453 -72.55615052 242.72407992 -72.55627144 241.20318531 C-72.55633249 240.45129364 -72.55639355 239.69940196 -72.55645645 238.92472569 C-72.55675882 235.1400227 -72.55703057 231.35531971 -72.55726719 227.57061672 C-72.5573424 226.45068811 -72.5573424 226.45068811 -72.55741913 225.30813467 C-72.55851397 205.53249164 -72.544906 185.75686001 -72.5262875 165.9812265 C-72.52529627 164.92641734 -72.52529627 164.92641734 -72.52428503 163.85029889 C-72.52162025 161.02237938 -72.51895508 158.19445986 -72.51621216 155.36654042 C-72.5067234 145.51701269 -72.50220323 135.66749393 -72.50087769 125.81796195 C-72.49908849 113.12750792 -72.486807 100.43713471 -72.45758332 87.74670678 C-72.44369694 81.6239014 -72.4346047 75.50118867 -72.43836594 69.37836647 C-72.4416379 63.7807571 -72.43117722 58.18335309 -72.40942036 52.58578659 C-72.40395611 50.55357206 -72.40361291 48.52133646 -72.40872223 46.48912101 C-72.41487038 43.74074714 -72.4028104 40.9930565 -72.38590336 38.24474239 C-72.39206931 37.44357238 -72.39823527 36.64240236 -72.40458807 35.81695446 C-72.34427576 30.50203782 -72.34427576 30.50203782 -70.68684906 28.08510643 C-67.780529 26.2155458 -64.62044953 24.96241682 -61.4296875 23.671875 C-60.67519318 23.35978088 -59.92069885 23.04768677 -59.14334106 22.72613525 C-56.72339231 21.72704501 -54.29934229 20.73837456 -51.875 19.75 C-50.29789447 19.10094671 -48.72106865 18.4512133 -47.14453125 17.80078125 C-41.64463376 15.53449684 -36.13977062 13.28040951 -30.63165283 11.03417969 C-28.34750778 10.10256015 -26.06434783 9.16855738 -23.78125 8.234375 C-23.10520721 7.95978455 -22.42916443 7.68519409 -21.7326355 7.40228271 C-16.22107739 5.14472239 -10.87513288 2.61652163 -5.5390625 -0.03125 C-3 -1 -3 -1 0 0 Z M57.625 295.5625 C46.4222748 300.42748094 35.15124722 305.12161928 23.8694458 309.79959106 C22.32248761 310.4410664 20.77570113 311.08295597 19.22909546 311.72528076 C17.81042154 312.31445361 16.39136764 312.90271286 14.97183228 313.48980713 C9.93996554 315.58009969 4.98357046 317.78507979 0 320 C0 375.44 0 430.88 0 488 C16.335 494.93 16.335 494.93 33 502 C38.13369141 504.19269531 38.13369141 504.19269531 43.37109375 506.4296875 C46.42488069 507.73375047 46.42488069 507.73375047 49.47875977 509.03759766 C50.84057168 509.61980068 52.20186242 510.20322364 53.56274414 510.78759766 C55.62247439 511.67157989 57.6840636 512.55108626 59.74609375 513.4296875 C60.90810303 513.92710449 62.0701123 514.42452148 63.26733398 514.93701172 C65.82196835 516.12084355 65.82196835 516.12084355 68 516 C68 442.08 68 368.16 68 292 C64.32977423 292 60.95067692 294.10236161 57.625 295.5625 Z " fill="#FFFFFF" transform="translate(278,14)"/>
<path d="M0 0 C4.14749447 0.82949889 7.04617149 1.76713325 10.83203125 3.4765625 C11.95254883 3.97905518 13.07306641 4.48154785 14.22753906 4.99926758 C16.00209473 5.80400513 16.00209473 5.80400513 17.8125 6.625 C19.03978953 7.17723134 20.26733009 7.7289051 21.49511719 8.2800293 C23.9103912 9.36429939 26.32482924 10.45035289 28.73876953 11.53759766 C32.72931113 13.32703801 36.73646048 15.07546568 40.75 16.8125 C45.83790085 19.02869402 50.90009448 21.29649532 55.9375 23.625 C57.65259766 24.41777344 57.65259766 24.41777344 59.40234375 25.2265625 C63.67872624 27.33457298 67.83226274 29.68459041 72 32 C72 198.65 72 365.3 72 537 C67.35277668 539.65555618 63.6843916 541.65299218 58.8125 543.4375 C52.47377338 545.81182439 46.23419467 548.36492802 40 551 C38.54042872 551.6160374 37.08078837 552.23191117 35.62109375 552.84765625 C34.4467981 553.3430188 34.4467981 553.3430188 33.2487793 553.84838867 C29.98667856 555.22298869 26.72281084 556.59337067 23.45898438 557.96386719 C21.01676055 558.99293767 18.57861203 560.03125152 16.140625 561.0703125 C14.61471676 561.71385812 13.08868054 562.35710039 11.5625 563 C10.85907471 563.30276855 10.15564941 563.60553711 9.4309082 563.91748047 C5.99731062 565.35429084 3.78758402 566 0 566 C0 485.15 0 404.3 0 321 C-1.65 320.67 -3.3 320.34 -5 320 C-6.90652574 319.2678309 -8.79365787 318.48412257 -10.6640625 317.6640625 C-11.77362305 317.18195313 -12.88318359 316.69984375 -14.02636719 316.203125 C-15.21391602 315.68234375 -16.40146484 315.1615625 -17.625 314.625 C-20.14160488 313.53008647 -22.66022871 312.43989145 -25.1796875 311.3515625 C-25.82305054 311.07346741 -26.46641357 310.79537231 -27.12927246 310.5088501 C-35.06983919 307.08960338 -43.08795052 303.86333183 -51.11572266 300.65478516 C-52.16550293 300.23245605 -53.2152832 299.81012695 -54.296875 299.375 C-55.20791992 299.01148438 -56.11896484 298.64796875 -57.05761719 298.2734375 C-60.77347494 296.66524682 -64.37852228 294.81073886 -68 293 C-68 392.99 -68 492.98 -68 596 C-111.77381717 615.03209442 -111.77381717 615.03209442 -127.5 621.1875 C-128.24161377 621.47906982 -128.98322754 621.77063965 -129.74731445 622.07104492 C-134.74890946 624 -134.74890946 624 -137 624 C-137.33 479.46 -137.66 334.92 -138 186 C-127.85726795 189.38091068 -127.85726795 189.38091068 -123.0390625 191.3046875 C-121.98976563 191.72363281 -120.94046875 192.14257812 -119.859375 192.57421875 C-118.79203125 193.00347656 -117.7246875 193.43273437 -116.625 193.875 C-115.56539063 194.29652344 -114.50578125 194.71804687 -113.4140625 195.15234375 C-107.52165594 197.51363903 -101.72164197 200.00966254 -95.95654297 202.66503906 C-90.59992701 205.08369935 -85.17212221 207.33608641 -79.74951172 209.60180664 C-77.76568793 210.43094325 -75.78316188 211.2631229 -73.80078125 212.09570312 C-67.29132534 214.82396357 -60.7661987 217.50091938 -54.203125 220.09765625 C-48.98621479 222.16379924 -43.8702209 224.39173096 -38.77880859 226.74951172 C-32.20050938 229.70980416 -25.4600126 232.30314851 -18.76367188 234.98242188 C-17.04954102 235.67368164 -17.04954102 235.67368164 -15.30078125 236.37890625 C-14.28153564 236.7869751 -13.26229004 237.19504395 -12.2121582 237.61547852 C-8.40475269 239.25656666 -4.70831574 241.14584213 -1 243 C-0.505 122.715 -0.505 122.715 0 0 Z " fill="#FFFFFF" transform="translate(605,13)"/>
<path d="M0 0 C5.00996579 0.64316629 8.82588515 1.59197007 13.375 3.8125 C14.00744629 4.11671875 14.63989258 4.4209375 15.29150391 4.734375 C17.53210409 5.81397987 19.76588242 6.90704712 22 8 C25.78866304 9.83957794 29.5810951 11.67125937 33.375 13.5 C34.41994629 14.00426514 35.46489258 14.50853027 36.54150391 15.02807617 C46.26023853 19.69390031 56.0677524 24.15246115 65.89099121 28.59277344 C74.50554622 32.48758631 83.0969071 36.41804806 91.625 40.5 C92.8632251 41.08962524 92.8632251 41.08962524 94.12646484 41.69116211 C97.89122487 43.48890619 101.63699801 45.31520914 105.359375 47.19921875 C106.04177246 47.53695312 106.72416992 47.8746875 107.42724609 48.22265625 C109.21558719 49.10853291 110.99499098 50.01239196 112.7734375 50.91796875 C119.08722228 53.03530336 124.48562559 50.63188713 130.20703125 47.82421875 C130.880793 47.50326233 131.55455475 47.18230591 132.24873352 46.85162354 C134.44081209 45.80535823 136.62648273 44.74636234 138.8125 43.6875 C140.34892102 42.95210728 141.88587428 42.21782557 143.42333984 41.48461914 C145.74986748 40.37498453 148.07607418 39.26473602 150.40063477 38.15098572 C156.94613729 35.01538606 163.52709943 31.96127569 170.125 28.9375 C179.25355831 24.74093501 188.36178316 20.50263883 197.45803833 16.2366333 C199.53529832 15.26275295 201.61317987 14.29020925 203.69116211 13.31787109 C209.35359068 10.66605994 215.01136228 8.00757414 220.6328125 5.26953125 C221.42357178 4.88700195 222.21433105 4.50447266 223.02905273 4.11035156 C224.40507931 3.44233821 225.77744068 2.76668342 227.14477539 2.08105469 C230.88970088 0.26814569 232.62260825 0 237 0 C237 27.06 237 54.12 237 82 C218.42857143 91.28571429 218.42857143 91.28571429 210 95 C211.02738281 95.50789063 212.05476562 96.01578125 213.11328125 96.5390625 C214.51307654 97.23426285 215.91281291 97.92958184 217.3125 98.625 C217.98345703 98.95628906 218.65441406 99.28757812 219.34570312 99.62890625 C225.32762732 102.60582627 231.12003818 105.7927481 237 109 C237 136.39 237 163.78 237 192 C232.94420399 190.986051 229.46096108 189.43700752 225.71875 187.640625 C224.64335464 187.12999763 224.64335464 187.12999763 223.54623413 186.60905457 C222.00222854 185.87552185 220.45899017 185.14037248 218.91644287 184.40377808 C214.81496588 182.44544739 210.70785731 180.4989838 206.6015625 178.55078125 C205.77705597 178.15919327 204.95254944 177.76760529 204.10305786 177.364151 C197.04564898 174.01457884 189.96594307 170.71555154 182.875 167.4375 C170.20177111 161.57314223 157.56386726 155.6352304 144.93481445 149.67643738 C143.60053237 149.04802985 142.26541929 148.42138346 140.92944336 147.79658508 C137.54390336 146.21166665 134.17721505 144.59826728 130.83056641 142.93261719 C130.15391434 142.6016806 129.47726227 142.27074402 128.78010559 141.92977905 C127.49747569 141.30195615 126.2199334 140.66358636 124.94877625 140.0128479 C121.1929843 138.19262668 118.96757285 137.62523519 115 139 C113.31892287 139.70128326 111.66171598 140.461482 110.02734375 141.265625 C109.06046631 141.73653564 108.09358887 142.20744629 107.09741211 142.69262695 C106.05464111 143.20656006 105.01187012 143.72049316 103.9375 144.25 C101.66742986 145.35443465 99.39656754 146.4572422 97.125 147.55859375 C95.35962891 148.41493408 95.35962891 148.41493408 93.55859375 149.28857422 C87.87803037 152.02051366 82.15947967 154.6686689 76.4375 157.3125 C74.08451535 158.40078212 71.73165314 159.48932898 69.37890625 160.578125 C68.78332413 160.85372757 68.187742 161.12933014 67.57411194 161.4132843 C61.00909196 164.45409188 54.46067953 167.53015288 47.91201782 170.60598755 C37.0333691 175.71422118 26.15016775 180.81283341 15.25 185.875 C13.62553955 186.6340564 13.62553955 186.6340564 11.96826172 187.40844727 C10.9732666 187.86920654 9.97827148 188.32996582 8.953125 188.8046875 C8.08848633 189.20671387 7.22384766 189.60874023 6.33300781 190.02294922 C4 191 4 191 0 192 C0 164.61 0 137.22 0 109 C19.125 98.875 19.125 98.875 26 96 C23.15455831 93.73268632 20.34604887 92.08880415 17.05078125 90.5546875 C16.12072266 90.11769531 15.19066406 89.68070312 14.23242188 89.23046875 C13.26884766 88.78316406 12.30527344 88.33585937 11.3125 87.875 C9.39106219 86.97841369 7.47044245 86.08007139 5.55078125 85.1796875 C4.70169189 84.78507324 3.85260254 84.39045898 2.9777832 83.98388672 C1 83 1 83 0 82 C-0.09506052 79.44410112 -0.12556761 76.91532028 -0.11352539 74.35913086 C-0.11367142 73.55919205 -0.11381744 72.75925323 -0.1139679 71.93507385 C-0.11326855 69.27830335 -0.10547518 66.62160207 -0.09765625 63.96484375 C-0.09579215 62.12781309 -0.09436821 60.29078194 -0.09336853 58.45375061 C-0.08954275 53.60890338 -0.07971196 48.76408592 -0.06866455 43.91925049 C-0.05845172 38.97937422 -0.05387119 34.03949315 -0.04882812 29.09960938 C-0.03808974 19.39972647 -0.0210126 9.69986571 0 0 Z " fill="#FFDA00" transform="translate(323,0)"/>
<path d="M0 0 C18.80205143 -0.20319971 37.60321334 -0.36896971 56.40608406 -0.46630955 C65.13668259 -0.51270842 73.86655028 -0.57595854 82.59667969 -0.67895508 C90.20635492 -0.76868986 97.81550092 -0.82673036 105.42569053 -0.84679645 C109.45519715 -0.85852603 113.48318981 -0.88606483 117.51221085 -0.95157051 C121.3064179 -1.01275751 125.09849105 -1.03148767 128.89314461 -1.01796913 C130.28399199 -1.02044116 131.67491214 -1.03829495 133.06533241 -1.07284927 C143.56403739 -1.32091757 143.56403739 -1.32091757 147.11807632 1.94838238 C148.6721006 4.24280578 149.85947934 6.47912613 151 9 C151.70123534 10.18361377 152.41569605 11.35954751 153.14648438 12.52514648 C153.78908203 13.62930908 154.43167969 14.73347168 155.09375 15.87109375 C155.62566956 16.78194481 155.62566956 16.78194481 156.16833496 17.7111969 C157.28150369 19.61845559 158.39092496 21.52785851 159.5 23.4375 C160.96773832 25.9576215 162.43694844 28.47688343 163.90625 30.99609375 C164.43230835 31.8990065 164.43230835 31.8990065 164.96899414 32.82015991 C167.93586531 37.90646135 170.95205637 42.9619371 174 48 C176.64367603 44.5411203 178.9094967 40.9301198 181.125 37.1875 C181.92835233 35.83982402 182.7317387 34.49216835 183.53515625 33.14453125 C183.9439502 32.45697754 184.35274414 31.76942383 184.77392578 31.06103516 C202.15263158 1.84736842 202.15263158 1.84736842 204 0 C206.6662603 -0.08855161 209.30647114 -0.11524673 211.97265625 -0.09765625 C212.77029892 -0.0962413 213.56794159 -0.09482635 214.38975525 -0.09336853 C216.94737435 -0.08775316 219.50490718 -0.07519812 222.0625 -0.0625 C223.79231645 -0.05748698 225.52213426 -0.05292373 227.25195312 -0.04882812 C231.50133553 -0.03777875 235.75065312 -0.02050386 240 0 C239.32960599 3.65267732 237.7615951 6.35429881 235.859375 9.5234375 C235.20718994 10.61624023 234.55500488 11.70904297 233.88305664 12.83496094 C233.1720987 14.01501068 232.46107838 15.19502283 231.75 16.375 C231.02217035 17.5911515 230.29488092 18.80762645 229.56811523 20.02441406 C228.09084906 22.49696144 226.61136498 24.9681604 225.13037109 27.43847656 C222.08251939 32.52741811 219.07347644 37.63918609 216.0625 42.75 C211.82831122 49.92104219 207.57498384 57.08007851 203.29296875 64.22265625 C202.79676025 65.0878186 202.79676025 65.0878186 202.29052734 65.97045898 C201 68 201 68 198.99462891 70.46899414 C191.01091864 81.18649881 191.87774217 92.39101218 192 105.3125 C191.99189482 107.51759437 191.98020544 109.72267862 191.96484375 111.92773438 C191.92859077 117.28713298 191.96589273 122.63876341 192 128 C179.46 128 166.92 128 154 128 C154.06574219 123.20662109 154.06574219 123.20662109 154.1328125 118.31640625 C154.1412349 115.16186605 154.13243388 112.00779965 154.12207031 108.85327148 C154.12399642 106.68976976 154.14334578 104.52620075 154.18164062 102.36303711 C154.42507187 87.76730558 152.95140243 77.79584191 144.32531738 65.86776733 C142.27325784 62.97580362 140.49721777 59.93196348 138.69140625 56.8828125 C137.31580415 54.62978081 135.93949884 52.37717831 134.5625 50.125 C127.88254488 39.1736654 121.35426521 28.14398132 115 17 C115.01160156 17.85464844 115.02320313 18.70929687 115.03515625 19.58984375 C115.04417969 20.69457031 115.05320312 21.79929687 115.0625 22.9375 C115.07410156 24.03964844 115.08570313 25.14179687 115.09765625 26.27734375 C115 29 115 29 114 30 C101.46 30 88.92 30 76 30 C76 62.34 76 94.68 76 128 C63.79 128 51.58 128 39 128 C37.08935701 126.08935701 37.87985389 123.26172105 37.87557983 120.71983337 C37.88097275 119.36469383 37.88097275 119.36469383 37.88647461 117.98217773 C37.88632858 117.03593536 37.88618256 116.08969299 37.8860321 115.11477661 C37.88673164 111.97102608 37.89452591 108.82733399 37.90234375 105.68359375 C37.90420779 103.51025932 37.90563176 101.33692448 37.90663147 99.16358948 C37.91045779 93.43098805 37.92028903 87.69841177 37.93133545 81.96582031 C37.94154713 76.12109721 37.94612857 70.27637007 37.95117188 64.43164062 C37.9619112 52.95441423 37.97950892 41.47721314 38 30 C25.46 30 12.92 30 0 30 C0 20.1 0 10.2 0 0 Z " fill="#FFDA00" transform="translate(616,760)"/>
<path d="M0 0 C12.045 -0.061875 24.09 -0.12375 36.5 -0.1875 C42.15479492 -0.22846802 42.15479492 -0.22846802 47.92382812 -0.27026367 C52.61230469 -0.28381348 52.61230469 -0.28381348 54.8236084 -0.28633118 C56.33209915 -0.29086666 57.8405807 -0.30126474 59.34899902 -0.31672668 C75.74962493 -0.47608577 94.74492925 0.22833325 107.3203125 12.2109375 C113.66783606 19.99262956 116.21677451 27.99011811 116 38 C114.50490216 46.80995668 110.44445221 52.89472948 104 59 C103.01 59.99 103.01 59.99 102 61 C102.97839844 61.61875 102.97839844 61.61875 103.9765625 62.25 C113.09584771 68.27572238 118.69714879 74.83534571 121.6875 85.4375 C122.90042679 95.38349969 121.6062306 103.71994222 115.69921875 111.9296875 C107.12765629 122.37320038 95.03311531 126.1727849 82 128 C79.25454896 128.08609919 76.53603406 128.12675187 73.79150391 128.11352539 C72.97798147 128.11364593 72.16445904 128.11376646 71.32628441 128.11389065 C68.709682 128.11314808 66.09315206 128.10554991 63.4765625 128.09765625 C61.85441116 128.0961848 60.23225934 128.09516534 58.61010742 128.09460449 C52.61506434 128.08937519 46.62003145 128.07541392 40.625 128.0625 C27.21875 128.041875 13.8125 128.02125 0 128 C0 85.76 0 43.52 0 0 Z M37 28 C37 35.26 37 42.52 37 50 C41.26950028 50.092369 45.53546837 50.17182767 49.80517578 50.21972656 C51.25418917 50.23971295 52.70312325 50.26691197 54.15185547 50.30175781 C65.65446083 50.62743759 65.65446083 50.62743759 76 46 C78.05680787 42.95592436 78 41.18025637 78 37.5 C76.65506427 32.79272496 75.00509716 31.72346607 71 29 C67.46173745 27.82057915 64.65851274 27.88710811 60.92578125 27.90234375 C60.2419487 27.9037587 59.55811615 27.90517365 58.8535614 27.90663147 C56.67316278 27.91222124 54.49286749 27.92477178 52.3125 27.9375 C50.83268378 27.94251633 49.35286594 27.947079 47.87304688 27.95117188 C44.24862624 27.9613357 40.62442856 27.9809129 37 28 Z M37 77 C37 84.59 37 92.18 37 100 C42.16001225 100.06903882 47.31840876 100.12872035 52.47851562 100.16479492 C54.23215173 100.17983995 55.98575047 100.20028104 57.73925781 100.22631836 C60.26637009 100.26289121 62.79298296 100.2797692 65.3203125 100.29296875 C66.09867462 100.30845261 66.87703674 100.32393646 67.6789856 100.33988953 C73.34013454 100.34162227 77.03345351 98.94359942 81.8125 95.8125 C83.78999163 92.79422331 84.11735461 89.52754155 84 86 C82.42041517 82.25887802 80.42661319 80.14163324 77 78 C73.1784462 76.72614873 69.5931553 76.87646812 65.61328125 76.90234375 C64.79627243 76.9037587 63.97926361 76.90517365 63.13749695 76.90663147 C60.52912732 76.91222706 57.92084366 76.92477871 55.3125 76.9375 C53.54362103 76.94251557 51.77474072 76.94707838 50.00585938 76.95117188 C45.67051318 76.96134397 41.33535278 76.98092021 37 77 Z " fill="#FFDA00" transform="translate(51,760)"/>
<path d="M0 0 C28.11796394 -2.07591215 28.11796394 -2.07591215 34.125 2.28515625 C37.01599604 5.14912462 38.95877196 8.49900928 41 12 C42.53280853 13.8993497 44.09475821 15.77562042 45.6875 17.625 C47.78634848 20.22534324 49.87033223 22.83681091 51.94921875 25.453125 C56.1599442 30.74856066 60.46635774 35.94496953 64.84960938 41.09741211 C68.59819 45.50877203 72.27784008 49.97293257 75.9296875 54.46484375 C78.26648759 57.3263216 80.6348942 60.16187304 83 63 C83.33 42.21 83.66 21.42 84 0 C92.8790625 -0.0309375 92.8790625 -0.0309375 101.9375 -0.0625 C104.74302368 -0.07615601 104.74302368 -0.07615601 107.60522461 -0.09008789 C109.07926359 -0.09300709 110.55330337 -0.09555564 112.02734375 -0.09765625 C112.79953247 -0.10277222 113.57172119 -0.10788818 114.36730957 -0.11315918 C116.24525187 -0.11346974 118.12309253 -0.06233569 120 0 C121 1 121 1 121.12304783 3.1064539 C121.12212604 4.04207377 121.12120424 4.97769365 121.12025452 5.94166565 C121.12231651 7.54662399 121.12231651 7.54662399 121.12442017 9.18400574 C121.11902725 10.95992851 121.11902725 10.95992851 121.11352539 12.77172852 C121.11367142 14.010578 121.11381744 15.24942749 121.1139679 16.52581787 C121.11338892 19.93269833 121.10835959 23.33951884 121.10139394 26.74638867 C121.09515993 30.30316826 121.09455656 33.85994858 121.09336853 37.41673279 C121.09025535 44.15636582 121.08204215 50.89598271 121.07201904 57.63560861 C121.06085748 65.30658398 121.05534735 72.97756011 121.05032361 80.64854157 C121.03985952 96.43237041 121.02226035 112.21618313 121 128 C116.57119241 128.22379308 112.1454363 128.38636162 107.71264648 128.49438477 C106.20783133 128.53943718 104.7034057 128.60070654 103.19995117 128.67895508 C90.69703023 129.31301106 90.69703023 129.31301106 86.50567627 126.07011414 C84.73711126 123.78988945 83.36382711 121.53692697 82 119 C81.13078765 117.89732436 80.23157622 116.81727039 79.296875 115.76953125 C74.58367725 110.29730626 69.98832746 104.76995005 65.5625 99.0625 C61.31434984 93.59123597 56.89332924 88.30181914 52.36206055 83.06347656 C40.77791219 69.66686828 40.77791219 69.66686828 37 64 C36.67 85.12 36.34 106.24 36 128 C24.12 128 12.24 128 0 128 C-1.24448777 125.51102447 -1.12582965 123.85067192 -1.12698364 121.06542969 C-1.12980347 120.02221558 -1.13262329 118.97900146 -1.13552856 117.9041748 C-1.13350433 116.75501587 -1.1314801 115.60585693 -1.12939453 114.421875 C-1.13114685 113.21535278 -1.13289917 112.00883057 -1.13470459 110.76574707 C-1.13835898 107.45176543 -1.13749208 104.13784599 -1.1343255 100.8238678 C-1.1317985 97.36011673 -1.1341404 93.89636836 -1.13571167 90.43261719 C-1.13753237 84.61522951 -1.13512967 78.79785451 -1.13037109 72.98046875 C-1.12492866 66.24921528 -1.12669139 59.51799209 -1.1321975 52.78673935 C-1.13673147 47.01346451 -1.13737778 41.2401988 -1.13475883 35.46692276 C-1.13319762 32.01615146 -1.13299804 28.56539441 -1.13629532 25.11462402 C-1.13971294 21.26911232 -1.13497964 17.4236347 -1.12939453 13.578125 C-1.13243088 11.8543866 -1.13243088 11.8543866 -1.13552856 10.0958252 C-1.13270874 9.05261108 -1.12988892 8.00939697 -1.12698364 6.93457031 C-1.12660662 6.0245929 -1.12622959 5.11461548 -1.12584114 4.17706299 C-1 2 -1 2 0 0 Z " fill="#FFFFFF" transform="translate(286,926)"/>
<path d="M0 0 C1.41423037 -0.01651987 2.8283786 -0.04375831 4.2421875 -0.08203125 C6.28396788 -0.13702065 8.32378813 -0.15870679 10.36621094 -0.17333984 C11.59049805 -0.19315918 12.81478516 -0.21297852 14.07617188 -0.23339844 C18.30315524 0.51272344 19.66459788 2.11040584 22.38183594 5.35009766 C23.20941406 6.28724609 24.03699219 7.22439453 24.88964844 8.18994141 C25.76505645 9.21994097 26.63732398 10.2526159 27.50683594 11.28759766 C27.9812915 11.84970947 28.45574707 12.41182129 28.94458008 12.9909668 C32.80238118 17.59194977 36.50391073 22.30453197 40.18505859 27.04711914 C43.46901568 31.25283779 46.88419122 35.32098679 50.38183594 39.35009766 C57.38540191 47.41982029 63.98179529 55.79445979 70.38183594 64.35009766 C70.3921434 63.56304947 70.40245087 62.77600128 70.41307068 61.96510315 C70.51087781 54.56311659 70.6133678 47.16121698 70.72117519 39.75936985 C70.77643888 35.95362361 70.82986423 32.14786973 70.87915039 28.34204102 C70.92674334 24.67210431 70.97908403 21.00226375 71.03477669 17.33244133 C71.0552233 15.92937539 71.07393251 14.52628306 71.09090996 13.12317085 C71.11490281 11.1643284 71.14553793 9.20557065 71.17651367 7.24682617 C71.19205795 6.12985855 71.20760223 5.01289093 71.22361755 3.86207581 C71.38183594 1.35009766 71.38183594 1.35009766 72.38183594 0.35009766 C84.26183594 0.35009766 96.14183594 0.35009766 108.38183594 0.35009766 C108.38183594 42.59009766 108.38183594 84.83009766 108.38183594 128.35009766 C98.15183594 128.35009766 87.92183594 128.35009766 77.38183594 128.35009766 C72.21105597 122.60478658 67.29459989 117.07356863 62.54199219 111.04541016 C60.06366175 107.95309912 57.51268595 104.9301547 54.94433594 101.91259766 C50.88325693 97.13693493 46.87746882 92.32245734 42.92089844 87.45947266 C40.88550019 84.96033412 38.83442579 82.47446681 36.78027344 79.99072266 C36.14774658 79.2253418 35.51521973 78.45996094 34.86352539 77.67138672 C33.60271242 76.1464141 32.34086234 74.62229824 31.07788086 73.09912109 C30.4988501 72.39819336 29.91981934 71.69726562 29.32324219 70.97509766 C28.8044751 70.34861328 28.28570801 69.72212891 27.7512207 69.07666016 C26.54888628 67.56071988 25.45510312 65.95999844 24.38183594 64.35009766 C24.05183594 85.47009766 23.72183594 106.59009766 23.38183594 128.35009766 C14.50277344 128.38103516 14.50277344 128.38103516 5.44433594 128.41259766 C3.57398682 128.42170166 1.7036377 128.43080566 -0.22338867 128.44018555 C-1.69742765 128.44310475 -3.17146744 128.4456533 -4.64550781 128.44775391 C-5.80379089 128.45542786 -5.80379089 128.45542786 -6.98547363 128.46325684 C-8.86341593 128.46356739 -10.74125659 128.41243334 -12.61816406 128.35009766 C-14.2763767 126.69188502 -13.74421979 124.7344877 -13.74514771 122.453125 C-13.74796753 121.39301208 -13.75078735 120.33289917 -13.75369263 119.24066162 C-13.7516684 118.06763489 -13.74964417 116.89460815 -13.74755859 115.68603516 C-13.74931091 114.45854553 -13.75106323 113.23105591 -13.75286865 111.96636963 C-13.7565269 108.59041487 -13.75565371 105.21452104 -13.75248957 101.83856964 C-13.74996563 98.31295182 -13.7523036 94.78733667 -13.75387573 91.26171875 C-13.75569733 85.34000173 -13.75329138 79.41829716 -13.74853516 73.49658203 C-13.74309255 66.64092956 -13.74485522 59.78530682 -13.75036156 52.92965508 C-13.75489297 47.05365684 -13.7555431 41.17766758 -13.75292289 35.30166817 C-13.75136027 31.78775673 -13.75116594 28.27385928 -13.75445938 24.75994873 C-13.75787238 20.84467402 -13.75314789 16.92943289 -13.74755859 13.01416016 C-13.74958282 11.84113342 -13.75160706 10.66810669 -13.75369263 9.45953369 C-13.7508728 8.39942078 -13.74805298 7.33930786 -13.74514771 6.24707031 C-13.74477068 5.3201236 -13.74439365 4.39317688 -13.7440052 3.43814087 C-13.41198651 -2.07094292 -4.32220327 0.03700174 0 0 Z " fill="#FFDA00" transform="translate(495.6181640625,759.64990234375)"/>
<path d="M0 0 C10.60125 -0.04125 21.2025 -0.0825 32.125 -0.125 C35.44320801 -0.14320801 38.76141602 -0.16141602 42.18017578 -0.18017578 C44.85188638 -0.18602474 47.52359879 -0.19111934 50.1953125 -0.1953125 C50.86859589 -0.20053925 51.54187927 -0.20576599 52.23556519 -0.21115112 C72.03772736 -0.35687383 89.15650338 1.75447994 103.9296875 15.83984375 C112.730252 25.07477087 115.7552109 36.50336132 116 49 C115.33544084 61.49099971 111.11737487 71.89837154 102.234375 80.76171875 C99.03911895 83.63050299 96.17596311 85.73455663 92 87 C94.66310703 91.90011693 97.63732224 96.43237977 100.8671875 100.9765625 C102.51620199 103.31417644 104.14396355 105.66168042 105.7578125 108.0234375 C106.48278931 109.08413452 106.48278931 109.08413452 107.22241211 110.16625977 C108.18029322 111.56948136 109.13689081 112.97358021 110.09204102 114.37866211 C112.08487023 117.29280291 114.06605581 120.07911207 116.33203125 122.79296875 C118 125 118 125 118 128 C83.46091418 130.67641584 83.46091418 130.67641584 75.08886719 126.57324219 C70.98977093 122.9392916 68.93806624 118.42040776 66.99804688 113.37451172 C65.32754984 109.40013449 62.83500439 106.01892092 60.375 102.5 C59.56938824 101.26101715 58.76461575 100.02148791 57.9609375 98.78125 C56.29254492 95.94906258 56.29254492 95.94906258 54 95 C48.72 95 43.44 95 38 95 C38 105.89 38 116.78 38 128 C25.46 128 12.92 128 0 128 C0 85.76 0 43.52 0 0 Z M38 30 C38 41.55 38 53.1 38 65 C41.774375 65.061875 45.54875 65.12375 49.4375 65.1875 C51.19404907 65.22846802 51.19404907 65.22846802 52.98608398 65.27026367 C60.8568378 65.33220664 67.56117024 64.63399727 73.9375 59.75 C77.34625729 55.20499028 78.25089119 51.02888141 77.875 45.4375 C77.19877823 41.06063601 76.08179641 38.30729371 73 35 C65.50037211 29.8720889 58.74700668 29.35487334 49.875 29.6875 C43.996875 29.8421875 43.996875 29.8421875 38 30 Z " fill="#FFFFFF" transform="translate(665,926)"/>
<path d="M0 0 C14.88551286 11.42809888 23.03165759 27.35519533 25.59375 45.7265625 C27.54062824 63.18874646 22.85752146 80.31287605 12.18359375 94.21875 C-0.00865815 108.56527198 -15.80521512 117.15574575 -34.56640625 119.71875 C-36.04369777 119.83050083 -37.52350338 119.911428 -39.00390625 119.96875 C-39.97585938 120.00871094 -40.9478125 120.04867187 -41.94921875 120.08984375 C-63.28497941 120.52684126 -81.9992167 114.67491406 -97.69140625 99.84375 C-112.52778696 84.35032958 -116.5522759 67.44896351 -116.27734375 46.7265625 C-116.0556874 39.9342218 -114.80869869 34.17101424 -112.00390625 27.96875 C-111.29234375 26.36193359 -111.29234375 26.36193359 -110.56640625 24.72265625 C-102.38438279 8.0242478 -88.6631022 -3.70675305 -71.26953125 -10.05859375 C-47.05381331 -17.27117003 -21.02016988 -14.21389901 0 0 Z M-71.5 29.59375 C-77.6698985 37.50293739 -79.17641082 47.13598947 -79.00390625 56.96875 C-77.81518798 66.37462761 -74.24271402 74.38463811 -67.12890625 80.78125 C-57.99117073 87.17766487 -50.15238235 88.83992197 -39.00390625 87.96875 C-29.87794999 86.090932 -22.60450707 81.35644609 -17.40625 73.578125 C-12.19882626 63.9223772 -10.72559933 53.72674472 -13.00390625 42.96875 C-16.82549242 32.68814494 -21.52058715 25.42590388 -31.62890625 20.65625 C-45.87770331 14.8848885 -61.0002942 18.18936981 -71.5 29.59375 Z " fill="#FFDA00" transform="translate(299.00390625,771.03125)"/>
<path d="M0 0 C12.21 0 24.42 0 37 0 C37.33 15.51 37.66 31.02 38 47 C47.57156355 46.96080289 47.57156355 46.96080289 57.14306641 46.90991211 C58.36687012 46.90741455 59.59067383 46.90491699 60.8515625 46.90234375 C62.68968506 46.89448853 62.68968506 46.89448853 64.56494141 46.88647461 C70.71914485 47.04400541 76.85942551 47.56138754 83 48 C83 32.16 83 16.32 83 0 C89.084375 -0.020625 95.16875 -0.04125 101.4375 -0.0625 C103.36005615 -0.071604 105.2826123 -0.08070801 107.26342773 -0.09008789 C108.77848236 -0.09300707 110.29353777 -0.09555562 111.80859375 -0.09765625 C112.60237427 -0.10277222 113.39615479 -0.10788818 114.21398926 -0.11315918 C116.14302829 -0.11346956 118.07196912 -0.06235893 120 0 C121 1 121 1 121.12304783 3.1064539 C121.12212604 4.04207377 121.12120424 4.97769365 121.12025452 5.94166565 C121.12231651 7.54662399 121.12231651 7.54662399 121.12442017 9.18400574 C121.11902725 10.95992851 121.11902725 10.95992851 121.11352539 12.77172852 C121.11367142 14.010578 121.11381744 15.24942749 121.1139679 16.52581787 C121.11338892 19.93269833 121.10835959 23.33951884 121.10139394 26.74638867 C121.09515993 30.30316826 121.09455656 33.85994858 121.09336853 37.41673279 C121.09025535 44.15636582 121.08204215 50.89598271 121.07201904 57.63560861 C121.06085748 65.30658398 121.05534735 72.97756011 121.05032361 80.64854157 C121.03985952 96.432372 121.02151421 112.21618018 121 128 C108.46 128 95.92 128 83 128 C83 111.83 83 95.66 83 79 C67.82 79 52.64 79 37 79 C37 95.17 37 111.34 37 128 C24.79 128 12.58 128 0 128 C0 85.76 0 43.52 0 0 Z " fill="#FFFFFF" transform="translate(0,926)"/>
<path d="M0 0 C33 0 66 0 100 0 C100 9.9 100 19.8 100 30 C79.21 30 58.42 30 37 30 C37 36.27 37 42.54 37 49 C55.48 49 73.96 49 93 49 C93 58.24 93 67.48 93 77 C74.52 77 56.04 77 37 77 C37 83.93 37 90.86 37 98 C58.78 98 80.56 98 103 98 C103 107.9 103 117.8 103 128 C69.01 128 35.02 128 0 128 C0 85.76 0 43.52 0 0 Z " fill="#FFFFFF" transform="translate(545,926)"/>
<path d="M0 0 C12.21 0 24.42 0 37 0 C37.1447955 6.68127813 37.28793201 13.36255556 37.42724609 20.04394531 C37.47484456 22.30503223 37.52331216 24.56610107 37.57275391 26.82714844 C37.64468649 30.12430321 37.71374536 33.42150171 37.78125 36.71875 C37.80421143 37.81654785 37.82717285 38.9143457 37.85083008 40.04541016 C37.95582124 45.57386391 38.00846327 51.09562278 37.9609375 56.625 C37.95284058 57.69206177 37.94474365 58.75912354 37.93640137 59.85852051 C37.91704724 61.85497362 37.88892167 63.85137193 37.84973145 65.84753418 C37.76538223 74.32331803 38.17362342 83.76043512 43 91 C48.34929499 96.23042177 52.88743379 98.04400138 60.25 98.4375 C66.19240785 98.30778851 71.3437059 96.77649522 76 93 C83.49212134 81.545468 82.2861926 66.63646295 82.16015625 53.37890625 C82.15386314 51.85717659 82.14863067 50.33544222 82.14439392 48.81370544 C82.13128077 44.86701476 82.10691151 40.92048799 82.07904053 36.97387695 C82.03536623 30.6067763 82.00624713 24.23962364 81.9829998 17.87241936 C81.9727807 15.65590043 81.95575529 13.4395075 81.93800354 11.22303772 C81.93118349 9.8798941 81.9245746 8.53674938 81.91821289 7.19360352 C81.90995987 6.01830582 81.90170685 4.84300812 81.89320374 3.63209534 C82 1 82 1 83 0 C85.65456193 -0.10095564 88.28255176 -0.13970998 90.9375 -0.1328125 C91.732771 -0.13376923 92.52804199 -0.13472595 93.34741211 -0.13571167 C95.0320646 -0.13639343 96.71671971 -0.13453943 98.40136719 -0.13037109 C100.98899197 -0.12502275 103.57644316 -0.13031619 106.1640625 -0.13671875 C107.79687539 -0.13605797 109.42968816 -0.1347768 111.0625 -0.1328125 C111.84165771 -0.13483673 112.62081543 -0.13686096 113.42358398 -0.13894653 C118.88504895 -0.11495105 118.88504895 -0.11495105 120 1 C120.11099017 3.42078908 120.15738563 5.81331389 120.16113281 8.23510742 C120.16858017 9.37202278 120.16858017 9.37202278 120.17617798 10.53190613 C120.19085696 13.05643612 120.19761657 15.58090296 120.203125 18.10546875 C120.20887864 19.8641205 120.21463634 21.62277223 120.22039795 23.38142395 C120.23092886 27.08298027 120.23675556 30.78451478 120.24023438 34.48608398 C120.24567616 39.19413795 120.26960137 43.90189637 120.29820633 48.60985851 C120.31699333 52.25194585 120.32204711 55.89396491 120.32357025 59.53609657 C120.32656918 61.26897075 120.33450258 63.00184454 120.34775543 64.73467064 C120.47281299 82.36780028 118.65806249 100.95523022 105.76953125 114.421875 C90.90791557 127.67594284 73.67905186 132.11111334 54 131 C38.65307463 130.09723968 25.35329738 125.58953084 14.26953125 114.60546875 C0.94798923 99.31206337 -0.31394614 81.52232771 -0.1953125 62.20703125 C-0.19157526 60.40671446 -0.18873165 58.60639561 -0.18673706 56.80607605 C-0.17915657 52.10271437 -0.15955704 47.39947921 -0.1373291 42.69616699 C-0.11312132 37.03418339 -0.10406306 31.37215712 -0.09242249 25.71013641 C-0.07312863 17.14000336 -0.03476733 8.57014709 0 0 Z " fill="#FFDA00" transform="translate(341,760)"/>
<path d="M0 0 C12.21 0 24.42 0 37 0 C37.06058594 5.15367187 37.12117188 10.30734375 37.18359375 15.6171875 C37.22412855 18.89844503 37.26492234 22.17969532 37.30664062 25.4609375 C37.37271138 30.6594786 37.43786654 35.85801902 37.49731445 41.05664062 C37.54534772 45.25179487 37.59769954 49.44687577 37.65294075 53.64194107 C37.67318935 55.23574094 37.69192908 56.82956078 37.70907402 58.42339706 C37.01304169 76.62191819 37.01304169 76.62191819 44.3515625 92.53515625 C49.57431492 97.32500673 55.79407526 98.50007644 62.6640625 98.3125 C68.22266341 97.56887446 73.16904075 95.32445605 76.9375 91.125 C83.32869846 81.44136598 82.1383932 69.21306963 82.07516479 58.04011536 C82.06225088 55.73681722 82.05584912 53.43357749 82.05102539 51.13024902 C82.03968699 46.2534727 82.02039877 41.37674571 82 36.5 C81.97638051 30.81770693 81.95603888 25.13544026 81.94406128 19.45310974 C81.93757623 17.18293622 81.92507804 14.91284609 81.91235352 12.6427002 C81.90872336 11.25984774 81.90537133 9.87699453 81.90234375 8.49414062 C81.89710693 7.28520142 81.89187012 6.07626221 81.88647461 4.83068848 C82 2 82 2 83 0 C88.10863896 -0.0246501 93.21724359 -0.04283607 98.32592773 -0.05493164 C100.06519168 -0.05997204 101.80445136 -0.0668043 103.54370117 -0.07543945 C106.03825937 -0.08751792 108.53276173 -0.09323108 111.02734375 -0.09765625 C111.80963852 -0.10281754 112.59193329 -0.10797882 113.39793396 -0.11329651 C115.26567114 -0.11349226 117.13329204 -0.06199694 119 0 C120.670778 1.670778 120.13177242 3.7093659 120.14663696 5.94110107 C120.14595718 7.00146576 120.14595718 7.00146576 120.14526367 8.08325195 C120.14862228 8.82490097 120.1519809 9.56654999 120.15544128 10.33067322 C120.1649913 12.79989267 120.16689738 15.26904443 120.16796875 17.73828125 C120.17118201 19.45688403 120.17454614 21.17548654 120.17805481 22.89408875 C120.1840586 26.50988395 120.18589378 30.12565523 120.18530273 33.74145508 C120.18520183 38.3465093 120.19877319 42.95140683 120.21607494 47.55642414 C120.22727496 51.11436141 120.22921939 54.67226199 120.22869301 58.23021507 C120.22986422 59.92565633 120.23423706 61.62109882 120.24202538 63.3165226 C120.32452339 83.15637969 118.12700995 100.58716826 103.6796875 115.375 C91.11473345 127.34912549 76.68536786 130.59219245 59.625 130.4375 C58.44615234 130.42992676 57.26730469 130.42235352 56.05273438 130.41455078 C42.50563369 130.1589099 31.59446501 127.23147506 20 120 C20 119.34 20 118.68 20 118 C19.40960938 117.73960938 18.81921875 117.47921875 18.2109375 117.2109375 C9.59279516 112.49075353 4.7197687 101.66787583 1.99609375 92.69140625 C-0.92735564 80.70102688 -1.15147247 68.84464258 -1.1328125 56.5625 C-1.1334873 54.98974594 -1.13445879 53.41699199 -1.13571167 51.84423828 C-1.1371769 48.56981398 -1.13506981 45.29541717 -1.13037109 42.02099609 C-1.12463656 37.81993967 -1.12798356 33.61894663 -1.13394356 29.41789246 C-1.13754885 26.18035398 -1.13641139 22.94283067 -1.13381577 19.70529175 C-1.13314836 18.15510043 -1.13396843 16.60490774 -1.13629532 15.05471802 C-1.13882538 12.89842031 -1.13497799 10.74222736 -1.12939453 8.5859375 C-1.12859894 7.3592334 -1.12780334 6.1325293 -1.12698364 4.86865234 C-1 2 -1 2 0 0 Z " fill="#FFFFFF" transform="translate(144,926)"/>
<path d="M0 0 C-1.91025522 7.27237513 -4.64120951 14.04569894 -7.6953125 20.8984375 C-8.7060017 23.30109387 -9.48679903 25.45902934 -10 28 C-14.32033947 27.335963 -18.0776015 25.77675436 -22.0625 24.0625 C-33.77468072 19.21518972 -47.71638374 16.39067398 -60 21 C-63.17967867 23.40098186 -64.74962866 24.68555048 -65.5 28.625 C-64.89926607 31.47848614 -64.21603672 32.15487872 -62 34 C-53.43727686 38.06200757 -43.97363347 39.71052907 -34.75976562 41.62304688 C-20.0493796 44.83083753 -6.8392843 50.26695502 2 63 C4.92302274 68.54554782 5.51756066 73.08700827 5.4375 79.3125 C5.42775146 80.15482178 5.41800293 80.99714355 5.40795898 81.86499023 C5.06644031 93.84129782 0.58873471 100.74438653 -8 109 C-20.37799352 119.65719821 -36.35231272 121.56212709 -52.125 121.4375 C-52.80120392 121.43412628 -53.47740784 121.43075256 -54.17410278 121.42727661 C-69.85554475 121.3143475 -93.03137235 119.96862765 -105 108 C-104.73470582 102.05930523 -102.02518109 96.59565698 -99.75 91.1875 C-99.17572266 89.73827148 -99.17572266 89.73827148 -98.58984375 88.25976562 C-98.20441406 87.34259766 -97.81898438 86.42542969 -97.421875 85.48046875 C-97.07737305 84.64410889 -96.73287109 83.80774902 -96.37792969 82.94604492 C-95 81 -95 81 -92.51025391 80.15283203 C-89.14818072 79.9481386 -87.52605214 81.00944043 -84.625 82.6875 C-71.44327446 89.68520615 -54.14415967 93.80301674 -39.5 89.625 C-36.54501656 88.69922987 -35.21602194 88.21602194 -33 86 C-32.49957854 83.08461971 -32.49957854 83.08461971 -33 80 C-35.8742361 76.40213269 -38.41039586 75.264879 -42.8125 74.125 C-44.04097656 73.79757812 -45.26945313 73.47015625 -46.53515625 73.1328125 C-48.0229699 72.75337009 -49.5113015 72.37595579 -51 72 C-53.90537595 71.26214317 -56.81015722 70.52219768 -59.71362305 69.77685547 C-61.69103669 69.27093521 -63.67030413 68.77218891 -65.65161133 68.28173828 C-79.57030435 64.74778416 -92.52575377 59.68956543 -100.25390625 46.9296875 C-104.46771337 38.26715719 -104.38830409 27.82687246 -102.1875 18.58984375 C-98.11031708 7.61825776 -90.43402048 -0.03336554 -80.2421875 -5.53125 C-56.11357442 -16.46180243 -22.39908281 -14.45102117 0 0 Z " fill="#FFFFFF" transform="translate(895,935)"/>
<path d="M0 0 C37.62 0 75.24 0 114 0 C114.89007477 3.56029909 115.12880409 6.19918094 115.1328125 9.82421875 C115.13410156 10.93474609 115.13539063 12.04527344 115.13671875 13.18945312 C115.13285156 14.34380859 115.12898437 15.49816406 115.125 16.6875 C115.12886719 17.85345703 115.13273438 19.01941406 115.13671875 20.22070312 C115.13542969 21.32736328 115.13414062 22.43402344 115.1328125 23.57421875 C115.13168457 24.59088623 115.13055664 25.60755371 115.12939453 26.6550293 C115 29 115 29 114 30 C101.46 30 88.92 30 76 30 C76 62.34 76 94.68 76 128 C63.79 128 51.58 128 39 128 C37.08935701 126.08935701 37.87985389 123.26172105 37.87557983 120.71983337 C37.88097275 119.36469383 37.88097275 119.36469383 37.88647461 117.98217773 C37.88632858 117.03593536 37.88618256 116.08969299 37.8860321 115.11477661 C37.88673164 111.97102608 37.89452591 108.82733399 37.90234375 105.68359375 C37.90420779 103.51025932 37.90563176 101.33692448 37.90663147 99.16358948 C37.91045779 93.43098805 37.92028903 87.69841177 37.93133545 81.96582031 C37.94154713 76.12109721 37.94612857 70.27637007 37.95117188 64.43164062 C37.9619112 52.95441423 37.97950892 41.47721314 38 30 C25.46 30 12.92 30 0 30 C-0.8716575 26.51336999 -1.12870221 23.97099503 -1.1328125 20.4296875 C-1.13410156 19.36878906 -1.13539063 18.30789063 -1.13671875 17.21484375 C-1.13285156 16.11269531 -1.12898438 15.01054688 -1.125 13.875 C-1.12886719 12.76511719 -1.13273437 11.65523437 -1.13671875 10.51171875 C-1.13542969 9.45339844 -1.13414062 8.39507813 -1.1328125 7.3046875 C-1.13168457 6.33515137 -1.13055664 5.36561523 -1.12939453 4.36669922 C-1 2 -1 2 0 0 Z " fill="#FFFFFF" transform="translate(419,926)"/>
<path d="M0 0 C5.6601722 3.22648252 9.50341123 7.82273368 11.5625 14 C12.18990363 22.92843623 12.25923872 29.70379013 6.25 36.6875 C-0.00796421 42.0722599 -3.8867475 43.63201727 -12 43.4375 C-12.83724609 43.44458984 -13.67449219 43.45167969 -14.53710938 43.45898438 C-20.50091253 43.39759923 -23.85074288 42.33336051 -28.3515625 38.2734375 C-33.01875396 33.09477301 -36.2120662 28.09676422 -36.52734375 20.96875 C-36.05446664 14.85772275 -33.99483081 8.50918023 -29.5703125 4.16796875 C-20.80373385 -2.63026488 -10.42862131 -4.69287959 0 0 Z M-24.3125 11.0625 C-27.93152186 16.06526552 -27.97487687 19.92572222 -27.4375 26 C-25.81526841 29.73113266 -23.49282814 32.32658788 -20.4375 35 C-14.6366439 36.9336187 -8.5393254 36.99359019 -3 34.375 C0.53271775 31.10077379 3.20437962 28.50684266 3.91015625 23.56640625 C4.13082993 17.10930242 2.85968208 13.77246113 -1.25 8.8125 C-4.50814013 6.11289818 -7.71975932 5.22022316 -11.875 4.6875 C-17.01401361 5.31420898 -20.97286199 7.11477761 -24.3125 11.0625 Z " fill="#FFFFFF" transform="translate(454.4375,1097)"/>
<path d="M0 0 C22 0 22 0 32 4 C36.29793235 9.1365533 37.44996938 13.36295161 37 20 C35.36869012 24.15984019 33.43157635 27.12190371 30 30 C29.34 30 28.68 30 28 30 C28.6496875 30.91523437 29.299375 31.83046875 29.96875 32.7734375 C30.81274508 33.97378605 31.65648173 35.17431634 32.5 36.375 C32.92925781 36.97828125 33.35851562 37.5815625 33.80078125 38.203125 C37 42.7734375 37 42.7734375 37 45 C32.00984898 45.78791858 32.00984898 45.78791858 29 45 C26.15720339 42.32766121 24.09401616 39.27685232 22 36 C21.34 35.01 20.68 34.02 20 33 C17.11404054 32.41518879 17.11404054 32.41518879 13.875 32.3125 C11.93625 32.209375 9.9975 32.10625 8 32 C8 36.29 8 40.58 8 45 C5.36 45 2.72 45 0 45 C0 30.15 0 15.3 0 0 Z M8 8 C8 13.61 8 19.22 8 25 C17.17739157 25.8376599 17.17739157 25.8376599 25.8125 23.375 C28.49838717 20.45889393 29.08076408 18.95743993 29 15 C27.39588152 11.47093933 26.25840638 10.17227092 23 8 C20.3886146 7.85730134 17.91622711 7.81227296 15.3125 7.875 C11.6928125 7.936875 11.6928125 7.936875 8 8 Z " fill="#FFFFFF" transform="translate(486,1095)"/>
<path d="M0 0 C10.56 0 21.12 0 32 0 C32 2.31 32 4.62 32 7 C31 8 31 8 28.86694336 8.11352539 C27.95050049 8.10828857 27.03405762 8.10305176 26.08984375 8.09765625 C25.10048828 8.09443359 24.11113281 8.09121094 23.09179688 8.08789062 C22.05087891 8.07951172 21.00996094 8.07113281 19.9375 8.0625 C18.89271484 8.05798828 17.84792969 8.05347656 16.77148438 8.04882812 C14.18096546 8.03699927 11.59047578 8.01906319 9 8 C8.67 11.63 8.34 15.26 8 19 C15.26 19 22.52 19 30 19 C30 21.31 30 23.62 30 26 C22.74 26 15.48 26 8 26 C8 29.96 8 33.92 8 38 C16.25 38 24.5 38 33 38 C33.495 41.465 33.495 41.465 34 45 C22.78 45 11.56 45 0 45 C0 30.15 0 15.3 0 0 Z " fill="#FFFFFF" transform="translate(261,1095)"/>
<path d="M0 0 C26.4 0 26.4 0 33 5.5 C36.91310364 10.39137956 36.62785627 15.9880612 36 22 C33.9976035 26.004793 31.82001123 28.6587028 28 31 C25.29283758 31.90238747 23.76223232 32.11851302 20.98828125 32.09765625 C19.85229492 32.09282227 19.85229492 32.09282227 18.69335938 32.08789062 C17.51483398 32.07532227 17.51483398 32.07532227 16.3125 32.0625 C15.51521484 32.05798828 14.71792969 32.05347656 13.89648438 32.04882812 C11.93095743 32.0370585 9.96546915 32.01912348 8 32 C8 36.29 8 40.58 8 45 C5.36 45 2.72 45 0 45 C0 30.15 0 15.3 0 0 Z M8 8 C8 13.61 8 19.22 8 25 C11.3103125 25.0928125 11.3103125 25.0928125 14.6875 25.1875 C15.92886719 25.22230469 17.17023438 25.25710938 18.44921875 25.29296875 C22.49607131 24.95907002 25.11242948 23.88757052 28 21 C28.71007022 15.20580633 28.71007022 15.20580633 25.96484375 10.25390625 C22.2925989 7.46222604 19.58965151 7.41582162 15.1875 7.6875 C12.815625 7.790625 10.44375 7.89375 8 8 Z " fill="#FFFFFF" transform="translate(366,1095)"/>
<path d="M0 0 C1.2684375 0.7425 1.2684375 0.7425 2.5625 1.5 C2.2325 4.14 1.9025 6.78 1.5625 9.5 C0.61890625 9.17515625 0.61890625 9.17515625 -0.34375 8.84375 C-5.92964232 7.0266525 -10.56258265 5.89224993 -16.4375 6.5 C-18.8970774 7.83830958 -18.8970774 7.83830958 -20.4375 9.5 C-20.1075 11.15 -19.7775 12.8 -19.4375 14.5 C-18.91542969 14.67015625 -18.39335937 14.8403125 -17.85546875 15.015625 C-11.6692864 17.05240658 -5.54891892 19.24962705 0.5625 21.5 C0.5625 22.16 0.5625 22.82 0.5625 23.5 C1.5525 23.83 2.5425 24.16 3.5625 24.5 C5.32095645 28.01691289 5.24315337 31.67210537 4.5625 35.5 C2.53244709 38.8792573 0.11455232 41.72397384 -3.4375 43.5 C-6.6812143 43.76561432 -9.93411931 43.73156725 -13.1875 43.75 C-14.52941406 43.7809375 -14.52941406 43.7809375 -15.8984375 43.8125 C-21.16319275 43.8435605 -24.90656211 43.50357334 -29.4375 40.5 C-30.4375 38.5625 -30.4375 38.5625 -30.4375 36.5 C-29.5 34.25 -29.5 34.25 -28.4375 32.5 C-26.29185774 33.00196218 -24.22609679 33.57262491 -22.140625 34.2890625 C-16.37651063 36.25326708 -12.40739916 36.77926411 -6.4375 35.5 C-5.4475 35.005 -5.4475 35.005 -4.4375 34.5 C-4.4375 32.85 -4.4375 31.2 -4.4375 29.5 C-8.42140157 27.68126233 -12.27513629 26.22577564 -16.5 25.0625 C-21.33064086 23.65080587 -25.80323436 22.11372451 -28.59765625 17.64453125 C-30.07660491 13.86805304 -29.47878668 10.35142571 -28.4375 6.5 C-22.91611488 -3.24483269 -9.64179436 -4.18604652 0 0 Z " fill="#FFFFFF" transform="translate(340.4375,1096.5)"/>
<path d="M0 0 C2.1875 1.08984375 2.1875 1.08984375 5.25 3.08984375 C4.59 5.39984375 3.93 7.70984375 3.25 10.08984375 C2.60933594 9.87328125 1.96867188 9.65671875 1.30859375 9.43359375 C-4.61788041 7.52581667 -9.96406192 5.89428436 -16.125 7.83984375 C-17.88551252 9.00098973 -17.88551252 9.00098973 -18.6875 11.02734375 C-18.97618844 13.15539394 -18.97618844 13.15539394 -17.49365234 14.64526367 C-15.58350914 16.227778 -14.31080048 16.70464305 -11.9140625 17.265625 C-11.17929687 17.45447266 -10.44453125 17.64332031 -9.6875 17.83789062 C-8.15587812 18.2117409 -6.62199616 18.57645983 -5.0859375 18.93164062 C0.55974851 20.40721765 2.9833583 22.22141249 6.25 27.08984375 C7.60743561 31.07731086 7.36373222 32.75433369 6 36.77734375 C3.79274344 40.95536509 2.71940217 42.60004303 -1.75 44.08984375 C-4.84974821 44.34089711 -7.95362271 44.32107317 -11.0625 44.33984375 C-11.90490234 44.36046875 -12.74730469 44.38109375 -13.61523438 44.40234375 C-18.77313547 44.43460584 -22.2597869 43.91675057 -26.75 41.08984375 C-27.75 40.08984375 -27.75 40.08984375 -27.8125 37.52734375 C-27.791875 36.72296875 -27.77125 35.91859375 -27.75 35.08984375 C-23.87077958 34.04570421 -21.58013614 34.18813659 -17.8125 35.52734375 C-13.079893 37.06034275 -9.29096998 37.91394212 -4.4375 36.33984375 C-2.59262252 35.19995593 -2.59262252 35.19995593 -1.9375 33.08984375 C-1.56548911 31.01824251 -1.56548911 31.01824251 -2.75 29.08984375 C-6.00606241 27.98571186 -9.27184134 27.03728254 -12.58398438 26.12109375 C-18.15513155 24.4955328 -22.58052981 22.25931394 -26.75 18.08984375 C-27.69648676 13.72144334 -28.08935351 11.17153305 -26.75 6.90234375 C-20.28286613 -2.19206326 -10.4781041 -3.46789525 0 0 Z " fill="#FFFFFF" transform="translate(614.75,1095.91015625)"/>
<path d="M0 0 C5.25105442 -0.02464928 10.50207545 -0.04283568 15.75317383 -0.05493164 C17.54094021 -0.05997218 19.32870245 -0.06680454 21.11645508 -0.07543945 C23.68051168 -0.0875173 26.24451397 -0.09323094 28.80859375 -0.09765625 C29.6127623 -0.10281754 30.41693085 -0.10797882 31.24546814 -0.11329651 C33.16401715 -0.11349215 35.08245368 -0.06201983 37 0 C38 1 38 1 38.0625 4.0625 C38.041875 5.031875 38.02125 6.00125 38 7 C32.75103182 8.07671142 28.60877798 8 23 8 C23 20.21 23 32.42 23 45 C20.36 45 17.72 45 15 45 C15 32.79 15 20.58 15 8 C10.05 8 5.1 8 0 8 C0 5.36 0 2.72 0 0 Z " fill="#FFFFFF" transform="translate(536,1095)"/>
</svg>
