<?xml version="1.0" encoding="UTF-8"?>
<svg version="1.1" xmlns="http://www.w3.org/2000/svg" width="69" height="75">
<path d="M0 0 C0 2.64 0 5.28 0 8 C0.763125 7.67 1.52625 7.34 2.3125 7 C5 6 5 6 8 6 C8.31983794 11.33063225 7.5160562 14.33770164 5 19 C6.10859375 19.44730469 7.2171875 19.89460938 8.359375 20.35546875 C9.82322504 20.96540627 11.28674986 21.57612472 12.75 22.1875 C13.47960938 22.47947266 14.20921875 22.77144531 14.9609375 23.07226562 C19.5942945 25.03091199 22.00846782 26.83416024 25 31 C27.3317145 32.82213451 29.72977717 34.48617019 32.171875 36.15625 C34 38 34 38 34.58203125 40.51171875 C34 43 34 43 31.83984375 44.73828125 C30.88207031 45.25777344 29.92429687 45.77726562 28.9375 46.3125 C17.91453817 52.91501481 11.65664568 63.68670864 6 75 C1.12335991 75.34833144 -1.77050005 74.41685712 -6 72 C-6.33 72.66 -6.66 73.32 -7 74 C-12.50279759 73.77071677 -16.14089132 72.34438072 -20.4609375 68.875 C-22.79796743 66.02785694 -22.67946452 63.75683699 -22.34765625 60.19140625 C-22.17556641 59.10666016 -22.17556641 59.10666016 -22 58 C-21.835 56.824375 -21.67 55.64875 -21.5 54.4375 C-21.335 53.633125 -21.17 52.82875 -21 52 C-24.24299151 54.38957269 -26.50902342 56.2047869 -28 60 C-29.32 60 -30.64 60 -32 60 C-34.35147334 54.14124438 -35.2912565 50.1980312 -34 44 C-34.33 43.67 -34.66 43.34 -35 43 C-35.13347463 40.53071944 -35.12951476 38.44610639 -34.4375 36.0625 C-33.83062206 33.88753093 -33.83062206 33.88753093 -34.578125 31.26171875 C-35.06080344 27.52989932 -34.51083301 25.29599656 -33.3125 21.75 C-32.97863281 20.71359375 -32.64476562 19.6771875 -32.30078125 18.609375 C-30.79369302 15.58614696 -29.96364023 15.34608087 -27 14 C-25.31342113 11.71548975 -23.91551476 9.33802747 -22.46484375 6.8984375 C-21.98144531 6.27195312 -21.49804688 5.64546875 -21 5 C-20.01 5 -19.02 5 -18 5 C-17.34 5.66 -16.68 6.32 -16 7 C-14.89591797 6.24203125 -14.89591797 6.24203125 -13.76953125 5.46875 C-12.79371094 4.8190625 -11.81789063 4.169375 -10.8125 3.5 C-9.36810547 2.52546875 -9.36810547 2.52546875 -7.89453125 1.53125 C-4.90317208 -0.05122341 -3.31760144 -0.33964475 0 0 Z " fill="#121212" transform="translate(35,0)"/>
<path d="M0 0 C0 0.66 0 1.32 0 2 C1.19625 2.12375 2.3925 2.2475 3.625 2.375 C7.27596813 2.82325054 10.54524899 3.70446837 14 5 C14 5.66 14 6.32 14 7 C16.01791336 8.58969247 16.01791336 8.58969247 18.5 10.125 C19.3353125 10.66382813 20.170625 11.20265625 21.03125 11.7578125 C22.00578125 12.37269531 22.00578125 12.37269531 23 13 C19.94119149 15.03920567 18.6182016 15.83553629 15 16 C12.46993608 14.87961826 10.3373308 13.51239052 8 12 C8.495 12.99 8.495 12.99 9 14 C9.22467831 15.53668865 9.40796805 17.07968054 9.5625 18.625 C9.64628906 19.44226563 9.73007812 20.25953125 9.81640625 21.1015625 C9.87699219 21.72804688 9.93757813 22.35453125 10 23 C13.13626677 22.5387843 15.33242951 21.83052613 18.1875 20.375 C19.5796875 19.694375 19.5796875 19.694375 21 19 C21.66 19.33 22.32 19.66 23 20 C22.195625 20.5775 21.39125 21.155 20.5625 21.75 C12.84971437 28.16820459 7.39051665 37.62884473 2 46 C-1.12176165 45.03117742 -1.99205183 44.01311357 -3.70703125 41.18359375 C-5.80125208 35.71479907 -5.57249751 29.84219651 -5.6875 24.0625 C-5.73874023 22.32129883 -5.73874023 22.32129883 -5.79101562 20.54492188 C-5.87306285 17.69671118 -5.94235536 14.84879161 -6 12 C-6.66 11.67 -7.32 11.34 -8 11 C-7.67 12.32 -7.34 13.64 -7 15 C-7.99 15.495 -7.99 15.495 -9 16 C-8.67 17.32 -8.34 18.64 -8 20 C-8.99 20 -9.98 20 -11 20 C-11.33 20.99 -11.66 21.98 -12 23 C-13.9609375 23.765625 -13.9609375 23.765625 -16.375 24.25 C-17.16648437 24.42015625 -17.95796875 24.5903125 -18.7734375 24.765625 C-21 25 -21 25 -24 24 C-26.77000825 27.32086771 -26.77000825 27.32086771 -29 31 C-29.66 31 -30.32 31 -31 31 C-31.28855285 26.0946016 -31.26204794 22.8445565 -28 19 C-26.68 19 -25.36 19 -24 19 C-23.67 19.66 -23.34 20.32 -23 21 C-21.35 19.68 -19.7 18.36 -18 17 C-18.99 16.01 -19.98 15.02 -21 14 C-21.37125 14.495 -21.7425 14.99 -22.125 15.5 C-24.74694393 17.59755514 -26.73842472 17.21743835 -30 17 C-29 15 -29 15 -26 14 C-25.38125 13.05125 -24.7625 12.1025 -24.125 11.125 C-21.96887216 7.95422376 -20.37782273 6.68891137 -17 5 C-17.33 6.65 -17.66 8.3 -18 10 C-17.34 10 -16.68 10 -16 10 C-16 9.01 -16 8.02 -16 7 C-14.9375 4.4375 -14.9375 4.4375 -13 2 C-8.58485297 0.25060212 -4.72427216 -0.2304523 0 0 Z " fill="#F5F5F5" transform="translate(35,22)"/>
<path d="M0 0 C0 2.64 0 5.28 0 8 C0.763125 7.67 1.52625 7.34 2.3125 7 C5 6 5 6 8 6 C8.31983794 11.33063225 7.5160562 14.33770164 5 19 C6.10859375 19.44730469 7.2171875 19.89460938 8.359375 20.35546875 C9.82322504 20.96540627 11.28674986 21.57612472 12.75 22.1875 C13.47960938 22.47947266 14.20921875 22.77144531 14.9609375 23.07226562 C19.5942945 25.03091199 22.00846782 26.83416024 25 31 C27.3317145 32.82213451 29.72977717 34.48617019 32.171875 36.15625 C34 38 34 38 34.58203125 40.51171875 C34 43 34 43 31.83984375 44.73828125 C30.88207031 45.25777344 29.92429687 45.77726562 28.9375 46.3125 C17.91453817 52.91501481 11.65664568 63.68670864 6 75 C1.12335991 75.34833144 -1.77050005 74.41685712 -6 72 C-6.33 72.66 -6.66 73.32 -7 74 C-12.50279759 73.77071677 -16.14089132 72.34438072 -20.4609375 68.875 C-22.79796743 66.02785694 -22.67946452 63.75683699 -22.34765625 60.19140625 C-22.17556641 59.10666016 -22.17556641 59.10666016 -22 58 C-21.835 56.824375 -21.67 55.64875 -21.5 54.4375 C-21.335 53.633125 -21.17 52.82875 -21 52 C-24.24299151 54.38957269 -26.50902342 56.2047869 -28 60 C-29.32 60 -30.64 60 -32 60 C-34.35147334 54.14124438 -35.2912565 50.1980312 -34 44 C-34.33 43.67 -34.66 43.34 -35 43 C-35.13347463 40.53071944 -35.12951476 38.44610639 -34.4375 36.0625 C-33.83062206 33.88753093 -33.83062206 33.88753093 -34.578125 31.26171875 C-35.06080344 27.52989932 -34.51083301 25.29599656 -33.3125 21.75 C-32.97863281 20.71359375 -32.64476562 19.6771875 -32.30078125 18.609375 C-30.79369302 15.58614696 -29.96364023 15.34608087 -27 14 C-25.31342113 11.71548975 -23.91551476 9.33802747 -22.46484375 6.8984375 C-21.98144531 6.27195312 -21.49804688 5.64546875 -21 5 C-20.01 5 -19.02 5 -18 5 C-17.34 5.66 -16.68 6.32 -16 7 C-14.89591797 6.24203125 -14.89591797 6.24203125 -13.76953125 5.46875 C-12.79371094 4.8190625 -11.81789063 4.169375 -10.8125 3.5 C-9.36810547 2.52546875 -9.36810547 2.52546875 -7.89453125 1.53125 C-4.90317208 -0.05122341 -3.31760144 -0.33964475 0 0 Z M-8.25 3.75 C-9.04792969 4.29398437 -9.84585937 4.83796875 -10.66796875 5.3984375 C-11.82232422 6.19121094 -11.82232422 6.19121094 -13 7 C-14.18601748 7.79388594 -15.37325625 8.58595522 -16.5625 9.375 C-17.366875 9.91125 -18.17125 10.4475 -19 11 C-19 10.01 -19 9.02 -19 8 C-19.66 8 -20.32 8 -21 8 C-22.45086944 9.88591255 -22.45086944 9.88591255 -23.875 12.25 C-26.00979899 15.58236916 -28.20340835 18.20340835 -31 21 C-32.97523541 24.75294729 -33.35118841 27.78573905 -33 32 C-32.443125 33.299375 -32.443125 33.299375 -31.875 34.625 C-31 37 -31 37 -31.875 39.3125 C-32.24625 39.869375 -32.6175 40.42625 -33 41 C-32.34 41.33 -31.68 41.66 -31 42 C-31.33 42.66 -31.66 43.32 -32 44 C-32.12145993 45.83037287 -32.17543185 47.66564133 -32.1875 49.5 C-32.20167969 50.4796875 -32.21585938 51.459375 -32.23046875 52.46875 C-32.25680034 55.169918 -32.25680034 55.169918 -30 57 C-29.484375 56.236875 -28.96875 55.47375 -28.4375 54.6875 C-26.17631601 52.1943997 -25.29969055 51.50664467 -22.34765625 50.33203125 C-21.24292969 49.89246094 -20.13820313 49.45289063 -19 49 C-19.23009766 50.75376953 -19.23009766 50.75376953 -19.46484375 52.54296875 C-20.7115295 60.66531063 -20.7115295 60.66531063 -18.68359375 68.27734375 C-15.70166196 70.49930156 -13.78173814 71.04989818 -10.0625 70.8125 C-9.0415625 70.4103125 -9.0415625 70.4103125 -8 70 C-8 69.34 -8 68.68 -8 68 C-7.39671875 68.37253906 -6.7934375 68.74507813 -6.171875 69.12890625 C-4.97304688 69.83853516 -4.97304688 69.83853516 -3.75 70.5625 C-2.56664062 71.27599609 -2.56664062 71.27599609 -1.359375 72.00390625 C0.89070635 73.12270705 0.89070635 73.12270705 3.06640625 73.0546875 C6.10537997 71.39706547 7.18069261 68.54396438 8.6875 65.5625 C14.44362985 54.91189575 21.73911719 47.46928311 32 41 C30.58426179 37.60812721 28.95769034 35.90302459 26 33.75 C25.29875 33.22921875 24.5975 32.7084375 23.875 32.171875 C22.08584879 30.82333369 22.08584879 30.82333369 20 31 C20 30.01 20 29.02 20 28 C10.46942858 22.84882587 10.46942858 22.84882587 0 21 C0.52400391 20.32904297 0.52400391 20.32904297 1.05859375 19.64453125 C3.68898628 16.14976044 5.59207142 13.48721443 6 9 C3.36 9.33 0.72 9.66 -2 10 C-2 7.03 -2 4.06 -2 1 C-4.76957504 1 -5.97831919 2.1891853 -8.25 3.75 Z " fill="#E0E0E0" transform="translate(35,0)"/>
<path d="M0 0 C0 2.31 0 4.62 0 7 C2.31 7.33 4.62 7.66 7 8 C6.07401521 11.33354523 5.16354063 12.86099046 2.5 15.125 C-0.43233218 16.69589224 -2.71943445 17.56850579 -5.875 18.4375 C-12.20962905 20.21195934 -17.73279351 22.72755053 -21.5 28.3125 C-21.995 29.199375 -22.49 30.08625 -23 31 C-23.99 30.67 -24.98 30.34 -26 30 C-27.28571429 22.57142857 -27.28571429 22.57142857 -26 19 C-25.01 19 -24.02 19 -23 19 C-22.9175 18.46375 -22.835 17.9275 -22.75 17.375 C-21.73623902 14.1647569 -19.92839451 11.73707608 -18 9 C-17.67 9.66 -17.34 10.32 -17 11 C-16.5153125 10.62488281 -16.030625 10.24976563 -15.53125 9.86328125 C-2.61209068 0 -2.61209068 0 0 0 Z " fill="#F3F3F3" transform="translate(31,4)"/>
<path d="M0 0 C0.66 0 1.32 0 2 0 C2 2.97 2 5.94 2 9 C4.64 8.67 7.28 8.34 10 8 C8.81819916 13.02265357 7.55007718 16.0949151 4 20 C4.70511719 20.12246094 5.41023438 20.24492187 6.13671875 20.37109375 C9.15503183 21.03405201 11.91889442 21.98175575 14.8125 23.0625 C15.78832031 23.42472656 16.76414063 23.78695313 17.76953125 24.16015625 C18.50558594 24.43730469 19.24164063 24.71445312 20 25 C20 26.32 20 27.64 20 29 C17 28 17 28 15 26 C13.14516546 25.39286197 11.26578615 24.85868948 9.375 24.375 C8.37210938 24.11460938 7.36921875 23.85421875 6.3359375 23.5859375 C5.56507812 23.39257812 4.79421875 23.19921875 4 23 C4 22.34 4 21.68 4 21 C3.39671875 21.144375 2.7934375 21.28875 2.171875 21.4375 C1.37265625 21.623125 0.5734375 21.80875 -0.25 22 C-1.03890625 22.185625 -1.8278125 22.37125 -2.640625 22.5625 C-5 23 -5 23 -9 23 C-10.10836423 24.88316159 -10.10836423 24.88316159 -11 27 C-10.67 27.66 -10.34 28.32 -10 29 C-10.66 29.99 -11.32 30.98 -12 32 C-12.99 32 -13.98 32 -15 32 C-14.67 30.35 -14.34 28.7 -14 27 C-17.68195814 29.68683432 -19.69188951 32.11817781 -22 36 C-23.485 36.495 -23.485 36.495 -25 37 C-23.35 37.33 -21.7 37.66 -20 38 C-19.67 37.01 -19.34 36.02 -19 35 C-17.515 34.505 -17.515 34.505 -16 34 C-15.01 35.32 -14.02 36.64 -13 38 C-16.465 40.475 -16.465 40.475 -20 43 C-20 42.01 -20 41.02 -20 40 C-22.97 40 -25.94 40 -29 40 C-28.62875 39.071875 -28.2575 38.14375 -27.875 37.1875 C-27.58625 36.135625 -27.2975 35.08375 -27 34 C-27.66 33.01 -28.32 32.02 -29 31 C-29.20555454 25.77304171 -28.23960522 21.16520672 -25 17 C-23.33333333 15.33333333 -21.66666667 13.66666667 -20 12 C-19.443125 11.071875 -18.88625 10.14375 -18.3125 9.1875 C-17.879375 8.465625 -17.44625 7.74375 -17 7 C-16.34 7 -15.68 7 -15 7 C-15 7.99 -15 8.98 -15 10 C-12.68651501 8.52235475 -10.37418021 7.04296381 -8.0625 5.5625 C-7.40314453 5.14162109 -6.74378906 4.72074219 -6.06445312 4.28710938 C-2.86871187 2.35604912 -2.86871187 2.35604912 0 0 Z M-6.25 6.25 C-7.20390625 6.85328125 -8.1578125 7.4565625 -9.140625 8.078125 C-11.88730076 9.92425133 -14.44814674 11.89518673 -17 14 C-17.33 13.34 -17.66 12.68 -18 12 C-18.84198307 13.09758507 -19.67330671 14.20335317 -20.5 15.3125 C-21.19609375 16.23482422 -21.19609375 16.23482422 -21.90625 17.17578125 C-23.25711283 19.07433005 -23.25711283 19.07433005 -23 22 C-23.99 22 -24.98 22 -26 22 C-26.2226746 23.43534841 -26.42761906 24.87345525 -26.625 26.3125 C-26.74101562 27.11300781 -26.85703125 27.91351562 -26.9765625 28.73828125 C-27.21533407 31.28723215 -27.21533407 31.28723215 -25 34 C-21.76668365 33.30410834 -21.76668365 33.30410834 -20.5625 30.3125 C-16.90115693 24.42313034 -8.57403959 21.47215801 -2.0625 19.9375 C1.75929097 18.76756399 3.47175732 17.04876323 6 14 C6.33 13.01 6.66 12.02 7 11 C4.69 10.67 2.38 10.34 0 10 C0 7.69 0 5.38 0 3 C-2.17493212 3 -4.51027158 5.1429001 -6.25 6.25 Z " fill="#303030" transform="translate(31,1)"/>
<path d="M0 0 C1.32 0.33 2.64 0.66 4 1 C4.33569297 2.62451419 4.6684796 4.24962917 5 5.875 C5.185625 6.77992187 5.37125 7.68484375 5.5625 8.6171875 C6 11 6 11 6 13 C5.01 13.495 5.01 13.495 4 14 C4.33 15.32 4.66 16.64 5 18 C4.01 18 3.02 18 2 18 C1.67 18.99 1.34 19.98 1 21 C-0.9609375 21.765625 -0.9609375 21.765625 -3.375 22.25 C-4.16648437 22.42015625 -4.95796875 22.5903125 -5.7734375 22.765625 C-8 23 -8 23 -11 22 C-13.77000825 25.32086771 -13.77000825 25.32086771 -16 29 C-16.66 29 -17.32 29 -18 29 C-18.28855285 24.0946016 -18.26204794 20.8445565 -15 17 C-13.68 17 -12.36 17 -11 17 C-10.67 17.66 -10.34 18.32 -10 19 C-8.35 17.68 -6.7 16.36 -5 15 C-5.99 14.01 -6.98 13.02 -8 12 C-8.37125 12.495 -8.7425 12.99 -9.125 13.5 C-11.74694393 15.59755514 -13.73842472 15.21743835 -17 15 C-16 13 -16 13 -13 12 C-12.38125 11.05125 -11.7625 10.1025 -11.125 9.125 C-8.96887216 5.95422376 -7.37782273 4.68891137 -4 3 C-4.33 4.65 -4.66 6.3 -5 8 C-4.34 8 -3.68 8 -3 8 C-3 7.01 -3 6.02 -3 5 C-2.05273046 3.30280873 -1.05771739 1.63064764 0 0 Z " fill="#7E7E7E" transform="translate(22,24)"/>
<path d="M0 0 C-1.25751405 3.77254215 -2.49400825 4.17480476 -5.875 6.125 C-6.75929688 6.64320313 -7.64359375 7.16140625 -8.5546875 7.6953125 C-11 9 -11 9 -14 10 C-14 9.01 -14 8.02 -14 7 C-14.66 7 -15.32 7 -16 7 C-16.2475 7.721875 -16.495 8.44375 -16.75 9.1875 C-18.40080739 12.90181663 -20.6415229 15.74602114 -23.625 18.5 C-26.22777924 21.33939553 -26.93491132 24.21893582 -27.25 28 C-27.16692111 31.02139292 -27.16692111 31.02139292 -25.8125 33.625 C-25.544375 34.40875 -25.27625 35.1925 -25 36 C-26.375 38.3125 -26.375 38.3125 -28 40 C-27.01 40.33 -26.02 40.66 -25 41 C-25.33 41.66 -25.66 42.32 -26 43 C-26.07033769 44.87379605 -26.0843022 46.75001102 -26.0625 48.625 C-26.05347656 49.62789062 -26.04445313 50.63078125 -26.03515625 51.6640625 C-26.02355469 52.43492188 -26.01195312 53.20578125 -26 54 C-25.34 54 -24.68 54 -24 54 C-23.236875 53.195625 -22.47375 52.39125 -21.6875 51.5625 C-18.83715825 48.84473228 -17.74058918 48.54511099 -14 48 C-14.06960938 49.18078125 -14.13921875 50.3615625 -14.2109375 51.578125 C-14.26722309 53.13535973 -14.3218224 54.69265604 -14.375 56.25 C-14.42527344 57.02730469 -14.47554687 57.80460937 -14.52734375 58.60546875 C-14.58566911 60.88015796 -14.55582607 62.79127842 -14 65 C-10.96900952 67.69791461 -9.17293309 68.89800582 -5.125 69.25 C-4.42375 69.1675 -3.7225 69.085 -3 69 C-3 69.66 -3 70.32 -3 71 C-6.0831133 72.07908966 -8.14487719 72.37392467 -11.1796875 71.046875 C-14.26681333 69.04738425 -16.63139459 67.49033266 -17.54296875 63.8046875 C-17.56277799 61.46719763 -17.36606678 59.30745463 -17 57 C-16.835 55.824375 -16.67 54.64875 -16.5 53.4375 C-16.335 52.633125 -16.17 51.82875 -16 51 C-19.24299151 53.38957269 -21.50902342 55.2047869 -23 59 C-24.32 59 -25.64 59 -27 59 C-29.35147334 53.14124438 -30.2912565 49.1980312 -29 43 C-29.33 42.67 -29.66 42.34 -30 42 C-30.13347463 39.53071944 -30.12951476 37.44610639 -29.4375 35.0625 C-28.83062206 32.88753093 -28.83062206 32.88753093 -29.578125 30.26171875 C-30.06080344 26.52989932 -29.51083301 24.29599656 -28.3125 20.75 C-27.97863281 19.71359375 -27.64476562 18.6771875 -27.30078125 17.609375 C-25.79369302 14.58614696 -24.96364023 14.34608087 -22 13 C-20.31342113 10.71548975 -18.91551476 8.33802747 -17.46484375 5.8984375 C-16.98144531 5.27195312 -16.49804688 4.64546875 -16 4 C-15.01 4 -14.02 4 -13 4 C-12.34 4.66 -11.68 5.32 -11 6 C-10.37351562 5.566875 -9.74703125 5.13375 -9.1015625 4.6875 C-8.28429687 4.130625 -7.46703125 3.57375 -6.625 3 C-5.81289063 2.443125 -5.00078125 1.88625 -4.1640625 1.3125 C-2 0 -2 0 0 0 Z " fill="#E8E8E8" transform="translate(30,1)"/>
<path d="M0 0 C6.42343251 -0.36359052 6.42343251 -0.36359052 8.9140625 1.20703125 C11.09782102 4.81258938 10.46590295 8.9442551 10 13 C9.20958235 15.83005859 8.19853936 18.30328645 7 21 C4.0280615 19.87548273 1.66559313 18.77706209 -1 17 C-1.0562279 14.03471821 -0.95683804 11.31149974 -0.6875 8.375 C-0.62626953 7.57320312 -0.56503906 6.77140625 -0.50195312 5.9453125 C-0.34851492 3.96241876 -0.17604307 1.98101481 0 0 Z " fill="#F0F0F0" transform="translate(18,47)"/>
<path d="M0 0 C0.66 0.33 1.32 0.66 2 1 C1.01 2.485 1.01 2.485 0 4 C1.05767578 4.18369141 1.05767578 4.18369141 2.13671875 4.37109375 C5.15503183 5.03405201 7.91889442 5.98175575 10.8125 7.0625 C11.78832031 7.42472656 12.76414063 7.78695313 13.76953125 8.16015625 C14.50558594 8.43730469 15.24164063 8.71445312 16 9 C16 10.32 16 11.64 16 13 C13 12 13 12 11 10 C9.14516546 9.39286197 7.26578615 8.85868948 5.375 8.375 C4.37210938 8.11460938 3.36921875 7.85421875 2.3359375 7.5859375 C1.56507812 7.39257812 0.79421875 7.19921875 0 7 C0 6.34 0 5.68 0 5 C-0.60328125 5.144375 -1.2065625 5.28875 -1.828125 5.4375 C-3.02695312 5.7159375 -3.02695312 5.7159375 -4.25 6 C-5.03890625 6.185625 -5.8278125 6.37125 -6.640625 6.5625 C-9 7 -9 7 -13 7 C-14.10836423 8.88316159 -14.10836423 8.88316159 -15 11 C-14.67 11.66 -14.34 12.32 -14 13 C-14.99 14.485 -14.99 14.485 -16 16 C-16.99 16 -17.98 16 -19 16 C-18.67 14.35 -18.34 12.7 -18 11 C-19.98 11.99 -19.98 11.99 -22 13 C-22 12.01 -22 11.02 -22 10 C-15.74761315 6.73520687 -9.84002364 3.74638901 -3 2 C-2.01 1.34 -1.02 0.68 0 0 Z " fill="#303030" transform="translate(35,17)"/>
<path d="M0 0 C-0.06960938 1.18078125 -0.13921875 2.3615625 -0.2109375 3.578125 C-0.26722309 5.13535973 -0.3218224 6.69265604 -0.375 8.25 C-0.42527344 9.02730469 -0.47554687 9.80460937 -0.52734375 10.60546875 C-0.58566911 12.88015796 -0.55582607 14.79127842 0 17 C3.03099048 19.69791461 4.82706691 20.89800582 8.875 21.25 C9.926875 21.12625 9.926875 21.12625 11 21 C11 21.66 11 22.32 11 23 C7.9168867 24.07908966 5.85512281 24.37392467 2.8203125 23.046875 C-0.26681333 21.04738425 -2.63139459 19.49033266 -3.54296875 15.8046875 C-3.56277799 13.46719763 -3.36606678 11.30745463 -3 9 C-2.835 7.824375 -2.67 6.64875 -2.5 5.4375 C-2.335 4.633125 -2.17 3.82875 -2 3 C-4.43929746 4.92576115 -6.80090595 6.80090595 -9 9 C-9.99 8.67 -10.98 8.34 -12 8 C-5.56521739 0 -5.56521739 0 0 0 Z " fill="#DEDEDE" transform="translate(16,49)"/>
<path d="M0 0 C0.66 0 1.32 0 2 0 C2 2.97 2 5.94 2 9 C4.64 8.67 7.28 8.34 10 8 C9.1875 11.4375 9.1875 11.4375 8 15 C7.01 15.33 6.02 15.66 5 16 C5.66 14.35 6.32 12.7 7 11 C4.36 11 1.72 11 -1 11 C-1 8.69 -1 6.38 -1 4 C-3.97 5.65 -6.94 7.3 -10 9 C-10.33 8.34 -10.66 7.68 -11 7 C-10.28972656 6.57847656 -9.57945313 6.15695313 -8.84765625 5.72265625 C-7.92855469 5.17480469 -7.00945313 4.62695312 -6.0625 4.0625 C-5.14597656 3.51722656 -4.22945312 2.97195312 -3.28515625 2.41015625 C-1.11587323 1.19267827 -1.11587323 1.19267827 0 0 Z " fill="#353535" transform="translate(31,1)"/>
<path d="M0 0 C1.65 0 3.3 0 5 0 C5 2.64 5 5.28 5 8 C6.1446875 7.505 6.1446875 7.505 7.3125 7 C10 6 10 6 13 6 C13.31191814 11.19863564 12.92264949 14.61602577 10 19 C7.8125 19.875 7.8125 19.875 6 20 C6.268125 19.484375 6.53625 18.96875 6.8125 18.4375 C8.32349407 15.33598585 9.65572726 12.17737194 11 9 C8.36 9.33 5.72 9.66 3 10 C3 7.03 3 4.06 3 1 C2.01 1.33 1.02 1.66 0 2 C0 1.34 0 0.68 0 0 Z " fill="#E9E9E9" transform="translate(30,0)"/>
<path d="M0 0 C9.48309255 1.73856697 19.14770487 3.88106102 25 12 C26.31494512 13.35147138 27.64264858 14.69112542 29 16 C24.94519369 16 23.15167025 14.45129908 20 12 C20 11.01 20 10.02 20 9 C19.16210938 8.72414063 18.32421875 8.44828125 17.4609375 8.1640625 C13.8326725 6.94372055 10.22841365 5.6667898 6.625 4.375 C5.66400391 4.03082031 5.66400391 4.03082031 4.68359375 3.6796875 C3.12218595 3.12037724 1.56106299 2.56027192 0 2 C0 1.34 0 0.68 0 0 Z " fill="#DEDEDE" transform="translate(35,19)"/>
<path d="M0 0 C1.32 0.33 2.64 0.66 4 1 C4.66 3.64 5.32 6.28 6 9 C3.13822943 10.43088528 1.06624227 9.59991697 -2 9 C-2.6875 6.75 -2.6875 6.75 -3 4 C-1.5625 1.6875 -1.5625 1.6875 0 0 Z " fill="#797979" transform="translate(22,24)"/>
<path d="M0 0 C1.32 0 2.64 0 4 0 C2.86726461 4.44380808 1.71682385 8.26436721 -1 12 C-1.66 12 -2.32 12 -3 12 C-3.28855285 7.0946016 -3.26204794 3.8445565 0 0 Z " fill="#D9D9D9" transform="translate(7,41)"/>
<path d="M0 0 C0.33 0.66 0.66 1.32 1 2 C-3.13836478 10.12893082 -3.13836478 10.12893082 -6 12 C-9.1875 12.1875 -9.1875 12.1875 -12 12 C-11 10 -11 10 -8 9 C-6.65668346 7.00669158 -5.32405988 5.00615134 -4 3 C-1.75 1.125 -1.75 1.125 0 0 Z " fill="#D4D4D4" transform="translate(17,27)"/>
<path d="M0 0 C3.15281254 0.95317589 5.86015564 1.91544295 8.6875 3.625 C10.98136704 5.2555377 10.98136704 5.2555377 14 5 C14 5.66 14 6.32 14 7 C9.12335991 7.34833144 6.22949995 6.41685712 2 4 C1.67 4.66 1.34 5.32 1 6 C-0.32 6 -1.64 6 -3 6 C-3 5.34 -3 4.68 -3 4 C-2.01 4 -1.02 4 0 4 C0 2.68 0 1.36 0 0 Z " fill="#F4F4F4" transform="translate(27,68)"/>
<path d="M0 0 C2.86724686 0.57344937 3.8614515 0.8614515 6 3 C6.40625 5.41796875 6.40625 5.41796875 6 8 C4.03125 9.80078125 4.03125 9.80078125 1.5 11.3125 C0.6646875 11.82425781 -0.170625 12.33601563 -1.03125 12.86328125 C-1.6809375 13.23839844 -2.330625 13.61351562 -3 14 C-3.66 13.67 -4.32 13.34 -5 13 C-2.34345343 9.26115668 -0.41889613 7.35021826 4 6 C2.68 4.02 1.36 2.04 0 0 Z " fill="#EEEEEE" transform="translate(63,35)"/>
<path d="M0 0 C0.33 0.66 0.66 1.32 1 2 C-0.29296875 4.78515625 -0.29296875 4.78515625 -2.1875 8.0625 C-2.79980469 9.14660156 -3.41210938 10.23070313 -4.04296875 11.34765625 C-6 14 -6 14 -8.23828125 14.87109375 C-8.81964844 14.91363281 -9.40101562 14.95617187 -10 15 C-8.71481447 12.68367725 -7.42228734 10.37203058 -6.125 8.0625 C-5.76019531 7.40314453 -5.39539062 6.74378906 -5.01953125 6.06445312 C-2.2265625 1.11328125 -2.2265625 1.11328125 0 0 Z " fill="#EAEAEA" transform="translate(48,59)"/>
<path d="M0 0 C2.97 0.33 5.94 0.66 9 1 C9.33 1.99 9.66 2.98 10 4 C4.04296875 5.7578125 4.04296875 5.7578125 2 6 C1.01 5.34 0.02 4.68 -1 4 C-0.67 2.68 -0.34 1.36 0 0 Z " fill="#EAEAEA" transform="translate(17,32)"/>
<path d="M0 0 C-0.99 0.33 -1.98 0.66 -3 1 C-2.67 1.99 -2.34 2.98 -2 4 C-5.72965139 6.03435531 -7.66905042 7 -12 7 C-10.1896099 1.56882971 -5.56166796 -0.65431388 0 0 Z " fill="#AAAAAA" transform="translate(22,39)"/>
<path d="M0 0 C4.29 1.65 8.58 3.3 13 5 C13 6.32 13 7.64 13 9 C10 8 10 8 8 6 C6.14516546 5.39286197 4.26578615 4.85868948 2.375 4.375 C0.87066406 3.98441406 0.87066406 3.98441406 -0.6640625 3.5859375 C-1.43492188 3.39257812 -2.20578125 3.19921875 -3 3 C-2.01 2.67 -1.02 2.34 0 2 C0 1.34 0 0.68 0 0 Z " fill="#373737" transform="translate(38,21)"/>
<path d="M0 0 C1.32 1.32 2.64 2.64 4 4 C1.69 5.65 -0.62 7.3 -3 9 C-2.67 7.68 -2.34 6.36 -2 5 C-2.99 4.67 -3.98 4.34 -5 4 C-4.34 4 -3.68 4 -3 4 C-2.67 3.01 -2.34 2.02 -2 1 C-1.34 0.67 -0.68 0.34 0 0 Z " fill="#171717" transform="translate(14,35)"/>
<path d="M0 0 C0.33 0 0.66 0 1 0 C1.06058594 0.67546875 1.12117187 1.3509375 1.18359375 2.046875 C1.26738281 2.93890625 1.35117187 3.8309375 1.4375 4.75 C1.55931641 6.07257812 1.55931641 6.07257812 1.68359375 7.421875 C1.96238465 9.69350452 2.38790577 11.79851823 3 14 C3.99 13.67 4.98 13.34 6 13 C6 13.99 6 14.98 6 16 C4.68 16 3.36 16 2 16 C-0.32637691 10.20377279 -1.43680971 6.13909603 0 0 Z " fill="#F2F2F2" transform="translate(1,44)"/>
<path d="M0 0 C1.32 0.66 2.64 1.32 4 2 C3.01 2 2.02 2 1 2 C1 5.96 1 9.92 1 14 C-2 11 -2 11 -2.109375 8.80859375 C-1.99078125 8.02613281 -1.8721875 7.24367188 -1.75 6.4375 C-1.64171875 5.65246094 -1.5334375 4.86742187 -1.421875 4.05859375 C-1 2 -1 2 0 0 Z " fill="#494949" transform="translate(4,21)"/>
<path d="M0 0 C1.65 0 3.3 0 5 0 C5 2.64 5 5.28 5 8 C5.99 8.33 6.98 8.66 8 9 C6.35 9.33 4.7 9.66 3 10 C3 7.03 3 4.06 3 1 C2.01 1.33 1.02 1.66 0 2 C0 1.34 0 0.68 0 0 Z " fill="#F5F5F5" transform="translate(30,0)"/>
<path d="M0 0 C0.66 0.33 1.32 0.66 2 1 C1.01 2.485 1.01 2.485 0 4 C0.99 4 1.98 4 3 4 C3 4.66 3 5.32 3 6 C-0.63 5.67 -4.26 5.34 -8 5 C-2.6 1.4 -2.6 1.4 0 0 Z " fill="#101010" transform="translate(35,17)"/>
<path d="M0 0 C0.99 0.66 1.98 1.32 3 2 C3 4 3 4 1.875 5.625 C-0.75887944 7.55651159 -2.81916956 7.21205536 -6 7 C-6.33 7.66 -6.66 8.32 -7 9 C-7 8.01 -7 7.02 -7 6 C-6.030625 5.71125 -5.06125 5.4225 -4.0625 5.125 C-0.89335797 4.35785318 -0.89335797 4.35785318 0 2 C-0.99 1.67 -1.98 1.34 -3 1 C-2.01 0.67 -1.02 0.34 0 0 Z " fill="#2B2B2B" transform="translate(24,40)"/>
<path d="M0 0 C-0.33 0.99 -0.66 1.98 -1 3 C-3.06640625 3.73046875 -3.06640625 3.73046875 -5.5625 4.1875 C-6.38878906 4.34605469 -7.21507812 4.50460938 -8.06640625 4.66796875 C-9.02353516 4.83232422 -9.02353516 4.83232422 -10 5 C-10 4.34 -10 3.68 -10 3 C-3.375 0 -3.375 0 0 0 Z " fill="#787878" transform="translate(24,42)"/>
<path d="M0 0 C0.33 0.99 0.66 1.98 1 3 C3.01508358 3.73323796 3.01508358 3.73323796 5 4 C4.67 4.66 4.34 5.32 4 6 C3.77377919 7.70363822 3.59111527 9.41328701 3.4375 11.125 C3.31181641 12.49011719 3.31181641 12.49011719 3.18359375 13.8828125 C3.12300781 14.58148438 3.06242188 15.28015625 3 16 C2.67 16 2.34 16 2 16 C2 12.37 2 8.74 2 5 C1.34 5 0.68 5 0 5 C0 3.35 0 1.7 0 0 Z " fill="#C9C9C9" transform="translate(0,38)"/>
<path d="M0 0 C0.99 0.33 1.98 0.66 3 1 C2.4140625 7.15234375 2.4140625 7.15234375 2 9 C1.01 9.495 1.01 9.495 0 10 C-0.66 8.02 -1.32 6.04 -2 4 C-1.01 4 -0.02 4 1 4 C0.67 2.68 0.34 1.36 0 0 Z " fill="#161616" transform="translate(27,33)"/>
<path d="M0 0 C1.32 0.33 2.64 0.66 4 1 C4 1.99 4 2.98 4 4 C4.66 4.33 5.32 4.66 6 5 C5.01 5.33 4.02 5.66 3 6 C2.01 5.34 1.02 4.68 0 4 C0 2.68 0 1.36 0 0 Z " fill="#1A1A1A" transform="translate(51,27)"/>
<path d="M0 0 C1.48206495 0.254496 2.96068615 0.52911762 4.4375 0.8125 C5.67306641 1.03873047 5.67306641 1.03873047 6.93359375 1.26953125 C7.95646484 1.63111328 7.95646484 1.63111328 9 2 C9.33 2.99 9.66 3.98 10 5 C6.7 4.01 3.4 3.02 0 2 C0 1.34 0 0.68 0 0 Z " fill="#CDCDCD" transform="translate(35,19)"/>
<path d="M0 0 C-1.25125384 3.75376152 -2.5652404 4.24073289 -6 6 C-6.66 6 -7.32 6 -8 6 C-6.72879117 2.18637351 -4.19078006 0 0 0 Z " fill="#DEDEDE" transform="translate(30,1)"/>
</svg>
