<?xml version="1.0" encoding="UTF-8"?>
<svg version="1.1" xmlns="http://www.w3.org/2000/svg" width="150" height="47">
<path d="M0 0 C7.53577675 -0.05162613 15.07150634 -0.08611166 22.60742188 -0.10986328 C25.15952253 -0.11978741 27.71161225 -0.13333101 30.26367188 -0.15087891 C51.42915814 -0.29253767 72.39670318 0.41050799 93.3125 3.875 C94.30443359 4.02324219 95.29636719 4.17148437 96.31835938 4.32421875 C104.95794861 5.71605827 113.73736265 7.91559513 121 13 C121.625 15.9375 121.625 15.9375 121 19 C117.21279593 22.76548015 113.11704789 24.22769379 108.0625 25.5625 C107.2883374 25.77229492 106.5141748 25.98208984 105.71655273 26.19824219 C95.96052272 28.70508708 85.9973267 29.90643531 76 31 C75.23584274 31.08927765 74.47168549 31.1785553 73.68437195 31.27053833 C65.07148687 32.17893844 56.47613716 32.14540197 47.828125 32.1328125 C46.17584214 32.13348813 44.52355938 32.1344603 42.87127686 32.13571167 C39.42198737 32.13717811 35.97272394 32.13506931 32.5234375 32.13037109 C28.14545219 32.12469251 23.76752847 32.12794771 19.38954544 32.13394356 C15.9799149 32.13759322 12.57029844 32.13639027 9.16066742 32.13381577 C7.54865257 32.13315768 5.93663636 32.13393486 4.32462311 32.13629532 C-23.6634397 32.16828015 -23.6634397 32.16828015 -28 30 C-28 29.34 -28 28.68 -28 28 C-27.18299118 28.00666183 -26.36598236 28.01332367 -25.5242157 28.02018738 C-17.68893926 28.08119598 -9.85378361 28.126418 -2.01832867 28.15543652 C2.00652295 28.17085831 6.03117274 28.1916448 10.0559082 28.22631836 C55.15005102 29.10629675 55.15005102 29.10629675 98 17 C97.34613261 13.88642172 97.34613261 13.88642172 94.98828125 12.9375 C64.91061294 2.39933884 31.49686086 3.19150717 0 2 C0 1.34 0 0.68 0 0 Z " fill="#D5D6D8" transform="translate(29,15)"/>
<path d="M0 0 C1.65228286 -0.00067563 3.30456562 -0.0016478 4.95684814 -0.00289917 C8.40613763 -0.00436561 11.85540106 -0.00225681 15.3046875 0.00244141 C19.68267281 0.00811999 24.06059653 0.00486479 28.43857956 -0.00113106 C31.8482101 -0.00478072 35.25782656 -0.00357777 38.66745758 -0.00100327 C40.27947243 -0.00034518 41.89148864 -0.00112236 43.50350189 -0.00348282 C71.4915647 -0.03546765 71.4915647 -0.03546765 75.828125 2.1328125 C75.828125 2.7928125 75.828125 3.4528125 75.828125 4.1328125 C74.60261177 4.12281975 74.60261177 4.12281975 73.3523407 4.11262512 C65.51706426 4.05161652 57.68190861 4.0063945 49.84645367 3.97737598 C45.82160205 3.96195419 41.79695226 3.9411677 37.7722168 3.90649414 C-7.32192602 3.02651575 -7.32192602 3.02651575 -50.171875 15.1328125 C-49.51800761 18.24639078 -49.51800761 18.24639078 -47.16015625 19.1953125 C-17.08248794 29.73347366 16.33126414 28.94130533 47.828125 30.1328125 C47.828125 30.7928125 47.828125 31.4528125 47.828125 32.1328125 C40.45307495 32.18451376 33.07807332 32.21895371 25.70288086 32.24267578 C23.20611832 32.25258928 20.70936691 32.26612404 18.21264648 32.28369141 C-3.15337405 32.43000454 -24.43218752 31.78664839 -45.546875 28.2578125 C-46.53429687 28.10957031 -47.52171875 27.96132813 -48.5390625 27.80859375 C-57.15785857 26.41370965 -65.92725624 24.20516044 -73.171875 19.1328125 C-73.796875 16.1953125 -73.796875 16.1953125 -73.171875 13.1328125 C-69.38467093 9.36733235 -65.28892289 7.90511871 -60.234375 6.5703125 C-59.4602124 6.36051758 -58.6860498 6.15072266 -57.88842773 5.93457031 C-48.13239772 3.42772542 -38.1692017 2.22637719 -28.171875 1.1328125 C-27.40771774 1.04353485 -26.64356049 0.9542572 -25.85624695 0.86227417 C-17.24336187 -0.04612594 -8.64801216 -0.01258947 0 0 Z " fill="#C4161C" transform="translate(73.171875,-0.1328125)"/>
</svg>
