<?xml version="1.0" encoding="UTF-8"?>
<svg version="1.1" xmlns="http://www.w3.org/2000/svg" width="75" height="75">
<path d="M0 0 C0 12.21 0 24.42 0 37 C-5.61 39.97 -11.22 42.94 -17 46 C-14.88078125 45.21753906 -12.7615625 44.43507812 -10.578125 43.62890625 C-8.51971436 42.87051378 -6.4610423 42.11283512 -4.40234375 41.35522461 C-2.9743344 40.82927788 -1.54659697 40.30259226 -0.11914062 39.77514648 C1.93548271 39.0161091 3.99107684 38.25975498 6.046875 37.50390625 C7.90070801 36.82050171 7.90070801 36.82050171 9.79199219 36.12329102 C12.19847005 35.28065748 14.51492484 34.54530579 17 34 C17.27368164 36.78198242 17.27368164 36.78198242 17 40 C15.16186523 41.8996582 15.16186523 41.8996582 12.62109375 43.48828125 C11.70440918 44.07561035 10.78772461 44.66293945 9.84326172 45.26806641 C8.90498535 45.83960449 7.96670898 46.41114258 7 47 C6.17902832 47.52126465 5.35805664 48.0425293 4.51220703 48.57958984 C2.04320319 50.13988044 -0.4439954 51.66671002 -2.9375 53.1875 C-4.77000087 54.31303785 -6.60202098 55.43935875 -8.43359375 56.56640625 C-9.35382324 57.13246582 -10.27405273 57.69852539 -11.22216797 58.28173828 C-16.46381856 61.52402488 -21.66703894 64.8270864 -26.87084961 68.12963867 C-28.29783034 69.03441185 -29.72618244 69.9370278 -31.15625 70.83691406 C-32.72510336 71.82658798 -34.28537544 72.82984404 -35.84375 73.8359375 C-38 75 -38 75 -41 75 C-41 62.79 -41 50.58 -41 38 C-35.39 35.03 -29.78 32.06 -24 29 C-27.17882813 30.17369141 -27.17882813 30.17369141 -30.421875 31.37109375 C-32.48028564 32.12948622 -34.5389577 32.88716488 -36.59765625 33.64477539 C-38.0256656 34.17072212 -39.45340303 34.69740774 -40.88085938 35.22485352 C-42.93548271 35.9838909 -44.99107684 36.74024502 -47.046875 37.49609375 C-48.90070801 38.17949829 -48.90070801 38.17949829 -50.79199219 38.87670898 C-53.19847005 39.71934252 -55.51492484 40.45469421 -58 41 C-58.27368164 38.21801758 -58.27368164 38.21801758 -58 35 C-56.16186523 33.1003418 -56.16186523 33.1003418 -53.62109375 31.51171875 C-52.24606689 30.6307251 -52.24606689 30.6307251 -50.84326172 29.73193359 C-49.90498535 29.16039551 -48.96670898 28.58885742 -48 28 C-47.17902832 27.47873535 -46.35805664 26.9574707 -45.51220703 26.42041016 C-43.04320319 24.86011956 -40.5560046 23.33328998 -38.0625 21.8125 C-36.22999913 20.68696215 -34.39797902 19.56064125 -32.56640625 18.43359375 C-31.64617676 17.86753418 -30.72594727 17.30147461 -29.77783203 16.71826172 C-24.53618144 13.47597512 -19.33296106 10.1729136 -14.12915039 6.87036133 C-12.70216966 5.96558815 -11.27381756 5.0629722 -9.84375 4.16308594 C-8.27489664 3.17341202 -6.71462456 2.17015596 -5.15625 1.1640625 C-3 -0 -3 -0 0 0 Z " fill="#A18B59" transform="translate(58,0)"/>
</svg>
