<?xml version="1.0" encoding="UTF-8"?>
<svg version="1.1" xmlns="http://www.w3.org/2000/svg" width="900" height="1072">
<path d="M0 0 C1.43955996 0.23976076 2.87934785 0.47815611 4.31933594 0.71533203 C48.88587 8.13055312 92.88458733 21.87172658 132.94628906 42.92822266 C135.25375262 44.13242677 137.5754782 45.30644709 139.8984375 46.48046875 C158.91623571 56.16603399 176.78847388 67.39456717 194 80 C194.84812256 80.6185083 194.84812256 80.6185083 195.71337891 81.24951172 C203.01309364 86.5894237 210.05931235 92.20338175 217 98 C217.51175781 98.42539063 218.02351562 98.85078125 218.55078125 99.2890625 C230.31741785 109.08027836 241.46753238 119.38393668 252.3125 130.1875 C253.16078369 131.03111084 254.00906738 131.87472168 254.88305664 132.74389648 C259.79552106 137.66893341 264.4860062 142.70891007 269 148 C269.98480277 149.12966904 270.97044859 150.25860382 271.95703125 151.38671875 C287.60718161 169.42486619 301.27250775 188.80950113 314 209 C314.36625488 209.57266602 314.73250977 210.14533203 315.10986328 210.73535156 C337.42365115 245.73615131 353.74601418 285.18108007 365 325 C365.27295898 325.96518555 365.54591797 326.93037109 365.82714844 327.92480469 C369.29918987 340.443896 371.89192862 353.09693554 374.1875 365.875 C374.30828918 366.53701416 374.42907837 367.19902832 374.55352783 367.88110352 C375.46224282 372.90769195 376.25579851 377.94658865 377 383 C377.20125992 384.33229141 377.20125992 384.33229141 377.40658569 385.6914978 C380.12090674 404.19866221 380.50123343 422.53100559 380.44604492 441.19213867 C380.43688967 444.42677793 380.44372451 447.66069269 380.46655273 450.89526367 C380.66668757 479.45900974 378.4561171 507.27264143 372.75 535.3125 C372.604487 536.04529175 372.458974 536.7780835 372.30905151 537.53308105 C369.37022428 552.27463988 365.51561127 566.65861122 361 581 C360.67918457 582.03511719 360.35836914 583.07023438 360.02783203 584.13671875 C341.12916187 644.71996207 308.28785251 700.80397486 266 748 C265.51885742 748.53898926 265.03771484 749.07797852 264.54199219 749.63330078 C258.31412376 756.58042612 251.83176008 763.26317969 245.25 769.875 C244.55293945 770.5767334 243.85587891 771.2784668 243.13769531 772.00146484 C230.65101375 784.44966208 230.65101375 784.44966208 226 786 C226 786.66 226 787.32 226 788 C224.01542596 789.70630557 222.02171145 791.29793749 219.9375 792.875 C218.64121962 793.8714762 217.34567025 794.86890391 216.05078125 795.8671875 C215.37869629 796.3837793 214.70661133 796.90037109 214.01416016 797.43261719 C212.08574345 798.93327601 210.18501924 800.46165328 208.29296875 802.0078125 C199.51165509 809.18357435 190.44450987 815.7271031 181 822 C180.34338379 822.44166504 179.68676758 822.88333008 179.01025391 823.33837891 C151.13480914 842.06559088 121.2474033 856.83034143 90 869 C89.195625 869.31694824 88.39125 869.63389648 87.5625 869.96044922 C83.06964934 871.72767784 78.55451035 873.39783926 74 875 C73.35450195 875.22961426 72.70900391 875.45922852 72.04394531 875.69580078 C48.60779315 883.91812467 23.51415452 889.18564447 -1 893 C-1.85867676 893.13744629 -2.71735352 893.27489258 -3.60205078 893.41650391 C-71.22002656 904.01177133 -141.88899953 897.55071974 -207 877 C-208.07088867 876.66274902 -209.14177734 876.32549805 -210.24511719 875.97802734 C-244.2893878 865.08654872 -276.54787191 849.63458858 -307 831 C-308.06476563 830.35417969 -309.12953125 829.70835937 -310.2265625 829.04296875 C-331.64740023 815.74392901 -351.34151358 799.85567539 -370.36962891 783.38476562 C-371.48268958 782.43938075 -372.61086571 781.51157991 -373.75146484 780.59960938 C-375.20053378 779.43967491 -376.60481484 778.22421693 -378 777 C-378 776.34 -378 775.68 -378 775 C-378.58483154 774.74041504 -379.16966309 774.48083008 -379.7722168 774.21337891 C-382.15870354 772.91356092 -383.73302211 771.51043278 -385.64453125 769.5859375 C-386.66063477 768.56693359 -386.66063477 768.56693359 -387.69726562 767.52734375 C-388.39529297 766.81707031 -389.09332031 766.10679687 -389.8125 765.375 C-390.49892578 764.68792969 -391.18535156 764.00085938 -391.89257812 763.29296875 C-395.90615211 759.24522053 -399.74184356 755.08831278 -403.46557617 750.77294922 C-405.34831016 748.59754521 -407.29806206 746.48831863 -409.25 744.375 C-414.29082782 738.7807029 -418.91089712 732.90194921 -423.50244141 726.93896484 C-425.04825404 724.93752306 -426.60743442 722.94700943 -428.16796875 720.95703125 C-440.77813836 704.78966171 -451.67425929 687.69817517 -462 670 C-462.41958984 669.29004883 -462.83917969 668.58009766 -463.27148438 667.84863281 C-481.7644353 636.44635141 -495.13763704 601.99386655 -505 567 C-505.40726318 565.55874756 -505.40726318 565.55874756 -505.82275391 564.08837891 C-509.28401864 551.60943992 -511.88327664 538.98599156 -514.1875 526.25 C-514.42549316 524.95642578 -514.66348633 523.66285156 -514.90869141 522.33007812 C-519.22757703 498.02472217 -520.55506422 473.807403 -520.44703293 449.18165207 C-520.43733621 446.89894249 -520.43205371 444.61625134 -520.42727661 442.33352661 C-520.36663932 420.32282216 -519.82721679 398.7348788 -516 377 C-515.75523852 375.54280187 -515.51145951 374.08543846 -515.26855469 372.62792969 C-502.50397866 296.8700361 -471.14898393 223.40600305 -422 164 C-421.54286621 163.44666992 -421.08573242 162.89333984 -420.61474609 162.32324219 C-415.22851385 155.83152247 -409.70299895 149.47974095 -404.0234375 143.2421875 C-402.26657604 141.29539507 -400.56779748 139.31464118 -398.875 137.3125 C-395.1522878 133.0415499 -391.17124758 129.02550889 -387.1875 125 C-386.51638184 124.31591064 -385.84526367 123.63182129 -385.15380859 122.92700195 C-384.51910645 122.29109131 -383.8844043 121.65518066 -383.23046875 121 C-382.65707764 120.4225 -382.08368652 119.845 -381.49291992 119.25 C-380 118 -380 118 -378 118 C-377.67 117.01 -377.34 116.02 -377 115 C-375.64453125 113.59765625 -375.64453125 113.59765625 -373.8125 112.0625 C-373.08417969 111.44632812 -372.35585938 110.83015625 -371.60546875 110.1953125 C-370.31576172 109.10863281 -370.31576172 109.10863281 -369 108 C-367.99456019 107.1241532 -366.99074894 106.24643455 -365.98828125 105.3671875 C-335.65447736 78.86402462 -301.44539838 56.21123334 -265 39 C-263.76926758 38.41653809 -263.76926758 38.41653809 -262.51367188 37.82128906 C-249.24038154 31.5655551 -235.8203669 25.93124561 -222 21 C-220.60491211 20.50137451 -220.60491211 20.50137451 -219.18164062 19.99267578 C-194.03292564 11.10038302 -168.25316383 4.73491266 -141.95440674 0.33001709 C-140.08244109 0.01392083 -138.21277924 -0.31572881 -136.34326172 -0.64599609 C-93.07361988 -7.98861732 -43.17593417 -7.61124732 0 0 Z " fill="#01060C" transform="translate(520,4)"/>
<path d="M0 0 C1.43955996 0.23976076 2.87934785 0.47815611 4.31933594 0.71533203 C48.88587 8.13055312 92.88458733 21.87172658 132.94628906 42.92822266 C135.25375262 44.13242677 137.5754782 45.30644709 139.8984375 46.48046875 C158.91623571 56.16603399 176.78847388 67.39456717 194 80 C194.84812256 80.6185083 194.84812256 80.6185083 195.71337891 81.24951172 C203.01309364 86.5894237 210.05931235 92.20338175 217 98 C217.51175781 98.42539063 218.02351562 98.85078125 218.55078125 99.2890625 C230.31741785 109.08027836 241.46753238 119.38393668 252.3125 130.1875 C253.16078369 131.03111084 254.00906738 131.87472168 254.88305664 132.74389648 C259.79552106 137.66893341 264.4860062 142.70891007 269 148 C269.98480277 149.12966904 270.97044859 150.25860382 271.95703125 151.38671875 C287.60718161 169.42486619 301.27250775 188.80950113 314 209 C314.36625488 209.57266602 314.73250977 210.14533203 315.10986328 210.73535156 C337.42365115 245.73615131 353.74601418 285.18108007 365 325 C365.27295898 325.96518555 365.54591797 326.93037109 365.82714844 327.92480469 C369.29918987 340.443896 371.89192862 353.09693554 374.1875 365.875 C374.30828918 366.53701416 374.42907837 367.19902832 374.55352783 367.88110352 C375.46224282 372.90769195 376.25579851 377.94658865 377 383 C377.20125992 384.33229141 377.20125992 384.33229141 377.40658569 385.6914978 C380.12090674 404.19866221 380.50123343 422.53100559 380.44604492 441.19213867 C380.43688967 444.42677793 380.44372451 447.66069269 380.46655273 450.89526367 C380.66668757 479.45900974 378.4561171 507.27264143 372.75 535.3125 C372.604487 536.04529175 372.458974 536.7780835 372.30905151 537.53308105 C369.37022428 552.27463988 365.51561127 566.65861122 361 581 C360.67918457 582.03511719 360.35836914 583.07023438 360.02783203 584.13671875 C341.12916187 644.71996207 308.28785251 700.80397486 266 748 C265.51885742 748.53898926 265.03771484 749.07797852 264.54199219 749.63330078 C258.31412376 756.58042612 251.83176008 763.26317969 245.25 769.875 C244.55293945 770.5767334 243.85587891 771.2784668 243.13769531 772.00146484 C230.65101375 784.44966208 230.65101375 784.44966208 226 786 C226 786.66 226 787.32 226 788 C224.01542596 789.70630557 222.02171145 791.29793749 219.9375 792.875 C218.64121962 793.8714762 217.34567025 794.86890391 216.05078125 795.8671875 C215.37869629 796.3837793 214.70661133 796.90037109 214.01416016 797.43261719 C212.08574345 798.93327601 210.18501924 800.46165328 208.29296875 802.0078125 C199.51165509 809.18357435 190.44450987 815.7271031 181 822 C180.34338379 822.44166504 179.68676758 822.88333008 179.01025391 823.33837891 C151.13480914 842.06559088 121.2474033 856.83034143 90 869 C89.195625 869.31694824 88.39125 869.63389648 87.5625 869.96044922 C83.06964934 871.72767784 78.55451035 873.39783926 74 875 C73.35450195 875.22961426 72.70900391 875.45922852 72.04394531 875.69580078 C48.60779315 883.91812467 23.51415452 889.18564447 -1 893 C-1.85867676 893.13744629 -2.71735352 893.27489258 -3.60205078 893.41650391 C-71.22002656 904.01177133 -141.88899953 897.55071974 -207 877 C-208.07088867 876.66274902 -209.14177734 876.32549805 -210.24511719 875.97802734 C-244.2893878 865.08654872 -276.54787191 849.63458858 -307 831 C-308.06476563 830.35417969 -309.12953125 829.70835937 -310.2265625 829.04296875 C-331.64740023 815.74392901 -351.34151358 799.85567539 -370.36962891 783.38476562 C-371.48268958 782.43938075 -372.61086571 781.51157991 -373.75146484 780.59960938 C-375.20053378 779.43967491 -376.60481484 778.22421693 -378 777 C-378 776.34 -378 775.68 -378 775 C-378.58483154 774.74041504 -379.16966309 774.48083008 -379.7722168 774.21337891 C-382.15870354 772.91356092 -383.73302211 771.51043278 -385.64453125 769.5859375 C-386.66063477 768.56693359 -386.66063477 768.56693359 -387.69726562 767.52734375 C-388.39529297 766.81707031 -389.09332031 766.10679687 -389.8125 765.375 C-390.49892578 764.68792969 -391.18535156 764.00085938 -391.89257812 763.29296875 C-395.90615211 759.24522053 -399.74184356 755.08831278 -403.46557617 750.77294922 C-405.34831016 748.59754521 -407.29806206 746.48831863 -409.25 744.375 C-414.29082782 738.7807029 -418.91089712 732.90194921 -423.50244141 726.93896484 C-425.04825404 724.93752306 -426.60743442 722.94700943 -428.16796875 720.95703125 C-440.77813836 704.78966171 -451.67425929 687.69817517 -462 670 C-462.41958984 669.29004883 -462.83917969 668.58009766 -463.27148438 667.84863281 C-481.7644353 636.44635141 -495.13763704 601.99386655 -505 567 C-505.40726318 565.55874756 -505.40726318 565.55874756 -505.82275391 564.08837891 C-509.28401864 551.60943992 -511.88327664 538.98599156 -514.1875 526.25 C-514.42549316 524.95642578 -514.66348633 523.66285156 -514.90869141 522.33007812 C-519.22757703 498.02472217 -520.55506422 473.807403 -520.44703293 449.18165207 C-520.43733621 446.89894249 -520.43205371 444.61625134 -520.42727661 442.33352661 C-520.36663932 420.32282216 -519.82721679 398.7348788 -516 377 C-515.75523852 375.54280187 -515.51145951 374.08543846 -515.26855469 372.62792969 C-502.50397866 296.8700361 -471.14898393 223.40600305 -422 164 C-421.54286621 163.44666992 -421.08573242 162.89333984 -420.61474609 162.32324219 C-415.22851385 155.83152247 -409.70299895 149.47974095 -404.0234375 143.2421875 C-402.26657604 141.29539507 -400.56779748 139.31464118 -398.875 137.3125 C-395.1522878 133.0415499 -391.17124758 129.02550889 -387.1875 125 C-386.51638184 124.31591064 -385.84526367 123.63182129 -385.15380859 122.92700195 C-384.51910645 122.29109131 -383.8844043 121.65518066 -383.23046875 121 C-382.65707764 120.4225 -382.08368652 119.845 -381.49291992 119.25 C-380 118 -380 118 -378 118 C-377.67 117.01 -377.34 116.02 -377 115 C-375.64453125 113.59765625 -375.64453125 113.59765625 -373.8125 112.0625 C-373.08417969 111.44632812 -372.35585938 110.83015625 -371.60546875 110.1953125 C-370.31576172 109.10863281 -370.31576172 109.10863281 -369 108 C-367.99456019 107.1241532 -366.99074894 106.24643455 -365.98828125 105.3671875 C-335.65447736 78.86402462 -301.44539838 56.21123334 -265 39 C-263.76926758 38.41653809 -263.76926758 38.41653809 -262.51367188 37.82128906 C-249.24038154 31.5655551 -235.8203669 25.93124561 -222 21 C-220.60491211 20.50137451 -220.60491211 20.50137451 -219.18164062 19.99267578 C-194.03292564 11.10038302 -168.25316383 4.73491266 -141.95440674 0.33001709 C-140.08244109 0.01392083 -138.21277924 -0.31572881 -136.34326172 -0.64599609 C-93.07361988 -7.98861732 -43.17593417 -7.61124732 0 0 Z M-86.125 17.8125 C-87.59598145 18.27184937 -87.59598145 18.27184937 -89.09667969 18.74047852 C-106.02974511 24.13293175 -122.86547151 30.20004471 -139.125 37.375 C-147.68257878 41.12673938 -156.37449608 43.28859425 -165.45410156 45.39355469 C-181.77817716 49.28202839 -197.4029812 54.86192553 -213 61 C-213.81017578 61.31614258 -214.62035156 61.63228516 -215.45507812 61.95800781 C-225.94393974 66.06996513 -236.02742754 70.76439946 -246 76 C-246.82628906 76.42909668 -247.65257812 76.85819336 -248.50390625 77.30029297 C-273.23896417 90.20059104 -296.71134321 105.94546069 -318 124 C-318.95648438 124.77214844 -319.91296875 125.54429687 -320.8984375 126.33984375 C-329.40904579 133.29899097 -337.17202144 140.98367679 -344.9375 148.75 C-345.48174622 149.29333984 -346.02599243 149.83667969 -346.58673096 150.39648438 C-352.60445306 156.41534091 -358.52805474 162.47292628 -364 169 C-364.46124268 169.54382324 -364.92248535 170.08764648 -365.39770508 170.64794922 C-378.79113119 186.59977919 -390.67262977 203.92190724 -401 222 C-401.67714239 223.15437588 -402.35553714 224.30801801 -403.03515625 225.4609375 C-408.10206101 234.1093471 -412.65958397 242.96759612 -417 252 C-417.41652832 252.85819336 -417.83305664 253.71638672 -418.26220703 254.60058594 C-434.59745804 288.44173118 -445.53915931 324.14218029 -452.125 361.0625 C-452.25351349 361.77934967 -452.38202698 362.49619934 -452.51443481 363.23477173 C-455.39366629 379.3866989 -457.31873118 395.07671321 -457.125 411.5 C-457.11492835 413.01692103 -457.10581005 414.5338487 -457.09765625 416.05078125 C-457.07602408 419.70066308 -457.0417367 423.3502859 -457 427 C-452.06749193 422.86224387 -447.41140689 418.56631727 -442.875 414 C-441.98361328 413.11441406 -441.98361328 413.11441406 -441.07421875 412.2109375 C-438.38917787 409.51996938 -435.79238596 406.81689921 -433.3828125 403.875 C-431.05054981 401.06099125 -428.61352661 398.55387408 -426 396 C-424.59627701 394.59903685 -423.1940794 393.19654452 -421.79296875 391.79296875 C-417.52864583 387.52864583 -413.26432292 383.26432292 -409 379 C-405.84795019 380.39347376 -403.73828227 382.02485079 -401.328125 384.4765625 C-400.66425781 385.146875 -400.00039063 385.8171875 -399.31640625 386.5078125 C-398.29353516 387.55582031 -398.29353516 387.55582031 -397.25 388.625 C-396.55261719 389.33140625 -395.85523438 390.0378125 -395.13671875 390.765625 C-393.41987512 392.50598703 -391.70788168 394.25084981 -390 396 C-391.63098808 400.19019099 -394.72333355 402.94223982 -397.8828125 406.0078125 C-398.45707977 406.57450653 -399.03134705 407.14120056 -399.62301636 407.72506714 C-401.45227159 409.52993935 -403.28781452 411.32820279 -405.125 413.125 C-407.54993494 415.4969309 -409.96831502 417.87526304 -412.3828125 420.2578125 C-412.94525665 420.80365997 -413.50770081 421.34950745 -414.08718872 421.91189575 C-415.4295923 423.23704824 -416.72031601 424.61418422 -418 426 C-418 426.66 -418 427.32 -418 428 C-419.32 428.66 -420.64 429.32 -422 430 C-422 430.66 -422 431.32 -422 432 C-422.59611084 432.25765137 -423.19222168 432.51530273 -423.80639648 432.78076172 C-426.19788093 434.10998524 -427.38644614 435.38958406 -429.09765625 437.5078125 C-431.90830365 440.83555898 -434.86891668 443.83779473 -438.05859375 446.8046875 C-438.93837891 447.63613281 -439.81816406 448.46757812 -440.72460938 449.32421875 C-442.54390449 451.03480149 -444.38021069 452.72745816 -446.23242188 454.40234375 C-451.79498403 459.52650654 -451.79498403 459.52650654 -453.81640625 466.5 C-453.57747041 469.08812224 -453.57747041 469.08812224 -453 472 C-452.89138641 472.63891174 -452.78277283 473.27782349 -452.67086792 473.93609619 C-451.74303594 479.36045229 -450.63449645 484.74076469 -449.5 490.125 C-449.16186187 491.76544004 -448.82461481 493.40606402 -448.48828125 495.046875 C-447.66911517 499.03344557 -446.83792045 503.01733101 -446 507 C-442.15828922 507.4421599 -442.15828922 507.4421599 -440.47033691 505.64440918 C-439.96772339 505.00314087 -439.46510986 504.36187256 -438.94726562 503.70117188 C-434.73160121 498.60088335 -430.09231093 493.97851698 -425.39924622 489.32408142 C-423.80646509 487.74426867 -422.21700843 486.16117414 -420.6282959 484.57727051 C-416.68485384 480.64707341 -412.73593714 476.72239228 -408.78717041 472.79754639 C-405.43860973 469.46884286 -402.09219307 466.13801069 -398.74848938 462.8044281 C-397.19584762 461.25818445 -395.64018597 459.7150262 -394.08435059 458.17199707 C-389.46056519 453.57191248 -384.97984653 448.91780611 -380.73641968 443.96350098 C-377.2628468 440.03566957 -373.50314362 436.38199801 -369.78515625 432.6875 C-368.92941513 431.83317383 -368.07367401 430.97884766 -367.19200134 430.09863281 C-364.48452619 427.39671138 -361.77357746 424.69830641 -359.0625 422 C-357.21526325 420.15778423 -355.36825573 418.31533857 -353.52148438 416.47265625 C-349.01696997 411.97910939 -344.50960595 407.4884368 -340 403 C-336.41524883 404.68182843 -334.05248527 406.67919783 -331.25 409.5 C-330.45078125 410.2940625 -329.6515625 411.088125 -328.828125 411.90625 C-327 414 -327 414 -327 416 C-328.95250561 417.42741137 -330.90906564 418.75147967 -332.9375 420.0625 C-344.14317614 427.61269381 -354.06100542 437.15023016 -357.4375 450.75 C-358.13485176 454.85162811 -358.15093918 458.84917255 -358 463 C-359.32 463.66 -360.64 464.32 -362 465 C-362 465.66 -362 466.32 -362 467 C-362.59459015 467.25698166 -363.1891803 467.51396332 -363.80178833 467.7787323 C-366.20478798 469.11377473 -367.43736626 470.42214004 -369.17138672 472.5402832 C-373.28954307 477.40108593 -377.7409202 481.86689856 -382.2578125 486.35546875 C-383.55693069 487.65246452 -383.55693069 487.65246452 -384.8822937 488.97566223 C-387.6275039 491.71531833 -390.37617997 494.45146631 -393.125 497.1875 C-394.97809683 499.03557445 -396.8309636 500.88387961 -398.68359375 502.73242188 C-402.07816925 506.11886081 -405.47403072 509.50399786 -408.87158203 512.88745117 C-409.58993225 513.60540863 -410.30828247 514.32336609 -411.04840088 515.06307983 C-412.24494667 516.25062581 -413.44965578 517.43009944 -414.66790771 518.59536743 C-415.81298269 519.69554881 -416.91337346 520.84205418 -418 522 C-418 522.66 -418 523.32 -418 524 C-418.59167969 524.25394531 -419.18335938 524.50789063 -419.79296875 524.76953125 C-422.2430973 526.13553212 -423.5359582 527.52936211 -425.3125 529.6875 C-428.68032676 533.67494857 -432.26021316 537.36251736 -436 541 C-434.05313919 549.04069342 -431.35268668 556.44605582 -428 564 C-427.67725098 564.72896484 -427.35450195 565.45792969 -427.02197266 566.20898438 C-424.38368962 572.15570579 -421.70011407 578.08113836 -419 584 C-418.4750293 585.15701416 -418.4750293 585.15701416 -417.93945312 586.33740234 C-413.45192183 596.20178856 -408.62034362 605.72077496 -403 615 C-402.46987305 615.88107422 -401.93974609 616.76214844 -401.39355469 617.66992188 C-393.73415441 630.34435554 -385.78074112 642.53271419 -376.52001953 654.09472656 C-375.00410746 655.99485149 -373.51258583 657.91177314 -372.02734375 659.8359375 C-371.08080246 661.05734847 -370.13418983 662.27870415 -369.1875 663.5 C-368.73922852 664.08177002 -368.29095703 664.66354004 -367.82910156 665.26293945 C-365.25512082 668.55769205 -362.52146825 671.43412497 -359.5 674.3125 C-355.49485541 678.71411345 -354.91997522 683.33388456 -354.1328125 689.00927734 C-350.13726046 716.91195027 -332.62284319 742.35334683 -310.40136719 759.21289062 C-295.83562013 769.96989725 -279.51524764 776.68271462 -262 781 C-261.00250732 781.28689697 -261.00250732 781.28689697 -259.98486328 781.57958984 C-250.01456075 784.09129289 -239.36731644 783.06061435 -229.17480469 782.80810547 C-217.07076905 782.52830705 -206.57268002 783.38681031 -195 787 C-194.05125 787.2784375 -193.1025 787.556875 -192.125 787.84375 C-189.75838097 788.54971209 -187.40984761 789.29521721 -185.0625 790.0625 C-184.30388672 790.30548828 -183.54527344 790.54847656 -182.76367188 790.79882812 C-179.08140507 791.98230177 -175.41098687 793.19749566 -171.74609375 794.43359375 C-111.51021735 814.43860769 -47.32266907 817.10989881 13.79736328 798.66357422 C16.1304437 797.96070207 18.46891266 797.27821432 20.80859375 796.59765625 C30.51201819 793.75305683 40.12501351 790.69720977 49.67114258 787.35986328 C52.10214481 786.52614259 54.54043965 785.74507037 57 785 C58.05392944 784.67890259 58.05392944 784.67890259 59.12915039 784.35131836 C69.05916647 781.86091955 79.7510439 782.91461403 89.90063477 783.11645508 C104.61279477 783.38700209 117.89724166 782.13541224 131.9375 777.3125 C132.68346436 777.05831299 133.42942871 776.80412598 134.19799805 776.54223633 C151.67334904 770.37109716 166.61595177 760.81451426 180 748 C180.62390625 747.42765625 181.2478125 746.8553125 181.890625 746.265625 C196.41557762 732.52580496 205.17659978 713.81050457 210.125 694.75 C214.50526121 678.12747028 214.50526121 678.12747028 218.8125 673.125 C219.61300781 672.17625 220.41351562 671.2275 221.23828125 670.25 C221.67865723 669.73308594 222.1190332 669.21617187 222.57275391 668.68359375 C230.94269947 658.81032234 238.81161992 648.7695477 246 638 C246.7528125 636.92363281 247.505625 635.84726562 248.28125 634.73828125 C265.4866451 609.97283271 278.52567484 582.50445041 289.0859375 554.34375 C289.90595531 552.24114022 290.80520165 550.20478475 291.75 548.15625 C293.00391533 544.99011379 293.3587121 543.33812547 293 540 C291.75014089 538.03828001 291.75014089 538.03828001 289.89819336 536.34643555 C289.22006088 535.67190842 288.54192841 534.99738129 287.84324646 534.30241394 C287.09962357 533.58773453 286.35600067 532.87305511 285.58984375 532.13671875 C284.82958389 531.3859053 284.06932404 530.63509186 283.286026 529.86152649 C280.84801965 527.45813828 278.39358332 525.07239947 275.9375 522.6875 C273.50984292 520.31004201 271.08574946 517.92903834 268.66395569 515.54560852 C267.15657634 514.06431658 265.64527575 512.58700034 264.12937927 511.11442566 C260.77402252 507.83676657 257.53861795 504.53039158 254.48193359 500.97094727 C250.87790619 496.78110576 246.95726417 493.00238658 242.94921875 489.203125 C241.43028567 487.7357763 239.91274837 486.2669816 238.39648438 484.796875 C236.04073464 482.51507256 233.67904658 480.24203005 231.29272461 477.9921875 C216.27556829 463.80167781 216.27556829 463.80167781 215.03515625 456.1796875 C214.99619613 454.45352485 214.98067747 452.72649415 215 451 C211.30754792 436.49561105 200.90579009 426.56099829 188.625 418.75 C181.62327495 414.62249144 174.17895554 410.5277155 166.3515625 408.21875 C162.97593562 406.46925567 162.10794595 404.22638005 160.375 400.875 C151.6022172 384.59937487 140.27183488 369.02701403 127.265625 355.8671875 C126 354 126 354 126.109375 351.98828125 C127.13012971 349.70949113 128.35353136 348.19145611 130 346.3125 C142.11105869 331.0615372 148.6226684 312.41542597 149 293 C151.35928213 297.65402463 153.69019586 302.32128256 156 307 C156.30421875 307.61423828 156.6084375 308.22847656 156.921875 308.86132812 C161.3967226 317.95822226 165.01619543 327.18358178 168.23242188 336.79467773 C168.778671 338.36410151 169.35637419 339.92272857 169.95507812 341.47290039 C172.78012807 348.83350076 174.54432962 356.22232313 176.125 363.9375 C176.37636719 365.12279297 176.62773438 366.30808594 176.88671875 367.52929688 C179.34244787 379.24865337 181.225535 390.80628445 182.125 402.75 C182.21136719 403.84054687 182.29773438 404.93109375 182.38671875 406.0546875 C182.59578023 408.70279963 182.80014965 411.35117961 183 414 C184.27272634 413.0624602 185.5431023 412.12172926 186.8125 411.1796875 C187.52019531 410.65616699 188.22789062 410.13264648 188.95703125 409.59326172 C191.54408233 407.5756834 193.75372758 405.38666444 196 403 C199.28009039 404.43301374 201.42976886 406.19468883 203.93359375 408.73828125 C205.0309082 409.84526367 205.0309082 409.84526367 206.15039062 410.97460938 C206.90513672 411.74611328 207.65988281 412.51761719 208.4375 413.3125 C209.18837891 414.07240234 209.93925781 414.83230469 210.71289062 415.61523438 C212.17194096 417.09225015 213.62879907 418.57143531 215.08325195 420.05297852 C216.58897449 421.58248268 218.10838244 423.09851553 219.6328125 424.609375 C222.01314419 427.01327433 224.3102672 429.47797558 226.60620117 431.96191406 C239.50048809 445.87213533 253.05785079 459.14268288 266.50616455 472.51289368 C268.67453784 474.67149932 270.8365059 476.8365059 273 479 C273.65742187 479.64582031 274.31484375 480.29164063 274.9921875 480.95703125 C278.16486065 484.08362823 281.24349876 487.22686596 284.125 490.625 C289.686952 497.11177306 295.92451618 503.0003544 302 509 C304.09373741 505.85939388 304.5640958 503.96274864 305.25390625 500.30078125 C305.57584961 498.60985352 305.57584961 498.60985352 305.90429688 496.88476562 C306.12150391 495.70591797 306.33871094 494.52707031 306.5625 493.3125 C306.78357422 492.15298828 307.00464844 490.99347656 307.23242188 489.79882812 C310.97117542 474.80973394 310.97117542 474.80973394 309.05859375 460.171875 C307.17276384 457.83084477 304.97666449 455.98157723 302.625 454.125 C300.46360395 452.37529844 298.99368508 450.87858619 297.2421875 448.7734375 C291.37457306 441.99250413 284.86973146 435.80329771 278.5 429.5 C263.53365512 414.68974812 263.53365512 414.68974812 258.36083984 408.58789062 C256.37732282 406.27343158 254.23346877 404.13756925 252.0625 402 C251.29035156 401.236875 250.51820313 400.47375 249.72265625 399.6875 C249.15417969 399.130625 248.58570313 398.57375 248 398 C249.39347376 394.84795019 251.02485079 392.73828227 253.4765625 390.328125 C254.48203125 389.33232422 254.48203125 389.33232422 255.5078125 388.31640625 C256.20648437 387.63449219 256.90515625 386.95257813 257.625 386.25 C258.33140625 385.55261719 259.0378125 384.85523438 259.765625 384.13671875 C261.50599152 382.4198707 263.25170272 380.70876002 265 379 C270.48913788 383.57397998 275.56808978 388.43613827 280.6015625 393.50390625 C281.40105316 394.30481186 282.20054382 395.10571747 283.02426147 395.93089294 C285.56021632 398.47240631 288.09266381 401.01738155 290.625 403.5625 C292.33310069 405.27562261 294.04143186 406.98851547 295.75 408.70117188 C298.88375293 411.84306298 302.01619495 414.98624774 305.14697266 418.13110352 C305.81416321 418.79997589 306.48135376 419.46884827 307.16876221 420.1579895 C308.3146762 421.31064462 309.45658878 422.46730745 310.59246826 423.62985229 C311.71086241 424.77060833 312.85233058 425.88870135 314 427 C314.33 427 314.66 427 315 427 C315.8757307 394.35545412 311.28619276 361.57711296 303 330 C302.83064941 329.33693848 302.66129883 328.67387695 302.48681641 327.99072266 C296.19604057 303.47119176 287.341192 280.07600529 277 257 C276.31580411 255.43515897 275.63213269 253.87008841 274.94921875 252.3046875 C259.79106547 218.22287774 237.26464988 186.29793506 212 159 C211.00998957 157.91835951 210.02043678 156.83630004 209.03125 155.75390625 C201.22995274 147.16687136 201.22995274 147.16687136 193 139 C192.34 139 191.68 139 191 139 C190.67 138.01 190.34 137.02 190 136 C187.89426434 134.02383467 187.89426434 134.02383467 185.25 132 C184.2496875 131.20335937 183.249375 130.40671875 182.21875 129.5859375 C181.68894531 129.1640918 181.15914062 128.74224609 180.61328125 128.30761719 C178.48377755 126.58158483 176.4142555 124.791015 174.34130859 122.99780273 C132.96873077 87.30617875 81.45553426 61.51251317 29 47 C27.97519531 46.70351563 26.95039062 46.40703125 25.89453125 46.1015625 C21.58381608 44.87340388 17.37209588 43.88054968 12.9375 43.22265625 C6.51208659 42.07483739 0.83359287 39.72856351 -5.125 37.125 C-6.65447266 36.47337891 -6.65447266 36.47337891 -8.21484375 35.80859375 C-11.95886169 34.20813422 -15.6974165 32.60213264 -19.39355469 30.89355469 C-23.91982668 28.80435317 -28.39600175 27.18745588 -33.18847656 25.81738281 C-36.46721585 24.86416823 -39.71197043 23.82361755 -42.9609375 22.7734375 C-44.78044922 22.185625 -44.78044922 22.185625 -46.63671875 21.5859375 C-48.51942165 20.97607554 -50.40212232 20.36620657 -52.28466797 19.75585938 C-54.1347359 19.15645449 -55.98532983 18.55867388 -57.8359375 17.9609375 C-58.92438965 17.60821777 -60.0128418 17.25549805 -61.13427734 16.89208984 C-70.24512694 14.05591295 -77.15729743 14.95216665 -86.125 17.8125 Z " fill="#FCA44D" transform="translate(520,4)"/>
<path d="M0 0 C1.43955996 0.23976076 2.87934785 0.47815611 4.31933594 0.71533203 C48.88587 8.13055312 92.88458733 21.87172658 132.94628906 42.92822266 C135.25375262 44.13242677 137.5754782 45.30644709 139.8984375 46.48046875 C158.91623571 56.16603399 176.78847388 67.39456717 194 80 C194.84812256 80.6185083 194.84812256 80.6185083 195.71337891 81.24951172 C203.01309364 86.5894237 210.05931235 92.20338175 217 98 C217.51175781 98.42539063 218.02351562 98.85078125 218.55078125 99.2890625 C230.31741785 109.08027836 241.46753238 119.38393668 252.3125 130.1875 C253.16078369 131.03111084 254.00906738 131.87472168 254.88305664 132.74389648 C259.79552106 137.66893341 264.4860062 142.70891007 269 148 C269.98480277 149.12966904 270.97044859 150.25860382 271.95703125 151.38671875 C287.60718161 169.42486619 301.27250775 188.80950113 314 209 C314.36625488 209.57266602 314.73250977 210.14533203 315.10986328 210.73535156 C337.42365115 245.73615131 353.74601418 285.18108007 365 325 C365.27295898 325.96518555 365.54591797 326.93037109 365.82714844 327.92480469 C369.29918987 340.443896 371.89192862 353.09693554 374.1875 365.875 C374.30828918 366.53701416 374.42907837 367.19902832 374.55352783 367.88110352 C375.46224282 372.90769195 376.25579851 377.94658865 377 383 C377.20125992 384.33229141 377.20125992 384.33229141 377.40658569 385.6914978 C380.12090674 404.19866221 380.50123343 422.53100559 380.44604492 441.19213867 C380.43688967 444.42677793 380.44372451 447.66069269 380.46655273 450.89526367 C380.66668757 479.45900974 378.4561171 507.27264143 372.75 535.3125 C372.604487 536.04529175 372.458974 536.7780835 372.30905151 537.53308105 C369.37022428 552.27463988 365.51561127 566.65861122 361 581 C360.67918457 582.03511719 360.35836914 583.07023438 360.02783203 584.13671875 C341.12916187 644.71996207 308.28785251 700.80397486 266 748 C265.51885742 748.53898926 265.03771484 749.07797852 264.54199219 749.63330078 C258.31412376 756.58042612 251.83176008 763.26317969 245.25 769.875 C244.55293945 770.5767334 243.85587891 771.2784668 243.13769531 772.00146484 C230.65101375 784.44966208 230.65101375 784.44966208 226 786 C226 786.66 226 787.32 226 788 C224.01542596 789.70630557 222.02171145 791.29793749 219.9375 792.875 C218.64121962 793.8714762 217.34567025 794.86890391 216.05078125 795.8671875 C215.37869629 796.3837793 214.70661133 796.90037109 214.01416016 797.43261719 C212.08574345 798.93327601 210.18501924 800.46165328 208.29296875 802.0078125 C199.51165509 809.18357435 190.44450987 815.7271031 181 822 C180.34338379 822.44166504 179.68676758 822.88333008 179.01025391 823.33837891 C151.13480914 842.06559088 121.2474033 856.83034143 90 869 C89.195625 869.31694824 88.39125 869.63389648 87.5625 869.96044922 C83.06964934 871.72767784 78.55451035 873.39783926 74 875 C73.35450195 875.22961426 72.70900391 875.45922852 72.04394531 875.69580078 C48.60779315 883.91812467 23.51415452 889.18564447 -1 893 C-1.85867676 893.13744629 -2.71735352 893.27489258 -3.60205078 893.41650391 C-71.22002656 904.01177133 -141.88899953 897.55071974 -207 877 C-208.07088867 876.66274902 -209.14177734 876.32549805 -210.24511719 875.97802734 C-244.2893878 865.08654872 -276.54787191 849.63458858 -307 831 C-308.06476563 830.35417969 -309.12953125 829.70835937 -310.2265625 829.04296875 C-331.64740023 815.74392901 -351.34151358 799.85567539 -370.36962891 783.38476562 C-371.48268958 782.43938075 -372.61086571 781.51157991 -373.75146484 780.59960938 C-375.20053378 779.43967491 -376.60481484 778.22421693 -378 777 C-378 776.34 -378 775.68 -378 775 C-378.58483154 774.74041504 -379.16966309 774.48083008 -379.7722168 774.21337891 C-382.15870354 772.91356092 -383.73302211 771.51043278 -385.64453125 769.5859375 C-386.66063477 768.56693359 -386.66063477 768.56693359 -387.69726562 767.52734375 C-388.39529297 766.81707031 -389.09332031 766.10679687 -389.8125 765.375 C-390.49892578 764.68792969 -391.18535156 764.00085938 -391.89257812 763.29296875 C-395.90615211 759.24522053 -399.74184356 755.08831278 -403.46557617 750.77294922 C-405.34831016 748.59754521 -407.29806206 746.48831863 -409.25 744.375 C-414.29082782 738.7807029 -418.91089712 732.90194921 -423.50244141 726.93896484 C-425.04825404 724.93752306 -426.60743442 722.94700943 -428.16796875 720.95703125 C-440.77813836 704.78966171 -451.67425929 687.69817517 -462 670 C-462.41958984 669.29004883 -462.83917969 668.58009766 -463.27148438 667.84863281 C-481.7644353 636.44635141 -495.13763704 601.99386655 -505 567 C-505.40726318 565.55874756 -505.40726318 565.55874756 -505.82275391 564.08837891 C-509.28401864 551.60943992 -511.88327664 538.98599156 -514.1875 526.25 C-514.42549316 524.95642578 -514.66348633 523.66285156 -514.90869141 522.33007812 C-519.22757703 498.02472217 -520.55506422 473.807403 -520.44703293 449.18165207 C-520.43733621 446.89894249 -520.43205371 444.61625134 -520.42727661 442.33352661 C-520.36663932 420.32282216 -519.82721679 398.7348788 -516 377 C-515.75523852 375.54280187 -515.51145951 374.08543846 -515.26855469 372.62792969 C-502.50397866 296.8700361 -471.14898393 223.40600305 -422 164 C-421.54286621 163.44666992 -421.08573242 162.89333984 -420.61474609 162.32324219 C-415.22851385 155.83152247 -409.70299895 149.47974095 -404.0234375 143.2421875 C-402.26657604 141.29539507 -400.56779748 139.31464118 -398.875 137.3125 C-395.1522878 133.0415499 -391.17124758 129.02550889 -387.1875 125 C-386.51638184 124.31591064 -385.84526367 123.63182129 -385.15380859 122.92700195 C-384.51910645 122.29109131 -383.8844043 121.65518066 -383.23046875 121 C-382.65707764 120.4225 -382.08368652 119.845 -381.49291992 119.25 C-380 118 -380 118 -378 118 C-377.67 117.01 -377.34 116.02 -377 115 C-375.64453125 113.59765625 -375.64453125 113.59765625 -373.8125 112.0625 C-373.08417969 111.44632812 -372.35585938 110.83015625 -371.60546875 110.1953125 C-370.31576172 109.10863281 -370.31576172 109.10863281 -369 108 C-367.99456019 107.1241532 -366.99074894 106.24643455 -365.98828125 105.3671875 C-335.65447736 78.86402462 -301.44539838 56.21123334 -265 39 C-263.76926758 38.41653809 -263.76926758 38.41653809 -262.51367188 37.82128906 C-249.24038154 31.5655551 -235.8203669 25.93124561 -222 21 C-220.60491211 20.50137451 -220.60491211 20.50137451 -219.18164062 19.99267578 C-194.03292564 11.10038302 -168.25316383 4.73491266 -141.95440674 0.33001709 C-140.08244109 0.01392083 -138.21277924 -0.31572881 -136.34326172 -0.64599609 C-93.07361988 -7.98861732 -43.17593417 -7.61124732 0 0 Z M-128.4375 10.3125 C-129.97256856 10.53772202 -131.50764352 10.76290051 -133.04272461 10.98803711 C-143.36719578 12.52053247 -153.62531331 14.26341712 -163.81884766 16.52050781 C-166.08788119 17.0193193 -168.3613999 17.49169166 -170.63671875 17.9609375 C-179.20300359 19.75576954 -187.52199709 21.94920026 -195.83984375 24.66796875 C-198.73286882 25.61063984 -201.63705861 26.47795841 -204.56640625 27.30078125 C-254.37159278 41.38188175 -302.29053427 67.44543194 -341.23144531 101.50268555 C-342.58515305 102.64877742 -343.96453476 103.76460683 -345.35449219 104.86645508 C-352.56224445 110.59906254 -359.08363459 116.80570536 -365.55371094 123.34790039 C-367.25659392 125.0691651 -368.96746929 126.7821666 -370.6796875 128.49414062 C-376.32821953 134.16043195 -381.84887889 139.87154194 -387 146 C-387.53286621 146.62076416 -388.06573242 147.24152832 -388.61474609 147.88110352 C-398.18466198 159.06596053 -406.78531798 170.79162926 -415 183 C-415.42087891 183.62438965 -415.84175781 184.2487793 -416.27539062 184.89208984 C-418.93951 188.87351867 -421.49136349 192.91959123 -424 197 C-424.48291504 197.78004395 -424.96583008 198.56008789 -425.46337891 199.36376953 C-433.95797058 213.15735596 -441.28929445 227.26271173 -448 242 C-448.38027344 242.8254834 -448.76054687 243.6509668 -449.15234375 244.50146484 C-455.72437889 258.78277786 -461.29811068 273.22533037 -465.82421875 288.28125 C-466.63763903 290.85392808 -467.48791176 293.31706102 -468.4609375 295.82421875 C-470.26858098 300.5684941 -471.61453425 305.4142682 -472.9375 310.3125 C-473.19764893 311.27236816 -473.45779785 312.23223633 -473.72583008 313.22119141 C-476.17629445 322.41251587 -478.19115345 331.66355313 -480 341 C-480.14034668 341.71945801 -480.28069336 342.43891602 -480.42529297 343.18017578 C-481.31803559 347.78058684 -482.1859346 352.38496452 -483 357 C-483.14870544 357.82991455 -483.29741089 358.6598291 -483.45062256 359.51489258 C-487.50035633 382.84704646 -488.53112046 406.24804187 -488.38672256 429.88685608 C-488.37475639 431.98011426 -488.36782163 434.07334251 -488.36190796 436.16662598 C-488.26407188 466.06454599 -485.8522788 494.61589694 -480 524 C-479.66625779 525.74210922 -479.33289232 527.48429068 -479 529.2265625 C-475.84885221 545.30591519 -471.0499693 560.94794026 -466.0859375 576.546875 C-465.15724168 579.49999408 -464.28664946 582.46091156 -463.4375 585.4375 C-462.2588722 589.41287173 -460.70378432 593.10323239 -458.96484375 596.86328125 C-458.07834707 598.82649455 -457.30070048 600.78974727 -456.5625 602.8125 C-445.44966495 633.1624463 -429.38132698 661.52098593 -411 688 C-410.27296875 689.05316406 -409.5459375 690.10632813 -408.796875 691.19140625 C-403.41025466 698.7847303 -397.44859932 705.93424701 -391.53808594 713.12109375 C-390.162636 714.80132593 -388.80031168 716.49076764 -387.4453125 718.1875 C-383.49295995 723.11084574 -379.43324162 727.70524575 -374.90234375 732.1015625 C-372.98224311 734.01772043 -371.20610163 736.00635289 -369.4375 738.0625 C-364.4098848 743.88634386 -358.97797363 749.11461176 -353.1484375 754.12890625 C-350.82949683 756.14849276 -348.57471415 758.22965234 -346.3125 760.3125 C-340.47483833 765.56550967 -334.29833549 770.32114321 -328 775 C-327.32936523 775.50047852 -326.65873047 776.00095703 -325.96777344 776.51660156 C-287.38967309 805.19835001 -244.7559014 825.55346232 -199 840 C-197.86949219 840.36480469 -196.73898437 840.72960937 -195.57421875 841.10546875 C-178.13736822 846.4255539 -159.91852438 849.78555234 -141.8984375 852.41796875 C-138.75957911 852.88659591 -135.67186279 853.43584381 -132.5625 854.0625 C-116.40244149 857.02312141 -99.85318005 857.52495508 -83.46923828 857.91650391 C-81.22521177 857.97051214 -78.9813507 858.03217108 -76.73779297 858.10302734 C-45.04445973 859.05262227 -13.00021281 855.49197282 18 849 C19.72524902 848.64784424 19.72524902 848.64784424 21.48535156 848.28857422 C35.29665041 845.45154594 48.73427601 842.09033555 62.10205078 837.61230469 C64.68736093 836.77824785 67.30423391 836.102353 69.9375 835.4375 C74.57346593 834.20640131 78.85294962 832.48075231 83.25 830.57421875 C86.24347736 829.29286854 89.27003789 828.11710291 92.3125 826.95703125 C103.1729349 822.81449404 113.73417373 818.49590368 124.00585938 813.04785156 C126.11154133 811.94138891 128.23332446 810.87144596 130.359375 809.8046875 C149.24017668 800.23562702 167.26119823 788.95985376 184 776 C184.86794189 775.33605225 184.86794189 775.33605225 185.75341797 774.65869141 C199.29306046 764.29432428 212.08289328 753.26711237 224.09741211 741.16333008 C225.82248477 739.42745269 227.55811991 737.7026491 229.29492188 735.97851562 C235.97746916 729.3043898 242.14641148 722.42533775 248 715 C249.11990308 713.63619788 250.24328618 712.27524146 251.37109375 710.91796875 C278.02344253 678.57622174 298.69556392 641.97852111 314.28442383 603.12182617 C315.05846689 601.19752646 315.84258008 599.27752982 316.62695312 597.35742188 C319.57929472 590.05411367 322.06196571 582.72773836 324.13598633 575.11962891 C324.8407044 572.57515658 325.61049662 570.09764746 326.4765625 567.60546875 C334.05439715 545.36794994 338.74671041 522.21665752 342 499 C342.15694336 497.90413574 342.31388672 496.80827148 342.47558594 495.67919922 C342.91640398 492.55887107 343.33914846 489.43690629 343.75 486.3125 C343.86585449 485.44222168 343.98170898 484.57194336 344.10107422 483.67529297 C346.18485911 466.62758553 346.16124852 449.45360009 346.13037109 432.30712891 C346.12494538 428.71382553 346.1303848 425.12064368 346.13671875 421.52734375 C346.13605895 419.22135389 346.13477982 416.91536411 346.1328125 414.609375 C346.13483673 413.54579773 346.13686096 412.48222046 346.13894653 411.38641357 C346.12239379 406.13914061 345.86902943 401.1732364 345 396 C344.87721334 393.563367 344.77466634 391.12566713 344.6875 388.6875 C343.94838448 373.41244594 341.5539711 357.81088863 337.7109375 343.00390625 C337.07274215 340.30735558 336.56607741 337.63045578 336.0859375 334.90234375 C332.55229423 315.14153247 327.13014291 295.75532531 320 277 C319.52219535 275.7140025 319.04562615 274.42754527 318.5703125 273.140625 C318.33183594 272.49867188 318.09335937 271.85671875 317.84765625 271.1953125 C317.37193294 269.91471678 316.89792822 268.6334811 316.42578125 267.3515625 C312.32111134 256.33260905 307.55145423 245.64703646 302.4375 235.0625 C301.98454056 234.12280365 301.98454056 234.12280365 301.52243042 233.16412354 C293.98761991 217.5797156 285.66142323 202.38031282 276 188 C275.34 187.01644531 274.68 186.03289062 274 185.01953125 C259.64373705 163.97222432 243.72808129 144.29829775 226 126 C225.5045166 125.48791992 225.0090332 124.97583984 224.49853516 124.44824219 C219.85200535 119.66904798 215.09757678 115.08117444 210.02734375 110.75390625 C208.62158423 109.53774821 207.24005267 108.29323499 205.87890625 107.02734375 C198.04637462 99.74956141 189.58478202 93.35379389 181 87 C180.30455078 86.48501953 179.60910156 85.97003906 178.89257812 85.43945312 C167.69738945 77.20987735 156.02970245 69.94205118 144 63 C143.23010742 62.55382324 142.46021484 62.10764648 141.66699219 61.64794922 C125.53946811 52.34841478 108.9326482 44.56755881 91.5859375 37.82421875 C88.50379301 36.62198691 85.48575289 35.33130205 82.4765625 33.95703125 C78.07296956 31.97737732 73.60508425 30.43860672 69 29 C67.79923828 28.61618164 67.79923828 28.61618164 66.57421875 28.22460938 C49.90597829 22.96297586 33.00943333 19.22280189 15.89404297 15.78320312 C13.30325723 15.26212221 10.71371863 14.73480072 8.12548828 14.20117188 C-5.48331603 11.4169581 -19.03973155 9.52102171 -32.875 8.375 C-33.66203308 8.3092981 -34.44906616 8.24359619 -35.25994873 8.17590332 C-48.05265464 7.13621005 -60.79182809 6.72385678 -73.625 6.75 C-74.80591217 6.75129913 -74.80591217 6.75129913 -76.01068115 6.75262451 C-93.63661567 6.80298036 -110.9998113 7.69043927 -128.4375 10.3125 Z " fill="#01060C" transform="translate(520,4)"/>
<path d="M0 0 C19.86507494 10.34173116 38.27499903 22.73956969 55.03417969 37.57958984 C55.95070313 38.38525391 56.86722656 39.19091797 57.81152344 40.02099609 C60.24342113 42.1822766 62.64599593 44.37020059 65.03417969 46.57958984 C65.91783203 47.38203125 65.91783203 47.38203125 66.81933594 48.20068359 C83.55550164 64.06641042 95.99933474 85.83773652 100.03417969 108.57958984 C100.03417969 109.89958984 100.03417969 111.21958984 100.03417969 112.57958984 C99.01771362 112.60146362 99.01771362 112.60146362 97.98071289 112.6237793 C86.18066053 112.9053251 74.42327534 113.25673626 62.72167969 114.89208984 C61.53602417 115.05028198 61.53602417 115.05028198 60.32641602 115.21166992 C53.3477356 116.2726155 46.73399501 118.39641585 40.03417969 120.57958984 C40.77128174 120.59417236 41.50838379 120.60875488 42.26782227 120.6237793 C75.32198229 121.34628855 109.54204069 123.74667749 141.03417969 134.57958984 C143.05885852 157.12101422 132.15645459 176.18869803 118.38037109 192.93164062 C100.83601143 214.40868592 96.2250887 232.78243833 94.03417969 259.57958984 C92.51002441 259.54816895 92.51002441 259.54816895 90.95507812 259.51611328 C63.63662965 259.00322052 40.49178333 260.58116568 15.03417969 271.57958984 C14.70417969 271.90958984 14.37417969 272.23958984 14.03417969 272.57958984 C3.85776769 273.33499688 -5.39693315 273.85381247 -13.96582031 267.57958984 C-14.63355469 267.10650391 -15.30128906 266.63341797 -15.98925781 266.14599609 C-27.08802374 257.35033377 -36.49817137 242.98253668 -40.96582031 229.57958984 C-49.38082031 229.08458984 -49.38082031 229.08458984 -57.96582031 228.57958984 C-58.29582031 230.22958984 -58.62582031 231.87958984 -58.96582031 233.57958984 C-62.76326752 242.59439931 -67.38656696 250.31166698 -73.96582031 257.57958984 C-74.66578125 258.37236328 -75.36574219 259.16513672 -76.08691406 259.98193359 C-83.09837467 267.49332009 -90.00825699 272.69664992 -100.49951172 273.23632812 C-109.57303937 273.35554236 -116.70151407 271.39124356 -124.96582031 267.57958984 C-127.93922989 266.49187292 -130.94813358 265.53628401 -133.96582031 264.57958984 C-134.71863281 264.32306641 -135.47144531 264.06654297 -136.24707031 263.80224609 C-149.26160401 259.55562065 -162.31122321 259.30185957 -175.84082031 259.45458984 C-177.41503328 259.4646539 -178.98925257 259.47377361 -180.56347656 259.48193359 C-184.36441852 259.50364334 -188.1650463 259.53797787 -191.96582031 259.57958984 C-192.00022217 259.00740723 -192.03462402 258.43522461 -192.07006836 257.84570312 C-193.5308207 235.15761487 -197.55554686 211.9898633 -214.27832031 195.26708984 C-215.60863281 193.93677734 -215.60863281 193.93677734 -216.96582031 192.57958984 C-217.55234375 192.01369141 -218.13886719 191.44779297 -218.74316406 190.86474609 C-229.94391581 179.30911904 -235.14050888 165.1188027 -237.96582031 149.57958984 C-238.16046875 148.70431641 -238.35511719 147.82904297 -238.55566406 146.92724609 C-239.009542 144.32933521 -239.06345582 141.90225308 -239.02832031 139.26708984 C-239.01929688 138.38408203 -239.01027344 137.50107422 -239.00097656 136.59130859 C-238.98357422 135.59550781 -238.98357422 135.59550781 -238.96582031 134.57958984 C-225.04575622 129.70199939 -210.42543071 127.17360637 -195.90332031 124.82958984 C-194.6085376 124.61906982 -193.31375488 124.4085498 -191.97973633 124.19165039 C-179.05711363 122.16286257 -166.28176705 121.40258562 -153.21582031 121.01708984 C-151.82518643 120.97375426 -150.43456132 120.93013607 -149.04394531 120.88623047 C-145.68464554 120.78125235 -142.32528592 120.67909402 -138.96582031 120.57958984 C-152.86904757 115.45734822 -166.74342521 114.05699635 -181.40332031 113.39208984 C-183.02121049 113.31042414 -184.63904993 113.22774687 -186.25683594 113.14404297 C-190.15934705 112.94427992 -194.06227846 112.75802832 -197.96582031 112.57958984 C-197.57261136 105.84868689 -196.83139535 99.89567124 -194.27832031 93.64208984 C-194.00922852 92.96098145 -193.74013672 92.27987305 -193.46289062 91.578125 C-186.65270531 74.64802021 -177.03193601 61.0872425 -164.39453125 48.05517578 C-163.07510303 46.69245805 -161.77351272 45.31252943 -160.47363281 43.93115234 C-132.24572439 14.59263768 -93.06193009 -4.11962189 -55.96582031 -19.42041016 C-55.12132324 -19.82195313 -54.27682617 -20.22349609 -53.40673828 -20.63720703 C-39.99006518 -24.94213675 -11.9256852 -6.0232832 0 0 Z " fill="#FCB84F" transform="translate(497.9658203125,55.42041015625)"/>
<path d="M0 0 C5.80228916 4.73676027 9.87238888 10.26703367 12.58984375 17.28515625 C12.25984375 17.94515625 11.92984375 18.60515625 11.58984375 19.28515625 C10.08984375 17.91015625 10.08984375 17.91015625 8.58984375 16.28515625 C8.58984375 15.62515625 8.58984375 14.96515625 8.58984375 14.28515625 C8.03296875 14.01703125 7.47609375 13.74890625 6.90234375 13.47265625 C4.58984375 12.28515625 4.58984375 12.28515625 2.46484375 10.84765625 C-4.86155348 6.86591862 -12.47705965 5.72874139 -20.72265625 5.78515625 C-22.13248779 5.78938599 -22.13248779 5.78938599 -23.57080078 5.79370117 C-36.64103582 6.08674111 -49.31570082 9.4465046 -61.41015625 14.28515625 C-62.14830566 14.57801514 -62.88645508 14.87087402 -63.64697266 15.17260742 C-90.3331697 25.92037272 -114.56893547 40.60290118 -137.47265625 57.97265625 C-138.36174683 58.64639282 -138.36174683 58.64639282 -139.26879883 59.33374023 C-152.09405955 69.30508063 -163.83151731 80.40030595 -175.25634766 91.92553711 C-177.43068744 94.11836199 -179.61315321 96.30284978 -181.796875 98.48632812 C-183.21011108 99.90447406 -184.6228884 101.32307735 -186.03515625 102.7421875 C-186.67380615 103.38195023 -187.31245605 104.02171295 -187.97045898 104.68086243 C-192.30534865 109.06096072 -196.39711494 113.60957752 -200.41015625 118.28515625 C-201.40741087 119.43762221 -202.40478378 120.58998583 -203.40234375 121.7421875 C-208.70715337 127.90821451 -213.93678577 134.12105724 -219.0625 140.4375 C-221.81963632 143.78184672 -224.64171325 147.06580554 -227.47265625 150.34765625 C-231.58290458 155.11667658 -235.5938325 159.94323938 -239.50390625 164.87890625 C-249.37125521 177.33441231 -259.77423201 189.33447581 -270.4453125 201.10546875 C-272.22842289 203.08355145 -273.98030394 205.08371425 -275.72265625 207.09765625 C-289.31930171 222.63228512 -303.50761854 238.62862238 -319.859375 251.29296875 C-322.32321678 253.2172556 -324.6752009 255.2416345 -327.02661133 257.30078125 C-334.37377146 263.69591809 -342.15631037 269.12776913 -350.41015625 274.28515625 C-351.4158667 274.91768311 -351.4158667 274.91768311 -352.44189453 275.56298828 C-363.01136428 282.15547958 -373.85277639 287.63906802 -385.41015625 292.28515625 C-386.60640625 292.76855469 -387.80265625 293.25195312 -389.03515625 293.75 C-413.17431285 302.61359656 -444.78661747 306.26185045 -468.9765625 295.57421875 C-488.95097332 284.99387273 -499.28526217 269.2034056 -506.296875 248.19140625 C-508.98044873 239.12982169 -509.75686861 230.56996152 -509.72583008 221.11010742 C-509.72268876 219.11827116 -509.74694411 217.12645318 -509.77148438 215.13476562 C-509.78073237 196.40758056 -505.14300498 178.37278593 -495.41015625 162.28515625 C-495.08015625 162.28515625 -494.75015625 162.28515625 -494.41015625 162.28515625 C-494.37277344 163.54328125 -494.33539063 164.80140625 -494.296875 166.09765625 C-493.5165551 187.98315743 -490.94621999 209.83356046 -474.09765625 225.53515625 C-461.19185914 235.88278868 -445.28511996 236.54049769 -429.41015625 235.28515625 C-423.29006544 234.44562093 -417.35627939 232.92893025 -411.41015625 231.28515625 C-409.68539062 230.83462891 -409.68539062 230.83462891 -407.92578125 230.375 C-400.05663454 228.15820379 -392.82567783 224.86762371 -385.50683594 221.29443359 C-383.27053953 220.21794904 -381.01889602 219.18038289 -378.76171875 218.1484375 C-368.54997305 213.45887455 -358.84881871 208.38224431 -349.41015625 202.28515625 C-348.50040039 201.69782715 -347.59064453 201.11049805 -346.65332031 200.50537109 C-334.49065771 192.60889332 -322.53796113 184.59702536 -311.41015625 175.28515625 C-310.8476416 174.8173877 -310.28512695 174.34961914 -309.70556641 173.86767578 C-305.91153881 170.70651705 -302.15325185 167.50642619 -298.41015625 164.28515625 C-297.61351562 163.60195313 -296.816875 162.91875 -295.99609375 162.21484375 C-293.06710167 159.68077195 -290.22346316 157.13696891 -287.53515625 154.34765625 C-285.41015625 152.28515625 -285.41015625 152.28515625 -283.41015625 152.28515625 C-282.75015625 150.96515625 -282.09015625 149.64515625 -281.41015625 148.28515625 C-280.75015625 148.28515625 -280.09015625 148.28515625 -279.41015625 148.28515625 C-279.16265625 147.70765625 -278.91515625 147.13015625 -278.66015625 146.53515625 C-277.22715637 143.95575646 -275.62590949 142.22394033 -273.41015625 140.28515625 C-272.75015625 140.28515625 -272.09015625 140.28515625 -271.41015625 140.28515625 C-271.15528442 139.69263062 -270.9004126 139.10010498 -270.63781738 138.48962402 C-269.2813665 136.05389304 -267.91305642 134.7778678 -265.76757812 133.01367188 C-261.52145005 129.41682225 -257.59966838 125.58664917 -253.69140625 121.62890625 C-252.98922974 120.92294312 -252.28705322 120.21697998 -251.56359863 119.48962402 C-249.34331022 117.25724267 -247.1263167 115.02163514 -244.91015625 112.78515625 C-241.98606146 109.83425247 -239.05852568 106.88682422 -236.12890625 103.94140625 C-235.47345825 103.27765991 -234.81801025 102.61391357 -234.1427002 101.93005371 C-230.2761543 98.04337084 -226.29591223 94.35258556 -222.14094543 90.77536011 C-219.92012012 88.86323673 -217.76050943 86.88740557 -215.59765625 84.91015625 C-210.34845309 80.1794914 -204.9152837 75.71334757 -199.41015625 71.28515625 C-198.24201692 70.33614743 -197.07405662 69.38691821 -195.90625 68.4375 C-187.26806151 61.44055592 -178.43869137 54.76862907 -169.41015625 48.28515625 C-168.74790039 47.80578613 -168.08564453 47.32641602 -167.40332031 46.83251953 C-144.85381892 30.52526209 -120.82895687 14.74330625 -95.41015625 3.28515625 C-94.41580566 2.83366211 -94.41580566 2.83366211 -93.40136719 2.37304688 C-65.7632856 -9.90763551 -26.64308136 -18.9567467 0 0 Z " fill="#FC9948" transform="translate(698.41015625,439.71484375)"/>
<path d="M0 0 C3.08390768 2.86259761 4.44413319 5.9397544 5.9375 9.8125 C6.32663574 10.80902588 6.32663574 10.80902588 6.72363281 11.82568359 C16.85271469 38.31568024 20.20431669 70.77208097 8.41748047 97.34082031 C0.46528995 113.84745993 -11.6659287 125.30388177 -28.8125 131.8125 C-31.19793637 132.57499243 -33.59454992 133.30321361 -36 134 C-36.94818604 134.29197266 -36.94818604 134.29197266 -37.91552734 134.58984375 C-55.37043269 139.88209149 -73.39547011 139.36351595 -91 135 C-92.1653125 134.7215625 -93.330625 134.443125 -94.53125 134.15625 C-103.80280588 131.73395162 -112.3822247 128.12546532 -121 124 C-121.66338379 123.68466309 -122.32676758 123.36932617 -123.01025391 123.04443359 C-148.01370653 110.97107749 -169.93263807 93.33218183 -189.80273438 74.12109375 C-191.4333339 72.54702168 -193.07120037 70.9804702 -194.71289062 69.41796875 C-197.17115106 67.07817153 -199.61140102 64.72072019 -202.04187012 62.3520813 C-203.48000693 60.95689596 -204.93182607 59.57585911 -206.38378906 58.19506836 C-207.25745117 57.33534424 -208.13111328 56.47562012 -209.03125 55.58984375 C-209.82080078 54.82534912 -210.61035156 54.06085449 -211.42382812 53.27319336 C-213 51 -213 51 -212.90332031 48.42504883 C-212.01326589 46.03561353 -211.15897736 44.53802354 -209.515625 42.609375 C-208.9985498 41.9901416 -208.48147461 41.3709082 -207.94873047 40.73291016 C-207.38814941 40.0785498 -206.82756836 39.42418945 -206.25 38.75 C-205.0679219 37.3379353 -203.88831445 35.92379939 -202.7109375 34.5078125 C-201.79586426 33.40808105 -201.79586426 33.40808105 -200.86230469 32.28613281 C-197.18082165 27.76680832 -193.70502758 23.08637083 -190.22753906 18.40917969 C-189.71674805 17.73016602 -189.20595703 17.05115234 -188.6796875 16.3515625 C-188.23351074 15.75166504 -187.78733398 15.15176758 -187.32763672 14.53369141 C-186 13 -186 13 -183 11 C-181.68902344 12.18142578 -181.68902344 12.18142578 -180.3515625 13.38671875 C-160.43192631 31.12270298 -138.25632125 45.85287791 -114 57 C-113.26458984 57.34015137 -112.52917969 57.68030273 -111.77148438 58.03076172 C-100.75246027 63.06451557 -89.75729117 66.82002242 -77.953125 69.54345703 C-76.36761904 69.91406905 -74.79139244 70.32421916 -73.21875 70.74609375 C-57.7696083 74.58192517 -37.70499495 73.0151177 -23.875 64.8125 C-11.02856587 55.50719626 -4.33446517 41.82314674 -1.34326172 26.39941406 C-0.09791031 17.69435459 -0.12653263 8.77983709 0 0 Z " fill="#FD9948" transform="translate(694,603)"/>
<path d="M0 0 C1.43839704 5.39172489 2.50442959 10.63832634 3.109375 16.18359375 C3.23551178 17.33896889 3.23551178 17.33896889 3.36419678 18.51768494 C4.22285886 27.1276308 4.30159605 35.72231683 4.26074219 44.3684082 C4.24999325 47.06419269 4.2607297 49.7593132 4.2734375 52.45507812 C4.28576437 66.96810301 3.01314839 81.06076456 0.1875 95.3125 C0.01718262 96.17858887 -0.15313477 97.04467773 -0.32861328 97.93701172 C-0.86941925 100.62838542 -1.42937607 103.31479708 -2 106 C-2.18965332 106.89283691 -2.37930664 107.78567383 -2.57470703 108.70556641 C-5.82921047 123.65348171 -10.02932565 136.60967265 -22 147 C-34.20907049 154.55580212 -46.41671708 155.51701685 -60.4609375 153.50390625 C-63.37796036 152.81179761 -66.16660342 151.97866623 -69 151 C-70.00804687 150.6596875 -71.01609375 150.319375 -72.0546875 149.96875 C-91.67075861 142.870514 -109.89730433 131.80358917 -127 120 C-127.58394531 119.59797363 -128.16789063 119.19594727 -128.76953125 118.78173828 C-132.52050068 116.19850486 -136.26321082 113.60369827 -140 111 C-139.41285705 107.53356158 -138.22404014 105.82882405 -135.796875 103.3203125 C-135.14589844 102.63839844 -134.49492188 101.95648437 -133.82421875 101.25390625 C-133.13972656 100.55136719 -132.45523438 99.84882812 -131.75 99.125 C-130.40990564 97.73326424 -129.07133547 96.34005908 -127.734375 94.9453125 C-126.76854492 93.93839355 -126.76854492 93.93839355 -125.78320312 92.91113281 C-124.23346736 91.25021666 -122.76544471 89.56253625 -121.328125 87.8046875 C-119.01740188 85.020964 -116.58590378 82.52860901 -114 80 C-112.83562777 78.82711876 -111.6730001 77.65250413 -110.51171875 76.4765625 C-98.61056662 64.47642743 -98.61056662 64.47642743 -92.7421875 59.52734375 C-90.78822709 57.81434258 -88.99732075 55.98933342 -87.1875 54.125 C-83.27375567 50.1498636 -79.04120819 46.6849784 -74.69140625 43.19921875 C-72.37482986 41.30628332 -70.18659039 39.35128905 -68 37.3125 C-51.12548231 22.16792387 -23.93138126 0 0 0 Z " fill="#FB9848" transform="translate(671,479)"/>
<path d="M0 0 C25.68584541 1.95368428 49.33568714 21.17068764 68.05859375 37.45703125 C70.82569773 39.8493084 73.64599901 42.15019273 76.5 44.4375 C88.4187565 54.17711904 99.26526315 65.10406768 110.12255859 75.9921875 C112.38915993 78.26419369 114.66111959 80.53074444 116.93359375 82.796875 C118.40136271 84.26530417 119.86882176 85.7340432 121.3359375 87.203125 C122.00273529 87.86789856 122.66953308 88.53267212 123.35653687 89.21759033 C129.60825021 95.50018096 135.36231955 102.16644793 141 109 C136.37112945 114.17755133 130.76861951 117.75362694 125 121.5625 C123.9378125 122.26560303 122.875625 122.96870605 121.78125 123.69311523 C95.88960299 140.66331751 68.96557737 156.46820259 37 154 C33.22024506 153.20593384 30.27788094 152.0186178 27 150 C26.31164062 149.59910156 25.62328125 149.19820312 24.9140625 148.78515625 C7.61929889 137.35470904 4.03122342 114.89102367 0.171875 96.0859375 C-6.14814899 63.92335585 -5.16329539 32.20536841 0 0 Z " fill="#FB9848" transform="translate(226,479)"/>
<path d="M0 0 C1.12341293 -0.00058411 2.24682587 -0.00116821 3.40428162 -0.00177002 C7.07290872 0.0009898 10.74069666 0.03198274 14.40917969 0.06347656 C16.97035275 0.07094641 19.53153156 0.07663582 22.0927124 0.08062744 C28.11673364 0.09427647 34.14040138 0.12571703 40.16428161 0.1660254 C47.03016725 0.21095669 53.89606806 0.23278343 60.76206446 0.25280714 C74.86858732 0.2944573 88.97473843 0.3677228 103.08105469 0.45410156 C103.08105469 9.36410156 103.08105469 18.27410156 103.08105469 27.45410156 C111.99105469 27.45410156 120.90105469 27.45410156 130.08105469 27.45410156 C130.08105469 37.02410156 130.08105469 46.59410156 130.08105469 56.45410156 C120.51105469 56.45410156 110.94105469 56.45410156 101.08105469 56.45410156 C101.08105469 47.54410156 101.08105469 38.63410156 101.08105469 29.45410156 C86.95543493 29.516984 72.83003427 29.59236364 58.70460987 29.68981647 C52.14577777 29.73456542 45.58700844 29.77381176 39.02807617 29.80053711 C32.6996807 29.82652465 26.3715262 29.86689524 20.04327965 29.91728783 C17.62757041 29.93398726 15.21181947 29.94548232 12.79606056 29.95171547 C9.41529637 29.96132283 6.03515299 29.98934294 2.65454102 30.02172852 C1.6532869 30.02029343 0.65203278 30.01885834 -0.37956238 30.01737976 C-6.57491084 30.1014456 -10.15167458 30.74796416 -14.704422 35.20013428 C-16.41378909 38.37245502 -16.31989758 40.92304094 -16.35131836 44.51757812 C-16.36159215 45.23173763 -16.37186594 45.94589714 -16.38245106 46.68169785 C-16.4122649 48.98612759 -16.42186894 51.29013085 -16.43066406 53.59472656 C-16.44613362 55.02036017 -16.46293111 56.44598001 -16.4810791 57.87158203 C-16.53895849 63.1489366 -16.57115044 68.42654763 -16.60644531 73.70410156 C-16.70957031 85.50160156 -16.81269531 97.29910156 -16.91894531 109.45410156 C22.02105469 109.45410156 60.96105469 109.45410156 101.08105469 109.45410156 C101.08105469 104.83410156 101.08105469 100.21410156 101.08105469 95.45410156 C110.65105469 95.45410156 120.22105469 95.45410156 130.08105469 95.45410156 C130.08105469 109.31410156 130.08105469 123.17410156 130.08105469 137.45410156 C80.91105469 137.45410156 31.74105469 137.45410156 -18.91894531 137.45410156 C-18.91894531 128.87410156 -18.91894531 120.29410156 -18.91894531 111.45410156 C-27.82894531 111.45410156 -36.73894531 111.45410156 -45.91894531 111.45410156 C-46.03235429 101.36105114 -46.12389499 91.26843076 -46.17800617 81.1748848 C-46.20398987 76.4869526 -46.23917994 71.79948265 -46.29614258 67.11181641 C-46.35086656 62.57950105 -46.38045006 58.04762752 -46.39333153 53.51500702 C-46.40249954 51.79438074 -46.42040084 50.07377593 -46.4475956 48.35334015 C-46.65108763 34.93388403 -44.87989386 24.14579035 -35.91894531 13.48535156 C-25.95426173 3.3649698 -13.9207232 -0.19395174 0 0 Z " fill="#FFFFFF" transform="translate(508.9189453125,934.5458984375)"/>
<path d="M0 0 C14.67208425 0 23.69846905 4.27816633 35 13 C36.423125 14.06734375 36.423125 14.06734375 37.875 15.15625 C38.57625 15.7646875 39.2775 16.373125 40 17 C40 17.66 40 18.32 40 19 C40.57621094 19.23332031 41.15242188 19.46664062 41.74609375 19.70703125 C56.22523237 28.01308824 67.88286054 52.59825554 76.94775391 66.24145508 C82.05797393 73.92230721 87.23289854 81.50218418 92.921875 88.76953125 C93.58249939 89.61512352 93.58249939 89.61512352 94.25646973 90.47779846 C101.45708369 99.51442452 109.04266327 105.34755442 120 109 C120 73.03 120 37.06 120 0 C129.57 0 139.14 0 149 0 C149 36.63 149 73.26 149 111 C140.09 111 131.18 111 122 111 C122 119.58 122 128.16 122 137 C104.3566174 137.69189736 95.16655652 132.14573853 82 120.8125 C71.14105479 110.74018705 62.95257639 98.89189577 54.76513672 86.64013672 C38.28281477 61.73934521 38.28281477 61.73934521 19 39 C18.14341797 38.10474609 18.14341797 38.10474609 17.26953125 37.19140625 C12.10957429 32.27657789 8.45151936 31.7096434 1 29 C1 64.64 1 100.28 1 137 C-8.57 137 -18.14 137 -28 137 C-28 100.7 -28 64.4 -28 27 C-18.76 27 -9.52 27 0 27 C0 18.09 0 9.18 0 0 Z " fill="#FFFFFF" transform="translate(290,935)"/>
<path d="M0 0 C49.17 0 98.34 0 149 0 C149 9.57 149 19.14 149 29 C100.49 29 51.98 29 2 29 C-3.35520502 70.31686604 -3.35520502 70.31686604 7 106 C10.62974355 107.96906812 13.71077139 108.25597125 17.80232239 108.2784729 C18.96193481 108.28963638 20.12154724 108.30079987 21.31629944 108.31230164 C22.57937424 108.31446182 23.84244904 108.31662201 25.14379883 108.31884766 C26.49427894 108.32815101 27.84475333 108.33832029 29.19522095 108.34928894 C32.85388696 108.37655721 36.51251452 108.39172889 40.17125535 108.40471697 C43.99765312 108.42036142 47.82397256 108.44714745 51.65031433 108.4727478 C58.89268364 108.51951233 66.13506772 108.55626768 73.37751073 108.58942068 C81.62419292 108.62765851 89.8707964 108.67706432 98.11741221 108.72740483 C115.07822363 108.83069012 132.03906784 108.91848732 149 109 C149 118.24 149 127.48 149 137 C130.13666625 137.09041158 111.27350885 137.16404662 92.4100132 137.20724869 C83.65070444 137.22784433 74.8915402 137.25590734 66.13232422 137.30175781 C58.49478059 137.34171767 50.85734167 137.3674546 43.2196964 137.37635398 C39.17830078 137.38155331 35.13720463 137.39371043 31.0959053 137.42292023 C27.28572209 137.45023432 23.47595939 137.45841306 19.66568756 137.45243073 C18.27339003 137.45352387 16.88107725 137.46138234 15.4888649 137.4768219 C2.76980874 137.61086023 -5.55798651 135.16165347 -14.77880859 126.42675781 C-21.9330357 119.40899996 -26.59745635 111.36507773 -27.24050903 101.19703674 C-27.24622279 99.81308436 -27.24118182 98.42905805 -27.22705078 97.04516602 C-27.22748886 95.90246498 -27.22748886 95.90246498 -27.22793579 94.73667908 C-27.22655294 92.24230176 -27.21104155 89.74823078 -27.1953125 87.25390625 C-27.19157865 85.51513329 -27.18873343 83.77635822 -27.18673706 82.0375824 C-27.17912992 77.47883209 -27.15950672 72.92021083 -27.1373291 68.36151123 C-27.11680756 63.70261378 -27.10772189 59.04369532 -27.09765625 54.38476562 C-27.07625788 45.25644483 -27.04109975 36.12825338 -27 27 C-18.09 27 -9.18 27 0 27 C0 18.09 0 9.18 0 0 Z " fill="#FFFFFF" transform="translate(690,935)"/>
<path d="M0 0 C49.17 0 98.34 0 149 0 C149 9.57 149 19.14 149 29 C100.16 29 51.32 29 1 29 C-4.5291518 70.13064883 -4.5291518 70.13064883 5.9375 105.3125 C9.3723397 108.12282339 12.31864327 108.13099955 16.59977722 108.15821838 C17.76505447 108.1680072 18.93033173 108.17779602 20.13092041 108.18788147 C21.4105365 108.19363693 22.69015259 108.1993924 24.00854492 108.20532227 C25.36857907 108.21490167 26.72861025 108.22491179 28.08863831 108.23532104 C31.78253871 108.26236947 35.47645189 108.28337937 39.17039657 108.30332303 C43.03015076 108.32518296 46.88986558 108.35257162 50.74958801 108.37937927 C58.05932222 108.42930606 65.36907827 108.47424495 72.67885524 108.51740164 C81.00043694 108.56677412 89.32197913 108.62169221 97.64352262 108.67708123 C114.76231331 108.79090108 131.88114022 108.897008 149 109 C149 118.24 149 127.48 149 137 C130.04081772 137.13569113 111.08203148 137.24611192 92.12248611 137.31087303 C83.31829637 137.34174836 74.51443081 137.38380698 65.71044922 137.45263672 C58.03259927 137.51263347 50.35498422 137.55119506 42.67690635 137.56453097 C38.615162 137.57232071 34.55408937 137.59049375 30.49256134 137.63438034 C26.66089499 137.67544339 22.83016987 137.68760232 18.99830437 137.67864609 C17.60036776 137.68028186 16.20239602 137.69201617 14.80465126 137.71523285 C3.1632618 137.89893163 -6.74122181 134.89968091 -15.41015625 126.82421875 C-22.74530347 118.40772304 -27.51129234 109.07674548 -27.34057617 97.83984375 C-27.34123329 96.68229332 -27.34123329 96.68229332 -27.34190369 95.50135803 C-27.33983284 92.97980418 -27.31658378 90.45893603 -27.29296875 87.9375 C-27.28736671 86.17773807 -27.28309948 84.41797143 -27.28010559 82.65820312 C-27.26870468 78.04842998 -27.23927892 73.4389448 -27.20599365 68.82928467 C-27.17518978 64.11669814 -27.16157829 59.40406465 -27.14648438 54.69140625 C-27.11440418 45.46079126 -27.0616756 36.23046474 -27 27 C-18.09 27 -9.18 27 0 27 C0 18.09 0 9.18 0 0 Z " fill="#FFFFFF" transform="translate(90,935)"/>
<path d="M0 0 C2.79447425 1.2799999 5.52926831 2.65139406 8.25683594 4.06787109 C26.26752713 13.3865975 45.55144934 20.01834199 65.82421875 14.33984375 C74.76488515 11.25925144 82.13213685 6.96903105 88.83984375 0.30078125 C96.1922901 6.84339293 98.79953025 19.0680777 100.83984375 28.30078125 C100.9453125 31.21484375 100.9453125 31.21484375 100.83984375 33.30078125 C99.94265625 33.30335938 99.04546875 33.3059375 98.12109375 33.30859375 C76.90129652 33.96623209 58.67727999 45.43493024 40.71069336 55.78955078 C5.9131491 75.82922216 5.9131491 75.82922216 -9.14453125 72.67578125 C-25.1673885 68.21170162 -39.65119569 59.96790119 -52.86669922 50.015625 C-57.04190573 46.90630337 -61.23904254 44.6825838 -66.03515625 42.67578125 C-66.73842041 42.37583252 -67.44168457 42.07588379 -68.16625977 41.7668457 C-79.69508735 36.90538811 -90.65912944 34.18870465 -103.16015625 33.30078125 C-102.16783975 21.1945199 -98.50534375 11.181438 -93.16015625 0.30078125 C-90.08361404 1.67339239 -88.00201812 3.27123546 -85.59765625 5.61328125 C-76.13217129 14.05832359 -63.90888479 16.97205783 -51.48046875 16.73046875 C-34.96971492 15.45675942 -19.8626947 9.61202797 -5.75048828 1.23706055 C-2.35465412 -0.76217556 -2.35465412 -0.76217556 0 0 Z " fill="#02070C" transform="translate(450.16015625,126.69921875)"/>
<path d="M0 0 C0.74606506 -0.00301117 1.49213013 -0.00602234 2.26080322 -0.00912476 C15.49175893 -0.00576386 27.23009586 1.86035489 39.6875 6.5 C40.85667969 6.90605469 42.02585937 7.31210938 43.23046875 7.73046875 C48.43641153 9.70374331 52.95006174 12.24043415 57.625 15.25 C72.12869671 24.46227626 90.92891848 32.55517784 107.6875 36.5 C107.6875 37.16 107.6875 37.82 107.6875 38.5 C99.425541 43.09225513 99.425541 43.09225513 94.6875 42.5 C94.89246094 43.03109375 95.09742188 43.5621875 95.30859375 44.109375 C95.57800781 44.81578125 95.84742188 45.5221875 96.125 46.25 C96.39183594 46.94609375 96.65867187 47.6421875 96.93359375 48.359375 C100.27594115 57.84956349 99.84463525 68.77232691 95.953125 78.0078125 C91.82339243 86.13981676 85.66133457 95.71569926 77.6875 100.5 C73.40156558 100.41253195 70.87805597 99.32241489 67.6875 96.5 C68.15945034 93.38512778 68.89336905 91.06355762 70.25 88.1875 C71.84063509 84.10717519 72.67803632 80.77660123 71.6875 76.5 C69.36832975 71.94917536 66.95843893 68.34729262 62.6875 65.5 C60.48187112 65.1534551 58.2598344 64.90769242 56.03515625 64.71875 C55.37978378 64.65973511 54.72441132 64.60072021 54.04917908 64.53991699 C51.95007019 64.35187069 49.85022372 64.17511915 47.75 64 C36.05389691 63.00207182 24.46615488 61.87294216 13.0625 58.9375 C12.08023438 58.68871094 11.09796875 58.43992188 10.0859375 58.18359375 C7.6875 57.5 7.6875 57.5 5.6875 56.5 C5.79191406 57.57701172 5.79191406 57.57701172 5.8984375 58.67578125 C6.29493828 66.25649846 5.16045492 72.42341488 2.875 79.625 C2.61444824 80.45427002 2.35389648 81.28354004 2.08544922 82.13793945 C0.77617317 86.05326372 -0.17776164 88.6993494 -3.3125 91.5 C-3.41046875 90.81035156 -3.5084375 90.12070312 -3.609375 89.41015625 C-4.6518357 82.85882994 -6.22786399 77.36570466 -9.3125 71.5 C-9.74949219 70.65566406 -10.18648438 69.81132812 -10.63671875 68.94140625 C-16.63666756 58.04477378 -24.41470962 48.2814816 -31.91162109 38.39013672 C-48.3125 16.74735616 -48.3125 16.74735616 -48.3125 8.5 C-45.04432989 7.53242868 -41.77252392 6.57773208 -38.5 5.625 C-37.13584961 5.22087891 -37.13584961 5.22087891 -35.74414062 4.80859375 C-23.78932781 1.34465506 -12.40620254 0.02796122 0 0 Z " fill="#03080D" transform="translate(331.3125,195.5)"/>
<path d="M0 0 C-2.5434325 14.69538777 -14.41757603 27.64296581 -23.5625 38.9375 C-32.17735479 49.66115877 -40.27283768 61.64624053 -44 75 C-44.22042969 75.7321875 -44.44085937 76.464375 -44.66796875 77.21875 C-45.13701221 78.80531312 -45.57371162 80.40141859 -46 82 C-52.75300335 76.45907418 -54.0283717 63.29719426 -55 55 C-55.01174904 53.00003451 -55.01305926 50.99995736 -55 49 C-56.0523584 49.21148682 -56.0523584 49.21148682 -57.12597656 49.42724609 C-60.49750661 50.09401613 -63.87266721 50.73825332 -67.25 51.375 C-69.12316895 51.72933105 -69.12316895 51.72933105 -71.03417969 52.09082031 C-81.25603511 53.91934837 -91.35506776 54.74712151 -101.75878906 54.75146484 C-108.10623432 54.95667773 -108.10623432 54.95667773 -113.53320312 57.97851562 C-118.6946015 63.63452892 -120.33401969 67.83633787 -120.30078125 75.42578125 C-119.8420711 79.35162522 -118.14449683 81.71623922 -116 85 C-116 85.99 -116 86.98 -116 88 C-120.88921784 92.09329866 -120.88921784 92.09329866 -124.46484375 91.79296875 C-132.44971 89.29539117 -137.96870535 80.89617409 -142 74 C-147.01963646 63.26102018 -149.4356637 51.18781066 -145.5625 39.625 C-144.74693537 37.73289006 -143.92143645 35.84287291 -143 34 C-144.19625 33.896875 -145.3925 33.79375 -146.625 33.6875 C-150.5624176 33.21108648 -153.54140375 31.98869284 -157 30 C-157 29.34 -157 28.68 -157 28 C-155.783125 27.62230469 -154.56625 27.24460938 -153.3125 26.85546875 C-147.02630664 24.75720616 -141.03786633 22.03062251 -135 19.3125 C-133.80463623 18.77866699 -132.60927246 18.24483398 -131.37768555 17.69482422 C-124.81479384 14.75346475 -118.29529263 11.73813545 -111.8125 8.625 C-76.71225203 -8.07227218 -37.03257258 -15.38703598 0 0 Z " fill="#03080D" transform="translate(615,204)"/>
<path d="M0 0 C0.70463379 0.43103027 1.40926758 0.86206055 2.13525391 1.30615234 C13.74477545 8.42812382 24.99827299 15.97277517 36 24 C36.6712793 24.48968262 37.34255859 24.97936523 38.03417969 25.48388672 C51.10882541 35.06711544 63.89314875 45.06738762 75.84765625 56.02734375 C77.85134236 57.86375298 79.88423992 59.65690625 81.9375 61.4375 C83.29175149 62.62490326 84.64590803 63.81241482 86 65 C86.97066406 65.84175781 87.94132813 66.68351563 88.94140625 67.55078125 C89.96142097 68.4499727 90.98095468 69.34971008 92 70.25 C92.94875 71.08015625 93.8975 71.9103125 94.875 72.765625 C97 75 97 75 97 78 C95.26953125 79.65625 95.26953125 79.65625 92.8125 81.5 C89.64732547 83.91564676 86.55539128 86.35728908 83.58203125 89.00390625 C83.00799561 89.51050781 82.43395996 90.01710938 81.8425293 90.5390625 C80.70941355 91.54412892 79.58432308 92.5583263 78.46801758 93.58203125 C74.60785962 96.96836418 74.60785962 96.96836418 71.8984375 97.109375 C69.20163486 95.53346564 67.54204759 93.55773381 65.5 91.1875 C60.15375819 85.13552764 54.52253603 79.39596389 48.8125 73.6875 C47.96945312 72.84018311 47.12640625 71.99286621 46.2578125 71.11987305 C41.8836323 66.75470558 37.44078187 62.54042956 32.75366211 58.51293945 C30.40388428 56.48571223 28.14453771 54.36628918 25.875 52.25 C20.06859966 46.95687262 13.96093411 42.12467134 7.73339844 37.33935547 C6.09544306 36.07374657 4.47162877 34.79229334 2.8515625 33.50390625 C-20.47369951 15.14334106 -47.51674385 -2.04591406 -76 -11 C-76.59973633 -11.21140625 -77.19947266 -11.4228125 -77.81738281 -11.640625 C-87.39443165 -15.00263142 -96.33111077 -16.46546267 -106.5 -16.5 C-107.4902417 -16.50612305 -108.4804834 -16.51224609 -109.50073242 -16.51855469 C-118.49801069 -16.36432859 -126.34316529 -14.595722 -133.875 -9.5 C-134.75929687 -8.9121875 -135.64359375 -8.324375 -136.5546875 -7.71875 C-138.73626772 -6.18537093 -140.87998747 -4.61712584 -143 -3 C-142.31142138 -10.23007548 -138.46776149 -15.22090241 -133.359375 -20.1328125 C-94.30779548 -51.03787047 -35.9935882 -22.19813628 0 0 Z " fill="#FA9847" transform="translate(330,462)"/>
<path d="M0 0 C3.76565039 1.50457906 5.54295677 3.63416567 8 6.8125 C12.02942679 11.87920497 16.2807083 16.64385649 20.69946289 21.37231445 C23.34102617 24.20090597 25.93297098 27.0480117 28.4375 30 C39.50040566 42.73176248 52.02267352 53.57061056 66 63 C58.61891403 68.9981737 48.24947325 69.96652759 39.11328125 71.61181641 C37.70732962 71.87007231 36.30356701 72.14055107 34.90234375 72.42333984 C13.1392378 76.79274746 -11.12649691 76.77857725 -33 73 C-33.67224609 72.89284668 -34.34449219 72.78569336 -35.03710938 72.67529297 C-58.99332977 68.85497649 -58.99332977 68.85497649 -64 63 C-63.10539062 62.31035156 -62.21078125 61.62070312 -61.2890625 60.91015625 C-54.72937363 55.82334784 -48.33028179 50.66608906 -42.22265625 45.03515625 C-40.21135309 43.19352366 -38.15180328 41.4391381 -36.0625 39.6875 C-31.09692637 35.36135637 -26.7724373 30.43352313 -22.38476562 25.53759766 C-21.06417865 24.07126184 -19.7277749 22.61921677 -18.390625 21.16796875 C-13.32594934 15.67075091 -8.49430654 10.04202082 -3.8125 4.21484375 C-2 2 -2 2 0 0 Z " fill="#FB9948" transform="translate(448,693)"/>
<path d="M0 0 C0.274058 7.48106697 -0.34476522 14.17491353 -2.125 21.4375 C-2.3516333 22.38633057 -2.5782666 23.33516113 -2.81176758 24.31274414 C-3.51874537 27.21470588 -4.2525874 30.10820724 -5 33 C-5.21930176 33.85335937 -5.43860352 34.70671875 -5.66455078 35.5859375 C-11.08150573 56.16630865 -19.62489343 82.62489343 -35 98 C-41.65111779 98.26431408 -47.92731809 96.35943362 -54.0625 94 C-54.86671387 93.69602295 -55.67092773 93.3920459 -56.49951172 93.07885742 C-62.36258227 90.79291352 -68.03118142 88.19298406 -73.625 85.3125 C-74.71760132 84.76045898 -74.71760132 84.76045898 -75.83227539 84.19726562 C-80.74950428 81.55762153 -80.74950428 81.55762153 -81.85961914 79.08642578 C-82 77 -82 77 -80.98364258 75.24829102 C-80.45923584 74.67264404 -79.9348291 74.09699707 -79.39453125 73.50390625 C-78.53698242 72.54194336 -78.53698242 72.54194336 -77.66210938 71.56054688 C-77.05173828 70.90119141 -76.44136719 70.24183594 -75.8125 69.5625 C-74.63080406 68.25193864 -73.44979925 66.94075374 -72.26953125 65.62890625 C-71.70443848 65.01031738 -71.1393457 64.39172852 -70.55712891 63.75439453 C-69.20705065 62.23328097 -67.94406682 60.63571282 -66.69921875 59.02734375 C-66.13847656 58.35832031 -65.57773437 57.68929687 -65 57 C-64.34 57 -63.68 57 -63 57 C-62.79455566 56.46930908 -62.58911133 55.93861816 -62.37744141 55.3918457 C-60.42634452 52.00388111 -57.72143301 49.45658995 -54.9609375 46.73046875 C-54.36125153 46.131241 -53.76156555 45.53201324 -53.14370728 44.91462708 C-51.87339709 43.64733463 -50.6006607 42.38247017 -49.32568359 41.11987305 C-47.3976141 39.20990182 -45.47750968 37.29220964 -43.55859375 35.37304688 C-37.54636356 29.3776083 -31.54389122 23.42123517 -25 18 C-24.34290039 17.45206787 -23.68580078 16.90413574 -23.00878906 16.33959961 C-20.99438807 14.6728825 -18.96828984 13.02169283 -16.9375 11.375 C-16.26912109 10.8284375 -15.60074219 10.281875 -14.91210938 9.71875 C-2.94967666 0 -2.94967666 0 0 0 Z " fill="#03070C" transform="translate(649,507)"/>
<path d="M0 0 C19.86867919 11.41081943 37.23140075 29.18482212 53.375 45.25 C54.02903809 45.89936523 54.68307617 46.54873047 55.35693359 47.21777344 C59.20204093 51.07561616 62.85988201 55.04738511 66.41943359 59.16992188 C68.45098508 61.52217859 70.53622014 63.82354437 72.625 66.125 C73.3778125 66.96546875 74.130625 67.8059375 74.90625 68.671875 C76.1633847 70.06973374 77.43099549 71.45842247 78.71875 72.828125 C80.125 74.375 80.125 74.375 82 77 C81.81347656 79.04125977 81.81347656 79.04125977 81 81 C78.58192071 82.51280334 76.31810939 83.73957809 73.75 84.9375 C73.03070313 85.28449951 72.31140625 85.63149902 71.5703125 85.98901367 C65.18024606 89.02387186 58.64702954 91.58540225 52 94 C51.25234375 94.30808594 50.5046875 94.61617187 49.734375 94.93359375 C45.07702529 96.8497081 40.0830633 98.87409687 35 98 C32.19324712 95.86280985 30.72172245 93.03625089 29 90 C28.38511719 88.99195313 27.77023437 87.98390625 27.13671875 86.9453125 C11.88490012 61.29856506 -1.02023358 30.28818451 0 0 Z " fill="#02070C" transform="translate(249,507)"/>
<path d="M0 0 C40.59 0 81.18 0 123 0 C123 9.57 123 19.14 123 29 C82.41 29 41.82 29 0 29 C0 19.43 0 9.86 0 0 Z " fill="#FFFFFF" transform="translate(703,989)"/>
<path d="M0 0 C40.26 0 80.52 0 122 0 C122 9.57 122 19.14 122 29 C81.74 29 41.48 29 0 29 C0 19.43 0 9.86 0 0 Z " fill="#FFFFFF" transform="translate(103,989)"/>
<path d="M0 0 C0.33 0 0.66 0 1 0 C1.07404053 0.55647217 1.14808105 1.11294434 1.22436523 1.6862793 C3.81241257 20.17692285 8.86149727 38.34574541 21 53 C21.804375 54.03125 22.60875 55.0625 23.4375 56.125 C23.953125 56.74375 24.46875 57.3625 25 58 C23.61739702 61.08531602 22.00621322 63.23969354 19.6875 65.6875 C9.36383409 77.13127433 0.64420572 89.66453784 -7.44140625 102.7578125 C-7.88581055 103.47477295 -8.33021484 104.1917334 -8.78808594 104.93041992 C-10.01364564 106.95090377 -10.01364564 106.95090377 -10.92285156 108.9699707 C-13.59227836 114.56047493 -17.0945715 115.95638174 -22.625 117.9375 C-23.40101563 118.23978516 -24.17703125 118.54207031 -24.9765625 118.85351562 C-30.58370536 121 -30.58370536 121 -33 121 C-34.93620194 79.8557088 -21.71772572 36.33112154 -1 1 C-0.67 0.67 -0.34 0.34 0 0 Z " fill="#FAA347" transform="translate(228,298)"/>
<path d="M0 0 C4.05154494 0.56271457 7.49750951 1.44410133 11.25 3.0625 C12.29542969 3.51238281 13.34085937 3.96226562 14.41796875 4.42578125 C15.60003906 4.94527344 16.78210938 5.46476562 18 6 C18.66080566 6.28794434 19.32161133 6.57588867 20.00244141 6.87255859 C35.44154136 13.60462045 50.83484132 20.43030794 65.44287109 28.84228516 C69.15475708 30.97841447 72.88360956 32.96312163 76.75 34.8125 C85.83201312 39.27405422 94.37012157 44.73443734 103 50 C105.07533338 51.26202706 107.15085922 52.52373768 109.2265625 53.78515625 C114.03315312 56.70735975 118.83692887 59.6341355 123.63842773 62.56469727 C124.41774658 63.03834717 125.19706543 63.51199707 126 64 C126.82121338 64.59675537 127.64242676 65.19351074 128.48852539 65.80834961 C130.93042632 67.29039175 130.93042632 67.29039175 133.45507812 66.40087891 C136.25684031 64.85861956 139.00145999 63.27374798 141.71875 61.5859375 C142.81703125 60.90660156 143.9153125 60.22726562 145.046875 59.52734375 C146.1979908 58.81001479 147.34903231 58.09256658 148.5 57.375 C150.73958333 55.98697917 152.97916667 54.59895833 155.21875 53.2109375 C156.33145264 52.51983887 157.44415527 51.82874023 158.59057617 51.11669922 C162.06452764 48.95937379 165.54019153 46.80487583 169.01953125 44.65625 C170.04409424 44.02267578 171.06865723 43.38910156 172.12426758 42.73632812 C175.65965248 40.60171081 179.25980464 38.6202158 182.90234375 36.67578125 C185.24643135 35.40766829 187.56551397 34.11498712 189.87890625 32.79296875 C201.97019667 25.91031927 214.37773087 19.84451917 227 14 C227.92264648 13.57235352 228.84529297 13.14470703 229.79589844 12.70410156 C251.99943348 2.45692767 251.99943348 2.45692767 258 1 C258.66 1.33 259.32 1.66 260 2 C259.3922876 2.33620361 258.7845752 2.67240723 258.15844727 3.01879883 C245.81635053 9.86699435 233.6709827 16.86468978 221.93359375 24.70898438 C220.03467304 25.97684962 218.12796235 27.23207459 216.21875 28.484375 C196.16852063 41.67877031 176.73800217 55.85711824 157.80029297 70.59863281 C155.66162986 72.26339092 153.52021544 73.92458443 151.37890625 75.5859375 C142.14630628 82.73818292 142.14630628 82.73818292 133 90 C128.16172189 88.46054787 124.84231411 85.68620023 121 82.5 C119.65701619 81.40661032 118.31325315 80.31417712 116.96875 79.22265625 C116.29972656 78.67754395 115.63070312 78.13243164 114.94140625 77.57080078 C105.22261106 69.70727862 95.11277777 62.34405996 85 55 C84.27055176 54.46938965 83.54110352 53.9387793 82.78955078 53.39208984 C73.27423301 46.47463067 63.72824349 39.61615583 54 33 C53.41686035 32.60216309 52.8337207 32.20432617 52.23291016 31.79443359 C43.01645308 25.52038858 33.62965608 19.61814676 24 14 C23.38705078 13.64131836 22.77410156 13.28263672 22.14257812 12.91308594 C14.88869863 8.67973721 7.57682685 4.63129029 0 1 C0 0.67 0 0.34 0 0 Z " fill="#F55D00" transform="translate(317,427)"/>
<path d="M0 0 C5.31658538 3.97824715 10.05930571 8.50566933 14.82421875 13.11328125 C15.60667969 13.84417969 16.38914062 14.57507813 17.1953125 15.328125 C31.55837427 29.07672424 44.94978408 47.3331639 53.82421875 65.11328125 C53.82421875 65.77328125 53.82421875 66.43328125 53.82421875 67.11328125 C51.42890119 67.45073479 49.03307607 67.78336415 46.63671875 68.11328125 C45.96318359 68.20867187 45.28964844 68.3040625 44.59570312 68.40234375 C40.97757298 68.89652738 37.47625474 69.22674256 33.82421875 69.11328125 C31.15332115 64.37500618 28.56280843 59.60799515 26.06811523 54.77416992 C20.15251824 43.40070451 12.97572765 33.01913663 4.82421875 23.11328125 C4.14875 22.27925781 3.47328125 21.44523437 2.77734375 20.5859375 C-6.68236138 9.43220716 -17.74878143 3.47832926 -32.34765625 1.734375 C-41.61392755 1.36228379 -50.29136532 3.98478584 -57.671875 9.67578125 C-60.31031821 12.19772178 -62.19669009 15.05468582 -64.17578125 18.11328125 C-64.50578125 17.45328125 -64.83578125 16.79328125 -65.17578125 16.11328125 C-57.18434912 4.35992495 -49.0583697 -3.95760634 -35.2265625 -8.53125 C-21.86090116 -10.84796463 -11.03514936 -7.3515189 0 0 Z " fill="#F8A146" transform="translate(592.17578125,342.88671875)"/>
<path d="M0 0 C8.14781894 4.43813316 16.9654534 10.9599109 20 20 C19.05125 19.113125 18.1025 18.22625 17.125 17.3125 C7.80959575 9.35206364 -2.91068292 6.12972052 -15 7 C-31.36913345 8.78992288 -42.05394296 19.66204035 -51.875 31.875 C-61.76157857 44.85075995 -70.161735 59.20448119 -77 74 C-81.77368361 74.09729801 -86.22846593 73.77674789 -90.9375 73 C-92.65259766 72.7215625 -92.65259766 72.7215625 -94.40234375 72.4375 C-95.25957031 72.293125 -96.11679688 72.14875 -97 72 C-89.16815945 50.59296916 -71.90570382 31.77966813 -56 16 C-55.20722656 15.20980469 -54.41445313 14.41960937 -53.59765625 13.60546875 C-38.66449436 -0.63740831 -20.06220181 -10.12573393 0 0 Z " fill="#F7A046" transform="translate(349,338)"/>
<path d="M0 0 C3.10110153 2.66217639 4.78007873 6.02115843 6.6875 9.5625 C9.16953752 14.0762939 11.71141568 18.04562075 15.125 21.9375 C22.86840932 31.11657101 26.17796978 43.07658704 26.1875 54.875 C26.19974609 55.66519531 26.21199219 56.45539063 26.22460938 57.26953125 C26.2362095 61.91731548 25.77874711 65.62695373 24 70 C12.0532159 62.95446066 3.60966177 52.00561565 0.09545898 38.59936523 C-2.86784584 25.88416768 -3.49240545 12.69115197 0 0 Z " fill="#F6AD44" transform="translate(255,250)"/>
<path d="M0 0 C0.66 0 1.32 0 2 0 C3.15453189 6.24118192 3.2212561 12.2941568 3.25 18.625 C3.270625 19.73746094 3.29125 20.84992188 3.3125 21.99609375 C3.38495086 37.55491609 -1.20577386 51.43683972 -12.25 62.6875 C-19.02439024 69 -19.02439024 69 -23 69 C-26.58269924 58.25190227 -24.79906486 43.93292549 -20.81640625 33.55078125 C-18.03332254 28.11030149 -14.48728162 23.4007144 -10.734375 18.59765625 C-6.37425374 12.98725056 -2.25395704 6.76187112 0 0 Z " fill="#F9AF45" transform="translate(641,250)"/>
<path d="M0 0 C1.58941406 0.01353516 1.58941406 0.01353516 3.2109375 0.02734375 C4.00757813 0.03894531 4.80421875 0.05054688 5.625 0.0625 C5.08489716 3.93773787 4.08987748 6.16565501 1.625 9.1875 C-0.33406621 11.60807699 -1.37506361 13.06269084 -2.375 16.0625 C-5.1973272 17.51053486 -8.32778665 18.20752647 -11.375 19.0625 C-12.30183594 19.34480469 -13.22867188 19.62710938 -14.18359375 19.91796875 C-21.46990294 21.97903629 -28.82358999 23.34560867 -36.375 22.0625 C-39.36113988 20.35786145 -39.78251909 19.30644259 -41.375 16.0625 C-41.6875 12.1875 -41.6875 12.1875 -41.375 9.0625 C-35.50705156 6.27134789 -29.64845869 4.81064422 -23.3125 3.4375 C-22.34505859 3.2209375 -21.37761719 3.004375 -20.38085938 2.78125 C-13.5323203 1.26247747 -7.04719268 -0.07830214 0 0 Z " fill="#F7F7F7" transform="translate(545.375,221.9375)"/>
<path d="M0 0 C8.41441017 0.51377574 16.41643296 1.99692384 24.625 3.875 C26.36910156 4.25978516 26.36910156 4.25978516 28.1484375 4.65234375 C34.58298877 6.10084568 40.78615277 7.78739342 47 10 C47.50477602 15.30014818 46.20817314 17.81965318 43 22 C41.17384916 23.82615084 38.461993 23.25934333 36 23.3125 C30.0895183 23.27002221 24.63569786 22.55749403 18.875 21.25 C18.153125 21.09313721 17.43125 20.93627441 16.6875 20.7746582 C9.64094976 19.04210428 7.03919318 15.39430049 3.25 9.5 C2.63640625 8.5615625 2.0228125 7.623125 1.390625 6.65625 C0 4 0 4 0 0 Z " fill="#F8F8F8" transform="translate(347,221)"/>
<path d="M0 0 C-2.28874173 1.33858524 -4.58069656 2.67101014 -6.875 4 C-7.52597656 4.3815625 -8.17695312 4.763125 -8.84765625 5.15625 C-13.7734375 8 -13.7734375 8 -16 8 C-16 7.34 -16 6.68 -16 6 C-16.66 5.67 -17.32 5.34 -18 5 C-15.37831689 3.96983978 -12.75326119 2.95061606 -10.125 1.9375 C-9.37863281 1.64294922 -8.63226562 1.34839844 -7.86328125 1.04492188 C-2.2265625 -1.11328125 -2.2265625 -1.11328125 0 0 Z " fill="#C14A02" transform="translate(577,429)"/>
<path d="M0 0 C0.66 0.33 1.32 0.66 2 1 C0.515 2.485 0.515 2.485 -1 4 C-0.67 4.66 -0.34 5.32 0 6 C-0.886875 6.515625 -1.77375 7.03125 -2.6875 7.5625 C-6.48412371 10.06051608 -8.53173302 13.22500344 -11 17 C-11.33 16.34 -11.66 15.68 -12 15 C-10.75457942 13.24673802 -9.50345947 11.49752378 -8.25 9.75 C-7.55390625 8.77546875 -6.8578125 7.8009375 -6.140625 6.796875 C-4.23547701 4.30766704 -2.27315379 2.15028061 0 0 Z " fill="#BC8038" transform="translate(539,344)"/>
<path d="M0 0 C0.33 0 0.66 0 1 0 C1 3.63 1 7.26 1 11 C0.67 11 0.34 11 0 11 C-0.33 9.35 -0.66 7.7 -1 6 C-1.99 6.495 -1.99 6.495 -3 7 C-1.125 1.125 -1.125 1.125 0 0 Z " fill="#E18941" transform="translate(203,602)"/>
<path d="M0 0 C-0.33 0.99 -0.66 1.98 -1 3 C-3.0625 3.6875 -3.0625 3.6875 -5 4 C-5 3.34 -5 2.68 -5 2 C-5.66 1.67 -6.32 1.34 -7 1 C-4 0 -4 0 0 0 Z " fill="#DB5401" transform="translate(566,433)"/>
<path d="M0 0 C0.66 0 1.32 0 2 0 C2.3125 2.3125 2.3125 2.3125 2 5 C-0.5 6.8125 -0.5 6.8125 -3 8 C-2.690625 7.236875 -2.38125 6.47375 -2.0625 5.6875 C-1.32106407 3.81210323 -0.63771783 1.91315348 0 0 Z " fill="#C08A38" transform="translate(641,250)"/>
</svg>
