<?xml version="1.0" encoding="UTF-8"?>
<svg version="1.1" xmlns="http://www.w3.org/2000/svg" width="62" height="75">
<path d="M0 0 C-1.33333333 2.66666667 -2.66666667 5.33333333 -4 8 C-3.443125 7.236875 -2.88625 6.47375 -2.3125 5.6875 C0.01166722 2.9864408 1.76283407 1.45672467 5 0 C7.15625 0.4296875 7.15625 0.4296875 9 1 C8.566875 1.61746094 8.13375 2.23492188 7.6875 2.87109375 C3.68314383 8.9610521 2.29591157 12.72441951 3 20 C3.36351563 19.19175781 3.72703125 18.38351563 4.1015625 17.55078125 C9.46672479 6.14637218 9.46672479 6.14637218 15 3 C21.10583403 1.25883731 28.10064109 1.64664563 34 4 C36.8524352 6.92094347 37 7.74026592 37 12 C34.03 12 31.06 12 28 12 C27.9071875 13.8871875 27.9071875 13.8871875 27.8125 15.8125 C27.77769531 16.52019531 27.74289063 17.22789063 27.70703125 17.95703125 C28.09283022 20.64733606 28.84716538 21.37133381 31 23 C33.47192975 24.0853381 35.97867576 24.95184631 38.52734375 25.83984375 C41.45066104 27.2114476 43.04052847 28.42431458 45 31 C47.31842077 41.78136775 43.34015178 50.0361738 38 59 C37.01 58.67 36.02 58.34 35 58 C35.061875 56.783125 35.12375 55.56625 35.1875 54.3125 C35.19440601 50.41750797 34.46062325 48.12309875 32 45 C31.01 44.505 31.01 44.505 30 44 C30.495 44.78375 30.99 45.5675 31.5 46.375 C33.70456906 51.70270857 34.13781674 56.64675173 32.26171875 62.17578125 C28.92626275 68.42218067 23.24220709 71.97402443 17 75 C11.82957377 76.31610849 8.72291092 74.54850202 4.1875 72.125 C-2.02999915 68.2910062 -7.34268445 63.63617611 -12 58 C-12 57.34 -12 56.68 -12 56 C-9.28617432 56.63621789 -6.71512101 57.42249445 -4.109375 58.41015625 C-3.04589844 58.81137695 -3.04589844 58.81137695 -1.9609375 59.22070312 C-1.23132812 59.49849609 -0.50171875 59.77628906 0.25 60.0625 C0.99507812 60.34416016 1.74015625 60.62582031 2.5078125 60.91601562 C4.33929393 61.6086913 6.16974923 62.30407907 8 63 C6.58847656 62.22076172 6.58847656 62.22076172 5.1484375 61.42578125 C3.89044274 60.72167971 2.63264048 60.01723415 1.375 59.3125 C0.75753906 58.97283203 0.14007812 58.63316406 -0.49609375 58.28320312 C-7.92191879 54.10129113 -13.93414997 49.56211185 -16.59765625 41.1015625 C-17.42500283 36.78008229 -17.11975547 32.37962852 -17 28 C-16.98324219 27.071875 -16.96648438 26.14375 -16.94921875 25.1875 C-16.4971929 16.09532282 -13.64482549 9.08379023 -6.875 2.875 C-3.47004608 0 -3.47004608 0 0 0 Z M-8 15 C-8.04125 16.27875 -8.0825 17.5575 -8.125 18.875 C-8.14820313 19.59429688 -8.17140625 20.31359375 -8.1953125 21.0546875 C-8.18331689 23.23863645 -8.18331689 23.23863645 -6 25 C-6.33 21.7 -6.66 18.4 -7 15 C-7.33 15 -7.66 15 -8 15 Z M34 33 C34.40992188 33.54269531 34.81984375 34.08539063 35.2421875 34.64453125 C35.78101563 35.35996094 36.31984375 36.07539062 36.875 36.8125 C37.40867188 37.52019531 37.94234375 38.22789063 38.4921875 38.95703125 C39.70814781 40.60456297 40.86416141 42.29624211 42 44 C41.69750834 38.689958 41.69750834 38.689958 38.5625 34.5625 C36.21561824 32.82646419 36.21561824 32.82646419 34 33 Z M-13 35 C-12 37 -12 37 -12 37 Z M-11 38 C-9.5334699 42.10628427 -6.74956954 44.06121755 -3 46 C-0.08356152 46.97465228 2.86600658 47.62780136 5.875 48.25 C6.65875 48.42273437 7.4425 48.59546875 8.25 48.7734375 C10.1642128 49.19363055 12.08179684 49.59841627 14 50 C10.90815837 45.8815237 5.77929121 45.27195805 1.06835938 43.98242188 C-3.61365359 42.62906172 -7.07441426 40.90259166 -11 38 Z " fill="#00BD6D" transform="translate(17,0)"/>
</svg>
