<?xml version="1.0" encoding="UTF-8"?>
<svg version="1.1" xmlns="http://www.w3.org/2000/svg" width="900" height="457">
<path d="M0 0 C1.84228516 0.24584961 1.84228516 0.24584961 4 1 C5.33349609 2.75219727 5.33349609 2.75219727 6.5234375 5.06640625 C6.97952393 5.93160889 7.43561035 6.79681152 7.90551758 7.68823242 C8.39044678 8.63674072 8.87537598 9.58524902 9.375 10.5625 C10.44597547 12.59285991 11.52031402 14.62144871 12.59765625 16.6484375 C13.15598145 17.7012793 13.71430664 18.75412109 14.28955078 19.83886719 C17.00716005 24.86136288 19.90692861 29.77211204 22.8125 34.6875 C27.83825659 43.22265709 32.71596027 51.82711069 37.5 60.5 C42.76857794 70.04891547 48.17543817 79.50059796 53.70629883 88.8996582 C60.17539134 99.93192715 66.34275263 111.12878802 72.50463867 122.3347168 C72.99810791 123.21426025 73.49157715 124.09380371 74 125 C74.30676666 125.86637085 74.61353333 126.7327417 74.92959595 127.62536621 C76.71927027 130.14934243 76.71927027 130.14934243 79.06018925 130.46677113 C81.92424955 130.66028563 84.75117655 130.68331314 87.62182617 130.65942383 C89.26108315 130.67514938 89.26108315 130.67514938 90.93345642 130.69119263 C94.5535791 130.72004436 98.17275123 130.71363883 101.79296875 130.70703125 C104.299761 130.72014006 106.80654266 130.73544174 109.31330872 130.75285339 C115.24188372 130.78872495 121.17024906 130.80244328 127.09890777 130.8054778 C134.51072059 130.8106249 141.92228328 130.85008009 149.33398438 130.88867188 C162.55597499 130.95335774 175.77786241 130.98746113 189 131 C187.70931448 134.99781479 186.3250382 138.45553121 184.1640625 142.0625 C183.60074219 143.01253906 183.03742187 143.96257812 182.45703125 144.94140625 C181.85246094 145.95074219 181.24789062 146.96007812 180.625 148 C175.93508171 155.925673 171.36192894 163.88912195 167 172 C162.26807476 180.78059734 157.32405404 189.41886546 152.24609375 198.00390625 C146.98836821 206.9180836 142.03387726 215.93902093 137 225 C246.56 225 356.12 225 469 225 C467.94621161 229.21515357 467.26388811 230.10227784 464.29394531 233.03076172 C463.11702118 234.20250443 463.11702118 234.20250443 461.9163208 235.3979187 C460.63516388 236.65114426 460.63516388 236.65114426 459.328125 237.9296875 C458.45355652 238.79763947 457.57898804 239.66559143 456.67791748 240.55984497 C454.35058151 242.86771693 452.01720084 245.16922972 449.68029785 247.46740723 C446.40153195 250.69412479 443.13258119 253.9307658 439.8649292 257.16873169 C438.12631534 258.89046213 436.38462293 260.60909091 434.63946533 262.32418823 C430.51744044 266.39575656 426.63552383 270.49002744 423 275 C421.74141903 276.18207899 420.45235542 277.33320638 419.125 278.4375 C414.05280811 282.77693622 409.36901629 287.35476558 405.04296875 292.44140625 C400.39318199 297.77362899 395.46532253 302.82880071 390.49267578 307.85742188 C389.40528889 308.96154789 388.32332035 310.07103393 387.24658203 311.18554688 C385.67372396 312.81300159 384.08518569 314.42353363 382.4921875 316.03125 C382.0149826 316.53112427 381.53777771 317.03099854 381.04611206 317.54602051 C377.67026854 320.90083513 377.12109503 321 372 321 C372 365.88 372 410.76 372 457 C286.2 457 200.4 457 112 457 C112 436.21 112 415.42 112 394 C60.19 394 8.38 394 -45 394 C-45.33 389.05 -45.66 384.1 -46 379 C-48.14888676 381.12198832 -50.29418583 383.24739599 -52.4375 385.375 C-53.04916016 385.97828125 -53.66082031 386.5815625 -54.29101562 387.203125 C-54.87431641 387.78320312 -55.45761719 388.36328125 -56.05859375 388.9609375 C-56.59798584 389.49509277 -57.13737793 390.02924805 -57.69311523 390.57958984 C-59.10846977 391.98652388 -59.10846977 391.98652388 -60 394 C-142.5 394 -225 394 -310 394 C-310 381.79 -310 369.58 -310 357 C-315.94 357 -321.88 357 -328 357 C-328 369.21 -328 381.42 -328 394 C-361.99 394 -395.98 394 -431 394 C-431.60245503 365.57304803 -431.60245503 365.57304803 -431.75380802 351.45423317 C-431.83669738 343.84028113 -431.94163149 336.22881386 -432.1315918 328.61669922 C-432.29818035 321.93790535 -432.38442068 315.26235345 -432.42315865 308.5813942 C-432.45073635 306.04148209 -432.50459541 303.50170646 -432.58595085 300.96294785 C-432.69598622 297.38474669 -432.70979848 293.81743105 -432.70288086 290.23779297 C-432.75681 289.20344116 -432.81073914 288.16908936 -432.86630249 287.10339355 C-432.75849555 281.89975392 -431.77950503 278.51969676 -428.10577774 274.81690025 C-426.22645076 273.0705182 -424.30475816 271.39056077 -422.35298353 269.72557735 C-416.96817272 265.09720759 -412.77486244 260.0973151 -408.48336792 254.45846558 C-396.37972359 239.20619224 -383.98783861 225.50733921 -363.90924072 222.61920166 C-349.48815629 221.02317539 -334.92982069 221.38527405 -320.45404387 221.87200797 C-312.82585132 222.12077063 -305.201058 222.14494377 -297.56941722 222.16029833 C-283.97101518 222.19331197 -270.38079227 222.39401281 -256.78613281 222.70605469 C-243.61078515 223.00809958 -230.43815379 223.22749727 -217.25976562 223.33984375 C-216.44235134 223.34684025 -215.62493706 223.35383674 -214.78275265 223.36104526 C-210.68045907 223.3956616 -206.57815457 223.42869609 -202.47584176 223.46094537 C-168.64508277 223.72892981 -134.82396889 224.27148441 -101 225 C-105.62515804 222.68116618 -110.25101743 220.36373913 -114.87748718 218.0475235 C-116.44601218 217.26201624 -118.01435634 216.47614775 -119.58250427 215.689888 C-128.620819 211.15846282 -137.67164084 206.66597462 -146.8125 202.34375 C-155.30035764 198.31775863 -163.72689362 194.17828988 -172.125 189.96875 C-172.73221893 189.66442047 -173.33943787 189.36009094 -173.96505737 189.04653931 C-178.93674998 186.55373769 -183.905791 184.05566707 -188.87475586 181.55743408 C-193.20695765 179.37961767 -197.54015434 177.20379958 -201.875 175.03125 C-202.4810652 174.72746744 -203.08713039 174.42368488 -203.7115612 174.11069679 C-212.59693907 169.66098669 -221.53140387 165.32516722 -230.50880432 161.06437683 C-241.90017013 155.64523301 -253.16419884 149.97198149 -264.4375 144.3125 C-266.64508652 143.20618908 -268.85276844 142.1000685 -271.06054688 140.99414062 C-276.37479304 138.33160708 -281.68788227 135.66677731 -287 133 C-287 132.34 -287 131.68 -287 131 C-285.91516012 131.0169693 -284.83032024 131.0339386 -283.71260643 131.05142212 C-257.27895876 131.45936912 -230.8466606 131.7281883 -204.4101162 131.8523407 C-191.62496794 131.91558205 -178.84315277 132.02350383 -166.05957031 132.23779297 C-154.91301823 132.42452618 -143.76943071 132.5262252 -132.62125838 132.52715683 C-126.72021403 132.53058545 -120.82631015 132.57565903 -114.92695236 132.72271729 C-91.74409272 134.68053401 -91.74409272 134.68053401 -70.68245697 127.64002991 C-65.65789946 122.05752162 -62.98166333 115.95350282 -60.87604141 108.80783081 C-59.69071697 105.0087062 -57.91942566 101.97817254 -55.84375 98.59375 C-54.72706799 96.56365299 -53.61243196 94.53242901 -52.5 92.5 C-47.77657718 83.93262012 -42.96056262 75.4322568 -38 67 C-32.44262762 57.5494951 -27.07845113 48.00421323 -21.77905273 38.40698242 C-14.65628172 25.52644432 -7.33294799 12.76174424 0 0 Z " fill="#FC277E" transform="translate(431,0)"/>
<path d="M0 0 C1.84228516 0.24584961 1.84228516 0.24584961 4 1 C5.33349609 2.75219727 5.33349609 2.75219727 6.5234375 5.06640625 C6.97952393 5.93160889 7.43561035 6.79681152 7.90551758 7.68823242 C8.39044678 8.63674072 8.87537598 9.58524902 9.375 10.5625 C10.44597547 12.59285991 11.52031402 14.62144871 12.59765625 16.6484375 C13.15598145 17.7012793 13.71430664 18.75412109 14.28955078 19.83886719 C17.00716005 24.86136288 19.90692861 29.77211204 22.8125 34.6875 C27.83825659 43.22265709 32.71596027 51.82711069 37.5 60.5 C42.76857794 70.04891547 48.17543817 79.50059796 53.70629883 88.8996582 C60.17539134 99.93192715 66.34275263 111.12878802 72.50463867 122.3347168 C72.99810791 123.21426025 73.49157715 124.09380371 74 125 C74.30676666 125.86637085 74.61353333 126.7327417 74.92959595 127.62536621 C76.71927027 130.14934243 76.71927027 130.14934243 79.06018925 130.46677113 C81.92424955 130.66028563 84.75117655 130.68331314 87.62182617 130.65942383 C89.26108315 130.67514938 89.26108315 130.67514938 90.93345642 130.69119263 C94.5535791 130.72004436 98.17275123 130.71363883 101.79296875 130.70703125 C104.299761 130.72014006 106.80654266 130.73544174 109.31330872 130.75285339 C115.24188372 130.78872495 121.17024906 130.80244328 127.09890777 130.8054778 C134.51072059 130.8106249 141.92228328 130.85008009 149.33398438 130.88867188 C162.55597499 130.95335774 175.77786241 130.98746113 189 131 C187.70931448 134.99781479 186.3250382 138.45553121 184.1640625 142.0625 C183.60074219 143.01253906 183.03742187 143.96257812 182.45703125 144.94140625 C181.85246094 145.95074219 181.24789062 146.96007812 180.625 148 C175.93508171 155.925673 171.36192894 163.88912195 167 172 C162.26807476 180.78059734 157.32405404 189.41886546 152.24609375 198.00390625 C146.98836821 206.9180836 142.03387726 215.93902093 137 225 C246.56 225 356.12 225 469 225 C467.94621161 229.21515357 467.26388811 230.10227784 464.29394531 233.03076172 C463.11702118 234.20250443 463.11702118 234.20250443 461.9163208 235.3979187 C460.63516388 236.65114426 460.63516388 236.65114426 459.328125 237.9296875 C458.45355652 238.79763947 457.57898804 239.66559143 456.67791748 240.55984497 C454.35058151 242.86771693 452.01720084 245.16922972 449.68029785 247.46740723 C446.40153195 250.69412479 443.13258119 253.9307658 439.8649292 257.16873169 C438.12631534 258.89046213 436.38462293 260.60909091 434.63946533 262.32418823 C430.51744044 266.39575656 426.63552383 270.49002744 423 275 C421.74141903 276.18207899 420.45235542 277.33320638 419.125 278.4375 C414.05280811 282.77693622 409.36901629 287.35476558 405.04296875 292.44140625 C400.39318199 297.77362899 395.46532253 302.82880071 390.49267578 307.85742188 C389.40528889 308.96154789 388.32332035 310.07103393 387.24658203 311.18554688 C385.67372396 312.81300159 384.08518569 314.42353363 382.4921875 316.03125 C382.0149826 316.53112427 381.53777771 317.03099854 381.04611206 317.54602051 C377.67026854 320.90083513 377.12109503 321 372 321 C372 365.88 372 410.76 372 457 C286.2 457 200.4 457 112 457 C112 436.21 112 415.42 112 394 C60.19 394 8.38 394 -45 394 C-45.33 389.05 -45.66 384.1 -46 379 C-48.14888676 381.12198832 -50.29418583 383.24739599 -52.4375 385.375 C-53.04916016 385.97828125 -53.66082031 386.5815625 -54.29101562 387.203125 C-54.87431641 387.78320312 -55.45761719 388.36328125 -56.05859375 388.9609375 C-56.59798584 389.49509277 -57.13737793 390.02924805 -57.69311523 390.57958984 C-59.10846977 391.98652388 -59.10846977 391.98652388 -60 394 C-142.5 394 -225 394 -310 394 C-310 381.79 -310 369.58 -310 357 C-315.94 357 -321.88 357 -328 357 C-328 369.21 -328 381.42 -328 394 C-361.99 394 -395.98 394 -431 394 C-431.60245503 365.57304803 -431.60245503 365.57304803 -431.75380802 351.45423317 C-431.83669738 343.84028113 -431.94163149 336.22881386 -432.1315918 328.61669922 C-432.29818035 321.93790535 -432.38442068 315.26235345 -432.42315865 308.5813942 C-432.45073635 306.04148209 -432.50459541 303.50170646 -432.58595085 300.96294785 C-432.69598622 297.38474669 -432.70979848 293.81743105 -432.70288086 290.23779297 C-432.75681 289.20344116 -432.81073914 288.16908936 -432.86630249 287.10339355 C-432.75849555 281.89975392 -431.77950503 278.51969676 -428.10577774 274.81690025 C-426.22645076 273.0705182 -424.30475816 271.39056077 -422.35298353 269.72557735 C-416.96817272 265.09720759 -412.77486244 260.0973151 -408.48336792 254.45846558 C-396.37972359 239.20619224 -383.98783861 225.50733921 -363.90924072 222.61920166 C-349.48815629 221.02317539 -334.92982069 221.38527405 -320.45404387 221.87200797 C-312.82585132 222.12077063 -305.201058 222.14494377 -297.56941722 222.16029833 C-283.97101518 222.19331197 -270.38079227 222.39401281 -256.78613281 222.70605469 C-243.61078515 223.00809958 -230.43815379 223.22749727 -217.25976562 223.33984375 C-216.44235134 223.34684025 -215.62493706 223.35383674 -214.78275265 223.36104526 C-210.68045907 223.3956616 -206.57815457 223.42869609 -202.47584176 223.46094537 C-168.64508277 223.72892981 -134.82396889 224.27148441 -101 225 C-105.62515804 222.68116618 -110.25101743 220.36373913 -114.87748718 218.0475235 C-116.44601218 217.26201624 -118.01435634 216.47614775 -119.58250427 215.689888 C-128.620819 211.15846282 -137.67164084 206.66597462 -146.8125 202.34375 C-155.30035764 198.31775863 -163.72689362 194.17828988 -172.125 189.96875 C-172.73221893 189.66442047 -173.33943787 189.36009094 -173.96505737 189.04653931 C-178.93674998 186.55373769 -183.905791 184.05566707 -188.87475586 181.55743408 C-193.20695765 179.37961767 -197.54015434 177.20379958 -201.875 175.03125 C-202.4810652 174.72746744 -203.08713039 174.42368488 -203.7115612 174.11069679 C-212.59693907 169.66098669 -221.53140387 165.32516722 -230.50880432 161.06437683 C-241.90017013 155.64523301 -253.16419884 149.97198149 -264.4375 144.3125 C-266.64508652 143.20618908 -268.85276844 142.1000685 -271.06054688 140.99414062 C-276.37479304 138.33160708 -281.68788227 135.66677731 -287 133 C-287 132.34 -287 131.68 -287 131 C-285.91516012 131.0169693 -284.83032024 131.0339386 -283.71260643 131.05142212 C-257.27895876 131.45936912 -230.8466606 131.7281883 -204.4101162 131.8523407 C-191.62496794 131.91558205 -178.84315277 132.02350383 -166.05957031 132.23779297 C-154.91301823 132.42452618 -143.76943071 132.5262252 -132.62125838 132.52715683 C-126.72021403 132.53058545 -120.82631015 132.57565903 -114.92695236 132.72271729 C-91.74409272 134.68053401 -91.74409272 134.68053401 -70.68245697 127.64002991 C-65.65789946 122.05752162 -62.98166333 115.95350282 -60.87604141 108.80783081 C-59.69071697 105.0087062 -57.91942566 101.97817254 -55.84375 98.59375 C-54.72706799 96.56365299 -53.61243196 94.53242901 -52.5 92.5 C-47.77657718 83.93262012 -42.96056262 75.4322568 -38 67 C-32.44262762 57.5494951 -27.07845113 48.00421323 -21.77905273 38.40698242 C-14.65628172 25.52644432 -7.33294799 12.76174424 0 0 Z M1 41 C-5.04827793 51.17148319 -10.95714236 61.41359107 -16.76513672 71.72412109 C-21.08723052 79.39412248 -25.44130033 87.0453896 -29.8125 94.6875 C-30.3106723 95.55856888 -30.3106723 95.55856888 -30.81890869 96.44723511 C-32.51779371 99.41763949 -34.21705493 102.38782841 -35.91650391 105.35791016 C-39.10590547 110.93245882 -42.29159201 116.50913068 -45.47763062 122.08560181 C-50.27291023 130.47852202 -50.27291023 130.47852202 -52.11247253 133.49281311 C-54.11803762 136.91693159 -54.11803762 136.91693159 -55.03210449 140.64227295 C-56.59719239 145.12944108 -57.97555699 148.31138839 -62 151 C-71.0687564 153.60345092 -81.11077816 152.80383219 -90.47543716 152.62144423 C-94.29379266 152.56183835 -98.11173491 152.58181666 -101.93041992 152.59317017 C-109.15248132 152.60264315 -116.3721002 152.54107445 -123.59356785 152.45364916 C-131.81848997 152.35755901 -140.04297599 152.34116169 -148.26838303 152.3312881 C-165.17998677 152.3092111 -182.08943894 152.18760906 -199 152 C-196.83486082 154.23501925 -194.96289869 155.70437356 -192.16894531 157.09375 C-191.40253723 157.47845459 -190.63612915 157.86315918 -189.84649658 158.25952148 C-189.01543396 158.66887939 -188.18437134 159.0782373 -187.328125 159.5 C-186.45468445 159.93578369 -185.5812439 160.37156738 -184.68133545 160.82055664 C-182.81987582 161.74792135 -180.95697786 162.67240363 -179.09277344 163.59423828 C-176.32709964 164.96187395 -173.56549849 166.33742292 -170.8046875 167.71484375 C-162.62042311 171.78867599 -154.41702285 175.81722224 -146.15734673 179.73612309 C-133.47238647 185.75734862 -120.89900062 191.98989368 -108.34948349 198.28767586 C-104.76833604 200.08476174 -101.18588251 201.87921979 -97.60305786 203.67295837 C-90.02581951 207.46704115 -82.45032807 211.26460495 -74.875 215.0625 C-66.62708529 219.19753043 -58.37883477 223.33188469 -50.12864983 227.46238416 C-46.00055391 229.52930674 -41.87402848 231.59934361 -37.74777222 233.66993713 C-35.5986713 234.74630278 -33.44951463 235.82255711 -31.30029297 236.89868164 C-30.32582214 237.38850021 -29.35135132 237.87831879 -28.34735107 238.38298035 C-27.44815948 238.83261139 -26.5489679 239.28224243 -25.62252808 239.74549866 C-24.45748403 240.32968614 -24.45748403 240.32968614 -23.26890373 240.92567539 C-20.89120975 242.05151212 -18.4426062 243.02295752 -16 244 C-31.84 244.33 -47.68 244.66 -64 245 C-63.5359375 253.9409375 -63.5359375 253.9409375 -63.0625 263.0625 C-62.91188069 274.95151659 -63.38154295 284.2848232 -71.71812439 293.29490662 C-76.10934026 297.6789912 -80.91238801 301.60436687 -85.90454102 305.28051758 C-86.59604248 305.84794678 -87.28754395 306.41537598 -88 307 C-88 307.66 -88 308.32 -88 309 C-88.66 309 -89.32 309 -90 309 C-90 287.88 -90 266.76 -90 245 C-110.47975989 244.84193695 -130.95902536 244.71301087 -151.43924046 244.6373148 C-160.94872957 244.60123237 -170.45781258 244.55204645 -179.96704102 244.47192383 C-188.25608799 244.40211552 -196.54484085 244.35698351 -204.83417362 244.34138054 C-209.22279743 244.33226074 -213.61057988 244.31085558 -217.99893379 244.2598896 C-222.1318744 244.21228008 -226.26362937 244.19773783 -230.39681816 244.20824623 C-231.91135992 244.20632465 -233.4259424 244.19245501 -234.94024658 244.16556168 C-243.0769254 243.82544346 -243.0769254 243.82544346 -250.49659538 246.61179924 C-252.22592941 248.3219846 -253.66146296 249.97441072 -255 252 C-255.33 249.69 -255.66 247.38 -256 245 C-327.49873359 236.08019122 -327.49873359 236.08019122 -393.04785156 255.61425781 C-410.34063568 271.47299443 -413.46593813 289.72068657 -414.47738266 312.11950111 C-415.20428735 332.84675025 -413.73718156 353.34684145 -412 374 C-390.55 374 -369.1 374 -347 374 C-347 361.79 -347 349.58 -347 337 C-343.53242188 337.06960938 -340.06484375 337.13921875 -336.4921875 337.2109375 C-333.12633557 337.25775662 -329.76052019 337.29417329 -326.39453125 337.32958984 C-324.05875357 337.35972682 -321.72308873 337.40064462 -319.38769531 337.45263672 C-316.02640935 337.52558378 -312.66662172 337.55948831 -309.3046875 337.5859375 C-307.74341629 337.63238907 -307.74341629 337.63238907 -306.15060425 337.67977905 C-305.17004059 337.68023224 -304.18947693 337.68068542 -303.17919922 337.68115234 C-302.32204315 337.69447601 -301.46488708 337.70779968 -300.58175659 337.7215271 C-296.95389813 336.93527506 -296.95389813 336.93527506 -292 331 C-291.67 345.19 -291.34 359.38 -291 374 C-269.55 374 -248.1 374 -226 374 C-226 368.06 -226 362.12 -226 356 C-217.09 356 -208.18 356 -199 356 C-199 361.94 -199 367.88 -199 374 C-182.04074109 374.18533044 -165.08188764 374.3280256 -148.12184811 374.41449738 C-140.24665251 374.45571827 -132.3720983 374.51189756 -124.49731445 374.60351562 C-117.63218408 374.68334882 -110.76751826 374.73488781 -103.90193659 374.75270796 C-100.26763134 374.76312254 -96.63465483 374.78752715 -93.00077629 374.84584045 C-88.93994549 374.91047425 -84.88141203 374.91191343 -80.82006836 374.90820312 C-79.02039864 374.95134644 -79.02039864 374.95134644 -77.18437195 374.99536133 C-71.071578 375.00832204 -71.071578 375.00832204 -65.791152 372.29904079 C-64.01905946 370.28234413 -62.50050169 368.22322726 -61 366 C-59.7224152 364.64585781 -58.43148814 363.3038906 -57.1159668 361.98657227 C-56.44224533 361.30969864 -55.76852386 360.63282501 -55.0743866 359.93544006 C-54.02242851 358.88651833 -54.02242851 358.88651833 -52.94921875 357.81640625 C-52.2092012 357.07543198 -51.46918365 356.3344577 -50.70674133 355.57102966 C-49.1575284 354.02114141 -47.60707273 352.47249442 -46.05541992 350.92504883 C-43.67314495 348.54817751 -41.29631503 346.16595354 -38.91992188 343.78320312 C-37.4091751 342.27311635 -35.89811859 340.76333938 -34.38671875 339.25390625 C-33.67529221 338.54045547 -32.96386566 337.8270047 -32.23088074 337.0919342 C-31.57292007 336.4371257 -30.91495941 335.7823172 -30.23706055 335.10766602 C-29.36938301 334.24118187 -29.36938301 334.24118187 -28.48417664 333.35719299 C-27 332 -27 332 -25 331 C-25 345.19 -25 359.38 -25 374 C75.32 374 175.64 374 279 374 C279 355.52 279 337.04 279 318 C267.78 317.67 256.56 317.34 245 317 C250.8125 309.5625 250.8125 309.5625 260 302 C273.365 301.505 273.365 301.505 287 301 C287 325.09 287 349.18 287 374 C308.45 374 329.9 374 352 374 C352 349.91 352 325.82 352 301 C357.61 301 363.22 301 369 301 C374.52595848 297.18078469 374.52595848 297.18078469 379.15919495 292.81814575 C379.69999758 292.23813938 380.24080021 291.65813301 380.7979908 291.06055069 C381.3506304 290.46564709 381.90327 289.87074348 382.47265625 289.2578125 C383.65542368 288.04835096 384.84189555 286.84250218 386.03184509 285.6401062 C389.1274492 282.49138394 392.16779963 279.29421829 395.199646 276.08422852 C398.31015293 272.81279991 401.47603128 269.5958441 404.63476562 266.37109375 C409.22022702 261.66710853 413.7941398 256.9524113 418.31274414 252.18408203 C419.22077286 251.22921906 420.12880157 250.27435608 421.06434631 249.29055786 C423.21515141 247.24521727 423.21515141 247.24521727 423 245 C388.72283871 244.81689055 354.44578907 244.67592376 320.16824433 244.59147736 C316.12152081 244.58147171 312.07479825 244.57111713 308.02807617 244.56054688 C307.22244636 244.55844839 306.41681654 244.55634991 305.5867737 244.55418783 C292.54190249 244.51937679 279.49731331 244.4563002 266.45260941 244.38277763 C253.06759632 244.30796619 239.68273094 244.26353001 226.29751736 244.24729204 C218.03787948 244.23631461 209.77903873 244.20164521 201.51964623 244.13666826 C195.8558976 244.09438098 190.19256106 244.08159876 184.52866601 244.09198898 C181.26042072 244.09711392 177.99386192 244.08488802 174.72579956 244.0463562 C171.18009402 244.00659655 167.63780906 244.01610012 164.09202576 244.03796387 C163.06185961 244.01466114 162.03169346 243.9913584 160.97031015 243.96734953 C156.88382538 244.03554674 154.11785808 244.09148594 150.87526524 246.72683048 C149.10323938 248.74240265 147.55621211 250.81613679 146 253 C144.94157433 254.14350117 143.86519575 255.2710036 142.76171875 256.37109375 C142.25189453 256.88220703 141.74207031 257.39332031 141.21679688 257.91992188 C140.45979492 258.67112305 140.45979492 258.67112305 139.6875 259.4375 C139.16349609 259.96537109 138.63949219 260.49324219 138.09960938 261.03710938 C134.25374035 264.87312983 134.25374035 264.87312983 132 266 C132 259.07 132 252.14 132 245 C122.1 245 112.2 245 102 245 C108.16915414 233.17578789 114.61338819 221.55825642 121.27099609 210.00341797 C127.21047418 199.68606984 133.11300405 189.34737351 139 179 C139.34276978 178.3975647 139.68553955 177.79512939 140.03869629 177.17443848 C142.36731258 173.07921031 144.68580105 168.97839272 147 164.875 C147.60569824 163.80797852 148.21139648 162.74095703 148.83544922 161.64160156 C149.38475098 160.66416992 149.93405273 159.68673828 150.5 158.6796875 C150.9846875 157.82101074 151.469375 156.96233398 151.96875 156.07763672 C153.14820045 154.08800609 153.14820045 154.08800609 153 152 C123.96 151.67 94.92 151.34 65 151 C60.05 142.09 55.1 133.18 50 124 C47.30332159 119.24225543 44.60261866 114.4896491 41.875 109.75 C40.52767595 107.40159719 39.18176384 105.05238636 37.8359375 102.703125 C37.18850586 101.57326172 36.54107422 100.44339844 35.87402344 99.27929688 C33.06454253 94.36307129 30.28143749 89.4321272 27.5 84.5 C26.45979474 82.66006617 25.41942748 80.82022391 24.37890625 78.98046875 C22.5648118 75.77259881 20.75372834 72.56309235 18.94873047 69.35009766 C17.14084753 66.13247056 15.32623806 62.91871093 13.5078125 59.70703125 C12.80118436 58.45624786 12.09687074 57.2041537 11.39501953 55.95068359 C10.4139948 54.1993588 9.42395648 52.45309245 8.43359375 50.70703125 C7.86697021 49.7013208 7.30034668 48.69561035 6.71655273 47.65942383 C5.03993755 45.06187451 3.26818163 43.08766997 1 41 Z " fill="#010033" transform="translate(431,0)"/>
<path d="M0 0 C3.13576152 2.88840272 5.15369248 5.71098562 7.1796875 9.453125 C7.77136719 10.53464844 8.36304688 11.61617187 8.97265625 12.73046875 C9.28219238 13.3032959 9.59172852 13.87612305 9.91064453 14.46630859 C11.56850477 17.53272046 13.24969776 20.58629746 14.9296875 23.640625 C15.27143005 24.26296021 15.61317261 24.88529541 15.965271 25.52648926 C19.20664774 31.41218241 22.58719081 37.21219208 26 43 C33.04783962 54.97668796 39.78809573 67.11258562 46.48925781 79.28564453 C47.77372976 81.59345951 49.0910786 83.87577007 50.4296875 86.15234375 C52 89 52 89 52 91 C73.78 91 95.56 91 118 91 C115.75080386 97.74758842 115.75080386 97.74758842 113.7421875 101.1953125 C113.28956543 101.9793042 112.83694336 102.7632959 112.37060547 103.57104492 C111.87705566 104.4138501 111.38350586 105.25665527 110.875 106.125 C109.79141498 107.99855237 108.70809599 109.87225863 107.625 111.74609375 C107.04234375 112.7501123 106.4596875 113.75413086 105.859375 114.78857422 C102.85061182 119.98516966 99.86997017 125.19778818 96.89068604 130.41131592 C95.91533309 132.11696738 94.937935 133.82144885 93.96044922 135.52587891 C88.55483626 144.97012045 83.2696869 154.47941438 78 164 C32.61754318 172.92274559 -1.75586288 150.96679746 -40.17086601 129.8805418 C-50.4161988 124.26001785 -60.82794882 119.11892078 -71.43048096 114.20504761 C-78.60378388 110.84092717 -85.68064784 107.27173869 -92.77001953 103.73510742 C-95.44938433 102.40044726 -98.1329071 101.07437127 -100.81640625 99.74804688 C-102.53150832 98.89374758 -104.24636269 98.03895077 -105.9609375 97.18359375 C-107.15739395 96.59462563 -107.15739395 96.59462563 -108.37802124 95.99375916 C-113.88573724 93.22852552 -113.88573724 93.22852552 -115 91 C-93.88 91 -72.76 91 -51 91 C-50.34 89.35 -49.68 87.7 -49 86 C-48.05655275 84.18185942 -47.08253856 82.37940073 -46.0859375 80.58984375 C-45.49804443 79.53200684 -44.91015137 78.47416992 -44.30444336 77.38427734 C-43.66772705 76.24684082 -43.03101074 75.1094043 -42.375 73.9375 C-41.70377442 72.73393301 -41.03263343 71.53031883 -40.36157227 70.32666016 C-34.95471491 60.6440511 -29.45980989 51.01231392 -23.93994141 41.39379883 C-18.72428851 32.3004193 -13.59270123 23.16303344 -8.51538086 13.99169922 C-5.84548838 9.19110818 -3.14583817 4.50496243 0 0 Z " fill="#FFFDFE" transform="translate(432,81)"/>
<path d="M0 0 C39.27 0 78.54 0 119 0 C119 23 119 23 113.125 30.9375 C108.81763596 34.53247415 105.94344692 36.72991827 100.1875 36.8125 C97.73046875 36.45703125 97.73046875 36.45703125 96 36 C96 36.66 96 37.32 96 38 C96.84933105 38.39517822 96.84933105 38.39517822 97.71582031 38.79833984 C106.8642487 43.61114067 112.46212752 50.96018384 119 59 C119 69.56 119 80.12 119 91 C79.73 91 40.46 91 0 91 C0 60.97 0 30.94 0 0 Z " fill="#FFFCFD" transform="translate(425,264)"/>
<path d="M0 0 C13.880625 0.639375 27.76125 1.27875 42.0625 1.9375 C42.0625 31.9675 42.0625 61.9975 42.0625 92.9375 C33.1525 92.9375 24.2425 92.9375 15.0625 92.9375 C15.0625 86.9975 15.0625 81.0575 15.0625 74.9375 C-6.3875 74.9375 -27.8375 74.9375 -49.9375 74.9375 C-49.9375 80.8775 -49.9375 86.8175 -49.9375 92.9375 C-58.8475 92.9375 -67.7575 92.9375 -76.9375 92.9375 C-77.60012593 85.62011476 -78.21486417 78.41577828 -78.54175568 71.09418488 C-78.70292245 67.68118193 -78.93186619 64.31301805 -79.27612305 60.91088867 C-80.78603478 45.57396741 -79.31450766 34.21718413 -69.83164215 21.9084549 C-50.02984496 -1.94263189 -29.30442733 -1.91800245 0 0 Z " fill="#FFFCFD" transform="translate(235.9375,262.0625)"/>
<path d="M0 0 C0 5.94 0 11.88 0 18 C-2.12759766 17.94650391 -4.25519531 17.89300781 -6.44726562 17.83789062 C-13.53959481 17.67155218 -20.63092426 17.59562048 -27.72505951 17.56215668 C-32.02012801 17.53919951 -36.31050898 17.48743987 -40.60400391 17.36572266 C-62.38185758 15.9098266 -62.38185758 15.9098266 -81.18371582 24.82922363 C-83.66858664 27.59431503 -85.90075655 30.41952269 -87.89929199 33.55505371 C-88.26252563 34.03188599 -88.62575928 34.50871826 -89 35 C-89.66 35 -90.32 35 -91 35 C-91 35.66 -91 36.32 -91 37 C-65.92 37 -40.84 37 -15 37 C-18.74273347 44.48546694 -23.34732948 51.12566756 -31 55 C-40.37641154 57.17402883 -50.222656 56.39603634 -59.77502441 55.96130371 C-63.30064499 55.81640958 -66.82771073 55.753801 -70.35546875 55.68359375 C-77.24084015 55.53476135 -84.11910733 55.28921997 -91 55 C-91 60.94 -91 66.88 -91 73 C-57.01 73 -23.02 73 12 73 C12 78.94 12 84.88 12 91 C-30.9 91 -73.8 91 -118 91 C-118 31 -118 31 -107.9375 11.75 C-80.82305179 -11.09334545 -33.23422121 -2.18154724 0 0 Z " fill="#FFFCFD" transform="translate(679,264)"/>
<path d="M0 0 C8.91 0 17.82 0 27 0 C27 24.09 27 48.18 27 73 C45.23522134 72.72196274 45.23522134 72.72196274 57.4453125 63.26171875 C58.3926828 62.35291458 59.3400531 61.44411041 60.31613159 60.50776672 C62.30142496 58.58899858 64.24907165 56.63990839 66.17724609 54.66381836 C68.12775483 52.67164527 70.11742723 50.74363046 72.16943359 48.85620117 C82.34704699 39.48957509 90.64127648 31.15696495 91.80682373 16.69522095 C91.80397339 11.12365331 91.35737273 5.56009522 91 0 C100.24 0 109.48 0 119 0 C121.34785635 15.28259464 122.41348255 29.13062433 113.00205517 42.15578938 C107.62294998 49.1238545 101.52841661 55.42341491 95.2322731 61.55935287 C93.23500588 63.51467926 91.27135663 65.49968078 89.30990601 67.49087524 C73.0381983 83.82351025 58.68145857 94.56909437 35.08227539 95.20776367 C23.32504193 94.51027016 11.66392221 92.63461143 0 91 C0 60.97 0 30.94 0 0 Z " fill="#FFFCFD" transform="translate(295,264)"/>
<path d="M0 0 C0 5.94 0 11.88 0 18 C-2.12759766 17.94650391 -4.25519531 17.89300781 -6.44726562 17.83789062 C-13.53959481 17.67155218 -20.63092426 17.59562048 -27.72505951 17.56215668 C-32.02012801 17.53919951 -36.31050898 17.48743987 -40.60400391 17.36572266 C-44.76169783 17.24898362 -48.9134556 17.21330187 -53.07267761 17.2297821 C-54.64517594 17.22254194 -56.21783554 17.1878774 -57.78901672 17.12312317 C-58.53753403 17.09397324 -59.28605133 17.0648233 -60.05725098 17.03479004 C-60.70636696 17.0010453 -61.35548294 16.96730057 -62.0242691 16.93253326 C-76.87308218 17.89458722 -76.34888448 22.34888448 -89 35 C-64.25 35.33 -39.5 35.66 -14 36 C-14 36.66 -14 37.32 -14 38 C-15.46875 39.4453125 -15.46875 39.4453125 -17.5 41.125 C-25.19374836 47.26911567 -25.19374836 47.26911567 -31 55 C-50.8 55 -70.6 55 -91 55 C-91 66.88 -91 78.76 -91 91 C-99.91 91 -108.82 91 -118 91 C-123.46737235 30.6237483 -123.46737235 30.6237483 -109.68585205 13.67266846 C-85.75005556 -12.64960508 -31.95312072 -2.09745377 0 0 Z " fill="#FFFBFC" transform="translate(156,264)"/>
<path d="M0 0 C38.94 0 77.88 0 118 0 C116.02 2.31 114.04 4.62 112 7 C111.33742188 8.01964844 110.67484375 9.03929687 109.9921875 10.08984375 C107.875 12.9375 107.875 12.9375 101 18 C91.76 18 82.52 18 73 18 C73 42.09 73 66.18 73 91 C64.09 91 55.18 91 46 91 C46 66.91 46 42.82 46 18 C30.82 18 15.64 18 0 18 C0 12.06 0 6.12 0 0 Z " fill="#FFFDFD" transform="translate(691,264)"/>
<path d="M0 0 C0 12.21 0 24.42 0 37 C-21.45 37 -42.9 37 -65 37 C-65 14.0775173 -65 14.0775173 -58.9375 7.8125 C-58.21320801 7.05275879 -57.48891602 6.29301758 -56.74267578 5.51025391 C-42.55459708 -6.2711789 -16.98559448 -1.11403494 0 0 Z " fill="#FF2C81" transform="translate(251,282)"/>
<path d="M0 0 C15.18 0 30.36 0 46 0 C46 14.85 46 29.7 46 45 C30.82 45 15.64 45 0 45 C0 36.09 0 27.18 0 18 C12.21 18 24.42 18 37 18 C37 14.7 37 11.4 37 8 C24.79 8 12.58 8 0 8 C0 5.36 0 2.72 0 0 Z " fill="#F3F3F5" transform="translate(678,393)"/>
<path d="M0 0 C15.18 0 30.36 0 46 0 C46 8.91 46 17.82 46 27 C33.79 27 21.58 27 9 27 C9 30.3 9 33.6 9 37 C21.21 37 33.42 37 46 37 C46 39.64 46 42.28 46 45 C30.82 45 15.64 45 0 45 C0 30.15 0 15.3 0 0 Z " fill="#F3F3F5" transform="translate(619,393)"/>
<path d="M0 0 C14.85 0 29.7 0 45 0 C45 14.85 45 29.7 45 45 C42.36 45 39.72 45 37 45 C37 32.79 37 20.58 37 8 C33.37 8 29.74 8 26 8 C26 20.21 26 32.42 26 45 C23.36 45 20.72 45 18 45 C18 32.79 18 20.58 18 8 C14.7 8 11.4 8 8 8 C8 20.21 8 32.42 8 45 C5.36 45 2.72 45 0 45 C0 30.15 0 15.3 0 0 Z " fill="#F8F8F9" transform="translate(738,393)"/>
<path d="M0 0 C7.82862664 -0.19823168 15.65578284 -0.34316014 23.48632812 -0.43945312 C26.14904963 -0.47508565 28.80830785 -0.53410739 31.47070312 -0.60351562 C35.30382645 -0.70091936 39.13461202 -0.7460123 42.96875 -0.78125 C44.15239136 -0.82254028 45.33603271 -0.86383057 46.55554199 -0.90637207 C53.7074993 -0.91022868 57.59669888 0.23428342 62.70812988 5.30090332 C64 8 64 8 64 18 C42.88 18 21.76 18 0 18 C0 12.06 0 6.12 0 0 Z " fill="#FF2980" transform="translate(452,319)"/>
<path d="M0 0 C21.12 0 42.24 0 64 0 C62.02 2.31 60.04 4.62 58 7 C57.21592773 8.08313477 56.43185547 9.16626953 55.62402344 10.28222656 C51.26775291 15.66708446 47.80249361 19.09306541 40.72070312 19.96289062 C34.55003094 20.32614432 28.41755864 20.050074 22.25 19.75 C20.08869064 19.68971153 17.92721889 19.63497547 15.765625 19.5859375 C10.50635916 19.45464378 5.25499425 19.24817725 0 19 C0 12.73 0 6.46 0 0 Z " fill="#FF2F83" transform="translate(452,282)"/>
<path d="M0 0 C14.85 0 29.7 0 45 0 C45 2.64 45 5.28 45 8 C39.06 8 33.12 8 27 8 C27 20.21 27 32.42 27 45 C24.03 45 21.06 45 18 45 C18 32.79 18 20.58 18 8 C12.06 8 6.12 8 0 8 C0 5.36 0 2.72 0 0 Z " fill="#F3F3F5" transform="translate(561,393)"/>
<path d="M0 0 C9.24 0 18.48 0 28 0 C28 3.3 28 6.6 28 10 C18.76 10 9.52 10 0 10 C0 6.7 0 3.4 0 0 Z " fill="#050537" transform="translate(687,420)"/>
<path d="M0 0 C9.24 0 18.48 0 28 0 C28 3.3 28 6.6 28 10 C18.76 10 9.52 10 0 10 C0 6.7 0 3.4 0 0 Z " fill="#040435" transform="translate(628,401)"/>
</svg>
