<?xml version="1.0" encoding="UTF-8"?>
<svg version="1.1" xmlns="http://www.w3.org/2000/svg" width="114" height="75">
<path d="M0 0 C37.62 0 75.24 0 114 0 C112.13901452 3.72197097 110.57190383 5.72605296 107.6875 8.625 C106.92824219 9.40101562 106.16898437 10.17703125 105.38671875 10.9765625 C100.87308845 14.80317542 96.76430928 15.2655921 90.94921875 15.4140625 C90.29041214 15.43342865 89.63160553 15.4527948 88.95283508 15.4727478 C86.86451857 15.53215941 84.77614576 15.57877291 82.6875 15.625 C81.26495095 15.66321532 79.84242416 15.70226909 78.41992188 15.7421875 C74.94681926 15.83782796 71.47354868 15.92199973 68 16 C67.94619422 18.79192205 67.90642331 21.5828141 67.875 24.375 C67.84986328 25.56609375 67.84986328 25.56609375 67.82421875 26.78125 C67.80664527 28.85492015 67.89664832 30.92883241 68 33 C70.94192784 35.94192784 74.12190973 35.35537397 78.0703125 35.4140625 C78.86654022 35.43342865 79.66276794 35.4527948 80.48312378 35.4727478 C83.03030634 35.53260474 85.57753395 35.57895279 88.125 35.625 C89.8502803 35.66317421 91.57554143 35.70222561 93.30078125 35.7421875 C97.53369876 35.83831109 101.76670549 35.92231908 106 36 C104.1092326 40.12420174 101.32326518 42.97275302 98.125 46.125 C97.59519531 46.66253906 97.06539063 47.20007812 96.51953125 47.75390625 C90.43104249 53.81217919 86.78724966 54.24222545 78.38671875 54.4609375 C71.48711212 55.55914478 66.80569956 59.74984294 61.9375 64.4375 C50.78900832 75 50.78900832 75 47 75 C47 62.46 47 49.92 47 37 C42.05 37 37.1 37 32 37 C28.39715779 34.59810519 26.61961191 33.16734895 24 30 C23.3296875 29.29359375 22.659375 28.5871875 21.96875 27.859375 C17 22.53571429 17 22.53571429 17 19 C26.57 19 36.14 19 46 19 C46.33 17.68 46.66 16.36 47 15 C46.02651611 15.01571045 45.05303223 15.0314209 44.05004883 15.04760742 C40.42529633 15.10206239 36.80057974 15.13640626 33.17553711 15.16479492 C31.60906893 15.17984622 30.04264264 15.20029207 28.47631836 15.22631836 C26.21978394 15.26286433 23.96380847 15.27976261 21.70703125 15.29296875 C21.01100296 15.30845261 20.31497467 15.32393646 19.59785461 15.33988953 C13.68691437 15.34191794 10.68131962 13.64924357 6.54296875 9.58984375 C5.76566406 8.71457031 4.98835937 7.83929687 4.1875 6.9375 C3.39730469 6.05964844 2.60710937 5.18179687 1.79296875 4.27734375 C0 2 0 2 0 0 Z " fill="#E2002B" transform="translate(0,0)"/>
</svg>
