<?xml version="1.0" encoding="UTF-8"?>
<svg version="1.1" xmlns="http://www.w3.org/2000/svg" width="64" height="75">
<path d="M0 0 C26.57339382 1.08930848 26.57339382 1.08930848 35 9 C35.495 9.99 35.495 9.99 36 11 C39.63 11 43.26 11 47 11 C47 10.34 47 9.68 47 9 C47.66 9 48.32 9 49 9 C49.08142927 10.7492214 49.13938541 12.49954542 49.1875 14.25 C49.23970703 15.71179688 49.23970703 15.71179688 49.29296875 17.203125 C48.95659972 20.41432805 48.29423147 21.75389926 46 24 C45.01 24 44.02 24 43 24 C42.814375 23.0409375 42.814375 23.0409375 42.625 22.0625 C42.41875 21.381875 42.2125 20.70125 42 20 C41.34 19.67 40.68 19.34 40 19 C39.7525 19.66 39.505 20.32 39.25 21 C37.68182955 24.76360907 35.85494954 28.3711424 34 32 C37.12290635 31.51421457 39.99580359 31.0013988 43 30 C44.41092983 35.25892028 43.64025411 38.26575125 41 43 C38.8125 44.4375 38.8125 44.4375 37 45 C36.34 43.35 35.68 41.7 35 40 C32.69 40 30.38 40 28 40 C29.40464296 41.82183392 30.8241624 43.63220561 32.25 45.4375 C33.03890625 46.44683594 33.8278125 47.45617188 34.640625 48.49609375 C37.3331171 51.38027911 37.3331171 51.38027911 41 52 C44.19623648 51.12949221 44.19623648 51.12949221 47 50 C46.6257368 55.36443913 45.0040457 57.49646001 41 61 C40.67 61.33 40.34 61.66 40 62 C37.70703125 62.40625 37.70703125 62.40625 35 62 C32.76171875 59.59375 32.76171875 59.59375 30.6875 56.5 C29.99011719 55.4790625 29.29273438 54.458125 28.57421875 53.40625 C28.05472656 52.6121875 27.53523438 51.818125 27 51 C27.4748935 55.11574371 28.0210244 58.36383344 30 62 C28.04233719 62.08082094 26.08373272 62.13910778 24.125 62.1875 C22.48917969 62.23970703 22.48917969 62.23970703 20.8203125 62.29296875 C19.88960937 62.19628906 18.95890625 62.09960938 18 62 C17.34 61.01 16.68 60.02 16 59 C16.66 58.01 17.32 57.02 18 56 C18.38499891 54.34450469 18.72793135 52.6777567 19 51 C18.01 51.495 18.01 51.495 17 52 C15.00039988 52.039992 12.99952758 52.04346799 11 52 C11.66 54.64 12.32 57.28 13 60 C13.66 60 14.32 60 15 60 C15 60.66 15 61.32 15 62 C13.04174127 62.02694851 11.08337774 62.04637218 9.125 62.0625 C7.48917969 62.07990234 7.48917969 62.07990234 5.8203125 62.09765625 C3 62 3 62 1 61 C1.78697325 57.58978257 2.87119943 54.31114834 4 51 C3.29875 50.9175 2.5975 50.835 1.875 50.75 C-5.25849749 48.88908761 -9.17252459 43.9432848 -13 38 C-14.7728462 34.53489153 -15.63022587 31.87138748 -15 28 C-11.41380419 20.57145154 -5.52185465 12.64695983 2 9 C1.4118332 5.97514219 0.75929472 2.98613386 0 0 Z M17 8 C17 8.99 17 9.98 17 11 C19.97 11.33 22.94 11.66 26 12 C22.68987756 8.68987756 21.46840411 8.49648935 17 8 Z M17 14 C17 15.98 17 17.96 17 20 C16.01 20 15.02 20 14 20 C13.34 18.68 12.68 17.36 12 16 C11.67 16 11.34 16 11 16 C11 21.28 11 26.56 11 32 C13.64 32.66 16.28 33.32 19 34 C19.05392397 31.22890693 19.09363455 28.45886182 19.125 25.6875 C19.14175781 24.90181641 19.15851562 24.11613281 19.17578125 23.30664062 C19.18544922 22.1706543 19.18544922 22.1706543 19.1953125 21.01171875 C19.20578613 20.31522217 19.21625977 19.61872559 19.22705078 18.90112305 C19.10574595 16.668827 19.10574595 16.668827 17 14 Z M-1.5625 19.52734375 C-4.42276163 22.45755743 -4.93234366 25.36542282 -5.09765625 29.359375 C-4.87559906 35.22168475 -3.47615049 38.55123019 0.52734375 42.8203125 C1.94567212 44.20839995 1.94567212 44.20839995 4 44 C4 34.76 4 25.52 4 16 C1.71727779 16 0.07792073 18.11169221 -1.5625 19.52734375 Z M26 18 C26 22.62 26 27.24 26 32 C29.09936004 27.88420075 29.09936004 27.88420075 29.6875 23.25 C29.78611328 22.05117188 29.78611328 22.05117188 29.88671875 20.828125 C29.94279297 19.92320313 29.94279297 19.92320313 30 19 C28.68 18.67 27.36 18.34 26 18 Z M11 39 C11 41.31 11 43.62 11 46 C13.64 45.67 16.28 45.34 19 45 C18.67 43.35 18.34 41.7 18 40 C15.69 39.67 13.38 39.34 11 39 Z " fill="#C3291F" transform="translate(15,13)"/>
<path d="M0 0 C0.99 0.33 1.98 0.66 3 1 C3 1.66 3 2.32 3 3 C4.32 3 5.64 3 7 3 C6.67 5.64 6.34 8.28 6 11 C5.2575 10.814375 4.515 10.62875 3.75 10.4375 C1.05009037 10.00796892 -0.44631077 10.14877026 -3 11 C-2.67 9.35 -2.34 7.7 -2 6 C-2.99 5.67 -3.98 5.34 -5 5 C-5 4.34 -5 3.68 -5 3 C-4.360625 2.87625 -3.72125 2.7525 -3.0625 2.625 C-2.0415625 2.315625 -2.0415625 2.315625 -1 2 C-0.67 1.34 -0.34 0.68 0 0 Z " fill="#CEB043" transform="translate(32,0)"/>
</svg>
