<?xml version="1.0" encoding="UTF-8"?>
<svg version="1.1" xmlns="http://www.w3.org/2000/svg" width="81" height="75">
<path d="M0 0 C1.4540625 0.0309375 1.4540625 0.0309375 2.9375 0.0625 C4.2792678 3.32993656 5.60944359 6.60196908 6.9375 9.875 C7.3190625 10.80376953 7.700625 11.73253906 8.09375 12.68945312 C8.63515625 14.0284668 8.63515625 14.0284668 9.1875 15.39453125 C9.52265625 16.21671143 9.8578125 17.0388916 10.203125 17.88598633 C10.9375 20.0625 10.9375 20.0625 10.9375 23.0625 C11.70940674 22.85044922 12.48131348 22.63839844 13.27661133 22.41992188 C16.76667916 21.46352295 20.25830635 20.51294525 23.75 19.5625 C24.96494141 19.22863281 26.17988281 18.89476563 27.43164062 18.55078125 C28.59501953 18.23496094 29.75839844 17.91914063 30.95703125 17.59375 C32.56735229 17.15385742 32.56735229 17.15385742 34.21020508 16.70507812 C36.9375 16.0625 36.9375 16.0625 39.9375 16.0625 C38.37019582 19.61173911 36.22171705 22.33452766 33.75 25.3125 C32.95335938 26.27285156 32.15671875 27.23320312 31.3359375 28.22265625 C28.24863255 31.87814598 25.11211902 35.48261047 21.9375 39.0625 C27.2175 39.7225 32.4975 40.3825 37.9375 41.0625 C41.55052832 49.46279085 43.76252027 55.91394185 42.9375 65.0625 C37.60416667 64.39583333 32.27083333 63.72916667 26.9375 63.0625 C27.9275 66.3625 28.9175 69.6625 29.9375 73.0625 C25.92659589 72.05977397 23.45865976 70.66829162 19.9375 68.5625 C12.45131208 64.46612526 5.90379488 63.03421141 -2.49609375 64.7734375 C-7.15690762 66.45806902 -10.54418658 69.04632296 -14.43164062 72.04882812 C-16.07421875 73.26171875 -16.07421875 73.26171875 -19.0625 75.0625 C-20.3825 74.7325 -21.7025 74.4025 -23.0625 74.0625 C-21.7425 70.4325 -20.4225 66.8025 -19.0625 63.0625 C-24.6725 64.0525 -30.2825 65.0425 -36.0625 66.0625 C-36.02769531 64.05736328 -36.02769531 64.05736328 -35.9921875 62.01171875 C-35.9734292 60.25781808 -35.95522907 58.50391138 -35.9375 56.75 C-35.92074219 55.86892578 -35.90398438 54.98785156 -35.88671875 54.08007812 C-35.88027344 53.23251953 -35.87382813 52.38496094 -35.8671875 51.51171875 C-35.85671387 50.73143311 -35.84624023 49.95114746 -35.83544922 49.1472168 C-35.93369141 46.7559152 -35.93369141 46.7559152 -38.0625 44.0625 C-38.0625 43.0725 -38.0625 42.0825 -38.0625 41.0625 C-32.6175 40.5675 -32.6175 40.5675 -27.0625 40.0625 C-28.0525 39.4025 -29.0425 38.7425 -30.0625 38.0625 C-33.71920531 38.86898688 -33.71920531 38.86898688 -37.0625 40.0625 C-37.0625 39.0725 -37.0625 38.0825 -37.0625 37.0625 C-33.00060941 35.26944946 -28.93788231 33.47830212 -24.875 31.6875 C-23.72451172 31.17960937 -22.57402344 30.67171875 -21.38867188 30.1484375 C-20.27685547 29.65859375 -19.16503906 29.16875 -18.01953125 28.6640625 C-16.48776245 27.98851318 -16.48776245 27.98851318 -14.92504883 27.29931641 C-12.0625 26.0625 -12.0625 26.0625 -9.30273438 25.15820312 C-6.94762033 24.25953088 -6.94762033 24.25953088 -5.9440918 22.18310547 C-5.71890869 21.43947754 -5.49372559 20.69584961 -5.26171875 19.9296875 C-5.00712891 19.12402344 -4.75253906 18.31835938 -4.49023438 17.48828125 C-4.12381836 16.22564453 -4.12381836 16.22564453 -3.75 14.9375 C-3.48638672 14.08800781 -3.22277344 13.23851562 -2.95117188 12.36328125 C-2.3036851 10.2677786 -1.67511138 8.1684111 -1.0625 6.0625 C-1.97745239 6.4181604 -1.97745239 6.4181604 -2.91088867 6.78100586 C-5.68898802 7.85819574 -8.46945106 8.92915001 -11.25 10 C-12.20970703 10.37318359 -13.16941406 10.74636719 -14.15820312 11.13085938 C-15.08955078 11.48857422 -16.02089844 11.84628906 -16.98046875 12.21484375 C-17.83406982 12.54476318 -18.6876709 12.87468262 -19.56713867 13.21459961 C-22.05315961 14.05932622 -24.47932623 14.60735975 -27.0625 15.0625 C-26.0625 12.0625 -26.0625 12.0625 -23.9453125 10.72802734 C-23.03523438 10.2892627 -22.12515625 9.85049805 -21.1875 9.3984375 C-20.20265625 8.91632812 -19.2178125 8.43421875 -18.203125 7.9375 C-17.16671875 7.4425 -16.1303125 6.9475 -15.0625 6.4375 C-13.02011545 5.44679108 -10.97841059 4.45467931 -8.9375 3.4609375 C-8.02742188 3.02442871 -7.11734375 2.58791992 -6.1796875 2.13818359 C-2.05375575 0.04191338 -2.05375575 0.04191338 0 0 Z M-1.0625 3.0625 C-0.0625 5.0625 -0.0625 5.0625 -0.0625 5.0625 Z M-9.0625 28.0625 C-8.0625 30.0625 -8.0625 30.0625 -8.0625 30.0625 Z " fill="#0F0A01" transform="translate(38.0625,-0.0625)"/>
<path d="M0 0 C1.4540625 0.0309375 1.4540625 0.0309375 2.9375 0.0625 C4.2792678 3.32993656 5.60944359 6.60196908 6.9375 9.875 C7.3190625 10.80376953 7.700625 11.73253906 8.09375 12.68945312 C8.63515625 14.0284668 8.63515625 14.0284668 9.1875 15.39453125 C9.52265625 16.21671143 9.8578125 17.0388916 10.203125 17.88598633 C10.9375 20.0625 10.9375 20.0625 10.9375 23.0625 C11.70940674 22.85044922 12.48131348 22.63839844 13.27661133 22.41992188 C16.76667916 21.46352295 20.25830635 20.51294525 23.75 19.5625 C24.96494141 19.22863281 26.17988281 18.89476563 27.43164062 18.55078125 C28.59501953 18.23496094 29.75839844 17.91914063 30.95703125 17.59375 C32.56735229 17.15385742 32.56735229 17.15385742 34.21020508 16.70507812 C36.9375 16.0625 36.9375 16.0625 39.9375 16.0625 C38.37019582 19.61173911 36.22171705 22.33452766 33.75 25.3125 C32.95335938 26.27285156 32.15671875 27.23320312 31.3359375 28.22265625 C28.24863255 31.87814598 25.11211902 35.48261047 21.9375 39.0625 C27.2175 39.7225 32.4975 40.3825 37.9375 41.0625 C41.55052832 49.46279085 43.76252027 55.91394185 42.9375 65.0625 C37.60416667 64.39583333 32.27083333 63.72916667 26.9375 63.0625 C27.9275 66.3625 28.9175 69.6625 29.9375 73.0625 C25.92659589 72.05977397 23.45865976 70.66829162 19.9375 68.5625 C12.45131208 64.46612526 5.90379488 63.03421141 -2.49609375 64.7734375 C-7.15690762 66.45806902 -10.54418658 69.04632296 -14.43164062 72.04882812 C-16.07421875 73.26171875 -16.07421875 73.26171875 -19.0625 75.0625 C-20.3825 74.7325 -21.7025 74.4025 -23.0625 74.0625 C-21.7425 70.4325 -20.4225 66.8025 -19.0625 63.0625 C-24.6725 64.0525 -30.2825 65.0425 -36.0625 66.0625 C-36.02769531 64.05736328 -36.02769531 64.05736328 -35.9921875 62.01171875 C-35.9734292 60.25781808 -35.95522907 58.50391138 -35.9375 56.75 C-35.92074219 55.86892578 -35.90398438 54.98785156 -35.88671875 54.08007812 C-35.88027344 53.23251953 -35.87382813 52.38496094 -35.8671875 51.51171875 C-35.85671387 50.73143311 -35.84624023 49.95114746 -35.83544922 49.1472168 C-35.93369141 46.7559152 -35.93369141 46.7559152 -38.0625 44.0625 C-38.0625 43.0725 -38.0625 42.0825 -38.0625 41.0625 C-32.6175 40.5675 -32.6175 40.5675 -27.0625 40.0625 C-28.0525 39.4025 -29.0425 38.7425 -30.0625 38.0625 C-33.71920531 38.86898688 -33.71920531 38.86898688 -37.0625 40.0625 C-37.0625 39.0725 -37.0625 38.0825 -37.0625 37.0625 C-33.00060941 35.26944946 -28.93788231 33.47830212 -24.875 31.6875 C-23.72451172 31.17960937 -22.57402344 30.67171875 -21.38867188 30.1484375 C-20.27685547 29.65859375 -19.16503906 29.16875 -18.01953125 28.6640625 C-16.48776245 27.98851318 -16.48776245 27.98851318 -14.92504883 27.29931641 C-12.0625 26.0625 -12.0625 26.0625 -9.30273438 25.15820312 C-6.94762033 24.25953088 -6.94762033 24.25953088 -5.9440918 22.18310547 C-5.71890869 21.43947754 -5.49372559 20.69584961 -5.26171875 19.9296875 C-5.00712891 19.12402344 -4.75253906 18.31835938 -4.49023438 17.48828125 C-4.12381836 16.22564453 -4.12381836 16.22564453 -3.75 14.9375 C-3.48638672 14.08800781 -3.22277344 13.23851562 -2.95117188 12.36328125 C-2.3036851 10.2677786 -1.67511138 8.1684111 -1.0625 6.0625 C-1.97745239 6.4181604 -1.97745239 6.4181604 -2.91088867 6.78100586 C-5.68898802 7.85819574 -8.46945106 8.92915001 -11.25 10 C-12.20970703 10.37318359 -13.16941406 10.74636719 -14.15820312 11.13085938 C-15.08955078 11.48857422 -16.02089844 11.84628906 -16.98046875 12.21484375 C-17.83406982 12.54476318 -18.6876709 12.87468262 -19.56713867 13.21459961 C-22.05315961 14.05932622 -24.47932623 14.60735975 -27.0625 15.0625 C-26.0625 12.0625 -26.0625 12.0625 -23.9453125 10.72802734 C-23.03523438 10.2892627 -22.12515625 9.85049805 -21.1875 9.3984375 C-20.20265625 8.91632812 -19.2178125 8.43421875 -18.203125 7.9375 C-17.16671875 7.4425 -16.1303125 6.9475 -15.0625 6.4375 C-13.02011545 5.44679108 -10.97841059 4.45467931 -8.9375 3.4609375 C-8.02742188 3.02442871 -7.11734375 2.58791992 -6.1796875 2.13818359 C-2.05375575 0.04191338 -2.05375575 0.04191338 0 0 Z M-1.0625 3.0625 C-0.0625 5.0625 -0.0625 5.0625 -0.0625 5.0625 Z M1.9375 6.0625 C-0.68887036 11.60705964 -2.87127797 17.18747834 -4.8125 23 C-5.03510498 23.66265869 -5.25770996 24.32531738 -5.48706055 25.00805664 C-6.66752145 28.4625026 -6.66752145 28.4625026 -7.0625 32.0625 C-7.619375 32.17207031 -8.17625 32.28164063 -8.75 32.39453125 C-14.09591031 33.50525248 -18.99313816 35.03475526 -24.0625 37.0625 C-22.77284824 38.43812854 -21.43560707 39.77016393 -20.0625 41.0625 C-19.4025 41.0625 -18.7425 41.0625 -18.0625 41.0625 C-18.0625 41.7225 -18.0625 42.3825 -18.0625 43.0625 C-23.6725 43.0625 -29.2825 43.0625 -35.0625 43.0625 C-34.815 44.980625 -34.815 44.980625 -34.5625 46.9375 C-33.99073252 52.00287665 -33.99074832 56.96813053 -34.0625 62.0625 C-28.7825 62.0625 -23.5025 62.0625 -18.0625 62.0625 C-18.3925 65.0325 -18.7225 68.0025 -19.0625 71.0625 C-15.23875368 69.73191692 -12.70466655 68.03146524 -9.625 65.4375 C-3.43893049 60.97648136 2.56027861 61.07479145 9.9375 62.0625 C13.48285917 63.06614947 16.55886579 64.25004303 19.6875 66.1875 C22.6008814 68.22907415 22.6008814 68.22907415 24.9375 68.0625 C24.9375 66.0825 24.9375 64.1025 24.9375 62.0625 C30.2175 62.0625 35.4975 62.0625 40.9375 62.0625 C40.99619684 54.58307466 40.99619684 54.58307466 38.9375 48.0625 C37.9475 45.5875 37.9475 45.5875 36.9375 43.0625 C30.3375 42.7325 23.7375 42.4025 16.9375 42.0625 C22.625 35.4375 22.625 35.4375 24.38549805 33.38818359 C25.39223088 32.2145446 26.39686033 31.03909957 27.39990234 29.86230469 C28.40956127 28.6804683 29.42534728 27.50383363 30.44775391 26.33300781 C33.10094926 23.59237667 33.10094926 23.59237667 33.9375 20.0625 C31.0615849 20.68350473 28.18681373 21.30916165 25.3125 21.9375 C24.50425781 22.11152344 23.69601563 22.28554688 22.86328125 22.46484375 C18.45187032 23.43320225 14.19690436 24.5324227 9.9375 26.0625 C9.76734375 25.45664062 9.5971875 24.85078125 9.421875 24.2265625 C7.62183058 18.00300468 5.44131567 12.03607039 2.9375 6.0625 C2.6075 6.0625 2.2775 6.0625 1.9375 6.0625 Z M-9.0625 28.0625 C-8.0625 30.0625 -8.0625 30.0625 -8.0625 30.0625 Z " fill="#EDEDED" transform="translate(38.0625,-0.0625)"/>
<path d="M0 0 C0.33 0 0.66 0 1 0 C0.58451696 8.03267209 -0.99393919 15.94897369 -5 23 C-8.18486428 25.22550914 -11.19982098 26.27685914 -15 27 C-13.68 27.66 -12.36 28.32 -11 29 C-11 30.32 -11 31.64 -11 33 C-10.67 32.67 -10.34 32.34 -10 32 C-7.66055264 32.28730055 -5.3260857 32.61936779 -3 33 C-2.25 35.25 -2.25 35.25 -2 38 C-3.9375 40.3125 -3.9375 40.3125 -6 42 C-4.35 42.33 -2.7 42.66 -1 43 C-1.99 43.495 -1.99 43.495 -3 44 C-3 45.32 -3 46.64 -3 48 C-3.66 48 -4.32 48 -5 48 C-5 47.01 -5 46.02 -5 45 C-5.66 45 -6.32 45 -7 45 C-7.66 46.32 -8.32 47.64 -9 49 C-9.763125 48.979375 -10.52625 48.95875 -11.3125 48.9375 C-14.10185786 48.87057159 -14.10185786 48.87057159 -17 50 C-17 50.66 -17 51.32 -17 52 C-16.2575 51.649375 -15.515 51.29875 -14.75 50.9375 C-11.8677274 49.95490707 -10.78823655 49.9673198 -8 51 C-9.66666667 52.33333333 -11.33333333 53.66666667 -13 55 C-14.3303125 56.11375 -14.3303125 56.11375 -15.6875 57.25 C-18 59 -18 59 -20 59 C-19.67 56.03 -19.34 53.06 -19 50 C-24.28 50 -29.56 50 -35 50 C-34.9375 42.1875 -34.9375 42.1875 -34.90991211 39.73901367 C-34.89753376 36.55618187 -34.98685441 34.03943678 -36 31 C-30.39 31 -24.78 31 -19 31 C-19 30.34 -19 29.68 -19 29 C-19.804375 28.71125 -20.60875 28.4225 -21.4375 28.125 C-24 27 -24 27 -25 25 C-18.6381142 22.23918163 -12.90767437 21.36823999 -6 21 C-5.88785156 19.99839844 -5.77570312 18.99679688 -5.66015625 17.96484375 C-5.08827965 13.96170753 -3.84634175 10.35553549 -2.4375 6.5625 C-1.98246094 5.32628906 -1.52742188 4.09007812 -1.05859375 2.81640625 C-0.53458984 1.42228516 -0.53458984 1.42228516 0 0 Z " fill="#221B08" transform="translate(39,12)"/>
<path d="M0 0 C0.94101562 0.00322266 1.88203125 0.00644531 2.8515625 0.00976562 C3.83640625 0.01814453 4.82125 0.02652344 5.8359375 0.03515625 C6.82851562 0.03966797 7.82109375 0.04417969 8.84375 0.04882812 C11.2995391 0.0606348 13.75520854 0.07710225 16.2109375 0.09765625 C16.89440432 1.75750423 17.55682065 3.4260243 18.2109375 5.09765625 C18.5821875 6.02578125 18.9534375 6.95390625 19.3359375 7.91015625 C20.2109375 11.09765625 20.2109375 11.09765625 20.2109375 19.09765625 C14.9309375 19.09765625 9.6509375 19.09765625 4.2109375 19.09765625 C4.2109375 21.07765625 4.2109375 23.05765625 4.2109375 25.09765625 C-5.02201705 21.66827313 -5.02201705 21.66827313 -7.1015625 17.41015625 C-7.3284375 16.64703125 -7.5553125 15.88390625 -7.7890625 15.09765625 C-8.4490625 15.75765625 -9.1090625 16.41765625 -9.7890625 17.09765625 C-11.9140625 16.72265625 -11.9140625 16.72265625 -13.7890625 16.09765625 C-13.7890625 14.77765625 -13.7890625 13.45765625 -13.7890625 12.09765625 C-9.3340625 11.60265625 -9.3340625 11.60265625 -4.7890625 11.09765625 C-5.4490625 10.76765625 -6.1090625 10.43765625 -6.7890625 10.09765625 C-6.7890625 7.12765625 -6.7890625 4.15765625 -6.7890625 1.09765625 C-4.33631109 -0.12871945 -2.7384844 -0.01649689 0 0 Z " fill="#392B00" transform="translate(58.7890625,42.90234375)"/>
<path d="M0 0 C1.4540625 0.0309375 1.4540625 0.0309375 2.9375 0.0625 C5.9375 6.6875 5.9375 6.6875 5.9375 10.0625 C5.2775 10.0625 4.6175 10.0625 3.9375 10.0625 C3.2775 9.0725 2.6175 8.0825 1.9375 7.0625 C1.5818396 8.09189697 1.5818396 8.09189697 1.21899414 9.14208984 C0.14740817 12.24105029 -0.92626926 15.33928206 -2 18.4375 C-2.37318359 19.51773437 -2.74636719 20.59796875 -3.13085938 21.7109375 C-3.48857422 22.7421875 -3.84628906 23.7734375 -4.21484375 24.8359375 C-4.54476318 25.78903809 -4.87468262 26.74213867 -5.21459961 27.72412109 C-6.0625 30.0625 -6.0625 30.0625 -7.0625 32.0625 C-9.390625 33.0625 -9.390625 33.0625 -12.3125 34.0625 C-15.9349572 35.31567438 -19.51387924 36.61196889 -23.0625 38.0625 C-21.7425 39.3825 -20.4225 40.7025 -19.0625 42.0625 C-24.3425 42.0625 -29.6225 42.0625 -35.0625 42.0625 C-35.0625 41.7325 -35.0625 41.4025 -35.0625 41.0625 C-32.4225 40.7325 -29.7825 40.4025 -27.0625 40.0625 C-28.0525 39.4025 -29.0425 38.7425 -30.0625 38.0625 C-33.71920531 38.86898688 -33.71920531 38.86898688 -37.0625 40.0625 C-37.0625 39.0725 -37.0625 38.0825 -37.0625 37.0625 C-33.00060941 35.26944946 -28.93788231 33.47830212 -24.875 31.6875 C-23.72451172 31.17960937 -22.57402344 30.67171875 -21.38867188 30.1484375 C-20.27685547 29.65859375 -19.16503906 29.16875 -18.01953125 28.6640625 C-16.48776245 27.98851318 -16.48776245 27.98851318 -14.92504883 27.29931641 C-12.0625 26.0625 -12.0625 26.0625 -9.30273438 25.15820312 C-6.94762033 24.25953088 -6.94762033 24.25953088 -5.9440918 22.18310547 C-5.71890869 21.43947754 -5.49372559 20.69584961 -5.26171875 19.9296875 C-5.00712891 19.12402344 -4.75253906 18.31835938 -4.49023438 17.48828125 C-4.12381836 16.22564453 -4.12381836 16.22564453 -3.75 14.9375 C-3.48638672 14.08800781 -3.22277344 13.23851562 -2.95117188 12.36328125 C-2.3036851 10.2677786 -1.67511138 8.1684111 -1.0625 6.0625 C-1.97745239 6.4181604 -1.97745239 6.4181604 -2.91088867 6.78100586 C-5.68898802 7.85819574 -8.46945106 8.92915001 -11.25 10 C-12.20970703 10.37318359 -13.16941406 10.74636719 -14.15820312 11.13085938 C-15.08955078 11.48857422 -16.02089844 11.84628906 -16.98046875 12.21484375 C-17.83406982 12.54476318 -18.6876709 12.87468262 -19.56713867 13.21459961 C-22.05315961 14.05932622 -24.47932623 14.60735975 -27.0625 15.0625 C-26.0625 12.0625 -26.0625 12.0625 -23.9453125 10.72802734 C-23.03523438 10.2892627 -22.12515625 9.85049805 -21.1875 9.3984375 C-20.20265625 8.91632812 -19.2178125 8.43421875 -18.203125 7.9375 C-17.16671875 7.4425 -16.1303125 6.9475 -15.0625 6.4375 C-13.02011545 5.44679108 -10.97841059 4.45467931 -8.9375 3.4609375 C-8.02742188 3.02442871 -7.11734375 2.58791992 -6.1796875 2.13818359 C-2.05375575 0.04191338 -2.05375575 0.04191338 0 0 Z M-1.0625 3.0625 C-0.0625 5.0625 -0.0625 5.0625 -0.0625 5.0625 Z M-9.0625 28.0625 C-8.0625 30.0625 -8.0625 30.0625 -8.0625 30.0625 Z " fill="#FBFBFB" transform="translate(38.0625,-0.0625)"/>
<path d="M0 0 C0.99 0 1.98 0 3 0 C3.67305018 1.60149886 4.33822227 3.20631029 5 4.8125 C5.37125 5.70582031 5.7425 6.59914063 6.125 7.51953125 C7 10 7 10 7 13 C7.77190674 12.78794922 8.54381348 12.57589844 9.33911133 12.35742188 C12.82917916 11.40102295 16.32080635 10.45044525 19.8125 9.5 C21.02744141 9.16613281 22.24238281 8.83226562 23.49414062 8.48828125 C25.23920898 8.01455078 25.23920898 8.01455078 27.01953125 7.53125 C28.09307861 7.23798828 29.16662598 6.94472656 30.27270508 6.64257812 C33 6 33 6 36 6 C34.43269582 9.54923911 32.28421705 12.27202766 29.8125 15.25 C29.01585938 16.21035156 28.21921875 17.17070312 27.3984375 18.16015625 C24.31113255 21.81564598 21.17461902 25.42011047 18 29 C23.28 29.66 28.56 30.32 34 31 C37.61302832 39.40029085 39.82502027 45.85144185 39 55 C36.03 54.505 36.03 54.505 33 54 C33 53.67 33 53.34 33 53 C34.65 53 36.3 53 38 53 C37.09581903 48.4046332 36.08819785 43.99324855 34.375 39.625 C33 36 33 36 33 33 C26.07 33 19.14 33 12 33 C16.49548224 26.25677663 16.49548224 26.25677663 19.19921875 23.203125 C19.76833984 22.55472656 20.33746094 21.90632813 20.92382812 21.23828125 C21.50583984 20.58214844 22.08785156 19.92601563 22.6875 19.25 C23.85994156 17.92352431 25.03060431 16.59547359 26.19921875 15.265625 C26.71315186 14.68586914 27.22708496 14.10611328 27.7565918 13.50878906 C29.09128728 12.00385317 29.09128728 12.00385317 30 10 C29.18917969 10.26554687 28.37835938 10.53109375 27.54296875 10.8046875 C20.40720568 13.08082147 13.40535521 14.87213027 6 16 C4.9955866 13.7101766 3.99632388 11.4183401 3 9.125 C2.71382812 8.47402344 2.42765625 7.82304687 2.1328125 7.15234375 C0 2.2265625 0 2.2265625 0 0 Z " fill="#EAEAEA" transform="translate(42,10)"/>
<path d="M0 0 C5.61 0 11.22 0 17 0 C19.68517142 6.71292856 21.54489117 11.78019198 21 19 C9.47835991 18.03644647 9.47835991 18.03644647 4 17 C4 16.67 4 16.34 4 16 C6.64 15.67 9.28 15.34 12 15 C8.7 14.34 5.4 13.68 2 13 C2.33 11.35 2.66 9.7 3 8 C4.32 8 5.64 8 7 8 C6.34 6.02 5.68 4.04 5 2 C3.35 1.67 1.7 1.34 0 1 C0 0.67 0 0.34 0 0 Z " fill="#1C1708" transform="translate(58,43)"/>
<path d="M0 0 C3.96 0.33 7.92 0.66 12 1 C12 1.99 12 2.98 12 4 C10.02 4 8.04 4 6 4 C6 4.66 6 5.32 6 6 C7.32 6 8.64 6 10 6 C10 6.99 10 7.98 10 9 C8.68 9 7.36 9 6 9 C6 10.65 6 12.3 6 14 C10.95 13.67 15.9 13.34 21 13 C21 14.98 21 16.96 21 19 C20.34 19 19.68 19 19 19 C19 19.66 19 20.32 19 21 C19.7425 20.649375 20.485 20.29875 21.25 19.9375 C24.1322726 18.95490707 25.21176345 18.9673198 28 20 C26.33333333 21.33333333 24.66666667 22.66666667 23 24 C21.6696875 25.11375 21.6696875 25.11375 20.3125 26.25 C18 28 18 28 16 28 C16.33 25.03 16.66 22.06 17 19 C11.72 19 6.44 19 1 19 C1.0625 11.1875 1.0625 11.1875 1.09008789 8.73901367 C1.10246624 5.55618187 1.01314559 3.03943678 0 0 Z " fill="#3F3827" transform="translate(3,43)"/>
<path d="M0 0 C0.33 0 0.66 0 1 0 C1 2.31 1 4.62 1 7 C-4.34629602 8.0024305 -8.62374766 7.84888195 -14 7 C-13.01 10.3 -12.02 13.6 -11 17 C-15.01090411 15.99727397 -17.47884024 14.60579162 -21 12.5 C-28.50391608 8.39392457 -35.76793711 6.66293562 -44.1875 8.875 C-46.86185469 9.73054826 -46.86185469 9.73054826 -48 11 C-49.66617115 11.04063832 -51.33388095 11.042721 -53 11 C-47.76488014 6.75530823 -45.04845877 4.72077334 -38.1875 4.75 C-36.98480469 4.74484375 -35.78210938 4.7396875 -34.54296875 4.734375 C-29.07871306 5.14404356 -24.83328064 6.91417175 -20.125 9.625 C-18.95324219 10.29402344 -18.95324219 10.29402344 -17.7578125 10.9765625 C-16.88769531 11.48316406 -16.88769531 11.48316406 -16 12 C-16.185625 11.030625 -16.37125 10.06125 -16.5625 9.0625 C-16.706875 8.051875 -16.85125 7.04125 -17 6 C-16 5 -16 5 -13.671875 4.8671875 C-12.70765625 4.86976562 -11.7434375 4.87234375 -10.75 4.875 C-9.79609375 4.87242188 -8.8421875 4.86984375 -7.859375 4.8671875 C-5.13536072 4.99371275 -2.65324991 5.38994619 0 6 C0 4.02 0 2.04 0 0 Z " fill="#EAEAEA" transform="translate(79,56)"/>
<path d="M0 0 C3.96 0.33 7.92 0.66 12 1 C12 1.99 12 2.98 12 4 C10.02 4 8.04 4 6 4 C6 4.66 6 5.32 6 6 C7.32 6 8.64 6 10 6 C10 6.99 10 7.98 10 9 C8.68 9 7.36 9 6 9 C6 10.65 6 12.3 6 14 C7.32 14.33 8.64 14.66 10 15 C7.36 15.33 4.72 15.66 2 16 C1.93941406 15.09636719 1.87882813 14.19273438 1.81640625 13.26171875 C1.73261719 12.08222656 1.64882812 10.90273438 1.5625 9.6875 C1.48128906 8.51574219 1.40007813 7.34398437 1.31640625 6.13671875 C1.1132629 2.97409042 1.1132629 2.97409042 0 0 Z " fill="#3E2F07" transform="translate(3,43)"/>
<path d="M0 0 C0.33 0 0.66 0 1 0 C0.58451696 8.03267209 -0.99393919 15.94897369 -5 23 C-8.18486428 25.22550914 -11.19982098 26.27685914 -15 27 C-13.68 27.66 -12.36 28.32 -11 29 C-11.33 29.99 -11.66 30.98 -12 32 C-15.99500618 30.6302836 -18.80009492 28.74277578 -22 26 C-11.62642369 21.59225513 -11.62642369 21.59225513 -6 21 C-5.88785156 19.99839844 -5.77570312 18.99679688 -5.66015625 17.96484375 C-5.08827965 13.96170753 -3.84634175 10.35553549 -2.4375 6.5625 C-1.98246094 5.32628906 -1.52742188 4.09007812 -1.05859375 2.81640625 C-0.70925781 1.88699219 -0.35992187 0.95757812 0 0 Z " fill="#DCA000" transform="translate(39,12)"/>
<path d="M0 0 C3.63 0 7.26 0 11 0 C10.01 0.33 9.02 0.66 8 1 C8 4.63 8 8.26 8 12 C9.65 12 11.3 12 13 12 C11 14 11 14 8.3984375 14.1953125 C7.40070312 14.17210937 6.40296875 14.14890625 5.375 14.125 C3.87066406 14.09792969 3.87066406 14.09792969 2.3359375 14.0703125 C1.56507812 14.04710937 0.79421875 14.02390625 0 14 C0 12.35 0 10.7 0 9 C1.32 9 2.64 9 4 9 C4 8.01 4 7.02 4 6 C2.68 6 1.36 6 0 6 C0 5.34 0 4.68 0 4 C1.98 4 3.96 4 6 4 C6 3.01 6 2.02 6 1 C4.02 1 2.04 1 0 1 C0 0.67 0 0.34 0 0 Z " fill="#090600" transform="translate(9,43)"/>
<path d="M0 0 C-1.7447389 2.10872753 -3.49545487 4.21195679 -5.25 6.3125 C-5.74113281 6.90740234 -6.23226562 7.50230469 -6.73828125 8.11523438 C-9.28099518 11.14953967 -11.66291827 13.79911514 -15 16 C-13.65515286 11.95838045 -11.9494838 9.61321846 -8.875 6.6875 C-8.15054688 5.99011719 -7.42609375 5.29273438 -6.6796875 4.57421875 C-6.12539063 4.05472656 -5.57109375 3.53523438 -5 3 C-5.67546875 3.20496094 -6.3509375 3.40992188 -7.046875 3.62109375 C-8.38492188 4.02521484 -8.38492188 4.02521484 -9.75 4.4375 C-11.07257812 4.83775391 -11.07257812 4.83775391 -12.421875 5.24609375 C-14.60565835 5.88468494 -16.78835498 6.46775833 -19 7 C-19.33 6.01 -19.66 5.02 -20 4 C-17.42032203 3.13310822 -14.83723873 2.28126211 -12.25 1.4375 C-11.52039062 1.19064453 -10.79078125 0.94378906 -10.0390625 0.68945312 C-9.33007812 0.46064453 -8.62109375 0.23183594 -7.890625 -0.00390625 C-6.91657715 -0.32597046 -6.91657715 -0.32597046 -5.92285156 -0.65454102 C-3.66555462 -1.06008636 -2.16526518 -0.69296911 0 0 Z " fill="#D19800" transform="translate(68,24)"/>
<path d="M0 0 C-2.53249991 5.73497333 -7.0006017 10.24661678 -11 15 C-11.66257812 15.80050781 -12.32515625 16.60101563 -13.0078125 17.42578125 C-13.60335937 18.13089844 -14.19890625 18.83601563 -14.8125 19.5625 C-15.33457031 20.18253906 -15.85664062 20.80257812 -16.39453125 21.44140625 C-18.13548107 23.13152542 -19.7864282 24.03486349 -22 25 C-20.66347623 22.08376603 -19.15606408 19.83123238 -17.03125 17.43359375 C-16.46019531 16.78326172 -15.88914062 16.13292969 -15.30078125 15.46289062 C-14.70652344 14.79451172 -14.11226562 14.12613281 -13.5 13.4375 C-12.32138959 12.10421295 -11.14424677 10.76962676 -9.96875 9.43359375 C-9.44732422 8.84634521 -8.92589844 8.25909668 -8.38867188 7.65405273 C-6.8132734 5.83926466 -6.8132734 5.83926466 -5 3 C-5.99 2.67 -6.98 2.34 -8 2 C-5.09399739 0.74335022 -3.20395416 0 0 0 Z " fill="#F7F7F7" transform="translate(78,16)"/>
<path d="M0 0 C3.625 0.375 3.625 0.375 7 1 C7.6875 3.3125 7.6875 3.3125 8 6 C6.9375 7.8125 6.9375 7.8125 5 9 C1.875 9.25 1.875 9.25 -1 9 C-2 8 -2 8 -2.1875 5.0625 C-2 2 -2 2 0 0 Z " fill="#D09900" transform="translate(29,44)"/>
<path d="M0 0 C-1.28640505 2.77048642 -2.68423771 5.0036468 -4.6796875 7.3125 C-5.19660156 7.91320312 -5.71351562 8.51390625 -6.24609375 9.1328125 C-6.78363281 9.74898437 -7.32117188 10.36515625 -7.875 11 C-8.66970703 11.92425781 -8.66970703 11.92425781 -9.48046875 12.8671875 C-12.21535631 16.02961332 -14.99054961 19.09231846 -18 22 C-18.66 21.67 -19.32 21.34 -20 21 C-19.67 20.01 -19.34 19.02 -19 18 C-18.34 18 -17.68 18 -17 18 C-15.25785024 16.2666787 -13.62325967 14.52642131 -12 12.6875 C-11.54882812 12.18798828 -11.09765625 11.68847656 -10.6328125 11.17382812 C-8.56162014 8.86058814 -6.7257056 6.5885584 -5 4 C-6.58357459 4.31127516 -8.16684993 4.62407289 -9.75 4.9375 C-10.63171875 5.11152344 -11.5134375 5.28554688 -12.421875 5.46484375 C-14.9581007 5.9468129 -14.9581007 5.9468129 -17.203125 6.69140625 C-18.09257813 6.84416016 -18.09257813 6.84416016 -19 7 C-19.66 6.34 -20.32 5.68 -21 5 C-17.87605609 4.16267257 -14.75068026 3.33082018 -11.625 2.5 C-10.73554687 2.26152344 -9.84609375 2.02304687 -8.9296875 1.77734375 C-8.07890625 1.55175781 -7.228125 1.32617188 -6.3515625 1.09375 C-5.56604004 0.88427734 -4.78051758 0.67480469 -3.97119141 0.45898438 C-2 0 -2 0 0 0 Z " fill="#39331E" transform="translate(72,20)"/>
<path d="M0 0 C0.66 0 1.32 0 2 0 C2 0.99 2 1.98 2 3 C2.61875 2.835 3.2375 2.67 3.875 2.5 C7.53762116 1.91398061 10.9968877 2.01963859 14.6953125 2.16015625 C17.27910608 2.17192353 17.27910608 2.17192353 20 0 C20.66 1.65 21.32 3.3 22 5 C21.43079834 4.99476318 20.86159668 4.98952637 20.27514648 4.98413086 C17.66260917 4.96317113 15.05008963 4.95027996 12.4375 4.9375 C11.54224609 4.92912109 10.64699219 4.92074219 9.72460938 4.91210938 C2.97243648 4.88737614 -3.38792772 5.59743921 -10 7 C-10 6.34 -10 5.68 -10 5 C-9.34 5 -8.68 5 -8 5 C-7.67 4.34 -7.34 3.68 -7 3 C-6.21625 3.061875 -5.4325 3.12375 -4.625 3.1875 C-3.75875 3.125625 -2.8925 3.06375 -2 3 C-1.34 2.01 -0.68 1.02 0 0 Z " fill="#0D0A03" transform="translate(32,57)"/>
<path d="M0 0 C3.96 0 7.92 0 12 0 C14 6.625 14 6.625 14 10 C8.25 6.375 8.25 6.375 6 3 C5.34 3.66 4.68 4.32 4 5 C1.875 4.625 1.875 4.625 0 4 C0 2.68 0 1.36 0 0 Z " fill="#A57A00" transform="translate(45,55)"/>
<path d="M0 0 C1.67542976 0.28604898 3.34385343 0.61781233 5 1 C4.125 7.75 4.125 7.75 3 10 C3.9075 9.319375 4.815 8.63875 5.75 7.9375 C9 6 9 6 11.203125 6.37890625 C11.79609375 6.58386719 12.3890625 6.78882812 13 7 C11.42825925 8.20280161 9.84212442 9.38681275 8.25 10.5625 C7.36828125 11.22378906 6.4865625 11.88507813 5.578125 12.56640625 C3 14 3 14 -1 13 C0.32 9.37 1.64 5.74 3 2 C1.68 1.67 0.36 1.34 -1 1 C-0.67 0.67 -0.34 0.34 0 0 Z " fill="#F0F0F0" transform="translate(16,61)"/>
<path d="M0 0 C1.80411967 2.75924185 2.0127245 3.88972103 1.625 7.25 C1.41875 8.1575 1.2125 9.065 1 10 C0.34 9.34 -0.32 8.68 -1 8 C-2.98 14.27 -4.96 20.54 -7 27 C-8.98 27.33 -10.96 27.66 -13 28 C-12.67 27.34 -12.34 26.68 -12 26 C-11.01 26 -10.02 26 -9 26 C-8.84144531 25.36835938 -8.68289062 24.73671875 -8.51953125 24.0859375 C-3.02729045 3.02729045 -3.02729045 3.02729045 0 0 Z " fill="#413D2E" transform="translate(40,6)"/>
<path d="M0 0 C2.31 0 4.62 0 7 0 C7.70074844 3.153368 8 5.72724974 8 9 C6 8 4 7 2 6 C2 6.99 2 7.98 2 9 C1.34 9 0.68 9 0 9 C0 6.03 0 3.06 0 0 Z " fill="#D9A000" transform="translate(40,44)"/>
<path d="M0 0 C1.8125 0.0625 1.8125 0.0625 4 1 C7.15759312 6.77077364 7.15759312 6.77077364 6.6875 10.4375 C6.460625 10.953125 6.23375 11.46875 6 12 C5.34 11.01 4.68 10.02 4 9 C1.94074861 8.27617533 1.94074861 8.27617533 0 8 C0 8.66 0 9.32 0 10 C-0.66 10 -1.32 10 -2 10 C-1.54177532 6.53058454 -1.10868317 3.32604951 0 0 Z " fill="#C79300" transform="translate(70,45)"/>
<path d="M0 0 C1.65 0 3.3 0 5 0 C7 2 7 2 7.125 4.625 C7.08375 5.40875 7.0425 6.1925 7 7 C5.68 7 4.36 7 3 7 C3 7.99 3 8.98 3 10 C2.01 10 1.02 10 0 10 C0 6.7 0 3.4 0 0 Z " fill="#896700" transform="translate(58,44)"/>
<path d="M0 0 C3.96 0 7.92 0 12 0 C11.01 0.495 11.01 0.495 10 1 C10 2.32 10 3.64 10 5 C9.34 5 8.68 5 8 5 C8 4.01 8 3.02 8 2 C7.34 2 6.68 2 6 2 C5.34 3.32 4.68 4.64 4 6 C2.35 6 0.7 6 -1 6 C-0.67 4.02 -0.34 2.04 0 0 Z " fill="#AF8000" transform="translate(26,55)"/>
<path d="M0 0 C2.64 0 5.28 0 8 0 C8 0.66 8 1.32 8 2 C6.35 2 4.7 2 3 2 C3 2.66 3 3.32 3 4 C4.32 4 5.64 4 7 4 C7 4.99 7 5.98 7 7 C5.35 7 3.7 7 2 7 C1.67 8.32 1.34 9.64 1 11 C0.67 7.37 0.34 3.74 0 0 Z " fill="#DEAA00" transform="translate(6,45)"/>
<path d="M0 0 C6.6 0 13.2 0 20 0 C20 0.66 20 1.32 20 2 C14.39 2 8.78 2 3 2 C3.99 3.485 3.99 3.485 5 5 C5.125 8.1875 5.125 8.1875 5 11 C4.731875 10.4225 4.46375 9.845 4.1875 9.25 C3.05815166 6.94603902 3.05815166 6.94603902 1.375 4.9375 C0 3 0 3 0 0 Z " fill="#CECECF" transform="translate(0,41)"/>
<path d="M0 0 C0 1.65 0 3.3 0 5 C-0.66 5 -1.32 5 -2 5 C-2 4.01 -2 3.02 -2 2 C-2.56847656 2.144375 -3.13695312 2.28875 -3.72265625 2.4375 C-8.62262205 3.61545505 -12.9645312 4.21427527 -18 4 C-15.41904801 1.41904801 -13.70152649 1.4259075 -10.125 0.875 C-9.07570313 0.70742188 -8.02640625 0.53984375 -6.9453125 0.3671875 C-4 0 -4 0 0 0 Z " fill="#CD9A00" transform="translate(24,56)"/>
<path d="M0 0 C0 4.06772485 -1.54175504 5.09653495 -4.25 8.0625 C-5.03890625 8.94035156 -5.8278125 9.81820312 -6.640625 10.72265625 C-8.74033941 12.74936735 -10.32636212 13.91460114 -13 15 C-11.50403926 11.60502173 -9.5352395 9.12862797 -7.0625 6.375 C-6.37285156 5.59898438 -5.68320312 4.82296875 -4.97265625 4.0234375 C-3 2 -3 2 0 0 Z " fill="#EAEAEA" transform="translate(69,26)"/>
<path d="M0 0 C-0.33 0.66 -0.66 1.32 -1 2 C-3.5315866 2.63801836 -5.99839502 3.16687368 -8.5625 3.625 C-9.27341797 3.7590625 -9.98433594 3.893125 -10.71679688 4.03125 C-12.47642553 4.36191847 -14.23804548 4.68195767 -16 5 C-16 4.01 -16 3.02 -16 2 C-14.08654673 1.46748234 -12.1690705 0.94940517 -10.25 0.4375 C-9.18265625 0.14746094 -8.1153125 -0.14257812 -7.015625 -0.44140625 C-4.15664073 -0.97098494 -2.68402617 -0.98370862 0 0 Z " fill="#E6E7E7" transform="translate(73,19)"/>
<path d="M0 0 C4.29 0.66 8.58 1.32 13 2 C13 2.33 13 2.66 13 3 C11.35 3.33 9.7 3.66 8 4 C8 4.33 8 4.66 8 5 C2.25 6.125 2.25 6.125 0 5 C0 3.35 0 1.7 0 0 Z " fill="#BC9319" transform="translate(60,56)"/>
<path d="M0 0 C2.31 0.33 4.62 0.66 7 1 C7.33 1.99 7.66 2.98 8 4 C4.34606463 5.26823485 1.50929974 4.75715321 -2.25 4.0625 C-3.32765625 3.86785156 -4.4053125 3.67320313 -5.515625 3.47265625 C-6.33546875 3.31667969 -7.1553125 3.16070312 -8 3 C-8 2.67 -8 2.34 -8 2 C-5.36 1.67 -2.72 1.34 0 1 C0 0.67 0 0.34 0 0 Z " fill="#5B4508" transform="translate(70,57)"/>
<path d="M0 0 C1.27230469 0.01804688 2.54460938 0.03609375 3.85546875 0.0546875 C5.31919922 0.08949219 5.31919922 0.08949219 6.8125 0.125 C6.8125 0.455 6.8125 0.785 6.8125 1.125 C5.60013672 1.16367187 5.60013672 1.16367187 4.36328125 1.203125 C-3.68196672 1.62912825 -3.68196672 1.62912825 -10.1875 6.125 C-13 6.375 -13 6.375 -15.1875 6.125 C-9.7602854 1.72455573 -7.11186607 -0.13049296 0 0 Z " fill="#B5B5B5" transform="translate(41.1875,60.875)"/>
<path d="M0 0 C0.33 0 0.66 0 1 0 C0.58411954 6.19518473 -0.60251894 11.26689311 -3 17 C-3.66 16.67 -4.32 16.34 -5 16 C-4.54548816 14.26982492 -4.08621143 12.54090123 -3.625 10.8125 C-3.36976562 9.84957031 -3.11453125 8.88664062 -2.8515625 7.89453125 C-2.05233704 5.17789793 -1.0968638 2.60862825 0 0 Z " fill="#CB9100" transform="translate(39,12)"/>
<path d="M0 0 C2.38932765 3.58399147 3 5.73195001 3 10 C0 8.3125 0 8.3125 -3 6 C-3.375 3.25 -3.375 3.25 -3 1 C-2.01 0.67 -1.02 0.34 0 0 Z " fill="#836100" transform="translate(56,55)"/>
<path d="M0 0 C0.33 0 0.66 0 1 0 C1 2.31 1 4.62 1 7 C2.65 7 4.3 7 6 7 C6 7.66 6 8.32 6 9 C3.69 9.33 1.38 9.66 -1 10 C-1.02689216 8.52093108 -1.04634621 7.04172517 -1.0625 5.5625 C-1.07410156 4.73878906 -1.08570312 3.91507813 -1.09765625 3.06640625 C-1 1 -1 1 0 0 Z " fill="#D39300" transform="translate(18,45)"/>
<path d="M0 0 C0.99 0 1.98 0 3 0 C3.33 0.66 3.66 1.32 4 2 C4.99 2 5.98 2 7 2 C7 3.98 7 5.96 7 8 C5.68 7.67 4.36 7.34 3 7 C3.99 7 4.98 7 6 7 C5.67 6.34 5.34 5.68 5 5 C2.6859378 4.26924352 0.35171131 3.59861742 -2 3 C-1.34 2.01 -0.68 1.02 0 0 Z " fill="#0A0701" transform="translate(72,54)"/>
<path d="M0 0 C2.31 0 4.62 0 7 0 C6.67 1.32 6.34 2.64 6 4 C4.68 4 3.36 4 2 4 C2 5.65 2 7.3 2 9 C1.34 9 0.68 9 0 9 C0 6.03 0 3.06 0 0 Z " fill="#8C6A00" transform="translate(40,44)"/>
<path d="M0 0 C1.66611905 -0.042721 3.33382885 -0.04063832 5 0 C6 1 6 1 6.0625 3.5625 C6.041875 4.366875 6.02125 5.17125 6 6 C4.35 6 2.7 6 1 6 C0.67 6.66 0.34 7.32 0 8 C0 6.35 0 4.7 0 3 C1.32 3.33 2.64 3.66 4 4 C4 3.01 4 2.02 4 1 C2.68 0.67 1.36 0.34 0 0 Z " fill="#E7B200" transform="translate(59,45)"/>
<path d="M0 0 C-4.5 4 -4.5 4 -9 4 C-9 3.01 -9 2.02 -9 1 C-5.57367167 -0.61798838 -3.61944899 -1.34053666 0 0 Z " fill="#7D5E0B" transform="translate(31,63)"/>
<path d="M0 0 C4.12751449 0.60698743 7.3321148 2.03810791 11 4 C9.02 4.99 9.02 4.99 7 6 C5.83054208 5.19152271 4.66449539 4.37810888 3.5 3.5625 C2.8503125 3.11003906 2.200625 2.65757813 1.53125 2.19140625 C1.0259375 1.79824219 0.520625 1.40507813 0 1 C0 0.67 0 0.34 0 0 Z " fill="#D7D7D7" transform="translate(49,62)"/>
<path d="M0 0 C-0.99 0.495 -0.99 0.495 -2 1 C-2 2.32 -2 3.64 -2 5 C-2.66 5 -3.32 5 -4 5 C-4 4.01 -4 3.02 -4 2 C-4.66 2 -5.32 2 -6 2 C-6.33 2.66 -6.66 3.32 -7 4 C-7 3.34 -7 2.68 -7 2 C-7.99 1.67 -8.98 1.34 -10 1 C-6.52674819 -0.1577506 -3.63932552 -0.06866652 0 0 Z " fill="#785A00" transform="translate(38,55)"/>
<path d="M0 0 C1.32 0 2.64 0 4 0 C3.67 1.65 3.34 3.3 3 5 C1.68 5 0.36 5 -1 5 C-0.67 3.35 -0.34 1.7 0 0 Z " fill="#130E00" transform="translate(30,46)"/>
<path d="M0 0 C1.80411967 2.75924185 2.0127245 3.88972103 1.625 7.25 C1.41875 8.1575 1.2125 9.065 1 10 C-0.32 9.34 -1.64 8.68 -3 8 C-1.125 1.125 -1.125 1.125 0 0 Z " fill="#433A1F" transform="translate(40,6)"/>
<path d="M0 0 C-1.55500981 3.81684226 -4.03595495 6.19195732 -7 9 C-6.649375 8.05125 -6.29875 7.1025 -5.9375 6.125 C-4.64973223 3.12939828 -4.64973223 3.12939828 -6 1 C-3.92446352 0.4465236 -2.15634036 0 0 0 Z " fill="#443E29" transform="translate(72,20)"/>
<path d="M0 0 C0.66 0 1.32 0 2 0 C0.515 5.445 0.515 5.445 -1 11 C-1.66 10.01 -2.32 9.02 -3 8 C-1.55555556 1.55555556 -1.55555556 1.55555556 0 0 Z " fill="#ECECEC" transform="translate(37,8)"/>
<path d="M0 0 C2.31 0.66 4.62 1.32 7 2 C7.66 1.34 8.32 0.68 9 0 C9.33 1.98 9.66 3.96 10 6 C6.40992874 4.66654496 3.20429093 3.1056769 0 1 C0 0.67 0 0.34 0 0 Z " fill="#433F33" transform="translate(53,62)"/>
<path d="M0 0 C0.33 0 0.66 0 1 0 C1 1.65 1 3.3 1 5 C1.99 5.33 2.98 5.66 4 6 C0.25 9 0.25 9 -2 9 C-1.34 6.03 -0.68 3.06 0 0 Z " fill="#4B473B" transform="translate(21,62)"/>
<path d="M0 0 C-3.18762365 2.12508244 -5.26512223 2.5020163 -9 3 C-9 2.01 -9 1.02 -9 0 C-3.375 -1.125 -3.375 -1.125 0 0 Z " fill="#F6F6F6" transform="translate(57,23)"/>
<path d="M0 0 C0 3 0 3 -1.3125 4.38671875 C-2.875 5.59114583 -4.4375 6.79557292 -6 8 C-6 5 -6 5 -4.6875 3.61328125 C-3.125 2.40885417 -1.5625 1.20442708 0 0 Z " fill="#F0F0F0" transform="translate(69,26)"/>
<path d="M0 0 C1.98 0.99 3.96 1.98 6 3 C5.67 3.99 5.34 4.98 5 6 C2.525 5.01 2.525 5.01 0 4 C0 2.68 0 1.36 0 0 Z " fill="#CE9900" transform="translate(22,38)"/>
</svg>
