<?xml version="1.0" encoding="UTF-8"?>
<svg version="1.1" xmlns="http://www.w3.org/2000/svg" width="75" height="75">
<path d="M0 0 C0.89912109 -0.02449219 1.79824219 -0.04898438 2.72460938 -0.07421875 C12.60086896 -0.11706586 20.45438043 3.75356073 27.6875 10.375 C35.0046817 18.36813382 38.44628589 26.87859145 38.3125 37.6875 C38.30484619 38.60813232 38.29719238 39.52876465 38.28930664 40.47729492 C38.03740306 48.23032729 36.27232837 54.02521558 31.6875 60.375 C31.14609375 61.14070313 30.6046875 61.90640625 30.046875 62.6953125 C26.0736656 67.72680665 21.48329721 70.7330995 15.6875 73.375 C14.98367187 73.74109375 14.27984375 74.1071875 13.5546875 74.484375 C9.20453308 75.83564913 4.96680253 75.74364754 0.4375 75.75 C-0.46613281 75.77449219 -1.36976562 75.79898438 -2.30078125 75.82421875 C-12.2028337 75.86696142 -20.05854097 72.0155164 -27.3125 65.375 C-34.6296817 57.38186618 -38.07128589 48.87140855 -37.9375 38.0625 C-37.92984619 37.14186768 -37.92219238 36.22123535 -37.91430664 35.27270508 C-37.66253194 27.52363937 -35.90273415 21.71823748 -31.3125 15.375 C-30.75949219 14.60929688 -30.20648438 13.84359375 -29.63671875 13.0546875 C-21.73212987 3.20575147 -12.3181254 0.01743542 0 0 Z M-26.625 17.0625 C-32.06297374 25.03011612 -34.64432066 33.76686523 -33.3125 43.375 C-30.79290731 53.72231606 -25.84639073 61.51017131 -16.734375 67.12109375 C-8.03497527 71.62513781 0.4459605 72.69014976 9.875 70.125 C13.98019888 68.77142823 17.23741618 67.02273874 20.6875 64.375 C21.5125 63.83875 22.3375 63.3025 23.1875 62.75 C30.113882 56.1699371 33.63506752 47.56858644 34.0625 38.125 C33.8296738 28.12716893 29.82211397 19.36012682 22.6875 12.375 C7.23275676 0.62636974 -13.90504036 1.50525613 -26.625 17.0625 Z " fill="#FFFFFF" transform="translate(37.3125,-0.375)"/>
<path d="M0 0 C0.66 1.65 1.32 3.3 2 5 C-0.30283254 7.54131358 -2.67313793 9.07110295 -5.6875 10.6875 C-6.49574219 11.12449219 -7.30398437 11.56148437 -8.13671875 12.01171875 C-8.75160156 12.33785156 -9.36648437 12.66398437 -10 13 C-8.68 13.33 -7.36 13.66 -6 14 C-5.8125 16.3125 -5.8125 16.3125 -6 19 C-7.5 20.6875 -7.5 20.6875 -9 22 C-9 22.66 -9 23.32 -9 24 C-8.34 24 -7.68 24 -7 24 C-6.773125 23.47535156 -6.54625 22.95070313 -6.3125 22.41015625 C-4.54217697 19.1592952 -2.28273727 16.33657633 0 13.4375 C2.42111879 10.34192668 4.8181773 7.27273406 7 4 C9.31 4.33 11.62 4.66 14 5 C13.54183563 10.03980807 12.16567185 12.57120643 8.875 16.375 C8.06933594 17.31730469 7.26367188 18.25960937 6.43359375 19.23046875 C5.63050781 20.14441406 4.82742187 21.05835937 4 22 C3.28972656 22.82113281 2.57945313 23.64226563 1.84765625 24.48828125 C0.24292732 26.3358526 -1.37193263 28.17300478 -3 30 C-2.61585937 30.66386719 -2.23171875 31.32773437 -1.8359375 32.01171875 C-1.35382812 32.89472656 -0.87171875 33.77773438 -0.375 34.6875 C0.35589844 35.99267578 0.35589844 35.99267578 1.1015625 37.32421875 C2 40 2 40 1.1484375 42.83203125 C0.57996094 43.90517578 0.57996094 43.90517578 0 45 C-3.94139078 43.33248852 -6.7892812 40.77289351 -10 38 C-13.52381687 40.54604597 -13.52381687 40.54604597 -16 44 C-17.32 44 -18.64 44 -20 44 C-18.9291935 40.10615818 -17.52042699 37.24364181 -15.1875 34 C-13.80668438 32.04410974 -13.80668438 32.04410974 -13 30 C-13.99128684 26.51135194 -13.99128684 26.51135194 -16 24 C-18.69457254 26.32608399 -19.63081614 28.26751408 -20.60546875 31.66796875 C-20.86650391 32.56064453 -21.12753906 33.45332031 -21.39648438 34.37304688 C-21.65751953 35.30181641 -21.91855469 36.23058594 -22.1875 37.1875 C-22.46013672 38.12787109 -22.73277344 39.06824219 -23.01367188 40.03710938 C-23.68453575 42.35570907 -24.34625544 44.67652648 -25 47 C-26.32 47 -27.64 47 -29 47 C-28.48462048 39.86606248 -27.55994099 32.98187183 -26 26 C-26.66 26.33 -27.32 26.66 -28 27 C-30.3329866 27.04022391 -32.66706666 27.04320247 -35 27 C-33.82255415 23.46766245 -33.04394359 23.13691925 -29.9375 21.3125 C-28.83728516 20.65701172 -28.83728516 20.65701172 -27.71484375 19.98828125 C-26.86599609 19.49908203 -26.86599609 19.49908203 -26 19 C-27.98 19.33 -29.96 19.66 -32 20 C-32.625 17.375 -32.625 17.375 -32 14 C-29.6112831 12.21517221 -27.11808112 10.86668236 -24.4921875 9.45703125 C-21.57809155 7.75333565 -19.82836377 5.8256531 -18 3 C-17.41992188 3.20496094 -16.83984375 3.40992188 -16.2421875 3.62109375 C-13.43869856 4.09485408 -12.5321602 3.49809554 -10.125 2.0625 C-6.58984128 0.1360371 -4.08526142 -0.40852614 0 0 Z " fill="#FFFFFF" transform="translate(48,14)"/>
</svg>
