<?xml version="1.0" encoding="UTF-8"?>
<svg version="1.1" xmlns="http://www.w3.org/2000/svg" width="900" height="900">
<path d="M0 0 C8.6279027 5.36538035 14.1330839 12.50127389 18.75 21.4375 C19.32814453 22.50581055 19.32814453 22.50581055 19.91796875 23.59570312 C23.98343537 31.339784 26.72614138 39.77216037 24.3125 48.48046875 C20.65130657 58.56400565 14.78390245 63.68056796 5.5 68.6875 C4.12871948 69.44788574 4.12871948 69.44788574 2.72973633 70.22363281 C0.80206478 71.28950826 -1.12925132 72.34881623 -3.06396484 73.40185547 C-5.95275246 74.97428219 -8.83080384 76.56489193 -11.70703125 78.16015625 C-21.50789531 83.57651285 -31.37944662 88.79582952 -41.42919922 93.73291016 C-47.31706159 96.634905 -53.1893701 99.56833452 -59.0625 102.5 C-59.72485657 102.83046326 -60.38721313 103.16092651 -61.06964111 103.50140381 C-69.34994198 107.63533647 -77.57796096 111.84283987 -85.71875 116.24609375 C-95.43716336 121.44081708 -105.35784082 126.24372211 -115.36279297 130.859375 C-118.69870919 132.40804163 -121.99765071 133.9987892 -125.26757812 135.68408203 C-132.19542968 139.25135539 -139.13698965 142.51460937 -146.37295532 145.41706848 C-170.82634631 153.99292536 -170.82634631 153.99292536 -187.93389893 171.70983887 C-191.05959553 180.48360448 -191.9852164 189.72821832 -192 199 C-182.16186618 195.65084806 -172.37715727 192.23219358 -162.75 188.3125 C-120.85891866 171.34207211 -120.85891866 171.34207211 -101 167 C-100.16597656 166.80277344 -99.33195312 166.60554687 -98.47265625 166.40234375 C-90.62997486 165.12620444 -80.79588379 164.42016527 -74 169 C-67.98745447 174.6803607 -66.21109006 183.08905188 -65.8671875 191.08984375 C-66.17649623 198.15845788 -67.66128936 204.31446122 -72 210 C-75.40969338 213.1156568 -79.08273178 215.56646771 -83 218 C-83.84949219 218.54914063 -84.69898438 219.09828125 -85.57421875 219.6640625 C-92.40159686 223.87012609 -99.59785254 227.32814034 -106.8125 230.8125 C-107.8034668 231.29307861 -108.79443359 231.77365723 -109.81542969 232.26879883 C-114.82137053 234.6504669 -119.6063623 236.69860625 -125 238 C-120.80153249 244.89236475 -116.28270832 251.42048506 -111.46923828 257.88916016 C-107.69824761 262.98361741 -104.11307304 268.18765226 -100.5625 273.4375 C-96.28246224 279.75278255 -91.89449393 285.96224525 -87.3125 292.0625 C-86.80726807 292.73531006 -86.30203613 293.40812012 -85.78149414 294.10131836 C-83.9468236 296.52217388 -82.1505172 298.8494828 -80 301 C-79.47792969 300.1028125 -78.95585937 299.205625 -78.41796875 298.28125 C-73.11978852 289.26468388 -67.44626651 280.59529578 -61.43261719 272.04150391 C-60.01161956 270.01655807 -58.60257523 267.98372698 -57.1953125 265.94921875 C-51.04691417 257.10242094 -44.62769979 248.49106919 -38.06811523 239.9453125 C-33.59851324 234.11840184 -29.2086936 228.24104668 -24.875 222.3125 C-19.74002021 215.29668459 -14.47008081 208.40201773 -9.10888672 201.55786133 C-5.34565319 196.7485818 -1.64748196 191.89756079 2 187 C6.90912032 180.41029478 11.93318218 173.91656635 16.99121094 167.44067383 C21.0109353 162.28851459 24.95856339 157.09153509 28.86328125 151.8515625 C32.43971259 147.07862854 36.08960226 142.36227748 39.73388672 137.64111328 C41.82567213 134.92977862 43.91256567 132.21468489 46 129.5 C46.83853373 128.41015014 47.67707539 127.32030639 48.515625 126.23046875 C50.1315326 124.12991492 51.74585162 122.02817016 53.359375 119.92578125 C59.39206218 112.06948765 65.45807209 104.23953815 71.55078125 96.4296875 C73.6849707 93.69372853 75.80836667 90.95026468 77.91796875 88.1953125 C86.93398286 76.47288703 96.63051036 65.5157685 108 56 C108.6909375 55.40445313 109.381875 54.80890625 110.09375 54.1953125 C110.7228125 53.80085938 111.351875 53.40640625 112 53 C112.99 53.33 113.98 53.66 115 54 C115 55.65 115 57.3 115 59 C116.12148437 58.3503125 116.12148437 58.3503125 117.265625 57.6875 C118.74289062 56.8521875 118.74289062 56.8521875 120.25 56 C121.22453125 55.443125 122.1990625 54.88625 123.203125 54.3125 C126 53 126 53 130 53 C130.55744174 56.75576375 130.04284135 57.93902758 127.8125 61.11328125 C126.88735052 62.19041958 125.94936971 63.25664693 125 64.3125 C124.52304687 64.86228516 124.04609375 65.41207031 123.5546875 65.97851562 C122.38071346 67.32858577 121.19178502 68.66562641 120 70 C121.68687737 70.90575286 121.68687737 70.90575286 124 71 C127.00181942 69.23610365 127.00181942 69.23610365 130 66.75 C131.03125 65.94046875 132.0625 65.1309375 133.125 64.296875 C134.82053579 62.94228934 136.51053378 61.58063297 138.1875 60.203125 C140 59 140 59 143 59 C143 60.65 143 62.3 143 64 C144.010625 63.814375 145.02125 63.62875 146.0625 63.4375 C150 63 150 63 153.1875 63.625 C157.97785287 64.09618225 161.65549715 62.95625759 166.23046875 61.59375 C168.98824011 61.00252116 170.38749871 61.05226684 173 62 C172.42822637 66.97152322 170.15218092 70.69036183 167.6875 74.9375 C167.29626953 75.62779297 166.90503906 76.31808594 166.50195312 77.02929688 C164.15510908 81.13530096 161.66957471 85.09643424 159 89 C160.32 88.67 161.64 88.34 163 88 C162.67 89.65 162.34 91.3 162 93 C162.47050781 92.6390625 162.94101562 92.278125 163.42578125 91.90625 C164.04839844 91.4421875 164.67101562 90.978125 165.3125 90.5 C166.23482422 89.80390625 166.23482422 89.80390625 167.17578125 89.09375 C169 88 169 88 172 88 C170.38984268 93.88774394 167.4234249 98.82926911 164.375 104.0625 C163.83447998 104.99626465 163.29395996 105.9300293 162.73706055 106.89208984 C161.16501279 109.59886813 159.58357534 112.29995458 158 115 C157.40614502 116.02311279 157.40614502 116.02311279 156.80029297 117.06689453 C152.18099088 125.00678802 146.98377204 132.04145219 141 139 C139.61689168 140.62721587 138.2366722 142.25685176 136.85668945 143.88671875 C135.91093299 145.00346954 134.96415566 146.11935657 134.01635742 147.234375 C130.62713585 151.22909005 127.34689793 155.29981737 124.09375 159.40625 C121.14916916 163.05401433 118.10548467 166.6145398 115.06640625 170.18359375 C112.32225467 173.41424312 109.63252191 176.67698054 107 180 C103.47052982 184.45333968 99.81666836 188.78868839 96.13452148 193.11547852 C93.23696577 196.5246909 90.38255209 199.96352278 87.5625 203.4375 C83.60491812 208.30129025 79.53457554 213.05881231 75.44165039 217.80834961 C72.41054711 221.33298919 69.43014684 224.89039882 66.5 228.5 C62.5662143 233.34596789 58.51552241 238.08098528 54.44140625 242.80859375 C51.41041716 246.33317903 48.43007419 249.89048832 45.5 253.5 C41.56556744 258.34676475 37.51445426 263.08279255 33.43920898 267.81079102 C30.42754991 271.31235302 27.4694105 274.84786557 24.5625 278.4375 C20.42003621 283.54227843 16.11880901 288.49622682 11.79931641 293.45068359 C7.87737896 297.95959326 4.06960885 302.54707017 0.30859375 307.19140625 C-2.41344185 310.50298593 -5.20143139 313.7531 -8 317 C-12.31939586 322.01310059 -16.55097436 327.0853771 -20.72265625 332.22265625 C-22.8207018 334.78133615 -24.94470052 337.31383878 -27.08691406 339.83544922 C-28.02258709 340.93762937 -28.95557313 342.0420967 -29.88574219 343.14892578 C-32.13807848 345.82727174 -34.41409773 348.47021447 -36.76953125 351.05859375 C-37.60871094 352.00863281 -38.44789063 352.95867187 -39.3125 353.9375 C-40.45138672 355.18853516 -40.45138672 355.18853516 -41.61328125 356.46484375 C-43.2933017 358.92820376 -43.2933017 358.92820376 -42.5859375 361.734375 C-40.45155868 366.12930281 -37.93842015 370.19641282 -35.3125 374.3125 C-34.12472154 376.20213243 -32.93858971 378.09280066 -31.75390625 379.984375 C-31.13531738 380.97115234 -30.51672852 381.95792969 -29.87939453 382.97460938 C-26.77714263 387.9685176 -23.76371297 393.01483094 -20.75 398.0625 C-16.06682152 405.89905926 -11.35452148 413.71635759 -6.60205078 421.51098633 C1.2663318 434.41689874 9.08971653 447.34833931 16.56835938 460.48535156 C17.46413794 462.05876889 18.36558116 463.62898995 19.27539062 465.19433594 C23.80359772 473.03577122 26.78476217 479.8084748 25 489 C22.36217435 498.69114208 18.97134241 508.43158058 10 514 C9.34 514 8.68 514 8 514 C7.731875 514.763125 7.46375 515.52625 7.1875 516.3125 C5.3387471 520.49651972 5.3387471 520.49651972 3 522 C0.3125 522.25 0.3125 522.25 -3 521 C-9.66423035 515.16700699 -14.48888988 507.28445891 -19.54052734 500.06835938 C-22.32398843 496.12364838 -25.16656099 492.22138199 -28 488.3125 C-29.10472236 486.78816298 -30.20892564 485.26344959 -31.3125 483.73828125 C-32.01826172 482.76435425 -32.01826172 482.76435425 -32.73828125 481.77075195 C-33.85615217 480.20188241 -34.93142985 478.60285523 -36 477 C-36.66 481.29 -37.32 485.58 -38 490 C-41.94442674 488.02778663 -43.01672349 487.0552584 -45.5390625 483.66796875 C-46.19672607 482.79366211 -46.85438965 481.91935547 -47.53198242 481.01855469 C-48.22267822 480.08430664 -48.91337402 479.15005859 -49.625 478.1875 C-51.07140626 476.25895832 -52.51802019 474.33057238 -53.96484375 472.40234375 C-54.66206543 471.4676123 -55.35928711 470.53288086 -56.07763672 469.56982422 C-58.41884097 466.44009144 -60.79665061 463.34195514 -63.1875 460.25 C-67.5294122 454.61646014 -71.8507244 448.96738864 -76.16894531 443.31567383 C-79.58266728 438.84920209 -83.00585001 434.39020759 -86.4375 429.9375 C-89.99487652 425.31813343 -93.51646643 420.67526874 -97 416 C-106.28671283 423.67163233 -115.06598236 432.24268085 -122.3984375 441.828125 C-123.6875 443.5 -123.6875 443.5 -126 446 C-127.32 446 -128.64 446 -130 446 C-130 444.02 -130 442.04 -130 440 C-132.35648224 442.49782573 -134.70974016 444.99866815 -137.0625 447.5 C-137.71927734 448.19609375 -138.37605469 448.8921875 -139.05273438 449.609375 C-142.88890857 453.69121552 -146.62825071 457.83686299 -150.30053711 462.06640625 C-153.04800963 465.19239136 -155.89806091 468.21956116 -158.75 471.25 C-163.0650954 475.85406804 -167.36500036 480.46986996 -171.625 485.125 C-172.93791016 486.55779297 -172.93791016 486.55779297 -174.27734375 488.01953125 C-176.21381536 490.13584337 -178.14127721 492.26008764 -180.06640625 494.38671875 C-197.18352965 513.22811899 -197.18352965 513.22811899 -206.44921875 514.27734375 C-211.74390055 514.47520181 -215.41121909 513.89817742 -220 511 C-219.42567196 507.32971645 -218.44910755 504.65759196 -216.55078125 501.47265625 C-216.03999023 500.60995117 -215.52919922 499.74724609 -215.00292969 498.85839844 C-214.44508789 497.93575195 -213.88724609 497.01310547 -213.3125 496.0625 C-212.73016602 495.08958008 -212.14783203 494.11666016 -211.54785156 493.11425781 C-196.87181428 468.73271914 -180.99113779 445.08575055 -165.33959961 421.32495117 C-163.02888748 417.8166151 -160.72138898 414.30619601 -158.41625977 410.79418945 C-153.25689641 402.9394676 -148.08416345 395.09678793 -142.80581665 387.32133484 C-140.62535542 384.10699381 -138.45864499 380.88350491 -136.29302979 377.65914917 C-135.27257846 376.14857364 -134.24512326 374.64270355 -133.21038818 373.14187622 C-131.78395699 371.07213021 -130.38206747 368.98765525 -128.984375 366.8984375 C-128.56187469 366.29920975 -128.13937439 365.69998199 -127.70407104 365.08259583 C-125.62776192 361.92502344 -124.99469458 360.15563258 -125.12475586 356.34033203 C-125.87158147 353.49010387 -126.61838126 351.22497417 -128.01953125 348.65625 C-128.45555664 347.8405957 -128.89158203 347.02494141 -129.34082031 346.18457031 C-129.82647461 345.29866211 -130.31212891 344.41275391 -130.8125 343.5 C-131.888497 341.48532372 -132.96255672 339.46961212 -134.03515625 337.453125 C-134.64762207 336.30650391 -135.26008789 335.15988281 -135.89111328 333.97851562 C-139.78305281 326.65963289 -143.57770271 319.28966193 -147.37265015 311.92016602 C-148.74160584 309.26627314 -150.11836843 306.61652636 -151.49536133 303.96679688 C-152.34630116 302.31663063 -153.19682438 300.66624948 -154.046875 299.015625 C-154.64603981 297.86861115 -154.64603981 297.86861115 -155.25730896 296.69842529 C-158 291.34204371 -158 291.34204371 -158 288 C-156.35 288 -154.7 288 -153 288 C-153.32578384 285.99875639 -153.66055205 283.99897128 -154 282 C-154.103125 281.2471875 -154.20625 280.494375 -154.3125 279.71875 C-155.3491126 275.61941834 -157.48054019 272.08675235 -159.56054688 268.43554688 C-162.11575621 263.6478358 -162.31924269 260.27621099 -162 255 C-181.1686497 263.50343556 -181.1686497 263.50343556 -200.3125 272.0625 C-201.50891113 272.59798462 -201.50891113 272.59798462 -202.72949219 273.14428711 C-203.47489258 273.47952393 -204.22029297 273.81476074 -204.98828125 274.16015625 C-205.62290283 274.44511963 -206.25752441 274.73008301 -206.91137695 275.02368164 C-207.60062256 275.3458667 -208.28986816 275.66805176 -209 276 C-210.5001062 276.59143799 -210.5001062 276.59143799 -212.03051758 277.19482422 C-215.70421359 279.42809794 -216.93358707 281.89132772 -218.5234375 285.72265625 C-218.81527924 286.38733414 -219.10712097 287.05201202 -219.4078064 287.73683167 C-222.47621672 294.8475227 -225.10190453 302.11877952 -227.625 309.4375 C-228.14467728 310.93083265 -228.66437183 312.42415928 -229.18408203 313.91748047 C-230.80882733 318.60509398 -232.40890955 323.30086861 -234 328 C-234.24387451 328.719599 -234.48774902 329.439198 -234.73901367 330.18060303 C-253.03530392 384.2954954 -268.91342703 439.27503127 -284.90116882 494.10551453 C-285.74213253 496.98948466 -286.58451695 499.87303301 -287.42829895 502.75617981 C-287.83474054 504.1455428 -288.24112853 505.53492148 -288.64746094 506.92431641 C-288.94341549 507.93622748 -288.94341549 507.93622748 -289.24534893 508.9685812 C-290.41491036 512.97459723 -291.56930187 516.98462139 -292.71126366 520.99858952 C-293.59495466 524.09867694 -294.49040602 527.19538078 -295.3828125 530.29296875 C-295.6920163 531.39739822 -296.00122009 532.5018277 -296.3197937 533.63972473 C-299.86424428 545.86001681 -299.86424428 545.86001681 -304.98046875 549.3515625 C-309.29606684 550.73722842 -313.812282 550.83793727 -318.0703125 549.20703125 C-321.22918275 547.48220879 -322.99116274 546.01325589 -325 543 C-325.76045803 536.36703489 -324.69360336 529.68422922 -323.59594727 523.1484375 C-323.44037039 522.18358932 -323.28479351 521.21874115 -323.12450218 520.22465515 C-322.59233358 516.94007389 -322.0482343 513.65758664 -321.50390625 510.375 C-321.10733274 507.94856154 -320.71123864 505.52204468 -320.31556702 503.09545898 C-319.02673897 495.21761295 -317.7208104 487.34265868 -316.41067982 479.46833038 C-315.98633457 476.91786594 -315.5622907 474.3673515 -315.13826752 471.8168335 C-310.63399217 444.7303241 -306.09368429 417.64987586 -301.54491484 390.57080841 C-299.73424513 379.79137416 -297.92585941 369.01155707 -296.11760128 358.23171806 C-292.41414963 336.15407299 -288.70802893 314.07687673 -285 292 C-286.19084764 292.2279425 -287.38169529 292.45588501 -288.60862923 292.69073486 C-293.10217476 293.55055181 -297.59599472 294.40892733 -302.08989143 295.26690674 C-304.020743 295.63574645 -305.95152372 296.00495731 -307.88222694 296.37457275 C-322.76101243 299.22260192 -337.65218101 301.94220529 -352.59277344 304.44873047 C-356.01600438 305.02368253 -359.43769924 305.60727595 -362.859375 306.19140625 C-365.07023044 306.56558933 -367.28116448 306.9393084 -369.4921875 307.3125 C-370.49909637 307.48426758 -371.50600525 307.65603516 -372.54342651 307.83300781 C-373.46866119 307.98737305 -374.39389587 308.14173828 -375.34716797 308.30078125 C-376.15314423 308.43653564 -376.95912048 308.57229004 -377.78952026 308.7121582 C-380 309 -380 309 -384 309 C-382 305 -382 305 -373 300 C-381.58 300 -390.16 300 -399 300 C-396.7729993 295.54599861 -394.82596083 294.46512504 -390.61328125 292.34765625 C-389.96827164 292.01125626 -389.32326202 291.67485626 -388.65870667 291.32826233 C-387.27119552 290.60591296 -385.88100744 289.88868698 -384.48846436 289.17608643 C-380.81259569 287.29489869 -377.15547176 285.37785432 -373.49609375 283.46484375 C-372.76432922 283.08356323 -372.0325647 282.70228271 -371.27862549 282.30944824 C-365.05953795 279.05914395 -358.95413975 275.62988674 -352.875 272.125 C-342.92027344 266.41769396 -332.75149117 261.24032805 -322.4453125 256.20068359 C-319.60186879 254.80451185 -316.77365267 253.37977148 -313.94628906 251.95141602 C-308.6893957 249.29639872 -303.40726846 246.71075869 -298.078125 244.203125 C-297.04292725 243.71457031 -296.00772949 243.22601563 -294.94116211 242.72265625 C-292.89792365 241.76090718 -290.85196357 240.80491327 -288.80297852 239.85546875 C-281.25381479 236.30139733 -276.10192919 233.63578419 -272.85742188 225.66650391 C-271.23178693 220.61092734 -270.50058024 215.43233325 -269.75 210.1875 C-269.49089844 208.51010742 -269.49089844 208.51010742 -269.2265625 206.79882812 C-268.57205962 202.46923965 -268 198.38655577 -268 194 C-268.63859955 194.21582733 -269.2771991 194.43165466 -269.93515015 194.65402222 C-324.50863427 213.0863501 -324.50863427 213.0863501 -345.0625 219.125 C-345.74052673 219.32623474 -346.41855347 219.52746948 -347.11712646 219.73480225 C-353.73394721 221.68980446 -360.11225159 223.43247017 -367 224 C-367.495 222.02 -367.495 222.02 -368 220 C-366.35 219.01 -364.7 218.02 -363 217 C-363.99 216.67 -364.98 216.34 -366 216 C-364.83636894 212.50910682 -364.34803855 212.33845131 -361.2578125 210.64453125 C-360.45263184 210.1952124 -359.64745117 209.74589355 -358.81787109 209.28295898 C-357.92922363 208.79770752 -357.04057617 208.31245605 -356.125 207.8125 C-354.20189422 206.73918144 -352.28008211 205.6635426 -350.359375 204.5859375 C-348.81540039 203.7211377 -348.81540039 203.7211377 -347.24023438 202.83886719 C-341.56990472 199.62089529 -335.97511494 196.27551028 -330.375 192.9375 C-319.6298433 186.54311728 -308.84005055 180.23203881 -298 174 C-307.70108125 175.65230941 -317.07090951 178.50771766 -326.50024414 181.26464844 C-328.61965763 181.88264208 -330.74128167 182.49251822 -332.86328125 183.1015625 C-334.11407471 183.46588379 -335.36486816 183.83020508 -336.65356445 184.20556641 C-339.60323065 184.90580817 -341.99187434 185.17377262 -345 185 C-343.88333826 181.65001479 -343.25305075 181.20659778 -340.4375 179.3125 C-339.79683594 178.87550781 -339.15617187 178.43851563 -338.49609375 177.98828125 C-338.00238281 177.66214844 -337.50867188 177.33601562 -337 177 C-340.14616546 177.62333545 -343.29186743 178.24898138 -346.4375 178.875 C-347.31599609 179.04902344 -348.19449219 179.22304688 -349.09960938 179.40234375 C-354.09281036 180.39729893 -359.06084066 181.44902971 -364.01196289 182.63720703 C-366 183 -366 183 -370 183 C-368.48823254 178.44355403 -364.75103969 176.45053876 -360.9375 173.9375 C-360.22287598 173.45708252 -359.50825195 172.97666504 -358.77197266 172.48168945 C-356.52234405 170.97579857 -354.26314782 169.48548281 -352 168 C-351.31921387 167.55205078 -350.63842773 167.10410156 -349.93701172 166.64257812 C-345.75688292 163.89997351 -341.55503251 161.19246011 -337.34277344 158.49951172 C-334.86316704 156.91241892 -332.38863838 155.31757955 -329.9140625 153.72265625 C-312.07082285 142.25584425 -293.96755438 131.26076701 -275.4375 120.9375 C-273.90996094 120.08248901 -273.90996094 120.08248901 -272.3515625 119.21020508 C-268.12289227 116.84529449 -263.89325787 114.48473367 -259.63476562 112.17382812 C-256.3062987 110.36716457 -252.9964071 108.52968318 -249.6875 106.6875 C-248.67292725 106.14923584 -247.65835449 105.61097168 -246.61303711 105.05639648 C-240.02293258 101.34180978 -237.11296216 98.25848834 -235 91 C-234.71487549 90.07856201 -234.42975098 89.15712402 -234.13598633 88.20776367 C-232.93855389 84.2137813 -231.81932577 80.2011618 -230.73242188 76.17578125 C-229.09620744 70.4771122 -227.77322414 66.81576325 -223 63 C-222.06285156 62.17242187 -221.12570312 61.34484375 -220.16015625 60.4921875 C-219.130206 59.61672146 -218.0975319 58.74445227 -217.0625 57.875 C-216.50328857 57.40344482 -215.94407715 56.93188965 -215.36791992 56.44604492 C-210.10681949 52.03805643 -204.72166818 47.79591529 -199.3046875 43.58203125 C-195.55262666 40.66219443 -191.86344168 37.6664549 -188.18359375 34.65625 C-185.05189403 32.28086416 -182.29139666 30.21523278 -178.375 29.5625 C-176 30 -176 30 -174.39501953 31.67431641 C-172.71537309 34.47451101 -172.50758158 36.39948352 -172.3046875 39.6484375 C-172.22863281 40.73640625 -172.15257812 41.824375 -172.07421875 42.9453125 C-172.00847656 44.07710937 -171.94273437 45.20890625 -171.875 46.375 C-171.72876596 48.61212429 -171.58039572 50.84911017 -171.4296875 53.0859375 C-171.37022949 54.0764209 -171.31077148 55.0669043 -171.24951172 56.08740234 C-170.99165504 59.09741236 -170.5346416 62.02774583 -170 65 C-162.60905867 61.3073123 -155.21854946 57.61381641 -147.8356781 53.90501404 C-128.80993574 44.34753125 -109.7290318 34.94071132 -90.43798828 25.92724609 C-89.65407715 25.55937988 -88.87016602 25.19151367 -88.0625 24.8125 C-87.46765808 24.53427902 -86.87281616 24.25605804 -86.25994873 23.96940613 C-82.30018166 22.10915454 -78.37260556 20.19868003 -74.47032166 18.22085571 C-66.09687955 13.976908 -57.6266938 9.97585382 -49.07836914 6.09765625 C-46.90437518 5.10995048 -44.73440391 4.11373952 -42.56445312 3.1171875 C-41.15648317 2.4760502 -39.7482884 1.83540631 -38.33984375 1.1953125 C-37.7043309 0.90262482 -37.06881805 0.60993713 -36.41404724 0.30838013 C-24.48905877 -5.0678164 -11.73626487 -6.6042048 0 0 Z " fill="#FEFEFE" transform="translate(563,177)"/>
<path d="M0 0 C4.01538641 0.01710538 8.03017652 0.00690996 12.04554272 -0.01032925 C48.39544464 -0.14238531 83.4727033 4.5344854 118.75463867 13.39111328 C119.77638184 13.64731445 120.798125 13.90351563 121.85083008 14.16748047 C188.52303481 31.19062548 252.37433832 65.61612767 303.17260742 112.05517578 C304.56494061 113.31480551 305.96327259 114.56854379 307.39355469 115.78491211 C313.44023552 120.94744188 319.04767573 126.53223575 324.65478516 132.16088867 C326.31391187 133.82537606 327.97831919 135.48444775 329.64331055 137.14306641 C335.22363719 142.71964192 340.6615564 148.36063256 345.75463867 154.39111328 C346.60026367 155.35533203 347.44588867 156.31955078 348.31713867 157.31298828 C366.58649072 178.5101211 382.81815164 201.79716764 396.51977539 226.19482422 C397.38178499 227.72796742 398.25120099 229.25695958 399.1262207 230.78271484 C429.40669504 283.64818644 447.13031823 342.97153536 453.75463867 403.39111328 C453.88285255 404.522817 453.88285255 404.522817 454.01365662 405.67738342 C454.85196256 413.78515364 454.95432613 421.87760164 454.99291992 430.02001953 C454.99903321 431.13274892 454.99903321 431.13274892 455.00527 432.26795769 C455.02603204 436.21696552 455.04035962 440.16593993 455.04980469 444.11499023 C455.05853799 447.29976285 455.07911842 450.48408092 455.11132812 453.66870117 C455.99966665 543.60193918 427.90218673 635.3157142 328.2043457 764.99609375 C325.31527331 767.93023887 322.41167785 770.84978239 319.50463867 773.76611328 C319.03287201 774.24055878 318.56110535 774.71500427 318.07504272 775.2038269 C312.47815881 780.82480437 306.79777038 786.25327563 300.75463867 791.39111328 C299.79041992 792.23673828 298.82620117 793.08236328 297.83276367 793.95361328 C273.94064815 814.54571285 247.44753672 832.33900655 219.75463867 847.39111328 C219.00005371 847.80683594 218.24546875 848.22255859 217.46801758 848.65087891 C208.12579033 853.79248653 198.66434667 858.3413045 188.83935547 862.48608398 C186.39422868 863.54757655 183.98135982 864.67185195 181.56323242 865.79345703 C143.48200112 883.15708906 102.10224585 892.94396984 60.75463867 898.39111328 C59.46291748 898.57802734 58.17119629 898.76494141 56.84033203 898.95751953 C41.50460817 901.00254454 26.01381209 900.76573245 10.57275391 900.76171875 C7.34563441 900.7615576 4.11909112 900.77524672 0.89208984 900.80273438 C-97.93519555 901.63060296 -194.40027488 867.45364331 -293.66333008 788.72705078 C-295.05142302 787.47125716 -296.44526508 786.22107951 -297.87109375 785.00830078 C-304.02679974 779.75199618 -309.74315074 774.07944243 -315.46289062 768.35888672 C-317.17079189 766.6531673 -318.88654177 764.95562301 -320.6027832 763.25830078 C-326.49102845 757.39996239 -332.02401043 751.45108228 -337.19677734 744.93676758 C-339.18137218 742.47062881 -341.24631322 740.11639601 -343.37036133 737.77001953 C-347.23791368 733.46010633 -350.7833395 728.96842655 -354.24536133 724.32861328 C-355.20031494 723.04929932 -355.20031494 723.04929932 -356.17456055 721.74414062 C-399.29557235 663.3618481 -428.3709715 596.76270242 -440.49536133 525.14111328 C-440.62042053 524.41168518 -440.74547974 523.68225708 -440.87432861 522.9307251 C-441.75228004 517.76228348 -442.53902238 512.58579355 -443.24536133 507.39111328 C-443.39743546 506.27810349 -443.39743546 506.27810349 -443.55258179 505.14260864 C-445.69219787 488.68671207 -445.5871649 472.14571535 -445.56103516 455.58325195 C-445.55641686 452.42587996 -445.56329161 449.26889441 -445.58154297 446.11157227 C-445.69671902 425.984421 -444.98991262 406.37090981 -442.24536133 386.39111328 C-442.14303192 385.62322479 -442.04070251 384.8553363 -441.93527222 384.06417847 C-441.39622881 380.07268332 -440.76535408 376.10600113 -440.05786133 372.14111328 C-439.84846924 370.96170166 -439.63907715 369.78229004 -439.42333984 368.56713867 C-432.73581926 332.30120735 -421.54654975 296.93751625 -406.24536133 263.39111328 C-405.80369629 262.41432617 -405.36203125 261.43753906 -404.90698242 260.43115234 C-388.20295444 223.72985975 -366.01577158 190.32011967 -340.24536133 159.39111328 C-338.99323853 157.88145996 -338.99323853 157.88145996 -337.71582031 156.34130859 C-330.44839951 147.67076824 -322.72273562 139.55703461 -314.69970703 131.5847168 C-312.67413651 129.56993493 -310.65957749 127.54458053 -308.64575195 125.51806641 C-301.47912749 118.34415461 -294.20655671 111.68024757 -286.24536133 105.39111328 C-285.06899109 104.38523148 -283.89985988 103.37075836 -282.74145508 102.34423828 C-225.0089221 51.23796209 -149.61316494 19.63411239 -74.43286133 5.70361328 C-73.42852051 5.5131543 -72.42417969 5.32269531 -71.3894043 5.12646484 C-67.68424149 4.4710988 -63.97173207 3.90873924 -60.24536133 3.39111328 C-59.33386322 3.26369751 -58.42236511 3.13628174 -57.48324585 3.00500488 C-38.28474094 0.41957735 -19.33462482 -0.08306627 0 0 Z M-16.99536133 40.20361328 C-17.71701477 40.24779388 -18.43866821 40.29197449 -19.18218994 40.3374939 C-108.64921472 45.91764227 -195.90620228 79.67356345 -263.24536133 139.39111328 C-264.61997967 140.57905506 -265.9949187 141.76662599 -267.37036133 142.95361328 C-279.99253367 154.07506025 -292.36938743 165.52929277 -303.24536133 178.39111328 C-304.08969727 179.34630859 -304.9340332 180.30150391 -305.80395508 181.28564453 C-372.70515327 257.25954222 -409.50944179 359.93682871 -405.2265625 477.16235352 C-399.05794684 571.25272122 -360.71912954 658.9130697 -297.24536133 728.39111328 C-296.34931202 729.38050106 -295.45348856 730.37009341 -294.55786133 731.35986328 C-287.17747793 739.49360984 -279.68173926 747.42598626 -271.33520508 754.58251953 C-268.97564213 756.62453382 -266.67522718 758.72510856 -264.37036133 760.82861328 C-259.48156778 765.22852748 -254.4498022 769.37078906 -249.24536133 773.39111328 C-248.68107422 773.82794434 -248.11678711 774.26477539 -247.53540039 774.71484375 C-230.28916251 788.01243267 -212.14932432 799.59417843 -193.24536133 810.39111328 C-192.56940918 810.77750977 -191.89345703 811.16390625 -191.19702148 811.56201172 C-148.63024086 835.64361669 -100.40330381 850.07780817 -52.24536133 857.39111328 C-50.68760986 857.63885498 -50.68760986 857.63885498 -49.09838867 857.89160156 C-11.09580748 863.69613418 29.86531684 862.6669949 67.75463867 856.39111328 C68.40982483 856.28456421 69.06501099 856.17801514 69.74005127 856.0682373 C111.89232917 849.19090246 152.82639886 836.16610963 190.73852539 816.43603516 C192.91523848 815.30787676 195.10220926 814.20115386 197.28979492 813.09423828 C219.93432918 801.53176651 240.83875027 787.15132418 260.75463867 771.39111328 C261.6750293 770.66537109 262.59541992 769.93962891 263.54370117 769.19189453 C269.8200414 764.15454366 275.7421244 758.80034055 281.61791992 753.30908203 C284.37675728 750.73164768 287.18198832 748.21117708 290.00463867 745.70361328 C296.73275753 739.66248225 303.07462015 733.33349729 308.95776367 726.46533203 C310.92926297 724.1895361 312.96598262 721.98188661 315.00463867 719.76611328 C320.58775759 713.5616017 325.70229992 707.02749756 330.75463867 700.39111328 C331.30313477 699.67246094 331.85163086 698.95380859 332.41674805 698.21337891 C344.8897452 681.79412277 355.81823564 664.68400224 365.59301758 646.53369141 C366.69489744 644.50130433 367.82074699 642.48433463 368.95385742 640.46923828 C392.86183676 597.39300698 406.96935524 548.13771966 412.75463867 499.39111328 C412.8415094 498.6698526 412.92838013 497.94859192 413.0178833 497.20547485 C414.81099038 481.91534543 415.15428126 466.71315021 415.12963867 451.32861328 C415.12932144 449.49251495 415.12932144 449.49251495 415.1289978 447.61932373 C415.09352244 426.95854252 414.01721687 406.79420223 410.75463867 386.39111328 C410.47378418 384.6211499 410.47378418 384.6211499 410.18725586 382.81542969 C398.10776802 309.41011367 365.45258715 237.97959176 315.75463867 182.39111328 C314.9528418 181.49005859 314.15104492 180.58900391 313.32495117 179.66064453 C311.85262149 178.01764688 310.37499169 176.37937881 308.89135742 174.74658203 C307.44659734 173.15391232 306.01192248 171.55204472 304.58666992 169.94189453 C297.11915115 161.52276275 289.32939349 153.42454062 280.75854492 146.11767578 C278.50230482 144.17370283 276.32099974 142.15787811 274.12963867 140.14111328 C267.92512709 134.55799436 261.39102295 129.44345203 254.75463867 124.39111328 C254.03598633 123.84261719 253.31733398 123.29412109 252.5769043 122.72900391 C178.73418538 66.63389126 84.24432824 35.14546996 -16.99536133 40.20361328 Z " fill="#FEFEFE" transform="translate(445.245361328125,-0.39111328125)"/>
</svg>
