<?xml version="1.0" encoding="UTF-8"?>
<svg version="1.1" xmlns="http://www.w3.org/2000/svg" width="77" height="75">
<path d="M0 0 C10.39827808 6.14779711 16.23774382 14.57443076 19.80078125 26.03515625 C22.27191962 38.98991194 18.18929141 49.41252601 11.1875 60.0625 C12.2703125 61.11050781 12.2703125 61.11050781 13.375 62.1796875 C14.303125 63.08976562 15.23125 63.99984375 16.1875 64.9375 C17.115625 65.84242187 18.04375 66.74734375 19 67.6796875 C21.1875 70.0625 21.1875 70.0625 21.1875 72.0625 C18.39525927 72.14321788 15.60533434 72.20285408 12.8125 72.25 C12.0184375 72.27513672 11.224375 72.30027344 10.40625 72.32617188 C8.33163852 72.35254405 6.25649135 72.21736462 4.1875 72.0625 C3.5275 71.0725 2.8675 70.0825 2.1875 69.0625 C-0.48275631 69.5337217 -2.88199192 70.08962898 -5.4140625 71.078125 C-14.54341968 73.72249053 -27.11685512 73.66581865 -35.68359375 69.375 C-36.38613281 68.941875 -37.08867188 68.50875 -37.8125 68.0625 C-38.58722656 67.588125 -39.36195312 67.11375 -40.16015625 66.625 C-47.92553958 61.23201258 -53.4510476 53.2337221 -55.8125 44.0625 C-57.16477064 32.39173021 -56.74656468 21.92037536 -49.8125 12.0625 C-49.35617188 11.38058594 -48.89984375 10.69867188 -48.4296875 9.99609375 C-44.60475521 4.93625475 -39.39445728 1.9198252 -33.8125 -0.9375 C-32.7296875 -1.49824219 -32.7296875 -1.49824219 -31.625 -2.0703125 C-21.7394392 -5.11836041 -9.30600103 -4.36029549 0 0 Z M-40.8125 14.0625 C-38.81592433 34.4206797 -38.81592433 34.4206797 -27.75 50.875 C-22.73381172 54.61045936 -17.87952126 54.75561667 -11.8125 54.0625 C-9.5994585 53.18570674 -7.63431962 52.13987682 -5.57421875 50.953125 C-3.26049929 49.78343978 -1.36028041 49.74402745 1.1875 50.0625 C-5.87640133 41.58581841 -13.3701468 34.41096144 -22.15234375 27.74316406 C-26.71408155 24.25933689 -26.71408155 24.25933689 -27.8125 22.0625 C-19.15148305 26.75492417 -11.36653379 31.68259505 -3.8125 38.0625 C-1.13255431 40.43862633 -1.13255431 40.43862633 2.1875 41.0625 C2.6430699 32.61904591 2.6430699 32.61904591 -0.8125 25.0625 C-7.64053597 18.38964667 -14.67584393 16.62276721 -23.8125 15.375 C-24.67617188 15.24544922 -25.53984375 15.11589844 -26.4296875 14.98242188 C-31.27570511 14.28645126 -35.91836775 13.92285764 -40.8125 14.0625 Z " fill="#0B8A4D" transform="translate(55.8125,2.9375)"/>
</svg>
