<?xml version="1.0" encoding="UTF-8"?>
<svg version="1.1" xmlns="http://www.w3.org/2000/svg" width="77" height="75">
<path d="M0 0 C1.2375 -0.020625 2.475 -0.04125 3.75 -0.0625 C4.44609375 -0.07410156 5.1421875 -0.08570313 5.859375 -0.09765625 C8 -0 8 -0 9.91796875 0.49609375 C12.5102363 1.12349059 14.89760835 1.13225141 17.5625 1.125 C18.51253906 1.12757813 19.46257813 1.13015625 20.44140625 1.1328125 C23.1212438 1.10770994 23.1212438 1.10770994 26 0 C32.40557021 -0.39745962 37.96780392 -0.31020275 44 2 C45.83045495 2.30921713 47.66423979 2.59901994 49.5 2.875 C54.72336892 3.7645383 58.20406909 5.20406909 62 9 C62.68420992 16.73942368 62.71416393 22.66534222 58 29 C57.34 29 56.68 29 56 29 C56.495 30.19625 56.99 31.3925 57.5 32.625 C59.27385064 37.41439674 59.92750485 40.95948933 57.75 45.75 C55.8687082 48.16880375 54.90207573 49.08791905 52 50 C47.19161136 50.51153071 45.01228137 49.50767586 41 47 C37.17265145 45.85993873 35.51158841 45.80323523 31.75 47.25 C28.79437278 48.87059666 28.79437278 48.87059666 27 52 C26.55329363 56.02035732 26.61750984 58.29621811 28.5625 61.875 C32.09515104 64.95474706 35.44393887 65 40 65 C39.52048204 69.31566167 38.29764982 71.2019941 35 74 C30.71126301 76.1443685 25.08562255 75.31873849 20.375 75.375 C18.62896484 75.43107422 18.62896484 75.43107422 16.84765625 75.48828125 C8.34974417 75.57489644 3.55399762 74.10653256 -2.70947266 68.45849609 C-4 67 -4 67 -4 65 C-4.60457031 64.91492188 -5.20914062 64.82984375 -5.83203125 64.7421875 C-8.63633329 63.78215617 -9.21743201 62.65704139 -10.6875 60.125 C-11.10386719 59.42632812 -11.52023438 58.72765625 -11.94921875 58.0078125 C-16.2011885 49.88323089 -16.83644132 35.32785209 -14.31640625 26.64453125 C-11.68741142 21.00473737 -7.74995517 15.37497759 -2.125 12.5625 C-1.073125 12.2840625 -1.073125 12.2840625 0 12 C-0.37125 10.7625 -0.7425 9.525 -1.125 8.25 C-2.12148506 4.34710018 -2.12148506 4.34710018 -1.125 1.5 C-0.75375 1.005 -0.3825 0.51 0 0 Z " fill="#060606" transform="translate(15,0)"/>
<path d="M0 0 C1.2375 -0.020625 2.475 -0.04125 3.75 -0.0625 C4.44609375 -0.07410156 5.1421875 -0.08570313 5.859375 -0.09765625 C8 -0 8 -0 9.91796875 0.49609375 C12.5102363 1.12349059 14.89760835 1.13225141 17.5625 1.125 C18.51253906 1.12757813 19.46257813 1.13015625 20.44140625 1.1328125 C23.1212438 1.10770994 23.1212438 1.10770994 26 0 C32.40557021 -0.39745962 37.96780392 -0.31020275 44 2 C45.83045495 2.30921713 47.66423979 2.59901994 49.5 2.875 C54.72336892 3.7645383 58.20406909 5.20406909 62 9 C62.68420992 16.73942368 62.71416393 22.66534222 58 29 C57.34 29 56.68 29 56 29 C56.495 30.19625 56.99 31.3925 57.5 32.625 C59.27385064 37.41439674 59.92750485 40.95948933 57.75 45.75 C55.8687082 48.16880375 54.90207573 49.08791905 52 50 C47.19161136 50.51153071 45.01228137 49.50767586 41 47 C37.17265145 45.85993873 35.51158841 45.80323523 31.75 47.25 C28.79437278 48.87059666 28.79437278 48.87059666 27 52 C26.55329363 56.02035732 26.61750984 58.29621811 28.5625 61.875 C32.09515104 64.95474706 35.44393887 65 40 65 C39.52048204 69.31566167 38.29764982 71.2019941 35 74 C30.71126301 76.1443685 25.08562255 75.31873849 20.375 75.375 C18.62896484 75.43107422 18.62896484 75.43107422 16.84765625 75.48828125 C8.34974417 75.57489644 3.55399762 74.10653256 -2.70947266 68.45849609 C-4 67 -4 67 -4 65 C-4.60457031 64.91492188 -5.20914062 64.82984375 -5.83203125 64.7421875 C-8.63633329 63.78215617 -9.21743201 62.65704139 -10.6875 60.125 C-11.10386719 59.42632812 -11.52023438 58.72765625 -11.94921875 58.0078125 C-16.2011885 49.88323089 -16.83644132 35.32785209 -14.31640625 26.64453125 C-11.68741142 21.00473737 -7.74995517 15.37497759 -2.125 12.5625 C-1.073125 12.2840625 -1.073125 12.2840625 0 12 C-0.37125 10.7625 -0.7425 9.525 -1.125 8.25 C-2.12148506 4.34710018 -2.12148506 4.34710018 -1.125 1.5 C-0.75375 1.005 -0.3825 0.51 0 0 Z M2 3 C2.26393501 6.43230448 2.26393501 6.43230448 3 10 C3.99 10.66 4.98 11.32 6 12 C5.34773438 12.3403125 4.69546875 12.680625 4.0234375 13.03125 C-3.46051551 17.18164282 -8.64014335 22.0164874 -12 30 C-12.23920955 32.13287373 -12.23920955 32.13287373 -12.125 34.25 C-12.08375 35.4875 -12.0425 36.725 -12 38 C-11.34 36.68 -10.68 35.36 -10 34 C-10 37 -10 37 -11 40 C-11.73970621 47.50619913 -10.89692467 52.54571852 -7 59 C-6.34 58.01 -5.68 57.02 -5 56 C-4.54560547 57.01320313 -4.54560547 57.01320313 -4.08203125 58.046875 C-0.8043547 65.04224689 -0.8043547 65.04224689 5 70 C5.680625 70.433125 6.36125 70.86625 7.0625 71.3125 C9.42956098 72.15242486 10.66893752 71.83252231 13 71 C13 70.67 13 70.34 13 70 C13.69996094 70.32484375 14.39992188 70.6496875 15.12109375 70.984375 C18.28237191 72.0996156 20.72007687 72.26690227 24.0625 72.25 C25.59583984 72.25773437 25.59583984 72.25773437 27.16015625 72.265625 C29.9609578 72.00365182 31.61590904 71.44074562 34 70 C33.01 69.34 32.02 68.68 31 68 C25.14414414 63.43243243 25.14414414 63.43243243 24 60 C23.49843541 54.30917105 23.2741451 49.65731863 27 45 C26.11248047 44.85304688 26.11248047 44.85304688 25.20703125 44.703125 C20.17559302 43.75100945 16.68421854 42.79935037 13 39 C12.67 38.01 12.34 37.02 12 36 C12.598125 36.78375 13.19625 37.5675 13.8125 38.375 C15.91085249 41.14574323 15.91085249 41.14574323 19 43 C21.2423322 43.22680357 21.2423322 43.22680357 23.7109375 43.08984375 C24.62617187 43.06986328 25.54140625 43.04988281 26.484375 43.02929688 C28.40378212 42.96834273 30.32306312 42.90327156 32.2421875 42.83398438 C37.47363479 42.72744507 40.64611902 42.79231117 45 46 C49.65154163 46.49006852 49.65154163 46.49006852 53.9375 44.9375 C55.60000982 41.90586445 55.29734156 39.38969378 55 36 C54.11935073 33.64630193 54.11935073 33.64630193 53 32 C52.67 32.66 52.34 33.32 52 34 C51.34 34 50.68 34 50 34 C50 33.01 50 32.02 50 31 C49.34 31 48.68 31 48 31 C48 32.65 48 34.3 48 36 C46.51988629 35.69201674 45.04092675 35.378482 43.5625 35.0625 C42.73878906 34.88847656 41.91507813 34.71445312 41.06640625 34.53515625 C39 34 39 34 38 33 C37.7367754 29.05163095 37.91002627 26.39620731 40 23 C39.67 22.67 39.34 22.34 39 22 C41.97 22 44.94 22 48 22 C48.495 24.475 48.495 24.475 49 27 C50.32 26.01 51.64 25.02 53 24 C53.495 24.99 53.495 24.99 54 26 C54.66 26 55.32 26 56 26 C58.41685712 21.77050005 59.34833144 18.87664009 59 14 C58.01 13.67 57.02 13.34 56 13 C56.99 12.34 57.98 11.68 59 11 C53.57984686 6.41371657 47.29701478 5.60434134 40.48828125 4.46484375 C38 4 38 4 35 3 C29.85056722 2.5982661 29.85056722 2.5982661 25 4 C22.23960087 4.09900166 19.50994377 4.13891568 16.75 4.125 C15.99847656 4.12886719 15.24695313 4.13273438 14.47265625 4.13671875 C10.20467379 4.12927026 6.20312211 3.84330157 2 3 Z " fill="#EDEDED" transform="translate(15,0)"/>
<path d="M0 0 C0.66 0 1.32 0 2 0 C2 0.99 2 1.98 2 3 C2.66 3 3.32 3 4 3 C4.33 2.34 4.66 1.68 5 1 C5.33 2.32 5.66 3.64 6 5 C4 5 2 5 0 5 C0 3.35 0 1.7 0 0 Z " fill="#373737" transform="translate(63,31)"/>
</svg>
