<?xml version="1.0" encoding="UTF-8"?>
<svg version="1.1" xmlns="http://www.w3.org/2000/svg" width="900" height="1124">
<path d="M0 0 C1.24758339 0.41564713 1.24758339 0.41564713 2.52037048 0.83969116 C3.35857834 1.11912567 4.19678619 1.39856018 5.06039429 1.6864624 C37.6440914 12.43822189 71.70714021 19.75880471 105.69224548 24.15219116 C106.82774841 24.30144043 106.82774841 24.30144043 107.9861908 24.45370483 C149.41050756 29.50648834 188.9296539 22.27631961 228.63511658 11.0796814 C288.55102472 -5.7606811 341.04723366 -2.53744238 399.46128845 17.28378296 C423.08899366 25.27642562 447.30046417 33.28035088 472.50474548 33.14828491 C528.62280835 32.88401337 587.67863265 55.71296813 631.69224548 90.15219116 C632.61005798 90.85601929 633.52787048 91.55984741 634.47349548 92.28500366 C646.74518894 101.96076197 656.02727623 112.28570754 658.69224548 128.15219116 C658.96407665 132.05252995 658.97225235 135.93129709 658.94224548 139.83969116 C658.94997986 140.85869507 658.95771423 141.87769897 658.96568298 142.92758179 C658.9618158 144.40581421 658.9618158 144.40581421 658.95787048 145.91390991 C658.95561462 146.80038208 658.95335876 147.68685425 658.95103455 148.60018921 C658.69224548 151.15219116 658.69224548 151.15219116 657.62266541 153.70101929 C656.53783218 156.5589898 656.74272368 157.70420902 657.53990173 160.60922241 C661.84062403 179.36813441 658.98251184 199.90864856 653.69224548 218.15219116 C653.29875916 219.52093384 653.29875916 219.52093384 652.89732361 220.91732788 C648.20751781 236.8227424 642.04033098 250.97621167 632.1292572 264.29110718 C629.25747106 268.19716145 627.27391647 271.85204716 625.66490173 276.40219116 C617.17860061 300.39558871 602.93578988 319.70587159 579.57505798 330.89828491 C575.67407829 332.5950525 571.7658648 333.93010537 567.69224548 335.15219116 C568.47599548 336.12156616 569.25974548 337.09094116 570.06724548 338.08969116 C584.05784832 356.85433857 590.82218617 377.56957268 596.68833923 399.95297241 C597.66348668 403.06054346 598.85943434 405.53962338 600.50474548 408.33969116 C614.50231807 433.36461971 616.29636194 462.74113208 608.69224548 490.15219116 C604.42080063 504.18259544 597.3371324 517.13506423 587.69224548 528.15219116 C587.14052673 528.83539429 586.58880798 529.51859741 586.02037048 530.22250366 C570.29981422 549.31175056 544.98890904 561.65678265 520.69224548 565.15219116 C489.74468479 566.94370997 462.30691029 561.59041701 437.75474548 541.71469116 C411.4220194 520.44637339 377.36911844 510.90543378 343.69224548 513.15219116 C310.73956647 516.98679809 277.5902164 533.15001431 255.80943298 558.44125366 C244.67807282 572.69432369 237.2446906 588.70328883 232.69224548 606.15219116 C232.37126892 607.36133179 232.05029236 608.57047241 231.71958923 609.81625366 C227.44307152 629.34899968 227.66938633 652.81316666 232.69224548 672.15219116 C232.85321716 672.82105347 233.01418884 673.48991577 233.18003845 674.17904663 C237.21211743 690.79152188 244.49552407 706.42662452 254.69224548 720.15219116 C255.57589783 721.36842163 255.57589783 721.36842163 256.47740173 722.60922241 C275.98161049 748.2421422 302.57219108 764.16658152 334.30552673 769.79281616 C340.34786602 770.43290407 346.44579479 770.37604547 352.51597595 770.39242554 C354.65977596 770.40204546 356.80257912 770.43310271 358.94615173 770.46469116 C371.60424021 770.56025238 383.46544473 768.46361637 395.69224548 765.15219116 C390.74818824 793.29862229 375.32411252 816.96032681 352.17271423 833.8465271 C319.17631215 856.86392021 278.34011184 865.1187976 238.69224548 866.15219116 C237.86531189 866.17410522 237.0383783 866.19601929 236.18638611 866.21859741 C203.72696461 866.93199129 170.68838318 863.64520267 139.18687439 855.58847046 C138.37782654 855.38520142 137.56877869 855.18193237 136.73521423 854.97250366 C135.69917053 854.69817505 135.69917053 854.69817505 134.64219666 854.41830444 C132.3602643 854.1068851 130.85482311 854.38374514 128.69224548 855.15219116 C127.05480001 856.83325115 127.05480001 856.83325115 125.56724548 858.90219116 C120.71444356 864.72764519 114.21391452 868.14006856 106.69224548 869.15219116 C98.54888938 869.56264258 90.71791279 868.313699 82.69224548 867.02719116 C81.98739014 866.9151535 81.28253479 866.80311584 80.55632019 866.68768311 C47.82758405 861.44129243 16.33572122 852.11116734 -13.30775452 837.15219116 C-14.1159967 836.74533081 -14.92423889 836.33847046 -15.75697327 835.91928101 C-33.39767972 826.89577894 -49.54720385 815.33418294 -64.30775452 802.15219116 C-65.17400452 801.39551147 -66.04025452 800.63883179 -66.93275452 799.85922241 C-76.94344742 791.02165758 -86.07516971 781.6692105 -94.30775452 771.15219116 C-95.09794983 770.16734741 -95.88814514 769.18250366 -96.70228577 768.16781616 C-101.58753388 762.01970823 -106.07687303 755.6652035 -110.37025452 749.08969116 C-110.84769104 748.36314331 -111.32512756 747.63659546 -111.81703186 746.88803101 C-112.2586969 746.20047729 -112.70036194 745.51292358 -113.15541077 744.80453491 C-113.54736633 744.19601685 -113.9393219 743.58749878 -114.34315491 742.96054077 C-115.36667364 741.04173458 -115.86978954 739.27531194 -116.30775452 737.15219116 C-117.29775452 737.48219116 -118.28775452 737.81219116 -119.30775452 738.15219116 C-128.07608064 738.9888021 -136.28290725 737.65612953 -143.49525452 732.40219116 C-156.12145913 721.75787757 -166.80220048 709.61735995 -176.30775452 696.15219116 C-176.77632874 695.49057983 -177.24490295 694.82896851 -177.72767639 694.14730835 C-201.866737 659.58222795 -215.30817397 619.43328546 -222.30775452 578.15219116 C-222.47291565 577.21617065 -222.63807678 576.28015015 -222.8082428 575.31576538 C-225.5169565 559.29597875 -225.56783811 543.29086617 -225.55775452 527.08969116 C-225.55716034 526.03411011 -225.55656616 524.97852905 -225.55595398 523.89096069 C-225.54931629 520.79953827 -225.53293331 517.70838384 -225.51087952 514.61703491 C-225.50521469 513.63056976 -225.49954987 512.64410461 -225.49371338 511.62774658 C-225.44431774 507.07625408 -225.29962176 502.58249171 -224.85658264 498.05111694 C-224.74887543 496.8813607 -224.74887543 496.8813607 -224.63899231 495.68797302 C-224.4330651 493.62800697 -224.1841982 491.57245682 -223.93177795 489.51766968 C-224.34152667 485.84988657 -224.54366439 485.52076139 -227.20472717 483.3062439 C-228.2287262 482.59540649 -229.25272522 481.88456909 -230.30775452 481.15219116 C-235.41403237 475.24238735 -237.52109599 467.61090535 -239.30775452 460.15219116 C-239.48725647 459.40469604 -239.66675842 458.65720093 -239.85169983 457.88705444 C-242.08565517 446.91909305 -241.70338174 435.66849824 -241.68275452 424.52719116 C-241.68221069 423.43026947 -241.68166687 422.33334778 -241.68110657 421.20318604 C-241.64362499 404.79300057 -240.86056571 389.21934115 -237.30775452 373.15219116 C-236.88964494 371.06263561 -236.47302327 368.97278189 -236.05775452 366.88265991 C-230.84200654 341.69924567 -222.25651393 317.3963241 -211.30775452 294.15219116 C-210.96002991 293.41371948 -210.6123053 292.6752478 -210.25404358 291.91439819 C-208.04271739 287.2706132 -205.71141905 282.69899108 -203.30775452 278.15219116 C-202.76779846 277.1201355 -202.76779846 277.1201355 -202.2169342 276.06723022 C-187.30835019 247.74989395 -167.83893218 222.54100984 -146.05775452 199.21469116 C-145.08358582 198.16765015 -145.08358582 198.16765015 -144.08973694 197.09945679 C-140.27230586 193.05467648 -136.31216062 189.3015768 -132.0894928 185.68222046 C-129.96118404 183.85458125 -127.92041338 181.94170624 -125.87025452 180.02719116 C-118.72952059 173.58846487 -111.01111648 167.89223438 -103.30775452 162.15219116 C-102.70946838 161.70198608 -102.11118225 161.25178101 -101.49476624 160.78793335 C-87.87724077 150.57184003 -73.0950362 142.17927388 -58.24525452 133.90219116 C-57.39431213 133.42402954 -56.54336975 132.94586792 -55.66664124 132.45321655 C-54.87660706 132.01872192 -54.08657288 131.58422729 -53.27259827 131.13656616 C-52.57771301 130.75210327 -51.88282776 130.36764038 -51.16688538 129.9715271 C-49.30775452 129.15219116 -49.30775452 129.15219116 -46.30775452 129.15219116 C-47.08119202 128.11062866 -47.85462952 127.06906616 -48.65150452 125.99594116 C-68.05767483 99.45804229 -79.10961765 68.88771011 -74.81166077 35.65219116 C-72.49503247 21.06562565 -68.1888451 7.01572829 -56.3094635 -2.43960571 C-38.68454492 -14.83874346 -18.27147088 -6.0906761 0 0 Z " fill="#000000" transform="translate(241.30775451660156,7.847808837890625)"/>
<path d="M0 0 C1.24758339 0.41564713 1.24758339 0.41564713 2.52037048 0.83969116 C3.35857834 1.11912567 4.19678619 1.39856018 5.06039429 1.6864624 C37.6440914 12.43822189 71.70714021 19.75880471 105.69224548 24.15219116 C106.82774841 24.30144043 106.82774841 24.30144043 107.9861908 24.45370483 C149.41050756 29.50648834 188.9296539 22.27631961 228.63511658 11.0796814 C288.55102472 -5.7606811 341.04723366 -2.53744238 399.46128845 17.28378296 C423.08899366 25.27642562 447.30046417 33.28035088 472.50474548 33.14828491 C528.62280835 32.88401337 587.67863265 55.71296813 631.69224548 90.15219116 C632.61005798 90.85601929 633.52787048 91.55984741 634.47349548 92.28500366 C646.74518894 101.96076197 656.02727623 112.28570754 658.69224548 128.15219116 C658.96407665 132.05252995 658.97225235 135.93129709 658.94224548 139.83969116 C658.94997986 140.85869507 658.95771423 141.87769897 658.96568298 142.92758179 C658.9618158 144.40581421 658.9618158 144.40581421 658.95787048 145.91390991 C658.95561462 146.80038208 658.95335876 147.68685425 658.95103455 148.60018921 C658.69224548 151.15219116 658.69224548 151.15219116 657.62266541 153.70101929 C656.53783218 156.5589898 656.74272368 157.70420902 657.53990173 160.60922241 C661.84062403 179.36813441 658.98251184 199.90864856 653.69224548 218.15219116 C653.29875916 219.52093384 653.29875916 219.52093384 652.89732361 220.91732788 C648.20751781 236.8227424 642.04033098 250.97621167 632.1292572 264.29110718 C629.25747106 268.19716145 627.27391647 271.85204716 625.66490173 276.40219116 C617.17860061 300.39558871 602.93578988 319.70587159 579.57505798 330.89828491 C575.67407829 332.5950525 571.7658648 333.93010537 567.69224548 335.15219116 C568.47599548 336.12156616 569.25974548 337.09094116 570.06724548 338.08969116 C584.05784832 356.85433857 590.82218617 377.56957268 596.68833923 399.95297241 C597.66348668 403.06054346 598.85943434 405.53962338 600.50474548 408.33969116 C614.50231807 433.36461971 616.29636194 462.74113208 608.69224548 490.15219116 C604.42080063 504.18259544 597.3371324 517.13506423 587.69224548 528.15219116 C587.14052673 528.83539429 586.58880798 529.51859741 586.02037048 530.22250366 C570.29981422 549.31175056 544.98890904 561.65678265 520.69224548 565.15219116 C489.74468479 566.94370997 462.30691029 561.59041701 437.75474548 541.71469116 C411.4220194 520.44637339 377.36911844 510.90543378 343.69224548 513.15219116 C310.73956647 516.98679809 277.5902164 533.15001431 255.80943298 558.44125366 C244.67807282 572.69432369 237.2446906 588.70328883 232.69224548 606.15219116 C232.37126892 607.36133179 232.05029236 608.57047241 231.71958923 609.81625366 C227.44307152 629.34899968 227.66938633 652.81316666 232.69224548 672.15219116 C232.85321716 672.82105347 233.01418884 673.48991577 233.18003845 674.17904663 C237.21211743 690.79152188 244.49552407 706.42662452 254.69224548 720.15219116 C255.57589783 721.36842163 255.57589783 721.36842163 256.47740173 722.60922241 C275.98161049 748.2421422 302.57219108 764.16658152 334.30552673 769.79281616 C340.34786602 770.43290407 346.44579479 770.37604547 352.51597595 770.39242554 C354.65977596 770.40204546 356.80257912 770.43310271 358.94615173 770.46469116 C371.60424021 770.56025238 383.46544473 768.46361637 395.69224548 765.15219116 C390.74818824 793.29862229 375.32411252 816.96032681 352.17271423 833.8465271 C319.17631215 856.86392021 278.34011184 865.1187976 238.69224548 866.15219116 C237.86531189 866.17410522 237.0383783 866.19601929 236.18638611 866.21859741 C203.72696461 866.93199129 170.68838318 863.64520267 139.18687439 855.58847046 C138.37782654 855.38520142 137.56877869 855.18193237 136.73521423 854.97250366 C135.69917053 854.69817505 135.69917053 854.69817505 134.64219666 854.41830444 C132.3602643 854.1068851 130.85482311 854.38374514 128.69224548 855.15219116 C127.05480001 856.83325115 127.05480001 856.83325115 125.56724548 858.90219116 C120.71444356 864.72764519 114.21391452 868.14006856 106.69224548 869.15219116 C98.54888938 869.56264258 90.71791279 868.313699 82.69224548 867.02719116 C81.98739014 866.9151535 81.28253479 866.80311584 80.55632019 866.68768311 C47.82758405 861.44129243 16.33572122 852.11116734 -13.30775452 837.15219116 C-14.1159967 836.74533081 -14.92423889 836.33847046 -15.75697327 835.91928101 C-33.39767972 826.89577894 -49.54720385 815.33418294 -64.30775452 802.15219116 C-65.17400452 801.39551147 -66.04025452 800.63883179 -66.93275452 799.85922241 C-76.94344742 791.02165758 -86.07516971 781.6692105 -94.30775452 771.15219116 C-95.09794983 770.16734741 -95.88814514 769.18250366 -96.70228577 768.16781616 C-101.58753388 762.01970823 -106.07687303 755.6652035 -110.37025452 749.08969116 C-110.84769104 748.36314331 -111.32512756 747.63659546 -111.81703186 746.88803101 C-112.2586969 746.20047729 -112.70036194 745.51292358 -113.15541077 744.80453491 C-113.54736633 744.19601685 -113.9393219 743.58749878 -114.34315491 742.96054077 C-115.36667364 741.04173458 -115.86978954 739.27531194 -116.30775452 737.15219116 C-117.29775452 737.48219116 -118.28775452 737.81219116 -119.30775452 738.15219116 C-128.07608064 738.9888021 -136.28290725 737.65612953 -143.49525452 732.40219116 C-156.12145913 721.75787757 -166.80220048 709.61735995 -176.30775452 696.15219116 C-176.77632874 695.49057983 -177.24490295 694.82896851 -177.72767639 694.14730835 C-201.866737 659.58222795 -215.30817397 619.43328546 -222.30775452 578.15219116 C-222.47291565 577.21617065 -222.63807678 576.28015015 -222.8082428 575.31576538 C-225.5169565 559.29597875 -225.56783811 543.29086617 -225.55775452 527.08969116 C-225.55716034 526.03411011 -225.55656616 524.97852905 -225.55595398 523.89096069 C-225.54931629 520.79953827 -225.53293331 517.70838384 -225.51087952 514.61703491 C-225.50521469 513.63056976 -225.49954987 512.64410461 -225.49371338 511.62774658 C-225.44431774 507.07625408 -225.29962176 502.58249171 -224.85658264 498.05111694 C-224.74887543 496.8813607 -224.74887543 496.8813607 -224.63899231 495.68797302 C-224.4330651 493.62800697 -224.1841982 491.57245682 -223.93177795 489.51766968 C-224.34152667 485.84988657 -224.54366439 485.52076139 -227.20472717 483.3062439 C-228.2287262 482.59540649 -229.25272522 481.88456909 -230.30775452 481.15219116 C-235.41403237 475.24238735 -237.52109599 467.61090535 -239.30775452 460.15219116 C-239.48725647 459.40469604 -239.66675842 458.65720093 -239.85169983 457.88705444 C-242.08565517 446.91909305 -241.70338174 435.66849824 -241.68275452 424.52719116 C-241.68221069 423.43026947 -241.68166687 422.33334778 -241.68110657 421.20318604 C-241.64362499 404.79300057 -240.86056571 389.21934115 -237.30775452 373.15219116 C-236.88964494 371.06263561 -236.47302327 368.97278189 -236.05775452 366.88265991 C-230.84200654 341.69924567 -222.25651393 317.3963241 -211.30775452 294.15219116 C-210.96002991 293.41371948 -210.6123053 292.6752478 -210.25404358 291.91439819 C-208.04271739 287.2706132 -205.71141905 282.69899108 -203.30775452 278.15219116 C-202.76779846 277.1201355 -202.76779846 277.1201355 -202.2169342 276.06723022 C-187.30835019 247.74989395 -167.83893218 222.54100984 -146.05775452 199.21469116 C-145.08358582 198.16765015 -145.08358582 198.16765015 -144.08973694 197.09945679 C-140.27230586 193.05467648 -136.31216062 189.3015768 -132.0894928 185.68222046 C-129.96118404 183.85458125 -127.92041338 181.94170624 -125.87025452 180.02719116 C-118.72952059 173.58846487 -111.01111648 167.89223438 -103.30775452 162.15219116 C-102.70946838 161.70198608 -102.11118225 161.25178101 -101.49476624 160.78793335 C-87.87724077 150.57184003 -73.0950362 142.17927388 -58.24525452 133.90219116 C-57.39431213 133.42402954 -56.54336975 132.94586792 -55.66664124 132.45321655 C-54.87660706 132.01872192 -54.08657288 131.58422729 -53.27259827 131.13656616 C-52.57771301 130.75210327 -51.88282776 130.36764038 -51.16688538 129.9715271 C-49.30775452 129.15219116 -49.30775452 129.15219116 -46.30775452 129.15219116 C-47.08119202 128.11062866 -47.85462952 127.06906616 -48.65150452 125.99594116 C-68.05767483 99.45804229 -79.10961765 68.88771011 -74.81166077 35.65219116 C-72.49503247 21.06562565 -68.1888451 7.01572829 -56.3094635 -2.43960571 C-38.68454492 -14.83874346 -18.27147088 -6.0906761 0 0 Z M-38.30775452 22.15219116 C-46.8947108 32.5792095 -45.25197391 51.51320057 -44.30775452 64.15219116 C-41.71212727 82.43232866 -32.05910852 97.38580984 -20.30775452 111.15219116 C-19.73669983 111.83797241 -19.16564514 112.52375366 -18.57728577 113.23031616 C-5.9876544 127.08214707 14.79994992 136.24053543 33.27134705 137.30014038 C43.47131323 137.65719249 53.76140279 137.81308681 63.69224548 135.15219116 C55.8267922 144.17196012 41.01973425 146.39809197 29.66294861 147.31625366 C20.87952662 147.82642338 12.70428601 146.86045093 4.19224548 144.80844116 C-4.15596603 143.2431515 -9.35099177 144.51026579 -16.93275452 147.96469116 C-17.84299377 148.36921509 -18.75323303 148.77373901 -19.6910553 149.19052124 C-22.5749231 150.48724926 -25.44319693 151.81338536 -28.30775452 153.15219116 C-29.21460999 153.5746814 -30.12146545 153.99717163 -31.05580139 154.4324646 C-58.0778647 167.16307565 -82.9545124 183.33506886 -105.30775452 203.15219116 C-106.26423889 203.99781616 -107.22072327 204.84344116 -108.20619202 205.71469116 C-120.39669029 216.6959443 -132.30544746 228.11625545 -142.30775452 241.15219116 C-143.29777007 242.40288022 -144.28872634 243.65282496 -145.28041077 244.90219116 C-165.4572557 270.53965788 -182.53322493 299.36545611 -193.00306702 330.35140991 C-194.03997872 333.41774894 -195.18700614 336.41336076 -196.43275452 339.40219116 C-200.83036111 350.18082957 -203.48540885 361.48892313 -205.93275452 372.83969116 C-206.08527679 373.54650024 -206.23779907 374.25330933 -206.39494324 374.98153687 C-209.89703875 391.32633899 -211.46086475 406.75680096 -211.55775452 423.46469116 C-211.56338409 424.14555786 -211.56901367 424.82642456 -211.57481384 425.52792358 C-211.64286079 436.99305545 -210.87523025 448.19494426 -207.30775452 459.15219116 C-206.64775452 459.15219116 -205.98775452 459.15219116 -205.30775452 459.15219116 C-204.94166077 457.99848022 -204.57556702 456.84476929 -204.19837952 455.65609741 C-194.528373 426.16088857 -180.07228381 402.06672622 -159.30775452 379.15219116 C-160.16046936 380.89629272 -160.16046936 380.89629272 -161.03041077 382.67562866 C-166.34828199 393.65416072 -171.16820828 404.67788644 -175.30775452 416.15219116 C-175.65837952 417.11028687 -176.00900452 418.06838257 -176.37025452 419.05551147 C-185.5082282 444.27219406 -191.40064431 470.04170477 -194.05775452 496.73861694 C-194.2132056 498.23938785 -194.38697708 499.73852068 -194.58900452 501.23373413 C-200.26576286 544.06284841 -192.76557478 593.71202998 -175.30775452 633.15219116 C-174.96470276 633.94303101 -174.621651 634.73387085 -174.26820374 635.54867554 C-164.5262117 657.96475556 -152.95300693 678.14531987 -136.19837952 696.10531616 C-134.5776654 697.85997359 -133.09044846 699.64757612 -131.62025452 701.52719116 C-129.04019003 704.45591301 -126.62856612 706.14425856 -123.30775452 708.15219116 C-124.09117834 701.88480056 -125.61584973 695.96878369 -127.27259827 689.87094116 C-130.01268924 678.35838169 -130.6687508 666.75525728 -130.62025452 654.96469116 C-130.61976105 654.2997464 -130.61926758 653.63480164 -130.61875916 652.94970703 C-130.55710706 625.65089626 -130.55710706 625.65089626 -126.30775452 617.15219116 C-126.18771057 617.82983521 -126.06766663 618.50747925 -125.94398499 619.20565796 C-120.61632718 648.92877613 -112.53729076 677.90303739 -99.30775452 705.15219116 C-98.90717834 705.97928589 -98.50660217 706.80638062 -98.09388733 707.65853882 C-86.98300264 730.31744384 -72.65304742 749.88801748 -55.30775452 768.15219116 C-54.7969635 768.69166382 -54.28617249 769.23113647 -53.75990295 769.78695679 C-28.58258542 796.18978762 4.64095924 814.63807341 39.28941345 825.39535522 C41.43753294 826.07196266 43.56756343 826.78411686 45.69615173 827.51937866 C63.62350956 833.53878348 84.71097741 838.7849001 103.69224548 838.15219116 C101.49369139 835.95363707 99.52707264 834.98579853 96.75474548 833.58969116 C73.99257345 821.33084818 59.79958275 799.68023884 48.69224548 777.15219116 C49.68224548 777.99781616 50.67224548 778.84344116 51.69224548 779.71469116 C52.34064392 780.26640991 52.98904236 780.81812866 53.65708923 781.38656616 C54.9399449 782.49952347 56.20585084 783.63262379 57.44615173 784.79281616 C72.65973114 798.85634097 93.15816934 808.785152 112.69224548 815.15219116 C114.40685215 815.82389274 116.11574985 816.51043862 117.81724548 817.21469116 C127.49166739 821.1388838 137.30814019 823.95293802 147.50474548 826.15219116 C149.26516174 826.53455933 149.26516174 826.53455933 151.06114197 826.9246521 C201.91051025 837.81628531 267.23515726 844.35725808 314.69224548 818.15219116 C315.75443298 817.59660522 316.81662048 817.04101929 317.91099548 816.46859741 C324.99758037 812.59423976 331.06132828 807.95751731 336.69224548 802.15219116 C336.69224548 801.82219116 336.69224548 801.49219116 336.69224548 801.15219116 C335.84968201 801.02541992 335.84968201 801.02541992 334.99009705 800.89608765 C292.2436272 794.27602077 254.81639709 773.50093657 228.89146423 738.32015991 C221.7929296 728.09473969 216.00409769 717.38032719 210.69224548 706.15219116 C210.21787048 705.16863647 209.74349548 704.18508179 209.25474548 703.17172241 C200.30684788 683.34653677 197.05068575 660.30403878 197.12974548 638.71469116 C197.13022888 637.89269226 197.13071228 637.07069336 197.13121033 636.2237854 C197.29660121 595.47757648 214.6971087 558.3360811 242.69224548 529.15219116 C243.26845642 528.61207397 243.84466736 528.07195679 244.43833923 527.51547241 C245.91790053 526.21556054 245.91790053 526.21556054 245.69224548 524.15219116 C246.29037048 523.90469116 246.88849548 523.65719116 247.50474548 523.40219116 C249.98706635 521.98372209 251.05552584 520.45954379 252.69224548 518.15219116 C252.03224548 518.22437866 251.37224548 518.29656616 250.69224548 518.37094116 C201.90108783 522.94511219 154.24520421 509.21715385 115.98130798 478.17953491 C112.46738925 475.26149974 109.06061955 472.2363977 105.69224548 469.15219116 C104.27685486 467.86248413 104.27685486 467.86248413 102.83287048 466.54672241 C84.53873043 449.07211753 70.08175489 426.00541495 61.69224548 402.15219116 C61.30552673 401.09129272 60.91880798 400.03039429 60.52037048 398.93734741 C53.6941918 378.85911198 50.72965618 358.30776491 51.69224548 337.15219116 C51.79714294 337.98073608 51.79714294 337.98073608 51.90415955 338.82601929 C55.29041162 365.11030385 61.73621892 390.84185534 74.69224548 414.15219116 C75.2555658 415.2027771 75.81888611 416.25336304 76.39927673 417.33578491 C84.04301852 431.10168055 94.44862495 443.19686859 105.69224548 454.15219116 C106.2040033 454.70906616 106.71576111 455.26594116 107.24302673 455.83969116 C117.80718067 467.05986323 131.09604639 475.13133638 144.69224548 482.15219116 C145.35949646 482.49878784 146.02674744 482.84538452 146.71421814 483.20248413 C173.15487696 496.75053771 202.45011136 503.59095633 232.12974548 503.46469116 C232.81757111 503.46286835 233.50539673 503.46104553 234.21406555 503.45916748 C258.58670768 503.35143418 280.96972127 499.35174057 303.70249939 490.67977905 C336.96033785 478.18487449 376.53504052 478.44057811 409.69224548 491.15219116 C410.43635681 491.43578491 411.18046814 491.71937866 411.9471283 492.01156616 C428.87911064 498.57575152 443.52957785 506.84459711 457.69224548 518.15219116 C472.21941908 529.32354351 487.4413474 534.72212976 505.75474548 534.52719116 C507.39539978 534.54459351 507.39539978 534.54459351 509.06919861 534.56234741 C528.28080667 534.49377534 546.31586925 525.8193207 560.21177673 512.78500366 C574.65317097 497.45665765 581.88174541 479.00824703 582.00474548 457.96469116 C582.01038513 457.05010132 582.01602478 456.13551147 582.02183533 455.19320679 C581.87325191 441.22132874 577.94143235 423.40137802 567.69224548 413.15219116 C567.24263832 411.1593378 566.83413237 409.15719385 566.44224548 407.15219116 C562.36923427 387.9369325 555.74704525 371.45802082 544.69224548 355.15219116 C543.70224548 355.48219116 542.71224548 355.81219116 541.69224548 356.15219116 C541.58734802 357.03233887 541.58734802 357.03233887 541.48033142 357.93026733 C540.14346758 369.00023067 538.66303076 380.00988695 536.56724548 390.96469116 C536.39676697 391.85889771 536.22628845 392.75310425 536.05064392 393.67440796 C534.83112668 399.87442877 534.83112668 399.87442877 533.69224548 402.15219116 C533.21572086 406.36149202 533.19516386 408.43062106 535.62974548 411.96469116 C539.51067219 414.73678166 543.03351592 415.47215874 547.69224548 416.15219116 C544.84029326 417.57816727 542.36763373 417.28421636 539.19224548 417.27719116 C538.02693298 417.27976929 536.86162048 417.28234741 535.66099548 417.28500366 C532.69224548 417.15219116 532.69224548 417.15219116 530.69224548 416.15219116 C530.48051592 413.97137667 530.37662698 411.77995486 530.31724548 409.58969116 C529.42023495 390.43574195 522.5184132 369.68032278 508.33287048 356.26156616 C506.62539071 354.88378588 506.62539071 354.88378588 503.81724548 355.15219116 C501.75575538 355.97577477 501.75575538 355.97577477 500.69224548 357.15219116 C500.51392826 359.00840902 500.34202325 360.86542435 500.19908142 362.72470093 C498.64536653 382.13247373 493.2680418 400.89386309 486.69224548 419.15219116 C478.53368006 418.55674031 470.93097279 416.50963942 463.06724548 414.33969116 C461.80267517 413.99615601 460.53810486 413.65262085 459.23521423 413.29867554 C454.73068405 412.0749678 450.22628063 410.85073346 445.72633362 409.61026001 C437.91017533 407.45768393 430.13290234 405.4798934 422.12974548 404.15219116 C421.17849792 403.98904419 420.22725037 403.82589722 419.24717712 403.6578064 C412.34802269 402.50712029 405.43050353 401.58075165 398.49180603 400.70394897 C348.71850534 394.39851282 348.71850534 394.39851282 337.37974548 380.58969116 C333.49702709 374.67944359 331.41834797 369.26799556 330.69224548 362.15219116 C331.35224548 362.15219116 332.01224548 362.15219116 332.69224548 362.15219116 C332.96939392 362.88824585 333.24654236 363.62430054 333.53208923 364.38265991 C338.52432188 376.30014457 347.5352913 383.80358401 359.20396423 388.83578491 C367.6093381 392.0078017 376.90956793 395.36884671 386.00474548 395.21469116 C387.22162048 395.19406616 388.43849548 395.17344116 389.69224548 395.15219116 C389.69224548 394.49219116 389.69224548 393.83219116 389.69224548 393.15219116 C387.49008774 391.6085948 385.29547245 390.17771554 383.00474548 388.77719116 C372.06773385 382.01899654 364.31933473 374.88542836 360.69224548 362.15219116 C360.17403175 357.86442934 360.16760912 353.65372779 360.25474548 349.33969116 C360.26868347 348.18839722 360.28262146 347.03710327 360.29698181 345.85092163 C360.46977156 337.90934704 361.01212415 330.68462894 363.69224548 323.15219116 C364.03255798 322.1815271 364.37287048 321.21086304 364.72349548 320.21078491 C369.42986196 308.01557179 376.13223943 297.00273248 384.69224548 287.15219116 C385.36771423 286.34394897 386.04318298 285.53570679 386.73912048 284.70297241 C395.4978376 274.52176292 405.6803979 266.44877212 417.01890564 259.32406616 C418.60762636 258.31386297 420.15479193 257.23882846 421.69224548 256.15219116 C421.69224548 255.49219116 421.69224548 254.83219116 421.69224548 254.15219116 C415.15654156 253.92412572 409.66289017 254.58224496 403.37974548 256.33969116 C402.1364447 256.67915771 402.1364447 256.67915771 400.86802673 257.02548218 C394.23161189 258.89068172 387.90673763 261.14897225 381.69224548 264.15219116 C380.79634705 264.58015991 379.90044861 265.00812866 378.97740173 265.44906616 C363.55268393 273.32740122 348.3888468 286.04756783 339.69224548 301.15219116 C345.93085412 280.42997857 362.42381976 263.49727718 380.94615173 253.12094116 C398.62648004 243.63371577 418.45399808 240.92246049 438.25474548 240.90219116 C438.94064758 240.90118408 439.62654968 240.900177 440.33323669 240.8991394 C451.93618765 240.91058282 463.19716634 241.81977758 474.65562439 243.66830444 C478.13640617 244.22296834 481.62226277 244.73444489 485.11021423 245.24203491 C491.64046265 246.19320541 498.16726631 247.16556788 504.69224548 248.15219116 C506.00724478 252.13571187 505.83608828 256.17636363 505.82505798 260.32015991 C505.82601471 261.11440872 505.82697144 261.90865753 505.82795715 262.72697449 C505.82863681 264.40720702 505.82679745 266.08744221 505.82261658 267.76766968 C505.81730076 270.31322289 505.82255041 272.8585968 505.82896423 275.40414429 C505.82830272 277.04281655 505.82702006 278.68148869 505.82505798 280.32015991 C505.82708221 281.07048996 505.82910645 281.82082001 505.83119202 282.59388733 C505.81128724 287.18575345 505.48646851 291.65900934 504.91586304 296.21585083 C504.64535743 298.55820238 504.59234069 300.85818931 504.62974548 303.21469116 C504.66068298 305.16375366 504.66068298 305.16375366 504.69224548 307.15219116 C508.06174044 308.28585302 509.4728383 308.24094014 512.82115173 306.88656616 C528.83931109 297.62919989 540.23136778 285.66678269 549.19224548 269.33969116 C549.53094666 268.72964233 549.86964783 268.11959351 550.21861267 267.49105835 C552.53046244 263.08536744 552.94599967 260.37591182 553.69224548 255.15219116 C561.28224548 255.81219116 568.87224548 256.47219116 576.69224548 257.15219116 C572.07224548 257.48219116 567.45224548 257.81219116 562.69224548 258.15219116 C562.69224548 272.67219116 562.69224548 287.19219116 562.69224548 302.15219116 C565.52523326 303.44320967 565.52523326 303.44320967 567.63755798 302.43734741 C583.24270248 293.68392407 590.79180101 281.49463434 596.69224548 265.15219116 C597.03513611 264.22148804 597.37802673 263.29078491 597.73130798 262.33187866 C599.00154818 258.73484334 599.69224548 256.00235286 599.69224548 252.15219116 C600.77699158 251.87955444 600.77699158 251.87955444 601.88365173 251.60140991 C605.84497639 249.55738843 607.38240592 246.72346121 609.62974548 242.96469116 C610.28160828 241.89589722 610.28160828 241.89589722 610.94664001 240.80551147 C615.05929245 233.87201109 618.01236175 226.73388754 620.69224548 219.15219116 C621.24138611 217.73293335 621.24138611 217.73293335 621.80162048 216.28500366 C627.28894524 201.38480644 632.93448403 180.4989614 626.02818298 165.43734741 C622.17316617 158.8432397 616.78960883 153.9278244 610.51255798 149.67562866 C600.61781993 142.92501298 591.99665906 134.94141032 583.94224548 126.08969116 C583.34927673 125.4387146 582.75630798 124.78773804 582.14537048 124.11703491 C580.64462915 122.08780671 580.10968469 120.61837804 579.69224548 118.15219116 C586.29288571 120.714465 592.18484545 124.28246504 598.25474548 127.90219116 C612.62524621 137.57797743 612.62524621 137.57797743 628.69224548 142.15219116 C629.0202338 132.99754885 629.0202338 132.99754885 624.96568298 124.94906616 C612.59052094 111.76590385 596.60353097 102.40583187 580.69224548 94.15219116 C580.01983826 93.79818237 579.34743103 93.44417358 578.65464783 93.07943726 C568.67584235 87.84050292 558.43077526 83.3246414 547.98912048 79.08944702 C546.44182047 78.45806046 544.90015346 77.81271129 543.36412048 77.15438843 C519.0655533 66.94889192 492.58312471 64.19588118 466.52500916 63.55599976 C456.64517987 63.27894199 447.32939437 62.2858212 437.69224548 60.15219116 C436.90720642 59.98735229 436.12216736 59.82251343 435.31333923 59.65267944 C418.14246281 56.02167056 401.26189322 50.92654709 384.9092865 44.55258179 C375.16400671 40.76268941 365.22250909 37.96742328 355.12974548 35.27719116 C354.39063934 35.07787994 353.6515332 34.87856873 352.89002991 34.67321777 C339.14745652 30.98567341 326.44424453 29.9655387 312.26402283 29.96688843 C309.72559881 29.96471966 307.18762324 29.94656146 304.64927673 29.92758179 C288.79233627 29.87084424 273.50370649 31.41143359 258.00474548 34.83969116 C256.81050964 35.09879272 255.6162738 35.35789429 254.385849 35.62484741 C245.89642261 37.52230452 237.64111344 39.89276865 229.35899353 42.53671265 C217.66211403 46.21293298 205.69804645 48.71073123 193.69224548 51.15219116 C192.85934998 51.32234741 192.02645447 51.49250366 191.1683197 51.66781616 C186.36026279 52.63129636 181.54466887 53.44738961 176.69224548 54.15219116 C176.01999939 54.25515503 175.3477533 54.3581189 174.65513611 54.46420288 C147.1716174 58.50251935 118.06083795 57.09182695 90.69224548 53.15219116 C89.66824646 53.0178064 88.64424744 52.88342163 87.58921814 52.7449646 C69.20026422 50.29155741 51.29569306 45.75974251 33.31724548 41.27719116 C31.52873169 40.83263077 31.52873169 40.83263077 29.7040863 40.37908936 C9.79639143 35.40866896 -9.93125841 29.94535913 -29.24916077 22.99984741 C-32.45503076 22.11137514 -34.9991534 21.83231198 -38.30775452 22.15219116 Z " fill="#FCFCFC" transform="translate(241.30775451660156,7.847808837890625)"/>
<path d="M0 0 C68.64 0 137.28 0 208 0 C203.82885055 30.98568164 199.6391711 61.96116398 195.2276001 92.91210938 C194.56627789 97.55289189 193.90659944 102.19390192 193.24925041 106.83524895 C192.94952878 108.94668577 192.64738493 111.05776623 192.34510803 113.1688385 C192.07868752 115.04894875 192.07868752 115.04894875 191.80688477 116.96704102 C191.65034927 118.0648439 191.49381378 119.16264679 191.33253479 120.29371643 C190.93902108 123.04182812 190.93902108 123.04182812 191 126 C212.03056883 88.21942059 227.0971352 46.07293738 233.56591797 3.24804688 C234 1 234 1 235 0 C236.61924745 -0.10040129 238.24287991 -0.13076047 239.86523438 -0.13371277 C240.91905304 -0.13797775 241.9728717 -0.14224274 243.05862427 -0.14663696 C244.22521576 -0.14618378 245.39180725 -0.14573059 246.59375 -0.14526367 C247.81504608 -0.14862228 249.03634216 -0.1519809 250.29464722 -0.15544128 C253.65927741 -0.16334337 257.02384588 -0.16662099 260.38848114 -0.16725707 C262.49639653 -0.16796754 264.60430545 -0.17010209 266.71221924 -0.17275429 C274.08451751 -0.1820269 281.45679766 -0.186088 288.82910156 -0.18530273 C295.66628168 -0.18470586 302.50338188 -0.19517539 309.34054184 -0.2110464 C315.22868083 -0.22421959 321.11679409 -0.22948236 327.00494766 -0.22884732 C330.51268562 -0.22859459 334.02035307 -0.23131774 337.52807617 -0.24202538 C385.81828838 -0.37894385 385.81828838 -0.37894385 397.33984375 10.9296875 C402.67422106 17.5819698 403.28772255 24.81832946 403.265625 33.05078125 C403.26257355 34.35631958 403.26257355 34.35631958 403.25946045 35.68823242 C403.13638533 44.82722336 402.01831561 53.76698645 400.65625 62.79394531 C400.24635664 65.52426865 399.8640553 68.25751578 399.484375 70.9921875 C395.44775937 99.16989668 395.44775937 99.16989668 384.0625 108.375 C380.68725326 110.16594725 377.70385032 111.11107592 374 112 C375.01320313 112.52787109 375.01320313 112.52787109 376.046875 113.06640625 C381.98623364 116.35365244 385.36006321 118.68710768 388 125 C390.79303686 136.19506352 388.69185906 148.25293812 387.06640625 159.48046875 C386.8662649 160.91048315 386.66689371 162.34060553 386.46824646 163.77082825 C386.05453314 166.73552223 385.63471844 169.69925703 385.2097168 172.66235352 C384.66530751 176.45842699 384.13194929 180.25594824 383.60249424 184.05413342 C383.09423215 187.69677755 382.58050097 191.33864404 382.06640625 194.98046875 C381.969415 195.67100027 381.87242374 196.36153179 381.77249336 197.07298851 C381.49792869 199.02068743 381.21891819 200.96775807 380.93969727 202.91479492 C380.78203384 204.02062424 380.62437042 205.12645355 380.46192932 206.26579285 C380 209 380 209 379 212 C362.5 212 346 212 329 212 C331.06000343 195.51997258 333.21208235 179.07756805 335.67675781 162.65673828 C336.09099619 159.88705476 336.49188683 157.11570165 336.890625 154.34375 C337.0176178 153.51975708 337.1446106 152.69576416 337.27545166 151.84680176 C338.07097582 146.21187518 338.62726177 140.25452355 336 135 C327.585 134.505 327.585 134.505 319 134 C318.87689453 135.83602783 318.75378906 137.67205566 318.62695312 139.5637207 C318.0462027 147.08534062 317.04756064 154.51622728 315.96875 161.98046875 C315.7705272 163.3695351 315.57257516 164.75864012 315.37487793 166.14778137 C314.96402646 169.02803072 314.55026788 171.90784203 314.13427734 174.78735352 C313.60105431 178.47973546 313.07484612 182.17307796 312.55068207 185.86675549 C312.14492429 188.72120673 311.73578518 191.57516513 311.32557678 194.42897987 C311.13002101 195.79202432 310.93546451 197.15521252 310.7419281 198.51854515 C310.47263869 200.41153339 310.19835758 202.30380952 309.92382812 204.19604492 C309.6918573 205.80934944 309.6918573 205.80934944 309.4552002 207.45524597 C309 210 309 210 308 212 C291.83 212 275.66 212 259 212 C260.12496961 196.25042542 260.12496961 196.25042542 260.98669434 190.17111206 C261.0807649 189.49791432 261.17483546 188.82471657 261.27175665 188.13111889 C261.57968394 185.93554921 261.89428106 183.74099446 262.20898438 181.54638672 C262.43452685 179.94810804 262.65963713 178.34976831 262.88435364 176.75137329 C263.36504301 173.33866351 263.84867058 169.92638844 264.33467102 166.514431 C265.10458311 161.10872798 265.86739178 155.70203649 266.62927246 150.29519653 C268.1098707 139.79471919 269.59753622 129.29524924 271.08599091 118.79588318 C272.98121025 105.42488628 274.87321349 92.0534374 276.75882387 78.68108189 C277.51549083 73.3166437 278.2756184 67.95271116 279.03855133 62.58916068 C279.51379855 59.24341166 279.9862274 55.89726883 280.4579525 52.55102158 C280.6756371 51.01104962 280.89447665 49.47124037 281.1146183 47.93161774 C281.77767212 43.29189644 282.40726156 38.64936394 283 34 C283.22945564 32.23665503 283.22945564 32.23665503 283.46354675 30.43768692 C283.58301163 29.36110699 283.7024765 28.28452705 283.82556152 27.17532349 C283.93324608 26.24251116 284.04093063 25.30969883 284.15187836 24.34861946 C284.22278771 21.91226413 284.22278771 21.91226413 282.5109024 20.17654228 C282.01230461 19.78828333 281.51370682 19.40002438 281 19 C280.8548999 19.80816162 280.7097998 20.61632324 280.56030273 21.44897461 C271.03026191 73.96258094 253.13830262 123.90899151 218 165 C217.04102188 166.14399105 216.08272649 167.28855466 215.125 168.43359375 C206.72657595 178.42174844 198.00677921 187.63001419 187.7734375 195.78515625 C185.94464668 197.24561315 184.13648294 198.73233379 182.3515625 200.24609375 C177.31049138 204.51104688 172.13048591 208.42537207 166.625 212.0625 C166.04194092 212.45695312 165.45888184 212.85140625 164.8581543 213.2578125 C161.44228342 215.45531179 159.07502792 216.48076172 155 216 C124.68445466 166.57598593 120.25495574 101.42010345 128 45 C128.33 44.34 128.66 43.68 129 43 C108.87 43 88.74 43 68 43 C67.67 46.96 67.34 50.92 67 55 C66.71302773 57.38862216 66.40491019 59.77494276 66.0625 62.15625 C65.88976562 63.3628125 65.71703125 64.569375 65.5390625 65.8125 C65.27222656 67.6378125 65.27222656 67.6378125 65 69.5 C64.82210937 70.7478125 64.64421875 71.995625 64.4609375 73.28125 C63.13632015 82.45471939 63.13632015 82.45471939 62 87 C76.85 87 91.7 87 107 87 C106.195625 93.166875 105.39125 99.33375 104.5625 105.6875 C104.31056885 107.62584717 104.0586377 109.56419434 103.79907227 111.5612793 C103.59665125 113.10727671 103.39410434 114.65325764 103.19140625 116.19921875 C103.08856323 116.9941272 102.98572021 117.78903564 102.87976074 118.60803223 C102.72767151 119.76438171 102.72767151 119.76438171 102.57250977 120.9440918 C102.44260399 121.94003609 102.44260399 121.94003609 102.31007385 122.95610046 C101.95186124 125.31731408 101.46837058 127.6581471 101 130 C86.15 130 71.3 130 56 130 C55.34 135.94 54.68 141.88 54 148 C53.30081894 153.25666169 52.58537527 158.50844754 51.8359375 163.7578125 C51.63678207 165.16694929 51.43786353 166.57611958 51.23916626 167.98532104 C50.72531837 171.62519159 50.20833997 175.26461016 49.69061279 178.90393066 C49.06485392 183.30759829 48.44315341 187.71184063 47.82073975 192.11598206 C46.88353109 198.74442331 45.94130427 205.37213334 45 212 C28.5 212 12 212 -5 212 C-2.68851017 191.19659152 -2.68851017 191.19659152 -1.29154968 181.44165039 C-1.1893833 180.72579773 -1.08721691 180.00994507 -0.98195457 179.2723999 C-0.87624453 178.53201477 -0.77053448 177.79162964 -0.66162109 177.02880859 C-0.43448363 175.42342526 -0.20759847 173.81800621 0.01905823 172.21255493 C0.50157997 168.79791294 0.98565644 165.38349655 1.47096634 161.96924973 C2.23906909 156.56409932 3.00241619 151.15828352 3.76498413 145.75234985 C5.93199662 130.39512342 8.10502948 115.03875275 10.28320312 99.68310547 C11.49073233 91.16999133 12.69428741 82.65632467 13.8935827 74.14204657 C14.65009545 68.77296308 15.41151871 63.40460677 16.17665505 58.03674579 C16.65107441 54.70012863 17.12085914 51.36287105 17.58935356 48.02541733 C17.80671842 46.48365708 18.02596759 44.94216108 18.24728203 43.40096283 C20.90445413 31.04541121 20.90445413 31.04541121 18.37939453 19.45532227 C17.26733643 18.39655884 17.26733643 18.39655884 16.1328125 17.31640625 C15.32972656 16.53458984 14.52664062 15.75277344 13.69921875 14.94726562 C12.84972656 14.16029297 12.00023438 13.37332031 11.125 12.5625 C9.86236328 11.34143555 9.86236328 11.34143555 8.57421875 10.09570312 C4.62175624 6.0925341 4.62175624 6.0925341 0 3 C0 2.01 0 1.02 0 0 Z M332 41 C330.99815256 47.88609043 330.00180938 54.77296115 329.00927734 61.66040039 C328.67102522 64.00303147 328.3315164 66.34548145 327.99072266 68.68774414 C327.50091854 72.05568296 327.01564669 75.4242485 326.53125 78.79296875 C326.37813354 79.83897751 326.22501709 80.88498627 326.06726074 81.96269226 C325.92711548 82.94333145 325.78697021 83.92397064 325.64257812 84.93432617 C325.51822388 85.79370285 325.39386963 86.65307953 325.26574707 87.53849792 C324.99507397 90.04562768 324.95365416 92.48036741 325 95 C327.75105422 95.10812003 330.49785087 95.18734945 333.25 95.25 C334.41595703 95.30027344 334.41595703 95.30027344 335.60546875 95.3515625 C339.21158896 95.41320558 341.35208098 95.41024538 344.44921875 93.44921875 C346.46321392 90.26842538 347.04801731 87.22453095 347.5625 83.5625 C347.67762939 82.82821777 347.79275879 82.09393555 347.91137695 81.33740234 C348.15795506 79.742875 348.39649163 78.14708809 348.62792969 76.55029297 C349.01519051 73.89587919 349.43185484 71.24712007 349.8515625 68.59765625 C351.22490262 59.72388783 352.56969313 51.00959141 352 42 C349.703463 40.8517315 348.41686833 40.88438825 345.8671875 40.90234375 C345.06152344 40.90556641 344.25585938 40.90878906 343.42578125 40.91210938 C342.58402344 40.92048828 341.74226563 40.92886719 340.875 40.9375 C339.60076172 40.94426758 339.60076172 40.94426758 338.30078125 40.95117188 C336.20049091 40.96297126 334.1002367 40.98090694 332 41 Z " fill="#FFFFFF" transform="translate(106,908)"/>
<path d="M0 0 C33.33 0 66.66 0 101 0 C101.59190915 27.22782067 102.15769734 54.3829425 102.10573006 81.6061058 C102.09666699 86.99498313 102.09476154 92.38385164 102.09336853 97.7727356 C102.0903196 106.26395911 102.08219787 114.755169 102.07201904 123.24638665 C102.06065173 132.94980616 102.05529677 142.6532265 102.05032361 152.35665107 C102.04000589 172.23777656 102.02174591 192.11888349 102 212 C85.83 212 69.66 212 53 212 C51.79938895 208.39816685 51.97814574 205.22311412 52.12109375 201.48828125 C52.15651024 200.39594429 52.15651024 200.39594429 52.19264221 199.28153992 C52.2691435 196.9583216 52.3532256 194.63544807 52.4375 192.3125 C52.49073427 190.73634493 52.54347458 189.16017309 52.59570312 187.58398438 C52.7238134 183.7223747 52.8621713 179.861324 53 176 C43.43 176 33.86 176 24 176 C23.443125 178.43375 22.88625 180.8675 22.3125 183.375 C20.78025412 189.95456769 19.11000254 196.48792014 17.3125 203 C17.09827393 203.78294434 16.88404785 204.56588867 16.66333008 205.37255859 C15.12394681 210.87605319 15.12394681 210.87605319 14 212 C12.4651703 212.09319449 10.92607918 212.117458 9.38842773 212.11352539 C8.40748642 212.11344986 7.4265451 212.11337433 6.4158783 212.11329651 C5.3492244 212.10813522 4.2825705 212.10297394 3.18359375 212.09765625 C1.55430687 212.09553383 1.55430687 212.09553383 -0.1078949 212.09336853 C-3.59279075 212.08775048 -7.07762342 212.07519492 -10.5625 212.0625 C-12.91861887 212.05748733 -15.27473874 212.05292402 -17.63085938 212.04882812 C-23.42059464 212.03777519 -29.21029281 212.02101951 -35 212 C-33.75888265 205.36375336 -32.23915541 198.87958016 -30.39453125 192.38671875 C-30.1264415 191.43186584 -29.85835175 190.47701294 -29.58213806 189.4932251 C-28.66274757 186.22356072 -27.73762296 182.95554669 -26.8125 179.6875 C-26.14009714 177.30091963 -25.46790569 174.91427969 -24.79589844 172.52758789 C-19.97136993 155.41047655 -15.0971776 138.30744134 -10.22521019 121.20378685 C-9.18147039 117.53942029 -8.13798454 113.87498149 -7.09455872 110.21052551 C-6.39207418 107.7436176 -5.68957474 105.27671393 -4.98706055 102.80981445 C-4.63758897 101.58263356 -4.28811739 100.35545267 -3.92805576 99.09108448 C-1.82047905 91.69167878 0.29006705 84.29312741 2.40281582 76.89519691 C3.74743785 72.18520267 5.0899767 67.47461619 6.43209648 62.76390839 C7.06157626 60.55631944 7.69196564 58.34898961 8.32335091 56.14194489 C9.99688179 50.29135374 11.65339137 44.43664149 13.27968979 38.57273674 C13.97179438 36.1007422 14.68717261 33.63639371 15.40457153 31.17164612 C15.80539744 29.73199083 16.20497573 28.29198732 16.60302734 26.8515625 C16.94989594 25.63605713 17.29676453 24.42055176 17.65414429 23.16821289 C18.07579657 19.30566521 17.33182348 17.97864616 14.9609375 14.97265625 C12.77737519 12.9209392 12.77737519 12.9209392 10.375 11.0625 C9.61058594 10.37994141 8.84617187 9.69738281 8.05859375 8.99414062 C4.28073332 5.63316576 4.28073332 5.63316576 0 3 C0 2.01 0 1.02 0 0 Z M56 45 C53.4432489 54.70168726 50.88731931 64.40359056 48.33240795 74.10576248 C47.14574782 78.61195385 45.95881601 83.11807328 44.77124023 87.62402344 C43.62292401 91.98105548 42.47535156 96.33828282 41.32827187 100.69564056 C40.89281434 102.34927953 40.45709906 104.00285064 40.02110863 105.65634918 C37.62167664 114.75695213 35.25865968 123.86313058 33 133 C40.59 133 48.18 133 56 133 C56.13249612 125.06996646 56.26323189 117.13990923 56.39115143 109.20980072 C56.45066112 105.52461496 56.51084228 101.83944313 56.57275391 98.15429688 C56.86990579 80.43512404 57.08412756 62.7224419 57 45 C56.67 45 56.34 45 56 45 Z " fill="#FFFFFF" transform="translate(596,908)"/>
<path d="M0 0 C24.42 0 48.84 0 74 0 C72.17436749 14.60506006 70.32744995 29.1927185 68.28857422 43.76708984 C68.0334655 45.59985516 67.7784957 47.43263983 67.52365112 49.26544189 C66.84361702 54.15266011 66.16142799 59.03957494 65.47859335 63.92640257 C65.05120159 66.9858914 64.62430445 70.04544884 64.19757462 73.10503006 C62.70686951 83.79308376 61.21440186 94.48088956 59.72021484 105.16845703 C58.32922691 115.11820947 56.94219985 125.06850883 55.55694187 135.01906049 C54.362784 143.59565216 53.16592458 152.17186396 51.96693432 160.7477814 C51.2526872 165.85684828 50.53954303 170.96606321 49.82912827 176.07566452 C49.16408382 180.85826737 48.49569378 185.64039051 47.82466507 190.42215729 C47.57873586 192.17885214 47.3340233 193.9357178 47.09059143 195.69276047 C46.75935228 198.08221243 46.42380955 200.4710205 46.08712769 202.85971069 C45.99092223 203.56123052 45.89471678 204.26275035 45.795596 204.98552835 C45.11413778 209.77172443 45.11413778 209.77172443 44 212 C27.83 212 11.66 212 -5 212 C-3.87508637 197.37612281 -3.87508637 197.37612281 -2.96188354 190.94055176 C-2.8623183 190.23060106 -2.76275305 189.52065036 -2.66017067 188.789186 C-2.33309925 186.4637164 -2.00031208 184.13910466 -1.66748047 181.81445312 C-1.4288864 180.12614125 -1.19067724 178.43777495 -0.95281982 176.74935913 C-0.44377156 173.14079938 0.0676836 169.53259225 0.58099747 165.92463684 C1.39252574 160.2185137 2.19686352 154.51139095 2.99996948 148.80407715 C5.28338206 132.58461633 7.57615986 116.3664875 9.87646484 100.14941406 C11.14976091 91.17226654 12.41708389 82.19429587 13.67796791 73.2153964 C14.47509506 67.54156914 15.27968552 61.86886637 16.08982491 56.1968832 C16.5911016 52.67491593 17.0854218 49.15199866 17.57776642 45.62877274 C17.8074589 43.99531317 18.04002046 42.36225411 18.27565384 40.72964096 C18.59675716 38.50195688 18.90756041 36.27306703 19.21585083 34.0435791 C19.39245806 32.79668556 19.56906528 31.54979202 19.75102425 30.26511383 C20.08456501 25.8909989 19.95375357 23.16245375 17.14233398 19.73583984 C15.95619507 18.60976318 15.95619507 18.60976318 14.74609375 17.4609375 C13.89208984 16.63335938 13.03808594 15.80578125 12.15820312 14.953125 C11.26037109 14.10234375 10.36253906 13.2515625 9.4375 12.375 C7.65873128 10.68141892 5.88623942 8.9812126 4.12109375 7.2734375 C3.3314624 6.52497559 2.54183105 5.77651367 1.72827148 5.00537109 C0 3 0 3 0 0 Z " fill="#FFFFFF" transform="translate(506,908)"/>
<path d="M0 0 C1.81356123 1.30102405 3.62527068 2.60449219 5.43408203 3.91210938 C4.90259415 8.26064659 4.2011826 12.1965103 2.62158203 16.28710938 C2.30576172 17.14046875 1.98994141 17.99382812 1.66455078 18.87304688 C0.43408203 20.91210938 0.43408203 20.91210938 -1.22607422 21.84570312 C-4.78044245 21.94657835 -7.87609422 20.74526441 -11.19091797 19.59960938 C-12.6403487 19.12620659 -14.09087178 18.65613488 -15.54248047 18.18945312 C-16.24018555 17.96499512 -16.93789063 17.74053711 -17.65673828 17.50927734 C-26.76617778 14.6599565 -36.10024216 14.35838193 -45.56591797 13.91210938 C-48.15093679 8.29921991 -48.14475578 2.99817551 -47.56591797 -3.08789062 C-46.00341797 -6.52539063 -46.00341797 -6.52539063 -44.56591797 -9.08789062 C-44.89591797 -10.73789063 -45.22591797 -12.38789062 -45.56591797 -14.08789062 C-50.18591797 -14.08789062 -54.80591797 -14.08789062 -59.56591797 -14.08789062 C-42.94194488 -30.71186372 -14.23469497 -10.1440584 0 0 Z " fill="#F8F8F8" transform="translate(594.56591796875,89.087890625)"/>
<path d="M0 0 C0.71542969 0.13277344 1.43085937 0.26554687 2.16796875 0.40234375 C9.76659924 1.74906093 17.29958171 2.52803888 25 3 C21.25725569 6.21719767 17.35321023 8.53817763 12.9375 10.6875 C12.02000977 11.14866211 12.02000977 11.14866211 11.08398438 11.61914062 C6.15793553 14.05287503 2.40255734 15.14628539 -3.0625 15.1875 C-4.34833984 15.20876953 -4.34833984 15.20876953 -5.66015625 15.23046875 C-8 15 -8 15 -11 13 C-10.45730469 12.48050781 -9.91460938 11.96101563 -9.35546875 11.42578125 C-8.64003906 10.72839844 -7.92460938 10.03101562 -7.1875 9.3125 C-6.47980469 8.62800781 -5.77210938 7.94351563 -5.04296875 7.23828125 C-2.96857798 4.96557396 -1.48999612 2.68387314 0 0 Z " fill="#F4F4F4" transform="translate(611,99)"/>
<path d="M0 0 C0.33 0.66 0.66 1.32 1 2 C-2.08571429 8.4 -2.08571429 8.4 -5 10.3125 C-5.99 10.6528125 -5.99 10.6528125 -7 11 C-8.33821694 11.65680868 -9.67224489 12.32229166 -11 13 C-10.62488281 12.56429688 -10.24976562 12.12859375 -9.86328125 11.6796875 C-6.54140223 7.81392401 -3.25357073 3.92342352 0 0 Z " fill="#CDCDCD" transform="translate(82,386)"/>
</svg>
