<?xml version="1.0" encoding="UTF-8"?>
<svg version="1.1" xmlns="http://www.w3.org/2000/svg" width="305" height="351">
<path d="M0 0 C0.24532471 0.51272461 0.49064941 1.02544922 0.7434082 1.55371094 C10.69238213 22.07710752 10.69238213 22.07710752 28.7421875 35.22265625 C35.95328256 37.70536891 40.16067385 36.76219788 47.0078125 33.62890625 C60.07782651 26.51376808 66.46648321 13.27511961 72 0 C79.61721408 -0.44157763 84.48050006 3.04286181 90.17578125 7.828125 C104.14878875 21.17709528 112.55400561 39.8609582 113.27734375 59.16796875 C113.46796419 71.69479073 113.46796419 71.69479073 112 77 C113.1446875 77.37125 113.1446875 77.37125 114.3125 77.75 C116.3338447 78.43520159 118.35055152 79.13843249 120.33569336 79.92236328 C127.24361143 82.61009443 133.92809368 84.07471958 141.25 85.125 C142.33595459 85.28967773 143.42190918 85.45435547 144.54077148 85.62402344 C152.68007783 86.84652316 160.83143026 87.99055073 169 89 C164.7889963 101.30056344 151.6611849 112.92203492 141 120 C140.34 120 139.68 120 139 120 C143.85180651 143.45900062 151.54081339 162.01141199 171.4375 176.625 C172.14970703 177.15867188 172.86191406 177.69234375 173.59570312 178.2421875 C175.0139295 179.30360306 176.43493912 180.36131126 177.85888672 181.41503906 C181.2517823 183.92663292 184.62477245 186.46474062 188 189 C187.48227888 194.16705978 184.88872068 197.8948194 182.1875 202.1875 C181.45370117 203.36747559 181.45370117 203.36747559 180.70507812 204.57128906 C172.55459931 217.5944493 164.15842763 230.30078877 154.44921875 242.21972656 C152.9054089 244.11619917 151.37409736 246.02233851 149.84375 247.9296875 C144.00112284 255.18974125 138.05864304 262.35218724 131.95727539 269.39648438 C129.83023884 271.85284217 127.76040475 274.31312183 125.78515625 276.89453125 C125.19605469 277.58933594 124.60695312 278.28414063 124 279 C123.34 279 122.68 279 122 279 C121.34 280.32 120.68 281.64 120 283 C119.34 283 118.68 283 118 283 C117.74605469 283.59167969 117.49210938 284.18335938 117.23046875 284.79296875 C115.86446788 287.2430973 114.47063789 288.5359582 112.3125 290.3125 C108.80251704 293.26625615 105.59503358 296.38199935 102.4453125 299.71484375 C101 301 101 301 99 301 C98.67 301.99 98.34 302.98 98 304 C96.44996996 305.39589947 94.83365761 306.71887019 93.1875 308 C88.97574453 311.35199144 84.98156956 314.81294245 81.0625 318.5 C75.88756656 323.32200248 70.43491112 327.59462096 64.70703125 331.75195312 C61.363018 334.19683238 58.06057314 336.69764426 54.75 339.1875 C52.81826888 340.63677768 50.88633618 342.08545441 48.94726562 343.52490234 C47.58335987 344.55809173 46.23966743 345.6182592 44.91210938 346.69775391 C44.22439453 347.24737793 43.53667969 347.79700195 42.828125 348.36328125 C42.21356445 348.86770752 41.59900391 349.37213379 40.96582031 349.8918457 C38.41132851 351.33184052 36.89588824 351.38370799 34 351 C31.89453125 349.87353516 31.89453125 349.87353516 29.8125 348.2890625 C29.03777344 347.70858154 28.26304687 347.12810059 27.46484375 346.5300293 C26.65144531 345.90136963 25.83804688 345.27270996 25 344.625 C24.15566406 343.98667236 23.31132812 343.34834473 22.44140625 342.69067383 C19.95237071 340.80471796 17.47562921 338.90349979 15 337 C13.75081485 336.05231038 12.50090834 335.10557018 11.25 334.16015625 C1.18058366 326.52179735 -8.53056077 318.57273547 -17.78515625 309.96875 C-19.83679121 307.97328212 -19.83679121 307.97328212 -22 307 C-22 306.34 -22 305.68 -22 305 C-22.57234375 304.7421875 -23.1446875 304.484375 -23.734375 304.21875 C-26.21128995 302.88634058 -28.1341166 301.34943882 -30.25 299.5 C-30.95640625 298.8915625 -31.6628125 298.283125 -32.390625 297.65625 C-34 296 -34 296 -34 294 C-34.58426758 293.74025391 -35.16853516 293.48050781 -35.77050781 293.21289062 C-38.15561164 291.915344 -39.75190637 290.50658878 -41.671875 288.59375 C-42.33574219 287.93246094 -42.99960938 287.27117187 -43.68359375 286.58984375 C-44.70646484 285.55537109 -44.70646484 285.55537109 -45.75 284.5 C-46.44738281 283.81035156 -47.14476563 283.12070312 -47.86328125 282.41015625 C-48.52199219 281.74886719 -49.18070312 281.08757812 -49.859375 280.40625 C-50.76381348 279.49842773 -50.76381348 279.49842773 -51.68652344 278.57226562 C-53 277 -53 277 -53 275 C-53.66 275 -54.32 275 -55 275 C-56.35382149 273.51261765 -57.63139886 271.95569449 -58.875 270.375 C-62.47225701 265.87121112 -66.15709354 261.47564551 -69.9375 257.125 C-75.10178039 251.14037126 -80.00932874 245.00656576 -84.74365234 238.67724609 C-85.59417912 237.54177797 -86.44880038 236.40936729 -87.30712891 235.27978516 C-94.69023615 225.56233294 -101.31710491 215.46691747 -107.7109375 205.07470703 C-108.82422855 203.28289883 -109.97154838 201.51231654 -111.125 199.74609375 C-111.9603125 198.44865234 -111.9603125 198.44865234 -112.8125 197.125 C-113.50279297 196.07699219 -113.50279297 196.07699219 -114.20703125 195.0078125 C-115.33336619 192.15591023 -115.13089915 190.85354785 -114 188 C-112.04336488 186.19092409 -110.22036952 184.70988044 -108.0625 183.1875 C-106.87187399 182.3093008 -105.68177512 181.43038652 -104.4921875 180.55078125 C-103.90018555 180.11975098 -103.30818359 179.6887207 -102.69824219 179.24462891 C-98.68453904 176.30301611 -94.81075887 173.19866806 -91 170 C-90.32582031 169.43539062 -89.65164062 168.87078125 -88.95703125 168.2890625 C-77.53074829 157.84347847 -71.15684643 143.91656091 -68 129 C-67.80680176 128.31808594 -67.61360352 127.63617188 -67.41455078 126.93359375 C-66.79140144 124.59751 -66.79140144 124.59751 -67 121 C-68.92634126 118.43103036 -71.36416872 116.79535498 -74 115 C-75.39974705 113.96752454 -76.7956371 112.92979834 -78.1875 111.88671875 C-78.85523438 111.39220215 -79.52296875 110.89768555 -80.2109375 110.38818359 C-83.6859597 107.69181675 -86.33447908 104.46587316 -89 101 C-89.64839844 100.21367188 -90.29679687 99.42734375 -90.96484375 98.6171875 C-96 92.4154703 -96 92.4154703 -96 89 C-94.54932129 88.79636841 -94.54932129 88.79636841 -93.06933594 88.58862305 C-89.42289767 88.07502932 -85.77771027 87.55296961 -82.1328125 87.02856445 C-80.56607562 86.80430918 -78.99902401 86.58223999 -77.43164062 86.36254883 C-59.58963985 83.90282859 -59.58963985 83.90282859 -42.7421875 77.76953125 C-41 77 -41 77 -39 77 C-39.33 76.34 -39.66 75.68 -40 75 C-41.86427884 51.91122801 -37.37975244 32.20738746 -23.1796875 13.4765625 C-19.5785583 9.38495693 -15.47292958 6.0938371 -11 3 C-9.79923828 2.14921875 -9.79923828 2.14921875 -8.57421875 1.28125 C-5.52069192 -0.23856305 -3.36755874 -0.23494596 0 0 Z " fill="#050505" transform="translate(115,0)"/>
<path d="M0 0 C3.66172475 0.62678171 6.8818995 1.64451846 10.3125 3.0625 C11.19550781 3.42472656 12.07851562 3.78695312 12.98828125 4.16015625 C13.65214844 4.43730469 14.31601563 4.71445313 15 5 C15.01213028 5.82660378 15.01213028 5.82660378 15.02450562 6.66990662 C15.11172451 12.49571732 15.21125117 18.32123239 15.31738281 24.14672852 C15.35526048 26.31008877 15.39017838 28.47350324 15.421875 30.63696289 C15.66669914 47.15111601 16.25869564 63.42977794 20.125 79.5625 C20.33455322 80.43817627 20.54410645 81.31385254 20.76000977 82.21606445 C22.97350905 90.8309127 26.5982965 98.3122723 31 106 C31.51691406 106.93070312 32.03382812 107.86140625 32.56640625 108.8203125 C38.6089893 119.32485742 46.23516215 128.73594027 54 138 C54.57363281 138.71027344 55.14726563 139.42054688 55.73828125 140.15234375 C62.3994289 148.18069593 70.7106182 154.31927189 79.3125 160.125 C79.88685791 160.52775146 80.46121582 160.93050293 81.05297852 161.34545898 C83.82815319 163.15657907 85.66575687 164.00173859 89.00390625 163.984375 C92.55363808 162.81810066 95.53183081 161.17546408 98.625 159.125 C99.22965088 158.73006348 99.83430176 158.33512695 100.45727539 157.92822266 C106.91090976 153.58529046 112.45165426 148.42357035 118 143 C118.64324219 142.40703125 119.28648437 141.8140625 119.94921875 141.203125 C147.95748311 114.82704388 159.97063903 79.25143574 161.17529297 41.80712891 C161.54150855 29.5401394 161.78790445 17.27050357 162 5 C163.10988281 4.52949219 164.21976563 4.05898437 165.36328125 3.57421875 C168.80024784 2.15031015 168.80024784 2.15031015 171.1875 0.8125 C173 0 173 0 177 0 C177.09796875 0.8971875 177.1959375 1.794375 177.296875 2.71875 C179.64987315 22.35411391 184.35697799 40.95299809 198 56 C198.54527344 56.62519531 199.09054687 57.25039062 199.65234375 57.89453125 C206.20445168 64.93410454 214.25693782 70.36184793 222 76 C221.08627719 80.44787646 218.70382904 83.65722149 216.125 87.3125 C215.63394775 88.01673096 215.14289551 88.72096191 214.63696289 89.4465332 C209.54305367 96.71832613 204.31583292 103.88926163 199 111 C198.58927246 111.55252441 198.17854492 112.10504883 197.75537109 112.67431641 C186.04205649 128.38798976 172.93261153 143.2188299 159 157 C155.20506634 155.73502211 154.51015176 154.25461853 152.25 151 C148.63755259 145.88236617 144.88299735 140.91441852 141 136 C141.22816406 136.89203125 141.45632812 137.7840625 141.69140625 138.703125 C141.97886719 139.87359375 142.26632813 141.0440625 142.5625 142.25 C142.85253906 143.41015625 143.14257812 144.5703125 143.44140625 145.765625 C144.24155405 150.39864865 144.24155405 150.39864865 143 153 C140.80078125 155.3828125 140.80078125 155.3828125 138 158 C137.05159672 158.95137013 136.10767578 159.90722677 135.16796875 160.8671875 C129.62494999 166.47011584 124.05359646 171.94188385 118 177 C117.39929688 177.5053125 116.79859375 178.010625 116.1796875 178.53125 C114.7914534 179.69349251 113.39659078 180.84781261 112 182 C113.22053859 185.66161578 114.36782304 186.16270474 117.5625 188.1875 C118.38878906 188.71730469 119.21507812 189.24710938 120.06640625 189.79296875 C121.02353516 190.39044922 121.02353516 190.39044922 122 191 C115.23373347 197.97771236 107.68345724 205.51059353 99 210 C95.86133782 209.73653566 94.96590982 208.97102335 92.5 206.875 C90.2625 204.80625 90.2625 204.80625 88.0625 205 C85.75713447 206.03814056 85.75713447 206.03814056 83.0625 208.1875 C80 210 80 210 77.8125 209.4765625 C73.89090208 207.41772359 70.46153979 204.85879322 66.9375 202.1875 C66.23044922 201.66607422 65.52339844 201.14464844 64.79492188 200.60742188 C60.95976895 197.72295475 57.81138773 194.95054743 55 191 C56.45365269 189.82750647 57.91307419 188.66216184 59.375 187.5 C60.18710938 186.8503125 60.99921875 186.200625 61.8359375 185.53125 C64 184 64 184 66 184 C62.09314619 180.04135078 58.07051847 176.22698397 54 172.4375 C53.35224609 171.82688721 52.70449219 171.21627441 52.03710938 170.5871582 C48.79349668 167.54054681 45.52422035 164.56990577 42.09375 161.734375 C33.37801814 154.42832004 33.37801814 154.42832004 32.34765625 150.53515625 C32.57661288 148.09989026 33.14256973 146.29160736 34 144 C34.70510822 141.3420403 35.34879215 138.67190859 36 136 C34.08022911 138.37254705 32.16413443 140.74791213 30.25 143.125 C29.71117188 143.79015625 29.17234375 144.4553125 28.6171875 145.140625 C25.53059979 148.98003898 22.66093332 152.8535942 20 157 C17.15094559 155.7040639 15.07840212 154.33419618 12.86328125 152.12890625 C12.2904541 151.56002686 11.71762695 150.99114746 11.12744141 150.4050293 C10.22904541 149.49297729 10.22904541 149.49297729 9.3125 148.5625 C8.69036621 147.93577393 8.06823242 147.30904785 7.42724609 146.66333008 C2.99117019 142.14046388 -1.07627075 137.46479024 -5.00390625 132.4921875 C-6.86072168 130.17389348 -8.79914455 127.99466439 -10.8125 125.8125 C-18.64446697 117.10335273 -25.51994629 107.36891889 -32.12890625 97.7109375 C-33.69341988 95.44418915 -35.28932587 93.20870293 -36.90234375 90.9765625 C-37.93515438 89.52622575 -38.96770563 88.07570425 -40 86.625 C-40.5060376 85.9340625 -41.0120752 85.243125 -41.53344727 84.53125 C-41.99678467 83.87382812 -42.46012207 83.21640625 -42.9375 82.5390625 C-43.35902344 81.95334473 -43.78054687 81.36762695 -44.21484375 80.76416016 C-45 79 -45 79 -44.79077148 76.92016602 C-43.49856582 73.78240821 -40.74232425 72.22477431 -38.0625 70.3125 C-36.87273414 69.42882382 -35.68525911 68.54205563 -34.5 67.65234375 C-33.90832031 67.20874512 -33.31664062 66.76514648 -32.70703125 66.30810547 C-17.09338143 54.34329772 -8.34034291 38.76183965 -3 20 C-2.78730469 19.3090625 -2.57460938 18.618125 -2.35546875 17.90625 C-0.68803952 12.05225384 -0.38331004 6.05226384 0 0 Z " fill="#FBFBFB" transform="translate(63,118)"/>
<path d="M0 0 C1.26171875 1.72265625 1.26171875 1.72265625 2.6875 4.0625 C5.28532821 8.15215035 8.11290842 11.24358367 11.77734375 14.39453125 C13 16 13 16 12.81640625 17.9453125 C11.9780195 20.05531935 11.05399817 22.05137849 10 24.0625 C5.18191271 33.29126278 6.56278304 43.16408871 9 53 C19.16852913 48.63071014 27.18886447 43.03398286 35.6015625 35.890625 C36.1987207 35.38466797 36.79587891 34.87871094 37.41113281 34.35742188 C38.688371 33.26623497 39.95194266 32.15906125 41.2109375 31.046875 C43 30 43 30 44.8828125 30 C47.99408174 31.46952938 50.34657838 33.7144233 52.875 36 C57.51508824 40.0574942 62.25252317 43.72561994 67.4375 47.0625 C68.00388184 47.43181641 68.57026367 47.80113281 69.15380859 48.18164062 C72.64755833 50.37953807 76.04181363 51.84776777 80 53 C81.80183869 42.18896789 83.15290307 30.55951371 76.99609375 21.015625 C76 19 76 19 76.14453125 16.9375 C77.16912783 14.61695249 78.36397978 13.43921811 80.25 11.75 C83.95296435 8.23027512 86.50164836 4.43255935 89 0 C96.94212783 3.45012865 99.97773489 11.6660561 103.01953125 19.265625 C105.01902576 24.84190451 105.21550241 29.80134868 105.25 35.6875 C105.2809375 36.97817383 105.2809375 36.97817383 105.3125 38.29492188 C105.34944453 44.42309631 104.2717077 49.32808905 102 55 C101.55140625 56.17304687 101.1028125 57.34609375 100.640625 58.5546875 C95.59362091 70.60511862 89.07703133 80.27335868 80.55078125 90.0546875 C78.29844748 92.65539142 76.12876868 95.29790955 74 98 C86.93407273 88.78718283 98.08967678 77.88875232 106 64 C108.94155712 65.10308392 111.5696614 66.32244985 114.3125 67.875 C125.48267778 73.49152466 138.72461787 74.75940287 151 76 C147.21643103 80.19910544 143.5197791 82.58845159 138.4375 85 C137.73004639 85.34393799 137.02259277 85.68787598 136.29370117 86.04223633 C125.12051607 91.41864525 113.54343581 95.98965786 101.8515625 100.109375 C80.03982963 107.97237006 59.72888143 122.10099508 45 140 C44.34 139.34 43.68 138.68 43 138 C42.29810547 137.30583984 42.29810547 137.30583984 41.58203125 136.59765625 C40.51667593 135.5217789 39.47244905 134.42461068 38.44921875 133.30859375 C21.70165235 115.52126713 -0.01181801 105.33201706 -22.52587891 96.93261719 C-26.47538413 95.4438556 -30.36423103 93.82355212 -34.24609375 92.16796875 C-36.31144356 91.29202607 -38.38920604 90.44525518 -40.47265625 89.61328125 C-58.9600403 82.07991941 -58.9600403 82.07991941 -62 76 C-61.1843457 75.87995605 -60.36869141 75.75991211 -59.52832031 75.63623047 C-56.43913897 75.17149798 -53.35351491 74.68831476 -50.26904297 74.19335938 C-48.30258864 73.88329209 -46.33293974 73.59370272 -44.36328125 73.3046875 C-36.57405203 72.03943199 -30.39119076 70.14024908 -23.57714844 66.11376953 C-20.50989946 64.78819262 -19.11974644 64.89842286 -16 66 C-14.078125 68.15234375 -14.078125 68.15234375 -12.25 70.9375 C-5.6082383 80.55746254 3.04826114 92.07787018 14 97 C13.52691406 96.48953125 13.05382812 95.9790625 12.56640625 95.453125 C-5.79758052 75.26347873 -17.26176825 54.74503602 -16 27 C-15.26347686 19.57163809 -9.14341138 0 0 0 Z " fill="#FBFBFB" transform="translate(107,22)"/>
<path d="M0 0 C0.62122583 38.3598984 0.62122583 38.3598984 -2.59863281 56.62988281 C-2.99057466 58.94434232 -3.29742676 61.25659288 -3.5859375 63.5859375 C-4.82047708 72.64027219 -4.82047708 72.64027219 -7.40625 75.62109375 C-9.57087597 76.84106935 -11.58869748 77.38307318 -14 78 C-15.14984375 78.40089844 -16.2996875 78.80179687 -17.484375 79.21484375 C-27.18010867 82.57562361 -36.87406632 84.39672717 -47 86 C-46.67 92.93 -46.34 99.86 -46 107 C-42.01351851 102.69459999 -39.03028697 99.16025471 -36.625 93.8125 C-34.11267982 89.35072918 -31.50290003 88.06658928 -26.80615234 86.57495117 C-21.25492041 85.04051685 -15.69473208 83.87403325 -10 83 C-21.20970443 107.96652284 -35.56242316 130.76557505 -59 146 C-60.16674741 146.81238405 -61.33342819 147.62486381 -62.5 148.4375 C-65 150 -65 150 -67 150 C-67 121.95 -67 93.9 -67 65 C-50 62 -50 62 -42 61 C-43.55696591 67.369406 -46.1981508 73.08617325 -49 79 C-46.28788359 75.06594103 -43.6180925 71.1775339 -41.39453125 66.94140625 C-37.8754626 60.2459811 -34.95027268 56.72542663 -28.234375 53.21484375 C-23.28794257 50.5254373 -21.3200375 46.16737689 -19.52734375 41.0703125 C-18.73341586 37.95341041 -18.79989708 35.20164666 -19 32 C-20.98 32.66 -22.96 33.32 -25 34 C-24.855625 33.37351563 -24.71125 32.74703125 -24.5625 32.1015625 C-24.2840625 30.87566406 -24.2840625 30.87566406 -24 29.625 C-23.814375 28.81289062 -23.62875 28.00078125 -23.4375 27.1640625 C-22.93394761 25.04125049 -22.93394761 25.04125049 -23 23 C-23.51949219 23.95261719 -24.03898437 24.90523437 -24.57421875 25.88671875 C-25.27820366 27.15389159 -25.98265572 28.42080498 -26.6875 29.6875 C-27.02716797 30.31333984 -27.36683594 30.93917969 -27.71679688 31.58398438 C-30.90992281 37.28386338 -34.73367198 41.31675788 -40.25 44.875 C-43.11119457 46.9216325 -43.11119457 46.9216325 -44.734375 49.9375 C-45.07074284 52.06506937 -45.07074284 52.06506937 -45 55 C-56.69813102 59.05229375 -56.69813102 59.05229375 -63.15234375 59.01953125 C-64.42207031 59.01308594 -65.69179687 59.00664062 -67 59 C-68.18389701 52.81742675 -69.13933688 46.40666562 -65.63916016 40.83300781 C-61.32569881 35.62498312 -56.20025238 31.29293855 -51 27 C-50.41395996 26.49710449 -49.82791992 25.99420898 -49.22412109 25.47607422 C-37.62645117 15.54371074 -15.8612809 0 0 0 Z " fill="#F8F8F8" transform="translate(220,125)"/>
<path d="M0 0 C23.38807713 8.8713396 43.9452735 20.37593671 62 38 C62.58523437 38.5671875 63.17046875 39.134375 63.7734375 39.71875 C65.69322226 43.28930509 65.31621514 46.76973176 65.1875 50.75 C65.16719727 51.93916016 65.16719727 51.93916016 65.14648438 53.15234375 C65.11125223 55.10185564 65.05744821 57.05101626 65 59 C60.07237897 59.11656738 55.90044607 58.99134576 51.125 57.625 C50.19945312 57.36976563 49.27390625 57.11453125 48.3203125 56.8515625 C46 56 46 56 44 54 C43.875 50.375 43.875 50.375 44 47 C43.22462891 46.67322266 43.22462891 46.67322266 42.43359375 46.33984375 C39.00564537 44.45254632 36.09988623 42.0173738 33.0625 39.5625 C29.16949165 36.42084639 25.38139481 33.45258343 21 31 C21.51726964 61.50999052 27.14899397 83.00859156 45 108 C45 100.74 45 93.48 45 86 C42.9375 85.38125 40.875 84.7625 38.75 84.125 C32.57098727 81.73658683 32.57098727 81.73658683 30.31640625 78.828125 C29.25003065 76.22235116 28.56638634 73.75771556 28 71 C27.78214844 70.04867187 27.56429687 69.09734375 27.33984375 68.1171875 C26.36616872 63.38422413 25.73796162 58.84770996 26 54 C30.2161877 54.65532505 33.72576069 56.10496172 37.625 57.8125 C47.56296012 61.84341213 47.56296012 61.84341213 65 65 C65 93.05 65 121.1 65 150 C58.66620979 146.38069131 53.53222458 142.65172037 48 138 C47.18273437 137.319375 46.36546875 136.63875 45.5234375 135.9375 C33.26167442 125.34956489 24.35752326 112.75121802 16 99 C14.99259766 97.38158203 14.99259766 97.38158203 13.96484375 95.73046875 C5.6376723 81.47361917 2.10751982 65.32211931 1 49 C0.94505371 48.26974609 0.89010742 47.53949219 0.83349609 46.78710938 C-0.3012725 31.21500466 -0.10559778 15.60247888 0 0 Z " fill="#FBFBFB" transform="translate(84,125)"/>
<path d="M0 0 C1.28497537 3.85492611 0.4052209 5.40346836 -0.9375 9.1875 C-1.31777344 10.27417969 -1.69804687 11.36085937 -2.08984375 12.48046875 C-2.39019531 13.31191406 -2.69054687 14.14335937 -3 15 C-1.68 14.67 -0.36 14.34 1 14 C-0.47035944 20.8616774 -2.2720814 27.11620034 -7.1875 32.3125 C-10.98698741 34.59219244 -14.75444397 35.73266984 -19 37 C-19 34.03 -19 31.06 -19 28 C-19.66 27.67 -20.32 27.34 -21 27 C-19.71283353 25.99421411 -18.42011342 24.99553202 -17.125 24 C-16.40570313 23.443125 -15.68640625 22.88625 -14.9453125 22.3125 C-13 21 -13 21 -11 21 C-10.57195068 20.13713379 -10.57195068 20.13713379 -10.13525391 19.25683594 C-9.06053344 17.12033787 -7.95637371 15.00344757 -6.8359375 12.890625 C-6.43632812 12.13652344 -6.03671875 11.38242188 -5.625 10.60546875 C-5.2125 9.82816406 -4.8 9.05085937 -4.375 8.25 C-3.95476562 7.45722656 -3.53453125 6.66445312 -3.1015625 5.84765625 C-2.06812448 3.89821635 -1.03425699 1.94900549 0 0 Z " fill="#130907" transform="translate(198,144)"/>
<path d="M0 0 C-0.67746833 5.69073401 -2.0759411 10.01935113 -6.125 14.1875 C-9.88256926 16.55640236 -13.75100188 17.7780659 -18 19 C-18.29296875 12.9453125 -18.29296875 12.9453125 -18 11 C-14.3558226 8.5705484 -12.28758728 8.83820425 -8 9 C-7.3503125 7.329375 -7.3503125 7.329375 -6.6875 5.625 C-4.06896552 0 -4.06896552 0 0 0 Z " fill="#E03920" transform="translate(197,162)"/>
<path d="M0 0 C1.152143 3.45642901 0.80875337 4.15293 -0.4375 7.4375 C-1.66651042 10.69465317 -2 12.38385423 -2 16 C-2.66 16 -3.32 16 -4 16 C-4.33 15.34 -4.66 14.68 -5 14 C-5.99 14.495 -5.99 14.495 -7 15 C-5.63408831 11.45756548 -4.09068516 8.07372071 -2.375 4.6875 C-1.70597656 3.36298828 -1.70597656 3.36298828 -1.0234375 2.01171875 C-0.68570313 1.34785156 -0.34796875 0.68398437 0 0 Z " fill="#303030" transform="translate(198,144)"/>
<path d="M0 0 C1.25541557 3.76624671 0.37061958 5.37188934 -1 9 C-1.66 8.34 -2.32 7.68 -3 7 C-4.98 7.99 -4.98 7.99 -7 9 C-6.02180976 7.68677212 -5.0424189 6.37443848 -4.0625 5.0625 C-3.51722656 4.33160156 -2.97195312 3.60070312 -2.41015625 2.84765625 C-1 1 -1 1 0 0 Z " fill="#323232" transform="translate(99,253)"/>
<path d="M0 0 C0.33 0.66 0.66 1.32 1 2 C1.66 2.33 2.32 2.66 3 3 C1.02 5.97 -0.96 8.94 -3 12 C-4 10 -4 10 -3.22265625 7.6171875 C-2.83980469 6.71226562 -2.45695313 5.80734375 -2.0625 4.875 C-1.68222656 3.96492187 -1.30195313 3.05484375 -0.91015625 2.1171875 C-0.60980469 1.41851562 -0.30945313 0.71984375 0 0 Z " fill="#464646" transform="translate(174,194)"/>
<path d="M0 0 C0.66 0.33 1.32 0.66 2 1 C0.515 2.485 0.515 2.485 -1 4 C-0.67 4.66 -0.34 5.32 0 6 C-1.98 6.66 -3.96 7.32 -6 8 C-6.66 7.34 -7.32 6.68 -8 6 C-5.36 4.02 -2.72 2.04 0 0 Z " fill="#241B1A" transform="translate(185,165)"/>
</svg>
