<?xml version="1.0" encoding="UTF-8"?>
<svg version="1.1" xmlns="http://www.w3.org/2000/svg" width="66" height="75">
<path d="M0 0 C2.86724686 0.57344937 3.8614515 0.8614515 6 3 C5.625 6.625 5.625 6.625 5 10 C8.13323425 10 9.68020784 7.95350919 12 6 C14.95409701 7.37154504 17.44008376 8.98863724 20 11 C21.30140644 8.91681997 21.30140644 8.91681997 20.375 6.0625 C20 3 20 3 21.1875 1.0625 C23 0 23 0 25.0625 0 C27 1 27 1 28.3125 3 C29.28479284 7.24273239 28.6416798 10.70074536 28 15 C33.94 16.485 33.94 16.485 40 18 C39 21 39 21 36 23 C37.49003812 31.04620585 39.15026574 36.00154527 46 41 C45.53781652 45.84839531 43.1446066 48.88621153 40.1875 52.5625 C39.74857422 53.12646484 39.30964844 53.69042969 38.85742188 54.27148438 C36.41620521 57.37288148 33.95626221 60.37719903 31 63 C30.34 63 29.68 63 29 63 C29 62.34 29 61.68 29 61 C26.36 63.31 23.72 65.62 21 68 C21.33 69.32 21.66 70.64 22 72 C18.95464354 74.6646869 17.03928889 75.41194472 13 75.375 C11.7315625 75.38660156 11.7315625 75.38660156 10.4375 75.3984375 C7.56634568 74.9291142 6.16558973 73.89489101 4 72 C4.33 70.68 4.66 69.36 5 68 C1.04 64.535 1.04 64.535 -3 61 C-3 61.66 -3 62.32 -3 63 C-8.3215841 60.75995681 -11.38994168 56.34491208 -15 52 C-15.82371094 51.02353516 -15.82371094 51.02353516 -16.6640625 50.02734375 C-18.69739636 47.44307865 -19.96998198 45.6453874 -20.125 42.3125 C-19 40 -19 40 -16.625 38.125 C-11.85283134 34.26181585 -10.72003551 28.90429119 -10 23 C-10.66 22.54625 -11.32 22.0925 -12 21.625 C-12.66 21.08875 -13.32 20.5525 -14 20 C-14 19.34 -14 18.68 -14 18 C-10.04 17.01 -6.08 16.02 -2 15 C-2.226875 13.63875 -2.45375 12.2775 -2.6875 10.875 C-3.20879507 6.41581379 -2.46294931 3.84220093 0 0 Z M2 34 C2 34.99 2 35.98 2 37 C3.32 37.33 4.64 37.66 6 38 C4.68 36.68 3.36 35.36 2 34 Z M5 46 C5.33 46.99 5.66 47.98 6 49 C6 48.01 6 47.02 6 46 C5.67 46 5.34 46 5 46 Z M19 47 C19.33 47.66 19.66 48.32 20 49 C20.33 48.34 20.66 47.68 21 47 C20.34 47 19.68 47 19 47 Z " fill="#FEFEFE" transform="translate(20,0)"/>
<path d="M0 0 C-0.1875 1.875 -0.1875 1.875 -1 4 C-3.5625 5.25 -3.5625 5.25 -6 6 C-5.6875 4.125 -5.6875 4.125 -5 2 C-2 0 -2 0 0 0 Z " fill="#F0533D" transform="translate(45,34)"/>
</svg>
