<?xml version="1.0" encoding="UTF-8"?>
<svg version="1.1" xmlns="http://www.w3.org/2000/svg" width="136" height="75">
<path d="M0 0 C0 1.65 0 3.3 0 5 C10.89 3.515 10.89 3.515 22 2 C19.70209134 10.89389897 16.84443518 19.52590282 13.8125 28.1875 C13.34406631 29.53438884 12.87596523 30.88139341 12.40820312 32.22851562 C11.27595638 35.48701658 10.13925314 38.74394102 9 42 C23.38351422 40.27708066 37.70913528 38.37619331 52 36 C51.57847346 40.82999162 49.2684125 43.31276766 46 46.625 C44.99889731 47.67610026 44.0002437 48.72953793 43.00390625 49.78515625 C42.50133301 50.31641113 41.99875977 50.84766602 41.48095703 51.39501953 C36.97186621 56.28172627 32.68749415 61.46875878 29 67 C26.81469727 67.66447449 26.81469727 67.66447449 24.06640625 68.07495117 C23.03773437 68.23489059 22.0090625 68.39483002 20.94921875 68.55961609 C19.83160156 68.71912247 18.71398437 68.87862885 17.5625 69.04296875 C16.41265625 69.21629227 15.2628125 69.38961578 14.078125 69.56819153 C11.63781136 69.93316243 9.19652492 70.29167747 6.75439453 70.64428711 C3.04081003 71.18159531 -0.6690381 71.74040115 -4.37890625 72.30273438 C-6.75241282 72.65493775 -9.12610566 73.00588856 -11.5 73.35546875 C-12.60142334 73.52104782 -13.70284668 73.68662689 -14.83764648 73.85722351 C-21.27516667 74.77642546 -27.49811408 75.21504579 -34 75 C-33.44683414 71.03564468 -32.54379132 67.6837622 -31 64 C-31.69971924 64.12117188 -32.39943848 64.24234375 -33.12036133 64.3671875 C-36.34954024 64.9208675 -39.58092424 65.46049271 -42.8125 66 C-44.46282227 66.28617188 -44.46282227 66.28617188 -46.14648438 66.578125 C-56.36420106 68.2660074 -67.38668218 69.84027191 -77 65 C-81.16307998 61.3446127 -83.84461659 57.86853472 -84.30859375 52.2890625 C-84.76553436 40.43171029 -83.3567865 32.02261601 -75.28125 22.8125 C-62.50386097 9.01350722 -47.92304864 4.19408088 -29.43383789 1.98925781 C-27.43359675 1.7495322 -25.4367768 1.48938753 -23.43945312 1.2265625 C-15.58326291 0.2459979 -7.91525699 -0.23386619 0 0 Z " fill="#ECF0F3" transform="translate(84,0)"/>
<path d="M0 0 C-0.31049726 1.43793392 -0.6234776 2.8753318 -0.9375 4.3125 C-1.11152344 5.11300781 -1.28554687 5.91351563 -1.46484375 6.73828125 C-2 9 -2 9 -3 12 C-6.61076347 13.20358782 -10.175602 13.53213898 -13.9375 13.9375 C-15.47934167 14.11699263 -17.02100889 14.29798997 -18.5625 14.48046875 C-21.18649764 14.79058772 -23.80971714 15.08557238 -26.4375 15.36328125 C-34.17737706 16.36099978 -41.23937086 18.66455967 -46.5078125 24.73828125 C-48.85611302 28.44137052 -49.60221018 31.68416038 -49 36 C-47.17113077 38.24808298 -47.17113077 38.24808298 -44.48828125 38.265625 C-35.82936983 38.22302273 -27.54344627 37.32346609 -19 36 C-18.34 34.02 -17.68 32.04 -17 30 C-18.7634375 30.4640625 -18.7634375 30.4640625 -20.5625 30.9375 C-27.28196405 32.45584043 -34.14044366 32.6565703 -41 33 C-40.10698344 31.93513145 -39.2104053 30.87324959 -38.3125 29.8125 C-37.81363281 29.22082031 -37.31476562 28.62914063 -36.80078125 28.01953125 C-36.20652344 27.35308594 -35.61226562 26.68664062 -35 26 C-34.04287109 24.71609375 -34.04287109 24.71609375 -33.06640625 23.40625 C-28.38341917 19.7314474 -23.42147205 19.45880475 -17.625 18.6875 C-16.51382813 18.51927734 -15.40265625 18.35105469 -14.2578125 18.17773438 C-8.79441121 17.38098835 -3.52046626 16.78522682 2 17 C1.54575881 22.22377374 0.14918961 26.40611954 -1.8828125 31.2265625 C-3.52086533 35.2930573 -4.83330924 39.45477193 -6.16796875 43.62890625 C-7 46 -7 46 -8 47 C-10.10463849 47.35862106 -12.2190521 47.66017627 -14.3359375 47.9375 C-15.62757812 48.11023437 -16.91921875 48.28296875 -18.25 48.4609375 C-19.62495215 48.64099076 -20.99995279 48.82067416 -22.375 49 C-25.04997141 49.35067065 -27.72428086 49.70559065 -30.3984375 50.0625 C-32.18773682 50.29646484 -32.18773682 50.29646484 -34.01318359 50.53515625 C-37.04283482 50.92173541 -37.04283482 50.92173541 -40 52 C-42.78612399 52.17466964 -45.52492412 52.27697439 -48.3125 52.3125 C-49.05951172 52.34150391 -49.80652344 52.37050781 -50.57617188 52.40039062 C-55.86227425 52.46072366 -58.80973604 51.4971854 -63 48 C-66.33207044 43.22403237 -66.9392128 38.64439535 -66 33 C-62.44686916 22.23761817 -54.39821968 13.86528402 -44.75 8.25390625 C-36.14196937 4.32893774 -27.5377038 3.01340074 -18.1875 1.8125 C-16.86513415 1.6342053 -15.54286745 1.45517362 -14.22070312 1.27539062 C-4.63311414 0 -4.63311414 0 0 0 Z " fill="#1C2336" transform="translate(73,8)"/>
<path d="M0 0 C0 1.65 0 3.3 0 5 C10.89 3.515 10.89 3.515 22 2 C19.70209134 10.89389897 16.84443518 19.52590282 13.8125 28.1875 C13.34406631 29.53438884 12.87596523 30.88139341 12.40820312 32.22851562 C11.27595638 35.48701658 10.13925314 38.74394102 9 42 C23.38351422 40.27708066 37.70913528 38.37619331 52 36 C51.57847346 40.82999162 49.2684125 43.31276766 46 46.625 C44.99889731 47.67610026 44.0002437 48.72953793 43.00390625 49.78515625 C42.50133301 50.31641113 41.99875977 50.84766602 41.48095703 51.39501953 C36.97186621 56.28172627 32.68749415 61.46875878 29 67 C26.81469727 67.66447449 26.81469727 67.66447449 24.06640625 68.07495117 C23.03773437 68.23489059 22.0090625 68.39483002 20.94921875 68.55961609 C19.83160156 68.71912247 18.71398437 68.87862885 17.5625 69.04296875 C16.41265625 69.21629227 15.2628125 69.38961578 14.078125 69.56819153 C11.63781136 69.93316243 9.19652492 70.29167747 6.75439453 70.64428711 C3.04081003 71.18159531 -0.6690381 71.74040115 -4.37890625 72.30273438 C-6.75241282 72.65493775 -9.12610566 73.00588856 -11.5 73.35546875 C-12.60142334 73.52104782 -13.70284668 73.68662689 -14.83764648 73.85722351 C-21.27516667 74.77642546 -27.49811408 75.21504579 -34 75 C-33.44683414 71.03564468 -32.54379132 67.6837622 -31 64 C-31.69971924 64.12117188 -32.39943848 64.24234375 -33.12036133 64.3671875 C-36.34954024 64.9208675 -39.58092424 65.46049271 -42.8125 66 C-44.46282227 66.28617188 -44.46282227 66.28617188 -46.14648438 66.578125 C-56.36420106 68.2660074 -67.38668218 69.84027191 -77 65 C-81.16307998 61.3446127 -83.84461659 57.86853472 -84.30859375 52.2890625 C-84.76553436 40.43171029 -83.3567865 32.02261601 -75.28125 22.8125 C-62.50386097 9.01350722 -47.92304864 4.19408088 -29.43383789 1.98925781 C-27.43359675 1.7495322 -25.4367768 1.48938753 -23.43945312 1.2265625 C-15.58326291 0.2459979 -7.91525699 -0.23386619 0 0 Z M-23.08203125 5.3828125 C-26.0660988 5.85288496 -29.01118618 6.23350373 -32.01171875 6.5546875 C-49.8280361 8.55695775 -63.25954823 13.98612287 -74.94140625 28.39453125 C-80.0964986 35.686192 -82.08567414 43.10582341 -81 52 C-79.73551541 56.66578807 -77.74446897 59.9713676 -73.5625 62.5 C-63.5279326 66.63512393 -51.72975285 63.49485114 -41.4296875 61.73046875 C-37.93888985 61.13636894 -34.46657226 60.68699045 -30.9375 60.375 C-27.21862456 60.25947865 -27.21862456 60.25947865 -25 59 C-25.78125 60.66015625 -26.5625 62.3203125 -27.34375 63.98046875 C-28.12939666 66.39820282 -28.10471604 68.47372564 -28 71 C-17.24995983 70.02621805 -6.59621457 68.71404405 4.0625 67 C5.09560303 66.8340332 6.12870605 66.66806641 7.19311523 66.49707031 C9.18363324 66.17047714 11.17251244 65.83370213 13.15942383 65.48583984 C15.02374908 65.16697373 16.89381213 64.87971097 18.76831055 64.62744141 C24.83034833 63.70072452 27.89844532 62.18136965 31.6875 57.375 C32.1410083 56.84028076 32.5945166 56.30556152 33.06176758 55.75463867 C33.96739415 54.68444039 34.86379063 53.60635133 35.75 52.52001953 C37.4988213 50.39342551 39.34567201 48.35856295 41.1875 46.3125 C43.17097462 44.41350341 43.17097462 44.41350341 44 42 C30.20441853 42.51000301 16.61897034 44.87949596 3 47 C4.4115432 42.7066314 5.83017346 38.4156357 7.25 34.125 C7.64574219 32.92101562 8.04148437 31.71703125 8.44921875 30.4765625 C10.52594589 24.21233638 12.69048519 18.05109121 15.29199219 11.98388672 C16.16805806 9.88016274 16.16805806 9.88016274 16 7 C8.41 7.99 0.82 8.98 -7 10 C-6.34 8.02 -5.68 6.04 -5 4 C-11.21932524 3.78917542 -16.95255173 4.33368705 -23.08203125 5.3828125 Z " fill="#3B97D1" transform="translate(84,0)"/>
<path d="M0 0 C-0.51281126 4.87170695 -2.09924641 8.885959 -3.9609375 13.359375 C-4.95467619 15.88481619 -5.75371153 18.39209083 -6.5 21 C-7.98517978 26.15349267 -9.94567972 31.05133375 -12 36 C-12.6678596 37.666189 -13.33467468 39.33279742 -14 41 C-12.44104004 40.71950806 -12.44104004 40.71950806 -10.85058594 40.43334961 C-6.99054832 39.74109404 -3.12865627 39.05971637 0.73388672 38.3815918 C2.40465955 38.08670185 4.07491644 37.78887295 5.74462891 37.48803711 C8.14616046 37.05587572 10.54935526 36.63435302 12.953125 36.21484375 C14.0705307 36.01023781 14.0705307 36.01023781 15.21051025 35.80149841 C21.6233442 34.70098972 21.6233442 34.70098972 25 36 C24.30132812 36.68707031 23.60265625 37.37414063 22.8828125 38.08203125 C21.97273438 38.98308594 21.06265625 39.88414063 20.125 40.8125 C19.22007813 41.70582031 18.31515625 42.59914062 17.3828125 43.51953125 C14.90168486 45.95638333 14.90168486 45.95638333 13 49 C10.00785652 49.6528313 7.15410514 50.12573117 4.125 50.5 C2.3111203 50.74552104 0.49732043 50.99163237 -1.31640625 51.23828125 C-2.72043701 51.42318115 -2.72043701 51.42318115 -4.15283203 51.61181641 C-6.9504745 51.99324768 -9.7383666 52.41541798 -12.52734375 52.85546875 C-13.41373535 52.9946875 -14.30012695 53.13390625 -15.21337891 53.27734375 C-16.90487259 53.54427118 -18.59597828 53.81367294 -20.28662109 54.0859375 C-24.92100049 54.79995247 -29.31070861 55.13147546 -34 55 C-33.125 49.25 -33.125 49.25 -32 47 C-30.35 47 -28.7 47 -27 47 C-26.83781982 46.37633545 -26.67563965 45.7526709 -26.50854492 45.11010742 C-24.37629619 37.08816721 -21.87789913 29.20509157 -19.3125 21.3125 C-18.89234835 20.01374618 -18.47242511 18.71491846 -18.05273438 17.41601562 C-17.0373886 14.27661316 -16.01976774 11.13796828 -15 8 C-15.99 8 -16.98 8 -18 8 C-17.4375 5.61328125 -17.4375 5.61328125 -16 3 C-12.8125 1.85546875 -12.8125 1.85546875 -9 1.1875 C-7.741875 0.95417969 -6.48375 0.72085937 -5.1875 0.48046875 C-2 0 -2 0 0 0 Z " fill="#1E2538" transform="translate(95,11)"/>
<path d="M0 0 C0 0.33 0 0.66 0 1 C2.475 1.495 2.475 1.495 5 2 C5 2.33 5 2.66 5 3 C4.00145996 3.14099121 3.00291992 3.28198242 1.97412109 3.42724609 C-1.75033027 3.9546437 -5.47369176 4.48942005 -9.19677734 5.02636719 C-10.80456475 5.25720576 -12.41263625 5.48607485 -14.02099609 5.71289062 C-16.34030429 6.04032237 -18.65847935 6.37495576 -20.9765625 6.7109375 C-21.68930328 6.80998383 -22.40204407 6.90903015 -23.13638306 7.01107788 C-27.27436347 7.6190909 -31.0753663 8.55577775 -35 10 C-35 8.68 -35 7.36 -35 6 C-23.88434286 1.05437285 -12.06827334 -0.18955403 0 0 Z " fill="#DEE5EA" transform="translate(64,6)"/>
<path d="M0 0 C0.66 0 1.32 0 2 0 C2 0.99 2 1.98 2 3 C2.66 3 3.32 3 4 3 C1.97810834 10.78121942 -0.38630407 18.39772708 -3 26 C-3.99 26 -4.98 26 -6 26 C-7 24 -7 24 -6.07421875 20.69921875 C-5.6196028 19.35936821 -5.15700142 18.02220729 -4.6875 16.6875 C-4.46126953 16.02298828 -4.23503906 15.35847656 -4.00195312 14.67382812 C-3.02644364 11.83163767 -2.01405793 9.03286453 -0.83203125 6.26953125 C0.22947144 3.77694414 0.22947144 3.77694414 0 0 Z " fill="#E2E2E5" transform="translate(74,24)"/>
<path d="M0 0 C-2.97 0.66 -5.94 1.32 -9 2 C-8.67 2.66 -8.34 3.32 -8 4 C-11.3 4.33 -14.6 4.66 -18 5 C-18 4.34 -18 3.68 -18 3 C-19.65 3 -21.3 3 -23 3 C-23 2.67 -23 2.34 -23 2 C-19.91879316 1.4660256 -16.83482141 0.95014449 -13.75 0.4375 C-12.44095703 0.21030273 -12.44095703 0.21030273 -11.10546875 -0.02148438 C-10.26113281 -0.16005859 -9.41679688 -0.29863281 -8.546875 -0.44140625 C-7.77182617 -0.57232666 -6.99677734 -0.70324707 -6.19824219 -0.83813477 C-4 -1 -4 -1 0 0 Z " fill="#D1E4F0" transform="translate(118,44)"/>
<path d="M0 0 C0.33 0 0.66 0 1 0 C0.67 2.64 0.34 5.28 0 8 C-0.99 8 -1.98 8 -3 8 C-3.33 7.34 -3.66 6.68 -4 6 C-1.68421053 1.68421053 -1.68421053 1.68421053 0 0 Z " fill="#E8E9EB" transform="translate(71,42)"/>
</svg>
