<?xml version="1.0" encoding="UTF-8"?>
<svg version="1.1" xmlns="http://www.w3.org/2000/svg" width="280" height="100">
<path d="M0 0 C2.05078125 0.03255208 4.1015625 0.06510417 6.15234375 0.09765625 C5.84398143 2.22326062 5.53052761 4.3481269 5.21484375 6.47265625 C5.04082031 7.65601563 4.86679688 8.839375 4.6875 10.05859375 C4.15234375 13.09765625 4.15234375 13.09765625 3.15234375 15.09765625 C9.09234375 14.60265625 9.09234375 14.60265625 15.15234375 14.09765625 C16.14234375 9.47765625 17.13234375 4.85765625 18.15234375 0.09765625 C21.12234375 0.09765625 24.09234375 0.09765625 27.15234375 0.09765625 C26.17734606 4.90389732 25.19867023 9.7093689 24.21655273 14.51416016 C23.8828531 16.14936954 23.55016596 17.78478588 23.21850586 19.42041016 C22.74207272 21.76910448 22.26202333 24.11703454 21.78125 26.46484375 C21.63329483 27.19822968 21.48533966 27.9316156 21.332901 28.68722534 C20.26621546 33.86991284 20.26621546 33.86991284 19.15234375 36.09765625 C16.51234375 36.09765625 13.87234375 36.09765625 11.15234375 36.09765625 C11.81234375 31.80765625 12.47234375 27.51765625 13.15234375 23.09765625 C9.19234375 22.76765625 5.23234375 22.43765625 1.15234375 22.09765625 C1.00796875 23.66515625 0.86359375 25.23265625 0.71484375 26.84765625 C0.41572744 30.09520472 -0.05027767 32.90814195 -0.84765625 36.09765625 C-3.81765625 36.09765625 -6.78765625 36.09765625 -9.84765625 36.09765625 C-8.87394067 31.13045504 -7.8952502 26.16427058 -6.91186523 21.19897461 C-6.57780026 19.50849205 -6.24511437 17.81773638 -5.91381836 16.12670898 C-5.43832953 13.70093411 -4.95794541 11.27617366 -4.4765625 8.8515625 C-4.32860733 8.09114151 -4.18065216 7.33072052 -4.0282135 6.54725647 C-2.74836682 0.14526252 -2.74836682 0.14526252 0 0 Z " fill="#FBFBFB" transform="translate(67.84765625,31.90234375)"/>
<path d="M0 0 C3.95827235 -0.05785647 7.9164367 -0.09354717 11.875 -0.125 C13.00292969 -0.14175781 14.13085938 -0.15851562 15.29296875 -0.17578125 C16.36933594 -0.18222656 17.44570312 -0.18867187 18.5546875 -0.1953125 C19.54968262 -0.20578613 20.54467773 -0.21625977 21.56982422 -0.22705078 C24 0 24 0 26 2 C26.32563954 10.37358811 23.87765048 18.91075109 22 27 C17.70845978 27.0867562 13.41714332 27.1403089 9.125 27.1875 C7.29001953 27.22520508 7.29001953 27.22520508 5.41796875 27.26367188 C3.66806641 27.27817383 3.66806641 27.27817383 1.8828125 27.29296875 C0.26463623 27.31653442 0.26463623 27.31653442 -1.38623047 27.34057617 C-2.24877441 27.22818604 -3.11131836 27.1157959 -4 27 C-6.31354776 23.52967836 -6.04558795 22.01328535 -5.41796875 18.00390625 C-4.89385994 15.49112289 -4.17638226 13.28356556 -3 11 C0.18824568 9.40587716 3.62896662 9.89825265 7.125 9.9375 C7.87910156 9.94201172 8.63320312 9.94652344 9.41015625 9.95117188 C11.27347127 9.96296501 13.13674555 9.98090058 15 10 C14.34 12.31 13.68 14.62 13 17 C12.04287109 17.07347656 12.04287109 17.07347656 11.06640625 17.1484375 C10.24011719 17.22320312 9.41382813 17.29796875 8.5625 17.375 C7.73878906 17.44460937 6.91507813 17.51421875 6.06640625 17.5859375 C5.38449219 17.72257812 4.70257813 17.85921875 4 18 C3.67 18.66 3.34 19.32 3 20 C6.63 19.67 10.26 19.34 14 19 C14.99 15.04 15.98 11.08 17 7 C11.06 7 5.12 7 -1 7 C-0.67 4.69 -0.34 2.38 0 0 Z " fill="#FBFBFB" transform="translate(182,41)"/>
<path d="M0 0 C1.12591553 0.00523682 2.25183105 0.01047363 3.41186523 0.01586914 C4.62680664 0.0190918 5.84174805 0.02231445 7.09350586 0.02563477 C8.37290039 0.03401367 9.65229492 0.04239258 10.97045898 0.05102539 C12.2537207 0.05553711 13.53698242 0.06004883 14.85913086 0.06469727 C18.04211921 0.07652994 21.22501661 0.09301471 24.40795898 0.11352539 C24.07795898 2.42352539 23.74795898 4.73352539 23.40795898 7.11352539 C13.01295898 7.60852539 13.01295898 7.60852539 2.40795898 8.11352539 C2.07795898 8.77352539 1.74795898 9.43352539 1.40795898 10.11352539 C3.1965332 10.02651367 3.1965332 10.02651367 5.02124023 9.93774414 C6.58760739 9.89084692 8.15401682 9.84534671 9.72045898 9.80102539 C10.89898437 9.73818359 10.89898437 9.73818359 12.10131836 9.67407227 C14.3045066 9.62719592 16.25221819 9.6522334 18.40795898 10.11352539 C20.76072749 12.63403349 21.42606025 14.02382924 21.36889648 17.46508789 C21.17553711 18.21532227 20.98217773 18.96555664 20.78295898 19.73852539 C20.60506836 20.49391602 20.42717773 21.24930664 20.24389648 22.02758789 C19.25785286 24.48808928 18.52712189 25.51083268 16.40795898 27.11352539 C13.58886719 27.45410156 13.58886719 27.45410156 10.20874023 27.40649414 C9.00024414 27.39682617 7.79174805 27.3871582 6.54663086 27.37719727 C5.28399414 27.35206055 4.02135742 27.32692383 2.72045898 27.30102539 C0.80910156 27.28072266 0.80910156 27.28072266 -1.14086914 27.26000977 C-4.29168159 27.22460738 -7.44165146 27.17522329 -10.59204102 27.11352539 C-9.60204102 23.64852539 -9.60204102 23.64852539 -8.59204102 20.11352539 C-1.66204102 20.11352539 5.26795898 20.11352539 12.40795898 20.11352539 C12.40795898 19.12352539 12.40795898 18.13352539 12.40795898 17.11352539 C11.20397461 17.13672852 9.99999023 17.15993164 8.75952148 17.18383789 C7.18400684 17.20259402 5.6084855 17.22079438 4.03295898 17.23852539 C3.23889648 17.2552832 2.44483398 17.27204102 1.62670898 17.28930664 C-0.44696117 17.30688012 -2.52087343 17.21687707 -4.59204102 17.11352539 C-6.98615711 14.7194093 -6.88803024 14.07566228 -6.90454102 10.80102539 C-6.81036305 5.92731565 -5.58527953 0.2446223 0 0 Z " fill="#FAFAFA" transform="translate(217.592041015625,40.886474609375)"/>
<path d="M0 0 C0.92103516 -0.00386719 1.84207031 -0.00773437 2.79101562 -0.01171875 C3.74556641 -0.00011719 4.70011719 0.01148438 5.68359375 0.0234375 C6.64201172 0.01183594 7.60042969 0.00023437 8.58789062 -0.01171875 C9.50763672 -0.00785156 10.42738281 -0.00398438 11.375 0 C12.21361572 0.00338379 13.05223145 0.00676758 13.91625977 0.01025391 C16.6209333 0.48643937 17.54214171 1.17105647 19.12109375 3.3984375 C18.91596187 8.16082361 17.94170109 12.69074278 17.12109375 17.3984375 C10.85109375 17.3984375 4.58109375 17.3984375 -1.87890625 17.3984375 C-1.21890625 15.0884375 -0.55890625 12.7784375 0.12109375 10.3984375 C3.42109375 10.3984375 6.72109375 10.3984375 10.12109375 10.3984375 C9.79109375 9.7384375 9.46109375 9.0784375 9.12109375 8.3984375 C5.49109375 8.3984375 1.86109375 8.3984375 -1.87890625 8.3984375 C-2.53890625 12.3584375 -3.19890625 16.3184375 -3.87890625 20.3984375 C2.06109375 20.3984375 8.00109375 20.3984375 14.12109375 20.3984375 C13.79109375 22.7084375 13.46109375 25.0184375 13.12109375 27.3984375 C9.1628214 27.45629397 5.20465705 27.49198467 1.24609375 27.5234375 C0.11816406 27.54019531 -1.00976562 27.55695313 -2.171875 27.57421875 C-3.78642578 27.58388672 -3.78642578 27.58388672 -5.43359375 27.59375 C-6.92608643 27.60946045 -6.92608643 27.60946045 -8.44873047 27.62548828 C-10.87890625 27.3984375 -10.87890625 27.3984375 -12.87890625 25.3984375 C-13.1757897 18.30150934 -11.46799336 9.96612179 -8.87890625 3.3984375 C-5.94835638 0.67256224 -3.96634588 0.01598259 0 0 Z " fill="#FAFAFA" transform="translate(105.87890625,40.6015625)"/>
<path d="M0 0 C0.96228516 0.00128906 1.92457031 0.00257812 2.91601562 0.00390625 C10.03128332 0.09378332 10.03128332 0.09378332 12.3125 2.375 C12.71665928 8.33634933 12.05321991 11.28248032 10.3125 17.375 C4.3725 17.375 -1.5675 17.375 -7.6875 17.375 C-7.3575 15.065 -7.0275 12.755 -6.6875 10.375 C-3.3875 10.375 -0.0875 10.375 3.3125 10.375 C3.3125 9.385 3.3125 8.395 3.3125 7.375 C0.0125 7.705 -3.2875 8.035 -6.6875 8.375 C-7.6775 12.335 -8.6675 16.295 -9.6875 20.375 C-3.7475 20.375 2.1925 20.375 8.3125 20.375 C7.9825 22.685 7.6525 24.995 7.3125 27.375 C3.16668113 27.40386751 -0.97911216 27.42175327 -5.125 27.4375 C-6.90100586 27.45006836 -6.90100586 27.45006836 -8.71289062 27.46289062 C-9.83759766 27.46611328 -10.96230469 27.46933594 -12.12109375 27.47265625 C-13.68428345 27.48051147 -13.68428345 27.48051147 -15.27905273 27.48852539 C-17.6875 27.375 -17.6875 27.375 -18.6875 26.375 C-19.30015039 18.56370758 -18.79611602 8.20771132 -13.7421875 1.9765625 C-9.19784459 -0.40602138 -5.0495278 -0.13008953 0 0 Z " fill="#FAFAFA" transform="translate(259.6875,40.625)"/>
<path d="M0 0 C2.125 0.375 2.125 0.375 4 1 C3.51402344 1.37769531 3.02804688 1.75539062 2.52734375 2.14453125 C0.44025374 4.67999866 0.63327181 6.43615958 0.5625 9.6875 C0.11623512 16.79341001 -1.51200429 22.01874404 -6.875 26.875 C-11.44488475 29.98252163 -14.32393844 31.16219951 -19.875 30.625 C-21.421875 30.315625 -21.421875 30.315625 -23 30 C-21 28 -21 28 -17.9375 26.5 C-14.91393318 25.32219888 -14.91393318 25.32219888 -14 23 C-14.9075 22.896875 -15.815 22.79375 -16.75 22.6875 C-20.01961575 21.99585051 -21.53717737 21.17865079 -24 19 C-24.66 21.97 -25.32 24.94 -26 28 C-28.69001628 25.42206774 -29.30533765 23.23233669 -29.5 19.625 C-29.39641583 16.14342079 -28.81025182 14.15936691 -26.625 11.4375 C-24 9 -24 9 -22 9 C-22 10.65 -22 12.3 -22 14 C-20.03243548 13.96877057 -20.03243548 13.96877057 -18 13 C-16.6954344 10.00384054 -16.6954344 10.00384054 -16 7 C-12.535 6.505 -12.535 6.505 -9 6 C-9.66 7.65 -10.32 9.3 -11 11 C-9.35 11 -7.7 11 -6 11 C-5.73445313 10.37351562 -5.46890625 9.74703125 -5.1953125 9.1015625 C-4.84210937 8.28429688 -4.48890625 7.46703125 -4.125 6.625 C-3.77695312 5.81289063 -3.42890625 5.00078125 -3.0703125 4.1640625 C-2 2 -2 2 0 0 Z " fill="#F14B25" transform="translate(41,40)"/>
<path d="M0 0 C0.93134766 0.01804688 1.86269531 0.03609375 2.82226562 0.0546875 C5.11174197 0.10165112 7.39908184 0.16730525 9.6875 0.25 C9.6875 2.56 9.6875 4.87 9.6875 7.25 C1.7675 7.745 1.7675 7.745 -6.3125 8.25 C-8.45979799 14.17201871 -8.45979799 14.17201871 -9.3125 20.25 C-4.3625 20.25 0.5875 20.25 5.6875 20.25 C5.3575 22.56 5.0275 24.87 4.6875 27.25 C1.04168313 27.27887512 -2.60410463 27.29675585 -6.25 27.3125 C-7.81137695 27.32506836 -7.81137695 27.32506836 -9.40429688 27.33789062 C-10.39365234 27.34111328 -11.38300781 27.34433594 -12.40234375 27.34765625 C-13.77700806 27.35551147 -13.77700806 27.35551147 -15.17944336 27.36352539 C-17.3125 27.25 -17.3125 27.25 -18.3125 26.25 C-18.84223938 18.30390923 -18.61557618 8.2281096 -13.34375 1.87890625 C-8.90537433 -0.50614872 -4.95012219 -0.18191262 0 0 Z " fill="#FBFBFB" transform="translate(167.3125,40.75)"/>
<path d="M0 0 C0.495 0.99 0.495 0.99 1 2 C-1.90877264 7.5531114 -5.41062576 9.67248774 -10.953125 12.5078125 C-11.96632813 13.24644531 -11.96632813 13.24644531 -13 14 C-13 15.32 -13 16.64 -13 18 C-9.19804378 17.4568634 -7.49869657 15.84334437 -5 13 C-4.67 12.34 -4.34 11.68 -4 11 C-3.34 11.33 -2.68 11.66 -2 12 C-6.32595109 20.73982802 -11.68370813 26.49926403 -20.87109375 30.13671875 C-25.41215606 31.38962109 -29.97980734 31.71257722 -34.66015625 32.14453125 C-38.81147548 33.20785161 -40.40669703 34.62200756 -43 38 C-43.80095024 40.64009148 -43.80095024 40.64009148 -43.8125 43.3125 C-43.86019531 44.19550781 -43.90789063 45.07851563 -43.95703125 45.98828125 C-43.97121094 46.65214844 -43.98539063 47.31601562 -44 48 C-47.01010358 43.48484463 -46.77573833 39.28240862 -46 34 C-44.71433636 30.63512914 -43.07583182 28.86524261 -40 27 C-36.81243257 26.10873937 -33.64249188 25.37865963 -30.40673828 24.69750977 C-27.2307611 23.93494317 -25.29949525 23.32355109 -23.0546875 20.8984375 C-21.88240236 18.6349687 -20.91406656 16.37745196 -20 14 C-17.4962579 10.568946 -15.00881289 9.55893391 -11.125 8.125 C-6.12927575 6.27746884 -3.4607664 4.00720321 0 0 Z " fill="#F67522" transform="translate(54,14)"/>
<path d="M0 0 C-0.33386719 0.78632812 -0.66773437 1.57265625 -1.01171875 2.3828125 C-2.48065719 7.75924333 -1.98555166 12.95283645 -1.65820312 18.48046875 C-1.46914012 24.86982867 -2.78702499 29.09969973 -7 34 C-7.99 34.495 -7.99 34.495 -9 35 C-8.34 35.66 -7.68 36.32 -7 37 C-10.68251942 40.68251942 -13.61143841 41.67106079 -18.640625 42.05078125 C-22.32829299 41.97141091 -25.48267135 41.08717431 -29 40 C-27.61258945 37.2251789 -26.1409892 37.19250364 -23.25 36.1875 C-17.21756238 33.87262736 -13.56969437 30.35454155 -10 25 C-8.92493432 21.77480297 -8.79053546 19.13953569 -8.625 15.75 C-8.24747768 10.45878878 -7.65443176 6.59420882 -5 2 C-2 0 -2 0 0 0 Z " fill="#F25624" transform="translate(53,34)"/>
<path d="M0 0 C2.64 0 5.28 0 8 0 C7.33015012 7.86013724 5.69766584 15.38066256 3.9375 23.0625 C3.51500977 24.93325195 3.51500977 24.93325195 3.08398438 26.84179688 C2.39367318 29.89554639 1.69891018 32.9482092 1 36 C-1.64 36 -4.28 36 -7 36 C-6.30853757 28.57463638 -4.98718861 21.36672064 -3.5 14.0625 C-3.27441406 12.92748047 -3.04882812 11.79246094 -2.81640625 10.62304688 C-1.13139205 2.26278409 -1.13139205 2.26278409 0 0 Z " fill="#FBFBFB" transform="translate(143,32)"/>
<path d="M0 0 C2.64 0 5.28 0 8 0 C7.33015012 7.86013724 5.69766584 15.38066256 3.9375 23.0625 C3.51500977 24.93325195 3.51500977 24.93325195 3.08398438 26.84179688 C2.39367318 29.89554639 1.69891018 32.9482092 1 36 C-1.64 36 -4.28 36 -7 36 C-6.30853757 28.57463638 -4.98718861 21.36672064 -3.5 14.0625 C-3.27441406 12.92748047 -3.04882812 11.79246094 -2.81640625 10.62304688 C-1.13139205 2.26278409 -1.13139205 2.26278409 0 0 Z " fill="#FAFAFA" transform="translate(131,32)"/>
<path d="M0 0 C0.6875 1.6875 0.6875 1.6875 1 4 C-0.3992219 6.79844381 -1.78791383 8.78791383 -4 11 C-6.8203125 11.6328125 -6.8203125 11.6328125 -10.125 12.125 C-11.22070312 12.29257812 -12.31640625 12.46015625 -13.4453125 12.6328125 C-14.70988281 12.81457031 -14.70988281 12.81457031 -16 13 C-15.3046875 10.62890625 -15.3046875 10.62890625 -14 8 C-11.7578125 6.77734375 -11.7578125 6.77734375 -9.125 5.9375 C-5.20529981 4.54974488 -2.63704714 3.35624182 0 0 Z " fill="#F67222" transform="translate(30,26)"/>
</svg>
