<?xml version="1.0" encoding="UTF-8"?>
<svg version="1.1" xmlns="http://www.w3.org/2000/svg" width="85" height="75">
<path d="M0 0 C5.05748419 0.5405979 8.66449028 2.98973958 12.9140625 5.5703125 C29.40631652 16.57080162 29.40631652 16.57080162 47.9296875 19.640625 C52.0095817 17.98844676 55.36249718 15.48926013 58.75 12.71044922 C62.97090814 9.50171631 67.7811835 7.31850283 72.5 4.9375 C76.26871131 2.90612154 76.26871131 2.90612154 80.03320312 0.86694336 C82 0 82 0 85 0 C85.15135239 7.51352792 84.07652661 14.57343775 82.71118164 21.94580078 C82.31272946 24.12374576 81.94229923 26.3053527 81.57226562 28.48828125 C81.31681226 29.89093716 81.05970639 31.29329332 80.80078125 32.6953125 C80.57559814 33.95359863 80.35041504 35.21188477 80.1184082 36.50830078 C78.22672328 42.41418984 74.73779315 45.91207241 69.25 48.8125 C68.47140625 49.21082031 67.6928125 49.60914063 66.890625 50.01953125 C64.60669845 52.4119915 64.81473924 53.10063637 64.7265625 56.296875 C64.53201686 59.18370966 64.35124968 60.57805962 62.48242188 62.82299805 C60.43133397 64.49597368 58.33567791 65.98229724 56.125 67.4375 C55.02478516 68.2099707 55.02478516 68.2099707 53.90234375 68.99804688 C51.95207076 70.36039604 49.98434742 71.68799681 48 73 C47.01 73.66 46.02 74.32 45 75 C40.88635738 75.51233246 38.88555699 74.63537363 35.609375 72.19140625 C34.81789062 71.60939453 34.02640625 71.02738281 33.2109375 70.42773438 C32.39882813 69.81220703 31.58671875 69.19667969 30.75 68.5625 C29.50863281 67.64500977 29.50863281 67.64500977 28.2421875 66.70898438 C22.30406746 62.30406746 22.30406746 62.30406746 21 61 C21.03480469 60.4225 21.06960937 59.845 21.10546875 59.25 C21.2072851 56.4573231 21.00715478 54.6291189 20 52 C17.12375266 49.42719035 14.14766076 47.38925171 10.8828125 45.3359375 C3.9867916 39.74810484 3.7348995 30.33476298 2.3125 22.0625 C2.08755859 20.82564453 1.86261719 19.58878906 1.63085938 18.31445312 C0.54249358 12.12499294 -0.29104335 6.28496325 0 0 Z " fill="#110D0D" transform="translate(0,0)"/>
<path d="M0 0 C4.8274799 1.41292095 8.7162359 3.42974154 13 6 C13 8.97 13 11.94 13 15 C13.86625 14.2265625 13.86625 14.2265625 14.75 13.4375 C17 12 17 12 19.0625 12.1875 C21 13 21 13 24 15 C24 12.03 24 9.06 24 6 C25.78881736 4.99491199 27.58114696 3.99607264 29.375 3 C30.37273438 2.443125 31.37046875 1.88625 32.3984375 1.3125 C35 0 35 0 37 0 C36.80187611 3.93119508 36.57754702 7.85789614 36.3125 11.78515625 C36.07070012 15.44097357 35.94873623 19.08324648 35.875 22.74609375 C35.36833373 37.26202161 35.36833373 37.26202161 31.52734375 42.140625 C27.82220373 44.85479872 24.33933745 46.55355418 20 48 C19.13966908 36.18478865 19.13966908 36.18478865 22.1875 32.375 C24.79994651 30.16893406 26.73448771 28.93300351 30 28 C30 26.02 30 24.04 30 22 C29.32453125 22.44472656 28.6490625 22.88945313 27.953125 23.34765625 C27.06109375 23.91355469 26.1690625 24.47945312 25.25 25.0625 C24.36828125 25.63097656 23.4865625 26.19945313 22.578125 26.78515625 C20 28 20 28 17.96875 27.84375 C15.63392627 26.84311126 13.45395125 25.70153086 11.25 24.4375 C10.45078125 23.98246094 9.6515625 23.52742188 8.828125 23.05859375 C8.22484375 22.70925781 7.6215625 22.35992187 7 22 C7 23.98 7 25.96 7 28 C8.0828125 28.309375 8.0828125 28.309375 9.1875 28.625 C12.84291863 30.41209355 15.31542374 32.29393222 17 36 C17.41185638 40.03619249 17.29429269 43.95838041 17 48 C13.30702144 46.67078963 10.37857814 45.05493077 7.25 42.6875 C6.08210938 41.82705078 6.08210938 41.82705078 4.890625 40.94921875 C0.61283726 36.53885495 1.41905317 28.16604629 0.9375 22.3125 C0.84662109 21.27416016 0.75574219 20.23582031 0.66210938 19.16601562 C0.12793956 12.75999417 -0.12073442 6.42754279 0 0 Z " fill="#F4F4F4" transform="translate(24,19)"/>
<path d="M0 0 C5.05748419 0.5405979 8.66449028 2.98973958 12.9140625 5.5703125 C29.40631652 16.57080162 29.40631652 16.57080162 47.9296875 19.640625 C52.0095817 17.98844676 55.36249718 15.48926013 58.75 12.71044922 C62.97090814 9.50171631 67.7811835 7.31850283 72.5 4.9375 C76.26871131 2.90612154 76.26871131 2.90612154 80.03320312 0.86694336 C82 0 82 0 85 0 C85.15135239 7.51352792 84.07652661 14.57343775 82.71118164 21.94580078 C82.31272946 24.12374576 81.94229923 26.3053527 81.57226562 28.48828125 C81.31681226 29.89093716 81.05970639 31.29329332 80.80078125 32.6953125 C80.57559814 33.95359863 80.35041504 35.21188477 80.1184082 36.50830078 C78.22672328 42.41418984 74.73779315 45.91207241 69.25 48.8125 C68.47140625 49.21082031 67.6928125 49.60914063 66.890625 50.01953125 C64.60669845 52.4119915 64.81473924 53.10063637 64.7265625 56.296875 C64.53201686 59.18370966 64.35124968 60.57805962 62.48242188 62.82299805 C60.43133397 64.49597368 58.33567791 65.98229724 56.125 67.4375 C55.02478516 68.2099707 55.02478516 68.2099707 53.90234375 68.99804688 C51.95207076 70.36039604 49.98434742 71.68799681 48 73 C47.01 73.66 46.02 74.32 45 75 C40.88635738 75.51233246 38.88555699 74.63537363 35.609375 72.19140625 C34.81789062 71.60939453 34.02640625 71.02738281 33.2109375 70.42773438 C32.39882813 69.81220703 31.58671875 69.19667969 30.75 68.5625 C29.50863281 67.64500977 29.50863281 67.64500977 28.2421875 66.70898438 C22.30406746 62.30406746 22.30406746 62.30406746 21 61 C21.03480469 60.4225 21.06960937 59.845 21.10546875 59.25 C21.2072851 56.4573231 21.00715478 54.6291189 20 52 C17.12375266 49.42719035 14.14766076 47.38925171 10.8828125 45.3359375 C3.9867916 39.74810484 3.7348995 30.33476298 2.3125 22.0625 C2.08755859 20.82564453 1.86261719 19.58878906 1.63085938 18.31445312 C0.54249358 12.12499294 -0.29104335 6.28496325 0 0 Z M2 3 C2.12624756 3.72413086 2.25249512 4.44826172 2.38256836 5.19433594 C3.28985099 10.50080999 4.12048752 15.79405385 4.75390625 21.140625 C4.9540332 22.65269531 4.9540332 22.65269531 5.15820312 24.1953125 C5.42932304 26.24377407 5.67121523 28.29630168 5.88476562 30.3515625 C6.90178593 37.51212173 9.0319842 40.90270596 14.72631836 45.37011719 C15.4766333 45.90797852 16.22694824 46.44583984 17 47 C17.71357666 47.5662207 18.42715332 48.13244141 19.16235352 48.71582031 C20.89958099 50.19093723 20.89958099 50.19093723 23 50 C22.814375 50.59425781 22.62875 51.18851563 22.4375 51.80078125 C21.86625682 55.08032916 21.87336057 56.82607175 23 60 C28.51045781 65.56584827 36.01080684 69.58116177 43 73 C46.20451975 71.0989985 49.35390335 69.1209589 52.5 67.125 C53.40621094 66.58875 54.31242187 66.0525 55.24609375 65.5 C60.24273077 62.42267112 60.24273077 62.42267112 62.59375 57.32324219 C62.59375 54.81015388 62.42659862 52.47414724 62 50 C62.61278809 49.70416016 63.22557617 49.40832031 63.85693359 49.10351562 C66.35959538 47.81483582 68.41640942 46.24323538 70.625 44.5 C71.40101562 43.8915625 72.17703125 43.283125 72.9765625 42.65625 C76.88425223 39.45767771 77.44039828 37.64566579 78.2890625 32.671875 C78.50820312 31.39699219 78.72734375 30.12210938 78.953125 28.80859375 C79.11844727 27.80868408 79.11844727 27.80868408 79.28710938 26.78857422 C79.62168449 24.77000327 79.96993892 22.75416304 80.3203125 20.73828125 C81.27583093 15.0904848 82.1428487 9.74229982 82 4 C77.94613719 5.27324972 74.20585619 6.77344797 70.41015625 8.6796875 C69.37826172 9.19660156 68.34636719 9.71351562 67.28320312 10.24609375 C66.22037109 10.78363281 65.15753906 11.32117188 64.0625 11.875 C63.00353516 12.40480469 61.94457031 12.93460938 60.85351562 13.48046875 C54.38662153 16.73102469 54.38662153 16.73102469 48.18359375 20.4453125 C44.12176702 22.42887942 42.38612531 21.96502106 38 21 C35.29876594 19.92089667 32.7634807 18.59512133 30.203125 17.21875 C29.48767517 16.84520386 28.77222534 16.47165771 28.03509521 16.08679199 C25.76814281 14.9008948 23.50894269 13.70107283 21.25 12.5 C18.97535756 11.30183245 16.69921264 10.10659378 14.42205811 8.91320801 C13.01014927 8.17206676 11.59995851 7.427641 10.19171143 6.67956543 C7.48305753 5.24830412 4.91255622 3.97085207 2 3 Z " fill="#A81C30" transform="translate(0,0)"/>
<path d="M0 0 C2.02330411 0.59218657 4.0187415 1.27954236 6 2 C6.63421875 2.1753125 7.2684375 2.350625 7.921875 2.53125 C10.26651877 3.42260218 11.40790739 4.02967544 13 6 C13.91926338 10.67202092 14.04447549 15.24747613 14 20 C12.37258256 19.21331482 10.74813869 18.4204759 9.125 17.625 C8.22007813 17.18414063 7.31515625 16.74328125 6.3828125 16.2890625 C3.71870735 14.84782529 2.28645994 13.91596449 1.3671875 10.9765625 C1.20476563 10.20054688 1.04234375 9.42453125 0.875 8.625 C0.70742187 7.85414062 0.53984375 7.08328125 0.3671875 6.2890625 C0 4 0 4 0 0 Z " fill="#F0F0F0" transform="translate(7,10)"/>
<path d="M0 0 C-0.27773627 2.68478395 -0.61319975 5.33107827 -1 8 C-1.12375 9.03125 -1.2475 10.0625 -1.375 11.125 C-4.09761034 15.94192598 -9.11955554 17.6985195 -14 20 C-14.2860709 15.14344756 -14.26842515 10.71728361 -13 6 C-9.48408984 2.74244745 -4.92933271 0 0 0 Z " fill="#F0F0F0" transform="translate(78,10)"/>
<path d="M0 0 C3.7910119 1.44950455 7.3874638 3.15172566 11 5 C11 8.63 11 12.26 11 16 C3.13827781 11.69830295 3.13827781 11.69830295 1 9 C0.48828125 6.73828125 0.48828125 6.73828125 0.3125 4.3125 C0.24675781 3.50425781 0.18101563 2.69601563 0.11328125 1.86328125 C0.07589844 1.24839844 0.03851563 0.63351563 0 0 Z " fill="#EFEFEF" transform="translate(11,29)"/>
<path d="M0 0 C0.18146764 3.20108922 0.01065673 5.94385142 -1 9 C-3.68279666 11.84242563 -6.65059236 13.99679658 -10 16 C-10.33 16 -10.66 16 -11 16 C-11 12.37 -11 8.74 -11 5 C-2.25 0 -2.25 0 0 0 Z " fill="#EFEFEF" transform="translate(74,29)"/>
<path d="M0 0 C0.66 0.33 1.32 0.66 2 1 C1.34 1.66 0.68 2.32 0 3 C0.66 3.33 1.32 3.66 2 4 C1.67 4.99 1.34 5.98 1 7 C1 6.34 1 5.68 1 5 C0.21625 5.495 -0.5675 5.99 -1.375 6.5 C-4 8 -4 8 -6 8 C-5.8125 5.6875 -5.8125 5.6875 -5 3 C-2.5625 1.125 -2.5625 1.125 0 0 Z " fill="#282828" transform="translate(73,24)"/>
<path d="M0 0 C0.66 0 1.32 0 2 0 C3.01924246 6.21369499 3.62926746 10.48351346 0 16 C-1.08851848 12.60543496 -0.94374811 9.83786831 -0.5625 6.3125 C-0.46066406 5.33925781 -0.35882813 4.36601563 -0.25390625 3.36328125 C-0.17011719 2.58339844 -0.08632812 1.80351563 0 1 C0 0.67 0 0.34 0 0 Z " fill="#91182A" transform="translate(81,3)"/>
</svg>
