<?xml version="1.0" encoding="UTF-8"?>
<svg version="1.1" xmlns="http://www.w3.org/2000/svg" width="900" height="1049">
<path d="M0 0 C3.49189892 0.57560456 6.24356143 1.45734258 9.359375 3.125 C10.21112305 3.57568848 11.06287109 4.02637695 11.94042969 4.49072266 C13.33116699 5.23781494 13.33116699 5.23781494 14.75 6 C16.81191295 7.09225477 18.87445154 8.183329 20.9375 9.2734375 C22.0615625 9.86866211 23.185625 10.46388672 24.34375 11.07714844 C30.401506 14.27241655 36.5002065 17.38896131 42.59277344 20.51715088 C52.72236813 25.71922968 62.83996781 30.94065568 72.90576172 36.26538086 C79.87448266 39.94669348 86.87337938 43.56928901 93.875 47.1875 C94.48921814 47.50492157 95.10343628 47.82234314 95.73626709 48.14938354 C99.52273476 50.10593748 103.30966476 52.06159543 107.09667969 54.01708984 C112.69023803 56.90570784 118.28284334 59.79616952 123.875 62.6875 C124.4818866 63.0012558 125.08877319 63.3150116 125.71405029 63.63827515 C134.57319414 68.21909859 143.42033733 72.82245909 152.25927734 77.44213867 C159.99526275 81.48261111 167.74622721 85.49381672 175.5 89.5 C184.17581265 93.98257855 192.84536612 98.47661348 201.5 103 C210.07227062 107.47979056 218.65769785 111.93377857 227.25 116.375 C227.8599884 116.6903067 228.46997681 117.0056134 229.09844971 117.33047485 C231.56579492 118.60584127 234.03314808 119.88119232 236.5005188 121.1565094 C251.13915475 128.72361584 265.76922649 136.307141 280.375 143.9375 C288.98925523 148.43749532 297.61639358 152.91227026 306.25 157.375 C306.85980713 157.69021606 307.46961426 158.00543213 308.09790039 158.3302002 C310.56543811 159.60566474 313.03298637 160.88110891 315.50054932 162.15652466 C330.13917351 169.72362912 344.76923655 177.30714626 359.375 184.9375 C367.98925539 189.4374954 376.61641119 193.91223599 385.25 198.375 C385.85914246 198.68988373 386.46828491 199.00476746 387.09588623 199.32919312 C389.5610684 200.60349377 392.0262678 201.87776107 394.4914856 203.1519928 C399.85709361 205.92560855 405.22163697 208.70126809 410.58422852 211.48071289 C412.83888726 212.64857165 415.09456477 213.81446594 417.35131836 214.97827148 C422.64796661 217.71495836 427.91815835 220.48656665 433.14453125 223.35546875 C434.10423828 223.87657227 435.06394531 224.39767578 436.05273438 224.93457031 C437.83631316 225.90588233 439.61296129 226.8900802 441.38085938 227.88964844 C442.56325195 228.53015137 442.56325195 228.53015137 443.76953125 229.18359375 C444.44604736 229.56056396 445.12256348 229.93753418 445.81958008 230.32592773 C451.95131918 232.22154207 457.60263923 228.43124784 462.88671875 225.66015625 C463.74320511 225.21917099 464.59969147 224.77818573 465.48213196 224.32383728 C468.22129976 222.91106253 470.95437926 221.48693168 473.6875 220.0625 C475.47422805 219.13923563 477.26133443 218.21670303 479.04882812 217.29492188 C488.45108195 212.43871234 497.82096065 207.52176349 507.18101501 202.58482361 C514.17137793 198.90117547 521.19074192 195.27559637 528.22015381 191.66714478 C531.78080511 189.83906826 535.33970054 188.00758103 538.8984375 186.17578125 C539.59997955 185.81467758 540.30152161 185.45357391 541.02432251 185.08152771 C547.89925203 181.54059529 554.75636592 177.96595724 561.609375 174.3828125 C572.24572647 168.8222128 582.90379264 163.30359527 593.56054688 157.78222656 C599.2076695 154.8560486 604.8537896 151.92793765 610.5 149 C612.74999507 147.83332383 614.99999507 146.66665717 617.25 145.5 C618.36375 144.9225 619.4775 144.345 620.625 143.75 C630.74999999 138.50000001 630.74999999 138.50000001 634.12597656 136.74951172 C636.37274107 135.58451067 638.61948591 134.4194717 640.86621094 133.25439453 C646.54055217 130.31193025 652.21524895 127.3701554 657.890625 124.4296875 C668.39263836 118.98770799 678.89133505 113.53975513 689.375 108.0625 C697.98924133 103.5624782 706.61639368 99.08772969 715.25 94.625 C716.16471069 94.1521759 716.16471069 94.1521759 717.09790039 93.6697998 C719.56543811 92.39433526 722.03298637 91.11889109 724.50054932 89.84347534 C739.13917351 82.27637088 753.76923655 74.69285374 768.375 67.0625 C776.98925523 62.56250468 785.61639358 58.08772974 794.25 53.625 C795.16471069 53.1521759 795.16471069 53.1521759 796.09790039 52.6697998 C798.56543811 51.39433526 801.03298637 50.11889109 803.50054932 48.84347534 C819.0586907 40.80104735 834.60558843 32.73721371 850.12695312 24.62402344 C855.59833202 21.7666633 861.07708012 18.92403001 866.5625 16.09375 C867.21078766 15.7591124 867.85907532 15.42447479 868.52700806 15.07969666 C871.70635063 13.43873848 874.88644993 11.79927813 878.06787109 10.16235352 C883.85993774 7.17467611 889.60517083 4.16134437 895.21728516 0.84545898 C897 0 897 0 900 0 C900.28651666 7.09111032 899.18662786 13.67981338 897.92504883 20.64624023 C897.7008577 21.9156181 897.47666656 23.18499596 897.24568176 24.49283981 C896.62296181 28.01773439 895.99169814 31.54105305 895.35908723 35.06418395 C894.67086221 38.90608424 893.99079277 42.74942896 893.30973816 46.59260559 C892.11657872 53.31932196 890.91847448 60.04514244 889.71704102 66.77038574 C887.79265728 77.54274015 885.8771076 88.31665533 883.96289062 99.09082031 C883.29464487 102.85148138 882.62632923 106.61213002 881.95797729 110.37277222 C881.78961172 111.32015082 881.62124614 112.26752942 881.44777858 113.24361646 C880.22211393 120.13951228 878.99497748 127.03514537 877.7673645 133.93069458 C872.58069463 163.06813585 867.42428556 192.21084964 862.28140831 221.35605049 C861.01674939 228.52277733 859.75137012 235.68937684 858.48579407 242.85594177 C858.17399491 244.62160269 858.17399491 244.62160269 857.85589677 246.42293352 C857.01913867 251.1612947 856.18236187 255.89965258 855.34554684 260.63800371 C853.07501587 273.49470693 850.80544502 286.35157782 848.53872681 299.20895386 C846.77054691 309.23826347 844.99968425 319.26709535 843.22566074 329.29537302 C842.31447944 334.44663445 841.40449724 339.59809983 840.49785423 344.75016212 C834.18577122 380.61049905 834.18577122 380.61049905 831.203125 395.10839844 C831.0171022 396.02014454 830.83107941 396.93189064 830.63941956 397.87126541 C823.24071141 432.7308303 799.92364744 458.66211406 771.26464844 478.42480469 C767.49518427 481.04668727 763.77951531 483.74201633 760.0625 486.4375 C759.31742188 486.97665039 758.57234375 487.51580078 757.8046875 488.07128906 C755.53580605 489.71329421 753.26777766 491.35647082 751 493 C741.50233199 499.88325617 731.98567967 506.73384082 722.39208984 513.48291016 C714.98943845 518.69775416 707.6554336 524.00610789 700.32324219 529.31933594 C697.89808726 531.07372502 695.46906715 532.82264783 693.0390625 534.5703125 C692.22687256 535.15498291 691.41468262 535.73965332 690.57788086 536.34204102 C689.02729529 537.45806354 687.47606415 538.57318985 685.92407227 539.68725586 C685.22080811 540.19393799 684.51754395 540.70062012 683.79296875 541.22265625 C683.1796167 541.66359619 682.56626465 542.10453613 681.93432617 542.55883789 C681.29599854 543.03442139 680.6576709 543.51000488 680 544 C679.16130371 544.51035797 678.32260742 545.02071594 677.45849609 545.54653931 C674.07305204 548.92504942 674.02602368 552.14059409 673.72973633 556.6965332 C673.65419022 557.57344818 673.5786441 558.45036316 673.50080872 559.35385132 C673.25636123 562.25150657 673.04440848 565.15061439 672.83203125 568.05078125 C672.66682261 570.06872003 672.49936564 572.0864759 672.32975769 574.10404968 C671.88817739 579.4181702 671.47311882 584.7340171 671.0647583 590.05078125 C670.40741014 598.55034222 669.7096159 607.04667543 669.01251793 615.54305077 C668.77310735 618.50651571 668.54468496 621.47066726 668.31806946 624.43513489 C668.17294614 626.26186741 668.02762667 628.08858436 667.88208008 629.9152832 C667.82231995 630.7347493 667.76255981 631.55421539 667.70098877 632.39851379 C666.73898585 644.17967688 666.73898585 644.17967688 663.28271484 647.79760742 C662.59902832 648.22920166 661.9153418 648.6607959 661.2109375 649.10546875 C660.44265625 649.60755859 659.674375 650.10964844 658.8828125 650.62695312 C657.64144531 651.39942383 657.64144531 651.39942383 656.375 652.1875 C654.63073348 653.32363745 652.88857601 654.46301877 651.1484375 655.60546875 C650.27670898 656.17313965 649.40498047 656.74081055 648.50683594 657.32568359 C644.89142906 659.74041484 641.44504063 662.35040895 638 665 C632.28903282 669.359127 626.45245624 673.47734369 620.5 677.5 C613.82794988 682.01084233 607.32544059 686.68063047 600.91357422 691.55297852 C595.52586134 695.63703933 590.03150725 699.54997663 584.49560547 703.42993164 C579.29751032 707.07546432 574.14009163 710.77318427 569 714.5 C563.19446905 718.70704228 557.36478 722.8759547 551.5 727 C542.60923428 733.25432876 533.80166999 739.6211553 525 746 C515.50317587 752.88264459 505.9884349 759.7342194 496.39428711 766.48071289 C490.48051459 770.64529331 484.6177621 774.87801015 478.76123047 779.12255859 C472.70207899 783.50794054 466.6016967 787.83262008 460.48046875 792.13085938 C459.81917969 792.59556641 459.15789062 793.06027344 458.4765625 793.5390625 C457.86200195 793.96477539 457.24744141 794.39048828 456.61425781 794.82910156 C454.85230066 796.06260623 454.85230066 796.06260623 452.8359375 797.9609375 C451 799 451 799 448.6953125 798.51953125 C445.16882496 796.53141001 442.06271993 794.17423873 438.875 791.6875 C432.8753654 787.0913214 426.76578311 782.725583 420.5 778.5 C413.82748609 773.98987486 407.32540399 769.31934171 400.91357422 764.44702148 C395.52586134 760.36296067 390.03150725 756.45002337 384.49560547 752.57006836 C379.29751032 748.92453568 374.14009163 745.22681573 369 741.5 C363.19447116 737.29295925 357.364874 733.12390955 351.5 729 C344.87077288 724.33863251 338.29271463 719.61055569 331.73046875 714.85546875 C326.67917614 711.20004284 321.60039475 707.58653845 316.5 704 C306.84476537 697.2078953 297.28794068 690.28179787 287.72949219 683.35449219 C278.99874867 677.02911925 270.24492938 670.74184646 261.42504883 664.54125977 C255.17803802 660.14272756 248.98304377 655.67378238 242.79882812 651.1875 C241.72665039 650.41019531 241.72665039 650.41019531 240.6328125 649.6171875 C239.68752686 648.93052002 239.68752686 648.93052002 238.72314453 648.22998047 C237.17073682 647.12187193 235.58698718 646.05799145 234 645 C233.4691167 642.29677512 233.12887749 639.77931738 232.8984375 637.04736328 C232.78137955 635.84200267 232.78137955 635.84200267 232.66195679 634.61229134 C231.91098725 626.6557867 231.34306258 618.68369778 230.79782104 610.71090317 C230.43188606 605.48359174 230.02037618 600.25960738 229.61579895 595.0351696 C229.26556267 590.48045752 228.93274176 585.92567121 228.63525391 581.3671875 C228.34286877 576.90122759 228.0049618 572.44077893 227.63616943 567.98050308 C227.50504459 566.29692601 227.39015457 564.61199571 227.2925415 562.92614365 C226.9202776 553.4681913 226.9202776 553.4681913 222.76049805 545.24876404 C220.25952103 543.22292042 217.7913109 541.59225617 215 540 C213.63579684 539.03090276 212.2794819 538.05042334 210.9375 537.05078125 C209.62706642 536.13505658 208.31451759 535.22235237 207 534.3125 C205.52020852 533.27823714 204.04106346 532.2430489 202.5625 531.20703125 C201.81097656 530.68061035 201.05945313 530.15418945 200.28515625 529.61181641 C196.49917375 526.94140439 192.7501825 524.22034595 189 521.5 C183.19457335 517.29281581 177.36477784 513.12404378 171.5 509 C163.37802481 503.28648728 155.32506114 497.48052298 147.28369141 491.65429688 C144.20502365 489.42412233 141.12462255 487.19635506 138.04321289 484.9699707 C136.52212691 483.87057192 135.00177359 482.77015869 133.48217773 481.66870117 C130.068422 479.19765309 126.64678737 476.74342044 123.1796875 474.34765625 C103.73057177 460.86507568 88.04674389 444.0407686 77.6875 422.625 C77.38642334 422.01519287 77.08534668 421.40538574 76.77514648 420.77709961 C70.53831539 407.25968086 67.89030179 392.36045093 65.3671875 377.80078125 C65.02314699 375.8591975 64.67824355 373.9177665 64.33258057 371.97647095 C63.57456709 367.70811272 62.82280993 363.4387144 62.07574463 359.16842651 C60.83965172 352.10288785 59.59006633 345.03977005 58.33935547 337.97680664 C56.51474605 327.6647214 54.69601235 317.35161778 52.88124585 307.03779638 C48.9222727 284.53839101 44.94217398 262.04273229 40.96159315 239.54714131 C39.2307805 229.76544661 37.50037047 219.98368068 35.77001953 210.2019043 C35.48134628 208.57004364 35.48134628 208.57004364 35.18684125 206.9052161 C32.52719648 191.86991937 29.86943631 176.83429076 27.21381974 161.79828203 C26.66468285 158.68913823 26.11547971 155.58000615 25.56626701 152.47087574 C23.95287374 143.33683355 22.33998067 134.20270416 20.72928894 125.06818515 C19.85800682 120.12725555 18.98627611 115.18640519 18.11425781 110.24560547 C17.94381588 109.27988251 17.77337395 108.31415955 17.59776711 107.31917226 C15.19533335 93.71223196 12.77003277 80.10952417 10.32862401 66.50952566 C9.33204198 60.95447117 8.33879776 55.39881861 7.34545648 49.84318382 C6.41894029 44.66427697 5.48633485 39.48651617 4.54893494 34.30956888 C3.97994855 31.15933953 3.41662714 28.00811661 2.85485888 24.85659289 C2.59629314 23.41297922 2.33533497 21.96979157 2.07173109 20.52708936 C0.81032818 13.61816875 -0.35071187 7.03369042 0 0 Z " fill="#010101" transform="translate(0,0)"/>
<path d="M0 0 C0.89976562 0.44988281 1.79953125 0.89976562 2.7265625 1.36328125 C3.3347583 1.66733887 3.9429541 1.97139648 4.56958008 2.28466797 C5.9705885 2.98525538 7.37146189 3.68611288 8.7722168 4.38720703 C12.94272071 6.47402298 17.11592336 8.55521195 21.29296875 10.62890625 C30.55716858 15.23410663 39.78016366 19.8976295 48.91918945 24.74658203 C57.24288921 29.15220284 65.62231869 33.44827003 74 37.75 C77.05608446 39.32012788 80.11202324 40.89053921 83.16796875 42.4609375 C84.29507263 43.04011681 84.29507263 43.04011681 85.44494629 43.6309967 C87.63002035 44.75388859 89.81503258 45.87690064 92 47 C92.97915375 47.5032782 92.97915375 47.5032782 93.97808838 48.01672363 C95.22003284 48.65526847 96.46184817 49.29406452 97.70352173 49.93313599 C99.45683844 50.83538222 101.21083506 51.73630678 102.96484375 52.63720703 C105.17779744 53.78596756 107.38249312 54.95079325 109.578125 56.13232422 C114.79032101 58.92742015 119.88198972 61.39626122 125.44921875 63.40625 C131.39793533 65.70657067 136.86419236 67.98044477 141 73 C144.12037365 80.64504754 143.81022194 89.1450722 143.85157776 97.28657532 C143.90558427 104.17043489 144.40693765 110.97948961 145.00390625 117.8359375 C145.14889557 119.51359444 145.14889557 119.51359444 145.29681396 121.22514343 C145.49466519 123.50058525 145.69339763 125.77595061 145.89300537 128.05123901 C147.19765946 143.0528683 148.33621768 157.93461374 148 173 C155.68417597 167.52392857 163.35392143 162.0291553 171 156.5 C176.57623261 152.46923122 182.15519175 148.44246035 187.75 144.4375 C188.81734375 143.67308594 189.8846875 142.90867187 190.984375 142.12109375 C191.97953125 141.42113281 192.9746875 140.72117187 194 140 C195.01578125 139.20722656 196.0315625 138.41445313 197.078125 137.59765625 C200 136 200 136 202.36328125 136.38671875 C206.11404183 138.68162856 209.65436356 141.19705638 213.1875 143.8125 C214.79940661 144.99098467 216.41138793 146.16936715 218.0234375 147.34765625 C218.84682617 147.9523877 219.67021484 148.55711914 220.51855469 149.18017578 C224.43734648 152.05411065 228.37371203 154.90355908 232.3125 157.75 C233.0537915 158.28625 233.79508301 158.8225 234.55883789 159.375 C240.97789932 164.00770841 247.47190537 168.52263196 254 173 C253.98518082 171.98209381 253.97036163 170.96418762 253.95509338 169.91543579 C253.84819072 159.19838526 254.3950783 148.63744009 255.27734375 137.9609375 C255.40999323 136.29810687 255.54210782 134.6352335 255.67372131 132.97232056 C255.94791553 129.52498685 256.22641086 126.0780405 256.50854492 122.63134766 C256.86888068 118.22858803 257.2213185 113.82524184 257.57096004 109.42162132 C257.90777891 105.18450028 258.24875197 100.9477163 258.58984375 96.7109375 C258.65361647 95.91380718 258.71738918 95.11667686 258.78309441 94.29539108 C258.96499138 92.03055477 259.14988078 89.76598287 259.33569336 87.50146484 C259.4400621 86.21815277 259.54443085 84.9348407 259.65196228 83.61264038 C260.63679264 73.39007623 260.63679264 73.39007623 262.48510742 71.4050293 C263.12295166 71.06898682 263.7607959 70.73294434 264.41796875 70.38671875 C265.14290527 69.99145996 265.8678418 69.59620117 266.61474609 69.18896484 C267.40187988 68.79660645 268.18901367 68.40424805 269 68 C270.19423584 67.37859131 270.19423584 67.37859131 271.41259766 66.74462891 C274.03150174 65.4028667 276.66873341 64.1045347 279.3125 62.8125 C286.14805302 59.43290304 292.95407368 56.0164316 299.6875 52.4375 C308.75045274 47.62767498 317.87264962 42.93601678 327 38.25 C337.63454172 32.78905339 348.26449749 27.32006008 358.875 21.8125 C360.46223877 20.98903076 360.46223877 20.98903076 362.08154297 20.14892578 C366.70687516 17.74881035 371.33166099 15.34765004 375.95507812 12.94384766 C379.3519908 11.17782948 382.74994065 9.4138203 386.14849854 7.65097046 C387.45890912 6.97075718 388.76893184 6.28979613 390.07855225 5.60806274 C391.88734447 4.66654709 393.69754301 3.72773466 395.5078125 2.7890625 C397.06459717 1.98009521 397.06459717 1.98009521 398.65283203 1.15478516 C401 0 401 0 402 0 C402.12498728 7.08138248 401.63745674 13.97899875 400.94140625 21.0234375 C400.8327977 22.1642276 400.72418915 23.3050177 400.61228943 24.4803772 C400.26636765 28.11231581 399.91509296 31.74370337 399.5625 35.375 C397.59813392 55.52324615 397.59813392 55.52324615 396.32936096 75.72348022 C396.02700829 82.19274396 395.33390992 88.57776391 394.5 95 C393.49769009 103.16276916 392.74006904 111.24499099 392.4150238 119.46018982 C392.12870831 125.85719815 391.48638602 132.1837679 390.78515625 138.546875 C389.2415427 153.04645545 387.93466255 167.56508861 386.65234375 182.08984375 C386.49275618 183.89659828 386.49275618 183.89659828 386.32994461 185.73985291 C385.70753847 192.79271164 385.0874784 199.8457751 384.46817172 206.89890659 C383.37852787 219.30521743 382.28092125 231.7108278 381.18344355 244.11644769 C380.99571872 246.23861461 380.80806592 248.36078789 380.62041855 250.48296165 C377.96084303 280.55543862 375.24064686 310.6223012 372.5 340.6875 C372.39574078 341.83151653 372.29148155 342.97553307 372.18406296 344.15421677 C371.97763592 346.41920614 371.7711281 348.68418815 371.56453609 350.94916248 C371.36398504 353.15013366 371.16389274 355.35114669 370.96428013 357.55220318 C370.49202946 362.75205394 370.01201852 367.95089755 369.51222229 373.1481781 C368.73408282 381.31168698 367.97493244 389.45468447 367.61766815 397.64913082 C367.48258277 400.73426745 367.30775441 403.81663772 367.13166809 406.89966774 C367.03558853 408.92794331 367.00614234 410.95904583 366.9798584 412.98942566 C366.65304084 418.60351321 366.29791664 421.75718721 362.13517761 425.74319458 C358.92171456 428.11727494 355.48715847 430.05423755 352 432 C350.45873078 433.06500843 348.92924477 434.1478812 347.42578125 435.265625 C346.74805664 435.75635498 346.07033203 436.24708496 345.37207031 436.75268555 C344.69241211 437.24679932 344.01275391 437.74091309 343.3125 438.25 C341.77215235 439.36590879 340.23178724 440.48179349 338.69140625 441.59765625 C337.91812988 442.15855957 337.14485352 442.71946289 336.34814453 443.29736328 C332.48520431 446.0983765 328.61786106 448.89328744 324.75 451.6875 C323.99759033 452.23116211 323.24518066 452.77482422 322.4699707 453.33496094 C317.43141045 456.9731569 312.37899676 460.59133652 307.31835938 464.19873047 C299.51938454 469.76274195 291.76291881 475.38586232 284 481 C266.74643754 493.47776481 266.74643754 493.47776481 259 499 C253.61512805 502.84048374 248.24058308 506.69510646 242.875 510.5625 C242.11316406 511.11123779 241.35132813 511.65997559 240.56640625 512.2253418 C235.03480881 516.22177764 229.58497096 520.31273774 224.1875 524.48828125 C222 526 222 526 220 526 C219.95310047 511.75193305 219.91805707 497.50387823 219.89637566 483.2557497 C219.8859664 476.63881555 219.8718596 470.02193348 219.84912109 463.4050293 C219.82729057 457.01188334 219.81540991 450.61878729 219.81024551 444.22560692 C219.80656803 441.79414269 219.79938711 439.36268099 219.78853989 436.93123817 C219.68496177 412.73791614 219.68496177 412.73791614 222 402 C222.19141571 401.00353958 222.38283142 400.00707916 222.58004761 398.98042297 C225.28034282 385.45089602 232.24296424 372.53382562 241 362 C241.7528125 361.0615625 242.505625 360.123125 243.28125 359.15625 C251.26548793 349.79202033 260.96333847 343.01645864 271 336 C272.67969224 334.81901716 274.35937976 333.6380276 276.0390625 332.45703125 C279.37381539 330.11762066 282.7148983 327.78754177 286.05859375 325.4609375 C291.71731438 321.51288907 297.32624099 317.49557147 302.87915039 313.39990234 C305.95606746 311.13855785 308.95500662 309.02577187 312.2734375 307.125 C317.2812694 304.27054591 317.2812694 304.27054591 319.77539062 299.27734375 C319.90107422 298.19582031 320.02675781 297.11429687 320.15625 296 C320.30320312 294.750979 320.45015625 293.50195801 320.6015625 292.21508789 C321.46298252 283.44808445 322.06959971 274.66170473 322.67724609 265.87426758 C323.37920749 255.8227573 324.23129499 245.93100927 326 236 C311.59527722 244.38372626 297.22391334 252.81231454 283 261.5 C273.55700332 267.26718927 264.0592841 272.92769672 254.5 278.5 C242.27529148 285.62640874 230.16062085 292.92200585 218.08203125 300.29296875 C216.53636475 301.22568604 216.53636475 301.22568604 214.95947266 302.17724609 C213.01303736 303.37606526 211.08938471 304.61283189 209.19287109 305.88916016 C207.89663818 306.7426001 207.89663818 306.7426001 206.57421875 307.61328125 C205.83131592 308.12286377 205.08841309 308.63244629 204.32299805 309.1574707 C200.94323166 310.38327983 199.23595111 309.42828543 196 308 C194.10638714 306.97433516 192.24500301 305.88766764 190.4140625 304.75390625 C188.79407349 303.75907227 188.79407349 303.75907227 187.14135742 302.74414062 C186.56968842 302.38940674 185.99801941 302.03467285 185.4090271 301.66918945 C182.31052064 299.74708613 179.1993896 297.84557856 176.08984375 295.94140625 C175.43689835 295.54088043 174.78395294 295.14035461 174.11122131 294.72769165 C166.51531429 290.07559717 158.85306693 285.53605904 151.1875 281 C148.61838614 279.47934132 146.04935321 277.95854618 143.48046875 276.4375 C142.85907013 276.069664 142.23767151 275.701828 141.59744263 275.32284546 C137.24189738 272.7422624 132.8977154 270.14324552 128.55859375 267.53515625 C123.37953976 264.42221941 118.190766 261.32631783 112.9921875 258.24609375 C112.32437759 257.85032135 111.65656769 257.45454895 110.96852112 257.04678345 C108.25565311 255.4393894 105.54253094 253.83242793 102.82861328 252.22680664 C93.83171894 246.90283798 84.88323172 241.51193047 76 236 C76.06993164 236.54261475 76.13986328 237.08522949 76.21191406 237.64428711 C76.43120792 239.36496822 76.64662698 241.08614468 76.85961914 242.80761719 C77.12570197 244.9409392 77.40132681 247.07308759 77.68530273 249.20410156 C78.50899259 255.69561516 79.089949 262.10232242 79.34941101 268.63787842 C79.01614238 289.13169082 79.01614238 289.13169082 86.6640625 307.09765625 C90.30472127 310.04727723 94.28167881 312.03084767 98.57177734 313.87353516 C102.57922177 315.73260901 105.96816941 318.37387353 109.5 321 C110.89585003 321.98804063 112.29430861 322.97240604 113.6953125 323.953125 C119.80227784 328.2642547 125.85724593 332.64713822 131.90625 337.0390625 C134.31014222 338.78364545 136.72326102 340.50664077 139.15625 342.2109375 C161.52548487 357.95939309 176.03554432 378.84975649 181 406 C181.9796919 412.74649262 182.13786798 419.40272232 182.11352539 426.21118164 C182.11367142 427.29514221 182.11381744 428.37910278 182.1139679 429.49591064 C182.11327561 433.0506801 182.10551543 436.60539604 182.09765625 440.16015625 C182.09578964 442.63594026 182.09436688 445.11172464 182.09336853 447.58750916 C182.08956251 454.08280468 182.07974866 460.57807762 182.06866455 467.07336426 C182.05840917 473.70971411 182.05386208 480.34606619 182.04882812 486.98242188 C182.0381246 499.98829085 182.02126531 512.99414422 182 526 C179.35117625 524.69814767 176.93103787 523.34639082 174.5234375 521.63671875 C173.53162476 520.93494507 173.53162476 520.93494507 172.51977539 520.21899414 C171.81199951 519.71360107 171.10422363 519.20820801 170.375 518.6875 C169.62790771 518.15697021 168.88081543 517.62644043 168.11108398 517.07983398 C160.46643756 511.64146233 152.8632096 506.14561582 145.26611328 500.64111328 C141.51355215 497.92351837 137.75661955 495.21198061 134 492.5 C129.48608105 489.24130943 124.97312335 485.9813334 120.46484375 482.71484375 C113.17251766 477.43419383 105.86378114 472.18065668 98.5 467 C87.98498312 459.59946226 77.53490345 452.10784344 67.203125 444.453125 C66.39601074 443.8554834 65.58889648 443.2578418 64.75732422 442.64208984 C63.25173878 441.52532131 61.74791953 440.4061642 60.24658203 439.28369141 C59.53356934 438.75437012 58.82055664 438.22504883 58.0859375 437.6796875 C57.36890656 437.12549637 56.65187561 436.57130524 55.91311646 436.00032043 C53.62963815 434.43234731 51.60638686 433.29151102 49.13543701 432.11097717 C43.71234958 429.31569308 38.46090278 426.34938303 35.93387222 420.55570984 C33.96023351 413.21289632 33.68428827 405.62357094 33.2421875 398.06640625 C33.04158459 395.57914695 32.83425519 393.09242216 32.62063599 390.60624695 C32.18194739 385.33518966 31.78790292 380.06384336 31.43603516 374.78649902 C30.92840982 367.17806172 30.33524068 359.57813245 29.71958113 351.97775817 C28.78389596 340.41385293 27.90017674 328.84691978 27.05761719 317.27587891 C26.25476457 306.27282029 25.38769579 295.27940882 24.3828125 284.29296875 C24.26406769 282.99296432 24.14532288 281.6929599 24.02297974 280.3535614 C23.79376497 277.8607183 23.56370279 275.36795295 23.33270264 272.87527466 C22.8192243 267.28018821 22.33349546 261.68273816 21.84711075 256.08524132 C19.53986732 229.55565862 17.16996169 203.03151084 14.81614733 176.5060277 C14.3187195 170.90014485 13.82162627 165.29423236 13.32463288 159.68831098 C12.79233095 153.6842088 12.25976903 147.68012972 11.72710419 141.67605972 C11.50667716 139.19110898 11.2863223 136.70615184 11.06604767 134.22118759 C10.47233079 127.52397989 9.87688781 120.82693046 9.27888489 114.13010406 C8.99848604 110.98300791 8.72036996 107.83571474 8.44226074 104.68841553 C8.26598416 102.71137483 8.08959804 100.7343439 7.91308594 98.75732422 C7.83524998 97.86981539 7.75741402 96.98230656 7.67721939 96.06790352 C7.25355438 91.35191149 6.69906895 86.68505591 6 82 C5.84461899 80.12552374 5.71297377 78.24892419 5.60546875 76.37109375 C5.5389209 75.27539062 5.47237305 74.1796875 5.40380859 73.05078125 C5.33242676 71.85839844 5.26104492 70.66601562 5.1875 69.4375 C4.18238877 53.38847344 2.76816163 37.37948031 1.32104492 21.36499023 C1.23409866 20.39275009 1.1471524 19.42050995 1.05757141 18.41880798 C0.89367979 16.58791523 0.72754991 14.7572209 0.5587616 12.92677307 C0.17215046 8.60029462 -0.09113335 4.34962679 0 0 Z " fill="#FDFDFD" transform="translate(249,192)"/>
<path d="M0 0 C3.49189892 0.57560456 6.24356143 1.45734258 9.359375 3.125 C10.21112305 3.57568848 11.06287109 4.02637695 11.94042969 4.49072266 C13.33116699 5.23781494 13.33116699 5.23781494 14.75 6 C16.81191295 7.09225477 18.87445154 8.183329 20.9375 9.2734375 C22.0615625 9.86866211 23.185625 10.46388672 24.34375 11.07714844 C30.401506 14.27241655 36.5002065 17.38896131 42.59277344 20.51715088 C52.72236813 25.71922968 62.83996781 30.94065568 72.90576172 36.26538086 C79.87448266 39.94669348 86.87337938 43.56928901 93.875 47.1875 C94.48921814 47.50492157 95.10343628 47.82234314 95.73626709 48.14938354 C99.52273476 50.10593748 103.30966476 52.06159543 107.09667969 54.01708984 C112.69023803 56.90570784 118.28284334 59.79616952 123.875 62.6875 C124.4818866 63.0012558 125.08877319 63.3150116 125.71405029 63.63827515 C134.57319414 68.21909859 143.42033733 72.82245909 152.25927734 77.44213867 C159.99526275 81.48261111 167.74622721 85.49381672 175.5 89.5 C184.17581265 93.98257855 192.84536612 98.47661348 201.5 103 C210.07227062 107.47979056 218.65769785 111.93377857 227.25 116.375 C227.8599884 116.6903067 228.46997681 117.0056134 229.09844971 117.33047485 C231.56579492 118.60584127 234.03314808 119.88119232 236.5005188 121.1565094 C251.13915475 128.72361584 265.76922649 136.307141 280.375 143.9375 C288.98925523 148.43749532 297.61639358 152.91227026 306.25 157.375 C306.85980713 157.69021606 307.46961426 158.00543213 308.09790039 158.3302002 C310.56543811 159.60566474 313.03298637 160.88110891 315.50054932 162.15652466 C330.13917351 169.72362912 344.76923655 177.30714626 359.375 184.9375 C367.98925539 189.4374954 376.61641119 193.91223599 385.25 198.375 C385.85914246 198.68988373 386.46828491 199.00476746 387.09588623 199.32919312 C389.5610684 200.60349377 392.0262678 201.87776107 394.4914856 203.1519928 C399.85709361 205.92560855 405.22163697 208.70126809 410.58422852 211.48071289 C412.83888726 212.64857165 415.09456477 213.81446594 417.35131836 214.97827148 C422.64796661 217.71495836 427.91815835 220.48656665 433.14453125 223.35546875 C434.10423828 223.87657227 435.06394531 224.39767578 436.05273438 224.93457031 C437.83631316 225.90588233 439.61296129 226.8900802 441.38085938 227.88964844 C442.56325195 228.53015137 442.56325195 228.53015137 443.76953125 229.18359375 C444.44604736 229.56056396 445.12256348 229.93753418 445.81958008 230.32592773 C451.95131918 232.22154207 457.60263923 228.43124784 462.88671875 225.66015625 C463.74320511 225.21917099 464.59969147 224.77818573 465.48213196 224.32383728 C468.22129976 222.91106253 470.95437926 221.48693168 473.6875 220.0625 C475.47422805 219.13923563 477.26133443 218.21670303 479.04882812 217.29492188 C488.45108195 212.43871234 497.82096065 207.52176349 507.18101501 202.58482361 C514.17137793 198.90117547 521.19074192 195.27559637 528.22015381 191.66714478 C531.78080511 189.83906826 535.33970054 188.00758103 538.8984375 186.17578125 C539.59997955 185.81467758 540.30152161 185.45357391 541.02432251 185.08152771 C547.89925203 181.54059529 554.75636592 177.96595724 561.609375 174.3828125 C572.24572647 168.8222128 582.90379264 163.30359527 593.56054688 157.78222656 C599.2076695 154.8560486 604.8537896 151.92793765 610.5 149 C612.74999507 147.83332383 614.99999507 146.66665717 617.25 145.5 C618.36375 144.9225 619.4775 144.345 620.625 143.75 C630.74999999 138.50000001 630.74999999 138.50000001 634.12597656 136.74951172 C636.37274107 135.58451067 638.61948591 134.4194717 640.86621094 133.25439453 C646.54055217 130.31193025 652.21524895 127.3701554 657.890625 124.4296875 C668.39263836 118.98770799 678.89133505 113.53975513 689.375 108.0625 C697.98924133 103.5624782 706.61639368 99.08772969 715.25 94.625 C716.16471069 94.1521759 716.16471069 94.1521759 717.09790039 93.6697998 C719.56543811 92.39433526 722.03298637 91.11889109 724.50054932 89.84347534 C739.13917351 82.27637088 753.76923655 74.69285374 768.375 67.0625 C776.98925523 62.56250468 785.61639358 58.08772974 794.25 53.625 C795.16471069 53.1521759 795.16471069 53.1521759 796.09790039 52.6697998 C798.56543811 51.39433526 801.03298637 50.11889109 803.50054932 48.84347534 C819.0586907 40.80104735 834.60558843 32.73721371 850.12695312 24.62402344 C855.59833202 21.7666633 861.07708012 18.92403001 866.5625 16.09375 C867.21078766 15.7591124 867.85907532 15.42447479 868.52700806 15.07969666 C871.70635063 13.43873848 874.88644993 11.79927813 878.06787109 10.16235352 C883.85993774 7.17467611 889.60517083 4.16134437 895.21728516 0.84545898 C897 0 897 0 900 0 C900.28651666 7.09111032 899.18662786 13.67981338 897.92504883 20.64624023 C897.7008577 21.9156181 897.47666656 23.18499596 897.24568176 24.49283981 C896.62296181 28.01773439 895.99169814 31.54105305 895.35908723 35.06418395 C894.67086221 38.90608424 893.99079277 42.74942896 893.30973816 46.59260559 C892.11657872 53.31932196 890.91847448 60.04514244 889.71704102 66.77038574 C887.79265728 77.54274015 885.8771076 88.31665533 883.96289062 99.09082031 C883.29464487 102.85148138 882.62632923 106.61213002 881.95797729 110.37277222 C881.78961172 111.32015082 881.62124614 112.26752942 881.44777858 113.24361646 C880.22211393 120.13951228 878.99497748 127.03514537 877.7673645 133.93069458 C872.58069463 163.06813585 867.42428556 192.21084964 862.28140831 221.35605049 C861.01674939 228.52277733 859.75137012 235.68937684 858.48579407 242.85594177 C858.17399491 244.62160269 858.17399491 244.62160269 857.85589677 246.42293352 C857.01913867 251.1612947 856.18236187 255.89965258 855.34554684 260.63800371 C853.07501587 273.49470693 850.80544502 286.35157782 848.53872681 299.20895386 C846.77054691 309.23826347 844.99968425 319.26709535 843.22566074 329.29537302 C842.31447944 334.44663445 841.40449724 339.59809983 840.49785423 344.75016212 C834.18577122 380.61049905 834.18577122 380.61049905 831.203125 395.10839844 C831.0171022 396.02014454 830.83107941 396.93189064 830.63941956 397.87126541 C823.24071141 432.7308303 799.92364744 458.66211406 771.26464844 478.42480469 C767.49518427 481.04668727 763.77951531 483.74201633 760.0625 486.4375 C759.31742188 486.97665039 758.57234375 487.51580078 757.8046875 488.07128906 C755.53580605 489.71329421 753.26777766 491.35647082 751 493 C741.50233199 499.88325617 731.98567967 506.73384082 722.39208984 513.48291016 C714.98943845 518.69775416 707.6554336 524.00610789 700.32324219 529.31933594 C697.89808726 531.07372502 695.46906715 532.82264783 693.0390625 534.5703125 C692.22687256 535.15498291 691.41468262 535.73965332 690.57788086 536.34204102 C689.02729529 537.45806354 687.47606415 538.57318985 685.92407227 539.68725586 C685.22080811 540.19393799 684.51754395 540.70062012 683.79296875 541.22265625 C683.1796167 541.66359619 682.56626465 542.10453613 681.93432617 542.55883789 C681.29599854 543.03442139 680.6576709 543.51000488 680 544 C679.16130371 544.51035797 678.32260742 545.02071594 677.45849609 545.54653931 C674.07305204 548.92504942 674.02602368 552.14059409 673.72973633 556.6965332 C673.65419022 557.57344818 673.5786441 558.45036316 673.50080872 559.35385132 C673.25636123 562.25150657 673.04440848 565.15061439 672.83203125 568.05078125 C672.66682261 570.06872003 672.49936564 572.0864759 672.32975769 574.10404968 C671.88817739 579.4181702 671.47311882 584.7340171 671.0647583 590.05078125 C670.40741014 598.55034222 669.7096159 607.04667543 669.01251793 615.54305077 C668.77310735 618.50651571 668.54468496 621.47066726 668.31806946 624.43513489 C668.17294614 626.26186741 668.02762667 628.08858436 667.88208008 629.9152832 C667.82231995 630.7347493 667.76255981 631.55421539 667.70098877 632.39851379 C666.73898585 644.17967688 666.73898585 644.17967688 663.28271484 647.79760742 C662.59902832 648.22920166 661.9153418 648.6607959 661.2109375 649.10546875 C660.44265625 649.60755859 659.674375 650.10964844 658.8828125 650.62695312 C657.64144531 651.39942383 657.64144531 651.39942383 656.375 652.1875 C654.63073348 653.32363745 652.88857601 654.46301877 651.1484375 655.60546875 C650.27670898 656.17313965 649.40498047 656.74081055 648.50683594 657.32568359 C644.89142906 659.74041484 641.44504063 662.35040895 638 665 C632.28903282 669.359127 626.45245624 673.47734369 620.5 677.5 C613.82794988 682.01084233 607.32544059 686.68063047 600.91357422 691.55297852 C595.52586134 695.63703933 590.03150725 699.54997663 584.49560547 703.42993164 C579.29751032 707.07546432 574.14009163 710.77318427 569 714.5 C563.19446905 718.70704228 557.36478 722.8759547 551.5 727 C542.60923428 733.25432876 533.80166999 739.6211553 525 746 C515.50317587 752.88264459 505.9884349 759.7342194 496.39428711 766.48071289 C490.48051459 770.64529331 484.6177621 774.87801015 478.76123047 779.12255859 C472.70207899 783.50794054 466.6016967 787.83262008 460.48046875 792.13085938 C459.81917969 792.59556641 459.15789062 793.06027344 458.4765625 793.5390625 C457.86200195 793.96477539 457.24744141 794.39048828 456.61425781 794.82910156 C454.85230066 796.06260623 454.85230066 796.06260623 452.8359375 797.9609375 C451 799 451 799 448.6953125 798.51953125 C445.16882496 796.53141001 442.06271993 794.17423873 438.875 791.6875 C432.8753654 787.0913214 426.76578311 782.725583 420.5 778.5 C413.82748609 773.98987486 407.32540399 769.31934171 400.91357422 764.44702148 C395.52586134 760.36296067 390.03150725 756.45002337 384.49560547 752.57006836 C379.29751032 748.92453568 374.14009163 745.22681573 369 741.5 C363.19447116 737.29295925 357.364874 733.12390955 351.5 729 C344.87077288 724.33863251 338.29271463 719.61055569 331.73046875 714.85546875 C326.67917614 711.20004284 321.60039475 707.58653845 316.5 704 C306.84476537 697.2078953 297.28794068 690.28179787 287.72949219 683.35449219 C278.99874867 677.02911925 270.24492938 670.74184646 261.42504883 664.54125977 C255.17803802 660.14272756 248.98304377 655.67378238 242.79882812 651.1875 C241.72665039 650.41019531 241.72665039 650.41019531 240.6328125 649.6171875 C239.68752686 648.93052002 239.68752686 648.93052002 238.72314453 648.22998047 C237.17073682 647.12187193 235.58698718 646.05799145 234 645 C233.4691167 642.29677512 233.12887749 639.77931738 232.8984375 637.04736328 C232.78137955 635.84200267 232.78137955 635.84200267 232.66195679 634.61229134 C231.91098725 626.6557867 231.34306258 618.68369778 230.79782104 610.71090317 C230.43188606 605.48359174 230.02037618 600.25960738 229.61579895 595.0351696 C229.26556267 590.48045752 228.93274176 585.92567121 228.63525391 581.3671875 C228.34286877 576.90122759 228.0049618 572.44077893 227.63616943 567.98050308 C227.50504459 566.29692601 227.39015457 564.61199571 227.2925415 562.92614365 C226.9202776 553.4681913 226.9202776 553.4681913 222.76049805 545.24876404 C220.25952103 543.22292042 217.7913109 541.59225617 215 540 C213.63579684 539.03090276 212.2794819 538.05042334 210.9375 537.05078125 C209.62706642 536.13505658 208.31451759 535.22235237 207 534.3125 C205.52020852 533.27823714 204.04106346 532.2430489 202.5625 531.20703125 C201.81097656 530.68061035 201.05945313 530.15418945 200.28515625 529.61181641 C196.49917375 526.94140439 192.7501825 524.22034595 189 521.5 C183.19457335 517.29281581 177.36477784 513.12404378 171.5 509 C163.37802481 503.28648728 155.32506114 497.48052298 147.28369141 491.65429688 C144.20502365 489.42412233 141.12462255 487.19635506 138.04321289 484.9699707 C136.52212691 483.87057192 135.00177359 482.77015869 133.48217773 481.66870117 C130.068422 479.19765309 126.64678737 476.74342044 123.1796875 474.34765625 C103.73057177 460.86507568 88.04674389 444.0407686 77.6875 422.625 C77.38642334 422.01519287 77.08534668 421.40538574 76.77514648 420.77709961 C70.53831539 407.25968086 67.89030179 392.36045093 65.3671875 377.80078125 C65.02314699 375.8591975 64.67824355 373.9177665 64.33258057 371.97647095 C63.57456709 367.70811272 62.82280993 363.4387144 62.07574463 359.16842651 C60.83965172 352.10288785 59.59006633 345.03977005 58.33935547 337.97680664 C56.51474605 327.6647214 54.69601235 317.35161778 52.88124585 307.03779638 C48.9222727 284.53839101 44.94217398 262.04273229 40.96159315 239.54714131 C39.2307805 229.76544661 37.50037047 219.98368068 35.77001953 210.2019043 C35.48134628 208.57004364 35.48134628 208.57004364 35.18684125 206.9052161 C32.52719648 191.86991937 29.86943631 176.83429076 27.21381974 161.79828203 C26.66468285 158.68913823 26.11547971 155.58000615 25.56626701 152.47087574 C23.95287374 143.33683355 22.33998067 134.20270416 20.72928894 125.06818515 C19.85800682 120.12725555 18.98627611 115.18640519 18.11425781 110.24560547 C17.94381588 109.27988251 17.77337395 108.31415955 17.59776711 107.31917226 C15.19533335 93.71223196 12.77003277 80.10952417 10.32862401 66.50952566 C9.33204198 60.95447117 8.33879776 55.39881861 7.34545648 49.84318382 C6.41894029 44.66427697 5.48633485 39.48651617 4.54893494 34.30956888 C3.97994855 31.15933953 3.41662714 28.00811661 2.85485888 24.85659289 C2.59629314 23.41297922 2.33533497 21.96979157 2.07173109 20.52708936 C0.81032818 13.61816875 -0.35071187 7.03369042 0 0 Z M23 32 C23.69910531 37.85285766 24.54648566 43.66598278 25.48828125 49.484375 C25.63275192 50.38005188 25.7772226 51.27572876 25.92607117 52.19854736 C26.23206339 54.09131536 26.538866 55.98395251 26.84643555 57.87646484 C27.30432739 60.69961151 27.75676875 63.52359564 28.20898438 66.34765625 C28.51007862 68.20578398 28.81150156 70.06385847 29.11328125 71.921875 C29.24261551 72.73412537 29.37194977 73.54637573 29.50520325 74.38323975 C30.3112542 79.30136568 31.23185255 84.1865187 32.23168373 89.0690403 C35.45191909 104.81960652 38.18507659 120.65854484 40.9756217 136.48947716 C41.75912746 140.93154223 42.54518085 145.37315651 43.33096313 149.81481934 C44.67305838 157.40267538 46.01368291 164.99079006 47.35354614 172.57904053 C49.27062174 183.43526551 51.19282317 194.29057898 53.11629617 205.14567208 C59.23482271 239.67672783 65.34859345 274.20847195 71.37855786 308.75511777 C72.93747794 317.68389286 74.50565948 326.61104293 76.07501698 335.53798866 C77.38325748 342.98460892 78.67885616 350.43327895 79.96463776 357.88380814 C80.75277007 362.43276973 81.55294751 366.97955069 82.35654831 371.52580261 C82.71624423 373.57497754 83.07102942 375.62502271 83.42006302 377.67604065 C88.64623137 408.34862944 100.60344013 435.83493773 126.375 454.6875 C127.06416504 455.19804932 127.75333008 455.70859863 128.46337891 456.23461914 C134.79104926 460.89925709 141.21642639 465.42409448 147.65234375 469.9375 C154.39069748 474.67001113 161.04847388 479.51464648 167.71630859 484.34570312 C171.55879112 487.12918202 175.4040997 489.90874599 179.25 492.6875 C180.00273193 493.23140381 180.75546387 493.77530762 181.53100586 494.33569336 C186.56843408 497.97301042 191.61907054 501.59122906 196.67944336 505.1965332 C201.40635708 508.56749255 206.10993926 511.97018155 210.8125 515.375 C217.67863459 520.34509657 224.58201315 525.25937457 231.51879883 530.13037109 C232.18032959 530.59523926 232.84186035 531.06010742 233.5234375 531.5390625 C234.43947754 532.18149902 234.43947754 532.18149902 235.37402344 532.83691406 C236.72455943 533.80297314 238.0427286 534.81409043 239.3515625 535.8359375 C240.93595089 537.19227839 240.93595089 537.19227839 243 537 C242.97396446 537.87655998 242.97396446 537.87655998 242.94740295 538.77082825 C242.80324293 547.93141545 243.6651969 556.96296825 244.49609375 566.07421875 C244.6510229 567.81049748 244.80556199 569.54681105 244.95973206 571.28315735 C245.28214415 574.90331651 245.60768084 578.52317516 245.93579102 582.14282227 C246.35479022 586.76547432 246.76831964 591.38859393 247.17980862 596.01191998 C247.57500884 600.44952301 247.97295758 604.88687833 248.37109375 609.32421875 C248.44593931 610.1609934 248.52078487 610.99776806 248.59789848 611.85989952 C248.81172302 614.24487344 249.02750422 616.62966214 249.24389648 619.0144043 C249.30575638 619.70706894 249.36761627 620.39973358 249.43135071 621.11338806 C249.61068367 623.07655216 249.80520093 625.03831019 250 627 C250.10762177 628.0924951 250.10762177 628.0924951 250.21741772 629.20706081 C250.55786774 633.33778257 250.55786774 633.33778257 252.48022461 636.89526367 C253.11452393 637.31525635 253.74882324 637.73524902 254.40234375 638.16796875 C255.11841797 638.66167969 255.83449219 639.15539062 256.57226562 639.6640625 C257.35279297 640.16679688 258.13332031 640.66953125 258.9375 641.1875 C260.59289152 642.31575567 262.24782706 643.44468059 263.90234375 644.57421875 C264.7516748 645.14188965 265.60100586 645.70956055 266.47607422 646.29443359 C270.38556685 648.93630973 274.18836975 651.71972236 278 654.5 C279.49815648 655.58278078 280.9968565 656.66480991 282.49609375 657.74609375 C285.51092519 659.92329023 288.52374694 662.10322917 291.53515625 664.28515625 C299.52272269 670.06925609 307.53862129 675.80802761 315.60571289 681.48071289 C321.52979108 685.65255074 327.40240075 689.89313377 333.26953125 694.14453125 C338.32082386 697.79995716 343.39960525 701.41346155 348.5 705 C358.15523463 711.7921047 367.71205932 718.71820213 377.27050781 725.64550781 C386.00933434 731.97673685 394.77224649 738.26835014 403.59912109 744.47631836 C409.58591883 748.69287118 415.52501413 752.97341225 421.45629883 757.26757812 C428.2824052 762.20920409 435.13739527 767.10921018 442 772 C442.58475098 772.48210938 443.16950195 772.96421875 443.77197266 773.4609375 C445.47198349 774.81837804 447.06479843 776.00576536 449 777 C453.6445666 776.33753047 457.48481535 772.52736036 461.125 769.6875 C467.18354005 765.04429495 473.35882056 760.64207377 479.6875 756.375 C485.08800121 752.72684053 490.37375003 749.02544152 495.5 745 C501.40704673 740.36142963 507.55953801 736.16062464 513.78125 731.95703125 C518.9643218 728.43847535 524.01976436 724.79943277 529 721 C534.71291103 716.6432675 540.54737531 712.52277014 546.5 708.5 C553.17205012 703.98915767 559.67455941 699.31936953 566.08642578 694.44702148 C571.47413866 690.36296067 576.96849275 686.45002337 582.50439453 682.57006836 C587.70248968 678.92453568 592.85990837 675.22681573 598 671.5 C603.80552915 667.29295902 609.63513584 663.1239241 615.5 659 C623.65985539 653.26209372 631.74902842 647.42886552 639.82275391 641.57055664 C642 640 642 640 643.74107361 639.18547058 C645.97077136 637.988564 647.37354223 636.95434457 649 635 C650.34884917 630.51804279 650.60740923 626.01003778 650.92578125 621.35546875 C651.04267856 619.98497006 651.16246119 618.61471476 651.28495789 617.2447052 C651.60057158 613.62759403 651.87711826 610.00851915 652.14544678 606.38763428 C652.41823978 602.79487965 652.7270237 599.2052703 653.03320312 595.61523438 C653.5620529 589.35896837 654.05866149 583.10069679 654.54086494 576.84068108 C654.87472633 572.53307914 655.23374894 568.22833823 655.61083984 563.92431641 C655.75249825 562.29783928 655.75249825 562.29783928 655.89701843 560.63850403 C656.07006815 558.66644669 656.24605233 556.69464318 656.42585754 554.72319031 C656.93983601 548.80034091 657.09571589 542.94422135 657 537 C657.67546875 536.78085937 658.3509375 536.56171875 659.046875 536.3359375 C662.89026579 534.59726072 665.93091041 532.20302474 669.25 529.625 C674.88323185 525.32369661 680.56853179 521.12709545 686.375 517.0625 C692.34563639 512.87803372 698.2822516 508.65132242 704.1875 504.375 C710.00352561 500.16380105 715.83098534 495.97007442 721.67919922 491.80371094 C727.17686011 487.88287415 732.64367125 483.91972708 738.11279297 479.95922852 C742.55447173 476.74863144 747.01697099 473.57087381 751.50439453 470.42456055 C772.09247476 455.98730558 791.66693661 442.1467686 803.875 419.5625 C804.21990479 418.93214844 804.56480957 418.30179687 804.92016602 417.65234375 C811.58667324 404.70303637 814.24059473 390.83760084 816.625 376.625 C816.91299349 374.95814828 817.202053 373.29148039 817.4921875 371.625 C818.03340596 368.50839592 818.56815401 365.39083448 819.09619141 362.27197266 C820.21485117 355.70562653 821.38105672 349.147625 822.54190826 342.58863831 C823.02945209 339.83356868 823.51651033 337.07841353 824.003479 334.32324219 C825.18549461 327.63599369 826.36809385 320.94884847 827.55078125 314.26171875 C827.77107939 313.0161042 827.99137753 311.77048965 828.21835136 310.48712921 C829.78968342 301.6026627 831.36120017 292.71822886 832.93282509 283.83381414 C833.31253679 281.68729203 833.69224127 279.54076864 834.07194519 277.39424515 C843.05851886 226.59228307 852.063043 175.79351985 861.0793457 124.99682617 C861.30366996 123.73297781 861.52799421 122.46912945 861.75911617 121.16698265 C862.80370204 115.28180869 863.84837884 109.39665092 864.89329529 103.51153564 C865.26383959 101.4242784 865.63436929 99.33701857 866.00488281 97.24975586 C866.17918194 96.26793492 866.35348106 95.28611399 866.53306198 94.2745409 C867.58235999 88.36134258 868.62673409 82.44729468 869.66821289 76.53271484 C870.62450982 71.10466681 871.59840306 65.68059291 872.60546875 60.26171875 C872.8693174 58.83141281 873.1329848 57.40107342 873.39648438 55.97070312 C873.79636931 53.80248778 874.19737656 51.63450455 874.60131836 49.46704102 C875.00177677 47.31585147 875.39776487 45.16387894 875.79296875 43.01171875 C876.0252417 41.75834717 876.25751465 40.50497559 876.49682617 39.21362305 C877.10312703 35.88348749 877.10312703 35.88348749 877 32 C873.42147406 32.58274342 870.62370291 33.52656808 867.4296875 35.23046875 C866.54764648 35.69630371 865.66560547 36.16213867 864.75683594 36.64208984 C863.80583008 37.1520752 862.85482422 37.66206055 861.875 38.1875 C859.79454205 39.28827316 857.71380137 40.3885121 855.6328125 41.48828125 C854.00134277 42.35380615 854.00134277 42.35380615 852.33691406 43.23681641 C846.825049 46.14921686 841.28697025 49.01070283 835.75 51.875 C833.46347386 53.05976497 831.17701604 54.24466182 828.890625 55.4296875 C827.75173828 56.01975586 826.61285156 56.60982422 825.43945312 57.21777344 C819.79233051 60.1439514 814.14619796 63.07203838 808.5 66 C801.70362839 69.52440977 794.90703095 73.0483804 788.109375 76.5703125 C777.60736164 82.01229201 767.10866495 87.46024487 756.625 92.9375 C748.01075867 97.4375218 739.38360632 101.91227031 730.75 106.375 C729.83528931 106.8478241 729.83528931 106.8478241 728.90209961 107.3302002 C726.43456189 108.60566474 723.96701363 109.88110891 721.49945068 111.15652466 C706.86082649 118.72362912 692.23076345 126.30714626 677.625 133.9375 C669.01074477 138.43749532 660.38360642 142.91227026 651.75 147.375 C650.83528931 147.8478241 650.83528931 147.8478241 649.90209961 148.3302002 C647.43456189 149.60566474 644.96701363 150.88110891 642.49945068 152.15652466 C627.86082649 159.72362912 613.23076345 167.30714626 598.625 174.9375 C590.01074477 179.43749532 581.38360642 183.91227026 572.75 188.375 C571.83528931 188.8478241 571.83528931 188.8478241 570.90209961 189.3302002 C568.43456189 190.60566474 565.96701363 191.88110891 563.49945068 193.15652466 C548.86082649 200.72362912 534.23076345 208.30714626 519.625 215.9375 C509.79589265 221.07212115 499.94961436 226.17325649 490.09667969 231.26196289 C483.81179081 234.50835601 477.53096514 237.76222765 471.2578125 241.03125 C469.39559721 242.0006836 467.53331351 242.96998571 465.67102051 243.93927002 C463.90975621 244.85689195 462.14968973 245.7768118 460.38964844 246.69677734 C459.33036133 247.2480127 458.27107422 247.79924805 457.1796875 248.3671875 C456.24882324 248.85300293 455.31795898 249.33881836 454.35888672 249.83935547 C452 251 452 251 449 252 C446.42578125 250.95874023 446.42578125 250.95874023 443.3125 249.30859375 C442.15282715 248.70072021 440.9931543 248.09284668 439.79833984 247.46655273 C438.53217062 246.79030655 437.26605887 246.11395276 436 245.4375 C434.6888556 244.74644828 433.37716127 244.05643901 432.06494141 243.36743164 C429.36025786 241.94601151 426.65819767 240.51978094 423.95800781 239.08984375 C418.11704381 236.0003848 412.24482809 232.97168957 406.375 229.9375 C404.14825271 228.7829084 401.92169051 227.62795977 399.6953125 226.47265625 C395.16987811 224.12512857 390.64379841 221.77885199 386.1171875 219.43359375 C375.61251145 213.99042425 365.11124553 208.54110337 354.625 203.0625 C346.01075867 198.5624782 337.38360632 194.08772969 328.75 189.625 C328.14019287 189.30978394 327.53038574 188.99456787 326.90209961 188.6697998 C324.43456189 187.39433526 321.96701363 186.11889109 319.49945068 184.84347534 C304.86082649 177.27637088 290.23076345 169.69285374 275.625 162.0625 C267.01074477 157.56250468 258.38360642 153.08772974 249.75 148.625 C249.14019287 148.30978394 248.53038574 147.99456787 247.90209961 147.6697998 C245.43456189 146.39433526 242.96701363 145.11889109 240.49945068 143.84347534 C225.86082649 136.27637088 211.23076345 128.69285374 196.625 121.0625 C188.01074477 116.56250468 179.38360642 112.08772974 170.75 107.625 C170.14019287 107.30978394 169.53038574 106.99456787 168.90209961 106.6697998 C166.43456189 105.39433526 163.96701363 104.11889109 161.49945068 102.84347534 C146.86082649 95.27637088 132.23076345 87.69285374 117.625 80.0625 C109.01074477 75.56250468 100.38360642 71.08772974 91.75 66.625 C91.14019287 66.30978394 90.53038574 65.99456787 89.90209961 65.6697998 C87.43456189 64.39433526 84.96701363 63.11889109 82.49945068 61.84347534 C76.03914849 58.50396878 69.5816338 55.15909325 63.125 51.8125 C62.02567139 51.24329834 60.92634277 50.67409668 59.79370117 50.08764648 C54.29947859 47.24043637 48.81326194 44.37921208 43.33984375 41.4921875 C42.28200684 40.9355542 41.22416992 40.3789209 40.13427734 39.80541992 C38.13916552 38.75458491 36.1458883 37.70025662 34.15478516 36.6418457 C32.82713135 35.94321411 32.82713135 35.94321411 31.47265625 35.23046875 C30.70187744 34.82207764 29.93109863 34.41368652 29.13696289 33.99291992 C27.09395203 33.04365394 25.19940783 32.4609799 23 32 Z " fill="#B01731" transform="translate(0,0)"/>
<path d="M0 0 C-3.11479209 18.57872437 -6.45206841 37.1156951 -9.828125 55.6484375 C-10.04563919 56.84260536 -10.26315338 58.03677322 -10.48725891 59.26712799 C-12.07297164 67.97009298 -13.66126235 76.67258679 -15.25 85.375 C-16.85339647 94.15810844 -18.45588469 102.94138078 -20.05617523 111.72505569 C-20.69157384 115.21008183 -21.32856757 118.69481391 -21.96563721 122.17953491 C-22.35379679 124.30896614 -22.74188271 126.4384108 -23.12988281 128.56787109 C-23.30544708 129.5257251 -23.48101135 130.4835791 -23.66189575 131.47045898 C-23.8243277 132.36372894 -23.98675964 133.2569989 -24.15411377 134.17733765 C-24.30501433 135.0058662 -24.4559149 135.83439476 -24.61138821 136.68803024 C-24.96578398 138.79643849 -25.23127144 140.89627612 -25.47492981 143.01968384 C-26 146 -26 146 -28.27124023 148.1171875 C-29.27356689 148.69726562 -30.27589355 149.27734375 -31.30859375 149.875 C-32.99758789 150.87563477 -32.99758789 150.87563477 -34.72070312 151.89648438 C-35.95938372 152.59810079 -37.19832305 153.2992606 -38.4375 154 C-39.71541537 154.74595624 -40.99209333 155.49403601 -42.26757812 156.24414062 C-45.53743916 158.15932958 -48.82265452 160.04613665 -52.11444092 161.92333984 C-54.968918 163.55325522 -57.81416459 165.19907498 -60.66015625 166.84375 C-63.8361527 168.67703887 -67.01348321 170.50771852 -70.19604492 172.32958984 C-79.49497799 177.66277041 -88.6540158 183.20882663 -97.80273438 188.79370117 C-105.87816879 193.72214497 -113.99427097 198.57601387 -122.15014648 203.37036133 C-129.44035024 207.65779442 -136.6912722 212.00854582 -143.921875 216.39575195 C-144.70691406 216.86972412 -145.49195313 217.34369629 -146.30078125 217.83203125 C-146.99341064 218.25202393 -147.68604004 218.6720166 -148.3996582 219.10473633 C-150 220 -150 220 -151 220 C-151.06782794 216.13380764 -151.08482524 212.57515649 -150.51953125 208.7421875 C-149.96113977 204.72008949 -149.77556486 200.73878591 -149.625 196.6875 C-149.28259688 188.96779671 -148.51043844 181.35470043 -147.5625 173.6875 C-146.44298279 164.52769192 -145.62006491 155.39832144 -145.0625 146.1875 C-144.25334849 132.93819912 -143.1675195 119.72225573 -142 106.5 C-141.91614044 105.5342807 -141.83228088 104.5685614 -141.74588013 103.57357788 C-141.27528119 98.1690855 -140.77001338 92.76991257 -140.22363281 87.37255859 C-140.01477921 85.15679519 -139.85663986 82.9433069 -139.7109375 80.72265625 C-139.60007812 79.48386719 -139.48921875 78.24507813 -139.375 76.96875 C-139.30023437 75.92138672 -139.22546875 74.87402344 -139.1484375 73.79492188 C-137.35987974 69.44215631 -134.05481354 68.11239484 -130 66 C-129.23239349 65.58823517 -128.46478699 65.17647034 -127.67391968 64.75222778 C-125.14388525 63.41717108 -122.59673646 62.12107674 -120.04296875 60.83203125 C-119.10052811 60.35231369 -118.15808746 59.87259613 -117.18708801 59.37834167 C-114.18897221 57.85292755 -111.1883968 56.33243474 -108.1875 54.8125 C-104.26336479 52.82089242 -100.34032454 50.82714083 -96.41796875 48.83203125 C-95.45307526 48.34144226 -94.48818176 47.85085327 -93.49404907 47.34539795 C-85.72756409 43.38876457 -78.00939064 39.34517199 -70.30395508 35.27124023 C-64.14106124 32.01360451 -57.94569514 28.81972411 -51.75 25.625 C-49.25751423 24.33781653 -46.76543391 23.04984933 -44.2734375 21.76171875 C-43.66041779 21.44487625 -43.04739807 21.12803375 -42.415802 20.80158997 C-36.39713924 17.68994703 -30.38398092 14.56780162 -24.375 11.4375 C-23.03646973 10.74164795 -23.03646973 10.74164795 -21.67089844 10.03173828 C-16.16610866 7.16080428 -10.73098987 4.1917701 -5.33447266 1.12133789 C-3 0 -3 0 0 0 Z " fill="#FDFDFD" transform="translate(828,101)"/>
<path d="M0 0 C10.08683498 4.67631543 20.07289305 9.47645009 29.88598633 14.70458984 C38.0501015 19.04906834 46.27435861 23.27363131 54.5 27.5 C63.9831447 32.37520267 73.45843068 37.26156279 82.88061523 42.25390625 C87.5576684 44.727513 92.25194199 47.16612636 96.95703125 49.5859375 C119.90180267 61.38694904 119.90180267 61.38694904 129.75 66.75 C130.48806885 67.14380859 131.2261377 67.53761719 131.98657227 67.94335938 C136.88258041 70.64774124 136.88258041 70.64774124 138 74 C138.28515796 76.40149447 138.52943496 78.79110877 138.74023438 81.19921875 C138.84045647 82.29526428 138.84045647 82.29526428 138.94270325 83.41345215 C139.1633672 85.83782017 139.37871009 88.26262712 139.59375 90.6875 C139.74665146 92.38649401 139.89977184 94.08546833 140.05310059 95.78442383 C140.37483057 99.35868048 140.69394354 102.93315878 141.01123047 106.5078125 C141.41317455 111.03403052 141.82136838 115.55965718 142.23162079 120.08512878 C142.54994554 123.60450501 142.86483866 127.12418236 143.17878723 130.64395142 C143.32765001 132.30857423 143.47750308 133.97310885 143.62846375 135.63754272 C144.49963649 145.26677207 145.2213516 154.88193902 145.63779449 164.54277039 C145.85279613 169.25102751 146.31367068 173.83615209 147 178.5 C147.97287722 185.12997811 148.39066602 191.70415053 148.65820312 198.39257812 C148.85000743 202.99196719 149.32408313 207.44033126 150 212 C150.10751986 214.6793948 150.0470821 217.31632049 150 220 C142.70659619 216.5049549 135.77867289 212.58138716 128.875 208.375 C126.67104608 207.04218601 124.46659356 205.71019626 122.26171875 204.37890625 C121.68402237 204.02964584 121.10632599 203.68038544 120.51112366 203.32054138 C113.26200095 198.94181655 105.97317044 194.63002158 98.6875 190.3125 C89.36444045 184.78454777 80.04929845 179.24466437 70.76391602 173.65356445 C65.48226552 170.47772419 60.18550743 167.32802238 54.8828125 164.1875 C54.16405945 163.76162598 53.4453064 163.33575195 52.70477295 162.89697266 C49.09998885 160.76125019 45.49418546 158.62728184 41.88671875 156.49609375 C40.55204398 155.70579563 39.21740691 154.91543382 37.8828125 154.125 C37.27736603 153.76817139 36.67191956 153.41134277 36.04812622 153.04370117 C34.35803754 152.04147601 32.67879363 151.0210323 31 150 C29.98356415 149.4787001 28.9671283 148.95740021 27.91989136 148.42030334 C23.88630661 145.07685749 23.6794305 142.29378388 22.98046875 137.26733398 C22.83599808 136.38569391 22.6915274 135.50405384 22.54267883 134.5956974 C22.23159784 132.67898802 21.93235189 130.7603289 21.64355469 128.84013557 C21.17966452 125.75650878 20.68599391 122.67899916 20.18359375 119.60142517 C19.65507736 116.36367209 19.12817554 113.12576944 18.61019897 109.88631153 C16.92651303 99.3772278 15.01983918 88.91447622 13.06726074 78.4525032 C12.50000153 75.41016444 11.93722111 72.36703157 11.37597656 69.32357788 C9.86425889 61.12636157 8.34764487 52.93006539 6.82373047 44.73510742 C5.86904084 39.59967413 4.92038365 34.46315723 3.97558594 29.32589531 C3.62065254 27.40260928 3.2634431 25.4797417 2.90380859 23.55732918 C2.40804111 20.90650447 1.91996361 18.25436925 1.43359375 15.60180664 C1.28719955 14.82962296 1.14080536 14.05743927 0.98997498 13.26185608 C0.1749321 8.7634662 -0.13828935 4.57219162 0 0 Z " fill="#FDFDFD" transform="translate(73,101)"/>
<path d="M0 0 C0.89408569 -0.00686325 1.78817139 -0.0137265 2.70935059 -0.02079773 C5.6311889 -0.03892894 8.55248339 -0.03524887 11.47436523 -0.02954102 C13.52359692 -0.03410844 15.57282709 -0.03941568 17.62205505 -0.04542542 C21.90288544 -0.05432894 26.18352898 -0.05196377 30.46435547 -0.04199219 C35.93391842 -0.03048911 41.40283703 -0.0507489 46.87231541 -0.07990932 C51.09925896 -0.09830263 55.32604884 -0.09797289 59.55302238 -0.0922718 C61.56913089 -0.09211907 63.58525013 -0.09812399 65.60132027 -0.11056328 C68.42472334 -0.12553586 71.24694496 -0.11475144 74.0703125 -0.09765625 C74.89186325 -0.10732422 75.713414 -0.11699219 76.55986023 -0.12695312 C84.94693637 -0.02126915 93.43856672 3.4692254 99.47045898 9.40405273 C106.98008759 19.13139244 109.56002851 27.90965188 108.15322876 40.16836548 C107.6986545 43.27107618 107.19854786 46.36259209 106.67749023 49.45483398 C106.4895842 50.59002975 106.30167816 51.72522552 106.108078 52.89482117 C105.70923907 55.28648914 105.30644122 57.67749992 104.89990234 60.06787109 C104.28703317 63.69245747 103.69753692 67.32034751 103.10913086 70.94897461 C102.71667883 73.2845015 102.32284308 75.61979639 101.92749023 77.95483398 C101.75643265 79.02397537 101.58537506 80.09311676 101.40913391 81.19465637 C98.81503434 96.07093733 92.44595601 108.04712481 80.81811523 117.80249023 C74.02194397 122.43881339 65.80290881 126.49908602 57.44343567 126.55122375 C56.25568039 126.56195671 56.25568039 126.56195671 55.04393005 126.57290649 C53.75423058 126.57693985 53.75423058 126.57693985 52.43847656 126.58105469 C51.52575989 126.58762589 50.61304321 126.59419708 49.67266846 126.60096741 C46.6534415 126.62066997 43.63426425 126.63235693 40.61499023 126.64233398 C39.58179846 126.64640951 38.54860668 126.65048504 37.48410606 126.65468407 C32.01430843 126.67553292 26.54453579 126.68983917 21.07470703 126.69921875 C15.43688572 126.7102741 9.79946007 126.74466758 4.16177845 126.78439045 C-0.18352471 126.81058821 -4.52873409 126.81891346 -8.87410927 126.82250023 C-10.95163962 126.82735883 -13.02916599 126.83895201 -15.10661888 126.85753822 C-18.02158966 126.88199419 -20.93554309 126.88095264 -23.85058594 126.87402344 C-24.70026443 126.8868335 -25.54994293 126.89964355 -26.42536926 126.9128418 C-35.36385616 126.8358292 -42.2607011 123.35783409 -48.74047852 117.32983398 C-55.70559763 109.83244595 -57.98626868 101.89564269 -57.83227539 91.7878418 C-57.38600494 83.42735071 -55.7792781 75.15916315 -54.33129883 66.92651367 C-53.77986649 63.78090936 -53.25114317 60.63207522 -52.72485352 57.48217773 C-49.73842879 39.95049709 -46.38382629 22.06326533 -31.52954102 10.40405273 C-21.55877819 3.62506384 -12.07841835 -0.06634659 0 0 Z M-2.83422852 38.02124023 C-5.04975896 42.44209131 -5.85398525 46.67730443 -6.65454102 51.52905273 C-6.90155762 52.93574219 -6.90155762 52.93574219 -7.15356445 54.37084961 C-7.4771017 56.22237958 -7.79500514 58.0749047 -8.10668945 59.9284668 C-8.4526225 61.95373304 -8.83375172 63.97295964 -9.22485352 65.98999023 C-11.73004986 78.03891801 -11.73004986 78.03891801 -9.39672852 89.70874023 C-6.24938232 93.67999904 -3.43704831 95.06750464 1.47045898 96.40405273 C4.50194551 96.69386732 7.51651706 96.70820874 10.56030273 96.70483398 C11.85442833 96.71126167 11.85442833 96.71126167 13.17469788 96.71781921 C14.99259568 96.72354153 16.81051637 96.72407831 18.62841797 96.71972656 C21.3958271 96.71656659 24.16216614 96.74005165 26.92944336 96.76538086 C28.70222848 96.76765421 30.47501645 96.76835718 32.24780273 96.76733398 C33.06780258 96.77654373 33.88780243 96.78575348 34.73265076 96.79524231 C41.32818102 96.74263593 45.95235584 95.40708932 51.22045898 91.21655273 C56.63792854 84.44471579 57.48784619 75.86900004 58.83300781 67.5324707 C59.15647137 65.53822432 59.49711801 63.5474544 59.83959961 61.55639648 C62.34022422 49.0330337 62.34022422 49.0330337 59.78295898 36.96655273 C56.92320579 33.79763703 54.66760543 31.69251181 50.29498291 31.11843872 C47.5808953 30.9900487 44.88290855 30.96213647 42.16577148 30.97045898 C41.16842987 30.96521713 40.17108826 30.95997528 39.14352417 30.95457458 C37.03717986 30.94816153 34.93079971 30.94948209 32.82446289 30.95800781 C29.61335932 30.96650536 26.40404265 30.93776553 23.19311523 30.90600586 C21.14233452 30.90439331 19.09155066 30.9049724 17.04077148 30.90795898 C16.08639191 30.89672501 15.13201233 30.88549103 14.14871216 30.87391663 C6.83267389 30.94981218 2.16377612 32.34554006 -2.83422852 38.02124023 Z " fill="#FFFFFF" transform="translate(546.529541015625,922.595947265625)"/>
<path d="M0 0 C0.80849773 0.03758391 1.61699547 0.07516783 2.44999313 0.11389065 C15.27470514 0.80904759 31.0234899 2.60279848 40.29199219 12.33569336 C47.11399212 21.33740547 47.28330612 31.69222651 46.22949219 42.58569336 C43.88287264 58.22982368 36.22512242 71.98916562 23.54199219 81.58569336 C20.45206975 83.4513069 17.70528011 84.65316489 14.22949219 85.58569336 C17.64752245 94.59008318 21.75743196 103.25686687 25.89501953 111.94580078 C26.77714926 113.80130686 27.65218852 115.66002486 28.52636719 117.51928711 C29.04553711 118.61297607 29.56470703 119.70666504 30.09960938 120.83349609 C31.22949219 123.58569336 31.22949219 123.58569336 31.22949219 126.58569336 C15.05949219 126.58569336 -1.11050781 126.58569336 -17.77050781 126.58569336 C-22.39050781 115.03569336 -27.01050781 103.48569336 -31.77050781 91.58569336 C-42.66050781 91.25569336 -53.55050781 90.92569336 -64.77050781 90.58569336 C-65.22425781 93.78256836 -65.67800781 96.97944336 -66.14550781 100.27319336 C-66.6844222 104.04442506 -67.22673389 107.81515945 -67.77050781 111.58569336 C-67.9300293 112.69364258 -67.9300293 112.69364258 -68.09277344 113.82397461 C-68.35618684 115.6409895 -68.62555374 117.4571387 -68.89550781 119.27319336 C-69.04246094 120.26706055 -69.18941406 121.26092773 -69.34082031 122.28491211 C-69.77050781 124.58569336 -69.77050781 124.58569336 -70.77050781 126.58569336 C-85.62050781 126.58569336 -100.47050781 126.58569336 -115.77050781 126.58569336 C-114.53467246 117.9348459 -113.27129421 109.32338629 -111.79931641 100.71508789 C-111.61370651 99.62064362 -111.42809662 98.52619934 -111.23686218 97.39859009 C-110.63262061 93.8382655 -110.02581019 90.27838415 -109.41894531 86.71850586 C-108.99565909 84.22747469 -108.57253551 81.73641588 -108.14956665 79.24533081 C-107.15579642 73.39484875 -106.16040584 67.5446439 -105.16420043 61.69457614 C-104.02849164 55.02473589 -102.89489802 48.35453668 -101.76146579 41.68430924 C-99.43346925 27.98437514 -97.10286932 14.28488497 -94.77050781 0.58569336 C-84.16377949 0.4304913 -73.55697689 0.28234268 -62.95003128 0.14272976 C-58.02262295 0.07766157 -53.09526886 0.01033656 -48.16796875 -0.0625 C-43.39582383 -0.13295406 -38.62362884 -0.19701821 -33.85134125 -0.25700188 C-32.04805235 -0.28072358 -30.2447901 -0.30658992 -28.44156647 -0.33484077 C-18.94521517 -0.48213496 -9.48863767 -0.45296352 0 0 Z M-54.77050781 32.58569336 C-55.88650242 36.38375854 -56.96576027 40.12527269 -57.62207031 44.03100586 C-57.75097656 44.79799805 -57.87988281 45.56499023 -58.01269531 46.35522461 C-58.13902344 47.1325293 -58.26535156 47.90983398 -58.39550781 48.71069336 C-58.52957031 49.49573242 -58.66363281 50.28077148 -58.80175781 51.08959961 C-58.92808594 51.85401367 -59.05441406 52.61842773 -59.18457031 53.40600586 C-59.29752441 54.08937012 -59.41047852 54.77273438 -59.52685547 55.47680664 C-59.8023197 57.86103516 -59.80973348 60.18769744 -59.77050781 62.58569336 C-53.6690534 62.66024588 -47.56786835 62.71448519 -41.46606445 62.75048828 C-39.39342627 62.76550857 -37.32081952 62.78593083 -35.24829102 62.81201172 C-32.25691945 62.8486936 -29.26597072 62.86548771 -26.27441406 62.87866211 C-25.35841934 62.89414597 -24.44242462 62.90962982 -23.49867249 62.92558289 C-15.9292704 62.92753143 -8.87699539 61.9824332 -3.27050781 56.52319336 C-0.0211948 52.24206507 0.59415729 47.86909701 0.22949219 42.58569336 C-0.54891187 38.96442231 -1.85286722 36.37541972 -4.71459961 33.91259766 C-9.29273205 31.92472917 -13.60372955 32.21646394 -18.54003906 32.29272461 C-19.57617844 32.29696945 -20.61231781 32.30121429 -21.67985535 32.30558777 C-24.98117324 32.32234731 -28.28187519 32.35999526 -31.58300781 32.39819336 C-33.82453544 32.41324369 -36.06607266 32.42693148 -38.30761719 32.43920898 C-43.79545667 32.47224188 -49.28293823 32.52241443 -54.77050781 32.58569336 Z " fill="#FFFFFF" transform="translate(438.7705078125,922.414306640625)"/>
<path d="M0 0 C23.43 0 46.86 0 71 0 C70.38905922 6.72034861 69.75314013 13.22535257 68.625 19.84375 C68.49561035 20.62012817 68.3662207 21.39650635 68.23291016 22.19641113 C67.96255656 23.81323326 67.69025085 25.42973016 67.41601562 27.04589844 C66.99627566 29.52197013 66.58363821 31.99915306 66.171875 34.4765625 C65.90666238 36.05736091 65.64105206 37.63809266 65.375 39.21875 C65.25205566 39.9562146 65.12911133 40.6936792 65.00244141 41.45349121 C64.50008441 44.39920868 63.94678551 47.15964347 63 50 C81.81 50 100.62 50 120 50 C120.33 46.37 120.66 42.74 121 39 C121.42427887 36.11183661 121.87000084 33.24780322 122.375 30.375 C122.50438965 29.62081787 122.6337793 28.86663574 122.76708984 28.08959961 C123.03733007 26.51982662 123.30963455 24.95040763 123.58398438 23.38134766 C124.00388614 20.97775504 124.41647712 18.57298735 124.828125 16.16796875 C125.09332715 14.6327394 125.35893707 13.09758041 125.625 11.5625 C125.74794434 10.84690918 125.87088867 10.13131836 125.99755859 9.39404297 C126.50556276 6.50227307 127.06977092 3.79068723 128 1 C150.275 0.505 150.275 0.505 173 0 C169.49716398 21.55625675 169.49716398 21.55625675 167.9609375 30.99414062 C166.92688441 37.34694875 165.89310282 43.6997999 164.86132812 50.05297852 C160.69194533 75.72344988 156.43566587 101.37401138 152 127 C137.15 127 122.3 127 107 127 C107.60923733 120.29838942 108.23873511 113.85398745 109.41015625 107.26953125 C109.52709839 106.59257202 109.64404053 105.91561279 109.76452637 105.21813965 C110.19239694 102.74875882 110.62785679 100.28069776 111.0625 97.8125 C112.031875 92.264375 113.00125 86.71625 114 81 C95.52 81 77.04 81 58 81 C56.515 91.395 56.515 91.395 55 102 C54.31058286 106.4217789 53.61250749 110.83675516 52.875 115.25 C52.70613281 116.2915625 52.53726563 117.333125 52.36328125 118.40625 C52.11771484 119.88351562 52.11771484 119.88351562 51.8671875 121.390625 C51.72394043 122.25719727 51.58069336 123.12376953 51.43310547 124.01660156 C51 126 51 126 50 127 C48.58774954 127.0928726 47.17091066 127.11746772 45.75561523 127.11352539 C44.85475693 127.11344986 43.95389862 127.11337433 43.02574158 127.11329651 C42.04658279 127.10813522 41.06742401 127.10297394 40.05859375 127.09765625 C39.06118668 127.0962413 38.0637796 127.09482635 37.03614807 127.09336853 C33.83656876 127.08775114 30.63705831 127.07519571 27.4375 127.0625 C25.27408955 127.05748724 23.11067801 127.05292395 20.94726562 127.04882812 C15.63148675 127.03777607 10.31574829 127.02102104 5 127 C6.54637609 117.69855964 8.09363133 108.39726608 9.64200497 99.09615803 C10.36097054 94.77714898 11.07963472 90.45809023 11.79760742 86.13891602 C12.49067156 81.96965537 13.1845309 77.80052777 13.87893867 73.63149071 C14.14355274 72.04196052 14.40788164 70.45238284 14.67191887 68.86275673 C15.04215873 66.63404487 15.41341778 64.405505 15.78491211 62.17700195 C15.99587021 60.90903275 16.20682831 59.64106354 16.42417908 58.33467102 C16.90529347 55.54846067 17.44549262 52.77253688 18 50 C25.92 49.505 25.92 49.505 34 49 C33.22398438 47.99324219 32.44796875 46.98648438 31.6484375 45.94921875 C24.97490403 37.26840339 18.39346806 28.52857149 11.93505859 19.6862793 C11.39187988 18.94418213 10.84870117 18.20208496 10.2890625 17.4375 C9.75829102 16.71046875 9.22751953 15.9834375 8.68066406 15.234375 C6.31702468 12.09201189 3.81581603 9.063115 1.29833984 6.04296875 C0 4 0 4 0 0 Z " fill="#FFFFFF" transform="translate(0,922)"/>
<path d="M0 0 C1.41449133 0.00138269 1.41449133 0.00138269 2.85755825 0.00279331 C3.93594463 0.00141865 5.01433102 0.00004398 6.12539577 -0.00137234 C7.31869503 0.00222294 8.51199429 0.00581821 9.74145412 0.00952244 C10.99005718 0.00937641 12.23866024 0.00923038 13.52509975 0.00907993 C16.95883867 0.00965892 20.39251812 0.01468828 23.8262465 0.02165389 C27.41105332 0.02788785 30.99586086 0.02849126 34.58067226 0.0296793 C41.37342918 0.03279249 48.16617009 0.04100571 54.95891994 0.05102879 C62.69035367 0.0621903 70.42178815 0.06770047 78.15322793 0.07272422 C94.06147082 0.08318834 109.96969771 0.10078754 125.87792873 0.12304783 C125.56219149 2.3512399 125.24572514 4.57932866 124.92895412 6.807374 C124.75280071 8.04815205 124.5766473 9.28893009 124.39515591 10.56730747 C123.76930307 14.86980804 123.07233097 19.1544447 122.31542873 23.43554783 C122.18974514 24.17482517 122.06406155 24.91410252 121.93456936 25.6757822 C120.9986214 31.00235517 120.9986214 31.00235517 119.87792873 32.12304783 C117.32202985 32.21810835 114.79324902 32.24861544 112.23705959 32.23657322 C111.03715137 32.23679226 111.03715137 32.23679226 109.81300259 32.23701572 C107.15623209 32.23631638 104.49953081 32.22852301 101.84277248 32.22070408 C100.00574183 32.21883997 98.16871067 32.21741604 96.33167934 32.21641636 C91.48683211 32.21259058 86.64201466 32.20275979 81.79717922 32.19171238 C76.85730295 32.18149955 71.91742189 32.17691901 66.97753811 32.17187595 C57.2776552 32.16113757 47.57779444 32.14406043 37.87792873 32.12304783 C37.6729678 33.1826572 37.46800686 34.24226658 37.25683498 35.33398533 C36.98485207 36.72203605 36.7127083 38.11005526 36.44042873 39.49804783 C36.3057217 40.1967197 36.17101467 40.89539158 36.03222561 41.61523533 C34.99120998 46.89648533 34.99120998 46.89648533 33.87792873 49.12304783 C69.02292873 48.62804783 69.02292873 48.62804783 104.87792873 48.12304783 C103.35113107 58.81063149 101.65279497 69.47385042 99.87792873 80.12304783 C76.44792873 80.12304783 53.01792873 80.12304783 28.87792873 80.12304783 C28.21792873 85.40304783 27.55792873 90.68304783 26.87792873 96.12304783 C54.26792873 96.12304783 81.65792873 96.12304783 109.87792873 96.12304783 C108.44420786 106.15909397 106.74623439 116.15875098 104.87792873 126.12304783 C62.63792873 126.12304783 20.39792873 126.12304783 -23.12207127 126.12304783 C-22.45140346 118.07503413 -21.63096138 110.32706742 -20.28027439 102.40356541 C-20.00448803 100.75011616 -20.00448803 100.75011616 -19.72313023 99.06326389 C-19.12141894 95.46386227 -18.51260409 91.86570613 -17.90332127 88.26757908 C-17.48084585 85.75369065 -17.05869102 83.23974832 -16.63684177 80.72575474 C-15.75568382 75.48126364 -14.87117152 70.23735436 -13.98388767 64.99389744 C-12.95766678 58.92907465 -11.93794761 52.86318515 -10.92159605 46.79670125 C-9.94128273 40.94624769 -8.95640485 35.09656978 -7.96946812 29.24722958 C-7.55047087 26.76139309 -7.13263372 24.2753608 -6.7159586 21.78913403 C-6.13586791 18.33180654 -5.55060442 14.87539538 -4.96386814 11.41919041 C-4.79137043 10.38500477 -4.61887272 9.35081913 -4.4411478 8.28529453 C-4.20145016 6.8830463 -4.20145016 6.8830463 -3.95691013 5.45246983 C-3.81901821 4.63567658 -3.68112629 3.81888334 -3.53905582 2.97733879 C-2.94848132 0.35110972 -2.71991648 0.15771375 0 0 Z " fill="#FFFFFF" transform="translate(197.12207126617432,922.8769521713257)"/>
<path d="M0 0 C0.89204132 -0.00671722 1.78408264 -0.01343445 2.70315552 -0.02035522 C5.6363897 -0.03926925 8.56939427 -0.0432561 11.50268555 -0.04541016 C13.55380851 -0.05184269 15.60493057 -0.05857139 17.65605164 -0.06558228 C21.95057298 -0.07753858 26.24501398 -0.08126479 30.53955078 -0.08007812 C36.02364533 -0.07987504 41.50722109 -0.10717406 46.99119282 -0.14162254 C51.22674392 -0.16393608 55.46217104 -0.1679143 59.69777489 -0.16685867 C61.71864802 -0.16920804 63.73952491 -0.17799383 65.76033974 -0.19352341 C89.72406918 -0.36044074 89.72406918 -0.36044074 99.2253418 8.44287109 C104.03879835 13.99595634 107.94916141 20.36199756 107.9597168 27.81787109 C107.96100586 28.6925 107.96229492 29.56712891 107.96362305 30.46826172 C107.95975586 31.37898437 107.95588867 32.28970703 107.9519043 33.22802734 C107.95577148 34.13488281 107.95963867 35.04173828 107.96362305 35.97607422 C107.96168945 37.28995117 107.96168945 37.28995117 107.9597168 38.63037109 C107.95858887 39.42822021 107.95746094 40.22606934 107.95629883 41.0480957 C107.8269043 43.29052734 107.8269043 43.29052734 106.8269043 47.29052734 C91.9769043 47.29052734 77.1269043 47.29052734 61.8269043 47.29052734 C60.8369043 42.83552734 60.8369043 42.83552734 59.8269043 38.29052734 C57.61340959 35.63433369 55.90750945 33.83082992 52.8269043 32.29052734 C51.38364168 32.18102499 49.93558005 32.13152307 48.48828125 32.11352539 C47.59007156 32.10069016 46.69186188 32.08785492 45.76643372 32.07463074 C44.30556587 32.06355034 44.30556587 32.06355034 42.81518555 32.05224609 C41.81359909 32.04417435 40.81201263 32.0361026 39.78007507 32.02778625 C37.65580988 32.01393767 35.53152236 32.00321899 33.40722656 31.99536133 C30.16973149 31.97818821 26.93326803 31.9343132 23.69604492 31.89013672 C21.6315993 31.88000633 19.567145 31.87149131 17.50268555 31.86474609 C16.53889481 31.84723801 15.57510406 31.82972992 14.58210754 31.81169128 C8.45510969 31.83130346 4.80737953 32.64153104 -0.1730957 36.29052734 C-4.59064118 42.71120121 -5.47342481 49.95811694 -6.61108398 57.53442383 C-6.92126089 59.59086274 -7.25446705 61.6425628 -7.59106445 63.69482422 C-10.07319773 76.94087265 -10.07319773 76.94087265 -7.6105957 89.79052734 C-3.6438624 93.85897176 0.60805065 95.40632858 6.18237305 95.67871094 C7.7929347 95.69829445 9.40376809 95.70093858 11.0144043 95.68896484 C11.87573975 95.69183502 12.7370752 95.6947052 13.62451172 95.69766235 C15.43644879 95.69969395 17.24840825 95.69422771 19.06030273 95.68164062 C21.81894407 95.66557371 24.57612052 95.68151985 27.3347168 95.70068359 C29.10294917 95.698701 30.87118063 95.69485699 32.6394043 95.68896484 C33.45626709 95.69503754 34.27312988 95.70111023 35.11474609 95.70736694 C41.66747817 95.62768944 46.24400738 94.22770003 51.5769043 90.22802734 C54.70778216 86.49982869 54.70778216 86.49982869 56.8269043 77.29052734 C71.6769043 77.29052734 86.5269043 77.29052734 101.8269043 77.29052734 C99.17325756 94.53923114 94.70577455 106.00825948 81.43237305 117.43115234 C74.64581623 122.27433232 66.27377971 126.38484696 57.79988098 126.43769836 C56.6121257 126.44843132 56.6121257 126.44843132 55.40037537 126.4593811 C54.11067589 126.46341446 54.11067589 126.46341446 52.79492188 126.4675293 C51.8822052 126.47410049 50.96948853 126.48067169 50.02911377 126.48744202 C47.00988682 126.50714457 43.99070956 126.51883154 40.97143555 126.52880859 C39.93824377 126.53288412 38.90505199 126.53695965 37.84055138 126.54115868 C32.37075374 126.56200753 26.9009811 126.57631378 21.43115234 126.58569336 C15.79333104 126.59674871 10.15590538 126.63114219 4.51822376 126.67086506 C0.1729206 126.69706282 -4.17228877 126.70538807 -8.51766396 126.70897484 C-10.59519431 126.71383344 -12.67272068 126.72542661 -14.75017357 126.74401283 C-17.66514435 126.7684688 -20.57909778 126.76742725 -23.49414062 126.76049805 C-24.34381912 126.77330811 -25.19349762 126.78611816 -26.06892395 126.79931641 C-35.00520818 126.72232279 -41.91096466 123.24705589 -48.3840332 117.21240234 C-55.42316323 109.65071681 -57.49000455 101.69930126 -57.4296875 91.52416992 C-57.07227786 83.24226913 -55.40249416 75.03777074 -53.97485352 66.88842773 C-53.42411152 63.73384584 -52.89513922 60.57615006 -52.3684082 57.41748047 C-49.0450626 37.86837169 -45.11851295 20.66260755 -28.1730957 8.29052734 C-18.91860838 2.7897734 -10.68588996 -0.01168687 0 0 Z " fill="#FFFFFF" transform="translate(792.173095703125,922.70947265625)"/>
<path d="M0 0 C7.84427341 4.23025953 15.5985047 8.59954887 23.3125 13.0625 C24.44840576 13.71879395 25.58431152 14.37508789 26.75463867 15.05126953 C34.68263036 19.63688326 42.58012359 24.27284826 50.45825195 28.94360352 C58.74316824 33.8553062 67.05144393 38.72671329 75.36431885 43.59088135 C81.71628551 47.30767327 88.06383007 51.0307232 94.38671875 54.796875 C95.3715625 55.38275391 96.35640625 55.96863281 97.37109375 56.57226562 C99.17367879 57.64606629 100.97462244 58.72263017 102.7734375 59.80273438 C103.58425781 60.28548828 104.39507812 60.76824219 105.23046875 61.265625 C105.96226852 61.71647461 106.6940683 62.16732422 107.44804382 62.63183594 C109.92347771 64.08317979 109.92347771 64.08317979 112.55989075 64.69006348 C115.78260288 65.67792011 117.58025782 66.62200123 120 69 C121.9683284 75.24639516 122.24598328 81.57138738 122.65625 88.078125 C122.81239077 90.0068295 122.9727437 91.93519715 123.13708496 93.86322021 C123.55961744 98.95393871 123.92502149 104.04721512 124.27856445 109.14312744 C124.6414655 114.23484522 125.05705641 119.32219272 125.46875 124.41015625 C126.16309861 133.0759243 126.81507332 141.74408633 127.44285583 150.41490936 C128.06085607 158.91924782 128.74618368 167.41739524 129.46740723 175.91363525 C129.82914329 180.29161325 130.09046204 184.60173543 130 189 C124.81976941 186.14449027 119.99511327 183.00355983 115.1875 179.5625 C114.45249268 179.04026855 113.71748535 178.51803711 112.96020508 177.97998047 C106.92997095 173.68718478 100.93660451 169.34349857 94.9440918 164.99829102 C89.33589731 160.9408769 83.67861711 156.95810623 78 153 C70.74661709 147.94374062 63.54348235 142.82502542 56.39135742 137.62646484 C52.95060547 135.12598768 49.50251939 132.64120876 46.01171875 130.2109375 C30.27607878 119.24669709 17.9252614 104.91048402 14.35345459 85.50576782 C14.12242035 84.15326431 14.12242035 84.15326431 13.88671875 82.7734375 C13.71134583 81.80320648 13.5359729 80.83297546 13.35528564 79.83334351 C12.78839703 76.68240796 12.23771498 73.52888581 11.6875 70.375 C11.29796895 68.18894693 10.90741481 66.00307594 10.51586914 63.81738281 C9.72169806 59.37566021 8.93374642 54.93290006 8.15039062 50.48925781 C7.07696717 44.41292238 5.9730897 38.3424988 4.859375 32.2734375 C4.37243166 29.60906527 3.88599439 26.94460129 3.39981079 24.28009033 C3.0933252 22.60278526 2.78586149 20.9256586 2.47738647 19.24871826 C2.05224633 16.93219236 1.6327838 14.61470914 1.21484375 12.296875 C0.97886475 11.00104492 0.74288574 9.70521484 0.49975586 8.37011719 C0.07500105 5.50577163 -0.10720563 2.88593426 0 0 Z " fill="#FDFDFD" transform="translate(108,299)"/>
<path d="M0 0 C-0.58981041 5.77004203 -1.34493992 11.4764997 -2.33520508 17.19091797 C-2.46547592 17.95484863 -2.59574677 18.7187793 -2.72996521 19.50585938 C-3.15668404 22.00185247 -3.58764594 24.49708347 -4.01953125 26.9921875 C-4.16807745 27.85280918 -4.31662365 28.71343086 -4.46967125 29.60013199 C-5.25564381 34.15211097 -6.04502597 38.70348359 -6.8371582 43.25439453 C-7.64940828 47.9250102 -8.449649 52.59759968 -9.24716663 57.27075005 C-9.86755507 60.89244696 -10.49702842 64.51252386 -11.12888145 68.13223648 C-11.4276517 69.85302661 -11.72307043 71.57440248 -12.01490211 73.2963829 C-16.01429582 96.84555308 -24.53113106 115.06008017 -44.375 129.3125 C-47.56768027 131.56463845 -50.78283869 133.78304182 -54 136 C-56.49656004 137.74248297 -58.98975297 139.48971339 -61.48291016 141.23706055 C-63.16625652 142.4160561 -64.8508363 143.59329249 -66.53662109 144.76879883 C-72.0641755 148.62569185 -77.54607259 152.53980423 -83 156.5 C-90.95430866 162.2738416 -98.99191216 167.92189969 -107.0546875 173.54296875 C-110.38279994 175.86449483 -113.69983696 178.200651 -117.0078125 180.55078125 C-117.79663818 181.11079834 -118.58546387 181.67081543 -119.39819336 182.24780273 C-120.89515481 183.31181554 -122.39081688 184.37765943 -123.88500977 185.44555664 C-128.88979787 189 -128.88979787 189 -130 189 C-129.93864365 188.27564255 -129.87728729 187.5512851 -129.81407166 186.80497742 C-129.19652836 179.46229591 -128.60587005 172.11837625 -128.06640625 164.76953125 C-127.97871475 163.58438431 -127.89102325 162.39923737 -127.80067444 161.17817688 C-127.23061271 153.15551687 -126.81287863 145.13725609 -126.48449135 137.10121346 C-126.19937055 130.25547194 -125.82141357 123.41776437 -125.39320946 116.5795269 C-125.12129503 112.16832751 -124.89595224 107.76381159 -124.7668457 103.34594727 C-123.88312661 74.72865773 -123.88312661 74.72865773 -117.53106689 66.99346924 C-111.62985471 62.04713867 -105.06695016 58.95580999 -97.93264771 56.17105103 C-94.25633923 54.7030449 -91.11020412 52.8657612 -87.75 50.78125 C-85.83436842 49.68568813 -83.91773399 48.59187753 -82 47.5 C-73.44083698 42.59496115 -64.9451122 37.59882286 -56.5 32.5 C-46.80799674 26.64939556 -37.04121455 20.94225364 -27.22290039 15.30639648 C-20.05160033 11.18991536 -12.90876243 7.02986479 -5.80859375 2.79174805 C-1.10568787 0 -1.10568787 0 0 0 Z " fill="#FDFDFD" transform="translate(792,299)"/>
<path d="M0 0 C14.85 0 29.7 0 45 0 C40.39213199 28.97640077 35.72128136 57.94112052 30.96943665 86.89415359 C30.56202208 89.37791357 30.15525425 91.86177868 29.74865723 94.34567261 C29.10283503 98.29028936 28.45525107 102.23461293 27.80628014 106.17871284 C27.56511352 107.64585948 27.32449429 109.11309621 27.08445168 110.58042717 C26.75392672 112.59993865 26.42108739 114.61907094 26.08813477 116.63818359 C25.9013063 117.77532806 25.71447784 118.91247253 25.52198792 120.08407593 C25.10604508 122.40761195 24.57249855 124.71000578 24 127 C9.15 127 -5.7 127 -21 127 C-19.84367267 117.74938134 -18.69886008 108.59749554 -17.13647461 99.42480469 C-16.96222458 98.38526138 -16.78797455 97.34571808 -16.60844421 96.27467346 C-16.04300517 92.90651582 -15.47279991 89.5391862 -14.90234375 86.171875 C-14.50378463 83.80540077 -14.10547874 81.43888388 -13.70741272 79.07232666 C-12.87822957 74.14698535 -12.04681838 69.22202743 -11.21362305 64.29736328 C-10.1453863 57.9830633 -9.08156626 51.66802916 -8.01923275 45.35273361 C-7.19955434 40.48159078 -6.37820407 35.6107311 -5.55627632 30.73996735 C-5.16318285 28.40998835 -4.77046382 26.07994616 -4.37812614 23.74983978 C-3.83173618 20.50710586 -3.28324836 17.26473395 -2.73413086 14.02246094 C-2.49176697 12.58094414 -2.49176697 12.58094414 -2.24450684 11.11030579 C-2.09456772 10.2276152 -1.9446286 9.34492462 -1.79014587 8.43548584 C-1.66092711 7.67089931 -1.53170835 6.90631279 -1.39857388 6.11855698 C-1.01175949 4.06250574 -0.50741398 2.02965591 0 0 Z " fill="#FFFFFF" transform="translate(682,922)"/>
</svg>
