<?xml version="1.0" encoding="UTF-8"?>
<svg version="1.1" xmlns="http://www.w3.org/2000/svg" width="254" height="270">
<path d="M0 0 C4.47992632 0.548131 6.51491144 2.79629283 9.51327515 5.91455078 C10.09936554 6.49976501 10.68545593 7.08497925 11.28930664 7.68792725 C13.21918674 9.62198087 15.1269577 11.57639865 17.0352478 13.53173828 C18.37057369 14.87825699 19.70723225 16.22345532 21.04516602 17.56738281 C24.56021479 21.10532241 28.05687332 24.66090895 31.55001831 28.22045898 C35.11880774 31.85066395 38.70467798 35.4639084 42.28915405 39.07861328 C49.31770543 46.17148194 56.32694753 53.2831086 63.3243103 60.40673828 C66.39154294 59.20337946 69.20794752 57.99416323 71.9961853 56.23486328 C72.656427 55.82018799 73.3166687 55.4055127 73.99691772 54.97827148 C74.68245728 54.54216553 75.36799683 54.10605957 76.0743103 53.65673828 C76.78369751 53.21225342 77.49308472 52.76776855 78.22396851 52.30981445 C82.75026917 49.4601131 87.16015409 46.49615163 91.42977905 43.27001953 C93.3243103 42.40673828 93.3243103 42.40673828 98.3243103 43.40673828 C98.3243103 83.00673828 98.3243103 122.60673828 98.3243103 163.40673828 C97.3343103 163.73673828 96.3443103 164.06673828 95.3243103 164.40673828 C95.3243103 165.06673828 95.3243103 165.72673828 95.3243103 166.40673828 C94.6643103 166.40673828 94.0043103 166.40673828 93.3243103 166.40673828 C93.3243103 167.06673828 93.3243103 167.72673828 93.3243103 168.40673828 C92.6643103 168.40673828 92.0043103 168.40673828 91.3243103 168.40673828 C91.3243103 169.06673828 91.3243103 169.72673828 91.3243103 170.40673828 C90.6643103 170.40673828 90.0043103 170.40673828 89.3243103 170.40673828 C89.3243103 171.06673828 89.3243103 171.72673828 89.3243103 172.40673828 C88.6643103 172.40673828 88.0043103 172.40673828 87.3243103 172.40673828 C87.3243103 173.06673828 87.3243103 173.72673828 87.3243103 174.40673828 C86.6643103 174.40673828 86.0043103 174.40673828 85.3243103 174.40673828 C85.3243103 175.06673828 85.3243103 175.72673828 85.3243103 176.40673828 C84.6643103 176.40673828 84.0043103 176.40673828 83.3243103 176.40673828 C83.3243103 177.06673828 83.3243103 177.72673828 83.3243103 178.40673828 C82.6643103 178.40673828 82.0043103 178.40673828 81.3243103 178.40673828 C81.3243103 179.06673828 81.3243103 179.72673828 81.3243103 180.40673828 C80.6643103 180.40673828 80.0043103 180.40673828 79.3243103 180.40673828 C79.3243103 181.06673828 79.3243103 181.72673828 79.3243103 182.40673828 C77.67977905 183.99267578 77.67977905 183.99267578 75.5118103 185.78173828 C73.26180174 187.6424011 71.42080745 189.27546532 69.68759155 191.63330078 C69.23770874 192.21853516 68.78782593 192.80376953 68.3243103 193.40673828 C67.6643103 193.40673828 67.0043103 193.40673828 66.3243103 193.40673828 C66.3243103 194.06673828 66.3243103 194.72673828 66.3243103 195.40673828 C65.6643103 195.40673828 65.0043103 195.40673828 64.3243103 195.40673828 C64.3243103 196.06673828 64.3243103 196.72673828 64.3243103 197.40673828 C63.01980591 198.68505859 63.01980591 198.68505859 61.11630249 200.23486328 C55.56372849 204.96092418 50.51767737 210.16510788 45.41495514 215.3631897 C43.00045921 217.82019226 40.57624157 220.26750969 38.15264511 222.7155304 C33.65532957 227.25842399 29.16222757 231.80531618 24.68515015 236.36816406 C21.55494895 239.55758483 18.41281651 242.73480382 15.26232147 245.9041748 C14.06645256 247.1118051 12.87513791 248.32396279 11.68848419 249.54064941 C10.03703243 251.23289439 8.37084723 252.90916685 6.70028687 254.58251953 C6.21294571 255.08940811 5.72560455 255.59629669 5.22349548 256.11854553 C3.83950806 257.48608398 3.83950806 257.48608398 1.3243103 259.40673828 C-0.99287553 259.26813885 -2.03879049 259.04363749 -3.6756897 257.40673828 C-3.79118944 255.15852297 -3.83541326 252.90663147 -3.85269165 250.65551758 C-3.85926285 249.94978607 -3.86583405 249.24405457 -3.87260437 248.51693726 C-3.89238261 246.17160955 -3.90401045 243.82634603 -3.91397095 241.48095703 C-3.91804647 240.68148966 -3.922122 239.88202229 -3.92632103 239.05832863 C-3.94720196 234.82624187 -3.96149437 230.59418773 -3.97085571 226.36206055 C-3.98191928 221.98697946 -4.01631229 217.61240713 -4.05602741 213.23750591 C-4.08215727 209.87719264 -4.09054433 206.51700117 -4.09413719 203.15659523 C-4.09901329 201.54382711 -4.11065637 199.93106478 -4.12917519 198.31839561 C-4.15348887 196.06056698 -4.15261655 193.80406167 -4.1456604 191.54614258 C-4.15152664 190.26120407 -4.15739288 188.97626556 -4.16343689 187.65238953 C-3.58237657 183.78579802 -2.71772077 182.77120521 0.3243103 180.40673828 C1.70832722 179.38556856 3.12346174 178.40550485 4.56356812 177.46508789 C5.39253601 176.92029282 6.22150391 176.37549774 7.07559204 175.81419373 C8.41300446 174.94541344 8.41300446 174.94541344 9.7774353 174.05908203 C10.71045471 173.44714493 11.64347412 172.83520782 12.60476685 172.20472717 C15.59167711 170.24669996 18.58273516 168.29512923 21.5743103 166.34423828 C25.47699111 163.79335095 29.37761371 161.2393379 33.2774353 158.68408203 C34.22251953 158.06608734 35.16760376 157.44809265 36.1413269 156.81137085 C42.71106478 152.50325361 49.20861119 148.10187124 55.61758423 143.55760193 C60.11205656 140.40673828 60.11205656 140.40673828 62.3243103 140.40673828 C61.9943103 129.18673828 61.6643103 117.96673828 61.3243103 106.40673828 C55.33243922 110.35329484 49.34074155 114.30011232 43.34945679 118.24755859 C41.31797817 119.58592183 39.28640524 120.92414194 37.25473022 122.26220703 C35.28102045 123.56212138 33.30751829 124.86235101 31.33422852 126.16290283 C29.39306455 127.441594 27.45099115 128.71890568 25.50799561 129.99481201 C21.21595738 132.81743527 16.9400978 135.65513158 12.71932983 138.58349609 C12.03214371 139.0563504 11.34495758 139.52920471 10.63694763 140.01638794 C9.39425785 140.87473613 8.15782667 141.74225643 6.92951965 142.62106323 C3.60343969 144.90974252 1.37925934 145.89576316 -2.6756897 145.40673828 C-4.00283191 142.75245385 -3.80159952 140.75558632 -3.80267334 137.78208923 C-3.80549316 136.58597519 -3.80831299 135.38986115 -3.81121826 134.15750122 C-3.80919403 132.83845795 -3.8071698 131.51941467 -3.80508423 130.16040039 C-3.80643866 128.76273045 -3.80821883 127.36506087 -3.81039429 125.96739197 C-3.81496323 122.16590274 -3.81318138 118.36444057 -3.8100152 114.56295085 C-3.80748933 110.5915728 -3.80982973 106.62019711 -3.81140137 102.64881897 C-3.81322218 95.97982363 -3.81081883 89.31083936 -3.80606079 82.6418457 C-3.80061611 74.9210528 -3.80238267 67.2002863 -3.8078872 59.47949404 C-3.81241817 52.8603823 -3.81306902 46.24127853 -3.81044853 39.62216574 C-3.80888595 35.66449237 -3.8086915 31.70683144 -3.81198502 27.74915886 C-3.81486357 24.03018133 -3.81288833 20.31123799 -3.80709076 16.59226418 C-3.80576317 15.22362195 -3.80615726 13.85497686 -3.80835342 12.48633575 C-3.81106489 10.62569274 -3.80707014 8.76504348 -3.80267334 6.90440369 C-3.80229631 5.86076629 -3.80191929 4.81712889 -3.80153084 3.74186611 C-3.62118396 0.3953213 -3.33894023 0.50756065 0 0 Z " fill="#0BD162" transform="translate(142.67568969726563,-0.40673828125)"/>
<path d="M0 0 C0 47.85 0 95.7 0 145 C-7.87467134 143.87504695 -7.87467134 143.87504695 -11.51977539 141.3671875 C-12.33495132 140.81571045 -13.15012726 140.2642334 -13.99000549 139.69604492 C-15.28079262 138.79462769 -15.28079262 138.79462769 -16.59765625 137.875 C-17.50897812 137.25407471 -18.42029999 136.63314941 -19.35923767 135.9934082 C-22.26870878 134.00753606 -25.16580864 132.00445543 -28.0625 130 C-30.93668265 128.02795431 -33.81333108 126.05956034 -36.69078064 124.09228516 C-38.47544815 122.87030091 -40.2578539 121.64500303 -42.03736877 120.41552734 C-49.26433715 115.43756827 -56.60442108 110.75430073 -64 106 C-64.33 117.22 -64.66 128.44 -65 140 C-63.35 140.66 -61.7 141.32 -60 142 C-58.55849399 142.86207855 -57.14331207 143.76941011 -55.75488281 144.71459961 C-54.94923889 145.25954575 -54.14359497 145.80449188 -53.3135376 146.36595154 C-52.45210144 146.95546097 -51.59066528 147.5449704 -50.703125 148.15234375 C-49.79608826 148.76711075 -48.88905151 149.38187775 -47.95452881 150.01527405 C-45.04996909 151.9849008 -42.1497666 153.96082496 -39.25 155.9375 C-36.40299914 157.87383831 -33.55515983 159.80875297 -30.70204163 161.73606873 C-28.82343386 163.01653677 -26.95650282 164.31430131 -25.10154724 165.62879944 C-20.79063596 168.6488776 -16.81210144 171.21998667 -11.85571289 173.03491211 C-6.71252518 175.08087222 -2.72869773 176.99157128 0 182 C2.66034987 193.7178626 1.67827535 206.0715976 1.16729736 217.98602295 C0.99232413 222.49650057 0.91553133 227.0085804 0.83007812 231.52148438 C0.64858105 240.35209832 0.35911509 249.17483164 0 258 C-1.828125 258.61328125 -1.828125 258.61328125 -4 259 C-6.75 257.1875 -6.75 257.1875 -9 255 C-9 254.34 -9 253.68 -9 253 C-9.66 253 -10.32 253 -11 253 C-11 252.34 -11 251.68 -11 251 C-11.66 251 -12.32 251 -13 251 C-13 250.34 -13 249.68 -13 249 C-13.66 249 -14.32 249 -15 249 C-15 248.34 -15 247.68 -15 247 C-15.639375 246.731875 -16.27875 246.46375 -16.9375 246.1875 C-19 245 -19 245 -20 242 C-20.66 242 -21.32 242 -22 242 C-22 241.34 -22 240.68 -22 240 C-22.66 240 -23.32 240 -24 240 C-24 239.34 -24 238.68 -24 238 C-24.66 238 -25.32 238 -26 238 C-26 237.34 -26 236.68 -26 236 C-26.66 236 -27.32 236 -28 236 C-28 235.34 -28 234.68 -28 234 C-28.88993652 233.5968457 -28.88993652 233.5968457 -29.79785156 233.18554688 C-32.00540033 231.99709268 -33.46542882 230.79257611 -35.234375 229.03125 C-35.80800781 228.46019531 -36.38164063 227.88914063 -36.97265625 227.30078125 C-37.55917969 226.70652344 -38.14570312 226.11226562 -38.75 225.5 C-39.35199219 224.90574219 -39.95398438 224.31148437 -40.57421875 223.69921875 C-41.14269531 223.12816406 -41.71117187 222.55710938 -42.296875 221.96875 C-42.81604492 221.44732422 -43.33521484 220.92589844 -43.87011719 220.38867188 C-45 219 -45 219 -45 217 C-45.55218201 216.73385895 -46.10436401 216.4677179 -46.67327881 216.19351196 C-57.04905732 210.87116572 -66.34716105 203.84661724 -75.25 196.375 C-76.16808693 195.60682701 -76.16808693 195.60682701 -77.10472107 194.82313538 C-93.32089615 180.96091903 -101.83201734 166.31154372 -103.801548 144.89484596 C-104.86439253 129.85293546 -104.73622693 114.81194834 -104.25 99.75 C-104.22810419 99.05513206 -104.20620838 98.36026411 -104.18364906 97.64433956 C-103.59746015 79.3981881 -102.5284709 61.19228403 -101 43 C-96.37283325 41.80566406 -96.37283325 41.80566406 -93.01733398 43.5546875 C-91.91684992 44.31372755 -90.82689267 45.0881832 -89.74609375 45.875 C-89.16336197 46.27831543 -88.58063019 46.68163086 -87.98023987 47.09716797 C-86.12242976 48.38415682 -84.27898203 49.68977483 -82.4375 51 C-80.59194196 52.30936322 -78.74384225 53.61375649 -76.88404846 54.90283203 C-75.72806169 55.7042196 -74.58012995 56.51738096 -73.44151306 57.34326172 C-70.57156866 59.40465709 -70.57156866 59.40465709 -67.18260193 59.94276428 C-63.87592326 58.51446052 -61.68424511 56.02376409 -59.22509766 53.47045898 C-58.65869064 52.89485229 -58.09228363 52.31924561 -57.50871277 51.72619629 C-56.28052347 50.47655917 -55.05571639 49.22359092 -53.8339119 47.96771049 C-51.89936425 45.98099917 -49.95436834 44.00510266 -48.00595093 42.03199768 C-42.46830619 36.42097916 -36.94760893 30.79350763 -31.44042969 25.15258789 C-28.07045101 21.70227643 -24.68601714 18.26670527 -21.29224777 14.83979988 C-20.00194678 13.53086869 -18.71736742 12.21627172 -17.43867874 10.89599419 C-15.65050643 9.05018648 -13.84461501 7.22359828 -12.03369141 5.40014648 C-11.50985367 4.85002396 -10.98601593 4.29990143 -10.44630432 3.73310852 C-6.56671236 -0.1160588 -5.96370945 0 0 0 Z " fill="#0BD262" transform="translate(109,0)"/>
</svg>
