<?xml version="1.0" encoding="UTF-8"?>
<svg version="1.1" xmlns="http://www.w3.org/2000/svg" width="67" height="75">
<path d="M0 0 C0 14.19 0 28.38 0 43 C-3.41666238 42.1458344 -4.9097374 41.5959547 -7.671875 39.71484375 C-8.33574219 39.26689453 -8.99960937 38.81894531 -9.68359375 38.35742188 C-10.36550781 37.88884766 -11.04742188 37.42027344 -11.75 36.9375 C-12.79607422 36.22883789 -12.79607422 36.22883789 -13.86328125 35.50585938 C-15.57904993 34.34242719 -17.29000398 33.17190026 -19 32 C-19.48740704 35.13917402 -19.76897274 36.98667639 -19 40 C-16.4006737 42.75120047 -13.31144607 44.53226898 -10.0625 46.4375 C-9.21236328 46.96537109 -8.36222656 47.49324219 -7.48632812 48.03710938 C-5.92104685 49.00870628 -4.34818467 49.96826384 -2.76586914 50.91186523 C-1 52 -1 52 0 53 C0.08700342 54.63472882 0.10701063 56.27314055 0.09765625 57.91015625 C0.09443359 58.89951172 0.09121094 59.88886719 0.08789062 60.90820312 C0.07951172 61.94912109 0.07113281 62.99003906 0.0625 64.0625 C0.05798828 65.10728516 0.05347656 66.15207031 0.04882812 67.22851562 C0.03699913 69.8190666 0.02051689 72.40950559 0 75 C-7.34858346 74.19389033 -12.57341711 68.54839783 -17.8125 63.75 C-18.68163528 62.95530807 -18.68163528 62.95530807 -19.56832886 62.14456177 C-27.65401971 54.45045598 -31.31810172 47.7990721 -31.7351532 36.5574646 C-31.77284726 28.33365546 -31.077446 20.14681788 -30 12 C-25 14 -25 14 -20 16 C-19.53625977 15.5153125 -19.07251953 15.030625 -18.59472656 14.53125 C-16.49032541 12.34376654 -14.37050733 10.1718691 -12.25 8 C-11.52039063 7.236875 -10.79078125 6.47375 -10.0390625 5.6875 C-8.97558594 4.6046875 -8.97558594 4.6046875 -7.890625 3.5 C-7.24125977 2.8296875 -6.59189453 2.159375 -5.92285156 1.46875 C-4 -0 -4 -0 0 0 Z " fill="#0CD664" transform="translate(30,0)"/>
<path d="M0 0 C5.625 1.125 5.625 1.125 8.76953125 4.37890625 C9.43017578 5.05244141 10.09082031 5.72597656 10.77148438 6.41992188 C11.44501953 7.12697266 12.11855469 7.83402344 12.8125 8.5625 C13.50537109 9.27341797 14.19824219 9.98433594 14.91210938 10.71679688 C16.6174517 12.46918312 18.31275176 14.23021469 20 16 C20.721875 15.71125 21.44375 15.4225 22.1875 15.125 C24.79166667 14.08333333 27.39583333 13.04166667 30 12 C34.44317741 44.13284872 34.44317741 44.13284872 25.99264526 55.31573486 C23.26255334 58.52706419 20.3537104 61.46313963 17.25 64.3125 C16.64520813 64.86879089 16.04041626 65.42508179 15.41729736 65.99822998 C5.39487117 75 5.39487117 75 0 75 C-1.79498462 55.53885211 -1.79498462 55.53885211 2.16796875 49.93359375 C5.03280217 47.91438012 7.79342454 46.40786734 11 45 C12.57844407 44.1972765 14.14371503 43.36751292 15.6875 42.5 C16.33074219 42.2009375 16.97398438 41.901875 17.63671875 41.59375 C20.01273596 38.81605653 19.18998894 35.52734184 19 32 C18.53102295 32.33845947 18.0620459 32.67691895 17.57885742 33.02563477 C15.45590467 34.54870826 13.32201344 36.05567667 11.1875 37.5625 C10.08051758 38.36204102 10.08051758 38.36204102 8.95117188 39.17773438 C8.23896484 39.67724609 7.52675781 40.17675781 6.79296875 40.69140625 C6.1383667 41.15748291 5.48376465 41.62355957 4.80932617 42.10375977 C3 43 3 43 0 42 C0 28.14 0 14.28 0 0 Z " fill="#0CD664" transform="translate(37,0)"/>
</svg>
