<?xml version="1.0" encoding="UTF-8"?>
<svg version="1.1" xmlns="http://www.w3.org/2000/svg" width="64" height="75">
<path d="M0 0 C5.6443407 2.26991205 9.91684211 6.19309887 13.53515625 11.01953125 C14.70736549 15.76231925 14.83641012 20.15743392 14.53515625 25.01953125 C15.2828125 24.73078125 16.03046875 24.44203125 16.80078125 24.14453125 C17.785625 23.77328125 18.77046875 23.40203125 19.78515625 23.01953125 C20.7596875 22.64828125 21.73421875 22.27703125 22.73828125 21.89453125 C25.53515625 21.01953125 25.53515625 21.01953125 29.53515625 21.01953125 C29.53515625 22.99953125 29.53515625 24.97953125 29.53515625 27.01953125 C30.19515625 27.01953125 30.85515625 27.01953125 31.53515625 27.01953125 C32.46205037 40.75816184 29.73381969 51.27634201 20.64453125 61.80078125 C14.68692668 68.06729865 8.535778 74.1027506 -0.21484375 75.70703125 C-8.10772897 75.27790351 -15.65238002 68.58890343 -20.83984375 63.02734375 C-30.31734674 51.31715977 -33.03759757 41.93234377 -32.46484375 27.01953125 C-31.80484375 27.01953125 -31.14484375 27.01953125 -30.46484375 27.01953125 C-30.13484375 25.03953125 -29.80484375 23.05953125 -29.46484375 21.01953125 C-25.94778417 21.67224681 -22.57159298 22.53346149 -19.15234375 23.58203125 C-18.26933594 23.85144531 -17.38632812 24.12085937 -16.4765625 24.3984375 C-15.81269531 24.60339844 -15.14882813 24.80835937 -14.46484375 25.01953125 C-14.48804687 24.28347656 -14.51125 23.54742188 -14.53515625 22.7890625 C-14.55320312 21.81324219 -14.57125 20.83742188 -14.58984375 19.83203125 C-14.61304687 18.86910156 -14.63625 17.90617187 -14.66015625 16.9140625 C-14.26246563 11.02028751 -11.94723646 8.07239415 -7.65234375 4.14453125 C-6.80027344 3.34273438 -5.94820312 2.5409375 -5.0703125 1.71484375 C-2.46484375 0.01953125 -2.46484375 0.01953125 0 0 Z " fill="#221F1C" transform="translate(32.46484375,-0.01953125)"/>
<path d="M0 0 C5.6443407 2.26991205 9.91684211 6.19309887 13.53515625 11.01953125 C14.70736549 15.76231925 14.83641012 20.15743392 14.53515625 25.01953125 C15.2828125 24.73078125 16.03046875 24.44203125 16.80078125 24.14453125 C17.785625 23.77328125 18.77046875 23.40203125 19.78515625 23.01953125 C20.7596875 22.64828125 21.73421875 22.27703125 22.73828125 21.89453125 C25.53515625 21.01953125 25.53515625 21.01953125 29.53515625 21.01953125 C29.53515625 22.99953125 29.53515625 24.97953125 29.53515625 27.01953125 C30.19515625 27.01953125 30.85515625 27.01953125 31.53515625 27.01953125 C32.46205037 40.75816184 29.73381969 51.27634201 20.64453125 61.80078125 C14.68692668 68.06729865 8.535778 74.1027506 -0.21484375 75.70703125 C-8.10772897 75.27790351 -15.65238002 68.58890343 -20.83984375 63.02734375 C-30.31734674 51.31715977 -33.03759757 41.93234377 -32.46484375 27.01953125 C-31.80484375 27.01953125 -31.14484375 27.01953125 -30.46484375 27.01953125 C-30.13484375 25.03953125 -29.80484375 23.05953125 -29.46484375 21.01953125 C-25.94778417 21.67224681 -22.57159298 22.53346149 -19.15234375 23.58203125 C-18.26933594 23.85144531 -17.38632812 24.12085937 -16.4765625 24.3984375 C-15.81269531 24.60339844 -15.14882813 24.80835937 -14.46484375 25.01953125 C-14.48804687 24.28347656 -14.51125 23.54742188 -14.53515625 22.7890625 C-14.55320312 21.81324219 -14.57125 20.83742188 -14.58984375 19.83203125 C-14.61304687 18.86910156 -14.63625 17.90617187 -14.66015625 16.9140625 C-14.26246563 11.02028751 -11.94723646 8.07239415 -7.65234375 4.14453125 C-6.80027344 3.34273438 -5.94820312 2.5409375 -5.0703125 1.71484375 C-2.46484375 0.01953125 -2.46484375 0.01953125 0 0 Z M-10.01953125 7.6640625 C-14.79783168 13.21456115 -13.8085745 21.12892886 -13.46484375 28.01953125 C-14.12484375 28.34953125 -14.78484375 28.67953125 -15.46484375 29.01953125 C-14.1133037 33.44275322 -12.36758271 35.53597009 -8.46484375 38.01953125 C-5.27722266 38.81643963 -5.27722266 38.81643963 -2.46484375 39.01953125 C-2.46484375 39.67953125 -2.46484375 40.33953125 -2.46484375 41.01953125 C-3.07070313 40.98472656 -3.6765625 40.94992188 -4.30078125 40.9140625 C-11.97880476 40.66600328 -18.97985356 41.69620446 -25.46484375 46.01953125 C-26.52875256 48.82055176 -26.52875256 48.82055176 -26.46484375 52.01953125 C-23.23100559 58.33822315 -18.30546457 63.98672164 -12.46484375 68.01953125 C-11.80484375 68.01953125 -11.14484375 68.01953125 -10.46484375 68.01953125 C-10.46484375 68.67953125 -10.46484375 69.33953125 -10.46484375 70.01953125 C-5.24204785 73.13635153 -5.24204785 73.13635153 0.66015625 73.95703125 C3.81199432 72.92925797 6.62952164 71.61071211 9.53515625 70.01953125 C9.53515625 69.35953125 9.53515625 68.69953125 9.53515625 68.01953125 C10.40140625 67.61734375 10.40140625 67.61734375 11.28515625 67.20703125 C13.59065668 65.99023936 15.55571817 64.71619246 17.53515625 63.01953125 C17.53515625 62.35953125 17.53515625 61.69953125 17.53515625 61.01953125 C15.55515625 61.51453125 15.55515625 61.51453125 13.53515625 62.01953125 C13.53515625 61.68953125 13.53515625 61.35953125 13.53515625 61.01953125 C14.56640625 60.87515625 15.59765625 60.73078125 16.66015625 60.58203125 C21.36760445 59.30689762 23.05658992 55.91094393 25.46875 51.91796875 C25.82066406 51.29148438 26.17257813 50.665 26.53515625 50.01953125 C24.68228116 45.79184442 22.82935155 44.80202741 18.53515625 43.01953125 C12.76859536 40.91251862 7.58552677 40.80040314 1.53515625 41.01953125 C1.53515625 40.35953125 1.53515625 39.69953125 1.53515625 39.01953125 C2.38078125 38.97828125 3.22640625 38.93703125 4.09765625 38.89453125 C8.66807155 37.73115281 11.39377216 35.48417122 14.53515625 32.01953125 C15.99941158 29.33473249 15.99941158 29.33473249 16.53515625 27.01953125 C15.87515625 27.01953125 15.21515625 27.01953125 14.53515625 27.01953125 C14.53515625 27.67953125 14.53515625 28.33953125 14.53515625 29.01953125 C13.87515625 28.68953125 13.21515625 28.35953125 12.53515625 28.01953125 C12.59058594 26.90835937 12.64601562 25.7971875 12.703125 24.65234375 C13.02681933 15.54008289 13.02681933 15.54008289 9.08984375 7.6640625 C1.26516368 0.08116726 -2.19485118 0.08116726 -10.01953125 7.6640625 Z " fill="#342241" transform="translate(32.46484375,-0.01953125)"/>
<path d="M0 0 C1.335689 0.66193437 2.66853406 1.32961155 4 2 C4.63421875 2.28875 5.2684375 2.5775 5.921875 2.875 C8.38088737 4.38823838 9.51683906 5.4810446 11 8 C11.60842353 11.02479868 11.72177667 13.98247603 11.75 17.0625 C11.76514648 17.85462891 11.78029297 18.64675781 11.79589844 19.46289062 C11.68139479 23.78494875 11.38126345 25.52834022 8.578125 28.99609375 C6 31 6 31 4 32 C3.80591745 27.14793636 4.28721581 23.53384049 6 19 C6.34976758 17.67088318 6.69096017 16.33917261 7 15 C4.21611025 16.70625501 3.14615794 17.47626739 2.25 20.6875 C2.12625 21.8321875 2.12625 21.8321875 2 23 C1.01 22.67 0.02 22.34 -1 22 C-1.0825 21.21625 -1.165 20.4325 -1.25 19.625 C-1.72806339 16.85250896 -1.72806339 16.85250896 -4.0625 15.6875 C-4.701875 15.460625 -5.34125 15.23375 -6 15 C-5.67 16.65 -5.34 18.3 -5 20 C-4.34 20 -3.68 20 -3 20 C-2.67 23.96 -2.34 27.92 -2 32 C-7 29 -7 29 -9 26 C-9.78328228 19.76840028 -10.57054316 12.89914886 -7.50390625 7.23828125 C-5.77096423 5.28917183 -4.03283507 3.62810773 -2 2 C-1.34 1.34 -0.68 0.68 0 0 Z " fill="#AF753A" transform="translate(31,4)"/>
<path d="M0 0 C2.12801223 0.42260525 4.25238452 0.86357373 6.375 1.3125 C7.55835938 1.55613281 8.74171875 1.79976562 9.9609375 2.05078125 C13 3 13 3 15 6 C14.34 6 13.68 6 13 6 C16.11612913 11.96129051 19.77425849 13.7385127 26 16 C26 16.66 26 17.32 26 18 C25.0821875 18.10957031 24.164375 18.21914063 23.21875 18.33203125 C13.29679862 19.56834519 13.29679862 19.56834519 4 23 C2.44033992 25.01979579 2.44033992 25.01979579 2 27 C-3.43654059 20.57499749 -3.25713246 14.02824695 -3 6 C-2.01 6 -1.02 6 0 6 C0 4.02 0 2.04 0 0 Z " fill="#2D2035" transform="translate(4,23)"/>
<path d="M0 0 C0.66 0 1.32 0 2 0 C2 6.93 2 13.86 2 21 C1.34 21 0.68 21 0 21 C-0.0825 20.21625 -0.165 19.4325 -0.25 18.625 C-0.72806339 15.85250896 -0.72806339 15.85250896 -3.0625 14.6875 C-3.701875 14.460625 -4.34125 14.23375 -5 14 C-4.67 15.65 -4.34 17.3 -4 19 C-3.34 19 -2.68 19 -2 19 C-1.67 22.96 -1.34 26.92 -1 31 C-6 28 -6 28 -8 25 C-8.7868937 18.7396687 -9.5750128 11.87680909 -6.46875 6.203125 C-4.74606842 4.26863831 -3.03099927 2.60239511 -1 1 C-0.67 0.67 -0.34 0.34 0 0 Z " fill="#F1D960" transform="translate(30,5)"/>
<path d="M0 0 C5.6443407 2.26991205 9.91684211 6.19309887 13.53515625 11.01953125 C14.70736549 15.76231925 14.83641012 20.15743392 14.53515625 25.01953125 C15.52515625 25.34953125 16.51515625 25.67953125 17.53515625 26.01953125 C16.54515625 26.34953125 15.55515625 26.67953125 14.53515625 27.01953125 C14.53515625 27.67953125 14.53515625 28.33953125 14.53515625 29.01953125 C13.54515625 28.68953125 12.55515625 28.35953125 11.53515625 28.01953125 C11.57898437 26.89675781 11.6228125 25.77398438 11.66796875 24.6171875 C11.87345771 15.72508995 11.87345771 15.72508995 8.2421875 7.88671875 C5.76581494 5.71421701 3.31188481 3.78837286 0.53515625 2.01953125 C-4.29121953 4.35137573 -8.46798287 6.42480175 -11.46484375 11.01953125 C-12.74592367 16.57133137 -12.56679486 22.35487276 -12.46484375 28.01953125 C-14.19501883 27.56501941 -15.92394252 27.10574268 -17.65234375 26.64453125 C-19.09673828 26.26167969 -19.09673828 26.26167969 -20.5703125 25.87109375 C-23.28694582 25.07186829 -25.8562155 24.11639505 -28.46484375 23.01953125 C-28.46484375 24.99953125 -28.46484375 26.97953125 -28.46484375 29.01953125 C-29.45484375 29.01953125 -30.44484375 29.01953125 -31.46484375 29.01953125 C-31.13484375 33.96953125 -30.80484375 38.91953125 -30.46484375 44.01953125 C-32.95603328 40.28274695 -32.67136635 38.27501306 -32.58984375 33.83203125 C-32.57179687 32.55972656 -32.55375 31.28742187 -32.53515625 29.9765625 C-32.51195312 29.00074219 -32.48875 28.02492188 -32.46484375 27.01953125 C-31.80484375 27.01953125 -31.14484375 27.01953125 -30.46484375 27.01953125 C-30.13484375 25.03953125 -29.80484375 23.05953125 -29.46484375 21.01953125 C-25.94778417 21.67224681 -22.57159298 22.53346149 -19.15234375 23.58203125 C-18.26933594 23.85144531 -17.38632812 24.12085937 -16.4765625 24.3984375 C-15.81269531 24.60339844 -15.14882813 24.80835937 -14.46484375 25.01953125 C-14.48804687 24.28347656 -14.51125 23.54742188 -14.53515625 22.7890625 C-14.55320312 21.81324219 -14.57125 20.83742188 -14.58984375 19.83203125 C-14.61304687 18.86910156 -14.63625 17.90617187 -14.66015625 16.9140625 C-14.26246563 11.02028751 -11.94723646 8.07239415 -7.65234375 4.14453125 C-6.80027344 3.34273438 -5.94820312 2.5409375 -5.0703125 1.71484375 C-2.46484375 0.01953125 -2.46484375 0.01953125 0 0 Z " fill="#522673" transform="translate(32.46484375,-0.01953125)"/>
<path d="M0 0 C2.21382851 2.84260821 4.07683668 5.75494364 5.875 8.875 C9.04518584 14.18467086 12.01595539 18.85128051 17.3125 22.25 C18.6428125 23.11625 18.6428125 23.11625 20 24 C20 24.66 20 25.32 20 26 C21.99054876 26.69437747 23.99255385 27.35610218 26 28 C26.825 28.268125 27.65 28.53625 28.5 28.8125 C31.97218022 29.07291352 33.98915346 27.63632964 37 26 C37.99 26 38.98 26 40 26 C40 25.34 40 24.68 40 24 C41.49609375 22.78125 41.49609375 22.78125 43.4375 21.5 C46.22531847 19.7134637 46.22531847 19.7134637 48 17 C47.21625 17.515625 46.4325 18.03125 45.625 18.5625 C44.75875 19.036875 43.8925 19.51125 43 20 C42.34 19.67 41.68 19.34 41 19 C43.01497545 16.39238471 43.96768366 16.00548768 47.3125 15.4375 C52.17455121 13.5421241 53.25883146 10.99040147 55.640625 6.5078125 C56.92088128 4.14596041 58.33662366 2.10368184 60 0 C58.89862243 9.61587342 52.38977739 17.98773451 45 24 C34.09742276 32.28726636 34.09742276 32.28726636 28.09765625 31.68359375 C16.5059148 27.90602438 8.74817341 18.57957731 2.3828125 8.74609375 C0.89507451 5.79163103 0.37464416 3.27093172 0 0 Z " fill="#57277C" transform="translate(2,44)"/>
<path d="M0 0 C0 1.98 0 3.96 0 6 C0.66 6 1.32 6 2 6 C2.05398987 8.27057377 2.09278742 10.54151288 2.125 12.8125 C2.14820312 14.07707031 2.17140625 15.34164062 2.1953125 16.64453125 C2 20 2 20 0 23 C-0.33 22.01 -0.66 21.02 -1 20 C-5.62 20 -10.24 20 -15 20 C-12 17 -12 17 -9.5 15.5625 C-6.90565796 14.16237099 -6.90565796 14.16237099 -5.4375 11.8125 C-4.7259375 10.9153125 -4.7259375 10.9153125 -4 10 C-2.68 10 -1.36 10 0 10 C0.33 9.34 0.66 8.68 1 8 C0.01 8 -0.98 8 -2 8 C-2 6.02 -2 4.04 -2 2 C-6.455 3.485 -6.455 3.485 -11 5 C-11 4.34 -11 3.68 -11 3 C-4.5 0 -4.5 0 0 0 Z " fill="#552C77" transform="translate(62,21)"/>
<path d="M0 0 C0.886875 0.02320313 1.77375 0.04640625 2.6875 0.0703125 C3.574375 0.08835938 4.46125 0.10640625 5.375 0.125 C6.5196875 0.15980469 6.5196875 0.15980469 7.6875 0.1953125 C8.3475 0.1953125 9.0075 0.1953125 9.6875 0.1953125 C12.02083333 0.1953125 14.35416667 0.1953125 16.6875 0.1953125 C16.6875 2.52864583 16.6875 4.86197917 16.6875 7.1953125 C9.6875 7.1953125 2.6875 7.1953125 -4.3125 7.1953125 C-4.4375 4.8203125 -4.4375 4.8203125 -4.3125 2.1953125 C-2.3125 0.1953125 -2.3125 0.1953125 0 0 Z " fill="#AA8012" transform="translate(35.3125,48.8046875)"/>
<path d="M0 0 C5.40389317 0.32750868 8.20093697 3.5430327 12 7 C13.32103998 8.0161846 14.64744276 9.02615879 16 10 C13.50601226 12.49398774 11.16447538 13.10613333 7.875 14.21875 C5.80424247 14.94192432 5.80424247 14.94192432 4 17 C3.33333333 15 2.66666667 13 2 11 C1.62875 9.989375 1.2575 8.97875 0.875 7.9375 C0.03155666 5.10594023 -0.17237553 2.93038397 0 0 Z " fill="#57297A" transform="translate(2,31)"/>
<path d="M0 0 C1.175625 0.7115625 1.175625 0.7115625 2.375 1.4375 C3.303125 1.9325 4.23125 2.4275 5.1875 2.9375 C5.909375 3.4325 6.63125 3.9275 7.375 4.4375 C7.375 5.0975 7.375 5.7575 7.375 6.4375 C0.41472366 10.46167962 0.41472366 10.46167962 -3.3125 10.375 C-5.94382465 9.30824676 -8.25398003 7.99559884 -10.625 6.4375 C-9.41244273 2.79982819 -7.77653509 1.87439223 -4.4609375 0.1015625 C-2.625 -0.5625 -2.625 -0.5625 0 0 Z " fill="#1E1C1E" transform="translate(33.625,63.5625)"/>
<path d="M0 0 C2.90255732 0.66344167 4.60073839 1.45441808 6.375 3.87890625 C7.23665241 5.31242916 8.07490439 6.76033267 8.88671875 8.22265625 C9.88519522 10.15951737 9.88519522 10.15951737 12 11 C10.7625 9.576875 10.7625 9.576875 9.5 8.125 C7 5.25 7 5.25 7 3 C8.75 3.125 8.75 3.125 11 4 C11.556875 4.928125 12.11375 5.85625 12.6875 6.8125 C15.76165071 11.04984287 19.18608709 12.25135642 24 14 C24 14.66 24 15.32 24 16 C16.86775011 16.66039351 11.95973014 14.97315343 6 11 C3.62893158 8.89238363 1.53554303 6.79019404 0 4 C0 2.68 0 1.36 0 0 Z " fill="#552678" transform="translate(6,25)"/>
<path d="M0 0 C1.32 0.66 2.64 1.32 4 2 C3.67 2.99 3.34 3.98 3 5 C3.66 5 4.32 5 5 5 C5.33 3.35 5.66 1.7 6 0 C9.96 0 13.92 0 18 0 C17.67 2.31 17.34 4.62 17 7 C15.68 7 14.36 7 13 7 C12.67 6.01 12.34 5.02 12 4 C11.01 5.485 11.01 5.485 10 7 C10 5.35 10 3.7 10 2 C8.02 2.99 8.02 2.99 6 4 C6 4.66 6 5.32 6 6 C6.66 6.33 7.32 6.66 8 7 C5.03 7 2.06 7 -1 7 C-0.67 4.69 -0.34 2.38 0 0 Z " fill="#B1880F" transform="translate(12,49)"/>
<path d="M0 0 C0.433125 0.495 0.86625 0.99 1.3125 1.5 C2.99740483 3.33218192 2.99740483 3.33218192 6 3 C5.67 3.99 5.34 4.98 5 6 C4.34 5.67 3.68 5.34 3 5 C3.33 6.65 3.66 8.3 4 10 C4.66 10 5.32 10 6 10 C6.33 13.96 6.66 17.92 7 22 C2 19 2 19 0 16 C-0.14245897 13.23344676 -0.18769445 10.57346694 -0.125 7.8125 C-0.11597656 7.06291016 -0.10695313 6.31332031 -0.09765625 5.54101562 C-0.07412578 3.69387346 -0.03825561 1.84689588 0 0 Z " fill="#E8D057" transform="translate(22,14)"/>
<path d="M0 0 C0.33 0 0.66 0 1 0 C1 4.62 1 9.24 1 14 C-11.75 10.125 -11.75 10.125 -14 9 C-14 10.98 -14 12.96 -14 15 C-14.99 15 -15.98 15 -17 15 C-16.67 19.95 -16.34 24.9 -16 30 C-18.49118953 26.2632157 -18.2065226 24.25548181 -18.125 19.8125 C-18.10695313 18.54019531 -18.08890625 17.26789062 -18.0703125 15.95703125 C-18.04710938 14.98121094 -18.02390625 14.00539063 -18 13 C-17.34 13 -16.68 13 -16 13 C-15.67 11.02 -15.34 9.04 -15 7 C-9.86418655 7.95313295 -4.99118521 9.46936987 0 11 C0 7.37 0 3.74 0 0 Z " fill="#5F2886" transform="translate(18,14)"/>
<path d="M0 0 C0.66 0.33 1.32 0.66 2 1 C1.36191406 1.69867188 0.72382813 2.39734375 0.06640625 3.1171875 C-0.75988281 4.02726563 -1.58617187 4.93734375 -2.4375 5.875 C-3.26121094 6.77992188 -4.08492187 7.68484375 -4.93359375 8.6171875 C-7.83466034 11.96246278 -8.10372149 13.48861039 -8 17.8125 C-7.95894963 21.35822594 -8.07981815 24.54931806 -9 28 C-12.30957603 22.4704203 -12.35556392 16.16285646 -11 10 C-7.79263008 5.90027755 -4.26592182 3.00553583 0 0 Z " fill="#312C27" transform="translate(31,1)"/>
<path d="M0 0 C0 1.98 0 3.96 0 6 C0.99 6 1.98 6 3 6 C3 8.64 3 11.28 3 14 C2.67 14 2.34 14 2 14 C2 12.02 2 10.04 2 8 C-1.54518884 9.39759905 -1.54518884 9.39759905 -5 11 C-4.566875 10.1646875 -4.566875 10.1646875 -4.125 9.3125 C-2.9586747 6.91505355 -1.9660119 4.48403061 -1 2 C-2.65 2.33 -4.3 2.66 -6 3 C-6.226875 3.886875 -6.45375 4.77375 -6.6875 5.6875 C-8.19149475 9.48329629 -9.87370429 11.4074621 -13 14 C-13.99 14 -14.98 14 -16 14 C-15.50628906 13.44570313 -15.01257812 12.89140625 -14.50390625 12.3203125 C-13.86324219 11.59585938 -13.22257812 10.87140625 -12.5625 10.125 C-11.92441406 9.40570313 -11.28632812 8.68640625 -10.62890625 7.9453125 C-8.94985535 6.09249509 -8.94985535 6.09249509 -8 4 C-8.99 3.67 -9.98 3.34 -11 3 C-10.34 2.34 -9.68 1.68 -9 1 C-9 1.66 -9 2.32 -9 3 C-8.071875 2.505 -7.14375 2.01 -6.1875 1.5 C-3 0 -3 0 0 0 Z " fill="#2D2037" transform="translate(60,23)"/>
<path d="M0 0 C-0.11933892 3.93818445 -1.55143803 5.89023087 -4.1875 8.625 C-7.20926145 11.46682083 -10.0559054 13.56578378 -14 15 C-14.99 14.67 -15.98 14.34 -17 14 C-12.25 11 -12.25 11 -10 11 C-9.731875 10.46375 -9.46375 9.9275 -9.1875 9.375 C-8.795625 8.59125 -8.40375 7.8075 -8 7 C-7.525625 5.948125 -7.05125 4.89625 -6.5625 3.8125 C-4.75035464 0.55063835 -3.71226719 0 0 0 Z " fill="#59307F" transform="translate(59,25)"/>
<path d="M0 0 C2.625 -0.3125 2.625 -0.3125 6 0 C6.969375 0.86625 7.93875 1.7325 8.9375 2.625 C9.948125 3.40875 10.95875 4.1925 12 5 C15.82647392 4.46780909 15.82647392 4.46780909 19 3 C16.85409771 5.36049251 14.85399218 6.61903604 12 8 C11.34 8.66 10.68 9.32 10 10 C10 9.34 10 8.68 10 8 C9.46375 7.773125 8.9275 7.54625 8.375 7.3125 C5.19684374 5.55615049 2.71920931 3.41020825 0 1 C0 0.67 0 0.34 0 0 Z " fill="#32203E" transform="translate(12,60)"/>
<path d="M0 0 C0 1.98 0 3.96 0 6 C0.66 6 1.32 6 2 6 C2.05398987 8.27057377 2.09278742 10.54151288 2.125 12.8125 C2.14820312 14.07707031 2.17140625 15.34164062 2.1953125 16.64453125 C2 20 2 20 0 23 C-0.33 20.36 -0.66 17.72 -1 15 C-0.67 15 -0.34 15 0 15 C0.33 12.69 0.66 10.38 1 8 C0.01 8 -0.98 8 -2 8 C-2 6.02 -2 4.04 -2 2 C-6.455 3.485 -6.455 3.485 -11 5 C-11 4.34 -11 3.68 -11 3 C-4.5 0 -4.5 0 0 0 Z " fill="#56277A" transform="translate(62,21)"/>
<path d="M0 0 C2.82611219 0.6459685 4.56702555 1.41146586 6.3046875 3.7734375 C7.14808793 5.18259722 7.9787366 6.59946244 8.796875 8.0234375 C10.23091232 10.37935595 11.94365358 12.17213651 14 14 C8.22825532 13.49072841 4.89470184 10.08417203 1.125 5.9375 C0 4 0 4 0 0 Z " fill="#5A3180" transform="translate(6,25)"/>
<path d="M0 0 C0.99 0 1.98 0 3 0 C1.61122646 3.35620271 0.08322035 5.07298728 -3 7 C-3.66 7 -4.32 7 -5 7 C-5.33 7.66 -5.66 8.32 -6 9 C-6.350625 8.5875 -6.70125 8.175 -7.0625 7.75 C-9.78344094 5.29237593 -12.78439652 3.75948115 -16 2 C-15.01 1.67 -14.02 1.34 -13 1 C-12.071875 1.53625 -11.14375 2.0725 -10.1875 2.625 C-6.99949016 4.43799545 -6.99949016 4.43799545 -3.6875 2.75 C-1.18043618 1.24933782 -1.18043618 1.24933782 0 0 Z " fill="#2E1F37" transform="translate(47,61)"/>
<path d="M0 0 C0.90492187 0.02320313 1.80984375 0.04640625 2.7421875 0.0703125 C4.10730469 0.09738281 4.10730469 0.09738281 5.5 0.125 C6.19867188 0.14820313 6.89734375 0.17140625 7.6171875 0.1953125 C5.6371875 3.1653125 5.6371875 3.1653125 3.6171875 6.1953125 C3.4728125 5.5559375 3.3284375 4.9165625 3.1796875 4.2578125 C2.80711569 2.21986104 2.80711569 2.21986104 1.6171875 1.1953125 C1.6171875 2.5153125 1.6171875 3.8353125 1.6171875 5.1953125 C-1.3828125 7.1953125 -1.3828125 7.1953125 -4.3828125 7.1953125 C-4.5078125 4.8203125 -4.5078125 4.8203125 -4.3828125 2.1953125 C-2.3828125 0.1953125 -2.3828125 0.1953125 0 0 Z " fill="#625013" transform="translate(35.3828125,48.8046875)"/>
<path d="M0 0 C0.99 0 1.98 0 3 0 C1.63835184 5.14400416 -1.6884072 8.1256048 -6 11 C-8.2265625 11.671875 -8.2265625 11.671875 -10 12 C-9.278125 11.319375 -8.55625 10.63875 -7.8125 9.9375 C-5.68863346 7.84371656 -4.03161929 5.66487597 -2.375 3.1875 C-1.59125 2.135625 -0.8075 1.08375 0 0 Z " fill="#552576" transform="translate(49,27)"/>
<path d="M0 0 C0.433125 0.495 0.86625 0.99 1.3125 1.5 C2.99740483 3.33218192 2.99740483 3.33218192 6 3 C5.67 3.99 5.34 4.98 5 6 C4.34 5.67 3.68 5.34 3 5 C3.33 6.65 3.66 8.3 4 10 C4.66 10 5.32 10 6 10 C5.67 11.32 5.34 12.64 5 14 C5 13.34 5 12.68 5 12 C4.34 12 3.68 12 3 12 C0.97667384 10.13231431 0.06701213 8.71661952 -0.19140625 5.953125 C-0.18788604 3.9677277 -0.09914617 1.98292332 0 0 Z " fill="#C9B65B" transform="translate(22,14)"/>
<path d="M0 0 C1.98 0 3.96 0 6 0 C5.67 2.31 5.34 4.62 5 7 C3.68 7 2.36 7 1 7 C0.67 4.69 0.34 2.38 0 0 Z " fill="#977312" transform="translate(24,49)"/>
<path d="M0 0 C1.5027237 0.97498145 3.00211963 1.95509389 4.5 2.9375 C5.3353125 3.48277344 6.170625 4.02804688 7.03125 4.58984375 C7.6809375 5.05519531 8.330625 5.52054688 9 6 C9 6.33 9 6.66 9 7 C6.03 7 3.06 7 0 7 C0 4.69 0 2.38 0 0 Z " fill="#623B8E" transform="translate(3,33)"/>
<path d="M0 0 C0 2.31 0 4.62 0 7 C-3.3 7 -6.6 7 -10 7 C-9.01 6.34 -8.02 5.68 -7 5 C-5.94850656 4.13683374 -4.90679566 3.26161838 -3.875 2.375 C-1 0 -1 0 0 0 Z " fill="#623B8F" transform="translate(61,33)"/>
<path d="M0 0 C0.86625 0.556875 0.86625 0.556875 1.75 1.125 C-1.25 2.125 -1.25 2.125 -4.25 1.125 C-3.48286356 2.23173834 -2.71110997 3.33527694 -1.9375 4.4375 C-1.50824219 5.05238281 -1.07898438 5.66726562 -0.63671875 6.30078125 C0.70929534 8.07145331 2.14192803 9.59238009 3.75 11.125 C-0.67326378 9.77344718 -2.65412982 7.92609562 -5.25 4.125 C-5.58 3.135 -5.91 2.145 -6.25 1.125 C-2.80384615 -1.09038462 -2.80384615 -1.09038462 0 0 Z " fill="#32223F" transform="translate(17.25,26.875)"/>
<path d="M0 0 C3.3 0 6.6 0 10 0 C7.33333333 2 4.66666667 4 2 6 C1.34 4.02 0.68 2.04 0 0 Z " fill="#5A2F81" transform="translate(4,42)"/>
<path d="M0 0 C3.3 0 6.6 0 10 0 C9.67 1.65 9.34 3.3 9 5 C5.9168649 3.80100302 2.93720508 2.52299523 0 1 C0 0.67 0 0.34 0 0 Z " fill="#5A2F80" transform="translate(50,42)"/>
<path d="M0 0 C0.33 0 0.66 0 1 0 C1 1.98 1 3.96 1 6 C1.99 6 2.98 6 4 6 C4 8.64 4 11.28 4 14 C3.67 14 3.34 14 3 14 C3 12.02 3 10.04 3 8 C-0.54518884 9.39759905 -0.54518884 9.39759905 -4 11 C-3.71125 10.484375 -3.4225 9.96875 -3.125 9.4375 C-1.71219973 6.37643275 -0.8751483 3.25055082 0 0 Z " fill="#271F2D" transform="translate(59,23)"/>
<path d="M0 0 C0.99 0.33 1.98 0.66 3 1 C2.34 2.98 1.68 4.96 1 7 C0.01 7 -0.98 7 -2 7 C-2.125 4.625 -2.125 4.625 -2 2 C-1.34 1.34 -0.68 0.68 0 0 Z " fill="#9F7812" transform="translate(33,49)"/>
<path d="M0 0 C3.625 0.125 3.625 0.125 6.625 1.125 C6.625 1.785 6.625 2.445 6.625 3.125 C5.366875 3.16625 4.10875 3.2075 2.8125 3.25 C2.10480469 3.27320313 1.39710937 3.29640625 0.66796875 3.3203125 C-1.375 3.125 -1.375 3.125 -4.375 1.125 C-3.375 0.125 -3.375 0.125 0 0 Z " fill="#44285B" transform="translate(23.375,37.875)"/>
<path d="M0 0 C0.33 0.66 0.66 1.32 1 2 C0.34 2 -0.32 2 -1 2 C-1 2.66 -1 3.32 -1 4 C-3.64 4 -6.28 4 -9 4 C-9 3.34 -9 2.68 -9 2 C-6.03 1.34 -3.06 0.68 0 0 Z " fill="#402655" transform="translate(43,37)"/>
<path d="M0 0 C0.33 1.32 0.66 2.64 1 4 C0.01 4.66 -0.98 5.32 -2 6 C-2.66 5.67 -3.32 5.34 -4 5 C-4.33 5.99 -4.66 6.98 -5 8 C-4.64950425 4.75791433 -4.43778819 3.38472296 -1.9375 1.1875 C-1.298125 0.795625 -0.65875 0.40375 0 0 Z " fill="#4B3C20" transform="translate(38,18)"/>
<path d="M0 0 C-1.98 0.99 -1.98 0.99 -4 2 C-4.33 1.67 -4.66 1.34 -5 1 C-6.51469448 0.76807135 -8.03754562 0.58784762 -9.5625 0.4375 C-10.38878906 0.35371094 -11.21507812 0.26992188 -12.06640625 0.18359375 C-12.70449219 0.12300781 -13.34257812 0.06242187 -14 0 C-14 -0.33 -14 -0.66 -14 -1 C-12.23086176 -1.22226864 -10.45955629 -1.42733873 -8.6875 -1.625 C-7.70136719 -1.74101563 -6.71523437 -1.85703125 -5.69921875 -1.9765625 C-3 -2 -3 -2 0 0 Z " fill="#4B2F66" transform="translate(18,41)"/>
</svg>
