<?xml version="1.0" encoding="UTF-8"?>
<svg version="1.1" xmlns="http://www.w3.org/2000/svg" width="352" height="425">
<path d="M0 0 C0.82129395 0.45552246 1.64258789 0.91104492 2.48876953 1.38037109 C3.42841553 1.8945459 4.36806152 2.4087207 5.33618164 2.93847656 C6.83870483 3.78756592 6.83870483 3.78756592 8.37158203 4.65380859 C9.42804932 5.2392041 10.4845166 5.82459961 11.57299805 6.42773438 C22.98345978 12.78444807 34.26441108 19.3632706 45.49658203 26.02880859 C46.55619141 26.65609863 47.61580078 27.28338867 48.70751953 27.9296875 C61.81545812 35.69975601 74.78858272 43.61982392 87.49658203 52.02880859 C88.55619141 52.72232422 89.61580078 53.41583984 90.70751953 54.13037109 C107.14416299 64.95871101 123.14193557 76.52283211 137.49658203 90.02880859 C138.70314453 91.12128906 138.70314453 91.12128906 139.93408203 92.23583984 C148.93816943 100.69198113 152.24465501 108.97968807 153.05322266 121.14794922 C153.10053024 121.846465 153.14783783 122.54498077 153.19657898 123.2646637 C153.35192392 125.57125706 153.50247472 127.87813515 153.65283203 130.18505859 C153.76087543 131.80913824 153.86915598 133.43320212 153.97766113 135.05725098 C154.20495718 138.46999979 154.42999147 141.88288777 154.65332031 145.29589844 C154.93551104 149.6071178 155.22228389 153.9180163 155.51059246 158.22883034 C160.41162344 231.58562288 160.41162344 231.58562288 141.49658203 263.02880859 C142.25583984 262.52349609 143.01509766 262.01818359 143.79736328 261.49755859 C144.79123047 260.84787109 145.78509766 260.19818359 146.80908203 259.52880859 C147.79521484 258.87912109 148.78134766 258.22943359 149.79736328 257.56005859 C152.49658203 256.02880859 152.49658203 256.02880859 155.49658203 256.02880859 C155.63359528 256.84328209 155.63359528 256.84328209 155.77337646 257.67420959 C156.73865646 263.40366288 157.71400565 269.13134108 158.69482422 274.8581543 C159.05800699 276.98630893 159.41874967 279.11488166 159.77685547 281.24389648 C161.6334585 292.27201476 163.5217223 303.16488717 166.67333984 313.90551758 C169.06558182 322.98142256 169.06558182 322.98142256 166.82861328 327.09912109 C165.99716797 328.10716797 165.16572266 329.11521484 164.30908203 330.15380859 C163.86000488 330.70512451 163.41092773 331.25644043 162.94824219 331.82446289 C155.91527622 340.33659396 148.29409623 348.34850278 140.41503906 356.07641602 C138.61126685 357.91209512 136.94446557 359.80396969 135.28173828 361.76708984 C131.51788569 366.09549539 127.4519024 370.00893209 123.24658203 373.90380859 C122.49787842 374.60143311 121.7491748 375.29905762 120.9777832 376.01782227 C119.49091998 377.40121532 118.00228908 378.78271144 116.51171875 380.16210938 C114.8140394 381.73473554 113.12419816 383.31501474 111.43798828 384.89990234 C104.45461064 391.38520848 97.07899084 397.26843529 89.49658203 403.02880859 C88.89297852 403.48932617 88.289375 403.94984375 87.66748047 404.42431641 C80.63460819 409.76540674 73.45014475 414.88169016 66.05908203 419.71630859 C65.10219482 420.36805054 65.10219482 420.36805054 64.12597656 421.03295898 C59.3793838 424.05750618 56.11422979 424.57629121 50.49658203 424.02880859 C47.93408203 422.59130859 47.93408203 422.59130859 46.49658203 420.02880859 C46.3752863 413.59848431 48.44054581 407.92484798 50.74658203 402.02880859 C57.24737304 384.4048511 60.12657612 365.70926295 61.49658203 347.02880859 C61.58488281 346.01326904 61.67318359 344.99772949 61.76416016 343.95141602 C62.45493994 334.96463672 62.53414289 326.03705957 62.49658203 317.02490234 C62.49701577 313.15860469 62.50054975 309.29232053 62.50488281 305.42602539 C62.49931252 302.76883326 62.48242894 300.11486708 62.4453125 297.45825195 C62.4001324 293.58346391 62.41191817 289.7123155 62.43408203 285.83740234 C62.40636719 284.65504501 62.37865234 283.47268768 62.35009766 282.25450134 C62.46646323 274.24538645 62.46646323 274.24538645 65.39550781 270.78616333 C68.55529938 268.27656783 71.85594339 266.37784024 75.3918457 264.45141602 C78.2911374 262.49176253 78.93735281 260.51105067 80.17236328 257.26708984 C80.60742188 256.14882813 81.04248047 255.03056641 81.49072266 253.87841797 C81.92578125 252.71117187 82.36083984 251.54392578 82.80908203 250.34130859 C83.26347656 249.16246094 83.71787109 247.98361328 84.18603516 246.76904297 C85.30452253 243.8609758 86.40727283 240.94790356 87.49658203 238.02880859 C102.85773536 237.8834349 118.1523477 238.31077099 133.49658203 239.02880859 C124.67765219 231.76205033 115.85739429 224.59327651 106.49658203 218.02880859 C106.07767884 220.35158718 106.07767884 220.35158718 106.49658203 223.02880859 C108.67701679 225.30360816 108.67701679 225.30360816 111.49658203 227.21630859 C113.19232431 228.44807694 114.86708058 229.71065831 116.49658203 231.02880859 C116.49658203 231.68880859 116.49658203 232.34880859 116.49658203 233.02880859 C113.10076687 233.057963 109.70498417 233.07565928 106.30908203 233.09130859 C105.349375 233.0996875 104.38966797 233.10806641 103.40087891 233.11669922 C102.46953125 233.11992187 101.53818359 233.12314453 100.57861328 233.12646484 C99.72501221 233.13170166 98.87141113 233.13693848 97.99194336 233.14233398 C95.40411456 233.02460183 93.0199625 232.59987904 90.49658203 232.02880859 C93.17159254 222.19038044 97.02372906 212.85388492 100.80908203 203.40380859 C102.11988324 200.12083124 103.4281684 196.83685988 104.73486328 193.55224609 C105.05182159 192.75622986 105.36877991 191.96021362 105.69534302 191.14007568 C108.73646637 183.47614336 111.63727393 175.76213522 114.49658203 168.02880859 C106.1494859 173.4042862 97.82211304 178.80855442 89.52392578 184.25927734 C88.82139679 184.7207164 88.1188678 185.18215546 87.39505005 185.65757751 C83.83544362 187.99619055 80.27683979 190.33631676 76.71923828 192.67797852 C72.98325391 195.13578962 69.24249603 197.58615903 65.49658203 200.02880859 C64.61502441 200.60405273 63.7334668 201.17929688 62.82519531 201.77197266 C57.74311225 205.02880859 57.74311225 205.02880859 55.49658203 205.02880859 C54.48824133 201.44776885 53.49137118 197.86363434 52.49658203 194.27880859 C52.21041016 193.26302734 51.92423828 192.24724609 51.62939453 191.20068359 C51.35869141 190.22099609 51.08798828 189.24130859 50.80908203 188.23193359 C50.43203125 186.88083496 50.43203125 186.88083496 50.04736328 185.50244141 C49.49658203 183.02880859 49.49658203 183.02880859 49.49658203 179.02880859 C52.53510908 180.43857565 55.09054153 182.11751087 57.74658203 184.15380859 C58.45298828 184.69263672 59.15939453 185.23146484 59.88720703 185.78662109 C60.41830078 186.19654297 60.94939453 186.60646484 61.49658203 187.02880859 C62.81658203 186.36880859 64.13658203 185.70880859 65.49658203 185.02880859 C57.38575508 178.02994985 49.15248407 171.34527765 40.49658203 165.02880859 C42.93652797 176.18284715 45.88988303 187.10273971 49.29760742 198.00341797 C49.74608032 199.4797168 49.74608032 199.4797168 50.20361328 200.98583984 C50.47665283 201.86216064 50.74969238 202.73848145 51.03100586 203.64135742 C51.54430518 206.2735305 51.5878428 207.58273609 50.49658203 210.02880859 C48.73754883 211.54931641 48.73754883 211.54931641 46.44580078 212.98193359 C45.60710449 213.51488037 44.7684082 214.04782715 43.90429688 214.59692383 C43.00662598 215.1519458 42.10895508 215.70696777 41.18408203 216.27880859 C40.27867676 216.8551001 39.37327148 217.4313916 38.44042969 218.02514648 C34.5033696 220.53102728 30.54471994 222.99990764 26.57080078 225.44677734 C25.51505859 226.11322266 24.45931641 226.77966797 23.37158203 227.46630859 C22.46150391 228.02189453 21.55142578 228.57748047 20.61376953 229.14990234 C17.81961929 231.6295818 17.37066116 233.39711547 16.49658203 237.02880859 C16.63144752 239.87045132 16.87474468 242.49683622 17.28955078 245.29443359 C17.39624588 246.08670349 17.50294098 246.87897339 17.61286926 247.69525146 C17.95710389 250.2250651 18.32054482 252.75170492 18.68408203 255.27880859 C18.90989433 256.92968617 19.13451359 258.58072739 19.35791016 260.23193359 C20.26340275 266.83516713 21.20605006 273.42772634 22.34277344 279.99560547 C22.48129227 280.79722107 22.6198111 281.59883667 22.76252747 282.42474365 C23.02594652 283.92775926 23.29552751 285.42971502 23.57279968 286.93023682 C24.41597325 291.703246 24.83822598 296.17928146 24.49658203 301.02880859 C22.2188251 303.19491078 20.53668233 304.45658356 17.87158203 305.96630859 C16.49632897 306.80313244 15.12133521 307.64038255 13.74658203 308.47802734 C13.04146484 308.89487793 12.33634766 309.31172852 11.60986328 309.74121094 C9.53653902 311.00446326 7.54796375 312.34412488 5.55908203 313.73583984 C4.93855957 314.16324463 4.31803711 314.59064941 3.67871094 315.03100586 C2.49631804 315.84743522 1.32111554 316.67440258 0.15429688 317.51293945 C-2.4141901 319.2322986 -3.84957466 320.15498888 -6.95263672 319.55615234 C-10.265711 317.57236667 -13.50176185 315.51890299 -16.69091797 313.34130859 C-17.34785645 312.89505127 -18.00479492 312.44879395 -18.68164062 311.98901367 C-20.00309789 311.09022246 -21.32343047 310.18977524 -22.64257812 309.28759766 C-24.30293691 308.16442659 -25.98579285 307.07467828 -27.67138672 305.98974609 C-28.56470703 305.40451172 -29.45802734 304.81927734 -30.37841797 304.21630859 C-31.15958984 303.71486328 -31.94076172 303.21341797 -32.74560547 302.69677734 C-35.02862056 300.53044969 -35.0919663 299.11669501 -35.50341797 296.02880859 C-35.36465454 293.73503113 -35.36465454 293.73503113 -34.99023438 291.36547852 C-34.78474472 290.02334541 -34.78474472 290.02334541 -34.57510376 288.65409851 C-34.41996307 287.69880753 -34.26482239 286.74351654 -34.10498047 285.75927734 C-33.95056488 284.7643074 -33.79614929 283.76933746 -33.63705444 282.74421692 C-33.14227828 279.56691622 -32.63570001 276.39163428 -32.12841797 273.21630859 C-31.63085471 270.05133375 -31.13570313 266.8859903 -30.64120483 263.72053528 C-30.33302516 261.7534405 -30.02261742 259.78669306 -29.70962524 257.82035828 C-28.87670694 252.56461395 -28.13511794 247.31255402 -27.50341797 242.02880859 C-27.33326172 240.77197266 -27.33326172 240.77197266 -27.15966797 239.48974609 C-26.83330549 235.21324581 -26.83330549 235.21324581 -28.72094727 231.52197266 C-33.82846751 227.38336477 -39.232531 223.86604514 -44.81591797 220.40380859 C-46.80905189 219.15140727 -48.80122932 217.89748252 -50.79248047 216.64208984 C-51.77120117 216.02543457 -52.74992187 215.4087793 -53.75830078 214.7734375 C-57.43983674 212.43367799 -61.07169263 210.02597964 -64.69091797 207.59130859 C-75.29054509 200.46964488 -85.97649026 193.47954835 -96.65454102 186.47631836 C-105.96486846 180.36774596 -115.24758648 174.21965523 -124.50341797 168.02880859 C-124.50341797 170.62753309 -123.66374059 172.4026636 -122.70605469 174.82519531 C-122.31027725 175.83121796 -121.91449982 176.8372406 -121.50672913 177.87374878 C-121.06993332 178.97421539 -120.63313751 180.07468201 -120.18310547 181.20849609 C-119.5073069 182.92433395 -119.5073069 182.92433395 -118.81785583 184.67483521 C-116.58520031 190.33997739 -114.34036877 196.00027238 -112.09495258 201.66036606 C-110.82471428 204.86333771 -109.55630687 208.067032 -108.28857422 211.27099609 C-108.03672804 211.90698479 -107.78488186 212.54297348 -107.52540398 213.19823456 C-104.34005241 221.25019394 -101.25369753 229.32975233 -98.31201172 237.47412109 C-97.41912571 239.90916094 -96.52445315 242.34353894 -95.62969971 244.77789307 C-95.09429402 246.25882207 -94.57124727 247.74428772 -94.06170654 249.23431396 C-90.625262 259.27884074 -86.63804339 264.44018589 -77.50341797 270.02880859 C-75.64712143 271.68545651 -74.61583854 272.80396745 -73.50341797 275.02880859 C-73.39856013 276.93786813 -73.35738829 278.85054978 -73.34570312 280.76245117 C-73.33544098 281.97004593 -73.32517883 283.17764069 -73.31460571 284.42182922 C-73.31116779 285.07185724 -73.30772987 285.72188526 -73.30418777 286.3916111 C-73.29230419 288.45393245 -73.27280664 290.51605308 -73.25106812 292.57829285 C-73.18992338 298.4454321 -73.13641235 304.3125701 -73.10205078 310.17993164 C-72.90147132 342.61362814 -71.80889496 375.90602834 -59.73876953 406.43725586 C-57.76546465 411.54846593 -56.91720531 415.53380513 -57.50341797 421.02880859 C-59.01244375 423.03659001 -59.97529313 423.88689405 -62.41137695 424.54150391 C-69.58647955 424.75979514 -73.8719258 421.87378841 -79.56591797 417.77880859 C-80.48131348 417.14273682 -81.39670898 416.50666504 -82.33984375 415.85131836 C-85.07924495 413.93469284 -87.79396218 411.98746967 -90.50341797 410.02880859 C-91.63384521 409.2212915 -91.63384521 409.2212915 -92.78710938 408.39746094 C-102.85455722 401.18047716 -112.30733678 393.32109802 -121.50341797 385.02880859 C-122.37957764 384.24094971 -123.2557373 383.45309082 -124.15844727 382.64135742 C-131.35046322 376.13481668 -138.28826988 369.40027961 -145.13256836 362.5300293 C-146.82861523 360.82857082 -148.53001618 359.13259597 -150.23193359 357.43701172 C-155.86865067 351.80419081 -161.37158903 346.13241479 -166.50341797 340.02880859 C-167.52137959 338.8436829 -168.53960304 337.65878205 -169.55810547 336.47412109 C-170.49888771 335.36792659 -171.4390026 334.26116414 -172.37841797 333.15380859 C-173.10544922 332.30302734 -173.10544922 332.30302734 -173.84716797 331.43505859 C-178.54815242 325.89367469 -178.54815242 325.89367469 -178.31591797 321.40380859 C-177.79639297 317.17088904 -176.78692148 313.17649653 -175.68310547 309.06005859 C-173.0518648 298.87637247 -171.46406713 288.53276633 -169.81591797 278.15380859 C-169.35634279 275.28561654 -168.8947847 272.41777633 -168.42948914 269.55050659 C-168.14317038 267.78377486 -167.86032182 266.01647635 -167.58137512 264.24856567 C-166.61504535 258.25206336 -166.61504535 258.25206336 -165.50341797 256.02880859 C-161.93301494 256.68783158 -159.32609542 258.19110017 -156.25341797 260.09130859 C-155.36138672 260.63916016 -154.46935547 261.18701172 -153.55029297 261.75146484 C-152.53708984 262.38375 -152.53708984 262.38375 -151.50341797 263.02880859 C-152.15568359 261.96404297 -152.80794922 260.89927734 -153.47998047 259.80224609 C-173.1023376 227.36996357 -168.72971848 195.47045621 -166.30218506 158.93035889 C-166.06774462 155.35298055 -165.84561475 151.77487777 -165.62343788 148.19672012 C-165.40551978 144.70807293 -165.18085608 141.21988567 -164.95408249 137.73180389 C-164.84781144 136.08786503 -164.74335101 134.44380793 -164.6408577 132.79962921 C-163.19452813 109.79201897 -158.16706678 98.23469112 -140.60888672 82.63818359 C-122.8070601 67.45984448 -102.83552062 54.34632083 -82.77099609 42.39599609 C-80.39926528 40.96601197 -78.05111902 39.50286443 -75.70654297 38.02880859 C-62.9173023 29.99131638 -49.88701338 22.42125707 -36.73461914 14.99943542 C-32.74090684 12.74188323 -28.77396252 10.44198209 -24.81591797 8.12255859 C-23.24753174 7.21183594 -23.24753174 7.21183594 -21.64746094 6.28271484 C-19.68759818 5.14413697 -17.73312377 3.99621387 -15.78515625 2.83740234 C-14.91101074 2.33337891 -14.03686523 1.82935547 -13.13623047 1.31005859 C-12.00531982 0.64586914 -12.00531982 0.64586914 -10.8515625 -0.03173828 C-6.99689774 -1.57392481 -3.85848844 -1.4968858 0 0 Z " fill="#390B65" transform="translate(178.50341796875,0.97119140625)"/>
<path d="M0 0 C4.49597085 0.89919417 6.96756538 1.86660193 10.8828125 4.03515625 C12.0363623 4.67146973 13.18991211 5.3077832 14.37841797 5.96337891 C15.62755308 6.66259589 16.87640654 7.36231624 18.125 8.0625 C19.42459556 8.78572786 20.72423821 9.5088711 22.02392578 10.23193359 C35.1664196 17.56891259 48.10473287 25.23749276 61 33 C63.02080998 34.20837238 65.04164271 35.41670674 67.0625 36.625 C93.64470557 52.58892044 120.33475137 69.67475762 143 91 C144.2065625 92.09248047 144.2065625 92.09248047 145.4375 93.20703125 C154.4415874 101.66317254 157.74807298 109.95087948 158.55664062 122.11914062 C158.62760201 123.16691429 158.62760201 123.16691429 158.69999695 124.2358551 C158.85534189 126.54244846 159.00589269 128.84932656 159.15625 131.15625 C159.2642934 132.78032964 159.37257395 134.40439352 159.4810791 136.02844238 C159.70837514 139.44119119 159.93340944 142.85407917 160.15673828 146.26708984 C160.43892901 150.57830921 160.72570186 154.8892077 161.01401043 159.20002174 C165.91504141 232.55681428 165.91504141 232.55681428 147 264 C147.75925781 263.4946875 148.51851562 262.989375 149.30078125 262.46875 C150.29464844 261.8190625 151.28851563 261.169375 152.3125 260.5 C153.29863281 259.8503125 154.28476562 259.200625 155.30078125 258.53125 C158 257 158 257 161 257 C161.09134216 257.54298233 161.18268433 258.08596466 161.27679443 258.645401 C162.24207443 264.37485429 163.21742362 270.10253249 164.19824219 275.8293457 C164.56142496 277.95750034 164.92216764 280.08607307 165.28027344 282.21508789 C167.13687647 293.24320617 169.02514027 304.13607858 172.17675781 314.87670898 C174.56899979 323.95261397 174.56899979 323.95261397 172.33203125 328.0703125 C171.08486328 329.58238281 171.08486328 329.58238281 169.8125 331.125 C169.36342285 331.67631592 168.9143457 332.22763184 168.45166016 332.7956543 C161.41869419 341.30778537 153.7975142 349.31969419 145.91845703 357.04760742 C144.11468481 358.88328653 142.44788354 360.7751611 140.78515625 362.73828125 C137.02130366 367.06668679 132.95532037 370.9801235 128.75 374.875 C128.00129639 375.57262451 127.25259277 376.27024902 126.48120117 376.98901367 C124.99433794 378.37240672 123.50570705 379.75390284 122.01513672 381.13330078 C120.31745737 382.70592694 118.62761613 384.28620614 116.94140625 385.87109375 C109.9580286 392.35639988 102.58240881 398.23962669 95 404 C94.39639648 404.46051758 93.79279297 404.92103516 93.17089844 405.39550781 C86.13802616 410.73659815 78.95356272 415.85288156 71.5625 420.6875 C70.60561279 421.33924194 70.60561279 421.33924194 69.62939453 422.00415039 C64.88280177 425.02869759 61.61764776 425.54748262 56 425 C53.4375 423.5625 53.4375 423.5625 52 421 C51.87870426 414.56967572 53.94396378 408.89603939 56.25 403 C62.75079101 385.3760425 65.62999409 366.68045436 67 348 C67.13245117 346.47669067 67.13245117 346.47669067 67.26757812 344.92260742 C67.95835791 335.93582813 68.03756086 327.00825097 68 317.99609375 C68.00043374 314.12979609 68.00396772 310.26351193 68.00830078 306.3972168 C68.00273049 303.74002467 67.98584691 301.08605849 67.94873047 298.42944336 C67.90355037 294.55465531 67.91533614 290.68350691 67.9375 286.80859375 C67.90978516 285.62623642 67.88207031 284.44387909 67.85351562 283.22569275 C67.96988119 275.21657786 67.96988119 275.21657786 70.89892578 271.75735474 C74.05871735 269.24775924 77.35936136 267.34903164 80.89526367 265.42260742 C83.79455537 263.46295394 84.44077078 261.48224208 85.67578125 258.23828125 C86.11083984 257.12001953 86.54589844 256.00175781 86.99414062 254.84960938 C87.42919922 253.68236328 87.86425781 252.51511719 88.3125 251.3125 C88.76689453 250.13365234 89.22128906 248.95480469 89.68945312 247.74023438 C90.8079405 244.83216721 91.9106908 241.91909497 93 239 C108.36115333 238.85462631 123.65576567 239.2819624 139 240 C130.18107016 232.73324174 121.36081226 225.56446792 112 219 C111.58109681 221.32277859 111.58109681 221.32277859 112 224 C114.18043476 226.27479957 114.18043476 226.27479957 117 228.1875 C118.69574228 229.41926835 120.37049855 230.68184972 122 232 C122 232.66 122 233.32 122 234 C118.60418484 234.0291544 115.20840214 234.04685068 111.8125 234.0625 C110.37293945 234.07506836 110.37293945 234.07506836 108.90429688 234.08789062 C107.50727539 234.09272461 107.50727539 234.09272461 106.08203125 234.09765625 C105.22843018 234.10289307 104.3748291 234.10812988 103.49536133 234.11352539 C100.90753253 233.99579323 98.52338047 233.57107044 96 233 C98.67501051 223.16157184 102.52714703 213.82507633 106.3125 204.375 C107.62330121 201.09202265 108.93158637 197.80805129 110.23828125 194.5234375 C110.55523956 193.72742126 110.87219788 192.93140503 111.19876099 192.11126709 C114.23988434 184.44733477 117.1406919 176.73332662 120 169 C111.65290387 174.3754776 103.32553101 179.77974583 95.02734375 185.23046875 C94.32481476 185.69190781 93.62228577 186.15334686 92.89846802 186.62876892 C89.33886159 188.96738196 85.78025776 191.30750816 82.22265625 193.64916992 C78.48667188 196.10698103 74.745914 198.55735044 71 201 C70.11844238 201.57524414 69.23688477 202.15048828 68.32861328 202.74316406 C63.24653022 206 63.24653022 206 61 206 C59.9916593 202.41896026 58.99478914 198.83482575 58 195.25 C57.71382812 194.23421875 57.42765625 193.2184375 57.1328125 192.171875 C56.86210937 191.1921875 56.59140625 190.2125 56.3125 189.203125 C56.06113281 188.30239258 55.80976563 187.40166016 55.55078125 186.47363281 C55 184 55 184 55 180 C58.03852705 181.40976705 60.5939595 183.08870228 63.25 185.125 C63.95640625 185.66382813 64.6628125 186.20265625 65.390625 186.7578125 C65.92171875 187.16773438 66.4528125 187.57765625 67 188 C68.32 187.34 69.64 186.68 71 186 C62.88917305 179.00114126 54.65590203 172.31646905 46 166 C48.43994593 177.15403855 51.393301 188.07393112 54.80102539 198.97460938 C55.24949829 200.4509082 55.24949829 200.4509082 55.70703125 201.95703125 C55.9800708 202.83335205 56.25311035 203.70967285 56.53442383 204.61254883 C57.04772315 207.24472191 57.09126076 208.5539275 56 211 C54.2409668 212.52050781 54.2409668 212.52050781 51.94921875 213.953125 C51.11052246 214.48607178 50.27182617 215.01901855 49.40771484 215.56811523 C48.51004395 216.12313721 47.61237305 216.67815918 46.6875 217.25 C45.78209473 217.8262915 44.87668945 218.40258301 43.94384766 218.99633789 C40.00678757 221.50221869 36.04813791 223.97109905 32.07421875 226.41796875 C30.49060547 227.41763672 30.49060547 227.41763672 28.875 228.4375 C27.96492188 228.99308594 27.05484375 229.54867187 26.1171875 230.12109375 C23.32303726 232.60077321 22.87407913 234.36830688 22 238 C22.13486549 240.84164272 22.37816265 243.46802763 22.79296875 246.265625 C22.89966385 247.0578949 23.00635895 247.85016479 23.11628723 248.66644287 C23.46052186 251.1962565 23.82396278 253.72289632 24.1875 256.25 C24.4133123 257.90087757 24.63793156 259.55191879 24.86132812 261.203125 C25.76682072 267.80635854 26.70946803 274.39891775 27.84619141 280.96679688 C27.98471024 281.76841248 28.12322906 282.57002808 28.26594543 283.39593506 C28.52936448 284.89895067 28.79894548 286.40090642 29.07621765 287.90142822 C29.91939122 292.67443741 30.34164395 297.15047287 30 302 C27.72238607 304.16596619 26.03927531 305.42685525 23.375 306.9375 C22.70581543 307.34790527 22.03663086 307.75831055 21.34716797 308.18115234 C19.94827599 309.03860126 18.54265457 309.88515807 17.13085938 310.72119141 C13.73339968 312.76013433 10.43829264 314.95306846 7.125 317.125 C1.16899629 321 1.16899629 321 0 321 C0 215.07 0 109.14 0 0 Z " fill="#5B2981" transform="translate(173,0)"/>
</svg>
