<?xml version="1.0" encoding="UTF-8"?>
<svg version="1.1" xmlns="http://www.w3.org/2000/svg" width="74" height="75">
<path d="M0 0 C4.27929085 3.11880519 7.77098574 6.63223559 11 10.8125 C13.63942622 13.98839497 15.91963313 15.20299498 19.9765625 15.92578125 C24.6570839 16.09746061 28.18696273 14.54202485 32 12 C32 11.34 32 10.68 32 10 C31.34 9.67 30.68 9.34 30 9 C31.875 3.25 31.875 3.25 33 1 C37.40595131 2.3462629 39.58291088 4.06103995 42 8 C42.79223991 12.13725285 42.27121016 13.58907552 39.9375 17.125 C35.64077174 21.77572008 30.23981216 24.58558227 23.921875 25.203125 C17.11309188 25.35007715 11.70679264 24.31067664 6.4375 19.8125 C5.04413491 18.20477104 3.65549249 16.59285476 2.28125 14.96875 C1.6728125 14.2571875 1.064375 13.545625 0.4375 12.8125 C-0.12066406 12.13832031 -0.67882812 11.46414062 -1.25390625 10.76953125 C-3.67807822 8.31282006 -5.7250057 7.1784992 -9.1484375 6.69921875 C-14.20959205 6.67258109 -17.56951207 7.27354589 -22 10 C-22 10.66 -22 11.32 -22 12 C-18.44679132 14.61265344 -15.40831184 15.82712503 -11 16 C-8.86577884 15.36297962 -6.87025905 14.58790487 -4.83203125 13.69140625 C-3 13 -3 13 0 13 C1.75 14.75 1.75 14.75 3 17 C3 19.0625 3 19.0625 2 21 C-3.58880586 25.07831779 -9.26107469 25.62069049 -16 25 C-22.12023903 23.51365624 -26.43944387 20.64885117 -30.8125 16.125 C-32.46316815 13.17117278 -32.47683885 11.33787193 -32 8 C-28.74620946 2.74387682 -24.31030913 -0.15988759 -18.5625 -2.25 C-11.71323863 -3.69194976 -6.15001316 -3.32782739 0 0 Z " fill="#FCC700" transform="translate(32,26)"/>
<path d="M0 0 C2.4375 0.9375 2.4375 0.9375 5.5 2.453125 C9.89509572 4.34361823 14.14244178 4.49152737 18.875 4.625 C19.70193359 4.65916016 20.52886719 4.69332031 21.38085938 4.72851562 C23.39928944 4.81018621 25.41836884 4.87553724 27.4375 4.9375 C25.62486817 8.75872385 23.81934161 11.29084135 20.4375 13.9375 C13.42466485 14.87254469 7.01066604 12.941959 0.875 9.5 C-2.63688393 8.68956525 -4.56546376 10.13525917 -7.59765625 11.89453125 C-11.82273261 14.13726562 -16.87572277 15.03311026 -21.5625 13.9375 C-24.32664542 11.94898108 -26.56540562 9.69598662 -28.5625 6.9375 C-28.5625 6.2775 -28.5625 5.6175 -28.5625 4.9375 C-27.3559375 4.91171875 -26.149375 4.8859375 -24.90625 4.859375 C-23.29163262 4.80305114 -21.67705067 4.7457048 -20.0625 4.6875 C-19.27101563 4.67332031 -18.47953125 4.65914062 -17.6640625 4.64453125 C-12.43952555 4.43041088 -8.75846822 3.41823673 -4.22875977 0.7800293 C-2.5625 -0.0625 -2.5625 -0.0625 0 0 Z " fill="#FCC700" transform="translate(37.5625,47.0625)"/>
<path d="M0 0 C6.2238266 1.68645624 10.53559309 5.65769028 14 11 C15.99362273 15.02486099 17 18.4507107 17 23 C13.58957758 21.86319253 12.45897933 20.56085795 10 18 C4.41213808 13.03182449 -0.71196614 9.80908642 -8 8 C-8 9.65 -8 11.3 -8 13 C-10.90600261 14.25664978 -12.79604584 15 -16 15 C-16.08107583 13.06318839 -16.13922475 11.1254066 -16.1875 9.1875 C-16.22230469 8.10855469 -16.25710937 7.02960937 -16.29296875 5.91796875 C-16 3 -16 3 -14.875 1.140625 C-10.55523576 -1.48723158 -4.84027825 -0.50467356 0 0 Z " fill="#FCC700" transform="translate(25,9)"/>
<path d="M0 0 C4.02220321 0.837959 5.37435583 2.51568453 8 5.625 C9.0828125 6.800625 9.0828125 6.800625 10.1875 8 C13.72528243 13.12368489 14.53724241 18.50043654 14 24.625 C12.78140909 28.80751846 11.07482092 32.79456138 9 36.625 C8.01 36.625 7.02 36.625 6 36.625 C5.95512451 36.01503174 5.91024902 35.40506348 5.86401367 34.77661133 C5.65184567 31.99570451 5.41986976 29.21678868 5.1875 26.4375 C5.11724609 25.47779297 5.04699219 24.51808594 4.97460938 23.52929688 C4.43661514 16.57544696 4.43661514 16.57544696 1 10.625 C0.34 10.625 -0.32 10.625 -1 10.625 C-1.33 11.285 -1.66 11.945 -2 12.625 C-4.92879371 11.99740135 -7.36095629 11.03877341 -10 9.625 C-8.04898946 4.83615595 -5.20150718 1.08364733 0 0 Z " fill="#FCC700" transform="translate(37,-0.625)"/>
<path d="M0 0 C1.93681161 -0.08107583 3.8745934 -0.13922475 5.8125 -0.1875 C6.89144531 -0.22230469 7.97039063 -0.25710938 9.08203125 -0.29296875 C12 0 12 0 13.859375 1.125 C16.48852866 5.44689643 15.49978038 11.15730048 15 16 C13.298507 22.53844164 8.65445091 27.45784397 3 31 C-0.5 31.4375 -0.5 31.4375 -3 31 C-3.76953125 29.328125 -3.76953125 29.328125 -4 27 C-2.19921875 24.484375 -2.19921875 24.484375 0.3125 21.75 C4.30627509 17.12987199 6.20424948 14.02496823 7 8 C5.35 8 3.7 8 2 8 C1.34 5.36 0.68 2.72 0 0 Z " fill="#FCC700" transform="translate(50,9)"/>
<path d="M0 0 C0.39832031 -0.51175781 0.79664063 -1.02351563 1.20703125 -1.55078125 C3 -3 3 -3 5.26171875 -2.85546875 C6.06222656 -2.63503906 6.86273438 -2.41460937 7.6875 -2.1875 C8.89986328 -1.86845703 8.89986328 -1.86845703 10.13671875 -1.54296875 C11.05904297 -1.27419922 11.05904297 -1.27419922 12 -1 C10.46986989 2.55939356 8.36373709 5.02831385 5.6875 7.8125 C4.92824219 8.62332031 4.16898438 9.43414062 3.38671875 10.26953125 C1 12 1 12 -1.4609375 12.0703125 C-4.82507362 10.65219973 -6.77840147 8.67919137 -9.3125 6.0625 C-10.19550781 5.16660156 -11.07851563 4.27070312 -11.98828125 3.34765625 C-14 1 -14 1 -14 -1 C-8.05964945 -3.29513544 -5.47691025 -2.93405906 0 0 Z " fill="#FCC700" transform="translate(38,63)"/>
<path d="M0 0 C1.43836751 0.11458693 2.87570966 0.24209116 4.3125 0.375 C5.51326172 0.47941406 5.51326172 0.47941406 6.73828125 0.5859375 C9 1 9 1 12 3 C11.34 4.32 10.68 5.64 10 7 C6.06225823 7.36630156 4.43460229 7.30233203 1.125 5 C0.42375 4.34 -0.2775 3.68 -1 3 C-0.67 2.01 -0.34 1.02 0 0 Z " fill="#FCC700" transform="translate(17,33)"/>
</svg>
