<?xml version="1.0" encoding="UTF-8"?>
<svg version="1.1" xmlns="http://www.w3.org/2000/svg" width="66" height="75">
<path d="M0 0 C1.36027067 0.48291715 2.72094516 0.96469839 4.08203125 1.4453125 C7.39278453 2.61713299 10.69779012 3.80428456 14 5 C14.09980707 10.21031273 14.17190561 15.42005385 14.21972656 20.63110352 C14.23968762 22.39910593 14.26686652 24.16704366 14.30175781 25.93481445 C14.73508408 48.47415261 14.73508408 48.47415261 7.25 57.6875 C1.55393644 62.85777307 -6.09249287 65.79266374 -13 69 C-13.99 69.495 -13.99 69.495 -15 70 C-21.37144087 70.50120171 -25.40921603 69.42142158 -31 66.4375 C-31.69770508 66.07398437 -32.39541016 65.71046875 -33.11425781 65.3359375 C-42.85546002 60.10784019 -48.48175676 54.55472971 -52 44 C-52.085409 41.05035887 -52.11582927 38.12496981 -52.09765625 35.17578125 C-52.09553383 33.88367989 -52.09553383 33.88367989 -52.09336853 32.56547546 C-52.0877714 29.81444831 -52.07521946 27.06350256 -52.0625 24.3125 C-52.05748463 22.4472668 -52.05292179 20.58203233 -52.04882812 18.71679688 C-52.03780292 14.14449989 -52.02054027 9.57226375 -52 5 C-48.02206646 3.55960804 -44.03856831 2.13618674 -40.04931641 0.72753906 C-38.6958177 0.24702606 -37.34388368 -0.23792001 -35.99365234 -0.72753906 C-21.55096882 -5.95807486 -14.31775532 -5.19188499 0 0 Z " fill="#E6E7E8" transform="translate(52,5)"/>
<path d="M0 0 C5.9091497 1.16072583 11.6260387 2.72515724 17.375 4.5 C18.4278418 4.82037231 18.4278418 4.82037231 19.50195312 5.1472168 C22.6994808 6.15011286 25.19137235 7.12758157 28 9 C28.37231445 11.85400391 28.37231445 11.85400391 28.36328125 15.4765625 C28.36263672 16.78753906 28.36199219 18.09851563 28.36132812 19.44921875 C28.35302979 20.1354834 28.34473145 20.82174805 28.33618164 21.52880859 C28.31282273 23.59643355 28.31558917 25.66274746 28.32226562 27.73046875 C28.23402989 44.14231575 28.23402989 44.14231575 23.625 51.4375 C23.22539063 52.09621094 22.82578125 52.75492188 22.4140625 53.43359375 C20.70389276 55.3280083 19.48507814 55.62459458 17 56 C15.27054511 53.95857689 13.54142952 51.91686798 11.8125 49.875 C11.32974609 49.30523437 10.84699219 48.73546875 10.34960938 48.1484375 C9.37798982 47.00075266 8.40899912 45.85083719 7.44262695 44.69873047 C6.4881561 43.5748164 5.51798294 42.46403358 4.53198242 41.36767578 C1.86684842 38.35491561 1.02213478 37.27447121 0.6875 33.125 C0.790625 32.09375 0.89375 31.0625 1 30 C1.53625 30.7425 2.0725 31.485 2.625 32.25 C4.88584567 35.1446771 4.88584567 35.1446771 8.125 36.9375 C11.50861578 39.36487654 12.09383694 41.01288252 13 45 C13.99 45 14.98 45 16 45 C15.67 43.68 15.34 42.36 15 41 C16.98 41.66 18.96 42.32 21 43 C22.35176612 40.85986111 22.35176612 40.85986111 23 38 C21.74471643 34.72996817 21.74471643 34.72996817 19.6875 31.5 C16.06818423 25.41329215 16.06818423 25.41329215 15.5546875 22.30078125 C15.19030862 19.81504743 15.19030862 19.81504743 12.93359375 18.19921875 C12.10988281 17.70035156 11.28617188 17.20148437 10.4375 16.6875 C9.61121094 16.17574219 8.78492188 15.66398437 7.93359375 15.13671875 C7.29550781 14.76160156 6.65742187 14.38648438 6 14 C6.33 13.4225 6.66 12.845 7 12.25 C8.27075898 9.80116138 8.27075898 9.80116138 8 6 C4.83884224 7.36983503 4.0072908 7.9890638 2 11 C1.34 11 0.68 11 0 11 C0 7.37 0 3.74 0 0 Z " fill="#081C3D" transform="translate(34,5)"/>
<path d="M0 0 C2.01953125 1.828125 2.01953125 1.828125 3.8125 4.25 C4.41707031 5.03890625 5.02164062 5.8278125 5.64453125 6.640625 C7 9 7 9 7 13 C2.12143855 13 0.57725708 11.29506383 -2.75 8.125 C-3.25660156 7.66480469 -3.76320313 7.20460938 -4.28515625 6.73046875 C-5.57025758 5.53542843 -6.79077894 4.27176697 -8 3 C-8 2.34 -8 1.68 -8 1 C-4.95570793 -0.01476402 -3.16413485 -0.407025 0 0 Z " fill="#162848" transform="translate(15,11)"/>
<path d="M0 0 C3.96 1.98 7.92 3.96 12 6 C12 7.32 12 8.64 12 10 C7.45194365 10.17835515 4.1205746 9.99785435 0 8 C0 5.36 0 2.72 0 0 Z " fill="#0E2142" transform="translate(4,21)"/>
<path d="M0 0 C1.13764351 4.26616316 2 7.56486311 2 12 C0.68 12.33 -0.64 12.66 -2 13 C-2.86646667 11.56988027 -3.71781829 10.13059381 -4.5625 8.6875 C-5.27599609 7.48673828 -5.27599609 7.48673828 -6.00390625 6.26171875 C-7 4 -7 4 -6 1 C-3 0 -3 0 0 0 Z " fill="#182A49" transform="translate(28,6)"/>
<path d="M0 0 C4.455 0.99 4.455 0.99 9 2 C7.47005208 3.7578125 5.94010417 5.515625 4.41015625 7.2734375 C2.93041376 8.95632334 2.93041376 8.95632334 2 11 C1.34 11 0.68 11 0 11 C0 7.37 0 3.74 0 0 Z " fill="#102344" transform="translate(34,5)"/>
<path d="M0 0 C3.3 0 6.6 0 10 0 C10 1.32 10 2.64 10 4 C6.52674819 5.1577506 3.63932552 5.06866652 0 5 C0 3.35 0 1.7 0 0 Z " fill="#0C1F40" transform="translate(4,36)"/>
<path d="M0 0 C0.25 2.8125 0.25 2.8125 0 6 C-1.875 7.875 -1.875 7.875 -4 9 C-4.66 9 -5.32 9 -6 9 C-6.66 7.02 -7.32 5.04 -8 3 C-2.25 0 -2.25 0 0 0 Z " fill="#1B2D4C" transform="translate(13,45)"/>
<path d="M0 0 C1.32 1.65 2.64 3.3 4 5 C3.01 5.495 3.01 5.495 2 6 C1.67 6.99 1.34 7.98 1 9 C-0.4783226 6.04335481 -0.06032783 3.25770263 0 0 Z " fill="#4E5B72" transform="translate(35,35)"/>
</svg>
