<?xml version="1.0" encoding="UTF-8"?>
<svg version="1.1" xmlns="http://www.w3.org/2000/svg" width="111" height="75">
<path d="M0 0 C0.73053085 -0.00902847 1.46106171 -0.01805695 2.21372986 -0.02735901 C3.7473445 -0.04177266 5.2810194 -0.05072594 6.81469727 -0.05444336 C9.15030163 -0.0663958 11.48330658 -0.11570708 13.81835938 -0.16601562 C15.3163935 -0.17547601 16.81444366 -0.18271289 18.3125 -0.1875 C19.0032814 -0.20703232 19.69406281 -0.22656464 20.40577698 -0.24668884 C26.08854142 -0.19417177 28.11233658 1.68334106 32.08984375 5.37109375 C34.29198902 6.55814332 34.29198902 6.55814332 36.48046875 7.29296875 C37.26752197 7.59122559 38.0545752 7.88948242 38.86547852 8.19677734 C40.09028931 8.65431396 40.09028931 8.65431396 41.33984375 9.12109375 C49.41372983 12.33651446 55.10132085 15.98263434 61.08984375 22.37109375 C62.01925781 23.24636719 62.94867188 24.12164063 63.90625 25.0234375 C69.18047333 30.01891189 69.18047333 30.01891189 71.08984375 32.37109375 C71.08984375 33.69109375 71.08984375 35.01109375 71.08984375 36.37109375 C68.9296875 38.01171875 68.9296875 38.01171875 66.02734375 39.62109375 C58.01108479 44.44731384 50.09461588 52.29251561 47.45703125 61.60546875 C47.27527344 62.47945312 47.27527344 62.47945312 47.08984375 63.37109375 C46.09984375 63.37109375 45.10984375 63.37109375 44.08984375 63.37109375 C44.08984375 60.07109375 44.08984375 56.77109375 44.08984375 53.37109375 C37.28523621 58.50926679 32.19323855 65.0035363 29.05639648 73.00830078 C27.08984375 75.37109375 27.08984375 75.37109375 25.27511597 75.80754089 C22.8508956 75.95224007 20.47440366 75.93226415 18.046875 75.859375 C16.72147957 75.84876289 16.72147957 75.84876289 15.36930847 75.8379364 C12.54612684 75.80993901 9.72492616 75.74719245 6.90234375 75.68359375 C4.98896093 75.65851771 3.07554703 75.63570333 1.16210938 75.61523438 C-3.52940952 75.56009498 -8.21944702 75.47378695 -12.91015625 75.37109375 C-11.59015625 72.40109375 -10.27015625 69.43109375 -8.91015625 66.37109375 C-9.77640625 66.59796875 -10.64265625 66.82484375 -11.53515625 67.05859375 C-15.68648962 67.44297647 -17.43757651 66.60897847 -20.91015625 64.37109375 C-25.646461 58.92963197 -26.98929371 51.36964902 -27.91015625 44.37109375 C-25.93015625 43.87609375 -25.93015625 43.87609375 -23.91015625 43.37109375 C-24.90015625 40.40109375 -25.89015625 37.43109375 -26.91015625 34.37109375 C-27.40515625 34.86609375 -27.40515625 34.86609375 -27.91015625 35.37109375 C-30.94220847 35.78083054 -32.44325255 35.67320791 -35.03515625 33.99609375 C-41.11187989 25.48868065 -40.24372763 15.32881721 -39.91015625 5.37109375 C-33.6088386 2.15339963 -28.08736122 2.12187006 -21.16625977 2.39453125 C-20.46170654 2.41644531 -19.75715332 2.43835938 -19.03125 2.4609375 C-18.40661865 2.49050537 -17.7819873 2.52007324 -17.13842773 2.55053711 C-14.70077537 2.43291 -14.70077537 2.43291 -11.64697266 1.38867188 C-7.70073004 0.31406458 -4.05627039 0.03158235 0 0 Z " fill="#AD7C1D" transform="translate(39.91015625,-0.37109375)"/>
<path d="M0 0 C0.73053085 -0.00902847 1.46106171 -0.01805695 2.21372986 -0.02735901 C3.7473445 -0.04177266 5.2810194 -0.05072594 6.81469727 -0.05444336 C9.15030163 -0.0663958 11.48330658 -0.11570708 13.81835938 -0.16601562 C15.3163935 -0.17547601 16.81444366 -0.18271289 18.3125 -0.1875 C19.0032814 -0.20703232 19.69406281 -0.22656464 20.40577698 -0.24668884 C26.08854142 -0.19417177 28.11233658 1.68334106 32.08984375 5.37109375 C34.29198902 6.55814332 34.29198902 6.55814332 36.48046875 7.29296875 C37.26752197 7.59122559 38.0545752 7.88948242 38.86547852 8.19677734 C40.09028931 8.65431396 40.09028931 8.65431396 41.33984375 9.12109375 C49.41372983 12.33651446 55.10132085 15.98263434 61.08984375 22.37109375 C62.01925781 23.24636719 62.94867188 24.12164063 63.90625 25.0234375 C69.18047333 30.01891189 69.18047333 30.01891189 71.08984375 32.37109375 C71.08984375 33.69109375 71.08984375 35.01109375 71.08984375 36.37109375 C68.9296875 38.01171875 68.9296875 38.01171875 66.02734375 39.62109375 C58.01108479 44.44731384 50.09461588 52.29251561 47.45703125 61.60546875 C47.27527344 62.47945312 47.27527344 62.47945312 47.08984375 63.37109375 C46.09984375 63.37109375 45.10984375 63.37109375 44.08984375 63.37109375 C44.08984375 60.07109375 44.08984375 56.77109375 44.08984375 53.37109375 C37.28523621 58.50926679 32.19323855 65.0035363 29.05639648 73.00830078 C27.08984375 75.37109375 27.08984375 75.37109375 25.27511597 75.80754089 C22.8508956 75.95224007 20.47440366 75.93226415 18.046875 75.859375 C16.72147957 75.84876289 16.72147957 75.84876289 15.36930847 75.8379364 C12.54612684 75.80993901 9.72492616 75.74719245 6.90234375 75.68359375 C4.98896093 75.65851771 3.07554703 75.63570333 1.16210938 75.61523438 C-3.52940952 75.56009498 -8.21944702 75.47378695 -12.91015625 75.37109375 C-11.59015625 72.40109375 -10.27015625 69.43109375 -8.91015625 66.37109375 C-9.77640625 66.59796875 -10.64265625 66.82484375 -11.53515625 67.05859375 C-15.68648962 67.44297647 -17.43757651 66.60897847 -20.91015625 64.37109375 C-25.646461 58.92963197 -26.98929371 51.36964902 -27.91015625 44.37109375 C-25.93015625 43.87609375 -25.93015625 43.87609375 -23.91015625 43.37109375 C-24.90015625 40.40109375 -25.89015625 37.43109375 -26.91015625 34.37109375 C-27.40515625 34.86609375 -27.40515625 34.86609375 -27.91015625 35.37109375 C-31.17896572 35.81282476 -32.48537175 35.68968213 -35.16015625 33.68359375 C-37.06198331 31.17046513 -37.56560427 29.47206156 -37.91015625 26.37109375 C-36.92015625 26.37109375 -35.93015625 26.37109375 -34.91015625 26.37109375 C-34.25015625 27.69109375 -33.59015625 29.01109375 -32.91015625 30.37109375 C-32.82765625 29.27796875 -32.74515625 28.18484375 -32.66015625 27.05859375 C-31.91015625 23.37109375 -31.91015625 23.37109375 -30.22265625 21.43359375 C-27.31928719 20.09961337 -25.06885049 20.15572823 -21.91015625 20.37109375 C-17.91015625 27.12109375 -17.91015625 27.12109375 -17.91015625 29.37109375 C-17.25015625 29.37109375 -16.59015625 29.37109375 -15.91015625 29.37109375 C-15.91015625 26.73109375 -15.91015625 24.09109375 -15.91015625 21.37109375 C-12.44515625 20.87609375 -12.44515625 20.87609375 -8.91015625 20.37109375 C-0.35628209 31.82717522 -0.35628209 31.82717522 -0.09765625 36.68359375 C-0.97110174 40.64769251 -2.16440486 42.45370209 -4.6875 45.50390625 C-6.15382417 47.74321281 -6.44808049 49.55059979 -6.84765625 52.18359375 C-7.2421875 54.48046875 -7.2421875 54.48046875 -7.91015625 56.37109375 C-11.03515625 57.93359375 -11.03515625 57.93359375 -13.91015625 58.37109375 C-13.25015625 57.05109375 -12.59015625 55.73109375 -11.91015625 54.37109375 C-14.55015625 54.37109375 -17.19015625 54.37109375 -19.91015625 54.37109375 C-19.58015625 53.71109375 -19.25015625 53.05109375 -18.91015625 52.37109375 C-16.26155198 51.77753761 -13.61818303 51.62900106 -10.91015625 51.37109375 C-11.09479991 47.02925173 -11.09479991 47.02925173 -12.91015625 43.37109375 C-13.24015625 45.68109375 -13.57015625 47.99109375 -13.91015625 50.37109375 C-15.79734375 50.18546875 -15.79734375 50.18546875 -17.72265625 49.99609375 C-18.43035156 49.92648438 -19.13804688 49.856875 -19.8671875 49.78515625 C-21.91015625 49.37109375 -21.91015625 49.37109375 -24.91015625 47.37109375 C-24.45640625 48.05171875 -24.00265625 48.73234375 -23.53515625 49.43359375 C-21.74392235 52.67159349 -20.91453472 55.82228983 -19.91015625 59.37109375 C-17.98736172 61.71893343 -17.98736172 61.71893343 -14.59765625 61.68359375 C-10.64907376 61.34896811 -9.19216569 60.42234965 -5.91015625 58.37109375 C-4.73453125 58.22671875 -3.55890625 58.08234375 -2.34765625 57.93359375 C1.52756586 57.2994665 2.67239993 56.36872409 5.08984375 53.37109375 C3.84007619 57.02426046 3.41885622 58.15175211 0.08984375 60.37109375 C0.66329312 63.23834061 0.95129525 64.23254525 3.08984375 66.37109375 C3.74984375 65.71109375 4.40984375 65.05109375 5.08984375 64.37109375 C5.41984375 66.02109375 5.74984375 67.67109375 6.08984375 69.37109375 C4.66671875 68.87609375 4.66671875 68.87609375 3.21484375 68.37109375 C0.31921923 67.26950184 0.31921923 67.26950184 -1.91015625 67.37109375 C-2.57015625 65.72109375 -3.23015625 64.07109375 -3.91015625 62.37109375 C-4.57015625 62.37109375 -5.23015625 62.37109375 -5.91015625 62.37109375 C-5.43465064 63.85144139 -4.95464409 65.33034396 -4.47265625 66.80859375 C-4.20582031 67.63230469 -3.93898437 68.45601563 -3.6640625 69.3046875 C-3.08860131 71.33328963 -3.08860131 71.33328963 -1.91015625 72.37109375 C0.01651882 72.45857582 1.94636236 72.47806709 3.875 72.46875 C5.04482422 72.46552734 6.21464844 72.46230469 7.41992188 72.45898438 C8.65162109 72.45060547 9.88332031 72.44222656 11.15234375 72.43359375 C12.38791016 72.42908203 13.62347656 72.42457031 14.89648438 72.41992188 C17.96098492 72.40808983 21.02539096 72.39160548 24.08984375 72.37109375 C24.58613281 71.29730469 25.08242187 70.22351563 25.59375 69.1171875 C32.57772201 54.35785364 32.57772201 54.35785364 39.08984375 49.37109375 C39.7240625 48.8709375 40.35828125 48.37078125 41.01171875 47.85546875 C45.6447888 44.37109375 45.6447888 44.37109375 48.08984375 44.37109375 C48.58484375 46.35109375 48.58484375 46.35109375 49.08984375 48.37109375 C49.51394531 47.71882813 49.93804687 47.0665625 50.375 46.39453125 C54.12862905 40.80121148 57.76570958 36.50001413 63.08984375 32.37109375 C61.59237669 28.48112184 59.38562297 26.90161323 55.96484375 24.62109375 C54.59972656 23.70070313 54.59972656 23.70070313 53.20703125 22.76171875 C52.50835937 22.3028125 51.8096875 21.84390625 51.08984375 21.37109375 C51.58484375 19.88609375 51.58484375 19.88609375 52.08984375 18.37109375 C50.32640625 17.81421875 50.32640625 17.81421875 48.52734375 17.24609375 C41.5923577 14.94554549 34.85403851 12.12489636 28.08984375 9.37109375 C27.75984375 10.03109375 27.42984375 10.69109375 27.08984375 11.37109375 C26.73921875 10.89671875 26.38859375 10.42234375 26.02734375 9.93359375 C23.24820832 7.6923555 20.57537205 7.69991717 17.08984375 7.37109375 C19.08984375 4.37109375 19.08984375 4.37109375 22.08984375 3.37109375 C21.08630859 3.60505859 21.08630859 3.60505859 20.0625 3.84375 C10.88418786 5.70405219 2.337473 5.18190485 -6.91015625 4.37109375 C-6.91015625 5.03109375 -6.91015625 5.69109375 -6.91015625 6.37109375 C-7.90015625 6.37109375 -8.89015625 6.37109375 -9.91015625 6.37109375 C-9.91015625 7.36109375 -9.91015625 8.35109375 -9.91015625 9.37109375 C-9.18828125 9.04109375 -8.46640625 8.71109375 -7.72265625 8.37109375 C-4.89318198 7.36505846 -2.88120159 7.20131973 0.08984375 7.37109375 C-0.90015625 7.70109375 -1.89015625 8.03109375 -2.91015625 8.37109375 C-2.91015625 9.03109375 -2.91015625 9.69109375 -2.91015625 10.37109375 C-3.90015625 10.37109375 -4.89015625 10.37109375 -5.91015625 10.37109375 C-4.92015625 12.68109375 -3.93015625 14.99109375 -2.91015625 17.37109375 C-6.39068797 15.85434828 -8.83374448 13.75745962 -11.66015625 11.24609375 C-15.90408863 7.73206601 -15.90408863 7.73206601 -21.16015625 6.93359375 C-22.39765625 7.07796875 -23.63515625 7.22234375 -24.91015625 7.37109375 C-25.96203125 7.12359375 -27.01390625 6.87609375 -28.09765625 6.62109375 C-31.08391299 6.05040994 -31.08391299 6.05040994 -33.66015625 8.30859375 C-34.40265625 8.98921875 -35.14515625 9.66984375 -35.91015625 10.37109375 C-36.57015625 10.37109375 -37.23015625 10.37109375 -37.91015625 10.37109375 C-38.57015625 11.03109375 -39.23015625 11.69109375 -39.91015625 12.37109375 C-39.91015625 10.06109375 -39.91015625 7.75109375 -39.91015625 5.37109375 C-33.6088386 2.15339963 -28.08736122 2.12187006 -21.16625977 2.39453125 C-20.46170654 2.41644531 -19.75715332 2.43835938 -19.03125 2.4609375 C-18.40661865 2.49050537 -17.7819873 2.52007324 -17.13842773 2.55053711 C-14.70077537 2.43291 -14.70077537 2.43291 -11.64697266 1.38867188 C-7.70073004 0.31406458 -4.05627039 0.03158235 0 0 Z " fill="#0D0805" transform="translate(39.91015625,-0.37109375)"/>
<path d="M0 0 C0.74121094 0.12890625 1.48242188 0.2578125 2.24609375 0.390625 C4.5868869 0.83733883 4.5868869 0.83733883 7.07421875 0.6015625 C15.78598911 1.12125995 26.73507515 15.22978736 32.82373047 21.09423828 C33.97302798 22.18866902 35.14403847 23.26078703 36.33642578 24.30810547 C38.97271918 26.70339299 40.45360458 28.19390739 41.1484375 31.7421875 C41.07882813 32.69351563 41.00921875 33.64484375 40.9375 34.625 C40.88335937 35.59179688 40.82921875 36.55859375 40.7734375 37.5546875 C40.66902344 38.64136719 40.66902344 38.64136719 40.5625 39.75 C39.2425 38.1 37.9225 36.45 36.5625 34.75 C36.459375 35.9875 36.35625 37.225 36.25 38.5 C35.81475608 42.00682248 35.19198243 44.22569687 32.5625 46.75 C31.9025 46.75 31.2425 46.75 30.5625 46.75 C30.253125 47.554375 29.94375 48.35875 29.625 49.1875 C28.5625 51.75 28.5625 51.75 27.5625 52.75 C26.49 52.87375 25.4175 52.9975 24.3125 53.125 C20.61514182 53.49495946 20.61514182 53.49495946 18.0625 55.3125 C14.64553153 57.27725687 12.43801752 57.31371164 8.5625 56.75 C4.05478306 52.60777362 3.00338236 47.51352945 1.5625 41.75 C5.1925 42.74 8.8225 43.73 12.5625 44.75 C12.5625 42.44 12.5625 40.13 12.5625 37.75 C13.5525 37.255 13.5525 37.255 14.5625 36.75 C16.39941257 40.53187881 16.72087626 42.69568308 15.5625 46.75 C13.0875 47.245 13.0875 47.245 10.5625 47.75 C11.8825 48.08 13.2025 48.41 14.5625 48.75 C14.5625 49.74 14.5625 50.73 14.5625 51.75 C16.0475 51.255 16.0475 51.255 17.5625 50.75 C18.44809371 48.35287764 18.44809371 48.35287764 19 45.5 C19.87863449 41.86862233 20.36139601 39.99707062 22.75 37.0625 C24.8442686 34.39050213 25.30368128 32.40453188 25.16796875 29.01171875 C24.10451116 25.03919007 21.5931266 22.05512854 19.09375 18.8515625 C17.5625 16.75 17.5625 16.75 17.5625 14.75 C15.2525 15.08 12.9425 15.41 10.5625 15.75 C10.5625 18.39 10.5625 21.03 10.5625 23.75 C9.9025 23.75 9.2425 23.75 8.5625 23.75 C7.2425 21.11 5.9225 18.47 4.5625 15.75 C0.61522412 15.57057837 -2.0355513 15.65649311 -5.4375 17.75 C-5.4375 20.39 -5.4375 23.03 -5.4375 25.75 C-6.9375 24.375 -6.9375 24.375 -8.4375 22.75 C-8.4375 22.09 -8.4375 21.43 -8.4375 20.75 C-9.7575 20.42 -11.0775 20.09 -12.4375 19.75 C-13.65910225 15.41528234 -13.93053674 11.22841701 -13.4375 6.75 C-11.9375 4.1875 -11.9375 4.1875 -10.4375 2.75 C-9.7775 3.08 -9.1175 3.41 -8.4375 3.75 C-7.963125 3.069375 -7.48875 2.38875 -7 1.6875 C-4.04045533 -0.55020451 -3.51664977 -0.43958122 0 0 Z " fill="#CDA249" transform="translate(13.4375,5.25)"/>
<path d="M0 0 C9.94595462 3.60540855 17.62809469 10.74012275 24 19 C23.3828793 11.44027148 20.78675148 6.16674239 15 1 C26.52164009 0.44646925 26.52164009 0.44646925 32 4 C32 4.99 32 5.98 32 7 C33.95597184 8.39712274 35.9659094 9.71927629 38 11 C40.04913236 12.61530704 42.01822729 14.30133768 44 16 C42.67611652 19.05012371 41.41616365 20.66741138 38.75 22.625 C34.79887205 25.83219172 32.60169415 29.60441542 30.1640625 34.0234375 C29.58785156 35.00183594 29.58785156 35.00183594 29 36 C28.67 36 28.34 36 28 36 C28 34.02 28 32.04 28 30 C16.07960366 38.16610781 10.65937003 44.65432244 5 58 C0.19597728 50.79396592 -1.12328522 44.65520819 0 36 C0.90234375 33.953125 0.90234375 33.953125 2 32.25 C4.57231793 28.06998337 4.33758959 25.81065171 4 21 C5.32 21.66 6.64 22.32 8 23 C7.43260132 18.87026372 7.43260132 18.87026372 6 15 C8.64 15.33 11.28 15.66 14 16 C14 15.34 14 14.68 14 14 C13.278125 13.773125 12.55625 13.54625 11.8125 13.3125 C5.91214538 10.55900118 2.82606309 5.65212618 0 0 Z " fill="#7A5823" transform="translate(60,14)"/>
<path d="M0 0 C4 6.75 4 6.75 4 9 C4.66 9 5.32 9 6 9 C6 6.36 6 3.72 6 1 C9.465 0.505 9.465 0.505 13 0 C21.55387416 11.45608147 21.55387416 11.45608147 21.8125 16.3125 C20.93905451 20.27659876 19.74575139 22.08260834 17.22265625 25.1328125 C15.75633208 27.37211906 15.46207576 29.17950604 15.0625 31.8125 C14.66796875 34.109375 14.66796875 34.109375 14 36 C10.875 37.5625 10.875 37.5625 8 38 C8.66 36.68 9.32 35.36 10 34 C7.36 34 4.72 34 2 34 C2.33 33.34 2.66 32.68 3 32 C5.64860427 31.40644386 8.29197322 31.25790731 11 31 C10.81535634 26.65815798 10.81535634 26.65815798 9 23 C8.67 25.31 8.34 27.62 8 30 C5.3286992 29.68834824 2.66512852 29.35739271 0 29 C-0.78375 28.896875 -1.5675 28.79375 -2.375 28.6875 C-4 28 -4 28 -5.25 25.9375 C-5.4975 25.298125 -5.745 24.65875 -6 24 C-4.68 23.67 -3.36 23.34 -2 23 C-2.99 20.03 -3.98 17.06 -5 14 C-5.33 14.33 -5.66 14.66 -6 15 C-9.26880947 15.44173101 -10.5752155 15.31858838 -13.25 13.3125 C-15.15182706 10.79937138 -15.65544802 9.10096781 -16 6 C-15.01 6 -14.02 6 -13 6 C-12.34 7.32 -11.68 8.64 -11 10 C-10.9175 8.906875 -10.835 7.81375 -10.75 6.6875 C-10 3 -10 3 -8.3125 1.0625 C-5.40913094 -0.27148038 -3.15869424 -0.21536552 0 0 Z " fill="#17110C" transform="translate(18,20)"/>
<path d="M0 0 C0 0.66 0 1.32 0 2 C-1.65002828 3.35386936 -3.3174387 4.68678142 -5 6 C-5.33 6.66 -5.66 7.32 -6 8 C-7.32 8 -8.64 8 -10 8 C-10.33 8.99 -10.66 9.98 -11 11 C-8.7104607 11.33592508 -8.7104607 11.33592508 -6 11 C-5.236875 10.34 -4.47375 9.68 -3.6875 9 C-0.75108841 6.81476347 1.1464803 6.3671165 4.796875 6.52734375 C8.96909271 7.42244719 12.45372564 9.70148884 16 12 C13 14 13 14 10 14 C10 16.64 10 19.28 10 22 C9.34 22 8.68 22 8 22 C6.68 19.36 5.36 16.72 4 14 C0.05272412 13.82057837 -2.5980513 13.90649311 -6 16 C-6 18.64 -6 21.28 -6 24 C-7.5 22.625 -7.5 22.625 -9 21 C-9 20.34 -9 19.68 -9 19 C-10.32 18.67 -11.64 18.34 -13 18 C-13.8356429 15.0719073 -14.16205486 12.41823857 -14.1875 9.375 C-14.20167969 8.59898438 -14.21585938 7.82296875 -14.23046875 7.0234375 C-14 5 -14 5 -12 3 C-11.401875 3.20625 -10.80375 3.4125 -10.1875 3.625 C-9.1046875 3.810625 -9.1046875 3.810625 -8 4 C-2.70967742 0 -2.70967742 0 0 0 Z " fill="#0D0908" transform="translate(14,7)"/>
<path d="M0 0 C1.98 0 3.96 0 6 0 C6.86625 1.7015625 6.86625 1.7015625 7.75 3.4375 C9.35492635 6.37310297 9.35492635 6.37310297 12.25 7.9375 C13.11625 7.9684375 13.11625 7.9684375 14 8 C14 5.36 14 2.72 14 0 C18.875 0.875 18.875 0.875 20 2 C20.07254367 3.45667689 20.08373778 4.9166725 20.0625 6.375 C20.05347656 7.16648437 20.04445313 7.95796875 20.03515625 8.7734375 C20.02355469 9.50820313 20.01195313 10.24296875 20 11 C20 11.99 20 12.98 20 14 C20.99 13.67 21.98 13.34 23 13 C22.46930939 16.82097239 21.50298434 19.06171403 19 22 C18.608125 21.113125 18.21625 20.22625 17.8125 19.3125 C15.31387034 14.7460389 12.30778378 11.87185586 8 9 C8.66 10.03125 9.32 11.0625 10 12.125 C11.96619301 15.5502055 12.46437576 18.0063685 12 22 C11.67 22.66 11.34 23.32 11 24 C11.99 24.66 12.98 25.32 14 26 C11.36 25.67 8.72 25.34 6 25 C6.02320313 24.43152344 6.04640625 23.86304687 6.0703125 23.27734375 C6.25526986 15.36381103 5.0536035 10.23277764 0 4 C0 2.68 0 1.36 0 0 Z " fill="#704F22" transform="translate(12,24)"/>
<path d="M0 0 C1.32 0.66 2.64 1.32 4 2 C3.67 5.3 3.34 8.6 3 12 C2.34 12 1.68 12 1 12 C-0.32 9.36 -1.64 6.72 -3 4 C-6.94727588 3.82057837 -9.5980513 3.90649311 -13 6 C-13 8.64 -13 11.28 -13 14 C-15.7972908 11.93243723 -16.02692273 10.85559629 -16.6875 7.3125 C-16.790625 6.219375 -16.89375 5.12625 -17 4 C-11.09571696 0.93851991 -6.68024973 -0.67934743 0 0 Z " fill="#E2E1E0" transform="translate(21,17)"/>
<path d="M0 0 C2.64 0.66 5.28 1.32 8 2 C7.67 2.66 7.34 3.32 7 4 C6.34 4 5.68 4 5 4 C5.33 4.99 5.66 5.98 6 7 C6.12781786 9.67394964 6.04391871 12.32095857 6 15 C5.01 14.34 4.02 13.68 3 13 C2.50628906 13.86625 2.01257813 14.7325 1.50390625 15.625 C0.86324219 16.73875 0.22257812 17.8525 -0.4375 19 C-1.39462891 20.670625 -1.39462891 20.670625 -2.37109375 22.375 C-2.90863281 23.24125 -3.44617187 24.1075 -4 25 C-4.33 25 -4.66 25 -5 25 C-4.24355301 18.44412607 -4.24355301 18.44412607 -2.9375 16.0625 C-1.43706344 12.76153958 -1.88013704 9.59588883 -2 6 C-0.68 6.66 0.64 7.32 2 8 C1.43260132 3.87026372 1.43260132 3.87026372 0 0 Z " fill="#150E07" transform="translate(66,29)"/>
<path d="M0 0 C0.66 0 1.32 0 2 0 C2.66 1.65 3.32 3.3 4 5 C4.99 4.67 5.98 4.34 7 4 C9.44839624 4.83603774 11.68860855 5.84430427 14 7 C14 7.66 14 8.32 14 9 C19.28 9.33 24.56 9.66 30 10 C30 10.33 30 10.66 30 11 C25.72939382 11.11589162 21.45919016 11.18714802 17.1875 11.25 C15.97255859 11.28351563 14.75761719 11.31703125 13.50585938 11.3515625 C11.76079102 11.37089844 11.76079102 11.37089844 9.98046875 11.390625 C8.37014771 11.4220459 8.37014771 11.4220459 6.72729492 11.45410156 C4 11 4 11 2.16918945 9.20996094 C0.58114302 6.2082912 0.32241074 3.35307168 0 0 Z " fill="#6D4D1E" transform="translate(34,62)"/>
<path d="M0 0 C5.15502504 3.9219787 9.33574537 8.00244026 12 14 C12.36440295 17.27962656 12.46650366 19.06699268 11 22 C11.99 22.66 12.98 23.32 14 24 C11.36 23.67 8.72 23.34 6 23 C6.02320313 22.43152344 6.04640625 21.86304687 6.0703125 21.27734375 C6.25268666 13.47433515 5.19857012 8.06499847 0 2 C0 1.34 0 0.68 0 0 Z " fill="#9B6D1F" transform="translate(12,26)"/>
<path d="M0 0 C0 0.99 0 1.98 0 3 C0.99 3.33 1.98 3.66 3 4 C4.1875 6.0625 4.1875 6.0625 5 8 C4.01 8 3.02 8 2 8 C2.928125 8.556875 3.85625 9.11375 4.8125 9.6875 C7.9419407 11.95787855 9.29754051 13.59508103 11 17 C10.01 17 9.02 17 8 17 C7.46375 16.278125 6.9275 15.55625 6.375 14.8125 C3.99303587 11.99175301 2.54554973 11.14059718 -0.6875 9.5625 C-4.86836841 7.41038085 -4.86836841 7.41038085 -6.0625 3.6875 C-6.041875 2.800625 -6.02125 1.91375 -6 1 C-3 0 -3 0 0 0 Z " fill="#785924" transform="translate(43,7)"/>
<path d="M0 0 C2.77867692 2.77867692 2.65193902 5.1713292 3 9 C0.92163583 11.07836417 -2.7448086 10.80610854 -5.54296875 11.0703125 C-8 11 -8 11 -10.625 9.1875 C-12 7 -12 7 -12 5 C-6.555 6.485 -6.555 6.485 -1 8 C-1.020625 6.865625 -1.04125 5.73125 -1.0625 4.5625 C-1 1 -1 1 0 0 Z " fill="#E3E2E1" transform="translate(27,42)"/>
<path d="M0 0 C3.75348932 1.34005569 6.65896767 3.00567159 9.8125 5.4375 C10.60269531 6.03433594 11.39289063 6.63117187 12.20703125 7.24609375 C12.79871094 7.82488281 13.39039062 8.40367188 14 9 C14 10.66666667 14 12.33333333 14 14 C7.6287685 11.99761296 4.10664896 7.74730057 1 2 C0.67 1.34 0.34 0.68 0 0 Z " fill="#150E06" transform="translate(60,14)"/>
<path d="M0 0 C0.33 0.66 0.66 1.32 1 2 C0.154375 2.7425 -0.69125 3.485 -1.5625 4.25 C-4.2594213 6.66073497 -4.2594213 6.66073497 -3.9375 9.1875 C-3.02391338 11.17822239 -3.02391338 11.17822239 -1 13 C-0.34 12.34 0.32 11.68 1 11 C1.33 12.65 1.66 14.3 2 16 C1.05125 15.67 0.1025 15.34 -0.875 15 C-3.77062452 13.89840809 -3.77062452 13.89840809 -6 14 C-6.66 12.35 -7.32 10.7 -8 9 C-8.66 9 -9.32 9 -10 9 C-9.3125 7.0625 -9.3125 7.0625 -8 5 C-6.33499557 4.65846063 -4.66821323 4.32550502 -3 4 C-1.17662247 2.0431712 -1.17662247 2.0431712 0 0 Z " fill="#181008" transform="translate(44,53)"/>
<path d="M0 0 C0.99 0.33 1.98 0.66 3 1 C2.67 3.31 2.34 5.62 2 8 C0.02 8.66 -1.96 9.32 -4 10 C-3.34 8.68 -2.68 7.36 -2 6 C-4.64 6 -7.28 6 -10 6 C-9.67 5.34 -9.34 4.68 -9 4 C-6.35139573 3.40644386 -3.70802678 3.25790731 -1 3 C-0.67 2.01 -0.34 1.02 0 0 Z " fill="#372F24" transform="translate(30,48)"/>
<path d="M0 0 C1.2065625 0.0309375 1.2065625 0.0309375 2.4375 0.0625 C2.4375 1.0525 2.4375 2.0425 2.4375 3.0625 C1.7775 3.0625 1.1175 3.0625 0.4375 3.0625 C0.4375 5.7025 0.4375 8.3425 0.4375 11.0625 C-2.31811383 9.02574195 -2.59520868 7.90440804 -3.3125 4.4375 C-3.395 3.32375 -3.4775 2.21 -3.5625 1.0625 C-2.5625 0.0625 -2.5625 0.0625 0 0 Z " fill="#DAD9D8" transform="translate(7.5625,19.9375)"/>
<path d="M0 0 C2.875 0.875 2.875 0.875 4.875 2.875 C4.215 2.875 3.555 2.875 2.875 2.875 C2.875 3.535 2.875 4.195 2.875 4.875 C1.885 4.545 0.895 4.215 -0.125 3.875 C0.535 3.875 1.195 3.875 1.875 3.875 C1.875 3.215 1.875 2.555 1.875 1.875 C0.9675 2.32875 0.06 2.7825 -0.875 3.25 C-1.9475 3.78625 -3.02 4.3225 -4.125 4.875 C-4.8675 5.2875 -5.61 5.7 -6.375 6.125 C-6.9525 6.3725 -7.53 6.62 -8.125 6.875 C-8.785 6.545 -9.445 6.215 -10.125 5.875 C-9.795 4.885 -9.465 3.895 -9.125 2.875 C-8.465 3.205 -7.805 3.535 -7.125 3.875 C-6.58875 3.194375 -6.0525 2.51375 -5.5 1.8125 C-3.125 -0.125 -3.125 -0.125 0 0 Z " fill="#8F651C" transform="translate(12.125,5.125)"/>
<path d="M0 0 C-2 3 -2 3 -4.6015625 3.73046875 C-6.09816406 3.95669922 -6.09816406 3.95669922 -7.625 4.1875 C-8.62789062 4.34605469 -9.63078125 4.50460938 -10.6640625 4.66796875 C-11.82035156 4.83232422 -11.82035156 4.83232422 -13 5 C-13 4.01 -13 3.02 -13 2 C-12.01 2 -11.02 2 -10 2 C-10 1.34 -10 0.68 -10 0 C-6.7169902 -1.6415049 -3.57454967 -0.51888624 0 0 Z " fill="#986C19" transform="translate(43,4)"/>
<path d="M0 0 C0 0.66 0 1.32 0 2 C-1.65002828 3.35386936 -3.3174387 4.68678142 -5 6 C-5.33 6.66 -5.66 7.32 -6 8 C-7.32 8 -8.64 8 -10 8 C-10.66 8.99 -11.32 9.98 -12 11 C-12.375 8.75 -12.375 8.75 -12 6 C-9.1875 3.8125 -9.1875 3.8125 -6 2 C-3 0 -3 0 0 0 Z " fill="#1C130A" transform="translate(14,7)"/>
<path d="M0 0 C-0.99 0.33 -1.98 0.66 -3 1 C-3 1.66 -3 2.32 -3 3 C-3.99 3 -4.98 3 -6 3 C-5.01 5.31 -4.02 7.62 -3 10 C-6.81684226 8.44499019 -9.19195732 5.96404505 -12 3 C-4.71428571 -0.42857143 -4.71428571 -0.42857143 0 0 Z " fill="#251B0D" transform="translate(40,7)"/>
<path d="M0 0 C1.875 1.625 1.875 1.625 3 3 C1.35 3.33 -0.3 3.66 -2 4 C-2 3.34 -2 2.68 -2 2 C-5.3 1.34 -8.6 0.68 -12 0 C-12 -0.33 -12 -0.66 -12 -1 C-7.3193268 -2.114446 -4.41178268 -1.9607923 0 0 Z " fill="#39342F" transform="translate(27,17)"/>
<path d="M0 0 C0 0.66 0 1.32 0 2 C-1.2375 2.28875 -2.475 2.5775 -3.75 2.875 C-6.72448742 3.61334794 -9.333856 4.44474933 -12 6 C-12 3 -12 3 -10.5 1.3125 C-6.8785826 -0.58874414 -4.06242173 -0.20312109 0 0 Z " fill="#251C10" transform="translate(21,14)"/>
<path d="M0 0 C-0.66 1.32 -1.32 2.64 -2 4 C-4.64 3.67 -7.28 3.34 -10 3 C-7.00991906 -1.48512141 -4.87831759 -1.18661779 0 0 Z " fill="#38280F" transform="translate(67,4)"/>
<path d="M0 0 C1.98 0.66 3.96 1.32 6 2 C6 2.66 6 3.32 6 4 C6.99 4.33 7.98 4.66 9 5 C6.75 5.75 6.75 5.75 4 6 C1.6875 4.1875 1.6875 4.1875 0 2 C0 1.34 0 0.68 0 0 Z " fill="#DBD8D5" transform="translate(15,47)"/>
<path d="M0 0 C2.68674602 0.36307379 4.55872304 0.66904228 6.75 2.3125 C8.14744246 4.19904732 8.6037919 5.70199304 9 8 C5.28175844 6.76058615 4.32621255 5.0766037 2 2 C1.34 1.34 0.68 0.68 0 0 Z " fill="#8F6822" transform="translate(45,17)"/>
<path d="M0 0 C0 1.65 0 3.3 0 5 C-1.65 5.33 -3.3 5.66 -5 6 C-4.34 4.68 -3.68 3.36 -3 2 C-3.99 1.67 -4.98 1.34 -6 1 C-1.125 0 -1.125 0 0 0 Z " fill="#1A120A" transform="translate(31,52)"/>
<path d="M0 0 C0.99 0.66 1.98 1.32 3 2 C3.66 1.34 4.32 0.68 5 0 C5.33 1.65 5.66 3.3 6 5 C0.25 3.125 0.25 3.125 -2 2 C-1.34 1.34 -0.68 0.68 0 0 Z " fill="#412D11" transform="translate(40,64)"/>
<path d="M0 0 C1.5 1.25 1.5 1.25 3 3 C3 4.32 3 5.64 3 7 C0.525 6.01 0.525 6.01 -2 5 C-1.34 3.35 -0.68 1.7 0 0 Z " fill="#32230D" transform="translate(71,21)"/>
</svg>
