<?xml version="1.0" encoding="UTF-8"?>
<svg version="1.1" xmlns="http://www.w3.org/2000/svg" width="80" height="75">
<path d="M0 0 C-0.49725401 4.31706891 -1.74261112 6.22148342 -4.875 9.1875 C-5.57367188 9.86167969 -6.27234375 10.53585938 -6.9921875 11.23046875 C-9 13 -9 13 -12 15 C-15.32240324 14.6758631 -16.60776303 14.39223697 -19 12 C-19.51046875 12.2165625 -20.0209375 12.433125 -20.546875 12.65625 C-30.63313543 16.51907314 -39.99406063 15.71902171 -50 12 C-50.66 12.99 -51.32 13.98 -52 15 C-56.03119644 14.47327573 -58.13732125 13.42327642 -61.125 10.6875 C-62.11886719 9.79611328 -62.11886719 9.79611328 -63.1328125 8.88671875 C-68 3.96861925 -68 3.96861925 -68 0 C-65.17561622 -1.6409272 -62.33908306 -3.25965964 -59.5 -4.875 C-58.70851563 -5.33519531 -57.91703125 -5.79539062 -57.1015625 -6.26953125 C-36.68767598 -17.81509002 -18.53688212 -10.97033842 0 0 Z M-41 -5 C-44.63094697 0.09415653 -44.63094697 0.09415653 -46 6 C-41.89003576 7.96157384 -38.53353543 8.2695411 -34 8.25 C-32.80375 8.25515625 -31.6075 8.2603125 -30.375 8.265625 C-27.14195026 8.01117201 -24.90582541 7.38687122 -22 6 C-23.32081983 1.37713059 -24.88924785 -2.30072717 -28 -6 C-33.28833137 -8.44830156 -36.32046501 -8.56051575 -41 -5 Z " fill="#D5FF00" transform="translate(74,60)"/>
<path d="M0 0 C10.55709755 -0.35745512 10.55709755 -0.35745512 15 1.9375 C16.0828125 2.47697266 16.0828125 2.47697266 17.1875 3.02734375 C18.0846875 3.50880859 18.0846875 3.50880859 19 4 C19.66 4.33 20.32 4.66 21 5 C20.34 6.65 19.68 8.3 19 10 C19.59167969 10.53367187 20.18335937 11.06734375 20.79296875 11.6171875 C29.07280858 19.42427954 33.44541221 26.538519 34 38 C35.65 38 37.3 38 39 38 C39.31806054 45.7276932 39.32270836 51.93924474 36 59 C24.88056175 56.77092846 13.66330263 48.21607774 7.27734375 39.03515625 C1.35042355 29.59195924 -0.32328728 21.05832934 -0.125 10 C-0.11597656 9.03449219 -0.10695312 8.06898437 -0.09765625 7.07421875 C-0.07430635 4.71587901 -0.04156047 2.35807714 0 0 Z M14 17 C9.25503891 24.40352074 9.25503891 24.40352074 9 33 C10.86708505 35.36497439 12.32061431 36.66030715 15 38 C17.04055005 38.07065617 19.08334257 38.08421976 21.125 38.0625 C22.22070312 38.05347656 23.31640625 38.04445313 24.4453125 38.03515625 C25.28835937 38.02355469 26.13140625 38.01195313 27 38 C26.73158026 29.54477833 23.94017226 24.59346507 18.4921875 18.2421875 C16.93931775 16.68010574 16.93931775 16.68010574 14 17 Z " fill="#D5FF00" transform="translate(41,0)"/>
<path d="M0 0 C0.90105469 0.00902344 1.80210938 0.01804688 2.73046875 0.02734375 C3.41753906 0.03894531 4.10460938 0.05054688 4.8125 0.0625 C4.90107863 3.3539911 4.9534104 6.64516805 5 9.9375 C5.02513672 10.8553125 5.05027344 11.773125 5.07617188 12.71875 C5.21077633 25.46130484 0.60539522 36.64383786 -7.9609375 46.078125 C-12.52633709 50.14693726 -17.89802727 53.04281367 -23.1875 56.0625 C-24.08210938 56.63355469 -24.97671875 57.20460937 -25.8984375 57.79296875 C-28.1875 59.0625 -28.1875 59.0625 -31.1875 59.0625 C-34.51020836 52.00174474 -34.50556054 45.7901932 -34.1875 38.0625 C-32.5375 38.0625 -30.8875 38.0625 -29.1875 38.0625 C-29.125625 36.78375 -29.06375 35.505 -29 34.1875 C-27.76321758 23.66660419 -21.82286694 16.94930156 -14.1875 10.0625 C-14.8475 8.4125 -15.5075 6.7625 -16.1875 5.0625 C-14.917947 4.41415346 -13.64680294 3.76892185 -12.375 3.125 C-11.66730469 2.76535156 -10.95960937 2.40570313 -10.23046875 2.03515625 C-6.65599926 0.33335338 -3.91107651 -0.0507932 0 0 Z M-13.90625 18.56640625 C-19.36270068 24.87243587 -22.39199972 29.47351179 -22.1875 38.0625 C-20.29239301 38.14410748 -18.39625496 38.20196459 -16.5 38.25 C-14.91638672 38.30220703 -14.91638672 38.30220703 -13.30078125 38.35546875 C-9.79684385 38.02573813 -7.99051489 37.14834712 -5.1875 35.0625 C-3.59637231 31.88024461 -3.85017214 29.60444252 -4.1875 26.0625 C-5.6194356 22.90823627 -7.33209276 19.9847664 -9.1875 17.0625 C-12.19184838 16.7332477 -12.19184838 16.7332477 -13.90625 18.56640625 Z " fill="#D5FF00" transform="translate(34.1875,-0.0625)"/>
</svg>
