<?xml version="1.0" encoding="UTF-8"?>
<svg version="1.1" xmlns="http://www.w3.org/2000/svg" width="100" height="100">
<path d="M0 0 C0.99 0 1.98 0 3 0 C3.30550781 0.64324219 3.61101563 1.28648438 3.92578125 1.94921875 C9.69989586 13.35106197 17.96124463 23.08980594 28 31 C27.34 30.0925 26.68 29.185 26 28.25 C24 25 24 25 24 21 C27.35100483 19.99550215 30.44644298 19.83451171 33.9375 19.8125 C34.95714844 19.79832031 35.97679687 19.78414062 37.02734375 19.76953125 C40.07159667 20.00555086 42.24737643 20.71747005 45 22 C44.690625 22.598125 44.38125 23.19625 44.0625 23.8125 C42.89790296 26.08956772 42.89790296 26.08956772 42 29 C52.02237793 20.74753137 59.71631551 11.39097142 66 0 C66.66 0 67.32 0 68 0 C69.2639536 3.79186081 69.18414402 7.3625172 69.1875 11.3125 C69.19974609 12.05951172 69.21199219 12.80652344 69.22460938 13.57617188 C69.23656474 18.11522437 68.71951855 21.72499142 67 26 C68.65 24.68 70.3 23.36 72 22 C73 24 73 24 72.51171875 25.83984375 C72.23972656 26.53207031 71.96773438 27.22429688 71.6875 27.9375 C71.42324219 28.62714844 71.15898438 29.31679688 70.88671875 30.02734375 C70 32 70 32 68 35 C67.69557214 38.10294819 67.69557214 38.10294819 67.7265625 41.64453125 C67.7059375 42.96130859 67.6853125 44.27808594 67.6640625 45.63476562 C67.64152167 47.72150731 67.62501289 49.80791779 67.61914062 51.89477539 C67.60955961 53.91612978 67.57571414 55.93601077 67.5390625 57.95703125 C67.53084473 59.16335205 67.52262695 60.36967285 67.51416016 61.61254883 C66.90641556 65.61656412 65.33150437 67.74243622 63 71 C63 71.99 63 72.98 63 74 C63.66 74.66 64.32 75.32 65 76 C64.73441476 79.85098598 62.43956652 82.16695501 60 85 C57.62051228 84.82374165 56.29774151 84.30280227 54.62109375 82.59765625 C53.37884514 81.09350908 52.18623944 79.54870149 51 78 C50.01 78.66 49.02 79.32 48 80 C47.75595557 82.16886 47.75595557 82.16886 47.875 84.625 C47.66124016 88.21199445 47.29175795 89.65454087 44.94140625 92.4375 C42.69177248 94.40285868 40.41998372 96.24978955 38 98 C37.01 97.67 36.02 97.34 35 97 C34.9201885 91.43037895 34.89968596 85.8647741 34.93286133 80.29467773 C34.9359335 78.40238283 34.92312436 76.50999008 34.89379883 74.61791992 C34.66554536 58.84353039 34.66554536 58.84353039 38.00439453 54.23095703 C40.2723416 52.47830789 42.41884619 51.22346276 45 50 C45.66 49.34 46.32 48.68 47 48 C44.80085503 47.40802387 44.80085503 47.40802387 42 48 C39.42739828 50.12080183 37.20745501 52.50627561 35 55 C32.12243141 53.70084456 30.81517057 52.79571484 28.625 50.375 C25.84845598 47.32908668 25.84845598 47.32908668 20 48 C23.3 50.31 26.6 52.62 30 55 C28 57.66666667 26 60.33333333 24 63 C23.48050781 63.74765625 22.96101563 64.4953125 22.42578125 65.265625 C21.95527344 65.83796875 21.48476563 66.4103125 21 67 C20.34 67 19.68 67 19 67 C19 67.99 19 68.98 19 70 C23.45805787 66.2452765 27.38263487 62.59127113 31 58 C31.66 58 32.32 58 33 58 C33 71.2 33 84.4 33 98 C28.81681142 95.90840571 25.45796567 94.01797484 23 90 C22.20812519 85.99464612 22.01319432 82.07704557 22 78 C21.319375 78.99 21.319375 78.99 20.625 80 C19.820625 80.99 19.820625 80.99 19 82 C18.34 82 17.68 82 17 82 C14.525 77.545 14.525 77.545 12 73 C11.67 76.96 11.34 80.92 11 85 C8.17672221 85 7.43528276 83.91643971 5.43359375 81.9609375 C0.36872124 75.99129518 0.99893469 69.02992287 1.0625 61.625 C1.04935972 60.25257056 1.03310431 58.88016727 1.01367188 57.5078125 C0.95749597 52.65222848 0.94979986 47.7997254 1.08520508 42.9453125 C1.11650513 41.63046875 1.11650513 41.63046875 1.1484375 40.2890625 C1.17728027 39.55123535 1.20612305 38.8134082 1.23583984 38.05322266 C0.85610774 34.74727342 -0.9142885 32.47717531 -2.8203125 29.828125 C-4.43663863 27.32335471 -4.77959848 24.93868697 -5 22 C-3 23 -1 24 1 25 C0.67386719 24.16726562 0.34773438 23.33453125 0.01171875 22.4765625 C-1.11347192 18.6100772 -1.2318072 15.39487164 -1.1875 11.375 C-1.18105469 10.08335938 -1.17460937 8.79171875 -1.16796875 7.4609375 C-1.03663187 4.75478692 -0.81208875 2.55970374 0 0 Z M14 37 C14.43197635 41.7517398 15.32769295 43.92000054 19 47 C19.41725678 43.62599422 19.41725678 43.62599422 19 40 C16.6273026 37.99135641 16.6273026 37.99135641 14 37 Z M53 37 C51.68 38.32 50.36 39.64 49 41 C49.33 41.33 49.66 41.66 50 42 C49.71395102 43.67542976 49.38218767 45.34385343 49 47 C52.16501727 46.32510046 52.16501727 46.32510046 53.25 43.6875 C54.0275526 40.90126985 53.98726527 39.66561622 53 37 Z M48.453125 57.2890625 C46.09190661 60.06920674 46.47434699 62.7096879 46.75390625 66.20703125 C46.83511719 66.79871094 46.91632812 67.39039062 47 68 C48.48009643 67.02223933 49.95905144 66.0427506 51.4375 65.0625 C52.26121094 64.51722656 53.08492187 63.97195312 53.93359375 63.41015625 C55.89985925 62.16197019 55.89985925 62.16197019 57 61 C57.04092937 58.66702567 57.04241723 56.33294775 57 54 C53.19173611 54 51.47788226 55.09039441 48.453125 57.2890625 Z " fill="#FEFFFF" transform="translate(16,1)"/>
<path d="M0 0 C3.7952131 1.49097658 5.61042731 3.75700849 8 7 C5.69 6.67 3.38 6.34 1 6 C0.67 4.02 0.34 2.04 0 0 Z " fill="#E70001" transform="translate(34,42)"/>
<path d="M0 0 C0.99 0.33 1.98 0.66 3 1 C2.375 3.4375 2.375 3.4375 1 6 C-2.125 6.8125 -2.125 6.8125 -5 7 C-4.1875 5.0625 -4.1875 5.0625 -3 3 C-2.01 2.67 -1.02 2.34 0 2 C0 1.34 0 0.68 0 0 Z " fill="#DF0001" transform="translate(64,42)"/>
</svg>
