<?xml version="1.0" encoding="UTF-8"?>
<svg version="1.1" xmlns="http://www.w3.org/2000/svg" width="62" height="74">
<path d="M0 0 C1.875 0.6875 1.875 0.6875 2.875 1.6875 C2.91563832 3.35367115 2.917721 5.02138095 2.875 6.6875 C2.215 6.6875 1.555 6.6875 0.875 6.6875 C0.875 9.6575 0.875 12.6275 0.875 15.6875 C1.865 16.0175 2.855 16.3475 3.875 16.6875 C3.875 18.3375 3.875 19.9875 3.875 21.6875 C3.215 21.6875 2.555 21.6875 1.875 21.6875 C2.37 30.5975 2.37 30.5975 2.875 39.6875 C4.69072575 35.64942823 6.50582016 31.61108459 8.31933594 27.57202148 C8.93583176 26.19946113 9.55268907 24.82706308 10.16992188 23.45483398 C11.05955694 21.47683087 11.94786934 19.49823827 12.8359375 17.51953125 C13.63717041 15.73639526 13.63717041 15.73639526 14.45458984 13.91723633 C15.65054697 11.19786253 16.77169417 8.44576459 17.875 5.6875 C21.835 5.6875 25.795 5.6875 29.875 5.6875 C28.875 9.6875 28.875 9.6875 27.875 11.6875 C27.85135267 14.71604767 27.8841124 17.72696023 27.9453125 20.75390625 C27.95622171 22.62042718 27.96392965 24.48696904 27.96875 26.35351562 C27.97658209 29.29568831 27.99954761 32.2328535 28.07714844 35.17407227 C28.50223325 52.40893235 28.50223325 52.40893235 24.49121094 56.92919922 C21.71696206 59.20662966 19.01780757 60.96861188 15.875 62.6875 C14.77115967 63.53356812 14.77115967 63.53356812 13.64501953 64.39672852 C11.875 65.6875 11.875 65.6875 9.875 65.6875 C9.215 67.3375 8.555 68.9875 7.875 70.6875 C7.215 70.6875 6.555 70.6875 5.875 70.6875 C5.26916589 66.21105905 5.00542418 62.13890003 5.875 57.6875 C8.75303875 54.45492025 11.94271827 52.46024996 15.875 50.6875 C16.535 50.6875 17.195 50.6875 17.875 50.6875 C17.38 40.2925 17.38 40.2925 16.875 29.6875 C14.49410381 35.37855638 14.49410381 35.37855638 12.14990234 41.0847168 C10.46930646 44.98119976 9.15755923 47.77677113 5.65234375 50.26953125 C2.50752317 52.51154101 2.50752317 52.51154101 2.10546875 56.5 C2.06203232 57.89523085 2.04833562 59.29166505 2.0625 60.6875 C1.90886485 69.45278957 1.90886485 69.45278957 0.875 73.6875 C-0.445 73.3575 -1.765 73.0275 -3.125 72.6875 C-4.18119003 68.40452469 -4.24202092 64.25764354 -4.1875 59.875 C-4.18298828 59.18212891 -4.17847656 58.48925781 -4.17382812 57.77539062 C-4.16213156 56.07938932 -4.14419924 54.38343297 -4.125 52.6875 C-4.73601563 52.42582031 -5.34703125 52.16414063 -5.9765625 51.89453125 C-12.95629018 47.97319333 -16.08112033 36.48313832 -19.125 29.6875 C-19.455 36.6175 -19.785 43.5475 -20.125 50.6875 C-18.475 51.3475 -16.825 52.0075 -15.125 52.6875 C-12.17804335 53.9231334 -10.07922003 55.11698955 -8.125 57.6875 C-7.22381933 62.03003143 -7.07963562 66.26123226 -7.125 70.6875 C-8.115 70.6875 -9.105 70.6875 -10.125 70.6875 C-10.3725 69.90375 -10.62 69.12 -10.875 68.3125 C-12.38404589 65.14350364 -13.06419531 65.17388062 -16.125 63.6875 C-18.21644919 62.19360772 -20.27113763 60.68372423 -22.3125 59.125 C-22.85841797 58.71314453 -23.40433594 58.30128906 -23.96679688 57.87695312 C-27.95547672 54.85702328 -27.95547672 54.85702328 -29.125 53.6875 C-29.2364998 52.34786873 -29.2816639 51.0026042 -29.29858398 49.65844727 C-29.31207382 48.80408585 -29.32556366 47.94972443 -29.33946228 47.06947327 C-29.34990067 46.14033615 -29.36033905 45.21119904 -29.37109375 44.25390625 C-29.40402718 42.30663604 -29.43723891 40.35937053 -29.47070312 38.41210938 C-29.51818997 35.32644843 -29.56261675 32.24080721 -29.60180664 29.1550293 C-29.64140152 26.18778448 -29.69297365 23.22093533 -29.74609375 20.25390625 C-29.7545079 19.32679337 -29.76292206 18.39968048 -29.77159119 17.44447327 C-29.78823318 16.58695969 -29.80487518 15.72944611 -29.82202148 14.84594727 C-29.83232895 14.08951431 -29.84263641 13.33308136 -29.85325623 12.5537262 C-29.97066928 10.44327117 -29.97066928 10.44327117 -32.125 8.6875 C-32.125 7.6975 -32.125 6.7075 -32.125 5.6875 C-28.165 5.6875 -24.205 5.6875 -20.125 5.6875 C-15.175 16.5775 -10.225 27.4675 -5.125 38.6875 C-4.90516502 27.61622229 -4.90516502 27.61622229 -6.125 16.6875 C-5.135 16.3575 -4.145 16.0275 -3.125 15.6875 C-3.8437807 8.64542295 -3.8437807 8.64542295 -5.125 1.6875 C-2.125 -0.3125 -2.125 -0.3125 0 0 Z " fill="#850204" transform="translate(32.125,0.3125)"/>
<path d="M0 0 C3.96 0 7.92 0 12 0 C11 4 11 4 10 6 C9.97635267 9.02854767 10.0091124 12.03946023 10.0703125 15.06640625 C10.08122171 16.93292718 10.08892965 18.79946904 10.09375 20.66601562 C10.10158209 23.60818831 10.12454761 26.5453535 10.20214844 29.48657227 C10.62723325 46.72143235 10.62723325 46.72143235 6.61621094 51.24169922 C3.84196206 53.51912966 1.14280757 55.28111188 -2 57 C-2.73589355 57.56404541 -3.47178711 58.12809082 -4.22998047 58.70922852 C-6 60 -6 60 -8 60 C-8.99 62.475 -8.99 62.475 -10 65 C-10.66 65 -11.32 65 -12 65 C-12.60583411 60.52355905 -12.86957582 56.45140003 -12 52 C-9.12196125 48.76742025 -5.93228173 46.77274996 -2 45 C-1.34 45 -0.68 45 0 45 C-0.33 38.07 -0.66 31.14 -1 24 C-1.99 25.32 -2.98 26.64 -4 28 C-5.5 26.875 -5.5 26.875 -7 25 C-7.1875 21.8125 -7.1875 21.8125 -7 19 C-4.33333333 18.33333333 -1.66666667 17.66666667 1 17 C1.0270043 15.54176788 1.04639787 14.08339325 1.0625 12.625 C1.07410156 11.81289063 1.08570313 11.00078125 1.09765625 10.1640625 C1.14466334 7.95062858 1.14466334 7.95062858 0 6 C-0.66 5.67 -1.32 5.34 -2 5 C-1.34 3.35 -0.68 1.7 0 0 Z " fill="#760205" transform="translate(50,6)"/>
<path d="M0 0 C0.99 0.33 1.98 0.66 3 1 C3 1.66 3 2.32 3 3 C3.66 3 4.32 3 5 3 C7.49959393 6.74939089 7.55722871 8.56138511 7 13 C4.734375 15.546875 4.734375 15.546875 1.75 17.75 C0.77546875 18.48734375 -0.1990625 19.2246875 -1.203125 19.984375 C-2.12609375 20.64953125 -3.0490625 21.3146875 -4 22 C-4.73734375 22.58265625 -5.4746875 23.1653125 -6.234375 23.765625 C-8 25 -8 25 -10 25 C-10.99 27.475 -10.99 27.475 -12 30 C-12.66 30 -13.32 30 -14 30 C-14.60583411 25.52355905 -14.86957582 21.45140003 -14 17 C-11.12196125 13.76742025 -7.93228173 11.77274996 -4 10 C-3.34 10 -2.68 10 -2 10 C-1.67 8.35 -1.34 6.7 -1 5 C-0.34 5 0.32 5 1 5 C0.67 3.35 0.34 1.7 0 0 Z " fill="#630407" transform="translate(52,41)"/>
<path d="M0 0 C0.99 0 1.98 0 3 0 C3.2475 0.639375 3.495 1.27875 3.75 1.9375 C4.81562433 4.18741541 4.81562433 4.18741541 7.125 4.75 C7.74375 4.8325 8.3625 4.915 9 5 C9 5.99 9 6.98 9 8 C10.0209375 8.3403125 10.0209375 8.3403125 11.0625 8.6875 C12.5165625 9.3371875 12.5165625 9.3371875 14 10 C14.61230469 10.26039062 15.22460938 10.52078125 15.85546875 10.7890625 C18.11567172 12.01003813 19.43451975 12.94082382 21 15 C21.90118067 19.34253143 22.04536438 23.57373226 22 28 C21.01 28 20.02 28 19 28 C18.7525 27.21625 18.505 26.4325 18.25 25.625 C16.74095411 22.45600364 16.06080469 22.48638062 13 21 C10.90855081 19.50610772 8.85386237 17.99622423 6.8125 16.4375 C6.26658203 16.02564453 5.72066406 15.61378906 5.15820312 15.18945312 C1.16952328 12.16952328 1.16952328 12.16952328 0 11 C-0.07226502 9.14712498 -0.0838122 7.29166122 -0.0625 5.4375 C-0.05347656 4.42558594 -0.04445312 3.41367187 -0.03515625 2.37109375 C-0.02355469 1.58863281 -0.01195312 0.80617187 0 0 Z " fill="#6B0204" transform="translate(3,43)"/>
<path d="M0 0 C2.13586678 3.20380017 2.23132175 4.01939967 2.125 7.6875 C2.10695313 8.49574219 2.08890625 9.30398437 2.0703125 10.13671875 C2.03550781 11.05904297 2.03550781 11.05904297 2 12 C-4.875 14 -4.875 14 -6 14 C-6.33 15.98 -6.66 17.96 -7 20 C-6.01 20.33 -5.02 20.66 -4 21 C-4.0625 24.3125 -4.0625 24.3125 -5 28 C-7.28141342 29.59040839 -9.29874113 30.16506544 -12 31 C-12.26745924 23.41084412 -10.16250894 17.26236887 -7.125 10.4375 C-6.77308594 9.63973145 -6.42117187 8.84196289 -6.05859375 8.02001953 C-3.39995523 2.26663682 -3.39995523 2.26663682 0 0 Z " fill="#840204" transform="translate(50,11)"/>
<path d="M0 0 C1.875 0.6875 1.875 0.6875 2.875 1.6875 C2.91563832 3.35367115 2.917721 5.02138095 2.875 6.6875 C2.215 6.6875 1.555 6.6875 0.875 6.6875 C0.875 9.6575 0.875 12.6275 0.875 15.6875 C1.865 16.0175 2.855 16.3475 3.875 16.6875 C3.875 18.3375 3.875 19.9875 3.875 21.6875 C3.215 21.6875 2.555 21.6875 1.875 21.6875 C1.875 22.3475 1.875 23.0075 1.875 23.6875 C0.885 23.3575 -0.105 23.0275 -1.125 22.6875 C-1.125 21.6975 -1.125 20.7075 -1.125 19.6875 C-2.115 19.6875 -3.105 19.6875 -4.125 19.6875 C-4.455 20.3475 -4.785 21.0075 -5.125 21.6875 C-5.455 20.0375 -5.785 18.3875 -6.125 16.6875 C-5.135 16.3575 -4.145 16.0275 -3.125 15.6875 C-3.8437807 8.64542295 -3.8437807 8.64542295 -5.125 1.6875 C-2.125 -0.3125 -2.125 -0.3125 0 0 Z " fill="#760D0F" transform="translate(32.125,0.3125)"/>
<path d="M0 0 C3.96 0 7.92 0 12 0 C12.66 1.98 13.32 3.96 14 6 C13.071875 6.12375 13.071875 6.12375 12.125 6.25 C9.86719166 6.8129497 9.86719166 6.8129497 8.75 8.8125 C7.78378378 11.24521396 7.78378378 11.24521396 8 15 C8 15.66 8 16.32 8 17 C6.35 16.67 4.7 16.34 3 16 C2.92652344 14.84371094 2.92652344 14.84371094 2.8515625 13.6640625 C2.77679688 12.66117188 2.70203125 11.65828125 2.625 10.625 C2.55539062 9.62726562 2.48578125 8.62953125 2.4140625 7.6015625 C2.23636036 4.84491121 2.23636036 4.84491121 0 3 C0 2.01 0 1.02 0 0 Z " fill="#830205" transform="translate(0,6)"/>
<path d="M0 0 C0.33 0 0.66 0 1 0 C1.02710123 2.5625718 1.04688771 5.12485365 1.0625 7.6875 C1.07087891 8.40873047 1.07925781 9.12996094 1.08789062 9.87304688 C1.10543632 13.71555382 0.93524221 17.26639526 0 21 C-1.32 20.67 -2.64 20.34 -4 20 C-5.20568053 15.32798795 -5.09382426 10.78503708 -5 6 C-4.34 6 -3.68 6 -3 6 C-3 5.34 -3 4.68 -3 4 C-2.34 4 -1.68 4 -1 4 C-0.67 2.68 -0.34 1.36 0 0 Z " fill="#650305" transform="translate(33,53)"/>
<path d="M0 0 C0.97608217 2.92824652 1.08226668 4.95613276 1 8 C2.65 7.34 4.3 6.68 6 6 C4.36058473 12.6008036 2.64842118 16.10886541 -3 20 C-4.60326042 18.39673958 -4.24749549 16.71699591 -4.3125 14.5 C-4.28849761 8.94744771 -2.61275896 4.82893843 0 0 Z " fill="#720709" transform="translate(38,33)"/>
<path d="M0 0 C0.66 1.65 1.32 3.3 2 5 C1.01 5 0.02 5 -1 5 C-1 8.63 -1 12.26 -1 16 C-3.2802512 12.95966506 -4.71293873 10.75349671 -6.1875 7.375 C-6.53167969 6.59898438 -6.87585938 5.82296875 -7.23046875 5.0234375 C-8 3 -8 3 -8 1 C-5.29120665 -0.35439668 -2.99066732 -0.06501451 0 0 Z " fill="#920407" transform="translate(24,33)"/>
<path d="M0 0 C3.06393013 -0.25532751 4.63233212 -0.21861333 7.3125 1.375 C7.869375 1.91125 8.42625 2.4475 9 3 C9 3.66 9 4.32 9 5 C12.465 4.505 12.465 4.505 16 4 C16.33 7.3 16.66 10.6 17 14 C16.01 14 15.02 14 14 14 C13.7525 13.21625 13.505 12.4325 13.25 11.625 C11.76473061 8.50593429 11.0176368 8.41721157 8 7 C6.5614044 6.01030923 5.14443831 4.98849332 3.75 3.9375 C3.04359375 3.41027344 2.3371875 2.88304687 1.609375 2.33984375 C1.07828125 1.89769531 0.5471875 1.45554688 0 1 C0 0.67 0 0.34 0 0 Z " fill="#5D0709" transform="translate(8,57)"/>
<path d="M0 0 C2.13586678 3.20380017 2.23132175 4.01939967 2.125 7.6875 C2.10695313 8.49574219 2.08890625 9.30398437 2.0703125 10.13671875 C2.03550781 11.05904297 2.03550781 11.05904297 2 12 C0.02 12.66 -1.96 13.32 -4 14 C-5.25 12 -5.25 12 -6 9 C-5.04305226 6.10740797 -3.71655258 3.51604282 -2 1 C-1.34 0.67 -0.68 0.34 0 0 Z " fill="#900204" transform="translate(50,11)"/>
<path d="M0 0 C1.91796875 0.33984375 1.91796875 0.33984375 4 1 C6.52087892 5.92171599 5.90453894 9.75367413 5 15 C1.125 13.125 1.125 13.125 0 12 C-0.07244053 9.98035801 -0.08377188 7.95832876 -0.0625 5.9375 C-0.05347656 4.83277344 -0.04445313 3.72804687 -0.03515625 2.58984375 C-0.02355469 1.73519531 -0.01195313 0.88054688 0 0 Z " fill="#7B0305" transform="translate(23,38)"/>
<path d="M0 0 C3.96 0 7.92 0 12 0 C11.07377893 3.70488428 10.32789515 5.16604069 8 8 C7.67 7.01 7.34 6.02 7 5 C4.69 4.67 2.38 4.34 0 4 C0 4.66 0 5.32 0 6 C-0.66 5.67 -1.32 5.34 -2 5 C-1.34 3.35 -0.68 1.7 0 0 Z " fill="#600609" transform="translate(50,6)"/>
<path d="M0 0 C0.99 0 1.98 0 3 0 C3.12375 1.11375 3.2475 2.2275 3.375 3.375 C3.6465813 7.03103677 3.6465813 7.03103677 6 9 C5.625 11.625 5.625 11.625 5 14 C1.125 12.125 1.125 12.125 0 11 C-0.07226502 9.14712498 -0.0838122 7.29166122 -0.0625 5.4375 C-0.05347656 4.42558594 -0.04445312 3.41367187 -0.03515625 2.37109375 C-0.02355469 1.58863281 -0.01195312 0.80617187 0 0 Z " fill="#540204" transform="translate(3,43)"/>
<path d="M0 0 C1.875 0.6875 1.875 0.6875 2.875 1.6875 C2.91563832 3.35367115 2.917721 5.02138095 2.875 6.6875 C0.565 6.6875 -1.745 6.6875 -4.125 6.6875 C-4.455 5.0375 -4.785 3.3875 -5.125 1.6875 C-2.125 -0.3125 -2.125 -0.3125 0 0 Z " fill="#7A070C" transform="translate(32.125,0.3125)"/>
<path d="M0 0 C2.125 0.9375 2.125 0.9375 4 2 C4 3.65 4 5.3 4 7 C3.34 7 2.68 7 2 7 C1.67 7.99 1.34 8.98 1 10 C0.01 9.67 -0.98 9.34 -2 9 C-2 6.36 -2 3.72 -2 1 C-1.34 0.67 -0.68 0.34 0 0 Z " fill="#980205" transform="translate(30,40)"/>
<path d="M0 0 C4.75 1.875 4.75 1.875 7 3 C7 3.99 7 4.98 7 6 C4.69 6.33 2.38 6.66 0 7 C-0.38133299 5.0085944 -0.71325582 3.00720923 -1 1 C-0.67 0.67 -0.34 0.34 0 0 Z " fill="#7E0305" transform="translate(17,55)"/>
<path d="M0 0 C0.66 0.33 1.32 0.66 2 1 C1.67 1.99 1.34 2.98 1 4 C0.67 4 0.34 4 0 4 C-0.33 5.98 -0.66 7.96 -1 10 C-0.01 10.33 0.98 10.66 2 11 C2 12.65 2 14.3 2 16 C1.34 14.68 0.68 13.36 0 12 C-1.32 12.33 -2.64 12.66 -4 13 C-5 10 -5 10 -4.00390625 7.51953125 C-3.52824219 6.62621094 -3.05257812 5.73289062 -2.5625 4.8125 C-2.08941406 3.91144531 -1.61632813 3.01039062 -1.12890625 2.08203125 C-0.75636719 1.39496094 -0.38382813 0.70789063 0 0 Z " fill="#820F12" transform="translate(44,21)"/>
<path d="M0 0 C0.66 0 1.32 0 2 0 C2 5.94 2 11.88 2 18 C1.34 17.67 0.68 17.34 0 17 C-1.09461787 11.74583421 -1.39094402 6.3582327 -1 1 C-0.67 0.67 -0.34 0.34 0 0 Z " fill="#730103" transform="translate(32,24)"/>
<path d="M0 0 C1.32 0 2.64 0 4 0 C3.69381595 3.67420866 3.24228216 4.78135513 0.4375 7.3125 C-0.366875 7.869375 -1.17125 8.42625 -2 9 C-2.6875 7.3125 -2.6875 7.3125 -3 5 C-1.8125 2.25 -1.8125 2.25 0 0 Z " fill="#620507" transform="translate(37,44)"/>
<path d="M0 0 C1.32 0 2.64 0 4 0 C4 2.97 4 5.94 4 9 C2.68 9 1.36 9 0 9 C0 6.03 0 3.06 0 0 Z " fill="#4F0305" transform="translate(29,7)"/>
<path d="M0 0 C0.99 0.33 1.98 0.66 3 1 C3 1.66 3 2.32 3 3 C2.34 3 1.68 3 1 3 C1 3.66 1 4.32 1 5 C0.34 5 -0.32 5 -1 5 C-1 5.99 -1 6.98 -1 8 C-2.65 8 -4.3 8 -6 8 C-4.55746343 4.63408134 -2.66735273 2.48952921 0 0 Z " fill="#9A0204" transform="translate(12,12)"/>
<path d="M0 0 C1.5625 1.1875 1.5625 1.1875 3 3 C2.6875 5.6875 2.6875 5.6875 2 8 C0.68 7.67 -0.64 7.34 -2 7 C-2 5.02 -2 3.04 -2 1 C-1.34 0.67 -0.68 0.34 0 0 Z " fill="#6D0206" transform="translate(52,31)"/>
<path d="M0 0 C1.64826111 2.96687001 2.44271087 5.65626525 3 9 C1.68 8.67 0.36 8.34 -1 8 C-1.33 5.69 -1.66 3.38 -2 1 C-1.34 0.67 -0.68 0.34 0 0 Z " fill="#550A0C" transform="translate(30,65)"/>
<path d="M0 0 C1.98 0.99 1.98 0.99 4 2 C4 3.65 4 5.3 4 7 C3.01 7.33 2.02 7.66 1 8 C-0.35439668 5.29120665 -0.06501451 2.99066732 0 0 Z " fill="#9A0104" transform="translate(3,33)"/>
<path d="M0 0 C1.65 0.33 3.3 0.66 5 1 C5 2.32 5 3.64 5 5 C2.03 4.505 2.03 4.505 -1 4 C-0.67 2.68 -0.34 1.36 0 0 Z " fill="#790103" transform="translate(4,29)"/>
<path d="M0 0 C0.33 0 0.66 0 1 0 C1.33 3.3 1.66 6.6 2 10 C1.01 10 0.02 10 -1 10 C-2.23076923 4.58461538 -2.23076923 4.58461538 -1.0625 1.625 C-0.5365625 0.820625 -0.5365625 0.820625 0 0 Z " fill="#600305" transform="translate(23,61)"/>
<path d="M0 0 C2.31 0.33 4.62 0.66 7 1 C7.33 2.32 7.66 3.64 8 5 C5.36 4.67 2.72 4.34 0 4 C0 2.68 0 1.36 0 0 Z " fill="#8D080A" transform="translate(6,7)"/>
<path d="M0 0 C0.66 0.33 1.32 0.66 2 1 C2 2.98 2 4.96 2 7 C0.0625 6.1875 0.0625 6.1875 -2 5 C-2.33 4.01 -2.66 3.02 -3 2 C-2.01 1.34 -1.02 0.68 0 0 Z " fill="#821014" transform="translate(26,46)"/>
<path d="M0 0 C0.33 0.66 0.66 1.32 1 2 C0.0625 4.625 0.0625 4.625 -1 7 C-1.33 6.34 -1.66 5.68 -2 5 C-2.99 4.67 -3.98 4.34 -5 4 C-5 3.01 -5 2.02 -5 1 C-3.35 0.67 -1.7 0.34 0 0 Z " fill="#6D1012" transform="translate(22,61)"/>
<path d="M0 0 C0.33 1.32 0.66 2.64 1 4 C-0.98 5.32 -2.96 6.64 -5 8 C-3.375 2.25 -3.375 2.25 0 0 Z " fill="#990A0D" transform="translate(50,11)"/>
<path d="M0 0 C-1.04874998 2.62187494 -1.64931313 3.79371361 -4.125 5.25 C-4.74375 5.4975 -5.3625 5.745 -6 6 C-5.625 3.5625 -5.625 3.5625 -5 1 C-3 0 -3 0 0 0 Z " fill="#9B0A11" transform="translate(33,0)"/>
<path d="M0 0 C0.33 0 0.66 0 1 0 C1 2.97 1 5.94 1 9 C0.34 8.67 -0.32 8.34 -1 8 C-1 7.34 -1 6.68 -1 6 C-1.66 6 -2.32 6 -3 6 C-3.33 5.01 -3.66 4.02 -4 3 C-3.01 2.67 -2.02 2.34 -1 2 C-0.67 1.34 -0.34 0.68 0 0 Z " fill="#770408" transform="translate(58,38)"/>
<path d="M0 0 C1.2077558 3.62326739 0.54311128 4.64146369 -1 8 C-1.33 8 -1.66 8 -2 8 C-2 5.69 -2 3.38 -2 1 C-1.34 0.67 -0.68 0.34 0 0 Z " fill="#520B0E" transform="translate(40,57)"/>
</svg>
