<?xml version="1.0" encoding="UTF-8"?>
<svg version="1.1" xmlns="http://www.w3.org/2000/svg" width="150" height="60">
<path d="M0 0 C7.84683285 -0.152397 15.69328275 -0.25732043 23.54125977 -0.32958984 C26.21026048 -0.35633253 28.87732413 -0.40062445 31.54614258 -0.45263672 C35.38647851 -0.52559523 39.22550264 -0.55949297 43.06640625 -0.5859375 C44.25520889 -0.61690521 45.44401154 -0.64787292 46.6688385 -0.67977905 C53.13058621 -0.68239219 57.13575951 -0.22191249 61.90475464 4.32090759 C63.6085019 6.93287856 63.31849622 9.33310455 62.72314453 12.29248047 C62.48450684 13.18596191 62.24586914 14.07944336 62 15 C61.57436768 16.65539795 61.57436768 16.65539795 61.14013672 18.34423828 C60.12610596 22.10111446 59.04250859 25.83142609 57.9375 29.5625 C57.55595974 30.87024425 57.17509512 32.17818582 56.79492188 33.48632812 C55.86990414 36.65949024 54.93585876 39.83001829 54 43 C48.72 43 43.44 43 38 43 C38.59683631 36.00608717 40.45227581 29.67750149 42.5625 23 C42.89185547 21.93910156 43.22121094 20.87820312 43.56054688 19.78515625 C44.36771779 17.18817156 45.18098869 14.59326993 46 12 C44.02 12 42.04 12 40 12 C39.75765625 12.99257813 39.5153125 13.98515625 39.265625 15.0078125 C32.83150161 41.16849839 32.83150161 41.16849839 31 43 C28.46950598 43.07313567 25.96695163 43.09247527 23.4375 43.0625 C22.72658203 43.05798828 22.01566406 43.05347656 21.28320312 43.04882812 C19.52209987 43.03700864 17.76103964 43.01907263 16 43 C17.30858751 35.82519603 19.07159003 28.8703488 21.125 21.875 C21.40214844 20.91851562 21.67929687 19.96203125 21.96484375 18.9765625 C22.63956221 16.64994713 23.3179883 14.32448578 24 12 C22.02 12 20.04 12 18 12 C17.75765625 12.99257813 17.5153125 13.98515625 17.265625 15.0078125 C10.83150161 41.16849839 10.83150161 41.16849839 9 43 C6.46950598 43.07313567 3.96695163 43.09247527 1.4375 43.0625 C0.37112305 43.05573242 0.37112305 43.05573242 -0.71679688 43.04882812 C-2.47790013 43.03700864 -4.23896036 43.01907263 -6 43 C-5.31269268 35.56142078 -3.29337273 28.80297581 -1.08398438 21.68945312 C1.21569526 14.01086179 1.16718626 7.93510256 0 0 Z " fill="#D0D3D3" transform="translate(6,17)"/>
<path d="M0 0 C5.28 0 10.56 0 16 0 C14.68 5.28 13.36 10.56 12 16 C14.5059375 16.0928125 14.5059375 16.0928125 17.0625 16.1875 C22.85989079 16.7111353 25.75778507 18.03445126 30 22 C31.77364255 25.86484637 30.35000542 29.14690764 29.19921875 33.06640625 C29.00278275 33.74170883 28.80634674 34.41701141 28.60395813 35.11277771 C28.18739625 36.53710709 27.76599372 37.96002851 27.34008789 39.3815918 C26.68968892 41.55518476 26.05558992 43.73303532 25.42382812 45.91210938 C22.29273902 56.56089148 22.29273902 56.56089148 20 60 C17.16272675 60.26667539 14.54616955 60.34791234 11.7109375 60.29296875 C10.89251373 60.28872391 10.07408997 60.28447906 9.23086548 60.28010559 C6.61191164 60.26328679 3.99372198 60.22562974 1.375 60.1875 C-0.3984264 60.17245726 -2.17186484 60.15876814 -3.9453125 60.14648438 C-8.2971703 60.11337292 -12.64845551 60.06156952 -17 60 C-15.06244986 53.06196421 -13.12340327 46.12434787 -11.18334961 39.18701172 C-10.52448179 36.83033568 -9.86594791 34.47356626 -9.20776367 32.11669922 C-8.25789223 28.71556984 -7.30679292 25.31478579 -6.35546875 21.9140625 C-6.0647197 20.87198639 -5.77397064 19.82991028 -5.47441101 18.7562561 C-3.7178057 12.48232734 -1.89051028 6.23492794 0 0 Z M8 29 C5.35968328 35.53792711 3.61191652 42.14078075 2 49 C3.98 49 5.96 49 8 49 C10.64031672 42.46207289 12.38808348 35.85921925 14 29 C12.02 29 10.04 29 8 29 Z " fill="#D0D3D3" transform="translate(83,0)"/>
<path d="M0 0 C-0.76466864 3.45455083 -1.83625565 5.45229655 -4.125 8.1875 C-4.68445313 8.88230469 -5.24390625 9.57710937 -5.8203125 10.29296875 C-8 12 -8 12 -15 13 C-17.97 22.9 -20.94 32.8 -24 43 C-29.28 43 -34.56 43 -40 43 C-38.8976535 38.87450597 -37.7931779 34.74960127 -36.6875 30.625 C-36.37876953 29.46871094 -36.07003906 28.31242187 -35.75195312 27.12109375 C-35.13658145 24.82802454 -34.51546134 22.53648979 -33.88842773 20.24658203 C-33.32526704 18.18862355 -32.77383488 16.12738985 -32.23852539 14.06201172 C-30.55868896 7.89069773 -28.96113511 4.72510044 -23.44921875 1.20703125 C-15.99623529 -1.40109093 -7.78142412 -0.51536361 0 0 Z " fill="#D0D3D3" transform="translate(150,17)"/>
<path d="M0 0 C5.61 0 11.22 0 17 0 C14.375 10.75 14.375 10.75 11 13 C5.30073675 13.64519961 2.48548537 12.50086663 -2 9 C-1.34 6.03 -0.68 3.06 0 0 Z " fill="#D0D3D3" transform="translate(60,0)"/>
</svg>
