<?xml version="1.0" encoding="UTF-8"?>
<svg version="1.1" xmlns="http://www.w3.org/2000/svg" width="58" height="74">
<path d="M0 0 C2.25 0 2.25 0 5 1 C8.23411464 5.32937391 9.54096782 9.59032178 9 15 C9.66386719 15.31453125 10.32773437 15.6290625 11.01171875 15.953125 C19.86127622 20.24225358 25.02161358 24.44536764 30 33 C32.58098065 40.74294196 32.44476297 52.2199937 29 59.6875 C24.80083071 66.56749488 18.76144601 71.64550164 11 74 C8.04996792 74.44671323 5.16813622 74.52526766 2.1875 74.5 C0.9977356 74.49033203 0.9977356 74.49033203 -0.21606445 74.48046875 C-9.0120935 74.20680251 -14.88093814 71.55696858 -20.9375 65.125 C-26.20954137 58.93326591 -27.51066263 52.94411107 -27.4375 45.0625 C-27.4674707 43.92264648 -27.4674707 43.92264648 -27.49804688 42.75976562 C-27.49090136 34.39236401 -23.88038639 27.88038639 -18 22 C-12.86193242 18.41980225 -8.25165077 16.39904154 -2 16 C-2.33 15.46375 -2.66 14.9275 -3 14.375 C-4.29617187 11.29659181 -4.39874003 9.32283362 -4 6 C-2 2.625 -2 2.625 0 0 Z " fill="#17140B" transform="translate(27,0)"/>
<path d="M0 0 C3.66986972 1.45087873 4.40049969 3.41376436 5.97265625 6.91796875 C6.90291251 9.70873754 6.97886782 12.14882176 6.6875 15.0625 C7.35136719 15.37703125 8.01523437 15.6915625 8.69921875 16.015625 C17.54877622 20.30475358 22.70911358 24.50786764 27.6875 33.0625 C30.26848065 40.80544196 30.13226297 52.2824937 26.6875 59.75 C22.48833071 66.62999488 16.44894601 71.70800164 8.6875 74.0625 C5.73746792 74.50921323 2.85563622 74.58776766 -0.125 74.5625 C-1.3147644 74.55283203 -1.3147644 74.55283203 -2.52856445 74.54296875 C-11.3245935 74.26930251 -17.19343814 71.61946858 -23.25 65.1875 C-28.52204137 58.99576591 -29.82316263 53.00661107 -29.75 45.125 C-29.7799707 43.98514648 -29.7799707 43.98514648 -29.81054688 42.82226562 C-29.80340136 34.45486401 -26.19288639 27.94288639 -20.3125 22.0625 C-15.81156091 19.02908022 -11.69571561 16.94390678 -6.3125 16.0625 C-6.3125 16.7225 -6.3125 17.3825 -6.3125 18.0625 C-7.02535156 18.4028125 -7.73820312 18.743125 -8.47265625 19.09375 C-15.84904751 22.82662095 -21.63466931 26.82444605 -25.46875 34.32421875 C-27.67097337 41.47124921 -27.7492988 51.42497809 -24.3125 58.125 C-20.38444004 63.95013437 -15.10923205 68.98464192 -8.3125 71.0625 C-0.25041878 71.8772848 7.89244645 72.32385297 14.859375 67.6171875 C20.6891332 62.65940168 25.23032977 57.07406581 26.12109375 49.2578125 C26.14486704 47.90124934 26.14553777 46.54411601 26.125 45.1875 C26.11597656 44.47859619 26.10695312 43.76969238 26.09765625 43.03930664 C25.83299652 35.05448568 23.71538331 30.77085089 18.0625 25.3125 C13.72295757 21.73442445 8.99038587 19.81201767 3.6875 18.0625 C3.6875 18.7225 3.6875 19.3825 3.6875 20.0625 C4.6775 20.10375 5.6675 20.145 6.6875 20.1875 C12.39070316 21.01873609 16.60164873 24.62643173 20.26953125 28.91015625 C24.67944891 34.89595226 25.3639502 40.01919601 25.38671875 47.3203125 C24.1411875 53.98634009 19.67875702 57.69515011 14.6875 62.0625 C14.6875 59.0625 14.6875 59.0625 16.75 56.5625 C17.389375 55.7375 18.02875 54.9125 18.6875 54.0625 C18.3575 53.0725 18.0275 52.0825 17.6875 51.0625 C15.3775 53.0425 13.0675 55.0225 10.6875 57.0625 C10.6875 56.0725 10.6875 55.0825 10.6875 54.0625 C11.6775 53.258125 12.6675 52.45375 13.6875 51.625 C14.6775 50.779375 15.6675 49.93375 16.6875 49.0625 C16.6875 47.7425 16.6875 46.4225 16.6875 45.0625 C16.06875 45.5575 15.45 46.0525 14.8125 46.5625 C12.6875 48.0625 12.6875 48.0625 10.6875 48.0625 C10.72875 48.84625 10.77 49.63 10.8125 50.4375 C10.6875 53.0625 10.6875 53.0625 8.6875 55.0625 C7.02083333 55.0625 5.35416667 55.0625 3.6875 55.0625 C3.0275 55.7225 2.3675 56.3825 1.6875 57.0625 C-0.9375 56.6875 -0.9375 56.6875 -3.3125 56.0625 C-2.3225 55.5675 -2.3225 55.5675 -1.3125 55.0625 C-1.3125 54.4025 -1.3125 53.7425 -1.3125 53.0625 C-0.6525 53.0625 0.0075 53.0625 0.6875 53.0625 C1.3475 51.7425 2.0075 50.4225 2.6875 49.0625 C2.6875 49.7225 2.6875 50.3825 2.6875 51.0625 C7.71462864 49.77649035 10.2311849 47.89247078 13.6875 44.0625 C14.265 43.546875 14.8425 43.03125 15.4375 42.5 C16.95676673 40.75284327 17.19427185 39.29572746 17.6875 37.0625 C15.76885229 37.31892304 13.85259006 37.59323436 11.9375 37.875 C10.87015625 38.02582031 9.8028125 38.17664062 8.703125 38.33203125 C5.60285586 39.08300318 4.12517441 40.09172982 1.6875 42.0625 C-1.49766508 41.89032891 -3.70914921 40.88288526 -6.625 39.5625 C-10.7053216 37.90270816 -13.95227575 37.44497581 -18.3125 37.0625 C-16.95967831 41.48991644 -15.07951112 43.42559221 -11.3125 46.0625 C-10.6525 46.3925 -9.9925 46.7225 -9.3125 47.0625 C-9.3125 48.0525 -9.3125 49.0425 -9.3125 50.0625 C-7.0025 50.7225 -4.6925 51.3825 -2.3125 52.0625 C-3.3025 52.5575 -3.3025 52.5575 -4.3125 53.0625 C-4.3125 53.7225 -4.3125 54.3825 -4.3125 55.0625 C-6.6875 55.1875 -6.6875 55.1875 -9.3125 55.0625 C-11.3125 53.0625 -11.3125 53.0625 -11.4375 50.4375 C-11.39625 49.65375 -11.355 48.87 -11.3125 48.0625 C-12.116875 47.753125 -12.92125 47.44375 -13.75 47.125 C-16.3125 46.0625 -16.3125 46.0625 -17.3125 45.0625 C-17.15768205 47.77181419 -16.83077919 49.52834039 -14.91015625 51.5078125 C-13.41478292 52.73929642 -11.8662076 53.9054837 -10.3125 55.0625 C-10.6425 55.7225 -10.9725 56.3825 -11.3125 57.0625 C-15.7675 53.5975 -15.7675 53.5975 -20.3125 50.0625 C-18.21658851 55.66582217 -18.21658851 55.66582217 -14.3125 60.0625 C-14.6425 60.7225 -14.9725 61.3825 -15.3125 62.0625 C-24.74372227 53.50703409 -24.74372227 53.50703409 -26.046875 47.90625 C-26.0622433 44.86332635 -25.81656898 42.0610642 -25.3125 39.0625 C-25.126875 37.825 -24.94125 36.5875 -24.75 35.3125 C-22.1368765 29.4045686 -17.42957559 23.54239551 -11.3125 21.0625 C-9 21.375 -9 21.375 -7.3125 22.0625 C-7.68173077 29.44711538 -7.68173077 29.44711538 -10.875 32.5625 C-11.679375 33.0575 -12.48375 33.5525 -13.3125 34.0625 C-11.75229133 34.71384925 -10.18921421 35.35832964 -8.625 36 C-7.75488281 36.35964844 -6.88476562 36.71929687 -5.98828125 37.08984375 C-1.14666899 38.96208211 -1.14666899 38.96208211 3.8203125 38.3203125 C4.47773437 37.94648437 5.13515625 37.57265625 5.8125 37.1875 C8.15369252 35.88481311 10.12135131 34.9178829 12.6875 34.0625 C11.945 33.340625 11.2025 32.61875 10.4375 31.875 C4.70835858 26.01565082 2.63368465 22.08981882 2.70703125 13.875 C2.72121094 13.17375 2.73539063 12.4725 2.75 11.75 C3.01827475 7.97309877 3.01827475 7.97309877 0.6875 5.0625 C0.6875 4.0725 0.6875 3.0825 0.6875 2.0625 C-0.6325 1.7325 -1.9525 1.4025 -3.3125 1.0625 C-2.3125 0.0625 -2.3125 0.0625 0 0 Z " fill="#D7B15F" transform="translate(29.3125,-0.0625)"/>
<path d="M0 0 C1.65 0 3.3 0 5 0 C7.91765493 4.25491344 8.14153622 7.33982523 8 12.5 C7.82472658 20.21203056 10.00369494 24.22302227 15 30 C15.99400855 31.00595577 16.99287269 32.00717848 18 33 C16.27255984 33.65043719 14.5429631 34.29514844 12.8125 34.9375 C11.36810547 35.47697266 11.36810547 35.47697266 9.89453125 36.02734375 C3.01050651 38.34059903 3.01050651 38.34059903 -0.09765625 37.29296875 C-0.74605469 36.92816406 -1.39445312 36.56335937 -2.0625 36.1875 C-3.03896484 35.65189453 -3.03896484 35.65189453 -4.03515625 35.10546875 C-4.68355469 34.74066406 -5.33195312 34.37585937 -6 34 C-7.33007915 33.32686429 -8.66252245 32.65831301 -10 32 C-9.195625 31.505 -8.39125 31.01 -7.5625 30.5 C-4.01911662 27.04304061 -4.2426059 24.85211791 -4 20 C-9.32482135 20.32271645 -12.42655046 23.34694391 -16 27 C-20.09222505 32.59270757 -20.61597262 39.04495368 -20.6328125 45.83984375 C-19.47415196 51.62599422 -15.26394699 55.17598405 -11 59 C-11.3609375 58.54109375 -11.721875 58.0821875 -12.09375 57.609375 C-12.5578125 56.99578125 -13.021875 56.3821875 -13.5 55.75 C-13.9640625 55.14671875 -14.428125 54.5434375 -14.90625 53.921875 C-16 52 -16 52 -16 48 C-12.50587958 49.55294241 -9.64222343 51.21098638 -7 54 C-6.5654645 56.80033987 -6.76186276 59.14235311 -7 62 C-6.34 62 -5.68 62 -5 62 C-4.896875 61.360625 -4.79375 60.72125 -4.6875 60.0625 C-4.460625 59.381875 -4.23375 58.70125 -4 58 C-2.515 57.505 -2.515 57.505 -1 57 C-1.33 59.64 -1.66 62.28 -2 65 C-0.68 65.99 0.64 66.98 2 68 C1.34 68 0.68 68 0 68 C0 68.66 0 69.32 0 70 C-7.21095129 69.6995437 -11.49786821 66.52023066 -16.51171875 61.48046875 C-21.48029548 55.82554208 -23.54991505 50.60901007 -23.4375 43.125 C-23.42920166 42.41609619 -23.42090332 41.70719238 -23.41235352 40.97680664 C-23.1330789 32.34115837 -20.11321846 27.36819972 -13.94140625 21.54296875 C-10.5781013 18.86991955 -6.41718646 16 -2 16 C-2 15.34 -2 14.68 -2 14 C-1.34 14 -0.68 14 0 14 C-0.33 13.46375 -0.66 12.9275 -1 12.375 C-2.25941162 9.3838974 -2.26855835 7.22270017 -2 4 C-1 1.625 -1 1.625 0 0 Z " fill="#0D0A04" transform="translate(25,2)"/>
<path d="M0 0 C3.66986972 1.45087873 4.40049969 3.41376436 5.97265625 6.91796875 C6.90291251 9.70873754 6.97886782 12.14882176 6.6875 15.0625 C7.35136719 15.37703125 8.01523437 15.6915625 8.69921875 16.015625 C17.54877622 20.30475358 22.70911358 24.50786764 27.6875 33.0625 C30.26848065 40.80544196 30.13226297 52.2824937 26.6875 59.75 C22.48833071 66.62999488 16.44894601 71.70800164 8.6875 74.0625 C5.73746792 74.50921323 2.85563622 74.58776766 -0.125 74.5625 C-1.3147644 74.55283203 -1.3147644 74.55283203 -2.52856445 74.54296875 C-11.3245935 74.26930251 -17.19343814 71.61946858 -23.25 65.1875 C-28.52204137 58.99576591 -29.82316263 53.00661107 -29.75 45.125 C-29.7799707 43.98514648 -29.7799707 43.98514648 -29.81054688 42.82226562 C-29.80340136 34.45486401 -26.19288639 27.94288639 -20.3125 22.0625 C-15.81156091 19.02908022 -11.69571561 16.94390678 -6.3125 16.0625 C-6.3125 16.7225 -6.3125 17.3825 -6.3125 18.0625 C-7.02535156 18.4028125 -7.73820312 18.743125 -8.47265625 19.09375 C-15.84904751 22.82662095 -21.63466931 26.82444605 -25.46875 34.32421875 C-27.67097337 41.47124921 -27.7492988 51.42497809 -24.3125 58.125 C-20.38444004 63.95013437 -15.10923205 68.98464192 -8.3125 71.0625 C-0.25041878 71.8772848 7.89244645 72.32385297 14.859375 67.6171875 C20.6891332 62.65940168 25.23032977 57.07406581 26.12109375 49.2578125 C26.14486704 47.90124934 26.14553777 46.54411601 26.125 45.1875 C26.11597656 44.47859619 26.10695312 43.76969238 26.09765625 43.03930664 C25.83299652 35.05448568 23.71538331 30.77085089 18.0625 25.3125 C13.72295757 21.73442445 8.99038587 19.81201767 3.6875 18.0625 C3.6875 18.7225 3.6875 19.3825 3.6875 20.0625 C4.6775 20.10375 5.6675 20.145 6.6875 20.1875 C11.53590909 20.87023516 15.33658283 23.57264236 18.6875 27.0625 C19.91549066 30.36471324 19.53583919 32.66914325 18.6875 36.0625 C17.3675 36.0625 16.0475 36.0625 14.6875 36.0625 C14.6875 35.4025 14.6875 34.7425 14.6875 34.0625 C13.98625 33.8975 13.285 33.7325 12.5625 33.5625 C8.32249809 31.35032509 5.98995631 28.21278749 3.6875 24.0625 C2.47893842 19.99733832 2.68087271 15.95140293 2.75 11.75 C3.01827475 7.97309877 3.01827475 7.97309877 0.6875 5.0625 C0.6875 4.0725 0.6875 3.0825 0.6875 2.0625 C-0.6325 1.7325 -1.9525 1.4025 -3.3125 1.0625 C-2.3125 0.0625 -2.3125 0.0625 0 0 Z " fill="#E5C06F" transform="translate(29.3125,-0.0625)"/>
<path d="M0 0 C-0.79664062 0.35191406 -1.59328125 0.70382813 -2.4140625 1.06640625 C-10.39236497 4.78379049 -15.82998209 7.96950394 -19.375 16.1875 C-21.25252638 25.97422657 -21.25252638 25.97422657 -17.98828125 34.99609375 C-15.7551444 37.46761884 -13.4789086 39.77685181 -11 42 C-11.3609375 41.54109375 -11.721875 41.0821875 -12.09375 40.609375 C-12.5578125 39.99578125 -13.021875 39.3821875 -13.5 38.75 C-13.9640625 38.14671875 -14.428125 37.5434375 -14.90625 36.921875 C-16 35 -16 35 -16 31 C-12.50587958 32.55294241 -9.64222343 34.21098638 -7 37 C-6.5654645 39.80033987 -6.76186276 42.14235311 -7 45 C-6.34 45 -5.68 45 -5 45 C-4.896875 44.360625 -4.79375 43.72125 -4.6875 43.0625 C-4.460625 42.381875 -4.23375 41.70125 -4 41 C-2.515 40.505 -2.515 40.505 -1 40 C-1.33 42.64 -1.66 45.28 -2 48 C-0.68 48.99 0.64 49.98 2 51 C1.34 51 0.68 51 0 51 C0 51.66 0 52.32 0 53 C-7.21095129 52.6995437 -11.49786821 49.52023066 -16.51171875 44.48046875 C-21.48029548 38.82554208 -23.54991505 33.60901007 -23.4375 26.125 C-23.42920166 25.41609619 -23.42090332 24.70719238 -23.41235352 23.97680664 C-23.13342526 15.35186848 -20.12206575 10.34939929 -13.93359375 4.546875 C-9.60167157 1.08133726 -5.5596955 -1.87377764 0 0 Z " fill="#171209" transform="translate(25,19)"/>
<path d="M0 0 C4.84033175 -0.34573798 7.90509474 -0.31117606 12.1875 2.0625 C15.20037577 3.72947589 15.20037577 3.72947589 18.625 3.9375 C21.12032795 3.01667723 21.12032795 3.01667723 23.75 1.4375 C27.95569988 -0.42271341 31.47543999 -0.2714736 36 0 C35.77938101 3.86083225 35.11427194 4.89588557 32.1875 7.5625 C31.64609375 7.96984375 31.1046875 8.3771875 30.546875 8.796875 C28.80974539 10.07331376 28.80974539 10.07331376 26.9375 12.3125 C25 14 25 14 22.4375 14.1875 C21.633125 14.125625 20.82875 14.06375 20 14 C19.01 14.33 18.02 14.66 17 15 C16.896875 13.906875 16.79375 12.81375 16.6875 11.6875 C16.27914102 8.13416569 16.27914102 8.13416569 14.6875 6.0625 C12.76820011 4.64479115 12.76820011 4.64479115 9 5 C8.67 5.99 8.34 6.98 8 8 C8.78375 8.28875 9.5675 8.5775 10.375 8.875 C13 10 13 10 15 12 C14 13 14 13 11.4375 13.0625 C10.633125 13.041875 9.82875 13.02125 9 13 C9 12.01 9 11.02 9 10 C8.2575 9.7525 7.515 9.505 6.75 9.25 C3.72742651 7.87610296 2.06022838 6.59436166 0 4 C0 2.68 0 1.36 0 0 Z " fill="#161107" transform="translate(11,37)"/>
<path d="M0 0 C4.97424561 5.93700283 5.67530527 10.58955817 5.69921875 18.2578125 C4.4536875 24.92384009 -0.00874298 28.63265011 -5 33 C-5 30 -5 30 -2.9375 27.5 C-2.298125 26.675 -1.65875 25.85 -1 25 C-1.33 24.01 -1.66 23.02 -2 22 C-4.31 23.98 -6.62 25.96 -9 28 C-9 27.01 -9 26.02 -9 25 C-8.01 24.195625 -7.02 23.39125 -6 22.5625 C-5.01 21.716875 -4.02 20.87125 -3 20 C-3 18.68 -3 17.36 -3 16 C-3.61875 16.495 -4.2375 16.99 -4.875 17.5 C-7 19 -7 19 -9 19 C-8.938125 20.175625 -8.938125 20.175625 -8.875 21.375 C-9 24 -9 24 -11 26 C-12.66666667 26 -14.33333333 26 -16 26 C-16.66 26.66 -17.32 27.32 -18 28 C-20.625 27.625 -20.625 27.625 -23 27 C-22.34 26.67 -21.68 26.34 -21 26 C-21 25.34 -21 24.68 -21 24 C-20.34 24 -19.68 24 -19 24 C-18.34 22.68 -17.68 21.36 -17 20 C-17 20.66 -17 21.32 -17 22 C-11.97287136 20.71399035 -9.4563151 18.82997078 -6 15 C-5.49210937 14.57976563 -4.98421875 14.15953125 -4.4609375 13.7265625 C-2.39685292 11.28718982 -2.01153899 8.90824409 -1.3125 5.8125 C-1.06113281 4.72582031 -0.80976562 3.63914063 -0.55078125 2.51953125 C-0.36902344 1.68808594 -0.18726562 0.85664063 0 0 Z " fill="#DBB86A" transform="translate(49,29)"/>
<path d="M0 0 C3.66986972 1.45087873 4.40049969 3.41376436 5.97265625 6.91796875 C6.90291251 9.70873754 6.97886782 12.14882176 6.6875 15.0625 C7.39777344 15.38863281 8.10804687 15.71476563 8.83984375 16.05078125 C9.75894531 16.48777344 10.67804687 16.92476562 11.625 17.375 C12.54152344 17.80425781 13.45804688 18.23351562 14.40234375 18.67578125 C16.6875 20.0625 16.6875 20.0625 17.6875 23.0625 C12.96525484 21.52777032 8.32894669 19.82304874 3.6875 18.0625 C3.6875 18.7225 3.6875 19.3825 3.6875 20.0625 C4.6775 20.10375 5.6675 20.145 6.6875 20.1875 C11.53590909 20.87023516 15.33658283 23.57264236 18.6875 27.0625 C19.91549066 30.36471324 19.53583919 32.66914325 18.6875 36.0625 C17.3675 36.0625 16.0475 36.0625 14.6875 36.0625 C14.6875 35.4025 14.6875 34.7425 14.6875 34.0625 C13.98625 33.8975 13.285 33.7325 12.5625 33.5625 C8.32249809 31.35032509 5.98995631 28.21278749 3.6875 24.0625 C2.47893842 19.99733832 2.68087271 15.95140293 2.75 11.75 C3.01827475 7.97309877 3.01827475 7.97309877 0.6875 5.0625 C0.6875 4.0725 0.6875 3.0825 0.6875 2.0625 C-0.6325 1.7325 -1.9525 1.4025 -3.3125 1.0625 C-2.3125 0.0625 -2.3125 0.0625 0 0 Z " fill="#EBCB79" transform="translate(29.3125,-0.0625)"/>
<path d="M0 0 C1.65 0 3.3 0 5 0 C8.11647527 5.06427231 8.5729774 9.21513205 8 15 C7.67 15.99 7.34 16.98 7 18 C5.02 18 3.04 18 1 18 C0.731875 18.928125 0.46375 19.85625 0.1875 20.8125 C-0.91148371 23.76240366 -1.62418561 25.05615186 -4 27 C-3.979375 25.88625 -3.95875 24.7725 -3.9375 23.625 C-3.73619282 20.16784079 -3.73619282 20.16784079 -5 18 C-3.68 17.67 -2.36 17.34 -1 17 C-1.33 16.01 -1.66 15.02 -2 14 C-1.34 14 -0.68 14 0 14 C-0.495 13.195625 -0.495 13.195625 -1 12.375 C-2.25941162 9.3838974 -2.26855835 7.22270017 -2 4 C-1 1.625 -1 1.625 0 0 Z " fill="#E0AE3F" transform="translate(25,2)"/>
<path d="M0 0 C2.59094622 0.35012787 4.5774211 0.73770965 6.8125 2.125 C8.63883169 5.00868162 8.18806842 7.67745793 8 11 C8.66 11.33 9.32 11.66 10 12 C9.34 12 8.68 12 8 12 C7.773125 12.94875 7.54625 13.8975 7.3125 14.875 C6 18 6 18 3.4375 19.1875 C2.633125 19.455625 1.82875 19.72375 1 20 C0.67 20.99 0.34 21.98 0 23 C-0.66 23 -1.32 23 -2 23 C-1.91878906 22.41992188 -1.83757813 21.83984375 -1.75390625 21.2421875 C-1.54603304 18.67134737 -1.50488548 16.53798201 -2 14 C-3.66123444 12.12642732 -5.4139137 10.81200985 -7.44140625 9.3515625 C-9 8 -9 8 -9.4375 5.125 C-9.293125 4.42375 -9.14875 3.7225 -9 3 C-2.35384615 6.2 -2.35384615 6.2 -0.5625 10.25 C-0.376875 11.1575 -0.19125 12.065 0 13 C1.65 13.33 3.3 13.66 5 14 C5 13.01 5 12.02 5 11 C4.01 10.34 3.02 9.68 2 9 C2.99 8.67 3.98 8.34 5 8 C3.02 6.68 1.04 5.36 -1 4 C-0.67 2.68 -0.34 1.36 0 0 Z " fill="#6F5621" transform="translate(20,41)"/>
<path d="M0 0 C0 0.66 0 1.32 0 2 C-0.71285156 2.3403125 -1.42570312 2.680625 -2.16015625 3.03125 C-9.53654751 6.76412095 -15.32216931 10.76194605 -19.15625 18.26171875 C-20.23601217 21.76594689 -20.42339561 25.11363195 -20.4375 28.75 C-20.44209229 29.45866211 -20.44668457 30.16732422 -20.45141602 30.89746094 C-20.33673265 36.31547527 -19.18655896 39.88000141 -15.99609375 44.203125 C-15 46 -15 46 -15.34765625 48.234375 C-15.56292969 48.81703125 -15.77820313 49.3996875 -16 50 C-16.9834496 48.56542672 -17.96160921 47.12722594 -18.9375 45.6875 C-19.75541016 44.48673828 -19.75541016 44.48673828 -20.58984375 43.26171875 C-23.37920468 38.7879238 -23.25052977 34.42297795 -23.3125 29.3125 C-23.34150391 28.53455078 -23.37050781 27.75660156 -23.40039062 26.95507812 C-23.48042086 19.57382776 -20.91870451 14.79582657 -16.8125 8.8125 C-13.27076479 5.27076479 -9.46101872 3.19983438 -5 1 C-3 0 -3 0 0 0 Z " fill="#E5C071" transform="translate(23,16)"/>
<path d="M0 0 C1.3303125 0.00773437 1.3303125 0.00773437 2.6875 0.015625 C3.574375 0.01046875 4.46125 0.0053125 5.375 0 C7.6875 0.265625 7.6875 0.265625 9.6875 2.265625 C9.9375 4.765625 9.9375 4.765625 9.6875 7.265625 C9.0275 7.925625 8.3675 8.585625 7.6875 9.265625 C6.3675 9.265625 5.0475 9.265625 3.6875 9.265625 C3.6875 8.275625 3.6875 7.285625 3.6875 6.265625 C3.0275 6.265625 2.3675 6.265625 1.6875 6.265625 C1.6875 7.255625 1.6875 8.245625 1.6875 9.265625 C-3.1875 8.390625 -3.1875 8.390625 -4.3125 7.265625 C-4.5 4.828125 -4.5 4.828125 -4.3125 2.265625 C-2.3125 0.265625 -2.3125 0.265625 0 0 Z " fill="#BF9333" transform="translate(26.3125,59.734375)"/>
<path d="M0 0 C4.92127034 -0.16682272 8.50343896 -0.24828052 13 2 C12.360625 2.433125 11.72125 2.86625 11.0625 3.3125 C8.73253997 4.91239177 8.73253997 4.91239177 8 8 C8.78375 8.28875 9.5675 8.5775 10.375 8.875 C13 10 13 10 15 12 C14 13 14 13 11.4375 13.0625 C10.633125 13.041875 9.82875 13.02125 9 13 C9 12.01 9 11.02 9 10 C8.2575 9.7525 7.515 9.505 6.75 9.25 C3.72742651 7.87610296 2.06022838 6.59436166 0 4 C0 2.68 0 1.36 0 0 Z " fill="#080602" transform="translate(11,37)"/>
<path d="M0 0 C0.66 0 1.32 0 2 0 C4.41268915 4.22220601 5.51827481 7.12821675 5 12 C4 14.875 4 14.875 3 17 C1.68 17 0.36 17 -1 17 C-0.67 15.02 -0.34 13.04 0 11 C-0.66 11 -1.32 11 -2 11 C-2.92817192 7.37169157 -3.26901295 5.58926645 -1.6875 2.125 C-0.8521875 1.073125 -0.8521875 1.073125 0 0 Z " fill="#171207" transform="translate(28,2)"/>
<path d="M0 0 C0.4375 2.125 0.4375 2.125 0 5 C-1.5234375 6.421875 -1.5234375 6.421875 -3.4375 7.875 C-6.58348375 10.31060033 -6.93817544 10.74445848 -7.9375 14.875 C-7.958125 15.90625 -7.97875 16.9375 -8 18 C-10.64 16.68 -13.28 15.36 -16 14 C-15.34 12.68 -14.68 11.36 -14 10 C-12.35 10 -10.7 10 -9 10 C-8.79375 9.0925 -8.5875 8.185 -8.375 7.25 C-6.97442826 3.9395577 -4.11249613 0 0 0 Z " fill="#493D21" transform="translate(47,44)"/>
<path d="M0 0 C6.33561644 2.2260274 6.33561644 2.2260274 8 5 C7.9398132 7.76312116 7.49362014 10.26265195 7 13 C5.68 13 4.36 13 3 13 C3 12.34 3 11.68 3 11 C2.01 10.67 1.02 10.34 0 10 C0 6.7 0 3.4 0 0 Z " fill="#F3D487" transform="translate(41,23)"/>
<path d="M0 0 C1.21816406 0.03480469 1.21816406 0.03480469 2.4609375 0.0703125 C3.68683594 0.09738281 3.68683594 0.09738281 4.9375 0.125 C5.87722656 0.15980469 5.87722656 0.15980469 6.8359375 0.1953125 C6.35948542 4.48338123 5.17691266 6.46178737 1.8359375 9.1953125 C1.1759375 9.1953125 0.5159375 9.1953125 -0.1640625 9.1953125 C-0.4528125 8.2259375 -0.7415625 7.2565625 -1.0390625 6.2578125 C-1.80620932 3.08867047 -1.80620932 3.08867047 -4.1640625 2.1953125 C-2.1640625 0.1953125 -2.1640625 0.1953125 0 0 Z " fill="#090704" transform="translate(40.1640625,36.8046875)"/>
<path d="M0 0 C0.77923828 0.61488281 0.77923828 0.61488281 1.57421875 1.2421875 C2.27160156 1.78101562 2.96898437 2.31984375 3.6875 2.875 C4.37199219 3.40867187 5.05648438 3.94234375 5.76171875 4.4921875 C9.98541409 7.33746918 13.76859838 8.26038061 18.8125 8.625 C20.27623047 8.73714844 20.27623047 8.73714844 21.76953125 8.8515625 C22.50558594 8.90054688 23.24164062 8.94953125 24 9 C19.90746947 11.72835369 16.80800473 11.74252061 12 11 C7.55983006 9.29856736 3.3830144 7.3830144 0 4 C0 2.68 0 1.36 0 0 Z " fill="#DEB662" transform="translate(8,63)"/>
<path d="M0 0 C0.33 0.66 0.66 1.32 1 2 C3.31 1.34 5.62 0.68 8 0 C8.042721 1.66611905 8.04063832 3.33382885 8 5 C7.67 5.33 7.34 5.66 7 6 C5.7934375 5.9690625 5.7934375 5.9690625 4.5625 5.9375 C1.83081897 5.70941092 1.83081897 5.70941092 0 8 C-2.625 7.625 -2.625 7.625 -5 7 C-4.34 6.67 -3.68 6.34 -3 6 C-3 5.34 -3 4.68 -3 4 C-2.34 4 -1.68 4 -1 4 C-0.67 2.68 -0.34 1.36 0 0 Z " fill="#E8C269" transform="translate(31,49)"/>
<path d="M0 0 C0.66 0.33 1.32 0.66 2 1 C-4.057521 6.74284458 -9.22401164 11.1330407 -17.9375 11.1875 C-19.29227589 11.14000368 -20.64692538 11.0828413 -22 11 C-19.38988587 9.25992391 -17.73080772 8.50307489 -14.8125 7.625 C-9.49016059 5.91176329 -4.00720188 4.00720188 0 0 Z " fill="#E3C06D" transform="translate(51,63)"/>
<path d="M0 0 C1.3410477 0.75733274 2.67269781 1.53132736 4 2.3125 C5.11375 2.95638672 5.11375 2.95638672 6.25 3.61328125 C6.8275 4.07089844 7.405 4.52851562 8 5 C8 5.99 8 6.98 8 8 C10.31 8.66 12.62 9.32 15 10 C14.01 10.495 14.01 10.495 13 11 C13 11.66 13 12.32 13 13 C10.625 13.125 10.625 13.125 8 13 C6 11 6 11 5.875 8.375 C5.91625 7.59125 5.9575 6.8075 6 6 C5.21625 5.731875 4.4325 5.46375 3.625 5.1875 C1 4 1 4 -1 1 C-0.67 0.67 -0.34 0.34 0 0 Z " fill="#E5B041" transform="translate(12,42)"/>
<path d="M0 0 C2.625 0.375 2.625 0.375 5 1 C5.625 3.375 5.625 3.375 6 6 C5.34 6.66 4.68 7.32 4 8 C1.375 7.625 1.375 7.625 -1 7 C-1.625 4.625 -1.625 4.625 -2 2 C-1.34 1.34 -0.68 0.68 0 0 Z " fill="#7E642A" transform="translate(27,27)"/>
<path d="M0 0 C0.33 0 0.66 0 1 0 C2.88565178 13.44551705 2.88565178 13.44551705 -0.67578125 19.34375 C-2.83063981 22.03891233 -5.21105376 23.97167546 -8 26 C-8.66 25.67 -9.32 25.34 -10 25 C-9.60167969 24.56429687 -9.20335937 24.12859375 -8.79296875 23.6796875 C-2.02452427 16.07136305 -0.474359 10.10875378 0 0 Z " fill="#BD984B" transform="translate(56,41)"/>
<path d="M0 0 C0.33 0 0.66 0 1 0 C1.01417969 0.83402344 1.02835937 1.66804688 1.04296875 2.52734375 C1.33712023 9.46772871 2.03940721 14.34124628 6.0390625 20.09765625 C7 22 7 22 6.6484375 24.24609375 C6.43445313 24.82488281 6.22046875 25.40367188 6 26 C-0.65247145 16.84522277 -1.28667909 11.12482537 0 0 Z " fill="#DEC079" transform="translate(1,40)"/>
<path d="M0 0 C2.625 0.375 2.625 0.375 5 1 C5.33 2.32 5.66 3.64 6 5 C3.03 5.66 0.06 6.32 -3 7 C-2.25 2.25 -2.25 2.25 0 0 Z " fill="#D4B15F" transform="translate(34,41)"/>
<path d="M0 0 C1.32 0.33 2.64 0.66 4 1 C4.125 3.375 4.125 3.375 4 6 C3.34 6.66 2.68 7.32 2 8 C0.68 8 -0.64 8 -2 8 C-1.67 6.68 -1.34 5.36 -1 4 C-2.32 4 -3.64 4 -5 4 C-5 3.34 -5 2.68 -5 2 C-3.35 1.67 -1.7 1.34 0 1 C0 0.67 0 0.34 0 0 Z " fill="#D1AB52" transform="translate(32,61)"/>
<path d="M0 0 C0.66 0.33 1.32 0.66 2 1 C1.67 1.99 1.34 2.98 1 4 C-0.98 4 -2.96 4 -5 4 C-5.268125 4.928125 -5.53625 5.85625 -5.8125 6.8125 C-6.91148371 9.76240366 -7.62418561 11.05615186 -10 13 C-9.979375 11.88625 -9.95875 10.7725 -9.9375 9.625 C-9.73619282 6.16784079 -9.73619282 6.16784079 -11 4 C-10.21625 3.690625 -9.4325 3.38125 -8.625 3.0625 C-6.07669872 2.07124962 -6.07669872 2.07124962 -4 1 C-4 1.66 -4 2.32 -4 3 C-2.68 3 -1.36 3 0 3 C0 2.01 0 1.02 0 0 Z " fill="#D6A439" transform="translate(31,16)"/>
<path d="M0 0 C3.24915144 1.3601099 3.6122552 2.27747493 5.125 5.375 C6.38070183 8.54199097 6.77033644 9.72738509 6.0625 13.125 C4.6875 15.125 4.6875 15.125 2.6875 16.125 C2.75260417 14.13932292 2.81770833 12.15364583 2.8828125 10.16796875 C2.82004462 7.81140281 2.82004462 7.81140281 0.6875 5.125 C0.6875 4.135 0.6875 3.145 0.6875 2.125 C-0.6325 1.795 -1.9525 1.465 -3.3125 1.125 C-2.3125 0.125 -2.3125 0.125 0 0 Z " fill="#E7C066" transform="translate(29.3125,-0.125)"/>
<path d="M0 0 C0.33 0 0.66 0 1 0 C1 1.65 1 3.3 1 5 C1.71027344 5.32613281 2.42054687 5.65226563 3.15234375 5.98828125 C4.07144531 6.42527344 4.99054687 6.86226562 5.9375 7.3125 C6.85402344 7.74175781 7.77054688 8.17101563 8.71484375 8.61328125 C11 10 11 10 12 13 C7.52050867 11.57967348 3.21793246 10.06761395 -1 8 C-2.2077558 4.37673261 -1.54311128 3.35853631 0 0 Z " fill="#EFCF7F" transform="translate(35,10)"/>
<path d="M0 0 C4.75 0.75 4.75 0.75 7 3 C7 4.32 7 5.64 7 7 C3.62537285 6.45276317 1.91765 5.9451 -1 4 C-0.67 2.68 -0.34 1.36 0 0 Z " fill="#D9A73C" transform="translate(20,41)"/>
<path d="M0 0 C0.375 2.1875 0.375 2.1875 0 5 C-1.83386125 7.03762361 -3.74331791 8.38808422 -6 10 C-6.33 10 -6.66 10 -7 10 C-7.375 7.25 -7.375 7.25 -7 4 C-2.05263158 0 -2.05263158 0 0 0 Z " fill="#120F0A" transform="translate(47,44)"/>
<path d="M0 0 C3.465 1.98 3.465 1.98 7 4 C7 5.98 7 7.96 7 10 C4.37098712 8.47793991 2.15634036 7.15634036 0 5 C-0.125 2.375 -0.125 2.375 0 0 Z " fill="#110E07" transform="translate(11,44)"/>
<path d="M0 0 C1.24056696 3.72170087 0.19683669 5.10043622 -1.23046875 8.59375 C-2.62161486 12.94372971 -2.7581045 17.46237412 -3 22 C-3.33 22 -3.66 22 -4 22 C-4.0816082 19.62429457 -4.14077222 17.25144159 -4.1875 14.875 C-4.22520508 13.87726562 -4.22520508 13.87726562 -4.26367188 12.859375 C-4.33325581 8.1276675 -3.43536103 5.03644221 -1 1 C-0.67 0.67 -0.34 0.34 0 0 Z " fill="#F5D990" transform="translate(4,29)"/>
<path d="M0 0 C0.33 0.99 0.66 1.98 1 3 C1.7425 2.649375 2.485 2.29875 3.25 1.9375 C6.1322726 0.95490707 7.21176345 0.9673198 10 2 C8.375 4 8.375 4 6 6 C2.75 6.25 2.75 6.25 0 6 C0 4.02 0 2.04 0 0 Z " fill="#372E18" transform="translate(30,45)"/>
<path d="M0 0 C0.66 0 1.32 0 2 0 C2.33 0.99 2.66 1.98 3 3 C3.66 3.33 4.32 3.66 5 4 C5 4.66 5 5.32 5 6 C2.36 6 -0.28 6 -3 6 C-3 5.34 -3 4.68 -3 4 C-2.34 3.67 -1.68 3.34 -1 3 C-0.67 2.01 -0.34 1.02 0 0 Z " fill="#020200" transform="translate(28,66)"/>
<path d="M0 0 C0.33 0 0.66 0 1 0 C1.19622241 4.21878192 0.80230168 7.17010894 -1 11 C-2.32 11 -3.64 11 -5 11 C-4.67 9.35 -4.34 7.7 -4 6 C-3.01 6.33 -2.02 6.66 -1 7 C-0.67 4.69 -0.34 2.38 0 0 Z " fill="#403418" transform="translate(32,8)"/>
<path d="M0 0 C0.66 0.33 1.32 0.66 2 1 C0.75803878 2.15454162 -0.49392845 3.29832562 -1.75 4.4375 C-2.79414062 5.39462891 -2.79414062 5.39462891 -3.859375 6.37109375 C-5.98792725 7.99081325 -7.39023405 8.58267256 -10 9 C-8.88949074 5.77952314 -8.07599671 5.04116489 -5 3.375 C-3.515 2.694375 -3.515 2.694375 -2 2 C-1.34 1.34 -0.68 0.68 0 0 Z " fill="#F0D28A" transform="translate(51,63)"/>
<path d="M0 0 C0.33 0 0.66 0 1 0 C1 2.31 1 4.62 1 7 C1.66 7.33 2.32 7.66 3 8 C2.34 8 1.68 8 1 8 C1 8.66 1 9.32 1 10 C0.01 9.67 -0.98 9.34 -2 9 C-2 8.34 -2 7.68 -2 7 C-2.99 6.34 -3.98 5.68 -5 5 C-4.360625 4.731875 -3.72125 4.46375 -3.0625 4.1875 C-0.66868314 3.11332248 -0.66868314 3.11332248 0 0 Z " fill="#8E6F2A" transform="translate(27,45)"/>
<path d="M0 0 C4.29 0.33 8.58 0.66 13 1 C9.79619983 3.13586678 8.98060033 3.23132175 5.3125 3.125 C4.50425781 3.10695313 3.69601563 3.08890625 2.86328125 3.0703125 C1.94095703 3.03550781 1.94095703 3.03550781 1 3 C0.67 2.01 0.34 1.02 0 0 Z " fill="#CC9F3E" transform="translate(19,71)"/>
<path d="M0 0 C3.3 0 6.6 0 10 0 C9.67 0.99 9.34 1.98 9 3 C6.36 3 3.72 3 1 3 C0.67 2.01 0.34 1.02 0 0 Z " fill="#7F662B" transform="translate(24,60)"/>
<path d="M0 0 C0.33 0 0.66 0 1 0 C1.33 5.61 1.66 11.22 2 17 C1.34 17 0.68 17 0 17 C-1.40333568 11.23073111 -0.67296616 5.81856895 0 0 Z " fill="#C8B074" transform="translate(1,40)"/>
<path d="M0 0 C0.66 0.33 1.32 0.66 2 1 C-2.625 5.875 -2.625 5.875 -6 7 C-6 8.65 -6 10.3 -6 12 C-6.33 12 -6.66 12 -7 12 C-7.4375 9.375 -7.4375 9.375 -7 6 C-4.9050512 3.66877878 -2.53926173 1.82671379 0 0 Z " fill="#BCA467" transform="translate(46,41)"/>
<path d="M0 0 C0.33 0.66 0.66 1.32 1 2 C2.66072849 2.68132451 4.327767 3.34742127 6 4 C6.66 4.66 7.32 5.32 8 6 C7 7 7 7 4.4375 7.0625 C3.2309375 7.0315625 3.2309375 7.0315625 2 7 C2 6.01 2 5.02 2 4 C1.34 4 0.68 4 0 4 C0 2.68 0 1.36 0 0 Z " fill="#261D0C" transform="translate(18,43)"/>
<path d="M0 0 C2.64 1.65 5.28 3.3 8 5 C7.67 6.98 7.34 8.96 7 11 C6.67 11 6.34 11 6 11 C6 9.35 6 7.7 6 6 C5.21625 5.731875 4.4325 5.46375 3.625 5.1875 C1 4 1 4 -1 1 C-0.67 0.67 -0.34 0.34 0 0 Z " fill="#AD8A43" transform="translate(12,42)"/>
<path d="M0 0 C0.99 0.33 1.98 0.66 3 1 C3 5.95 3 10.9 3 16 C2.67 16 2.34 16 2 16 C1.34 10.72 0.68 5.44 0 0 Z " fill="#E9B959" transform="translate(55,35)"/>
<path d="M0 0 C0.66 0.33 1.32 0.66 2 1 C-0.66666667 3.66666667 -3.33333333 6.33333333 -6 9 C-6.66 8.67 -7.32 8.34 -8 8 C-7.04578192 6.85073734 -6.08647955 5.70569459 -5.125 4.5625 C-4.59132812 3.92441406 -4.05765625 3.28632812 -3.5078125 2.62890625 C-2 1 -2 1 0 0 Z " fill="#D3B064" transform="translate(54,58)"/>
<path d="M0 0 C0.33 0.66 0.66 1.32 1 2 C0.67 2.66 0.34 3.32 0 4 C1.98 4.495 1.98 4.495 4 5 C3.34 6.65 2.68 8.3 2 10 C-0.77867692 7.22132308 -0.65193902 4.8286708 -1 1 C-0.67 0.67 -0.34 0.34 0 0 Z " fill="#E0BA61" transform="translate(33,16)"/>
<path d="M0 0 C0 0.66 0 1.32 0 2 C-5.75 5 -5.75 5 -8 5 C-8 4.01 -8 3.02 -8 2 C-5.09399739 0.74335022 -3.20395416 0 0 0 Z " fill="#E5B657" transform="translate(23,16)"/>
<path d="M0 0 C1.67542976 0.28604898 3.34385343 0.61781233 5 1 C5.33 2.65 5.66 4.3 6 6 C5.01 6.495 5.01 6.495 4 7 C3.67 5.35 3.34 3.7 3 2 C1.68 1.67 0.36 1.34 -1 1 C-0.67 0.67 -0.34 0.34 0 0 Z " fill="#E4B855" transform="translate(27,0)"/>
<path d="M0 0 C0.99 0 1.98 0 3 0 C2.67 1.65 2.34 3.3 2 5 C0.68 5 -0.64 5 -2 5 C-1.34 3.35 -0.68 1.7 0 0 Z " fill="#DFB85C" transform="translate(32,64)"/>
<path d="M0 0 C1.65 0 3.3 0 5 0 C4.34 1.32 3.68 2.64 3 4 C1.35 3.67 -0.3 3.34 -2 3 C-1.34 2.67 -0.68 2.34 0 2 C0 1.34 0 0.68 0 0 Z " fill="#CCA346" transform="translate(28,53)"/>
<path d="M0 0 C2.6875 0.3125 2.6875 0.3125 5 1 C5 1.66 5 2.32 5 3 C2.36 3 -0.28 3 -3 3 C-1.8125 1.4375 -1.8125 1.4375 0 0 Z " fill="#060501" transform="translate(27,57)"/>
<path d="M0 0 C2.97 0.495 2.97 0.495 6 1 C6 2.65 6 4.3 6 6 C3.96166576 4.7260411 1.96147874 3.38938077 0 2 C0 1.34 0 0.68 0 0 Z " fill="#C2A55D" transform="translate(33,56)"/>
<path d="M0 0 C0.66 0.33 1.32 0.66 2 1 C1.67 1.99 1.34 2.98 1 4 C-0.98 4 -2.96 4 -5 4 C-5.33 4.66 -5.66 5.32 -6 6 C-6.33 5.01 -6.66 4.02 -7 3 C-6.01 2.34 -5.02 1.68 -4 1 C-4 1.66 -4 2.32 -4 3 C-2.68 3 -1.36 3 0 3 C0 2.01 0 1.02 0 0 Z " fill="#B7913A" transform="translate(31,16)"/>
</svg>
