<?xml version="1.0" encoding="UTF-8"?>
<svg version="1.1" xmlns="http://www.w3.org/2000/svg" width="71" height="75">
<path d="M0 0 C4.51946273 -0.29163613 9.03650492 -0.46839117 13.5625 -0.625 C14.83931641 -0.70878906 16.11613281 -0.79257813 17.43164062 -0.87890625 C26.78244196 -1.12178421 26.78244196 -1.12178421 30.46435547 2.27050781 C32.2214538 4.78064829 33.69177471 7.23254034 35 10 C35.5775 9.278125 36.155 8.55625 36.75 7.8125 C37.4925 6.884375 38.235 5.95625 39 5 C39.57202148 4.12706299 40.14404297 3.25412598 40.73339844 2.35473633 C43 0 43 0 46.02441406 -0.56762695 C47.17651367 -0.54144287 48.32861328 -0.51525879 49.515625 -0.48828125 C50.76601563 -0.47216797 52.01640625 -0.45605469 53.3046875 -0.43945312 C54.60664062 -0.39755859 55.90859375 -0.35566406 57.25 -0.3125 C59.22613281 -0.27866211 59.22613281 -0.27866211 61.2421875 -0.24414062 C64.49593404 -0.18519594 67.74739671 -0.10295053 71 0 C71.32542238 5.70625262 71.5590238 11.40693663 71.71411133 17.12036133 C71.77883774 19.05588972 71.86706857 20.99079923 71.98071289 22.92407227 C72.53565384 32.61921701 72.93328005 40.75384155 66.53251648 48.57041931 C64.31551351 50.97601821 62.01104536 53.24707306 59.604599 55.46232605 C57.17304626 57.79246293 55.1518577 60.3606637 53.0625 63 C52.34449219 63.86238281 51.62648437 64.72476563 50.88671875 65.61328125 C48.99356761 67.90793253 48.99356761 67.90793253 47.64453125 70.23046875 C45.40430925 73.68385712 43.75407504 74.7794943 39.75390625 75.94921875 C34.72238917 76.51056508 30.40731096 76.74663564 26.21728516 73.70654297 C22.53210766 70.19730435 19.52899644 66.1676241 16.53759766 62.06591797 C14.15826602 58.86904526 11.54569053 55.88536751 8.9375 52.875 C7.28060273 50.92551331 5.63903984 48.96465877 4 47 C3.29979736 46.31671631 2.59959473 45.63343262 1.87817383 44.92944336 C-0.81301718 40.73191302 -0.50351689 37.20673813 -0.390625 32.32421875 C-0.38496521 31.3990596 -0.37930542 30.47390045 -0.37347412 29.52070618 C-0.3511448 26.57577014 -0.30095486 23.63206614 -0.25 20.6875 C-0.22993054 18.68686657 -0.21168055 16.68621401 -0.1953125 14.68554688 C-0.15129125 9.78989236 -0.08228747 4.89515482 0 0 Z M14 14 C14 19.28 14 24.56 14 30 C16.97 30 19.94 30 23 30 C22.64421875 30.77601562 22.2884375 31.55203125 21.921875 32.3515625 C20.55681555 36.16462856 19.87896405 38.93068803 20 43 C22.77772391 48.50656881 27.58518248 52.79165657 32 57 C33.33333333 58.33333333 34.66666667 59.66666667 36 61 C37.9390417 58.75131288 39.87627622 56.50111139 41.8125 54.25 C42.35970703 53.61578125 42.90691406 52.9815625 43.47070312 52.328125 C44.5286053 51.09711156 45.57941206 49.85995758 46.62231445 48.61621094 C47.69269746 47.36050732 48.82039169 46.15356413 49.96875 44.96875 C51.60652998 41.84207912 50.58330514 39.56779681 49.6875 36.25 C49.38199219 35.07953125 49.07648437 33.9090625 48.76171875 32.703125 C48.51035156 31.81109375 48.25898437 30.9190625 48 30 C50.97 30 53.94 30 57 30 C57 24.72 57 19.44 57 14 C55.02 14 53.04 14 51 14 C49.02879143 15.97120857 47.65093219 17.6068627 46.125 19.875 C45.52171875 20.70837891 45.52171875 20.70837891 44.90625 21.55859375 C42.67952325 24.4957911 42.67952325 24.4957911 42 28 C37.71 28 33.42 28 29 28 C28.34 26.35 27.68 24.7 27 23 C25.51371106 20.51548909 25.51371106 20.51548909 23.75 18.1875 C23.18796875 17.39730469 22.6259375 16.60710938 22.046875 15.79296875 C19.70129729 13.34108896 19.70129729 13.34108896 14 14 Z " fill="#FF0000" transform="translate(0,0)"/>
</svg>
