<?xml version="1.0" encoding="UTF-8"?>
<svg version="1.1" xmlns="http://www.w3.org/2000/svg" width="217" height="225">
<path d="M0 0 C10.43006486 -0.512624 20.85708404 -0.90198729 31.29723454 -1.13986778 C36.1474604 -1.25413698 40.98900469 -1.40859027 45.83422852 -1.65966797 C77.08582311 -3.23768436 77.08582311 -3.23768436 85.2048645 2.11151123 C90.18377817 7.14823411 93.23197534 12.84454904 95.87928772 19.36190796 C97.44447087 23.04625878 99.5286643 26.09479871 101.8125 29.375 C102.39644531 30.29023438 102.98039062 31.20546875 103.58203125 32.1484375 C104.04996094 32.75945313 104.51789063 33.37046875 105 34 C105.66 34 106.32 34 107 34 C108.68048474 31.86688458 108.68048474 31.86688458 110.4140625 29.1015625 C111.43306641 27.54501953 111.43306641 27.54501953 112.47265625 25.95703125 C113.18292969 24.85746094 113.89320312 23.75789063 114.625 22.625 C116.00827152 20.4891042 117.3962666 18.3562598 118.7890625 16.2265625 C119.40475098 15.27346191 120.02043945 14.32036133 120.65478516 13.33837891 C121.01642761 12.83787018 121.37807007 12.33736145 121.75067139 11.82168579 C123.10191349 9.92164039 123.10191349 9.92164039 124.38653564 7.41928101 C126.34865637 4.2607529 128.00544586 2.22812034 131 0 C137.25058074 -1.40017294 143.34645257 -1.16804626 149.71875 -0.9765625 C151.54573686 -0.95789075 153.37277409 -0.9436658 155.1998291 -0.9336853 C159.98844792 -0.89566133 164.77399079 -0.79758087 169.56140137 -0.68664551 C174.45457346 -0.58399723 179.34824706 -0.53860244 184.2421875 -0.48828125 C193.82947009 -0.38131504 203.41447843 -0.21084629 213 0 C213.21069703 15.60350559 213.36916948 31.20662415 213.46630955 46.8112011 C213.51262257 54.05756191 213.57570503 61.30303642 213.67895508 68.54882812 C213.76895687 74.86793421 213.82679275 81.18639821 213.84679645 87.50612748 C213.85848331 90.8499499 213.89051633 94.19048901 213.95157051 97.53399277 C214.01717105 101.27619822 214.02589119 105.01463386 214.02172852 108.75732422 C214.054086 109.85281082 214.08644348 110.94829742 214.11978149 112.07698059 C214.02699206 119.81589132 211.7260342 123.49614424 206.22274685 128.88279915 C205.48924039 129.58147543 204.75573393 130.28015171 204 131 C202.98591008 132.2090275 201.98951551 133.43376435 201.03125 134.6875 C200.61020996 135.23559326 200.18916992 135.78368652 199.75537109 136.34838867 C199.34109863 136.89342041 198.92682617 137.43845215 198.5 138 C194.5880858 143.06380896 190.5029403 147.87091251 186.171875 152.5859375 C183.11511709 155.9835569 180.25799762 159.53062663 177.3828125 163.08203125 C174.79244248 166.25417289 172.15321062 169.38046751 169.5 172.5 C166.14539595 176.44638883 162.82777828 180.41642493 159.5625 184.4375 C156.10725391 188.68392946 152.57289051 192.85284488 149 197 C140.05847399 206.72479732 140.05847399 206.72479732 132.65600586 217.5065918 C130.39480302 221.20365679 128.33446063 224.29683888 124.00628662 225.6005249 C118.95384212 226.45515841 113.91234272 226.46659257 108.80102539 226.35864258 C106.06728279 226.31258059 103.35188414 226.37851897 100.61914062 226.45507812 C88.04062848 226.54069722 88.04062848 226.54069722 82.93066406 222.68261719 C80.6498215 219.89913572 78.81090703 217.10460537 77 214 C76.06418521 212.82161672 75.10256337 211.66259877 74.1015625 210.5390625 C72.81673759 209.02726537 71.53201013 207.51538477 70.24853516 206.00244141 C68.83326668 204.33418578 67.41680818 202.6669481 66 201 C59.93873228 193.86860501 53.91433596 186.71651552 48.015625 179.44921875 C46.19661269 177.23890728 44.33134726 175.08356524 42.4375 172.9375 C40 170 40 170 40 168 C39.34 168 38.68 168 38 168 C36.23771907 165.90936245 34.57896642 163.8075631 32.9375 161.625 C28.88598543 156.34553213 24.68345206 151.32633036 20.1796875 146.421875 C16.77545725 142.63939695 13.4831273 138.73330295 10.43028259 134.65988159 C8.98233581 132.8748117 8.98233581 132.8748117 6.81495667 131.26419067 C0.77519197 125.70793185 -0.55770335 121.02727239 -0.95794773 113.02833366 C-1.06062643 107.43189536 -1.02208135 101.84539073 -0.91254544 96.24931741 C-0.85584443 92.8595871 -0.85096293 89.469767 -0.84031677 86.07963562 C-0.81247006 79.6761231 -0.73879315 73.27401233 -0.64817137 66.87111396 C-0.54717394 59.57494524 -0.49799116 52.27870549 -0.45291245 44.98201048 C-0.35912715 29.98722926 -0.20107842 14.99375557 0 0 Z M39 39 C39 55.83 39 72.66 39 90 C48.57 90 58.14 90 68 90 C67.33871094 92.45695312 66.67742187 94.91390625 65.99609375 97.4453125 C65.36111576 99.83746303 64.73029132 102.2306729 64.09985352 104.62402344 C63.66082414 106.28175176 63.21751204 107.9383522 62.76977539 109.59375 C62.12546871 111.9789031 61.4968753 114.36774141 60.87109375 116.7578125 C60.66906845 117.49242706 60.46704315 118.22704163 60.25889587 118.98391724 C59.14022759 123.32965869 58.80161802 126.6540023 60 131 C61.72227348 133.46659885 61.72227348 133.46659885 64 135.6875 C67.26533685 139.1382503 70.38967301 142.61586766 73.375 146.3125 C76.70017835 150.4197325 80.07654025 154.47491319 83.5 158.5 C86.96025378 162.57003781 90.37910113 166.66767026 93.75 170.8125 C97.40107186 175.29904235 101.15185142 179.68165963 105 184 C106.99983534 183.20882096 106.99983534 183.20882096 109 182 C109.33 181.01 109.66 180.02 110 179 C110.66 179 111.32 179 112 179 C113.66781902 177.19480816 113.66781902 177.19480816 115.4375 174.8125 C118.6847764 170.64751505 122.01057054 166.57898306 125.4375 162.5625 C129.57252968 157.70414151 133.63473411 152.79363618 137.66015625 147.84375 C140.8512285 143.96545184 144.1040901 140.14064344 147.37109375 136.32617188 C151.85990521 131.49853845 151.85990521 131.49853845 152.74047852 125.28515625 C152.1151715 121.27202087 151.18366107 117.36632787 150.15234375 113.4375 C149.97619034 112.76074219 149.80003693 112.08398438 149.61854553 111.38671875 C149.06293303 109.25653953 148.50035569 107.12827543 147.9375 105 C147.55617539 103.54309044 147.17531194 102.0860601 146.79492188 100.62890625 C145.86944434 97.08426679 144.93453971 93.54230998 144 90 C153.57 90 163.14 90 173 90 C173 73.17 173 56.34 173 39 C166.07 39 159.14 39 152 39 C148.33263271 43.05633049 147.12597787 45.23715035 145 50 C142.90408275 53.17083727 140.55333739 56.1523155 138.20043945 59.13525391 C135.66506401 62.43036004 133.74166354 65.36457759 132.3359375 69.29296875 C130.43391827 74.0579404 128.6688683 77.53216961 124 80 C112.68566575 82.70001158 96.11804011 84.24104949 85.48486328 78.68603516 C81.73083854 75.32856952 79.99033354 71.09706761 78.14501953 66.49560547 C75.9423673 61.69485684 72.65942381 57.5675402 69.5625 53.3125 C68.39510568 51.64334483 67.22962666 49.97284786 66.06640625 48.30078125 C63.81538894 45.07631149 61.47012599 42.08765749 59 39 C52.4 39 45.8 39 39 39 Z " fill="#FE0000" transform="translate(0,0)"/>
</svg>
