<?xml version="1.0" encoding="UTF-8"?>
<svg version="1.1" xmlns="http://www.w3.org/2000/svg" width="85" height="75">
<path d="M0 0 C0 15.18 0 30.36 0 46 C-17.8377043 52.60655715 -35.71723224 59.0850559 -53.64266968 65.44976807 C-55.9654073 66.27534355 -58.28736901 67.10310529 -60.60855103 67.93304443 C-63.90613527 69.11131815 -67.20654346 70.28131539 -70.5078125 71.44921875 C-71.50766678 71.8080867 -72.50752106 72.16695465 -73.53767395 72.53669739 C-74.9249897 73.0245295 -74.9249897 73.0245295 -76.34033203 73.5222168 C-77.14697296 73.80880661 -77.95361389 74.09539642 -78.78469849 74.39067078 C-81 75 -81 75 -85 75 C-85 59.82 -85 44.64 -85 29 C-67.1622957 22.39344285 -49.28276776 15.9149441 -31.35733032 9.55023193 C-29.0345927 8.72465645 -26.71263099 7.89689471 -24.39144897 7.06695557 C-21.09386473 5.88868185 -17.79345654 4.71868461 -14.4921875 3.55078125 C-13.49233322 3.1919133 -12.49247894 2.83304535 -11.46232605 2.46330261 C-10.53744888 2.13808121 -9.61257172 1.8128598 -8.65966797 1.4777832 C-7.85302704 1.19119339 -7.04638611 0.90460358 -6.21530151 0.60932922 C-4 0 -4 0 0 0 Z " fill="#151300" transform="translate(85,0)"/>
<path d="M0 0 C0 15.18 0 30.36 0 46 C-17.8377043 52.60655715 -35.71723224 59.0850559 -53.64266968 65.44976807 C-55.9654073 66.27534355 -58.28736901 67.10310529 -60.60855103 67.93304443 C-63.90613527 69.11131815 -67.20654346 70.28131539 -70.5078125 71.44921875 C-71.50766678 71.8080867 -72.50752106 72.16695465 -73.53767395 72.53669739 C-74.9249897 73.0245295 -74.9249897 73.0245295 -76.34033203 73.5222168 C-77.14697296 73.80880661 -77.95361389 74.09539642 -78.78469849 74.39067078 C-81 75 -81 75 -85 75 C-85 59.82 -85 44.64 -85 29 C-67.1622957 22.39344285 -49.28276776 15.9149441 -31.35733032 9.55023193 C-29.0345927 8.72465645 -26.71263099 7.89689471 -24.39144897 7.06695557 C-21.09386473 5.88868185 -17.79345654 4.71868461 -14.4921875 3.55078125 C-13.49233322 3.1919133 -12.49247894 2.83304535 -11.46232605 2.46330261 C-10.53744888 2.13808121 -9.61257172 1.8128598 -8.65966797 1.4777832 C-7.85302704 1.19119339 -7.04638611 0.90460358 -6.21530151 0.60932922 C-4 0 -4 0 0 0 Z M-9.4140625 5.01953125 C-14.16038035 6.81911702 -18.95253152 8.49322198 -23.73535156 10.19287109 C-25.46202073 10.80826224 -27.18776487 11.42624951 -28.91308594 12.04541016 C-35.68110581 14.47155154 -42.45963933 16.86380711 -49.25 19.2265625 C-50.86330464 19.78899542 -52.4765857 20.35149597 -54.08984375 20.9140625 C-56.5619669 21.77612102 -59.03448531 22.63694936 -61.50830078 23.49414062 C-63.94434796 24.33872595 -66.37855747 25.18843405 -68.8125 26.0390625 C-69.54694336 26.2922525 -70.28138672 26.5454425 -71.03808594 26.80630493 C-71.73321289 27.05020966 -72.42833984 27.29411438 -73.14453125 27.54541016 C-73.74628174 27.7546109 -74.34803223 27.96381165 -74.96801758 28.17935181 C-77.71708096 29.28960447 -80.34820657 30.67410329 -83 32 C-83 45.2 -83 58.4 -83 72 C-80.03 71.01 -77.06 70.02 -74 69 C-72.0745659 68.36483211 -70.14882956 67.73057893 -68.22265625 67.09765625 C-66.16925696 66.41931284 -64.11587175 65.74092679 -62.0625 65.0625 C-61.04220703 64.72798828 -60.02191406 64.39347656 -58.97070312 64.04882812 C-53.38133879 62.19759642 -47.90854135 60.19297263 -42.45874023 57.96655273 C-37.34128511 55.95483544 -32.08521071 54.33627939 -26.85546875 52.64453125 C-21.64453839 50.93843405 -16.55685936 49.07405137 -11.50195312 46.94726562 C-8.40061322 45.7730659 -5.18858712 44.91102489 -2 44 C-2 30.47 -2 16.94 -2 3 C-4.72410327 3 -6.90012991 4.05298316 -9.4140625 5.01953125 Z " fill="#F7E600" transform="translate(85,0)"/>
<path d="M0 0 C0 10.23 0 20.46 0 31 C-10 35 -10 35 -12 35 C-12 24.44 -12 13.88 -12 3 C-3 0 -3 0 0 0 Z " fill="#F3E400" transform="translate(18,31)"/>
<path d="M0 0 C3.47730886 1.26762122 5.26922849 4.42672677 7.41162109 7.30493164 C7.89477783 7.93882813 8.37793457 8.57272461 8.87573242 9.22583008 C9.83392657 10.48540083 10.78789675 11.74819773 11.73730469 13.0144043 C12.83953252 14.48031346 13.96139511 15.93142681 15.08740234 17.37915039 C19.03662109 22.478261 19.03662109 22.478261 19.03662109 24.74243164 C17.29221311 25.30184523 15.54076852 25.83935061 13.78662109 26.36743164 C12.81208984 26.66907227 11.83755859 26.97071289 10.83349609 27.28149414 C7.60804157 27.81306346 6.81239134 27.24407784 4.03662109 25.74243164 C1.87518552 25.92271115 1.87518552 25.92271115 -0.21337891 26.61743164 C-1.45087891 26.98868164 -2.68837891 27.35993164 -3.96337891 27.74243164 C-3.96337891 25.10243164 -3.96337891 22.46243164 -3.96337891 19.74243164 C-2.64337891 19.41243164 -1.32337891 19.08243164 0.03662109 18.74243164 C-0.61822266 18.05793945 -1.27306641 17.37344727 -1.94775391 16.66821289 C-4.40609622 13.09980515 -4.38622583 11.20789308 -4.21337891 6.92993164 C-4.17728516 5.76848633 -4.14119141 4.60704102 -4.10400391 3.41040039 C-4.03439453 2.08975586 -4.03439453 2.08975586 -3.96337891 0.74243164 C-1.96337891 -0.25756836 -1.96337891 -0.25756836 0 0 Z " fill="#F4E400" transform="translate(44.96337890625,21.257568359375)"/>
<path d="M0 0 C0 10.23 0 20.46 0 31 C-10 35 -10 35 -11 35 C-11 24.44 -11 13.88 -11 3 C-2 0 -2 0 0 0 Z " fill="#F9E900" transform="translate(79,9)"/>
<path d="M0 0 C0.495 1.98 0.495 1.98 1 4 C-16.82513794 10.63770987 -34.71825797 17.0854201 -52.64266968 23.44976807 C-54.9654073 24.27534355 -57.28736901 25.10310529 -59.60855103 25.93304443 C-62.90613527 27.11131815 -66.20654346 28.28131539 -69.5078125 29.44921875 C-70.50766678 29.8080867 -71.50752106 30.16695465 -72.53767395 30.53669739 C-73.9249897 31.0245295 -73.9249897 31.0245295 -75.34033203 31.5222168 C-76.55029343 31.95210152 -76.55029343 31.95210152 -77.78469849 32.39067078 C-80 33 -80 33 -84 33 C-84 32.01 -84 31.02 -84 30 C-74.50939072 26.61221289 -65.00668246 23.28406019 -55.41845703 20.18115234 C-51.59257199 18.92718631 -47.85009634 17.55874624 -44.12109375 16.0390625 C-38.12785864 13.60627348 -32.0066425 11.63434964 -25.85546875 9.64453125 C-20.5777689 7.91657323 -15.40950546 6.02792722 -10.27001953 3.92285156 C-6.87330051 2.54195267 -3.43825957 1.27342947 0 0 Z " fill="#EEDE00" transform="translate(84,42)"/>
<path d="M0 0 C0 9.57 0 19.14 0 29 C-11.68245125 17.31754875 -11.68245125 17.31754875 -12.4453125 11.75 C-12.43835709 8.80090526 -12.31248781 5.93143324 -12 3 C-10.37604003 2.49663233 -8.75079459 1.99741024 -7.125 1.5 C-6.22007813 1.2215625 -5.31515625 0.943125 -4.3828125 0.65625 C-2 0 -2 0 0 0 Z " fill="#EADB00" transform="translate(66,14)"/>
<path d="M0 0 C4.25092358 3.33694434 7.47334191 6.60226886 10.6875 11 C11.43386719 12.010625 12.18023437 13.02125 12.94921875 14.0625 C14.75764663 16.65285765 16.41766245 19.26732817 18 22 C14.44796319 23.56007572 11.22455769 24.97152191 7.3125 25.0625 C3.91765658 23.50270708 1.79545371 21.21534692 0 18 C-0.58475337 14.84346383 -0.4781697 11.82115078 -0.3125 8.625 C-0.27866211 7.37783203 -0.27866211 7.37783203 -0.24414062 6.10546875 C-0.18563654 4.06952647 -0.09596795 2.03452055 0 0 Z " fill="#F6E600" transform="translate(20,33)"/>
<path d="M0 0 C0 9.24 0 18.48 0 28 C-10.72980501 17.27019499 -10.72980501 17.27019499 -11.37890625 11.81640625 C-11.37541667 8.85375639 -11.26549455 5.94993939 -11 3 C-6.79759598 0.65447218 -4.98887899 0 0 0 Z " fill="#F8E800" transform="translate(39,24)"/>
<path d="M0 0 C0.99 0 1.98 0 3 0 C3 9.9 3 19.8 3 30 C2.01 30.33 1.02 30.66 0 31 C-1.36940568 29.42982807 -2.72012895 27.84334609 -4.0625 26.25 C-4.81660156 25.36828125 -5.57070313 24.4865625 -6.34765625 23.578125 C-7.16556641 22.30195312 -7.16556641 22.30195312 -8 21 C-7.67 19.68 -7.34 18.36 -7 17 C-4.36 20.63 -1.72 24.26 1 28 C1.33 19.09 1.66 10.18 2 1 C1.34 0.67 0.68 0.34 0 0 Z " fill="#383400" transform="translate(37,23)"/>
<path d="M0 0 C0.66 0.33 1.32 0.66 2 1 C1.26656372 1.53717651 1.26656372 1.53717651 0.51831055 2.08520508 C-1.71337719 4.8996651 -1.33950005 7.08482951 -1.29296875 10.63671875 C-1.28330078 11.93544922 -1.27363281 13.23417969 -1.26367188 14.57226562 C-1.23860585 15.94401639 -1.21321101 17.31576118 -1.1875 18.6875 C-1.1724502 20.07094924 -1.1587623 21.45441401 -1.14648438 22.83789062 C-1.11107223 26.22565207 -1.06168054 29.61263139 -1 33 C-1.66 33 -2.32 33 -3 33 C-3 22.44 -3 11.88 -3 1 C-2.01 0.67 -1.02 0.34 0 0 Z " fill="#CBBE00" transform="translate(9,33)"/>
<path d="M0 0 C3.45101522 4.24740335 6.73279209 8.61105071 10 13 C9.01 13 8.02 13 7 13 C4.921875 10.91796875 4.921875 10.91796875 2.75 8.1875 C2.02296875 7.29417969 1.2959375 6.40085937 0.546875 5.48046875 C0.03640625 4.66191406 -0.4740625 3.84335937 -1 3 C-0.67 2.01 -0.34 1.02 0 0 Z " fill="#272500" transform="translate(53,27)"/>
<path d="M0 0 C1.65 1.65 3.3 3.3 5 5 C4.67 5.99 4.34 6.98 4 8 C2 6.25 2 6.25 0 4 C0 2.68 0 1.36 0 0 Z " fill="#322F00" transform="translate(29,40)"/>
</svg>
