<?xml version="1.0" encoding="UTF-8"?>
<svg version="1.1" xmlns="http://www.w3.org/2000/svg" width="75" height="75">
<path d="M0 0 C4.99500882 0.56990681 9.08892635 2.21449662 13.56640625 4.38671875 C14.28175034 4.72621048 14.99709442 5.06570221 15.7341156 5.41548157 C18.01366969 6.49913338 20.28814802 7.59297868 22.5625 8.6875 C24.06281348 9.40370236 25.56346198 10.11920334 27.06445312 10.83398438 C29.27278009 11.88579743 31.48081595 12.9381743 33.68740845 13.99362183 C40.09677466 17.0577283 46.53946857 20.04513945 53 23 C47.17120661 38.13817506 47.17120661 38.13817506 40.25390625 42.265625 C36.71018477 43.42025176 34.35479236 42.1915887 31.03515625 40.78515625 C26.74928754 39.13168291 22.99272656 41.28883147 19 43 C19.47680905 37.91403679 21.88305148 33.93763443 25 30 C26.96374635 28.61382611 28.95912192 27.26987969 31 26 C32.38868516 23.89960669 32.38868516 23.89960669 33 22 C32.154375 21.731875 31.30875 21.46375 30.4375 21.1875 C27 20 27 20 23.5 18.3125 C18.66276151 16.49853557 15.75872719 17.4137576 11 19 C9.15929441 16.21312902 7.32871822 13.41974873 5.5 10.625 C4.97535156 9.8309375 4.45070313 9.036875 3.91015625 8.21875 C3.41386719 7.45820312 2.91757813 6.69765625 2.40625 5.9140625 C1.94541016 5.2123291 1.48457031 4.5105957 1.00976562 3.78759766 C0 2 0 2 0 0 Z M39 26 C37.68 28.64 36.36 31.28 35 34 C38.24565858 34.34055197 38.24565858 34.34055197 40.6875 31.5 C41.450625 30.675 42.21375 29.85 43 29 C42.67 28.01 42.34 27.02 42 26 C41.01 26 40.02 26 39 26 Z " fill="#D8FF00" transform="translate(4,0)"/>
<path d="M0 0 C0.66 0.33 1.32 0.66 2 1 C0.6975667 3.90542812 -0.70886268 5.8092961 -3 8 C-1.5903653 8.70180531 -0.17192359 9.38593958 1.25 10.0625 C2.03890625 10.44535156 2.8278125 10.82820313 3.640625 11.22265625 C6.32723692 12.10781481 7.40126868 12.02877611 10 11 C11.010625 10.319375 12.02125 9.63875 13.0625 8.9375 C16 7 16 7 19 7 C17.8741386 10.53842155 16.66905241 13.66189518 15 17 C17.97 16.01 20.94 15.02 24 14 C25.83887092 16.78815819 27.67125609 19.580212 29.5 22.375 C30.02464844 23.1690625 30.54929688 23.963125 31.08984375 24.78125 C31.58613281 25.54179688 32.08242187 26.30234375 32.59375 27.0859375 C33.05458984 27.7876709 33.51542969 28.4894043 33.99023438 29.21240234 C35 31 35 31 35 33 C29.99754464 32.42874688 25.88709568 30.78080731 21.3984375 28.61328125 C20.68072174 28.27378952 19.96300598 27.93429779 19.22354126 27.58451843 C16.93730305 26.50082038 14.65621732 25.40672085 12.375 24.3125 C10.8661982 23.59634585 9.35708604 22.88084522 7.84765625 22.16601562 C-0.48561527 18.21008119 -8.77070893 14.16850999 -17 10 C-16.25927734 5.22949219 -16.25927734 5.22949219 -13.92578125 3.1640625 C-5.22581896 -1.95968211 -5.22581896 -1.95968211 0 0 Z " fill="#D8FF00" transform="translate(36,42)"/>
<path d="M0 0 C-0.60706539 3.90357166 -1.84145148 6.92520473 -3.625 10.4375 C-5.66322716 14.78260317 -6.49715474 17.27820429 -5 22 C-5 23.32 -5 24.64 -5 26 C-6.56054688 27.46386719 -6.56054688 27.46386719 -8.71875 28.796875 C-9.48574219 29.28027344 -10.25273437 29.76367188 -11.04296875 30.26171875 C-11.85378906 30.75285156 -12.66460937 31.24398437 -13.5 31.75 C-14.31082031 32.25660156 -15.12164063 32.76320312 -15.95703125 33.28515625 C-17.96378687 34.5364274 -19.97785764 35.77380729 -22 37 C-23.05490551 34.2965524 -23.02692216 33.08694878 -22.15478516 30.27026367 C-20.66982718 26.89712084 -19.16434715 23.53622298 -17.625 20.1875 C-17.12355469 19.02412109 -16.62210938 17.86074219 -16.10546875 16.66210938 C-13.22769074 10.35755081 -8.23458643 0 0 0 Z " fill="#D8FF00" transform="translate(23,35)"/>
<path d="M0 0 C1.40603842 5.62415368 -0.62709176 8.73499067 -2.9375 13.875 C-3.30423828 14.76058594 -3.67097656 15.64617188 -4.04882812 16.55859375 C-6.76495303 22.66418775 -9.95116612 26.89758723 -16 30 C-16.99 30 -17.98 30 -19 30 C-17.125 24.25 -17.125 24.25 -16 22 C-15.71772861 17.67183871 -15.99468037 16.01063926 -18 12 C-12.06 8.04 -6.12 4.08 0 0 Z " fill="#D8FF00" transform="translate(74,3)"/>
<path d="M0 0 C2.68227556 0.64573301 5.05343134 1.42088442 7.625 2.375 C11.90650166 3.88145429 15.50659061 3.88725285 20 3.71875 C23.64152424 3.86249438 26.16970588 5.14017263 29.375 6.8125 C29.375 7.8025 29.375 8.7925 29.375 9.8125 C19.82239265 13.36695855 10.19337962 12.71280043 0.8125 8.98046875 C-1.77453172 7.74084939 -4.19145912 6.32911744 -6.625 4.8125 C-5.35423285 1.00019855 -4.1184698 -0.29417641 0 0 Z " fill="#D8FF00" transform="translate(21.625,61.1875)"/>
<path d="M0 0 C0.99 0 1.98 0 3 0 C4.59227657 2.43524652 5.01734416 3.75140037 4.8125 6.6875 C4.16232764 9.33820271 3.38061632 11.70358594 2.4375 14.25 C0.93104571 18.53150166 0.92524715 22.13159061 1.09375 26.625 C0.95000562 30.26652424 -0.32767263 32.79470588 -2 36 C-2.99 36 -3.98 36 -5 36 C-8.55445855 26.44739265 -7.90030043 16.81837962 -4.16796875 7.4375 C-2.91186856 4.81607352 -1.68345919 2.37465276 0 0 Z " fill="#D8FF00" transform="translate(9,15)"/>
<path d="M0 0 C-1 3 -1 3 -4 5 C-7.67739155 4.73732917 -10.82663561 3.70765287 -14.25 2.4375 C-18.53150166 0.93104571 -22.13159061 0.92524715 -26.625 1.09375 C-30.26652424 0.95000562 -32.79470588 -0.32767263 -36 -2 C-36 -2.99 -36 -3.98 -36 -5 C-23.35418969 -9.70541779 -11.15550856 -6.9522723 0 0 Z " fill="#D8FF00" transform="translate(60,9)"/>
<path d="M0 0 C0.99 0 1.98 0 3 0 C6.55445855 9.55260735 5.90030043 19.18162038 2.16796875 28.5625 C0.92834939 31.14953172 -0.48338256 33.56645912 -2 36 C-5 35 -5 35 -7 32 C-6.60729912 28.60949804 -5.53858791 25.53065549 -4.4375 22.3125 C-3.03761221 17.81142538 -2.91656379 14.01313012 -3.09375 9.33984375 C-2.94867654 5.71905196 -1.66271883 3.18687775 0 0 Z " fill="#D8FF00" transform="translate(68,24)"/>
<path d="M0 0 C-0.77144232 6.36439912 -2.94412711 10.37737817 -7.91015625 14.296875 C-11.18497357 16.52983503 -14.27993939 18.56260634 -18 20 C-21.91796875 19.21484375 -21.91796875 19.21484375 -25 18 C-25 17.01 -25 16.02 -25 15 C-23.26953125 13.45703125 -23.26953125 13.45703125 -20.8125 11.8125 C-19.91144531 11.20921875 -19.01039062 10.6059375 -18.08203125 9.984375 C-2.57480315 0 -2.57480315 0 0 0 Z " fill="#D8FF00" transform="translate(62,33)"/>
<path d="M0 0 C1.58927102 0.75851572 3.17491182 1.52495591 4.75 2.3125 C4.75 2.9725 4.75 3.6325 4.75 4.3125 C3.22119141 5.54931641 3.22119141 5.54931641 1.1015625 6.9140625 C0.34359375 7.40390625 -0.414375 7.89375 -1.1953125 8.3984375 C-2.39800781 9.16027344 -2.39800781 9.16027344 -3.625 9.9375 C-4.81609375 10.7109375 -4.81609375 10.7109375 -6.03125 11.5 C-11.98197751 15.3125 -11.98197751 15.3125 -14.25 15.3125 C-13.5070175 9.18289434 -10.89011711 4.77434352 -6.375 0.75 C-3.25 -0.6875 -3.25 -0.6875 0 0 Z " fill="#D8FF00" transform="translate(30.25,20.6875)"/>
</svg>
