<?xml version="1.0" encoding="UTF-8"?>
<svg version="1.1" xmlns="http://www.w3.org/2000/svg" width="450" height="116">
<path d="M0 0 C1.0381485 -0.00309174 2.076297 -0.00618347 3.14590454 -0.0093689 C4.77874893 -0.00642319 4.77874893 -0.00642319 6.44458008 -0.00341797 C8.1905397 -0.00566879 8.1905397 -0.00566879 9.97177124 -0.00796509 C13.71925388 -0.01030327 17.46663841 -0.00410456 21.21411133 0.00439453 C23.12787064 0.0077179 23.12787064 0.0077179 25.08029175 0.0111084 C33.72923178 0.02878802 42.37786289 0.06971277 51.02661133 0.12939453 C52.46103577 0.13876038 52.46103577 0.13876038 53.92443848 0.14831543 C98.80371437 0.47456659 98.80371437 0.47456659 113.40161133 13.19970703 C120.61851976 20.81460674 123.63176702 28.32972641 124.12036133 38.78564453 C123.86188703 48.00456108 121.40056109 55.42393911 115.02661133 62.12939453 C114.51227539 62.67208984 113.99793945 63.21478516 113.46801758 63.77392578 C107.97906547 68.97329288 100.65483393 73.12939453 93.02661133 73.12939453 C99.5276937 81.27471953 107.35643338 88.12029723 115.02661133 95.12939453 C115.56415039 95.6227832 116.10168945 96.11617188 116.65551758 96.62451172 C121.48005443 101.37828057 121.48005443 101.37828057 127.02661133 105.12939453 C126.69661133 106.77939453 126.36661133 108.42939453 126.02661133 110.12939453 C90.93338891 112.89788056 90.93338891 112.89788056 82.24536133 107.09423828 C78.60614712 103.9211679 75.64381725 100.28422966 72.78442383 96.40576172 C69.75220987 92.47904465 66.14365316 89.139349 62.58911133 85.69189453 C60.84265005 83.92016399 59.10007599 82.14478726 57.36083984 80.3659668 C54.3108094 77.53917738 51.31913335 77.94623478 47.30395508 77.84814453 C46.6432753 77.82973511 45.98259552 77.81132568 45.30189514 77.7923584 C42.4712864 77.71359625 39.64043962 77.64579501 36.80957031 77.57714844 C34.74507485 77.52553013 32.68079074 77.46824935 30.61645508 77.41064453 C29.37758545 77.38035156 28.13871582 77.35005859 26.86230469 77.31884766 C24.02661133 77.12939453 24.02661133 77.12939453 23.02661133 76.12939453 C22.92701512 74.2878043 22.89580722 72.44242486 22.89379883 70.59814453 C22.89186523 68.91785156 22.89186523 68.91785156 22.88989258 67.20361328 C22.89375977 66.02412109 22.89762695 64.84462891 22.90161133 63.62939453 C22.89581055 61.86015625 22.89581055 61.86015625 22.88989258 60.05517578 C22.89118164 58.93498047 22.8924707 57.81478516 22.89379883 56.66064453 C22.89492676 55.62488281 22.89605469 54.58912109 22.8972168 53.52197266 C23.02661133 51.12939453 23.02661133 51.12939453 24.02661133 50.12939453 C26.83261968 49.99317495 29.61720824 49.91852581 32.42504883 49.88330078 C34.20369784 49.85026834 35.98234357 49.8170588 37.76098633 49.78369141 C40.55099224 49.73698156 43.34099579 49.69276744 46.13110352 49.65258789 C55.99908695 49.50358669 65.80389106 49.20775007 75.62817383 48.21923828 C76.41727142 48.14290665 77.20636902 48.06657501 78.01937866 47.9879303 C83.31390385 47.41855787 83.31390385 47.41855787 88.02661133 45.12939453 C89.7383221 42.1950332 90.03779593 40.40900951 89.90161133 37.00439453 C89.25153881 34.11565123 89.25153881 34.11565123 87.40161133 32.37939453 C79.85551407 28.40776439 72.13173542 28.78814666 63.78051758 28.71533203 C62.56875854 28.69768799 61.35699951 28.68004395 60.10852051 28.66186523 C55.60218328 28.59902085 51.09562806 28.55268068 46.58911133 28.50439453 C36.50348633 28.38064453 26.41786133 28.25689453 16.02661133 28.12939453 C16.02661133 55.18939453 16.02661133 82.24939453 16.02661133 110.12939453 C13.11608933 111.58465553 10.55104722 111.2592534 7.30395508 111.26220703 C6.6432753 111.26316376 5.98259552 111.26412048 5.30189514 111.2651062 C3.90568954 111.26578669 2.50948077 111.26394154 1.11328125 111.25976562 C-1.03091481 111.25440696 -3.1749022 111.25971932 -5.3190918 111.26611328 C-6.67390997 111.26545264 -8.02872801 111.26417178 -9.38354492 111.26220703 C-10.62241455 111.2610791 -11.86128418 111.25995117 -13.13769531 111.25878906 C-15.97338867 111.12939453 -15.97338867 111.12939453 -16.97338867 110.12939453 C-17.06889565 108.71260542 -17.0952735 107.29108212 -17.09364319 105.87107849 C-17.09501785 104.95256104 -17.09639252 104.03404358 -17.09780884 103.08769226 C-17.09421356 102.07205704 -17.09061829 101.05642181 -17.08691406 100.01000977 C-17.08706009 98.94672455 -17.08720612 97.88343933 -17.08735657 96.78793335 C-17.08665692 93.25459795 -17.0788621 89.72131453 -17.07104492 86.18798828 C-17.06918093 83.74561085 -17.06775694 81.30323304 -17.0667572 78.8608551 C-17.06293056 72.41804989 -17.05309904 65.97526705 -17.04205322 59.5324707 C-17.03184223 52.96387027 -17.02726025 46.39526623 -17.0222168 39.82666016 C-17.0114769 26.92756204 -16.99458971 14.02847947 -16.97338867 1.12939453 C-5.44326506 0.00485685 -5.44326506 0.00485685 0 0 Z " fill="#000000" transform="translate(177.973388671875,1.87060546875)"/>
<path d="M0 0 C1.90762863 -0.00321782 3.81525701 -0.00658228 5.72288513 -0.01008606 C9.69750543 -0.01604087 13.67210408 -0.01792933 17.64672852 -0.01733398 C22.74795621 -0.01723163 27.84904699 -0.03097494 32.95024204 -0.04810619 C36.87833807 -0.05919085 40.80640035 -0.06125442 44.73451042 -0.06072426 C46.61684587 -0.06190621 48.49918215 -0.06633997 50.38150215 -0.07405663 C52.99995949 -0.08380118 55.6181105 -0.08100251 58.23657227 -0.07495117 C59.01626373 -0.08057068 59.7959552 -0.08619019 60.59927368 -0.09197998 C65.95526585 -0.06035915 65.95526585 -0.06035915 68.18359375 2.16796875 C68.44238281 4.45874023 68.44238281 4.45874023 68.44921875 7.2890625 C68.45179688 8.30677734 68.454375 9.32449219 68.45703125 10.37304688 C68.44929687 11.43974609 68.4415625 12.50644531 68.43359375 13.60546875 C68.44132813 14.66830078 68.4490625 15.73113281 68.45703125 16.82617188 C68.45445312 17.84517578 68.451875 18.86417969 68.44921875 19.9140625 C68.44696289 20.84919678 68.44470703 21.78433105 68.44238281 22.74780273 C68.18359375 25.16796875 68.18359375 25.16796875 66.18359375 28.16796875 C63.30125357 28.46815681 60.63102997 28.57411698 57.74584961 28.55273438 C56.4357341 28.56079353 56.4357341 28.56079353 55.09915161 28.5690155 C53.19758762 28.5788169 51.29597878 28.58173056 49.39439201 28.57865906 C46.37969978 28.57419098 43.36559779 28.58815579 40.35096741 28.60705566 C33.94101939 28.64391821 27.53113214 28.65754573 21.12109375 28.66796875 C13.71664972 28.68005934 6.31249089 28.70175153 -1.09182549 28.74797058 C-4.05254834 28.76149486 -7.01290668 28.75737635 -9.97364807 28.75256348 C-11.80673679 28.76191227 -13.63982156 28.77208313 -15.47290039 28.78320312 C-16.69602684 28.77398079 -16.69602684 28.77398079 -17.94386292 28.76457214 C-23.58890095 28.82430664 -28.66371474 29.77584836 -33.81640625 32.16796875 C-37.48263999 36.05823546 -37.25515047 40.47779115 -37.21484375 45.57421875 C-37.21914902 46.77769958 -37.21914902 46.77769958 -37.22354126 48.00549316 C-37.22557663 49.69654041 -37.22008365 51.38761148 -37.20751953 53.07861328 C-37.1914576 55.65971773 -37.20738529 58.23925647 -37.2265625 60.8203125 C-37.22457997 62.46745136 -37.2207361 64.11458924 -37.21484375 65.76171875 C-37.22091644 66.52955688 -37.22698914 67.29739502 -37.23324585 68.08850098 C-37.17412804 72.61620754 -36.91961835 75.77092964 -33.81640625 79.16796875 C-26.6825561 83.04365179 -19.20067025 82.64349767 -11.25390625 82.6796875 C-9.85284883 82.6965588 -8.45180632 82.71471229 -7.05078125 82.73408508 C-3.38812929 82.78132592 0.27446221 82.81130183 3.93731689 82.83752441 C7.6848952 82.86746187 11.43226564 82.9139464 15.1796875 82.95898438 C22.51421917 83.04472198 29.84876645 83.11219733 37.18359375 83.16796875 C37.18359375 79.53796875 37.18359375 75.90796875 37.18359375 72.16796875 C35.97243896 72.17582397 35.97243896 72.17582397 34.73681641 72.18383789 C31.09408337 72.20456804 27.45136273 72.21761624 23.80859375 72.23046875 C22.53757812 72.23884766 21.2665625 72.24722656 19.95703125 72.25585938 C18.7453125 72.25908203 17.53359375 72.26230469 16.28515625 72.265625 C14.60413818 72.27348022 14.60413818 72.27348022 12.88916016 72.28149414 C10.18359375 72.16796875 10.18359375 72.16796875 8.18359375 71.16796875 C8.18359375 63.90796875 8.18359375 56.64796875 8.18359375 49.16796875 C10.8363733 47.84157897 12.84026296 48.04084519 15.81079102 48.03857422 C16.98863663 48.03542206 18.16648224 48.0322699 19.38002014 48.02902222 C21.29566017 48.03205856 21.29566017 48.03205856 23.25 48.03515625 C24.55436508 48.03419952 25.85873016 48.0332428 27.20262146 48.03225708 C29.96411319 48.03078198 32.72557258 48.03292897 35.48706055 48.03759766 C39.03378396 48.04330044 42.58043179 48.0400113 46.12715244 48.03402519 C49.5014411 48.02955227 52.87570919 48.03267946 56.25 48.03515625 C58.16867638 48.0321199 58.16867638 48.0321199 60.12611389 48.02902222 C61.88815407 48.03375046 61.88815407 48.03375046 63.68579102 48.03857422 C65.24560448 48.03976761 65.24560448 48.03976761 66.83692932 48.04098511 C69.18359375 48.16796875 69.18359375 48.16796875 70.18359375 49.16796875 C70.27750671 51.07040637 70.30103033 52.97635334 70.29711914 54.88110352 C70.29704361 56.10229385 70.29696808 57.32348419 70.29689026 58.5816803 C70.29178286 59.92424561 70.28656686 61.2668105 70.28125 62.609375 C70.27938574 63.97558033 70.27796188 65.34178632 70.27696228 66.70799255 C70.27313769 70.3099857 70.26330792 73.91193875 70.2522583 77.51391602 C70.24204291 81.1870062 70.23746439 84.86010284 70.23242188 88.53320312 C70.22168559 95.74480998 70.20460989 102.95638375 70.18359375 110.16796875 C57.16083872 110.26107891 44.13816425 110.3319407 31.11514282 110.37521744 C25.06655022 110.39599907 19.01818713 110.42414289 12.96972656 110.46972656 C7.12119321 110.51352241 1.27287915 110.53717652 -4.57580566 110.54747772 C-6.79548591 110.55480896 -9.01515558 110.56912319 -11.23474121 110.59088898 C-29.81964101 110.76571516 -47.06703735 109.98658243 -61.62890625 96.98046875 C-69.48447119 88.62348477 -70.96170243 78.22589698 -71.01953125 67.25390625 C-71.02523132 66.40301422 -71.0309314 65.55212219 -71.0368042 64.67544556 C-71.04621912 62.87853219 -71.05277417 61.08160184 -71.05664062 59.28466797 C-71.06630187 56.57227386 -71.09734019 53.86065276 -71.12890625 51.1484375 C-71.21209013 37.58775 -70.72084521 24.77462438 -61.1015625 14.30078125 C-44.93476662 -1.10561319 -20.79027417 0.0082647 0 0 Z " fill="#000000" transform="translate(377.81640625,1.83203125)"/>
<path d="M0 0 C4.65870233 -0.22460366 9.31417694 -0.38673582 13.97705078 -0.49438477 C15.55833894 -0.53930224 17.13926064 -0.60046629 18.71923828 -0.67895508 C33.51394781 -1.39482812 33.51394781 -1.39482812 39.77734375 4.26953125 C41.19801418 5.83454528 42.60587919 7.41128966 44 9 C45.70365847 10.44724207 47.43076052 11.8676729 49.1875 13.25 C54.32694428 17.41084769 59.32326152 21.71734489 64.30908203 26.05932617 C68.89043346 30.0464122 73.50710443 33.98785505 78.15136719 37.90136719 C82.16384085 41.28481864 86.14718561 44.70090777 90.125 48.125 C95.05055649 52.36353714 100.03368189 56.51534496 105.109375 60.57421875 C109.50767195 64.265222 113.73213724 68.15892351 118 72 C118.33 48.24 118.66 24.48 119 0 C129.56 0 140.12 0 151 0 C152.55753311 1.55753311 152.12595507 3.04692201 152.12698364 5.21362305 C152.12980347 6.12228119 152.13262329 7.03093933 152.13552856 7.96713257 C152.13249222 9.47420273 152.13249222 9.47420273 152.12939453 11.01171875 C152.13202301 12.58960678 152.13202301 12.58960678 152.13470459 14.19937134 C152.13912543 17.69543074 152.13618429 21.19144003 152.1328125 24.6875 C152.13348547 27.10506195 152.13445544 29.52262383 152.13571167 31.94018555 C152.13718896 37.01449221 152.13503309 42.08878131 152.13037109 47.16308594 C152.1246738 53.68384703 152.12795263 60.20456696 152.13394356 66.72532654 C152.13754833 71.71968906 152.13641097 76.71404174 152.13381577 81.70840454 C152.13314626 84.11349492 152.13397572 86.51858618 152.13629532 88.92367554 C152.13882048 92.27856835 152.13498317 95.6333935 152.12939453 98.98828125 C152.13141876 99.99299469 152.13344299 100.99770813 152.13552856 102.03286743 C152.13270874 102.94152557 152.12988892 103.85018372 152.12698364 104.78637695 C152.1264181 105.97768974 152.1264181 105.97768974 152.12584114 107.19306946 C152 109 152 109 151 110 C146.28327824 110.31681963 141.56393872 110.35701463 136.83764648 110.4050293 C135.24985878 110.4265099 133.66218626 110.46049422 132.07495117 110.50756836 C117.2117867 110.94430884 117.2117867 110.94430884 112.35546875 107.35546875 C111.20782327 106.26691569 110.0877394 105.14841669 109 104 C107.81827429 102.987534 106.62808834 101.98485988 105.4296875 100.9921875 C104.24255747 99.95567831 103.05772023 98.91653822 101.875 97.875 C100.56537165 96.73146443 99.25546929 95.5882426 97.9453125 94.4453125 C97.28950195 93.87200195 96.63369141 93.29869141 95.95800781 92.70800781 C88.91009766 86.55998045 81.82714494 80.4536227 74.5625 74.5625 C68.88383143 69.9496226 63.3724165 65.15512998 57.85546875 60.3515625 C54.08613073 57.06997625 50.29664066 53.81243262 46.5 50.5625 C45.94916748 50.09094482 45.39833496 49.61938965 44.83081055 49.13354492 C43.80063264 48.25189486 42.77035394 47.37036256 41.73994446 46.48898315 C39.92544923 44.93620208 38.11200308 43.38220335 36.29882812 41.82788086 C35.36786316 41.02984291 35.36786316 41.02984291 34.41809082 40.21568298 C33.95012085 39.8145076 33.48215088 39.41333221 33 39 C32.98969254 39.87474472 32.97938507 40.74948944 32.96876526 41.65074158 C32.8709649 49.87682358 32.76847587 58.10283072 32.66066074 66.3287878 C32.60539313 70.55827614 32.55196715 74.78777133 32.50268555 79.01733398 C32.45509841 83.09574663 32.40275792 87.17407262 32.34705925 91.25238228 C32.32661 92.81175148 32.30790125 94.37114446 32.29092598 95.93055534 C32.26693856 98.1073559 32.23687681 100.28399124 32.20532227 102.46069336 C32.18977798 103.70201523 32.1742337 104.9433371 32.15821838 106.22227478 C32 109 32 109 31 110 C28.79349344 110.10012401 26.58377614 110.1308118 24.375 110.1328125 C23.71290527 110.13376923 23.05081055 110.13472595 22.36865234 110.13571167 C20.96647039 110.13639326 19.5642853 110.13454042 18.16210938 110.13037109 C16.00904287 110.12502246 13.85618498 110.1303167 11.703125 110.13671875 C10.34374954 110.13605796 8.9843742 110.13477679 7.625 110.1328125 C6.37976563 110.13168457 5.13453125 110.13055664 3.8515625 110.12939453 C1 110 1 110 0 109 C-0.09550698 107.58321089 -0.12188483 106.16168759 -0.12025452 104.74168396 C-0.12162918 103.8231665 -0.12300385 102.90464905 -0.12442017 101.95829773 C-0.12082489 100.94266251 -0.11722961 99.92702728 -0.11352539 98.88061523 C-0.11367142 97.81733002 -0.11381744 96.7540448 -0.1139679 95.65853882 C-0.11326825 92.12520342 -0.10547343 88.59192 -0.09765625 85.05859375 C-0.09579225 82.61621632 -0.09436827 80.17383851 -0.09336853 77.73146057 C-0.08954189 71.28865536 -0.07971037 64.84587252 -0.06866455 58.40307617 C-0.05845356 51.83447574 -0.05387158 45.2658717 -0.04882812 38.69726562 C-0.03808823 25.79816751 -0.02120104 12.89908494 0 0 Z " fill="#000000" transform="translate(2,3)"/>
</svg>
