<?xml version="1.0" encoding="UTF-8"?>
<svg version="1.1" xmlns="http://www.w3.org/2000/svg" width="287" height="278">
<path d="M0 0 C4.13625009 1.63065645 6.89956599 4.63223452 9.96191406 7.73486328 C10.84061157 8.61312271 10.84061157 8.61312271 11.73706055 9.50912476 C13.66802839 11.44148356 15.59181947 13.38082516 17.515625 15.3203125 C18.85468611 16.66310456 20.19419009 18.00545513 21.53411865 19.34738159 C25.05664429 22.87753717 28.57312203 26.41365806 32.08837891 29.9510498 C35.67768551 33.56082851 39.27267256 37.16494015 42.8671875 40.76953125 C49.91703318 47.84081558 56.96050337 54.91841413 64 62 C62.36934355 66.13625009 59.36776548 68.89956599 56.26513672 71.96191406 C55.38687729 72.84061157 55.38687729 72.84061157 54.49087524 73.73706055 C52.55851644 75.66802839 50.61917484 77.59181947 48.6796875 79.515625 C47.33689544 80.85468611 45.99454487 82.19419009 44.65261841 83.53411865 C41.12246283 87.05664429 37.58634194 90.57312203 34.0489502 94.08837891 C30.43917149 97.67768551 26.83505985 101.27267256 23.23046875 104.8671875 C16.15918442 111.91703318 9.08158587 118.96050337 2 126 C-2.07010018 124.37341349 -4.83628996 121.4733231 -7.88598633 118.4362793 C-8.46363739 117.86855804 -9.04128845 117.30083679 -9.63644409 116.71591187 C-11.5405789 114.84092867 -13.43689215 112.95829149 -15.33203125 111.07421875 C-16.65149959 109.76625582 -17.97097293 108.45829792 -19.29045105 107.15034485 C-22.05225735 104.40952887 -24.80939258 101.66410004 -27.56420898 98.91625977 C-31.09963101 95.39183629 -34.65323491 91.88636052 -38.21144581 88.38496685 C-40.94174358 85.6918526 -43.65859461 82.985478 -46.37189293 80.27524757 C-47.67673091 78.97647366 -48.9865821 77.68271666 -50.30143166 76.39407921 C-52.13568629 74.5938224 -53.95019135 72.77571389 -55.76098633 70.9519043 C-56.309991 70.42132919 -56.85899567 69.89075409 -57.42463684 69.34410095 C-59.60956056 67.1094381 -60.95060826 65.68857548 -61.17877197 62.50772095 C-59.53677316 59.01453065 -57.10636566 56.58189464 -54.37866211 53.92456055 C-53.79330185 53.33861618 -53.20794159 52.75267181 -52.60484314 52.14897156 C-50.67167493 50.21858543 -48.72473569 48.30274605 -46.77734375 46.38671875 C-45.43268782 45.04952472 -44.08891353 43.7114436 -42.74598694 42.37251282 C-39.21195867 38.85374468 -35.66608269 35.34715463 -32.11761475 31.84295654 C-28.49761713 28.26390294 -24.88894015 24.67347524 -21.27929688 21.08398438 C-14.19723867 14.04480381 -7.1026135 7.01843523 0 0 Z M-0.56288147 25.44262695 C-1.23572678 26.11769287 -1.90857208 26.79275879 -2.60180664 27.48828125 C-3.36251968 28.24906982 -4.12323273 29.0098584 -4.90699768 29.79370117 C-5.73304001 30.62490479 -6.55908234 31.4561084 -7.41015625 32.3125 C-8.25219101 33.15594971 -9.09422577 33.99939941 -9.96177673 34.8684082 C-12.66436106 37.57661323 -15.36345742 40.28826562 -18.0625 43 C-19.88844406 44.83095639 -21.71461292 46.66168862 -23.54101562 48.4921875 C-28.02996053 52.99218886 -32.51604261 57.49502919 -37 62 C-35.60919475 65.13738154 -33.98977796 67.25475281 -31.56005859 69.66699219 C-30.85948334 70.36741638 -30.15890808 71.06784058 -29.43710327 71.78948975 C-28.68184357 72.53442688 -27.92658386 73.27936401 -27.1484375 74.046875 C-26.37440582 74.81807678 -25.60037415 75.58927856 -24.80288696 76.3838501 C-22.33158077 78.84396856 -19.85340817 81.29703848 -17.375 83.75 C-15.69745948 85.41750894 -14.02037055 87.08547232 -12.34375 88.75390625 C-8.23439081 92.8412237 -4.11937353 96.92277696 0 101 C3.18259851 99.59490901 5.31348466 97.93078658 7.75878906 95.46826172 C8.47923401 94.74766571 9.19967896 94.0270697 9.94195557 93.28463745 C10.70876648 92.50750397 11.47557739 91.73037048 12.265625 90.9296875 C13.45572174 89.73534592 13.45572174 89.73534592 14.66986084 88.51687622 C17.20130703 85.97424052 19.72570803 83.42473652 22.25 80.875 C23.96568617 79.14928247 25.68182662 77.42401645 27.3984375 75.69921875 C31.60424248 71.47136968 35.80428507 67.23786131 40 63 C39.34 62.01 38.68 61.02 38 60 C37.34 60 36.68 60 36 60 C35.67 59.01 35.34 58.02 35 57 C34.34 57 33.68 57 33 57 C32.67 56.01 32.34 55.02 32 54 C31.34 54 30.68 54 30 54 C29.505 52.515 29.505 52.515 29 51 C28.34 51 27.68 51 27 51 C26.505 49.515 26.505 49.515 26 48 C25.34 48 24.68 48 24 48 C23.505 46.515 23.505 46.515 23 45 C22.34 45 21.68 45 21 45 C20.505 43.515 20.505 43.515 20 42 C19.34 42 18.68 42 18 42 C17.505 40.515 17.505 40.515 17 39 C16.34 39 15.68 39 15 39 C14.78472656 38.45859375 14.56945312 37.9171875 14.34765625 37.359375 C12.52713205 34.17213842 10.04241138 31.79153966 7.4375 29.25 C6.67663086 28.49009766 6.67663086 28.49009766 5.90039062 27.71484375 C2.91474084 23.93669624 2.91474084 23.93669624 -0.56288147 25.44262695 Z " fill="#EDED2F" transform="translate(61,76)"/>
<path d="M0 0 C3 0 3 0 4.578125 1.50390625 C5.12984375 2.18324219 5.6815625 2.86257812 6.25 3.5625 C8.73969806 6.65058778 8.73969806 6.65058778 11.70552063 9.25268555 C15.02275792 11.88120366 16.76583502 13.89369706 17.65628052 18.10057068 C17.90584775 21.97005387 17.94489048 25.80933876 17.90234375 29.68359375 C17.91173855 31.10850802 17.92420235 32.53340506 17.93959045 33.95826721 C17.97170739 37.68878015 17.96241514 41.41805912 17.94421387 45.14862061 C17.93302489 48.96314807 17.96138913 52.7773648 17.98632812 56.59179688 C18.02938451 64.0614492 18.02865532 71.53024179 18 79 C22.11491693 74.90975967 26.22657094 70.81627791 30.33520508 66.71972656 C31.73404655 65.32592098 33.13378326 63.93301328 34.53442383 62.54101562 C36.54482999 60.54270748 38.55201886 58.54121682 40.55859375 56.5390625 C41.18777206 55.91504547 41.81695038 55.29102844 42.4651947 54.64810181 C43.33598412 53.77742569 43.33598412 53.77742569 44.22436523 52.88916016 C44.73732651 52.37841949 45.25028778 51.86767883 45.77879333 51.34146118 C47.11566803 49.99484031 47.11566803 49.99484031 48 48 C51 48 51 48 52.71875 49.64453125 C53.60046875 50.71767578 53.60046875 50.71767578 54.5 51.8125 C56.97553626 54.82397924 56.97553626 54.82397924 59.78125 57.51171875 C60.1834375 58.00285156 60.585625 58.49398437 61 59 C60.57660299 62.27572109 59.45011857 63.91954819 57.13256836 66.20800781 C56.53202133 66.80832825 55.9314743 67.40864868 55.31272888 68.02716064 C54.66167679 68.66272888 54.01062469 69.29829712 53.33984375 69.953125 C52.67537735 70.61334656 52.01091095 71.27356812 51.3263092 71.95379639 C49.20364437 74.0596764 47.07078395 76.15488328 44.9375 78.25 C43.49606066 79.67639232 42.05529691 81.1034677 40.61523438 82.53125 C37.08461168 86.02880594 33.54480947 89.51682565 30 93 C31.29539616 95.8635556 32.64364291 97.87727841 34.9050293 100.05273438 C35.48870773 100.62012329 36.07238617 101.18751221 36.67375183 101.77209473 C37.30090591 102.37324097 37.92806 102.97438721 38.57421875 103.59375 C39.89429914 104.883686 41.21394784 106.1740639 42.53320312 107.46484375 C44.61548225 109.4911781 46.70139603 111.51336968 48.79516602 113.52783203 C50.81591188 115.47629837 52.82089463 117.43989816 54.82421875 119.40625 C55.45744553 120.00739624 56.0906723 120.60854248 56.74308777 121.22790527 C58.4831543 122.94726562 58.4831543 122.94726562 61 126 C60.57095128 129.85518895 58.77733896 131.51628519 56 134.125 C53.10714412 136.77060724 53.10714412 136.77060724 51 140 C48 140 48 140 46.59545898 138.671875 C46.08829346 138.03765625 45.58112793 137.4034375 45.05859375 136.75 C41.96295 133.0557511 38.69692541 129.58850389 35.28515625 126.1875 C34.78076019 125.68412109 34.27636414 125.18074219 33.75668335 124.66210938 C32.1939144 123.10608885 30.62828528 121.55298463 29.0625 120 C27.98609346 118.92862113 26.90991986 117.85700818 25.83398438 116.78515625 C23.22576146 114.18697269 20.61311183 111.59326614 18 109 C18.01633987 109.77292892 18.03267975 110.54585785 18.04951477 111.34220886 C18.19291001 118.68216655 18.27223673 126.01887886 18.28240681 133.36013317 C18.28981934 137.13338924 18.32064486 140.90321703 18.40795898 144.67553711 C19.02371486 172.44518174 19.02371486 172.44518174 12.30619812 179.79060364 C9.68018494 182.14253927 6.95418724 184.07612884 4 186 C3.505 186.99 3.505 186.99 3 188 C2.01 188 1.02 188 0 188 C0 125.96 0 63.92 0 0 Z " fill="#EDED30" transform="translate(184,45)"/>
<path d="M0 0 C3 0 3 0 4.54296875 1.46875 C5.08566406 2.1390625 5.62835938 2.809375 6.1875 3.5 C8.76100481 6.69944868 8.76100481 6.69944868 11.92579079 9.26953697 C15.1276327 11.65436897 17.504164 13.96660416 18.47784185 17.95960283 C19.29647904 24.17076307 19.15421667 30.44538112 19.13037109 36.69775391 C19.15104745 38.82400835 19.17502815 40.95023284 19.20205688 43.07641602 C19.26408993 48.84139681 19.27470677 54.60537722 19.27219343 60.37065172 C19.27385662 65.19136441 19.2983591 70.01186131 19.32209265 74.83250749 C19.37682542 86.21318341 19.38750398 97.59334138 19.37255859 108.97412109 C19.35808953 120.69245915 19.42483589 132.40838691 19.53067338 144.12620223 C19.61839281 154.20391484 19.65165272 164.28085118 19.64260161 174.35893953 C19.63796835 180.37059488 19.65436477 186.38030409 19.72474289 192.39159012 C19.78893257 198.05147234 19.78483504 203.70738533 19.72985458 209.36732483 C19.72098599 211.43523928 19.73564519 213.50342054 19.77654266 215.57094955 C19.9578003 225.40668301 19.94754946 232.92119613 12.92067683 240.35958326 C10.06129306 243.06199586 7.06082769 245.52861815 4 248 C3.505 248.99 3.505 248.99 3 250 C2.01 250 1.02 250 0 250 C0 167.5 0 85 0 0 Z " fill="#EDED2F" transform="translate(153,14)"/>
<path d="M0 0 C0 43.23 0 86.46 0 131 C-4.77288375 129.80677906 -6.91021723 127.49279922 -10.23730469 124.10327148 C-11.15989326 123.18134003 -11.15989326 123.18134003 -12.10112 122.24078369 C-14.1318968 120.20791723 -16.15184186 118.16463179 -18.171875 116.12109375 C-19.57797869 114.70939476 -20.98474628 113.29835676 -22.39215088 111.88795471 C-26.09445495 108.17419679 -29.78766169 104.45151782 -33.47906494 100.72692871 C-37.24753196 96.92777269 -41.02450676 93.13709597 -44.80078125 89.34570312 C-52.20888676 81.9054239 -59.60741212 74.45569534 -67 67 C-65.52011778 63.56267063 -63.58715467 61.34920327 -60.93676758 58.72558594 C-59.67954643 57.47343292 -59.67954643 57.47343292 -58.39692688 56.19598389 C-57.48863632 55.30115295 -56.58034576 54.40632202 -55.64453125 53.484375 C-54.21550872 52.06330239 -52.7864889 50.64222705 -51.3576231 49.22099686 C-49.35394015 47.23043846 -47.34575947 45.2444481 -45.33752441 43.25848389 C-41.36284983 39.32691892 -37.39472299 35.3887785 -33.43008995 31.44709015 C-32.05510869 30.08219155 -30.67650359 28.72094662 -29.29780579 27.35980225 C-24.85514453 22.95111963 -20.55361387 18.49302305 -16.49180603 13.72943115 C-14.02727421 10.87233176 -11.40336808 8.18072239 -8.75 5.5 C-7.9765625 4.695625 -7.9765625 4.695625 -7.1875 3.875 C-3.35204082 0 -3.35204082 0 0 0 Z M-21.31665039 43.203125 C-22.32955436 44.21618822 -23.33968916 45.23202462 -24.34765625 46.25 C-24.87894638 46.78270508 -25.41023651 47.31541016 -25.95762634 47.86425781 C-27.66160073 49.5738501 -29.36207405 51.28687894 -31.0625 53 C-32.21396453 54.15647723 -33.36565428 55.31273028 -34.51757812 56.46875 C-37.34767625 59.30990086 -40.17463819 62.15413941 -43 65 C-38.18825126 70.79120001 -33.02258518 76.12808483 -27.6875 81.4375 C-26.86443359 82.26443359 -26.04136719 83.09136719 -25.19335938 83.94335938 C-24.41154297 84.72388672 -23.62972656 85.50441406 -22.82421875 86.30859375 C-22.11354248 87.01814209 -21.40286621 87.72769043 -20.6706543 88.45874023 C-19.25633525 90.11301173 -19.25633525 90.11301173 -18 90 C-18 73.83 -18 57.66 -18 41 C-19.41205547 40.88514522 -19.41205547 40.88514522 -21.31665039 43.203125 Z " fill="#ECEC2F" transform="translate(140,147)"/>
<path d="M0 0 C0 43.23 0 86.46 0 131 C-3 131 -3 131 -4.36183167 129.71582031 C-4.85803513 129.09288086 -5.35423859 128.46994141 -5.86547852 127.828125 C-9.08938978 123.98542695 -12.48336518 120.40284353 -16.02709961 116.859375 C-16.86810384 116.01755928 -16.86810384 116.01755928 -17.72609806 115.15873718 C-19.53289668 113.35385919 -21.34257348 111.55189785 -23.15234375 109.75 C-24.42051264 108.48369957 -25.68845842 107.21717567 -26.95619202 105.95043945 C-30.26980711 102.64061579 -33.58641572 99.3338081 -36.90368652 96.02764893 C-40.29765305 92.64396961 -43.6887388 89.25740585 -47.08007812 85.87109375 C-53.7172578 79.24459178 -60.35760795 72.62127682 -67 66 C-65.3546038 61.80015287 -62.26298654 58.97465584 -59.12915039 55.85449219 C-58.52895584 55.24918671 -57.92876129 54.64388123 -57.31037903 54.02023315 C-55.32794895 52.02391891 -53.33819171 50.03510518 -51.34765625 48.046875 C-49.96742493 46.66275732 -48.587418 45.27841584 -47.20762634 43.89385986 C-44.31670528 40.99548 -41.42194215 38.1010032 -38.5246582 35.20898438 C-34.80581575 31.49594895 -31.09848847 27.77164656 -27.39415836 24.04413986 C-24.54871309 21.18399394 -21.69640449 18.33077173 -18.84203911 15.47953033 C-17.47171451 14.10869111 -16.10376308 12.73547546 -14.73820686 11.35988617 C-12.83261109 9.44200891 -10.9177912 7.53384728 -9.00024414 5.62792969 C-8.43442627 5.05446808 -7.8686084 4.48100647 -7.28564453 3.89016724 C-3.34258524 0 -3.34258524 0 0 0 Z M-21.31665039 43.203125 C-22.32955436 44.21618822 -23.33968916 45.23202462 -24.34765625 46.25 C-24.87894638 46.78270508 -25.41023651 47.31541016 -25.95762634 47.86425781 C-27.66160073 49.5738501 -29.36207405 51.28687894 -31.0625 53 C-32.21396453 54.15647723 -33.36565428 55.31273028 -34.51757812 56.46875 C-37.34767625 59.30990086 -40.17463819 62.15413941 -43 65 C-38.18825126 70.79120001 -33.02258518 76.12808483 -27.6875 81.4375 C-26.86443359 82.26443359 -26.04136719 83.09136719 -25.19335938 83.94335938 C-24.41154297 84.72388672 -23.62972656 85.50441406 -22.82421875 86.30859375 C-22.11354248 87.01814209 -21.40286621 87.72769043 -20.6706543 88.45874023 C-19.25633525 90.11301173 -19.25633525 90.11301173 -18 90 C-18 73.83 -18 57.66 -18 41 C-19.41205547 40.88514522 -19.41205547 40.88514522 -21.31665039 43.203125 Z " fill="#ECEC2F" transform="translate(140,0)"/>
<path d="M0 0 C3.76603869 1.56282982 6.13639151 3.9063475 8.984375 6.7890625 C9.44483215 7.25234955 9.90528931 7.7156366 10.37969971 8.19296265 C11.84125078 9.66565898 13.29567168 11.14517403 14.75 12.625 C15.74302611 13.62806322 16.73651089 14.63067257 17.73046875 15.6328125 C20.15897941 18.08330835 22.58114675 20.5399667 25 23 C23.43717018 26.76603869 21.0936525 29.13639151 18.2109375 31.984375 C17.74765045 32.44483215 17.2843634 32.90528931 16.80703735 33.37969971 C15.33434102 34.84125078 13.85482597 36.29567168 12.375 37.75 C11.37193678 38.74302611 10.36932743 39.73651089 9.3671875 40.73046875 C6.91669165 43.15897941 4.4600333 45.58114675 2 48 C-1.76603869 46.43717018 -4.13639151 44.0936525 -6.984375 41.2109375 C-7.44483215 40.74765045 -7.90528931 40.2843634 -8.37969971 39.80703735 C-9.84125078 38.33434102 -11.29567168 36.85482597 -12.75 35.375 C-13.74302611 34.37193678 -14.73651089 33.36932743 -15.73046875 32.3671875 C-18.15897941 29.91669165 -20.58114675 27.4600333 -23 25 C-21.43717018 21.23396131 -19.0936525 18.86360849 -16.2109375 16.015625 C-15.74765045 15.55516785 -15.2843634 15.09471069 -14.80703735 14.62030029 C-13.33434102 13.15874922 -11.85482597 11.70432832 -10.375 10.25 C-9.37193678 9.25697389 -8.36932743 8.26348911 -7.3671875 7.26953125 C-4.91669165 4.84102059 -2.4600333 2.41885325 0 0 Z " fill="#EDED2F" transform="translate(254,115)"/>
<path d="M0 0 C1.4375 1.36328125 1.4375 1.36328125 3 3.3125 C6.13986157 7.0735815 9.460123 10.55562899 12.9375 14 C13.43443359 14.49282471 13.93136719 14.98564941 14.44335938 15.4934082 C15.62688819 16.66431547 16.81314672 17.8324626 18 19 C16.54254576 22.36335594 14.68882146 24.54534005 12.0859375 27.109375 C11.32539062 27.86347656 10.56484375 28.61757812 9.78125 29.39453125 C8.9871875 30.17183594 8.193125 30.94914062 7.375 31.75 C6.57320312 32.54277344 5.77140625 33.33554688 4.9453125 34.15234375 C2.96797154 36.10614493 0.98611091 38.05512103 -1 40 C-4.36335594 38.54254576 -6.54534005 36.68882146 -9.109375 34.0859375 C-9.86347656 33.32539063 -10.61757813 32.56484375 -11.39453125 31.78125 C-12.17183594 30.9871875 -12.94914062 30.193125 -13.75 29.375 C-14.54277344 28.57320312 -15.33554687 27.77140625 -16.15234375 26.9453125 C-18.10614493 24.96797154 -20.05512103 22.98611091 -22 21 C-19.70597565 15.7518956 -15.56505419 12.23602837 -11.5625 8.25 C-10.78583984 7.45722656 -10.00917969 6.66445312 -9.20898438 5.84765625 C-8.0865332 4.72423828 -8.0865332 4.72423828 -6.94140625 3.578125 C-6.25763916 2.89137695 -5.57387207 2.20462891 -4.86938477 1.49707031 C-3 0 -3 0 0 0 Z " fill="#ECEC2F" transform="translate(64,119)"/>
</svg>
