<?xml version="1.0" encoding="UTF-8"?>
<svg version="1.1" xmlns="http://www.w3.org/2000/svg" width="75" height="75">
<path d="M0 0 C4.64080887 2.09691569 7.73327953 5.32828506 11.3125 8.875 C11.97056641 9.50019531 12.62863281 10.12539063 13.30664062 10.76953125 C13.92345703 11.37925781 14.54027344 11.98898438 15.17578125 12.6171875 C15.74208252 13.17003418 16.30838379 13.72288086 16.8918457 14.29248047 C18 16 18 16 17.88769531 17.98193359 C16.81554775 20.41932956 15.52720503 21.81381694 13.62109375 23.671875 C12.61079102 24.66767578 12.61079102 24.66767578 11.58007812 25.68359375 C10.87302734 26.36550781 10.16597656 27.04742187 9.4375 27.75 C8.72658203 28.44738281 8.01566406 29.14476563 7.28320312 29.86328125 C5.52869286 31.5824658 3.76756648 33.29425872 2 35 C-2.64080887 32.90308431 -5.73327953 29.67171494 -9.3125 26.125 C-9.97056641 25.49980469 -10.62863281 24.87460937 -11.30664062 24.23046875 C-12.23186523 23.31587891 -12.23186523 23.31587891 -13.17578125 22.3828125 C-13.74208252 21.82996582 -14.30838379 21.27711914 -14.8918457 20.70751953 C-16 19 -16 19 -15.88769531 17.01806641 C-14.81554775 14.58067044 -13.52720503 13.18618306 -11.62109375 11.328125 C-10.94755859 10.66425781 -10.27402344 10.00039063 -9.58007812 9.31640625 C-8.87302734 8.63449219 -8.16597656 7.95257812 -7.4375 7.25 C-6.72658203 6.55261719 -6.01566406 5.85523438 -5.28320312 5.13671875 C-3.52869286 3.4175342 -1.76756648 1.70574128 0 0 Z M0 8 C-2.97 10.97 -5.94 13.94 -9 17 C-8.0925 18.093125 -7.185 19.18625 -6.25 20.3125 C-5.73953125 20.92738281 -5.2290625 21.54226562 -4.703125 22.17578125 C-2.76406559 24.35955816 -2.76406559 24.35955816 1 27 C5.455 22.545 5.455 22.545 10 18 C9.0925 16.906875 8.185 15.81375 7.25 14.6875 C6.73953125 14.07261719 6.2290625 13.45773438 5.703125 12.82421875 C3.76406559 10.64044184 3.76406559 10.64044184 0 8 Z " fill="#ECEC2F" transform="translate(16,20)"/>
<path d="M0 0 C3 0 3 0 4.64453125 1.515625 C6.46764208 4.85711921 6.56438523 8.02841641 6.6875 11.75 C6.72166016 12.44738281 6.75582031 13.14476562 6.79101562 13.86328125 C6.87308295 15.57497108 6.93822919 17.2874576 7 19 C8.98 17.02 10.96 15.04 13 13 C14.32 13.66 15.64 14.32 17 15 C17 18 17 18 15.46875 19.82421875 C14.8190625 20.43910156 14.169375 21.05398437 13.5 21.6875 C12.8503125 22.31011719 12.200625 22.93273437 11.53125 23.57421875 C10.77328125 24.27998047 10.77328125 24.27998047 10 25 C10.40992188 25.47050781 10.81984375 25.94101562 11.2421875 26.42578125 C11.78101563 27.04839844 12.31984375 27.67101562 12.875 28.3125 C13.40867187 28.92738281 13.94234375 29.54226562 14.4921875 30.17578125 C16 32 16 32 18 35 C17.34 35.99 16.68 36.98 16 38 C11.73879185 37.52653243 9.86533763 34.97938092 7 32 C6.96261719 33.03640625 6.92523438 34.0728125 6.88671875 35.140625 C6.82104212 36.51045184 6.75459536 37.88024191 6.6875 39.25 C6.66494141 39.93191406 6.64238281 40.61382812 6.61914062 41.31640625 C6.40157325 45.39084989 6.07309685 48.16778723 3 51 C2.01 51 1.02 51 0 51 C0 34.17 0 17.34 0 0 Z " fill="#ECEC2F" transform="translate(49,12)"/>
<path d="M0 0 C0.66 0 1.32 0 2 0 C5.51563983 3.5800341 6.50207728 5.92656489 6.51757812 10.90429688 C6.53018677 12.06900513 6.54279541 13.23371338 6.55578613 14.43371582 C6.54364075 16.30730774 6.54364075 16.30730774 6.53125 18.21875 C6.5350769 19.50938354 6.53890381 20.80001709 6.54284668 22.12976074 C6.5487312 24.85672229 6.54021376 27.58315833 6.52148438 30.31005859 C6.49869402 33.79728782 6.51182293 37.28328558 6.53577423 40.77046967 C6.55374291 44.10749394 6.54114484 47.44419078 6.53125 50.78125 C6.53934692 52.03031128 6.54744385 53.27937256 6.55578613 54.56628418 C6.54317749 55.73099243 6.53056885 56.89570068 6.51757812 58.09570312 C6.51439575 59.11764771 6.51121338 60.13959229 6.50793457 61.19250488 C5.86699431 64.73515931 4.49926284 66.45495938 2 69 C1.34 69 0.68 69 0 69 C0 46.23 0 23.46 0 0 Z " fill="#ECEC2F" transform="translate(41,3)"/>
<path d="M0 0 C0.99 0.33 1.98 0.66 3 1 C2.67 12.55 2.34 24.1 2 36 C-1.41085539 34.29457231 -3.07508103 33.1809007 -5.671875 30.59375 C-6.66767578 29.60181641 -6.66767578 29.60181641 -7.68359375 28.58984375 C-8.36550781 27.90019531 -9.04742188 27.21054688 -9.75 26.5 C-10.79607422 25.46552734 -10.79607422 25.46552734 -11.86328125 24.41015625 C-12.52199219 23.74886719 -13.18070313 23.08757813 -13.859375 22.40625 C-14.46233398 21.80103516 -15.06529297 21.19582031 -15.68652344 20.57226562 C-17 19 -17 19 -17 17 C-15.53125 15.5546875 -15.53125 15.5546875 -13.5 13.875 C-5.80625164 7.73088433 -5.80625164 7.73088433 0 0 Z M-5 14 C-6.35827971 15.64639965 -7.69254251 17.31295807 -9 19 C-6.525 20.98 -6.525 20.98 -4 23 C-4 20.03 -4 17.06 -4 14 C-4.33 14 -4.66 14 -5 14 Z " fill="#ECEC2F" transform="translate(36,39)"/>
<path d="M0 0 C0.33 11.88 0.66 23.76 1 36 C-2 36 -2 36 -3.54296875 34.53125 C-4.08566406 33.8609375 -4.62835938 33.190625 -5.1875 32.5 C-11.28260863 24.79399913 -11.28260863 24.79399913 -19 19 C-17.61314777 15.8804428 -15.99810509 13.74144201 -13.59375 11.328125 C-12.60181641 10.33232422 -12.60181641 10.33232422 -11.58984375 9.31640625 C-10.55537109 8.29353516 -10.55537109 8.29353516 -9.5 7.25 C-8.81035156 6.55261719 -8.12070312 5.85523438 -7.41015625 5.13671875 C-6.74886719 4.47800781 -6.08757813 3.81929688 -5.40625 3.140625 C-4.80103516 2.53766602 -4.19582031 1.93470703 -3.57226562 1.31347656 C-2 -0 -2 -0 0 0 Z M-7 13 C-8.35827971 14.64639965 -9.69254251 16.31295807 -11 18 C-8.525 19.98 -8.525 19.98 -6 22 C-6 19.03 -6 16.06 -6 13 C-6.33 13 -6.66 13 -7 13 Z " fill="#ECEC2F" transform="translate(38,0)"/>
<path d="M0 0 C2.62431483 1.31215742 4.2062114 2.67471849 6 5 C6 7.90651604 4.98190854 9.0230822 3.1875 11.3125 C1 13 1 13 -1 13 C-3.62431483 11.68784258 -5.2062114 10.32528151 -7 8 C-7 5.09348396 -5.98190854 3.9769178 -4.1875 1.6875 C-2 0 -2 0 0 0 Z " fill="#EDED30" transform="translate(69,31)"/>
<path d="M0 0 C2.86314093 1.38818954 4.23065505 3.44850168 6.0625 6 C3.8125 8.5625 3.8125 8.5625 1.0625 11 C-1.59673246 11 -2.61904341 10.2306065 -4.75 8.6875 C-5.9375 7 -5.9375 7 -5.8125 5 C-4.52284182 2.05220986 -3.43489326 0 0 0 Z " fill="#ECEC2F" transform="translate(16.9375,32)"/>
</svg>
