<?xml version="1.0" encoding="UTF-8"?>
<svg version="1.1" xmlns="http://www.w3.org/2000/svg" width="113" height="75">
<path d="M0 0 C24.42 0 48.84 0 74 0 C72 11 72 11 71 15 C75.29 14.67 79.58 14.34 84 14 C85.32 9.38 86.64 4.76 88 0 C95.59 0 103.18 0 111 0 C109.69585657 10.43314746 108.38477316 20.3971963 101.171875 28.44921875 C94.03332927 33.54634583 86.46648086 33.51778246 78 33.6875 C76.84371094 33.72166016 75.68742187 33.75582031 74.49609375 33.79101562 C71.66415954 33.87293108 68.83251299 33.94226522 66 34 C65.85377197 34.54003662 65.70754395 35.08007324 65.55688477 35.63647461 C64.89556445 38.07110922 64.22910312 40.50430679 63.5625 42.9375 C63.33240234 43.78763672 63.10230469 44.63777344 62.86523438 45.51367188 C62.64287109 46.32255859 62.42050781 47.13144531 62.19140625 47.96484375 C61.98717041 48.7137085 61.78293457 49.46257324 61.57250977 50.23413086 C61 52 61 52 60 53 C58.29227642 53.08713831 56.58101351 53.10700007 54.87109375 53.09765625 C53.93966553 53.09515869 53.0082373 53.09266113 52.04858398 53.09008789 C50.26109741 53.07643188 50.26109741 53.07643188 48.4375 53.0625 C44.663125 53.041875 40.88875 53.02125 37 53 C39.97 41.45 42.94 29.9 46 18 C34.60030842 18.22375382 34.60030842 18.22375382 23.20556641 18.60302734 C12.23156542 18.73864263 12.23156542 18.73864263 8.21276855 15.60754395 C4.25287548 11.3921739 0 5.92699258 0 0 Z " fill="#F8F8F9" transform="translate(0,22)"/>
<path d="M0 0 C13.3430852 -0.11580579 26.68605102 -0.20467113 40.02953625 -0.25906086 C46.22535631 -0.28516414 52.42083278 -0.32057664 58.61645508 -0.37719727 C64.59462681 -0.43148929 70.57246786 -0.46141503 76.55086708 -0.47438622 C78.83268757 -0.48363101 81.11448979 -0.50168387 83.39616966 -0.52865028 C86.59027717 -0.564902 89.78301509 -0.5699468 92.97729492 -0.56762695 C93.92244461 -0.58560333 94.8675943 -0.60357971 95.84138489 -0.62210083 C100.4267137 -0.58602148 102.35429999 -0.50799149 106.06391907 2.41047668 C108.63056521 5.84338588 109.12263701 7.41540938 109.0625 11.625 C109.05347656 12.44226562 109.04445313 13.25953125 109.03515625 14.1015625 C109.02355469 14.72804688 109.01195313 15.35453125 109 16 C96.41326241 16.34841287 83.8276812 16.61449468 71.23709393 16.77718258 C65.38964066 16.85529194 59.54549843 16.96110648 53.69995117 17.1315918 C48.05213567 17.29526867 42.40749126 17.38439592 36.75748634 17.42315865 C34.60855995 17.45075712 32.45979673 17.50466113 30.31223106 17.58595085 C13.89464655 18.18235056 13.89464655 18.18235056 8.97360611 14.47224808 C5.80269997 11.18812605 0 4.80879586 0 0 Z " fill="#F8F8F9" transform="translate(4,0)"/>
<path d="M0 0 C7.59 0 15.18 0 23 0 C22.38125 2.68125 21.7625 5.3625 21.125 8.125 C20.93437988 8.95789551 20.74375977 9.79079102 20.54736328 10.64892578 C19.56760716 14.85174862 18.44464654 18.92635705 17 23 C16.34 23 15.68 23 15 23 C13.31115591 20.8448556 11.73693718 18.68977466 10.1875 16.4375 C9.54844727 15.52387695 9.54844727 15.52387695 8.89648438 14.59179688 C8.03334947 13.3578143 7.17382494 12.12129875 6.31787109 10.88232422 C4.96653845 8.95220664 3.57180561 7.05809983 2.17578125 5.16015625 C0 2 0 2 0 0 Z " fill="#FF0000" transform="translate(16,45)"/>
</svg>
