<?xml version="1.0" encoding="UTF-8"?>
<svg version="1.1" xmlns="http://www.w3.org/2000/svg" width="500" height="587">
<path d="M0 0 C3.0625 0.25 3.0625 0.25 6.0625 2.25 C9.37336259 1.96725862 9.37336259 1.96725862 12.0625 0.25 C14.39547433 0.20907063 16.72955225 0.20758277 19.0625 0.25 C21.85558415 6.87391498 24.59517983 13.49733426 27.0625 20.25 C27.58199219 19.816875 28.10148437 19.38375 28.63671875 18.9375 C29.33410156 18.380625 30.03148437 17.82375 30.75 17.25 C31.43449219 16.693125 32.11898438 16.13625 32.82421875 15.5625 C35.59536727 13.93753333 36.90465029 13.61254587 40.0625 14.25 C42.37890625 16.4453125 42.37890625 16.4453125 44.625 19.375 C45.40101563 20.37789062 46.17703125 21.38078125 46.9765625 22.4140625 C49.10914953 25.3134224 51.15546559 28.19874494 53.0625 31.25 C53.7225 32.24 54.3825 33.23 55.0625 34.25 C57.50730079 34.06171228 57.50730079 34.06171228 60.0625 33.25 C60.76644612 31.93596724 61.42595658 30.5979743 62.0625 29.25 C64.83737524 26.53678866 66.89798319 24.5549925 70.6875 23.5625 C73.65065424 24.42025517 74.4707537 25.83719242 76.08154297 28.38012695 C77.88219642 31.81248254 78.82743671 35.45479163 79.8125 39.1875 C80.03292969 39.96029297 80.25335938 40.73308594 80.48046875 41.52929688 C81.76533263 46.24977504 82.29683783 50.36145251 82.0625 55.25 C83.2175 55.45625 84.3725 55.6625 85.5625 55.875 C107.03863891 60.76198517 127.944295 72.01193165 146.0625 84.25 C147.00222656 84.87648438 147.94195312 85.50296875 148.91015625 86.1484375 C154.86939199 90.21950736 160.47262745 94.69094352 166.0625 99.25 C167.07699219 100.054375 168.09148437 100.85875 169.13671875 101.6875 C170.14347656 102.491875 171.15023438 103.29625 172.1875 104.125 C173.11820312 104.86492187 174.04890625 105.60484375 175.0078125 106.3671875 C176.02488281 107.29917969 176.02488281 107.29917969 177.0625 108.25 C177.0625 108.91 177.0625 109.57 177.0625 110.25 C177.64572021 110.50942383 178.22894043 110.76884766 178.82983398 111.03613281 C182.89229639 113.24483298 185.88945254 116.74066436 189.125 120 C190.26400757 121.1442041 190.26400757 121.1442041 191.42602539 122.31152344 C197.40329923 128.40361066 202.75572834 134.7630273 207.83154297 141.61328125 C209.04573915 143.22771425 210.29665502 144.80401055 211.56640625 146.375 C235.91636191 176.86007751 250.22145827 214.35633843 256.75 252.5625 C256.86939941 253.25456543 256.98879883 253.94663086 257.11181641 254.65966797 C259.12068886 267.03560147 259.24885817 279.40453104 259.24780273 291.91040039 C259.24997707 294.78221748 259.26815637 297.65364173 259.28710938 300.52539062 C259.33471068 315.98792132 258.34673375 331.29831383 255.375 346.5 C255.20838867 347.35585693 255.04177734 348.21171387 254.87011719 349.09350586 C247.76014413 383.75619194 232.68776713 416.54109254 211.10546875 444.53125 C208.97040029 447.30111241 208.97040029 447.30111241 206.92578125 450.59375 C206.31089844 451.4703125 205.69601562 452.346875 205.0625 453.25 C204.4025 453.25 203.7425 453.25 203.0625 453.25 C202.84207031 453.78753906 202.62164062 454.32507813 202.39453125 454.87890625 C200.61058619 458.05443309 198.23205765 460.55417464 195.75 463.1875 C195.2230957 463.75162598 194.69619141 464.31575195 194.15332031 464.89697266 C182.26965746 477.54043363 170.10435149 489.00274807 156.0625 499.25 C155.26070313 499.83652344 154.45890625 500.42304688 153.6328125 501.02734375 C141.11313564 509.985025 128.0388401 517.80112557 114.0625 524.25 C112.99056396 524.74862549 112.99056396 524.74862549 111.89697266 525.25732422 C102.2746241 529.67611651 92.73290102 532.96636797 82.5 535.6875 C72.99256023 538.26536211 67.65659114 540.83003443 61.0625 548.25 C59.48528373 549.57444037 57.87986228 550.86591207 56.25 552.125 C52.30482753 555.23537892 48.45012137 558.4320537 44.625 561.6875 C39.77460106 565.80928006 34.91045636 569.90893793 29.953125 573.90234375 C27.78924943 575.65976161 25.66392102 577.44182929 23.546875 579.25390625 C22.32338214 580.27399605 21.09942901 581.29353407 19.875 582.3125 C19.03787476 583.04726562 19.03787476 583.04726562 18.18383789 583.796875 C15.17283053 586.26327739 12.9033781 587.59079183 8.9609375 587.796875 C4.61896789 587.18778107 3.07979622 586.34678242 -0.125 583.4375 C-1.50558594 582.22126953 -1.50558594 582.22126953 -2.9140625 580.98046875 C-3.3977832 580.54138184 -3.88150391 580.10229492 -4.37988281 579.64990234 C-6.62816146 577.62927072 -8.9357906 575.68166359 -11.24536133 573.73168945 C-12.39993551 572.75671927 -13.55092997 571.7774914 -14.69799805 570.79370117 C-17.63442873 568.25602088 -17.63442873 568.25602088 -20.9375 566.25 C-20.9375 565.59 -20.9375 564.93 -20.9375 564.25 C-21.73220703 563.91935547 -21.73220703 563.91935547 -22.54296875 563.58203125 C-25.79442275 561.77331051 -28.46182615 559.37328022 -31.25 556.9375 C-34.81870537 553.85523154 -38.34540283 550.84390627 -42.25 548.1875 C-43.136875 547.548125 -44.02375 546.90875 -44.9375 546.25 C-44.9375 545.59 -44.9375 544.93 -44.9375 544.25 C-45.515 543.981875 -46.0925 543.71375 -46.6875 543.4375 C-48.9375 542.25 -48.9375 542.25 -50.5 540.8359375 C-54.12299153 538.47867058 -58.02752253 537.74606911 -62.1875 536.6875 C-92.18296831 528.54654817 -119.74029049 513.57096577 -143.9375 494.25 C-144.86175781 493.52039063 -145.78601563 492.79078125 -146.73828125 492.0390625 C-154.12541537 486.11652661 -161.07045426 479.76028581 -167.9375 473.25 C-169.06865234 472.18265625 -169.06865234 472.18265625 -170.22265625 471.09375 C-174.71135248 466.73891151 -178.66641167 462.05193425 -182.578125 457.17578125 C-185.02711525 454.13887115 -187.54064128 451.16405749 -190.0625 448.1875 C-222.01554534 409.71642547 -241.04599982 358.36555753 -241.10546875 308.30859375 C-241.10879715 307.30143814 -241.11212555 306.29428253 -241.11555481 305.25660706 C-241.12058233 303.13811697 -241.12296444 301.01961909 -241.12280273 298.90112305 C-241.12497795 295.71975083 -241.14314808 292.5387325 -241.16210938 289.35742188 C-241.20861147 272.98573361 -240.12536265 257.22119459 -236.625 241.1875 C-236.4077124 240.17437744 -236.1904248 239.16125488 -235.96655273 238.11743164 C-231.6516902 218.46187227 -224.78943574 200.29548989 -215.9375 182.25 C-215.43992188 181.2290625 -214.94234375 180.208125 -214.4296875 179.15625 C-205.85397316 162.43576173 -194.67608161 147.19374338 -182.42919922 133.00048828 C-180.96894167 131.28689637 -179.56602853 129.53558299 -178.16015625 127.77734375 C-177.42667969 126.94332031 -176.69320312 126.10929687 -175.9375 125.25 C-175.2775 125.25 -174.6175 125.25 -173.9375 125.25 C-173.669375 124.610625 -173.40125 123.97125 -173.125 123.3125 C-171.9375 121.25 -171.9375 121.25 -168.9375 120.25 C-168.6075 119.59 -168.2775 118.93 -167.9375 118.25 C-166.9375 116.25 -166.9375 116.25 -163.9375 115.25 C-163.26620775 113.91898951 -162.60037611 112.58522188 -161.9375 111.25 C-136.49599002 85.22137825 -102.17624688 66.66291563 -67.9375 55.25 C-67.11925526 53.40673233 -67.11925526 53.40673233 -66.69140625 51.12890625 C-66.49579102 50.27981689 -66.30017578 49.43072754 -66.09863281 48.5559082 C-65.90108398 47.6505835 -65.70353516 46.74525879 -65.5 45.8125 C-61.25395268 27.56645268 -61.25395268 27.56645268 -57.9375 24.25 C-53.83080676 23.67697304 -52.29791389 23.9925615 -48.875 26.4375 C-46.14424588 28.95323411 -43.56265765 31.62484235 -40.9375 34.25 C-40.2775 34.58 -39.6175 34.91 -38.9375 35.25 C-38.65680664 34.66951904 -38.37611328 34.08903809 -38.08691406 33.4909668 C-36.21557932 29.84250002 -33.95143727 26.47661451 -31.6875 23.0625 C-31.22214844 22.32580078 -30.75679687 21.58910156 -30.27734375 20.83007812 C-28.01604005 17.44435206 -26.74207966 15.56689327 -22.8828125 14.046875 C-19.21578305 14.29977358 -17.8229082 15.3035111 -15.0625 17.6875 C-14.28132812 18.34621094 -13.50015625 19.00492188 -12.6953125 19.68359375 C-12.11523438 20.20050781 -11.53515625 20.71742187 -10.9375 21.25 C-10.82277344 20.57324219 -10.70804688 19.89648438 -10.58984375 19.19921875 C-9.81707919 15.70558256 -8.69727352 12.43405064 -7.5 9.0625 C-7.06816406 7.83144531 -6.63632813 6.60039062 -6.19140625 5.33203125 C-4.64531015 1.53181374 -4.16614496 0.35456553 0 0 Z M2.0625 12.25 C-1.07919523 19.4771408 -3.86707946 26.64162534 -5.9375 34.25 C-8.4375 34.6875 -8.4375 34.6875 -11.9375 34.25 C-14.1711532 32.53374669 -16.12606294 30.68642448 -18.10546875 28.68359375 C-19.01232422 27.97396484 -19.01232422 27.97396484 -19.9375 27.25 C-23.76226844 28.52492281 -24.52056598 30.10208255 -26.8125 33.375 C-27.51761719 34.365 -28.22273438 35.355 -28.94921875 36.375 C-30.12008471 38.06803998 -31.27564129 39.77216993 -32.39453125 41.5 C-34.10636698 44.10851158 -35.51215729 46.00858927 -38.25 47.5625 C-42.67396762 47.04808516 -45.73460409 44.21957236 -48.9375 41.25 C-49.5975 40.26 -50.2575 39.27 -50.9375 38.25 C-51.9275 38.58 -52.9175 38.91 -53.9375 39.25 C-54.82787145 41.95181682 -55.49265724 44.47682218 -56.0625 47.25 C-56.23209229 48.06162598 -56.40168457 48.87325195 -56.57641602 49.70947266 C-61.7813086 76.02749254 -57.11376636 101.00346367 -42.23193359 123.37695312 C-39.93586645 126.69936489 -37.53346096 129.93096129 -35.0625 133.125 C-34.5981958 133.72650879 -34.1338916 134.32801758 -33.65551758 134.94775391 C-31.47933021 137.66868447 -30.31019753 139.12576749 -26.9375 140.25 C-24.86493879 139.94788353 -22.79323733 139.63602899 -20.73095703 139.27026367 C-2.22023198 136.01866076 17.6991461 135.5388199 36.25 138.8125 C39.25092748 139.27931094 42.03041175 139.41413013 45.0625 139.25 C46.98255135 137.99882038 46.98255135 137.99882038 48.0625 136.25 C48.0625 135.59 48.0625 134.93 48.0625 134.25 C48.7225 134.25 49.3825 134.25 50.0625 134.25 C67.27224923 114.30751176 75.18003377 89.00203136 74.26367188 62.95117188 C73.73799477 55.89280846 71.89094882 49.06445987 70.0625 42.25 C69.72682903 40.91725325 69.39289406 39.58406471 69.0625 38.25 C65.80977927 39.67396885 63.6997328 41.45049042 61.1875 43.9375 C57.50734797 47.20722616 57.50734797 47.20722616 53.8125 47.5625 C50.80231336 46.12582001 49.93340571 44.75413404 48.18652344 42.00366211 C46.18273294 38.87741816 43.97804164 35.89039082 41.8125 32.875 C41.12414062 31.91400391 41.12414062 31.91400391 40.421875 30.93359375 C39.30295645 29.37176995 38.18285206 27.81079581 37.0625 26.25 C36.35673828 26.86488281 36.35673828 26.86488281 35.63671875 27.4921875 C35.01410156 28.03101563 34.39148438 28.56984375 33.75 29.125 C33.13511719 29.65867187 32.52023437 30.19234375 31.88671875 30.7421875 C27.61764455 34.2708013 27.61764455 34.2708013 24.51489258 34.15454102 C22.0625 33.25 22.0625 33.25 20.76049805 31.30053711 C20.29703979 30.0515564 20.29703979 30.0515564 19.82421875 28.77734375 C19.47939453 27.87822266 19.13457031 26.97910156 18.77929688 26.05273438 C18.43962891 25.10720703 18.09996094 24.16167969 17.75 23.1875 C17.39099609 22.23810547 17.03199219 21.28871094 16.66210938 20.31054688 C15.77740706 17.96313674 14.91196926 15.61034042 14.0625 13.25 C12.0623915 13.25 10.06217459 13.27084011 8.0625 13.3125 C5.0625 13.25 5.0625 13.25 2.0625 12.25 Z M83.0625 67.25 C83.0625 69.89 83.0625 72.53 83.0625 75.25 C83.69003174 75.50056152 84.31756348 75.75112305 84.96411133 76.00927734 C112.11741764 86.91610682 137.92518313 99.92604064 159.5390625 120.03515625 C160.99836291 121.45782396 160.99836291 121.45782396 163.0625 121.25 C163.3925 122.24 163.7225 123.23 164.0625 124.25 C165.61955194 125.82840572 165.61955194 125.82840572 167.5625 127.375 C176.02249105 134.58333462 183.14895354 142.56787189 190.0625 151.25 C190.73152344 152.05179687 191.40054687 152.85359375 192.08984375 153.6796875 C197.28220074 159.95164347 201.68465022 166.61993865 205.97314453 173.52246094 C206.97337665 175.10866499 208.01415916 176.66910817 209.05859375 178.2265625 C221.95023938 197.8882675 229.97649879 221.50125679 234.875 244.375 C235.07005127 245.27919678 235.26510254 246.18339355 235.46606445 247.11499023 C238.48080401 262.19134768 239.40058657 277.38555593 239.32324219 292.72949219 C239.31250173 295.2495934 239.3232345 297.76898224 239.3359375 300.2890625 C239.34916796 315.03137232 238.33976708 329.7924965 235.3125 344.25 C235.14548584 345.06412354 234.97847168 345.87824707 234.80639648 346.71704102 C232.86435676 355.76219329 230.09935841 364.51954574 227.0625 373.25 C226.47855469 374.93802734 226.47855469 374.93802734 225.8828125 376.66015625 C216.127904 403.26751012 201.29454927 427.1873465 182.125 448 C180.13675351 450.16899617 178.22178139 452.38653216 176.3125 454.625 C173.77819292 457.5388692 171.13960962 459.9016795 168.0625 462.25 C167.340625 462.971875 166.61875 463.69375 165.875 464.4375 C150.66477231 479.64772769 133.05775622 491.28270896 114.0625 501.25 C113.0415625 501.80429687 112.020625 502.35859375 110.96875 502.9296875 C101.02737063 508.15587993 90.71438686 511.76141059 80.0625 515.25 C78.84949219 515.65347656 77.63648438 516.05695313 76.38671875 516.47265625 C69.64052197 518.63901736 62.95965019 520.12158149 55.9609375 521.24609375 C52.21919978 522.54208646 52.03887789 523.87716731 50.0625 527.25 C47.0925 529.56 44.1225 531.87 41.0625 534.25 C41.0625 506.86 41.0625 479.47 41.0625 451.25 C40.0725 451.58 39.0825 451.91 38.0625 452.25 C38.0655162 453.31631149 38.06853241 454.38262299 38.07164001 455.48124695 C38.09551582 465.53105469 38.08272054 475.58023609 38.03403378 485.62996197 C38.01018121 490.79672417 37.99924364 495.96284099 38.01782227 501.12963867 C38.03527756 506.11617977 38.01880657 511.10156138 37.97882271 516.0879612 C37.96952952 517.99012057 37.97245544 519.89238022 37.98780632 521.79450035 C38.00723099 524.46024314 37.98318749 527.12232238 37.94897461 529.7878418 C37.9647908 530.57402893 37.98060699 531.36021606 37.99690247 532.17022705 C37.91988006 535.28963429 37.75135679 537.58449495 35.44510078 539.81257057 C33.50709534 541.15388489 33.50709534 541.15388489 31.56258488 542.25843525 C31.06755687 542.58565162 30.57252886 542.91286798 30.0625 543.25 C30.0625 543.91 30.0625 544.57 30.0625 545.25 C29.0725 545.58 28.0825 545.91 27.0625 546.25 C26.5675 500.215 26.5675 500.215 26.0625 453.25 C25.0725 453.25 24.0825 453.25 23.0625 453.25 C23.07701706 455.04618774 23.07701706 455.04618774 23.09182739 456.87866211 C23.17661533 468.17836939 23.20867612 479.47716821 23.18947029 490.77719116 C23.18128169 496.58648785 23.19149521 502.39452409 23.24414062 508.20361328 C23.29429096 513.81277955 23.29561004 519.42005029 23.26345444 525.02932739 C23.25971089 527.16631152 23.27339283 529.30340132 23.30499649 531.44015503 C23.34637255 534.4414065 23.32507929 537.43630642 23.28955078 540.4375 C23.3161528 541.31575943 23.34275482 542.19401886 23.37016296 543.09889221 C23.30300903 545.60546875 23.30300903 545.60546875 22.0625 550.25 C18.7625 552.89 15.4625 555.53 12.0625 558.25 C11.7325 523.93 11.4025 489.61 11.0625 454.25 C10.0725 454.25 9.0825 454.25 8.0625 454.25 C7.7325 488.57 7.4025 522.89 7.0625 558.25 C5.4125 557.59 3.7625 556.93 2.0625 556.25 C2.0625 555.59 2.0625 554.93 2.0625 554.25 C1.25110062 553.74176697 0.43970123 553.23353394 -0.39628601 552.7098999 C-3.63571596 549.57412564 -3.54211077 547.94754869 -3.62306213 543.59657288 C-3.61443649 542.70393234 -3.60581085 541.81129181 -3.59692383 540.89160156 C-3.60740753 539.94492111 -3.61789124 538.99824066 -3.62869263 538.02287292 C-3.65748398 534.89512522 -3.65114616 531.7684817 -3.64453125 528.640625 C-3.65764377 526.47156382 -3.67294661 524.30251486 -3.69035339 522.13348389 C-3.73026814 516.42553286 -3.74039805 510.71790079 -3.74438477 505.00982666 C-3.75370394 499.18483769 -3.79110988 493.36003709 -3.82617188 487.53515625 C-3.89081379 476.10677968 -3.92399977 464.67854338 -3.9375 453.25 C-4.9275 453.25 -5.9175 453.25 -6.9375 453.25 C-6.9375 483.94 -6.9375 514.63 -6.9375 546.25 C-9.9075 544.27 -9.9075 544.27 -12.9375 542.25 C-13.55501696 541.85833051 -14.17253391 541.46666101 -14.8087635 541.06312275 C-18.12721807 538.70500314 -18.91033826 537.38826599 -19.69699097 533.38383484 C-19.73192616 531.85222897 -19.73426064 530.31966099 -19.71044922 528.7878418 C-19.72107895 527.9483046 -19.73170868 527.1087674 -19.74266052 526.24378967 C-19.77068881 523.47832102 -19.75665902 520.71476417 -19.7421875 517.94921875 C-19.75343859 516.02820673 -19.76731964 514.10720846 -19.78372192 512.18623352 C-19.81977411 507.13743504 -19.82013164 502.08924193 -19.81304932 497.04034424 C-19.81213672 491.88550981 -19.84499046 486.73090263 -19.875 481.57617188 C-19.92887556 471.46738452 -19.94504243 461.35891506 -19.9375 451.25 C-20.9275 451.25 -21.9175 451.25 -22.9375 451.25 C-23.2675 478.31 -23.5975 505.37 -23.9375 533.25 C-32.9375 525.25 -32.9375 525.25 -33.9375 522.25 C-35.84689695 521.46144889 -35.84689695 521.46144889 -38.21484375 521.07421875 C-39.11162842 520.88947998 -40.00841309 520.70474121 -40.93237305 520.5144043 C-42.38897339 520.22883667 -42.38897339 520.22883667 -43.875 519.9375 C-78.77889387 512.52201038 -110.92661145 496.60272097 -137.9375 473.25 C-139.05705078 472.29673828 -139.05705078 472.29673828 -140.19921875 471.32421875 C-153.13093008 460.0172046 -165.57522265 447.82585884 -175.71386719 433.92675781 C-176.9617756 432.21673487 -178.23350266 430.52634851 -179.5078125 428.8359375 C-215.4764032 380.51511959 -227.39800347 317.27256223 -218.9375 258.25 C-211.11412258 211.0222226 -190.50226933 167.85463685 -155.9375 134.25 C-155.1125 133.425 -154.2875 132.6 -153.4375 131.75 C-152.6125 130.925 -151.7875 130.1 -150.9375 129.25 C-150.133125 128.425 -149.32875 127.6 -148.5 126.75 C-146.5834447 124.88018995 -144.70513118 123.22758153 -142.625 121.5625 C-141.2946875 120.4178125 -141.2946875 120.4178125 -139.9375 119.25 C-139.9375 118.59 -139.9375 117.93 -139.9375 117.25 C-139.12925781 116.89615234 -139.12925781 116.89615234 -138.3046875 116.53515625 C-135.2955016 114.90145632 -132.72777506 112.81600988 -130.0625 110.6875 C-111.19647377 95.92838208 -90.07331114 85.19501121 -67.9375 76.25 C-67.9375 73.61 -67.9375 70.97 -67.9375 68.25 C-100.25308744 77.86255889 -128.76387387 96.56617283 -153.09765625 119.62109375 C-155.9375 122.25 -155.9375 122.25 -158.80859375 124.47265625 C-159.51113281 125.05917969 -160.21367187 125.64570312 -160.9375 126.25 C-160.9375 126.91 -160.9375 127.57 -160.9375 128.25 C-161.5975 128.25 -162.2575 128.25 -162.9375 128.25 C-164.47426516 129.73046792 -164.47426516 129.73046792 -166.0625 131.6875 C-169.43128571 135.66621323 -172.9078982 139.5270561 -176.43359375 143.3671875 C-178.14553393 145.10882884 -178.14553393 145.10882884 -177.9375 147.25 C-178.5975 147.25 -179.2575 147.25 -179.9375 147.25 C-181.3448571 149.04862664 -182.66122828 150.91860393 -183.9375 152.8125 C-184.33195312 153.39676758 -184.72640625 153.98103516 -185.1328125 154.58300781 C-185.97538821 155.83296093 -186.81514363 157.08481894 -187.65234375 158.33837891 C-188.89703374 160.18980797 -190.16363045 162.02403169 -191.4375 163.85546875 C-208.9097246 189.16831995 -220.26828791 217.81323792 -226.1875 247.9375 C-226.33880371 248.70731201 -226.49010742 249.47712402 -226.64599609 250.27026367 C-229.32214809 264.92559775 -230.34706006 279.62170362 -230.3125 294.5 C-230.31262085 295.31205902 -230.3127417 296.12411804 -230.31286621 296.96078491 C-230.1861857 357.41169479 -208.2229715 410.47630827 -168.4921875 455.47216797 C-166.89695018 457.29636994 -165.33297718 459.14461897 -163.76953125 460.99609375 C-161.74652894 463.36083506 -159.71154082 465.50627658 -157.3125 467.5 C-154.35014579 470.01094785 -151.48435536 472.5964204 -148.65429688 475.25585938 C-142.747737 480.78524429 -136.59452655 485.63366909 -129.9375 490.25 C-128.7928125 491.08917969 -128.7928125 491.08917969 -127.625 491.9453125 C-114.96191266 501.1431631 -101.07231647 508.59007865 -86.9375 515.25 C-85.81214844 515.78367187 -84.68679687 516.31734375 -83.52734375 516.8671875 C-75.06975285 520.68546831 -66.40792549 523.38349679 -57.50390625 525.953125 C-56.33323608 526.292229 -56.33323608 526.292229 -55.13891602 526.63818359 C-53.18889051 527.18013368 -51.22018696 527.65385963 -49.25 528.1171875 C-45.33154365 529.45722564 -42.51446719 531.5142468 -39.375 534.125 C-38.77494141 534.6096875 -38.17488281 535.094375 -37.55664062 535.59375 C-32.6877329 539.55386265 -27.93422246 543.65057505 -23.19360352 547.76269531 C-18.59875318 551.73322092 -13.87714501 555.51150732 -9.06884766 559.21972656 C-6.15484659 561.47471635 -3.30505629 563.76903275 -0.53125 566.1953125 C0.01128418 566.66630371 0.55381836 567.13729492 1.11279297 567.62255859 C2.59692671 568.92077295 4.06843366 570.23338184 5.5390625 571.546875 C7.83261106 573.49698991 7.83261106 573.49698991 10.02856445 573.00683594 C13.45150889 571.73314397 15.93881946 569.15223066 18.625 566.75 C19.88195183 565.64875645 21.13977346 564.54850492 22.3984375 563.44921875 C23.32994629 562.63203369 23.32994629 562.63203369 24.28027344 561.79833984 C28.45108779 558.17487346 32.77056229 554.72805915 37.0625 551.25 C44.31679136 545.35845744 44.31679136 545.35845744 51.46875 539.34375 C52.0457666 538.85052246 52.6227832 538.35729492 53.21728516 537.84912109 C54.33439381 536.89182589 55.44881799 535.93138586 56.56005859 534.96728516 C62.03146606 530.27824263 66.32261467 527.98973355 73.375 526.4375 C100.24003377 520.10960712 125.38952718 506.79425128 147.44140625 490.44042969 C149.07156381 489.24334411 150.71916383 488.07531103 152.375 486.9140625 C153.385625 486.19992187 154.39625 485.48578125 155.4375 484.75 C156.33210938 484.1209375 157.22671875 483.491875 158.1484375 482.84375 C158.78007812 482.3178125 159.41171875 481.791875 160.0625 481.25 C160.0625 480.59 160.0625 479.93 160.0625 479.25 C160.59488281 479.03472656 161.12726563 478.81945312 161.67578125 478.59765625 C164.95159248 476.7479756 167.53212845 474.25387059 170.25 471.6875 C170.81936279 471.15463379 171.38872559 470.62176758 171.9753418 470.07275391 C179.25850329 463.39273996 179.25850329 463.39273996 186.0625 456.25 C186.0625 455.59 186.0625 454.93 186.0625 454.25 C186.7225 454.25 187.3825 454.25 188.0625 454.25 C191.28908686 450.78002835 194.13520424 446.97412731 197.0625 443.25 C197.87589844 442.22777344 198.68929688 441.20554687 199.52734375 440.15234375 C208.26382707 429.07563831 216.24977312 417.68420875 222.30419922 404.90771484 C223.93796669 401.47369187 225.69194474 398.10896976 227.4453125 394.734375 C231.07812841 387.56918499 233.77013534 380.20473463 236.25 372.5625 C236.46383331 371.90947906 236.67766663 371.25645813 236.89797974 370.58364868 C240.37846764 359.92294164 243.34105083 349.34378352 245.0625 338.25 C245.20768066 337.37827148 245.35286133 336.50654297 245.50244141 335.60839844 C252.11156348 294.84622986 249.27563842 249.8282227 234.0625 211.25 C233.75473633 210.46882812 233.44697266 209.68765625 233.12988281 208.8828125 C220.66324407 177.72213523 202.32511635 151.28524684 179.0625 127.25 C178.49708496 126.6626709 177.93166992 126.0753418 177.34912109 125.47021484 C151.50199483 98.72223027 120.11435582 79.47475919 85.0625 67.25 C84.4025 67.25 83.7425 67.25 83.0625 67.25 Z M82.0625 88.25 C81.86205078 88.898479 81.66160156 89.54695801 81.45507812 90.21508789 C76.15280995 107.19046175 70.68149854 122.29466656 59.21142578 136.12963867 C56.5592499 139.24990453 56.5592499 139.24990453 56.0625 143.25 C56.743125 143.45753906 57.42375 143.66507813 58.125 143.87890625 C78.52563811 150.36261969 95.88130803 160.21894938 112.0625 174.25 C112.72636719 174.79269531 113.39023437 175.33539063 114.07421875 175.89453125 C117.67229355 178.85260142 120.69641781 182.00978953 123.6640625 185.59765625 C124.89055733 187.04683868 126.22003598 188.40753598 127.5625 189.75 C151.75281663 213.94031663 167.05735489 251.00479353 167.265625 285.2109375 C167.27132507 285.95977203 167.27702515 286.70860657 167.28289795 287.48013306 C167.29229745 289.06177381 167.2988617 290.64343371 167.30273438 292.22509766 C167.3123333 294.58403264 167.34335914 296.94205403 167.375 299.30078125 C167.60947054 333.03451335 155.25081039 365.44073101 134.9375 392.125 C134.52967285 392.66084717 134.1218457 393.19669434 133.70166016 393.7487793 C131.68044817 396.34893755 129.60898748 398.69593292 127.2578125 401.0078125 C124.82930056 402.96518522 124.82930056 402.96518522 125.0625 405.25 C124.1034375 405.6521875 124.1034375 405.6521875 123.125 406.0625 C120.73118314 407.13667752 120.73118314 407.13667752 120.0625 410.25 C118 411.4375 118 411.4375 116.0625 412.25 C116.0625 412.91 116.0625 413.57 116.0625 414.25 C115.54171875 414.46527344 115.0209375 414.68054688 114.484375 414.90234375 C111.7892462 416.40205252 109.54567756 418.25565326 107.19042969 420.23608398 C99.03607432 427.08120522 90.54276738 432.44075294 81.0625 437.25 C80.12019531 437.72953125 79.17789062 438.2090625 78.20703125 438.703125 C70.04825012 442.60354079 61.65248909 445.21823915 53.0625 448.25 C53.0625 468.71 53.0625 489.17 53.0625 510.25 C82.49713182 503.9425789 108.63937189 493.64865046 133.390625 476.40917969 C134.9889719 475.30098006 136.60353819 474.21628379 138.21875 473.1328125 C139.59546875 472.20082031 139.59546875 472.20082031 141 471.25 C142.18916016 470.445625 142.18916016 470.445625 143.40234375 469.625 C143.95019531 469.17125 144.49804688 468.7175 145.0625 468.25 C145.0625 467.59 145.0625 466.93 145.0625 466.25 C145.61292969 466.01667969 146.16335938 465.78335937 146.73046875 465.54296875 C152.18064017 462.52118191 156.57100521 457.54137868 161.0625 453.25 C161.67158203 452.66959961 162.28066406 452.08919922 162.90820312 451.49121094 C171.7891462 442.97303647 179.77205429 434.16403895 187.0625 424.25 C187.70574219 423.37859375 188.34898437 422.5071875 189.01171875 421.609375 C223.87079216 373.04167722 235.06641653 314.05203267 225.875 255.3125 C218.99711825 215.32620349 200.28736611 178.46814974 172.59375 148.96875 C170.45434482 146.67087037 168.4023101 144.33341193 166.375 141.9375 C163.55018139 138.68427288 160.50528773 135.87466654 157.21875 133.09375 C154.83842046 131.05839576 152.55012275 128.93792988 150.25 126.8125 C135.45143753 113.48249717 117.9004553 102.6582727 99.8125 94.4375 C98.76320313 93.94830078 97.71390625 93.45910156 96.6328125 92.95507812 C95.61445313 92.48908203 94.59609375 92.02308594 93.546875 91.54296875 C92.18127441 90.91684692 92.18127441 90.91684692 90.78808594 90.27807617 C87.88187951 89.18187094 85.13467962 88.66239015 82.0625 88.25 Z M-130.33129883 125.83251953 C-131.48594347 126.85149913 -132.64817993 127.86189995 -133.81518555 128.86669922 C-145.18285071 138.68001299 -155.76610602 149.35150591 -164.9375 161.25 C-165.72125 162.20519531 -166.505 163.16039062 -167.3125 164.14453125 C-174.62308703 173.22565107 -180.37738064 183.02049112 -185.9375 193.25 C-186.32212402 193.95592285 -186.70674805 194.6618457 -187.10302734 195.38916016 C-214.54716723 246.37780491 -216.55697487 308.95036488 -200.22265625 363.64355469 C-191.98948463 390.12227189 -177.49415001 413.90841865 -159.75 435.04296875 C-157.9375 437.25 -157.9375 437.25 -155.9375 440.25 C-155.2775 440.25 -154.6175 440.25 -153.9375 440.25 C-153.67122803 440.84079346 -153.40495605 441.43158691 -153.13061523 442.0402832 C-151.91081824 444.29941613 -150.6532357 445.79245566 -148.84765625 447.60546875 C-147.92702393 448.5322644 -147.92702393 448.5322644 -146.98779297 449.4777832 C-146.33182129 450.12448975 -145.67584961 450.77119629 -145 451.4375 C-144.32340332 452.1080542 -143.64680664 452.7786084 -142.94970703 453.46948242 C-137.5485509 458.76517219 -131.92900509 463.629941 -125.9375 468.25 C-124.41576172 469.46236328 -124.41576172 469.46236328 -122.86328125 470.69921875 C-97.56391502 490.73927372 -66.18329581 506.21927552 -33.9375 510.25 C-33.9375 489.79 -33.9375 469.33 -33.9375 448.25 C-39.8775 446.27 -45.8175 444.29 -51.9375 442.25 C-67.97637659 434.83809491 -85.11231243 425.49856257 -97.5625 412.6875 C-98.34625 411.883125 -99.13 411.07875 -99.9375 410.25 C-100.5975 410.25 -101.2575 410.25 -101.9375 410.25 C-102.205625 409.610625 -102.47375 408.97125 -102.75 408.3125 C-103.82417752 405.91868314 -103.82417752 405.91868314 -106.9375 405.25 C-107.64144612 403.93596724 -108.30095658 402.5979743 -108.9375 401.25 C-110.85609167 398.51780807 -110.85609167 398.51780807 -112.9375 396.25 C-113.5975 396.25 -114.2575 396.25 -114.9375 396.25 C-115.19015625 395.52039063 -115.4428125 394.79078125 -115.703125 394.0390625 C-117.02257904 391.05776445 -118.56315784 389.08693141 -120.6875 386.625 C-124.89768051 381.4682861 -127.99001888 376.20376485 -130.9375 370.25 C-131.25219238 369.62706055 -131.56688477 369.00412109 -131.89111328 368.36230469 C-141.91356058 348.43266584 -148.27843839 326.68674947 -148.9375 304.25 C-148.95796387 303.60562988 -148.97842773 302.96125977 -148.99951172 302.29736328 C-150.12084522 261.73474582 -138.39223995 223.32598336 -111.9375 192.25 C-111.38505615 191.72656006 -110.8326123 191.20312012 -110.26342773 190.66381836 C-108.70947633 189.3299098 -108.70947633 189.3299098 -108.9375 187.25 C-108.2775 187.25 -107.6175 187.25 -106.9375 187.25 C-105.54408099 185.79350433 -105.54408099 185.79350433 -104.0625 183.875 C-99.28873572 178.28428225 -93.71683707 173.74750537 -87.9375 169.25 C-87.12684082 168.61892334 -87.12684082 168.61892334 -86.29980469 167.97509766 C-71.81680993 156.85376786 -56.03377454 149.46864489 -38.9375 143.25 C-40.2928326 140.71326712 -40.2928326 140.71326712 -41.9375 138.25 C-42.5975 138.25 -43.2575 138.25 -43.9375 138.25 C-44.20304688 137.51265625 -44.46859375 136.7753125 -44.7421875 136.015625 C-45.92335665 133.28272382 -47.24841993 131.34564772 -49.0625 129 C-57.59163321 117.00590642 -62.26146164 103.3709358 -65.9375 89.25 C-87.30986136 89.25 -115.04015541 112.29100932 -130.33129883 125.83251953 Z M-48.9375 159.25 C-49.58976562 159.54245605 -50.24203125 159.83491211 -50.9140625 160.13623047 C-67.17845257 167.55018627 -80.59848372 177.14317439 -93.3203125 189.66357422 C-94.71741784 191.03410419 -96.1378972 192.38073129 -97.5625 193.72265625 C-116.23906375 211.58860525 -128.65017752 236.03409122 -134.6875 260.9375 C-134.89842285 261.8044751 -135.1093457 262.6714502 -135.32666016 263.56469727 C-143.74037214 299.92173409 -136.8676258 340.48807137 -117.1875 372.0625 C-111.8001662 380.42991592 -105.7359256 387.99635347 -98.9375 395.25 C-98.04417969 396.21292969 -97.15085938 397.17585937 -96.23046875 398.16796875 C-70.33440658 425.04982538 -35.02951625 441.36893461 2.375 442.47265625 C34.28422928 443.05990079 64.53522606 436.7508673 91.0625 418.25 C92.08988281 417.54230469 93.11726562 416.83460938 94.17578125 416.10546875 C98.2046845 413.28892008 98.2046845 413.28892008 102.0625 410.25 C102.0625 409.59 102.0625 408.93 102.0625 408.25 C102.59875 408.023125 103.135 407.79625 103.6875 407.5625 C109.21777901 404.50629318 113.17697894 400.16206098 117.21875 395.40234375 C118.44152051 393.97491462 119.69171403 392.57050043 120.96875 391.19140625 C135.24825323 375.75027676 144.97691029 357.28153453 151.0625 337.25 C151.26214355 336.60772461 151.46178711 335.96544922 151.66748047 335.30371094 C162.18563626 300.6692435 158.0282059 259.27010471 141.0625 227.25 C135.33044497 217.23240148 128.69503385 207.90799333 121.0625 199.25 C120.22203125 198.27675781 119.3815625 197.30351562 118.515625 196.30078125 C99.9857234 175.19201075 75.35213272 159.34426885 48.0625 152.25 C47.32386719 152.05535156 46.58523438 151.86070312 45.82421875 151.66015625 C15.16069466 143.98172878 -20.09217426 146.16809938 -48.9375 159.25 Z " fill="#FEFEFE" transform="translate(240.9375,-0.25)"/>
<path d="M0 0 C0.92039062 0.69738281 1.84078125 1.39476562 2.7890625 2.11328125 C19.75383656 15.48465216 32.41797086 31.29637235 43 50 C43.42023438 50.72574219 43.84046875 51.45148438 44.2734375 52.19921875 C54.15559774 70.42192224 57.23288503 93.01311153 57.25 113.375 C57.25067474 114.09342072 57.25134949 114.81184143 57.25204468 115.55203247 C57.235936 126.3383707 56.73718672 136.51294728 54 147 C53.82839355 147.68481445 53.65678711 148.36962891 53.47998047 149.07519531 C49.66195268 164.10846648 43.9943977 178.29093491 35 191 C34.33355469 191.95132813 33.66710937 192.90265625 32.98046875 193.8828125 C9.55027883 226.22069625 -22.80500169 246.98959735 -62.19921875 253.53125 C-65.14810919 253.84120637 -68.0340074 253.95221646 -71 254 C-71.81162598 254.01901367 -72.62325195 254.03802734 -73.45947266 254.05761719 C-108.50143995 254.80882436 -143.7124403 247.72347027 -171 224 C-171 223.34 -171 222.68 -171 222 C-171.58700684 221.73678955 -172.17401367 221.4735791 -172.77880859 221.20239258 C-195.24054688 209.04323001 -210.38912108 178.22804682 -217.65234375 154.90527344 C-228.07507662 119.36239191 -224.41335907 79.81664331 -206.94799805 47.12939453 C-199.24345087 33.10516396 -189.24551983 20.00176718 -176.97265625 9.66796875 C-175.70485423 8.59598565 -174.45992689 7.49601195 -173.24609375 6.36328125 C-127.14721623 -36.35036552 -49.29225361 -37.58372618 0 0 Z M-99 -5 C-98.67 -3.68 -98.34 -2.36 -98 -1 C-94.535 -1.495 -94.535 -1.495 -91 -2 C-91 3.94 -91 9.88 -91 16 C-89.02 15.67 -87.04 15.34 -85 15 C-85.33 9.39 -85.66 3.78 -86 -2 C-84.02 -2.33 -82.04 -2.66 -80 -3 C-80 -3.99 -80 -4.98 -80 -6 C-82.22909871 -6.02714735 -84.45829367 -6.04646254 -86.6875 -6.0625 C-87.92886719 -6.07410156 -89.17023438 -6.08570313 -90.44921875 -6.09765625 C-93.46235454 -6.01478673 -96.08275339 -5.70839449 -99 -5 Z M-71.5 -3.3125 C-73.12230448 -1.08535535 -73.12230448 -1.08535535 -73.625 1.5 C-73.19407753 4.30079995 -73.19407753 4.30079995 -70.25 6.1875 C-68.42712895 7.20410116 -66.58407572 8.19110035 -64.6875 9.0625 C-63 10 -63 10 -62 13 C-70.57142857 12 -70.57142857 12 -74 11 C-74 12.32 -74 13.64 -74 15 C-69.46236032 17.26881984 -65.98010142 17.47429537 -61 17 C-58.30861457 15.55985074 -58.30861457 15.55985074 -57 13 C-56.51204276 9.92334263 -56.51204276 9.92334263 -58 7 C-60.98917922 4.87696639 -64.27561782 3 -68 3 C-68 1.68 -68 0.36 -68 -1 C-64.7 -0.34 -61.4 0.32 -58 1 C-57.34 -0.32 -56.68 -1.64 -56 -3 C-61.05430333 -5.52715167 -66.58779917 -6.62823556 -71.5 -3.3125 Z M-124 1 C-123.3900874 5.98844309 -122.36525565 10.60155346 -120.9375 15.4375 C-120.39416016 17.29181641 -120.39416016 17.29181641 -119.83984375 19.18359375 C-119.42412109 20.57771484 -119.42412109 20.57771484 -119 22 C-117.35 21.34 -115.7 20.68 -114 20 C-114.33 18.02 -114.66 16.04 -115 14 C-111.39703406 13.58823246 -110.21597933 13.8464147 -107.1875 16 C-106.465625 16.66 -105.74375 17.32 -105 18 C-103.68 17.34 -102.36 16.68 -101 16 C-102.32 14.68 -103.64 13.36 -105 12 C-104.67 11.01 -104.34 10.02 -104 9 C-103.50487987 4.26726514 -103.50487987 4.26726514 -105.375 0.125 C-111.47891135 -4.10078478 -117.65382296 -1.36923943 -124 1 Z M-34 4 C-35.53617083 6.57525715 -37.05388201 9.158674 -38.5625 11.75 C-39.00013672 12.47960937 -39.43777344 13.20921875 -39.88867188 13.9609375 C-40.29794922 14.66992188 -40.70722656 15.37890625 -41.12890625 16.109375 C-41.51119385 16.75874023 -41.89348145 17.40810547 -42.28735352 18.07714844 C-43.18314025 20.49414614 -43.03684679 21.65505848 -42 24 C-41.01 24.33 -40.02 24.66 -39 25 C-38.7525 24.360625 -38.505 23.72125 -38.25 23.0625 C-37 21 -37 21 -34.921875 20.37109375 C-34.28765625 20.24863281 -33.6534375 20.12617188 -33 20 C-32.91363281 20.69867188 -32.82726562 21.39734375 -32.73828125 22.1171875 C-32.31795176 24.83968863 -31.86256547 27.38196209 -31 30 C-28.54251602 31.75568004 -28.54251602 31.75568004 -26 32 C-26.14262412 30.4372038 -26.28925511 28.87477304 -26.4375 27.3125 C-26.51871094 26.44238281 -26.59992188 25.57226562 -26.68359375 24.67578125 C-26.98843609 22.09779359 -27.49089259 19.54553705 -28 17 C-24.37 16.01 -20.74 15.02 -17 14 C-17.99 13.01 -18.98 12.02 -20 11 C-22.36539052 11.12056596 -22.36539052 11.12056596 -25 12 C-26.258125 12.350625 -27.51625 12.70125 -28.8125 13.0625 C-30.3903125 13.5265625 -30.3903125 13.5265625 -32 14 C-31.34 11.36 -30.68 8.72 -30 6 C-31.32 5.34 -32.64 4.68 -34 4 Z M-148 13 C-150.20870539 16.27743381 -151.03658723 18.10361295 -150.875 22.0625 C-149.72417546 25.9259824 -148.51772162 28.9009602 -145.1875 31.3125 C-140.96910686 32.6382807 -137.91502427 32.35883305 -133.8125 30.75 C-130.36475047 28.60473362 -128.57526431 27.12268072 -127.49609375 23.140625 C-126.86472558 19.60496323 -126.76905125 17.54698388 -128.1875 14.1875 C-131.36080732 10.35764634 -132.76875326 9.13901173 -137.875 8.5625 C-142.19721648 8.74762287 -144.72677971 10.10738672 -148 13 Z M-9 19 C-10.41844009 20.56089026 -11.83467025 22.1237889 -13.25 23.6875 C-14.03890625 24.55761719 -14.8278125 25.42773438 -15.640625 26.32421875 C-17.84499564 28.82420863 -19.94133941 31.37945728 -22 34 C-20.56285993 37.35829104 -18.79022601 39.39970698 -16.0625 41.8125 C-15.02802734 42.75029297 -15.02802734 42.75029297 -13.97265625 43.70703125 C-13.32167969 44.13371094 -12.67070312 44.56039062 -12 45 C-11.01 44.67 -10.02 44.34 -9 44 C-10.4165021 40.5767866 -12.06827149 39.17515341 -15 37 C-15.33 36.01 -15.66 35.02 -16 34 C-15.34 34 -14.68 34 -14 34 C-12.39821407 32.21895282 -10.86618074 30.37462722 -9.375 28.5 C-8.55773437 27.4790625 -7.74046875 26.458125 -6.8984375 25.40625 C-5.95871094 24.21515625 -5.95871094 24.21515625 -5 23 C-6.32 21.68 -7.64 20.36 -9 19 Z M-175 38 C-174.01 38.33 -173.02 38.66 -172 39 C-172 39.66 -172 40.32 -172 41 C-170.38492637 42.67282181 -170.38492637 42.67282181 -168.3125 44.375 C-167.58675781 44.99246094 -166.86101562 45.60992187 -166.11328125 46.24609375 C-163.76550888 48.19461463 -161.40435225 50.1215998 -159 52 C-158.01 50.68 -157.02 49.36 -156 48 C-156.99 47.01 -157.98 46.02 -159 45 C-157.95016316 42.73881295 -157.02303691 41.02474335 -155.3125 39.1875 C-153.67942096 36.91546235 -153.67942096 36.91546235 -154.125 33.4375 C-154.78449666 30.13700724 -154.78449666 30.13700724 -156.1875 28.0625 C-164.194509 23.3687361 -170.71896892 32.00920728 -175 38 Z M-82 31 C-79.44477424 42.66778224 -75.54524262 53.91969639 -71.8125 65.25 C-69.564375 72.0975 -67.31625 78.945 -65 86 C-45.2 86 -25.4 86 -5 86 C-9.3411767 72.97646991 -15.6406947 64.70893452 -25 55 C-25.6703125 54.25492188 -26.340625 53.50984375 -27.03125 52.7421875 C-39.65159567 39.10579705 -59.03655929 31.74002705 -77.359375 30.890625 C-78.90663007 30.87824696 -80.45436637 30.92811006 -82 31 Z M-134 48 C-134 48.66 -134 49.32 -134 50 C-134.84498047 50.36351562 -134.84498047 50.36351562 -135.70703125 50.734375 C-148.44015513 57.76253877 -155.91040376 73.2760094 -161 86 C-141.53 86 -122.06 86 -102 86 C-99.64323651 80.57969341 -99.64323651 80.57969341 -97.60546875 75.09106445 C-97.37512939 74.4095784 -97.14479004 73.72809235 -96.9074707 73.0259552 C-96.66988037 72.3122728 -96.43229004 71.59859039 -96.1875 70.86328125 C-95.80501099 69.7222419 -95.80501099 69.7222419 -95.41479492 68.55815125 C-94.87884885 66.95602396 -94.34444827 65.35337893 -93.81152344 63.75024414 C-93.00744799 61.3348731 -92.1954359 58.92227213 -91.3828125 56.50976562 C-88.56183208 48.07970975 -85.95177011 39.6834509 -84 31 C-101.78011506 30.835224 -120.03443579 36.78612535 -134 48 Z M9 36 C7.22383426 37.24241135 5.45425957 38.49424871 3.6875 39.75 C2.20830078 40.79414063 2.20830078 40.79414063 0.69921875 41.859375 C-1.74450955 43.7973824 -3.43267195 45.32158665 -5 48 C-4.90374505 53.294022 -3.67426639 56.21439221 0 60 C3.13358329 61.56679165 5.65198761 61.85468626 9 61 C12.89248686 58.60905041 16.45304611 55.87348163 20 53 C19.67 51.68 19.34 50.36 19 49 C15.91315802 49.59181284 14.104224 50.51586383 11.6875 52.5 C8.10749881 55.18887535 5.4308441 55.72872383 1 56 C0.65625 52.80859375 0.65625 52.80859375 1 49 C3.40625 46.34765625 3.40625 46.34765625 6.5 44.0625 C7.5209375 43.29035156 8.541875 42.51820313 9.59375 41.72265625 C10.78484375 40.86994141 10.78484375 40.86994141 12 40 C11.01 38.68 10.02 37.36 9 36 Z M-182 47 C-186.1134795 52.0423297 -187.46672666 54.34914514 -187 61 C-186.03882095 63.12870693 -186.03882095 63.12870693 -184 64 C-179.89031629 64 -178.37348671 63.35570163 -175.375 60.5 C-174.199375 59.2625 -174.199375 59.2625 -173 58 C-170.6875 57.1875 -170.6875 57.1875 -169 57 C-170 60 -171 63 -172 66 C-172.99 66.33 -173.98 66.66 -175 67 C-174.01 67.99 -173.02 68.98 -172 70 C-168.62987626 66.60926389 -166.28120804 63.97595733 -164.9375 59.3125 C-164.7770444 56.05400617 -164.7770444 56.05400617 -166.125 53.5625 C-167.90704728 51.85971421 -167.90704728 51.85971421 -170.25 51.375 C-173.87573533 52.19903076 -175.7035407 54.05565094 -178.3515625 56.58984375 C-180 58 -180 58 -183 59 C-181.95902388 55.13351728 -180.96301592 51.50538557 -179 48 C-179.99 47.67 -180.98 47.34 -182 47 Z M23.12060547 62.52905273 C22.37697754 62.82755127 21.63334961 63.1260498 20.8671875 63.43359375 C19.65869141 63.9121582 19.65869141 63.9121582 18.42578125 64.40039062 C17.58402344 64.74263672 16.74226562 65.08488281 15.875 65.4375 C15.02550781 65.77587891 14.17601562 66.11425781 13.30078125 66.46289062 C11.19767629 67.30176957 9.09769845 68.14771125 7 69 C8.26878484 75.44914899 9.54108915 80.9533817 14 86 C16.50807389 87.38894914 16.50807389 87.38894914 19 87 C20.89661743 85.85353452 20.89661743 85.85353452 22 84 C22 83.01 22 82.02 22 81 C23.670625 81.309375 23.670625 81.309375 25.375 81.625 C26.57125 81.74875 27.7675 81.8725 29 82 C31.29783429 80.11145946 31.29783429 80.11145946 31.375 77 C31.24901445 72.02357081 29.2912428 67.3650684 27 63 C25.06768276 61.75348915 25.06768276 61.75348915 23.12060547 62.52905273 Z M-194 69 C-195.65 73.95 -197.3 78.9 -199 84 C-195.33579781 85.34056178 -191.66943805 86.67394101 -188 88 C-186.865625 88.4125 -185.73125 88.825 -184.5625 89.25 C-181.80517526 90.18726584 -181.80517526 90.18726584 -178 90 C-177.32586789 88.08594633 -176.6609668 86.16863974 -176 84.25 C-175.62875 83.18265625 -175.2575 82.1153125 -174.875 81.015625 C-173.81422523 77.88307438 -173.81422523 77.88307438 -174 74 C-174.99 74 -175.98 74 -177 74 C-177.50615298 75.26839526 -178.00469099 76.53983102 -178.5 77.8125 C-178.7784375 78.52019531 -179.056875 79.22789062 -179.34375 79.95703125 C-180.1529162 82.11841216 -180.1529162 82.11841216 -180 85 C-182.475 84.505 -182.475 84.505 -185 84 C-184.34 80.37 -183.68 76.74 -183 73 C-183.99 73 -184.98 73 -186 73 C-186.99 75.64 -187.98 78.28 -189 81 C-190.65 81 -192.3 81 -194 81 C-193.7834375 80.46890625 -193.566875 79.9378125 -193.34375 79.390625 C-193.0653125 78.68421875 -192.786875 77.9778125 -192.5 77.25 C-192.2215625 76.55390625 -191.943125 75.8578125 -191.65625 75.140625 C-190.80459673 72.73577305 -190.80459673 72.73577305 -191 69 C-191.99 69 -192.98 69 -194 69 Z M-162 88 C-168.238147 111.89328 -166.92542096 134.96601787 -154.42407227 156.76733398 C-150.46204768 163.27837873 -145.36494736 168.61839132 -140 174 C-138.90945312 175.15628906 -138.90945312 175.15628906 -137.796875 176.3359375 C-136.16360835 178.22649055 -136.16360835 178.22649055 -134 178 C-133.67 178.66 -133.34 179.32 -133 180 C-126.53478391 160.70793544 -120.07400242 141.41969788 -114 122 C-114.79019531 121.44054687 -115.58039063 120.88109375 -116.39453125 120.3046875 C-123.51863241 115.24599508 -130.59127279 110.12116844 -137.625 104.9375 C-138.43300049 104.34219482 -139.24100098 103.74688965 -140.07348633 103.13354492 C-143.65543404 100.48902455 -147.22928286 97.83563929 -150.7734375 95.140625 C-151.32692871 94.72047119 -151.88041992 94.30031738 -152.45068359 93.86743164 C-153.88683619 92.77368353 -155.31861041 91.67419285 -156.75 90.57421875 C-158.99765856 88.84258778 -158.99765856 88.84258778 -162 88 Z M-5 88 C-6.42163636 89.01545454 -7.84327006 90.0309128 -9.26489258 91.04638672 C-10.52510268 91.94651316 -11.78535796 92.84657634 -13.0456543 93.74658203 C-16.18120347 95.98587219 -19.31624554 98.22585693 -22.44921875 100.46875 C-29.01395852 105.16669848 -35.59373484 109.84286027 -42.1875 114.5 C-42.91880127 115.01675293 -43.65010254 115.53350586 -44.40356445 116.06591797 C-45.43163208 116.79125732 -45.43163208 116.79125732 -46.48046875 117.53125 C-47.08785889 117.95986328 -47.69524902 118.38847656 -48.32104492 118.83007812 C-49.86668821 119.90710628 -51.43251732 120.95501155 -53 122 C-50.9672455 128.84054956 -48.86930892 135.65779279 -46.71484375 142.4609375 C-46.41308731 143.41392731 -46.11133087 144.36691711 -45.8004303 145.3487854 C-45.16813428 147.34384144 -44.53535187 149.33874338 -43.90209961 151.33349609 C-43.25577393 153.37144228 -42.61093157 155.40985945 -41.9675293 157.44873047 C-41.03234636 160.41216113 -40.09284806 163.37419201 -39.15234375 166.3359375 C-38.86584457 167.2463681 -38.5793454 168.15679871 -38.28416443 169.09481812 C-38.01370804 169.94315216 -37.74325165 170.79148621 -37.46459961 171.66552734 C-37.11177162 172.77944351 -37.11177162 172.77944351 -36.7518158 173.91586304 C-35.98463312 176.04259911 -35.05074471 178.00009592 -34 180 C-18.99734884 172.87131046 -8.72067002 155.1228889 -3.27685547 139.98974609 C1.71552241 124.69292185 2.7241163 105.22930025 -3 90 C-3.66 89.34 -4.32 88.68 -5 88 Z M17.9375 143.3125 C14.66266685 147.85501051 12 153.33740992 12 159 C14.58041096 160.00816056 17.16386944 161.0067111 19.75 162 C20.84441406 162.42925781 20.84441406 162.42925781 21.9609375 162.8671875 C23.02441406 163.27324219 23.02441406 163.27324219 24.109375 163.6875 C24.75874023 163.93886719 25.40810547 164.19023437 26.07714844 164.44921875 C28.30752974 165.18357727 28.30752974 165.18357727 32 165 C32.89625886 162.77739833 33.76675553 160.54974666 34.625 158.3125 C34.88023437 157.68666016 35.13546875 157.06082031 35.3984375 156.41601562 C36.57695449 153.28967194 37.10570747 151.40996599 36.26171875 148.13671875 C35.11923692 145.92603626 35.11923692 145.92603626 33.1875 144.5 C30.83495422 143.71856581 30.83495422 143.71856581 28.25 145.375 C27.5075 145.91125 26.765 146.4475 26 147 C25.67 145.68 25.34 144.36 25 143 C22.00683489 142.0022783 20.66535057 141.57659509 17.9375 143.3125 Z M-191.5625 147.3125 C-192.35591797 147.62123047 -193.14933594 147.92996094 -193.96679688 148.24804688 C-194.72154297 148.55419922 -195.47628906 148.86035156 -196.25390625 149.17578125 C-196.94814697 149.45333252 -197.6423877 149.73088379 -198.35766602 150.0168457 C-200.35132812 150.96805933 -200.35132812 150.96805933 -201 154 C-200.01881435 157.01134647 -200.01881435 157.01134647 -198.5625 160.1875 C-198.08941406 161.27417969 -197.61632812 162.36085938 -197.12890625 163.48046875 C-196.75636719 164.31191406 -196.38382813 165.14335937 -196 166 C-194.68 166 -193.36 166 -192 166 C-192.99 162.37 -193.98 158.74 -195 155 C-193.68 155 -192.36 155 -191 155 C-190.01 157.31 -189.02 159.62 -188 162 C-187.01 162 -186.02 162 -185 162 C-185.53725895 158.62294375 -186.11064623 155.303314 -187 152 C-185.68 151.67 -184.36 151.34 -183 151 C-181.68 153.97 -180.36 156.94 -179 160 C-178.01 159.67 -177.02 159.34 -176 159 C-176.19335938 158.41992188 -176.38671875 157.83984375 -176.5859375 157.2421875 C-178.05729167 152.828125 -179.52864583 148.4140625 -181 144 C-184.72123168 144 -188.15226887 145.92892051 -191.5625 147.3125 Z M-88.76171875 147.4765625 C-90.17860231 148.64606423 -91.59122 149.8207493 -93 151 C-94.43457781 152.06233662 -95.8787127 153.11188659 -97.33203125 154.1484375 C-98.06228516 154.6748584 -98.79253906 155.2012793 -99.54492188 155.74365234 C-100.29322266 156.28199707 -101.04152344 156.8203418 -101.8125 157.375 C-103.4024618 158.52066953 -104.99230593 159.66650236 -106.58203125 160.8125 C-107.34209473 161.36035156 -108.1021582 161.90820312 -108.88525391 162.47265625 C-111.59684388 164.43106157 -114.29889879 166.40215575 -117 168.375 C-121.95315689 171.98427711 -126.9654919 175.50533061 -132 179 C-130.66002362 183.01992915 -128.14948776 183.99208217 -124.625 185.9375 C-123.98868652 186.29158936 -123.35237305 186.64567871 -122.69677734 187.01049805 C-102.07226317 198.23836562 -79.28985078 199.52190385 -56.9296875 193.12109375 C-49.28388164 190.51803449 -40.50460914 187.10214895 -35 181 C-41.9993743 175.20617346 -49.26281293 169.80755711 -56.59350586 164.44384766 C-60.62345005 161.49375586 -64.63820725 158.52891483 -68.609375 155.5 C-69.3297998 154.95182617 -70.05022461 154.40365234 -70.79248047 153.83886719 C-72.14401898 152.8077051 -73.49221718 151.77214452 -74.83642578 150.73144531 C-76.53032179 149.44184078 -78.24848986 148.20966045 -80 147 C-80.80695313 146.43796875 -81.61390625 145.8759375 -82.4453125 145.296875 C-85.64525865 144.92501581 -86.22610261 145.59082462 -88.76171875 147.4765625 Z M8 165 C7.34 166.32 6.68 167.64 6 169 C6.7940625 169.50789062 7.588125 170.01578125 8.40625 170.5390625 C9.4271875 171.22742188 10.448125 171.91578125 11.5 172.625 C13.03140625 173.63433594 13.03140625 173.63433594 14.59375 174.6640625 C17 177 17 177 17.40625 180.2109375 C17 183 17 183 16 184 C11.46616366 184.56969671 9.36971101 183.21230612 5.8125 180.5 C2.72483642 177.85445497 2.72483642 177.85445497 -1 177 C-1.66 178.32 -2.32 179.64 -3 181 C-1.41906946 182.12837409 0.16484716 183.25256518 1.75 184.375 C3.07257813 185.31472656 3.07257813 185.31472656 4.421875 186.2734375 C8.81840848 189.25893874 8.81840848 189.25893874 13.9375 190 C18.13927999 188.62799021 19.588025 186.65241929 22 183 C23.1491485 179.48073271 23.4373234 177.90351303 21.81640625 174.5546875 C19.79491542 171.71155847 17.81924209 170.13554068 14.9375 168.1875 C14.05964844 167.58292969 13.18179688 166.97835937 12.27734375 166.35546875 C10.15526484 164.82951402 10.15526484 164.82951402 8 165 Z M-180 168 C-181.99225289 173.44549124 -180.01728646 177.8713056 -178 183 C-179.65 183 -181.3 183 -183 183 C-183.99 180.03 -184.98 177.06 -186 174 C-187.32 174.33 -188.64 174.66 -190 175 C-188.63114895 180.22652218 -186.81602728 183.27070062 -183 187 C-179.96548029 188.14603837 -179.96548029 188.14603837 -177 188 C-173.97461044 186.37163026 -173.97461044 186.37163026 -173.22265625 184.234375 C-172.92910836 181.28859622 -173.59533285 179.07968162 -174.4375 176.25 C-174.72496094 175.26515625 -175.01242188 174.2803125 -175.30859375 173.265625 C-175.53675781 172.51796875 -175.76492187 171.7703125 -176 171 C-171.2265625 172.609375 -171.2265625 172.609375 -169.1875 176.125 C-168.795625 177.07375 -168.40375 178.0225 -168 179 C-167.01 178.67 -166.02 178.34 -165 178 C-166.25140763 173.51578931 -167.68386534 170.31613466 -171 167 C-174.55495081 165.66689344 -176.99675155 165.53304592 -180 168 Z M-161.39868164 184.28515625 C-161.97996826 184.87167969 -162.56125488 185.45820313 -163.16015625 186.0625 C-164.1027832 187.00996094 -164.1027832 187.00996094 -165.06445312 187.9765625 C-166.05348633 188.97816406 -166.05348633 188.97816406 -167.0625 190 C-167.72572266 190.66773438 -168.38894531 191.33546875 -169.07226562 192.0234375 C-170.71708714 193.68009226 -172.35953887 195.33902916 -174 197 C-173.34 198.32 -172.68 199.64 -172 201 C-171.4225 200.649375 -170.845 200.29875 -170.25 199.9375 C-167.49262241 198.78859267 -166.73977615 198.87185688 -164 200 C-163.030625 200.70125 -162.06125 201.4025 -161.0625 202.125 C-158.22508484 204.21426151 -158.22508484 204.21426151 -155.375 204.0625 C-152.10949503 202.6016162 -150.78625406 201.09159357 -149 198 C-149.21033519 192.84678792 -150.79956669 190.6029389 -154.5 187.125 C-155.3146875 186.34382812 -156.129375 185.56265625 -156.96875 184.7578125 C-159.26553909 182.50717754 -159.26553909 182.50717754 -161.39868164 184.28515625 Z M-15 192 C-15.66 193.32 -16.32 194.64 -17 196 C-12.84850409 201.38156878 -8.32545689 205.79475608 -3 210 C-1.32448647 208.57282151 0.34019309 207.13291518 2 205.6875 C2.928125 204.88699219 3.85625 204.08648437 4.8125 203.26171875 C7.3476073 201.16501729 7.3476073 201.16501729 7 198 C6.34 197.67 5.68 197.34 5 197 C5 197.66 5 198.32 5 199 C2.33333333 200.33333333 -0.33333333 201.66666667 -3 203 C-3.72316406 202.13375 -3.72316406 202.13375 -4.4609375 201.25 C-5.09257812 200.5075 -5.72421875 199.765 -6.375 199 C-7.00148438 198.2575 -7.62796875 197.515 -8.2734375 196.75 C-8.84320313 196.1725 -9.41296875 195.595 -10 195 C-10.66 195 -11.32 195 -12 195 C-12.33 194.01 -12.66 193.02 -13 192 C-13.66 192 -14.32 192 -15 192 Z M-33 204 C-35.51576202 207.0026837 -35.96830492 208.63867606 -36.3125 212.5625 C-35.96453603 216.61533382 -35.96453603 216.61533382 -34 220 C-30.54010155 222.84932814 -27.48252586 223.5381438 -22.99609375 223.3515625 C-19.60322159 222.75399206 -17.54788848 221.24456842 -15 219 C-13.58809436 216.39562767 -13.58809436 216.39562767 -13 214 C-14.32 213.67 -15.64 213.34 -17 213 C-17.53625 213.825 -18.0725 214.65 -18.625 215.5 C-21 218 -21 218 -24.0625 218.5 C-27 218 -27 218 -28.875 216.9375 C-30.61973477 213.93267901 -30.30835443 211.39189869 -30 208 C-27.4345406 205.4345406 -25.52313332 205.45953913 -22 205 C-21.67 203.68 -21.34 202.36 -21 201 C-25.88751836 199.22272059 -29.10572385 200.97111855 -33 204 Z M-146.75 206.25 C-148.78264469 209.09570256 -148.883051 211.55000441 -149 215 C-147.71608379 218.85174864 -146.35498532 220.68629204 -143.3125 223.375 C-138.95976415 225.51030438 -136.8149809 225.61142615 -132 225 C-128.5568854 222.90419111 -126.2531782 220.8734599 -125 217 C-124.50169448 213.17965765 -124.85491693 211.29596946 -126.5625 207.8125 C-129.46524939 204.46317378 -131.80728732 203.34765765 -136 202 C-140.89298976 202 -142.88725809 203.49089864 -146.75 206.25 Z M-116 212 C-116.83732743 215.12394391 -117.66917982 218.24931974 -118.5 221.375 C-118.73847656 222.26445312 -118.97695312 223.15390625 -119.22265625 224.0703125 C-119.44824219 224.92109375 -119.67382812 225.771875 -119.90625 226.6484375 C-120.11572266 227.43395996 -120.32519531 228.21948242 -120.54101562 229.02880859 C-121.07559321 230.98732829 -121.07559321 230.98732829 -121 233 C-119.35 233.33 -117.7 233.66 -116 234 C-115.67 232.02 -115.34 230.04 -115 228 C-113.35 228.33 -111.7 228.66 -110 229 C-109.34 231.31 -108.68 233.62 -108 236 C-106.35 236.33 -104.7 236.66 -103 237 C-103.66 234.36 -104.32 231.72 -105 229 C-103.68 228.67 -102.36 228.34 -101 228 C-98.67250655 224.50875983 -98.49700684 223.10777749 -99 219 C-101.72243831 214.66884814 -105.98430579 213.83751957 -110.66015625 212.515625 C-113.08895395 211.89239806 -113.08895395 211.89239806 -116 212 Z M-67 216 C-69.29577243 218.51406311 -69.29577243 218.51406311 -71 221 C-70.43923199 223.49004504 -70.43923199 223.49004504 -69 226 C-64.66586616 228.11667001 -60.76644369 228.19065775 -56 228 C-56.33 229.32 -56.66 230.64 -57 232 C-61.95 232.495 -61.95 232.495 -67 233 C-67.33 233.99 -67.66 234.98 -68 236 C-66.7995888 237.41963042 -66.7995888 237.41963042 -63.3125 237.25 C-58.2629101 237.19560585 -54.59105086 235.59105086 -51 232 C-51.16417032 228.43407381 -51.16417032 228.43407381 -52 225 C-54.27592463 223.86203769 -55.97383275 223.72965157 -58.5 223.5 C-62.77777778 223.11111111 -62.77777778 223.11111111 -65 222 C-65 221.34 -65 220.68 -65 220 C-61.7 219.34 -58.4 218.68 -55 218 C-55.33 216.68 -55.66 215.36 -56 214 C-60.20044297 213.80463056 -63.28558235 213.94729551 -67 216 Z M-94 217 C-94 217.99 -94 218.98 -94 220 C-91.69 220 -89.38 220 -87 220 C-87 225.94 -87 231.88 -87 238 C-85.35 238 -83.7 238 -82 238 C-82 232.39 -82 226.78 -82 221 C-79.69 221 -77.38 221 -75 221 C-75 219.68 -75 218.36 -75 217 C-81.27 217 -87.54 217 -94 217 Z " fill="#FFFFFF" transform="translate(333,181)"/>
<path d="M0 0 C1.46704102 1.97094727 1.46704102 1.97094727 3.00390625 4.56640625 C3.5755249 5.51990967 4.14714355 6.47341309 4.73608398 7.45581055 C5.33880127 8.48101807 5.94151855 9.50622559 6.5625 10.5625 C7.8138826 12.66479012 9.06649463 14.76634889 10.3203125 16.8671875 C10.93938477 17.90713867 11.55845703 18.94708984 12.19628906 20.01855469 C13.81399043 22.69253535 15.47519415 25.32610698 17.1796875 27.9453125 C17.64947021 28.67032959 18.11925293 29.39534668 18.60327148 30.14233398 C19.47347788 31.47622583 20.35281543 32.80421816 21.24243164 34.12524414 C24.06053957 38.48082539 24.06053957 38.48082539 23.76806641 40.98901367 C22.26342299 44.92853935 19.74623569 47.1402316 16 49 C11.30446541 49.58334209 6.76761556 49.25002756 2.0625 48.875 C0.80630859 48.80023438 -0.44988281 48.72546875 -1.74414062 48.6484375 C-4.8324024 48.46055846 -7.91572002 48.24363808 -11 48 C-10.39929688 48.80824219 -9.79859375 49.61648437 -9.1796875 50.44921875 C-8.41914063 51.51785156 -7.65859375 52.58648437 -6.875 53.6875 C-6.10929687 54.74324219 -5.34359375 55.79898438 -4.5546875 56.88671875 C-3 60 -3 60 -3.53125 62.6875 C-5.03444813 65.05423749 -6.4387908 66.57162971 -8.625 68.3125 C-9.25664062 68.82425781 -9.88828125 69.33601563 -10.5390625 69.86328125 C-11.02117187 70.23839844 -11.50328125 70.61351562 -12 71 C-15.86778691 69.39605993 -18.62646356 66.77363988 -21.625 63.9375 C-22.69495303 62.94102014 -23.76527107 61.94493207 -24.8359375 60.94921875 C-25.36799805 60.45212402 -25.90005859 59.9550293 -26.44824219 59.44287109 C-37.84116672 48.76725569 -37.84116672 48.76725569 -50 39 C-48.41647613 35.3251919 -46.19268106 32.63155477 -43.5 29.6875 C-42.7059375 28.78386719 -41.911875 27.88023437 -41.09375 26.94921875 C-36.51658073 24.06537094 -33.15395142 25.04724807 -28 26 C-27.02321289 26.15702393 -26.04642578 26.31404785 -25.04003906 26.47583008 C-21.97902364 26.97480207 -18.9273212 27.51300452 -15.875 28.0625 C-14.823125 28.24876953 -13.77125 28.43503906 -12.6875 28.62695312 C-10.12439092 29.08132246 -7.56193355 29.53905697 -5 30 C-5.32274902 29.53102295 -5.64549805 29.0620459 -5.97802734 28.57885742 C-7.44390884 26.44855895 -8.90945783 24.31803193 -10.375 22.1875 C-10.88289063 21.44951172 -11.39078125 20.71152344 -11.9140625 19.95117188 C-12.64882812 18.88286133 -12.64882812 18.88286133 -13.3984375 17.79296875 C-13.84880371 17.1383667 -14.29916992 16.48376465 -14.76318359 15.80932617 C-17.99779162 11.0774509 -17.99779162 11.0774509 -18.0546875 9.08203125 C-16.36622662 5.7488844 -13.29161494 4.41618101 -10.125 2.6875 C-9.16787109 2.1296582 -9.16787109 2.1296582 -8.19140625 1.56054688 C-3.39094735 -1.13031578 -3.39094735 -1.13031578 0 0 Z " fill="#FFFFFF" transform="translate(142,110)"/>
<path d="M0 0 C0.66 0 1.32 0 2 0 C2.81898266 2.20611566 3.63027543 4.4145834 4.4375 6.625 C5.11619141 8.46964844 5.11619141 8.46964844 5.80859375 10.3515625 C6.8851319 13.64823997 7.77073267 16.54147786 8 20 C6.96875 22.01171875 6.96875 22.01171875 5.5 23.6875 C4.02417915 25.31274585 4.02417915 25.31274585 3 27 C3.495 28.485 3.495 28.485 4 30 C7.02485781 29.4118332 10.01386614 28.75929472 13 28 C13.86846831 29.74294678 14.71930627 31.49468663 15.5625 33.25 C16.03816406 34.22453125 16.51382813 35.1990625 17.00390625 36.203125 C18.08846008 39.24838203 18.24221869 40.09299593 17 43 C14.96899414 44.48876953 14.96899414 44.48876953 12.28515625 45.8828125 C10.80233154 46.66748901 10.80233154 46.66748901 9.28955078 47.46801758 C8.22462402 48.01482178 7.15969727 48.56162598 6.0625 49.125 C3.87314857 50.2762997 1.68435196 51.42865503 -0.50390625 52.58203125 C-2.14383545 53.43982178 -2.14383545 53.43982178 -3.81689453 54.31494141 C-9.15069886 57.13852765 -14.39780906 60.11518994 -19.64038086 63.10400391 C-24.78511125 66 -24.78511125 66 -27 66 C-28.65466537 62.28323138 -30.30869345 58.56617985 -31.9621582 54.84887695 C-32.52351098 53.58708227 -33.08503103 52.32536198 -33.64672852 51.0637207 C-34.45894766 49.23929602 -35.27049441 47.41457204 -36.08203125 45.58984375 C-36.56905518 44.49534912 -37.0560791 43.40085449 -37.55786133 42.27319336 C-38.03376709 41.19303955 -38.50967285 40.11288574 -39 39 C-39.27553711 38.38412521 -39.55107422 37.76825043 -39.83496094 37.13371277 C-42.74106726 30.54197743 -43.22556266 24.48317808 -40.8125 17.625 C-36.81241429 11.83177242 -32.52343297 7.91453544 -25.48828125 6.4921875 C-18.95400332 5.63553182 -14.02525893 6.36673869 -8 9 C-7.44570312 8.3503125 -6.89140625 7.700625 -6.3203125 7.03125 C-5.59585938 6.1959375 -4.87140625 5.360625 -4.125 4.5 C-3.40570313 3.6646875 -2.68640625 2.829375 -1.9453125 1.96875 C-0.98238281 0.99421875 -0.98238281 0.99421875 0 0 Z M-24 28 C-25.49498913 30.98997825 -25.11577446 33.70042775 -25 37 C-24.67 37.99 -24.34 38.98 -24 40 C-18.00067626 38.1668733 -12.55079437 35.92678249 -7 33 C-8.89291837 29.49810101 -10.51110211 27.00875939 -14 25 C-18.35855288 25 -20.28530176 25.8537299 -24 28 Z " fill="#FFFFFF" transform="translate(90,337)"/>
<path d="M0 0 C1.82409495 3.83681005 3.63845207 7.67803473 5.44433594 11.5234375 C6.05860994 12.82804461 6.67542192 14.13146009 7.29492188 15.43359375 C17.34209997 36.56507799 17.34209997 36.56507799 13.6875 47.375 C13.130625 48.57125 12.57375 49.7675 12 51 C11.01 51.33 10.02 51.66 9 52 C9 52.66 9 53.32 9 54 C7.730447 54.64834654 6.45930294 55.29357815 5.1875 55.9375 C4.12595703 56.47697266 4.12595703 56.47697266 3.04296875 57.02734375 C-0.51685542 58.72217399 -3.40912474 59.18521369 -7.3125 59.25 C-8.23675781 59.27578125 -9.16101563 59.3015625 -10.11328125 59.328125 C-13.76145902 58.91344715 -15.91373942 58.00689019 -19 56 C-20.76993949 53.72758965 -22.23223366 51.63860998 -23.6875 49.1875 C-24.06455078 48.58357422 -24.44160156 47.97964844 -24.83007812 47.35742188 C-31 37.3541803 -31 37.3541803 -31 34 C-31.928125 34.495 -32.85625 34.99 -33.8125 35.5 C-37 37 -37 37 -40 37 C-40.84324672 35.421924 -41.67423918 33.8372958 -42.5 32.25 C-42.9640625 31.36828125 -43.428125 30.4865625 -43.90625 29.578125 C-45 27 -45 27 -45 23 C-38.4381263 19.17547598 -31.90206296 15.37497592 -25.0625 12.0625 C-19.5023407 9.36099595 -14.27915404 6.22004973 -9.07446289 2.89477539 C-5.66696085 0.77129927 -4.12829767 0 0 0 Z M-5 25 C-9.95 27.31 -14.9 29.62 -20 32 C-18.15679016 37.27878555 -18.15679016 37.27878555 -14 40 C-9.94779203 40.20844691 -6.90899272 39.59084527 -3.5 37.375 C-1.41174452 34.06859549 -1.51198657 31.83439125 -2 28 C-2.99 27.01 -3.98 26.02 -5 25 Z " fill="#FFFFFF" transform="translate(443,196)"/>
<path d="M0 0 C4.38334193 1.47192703 8.5183396 3.43570155 12.6640625 5.46875 C15.84265035 7.20858383 15.84265035 7.20858383 19 7 C19.99 5.02 20.98 3.04 22 1 C26.49797113 2.68673918 30.72886302 4.81673892 35 7 C34.4093599 12.61561558 32.3644564 17.21310021 30.0703125 22.30078125 C29.67931366 23.17776169 29.28831482 24.05474213 28.88546753 24.95829773 C28.06021904 26.8029956 27.23129642 28.64605367 26.39892578 30.48754883 C25.12395511 33.31481705 23.86811316 36.15007431 22.61328125 38.98632812 C21.80843735 40.7791606 21.00248613 42.57149647 20.1953125 44.36328125 C19.82020538 45.21424881 19.44509827 46.06521637 19.05862427 46.94197083 C18.70170502 47.72335922 18.34478577 48.50474762 17.97705078 49.30981445 C17.66696075 50.00009232 17.35687073 50.69037018 17.03738403 51.40156555 C16 53 16 53 13 54 C9.09978009 52.4775551 5.43819284 50.47799666 1.73242188 48.53344727 C-0.08933494 47.58114353 -1.92229736 46.65395836 -3.7578125 45.72851562 C-11.91316474 41.53979493 -21.04092414 36.77403922 -25.125 28.125 C-26.74168059 22.42759461 -26.40309373 16.86996444 -23.796875 11.5390625 C-17.60291244 1.72652181 -11.73326649 -2.01281977 0 0 Z M-4.875 18.75 C-6.59594712 22.19189423 -6.03958743 24.361444 -5 28 C-2.69931981 30.49210521 -2.69931981 30.49210521 0 32 C0.66 32 1.32 32 2 32 C3.33858524 29.71125827 4.67101014 27.41930344 6 25.125 C6.3815625 24.47402344 6.763125 23.82304687 7.15625 23.15234375 C9.27551156 19.79649799 9.27551156 19.79649799 10 16 C3.97364236 12.55636706 -0.05362843 14.2500532 -4.875 18.75 Z " fill="#FFFFFF" transform="translate(145,435)"/>
<path d="M0 0 C4.12282742 0.7188892 6.41366179 1.74649466 9.75 4.3125 C10.70519531 5.03050781 11.66039062 5.74851562 12.64453125 6.48828125 C13.17385254 6.88740723 13.70317383 7.2865332 14.24853516 7.69775391 C17.60224112 10.19129553 21.02209365 12.59204566 24.4375 15 C25.16155029 15.51119385 25.88560059 16.0223877 26.6315918 16.54907227 C32.68402448 20.80773824 38.80928277 24.94442417 45 29 C44.47352232 32.66027341 43.74759076 34.77067401 41.25 37.5 C40.70601563 38.10199219 40.16203125 38.70398438 39.6015625 39.32421875 C38.30448168 40.6814082 36.97005551 42.00284069 35.625 43.3125 C32.36574606 46.64935522 29.59805112 50.28362329 26.76953125 53.98828125 C26.18558594 54.65214844 25.60164063 55.31601563 25 56 C24.34 56 23.68 56 23 56 C22.75507813 56.56203125 22.51015625 57.1240625 22.2578125 57.703125 C20.77073461 60.41865854 18.95937218 62.46391438 16.875 64.75 C16.15054688 65.54921875 15.42609375 66.3484375 14.6796875 67.171875 C14.12539063 67.77515625 13.57109375 68.3784375 13 69 C9.7173068 67.50923566 7.06922559 65.61379679 4.25 63.375 C3.45078125 62.74335938 2.6515625 62.11171875 1.828125 61.4609375 C1.22484375 60.97882813 0.6215625 60.49671875 0 60 C1.70776173 56.20394267 4.07483395 52.92235096 6.5 49.5625 C6.93562256 48.9550293 7.37124512 48.34755859 7.82006836 47.72167969 C11.39780411 42.76345681 15.09482264 37.90268014 18.86328125 33.08813477 C21.14121887 30.18080535 21.14121887 30.18080535 23 27 C22.278125 26.7525 21.55625 26.505 20.8125 26.25 C17.74942192 24.88863197 15.58665661 23.11016723 13 21 C12.01 20.67 11.02 20.34 10 20 C9.73058594 20.73605469 9.46117187 21.47210938 9.18359375 22.23046875 C8.03755243 24.9121298 6.77146717 26.96005864 5.0625 29.3125 C1.67228213 34.04587622 -1.64527724 38.82324511 -4.9375 43.625 C-5.9049293 45.03386695 -6.87237576 46.44272212 -7.83984375 47.8515625 C-8.90912109 49.41003906 -8.90912109 49.41003906 -10 51 C-13.56305823 49.71455342 -16.32844233 48.20155344 -19.3125 45.875 C-20.00988281 45.33617187 -20.70726562 44.79734375 -21.42578125 44.2421875 C-21.94527344 43.83226562 -22.46476562 43.42234375 -23 43 C-20.26082883 36.11720991 -16.71222601 29.69440257 -13.1875 23.1875 C-12.58357422 22.06279297 -11.97964844 20.93808594 -11.35742188 19.77929688 C-7.74005699 13.07802134 -3.98843172 6.48751817 0 0 Z " fill="#FFFFFF" transform="translate(351,106)"/>
<path d="M0 0 C3.0442214 2.32281768 5.62522851 4.47255156 7.8125 7.625 C8.23144531 8.21539062 8.65039062 8.80578125 9.08203125 9.4140625 C10 11 10 11 10 13 C10.66 13 11.32 13 12 13 C13.26831055 14.45776367 13.26831055 14.45776367 14.69921875 16.48046875 C16.85415956 19.45259768 19.05660379 22.34495359 21.39453125 25.17578125 C21.95720703 25.85833984 22.51988281 26.54089844 23.09960938 27.24414062 C24.25907777 28.64422846 25.42059767 30.04261947 26.58398438 31.43945312 C27.14021484 32.11556641 27.69644531 32.79167969 28.26953125 33.48828125 C29.02133667 34.39380737 29.02133667 34.39380737 29.78833008 35.31762695 C31 37 31 37 32 40 C29.34760863 42.01958733 26.67739131 44.01370428 24 46 C23.43023437 46.43699219 22.86046875 46.87398438 22.2734375 47.32421875 C18.54692541 50.04743912 18.54692541 50.04743912 16.01000977 49.82739258 C13.45259746 48.77466935 12.6362644 47.60197816 11.08984375 45.32421875 C10.57486328 44.57849609 10.05988281 43.83277344 9.52929688 43.06445312 C9.00400391 42.28005859 8.47871094 41.49566406 7.9375 40.6875 C6.8844029 39.14954212 5.83102629 37.61177559 4.77734375 36.07421875 C4.31577881 35.38932373 3.85421387 34.70442871 3.37866211 33.9987793 C1.97304 31.96091349 0.48536911 29.98049215 -1 28 C-3.97 29.98 -6.94 31.96 -10 34 C-8.58363731 36.52100454 -7.16691788 39.04180753 -5.75 41.5625 C-5.35425781 42.26697266 -4.95851563 42.97144531 -4.55078125 43.69726562 C-4.15761719 44.39658203 -3.76445312 45.09589844 -3.359375 45.81640625 C-2.96814453 46.5139502 -2.57691406 47.21149414 -2.17382812 47.93017578 C-1.3972461 49.29953152 -0.60960414 50.66267934 0.18945312 52.01904297 C3 56.79870756 3 56.79870756 3 59 C0.59004706 60.64220655 -1.80314791 62.15026599 -4.3125 63.625 C-5.00279297 64.04523438 -5.69308594 64.46546875 -6.40429688 64.8984375 C-11.61552608 68 -11.61552608 68 -15 68 C-17.38602494 62.82291267 -19.77041839 57.64507827 -22.15332031 52.46655273 C-22.96374726 50.70593096 -23.77461526 48.94551213 -24.5859375 47.18530273 C-25.75377276 44.65141507 -26.92000643 42.11679556 -28.0859375 39.58203125 C-28.44746918 38.79850784 -28.80900085 38.01498444 -29.18148804 37.2077179 C-34 26.72106055 -34 26.72106055 -34 22 C-31.375 20.078125 -31.375 20.078125 -28 18.25 C-26.88625 17.63640625 -25.7725 17.0228125 -24.625 16.390625 C-23.75875 15.93171875 -22.8925 15.4728125 -22 15 C-19.66475218 17.25740623 -17.81294927 19.2805761 -16 22 C-12.54074837 20.7508258 -9.85306797 19.32472205 -7 17 C-7.66 15.88625 -8.32 14.7725 -9 13.625 C-11 10.25 -11 10.25 -11 8 C-9.217871 6.55925285 -7.37339724 5.19489351 -5.5 3.875 C-4.4790625 3.15054687 -3.458125 2.42609375 -2.40625 1.6796875 C-1.6121875 1.12539063 -0.818125 0.57109375 0 0 Z " fill="#FFFFFF" transform="translate(352,422)"/>
<path d="M0 0 C16.5 0 33 0 50 0 C50 6.27 50 12.54 50 19 C40.25114691 19.08477264 30.71462771 18.93153964 21 18 C21.5775 18.69867188 22.155 19.39734375 22.75 20.1171875 C23.4925 21.02726562 24.235 21.93734375 25 22.875 C25.7425 23.77992188 26.485 24.68484375 27.25 25.6171875 C29 28 29 28 29 30 C37.415 31.98 37.415 31.98 46 34 C45 45.71428571 45 45.71428571 44 51 C37.68054932 49.67329509 31.56007115 48.0511936 25.40625 46.1015625 C24.5335144 45.82533051 23.66077881 45.54909851 22.76159668 45.26449585 C20.93566415 44.68365315 19.11051557 44.10034067 17.28613281 43.51464844 C15.41673621 42.91772579 13.54493272 42.32829287 11.67089844 41.74609375 C8.95229917 40.90144361 6.24138369 40.03543831 3.53125 39.1640625 C2.26891541 38.77790268 2.26891541 38.77790268 0.9810791 38.38394165 C-1.35742188 37.61572266 -1.35742188 37.61572266 -5 36 C-6.65984318 31.63996938 -5.2323048 28.34931106 -4 24 C-1.03 23.67 1.94 23.34 5 23 C4.566875 22.5153125 4.13375 22.030625 3.6875 21.53125 C-1.42882052 15.37271604 -1.42882052 15.37271604 -1.4375 10.9375 C-1.03142267 7.28280404 -0.52003272 3.64022903 0 0 Z " fill="#FFFFFF" transform="translate(413,305)"/>
<path d="M0 0 C2.94956528 1.36944102 5.52468811 2.87830409 8 5 C8 5.66 8 6.32 8 7 C8.54398438 7.22429687 9.08796875 7.44859375 9.6484375 7.6796875 C12.71917625 9.40378998 15.09473081 11.7119334 17.625 14.125 C22.86910176 19.03829745 28.30930581 23.60607905 34 28 C34.185625 26.453125 34.185625 26.453125 34.375 24.875 C34.93889814 21.37883154 35.78682059 18.31602373 37 15 C41.23429756 16.31061591 45.07407404 17.94356259 49 20 C47.40167863 27.50411884 45.4906962 34.90361185 43.5 42.3125 C43.19191406 43.47845703 42.88382813 44.64441406 42.56640625 45.84570312 C42.26605469 46.96525391 41.96570313 48.08480469 41.65625 49.23828125 C41.38619141 50.24930908 41.11613281 51.26033691 40.83789062 52.30200195 C40.09002309 54.71012671 39.20646274 56.79308001 38 59 C35.5 57.625 35.5 57.625 33 56 C33 55.34 33 54.68 33 54 C32.44699219 53.76667969 31.89398438 53.53335938 31.32421875 53.29296875 C28.39537331 51.66364465 26.25132312 49.6105541 23.8125 47.3125 C19.57699601 43.37871874 15.25241671 39.77759256 10.58203125 36.375 C10.05996094 35.92125 9.53789063 35.4675 9 35 C9 34.34 9 33.68 9 33 C7.515 32.505 7.515 32.505 6 32 C5.61908203 33.2684375 5.61908203 33.2684375 5.23046875 34.5625 C3.33966638 40.79435798 1.377749 46.93674005 -1 53 C-5.38507941 52.47973634 -9.67498095 51.90136124 -14 51 C-11.36941884 39.69888487 -8.16687784 28.60270105 -4.81835938 17.49487305 C-3.072009 11.68926749 -1.40237326 5.89864218 0 0 Z " fill="#FFFFFF" transform="translate(49,211)"/>
<path d="M0 0 C2.625 2.875 2.625 2.875 5 6 C5.928125 6.804375 5.928125 6.804375 6.875 7.625 C7.24625 8.07875 7.6175 8.5325 8 9 C7.28681746 13.33152686 4.88864124 16.67850395 2.5625 20.3125 C2.11729004 21.01673096 1.67208008 21.72096191 1.21337891 22.4465332 C-2.22959319 27.86512989 -5.77595128 33.21203109 -9.37084961 38.53076172 C-12.91698005 43.79966015 -16.19060288 49.20776843 -19.40625 54.68359375 C-19.9321875 55.44800781 -20.458125 56.21242187 -21 57 C-21.66 57 -22.32 57 -23 57 C-24.86172162 54.80921612 -26.56333917 52.63165864 -28.25 50.3125 C-28.7346875 49.68666016 -29.219375 49.06082031 -29.71875 48.41601562 C-31.01242705 46.64092715 -32.12468313 45.01541136 -33 43 C-32.359375 40.23046875 -32.359375 40.23046875 -31 38 C-30.67 37.01 -30.34 36.02 -30 35 C-32.45528138 30.83145102 -35.42585511 27.25619949 -39 24 C-41.13051325 23.37949196 -41.13051325 23.37949196 -43.1875 23.6875 C-47 24 -47 24 -48.83203125 22.8125 C-50.42097869 21.26448563 -51.80058643 19.86726885 -53 18 C-53 17.01 -53 16.02 -53 15 C-45.6171875 12.5390625 -38.234375 10.078125 -30.8515625 7.6171875 C-30.05472046 7.35135864 -29.25787842 7.08552979 -28.43688965 6.81164551 C-26.84764729 6.28233097 -25.25788606 5.75457171 -23.66760254 5.22839355 C-20.20575618 4.08123948 -16.75916624 2.9135764 -13.32617188 1.68164062 C-11.74932617 1.11993164 -11.74932617 1.11993164 -10.140625 0.546875 C-9.25407227 0.22041992 -8.36751953 -0.10603516 -7.45410156 -0.44238281 C-4.5582279 -1.10037878 -2.8118147 -0.93180187 0 0 Z M-28 19 C-26.6446674 21.53673288 -26.6446674 21.53673288 -25 24 C-24.34 24 -23.68 24 -23 24 C-22.34 21.69 -21.68 19.38 -21 17 C-23.35287614 17 -25.79373224 18.24893012 -28 19 Z " fill="#FFFFFF" transform="translate(419,161)"/>
<path d="M0 0 C3.71191803 1.72935513 6.01230511 3.7951656 8.8125 6.8125 C10.02873047 8.09060547 10.02873047 8.09060547 11.26953125 9.39453125 C13 12 13 12 12.82421875 14.57421875 C12 17 12 17 11.16015625 18.98046875 C10.76597787 21.25038452 10.76597787 21.25038452 12.80859375 23.61328125 C17.25431797 28.74356597 17.25431797 28.74356597 23.203125 31.21484375 C23.85796875 31.06144531 24.5128125 30.90804688 25.1875 30.75 C29 30 29 30 31.05078125 31.16015625 C32.86122063 32.69485737 34.50569071 34.15546197 36 36 C36 36.66 36 37.32 36 38 C30.11080412 40.67080972 24.22083234 43.33990251 18.33032227 46.0078125 C16.32721407 46.91529619 14.32428274 47.82317036 12.3215332 48.73144531 C9.44008227 50.03814149 6.55799481 51.34342449 3.67578125 52.6484375 C2.78288895 53.05371674 1.88999664 53.45899597 0.970047 53.8765564 C-11.58865232 59.55816833 -11.58865232 59.55816833 -16 58 C-18.45703125 56.15234375 -18.45703125 56.15234375 -20.8125 53.9375 C-21.99779297 52.83728516 -21.99779297 52.83728516 -23.20703125 51.71484375 C-23.79871094 51.14894531 -24.39039062 50.58304687 -25 50 C-21.81404753 40.75122753 -17.03877956 32.29355683 -12.43798828 23.69824219 C-9.88999 18.91717649 -7.38474053 14.11372495 -4.875 9.3125 C-3.93498667 7.51687952 -2.99489071 5.72130231 -2.0546875 3.92578125 C-1.36976389 2.61720204 -0.68485655 1.30861431 0 0 Z M6 32 C4.5393715 34.64738916 4 35.89448334 4 39 C5.98 38.34 7.96 37.68 10 37 C8.6910428 33.87802522 8.6910428 33.87802522 6 32 Z " fill="#FFFFFF" transform="translate(109,385)"/>
<path d="M0 0 C0.66 0 1.32 0 2 0 C2.39678955 0.68811768 2.7935791 1.37623535 3.20239258 2.08520508 C4.39376463 4.15115526 5.58535352 6.21698041 6.77709961 8.28271484 C8.14001294 10.64550537 9.50132611 13.00920825 10.86157227 15.37353516 C14.02699644 20.87200511 17.20337878 26.36249828 20.4453125 31.81640625 C20.95473389 32.67838623 21.46415527 33.54036621 21.98901367 34.4284668 C22.93520169 36.02660436 23.88821136 37.6207281 24.84887695 39.21020508 C25.2687085 39.92200928 25.68854004 40.63381348 26.12109375 41.3671875 C26.4864624 41.97675293 26.85183105 42.58631836 27.22827148 43.21435547 C28 45 28 45 28 49 C25.6875 51.5 25.6875 51.5 23 54 C21.97186389 55.31175986 20.95915568 56.6369893 20 58 C14.51217765 57.47708096 10.01952668 56.4813955 4.859375 54.41796875 C4.21107727 54.16251785 3.56277954 53.90706696 2.89483643 53.64387512 C0.84297644 52.83378034 -1.20365672 52.0114186 -3.25 51.1875 C-5.94090354 50.11390873 -8.63391584 49.04573522 -11.328125 47.98046875 C-11.97736938 47.72304901 -12.62661377 47.46562927 -13.29553223 47.20040894 C-19.12385374 44.90913696 -25.03092386 42.89471029 -31 41 C-31 35.20355369 -28.19214058 32.53811878 -24.56640625 28.203125 C-22 26 -22 26 -19.71484375 25.859375 C-18.2375714 26.24497695 -16.76227364 26.63822413 -15.2890625 27.0390625 C-12.75936105 27.22154174 -12.75936105 27.22154174 -10.3984375 25.0234375 C-7.98032597 22.42565205 -5.81603309 20.05257823 -4 17 C-4.07554616 14.83709331 -4.07554616 14.83709331 -5 13 C-5.5259375 11.63875 -5.5259375 11.63875 -6.0625 10.25 C-6.5265625 9.13625 -6.5265625 9.13625 -7 8 C-5.88200014 6.66079162 -4.75538103 5.32877444 -3.625 4 C-2.99851562 3.2575 -2.37203125 2.515 -1.7265625 1.75 C-1.15679687 1.1725 -0.58703125 0.595 0 0 Z M2 26 C0.3553326 28.46326712 0.3553326 28.46326712 -1 31 C1.64 31.66 4.28 32.32 7 33 C6.01 30.69 5.02 28.38 4 26 C3.34 26 2.68 26 2 26 Z " fill="#FFFFFF" transform="translate(389,380)"/>
<path d="M0 0 C0.33 1.65 0.66 3.3 1 5 C0.00419922 5.25523437 0.00419922 5.25523437 -1.01171875 5.515625 C-8.28619404 7.3887214 -8.28619404 7.3887214 -14 12 C-14.48281686 15.44007014 -14.72722355 17.75944218 -12.9375 20.8125 C-10.12453812 22.53657341 -7.18505255 23.2187607 -4 24 C-4.33 23.401875 -4.66 22.80375 -5 22.1875 C-6 20 -6 20 -6 17 C-4.73160474 16.49384702 -3.46016898 15.99530901 -2.1875 15.5 C-1.47980469 15.2215625 -0.77210938 14.943125 -0.04296875 14.65625 C2 14 2 14 5 14 C5.83848804 15.45537568 6.67063934 16.91440373 7.5 18.375 C7.9640625 19.18710937 8.428125 19.99921875 8.90625 20.8359375 C10 23 10 23 10 25 C10.66 25 11.32 25 12 25 C12.20625 24.236875 12.4125 23.47375 12.625 22.6875 C14.55894391 17.50101406 17.2785146 12.80966916 20 8 C24.51478398 8.53115106 27.34666857 10.36620292 31 13 C23.94079634 28.13989416 16.51551552 43.08249639 9 58 C8.01 57.67 7.02 57.34 6 57 C5.17449223 55.23877812 4.35729008 53.47264096 3.60375977 51.67944336 C2.09073081 48.18371352 0.55338102 44.86132647 -2 42 C-5.6652497 40.64601364 -8.68794583 40.44767496 -12.578125 40.2890625 C-17.83432805 39.84504535 -21.2904466 37.6587376 -25 34 C-28.61944328 28.40631493 -28.7238116 22.47620902 -28 16 C-26.94126653 12.25371232 -25.16049726 9.24074589 -23 6 C-22.34 6 -21.68 6 -21 6 C-21 5.34 -21 4.68 -21 4 C-13.8036691 0.93540281 -7.83534611 -0.61187085 0 0 Z " fill="#FFFFFF" transform="translate(422,351)"/>
<path d="M0 0 C17.49 2.97 34.98 5.94 53 9 C51.73403657 15.32981714 49.37674866 20.20680697 45 25 C42.78125 25.51171875 42.78125 25.51171875 40.5 25.4375 C38.20289956 25.25131835 38.20289956 25.25131835 36 26 C33.06807031 29.71198437 31.00400586 33.72779458 29 38 C29.66 38.76441406 30.32 39.52882812 31 40.31640625 C33 43 33 43 33 45.9375 C31.85359593 49.44836245 30.18574246 52.0386715 28 55 C27.01 54.34 26.02 53.68 25 53 C25 52.34 25 51.68 25 51 C24.34 51 23.68 51 23 51 C21.6672812 49.53309441 20.41086131 47.99677499 19.1875 46.4375 C15.34841574 41.63709416 11.4107306 36.94877884 7.375 32.3125 C6.8166748 31.66941895 6.25834961 31.02633789 5.68310547 30.36376953 C2.24836277 26.41406985 -1.2116203 22.48846878 -4.73046875 18.61328125 C-6 17 -6 17 -8 13 C-5.36 8.71 -2.72 4.42 0 0 Z M16 23 C17.98 25.97 17.98 25.97 20 29 C20.99 28.67 21.98 28.34 23 28 C23.73323796 25.98491642 23.73323796 25.98491642 24 24 C21.36 23.67 18.72 23.34 16 23 Z " fill="#FFFFFF" transform="translate(71,173)"/>
<path d="M0 0 C5.01242779 1.83033377 8.65775981 4.23656432 11.0625 9.1875 C12.27828157 11.53801104 13.66979756 11.87248269 16 13 C17.21237671 16.63713013 16.63552691 18.09726971 15.625 21.75 C10.65690675 39.85800342 12.10216075 59.6319734 15.63623047 77.89501953 C16.27260323 81.57743965 16.62355261 85.28303887 17 89 C13.14213034 90.81546807 10.23294004 91.09380477 6 91 C-0.9564002 78.35017715 -6.69541103 64.6420268 -7 50 C-7.03867188 48.81277344 -7.07734375 47.62554687 -7.1171875 46.40234375 C-7.48490912 30.21259997 -4.67501272 15.41683583 0 0 Z " fill="#FFFFFF" transform="translate(216,37)"/>
<path d="M0 0 C9.96581595 26.25511917 10.84536635 56.68912145 -0.76171875 82.5625 C-2.29685496 85.58434541 -3.96738205 88.28984273 -6 91 C-7.8871875 90.814375 -7.8871875 90.814375 -9.8125 90.625 C-10.52019531 90.55539063 -11.22789062 90.48578125 -11.95703125 90.4140625 C-14 90 -14 90 -17 88 C-16.82609741 87.05870239 -16.82609741 87.05870239 -16.64868164 86.09838867 C-13.52814415 68.97675894 -11.00481453 52.45759908 -12.8125 35.0625 C-12.8945166 34.26392578 -12.9765332 33.46535156 -13.06103516 32.64257812 C-13.46827647 29.12929628 -13.99466318 26.0167285 -15.07421875 22.6328125 C-16.11869841 19.30986876 -16.64207884 17.44429437 -16 14 C-12.96133083 9.5022498 -5.807475 0 0 0 Z " fill="#FFFFFF" transform="translate(281,37)"/>
<path d="M0 0 C3.09244792 0.03255208 6.18489583 0.06510417 9.27734375 0.09765625 C9.93734375 4.38765625 10.59734375 8.67765625 11.27734375 13.09765625 C12.18500488 13.00677734 13.09266602 12.91589844 14.02783203 12.82226562 C17.41579034 12.48446587 20.80398943 12.1493141 24.19238281 11.81591797 C25.65505206 11.6714608 27.11761946 11.5259683 28.58007812 11.37939453 C30.68984051 11.16813086 32.79994877 10.960671 34.91015625 10.75390625 C36.81112061 10.56538086 36.81112061 10.56538086 38.75048828 10.37304688 C41.9457071 10.12355173 45.07445771 10.04592727 48.27734375 10.09765625 C49.23131662 14.86752058 49.3173318 19.2591024 49.27734375 24.09765625 C44.93664311 24.95695957 40.595006 25.8113121 36.25244141 26.66113281 C34.7759384 26.95079568 33.29969767 27.24179886 31.82373047 27.53417969 C29.69957277 27.95472 27.57451193 28.37039758 25.44921875 28.78515625 C24.17143555 29.03652344 22.89365234 29.28789062 21.57714844 29.546875 C18.27734375 30.09765625 18.27734375 30.09765625 14.27734375 30.09765625 C14.93734375 34.38765625 15.59734375 38.67765625 16.27734375 43.09765625 C6.77734375 45.09765625 6.77734375 45.09765625 2.27734375 45.09765625 C1.10196743 37.77935609 -0.06853998 30.46029549 -1.23535156 23.140625 C-1.62979575 20.67752263 -2.02940999 18.21542177 -2.43359375 15.75390625 C-2.61148438 14.65046875 -2.789375 13.54703125 -2.97265625 12.41015625 C-3.1221875 11.49878906 -3.27171875 10.58742188 -3.42578125 9.6484375 C-3.76102325 6.76800299 -3.83870852 3.99481827 -3.72265625 1.09765625 C-2.72265625 0.09765625 -2.72265625 0.09765625 0 0 Z " fill="#FEFEFE" transform="translate(37.72265625,300.90234375)"/>
<path d="M0 0 C1.42695045 14.99232656 2.44205683 29.95021718 3 45 C-1.29 45 -5.58 45 -10 45 C-10.8372965 39.97622101 -11.0861953 35.99932751 -11 31 C-11.8818396 31.04543945 -11.8818396 31.04543945 -12.78149414 31.09179688 C-24.53585257 31.6878248 -36.23015164 32.12010049 -48 32 C-48 27.38 -48 22.76 -48 18 C-43.49784574 17.42862178 -38.9955787 16.85837089 -34.49291992 16.29101562 C-32.96126001 16.09767255 -31.42968361 15.90366672 -29.89819336 15.70898438 C-27.6966683 15.4292444 -25.49485378 15.15189042 -23.29296875 14.875 C-22.60849167 14.78750488 -21.92401459 14.70000977 -21.21879578 14.60986328 C-18.45313392 14.26403323 -15.79093071 14 -13 14 C-13.33 9.71 -13.66 5.42 -14 1 C-11.64875 0.7525 -11.64875 0.7525 -9.25 0.5 C-8.36828125 0.4071875 -7.4865625 0.314375 -6.578125 0.21875 C-4 0 -4 0 0 0 Z " fill="#FEFEFE" transform="translate(462,254)"/>
<path d="M0 0 C0.66 0 1.32 0 2 0 C8.04276853 16.80358398 13.34756967 34.01561607 14 52 C14.03996094 52.89976563 14.07992188 53.79953125 14.12109375 54.7265625 C14.48085384 70.42903228 12.20665907 87.48085111 6 102 C3.36 102 0.72 102 -2 102 C-1.97494385 101.14849365 -1.9498877 100.2969873 -1.92407227 99.41967773 C-1.24830159 75.9699756 -0.79912273 52.51882487 -0.4375 29.0625 C-0.4263982 28.34254223 -0.4152964 27.62258446 -0.40385818 26.88080978 C-0.26599073 17.92058809 -0.13143984 8.96031841 0 0 Z " fill="#FFFFFF" transform="translate(252,25)"/>
<path d="M0 0 C0.33 0 0.66 0 1 0 C1.2641419 10.05066293 1.52511714 20.101403 1.78230286 30.15224648 C1.90188254 34.82175272 2.02245973 39.49122829 2.14550781 44.16064453 C3.19003033 83.8494639 3.19003033 83.8494639 3 102 C0.36 102 -2.28 102 -5 102 C-15.16778594 67.42176614 -14.77298166 33.23920873 0 0 Z " fill="#FFFFFF" transform="translate(244,25)"/>
<path d="M0 0 C3.70694893 0.55158102 5.10342371 1.88226654 7.4375 4.75 C9.43837317 7.1826161 11.21523405 9.17325244 13.68359375 11.16015625 C17.00587773 15.23317557 16.65596902 18.58177216 16.625 23.6875 C16.99453722 40.05191049 20.06819079 54.62492124 25.38330078 70.08740234 C26.01350349 72.041879 26.52392271 74.00291964 27 76 C22.63783005 78.05991359 22.63783005 78.05991359 20.00390625 77.8125 C13.49982179 75.17536634 10.2292468 63.66101618 7.54907227 57.53027344 C2.77594633 46.04915083 -0.73622592 33.47854321 -1 21 C-1.02707031 20.17628906 -1.05414063 19.35257813 -1.08203125 18.50390625 C-1.18860983 12.29328168 -0.65705148 6.17159069 0 0 Z " fill="#FFFFFF" transform="translate(191,53)"/>
<path d="M0 0 C0.99 0 1.98 0 3 0 C9.6132041 25.70009399 -1.07333045 52.74508053 -13 75 C-13.66 75.99 -14.32 76.98 -15 78 C-20.75 77.125 -20.75 77.125 -23 76 C-22.16413535 70.98481208 -20.56617044 66.21936162 -19.0625 61.375 C-16.90931772 54.30134801 -14.9151991 47.35724992 -14 40 C-13.89042969 39.15050781 -13.78085937 38.30101562 -13.66796875 37.42578125 C-13.21707066 33.30757866 -12.94621996 29.53375248 -13.36328125 25.39453125 C-14.17240105 15.83132012 -14.17240105 15.83132012 -11.84277344 12.19238281 C-8.60662917 8.3608394 -4.82549245 5.22175619 -1 2 C-0.67 1.34 -0.34 0.68 0 0 Z " fill="#FFFFFF" transform="translate(303,53)"/>
<path d="M0 0 C8.61844338 -0.13728494 17.16910442 0.21835439 25.76538086 0.79956055 C27.82701354 0.93847795 29.8890188 1.07022991 31.95117188 1.20117188 C38.02398309 1.59897811 43.96364414 2.13766345 50 3 C50 8.28 50 13.56 50 19 C33.17 19 16.34 19 -1 19 C-1 5 -1 5 0 0 Z " fill="#FFFFFF" transform="translate(35,272)"/>
<path d="M0 0 C3.33794538 1.16102448 4.3364746 1.83747557 5.875 5 C6.375 8 6.375 8 5.875 11 C3.6875 13.4375 3.6875 13.4375 0.875 15 C-2.40114417 15 -3.79924798 14.23771094 -6.4375 12.3125 C-8.125 10 -8.125 10 -8.6875 7 C-8.125 4 -8.125 4 -6 1.5625 C-3.125 0 -3.125 0 0 0 Z " fill="#FFFFFF" transform="translate(195.125,194)"/>
<path d="M0 0 C6.84162896 -0.65158371 6.84162896 -0.65158371 10 1.125 C11.53179633 3.99711812 11.51315979 5.7927513 11 9 C8.875 11.9375 8.875 11.9375 6 14 C2.42106498 14.0715787 0.765042 13.6663269 -1.9375 11.3125 C-3.38993065 8.1513274 -2.91522172 6.30887851 -2 3 C-1.34 2.01 -0.68 1.02 0 0 Z " fill="#FFFFFF" transform="translate(192,388)"/>
<path d="M0 0 C2 0.8125 2 0.8125 3.25 2.875 C3.4975 3.514375 3.745 4.15375 4 4.8125 C2.68 6.4625 1.36 8.1125 0 9.8125 C-1.32 9.4825 -2.64 9.1525 -4 8.8125 C-4 8.1525 -4 7.4925 -4 6.8125 C-4.66 6.8125 -5.32 6.8125 -6 6.8125 C-6 5.4925 -6 4.1725 -6 2.8125 C-5.34 2.8125 -4.68 2.8125 -4 2.8125 C-4 2.1525 -4 1.4925 -4 0.8125 C-2 -0.1875 -2 -0.1875 0 0 Z " fill="#FFFFFF" transform="translate(171,212.1875)"/>
<path d="M0 0 C2.46800047 1.15173355 4.04783565 2.04783565 6 4 C6.1875 6.5625 6.1875 6.5625 6 9 C5 10 5 10 2.6875 10.375 C0 10 0 10 -2.3125 7.5 C-2.869375 6.675 -3.42625 5.85 -4 5 C-2.68 3.35 -1.36 1.7 0 0 Z " fill="#FFFFFF" transform="translate(173,370)"/>
<path d="M0 0 C1 1 1 1 1.0625 4.0625 C1.041875 5.031875 1.02125 6.00125 1 7 C-1.64 7.66 -4.28 8.32 -7 9 C-7.33 6.36 -7.66 3.72 -8 1 C-5.26752652 -0.36623674 -3.01801098 -0.128426 0 0 Z " fill="#FFFFFF" transform="translate(223,183)"/>
<path d="M0 0 C2.31 0.33 4.62 0.66 7 1 C7.38133299 2.9914056 7.71325582 4.99279077 8 7 C7 8 7 8 5.15234375 8.09765625 C3.1015625 8.06510417 1.05078125 8.03255208 -1 8 C-1.125 2.25 -1.125 2.25 0 0 Z " fill="#FFFFFF" transform="translate(221,398)"/>
<path d="M0 0 C1.32 0.33 2.64 0.66 4 1 C4.6875 2.625 4.6875 2.625 5 5 C3.5625 8.25 3.5625 8.25 2 11 C-0.475 10.01 -0.475 10.01 -3 9 C-2.5020163 5.26512223 -2.12508244 3.18762365 0 0 Z " fill="#FFFFFF" transform="translate(361,330)"/>
<path d="M0 0 C2.35448165 2.55068845 2.98327924 3.71017358 3.1875 7.25 C3.125625 8.1575 3.06375 9.065 3 10 C1.68 10.33 0.36 10.66 -1 11 C-2.32 8.36 -3.64 5.72 -5 3 C-3 1 -3 1 0 0 Z " fill="#FFFFFF" transform="translate(349,252)"/>
<path d="M0 0 C2.0625 0.4375 2.0625 0.4375 4 1 C3.125 7.75 3.125 7.75 2 10 C0.02 9.34 -1.96 8.68 -4 8 C-1.125 1.125 -1.125 1.125 0 0 Z " fill="#FFFFFF" transform="translate(353,328)"/>
<path d="M0 0 C3 1 3 1 4 3 C4.039992 4.99960012 4.04346799 7.00047242 4 9 C2.35 9 0.7 9 -1 9 C-1.66 6.69 -2.32 4.38 -3 2 C-2.01 1.34 -1.02 0.68 0 0 Z " fill="#FFFFFF" transform="translate(356,249)"/>
</svg>
