<?xml version="1.0" encoding="UTF-8"?>
<svg version="1.1" xmlns="http://www.w3.org/2000/svg" width="86" height="75">
<path d="M0 0 C7.13491758 -0.14863618 14.26892842 -0.25735723 21.4050293 -0.32958984 C23.8309703 -0.35970966 26.25680288 -0.40061464 28.68237305 -0.45263672 C32.17523992 -0.52565833 35.66666372 -0.55950597 39.16015625 -0.5859375 C40.77930687 -0.63238907 40.77930687 -0.63238907 42.4311676 -0.67977905 C48.69964306 -0.68256269 52.26629451 0.01705458 56.8182373 4.45861816 C58.49724837 6.64856474 58.72627961 8.15222081 58.4375 10.875 C58.37433594 11.65617188 58.31117187 12.43734375 58.24609375 13.2421875 C58.12427734 14.11230469 58.12427734 14.11230469 58 15 C59.19625 15.020625 60.3925 15.04125 61.625 15.0625 C66.04728499 15.66749044 68.00226361 17.20268114 70.75634766 20.63500977 C73.35128725 25.56967404 72.93977725 30.98737758 72.875 36.4375 C72.93494141 38.22124023 72.93494141 38.22124023 72.99609375 40.04101562 C72.98918762 46.25998206 72.57638338 50.23116636 68.2265625 54.87890625 C64.83932603 57.98580591 64.83932603 57.98580591 61.70458984 58.03881836 C59.5 57.5 59.5 57.5 56 56 C55.814375 56.66 55.62875 57.32 55.4375 58 C51.76010298 65.6745677 46.06304886 70.41810896 38.375 73.92578125 C28.80040853 76.9732496 19.43059041 75.76479917 10.4609375 71.484375 C4.76597564 68.04931864 2.08844396 62.71934067 -1 57 C-1.56323975 57.21785156 -2.12647949 57.43570313 -2.70678711 57.66015625 C-5.87836928 58.13017034 -7.0721471 57.23288358 -9.69140625 55.4375 C-12.62268766 53.01210975 -13.83772142 51.60948257 -14.82373047 47.90625 C-15.10558157 44.23235966 -15.08041327 40.68144585 -14.9375 37 C-14.94716797 35.75476562 -14.95683594 34.50953125 -14.96679688 33.2265625 C-14.85041512 26.61043607 -14.45157365 22.01026132 -9.70678711 17.17944336 C-6.64493405 15.06360698 -3.65002559 14.56638328 0 14 C0 9.38 0 4.76 0 0 Z " fill="#1B1A1A" transform="translate(14,0)"/>
<path d="M0 0 C3.63 0 7.26 0 11 0 C11 1.65 11 3.3 11 5 C9.68 5 8.36 5 7 5 C7 4.34 7 3.68 7 3 C6.34 3 5.68 3 5 3 C5 4.32 5 5.64 5 7 C6.65 7 8.3 7 10 7 C10 7.99 10 8.98 10 10 C8.35 10 6.7 10 5 10 C5 11.65 5 13.3 5 15 C5.66 15 6.32 15 7 15 C7 14.34 7 13.68 7 13 C8.32 13 9.64 13 11 13 C10.9071875 14.175625 10.9071875 14.175625 10.8125 15.375 C10.874375 16.24125 10.93625 17.1075 11 18 C11.99 18.66 12.98 19.32 14 20 C14.22137393 22.62697064 14.28162025 25.00893964 14.1875 27.625 C14.16719727 28.68460938 14.16719727 28.68460938 14.14648438 29.765625 C14.1111104 31.51074128 14.05730221 33.25546608 14 35 C12.35 35 10.7 35 9 35 C9 34.34 9 33.68 9 33 C8.34 33 7.68 33 7 33 C7 33.66 7 34.32 7 35 C6.360625 35.144375 5.72125 35.28875 5.0625 35.4375 C3.02454854 35.81007181 3.02454854 35.81007181 2 37 C2.7206665 37.01458252 3.44133301 37.02916504 4.18383789 37.04418945 C7.47724087 37.11906959 10.76967436 37.21559841 14.0625 37.3125 C15.19623047 37.33505859 16.32996094 37.35761719 17.49804688 37.38085938 C23.77776989 37.58224991 28.40975435 38.12109965 34 41 C36.71163778 41.41986946 36.71163778 41.41986946 39 41 C41.22229436 39.19925055 41.22229436 39.19925055 41.23046875 36.72265625 C41.21628906 35.84480469 41.20210938 34.96695313 41.1875 34.0625 C41.18105469 33.18722656 41.17460938 32.31195313 41.16796875 31.41015625 C41.09069243 28.8562325 41.09069243 28.8562325 40 26 C40.66 26 41.32 26 42 26 C41.71290562 20.73454721 41.71290562 20.73454721 39.75 16 C37.41516867 14.66581067 35.64213132 14.78577314 33 15 C33.78375 15.103125 34.5675 15.20625 35.375 15.3125 C38 16 38 16 40 19 C40 20.32 40 21.64 40 23 C38.35 23 36.7 23 35 23 C35 22.01 35 21.02 35 20 C34.01 20 33.02 20 32 20 C32 21.98 32 23.96 32 26 C32.763125 25.938125 33.52625 25.87625 34.3125 25.8125 C37 26 37 26 38.65625 27.21875 C40.39217091 29.51985446 40.31131194 30.83982544 40.1875 33.6875 C40.14689453 34.89986328 40.14689453 34.89986328 40.10546875 36.13671875 C40.07066406 36.75160156 40.03585938 37.36648437 40 38 C39.34 38 38.68 38 38 38 C38 38.66 38 39.32 38 40 C35.03 39.34 32.06 38.68 29 38 C29 37.34 29 36.68 29 36 C28.34 36 27.68 36 27 36 C27 34.68 27 33.36 27 32 C28.65 32 30.3 32 32 32 C32 32.99 32 33.98 32 35 C32.99 35 33.98 35 35 35 C35 33.35 35 31.7 35 30 C34.236875 29.896875 33.47375 29.79375 32.6875 29.6875 C29.71948473 28.92824028 28.83801444 28.38995463 27 26 C26.7421875 23.80859375 26.7421875 23.80859375 26.875 21.4375 C27.10485811 18.08842438 27.10485811 18.08842438 26 15 C29.49244507 12.81722183 32.10166889 11.71509107 36.1875 12.0625 C40 13 40 13 41.71118164 14.72851562 C44.12218638 18.97780301 43.4698572 23.72878379 43.4375 28.5 C43.45748047 29.54542969 43.47746094 30.59085938 43.49804688 31.66796875 C43.49708008 33.17810547 43.49708008 33.17810547 43.49609375 34.71875 C43.49794678 35.63591797 43.4997998 36.55308594 43.50170898 37.49804688 C42.85069833 40.7445467 41.54493939 41.95206114 39 44 C37 44.2421875 37 44.2421875 35 43.875 C34.34 43.76929688 33.68 43.66359375 33 43.5546875 C31 43 31 43 29.0234375 41.984375 C21.94639936 38.54149158 12.07602832 39.90097103 4.375 39.875 C3.37807129 39.87032715 2.38114258 39.8656543 1.35400391 39.86083984 C-0.04712646 39.86398193 -0.04712646 39.86398193 -1.4765625 39.8671875 C-2.7462085 39.86887939 -2.7462085 39.86887939 -4.04150391 39.87060547 C-6.00387534 39.7842244 -6.00387534 39.7842244 -7 41 C-3.04 41.33 0.92 41.66 5 42 C2.77174356 44.22825644 1.34238372 44.69239369 -1.625 45.625 C-2.44226563 45.88539062 -3.25953125 46.14578125 -4.1015625 46.4140625 C-4.72804688 46.60742188 -5.35453125 46.80078125 -6 47 C-6 47.66 -6 48.32 -6 49 C-5.46890625 49.26554687 -4.9378125 49.53109375 -4.390625 49.8046875 C-0.92708333 51.53645833 2.53645833 53.26822917 6 55 C2.55930376 57.29379749 1.27709699 58 -3 58 C-2.54625 58.45375 -2.0925 58.9075 -1.625 59.375 C-0.41666667 60.58333333 0.79166667 61.79166667 2 63 C-4.69030214 61.92091901 -11.6286737 60.51167229 -16 55 C-14.515 54.505 -14.515 54.505 -13 54 C-13.68835938 53.52433594 -13.68835938 53.52433594 -14.390625 53.0390625 C-19.79867125 48.9262206 -22.19300393 44.52089885 -24 38 C-24 37.01 -24 36.02 -24 35 C-23.34 35 -22.68 35 -22 35 C-22 33.68 -22 32.36 -22 31 C-20.02 30.34 -18.04 29.68 -16 29 C-15.67 26.69 -15.34 24.38 -15 22 C-14.01 22 -13.02 22 -12 22 C-12 24.31 -12 26.62 -12 29 C-11.01 29 -10.02 29 -9 29 C-9.33 26.36 -9.66 23.72 -10 21 C-8.02 21.33 -6.04 21.66 -4 22 C-3.67 21.01 -3.34 20.02 -3 19 C-2.01 19 -1.02 19 0 19 C0 12.73 0 6.46 0 0 Z M13 0 C14.60875 -0.04125 16.2175 -0.0825 17.875 -0.125 C18.77992187 -0.14820313 19.68484375 -0.17140625 20.6171875 -0.1953125 C23 0 23 0 25 2 C25.36183818 4.49201458 25.60294538 6.87032776 25.75 9.375 C25.83314453 10.38433594 25.83314453 10.38433594 25.91796875 11.4140625 C26.16219183 15.17361781 26.12112074 17.8183189 24 21 C24.33 21.33 24.66 21.66 25 22 C25.07271741 24.35313555 25.08370868 26.70833668 25.0625 29.0625 C25.05347656 30.35285156 25.04445313 31.64320312 25.03515625 32.97265625 C25.02355469 33.97167969 25.01195312 34.97070312 25 36 C21.7 36 18.4 36 15 36 C15 30.72 15 25.44 15 20 C16.65 19.67 18.3 19.34 20 19 C17.69 18.67 15.38 18.34 13 18 C13 12.06 13 6.12 13 0 Z " fill="#262020" transform="translate(38,8)"/>
<path d="M0 0 C5.78406969 -0.07410115 11.56786371 -0.12857885 17.35229492 -0.16479492 C19.32044283 -0.17989082 21.28855706 -0.20036948 23.2565918 -0.22631836 C26.08390612 -0.26266649 28.9107761 -0.27971814 31.73828125 -0.29296875 C33.06029289 -0.31619453 33.06029289 -0.31619453 34.40901184 -0.33988953 C35.22963608 -0.34011612 36.05026031 -0.34034271 36.89575195 -0.34057617 C37.61745071 -0.34723801 38.33914948 -0.35389984 39.0827179 -0.36076355 C41.59938007 0.11278178 42.47962383 0.96731256 44 3 C44.2578125 6.28515625 44.2578125 6.28515625 44.125 10.0625 C43.76956823 14.69504738 43.76956823 14.69504738 45 19 C44.99135917 21.27685912 44.86951278 23.53546303 44.7421875 25.80859375 C44.8157382 28.07797896 44.8157382 28.07797896 46.37109375 29.7421875 C48.22631639 31.1747575 49.70754948 31.60474991 52 32 C52 33.65 52 35.3 52 37 C51.01 37 50.02 37 49 37 C49 36.01 49 35.02 49 34 C47.35 34 45.7 34 44 34 C44 35.32 44 36.64 44 38 C44.66 38 45.32 38 46 38 C46 38.66 46 39.32 46 40 C48.97 40.66 51.94 41.32 55 42 C55 41.34 55 40.68 55 40 C55.66 40 56.32 40 57 40 C56.88590407 38.54077307 56.75834456 37.08259402 56.625 35.625 C56.52058594 34.40683594 56.52058594 34.40683594 56.4140625 33.1640625 C56.17107412 30.79665809 56.17107412 30.79665809 54 29 C51.42938689 28.35232207 51.42938689 28.35232207 49 28 C49 26.02 49 24.04 49 22 C49.99 22 50.98 22 52 22 C52 22.99 52 23.98 52 25 C53.65 25 55.3 25 57 25 C56.01 21.535 56.01 21.535 55 18 C52.36 17.67 49.72 17.34 47 17 C47 16.67 47 16.34 47 16 C54.2 15.52 54.2 15.52 57.5 17.5 C59.68405234 21.14008723 59.28023018 23.79654733 59 28 C58.34 28 57.68 28 57 28 C57.99 29.485 57.99 29.485 59 31 C59.30078125 33.375 59.30078125 33.375 59.3125 36 C59.32925781 36.86625 59.34601563 37.7325 59.36328125 38.625 C59 41 59 41 57.7265625 42.82421875 C55.18630329 44.55412378 52.96040192 43.94225461 50.03515625 43.51953125 C48 43 48 43 46.32104492 41.9934082 C43.11698435 40.62206893 40.30642781 40.67146954 36.828125 40.5859375 C35.8044986 40.55688828 35.8044986 40.55688828 34.76019287 40.5272522 C32.59025392 40.46768902 30.42026123 40.42116554 28.25 40.375 C26.77471703 40.33679869 25.29945585 40.2977457 23.82421875 40.2578125 C20.21634582 40.16200765 16.60830917 40.07789084 13 40 C13 39.67 13 39.34 13 39 C13.94875 38.87625 14.8975 38.7525 15.875 38.625 C19.08667191 38.28312823 19.08667191 38.28312823 21 36 C21.99 36.33 22.98 36.66 24 37 C24 36.34 24 35.68 24 35 C24.66 35 25.32 35 26 35 C26 35.66 26 36.32 26 37 C27.98 36.505 27.98 36.505 30 36 C30 31.38 30 26.76 30 22 C26.37 21.67 22.74 21.34 19 21 C19 20.67 19 20.34 19 20 C21.97 20 24.94 20 28 20 C28 18.35 28 16.7 28 15 C26.68 15 25.36 15 24 15 C24 15.66 24 16.32 24 17 C23.34 17 22.68 17 22 17 C22 15.35 22 13.7 22 12 C23.65 12 25.3 12 27 12 C27 11.01 27 10.02 27 9 C25.35 9 23.7 9 22 9 C22 7.68 22 6.36 22 5 C22.66 5 23.32 5 24 5 C24 5.66 24 6.32 24 7 C25.32 7 26.64 7 28 7 C28 5.35 28 3.7 28 2 C24.37 2 20.74 2 17 2 C17.495 2.99 17.495 2.99 18 4 C18.0972886 6.12318064 18.12977619 8.24959691 18.125 10.375 C18.12886719 12.08816406 18.12886719 12.08816406 18.1328125 13.8359375 C17.92640925 18.75319135 17.92640925 18.75319135 17 21 C16.01 21.33 15.02 21.66 14 22 C13.67 22.66 13.34 23.32 13 24 C11.35 24 9.7 24 8 24 C8 26.31 8 28.62 8 31 C7.01 31 6.02 31 5 31 C5 28.69 5 26.38 5 24 C4.278125 24.144375 3.55625 24.28875 2.8125 24.4375 C0.20833333 24.95833333 -2.39583333 25.47916667 -5 26 C-5 24.68 -5 23.36 -5 22 C-5.99 22 -6.98 22 -8 22 C-8 28.6 -8 35.2 -8 42 C-12 41 -12 41 -13 40 C-13.40403485 37.58168921 -13.75352086 35.18063589 -14.0625 32.75 C-14.19881836 31.74646484 -14.19881836 31.74646484 -14.33789062 30.72265625 C-15.6056994 21.01867627 -15.6056994 21.01867627 -13.625 17.6875 C-9.63620266 15.12327314 -5.62364355 15.50863718 -1 16 C-0.34 16.33 0.32 16.66 1 17 C0.67 11.39 0.34 5.78 0 0 Z M30 2 C30 7.94 30 13.88 30 20 C32.31 20.33 34.62 20.66 37 21 C35.35 21.33 33.7 21.66 32 22 C32 27.28 32 32.56 32 38 C35.3 38 38.6 38 42 38 C42 37.03578125 42 36.0715625 42 35.078125 C42 20 42 20 43 18 C42.96279449 15.66463902 42.84746067 13.33017332 42.6875 11 C42.60886719 9.741875 42.53023437 8.48375 42.44921875 7.1875 C42.31357706 3.91257097 42.31357706 3.91257097 40 2 C37.55987051 1.75712511 37.55987051 1.75712511 34.875 1.875 C33.26625 1.91625 31.6575 1.9575 30 2 Z " fill="#191516" transform="translate(21,6)"/>
<path d="M0 0 C1.60875 -0.04125 3.2175 -0.0825 4.875 -0.125 C5.77992187 -0.14820313 6.68484375 -0.17140625 7.6171875 -0.1953125 C10 0 10 0 12 2 C12.36183818 4.49201458 12.60294538 6.87032776 12.75 9.375 C12.83314453 10.38433594 12.83314453 10.38433594 12.91796875 11.4140625 C13.16219183 15.17361781 13.12112074 17.8183189 11 21 C11.33 21.33 11.66 21.66 12 22 C12.07271741 24.35313555 12.08370868 26.70833668 12.0625 29.0625 C12.05347656 30.35285156 12.04445313 31.64320312 12.03515625 32.97265625 C12.02355469 33.97167969 12.01195312 34.97070312 12 36 C8.7 36 5.4 36 2 36 C2 30.72 2 25.44 2 20 C3.65 19.67 5.3 19.34 7 19 C4.69 18.67 2.38 18.34 0 18 C0 12.06 0 6.12 0 0 Z M27 13 C30.73656006 16.77441079 30.41690504 20.27603687 30.45898438 25.33203125 C30.45189453 26.37746094 30.44480469 27.42289063 30.4375 28.5 C30.4674707 30.06814453 30.4674707 30.06814453 30.49804688 31.66796875 C30.49740234 32.67472656 30.49675781 33.68148437 30.49609375 34.71875 C30.49887329 36.09450195 30.49887329 36.09450195 30.50170898 37.49804688 C29.85069833 40.7445467 28.54493939 41.95206114 26 44 C24 44.2421875 24 44.2421875 22 43.875 C21.34 43.76929687 20.68 43.66359375 20 43.5546875 C18 43 18 43 16.18481445 42.00219727 C13.70268261 40.8636174 11.76141885 40.6141355 9.04296875 40.41015625 C8.07407715 40.33684082 7.10518555 40.26352539 6.10693359 40.18798828 C0.84423629 39.86956325 -4.41896395 39.63430386 -9.6875 39.4375 C-10.78255859 39.39431641 -11.87761719 39.35113281 -13.00585938 39.30664062 C-15.67048597 39.20191731 -18.33518311 39.09974221 -21 39 C-21 38.67 -21 38.34 -21 38 C-16.14366965 37.92546364 -11.28767732 37.87121671 -6.4309082 37.83520508 C-4.78110956 37.82018194 -3.13135042 37.7997574 -1.48168945 37.77368164 C0.89902536 37.73701101 3.27920908 37.72020897 5.66015625 37.70703125 C6.38960953 37.69154739 7.11906281 37.67606354 7.87062073 37.66011047 C12.9905656 37.65845359 16.38283771 38.80272959 21 41 C23.71163778 41.41986946 23.71163778 41.41986946 26 41 C28.22229436 39.19925055 28.22229436 39.19925055 28.23046875 36.72265625 C28.21628906 35.84480469 28.20210937 34.96695313 28.1875 34.0625 C28.17783203 32.74958984 28.17783203 32.74958984 28.16796875 31.41015625 C28.09069243 28.8562325 28.09069243 28.8562325 27 26 C27.66 26 28.32 26 29 26 C28.71290562 20.73454721 28.71290562 20.73454721 26.75 16 C24.41516867 14.66581067 22.64213132 14.78577314 20 15 C20.78375 15.103125 21.5675 15.20625 22.375 15.3125 C25 16 25 16 27 19 C27 20.32 27 21.64 27 23 C25.35 23 23.7 23 22 23 C22 22.01 22 21.02 22 20 C21.01 20 20.02 20 19 20 C19 21.98 19 23.96 19 26 C19.763125 25.938125 20.52625 25.87625 21.3125 25.8125 C24 26 24 26 25.65625 27.21875 C27.39217091 29.51985446 27.31131194 30.83982544 27.1875 33.6875 C27.14689453 34.89986328 27.14689453 34.89986328 27.10546875 36.13671875 C27.07066406 36.75160156 27.03585938 37.36648437 27 38 C26.34 38 25.68 38 25 38 C25 38.66 25 39.32 25 40 C20.545 39.01 20.545 39.01 16 38 C16 37.34 16 36.68 16 36 C15.34 36 14.68 36 14 36 C14 34.68 14 33.36 14 32 C15.65 32 17.3 32 19 32 C19 32.99 19 33.98 19 35 C19.99 35 20.98 35 22 35 C22 33.35 22 31.7 22 30 C21.236875 29.896875 20.47375 29.79375 19.6875 29.6875 C16.71948473 28.92824028 15.83801444 28.38995463 14 26 C13.7421875 23.80859375 13.7421875 23.80859375 13.875 21.4375 C14.10485811 18.08842438 14.10485811 18.08842438 13 15 C18.21703063 11.73935586 21.18802321 11.57082538 27 13 Z " fill="#811B24" transform="translate(51,8)"/>
<path d="M0 0 C7.13491758 -0.14863618 14.26892842 -0.25735723 21.4050293 -0.32958984 C23.8309703 -0.35970966 26.25680288 -0.40061464 28.68237305 -0.45263672 C32.17523992 -0.52565833 35.66666372 -0.55950597 39.16015625 -0.5859375 C40.77930687 -0.63238907 40.77930687 -0.63238907 42.4311676 -0.67977905 C48.69964306 -0.68256269 52.26629451 0.01705458 56.8182373 4.45861816 C58.49724837 6.64856474 58.72627961 8.15222081 58.4375 10.875 C58.37433594 11.65617188 58.31117187 12.43734375 58.24609375 13.2421875 C58.12427734 14.11230469 58.12427734 14.11230469 58 15 C59.19625 15.020625 60.3925 15.04125 61.625 15.0625 C66.04728499 15.66749044 68.00226361 17.20268114 70.75634766 20.63500977 C73.35128725 25.56967404 72.93977725 30.98737758 72.875 36.4375 C72.93494141 38.22124023 72.93494141 38.22124023 72.99609375 40.04101562 C72.98918762 46.25998206 72.57638338 50.23116636 68.2265625 54.87890625 C64.83932603 57.98580591 64.83932603 57.98580591 61.70458984 58.03881836 C59.5 57.5 59.5 57.5 56 56 C55.814375 56.66 55.62875 57.32 55.4375 58 C51.76010298 65.6745677 46.06304886 70.41810896 38.375 73.92578125 C28.80040853 76.9732496 19.43059041 75.76479917 10.4609375 71.484375 C4.76597564 68.04931864 2.08844396 62.71934067 -1 57 C-1.56323975 57.21785156 -2.12647949 57.43570313 -2.70678711 57.66015625 C-5.87836928 58.13017034 -7.0721471 57.23288358 -9.69140625 55.4375 C-12.62268766 53.01210975 -13.83772142 51.60948257 -14.82373047 47.90625 C-15.10558157 44.23235966 -15.08041327 40.68144585 -14.9375 37 C-14.94716797 35.75476562 -14.95683594 34.50953125 -14.96679688 33.2265625 C-14.85041512 26.61043607 -14.45157365 22.01026132 -9.70678711 17.17944336 C-6.64493405 15.06360698 -3.65002559 14.56638328 0 14 C0 9.38 0 4.76 0 0 Z M3 2 C2.97284617 3.74991334 2.95353449 5.49994945 2.9375 7.25 C2.92589844 8.22453125 2.91429687 9.1990625 2.90234375 10.203125 C2.98804423 12.65758678 3.29293934 14.66168914 4 17 C2.89591797 17.00386719 2.89591797 17.00386719 1.76953125 17.0078125 C0.79371094 17.04648437 -0.18210937 17.08515625 -1.1875 17.125 C-2.15042969 17.14820313 -3.11335937 17.17140625 -4.10546875 17.1953125 C-7.28875146 18.08027369 -9.05117634 19.21145127 -11.03833008 21.87792969 C-13.19884519 26.64543345 -12.79537761 31.92632197 -12.75 37.0625 C-12.78609375 38.23361328 -12.8221875 39.40472656 -12.859375 40.61132812 C-13.01416097 46.65070573 -13.01416097 46.65070573 -10.50952148 51.91040039 C-6.74868491 54.72591731 -3.76827367 55.58149679 1 55 C1.30292969 55.59167969 1.60585937 56.18335938 1.91796875 56.79296875 C6.23339525 64.93252705 10.12542182 69.33683246 19.03125 72.26953125 C26.41280787 74.08578299 33.05429479 73.7996887 39.87109375 70.32421875 C46.66349415 66.09922107 51.2129394 61.00970352 55 54 C56.7634375 54.433125 56.7634375 54.433125 58.5625 54.875 C62.06927569 55.28053758 63.89876444 54.92219489 66.73046875 52.7890625 C69.97568387 49.80631196 70.55270693 47.50853806 70.859375 43.15625 C70.859375 40.93720048 70.8217929 38.71788786 70.75 36.5 C70.7603125 35.38496094 70.770625 34.26992188 70.78125 33.12109375 C70.72914493 26.2712023 70.72914493 26.2712023 67.78515625 20.2734375 C64.8061828 17.84179297 63.47260916 17.22593624 59.6875 17.125 C58.36298828 17.06699219 58.36298828 17.06699219 57.01171875 17.0078125 C56.01591797 17.00394531 56.01591797 17.00394531 55 17 C55.05800781 16.33613281 55.11601563 15.67226562 55.17578125 14.98828125 C55.22089844 14.10527344 55.26601562 13.22226563 55.3125 12.3125 C55.37050781 11.44238281 55.42851563 10.57226562 55.48828125 9.67578125 C54.75473606 5.65595361 53.257706 4.4498597 50 2 C46.40435326 1.30846903 42.88037323 1.41774026 39.23046875 1.51171875 C38.19432938 1.51879349 37.15819 1.52586823 36.09065247 1.53315735 C32.78886003 1.56109393 29.48877784 1.6238337 26.1875 1.6875 C23.94598807 1.7125837 21.7044495 1.73539674 19.46289062 1.75585938 C13.9746792 1.81091794 8.48746179 1.89453719 3 2 Z " fill="#F2F2F2" transform="translate(14,0)"/>
<path d="M0 0 C6.60176043 -0.12687837 13.203206 -0.21438377 19.8059082 -0.2746582 C22.05147044 -0.29978723 24.296951 -0.33389615 26.54223633 -0.37719727 C29.77185218 -0.43791776 33.00038584 -0.46622631 36.23046875 -0.48828125 C37.23272995 -0.51408768 38.23499115 -0.5398941 39.2676239 -0.56648254 C44.01786033 -0.56838979 46.25088598 -0.56334864 50.14257812 2.36328125 C52.24863393 5.35295038 52.55266015 6.71009781 52.3125 10.3125 C52.26738281 11.19550781 52.22226563 12.07851562 52.17578125 12.98828125 C52.11777344 13.65214844 52.05976562 14.31601562 52 15 C52.99580078 15.00386719 52.99580078 15.00386719 54.01171875 15.0078125 C55.33623047 15.06582031 55.33623047 15.06582031 56.6875 15.125 C57.99267578 15.15980469 57.99267578 15.15980469 59.32421875 15.1953125 C62.37330587 16.11226425 64.09863539 17.36214583 66.02075195 19.91357422 C68.17020074 24.49327738 67.79588043 29.53917896 67.75 34.5 C67.78609375 35.61503906 67.8221875 36.73007812 67.859375 37.87890625 C67.859375 45.74896929 67.859375 45.74896929 65.53808594 49.12817383 C61.34323973 52.98470783 61.34323973 52.98470783 57.87695312 53.02416992 C55.91289682 52.71328452 53.95591021 52.35858354 52 52 C49.97022023 53.27219734 49.97022023 53.27219734 49 55 C48.855625 54.195625 48.71125 53.39125 48.5625 52.5625 C48.25864751 50.07896294 48.25864751 50.07896294 47 49 C44.60053054 48.86474092 42.22572857 48.78950771 39.82421875 48.75390625 C38.3417912 48.72095744 36.85936947 48.68774597 35.37695312 48.65429688 C33.0333268 48.6069385 30.68972232 48.56253731 28.34594727 48.52319336 C26.08844669 48.48339577 23.83144375 48.43185813 21.57421875 48.37890625 C20.87616623 48.3704921 20.17811371 48.36207794 19.45890808 48.35340881 C15.82323794 48.26133797 13.09799682 47.98127128 10 46 C13.36149626 45.24626437 16.47132283 44.87189161 19.9140625 44.8671875 C20.83493652 44.86501221 21.75581055 44.86283691 22.70458984 44.8605957 C24.15019287 44.86772583 24.15019287 44.86772583 25.625 44.875 C27.10734131 44.88116333 27.10734131 44.88116333 28.61962891 44.88745117 C45.9043899 45.02010365 45.9043899 45.02010365 52.375 47.625 C56.00148218 49.0005622 57.43648504 49.36252042 61 48 C63.56382279 45.43617721 63.25703311 44.43625685 63.265625 40.87890625 C63.26820312 39.86119141 63.27078125 38.84347656 63.2734375 37.79492188 C63.26183594 36.19487305 63.26183594 36.19487305 63.25 34.5625 C63.25773437 33.49966797 63.26546875 32.43683594 63.2734375 31.34179688 C63.27085938 30.32279297 63.26828125 29.30378906 63.265625 28.25390625 C63.26224121 26.85120483 63.26224121 26.85120483 63.25878906 25.42016602 C63.16112708 22.74001104 63.16112708 22.74001104 61 20 C58.12240932 19.19663887 58.12240932 19.19663887 54.875 18.8125 C53.23144531 18.57466797 53.23144531 18.57466797 51.5546875 18.33203125 C50.29011719 18.16767578 50.29011719 18.16767578 49 18 C48.94392578 16.75283203 48.94392578 16.75283203 48.88671875 15.48046875 C48.82097656 14.39378906 48.75523438 13.30710937 48.6875 12.1875 C48.62949219 11.10855469 48.57148437 10.02960937 48.51171875 8.91796875 C47.94440197 5.68296393 47.53035838 4.95992627 45 3 C42.97048789 2.53121363 42.97048789 2.53121363 40.7121582 2.56762695 C39.85149246 2.54783279 38.99082672 2.52803864 38.1040802 2.50764465 C37.17899155 2.50125473 36.25390289 2.49486481 35.30078125 2.48828125 C34.35059616 2.47033005 33.40041107 2.45237885 32.4214325 2.43388367 C29.38516687 2.37968107 26.34905933 2.34585296 23.3125 2.3125 C21.25453525 2.27933572 19.19659138 2.2448469 17.13867188 2.20898438 C12.09256181 2.1239488 7.04649944 2.05718502 2 2 C2.495 9.92 2.495 9.92 3 18 C-0.02734375 18.390625 -3.0546875 18.78125 -6.08203125 19.171875 C-9.56319917 20.15983698 -10.19464106 20.93869623 -12 24 C-12.42555671 26.47442973 -12.42555671 26.47442973 -12.328125 29.1328125 C-12.32296875 30.10347656 -12.3178125 31.07414062 -12.3125 32.07421875 C-12.291875 33.08097656 -12.27125 34.08773437 -12.25 35.125 C-12.24484375 36.13949219 -12.2396875 37.15398438 -12.234375 38.19921875 C-12.38307363 43.26394121 -12.38307363 43.26394121 -11 48 C-12.32 48 -13.64 48 -15 48 C-15.14570522 43.79203314 -15.23421087 39.58471834 -15.3125 35.375 C-15.35439453 34.18519531 -15.39628906 32.99539062 -15.43945312 31.76953125 C-15.57769194 21.87163198 -15.57769194 21.87163198 -12.84375 18.21875 C-9.68878787 15.75718614 -8.14180335 15.22028442 -4.1875 15.125 C-3.21167969 15.08632813 -2.23585938 15.04765625 -1.23046875 15.0078125 C-0.12638672 15.00394531 -0.12638672 15.00394531 1 15 C0.83628906 14.45859375 0.67257813 13.9171875 0.50390625 13.359375 C-0.08590587 10.59777407 -0.09609308 8.07181861 -0.0625 5.25 C-0.05347656 4.26515625 -0.04445313 3.2803125 -0.03515625 2.265625 C-0.02355469 1.51796875 -0.01195312 0.7703125 0 0 Z " fill="#0D0B0B" transform="translate(17,2)"/>
<path d="M0 0 C0.93231445 -0.00990967 1.86462891 -0.01981934 2.82519531 -0.0300293 C3.70788086 -0.01883057 4.59056641 -0.00763184 5.5 0.00390625 C6.2940625 0.01365479 7.088125 0.02340332 7.90625 0.03344727 C10.46249042 0.52675159 11.3660798 1.46285245 13 3.4375 C8.55578574 11.5537069 5.13759247 17.22339893 -3.9375 20.3125 C-8.25822067 21.46425837 -11.61388761 21.60116247 -16 20.4375 C-16.99 19.7775 -17.98 19.1175 -19 18.4375 C-19 17.7775 -19 17.1175 -19 16.4375 C-16.36 15.4475 -13.72 14.4575 -11 13.4375 C-14.96 11.4575 -18.92 9.4775 -23 7.4375 C-22 4.4375 -22 4.4375 -20.234375 3.26953125 C-13.49510323 0.5038867 -7.19793973 0.04110654 0 0 Z " fill="#9A212D" transform="translate(54,49.5625)"/>
<path d="M0 0 C7.2 -0.48 7.2 -0.48 10.5 1.5 C12.68405234 5.14008723 12.28023018 7.79654733 12 12 C11.34 12 10.68 12 10 12 C10.66 12.99 11.32 13.98 12 15 C12.30078125 17.375 12.30078125 17.375 12.3125 20 C12.32925781 20.86625 12.34601563 21.7325 12.36328125 22.625 C12 25 12 25 10.7265625 26.82421875 C8.18630329 28.55412378 5.96040192 27.94225461 3.03515625 27.51953125 C1 27 1 27 -0.67895508 25.9934082 C-3.88301565 24.62206893 -6.69357219 24.67146954 -10.171875 24.5859375 C-10.8542926 24.56657135 -11.53671021 24.5472052 -12.23980713 24.5272522 C-14.40974608 24.46768902 -16.57973877 24.42116554 -18.75 24.375 C-20.22528297 24.33679869 -21.70054415 24.2977457 -23.17578125 24.2578125 C-26.78365418 24.16200765 -30.39169083 24.07789084 -34 24 C-34 23.67 -34 23.34 -34 23 C-33.05125 22.87625 -32.1025 22.7525 -31.125 22.625 C-27.91332809 22.28312823 -27.91332809 22.28312823 -26 20 C-25.01 20.33 -24.02 20.66 -23 21 C-23 20.34 -23 19.68 -23 19 C-22.34 19 -21.68 19 -21 19 C-21 19.66 -21 20.32 -21 21 C-19.68 20.67 -18.36 20.34 -17 20 C-17 15.38 -17 10.76 -17 6 C-20.63 5.67 -24.26 5.34 -28 5 C-28 4.67 -28 4.34 -28 4 C-25.04142591 3.94620774 -22.08382279 3.90642907 -19.125 3.875 C-18.28324219 3.85824219 -17.44148438 3.84148438 -16.57421875 3.82421875 C-15.76855469 3.81777344 -14.96289062 3.81132812 -14.1328125 3.8046875 C-13.38918457 3.79421387 -12.64555664 3.78374023 -11.87939453 3.77294922 C-10 4 -10 4 -8 6 C-10.31 6 -12.62 6 -15 6 C-14.67 6.66 -14.34 7.32 -14 8 C-13.90350061 9.9981051 -13.87019128 11.9995718 -13.875 14 C-13.87113281 15.60875 -13.87113281 15.60875 -13.8671875 17.25 C-14 20 -14 20 -15 22 C-11.7 22 -8.4 22 -5 22 C-5.0721875 21.03578125 -5.144375 20.0715625 -5.21875 19.078125 C-5.3115625 17.81484375 -5.404375 16.5515625 -5.5 15.25 C-5.5928125 13.99703125 -5.685625 12.7440625 -5.78125 11.453125 C-5.93838402 8.97265229 -6 6.48544483 -6 4 C-4.68 3.34 -3.36 2.68 -2 2 C-2.03480469 2.68707031 -2.06960937 3.37414062 -2.10546875 4.08203125 C-2.13253906 4.98308594 -2.15960938 5.88414063 -2.1875 6.8125 C-2.22230469 7.70582031 -2.25710937 8.59914063 -2.29296875 9.51953125 C-2.21038203 12.04292014 -2.21038203 12.04292014 -0.625 13.78125 C1.22787527 15.17090645 2.73315344 15.60916439 5 16 C5 17.65 5 19.3 5 21 C4.01 21 3.02 21 2 21 C2 20.01 2 19.02 2 18 C0.35 18 -1.3 18 -3 18 C-3 19.32 -3 20.64 -3 22 C-2.34 22 -1.68 22 -1 22 C-1 22.66 -1 23.32 -1 24 C3.455 24.99 3.455 24.99 8 26 C8 25.34 8 24.68 8 24 C8.66 24 9.32 24 10 24 C9.88590407 22.54077307 9.75834456 21.08259402 9.625 19.625 C9.52058594 18.40683594 9.52058594 18.40683594 9.4140625 17.1640625 C9.17107412 14.79665809 9.17107412 14.79665809 7 13 C4.42938689 12.35232207 4.42938689 12.35232207 2 12 C2 10.02 2 8.04 2 6 C2.99 6 3.98 6 5 6 C5 6.99 5 7.98 5 9 C6.65 9 8.3 9 10 9 C9.34 6.69 8.68 4.38 8 2 C5.36 1.67 2.72 1.34 0 1 C0 0.67 0 0.34 0 0 Z " fill="#1D1B1B" transform="translate(68,22)"/>
<path d="M0 0 C0.71671875 0.28746094 1.4334375 0.57492188 2.171875 0.87109375 C3.99263001 1.59788684 5.8154056 2.31964864 7.640625 3.03515625 C8.50171875 3.37417969 9.3628125 3.71320312 10.25 4.0625 C11.55710937 4.57490234 11.55710937 4.57490234 12.890625 5.09765625 C15 6 15 6 16 7 C16.680625 6.855625 17.36125 6.71125 18.0625 6.5625 C21.78112656 5.85042257 25.21550582 5.93585603 29 6 C26.77174356 8.22825644 25.34238372 8.69239369 22.375 9.625 C21.55773437 9.88539062 20.74046875 10.14578125 19.8984375 10.4140625 C19.27195312 10.60742188 18.64546875 10.80078125 18 11 C18 11.66 18 12.32 18 13 C18.53109375 13.26554687 19.0621875 13.53109375 19.609375 13.8046875 C23.07291667 15.53645833 26.53645833 17.26822917 30 19 C26.55930376 21.29379749 25.27709699 22 21 22 C21.45375 22.45375 21.9075 22.9075 22.375 23.375 C23.58333333 24.58333333 24.79166667 25.79166667 26 27 C19.30969786 25.92091901 12.3713263 24.51167229 8 19 C8.99 18.67 9.98 18.34 11 18 C10.54109375 17.68289062 10.0821875 17.36578125 9.609375 17.0390625 C4.17945307 12.90958406 1.88555508 8.51160636 0 2 C0 1.34 0 0.68 0 0 Z " fill="#D0CDCD" transform="translate(14,44)"/>
<path d="M0 0 C6.60176043 -0.12687837 13.203206 -0.21438377 19.8059082 -0.2746582 C22.05147044 -0.29978723 24.296951 -0.33389615 26.54223633 -0.37719727 C29.77185218 -0.43791776 33.00038584 -0.46622631 36.23046875 -0.48828125 C37.23272995 -0.51408768 38.23499115 -0.5398941 39.2676239 -0.56648254 C43.99457455 -0.56838044 46.24870876 -0.56088909 50.12890625 2.3359375 C52.3578217 5.50946639 52.68559725 7.46311662 52.8125 11.3125 C52.88404297 12.91544922 52.88404297 12.91544922 52.95703125 14.55078125 C52.97121094 15.35902344 52.98539062 16.16726562 53 17 C52.01 17 51.02 17 50 17 C50 13.37 50 9.74 50 6 C48.68 5.34 47.36 4.68 46 4 C45.505 3.505 45.505 3.505 45 3 C43.65016252 2.87814857 42.29425299 2.82233169 40.93920898 2.79467773 C39.64798378 2.7647599 39.64798378 2.7647599 38.33067322 2.73423767 C37.39526199 2.71752518 36.45985077 2.70081268 35.49609375 2.68359375 C34.06657127 2.6524221 34.06657127 2.6524221 32.60816956 2.62062073 C29.5513559 2.55501823 26.49445344 2.49619082 23.4375 2.4375 C21.37043337 2.39432494 19.30337586 2.35071099 17.23632812 2.30664062 C12.15764405 2.19932599 7.0788703 2.09808909 2 2 C2.495 9.92 2.495 9.92 3 18 C-0.02734375 18.390625 -3.0546875 18.78125 -6.08203125 19.171875 C-9.56319917 20.15983698 -10.19464106 20.93869623 -12 24 C-12.42555671 26.47442973 -12.42555671 26.47442973 -12.328125 29.1328125 C-12.32296875 30.10347656 -12.3178125 31.07414062 -12.3125 32.07421875 C-12.291875 33.08097656 -12.27125 34.08773437 -12.25 35.125 C-12.24484375 36.13949219 -12.2396875 37.15398438 -12.234375 38.19921875 C-12.38307363 43.26394121 -12.38307363 43.26394121 -11 48 C-12.32 48 -13.64 48 -15 48 C-15.14570522 43.79203314 -15.23421087 39.58471834 -15.3125 35.375 C-15.35439453 34.18519531 -15.39628906 32.99539062 -15.43945312 31.76953125 C-15.57769194 21.87163198 -15.57769194 21.87163198 -12.84375 18.21875 C-9.68878787 15.75718614 -8.14180335 15.22028442 -4.1875 15.125 C-3.21167969 15.08632813 -2.23585938 15.04765625 -1.23046875 15.0078125 C-0.12638672 15.00394531 -0.12638672 15.00394531 1 15 C0.83628906 14.45859375 0.67257813 13.9171875 0.50390625 13.359375 C-0.08590587 10.59777407 -0.09609308 8.07181861 -0.0625 5.25 C-0.05347656 4.26515625 -0.04445313 3.2803125 -0.03515625 2.265625 C-0.02355469 1.51796875 -0.01195312 0.7703125 0 0 Z " fill="#050404" transform="translate(17,2)"/>
<path d="M0 0 C3.63 0 7.26 0 11 0 C11 1.65 11 3.3 11 5 C9.68 5 8.36 5 7 5 C7 4.34 7 3.68 7 3 C6.34 3 5.68 3 5 3 C5 4.32 5 5.64 5 7 C6.65 7 8.3 7 10 7 C10 7.99 10 8.98 10 10 C8.35 10 6.7 10 5 10 C5 11.65 5 13.3 5 15 C5.66 15 6.32 15 7 15 C7 14.34 7 13.68 7 13 C8.32 13 9.64 13 11 13 C10.938125 13.78375 10.87625 14.5675 10.8125 15.375 C10.874375 16.24125 10.93625 17.1075 11 18 C11.99 18.66 12.98 19.32 14 20 C14.22137393 22.62697064 14.28162025 25.00893964 14.1875 27.625 C14.16719727 28.68460938 14.16719727 28.68460938 14.14648438 29.765625 C14.1111104 31.51074128 14.05730221 33.25546608 14 35 C12.35 35 10.7 35 9 35 C9 34.34 9 33.68 9 33 C8.34 33 7.68 33 7 33 C7 28.71 7 24.42 7 20 C5.68 20 4.36 20 3 20 C3.33 20.66 3.66 21.32 4 22 C4.039992 23.99960012 4.04346799 26.00047242 4 28 C3.34 27.67 2.68 27.34 2 27 C1.690625 26.030625 1.38125 25.06125 1.0625 24.0625 C0.25255878 20.7319557 0.25255878 20.7319557 -3 19 C-2.01 19 -1.02 19 0 19 C0 12.73 0 6.46 0 0 Z " fill="#212121" transform="translate(38,8)"/>
<path d="M0 0 C6.05056995 -0.09889038 12.10066935 -0.17147918 18.15185547 -0.21972656 C20.21020705 -0.23983969 22.26850152 -0.26713397 24.32666016 -0.30175781 C27.28562513 -0.35028883 30.24383461 -0.37297166 33.203125 -0.390625 C34.12305237 -0.41127014 35.04297974 -0.43191528 35.99078369 -0.45318604 C42.35804967 -0.45542137 42.35804967 -0.45542137 45.58789062 1.8359375 C47.50068355 4.76729927 47.40075992 6.78252185 47.25 10.25 C47.21390625 11.32765625 47.1778125 12.4053125 47.140625 13.515625 C47.09421875 14.33546875 47.0478125 15.1553125 47 16 C48.32 16.33 49.64 16.66 51 17 C49.35 17.66 47.7 18.32 46 19 C45.95101562 18.01257813 45.90203125 17.02515625 45.8515625 16.0078125 C45.77679688 14.72648437 45.70203125 13.44515625 45.625 12.125 C45.52058594 10.21074219 45.52058594 10.21074219 45.4140625 8.2578125 C45.32758894 4.91938301 45.32758894 4.91938301 43 3 C40.29852581 2.73775471 40.29852581 2.73775471 37.13671875 2.83984375 C35.93853516 2.85080078 34.74035156 2.86175781 33.50585938 2.87304688 C32.24580078 2.89431641 30.98574219 2.91558594 29.6875 2.9375 C20.39018535 3.07038909 11.26121324 2.87919836 2 2 C2.24447876 3.14118286 2.24447876 3.14118286 2.49389648 4.30541992 C3.06829991 7.36364021 3.09666866 10.20315199 3.0625 13.3125 C3.05347656 14.38113281 3.04445313 15.44976562 3.03515625 16.55078125 C3.02355469 17.35902344 3.01195313 18.16726562 3 19 C1.75283203 18.94779297 1.75283203 18.94779297 0.48046875 18.89453125 C-0.60621094 18.86746094 -1.69289063 18.84039063 -2.8125 18.8125 C-3.89144531 18.77769531 -4.97039063 18.74289063 -6.08203125 18.70703125 C-8.94290207 18.74665147 -8.94290207 18.74665147 -10.65039062 20.19921875 C-12.43387045 22.57891253 -12.42626635 24.14881582 -12.51171875 27.10546875 C-12.56489258 28.57983398 -12.56489258 28.57983398 -12.61914062 30.08398438 C-12.64169922 31.10814453 -12.66425781 32.13230469 -12.6875 33.1875 C-12.72166016 34.22326172 -12.75582031 35.25902344 -12.79101562 36.32617188 C-12.87352642 38.8840066 -12.94266572 41.44149723 -13 44 C-10.36 44.66 -7.72 45.32 -5 46 C-5.33 46.66 -5.66 47.32 -6 48 C-9.82222512 47.4691354 -12.18128726 46.67304474 -15 44 C-15.51757812 41.71923828 -15.51757812 41.71923828 -15.53125 39.0703125 C-15.53640625 38.10996094 -15.5415625 37.14960937 -15.546875 36.16015625 C-15.53140625 35.15855469 -15.5159375 34.15695313 -15.5 33.125 C-15.51546875 32.13113281 -15.5309375 31.13726562 -15.546875 30.11328125 C-15.52285506 25.62755806 -15.46354508 22.78763381 -13.15625 18.8671875 C-9.95121728 16.09181496 -7.39652107 15.87831129 -3.3125 15.9375 C-1.1778125 15.9684375 -1.1778125 15.9684375 1 16 C0.67 10.72 0.34 5.44 0 0 Z " fill="#741820" transform="translate(19,4)"/>
<path d="M0 0 C1.1127832 -0.00229614 1.1127832 -0.00229614 2.24804688 -0.00463867 C6.00472909 0.07254752 7.80662402 0.24608268 11 2.375 C7.04174791 7.19985166 3.40839975 11.20910746 -2 14.375 C-2.66 14.045 -3.32 13.715 -4 13.375 C-3.01 12.385 -2.02 11.395 -1 10.375 C-2.02480469 10.24222656 -3.04960938 10.10945313 -4.10546875 9.97265625 C-5.4661574 9.79435912 -6.82683385 9.61596877 -8.1875 9.4375 C-9.19780273 9.30698242 -9.19780273 9.30698242 -10.22851562 9.17382812 C-13.85081166 8.69674523 -17.42803585 8.14487965 -21 7.375 C-20 4.375 -20 4.375 -18.09375 3.20703125 C-11.98328601 0.80517718 -6.50485302 0.00761206 0 0 Z " fill="#DF2442" transform="translate(52,49.625)"/>
<path d="M0 0 C1.19109375 -0.03867187 1.19109375 -0.03867187 2.40625 -0.078125 C3.0971875 0.03015625 3.788125 0.1384375 4.5 0.25 C6.5 3.25 6.5 3.25 6.5 7.25 C4.85 7.25 3.2 7.25 1.5 7.25 C1.5 6.26 1.5 5.27 1.5 4.25 C0.51 4.25 -0.48 4.25 -1.5 4.25 C-1.5 6.23 -1.5 8.21 -1.5 10.25 C-0.736875 10.188125 0.02625 10.12625 0.8125 10.0625 C3.5 10.25 3.5 10.25 5.15625 11.46875 C6.89217091 13.76985446 6.81131194 15.08982544 6.6875 17.9375 C6.66042969 18.74574219 6.63335937 19.55398437 6.60546875 20.38671875 C6.57066406 21.00160156 6.53585938 21.61648437 6.5 22.25 C5.84 22.25 5.18 22.25 4.5 22.25 C4.5 22.91 4.5 23.57 4.5 24.25 C0.045 23.26 0.045 23.26 -4.5 22.25 C-4.5 21.59 -4.5 20.93 -4.5 20.25 C-5.16 20.25 -5.82 20.25 -6.5 20.25 C-6.5 18.93 -6.5 17.61 -6.5 16.25 C-4.85 16.25 -3.2 16.25 -1.5 16.25 C-1.5 17.24 -1.5 18.23 -1.5 19.25 C-0.51 19.25 0.48 19.25 1.5 19.25 C1.5 17.6 1.5 15.95 1.5 14.25 C0.736875 14.146875 -0.02625 14.04375 -0.8125 13.9375 C-3.78435553 13.17725789 -4.66118676 12.64473352 -6.5 10.25 C-6.79296875 7.98828125 -6.79296875 7.98828125 -6.6875 5.5625 C-6.66042969 4.75425781 -6.63335937 3.94601563 -6.60546875 3.11328125 C-6.57066406 2.49839844 -6.53585938 1.88351563 -6.5 1.25 C-4.15897141 0.07948571 -2.60647047 0.0507754 0 0 Z " fill="#E0E0DF" transform="translate(71.5,23.75)"/>
<path d="M0 0 C1.60875 -0.04125 3.2175 -0.0825 4.875 -0.125 C5.77992187 -0.14820313 6.68484375 -0.17140625 7.6171875 -0.1953125 C10 0 10 0 12 2 C12.14497985 4.58064129 12.18677545 7.04943884 12.125 9.625 C12.11597656 10.33140625 12.10695313 11.0378125 12.09765625 11.765625 C12.07407603 13.51056098 12.03820461 15.25532295 12 17 C9.47524538 18.26237731 7.68799534 18.09856404 4.875 18.0625 C3.26625 18.041875 1.6575 18.02125 0 18 C0 12.06 0 6.12 0 0 Z " fill="#E4E4E4" transform="translate(51,8)"/>
<path d="M0 0 C8.49609375 -0.09765625 8.49609375 -0.09765625 11 0 C12 1 12 1 12.0625 2.8203125 C12.041875 3.58085937 12.02125 4.34140625 12 5.125 C11.9477409 9.20774203 12.31559333 12.97911083 13 17 C11.68 17 10.36 17 9 17 C9 14.69 9 12.38 9 10 C7.68 10 6.36 10 5 10 C5.33 12.64 5.66 15.28 6 18 C4.02 18 2.04 18 0 18 C0 12.06 0 6.12 0 0 Z " fill="#B0B0B0" transform="translate(23,8)"/>
<path d="M0 0 C24.255 0.495 24.255 0.495 49 1 C49 1.33 49 1.66 49 2 C33.82 2 18.64 2 3 2 C3.33 6.95 3.66 11.9 4 17 C1.265625 17.35807292 -1.46875 17.71614583 -4.203125 18.07421875 C-8.06572479 19.35276086 -9.06784226 20.3861494 -11 24 C-11.61603021 27.93487425 -11.69654427 31.83490744 -11.75 35.8125 C-11.77964844 36.88693359 -11.80929687 37.96136719 -11.83984375 39.06835938 C-11.91034921 41.71231427 -11.96314143 44.3553973 -12 47 C-12.33 47 -12.66 47 -13 47 C-13.34427875 43.14866235 -13.61586878 39.29542777 -13.875 35.4375 C-13.97296875 34.35146484 -14.0709375 33.26542969 -14.171875 32.14648438 C-14.72462594 23.05373135 -14.72462594 23.05373135 -11.28125 18.8125 C-7.96080955 15.40345821 -4.61911653 14.71675946 0 14 C0 9.38 0 4.76 0 0 Z " fill="#C5C5C5" transform="translate(14,0)"/>
<path d="M0 0 C2.09375 -0.328125 2.09375 -0.328125 4.5 -0.25 C5.69109375 -0.22679688 5.69109375 -0.22679688 6.90625 -0.203125 C9 0 9 0 11 1 C11 2.98 11 4.96 11 7 C9.35 7.33 7.7 7.66 6 8 C6 6.68 6 5.36 6 4 C5.01 4 4.02 4 3 4 C3 10.6 3 17.2 3 24 C-1 23 -1 23 -2 22 C-2.25017242 18.88272557 -2.18522148 15.7511343 -2.1875 12.625 C-2.19974609 11.7484375 -2.21199219 10.871875 -2.22460938 9.96875 C-2.22654297 9.12570313 -2.22847656 8.28265625 -2.23046875 7.4140625 C-2.23457764 6.6401416 -2.23868652 5.8662207 -2.24291992 5.06884766 C-2 3 -2 3 0 0 Z " fill="#D9D9D9" transform="translate(10,24)"/>
<path d="M0 0 C0.33 0 0.66 0 1 0 C1.02505615 0.68102783 1.0501123 1.36205566 1.07592773 2.0637207 C1.19190952 5.14683755 1.31462616 8.22965046 1.4375 11.3125 C1.47681641 12.38435547 1.51613281 13.45621094 1.55664062 14.56054688 C1.59853516 15.58857422 1.64042969 16.61660156 1.68359375 17.67578125 C1.72025146 18.62364502 1.75690918 19.57150879 1.79467773 20.5480957 C1.91430187 23.136171 1.91430187 23.136171 3 26 C7.06558713 29.31991828 7.06558713 29.31991828 12.125 29.875 C13.548125 29.936875 13.548125 29.936875 15 30 C17.1875 32.6875 17.1875 32.6875 19 36 C19.5775 36.9075 20.155 37.815 20.75 38.75 C22 41 22 41 22 43 C33.66854889 47.7727369 33.66854889 47.7727369 46 50 C46 50.33 46 50.66 46 51 C36.65943171 51.74525811 27.76810215 50.7609732 20.27734375 44.578125 C17.28485628 41.17382733 15.14591425 36.97391528 13 33 C12.15586548 33.32689819 12.15586548 33.32689819 11.29467773 33.66040039 C8.11776904 34.1305653 6.9112944 33.22781106 4.28515625 31.43359375 C1.32505748 28.99161844 0.15284593 27.65439411 -0.72705078 23.88720703 C-0.88628694 20.24115976 -0.78597065 16.70488063 -0.5625 13.0625 C-0.52189453 11.80630859 -0.48128906 10.55011719 -0.43945312 9.25585938 C-0.33373621 6.16657606 -0.18613033 3.08530902 0 0 Z " fill="#EDEDED" transform="translate(0,24)"/>
<path d="M0 0 C0.99 0 1.98 0 3 0 C3 1.32 3 2.64 3 4 C5.31 3.01 7.62 2.02 10 1 C10 5.62 10 10.24 10 15 C9.67 15 9.34 15 9 15 C9 13.02 9 11.04 9 9 C7.02 9.66 5.04 10.32 3 11 C3 12.32 3 13.64 3 15 C2.34 15 1.68 15 1 15 C1.33 17.64 1.66 20.28 2 23 C-4.75 21.125 -4.75 21.125 -7 20 C-7 14.39 -7 8.78 -7 3 C-6.67 3 -6.34 3 -6 3 C-5.90203125 4.05960938 -5.8040625 5.11921875 -5.703125 6.2109375 C-5.55305727 7.59906397 -5.40196208 8.98707963 -5.25 10.375 C-5.188125 11.07367188 -5.12625 11.77234375 -5.0625 12.4921875 C-4.83881747 14.78363782 -4.83881747 14.78363782 -4 18 C-2.68 18.66 -1.36 19.32 0 20 C0 13.4 0 6.8 0 0 Z " fill="#020202" transform="translate(13,28)"/>
<path d="M0 0 C6.15234375 -0.09765625 6.15234375 -0.09765625 8 0 C9 1 9 1 9.09765625 4.16015625 C9.08605469 5.44792969 9.07445312 6.73570313 9.0625 8.0625 C9.05347656 9.35285156 9.04445313 10.64320312 9.03515625 11.97265625 C9.02355469 12.97167969 9.01195312 13.97070312 9 15 C5.7 15 2.4 15 -1 15 C-0.67 10.05 -0.34 5.1 0 0 Z " fill="#D8D8D8" transform="translate(54,29)"/>
<path d="M0 0 C0.92087402 -0.00217529 1.84174805 -0.00435059 2.79052734 -0.0065918 C4.23613037 0.00053833 4.23613037 0.00053833 5.7109375 0.0078125 C7.19327881 0.01397583 7.19327881 0.01397583 8.70556641 0.02026367 C18.46958917 0.09519799 27.03031164 0.22952549 36.0859375 4.1328125 C37.0759375 4.5246875 38.0659375 4.9165625 39.0859375 5.3203125 C39.7459375 5.5884375 40.4059375 5.8565625 41.0859375 6.1328125 C40.7559375 6.7928125 40.4259375 7.4528125 40.0859375 8.1328125 C38.8278125 7.9059375 37.5696875 7.6790625 36.2734375 7.4453125 C32.94455041 6.93088053 32.94455041 6.93088053 30.0859375 8.5703125 C29.7559375 9.0859375 29.4259375 9.6015625 29.0859375 10.1328125 C28.9415625 9.3284375 28.7971875 8.5240625 28.6484375 7.6953125 C28.34458501 5.21177544 28.34458501 5.21177544 27.0859375 4.1328125 C24.68646804 3.99755342 22.31166607 3.92232021 19.91015625 3.88671875 C18.4277287 3.85376994 16.94530697 3.82055847 15.46289062 3.78710938 C13.1192643 3.739751 10.77565982 3.69534981 8.43188477 3.65600586 C6.17438419 3.61620827 3.91738125 3.56467063 1.66015625 3.51171875 C0.61307747 3.49909752 0.61307747 3.49909752 -0.45515442 3.48622131 C-4.09082456 3.39415047 -6.81606568 3.11408378 -9.9140625 1.1328125 C-6.55256624 0.37907687 -3.44273967 0.00470411 0 0 Z " fill="#100506" transform="translate(36.9140625,46.8671875)"/>
<path d="M0 0 C3.63 0 7.26 0 11 0 C11 1.65 11 3.3 11 5 C9.68 5 8.36 5 7 5 C7 4.34 7 3.68 7 3 C6.34 3 5.68 3 5 3 C5 4.32 5 5.64 5 7 C6.65 7 8.3 7 10 7 C10 7.99 10 8.98 10 10 C8.35 10 6.7 10 5 10 C5 11.65 5 13.3 5 15 C5.66 15 6.32 15 7 15 C7 14.34 7 13.68 7 13 C8.32 13 9.64 13 11 13 C11 14.32 11 15.64 11 17 C7.37 17 3.74 17 0 17 C0 11.39 0 5.78 0 0 Z " fill="#DFDFDF" transform="translate(38,8)"/>
<path d="M0 0 C2.95857409 -0.05379226 5.91617721 -0.09357093 8.875 -0.125 C9.71675781 -0.14175781 10.55851562 -0.15851562 11.42578125 -0.17578125 C12.23144531 -0.18222656 13.03710938 -0.18867188 13.8671875 -0.1953125 C14.61081543 -0.20578613 15.35444336 -0.21625977 16.12060547 -0.22705078 C18 0 18 0 20 2 C17.69 2 15.38 2 13 2 C13.33 2.66 13.66 3.32 14 4 C14.09649939 5.9981051 14.12980872 7.9995718 14.125 10 C14.12886719 11.60875 14.12886719 11.60875 14.1328125 13.25 C14 16 14 16 13 18 C15.97 18 18.94 18 22 18 C22 18.33 22 18.66 22 19 C16.21354356 20.25406138 10.51131884 20.11186913 4.625 20.0625 C3.60277344 20.05798828 2.58054687 20.05347656 1.52734375 20.04882812 C-0.98183194 20.037103 -3.4908849 20.02069176 -6 20 C-6 19.67 -6 19.34 -6 19 C-5.05125 18.87625 -4.1025 18.7525 -3.125 18.625 C0.08667191 18.28312823 0.08667191 18.28312823 2 16 C2.99 16.33 3.98 16.66 5 17 C5 16.34 5 15.68 5 15 C5.66 15 6.32 15 7 15 C7 15.66 7 16.32 7 17 C8.32 16.67 9.64 16.34 11 16 C11 11.38 11 6.76 11 2 C7.37 1.67 3.74 1.34 0 1 C0 0.67 0 0.34 0 0 Z " fill="#0E0E0E" transform="translate(40,26)"/>
<path d="M0 0 C2.475 0.495 2.475 0.495 5 1 C5.66 2.98 6.32 4.96 7 7 C7 4.69 7 2.38 7 0 C8.32 0 9.64 0 11 0 C11 4.95 11 9.9 11 15 C7 14 7 14 5.75 11.9375 C5.37875 10.9784375 5.37875 10.9784375 5 10 C5 11.65 5 13.3 5 15 C3.68 15 2.36 15 1 15 C0.67 10.05 0.34 5.1 0 0 Z " fill="#DDDDDD" transform="translate(34,28)"/>
<path d="M0 0 C3.96 0.33 7.92 0.66 12 1 C12 1.33 12 1.66 12 2 C8.7 2 5.4 2 2 2 C2.33 2.66 2.66 3.32 3 4 C3.12389818 6.24745534 3.1756285 8.49916342 3.1875 10.75 C3.20167969 11.96171875 3.21585938 13.1734375 3.23046875 14.421875 C3.00241822 17.96245618 2.27784652 20.70689355 1 24 C0.67 24 0.34 24 0 24 C0 22.35 0 20.7 0 19 C-3.63 18.67 -7.26 18.34 -11 18 C-11.66 22.29 -12.32 26.58 -13 31 C-13.33 31 -13.66 31 -14 31 C-15.56222112 21.15121468 -15.56222112 21.15121468 -13.6875 17.3125 C-9.57099087 15.30211182 -5.50219487 15.52154375 -1 16 C-0.34 16.33 0.32 16.66 1 17 C0.67 11.39 0.34 5.78 0 0 Z " fill="#1A1616" transform="translate(21,6)"/>
<path d="M0 0 C1.32 0 2.64 0 4 0 C4.33 4.95 4.66 9.9 5 15 C3.68 15 2.36 15 1 15 C1 13.35 1 11.7 1 10 C0.01 10 -0.98 10 -2 10 C-1.67 11.65 -1.34 13.3 -1 15 C-2.32 15.33 -3.64 15.66 -5 16 C-5 11.05 -5 6.1 -5 1 C-4.01 1 -3.02 1 -2 1 C-2 3.31 -2 5.62 -2 8 C-1.01 8 -0.02 8 1 8 C0.67 5.36 0.34 2.72 0 0 Z " fill="#DCDCDC" transform="translate(28,29)"/>
<path d="M0 0 C2.475 0.495 2.475 0.495 5 1 C4.67 1.66 4.34 2.32 4 3 C3.01 3 2.02 3 1 3 C0.814375 3.66 0.62875 4.32 0.4375 5 C-3.3067845 12.81415896 -9.07451913 17.37234419 -16.84375 21.01171875 C-21.74286933 22.54572517 -26.04354831 22.07324741 -31 21 C-31 20.67 -31 20.34 -31 20 C-29.83984375 19.85304688 -29.83984375 19.85304688 -28.65625 19.703125 C-18.05222845 18.18076547 -10.89702137 15.41611216 -4 7 C-2.49204429 4.71360108 -1.24785897 2.44580358 0 0 Z " fill="#EAEAEA" transform="translate(69,53)"/>
<path d="M0 0 C0.66 0.33 1.32 0.66 2 1 C1.96519531 1.61488281 1.93039063 2.22976562 1.89453125 2.86328125 C1.86746094 3.67152344 1.84039062 4.47976562 1.8125 5.3125 C1.77769531 6.11300781 1.74289063 6.91351563 1.70703125 7.73828125 C1.81281398 10.06897219 1.81281398 10.06897219 3.375 11.75 C5.2280301 13.17540777 6.71327513 13.60573709 9 14 C9 15.65 9 17.3 9 19 C8.01 19 7.02 19 6 19 C6 18.01 6 17.02 6 16 C4.35 16 2.7 16 1 16 C0.87625 16.78375 0.7525 17.5675 0.625 18.375 C0 21 0 21 -2 23 C-5.125 22.625 -5.125 22.625 -8 22 C-8 21.67 -8 21.34 -8 21 C-6.02 20.67 -4.04 20.34 -2 20 C-2 19.03578125 -2 18.0715625 -2 17.078125 C-2 2 -2 2 0 0 Z " fill="#0F0E0E" transform="translate(64,24)"/>
<path d="M0 0 C1.32 0 2.64 0 4 0 C4 2.31 4 4.62 4 7 C5.32 7.33 6.64 7.66 8 8 C6.02 8.33 4.04 8.66 2 9 C2.33 9.66 2.66 10.32 3 11 C2.01 11.495 2.01 11.495 1 12 C1 14.31 1 16.62 1 19 C0.01 19 -0.98 19 -2 19 C-2 16.69 -2 14.38 -2 12 C-3.32 11.67 -4.64 11.34 -6 11 C-6 10.01 -6 9.02 -6 8 C-3.69 8 -1.38 8 1 8 C0.67 7.34 0.34 6.68 0 6 C-0.039992 4.00039988 -0.04346799 1.99952758 0 0 Z " fill="#4B4B4B" transform="translate(28,18)"/>
<path d="M0 0 C2.64 0 5.28 0 8 0 C6.68 0.33 5.36 0.66 4 1 C4 2.98 4 4.96 4 7 C5.32 7.33 6.64 7.66 8 8 C6.68 8.33 5.36 8.66 4 9 C4.33 11.64 4.66 14.28 5 17 C3.02 17 1.04 17 -1 17 C-0.67 11.39 -0.34 5.78 0 0 Z " fill="#EAEAEA" transform="translate(24,9)"/>
<path d="M0 0 C0.66 0.99 1.32 1.98 2 3 C-3.53191994 9.77618157 -9.11519067 16.1205211 -18 18 C-27.92820513 18.53589744 -27.92820513 18.53589744 -31 17 C-31 16.34 -31 15.68 -31 15 C-30.32195313 15.03480469 -29.64390625 15.06960937 -28.9453125 15.10546875 C-20.98295841 15.33706077 -14.10463303 14.46277982 -7.1875 10.3125 C-4.23365834 7.18986739 -2.1232437 3.72245278 0 0 Z " fill="#1F1516" transform="translate(65,55)"/>
<path d="M0 0 C1.32 0 2.64 0 4 0 C4.02709444 2.08326131 4.04643873 4.16662441 4.0625 6.25 C4.07410156 7.41015625 4.08570313 8.5703125 4.09765625 9.765625 C3.94791667 14.725 3.94791667 14.725 3 17 C2.01 17.33 1.02 17.66 0 18 C-0.33 18.66 -0.66 19.32 -1 20 C-3.475 19.01 -3.475 19.01 -6 18 C-5.67 17.34 -5.34 16.68 -5 16 C-3.02 16 -1.04 16 1 16 C0.84402344 15.34773438 0.68804687 14.69546875 0.52734375 14.0234375 C-0.58490411 9.02937096 -1.3320153 5.06165813 0 0 Z " fill="#242424" transform="translate(35,10)"/>
<path d="M0 0 C2.64 0 5.28 0 8 0 C8 4.62 8 9.24 8 14 C7.67 14 7.34 14 7 14 C7 10.04 7 6.08 7 2 C5.68 2 4.36 2 3 2 C3.33 5.96 3.66 9.92 4 14 C2.68 14 1.36 14 0 14 C0 9.38 0 4.76 0 0 Z " fill="#EDEDED" transform="translate(54,29)"/>
<path d="M0 0 C0.33 0 0.66 0 1 0 C1.02505615 0.68102783 1.0501123 1.36205566 1.07592773 2.0637207 C1.19190952 5.14683755 1.31462616 8.22965046 1.4375 11.3125 C1.47681641 12.38435547 1.51613281 13.45621094 1.55664062 14.56054688 C1.59853516 15.58857422 1.64042969 16.61660156 1.68359375 17.67578125 C1.72025146 18.62364502 1.75690918 19.57150879 1.79467773 20.5480957 C1.91430187 23.136171 1.91430187 23.136171 3 26 C6.57941844 28.76591425 9.48349806 30.46864683 14 31 C12.515 32.485 12.515 32.485 11 34 C6.66061711 32.59608201 2.54568271 30.9013105 0 27 C-0.76059636 22.38077781 -0.56325433 17.85282848 -0.375 13.1875 C-0.34792969 11.92228516 -0.32085938 10.65707031 -0.29296875 9.35351562 C-0.22233697 6.2339453 -0.12373646 3.11784159 0 0 Z " fill="#F8F8F8" transform="translate(0,24)"/>
<path d="M0 0 C0.66 0 1.32 0 2 0 C2 0.66 2 1.32 2 2 C3.98 1.67 5.96 1.34 8 1 C8 1.66 8 2.32 8 3 C10.97 3 13.94 3 17 3 C17 3.33 17 3.66 17 4 C11.21354356 5.25406138 5.51131884 5.11186913 -0.375 5.0625 C-1.39722656 5.05798828 -2.41945313 5.05347656 -3.47265625 5.04882812 C-5.98183194 5.037103 -8.4908849 5.02069176 -11 5 C-11 4.67 -11 4.34 -11 4 C-9.576875 3.814375 -9.576875 3.814375 -8.125 3.625 C-4.91332809 3.28312823 -4.91332809 3.28312823 -3 1 C-2.01 1.33 -1.02 1.66 0 2 C0 1.34 0 0.68 0 0 Z " fill="#301D1F" transform="translate(45,41)"/>
<path d="M0 0 C0.33 0 0.66 0 1 0 C1.23417556 3.99899796 1.37502133 7.996219 1.5 12 C1.56703125 13.12535156 1.6340625 14.25070313 1.703125 15.41015625 C1.84603828 21.5196989 1.54171181 25.27818594 -2.71875 29.875 C-4.77929688 31.8046875 -4.77929688 31.8046875 -7 33 C-9.76757812 32.6953125 -9.76757812 32.6953125 -12 32 C-12 31.34 -12 30.68 -12 30 C-10.30729167 29.34895833 -8.61458333 28.69791667 -6.921875 28.046875 C-4.40443604 26.67558711 -2.85232896 25.19563229 -1 23 C-0.36470352 20.40584335 -0.36470352 20.40584335 -0.390625 17.578125 C-0.35839844 16.55332031 -0.32617188 15.52851562 -0.29296875 14.47265625 C-0.27878906 13.40917969 -0.26460937 12.34570312 -0.25 11.25 C-0.20552734 9.63158203 -0.20552734 9.63158203 -0.16015625 7.98046875 C-0.08953064 5.32023756 -0.03679804 2.66087898 0 0 Z " fill="#FAFAFA" transform="translate(85,25)"/>
<path d="M0 0 C0.36256858 1.4562672 0.71479793 2.91511185 1.0625 4.375 C1.25972656 5.18710937 1.45695312 5.99921875 1.66015625 6.8359375 C2 9 2 9 1 11 C-2.77545388 9.90931332 -5.47043472 9.0916909 -8 6 C-7.34 6 -6.68 6 -6 6 C-6 4.68 -6 3.36 -6 2 C-2.25 0 -2.25 0 0 0 Z " fill="#222222" transform="translate(22,37)"/>
<path d="M0 0 C1.65 0 3.3 0 5 0 C5 4.95 5 9.9 5 15 C3.35 15 1.7 15 0 15 C0 10.05 0 5.1 0 0 Z " fill="#E4E4E4" transform="translate(47,28)"/>
<path d="M0 0 C0.86625 0.309375 1.7325 0.61875 2.625 0.9375 C2.625 1.2675 2.625 1.5975 2.625 1.9375 C1.696875 2.185 0.76875 2.4325 -0.1875 2.6875 C-3.68892446 4.06060763 -4.50950316 4.77309247 -6.375 7.9375 C-6.87448459 10.53912971 -6.87448459 10.53912971 -6.88671875 13.359375 C-6.92216797 14.38417969 -6.95761719 15.40898437 -6.99414062 16.46484375 C-7.01669922 17.52832031 -7.03925781 18.59179688 -7.0625 19.6875 C-7.09666016 20.76644531 -7.13082031 21.84539063 -7.16601562 22.95703125 C-7.24840663 25.61708377 -7.31758645 28.27681035 -7.375 30.9375 C-7.705 30.9375 -8.035 30.9375 -8.375 30.9375 C-8.71927875 27.08616235 -8.99086878 23.23292777 -9.25 19.375 C-9.34796875 18.28896484 -9.4459375 17.20292969 -9.546875 16.08398438 C-9.87253276 10.7269143 -10.07527232 6.96074655 -6.59375 2.65625 C-4.1134631 0.08353005 -3.77237758 -0.06985884 0 0 Z " fill="#D0D0D0" transform="translate(9.375,16.0625)"/>
<path d="M0 0 C3.07226259 0.22757501 4.27402578 1.23211595 6.65625 3.25 C10.54757797 8.07262898 9.2688558 14.05728433 8.8125 19.875 C8.74224609 21.0403125 8.67199219 22.205625 8.59960938 23.40625 C8.42336075 26.27322758 8.22280078 29.13632668 8 32 C7.67 32 7.34 32 7 32 C6.98598145 30.94872925 6.98598145 30.94872925 6.97167969 29.8762207 C6.91785456 26.68760975 6.83423064 23.50044667 6.75 20.3125 C6.73582031 19.20970703 6.72164063 18.10691406 6.70703125 16.97070312 C6.56371496 10.57102562 6.56371496 10.57102562 4.078125 4.79296875 C2.12698419 2.96112573 2.12698419 2.96112573 0 2 C0 1.34 0 0.68 0 0 Z " fill="#D6D6D6" transform="translate(77,16)"/>
<path d="M0 0 C0.33 0 0.66 0 1 0 C1.09796875 1.05960938 1.1959375 2.11921875 1.296875 3.2109375 C1.44694273 4.59906397 1.59803792 5.98707963 1.75 7.375 C1.811875 8.07367188 1.87375 8.77234375 1.9375 9.4921875 C2.16118253 11.78363782 2.16118253 11.78363782 3 15 C4.93880108 16.55719538 4.93880108 16.55719538 7 17 C7 16.34 7 15.68 7 15 C7.66 15 8.32 15 9 15 C9 16.65 9 18.3 9 20 C2.25 18.125 2.25 18.125 0 17 C0 11.39 0 5.78 0 0 Z " fill="#110808" transform="translate(6,31)"/>
<path d="M0 0 C1.32 0 2.64 0 4 0 C4.33 4.95 4.66 9.9 5 15 C3.68 15 2.36 15 1 15 C0.67 10.05 0.34 5.1 0 0 Z " fill="#E8E8E8" transform="translate(28,29)"/>
<path d="M0 0 C0.33 0 0.66 0 1 0 C1.2181301 2.69027121 1.28470316 4.46618158 0 6.875 C-3.28342624 8.72192726 -6.50930735 7.88746423 -10 7 C-13.5 5.4375 -13.5 5.4375 -16 4 C-15.67 3.34 -15.34 2.68 -15 2 C-14.01 2 -13.02 2 -12 2 C-12 2.66 -12 3.32 -12 4 C-7.545 4.99 -7.545 4.99 -3 6 C-3 5.34 -3 4.68 -3 4 C-2.34 4 -1.68 4 -1 4 C-0.67 2.68 -0.34 1.36 0 0 Z " fill="#1A0B0C" transform="translate(79,42)"/>
<path d="M0 0 C0.33 0 0.66 0 1 0 C1.02505615 0.59014893 1.0501123 1.18029785 1.07592773 1.78833008 C1.19200052 4.46326814 1.31467572 7.1378638 1.4375 9.8125 C1.47681641 10.74126953 1.51613281 11.67003906 1.55664062 12.62695312 C1.59853516 13.51962891 1.64042969 14.41230469 1.68359375 15.33203125 C1.72025146 16.15421143 1.75690918 16.9763916 1.79467773 17.82348633 C1.93427772 20.17905178 1.93427772 20.17905178 3 23 C1.02 24.65 -0.96 26.3 -3 28 C-3 24 -3 24 -1 22 C-0.62948007 19.6754661 -0.62948007 19.6754661 -0.5859375 16.9921875 C-0.54726562 16.00605469 -0.50859375 15.01992188 -0.46875 14.00390625 C-0.4378125 12.97136719 -0.406875 11.93882813 -0.375 10.875 C-0.33632812 9.83472656 -0.29765625 8.79445313 -0.2578125 7.72265625 C-0.16335234 5.14861689 -0.07778786 2.57458845 0 0 Z " fill="#37191C" transform="translate(81,26)"/>
<path d="M0 0 C1.04542969 -0.01417969 2.09085938 -0.02835938 3.16796875 -0.04296875 C5.8125 0.1875 5.8125 0.1875 7.8125 2.1875 C-6.1875 4.52083333 -6.1875 4.52083333 -11.1875 1.1875 C-7.41207523 0.3151745 -3.87269302 0.02405399 0 0 Z " fill="#080203" transform="translate(38.1875,46.8125)"/>
<path d="M0 0 C0.66 0.66 1.32 1.32 2 2 C1.01 2.33 0.02 2.66 -1 3 C4.63735071 6.4364867 4.63735071 6.4364867 11 8 C10.67 8.66 10.34 9.32 10 10 C5.25680447 9.53498083 1.80311687 8.95797979 -2 6 C-3.8125 3.3125 -3.8125 3.3125 -5 1 C-2.625 0.375 -2.625 0.375 0 0 Z " fill="#323232" transform="translate(24,61)"/>
<path d="M0 0 C1.36511719 0.29197266 1.36511719 0.29197266 2.7578125 0.58984375 C3.45648438 0.74582031 4.15515625 0.90179688 4.875 1.0625 C4.875 2.0525 4.875 3.0425 4.875 4.0625 C3.616875 3.835625 2.35875 3.60875 1.0625 3.375 C-2.26638709 2.86056803 -2.26638709 2.86056803 -5.125 4.5 C-5.455 5.015625 -5.785 5.53125 -6.125 6.0625 C-6.455 4.0825 -6.785 2.1025 -7.125 0.0625 C-4.4030754 -1.2984623 -2.9418043 -0.64116248 0 0 Z " fill="#150E0F" transform="translate(72.125,50.9375)"/>
<path d="M0 0 C3.63 0 7.26 0 11 0 C11 0.33 11 0.66 11 1 C8.36 1.33 5.72 1.66 3 2 C3.33 4.97 3.66 7.94 4 11 C3.34 10.67 2.68 10.34 2 10 C1.690625 9.030625 1.38125 8.06125 1.0625 7.0625 C0.25255878 3.7319557 0.25255878 3.7319557 -3 2 C-2.01 2 -1.02 2 0 2 C0 1.34 0 0.68 0 0 Z " fill="#4B4B4B" transform="translate(38,25)"/>
<path d="M0 0 C0.99 0 1.98 0 3 0 C3 3.96 3 7.92 3 12 C2.01 12 1.02 12 0 12 C0 8.04 0 4.08 0 0 Z " fill="#171717" transform="translate(56,11)"/>
<path d="M0 0 C1.32 0 2.64 0 4 0 C4 4.29 4 8.58 4 13 C0.72220127 9.72220127 0.59505966 9.1639187 0.3125 4.8125 C0.24675781 3.91144531 0.18101563 3.01039062 0.11328125 2.08203125 C0.07589844 1.39496094 0.03851563 0.70789063 0 0 Z " fill="#D3D3D3" transform="translate(41,28)"/>
<path d="M0 0 C7.2 -0.48 7.2 -0.48 10.5 1.5 C12.68405234 5.14008723 12.28023018 7.79654733 12 12 C9.04816899 9.04816899 8.91336012 6.04488053 8 2 C5.36 1.67 2.72 1.34 0 1 C0 0.67 0 0.34 0 0 Z " fill="#130E0E" transform="translate(68,22)"/>
<path d="M0 0 C0.99 0 1.98 0 3 0 C3 3.63 3 7.26 3 11 C2.01 11 1.02 11 0 11 C0 7.37 0 3.74 0 0 Z " fill="#323232" transform="translate(57,31)"/>
<path d="M0 0 C0.33 0 0.66 0 1 0 C1 3.63 1 7.26 1 11 C1.66 10.34 2.32 9.68 3 9 C6.625 9.375 6.625 9.375 10 10 C10 10.66 10 11.32 10 12 C6.7 12 3.4 12 0 12 C0 8.04 0 4.08 0 0 Z " fill="#2F1517" transform="translate(66,8)"/>
<path d="M0 0 C5.72398793 0.74660712 11.34853777 1.82877141 17 3 C17 3.33 17 3.66 17 4 C15.10448978 4.05441656 13.2085208 4.09298035 11.3125 4.125 C10.25675781 4.14820312 9.20101562 4.17140625 8.11328125 4.1953125 C4.97748141 3.99858729 2.82354627 3.33057654 0 2 C0 1.34 0 0.68 0 0 Z " fill="#F8F8F8" transform="translate(29,71)"/>
<path d="M0 0 C5.00890086 0.61512818 10.00632136 1.2717552 15 2 C13.875 3.5625 13.875 3.5625 12 5 C7.41949617 4.79642205 3.98252746 3.1809079 0 1 C0 0.67 0 0.34 0 0 Z " fill="#AD3441" transform="translate(32,57)"/>
<path d="M0 0 C1.32 0.33 2.64 0.66 4 1 C4 1.66 4 2.32 4 3 C3.401875 3.268125 2.80375 3.53625 2.1875 3.8125 C-0.04327908 4.8893979 -0.04327908 4.8893979 -1.625 6.625 C-2.07875 7.07875 -2.5325 7.5325 -3 8 C-3.66 8 -4.32 8 -5 8 C-3.62845496 5.04590299 -2.01136276 2.55991624 0 0 Z " fill="#171212" transform="translate(7,18)"/>
<path d="M0 0 C-1.98 0.99 -1.98 0.99 -4 2 C-4.99 1.34 -5.98 0.68 -7 0 C-4.3333581 -1.33332095 -2.83319697 -0.67102033 0 0 Z M-10 2 C-9.34 2.33 -8.68 2.66 -8 3 C-10 6 -10 6 -11.9453125 6.51171875 C-12.66460937 6.56972656 -13.38390625 6.62773437 -14.125 6.6875 C-16.043125 6.8421875 -16.043125 6.8421875 -18 7 C-18 6.34 -18 5.68 -18 5 C-17.236875 4.87625 -16.47375 4.7525 -15.6875 4.625 C-12.79732864 4.11897208 -12.79732864 4.11897208 -10 2 Z " fill="#434141" transform="translate(71,23)"/>
<path d="M0 0 C2.375 -0.125 2.375 -0.125 5 0 C7.5654594 2.5654594 7.54046087 4.47686668 8 8 C7.34 8 6.68 8 6 8 C6 6.35 6 4.7 6 3 C4.68 3 3.36 3 2 3 C2 3.66 2 4.32 2 5 C1.34 5 0.68 5 0 5 C0 3.35 0 1.7 0 0 Z " fill="#212121" transform="translate(43,18)"/>
<path d="M0 0 C2.475 0.495 2.475 0.495 5 1 C5 3.31 5 5.62 5 8 C4.01 8 3.02 8 2 8 C2 5.69 2 3.38 2 1 C1.34 0.67 0.68 0.34 0 0 Z " fill="#686868" transform="translate(24,29)"/>
<path d="M0 0 C1.8125 0.1875 1.8125 0.1875 4 1 C6.14197494 3.90696599 7 5.35521088 7 9 C4 8 4 8 2.8125 6.125 C2 4 2 4 2 1 C1.34 0.67 0.68 0.34 0 0 Z " fill="#E4E4E4" transform="translate(12,54)"/>
<path d="M0 0 C0.99 0 1.98 0 3 0 C3.33 2.31 3.66 4.62 4 7 C2.68 7 1.36 7 0 7 C0 4.69 0 2.38 0 0 Z " fill="#F2F2F2" transform="translate(32,18)"/>
<path d="M0 0 C0.99 0 1.98 0 3 0 C3 1.98 3 3.96 3 6 C1.68 5.67 0.36 5.34 -1 5 C-0.67 3.35 -0.34 1.7 0 0 Z " fill="#DEDEDE" transform="translate(18,38)"/>
<path d="M0 0 C0.69222656 0.07605469 1.38445312 0.15210937 2.09765625 0.23046875 C3.9375 0.8125 3.9375 0.8125 5.9375 3.8125 C4.9475 3.8125 3.9575 3.8125 2.9375 3.8125 C2.6075 3.4825 2.2775 3.1525 1.9375 2.8125 C0.42280552 2.58057135 -1.10004562 2.40034762 -2.625 2.25 C-3.45128906 2.16621094 -4.27757813 2.08242188 -5.12890625 1.99609375 C-5.76699219 1.93550781 -6.40507813 1.87492187 -7.0625 1.8125 C-3.90703684 -0.29114211 -3.50162739 -0.45161176 0 0 Z " fill="#6F171F" transform="translate(74.0625,20.1875)"/>
<path d="M0 0 C1.77074917 -0.02705729 3.54161711 -0.04642195 5.3125 -0.0625 C6.29863281 -0.07410156 7.28476562 -0.08570313 8.30078125 -0.09765625 C11 0 11 0 14 1 C14.6875 3.0625 14.6875 3.0625 15 5 C11.125 3.125 11.125 3.125 10 2 C8.31816052 1.76712992 6.6287584 1.58735834 4.9375 1.4375 C4.01839844 1.35371094 3.09929688 1.26992187 2.15234375 1.18359375 C1.08693359 1.09271484 1.08693359 1.09271484 0 1 C0 0.67 0 0.34 0 0 Z " fill="#0A0304" transform="translate(23,6)"/>
<path d="M0 0 C-1.14453125 1.51953125 -1.14453125 1.51953125 -3 3 C-5.69921875 3.07421875 -5.69921875 3.07421875 -8.6875 2.6875 C-10.17830078 2.50767578 -10.17830078 2.50767578 -11.69921875 2.32421875 C-12.45847656 2.21722656 -13.21773437 2.11023438 -14 2 C-14 1.67 -14 1.34 -14 1 C-12.04310963 0.63794536 -10.08442332 0.28558579 -8.125 -0.0625 C-7.03445312 -0.25972656 -5.94390625 -0.45695312 -4.8203125 -0.66015625 C-2 -1 -2 -1 0 0 Z " fill="#CCCCCC" transform="translate(52,72)"/>
<path d="M0 0 C0.99 0 1.98 0 3 0 C3 0.66 3 1.32 3 2 C5.97 2.495 5.97 2.495 9 3 C7.375 4.1875 7.375 4.1875 5 5 C1.75 3.625 1.75 3.625 -1 2 C-0.67 1.34 -0.34 0.68 0 0 Z " fill="#1E1213" transform="translate(64,44)"/>
<path d="M0 0 C0.99 0 1.98 0 3 0 C3 1.65 3 3.3 3 5 C3.66 5.33 4.32 5.66 5 6 C2.69 6 0.38 6 -2 6 C-1.01 5.67 -0.02 5.34 1 5 C0.67 3.35 0.34 1.7 0 0 Z " fill="#4C4C4C" transform="translate(26,39)"/>
<path d="M0 0 C2.64 0 5.28 0 8 0 C6.68 1.32 5.36 2.64 4 4 C1.525 3.01 1.525 3.01 -1 2 C-0.67 1.34 -0.34 0.68 0 0 Z " fill="#040404" transform="translate(30,26)"/>
<path d="M0 0 C0.66 0.33 1.32 0.66 2 1 C1.67 2.98 1.34 4.96 1 7 C-0.32 6.34 -1.64 5.68 -3 5 C-1.125 1.125 -1.125 1.125 0 0 Z " fill="#020202" transform="translate(64,24)"/>
<path d="M0 0 C1.5625 1.25 1.5625 1.25 3 3 C2.6875 5.1875 2.6875 5.1875 2 7 C0.02 7 -1.96 7 -4 7 C-3.67 6.34 -3.34 5.68 -3 5 C-1.02 5.495 -1.02 5.495 1 6 C0.67 4.02 0.34 2.04 0 0 Z " fill="#4F4F4F" transform="translate(38,37)"/>
<path d="M0 0 C0.99 0 1.98 0 3 0 C3 1.98 3 3.96 3 6 C2.01 6.495 2.01 6.495 1 7 C0.67 4.69 0.34 2.38 0 0 Z " fill="#111111" transform="translate(28,19)"/>
<path d="M0 0 C2.5654594 2.5654594 2.54046087 4.47686668 3 8 C1.68 7.67 0.36 7.34 -1 7 C-0.67 4.69 -0.34 2.38 0 0 Z " fill="#F4F4F4" transform="translate(36,35)"/>
</svg>
