<?xml version="1.0" encoding="UTF-8"?>
<svg version="1.1" xmlns="http://www.w3.org/2000/svg" width="55" height="74">
<path d="M0 0 C14.97700587 -0.71037182 14.97700587 -0.71037182 21.8125 2.9921875 C24.45030085 4.20746003 26.8812038 4.58036226 29.75 5 C35.40546628 5.90835003 38.11070063 7.70585077 41.75 12.125 C44.11865701 17.57291112 44.66449539 22.9715404 42.8125 28.625 C41.78916456 32.87577798 42.73543804 34.16890654 44.84375 37.80859375 C46.54240805 41.02800985 47.41817063 44.40300686 48.38671875 47.8984375 C48.94122617 50.03140651 48.94122617 50.03140651 50 52 C50.06950541 53.54023996 50.08452357 55.08334988 50.0625 56.625 C50.05347656 57.44226562 50.04445312 58.25953125 50.03515625 59.1015625 C50.02355469 59.72804687 50.01195312 60.35453125 50 61 C43.73323805 65.05496362 43.73323805 65.05496362 40.55078125 64.81640625 C36.85370726 63.63311611 34.17850487 61.47008722 31.0859375 59.1796875 C30.39757813 58.79039063 29.70921875 58.40109375 29 58 C28.01 58.33 27.02 58.66 26 59 C25.77422598 64.4185766 26.53329887 68.77487721 28 74 C20.83783605 74.58895915 14.40448614 72.43352363 7.5625 70.5 C6.35400391 70.16613281 5.14550781 69.83226563 3.90039062 69.48828125 C0.93128729 68.66679021 -2.03528292 67.83715646 -5 67 C-5.3595084 56.37203285 -0.98281531 49.43991978 5.74609375 41.33203125 C9.8987653 37.03541961 14.79764322 33.43801859 20.26171875 30.984375 C20.83535156 30.65953125 21.40898437 30.3346875 22 30 C22.40632091 28.01354224 22.72949547 26.00946222 23 24 C23.598125 23.030625 24.19625 22.06125 24.8125 21.0625 C26.3090579 18.19584631 26.3090579 18.19584631 25.3046875 16.06640625 C24.08448884 13.87979848 24.08448884 13.87979848 22 11 C18.37 11.33 14.74 11.66 11 12 C11 11.01 11 10.02 11 9 C12.65 8.34 14.3 7.68 16 7 C10.75117306 3.82307843 5.98511371 3.34302035 0 3 C0 2.01 0 1.02 0 0 Z " fill="#FEFEFE" transform="translate(5,0)"/>
</svg>
