<?xml version="1.0" encoding="UTF-8"?>
<svg version="1.1" xmlns="http://www.w3.org/2000/svg" width="900" height="420">
<path d="M0 0 C0 39.93 0 79.86 0 121 C-2.21604683 122.10802342 -3.64661693 122.22067697 -6.10742188 122.38891602 C-7.38014954 122.4788961 -7.38014954 122.4788961 -8.67858887 122.57069397 C-9.59934204 122.63115402 -10.52009521 122.69161407 -11.46875 122.75390625 C-12.41882935 122.81907944 -13.36890869 122.88425262 -14.34777832 122.95140076 C-16.36517514 123.08874115 -18.38271881 123.22393828 -20.40039062 123.35717773 C-23.46005459 123.55985396 -26.5190827 123.77059259 -29.578125 123.98242188 C-31.54163374 124.1150716 -33.50517456 124.24724759 -35.46875 124.37890625 C-36.37330933 124.44139053 -37.27786865 124.50387482 -38.20983887 124.56825256 C-39.52039246 124.65350441 -39.52039246 124.65350441 -40.85742188 124.74047852 C-41.987547 124.81589622 -41.987547 124.81589622 -43.14050293 124.89283752 C-47.42414376 125.05337119 -51.71335214 125 -56 125 C-56 105.2 -56 85.4 -56 65 C-67.90710718 66.64108154 -67.90710718 66.64108154 -79.81298828 68.29101562 C-81.31538617 68.49641233 -82.81782494 68.70151027 -84.3203125 68.90625 C-85.08851318 69.01420898 -85.85671387 69.12216797 -86.64819336 69.23339844 C-87.77390747 69.38566895 -87.77390747 69.38566895 -88.92236328 69.54101562 C-89.56634064 69.62984009 -90.21031799 69.71866455 -90.87380981 69.81018066 C-93.5725452 70.05111497 -96.29053104 70 -99 70 C-98.67 92.77 -98.34 115.54 -98 139 C-92.72 141.64 -87.44 144.28 -82 147 C-77.20255274 149.44767717 -72.40834567 151.90008335 -67.625 154.375 C-66.68556046 154.86105713 -66.68556046 154.86105713 -65.72714233 155.35693359 C-49.59849713 163.71197169 -33.83187041 172.62841476 -18.1184082 181.73632812 C-17.06741943 182.34541016 -16.01643066 182.95449219 -14.93359375 183.58203125 C-14.00603271 184.12061768 -13.07847168 184.6592041 -12.12280273 185.21411133 C-8.10281212 187.51308962 -4.04817182 189.75101565 0 192 C0 255.69 0 319.38 0 385 C-5.85794824 384.41420518 -11.40376826 383.84802473 -17.15063477 382.8359375 C-17.79611393 382.72327325 -18.44159309 382.610609 -19.10663223 382.49453068 C-21.21886327 382.12489602 -23.33012829 381.75003685 -25.44140625 381.375 C-26.95321338 381.10913213 -28.46507072 380.84354959 -29.97697449 380.57823181 C-34.0070812 379.86990848 -38.03631668 379.15674518 -42.06535339 378.44236374 C-44.56970068 377.99872442 -47.07429409 377.55650276 -49.57897949 377.11477661 C-74.82873285 372.66157507 -100.06386646 368.13206802 -125.26853943 363.42953491 C-129.89764107 362.56736098 -134.52960758 361.72488828 -139.16601562 360.90283203 C-140.18471741 360.7212001 -141.20341919 360.53956818 -142.25299072 360.35243225 C-144.22550397 360.00147084 -146.19859187 359.65372036 -148.17230225 359.30955505 C-149.05162415 359.1526973 -149.93094604 358.99583954 -150.83691406 358.83422852 C-151.61810608 358.69694839 -152.3992981 358.55966827 -153.2041626 358.41822815 C-155 358 -155 358 -156 357 C-156.09616807 355.31708304 -156.12187691 353.63010439 -156.12025452 351.94444275 C-156.12162918 350.84922806 -156.12300385 349.75401337 -156.12442017 348.62561035 C-156.12082489 347.41360962 -156.11722961 346.20160889 -156.11352539 344.95288086 C-156.11367142 343.68477066 -156.11381744 342.41666046 -156.1139679 341.11012268 C-156.11425585 337.62267578 -156.10835945 334.13526299 -156.10139394 330.64782405 C-156.09516007 327.00696277 -156.09455658 323.36610078 -156.09336853 319.72523499 C-156.09025531 312.82623028 -156.08204205 305.92724135 -156.07201904 299.0282436 C-156.06085761 291.17589315 -156.05534738 283.32354197 -156.05032361 275.47118556 C-156.03985943 259.31411447 -156.02226017 243.15705924 -156 227 C-153.78201526 226.99500814 -151.56402723 226.9914663 -149.34603882 226.98852539 C-148.11089727 226.98639542 -146.87575573 226.98426544 -145.60318565 226.98207092 C-140.8024113 227.00595908 -136.02053204 227.19588574 -131.2265625 227.4375 C-130.39535889 227.47681641 -129.56415527 227.51613281 -128.70776367 227.55664062 C-125.68000122 227.70080659 -122.65251409 227.8507093 -119.625 228 C-112.81875 228.33 -106.0125 228.66 -99 229 C-99 257.38 -99 285.76 -99 315 C-96.36 315 -93.72 315 -91 315 C-88.43707741 315.23706663 -85.87789607 315.51812189 -83.32421875 315.83984375 C-82.63237991 315.92625626 -81.94054108 316.01266876 -81.22773743 316.10169983 C-79.78132761 316.28345542 -78.33521557 316.46759573 -76.8894043 316.65405273 C-74.676351 316.93893519 -72.46233473 317.21512959 -70.24804688 317.49023438 C-59.42422035 318.85859322 -59.42422035 318.85859322 -56 320 C-56 290.3 -56 260.6 -56 230 C-52.37 229.67 -48.74 229.34 -45 229 C-46.53527344 228.10539063 -48.07054687 227.21078125 -49.65234375 226.2890625 C-51.74742781 225.06776319 -53.84247747 223.84640487 -55.9375 222.625 C-57.02893311 221.98884766 -58.12036621 221.35269531 -59.24487305 220.69726562 C-64.16678211 217.82672414 -69.08713359 214.95395729 -73.9921875 212.0546875 C-74.73090088 211.61817871 -75.46961426 211.18166992 -76.23071289 210.73193359 C-77.55639151 209.9474403 -78.8811965 209.16146747 -80.20483398 208.37353516 C-90.98268864 201.99605576 -102.12527932 196.23972701 -113.1875 190.375 C-113.92668671 189.98281281 -114.66587341 189.59062561 -115.42745972 189.18655396 C-126.24628152 183.45152973 -137.1167497 177.84691884 -148.10424805 172.44091797 C-149.00957275 171.99506348 -149.91489746 171.54920898 -150.84765625 171.08984375 C-151.63148682 170.70691162 -152.41531738 170.32397949 -153.22290039 169.92944336 C-155 169 -155 169 -156 168 C-156.09641497 166.19039129 -156.12187398 164.37697872 -156.12025452 162.56480408 C-156.12162918 161.38544785 -156.12300385 160.20609161 -156.12442017 158.99099731 C-156.12082489 157.6854892 -156.11722961 156.37998108 -156.11352539 155.03491211 C-156.11324352 153.65547182 -156.11340125 152.27603139 -156.1139679 150.89659119 C-156.11425588 147.14055882 -156.10835905 143.38455811 -156.10139394 139.62853312 C-156.09516051 135.70739955 -156.09455661 131.78626533 -156.09336853 127.86512756 C-156.09025518 120.43488389 -156.08204175 113.00465486 -156.07201904 105.57441765 C-156.06085801 97.11748362 -156.05534748 88.6605489 -156.05032361 80.20360935 C-156.03985914 62.80239775 -156.02225963 45.40120042 -156 28 C-153.16726563 26.45045563 -150.67008832 25.60296563 -147.49581909 25.04058838 C-146.59707062 24.87822693 -145.69832214 24.71586548 -144.77233887 24.54858398 C-143.30310974 24.29298706 -143.30310974 24.29298706 -141.80419922 24.03222656 C-140.24664413 23.753638 -140.24664413 23.753638 -138.65762329 23.46942139 C-135.20767057 22.85389153 -131.75621631 22.24724944 -128.3046875 21.640625 C-125.88069262 21.2099898 -123.4567948 20.77880791 -121.0329895 20.34710693 C-114.61903182 19.20627025 -108.2037667 18.07295579 -101.78820801 16.94116211 C-95.39315874 15.81165002 -88.99936427 14.67508406 -82.60546875 13.5390625 C-71.65795275 11.59471278 -60.70885977 9.65943052 -49.75910568 7.7277298 C-42.8398767 6.50571875 -35.92338094 5.26944085 -29.00878906 4.02148438 C-26.64715883 3.59718064 -24.28545357 3.17329779 -21.92370987 2.74962616 C-20.50451478 2.49391574 -19.08564385 2.2363981 -17.66714096 1.97687531 C-15.77517885 1.63074084 -13.88200532 1.29124716 -11.98876953 0.95214844 C-10.96413605 0.7660199 -9.93950256 0.57989136 -8.88381958 0.38812256 C-6 0 -6 0 0 0 Z " fill="#2C5EFE" transform="translate(900,29)"/>
<path d="M0 0 C7.6131583 0.52957603 15.0492491 1.38144736 22.55322266 2.76245117 C24.02474792 3.02619034 24.02474792 3.02619034 25.52600098 3.29525757 C28.73966217 3.87256339 31.95183625 4.45773618 35.1640625 5.04296875 C37.44191502 5.45365775 39.71986091 5.86382918 41.99789429 6.27351379 C47.99273616 7.3529725 53.98636546 8.43901894 59.97973633 9.52661133 C65.95849204 10.61056362 71.93823709 11.68902493 77.91796875 12.76757812 C84.87195349 14.02194096 91.82586509 15.27668816 98.77911377 16.53512573 C108.80723466 18.34918941 118.83627185 20.15640495 128.87402344 21.91650391 C129.68973249 22.05961785 130.50544155 22.2027318 131.34586906 22.35018253 C135.03523864 22.9967097 138.7251278 23.64003464 142.41592407 24.27836609 C143.6584494 24.49499405 144.90097473 24.71162201 146.18115234 24.93481445 C147.24377289 25.11849075 148.30639343 25.30216705 149.4012146 25.4914093 C152 26 152 26 155 27 C155.33 61.65 155.66 96.3 156 132 C144.24461781 131.38129567 132.49656927 130.75253297 120.75 130 C119.40234499 129.91664661 118.05468874 129.83331329 116.70703125 129.75 C115.41667969 129.6675 114.12632813 129.585 112.796875 129.5 C111.65573242 129.4278125 110.51458984 129.355625 109.33886719 129.28125 C105.87847071 128.98976296 102.4377496 128.49110709 99 128 C99 108.86 99 89.72 99 70 C92.07 69.505 92.07 69.505 85 69 C82.35312361 68.70704331 79.70864718 68.38923922 77.0703125 68.02734375 C76.10120438 67.8962899 76.10120438 67.8962899 75.11251831 67.7625885 C73.11608998 67.49167566 71.1205562 67.21475525 69.125 66.9375 C67.74354499 66.7489426 66.36203469 66.56078978 64.98046875 66.37304688 C61.65308385 65.91931257 58.32630441 65.46157686 55 65 C54.82906298 74.11945033 54.72889614 83.23619951 54.71759319 92.35725403 C54.71015089 96.59346119 54.67888494 100.82662923 54.59204102 105.06201172 C54.50902227 109.15449863 54.49006553 113.24285293 54.51441383 117.33605957 C54.51262976 118.89265102 54.48824623 120.44939474 54.44031334 122.00524902 C54.29851559 126.89498222 54.40193643 131.31232894 56 136 C59.95067003 139.77273115 64.01090873 141.75803945 69 144 C70.88162437 145.08296085 72.75279712 146.18462787 74.60546875 147.31640625 C76.46503103 148.40035227 78.3257429 149.4823281 80.1875 150.5625 C81.2079541 151.15546875 82.2284082 151.7484375 83.27978516 152.359375 C85.43166113 153.60904152 87.58401074 154.85789278 89.73681641 156.10595703 C92.96692574 157.98080278 96.19266836 159.86298996 99.41796875 161.74609375 C117.66659874 172.37189579 136.10944525 182.55472263 155 192 C155 246.78 155 301.56 155 358 C134.87 361.63 114.74 365.26 94 369 C85.6675 370.50949219 77.335 372.01898438 68.75 373.57421875 C57.24609375 375.65429687 57.24609375 375.65429687 51.64794922 376.66577148 C47.78202396 377.36461733 43.91651552 378.06571766 40.05126953 378.76831055 C35.21597214 379.64713923 30.37993171 380.52176336 25.54333496 381.39341164 C23.74414557 381.71842319 21.94522796 382.04494345 20.14660645 382.37308311 C17.68829039 382.82136173 15.22905967 383.26423973 12.76953125 383.70581055 C12.05112564 383.83814087 11.33272003 383.97047119 10.59254456 384.10681152 C6.94247683 384.75598104 3.74534519 385 0 385 C0 334.84 0 284.68 0 233 C7.72077446 232.22792255 15.26549892 231.70834074 23 231.4375 C24.63775391 231.37272461 24.63775391 231.37272461 26.30859375 231.30664062 C35.89022286 230.95771425 45.39260338 231 55 231 C55 260.37 55 289.74 55 320 C65.395 318.515 65.395 318.515 76 317 C83.99209087 315.85827273 90.92887057 315 99 315 C99 286.29 99 257.58 99 228 C102.63 227.67 106.26 227.34 110 227 C108.64189209 226.30608154 108.64189209 226.30608154 107.25634766 225.59814453 C73.02901586 208.09693742 73.02901586 208.09693742 59 200 C58.1327832 199.50000488 57.26556641 199.00000977 56.37207031 198.48486328 C44.36855209 191.54798003 32.43136148 184.49754266 20.5 177.4375 C19.37279541 176.77089355 18.24559082 176.10428711 17.08422852 175.41748047 C15.48019165 174.46639404 15.48019165 174.46639404 13.84375 173.49609375 C12.90724609 172.94107178 11.97074219 172.3860498 11.00585938 171.81420898 C10.01392578 171.21552002 9.02199219 170.61683105 8 170 C7.33616806 169.76290503 6.67233612 169.52581005 5.98838806 169.28153038 C3.37216626 168.15482059 1.87226836 167.1689176 0 165 C-1.22348658 159.79369556 -1.01085421 154.59714733 -0.90820312 149.28588867 C-0.90594589 147.65955721 -0.90721447 146.03321759 -0.91174316 144.40689087 C-0.91403848 139.99545563 -0.86701046 135.58576078 -0.8111515 131.17473006 C-0.76113753 126.56370481 -0.75644146 121.95263953 -0.74694824 117.34138489 C-0.72208395 108.61113064 -0.65643641 99.88167791 -0.57615232 91.15177661 C-0.48673001 81.21242268 -0.4427465 71.27303044 -0.40258884 61.33337438 C-0.31896992 40.8884689 -0.17825831 20.44428494 0 0 Z " fill="#2C5EFE" transform="translate(0,29)"/>
<path d="M0 0 C8.74893708 0.72907809 17.40005749 1.60121514 26.0949707 2.72949219 C28.22219582 3.00448524 30.35029299 3.27191142 32.47851562 3.5390625 C33.83339142 3.71309003 35.18821148 3.88755219 36.54296875 4.0625 C37.76008545 4.21847656 38.97720215 4.37445313 40.23120117 4.53515625 C43 5 43 5 44 6 C44.12500152 8.5244907 44.18603538 11.02299617 44.20532227 13.54907227 C44.21522186 14.33925751 44.22512146 15.12944275 44.23532104 15.943573 C44.26702848 18.56781978 44.29172979 21.19208469 44.31640625 23.81640625 C44.33696781 25.63102197 44.35796406 27.4456328 44.37937927 29.26023865 C44.43468241 34.0458482 44.4840552 38.83150156 44.53222656 43.6171875 C44.58238157 48.49678464 44.63809888 53.37631785 44.69335938 58.25585938 C44.80104168 67.83718502 44.90246413 77.41856608 45 87 C48.47744948 88.75342711 51.95726894 90.5021012 55.4375 92.25 C56.41138672 92.74113281 57.38527344 93.23226562 58.38867188 93.73828125 C59.35224609 94.22167969 60.31582031 94.70507812 61.30859375 95.203125 C62.18314209 95.64301758 63.05769043 96.08291016 63.95874023 96.53613281 C67.93025927 98.44776709 71.97224573 100.20988699 76 102 C76.33 71.64 76.66 41.28 77 10 C97.95522388 12.32835821 97.95522388 12.32835821 106.875 13.5625 C108.27685547 13.75102539 108.27685547 13.75102539 109.70703125 13.94335938 C113.53959913 14.46848166 117.25135301 15.03896983 121 16 C121.02332544 43.75447856 121.04097743 71.50895566 121.05181217 99.26344204 C121.05697589 112.14934555 121.06402001 125.03524297 121.07543945 137.92114258 C121.08538399 149.14805911 121.09185288 160.37497124 121.09408849 171.60189205 C121.09539599 177.55044637 121.09848431 183.49898809 121.10573006 189.44753838 C121.11248665 195.03949192 121.1146177 200.63142762 121.11310768 206.22338486 C121.11338417 208.28220148 121.11539142 210.34101866 121.11920547 212.39983177 C121.12413709 215.19772416 121.12300027 217.995548 121.12025452 220.79344177 C121.12316736 221.61930092 121.1260802 222.44516006 121.12908131 223.29604524 C121.11412121 228.88587879 121.11412121 228.88587879 120 230 C117.42469958 230.44582013 114.86170833 230.83667132 112.2734375 231.19140625 C111.49239655 231.30097153 110.71135559 231.4105368 109.90664673 231.52342224 C108.24746393 231.75493973 106.58797766 231.98429086 104.92822266 232.21166992 C102.40559864 232.55829554 99.88444192 232.91438996 97.36328125 233.27148438 C95.75008019 233.49537023 94.13680113 233.71869495 92.5234375 233.94140625 C91.4011525 234.10075401 91.4011525 234.10075401 90.25619507 234.26332092 C89.53920441 234.36019699 88.82221375 234.45707306 88.08349609 234.55688477 C87.46252045 234.64269302 86.8415448 234.72850128 86.20175171 234.81690979 C83.14444649 235.07114493 80.06785768 235 77 235 C77 205.3 77 175.6 77 145 C78.65 144.67 80.3 144.34 82 144 C80.91992676 143.52054932 79.83985352 143.04109863 78.72705078 142.54711914 C74.72749356 140.77154626 70.72820749 138.99536338 66.72900391 137.21899414 C64.99665625 136.44962129 63.26423467 135.68041484 61.53173828 134.91137695 C59.04440259 133.8072391 56.55733159 132.702507 54.0703125 131.59765625 C52.90461227 131.08042747 52.90461227 131.08042747 51.71536255 130.55274963 C46.22774341 128.11387171 46.22774341 128.11387171 44 127 C44.00092179 127.58144996 44.00184359 128.16289991 44.00279331 128.76196957 C44.0248494 142.89074246 44.04141197 157.01951278 44.05181217 171.14829922 C44.05697493 177.98078974 44.06401723 184.81326879 44.07543945 191.64575195 C44.08644707 198.23335305 44.09227623 204.82094531 44.09487724 211.40855598 C44.096732 213.92808279 44.10035357 216.44760891 44.10573006 218.96713066 C44.11293676 222.48257765 44.1139911 225.99797461 44.11352539 229.51342773 C44.11712067 230.56646591 44.12071594 231.61950409 44.12442017 232.70445251 C44.1230455 233.65662659 44.12167084 234.60880066 44.12025452 235.58982849 C44.12117631 236.42220756 44.1220981 237.25458662 44.12304783 238.11218929 C44 240 44 240 43 241 C40.42469958 241.44582013 37.86170833 241.83667132 35.2734375 242.19140625 C34.49239655 242.30097153 33.71135559 242.4105368 32.90664673 242.52342224 C31.24746393 242.75493973 29.58797766 242.98429086 27.92822266 243.21166992 C25.40559864 243.55829554 22.88444192 243.91438996 20.36328125 244.27148438 C18.75008019 244.49537023 17.13680113 244.71869495 15.5234375 244.94140625 C14.4011525 245.10075401 14.4011525 245.10075401 13.25619507 245.26332092 C12.53920441 245.36019699 11.82221375 245.45707306 11.08349609 245.55688477 C10.46252045 245.64269302 9.8415448 245.72850128 9.20175171 245.81690979 C6.14444649 246.07114493 3.06785768 246 0 246 C0 164.82 0 83.64 0 0 Z " fill="#2C5EFF" transform="translate(182,102)"/>
<path d="M0 0 C0 34.65 0 69.3 0 105 C-7.92 108.96 -7.92 108.96 -16 113 C-10.95650161 116.96896279 -10.95650161 116.96896279 0 122 C0 163.58 0 205.16 0 248 C-14.64585307 246.87339592 -14.64585307 246.87339592 -20.32421875 246.0625 C-22.14276367 245.80339844 -22.14276367 245.80339844 -23.99804688 245.5390625 C-25.82432617 245.27222656 -25.82432617 245.27222656 -27.6875 245 C-29.57758789 244.73316406 -29.57758789 244.73316406 -31.50585938 244.4609375 C-40.7408116 243.1295942 -40.7408116 243.1295942 -43 242 C-43 210.98 -43 179.96 -43 148 C-41.02 147.67 -39.04 147.34 -37 147 C-40.78486155 145.09503402 -44.57113751 143.19291538 -48.35864258 141.29321289 C-49.64189459 140.64910151 -50.9247841 140.0042673 -52.20727539 139.35864258 C-54.07078282 138.42069418 -55.93566156 137.4855188 -57.80078125 136.55078125 C-59.47394409 135.71027222 -59.47394409 135.71027222 -61.1809082 134.8527832 C-66.07739738 132.47731453 -71.04552687 130.25203324 -76 128 C-76 163.97 -76 199.94 -76 237 C-91.77514793 235.87320372 -91.77514793 235.87320372 -97.67578125 235.0625 C-99.56393555 234.80339844 -99.56393555 234.80339844 -101.49023438 234.5390625 C-103.38225586 234.27222656 -103.38225586 234.27222656 -105.3125 234 C-106.63732723 233.81999895 -107.96219693 233.64031026 -109.28710938 233.4609375 C-118.87210857 232.12789143 -118.87210857 232.12789143 -120 231 C-120.09788593 228.23099828 -120.12993123 225.48694335 -120.12025452 222.71751404 C-120.12110894 221.83869586 -120.12196337 220.95987767 -120.12284368 220.05442864 C-120.12450119 217.08631436 -120.11897271 214.11825562 -120.11352539 211.15014648 C-120.11324355 209.03179933 -120.11340119 206.91345208 -120.1139679 204.79510498 C-120.114256 199.02467859 -120.10835725 193.25427278 -120.10139394 187.48385119 C-120.09516248 181.46067581 -120.09455677 175.43750001 -120.09336853 169.4143219 C-120.0902546 157.99978436 -120.08204038 146.58525635 -120.07201904 135.17072302 C-120.06085982 122.1794126 -120.05534794 109.18810173 -120.05032361 96.19678771 C-120.03985782 69.46451985 -120.02225718 42.73226046 -120 16 C-118.24920418 15.67828353 -116.4982344 15.35751366 -114.74719238 15.03713989 C-113.77213997 14.85840899 -112.79708755 14.67967808 -111.7924881 14.49553108 C-108.36108994 13.88662448 -104.92313745 13.38954929 -101.46875 12.9296875 C-100.16421875 12.75566406 -98.8596875 12.58164063 -97.515625 12.40234375 C-96.5265918 12.27255127 -96.5265918 12.27255127 -95.51757812 12.14013672 C-93.4747769 11.87168535 -91.43268935 11.59821356 -89.390625 11.32421875 C-79.39426692 10 -79.39426692 10 -76 10 C-75.67 36.07 -75.34 62.14 -75 89 C-65.1 93.29 -55.2 97.58 -45 102 C-44.34 102.33 -43.68 102.66 -43 103 C-43.00222061 101.78699722 -43.00444122 100.57399445 -43.00672913 99.32423401 C-43.02695872 87.91953396 -43.04197126 76.51483752 -43.05181217 65.11012363 C-43.05704146 59.24617836 -43.06413994 53.38224751 -43.07543945 47.51831055 C-43.0862667 41.86438288 -43.09227649 36.21046913 -43.09487724 30.55653191 C-43.09673179 28.3942639 -43.10035295 26.23199669 -43.10573006 24.06973457 C-43.11293833 21.05241343 -43.11399103 18.03515057 -43.11352539 15.01782227 C-43.11712067 14.1143959 -43.12071594 13.21096954 -43.12442017 12.28016663 C-43.11405216 6.11405216 -43.11405216 6.11405216 -42 5 C-39.24368723 4.55402239 -36.49893762 4.16323126 -33.73046875 3.80859375 C-32.48164665 3.64424583 -32.48164665 3.64424583 -31.20759583 3.47657776 C-29.44164145 3.24512539 -27.67541102 3.01577121 -25.90893555 2.78833008 C-23.20876822 2.44024176 -20.50962725 2.08492348 -17.81054688 1.72851562 C-16.09641056 1.50477583 -14.38221951 1.28145493 -12.66796875 1.05859375 C-11.45683662 0.89924599 -11.45683662 0.89924599 -10.22123718 0.73667908 C-6.77323911 0.29557689 -3.482554 0 0 0 Z " fill="#2C5EFF" transform="translate(724,101)"/>
<path d="M0 0 C0 29.04 0 58.08 0 88 C-5.28 90.31 -10.56 92.62 -16 95 C-11.03589744 98.97948718 -11.03589744 98.97948718 0 103 C0 137.98 0 172.96 0 209 C-14.64800289 207.87323055 -14.64800289 207.87323055 -20.54296875 207.0625 C-22.42918945 206.80339844 -22.42918945 206.80339844 -24.35351562 206.5390625 C-26.25133789 206.27222656 -26.25133789 206.27222656 -28.1875 206 C-30.14913086 205.73316406 -30.14913086 205.73316406 -32.15039062 205.4609375 C-41.74378589 204.12810705 -41.74378589 204.12810705 -44 203 C-44 176.93 -44 150.86 -44 124 C-42.68 123.67 -41.36 123.34 -40 123 C-40.66418945 122.72325439 -41.32837891 122.44650879 -42.01269531 122.16137695 C-53.34179688 117.44091797 -64.67089844 112.72045898 -76 108 C-76.33 137.7 -76.66 167.4 -77 198 C-86.00170178 198 -86.00170178 198 -89.10522461 197.55688477 C-89.80211899 197.4600087 -90.49901337 197.36313263 -91.21702576 197.26332092 C-91.93818069 197.15708908 -92.65933563 197.05085724 -93.40234375 196.94140625 C-94.16551407 196.8327977 -94.92868439 196.72418915 -95.71498108 196.61228943 C-97.31110968 196.38380047 -98.90684856 196.15257343 -100.50219727 195.91870117 C-102.95422454 195.56005377 -105.40760445 195.21206512 -107.86132812 194.86523438 C-109.41675686 194.64125048 -110.97209886 194.41666318 -112.52734375 194.19140625 C-113.63033058 194.03509483 -113.63033058 194.03509483 -114.75559998 193.87562561 C-119.88463881 193.11536119 -119.88463881 193.11536119 -121 192 C-121.09707611 189.73442613 -121.12186621 187.46575698 -121.12025452 185.19810486 C-121.12110894 184.47854522 -121.12196337 183.75898558 -121.12284368 183.0176211 C-121.1245006 180.5884642 -121.11897368 178.15937523 -121.11352539 175.73022461 C-121.11324354 173.99610903 -121.11340121 172.26199332 -121.1139679 170.52787781 C-121.11425595 165.80493679 -121.10835799 161.08202094 -121.10139394 156.3590858 C-121.09516166 151.4289721 -121.0945567 146.49885788 -121.09336853 141.56874084 C-121.09025484 132.22603638 -121.08204095 122.88334356 -121.07201904 113.54064423 C-121.06085907 102.90720945 -121.05534775 92.27377413 -121.05032361 81.64033496 C-121.03985836 59.7602168 -121.02225819 37.88010913 -121 16 C-114.5057173 14.46888891 -108.0632258 13.35953093 -101.45068359 12.48779297 C-100.43648849 12.35095093 -99.4222934 12.21410889 -98.37736511 12.07312012 C-95.05157428 11.62550795 -91.72505369 11.18362056 -88.3984375 10.7421875 C-86.07391594 10.43137299 -83.74942296 10.12034466 -81.42495728 9.80911255 C-76.56522236 9.15937118 -71.70511281 8.51252618 -66.84472656 7.86767578 C-60.62219285 7.04182085 -54.40071826 6.20827024 -48.17951012 5.37249565 C-43.38437976 4.72925091 -38.58868155 4.0903242 -33.79280472 3.45267105 C-31.49854716 3.1470568 -29.20447466 2.84004984 -26.91059494 2.5316124 C-23.70447528 2.10112491 -20.49762867 1.67652136 -17.29052734 1.25341797 C-16.34800613 1.12564972 -15.40548492 0.99788147 -14.43440247 0.86624146 C-13.55430008 0.75133362 -12.67419769 0.63642578 -11.76742554 0.51803589 C-11.01126135 0.41739271 -10.25509716 0.31674953 -9.47601891 0.21305656 C-6.32817988 -0.0578088 -3.15947125 0 0 0 Z M-55.61328125 36.65625 C-56.73774658 36.77806641 -57.86221191 36.89988281 -59.02075195 37.02539062 C-60.43702881 37.18201172 -61.85330566 37.33863281 -63.3125 37.5 C-67.829375 37.995 -72.34625 38.49 -77 39 C-77 50.88 -77 62.76 -77 75 C-69.14958883 78.15490715 -69.14958883 78.15490715 -61.24609375 81.140625 C-60.29025391 81.48867187 -59.33441406 81.83671875 -58.34960938 82.1953125 C-56.90811523 82.71738281 -56.90811523 82.71738281 -55.4375 83.25 C-54.44169922 83.61351562 -53.44589844 83.97703125 -52.41992188 84.3515625 C-51.47568359 84.69445312 -50.53144531 85.03734375 -49.55859375 85.390625 C-48.70579834 85.70032227 -47.85300293 86.01001953 -46.97436523 86.32910156 C-45.18973503 87.05362282 -45.18973503 87.05362282 -44 87 C-44 70.17 -44 53.34 -44 36 C-47.98359268 36 -51.66882818 36.22398117 -55.61328125 36.65625 Z " fill="#2C5EFF" transform="translate(584,120)"/>
<path d="M0 0 C17.23275528 1.14885035 17.23275528 1.14885035 24.74243164 2.18334961 C25.59995529 2.2973259 26.45747894 2.41130219 27.34098816 2.5287323 C30.11469647 2.89857666 32.88741211 3.27534539 35.66015625 3.65234375 C37.62294551 3.91558103 39.58579156 4.17839516 41.5486908 4.44081116 C46.67789781 5.1277407 51.80627717 5.82066666 56.93450928 6.51483154 C61.0971969 7.07731299 65.26043595 7.63564505 69.42371464 8.19373226 C91.68725989 11.17819281 91.68725989 11.17819281 102.71998978 12.68912888 C104.92947386 12.99038402 107.13959816 13.28654293 109.349823 13.58230591 C110.62713287 13.75696381 111.90444275 13.9316217 113.22045898 14.11157227 C114.32300522 14.26046402 115.42555145 14.40935577 116.56150818 14.5627594 C119 15 119 15 120 16 C120.09706134 18.2529102 120.12186638 20.50893179 120.12025452 22.76393127 C120.12110894 23.47940736 120.12196337 24.19488345 120.12284368 24.93204063 C120.12450058 27.34737814 120.11897371 29.76264733 120.11352539 32.17797852 C120.11324354 33.90224201 120.11340121 35.62650562 120.1139679 37.35076904 C120.11425595 42.04685147 120.10835802 46.74290859 120.10139394 51.43898511 C120.09516164 56.34107159 120.0945567 61.24315858 120.09336853 66.14524841 C120.09025485 75.43482896 120.08204096 84.7243978 120.07201904 94.01397318 C120.06085905 104.5869496 120.05534774 115.15992657 120.05032361 125.73290741 C120.03985838 147.48861149 120.02225823 169.24430501 120 191 C115.02052817 191.71922304 110.04007126 192.43103286 105.05859375 193.13623047 C103.36690254 193.37674764 101.6754891 193.6192276 99.984375 193.86376953 C97.54238561 194.21653333 95.09945791 194.56203942 92.65625 194.90625 C91.53700134 195.07030334 91.53700134 195.07030334 90.3951416 195.2376709 C89.31492737 195.38782654 89.31492737 195.38782654 88.21289062 195.54101562 C87.59111938 195.62984009 86.96934814 195.71866455 86.32873535 195.81018066 C82.89662509 196.08993804 79.44349314 196 76 196 C76 171.58 76 147.16 76 122 C77.98 121.67 79.96 121.34 82 121 C81.16863525 120.71801758 80.33727051 120.43603516 79.48071289 120.14550781 C76.35406796 119.08276623 73.2287623 118.01624773 70.10424805 116.94726562 C68.75970243 116.48809759 67.41466132 116.03037753 66.0690918 115.57421875 C64.11891095 114.91279631 62.17065833 114.24593325 60.22265625 113.578125 C58.47094116 112.98112793 58.47094116 112.98112793 56.68383789 112.37207031 C53.81543524 111.30371437 51.05879244 110.16464204 48.26976013 108.91424561 C47.46768851 108.5553764 46.66561689 108.19650719 45.83924007 107.82676315 C44.92881624 107.41751539 44.92881624 107.41751539 44 107 C43.98969254 108.17541855 43.97938507 109.3508371 43.96876526 110.56187439 C43.87121017 121.61344159 43.76849356 132.66495024 43.66066074 143.71642208 C43.60538415 149.3987371 43.55195671 155.08105722 43.50268555 160.76342773 C43.45511169 166.24233709 43.40277169 171.72118168 43.34705925 177.20001411 C43.32660397 179.29527751 43.30789626 181.39055868 43.29092598 183.4858532 C43.26695196 186.40982398 43.23688822 189.33367111 43.20532227 192.25756836 C43.1995668 193.1329425 43.19381134 194.00831665 43.18788147 194.91021729 C43.11405216 200.88594784 43.11405216 200.88594784 42 202 C39.41299305 202.44570798 36.83816622 202.83654367 34.23828125 203.19140625 C33.45486862 203.30097153 32.67145599 203.4105368 31.86430359 203.52342224 C30.20092017 203.75491303 28.537238 203.98426544 26.87329102 204.21166992 C24.33975673 204.55876581 21.80756431 204.9146141 19.27539062 205.27148438 C17.65892774 205.49532359 16.04239334 205.71864714 14.42578125 205.94140625 C13.29575432 206.10075401 13.29575432 206.10075401 12.14289856 206.26332092 C8.0052025 206.82232612 4.20971531 207 0 207 C0 138.69 0 70.38 0 0 Z M43 36 C43 48.21 43 60.42 43 73 C55.43783037 78.57039068 55.43783037 78.57039068 67.9375 84 C68.85402344 84.391875 69.77054688 84.78375 70.71484375 85.1875 C73.06689015 86.16750483 73.06689015 86.16750483 76 86 C76 70.49 76 54.98 76 39 C73.24185408 38.08061803 71.04917781 37.72881828 68.17578125 37.46484375 C67.22896484 37.37783203 66.28214844 37.29082031 65.30664062 37.20117188 C64.31857422 37.11416016 63.33050781 37.02714844 62.3125 36.9375 C61.34376953 36.84662109 60.37503906 36.75574219 59.37695312 36.66210938 C57.94706055 36.53352539 57.94706055 36.53352539 56.48828125 36.40234375 C55.62759033 36.32491943 54.76689941 36.24749512 53.88012695 36.16772461 C50.25912188 35.95685486 46.62713989 36 43 36 Z " fill="#2C5EFF" transform="translate(323,121)"/>
<path d="M0 0 C28.21343812 -1.03115104 51.43709822 7.76237878 73 26 C73.80050781 26.66515625 74.60101563 27.3303125 75.42578125 28.015625 C92.52371496 42.74111815 104.69871197 61.60922796 114 82 C114.38462402 82.84175781 114.76924805 83.68351562 115.16552734 84.55078125 C119.65851153 94.48169552 124.05676122 104.21167436 126 115 C121.64573516 116.26832944 117.49176693 116.0660554 113 116 C110.64183231 111.37177199 108.41223688 106.73558697 106.36328125 101.96337891 C99.61786413 86.29166878 92.01495631 70.8602404 82 57 C82.44988281 57.74378906 82.89976562 58.48757812 83.36328125 59.25390625 C109 102.76953908 109 102.76953908 109 117 C102.17257447 118.42991383 95.34348892 119.64343812 88.4375 120.625 C87.14489258 120.82609375 87.14489258 120.82609375 85.82617188 121.03125 C69.3202284 123.36710915 53.49928164 121.4366222 37.125 119.0625 C35.10821205 118.78090278 33.09128525 118.50029812 31.07421875 118.22070312 C29.15612343 117.95142087 27.23814954 117.68127186 25.3203125 117.41015625 C23.97986374 117.22103416 23.97986374 117.22103416 22.61233521 117.02809143 C21.78651947 116.90804245 20.96070374 116.78799347 20.10986328 116.66430664 C19.02428635 116.50775352 19.02428635 116.50775352 17.91677856 116.34803772 C16 116 16 116 13 115 C14.45241708 106.58455456 16.26316994 98.29393031 18.23242188 89.98632812 C25.84347086 57.26571573 17.11326001 28.03314973 0 0 Z M77 50 C78 52 78 52 78 52 Z M80 54 C81 56 81 56 81 56 Z " fill="#2C5EFF" transform="translate(385,0)"/>
<path d="M0 0 C8.21039391 0.63156876 16.20159764 1.33908273 24.3125 2.5625 C29.1078125 3.2740625 29.1078125 3.2740625 34 4 C34 13.24 34 22.48 34 32 C25 32 25 32 21 31 C21 26.38 21 21.76 21 17 C19.02 17 17.04 17 15 17 C14.34 16.67 13.68 16.34 13 16 C13 35.47 13 54.94 13 75 C15.31 75 17.62 75 20 75 C19.86183041 71.35383329 19.71318466 67.70816926 19.5625 64.0625 C19.52318359 63.02158203 19.48386719 61.98066406 19.44335938 60.90820312 C19.40146484 59.91884766 19.35957031 58.92949219 19.31640625 57.91015625 C19.27974854 56.99371338 19.24309082 56.07727051 19.20532227 55.13305664 C19.22996136 53.0179272 19.22996136 53.0179272 18 52 C17.76321284 49.30764224 17.57801975 46.63501844 17.4375 43.9375 C17.39431641 43.17888672 17.35113281 42.42027344 17.30664062 41.63867188 C17.20026367 39.75934562 17.09960066 37.87969756 17 36 C17.99 36 18.98 36 20 36 C20 36.66 20 37.32 20 38 C20.54398437 38.2475 21.08796875 38.495 21.6484375 38.75 C24.50607412 40.2690095 27.01539815 42.0867609 29.625 44 C31.06746094 45.051875 31.06746094 45.051875 32.5390625 46.125 C35 48 35 48 37 50 C37.14497985 52.58064129 37.18677545 55.04943884 37.125 57.625 C37.11597656 58.33140625 37.10695313 59.0378125 37.09765625 59.765625 C37.07407603 61.51056098 37.03820461 63.25532295 37 65 C36.34 65 35.68 65 35 65 C34.67 73.25 34.34 81.5 34 90 C22.3352099 90.25358239 11.82818894 89.18281889 0 88 C0 58.96 0 29.92 0 0 Z " fill="#2C5EFF" transform="translate(475,330)"/>
<path d="M0 0 C4.29 0.33 8.58 0.66 13 1 C13 30.37 13 59.74 13 90 C8.71 89.34 4.42 88.68 0 88 C0.00112793 86.35483398 0.00225586 84.70966797 0.00341797 83.01464844 C-0.00025026 76.91647764 -0.04301412 70.81910108 -0.09765625 64.72119141 C-0.11583575 62.0809439 -0.12338126 59.44060105 -0.12011719 56.80029297 C-0.11726596 53.00673367 -0.15252495 49.21515985 -0.1953125 45.421875 C-0.18621857 44.23946228 -0.17712463 43.05704956 -0.16775513 41.83880615 C-0.18732269 40.73796692 -0.20689026 39.63712769 -0.22705078 38.50292969 C-0.231492 37.53474304 -0.23593323 36.5665564 -0.24050903 35.56903076 C-0.96922632 32.09512869 -0.96922632 32.09512869 -7 29 C-7.33 48.47 -7.66 67.94 -8 88 C-13 89 -13 89 -21 89 C-21 59.96 -21 30.92 -21 1 C-17.27305473 2.86347264 -15.12216687 4.5645725 -12.125 7.375 C-8.50386679 10.76910292 -5.22223469 13.18517687 -1 16 C-0.67 10.72 -0.34 5.44 0 0 Z " fill="#2C5EFF" transform="translate(458,328)"/>
<path d="M0 0 C0.22338414 5.4257525 0.38619359 10.84880256 0.49438477 16.27807617 C0.53949995 18.12230062 0.60081372 19.96620569 0.67895508 21.80932617 C1.3120836 37.13269171 1.3120836 37.13269171 -1.97314453 41.80810547 C-4.81416243 44.06737216 -7.27641476 46 -11 46 C-11 60.52 -11 75.04 -11 90 C-14.26881973 90.81720493 -16.46999069 91.11073543 -19.75 91.0625 C-20.94882812 91.04896484 -20.94882812 91.04896484 -22.171875 91.03515625 C-22.77515625 91.02355469 -23.3784375 91.01195312 -24 91 C-23.92144775 89.13867432 -23.92144775 89.13867432 -23.84130859 87.23974609 C-23.6598901 82.62231988 -23.54537026 78.00520549 -23.45068359 73.38525391 C-23.40048439 71.38862091 -23.33230428 69.39235397 -23.24560547 67.39697266 C-22.68146582 58.12212154 -22.68146582 58.12212154 -24 49 C-26.48273584 46.7986948 -28.68340888 45.99888348 -31.75146484 44.79833984 C-34.36009592 42.71200146 -34.4137414 42.20869939 -34.82275391 39.02587891 C-35.11205743 33.88350063 -34.87248851 28.76435573 -34.625 23.625 C-34.57481043 21.82173716 -34.52918801 20.01834104 -34.48828125 18.21484375 C-34.37835058 13.80659815 -34.20600758 9.40475891 -34 5 C-29.71 4.34 -25.42 3.68 -21 3 C-20.67 13.23 -20.34 23.46 -20 34 C-19.01 34.33 -18.02 34.66 -17 35 C-14.13454405 32.13454405 -14.68370372 30.03185244 -14.5859375 26.0234375 C-14.56657135 25.33819 -14.5472052 24.6529425 -14.5272522 23.94692993 C-14.46743169 21.75641356 -14.42106244 19.5658447 -14.375 17.375 C-14.33682237 15.89060198 -14.29777076 14.40622616 -14.2578125 12.921875 C-14.16172916 9.28145315 -14.07770718 5.64086564 -14 2 C-12.60582227 1.65980848 -11.20955342 1.32818221 -9.8125 1 C-9.03519531 0.814375 -8.25789063 0.62875 -7.45703125 0.4375 C-4.92009775 -0.01422743 -2.57120097 -0.07307143 0 0 Z " fill="#2C5EFF" transform="translate(433,329)"/>
</svg>
