<?xml version="1.0" encoding="UTF-8"?>
<svg version="1.1" xmlns="http://www.w3.org/2000/svg" width="23" height="73">
<path d="M0 0 C4.01317653 -0.50164707 6.63092746 -0.80519194 10.171875 1.27734375 C15.84262642 5.97809821 18.70251232 11.10753695 21 18 C21.66 18.33 22.32 18.66 23 19 C23 24.61 23 30.22 23 36 C20.36 36 17.72 36 15 36 C14 35 14 35 13.90234375 33.15234375 C13.95117188 30.07617188 13.95117188 30.07617188 14 27 C12.35 26.67 10.7 26.34 9 26 C9 29.3 9 32.6 9 36 C9.639375 36.226875 10.27875 36.45375 10.9375 36.6875 C15.10869904 38.47515673 19.0329612 40.79608956 23 43 C23 51.91 23 60.82 23 70 C20.69 70.495 18.38 70.99 16 71.5 C15.28972656 71.65662109 14.57945313 71.81324219 13.84765625 71.97460938 C13.25855469 72.09642578 12.66945313 72.21824219 12.0625 72.34375 C11.18271484 72.53227539 11.18271484 72.53227539 10.28515625 72.72460938 C6.88017879 73.13495281 3.42961415 73 0 73 C0 65.41 0 57.82 0 50 C4.455 49.505 4.455 49.505 9 49 C9.33 53.29 9.66 57.58 10 62 C11.32 62 12.64 62 14 62 C14.35735177 57.43002061 14.3344974 53.40897412 13 49 C9.36383333 45.78945399 5.42118061 43.92784038 1 42 C0 41 0 41 -0.11352539 38.49975586 C-0.10828857 37.41573486 -0.10305176 36.33171387 -0.09765625 35.21484375 C-0.09443359 34.04501953 -0.09121094 32.87519531 -0.08789062 31.66992188 C-0.07951172 30.43822266 -0.07113281 29.20652344 -0.0625 27.9375 C-0.05798828 26.70193359 -0.05347656 25.46636719 -0.04882812 24.19335938 C-0.03699608 21.12885883 -0.02051173 18.06445279 0 15 C0.99 15 1.98 15 3 15 C2.50669135 7.26767987 2.50669135 7.26767987 0 0 Z " fill="#2C5EFF" transform="translate(0,0)"/>
</svg>
