<?xml version="1.0" encoding="UTF-8"?>
<svg version="1.1" xmlns="http://www.w3.org/2000/svg" width="81" height="75">
<path d="M0 0 C7.92 0 15.84 0 24 0 C24.99 2.97 24.99 2.97 26 6 C28.11875579 7.55422766 28.11875579 7.55422766 30.625 8.375 C31.44226563 8.69210937 32.25953125 9.00921875 33.1015625 9.3359375 C33.72804688 9.55507812 34.35453125 9.77421875 35 10 C36.09475032 23.50192061 36.09475032 23.50192061 33.44140625 27.1328125 C32.15249831 28.1649762 30.8556104 29.18725706 29.55078125 30.19921875 C26.79273998 33.40188129 27.62976221 37.11061601 27.890625 41.12890625 C27.99132912 43.77238942 27.78035337 45.46837186 26.9375 47.9375 C25.88669451 51.37013125 25.77676331 52.65648637 27 56 C28.25176942 58.12471389 29.56178197 60.18643618 30.94140625 62.23046875 C32 64 32 64 32 66 C31.20303711 66.02916504 30.40607422 66.05833008 29.58496094 66.08837891 C25.97135749 66.23740977 22.36143919 66.43067891 18.75 66.625 C16.86861328 66.69267578 16.86861328 66.69267578 14.94921875 66.76171875 C8.72987198 66.83338776 8.72987198 66.83338776 3.3425293 69.39404297 C2.15003658 71.19313047 2.15003658 71.19313047 1 74 C-1.6875 74.875 -1.6875 74.875 -5 75 C-6.30453125 75.09539062 -7.6090625 75.19078125 -8.953125 75.2890625 C-15.16992034 75.28021297 -20.40867422 72.87567695 -26.0625 70.5 C-27.11888672 70.07074219 -28.17527344 69.64148438 -29.26367188 69.19921875 C-31.84848038 68.1465818 -34.42655858 67.08006025 -37 66 C-37 64.33333333 -37 62.66666667 -37 61 C-39.97 60.34 -42.94 59.68 -46 59 C-45.4404596 51.92944399 -44.29565631 45.35427667 -42.5 38.5 C-42.27441406 37.60796875 -42.04882812 36.7159375 -41.81640625 35.796875 C-40.15576475 29.3115295 -40.15576475 29.3115295 -39 27 C-36.36 27.33 -33.72 27.66 -31 28 C-30.59007812 26.93072266 -30.59007812 26.93072266 -30.171875 25.83984375 C-26.34526402 18.02893177 -22.11552515 15.52399893 -14.0625 12.75 C-12.77520996 12.3012854 -12.77520996 12.3012854 -11.46191406 11.84350586 C-5.86694154 10.09681668 -1.74820217 9.854356 4 11 C2.68 7.37 1.36 3.74 0 0 Z " fill="#F8F8F8" transform="translate(46,0)"/>
<path d="M0 0 C0 0.66 0 1.32 0 2 C-1.37989258 2.93142749 -2.76385652 3.85721053 -4.1640625 4.7578125 C-11.77263524 9.90574044 -16.86964693 16.45456052 -22 24 C-21.3915625 23.47792969 -20.783125 22.95585938 -20.15625 22.41796875 C-14.48107488 17.65249082 -8.66822027 13.25739214 -2.5625 9.0625 C-1.87671875 8.59030029 -1.1909375 8.11810059 -0.484375 7.6315918 C7.79911959 2 7.79911959 2 12 2 C11.98839844 2.69867187 11.97679687 3.39734375 11.96484375 4.1171875 C11.95582031 5.02726562 11.94679687 5.93734375 11.9375 6.875 C11.92589844 7.77992187 11.91429687 8.68484375 11.90234375 9.6171875 C11.83750743 12.0168585 11.83750743 12.0168585 13 14 C13.51083563 21.11240375 13.61763724 26.70845698 10 33 C10.15701426 35.61915122 10.15701426 35.61915122 11 38 C11.33902824 39.33189667 11.67329761 40.66502643 12 42 C10.75863281 42.10957031 9.51726563 42.21914063 8.23828125 42.33203125 C6.59629103 42.49153887 4.95436722 42.6517312 3.3125 42.8125 C2.49587891 42.88275391 1.67925781 42.95300781 0.83789062 43.02539062 C-5.00489486 43.61676567 -8.96425604 44.63591024 -12.9375 49.25 C-15 51 -15 51 -17.6875 51 C-21.97853779 49.70459237 -25.96045675 47.93000399 -30 46 C-30 45.01 -30 44.02 -30 43 C-26.40793708 40.60529139 -24.697901 40.80611944 -20.4375 40.75 C-12.74078219 40.2963155 -6.79070115 38.20515114 -1.53515625 32.375 C1.78891673 27.64322352 2.10656326 23.64785263 2 18 C-4.31563117 21.10069747 -9.76103145 24.95023712 -15.2175293 29.34521484 C-22.12646716 34.85132813 -26.91605566 37.65198381 -35.9375 37.25 C-36.71673828 37.23195312 -37.49597656 37.21390625 -38.29882812 37.1953125 C-40.19976131 37.14866383 -42.10005169 37.07693829 -44 37 C-43.54619105 35.10307857 -43.08675008 33.20750405 -42.625 31.3125 C-42.36976562 30.25675781 -42.11453125 29.20101562 -41.8515625 28.11328125 C-41.08094511 25.29593234 -40.14501457 22.68331675 -39 20 C-36.525 21.98 -36.525 21.98 -34 24 C-33.52373169 23.15236084 -33.52373169 23.15236084 -33.0378418 22.28759766 C-31.59497736 19.72923033 -30.14139729 17.17711227 -28.6875 14.625 C-28.18798828 13.73554688 -27.68847656 12.84609375 -27.17382812 11.9296875 C-26.68720703 11.07890625 -26.20058594 10.228125 -25.69921875 9.3515625 C-25.25408936 8.56604004 -24.80895996 7.78051758 -24.3503418 6.97119141 C-19.32765316 -0.3607898 -7.97002115 -0.45785228 0 0 Z " fill="#090909" transform="translate(49,18)"/>
<path d="M0 0 C2.64 0 5.28 0 8 0 C8 2.64 8 5.28 8 8 C6.35 8.33 4.7 8.66 3 9 C2.01 6.03 1.02 3.06 0 0 Z " fill="#1C1C1C" transform="translate(55,5)"/>
<path d="M0 0 C2.475 0.99 2.475 0.99 5 2 C5 6.27709699 4.29379749 7.55930376 2 11 C1.01 10.67 0.02 10.34 -1 10 C-0.67 6.7 -0.34 3.4 0 0 Z " fill="#181818" transform="translate(67,10)"/>
</svg>
