<?xml version="1.0" encoding="UTF-8"?>
<svg version="1.1" xmlns="http://www.w3.org/2000/svg" width="83" height="75">
<path d="M0 0 C0.70125 0.39445313 1.4025 0.78890625 2.125 1.1953125 C4.03892864 2.12391991 4.03892864 2.12391991 6.0625 1.0546875 C7.0215625 0.47074219 7.0215625 0.47074219 8 -0.125 C9.485 -0.62 9.485 -0.62 11 -1.125 C10.97679688 -0.49851563 10.95359375 0.12796875 10.9296875 0.7734375 C10.91164063 1.59070313 10.89359375 2.40796875 10.875 3.25 C10.85179688 4.06210938 10.82859375 4.87421875 10.8046875 5.7109375 C10.78629949 8.08842243 10.78629949 8.08842243 13 9.875 C15.10820797 9.5564823 15.10820797 9.5564823 17 8.875 C17 10.855 17 12.835 17 14.875 C19.39478038 15.0883948 19.39478038 15.0883948 22 12.375 C25 9.875 25 9.875 27 9.875 C26.58221009 15.5847955 24.42453429 18.48457142 21 22.875 C23.31 22.215 25.62 21.555 28 20.875 C27.125 25.625 27.125 25.625 26 27.875 C26.66 27.875 27.32 27.875 28 27.875 C27.42316338 31.76864717 25.45178223 33.88689041 23 36.875 C22.67 37.865 22.34 38.855 22 39.875 C22.61875 40.143125 23.2375 40.41125 23.875 40.6875 C26 41.875 26 41.875 28 44.875 C27.67626953 47.14331055 27.67626953 47.14331055 26.8828125 49.76171875 C26.46708984 51.1684082 26.46708984 51.1684082 26.04296875 52.60351562 C25.74003906 53.57998047 25.43710938 54.55644531 25.125 55.5625 C24.82980469 56.55056641 24.53460938 57.53863281 24.23046875 58.55664062 C23.49867446 60.99988931 22.75481274 63.43878337 22 65.875 C21.03320312 65.88917969 20.06640625 65.90335937 19.0703125 65.91796875 C10.43146586 66.23444135 4.55506894 67.40239919 -3 71.875 C-12.23028115 74.95176038 -25.55038705 74.17951265 -34.22265625 69.9453125 C-35.84428546 68.96877095 -37.42495831 67.92502779 -39 66.875 C-41.60245498 66.73278935 -44.09117684 66.68697068 -46.6875 66.75 C-47.38939453 66.75902344 -48.09128906 66.76804687 -48.81445312 66.77734375 C-50.54311525 66.80086296 -52.27160145 66.83673287 -54 66.875 C-53.01 62.585 -52.02 58.295 -51 53.875 C-52.32 53.545 -53.64 53.215 -55 52.875 C-54.85851011 51.2704444 -54.71164314 49.66636233 -54.5625 48.0625 C-54.48128906 47.16917969 -54.40007813 46.27585938 -54.31640625 45.35546875 C-54 42.875 -54 42.875 -53 39.875 C-52.01 39.875 -51.02 39.875 -50 39.875 C-49.77957031 38.98748047 -49.77957031 38.98748047 -49.5546875 38.08203125 C-47.64549106 31.35595412 -47.64549106 31.35595412 -43.8125 28.5 C-40.78648856 26.21152397 -40.78648856 26.21152397 -40.578125 23.3046875 C-40.55779203 19.49225623 -40.76697921 15.93602132 -41.5859375 12.20703125 C-42 9.875 -42 9.875 -41.0625 7.0625 C-39 4.875 -39 4.875 -37.0859375 4.4921875 C-34.9375 4.4375 -34.9375 4.4375 -31 4.875 C-30.34 5.535 -29.68 6.195 -29 6.875 C-28.236875 6.565625 -27.47375 6.25625 -26.6875 5.9375 C-21.82685159 4.53697419 -17.03141827 4.21520266 -12 3.875 C-11.505 5.36 -11.505 5.36 -11 6.875 C-9.68 6.545 -8.36 6.215 -7 5.875 C-11.977869 2.9725684 -16.2593205 2.2062365 -21.875 1.6875 C-22.65875 1.60564453 -23.4425 1.52378906 -24.25 1.43945312 C-26.16561529 1.24088325 -28.08269042 1.05648253 -30 0.875 C-26.51971888 -6.08556224 -5.81092654 -2.59525592 0 0 Z " fill="#C9342F" transform="translate(55,2.125)"/>
<path d="M0 0 C0.33 0 0.66 0 1 0 C1 1.98 1 3.96 1 6 C2.77174819 5.91276622 4.54247377 5.80458345 6.3125 5.6875 C7.79169922 5.60048828 7.79169922 5.60048828 9.30078125 5.51171875 C12.36802565 4.93022958 12.9039249 4.15303366 15 2 C21.14651489 0.98467871 27.11481098 2.25624029 33 4 C34.70701221 9.89695128 32.95193635 14.41988817 31 20 C32.98 20 34.96 20 37 20 C37.20496094 19.07316406 37.40992188 18.14632812 37.62109375 17.19140625 C37.89050781 15.99386719 38.15992188 14.79632813 38.4375 13.5625 C38.70433594 12.36753906 38.97117188 11.17257813 39.24609375 9.94140625 C40 7 40 7 41 6 C43.01964199 5.92755947 45.04167124 5.91622812 47.0625 5.9375 C48.71958984 5.95103516 48.71958984 5.95103516 50.41015625 5.96484375 C51.26480469 5.97644531 52.11945312 5.98804688 53 6 C52.505 4.515 52.505 4.515 52 3 C53.65 3 55.3 3 57 3 C57 3.33 57 3.66 57 4 C57.67546875 4.06058594 58.3509375 4.12117188 59.046875 4.18359375 C59.93890625 4.26738281 60.8309375 4.35117187 61.75 4.4375 C62.63171875 4.51871094 63.5134375 4.59992187 64.421875 4.68359375 C70.52260097 5.43231921 70.52260097 5.43231921 72.36328125 7.62109375 C73.31078427 11.16115105 72.27557122 13.60177849 71.1875 17.0625 C70.80980469 18.29097656 70.43210937 19.51945312 70.04296875 20.78515625 C69.37003605 22.85940199 68.68958928 24.93123215 68 27 C66.42412109 27.02126953 66.42412109 27.02126953 64.81640625 27.04296875 C54.2812771 27.32979065 54.2812771 27.32979065 44.89453125 31.84375 C39.02385071 35.4266808 30.5790242 34.54643058 24 34 C19.49344736 32.6774929 15.88769912 30.59179941 12 28 C9.61322924 27.70547416 7.21373906 27.5071783 4.8125 27.375 C2.90404297 27.26285156 2.90404297 27.26285156 0.95703125 27.1484375 C-0.01878906 27.09945312 -0.99460937 27.05046875 -2 27 C-1.58846263 22.02906176 -1.20399168 17.55491614 1 13 C-0.65 13 -2.3 13 -4 13 C-3.67 10.36 -3.34 7.72 -3 5 C-2.01 5 -1.02 5 0 5 C0 3.35 0 1.7 0 0 Z " fill="#221B1B" transform="translate(7,39)"/>
<path d="M0 0 C0.4125 1.11375 0.825 2.2275 1.25 3.375 C2.35546516 5.99320695 2.74880787 6.83493089 5.1875 8.4375 C5.785625 8.623125 6.38375 8.80875 7 9 C5.125 13.75 5.125 13.75 4 16 C7.72433382 14.7874262 11.37802806 13.49140021 15 12 C12.43571997 16.17882671 9.98069267 19.12505529 6 22 C8.97 22 11.94 22 15 22 C11.59843301 27.3241918 7.69029074 28.74061985 2 31 C6.29 30.34 10.58 29.68 15 29 C14.01 29.99 13.02 30.98 12 32 C11.26958147 35.61023099 11.26958147 35.61023099 11 39 C9.35 39 7.7 39 6 39 C6.33 37.35 6.66 35.7 7 34 C6.30777344 34.15855469 5.61554688 34.31710938 4.90234375 34.48046875 C-5.7279786 36.38333937 -16.02630309 35.00116099 -26 31 C-26.33 30.34 -26.66 29.68 -27 29 C-24.36 29.33 -21.72 29.66 -19 30 C-19.66 29.34 -20.32 28.68 -21 28 C-20.43079834 28.01047363 -19.86159668 28.02094727 -19.27514648 28.03173828 C-16.6626437 28.07365718 -14.05021201 28.09943888 -11.4375 28.125 C-10.09461914 28.15013672 -10.09461914 28.15013672 -8.72460938 28.17578125 C-7.84482422 28.18222656 -6.96503906 28.18867187 -6.05859375 28.1953125 C-4.85674438 28.21102295 -4.85674438 28.21102295 -3.63061523 28.22705078 C-0.21427665 28.01655784 -0.21427665 28.01655784 6 26 C-4.89 25.505 -4.89 25.505 -16 25 C-16 24.34 -16 23.68 -16 23 C-15.39671875 22.87882812 -14.7934375 22.75765625 -14.171875 22.6328125 C-13.37265625 22.46523438 -12.5734375 22.29765625 -11.75 22.125 C-10.96109375 21.96257813 -10.1721875 21.80015625 -9.359375 21.6328125 C-6.64423465 20.98898418 -6.64423465 20.98898418 -3 19 C-13.395 19.495 -13.395 19.495 -24 20 C-24.33 19.34 -24.66 18.68 -25 18 C-24.32453125 17.92523437 -23.6490625 17.85046875 -22.953125 17.7734375 C-17.76588911 17.1596108 -17.76588911 17.1596108 -13.4453125 14.53125 C-12.22851915 12.72539431 -12.22851915 12.72539431 -11 10 C-15.62 10 -20.24 10 -25 10 C-24.67 11.65 -24.34 13.3 -24 15 C-23.01 15 -22.02 15 -21 15 C-21 14.34 -21 13.68 -21 13 C-21.66 12.67 -22.32 12.34 -23 12 C-23.33 12.66 -23.66 13.32 -24 14 C-24 13.01 -24 12.02 -24 11 C-22.35 11 -20.7 11 -19 11 C-18.957279 12.66611905 -18.95936168 14.33382885 -19 16 C-20 17 -20 17 -22.4375 17.1875 C-25 17 -25 17 -27 15 C-27.25 12.5 -27.25 12.5 -27 10 C-25 8 -25 8 -21 7 C-25.29 6.01 -29.58 5.02 -34 4 C-32.33333333 8.33333333 -32.33333333 8.33333333 -28 10 C-28.66 12.97 -29.32 15.94 -30 19 C-36.24723226 19.82200425 -40.71317837 16.92551394 -46 14 C-45.34 12.68 -44.68 11.36 -44 10 C-43.67 10.33 -43.34 10.66 -43 11 C-41.65252916 11.23075082 -40.29622435 11.41153063 -38.9375 11.5625 C-37.638125 11.706875 -36.33875 11.85125 -35 12 C-37.57784846 9.35247996 -39.91648098 7.05567935 -43 5 C-43.33 5.66 -43.66 6.32 -44 7 C-44.66 6.67 -45.32 6.34 -46 6 C-46 5.01 -46 4.02 -46 3 C-39.375 3.75 -39.375 3.75 -36 6 C-35.67 5.01 -35.34 4.02 -35 3 C-31.32433144 1.38270583 -26.92760325 1.93453995 -23 2 C-23.33 2.99 -23.66 3.98 -24 5 C-15.72509275 4.76755879 -7.18273749 0 0 0 Z " fill="#351A1A" transform="translate(63,6)"/>
<path d="M0 0 C0.70125 0.39445313 1.4025 0.78890625 2.125 1.1953125 C4.03892864 2.12391991 4.03892864 2.12391991 6.0625 1.0546875 C7.0215625 0.47074219 7.0215625 0.47074219 8 -0.125 C9.485 -0.62 9.485 -0.62 11 -1.125 C10.97679688 -0.49851563 10.95359375 0.12796875 10.9296875 0.7734375 C10.91164063 1.59070313 10.89359375 2.40796875 10.875 3.25 C10.85179688 4.06210938 10.82859375 4.87421875 10.8046875 5.7109375 C10.78629949 8.08842243 10.78629949 8.08842243 13 9.875 C15.10820797 9.5564823 15.10820797 9.5564823 17 8.875 C17 10.855 17 12.835 17 14.875 C19.39478038 15.0883948 19.39478038 15.0883948 22 12.375 C25 9.875 25 9.875 27 9.875 C26.58221009 15.5847955 24.42453429 18.48457142 21 22.875 C23.31 22.215 25.62 21.555 28 20.875 C27.125 25.625 27.125 25.625 26 27.875 C26.66 27.875 27.32 27.875 28 27.875 C27.42316338 31.76864717 25.45178223 33.88689041 23 36.875 C22.67 37.865 22.34 38.855 22 39.875 C22.61875 40.143125 23.2375 40.41125 23.875 40.6875 C26 41.875 26 41.875 28 44.875 C27.67626953 47.14331055 27.67626953 47.14331055 26.8828125 49.76171875 C26.46708984 51.1684082 26.46708984 51.1684082 26.04296875 52.60351562 C25.74003906 53.57998047 25.43710938 54.55644531 25.125 55.5625 C24.82980469 56.55056641 24.53460938 57.53863281 24.23046875 58.55664062 C23.49867446 60.99988931 22.75481274 63.43878337 22 65.875 C21.03320312 65.88917969 20.06640625 65.90335937 19.0703125 65.91796875 C10.43146586 66.23444135 4.55506894 67.40239919 -3 71.875 C-12.23028115 74.95176038 -25.55038705 74.17951265 -34.22265625 69.9453125 C-35.84428546 68.96877095 -37.42495831 67.92502779 -39 66.875 C-41.60245498 66.73278935 -44.09117684 66.68697068 -46.6875 66.75 C-47.38939453 66.75902344 -48.09128906 66.76804687 -48.81445312 66.77734375 C-50.54311525 66.80086296 -52.27160145 66.83673287 -54 66.875 C-53.01 62.585 -52.02 58.295 -51 53.875 C-52.32 53.545 -53.64 53.215 -55 52.875 C-54.85851011 51.2704444 -54.71164314 49.66636233 -54.5625 48.0625 C-54.48128906 47.16917969 -54.40007813 46.27585938 -54.31640625 45.35546875 C-54 42.875 -54 42.875 -53 39.875 C-52.01 39.875 -51.02 39.875 -50 39.875 C-49.77957031 38.98748047 -49.77957031 38.98748047 -49.5546875 38.08203125 C-47.49917503 30.84048446 -47.49917503 30.84048446 -43.875 28.375 C-40.68502749 25.60111086 -40.54609797 25.04435282 -40.125 21.0625 C-40.05673969 19.66771423 -40.00608471 18.27144183 -40 16.875 C-39.04207023 20.51352314 -38.50199198 24.14591669 -38 27.875 C-39.093125 28.514375 -40.18625 29.15375 -41.3125 29.8125 C-45.7676103 32.9328809 -46.82394358 36.73395336 -48 41.875 C-48.99 41.875 -49.98 41.875 -51 41.875 C-51.33 44.515 -51.66 47.155 -52 49.875 C-50.35 49.875 -48.7 49.875 -47 49.875 C-47.13277344 50.46667969 -47.26554687 51.05835938 -47.40234375 51.66796875 C-47.57894531 52.45816406 -47.75554688 53.24835937 -47.9375 54.0625 C-48.11152344 54.83980469 -48.28554688 55.61710937 -48.46484375 56.41796875 C-49.00511333 58.89847652 -49.50894372 61.38432716 -50 63.875 C-49.07058594 63.82859375 -48.14117187 63.7821875 -47.18359375 63.734375 C-39.73767633 63.51697595 -35.06778341 63.48553966 -29 67.875 C-21.80337991 71.41737776 -12.47369568 70.96901627 -4.9375 68.5625 C-2.5817324 67.68083648 -0.83125684 66.75421542 1.2265625 65.28125 C4.92529772 63.40583496 8.27222506 63.54668613 12.3125 63.6875 C13.42334961 63.70780273 13.42334961 63.70780273 14.55664062 63.72851562 C16.37141075 63.76364021 18.18580288 63.81744028 20 63.875 C21.42635741 57.55827435 22.75297849 51.22950323 24 44.875 C23.175 44.50375 22.35 44.1325 21.5 43.75 C19 41.875 19 41.875 18.5 38.8125 C18.665 37.843125 18.83 36.87375 19 35.875 C19.99 35.215 20.98 34.555 22 33.875 C21.33613281 34.019375 20.67226562 34.16375 19.98828125 34.3125 C19.10527344 34.498125 18.22226563 34.68375 17.3125 34.875 C16.44238281 35.060625 15.57226562 35.24625 14.67578125 35.4375 C12.06287036 35.86472047 9.64186962 35.95116201 7 35.875 C10.43551299 33.58465801 14.00833198 31.88273438 17.72265625 30.09375 C20.11122506 28.95697469 20.11122506 28.95697469 22 26.875 C19.03 26.875 16.06 26.875 13 26.875 C13.7425 26.153125 14.485 25.43125 15.25 24.6875 C17.69290515 22.18907427 19.8681047 19.63856798 22 16.875 C21.45730469 17.17535156 20.91460937 17.47570312 20.35546875 17.78515625 C19.64003906 18.16542969 18.92460938 18.54570312 18.1875 18.9375 C17.47980469 19.32035156 16.77210937 19.70320313 16.04296875 20.09765625 C14 20.875 14 20.875 11 19.875 C12.32 17.565 13.64 15.255 15 12.875 C14.1028125 12.75125 14.1028125 12.75125 13.1875 12.625 C10.32587525 11.64387152 9.48679185 10.47688573 8 7.875 C8 6.555 8 5.235 8 3.875 C7.44054688 4.2359375 6.88109375 4.596875 6.3046875 4.96875 C-1.15453061 9.28598235 -7.51588652 9.42512263 -16 8.875 C-16 8.215 -16 7.555 -16 6.875 C-18.31 6.545 -20.62 6.215 -23 5.875 C-23 5.545 -23 5.215 -23 4.875 C-19.37 4.545 -15.74 4.215 -12 3.875 C-11.505 5.36 -11.505 5.36 -11 6.875 C-9.68 6.545 -8.36 6.215 -7 5.875 C-11.977869 2.9725684 -16.2593205 2.2062365 -21.875 1.6875 C-22.65875 1.60564453 -23.4425 1.52378906 -24.25 1.43945312 C-26.16561529 1.24088325 -28.08269042 1.05648253 -30 0.875 C-26.51971888 -6.08556224 -5.81092654 -2.59525592 0 0 Z " fill="#CE362F" transform="translate(55,2.125)"/>
<path d="M0 0 C0.33 0 0.66 0 1 0 C1 1.98 1 3.96 1 6 C2.77174819 5.91276622 4.54247377 5.80458345 6.3125 5.6875 C7.79169922 5.60048828 7.79169922 5.60048828 9.30078125 5.51171875 C12.36802565 4.93022958 12.9039249 4.15303366 15 2 C21.14651489 0.98467871 27.11481098 2.25624029 33 4 C34.70701221 9.89695128 32.95193635 14.41988817 31 20 C31.763125 20.0825 32.52625 20.165 33.3125 20.25 C36.52373261 21.14615794 37.29374499 22.21611025 39 25 C36.85423363 25.02685938 34.70837355 25.04633088 32.5625 25.0625 C31.36753906 25.07410156 30.17257813 25.08570312 28.94140625 25.09765625 C26 25 26 25 25 24 C25.09017996 21.80949979 25.24666208 19.621534 25.4375 17.4375 C25.53933594 16.23996094 25.64117187 15.04242188 25.74609375 13.80859375 C25.82988281 12.88175781 25.91367187 11.95492187 26 11 C25.0106909 12.38866323 24.03396922 13.78629851 23.0625 15.1875 C22.24458984 16.35345703 22.24458984 16.35345703 21.41015625 17.54296875 C19.9543711 20.07950299 19.40386565 22.1218182 19 25 C17.02 25 15.04 25 13 25 C13.33 20.71 13.66 16.42 14 12 C12.02 12 10.04 12 8 12 C7.86722656 12.85464844 7.73445312 13.70929687 7.59765625 14.58984375 C7.33275391 16.24693359 7.33275391 16.24693359 7.0625 17.9375 C6.88847656 19.03964844 6.71445313 20.14179687 6.53515625 21.27734375 C6 24 6 24 5 25 C3.00041636 25.04080783 0.99954746 25.04254356 -1 25 C-2.15957207 21.52128379 -1.77456651 20.65780355 -0.5625 17.3125 C-0.27503906 16.50425781 0.01242188 15.69601563 0.30859375 14.86328125 C0.53675781 14.24839844 0.76492187 13.63351563 1 13 C-0.65 13 -2.3 13 -4 13 C-3.67 10.36 -3.34 7.72 -3 5 C-2.01 5 -1.02 5 0 5 C0 3.35 0 1.7 0 0 Z " fill="#40302F" transform="translate(7,39)"/>
<path d="M0 0 C0.66 0.33 1.32 0.66 2 1 C1.06725891 2.12894876 0.12859878 3.25300876 -0.8125 4.375 C-1.33457031 5.00148438 -1.85664062 5.62796875 -2.39453125 6.2734375 C-4 8 -4 8 -7 10 C-4.03 10 -1.06 10 2 10 C-1.40156699 15.3241918 -5.30970926 16.74061985 -11 19 C-6.71 18.34 -2.42 17.68 2 17 C1.01 17.99 0.02 18.98 -1 20 C-1.73041853 23.61023099 -1.73041853 23.61023099 -2 27 C-3.65 27 -5.3 27 -7 27 C-6.67 25.35 -6.34 23.7 -6 22 C-6.69222656 22.15855469 -7.38445312 22.31710938 -8.09765625 22.48046875 C-18.7279786 24.38333937 -29.02630309 23.00116099 -39 19 C-39.33 18.34 -39.66 17.68 -40 17 C-37.36 17.33 -34.72 17.66 -32 18 C-32.66 17.34 -33.32 16.68 -34 16 C-33.43079834 16.01047363 -32.86159668 16.02094727 -32.27514648 16.03173828 C-29.6626437 16.07365718 -27.05021201 16.09943888 -24.4375 16.125 C-23.09461914 16.15013672 -23.09461914 16.15013672 -21.72460938 16.17578125 C-20.84482422 16.18222656 -19.96503906 16.18867187 -19.05859375 16.1953125 C-17.85674438 16.21102295 -17.85674438 16.21102295 -16.63061523 16.22705078 C-13.21427665 16.01655784 -13.21427665 16.01655784 -7 14 C-14.26 13.67 -21.52 13.34 -29 13 C-29 12.34 -29 11.68 -29 11 C-28.43152344 10.90203125 -27.86304688 10.8040625 -27.27734375 10.703125 C-23.20633921 9.91475016 -19.79269581 9.0803868 -16.25 6.875 C-13 5 -13 5 -10.5625 5.0625 C-6.87749556 4.97262184 -4.72576581 3.08185006 -1.76953125 0.99609375 C-1.18558594 0.66738281 -0.60164063 0.33867187 0 0 Z " fill="#261818" transform="translate(76,18)"/>
<path d="M0 0 C0.8971875 0.309375 0.8971875 0.309375 1.8125 0.625 C0.389375 1.553125 0.389375 1.553125 -1.0625 2.5 C-4.13195109 4.44470969 -4.13195109 4.44470969 -6.1875 6.625 C-6.35431109 9.70847826 -6.35431109 9.70847826 -6.1875 12.625 C-5.70539062 12.20347656 -5.22328125 11.78195313 -4.7265625 11.34765625 C-4.09492188 10.79980469 -3.46328125 10.25195312 -2.8125 9.6875 C-2.18601562 9.14222656 -1.55953125 8.59695312 -0.9140625 8.03515625 C2.74298408 5.04829241 6.04647478 5.24179987 10.6328125 5.265625 C15.2219219 5.78429584 19.01920837 7.58286814 23.2421875 9.37890625 C29.5750115 11.58915883 36.16095474 12.05291588 42.8125 12.625 C42.8125 13.285 42.8125 13.945 42.8125 14.625 C36.8725 15.12 36.8725 15.12 30.8125 15.625 C29.4925 19.915 28.1725 24.205 26.8125 28.625 C24.8325 28.625 22.8525 28.625 20.8125 28.625 C20.956875 27.97273438 21.10125 27.32046875 21.25 26.6484375 C22.25877294 21.89879823 23.06965306 17.51090812 22.8125 12.625 C12.61363229 10.77762943 12.61363229 10.77762943 2.8125 12.625 C4.4625 12.955 6.1125 13.285 7.8125 13.625 C7.8125 13.955 7.8125 14.285 7.8125 14.625 C2.2025 14.625 -3.4075 14.625 -9.1875 14.625 C-9.1875 6.625 -9.1875 6.625 -7.375 3.75 C-2.9875 -0.51214286 -2.9875 -0.51214286 0 0 Z " fill="#1C1616" transform="translate(17.1875,30.375)"/>
<path d="M0 0 C6.6 0 13.2 0 20 0 C20 1.98 20 3.96 20 6 C20.66 6 21.32 6 22 6 C22.226875 5.195625 22.45375 4.39125 22.6875 3.5625 C23.120625 2.716875 23.55375 1.87125 24 1 C26.625 0.1875 26.625 0.1875 29 0 C28.00299899 3.71609467 26.74319356 6.52378248 24.4375 9.5625 C22.34306018 12.3345527 21.32135627 14.46508101 21 18 C19.02 18 17.04 18 15 18 C15.33 13.71 15.66 9.42 16 5 C14.02 5 12.04 5 10 5 C9.86722656 5.85464844 9.73445312 6.70929687 9.59765625 7.58984375 C9.33275391 9.24693359 9.33275391 9.24693359 9.0625 10.9375 C8.88847656 12.03964844 8.71445313 13.14179687 8.53515625 14.27734375 C8 17 8 17 7 18 C5.33382885 18.04063832 3.66611905 18.042721 2 18 C2.47939368 13.28596212 2.96834048 9.33420699 5 5 C3.35 5 1.7 5 0 5 C0 3.35 0 1.7 0 0 Z " fill="#E1E1E1" transform="translate(5,46)"/>
<path d="M0 0 C1.08410156 0.00257812 2.16820313 0.00515625 3.28515625 0.0078125 C4.90744141 0.00394531 4.90744141 0.00394531 6.5625 0 C9.34765625 0.1328125 9.34765625 0.1328125 11.34765625 1.1328125 C11.06175774 2.84212062 10.76863867 4.55022162 10.47265625 6.2578125 C10.31023437 7.20914063 10.1478125 8.16046875 9.98046875 9.140625 C9.34765625 12.1328125 9.34765625 12.1328125 7.34765625 18.1328125 C3.05765625 18.1328125 -1.23234375 18.1328125 -5.65234375 18.1328125 C-6.74764928 13.75159039 -6.33152655 11.76359342 -5.27734375 7.4453125 C-5.00148437 6.28644531 -4.725625 5.12757812 -4.44140625 3.93359375 C-3.38089211 0.16929357 -3.38089211 0.16929357 0 0 Z " fill="#EAEBEB" transform="translate(66.65234375,45.8671875)"/>
<path d="M0 0 C2.14576637 -0.02685938 4.29162645 -0.04633088 6.4375 -0.0625 C7.63246094 -0.07410156 8.82742187 -0.08570313 10.05859375 -0.09765625 C13 0 13 0 14 1 C13.83441026 6.82111639 12.52509843 12.40797241 11 18 C7.7 18 4.4 18 1 18 C1 17.34 1 16.68 1 16 C0.01 15.67 -0.98 15.34 -2 15 C-2.19392201 9.47322267 -1.7479503 5.24385089 0 0 Z " fill="#E3E3E3" transform="translate(47,46)"/>
<path d="M0 0 C0.99 0 1.98 0 3 0 C3 0.66 3 1.32 3 2 C10.92 2 18.84 2 27 2 C23.28636194 5.71363806 18.42821883 6.11395609 13.37890625 6.1953125 C11.77331993 6.18220567 10.16778755 6.15863213 8.5625 6.125 C7.73556641 6.11597656 6.90863281 6.10695313 6.05664062 6.09765625 C4.03763292 6.07431512 2.01877644 6.03845288 0 6 C0.99 6.66 1.98 7.32 3 8 C-0.3 7.67 -3.6 7.34 -7 7 C4.23862355 11.10677272 14.17885936 11.45368983 26 11 C26 12.32 26 13.64 26 15 C24.741875 15.020625 23.48375 15.04125 22.1875 15.0625 C21.47980469 15.07410156 20.77210937 15.08570313 20.04296875 15.09765625 C18 15 18 15 15 14 C13.540657 14.03098991 12.0819228 14.09795491 10.625 14.1875 C2.32777504 14.29715496 -5.41774887 11.11138586 -13 8 C-11.68 6.68 -10.36 5.36 -9 4 C-9.33 3.34 -9.66 2.68 -10 2 C-6.7 2 -3.4 2 0 2 C0 1.34 0 0.68 0 0 Z " fill="#A9282D" transform="translate(44,29)"/>
<path d="M0 0 C0.95792977 3.63852314 1.49800802 7.27091669 2 11 C0.906875 11.639375 -0.18625 12.27875 -1.3125 12.9375 C-5.7676103 16.0578809 -6.82394358 19.85895336 -8 25 C-8.99 25 -9.98 25 -11 25 C-11.33 27.64 -11.66 30.28 -12 33 C-10.35 33 -8.7 33 -7 33 C-7.13277344 33.59167969 -7.26554688 34.18335938 -7.40234375 34.79296875 C-7.57894531 35.58316406 -7.75554688 36.37335937 -7.9375 37.1875 C-8.11152344 37.96480469 -8.28554687 38.74210937 -8.46484375 39.54296875 C-9.00511333 42.02347652 -9.50894372 44.50932716 -10 47 C-9.07058594 46.95359375 -8.14117187 46.9071875 -7.18359375 46.859375 C0.42185373 46.63731814 4.73218306 46.78127706 11 51 C16.54327451 53.08325676 22.12361616 54.36126263 28 55 C28 55.33 28 55.66 28 56 C17.61295754 56.53880912 9.75306401 55.83537601 1 50 C-1.60245498 49.85778935 -4.09117684 49.81197068 -6.6875 49.875 C-7.38939453 49.88402344 -8.09128906 49.89304688 -8.81445312 49.90234375 C-10.54311525 49.92586296 -12.27160145 49.96173287 -14 50 C-13.01 45.71 -12.02 41.42 -11 37 C-12.32 36.67 -13.64 36.34 -15 36 C-14.85851011 34.3954444 -14.71164314 32.79136233 -14.5625 31.1875 C-14.48128906 30.29417969 -14.40007813 29.40085937 -14.31640625 28.48046875 C-14 26 -14 26 -13 23 C-12.01 23 -11.02 23 -10 23 C-9.85304688 22.40832031 -9.70609375 21.81664063 -9.5546875 21.20703125 C-7.49917503 13.96548446 -7.49917503 13.96548446 -3.875 11.5 C-0.68502749 8.72611086 -0.54609797 8.16935282 -0.125 4.1875 C-0.05673969 2.79271423 -0.00608471 1.39644183 0 0 Z " fill="#CE362F" transform="translate(15,19)"/>
<path d="M0 0 C1.03447266 0.53947266 1.03447266 0.53947266 2.08984375 1.08984375 C4.38333806 2.2206954 6.54929927 2.64727553 9.0625 3.0625 C8.7325 4.0525 8.4025 5.0425 8.0625 6.0625 C8.0625 5.4025 8.0625 4.7425 8.0625 4.0625 C7.50304688 4.4234375 6.94359375 4.784375 6.3671875 5.15625 C-1.09203061 9.47348235 -7.45338652 9.61262263 -15.9375 9.0625 C-15.9375 8.4025 -15.9375 7.7425 -15.9375 7.0625 C-18.2475 6.7325 -20.5575 6.4025 -22.9375 6.0625 C-22.9375 5.7325 -22.9375 5.4025 -22.9375 5.0625 C-17.4925 4.5675 -17.4925 4.5675 -11.9375 4.0625 C-11.6075 5.0525 -11.2775 6.0425 -10.9375 7.0625 C-9.6175 6.7325 -8.2975 6.4025 -6.9375 6.0625 C-11.915369 3.1600684 -16.1968205 2.3937365 -21.8125 1.875 C-22.59625 1.79314453 -23.38 1.71128906 -24.1875 1.62695312 C-26.10311529 1.42838325 -28.02019042 1.24398253 -29.9375 1.0625 C-26.50443561 -5.80362878 -5.84397237 -2.45127109 0 0 Z " fill="#C3342D" transform="translate(54.9375,1.9375)"/>
<path d="M0 0 C2.1484375 -0.0546875 2.1484375 -0.0546875 6.0859375 0.3828125 C6.7459375 1.0428125 7.4059375 1.7028125 8.0859375 2.3828125 C8.4159375 2.0528125 8.7459375 1.7228125 9.0859375 1.3828125 C10.75210865 1.34217418 12.41981845 1.3400915 14.0859375 1.3828125 C13.4465625 1.6715625 12.8071875 1.9603125 12.1484375 2.2578125 C9.93387671 3.21104701 9.93387671 3.21104701 9.0859375 5.3828125 C5.7859375 4.3928125 2.4859375 3.4028125 -0.9140625 2.3828125 C-0.9140625 3.3728125 -0.9140625 4.3628125 -0.9140625 5.3828125 C-0.2540625 5.0528125 0.4059375 4.7228125 1.0859375 4.3828125 C5.40211916 4.3828125 7.01383409 6.51551598 10.0859375 9.3828125 C10.0859375 10.0428125 10.0859375 10.7028125 10.0859375 11.3828125 C6.75260417 11.3828125 3.41927083 11.3828125 0.0859375 11.3828125 C0.0859375 13.3628125 0.0859375 15.3428125 0.0859375 17.3828125 C1.0346875 17.5065625 1.9834375 17.6303125 2.9609375 17.7578125 C6.0859375 18.3828125 6.0859375 18.3828125 8.0859375 20.3828125 C10.40868927 20.78328694 12.74333107 21.1225229 15.0859375 21.3828125 C12.45416513 24.01458487 10.81413523 23.86206725 7.1484375 24.1953125 C5.55708984 24.35966797 5.55708984 24.35966797 3.93359375 24.52734375 C1.0859375 24.3828125 1.0859375 24.3828125 -0.75390625 23.0390625 C-2.2934863 20.84114351 -2.5440019 19.03491345 -2.9140625 16.3828125 C-3.0790625 15.3928125 -3.2440625 14.4028125 -3.4140625 13.3828125 C-3.5790625 12.3928125 -3.7440625 11.4028125 -3.9140625 10.3828125 C-4.1615625 9.5371875 -4.4090625 8.6915625 -4.6640625 7.8203125 C-4.9140625 5.3828125 -4.9140625 5.3828125 -3.9765625 2.5703125 C-1.9140625 0.3828125 -1.9140625 0.3828125 0 0 Z " fill="#9F2C2A" transform="translate(17.9140625,6.6171875)"/>
<path d="M0 0 C-0.33 0.99 -0.66 1.98 -1 3 C-3.31 2.67 -5.62 2.34 -8 2 C-6.48601545 5.78496138 -5.9855604 6.0072198 -2 8 C-2.66 10.97 -3.32 13.94 -4 17 C-10.24723226 17.82200425 -14.71317837 14.92551394 -20 12 C-19.34 10.68 -18.68 9.36 -18 8 C-17.67 8.33 -17.34 8.66 -17 9 C-15.65252916 9.23075082 -14.29622435 9.41153063 -12.9375 9.5625 C-11.638125 9.706875 -10.33875 9.85125 -9 10 C-11.57784846 7.35247996 -13.91648098 5.05567935 -17 3 C-17.33 3.66 -17.66 4.32 -18 5 C-18.66 4.67 -19.32 4.34 -20 4 C-20 3.01 -20 2.02 -20 1 C-13.375 1.75 -13.375 1.75 -10 4 C-9.67 3.01 -9.34 2.02 -9 1 C-6.03421164 -0.16513114 -3.15436364 -0.08762121 0 0 Z " fill="#8F2827" transform="translate(37,8)"/>
<path d="M0 0 C1.65 0 3.3 0 5 0 C5 0.33 5 0.66 5 1 C5.67546875 1.06058594 6.3509375 1.12117188 7.046875 1.18359375 C7.93890625 1.26738281 8.8309375 1.35117187 9.75 1.4375 C10.63171875 1.51871094 11.5134375 1.59992187 12.421875 1.68359375 C18.52260097 2.43231921 18.52260097 2.43231921 20.36328125 4.62109375 C21.31078427 8.16115105 20.27557122 10.60177849 19.1875 14.0625 C18.80980469 15.29097656 18.43210937 16.51945312 18.04296875 17.78515625 C17.37003605 19.85940199 16.68958928 21.93123215 16 24 C11.05 24 6.1 24 1 24 C3 22 3 22 5.8203125 21.8046875 C6.91085938 21.82789062 8.00140625 21.85109375 9.125 21.875 C10.22070312 21.89304687 11.31640625 21.91109375 12.4453125 21.9296875 C13.28835937 21.95289062 14.13140625 21.97609375 15 22 C15.103125 21.236875 15.20625 20.47375 15.3125 19.6875 C16.24298622 14.69671026 17.6289051 9.88825138 19 5 C14.38 5 9.76 5 5 5 C3.515 11.435 3.515 11.435 2 18 C-0.58037772 12.83924456 0.17694009 10.59680741 1 5 C-2.96 4.67 -6.92 4.34 -11 4 C-11 3.67 -11 3.34 -11 3 C-7.04 3 -3.08 3 1 3 C0.67 2.01 0.34 1.02 0 0 Z " fill="#473D3C" transform="translate(59,42)"/>
<path d="M0 0 C1.65 0 3.3 0 5 0 C4.69128878 1.79232337 4.37790936 3.58384321 4.0625 5.375 C3.88847656 6.37273438 3.71445312 7.37046875 3.53515625 8.3984375 C3 11 3 11 2 13 C2.763125 13.0825 3.52625 13.165 4.3125 13.25 C7.56142336 14.15667629 8.15079631 15.28855764 10 18 C7.85423363 18.02685938 5.70837355 18.04633088 3.5625 18.0625 C2.36753906 18.07410156 1.17257813 18.08570312 -0.05859375 18.09765625 C-3 18 -3 18 -4 17 C-3.95210085 10.74916152 -2.78295634 5.56591268 0 0 Z " fill="#E1E1E1" transform="translate(36,46)"/>
<path d="M0 0 C1.32 0 2.64 0 4 0 C3.00299899 3.71609467 1.74319356 6.52378248 -0.5625 9.5625 C-2.65693982 12.3345527 -3.67864373 14.46508101 -4 18 C-5.98 18 -7.96 18 -10 18 C-9.67 12.72 -9.34 7.44 -9 2 C-10.98 2 -12.96 2 -15 2 C-15 1.67 -15 1.34 -15 1 C-12.36 1 -9.72 1 -7 1 C-6.34 2.98 -5.68 4.96 -5 7 C-4.68546875 6.4946875 -4.3709375 5.989375 -4.046875 5.46875 C-3.40492187 4.49421875 -3.40492187 4.49421875 -2.75 3.5 C-2.33234375 2.8503125 -1.9146875 2.200625 -1.484375 1.53125 C-0.99453125 1.0259375 -0.5046875 0.520625 0 0 Z " fill="#F7F7F7" transform="translate(30,46)"/>
<path d="M0 0 C1.98 0 3.96 0 6 0 C6.02715383 1.74991334 6.04646551 3.49994945 6.0625 5.25 C6.07410156 6.22453125 6.08570312 7.1990625 6.09765625 8.203125 C6 11 6 11 5 15 C0.05 15 -4.9 15 -10 15 C-9.67 14.01 -9.34 13.02 -9 12 C-7.02 12 -5.04 12 -3 12 C-2.01 8.04 -1.02 4.08 0 0 Z " fill="#242020" transform="translate(15,51)"/>
<path d="M0 0 C0 0.33 0 0.66 0 1 C0.79664063 1.17015625 1.59328125 1.3403125 2.4140625 1.515625 C13.57739558 4.06879607 13.57739558 4.06879607 18 8 C18 8.99 18 9.98 18 11 C13.38 11 8.76 11 4 11 C4 10.34 4 9.68 4 9 C1.69 8.67 -0.62 8.34 -3 8 C-3 7.67 -3 7.34 -3 7 C2.445 6.505 2.445 6.505 8 6 C8.33 6.99 8.66 7.98 9 9 C10.32 8.67 11.64 8.34 13 8 C8.022131 5.0975684 3.7406795 4.3312365 -1.875 3.8125 C-2.65875 3.73064453 -3.4425 3.64878906 -4.25 3.56445312 C-6.16561529 3.36588325 -8.08269042 3.18148253 -10 3 C-8.0130571 -0.97388579 -3.91761109 -0.08705802 0 0 Z " fill="#D23730" transform="translate(35,0)"/>
<path d="M0 0 C0.99 0 1.98 0 3 0 C3.33 0.66 3.66 1.32 4 2 C14.81067877 6.64283069 25.48443866 6.44196184 37 6 C37 7.32 37 8.64 37 10 C35.741875 10.020625 34.48375 10.04125 33.1875 10.0625 C32.47980469 10.07410156 31.77210937 10.08570313 31.04296875 10.09765625 C29 10 29 10 26 9 C24.540657 9.03098991 23.0819228 9.09795491 21.625 9.1875 C13.32777504 9.29715496 5.58225113 6.11138586 -2 3 C-1.34 2.01 -0.68 1.02 0 0 Z " fill="#A02A2A" transform="translate(33,34)"/>
<path d="M0 0 C0.28875 0.639375 0.5775 1.27875 0.875 1.9375 C1.82823451 4.15206079 1.82823451 4.15206079 4 5 C4 5.66 4 6.32 4 7 C7.3 7 10.6 7 14 7 C14 7.33 14 7.66 14 8 C11.36 8 8.72 8 6 8 C6 8.66 6 9.32 6 10 C2.27460372 10.86286752 -1.17881325 11.13474793 -5 11.125 C-6.010625 11.12757812 -7.02125 11.13015625 -8.0625 11.1328125 C-10.81714744 11.00826727 -13.31838803 10.62110865 -16 10 C-16 9.34 -16 8.68 -16 8 C-7.585 7.01 -7.585 7.01 1 6 C0.01 4.68 -0.98 3.36 -2 2 C-1.34 2 -0.68 2 0 2 C0 1.34 0 0.68 0 0 Z " fill="#6F3532" transform="translate(44,57)"/>
<path d="M0 0 C1.09570312 0.10183594 2.19140625 0.20367187 3.3203125 0.30859375 C4.16335937 0.39238281 5.00640625 0.47617188 5.875 0.5625 C4.140625 5.34375 4.140625 5.34375 1.75 7.3125 C-1.94334571 8.91830248 -5.11653775 9.22279981 -9.125 9.5625 C-9.125 8.9025 -9.125 8.2425 -9.125 7.5625 C-7.145 7.2325 -5.165 6.9025 -3.125 6.5625 C-2.795 4.9125 -2.465 3.2625 -2.125 1.5625 C-3.775 1.5625 -5.425 1.5625 -7.125 1.5625 C-5.805 2.2225 -4.485 2.8825 -3.125 3.5625 C-3.455 4.5525 -3.785 5.5425 -4.125 6.5625 C-5.445 6.2325 -6.765 5.9025 -8.125 5.5625 C-8.125 3.9125 -8.125 2.2625 -8.125 0.5625 C-5.28943413 -0.85528293 -3.1341294 -0.30007622 0 0 Z " fill="#A72E2A" transform="translate(46.125,15.4375)"/>
<path d="M0 0 C1.32 1.65 2.64 3.3 4 5 C6.11660427 6.31165257 6.11660427 6.31165257 8 7 C6.76075445 9.4784911 5.76129023 9.83577271 3.3125 11.0625 C2.31669922 11.57490234 2.31669922 11.57490234 1.30078125 12.09765625 C-1 13 -1 13 -7 14 C-4.69 9.38 -2.38 4.76 0 0 Z " fill="#B0302B" transform="translate(62,8)"/>
<path d="M0 0 C2.50426747 0.33390233 3.66886983 0.57337148 5.24609375 2.60546875 C6.36710002 6.16597053 5.29362478 8.54435731 4.1875 12.0625 C3.80980469 13.29097656 3.43210937 14.51945312 3.04296875 15.78515625 C2.37003605 17.85940199 1.68958928 19.93123215 1 22 C-3.95 22 -8.9 22 -14 22 C-12 20 -12 20 -9.1796875 19.8046875 C-8.08914062 19.82789062 -6.99859375 19.85109375 -5.875 19.875 C-4.77929688 19.89304687 -3.68359375 19.91109375 -2.5546875 19.9296875 C-1.71164063 19.95289062 -0.86859375 19.97609375 0 20 C0.103125 19.236875 0.20625 18.47375 0.3125 17.6875 C1.24133042 12.70559136 2.62116443 7.87362005 4 3 C3.34 3 2.68 3 2 3 C2 2.34 2 1.68 2 1 C1.34 0.67 0.68 0.34 0 0 Z " fill="#402928" transform="translate(74,44)"/>
<path d="M0 0 C1.4540625 0.0309375 1.4540625 0.0309375 2.9375 0.0625 C1.9475 3.6925 0.9575 7.3225 -0.0625 11.0625 C-2.0425 11.0625 -4.0225 11.0625 -6.0625 11.0625 C-5.75467504 9.41578588 -5.44110766 7.77014424 -5.125 6.125 C-4.95097656 5.20847656 -4.77695313 4.29195312 -4.59765625 3.34765625 C-3.78895462 -0.10555875 -3.68748939 0.07525489 0 0 Z " fill="#C8C8C8" transform="translate(70.0625,48.9375)"/>
<path d="M0 0 C5.28 0.33 10.56 0.66 16 1 C14.02 1.99 14.02 1.99 12 3 C12 3.66 12 4.32 12 5 C4.88929109 6.58015754 0.50071131 5.10382323 -6 2 C-3.13822943 0.56911472 -1.06624227 1.40008303 2 2 C1.34 1.34 0.68 0.68 0 0 Z " fill="#3C1A1B" transform="translate(42,34)"/>
<path d="M0 0 C8.28425289 -0.29586617 14.66958629 0.96827246 22 5 C21.01 5.99 20.02 6.98 19 8 C18.29875 7.66226562 17.5975 7.32453125 16.875 6.9765625 C11.28326785 4.34784059 6.05182031 2.25603818 0 1 C0 0.67 0 0.34 0 0 Z " fill="#3D1C1B" transform="translate(36,1)"/>
<path d="M0 0 C0.33 0.66 0.66 1.32 1 2 C0.33333333 3.33333333 -0.33333333 4.66666667 -1 6 C-0.67 6.66 -0.34 7.32 0 8 C-1.175625 7.9690625 -1.175625 7.9690625 -2.375 7.9375 C-4.98114961 7.81315937 -4.98114961 7.81315937 -7 9 C-9.3494053 8.39239518 -11.68529088 7.72870472 -14 7 C-13.67 6.34 -13.34 5.68 -13 5 C-11.07421875 4.47265625 -11.07421875 4.47265625 -8.6875 4.0625 C-5.10179958 3.34878574 -2.70773508 2.59000746 0 0 Z " fill="#341A1A" transform="translate(68,16)"/>
<path d="M0 0 C0.99 0.33 1.98 0.66 3 1 C2.01 2.98 1.02 4.96 0 7 C0.66 7.33 1.32 7.66 2 8 C0.10614563 8.50744423 -1.79018666 9.00564574 -3.6875 9.5 C-4.74324219 9.7784375 -5.79898438 10.056875 -6.88671875 10.34375 C-9.71142672 10.9391715 -12.12836708 11.12786492 -15 11 C-11.57565365 8.71710243 -8.01650686 7.11617787 -4.27734375 5.4140625 C-1.75685336 3.84902387 -1.03041446 2.7361288 0 0 Z " fill="#B4312B" transform="translate(77,27)"/>
<path d="M0 0 C4.95179662 0.0988838 9.0911966 0.4099035 13.73046875 2.36328125 C13.73046875 2.69328125 13.73046875 3.02328125 13.73046875 3.36328125 C7.46046875 3.36328125 1.19046875 3.36328125 -5.26953125 3.36328125 C-2.26953125 0.36328125 -2.26953125 0.36328125 0 0 Z " fill="#C8352E" transform="translate(24.26953125,40.63671875)"/>
<path d="M0 0 C1.32 0 2.64 0 4 0 C2.68139111 4.61513112 0.78644563 8.09897612 -2 12 C-3.2393919 8.4195345 -2.87401862 5.65498696 -2 2 C-1.34 1.34 -0.68 0.68 0 0 Z " fill="#DBDBDB" transform="translate(30,46)"/>
<path d="M0 0 C0.99 0.66 1.98 1.32 3 2 C2.27554687 2.02578125 1.55109375 2.0515625 0.8046875 2.078125 C-5.41013351 2.44272783 -9.16872769 3.03587913 -14 7 C-14.99 7.495 -14.99 7.495 -16 8 C-15.77069943 4.78979202 -14.93806165 3.94425548 -12.5 1.75 C-8.2244465 -0.38777675 -4.70930792 -0.77142949 0 0 Z " fill="#9D242C" transform="translate(28,34)"/>
<path d="M0 0 C0 1.32 0 2.64 0 4 C-2.64 4 -5.28 4 -8 4 C-8 3.67 -8 3.34 -8 3 C-11.96 2.67 -15.92 2.34 -20 2 C-20 1.67 -20 1.34 -20 1 C-17.60429729 0.8312461 -15.20846637 0.66493164 -12.8125 0.5 C-12.13896484 0.45230469 -11.46542969 0.40460937 -10.77148438 0.35546875 C-7.17363248 0.10976179 -3.60627694 -0.05601984 0 0 Z " fill="#BE332D" transform="translate(70,40)"/>
<path d="M0 0 C1.98 0 3.96 0 6 0 C5.09270329 3.05181621 4.35852361 4.70474527 1.875 6.75 C-1.81834571 8.35580248 -4.99153775 8.66029981 -9 9 C-9 8.34 -9 7.68 -9 7 C-7.576875 6.87625 -7.576875 6.87625 -6.125 6.75 C-2.89538209 6.34925077 -2.89538209 6.34925077 -1.625 3.9375 C-1.41875 3.298125 -1.2125 2.65875 -1 2 C-1 2.99 -1 3.98 -1 5 C0.32 3.68 1.64 2.36 3 1 C2.01 0.67 1.02 0.34 0 0 Z " fill="#9B242B" transform="translate(46,16)"/>
<path d="M0 0 C0 4.38968456 -2.12805101 5.76905739 -5 9 C-5.33 8.01 -5.66 7.02 -6 6 C-8.64 6.33 -11.28 6.66 -14 7 C-14 6.34 -14 5.68 -14 5 C-13.07316406 4.72285156 -12.14632812 4.44570312 -11.19140625 4.16015625 C-9.99386719 3.79792969 -8.79632813 3.43570312 -7.5625 3.0625 C-6.36753906 2.70285156 -5.17257813 2.34320313 -3.94140625 1.97265625 C-1.14132455 1.29110858 -1.14132455 1.29110858 0 0 Z " fill="#952928" transform="translate(60,8)"/>
<path d="M0 0 C0.33 0.99 0.66 1.98 1 3 C-0.65 3 -2.3 3 -4 3 C-4.66 4.32 -5.32 5.64 -6 7 C-6.33 6.34 -6.66 5.68 -7 5 C-6.67 4.34 -6.34 3.68 -6 3 C-8.97 2.67 -11.94 2.34 -15 2 C-15 1.67 -15 1.34 -15 1 C-12.8750734 0.83240016 -10.75005624 0.66594799 -8.625 0.5 C-7.44164062 0.4071875 -6.25828125 0.314375 -5.0390625 0.21875 C-3.36213157 0.09804546 -1.68126944 0 0 0 Z " fill="#4C3938" transform="translate(40,43)"/>
<path d="M0 0 C5.75 0.75 5.75 0.75 8 3 C10.32275177 3.40047444 12.65739357 3.7397104 15 4 C13 6 13 6 10.6171875 6.1953125 C9.71226563 6.17210937 8.80734375 6.14890625 7.875 6.125 C6.50988281 6.09792969 6.50988281 6.09792969 5.1171875 6.0703125 C4.41851562 6.04710937 3.71984375 6.02390625 3 6 C3.66 5.34 4.32 4.68 5 4 C2.525 3.01 2.525 3.01 0 2 C0 1.34 0 0.68 0 0 Z " fill="#3B1A1B" transform="translate(18,24)"/>
<path d="M0 0 C0.3403125 0.928125 0.3403125 0.928125 0.6875 1.875 C2.38454792 4.62260139 4.02514071 4.93210179 7 6 C7.33 6.66 7.66 7.32 8 8 C7.01 8 6.02 8 5 8 C5 8.66 5 9.32 5 10 C3.125 9.75 3.125 9.75 1 9 C-0.87380446 6.50159405 -1.05001932 5.36680834 -0.625 2.25 C-0.41875 1.5075 -0.2125 0.765 0 0 Z " fill="#952B27" transform="translate(16,21)"/>
<path d="M0 0 C3.3 0 6.6 0 10 0 C10 1.65 10 3.3 10 5 C8.35 5.33 6.7 5.66 5 6 C4.67 5.34 4.34 4.68 4 4 C4.99 4 5.98 4 7 4 C7 3.34 7 2.68 7 2 C4.69 1.67 2.38 1.34 0 1 C0 0.67 0 0.34 0 0 Z " fill="#351A1A" transform="translate(22,19)"/>
<path d="M0 0 C6.0546875 -0.1953125 6.0546875 -0.1953125 8 0 C8.66 0.66 9.32 1.32 10 2 C10.33 1.67 10.66 1.34 11 1 C12.66617115 0.95936168 14.33388095 0.957279 16 1 C15.0409375 1.433125 15.0409375 1.433125 14.0625 1.875 C11.84793921 2.82823451 11.84793921 2.82823451 11 5 C7.7 4.01 4.4 3.02 1 2 C1 2.66 1 3.32 1 4 C0.34 3.67 -0.32 3.34 -1 3 C-0.67 2.01 -0.34 1.02 0 0 Z " fill="#C8362F" transform="translate(16,7)"/>
<path d="M0 0 C8.35294118 0.9638009 8.35294118 0.9638009 11 3 C11.33 4.65 11.66 6.3 12 8 C9.03 6.02 6.06 4.04 3 2 C2.67 2.66 2.34 3.32 2 4 C1.34 3.67 0.68 3.34 0 3 C0 2.01 0 1.02 0 0 Z " fill="#421D1D" transform="translate(17,9)"/>
<path d="M0 0 C0.99 0 1.98 0 3 0 C2.67 2.64 2.34 5.28 2 8 C0.68 8 -0.64 8 -2 8 C-1.125 2.25 -1.125 2.25 0 0 Z " fill="#2B2B2B" transform="translate(68,51)"/>
<path d="M0 0 C0.8971875 0.309375 0.8971875 0.309375 1.8125 0.625 C0.389375 1.553125 0.389375 1.553125 -1.0625 2.5 C-4.13195109 4.44470969 -4.13195109 4.44470969 -6.1875 6.625 C-6.58797444 8.94775177 -6.9272104 11.28239357 -7.1875 13.625 C-7.5175 13.625 -7.8475 13.625 -8.1875 13.625 C-8.9375 10.4375 -8.9375 10.4375 -9.1875 6.625 C-7.05909241 3.20434494 -4.4432802 -0.76170518 0 0 Z " fill="#3D1C1B" transform="translate(17.1875,30.375)"/>
<path d="M0 0 C6.93 0 13.86 0 21 0 C18.4345406 2.5654594 16.52313332 2.54046087 13 3 C13 2.34 13 1.68 13 1 C8.71 1 4.42 1 0 1 C0 0.67 0 0.34 0 0 Z " fill="#771F25" transform="translate(50,31)"/>
<path d="M0 0 C0.99 0 1.98 0 3 0 C2.67 2.64 2.34 5.28 2 8 C0.68 8 -0.64 8 -2 8 C-1.125 1.125 -1.125 1.125 0 0 Z " fill="#272727" transform="translate(52,51)"/>
<path d="M0 0 C-0.33 0.99 -0.66 1.98 -1 3 C-3.31 2.67 -5.62 2.34 -8 2 C-7.01 3.98 -6.02 5.96 -5 8 C-6.32 7.67 -7.64 7.34 -9 7 C-9.33 5.35 -9.66 3.7 -10 2 C-6.49223216 0.39644899 -3.85645121 -0.22036864 0 0 Z " fill="#733230" transform="translate(37,8)"/>
<path d="M0 0 C1.08667969 0.29197266 1.08667969 0.29197266 2.1953125 0.58984375 C2.74960937 0.74582031 3.30390625 0.90179688 3.875 1.0625 C3.545 2.0525 3.215 3.0425 2.875 4.0625 C2.875 3.4025 2.875 2.7425 2.875 2.0625 C1.2353125 3.0525 1.2353125 3.0525 -0.4375 4.0625 C-3.06207538 5.64714929 -3.9506378 6.0625 -7.125 6.0625 C-6.125 4.0625 -6.125 4.0625 -3.125 3.0625 C-4.115 2.0725 -5.105 1.0825 -6.125 0.0625 C-3.57797384 -1.21101308 -2.6967055 -0.73941925 0 0 Z " fill="#AD302A" transform="translate(60.125,3.9375)"/>
<path d="M0 0 C0.66 0 1.32 0 2 0 C2 2.64 2 5.28 2 8 C0.35 8 -1.3 8 -3 8 C-2.01 5.36 -1.02 2.72 0 0 Z " fill="#181515" transform="translate(72,37)"/>
<path d="M0 0 C1.98 0 3.96 0 6 0 C6.66 1.32 7.32 2.64 8 4 C5.36 4 2.72 4 0 4 C0 2.68 0 1.36 0 0 Z " fill="#D03630" transform="translate(20,14)"/>
<path d="M0 0 C1.32 0.99 2.64 1.98 4 3 C3.67 3.99 3.34 4.98 3 6 C0.9375 6.6875 0.9375 6.6875 -1 7 C-2 4 -2 4 -1.0625 1.8125 C-0.5365625 0.9153125 -0.5365625 0.9153125 0 0 Z " fill="#251817" transform="translate(63,11)"/>
<path d="M0 0 C3.7758544 0.52442422 6.22372155 1.32654667 9 4 C9 4.99 9 5.98 9 7 C7.35 7 5.7 7 4 7 C4.66 6.34 5.32 5.68 6 5 C4.02 4.01 2.04 3.02 0 2 C0 1.34 0 0.68 0 0 Z " fill="#C2342D" transform="translate(44,4)"/>
<path d="M0 0 C1.65 0 3.3 0 5 0 C3.125 4.75 3.125 4.75 2 7 C1.34 7 0.68 7 0 7 C0 4.69 0 2.38 0 0 Z " fill="#2D2E2E" transform="translate(25,45)"/>
<path d="M0 0 C3.16115776 1.36983503 3.9927092 1.9890638 6 5 C4.35 4.67 2.7 4.34 1 4 C0.67 4.99 0.34 5.98 0 7 C-0.66 7 -1.32 7 -2 7 C-2 5.68 -2 4.36 -2 3 C-1.01 3 -0.02 3 1 3 C0.67 2.01 0.34 1.02 0 0 Z " fill="#B02D2C" transform="translate(19,10)"/>
<path d="M0 0 C0.66 0 1.32 0 2 0 C1.67 1.98 1.34 3.96 1 6 C-0.98 6 -2.96 6 -5 6 C-3.38405168 3.95880212 -1.7143618 1.95927063 0 0 Z " fill="#D53730" transform="translate(80,12)"/>
<path d="M0 0 C1.65 0 3.3 0 5 0 C2.63448058 2.73902249 0.45142779 3.93170092 -3 5 C-5.8125 5.125 -5.8125 5.125 -8 5 C-5.36095629 3.58622659 -2.92879371 2.62759865 0 2 C0 1.34 0 0.68 0 0 Z " fill="#9C252B" transform="translate(56,24)"/>
<path d="M0 0 C3.25696479 0.41755959 4.63443291 0.63443291 7 3 C5.02 3.99 5.02 3.99 3 5 C1.68 3.68 0.36 2.36 -1 1 C-0.67 0.67 -0.34 0.34 0 0 Z " fill="#231717" transform="translate(51,4)"/>
<path d="M0 0 C0.66 0.33 1.32 0.66 2 1 C1.67 2.65 1.34 4.3 1 6 C-0.98 6 -2.96 6 -5 6 C-5 5.34 -5 4.68 -5 4 C-3.68 4 -2.36 4 -1 4 C-0.67 2.68 -0.34 1.36 0 0 Z " fill="#CCCCCC" transform="translate(25,58)"/>
<path d="M0 0 C0.66 0 1.32 0 2 0 C1.01 2.97 0.02 5.94 -1 9 C-1.99 9 -2.98 9 -4 9 C-3.71125 8.443125 -3.4225 7.88625 -3.125 7.3125 C-1.9586747 4.91505355 -0.9660119 2.48403061 0 0 Z " fill="#2E1919" transform="translate(61,6)"/>
<path d="M0 0 C0.99 0.33 1.98 0.66 3 1 C3.33 1.99 3.66 2.98 4 4 C2.02 4.33 0.04 4.66 -2 5 C-1.34 3.35 -0.68 1.7 0 0 Z " fill="#A62F29" transform="translate(68,18)"/>
<path d="M0 0 C0.66 0.99 1.32 1.98 2 3 C1.67 3.99 1.34 4.98 1 6 C-1.64 6.33 -4.28 6.66 -7 7 C-7 6.34 -7 5.68 -7 5 C-5.02 4.67 -3.04 4.34 -1 4 C-0.67 2.68 -0.34 1.36 0 0 Z " fill="#A62C2B" transform="translate(44,18)"/>
<path d="M0 0 C2.97 0.495 2.97 0.495 6 1 C5.34 2.32 4.68 3.64 4 5 C3.34 5 2.68 5 2 5 C1.34 3.35 0.68 1.7 0 0 Z " fill="#D13530" transform="translate(43,16)"/>
</svg>
