<?xml version="1.0" encoding="UTF-8"?>
<svg version="1.1" xmlns="http://www.w3.org/2000/svg" width="62" height="75">
<path d="M0 0 C1.55302205 4.17915906 3.10112402 8.36009803 4.64477539 12.54272461 C5.17013252 13.9641174 5.69680972 15.38502303 6.22485352 16.80541992 C6.98544823 18.85207206 7.74121291 20.90045333 8.49609375 22.94921875 C8.95169678 24.17987061 9.4072998 25.41052246 9.87670898 26.6784668 C10.82458034 29.48129006 11.6229378 32.06900481 12 35 C11.67 35.66 11.34 36.32 11 37 C11.5775 37.20625 12.155 37.4125 12.75 37.625 C15.84477636 39.51625222 17.1918763 41.90035937 19 45 C19 45.66 19 46.32 19 47 C19.66 47 20.32 47 21 47 C21.2475 46.278125 21.495 45.55625 21.75 44.8125 C23.12269592 41.72393418 24.72353296 39.48988582 27 37 C27.66 37 28.32 37 29 37 C28.78811035 36.48646973 28.5762207 35.97293945 28.35791016 35.44384766 C27.84288705 31.9272165 29.06302429 29.14685438 30.2734375 25.8984375 C30.51663727 25.22076324 30.75983704 24.54308899 31.01040649 23.84487915 C31.78859662 21.68447795 32.5816996 19.52989236 33.375 17.375 C33.90199908 15.91701237 34.42805175 14.45868229 34.953125 13 C38.74597113 2.50805775 38.74597113 2.50805775 40 0 C42.75 0.125 42.75 0.125 46 1 C51.4467173 7.77159449 51.8305368 14.66950675 51.26953125 23.06054688 C50.54561694 28.26958243 47.69670788 32.59518214 45 37 C44.35417969 38.12535156 43.70835938 39.25070313 43.04296875 40.41015625 C41.38885282 43.29054142 39.70738838 46.15098507 38 49 C38.474375 49.4125 38.94875 49.825 39.4375 50.25 C42.36044349 53.52369671 42.11815726 57.0200481 42.0625 61.25 C42.05347656 62.14203125 42.04445312 63.0340625 42.03515625 63.953125 C42.02355469 64.62859375 42.01195312 65.3040625 42 66 C41.01 66 40.02 66 39 66 C37.80712589 62.12315913 37 59.08378077 37 55 C34.03 55.495 34.03 55.495 31 56 C30.91363281 56.68449219 30.82726563 57.36898437 30.73828125 58.07421875 C29.81975431 61.71430701 28.13254438 64.64606658 26.1875 67.8125 C25.84396484 68.40998047 25.50042969 69.00746094 25.14648438 69.62304688 C24.10546875 71.33203125 24.10546875 71.33203125 22 74 C20.68 74 19.36 74 18 74 C16.1978922 71.57431516 14.72331064 69.30058679 13.25 66.6875 C12.83878906 65.99720703 12.42757813 65.30691406 12.00390625 64.59570312 C9 59.43117992 9 59.43117992 9 56 C7.35 56 5.7 56 4 56 C3.34 58.97 2.68 61.94 2 65 C0.02 65.495 0.02 65.495 -2 66 C-1.91297874 63.72844502 -1.80480478 61.45769257 -1.6875 59.1875 C-1.62949219 57.92292969 -1.57148438 56.65835938 -1.51171875 55.35546875 C-0.96784023 51.78912032 -0.56110312 51.25102777 2 49 C1.64172119 48.37955811 1.28344238 47.75911621 0.91430664 47.11987305 C-0.70577672 44.31069425 -2.32168165 41.49913398 -3.9375 38.6875 C-4.50146484 37.71103516 -5.06542969 36.73457031 -5.64648438 35.72851562 C-6.18466797 34.79072266 -6.72285156 33.85292969 -7.27734375 32.88671875 C-7.77484131 32.02264404 -8.27233887 31.15856934 -8.78491211 30.26831055 C-11.07186185 25.99906199 -11.19312995 22.47880146 -11.25 17.6875 C-11.27578125 16.39199219 -11.3015625 15.09648437 -11.328125 13.76171875 C-10.88890268 8.72634858 -9.22598185 5.50281646 -6.0625 1.625 C-4 0 -4 0 0 0 Z M8 40 C9 42 9 42 9 42 Z M31 40 C32 42 32 42 32 42 Z M7 42 C8 44 8 44 8 44 Z M32 42 C33 44 33 44 33 44 Z M6 44 C7 46 7 46 7 46 Z M33 44 C34 46 34 46 34 46 Z M12 56 C12 56.33 12 56.66 12 57 C14.31 57 16.62 57 19 57 C19 56.67 19 56.34 19 56 C16.69 56 14.38 56 12 56 Z M22 56 C22 56.33 22 56.66 22 57 C23.98 57 25.96 57 28 57 C28 56.67 28 56.34 28 56 C26.02 56 24.04 56 22 56 Z " fill="#FFFF00" transform="translate(11,0)"/>
<path d="M0 0 C3.43970626 1.14656875 3.8782229 1.84518278 5.75 4.8125 C6.19859375 5.49957031 6.6471875 6.18664062 7.109375 6.89453125 C8.20871216 9.49340286 8.03626185 10.40681791 7 13 C6.19550534 14.44545269 5.33904732 15.86300412 4.4375 17.25 C3.98246094 17.95640625 3.52742188 18.6628125 3.05859375 19.390625 C2.70925781 19.92171875 2.35992187 20.4528125 2 21 C-1.43970626 19.85343125 -1.8782229 19.15481722 -3.75 16.1875 C-4.19859375 15.50042969 -4.6471875 14.81335937 -5.109375 14.10546875 C-6.20871216 11.50659714 -6.03626185 10.59318209 -5 8 C-4.19550534 6.55454731 -3.33904732 5.13699588 -2.4375 3.75 C-1.98246094 3.04359375 -1.52742188 2.3371875 -1.05859375 1.609375 C-0.53458984 0.81273438 -0.53458984 0.81273438 0 0 Z " fill="#FFFF00" transform="translate(30,24)"/>
<path d="M0 0 C1.32 0 2.64 0 4 0 C4.11029884 3.16419809 3.96106413 5.97011889 3 9 C0.65077237 11.35449495 -1.84662327 12.93251449 -5 14 C-5.99 13.67 -6.98 13.34 -8 13 C-6.13103873 8.8882852 -4.22943102 6.12178332 -1 3 C-0.67 2.01 -0.34 1.02 0 0 Z " fill="#FFFF00" transform="translate(57,36)"/>
<path d="M0 0 C1.32 0 2.64 0 4 0 C4.433125 0.928125 4.86625 1.85625 5.3125 2.8125 C6.74726997 5.90043969 6.74726997 5.90043969 8.5625 7.5625 C10.4636497 9.4636497 11.11822728 11.49033918 12 14 C7.94841582 13.35174653 3.95164116 11.88950134 1 9 C0.10685634 5.98823651 -0.04681803 3.13011942 0 0 Z " fill="#FFFF00" transform="translate(1,36)"/>
</svg>
