<?xml version="1.0" encoding="UTF-8"?>
<svg version="1.1" xmlns="http://www.w3.org/2000/svg" width="77" height="75">
<path d="M0 0 C2.475 4.455 2.475 4.455 5 9 C7.165625 8.2884375 7.165625 8.2884375 9.375 7.5625 C10.18710937 7.29566406 10.99921875 7.02882813 11.8359375 6.75390625 C14.01031799 6.04820271 14.01031799 6.04820271 16 5 C17.47668337 4.9047301 18.95775457 4.87014041 20.4375 4.875 C21.61119141 4.87113281 21.61119141 4.87113281 22.80859375 4.8671875 C25 5 25 5 28 6 C28.99 4.02 29.98 2.04 31 0 C39.39607437 -0.95409936 46.68992584 3.26645377 54 7 C53.46587447 11.42375893 52.41163942 14.53231783 50.1484375 18.359375 C49.551521 19.3803125 48.95460449 20.40125 48.33959961 21.453125 C47.3671228 23.08507813 47.3671228 23.08507813 46.375 24.75 C45.35801339 26.48292648 44.34104208 28.21586217 43.32499695 29.94934082 C42.26604843 31.75362043 41.20323461 33.55558464 40.14013672 35.35742188 C38.03088663 38.93915373 35.95039408 42.53694877 33.87890625 46.140625 C33.37991821 47.00853668 33.37991821 47.00853668 32.87084961 47.89398193 C31.89280784 49.59583939 30.91515045 51.29791772 29.9375 53 C28.18067556 56.0558749 26.42136311 59.10997021 24.64794922 62.15625 C23.53022427 64.08502929 22.4281315 66.0229363 21.34033203 67.96875 C20.55505127 69.34546875 20.55505127 69.34546875 19.75390625 70.75 C19.29443604 71.56984375 18.83496582 72.3896875 18.36157227 73.234375 C17.68759399 74.10835937 17.68759399 74.10835937 17 75 C16.01 75 15.02 75 14 75 C12.74145508 73.47119141 12.74145508 73.47119141 11.51953125 71.3515625 C10.85727539 70.21460937 10.85727539 70.21460937 10.18164062 69.0546875 C9.72982422 68.25289063 9.27800781 67.45109375 8.8125 66.625 C8.34908203 65.8309375 7.88566406 65.036875 7.40820312 64.21875 C4 58.29580495 4 58.29580495 4 56 C2.515 56.495 2.515 56.495 1 57 C-7.46376931 57.82211772 -12.09388866 56.80517568 -18.79296875 51.609375 C-20.4587797 50.16084374 -21.77478808 48.83552348 -23 47 C-23.27006991 42.85892801 -21.75356122 40.54112459 -19.5 37.25 C-16.52821325 32.63498998 -15.15553153 28.50877565 -16 23 C-17.58390023 19.68485998 -19.38059572 16.70940987 -21.43359375 13.6640625 C-23 11 -23 11 -23 7 C-20.8967433 6.01888025 -18.79236311 5.04016866 -16.6875 4.0625 C-15.51574219 3.51722656 -14.34398437 2.97195312 -13.13671875 2.41015625 C-8.45403426 0.30498925 -5.11909841 -0.09658676 0 0 Z " fill="#2F2F33" transform="translate(23,0)"/>
<path d="M0 0 C0.7425 0.0825 1.485 0.165 2.25 0.25 C1.25 2.25 1.25 2.25 -1.8125 3.375 C-2.781875 3.66375 -3.75125 3.9525 -4.75 4.25 C-4.75 4.91 -4.75 5.57 -4.75 6.25 C-1.20481116 4.85240095 -1.20481116 4.85240095 2.25 3.25 C2.3325 4.03375 2.415 4.8175 2.5 5.625 C2.97806339 8.39749104 2.97806339 8.39749104 5.3125 9.5625 C5.951875 9.789375 6.59125 10.01625 7.25 10.25 C6.59 9.59 5.93 8.93 5.25 8.25 C5.625 5.625 5.625 5.625 6.25 3.25 C12 3.125 12 3.125 14.25 4.25 C14.25 4.91 14.25 5.57 14.25 6.25 C17.22 7.24 20.19 8.23 23.25 9.25 C21.83161238 13.04736722 20.08326327 16.46154483 18.0546875 19.96875 C17.42457764 21.06074707 16.79446777 22.15274414 16.14526367 23.27783203 C15.47219252 24.43542497 14.79876558 25.5928111 14.125 26.75 C13.78707428 27.33215271 13.44914856 27.91430542 13.10098267 28.51409912 C10.82684443 32.43166682 8.54126879 36.3424194 6.25 40.25 C5.76998535 41.07016602 5.2899707 41.89033203 4.79541016 42.73535156 C3.68609995 44.62148355 2.56629385 46.50048465 1.4375 48.375 C0.85355469 49.34695312 0.26960938 50.31890625 -0.33203125 51.3203125 C-0.79996094 51.95710938 -1.26789062 52.59390625 -1.75 53.25 C-2.41 53.25 -3.07 53.25 -3.75 53.25 C-5.08333333 51.58333333 -6.41666667 49.91666667 -7.75 48.25 C-8.41 48.25 -9.07 48.25 -9.75 48.25 C-11.4375 45.9375 -11.4375 45.9375 -12.75 43.25 C-12.42 42.26 -12.09 41.27 -11.75 40.25 C-10.93015625 40.20101562 -10.1103125 40.15203125 -9.265625 40.1015625 C-8.18796875 40.02679688 -7.1103125 39.95203125 -6 39.875 C-4.39898437 39.77058594 -4.39898437 39.77058594 -2.765625 39.6640625 C0.05206432 39.2771777 1.8330366 38.69313834 4.25 37.25 C4.25 36.26 4.25 35.27 4.25 34.25 C3.87746094 34.72179688 3.50492188 35.19359375 3.12109375 35.6796875 C0.59936774 37.79604211 -1.44703675 37.93439313 -4.6875 38.375 C-8.10132657 38.85725059 -11.42289301 39.33604772 -14.75 40.25 C-12.38707344 37.72411298 -11.08537489 36.36179163 -7.75 35.25 C-5.41700175 35.21045766 -3.08291811 35.20598268 -0.75 35.25 C-1.1109375 34.55132812 -1.471875 33.85265625 -1.84375 33.1328125 C-2.3078125 32.22273438 -2.771875 31.31265625 -3.25 30.375 C-3.7140625 29.47007813 -4.178125 28.56515625 -4.65625 27.6328125 C-5.75 25.25 -5.75 25.25 -5.75 23.25 C-13.8487926 27.41509334 -17.06592389 34.31747868 -20.75 42.25 C-23.39 42.25 -26.03 42.25 -28.75 42.25 C-29.54953138 38.96303767 -29.84658936 37.53976808 -28.75 34.25 C-31.39 34.25 -34.03 34.25 -36.75 34.25 C-35.42848298 29.32434565 -33.93505319 24.3908617 -29.75 21.25 C-25.11391552 20.05545837 -20.52010315 19.56628559 -15.75 19.25 C-15.09 17.6 -14.43 15.95 -13.75 14.25 C-18.10249409 15.8729639 -22.4460081 17.50150329 -26.75 19.25 C-27.08 18.59 -27.41 17.93 -27.75 17.25 C-28.74 17.91 -29.73 18.57 -30.75 19.25 C-28.57426558 12.35015715 -22.73616479 8.62489895 -16.7109375 5.03515625 C-13.88402896 3.68396869 -12.15763568 3.1646809 -9.0625 3.8125 C-7.9178125 4.0290625 -7.9178125 4.0290625 -6.75 4.25 C-2.60760518 0.23705502 -2.60760518 0.23705502 0 0 Z " fill="#F5F6F6" transform="translate(42.75,9.75)"/>
<path d="M0 0 C2.475 4.455 2.475 4.455 5 9 C7.165625 8.2884375 7.165625 8.2884375 9.375 7.5625 C10.18710937 7.29566406 10.99921875 7.02882813 11.8359375 6.75390625 C14.01031799 6.04820271 14.01031799 6.04820271 16 5 C17.47668337 4.9047301 18.95775457 4.87014041 20.4375 4.875 C21.61119141 4.87113281 21.61119141 4.87113281 22.80859375 4.8671875 C25 5 25 5 28 6 C28.99 4.02 29.98 2.04 31 0 C39.39607437 -0.95409936 46.68992584 3.26645377 54 7 C53.46587447 11.42375893 52.41163942 14.53231783 50.1484375 18.359375 C49.551521 19.3803125 48.95460449 20.40125 48.33959961 21.453125 C47.3671228 23.08507813 47.3671228 23.08507813 46.375 24.75 C45.35801339 26.48292648 44.34104208 28.21586217 43.32499695 29.94934082 C42.26604843 31.75362043 41.20323461 33.55558464 40.14013672 35.35742188 C38.03088663 38.93915373 35.95039408 42.53694877 33.87890625 46.140625 C33.37991821 47.00853668 33.37991821 47.00853668 32.87084961 47.89398193 C31.89280784 49.59583939 30.91515045 51.29791772 29.9375 53 C28.18067556 56.0558749 26.42136311 59.10997021 24.64794922 62.15625 C23.53022427 64.08502929 22.4281315 66.0229363 21.34033203 67.96875 C20.55505127 69.34546875 20.55505127 69.34546875 19.75390625 70.75 C19.29443604 71.56984375 18.83496582 72.3896875 18.36157227 73.234375 C17.68759399 74.10835937 17.68759399 74.10835937 17 75 C16.01 75 15.02 75 14 75 C12.74145508 73.47119141 12.74145508 73.47119141 11.51953125 71.3515625 C10.85727539 70.21460937 10.85727539 70.21460937 10.18164062 69.0546875 C9.72982422 68.25289063 9.27800781 67.45109375 8.8125 66.625 C8.34908203 65.8309375 7.88566406 65.036875 7.40820312 64.21875 C4 58.29580495 4 58.29580495 4 56 C2.515 56.495 2.515 56.495 1 57 C-7.46376931 57.82211772 -12.09388866 56.80517568 -18.79296875 51.609375 C-20.4587797 50.16084374 -21.77478808 48.83552348 -23 47 C-23.27006991 42.85892801 -21.75356122 40.54112459 -19.5 37.25 C-16.52821325 32.63498998 -15.15553153 28.50877565 -16 23 C-17.58390023 19.68485998 -19.38059572 16.70940987 -21.43359375 13.6640625 C-23 11 -23 11 -23 7 C-20.8967433 6.01888025 -18.79236311 5.04016866 -16.6875 4.0625 C-15.51574219 3.51722656 -14.34398437 2.97195312 -13.13671875 2.41015625 C-8.45403426 0.30498925 -5.11909841 -0.09658676 0 0 Z M-12.125 4.25 C-13.70667969 4.87648438 -13.70667969 4.87648438 -15.3203125 5.515625 C-18.01669615 6.80941116 -18.01669615 6.80941116 -19.58203125 8.8203125 C-20.26331391 11.1615319 -20.26331391 11.1615319 -18.62890625 13.6640625 C-17.94699219 14.64117187 -17.26507812 15.61828125 -16.5625 16.625 C-13.50274393 21.60768577 -12.07457082 24.75660159 -13.12890625 30.55078125 C-14.4631493 34.30221799 -16.50732783 37.4514593 -18.8203125 40.67578125 C-20.20788512 42.95082528 -20.20788512 42.95082528 -19.92578125 45.58984375 C-18.80003819 48.52057567 -17.63046249 49.48539648 -15.0625 51.25 C-14.35222656 51.75015625 -13.64195313 52.2503125 -12.91015625 52.765625 C-7.19962723 56.45586461 -1.55402904 54.93628986 5 54 C8.3 59.61 11.6 65.22 15 71 C17.59124824 68.40875176 19.03448981 66.48137877 20.828125 63.37109375 C21.64627686 61.96041626 21.64627686 61.96041626 22.48095703 60.52124023 C23.06474121 59.50360596 23.64852539 58.48597168 24.25 57.4375 C25.16241455 55.85980835 25.16241455 55.85980835 26.09326172 54.25024414 C27.72733739 51.42280563 29.35725937 48.59302331 30.98547363 45.76220703 C32.69223583 42.79760361 34.40498469 39.83646334 36.1171875 36.875 C40.81325144 28.75274395 40.81325144 28.75274395 45.48535156 20.61669922 C46.41993301 19.00212089 47.37162791 17.3971459 48.35058594 15.80908203 C49.30509199 14.24749706 50.16511308 12.62867838 51 11 C50.28465723 7.6995657 50.28465723 7.6995657 46.9453125 6.39453125 C45.67659719 5.85592569 44.40287203 5.32900516 43.125 4.8125 C42.48691406 4.53986328 41.84882812 4.26722656 41.19140625 3.98632812 C38.30284243 2.7832624 36.1584173 2 33 2 C31.68 4.31 30.36 6.62 29 9 C26.83125748 8.49396008 25.00032373 8.00016187 23 7 C20 6.75 20 6.75 17 7 C16.34 7.66 15.68 8.32 15 9 C12.1796875 9.6328125 12.1796875 9.6328125 8.875 10.125 C7.77929688 10.29257813 6.68359375 10.46015625 5.5546875 10.6328125 C4.71164063 10.75398437 3.86859375 10.87515625 3 11 C0.525 6.545 0.525 6.545 -2 2 C-6.12820853 2 -8.34748239 2.70929257 -12.125 4.25 Z " fill="#F3F3F4" transform="translate(23,0)"/>
<path d="M0 0 C0.99 1.485 0.99 1.485 2 3 C-7.520516 19.42394448 -17.1933684 35.74545628 -27 52 C-30.16034591 49.02856642 -32.10048025 45.57517395 -34.1875 41.8125 C-34.55552734 41.15830078 -34.92355469 40.50410156 -35.30273438 39.83007812 C-36.2062466 38.22253039 -37.1037241 36.61159349 -38 35 C-38.90621094 35.14179687 -39.81242187 35.28359375 -40.74609375 35.4296875 C-51.93583674 36.77956126 -51.93583674 36.77956126 -57.25 33.1875 C-59.31382591 31.55428438 -61.13866838 29.86133162 -63 28 C-62.54545455 22.54545455 -62.54545455 22.54545455 -60 20 C-59.67 20.99 -59.34 21.98 -59 23 C-59.33 23.66 -59.66 24.32 -60 25 C-57.36 25 -54.72 25 -52 25 C-52 27.31 -52 29.62 -52 32 C-49.36 32 -46.72 32 -44 32 C-43.63648437 31.20335938 -43.27296875 30.40671875 -42.8984375 29.5859375 C-39.95271582 23.37726256 -37.40925439 18.32740351 -32 14 C-31.01 14 -30.02 14 -29 14 C-28.15885829 15.43294498 -27.32734313 16.87154405 -26.5 18.3125 C-26.0359375 19.11300781 -25.571875 19.91351563 -25.09375 20.73828125 C-24 23 -24 23 -24 26 C-24.69867188 26.12117188 -25.39734375 26.24234375 -26.1171875 26.3671875 C-27.02726562 26.53476562 -27.93734375 26.70234375 -28.875 26.875 C-30.23238281 27.11863281 -30.23238281 27.11863281 -31.6171875 27.3671875 C-34.16505988 27.83044703 -34.16505988 27.83044703 -36 30 C-35.175 29.690625 -34.35 29.38125 -33.5 29.0625 C-30.74998032 28.2276726 -28.56100291 27.7821262 -25.75 27.5 C-21.97858349 27.38355023 -21.97858349 27.38355023 -20 25 C-19.35232207 22.42938689 -19.35232207 22.42938689 -19 20 C-18.34 20.33 -17.68 20.66 -17 21 C-17.1875 24.3125 -17.1875 24.3125 -18 28 C-21.66332705 30.8669516 -24.73211379 31.43583043 -29.3125 31.6875 C-30.38113281 31.75324219 -31.44976562 31.81898437 -32.55078125 31.88671875 C-33.35902344 31.92410156 -34.16726562 31.96148437 -35 32 C-34.34 34.31 -33.68 36.62 -33 39 C-31.515 38.505 -31.515 38.505 -30 38 C-27 41.75 -27 41.75 -27 44 C-23.07294716 40.56271565 -20.97312906 36.6621306 -18.5625 32.125 C-14.48726558 24.61369124 -10.23793861 17.22291827 -5.875 9.875 C-5.29435791 8.8967627 -4.71371582 7.91852539 -4.11547852 6.91064453 C-2.74556028 4.60595128 -1.37387914 2.30233357 0 0 Z " fill="#20272F" transform="translate(66,19)"/>
<path d="M0 0 C3.98484488 0.66414081 7.51016972 1.85511824 11.25 3.375 C12.30703125 3.79523437 13.3640625 4.21546875 14.453125 4.6484375 C17 6 17 6 18 9 C16.78515625 11.48046875 16.78515625 11.48046875 15.0625 14.1875 C14.49660156 15.08855469 13.93070313 15.98960938 13.34765625 16.91796875 C12.68056641 17.94857422 12.68056641 17.94857422 12 19 C11.505 18.01 11.505 18.01 11 17 C8.65613191 16.08968728 8.65613191 16.08968728 5.9375 15.375 C5.01839844 15.11460938 4.09929688 14.85421875 3.15234375 14.5859375 C2.44207031 14.39257812 1.73179688 14.19921875 1 14 C1 13.34 1 12.68 1 12 C-1.64 12 -4.28 12 -7 12 C-6.7525 13.1446875 -6.7525 13.1446875 -6.5 14.3125 C-6 17 -6 17 -6 20 C-10.8 16.55384615 -10.8 16.55384615 -11.8125 13.75 C-11.874375 13.1725 -11.93625 12.595 -12 12 C-12.66 12.66 -13.32 13.32 -14 14 C-15.32 14 -16.64 14 -18 14 C-18 13.34 -18 12.68 -18 12 C-16 10.375 -16 10.375 -14 9 C-17.26954202 9.56371414 -18.82575883 10.49962266 -21 13 C-21 12.34 -21 11.68 -21 11 C-23.31 11.66 -25.62 12.32 -28 13 C-28.66 12.01 -29.32 11.02 -30 10 C-29.15695313 9.80664062 -28.31390625 9.61328125 -27.4453125 9.4140625 C-26.34960938 9.15367188 -25.25390625 8.89328125 -24.125 8.625 C-23.03445312 8.36976562 -21.94390625 8.11453125 -20.8203125 7.8515625 C-17.89591545 7.21093785 -17.89591545 7.21093785 -16 5 C-11.94738713 4.65509678 -10.45245824 4.69836118 -7 7 C-6.01 7 -5.02 7 -4 7 C-2.68 4.69 -1.36 2.38 0 0 Z " fill="#37373B" transform="translate(56,2)"/>
<path d="M0 0 C7.06536889 1.25353319 12.71456473 3.56203749 19 7 C18.46587447 11.42375893 17.41163942 14.53231783 15.1484375 18.359375 C14.551521 19.3803125 13.95460449 20.40125 13.33959961 21.453125 C12.69128174 22.54109375 12.04296387 23.6290625 11.375 24.75 C10.35801339 26.48292648 9.34104208 28.21586217 8.32499695 29.94934082 C7.26604843 31.75362043 6.20323461 33.55558464 5.14013672 35.35742188 C3.03088663 38.93915373 0.95039408 42.53694877 -1.12109375 46.140625 C-1.62008179 47.00853668 -1.62008179 47.00853668 -2.12915039 47.89398193 C-3.10719216 49.59583939 -4.08484955 51.29791772 -5.0625 53 C-6.81932444 56.0558749 -8.57863689 59.10997021 -10.35205078 62.15625 C-11.46977573 64.08502929 -12.5718685 66.0229363 -13.65966797 67.96875 C-14.44494873 69.34546875 -14.44494873 69.34546875 -15.24609375 70.75 C-15.70556396 71.56984375 -16.16503418 72.3896875 -16.63842773 73.234375 C-17.31240601 74.10835937 -17.31240601 74.10835937 -18 75 C-18.99 75 -19.98 75 -21 75 C-22.25854492 73.47119141 -22.25854492 73.47119141 -23.48046875 71.3515625 C-24.14272461 70.21460937 -24.14272461 70.21460937 -24.81835938 69.0546875 C-25.27017578 68.25289063 -25.72199219 67.45109375 -26.1875 66.625 C-26.65091797 65.8309375 -27.11433594 65.036875 -27.59179688 64.21875 C-31 58.29580495 -31 58.29580495 -31 56 C-34.465 56.495 -34.465 56.495 -38 57 C-37.67 56.01 -37.34 55.02 -37 54 C-33.535 53.505 -33.535 53.505 -30 53 C-26.7 58.61 -23.4 64.22 -20 70 C-17.07713245 66.34641556 -14.8589741 63.23596224 -12.6015625 59.23046875 C-11.64455444 57.54244141 -11.64455444 57.54244141 -10.66821289 55.8203125 C-9.98706448 54.60941856 -9.30599523 53.39848009 -8.625 52.1875 C-7.20141343 49.66932728 -5.77478654 47.15288448 -4.34765625 44.63671875 C-3.98749924 44.00091888 -3.62734222 43.36511902 -3.25627136 42.71005249 C-0.83102199 38.43716356 1.63315644 34.18909146 4.12890625 29.95703125 C4.77102051 28.86688721 5.41313477 27.77674316 6.07470703 26.65356445 C7.29446526 24.58860809 8.51795963 22.525853 9.74560547 20.46557617 C10.56569092 19.07495972 10.56569092 19.07495972 11.40234375 17.65625 C11.88179443 16.84994141 12.36124512 16.04363281 12.85522461 15.21289062 C13.9355802 13.12452571 14.54611571 11.29731743 15 9 C14.00097656 8.60167969 13.00195312 8.20335937 11.97265625 7.79296875 C10.66903394 7.25838982 9.36566126 6.72320186 8.0625 6.1875 C7.40314453 5.92646484 6.74378906 5.66542969 6.06445312 5.39648438 C4.33971816 4.680056 2.6650588 3.8459075 1 3 C0.505 1.515 0.505 1.515 0 0 Z " fill="#EEEEEF" transform="translate(58,0)"/>
<path d="M0 0 C0.84114171 1.43294498 1.67265687 2.87154405 2.5 4.3125 C2.9640625 5.11300781 3.428125 5.91351563 3.90625 6.73828125 C5 9 5 9 5 12 C3.98679687 12.14695312 3.98679687 12.14695312 2.953125 12.296875 C-3.95967405 13.37079086 -3.95967405 13.37079086 -9 18 C-10.32 17.34 -11.64 16.68 -13 16 C-12.24144139 9.55225181 -7.13155057 0 0 0 Z " fill="#434A50" transform="translate(37,33)"/>
<path d="M0 0 C0.66 1.98 1.32 3.96 2 6 C1.525625 6.391875 1.05125 6.78375 0.5625 7.1875 C-1.20744095 8.9275166 -1.20744095 8.9275166 -1.4375 11.5 C-2 14 -2 14 -3.875 15.875 C-4.57625 16.24625 -5.2775 16.6175 -6 17 C-9.64187858 15.78604047 -9.91745993 14.90993923 -11.6875 11.625 C-12.12449219 10.83351563 -12.56148437 10.04203125 -13.01171875 9.2265625 C-14 7 -14 7 -14 4 C-12.42032193 3.32471777 -10.83608097 2.66010306 -9.25 2 C-8.36828125 1.62875 -7.4865625 1.2575 -6.578125 0.875 C-4 0 -4 0 0 0 Z " fill="#F34D01" transform="translate(20,5)"/>
<path d="M0 0 C5.20540698 0.96396425 9.59913433 1.87680501 14 5 C13.25 7.9375 13.25 7.9375 12 11 C10.1875 12.0625 10.1875 12.0625 8 12 C5.25 10.6875 5.25 10.6875 3 9 C3 8.34 3 7.68 3 7 C1.35 6.67 -0.3 6.34 -2 6 C-1.34 4.02 -0.68 2.04 0 0 Z " fill="#F24D01" transform="translate(57,5)"/>
<path d="M0 0 C0.66 0.99 1.32 1.98 2 3 C-5.97238632 16.68299247 -13.95617566 30.35886011 -22 44 C-22.66 43.67 -23.32 43.34 -24 43 C-22.51927541 39.00842125 -20.63351991 35.42867745 -18.515625 31.73828125 C-18.00850983 30.85223457 -18.00850983 30.85223457 -17.4911499 29.94828796 C-16.77653814 28.70106629 -16.06038238 27.45472813 -15.34277344 26.20922852 C-14.2642953 24.33731237 -13.19030475 22.46288413 -12.1171875 20.58789062 C-8.15584299 13.67820932 -4.13316718 6.80867248 0 0 Z " fill="#32393F" transform="translate(66,19)"/>
<path d="M0 0 C0.66 0.99 1.32 1.98 2 3 C1.67 3.66 1.34 4.32 1 5 C3.64 5 6.28 5 9 5 C9 7.31 9 9.62 9 12 C11.97 12.495 11.97 12.495 15 13 C15.33 13.99 15.66 14.98 16 16 C9.8864423 16.78045417 6.87670033 15.04122881 1.91796875 11.5078125 C-0 10 -0 10 -2 8 C-1.69347955 5.0574037 -1.32728846 2.65457692 0 0 Z " fill="#2B3239" transform="translate(5,39)"/>
<path d="M0 0 C3 0.25 3 0.25 5 2.25 C4.625 5.375 4.625 5.375 4 8.25 C2.68 8.25 1.36 8.25 0 8.25 C-1.67225729 8.55404678 -3.34080104 8.88128912 -5 9.25 C-5 8.59 -5 7.93 -5 7.25 C-3 5.625 -3 5.625 -1 4.25 C-4.26954202 4.81371414 -5.82575883 5.74962266 -8 8.25 C-8 7.59 -8 6.93 -8 6.25 C-10.31 6.91 -12.62 7.57 -15 8.25 C-15.66 7.26 -16.32 6.27 -17 5.25 C-16.15695313 5.05664062 -15.31390625 4.86328125 -14.4453125 4.6640625 C-13.34960938 4.40367188 -12.25390625 4.14328125 -11.125 3.875 C-10.03445312 3.61976562 -8.94390625 3.36453125 -7.8203125 3.1015625 C-4.38315899 2.06375161 -3.63516797 0.30293066 0 0 Z " fill="#3E444B" transform="translate(43,6.75)"/>
<path d="M0 0 C10.55808656 2.89066059 10.55808656 2.89066059 15 6 C13.68139111 10.61513112 11.78644563 14.09897612 9 18 C8.67 17.34 8.34 16.68 8 16 C7.01 15.67 6.02 15.34 5 15 C4.01 14.67 3.02 14.34 2 14 C1.67 13.34 1.34 12.68 1 12 C3.64 12.33 6.28 12.66 9 13 C9.66 11.02 10.32 9.04 11 7 C6.71 5.35 2.42 3.7 -2 2 C-1.34 1.34 -0.68 0.68 0 0 Z " fill="#312726" transform="translate(59,3)"/>
<path d="M0 0 C0.66 0.33 1.32 0.66 2 1 C1.8125 4.3125 1.8125 4.3125 1 8 C-2.79153266 11.01092299 -6.05559034 11.44725204 -10.8125 11.6875 C-11.97394531 11.75324219 -13.13539062 11.81898437 -14.33203125 11.88671875 C-15.21246094 11.92410156 -16.09289062 11.96148437 -17 12 C-17 11.34 -17 10.68 -17 10 C-13.56448591 8.71168222 -10.38601241 7.86492825 -6.75 7.5 C-2.97858349 7.38355023 -2.97858349 7.38355023 -1 5 C-0.35232207 2.42938689 -0.35232207 2.42938689 0 0 Z " fill="#40474D" transform="translate(47,39)"/>
<path d="M0 0 C0.43570313 0.38671875 0.87140625 0.7734375 1.3203125 1.171875 C7.25877955 6.36482021 11.83734448 10.34698756 20 11 C19.67 11.66 19.34 12.32 19 13 C13.29243729 13.46592349 9.53139474 12.41406453 5 9 C2.87731784 7.08304034 0.95353602 5.09647768 -1 3 C-0.67 2.01 -0.34 1.02 0 0 Z " fill="#F8F9F9" transform="translate(1,44)"/>
<path d="M0 0 C-0.875 4.875 -0.875 4.875 -2 6 C-3.63845434 6.26007212 -5.28683704 6.45922323 -6.9375 6.625 C-7.83339844 6.72039063 -8.72929687 6.81578125 -9.65234375 6.9140625 C-12 7 -12 7 -14 6 C-13.67 4.68 -13.34 3.36 -13 2 C-13 2.99 -13 3.98 -13 5 C-12.39671875 4.6390625 -11.7934375 4.278125 -11.171875 3.90625 C-10.37265625 3.4421875 -9.5734375 2.978125 -8.75 2.5 C-7.56664062 1.80390625 -7.56664062 1.80390625 -6.359375 1.09375 C-4 0 -4 0 0 0 Z " fill="#483530" transform="translate(29,24)"/>
<path d="M0 0 C1.8125 2.1875 1.8125 2.1875 3 5 C2.6875 7.8125 2.6875 7.8125 2 10 C1.34 9.67 0.68 9.34 0 9 C-0.625 5.9375 -0.625 5.9375 -1 3 C-1.84304687 3.30035156 -2.68609375 3.60070312 -3.5546875 3.91015625 C-5.19824219 4.48056641 -5.19824219 4.48056641 -6.875 5.0625 C-7.96554688 5.44535156 -9.05609375 5.82820312 -10.1796875 6.22265625 C-13 7 -13 7 -15 6 C-13.61082658 3.22165316 -12.04236447 3.00357014 -9.1875 1.875 C-7.87845703 1.34519531 -7.87845703 1.34519531 -6.54296875 0.8046875 C-4 0 -4 0 0 0 Z " fill="#2B2A2D" transform="translate(21,2)"/>
<path d="M0 0 C0.66 0 1.32 0 2 0 C2.103125 0.639375 2.20625 1.27875 2.3125 1.9375 C2.539375 2.618125 2.76625 3.29875 3 4 C3.99 4.33 4.98 4.66 6 5 C3.03 6.65 0.06 8.3 -3 10 C-4 9 -4 9 -4.0625 6.4375 C-4.041875 5.633125 -4.02125 4.82875 -4 4 C-2.68 3.67 -1.36 3.34 0 3 C0 2.01 0 1.02 0 0 Z " fill="#1A2129" transform="translate(23,9)"/>
<path d="M0 0 C0.33 1.32 0.66 2.64 1 4 C0.34 4 -0.32 4 -1 4 C-1.33 5.32 -1.66 6.64 -2 8 C-2 6.68 -2 5.36 -2 4 C-5.71279784 5.44386582 -6.9486443 7.12236392 -8.75 10.625 C-9.39195313 11.85089844 -9.39195313 11.85089844 -10.046875 13.1015625 C-10.36140625 13.72804688 -10.6759375 14.35453125 -11 15 C-11.6015625 13.18359375 -11.6015625 13.18359375 -12 11 C-9.36879655 6.24359377 -5.85027924 0 0 0 Z " fill="#222A31" transform="translate(37,33)"/>
<path d="M0 0 C0.66 0 1.32 0 2 0 C2 3 2 3 0.5 4.6875 C0.005 5.120625 -0.49 5.55375 -1 6 C0.98 5.67 2.96 5.34 5 5 C5.33 4.01 5.66 3.02 6 2 C6.33 3.32 6.66 4.64 7 6 C5.3767313 6.6708712 3.75132422 7.33657029 2.125 8 C0.76761719 8.556875 0.76761719 8.556875 -0.6171875 9.125 C-3 10 -3 10 -5 10 C-4.49890042 5.61537866 -3.01704885 3.1999003 0 0 Z " fill="#D6D8D9" transform="translate(32,37)"/>
<path d="M0 0 C0.33 0.99 0.66 1.98 1 3 C0.32453125 3.09796875 -0.3509375 3.1959375 -1.046875 3.296875 C-7.95967405 4.37079086 -7.95967405 4.37079086 -13 9 C-14.32 8.34 -15.64 7.68 -17 7 C-16.67 6.01 -16.34 5.02 -16 4 C-14.9790625 3.814375 -14.9790625 3.814375 -13.9375 3.625 C-10.86828895 3.02115036 -10.86828895 3.02115036 -7.4375 1.875 C-4.27237282 1.06933126 -2.95211947 0.81915221 0 2 C0 1.34 0 0.68 0 0 Z " fill="#52585D" transform="translate(41,42)"/>
<path d="M0 0 C0.33 0.99 0.66 1.98 1 3 C1.66 3.33 2.32 3.66 3 4 C2.40703125 4.07089844 1.8140625 4.14179688 1.203125 4.21484375 C-1.81453665 5.290287 -2.58238632 6.87157792 -4.25 9.5625 C-4.77078125 10.38878906 -5.2915625 11.21507812 -5.828125 12.06640625 C-6.21484375 12.70449219 -6.6015625 13.34257813 -7 14 C-8 11 -8 11 -7.109375 8.80859375 C-6.43648438 7.63490234 -6.43648438 7.63490234 -5.75 6.4375 C-5.31171875 5.65246094 -4.8734375 4.86742187 -4.421875 4.05859375 C-3 2 -3 2 0 0 Z " fill="#232A31" transform="translate(14,27)"/>
<path d="M0 0 C1.8871875 0.0309375 1.8871875 0.0309375 3.8125 0.0625 C3.4825 1.3825 3.1525 2.7025 2.8125 4.0625 C2.4825 3.4025 2.1525 2.7425 1.8125 2.0625 C-0.4975 2.7225 -2.8075 3.3825 -5.1875 4.0625 C-5.8475 3.0725 -6.5075 2.0825 -7.1875 1.0625 C-4.43671116 0.14557039 -2.82801087 -0.04636083 0 0 Z " fill="#4A5056" transform="translate(33.1875,10.9375)"/>
<path d="M0 0 C3.3 0.33 6.6 0.66 10 1 C9.34 2.65 8.68 4.3 8 6 C7.67 5.34 7.34 4.68 7 4 C6.01 3.67 5.02 3.34 4 3 C3.01 2.67 2.02 2.34 1 2 C0.67 1.34 0.34 0.68 0 0 Z " fill="#24262B" transform="translate(60,15)"/>
<path d="M0 0 C0 1.65 0 3.3 0 5 C-0.99 5 -1.98 5 -3 5 C-4.67099977 5.31088368 -6.33871537 5.64080332 -8 6 C-8 5.34 -8 4.68 -8 4 C-5.65085023 1.97487089 -3.28689888 0 0 0 Z " fill="#909397" transform="translate(46,10)"/>
<path d="M0 0 C1.32 0 2.64 0 4 0 C5.8125 2.1875 5.8125 2.1875 7 5 C6.6875 7.8125 6.6875 7.8125 6 10 C5.34 9.67 4.68 9.34 4 9 C3.66666667 7 3.33333333 5 3 3 C2.34 2.67 1.68 2.34 1 2 C0.67 1.34 0.34 0.68 0 0 Z " fill="#463937" transform="translate(17,2)"/>
<path d="M0 0 C-0.99 1.485 -0.99 1.485 -2 3 C-5.625 3.6875 -5.625 3.6875 -9 4 C-8 1 -8 1 -5.625 -0.25 C-3 -1 -3 -1 0 0 Z " fill="#EEEEEF" transform="translate(40,7)"/>
<path d="M0 0 C1.0625 1.8125 1.0625 1.8125 2 4 C1 7 1 7 -2 9 C-4.1875 8.625 -4.1875 8.625 -6 8 C-2.25 5 -2.25 5 0 5 C0 3.35 0 1.7 0 0 Z " fill="#412A22" transform="translate(18,14)"/>
<path d="M0 0 C0.66 0.33 1.32 0.66 2 1 C1.74438677 3.3431213 1.40729228 5.67843403 1 8 C0.01 8.495 0.01 8.495 -1 9 C-1.66 8.34 -2.32 7.68 -3 7 C-2.34 6.34 -1.68 5.68 -1 5 C-0.35232207 2.42938689 -0.35232207 2.42938689 0 0 Z " fill="#394047" transform="translate(47,39)"/>
<path d="M0 0 C0.33 0.66 0.66 1.32 1 2 C-0.25 4.5625 -0.25 4.5625 -2 7 C-2.99 7.33 -3.98 7.66 -5 8 C-3.375 2.25 -3.375 2.25 0 0 Z " fill="#F4F5F5" transform="translate(75,11)"/>
<path d="M0 0 C0.99 0 1.98 0 3 0 C1.52307692 4.67692308 1.52307692 4.67692308 -1.125 6.3125 C-2.053125 6.6528125 -2.053125 6.6528125 -3 7 C-1.125 2.25 -1.125 2.25 0 0 Z " fill="#E7E8E9" transform="translate(51,49)"/>
<path d="M0 0 C0.66 0.99 1.32 1.98 2 3 C1.67 3.66 1.34 4.32 1 5 C3.64 5 6.28 5 9 5 C9 5.33 9 5.66 9 6 C6.03 6 3.06 6 0 6 C-1 2 -1 2 0 0 Z " fill="#444A51" transform="translate(5,39)"/>
<path d="M0 0 C0.99 0 1.98 0 3 0 C1.52307692 4.67692308 1.52307692 4.67692308 -1.125 6.3125 C-2.053125 6.6528125 -2.053125 6.6528125 -3 7 C-1.125 2.25 -1.125 2.25 0 0 Z " fill="#E9EAEA" transform="translate(58,37)"/>
<path d="M0 0 C0.66 0 1.32 0 2 0 C0.7508258 3.45925163 -0.67527795 6.14693203 -3 9 C-2.5020163 5.26512223 -2.12508244 3.18762365 0 0 Z " fill="#394047" transform="translate(28,39)"/>
<path d="M0 0 C0.99 0 1.98 0 3 0 C1.52307692 4.67692308 1.52307692 4.67692308 -1.125 6.3125 C-2.053125 6.6528125 -2.053125 6.6528125 -3 7 C-1.125 2.25 -1.125 2.25 0 0 Z " fill="#E7E8E8" transform="translate(69,18)"/>
<path d="M0 0 C1.32 0 2.64 0 4 0 C4 0.66 4 1.32 4 2 C3.34 2 2.68 2 2 2 C1.34 3.32 0.68 4.64 0 6 C-1.125 2.25 -1.125 2.25 0 0 Z " fill="#F2F2F3" transform="translate(54,0)"/>
</svg>
