<?xml version="1.0" encoding="UTF-8"?>
<svg version="1.1" xmlns="http://www.w3.org/2000/svg" width="63" height="75">
<path d="M0 0 C3.05290593 1.57201872 5.24533671 3.87732857 7.59375 6.328125 C8.06683594 6.80636719 8.53992187 7.28460938 9.02734375 7.77734375 C11.91858327 10.73265506 14.56471182 13.80946245 17.09375 17.078125 C22.151889 15.88797465 24.00261788 12.84914413 26.76171875 8.7578125 C27.20128906 8.20351563 27.64085937 7.64921875 28.09375 7.078125 C28.75375 7.078125 29.41375 7.078125 30.09375 7.078125 C32.9727664 15.71517419 30.84795712 24.07090001 27.09375 32.078125 C24.78008472 36.34950705 22.57538365 37.45150804 18.09375 38.890625 C14.8422648 39.78775735 12.52958145 40.078125 9.09375 40.078125 C8.79082031 39.41425781 8.48789062 38.75039063 8.17578125 38.06640625 C5.70175254 32.85191498 3.48921803 28.84566903 -0.90625 25.078125 C-4.75762983 29.87676977 -7.7411584 34.30454741 -9.90625 40.078125 C-22.43058543 38.97949909 -22.43058543 38.97949909 -26.3828125 34.34765625 C-31.44938664 26.68853686 -32.5253875 19.12041222 -31.90625 10.078125 C-31.57625 9.088125 -31.24625 8.098125 -30.90625 7.078125 C-30.24625 7.078125 -29.58625 7.078125 -28.90625 7.078125 C-27.36327862 9.02380738 -26.01641353 11.0688187 -24.63671875 13.1328125 C-22.59221938 15.43114362 -20.80307783 16.14366441 -17.90625 17.078125 C-17.08640625 16.18609375 -16.2665625 15.2940625 -15.421875 14.375 C-14.33337808 13.19266714 -13.24483392 12.01037777 -12.15625 10.828125 C-11.61742188 10.24160156 -11.07859375 9.65507812 -10.5234375 9.05078125 C-9.46901418 7.90634618 -8.40987274 6.76623737 -7.34570312 5.63085938 C-6.1229144 4.31184033 -4.93967429 2.95633275 -3.765625 1.59375 C-1.90625 0.078125 -1.90625 0.078125 0 0 Z " fill="#24A9F5" transform="translate(31.90625,18.921875)"/>
<path d="M0 0 C4.49446991 3.70922731 8.56226255 7.52199354 12.4375 11.875 C13.30246094 12.84179688 14.16742188 13.80859375 15.05859375 14.8046875 C15.69925781 15.52914062 16.33992188 16.25359375 17 17 C21.0274279 15.70082971 22.84360099 14.38142264 25.1875 10.875 C26.66796875 8.6796875 26.66796875 8.6796875 28 7 C28.66 7 29.32 7 30 7 C32.8790164 15.63704919 30.75420712 23.99277501 27 32 C24.68633472 36.27138205 22.48163365 37.37338304 18 38.8125 C14.7485148 39.70963235 12.43583145 40 9 40 C8.68546875 39.33613281 8.3709375 38.67226563 8.046875 37.98828125 C7.61890625 37.10527344 7.1909375 36.22226562 6.75 35.3125 C6.33234375 34.44238281 5.9146875 33.57226562 5.484375 32.67578125 C4.09164788 29.92856324 4.09164788 29.92856324 1.93164062 27.70507812 C-0.3607474 24.49480774 -0.47054443 22.93904084 -0.390625 19.04296875 C-0.37773437 17.93115234 -0.36484375 16.81933594 -0.3515625 15.67382812 C-0.31804688 14.52333984 -0.28453125 13.37285156 -0.25 12.1875 C-0.23195313 11.01767578 -0.21390625 9.84785156 -0.1953125 8.64257812 C-0.1482644 5.7608822 -0.08253709 2.88086203 0 0 Z " fill="#FD263B" transform="translate(32,19)"/>
<path d="M0 0 C0.99 0 1.98 0 3 0 C3.33 1.98 3.66 3.96 4 6 C6.31 6 8.62 6 11 6 C9.25 9.875 9.25 9.875 7 11 C7.33 13.64 7.66 16.28 8 19 C7.4225 18.690625 6.845 18.38125 6.25 18.0625 C3.2353796 16.63452043 3.2353796 16.63452043 0 16 C-1.64594139 17.39588754 -1.64594139 17.39588754 -3 19 C-3.66 19 -4.32 19 -5 19 C-4.67 16.36 -4.34 13.72 -4 11 C-4.66 10.54625 -5.32 10.0925 -6 9.625 C-6.66 9.08875 -7.32 8.5525 -8 8 C-8 7.34 -8 6.68 -8 6 C-5.69 6 -3.38 6 -1 6 C-0.67 4.02 -0.34 2.04 0 0 Z " fill="#FFFFFF" transform="translate(30,0)"/>
<path d="M0 0 C0.928125 0.350625 1.85625 0.70125 2.8125 1.0625 C5.9802953 2.32382628 5.9802953 2.32382628 9 1 C9.061875 1.86625 9.061875 1.86625 9.125 2.75 C10.42853331 6.10194279 13.04092628 7.11122954 16 9 C16 9.66 16 10.32 16 11 C13.69 11 11.38 11 9 11 C9.33 12.32 9.66 13.64 10 15 C9.01 15 8.02 15 7 15 C6.896875 14.360625 6.79375 13.72125 6.6875 13.0625 C6.460625 12.381875 6.23375 11.70125 6 11 C5.01 10.67 4.02 10.34 3 10 C0.78248601 6.30414334 0 4.36991627 0 0 Z " fill="#FFFFFF" transform="translate(10,60)"/>
<path d="M0 0 C-0.56701362 3.96909536 -1.5050762 6.8284867 -4 10 C-6.91796875 10.48828125 -6.91796875 10.48828125 -10.1875 10.3125 C-11.27417969 10.26738281 -12.36085937 10.22226563 -13.48046875 10.17578125 C-14.31191406 10.11777344 -15.14335938 10.05976562 -16 10 C-16 9.01 -16 8.02 -16 7 C-15.38511719 6.66226563 -14.77023438 6.32453125 -14.13671875 5.9765625 C-13.32847656 5.53054687 -12.52023438 5.08453125 -11.6875 4.625 C-10.88699219 4.18414062 -10.08648437 3.74328125 -9.26171875 3.2890625 C-3.49090909 0 -3.49090909 0 0 0 Z " fill="#FFFFFF" transform="translate(52,61)"/>
<path d="M0 0 C0.66 0 1.32 0 2 0 C1.69418124 6.88092215 -1.27114088 12.2830754 -5 18 C-5.66 18.33 -6.32 18.66 -7 19 C-9.97774869 14.71204188 -9.97774869 14.71204188 -10.0625 12 C-8.7064605 9.44745505 -6.75415155 8.04715741 -4.4921875 6.3046875 C-2.44933256 4.51852637 -1.33551435 2.33715011 0 0 Z " fill="#AF1A22" transform="translate(60,26)"/>
<path d="M0 0 C0.66 0 1.32 0 2 0 C3.3671875 1.64453125 3.3671875 1.64453125 4.875 3.8125 C6.97240426 6.8268323 8.96493126 8.91749613 12 11 C11.48967606 14.77639718 10.79233071 16.44722581 8 19 C-0 7.11067194 -0 7.11067194 0 0 Z " fill="#1484C8" transform="translate(1,26)"/>
<path d="M0 0 C1.4540625 0.0309375 1.4540625 0.0309375 2.9375 0.0625 C2.9375 2.3725 2.9375 4.6825 2.9375 7.0625 C0.93795254 7.10504356 -1.06291636 7.10330783 -3.0625 7.0625 C-4.0625 6.0625 -4.0625 6.0625 -4.1875 3.5625 C-4.00295237 -0.12845252 -3.76342282 0.07680455 0 0 Z " fill="#FFFFFF" transform="translate(60.0625,17.9375)"/>
<path d="M0 0 C1.99954746 -0.04254356 4.00041636 -0.04080783 6 0 C7 1 7 1 7.125 3.5 C7 6 7 6 6 7 C4.00041636 7.04080783 1.99954746 7.04254356 0 7 C0 4.69 0 2.38 0 0 Z " fill="#FFFFFF" transform="translate(0,18)"/>
</svg>
