<?xml version="1.0" encoding="UTF-8"?>
<svg version="1.1" xmlns="http://www.w3.org/2000/svg" width="150" height="72">
<path d="M0 0 C40.92 0 81.84 0 124 0 C130.27 16.5 136.54 33 143 50 C145.31 55.94 147.62 61.88 150 68 C150 69.32 150 70.64 150 72 C145.68627132 70.57411654 143.05342489 68.36816842 139.62036133 65.44360352 C130.5181873 58.629444 119.94871825 59.77013434 109.07421875 59.90234375 C106.87318091 59.89668192 104.67215004 59.88705947 102.47114563 59.87367249 C96.71846017 59.84919335 90.96726809 59.87801241 85.21472168 59.91845703 C79.32864494 59.95023512 73.44275165 59.93088552 67.55664062 59.91601562 C56.0373763 59.89436094 44.51904078 59.92908899 33 60 C30.03785637 53.63080253 27.23364477 47.26937251 24.84375 40.6640625 C24.2909445 39.17296196 23.7375422 37.68208256 23.18359375 36.19140625 C22.33504644 33.89623616 21.49085342 31.59977407 20.65673828 29.29931641 C19.83561678 27.04111301 18.99735205 24.78988702 18.15625 22.5390625 C17.91338257 21.85566803 17.67051514 21.17227356 17.42028809 20.46817017 C14.47380341 12.67357144 8.41985436 8.66216617 2.01171875 3.76953125 C1.34785156 3.18558594 0.68398437 2.60164062 0 2 C0 1.34 0 0.68 0 0 Z M32 14 C33.051875 17.073125 34.10375 20.14625 35.1875 23.3125 C35.5074292 24.25649658 35.8273584 25.20049316 36.15698242 26.1730957 C38.42244091 32.71424607 41.10320608 38.62705337 44 45 C71.06 45 98.12 45 126 45 C121.16457973 29.22070016 121.16457973 29.22070016 115 14 C104.11 14 93.22 14 82 14 C82.94875 16.536875 83.8975 19.07375 84.875 21.6875 C85.17003418 22.47729248 85.46506836 23.26708496 85.76904297 24.08081055 C87.13863611 27.73783693 88.52988591 31.38180659 90 35 C87.22337091 33.67799703 84.7277283 32.20382342 82.21484375 30.43359375 C81.51939453 29.94826172 80.82394531 29.46292969 80.10742188 28.96289062 C78.65635495 27.94283368 77.20583705 26.92199531 75.75585938 25.90039062 C75.06169922 25.41634766 74.36753906 24.93230469 73.65234375 24.43359375 C72.70862915 23.76928345 72.70862915 23.76928345 71.74584961 23.09155273 C69.87866768 21.8291118 69.87866768 21.8291118 67 21 C66.34 18.69 65.68 16.38 65 14 C54.11 14 43.22 14 32 14 Z " fill="#FFFFFF" transform="translate(0,0)"/>
</svg>
