<?xml version="1.0" encoding="UTF-8"?>
<svg version="1.1" xmlns="http://www.w3.org/2000/svg" width="900" height="620">
<path d="M0 0 C6.65357676 0.52605024 12.36732098 1.86141645 18.6484375 4.0703125 C19.56093765 4.38288498 20.47343781 4.69545746 21.41358948 5.01750183 C24.40388703 6.04440672 27.38937775 7.08458866 30.375 8.125 C32.49265709 8.85517353 34.61058156 9.58457201 36.72875977 10.31323242 C43.15730411 12.52843038 49.57959313 14.76133998 56 17 C56.93032043 17.32434021 57.86064087 17.64868042 58.81915283 17.98284912 C65.72449824 20.39136203 72.62889687 22.80260775 79.53070068 25.22125244 C95.31822793 30.75343927 111.15282541 36.14133745 127 41.5 C145.71226232 47.82770048 164.40683661 54.19914455 183.03173828 60.78027344 C191.3127527 63.70163185 199.60568084 66.54086922 207.97265625 69.20703125 C210.35430016 69.9783461 212.7351832 70.75196281 215.11581421 71.52639771 C217.27252346 72.21717744 219.43736795 72.87462616 221.60473633 73.53100586 C231.6999002 76.73642661 238.30537278 81.83599017 246 89 C247.27655739 90.0498955 248.56508165 91.08578509 249.875 92.09375 C256.2833068 97.02814624 262.55379251 102.06805214 268.65039062 107.38476562 C271.61298079 109.94110151 274.58191509 112.09339851 278 114 C277.39156414 117.34658215 276.57692725 120.45705485 275.42578125 123.65625 C275.09610352 124.5747876 274.76642578 125.4933252 274.42675781 126.43969727 C274.05905273 127.44959717 273.69134766 128.45949707 273.3125 129.5 C272.91514648 130.59691162 272.51779297 131.69382324 272.10839844 132.82397461 C268.16348916 143.65458436 264.07896285 154.43169296 259.98608398 165.20703125 C254.57475241 179.45606108 249.22100004 193.72634548 243.875 208 C236.94112153 226.50928504 229.98504744 245.00996532 223 263.5 C216.16466429 281.59563508 209.35187766 299.69956997 202.5625 317.8125 C201.91214783 319.54749252 201.91214783 319.54749252 201.24865723 321.3175354 C198.16497402 329.54472485 195.08237921 337.77232193 192 346 C171.66967932 400.26649501 171.66967932 400.26649501 161.6875 426.6875 C161.18180481 428.02619644 161.18180481 428.02619644 160.66589355 429.39193726 C155.80005144 442.2699928 150.90518114 455.13688325 146 468 C162.16547143 464.82075844 178.28287944 461.47031053 194.37109375 457.921875 C196.57637514 457.43735179 198.78170401 456.95304463 200.98707581 456.46893311 C205.68479692 455.4372623 210.38220026 454.40416166 215.0793457 453.36987305 C222.61292894 451.71103258 230.14723281 450.05548128 237.68164062 448.40039062 C240.28195574 447.82911902 242.88226855 447.25783692 245.48257446 446.68652344 C246.13072888 446.54411759 246.7788833 446.40171175 247.44667876 446.25499058 C252.07915572 445.23713179 256.71152571 444.21878711 261.34384155 443.20019531 C278.84395926 439.35215526 296.34519784 435.50925733 313.84765625 431.671875 C315.01329165 431.41630829 316.17892704 431.16074158 317.37988472 430.89743042 C323.24309444 429.61194881 329.10632812 428.32657652 334.96957397 427.04125977 C345.60248545 424.71031174 356.23520886 422.37850616 366.86793709 420.04672241 C370.42688281 419.26624007 373.98583332 418.48577955 377.54478455 417.70532227 C393.19191834 414.27395735 408.8388856 410.84183368 424.48578644 407.40940666 C435.36548868 405.02277544 446.24523317 402.63633678 457.125 400.25 C458.90448029 399.85969164 458.90448029 399.85969164 460.71990967 399.46149826 C495.80982331 391.76506664 530.90235166 384.0806729 565.99728012 376.40714264 C595.46244077 369.96454312 624.92471147 363.50896063 654.38378906 357.03860474 C681.8324173 351.00986215 709.28363786 344.99301339 736.73599243 338.98126221 C770.29001717 331.63329471 803.84396017 324.28494512 837.39526367 316.92456055 C840.92465303 316.15031387 844.454114 315.37639498 847.98364258 314.6027832 C852.06559756 313.70807245 856.1474014 312.81267547 860.22908783 311.91674042 C861.69746421 311.59454256 863.16589121 311.2725753 864.63437653 310.95087433 C872.5752993 309.21107414 880.50351208 307.43274442 888.40875244 305.53594971 C891 305 891 305 894 305 C893.67 305.99 893.34 306.98 893 308 C890.24588013 309.24688721 890.24588013 309.24688721 886.50048828 310.48925781 C885.81749003 310.71950873 885.13449179 310.94975965 884.43079662 311.18698788 C882.14756865 311.95364237 879.85909072 312.70321899 877.5703125 313.453125 C875.96253576 313.98964022 874.35513533 314.52728428 872.74809265 315.06599426 C869.32616155 316.21077888 865.90195549 317.34836277 862.47573853 318.48025513 C857.11483282 320.25152682 851.75933447 322.03872226 846.4050293 323.82983398 C845.08213158 324.27229603 845.08213158 324.27229603 843.73250866 324.72369671 C841.96017939 325.31648191 840.18786303 325.90930571 838.41555977 326.50216866 C835.77204208 327.3858794 833.12802198 328.26807181 830.48387146 329.14988708 C817.89032017 333.3518526 805.33308294 337.64744755 792.8125 342.0625 C789.54865989 343.2110127 786.28433215 344.35812758 783.01953125 345.50390625 C782.22321289 345.78338104 781.42689453 346.06285583 780.60644531 346.35079956 C769.76450658 350.14550515 758.87951381 353.81478602 748 357.5 C732.72300013 362.67505453 717.46938968 367.9079214 702.25 373.25 C683.86924919 379.7009872 665.42383195 385.95518372 646.96769333 392.18612289 C629.2141904 398.18024365 611.4842647 404.23243894 593.80517578 410.44335938 C577.74396919 416.08236467 561.62671161 421.55176808 545.5 427 C528.47141224 432.75295 511.45882957 438.5440643 494.5 444.5 C477.54116954 450.45593601 460.52856631 456.24698471 443.5 462 C425.49206396 468.08395227 407.50756072 474.22580357 389.57226562 480.52099609 C373.44497563 486.17909994 357.26627346 491.67961879 341.07727051 497.1583252 C326.31618123 502.15543419 311.57949345 507.21380155 296.875 512.375 C279.15099457 518.59567214 261.36872701 524.63888032 243.5731163 530.6509819 C227.24928083 536.16623289 210.9439548 541.72637158 194.6875 547.4375 C176.49447965 553.82878099 158.2354621 560.01884096 139.96587372 566.18672943 C123.05250773 571.89717116 106.15509726 577.64573108 89.3125 583.5625 C71.70773249 589.74691375 54.04889176 595.76673104 36.375 601.75 C35.39320456 602.0824214 35.39320456 602.0824214 34.39157486 602.42155838 C10.75635593 610.42345889 10.75635593 610.42345889 0 614 C0.4668121 606.47654491 2.47034068 600.41028311 5.25 593.4375 C5.98705134 591.54091658 6.7239584 589.64427574 7.45834351 587.74665833 C8.01455096 586.30953397 8.57191302 584.87285608 9.13027954 583.43656921 C13.01983612 573.41405689 16.768127 563.33810295 20.53491211 553.26898193 C22.35057809 548.41648311 24.16929054 543.56512812 25.987854 538.7137146 C27.39098143 534.97039411 28.79373035 531.22693204 30.19628906 527.48339844 C30.42865643 526.86319761 30.66102379 526.24299679 30.90043259 525.604002 C32.05811769 522.51404616 33.21576735 519.42407704 34.37341309 516.33410645 C37.49829485 507.99332833 40.62369831 499.65274601 43.75 491.3125 C44.18567291 490.15019867 44.62134583 488.98789734 45.07022095 487.79037476 C51.74472299 469.98668979 58.45054151 452.19503281 65.17626953 434.41064453 C70.38381556 420.63974991 75.56450732 406.8590122 80.72657776 393.0710144 C83.54313345 385.54805197 86.36435724 378.02684088 89.18530273 370.50552368 C90.77993565 366.25373889 92.37432892 362.00186423 93.96875 357.75 C94.63281138 355.97916625 95.29687389 354.20833292 95.9609375 352.4375 C96.29544922 351.54546875 96.62996094 350.6534375 96.97460938 349.734375 C100.0859375 341.43750001 100.0859375 341.43750001 101.14637756 338.60966492 C101.86548805 336.69203353 102.58459404 334.77440045 103.30369568 332.85676575 C105.16337753 327.89755375 107.02314105 322.9383724 108.88305664 317.97924805 C112.5529133 308.19398835 116.22195525 298.40842509 119.88856506 288.62194824 C128.38357072 265.94827099 136.88061449 243.27541245 145.4375 220.625 C145.76775177 219.75067322 146.09800354 218.87634644 146.43826294 217.9755249 C150.6581994 206.80647138 154.89431489 195.64360856 159.13923836 184.48403168 C160.67056317 180.45766767 162.20082825 176.43090068 163.73118114 172.40416718 C165.2293203 168.46280277 166.72963731 164.52227607 168.23158169 160.58236027 C169.38529813 157.55426784 170.53613871 154.52508229 171.6875 151.49609375 C172.10955215 150.39102982 172.53160431 149.28596588 172.96644592 148.14741516 C173.35263596 147.12995712 173.73882599 146.11249908 174.13671875 145.06420898 C174.47405029 144.17845688 174.81138184 143.29270477 175.15893555 142.38011169 C175.90639932 140.26487871 176.50206678 138.18556948 177 136 C176.42813965 135.73372803 175.8562793 135.46745605 175.26708984 135.19311523 C172.89322933 133.94380915 170.86905664 132.52307441 168.7265625 130.91015625 C167.90873291 130.29615967 167.09090332 129.68216309 166.24829102 129.04956055 C164.94976196 128.06596558 164.94976196 128.06596558 163.625 127.0625 C162.73031006 126.38807861 161.83562012 125.71365723 160.91381836 125.01879883 C154.62699172 120.26660963 148.40455806 115.43927084 142.2265625 110.546875 C137.38941877 106.71807845 132.4874724 102.97348705 127.59130859 99.22070312 C124.97462222 97.21342606 122.36279461 95.19983871 119.75 93.1875 C116.18381669 90.44207047 112.61304891 87.70281321 109.03515625 84.97265625 C101.64090005 79.32987611 94.26911894 73.66150833 86.9375 67.9375 C80.69393457 63.06480001 74.39546002 58.27600673 68.04541016 53.54321289 C60.6357537 48.00661921 53.35816239 42.3019053 46.06738281 36.61035156 C41.06518076 32.71397405 36.02977811 28.86065983 31 25 C25.1313509 20.48165954 25.1313509 20.48165954 23.18139648 18.97753906 C19.94591754 16.48518098 16.69667972 14.01208454 13.4375 11.55078125 C12.66051758 10.96208252 11.88353516 10.37338379 11.08300781 9.7668457 C9.54833748 8.60460113 8.01128762 7.44549076 6.47167969 6.28979492 C5.42608887 5.49665894 5.42608887 5.49665894 4.359375 4.6875 C3.73514648 4.21699219 3.11091797 3.74648438 2.46777344 3.26171875 C1 2 1 2 0 0 Z " fill="#FFFFFF" transform="translate(0,0)"/>
<path d="M0 0 C6.82110058 0.60527495 12.94176655 2.87023991 19.375 5.12890625 C21.23982666 5.77469633 23.10465385 6.42048487 24.9695034 7.06620884 C26.95049661 7.75349261 28.93038698 8.44386753 30.90997314 9.13519287 C35.04248371 10.57829254 39.1778918 12.01294819 43.31396484 13.44580078 C44.71212998 13.93023018 46.11029282 14.41466623 47.50845337 14.89910889 C48.2013509 15.13917412 48.89424843 15.37923935 49.60814285 15.62657928 C51.71573693 16.35713237 53.82303829 17.08852413 55.93026733 17.82012939 C67.19529241 21.73002788 78.47936518 25.58213379 89.77301025 29.40859985 C106.12857539 34.95070272 122.45033819 40.58165878 138.74713135 46.29412842 C155.10244777 52.02400705 171.50713494 57.60293002 187.92245483 63.15823364 C202.62130204 68.13418361 217.29555608 73.17161343 231.9375 78.3125 C250.25567761 84.74357427 268.6389584 90.97640311 287.03291321 97.18632507 C304.77612766 103.17696397 322.49696324 109.22251262 340.16461182 115.43328857 C351.5174551 119.42211033 362.89427083 123.33580265 374.29296875 127.19140625 C374.95697126 127.41606379 375.62097378 127.64072132 376.30509758 127.87218666 C382.92846869 130.11269145 389.55309596 132.34941641 396.18056583 134.57776928 C399.23297285 135.60470463 402.2843122 136.63480695 405.3359375 137.6640625 C406.42275314 138.02806656 407.50956879 138.39207062 408.62931824 138.7671051 C416.16692247 141.31214212 423.59448204 144.09366752 431 147 C431 147.66 431 148.32 431 149 C404.05381755 153.76789552 377.08215149 158.36049359 350.08412957 162.82492661 C344.88986364 163.68428547 339.6959551 164.54579968 334.5019989 165.4070282 C325.60034153 166.88275867 316.69847363 168.35721312 307.79644775 169.83071899 C294.93221958 171.96006824 282.06832002 174.09139731 269.20449924 176.22320616 C249.99079529 179.40729332 230.7769004 182.59022619 211.56284809 185.77221048 C186.41533865 189.93683157 161.2683532 194.10460496 136.12171364 198.2744751 C121.6746675 200.6701014 107.22753436 203.06520307 92.7804144 205.46038413 C87.43518703 206.34657248 82.08997119 207.23283033 76.74476439 208.11914277 C72.49513438 208.8237817 68.24549381 209.52835686 63.99584961 210.23291016 C63.16522526 210.37062442 62.33460092 210.50833869 61.47880614 210.65022612 C52.5157065 212.13620459 43.55243719 213.62114732 34.58869934 215.10327148 C33.79925027 215.23381322 33.0098012 215.36435495 32.19642943 215.49885249 C25.53306132 216.60068678 25.53306132 216.60068678 22.59028757 217.08717966 C11.86939274 218.85973738 1.14982514 220.64011031 -9.56866634 222.42714411 C-17.50415468 223.75002607 -25.44028185 225.06903007 -33.3768369 226.38549703 C-38.15430864 227.17816681 -42.93142616 227.97284772 -47.7077446 228.77243996 C-52.15157711 229.51635184 -56.5962504 230.25501467 -61.04161596 230.98970819 C-62.67503678 231.26064244 -64.30813635 231.53352176 -65.94088221 231.80849433 C-68.18181201 232.18560517 -70.42379714 232.55568883 -72.66616821 232.92411804 C-73.92047449 233.13305034 -75.17478077 233.34198263 -76.46709633 233.55724621 C-80.01771174 234.00221969 -83.42567463 234.079019 -87 234 C-85.56805161 229.93552382 -84.12821312 225.87387679 -82.6875 221.8125 C-82.30271484 220.72001953 -81.91792969 219.62753906 -81.52148438 218.50195312 C-77.94318652 208.4327894 -74.15115536 198.44773983 -70.35108948 188.46047974 C-65.83680788 176.59305984 -61.39551536 164.69899687 -56.96853638 152.79873657 C-54.59718322 146.42487323 -52.22254208 140.05223527 -49.84765625 133.6796875 C-49.60514318 133.02889284 -49.36263012 132.37809818 -49.11276817 131.70758247 C-43.78153685 117.40214844 -38.42530933 103.10612625 -33.0625 88.8125 C-32.62670624 87.65078278 -32.19091248 86.48906555 -31.74191284 85.29214478 C-27.72487112 74.5840619 -23.7057869 63.87674886 -19.68218994 53.17112732 C-13.03307993 35.47893734 -6.38547753 17.78957317 0 0 Z M47 64 C40.34741515 81.35215883 34.10594661 98.84280901 27.90234375 116.359375 C27.2161593 118.29687977 26.52996156 120.23437983 25.84375 122.171875 C25.51076904 123.11220581 25.17778809 124.05253662 24.8347168 125.0213623 C22.89811997 130.48466209 20.94620936 135.94198352 18.96875 141.390625 C18.54207031 142.5669751 18.11539063 143.7433252 17.67578125 144.95532227 C16.91548572 147.04534562 16.15263775 149.134443 15.38671875 151.22241211 C15.06316406 152.1119458 14.73960937 153.00147949 14.40625 153.91796875 C14.13103516 154.66844482 13.85582031 155.4189209 13.57226562 156.19213867 C12.89940519 158.0017466 12.89940519 158.0017466 13 160 C33.8487374 158.6084013 54.65509064 156.85647722 75.46658754 154.9987967 C79.89889072 154.60377867 84.33146284 154.21180032 88.76400757 153.81950378 C98.15902539 152.98757331 107.55378492 152.1527557 116.94848633 151.31726074 C132.64477316 149.92137716 148.34133919 148.5286381 164.03811169 147.13822699 C165.86980369 146.97596471 167.70149226 146.81366375 169.53317738 146.6513238 C210.68058019 143.00460833 251.83855725 139.48427356 293 136 C289.84707939 133.89805293 287.36039801 133.09880755 283.73022461 132.05493164 C283.09301515 131.87014441 282.45580568 131.68535717 281.79928684 131.49497032 C279.66837482 130.87838653 277.53539483 130.26929512 275.40234375 129.66015625 C273.88516404 129.22278844 272.36811777 128.78495752 270.85119629 128.34669495 C266.74163004 127.16077669 262.63023888 125.98130269 258.5185051 124.80292511 C254.17602882 123.55717845 249.83529737 122.30538145 245.49438477 121.05419922 C237.51226786 118.75442296 229.52874474 116.45957378 221.54456425 114.16697311 C213.42444171 111.83518795 205.30577799 109.49835387 197.1875 107.16015625 C194.54501294 106.3991363 191.90251495 105.6381543 189.26000977 104.87719727 C188.61334886 104.690974 187.96668795 104.50475073 187.30043125 104.31288433 C182.72002658 102.99396 178.13925298 101.67632193 173.55834961 100.35913086 C157.72365595 95.80545139 141.89340873 91.23659293 126.06640625 86.65625 C124.17378263 86.10859075 122.28115873 85.56093246 120.38853455 85.01327515 C112.05092887 82.6005081 103.71351666 80.18707785 95.37676144 77.77137375 C91.9300607 76.77283605 88.48313434 75.77507877 85.03616142 74.77748108 C83.44601666 74.31707527 81.85597063 73.8563283 80.26603889 73.39518738 C69.19857753 70.18533149 58.10867481 67.06419081 47 64 Z " fill="#FFFFFF" transform="translate(445,152)"/>
<path d="M0 0 C7.35886136 1.45597473 14.25258221 3.68546396 21.31640625 6.19140625 C22.50618576 6.6088913 23.69596527 7.02637634 24.92179871 7.45651245 C28.13760228 8.58612805 31.35172512 9.7202963 34.56510925 10.85676193 C37.92205181 12.04287044 41.28098211 13.22332461 44.63964844 14.40454102 C50.7885563 16.5681378 56.93549758 18.73726122 63.08148766 20.90913105 C68.6237072 22.86755119 74.16738444 24.82182008 79.71128845 26.77546692 C85.05838551 28.6603785 90.40430161 30.54862608 95.75 32.4375 C96.72421906 32.78144806 97.69843811 33.12539612 98.70217896 33.47976685 C110.18085036 37.53500925 121.62053885 41.67366531 133 46 C132.46472797 53.19197813 129.73211667 59.59376963 127.1796875 66.27734375 C126.6833668 67.59275825 126.18769424 68.90841745 125.69262695 70.2243042 C124.36881105 73.73787201 123.03642769 77.24813232 121.70241547 80.7578392 C120.31606421 84.4099047 118.93785675 88.06503961 117.55908203 91.7199707 C115.37232396 97.51451582 113.18169575 103.30758093 110.98828125 109.09960938 C107.55593827 118.1651334 104.15444003 127.24209685 100.75982666 136.32180786 C95.58465681 150.15825649 90.36567377 163.97795929 85.13150024 177.79217529 C80.58583149 189.79048693 76.06532811 201.7980463 71.5625 213.8125 C71.25301422 214.63816467 70.94352844 215.46382935 70.62466431 216.31451416 C67.7609513 223.95511999 64.89899296 231.5963816 62.04003906 239.23876953 C61.71490829 240.10784439 61.38977753 240.97691925 61.05479431 241.87232971 C60.40008003 243.62241865 59.74542682 245.37253044 59.09083557 247.12266541 C57.49661266 251.38340508 55.89945543 255.64300209 54.2956543 259.90014648 C53.68277785 261.5271802 53.06990347 263.15421469 52.45703125 264.78125 C52.16094467 265.56697891 51.86485809 266.35270782 51.55979919 267.1622467 C49.9211782 271.51956724 48.30684776 275.88454777 46.72193909 280.26168823 C45.61797156 283.3037479 44.493893 286.33840393 43.375 289.375 C42.99754639 290.44476074 42.62009277 291.51452148 42.23120117 292.61669922 C41.87388916 293.57592285 41.51657715 294.53514648 41.1484375 295.5234375 C40.85114746 296.34763184 40.55385742 297.17182617 40.24755859 298.02099609 C38.51658844 300.76683642 37.09448245 300.98706058 34 302 C31.02333777 302.64541237 28.0264947 303.12704994 25.01879883 303.60400391 C23.67652977 303.82389732 23.67652977 303.82389732 22.30714417 304.04823303 C19.3579819 304.52990974 16.4075602 305.00333581 13.45703125 305.4765625 C11.40623148 305.8095494 9.35550713 306.14300113 7.30485535 306.47689819 C3.01246941 307.1746173 -1.28049863 307.86859102 -5.57397461 308.55957031 C-11.08643468 309.44676292 -16.59783265 310.34034908 -22.10886669 311.23635292 C-27.3573842 312.08941807 -32.60640172 312.93938633 -37.85546875 313.7890625 C-38.86126669 313.95212513 -39.86706463 314.11518776 -40.90334129 314.28319168 C-43.73761563 314.74210041 -46.57223419 315.19881409 -49.40698242 315.65478516 C-50.25220459 315.79190414 -51.09742676 315.92902313 -51.96826172 316.07029724 C-57.77033427 317 -57.77033427 317 -60 317 C-59.26934211 312.2554225 -57.5871962 308.00461316 -55.859375 303.5546875 C-55.54097153 302.72463699 -55.22256805 301.89458649 -54.89451599 301.03938293 C-54.2079762 299.25042116 -53.51971928 297.46211759 -52.82992554 295.67440796 C-50.9939411 290.91512662 -49.17115122 286.15079636 -47.34765625 281.38671875 C-46.9784053 280.42278702 -46.60915436 279.45885529 -46.22871399 278.4657135 C-42.82221853 269.56146293 -39.49239442 260.62986551 -36.1875 251.6875 C-32.43638108 241.54674046 -28.65940385 231.41745174 -24.8125 221.3125 C-19.91781387 208.45263343 -15.07874444 195.57225855 -10.25 182.6875 C-9.66943848 181.13840439 -9.66943848 181.13840439 -9.07714844 179.55801392 C-7.1290542 174.3596042 -5.18136176 169.16104406 -3.23388672 163.96240234 C0.37607673 154.32632148 3.99011509 144.69176867 7.60375977 135.05706787 C8.51581873 132.62529644 9.42784461 130.19351261 10.33984375 127.76171875 C10.78860367 126.56512634 10.78860367 126.56512634 11.24642944 125.34436035 C13.13249613 120.31476478 15.01733888 115.28471205 16.90139771 110.25436401 C18.19767357 106.79346003 19.49428438 103.33268162 20.79101562 99.87194824 C21.42636167 98.17626336 22.06161673 96.48054439 22.69677734 94.78479004 C25.86120337 86.33765437 29.03304102 77.89362079 32.24609375 69.46484375 C32.49930389 68.80007523 32.75251404 68.1353067 33.01339722 67.45039368 C34.17238789 64.40866433 35.33415009 61.36808282 36.50097656 58.3293457 C39.19327568 51.27836615 41.67204647 44.1795343 44 37 C43.18660156 36.36835938 42.37320313 35.73671875 41.53515625 35.0859375 C34.01834397 29.22542859 26.61814891 23.24274514 19.28759766 17.15087891 C13.73326561 12.55344439 8.04338202 8.17650274 2.24609375 3.890625 C1.50488281 3.26671875 0.76367188 2.6428125 0 2 C0 1.34 0 0.68 0 0 Z " fill="#FFFFFF" transform="translate(277,93)"/>
<path d="M0 0 C-0.47907981 6.302561 -3.42706368 11.4361792 -6.1875 17 C-7.1847592 19.06584405 -8.1808574 21.13224897 -9.17578125 23.19921875 C-10.80973937 26.57235818 -12.46864196 29.92896732 -14.16796875 33.26953125 C-17.78070538 40.68321564 -17.78070538 40.68321564 -16.875 48.625 C-16.37613281 49.75808594 -16.37613281 49.75808594 -15.8671875 50.9140625 C-15 53 -15 53 -15 57 C-19.39911903 55.66348067 -23.21550459 53.93129602 -27.2265625 51.69140625 C-28.09930061 51.20697304 -28.09930061 51.20697304 -28.9896698 50.7127533 C-30.87074297 49.6673135 -32.74784553 48.61495692 -34.625 47.5625 C-35.9211762 46.84062146 -37.2176465 46.11927076 -38.5144043 45.3984375 C-41.11184574 43.95407068 -43.70800677 42.50744356 -46.30322266 41.05908203 C-51.46045986 38.18329361 -56.63590069 35.34074646 -61.8125 32.5 C-63.42322581 31.61467198 -65.0339085 30.7292655 -66.64453125 29.84375 C-67.75183594 29.2353125 -68.85914063 28.626875 -70 28 C-69.67 29.216875 -69.34 30.43375 -69 31.6875 C-68.08015842 35.07941584 -68 37.30208611 -68 41 C-76.91 43.97 -76.91 43.97 -86 47 C-84.91328409 52.93514074 -83.64689669 58.45289064 -81.48828125 64.08984375 C-81 66 -81 66 -82 69 C-85.14158433 67.4905704 -88.25940176 65.93727555 -91.375 64.375 C-92.26445313 63.94832031 -93.15390625 63.52164063 -94.0703125 63.08203125 C-100.64154665 59.7466321 -100.64154665 59.7466321 -102.6015625 55.6640625 C-102.79878906 54.34535156 -102.79878906 54.34535156 -103 53 C-103.5347998 53.18175781 -104.06959961 53.36351562 -104.62060547 53.55078125 C-107.03769125 54.37031044 -109.45631366 55.18520733 -111.875 56 C-112.71675781 56.28617187 -113.55851563 56.57234375 -114.42578125 56.8671875 C-115.23144531 57.13789063 -116.03710938 57.40859375 -116.8671875 57.6875 C-117.61081543 57.93886719 -118.35444336 58.19023437 -119.12060547 58.44921875 C-121 59 -121 59 -123 59 C-123.70246995 57.1096624 -124.38640849 55.21243172 -125.0625 53.3125 C-125.44535156 52.25675781 -125.82820312 51.20101562 -126.22265625 50.11328125 C-127.06446176 46.74182902 -127.21166249 45.23382895 -126 42 C-123.44573975 40.57698059 -123.44573975 40.57698059 -119.99902344 39.44458008 C-119.37292679 39.23248398 -118.74683014 39.02038788 -118.10176086 38.80186462 C-116.02702614 38.10446867 -113.9438511 37.43718709 -111.859375 36.76953125 C-110.41484448 36.29009277 -108.9709422 35.8087576 -107.52764893 35.3256073 C-103.72141395 34.05689991 -99.90744128 32.81326687 -96.09124756 31.57489014 C-92.22150079 30.31476847 -88.3589832 29.03291106 -84.49609375 27.75195312 C-80.15015255 26.31145024 -75.80364839 24.87305896 -71.45111084 23.45259094 C-70.78647324 23.23526306 -70.12183563 23.01793518 -69.4370575 22.79402161 C-67.64583408 22.2088192 -65.85403606 21.62537642 -64.06219482 21.04206848 C-62.10702914 20.37672331 -60.16972923 19.65444883 -58.26300049 18.86088562 C-55.02153145 17.62777317 -53.34169831 18.03896266 -50 19 C-46.78081582 20.52965749 -43.70724736 22.27558307 -40.625 24.0625 C-39.79355469 24.53494141 -38.96210937 25.00738281 -38.10546875 25.49414062 C-36.0655651 26.65477546 -34.03077982 27.82349773 -32 29 C-29.82649064 26.30801097 -28.45764507 23.929224 -27.3359375 20.6640625 C-21.96933389 6.5204472 -21.96933389 6.5204472 -15.734375 3.41796875 C-10.65820567 1.44648353 -5.4736104 0 0 0 Z " fill="#FFFFFF" transform="translate(900,326)"/>
<path d="M0 0 C4.03421052 2.98216794 6.32371171 6.12275804 7.5625 11 C8.27731952 17.72094679 8.70558373 24.33778557 4.5625 30 C2.5825 31.98 0.6025 33.96 -1.4375 36 C6.1525 40.29 13.7425 44.58 21.5625 49 C20.5625 52 20.5625 52 18.87597656 52.90722656 C18.15893555 53.14924805 17.44189453 53.39126953 16.703125 53.640625 C15.52363281 54.03894531 15.52363281 54.03894531 14.3203125 54.4453125 C13.07894531 54.84363281 13.07894531 54.84363281 11.8125 55.25 C11.00039063 55.53101563 10.18828125 55.81203125 9.3515625 56.1015625 C8.56007813 56.36195313 7.76859375 56.62234375 6.953125 56.890625 C6.23157227 57.12813477 5.51001953 57.36564453 4.76660156 57.61035156 C-0.11627223 58.4735623 -3.79948408 56.4769872 -8.015625 54.19140625 C-9.62195801 53.32672729 -9.62195801 53.32672729 -11.26074219 52.44458008 C-13.57585005 51.17305211 -15.88934925 49.89908283 -18.20019531 48.61987305 C-18.78166321 48.29806564 -19.3631311 47.97625824 -19.96221924 47.6446991 C-21.70436406 46.6798424 -23.44593453 45.7139489 -25.1875 44.74804688 C-27.99829423 43.23623147 -30.82074678 41.8491593 -33.71875 40.515625 C-41.33544314 36.861443 -45.79956657 33.90824885 -48.77050781 25.72729492 C-52.40338738 13.79053065 -52.40338738 13.79053065 -50.4375 10 C-47.9517138 8.77308833 -45.68137947 7.85425974 -43.0703125 6.984375 C-42.32095428 6.72368225 -41.57159607 6.4629895 -40.79953003 6.19439697 C-39.20668014 5.64528364 -37.61094944 5.10446818 -36.01269531 4.57128906 C-33.59824944 3.76198297 -31.19789837 2.91848935 -28.796875 2.0703125 C-9.12844717 -4.71552983 -9.12844717 -4.71552983 0 0 Z M-15.44921875 16.3125 C-16.20654297 16.58320312 -16.96386719 16.85390625 -17.74414062 17.1328125 C-18.92266602 17.56207031 -18.92266602 17.56207031 -20.125 18 C-20.92228516 18.28617188 -21.71957031 18.57234375 -22.54101562 18.8671875 C-24.50803334 19.57390045 -26.47297099 20.28639811 -28.4375 21 C-28.4375 21.66 -28.4375 22.32 -28.4375 23 C-26.22745998 24.33502417 -24.89969963 25.0294127 -22.2890625 24.86328125 C-15.55184875 23.19958115 -15.55184875 23.19958115 -9.4375 20 C-8.46843173 17.41585574 -8.46843173 17.41585574 -8.4375 15 C-11.29565851 15 -12.81572029 15.36206447 -15.44921875 16.3125 Z " fill="#FFFFFF" transform="translate(391.4375,506)"/>
<path d="M0 0 C-1.74652018 6.00112458 -4.52348542 11.46218645 -7.25 17.0625 C-7.77432617 18.14724609 -8.29865234 19.23199219 -8.83886719 20.34960938 C-10.25964527 23.28805575 -11.68343679 26.22501889 -13.10839844 29.16143799 C-14.92086028 32.89889611 -16.72861015 36.63863698 -18.53393555 40.37954712 C-20.03575833 43.49122332 -21.5419146 46.60061264 -23.05859375 49.70507812 C-25.59695232 54.91380461 -28.0959555 60.11701091 -30.3125 65.47265625 C-35.34560918 77.5194166 -35.34560918 77.5194166 -41.125 79.9375 C-42.73863516 80.34029101 -44.36407676 80.70030986 -46 81 C-47.093125 81.4125 -48.18625 81.825 -49.3125 82.25 C-52.01050325 83.00293114 -54.21445632 83.16385551 -57 83 C-55.61239331 78.53197419 -53.85971708 74.43133697 -51.8046875 70.23046875 C-51.49577072 69.59595795 -51.18685394 68.96144714 -50.86857605 68.30770874 C-49.87393174 66.2660532 -48.87442715 64.22681779 -47.875 62.1875 C-46.51527965 59.3992389 -45.15810374 56.60974149 -43.80078125 53.8203125 C-43.46942673 53.14023636 -43.1380722 52.46016022 -42.79667664 51.75947571 C-39.12078618 44.20905228 -35.54129851 36.61435751 -32 29 C-32.80219971 29.27263672 -33.60439941 29.54527344 -34.4309082 29.82617188 C-37.40967814 30.83614386 -40.38978186 31.84204744 -43.37084961 32.84521484 C-44.66046159 33.28011228 -45.94953029 33.71662422 -47.23803711 34.15478516 C-49.0908453 34.78452574 -50.94578889 35.40797257 -52.80078125 36.03125 C-54.47394409 36.59682617 -54.47394409 36.59682617 -56.1809082 37.17382812 C-59 38 -59 38 -62 38 C-63.32 32.72 -64.64 27.44 -66 22 C-60.26135848 19.98994418 -54.52197987 17.98201058 -48.78198242 15.97583008 C-46.83973371 15.29668975 -44.89766874 14.61702369 -42.95581055 13.93676758 C-32.38945104 10.23566524 -21.81240911 6.56881987 -11.19921875 3.00390625 C-10.30266068 2.70072983 -9.4061026 2.39755341 -8.4823761 2.08518982 C-7.65892197 1.81030228 -6.83546783 1.53541473 -5.98706055 1.25219727 C-5.26294479 1.00945572 -4.53882904 0.76671417 -3.79277039 0.51661682 C-2 0 -2 0 0 0 Z " fill="#FFFFFF" transform="translate(282,537)"/>
<path d="M0 0 C0.99 0.33 1.98 0.66 3 1 C3.87207031 2.83726501 3.87207031 2.83726501 4.578125 5.26928711 C4.84850586 6.17791 5.11888672 7.0865329 5.39746094 8.02268982 C5.67879883 9.01422562 5.96013672 10.00576141 6.25 11.02734375 C6.69907715 12.55446739 6.69907715 12.55446739 7.15722656 14.11244202 C8.11648539 17.38418416 9.05846403 20.66061857 10 23.9375 C10.63427426 26.11296361 11.26967752 28.28809839 11.90625 30.46289062 C13.35132544 35.40559203 14.78434345 40.35163476 16.20898438 45.30026245 C17.24946563 48.85142656 18.34779353 52.38413404 19.45800781 55.91407776 C20 58 20 58 20 61 C18.1096624 61.70246995 16.21243172 62.38640849 14.3125 63.0625 C13.25675781 63.44535156 12.20101562 63.82820313 11.11328125 64.22265625 C5.61166454 65.5963347 2.0356954 63.68298256 -2.76171875 60.97265625 C-3.87297119 60.34963623 -4.98422363 59.72661621 -6.12915039 59.0847168 C-7.31536921 58.41082454 -8.50148383 57.73674883 -9.6875 57.0625 C-10.89994835 56.37932331 -12.11276 55.69679099 -13.32592773 55.01489258 C-15.74780648 53.65295365 -18.16787854 52.28787999 -20.58691406 50.92089844 C-23.61936623 49.21422221 -26.66070078 47.52618079 -29.7109375 45.8515625 C-30.54149658 45.39515381 -31.37205566 44.93874512 -32.2277832 44.46850586 C-33.74868083 43.63402402 -35.2706047 42.80140899 -36.79370117 41.97094727 C-43.57182469 38.23295736 -43.57182469 38.23295736 -45.0703125 33.91796875 C-45.41835938 32.68691406 -45.76640625 31.45585937 -46.125 30.1875 C-46.47820313 28.96417969 -46.83140625 27.74085938 -47.1953125 26.48046875 C-47.88931765 23.47872805 -48.17454331 21.05450799 -48 18 C-43.67098956 18.54191916 -40.46912603 19.555507 -36.65625 21.66015625 C-35.66302734 22.20325439 -34.66980469 22.74635254 -33.64648438 23.3059082 C-32.60814453 23.8855835 -31.56980469 24.46525879 -30.5 25.0625 C-28.90381836 25.94071411 -28.90381836 25.94071411 -27.27539062 26.83666992 C-19.47079952 31.14283527 -11.70155355 35.51194679 -4 40 C-4.19335938 39.24976563 -4.38671875 38.49953125 -4.5859375 37.7265625 C-5.13199092 35.58019409 -5.65804647 33.42867553 -6.16796875 31.2734375 C-6.90974792 28.10215858 -6.90974792 28.10215858 -7.92578125 25.5390625 C-9.74749973 20.06456492 -8.74468476 16.74109293 -6.3215332 11.69824219 C-4.62802822 8.415504 -2.83799396 5.20432348 -1 2 C-0.67 1.34 -0.34 0.68 0 0 Z " fill="#FFFFFF" transform="translate(614,421)"/>
<path d="M0 0 C0.99 0.33 1.98 0.66 3 1 C3.984375 3.328125 3.984375 3.328125 4.75 6.25 C5.14445312 7.68085937 5.14445312 7.68085937 5.546875 9.140625 C6.03949307 12.24921487 6.01742095 14.02706649 5 17 C2.82275391 18.30200195 2.82275391 18.30200195 -0.0234375 19.23828125 C-1.044375 19.58310547 -2.0653125 19.92792969 -3.1171875 20.28320312 C-4.19226563 20.62287109 -5.26734375 20.96253906 -6.375 21.3125 C-7.44234375 21.67150391 -8.5096875 22.03050781 -9.609375 22.40039062 C-17.4725744 25 -17.4725744 25 -21 25 C-21 25.66 -21 26.32 -21 27 C-13.90360122 28.239391 -9.30203994 27.61811746 -2.625 25.0625 C-1.05602992 24.48721097 0.51423479 23.91543718 2.0859375 23.34765625 C3.1076001 22.96105835 3.1076001 22.96105835 4.14990234 22.56665039 C6 22 6 22 9 22 C9.67184618 24.10251861 10.33730968 26.20707763 11 28.3125 C11.37125 29.48425781 11.7425 30.65601563 12.125 31.86328125 C13 35 13 35 13 38 C-12.87053082 49.92408222 -12.87053082 49.92408222 -23.71484375 46.5546875 C-30.99735559 43.33511898 -37.81839431 39.08321533 -41.45703125 31.77734375 C-43.56935807 26.26002483 -44.05175382 20.88668191 -44 15 C-43.47826202 14.82682755 -42.95652405 14.65365509 -42.41897583 14.47523499 C-37.0005588 12.67645679 -31.58284041 10.87558649 -26.16552734 9.07348633 C-24.14226934 8.40074573 -22.11883236 7.72854315 -20.09521484 7.05688477 C-17.19061081 6.09271562 -14.28665082 5.12662873 -11.3828125 4.16015625 C-10.47443634 3.85908463 -9.56606018 3.558013 -8.63015747 3.24781799 C-7.78943695 2.967603 -6.94871643 2.687388 -6.08251953 2.39868164 C-4.96999313 2.02894981 -4.96999313 2.02894981 -3.83499146 1.65174866 C-1.93910155 1.02041001 -1.93910155 1.02041001 0 0 Z " fill="#FFFFFF" transform="translate(332,519)"/>
<path d="M0 0 C1.32 5.28 2.64 10.56 4 16 C-4.88637863 19.66739436 -13.9238776 22.8412567 -23 26 C-19.69869511 28.20086993 -18.4668236 28.19422129 -14.66015625 27.625 C-10.41013141 26.62646259 -6.30223288 25.18924976 -2.19238281 23.72827148 C0.68414516 22.71409202 2.92332593 22 6 22 C6.67413211 23.91405367 7.3390332 25.83136026 8 27.75 C8.37125 28.81734375 8.7425 29.8846875 9.125 30.984375 C10 34 10 34 10 38 C5.82142557 39.54617565 1.63099619 41.05731444 -2.5625 42.5625 C-3.74392578 43.00013672 -4.92535156 43.43777344 -6.14257812 43.88867188 C-7.86831055 44.50258789 -7.86831055 44.50258789 -9.62890625 45.12890625 C-11.2078064 45.70233765 -11.2078064 45.70233765 -12.81860352 46.28735352 C-20.27776872 47.95823858 -25.90387368 44.92786947 -32.25 41.4375 C-33.05179688 41.03208984 -33.85359375 40.62667969 -34.6796875 40.20898438 C-38.6963148 38.0159596 -41.27788351 36.36312314 -42.94140625 31.9921875 C-43.31995015 30.6685342 -43.67516911 29.33784843 -44 28 C-44.46986328 26.58267578 -44.46986328 26.58267578 -44.94921875 25.13671875 C-45.19285156 24.32847656 -45.43648437 23.52023437 -45.6875 22.6875 C-45.93886719 21.86636719 -46.19023438 21.04523438 -46.44921875 20.19921875 C-47 18 -47 18 -47 15 C-15.32641602 4.44213867 -15.32641602 4.44213867 -13.19412231 3.73397827 C-11.63514945 3.21247033 -10.07846465 2.6841005 -8.52340698 2.15103149 C-7.71638336 1.876008 -6.90935974 1.6009845 -6.07788086 1.31762695 C-5.34476181 1.06551956 -4.61164276 0.81341217 -3.85630798 0.55366516 C-2 0 -2 0 0 0 Z " fill="#FFFFFF" transform="translate(560,442)"/>
<path d="M0 0 C0.67977221 10.81970774 -0.68356362 19.4243916 -7.75 27.9375 C-13.84147108 34.30223333 -20.78331161 37.12444139 -29.5625 37.375 C-36.56233097 37.33161262 -41.19570207 35.80664281 -47 32 C-47.9075 31.443125 -48.815 30.88625 -49.75 30.3125 C-56.64917927 23.22167686 -60.04613477 14.75622154 -60.125 4.9375 C-60.063125 3.4834375 -60.063125 3.4834375 -60 2 C-53.13022881 2.98500396 -45.90006494 6.76979374 -41.25 11.94921875 C-40.13465569 13.61177886 -39.06405774 15.30415798 -38 17 C-35.01486678 19.36751945 -31.79289484 19.43700353 -28.0234375 19.296875 C-24.38568156 18.76315019 -22.64928527 17.52886321 -20 15 C-19.46018743 13.36679158 -18.96406694 11.71882401 -18.5 10.0625 C-17.18267618 6.18498598 -16.39525637 5.21171096 -12.7109375 3.23828125 C-4.22758371 0 -4.22758371 0 0 0 Z " fill="#FFFFFF" transform="translate(756,411)"/>
<path d="M0 0 C1.16796875 2.87109375 1.16796875 2.87109375 2.1875 6.4375 C2.53167969 7.61183594 2.87585938 8.78617187 3.23046875 9.99609375 C4 13 4 13 4 15 C1.23113877 16.00577013 -1.53984104 17.00480147 -4.3125 18 C-5.09818359 18.28617187 -5.88386719 18.57234375 -6.69335938 18.8671875 C-7.45068359 19.13789063 -8.20800781 19.40859375 -8.98828125 19.6875 C-9.68477783 19.93886719 -10.38127441 20.19023437 -11.09887695 20.44921875 C-13 21 -13 21 -16 21 C-15.81824219 21.59538574 -15.63648438 22.19077148 -15.44921875 22.80419922 C-14.62995072 25.49360409 -13.81492585 28.18427637 -13 30.875 C-12.71382813 31.81214844 -12.42765625 32.74929688 -12.1328125 33.71484375 C-11.86210937 34.61074219 -11.59140625 35.50664062 -11.3125 36.4296875 C-11.06113281 37.25710449 -10.80976563 38.08452148 -10.55078125 38.93701172 C-10 41 -10 41 -10 43 C-14.90476671 42.42017293 -18.57051345 40.27267946 -22.75 37.8125 C-23.77673828 37.25079102 -23.77673828 37.25079102 -24.82421875 36.67773438 C-29.77785546 33.76931203 -29.77785546 33.76931203 -30.953125 29.69921875 C-30.96859375 28.80847656 -30.9840625 27.91773438 -31 27 C-32.18078125 27.433125 -33.3615625 27.86625 -34.578125 28.3125 C-36.13529634 28.87533301 -37.69259471 29.43781467 -39.25 30 C-40.02730469 30.28617187 -40.80460937 30.57234375 -41.60546875 30.8671875 C-42.35957031 31.13789063 -43.11367188 31.40859375 -43.890625 31.6875 C-44.58188477 31.93886719 -45.27314453 32.19023437 -45.98535156 32.44921875 C-48 33 -48 33 -52 33 C-52.67413211 31.08594633 -53.3390332 29.16863974 -54 27.25 C-54.37125 26.18265625 -54.7425 25.1153125 -55.125 24.015625 C-56 21 -56 21 -56 17 C-49.14511396 14.62517354 -42.28694652 12.26009934 -35.42441082 9.90746212 C-32.23804998 8.81476053 -29.05292162 7.71871708 -25.87036133 6.61499023 C-22.21200466 5.34811619 -18.54984421 4.09285136 -14.88671875 2.83984375 C-13.7428923 2.44095444 -12.59906586 2.04206512 -11.420578 1.63108826 C-9.82926811 1.09041466 -9.82926811 1.09041466 -8.20581055 0.53881836 C-7.27093307 0.21682968 -6.3360556 -0.105159 -5.37284851 -0.43690491 C-3 -1 -3 -1 0 0 Z " fill="#FFFFFF" transform="translate(508,461)"/>
<path d="M0 0 C5.47932789 1.54545146 10.11429181 4.15543212 15 7 C14.96519531 7.58007812 14.93039062 8.16015625 14.89453125 8.7578125 C14.7138655 13.97130987 15.01362654 17.5204398 18 22 C21.21687186 25.33176015 24.45628776 25.76085725 29 26 C31.91955355 25.20375812 33.48845046 24.57549323 35.5 22.3125 C35.995 21.879375 36.49 21.44625 37 21 C40.86138855 21.44015828 43.88684325 22.78115849 47.3125 24.5625 C48.19550781 25.01753906 49.07851563 25.47257813 49.98828125 25.94140625 C50.65214844 26.29074219 51.31601562 26.64007812 52 27 C50.89614987 32.6680844 47.46297506 36.31639292 42.765625 39.52734375 C35.06074179 43.76012195 27.39243782 45.13175669 18.8125 42.9375 C9.40917403 39.59939379 4.31776613 33.8627831 0 25 C-3.23926031 16.90184922 -2.89305759 8.13672448 0 0 Z " fill="#FFFFFF" transform="translate(406,505)"/>
<path d="M0 0 C0.68707031 0.44472656 1.37414062 0.88945312 2.08203125 1.34765625 C3.01015625 1.94578125 3.93828125 2.54390625 4.89453125 3.16015625 C12.94403098 11.20965598 14.29931601 19.99722437 14.34765625 31.04296875 C14.09073357 34.2393892 13.44983489 36.47092637 12.08203125 39.34765625 C10.06275614 38.74187372 8.06739752 38.05671563 6.08203125 37.34765625 C5.37433594 37.13753906 4.66664063 36.92742188 3.9375 36.7109375 C1.55114526 35.82949116 -0.0593098 35.09882649 -1.91796875 33.34765625 C-2.58344761 30.53149075 -2.66863848 27.93682564 -2.72265625 25.046875 C-3.01162098 21.05338237 -4.31701783 19.33109995 -6.91796875 16.34765625 C-11.13864524 13.53387192 -14.95621567 13.65476296 -19.91796875 14.34765625 C-22.68806845 16.31275534 -22.68806845 16.31275534 -24.91796875 18.34765625 C-28.78163701 17.98093519 -31.8151991 16.56109647 -35.23046875 14.78515625 C-36.11347656 14.33011719 -36.99648438 13.87507813 -37.90625 13.40625 C-38.57011719 13.05691406 -39.23398437 12.70757812 -39.91796875 12.34765625 C-37.73886236 6.23987247 -34.25788355 2.35160513 -28.69140625 -0.98828125 C-19.09603976 -5.39527368 -9.14865457 -5.30592405 0 0 Z " fill="#FFFFFF" transform="translate(447.91796875,490.65234375)"/>
<path d="M0 0 C4.13782214 0.51248256 5.95085585 2.67430982 8.75 5.625 C12.41061334 9.40387104 16.14228236 12.9373839 20.13671875 16.35546875 C22.00451793 18.00398752 23.75455624 19.72303581 25.5 21.5 C27.75797943 23.79326036 30.05996504 25.96428028 32.5 28.0625 C36.72624448 31.7269223 40.8752874 35.47206808 45 39.25 C46.02577148 40.17244507 46.02577148 40.17244507 47.07226562 41.11352539 C48.02649414 41.9931897 48.02649414 41.9931897 49 42.890625 C49.5775 43.41688477 50.155 43.94314453 50.75 44.48535156 C52 46 52 46 52 49 C49.75438718 49.86762314 47.50473745 50.7192103 45.25 51.5625 C44.61578125 51.80935547 43.9815625 52.05621094 43.328125 52.31054688 C40.79640425 53.24675611 38.56230934 54.01528015 35.84375 53.94140625 C33.11718489 52.54924059 31.35170637 50.59049302 29.25 48.375 C25.58938666 44.59612896 21.85771764 41.0626161 17.86328125 37.64453125 C15.38920374 35.46091148 13.10406775 33.1151262 10.79296875 30.76171875 C8.86206771 28.86447176 6.85776455 27.08556668 4.8125 25.3125 C4.14992188 24.72726562 3.48734375 24.14203125 2.8046875 23.5390625 C0.92470166 21.88882776 0.92470166 21.88882776 -1.5625 20.1875 C-4.06222385 16.3835724 -2.81430172 12.29592246 -2 8 C-1.41373261 5.29882727 -0.74035291 2.66527046 0 0 Z " fill="#FFFFFF" transform="translate(655,408)"/>
<path d="M0 0 C4.85855541 1.432938 8.96330636 3.47554691 13.3125 6 C14.26092773 6.53367187 14.26092773 6.53367187 15.22851562 7.078125 C19.87323778 9.74647556 19.87323778 9.74647556 21 12 C27.85347644 10.61106619 34.33296646 8.65850703 40.9375 6.375 C42.79986069 5.73429707 44.66310032 5.09614142 46.52734375 4.4609375 C47.33937256 4.18040527 48.15140137 3.89987305 48.98803711 3.61083984 C51 3 51 3 53 3 C54.32 8.28 55.64 13.56 57 19 C48.9027735 22.3671635 40.68112819 25.23043545 32.36621094 28.00146484 C30.10648045 28.75618529 27.85013593 29.52050297 25.59375 30.28515625 C24.14863339 30.76881487 22.70332757 31.25190859 21.2578125 31.734375 C20.58799347 31.96243835 19.91817444 32.19050171 19.22805786 32.42547607 C15.92471329 33.51580382 13.53099813 34 10 34 C8.7333031 29.9625229 7.4699831 25.92400916 6.2097168 21.88452148 C5.78094562 20.51183909 5.35126956 19.139439 4.9206543 17.76733398 C4.30016044 15.78964433 3.68297902 13.81094636 3.06640625 11.83203125 C2.69459229 10.64327393 2.32277832 9.4545166 1.93969727 8.22973633 C1.14269661 5.49044777 0.50193977 2.80577393 0 0 Z " fill="#FFFFFF" transform="translate(520,482)"/>
<path d="M0 0 C2.56912948 1.21663828 5.12965377 2.44753451 7.6875 3.6875 C8.40873047 4.02716797 9.12996094 4.36683594 9.87304688 4.71679688 C10.93168945 5.2340332 10.93168945 5.2340332 12.01171875 5.76171875 C12.65584717 6.07069092 13.29997559 6.37966309 13.96362305 6.69799805 C16 8 16 8 21 13 C30.9 9.7 40.8 6.4 51 3 C53.27467773 5.27467773 53.75132436 6.76650412 54.6875 9.8125 C54.95949219 10.66457031 55.23148437 11.51664063 55.51171875 12.39453125 C56.06957784 15.37126735 55.92250815 17.1207143 55 20 C53.22279358 21.17745972 53.22279358 21.17745972 50.87915039 21.96044922 C50.00476822 22.26361053 49.13038605 22.56677185 48.22950745 22.87911987 C47.27849655 23.18455719 46.32748566 23.48999451 45.34765625 23.8046875 C44.37718857 24.13292511 43.40672089 24.46116272 42.40684509 24.79934692 C40.35302722 25.48963045 38.29580931 26.16986645 36.2355957 26.84082031 C33.07183453 27.87195768 29.91942433 28.93306229 26.76757812 30 C24.7740305 30.6658406 22.77990772 31.32996215 20.78515625 31.9921875 C19.83616959 32.3097702 18.88718292 32.62735291 17.90943909 32.95455933 C16.59313759 33.38093185 16.59313759 33.38093185 15.25024414 33.81591797 C14.4760463 34.06953094 13.70184845 34.32314392 12.90419006 34.58444214 C11 35 11 35 9 34 C8.18335512 31.74239526 7.48438591 29.53304758 6.8359375 27.2265625 C6.54053574 26.20724136 6.54053574 26.20724136 6.23916626 25.16732788 C5.82367629 23.72753383 5.4120275 22.28662665 5.00390625 20.84472656 C4.37884378 18.63856663 3.74125375 16.43633226 3.1015625 14.234375 C2.69977253 12.83615231 2.29870686 11.43772125 1.8984375 10.0390625 C1.7078476 9.37959625 1.51725769 8.72013 1.32089233 8.04067993 C0.53571716 5.25130771 0 2.91543398 0 0 Z " fill="#FFFFFF" transform="translate(295,559)"/>
<path d="M0 0 C5.44038477 3.7193635 8.32047075 7.64948931 10.60546875 13.78125 C-1.16197311 18.78125 -1.16197311 18.78125 -5.39453125 18.78125 C-8.14453125 16.90625 -8.14453125 16.90625 -10.39453125 14.78125 C-13.46648033 13.24527546 -15.99697418 13.5547462 -19.39453125 13.78125 C-23.34959198 15.15030948 -24.95568506 16.0602884 -27.14453125 19.65625 C-27.55703125 20.6875 -27.96953125 21.71875 -28.39453125 22.78125 C-29.38453125 25.25625 -29.38453125 25.25625 -30.39453125 27.78125 C-35.34453125 25.47125 -40.29453125 23.16125 -45.39453125 20.78125 C-43.92223521 11.94747377 -39.52393968 5.29224086 -32.39453125 -0.21875 C-21.85024576 -6.52300535 -10.52195743 -5.89340813 0 0 Z " fill="#FFFFFF" transform="translate(742.39453125,389.21875)"/>
<path d="M0 0 C3.4547485 1.66790463 6.32169999 3.57619681 9.3125 6 C10.21613281 6.70125 11.11976563 7.4025 12.05078125 8.125 C14.58902738 11.86878588 14.21438703 13.87215171 13.54370117 18.2265625 C13.27456909 19.59941406 13.27456909 19.59941406 13 21 C12.81735596 21.93585938 12.63471191 22.87171875 12.4465332 23.8359375 C11.8402713 26.73538692 11.17995286 29.61699986 10.5 32.5 C10.27441406 33.48742187 10.04882812 34.47484375 9.81640625 35.4921875 C8.14580676 42.70838648 8.14580676 42.70838648 7 45 C4.71263654 45.96525568 2.46791525 46.82064586 0.125 47.625 C-0.83212891 47.96917969 -0.83212891 47.96917969 -1.80859375 48.3203125 C-4.67276705 49.32486598 -6.94250743 50 -10 50 C-9.38761379 43.58546611 -8.34980535 37.43451125 -6.93359375 31.15234375 C-6.73524429 30.25504044 -6.53689484 29.35773712 -6.33253479 28.4332428 C-5.70526547 25.60032839 -5.07149964 22.76891491 -4.4375 19.9375 C-4.00803115 18.00335117 -3.57899061 16.06910718 -3.15039062 14.13476562 C-2.10520584 9.42206317 -1.05419692 4.71069433 0 0 Z " fill="#FFFFFF" transform="translate(650,429)"/>
<path d="M0 0 C2.58587003 1.26587358 5.16865501 2.53745849 7.75 3.8125 C8.47960937 4.16892578 9.20921875 4.52535156 9.9609375 4.89257812 C10.66992188 5.24384766 11.37890625 5.59511719 12.109375 5.95703125 C12.75874023 6.27647705 13.40810547 6.59592285 14.07714844 6.92504883 C18.97410718 9.66264524 20.55705245 11.56522119 22.140625 17.05859375 C22.48867188 18.24904297 22.83671875 19.43949219 23.1953125 20.66601562 C23.54335938 21.91060547 23.89140625 23.15519531 24.25 24.4375 C24.61351562 25.67822266 24.97703125 26.91894531 25.3515625 28.19726562 C28 37.40207942 28 37.40207942 28 42 C25.87607494 42.6700834 23.75082476 43.33596797 21.625 44 C20.44164062 44.37125 19.25828125 44.7425 18.0390625 45.125 C15 46 15 46 13 46 C5.20870844 21.91175421 5.20870844 21.91175421 2 11.1875 C1.79286377 10.50824463 1.58572754 9.82898926 1.37231445 9.12915039 C0.4169598 5.88894404 0 3.42562144 0 0 Z " fill="#FFFFFF" transform="translate(756,389)"/>
<path d="M0 0 C0.67184618 2.10251861 1.33730968 4.20707763 2 6.3125 C2.37125 7.48425781 2.7425 8.65601563 3.125 9.86328125 C4 13 4 13 4 16 C-8.54 20.29 -21.08 24.58 -34 29 C-35.55520012 22.7791995 -33.2181158 17.69082727 -30.328125 12.17578125 C-25.18269099 4.42137046 -14.9678683 2.63547931 -6.43847656 0.46459961 C-4 0 -4 0 0 0 Z " fill="#FFFFFF" transform="translate(285,584)"/>
<path d="M0 0 C16.99622413 5.52889219 16.99622413 5.52889219 20.17822266 11.04101562 C22.72527594 16.96045224 25 23.51232735 25 30 C22.70967689 30.83719383 20.41789043 31.6698929 18.125 32.5 C17.47402344 32.73847656 16.82304688 32.97695313 16.15234375 33.22265625 C11.2265625 35 11.2265625 35 9 35 C8.79842285 34.27409668 8.5968457 33.54819336 8.38916016 32.80029297 C7.46935379 29.49142033 6.54719916 26.18320652 5.625 22.875 C5.30789063 21.73289062 4.99078125 20.59078125 4.6640625 19.4140625 C4.3546875 18.30546875 4.0453125 17.196875 3.7265625 16.0546875 C3.44377441 15.03874512 3.16098633 14.02280273 2.86962891 12.97607422 C2.2697046 10.92299244 1.60612726 8.88781727 0.89208984 6.87158203 C0 4 0 4 0 0 Z " fill="#FFFFFF" transform="translate(573,464)"/>
<path d="M0 0 C7.13291257 1.61358476 14.44722144 5.22725842 20 10 C23.00522468 15.04639709 24.45305629 20.03308269 23.55859375 25.890625 C23.37425781 26.58671875 23.18992187 27.2828125 23 28 C21.0429132 28.67031719 19.08428887 29.33614683 17.125 30 C16.03445313 30.37125 14.94390625 30.7425 13.8203125 31.125 C11 32 11 32 9 32 C7.71281587 27.92657953 6.4312261 23.85145429 5.15478516 19.7746582 C4.7197955 18.38810838 4.28328237 17.00203555 3.84521484 15.61645508 C3.2157086 13.62444608 2.5917061 11.63078441 1.96875 9.63671875 C1.40317383 7.83787231 1.40317383 7.83787231 0.82617188 6.00268555 C0 3 0 3 0 0 Z " fill="#FFFFFF" transform="translate(348,544)"/>
<path d="M0 0 C8.00366008 2.48431651 17.57178578 5.57114841 21.796875 13.27734375 C23.25716424 17.98095656 24 22.07192404 24 27 C22.44219668 27.67756882 20.87849904 28.34159457 19.3125 29 C18.00732422 29.556875 18.00732422 29.556875 16.67578125 30.125 C13.9427998 31.01870488 11.85299066 31.16449676 9 31 C0 4.26213592 0 4.26213592 0 0 Z " fill="#FFFFFF" transform="translate(480,499)"/>
<path d="M0 0 C5.33333333 2.66666667 10.66666667 5.33333333 16 8 C17.07012329 8.46660034 17.07012329 8.46660034 18.16186523 8.94262695 C21.12360313 10.64634416 21.37847287 13.12815267 22.3125 16.3125 C22.65925781 17.44300781 23.00601563 18.57351563 23.36328125 19.73828125 C23.99148935 22.95640249 23.90550562 24.88622906 23 28 C21.0429132 28.67031719 19.08428887 29.33614683 17.125 30 C16.03445313 30.37125 14.94390625 30.7425 13.8203125 31.125 C11 32 11 32 9 32 C7.86574118 28.544636 6.74435196 25.08521896 5.625 21.625 C5.30789063 20.65949219 4.99078125 19.69398438 4.6640625 18.69921875 C2.67322778 12.51933599 1.11503055 6.39693905 0 0 Z " fill="#FFFFFF" transform="translate(801,389)"/>
<path d="M0 0 C1.0094696 3.08031416 2.00589621 6.1646959 3 9.25 C3.28617188 10.12269531 3.57234375 10.99539063 3.8671875 11.89453125 C4.13789062 12.73886719 4.40859375 13.58320313 4.6875 14.453125 C4.93886719 15.22817383 5.19023438 16.00322266 5.44921875 16.80175781 C6 19 6 19 6 23 C1.41316259 22.40589535 -2.22288748 20.50365644 -6.1875 18.25 C-7.13012695 17.74726563 -7.13012695 17.74726563 -8.09179688 17.234375 C-10.95493232 15.61754557 -12.78961985 14.37119128 -14.42578125 11.484375 C-15 9 -15 9 -15 5 C-12.8765984 4.16260219 -10.7512272 3.33019717 -8.625 2.5 C-7.44164062 2.0359375 -6.25828125 1.571875 -5.0390625 1.09375 C-2 0 -2 0 0 0 Z " fill="#FFFFFF" transform="translate(767,371)"/>
<path d="M0 0 C4.69708455 1.38065819 8.5755276 3.326071 12.75 5.875 C13.87921875 6.55304688 15.0084375 7.23109375 16.171875 7.9296875 C18.87784326 9.91057587 20.00845759 10.86011569 21 14 C21 14.99 21 15.98 21 17 C19.08594633 17.67413211 17.16863974 18.3390332 15.25 19 C14.18265625 19.37125 13.1153125 19.7425 12.015625 20.125 C9 21 9 21 5 21 C4.15996552 18.2518872 3.32777849 15.50180419 2.5 12.75 C2.26152344 11.97269531 2.02304687 11.19539063 1.77734375 10.39453125 C1.55175781 9.64042969 1.32617188 8.88632812 1.09375 8.109375 C0.77954102 7.07248535 0.77954102 7.07248535 0.45898438 6.01464844 C0 4 0 4 0 0 Z " fill="#FFFFFF" transform="translate(868,378)"/>
</svg>
