<?xml version="1.0" encoding="UTF-8"?>
<svg version="1.1" xmlns="http://www.w3.org/2000/svg" width="900" height="1237">
<path d="M0 0 C-0.36649658 0.48130371 -0.73299316 0.96260742 -1.1105957 1.45849609 C-9.79498978 12.91577345 -17.85421112 24.5206993 -25 37 C-25.40589355 37.70334473 -25.81178711 38.40668945 -26.22998047 39.13134766 C-44.95269902 71.9055994 -50.84680386 107.43781048 -40.94848633 144.07055664 C-33.35247148 170.81622973 -22.03142703 193.41161425 -2.94921875 213.8984375 C-1.20472294 215.77927667 0.43467568 217.70618031 2.0625 219.6875 C4.67032402 222.74056227 7.50891258 225.34788066 10.5703125 227.94140625 C12.39700754 229.48910446 14.20054946 231.06419462 15.9921875 232.65234375 C32.595347 247.31941101 50.81565336 258.98774808 70 270 C70.98774414 270.56750977 71.97548828 271.13501953 72.99316406 271.71972656 C96.59740648 285.15938716 121.37703445 296.02438602 147 305 C148.09731445 305.38720215 149.19462891 305.7744043 150.32519531 306.17333984 C162.57655916 310.4649439 174.86624373 314.45599442 187.37109375 317.9375 C188.25322037 318.18323761 189.13534698 318.42897522 190.04420471 318.68215942 C194.40054569 319.89057267 198.76114563 321.08006792 203.12915039 322.24560547 C204.73194844 322.6819116 206.33473232 323.11826981 207.9375 323.5546875 C208.66436508 323.74289062 209.39123016 323.93109375 210.14012146 324.125 C215.29499576 325.54079055 219.94412085 327.48225211 223.42578125 331.74609375 C226.12673239 336.8981283 227.09034026 341.20217644 227.2109375 346.96484375 C228.22311597 383.85174163 236.85640945 418.19359691 264 445 C265.299375 446.3303125 265.299375 446.3303125 266.625 447.6875 C267.800625 448.8321875 267.800625 448.8321875 269 450 C269.69222656 450.75990234 269.69222656 450.75990234 270.3984375 451.53515625 C274.12714936 455.52760627 278.21887999 458.85692392 282.625 462.0625 C283.17542969 462.48112305 283.72585938 462.89974609 284.29296875 463.33105469 C286.08709961 464.65649328 286.08709961 464.65649328 289 466 C305.13629179 462.84721683 320.46238095 441.48228716 329 428.8125 C345.23957333 404.16010929 351.90933364 380.36406588 352.4296875 350.83398438 C352.67745458 342.75574534 353.23721751 335.4302727 358.984375 329.29296875 C365.13922066 324.4336594 373.04577999 322.96568257 380.49423218 321.03079224 C385.23038393 319.79631196 389.94374798 318.47938993 394.66015625 317.171875 C395.61747147 316.90822647 396.57478668 316.64457794 397.56111145 316.37294006 C438.04091795 305.16181634 477.76435429 289.33493468 514 268 C514.82709473 267.51305664 515.65418945 267.02611328 516.50634766 266.52441406 C534.92657249 255.58751338 552.01886143 243.26332894 568 229 C569.01933229 228.10394029 570.03885902 227.2081017 571.05859375 226.3125 C576.46545871 221.49987664 581.42342174 216.60284126 586 211 C586.43425293 210.4834082 586.86850586 209.96681641 587.31591797 209.43457031 C609.17834201 183.41587521 624.69689901 149.42358446 626 115 C626.0515625 113.93523437 626.103125 112.87046875 626.15625 111.7734375 C627.1705178 72.30151544 608.03855013 36.51747522 584.36328125 6.15234375 C582.575971 3.76827868 581.15891679 1.71769376 580 -1 C584.68813436 -0.46632751 587.88878513 0.80127297 591.9296875 3.2109375 C593.04690186 3.87319336 594.16411621 4.53544922 595.31518555 5.21777344 C596.50224113 5.93610458 597.68883712 6.65519571 598.875 7.375 C600.09865408 8.10980063 601.32236866 8.84450053 602.54614258 9.57910156 C611.60933599 15.04602671 620.45832781 20.74635646 629 27 C630.00595215 27.73428223 630.00595215 27.73428223 631.03222656 28.48339844 C642.35602473 36.78541132 653.30511672 45.43340461 663.68359375 54.90234375 C665.67524817 56.70591613 667.70021857 58.45106096 669.75 60.1875 C679.75043679 68.93027537 688.83931428 78.52832364 697 89 C697.89021543 90.10164577 698.78223439 91.20183589 699.67578125 92.30078125 C705.61830614 99.65661874 711.0313899 107.19836562 715.95019531 115.27636719 C716.97254879 116.95492895 718.01338632 118.62218875 719.0546875 120.2890625 C727.87521915 134.94418707 734.02137944 151.37932227 738 168 C738.18546387 168.74427246 738.37092773 169.48854492 738.56201172 170.25537109 C740.40217056 178.73389065 740.37221594 187.24061742 740.37060547 195.87597656 C740.37494554 198.46748288 740.41127226 201.05723456 740.44921875 203.6484375 C740.55373995 219.02666678 738.07197377 233.72121951 732.75 248.1875 C732.45552979 249.00790771 732.16105957 249.82831543 731.85766602 250.67358398 C729.09119732 258.15979178 725.69428806 265.25809463 721.92138672 272.28369141 C721.0796218 273.85168489 720.25935512 275.43117094 719.44140625 277.01171875 C711.19242562 292.68254645 700.14464878 309.03407664 687.4843502 321.4913435 C684.55051505 324.50687139 682.62554722 326.75977653 682.37808228 331.0572052 C682.40712076 332.55447833 682.46997411 334.051359 682.56103516 335.54614258 C682.58644693 336.36876241 682.61185871 337.19138224 682.63804054 338.03892994 C682.72822212 340.69480235 682.86267 343.34618641 683 346 C683.07009449 347.75393307 683.13802229 349.50795405 683.20379639 351.26205444 C683.42973962 356.93122279 683.72543865 362.5959594 684.0234375 368.26171875 C684.13122714 370.38399364 684.23852489 372.50629356 684.34536743 374.62861633 C684.62659591 380.19480343 684.91311606 385.76070376 685.20123291 391.32653809 C690.16782826 487.38924952 690.16782826 487.38924952 690.66160583 527.23031235 C690.68842964 529.38725365 690.71713102 531.54416511 690.74597168 533.70108032 C691.91501726 623.15456763 687.12673726 713.15358739 592 966 C591.16856511 967.08669999 590.33779705 968.17391063 589.5078125 969.26171875 C587.47785453 971.91397531 585.43951963 974.55940792 583.39404297 977.19970703 C582.3997941 978.48369848 581.40676237 979.7686328 580.41455078 981.05419922 C573.60905873 989.87089585 566.73416107 998.61864757 559.68432617 1007.24145508 C556.24074352 1011.45739087 552.84970262 1015.70916434 549.5 1020 C545.01968921 1025.7380711 540.44480655 1031.3937166 535.84033203 1037.0324707 C532.29888282 1041.37755242 528.8184682 1045.76451515 525.375 1050.1875 C521.34038406 1055.36387783 517.16977718 1060.40259142 512.90917969 1065.39404297 C509.60084082 1069.27347822 506.39069639 1073.21673494 503.22265625 1077.2109375 C495.24702838 1087.21901887 487.1109655 1097.10161803 479 1107 C477.49985719 1108.83321648 475.99985918 1110.66655146 474.5 1112.5 C456.5 1134.5 456.5 1134.5 454.23046875 1137.2734375 C452.79500065 1139.02817784 451.36006204 1140.78335155 449.92578125 1142.5390625 C444.68432888 1148.95281753 439.42108858 1155.34837353 434.15356445 1161.74072266 C430.92885454 1165.65491932 427.70883634 1169.57276747 424.5 1173.5 C420.67879546 1178.1766981 416.84062334 1182.83925148 413 1187.5 C407.65312222 1193.98903285 402.31995005 1200.48886569 397 1207 C396.31035156 1207.84175781 395.62070312 1208.68351562 394.91015625 1209.55078125 C393.05490963 1211.81532279 391.20150213 1214.08134813 389.34960938 1216.34863281 C388.35154472 1217.56985375 387.35273302 1218.79046425 386.35351562 1220.01074219 C384.56712418 1222.1931269 382.78337317 1224.37764848 381 1226.5625 C380.4234668 1227.26592529 379.84693359 1227.96935059 379.25292969 1228.6940918 C378.71571289 1229.35320557 378.17849609 1230.01231934 377.625 1230.69140625 C377.14289062 1231.28123291 376.66078125 1231.87105957 376.1640625 1232.47875977 C374.91629764 1234.01041949 374.91629764 1234.01041949 374 1236 C372.24609375 1235.875 372.24609375 1235.875 370 1235 C368.09765625 1232.4375 368.09765625 1232.4375 366.0625 1229 C358.31942113 1216.36133969 349.08386448 1204.84265032 339 1194 C337.84977537 1192.67045304 336.70378111 1191.33723193 335.5625 1190 C328.09034497 1181.46284817 319.91809655 1173.99435268 311 1167 C310.45875488 1166.57122559 309.91750977 1166.14245117 309.35986328 1165.70068359 C305.61748951 1162.73882213 301.87346913 1159.7894759 298 1157 C297.14051758 1156.3805249 297.14051758 1156.3805249 296.26367188 1155.74853516 C293.30346195 1153.80782673 291.57849818 1152.91866057 288.02734375 1153.41796875 C284.24132105 1155.39647093 280.93893944 1157.70577571 277.5625 1160.3125 C276.52077637 1161.10720703 276.52077637 1161.10720703 275.45800781 1161.91796875 C260.73873894 1173.27226217 246.76995712 1185.64245089 235.19921875 1200.24609375 C232.93232159 1203.08474827 230.56422811 1205.81547085 228.1875 1208.5625 C222.22272588 1215.679028 217.21096544 1223.41137162 212.16992188 1231.19750977 C211.12563916 1232.80642865 210.06397605 1234.40403593 209 1236 C206.55600614 1235.62683104 205.28320254 1235.29075461 203.53515625 1233.49609375 C203.04917969 1232.81675781 202.56320312 1232.13742187 202.0625 1231.4375 C198.69684152 1226.89928954 195.19811663 1222.5000771 191.625 1218.125 C191.05885986 1217.42987305 190.49271973 1216.73474609 189.90942383 1216.01855469 C185.28204778 1210.33826269 180.64365966 1204.66698466 176 1199 C174.49985719 1197.16678352 172.99985918 1195.33344854 171.5 1193.5 C170.37658203 1192.12714844 170.37658203 1192.12714844 169.23046875 1190.7265625 C167.79500065 1188.97182216 166.36006204 1187.21664845 164.92578125 1185.4609375 C160.29676182 1179.7965921 155.65186094 1174.14559447 151 1168.5 C145.65314796 1162.01094999 140.31943682 1155.51155167 135 1149 C133.50014304 1147.16654964 132.0001406 1145.33321829 130.5 1143.5 C85.5 1088.5 85.5 1088.5 83.234375 1085.73046875 C81.78702949 1083.96177205 80.33914699 1082.19351457 78.890625 1080.42578125 C76.59150797 1077.61901247 74.29518126 1074.80998827 72 1072 C71.50983398 1071.40026367 71.01966797 1070.80052734 70.51464844 1070.18261719 C64.80272532 1063.18964662 59.11481389 1056.18314228 53.5625 1049.0625 C49.46045929 1043.80256439 45.25422426 1038.63750197 41 1033.5 C36.2876927 1027.8093061 31.65600098 1022.06894973 27.11547852 1016.24047852 C23.615503 1011.75679533 20.03688045 1007.34163276 16.4375 1002.9375 C11.65043763 997.0726118 6.96614537 991.14329162 2.37890625 985.12109375 C0.01953522 982.02562995 -2.36478404 978.95057115 -4.75 975.875 C-21.6643448 953.88465863 -35.53253295 931.80062774 -48 907 C-48.43199707 906.15066895 -48.86399414 905.30133789 -49.30908203 904.42626953 C-84.70337782 834.54370064 -98.86922842 753.56883589 -110 609 C-105.85572582 610.50956593 -103.99549732 613.42194855 -101.625 616.9375 C-100.73846727 618.21327495 -99.85035893 619.48795601 -98.9609375 620.76171875 C-98.48495117 621.44669434 -98.00896484 622.13166992 -97.51855469 622.83740234 C-88.61427381 635.51812903 -79.13882775 647.78040694 -69.58251953 659.97216797 C-67.68165919 662.4079202 -65.80245571 664.85960802 -63.92700195 667.31494141 C-59.08296697 673.6559807 -54.1065315 679.86877478 -49 686 C-48.33218506 686.8053418 -48.33218506 686.8053418 -47.65087891 687.62695312 C-42.86999861 693.38450133 -38.11595995 699.10555754 -32.70678711 704.29223633 C-31.02363593 705.97635054 -29.48940766 707.72400247 -27.94921875 709.5390625 C-23.39008203 714.78237007 -18.48414056 719.66184725 -13.5625 724.5625 C-12.65951172 725.46935547 -11.75652344 726.37621094 -10.82617188 727.31054688 C-5.7117939 732.41751808 -0.49269033 737.30501209 5 742 C7.63288841 744.26308414 10.20447434 746.57677221 12.75 748.9375 C13.39582031 749.48728516 14.04164063 750.03707031 14.70703125 750.60351562 C20.71567064 756.2851962 21.95632527 763.01494794 23.54058838 770.80233765 C24.30464763 774.45732627 25.21581678 778.07513382 26.11328125 781.69921875 C26.47400706 783.17922907 26.83451934 784.65929145 27.19482422 786.1394043 C38.90965287 833.95454211 59.16625664 874.81121388 89 914 C89.88170269 915.16912585 90.76322855 916.3383851 91.64453125 917.5078125 C97.75388328 925.54175847 104.11437818 933.3664465 110.50732422 941.17529297 C111.82186202 942.78223696 113.13198302 944.39279191 114.44140625 946.00390625 C118.8700686 951.44664514 123.37290634 956.8205591 127.91674805 962.16699219 C130.79591336 965.55991751 133.63222581 968.98290376 136.4375 972.4375 C139.89274457 976.68392758 143.42706576 980.85288424 147 985 C152.09964503 990.92123667 157.07644658 996.93122445 162 1003 C163.43710706 1004.7503227 164.87461537 1006.50031602 166.3125 1008.25 C178.00162602 1022.5457604 189.37986841 1037.04399964 200.3203125 1051.921875 C200.96492432 1052.79763184 201.60953613 1053.67338867 202.27368164 1054.57568359 C203.84957195 1056.71679127 205.42500048 1058.85823702 207 1061 C207.07050964 1044.67357949 207.12319139 1028.3472094 207.15543652 1012.0206728 C207.17081556 1004.43763917 207.19173035 996.85470088 207.22631836 989.27172852 C207.25649871 982.65184382 207.27563984 976.03202826 207.28226548 969.41207665 C207.28613005 965.91643362 207.29501735 962.42098814 207.31719017 958.92540932 C207.58397018 915.1047764 198.34552551 871.42383016 171 836 C170.58282715 835.45939941 170.1656543 834.91879883 169.73583984 834.36181641 C159.19417893 820.87520835 146.77449978 812.04136475 132.25390625 803.22265625 C91.64033706 778.48122555 57.84849721 745.34198375 46 698 C43.01398282 685.32162997 40.89097673 672.52452892 39.5234375 659.57421875 C39.33559944 657.80476898 39.33559944 657.80476898 39.14396667 655.99957275 C37.50929417 639.95702969 36.51499018 623.86370672 35.47619629 607.77380371 C35.19865322 603.49475601 34.91442437 599.2161521 34.63085938 594.9375 C34.08091912 586.62540625 33.53803015 578.31287316 33 570 C33.99 570 34.98 570 36 570 C36.76570313 571.70929688 36.76570313 571.70929688 37.546875 573.453125 C63.58080944 630.54604939 105.19296737 670.74150712 163.92895508 693.11572266 C178.04459387 698.32522442 192.12469121 701.0065576 207 703 C208.01939799 698.77276697 208.17599834 694.65769252 208.203125 690.33203125 C208.21013931 689.58835297 208.21715363 688.84467468 208.22438049 688.07846069 C208.24195524 685.65641262 208.24824431 683.23460974 208.25 680.8125 C208.25067474 679.9828775 208.25134949 679.153255 208.25204468 678.29849243 C208.23322695 663.697874 207.39594724 649.42520596 205 635 C204.83371094 633.99759277 204.66742188 632.99518555 204.49609375 631.96240234 C198.33729778 596.40676082 184.51791127 562.58510687 161 535 C160.54625 534.46648926 160.0925 533.93297852 159.625 533.38330078 C153.3730125 526.11669741 146.62853761 519.82985329 139 514 C138.01902344 513.23816406 137.03804688 512.47632813 136.02734375 511.69140625 C130.58142403 507.52439929 125.04006275 503.68296356 119.22265625 500.05859375 C101.18468267 488.53615487 83.8484843 475.83130207 66.5234375 463.2734375 C63.55633553 461.12308618 60.58249496 458.98269684 57.6015625 456.8515625 C48.57718146 450.38956117 39.69734069 443.76399286 30.88745117 437.01245117 C25.13716664 432.61083621 19.34270424 428.2780437 13.5 424 C4.83242379 417.65070859 -3.71560161 411.1517744 -12.25 404.625 C-15.96126913 401.7876561 -19.69068481 398.97768152 -23.4375 396.1875 C-38.28975647 385.06410792 -52.49286532 373.30129953 -66.0859375 360.66796875 C-68.32004415 358.62253331 -70.57383572 356.61937944 -72.859375 354.6328125 C-80.11069404 348.30950492 -87.05144299 341.65213174 -94 335 C-94.76795898 334.26749023 -95.53591797 333.53498047 -96.32714844 332.78027344 C-106.98003293 322.56659075 -116.49809211 312.07100824 -125 300 C-125.67168213 299.05543945 -125.67168213 299.05543945 -126.35693359 298.09179688 C-140.96094134 277.40142612 -152.08597265 254.70583491 -158 230 C-158.18546387 229.25572754 -158.37092773 228.51145508 -158.56201172 227.74462891 C-160.40217056 219.26610935 -160.37221594 210.75938258 -160.37060547 202.12402344 C-160.37494554 199.53251712 -160.41127226 196.94276544 -160.44921875 194.3515625 C-160.56480325 177.11554866 -157.12112459 161.09374331 -151 145 C-150.76474609 144.38125 -150.52949219 143.7625 -150.28710938 143.125 C-136.56853836 107.79696488 -109.02332065 75.04927402 -80 51 C-79.47519043 50.56139648 -78.95038086 50.12279297 -78.40966797 49.67089844 C-60.85061574 35.03116447 -42.50018636 21.93263814 -23 10 C-22.08959961 9.43990234 -21.17919922 8.87980469 -20.24121094 8.30273438 C-17.62913443 6.7052661 -15.00553413 5.12935012 -12.375 3.5625 C-11.58738281 3.08337158 -10.79976562 2.60424316 -9.98828125 2.1105957 C-8.89193359 1.46997192 -8.89193359 1.46997192 -7.7734375 0.81640625 C-7.13841309 0.43943604 -6.50338867 0.06246582 -5.84912109 -0.32592773 C-3.53562633 -1.16928118 -2.28815715 -0.79575684 0 0 Z M567 421 C565.41960132 422.58653615 563.86168324 424.19546932 562.3125 425.8125 C556.02250305 432.21302901 549.15234155 437.6041671 542 443 C540.40746329 444.21342515 538.81502035 445.42697336 537.22265625 446.640625 C535.52414642 447.92801917 533.82493115 449.21448318 532.125 450.5 C531.36002197 451.08040039 530.59504395 451.66080078 529.80688477 452.25878906 C522.04173858 458.08686322 514.02686507 463.54191671 506 469 C505.18259338 469.55592834 504.36518677 470.11185669 503.52301025 470.68463135 C498.12137173 474.35544289 492.71287501 478.01600083 487.30029297 481.6706543 C485.43260009 482.93244611 483.56573804 484.19546859 481.69970703 485.4597168 C462.21298381 498.66177565 462.21298381 498.66177565 452.19311523 504.69618225 C446.10643975 508.4047034 440.78693923 512.89773422 435.49951172 517.65625 C434.03787059 518.96606322 432.55236516 520.24909105 431.06640625 521.53125 C424.62454075 527.17793376 419.22353877 533.22351727 414 540 C413.29488281 540.86625 412.58976563 541.7325 411.86328125 542.625 C389.43774488 570.96894543 378.61912966 605.79336634 373 641 C372.86722656 641.81871582 372.73445312 642.63743164 372.59765625 643.48095703 C370.6992045 655.89288527 370.82608315 668.41237651 370.8125 680.9375 C370.81132172 681.79194702 370.81014343 682.64639404 370.80892944 683.5267334 C370.80931366 685.98536105 370.81857879 688.44375578 370.83203125 690.90234375 C370.83324982 691.64425461 370.83446838 692.38616547 370.83572388 693.15055847 C370.86938519 696.88790965 371.1077086 700.36541454 372 704 C421.21063261 697.82822871 474.17203286 674.07415611 505.5 634.25 C506.88747293 632.44780934 508.26241767 630.63711915 509.62939453 628.81933594 C510.97860636 627.02839783 512.34578196 625.25234953 513.71484375 623.4765625 C523.74412204 610.30829479 531.97458399 596.02639598 539.75 581.4375 C540.18062744 580.6340918 540.61125488 579.83068359 541.05493164 579.00292969 C541.44414795 578.25817383 541.83336426 577.51341797 542.234375 576.74609375 C542.57694336 576.09310303 542.91951172 575.4401123 543.27246094 574.76733398 C544.19033314 572.85618132 544.19033314 572.85618132 544 570 C544.66 570.33 545.32 570.66 546 571 C545.40664401 580.03489506 544.80687392 589.06933784 544.19967937 598.10331345 C543.91768898 602.30159711 543.63762702 606.49998779 543.36254883 610.69873047 C542.29284758 627.00522389 541.19966811 643.29823123 539.47265625 659.55078125 C539.30197884 661.1640329 539.30197884 661.1640329 539.12785339 662.80987549 C534.28736372 706.09983385 519.15202778 747.19995062 484.625 775.625 C482.75416321 777.08867032 480.87897414 778.54679069 479 780 C477.96522869 780.84363944 476.93275996 781.69010925 475.90234375 782.5390625 C464.859817 791.55548278 452.91851936 799.33391218 440.65625 806.58984375 C419.12525622 819.38552332 404.30183199 837.82832195 393 860 C392.65630371 860.6590332 392.31260742 861.31806641 391.95849609 861.99707031 C383.09430776 879.12645913 377.19155347 897.98465327 374 917 C373.74699379 918.43891098 373.74699379 918.43891098 373.48887634 919.90689087 C371.44514068 933.50199883 371.74074065 947.15976039 371.79721212 960.87308502 C371.80986745 964.47381315 371.81090147 968.07454603 371.81326294 971.67529297 C371.81943484 978.46757414 371.83578639 985.25978956 371.85596192 992.05204201 C371.87845597 999.79590815 371.88934802 1007.53977774 371.89935279 1015.28366852 C371.92015737 1031.18915019 371.95524817 1047.09456656 372 1063 C374.27451783 1060.16138417 376.54032946 1057.32117967 378.7421875 1054.42578125 C379.49483887 1053.43795654 379.49483887 1053.43795654 380.26269531 1052.43017578 C381.06078613 1051.38192627 381.06078613 1051.38192627 381.875 1050.3125 C391.73601517 1037.39496525 401.63579703 1024.51933024 412 1012 C413.4588499 1010.20875392 414.91717024 1008.41707644 416.375 1006.625 C420.17039508 1001.98324504 424.03295047 997.40268649 427.91577148 992.83422852 C430.79520268 989.4408462 433.63189727 986.01750083 436.4375 982.5625 C439.89274627 978.31607033 443.42711952 974.14716345 447 970 C451.25139822 965.06250674 455.43420287 960.08021559 459.5390625 955.01953125 C461.4177412 952.71442231 463.30833596 950.42195089 465.2109375 948.13671875 C472.8493055 938.94928116 480.24627034 929.61716944 487.43408203 920.07324219 C488.96651547 918.0443328 490.51101468 916.02518348 492.05859375 914.0078125 C507.78283491 893.42163801 522.00646535 871.48904312 533 848 C533.3295166 847.3076123 533.6590332 846.61522461 533.99853516 845.90185547 C565.38647125 779.62842752 572.54255503 697.88764295 577.75 625.75 C577.80925659 624.9340033 577.86851318 624.11800659 577.92956543 623.27728271 C579.67557796 598.78637244 580.20791571 574.29838455 580.1875 549.75 C580.18723312 549.0769709 580.18696625 548.4039418 580.18669128 547.71051788 C581.97659878 483.15857994 581.97659878 483.15857994 568 421 C567.67 421 567.34 421 567 421 Z " fill="#E20F12" transform="translate(160,1)"/>
</svg>
