<?xml version="1.0" encoding="UTF-8"?>
<svg version="1.1" xmlns="http://www.w3.org/2000/svg" width="900" height="644">
<path d="M0 0 C2.43079897 0.00315247 4.86036642 -0.02037594 7.29101562 -0.0456543 C38.22419333 -0.1708021 67.10136787 9.11632578 89.96289062 30.46020508 C114.52164823 56.10656481 118.35550285 90.17321169 119.25146484 124.00878906 C119.27242714 124.78201913 119.29338943 125.55524919 119.31498694 126.35191047 C119.93351378 149.95037439 119.84433144 173.55849109 119.83256603 197.16317287 C119.83024989 201.93497455 119.83000866 206.70677267 119.83108139 211.47857475 C119.83123462 212.16810936 119.83138786 212.85764396 119.83154573 213.56807355 C119.83186558 214.97056846 119.8321898 216.37306338 119.83251832 217.77555829 C119.83534267 230.80362465 119.83213448 243.83168388 119.82671796 256.85974907 C119.82225172 267.94377507 119.82303036 279.02779059 119.82763672 290.11181641 C119.83303532 303.10751928 119.83506931 316.10321597 119.83202446 329.09891981 C119.83170604 330.49480943 119.83139166 331.89069905 119.83108139 333.28658867 C119.83092711 333.9726925 119.83077284 334.65879632 119.83061389 335.36569117 C119.82976451 340.11064305 119.83119664 344.85559082 119.83356094 349.60054207 C119.85431927 398.60083336 119.85431927 398.60083336 119.23974609 420.19628906 C119.21953345 420.91129707 119.1993208 421.62630509 119.17849565 422.36298001 C118.06249428 460.34096546 111.38123436 492.82184415 83.08398438 519.80786133 C60.94473653 539.22589662 31.36096705 544.54208085 2.82226562 544.56567383 C1.72144653 544.56668594 1.72144653 544.56668594 0.59838867 544.56771851 C-10.92993685 544.55090558 -22.05667966 544.01366476 -33.30273438 541.31567383 C-34.0173584 541.14938477 -34.73198242 540.9830957 -35.46826172 540.81176758 C-51.04554548 537.06071597 -64.76424162 530.31609798 -77.30273438 520.31567383 C-77.8828125 519.87610352 -78.46289062 519.4365332 -79.06054688 518.98364258 C-99.25113456 503.18001505 -108.91506458 475.82540144 -112.30273438 451.31567383 C-113.1589314 443.67409235 -113.49673726 436.07243703 -113.61474609 428.38769531 C-113.6352364 427.21867487 -113.6557267 426.04965443 -113.67683792 424.84520912 C-113.7313661 421.58993169 -113.78128518 418.33463288 -113.82770014 415.07923055 C-113.85788484 412.9668686 -113.88933682 410.85452788 -113.92086411 408.74218559 C-114.53802287 366.66189061 -114.45382581 324.57599073 -114.43130374 282.49225557 C-114.42753233 274.62911003 -114.42889731 266.76597711 -114.43310547 258.90283203 C-114.4773197 173.58718329 -114.4773197 173.58718329 -113.94711065 133.56157374 C-113.92043705 131.47702844 -113.89680981 129.3924696 -113.87402725 127.30787849 C-113.68099947 110.72852607 -113.23590344 94.49054743 -109.55273438 78.25317383 C-109.38427002 77.50986816 -109.21580566 76.7665625 -109.04223633 76.00073242 C-105.12189363 59.6173671 -97.41697172 44.97587652 -86.30273438 32.31567383 C-85.63757813 31.55512695 -84.97242188 30.79458008 -84.28710938 30.01098633 C-78.12814626 23.4186147 -71.03368916 18.83203917 -63.30273438 14.31567383 C-61.9028125 13.48036133 -61.9028125 13.48036133 -60.47460938 12.62817383 C-54.22783475 9.20137175 -47.73767488 7.05679562 -40.92773438 5.06567383 C-40.09040771 4.81922119 -39.25308105 4.57276855 -38.39038086 4.31884766 C-25.7005396 0.80206341 -13.09088221 -0.03531713 0 0 Z M-30.09179688 73.20239258 C-36.65243648 81.4274309 -38.31736141 90.10504689 -38.61447144 100.46917725 C-38.63493507 101.17724534 -38.6553987 101.88531343 -38.67648244 102.61483812 C-38.74269707 105.01337352 -38.80068151 107.41200201 -38.85693359 109.81079102 C-38.87789589 110.66748556 -38.89885818 111.5241801 -38.92045569 112.40683508 C-39.52703037 137.89900292 -39.44989721 163.39928271 -39.43803478 188.89700963 C-39.43571749 194.01239288 -39.43547788 199.12777281 -39.43655014 204.24315643 C-39.43670337 204.98270665 -39.43685661 205.72225686 -39.43701448 206.48421769 C-39.43733434 207.98856515 -39.43765856 209.49291261 -39.43798707 210.99726006 C-39.44081163 224.9731683 -39.43760343 238.94906989 -39.43218671 252.92497703 C-39.42772523 264.80179465 -39.42849516 276.67860248 -39.43310547 288.55541992 C-39.43851203 302.48914714 -39.44053335 316.42286858 -39.43749321 330.35659671 C-39.4371748 331.85537386 -39.43686043 333.35415101 -39.43655014 334.85292816 C-39.43639586 335.58953942 -39.43624159 336.32615068 -39.43608264 337.0850835 C-39.43523523 342.16594877 -39.43666603 347.24681018 -39.43902969 352.32767487 C-39.46456732 390.48731655 -39.46456732 390.48731655 -39.03031898 428.64376402 C-38.99872945 430.4946569 -38.9714257 432.3456293 -38.9489882 434.19665575 C-38.77107206 448.0145469 -38.39292496 461.52120326 -28.55273438 472.21801758 C-18.42959825 481.87173409 -6.16531122 482.72334804 7.13867188 482.52661133 C18.68526829 482.13957458 27.95739931 478.50183156 36.00976562 470.12817383 C42.98481014 461.40936819 43.79538896 450.07618714 44.22363281 439.3684082 C44.26602837 438.33004318 44.30842392 437.29167816 44.35210419 436.22184753 C46.35136322 384.80985037 46.00279925 333.3532858 45.95618826 281.91205728 C45.94723494 271.83076012 45.94881468 261.74950926 45.95800781 251.66821289 C45.96887479 239.74704824 45.9726112 227.8259056 45.96678329 215.90473509 C45.96373822 209.672039 45.96303866 203.43937411 45.96985626 197.2066803 C45.99293538 172.56295785 45.8136497 147.93800429 44.9876399 123.30625439 C44.90921147 120.96746829 44.83436582 118.62855875 44.76345491 116.28953266 C44.69493472 91.46230827 44.69493472 91.46230827 32.95117188 70.57739258 C23.84915428 62.95137783 14.00522904 61.96008683 2.57226562 61.87817383 C1.5590625 61.86802246 0.54585937 61.85787109 -0.49804688 61.84741211 C-11.84356126 61.97852076 -22.09012856 64.76395197 -30.09179688 73.20239258 Z " fill="#EF426C" transform="translate(449.302734375,49.684326171875)"/>
<path d="M0 0 C0.78944 -0.00570007 1.57888 -0.01140015 2.39224243 -0.01727295 C4.05786832 -0.02666461 5.7235123 -0.03323352 7.38916016 -0.03710938 C9.87307522 -0.04671647 12.35612559 -0.07775416 14.83984375 -0.109375 C46.14170675 -0.31682919 75.53913285 8.86796488 98.4140625 30.703125 C120.5360707 53.87280572 126.16371791 85.70702609 127.09347534 116.54968262 C127.11444687 117.22415135 127.13541841 117.89862008 127.15702544 118.59352726 C127.59854077 132.94848424 127.68099739 147.29681668 127.66845703 161.65820312 C127.66981757 164.34150812 127.67156613 167.02481043 127.67376709 169.70811462 C127.67814637 176.15191805 127.67728399 182.59570964 127.67435445 189.03951347 C127.67206894 194.29022369 127.67180128 199.54093066 127.67287827 204.79164124 C127.6730315 205.5472657 127.67318473 206.30289017 127.67334261 207.08141235 C127.67366243 208.61783612 127.67398664 210.15425989 127.6743152 211.69068366 C127.67714701 225.99998326 127.6739194 240.30927638 127.66851483 254.61857492 C127.66404891 266.81912479 127.66482549 279.01966514 127.66943359 291.22021484 C127.67482037 305.48848931 127.67687254 319.75675814 127.67382133 334.02503347 C127.67350288 335.5548919 127.67318851 337.08475033 127.67287827 338.61460876 C127.67272399 339.36676061 127.67256971 340.11891246 127.67241076 340.89385679 C127.67155784 346.12048785 127.67298164 351.34711524 127.67535782 356.57374573 C127.67820205 362.9686762 127.67732246 369.36359446 127.67207707 375.75852358 C127.66950098 379.00301416 127.66889314 382.24748104 127.67172623 385.49197197 C127.68261983 399.25598628 127.52715039 413.00545584 127.11300659 426.76281738 C127.07688928 428.03522136 127.04077196 429.30762534 127.00356019 430.61858702 C125.93211434 462.91048417 117.99608724 493.07121495 94.5390625 516.203125 C93.42917969 517.32847656 93.42917969 517.32847656 92.296875 518.4765625 C70.90617002 538.89863178 40.27489881 544.42965433 11.7890625 544.453125 C11.05462921 544.45379974 10.32019592 544.45447449 9.56350708 544.45516968 C-22.06977362 544.40907649 -52.23667123 537.04976092 -75.4609375 514.203125 C-76.22277344 513.45417969 -76.98460937 512.70523438 -77.76953125 511.93359375 C-101.36188737 487.27815053 -105.63654532 452.85520699 -105.59465027 420.19563293 C-105.59652488 418.8563802 -105.59882813 417.517128 -105.60151559 416.17787665 C-105.60755969 412.54486129 -105.60750886 408.91186919 -105.60632122 405.27884996 C-105.60611532 401.34208544 -105.61165381 397.40532802 -105.61637878 393.46856689 C-105.62464493 385.77362703 -105.62743178 378.07869483 -105.62799116 370.38375089 C-105.6284682 364.12236102 -105.63053226 357.86097366 -105.63369179 351.59958458 C-105.64248694 333.80482206 -105.64711289 316.01006554 -105.64636131 298.21530084 C-105.64632136 297.25826279 -105.6462814 296.30122475 -105.64624023 295.31518555 C-105.64619935 294.35696448 -105.64615847 293.39874341 -105.64611635 292.41148534 C-105.64571009 276.89011002 -105.65527762 261.36875899 -105.6693786 245.84739069 C-105.68377951 229.86844217 -105.69064676 213.88950546 -105.68978482 197.9105503 C-105.68945416 188.95633046 -105.69214369 180.00213609 -105.70296288 171.04792213 C-105.71211688 163.42369428 -105.71420319 155.79950344 -105.70745345 148.17527244 C-105.70421293 144.29427891 -105.70404093 140.41335619 -105.7128067 136.53236961 C-105.77035547 109.33139365 -105.32004838 82.56821514 -94.4609375 57.203125 C-94.00847656 56.14222656 -93.55601562 55.08132812 -93.08984375 53.98828125 C-83.00537656 32.24811261 -63.87788677 16.16958494 -41.66015625 7.6953125 C-28.14110136 3.00646065 -14.31869564 0.08296818 0 0 Z M-21.4609375 72.203125 C-29.28883518 82.93153834 -30.5652873 93.30099066 -30.77267456 106.18458557 C-30.79313819 107.26549953 -30.81360182 108.34641349 -30.83468556 109.46008241 C-30.90012633 113.03003938 -30.95818419 116.60006411 -31.01513672 120.17016602 C-31.03609901 121.41016519 -31.05706131 122.65016436 -31.07865882 123.92773926 C-31.52085244 150.30640683 -31.60967916 176.68140453 -31.595263 203.06321025 C-31.59264654 209.40506062 -31.59510174 215.74690991 -31.59664917 222.08876038 C-31.59855843 233.39144212 -31.59554189 244.69411669 -31.59038983 255.99679673 C-31.58592761 266.09609431 -31.58670297 276.19538036 -31.59130859 286.29467773 C-31.59674756 298.22571192 -31.59860682 310.15674059 -31.59569633 322.08777624 C-31.59417487 328.32903255 -31.59382046 334.57028106 -31.59723282 340.81153679 C-31.60886508 366.0155034 -31.52915832 391.21939341 -31.1885221 416.42133629 C-31.15677114 418.88904509 -31.1295105 421.35681659 -31.10719132 423.82462871 C-31.81075082 449.12694806 -31.81075082 449.12694806 -21.4609375 471.203125 C-20.68943359 472.05970703 -20.68943359 472.05970703 -19.90234375 472.93359375 C-10.58272206 481.98502489 2.70900258 482.58933582 14.94140625 482.41796875 C25.76262765 482.0602975 34.00077515 478.83983069 42.2265625 471.953125 C63.63794283 446.49094298 53.71181222 385.77989299 53.8753171 353.99245334 C53.89629967 349.99242354 53.91964006 345.99240854 53.94285429 341.99239117 C53.99783217 332.49844451 54.048593 323.00448191 54.09667969 313.51049805 C54.14000413 304.97172501 54.18859277 296.43300178 54.2421875 287.89428711 C59.96378592 172.01420661 59.96378592 172.01420661 42.01171875 71.51953125 C31.51849851 61.61886933 18.03371641 61.76098007 4.5078125 61.92578125 C-5.35905855 62.23373794 -14.45539345 64.8535587 -21.4609375 72.203125 Z " fill="#EF426C" transform="translate(722.4609375,49.796875)"/>
<path d="M0 0 C73.92 0 147.84 0 224 0 C224 22.11 224 44.22 224 67 C174.83 67 125.66 67 75 67 C75 121.78 75 176.56 75 233 C78.63 233 82.26 233 86 233 C86.66 231.35 87.32 229.7 88 228 C89.61901746 225.93687706 91.21859373 224.03428328 93 222.125 C93.48911865 221.5983374 93.9782373 221.0716748 94.48217773 220.52905273 C108.18524738 206.15861862 126.79621232 199.24943089 146.39990234 198.71240234 C165.25047188 198.50719871 182.88533607 202.1795577 198 214 C199.010625 214.721875 200.02125 215.44375 201.0625 216.1875 C222.73457412 235.24187977 228.84608111 268.67289874 230.63731384 295.94851685 C233.92952858 347.86039326 236.77814879 404.86602808 226 456 C225.81034668 456.90911133 225.62069336 457.81822266 225.42529297 458.75488281 C220.07276754 483.63809943 209.88037321 508.59025653 187.80859375 523.09765625 C169.42472204 534.3405126 147.52252946 539.09939528 126.11328125 539.203125 C125.17558395 539.20882507 124.23788666 539.21452515 123.27177429 539.22039795 C121.28918569 539.22980544 119.30658175 539.23636493 117.32397461 539.24023438 C114.36607486 539.24982627 111.40890566 539.28084268 108.45117188 539.3125 C76.56255813 539.48904642 43.69255587 533.75930011 19.6875 511.25 C-3.65582098 486.80772397 -7.17559928 450.42042727 -7.1328125 418.34765625 C-7.13348733 416.55692024 -7.13445884 414.76618431 -7.13571167 412.97544861 C-7.13717757 409.24460976 -7.13506815 405.51379501 -7.13037109 401.78295898 C-7.12464535 397.0025725 -7.12797771 392.22224183 -7.13394356 387.44185734 C-7.13755446 383.75387652 -7.13640864 380.06590899 -7.13381577 376.37792778 C-7.13314946 374.61447582 -7.13396455 372.85102265 -7.13629532 371.0875721 C-7.13883366 368.63004469 -7.13496583 366.1726085 -7.12939453 363.71508789 C-7.13141876 362.98934067 -7.13344299 362.26359344 -7.13552856 361.51585388 C-7.12115203 358.09408362 -6.83841649 355.35366598 -6 352 C18.75 352 43.5 352 69 352 C68.67 361.9 68.34 371.8 68 382 C67.88991962 390.9693453 67.88991962 390.9693453 67.86962891 399.93701172 C67.87511126 402.2979138 67.86954613 404.65863381 67.86328125 407.01953125 C67.85923195 414.925383 68.01441356 422.80750317 68.4296875 430.703125 C68.46633514 431.42647034 68.50298279 432.14981567 68.54074097 432.89508057 C69.23820792 444.78615563 71.58378436 456.41271071 79.3125 465.8125 C92.21638963 476.31566598 105.8597953 477.12163573 122 476 C130.49907843 474.84497235 138.86339194 471.403486 144.81640625 465.06640625 C163.37345064 439.71906491 156.21394255 391.26764664 156.24631882 361.2895546 C156.24994749 358.84783649 156.25724149 356.40615375 156.26541138 353.96444702 C156.31213575 337.96330885 156.20446872 321.98787646 155.234375 306.01171875 C155.17364807 304.8791011 155.11292114 303.74648346 155.050354 302.57954407 C154.20901991 290.70545257 151.50971143 277.70149136 142.2578125 269.4453125 C131.26412648 261.7360472 116.4239104 261.70164265 103.59765625 263.46875 C92.77306117 265.80920299 83.95838151 271.33646732 77.4375 280.3125 C73.94543044 286.58445445 73.94543044 286.58445445 71 301 C47.57 301 24.14 301 0 301 C0 201.67 0 102.34 0 0 Z " fill="#EF426C" transform="translate(57,55)"/>
<path d="M0 0 C3.38940661 0.01609359 6.77762125 0.00005346 10.16699219 -0.01904297 C26.93497394 -0.03622171 43.03475115 1.31302688 59.14355469 6.20361328 C60.45283936 6.59154053 60.45283936 6.59154053 61.78857422 6.98730469 C86.40650389 14.4490638 106.92378173 26.59640512 125.39355469 44.39111328 C126.11027344 45.04466797 126.82699219 45.69822266 127.56542969 46.37158203 C133.85012733 52.26662842 138.54469964 59.31655427 143.39355469 66.39111328 C143.95171875 65.68986328 144.50988281 64.98861328 145.08496094 64.26611328 C173.99940889 28.25759604 209.46982904 6.19671441 256.09417725 0.59606934 C260.62371663 0.19232678 265.16120691 0.1857186 269.70605469 0.15283203 C270.79200928 0.14476028 271.87796387 0.13668854 272.99682617 0.12837219 C275.29637078 0.11458307 277.5959354 0.10383796 279.89550781 0.09594727 C282.19895624 0.08453291 284.5023805 0.06425313 286.80566406 0.03442383 C331.08781542 -0.53730908 371.82355593 11.55681978 404.39355469 42.39111328 C405.27785156 43.21095703 406.16214844 44.03080078 407.07324219 44.87548828 C440.07962169 76.47933041 450.13038507 121.26661158 451.39355469 165.39111328 C451.55475606 174.92068408 451.53286574 184.45197141 451.52427936 193.98260713 C451.52198329 197.76590791 451.52552545 201.54920439 451.52825928 205.33250427 C451.53267162 212.71413429 451.53176088 220.09575405 451.52884664 227.47738445 C451.52657462 233.484522 451.52628782 239.4916567 451.52737045 245.49879456 C451.5276003 246.78846395 451.5276003 246.78846395 451.5278348 248.10418728 C451.52815457 249.85161571 451.52847878 251.59904414 451.52880739 253.34647256 C451.53164889 269.67554341 451.5283961 286.00460862 451.52300702 302.33367854 C451.5185402 316.29992914 451.5193165 330.26617143 451.52392578 344.23242188 C451.52929512 360.50895496 451.53137432 376.78548312 451.52831352 393.06201696 C451.52799502 394.80248864 451.52768065 396.54296033 451.52737045 398.28343201 C451.52721618 399.13944882 451.5270619 399.99546564 451.52690295 400.87742236 C451.52604486 406.86705904 451.52748532 412.85669255 451.52985001 418.84632874 C451.53267451 426.16039185 451.53185443 433.47444424 451.52656926 440.78850615 C451.52396766 444.5096493 451.52286595 448.23077469 451.52621841 451.95191765 C451.57243838 508.25337537 445.46540601 561.15112062 403.87597656 602.94335938 C376.13360134 630.03695046 336.14096773 644.42065964 297.71777344 644.59423828 C296.71253128 644.59993835 295.70728912 644.60563843 294.67158508 644.61151123 C292.54954055 644.62091221 290.42748174 644.62747558 288.30541992 644.63134766 C285.12814309 644.64097066 281.95153733 644.67200749 278.77441406 644.70361328 C261.93372055 644.79186009 245.58356731 643.33861912 229.33105469 638.70361328 C228.42605225 638.44942627 227.5210498 638.19523926 226.58862305 637.93334961 C191.87886356 627.80979601 164.42861609 606.46396237 143.39355469 577.39111328 C142.88050781 578.19291016 142.36746094 578.99470703 141.83886719 579.82080078 C119.85042145 612.93461811 85.46693114 633.12782777 47.03833008 641.3112793 C36.66076782 643.39032387 26.52680426 644.5452573 15.93652344 644.59423828 C14.95347733 644.59993835 13.97043121 644.60563843 12.95759583 644.61151123 C10.88262998 644.62091057 8.80764954 644.62747491 6.73266602 644.63134766 C3.6278109 644.6409684 0.52364323 644.67200576 -2.58105469 644.70361328 C-19.23478517 644.79278033 -35.4642004 643.31845118 -51.54394531 638.76611328 C-52.4437915 638.51450439 -53.3436377 638.26289551 -54.27075195 638.00366211 C-85.85345969 628.77382404 -112.84334403 610.65846887 -132.47753906 584.17626953 C-134.09988291 582.05382702 -135.65189187 580.19483302 -137.60644531 578.39111328 C-137.86296875 579.10912109 -138.11949219 579.82712891 -138.38378906 580.56689453 C-142.31893631 589.6567075 -149.88692278 597.26579365 -156.60644531 604.39111328 C-157.21875 605.06787109 -157.83105469 605.74462891 -158.46191406 606.44189453 C-179.41808889 628.73854963 -211.04999717 639.32046473 -240.60644531 643.39111328 C-241.21348801 643.47585403 -241.8205307 643.56059479 -242.44596863 643.64790344 C-249.11990813 644.49260677 -255.75661167 644.5866888 -262.47753906 644.62939453 C-263.71270767 644.63746628 -264.94787628 644.64553802 -266.22047424 644.65385437 C-268.83520123 644.66764331 -271.44994583 644.6783885 -274.06469727 644.6862793 C-276.6871484 644.69770294 -279.30957812 644.71799818 -281.93188477 644.74780273 C-324.61750377 645.23154606 -367.63153155 637.21790892 -400.60644531 608.39111328 C-401.41597656 607.71435547 -402.22550781 607.03759766 -403.05957031 606.34033203 C-407.20941005 602.83618414 -407.20941005 602.83618414 -408.60644531 601.39111328 C-408.60644531 600.73111328 -408.60644531 600.07111328 -408.60644531 599.39111328 C-409.26644531 599.39111328 -409.92644531 599.39111328 -410.60644531 599.39111328 C-412.57715235 597.0565834 -414.4177002 594.71900356 -416.23144531 592.26611328 C-416.77051514 591.53908203 -417.30958496 590.81205078 -417.86499023 590.06298828 C-438.69607323 561.51312016 -448.81884687 525.68342737 -448.73583984 490.48535156 C-448.73759216 489.55041367 -448.73934448 488.61547577 -448.7411499 487.65220642 C-448.74551794 484.58859346 -448.74264587 481.52503924 -448.73925781 478.46142578 C-448.73993287 476.30402617 -448.74090457 474.14662664 -448.74215698 471.98922729 C-448.74362762 467.47214024 -448.7415019 462.95507302 -448.73681641 458.43798828 C-448.73115387 452.70517942 -448.73438001 446.97241776 -448.74038887 441.23961067 C-448.74404109 436.78150085 -448.74283417 432.32340178 -448.74026108 427.8652916 C-448.73960283 425.75501372 -448.74038077 423.64473481 -448.74274063 421.53445816 C-448.75240827 410.44985199 -448.5843028 399.41897843 -447.96696854 388.35059452 C-447.56986479 381.15422653 -447.46176893 373.97753698 -447.47363281 366.77001953 C-447.47260553 365.39940363 -447.47125971 364.02878793 -447.46963501 362.65817261 C-447.46691657 358.89458048 -447.47149089 355.13102955 -447.47787476 351.36744308 C-447.48153461 348.89324575 -447.4830874 346.41905448 -447.48413086 343.94485474 C-447.49569937 321.47547407 -447.62611421 299.00794435 -447.83300781 276.53955078 C-447.84378294 275.36222759 -447.85455807 274.1849044 -447.86565971 272.97190475 C-447.92215671 266.80550638 -447.97907554 260.63911191 -448.03598022 254.47271729 C-448.04757046 253.21456459 -448.05916069 251.9564119 -448.07110214 250.66013336 C-448.09464925 248.10741335 -448.11829262 245.55469423 -448.14203262 243.00197601 C-448.48472257 205.95967088 -448.65454011 168.91942512 -448.67285156 131.87548828 C-448.67333142 130.96260072 -448.67381128 130.04971315 -448.67430568 129.10916233 C-448.69472307 87.86982334 -448.63920091 46.63040493 -448.60644531 5.39111328 C-339.04644531 5.39111328 -229.48644531 5.39111328 -116.60644531 5.39111328 C-116.60644531 17.27111328 -116.60644531 29.15111328 -116.60644531 41.39111328 C-112.97644531 38.42111328 -109.34644531 35.45111328 -105.60644531 32.39111328 C-89.02342367 19.70997909 -71.20007886 11.01709841 -51.04394531 5.57861328 C-50.04004761 5.30464722 -50.04004761 5.30464722 -49.01586914 5.02514648 C-46.55707924 4.40652009 -44.092781 3.88912744 -41.60644531 3.39111328 C-40.31754395 3.13072266 -39.02864258 2.87033203 -37.70068359 2.60205078 C-25.13659586 0.25259942 -12.75768076 -0.07187945 0 0 Z M-74.60644531 30.39111328 C-75.60933594 30.88482422 -76.61222656 31.37853516 -77.64550781 31.88720703 C-88.49578583 37.52629519 -97.74997004 45.02506172 -106.60644531 53.39111328 C-107.73179687 54.41978516 -107.73179687 54.41978516 -108.87988281 55.46923828 C-117.31998616 63.46512566 -124.13577232 73.15081464 -129.60644531 83.39111328 C-129.60644531 84.05111328 -129.60644531 84.71111328 -129.60644531 85.39111328 C-130.59644531 85.39111328 -131.58644531 85.39111328 -132.60644531 85.39111328 C-132.27644531 84.73111328 -131.94644531 84.07111328 -131.60644531 83.39111328 C-131.60644531 62.60111328 -131.60644531 41.81111328 -131.60644531 20.39111328 C-231.59644531 20.39111328 -331.58644531 20.39111328 -434.60644531 20.39111328 C-434.64287888 60.38510896 -434.64287888 60.38510896 -434.42285156 100.37597656 C-434.40293968 102.63958558 -434.38324446 104.90319652 -434.36373901 107.16680908 C-434.32247651 111.90920381 -434.27986508 116.65158338 -434.23605347 121.39395523 C-434.16608997 128.9776911 -434.10004131 136.56145861 -434.03442383 144.14523315 C-433.94152152 154.84618244 -433.84746526 165.54712057 -433.75195312 176.24804688 C-433.74298128 177.25334862 -433.74298128 177.25334862 -433.73382819 178.2789595 C-433.6673253 185.72764191 -433.60054215 193.17632179 -433.53356934 200.625 C-432.51183843 314.28246698 -432.51183843 314.28246698 -432.48350906 351.08525229 C-432.48149739 353.09684638 -432.47757523 355.10843827 -432.47360229 357.12002945 C-432.4499866 371.82630083 -432.72430445 386.46046579 -433.60644531 401.14111328 C-434.60034067 418.0313417 -434.8361041 434.8900082 -434.85321045 451.80537415 C-434.85637784 453.84760614 -434.86343784 455.88978922 -434.87158203 457.93200684 C-434.93764951 479.31210333 -434.96366873 501.14265141 -430.41894531 522.14111328 C-430.20391357 523.16221191 -429.98888184 524.18331055 -429.76733398 525.23535156 C-422.59951746 557.83564302 -407.02734414 588.05325001 -378.61425781 606.94580078 C-359.79661473 618.77485191 -338.48748558 625.22446841 -316.60644531 628.39111328 C-315.93049316 628.49407715 -315.25454102 628.59704102 -314.55810547 628.703125 C-270.75577508 635.0903342 -217.51958672 632.17412801 -180.421875 605.75488281 C-160.05574495 590.45563558 -147.20248846 570.10624198 -138.60644531 546.39111328 C-138.60644531 545.73111328 -138.60644531 545.07111328 -138.60644531 544.39111328 C-135.87530993 545.75668097 -135.71063733 547.14769807 -134.54394531 549.95361328 C-129.0845906 562.26517859 -122.59119453 573.30875073 -113.60644531 583.39111328 C-112.89875 584.23029297 -112.19105469 585.06947266 -111.46191406 585.93408203 C-86.91144094 614.46571296 -49.60492861 627.27968295 -12.99707031 630.07861328 C19.87878874 632.18573316 54.42074245 628.51097809 83.63427734 612.36279297 C85.27494578 611.45662306 86.93330803 610.58269577 88.59277344 609.71142578 C96.74868339 605.25499394 103.56854314 599.63277224 110.39355469 593.39111328 C111.35519531 592.51326172 112.31683594 591.63541016 113.30761719 590.73095703 C125.36205762 579.20283723 137.00980191 563.34608897 142.39355469 547.39111328 C142.39355469 546.40111328 142.39355469 545.41111328 142.39355469 544.39111328 C143.38355469 544.39111328 144.37355469 544.39111328 145.39355469 544.39111328 C145.53083984 545.39464844 145.53083984 545.39464844 145.67089844 546.41845703 C146.59020635 550.20004256 148.20428665 553.5036481 149.95605469 556.95361328 C150.31465576 557.6603418 150.67325684 558.36707031 151.04272461 559.09521484 C157.01594194 570.64717944 164.42013879 580.09444753 173.39355469 589.39111328 C174.12316406 590.18388672 174.85277344 590.97666016 175.60449219 591.79345703 C195.5073737 612.84315886 225.10016126 624.67638344 253.39355469 628.39111328 C254.13428223 628.49117676 254.87500977 628.59124023 255.63818359 628.69433594 C298.4742961 634.30161927 345.22422427 629.08061109 380.62792969 602.52783203 C381.99691406 601.47015625 381.99691406 601.47015625 383.39355469 600.39111328 C384.34746094 599.65505859 385.30136719 598.91900391 386.28417969 598.16064453 C391.96021486 593.65548547 396.8562555 589.03093376 401.39355469 583.39111328 C402.02777344 582.64345703 402.66199219 581.89580078 403.31542969 581.12548828 C431.19676483 547.62465923 435.79115253 506.44901927 436.93994141 464.41845703 C436.97185314 463.26066868 436.97185314 463.26066868 437.00440955 462.07949066 C437.62578084 438.7215427 437.53998702 415.35547722 437.52788019 391.99116516 C437.52556311 386.09503543 437.5273557 380.19890757 437.52880739 374.30277777 C437.53163023 361.91467137 437.5284261 349.52657248 437.52300702 337.13846731 C437.51854194 326.60679347 437.51931878 316.07513067 437.52392578 305.54345703 C437.5293289 293.18682297 437.53135584 280.83019541 437.52831352 268.47356033 C437.52677641 261.97891221 437.52648463 255.48427162 437.52985001 248.98962402 C441.51682668 145.03417905 441.51682668 145.03417905 396.39355469 55.39111328 C395.79285156 54.72595703 395.19214844 54.06080078 394.57324219 53.37548828 C369.9826802 27.18813655 331.89179127 15.47289734 296.86767578 14.27001953 C272.76250171 13.66640931 249.54115532 15.11912549 226.39355469 22.39111328 C225.70745117 22.60606445 225.02134766 22.82101563 224.31445312 23.04248047 C190.2408896 34.04934382 164.71273011 57.99648711 148.39355469 89.39111328 C146.08832876 94.1716759 146.08832876 94.1716759 145.39355469 99.39111328 C144.40355469 99.39111328 143.41355469 99.39111328 142.39355469 99.39111328 C142.25240234 98.38371094 142.25240234 98.38371094 142.10839844 97.35595703 C135.97805887 71.93012245 111.94966747 48.96364092 90.70605469 35.70361328 C71.91457833 24.34306944 51.07519692 18.19845853 29.39355469 15.39111328 C28.65878906 15.29540039 27.92402344 15.1996875 27.16699219 15.10107422 C-7.14061742 11.14577543 -43.4788968 15.03718767 -74.60644531 30.39111328 Z " fill="#EF426C" transform="translate(448.6064453125,-0.39111328125)"/>
</svg>
