<?xml version="1.0" encoding="UTF-8"?>
<svg version="1.1" xmlns="http://www.w3.org/2000/svg" width="900" height="756">
<path d="M0 0 C3.04029878 1.59354599 5.56375086 3.67557769 8.1875 5.875 C8.92363525 6.46490723 9.65977051 7.05481445 10.41821289 7.66259766 C11.91422209 8.86154426 13.40446132 10.06772806 14.88867188 11.28125 C17.8624026 13.70204837 20.89448196 16.0423569 23.9375 18.375 C24.96101563 19.16648437 25.98453125 19.95796875 27.0390625 20.7734375 C30.69618361 23.52351538 34.45347843 26.10118764 38.26953125 28.625 C38.84058594 29.07875 39.41164063 29.5325 40 30 C40 30.66 40 31.32 40 32 C40.68449219 32.21914063 41.36898437 32.43828125 42.07421875 32.6640625 C45.83237644 34.38007042 48.65267715 36.74472849 51.8125 39.375 C57.16528817 43.74611202 62.57943508 48.00092695 68.125 52.125 C74.31242083 56.72764418 80.43669203 61.4017443 86.5234375 66.13671875 C88.83579907 67.99305508 88.83579907 67.99305508 91 69 C91 69.66 91 70.32 91 71 C91.55816406 71.2578125 92.11632812 71.515625 92.69140625 71.78125 C100.39503986 75.84814287 107.20658427 81.89174378 114.09155273 87.21679688 C117.70418883 90.01009968 121.34139788 92.76689407 125 95.5 C132.3967736 101.03057054 139.70444167 106.67512628 147.0078125 112.328125 C154.53774068 118.14407976 162.13301219 123.86856245 169.75805664 129.55932617 C170.5649292 130.16236572 171.37180176 130.76540527 172.203125 131.38671875 C173.00298828 131.97372559 173.80285156 132.56073242 174.62695312 133.16552734 C177 135 177 135 179.29492188 137.11962891 C183.19924823 140.86770779 183.19924823 140.86770779 188.24047852 141.90234375 C190.63271107 141.12909686 192.76075209 140.14067589 195 139 C196.51069523 138.3804031 198.02507988 137.76972765 199.54296875 137.16796875 C201.09262922 136.51130219 202.64077354 135.8510479 204.1875 135.1875 C205.01266113 134.8371167 205.83782227 134.4867334 206.68798828 134.12573242 C210.42626233 132.53629569 214.15866182 130.93355508 217.88671875 129.3203125 C223.18348472 127.03078096 228.47621395 124.7887521 233.875 122.75 C241.32149458 119.93240746 248.64879475 116.83560909 255.98388672 113.74121094 C262.19679927 111.13032919 268.44870586 108.65699276 274.74511719 106.25488281 C280.06869769 104.20243729 285.34561296 102.03806567 290.625 99.875 C292.97394491 98.91533172 295.32290368 97.95569737 297.671875 96.99609375 C298.87005859 96.50608887 300.06824219 96.01608398 301.30273438 95.51123047 C307.49144668 92.98163927 313.68330976 90.45979111 319.875 87.9375 C321.01533691 87.47263184 322.15567383 87.00776367 323.33056641 86.52880859 C324.39452637 86.0952002 325.45848633 85.6615918 326.5546875 85.21484375 C327.95436768 84.64431274 327.95436768 84.64431274 329.38232422 84.06225586 C330.24615723 83.71171143 331.10999023 83.36116699 332 83 C332.87543457 82.62431885 333.75086914 82.2486377 334.65283203 81.86157227 C337 81 337 81 340 81 C338.4027658 86.39107261 336.02125108 91.21439225 333.4921875 96.2109375 C333.04787384 97.09673492 332.60356018 97.98253235 332.14578247 98.89517212 C330.7259509 101.72369068 329.30060402 104.54938716 327.875 107.375 C326.93973191 109.23548999 326.00483269 111.09616547 325.0703125 112.95703125 C323.24210627 116.5961578 321.41237575 120.23451025 319.58105469 123.87207031 C312.11852232 138.60231119 312.11852232 138.60231119 305 153.5 C301.57354722 160.93984423 297.89409231 168.25045658 294.21923828 175.56958008 C291.94330153 180.10641434 289.67548826 184.64731271 287.40625 189.1875 C286.42972018 191.14064134 285.45315743 193.09376621 284.4765625 195.046875 C283.98833008 196.02333984 283.50009766 196.99980469 282.99707031 198.00585938 C278.99804688 206.00390625 274.99902344 214.00195312 271 222 C273.80724224 224.86140223 276.59068319 227.5998017 279.7578125 230.05859375 C280.80533691 230.87396606 280.80533691 230.87396606 281.87402344 231.70581055 C282.6168457 232.27726807 283.35966797 232.84872559 284.125 233.4375 C284.90907227 234.04440674 285.69314453 234.65131348 286.50097656 235.27661133 C292.97789088 240.26671513 299.55159519 245.11922163 306.15258789 249.94335938 C311.61473023 253.94542579 316.96473141 258.06405863 322.25537109 262.28955078 C326.46538873 265.63513499 330.81283584 268.70651103 335.3046875 271.66015625 C336.14386719 272.32337891 336.14386719 272.32337891 337 273 C337 273.66 337 274.32 337 275 C337.68835938 275.22171875 338.37671875 275.4434375 339.0859375 275.671875 C342.73787809 277.33629833 345.57139547 279.69829045 348.625 282.25 C354.47650421 287.04012652 360.45178606 291.6081386 366.5625 296.0625 C372.89633883 300.68363329 379.12860575 305.39601413 385.25463867 310.2890625 C389.46500433 313.6346814 393.8125845 316.70634576 398.3046875 319.66015625 C399.14386719 320.32337891 399.14386719 320.32337891 400 321 C400 321.66 400 322.32 400 323 C400.5775 323.27199219 401.155 323.54398437 401.75 323.82421875 C407.99680178 327.08860648 413.80158216 331.60316432 417 338 C417.48032374 343.70089163 417.84919279 349.08931622 415.5 354.375 C412.21483435 357.82442393 408.85218828 361.18173238 405 364 C404.34 364 403.68 364 403 364 C403 364.66 403 365.32 403 366 C401.05078125 367.59375 401.05078125 367.59375 398.3125 369.5 C393.99134466 372.56358834 389.74751057 375.69067178 385.5625 378.9375 C380.43624445 382.90465095 375.2677193 386.80979321 370.0703125 390.68359375 C367.84012242 392.36616719 365.62900844 394.06320271 363.4296875 395.78515625 C362.83671875 396.24792969 362.24375 396.71070313 361.6328125 397.1875 C360.48115771 398.08834997 359.33258989 398.99316358 358.1875 399.90234375 C354.22171079 403 354.22171079 403 352 403 C352 403.66 352 404.32 352 405 C349.8828125 406.7265625 349.8828125 406.7265625 347.125 408.625 C345.76761719 409.57246094 345.76761719 409.57246094 344.3828125 410.5390625 C342 412 342 412 340 412 C340 412.66 340 413.32 340 414 C338.30456109 415.42188405 336.53982929 416.76143179 334.75 418.0625 C333.63401938 418.88138068 332.51813645 419.70039453 331.40234375 420.51953125 C330.83112793 420.93541504 330.25991211 421.35129883 329.67138672 421.77978516 C327.20258743 423.5821601 324.75744581 425.41544288 322.3125 427.25 C321.33410156 427.98347656 320.35570312 428.71695312 319.34765625 429.47265625 C314.58929531 433.05564516 309.86407874 436.68229523 305.13793945 440.30761719 C303.77753563 441.35053433 302.41582362 442.3917475 301.05273438 443.43115234 C299.62230915 444.52438646 298.19689095 445.62418989 296.77539062 446.72900391 C296.06060547 447.27862793 295.34582031 447.82825195 294.609375 448.39453125 C293.96452148 448.8944458 293.31966797 449.39436035 292.65527344 449.90942383 C291 451 291 451 289 451 C289 451.66 289 452.32 289 453 C287.30456109 454.42188405 285.53982929 455.76143179 283.75 457.0625 C282.62881666 457.8852946 281.50772514 458.70821434 280.38671875 459.53125 C279.8148584 459.94761719 279.24299805 460.36398437 278.65380859 460.79296875 C276.27480306 462.52928457 273.91826895 464.29482344 271.5625 466.0625 C270.59441406 466.78824219 269.62632812 467.51398438 268.62890625 468.26171875 C261.12093462 473.91413311 253.66137643 479.63102915 246.19140625 485.33349609 C245.46824219 485.88344238 244.74507812 486.43338867 244 487 C243.28714844 487.5667041 242.57429687 488.1334082 241.83984375 488.71728516 C240 490 240 490 238 490 C238 490.66 238 491.32 238 492 C236.05078125 493.59375 236.05078125 493.59375 233.3125 495.5 C228.99134302 498.5635895 224.7475421 501.69071227 220.5625 504.9375 C216.48179965 508.0949921 212.38399708 511.22472653 208.25 514.3125 C202.55830834 518.56621136 196.91559133 522.88196743 191.27612305 527.20458984 C187.22367394 530.30807348 183.15622749 533.38849631 179.0625 536.4375 C174.15658267 540.10191988 169.32456473 543.85428459 164.5 547.625 C157.1069959 553.40073527 149.63030608 559.0557991 142.11572266 564.67211914 C133.97680645 570.7568523 125.91650829 576.93717705 117.91015625 583.1953125 C109.04836107 590.11727083 100.12254321 596.94036258 91.11547852 603.67236328 C82.85628452 609.8468139 74.67721529 616.11837825 66.55859375 622.4765625 C62.71615997 625.48511823 58.8611788 628.47680615 54.99560547 631.45556641 C53.29106574 632.77473919 51.59925166 634.1103277 49.91015625 635.44921875 C46.28576831 638.20241329 43.38421068 640.3837596 38.75 640.6875 C33.49871676 639.72476474 30.52659037 637.83190844 27.125 633.75 C25.09086169 628.77766191 25.381723 623.97362381 27.38598633 619.07617188 C28.01913542 617.69977943 28.66868371 616.33084543 29.33203125 614.96875 C29.67965012 614.22366684 30.02726898 613.47858368 30.38542175 612.71092224 C31.51381073 610.30042163 32.66297563 607.90048263 33.8125 605.5 C34.59855749 603.82958701 35.38305277 602.15843802 36.16601562 600.48657227 C37.72043958 597.17147843 39.28195288 593.85989433 40.85009766 590.55126953 C43.61833289 584.70343529 46.3150841 578.82404213 49 572.9375 C49.42974121 571.99962646 49.85948242 571.06175293 50.30224609 570.09545898 C55.94995651 557.76713321 61.50029028 545.39497765 67 533 C66.36610352 533.27674561 65.73220703 533.55349121 65.07910156 533.83862305 C62.13651055 535.1225996 59.19325848 536.40505425 56.25 537.6875 C55.25355469 538.12255859 54.25710938 538.55761719 53.23046875 539.00585938 C48.32309376 541.14294203 43.4083852 543.2541558 38.4609375 545.296875 C28.83189693 549.2903813 19.30479288 553.52489769 9.7578125 557.7097168 C-7.44339314 565.24654385 -7.44339314 565.24654385 -15.12402344 568.25415039 C-17.56459762 569.22447237 -19.93872305 570.31471516 -22.3125 571.4375 C-27.37336448 573.76834885 -32.52073436 575.77467587 -37.73046875 577.74609375 C-44.20178563 580.22792495 -50.58586874 582.91567001 -56.91162109 585.74682617 C-62.73805949 588.33879704 -68.59911913 590.84868212 -74.4609375 593.359375 C-75.64611969 593.8674469 -76.83130188 594.3755188 -78.05239868 594.89898682 C-80.55510979 595.97178674 -83.05800508 597.04415545 -85.56103516 598.11621094 C-88.70882656 599.46445923 -91.85615523 600.81378381 -95.00335598 602.16341019 C-106.23004397 606.97736183 -117.45773499 611.78876462 -128.71484375 616.53125 C-129.79365311 616.98585602 -129.79365311 616.98585602 -130.89425659 617.449646 C-136.68734201 619.88326229 -142.50276022 622.26135232 -148.32873535 624.61506653 C-151.66163366 625.96383741 -154.89249718 627.41999936 -158.09765625 629.05078125 C-161.41381107 630.73770005 -164.7576987 632.1435576 -168.25 633.4375 C-178.58041364 637.2779517 -188.67924067 641.69821598 -198.78125 646.09765625 C-200.40845222 646.80488327 -200.40845222 646.80488327 -202.06852722 647.52639771 C-204.36634039 648.5250969 -206.66400105 649.52414706 -208.96151733 650.52352905 C-214.90686531 653.10930343 -220.85376439 655.69150415 -226.80078125 658.2734375 C-228.53627983 659.02692726 -228.53627983 659.02692726 -230.30683899 659.79563904 C-239.09342427 663.60922076 -247.88473045 667.41142483 -256.6875 671.1875 C-257.73292969 671.63681885 -258.77835938 672.0861377 -259.85546875 672.54907227 C-265.15567765 674.81760086 -270.48181301 677.00050204 -275.84057617 679.12670898 C-278.371494 680.15023562 -280.84480299 681.27029143 -283.3125 682.4375 C-288.37336448 684.76834885 -293.52073436 686.77467587 -298.73046875 688.74609375 C-305.19717049 691.22615499 -311.57684798 693.91186162 -317.8984375 696.74023438 C-323.80100534 699.36604786 -329.73601055 701.91539601 -335.671875 704.46484375 C-337.47099335 705.23762413 -337.47099335 705.23762413 -339.30645752 706.02601624 C-341.83430073 707.11150882 -344.36240366 708.19639432 -346.890625 709.28100586 C-350.09269239 710.65489803 -353.29354029 712.03160756 -356.49412155 713.40895748 C-359.59412698 714.74221385 -362.69561017 716.07201955 -365.796875 717.40234375 C-366.92647644 717.88895981 -368.05607788 718.37557587 -369.21990967 718.87693787 C-375.80105578 721.69490827 -382.41989501 724.35199322 -389.1260376 726.85890198 C-392.7001418 728.27798917 -396.07054394 729.98802268 -399.484375 731.75 C-406.25998055 735.11676052 -413.36473621 737.77030112 -420.4375 740.4375 C-424.7941455 742.09643619 -429.03030339 743.89389711 -433.25 745.875 C-438.45823912 748.31398027 -443.70118525 750.64123047 -449 752.875 C-449.71833008 753.18550293 -450.43666016 753.49600586 -451.17675781 753.81591797 C-454.90943076 755.37105184 -457.93808051 756.39667183 -462 756 C-460.48609853 750.99044998 -458.38460551 746.49231042 -456.03903198 741.83755493 C-455.43618651 740.62930071 -455.43618651 740.62930071 -454.82116234 739.39663732 C-453.47685272 736.70473035 -452.12685404 734.01571804 -450.77685547 731.32666016 C-449.8107118 729.39493708 -448.84492061 727.46303768 -447.87945557 725.53097534 C-445.25927034 720.29003099 -442.63415865 715.05156818 -440.00816107 709.81353426 C-437.26398421 704.33768152 -434.52433702 698.85956353 -431.78421021 693.38168335 C-426.59550094 683.01048143 -421.40271635 672.64132559 -416.2084676 662.27289712 C-410.29485829 650.46803181 -404.38579106 638.66089505 -398.47710586 626.8535645 C-386.32312588 602.56651067 -374.16343952 578.28231752 -362 554 C-365.70140614 555.50382073 -369.40240779 557.00863237 -373.10305786 558.51431274 C-374.97189994 559.27445524 -376.84104955 560.03384149 -378.71020508 560.79321289 C-384.78941109 563.26718899 -390.85500334 565.76010831 -396.875 568.375 C-400.9167926 570.12851617 -404.97417484 571.78169027 -409.09375 573.34375 C-415.64171736 575.84877678 -422.13783196 578.46710707 -428.625 581.125 C-430.98045812 582.0872656 -433.33592721 583.04950436 -435.69140625 584.01171875 C-437.48989014 584.74720947 -437.48989014 584.74720947 -439.32470703 585.49755859 C-445.40215765 587.98199005 -451.48231674 590.45976424 -457.5625 592.9375 C-459.21016357 593.60966553 -459.21016357 593.60966553 -460.89111328 594.29541016 C-462.95674515 595.13748152 -465.0231139 595.9777483 -467.09033203 596.81591797 C-469.02681417 597.60396448 -470.9601253 598.39984945 -472.89013672 599.20361328 C-473.78104004 599.57083496 -474.67194336 599.93805664 -475.58984375 600.31640625 C-476.37093506 600.6419751 -477.15202637 600.96754395 -477.95678711 601.30297852 C-480 602 -480 602 -483 602 C-482.44575197 596.86634111 -480.65587979 592.75894593 -478.34155273 588.21313477 C-477.96411423 587.45606735 -477.58667572 586.69899994 -477.19779968 585.91899109 C-475.95072802 583.42254129 -474.69232716 580.93199371 -473.43359375 578.44140625 C-472.55673474 576.6926188 -471.68052972 574.9435033 -470.8049469 573.19407654 C-468.96616909 569.52415967 -467.12226192 565.85688548 -465.27416992 562.19165039 C-462.92647107 557.53553416 -460.58719137 552.87525929 -458.25129604 548.21321201 C-456.00234077 543.72538069 -453.74950351 539.23950217 -451.49609375 534.75390625 C-451.07600981 533.91713411 -450.65592587 533.08036198 -450.22311211 532.21823311 C-445.47380212 522.76579619 -440.65152934 513.36258117 -435.63587952 504.04841614 C-433.69658948 500.4346029 -431.83084834 496.79487011 -430 493.125 C-429.51055908 492.14430542 -429.51055908 492.14430542 -429.01123047 491.14379883 C-427.00139316 487.09282583 -425.06051626 483.01410712 -423.15803528 478.9117403 C-420.23039136 472.60819605 -417.19234539 466.40668215 -413.90234375 460.28442383 C-406.32833187 446.02273452 -399.24145932 431.50973784 -392.06228638 417.04691124 C-389.39125093 411.66690839 -386.71465981 406.28968136 -384.03686523 400.91304016 C-383.58162885 399.99893 -383.12639246 399.08481984 -382.65736103 398.14300936 C-381.7277902 396.2764648 -380.79820721 394.4099263 -379.86861229 392.54339373 C-373.65150159 380.05949781 -367.43802521 367.57382638 -361.23925781 355.08081055 C-357.0335172 346.60465363 -352.81911285 338.13286611 -348.59488392 329.6659072 C-346.36938479 325.20430405 -344.14820664 320.74067166 -341.93771362 316.27161217 C-339.85995849 312.07106055 -337.77073588 307.87640795 -335.67306137 303.68577003 C-334.9118826 302.1602025 -334.15473265 300.63261596 -333.40225601 299.10273743 C-326.40120648 284.87957503 -318.01316729 272.48787278 -307 261 C-306.23171875 260.16855469 -305.4634375 259.33710938 -304.671875 258.48046875 C-288.14934146 241.13180853 -266.39807859 233.15127922 -244.609375 224.4453125 C-238.62593975 222.04934817 -232.65661753 219.61886919 -226.6875 217.1875 C-225.55127197 216.72545166 -224.41504395 216.26340332 -223.24438477 215.78735352 C-216.53415627 213.05296888 -209.86237451 210.24986358 -203.21728516 207.36083984 C-200.16532122 206.06992719 -197.09563858 204.87055405 -193.99609375 203.69921875 C-186.92061645 200.99270814 -179.92808706 198.10503182 -172.9375 195.1875 C-163.6489375 191.32270041 -154.34207094 187.51258268 -144.98974609 183.80419922 C-139.31554206 181.54656776 -133.68387689 179.19837536 -128.0625 176.8125 C-121.8087246 174.15880575 -115.53000824 171.61698533 -109.17578125 169.2109375 C-105.58273609 167.84089568 -102.00793732 166.4276276 -98.4375 165 C-97.30183594 164.54625 -96.16617187 164.0925 -94.99609375 163.625 C-87.49607084 160.5923007 -80.04160223 157.4486459 -72.59765625 154.28125 C-71.52193359 153.82363281 -70.44621094 153.36601562 -69.33789062 152.89453125 C-67.15760324 151.96625147 -64.977913 151.03656785 -62.79882812 150.10546875 C-56.34862336 147.36480724 -49.860311 144.77487338 -43.31079102 142.28173828 C-37.47615834 140.02292097 -31.71114923 137.59697872 -25.9375 135.1875 C-23.37565132 134.12212558 -20.81301088 133.05866893 -18.25 131.99609375 C-17.62330917 131.73627716 -16.99661835 131.47646057 -16.35093689 131.20877075 C-7.93322478 127.72407518 0.53147591 124.35876635 9 121 C12.66760906 119.54402443 16.33404996 118.08514687 20 116.625 C20.84377197 116.29081055 21.68754395 115.95662109 22.55688477 115.61230469 C23.34248779 115.29938477 24.12809082 114.98646484 24.9375 114.6640625 C25.62714844 114.39029785 26.31679688 114.1165332 27.02734375 113.83447266 C29.06598688 112.97208624 31.03104674 112.01035493 33 111 C32.62415771 110.17314697 32.24831543 109.34629395 31.86108398 108.49438477 C31.32813721 107.32190186 30.79519043 106.14941895 30.24609375 104.94140625 C29.80827072 103.97824997 29.80827072 103.97824997 29.36160278 102.99563599 C27.70228379 99.34528638 26.0432077 95.69482664 24.38452148 92.04418945 C20.6975432 83.93013368 17.00659835 75.81792728 13.30621338 67.7099762 C11.77781013 64.35931835 10.25326219 61.00699049 8.73632812 57.65112305 C8.43172668 56.97731094 8.12712524 56.30349884 7.81329346 55.60926819 C7.19169519 54.23411708 6.57023579 52.85890318 5.94891357 51.48362732 C3.85836196 46.86635016 1.73343141 42.26604937 -0.40715027 37.67176819 C-1.93668898 34.37931417 -3.44860881 31.0789445 -4.95755005 27.77700806 C-5.68791409 26.18929785 -6.42581616 24.60503126 -7.17160034 23.02450562 C-8.20858957 20.8244001 -9.21818676 18.61353893 -10.22265625 16.3984375 C-10.69162827 15.42870247 -10.69162827 15.42870247 -11.17007446 14.43937683 C-12.73057693 10.9195576 -13.00011275 9.00067721 -12.36108398 5.16259766 C-9.93403813 -0.47685562 -5.63572316 -1.11581022 0 0 Z " fill="#FEFEFE" transform="translate(483,0)"/>
<path d="M0 0 C-1.42815703 3.71171383 -3.06456644 7.25264237 -4.84414673 10.80854797 C-5.42432556 11.9702803 -6.00450439 13.13201263 -6.6022644 14.32894897 C-7.24343222 15.60774561 -7.88463834 16.88652305 -8.52587891 18.1652832 C-9.20301207 19.51926728 -9.8799688 20.8733396 -10.5567627 22.22749329 C-12.39417551 25.90260584 -14.234054 29.57647903 -16.07437181 33.25013757 C-18.0072671 37.10965785 -19.93788258 40.97031819 -21.8687439 44.83085632 C-25.53372213 52.15770294 -29.20073608 59.48352872 -32.86848485 66.80898875 C-37.01116102 75.08324049 -41.15162399 83.35859895 -45.29187131 91.63406622 C-52.38768703 105.81699849 -59.48503463 119.9991632 -66.58456421 134.18023682 C-66.88549886 134.78141055 -67.1864335 135.38258429 -67.49648738 136.00197542 C-68.38580922 137.77836817 -69.27544748 139.5546025 -70.16508865 141.33083534 C-71.47740999 143.95272412 -72.7853656 146.57675243 -74.09147263 149.20174217 C-74.62053823 150.26363314 -74.62053823 150.26363314 -75.16029203 151.34697646 C-75.83305457 152.69749985 -76.50492466 154.04846839 -77.17568076 155.39998943 C-79.36600736 159.7940253 -81.65751368 164.12255991 -84 168.4375 C-87.16575113 174.29749285 -90.03078512 180.25833754 -92.82381535 186.30363846 C-95.09957372 191.18626454 -97.53167826 195.95067872 -100.08178711 200.69433594 C-107.72332217 215.08098228 -114.89433282 229.71109975 -122.15347481 244.29291534 C-124.86314485 249.73565466 -127.57694857 255.17632648 -130.29148865 260.61663818 C-138.00240621 276.07163686 -145.70982745 291.52837234 -153.40893555 306.98925781 C-157.67817585 315.56240237 -161.95179328 324.1333503 -166.23017162 332.70193839 C-168.92200591 338.09363433 -171.60860416 343.48789449 -174.29119694 348.8841939 C-175.96811456 352.25418751 -177.65018556 355.62158962 -179.33364487 358.9883194 C-180.10441569 360.53225462 -180.87316602 362.07720072 -181.63957405 363.62330627 C-188.91029249 378.28538492 -196.82101979 392.13391138 -207 405 C-207.69609375 405.90105469 -208.3921875 406.80210937 -209.109375 407.73046875 C-228.11657135 431.7669415 -255.52015723 452.61458479 -284.6171875 462.76953125 C-294.09417996 466.21670518 -303.31662063 470.40359273 -312.578125 474.38671875 C-314.98175572 475.41865499 -317.38540208 476.45055482 -319.7890625 477.48242188 C-323.50060022 479.07642844 -327.21185095 480.67110078 -330.92285156 482.26635742 C-344.57111921 488.13218919 -358.22524676 493.97692347 -371.96270752 499.6315155 C-377.63634936 501.97603894 -383.22574607 504.4528627 -388.78131104 507.06596375 C-391 508 -391 508 -393 508 C-391.5594406 503.27816642 -389.61112791 498.94895844 -387.375 494.5625 C-386.84712891 493.51533813 -386.84712891 493.51533813 -386.30859375 492.44702148 C-383.94306746 487.77963186 -381.48951929 483.16459999 -379 478.5625 C-375.78156326 472.60721168 -372.85263089 466.54864162 -370 460.41088867 C-365.29820973 450.30594243 -360.30315102 440.36478428 -355 430.5625 C-351.78153183 424.60723383 -348.85262895 418.54863744 -346 412.41088867 C-341.64485748 403.05094737 -337.07945358 393.79659488 -332.15551758 384.72192383 C-328.1825996 377.398328 -324.55852937 369.94717253 -321.00317383 362.4128418 C-314.87820886 349.51594497 -308.41583441 336.78451208 -301.99731445 324.03198242 C-301.54396225 323.1294725 -301.09061005 322.22696259 -300.6235199 321.29710388 C-299.76214505 319.58247651 -298.89907013 317.86870185 -298.03407288 316.15589905 C-297.64883957 315.38870041 -297.26360626 314.62150177 -296.86669922 313.83105469 C-296.52903534 313.16096375 -296.19137146 312.4908728 -295.84347534 311.80047607 C-294.88120223 309.83710153 -294.88120223 309.83710153 -294 307 C-307.02053269 312.17843295 -320.01319748 317.4251861 -333 322.6875 C-334.19742325 323.17236374 -334.19742325 323.17236374 -335.41903687 323.66702271 C-343.7931514 327.05842906 -352.15762911 330.46849852 -360.4921875 333.95629883 C-363.81490545 335.33914727 -367.15427469 336.67376654 -370.5 338 C-375.98595984 340.18204333 -381.44239992 342.4271231 -386.88671875 344.7109375 C-391.72374821 346.71372259 -396.59053995 348.64040705 -401.45703125 350.5703125 C-403.92233598 351.56513227 -406.33787534 352.5952194 -408.76171875 353.6796875 C-412 355 -412 355 -415 355 C-413.56463958 350.3118688 -411.64173319 346.00237473 -409.44126892 341.63529968 C-408.90307654 340.55529331 -408.90307654 340.55529331 -408.3540116 339.45346862 C-407.15508239 337.04999111 -405.95047401 334.64940679 -404.74584961 332.2487793 C-403.88298343 330.52197351 -403.02046375 328.79499455 -402.15826416 327.06785583 C-399.81647434 322.37943034 -397.46969239 317.69351996 -395.121907 313.00809455 C-392.65843428 308.08995101 -390.19919429 303.16969166 -387.73939514 298.24971008 C-383.60185788 289.97557235 -379.46122634 281.70298909 -375.31860352 273.43139648 C-370.54820744 263.9062697 -365.78194683 254.37908324 -361.01811022 244.85067433 C-355.92887472 234.67152386 -350.83658053 224.49390579 -345.7434113 214.31672311 C-344.2861512 211.40432086 -342.82944991 208.49163971 -341.37287712 205.57889366 C-339.06750283 200.96916137 -336.76005782 196.36047101 -334.45111084 191.75252724 C-333.61084518 190.0748793 -332.77122232 188.3969092 -331.93234444 186.71856689 C-327.41250268 177.67692197 -322.8264377 168.68001718 -318.04666036 159.77245587 C-315.71898413 155.42185722 -313.54692802 151.02324167 -311.4375 146.5625 C-308.32821523 140.31533933 -304.67315536 135.16506645 -300 130 C-299.33484375 129.24203125 -298.6696875 128.4840625 -297.984375 127.703125 C-289.29522661 118.37033598 -278.83680243 112.25917041 -266.87890625 108.04296875 C-264.46593347 107.16879815 -262.31588258 106.2104157 -260.0625 105 C-256.5877351 103.17501843 -253.02069855 101.9073506 -249.3125 100.625 C-243.41989427 98.57703682 -237.85040681 96.14495942 -232.21875 93.47265625 C-227.93999636 91.51502261 -223.57012605 89.86375712 -219.16796875 88.20703125 C-215.16003844 86.67996532 -211.21131584 85.02910405 -207.2578125 83.3671875 C-201.3414411 80.88429782 -195.40393811 78.45262424 -189.46875 76.01513672 C-186.78025061 74.90964023 -184.09328727 73.80045152 -181.40625 72.69140625 C-179.47921462 71.89832097 -177.55213182 71.1053509 -175.625 70.3125 C-174.73441895 69.94415039 -173.84383789 69.57580078 -172.92626953 69.19628906 C-167.47059103 66.95583453 -161.97400652 64.88918392 -156.42382812 62.89526367 C-153.69601214 61.88771923 -151.06375862 60.74778901 -148.4375 59.5 C-142.09448442 56.56077166 -135.65707689 53.97373184 -129.09765625 51.55859375 C-119.9191134 48.18638113 -119.9191134 48.18638113 -111.09765625 43.98828125 C-108.240615 42.64222643 -105.29680311 41.65689405 -102.3125 40.625 C-96.41989427 38.57703682 -90.85040681 36.14495942 -85.21875 33.47265625 C-80.93999636 31.51502261 -76.57012605 29.86375712 -72.16796875 28.20703125 C-68.16003844 26.67996532 -64.21131584 25.02910405 -60.2578125 23.3671875 C-56.55321272 21.81249934 -52.84033129 20.27882354 -49.125 18.75 C-48.42270264 18.4610083 -47.72040527 18.1720166 -46.99682617 17.87426758 C-40.85419142 15.34845739 -34.7088584 12.82923374 -28.5625 10.3125 C-27.66354004 9.94415039 -26.76458008 9.57580078 -25.83837891 9.19628906 C-19.90382156 6.76816728 -13.95618503 4.37452318 -8 2 C-6.71138062 1.44759644 -6.71138062 1.44759644 -5.39672852 0.8840332 C-3 0 -3 0 0 0 Z " fill="#010101" transform="translate(504,164)"/>
<path d="M0 0 C-5.44142358 10.97602458 -10.89177908 21.94756398 -16.35320187 32.91365242 C-18.88959478 38.00720524 -21.42302579 43.10218433 -23.94946289 48.20068359 C-26.39323126 53.13206819 -28.84507268 58.05936406 -31.30227852 62.98406601 C-32.23271666 64.85226428 -33.16036455 66.7218552 -34.08500481 68.59292984 C-40.76909397 82.11215716 -47.80604394 95.10209055 -57.25 106.9375 C-57.70052734 107.50267334 -58.15105469 108.06784668 -58.61523438 108.65014648 C-63.19551332 114.34347071 -67.9950772 119.84768265 -72.80859375 125.34375 C-75.76383583 128.71913921 -78.67226677 132.13139522 -81.5625 135.5625 C-85.35393102 140.06000238 -89.16728484 144.5376201 -93 149 C-96.85138987 153.48493578 -100.68626834 157.98299781 -104.5 162.5 C-108.29523727 166.99409053 -112.1079093 171.47264267 -115.9375 175.9375 C-116.43419189 176.51669189 -116.93088379 177.09588379 -117.44262695 177.69262695 C-119.99510418 180.66756041 -122.55069982 183.6397708 -125.109375 186.609375 C-130.34578699 192.6931457 -135.50859096 198.81816673 -140.55859375 205.05859375 C-142.47993759 207.3734288 -144.427488 209.64853055 -146.41015625 211.91015625 C-147.00320557 212.58699463 -147.59625488 213.26383301 -148.20727539 213.96118164 C-149.3833106 215.29865543 -150.56336152 216.63261115 -151.74780273 217.96264648 C-152.28477783 218.57309814 -152.82175293 219.1835498 -153.375 219.8125 C-153.85710937 220.35519531 -154.33921875 220.89789063 -154.8359375 221.45703125 C-156.21555092 223.11513488 -156.21555092 223.11513488 -157 226 C-155.99324219 225.57702637 -154.98648438 225.15405273 -153.94921875 224.71826172 C-150.13343931 223.11608232 -146.31597498 221.51795006 -142.49804688 219.92089844 C-140.86088197 219.23543964 -139.22414685 218.54895321 -137.58789062 217.86132812 C-128.00079873 213.8333362 -118.39879802 209.94859058 -108.61328125 206.42626953 C-105.30998664 205.12236094 -102.23343016 203.64043621 -99.07855225 202.02609253 C-95.47680728 200.24806476 -91.7592256 198.76009059 -88.0390625 197.25 C-86.79314835 196.74001465 -86.79314835 196.74001465 -85.52206421 196.21972656 C-82.89088679 195.14357583 -80.2579687 194.07175948 -77.625 193 C-75.86707445 192.28152655 -74.10926099 191.56277876 -72.3515625 190.84375 C-67.57037089 188.88925677 -62.78582135 186.94312392 -58 185 C-56.36200439 184.33339355 -56.36200439 184.33339355 -54.69091797 183.65332031 C-53.81322754 183.29850586 -52.93553711 182.94369141 -52.03125 182.578125 C-51.32806641 182.29356445 -50.62488281 182.00900391 -49.90039062 181.71582031 C-46.97851353 180.6152366 -44.01999284 179.78782422 -41 179 C-42.71739989 184.9688434 -45.5303784 190.33079979 -48.3125 195.85546875 C-48.84085449 196.91171951 -49.36920898 197.96797028 -49.91357422 199.05622864 C-51.03472674 201.29551529 -52.1578213 203.53383052 -53.28271484 205.77124023 C-54.97032248 209.1284614 -56.65171683 212.48873306 -58.33203125 215.84960938 C-63.70723944 226.58150065 -69.12704991 237.28369446 -74.78186035 247.87150574 C-77.22613816 252.46014977 -79.4919292 257.09951641 -81.6875 261.8125 C-87.08860886 272.50297064 -94.36676024 275.30137496 -105.16015625 279.30615234 C-107.69787742 280.26318572 -110.19133442 281.31483877 -112.6875 282.375 C-118.10059611 284.64571691 -123.5472039 286.82693368 -129 289 C-135.27195264 291.49955336 -141.52334929 294.03614707 -147.74609375 296.65625 C-152.16730616 298.48205681 -156.61633226 300.23602243 -161.0625 302 C-166.34783079 304.09838712 -171.59949516 306.20948336 -176.75 308.625 C-181.74286361 310.96075095 -186.85837671 312.86480949 -192.02612305 314.77001953 C-197.05418796 316.62820448 -202.00456691 318.62879902 -206.94140625 320.71875 C-210.44503595 322.1864263 -213.97022363 323.59680934 -217.5 325 C-221.9114248 326.7554879 -226.31040789 328.53526312 -230.6875 330.375 C-236.9753928 333.01268169 -243.31004049 335.52946766 -249.64404297 338.05371094 C-255.14500776 340.24911203 -260.62177477 342.49406048 -266.08203125 344.7890625 C-270.18307156 346.49096678 -274.30948112 348.12821495 -278.43481445 349.77001953 C-283.27943071 351.70191792 -288.09365938 353.69949088 -292.90234375 355.71875 C-296.4414034 357.18257291 -300.00127298 358.59133488 -303.5625 360 C-307.9698241 361.74593139 -312.32443997 363.56558785 -316.625 365.5625 C-332.68323864 373 -332.68323864 373 -337 373 C-335.53863071 368.2138143 -333.55427852 363.81215805 -331.31982422 359.34912109 C-330.95199326 358.60674194 -330.58416229 357.86436279 -330.20518494 357.0994873 C-328.99257944 354.6553434 -327.77401084 352.21423625 -326.5546875 349.7734375 C-325.70220547 348.06203893 -324.84984126 346.35058166 -323.99758911 344.6390686 C-322.20990214 341.05173117 -320.41892491 337.46605811 -318.62597656 333.88134766 C-316.34512093 329.31983875 -314.07528498 324.75294577 -311.80833244 320.184515 C-310.04989664 316.64523753 -308.28406349 313.10968826 -306.51623917 309.57509232 C-305.67732145 307.89491835 -304.84095712 306.21346665 -304.00735092 304.53065109 C-297.84792715 292.10744352 -291.38338946 280.33093017 -282.0625 269.9375 C-281.0211166 268.74959029 -279.98076085 267.56077895 -278.94140625 266.37109375 C-278.44012207 265.79987793 -277.93883789 265.22866211 -277.42236328 264.64013672 C-275.39517929 262.30257715 -273.44609478 259.905246 -271.5 257.5 C-266.62697689 251.50310849 -261.59187859 245.65162831 -256.54833984 239.79833984 C-254.02707094 236.86997864 -251.51377535 233.93479366 -249 231 C-245.96894643 227.46129205 -242.93599066 223.92430274 -239.89453125 220.39453125 C-235.39119302 215.16326589 -230.90970257 209.92510755 -226.5625 204.5625 C-222.42235776 199.46058244 -218.12454617 194.50845082 -213.8059082 189.55810547 C-210.55268026 185.81982653 -207.36746975 182.04073621 -204.25 178.1875 C-200.73435382 173.84426557 -197.04872774 169.69895706 -193.28515625 165.5703125 C-189.37335788 161.17037519 -185.68921194 156.58753069 -182 152 C-185.42684504 152 -187.30079974 152.83367851 -190.4375 154.1875 C-191.51257813 154.64640625 -192.58765625 155.1053125 -193.6953125 155.578125 C-194.78585937 156.04734375 -195.87640625 156.5165625 -197 157 C-198.93613112 157.81575658 -200.8736125 158.6283166 -202.8125 159.4375 C-203.79734375 159.84871094 -204.7821875 160.25992188 -205.796875 160.68359375 C-209.37331156 162.15342195 -212.96721039 163.57718519 -216.5625 165 C-220.91006574 166.72143499 -225.20212424 168.51586 -229.4375 170.5 C-234.53756555 172.86788758 -239.74840561 174.8252082 -245.02050781 176.76733398 C-250.08646017 178.63851454 -255.06826615 180.66668159 -260.04296875 182.76953125 C-274.49136752 188.78174474 -274.49136752 188.78174474 -280 190 C-278.45781042 184.87582511 -276.27915817 180.26842162 -273.88916016 175.50366211 C-273.47588974 174.67201035 -273.06261932 173.84035858 -272.63682556 172.98350525 C-271.27502239 170.24604434 -269.90733282 167.51157726 -268.5390625 164.77734375 C-267.58725689 162.86984386 -266.63562989 160.96225484 -265.68417358 159.05458069 C-263.69126218 155.06130492 -261.69526636 151.06958906 -259.69726562 147.07885742 C-257.13940458 141.96893409 -254.59067201 136.85451891 -252.04441261 131.73880672 C-250.08232383 127.79988807 -248.11469258 123.86375808 -246.14545822 119.92840767 C-245.20347324 118.04392486 -244.26337498 116.15849771 -243.32521439 114.27210808 C-242.01241003 111.63414337 -240.69200803 109.00011848 -239.36962891 106.36694336 C-238.98507034 105.5901825 -238.60051178 104.81342163 -238.20429993 104.01312256 C-232.93899635 93.58386219 -226.95411969 89.58854951 -216.23828125 85.62109375 C-209.66909968 83.15296072 -203.22390698 80.36949568 -196.75439453 77.65380859 C-188.58788264 74.22983182 -180.41424243 70.85213283 -172.09301758 67.82006836 C-165.27717094 65.33387805 -158.70871506 62.54755751 -152.1484375 59.4375 C-147.89280936 57.49448368 -143.54482871 55.85423661 -139.16796875 54.20703125 C-134.06066731 52.26109272 -129.03777826 50.11802079 -124 48 C-115.87304838 44.58432468 -107.76468478 41.21318066 -99.4375 38.3125 C-95.17729882 36.8248107 -91.22353955 35.21040703 -87.24609375 33.09765625 C-81.67051998 30.37289759 -75.773692 28.26757594 -70 26 C-68.35364996 25.33461038 -66.70774412 24.66811944 -65.0625 24 C-61.48800512 22.56307681 -57.88481431 21.21851916 -54.26831055 19.89111328 C-47.56218264 17.42204964 -41.09044618 14.70951702 -34.62890625 11.64453125 C-27.63409068 8.4746525 -20.47071814 5.6869089 -13.31396484 2.90478516 C-11.77744674 2.30399004 -10.24634678 1.68914025 -8.72119141 1.06005859 C-3.329269 -1.10975633 -3.329269 -1.10975633 0 0 Z " fill="#010101" transform="translate(734,165)"/>
<path d="M0 0 C2.47265625 1.40625 2.47265625 1.40625 5.0625 3.5 C6.11018203 4.32745011 7.15840423 5.15421655 8.20703125 5.98046875 C8.79693848 6.45274902 9.3868457 6.9250293 9.99462891 7.41162109 C14.03077194 10.60849796 18.1497574 13.6985966 22.25 16.8125 C24.08863328 18.21472363 25.92717548 19.6170667 27.765625 21.01953125 C32.16156799 24.36734539 36.57414645 27.69187264 41 31 C49.78153431 37.5662513 58.49509194 44.22096986 67.2109375 50.87402344 C70.11690347 53.08911025 73.02674198 55.29902721 75.9375 57.5078125 C77.38153198 58.60464355 77.38153198 58.60464355 78.85473633 59.72363281 C80.71047097 61.13298675 82.56704839 62.54123182 84.42456055 63.94824219 C85.25769775 64.58149414 86.09083496 65.21474609 86.94921875 65.8671875 C87.68487061 66.42519043 88.42052246 66.98319336 89.1784668 67.55810547 C92.92605374 70.5246312 92.92605374 70.5246312 93.4375 73.8125 C92.53968104 80.35375244 84.97385367 84.49832208 80 88.3125 C79.21890869 88.91570068 78.43781738 89.51890137 77.63305664 90.14038086 C68.94724069 96.83675136 60.21501482 103.47276627 51.48388672 110.10986328 C47.81745342 112.89986983 44.15841337 115.69949067 40.5 118.5 C32.29458974 124.77802433 24.08536509 131.05097153 15.85546875 137.296875 C12.9411043 139.51100203 10.04462707 141.74287278 7.17578125 144.015625 C6.62704346 144.44456055 6.07830566 144.87349609 5.51293945 145.31542969 C4.12737723 146.40026879 2.7507166 147.49645223 1.375 148.59375 C-1.36089475 150.21368768 -2.87296621 150.39817918 -6 150 C-7.8125 148.8125 -7.8125 148.8125 -9 147 C-9.40560492 143.81464935 -9.20455739 142.33947822 -7.53125 139.5625 C-6.8609375 138.716875 -6.190625 137.87125 -5.5 137 C-0.85366189 130.90941825 3.07130745 124.56814675 7 118 C7.51820313 117.20722656 8.03640625 116.41445313 8.5703125 115.59765625 C10.38258441 112.30486713 11.48060636 108.89264647 12.5625 105.3125 C12.77068359 104.65572266 12.97886719 103.99894531 13.19335938 103.32226562 C16.16464375 93.68189157 17.3237035 84.65373738 17.25 74.5625 C17.25773438 73.50740234 17.26546875 72.45230469 17.2734375 71.36523438 C17.21549938 47.82787367 7.07271439 26.76932812 -7.7421875 8.8984375 C-9 7 -9 7 -8.8125 3.8125 C-8.544375 2.884375 -8.27625 1.95625 -8 1 C-5.16291155 -0.41854422 -3.14858987 -0.27747671 0 0 Z " fill="#020202" transform="translate(759,271)"/>
<path d="M0 0 C-2.88067375 7.68503848 -6.82934705 14.96126485 -10.47607422 22.30224609 C-11.40941245 24.18553696 -12.33844708 26.07096672 -13.26318359 27.95849609 C-14.60068092 30.68816981 -15.95115411 33.41106177 -17.3046875 36.1328125 C-17.71524384 36.97659454 -18.12580017 37.82037659 -18.54879761 38.68972778 C-18.94245514 39.47419281 -19.33611267 40.25865784 -19.74169922 41.06689453 C-20.08208221 41.75574738 -20.42246521 42.44460022 -20.77316284 43.15432739 C-23.03631705 46.55905124 -26.15434267 48.24469396 -29.90625 49.6484375 C-30.64423828 49.92905029 -31.38222656 50.20966309 -32.14257812 50.4987793 C-32.92052734 50.78793213 -33.69847656 51.07708496 -34.5 51.375 C-36.12543051 51.99235728 -37.75043038 52.61084957 -39.375 53.23046875 C-40.16648437 53.53130371 -40.95796875 53.83213867 -41.7734375 54.14208984 C-44.70479329 55.2715618 -47.60435811 56.46967144 -50.5 57.6875 C-65.80654201 64.12344574 -65.80654201 64.12344574 -73 66 C-71.21023874 59.88578855 -68.25353797 54.59696263 -65.21728516 49.03637695 C-62.74235499 44.45389585 -60.47543913 39.87744902 -58.45703125 35.07421875 C-51.37057114 18.62761869 -51.37057114 18.62761869 -44.08398438 15.60253906 C-40.75725641 14.54091688 -37.40591954 13.7737586 -34 13 C-32.1003175 12.20223307 -30.22112881 11.35239569 -28.375 10.4375 C-23.13152657 7.97044972 -17.74526203 6.07421674 -12.26171875 4.2109375 C-8.94984975 3.05318759 -8.94984975 3.05318759 -5.76953125 1.3515625 C-3 0 -3 0 0 0 Z " fill="#F9F9F9" transform="translate(313,321)"/>
<path d="M0 0 C0.66 0.33 1.32 0.66 2 1 C-0.97 3.97 -3.94 6.94 -7 10 C-7 7 -7 7 -4.625 4.4375 C-3.75875 3.633125 -2.8925 2.82875 -2 2 C-1.34 1.34 -0.68 0.68 0 0 Z " fill="#2D2D2D" transform="translate(507,255)"/>
</svg>
