<?xml version="1.0" encoding="UTF-8"?>
<svg version="1.1" xmlns="http://www.w3.org/2000/svg" width="602" height="722">
<path d="M0 0 C4.76433031 0.00259787 9.52865907 0.00016654 14.29298949 -0.00138617 C22.26713963 -0.00318453 30.24128037 -0.0008615 38.21542907 0.00395441 C47.36453785 0.00941696 56.5136244 0.00761048 65.66273266 0.00212801 C73.6144972 -0.00244135 81.56625514 -0.00303585 89.51802057 -0.00043333 C94.22595064 0.00110548 98.93387033 0.00139009 103.64179969 -0.00196981 C147.37095354 -0.02894051 188.37034584 2.23574884 230.25522399 16.0093255 C231.00227599 16.25182032 231.74932799 16.49431513 232.51901793 16.74415827 C243.38633823 20.29783493 253.48927031 24.74310562 263.56772399 30.1343255 C264.52534385 30.64532297 264.52534385 30.64532297 265.50230956 31.16664362 C274.59179777 36.04023456 282.62798131 41.61397817 290.56772399 48.1343255 C291.42648131 48.83066095 291.42648131 48.83066095 292.30258727 49.54106379 C324.03577372 75.38832661 345.91226135 110.78223359 350.34506774 151.78569269 C353.1436074 181.3053764 342.69747126 209.61276641 324.38022399 232.5093255 C319.92881093 237.82523787 315.24122927 242.90938012 310.50913024 247.97416925 C307.0871429 251.63747206 303.74446969 255.370078 300.40756774 259.110888 C299.26897231 260.36310124 298.09564111 261.58574116 296.87241149 262.75541925 C294.97026581 264.76577082 294.76703395 266.41042267 294.56772399 269.1343255 C295.8856131 272.87802717 297.62052595 274.02015176 301.12631774 275.7280755 C302.06048522 276.19495783 302.9946527 276.66184015 303.95712829 277.14287043 C304.96299987 277.6350506 305.96887145 278.12723078 307.00522399 278.6343255 C322.43480917 286.43412128 337.06172821 295.30689313 350.56772399 306.1343255 C351.55256774 306.91549738 352.53741149 307.69666925 353.55209899 308.501513 C392.26234235 339.85662762 415.35759657 381.42051902 424.56772399 430.1343255 C424.76527282 431.15300714 424.96282165 432.17168879 425.1663568 433.22123957 C432.36024143 471.82802794 430.96106639 512.80564078 418.56772399 550.1343255 C418.20807555 551.2197967 418.20807555 551.2197967 417.84116149 552.3271966 C414.32361584 562.71796845 409.72821884 572.4664687 404.56772399 582.1343255 C403.95155211 583.29577082 403.33538024 584.45721613 402.70053649 585.65385675 C388.23330793 611.91697914 367.43712893 635.99357775 343.56772399 654.1343255 C342.40451574 655.04912093 341.241788 655.96452756 340.07944274 656.88041925 C277.00872002 705.97947212 198.89905222 722.53057983 120.50058532 722.39311457 C117.83588742 722.39583469 115.17120037 722.39933098 112.50650573 722.40373468 C106.10421115 722.41249982 99.70196417 722.4107664 93.29966793 722.4049094 C88.09027122 722.40034545 82.88088762 722.39980011 77.67148948 722.40195704 C76.92294208 722.4022635 76.17439468 722.40256997 75.40316403 722.40288572 C73.88145067 722.40352531 72.35973733 722.40417374 70.83802398 722.4048309 C56.66551091 722.41049524 42.49302397 722.40403587 28.32051518 722.39323017 C16.20393052 722.38427788 4.08738415 722.38586809 -8.02919984 722.39506769 C-22.1768483 722.4058047 -36.3244741 722.40996743 -50.47212607 722.40384316 C-51.98408901 722.4032062 -53.49605196 722.40257745 -55.00801492 722.40195704 C-56.12328688 722.40149421 -56.12328688 722.40149421 -57.26108959 722.40102203 C-62.45974556 722.39930687 -67.65838694 722.40218408 -72.85704064 722.40691614 C-79.1978744 722.41256247 -85.53865874 722.41092969 -91.87948694 722.40035465 C-95.10414969 722.39515101 -98.32871481 722.39405278 -101.5533793 722.39965296 C-149.12286713 722.47460267 -149.12286713 722.47460267 -162.43227601 710.1343255 C-172.44066141 699.84792939 -171.69677606 686.50120487 -171.59370136 673.16494679 C-171.40276967 661.89228692 -170.37344991 650.69712135 -169.35772157 639.47456598 C-169.13135871 636.88290955 -168.90595185 634.29116947 -168.68140566 631.69935501 C-168.19590163 626.11312554 -167.70248195 620.52764198 -167.20354486 614.94259691 C-166.46164837 606.63754486 -165.73247531 598.3314082 -165.00567042 590.02502355 C-163.7818322 576.04250999 -162.54779488 562.06091447 -161.30763078 548.07984018 C-160.08052676 534.24595171 -158.85755432 520.41170884 -157.64014268 506.5769639 C-157.56418386 505.71381203 -157.48822503 504.85066015 -157.40996443 503.96135216 C-157.10159386 500.45707936 -156.79325098 496.95280413 -156.48494555 493.4485256 C-153.59822683 460.63761997 -150.69975154 427.82776287 -147.79525617 395.01842658 C-145.21633546 365.88618871 -142.6453118 336.75326521 -140.08169007 307.61967707 C-139.91688812 305.74686422 -139.75208615 303.87405138 -139.58728416 302.00123854 C-139.50580829 301.0753391 -139.42433242 300.14943965 -139.34038759 299.19548265 C-138.93022391 294.53435727 -138.52005103 289.87323271 -138.10986733 285.21210909 C-138.02894029 284.29247872 -137.94801325 283.37284836 -137.86463388 282.42535041 C-135.7194718 258.04926349 -133.56924178 233.67362376 -131.41726553 209.29813755 C-131.34071964 208.43109845 -131.26417375 207.56405936 -131.18530829 206.67074636 C-130.87752413 203.1844997 -130.56973829 199.69825319 -130.26192442 196.21200916 C-129.19202225 184.09429203 -128.12375831 171.9764315 -127.05654191 159.85847756 C-125.6820223 144.25156262 -124.3039821 128.6449648 -122.91994025 113.03889121 C-122.18843752 104.78964358 -121.45968738 96.5401641 -120.73496546 88.29031792 C-120.19351733 82.13046499 -119.64670973 75.97109889 -119.0978028 69.81190638 C-118.87661285 67.32070674 -118.65714097 64.82935383 -118.43955775 62.33783658 C-118.14352694 58.9510783 -117.8412073 55.56493715 -117.53732705 52.17887545 C-117.45434208 51.21220288 -117.37135711 50.24553032 -117.28585744 49.24956465 C-115.93752839 34.45770789 -113.31614086 21.20571411 -101.43227601 11.1343255 C-87.92599024 2.56814672 -73.92508972 0.68722481 -58.19521546 0.45512629 C-56.61888037 0.42240902 -55.04256014 0.38896828 -53.46625447 0.35486269 C-35.64675542 -0.00364222 -17.82236176 -0.01283839 0 0 Z M26.56772399 53.1343255 C25.82667418 53.43177668 25.08562438 53.72922785 24.32211852 54.03569269 C-5.8060111 66.47421976 -32.9870134 89.40995831 -46.36977601 119.4468255 C-46.65240296 120.08007746 -46.93502992 120.71332941 -47.22622132 121.36577082 C-53.13562387 135.3380637 -53.95947863 152.95974569 -48.69008851 167.220263 C-48.27501039 168.18190363 -47.85993226 169.14354425 -47.43227601 170.1343255 C-46.99657289 171.15784113 -46.56086976 172.18135675 -46.11196351 173.235888 C-38.25487813 190.19517065 -23.81085276 203.200601 -8.85415101 213.94536066 C-6.0394341 215.97180098 -3.23386513 218.00949084 -0.43886781 220.06303644 C11.15380002 228.55109444 23.04593603 236.51989418 35.06772399 244.3843255 C37.03654741 245.67685319 39.00513197 246.96974478 40.97348571 248.26298761 C49.90182379 254.12602846 58.84241838 259.97021618 67.78989196 265.80400324 C79.2872978 273.30100808 90.73637717 280.86882595 102.16336608 288.47267389 C103.97523103 289.67813685 105.78758554 290.8828644 107.60049987 292.0867486 C136.14693594 311.04992492 164.17898496 330.72633503 190.63168883 352.53911066 C191.85845437 353.54991596 193.08765732 354.55777636 194.3201654 355.5615716 C220.33454478 376.79361687 245.49216643 401.53766788 250.56772399 436.1343255 C251.6572174 449.88481579 251.04717998 463.05076592 246.56772399 476.1343255 C246.22870055 477.16170832 245.88967711 478.18909113 245.54038024 479.24760675 C235.30183534 506.7568644 210.88546288 526.05109735 185.17050719 538.30302668 C154.18384807 552.47369281 118.88103313 556.32855308 85.56772399 549.1343255 C84.71629821 548.95740168 83.86487243 548.78047785 82.98764586 548.59819269 C60.08939954 543.77707101 38.30186334 535.9639182 20.56772399 520.1343255 C19.75303649 519.44983332 18.93834899 518.76534113 18.09897399 518.06010675 C-1.15255768 501.51210808 -13.49838063 479.36087647 -15.71743226 453.85698175 C-16.00971827 443.57613906 -15.04362308 426.41628178 -8.43227601 418.1343255 C-2.11878259 415.41962139 1.91630196 416.64452526 8.23569274 418.860888 C9.15175796 419.16497583 10.06782317 419.46906366 11.01164794 419.78236628 C13.9326107 420.75661573 16.84366394 421.75736871 19.75522399 422.7593255 C21.69277704 423.41084615 23.63092403 424.06060332 25.56967711 424.70854425 C30.90898063 426.49791273 36.23939446 428.31258247 41.56772399 430.1343255 C43.97922377 430.95850808 46.39191068 431.77867273 48.80600524 432.595263 C49.69972838 432.89996515 50.59345153 433.2046673 51.51425719 433.51860285 C53.52971448 434.23006286 53.52971448 434.23006286 55.56772399 434.1343255 C54.25216981 426.85903268 52.39900131 419.84846221 50.31772399 412.7593255 C38.90788461 372.84288428 34.29241253 332.67673795 36.06772399 291.1968255 C36.1154193 290.02442316 36.16311461 288.85202082 36.21225524 287.64409113 C36.3280394 284.80737919 36.44654247 281.97081109 36.56772399 279.1343255 C10.47616186 290.66085105 -12.90421242 306.66674762 -33.95571351 325.88041925 C-35.63479806 327.4085451 -37.32808424 328.92118408 -39.03383851 330.41948175 C-43.50646854 334.35836892 -47.71921112 338.31865158 -51.54946351 342.88823175 C-52.94036794 344.54750571 -54.3681324 346.17604106 -55.81508851 347.78666925 C-81.12431151 376.1982523 -96.9480249 411.08860015 -104.43227601 448.1343255 C-104.6527057 449.22076349 -104.6527057 449.22076349 -104.87758851 450.32914972 C-113.22554667 494.12262703 -100.78457976 541.19776014 -76.13442445 577.63676691 C-70.64709219 585.55288937 -64.65549693 592.75318888 -57.91030335 599.62114191 C-56.45519744 601.11085886 -55.03026808 602.62496581 -53.60805726 604.14604425 C-40.77466726 617.67205792 -25.50494038 627.8567007 -9.43227601 637.1343255 C-8.83866273 637.48801203 -8.24504945 637.84169855 -7.63344789 638.20610285 C20.60646584 655.00116162 54.3293981 663.5333278 86.56772399 668.1343255 C87.66963073 668.30786554 87.66963073 668.30786554 88.79379821 668.48491144 C113.51693487 672.33415933 141.05240494 671.90702974 165.56772399 667.1343255 C166.59333434 666.93564875 167.61894469 666.73697199 168.67563415 666.53227472 C224.10767611 655.43256331 277.07063086 626.62509074 310.56772399 580.1343255 C310.9886029 579.55247492 311.4094818 578.97062433 311.84311461 578.37114191 C341.38265704 537.02258886 350.19968023 488.85199991 342.56772399 439.1343255 C337.61544337 410.20461484 323.47570634 384.45633277 303.56772399 363.1343255 C302.35397345 361.74320015 301.14531146 360.34761225 299.94272399 358.9468255 C294.26781172 352.46861515 288.20935278 346.89547754 281.48959899 341.501513 C279.60197308 339.97223319 277.73541772 338.4164005 275.89584899 336.829638 C266.64135791 328.8561358 256.65120792 322.00868109 246.56772399 315.1343255 C245.88774352 314.66994074 245.20776305 314.20555597 244.50717711 313.72709894 C233.24788202 306.06403897 221.69960406 298.85447742 210.15903258 291.62553644 C201.1952311 286.00829404 192.26892182 280.34109386 183.44272399 274.5093255 C182.66598327 274.00014582 181.88924254 273.49096613 181.08896422 272.96635675 C180.37812682 272.49327082 179.66728942 272.02018488 178.93491149 271.532763 C178.30697692 271.11687922 177.67904235 270.70099543 177.03207946 270.2725091 C175.56772399 269.1343255 175.56772399 269.1343255 174.56772399 267.1343255 C173.86592473 259.99936634 173.86592473 259.99936634 176.53256774 256.7124505 C180.28452248 253.52546192 184.24956875 251.14877305 188.50522399 248.6968255 C190.30350712 247.63801553 192.10033021 246.57672275 193.89584899 245.51323175 C194.82719665 244.96167414 195.7585443 244.41011652 196.71811461 243.84184504 C214.24495525 233.3395555 231.81167816 222.19883951 247.56772399 209.1343255 C248.77622008 208.1443255 248.77622008 208.1443255 250.00913024 207.1343255 C263.05642238 195.97938871 274.1796913 179.74972214 275.56772399 162.1343255 C277.3442724 134.78111987 266.80248894 112.19207202 249.09653258 91.83891535 C217.48596253 56.73653639 166.48006193 41.60217794 120.56772399 39.1343255 C89.17672291 37.81011002 55.82814455 41.37103288 26.56772399 53.1343255 Z " fill="#FFFFFF" transform="translate(172.4322760105133,-0.13432550430297852)"/>
<path d="M0 0 C10.25631916 8.85773019 19.84225257 20.53051915 21.44921875 34.41015625 C22.00450239 46.60168466 19.10984305 55.83654046 11.0234375 65.15625 C-2.40438904 79.70140531 -19.44342217 89.23102591 -36.4921875 98.89453125 C-42.48372085 102.29138991 -48.40754859 105.78986456 -54.3046875 109.34765625 C-55.11591064 109.83685547 -55.92713379 110.32605469 -56.76293945 110.83007812 C-57.51534912 111.28447266 -58.26775879 111.73886719 -59.04296875 112.20703125 C-59.74115723 112.62275391 -60.4393457 113.03847656 -61.15869141 113.46679688 C-63.14027467 114.65424438 -63.14027467 114.65424438 -65.47265625 116.42578125 C-69.34917415 118.22881283 -72.80118214 118.36246401 -76.9921875 117.59765625 C-79.94992392 116.24455062 -82.37762077 114.41129279 -84.9296875 112.41015625 C-85.65349609 111.87132812 -86.37730469 111.3325 -87.12304688 110.77734375 C-88.65169711 109.63907109 -90.17424993 108.49256877 -91.69091797 107.33837891 C-95.41014172 104.52508956 -99.20494069 101.81822356 -102.9921875 99.09765625 C-104.49620581 98.00796715 -106.00011211 96.91812344 -107.50390625 95.828125 C-111.19485275 93.1619514 -114.91273431 90.53668184 -118.64257812 87.92529297 C-155.79957847 61.88686206 -155.79957847 61.88686206 -159.5 41.84765625 C-160.95578658 29.95357017 -157.85044507 20.28388669 -150.9921875 10.59765625 C-150.56292969 9.9840625 -150.13367188 9.37046875 -149.69140625 8.73828125 C-135.57043776 -9.42320035 -108.08546159 -18.98353602 -86.02734375 -21.93359375 C-54.94779674 -25.26963783 -24.70127526 -20.11033879 0 0 Z " fill="#FFFFFF" transform="translate(354.9921875,84.40234375)"/>
</svg>
