<?xml version="1.0" encoding="UTF-8"?>
<svg version="1.1" xmlns="http://www.w3.org/2000/svg" width="900" height="689">
<path d="M0 0 C1.14292007 -0.01268417 2.28584015 -0.02536835 3.46339417 -0.03843689 C5.32410805 -0.03403343 5.32410805 -0.03403343 7.22241211 -0.02954102 C8.50723984 -0.03478287 9.79206757 -0.04002472 11.11582947 -0.04542542 C13.84717562 -0.05437448 16.57822994 -0.05192422 19.30957031 -0.04199219 C22.07648265 -0.03289712 24.84254437 -0.03948227 27.609375 -0.0625 C43.02302219 -0.19038804 57.56611023 0.04799907 72.43725586 4.40405273 C74.2907683 4.86502463 76.14476849 5.32405236 77.99975586 5.77905273 C82.33564987 7.13962637 85.79795187 9.36048888 89.47241211 12.00170898 C91.50165985 13.5181169 91.50165985 13.5181169 94.18725586 14.84155273 C96.93084421 16.74682242 98.41337196 18.91112972 100.22631836 21.68530273 C101.3764793 23.43861275 101.3764793 23.43861275 102.90551758 24.79150391 C114.9412931 37.46225579 114.96427117 61.19209486 115.43725586 77.40405273 C116.3434668 76.86135742 117.24967773 76.31866211 118.18334961 75.75952148 C129.62533866 69.00206925 129.62533866 69.00206925 136.08569336 67.16967773 C139.04477536 66.20625569 141.74862661 64.85864365 144.56225586 63.52905273 C172.14431563 51.70394672 203.57080094 52.26516081 231.34741211 63.25561523 C233.96784312 64.3628355 236.50712986 65.54925896 239.07006836 66.79077148 C241.57383113 67.99037012 243.9521147 68.98891714 246.55053711 69.92358398 C249.78477642 71.10472693 252.5910297 72.53936017 255.49975586 74.40405273 C258.31244661 76.15074654 260.88146672 77.59442882 263.93725586 78.90405273 C267.86105342 80.58568026 271.32554777 82.69710722 274.95678711 84.92749023 C277.12516885 86.21827496 279.2919955 87.36933457 281.56225586 88.46655273 C285.03518654 90.15060966 288.25382019 92.1074311 291.50366211 94.18530273 C293.84008053 95.65795434 296.23325902 97.00845818 298.64038086 98.36108398 C301.36088011 99.94015638 303.99852653 101.64663358 306.64038086 103.35327148 C308.56309619 104.56039993 308.56309619 104.56039993 311.43725586 105.40405273 C311.43725586 106.06405273 311.43725586 106.72405273 311.43725586 107.40405273 C312.24163086 107.77530273 312.24163086 107.77530273 313.06225586 108.15405273 C316.0029101 109.70176549 318.68170471 111.54827339 321.43725586 113.40405273 C322.61288086 114.08467773 322.61288086 114.08467773 323.81225586 114.77905273 C329.88657952 118.53934833 335.3045707 123.06552809 340.62475586 127.81420898 C342.07709519 129.08813594 343.59217352 130.29038489 345.12475586 131.46655273 C348.01081489 133.88460219 350.15548171 136.40514957 352.43725586 139.40405273 C352.43725586 140.06405273 352.43725586 140.72405273 352.43725586 141.40405273 C353.42725586 141.73405273 354.41725586 142.06405273 355.43725586 142.40405273 C356.88236936 144.46683571 358.17468244 146.48489465 359.43725586 148.65405273 C359.9515918 149.51450195 359.9515918 149.51450195 360.47631836 150.39233398 C361.47070826 152.05850638 362.45415454 153.73119484 363.43725586 155.40405273 C364.21069336 156.5893457 364.21069336 156.5893457 364.99975586 157.79858398 C366.95448852 161.34153693 368.17715703 165.00547062 369.43725586 168.84155273 C369.68475586 169.56020508 369.93225586 170.27885742 370.18725586 171.01928711 C374.01747738 182.53987529 375.94259377 194.18167828 376.62475586 206.27905273 C376.66395142 206.94647491 376.70314697 207.61389709 376.74353027 208.30154419 C382.42079521 308.21306662 382.42079521 308.21306662 368.35522461 340.22436523 C367.44421362 342.38753174 366.81815968 344.52065815 366.18725586 346.77905273 C362.78066399 357.08942918 355.11930262 365.20427904 347.75756836 372.90795898 C345.34318587 375.37158404 345.34318587 375.37158404 343.43725586 378.40405273 C342.73600586 378.81655273 342.03475586 379.22905273 341.31225586 379.65405273 C338.77455001 381.19874325 336.82665231 382.7482563 334.62475586 384.71655273 C323.76238884 394.40405273 323.76238884 394.40405273 320.43725586 394.40405273 C320.43725586 395.06405273 320.43725586 395.72405273 320.43725586 396.40405273 C319.26163086 396.96092773 318.08600586 397.51780273 316.87475586 398.09155273 C314.10394184 399.47211566 311.59999916 400.92262026 309.12475586 402.77905273 C304.53795141 406.19029174 299.47092184 408.72193519 294.43725586 411.40405273 C291.02012542 413.30245854 287.68253273 415.2508327 284.36694336 417.32202148 C283.80410645 417.67345215 283.24126953 418.02488281 282.66137695 418.38696289 C281.01079621 419.4205041 279.36454448 420.46094913 277.71850586 421.50170898 C274.3431071 423.4586366 271.03299298 424.90336995 267.43725586 426.40405273 C266.15054853 427.10482776 264.8748801 427.82742527 263.62475586 428.59155273 C260.43725586 430.40405273 260.43725586 430.40405273 258.43725586 430.40405273 C258.43725586 431.06405273 258.43725586 431.72405273 258.43725586 432.40405273 C257.80819336 432.63479492 257.17913086 432.86553711 256.53100586 433.10327148 C252.22898614 434.74244466 248.26021464 436.3813552 244.43725586 438.96655273 C240.84771963 441.32151686 237.43668319 442.42551425 233.30834961 443.52514648 C229.89155525 444.57110394 226.71440986 445.98057175 223.43725586 447.40405273 C201.81654258 456.37115615 174.42446763 456.35573064 152.80834961 447.47827148 C149.70424453 446.14238902 146.62916951 444.74905777 143.55834961 443.33862305 C141.51637624 442.43891379 139.46420147 441.64893832 137.36694336 440.88842773 C133.32940026 439.40935739 129.51997674 437.59682768 125.68725586 435.65405273 C124.99913818 435.30842285 124.31102051 434.96279297 123.60205078 434.60668945 C118.26396606 431.8952617 113.10435359 428.96112773 107.98803711 425.84936523 C105.50538232 424.36298031 105.50538232 424.36298031 102.95288086 423.43139648 C98.98720934 421.81187535 95.61037592 419.3323062 92.05834961 416.96264648 C89.75274054 415.59165093 88.05206848 414.85318525 85.43725586 414.40405273 C85.43725586 413.74405273 85.43725586 413.08405273 85.43725586 412.40405273 C84.38538086 412.03280273 84.38538086 412.03280273 83.31225586 411.65405273 C80.06639654 410.24280955 77.37853719 408.36490696 74.43725586 406.40405273 C73.65350586 406.10370117 72.86975586 405.80334961 72.06225586 405.49389648 C69.18573346 404.29962602 66.95413163 402.79522028 64.43725586 400.96655273 C61.17984792 398.61002168 57.88880482 396.46375756 54.43725586 394.40405273 C51.70215179 392.49498681 49.07999232 390.43850771 46.43725586 388.40405273 C45.89794434 387.99558105 45.35863281 387.58710938 44.80297852 387.16625977 C38.0126701 382.01915766 31.70904163 377.16275244 26.43725586 370.40405273 C25.57100586 369.55842773 24.70475586 368.71280273 23.81225586 367.84155273 C21.23589413 365.19739201 19.41538216 362.52110024 17.43725586 359.40405273 C16.9920459 358.79029785 16.54683594 358.17654297 16.08813477 357.54418945 C6.57817681 344.2052632 2.18980205 326.71645611 0.6953125 310.57373047 C0.57490884 309.28295562 0.45450518 307.99218077 0.33045292 306.66229153 C-1.50899849 284.83440193 -1.01009024 262.81374592 -1.00338155 240.92963162 C-1.00205598 234.0301889 -1.01965221 227.13082696 -1.03845226 220.23141437 C-1.07171366 207.91372516 -1.09354881 195.59604686 -1.10644531 183.27832031 C-1.1072148 182.5464129 -1.10798429 181.8145055 -1.1087771 181.06041908 C-1.11187973 178.09446519 -1.11496252 175.12851128 -1.11801714 172.16255734 C-1.12657694 163.9664418 -1.13747606 155.77033002 -1.14941406 147.57421875 C-1.15048208 146.83868674 -1.1515501 146.10315474 -1.15265048 145.34533388 C-1.17079333 133.04520315 -1.19679955 120.74509836 -1.2275452 108.44499296 C-1.24597431 100.89688576 -1.25700713 93.3488369 -1.25806712 85.80070686 C-1.25930928 80.02039567 -1.27043576 74.24013602 -1.28500748 68.45984459 C-1.28926024 66.10414622 -1.29016553 63.74843885 -1.28733253 61.39273834 C-0.99111814 38.44658785 -0.99111814 38.44658785 -6.18774414 16.27905273 C-7.88239361 11.80243536 -9.14918093 8.21828967 -8.56274414 3.40405273 C-6.15828512 0.02867944 -3.99428044 0.02147495 0 0 Z M144.43725586 134.40405273 C143.2809668 134.80881836 142.12467773 135.21358398 140.93334961 135.63061523 C134.83227572 137.8221945 129.61277767 140.29579796 124.34350586 144.07592773 C122.43725586 145.40405273 122.43725586 145.40405273 119.49975586 146.77905273 C115.53074068 148.88506079 112.26707682 151.61877942 108.80444336 154.46655273 C106.43725586 156.40405273 106.43725586 156.40405273 104.13256836 158.02905273 C103.57311523 158.48280273 103.01366211 158.93655273 102.43725586 159.40405273 C102.43725586 160.06405273 102.43725586 160.72405273 102.43725586 161.40405273 C101.77725586 161.40405273 101.11725586 161.40405273 100.43725586 161.40405273 C100.43725586 162.06405273 100.43725586 162.72405273 100.43725586 163.40405273 C99.87264648 163.63608398 99.30803711 163.86811523 98.72631836 164.10717773 C95.85584215 165.73345436 94.02569557 167.71112596 91.81225586 170.15405273 C90.64823242 171.41475586 90.64823242 171.41475586 89.46069336 172.70092773 C87.27111308 175.32922157 87.27111308 175.32922157 86.35131836 178.66967773 C86.04967773 179.57202148 85.74803711 180.47436523 85.43725586 181.40405273 C83.95225586 181.89905273 83.95225586 181.89905273 82.43725586 182.40405273 C81.01856182 184.51131793 79.77469868 186.5576905 78.56225586 188.77905273 C78.20856934 189.4182666 77.85488281 190.05748047 77.49047852 190.71606445 C76.45740586 192.60428907 75.44354376 194.50144242 74.43725586 196.40405273 C73.96803711 197.28577148 73.49881836 198.16749023 73.01538086 199.07592773 C70.13065336 204.95777471 68.16476341 211.09251962 66.24975586 217.34155273 C65.9995166 218.15188965 65.74927734 218.96222656 65.49145508 219.79711914 C57.4143178 247.16326849 59.66813343 279.25337252 72.69018555 304.86865234 C73.91051111 307.06528359 75.16472313 309.23737398 76.43725586 311.40405273 C77.27058919 312.96655273 78.10392253 314.52905273 78.93725586 316.09155273 C80.48368469 318.89567843 82.10042956 321.35041868 84.18725586 323.77905273 C86.43725586 326.40405273 86.43725586 326.40405273 87.43725586 329.40405273 C88.53328001 330.53432764 89.63755742 331.65751078 90.77709961 332.74389648 C93.75439073 335.7211876 96.47849879 338.93462093 99.25366211 342.09936523 C101.21487402 344.16933845 103.04706308 345.85775466 105.43725586 347.40405273 C106.09725586 347.40405273 106.75725586 347.40405273 107.43725586 347.40405273 C107.43725586 348.06405273 107.43725586 348.72405273 107.43725586 349.40405273 C112.25758501 353.84181608 117.68807457 357.31652945 123.43725586 360.40405273 C125.11687272 361.39073349 126.79399008 362.38139731 128.46850586 363.37670898 C130.78577599 364.58591939 133.16783825 365.60837465 135.57641602 366.62109375 C137.31715902 367.3535213 139.0475841 368.11033705 140.77709961 368.86889648 C169.4415334 380.60232921 204.48096298 381.28433563 233.3215332 369.61645508 C235.03298492 368.89351819 236.73552095 368.1495747 238.43725586 367.40405273 C239.31381836 367.05342773 240.19038086 366.70280273 241.09350586 366.34155273 C245.89369135 364.36887376 250.03475717 361.80770567 254.29663086 358.85717773 C257.24908262 356.85295866 260.32460926 355.14713483 263.43725586 353.40405273 C264.42725586 352.74405273 265.41725586 352.08405273 266.43725586 351.40405273 C266.43725586 350.74405273 266.43725586 350.08405273 266.43725586 349.40405273 C267.09725586 349.40405273 267.75725586 349.40405273 268.43725586 349.40405273 C268.43725586 348.74405273 268.43725586 348.08405273 268.43725586 347.40405273 C269.03022461 347.29963867 269.62319336 347.19522461 270.23413086 347.08764648 C272.76135958 346.30348864 273.86027766 345.35350749 275.68725586 343.46655273 C276.20803711 342.9419043 276.72881836 342.41725586 277.26538086 341.87670898 C278.64481186 340.45689438 278.64481186 340.45689438 278.43725586 338.40405273 C279.01475586 338.17717773 279.59225586 337.95030273 280.18725586 337.71655273 C283.03465395 336.05557051 284.55792779 334.08880712 286.43725586 331.40405273 C286.43725586 330.74405273 286.43725586 330.08405273 286.43725586 329.40405273 C287.09725586 329.40405273 287.75725586 329.40405273 288.43725586 329.40405273 C290.45508318 326.4983814 291.7921999 323.8873549 292.43725586 320.40405273 C293.09725586 320.40405273 293.75725586 320.40405273 294.43725586 320.40405273 C301.40058633 307.86018082 307.73531751 295.96097071 311.06225586 281.96655273 C311.29170898 281.0377832 311.52116211 280.10901367 311.75756836 279.15209961 C312.86731726 274.51163174 313.85945525 270.2124347 313.43725586 265.40405273 C311.58590656 263.55270343 308.54496246 264.2665985 306.0690918 264.25878906 C305.40398087 264.25543045 304.73886993 264.25207184 304.05360413 264.24861145 C301.84292763 264.2390715 299.63232669 264.23715649 297.42163086 264.23608398 C295.88804086 264.23287231 294.35445116 264.22950831 292.82086182 264.22599792 C289.59939871 264.2199982 286.37796245 264.21815877 283.15649414 264.21875 C279.03277448 264.2188514 274.90922788 264.20522632 270.78554916 264.18797779 C267.61477878 264.17684318 264.44404995 264.17483128 261.27326202 264.17535973 C259.75345516 264.17418077 258.23364719 264.16976371 256.71385956 264.16202736 C254.58345059 264.1522027 252.45341332 264.15511564 250.32299805 264.16113281 C248.50551056 264.15899529 248.50551056 264.15899529 246.65130615 264.15681458 C239.02563553 264.74341298 234.69015909 269.26985918 229.43725586 274.40405273 C228.08568911 276.05596765 226.7476352 277.7192793 225.43725586 279.40405273 C223.77058919 280.73738607 222.10392253 282.0707194 220.43725586 283.40405273 C219.77725586 284.22905273 219.11725586 285.05405273 218.43725586 285.90405273 C216.33405951 288.53304817 214.05826043 290.30724908 211.43725586 292.40405273 C210.77725586 293.22905273 210.11725586 294.05405273 209.43725586 294.90405273 C207.33405951 297.53304817 205.05826043 299.30724908 202.43725586 301.40405273 C201.50913086 302.57967773 201.50913086 302.57967773 200.56225586 303.77905273 C196.9044989 308.29745839 193.72832755 311.96191609 187.87475586 313.09155273 C183.39375519 312.1953526 181.75160142 310.48716489 178.43725586 307.40405273 C177.77725586 307.40405273 177.11725586 307.40405273 176.43725586 307.40405273 C176.21038086 306.84717773 175.98350586 306.29030273 175.74975586 305.71655273 C174.0617555 302.74245686 171.97049069 300.68396408 169.43725586 298.40405273 C168.77725586 298.40405273 168.11725586 298.40405273 167.43725586 298.40405273 C167.17299805 297.80077148 166.90874023 297.19749023 166.63647461 296.57592773 C165.37970512 294.29982403 164.28285423 293.2358684 162.24975586 291.65405273 C158.79325826 288.81555678 155.95710332 285.68273262 153.05834961 282.28686523 C150.13691852 278.89378141 147.0497129 275.89668122 143.56225586 273.09155273 C140.36594747 270.48684899 137.78229918 267.46855477 135.11303711 264.33764648 C132.99790608 261.89711068 130.753926 259.65258552 128.43725586 257.40405273 C127.43725586 256.40405273 127.43725586 256.40405273 126.93725586 252.84155273 C126.98114595 247.95219619 129.27183095 245.55334806 132.56225586 242.15014648 C134.75883272 240.10458428 137.07561339 238.2550698 139.43725586 236.40405273 C140.09725586 235.57905273 140.75725586 234.75405273 141.43725586 233.90405273 C143.54045221 231.2750573 145.81625129 229.50085639 148.43725586 227.40405273 C149.09725586 226.57905273 149.75725586 225.75405273 150.43725586 224.90405273 C152.54045221 222.2750573 154.81625129 220.50085639 157.43725586 218.40405273 C158.05600586 217.62030273 158.67475586 216.83655273 159.31225586 216.02905273 C161.5606767 213.25159169 163.9807569 211.15158804 166.71069336 208.86889648 C170.32055349 205.80623234 173.43504068 202.42296276 176.43725586 198.77905273 C179.83974207 194.80515663 182.50594018 192.76845192 187.74975586 191.77905273 C196.14241511 193.20153735 202.88368431 202.72827367 208.67944336 208.58374023 C209.9538176 209.8637944 209.9538176 209.8637944 211.25393677 211.16970825 C213.94249706 213.87039603 216.6277689 216.57431641 219.31225586 219.27905273 C222.8693091 222.86262288 226.42960919 226.4429206 229.99194336 230.02124023 C230.80960175 230.84719696 231.62726013 231.67315369 232.46969604 232.5241394 C233.22453278 233.28227936 233.97936951 234.04041931 234.75708008 234.8215332 C235.42134003 235.49102997 236.08559998 236.16052673 236.76998901 236.85031128 C240.12102509 239.97317291 242.89393547 239.52526119 247.36547852 239.51757812 C248.07778122 239.51772415 248.79008392 239.51787018 249.52397156 239.51802063 C251.88311792 239.51732284 254.24218575 239.5095367 256.60131836 239.50170898 C258.2351375 239.49984433 259.8689572 239.49842065 261.5027771 239.49742126 C265.80673766 239.49359983 270.11066457 239.48377271 274.41461182 239.47271729 C278.8049677 239.46249515 283.19532901 239.45792192 287.58569336 239.45288086 C296.20289632 239.44215012 304.8200719 239.42507816 313.43725586 239.40405273 C313.2938194 237.49997445 313.14599011 235.59622679 312.99633789 233.69262695 C312.91449249 232.63244354 312.83264709 231.57226013 312.74832153 230.47994995 C312.33152437 226.35855266 311.4584098 222.50120244 310.31225586 218.52905273 C310.09851318 217.77019775 309.88477051 217.01134277 309.66455078 216.22949219 C307.77520249 209.87101881 305.12855255 204.15042818 301.98803711 198.32202148 C300.43725586 195.40405273 300.43725586 195.40405273 299.41772461 192.81811523 C298.34493955 190.17675601 297.01199662 187.96547444 295.43725586 185.59155273 C294.92163086 184.80135742 294.40600586 184.01116211 293.87475586 183.19702148 C293.40038086 182.6053418 292.92600586 182.01366211 292.43725586 181.40405273 C291.77725586 181.40405273 291.11725586 181.40405273 290.43725586 181.40405273 C290.37344727 180.37731445 290.37344727 180.37731445 290.30834961 179.32983398 C289.05953321 175.13537891 286.48773809 172.70446802 283.49975586 169.59155273 C282.94868164 168.99407227 282.39760742 168.3965918 281.82983398 167.78100586 C280.41366718 166.27536072 278.92991164 164.83390392 277.43725586 163.40405273 C276.77725586 163.40405273 276.11725586 163.40405273 275.43725586 163.40405273 C275.18975586 162.82655273 274.94225586 162.24905273 274.68725586 161.65405273 C272.19927948 157.17569524 268.75198691 154.95366654 264.43725586 152.40405273 C263.32838888 151.53501703 262.22486922 150.65914342 261.12475586 149.77905273 C228.71099155 125.57357994 182.09528415 120.00661871 144.43725586 134.40405273 Z " fill="#32EC88" transform="translate(265.562744140625,-0.404052734375)"/>
<path d="M0 0 C15.18 0 30.36 0 46 0 C47.32 3.96 48.64 7.92 50 12 C51.89645061 15.84108336 51.89645061 15.84108336 53.8515625 19.65234375 C55.25505354 22.52138496 56.18012721 25.42085015 57.125 28.46484375 C58.22827775 31.66139403 59.57808086 34.71642292 60.9375 37.8125 C62.87507836 42.24602289 64.60224621 46.63773497 66.0625 51.25 C67.57330382 55.99014699 69.53750217 60.22840629 71.83984375 64.62890625 C73.30127972 67.61574676 74.31999813 70.64725114 75.30859375 73.81640625 C76.40031423 77.26426924 77.71020062 80.62195401 79 84 C83.80247226 76.79629161 86.32167229 68.19805951 88.96484375 60.01171875 C90.39532383 55.84983143 92.12628479 51.83562295 93.8515625 47.7890625 C94.82036905 45.4362466 95.66634672 43.10982854 96.4375 40.6875 C97.96181947 35.91534076 99.85368061 31.29981705 101.73364258 26.66015625 C103.57854048 22.09347514 105.31110875 17.50127655 106.9453125 12.85546875 C108.54067261 8.53617897 110.28993091 4.27517272 112 0 C127.18 0 142.36 0 158 0 C159.45250934 51.66783237 160.19374723 103.31254468 160 155 C147.13 155 134.26 155 121 155 C120.67 125.63 120.34 96.26 120 66 C118.35 70.29 116.7 74.58 115 79 C112.375 84.25 112.375 84.25 111.11328125 86.68359375 C109.73332157 89.55487828 108.82315067 92.4706283 107.8828125 95.5078125 C106.37168137 99.77374905 104.35854193 103.81006147 102.40234375 107.88671875 C100.97026971 110.92564249 100.97026971 110.92564249 100.03125 113.90625 C98.77907772 117.66276683 97.18775875 121.20558494 95.5625 124.8125 C93.04710593 130.46547959 90.79984528 136.0710979 89 142 C83.06 142 77.12 142 71 142 C69.74883709 139.0421537 68.49893051 136.08378893 67.25 133.125 C66.87875 132.24674561 66.5075 131.36849121 66.125 130.46362305 C64.35598925 126.26728349 62.61769529 122.06997989 61 117.8125 C58.97606781 112.63922041 56.37837989 107.76071386 53.85595703 102.81835938 C51.78167783 98.70682428 50.07936155 94.70640852 48.77734375 90.28125 C47.34386128 86.07444716 45.32282725 82.11551022 43.40234375 78.11328125 C42 75 42 75 40 69 C39.67 97.38 39.34 125.76 39 155 C26.13 155 13.26 155 0 155 C0 103.85 0 52.7 0 0 Z " fill="#FFFFFF" transform="translate(622,531)"/>
<path d="M0 0 C4.46317761 4.24001873 7.96944173 8.15531067 9.984375 14.09765625 C10.45617187 15.4434375 10.45617187 15.4434375 10.9375 16.81640625 C14.61916407 29.66613575 13.10453831 41.5921079 7.734375 53.59765625 C4.89318534 58.16438518 1.57527587 61.17720582 -3.265625 63.59765625 C-2.68554688 64.04496094 -2.10546875 64.49226562 -1.5078125 64.953125 C0.11718254 66.21075317 1.73670768 67.47547131 3.3515625 68.74609375 C5.19531259 70.17877824 7.08187778 71.5564563 8.984375 72.91015625 C15.3780276 79.15849857 17.39583244 86.24820149 17.73828125 95.02734375 C17.71655261 114.88731852 17.71655261 114.88731852 12.734375 123.59765625 C12.22777344 124.71527344 12.22777344 124.71527344 11.7109375 125.85546875 C7.63791149 134.37704799 1.0639694 139.63467394 -7.78564453 142.83105469 C-38.22606706 153.01662005 -70.32990818 147.59765625 -102.265625 147.59765625 C-102.265625 95.45765625 -102.265625 43.31765625 -102.265625 -10.40234375 C-24.60376933 -20.11007571 -24.60376933 -20.11007571 0 0 Z M-64.265625 20.59765625 C-64.265625 31.15765625 -64.265625 41.71765625 -64.265625 52.59765625 C-58.2946875 52.72140625 -58.2946875 52.72140625 -52.203125 52.84765625 C-50.34095337 52.90228027 -50.34095337 52.90228027 -48.44116211 52.95800781 C-41.82068242 53.0243035 -37.55250951 52.72985033 -32.265625 48.59765625 C-29.41147033 45.12832037 -28.35635897 41.45962897 -27.890625 37.03515625 C-28.48454412 31.59089767 -28.95955181 27.37756716 -33.265625 23.72265625 C-37.38257364 20.8064843 -39.14874066 20.47572963 -44.1484375 20.5 C-45.19918457 20.50249756 -46.24993164 20.50499512 -47.33251953 20.50756836 C-49.34128174 20.52122437 -49.34128174 20.52122437 -51.390625 20.53515625 C-57.76375 20.56609375 -57.76375 20.56609375 -64.265625 20.59765625 Z M-64.265625 79.59765625 C-64.595625 91.47765625 -64.925625 103.35765625 -65.265625 115.59765625 C-60.810625 115.65953125 -56.355625 115.72140625 -51.765625 115.78515625 C-49.68217773 115.82612427 -49.68217773 115.82612427 -47.55664062 115.86791992 C-39.22059866 115.92383826 -32.89869453 115.68963032 -26.328125 110.09765625 C-21.79283637 104.60033669 -22.72252214 97.37496802 -23.265625 90.59765625 C-24.86207368 85.14236304 -28.40411596 82.30542289 -33.265625 79.59765625 C-36.83480158 79.05201296 -36.83480158 79.05201296 -40.6328125 79.20703125 C-41.87659668 79.21702148 -43.12038086 79.22701172 -44.40185547 79.23730469 C-45.96564941 79.2737207 -47.52944336 79.31013672 -49.140625 79.34765625 C-56.6275 79.47140625 -56.6275 79.47140625 -64.265625 79.59765625 Z " fill="#FFFFFF" transform="translate(102.265625,541.40234375)"/>
<path d="M0 0 C1.64510941 0.00015915 3.29022379 0.00585551 4.93530273 0.01586914 C6.23164894 0.01799156 6.23164894 0.01799156 7.55418396 0.02015686 C10.32578941 0.025773 13.09731528 0.0383282 15.86889648 0.05102539 C17.74324428 0.05603831 19.61759334 0.06060158 21.49194336 0.06469727 C26.09679192 0.07574767 30.70158069 0.09302309 35.30639648 0.11352539 C35.60132996 1.01416466 35.60132996 1.01416466 35.90222168 1.93299866 C36.16515015 2.7299968 36.42807861 3.52699493 36.69897461 4.34814453 C37.08672058 5.5272213 37.08672058 5.5272213 37.4822998 6.7301178 C38.75453785 10.40961547 40.27975875 13.97148017 41.80639648 17.55102539 C44.02977828 22.84268555 45.97814479 28.04421452 47.49389648 33.58618164 C48.9366823 38.07407791 50.95811065 42.33333319 52.90405273 46.62133789 C54.17684623 49.79091278 55.00808536 52.77105303 55.78125 56.07836914 C56.66491185 59.50291827 57.95928704 62.76022489 59.24389648 66.05102539 C60.84997273 70.20382101 62.40510633 74.35385348 63.79077148 78.58618164 C65.2413592 82.99651621 66.90225659 87.30107381 68.61889648 91.61352539 C71.32532018 98.47995627 73.8716373 105.38554737 76.26464844 112.36743164 C77.37052256 115.5707078 78.54268606 118.65885381 79.89233398 121.77368164 C81.11511739 124.66174743 81.9633428 127.32345393 82.68139648 130.36352539 C83.97554121 135.37489433 85.88667508 139.79940915 88.22045898 144.41040039 C89.30639648 147.11352539 89.30639648 147.11352539 90.30639648 154.11352539 C76.44639648 154.11352539 62.58639648 154.11352539 48.30639648 154.11352539 C44.13767203 143.98948028 40.2847617 134.52179094 37.30639648 124.11352539 C36.97639648 123.12352539 36.64639648 122.13352539 36.30639648 121.11352539 C21.45639648 121.11352539 6.60639648 121.11352539 -8.69360352 121.11352539 C-9.35360352 124.08352539 -10.01360352 127.05352539 -10.69360352 130.11352539 C-11.61382957 132.63581629 -12.59168709 135.13796871 -13.63110352 137.61352539 C-15.91999119 143.09280638 -17.80262206 148.44058103 -19.69360352 154.11352539 C-33.22360352 154.11352539 -46.75360352 154.11352539 -60.69360352 154.11352539 C-59.56606728 146.22077177 -59.56606728 146.22077177 -58.00610352 142.11352539 C-57.65290039 141.17637695 -57.29969727 140.23922852 -56.93579102 139.27368164 C-55.2699784 135.03581244 -53.55367199 130.81855676 -51.83764648 126.60083008 C-50.1038786 122.28787606 -48.72172137 117.97437263 -47.47094727 113.50415039 C-46.2632793 109.79011625 -44.53452857 106.33773898 -42.87329102 102.80883789 C-41.80720938 100.37308845 -41.02123833 98.04750405 -40.31860352 95.48852539 C-38.76026102 89.89103081 -36.48843266 84.6349339 -34.24316406 79.28735352 C-32.47508365 75.06008938 -30.86997461 70.85199503 -29.50219727 66.47680664 C-28.36608289 63.1562791 -27.02045505 59.92361442 -25.69360352 56.67602539 C-23.97025727 52.45424436 -22.3583144 48.26044667 -21.13110352 43.86352539 C-19.84450421 39.26526516 -17.9033282 35.12116541 -15.87329102 30.80883789 C-14.80720938 28.37308845 -14.02123833 26.04750405 -13.31860352 23.48852539 C-11.93341866 18.51957738 -10.03291023 13.81301101 -8.06860352 9.05102539 C-7.75487793 8.28773926 -7.44115234 7.52445313 -7.11791992 6.73803711 C-4.36317094 0.134105 -4.36317094 0.134105 0 0 Z M14.30639648 50.11352539 C11.69549613 56.56105412 9.21003533 62.80249186 7.90795898 69.64477539 C6.77954676 74.2756619 4.9945846 78.71193469 3.32983398 83.17211914 C2.19685718 85.90928485 2.19685718 85.90928485 2.30639648 88.11352539 C10.55639648 88.11352539 18.80639648 88.11352539 27.30639648 88.11352539 C25.82139648 83.65852539 25.82139648 83.65852539 24.30639648 79.11352539 C23.82297333 76.8988185 23.33975377 74.68401984 22.8737793 72.46557617 C21.80934133 68.0530136 20.22094875 63.81608584 18.68139648 59.55102539 C18.35655273 58.63772461 18.03170898 57.72442383 17.69702148 56.78344727 C16.90486019 54.55840598 16.10793058 52.33520364 15.30639648 50.11352539 C14.97639648 50.11352539 14.64639648 50.11352539 14.30639648 50.11352539 Z " fill="#FFFFFF" transform="translate(523.693603515625,531.886474609375)"/>
<path d="M0 0 C1.18078125 0.27328125 2.3615625 0.5465625 3.578125 0.828125 C8.17091356 1.98246223 12.23139043 3.0244383 16 6 C16.56762695 9.1862793 16.56762695 9.1862793 16.48828125 13.07421875 C16.48120651 13.7580513 16.47413177 14.44188385 16.46684265 15.1464386 C16.43888004 17.32791159 16.37615064 19.50680494 16.3125 21.6875 C16.28741897 23.1672806 16.26460544 24.64710149 16.24414062 26.12695312 C16.18905135 29.75213863 16.10277108 33.37581753 16 37 C12.63084343 38.14468633 10.71234833 37.83895853 7.375 36.69921875 C-9.9978924 31.11280368 -30.51388642 27.07019092 -47.9375 34.26953125 C-55.6627588 38.63469662 -61.03576894 45.82680824 -64.1328125 54.08203125 C-66.5678361 63.34878945 -66.01093883 73.49571675 -66 83 C-66.00789551 83.83305664 -66.01579102 84.66611328 -66.02392578 85.52441406 C-66.07092083 95.00106717 -64.58276538 102.16316034 -59 110 C-58.53335938 110.68835938 -58.06671875 111.37671875 -57.5859375 112.0859375 C-52.95595374 118.21613946 -46.45427483 120.82653845 -39 122 C-36.96069048 122.11630014 -34.91758454 122.17495341 -32.875 122.1875 C-31.84117187 122.20167969 -30.80734375 122.21585938 -29.7421875 122.23046875 C-24.73824603 121.92229281 -19.91120029 120.97769778 -15 120 C-15.03552979 118.70263916 -15.07105957 117.40527832 -15.10766602 116.06860352 C-15.23764142 111.27364566 -15.36093938 106.47853568 -15.48217773 101.68334961 C-15.53568107 99.60452552 -15.59101658 97.52574778 -15.64819336 95.44702148 C-15.72987259 92.46608477 -15.80504838 89.48504569 -15.87890625 86.50390625 C-15.90594131 85.56849503 -15.93297638 84.6330838 -15.96083069 83.66932678 C-15.98092697 82.80850998 -16.00102325 81.94769318 -16.02172852 81.06079102 C-16.04171402 80.29912125 -16.06169952 79.53745148 -16.08229065 78.75270081 C-16 77 -16 77 -15 76 C-12.3339846 75.91145653 -9.69330601 75.884681 -7.02734375 75.90234375 C-6.32065552 75.90335083 -5.61396729 75.90435791 -4.88586426 75.90539551 C-2.23639309 75.91064255 0.41305502 75.92460371 3.0625 75.9375 C8.981875 75.958125 14.90125 75.97875 21 76 C21 98.11 21 120.22 21 143 C12.08967972 147.79786476 5.51407336 151.18167714 -3.9375 153.375 C-5.41959961 153.74431641 -5.41959961 153.74431641 -6.93164062 154.12109375 C-24.08977726 158.33860752 -42.93895167 159.16057785 -60 154 C-61.56041016 153.58234375 -61.56041016 153.58234375 -63.15234375 153.15625 C-72.74753914 150.3490806 -80.22133174 145.32829001 -87 138 C-87.51820313 137.57074219 -88.03640625 137.14148438 -88.5703125 136.69921875 C-92.98798108 132.86595027 -95.57967159 128.52884253 -98.1875 123.375 C-98.50823486 122.74875732 -98.82896973 122.12251465 -99.15942383 121.47729492 C-100.1910991 119.34658597 -101.10582497 117.19201784 -102 115 C-102.54938232 113.72322388 -102.54938232 113.72322388 -103.10986328 112.4206543 C-106.89278448 102.25626322 -106.60657953 91.99841597 -106.52148438 81.28051758 C-106.50006548 78.0723084 -106.52135319 74.86634383 -106.546875 71.65820312 C-106.56867215 56.90760753 -104.9751253 44.58241241 -97.9375 31.375 C-97.59912109 30.70855469 -97.26074219 30.04210937 -96.91210938 29.35546875 C-95.19808585 26.03351213 -93.50365833 22.79445151 -91 20 C-90.34 20 -89.68 20 -89 20 C-88.7525 19.443125 -88.505 18.88625 -88.25 18.3125 C-85.59456527 13.39994575 -82.80274075 10.63183182 -77.83251953 8.02832031 C-75.69741175 6.89138719 -75.69741175 6.89138719 -72.8671875 4.546875 C-68.69179679 1.52876055 -64.40187428 0.41212375 -59.4375 -0.75 C-58.61314453 -0.95753906 -57.78878906 -1.16507813 -56.93945312 -1.37890625 C-37.8297588 -6.11432211 -18.99648918 -4.52458752 0 0 Z " fill="#FFFFFF" transform="translate(437,532)"/>
<path d="M0 0 C33 0 66 0 100 0 C100 11.22 100 22.44 100 34 C79.87 34 59.74 34 39 34 C39 42.58 39 51.16 39 60 C57.15 60 75.3 60 94 60 C94 70.23 94 80.46 94 91 C75.85 91 57.7 91 39 91 C39 100.24 39 109.48 39 119 C59.46 119 79.92 119 101 119 C101 130.55 101 142.1 101 154 C67.67 154 34.34 154 0 154 C0 103.18 0 52.36 0 0 Z " fill="#FFFFFF" transform="translate(799,532)"/>
<path d="M0 0 C-0.33 10.23 -0.66 20.46 -1 31 C-5.55771794 30.34889744 -9.74348393 29.65746721 -14.17578125 28.58984375 C-41.49499149 21.86414666 -41.49499149 21.86414666 -68 29 C-75.10203806 34.66532735 -78.76791142 41.30595332 -81 50 C-81.22300781 50.81597656 -81.44601563 51.63195312 -81.67578125 52.47265625 C-85.45370039 69.10064047 -83.87364064 87.86018061 -76 103 C-75.01748876 104.01718811 -74.02209934 105.02259888 -73 106 C-73 106.66 -73 107.32 -73 108 C-72.41863281 108.28875 -71.83726562 108.5775 -71.23828125 108.875 C-69.85422878 109.57064941 -68.47538498 110.27691019 -67.10546875 111 C-66.47253906 111.33 -65.83960938 111.66 -65.1875 112 C-64.24970703 112.495 -64.24970703 112.495 -63.29296875 113 C-45.05929283 120.95199495 -21.94546454 114.67143874 -4.31030273 107.77832031 C-2 107 -2 107 1 107 C1 117.89 1 128.78 1 140 C-8.01133787 144.50566893 -8.01133787 144.50566893 -11.48046875 145.4140625 C-12.24480225 145.61684814 -13.00913574 145.81963379 -13.79663086 146.02856445 C-14.58561768 146.22538818 -15.37460449 146.42221191 -16.1875 146.625 C-17.02482666 146.83664795 -17.86215332 147.0482959 -18.72485352 147.26635742 C-42.22708802 153.07698963 -66.58633536 153.20876837 -89 143 C-91.27027342 141.56428192 -93.31460802 140.07865059 -95.3515625 138.33203125 C-96.96833663 136.91988313 -96.96833663 136.91988313 -99 136.046875 C-109.15634835 130.73066141 -116.27583436 115.14780045 -120 105 C-122.38305806 96.24692793 -123.59326862 87.04669189 -124 78 C-124.05285156 76.84757813 -124.10570312 75.69515625 -124.16015625 74.5078125 C-124.50886479 59.43753902 -123.87481458 39.66613278 -116.125 26.375 C-115.59261719 25.45203125 -115.06023437 24.5290625 -114.51171875 23.578125 C-114.01285156 22.72734375 -113.51398438 21.8765625 -113 21 C-112.63519531 20.31421875 -112.27039063 19.6284375 -111.89453125 18.921875 C-108.55520558 12.65212068 -103.56923222 8.27781605 -98 4 C-97.20207031 3.36707031 -96.40414062 2.73414063 -95.58203125 2.08203125 C-70.88126216 -16.07729279 -25.76288434 -15.4577306 0 0 Z " fill="#FFFFFF" transform="translate(253,538)"/>
<path d="M0 0 C6.48759294 0.14317446 10.28187599 1.54202075 14.8671875 6.18359375 C19.34823172 11.69608038 18.84002305 18.28899966 18.39453125 25.0625 C17.69667771 29.6857797 16.15121054 31.50958519 12.58203125 34.3125 C7.01842734 38.12811346 2.28171651 40.09176569 -4.60546875 39.0625 C-9.93760337 37.24249095 -13.99297357 34.41874419 -17.60546875 30.0625 C-19.43407833 26.30903823 -19.90204997 23.22260818 -19.91796875 19.0625 C-19.93472656 18.051875 -19.95148438 17.04125 -19.96875 16 C-19.26008087 10.26968621 -15.51815219 6.38507163 -11.48046875 2.515625 C-7.84453159 -0.3022263 -4.39448661 0.10541497 0 0 Z " fill="#FFFFFF" transform="translate(299.60546875,649.9375)"/>
</svg>
