<?xml version="1.0" encoding="UTF-8"?>
<svg version="1.1" xmlns="http://www.w3.org/2000/svg" width="240" height="336">
<path d="M0 0 C2.93911631 0.24653772 4.52299126 0.51725798 6.625 2.64453125 C13.99373288 14.26284588 17.66560224 26.78459781 21 40 C21.20044922 40.76231934 21.40089844 41.52463867 21.60742188 42.31005859 C24.0868781 51.86409443 25.18431519 60.55534058 24.875 70.4375 C24.58331102 79.80144355 26.02279387 84.99146354 31 93 C31.86845189 95.33597475 32.44708392 97.56716925 33 100 C33.72316406 98.75283203 33.72316406 98.75283203 34.4609375 97.48046875 C35.09257812 96.39378906 35.72421875 95.30710937 36.375 94.1875 C37.00148437 93.10855469 37.62796875 92.02960938 38.2734375 90.91796875 C39.46055346 88.91168907 40.70689373 86.93965941 42 85 C42.08186304 82.05218636 42.0605337 79.1771633 41.96875 76.234375 C41.79110591 64.7621828 43.05942285 53.61412336 44.5 42.25 C44.74197964 40.26966465 44.98286996 38.28919588 45.22265625 36.30859375 C45.80262737 31.53743944 46.39706667 26.76830462 47 22 C53.1990673 23.2424291 56.75037295 28.48701486 60.33203125 33.39453125 C70.17686595 48.77276251 81.05522906 71.18563427 78.3359375 89.70703125 C77.55148199 95.06139617 77.71715397 100.11111938 78.9375 105.375 C80.74358203 113.41911005 80.6797221 121.79077162 81 130 C83.81145577 128.10861514 83.81145577 128.10861514 86 125 C85.55173248 122.92862166 85.07918035 120.85956745 84.48681641 118.82470703 C83.41480317 112.60444971 85.15187611 106.11217924 86.1875 99.9375 C86.5491533 97.66815705 86.90476163 95.39791932 87.25999451 93.12756348 C87.4978627 91.60928787 87.73757458 90.09129995 87.97914124 88.5736084 C89.0698807 81.69173883 89.97560821 74.79227553 90.8125 67.875 C90.93584717 66.86300537 91.05919434 65.85101074 91.1862793 64.80834961 C91.46088528 62.53927938 91.73250024 60.26991699 92 58 C98.09416893 59.2635892 100.66606931 64.01783391 104 69 C114.15366937 87.00918312 117.87385028 107.2640931 119.125 127.6875 C119.18654266 128.68103485 119.18654266 128.68103485 119.24932861 129.69464111 C119.52161345 134.12866918 119.76674506 138.56376686 120 143 C120.04962891 143.88606934 120.09925781 144.77213867 120.15039062 145.68505859 C120.81406123 158.72506105 118.72538786 171.63641362 112 183 C111.67 183.33 111.34 183.66 111 184 C110.87437765 185.76747729 110.82423442 187.54060292 110.8125 189.3125 C110.79832031 190.27800781 110.78414062 191.24351562 110.76953125 192.23828125 C110.81763106 194.95091259 110.81763106 194.95091259 112 196.92993164 C118.60191273 210.5963423 109.36569129 239.67262138 104.80859375 253.68261719 C98.50031448 271.76177987 89.89393665 289.66759172 77 304 C76.35417969 304.72703125 75.70835937 305.4540625 75.04296875 306.203125 C67.8774896 313.83499628 59.67686201 318.59601205 49.09130859 319.08886719 C36.34568938 319.44856313 36.34568938 319.44856313 32 318 C32.04125 319.216875 32.0825 320.43375 32.125 321.6875 C32.10612171 325.25549661 31.83467436 327.85484396 30 331 C24.62911714 335.95773802 20.21575491 336.16749494 13.16796875 336.203125 C12.29860184 336.20882507 11.42923492 336.21452515 10.53352356 336.22039795 C8.69350398 336.22984278 6.85346752 336.23637988 5.01342773 336.24023438 C2.20851856 336.24992737 -0.59565379 336.2809501 -3.40039062 336.3125 C-5.19009983 336.31903168 -6.97981426 336.3242815 -8.76953125 336.328125 C-10.02138969 336.3466452 -10.02138969 336.3466452 -11.29853821 336.36553955 C-16.28512467 336.34661283 -19.66733698 335.74080868 -24 333 C-28.27671616 328.28086492 -28.09922509 324.05273071 -28 318 C-28.99 318.33 -29.98 318.66 -31 319 C-45.82794643 319.88423534 -57.37996596 318.15004818 -69.01953125 308.2890625 C-84.07037503 294.21785944 -93.19248138 274.07851705 -100 255 C-100.25410645 254.28956543 -100.50821289 253.57913086 -100.77001953 252.84716797 C-104.34794634 242.46645607 -105.93028754 231.78219385 -107.375 220.9375 C-107.46680542 220.26455902 -107.55861084 219.59161804 -107.65319824 218.89828491 C-110.03939522 201.07879044 -110.03939522 201.07879044 -107 195 C-106.16325385 188.00719292 -106.9009402 183.27150154 -110.63452148 177.33569336 C-115.93964102 168.26112182 -115.43322445 158.31989367 -115.33618164 148.14453125 C-115.31280028 145.53353263 -115.31560975 142.92357553 -115.32226562 140.3125 C-115.29927925 125.85116705 -114.70656605 111.16630411 -110.6875 97.1875 C-110.4694873 96.40181641 -110.25147461 95.61613281 -110.02685547 94.80664062 C-106.17133045 81.24716658 -100.99554971 68.27320387 -91 58 C-90.01 58 -89.02 58 -88 58 C-87.89977539 58.7621582 -87.79955078 59.52431641 -87.69628906 60.30957031 C-87.30471983 63.28141206 -86.91189669 66.25308484 -86.51815796 69.22463989 C-86.33959699 70.5732863 -86.16139381 71.92198013 -85.98355103 73.27072144 C-84.98025086 80.87268898 -83.94637301 88.46766677 -82.80859375 96.05078125 C-82.62071289 97.31438477 -82.43283203 98.57798828 -82.23925781 99.87988281 C-81.87730403 102.29568408 -81.50839746 104.71045601 -81.13183594 107.12402344 C-80.96844727 108.21875977 -80.80505859 109.31349609 -80.63671875 110.44140625 C-80.48936279 111.39732666 -80.34200684 112.35324707 -80.19018555 113.33813477 C-79.93745115 116.87544298 -80.45694538 119.75873229 -81.875 123 C-81.91625 123.66 -81.9575 124.32 -82 125 C-80.37713684 126.70934804 -78.71136705 128.3792661 -77 130 C-76.95101562 128.82824219 -76.90203125 127.65648438 -76.8515625 126.44921875 C-76.77642603 124.86196093 -76.70088314 123.2747223 -76.625 121.6875 C-76.57859375 120.53797852 -76.57859375 120.53797852 -76.53125 119.36523438 C-76.31518346 115.02589794 -75.82545943 110.92432206 -74.94140625 106.66796875 C-73.96703548 101.63269194 -73.96744812 96.96443079 -74.18164062 91.85498047 C-74.74638868 77.91539704 -72.59233014 66.72782686 -67 54 C-66.66871094 53.24444824 -66.33742187 52.48889648 -65.99609375 51.71044922 C-61.33858443 41.35662336 -55.83644985 30.40351204 -47 23 C-44.85546875 22.37890625 -44.85546875 22.37890625 -43 22 C-42.27092424 27.59488086 -41.55992421 33.19169889 -40.86376953 38.79077148 C-40.62590398 40.68491559 -40.38357461 42.57850586 -40.13623047 44.47143555 C-38.66713889 55.74146666 -37.66980857 66.71292453 -38.16906738 78.09111023 C-38.39921127 85.88181934 -36.00511224 90.03236617 -31 96 C-30.29311947 97.31245653 -29.61058132 98.64006887 -29 100 C-28.67386719 99.13117188 -28.34773438 98.26234375 -28.01171875 97.3671875 C-27.57472656 96.21476562 -27.13773437 95.06234375 -26.6875 93.875 C-26.25824219 92.73804687 -25.82898438 91.60109375 -25.38671875 90.4296875 C-24 87 -24 87 -22.31640625 84.16015625 C-20.50339263 79.80784759 -20.97689291 76.20191726 -21.25 71.5625 C-21.92760531 48.22320707 -14.79376785 19.88568215 -1 1 C-0.67 0.67 -0.34 0.34 0 0 Z M1 18 C-2.65119155 29.78940812 -6.15155024 41.54745846 -8.4375 53.6875 C-8.68258301 54.98530396 -8.68258301 54.98530396 -8.93261719 56.30932617 C-9.63688094 60.24826236 -10.20464429 63.98078609 -10 68 C-9.2575 67.75636719 -9.2575 67.75636719 -8.5 67.5078125 C-5.00516809 66.79792477 -1.54957763 66.85570882 2 66.875 C2.7115625 66.87113281 3.423125 66.86726563 4.15625 66.86328125 C7.57538017 66.86966022 10.73293006 66.92799268 14 68 C13.96496152 59.18782201 12.23836219 50.96926382 10.1875 42.4375 C9.93919434 41.39795166 9.69088867 40.35840332 9.43505859 39.28735352 C7.64875095 32.0596867 5.45114064 25.02869481 3 18 C2.34 18 1.68 18 1 18 Z M54 45 C53.65330105 48.9622737 53.37371166 52.92387158 53.14208984 56.89453125 C52.9980357 59.02910679 52.790005 61.15206416 52.58203125 63.28125 C52.27183815 67.37062899 52.20027634 70.9556832 53 75 C55.9302662 78.13839726 59.07724182 79.41306601 63 81 C64.3634492 81.95853224 65.70832493 82.94674159 67 84 C66.47118346 77.06192698 64.96468916 71.05945053 62.6875 64.5 C62.39166016 63.61441406 62.09582031 62.72882812 61.79101562 61.81640625 C59.83373636 56.05870785 57.56816795 50.51150882 55 45 C54.67 45 54.34 45 54 45 Z M-52 46 C-60.04998924 64.41423473 -60.04998924 64.41423473 -63 84 C-62.49210937 83.60167969 -61.98421875 83.20335937 -61.4609375 82.79296875 C-60.77257813 82.26316406 -60.08421875 81.73335937 -59.375 81.1875 C-58.36566406 80.40439453 -58.36566406 80.40439453 -57.3359375 79.60546875 C-55 78 -55 78 -49 75 C-49.33 65.76 -49.66 56.52 -50 47 C-50.66 46.67 -51.32 46.34 -52 46 Z M98 79 C97.56733273 82.9829937 97.14031375 86.96655073 96.71826172 90.95068359 C96.57426216 92.3027331 96.42878609 93.65462628 96.28173828 95.00634766 C95.51893633 102.02723913 94.78368791 108.93380519 95 116 C95.67546875 116.19335938 96.3509375 116.38671875 97.046875 116.5859375 C97.93890625 116.84632812 98.8309375 117.10671875 99.75 117.375 C101.07257813 117.75785156 101.07257813 117.75785156 102.421875 118.1484375 C104.76080572 118.9209934 106.83442562 119.83625676 109 121 C108.47379728 107.58183059 106.03487069 92.14581118 100 80 C99.34 79.67 98.68 79.34 98 79 Z M-96 80 C-101.65480865 93.65647464 -104.41097778 106.31506677 -105 121 C-104.40832031 120.72285156 -103.81664063 120.44570312 -103.20703125 120.16015625 C-102.02173828 119.61681641 -102.02173828 119.61681641 -100.8125 119.0625 C-99.64654297 118.52302734 -99.64654297 118.52302734 -98.45703125 117.97265625 C-95.97561196 116.99034559 -93.62645164 116.44318456 -91 116 C-91.51971257 107.73930546 -92.17864793 99.49193545 -92.9375 91.25 C-93.01210449 90.36860352 -93.08670898 89.48720703 -93.16357422 88.57910156 C-93.24236816 87.7537793 -93.32116211 86.92845703 -93.40234375 86.078125 C-93.46929443 85.33981445 -93.53624512 84.60150391 -93.60522461 83.84082031 C-93.87697267 81.76095107 -93.87697267 81.76095107 -96 80 Z M-10.625 87.9375 C-18.595915 100.24211636 -18.50075694 115.67824726 -16.45703125 129.734375 C-14.78017794 137.03470873 -12.39595538 143.38116505 -7.3125 148.9375 C-3.13989628 151.53553628 0.10284307 152.39382731 5 152 C11.02473069 149.85560433 13.68810457 146.43571939 16.7109375 140.875 C22.40582709 128.17367048 23.46351912 110.75359987 19.04296875 97.4296875 C16.1408559 90.66896019 13.0247304 84.09088138 6 81 C-1.41073973 79.60118567 -5.69245027 82.41774197 -10.625 87.9375 Z M-59 98 C-66.15160207 108.58717561 -66.54600327 122.83214593 -64.67919922 135.10986328 C-62.89765305 143.78380679 -59.74560819 151.15835058 -53.5625 157.5 C-50.35067222 159.38009431 -48.66655035 159.61109172 -45 159 C-40.08152851 156.18944486 -37.88647309 152.17258751 -36 147 C-31.95162541 132.1102155 -33.18488809 115.67209117 -40.68359375 102.0625 C-43.24201226 98.05405794 -45.42980961 95.5679412 -49.9375 93.9375 C-54.19190019 94.02432449 -55.83243463 95.17673521 -59 98 Z M49 97 C38.00451404 108.79868267 38.31599857 124.10982543 38.81201172 139.32421875 C39.31712588 146.5138957 41.86946507 152.86946507 47 158 C49.82001327 159.41000664 51.87007255 159.24548451 55 159 C60.24295084 156.9539704 62.56862194 152.83760393 65 148 C68.25354162 139.9199235 69.2011815 132.47168175 69.25 123.8125 C69.270625 122.91724609 69.29125 122.02199219 69.3125 121.09960938 C69.36332918 112.29980782 67.74470324 103.92743626 62 97 C56.93658131 93.29505949 54.03837833 93.25050915 49 97 Z M-101 135 C-106.40368264 142.52655797 -105.77813664 152.10523594 -105 161 C-103.53984701 167.80875686 -100.91686032 173.08313968 -96 178 C-92.89951072 179.55024464 -90.42105782 179.28992015 -87 179 C-83.44432326 176.78757892 -81.61696385 174.8099277 -80 171 C-77.34221073 158.97564692 -80.75833081 148.31031282 -87 138 C-88.99593284 135.31778653 -90.97309777 133.51345112 -94 132 C-97.07258075 132 -98.59196729 133.14766715 -101 135 Z M88.875 140.75 C83.98107592 149.23280174 81.02968073 160.3505252 83.53125 170.0625 C84.99855416 173.76265832 86.72356725 176.72469948 90 179 C95.06373653 179.64447556 97.93654088 179.02679711 102 176 C103.84356345 173.19289577 103.84356345 173.19289577 105.25 170 C105.75015625 168.948125 106.2503125 167.89625 106.765625 166.8125 C110.12220508 159.16459602 110.53452647 148.225247 107.75 140.25 C105.50038721 136.06292806 105.50038721 136.06292806 102 133 C95.15545301 131.68934207 92.75068594 135.73440643 88.875 140.75 Z M-17 170 C-17.05390357 172.93774463 -17.0936255 175.87450232 -17.125 178.8125 C-17.14175781 179.64587891 -17.15851563 180.47925781 -17.17578125 181.33789062 C-17.18222656 182.14033203 -17.18867187 182.94277344 -17.1953125 183.76953125 C-17.20578613 184.50792236 -17.21625977 185.24631348 -17.22705078 186.00708008 C-17.11741479 188.31890676 -17.11741479 188.31890676 -15 191 C-13.78074847 197.38933393 -13.85455789 204.02913395 -13.87060547 210.51367188 C-13.86885315 211.40615128 -13.86710083 212.29863068 -13.86529541 213.21815491 C-13.86093499 216.13504039 -13.86379425 219.05186402 -13.8671875 221.96875 C-13.86651279 224.01558443 -13.86554137 226.06241878 -13.86428833 228.10925293 C-13.86281922 232.38583138 -13.86494055 236.66238885 -13.86962891 240.93896484 C-13.8753257 246.39923523 -13.87204247 251.85945645 -13.86605644 257.31972504 C-13.86242955 261.54238246 -13.86359918 265.76502837 -13.86618423 269.98768616 C-13.86684762 272.00016791 -13.86604582 274.01265073 -13.86370468 276.02513123 C-13.86114307 278.84555804 -13.86506777 281.66590705 -13.87060547 284.48632812 C-13.86858124 285.3042836 -13.86655701 286.12223907 -13.86447144 286.96498108 C-13.92007045 302.38010567 -13.92007045 302.38010567 -17 307 C-17.27401018 309.02921669 -17.27401018 309.02921669 -17.1953125 311.23046875 C-17.18886719 312.03291016 -17.18242188 312.83535156 -17.17578125 313.66210938 C-17.15902344 314.49548828 -17.14226562 315.32886719 -17.125 316.1875 C-17.11597656 317.03248047 -17.10695313 317.87746094 -17.09765625 318.74804688 C-17.07410703 320.83215243 -17.03823647 322.91611217 -17 325 C-12.92830176 325.76382268 -9.07818429 326.1282321 -4.9375 326.1328125 C-3.81085938 326.13410156 -2.68421875 326.13539063 -1.5234375 326.13671875 C-0.36070313 326.13285156 0.80203125 326.12898437 2 326.125 C3.74410156 326.13080078 3.74410156 326.13080078 5.5234375 326.13671875 C6.65007812 326.13542969 7.77671875 326.13414062 8.9375 326.1328125 C10.46697266 326.13112061 10.46697266 326.13112061 12.02734375 326.12939453 C15.08896192 325.99612764 17.99050479 325.56456067 21 325 C21.05390357 322.06225537 21.0936255 319.12549768 21.125 316.1875 C21.14175781 315.35412109 21.15851563 314.52074219 21.17578125 313.66210938 C21.18222656 312.85966797 21.18867188 312.05722656 21.1953125 311.23046875 C21.21102295 310.12288208 21.21102295 310.12288208 21.22705078 308.99291992 C21.11741479 306.68109324 21.11741479 306.68109324 19 304 C17.49098663 292.47778581 17.85136482 280.62755827 17.8671875 269.02734375 C17.86651124 267.24768562 17.86553856 265.46802757 17.86428833 263.68836975 C17.86282685 259.98649198 17.86491569 256.28463858 17.86962891 252.58276367 C17.87532943 247.88095378 17.87203516 243.17920096 17.86605644 238.47739315 C17.8624122 234.81128015 17.86360693 231.14518028 17.86618423 227.47906685 C17.86684264 225.74703527 17.86606395 224.01500243 17.86370468 222.28297234 C17.83228308 192.75157538 17.83228308 192.75157538 21 188 C21.27401018 185.97078331 21.27401018 185.97078331 21.1953125 183.76953125 C21.18564453 182.56586914 21.18564453 182.56586914 21.17578125 181.33789062 C21.15902344 180.50451172 21.14226562 179.67113281 21.125 178.8125 C21.11597656 177.96751953 21.10695312 177.12253906 21.09765625 176.25195312 C21.07410703 174.16784757 21.03823647 172.08388783 21 170 C17.43692298 168.81230766 14.57234676 168.87043515 10.8125 168.8671875 C10.11358643 168.86623077 9.41467285 168.86527405 8.69458008 168.86428833 C7.21858632 168.86360859 5.74258955 168.86544855 4.26660156 168.86962891 C2.00839519 168.87498011 -0.2496123 168.86967702 -2.5078125 168.86328125 C-3.94270877 168.86394207 -5.37760492 168.86522331 -6.8125 168.8671875 C-8.11832031 168.86831543 -9.42414063 168.86944336 -10.76953125 168.87060547 C-14.01543247 168.85069644 -14.01543247 168.85069644 -17 170 Z M36 186 C22.59052007 204.69772554 25.60084328 237.03364142 26 259 C26.01256836 259.97404785 26.02513672 260.9480957 26.03808594 261.95166016 C25.69987823 285.66053693 25.69987823 285.66053693 36 306 C41.01799541 309.06655275 46.95681156 308.55288462 52.55859375 307.53515625 C65.56778655 304.18880376 72.86081691 292.81801864 79.58203125 281.890625 C90.24452564 264.37643768 90.24452564 264.37643768 95 245 C90.56302649 244.32979731 86.12533963 243.66444134 81.6875 243 C79.79354492 242.71382812 79.79354492 242.71382812 77.86132812 242.421875 C76.65283203 242.24140625 75.44433594 242.0609375 74.19921875 241.875 C73.08377686 241.70742187 71.96833496 241.53984375 70.8190918 241.3671875 C67.97800546 240.93542036 67.97800546 240.93542036 65 241 C63.93940512 248.68931285 63.90071918 256.24506486 64 264 C64.99 264.33 65.98 264.66 67 265 C67.0582253 268.08325358 67.09367134 271.16636505 67.125 274.25 C67.14175781 275.12269531 67.15851563 275.99539063 67.17578125 276.89453125 C67.18544922 278.16103516 67.18544922 278.16103516 67.1953125 279.453125 C67.21102295 280.61569824 67.21102295 280.61569824 67.22705078 281.80175781 C66.96820886 284.30779288 66.35776599 285.88428901 65 288 C62.08577389 289.07366225 60.684336 289.31375694 57.8359375 288.0078125 C57.23007813 287.67523438 56.62421875 287.34265625 56 287 C55.71382641 269.86480591 56.07440889 252.77694687 56.74664307 235.65454102 C56.83227332 233.4666738 56.91474799 231.27868083 56.99407959 229.09057617 C57.10840822 225.98436429 57.23573654 222.87896645 57.3671875 219.7734375 C57.40062256 218.83088104 57.43405762 217.88832458 57.46850586 216.91720581 C57.50838623 216.04911285 57.5482666 215.1810199 57.58935547 214.28662109 C57.62044403 213.52803802 57.65153259 212.76945496 57.68356323 211.98788452 C58 210 58 210 60 207 C63.375 207.25 63.375 207.25 67 208 C69.70722647 211.47080317 69.22796917 215.55994698 69.125 219.75 C69.11597656 220.44738281 69.10695312 221.14476562 69.09765625 221.86328125 C69.07419888 223.57566958 69.03833104 225.28788004 69 227 C74.48713229 228.97021193 80.08359694 230.29172869 85.75 231.625 C86.70777344 231.85445312 87.66554687 232.08390625 88.65234375 232.3203125 C93.27777948 233.52928804 93.27777948 233.52928804 98 234 C101.34803544 219.64166211 101.34803544 219.64166211 102 205 C98.96691885 201.31693147 94.79493816 199.73419418 90.5625 197.75 C89.7257373 197.3566748 88.88897461 196.96334961 88.02685547 196.55810547 C62.17121453 183.75626381 62.17121453 183.75626381 36 186 Z M-97 204 C-102.18119167 231.11386476 -85.16082793 266.7549074 -70.296875 288.796875 C-64.22671852 297.26205921 -57.7583533 305.45077507 -47.140625 307.6796875 C-41.0899985 308.58507322 -35.83252897 308.8772698 -30.56640625 305.3828125 C-24.75949417 300.25651106 -22.68665043 293.50479903 -22 286 C-21.27864594 272.7405058 -21.40355781 259.4461297 -29 248 C-30.90405233 246.01082533 -32.72782289 244.58523984 -35 243 C-34.35796346 237.89888775 -32.28884115 235.90786415 -28.69140625 232.453125 C-24.36922637 226.18446688 -24.6116158 217.92381115 -24.625 210.5625 C-24.62661133 209.63888672 -24.62822266 208.71527344 -24.62988281 207.76367188 C-24.78840175 198.97985807 -26.47225987 191.32992982 -33 185 C-49.15170589 176.52035441 -83.35249467 194.90166311 -97 204 Z " fill="#FEFEFE" transform="translate(115,0)"/>
<path d="M0 0 C4.31964009 0.05485257 4.31964009 0.05485257 6.625 2 C9.40152511 8.42071431 9.88356282 16.93679904 7.953125 23.6484375 C7.125 25.5625 7.125 25.5625 5.625 28.3125 C2.325 28.3125 -0.975 28.3125 -4.375 28.3125 C-5.40754884 25.21485347 -5.50408904 23.05101213 -5.5078125 19.8046875 C-5.50910156 18.73605469 -5.51039062 17.66742188 -5.51171875 16.56640625 C-5.50785156 15.45136719 -5.50398438 14.33632813 -5.5 13.1875 C-5.50386719 12.06472656 -5.50773437 10.94195312 -5.51171875 9.78515625 C-5.51042969 8.71910156 -5.50914063 7.65304687 -5.5078125 6.5546875 C-5.50668457 5.5735498 -5.50555664 4.59241211 -5.50439453 3.58154297 C-5.27986254 -0.35581616 -3.53214771 0.10859354 0 0 Z " fill="#FEFEFE" transform="translate(55.375,254.6875)"/>
<path d="M0 0 C1.34384766 -0.03867188 1.34384766 -0.03867188 2.71484375 -0.078125 C3.48957031 0.03015625 4.26429687 0.1384375 5.0625 0.25 C7.5305704 3.95210559 7.39429675 6.84112254 7.375 11.125 C7.39111328 11.83269531 7.40722656 12.54039062 7.42382812 13.26953125 C7.42680774 16.46963702 7.07587947 19.20795024 6.10546875 22.2578125 C3.61429008 24.68706894 2.75955975 24.54587806 -0.625 24.5625 C-2.06402893 24.48217143 -3.50260191 24.38536774 -4.9375 24.25 C-5.1333691 20.43788097 -5.31779565 16.62529466 -5.5 12.8125 C-5.55607422 11.72388672 -5.61214844 10.63527344 -5.66992188 9.51367188 C-5.71826172 8.47919922 -5.76660156 7.44472656 -5.81640625 6.37890625 C-5.8635376 5.42056885 -5.91066895 4.46223145 -5.95922852 3.47485352 C-5.91866143 -0.67894235 -3.59251532 0.06185105 0 0 Z " fill="#FEFEFE" transform="translate(53.9375,209.75)"/>
</svg>
