<?xml version="1.0" encoding="UTF-8"?>
<svg version="1.1" xmlns="http://www.w3.org/2000/svg" width="900" height="899">
<path d="M0 0 C0.29745505 54.00612236 0.52657426 108.01216206 0.66384928 162.01894224 C0.68010877 168.39267507 0.69693493 174.76640629 0.71411133 181.14013672 C0.71752136 182.40904951 0.7209314 183.67796231 0.72444477 184.98532701 C0.78103594 205.54049401 0.88354812 226.09518912 1.00298635 246.65007603 C1.12449047 267.73611661 1.19675004 288.82190979 1.22315043 309.90828609 C1.2410022 322.92351568 1.29741241 335.93741155 1.40291407 348.95223063 C1.47155146 357.87301917 1.49242013 366.79311673 1.47551791 375.71415025 C1.46717755 380.86428413 1.48009332 386.0120855 1.54967117 391.16180611 C1.61291504 395.87710919 1.61616153 400.58851155 1.57168563 405.30399382 C1.56618941 407.0094524 1.58271825 408.71515373 1.62348137 410.42013395 C1.73940813 415.56830862 1.66654325 420.0933331 0 425 C-3.95857959 428.80878549 -7.95261703 430.80582394 -13 433 C-14.46147982 433.82500127 -15.91477202 434.66533878 -17.34765625 435.5390625 C-18.58400208 436.23781061 -19.82225412 436.93319795 -21.0625 437.625 C-21.73603516 438.00269531 -22.40957031 438.38039063 -23.10351562 438.76953125 C-27.02180855 440.95008173 -30.97418783 443.02259972 -35 445 C-40.10908342 447.51032195 -45.07115234 450.23876988 -50.01904297 453.04858398 C-56.26777894 456.5967919 -62.54818551 460.08671453 -68.83346558 463.56964111 C-77.52598724 468.38699057 -86.21236987 473.21049755 -94.8125 478.19140625 C-102.4822676 482.54324742 -110.26852211 486.68458668 -118.04321289 490.8449707 C-128.75599174 496.5826486 -139.38708461 502.44000845 -149.94628906 508.45532227 C-156.08283411 511.94248069 -162.27276431 515.29435309 -168.52978516 518.55908203 C-174.40495048 521.64302359 -180.17237293 524.90324578 -185.9375 528.1875 C-195.4366169 533.59633206 -205.02555275 538.81844455 -214.66015625 543.98144531 C-222.97755666 548.44074452 -231.24222633 552.98473923 -239.47900391 557.59082031 C-254.45635548 565.96282044 -269.46012619 574.28021515 -284.55957031 582.43017578 C-293.41469725 587.21301014 -302.21352772 592.09251217 -311 597 C-320.68273696 602.40192494 -330.38514228 607.76413778 -340.125 613.0625 C-346.9064441 616.75241193 -353.665159 620.47545331 -360.38232422 624.28100586 C-364.9092825 626.83925313 -369.45638698 629.35987003 -374.01171875 631.8671875 C-374.64328384 632.21491211 -375.27484894 632.56263672 -375.92555237 632.92089844 C-379.09834257 634.66722616 -382.27222989 636.41152388 -385.44750977 638.15332031 C-393.03388776 642.32188313 -400.54615317 646.59794655 -408 651 C-406.9076001 650.57702637 -405.8152002 650.15405273 -404.68969727 649.71826172 C-400.55118411 648.11661777 -396.41138833 646.51831089 -392.27124023 644.92089844 C-390.49551006 644.23525373 -388.72010727 643.54876041 -386.94506836 642.86132812 C-378.2960707 639.51238139 -369.64883686 636.18347979 -360.88671875 633.140625 C-350.1619778 629.41103415 -339.56903368 625.33101272 -328.95932007 621.28833008 C-323.19720894 619.09284281 -317.43301017 616.90285294 -311.66895103 614.71248627 C-309.68669267 613.95914614 -307.70452437 613.2055694 -305.72236633 612.45196533 C-292.55247994 607.44570692 -279.3710468 602.4701635 -266.1875 597.5 C-261.80204775 595.84644852 -257.41663357 594.1927961 -253.03125 592.5390625 C-251.9905687 592.14664368 -250.94988739 591.75422485 -249.87767029 591.34991455 C-241.37818759 588.14425289 -232.88280441 584.92784285 -224.38833618 581.70892334 C-209.93715585 576.23319704 -195.47155229 570.79664753 -181 565.375 C-143.79212607 551.43420884 -106.62618136 537.38322856 -69.47970581 523.27975464 C-52.43733842 516.80999191 -35.38229396 510.3756035 -18.30932617 503.98706055 C-9.0305608 500.51466047 0.23970671 497.02144673 9.5 493.5 C20.65441065 489.25862626 31.82451457 485.06045247 43 480.875 C57.13207339 475.5811743 71.25786665 470.27104665 85.375 464.9375 C86.28792816 464.59259521 87.20085632 464.24769043 88.14144897 463.89233398 C101.74215538 458.75277771 115.33664301 453.59689724 128.92948246 448.43657589 C140.49124795 444.04739035 152.05508969 439.66368818 163.61950684 435.28149414 C166.88894129 434.04210069 170.15790963 432.80148565 173.42675781 431.56054688 C178.22546967 429.73928167 183.02601617 427.92294707 187.82821655 426.11090088 C189.55236532 425.45944242 191.27586936 424.80627479 192.99868774 424.15130615 C195.32944705 423.2655328 197.66241129 422.38584962 199.99609375 421.5078125 C200.67125031 421.24961731 201.34640686 420.99142212 202.04202271 420.72540283 C204.85753024 419.67283964 206.96423403 419 210 419 C210.4338658 425.77454508 210.72976441 432.54548722 210.93383789 439.33081055 C211.01893513 441.63360321 211.13467432 443.9354875 211.2824707 446.23510742 C212.44497198 464.79892545 212.44497198 464.79892545 208.40646362 470.08633423 C204.46195948 473.59641172 200.03528595 475.86126049 195.2263031 477.96658325 C191.58341538 479.65755749 188.29383753 481.87111493 184.9375 484.0625 C183.60475641 484.89626086 182.27033624 485.72735313 180.93359375 486.5546875 C177.11818892 488.92558851 173.30847985 491.30549553 169.5 493.6875 C164.77579609 496.64101724 160.05054235 499.59284452 155.32421875 502.54296875 C145.27473292 508.81742638 135.23416716 515.1048735 125.22338867 521.44091797 C117.80136525 526.13452081 110.35173519 530.78359531 102.90234375 535.43359375 C95.99272645 539.74879536 89.09922153 544.08855266 82.21606445 548.44580078 C75.88889074 552.44744372 69.53958455 556.4130493 63.1875 560.375 C55.43395604 565.21234445 47.70349991 570.0833606 40 575 C29.39419688 581.76753063 18.73025334 588.43969769 8.05419922 595.09570312 C-7.32595994 604.6852508 -22.68553311 614.30588323 -38 624 C-53.33085904 633.70449307 -68.71058591 643.32927033 -84.10253906 652.93652344 C-95.01091318 659.74607684 -105.91268089 666.56495297 -116.77856445 673.44213867 C-123.17116825 677.48478815 -129.58382608 681.49488694 -136 685.5 C-146.35564288 691.96500745 -156.68492276 698.47051621 -167 705 C-182.33085904 714.70449307 -197.71058591 724.32927033 -213.10253906 733.93652344 C-226.42565903 742.25348213 -239.72932798 750.59961329 -253 759 C-264.33736816 766.17659789 -275.6964983 773.31681347 -287.07885742 780.421875 C-294.18005556 784.85663784 -301.26488567 789.31649277 -308.33984375 793.79296875 C-313.21690781 796.87760756 -318.10377173 799.94588078 -323 803 C-328.78204627 806.60735402 -334.55122056 810.23456994 -340.3125 813.875 C-341.11292725 814.38063477 -341.91335449 814.88626953 -342.73803711 815.40722656 C-346.66647666 817.88983958 -350.59282195 820.37567745 -354.515625 822.8671875 C-364.30267971 829.0760088 -374.15055052 835.18003644 -384.02975464 841.24105835 C-391.16549926 845.6204881 -398.25536493 850.0498745 -405.27734375 854.609375 C-410.37642737 857.90322907 -415.53700036 861.0999429 -420.6875 864.3125 C-427.97087307 868.85545467 -435.24635389 873.4097287 -442.5 878 C-444.01171511 878.95313078 -445.52343393 879.90625566 -447.03515625 880.859375 C-450.82376868 883.25020899 -454.59815756 885.66263843 -458.37109375 888.078125 C-460.55973053 889.46901015 -462.74853084 890.85963801 -464.9375 892.25 C-465.97519531 892.91902344 -467.01289063 893.58804688 -468.08203125 894.27734375 C-469.05398438 894.89222656 -470.0259375 895.50710938 -471.02734375 896.140625 C-471.89093506 896.69266602 -472.75452637 897.24470703 -473.64428711 897.81347656 C-476 899 -476 899 -480 899 C-480.2287623 844.95975568 -480.40503224 790.91956017 -480.51065329 736.8789271 C-480.52316074 730.50261728 -480.53610393 724.1263084 -480.54931641 717.75 C-480.55193951 716.48056258 -480.55456261 715.21112517 -480.55726521 713.90321995 C-480.60080847 693.33387134 -480.67967061 672.76480148 -480.77152796 652.19561838 C-480.86495994 631.09827528 -480.92057012 610.00107842 -480.94088495 588.90353692 C-480.95462366 575.87932666 -480.99805365 562.85590424 -481.07916467 549.83193643 C-481.13192189 540.90748527 -481.14802447 531.98344287 -481.13501377 523.058847 C-481.12859225 517.90528479 -481.13860702 512.75310149 -481.19205475 507.59978294 C-481.24061012 502.88385647 -481.24325488 498.17023972 -481.20898895 493.45420839 C-481.20475248 491.74612578 -481.2175388 490.03790088 -481.24883182 488.33009969 C-481.46953098 475.54466439 -481.46953098 475.54466439 -477.81454539 471.70280862 C-475.24975623 470.13579671 -472.81531098 469.03364301 -470 468 C-468.86208008 467.35337402 -467.72416016 466.70674805 -466.55175781 466.04052734 C-465.52920898 465.4780127 -464.50666016 464.91549805 -463.453125 464.3359375 C-462.88324356 464.02182922 -462.31336212 463.70772095 -461.72621155 463.38409424 C-459.90182597 462.37919915 -458.07595714 461.37703612 -456.25 460.375 C-454.96371656 459.6672808 -453.67750333 458.95943396 -452.39135742 458.25146484 C-443.81451656 453.53310409 -435.22280012 448.84216191 -426.625 444.16210938 C-418.05420662 439.49351775 -409.52394488 434.75344314 -401 430 C-391.35702014 424.62251844 -381.69741863 419.27881984 -372 414 C-364.746851 410.05166552 -357.51044624 406.0759509 -350.29614258 402.05712891 C-343.27000128 398.14481969 -336.22954937 394.25857408 -329.1875 390.375 C-328.57117706 390.03506012 -327.95485413 389.69512024 -327.31985474 389.34487915 C-321.64516035 386.21495025 -315.97004423 383.08578666 -310.29443359 379.95751953 C-306.65441527 377.95122191 -303.01464722 375.94447076 -299.375 373.9375 C-298.77631104 373.6074295 -298.17762207 373.27735901 -297.56079102 372.93728638 C-289.8927957 368.70917442 -282.2343948 364.46440311 -274.58422852 360.20410156 C-263.90491193 354.25690506 -253.19446795 348.37438138 -242.43774414 342.56835938 C-234.290639 338.167982 -226.18905179 333.69020532 -218.10498047 329.17529297 C-203.03447942 320.76084249 -187.91724504 312.43080472 -172.80224609 304.09667969 C-167.90086569 301.39405668 -163.0002128 298.69011553 -158.09960938 295.98608398 C-155.69607337 294.65987568 -153.29242124 293.3338782 -150.88867188 292.00805664 C-145.40264833 288.98201111 -139.9172084 285.95492823 -134.43437195 282.92311096 C-131.35243205 281.21893904 -128.27008994 279.51549579 -125.1875 277.8125 C-124.58563873 277.47999237 -123.98377747 277.14748474 -123.36367798 276.80490112 C-114.0147977 271.64219006 -104.63358327 266.54113552 -95.23510742 261.46923828 C-87.10279982 257.07373543 -79.03404159 252.57231485 -71 248 C-89.62136941 254.79121249 -108.23475676 261.59547669 -126.6875 268.8359375 C-134.57590331 271.93028355 -142.47899927 274.9115886 -150.48504639 277.68852234 C-155.42989317 279.41561414 -160.31491409 281.26322206 -165.1875 283.18359375 C-174.60849355 286.87030761 -184.07695575 290.42404669 -193.55444336 293.9624939 C-214.47201971 301.7740774 -235.35545649 309.67408061 -256.22842407 317.60397339 C-272.50811042 323.78824299 -288.80003729 329.93752918 -305.11380005 336.03131104 C-316.74091603 340.3762081 -328.32736232 344.81698121 -339.8923645 349.32440186 C-348.12021984 352.52934904 -356.36610961 355.6128977 -364.71533203 358.48510742 C-369.42262128 360.12963285 -374.07541037 361.90924995 -378.73046875 363.6953125 C-380.60602807 364.41234935 -382.4816814 365.12914031 -384.35742188 365.84570312 C-385.30166016 366.20656006 -386.24589844 366.56741699 -387.21875 366.93920898 C-391.42743224 368.54443408 -395.64102337 370.13654118 -399.85546875 371.7265625 C-400.67876175 372.03727692 -401.50205475 372.34799133 -402.35029602 372.66812134 C-404.06623223 373.31563552 -405.78220069 373.96306423 -407.49819946 374.6104126 C-425.19757861 381.28782439 -442.88725353 387.99055033 -460.5725708 394.70510864 C-480.27478887 402.18527756 -499.98608698 409.63956998 -519.72387695 417.02539062 C-528.65812353 420.36890804 -537.58442995 423.73189883 -546.5 427.125 C-561.75154931 432.92826247 -577.03809163 438.63794321 -592.32015991 444.36022949 C-612.03518909 451.74430863 -631.72561316 459.19120295 -651.39526367 466.6953125 C-656.92713977 468.80492895 -662.46220995 470.90595953 -668 473 C-668.91440857 473.34647583 -669.82881714 473.69295166 -670.77093506 474.04992676 C-673.42203726 475.05194127 -676.07573959 476.04670313 -678.73046875 477.0390625 C-679.52447586 477.33984711 -680.31848297 477.64063171 -681.1365509 477.95053101 C-684.21863999 479.09517027 -686.68411264 480 -690 480 C-690.48538288 473.24437868 -690.8157592 466.49327797 -691.04370117 459.72412109 C-691.13874843 457.42781798 -691.26806503 455.13265029 -691.43334961 452.84033203 C-692.73271141 434.34353458 -692.73271141 434.34353458 -688.22183228 428.82437134 C-683.7694991 425.04993688 -678.80577589 422.55041502 -673.50170898 420.18606567 C-669.37093402 418.22765627 -665.62195496 415.70077623 -661.8125 413.1875 C-648.54704638 404.8031035 -635.22700909 396.50554121 -621.91015625 388.203125 C-611.15213597 381.49249616 -600.42220165 374.74135445 -589.73266602 367.92211914 C-583.80349293 364.14137657 -577.85525275 360.39352016 -571.88671875 356.67529297 C-566.91155946 353.57463069 -561.95375219 350.44723192 -557 347.3125 C-544.6650046 339.51086818 -532.27865105 331.79149041 -519.89746094 324.06347656 C-508.98908682 317.25392316 -498.08731911 310.43504703 -487.22143555 303.55786133 C-480.82883175 299.51521185 -474.41617392 295.50511306 -468 291.5 C-457.64435712 285.03499255 -447.31507724 278.52948379 -437 272 C-425.66486431 264.82481527 -414.30831982 257.68543737 -402.92773438 250.58251953 C-395.75014449 246.1005595 -388.59207059 241.58869149 -381.44262695 237.06201172 C-377.20947458 234.38505197 -372.96133371 231.73678727 -368.6875 229.125 C-362.91343822 225.59030819 -357.20591988 221.95600355 -351.5 218.3125 C-343.27112241 213.0591868 -334.99903865 207.88263406 -326.68994141 202.75732422 C-317.75034642 197.23911789 -308.87370784 191.62331328 -300 186 C-288.66140046 178.82042106 -277.29867289 171.68092492 -265.91455078 164.57373047 C-256.58864874 158.7489592 -247.29054283 152.88094955 -238 147 C-226.65679314 139.81970618 -215.29176255 132.67589562 -203.90356445 125.56713867 C-197.75779152 121.72903409 -191.62248977 117.87512646 -185.5 114 C-177.32086989 108.82315779 -169.11366027 103.69200736 -160.90234375 98.56640625 C-154.75699983 94.72850947 -148.62213789 90.87479572 -142.5 87 C-135.45154141 82.53991167 -128.38665618 78.10671616 -121.3125 73.6875 C-120.30461426 73.05787354 -119.29672852 72.42824707 -118.25830078 71.77954102 C-113.14353166 68.58534861 -108.02734218 65.39344391 -102.91015625 62.203125 C-92.26795972 55.56464243 -81.65610287 48.88297373 -71.08422852 42.13305664 C-63.99000414 37.61134365 -56.84723612 33.17225701 -49.68725586 28.75561523 C-43.89628317 25.1810953 -38.1269889 21.57440245 -32.375 17.9375 C-31.22692871 17.21361084 -31.22692871 17.21361084 -30.05566406 16.47509766 C-25.93008705 13.86988183 -21.82223709 11.24006679 -17.73046875 8.58203125 C-16.86566895 8.02459229 -16.00086914 7.46715332 -15.10986328 6.89282227 C-13.44844505 5.82135559 -11.79161418 4.74273195 -10.14013672 3.65600586 C-9.39393066 3.17655518 -8.64772461 2.69710449 -7.87890625 2.203125 C-6.89772827 1.56358887 -6.89772827 1.56358887 -5.89672852 0.91113281 C-4 0 -4 0 0 0 Z " fill="#A18B59" transform="translate(690,0)"/>
</svg>
