<?xml version="1.0" encoding="UTF-8"?>
<svg version="1.1" xmlns="http://www.w3.org/2000/svg" width="82" height="75">
<path d="M0 0 C6.57161518 2.6942628 11.68406445 7.77374793 15 14 C17.25178428 19.87098871 18.8131445 25.82120235 19.9375 32 C20.83073358 36.24091769 22.52118772 38.31182688 26 41 C27.98387708 42.03161608 29.98276656 43.03523618 32 44 C34.19223247 45.69988712 34.91479164 46.54709071 35.43359375 49.3046875 C35.43985538 53.42484251 35.39947321 56.24899036 33.4375 59.9375 C28.26256765 64.31628891 23.65765974 65.11927697 17.0625 65.9375 C10.30332969 66.8066388 4.71031816 67.95089207 0 73.25 C-2.37579871 75.32882387 -3.18107528 75.25 -6.25 75.25 C-7.4875 75.1675 -8.725 75.085 -10 75 C-10.37125 74.071875 -10.7425 73.14375 -11.125 72.1875 C-13.58860451 67.99937234 -16.25085333 66.84680874 -20.80078125 65.4453125 C-23.62120794 64.87421367 -26.3756079 64.80669872 -29.25 64.6875 C-36.07382622 64.19679789 -40.77918802 62.71756011 -46 58.3125 C-47.62310794 54.55906289 -47.75965411 51.00610046 -47 47 C-44.57892507 43.72442804 -42.64101919 42.28780454 -38.9375 40.625 C-34.19961409 38.00404183 -32.71112298 34.21590999 -31.125 29.2734375 C-30.11849717 25.68293223 -29.18508253 22.12249125 -28.578125 18.44140625 C-26.72110773 10.59927249 -20.56499927 5.14008963 -14 1 C-9.7405581 -1.12972095 -4.6133664 -0.58447323 0 0 Z " fill="#0C1714" transform="translate(47,0)"/>
<path d="M0 0 C0 6.27 0 12.54 0 19 C-2.97 19.66 -5.94 20.32 -9 21 C-8.5206753 25.31392226 -7.2542015 27.16569547 -4 30 C-5.75 30.75 -5.75 30.75 -8 31 C-10.25 29.0625 -10.25 29.0625 -12 27 C-14.54244798 28.88304302 -14.98217334 29.89833634 -15.5390625 33.07421875 C-15.81088066 41.55026955 -15.81088066 41.55026955 -11.75 48.6875 C-9.32962169 51.01995859 -6.71018899 53.01532621 -4 55 C-6.97 54.505 -6.97 54.505 -10 54 C-9.278125 54.721875 -8.55625 55.44375 -7.8125 56.1875 C-6.884375 57.115625 -5.95625 58.04375 -5 59 C-4.071875 59.804375 -3.14375 60.60875 -2.1875 61.4375 C0 64 0 64 0.3125 67.3125 C0.209375 68.199375 0.10625 69.08625 0 70 C-0.474375 69.2575 -0.94875 68.515 -1.4375 67.75 C-7.00676243 61.77323056 -14.90621289 59.98219654 -22.8125 59.6875 C-28.51778833 59.31656794 -31.83299683 58.935503 -36 55 C-38.33043558 51.50434664 -38.58763244 50.1134271 -38 46 C-35.875 43.875 -35.875 43.875 -33 42 C-31.96875 41.29875 -30.9375 40.5975 -29.875 39.875 C-28.451875 38.946875 -28.451875 38.946875 -27 38 C-26.01 37.34 -25.02 36.68 -24 36 C-23.34 37.98 -22.68 39.96 -22 42 C-22.05220703 40.62328125 -22.05220703 40.62328125 -22.10546875 39.21875 C-22.3228518 29.36405187 -21.86866776 22.5792196 -15 15 C-15.99 15.33 -16.98 15.66 -18 16 C-16.10143493 9.73473528 -11.88724138 4.89317176 -6.3125 1.5625 C-3 -0 -3 -0 0 0 Z " fill="#00CD9D" transform="translate(40,2)"/>
<path d="M0 0 C3.16115776 1.36983503 3.9927092 1.9890638 6 5 C6.33 4.34 6.66 3.68 7 3 C9.64860427 2.40644386 12.29197322 2.25790731 15 2 C13.84414715 5.91211733 12.64465038 8.8745041 10 12 C11.32 11.34 12.64 10.68 14 10 C12.56314642 15.02898754 10.05763331 16.95677502 6 20 C2.98221063 21.50889469 1.37677363 21.50026276 -2 21 C-6.60067195 17.96424063 -10.65817701 14.53501985 -12 9 C-11.01 9.33 -10.02 9.66 -9 10 C-9.515625 9.236875 -10.03125 8.47375 -10.5625 7.6875 C-11.036875 6.800625 -11.51125 5.91375 -12 5 C-11.67 4.01 -11.34 3.02 -11 2 C-4.125 2.875 -4.125 2.875 -3 4 C-2.01 2.68 -1.02 1.36 0 0 Z " fill="#00CD9D" transform="translate(39,33)"/>
<path d="M0 0 C6.73697883 0.09639556 11.0912622 3.58693695 15.7578125 8.16015625 C21.12739774 14.51461516 24 23.17072506 24 31.4375 C23.34 31.4375 22.68 31.4375 22 31.4375 C20.35 28.1375 18.7 24.8375 17 21.4375 C16.67 21.4375 16.34 21.4375 16 21.4375 C16.639375 22.283125 17.27875 23.12875 17.9375 24 C20.1966273 27.34478565 20.67791759 30.41146992 21 34.4375 C18.94740243 31.96022707 17.1305202 29.6985404 15.6875 26.8125 C13.30010303 23.45245982 10.88506908 22.64321109 7 21.4375 C4.16926919 21.63263752 4.16926919 21.63263752 2 22.4375 C0.76310938 19.96371876 0.86689913 18.25834683 0.875 15.5 C0.87242188 14.62472656 0.86984375 13.74945313 0.8671875 12.84765625 C1 10.4375 1 10.4375 2 7.4375 C8.74742227 7.4375 12.46690141 12.01521049 17 16.4375 C13.10222504 10.08557044 8.01394976 4.92813371 0.6875 2.75 C0.130625 2.646875 -0.42625 2.54375 -1 2.4375 C-1 4.4175 -1 6.3975 -1 8.4375 C-1.33 8.4375 -1.66 8.4375 -2 8.4375 C-2 6.4575 -2 4.4775 -2 2.4375 C-2.99 2.1075 -3.98 1.7775 -5 1.4375 C-3.47982745 -0.08267255 -2.11887658 0.12139397 0 0 Z " fill="#0B1210" transform="translate(42,-0.4375)"/>
<path d="M0 0 C0.99 0.33 1.98 0.66 3 1 C0.85947438 3.26722339 -1.3674862 4.99390612 -3.9375 6.75 C-7.96443971 9.7016059 -9.85284572 12.52676192 -12 17 C-10.68 16.34 -9.36 15.68 -8 15 C-8 15.66 -8 16.32 -8 17 C-8.763125 17.70125 -9.52625 18.4025 -10.3125 19.125 C-16.66904598 25.92502593 -16.32434924 33.22478134 -16.10546875 42 C-16.05326172 43.485 -16.05326172 43.485 -16 45 C-18.2477975 42.94766315 -19.0022242 41.99332739 -20 39 C-20.86625 39.7425 -21.7325 40.485 -22.625 41.25 C-24.84290468 43.13521898 -26.80855671 44.46417145 -29.375 45.9375 C-32.26857855 47.76889809 -32.26857855 47.76889809 -32.6875 50.9375 C-31.79432673 54.91618092 -30.09214676 56.42321103 -27 59 C-24.0384304 60.4807848 -21.16493705 60.35314037 -17.875 60.5625 C-16.59367187 60.64628906 -15.31234375 60.73007812 -13.9921875 60.81640625 C-12.51105469 60.90728516 -12.51105469 60.90728516 -11 61 C-11 61.33 -11 61.66 -11 62 C-12.98 62 -14.96 62 -17 62 C-17 62.66 -17 63.32 -17 64 C-23.83475774 64.56956314 -28.74285597 62.74821527 -34 58.3125 C-35.62310794 54.55906289 -35.75965411 51.00610046 -35 47 C-32.57892507 43.72442804 -30.64101919 42.28780454 -26.9375 40.625 C-22.19961409 38.00404183 -20.71112298 34.21590999 -19.125 29.2734375 C-18.11849717 25.68293223 -17.18508253 22.12249125 -16.578125 18.44140625 C-14.72110773 10.59927249 -8.56499927 5.14008963 -2 1 C-1.34 0.67 -0.68 0.34 0 0 Z " fill="#141A19" transform="translate(35,0)"/>
<path d="M0 0 C0.99 0.33 1.98 0.66 3 1 C0.85947438 3.26722339 -1.3674862 4.99390612 -3.9375 6.75 C-7.96443971 9.7016059 -9.85284572 12.52676192 -12 17 C-10.68 16.34 -9.36 15.68 -8 15 C-8 15.66 -8 16.32 -8 17 C-8.7425 17.66 -9.485 18.32 -10.25 19 C-15.09043716 23.62041729 -16.85510505 30.58858827 -18 37 C-18.99 36.67 -19.98 36.34 -21 36 C-20.26369305 33.0547722 -19.52582021 30.11013657 -18.77734375 27.16796875 C-18.33543707 25.3670325 -17.91554737 23.55947684 -17.56640625 21.73828125 C-15.85866868 13.05874907 -10.82830893 7.04300623 -3.734375 2.09375 C-2 1 -2 1 0 0 Z " fill="#161D1B" transform="translate(35,0)"/>
<path d="M0 0 C3.018711 1.97301372 6.01177199 3.98119713 9 6 C10.010625 6.66 11.02125 7.32 12.0625 8 C14 10 14 10 14.5625 12.9375 C13.85604272 16.78376741 12.8354814 18.30992791 10 21 C4.56366542 24.23866741 -0.5560808 24.44339816 -6.81640625 24.69140625 C-10.13378176 25.0129678 -12.88771104 25.83464669 -16 27 C-10.58836574 20.98707305 -4.7912563 20.58092416 2.94140625 19.66015625 C6.15580106 18.96637244 7.78214875 18.42391078 10 16 C10.70318874 13.52443628 10.70318874 13.52443628 10 11 C8.07864915 9.02137089 8.07864915 9.02137089 5.5625 7.4375 C1.16136661 4.45519834 1.16136661 4.45519834 0.21484375 1.78515625 C0.14394531 1.19605469 0.07304688 0.60695312 0 0 Z " fill="#01BB90" transform="translate(66,39)"/>
<path d="M0 0 C4.96146369 2.06727654 6.29351654 5.05718685 8.30078125 9.74609375 C9 12 9 12 9 16 C8.34 16 7.68 16 7 16 C7 16.99 7 17.98 7 19 C6.34 19 5.68 19 5 19 C4.9175 20.03125 4.835 21.0625 4.75 22.125 C3.92559813 26.38440967 2.72298313 28.65462072 0 32 C-2.25 33.375 -2.25 33.375 -4 34 C-3.38125 33.278125 -2.7625 32.55625 -2.125 31.8125 C1.22797565 26.90193638 1.35037902 20.76111234 2 15 C2.66 15 3.32 15 4 15 C2.13433512 11.37206002 2.13433512 11.37206002 -1 9 C-1 8.01 -1 7.02 -1 6 C-5.95 4.02 -5.95 4.02 -11 2 C-6.25571573 0.81392893 -5.02075805 1.42929984 -0.90625 3.609375 C2.21173905 5.88397357 3.39821397 8.5294636 5 12 C5 7.70612989 4.39715444 6.41133516 2 3 C1.34 2.67 0.68 2.34 0 2 C0 1.34 0 0.68 0 0 Z " fill="#067057" transform="translate(56,19)"/>
<path d="M0 0 C8.60987359 1.72197472 13.75967395 6.1121472 19 13 C18.67 13.66 18.34 14.32 18 15 C17.12988281 14.16855469 17.12988281 14.16855469 16.2421875 13.3203125 C10.40928448 7.81449213 10.40928448 7.81449213 3 5 C2.34 8.96 1.68 12.92 1 17 C0.67 17 0.34 17 0 17 C0 11.39 0 5.78 0 0 Z " fill="#01C294" transform="translate(41,2)"/>
<path d="M0 0 C-0.13019531 0.66386719 -0.26039062 1.32773437 -0.39453125 2.01171875 C-0.82129708 4.74381777 -1.11822509 7.23437741 -1 10 C1.22990529 13.15222575 1.22990529 13.15222575 4 15 C1.8125 15.75 1.8125 15.75 -1 16 C-3.69558448 14.22336478 -5.54642223 12.90715555 -7 10 C-7.375 7.125 -7.375 7.125 -7 4 C-3 0 -3 0 0 0 Z " fill="#01B48A" transform="translate(9,44)"/>
<path d="M0 0 C0.66 0.33 1.32 0.66 2 1 C2.226875 1.721875 2.45375 2.44375 2.6875 3.1875 C4.55188453 7.1826097 7.37130022 9.55491045 11 12 C13.75764351 12.94240924 13.75764351 12.94240924 16 13 C15.505 13.474375 15.01 13.94875 14.5 14.4375 C12.88457803 15.75923698 12.88457803 15.75923698 13 17 C11.35 17 9.7 17 8 17 C8 16.34 8 15.68 8 15 C6.75146711 13.84728475 5.45031062 12.75104998 4.125 11.6875 C-1.32703238 7.03780572 -1.32703238 7.03780572 -2 3 C-1.34 2.01 -0.68 1.02 0 0 Z " fill="#0A2821" transform="translate(26,41)"/>
<path d="M0 0 C0.99 0 1.98 0 3 0 C1.93813299 3.82272123 0.47142555 6.06140837 -2.95703125 8.15234375 C-8.86981987 10.60564228 -15.65213467 11.13976951 -22 11 C-21.67 10.34 -21.34 9.68 -21 9 C-18.77734375 8.5078125 -18.77734375 8.5078125 -15.9375 8.125 C-10.81498064 7.27791672 -6.28557799 6.01816395 -2 3 C-1.34 2.01 -0.68 1.02 0 0 Z " fill="#0A1614" transform="translate(79,55)"/>
<path d="M0 0 C0.66 0.33 1.32 0.66 2 1 C2.12375 1.598125 2.2475 2.19625 2.375 2.8125 C3.20055523 5.70194332 4.80351643 7.01607936 7 9 C5.25 9.75 5.25 9.75 3 10 C0.75 8.0625 0.75 8.0625 -1 6 C-3.04219706 7.69179328 -3.91793306 8.63727666 -4.51171875 11.26171875 C-4.56972656 12.06222656 -4.62773437 12.86273438 -4.6875 13.6875 C-4.75324219 14.49574219 -4.81898437 15.30398437 -4.88671875 16.13671875 C-4.92410156 16.75160156 -4.96148438 17.36648437 -5 18 C-5.33 18 -5.66 18 -6 18 C-6.12375 17.195625 -6.2475 16.39125 -6.375 15.5625 C-6.684375 14.2940625 -6.684375 14.2940625 -7 13 C-7.66 12.67 -8.32 12.34 -9 12 C-7.87895467 10.68412059 -6.75303035 9.37239647 -5.625 8.0625 C-4.99851562 7.33160156 -4.37203125 6.60070312 -3.7265625 5.84765625 C-2 4 -2 4 0 3 C-0.66 2.34 -1.32 1.68 -2 1 C-1.34 0.67 -0.68 0.34 0 0 Z " fill="#4D736A" transform="translate(29,23)"/>
<path d="M0 0 C1.32 0.33 2.64 0.66 4 1 C3.80664062 1.64066406 3.61328125 2.28132813 3.4140625 2.94140625 C1.9059252 7.95110985 0.42282214 12.96539857 -1 18 C-1.99 17.67 -2.98 17.34 -4 17 C-3.69255859 15.78763672 -3.69255859 15.78763672 -3.37890625 14.55078125 C-3.10949219 13.48214844 -2.84007812 12.41351563 -2.5625 11.3125 C-2.29566406 10.25675781 -2.02882813 9.20101563 -1.75390625 8.11328125 C-1.10102068 5.4171683 -0.52058807 2.7242424 0 0 Z " fill="#0E1A17" transform="translate(18,19)"/>
<path d="M0 0 C0 0.33 0 0.66 0 1 C-3.07617188 1.29296875 -3.07617188 1.29296875 -6.15234375 1.5859375 C-6.76207031 1.72257812 -7.37179688 1.85921875 -8 2 C-8.33 2.66 -8.66 3.32 -9 4 C-11.9375 5.6875 -11.9375 5.6875 -15 7 C-15.66 6.67 -16.32 6.34 -17 6 C-17.99 6.33 -18.98 6.66 -20 7 C-19.5 5.1875 -19.5 5.1875 -18 3 C-11.90756058 -0.04621971 -6.73657146 -0.37272014 0 0 Z " fill="#092D25" transform="translate(66,63)"/>
<path d="M0 0 C4.04913029 2.44831134 6.73808218 5.97010184 9.6875 9.625 C9.3575 10.285 9.0275 10.945 8.6875 11.625 C7.81738281 10.79355469 7.81738281 10.79355469 6.9296875 9.9453125 C1.09678448 4.43949213 1.09678448 4.43949213 -6.3125 1.625 C-3.98125905 0.07083936 -2.80285355 -0.45451679 0 0 Z " fill="#02A781" transform="translate(50.3125,5.375)"/>
<path d="M0 0 C0.99 0 1.98 0 3 0 C2.34 1.98 1.68 3.96 1 6 C2.32 5.34 3.64 4.68 5 4 C5 4.66 5 5.32 5 6 C3.37373596 7.38232443 1.7074998 8.71937515 0 10 C-1.32 9.01 -2.64 8.02 -4 7 C-2.68 4.69 -1.36 2.38 0 0 Z " fill="#0E2B24" transform="translate(22,11)"/>
<path d="M0 0 C0.33 0.99 0.66 1.98 1 3 C0.34 3 -0.32 3 -1 3 C-0.87625 4.794375 -0.87625 4.794375 -0.75 6.625 C-0.75 11.10407241 -2.05279954 13.56159946 -5 17 C-7.25 18.375 -7.25 18.375 -9 19 C-8.401875 18.2575 -7.80375 17.515 -7.1875 16.75 C-4.43816181 12.71828498 -3.69672846 8.22611903 -2.7109375 3.51171875 C-2.47632813 2.68285156 -2.24171875 1.85398438 -2 1 C-1.34 0.67 -0.68 0.34 0 0 Z " fill="#02AA82" transform="translate(61,34)"/>
<path d="M0 0 C0.33 0 0.66 0 1 0 C1.061875 1.051875 1.12375 2.10375 1.1875 3.1875 C2.13408616 7.6291735 3.59156258 9.11593757 7 12 C3.53172778 11.71097731 2.19346446 11.18328212 -0.375 8.75 C-2 6 -2 6 -1.8125 3.25 C-1 1 -1 1 0 0 Z " fill="#084033" transform="translate(6,47)"/>
<path d="M0 0 C1.07765625 0.00902344 2.1553125 0.01804688 3.265625 0.02734375 C4.08546875 0.03894531 4.9053125 0.05054688 5.75 0.0625 C5.75 0.3925 5.75 0.7225 5.75 1.0625 C3.77 1.0625 1.79 1.0625 -0.25 1.0625 C-0.25 1.7225 -0.25 2.3825 -0.25 3.0625 C-6.875 3.3125 -6.875 3.3125 -10.25 1.0625 C-6.78777385 -0.00473961 -3.60960734 -0.03923486 0 0 Z " fill="#193831" transform="translate(18.25,60.9375)"/>
<path d="M0 0 C0.33 0 0.66 0 1 0 C1.33 4.29 1.66 8.58 2 13 C1.01 12.01 0.02 11.02 -1 10 C-1 8.68 -1 7.36 -1 6 C-2.32 6.33 -3.64 6.66 -5 7 C-5 6.34 -5 5.68 -5 5 C-4.01 4.67 -3.02 4.34 -2 4 C-1.34 4.33 -0.68 4.66 0 5 C0 3.35 0 1.7 0 0 Z " fill="#123930" transform="translate(17,32)"/>
<path d="M0 0 C-0.33 0.66 -0.66 1.32 -1 2 C-4.16015625 2.4140625 -4.16015625 2.4140625 -8.0625 2.625 C-9.35285156 2.69976562 -10.64320312 2.77453125 -11.97265625 2.8515625 C-12.97167969 2.90054688 -13.97070312 2.94953125 -15 3 C-14.67 2.34 -14.34 1.68 -14 1 C-11.6015625 0.33203125 -11.6015625 0.33203125 -8.625 -0.1875 C-7.64789063 -0.36667969 -6.67078125 -0.54585937 -5.6640625 -0.73046875 C-3 -1 -3 -1 0 0 Z " fill="#0B0C0C" transform="translate(72,63)"/>
<path d="M0 0 C0.66 0.33 1.32 0.66 2 1 C1.67 3.97 1.34 6.94 1 10 C0.01 9.67 -0.98 9.34 -2 9 C-1.34 6.03 -0.68 3.06 0 0 Z " fill="#131212" transform="translate(16,27)"/>
<path d="M0 0 C1.32 0 2.64 0 4 0 C3.34 1.32 2.68 2.64 2 4 C0.68 4 -0.64 4 -2 4 C-1.34 2.68 -0.68 1.36 0 0 Z " fill="#D0D0D0" transform="translate(47,29)"/>
<path d="M0 0 C2.31 1.65 4.62 3.3 7 5 C6.67 5.66 6.34 6.32 6 7 C3.00675737 5.9024777 2.15389099 5.32317108 0.75 2.375 C0.5025 1.59125 0.255 0.8075 0 0 Z " fill="#039E79" transform="translate(66,39)"/>
<path d="M0 0 C0.99 0 1.98 0 3 0 C2.25 1.9375 2.25 1.9375 1 4 C-1.125 4.75 -1.125 4.75 -3 5 C-1.6875 2.5 -1.6875 2.5 0 0 Z " fill="#0C1312" transform="translate(26,6)"/>
</svg>
