<?xml version="1.0" encoding="UTF-8"?>
<svg version="1.1" xmlns="http://www.w3.org/2000/svg" width="900" height="497">
<path d="M0 0 C-1.67204578 5.15960817 -3.34441902 10.31911005 -5.01708984 15.47851562 C-5.5855383 17.23206748 -6.15389877 18.98564786 -6.72216797 20.73925781 C-7.54110711 23.26635197 -8.36036726 25.79334188 -9.1796875 28.3203125 C-9.43185028 29.09867462 -9.68401306 29.87703674 -9.94381714 30.6789856 C-10.1839151 31.41930023 -10.42401306 32.15961487 -10.67138672 32.92236328 C-10.98449295 33.88832932 -10.98449295 33.88832932 -11.30392456 34.87380981 C-12.19189039 37.58613685 -13.09579704 40.2930486 -14 43 C1.42840789 41.47353235 16.74537249 39.21907349 32.08021259 36.96055937 C35.68440216 36.43065226 39.28921076 35.90499237 42.89398193 35.37905884 C53.56687585 33.82113802 64.23888894 32.25721511 74.9105835 30.69110107 C83.24799171 29.46759568 91.58566529 28.24597007 99.92421794 27.03028548 C104.19988556 26.40671669 108.4749483 25.77919691 112.74958944 25.14863181 C116.02559771 24.66648147 119.30241003 24.18988654 122.57910156 23.71240234 C123.75419785 23.5378804 124.92929413 23.36335846 126.13999939 23.18354797 C127.22448868 23.02656937 128.30897797 22.86959076 129.42633057 22.70785522 C130.36346012 22.57034033 131.30058968 22.43282543 132.2661171 22.29114342 C135.19630545 21.97909455 138.05544461 21.95087204 141 22 C139.80674445 27.88373217 138.28679818 33.49189666 136.26171875 39.140625 C135.85268059 40.30298676 135.85268059 40.30298676 135.43537903 41.48883057 C134.8391426 43.18188013 134.24064365 44.87413425 133.64013672 46.56567383 C131.95065356 51.32627539 130.27928104 56.09324598 128.60546875 60.859375 C128.2418222 61.89352539 127.87817566 62.92767578 127.50350952 63.99316406 C123.2301192 76.16141519 119.04346389 88.35950617 114.8543396 100.5569458 C112.59512123 107.13504845 110.3333989 113.71228965 108.0703125 120.2890625 C107.85032026 120.92838589 107.63032803 121.56770927 107.40366936 122.2264061 C103.13381958 134.6322923 98.82114746 147.02289375 94.48925781 159.40722656 C88.71033123 175.93025206 82.99347921 192.47441821 77.28503418 209.02191162 C71.16575396 226.75854794 65.01173478 244.48264661 58.80664062 262.18945312 C58.51788055 263.01473511 58.22912048 263.84001709 57.93161011 264.69030762 C57.41150204 266.17672403 56.89057432 267.66285416 56.36843872 269.14855957 C54.66586997 274.0168074 53.02542785 278.9050065 51.39730835 283.79858398 C51.16624484 284.49245964 50.93518133 285.1863353 50.6971159 285.90123749 C50.13120223 287.60075562 49.5655724 289.30036827 49 291 C79.55617357 286.53453161 110.11214047 282.06765194 140.66783334 277.59889558 C144.30378194 277.06714095 147.93973224 276.53539794 151.57568359 276.00366211 C152.29930855 275.89783615 153.0229335 275.79201019 153.76848648 275.68297739 C165.3705829 273.98626601 176.97281546 272.29048735 188.57510175 270.59507488 C200.54682216 268.84565591 212.51838844 267.09518488 224.48982227 265.34380585 C231.18585344 264.3642288 237.88195177 263.38511652 244.57822037 262.40716362 C252.11762607 261.30601232 259.65678611 260.20319035 267.19580078 259.09936523 C268.38489619 258.92539274 269.57399159 258.75142025 270.79912019 258.57217586 C283.43001358 256.72285264 296.05661655 254.84951695 308.67425537 252.91165161 C309.75678317 252.74559412 310.83931098 252.57953663 311.95464265 252.40844709 C317.02904293 251.62917563 322.10263476 250.84514484 327.17503548 250.0529623 C328.94967603 249.77868498 330.72432782 249.50448036 332.49899292 249.23036194 C333.29401805 249.10445352 334.08904317 248.97854511 334.90815997 248.84882128 C338.63747904 248.27595788 342.2244207 247.85252452 346 248 C345.43384016 251.88350268 343.66155353 253.75770314 341 256.5625 C337.71958335 260.09685096 334.58348058 263.67877551 331.5625 267.4375 C327.70291397 272.20996203 323.62800009 276.73109109 319.47265625 281.24609375 C316.25290481 284.83207284 313.24094824 288.56701492 310.21484375 292.31640625 C308.04367173 294.94708557 305.79758643 297.47942424 303.5 300 C300.38541332 303.41739372 297.4081338 306.9052235 294.5 310.5 C290.88967558 314.96276213 287.11572071 319.22719533 283.25 323.46875 C280.92137947 326.0884481 278.70437053 328.7751531 276.5 331.5 C272.88967558 335.96276213 269.11572071 340.22719533 265.25 344.46875 C262.92137947 347.0884481 260.70437053 349.7751531 258.5 352.5 C255.5918662 356.0947765 252.61458668 359.58260628 249.5 363 C246.47717579 366.31989486 243.57487839 369.69764112 240.75 373.1875 C235.53481485 379.62711993 230.08668248 385.85455403 224.64648438 392.10351562 C222.06362591 395.07855189 219.49943086 398.0694406 216.9375 401.0625 C216.44660889 401.63589111 215.95571777 402.20928223 215.44995117 402.80004883 C214.46114797 403.95530518 213.47245951 405.11065976 212.48388672 406.26611328 C209.49885567 409.75405183 206.51020183 413.23888768 203.52172852 416.72387695 C200.89477052 419.78772406 198.27006516 422.85346504 195.6484375 425.921875 C195.10058594 426.56253906 194.55273438 427.20320313 193.98828125 427.86328125 C192.93552191 429.09447437 191.88340836 430.32622007 190.83203125 431.55859375 C185.15890182 438.19012652 185.15890182 438.19012652 180.80980968 438.82681942 C179.4837266 439.02718126 179.4837266 439.02718126 178.13085395 439.23159081 C177.15319751 439.37059538 176.17554106 439.50959994 175.16825867 439.65281677 C174.13361738 439.80665201 173.0989761 439.96048725 172.03298205 440.11898416 C168.5422271 440.63596475 165.04984527 441.14100104 161.55737305 441.64624023 C159.06336763 442.0132619 156.56947424 442.38104551 154.0756855 442.74953651 C148.67873717 443.54540611 143.28108937 444.33624808 137.882761 445.12269783 C129.96413371 446.27641324 122.0469411 447.4397384 114.13011938 448.6057724 C110.42012915 449.1521944 106.71008934 449.6982794 103.00003719 450.24428082 C102.2569347 450.35364298 101.51383221 450.46300514 100.74821146 450.5756813 C95.39719631 451.36298744 90.04592807 452.14855862 84.69453526 452.93329334 C64.01174145 455.96638151 43.33189257 459.01871957 22.65478516 462.09033203 C21.95681292 462.19400785 21.25884068 462.29768366 20.53971776 462.40450117 C14.21025946 463.34468509 7.88083816 464.28511795 1.55147207 465.22592247 C-8.24448183 466.68200369 -18.04063453 468.1367404 -27.83694458 469.59042358 C-28.52966807 469.69321789 -29.22239156 469.79601219 -29.93610667 469.90192147 C-33.43295026 470.42081645 -36.92979722 470.93968884 -40.42664552 471.45855212 C-44.60458583 472.07848501 -48.7825111 472.69851923 -52.96043205 473.31858253 C-53.64923335 473.42081043 -54.33803464 473.52303833 -55.0477087 473.62836405 C-56.44050832 473.83507572 -57.83330791 474.04178761 -59.22610746 474.24849971 C-72.10688545 476.16018674 -84.98770657 478.07158298 -97.86854323 479.98287458 C-109.94913869 481.7754302 -122.02969524 483.56824789 -134.11021596 485.36130708 C-140.78268581 486.35166512 -147.455174 487.34189913 -154.12770653 488.33183479 C-160.2959763 489.24696044 -166.46419818 490.16240823 -172.63238335 491.07810402 C-174.87653081 491.4112004 -177.12069562 491.74417995 -179.36487961 492.07703018 C-182.43639061 492.53260494 -185.50783313 492.9886392 -188.57926941 493.44471741 C-189.51279909 493.58300433 -190.44632876 493.72129126 -191.40814722 493.8637687 C-195.31299967 494.44374062 -199.21641831 495.02898982 -203.11492348 495.65032768 C-204.26566038 495.83355143 -205.41639729 496.01677517 -206.602005 496.20555115 C-208.00884033 496.43560679 -208.00884033 496.43560679 -209.44409657 496.67031002 C-213.32625251 497.17107538 -217.0917492 497.13248308 -221 497 C-218.87707174 489.68012171 -216.49263141 482.47589185 -213.98046875 475.28125 C-213.59941483 474.18389526 -213.2183609 473.08654053 -212.82575989 471.95593262 C-211.61498812 468.46992915 -210.40145685 464.98489544 -209.1875 461.5 C-207.9845925 458.04355348 -206.7823393 454.58688299 -205.58137512 451.12976074 C-204.83785861 448.98977501 -204.09324648 446.85016941 -203.34721375 444.71105957 C-200.14584452 435.50245712 -197.06968147 426.25312427 -194 417 C-194.87315983 417.12699972 -195.74631966 417.25399944 -196.64593887 417.38484764 C-217.97420795 420.48669819 -239.30318852 423.58361443 -260.63295364 426.67516136 C-270.9481962 428.17037703 -281.26319893 429.66721077 -291.57763672 431.16796875 C-300.57645439 432.47729875 -309.57572336 433.78347575 -318.57552886 435.08599913 C-323.33285191 435.77462559 -328.08994751 436.46474 -332.84650421 437.15864182 C-381.93448351 444.31693674 -381.93448351 444.31693674 -397.078125 444.30078125 C-397.89514893 444.30638062 -398.71217285 444.31197998 -399.55395508 444.31774902 C-402.11950751 444.32935178 -404.68445142 444.32353494 -407.25 444.3125 C-408.58363586 444.30976578 -408.58363586 444.30976578 -409.94421387 444.30697632 C-451.31097113 444.16484001 -492.78659296 435.88919595 -523.75 406.6875 C-543.6449098 385.88331644 -553.98725057 355.74359572 -554.23828125 327.32421875 C-554.24802979 326.40936203 -554.25777832 325.49450531 -554.26782227 324.55192566 C-554.4384425 304.38002829 -554.32455676 284.80266038 -550 265 C-549.71914551 263.69337402 -549.71914551 263.69337402 -549.43261719 262.36035156 C-541.965426 228.81602639 -525.44816956 199.58106484 -504 173 C-503.27683594 172.09636719 -502.55367188 171.19273437 -501.80859375 170.26171875 C-499.56354507 167.48653335 -497.28569552 164.74181363 -495 162 C-494.58039505 161.49498459 -494.1607901 160.98996918 -493.72846985 160.46965027 C-486.44765163 151.73658424 -478.803552 143.485695 -470.73608398 135.4753418 C-468.92778392 133.67784195 -467.13054023 131.86977684 -465.33398438 130.06054688 C-458.52818929 123.24702401 -451.56406887 116.97171754 -444 111 C-442.96018999 110.12552291 -441.92505566 109.24539583 -440.8984375 108.35546875 C-380.77979678 56.70555296 -307.03723615 37.43825292 -230.31038094 27.84866691 C-226.31149365 27.34744568 -222.31351909 26.83903638 -218.31542969 26.33149719 C-210.65180316 25.35964507 -202.98745711 24.39359944 -195.32281482 23.42979461 C-185.61509261 22.20883179 -175.90822286 20.98114543 -166.20141602 19.75292969 C-165.3243726 19.64196008 -164.44732918 19.53099048 -163.54370868 19.41665816 C-160.00969943 18.96950032 -156.47569137 18.52233303 -152.94169492 18.07507408 C-147.67595472 17.40868371 -142.41012893 16.74297459 -137.14424223 16.07774293 C-116.2258115 13.43476742 -95.31245733 10.75767854 -74.40625 8.01953125 C-72.17929301 7.72845452 -69.95232886 7.43743252 -67.72535706 7.14646912 C-58.7792682 5.97686682 -49.83368559 4.80391084 -40.89024162 3.61423779 C-37.39509597 3.15082092 -33.89917424 2.69348505 -30.40301514 2.23778343 C-28.83954077 2.03257742 -27.27641482 1.82469263 -25.7137146 1.61367226 C-17.10936196 0.45227855 -8.69510448 -0.28482599 0 0 Z " fill="#FCFCFD" transform="translate(554,0)"/>
<path d="M0 0 C-0.9803032 6.06240139 -2.46732548 11.45458867 -4.86328125 17.1015625 C-6.26780676 20.68286123 -7.3843001 24.32040979 -8.5 28 C-9.82174774 32.34238591 -11.17074248 36.62653094 -12.9375 40.8125 C-14.95009857 45.61177351 -16.46357089 50.53332588 -18 55.5 C-20.05573148 62.13236464 -22.23074606 68.6250644 -25 75 C-25.37898438 76.2065625 -25.75796875 77.413125 -26.1484375 78.65625 C-28 82 -28 82 -31.30859375 83.234375 C-32.68045973 83.43865951 -34.05776391 83.60830755 -35.4375 83.75 C-36.18394775 83.85304443 -36.93039551 83.95608887 -37.69946289 84.06225586 C-39.30189121 84.2822814 -40.90612322 84.48948067 -42.51171875 84.68505859 C-44.99647093 84.99955333 -47.46452327 85.37348383 -49.9375 85.76953125 C-58.61393569 87.15435844 -67.29270014 88.30141442 -76.03010559 89.22000122 C-81.40672504 89.79579302 -86.75479467 90.49858625 -92.10546875 91.27734375 C-92.99227325 91.4051976 -93.87907776 91.53305145 -94.79275513 91.66477966 C-97.86210949 92.10799021 -100.93107821 92.55380426 -104 93 C-105.16840424 93.16961243 -106.33680847 93.33922485 -107.5406189 93.51397705 C-114.07804884 94.46310298 -120.61526752 95.4136758 -127.15234375 96.36523438 C-128.16432091 96.51253966 -128.16432091 96.51253966 -129.19674206 96.66282082 C-132.64212039 97.16441057 -136.08745156 97.66632172 -139.53271484 98.16870117 C-142.27374185 98.56836252 -145.01483934 98.96753431 -147.75601196 99.36619568 C-150.29955342 99.73613234 -152.8429983 100.10673403 -155.38632202 100.47816467 C-162.81849843 101.55810403 -170.25591724 102.57304125 -177.70420837 103.53416443 C-181.39318967 104.05557443 -185.01446735 104.7609247 -188.65771484 105.53125 C-192.84838766 106.36990872 -197.07973604 106.91980316 -201.3125 107.5 C-202.23546875 107.63180664 -203.1584375 107.76361328 -204.109375 107.89941406 C-207.90735278 108.44141159 -211.69851029 108.96646388 -215.51171875 109.390625 C-239.3555137 112.25811407 -263.62927365 124.17071105 -283 138 C-284.05832031 138.74378906 -285.11664063 139.48757812 -286.20703125 140.25390625 C-310.25028703 157.6477502 -329.87798747 183.21208852 -335 213 C-336.25309892 226.06705233 -335.59451254 237.6985961 -327.125 248.25 C-316.08099716 259.63799637 -300.24145388 263.25026364 -284.87036133 263.67114258 C-283.61376709 263.67654053 -282.35717285 263.68193848 -281.0625 263.6875 C-280.38802826 263.69123627 -279.71355652 263.69497253 -279.01864624 263.69882202 C-258.43812106 263.69088688 -238.11362911 259.79740709 -217.85475159 256.54901123 C-207.59214262 254.91047414 -197.30824925 253.50372902 -187 252.1875 C-185.45619304 251.98847052 -183.91240993 251.78925588 -182.36865234 251.58984375 C-179.52737603 251.22339557 -176.68588157 250.85870739 -173.84423828 250.49511719 C-168.37219473 249.79034745 -162.90415524 249.05780117 -157.4375 248.3125 C-156.57697021 248.19567871 -155.71644043 248.07885742 -154.82983398 247.95849609 C-150.06262207 247.30461403 -145.31251747 246.58104215 -140.5625 245.8125 C-136.30044584 245.13571712 -132.30947959 244.79955909 -128 245 C-127.83564453 243.26556641 -127.83564453 243.26556641 -127.66796875 241.49609375 C-127.11368336 237.09179818 -125.86772802 233.20369512 -124.3125 229.0625 C-123.77314095 227.58344144 -123.23408808 226.1042712 -122.6953125 224.625 C-122.41719727 223.86960937 -122.13908203 223.11421875 -121.85253906 222.3359375 C-120.15838929 217.69400594 -118.54691715 213.0225305 -116.91723633 208.35766602 C-115.11017232 203.22034465 -115.11017232 203.22034465 -114 201 C-115.09828125 201.27263672 -115.09828125 201.27263672 -116.21875 201.55078125 C-123.61432105 203.26761024 -130.95950568 204.43435183 -138.5 205.3125 C-149.36503907 206.58133878 -160.14173077 208.25313147 -170.9375 210 C-181.31657862 211.67653314 -191.67021665 213.29948369 -202.125 214.4375 C-215.84128648 215.93384384 -229.43622848 218.23979132 -243.04541016 220.48803711 C-253.64717645 222.22764929 -264.22771505 223.70497169 -274.91726685 224.78536987 C-278.61411987 225.16633852 -282.30687965 225.58462166 -286 226 C-281.70539302 220.80372592 -277.15174112 216.17830965 -272.1875 211.625 C-267.71751706 207.4850705 -263.27548465 203.34263886 -259 199 C-256.49952167 196.46192049 -253.96273829 194.05919044 -251.25 191.75 C-247.47267538 188.51661012 -243.99318098 185.03298931 -240.5 181.5 C-236.51224267 177.46700435 -232.48505083 173.60597528 -228.15625 169.9375 C-224.55606369 166.70254998 -221.20122709 163.22076458 -217.79931641 159.77978516 C-214.19067003 156.145763 -210.50442817 152.66967091 -206.5859375 149.3671875 C-204.97690272 148.06618486 -204.97690272 148.06618486 -203.81640625 146.51025391 C-201.18258008 144.32035489 -198.70472241 144.08272777 -195.3515625 143.46875 C-194.69080719 143.34600708 -194.03005188 143.22326416 -193.34927368 143.09680176 C-185.72093539 141.70948501 -178.04988338 140.59338673 -170.375 139.5 C-168.85705077 139.28091454 -167.33914767 139.06150927 -165.82128906 138.84179688 C-162.85545874 138.41313426 -159.88931777 137.98673911 -156.92285156 137.5625 C-153.76794898 137.11011666 -150.61407864 136.65194426 -147.4609375 136.1875 C-139.19288801 134.97682433 -130.91551271 133.85301238 -122.62890625 132.77734375 C-121.36525742 132.61288254 -121.36525742 132.61288254 -120.07608032 132.44509888 C-115.82508678 131.8921425 -111.57366315 131.34302042 -107.32128906 130.80078125 C-100.3126678 129.89872099 -93.36711043 128.97185562 -86.45336914 127.48901367 C-81.02957034 126.40792411 -75.5371033 125.70952181 -70.0625 124.9375 C-68.86431641 124.76412109 -67.66613281 124.59074219 -66.43164062 124.41210938 C-61.10441532 123.65439504 -55.79675412 122.94800197 -50.43359375 122.50390625 C-44.23666366 121.97718968 -38.13620538 120.99871145 -32 120 C-30.50151404 119.75848362 -29.00297578 119.51729158 -27.50439453 119.27636719 C-26.71006012 119.14856873 -25.91572571 119.02077026 -25.09732056 118.88909912 C-21.76948798 118.35399632 -18.44154346 117.81959241 -15.11352539 117.28564453 C-13.40006327 117.00982452 -11.68684944 116.732458 -9.97387695 116.45361328 C-7.46373184 116.04545573 -4.95268839 115.64328185 -2.44140625 115.2421875 C-1.68195206 115.11721893 -0.92249786 114.99225037 -0.14002991 114.86349487 C3.94881568 114.21651348 7.86087393 113.87002645 12 114 C10.41305884 120.32372009 8.54612232 126.32107581 6.03515625 132.3359375 C4.86285474 135.35295497 3.92601276 138.39876511 3 141.5 C1.57402094 146.26811749 -0.09188902 150.81485797 -2 155.40625 C-3.15425922 158.40010985 -4.08069115 161.42606102 -5 164.5 C-6.42597906 169.26811749 -8.09188902 173.81485797 -10 178.40625 C-11.15425922 181.40010985 -12.08069115 184.42606102 -13 187.5 C-14.42597906 192.26811749 -16.09188902 196.81485797 -18 201.40625 C-19.15425922 204.40010985 -20.08069115 207.42606102 -21 210.5 C-22.42597906 215.26811749 -24.09188902 219.81485797 -26 224.40625 C-27.15425922 227.40010985 -28.08069115 230.42606102 -29 233.5 C-30.42597906 238.26811749 -32.09188902 242.81485797 -34 247.40625 C-35.15425922 250.40010985 -36.08069115 253.42606102 -37 256.5 C-38.42597906 261.26811749 -40.09188902 265.81485797 -42 270.40625 C-43.15425922 273.40010985 -44.08069115 276.42606102 -45 279.5 C-46.40939139 284.20528331 -48.03471541 288.70256219 -49.91796875 293.234375 C-52.19871712 299.06386902 -54.06392419 305.0489473 -56 311 C-57.09006348 311.16544312 -57.09006348 311.16544312 -58.20214844 311.33422852 C-64.70746115 312.32773243 -71.20693891 313.35108245 -77.703125 314.40234375 C-93.91333723 317.01785174 -110.09508176 319.50287939 -126.4140625 321.3515625 C-132.10191222 321.99768314 -137.77016782 322.7572087 -143.4375 323.5625 C-144.26000244 323.67746826 -145.08250488 323.79243652 -145.92993164 323.91088867 C-149.95187313 324.49087716 -153.92444013 325.17256204 -157.90234375 326.00390625 C-163.2797178 327.10627575 -168.67458518 327.75090324 -174.125 328.375 C-182.44105857 329.36603623 -190.68708205 330.56327872 -198.9375 332 C-208.20864826 333.60679663 -217.48201095 334.84920877 -226.82885742 335.92358398 C-240.08561831 337.45076451 -253.27884843 339.39536011 -266.4609375 341.46484375 C-269.42252571 341.91267773 -272.38528814 342.33875131 -275.3515625 342.75390625 C-276.77758789 342.9540332 -276.77758789 342.9540332 -278.23242188 343.15820312 C-280.13181942 343.42368273 -282.03155173 343.68678023 -283.93164062 343.94726562 C-285.2377832 344.12999023 -285.2377832 344.12999023 -286.5703125 344.31640625 C-287.74231201 344.47798218 -287.74231201 344.47798218 -288.93798828 344.64282227 C-291.18842524 344.97965849 -291.18842524 344.97965849 -294 346 C-319.22391348 349.62230204 -345.93327316 349.61637676 -371 345 C-371.77714355 344.86078125 -372.55428711 344.7215625 -373.35498047 344.578125 C-393.26951741 340.87069989 -414.14195696 332.06991904 -426.625 315.5 C-441.88879424 292.33869737 -445.71889529 261.66109779 -440.77124023 234.72753906 C-440.09580724 231.51709689 -439.35606109 228.32972651 -438.546875 225.15039062 C-438.03950417 223.15533605 -437.58016628 221.14823342 -437.125 219.140625 C-428.71352929 184.14289866 -408.11619485 153.16215362 -384 127 C-382.58306432 125.39607095 -381.16640358 123.79189896 -379.75 122.1875 C-371.72501079 113.27709167 -363.24450764 104.64900886 -354 97 C-353.22293701 96.34427002 -353.22293701 96.34427002 -352.43017578 95.67529297 C-302.97736878 53.99851355 -247.62779755 34.41833813 -184.29931641 25.60766602 C-180.59716811 25.08993107 -176.90358809 24.5273459 -173.2109375 23.9453125 C-166.36676854 22.87786835 -159.49887993 22.03814209 -152.625 21.1875 C-140.28172053 19.64220331 -128.01843285 17.76030479 -115.74829102 15.7199707 C-107.57213271 14.37363662 -99.43233723 13.30515413 -91.18847656 12.49365234 C-87.38552314 12.07922688 -83.67975602 11.39649806 -79.9296875 10.6328125 C-69.38042336 8.57224711 -58.7236393 7.32777994 -48.0625 6 C-44.09441474 5.50491601 -40.1269001 5.00572427 -36.16015625 4.5 C-35.20420563 4.37842529 -34.248255 4.25685059 -33.26333618 4.1315918 C-26.0179701 3.1870015 -18.85745829 1.96190737 -11.68920898 0.55078125 C-7.69424687 -0.04564748 -4.03147777 -0.09374881 0 0 Z " fill="#171E32" transform="translate(489,50)"/>
<path d="M0 0 C-1.67204578 5.15960817 -3.34441902 10.31911005 -5.01708984 15.47851562 C-5.5855383 17.23206748 -6.15389877 18.98564786 -6.72216797 20.73925781 C-7.54110711 23.26635197 -8.36036726 25.79334188 -9.1796875 28.3203125 C-9.43185028 29.09867462 -9.68401306 29.87703674 -9.94381714 30.6789856 C-10.1839151 31.41930023 -10.42401306 32.15961487 -10.67138672 32.92236328 C-10.98449295 33.88832932 -10.98449295 33.88832932 -11.30392456 34.87380981 C-12.19189039 37.58613685 -13.09579704 40.2930486 -14 43 C1.42840789 41.47353235 16.74537249 39.21907349 32.08021259 36.96055937 C35.68440216 36.43065226 39.28921076 35.90499237 42.89398193 35.37905884 C53.56687585 33.82113802 64.23888894 32.25721511 74.9105835 30.69110107 C83.24799171 29.46759568 91.58566529 28.24597007 99.92421794 27.03028548 C104.19988556 26.40671669 108.4749483 25.77919691 112.74958944 25.14863181 C116.02559771 24.66648147 119.30241003 24.18988654 122.57910156 23.71240234 C123.75419785 23.5378804 124.92929413 23.36335846 126.13999939 23.18354797 C127.22448868 23.02656937 128.30897797 22.86959076 129.42633057 22.70785522 C130.36346012 22.57034033 131.30058968 22.43282543 132.2661171 22.29114342 C135.19630545 21.97909455 138.05544461 21.95087204 141 22 C139.80674445 27.88373217 138.28679818 33.49189666 136.26171875 39.140625 C135.85268059 40.30298676 135.85268059 40.30298676 135.43537903 41.48883057 C134.8391426 43.18188013 134.24064365 44.87413425 133.64013672 46.56567383 C131.95065356 51.32627539 130.27928104 56.09324598 128.60546875 60.859375 C128.2418222 61.89352539 127.87817566 62.92767578 127.50350952 63.99316406 C123.2301192 76.16141519 119.04346389 88.35950617 114.8543396 100.5569458 C112.59512123 107.13504845 110.3333989 113.71228965 108.0703125 120.2890625 C107.85032026 120.92838589 107.63032803 121.56770927 107.40366936 122.2264061 C103.13381958 134.6322923 98.82114746 147.02289375 94.48925781 159.40722656 C88.71033123 175.93025206 82.99347921 192.47441821 77.28503418 209.02191162 C71.16575396 226.75854794 65.01173478 244.48264661 58.80664062 262.18945312 C58.51788055 263.01473511 58.22912048 263.84001709 57.93161011 264.69030762 C57.41150204 266.17672403 56.89057432 267.66285416 56.36843872 269.14855957 C54.66586997 274.0168074 53.02542785 278.9050065 51.39730835 283.79858398 C51.16624484 284.49245964 50.93518133 285.1863353 50.6971159 285.90123749 C50.13120223 287.60075562 49.5655724 289.30036827 49 291 C79.55617357 286.53453161 110.11214047 282.06765194 140.66783334 277.59889558 C144.30378194 277.06714095 147.93973224 276.53539794 151.57568359 276.00366211 C152.29930855 275.89783615 153.0229335 275.79201019 153.76848648 275.68297739 C165.3705829 273.98626601 176.97281546 272.29048735 188.57510175 270.59507488 C200.54682216 268.84565591 212.51838844 267.09518488 224.48982227 265.34380585 C231.18585344 264.3642288 237.88195177 263.38511652 244.57822037 262.40716362 C252.11762607 261.30601232 259.65678611 260.20319035 267.19580078 259.09936523 C268.38489619 258.92539274 269.57399159 258.75142025 270.79912019 258.57217586 C283.43001358 256.72285264 296.05661655 254.84951695 308.67425537 252.91165161 C309.75678317 252.74559412 310.83931098 252.57953663 311.95464265 252.40844709 C317.02904293 251.62917563 322.10263476 250.84514484 327.17503548 250.0529623 C328.94967603 249.77868498 330.72432782 249.50448036 332.49899292 249.23036194 C333.29401805 249.10445352 334.08904317 248.97854511 334.90815997 248.84882128 C338.63747904 248.27595788 342.2244207 247.85252452 346 248 C345.43384016 251.88350268 343.66155353 253.75770314 341 256.5625 C337.71958335 260.09685096 334.58348058 263.67877551 331.5625 267.4375 C327.70291397 272.20996203 323.62800009 276.73109109 319.47265625 281.24609375 C316.25290481 284.83207284 313.24094824 288.56701492 310.21484375 292.31640625 C308.04367173 294.94708557 305.79758643 297.47942424 303.5 300 C300.38541332 303.41739372 297.4081338 306.9052235 294.5 310.5 C290.88967558 314.96276213 287.11572071 319.22719533 283.25 323.46875 C280.92137947 326.0884481 278.70437053 328.7751531 276.5 331.5 C272.88967558 335.96276213 269.11572071 340.22719533 265.25 344.46875 C262.92137947 347.0884481 260.70437053 349.7751531 258.5 352.5 C255.5918662 356.0947765 252.61458668 359.58260628 249.5 363 C246.47717579 366.31989486 243.57487839 369.69764112 240.75 373.1875 C235.53481485 379.62711993 230.08668248 385.85455403 224.64648438 392.10351562 C222.06362591 395.07855189 219.49943086 398.0694406 216.9375 401.0625 C216.44660889 401.63589111 215.95571777 402.20928223 215.44995117 402.80004883 C214.46114797 403.95530518 213.47245951 405.11065976 212.48388672 406.26611328 C209.49885567 409.75405183 206.51020183 413.23888768 203.52172852 416.72387695 C200.89477052 419.78772406 198.27006516 422.85346504 195.6484375 425.921875 C195.10058594 426.56253906 194.55273438 427.20320313 193.98828125 427.86328125 C192.93552191 429.09447437 191.88340836 430.32622007 190.83203125 431.55859375 C185.15890182 438.19012652 185.15890182 438.19012652 180.80980968 438.82681942 C179.4837266 439.02718126 179.4837266 439.02718126 178.13085395 439.23159081 C177.15319751 439.37059538 176.17554106 439.50959994 175.16825867 439.65281677 C174.13361738 439.80665201 173.0989761 439.96048725 172.03298205 440.11898416 C168.5422271 440.63596475 165.04984527 441.14100104 161.55737305 441.64624023 C159.06336763 442.0132619 156.56947424 442.38104551 154.0756855 442.74953651 C148.67873717 443.54540611 143.28108937 444.33624808 137.882761 445.12269783 C129.96413371 446.27641324 122.0469411 447.4397384 114.13011938 448.6057724 C110.42012915 449.1521944 106.71008934 449.6982794 103.00003719 450.24428082 C102.2569347 450.35364298 101.51383221 450.46300514 100.74821146 450.5756813 C95.39719631 451.36298744 90.04592807 452.14855862 84.69453526 452.93329334 C64.01174145 455.96638151 43.33189257 459.01871957 22.65478516 462.09033203 C21.95681292 462.19400785 21.25884068 462.29768366 20.53971776 462.40450117 C14.21025946 463.34468509 7.88083816 464.28511795 1.55147207 465.22592247 C-8.24448183 466.68200369 -18.04063453 468.1367404 -27.83694458 469.59042358 C-28.52966807 469.69321789 -29.22239156 469.79601219 -29.93610667 469.90192147 C-33.43295026 470.42081645 -36.92979722 470.93968884 -40.42664552 471.45855212 C-44.60458583 472.07848501 -48.7825111 472.69851923 -52.96043205 473.31858253 C-53.64923335 473.42081043 -54.33803464 473.52303833 -55.0477087 473.62836405 C-56.44050832 473.83507572 -57.83330791 474.04178761 -59.22610746 474.24849971 C-72.10688545 476.16018674 -84.98770657 478.07158298 -97.86854323 479.98287458 C-109.94913869 481.7754302 -122.02969524 483.56824789 -134.11021596 485.36130708 C-140.78268581 486.35166512 -147.455174 487.34189913 -154.12770653 488.33183479 C-160.2959763 489.24696044 -166.46419818 490.16240823 -172.63238335 491.07810402 C-174.87653081 491.4112004 -177.12069562 491.74417995 -179.36487961 492.07703018 C-182.43639061 492.53260494 -185.50783313 492.9886392 -188.57926941 493.44471741 C-189.51279909 493.58300433 -190.44632876 493.72129126 -191.40814722 493.8637687 C-195.31299967 494.44374062 -199.21641831 495.02898982 -203.11492348 495.65032768 C-204.26566038 495.83355143 -205.41639729 496.01677517 -206.602005 496.20555115 C-208.00884033 496.43560679 -208.00884033 496.43560679 -209.44409657 496.67031002 C-213.32625251 497.17107538 -217.0917492 497.13248308 -221 497 C-218.87707174 489.68012171 -216.49263141 482.47589185 -213.98046875 475.28125 C-213.59941483 474.18389526 -213.2183609 473.08654053 -212.82575989 471.95593262 C-211.61498812 468.46992915 -210.40145685 464.98489544 -209.1875 461.5 C-207.9845925 458.04355348 -206.7823393 454.58688299 -205.58137512 451.12976074 C-204.83785861 448.98977501 -204.09324648 446.85016941 -203.34721375 444.71105957 C-200.14584452 435.50245712 -197.06968147 426.25312427 -194 417 C-194.87315983 417.12699972 -195.74631966 417.25399944 -196.64593887 417.38484764 C-217.97420795 420.48669819 -239.30318852 423.58361443 -260.63295364 426.67516136 C-270.9481962 428.17037703 -281.26319893 429.66721077 -291.57763672 431.16796875 C-300.57645439 432.47729875 -309.57572336 433.78347575 -318.57552886 435.08599913 C-323.33285191 435.77462559 -328.08994751 436.46474 -332.84650421 437.15864182 C-381.93448351 444.31693674 -381.93448351 444.31693674 -397.078125 444.30078125 C-397.89514893 444.30638062 -398.71217285 444.31197998 -399.55395508 444.31774902 C-402.11950751 444.32935178 -404.68445142 444.32353494 -407.25 444.3125 C-408.58363586 444.30976578 -408.58363586 444.30976578 -409.94421387 444.30697632 C-451.31097113 444.16484001 -492.78659296 435.88919595 -523.75 406.6875 C-543.6449098 385.88331644 -553.98725057 355.74359572 -554.23828125 327.32421875 C-554.24802979 326.40936203 -554.25777832 325.49450531 -554.26782227 324.55192566 C-554.4384425 304.38002829 -554.32455676 284.80266038 -550 265 C-549.71914551 263.69337402 -549.71914551 263.69337402 -549.43261719 262.36035156 C-541.965426 228.81602639 -525.44816956 199.58106484 -504 173 C-503.27683594 172.09636719 -502.55367188 171.19273437 -501.80859375 170.26171875 C-499.56354507 167.48653335 -497.28569552 164.74181363 -495 162 C-494.58039505 161.49498459 -494.1607901 160.98996918 -493.72846985 160.46965027 C-486.44765163 151.73658424 -478.803552 143.485695 -470.73608398 135.4753418 C-468.92778392 133.67784195 -467.13054023 131.86977684 -465.33398438 130.06054688 C-458.52818929 123.24702401 -451.56406887 116.97171754 -444 111 C-442.96018999 110.12552291 -441.92505566 109.24539583 -440.8984375 108.35546875 C-380.77979678 56.70555296 -307.03723615 37.43825292 -230.31038094 27.84866691 C-226.31149365 27.34744568 -222.31351909 26.83903638 -218.31542969 26.33149719 C-210.65180316 25.35964507 -202.98745711 24.39359944 -195.32281482 23.42979461 C-185.61509261 22.20883179 -175.90822286 20.98114543 -166.20141602 19.75292969 C-165.3243726 19.64196008 -164.44732918 19.53099048 -163.54370868 19.41665816 C-160.00969943 18.96950032 -156.47569137 18.52233303 -152.94169492 18.07507408 C-147.67595472 17.40868371 -142.41012893 16.74297459 -137.14424223 16.07774293 C-116.2258115 13.43476742 -95.31245733 10.75767854 -74.40625 8.01953125 C-72.17929301 7.72845452 -69.95232886 7.43743252 -67.72535706 7.14646912 C-58.7792682 5.97686682 -49.83368559 4.80391084 -40.89024162 3.61423779 C-37.39509597 3.15082092 -33.89917424 2.69348505 -30.40301514 2.23778343 C-28.83954077 2.03257742 -27.27641482 1.82469263 -25.7137146 1.61367226 C-17.10936196 0.45227855 -8.69510448 -0.28482599 0 0 Z M-46.84375 25.91796875 C-47.59394409 26.01541382 -48.34413818 26.11285889 -49.11706543 26.21325684 C-51.57860018 26.53389965 -54.03927437 26.86071084 -56.5 27.1875 C-58.22780383 27.41363203 -59.95566955 27.63929158 -61.68359375 27.86450195 C-65.29060161 28.33496232 -68.89733193 28.80747823 -72.50390625 29.28125 C-77.9075235 29.98965396 -83.31281248 30.68454947 -88.71875 31.375 C-89.58616821 31.48580399 -90.45358643 31.59660797 -91.34729004 31.71076965 C-93.06444491 31.93001635 -94.78160787 32.1491997 -96.4987793 32.36831665 C-100.45764021 32.87351097 -104.41640743 33.37942588 -108.375 33.88671875 C-109.11622604 33.98159576 -109.85745209 34.07647278 -110.62113953 34.17422485 C-115.18385528 34.7603013 -119.74266965 35.37111963 -124.30078125 35.9921875 C-130.24951754 36.78949385 -136.20489926 37.50216503 -142.16796875 38.18359375 C-143.06315216 38.28590805 -143.95833557 38.38822235 -144.88064575 38.49363708 C-148.56803374 38.91389794 -152.25557135 39.33274161 -155.94360352 39.74731445 C-167.46266037 41.04496227 -178.92535799 42.53455711 -190.38256836 44.296875 C-201.70742856 46.03613073 -213.07984344 47.3834553 -224.46127319 48.68847656 C-251.19593353 51.76537009 -277.95013425 55.07091113 -304 62 C-305.95802115 62.45966515 -307.91633917 62.91806821 -309.875 63.375 C-315.03840213 64.66585053 -320.07583001 66.26347149 -325.125 67.9375 C-326.21723877 68.29884033 -326.21723877 68.29884033 -327.33154297 68.66748047 C-366.71263106 81.96533498 -402.82986192 103.64753013 -434 131 C-434.70898438 131.60972656 -435.41796875 132.21945313 -436.1484375 132.84765625 C-447.29131226 142.46691344 -458.36081222 152.40882902 -467.9453125 163.60546875 C-469.57006949 165.49895931 -471.21153005 167.37204989 -472.8671875 169.23828125 C-492.9670282 191.99246969 -510.75349491 216.63703974 -522 245 C-522.45117188 246.13050781 -522.90234375 247.26101562 -523.3671875 248.42578125 C-526.29097423 256.44349456 -528.09209578 264.57834934 -529.75 272.9375 C-529.96092285 273.98470215 -530.1718457 275.0319043 -530.38916016 276.11083984 C-532.92120848 289.58117074 -533.20297414 303.2395767 -533.24023438 316.90942383 C-533.25001428 319.065649 -533.28124998 321.22094597 -533.3125 323.37695312 C-533.40782281 335.86184765 -531.64788684 347.71477653 -527.3125 359.5 C-527.0561377 360.20157227 -526.79977539 360.90314453 -526.53564453 361.62597656 C-517.63247037 385.1735746 -501.83390115 401.35895869 -479 412 C-476.49023687 412.91878273 -474.03512366 413.69673767 -471.44140625 414.33203125 C-469 415 -469 415 -465.37109375 416.44140625 C-460.52389352 418.28997707 -455.59337754 419.21155353 -450.5 420.125 C-449.60152344 420.29386719 -448.70304687 420.46273438 -447.77734375 420.63671875 C-438.99692023 422.25988292 -430.50573764 423.17092969 -421.58203125 423.2734375 C-420.5832193 423.28582962 -419.58440735 423.29822174 -418.55532837 423.31098938 C-415.30768452 423.34339339 -412.06027889 423.36221734 -408.8125 423.375 C-407.70262726 423.37956207 -406.59275452 423.38412415 -405.44924927 423.38882446 C-383.41397733 423.4211357 -362.284539 421.10910222 -340.64086914 417.2175293 C-332.29817148 415.71896851 -323.98865948 414.39643667 -315.5625 413.4375 C-309.99006541 412.79887783 -304.47257781 412.14719205 -298.98046875 410.9921875 C-293.60221379 409.86544176 -288.20926295 409.27637427 -282.75 408.6875 C-273.31926558 407.61393397 -263.97881863 406.23327874 -254.625 404.625 C-243.20817337 402.66566921 -231.77909235 400.889385 -220.3125 399.25 C-219.2036142 399.08990448 -219.2036142 399.08990448 -218.07232666 398.92657471 C-210.52387947 397.83924915 -202.99681665 396.86394283 -195.39379883 396.23291016 C-191.78364002 395.88165146 -188.24789875 395.24291638 -184.6875 394.5625 C-177.1475542 393.17416817 -169.59917814 392.02366108 -162 391 C-164.49106523 398.65696278 -167.0249117 406.23028631 -170.1015625 413.67578125 C-171.34594018 416.89493221 -172.26575202 420.1852244 -173.21875 423.5 C-174.28779911 426.92095715 -175.665413 430.18888 -177.03125 433.5 C-177.99095431 435.97665628 -178.76632402 438.44808355 -179.5 441 C-180.48630723 444.43063383 -181.63877452 447.70005945 -183 451 C-184.7220971 455.18035784 -186.08661987 459.38479235 -187.33984375 463.7265625 C-188.1485382 466.51153391 -189.06139823 469.25639483 -190 472 C-188.20779424 471.88298313 -186.41624915 471.75584692 -184.625 471.625 C-183.62726563 471.55539062 -182.62953125 471.48578125 -181.6015625 471.4140625 C-178.7620909 471.08761566 -176.09420973 470.63745677 -173.3046875 470.0546875 C-166.77261936 468.70004312 -160.18461397 467.9464712 -153.56640625 467.14453125 C-148.02908363 466.453295 -142.60174122 465.56016816 -137.13964844 464.41943359 C-134.71632739 463.94439188 -132.33968238 463.70035512 -129.875 463.5625 C-125.17782758 463.19657297 -120.61670849 462.41230315 -116 461.5 C-110.49685379 460.41252877 -105.07867308 459.65596694 -99.484375 459.2421875 C-97.05349894 459.00521531 -94.75989392 458.58269498 -92.375 458.0625 C-87.77214313 457.06987112 -83.17464993 456.51517586 -78.5 456 C-73.9532369 455.4975871 -69.47373858 454.98054544 -65 454 C-59.36629588 452.76822401 -53.65885194 452.24441757 -47.9296875 451.66015625 C-43.85782235 451.17587037 -39.86744564 450.41211073 -35.84375 449.625 C-25.50114909 447.61845945 -15.06737155 446.30634693 -4.625 444.9375 C-1.69658447 444.55248823 1.23162326 444.16612199 4.15933228 443.77577209 C5.96211321 443.53547789 7.76529029 443.29812774 9.56893921 443.06443787 C14.72480128 442.37809886 19.79982157 441.48967296 24.89001465 440.41833496 C27.30300532 439.93992483 29.66988868 439.69981979 32.125 439.5625 C36.82217242 439.19657297 41.38329151 438.41230315 46 437.5 C51.50314621 436.41252877 56.92132692 435.65596694 62.515625 435.2421875 C64.94650106 435.00521531 67.24010608 434.58269498 69.625 434.0625 C74.07772177 433.10583308 78.53950013 432.55542696 83.0625 432.0625 C88.94390762 431.4166856 94.74437413 430.57554679 100.5625 429.5 C107.25528443 428.26681724 113.94363023 427.33554421 120.703125 426.52734375 C133.37676124 424.99828086 145.98223582 423.14899507 158.48828125 420.58203125 C161.71034596 420.04800718 164.56222971 420.00290407 167.8125 420.0625 C172.84182219 419.69302955 175.38852189 417.24844222 178.625 413.625 C180.47021372 411.45704434 182.24001109 409.23731923 184 407 C185.54099448 405.12444751 187.08262338 403.24941603 188.625 401.375 C189.34945312 400.47523438 190.07390625 399.57546875 190.8203125 398.6484375 C192.97757399 396.02724881 195.21311 393.50845719 197.5 391 C201.34558741 386.77583145 204.96730971 382.41046927 208.5625 377.97265625 C212.77122483 372.83990049 217.11906527 367.82654106 221.45166016 362.79833984 C223.97292935 359.8699783 226.48612243 356.93470651 229 354 C229.99995977 352.83329885 230.99995981 351.66663221 232 350.5 C232.7425 349.63375 232.7425 349.63375 233.5 348.75 C262 315.5 262 315.5 263.50024414 313.74975586 C264.49948396 312.58394896 265.49867023 311.41809614 266.49780273 310.25219727 C269.00899461 307.32199602 271.52113393 304.39261709 274.03515625 301.46484375 C276.52434711 298.56545665 279.01079255 295.66374113 281.49462891 292.75976562 C282.52758729 291.55224632 283.56114769 290.34524181 284.59521484 289.13867188 C286.149396 287.32380463 287.70014424 285.5060614 289.25 283.6875 C289.72832275 283.1298999 290.20664551 282.5722998 290.69946289 281.99780273 C292.99250276 279.78213393 292.99250276 279.78213393 294 277 C287.27185724 277.37594632 280.68833179 278.15222368 274.0625 279.375 C266.89829393 280.69516757 259.72359801 281.79680321 252.50878906 282.80200195 C247.43241755 283.51000292 242.36083802 284.24102561 237.29296875 285.0078125 C226.58763539 286.62657614 215.91060212 288.18772397 205.13842773 289.28369141 C199.83979084 289.84621583 194.66440209 290.77646786 189.43847656 291.82666016 C183.51107539 292.98136737 177.55733866 293.7248033 171.5625 294.4375 C163.31723025 295.4193735 155.1285914 296.57604511 146.9375 297.9375 C137.29570705 299.53807139 127.63429895 300.8536091 117.9375 302.0625 C109.02330255 303.17449219 100.24119226 304.43681955 91.4375 306.22265625 C84.33507846 307.55349498 77.13179463 308.29894846 69.96386719 309.19085693 C59.95482877 310.44048514 50.00718195 311.91495485 40.06640625 313.6315918 C32.39686088 314.95395013 24.72277133 316.04016198 17 317 C18.22422601 313.15802638 19.45114132 309.31692256 20.68041992 305.4765625 C21.09715305 304.17340631 21.51318501 302.87002566 21.9284668 301.56640625 C24.13449822 294.64302485 26.41078011 287.7885429 29 281 C30.02832005 278.00926031 31.015312 275.00534984 32 272 C32.4984592 270.47866097 32.99845017 268.95782292 33.5 267.4375 C33.82484375 266.44556641 33.82484375 266.44556641 34.15625 265.43359375 C34.86284943 263.3955778 35.61459332 261.37328918 36.37695312 259.35546875 C38.18276735 254.56497543 39.82791966 249.7240275 41.46875 244.875 C41.79033081 243.92866699 42.11191162 242.98233398 42.4432373 242.00732422 C43.46335092 239.0052862 44.48187728 236.00271375 45.5 233 C46.84230882 229.0411755 48.18627814 225.08292044 49.53125 221.125 C49.9860675 219.78091064 49.9860675 219.78091064 50.45007324 218.40966797 C52.20872125 213.2349639 54.06381243 208.1108627 56 203 C56.67863055 201.0040278 57.34641919 199.00431449 58 197 C59.07640794 193.69901564 60.20382811 190.43231409 61.4375 187.1875 C63.08528836 182.83203932 64.55028544 178.42464966 66 174 C67.64948495 168.96563448 69.36729627 163.97924678 71.25 159.02734375 C72.59759995 155.38461265 73.7908254 151.69050165 75 148 C76.41895551 143.66922952 77.84522947 139.35279989 79.46875 135.09375 C81.29893753 130.2799755 82.8927856 125.39182723 84.5 120.5 C86.32369293 114.94928398 88.18641055 109.43422404 90.26757812 103.97460938 C91.61183369 100.35049637 92.79663112 96.6727821 94 93 C95.61865287 88.05973656 97.29583238 83.16459944 99.14306641 78.30371094 C101.0757925 73.10792648 102.86943473 67.86172388 104.6875 62.625 C105.10322266 61.43777344 105.51894531 60.25054687 105.94726562 59.02734375 C106.33978516 57.89683594 106.73230469 56.76632813 107.13671875 55.6015625 C107.49467529 54.57369629 107.85263184 53.54583008 108.22143555 52.48681641 C109.09959214 50.11619948 109.09959214 50.11619948 109 48 C103.52098914 47.86577034 98.50571587 48.29448069 93.125 49.375 C86.9530862 50.54585543 80.81171608 51.42427661 74.5625 52.0625 C69.15243626 52.619225 63.87257496 53.29374583 58.5559082 54.47265625 C47.57680487 56.73790252 36.36534514 57.86230562 25.24023438 59.17456055 C16.95240898 60.15606665 8.75061085 61.35209583 0.54042053 62.85212708 C-7.87348177 64.37203812 -16.33971897 65.48982373 -24.8125 66.625 C-27.22520963 66.94962526 -29.63776404 67.27527789 -32.04997253 67.60360718 C-33.53104251 67.80509457 -35.01240331 68.00445994 -36.49409485 68.20132446 C-39.71652892 68.63873821 -42.86842862 69.11014909 -46 70 C-44.73254164 65.99892276 -43.46042313 61.99934168 -42.1875 58 C-41.83107422 56.87464844 -41.47464844 55.74929687 -41.10742188 54.58984375 C-39.21748999 48.65996573 -37.23713 42.8074334 -35 37 C-34.42570775 35.40001708 -33.86049126 33.7966807 -33.3125 32.1875 C-33.06113281 31.45917969 -32.80976562 30.73085938 -32.55078125 29.98046875 C-31.86603106 27.86088698 -31.86603106 27.86088698 -32 25 C-37.0256542 24.90419949 -41.87127989 25.24724735 -46.84375 25.91796875 Z " fill="#3694D1" transform="translate(554,0)"/>
<path d="M0 0 C-0.44909294 5.16456875 -1.82190977 9.23496703 -3.828125 13.99609375 C-5.23989671 17.61493523 -6.37375972 21.28435857 -7.5 25 C-9.09077627 30.22795706 -10.85591606 35.26896093 -12.96875 40.3125 C-14.57924647 44.50955142 -15.83399904 48.81163882 -17.14233398 53.1105957 C-18.54984628 57.68812222 -20.18570685 62.09235172 -22.03515625 66.51171875 C-23.18164449 69.46845157 -24.09108519 72.46203182 -25 75.5 C-26.1547902 79.35978515 -27.38238114 83.09645293 -28.9375 86.8125 C-30.73638078 91.13686831 -32.13795469 95.52441232 -33.5 100 C-35.11080586 105.29299782 -36.89767295 110.40407793 -39.03515625 115.51171875 C-40.18164449 118.46845157 -41.09108519 121.46203182 -42 124.5 C-43.1547902 128.35978515 -44.38238114 132.09645293 -45.9375 135.8125 C-47.73638078 140.13686831 -49.13795469 144.52441232 -50.5 149 C-52.11080586 154.29299782 -53.89767295 159.40407793 -56.03515625 164.51171875 C-57.18164449 167.46845157 -58.09108519 170.46203182 -59 173.5 C-60.1547902 177.35978515 -61.38238114 181.09645293 -62.9375 184.8125 C-64.73638285 189.13687329 -66.13791292 193.52442312 -67.5 198 C-69.09143155 203.2277833 -70.85588776 208.26889337 -72.96875 213.3125 C-74.57924647 217.50955142 -75.83399904 221.81163882 -77.14233398 226.1105957 C-78.54984628 230.68812222 -80.18570685 235.09235172 -82.03515625 239.51171875 C-83.59510111 243.53473443 -84.75398912 247.67639837 -85.98828125 251.80859375 C-87.18708419 255.59014587 -88.62245966 259.22756407 -90.16796875 262.87890625 C-90.96353089 264.90702946 -91.49262399 266.88505769 -92 269 C-91.21463867 268.85900879 -90.42927734 268.71801758 -89.62011719 268.57275391 C-85.99688054 267.92274334 -82.37344182 267.27386584 -78.75 266.625 C-77.51507812 266.40328125 -76.28015625 266.1815625 -75.0078125 265.953125 C-59.96162931 263.26065011 -44.87450455 260.84127263 -29.77929688 258.44189453 C-27.60787048 258.09664842 -25.43669784 257.74980624 -23.265625 257.40234375 C-18.47192951 256.64778057 -13.67460072 255.95235555 -8.86328125 255.3203125 C0.65819409 254.06556353 10.03613415 252.67449353 19.43359375 250.68359375 C23.92226078 249.82322493 28.42734912 249.28851614 32.96386719 248.76708984 C38.22148637 248.14444367 43.38110017 247.20559604 48.57568359 246.17578125 C54.37718649 245.05498861 60.20427661 244.26218338 66.0625 243.5 C73.52982469 242.52514009 80.86280599 241.35634529 88.22265625 239.74609375 C92.59273757 238.8829236 96.97648656 238.21553226 101.38061523 237.55102539 C107.76099262 236.57965866 114.1295045 235.5338565 120.5 234.5 C129.07505297 233.10836975 137.65255504 231.74035096 146.24023438 230.42871094 C150.28535787 229.80032834 154.31406549 229.08677402 158.34375 228.3671875 C160.9345628 228.00904573 163.38851821 227.93376677 166 228 C162.19735816 233.47282179 157.97414667 238.14443813 153.2109375 242.796875 C150.66936807 245.32946361 148.33977188 247.9902773 146.00390625 250.7109375 C143.4313009 253.64962509 140.78058927 256.51138061 138.125 259.375 C134.55563715 263.22596612 131.00353935 267.08877607 127.5 271 C124.03510167 274.86662567 120.52695432 278.69013786 117 282.5 C112.72272045 287.12080381 108.48690029 291.77505684 104.28515625 296.46484375 C102.61356448 298.31931051 100.93515314 300.16548616 99.24609375 302.00390625 C98.77413574 302.51824219 98.30217773 303.03257812 97.81591797 303.5625 C96.85983919 304.59925096 95.89925161 305.63186307 94.93408203 306.66015625 C92.90314621 308.83782984 91.00962393 310.9861531 89.30859375 313.43359375 C85.86095987 318.33949575 82.44378122 319.83085242 76.625 320.875 C73.75672265 321.32159215 70.88434448 321.67494915 68 322 C66.58072357 322.16922391 65.16145269 322.33849436 63.7421875 322.5078125 C61.61483995 322.7572527 59.48739102 323.00136523 57.35791016 323.23193359 C52.51746771 323.76779632 47.7750763 324.54875206 43 325.5 C37.5139566 326.59288044 32.0616951 327.40202276 26.5 328 C19.50544585 328.75478499 12.66385526 329.93139726 5.76171875 331.27734375 C-3.92540574 333.13831782 -13.67004672 334.35732798 -23.46875 335.4375 C-28.1265249 335.98588026 -32.7530902 336.71328496 -37.38623047 337.43798828 C-41.23042831 338.0358361 -45.07765047 338.611791 -48.92578125 339.18359375 C-51.01753939 339.49621621 -53.1092356 339.80925068 -55.20092773 340.12231445 C-56.60312746 340.33161493 -58.00547075 340.539956 -59.40795898 340.74731445 C-67.82474731 341.9929716 -76.19028158 343.38186941 -84.54585266 344.98887634 C-89.1966861 345.87444565 -93.79057786 346.53294987 -98.5 347 C-104.062172 347.59117355 -109.51457061 348.40724188 -115 349.5 C-120.4860434 350.59288044 -125.9383049 351.40202276 -131.5 352 C-138.35924118 352.74018332 -145.06511812 353.86024207 -151.828125 355.21875 C-164.32353931 357.6396973 -177.00783738 359.10060385 -189.62353516 360.74731445 C-198.95125985 361.96744941 -208.22778527 363.29703704 -217.47003174 365.06358337 C-221.02992327 365.72856234 -224.37692099 366.15001402 -228 366 C-227.44854736 361.25295536 -226.48158998 357.15629074 -224.7734375 352.69921875 C-223.01897208 347.95889684 -221.44435382 343.2387357 -220.06695557 338.37600708 C-219.18885302 335.2907453 -218.25567746 332.22319412 -217.31982422 329.1550293 C-216.85264187 327.57997144 -216.40761826 325.99818769 -215.98388672 324.41088867 C-214.56428834 319.14416794 -213.08541324 314.53662186 -210 310 C-205.05530134 307.57562823 -200.4505317 307.22265244 -195 307 C-193.19740164 306.77034933 -191.39620491 306.52899803 -189.59765625 306.26953125 C-188.08666391 306.11014387 -186.57494156 305.9574922 -185.0625 305.8125 C-184.27166016 305.73064453 -183.48082031 305.64878906 -182.66601562 305.56445312 C-180.77798948 305.36992922 -178.88908744 305.18393177 -177 305 C-176.90233086 304.05705235 -176.80466171 303.11410471 -176.7040329 302.14258289 C-175.98273415 297.14601455 -174.34400918 292.48902993 -172.73547363 287.71867371 C-172.39638993 286.69729933 -172.05730622 285.67592495 -171.70794725 284.62359983 C-170.57206042 281.2070205 -169.42762897 277.79336634 -168.28320312 274.37963867 C-167.46644341 271.9288507 -166.65020782 269.47788801 -165.8344574 267.02676392 C-163.84927863 261.06501075 -161.85775435 255.10539601 -159.86411655 249.14646699 C-157.54327266 242.2086461 -155.22897485 235.26864742 -152.9150036 228.3285319 C-148.78750641 215.94991438 -144.65443848 203.57316424 -140.51806641 191.19750977 C-136.50243677 179.18307944 -132.49017817 167.16753097 -128.48193359 155.15063477 C-128.23484109 154.40984274 -127.98774858 153.66905071 -127.73316842 152.90581044 C-126.74003214 149.92833022 -125.74690081 146.95084836 -124.75378051 143.97336281 C-120.93536187 132.52563329 -117.11451328 121.07871466 -113.29314998 109.63196781 C-112.13815687 106.17222738 -110.98325553 102.71245637 -109.82857704 99.25261092 C-107.19621332 91.36518407 -104.56238305 83.47825032 -101.92613411 75.59212112 C-101.12620791 73.19848037 -100.32679044 70.80466955 -99.52790642 68.41068077 C-98.44151006 65.15545427 -97.35327494 61.90084847 -96.26452637 58.64640808 C-95.94517262 57.68816248 -95.62581887 56.72991687 -95.29678774 55.74263352 C-95.00629156 54.87560282 -94.71579537 54.00857211 -94.41649628 53.11526775 C-94.16528377 52.36341881 -93.91407126 51.61156986 -93.65524626 50.83693761 C-93 49 -93 49 -92 47 C-93.30195312 47.144375 -94.60390625 47.28875 -95.9453125 47.4375 C-97.67185676 47.62516785 -99.39842029 47.81265851 -101.125 48 C-101.9809375 48.09539062 -102.836875 48.19078125 -103.71875 48.2890625 C-108.17022474 48.76845209 -112.51441925 49.11765458 -117 49 C-115.17835856 41.09242012 -112.88132821 33.57961338 -110 26 C-108.94008386 23.04044543 -107.88509331 20.07918675 -106.83203125 17.1171875 C-106 15 -106 15 -105 14 C-103.58788409 13.76042775 -102.16583584 13.57901058 -100.7421875 13.421875 C-99.8238916 13.31576904 -98.9055957 13.20966309 -97.95947266 13.1003418 C-96.94159668 12.984729 -95.9237207 12.86911621 -94.875 12.75 C-85.41518657 11.62308783 -76.02270151 10.24711855 -66.625 8.6875 C-54.56371391 6.69903648 -42.48662473 4.84525942 -30.38812256 3.09658813 C-28.51905115 2.82598761 -26.65026974 2.55337558 -24.78179932 2.27865601 C-22.14830882 1.89216046 -19.51382079 1.51336837 -16.87890625 1.13671875 C-16.09990463 1.02134766 -15.32090302 0.90597656 -14.51829529 0.78710938 C-9.62994168 0.10022781 -4.93691903 -0.10181018 0 0 Z " fill="#171E32" transform="translate(628,77)"/>
</svg>
