<?xml version="1.0" encoding="UTF-8"?>
<svg version="1.1" xmlns="http://www.w3.org/2000/svg" width="539" height="502">
<path d="M0 0 C5.18719522 1.59371752 8.89897975 4.84796723 13.0625 8.1875 C14.67063157 9.45860595 16.28005479 10.72807913 17.890625 11.99609375 C18.72658203 12.65464355 19.56253906 13.31319336 20.42382812 13.99169922 C24.6744759 17.30536758 28.99235587 20.52777942 33.3125 23.75 C39.73740068 28.54949943 46.12998598 33.38246667 52.4765625 38.28515625 C63.25529566 46.60429125 74.09563141 54.84628295 85 63 C95.63348661 70.95136131 106.17349496 79.02573979 116.72753906 87.08203125 C129.83118567 97.08408099 129.83118567 97.08408099 143 107 C153.63347513 114.95137696 164.17349473 123.02573962 174.72753906 131.08203125 C187.83118567 141.08408099 187.83118567 141.08408099 201 151 C212.60612105 159.67869087 224.10785785 168.49557472 235.62109375 177.296875 C239.19176011 180.02644269 242.76886915 182.74717969 246.3515625 185.4609375 C249.12243037 187.56055287 251.87052094 189.68080341 254.5859375 191.8515625 C255.54757812 192.60179687 256.50921875 193.35203125 257.5 194.125 C258.2734375 194.74632812 259.046875 195.36765625 259.84375 196.0078125 C262.00252727 197.26890222 262.00252727 197.26890222 264.4921875 196.4140625 C267.16521754 194.90683995 269.30517928 193.26000753 271.625 191.25 C276.62613446 187.0544174 281.7876196 183.15715725 287.0625 179.3125 C294.38608544 173.96476219 301.58654708 168.4839654 308.72753906 162.89526367 C313.6501663 159.04397439 318.61610636 155.26087155 323.62890625 151.52734375 C328.19596751 148.11599358 332.718882 144.64633797 337.25 141.1875 C343.48110402 136.43271875 349.72191351 131.69258855 356 127 C365.71766774 119.73376995 375.35507104 112.36233031 385 105 C395.27857243 97.15398624 405.55867028 89.31215984 415.91455078 81.56835938 C424.98972214 74.77391888 433.9886522 67.87869441 443 61 C453.27857243 53.15398624 463.55867028 45.31215984 473.91455078 37.56835938 C479.36076491 33.49086305 484.77678876 29.3744568 490.1875 25.25 C491.06075928 24.58540771 491.93401855 23.92081543 492.83374023 23.23608398 C497.52626091 19.66174819 502.20493642 16.07077807 506.8671875 12.45703125 C508.29768433 11.35343262 508.29768433 11.35343262 509.75708008 10.22753906 C511.59177169 8.81164443 513.42251767 7.39061852 515.2487793 5.96386719 C516.07547119 5.32739258 516.90216309 4.69091797 517.75390625 4.03515625 C518.84167358 3.19029663 518.84167358 3.19029663 519.95141602 2.32836914 C522.02216777 0.98562569 523.61837731 0.53050271 526 0 C526.88305442 7.046279 527.7547039 14.09390127 528.6184082 21.14257812 C528.91362786 23.54069005 529.21146474 25.93848128 529.51196289 28.3359375 C529.94323871 31.78044127 530.36511403 35.22598562 530.78515625 38.671875 C530.92156021 39.74491882 531.05796417 40.81796265 531.19850159 41.92352295 C531.31870163 42.92425842 531.43890167 43.9249939 531.56274414 44.95605469 C531.72595909 46.27509796 531.72595909 46.27509796 531.89247131 47.62078857 C532.000757 50.01674971 531.78519081 51.74209968 531 54 C529.53564453 55.51708984 529.53564453 55.51708984 527.6328125 56.9609375 C526.92189453 57.5075 526.21097656 58.0540625 525.47851562 58.6171875 C524.70185547 59.19726562 523.92519531 59.77734375 523.125 60.375 C522.31998047 60.98859375 521.51496094 61.6021875 520.68554688 62.234375 C514.21751704 67.14426597 507.67097564 71.94962961 501.11645508 76.74316406 C494.83670099 81.34647505 488.68210968 86.09501078 482.55200195 90.89501953 C477.80318054 94.60950078 473.01943513 98.26935144 468.1875 101.875 C462.03593026 106.46556269 455.91564792 111.09522781 449.8125 115.75 C448.48992187 116.75861084 448.48992187 116.75861084 447.140625 117.78759766 C444.42672517 119.85792958 441.71327874 121.92885418 439 124 C428.62825264 131.91713762 418.25377517 139.82834065 407.80419922 147.64257812 C400.94134983 152.78061439 394.14018866 157.99845422 387.33496094 163.21240234 C376.92227287 171.18414032 366.5024332 179.14672014 356 187 C345.38804425 194.93527337 334.86795938 202.99155651 324.33691406 211.03369141 C313.91898238 218.98867768 303.47577942 226.90669287 292.98095703 234.76000977 C288.23699886 238.31299025 283.50987678 241.88566075 278.8125 245.5 C277.80832031 246.26828125 276.80414063 247.0365625 275.76953125 247.828125 C273.94491131 249.25899762 272.14910859 250.72751852 270.38671875 252.234375 C269.59910156 252.89953125 268.81148438 253.5646875 268 254.25 C267.34 254.83265625 266.68 255.4153125 266 256.015625 C264 257 264 257 261.6640625 256.5 C258.26853941 254.58815122 255.35353392 252.23884072 252.375 249.75 C246.60313345 245.02684396 240.71518022 240.5166132 234.6875 236.125 C228.37445401 231.518217 222.14755775 226.82545152 216 222 C209.91088887 217.22231793 203.74879618 212.56682005 197.5 208 C190.48717031 202.87479984 183.6029506 197.61142184 176.76953125 192.25 C171.41776388 188.06572115 165.98454606 184.00828162 160.5 180 C153.48717031 174.87479984 146.6029506 169.61142184 139.76953125 164.25 C134.41776388 160.06572115 128.98454606 156.00828162 123.5 152 C116.48717031 146.87479984 109.6029506 141.61142184 102.76953125 136.25 C97.41776388 132.06572115 91.98454606 128.00828162 86.5 124 C79.48717031 118.87479984 72.6029506 113.61142184 65.76953125 108.25 C60.41776132 104.06571915 54.98449627 100.00835291 49.5 96 C42.42411689 90.82746506 35.46950075 85.52273891 28.56958008 80.11816406 C24.31501751 76.78944302 20.04001229 73.49443294 15.70898438 70.265625 C14.37336371 69.26423212 13.0462775 68.25134242 11.72851562 67.2265625 C8.58915456 64.80431437 5.56574345 62.70768478 2.0078125 60.9453125 C-1.75548927 58.94102413 -5.15453605 56.98178356 -7 53 C-7.8681678 45.45274681 -6.07877464 37.84574978 -4.64160156 30.46240234 C-3.63805534 25.04676594 -3.02527043 19.59210474 -2.375 14.125 C-2.13779201 12.25196682 -1.89599013 10.37950656 -1.6484375 8.5078125 C-1.54708496 7.73066895 -1.44573242 6.95352539 -1.34130859 6.15283203 C-1.00944339 4.05956498 -0.54724361 2.04649338 0 0 Z " fill="#AC8041" transform="translate(7,245)"/>
<path d="M0 0 C15.18 0 30.36 0 46 0 C45.22409221 22.44496076 44.19001545 44.87288873 43.1141758 67.30512691 C42.91729625 71.41357047 42.72130272 75.52205614 42.52528524 79.63054091 C42.06294925 89.32040842 41.59910217 99.01020276 41.13427734 108.69995117 C40.65664348 118.6572969 40.18165799 128.61476655 39.70793295 138.57229894 C39.29839853 147.17855364 38.88721147 155.78472832 38.47471476 164.39084154 C38.22950764 169.50707253 37.98491236 174.62333081 37.7419281 179.73966789 C37.51399613 184.53759038 37.28398882 189.33540909 37.05242729 194.13315773 C36.96825391 195.88417964 36.88479218 197.63523594 36.80212593 199.38632965 C36.36620553 208.61074988 35.83659792 217.80091543 35 227 C31.37 227.33 27.74 227.66 24 228 C25.918125 229.41152344 25.918125 229.41152344 27.875 230.8515625 C29.583347 232.10935644 31.29167956 233.36716999 33 234.625 C33.83917969 235.24246094 34.67835938 235.85992187 35.54296875 236.49609375 C40.71494125 240.3049107 45.86925283 244.13581647 51 248 C52.05584564 242.69135928 52.25934951 237.48296999 52.42396545 232.09121704 C52.47424972 230.60119771 52.47424972 230.60119771 52.52554983 229.08107698 C52.63680574 225.75549995 52.74233981 222.42976622 52.84790039 219.10400391 C52.92652062 216.7189014 53.00549356 214.33381049 53.08479309 211.94873047 C53.2768139 206.14634111 53.46515715 200.34384079 53.65187866 194.54127868 C53.86939183 187.78800797 54.09144005 181.03488869 54.3137676 174.28177504 C54.71011513 162.23922092 55.10288783 150.19655298 55.4934082 138.15380859 C55.87271401 126.45713211 56.25370604 114.76051256 56.63696289 103.06396484 C56.67241275 101.98204996 56.67241275 101.98204996 56.70857877 100.87827821 C56.82715314 97.25975587 56.94576063 93.64123462 57.06438458 90.0227139 C58.04805779 60.01530854 59.02526816 30.00769752 60 0 C75.18 0 90.36 0 106 0 C105.89332341 32.28733383 105.78389183 64.57465338 105.66888306 96.86195833 C105.65512326 100.72576184 105.64139471 104.58956545 105.62768555 108.45336914 C105.62495724 109.22216892 105.62222894 109.99096869 105.61941796 110.78306543 C105.58138433 121.51859505 105.54502432 132.25412915 105.51004235 142.98966913 C105.44970843 161.50484719 105.3860373 180.02001066 105.31640625 198.53515625 C105.3137032 199.25589626 105.31100016 199.97663627 105.3082152 200.71921688 C105.12974425 248.14973587 104.78016212 295.57507265 104 343 C96.32899279 338.66067766 96.32899279 338.66067766 92.87109375 335.8984375 C92.15348877 335.3310083 91.43588379 334.7635791 90.6965332 334.17895508 C89.95105225 333.5836499 89.20557129 332.98834473 88.4375 332.375 C82.97481814 328.06858301 77.49229458 323.82901417 71.8125 319.8125 C71.26376221 319.41853027 70.71502441 319.02456055 70.1496582 318.61865234 C67.08199261 316.42637297 63.97342564 314.3307187 60.80078125 312.29296875 C50.60022761 305.57739816 50.60022761 305.57739816 49.0234375 301.43359375 C48.9983182 298.75838813 49.41188679 296.61342807 50 294 C50.3847314 290.67143214 50.69580813 287.33680687 51 284 C49.96782349 284.10997314 49.96782349 284.10997314 48.91479492 284.22216797 C36.01589003 285.40913767 25.19646912 286.01708595 14.6875 277.625 C12.41810049 275.73499139 10.20344623 273.80767108 8.02197266 271.81689453 C5.62281457 269.66107052 3.10976633 267.72194446 0.52539062 265.7956543 C-1.06471242 264.60754624 -2.62114542 263.37477892 -4.17578125 262.140625 C-6.92097402 259.97304697 -6.92097402 259.97304697 -9.79296875 258.359375 C-12.43755038 256.73572489 -14.10009406 255.45468981 -16 253 C-16.40795803 250.14788818 -16.40795803 250.14788818 -16.3155365 246.68652344 C-16.2937944 245.71216402 -16.2937944 245.71216402 -16.27161306 244.71812057 C-16.20903584 242.47676528 -16.10954886 240.23954243 -16 238 C-15.94089002 236.78004585 -15.94089002 236.78004585 -15.88058591 235.53544617 C-15.5334786 228.75359339 -15.08774841 221.97886494 -14.63891602 215.203125 C-14.49234952 212.93646329 -14.34620238 210.66977444 -14.20043945 208.40306091 C-13.80606449 202.28974312 -13.40567101 196.17683342 -13.00399518 190.06399155 C-12.58355151 183.65199804 -12.16821661 177.23967338 -11.75218201 170.82739258 C-11.05353125 160.07106957 -10.3511237 149.31499816 -9.64624023 138.55908203 C-8.92185943 127.5056084 -8.20106325 116.45190849 -7.48413086 105.39794922 C-6.61796467 92.04315966 -5.74912515 78.68854809 -4.87760735 65.33410645 C-4.54540173 60.24342516 -4.21415906 55.15268258 -3.8836689 50.06188965 C-3.49469478 44.07312056 -3.10297381 38.08453721 -2.70912933 32.0960865 C-2.56509151 29.89954736 -2.42197107 27.70294784 -2.27983665 25.50628471 C-2.08564171 22.50751804 -1.88810373 19.50898961 -1.68971252 16.51049805 C-1.63426114 15.64231068 -1.57880976 14.77412331 -1.52167803 13.87962723 C-1.46743605 13.07027599 -1.41319407 12.26092476 -1.35730839 11.42704773 C-1.31212167 10.73611369 -1.26693495 10.04517965 -1.22037894 9.33330822 C-0.92534974 6.20962473 -0.44372155 3.10605086 0 0 Z " fill="#FFFFFF" transform="translate(158,0)"/>
<path d="M0 0 C15.18 0 30.36 0 46 0 C46.495 5.445 46.495 5.445 47 11 C47.62777344 10.2059375 48.25554687 9.411875 48.90234375 8.59375 C55.38064824 1.61502896 61.79309297 -0.67882163 71.22279358 -1.06671143 C73.46180443 -1.11558906 75.69799265 -1.1257302 77.9375 -1.125 C79.03939163 -1.1405896 79.03939163 -1.1405896 80.1635437 -1.15649414 C92.01735321 -1.25016234 92.01735321 -1.25016234 96.44042969 1.53881836 C98.16824172 3.26959053 99.55651473 5.03284687 101 7 C102.09763525 7.96939574 103.22208891 8.90954526 104.375 9.8125 C107.82914776 12.69095647 107.93050166 13.26194213 108.35730839 17.79454041 C108.47257519 19.48504284 108.5829573 21.17588208 108.68971252 22.86694336 C108.75182023 23.79673004 108.81392794 24.72651672 108.87791771 25.68447876 C109.08623767 28.81934223 109.28833305 31.95457651 109.49047852 35.08984375 C109.6380447 37.33006644 109.78598231 39.57026469 109.93426514 41.81044006 C110.33697402 47.91177944 110.7342131 54.01346394 111.13033032 60.11523438 C111.54535485 66.49692233 111.96475604 72.8783228 112.38352966 79.25976562 C113.08676498 89.98662029 113.78650869 100.71369716 114.48413086 111.44091797 C115.20113914 122.4662271 115.92177597 133.49129155 116.64624023 144.51611328 C117.51938925 157.80367849 118.3892306 171.0914554 119.25620842 184.37942505 C119.58716347 189.45101626 119.91938521 194.52252213 120.25262642 199.59396362 C120.64550123 205.57564333 121.03512309 211.55752643 121.42227173 217.53957939 C121.56465942 219.73175747 121.70814501 221.92386456 121.85282707 224.11589241 C122.05066661 227.11613659 122.24446185 230.11661643 122.43727112 233.1171875 C122.49495322 233.97772201 122.55263533 234.83825651 122.61206537 235.72486782 C122.76541303 238.14940538 122.88970201 240.57314514 123 243 C123.04923422 243.89440796 123.09846843 244.78881592 123.1491946 245.71032715 C123.17900075 246.5965979 123.20880689 247.48286865 123.23951626 248.39599609 C123.27237018 249.19379486 123.3052241 249.99159363 123.3390736 250.81356812 C122.77290725 254.46435117 120.42194201 256.03637569 117.56445312 258.14599609 C116.78005859 258.67531738 115.99566406 259.20463867 115.1875 259.75 C114.38376953 260.33217285 113.58003906 260.9143457 112.75195312 261.51416016 C111.0517513 262.74255927 109.34163614 263.95733817 107.62255859 265.15917969 C104.18600485 267.57135761 100.81528715 270.06752029 97.44189453 272.56689453 C95.05472527 274.33447857 92.65864107 276.08942611 90.26171875 277.84375 C85.39442994 281.42576533 80.65582479 285.1460782 76 289 C75.34 288.67 74.68 288.34 74 288 C73.90861551 286.10103816 73.90861551 286.10103816 73.81538486 284.16371346 C72.37021233 254.13733035 70.92041033 224.1111747 69.46487809 194.08529217 C69.28587734 190.39263784 69.10691581 186.69998162 68.92797852 183.00732422 C68.89235345 182.27215761 68.85672838 181.53699099 68.82002377 180.7795466 C68.24266984 168.86320977 67.66849531 156.94672176 67.0954879 145.03017522 C66.50781223 132.81004949 65.91673808 120.59009158 65.32248396 108.37028396 C64.95566732 100.82511139 64.59152776 93.27981927 64.23077118 85.73435448 C63.95423588 79.95637531 63.67298107 74.1786335 63.389925 68.40097046 C63.27427226 66.02497751 63.16017573 63.64890825 63.04771042 61.2727623 C62.89454385 58.04149781 62.73590293 54.8105485 62.57582092 51.57962036 C62.53204238 50.62827276 62.48826385 49.67692517 62.44315869 48.69674885 C62.39936689 47.83585144 62.3555751 46.97495404 62.31045628 46.08796883 C62.27438284 45.34143866 62.23830941 44.59490849 62.20114285 43.82575619 C62.09609632 41.90337766 62.09609632 41.90337766 61 40 C59.48019531 41.22976562 59.48019531 41.22976562 57.9296875 42.484375 C56.57823101 43.57304828 55.22666256 44.66158258 53.875 45.75 C53.20984375 46.28882813 52.5446875 46.82765625 51.859375 47.3828125 C48.01996102 50.46940021 44.1464058 53.33906668 40 56 C42.64 56.33 45.28 56.66 48 57 C49.00987139 62.12834085 49.23966211 67.12820202 49.38600159 72.33450317 C49.41544088 73.26629642 49.44488017 74.19808967 49.47521156 75.15811908 C49.5727206 78.27604189 49.66440375 81.39410837 49.75610352 84.51220703 C49.8248706 86.7497614 49.89399157 88.98730493 49.96343994 91.22483826 C50.15098962 97.30143179 50.33344432 103.37816875 50.51489758 109.45494699 C50.70570675 115.81956501 50.90085327 122.18405014 51.09544373 128.54855347 C51.42178271 139.24322428 51.74501325 149.93798494 52.06616211 160.6328125 C52.396002 171.61694958 52.7285646 182.60099967 53.06420898 193.58496094 C53.09517835 194.59845215 53.09517835 194.59845215 53.12677336 195.63241793 C53.14738548 196.30694911 53.16799759 196.98148029 53.18923432 197.6764518 C53.59133714 210.83579113 53.99061059 223.99521544 54.38897967 237.15466833 C54.50368591 240.93804494 54.61888867 244.72140616 54.7341938 248.50476456 C54.91569936 254.46530395 55.0953081 260.4258977 55.27348328 266.38653755 C55.3389717 268.56814878 55.40506696 270.74974189 55.47183037 272.93131447 C55.64291576 278.52860803 55.80090294 284.12584582 55.93701673 289.72410059 C55.99407752 291.78599145 56.07661289 293.84713839 56.16209221 295.90804672 C56.19419855 296.98091053 56.22630489 298.05377434 56.25938416 299.15914917 C56.29460647 300.02836439 56.32982878 300.89757961 56.36611843 301.79313469 C55.88018726 304.72219958 54.67213445 305.80576732 52.4765625 307.7421875 C50.88566218 308.82608471 49.2660796 309.86869252 47.625 310.875 C45.87040666 312.05303225 44.11785023 313.23410315 42.3671875 314.41796875 C41.4709668 315.00755371 40.57474609 315.59713867 39.65136719 316.20458984 C35.52477912 318.99896633 31.6479584 322.08617353 27.75 325.1875 C22.05220078 329.65459462 16.3193162 334.06709346 10.5 338.375 C9.55592285 339.08112427 9.55592285 339.08112427 8.59277344 339.80151367 C4.23733606 343 4.23733606 343 2 343 C1.34 229.81 0.68 116.62 0 0 Z " fill="#FFFFFF" transform="translate(275,0)"/>
<path d="M0 0 C42.9 0 85.8 0 130 0 C130 15.90769231 130 15.90769231 129.5625 22.1875 C129.48128906 23.41855469 129.40007812 24.64960938 129.31640625 25.91796875 C129 29 129 29 128 32 C105.23 32.33 82.46 32.66 59 33 C61.31 35.97 63.62 38.94 66 42 C66.41680025 46.06520792 66.43900022 49.02838978 66 53 C65.86134868 54.63095328 65.86134868 54.63095328 65.71989632 56.29485512 C65.37846355 60.05467824 64.96935957 63.80457402 64.54711914 67.5559082 C64.3906019 68.98614565 64.23460592 70.41644023 64.0790863 71.8467865 C63.65880183 75.6982624 63.23118096 79.54889069 62.80206609 83.39939141 C62.35266412 87.44266435 61.90982398 91.48665629 61.46617126 95.53056335 C60.72108123 102.31354267 59.97157325 109.09602154 59.21899414 115.87817383 C58.25402521 124.57452816 57.29613516 133.27164672 56.34055424 141.96903706 C55.51689088 149.46548728 54.69027612 156.9616116 53.86303782 164.45766807 C53.59807376 166.85949662 53.33345718 169.26136328 53.06886482 171.6632328 C52.65278013 175.43833412 52.23485997 179.2132281 51.81553078 182.98797035 C51.66218444 184.37058268 51.50939515 185.75325692 51.35721207 187.13599777 C51.14892921 189.02742744 50.93835525 190.91860439 50.72767639 192.80976868 C50.61060868 193.86660512 50.49354097 194.92344156 50.37292576 196.01230335 C49.99681825 199.0254906 49.52031334 202.00863416 49 205 C46.36 205.33 43.72 205.66 41 206 C43.72583431 208.10851169 46.45624353 210.21101812 49.1875 212.3125 C50.34088867 213.20485352 50.34088867 213.20485352 51.51757812 214.11523438 C55.2361434 216.97198624 58.88924366 219.71807714 63 222 C64.29269096 219.41461807 64.37139658 217.21500092 64.65174866 214.33065796 C64.77092148 213.1246846 64.8900943 211.91871124 65.01287842 210.67619324 C65.14155299 209.33280123 65.2701515 207.98940193 65.39868164 206.64599609 C65.53641633 205.23681853 65.67450148 203.82767519 65.81291199 202.41856384 C66.18831028 198.58650104 66.55878488 194.75397613 66.92840123 190.92135191 C67.31526796 186.91853327 67.70662797 182.9161541 68.09751892 178.91372681 C68.8373283 171.33154275 69.57307473 163.74897014 70.30737537 156.16625082 C71.14342608 147.53486596 71.98398528 138.90392205 72.82493031 130.27301288 C74.55498354 112.515829 76.279192 94.75808203 78 77 C84.27 77 90.54 77 97 77 C96.09378906 75.83984375 95.18757813 74.6796875 94.25390625 73.484375 C82.85749162 58.8763574 82.85749162 58.8763574 77.625 51.9375 C76.91601562 50.99777344 76.20703125 50.05804688 75.4765625 49.08984375 C74 47 74 47 74 46 C91.49 46 108.98 46 127 46 C125.85132498 71.27085053 125.85132498 71.27085053 125.23435974 79.90878296 C125.12894752 81.43155914 125.12894752 81.43155914 125.02140576 82.98509848 C124.79207946 86.28891074 124.55903864 89.5924489 124.32592773 92.89599609 C124.15806648 95.30313555 123.99044044 97.71029141 123.82302856 100.11746216 C123.37299559 106.57893068 122.91972028 113.04016793 122.46581149 119.50136518 C122.03820103 125.59181159 121.61359723 131.68246796 121.18870366 137.77310438 C120.34834235 149.81812052 119.50562474 161.86297054 118.66137695 173.90771484 C117.84240886 185.59187177 117.02458058 197.27610758 116.20825195 208.96044922 C116.13247765 210.04501973 116.13247765 210.04501973 116.05517256 211.15150075 C115.80169562 214.77965889 115.54824074 218.40781858 115.29479682 222.03597903 C113.19994946 252.02422553 111.10121766 282.01219914 109 312 C105.83732235 310.7720594 103.20714069 309.61778252 100.53125 307.5234375 C99.88889404 307.02602051 99.24653809 306.52860352 98.5847168 306.01611328 C97.55278198 305.20376221 97.55278198 305.20376221 96.5 304.375 C94.97554866 303.19233669 93.45079534 302.01006256 91.92578125 300.828125 C91.12350098 300.20357422 90.3212207 299.57902344 89.49462891 298.93554688 C85.24577001 295.63891805 80.9662975 292.3826171 76.6875 289.125 C75.80666748 288.45339844 74.92583496 287.78179687 74.01831055 287.08984375 C67.97355249 282.48599052 61.89958081 277.92268278 55.8125 273.375 C48.64533858 268.01909539 41.55733799 262.57173565 34.50927734 257.06030273 C29.69135204 253.29852887 24.83437852 249.59580253 19.9375 245.9375 C19.2983667 245.45764648 18.6592334 244.97779297 18.00073242 244.48339844 C14.43752142 241.8102079 10.85660415 239.1641835 7.2578125 236.5390625 C5.69246301 235.38053973 4.12735312 234.22169314 2.5625 233.0625 C1.82185303 232.53068115 1.08120605 231.9988623 0.31811523 231.45092773 C-0.70366821 230.68824585 -0.70366821 230.68824585 -1.74609375 229.91015625 C-2.35122803 229.46808838 -2.9563623 229.02602051 -3.57983398 228.57055664 C-5.54098566 226.40172584 -5.63582013 224.91141067 -6 222 C-5.81446509 219.34927031 -5.55667153 216.77899756 -5.2091217 214.15003967 C-5.11197087 213.36595889 -5.01482004 212.58187811 -4.91472524 211.7740373 C-4.58754109 209.14920641 -4.24894645 206.52597567 -3.91040039 203.90258789 C-3.67339953 202.02007169 -3.43711454 200.13746525 -3.20149231 198.254776 C-2.69267617 194.20161895 -2.17880926 190.14914554 -1.66102791 186.0971241 C-0.84236499 179.69013732 -0.03497331 173.2817612 0.77088928 166.87315369 C2.04688958 156.7365588 3.3304138 146.60093318 4.61716324 136.46569771 C6.92121181 118.31676166 9.21543995 100.16658624 11.50253874 82.01550668 C12.30558871 75.64497794 13.11287532 69.2750044 13.9235934 62.90544713 C14.42732445 58.94266532 14.92806332 54.97950936 15.42807198 51.01625633 C15.66057091 49.17867683 15.8943589 47.34125989 16.12953186 45.50402069 C16.45048478 42.99541373 16.76685713 40.48626915 17.08213806 37.97694397 C17.17620294 37.25076954 17.27026782 36.52459512 17.36718315 35.77641541 C18.55470597 28.58853148 18.55470597 28.58853148 16.77832031 21.83764648 C16.21725586 21.18868408 15.65619141 20.53972168 15.078125 19.87109375 C14.46453125 19.14599609 13.8509375 18.42089844 13.21875 17.67382812 C12.5690625 16.93583984 11.919375 16.19785156 11.25 15.4375 C9.98435147 13.95705136 8.71872588 12.47658312 7.453125 10.99609375 C6.85564453 10.30499512 6.25816406 9.61389648 5.64257812 8.90185547 C0 2.3686088 0 2.3686088 0 0 Z " fill="#FFFFFF" transform="translate(15,0)"/>
<path d="M0 0 C42.9 0 85.8 0 130 0 C128.45262583 3.09474834 127.11401634 5.31121882 125.0234375 7.9765625 C124.43433594 8.73066406 123.84523438 9.48476562 123.23828125 10.26171875 C122.62339844 11.04160156 122.00851562 11.82148438 121.375 12.625 C120.78332031 13.38167969 120.19164062 14.13835938 119.58203125 14.91796875 C118.39589687 16.43201933 117.19749088 17.93655287 115.98580933 19.43023682 C113.97265593 21.94953065 113.97265593 21.94953065 112.35501099 24.61932373 C109.72544968 28.55524658 107.70612471 31.49413336 103.04818726 32.87521362 C99.50181636 33.15631974 96.08559552 33.12602606 92.53125 32.9765625 C90.61717346 32.95533829 90.61717346 32.95533829 88.66442871 32.9336853 C85.29468593 32.88736076 81.93190516 32.79783099 78.56408691 32.68664551 C75.11885303 32.58375101 71.67289479 32.53855207 68.2265625 32.48828125 C61.48222594 32.37829786 54.74206365 32.2058597 48 32 C48.495 38.93 48.495 38.93 49 46 C51.26073364 45.9057373 51.26073364 45.9057373 53.56713867 45.80957031 C59.21143538 45.59076097 64.85536631 45.45404599 70.50268555 45.34082031 C72.93659695 45.28083124 75.37008244 45.19920494 77.80249023 45.09472656 C100.21961835 44.15665597 100.21961835 44.15665597 107.38191223 50.29754639 C109.79133264 52.73289586 111.89714283 55.2954519 114 58 C114.66 58.33 115.32 58.66 116 59 C116.56123638 61.65471268 116.56123638 61.65471268 117.0065155 65.27471924 C117.09060097 65.93766487 117.17468643 66.6006105 117.26131994 67.28364539 C117.54268141 69.52044717 117.81070335 71.7586496 118.07885742 73.99707031 C118.27704417 75.59509214 118.47602205 77.19301603 118.67573547 78.79084778 C119.21723119 83.14325966 119.74699071 87.49702779 120.27430129 91.85117817 C120.82695888 96.40195099 121.38881294 100.95158934 121.94929504 105.50140381 C122.88967097 113.14744224 123.82240345 120.79438473 124.75073242 128.44189453 C125.8242479 137.28460808 126.91001748 146.12575142 128.00236243 154.9661572 C129.05192551 163.46284425 130.09251481 171.9606076 131.12911415 180.45888519 C131.57073642 184.07795739 132.01555273 187.69661589 132.46294212 191.31497955 C132.98975734 195.57890141 133.50872699 199.84370697 134.02166557 204.10931969 C134.2112144 205.67496354 134.40346535 207.24028297 134.59861374 208.80523872 C134.864586 210.94179279 135.12073571 213.07930524 135.37443542 215.21734619 C135.52024646 216.41345646 135.66605749 217.60956673 135.81628704 218.84192276 C135.99062527 221.83884583 135.83013742 224.12649361 135 227 C133.56738281 228.59887695 133.56738281 228.59887695 131.703125 229.98828125 C131.00268066 230.52122803 130.30223633 231.0541748 129.58056641 231.60327148 C128.81147949 232.16731689 128.04239258 232.7313623 127.25 233.3125 C126.44868652 233.91715088 125.64737305 234.52180176 124.82177734 235.14477539 C123.10421007 236.43998734 121.38254626 237.72978141 119.65722656 239.01464844 C117.03570405 240.97332365 114.4330546 242.95441902 111.8359375 244.9453125 C102.37977172 252.19376466 92.86181565 259.35698529 83.31787109 266.48925781 C77.74760514 270.66227777 72.23370884 274.90150506 66.75 279.1875 C59.2927806 285.0147704 51.76967152 290.74274876 44.17138672 296.38476562 C41.72584979 298.20393274 39.28704622 300.03197471 36.84765625 301.859375 C35.10705399 303.15663002 33.36617291 304.45351101 31.625 305.75 C30.38375366 306.68199219 30.38375366 306.68199219 29.11743164 307.6328125 C27.96488892 308.48746094 27.96488892 308.48746094 26.7890625 309.359375 C25.76353271 310.12459473 25.76353271 310.12459473 24.71728516 310.90527344 C23 312 23 312 21 312 C19.04341667 283.48054381 17.08760788 254.9610346 15.13272858 226.44146156 C14.2250861 213.20020679 13.31718737 199.95896968 12.40869141 186.71777344 C11.61711696 175.18068186 10.82601717 163.64355785 10.03549433 152.10639417 C9.61666005 145.99402772 9.19758337 139.8816781 8.77793884 133.76936722 C8.38337984 128.02232873 7.98945301 122.27524727 7.59602165 116.52813148 C7.45113096 114.41327996 7.30600465 112.29844457 7.16063118 110.18362617 C6.96294767 107.30732522 6.7660941 104.43096867 6.56945801 101.55459595 C6.51109378 100.70830395 6.45272956 99.86201196 6.39259672 98.99007475 C6 93.22824242 6 93.22824242 6 91 C21.84 91 37.68 91 54 91 C58.29 134.56 62.58 178.12 67 223 C72.94 218.38 78.88 213.76 85 209 C86.32 208.01 87.64 207.02 89 206 C86.69 205.67 84.38 205.34 82 205 C79.9360148 192.93891071 78.70307094 180.79009413 77.3984375 168.62890625 C77.15483847 166.37497705 76.91107136 164.12106601 76.66714478 161.86717224 C76.15930062 157.16824606 75.65359683 152.4690958 75.14941406 147.76977539 C74.50354183 141.75161082 73.85209382 135.73406489 73.19904137 129.71667576 C72.69575034 125.07324176 72.19548448 120.42948566 71.69612503 115.78562737 C71.45705973 113.56598578 71.21703484 111.34644732 70.97602463 109.12701607 C70.64026967 106.03104506 70.30861502 102.93466122 69.97802734 99.83813477 C69.87831131 98.92635468 69.77859528 98.01457458 69.67585754 97.07516479 C68.3866764 84.88712879 68.3866764 84.88712879 70.3125 82.1015625 C72.65625 80.05078125 72.65625 80.05078125 75 78 C74.33982376 78.01411926 73.67964752 78.02823853 72.99946594 78.04278564 C66.07094348 78.17893589 59.1454072 78.22930949 52.21557617 78.23193359 C49.6366098 78.24387101 47.05764467 78.27701364 44.47924805 78.33251953 C20.71479739 78.81985398 20.71479739 78.81985398 13.56474304 72.76605225 C11.13046294 70.31713349 9.06468503 67.77111756 7 65 C6.47543213 64.56125046 5.95086426 64.12250092 5.41040039 63.67045593 C3.41104779 61.30245431 3.48772201 59.46960589 3.29223633 56.39868164 C3.21237991 55.25061539 3.1325235 54.10254913 3.05024719 52.91969299 C2.97823593 51.67904587 2.90622467 50.43839874 2.83203125 49.16015625 C2.74749191 47.88651718 2.66295258 46.61287811 2.57585144 45.30064392 C2.35379664 41.9144216 2.14395288 38.52787974 1.9397583 35.14056396 C1.72908821 31.70042753 1.50118856 28.26143582 1.27539062 24.82226562 C0.94943308 19.7921861 0.62725282 14.76194668 0.31958008 9.73071289 C0.22656364 8.21206383 0.22656364 8.21206383 0.13166809 6.66273499 C0.02196008 4.44410049 0 2.22134529 0 0 Z " fill="#FFFFFF" transform="translate(394,0)"/>
<path d="M0 0 C2.82749964 1.33441371 5.29610568 2.83769351 7.80859375 4.6953125 C8.54456787 5.23792725 9.28054199 5.78054199 10.03881836 6.33959961 C10.8303833 6.92878174 11.62194824 7.51796387 12.4375 8.125 C13.27224854 8.74318604 14.10699707 9.36137207 14.96704102 9.99829102 C22.05314677 15.26133322 29.07773988 20.60396713 36.08959961 25.96533203 C42.03506985 30.51035744 48.00667784 35.01829407 54 39.5 C60.88465926 44.64823288 67.73367652 49.84045851 74.5625 55.0625 C81.91883893 60.68538646 89.33325866 66.21919065 96.80541992 71.68701172 C103.96874132 76.94246854 111.02684983 82.33230922 118.06054688 87.75976562 C118.89392578 88.39978516 119.72730469 89.03980469 120.5859375 89.69921875 C121.3186084 90.26471436 122.0512793 90.83020996 122.80615234 91.4128418 C125.12831397 93.09282986 127.5234868 94.55949029 130 96 C139.43238168 89.12544529 148.81719779 82.20584947 158 75 C164.86780881 69.61150425 171.84702088 64.40054591 178.89453125 59.25 C184.33797943 55.25873194 189.68967632 51.16641858 195 47 C201.08923097 42.22245976 207.2512551 37.56690525 213.5 33 C219.80828263 28.38858799 226.03325086 23.69012704 232.1875 18.875 C233.6613783 17.72515782 235.1353359 16.57541729 236.609375 15.42578125 C238.83820874 13.68743036 241.06621896 11.9481059 243.29101562 10.20458984 C245.4986218 8.48007426 247.71653732 6.769762 249.9375 5.0625 C250.60612061 4.53575684 251.27474121 4.00901367 251.96362305 3.46630859 C253.58401215 2.23030066 255.28658735 1.10344622 257 0 C257.99 0.33 258.98 0.66 260 1 C260.43007333 7.29863824 260.85698923 13.59748486 261.28173828 19.89648438 C261.42652319 22.03813493 261.57202376 24.17973723 261.71826172 26.32128906 C261.92865344 29.40417187 262.13644854 32.48722054 262.34375 35.5703125 C262.40937134 36.52366486 262.47499268 37.47701721 262.54260254 38.45925903 C263.412983 51.50839868 263.412983 51.50839868 261.296875 54.02734375 C260.03617187 54.97287109 260.03617187 54.97287109 258.75 55.9375 C257.75226563 56.700625 256.75453125 57.46375 255.7265625 58.25 C254.48451885 59.16686157 253.24231581 60.08350723 252 61 C250.42336978 62.18602668 248.84792952 63.37363625 247.2734375 64.5625 C243.80523714 67.17623554 240.32940548 69.77934313 236.84765625 72.375 C232.03623722 75.96574934 227.27454547 79.61495588 222.5234375 83.28515625 C211.74470434 91.60429125 200.90436859 99.84628295 190 108 C181.20852829 114.57396494 172.48440785 121.2356485 163.75830078 127.89599609 C160.94322424 130.04330798 158.12621157 132.18805523 155.30859375 134.33203125 C154.37748779 135.04069336 153.44638184 135.74935547 152.48706055 136.47949219 C150.72183219 137.82289852 148.9563862 139.16601896 147.19067383 140.50878906 C141.76681048 144.6382785 136.37276274 148.80424339 131 153 C128.13320326 151.64913667 125.63519778 150.11382476 123.0859375 148.234375 C121.95865234 147.40486328 121.95865234 147.40486328 120.80859375 146.55859375 C119.60396484 145.66333984 119.60396484 145.66333984 118.375 144.75 C117.53324219 144.12738281 116.69148438 143.50476563 115.82421875 142.86328125 C109.39749183 138.08886678 103.07175262 133.19419664 96.77294922 128.25292969 C91.42029169 124.06734038 85.9857284 120.00921054 80.5 116 C73.32356011 110.75446061 66.27091958 105.37217564 59.27075195 99.89404297 C54.34879987 96.0430235 49.38333235 92.2604535 44.37109375 88.52734375 C39.80403141 85.11599277 35.28117976 81.64625889 30.75 78.1875 C24.2234552 73.2089364 17.68967635 68.240712 11.125 63.3125 C10.50206055 62.84416748 9.87912109 62.37583496 9.23730469 61.89331055 C8.64594727 61.45027588 8.05458984 61.00724121 7.4453125 60.55078125 C6.88231445 60.11588379 6.31931641 59.68098633 5.73925781 59.23291016 C4.01177121 57.94531989 4.01177121 57.94531989 2.00292969 56.98193359 C-0.10964738 55.82822296 -1.49187214 54.88277798 -3 53 C-3.88029451 48.98074904 -3.36120973 45.07087522 -3 41 C-2.89333346 39.39543051 -2.79075165 37.79058628 -2.69140625 36.18554688 C-2.34108641 30.70324564 -1.92277132 25.22711118 -1.5 19.75 C-1.35505955 17.82945792 -1.21052507 15.90888516 -1.06640625 13.98828125 C-0.71561594 9.32515397 -0.35933814 4.66247605 0 0 Z " fill="#9F743E" transform="translate(140,271)"/>
</svg>
