<?xml version="1.0" encoding="UTF-8"?>
<svg version="1.1" xmlns="http://www.w3.org/2000/svg" width="900" height="1152">
<path d="M0 0 C1.16595703 -0.02416992 1.16595703 -0.02416992 2.35546875 -0.04882812 C8.54885038 -0.05403265 13.4071732 0.860208 18.1640625 5.15234375 C22.7016156 11.15398418 25.51847408 17.27664119 28.125 24.3125 C34.97682767 42.7657177 42.90682953 60.91341235 52.125 78.3125 C52.72731445 79.45332031 52.72731445 79.45332031 53.34179688 80.6171875 C62.047453 97.00738519 71.73804811 112.68820864 82.38476562 127.88769531 C91.75688498 141.2815947 91.75688498 141.2815947 92.125 146.3125 C92.20041016 147.29669922 92.20041016 147.29669922 92.27734375 148.30078125 C92.56095714 154.86926736 91.5245026 161.33380711 87.3125 166.5625 C86.920625 167.14 86.52875 167.7175 86.125 168.3125 C87.00825333 171.06144887 88.17853176 173.40430835 89.6328125 175.8984375 C94.33485922 184.00776445 95.2196976 191.02862228 94.125 200.3125 C93.7434375 201.36695313 93.361875 202.42140625 92.96875 203.5078125 C91.82632293 206.20170056 91.82632293 206.20170056 92.9765625 208.234375 C93.35554687 208.92015625 93.73453125 209.6059375 94.125 210.3125 C94.94356213 218.57426659 95.14152425 226.36521728 90.125 233.3125 C89.485625 234.240625 88.84625 235.16875 88.1875 236.125 C86.01778647 238.42621132 83.91217705 239.84148989 81.125 241.3125 C81.455 242.3025 81.785 243.2925 82.125 244.3125 C82.785 244.3125 83.445 244.3125 84.125 244.3125 C87.7293679 249.15019272 90.80198799 254.17527186 91.125 260.3125 C91.68703125 260.39886719 92.2490625 260.48523438 92.828125 260.57421875 C99.46391973 261.68357707 105.9741475 263.19168843 112.5 264.8125 C113.36786133 265.02608154 114.23572266 265.23966309 115.12988281 265.4597168 C119.27363827 266.50288594 123.17319274 267.66889119 127.125 269.3125 C128.51354536 269.63709502 129.91002874 269.92963474 131.3125 270.1875 C135.64287696 271.09802628 139.51717291 272.60273008 143.58984375 274.30859375 C146.07817384 275.29395713 148.55315303 276.07596167 151.125 276.8125 C155.35560341 278.03628263 159.38141786 279.54377084 163.44921875 281.2265625 C165.31385153 281.98330398 167.19304244 282.70472694 169.08203125 283.3984375 C177.39519188 286.45308839 185.17919836 290.20604879 193.04150391 294.24658203 C196.55623796 296.04472228 200.09159484 297.80141922 203.625 299.5625 C205.49985127 300.49956825 207.37442326 301.43718632 209.24853516 302.37573242 C210.54354152 303.02222467 211.8401992 303.66541602 213.13818359 304.3059082 C227.83056554 311.57830343 241.75411368 320.31269639 255.0390625 329.90234375 C257.00950634 331.23442282 258.97365424 332.3049693 261.125 333.3125 C261.125 333.9725 261.125 334.6325 261.125 335.3125 C261.81980469 335.54324219 262.51460937 335.77398437 263.23046875 336.01171875 C266.72065849 337.58018458 269.48995636 339.73228314 272.4375 342.125 C273.03127441 342.6005835 273.62504883 343.07616699 274.23681641 343.56616211 C275.51794858 344.59415532 276.7968427 345.6249426 278.07373047 346.65820312 C280.23877629 348.4042577 282.41733457 350.13244347 284.59765625 351.859375 C286.06554976 353.0306918 287.5330067 354.20255594 289 355.375 C289.70809814 355.93485596 290.41619629 356.49471191 291.14575195 357.0715332 C292.12161255 357.85790161 292.12161255 357.85790161 293.1171875 358.66015625 C293.69839355 359.12429932 294.27959961 359.58844238 294.87841797 360.06665039 C295.49547607 360.68334595 295.49547607 360.68334595 296.125 361.3125 C296.125 361.9725 296.125 362.6325 296.125 363.3125 C297.0221875 363.745625 297.0221875 363.745625 297.9375 364.1875 C300.125 365.3125 300.125 365.3125 303.125 367.3125 C303.125 367.9725 303.125 368.6325 303.125 369.3125 C303.65262939 369.51560791 304.18025879 369.71871582 304.72387695 369.92797852 C308.18543906 371.92396415 310.73911891 374.64160529 313.54296875 377.46484375 C314.1596492 378.07961075 314.77632965 378.69437775 315.41169739 379.32777405 C316.71776284 380.63247931 318.02130916 381.93971049 319.32250977 383.24926758 C321.28125263 385.21858396 323.25025071 387.17717421 325.22070312 389.13476562 C331.60119096 395.50882738 337.71264227 401.91210368 343.29248047 409.00854492 C345.13240851 411.32181443 347.06666786 413.50822545 349.0625 415.6875 C351.47629432 418.40301861 353.12343541 420.75138147 354.125 424.3125 C354.785 424.3125 355.445 424.3125 356.125 424.3125 C357.6328125 425.9921875 357.6328125 425.9921875 359.25 428.1875 C359.78882813 428.90679687 360.32765625 429.62609375 360.8828125 430.3671875 C362.125 432.3125 362.125 432.3125 362.125 434.3125 C362.785 434.3125 363.445 434.3125 364.125 434.3125 C364.785 436.2925 365.445 438.2725 366.125 440.3125 C366.785 440.3125 367.445 440.3125 368.125 440.3125 C369.66201507 442.34210814 371.05829579 444.36520111 372.4375 446.5 C372.87263916 447.16491455 373.30777832 447.8298291 373.75610352 448.51489258 C375.22449022 450.77321623 376.67693332 453.04109599 378.125 455.3125 C378.64094727 456.12074219 379.15689453 456.92898438 379.68847656 457.76171875 C394.48799131 481.05808729 408.61880697 505.38500263 417.7109375 531.546875 C418.81275367 534.63979694 420.15409864 537.58016202 421.54296875 540.5546875 C424.11954115 546.1516072 426.15586255 551.83296146 428.0625 557.6875 C428.40240967 558.72116699 428.74231934 559.75483398 429.0925293 560.81982422 C433.8631109 575.47528377 438.16318064 590.17792854 441.125 605.3125 C441.44393294 606.85705634 441.76434806 608.40130708 442.0859375 609.9453125 C448.11404718 639.08973863 450.49159507 667.7231049 450.44067383 697.47290039 C450.43605843 700.39525818 450.44292696 703.31719806 450.46118164 706.23950195 C450.78399972 758.4913209 443.13332323 811.73638079 423.125 860.3125 C422.50246742 861.88433388 421.88265927 863.4572496 421.265625 865.03125 C414.72761395 881.60462728 407.73519297 897.70652525 399.125 913.3125 C398.58875 914.31023438 398.0525 915.30796875 397.5 916.3359375 C394.65680382 921.6225054 391.67088792 926.79425784 388.55078125 931.921875 C387.22229172 934.14936977 385.97819588 936.40363074 384.75 938.6875 C381.56087361 944.46213264 377.86635764 949.88544295 374.125 955.3125 C373.67705078 955.9631543 373.22910156 956.61380859 372.76757812 957.28417969 C363.52704603 970.65599446 353.76254403 983.43019961 343.09570312 995.69604492 C341.10758903 997.98257845 339.17224021 1000.24657843 337.40625 1002.7109375 C336.9834375 1003.23945312 336.560625 1003.76796875 336.125 1004.3125 C335.465 1004.3125 334.805 1004.3125 334.125 1004.3125 C333.8671875 1004.88484375 333.609375 1005.4571875 333.34375 1006.046875 C332.01134058 1008.52378995 330.47443882 1010.4466166 328.625 1012.5625 C328.0165625 1013.26890625 327.408125 1013.9753125 326.78125 1014.703125 C325.125 1016.3125 325.125 1016.3125 323.125 1016.3125 C322.856875 1016.910625 322.58875 1017.50875 322.3125 1018.125 C321.12582594 1020.31097854 320.02900887 1021.72582594 318.125 1023.3125 C317.465 1023.3125 316.805 1023.3125 316.125 1023.3125 C316.125 1023.9725 316.125 1024.6325 316.125 1025.3125 C314.65625 1026.7578125 314.65625 1026.7578125 312.625 1028.4375 C309.70875911 1030.90940996 306.96829692 1033.43822783 304.3125 1036.1875 C299.60952137 1040.95592764 294.54345858 1045.37180285 289.125 1049.3125 C288.465 1049.3125 287.805 1049.3125 287.125 1049.3125 C287.125 1049.9725 287.125 1050.6325 287.125 1051.3125 C285.39287969 1052.82121963 283.58383593 1054.24169907 281.75 1055.625 C281.17491699 1056.05941406 280.59983398 1056.49382812 280.00732422 1056.94140625 C278.05404876 1058.40881024 276.09122763 1059.86250022 274.125 1061.3125 C273.41859375 1061.83376465 272.7121875 1062.3550293 271.984375 1062.89208984 C251.00894836 1078.31218962 229.3252735 1092.44288077 206.125 1104.3125 C205.18309814 1104.79879883 205.18309814 1104.79879883 204.22216797 1105.29492188 C190.25944524 1112.48837079 176.08091602 1119.1257591 161.21484375 1124.234375 C158.49690611 1125.18273251 155.84649433 1126.21222648 153.1875 1127.3125 C135.5374459 1134.45248952 116.78533142 1139.6567623 98.125 1143.3125 C96.59213768 1143.63132453 95.05960714 1143.95174684 93.52734375 1144.2734375 C64.13021907 1150.39156199 35.11665357 1152.6776577 5.13061523 1152.62817383 C2.09758616 1152.6235571 -0.93504042 1152.63042894 -3.96801758 1152.64868164 C-29.7494175 1152.80214099 -55.14163717 1151.50604823 -80.5625 1146.8125 C-81.71814453 1146.61269531 -82.87378906 1146.41289063 -84.06445312 1146.20703125 C-90.3091761 1145.09607204 -96.4014687 1143.73324878 -102.49731445 1141.97851562 C-104.77829343 1141.33958856 -107.05853882 1140.80515583 -109.375 1140.3125 C-128.14519161 1136.23631128 -147.79485439 1130.70561419 -165.17578125 1122.5234375 C-167.79431244 1121.34869847 -170.41352833 1120.37469996 -173.125 1119.4375 C-185.43672723 1115.0553598 -196.93165142 1108.78397256 -208.4375 1102.65234375 C-211.94237304 1100.78982585 -215.48345516 1099.02907993 -219.0625 1097.3125 C-234.88478853 1089.46746558 -249.65911169 1078.812923 -264.01953125 1068.58984375 C-265.84616701 1067.26907684 -265.84616701 1067.26907684 -267.875 1066.3125 C-267.875 1065.6525 -267.875 1064.9925 -267.875 1064.3125 C-268.75768555 1063.89278931 -268.75768555 1063.89278931 -269.65820312 1063.46459961 C-273.16827328 1061.64036821 -276.218068 1059.24605268 -279.375 1056.875 C-280.08333984 1056.34366455 -280.79167969 1055.8123291 -281.52148438 1055.26489258 C-287.06292169 1051.04947774 -292.2037634 1046.54800425 -297.265625 1041.7734375 C-299.50669359 1039.65985485 -301.78612917 1037.62845137 -304.125 1035.625 C-308.24552934 1032.05273236 -312.0553302 1028.20078663 -315.875 1024.3125 C-318.63404757 1021.53947077 -321.41036346 1018.78576077 -324.20703125 1016.05078125 C-325.36724929 1014.90891694 -326.52740471 1013.76698901 -327.6875 1012.625 C-328.28498047 1012.04427734 -328.88246094 1011.46355469 -329.49804688 1010.86523438 C-330.99514673 1009.38524424 -332.43988731 1007.85267218 -333.875 1006.3125 C-333.875 1005.6525 -333.875 1004.9925 -333.875 1004.3125 C-334.535 1004.3125 -335.195 1004.3125 -335.875 1004.3125 C-337.46033702 1002.59917246 -338.97041215 1000.81560953 -340.4375 999 C-341.24316406 998.01386719 -342.04882812 997.02773438 -342.87890625 996.01171875 C-344.875 993.3125 -344.875 993.3125 -345.875 990.3125 C-346.535 990.3125 -347.195 990.3125 -347.875 990.3125 C-349.16845703 988.92651367 -349.16845703 988.92651367 -350.6328125 986.98046875 C-351.17220459 986.26947021 -351.71159668 985.55847168 -352.26733398 984.82592773 C-352.83911377 984.05837158 -353.41089355 983.29081543 -354 982.5 C-354.58531494 981.72406494 -355.17062988 980.94812988 -355.77368164 980.14868164 C-359.62612126 975.02786602 -363.42842957 969.87183275 -367.16796875 964.66796875 C-369.20700092 961.85438431 -371.31644215 959.09935654 -373.453125 956.359375 C-375.05597062 954.05198185 -376.41865565 951.63826143 -377.79492188 949.19091797 C-379.21539956 946.72049407 -380.74179038 944.32580127 -382.27392578 941.92358398 C-387.78326442 933.27999992 -392.83657441 924.42929088 -397.72412109 915.421875 C-398.7661338 913.51203415 -399.82632009 911.61401475 -400.89453125 909.71875 C-412.03203105 889.5759805 -420.26626918 867.98759344 -427.875 846.3125 C-428.19952148 845.40032715 -428.52404297 844.4881543 -428.85839844 843.54833984 C-436.86667853 820.80123476 -441.82613801 796.88917109 -445.75 773.125 C-445.94094238 771.98361572 -446.13188477 770.84223145 -446.32861328 769.66625977 C-449.64729596 748.35056853 -450.25224022 726.96885024 -450.19305801 705.42996597 C-450.18741386 703.34315158 -450.1845957 701.25634532 -450.18197632 699.16952515 C-450.12694034 669.00153998 -448.02887314 639.93060276 -441.875 610.3125 C-441.63297852 609.1265625 -441.39095703 607.940625 -441.14160156 606.71875 C-433.59160331 570.33883564 -421.00703433 534.14100431 -403.82958984 501.17041016 C-402.8559217 499.27536807 -401.91773263 497.36630238 -400.98828125 495.44921875 C-397.24758825 487.75429675 -393.2441459 480.2427041 -389 472.8125 C-388.52328857 471.96840576 -388.04657715 471.12431152 -387.55541992 470.25463867 C-387.10658447 469.47967041 -386.65774902 468.70470215 -386.1953125 467.90625 C-385.79586426 467.21208984 -385.39641602 466.51792969 -384.98486328 465.80273438 C-384.6186084 465.31095703 -384.25235352 464.81917969 -383.875 464.3125 C-383.215 464.3125 -382.555 464.3125 -381.875 464.3125 C-381.63523437 463.45269531 -381.39546875 462.59289062 -381.1484375 461.70703125 C-379.75953867 458.00472118 -377.84825348 455.13054716 -375.5 452 C-374.59946245 450.77141783 -373.69976078 449.54222266 -372.80078125 448.3125 C-372.08849365 447.34376953 -372.08849365 447.34376953 -371.36181641 446.35546875 C-369.2838631 443.5002449 -367.26156136 440.60729621 -365.23730469 437.71386719 C-353.82777454 421.41556546 -353.82777454 421.41556546 -350.875 418.3125 C-350.215 418.3125 -349.555 418.3125 -348.875 418.3125 C-348.66875 417.631875 -348.4625 416.95125 -348.25 416.25 C-346.44604973 412.39610625 -343.9739655 409.23462236 -340.875 406.3125 C-340.215 406.3125 -339.555 406.3125 -338.875 406.3125 C-338.648125 405.77625 -338.42125 405.24 -338.1875 404.6875 C-335.30932495 399.47937372 -331.05208374 395.47877965 -326.875 391.3125 C-325.1050435 389.53167256 -323.33553437 387.75040039 -321.56640625 385.96875 C-320.04490777 384.43987526 -318.5229274 382.91148206 -317.00073242 381.38330078 C-315.95946795 380.33699505 -314.91910105 379.28979528 -313.87963867 378.24169922 C-312.36097101 376.71079777 -310.83900326 375.18324229 -309.31640625 373.65625 C-307.96591187 372.29790039 -307.96591187 372.29790039 -306.58813477 370.91210938 C-298.65664914 363.3125 -298.65664914 363.3125 -295.875 363.3125 C-295.545 362.3225 -295.215 361.3325 -294.875 360.3125 C-292.86328125 358.4375 -292.86328125 358.4375 -290.1875 356.3125 C-289.19492187 355.52101563 -288.20234375 354.72953125 -287.1796875 353.9140625 C-286.3767627 353.28226074 -286.3767627 353.28226074 -285.55761719 352.63769531 C-283.82629298 351.27413933 -282.10415909 349.89956112 -280.3828125 348.5234375 C-273.70418397 343.20510059 -266.92883109 338.1268479 -259.875 333.3125 C-258.36679687 332.25095703 -258.36679687 332.25095703 -256.828125 331.16796875 C-250.34574411 326.61634485 -243.77668562 322.32129298 -236.99609375 318.21875 C-234.06349043 316.42762307 -231.18784657 314.56864496 -228.3125 312.6875 C-222.70389854 309.10736967 -216.85799334 306.20841038 -210.875 303.3125 C-208.20461008 301.98658439 -205.54010855 300.64899162 -202.875 299.3125 C-201.50784807 298.63013705 -200.14066102 297.94784448 -198.7734375 297.265625 C-196.35613573 296.05756514 -193.94599237 294.83820571 -191.5390625 293.609375 C-186.24189589 290.91313081 -180.95744978 288.43706069 -175.41015625 286.30078125 C-172.68378281 285.23795771 -170.00205263 284.09016541 -167.3125 282.9375 C-160.94199908 280.26944227 -154.45631126 277.99163831 -147.93359375 275.73046875 C-143.77964737 274.28985506 -139.66538238 272.75203916 -135.5625 271.171875 C-132.48982963 270.18933506 -129.4042637 269.52544409 -126.25244141 268.84814453 C-122.48223548 267.99870606 -118.77816859 266.93417909 -115.0625 265.875 C-94.50349215 260.11075252 -94.50349215 260.11075252 -87.203125 259.62109375 C-84.63167502 259.33047221 -84.63167502 259.33047221 -81.23828125 258.34765625 C-78.13727582 257.54125077 -75.15658376 257.08848688 -71.96484375 256.8125 C-62.44369939 256.26987907 -62.44369939 256.26987907 -54.265625 252.0703125 C-52.53014688 249.4797549 -52.53014688 249.4797549 -51.17578125 246.76171875 C-49.1355618 242.92022447 -46.61121839 241.45736611 -42.875 239.3125 C-39.9375 238.5 -39.9375 238.5 -37.875 238.3125 C-37.88784623 234.88898068 -38.04893388 231.64376011 -38.875 228.3125 C-41.52353413 226.27952103 -41.52353413 226.27952103 -44.875 225.3125 C-50.35304654 222.1655371 -53.94982821 218.16071448 -57.875 213.3125 C-58.35710937 212.72855469 -58.83921875 212.14460937 -59.3359375 211.54296875 C-76.94761588 189.21213897 -86.25320733 160.78429902 -83.12548828 132.35986328 C-81.64263561 120.23978286 -78.88074004 108.83946537 -74.875 97.3125 C-74.49472656 96.21421875 -74.11445313 95.1159375 -73.72265625 93.984375 C-66.07676518 73.08045733 -54.3456445 52.97104784 -40.875 35.3125 C-38.68742931 32.27904564 -36.53292823 29.22203324 -34.37426758 26.16796875 C-29.4862924 19.29205158 -29.4862924 19.29205158 -26.875 16.3125 C-26.215 16.3125 -25.555 16.3125 -24.875 16.3125 C-24.50375 15.2296875 -24.50375 15.2296875 -24.125 14.125 C-21.56399202 8.36273206 -17.36141249 4.12362337 -11.76953125 1.21875 C-7.80730117 -0.02178627 -4.12765986 -0.01694442 0 0 Z " fill="#EEC66A" transform="translate(449.875,-0.3125)"/>
<path d="M0 0 C-0.26401995 1.31388752 -0.53675364 2.62602339 -0.8125 3.9375 C-1.03873047 5.03384766 -1.03873047 5.03384766 -1.26953125 6.15234375 C-2.30093706 10.17317176 -3.65324755 14.07531616 -5 18 C-5.7935791 18.15033691 -6.5871582 18.30067383 -7.40478516 18.45556641 C-35.0736391 23.73704004 -62.63883287 30.14096439 -88.69116211 41.13574219 C-91 42 -91 42 -94 42 C-94 42.66 -94 43.32 -94 44 C-94.7528125 44.268125 -95.505625 44.53625 -96.28125 44.8125 C-105.5471333 48.23098122 -114.26871488 52.41027713 -123 57 C-123.94472168 57.49628906 -124.88944336 57.99257813 -125.86279297 58.50390625 C-137.25848899 64.51976104 -148.49767935 70.50720698 -159 78 C-160.60977026 79.09892065 -162.2195744 80.19779306 -163.83056641 81.29492188 C-186.09204977 96.5309181 -205.96284754 113.94429299 -225.0625 132.9375 C-225.7527124 133.62295898 -226.4429248 134.30841797 -227.15405273 135.01464844 C-246.98235416 154.9081031 -263.48209695 178.0391224 -278 202 C-278.48243164 202.79583496 -278.96486328 203.59166992 -279.46191406 204.41162109 C-285.25928516 214.04336642 -290.51139022 223.77824421 -295.1640625 234.01171875 C-296.87671933 237.77684527 -298.73397815 241.44617802 -300.625 245.125 C-310.8516996 265.53222901 -317.72977766 287.83711018 -323 310 C-323.16661133 310.69625488 -323.33322266 311.39250977 -323.50488281 312.10986328 C-324.71851844 317.35913195 -325.63908554 322.63400007 -326.5 327.95166016 C-326.97073616 330.82158777 -327.47805793 333.68197185 -328 336.54296875 C-328.165 337.47431641 -328.33 338.40566406 -328.5 339.36523438 C-328.82461425 341.19752965 -329.15747469 343.02839022 -329.5 344.85742188 C-332.91833289 364.4994831 -333.33233132 384.50911664 -333.26074219 404.39575195 C-333.24993185 407.9599681 -333.26076651 411.52368865 -333.2734375 415.08789062 C-333.28409696 432.20727963 -332.05730588 448.56844901 -328.7109375 465.359375 C-328.10860058 468.44386956 -327.59539697 471.51860492 -327.125 474.625 C-322.28812985 507.66382531 -322.28812985 507.66382531 -305 535 C-300.30773178 538.10983172 -295.70717167 540.82176631 -289.99633789 541.19775391 C-281.27861466 541.81698025 -281.27861466 541.81698025 -277.61621094 545.20556641 C-275.42082117 548.25191906 -273.53754842 551.35741228 -271.6875 554.625 C-270.97773804 555.80149834 -270.26320848 556.9751323 -269.54418945 558.14599609 C-268.06678829 560.55874588 -266.60891046 562.9816906 -265.1640625 565.4140625 C-261.85866211 570.93941916 -258.27401038 576.27950045 -254.6875 581.625 C-254.02419678 582.62031738 -253.36089355 583.61563477 -252.67749023 584.64111328 C-247.51926053 592.33963797 -242.09250313 599.7831458 -236.43554688 607.12011719 C-234.94058951 609.07779945 -233.47510689 611.05481242 -232.015625 613.0390625 C-225.38383415 622.04111447 -218.41578884 630.63265116 -211 639 C-210.21882812 639.88171875 -209.43765625 640.7634375 -208.6328125 641.671875 C-207.18127994 643.29387223 -205.72303357 644.90988874 -204.2578125 646.51953125 C-202.65777154 648.27736171 -201.07046041 650.04681795 -199.4921875 651.82421875 C-187.83417195 664.88748964 -173.81466162 680.09266919 -158 688 C-162.47335757 669.81796599 -168.52510843 656.31018702 -182 643 C-184.42321402 640.59321803 -186.84577217 638.18579329 -189.26635742 635.77636719 C-190.9068008 634.14898543 -192.55400007 632.52838235 -194.20825195 630.91503906 C-194.95937256 630.17608398 -195.71049316 629.43712891 -196.484375 628.67578125 C-197.16209961 628.01489502 -197.83982422 627.35400879 -198.53808594 626.6730957 C-200 625 -200 625 -200 623 C-200.66 623 -201.32 623 -202 623 C-203.49584961 621.52246094 -203.49584961 621.52246094 -205.21484375 619.484375 C-205.83858887 618.75025391 -206.46233398 618.01613281 -207.10498047 617.25976562 C-207.73033691 616.51404297 -208.35569336 615.76832031 -209 615 C-209.54672363 614.36255859 -210.09344727 613.72511719 -210.65673828 613.06835938 C-227.84117999 592.99970535 -241.92219699 571.10593987 -254.75 548.0625 C-255.28834473 547.10811035 -255.82668945 546.1537207 -256.38134766 545.17041016 C-256.86909668 544.28015137 -257.3568457 543.38989258 -257.859375 542.47265625 C-258.29733398 541.68125244 -258.73529297 540.88984863 -259.18652344 540.07446289 C-260 538 -260 538 -259 535 C-257.8190662 533.85280716 -256.63811086 532.70563648 -255.45703125 531.55859375 C-246.18970352 521.64528607 -242.60941763 508.32062206 -239.015625 495.58984375 C-238.39029125 493.37952944 -237.72639739 491.17919216 -237 489 C-233.16054818 490.51852477 -231.32508945 492.77802738 -228.8125 496 C-225.03095991 500.75340212 -221.09415886 505.29224958 -217 509.77734375 C-215.35518555 511.60527231 -213.78764608 513.45774754 -212.25 515.375 C-210.01409756 517.98355285 -207.70827327 519.90108821 -205 522 C-202.64333967 524.29119754 -200.35010862 526.63642567 -198.0703125 529.00390625 C-192.38941554 534.81621186 -186.36931308 539.95935719 -180 545 C-178.92801302 545.86281879 -177.8564103 546.72611515 -176.78515625 547.58984375 C-162.78468836 558.81544413 -148.23078526 568.69417224 -132.72924805 577.74902344 C-117.04052835 586.95586077 -107.53726022 595.90864466 -102.578125 613.87109375 C-100.82184028 623.37639144 -100.83076626 633.02499586 -100.75390625 642.66015625 C-100.73834113 644.05863656 -100.72212745 645.45710979 -100.70530701 646.85557556 C-100.63554211 652.72874775 -100.57497113 658.6019837 -100.52319336 664.4753418 C-101.31856872 691.32194328 -101.31856872 691.32194328 -95.71339417 717.12098694 C-94.97770948 719.05871113 -94.46557269 720.98200613 -94 723 C-93.34 723 -92.68 723 -92 723 C-92.03480469 721.87464844 -92.06960938 720.74929688 -92.10546875 719.58984375 C-92.40395228 705.6890393 -91.11420978 692.72309673 -85 680 C-84.52949219 678.99582031 -84.05898438 677.99164062 -83.57421875 676.95703125 C-72.01404487 653.8642734 -52.61209848 640.92350861 -29 632 C-27.76552124 631.51527222 -27.76552124 631.51527222 -26.50610352 631.02075195 C-19.66614936 628.40799164 -12.86554211 626.71562451 -5.6875 625.3125 C-4.64271484 625.10044922 -3.59792969 624.88839844 -2.52148438 624.66992188 C0.31628082 624.09803912 3.1573307 623.54685713 6 623 C7.54107422 622.68289063 7.54107422 622.68289063 9.11328125 622.359375 C13.36932334 621.82952944 17.59129881 621.89556618 21.875 621.9375 C22.75414062 621.94201172 23.63328125 621.94652344 24.5390625 621.95117188 C26.69273803 621.96287663 28.84637817 621.98080931 31 622 C31 621.34 31 620.68 31 620 C29.741875 619.938125 28.48375 619.87625 27.1875 619.8125 C19.37260603 619.05333887 11.89598563 616.69090378 4.3527832 614.61132812 C1.21979306 613.79727735 -1.93873902 613.13899752 -5.11279297 612.50610352 C-8.12589996 611.69806072 -9.39084944 610.65859657 -11 608 C-12.35425259 600.02495694 -8.6966339 592.39648156 -6 585 C-28.21859834 596.71584137 -49.12861846 608.54677482 -67.5546875 625.8984375 C-70.75826697 628.65167353 -72.87600707 629.86236821 -77.0625 630.375 C-80 630 -80 630 -81.60546875 628.48046875 C-83.50473577 625.10222069 -83.79031033 621.71969519 -84.25 617.9375 C-86.46009404 602.82719993 -91.62851331 589.1231147 -101 577 C-101.44085938 576.401875 -101.88171875 575.80375 -102.3359375 575.1875 C-109.52740416 565.92064364 -119.96227409 559.26525796 -130 553.5 C-148.9706588 542.60093361 -167.951155 527.75265677 -183.09765625 511.9375 C-184.9812867 510.01905914 -186.94430868 508.29360848 -189 506.5625 C-193.7888605 502.44692484 -197.83765021 497.73351271 -202 493 C-203.45822191 491.41656405 -204.91655563 489.83323105 -206.375 488.25 C-210.99867158 483.11618602 -215.26473623 477.73615622 -219.46875 472.2578125 C-220.94333506 470.33668271 -222.43385451 468.50440466 -224.03125 466.6796875 C-227.7795136 462.31260679 -228.35810488 459.49319052 -228.2199707 453.81054688 C-227.83623775 448.90762372 -226.78691986 444.17492942 -225.75 439.375 C-223.5688101 428.75157996 -221.98402216 418.13444618 -220.6875 407.375 C-220.6006897 406.65479675 -220.51387939 405.93459351 -220.42443848 405.19256592 C-219.93767429 401.12972458 -219.46347999 397.06557257 -219 393 C-215.66698759 394.11100414 -214.99845289 394.92085659 -212.83203125 397.56640625 C-209.05716255 402.01284698 -204.96213171 405.97641214 -200.6875 409.9375 C-199.93984375 410.63480225 -199.1921875 411.33210449 -198.421875 412.05053711 C-196.28584352 414.03872152 -194.14413183 416.02055854 -192 418 C-191.46842285 418.49274414 -190.9368457 418.98548828 -190.38916016 419.49316406 C-184.81419111 424.65035049 -179.06385079 429.43195878 -173 434 C-171.83695729 434.89286157 -170.67422211 435.78612381 -169.51171875 436.6796875 C-153.12972204 449.20295203 -136.02157128 459.99528418 -118 470 C-117.1352002 470.48098145 -116.27040039 470.96196289 -115.37939453 471.45751953 C-113.25351021 472.63939664 -111.12705302 473.82022794 -109 475 C-108.81480603 485.33999681 -108.76182933 495.53248129 -110 505.8125 C-112.63303549 528.3496965 -108.78567229 546.8168521 -94.625 564.9375 C-85.12914529 575.88049696 -73.60347734 583.39745457 -59 585 C-49.27914997 585.66503632 -39.58672502 584.87882103 -31 580 C-29.96875 579.5875 -28.9375 579.175 -27.875 578.75 C-17.77295335 574.43326641 -9.25516168 568.14853755 -1 561 C0.11568359 560.06800781 0.11568359 560.06800781 1.25390625 559.1171875 C5.18226123 555.79262143 8.54040371 552.37282611 11.67578125 548.28515625 C13 547 13 547 16 547 C17.81231049 548.61094266 19.3762885 550.21219 21 552 C21.6084375 552.61617187 22.216875 553.23234375 22.84375 553.8671875 C26.96596018 558.20902363 28.87410199 560.95689575 29 567 C23.21101581 567.20674944 18.57067277 566.59162079 13 565 C12.87753906 565.85722656 12.75507813 566.71445312 12.62890625 567.59765625 C11.99638752 571.01954331 11.04179968 574.14043321 9.9375 577.4375 C7.84752456 584.12070943 7.84752456 584.12070943 8 591 C13.02084935 597.29155814 23.46154601 597.51258964 30.89868164 598.7980957 C35.29896927 599.58815556 39.38984752 600.71890012 43.625 602.1875 C63.13093381 608.27866037 87.50213922 600.17051907 106 593 C108.32547312 591.1015485 108.32547312 591.1015485 108.28125 587.890625 C107.96414483 583.50400346 106.92560382 579.8803981 105.5 575.75 C103 568.34459459 103 568.34459459 103 565 C102.26394531 565.144375 101.52789062 565.28875 100.76953125 565.4375 C99.79371094 565.623125 98.81789063 565.80875 97.8125 566 C96.84957031 566.185625 95.88664062 566.37125 94.89453125 566.5625 C92.2065794 566.96877612 89.71228981 567.07933572 87 567 C87.34122207 560.1755585 91.15021653 555.6901956 95.953125 551.15625 C97.60769714 549.73035856 99.27882004 548.34435358 101 547 C104.11411891 548.34989704 105.79750973 549.71356652 107.875 552.375 C116.56313327 562.58541303 127.34069006 570.51038409 139 577 C140.12535156 577.62841797 140.12535156 577.62841797 141.2734375 578.26953125 C153.47394566 584.70734879 168.61058657 587.75904889 182.109375 583.9765625 C199.2783414 578.37584811 211.30441043 566.60640419 220 551 C224.31772912 541.88605991 227.36812264 533.38323468 227.25 523.25 C227.24613281 522.42435547 227.24226562 521.59871094 227.23828125 520.74804688 C227.1483799 514.16027605 226.5118119 507.70416918 225.71630859 501.16967773 C224.70883736 492.45005958 224.82335038 483.76378393 225 475 C226.48886719 474.1646875 226.48886719 474.1646875 228.0078125 473.3125 C230.862445 471.71015389 233.71493849 470.10406429 236.56640625 468.49609375 C239.25671775 466.97906182 241.95119827 465.47029884 244.65234375 463.97265625 C269.18948534 450.22848415 291.27898849 432.93030681 312 414 C312.98938778 413.10395069 313.97898013 412.20812723 314.96875 411.3125 C325.72253858 402.6101326 325.72253858 402.6101326 334 392 C334.66 392 335.32 392 336 392 C336.04487549 392.70382812 336.08975098 393.40765625 336.13598633 394.1328125 C336.97379644 406.9201111 337.97603734 419.37793456 340.59570312 431.93212891 C341.41488698 436.12203667 342.04584913 440.34242633 342.6875 444.5625 C342.88460571 445.81329346 342.88460571 445.81329346 343.08569336 447.08935547 C344.9389904 459.39903156 344.9389904 459.39903156 342.19921875 464.0703125 C340.95591797 465.58238281 340.95591797 465.58238281 339.6875 467.125 C339.23963135 467.67776611 338.7917627 468.23053223 338.33032227 468.80004883 C336.90443011 470.54873786 335.45450946 472.27507607 334 474 C333.06720607 475.12588615 332.13490771 476.25218307 331.203125 477.37890625 C325.63443666 484.06801547 319.8737638 490.5773763 314 497 C313.01807843 498.08710345 312.03631673 499.17435132 311.0546875 500.26171875 C306.24420153 505.5640915 301.47150559 510.74308549 295.96875 515.34375 C293.70649734 517.24691494 291.54835189 519.24600021 289.375 521.25 C275.78024255 533.47907405 260.83183744 544.43460408 245.08300781 553.70751953 C224.65522684 565.81464468 209.97285734 581.90413261 203 605 C202.2956573 608.52566556 201.76644153 612.07990103 201.23242188 615.63476562 C200.44148694 620.49836 199.31654333 624.62555652 197 629 C193.6875 630.1875 193.6875 630.1875 190 630 C185.85616646 627.55364044 182.4619562 624.69631423 179 621.375 C165.06997856 608.57139539 148.56021138 599.23710692 131.82055664 590.59912109 C128.66112544 588.95690591 125.77297659 587.23892184 123 585 C123.45380895 586.89692143 123.91324992 588.79249595 124.375 590.6875 C124.75785156 592.27111328 124.75785156 592.27111328 125.1484375 593.88671875 C125.91953955 596.70583956 126.91517847 599.29254289 128 602 C128.375 605.125 128.375 605.125 128 608 C124.46921092 611.7514634 119.45004859 612.33554379 114.625 613.4375 C112.83027225 613.86527503 111.0360026 614.29497642 109.2421875 614.7265625 C108.35756836 614.93829102 107.47294922 615.15001953 106.56152344 615.36816406 C100.99369794 616.74154687 95.4976067 618.37074239 90 620 C95.65906045 620.97768321 101.3200687 621.90929109 107.00390625 622.73046875 C107.87885742 622.85768311 108.75380859 622.98489746 109.65527344 623.1159668 C111.39622918 623.36757681 113.13775485 623.61528142 114.87988281 623.85864258 C119.73327598 624.56241322 124.30305406 625.54383727 129 627 C130.17175781 627.33257813 131.34351563 627.66515625 132.55078125 628.0078125 C147.78241318 632.5314332 162.23281502 638.37111748 175 648 C176.00546875 648.73734375 177.0109375 649.4746875 178.046875 650.234375 C193.6050375 662.31761796 203.22266622 679.76465415 207 699 C207.17345947 699.77351807 207.34691895 700.54703613 207.52563477 701.34399414 C207.99829592 703.99045875 208.11412872 706.39701937 208.09765625 709.08203125 C208.09443359 710.01337891 208.09121094 710.94472656 208.08789062 711.90429688 C208.07951172 712.86400391 208.07113281 713.82371094 208.0625 714.8125 C208.05798828 715.79154297 208.05347656 716.77058594 208.04882812 717.77929688 C208.03708684 720.18626111 208.02066419 722.59309857 208 725 C210.27132224 720.64702894 212.40590907 716.45086976 213.6875 711.6875 C213.91824219 710.86636719 214.14898438 710.04523437 214.38671875 709.19921875 C216.15332742 699.98359771 216.15378755 690.62255272 216.19923019 681.27060318 C216.21123426 679.01453836 216.23073391 676.75864727 216.25234985 674.50265503 C216.31326951 668.09639395 216.36788052 661.69016003 216.40136719 655.28369141 C216.42250833 651.34155818 216.45794885 647.39976027 216.50212479 643.45782089 C216.51611565 641.97258358 216.52496815 640.48728719 216.52817917 639.00198746 C216.55055382 629.64766457 217.45544926 621.03618005 220 612 C220.19711578 611.28576874 220.39423157 610.57153748 220.59732056 609.83566284 C225.61777134 592.72868055 235.61506013 585.47496537 250.30395508 576.94897461 C263.55273026 569.22827988 275.84649633 560.32832021 288 551 C288.61262695 550.5344873 289.22525391 550.06897461 289.85644531 549.58935547 C298.13164511 543.29689533 305.86975085 536.61925905 313.42089844 529.47753906 C314.9847668 528.01425345 316.56898506 526.57758738 318.1640625 525.1484375 C324.53114688 519.43715581 330.37491353 513.45050677 336 507 C337.56120371 505.29048194 339.12370246 503.58214565 340.6875 501.875 C344.39510713 497.76410929 347.78919821 493.50771388 351 489 C351.99 489.33 352.98 489.66 354 490 C354.7734375 492.1953125 354.7734375 492.1953125 355.375 495.125 C358.61231571 509.17561769 363.2607528 527.50716853 376 536 C374.3681597 541.76836572 371.61844909 546.7747487 368.75 552 C368.22349854 552.95970703 367.69699707 553.91941406 367.15454102 554.90820312 C358.69826358 570.12330743 349.53497606 584.87641015 338.40820312 598.28857422 C336.8894953 600.13429922 335.40419659 602.00385251 333.921875 603.87890625 C324.915685 615.22176323 315.3010262 625.83374063 304.94921875 635.96484375 C288.435488 652.13703672 279.60489892 665.6400309 274 688 C293.09036712 674.44842412 310.78726392 658.83457035 326 641 C326.77730469 640.11183594 327.55460938 639.22367188 328.35546875 638.30859375 C336.77718544 628.61462302 344.38957985 618.33523867 352 608 C352.54382324 607.2668457 353.08764648 606.53369141 353.64794922 605.77832031 C367.23974119 587.43850753 379.70027338 568.26487954 392.03125 549.0625 C395.91582403 543.01982928 395.91582403 543.01982928 398.50390625 542.41015625 C399.51324219 542.29542969 400.52257812 542.18070313 401.5625 542.0625 C412.01779026 540.5260595 420.79592659 536.18981112 427.515625 527.89453125 C430.39839798 523.71451044 431.96543472 519.31157247 433.5 514.5 C433.79624268 513.58855225 434.09248535 512.67710449 434.39770508 511.73803711 C437.67974301 501.31874233 439.9237282 490.7142942 442 480 C442.18159668 479.0807373 442.36319336 478.16147461 442.55029297 477.21435547 C443.80395235 470.82579804 444.92881571 464.42144242 446 458 C446.14120773 457.15911331 446.28241547 456.31822662 446.42790222 455.45185852 C448.98521783 439.71112502 449.4073453 424.21573461 449.28125 408.28930664 C449.25498611 404.94702144 449.24199387 401.60532401 449.2375679 398.26298237 C449.2323746 395.00471939 449.21786206 391.7465131 449.203125 388.48828125 C449.19887512 387.30994217 449.19462524 386.13160309 449.19024658 384.91755676 C449.72335573 372.63489207 449.72335573 372.63489207 447 361 C446.67189944 358.18728342 446.38665316 355.38145825 446.125 352.5625 C443.47639272 326.45023248 438.96651421 298.82622368 428.53515625 274.59765625 C426.88095737 270.72102223 425.53243233 266.80307381 424.1875 262.8125 C422.01338811 256.49360201 419.47000846 250.59670632 416.35546875 244.671875 C415.12520067 242.24679325 414.13177152 239.85904219 413.1875 237.3125 C401.28379979 206.64700069 379.97034164 177.99894929 359 153 C358.23816406 152.05253906 357.47632813 151.10507812 356.69140625 150.12890625 C349.63103697 141.48025932 341.80733839 133.5908831 333.9375 125.6875 C333.38305206 125.12787567 332.82860413 124.56825134 332.25735474 123.9916687 C325.17285982 116.85513671 317.91003805 110.23150278 310 104 C308.74524417 102.97528531 307.49237313 101.94825427 306.2421875 100.91796875 C277.2045992 77.27712041 244.72133578 58.10970737 210.11523438 43.87841797 C208.35528594 43.14754372 206.60587048 42.39136883 204.859375 41.62890625 C189.19858588 34.8052767 172.61876217 30.15181472 156.18212891 25.609375 C154.36001676 25.10053724 152.54434869 24.56869591 150.73046875 24.03125 C144.62360538 22.24300304 138.55675704 21.30801989 132.25390625 20.45703125 C121.84154265 18.99455041 121.84154265 18.99455041 119.625 16.375 C119.41875 15.59125 119.2125 14.8075 119 14 C118.83113281 13.39671875 118.66226562 12.7934375 118.48828125 12.171875 C117.40660623 8.15203308 116.61774062 4.11827077 116 0 C123.97170875 0.73812118 131.77094936 2.16006873 139.625 3.6875 C140.30607819 3.81938721 140.98715637 3.95127441 141.68887329 4.0871582 C154.27256983 6.53792384 166.66992324 9.48431448 179 13 C179.87188965 13.2475 180.7437793 13.495 181.64208984 13.75 C197.33898444 18.24402239 212.68499692 23.1786434 227.40234375 30.29296875 C230.81524585 31.91233706 234.2570978 33.37567465 237.75 34.8125 C279.95868787 52.76658833 322.25551283 81.17632128 354.2265625 114.2265625 C355.99306639 115.99306639 357.83465542 117.58486474 359.75 119.1875 C365.10129901 123.79527214 369.73080112 129.08029457 374.4609375 134.30810547 C375.95189565 135.94711879 377.4569854 137.57158667 378.96875 139.19140625 C379.44723389 139.70614502 379.92571777 140.22088379 380.41870117 140.7512207 C381.72211817 142.15281064 383.02701972 143.5530196 384.33203125 144.953125 C387.77818902 148.79007062 390.87310941 152.90249389 394 157 C394.59482178 157.77666016 395.18964355 158.55332031 395.80249023 159.35351562 C406.52051461 173.39951764 416.44160933 187.65963025 425.625 202.75 C426.15891357 203.62076172 426.69282715 204.49152344 427.24291992 205.38867188 C427.73252197 206.20400391 428.22212402 207.01933594 428.7265625 207.859375 C429.16564941 208.58608398 429.60473633 209.31279297 430.05712891 210.06152344 C431 212 431 212 431 215 C431.66 215 432.32 215 433 215 C434.60871674 218.01843094 436.21113049 221.04016561 437.8125 224.0625 C438.26431641 224.91005859 438.71613281 225.75761719 439.18164062 226.63085938 C441.67910118 231.35233589 443.97744642 236.05664111 446 241 C446.41121094 241.98742187 446.82242188 242.97484375 447.24609375 243.9921875 C447.83583984 245.41917969 447.83583984 245.41917969 448.4375 246.875 C449.88369409 250.36136076 451.36090495 253.82090578 452.9375 257.25 C455.64635143 263.29615638 457.87459495 269.53094441 460.16162109 275.74511719 C461.02536434 278.06821928 461.91103081 280.38205666 462.80078125 282.6953125 C468.47202895 297.54879684 471.99180118 312.56540221 475.25048828 328.10839844 C476.40094728 333.56986673 476.40094728 333.56986673 478.0234375 338.90234375 C479.6207483 343.96901359 480.23625312 349.18972361 481 354.4375 C481.165 355.50548828 481.33 356.57347656 481.5 357.67382812 C484.47596336 377.81970512 485.37367152 397.90431739 485.3125 418.25 C485.31167419 419.41767914 485.31084839 420.58535828 485.30999756 421.78842163 C485.28588145 436.67605803 484.95895464 451.48055198 483.625 466.3125 C483.56196686 467.0175769 483.49893372 467.72265381 483.43399048 468.44909668 C482.83254909 474.94293011 482.06456349 481.26641049 480.50024414 487.59814453 C479.86775317 490.6349655 479.55537419 493.6715611 479.20703125 496.75390625 C478.05166881 505.77293323 475.78231001 514.42676121 473.42407227 523.19702148 C472.690146 525.92765533 471.96992618 528.66161741 471.25195312 531.39648438 C467.32323126 546.26436228 463.167197 560.88138549 457 575 C456.20540253 576.91545349 455.41379351 578.83214911 454.625 580.75 C449.52212742 592.95874189 444.25182072 605.02833848 438.15283203 616.77734375 C437.36152449 618.302982 436.57635796 619.83181641 435.79638672 621.36328125 C429.54282602 633.586478 422.48465619 645.15014509 414.875 656.5625 C414.45988159 657.18699036 414.04476318 657.81148071 413.61706543 658.45489502 C406.15532189 669.64382333 398.21881079 680.42823536 389.4375 690.625 C386.12347986 694.48205432 382.89930481 698.38075975 379.75 702.375 C374.21902804 709.18851619 367.91819036 715.2455234 361.65576172 721.37695312 C358.63743732 724.33564091 355.65402453 727.32588597 352.7109375 730.359375 C347.69020058 735.49765426 342.50596883 740.18981047 336.890625 744.66796875 C334.38399087 746.69021277 331.94357592 748.77023996 329.51464844 750.88452148 C304.75087012 772.32474008 275.9586981 788.94418975 247 804 C246.00226562 804.53109375 245.00453125 805.0621875 243.9765625 805.609375 C236.51391384 809.49075259 228.84143978 812.43083617 220.94873047 815.28857422 C217.99447877 816.36708705 215.05974623 817.49465605 212.125 818.625 C211.07570313 819.02847656 210.02640625 819.43195312 208.9453125 819.84765625 C206.28323527 820.88918514 203.64181666 821.97094553 201 823.0625 C162.47114809 838.43728828 117.22408711 846.13096117 75.85546875 846.16796875 C74.5152432 846.17119841 73.17501798 846.17456361 71.83479309 846.17805481 C69.03707059 846.18399826 66.23937874 846.18590001 63.44165039 846.18530273 C60.62517806 846.18522201 57.80887022 846.19208665 54.99243164 846.20581055 C34.08284782 846.30608556 13.3293405 846.01252886 -7.26795959 842.03582764 C-11.23451243 841.27407571 -15.09391372 840.78734147 -19.125 840.5625 C-24.74575373 840.16317031 -29.8513923 838.84407426 -35.26171875 837.3046875 C-39.09855485 836.22221613 -42.95829588 835.2619882 -46.83203125 834.3203125 C-48.06050781 834.0207666 -49.28898437 833.7212207 -50.5546875 833.41259766 C-53.01052499 832.8161891 -55.4675178 832.22451265 -57.92578125 831.63818359 C-64.13150466 830.11878563 -70.00488192 828.39999619 -75.86645508 825.84350586 C-78.03165152 824.98748644 -80.08961832 824.48772527 -82.375 824.0625 C-90.54102015 822.43218149 -98.06921639 818.42438614 -105.6171875 815.015625 C-108.39983456 813.82957871 -111.22429503 812.79602149 -114.0625 811.75 C-121.24554391 809.01162057 -128.01598807 805.65543456 -134.83154297 802.12109375 C-137.04946382 800.97442717 -139.27617923 799.84622926 -141.50390625 798.71875 C-166.46092182 785.97122401 -189.8051993 770.40469422 -211.28808594 752.42382812 C-213.72763276 750.39481543 -216.21120704 748.42138889 -218.6875 746.4375 C-228.92319911 738.01610502 -238.34347762 728.76331504 -247.75 719.4375 C-248.6251123 718.57543945 -249.50022461 717.71337891 -250.40185547 716.82519531 C-255.62994306 711.6040271 -260.42040011 706.1920734 -265.03955078 700.42602539 C-267.27472981 697.66002614 -269.61886553 695.0819534 -272.0625 692.5 C-275.96047673 688.24929225 -279.43830955 683.88840893 -282.7578125 679.17578125 C-284.45426955 676.77295967 -286.17549011 674.40300876 -287.9296875 672.04296875 C-296.2847613 660.75126104 -303.84505794 649.08589159 -311 637 C-311.43908691 636.2584668 -311.87817383 635.51693359 -312.33056641 634.75292969 C-324.03233614 614.7827616 -333.8735733 593.6602877 -342 572 C-342.39348633 570.95247559 -342.39348633 570.95247559 -342.79492188 569.88378906 C-343.30160713 568.53284109 -343.80734483 567.18153724 -344.31201172 565.82983398 C-344.91014306 564.23899139 -345.5240105 562.65408263 -346.140625 561.0703125 C-350.69047796 548.99077329 -353.76622169 536.48098404 -357 524 C-357.25346191 523.02998047 -357.50692383 522.05996094 -357.76806641 521.06054688 C-360.28074921 511.41865897 -362.57782161 501.87088223 -364 492 C-364.23495753 490.56867709 -364.47212812 489.13771654 -364.7109375 487.70703125 C-368.29751674 465.83584255 -369.18192377 444.25374907 -369.1875 422.125 C-369.18849701 421.07663971 -369.18949402 420.02827942 -369.19052124 418.94815063 C-369.18845027 399.68343494 -368.58618034 380.75664507 -365.75 361.6875 C-365.64051025 360.93508026 -365.53102051 360.18266052 -365.41821289 359.40744019 C-363.6963704 347.62447418 -361.55743193 336.02090965 -358.625 324.47216797 C-357.97842212 321.91464937 -357.36176182 319.35121032 -356.75 316.78515625 C-353.63969438 303.85935279 -350.2379667 291.01681261 -345.0859375 278.734375 C-343.94230262 275.85471883 -342.93866678 272.94729822 -341.94042969 270.01489258 C-339.13592523 261.81144423 -335.8554316 253.97469395 -332.04980469 246.18212891 C-330.87107627 243.73201853 -329.73549592 241.26412153 -328.6015625 238.79296875 C-316.32269306 212.23859093 -301.02341211 187.06358753 -283 164 C-282.10770964 162.84012313 -281.21580311 161.67995091 -280.32421875 160.51953125 C-274.8264093 153.40286395 -269.08895224 146.62347858 -263 140 C-261.82865335 138.6707762 -260.66175407 137.33761593 -259.5 136 C-258.33352407 134.6664998 -257.16684508 133.3331772 -256 132 C-255.28972656 131.18402344 -254.57945312 130.36804688 -253.84765625 129.52734375 C-249.82103385 124.96383836 -245.74932165 120.76483575 -241.09765625 116.84375 C-238.61865449 114.66481363 -236.31769812 112.34954435 -234 110 C-229.8163294 105.78473068 -225.56085661 101.80194186 -221 98 C-220.47229004 97.55849609 -219.94458008 97.11699219 -219.40087891 96.66210938 C-197.9574546 78.78575565 -175.27830584 63.17542895 -151.0625 49.3125 C-150.44786896 48.96012268 -149.83323792 48.60774536 -149.19998169 48.24468994 C-138.47786842 42.11422531 -138.47786842 42.11422531 -133 40 C-131.74426511 39.40397975 -130.49624002 38.79135157 -129.2578125 38.16015625 C-128.58363281 37.81919922 -127.90945313 37.47824219 -127.21484375 37.12695312 C-125.82939755 36.42128193 -124.44398055 35.71555342 -123.05859375 35.00976562 C-103.29692728 25.01600858 -81.45677842 17.51063044 -60.0234375 12.08984375 C-57.75959305 11.50637257 -55.55267669 10.85261082 -53.33105469 10.12060547 C-44.35886291 7.1797679 -35.34170525 5.36496259 -26.05859375 3.70751953 C-23.47474406 3.24548381 -20.89360019 2.77010189 -18.3125 2.29296875 C-16.65639122 1.99141091 -15.00014587 1.69060188 -13.34375 1.390625 C-12.19682678 1.17977264 -12.19682678 1.17977264 -11.0267334 0.96466064 C-7.30999321 0.30644232 -3.77729551 -0.16593253 0 0 Z " fill="#020100" transform="translate(392,281)"/>
<path d="M0 0 C1.19496094 0.29132812 2.38992188 0.58265625 3.62109375 0.8828125 C6.41805695 1.57386973 9.20930446 2.28412593 12 3 C14.24969404 3.56372241 16.49969321 4.12622858 18.75 4.6875 C20.5 5.125 22.25 5.5625 24 6 C24 6.66 24 7.32 24 8 C24.54527344 8.10957031 25.09054687 8.21914063 25.65234375 8.33203125 C31.26351553 9.51181609 36.59088239 11.1137436 42 13 C43.68672822 13.56481006 45.37420905 14.12737843 47.0625 14.6875 C49.03125 15.34375 49.03125 15.34375 51 16 C51 16.66 51 17.32 51 18 C51.59167969 18.10957031 52.18335938 18.21914063 52.79296875 18.33203125 C57.4947125 19.27544802 60.9324366 20.39258756 65 23 C66.26267073 23.48036386 67.53463214 23.93666161 68.8125 24.375 C71.71418248 25.41335416 74.1719803 26.63959543 76.75 28.32421875 C80.10853257 30.46715289 83.52500573 32.4050541 87.03662109 34.28344727 C110.39172373 46.814613 132.31601918 62.64468098 151.4921875 80.93359375 C153.95238545 82.9607662 155.99075182 84.01309603 159 85 C159.99966797 84.07380859 159.99966797 84.07380859 161.01953125 83.12890625 C193.54065796 53.24585695 232.22112486 27.79033171 274 13 C275.46720396 12.44680875 276.93325882 11.89056457 278.3984375 11.33203125 C306.62788844 0.62023306 336.17749427 -6.39103521 366.375 -8.125 C367.08254425 -8.16669312 367.7900885 -8.20838623 368.51907349 -8.25134277 C392.7668689 -9.65282055 416.80896698 -9.34398361 441 -7 C440.44547057 -2.51044441 439.87441272 1.97631518 439.28125 6.4609375 C439.15363281 7.42773438 439.02601563 8.39453125 438.89453125 9.390625 C438.63252545 11.37253028 438.36951244 13.35430269 438.10546875 15.3359375 C437.72543767 18.22263822 437.35829098 21.11052418 437 24 C436.89558594 24.82983398 436.79117188 25.65966797 436.68359375 26.51464844 C436.16433199 31.06550238 435.96285008 35.51216415 436 40.09375 C436.09229602 59.41190312 436.09229602 59.41190312 430.875 65.0625 C429.28107067 66.41256317 427.65737454 67.72862637 426 69 C424.80063092 70.3039949 423.63185518 71.63699129 422.5 73 C421.33352103 74.33349755 420.16684782 75.66682519 419 77 C418.3709375 77.72316406 417.741875 78.44632813 417.09375 79.19140625 C407.79154924 89.72580152 397.87136363 100.0692784 387 109 C386.46358887 109.45020508 385.92717773 109.90041016 385.37451172 110.36425781 C371.68114381 121.85322153 357.33912887 131.95999113 341.87109375 140.91601562 C340.63148877 141.63415838 339.39445968 142.35676738 338.16015625 143.08398438 C326.94846942 149.68536869 315.30721641 155.25202215 303.54150391 160.79003906 C299.45214972 162.73690163 295.42186355 164.79172879 291.40234375 166.87890625 C288.69488233 168.14238824 285.83444186 169.05518605 283 170 C292.9 170 302.8 170 313 170 C310.45198369 180.19206524 300.33956797 185.64789751 292 191 C290.80697266 191.78117187 290.80697266 191.78117187 289.58984375 192.578125 C286.24939169 194.41209868 282.77688012 195.69211307 279.1875 196.9375 C278.43831299 197.19837402 277.68912598 197.45924805 276.91723633 197.72802734 C267.05882631 201.08632989 257.04252087 203.43859135 246.82348633 205.39355469 C231.79774315 208.27452363 216.55244297 211.38275714 203.08203125 218.8984375 C201 220 201 220 199 220 C198.67 220.99 198.34 221.98 198 223 C195.4375 224.1875 195.4375 224.1875 193 225 C194.72874086 213.45371843 202.44145295 204.37650996 211 197 C212.485 196.01 212.485 196.01 214 195 C214 194.34 214 193.68 214 193 C212.88625 192.5875 211.7725 192.175 210.625 191.75 C209.8928125 191.47027344 209.160625 191.19054687 208.40625 190.90234375 C206.81212186 190.3045457 205.20759668 189.73372161 203.59375 189.19140625 C194.504916 185.9556663 187.53822906 179.974111 181 173 C181.15210009 181.8218052 184.91672296 188.42754858 189 196 C189.67267744 197.33031097 190.34259924 198.66207382 191 200 C190.20078125 200.72960937 189.4015625 201.45921875 188.578125 202.2109375 C181.98306348 208.41365252 176.38022825 214.81407661 171.375 222.375 C170.8790332 223.12313965 170.38306641 223.8712793 169.87207031 224.64208984 C167.09444151 228.96038956 164.87861014 233.22152185 163 238 C162.34 238 161.68 238 161 238 C160.34 240.31 159.68 242.62 159 245 C158.34 245 157.68 245 157 245 C156.56171875 244.04222656 156.1234375 243.08445312 155.671875 242.09765625 C148.02920308 225.86419238 138.20547335 212.15184516 125 200 C126.42929689 196.99095392 128.11394715 194.28405016 129.9375 191.5 C133.71114029 185.29056255 136 178.31268976 136 171 C135.41605469 171.74443359 135.41605469 171.74443359 134.8203125 172.50390625 C130.19595278 178.1192002 125.12361541 182.11120886 119 186 C117.72962891 186.81984375 117.72962891 186.81984375 116.43359375 187.65625 C113.33206584 189.36881116 110.49783899 189.65707461 107 190 C107 190.66 107 191.32 107 192 C104.69 192.33 102.38 192.66 100 193 C102.56477957 195.68581412 105.11606036 197.80499514 108.1875 199.875 C112.39387558 203.09081948 115.15604431 206.66441667 118 211.0625 C118.38567139 211.65208496 118.77134277 212.24166992 119.16870117 212.84912109 C121.45183469 216.54110625 122.57965265 219.68487169 123 224 C119.48840313 222.69891685 116.27322282 221.07993034 112.99121094 219.28393555 C99.65588224 212.13518656 85.27776041 208.50720334 70.3125 206.75 C58.25955328 205.30011368 47.21360789 200.69129898 36.01025391 196.20288086 C34.07697226 195.43035218 32.13691646 194.67445095 30.18896484 193.93969727 C19.42974402 189.84185675 9.55940223 182.60759503 3 173 C3 172.01 3 171.02 3 170 C12.57 170 22.14 170 32 170 C24.30457658 166.04993267 24.30457658 166.04993267 16.5 163 C11.06646921 161.08317108 6.09352871 158.6811496 1 156 C-0.41769756 155.26900506 -1.83569325 154.53858818 -3.25390625 153.80859375 C-28.50485383 140.7452347 -52.43827859 125.9417981 -73.3046875 106.484375 C-75.44517791 104.51140123 -77.61295697 102.59998608 -79.81640625 100.69921875 C-84.07285099 96.98783096 -88.08204646 93.06611815 -92.0625 89.0625 C-92.73087891 88.39798828 -93.39925781 87.73347656 -94.08789062 87.04882812 C-98.59662055 82.53133488 -102.85955664 77.8561512 -107 73 C-107.5153833 72.39567139 -108.0307666 71.79134277 -108.56176758 71.16870117 C-110.00375025 69.47015642 -111.4405516 67.76741004 -112.875 66.0625 C-115.83942709 62.44147882 -115.83942709 62.44147882 -119 59 C-119.21820385 56.97233316 -119.37221021 54.93770994 -119.5 52.90234375 C-119.58185547 51.63318115 -119.66371094 50.36401855 -119.74804688 49.05639648 C-119.78921631 48.38325409 -119.83038574 47.71011169 -119.87280273 47.01657104 C-120.00005439 44.93661104 -120.13309574 42.85709192 -120.26757812 40.77758789 C-120.62883292 35.15512468 -120.97765914 29.5321681 -121.28125 23.90625 C-121.67468246 16.76826108 -122.40590861 9.84786651 -123.58984375 2.796875 C-124.07856849 -0.5357623 -124.15619421 -3.64182445 -124 -7 C-88.19483554 -17.86942492 -35.19302445 -8.72554325 0 0 Z " fill="#020100" transform="translate(292,579)"/>
<path d="M0 0 C1.38659966 0.00307011 2.77320244 0.00493669 4.1598053 0.00567627 C7.04668252 0.0102416 9.93327494 0.02451552 12.82006836 0.046875 C16.48192122 0.07512674 20.14355135 0.08608951 23.80550289 0.0905571 C27.34952932 0.09576449 30.89350282 0.11024669 34.4375 0.125 C35.73268051 0.12924988 37.02786102 0.13349976 38.36228943 0.13787842 C61.06448549 0.31354683 61.06448549 0.31354683 68.28515625 3.328125 C69.6484375 6.06640625 69.6484375 6.06640625 70.59765625 9.640625 C72.54648688 16.35724976 75.00532861 22.72374659 77.78515625 29.140625 C78.15294189 29.99889893 78.52072754 30.85717285 78.8996582 31.74145508 C81.15148019 36.9286612 83.59007102 41.98927645 86.15014648 47.03076172 C87.09744334 48.94817694 87.95497897 50.90960253 88.7890625 52.87890625 C90.68178572 57.24254752 92.91826795 61.357894 95.22265625 65.515625 C95.70355713 66.38421143 96.18445801 67.25279785 96.67993164 68.14770508 C105.40809625 83.80652019 114.66561822 98.8792112 125.28515625 113.328125 C126.03563232 114.35679687 126.03563232 114.35679687 126.80126953 115.40625 C135.62799466 127.48164124 145.05293233 138.8810079 155.12109375 149.9453125 C156.5544229 151.5235269 157.97652405 153.11201785 159.38671875 154.7109375 C168.06761062 164.52823703 177.27044054 173.86926691 187.28515625 182.328125 C188.27515625 183.19566406 189.26515625 184.06320312 190.28515625 184.95703125 C208.09898861 200.53344004 227.22667257 214.10601058 247.34326172 226.53344727 C248.50559326 227.25552368 248.50559326 227.25552368 249.69140625 227.9921875 C250.38556641 228.41967285 251.07972656 228.8471582 251.79492188 229.28759766 C252.28669922 229.63097168 252.77847656 229.9743457 253.28515625 230.328125 C253.28515625 230.658125 253.28515625 230.988125 253.28515625 231.328125 C252.43211914 231.39805664 251.57908203 231.46798828 250.70019531 231.54003906 C235.30689215 232.82109801 219.95548131 234.20675363 204.66015625 236.390625 C203.51321289 236.55272461 202.36626953 236.71482422 201.18457031 236.88183594 C195.72540038 237.69029817 190.55330289 238.69341979 185.28515625 240.328125 C183.85193789 240.62077168 182.41442834 240.89354165 180.97265625 241.140625 C175.23038822 242.2452445 169.64693805 243.84594532 164.02661133 245.44287109 C159.75552478 246.65380331 155.48835022 247.77226901 151.16015625 248.765625 C144.30088757 250.44486505 137.80019114 253.00761731 131.23388672 255.57275391 C129.40423947 256.28196571 127.56565023 256.96798509 125.7265625 257.65234375 C119.95935488 259.80570631 114.42045813 262.10901138 108.9921875 265.01953125 C106.58049624 266.18535603 104.18532375 267.15231363 101.6875 268.11328125 C95.90468352 270.4013463 90.4892693 273.22577853 85.03515625 276.203125 C83.99738037 276.76902344 82.95960449 277.33492187 81.89038086 277.91796875 C63.59073672 288.02351448 46.71858945 299.58137844 30.4140625 312.625 C29.62902344 313.24890625 28.84398437 313.8728125 28.03515625 314.515625 C27.41125 315.02480469 26.78734375 315.53398438 26.14453125 316.05859375 C23.81890384 317.64646961 22.05039628 318.69191188 19.28515625 319.328125 C16.734375 317.9765625 16.734375 317.9765625 13.97265625 315.703125 C12.90546394 314.852217 11.8377274 314.00199124 10.76953125 313.15234375 C10.20427734 312.69263184 9.63902344 312.23291992 9.05664062 311.75927734 C-1.91595604 302.89470159 -13.44307495 295.06256916 -25.46777344 287.70361328 C-27.54821075 286.43012525 -29.62040492 285.1442197 -31.69140625 283.85546875 C-39.88579172 278.80055988 -48.3040438 274.38150769 -56.96533203 270.18310547 C-59.31523686 269.03471491 -61.63831861 267.83552831 -63.96484375 266.640625 C-68.53708611 264.35064864 -73.22354955 262.38795281 -77.95703125 260.45703125 C-80.1659479 259.55281466 -82.34814243 258.61295922 -84.52734375 257.640625 C-87.22815369 256.52852679 -89.86807442 255.71347951 -92.67358398 254.9284668 C-95.72250667 254.03176773 -98.72011596 252.99475058 -101.72729492 251.96801758 C-119.98013565 245.75069168 -137.64938444 240.83430206 -156.7890625 238.1875 C-161.38802446 237.54997978 -165.91067714 236.72043347 -170.45581055 235.77880859 C-184.98991716 232.8792127 -199.95494906 232.76585063 -214.71484375 232.328125 C-211.73208996 229.24869322 -208.9742684 227.15995693 -205.21484375 225.078125 C-190.21187222 216.52316182 -176.05472335 206.28358168 -162.71484375 195.328125 C-161.82152344 194.60882813 -160.92820312 193.88953125 -160.0078125 193.1484375 C-154.58799251 188.7671005 -149.32166173 184.26203856 -144.171875 179.56640625 C-142.55506033 178.09353693 -140.92765075 176.63220075 -139.2890625 175.18359375 C-130.50503782 167.4082609 -122.01447899 159.24596283 -114.41015625 150.30078125 C-112.45932592 148.03080587 -110.43040457 145.84181297 -108.40234375 143.640625 C-103.6143631 138.33327018 -99.29362714 132.71527732 -94.99414062 127.01464844 C-93.70937029 125.32090923 -92.41029286 123.63926508 -91.10546875 121.9609375 C-78.81477501 106.15100459 -67.79905102 89.36186674 -58.21484375 71.765625 C-56.50248911 68.62814941 -54.62986252 65.70003624 -52.58984375 62.765625 C-50.30001451 59.39788632 -48.78080213 56.25394898 -47.484375 52.41015625 C-46.60349975 50.02687449 -45.50334305 47.83668246 -44.33984375 45.578125 C-40.50032238 38.06098978 -37.37413824 30.24088292 -34.4609375 22.32421875 C-33.25523744 19.09849765 -31.98167492 15.90327301 -30.65234375 12.7265625 C-29.68473568 10.41252297 -29.68473568 10.41252297 -29.21484375 8.2421875 C-28.71484375 6.390625 -28.71484375 6.390625 -26.71484375 3.328125 C-18.18332802 -0.16816339 -9.06461779 -0.08627708 0 0 Z " fill="#010100" transform="translate(429.71484375,314.671875)"/>
<path d="M0 0 C1.33780518 -0.03927612 1.33780518 -0.03927612 2.70263672 -0.0793457 C8.92844872 -0.0950001 12.98356736 1.24918697 18.3125 4.375 C22.56928149 6.46035952 26.44806761 6.72411539 31.125 6.6875 C31.83769043 6.68403564 32.55038086 6.68057129 33.28466797 6.67700195 C39.95050461 6.538925 44.29537199 5.12312138 50.04296875 1.79296875 C53.80475702 0.16151219 56.97563403 -0.08161961 61 0 C62.10432373 0.0141394 62.10432373 0.0141394 63.23095703 0.02856445 C86.74980789 0.64982646 111.72441089 6.01747685 129.3125 22.375 C134.66802468 28.04857308 137.96249016 33.95888855 140.3125 41.375 C140.65087891 42.43460938 140.65087891 42.43460938 140.99609375 43.515625 C146.60158557 64.39124972 139.94560159 87.84693417 130.375 106.4375 C120.6978407 122.97571404 106.86474071 133.64755581 88.6875 139.375 C78.50839039 141.71696056 68.54987469 141.47754983 59.3125 136.375 C54.85690699 133.46917847 51.32242469 129.66062165 49.7265625 124.46875 C47.70657041 114.25445039 50.73562365 105.9958057 56.2265625 97.3671875 C61.75505385 89.66750681 68.19459794 82.63786547 75.3125 76.375 C75.9725 76.375 76.6325 76.375 77.3125 76.375 C77.3125 75.715 77.3125 75.055 77.3125 74.375 C76.52875 74.81585937 75.745 75.25671875 74.9375 75.7109375 C70.48785979 77.75355251 66.06137863 78.8686495 61.3125 80 C60.4359375 80.2165625 59.559375 80.433125 58.65625 80.65625 C39.24302401 85.39260935 18.47440174 85.16169463 -0.6875 79.375 C-1.58178711 79.10896973 -2.47607422 78.84293945 -3.39746094 78.56884766 C-5.82913533 77.84293012 -8.25897626 77.11137706 -10.6875 76.375 C-10.06089478 76.97018433 -10.06089478 76.97018433 -9.42163086 77.57739258 C15.15244474 101.07993404 15.15244474 101.07993404 15.75 117.5625 C15.48047134 123.29447625 13.80689702 127.47304015 10.25 132 C0.64722166 139.76394844 -8.64034493 141.08211562 -20.6875 140.375 C-38.29961118 137.38903862 -52.54088208 125.44604487 -62.8203125 111.4765625 C-73.3768033 95.54147943 -77.04211107 77.25514623 -77.0625 58.375 C-77.08699219 57.18132813 -77.11148437 55.98765625 -77.13671875 54.7578125 C-77.18125147 41.19017754 -72.75734497 31.30666492 -63.796875 21.25390625 C-52.89999189 10.5857745 -38.25161826 6.06942376 -23.72314453 2.83154297 C-22.0676293 2.46025327 -20.42083106 2.05025669 -18.77734375 1.62890625 C-12.5891723 0.20690172 -6.323659 0.11161961 0 0 Z " fill="#E9BA4F" transform="translate(417.6875,936.625)"/>
<path d="M0 0 C2.04071336 4.51105058 3.74588157 9.07335088 5.375 13.75 C7.29121207 19.18119144 9.43658751 24.40566469 11.8828125 29.6171875 C12.80200053 31.57769343 13.65974322 33.56689015 14.5 35.5625 C15.74680733 38.4197668 17.08345679 41.16343621 18.5 43.9375 C20.34374838 47.56445576 21.88644459 51.14257209 23.12890625 55.015625 C24.02986816 57.22392072 24.02986816 57.22392072 25.90625 59.859375 C27.89469138 62.84203707 29.41159016 65.76199504 30.9375 69 C40.04262423 87.71308031 51.5999909 105.33454969 63.8203125 122.14453125 C65 124 65 124 65 126 C55.00769994 126.48786998 48.80468609 124.99939776 41.28515625 118.20703125 C40.86105469 117.80871094 40.43695313 117.41039062 40 117 C43.83218337 124.1769399 47.8349737 131.25112153 51.875 138.3125 C52.39457275 139.2214502 52.91414551 140.13040039 53.44946289 141.06689453 C55.79283314 145.16184158 58.14271661 149.25248809 60.51953125 153.328125 C60.89029785 153.96709717 61.26106445 154.60606934 61.64306641 155.2644043 C62.61642543 156.9401381 63.59511431 158.6127729 64.57421875 160.28515625 C65.78541871 162.5914137 66.54240484 164.45577092 67 167 C56.70252893 166.45802784 47.77350185 158.10338018 41 151 C38.16607116 147.43918681 35.53046233 143.78155684 33 140 C33 156.31229874 52.86078696 175.73090398 63 187 C63.77601563 187.75023437 64.55203125 188.50046875 65.3515625 189.2734375 C67 191 67 191 67 193 C60.29175172 193.4878726 55.87908527 192.21645607 50 189 C49.3915625 188.67257813 48.783125 188.34515625 48.15625 188.0078125 C39.95682896 182.9018094 34.88660643 173.58292253 31 165 C30.00570991 191.84583256 46.58980342 215.43266225 62.8203125 235.328125 C64 237 64 237 64 239 C56.03850893 239.65258124 50.9994485 237.66961378 44 234 C43.10152344 233.55398438 42.20304687 233.10796875 41.27734375 232.6484375 C30.17342004 226.92871853 20.65608392 218.84022743 11 211 C13.37653953 220.04482985 15.80252971 229.07020539 23.5625 234.9375 C25.95378484 236.0805134 25.95378484 236.0805134 28.48828125 236.5078125 C31.41781381 238.24821909 31.5422525 238.81752885 32.4765625 241.96484375 C32.88048914 243.61737744 33.26221809 245.27544898 33.625 246.9375 C34.03734048 248.66546485 34.45009907 250.39332997 34.86328125 252.12109375 C35.05615723 252.95882324 35.2490332 253.79655273 35.44775391 254.65966797 C36.14919012 257.63224423 36.97092675 260.56437124 37.8125 263.5 C38.59723462 266.24006784 39 268.12307434 39 271 C37.783125 271.020625 36.56625 271.04125 35.3125 271.0625 C34.62800781 271.07410156 33.94351563 271.08570313 33.23828125 271.09765625 C31 271 31 271 28.77424622 270.50099182 C25.5876944 269.92554311 22.61247748 269.88028207 19.3737793 269.88647461 C18.72931351 269.88632858 18.08484772 269.88618256 17.42085266 269.8860321 C15.30527296 269.88672494 13.18978294 269.89448769 11.07421875 269.90234375 C9.60162911 269.90421017 8.12903885 269.90563301 6.65644836 269.90663147 C2.79147612 269.91043904 -1.0734582 269.92025421 -4.93841553 269.93133545 C-8.88667284 269.9415875 -12.83493632 269.94613721 -16.78320312 269.95117188 C-24.52215265 269.96187813 -32.261071 269.97893331 -40 270 C-39.69019452 267.93020666 -39.37795434 265.86077766 -39.06469727 263.79150391 C-38.8910817 262.63905182 -38.71746613 261.48659973 -38.53858948 260.29922485 C-37.87904066 256.2590422 -36.98381021 252.32949563 -35.9375 248.375 C-35.76412109 247.69566406 -35.59074219 247.01632812 -35.41210938 246.31640625 C-33.32509085 238.20821935 -33.32509085 238.20821935 -31.109375 236.7890625 C-30.33078125 236.40492188 -29.5521875 236.02078125 -28.75 235.625 C-23.02610994 232.59951526 -17.34930008 228.185565 -15.28930664 221.79541016 C-12.26462915 205.75436051 -12.26462915 205.75436051 -15.35546875 190.21484375 C-17.13009263 188.30702514 -19.01323714 186.68233951 -21 185 C-27.28674793 176.96021658 -29.38674399 167.68441933 -32 158 C-32 164.27 -32 170.54 -32 177 C-36.34576489 174.82711755 -38.49623017 172.30936784 -41.375 168.5625 C-42.10299805 167.6202356 -42.10299805 167.6202356 -42.84570312 166.65893555 C-48.76800939 158.84676348 -53.09342498 151.2067057 -55.359375 141.60546875 C-55.96023897 138.94632105 -55.96023897 138.94632105 -57.01904297 136.26245117 C-58.7930557 130.36246808 -58.39190337 124.24160436 -58.375 118.125 C-58.37478851 117.42714386 -58.37457703 116.72928772 -58.37435913 116.01028442 C-58.34231704 105.45416061 -57.57231952 96.01420718 -54 86 C-53.63777344 84.84628906 -53.27554687 83.69257812 -52.90234375 82.50390625 C-47.8901786 67.26352613 -18.28415474 0 0 0 Z " fill="#030201" transform="translate(451,25)"/>
<path d="M0 0 C12.36282794 9.1258153 20.4212122 22.60784454 23.49609375 37.578125 C26.18435871 55.83331961 21.22488534 72.42883273 10.40625 87.171875 C1.86412589 97.56747887 -11.69673826 105.76007635 -25 108 C-36.98616711 109.05407764 -48.87743323 108.93614642 -60 104 C-60.79019531 103.649375 -61.58039063 103.29875 -62.39453125 102.9375 C-77.99141413 95.07077098 -87.50966697 81.80483801 -94 66 C-95.11253794 61.99781707 -95.69390095 58.13800563 -96 54 C-96.10441406 52.68128906 -96.10441406 52.68128906 -96.2109375 51.3359375 C-96.85147385 34.63272032 -90.96149949 20.01859979 -80.2890625 7.34765625 C-58.22841176 -15.27768692 -25.70717333 -17.06636507 0 0 Z " fill="#E7B84E" transform="translate(486,437)"/>
<path d="M0 0 C1.71123047 0.00773438 1.71123047 0.00773438 3.45703125 0.015625 C9.02161598 0.06732846 14.39469456 0.26513352 19.875 1.25 C19.875 1.91 19.875 2.57 19.875 3.25 C21.14730469 3.3221875 22.41960937 3.394375 23.73046875 3.46875 C29.43649077 4.11130497 34.07731807 6.2284023 39.1875 8.75 C40.10958252 9.19851318 41.03166504 9.64702637 41.98168945 10.10913086 C49.31760731 13.77418664 55.64038341 17.89108528 61.875 23.25 C62.72964844 23.94480469 63.58429688 24.63960937 64.46484375 25.35546875 C76.45525222 35.49835665 85.56382082 48.76522028 91.1875 63.375 C91.56986816 64.36077026 91.56986816 64.36077026 91.95996094 65.36645508 C95.19783563 74.2043511 95.00677546 82.9457722 94.9375 92.25 C94.93298828 93.40628906 94.92847656 94.56257812 94.92382812 95.75390625 C94.91212529 98.58599225 94.89572996 101.41796811 94.875 104.25 C75.5357609 108.9180922 57.66340154 108.55963747 39.78173828 99.22143555 C38.06821557 98.34843851 36.29749651 97.58994901 34.5234375 96.84765625 C29.69238547 94.73213133 25.11917956 92.22704196 20.5 89.6875 C19.53336426 89.15882324 18.56672852 88.63014648 17.57080078 88.08544922 C11.56716211 84.78419036 5.63581294 81.38128318 -0.25 77.875 C-14.17264904 68.91315417 -14.17264904 68.91315417 -30.125 67.25 C-30.88554687 67.34667969 -31.64609375 67.44335938 -32.4296875 67.54296875 C-37.65623429 68.45625807 -41.76527872 70.47316832 -46.27734375 73.2265625 C-48.125 74.25 -48.125 74.25 -50.125 74.25 C-50.8386542 52.16636737 -48.8134374 27.95389 -33.03515625 11.03125 C-23.12551555 1.79035806 -13.23809171 -0.2409664 0 0 Z " fill="#E6B240" transform="translate(334.125,639.75)"/>
<path d="M0 0 C13.94789054 -0.39820247 24.02654749 1.57747912 34.80859375 11.1484375 C49.94621842 26.51850171 51.96309623 48.55402184 51.86010742 69.01904297 C51.846235 70.72887109 51.82790113 72.43866211 51.80859375 74.1484375 C48.96494447 73.03051431 46.15616274 71.86355247 43.35546875 70.640625 C42.08996674 70.10127383 40.82433919 69.56221713 39.55859375 69.0234375 C38.63240234 68.60771484 38.63240234 68.60771484 37.6875 68.18359375 C31.73987642 65.69417605 26.32115172 64.76080063 20.18457031 67.18505859 C17.24316049 68.65784004 14.40336075 70.24678709 11.55859375 71.8984375 C10.51662842 72.48318848 9.47466309 73.06793945 8.40112305 73.67041016 C5.19228813 75.47727968 1.99953761 77.3101925 -1.19140625 79.1484375 C-3.11664232 80.24574874 -5.0424006 81.34214441 -6.96875 82.4375 C-10.49718297 84.44805053 -14.02152733 86.4655132 -17.54296875 88.48828125 C-42.67727904 102.89800835 -64.27182853 111.03991134 -93.19140625 104.1484375 C-93.7285148 75.02521837 -89.18351138 52.65196727 -68.67163086 30.58544922 C-52.96993017 14.37569757 -30.59233988 0.92963127 -7.5390625 0.171875 C-5.01944831 0.15423476 -2.51690357 0.09201949 0 0 Z " fill="#EFC86A" transform="translate(564.19140625,639.8515625)"/>
<path d="M0 0 C7.97551963 5.8671874 14.69742258 14.3584159 16.2734375 24.33984375 C17.46317 35.49358596 14.57940382 45.16928798 8.0234375 54.27734375 C1.10204324 62.4245573 -7.54294049 66.67025413 -18.12109375 67.65625 C-29.08006168 68.02431935 -37.16262172 65.45552832 -45.62109375 58.44921875 C-53.22477845 50.83142703 -57.68270715 41.0792948 -58.1015625 30.33984375 C-57.6793976 19.53242238 -53.32885513 10.86814383 -45.65625 3.296875 C-32.38286663 -7.85942751 -14.82835377 -9.02872543 0 0 Z " fill="#020200" transform="translate(470.7265625,454.66015625)"/>
<path d="M0 0 C2.02613283 1.29327628 4.02514795 2.6296945 6 4 C12.01403856 6.00467952 17.77644382 6.19618541 24.0625 6.25 C25.19606934 6.26401855 25.19606934 6.26401855 26.35253906 6.27832031 C32.89099155 6.24134777 38.88536637 5.45632797 44.5 1.875 C48.58991428 -0.31602551 51.52783307 -1.14867301 56 0 C59.03406286 1.56062429 61.88984203 3.31421925 64.78125 5.125 C69.01662133 7.5922066 73.3906829 9.21788339 77.98828125 10.8828125 C80.5380132 11.82862746 82.93091129 12.87943267 85.375 14.0625 C88.66984435 15.59159903 91.9313161 16.51239144 95.46484375 17.34570312 C102.9669068 19.12094379 109.3201461 21.55996216 115 27 C115.33 27.99 115.66 28.98 116 30 C107.89286165 29.24074667 100.04693973 27.68537982 92.08789062 25.9921875 C71.22570857 21.78641263 50.3813701 20.54132256 29.13720703 20.71875 C25.34267358 20.75026851 21.54855864 20.75978183 17.75390625 20.765625 C1.39770736 20.81680539 -14.72265046 21.18195357 -30.9375 23.5 C-31.90623047 23.63019531 -32.87496094 23.76039063 -33.87304688 23.89453125 C-38.28160817 24.14756686 -38.28160817 24.14756686 -42 26 C-43.99460976 26.32649862 -45.99621158 26.61061125 -48 26.875 C-52.95625036 27.59313946 -57.4331947 28.60557645 -62.09765625 30.4140625 C-64 31 -64 31 -68 31 C-66.33401714 26.04391028 -64.37888475 24.22364153 -60.0390625 21.48828125 C-51.99734401 17.5501132 -42.83409565 15.29381243 -34 14 C-34 13.34 -34 12.68 -34 12 C-32.96101563 11.63648438 -31.92203125 11.27296875 -30.8515625 10.8984375 C-21.32963163 7.5027723 -21.32963163 7.5027723 -12.5 2.625 C-7.96365144 -0.26730277 -5.34518954 -0.89086492 0 0 Z " fill="#080602" transform="translate(426,958)"/>
<path d="M0 0 C2.72299882 2.72299882 2.3341374 4.3914394 2.51171875 8.203125 C2.95477032 15.77457703 3.81013916 23.23425909 4.8125 30.75 C4.96525391 31.966875 5.11800781 33.18375 5.27539062 34.4375 C7.44023295 50.7978894 11.55554744 66.74748751 15.75 82.6875 C16.07531204 83.925 16.07531204 83.925 16.40719604 85.1875 C21.80214499 105.60819298 28.77218353 125.12069721 36.97900391 144.57910156 C37.91437791 146.79698023 38.83948501 149.01882192 39.76171875 151.2421875 C42.73081402 158.34887591 42.73081402 158.34887591 46.375 165.125 C48 168 48 168 48 172 C48.66 172 49.32 172 50 172 C50.25056152 172.49177734 50.50112305 172.98355469 50.75927734 173.49023438 C56.31971726 184.35389658 62.17066965 194.88537673 68.79736328 205.13427734 C69.96975273 206.95307558 71.12576737 208.78125062 72.27734375 210.61328125 C76.58752326 217.43930199 81.09650297 224.07014614 85.90234375 230.55908203 C89 234.78999708 89 234.78999708 89 237 C89.66 237 90.32 237 91 237 C92.54296875 238.64453125 92.54296875 238.64453125 94.1875 240.8125 C94.73792969 241.52019531 95.28835937 242.22789062 95.85546875 242.95703125 C96.23316406 243.63121094 96.61085938 244.30539062 97 245 C96.67 245.99 96.34 246.98 96 248 C90.93071218 241.95363856 86.07842739 235.85894933 81.625 229.34375 C79.66300975 226.51395637 77.58002073 223.79236076 75.45703125 221.08203125 C73.83534208 218.76471134 72.46261282 216.3403971 71.07788086 213.8762207 C69.65880168 211.40609081 68.13269323 209.01249163 66.60107422 206.61108398 C61.09173558 197.96749992 56.03842559 189.11679088 51.15087891 180.109375 C50.1088662 178.19953415 49.04867991 176.30151475 47.98046875 174.40625 C36.84296895 154.2634805 28.60873082 132.67509344 21 111 C20.67547852 110.08782715 20.35095703 109.1756543 20.01660156 108.23583984 C8.85802126 76.54047008 -0.50647586 38.49216522 -0.0625 4.75 C-0.05347656 3.83734375 -0.04445312 2.9246875 -0.03515625 1.984375 C-0.01775391 1.00210938 -0.01775391 1.00210938 0 0 Z " fill="#F9E4AF" transform="translate(1,735)"/>
<path d="M0 0 C0.495 0.99 0.495 0.99 1 2 C0.22265625 3.7265625 0.22265625 3.7265625 -0.9375 5.625 C-1.618125 6.73875 -2.29875 7.8525 -3 9 C-3.66 9 -4.32 9 -5 9 C-5.2371875 9.68449219 -5.474375 10.36898438 -5.71875 11.07421875 C-7.26502387 14.6051917 -9.32319784 17.65229056 -11.5 20.8125 C-16.86908609 28.75660562 -22.0543963 36.78476382 -27 45 C-27.49371094 45.81903809 -27.98742188 46.63807617 -28.49609375 47.48193359 C-38.01214942 63.4201403 -45.69899419 79.97212501 -53 97 C-53.48694336 98.12277344 -53.97388672 99.24554687 -54.47558594 100.40234375 C-61.14446446 115.79934842 -61.14446446 115.79934842 -66.16015625 131.78515625 C-67.05800227 135.22202731 -68.14200877 138.5626677 -69.25 141.9375 C-76.47008769 164.54541763 -81.73508001 187.61361623 -84.52734375 211.171875 C-85.22245121 216.80167092 -86.09863594 222.40003607 -87 228 C-87.33 228 -87.66 228 -88 228 C-88.43709794 218.14219772 -87.11856139 208.79190398 -85.4375 199.125 C-85.30306488 198.33999115 -85.16862976 197.5549823 -85.03012085 196.7461853 C-77.52437098 153.10714452 -64.47406022 110.24322913 -43.95458984 70.85791016 C-42.9809217 68.96286807 -42.04273263 67.05380238 -41.11328125 65.13671875 C-37.37258825 57.44179675 -33.3691459 49.9302041 -29.125 42.5 C-28.64828857 41.65590576 -28.17157715 40.81181152 -27.68041992 39.94213867 C-27.00716675 38.77968628 -27.00716675 38.77968628 -26.3203125 37.59375 C-25.92086426 36.89958984 -25.52141602 36.20542969 -25.10986328 35.49023438 C-24.7436084 34.99845703 -24.37735352 34.50667969 -24 34 C-23.34 34 -22.68 34 -22 34 C-21.7628125 33.1440625 -21.525625 32.288125 -21.28125 31.40625 C-19.86340259 27.63685079 -17.88899619 24.69234305 -15.5 21.5 C-14.60653908 20.27881536 -13.71331747 19.0574556 -12.8203125 17.8359375 C-12.35915039 17.21041992 -11.89798828 16.58490234 -11.42285156 15.94042969 C-9.04088008 12.69198951 -6.71052517 9.40690295 -4.375 6.125 C-3.5288816 4.93993579 -2.68254957 3.75502407 -1.8359375 2.5703125 C-1.23007813 1.72210938 -0.62421875 0.87390625 0 0 Z " fill="#F9E4AF" transform="translate(90,430)"/>
<path d="M0 0 C0.99 0.495 0.99 0.495 2 1 C-13.69967794 17.1489533 -13.69967794 17.1489533 -22 23 C-22.66 23 -23.32 23 -24 23 C-24 23.66 -24 24.32 -24 25 C-25.73212031 26.50871963 -27.54116407 27.92919907 -29.375 29.3125 C-29.95008301 29.74691406 -30.52516602 30.18132812 -31.11767578 30.62890625 C-33.07095124 32.09631024 -35.03377237 33.55000022 -37 35 C-37.70640625 35.52126465 -38.4128125 36.0425293 -39.140625 36.57958984 C-60.11605164 51.99968962 -81.7997265 66.13038077 -105 78 C-105.62793457 78.32419922 -106.25586914 78.64839844 -106.90283203 78.98242188 C-120.86555476 86.17587079 -135.04408398 92.8132591 -149.91015625 97.921875 C-152.62809389 98.87023251 -155.27850567 99.89972648 -157.9375 101 C-164.50696177 103.67324062 -171.25397228 105.82386203 -178 108 C-178.99257813 108.32484375 -179.98515625 108.6496875 -181.0078125 108.984375 C-182.30332031 109.39429688 -182.30332031 109.39429688 -183.625 109.8125 C-184.72714844 110.16248047 -184.72714844 110.16248047 -185.8515625 110.51953125 C-188.28681601 111.06414249 -190.51239239 111.08292025 -193 111 C-190.39635591 107.69960608 -187.78138775 107.28752691 -183.75 106.5 C-178.80421188 105.52477417 -174.61209697 104.02554959 -170 102 C-167.87505939 101.23706827 -165.73674059 100.52281707 -163.59545898 99.80712891 C-139.55538893 91.74908657 -115.64909128 81.52836732 -93.78515625 68.62890625 C-87.58033573 65 -87.58033573 65 -84 65 C-84 64.34 -84 63.68 -84 63 C-81.40196962 61.35136587 -78.80518816 59.81659307 -76.125 58.3125 C-69.49585297 54.49868436 -63.174663 50.51995783 -57 46 C-55.62979617 45.02088883 -54.25860687 44.04315607 -52.88671875 43.06640625 C-39.68726137 33.64387225 -26.9447784 23.98586076 -15 13 C-10.04986998 8.60890106 -5.03132188 4.29758744 0 0 Z " fill="#F9E3AE" transform="translate(761,1026)"/>
<path d="M0 0 C12.91251348 4.07763584 24.86249016 9.25659104 36.734375 15.70703125 C40.83520415 17.93220769 44.99975777 20.00697631 49.1875 22.0625 C64.51671674 29.65316722 79.04504503 38.57859052 92.9140625 48.58984375 C94.88450634 49.92192282 96.84865424 50.9924693 99 52 C99 52.66 99 53.32 99 54 C99.67546875 54.2165625 100.3509375 54.433125 101.046875 54.65625 C104.91676381 56.41715178 107.9486578 58.84933728 111.25 61.5 C111.88679687 61.99886719 112.52359375 62.49773437 113.1796875 63.01171875 C117.86505181 66.73010362 117.86505181 66.73010362 119 69 C115.11438576 68.42435345 112.95386643 66.48746646 110 64 C109.34 63.67 108.68 63.34 108 63 C108 62.34 108 61.68 108 61 C107.34386719 60.79246094 106.68773437 60.58492188 106.01171875 60.37109375 C101.8510271 58.47692673 98.45815234 55.7975253 94.8125 53.0625 C74.32244719 38.01576846 51.78725821 26.16524901 29 15 C27.62624733 14.3034934 26.25255063 13.6068764 24.87890625 12.91015625 C21.90702107 11.42134366 18.92547735 10.11057956 15.8125 8.9375 C12.2946886 7.56797037 9.22380479 5.97010293 6 4 C4.01548229 3.28856912 2.01797888 2.61008664 0 2 C0 1.34 0 0.68 0 0 Z " fill="#F9E5B2" transform="translate(612,281)"/>
<path d="M0 0 C0.495 1.485 0.495 1.485 1 3 C-11.09960938 15.09960938 -23.19921875 27.19921875 -35.29882812 39.29882812 C-35.93821823 39.93887283 -36.57760834 40.57891754 -37.2363739 41.23835754 C-38.33379763 42.33454695 -39.4335011 43.42846485 -40.53669739 44.5188446 C-43.89534769 47.84267914 -46.65306912 51.40649971 -49.44921875 55.20703125 C-49.96097656 55.79871094 -50.47273438 56.39039063 -51 57 C-51.66 57 -52.32 57 -53 57 C-53.226875 57.515625 -53.45375 58.03125 -53.6875 58.5625 C-54.83370641 60.69116905 -56.03233638 62.67970148 -57.375 64.6875 C-57.77460937 65.28949219 -58.17421875 65.89148438 -58.5859375 66.51171875 C-60.30187644 68.31772078 -61.57577643 68.61315581 -64 69 C-63.59007813 68.45730469 -63.18015625 67.91460937 -62.7578125 67.35546875 C-62.21898438 66.64003906 -61.68015625 65.92460937 -61.125 65.1875 C-60.59132813 64.47980469 -60.05765625 63.77210938 -59.5078125 63.04296875 C-58.29185219 61.39543703 -57.13583859 59.70375789 -56 58 C-55.34 58 -54.68 58 -54 58 C-53.79375 57.319375 -53.5875 56.63875 -53.375 55.9375 C-51.57104973 52.08360625 -49.0989655 48.92212236 -46 46 C-45.34 46 -44.68 46 -44 46 C-43.773125 45.46375 -43.54625 44.9275 -43.3125 44.375 C-40.43432495 39.16687372 -36.17708374 35.16627965 -32 31 C-30.2300435 29.21917256 -28.46053437 27.43790039 -26.69140625 25.65625 C-25.16990777 24.12737526 -23.6479274 22.59898206 -22.12573242 21.07080078 C-21.08446795 20.02449505 -20.04410105 18.97729528 -19.00463867 17.92919922 C-17.48597101 16.39829777 -15.96400326 14.87074229 -14.44140625 13.34375 C-13.54107666 12.43818359 -12.64074707 11.53261719 -11.71313477 10.59960938 C-3.78164914 3 -3.78164914 3 -1 3 C-0.67 2.01 -0.34 1.02 0 0 Z " fill="#F5D897" transform="translate(155,360)"/>
<path d="M0 0 C3.71429203 1.62721365 6.61641051 3.94670486 9.75 6.5 C11.22726562 7.69109375 11.22726562 7.69109375 12.734375 8.90625 C13.48203125 9.5971875 14.2296875 10.288125 15 11 C15 11.66 15 12.32 15 13 C15.8971875 13.433125 15.8971875 13.433125 16.8125 13.875 C19 15 19 15 22 17 C22 17.66 22 18.32 22 19 C22.81549316 19.32653564 22.81549316 19.32653564 23.64746094 19.65966797 C26.79135918 21.45086778 29.12947667 23.88276581 31.640625 26.4453125 C32.16767029 26.97518768 32.69471558 27.50506287 33.23773193 28.05099487 C34.91325675 29.73767825 36.58167722 31.43119564 38.25 33.125 C39.38755851 34.27259388 40.52557436 35.41973461 41.6640625 36.56640625 C44.44803465 39.37238137 47.2256576 42.18450464 50 45 C47 45 47 45 44.6484375 42.83984375 C43.77445313 41.90269531 42.90046875 40.96554687 42 40 C34.6489186 32.45943378 34.6489186 32.45943378 26.8125 25.4375 C25.884375 24.633125 24.95625 23.82875 24 23 C24 22.34 24 21.68 24 21 C23.20529297 20.66742188 23.20529297 20.66742188 22.39453125 20.328125 C19.153984 18.53075784 16.474453 16.16541288 13.6875 13.75 C13.11298096 13.25636963 12.53846191 12.76273926 11.9465332 12.25415039 C10.8108837 11.27832947 9.67632798 10.30123391 8.54296875 9.32275391 C6.6127286 7.66800056 4.64783749 6.05638527 2.6875 4.4375 C1.800625 3.633125 0.91375 2.82875 0 2 C0 1.34 0 0.68 0 0 Z " fill="#F8E1AC" transform="translate(731,350)"/>
<path d="M0 0 C0.66 0.33 1.32 0.66 2 1 C-13.69967794 17.1489533 -13.69967794 17.1489533 -22 23 C-22.66 23 -23.32 23 -24 23 C-24 23.66 -24 24.32 -24 25 C-25.90309664 26.66115258 -27.79341169 28.18075244 -29.8125 29.6875 C-30.35970703 30.11611328 -30.90691406 30.54472656 -31.47070312 30.98632812 C-33.08203125 32.19921875 -33.08203125 32.19921875 -36 34 C-36.99 33.67 -37.98 33.34 -39 33 C-38.10539063 32.31035156 -37.21078125 31.62070313 -36.2890625 30.91015625 C-28.9262531 25.20055607 -21.86128045 19.31046213 -15 13 C-10.04986998 8.60890106 -5.03132188 4.29758744 0 0 Z " fill="#F7DEA4" transform="translate(761,1026)"/>
<path d="M0 0 C1.9375 0.8125 1.9375 0.8125 4 2 C4.33 2.99 4.66 3.98 5 5 C5.66 5 6.32 5 7 5 C8.7265625 6.8984375 8.7265625 6.8984375 10.625 9.375 C11.25664063 10.18710937 11.88828125 10.99921875 12.5390625 11.8359375 C14 14 14 14 14 16 C14.66 16 15.32 16 16 16 C17.3302109 17.51227067 18.59027591 19.08669024 19.8125 20.6875 C22.69266426 24.37868524 25.59279549 27.77696871 29 31 C30.66666667 32.66666667 32.33333333 34.33333333 34 36 C33.505 36.99 33.505 36.99 33 38 C30.49195282 35.54976242 27.9949924 33.08852402 25.5 30.625 C24.78457031 29.92632813 24.06914063 29.22765625 23.33203125 28.5078125 C22.65527344 27.8375 21.97851562 27.1671875 21.28125 26.4765625 C20.65283203 25.85861816 20.02441406 25.24067383 19.37695312 24.60400391 C18 23 18 23 18 21 C17.34 21 16.68 21 16 21 C14.41466298 19.28667246 12.90458785 17.50310953 11.4375 15.6875 C10.63183594 14.70136719 9.82617188 13.71523438 8.99609375 12.69921875 C7 10 7 10 6 7 C5.34 7 4.68 7 4 7 C0 2.52941176 0 2.52941176 0 0 Z " fill="#F6DDA4" transform="translate(98,983)"/>
<path d="M0 0 C0.66 0.33 1.32 0.66 2 1 C-8.23 11.23 -18.46 21.46 -29 32 C-29.66 31.67 -30.32 31.34 -31 31 C-20.66666667 20.66666667 -10.33333333 10.33333333 0 0 Z " fill="#1F1A0E" transform="translate(163,386)"/>
<path d="M0 0 C0 4.23982678 -2.36213961 6.4927753 -4.875 9.6875 C-5.33519531 10.29400391 -5.79539062 10.90050781 -6.26953125 11.52539062 C-7.46018442 13.05943507 -8.72525403 14.53508701 -10 16 C-10.66 16 -11.32 16 -12 16 C-12.226875 16.515625 -12.45375 17.03125 -12.6875 17.5625 C-13.83370641 19.69116905 -15.03233638 21.67970148 -16.375 23.6875 C-16.77460937 24.28949219 -17.17421875 24.89148438 -17.5859375 25.51171875 C-19.30187644 27.31772078 -20.57577643 27.61315581 -23 28 C-22.59007813 27.45730469 -22.18015625 26.91460937 -21.7578125 26.35546875 C-21.21898438 25.64003906 -20.68015625 24.92460937 -20.125 24.1875 C-19.59132813 23.47980469 -19.05765625 22.77210938 -18.5078125 22.04296875 C-17.29185219 20.39543703 -16.13583859 18.70375789 -15 17 C-14.34 17 -13.68 17 -13 17 C-12.79375 16.319375 -12.5875 15.63875 -12.375 14.9375 C-10.57104973 11.08360625 -8.0989655 7.92212236 -5 5 C-4.34 5 -3.68 5 -3 5 C-2.690625 4.360625 -2.38125 3.72125 -2.0625 3.0625 C-1 1 -1 1 0 0 Z " fill="#F8E1AD" transform="translate(114,401)"/>
<path d="M0 0 C5.70295326 0.42244098 10.15947171 1.72016825 15.41015625 3.953125 C18.80835269 5.32675493 22.27417378 6.32576583 25.79296875 7.33984375 C28.26338165 8.07878141 30.63428913 8.97485862 33 10 C32.67 10.66 32.34 11.32 32 12 C21.31075752 8.73757411 10.65408604 5.37510645 0 2 C0 1.34 0 0.68 0 0 Z " fill="#F7E0A6" transform="translate(578,270)"/>
<path d="M0 0 C-3.67818592 2.10857445 -7.6041576 3.0625365 -11.6875 4.0625 C-12.75291016 4.32691895 -12.75291016 4.32691895 -13.83984375 4.59667969 C-18.88662478 5.81463004 -23.81371889 6.62955135 -29 7 C-25.90080321 3.90080321 -22.04394589 3.45817023 -17.875 2.375 C-16.62976563 2.03082031 -16.62976563 2.03082031 -15.359375 1.6796875 C-10.08024898 0.28957281 -5.45612852 -0.23941442 0 0 Z " fill="#F6DDA3" transform="translate(568,1137)"/>
<path d="M0 0 C0.66 0.33 1.32 0.66 2 1 C-4.6 7.6 -11.2 14.2 -18 21 C-18 16.81116298 -15.67400903 15.0691572 -12.9375 12.1875 C-12.43887451 11.65286133 -11.94024902 11.11822266 -11.42651367 10.56738281 C-7.83096005 6.75766304 -4.0942029 3.27536232 0 0 Z " fill="#C4A04D" transform="translate(507,660)"/>
<path d="M0 0 C3.98416091 0.54365542 5.78363228 2.43465185 8.546875 5.25390625 C9.39121094 6.10791016 10.23554687 6.96191406 11.10546875 7.84179688 C11.97816406 8.73962891 12.85085938 9.63746094 13.75 10.5625 C14.63816406 11.46419922 15.52632812 12.36589844 16.44140625 13.29492188 C18.63448315 15.52337098 20.82026044 17.75851593 23 20 C20 20 20 20 17.66015625 17.84765625 C16.78230469 16.90792969 15.90445313 15.96820313 15 15 C14.09121094 14.09121094 13.18242188 13.18242187 12.24609375 12.24609375 C8.1640625 8.1640625 4.08203125 4.08203125 0 0 Z " fill="#F5D793" transform="translate(758,375)"/>
<path d="M0 0 C1.32 0.66 2.64 1.32 4 2 C3.45859375 2.05027344 2.9171875 2.10054687 2.359375 2.15234375 C-1.12154473 3.40293908 -3.25534018 5.94016074 -5.75 8.5625 C-6.25660156 9.08263672 -6.76320313 9.60277344 -7.28515625 10.13867188 C-8.53034405 11.41910084 -9.76611502 12.70867554 -11 14 C-11 10.30159372 -10.17133056 9.68584567 -7.75 7 C-7.14671875 6.319375 -6.5434375 5.63875 -5.921875 4.9375 C-4.06233388 3.06284066 -2.15205789 1.52358081 0 0 Z " fill="#302712" transform="translate(493,828)"/>
<path d="M0 0 C10.55808656 0.96355353 10.55808656 0.96355353 15 2 C15 2.99 15 3.98 15 5 C10.71 4.34 6.42 3.68 2 3 C2 2.34 2 1.68 2 1 C1.34 0.67 0.68 0.34 0 0 Z " fill="#EFCB7D" transform="translate(354,1141)"/>
<path d="M0 0 C0.66 0.33 1.32 0.66 2 1 C-2.62 5.62 -7.24 10.24 -12 15 C-12 10.09687565 -8.29800369 7.38658643 -5 4 C-3.37458956 2.61667196 -1.72614587 1.25537882 0 0 Z " fill="#C19431" transform="translate(361,952)"/>
<path d="M0 0 C0.66 0.33 1.32 0.66 2 1 C-2.62 5.62 -7.24 10.24 -12 15 C-12.66 14.67 -13.32 14.34 -14 14 C-9.67106815 8.81580806 -5.23435005 4.27293882 0 0 Z " fill="#2B210C" transform="translate(332,929)"/>
<path d="M0 0 C0.66 0.33 1.32 0.66 2 1 C1.67 1.66 1.34 2.32 1 3 C0.34 3 -0.32 3 -1 3 C-1.268125 3.598125 -1.53625 4.19625 -1.8125 4.8125 C-2.99917406 6.99847854 -4.09599113 8.41332594 -6 10 C-6.66 10 -7.32 10 -8 10 C-8 10.66 -8 11.32 -8 12 C-8.99 12.33 -9.98 12.66 -11 13 C-10.25 10.5625 -10.25 10.5625 -9 8 C-7.67696283 7.6278958 -6.34262065 7.29369827 -5 7 C-4.30062468 5.68352881 -3.63270867 4.34977849 -3 3 C-2.01 2.67 -1.02 2.34 0 2 C0 1.34 0 0.68 0 0 Z " fill="#F8E4B7" transform="translate(774,1013)"/>
<path d="M0 0 C0.66 0.33 1.32 0.66 2 1 C-3.445 7.435 -3.445 7.435 -9 14 C-9.33 13.01 -9.66 12.02 -10 11 C-9.34 10.01 -8.68 9.02 -8 8 C-7.34 8 -6.68 8 -6 8 C-5.7525 7.4225 -5.505 6.845 -5.25 6.25 C-3.83316683 3.6997003 -2.12372463 1.98214299 0 0 Z " fill="#F6DFAC" transform="translate(795,990)"/>
<path d="M0 0 C0.66 0.33 1.32 0.66 2 1 C-1.96 4.96 -5.92 8.92 -10 13 C-10 8.41771462 -7.08388033 6.1816619 -4 3 C-1.625 1.0625 -1.625 1.0625 0 0 Z " fill="#C19640" transform="translate(307,646)"/>
<path d="M0 0 C0.66 0.33 1.32 0.66 2 1 C-2.29 5.29 -6.58 9.58 -11 14 C-11 9.82308582 -8.77013484 7.86318847 -6 5 C-4.05228995 3.24842937 -2.05675499 1.62627139 0 0 Z " fill="#C79B39" transform="translate(414,437)"/>
<path d="M0 0 C2.91517292 1.07401108 4.77810176 1.77810176 7 4 C0.4 4 -6.2 4 -13 4 C-13 3.67 -13 3.34 -13 3 C-8.38 3 -3.76 3 1 3 C0.67 2.01 0.34 1.02 0 0 Z " fill="#C2963C" transform="translate(319,746)"/>
<path d="M0 0 C-9.41002278 4.59225513 -9.41002278 4.59225513 -14 4 C-10.5440617 -0.47239075 -5.23364579 -1.61035255 0 0 Z " fill="#F6DDA1" transform="translate(582,1133)"/>
<path d="M0 0 C0.66 0.33 1.32 0.66 2 1 C-0.97 3.97 -3.94 6.94 -7 10 C-7.99 9.67 -8.98 9.34 -10 9 C-6.7 6.03 -3.4 3.06 0 0 Z " fill="#F6DB9C" transform="translate(761,1026)"/>
<path d="M0 0 C4.84395662 2.04936626 9.04201437 5.04048394 11.375 9.8125 C11.58125 10.534375 11.7875 11.25625 12 12 C11.55269531 11.61328125 11.10539063 11.2265625 10.64453125 10.828125 C10.03996094 10.30734375 9.43539062 9.7865625 8.8125 9.25 C8.17828125 8.7034375 7.5440625 8.156875 6.890625 7.59375 C5.31779514 6.26789342 3.69559234 5.00087924 2.0625 3.75 C1.381875 3.1725 0.70125 2.595 0 2 C0 1.34 0 0.68 0 0 Z " fill="#F6DA9E" transform="translate(132,1021)"/>
<path d="M0 0 C2.97 0.33 5.94 0.66 9 1 C9 1.66 9 2.32 9 3 C5.7 3 2.4 3 -1 3 C-0.67 2.01 -0.34 1.02 0 0 Z " fill="#A38030" transform="translate(414,900)"/>
<path d="M0 0 C0.66 0.33 1.32 0.66 2 1 C1.34 1.66 0.68 2.32 0 3 C1.32 3.66 2.64 4.32 4 5 C0.7 5 -2.6 5 -6 5 C-2.25 1.125 -2.25 1.125 0 0 Z " fill="#45381C" transform="translate(221,542)"/>
<path d="M0 0 C0.66 0 1.32 0 2 0 C2 3 2 3 0.46875 4.60546875 C-0.1809375 5.12753906 -0.830625 5.64960938 -1.5 6.1875 C-2.1496875 6.71730469 -2.799375 7.24710938 -3.46875 7.79296875 C-3.9740625 8.19128906 -4.479375 8.58960938 -5 9 C-5.66 8.67 -6.32 8.34 -7 8 C-5.88200014 6.66079162 -4.75538103 5.32877444 -3.625 4 C-2.68527344 2.88625 -2.68527344 2.88625 -1.7265625 1.75 C-1.15679687 1.1725 -0.58703125 0.595 0 0 Z " fill="#2F260F" transform="translate(449,25)"/>
<path d="M0 0 C4.43458973 1.3937282 6.87378374 3.60582235 10 7 C9.67 7.66 9.34 8.32 9 9 C7.49704815 7.69088122 5.99770689 6.37761608 4.5 5.0625 C3.6646875 4.33160156 2.829375 3.60070313 1.96875 2.84765625 C1.3190625 2.23792969 0.669375 1.62820313 0 1 C0 0.67 0 0.34 0 0 Z " fill="#F7DFAB" transform="translate(151,1039)"/>
<path d="M0 0 C0.33 0 0.66 0 1 0 C1.33 5.61 1.66 11.22 2 17 C1.01 16.67 0.02 16.34 -1 16 C-0.67 10.72 -0.34 5.44 0 0 Z " fill="#5A461A" transform="translate(417,185)"/>
<path d="M0 0 C0 0.66 0 1.32 0 2 C-1.53125 3.2890625 -1.53125 3.2890625 -3.5 4.625 C-4.1496875 5.07101562 -4.799375 5.51703125 -5.46875 5.9765625 C-5.9740625 6.31429687 -6.479375 6.65203125 -7 7 C-6.75 4.625 -6.75 4.625 -6 2 C-3.84898936 0.54286376 -2.59713506 0 0 0 Z " fill="#382D15" transform="translate(495,1011)"/>
<path d="M0 0 C3.375 4.5 3.375 4.5 4 8 C3.01 7.67 2.02 7.34 1 7 C0.67 7.99 0.34 8.98 0 10 C0 6.7 0 3.4 0 0 Z " fill="#B29043" transform="translate(481,188)"/>
<path d="M0 0 C2.61527381 2.36620011 4.26440562 4.942048 6 8 C5.34 8 4.68 8 4 8 C3.67 8.66 3.34 9.32 3 10 C0 3.375 0 3.375 0 0 Z " fill="#B39244" transform="translate(482,162)"/>
<path d="M0 0 C0.99 0.33 1.98 0.66 3 1 C0.36 2.98 -2.28 4.96 -5 7 C-4 3 -4 3 -2.125 1.1875 C-1.42375 0.795625 -0.7225 0.40375 0 0 Z " fill="#F8E4B5" transform="translate(750,1036)"/>
<path d="M0 0 C2.93200474 2.85276137 5.64315404 5.65079784 8 9 C6.25 8.875 6.25 8.875 4 8 C0 2.77777778 0 2.77777778 0 0 Z " fill="#F7E1AF" transform="translate(782,397)"/>
<path d="M0 0 C6.15234375 0.5859375 6.15234375 0.5859375 8 1 C8.33 1.66 8.66 2.32 9 3 C6.03 2.67 3.06 2.34 0 2 C0 1.34 0 0.68 0 0 Z " fill="#F8E3AF" transform="translate(578,270)"/>
<path d="M0 0 C-3.53411321 2.12046792 -6.94393835 2.53199289 -11 3 C-8.21756596 -1.17365106 -4.53441502 -0.22300402 0 0 Z " fill="#F8E3B4" transform="translate(568,1137)"/>
<path d="M0 0 C4 0 4 0 6.25 1.875 C8 4 8 4 8 6 C4.08597051 4.73058503 2.20927127 3.48832306 0 0 Z " fill="#F7E1B1" transform="translate(161,1048)"/>
<path d="M0 0 C1.32 0.33 2.64 0.66 4 1 C1.03 3.475 1.03 3.475 -2 6 C-2 3 -2 3 0 0 Z " fill="#EFCC7E" transform="translate(399,245)"/>
<path d="M0 0 C2.12046792 3.53411321 2.53199289 6.94393835 3 11 C1.5 10 1.5 10 0 8 C-0.27345479 5.28153765 -0.13491285 2.74322801 0 0 Z " fill="#F5DCAA" transform="translate(885,584)"/>
<path d="M0 0 C0.99 0 1.98 0 3 0 C3 0.66 3 1.32 3 2 C4.32 2.66 5.64 3.32 7 4 C7 4.99 7 5.98 7 7 C5.83040013 6.02433888 4.66438823 5.044375 3.5 4.0625 C2.8503125 3.51722656 2.200625 2.97195313 1.53125 2.41015625 C1.0259375 1.94480469 0.520625 1.47945313 0 1 C0 0.67 0 0.34 0 0 Z " fill="#F6DB9C" transform="translate(743,361)"/>
</svg>
