<?xml version="1.0" encoding="UTF-8"?>
<svg version="1.1" xmlns="http://www.w3.org/2000/svg" width="900" height="792">
<path d="M0 0 C0 156.42 0 312.84 0 474 C-7.78148647 477.24228603 -15.4596653 480.3243599 -23.40234375 483.08203125 C-24.46145462 483.45311508 -25.52056549 483.82419891 -26.61177063 484.20652771 C-28.877003 484.99983642 -31.1427792 485.79159372 -33.40905762 486.58190918 C-39.4666239 488.69456532 -45.52002644 490.81910526 -51.57421875 492.94140625 C-52.79730743 493.36976776 -54.02039612 493.79812927 -55.2805481 494.23947144 C-66.61527306 498.21056428 -77.9354694 502.22178293 -89.25 506.25 C-90.16800385 506.57662628 -91.08600769 506.90325256 -92.03182983 507.23977661 C-101.7330833 510.69167469 -111.43114126 514.15239007 -121.125 517.625 C-124.4998941 518.83362929 -127.87489672 520.04195497 -131.25 521.25 C-132.09150604 521.55123779 -132.93301208 521.85247559 -133.80001831 522.1628418 C-150.66361728 528.19599226 -167.56688588 534.11445482 -184.47180176 540.03063965 C-202.93190451 546.49348705 -221.35642879 553.04951106 -239.75939941 559.67312622 C-258.36515447 566.36760168 -277.01541156 572.92896154 -295.6817627 579.45233154 C-311.7448269 585.06875512 -327.76904428 590.77905797 -343.75 596.625 C-356.19405889 601.17644869 -368.64877382 605.66163363 -381.18847656 609.9440918 C-393.65032951 614.20485702 -406.07607922 618.56750132 -418.5 622.9375 C-419.65976349 623.34538757 -420.81952698 623.75327515 -422.01443481 624.17352295 C-440.22417839 630.58158218 -458.40298254 637.07307088 -476.56732178 643.60858154 C-489.37844564 648.21671508 -502.20140945 652.7886265 -515.05078125 657.2890625 C-515.68205492 657.51021036 -516.31332859 657.73135822 -516.96373177 657.95920753 C-523.65904449 660.3042203 -530.35634994 662.64346049 -537.0559082 664.97631836 C-549.63504824 669.36446192 -562.16540724 673.86134803 -574.64175415 678.53468323 C-581.99418665 681.28402577 -589.38478745 683.89882381 -596.8125 686.4375 C-597.85527351 686.79504868 -597.85527351 686.79504868 -598.91911316 687.15982056 C-600.63976792 687.7494028 -602.36089263 688.33761301 -604.08203125 688.92578125 C-615.74467513 692.92514655 -627.37036657 697.03089487 -639 701.125 C-640.74919235 701.74077408 -640.74919235 701.74077408 -642.53372192 702.36898804 C-669.1230961 711.73241047 -695.68965598 721.1599456 -722.23046875 730.66015625 C-725.63276596 731.87773427 -729.03512592 733.0951368 -732.4375 734.3125 C-733.69554443 734.76278564 -733.69554443 734.76278564 -734.97900391 735.22216797 C-751.72173142 741.21245042 -768.4997458 747.1011016 -785.2789917 752.98815918 C-799.57188599 758.00502428 -813.8338441 763.08655087 -828.03759766 768.3503418 C-837.37745222 771.80179146 -846.77505104 775.06829911 -856.19946289 778.28100586 C-862.44374394 780.41327254 -868.66800273 782.58826149 -874.8671875 784.84765625 C-875.51096344 785.08144485 -876.15473938 785.31523346 -876.81802368 785.55610657 C-879.90917536 786.67900603 -882.99712741 787.80943135 -886.08056641 788.95336914 C-887.17804199 789.35289795 -888.27551758 789.75242676 -889.40625 790.1640625 C-890.36853516 790.51936035 -891.33082031 790.8746582 -892.32226562 791.24072266 C-895 792 -895 792 -900 792 C-900 635.58 -900 479.16 -900 318 C-878.16430784 309.95527131 -878.16430784 309.95527131 -870.98828125 307.4140625 C-870.14758591 307.11531219 -869.30689056 306.81656189 -868.4407196 306.50875854 C-865.73169932 305.54641374 -863.02211302 304.58567447 -860.3125 303.625 C-858.35609155 302.93041809 -856.39971207 302.23575455 -854.44335938 301.54101562 C-838.28194192 295.80333282 -822.11525266 290.08050073 -805.94848633 284.35791016 C-792.46157141 279.58339679 -778.97930433 274.79595399 -765.5 270 C-748.99500954 264.12750295 -732.48383405 258.27267334 -715.96923828 252.42724609 C-701.47524505 247.29673244 -686.98570474 242.15386694 -672.5 237 C-657.42039479 231.63528575 -642.33746622 226.28006844 -627.25 220.9375 C-626.2830722 220.59510284 -625.31614441 220.25270569 -624.31991577 219.89993286 C-612.2694967 215.63313788 -600.21798502 211.36943281 -588.16614914 207.10664177 C-581.88155104 204.88373131 -575.59701577 202.66064321 -569.3125 200.4375 C-568.61184921 200.1896513 -567.91119843 199.9418026 -567.1893158 199.68644333 C-548.75212922 193.1643676 -530.31880594 186.63167873 -511.89477539 180.07250977 C-496.51170813 174.59645278 -481.11893975 169.14801283 -465.72426796 163.70469189 C-434.85094973 152.79010739 -434.85094973 152.79010739 -404 141.8125 C-402.74609467 141.36481262 -402.74609467 141.36481262 -401.46685791 140.90808105 C-390.88501917 137.12753739 -380.32016966 133.30236111 -369.76553345 129.44659424 C-358.33867786 125.27242647 -346.88382486 121.20071821 -335.3737793 117.26025391 C-322.72720483 112.92366529 -310.11210988 108.49821514 -297.5 104.0625 C-296.34123352 103.65497498 -295.18246704 103.24744995 -293.98858643 102.82757568 C-275.77783863 96.41914281 -257.59802547 89.9272918 -239.43267822 83.39141846 C-226.62155436 78.78328492 -213.79859055 74.2113735 -200.94921875 69.7109375 C-200.31794508 69.48978964 -199.68667141 69.26864178 -199.03626823 69.04079247 C-192.34095551 66.6957797 -185.64365006 64.35653951 -178.9440918 62.02368164 C-166.37587264 57.63934246 -153.85623503 53.1469039 -141.39120483 48.4763031 C-133.90457431 45.67642472 -126.37650785 43.02072456 -118.8125 40.4375 C-118.10644119 40.19561951 -117.40038239 39.95373901 -116.67292786 39.70452881 C-114.96969378 39.12132276 -113.26610452 38.53915431 -111.5625 37.95703125 C-100.78451392 34.25960587 -90.05106136 30.43501935 -79.3125 26.625 C-78.27847046 26.25820129 -77.24444092 25.89140259 -76.17907715 25.51348877 C-72.0504273 24.04887672 -67.92183435 22.5841046 -63.793396 21.11889648 C-54.55333015 17.83997633 -45.30886102 14.57361963 -36.0625 11.3125 C-34.75626618 10.85172554 -33.45003245 10.39095081 -32.14379883 9.93017578 C-29.69689513 9.06712742 -27.24940535 8.20573849 -24.80126953 7.34619141 C-22.00404324 6.36078484 -19.21565963 5.35283763 -16.42919922 4.33740234 C-15.65974472 4.05946335 -14.89029022 3.78152435 -14.09751892 3.49516296 C-12.60619686 2.95621438 -11.11663777 2.41235426 -9.62916565 1.86286926 C-6.17937398 0.62199226 -3.71504535 0 0 0 Z " fill="#020100" transform="translate(900,0)"/>
<path d="M0 0 C0 156.42 0 312.84 0 474 C-7.78148647 477.24228603 -15.4596653 480.3243599 -23.40234375 483.08203125 C-24.46145462 483.45311508 -25.52056549 483.82419891 -26.61177063 484.20652771 C-28.877003 484.99983642 -31.1427792 485.79159372 -33.40905762 486.58190918 C-39.4666239 488.69456532 -45.52002644 490.81910526 -51.57421875 492.94140625 C-52.79730743 493.36976776 -54.02039612 493.79812927 -55.2805481 494.23947144 C-66.61527306 498.21056428 -77.9354694 502.22178293 -89.25 506.25 C-90.16800385 506.57662628 -91.08600769 506.90325256 -92.03182983 507.23977661 C-101.7330833 510.69167469 -111.43114126 514.15239007 -121.125 517.625 C-124.4998941 518.83362929 -127.87489672 520.04195497 -131.25 521.25 C-132.09150604 521.55123779 -132.93301208 521.85247559 -133.80001831 522.1628418 C-150.66361728 528.19599226 -167.56688588 534.11445482 -184.47180176 540.03063965 C-202.93190451 546.49348705 -221.35642879 553.04951106 -239.75939941 559.67312622 C-258.36515447 566.36760168 -277.01541156 572.92896154 -295.6817627 579.45233154 C-311.7448269 585.06875512 -327.76904428 590.77905797 -343.75 596.625 C-356.19405889 601.17644869 -368.64877382 605.66163363 -381.18847656 609.9440918 C-393.65032951 614.20485702 -406.07607922 618.56750132 -418.5 622.9375 C-419.65976349 623.34538757 -420.81952698 623.75327515 -422.01443481 624.17352295 C-440.22417839 630.58158218 -458.40298254 637.07307088 -476.56732178 643.60858154 C-489.37844564 648.21671508 -502.20140945 652.7886265 -515.05078125 657.2890625 C-515.68205492 657.51021036 -516.31332859 657.73135822 -516.96373177 657.95920753 C-523.65904449 660.3042203 -530.35634994 662.64346049 -537.0559082 664.97631836 C-549.63504824 669.36446192 -562.16540724 673.86134803 -574.64175415 678.53468323 C-581.99418665 681.28402577 -589.38478745 683.89882381 -596.8125 686.4375 C-597.85527351 686.79504868 -597.85527351 686.79504868 -598.91911316 687.15982056 C-600.63976792 687.7494028 -602.36089263 688.33761301 -604.08203125 688.92578125 C-615.74467513 692.92514655 -627.37036657 697.03089487 -639 701.125 C-640.74919235 701.74077408 -640.74919235 701.74077408 -642.53372192 702.36898804 C-669.1230961 711.73241047 -695.68965598 721.1599456 -722.23046875 730.66015625 C-725.63276596 731.87773427 -729.03512592 733.0951368 -732.4375 734.3125 C-733.69554443 734.76278564 -733.69554443 734.76278564 -734.97900391 735.22216797 C-751.72173142 741.21245042 -768.4997458 747.1011016 -785.2789917 752.98815918 C-799.57188599 758.00502428 -813.8338441 763.08655087 -828.03759766 768.3503418 C-837.37745222 771.80179146 -846.77505104 775.06829911 -856.19946289 778.28100586 C-862.44374394 780.41327254 -868.66800273 782.58826149 -874.8671875 784.84765625 C-875.51096344 785.08144485 -876.15473938 785.31523346 -876.81802368 785.55610657 C-879.90917536 786.67900603 -882.99712741 787.80943135 -886.08056641 788.95336914 C-887.17804199 789.35289795 -888.27551758 789.75242676 -889.40625 790.1640625 C-890.36853516 790.51936035 -891.33082031 790.8746582 -892.32226562 791.24072266 C-895 792 -895 792 -900 792 C-900 635.58 -900 479.16 -900 318 C-878.16430784 309.95527131 -878.16430784 309.95527131 -870.98828125 307.4140625 C-870.14758591 307.11531219 -869.30689056 306.81656189 -868.4407196 306.50875854 C-865.73169932 305.54641374 -863.02211302 304.58567447 -860.3125 303.625 C-858.35609155 302.93041809 -856.39971207 302.23575455 -854.44335938 301.54101562 C-838.28194192 295.80333282 -822.11525266 290.08050073 -805.94848633 284.35791016 C-792.46157141 279.58339679 -778.97930433 274.79595399 -765.5 270 C-748.99500954 264.12750295 -732.48383405 258.27267334 -715.96923828 252.42724609 C-701.47524505 247.29673244 -686.98570474 242.15386694 -672.5 237 C-657.42039479 231.63528575 -642.33746622 226.28006844 -627.25 220.9375 C-626.2830722 220.59510284 -625.31614441 220.25270569 -624.31991577 219.89993286 C-612.2694967 215.63313788 -600.21798502 211.36943281 -588.16614914 207.10664177 C-581.88155104 204.88373131 -575.59701577 202.66064321 -569.3125 200.4375 C-568.61184921 200.1896513 -567.91119843 199.9418026 -567.1893158 199.68644333 C-548.75212922 193.1643676 -530.31880594 186.63167873 -511.89477539 180.07250977 C-496.51170813 174.59645278 -481.11893975 169.14801283 -465.72426796 163.70469189 C-434.85094973 152.79010739 -434.85094973 152.79010739 -404 141.8125 C-402.74609467 141.36481262 -402.74609467 141.36481262 -401.46685791 140.90808105 C-390.88501917 137.12753739 -380.32016966 133.30236111 -369.76553345 129.44659424 C-358.33867786 125.27242647 -346.88382486 121.20071821 -335.3737793 117.26025391 C-322.72720483 112.92366529 -310.11210988 108.49821514 -297.5 104.0625 C-296.34123352 103.65497498 -295.18246704 103.24744995 -293.98858643 102.82757568 C-275.77783863 96.41914281 -257.59802547 89.9272918 -239.43267822 83.39141846 C-226.62155436 78.78328492 -213.79859055 74.2113735 -200.94921875 69.7109375 C-200.31794508 69.48978964 -199.68667141 69.26864178 -199.03626823 69.04079247 C-192.34095551 66.6957797 -185.64365006 64.35653951 -178.9440918 62.02368164 C-166.37587264 57.63934246 -153.85623503 53.1469039 -141.39120483 48.4763031 C-133.90457431 45.67642472 -126.37650785 43.02072456 -118.8125 40.4375 C-118.10644119 40.19561951 -117.40038239 39.95373901 -116.67292786 39.70452881 C-114.96969378 39.12132276 -113.26610452 38.53915431 -111.5625 37.95703125 C-100.78451392 34.25960587 -90.05106136 30.43501935 -79.3125 26.625 C-78.27847046 26.25820129 -77.24444092 25.89140259 -76.17907715 25.51348877 C-72.0504273 24.04887672 -67.92183435 22.5841046 -63.793396 21.11889648 C-54.55333015 17.83997633 -45.30886102 14.57361963 -36.0625 11.3125 C-34.75626618 10.85172554 -33.45003245 10.39095081 -32.14379883 9.93017578 C-29.69689513 9.06712742 -27.24940535 8.20573849 -24.80126953 7.34619141 C-22.00404324 6.36078484 -19.21565963 5.35283763 -16.42919922 4.33740234 C-15.65974472 4.05946335 -14.89029022 3.78152435 -14.09751892 3.49516296 C-12.60619686 2.95621438 -11.11663777 2.41235426 -9.62916565 1.86286926 C-6.17937398 0.62199226 -3.71504535 0 0 0 Z M-34.125 36.8125 C-35.22714844 37.20405273 -35.22714844 37.20405273 -36.3515625 37.60351562 C-39.82785127 38.84286153 -43.29263962 40.10605408 -46.7421875 41.41796875 C-53.58604378 43.99773222 -60.52889556 46.30754575 -67.4453125 48.68359375 C-73.3299093 50.71111724 -79.1815034 52.79036419 -85 55 C-89.65918625 56.68762342 -94.32970458 58.34340223 -99 60 C-99.95326172 60.33837891 -99.95326172 60.33837891 -100.92578125 60.68359375 C-107.91430026 63.16248727 -114.90874534 65.6236288 -121.9140625 68.0546875 C-122.93250244 68.40813232 -123.95094238 68.76157715 -125.00024414 69.12573242 C-126.99388192 69.81698098 -128.98784357 70.50729639 -130.98217773 71.1965332 C-134.99265671 72.58645532 -138.9961738 73.98264361 -142.96484375 75.48828125 C-149.0964245 77.81287011 -155.31345383 79.90062091 -161.51171875 82.0390625 C-167.03888592 83.95203185 -172.53012341 85.92921957 -178 88 C-182.65918625 89.68762342 -187.32970458 91.34340223 -192 93 C-192.95326172 93.33837891 -192.95326172 93.33837891 -193.92578125 93.68359375 C-200.91430026 96.16248727 -207.90874534 98.6236288 -214.9140625 101.0546875 C-215.93250244 101.40813232 -216.95094238 101.76157715 -218.00024414 102.12573242 C-219.99388192 102.81698098 -221.98784357 103.50729639 -223.98217773 104.1965332 C-224.90716064 104.51710693 -225.83214355 104.83768066 -226.78515625 105.16796875 C-227.59863525 105.44922607 -228.41211426 105.7304834 -229.25024414 106.02026367 C-231.43956622 106.80031779 -233.61472493 107.6042132 -235.78881836 108.42504883 C-240.03546634 110.02399824 -244.30995045 111.53518358 -248.59375 113.03125 C-249.38471069 113.30843872 -250.17567139 113.58562744 -250.99060059 113.87121582 C-254.33589249 115.04352863 -257.68189312 116.21381272 -261.02783203 117.38427734 C-263.48755332 118.24506004 -265.946908 119.10688434 -268.40625 119.96875 C-269.14919312 120.22821411 -269.89213623 120.48767822 -270.65759277 120.75500488 C-275.46385578 122.43948718 -280.2348505 124.20247814 -285 126 C-287.5184897 126.90345821 -290.03826641 127.80048948 -292.5625 128.6875 C-293.27140381 128.93733643 -293.98030762 129.18717285 -294.71069336 129.44458008 C-299.11598099 130.99444079 -303.52565896 132.53139835 -307.9375 134.0625 C-308.95255615 134.41481689 -309.9676123 134.76713379 -311.01342773 135.13012695 C-313.00216726 135.81979233 -314.9912468 136.50847825 -316.98071289 137.19604492 C-322.35101218 139.05720636 -327.6843231 140.98835906 -333 143 C-342.57248553 146.48650374 -352.19935719 149.81884878 -361.82836914 153.14526367 C-366.61107775 154.80174593 -371.37235724 156.49508274 -376.10498047 158.28955078 C-379.4271028 159.53502566 -382.77687848 160.70163311 -386.125 161.875 C-391.29719886 163.69328982 -396.46527708 165.5215073 -401.625 167.375 C-409.00812309 170.01918827 -416.41809336 172.58536812 -423.83056641 175.14599609 C-427.86445588 176.54316672 -431.89260692 177.9429472 -435.8828125 179.4609375 C-442.67559479 182.03703219 -449.57539047 184.32351849 -456.4453125 186.68359375 C-462.3299093 188.71111724 -468.1815034 190.79036419 -474 193 C-478.65918625 194.68762342 -483.32970458 196.34340223 -488 198 C-488.95326172 198.33837891 -488.95326172 198.33837891 -489.92578125 198.68359375 C-496.91430026 201.16248727 -503.90874534 203.6236288 -510.9140625 206.0546875 C-511.93250244 206.40813232 -512.95094238 206.76157715 -514.00024414 207.12573242 C-515.99388192 207.81698098 -517.98784357 208.50729639 -519.98217773 209.1965332 C-523.99265671 210.58645532 -527.9961738 211.98264361 -531.96484375 213.48828125 C-538.0964245 215.81287011 -544.31345383 217.90062091 -550.51171875 220.0390625 C-556.03888592 221.95203185 -561.53012341 223.92921957 -567 226 C-571.65918625 227.68762342 -576.32970458 229.34340223 -581 231 C-581.95326172 231.33837891 -581.95326172 231.33837891 -582.92578125 231.68359375 C-589.91430026 234.16248727 -596.90874534 236.6236288 -603.9140625 239.0546875 C-604.93250244 239.40813232 -605.95094238 239.76157715 -607.00024414 240.12573242 C-608.99388192 240.81698098 -610.98784357 241.50729639 -612.98217773 242.1965332 C-618.35197801 244.05755884 -623.68480534 245.98854156 -629 248 C-638.57248553 251.48650374 -648.19935719 254.81884878 -657.82836914 258.14526367 C-659.23977173 258.63410034 -659.23977173 258.63410034 -660.6796875 259.1328125 C-661.92854736 259.56424561 -661.92854736 259.56424561 -663.20263672 260.00439453 C-665.42638885 260.7958469 -667.63612375 261.61087103 -669.84448242 262.44360352 C-673.81451207 263.93861571 -677.80588853 265.36471817 -681.80859375 266.76953125 C-682.53485458 267.02515335 -683.26111542 267.28077545 -684.00938416 267.54414368 C-686.33922798 268.3637952 -688.66954151 269.18209784 -691 270 C-691.77611633 270.27245544 -692.55223267 270.54491089 -693.35186768 270.82562256 C-699.74144297 273.06831242 -706.13120666 275.31047427 -712.5222168 277.54907227 C-714.92264121 278.38999745 -717.32267906 279.23201818 -719.72265625 280.07421875 C-720.43736588 280.3242717 -721.1520755 280.57432465 -721.88844299 280.83195496 C-726.00069447 282.27619085 -730.08800248 283.77547437 -734.16575623 285.31428528 C-736.60792993 286.22726887 -739.06656446 287.0873568 -741.53125 287.9375 C-742.99498047 288.44410156 -742.99498047 288.44410156 -744.48828125 288.9609375 C-746.49609375 289.65364583 -748.50390625 290.34635417 -750.51171875 291.0390625 C-755.40441633 292.73244 -760.27744144 294.45729633 -765.11816406 296.29394531 C-768.43563077 297.53864092 -771.78126684 298.7031309 -775.125 299.875 C-776.62768028 300.40342945 -778.13028342 300.9320783 -779.6328125 301.4609375 C-780.74124512 301.85104004 -780.74124512 301.85104004 -781.87207031 302.24902344 C-784.91785563 303.32392427 -787.95907117 304.4114458 -791 305.5 C-798.27660756 308.10294648 -805.56424113 310.67409123 -812.85302734 313.24267578 C-814.91944274 313.97158419 -816.98522923 314.70224277 -819.05078125 315.43359375 C-828.34908292 318.72403753 -837.6605584 321.97502495 -846.98291016 325.19677734 C-856.7471666 328.58083486 -866.34927358 332.28818215 -876 336 C-876 475.26 -876 614.52 -876 758 C-869.18524711 756.14143103 -864.15037632 754.71728491 -858 752 C-853.69590954 750.47916753 -849.34477954 749.09885592 -845.00195312 747.69335938 C-844.11830078 747.40396484 -843.23464844 747.11457031 -842.32421875 746.81640625 C-841.1499231 746.43657593 -841.1499231 746.43657593 -839.9519043 746.04907227 C-837.36200503 745.12865235 -834.82666441 744.13588848 -832.27905273 743.10595703 C-827.30013261 741.0993493 -822.27484855 739.2676024 -817.2109375 737.48828125 C-816.28969589 737.16263687 -815.36845428 736.83699249 -814.41929626 736.5014801 C-811.40521801 735.43652891 -808.39013018 734.37446889 -805.375 733.3125 C-803.25277911 732.56350984 -801.13062862 731.81432017 -799.00854492 731.06494141 C-795.70463397 729.89824973 -792.40066655 728.73172074 -789.09642029 727.565979 C-781.3614792 724.83657329 -773.63082211 722.09530288 -765.90234375 719.34765625 C-762.72596602 718.21925383 -759.54954027 717.09098665 -756.37310791 715.96273804 C-754.36860944 715.2503406 -752.36432852 714.53733067 -750.36029053 713.82363892 C-739.34988933 709.90335187 -728.32661977 706.04846181 -717.20954895 702.43942261 C-712.17547249 700.78940348 -707.26506491 698.94084528 -702.35804749 696.94519043 C-699.04539152 695.61735851 -695.69176477 694.43030268 -692.3203125 693.26171875 C-690.83749296 692.74288192 -689.35474978 692.22382683 -687.87207031 691.70458984 C-687.08707153 691.43032166 -686.30207275 691.15605347 -685.49328613 690.87347412 C-680.9679253 689.2881023 -676.4492227 687.68391843 -671.9296875 686.08203125 C-669.95679901 685.38326719 -667.9838984 684.68453732 -666.01098633 683.98583984 C-665.00854889 683.63076355 -664.00611145 683.27568726 -662.97329712 682.90985107 C-659.80610602 681.78809921 -656.63877946 680.66673045 -653.47143555 679.54541016 C-644.21649198 676.2684228 -634.96206334 672.99013628 -625.71484375 669.69140625 C-613.77032899 665.43269405 -601.83055671 661.17942801 -589.76293945 657.27880859 C-585.89345238 656.01809006 -582.10007379 654.66254626 -578.33178711 653.12353516 C-573.33477204 651.11265634 -568.29219632 649.27368568 -563.2109375 647.48828125 C-562.28951462 647.16259155 -561.36809174 646.83690186 -560.41874695 646.50134277 C-557.40483186 645.43649464 -554.38991843 644.37450364 -551.375 643.3125 C-549.25570165 642.56426241 -547.13648096 641.81580485 -545.01733398 641.06713867 C-540.5946962 639.50485898 -536.17172259 637.94353527 -531.74853516 636.3828125 C-521.8804188 632.89980102 -512.01708059 629.40330239 -502.15338135 625.9078064 C-494.60448359 623.23272603 -487.05506593 620.55911903 -479.5050354 617.88723755 C-477.07994037 617.02831341 -474.65550403 616.16755356 -472.23120117 615.30639648 C-463.75388297 612.29878883 -455.25359331 609.38680754 -446.68945312 606.63476562 C-442.30971596 605.19973168 -438.06224775 603.62766352 -433.83203125 601.796875 C-424.97705438 598.04572493 -415.84343173 595.04764631 -406.75158691 591.92816162 C-401.25364248 590.04174562 -395.7597623 588.14356354 -390.265625 586.24609375 C-389.1915741 585.87546814 -388.11752319 585.50484253 -387.01092529 585.12298584 C-377.64094539 581.88568899 -368.30590095 578.5591399 -358.98046875 575.19580078 C-351.39348837 572.46937808 -343.7703465 569.87200272 -336.09082031 567.41748047 C-331.90013661 566.05750172 -327.85405862 564.53589358 -323.80859375 562.7890625 C-315.27359305 559.1782046 -306.4855243 556.27448725 -297.72277832 553.27093506 C-292.27708718 551.40399421 -286.83574207 549.52448301 -281.39453125 547.64453125 C-280.28230194 547.26043091 -279.17007263 546.87633057 -278.0241394 546.48059082 C-264.76987801 541.89519525 -251.56271817 537.17793024 -238.36157227 532.44213867 C-236.63183619 531.82294936 -234.90193964 531.20420817 -233.171875 530.5859375 C-232.3359935 530.28716202 -231.500112 529.98838654 -230.63890076 529.68055725 C-224.43963837 527.47864984 -218.20353697 525.40303206 -211.953125 523.3515625 C-205.60897685 521.26576854 -199.45013901 519.00732383 -193.31982422 516.35009766 C-185.90992412 513.33665836 -178.28658368 510.86360792 -170.72167969 508.2706604 C-165.28145723 506.40541875 -159.84581317 504.52693476 -154.41015625 502.6484375 C-153.29875275 502.26454361 -152.18734924 501.88064972 -151.04226685 501.48512268 C-135.91957952 496.25356989 -120.85211916 490.86680484 -105.78125 485.48828125 C-79.68164345 476.17432134 -79.68164345 476.17432134 -68.1875 472.4375 C-62.71943471 470.64123686 -57.33645217 468.81780319 -52.0625 466.5 C-42.93266499 462.73511958 -33.41074936 459.99432934 -24 457 C-24 317.41 -24 177.82 -24 34 C-27.53893223 34 -30.8222797 35.62453173 -34.125 36.8125 Z " fill="#FDEC00" transform="translate(900,0)"/>
<path d="M0 0 C1.88671875 1.51171875 1.88671875 1.51171875 3.6875 3.6875 C4.3784375 4.51507813 5.069375 5.34265625 5.78125 6.1953125 C8.53258469 9.67323206 11.25366242 13.17262007 13.93408203 16.70556641 C17.37979367 21.23953453 20.95272962 25.65846503 24.5625 30.0625 C28.30943722 34.63968447 31.98190549 39.24250339 35.5 44 C39.52888753 49.44563919 43.77105255 54.69088672 48.05810547 59.93310547 C53.92265533 67.10961988 59.631551 74.40352434 65.33398438 81.70898438 C70.67691377 88.54949398 76.07184612 95.33975783 81.5625 102.0625 C85.4667889 106.84392621 89.31875117 111.65423148 93.0625 116.5625 C96.62883758 121.23682596 100.25606465 125.85333721 103.9375 130.4375 C107.83720261 135.29345153 111.71824557 140.16250182 115.5625 145.0625 C116.01375244 145.63750244 116.46500488 146.21250488 116.92993164 146.80493164 C119.18164366 149.6761367 121.42982535 152.55007211 123.67578125 155.42578125 C128.57538778 161.69073531 133.53142927 167.90247023 138.5625 174.0625 C142.4667889 178.84392621 146.31875117 183.65423148 150.0625 188.5625 C153.62883758 193.23682596 157.25606465 197.85333721 160.9375 202.4375 C167.13569088 210.15555378 173.2511286 217.93637256 179.35449219 225.72949219 C185.20400453 233.19614834 191.08622188 240.63438124 197.02905273 248.02709961 C198.35711788 249.68126927 199.67956059 251.33974163 201 253 C201.6084375 253.76054687 202.216875 254.52109375 202.84375 255.3046875 C204 257 204 257 204 259 C203.2265625 259.25394531 202.453125 259.50789063 201.65625 259.76953125 C200.6146875 260.11371094 199.573125 260.45789063 198.5 260.8125 C197.4790625 261.14894531 196.458125 261.48539062 195.40625 261.83203125 C192.26089794 262.91054073 189.15390308 264.05845433 186.04443359 265.23461914 C182.73361287 266.47410122 179.39838781 267.64252196 176.0625 268.8125 C174.74086797 269.27729414 173.41925451 269.74214111 172.09765625 270.20703125 C171.3301001 270.47660645 170.56254395 270.74618164 169.77172852 271.02392578 C167.68284664 271.75953309 165.59496281 272.49797543 163.50756836 273.23779297 C155.07807495 276.22430849 146.63578897 279.17208222 138.18359375 282.09375 C137.14828018 282.45180222 136.11296661 282.80985443 135.04627991 283.17875671 C130.76735815 284.65831664 126.48833333 286.13756697 122.20825195 287.61376953 C119.03270114 288.70935265 115.85788852 289.80703321 112.68359375 290.90625 C111.67042084 291.25695557 110.65724792 291.60766113 109.6133728 291.96899414 C102.93208542 294.29420319 96.29141348 296.7087077 89.70811462 299.29943848 C86.95635309 300.36474947 84.98604143 301 82 301 C80.22196077 299.02067331 78.64418087 297.06612251 77.0625 294.9375 C76.0855218 293.65687538 75.10762358 292.37695223 74.12890625 291.09765625 C73.6198877 290.42750488 73.11086914 289.75735352 72.58642578 289.06689453 C69.94541462 285.62602034 67.22090122 282.25280033 64.5 278.875 C58.6723054 271.62927964 58.6723054 271.62927964 56 268 C50.31805983 269.47270876 44.72759902 270.99192488 39.2578125 273.12890625 C30.44595369 276.52863724 21.47441395 279.54615359 12.56469727 282.6809082 C8.2289891 284.20777781 3.89873178 285.74945734 -0.4296875 287.296875 C-8.06957141 290.027013 -15.71417983 292.74363222 -23.36279297 295.44921875 C-24.88909398 295.98950229 -26.41512988 296.53053526 -27.94091797 297.07226562 C-30.18134909 297.86764003 -32.42260928 298.6606363 -34.6640625 299.453125 C-35.34320709 299.69476379 -36.02235168 299.93640259 -36.72207642 300.18536377 C-39.80521011 301.27275802 -42.82294426 302.20573607 -46 303 C-46 273.96 -46 244.92 -46 215 C-25.40846682 207.27817506 -25.40846682 207.27817506 -16.0625 204.5625 C-11.58914991 203.246397 -7.32459423 201.58333332 -3.03125 199.76953125 C-1 199 -1 199 1 199 C-4.20447279 191.51654999 -9.8309626 184.47876104 -15.65283203 177.47290039 C-19.76537816 172.51848029 -23.84815921 167.54456779 -27.70620537 162.38773251 C-30.12767215 159.19637159 -32.61735855 156.34866474 -35.55154419 153.61732483 C-43.97252388 145.39808374 -47.25286624 138.42025407 -47.58935547 126.59545898 C-47.63126933 122.07030904 -47.55558285 117.55822775 -47.41951513 113.0351665 C-47.33078666 109.57764689 -47.32368077 106.11987464 -47.30715942 102.66139221 C-47.26398878 96.14026749 -47.14960233 89.62250776 -47.00826657 83.10285193 C-46.85068068 75.66897926 -46.77453718 68.23492842 -46.70453048 60.79979599 C-46.55897841 45.53126187 -46.31343791 30.26606811 -46 15 C-44.40089476 14.35629071 -42.80138538 13.71358532 -41.20170593 13.07130432 C-40.3110226 12.71329019 -39.42033926 12.35527605 -38.50266552 11.986413 C-35.70246543 10.88272825 -32.8820177 9.89463783 -30.01953125 8.96484375 C-29.00052734 8.63033203 -27.98152344 8.29582031 -26.93164062 7.95117188 C-25.90232422 7.61666016 -24.87300781 7.28214844 -23.8125 6.9375 C-15.82664025 4.40333007 -15.82664025 4.40333007 -8.07421875 1.25390625 C-5.01157635 0.00472174 -3.24558049 -0.59161348 0 0 Z " fill="#FDEC00" transform="translate(481,220)"/>
<path d="M0 0 C0 109.56 0 219.12 0 332 C-6.6 334.31 -13.2 336.62 -20 339 C-22.64 339.99 -25.28 340.98 -28 342 C-37.57248553 345.48650374 -47.19935719 348.81884878 -56.82836914 352.14526367 C-62.24977011 354.02295585 -67.63294851 355.97257237 -73 358 C-75.22746538 358.79644091 -77.45659572 359.58824322 -79.6875 360.375 C-84.23924734 361.99200462 -88.75469917 363.67006819 -93.25 365.4375 C-98.66365455 367.53612658 -104.12398269 369.45818139 -109.625 371.3125 C-110.4077832 371.57925537 -111.19056641 371.84601074 -111.99707031 372.12084961 C-115.10371732 373.15537803 -117.70307722 374 -121 374 C-121 264.44 -121 154.88 -121 42 C-114.4 39.69 -107.8 37.38 -101 35 C-91.21313506 31.56339094 -81.44438881 28.08320157 -71.6875 24.5625 C-57.63329261 19.4948975 -43.56479675 14.4886662 -29.375 9.8125 C-23.14914958 7.75977153 -17.0546896 5.51812414 -11 3 C-3.5193133 0 -3.5193133 0 0 0 Z " fill="#FEED00" transform="translate(186,324)"/>
<path d="M0 0 C0 109.56 0 219.12 0 332 C-4.95 333.65 -9.9 335.3 -15 337 C-17.67497009 337.97757154 -20.34420587 338.97147259 -23 340 C-33.43847698 344.02118602 -43.94471432 347.70887189 -54.57421875 351.19604492 C-59.34159943 352.76299856 -64.07498031 354.36842893 -68.76293945 356.15869141 C-74.14664716 358.18338384 -79.57982058 360.07554691 -85 362 C-86.04707123 362.37200531 -86.04707123 362.37200531 -87.11529541 362.75152588 C-91.58488085 364.33907398 -96.05572393 365.92303224 -100.52758789 367.50415039 C-102.07436318 368.05136409 -103.62090615 368.59923483 -105.16723633 369.14770508 C-107.42997803 369.95021785 -109.69341898 370.75072791 -111.95703125 371.55078125 C-112.99897392 371.92098137 -112.99897392 371.92098137 -114.06196594 372.29866028 C-118.88593894 374 -118.88593894 374 -120 374 C-120 264.44 -120 154.88 -120 42 C-112.6565212 38.94021717 -105.44563297 35.98998387 -97.94921875 33.40625 C-97.04734329 33.09224243 -96.14546783 32.77823486 -95.21626282 32.45471191 C-92.37452023 31.46637586 -89.53102181 30.48320356 -86.6875 29.5 C-84.79741642 28.84276307 -82.90744176 28.18521284 -81.01757812 27.52734375 C-71.69897431 24.28872288 -62.36890658 21.09405491 -52.99487305 18.01928711 C-49.51931916 16.83640316 -46.14082736 15.47950631 -42.74609375 14.0859375 C-32.5075163 10.03711171 -21.99562398 6.63189489 -11.5625 3.125 C-10.185177 2.65936646 -10.185177 2.65936646 -8.7800293 2.18432617 C-7.92578369 1.89920166 -7.07153809 1.61407715 -6.19140625 1.3203125 C-5.43029541 1.06523926 -4.66918457 0.81016602 -3.88500977 0.54736328 C-2 0 -2 0 0 0 Z " fill="#FDEC00" transform="translate(836,94)"/>
<path d="M0 0 C0.66 0 1.32 0 2 0 C3.19824219 1.29077148 3.19824219 1.29077148 4.546875 3.12109375 C5.05484619 3.80051025 5.56281738 4.47992676 6.08618164 5.17993164 C6.90977173 6.29742798 6.90977173 6.29742798 7.75 7.4375 C12.37545242 13.61017826 17.11541059 19.64458302 22.0625 25.5625 C27.13941366 31.65044936 31.95971883 37.87538083 36.66552734 44.25317383 C40.28303964 49.12513627 44.11026363 53.76087862 48.0715332 58.35522461 C51.78055816 62.67807413 55.17761498 67.18885447 58.55859375 71.7734375 C61.40626677 75.58547147 64.42306987 79.2569288 67.4375 82.9375 C71.36843012 87.73762887 75.23925441 92.56516799 79 97.5 C83.26145875 103.08755288 87.66548886 108.54436426 92.11108398 113.98608398 C96.09966705 118.87442671 100.02028148 123.81069623 103.90600586 128.78100586 C107.24145561 133.04441265 110.61256773 137.27780182 114 141.5 C118.31576715 146.88066969 122.59367404 152.28911281 126.84667969 157.71948242 C130.79722106 162.75720482 134.79689014 167.75469336 138.80297852 172.74829102 C141.3751608 175.95775399 143.92815923 179.17845495 146.4375 182.4375 C149.67106627 186.6276959 153.02502146 190.7154348 156.375 194.8125 C160.18293271 199.47346133 163.92065684 204.1593016 167.5 209 C171.00154253 213.73285419 174.65090584 218.31736386 178.375 222.875 C178.92244873 223.54692383 179.46989746 224.21884766 180.03393555 224.91113281 C183.33914698 228.96755365 183.33914698 228.96755365 186.65576172 233.01464844 C188.21736751 234.91904575 189.76614517 236.83321202 191.3125 238.75 C191.78671387 239.32218262 192.26092773 239.89436523 192.74951172 240.48388672 C195.32232249 243.69772801 196 244.72190191 196 249 C187.4798733 252.12637464 178.92051771 255.12679369 170.34179688 258.08789062 C165.50143859 259.76402273 160.68204609 261.47476631 155.89282227 263.29174805 C152.5523893 264.5416637 149.18033691 265.70143687 145.8125 266.875 C140.81681567 268.62346255 135.85804283 270.42261303 130.9375 272.375 C123.58111393 275.25033872 116.07900143 277.68402244 108.57592773 280.14599609 C99.53339959 283.11874101 90.70127071 286.49621246 81.85546875 290.01171875 C79 291 79 291 76 291 C74.74609375 289.70703125 74.74609375 289.70703125 73.4375 287.8125 C70.81183585 284.13527994 68.13004395 280.51949935 65.375 276.9375 C64.95420166 276.39029297 64.53340332 275.84308594 64.09985352 275.27929688 C58.16293837 267.58472068 52.05245065 260.02689489 45.953125 252.4609375 C41.66046526 247.12262987 37.44844654 241.72494837 33.25 236.3125 C27.34098811 228.69585967 21.35574433 221.14498977 15.31347656 213.63378906 C13.37114803 211.2177923 11.43565026 208.79634848 9.5 206.375 C8.9121875 205.64023437 8.324375 204.90546875 7.71875 204.1484375 C7.1515625 203.43945312 6.584375 202.73046875 6 202 C5.2678125 201.12601563 4.535625 200.25203125 3.78125 199.3515625 C2 197 2 197 2 195 C1.34 195 0.68 195 0 195 C0 130.65 0 66.3 0 0 Z " fill="#FDEC00" transform="translate(207,330)"/>
<path d="M0 0 C0 102.96 0 205.92 0 312 C-5.63022508 306.36977492 -5.63022508 306.36977492 -7.65625 303.828125 C-8.11443115 303.25521729 -8.5726123 302.68230957 -9.04467773 302.09204102 C-9.52493408 301.48416748 -10.00519043 300.87629395 -10.5 300.25 C-11.01699463 299.60023193 -11.53398926 298.95046387 -12.06665039 298.28100586 C-16.47744246 292.71432778 -20.77786814 287.06577852 -25.07226562 281.40917969 C-29.30709966 275.85253361 -33.68599672 270.42834588 -38.11816406 265.02856445 C-42.08149642 260.18070901 -45.90644707 255.24096762 -49.6875 250.25 C-54.18035897 244.32009425 -58.80813097 238.56686592 -63.609375 232.8828125 C-67.00278356 228.790761 -70.21762552 224.5690511 -73.44140625 220.34375 C-76.05795423 216.91537802 -78.71009622 213.51587507 -81.375 210.125 C-81.83140869 209.54419678 -82.28781738 208.96339355 -82.75805664 208.36499023 C-85.61296588 204.74039707 -88.49257726 201.13654 -91.38427734 197.54125977 C-96.78651828 190.82340595 -102.08034779 184.03347248 -107.28466797 177.16088867 C-107.78369629 176.5032251 -108.28272461 175.84556152 -108.796875 175.16796875 C-109.5082449 174.21416982 -109.5082449 174.21416982 -110.2339859 173.24110222 C-111.9817286 170.95813133 -111.9817286 170.95813133 -114.03087616 168.8294239 C-119.95293021 162.2803557 -121.14039404 157.63356545 -120.90820312 148.94091797 C-120.90937134 147.77878281 -120.91053955 146.61664764 -120.91174316 145.41929626 C-120.90620553 141.6090097 -120.84414879 137.80192166 -120.78125 133.9921875 C-120.76631594 131.33841661 -120.75454081 128.68481884 -120.74694824 126.03103638 C-120.72218443 119.77990796 -120.65667715 113.52991255 -120.57615232 107.27928078 C-120.4864131 100.15721705 -120.44266763 93.03509624 -120.40258884 85.91260695 C-120.31919873 71.27448959 -120.17868638 56.63726067 -120 42 C-118.58528306 41.36296185 -117.16965738 40.72794162 -115.75366211 40.09375 C-114.96543564 39.73990234 -114.17720917 39.38605469 -113.36509705 39.02148438 C-109.82549463 37.49273165 -106.21106097 36.24046349 -102.5625 35 C-100.81879379 34.39776226 -99.07532338 33.79484157 -97.33203125 33.19140625 C-96.35057129 32.85254395 -95.36911133 32.51368164 -94.35791016 32.16455078 C-88.22475415 30.03752198 -82.10199082 27.88098659 -75.97970581 25.72290039 C-73.81455427 24.96023885 -71.64864136 24.19977126 -69.48266602 23.43945312 C-62.56600492 21.00554777 -55.67650449 18.51765264 -48.8203125 15.91796875 C-41.6518262 13.20384509 -34.41389058 10.74812717 -27.125 8.375 C-20.00668446 6.05627762 -12.98698817 3.7074538 -6.11669922 0.72119141 C-4 0 -4 0 0 0 Z " fill="#FDEC00" transform="translate(695,144)"/>
<path d="M0 0 C0 102.63 0 205.26 0 311 C-5.63344051 305.36655949 -5.63344051 305.36655949 -7.875 302.609375 C-8.37837891 301.99126953 -8.88175781 301.37316406 -9.40039062 300.73632812 C-9.92826172 300.08083984 -10.45613281 299.42535156 -11 298.75 C-11.56396484 298.05326172 -12.12792969 297.35652344 -12.70898438 296.63867188 C-17.28425109 290.95640389 -21.71695511 285.17221266 -26.12304688 279.35839844 C-29.82264286 274.49296338 -33.6230595 269.72502123 -37.5 265 C-42.51581981 258.88696961 -47.3496556 252.65754586 -52.125 246.35546875 C-56.33942908 240.81389975 -60.70163428 235.40920222 -65.1184082 230.02832031 C-69.0816021 225.18050092 -72.90651619 220.24087638 -76.6875 215.25 C-81.18035897 209.32009425 -85.80813097 203.56686592 -90.609375 197.8828125 C-93.99446146 193.80079648 -97.20180567 189.58971714 -100.41796875 185.375 C-103.16880758 181.77081811 -105.95354427 178.19386483 -108.75 174.625 C-109.40343384 173.78702881 -109.40343384 173.78702881 -110.07006836 172.93212891 C-110.70827515 172.11881104 -110.70827515 172.11881104 -111.359375 171.2890625 C-111.75726919 170.77380036 -112.15516338 170.25853823 -112.56511497 169.72766209 C-113.95115543 167.98415962 -113.95115543 167.98415962 -115.54642677 166.55953121 C-119.06355251 163.13914464 -120.41042023 160.56799126 -120.7215271 155.64051819 C-120.73882129 153.52087133 -120.72318806 151.40079471 -120.68115234 149.28149414 C-120.6820285 148.11979706 -120.68290466 146.95809998 -120.68380737 145.76119995 C-120.67963925 141.93515954 -120.63301821 138.11088904 -120.5859375 134.28515625 C-120.57474258 131.6271213 -120.56590863 128.96918339 -120.56021118 126.31114197 C-120.54160325 120.03890427 -120.49242259 113.76729817 -120.43211424 107.4953379 C-120.36492161 100.35150741 -120.3320283 93.20764588 -120.30194163 86.06357777 C-120.23931893 71.37539631 -120.13386387 56.68770919 -120 42 C-118.98389648 41.66734131 -117.96779297 41.33468262 -116.92089844 40.99194336 C-115.56701534 40.54553736 -114.21317654 40.09899702 -112.859375 39.65234375 C-112.19212402 39.43429077 -111.52487305 39.21623779 -110.83740234 38.99157715 C-106.88787134 37.68513804 -103.06044253 36.24280939 -99.25 34.5625 C-93.36477525 32.02549095 -87.33785796 30.13709783 -81.20019531 28.31860352 C-76.76846173 26.97861255 -72.52355369 25.42274191 -68.26171875 23.609375 C-61.71620079 20.82776375 -55.04857982 18.52316342 -48.3125 16.25 C-45.76380375 15.38168691 -43.215496 14.51235045 -40.66796875 13.640625 C-40.02964111 13.42241089 -39.39131348 13.20419678 -38.73364258 12.97937012 C-31.13191788 10.37244553 -23.57906389 7.63014448 -16.0324707 4.86816406 C-2.66078139 0 -2.66078139 0 0 0 Z " fill="#FDED00" transform="translate(414,243)"/>
</svg>
