<?xml version="1.0" encoding="UTF-8"?>
<svg version="1.1" xmlns="http://www.w3.org/2000/svg" width="800" height="638">
<path d="M0 0 C1.0773793 -0.00974854 2.15475861 -0.01949707 3.26478577 -0.02954102 C26.65006371 -0.19763002 49.37509785 -0.04672766 72.421875 4.23828125 C73.47922852 4.42551758 74.53658203 4.61275391 75.62597656 4.80566406 C118.89185609 12.5782189 160.28332815 29.11126964 197.1184082 53.00610352 C203.76791115 57.28470794 210.54455561 61.0859761 217.57836914 64.68896484 C228.08820818 70.07982094 238.21161884 76.07607506 248.046875 82.61328125 C253.92178335 86.50491286 260.07606066 89.68367188 266.359375 92.86328125 C275.76995357 97.6340779 284.50744252 103.06783043 293.26708984 108.9362793 C300.48080989 113.73113525 307.8246287 117.66003081 315.63378906 121.36865234 C344.95491805 135.62887373 372.65387449 159.3309505 392.421875 185.23828125 C393.15059814 186.19299316 393.15059814 186.19299316 393.89404297 187.16699219 C402.35571587 198.33983822 409.83861406 209.8639459 416.421875 222.23828125 C417.10612549 223.5226709 417.10612549 223.5226709 417.80419922 224.83300781 C430.00634397 248.12684662 438.2215093 273.28524445 442.421875 299.23828125 C442.60443848 300.28991455 442.78700195 301.34154785 442.97509766 302.42504883 C444.82205794 314.26911339 444.81828156 326.08813888 444.796875 338.05078125 C444.79666351 339.13821625 444.79645203 340.22565125 444.79623413 341.34603882 C444.76455015 357.65668316 444.07992056 373.28209384 440.421875 389.23828125 C440.22932129 390.12563965 440.03676758 391.01299805 439.83837891 391.92724609 C437.63347061 401.98656457 434.80267969 411.76239218 431.21337891 421.41796875 C429.71335353 425.5997397 429.47085742 427.97872806 430.421875 432.23828125 C430.53708369 433.97411115 430.60950305 435.71313674 430.64648438 437.45239258 C430.66900269 438.46727249 430.691521 439.4821524 430.71472168 440.52778625 C430.78617277 445.1493822 430.8431973 449.77083154 430.88183594 454.39282227 C430.90847204 456.82629038 430.94942837 459.25964496 431.00488281 461.69262695 C431.08413505 465.21481601 431.11716093 468.7348618 431.140625 472.2578125 C431.17361694 473.33827347 431.20660889 474.41873444 431.24060059 475.53193665 C431.22293491 482.23655635 430.1022757 485.81288601 425.36196899 490.62641907 C421.93865072 493.47056852 418.24050981 495.57933361 414.296875 497.61328125 C413.51183594 498.03738281 412.72679687 498.46148437 411.91796875 498.8984375 C408.79670018 500.56697398 405.76406001 502.10923119 402.44921875 503.359375 C400.12613815 504.10563273 400.12613815 504.10563273 399.109375 506.92578125 C393.74994315 517.44614748 379.65755231 523.43196321 369.421875 528.23828125 C368.761875 528.23828125 368.101875 528.23828125 367.421875 528.23828125 C367.36 528.77453125 367.298125 529.31078125 367.234375 529.86328125 C364.33369725 538.34218546 355.68198691 542.02418164 348.421875 546.23828125 C347.5040625 546.81191406 346.58625 547.38554688 345.640625 547.9765625 C343.421875 549.23828125 343.421875 549.23828125 341.421875 549.23828125 C341.421875 550.06328125 341.421875 550.88828125 341.421875 551.73828125 C338.87867458 560.63948271 329.67368297 565.44833796 322.03125 569.76171875 C243.96168214 612.32311735 150.99967709 630.43398912 33.9765625 638.44140625 C33.16492771 638.44423363 32.35329292 638.447061 31.51706314 638.44997406 C27.20147649 638.46485906 22.8859222 638.47414959 18.5703125 638.47851562 C15.09396583 638.48285052 11.61787434 638.49656156 8.14160156 638.51953125 C-22.57039842 638.71809652 -53.00551054 637.21801158 -83.453125 632.98828125 C-84.21020752 632.88567993 -84.96729004 632.78307861 -85.74731445 632.67736816 C-158.06984451 622.83739207 -249.72832528 607.10065199 -309.578125 562.23828125 C-310.44308594 561.60792969 -311.30804688 560.97757813 -312.19921875 560.328125 C-315.72517423 557.23061075 -317.40545767 554.69160365 -317.96580505 549.97521973 C-317.97120804 548.74009644 -317.97661102 547.50497314 -317.98217773 546.23242188 C-317.98904099 545.5472197 -317.99590424 544.86201752 -318.00297546 544.15605164 C-318.02120482 541.90199786 -318.01741228 539.64864257 -318.01171875 537.39453125 C-318.01628201 535.82181574 -318.02158802 534.24910223 -318.02760315 532.6763916 C-318.0365263 529.38460169 -318.03411983 526.0930545 -318.02416992 522.80126953 C-318.01267339 518.5877402 -318.03290544 514.37504809 -318.06208706 510.16162872 C-318.08045173 506.91533103 -318.08015626 503.66923395 -318.07444954 500.42289734 C-318.0742964 498.86959152 -318.08033496 497.31627203 -318.09274101 495.76301575 C-318.10765759 493.58952593 -318.0969721 491.41758277 -318.07983398 489.24414062 C-318.07966782 488.00901733 -318.07950165 486.77389404 -318.07933044 485.50134277 C-317.48540112 481.63460921 -316.28713903 480.0051581 -313.578125 477.23828125 C-311.4375 475.875 -311.4375 475.875 -309.328125 474.92578125 C-308.62171875 474.59964844 -307.9153125 474.27351563 -307.1875 473.9375 C-306.65640625 473.70675781 -306.1253125 473.47601563 -305.578125 473.23828125 C-306.0628125 472.30371094 -306.5475 471.36914062 -307.046875 470.40625 C-317.17295383 450.66690208 -325.91960947 430.10635246 -329.953125 408.17578125 C-331.14789585 402.56842112 -333.77734067 398.39792597 -336.95947266 393.74121094 C-350.14198406 374.32164061 -355.9845729 351.511153 -355.953125 328.23828125 C-355.95258118 327.55708221 -355.95203735 326.87588318 -355.95147705 326.17404175 C-355.90990303 314.81552073 -354.96587013 304.12838917 -351.578125 293.23828125 C-351.36913574 292.55846191 -351.16014648 291.87864258 -350.94482422 291.17822266 C-346.39045178 276.88738661 -339.69601428 262.9248249 -329.62109375 251.73046875 C-324.32412783 245.26877801 -321.85463652 237.93259034 -319.015625 230.17578125 C-307.13954356 198.65167324 -289.56828208 171.58228304 -267.578125 146.23828125 C-266.86140625 145.38621094 -266.1446875 144.53414062 -265.40625 143.65625 C-264.78234375 142.92019531 -264.1584375 142.18414062 -263.515625 141.42578125 C-262.98839844 140.80058594 -262.46117187 140.17539063 -261.91796875 139.53125 C-260.578125 138.23828125 -260.578125 138.23828125 -258.578125 138.23828125 C-258.578125 137.57828125 -258.578125 136.91828125 -258.578125 136.23828125 C-257.918125 136.23828125 -257.258125 136.23828125 -256.578125 136.23828125 C-256.33191406 135.68398437 -256.08570313 135.1296875 -255.83203125 134.55859375 C-251.6108674 126.74746812 -244.63007106 120.08091596 -238.67578125 113.5546875 C-236.87220887 111.56303308 -235.12706404 109.53806268 -233.390625 107.48828125 C-225.5231432 98.46273554 -216.81974874 89.84996108 -207.578125 82.23828125 C-207.05089844 81.79726074 -206.52367187 81.35624023 -205.98046875 80.90185547 C-187.91472435 65.8064238 -168.99496648 52.97290106 -148.578125 41.23828125 C-147.41265137 40.56539062 -147.41265137 40.56539062 -146.22363281 39.87890625 C-102.85014344 15.10554561 -49.96661995 0.37683238 0 0 Z " fill="#0F0F0F" transform="translate(355.578125,-0.23828125)"/>
<path d="M0 0 C3.1108191 -0.00217371 6.22127509 -0.02035662 9.33203125 -0.03930664 C28.90125827 -0.09696494 48.0111206 1.40835094 67.20703125 5.24780273 C68.33952805 5.4696524 68.33952805 5.4696524 69.49490356 5.69598389 C96.76105762 11.07936812 122.49093954 20.45327003 147.64453125 32.18530273 C148.45841309 32.56283691 149.27229492 32.94037109 150.11083984 33.3293457 C171.14636433 43.17874097 190.58939858 55.59884075 208.64453125 70.18530273 C209.68854483 71.01635518 210.73279805 71.84710671 211.77734375 72.67749023 C217.93301225 77.63288911 223.81234624 82.85604442 229.64453125 88.18530273 C230.56878906 89.00514648 231.49304688 89.82499023 232.4453125 90.66967773 C266.93800074 121.55319727 297.60188141 164.52492658 313.64453125 208.18530273 C313.64453125 208.84530273 313.64453125 209.50530273 313.64453125 210.18530273 C314.36769531 210.45600586 315.09085938 210.72670898 315.8359375 211.00561523 C341.36085246 221.72678953 360.38641133 247.97988093 370.72460938 272.78295898 C375.62493677 285.5799923 378.67807575 298.54056849 378.953125 312.25170898 C378.96847794 312.999617 378.98383087 313.74752502 378.99964905 314.51809692 C379.55923282 348.01556565 371.96247676 378.19636805 349.64453125 404.18530273 C348.94457031 405.01932617 348.24460937 405.85334961 347.5234375 406.71264648 C343.58843105 411.26490885 339.72075352 414.91828312 334.83203125 418.43530273 C328.86308495 423.19387937 327.64497024 427.82378876 326.12207031 435.11352539 C325.21283338 439.05820056 323.94026298 442.89467101 322.70703125 446.74780273 C322.32623413 447.95702393 322.32623413 447.95702393 321.93774414 449.19067383 C320.04280913 455.14066102 317.89576747 460.93700302 315.52734375 466.71655273 C314.4761743 469.21913165 314.4761743 469.21913165 314.64453125 472.18530273 C315.21042969 472.46245117 315.77632812 472.73959961 316.359375 473.02514648 C317.45958984 473.56848633 317.45958984 473.56848633 318.58203125 474.12280273 C319.31292969 474.48245117 320.04382813 474.84209961 320.796875 475.21264648 C322.64453125 476.18530273 322.64453125 476.18530273 323.64453125 477.18530273 C323.7597499 479.24444931 323.80422494 481.30757812 323.8215332 483.36987305 C323.83139 484.33827873 323.83139 484.33827873 323.84144592 485.32624817 C323.86122441 487.47197577 323.87285328 489.61763314 323.8828125 491.76342773 C323.88688803 492.49545158 323.89096355 493.22747543 323.89516258 493.98168182 C323.91604566 497.85830913 323.93033596 501.73490083 323.93969727 505.61157227 C323.95074893 509.61440389 323.98512725 513.61667761 324.02486897 517.61931229 C324.05103533 520.6974388 324.05938922 523.77543264 324.06297874 526.85366058 C324.06784703 528.32884222 324.07946806 529.80401783 324.09801674 531.27909088 C324.12240404 533.34755828 324.12144479 535.41458671 324.11450195 537.4831543 C324.12036819 538.65928284 324.12623444 539.83541138 324.13227844 541.04718018 C323.37220338 545.93743631 320.86437748 548.29181888 316.97265625 551.14233398 C308.41271559 556.30219669 299.67425912 560.90202192 290.64453125 565.18530273 C289.90912109 565.53705566 289.17371094 565.88880859 288.41601562 566.2512207 C258.32261052 580.5462306 225.28299541 592.3542667 192.73681641 599.7043457 C190.04878829 600.32224715 187.37920204 601.00369266 184.70776367 601.68920898 C142.84132655 612.40499186 99.78608983 620.14689048 56.64453125 623.18530273 C55.99169159 623.23295776 55.33885193 623.28061279 54.66622925 623.32971191 C38.13139517 624.49035837 21.55611022 624.3389519 4.99047852 624.31567383 C0.90060664 624.30997224 -3.18920024 624.31336629 -7.2790699 624.31911182 C-46.89058938 624.36646785 -46.89058938 624.36646785 -64.85546875 622.24780273 C-66.24084809 622.09252142 -67.6262674 621.93759648 -69.01171875 621.78295898 C-69.79579102 621.69312744 -70.57986328 621.6032959 -71.38769531 621.51074219 C-73.75859568 621.25075451 -76.12948608 621.00680393 -78.50292969 620.77197266 C-89.92716484 619.63063226 -101.26161232 618.13823362 -112.60546875 616.37280273 C-113.45065063 616.24246643 -114.29583252 616.11213013 -115.16662598 615.97784424 C-127.88271853 614.00860146 -140.44753964 611.68088171 -152.97607422 608.72924805 C-155.23327843 608.21323625 -157.4932321 607.7462572 -159.765625 607.30249023 C-183.51590253 602.6567908 -206.95809703 596.06499501 -229.78759766 588.07446289 C-232.95814121 586.97661923 -236.14637226 585.93918753 -239.33789062 584.90429688 C-264.78774166 576.60604496 -292.82685837 567.08888752 -314.41796875 550.93530273 C-315.31644531 550.27014648 -316.21492188 549.60499023 -317.140625 548.91967773 C-319.35546875 547.18530273 -319.35546875 547.18530273 -321.35546875 545.18530273 C-321.63635254 542.39016724 -321.63635254 542.39016724 -321.67773438 538.77954102 C-321.68766418 538.12243134 -321.69759399 537.46532166 -321.70782471 536.78829956 C-321.73707601 534.61069578 -321.75067244 532.43338334 -321.76171875 530.25561523 C-321.77322117 528.74347931 -321.78473665 527.23134349 -321.79626465 525.71920776 C-321.81728695 522.54659667 -321.82897058 519.37408697 -321.8359375 516.20141602 C-321.84690777 512.13652431 -321.89495761 508.07297245 -321.95188141 504.00850105 C-321.98913789 500.88406467 -321.99954535 497.75995088 -322.00260925 494.63531113 C-322.00866303 493.13693796 -322.02472353 491.63857053 -322.05097961 490.14041519 C-322.08512121 488.04252665 -322.08134488 485.94790754 -322.06835938 483.84985352 C-322.07565063 482.65675568 -322.08294189 481.46365784 -322.0904541 480.23440552 C-321.35546875 477.18530273 -321.35546875 477.18530273 -318.45935059 474.81564331 C-315.98687751 473.5169556 -314.08709682 472.60555321 -311.35546875 472.18530273 C-310.84242188 473.1147168 -310.329375 474.04413086 -309.80078125 475.00170898 C-305.41457144 482.31859684 -301.45842321 486.95596064 -293.2578125 489.70483398 C-292.47817642 489.98668549 -291.69854034 490.26853699 -290.89527893 490.55892944 C-288.38957263 491.45768417 -285.87373463 492.32244193 -283.35546875 493.18530273 C-281.67786835 493.77734549 -280.00078457 494.37085412 -278.32421875 494.96582031 C-274.03064155 496.47979922 -269.72558972 497.95744519 -265.41430664 499.42016602 C-262.78924116 500.31156852 -260.16699706 501.21092853 -257.54492188 502.11108398 C-247.53008091 505.53309543 -237.47835254 508.72470729 -227.30123901 511.62817383 C-224.2537566 512.500754 -221.21376643 513.39892561 -218.171875 514.29077148 C-187.64030792 523.10755319 -156.68010199 530.77230126 -125.35546875 536.18530273 C-123.92543794 536.43503811 -122.49542607 536.68488198 -121.06542969 536.93481445 C-116.3308575 537.75982402 -111.59358059 538.56840482 -106.85546875 539.37280273 C-106.11355286 539.49981567 -105.37163696 539.62682861 -104.60723877 539.75769043 C-95.73531888 541.26920088 -86.87706409 542.53449518 -77.92584229 543.47492981 C-73.16349238 543.97537146 -68.42616625 544.57180869 -63.68359375 545.23999023 C-56.17363045 546.25684006 -48.66970756 546.87793966 -41.10546875 547.31030273 C-40.39045197 547.35199585 -39.67543518 547.39368896 -38.93875122 547.43664551 C-24.23047027 548.26377569 -9.52163989 548.40299716 5.20703125 548.43530273 C6.83046448 548.44306732 6.83046448 548.44306732 8.48669434 548.45098877 C33.39651531 549.49417458 33.39651531 549.49417458 56.51953125 542.06030273 C57.21602783 541.65996826 57.91252441 541.25963379 58.63012695 540.84716797 C60.66041963 539.66331771 62.65534064 538.43672568 64.64453125 537.18530273 C65.71316406 536.51885742 66.78179687 535.85241211 67.8828125 535.16577148 C70.85210461 533.23474841 73.75106876 531.22797228 76.64453125 529.18530273 C77.76254698 528.41768504 78.8810563 527.65078586 80 526.88452148 C88.70761022 520.86169693 96.75357583 514.23622439 104.64453125 507.18530273 C105.21623047 506.67676758 105.78792969 506.16823242 106.37695312 505.64428711 C134.78630328 480.26612755 156.27297947 448.00652505 170.5625 412.80883789 C171.30302486 411.01333244 172.07837552 409.23190601 172.8828125 407.46411133 C173.26824219 406.59222168 173.65367187 405.72033203 174.05078125 404.82202148 C174.40462891 404.04947021 174.75847656 403.27691895 175.12304688 402.48095703 C176.00161563 398.61336247 174.16008429 396.02188617 172.1640625 392.78295898 C171.60074219 391.94635742 171.03742187 391.10975586 170.45703125 390.24780273 C161.20309184 375.84851942 153.9425728 359.2863132 151.64453125 342.18530273 C151.53496094 341.43635742 151.42539062 340.68741211 151.3125 339.91577148 C147.62625284 308.70554554 152.41839459 275.1733276 171.90625 249.68920898 C173.14161503 245.49942599 171.25264885 242.10555987 169.64453125 238.18530273 C169.34522705 237.43901611 169.04592285 236.69272949 168.73754883 235.92382812 C160.4621445 215.92728058 149.60351148 197.48293377 136.64453125 180.18530273 C136.19255371 179.57638184 135.74057617 178.96746094 135.27490234 178.34008789 C128.05357247 168.66682783 120.01669725 159.8689912 111.64453125 151.18530273 C110.81824219 150.31776367 109.99195313 149.45022461 109.140625 148.55639648 C103.68450798 142.94411154 97.75950315 138.05968321 91.64453125 133.18530273 C90.92394531 132.57428711 90.20335937 131.96327148 89.4609375 131.33374023 C62.40576474 108.66719621 29.45384046 92.77022317 -4.35546875 83.18530273 C-5.08121094 82.95464111 -5.80695313 82.72397949 -6.5546875 82.48632812 C-42.29106389 71.22175691 -81.58772739 70.61097436 -118.35546875 76.18530273 C-119.30180176 76.32452148 -120.24813477 76.46374023 -121.22314453 76.60717773 C-143.96738685 80.04327239 -165.34299431 86.92975898 -186.35546875 96.18530273 C-187.10876465 96.51111328 -187.86206055 96.83692383 -188.63818359 97.17260742 C-206.52157701 104.95150066 -222.96812959 115.24643989 -238.35546875 127.18530273 C-239.73798828 128.2487793 -239.73798828 128.2487793 -241.1484375 129.33374023 C-246.23824785 133.32667673 -251.08544577 137.54755551 -255.859375 141.91186523 C-257.49709567 143.40349814 -259.15042298 144.87821054 -260.8203125 146.33374023 C-272.03452671 156.14839217 -281.40178949 167.32441255 -290.35546875 179.18530273 C-290.76619629 179.72316406 -291.17692383 180.26102539 -291.60009766 180.81518555 C-307.89758592 202.27824903 -320.67557374 226.69233438 -329.35546875 252.18530273 C-329.60248535 252.89267578 -329.84950195 253.60004883 -330.10400391 254.32885742 C-339.3207038 280.91077718 -343.57892241 308.70806369 -343.453125 336.80249023 C-343.45100258 338.63724411 -343.45100258 338.63724411 -343.44883728 340.50906372 C-343.44330553 344.35950318 -343.43076646 348.20988129 -343.41796875 352.06030273 C-343.41294491 354.69441647 -343.40838356 357.32853113 -343.40429688 359.96264648 C-343.39335859 366.37021898 -343.37669025 372.77775647 -343.35546875 379.18530273 C-346.43351959 376.3049842 -348.05693179 373.10379423 -349.79296875 369.31030273 C-350.25255981 368.30882202 -350.25255981 368.30882202 -350.72143555 367.28710938 C-362.49441888 341.02909074 -363.48414324 308.00506036 -353.60546875 280.93530273 C-348.81856195 268.64301734 -342.38211201 256.96797723 -333.50390625 247.13452148 C-328.87058431 241.87866069 -326.9222179 236.40099355 -324.89477539 229.8137207 C-316.14248621 202.04532355 -300.13441419 175.35763656 -281.35546875 153.18530273 C-280.86788086 152.60893066 -280.38029297 152.03255859 -279.87792969 151.4387207 C-274.18968395 144.73630488 -268.47485954 138.17569878 -262.1640625 132.04858398 C-259.40382193 129.20488042 -257.02152575 126.08816008 -254.5703125 122.97827148 C-246.83902555 113.22894138 -238.56702223 104.19803496 -229.79296875 95.37280273 C-228.93098877 94.50163818 -228.06900879 93.63047363 -227.1809082 92.73291016 C-221.21348786 86.79373127 -214.92300801 81.44503755 -208.35546875 76.18530273 C-206.54038845 74.62580089 -204.72730549 73.06396462 -202.91796875 71.49780273 C-174.77264808 48.12165065 -141.62795973 30.64631293 -107.35546875 18.18530273 C-106.55657227 17.89284668 -105.75767578 17.60039062 -104.93457031 17.29907227 C-93.69990726 13.23399269 -82.3007288 10.31906251 -70.64990234 7.70825195 C-68.71915693 7.26819485 -66.79600711 6.79499977 -64.875 6.31420898 C-58.27406869 4.666111 -51.64449387 3.5436498 -44.91796875 2.56030273 C-44.08394531 2.43703613 -43.24992187 2.31376953 -42.390625 2.18676758 C-28.27699067 0.21837297 -14.22453848 -0.00110714 0 0 Z " fill="#DCDCDC" transform="translate(366.35546875,6.814697265625)"/>
<path d="M0 0 C4.60150376 4.19548872 4.60150376 4.19548872 6.03515625 7.08984375 C9.03488808 13.03846449 12.84010814 15.1549951 18.953125 17.34375 C20.13822914 17.78556107 20.13822914 17.78556107 21.34727478 18.23629761 C23.89171215 19.17661251 26.44385502 20.09202549 29 21 C29.83310699 21.29690735 30.66621399 21.5938147 31.52456665 21.89971924 C36.65043849 23.71676572 41.7911301 25.48757392 46.94116211 27.23486328 C49.56622759 28.12626579 52.18847169 29.02562579 54.81054688 29.92578125 C64.82538784 33.3477927 74.87711621 36.53940456 85.05422974 39.44287109 C88.10171215 40.31545126 91.14170232 41.21362288 94.18359375 42.10546875 C124.71516083 50.92225045 155.67536676 58.58699852 187 64 C188.43003081 64.24973537 189.86004268 64.49957925 191.29003906 64.74951172 C196.02461125 65.57452129 200.76188816 66.38310209 205.5 67.1875 C206.24191589 67.31451294 206.98383179 67.44152588 207.74822998 67.5723877 C216.62014987 69.08389814 225.47840466 70.34919244 234.42962646 71.28962708 C239.19197637 71.79006872 243.9293025 72.38650595 248.671875 73.0546875 C256.18163124 74.07150929 263.68575859 74.69489192 271.25 75.125 C272.33349228 75.18704117 272.33349228 75.18704117 273.43887329 75.25033569 C360.28432496 80.03260242 448.35504032 68.27879749 531.4140625 42.40625 C534.47868058 41.45287115 537.5511278 40.55983535 540.6484375 39.71875 C566.23965056 32.75176553 591.26955394 23.53511866 616 14 C616.71349609 13.72542969 617.42699219 13.45085937 618.16210938 13.16796875 C620.91487077 12.1081692 623.66663849 11.0462295 626.4140625 9.97265625 C629.25282383 8.90490463 632.12084403 7.95270196 635 7 C635.20898058 15.61453844 635.36866332 24.22801009 635.46630955 32.84446049 C635.51318821 36.84603254 635.57670963 40.84586488 635.67895508 44.84643555 C635.77710131 48.71101761 635.83062774 52.57393232 635.85389519 56.43966484 C635.87046379 57.91063119 635.90282328 59.38151102 635.95157051 60.85176277 C636.31733837 72.34585605 636.31733837 72.34585605 633.07492065 76.41726685 C630.79126251 78.22426021 628.56749053 79.63512184 626 81 C624.6850618 81.82424802 623.37209961 82.65167089 622.0625 83.484375 C620.71492561 84.25128455 619.36039994 85.00607864 618 85.75 C617.24001709 86.16701172 616.48003418 86.58402344 615.69702148 87.01367188 C581.79419398 105.19604296 542.67355373 119.03186256 505.09228516 127.51904297 C502.40425704 128.13694441 499.73467079 128.81838993 497.06323242 129.50390625 C455.1967953 140.21968912 412.14155858 147.96158775 369 151 C368.34716034 151.04765503 367.69432068 151.09531006 367.021698 151.14440918 C350.48686392 152.30505564 333.91157897 152.15364917 317.34594727 152.13037109 C313.25607539 152.1246695 309.16626851 152.12806355 305.07639885 152.13380909 C265.46487937 152.18116511 265.46487937 152.18116511 247.5 150.0625 C246.11462066 149.90721869 244.72920135 149.75229374 243.34375 149.59765625 C242.55967773 149.50782471 241.77560547 149.41799316 240.96777344 149.32543945 C238.59687307 149.06545178 236.22598267 148.82150119 233.85253906 148.58666992 C222.42830391 147.44532953 211.09385643 145.95293089 199.75 144.1875 C198.90481812 144.0571637 198.05963623 143.92682739 197.18884277 143.7925415 C184.47275022 141.82329873 171.90792911 139.49557897 159.37939453 136.54394531 C157.12219032 136.02793352 154.86223665 135.56095446 152.58984375 135.1171875 C128.83956622 130.47148807 105.39737172 123.87969228 82.56787109 115.88916016 C79.39732754 114.7913165 76.20909649 113.7538848 73.01757812 112.71899414 C47.56772709 104.42074223 19.52861038 94.90358479 -2.0625 78.75 C-2.96097656 78.08484375 -3.85945313 77.4196875 -4.78515625 76.734375 C-7 75 -7 75 -9 73 C-9.28088379 70.2048645 -9.28088379 70.2048645 -9.32226562 66.59423828 C-9.33219543 65.9371286 -9.34212524 65.28001892 -9.35235596 64.60299683 C-9.38160726 62.42539304 -9.39520369 60.2480806 -9.40625 58.0703125 C-9.41775242 56.55817658 -9.4292679 55.04604076 -9.4407959 53.53390503 C-9.4618182 50.36129394 -9.47350183 47.18878424 -9.48046875 44.01611328 C-9.49143902 39.95122158 -9.53948886 35.88766971 -9.59641266 31.82319832 C-9.63366914 28.69876193 -9.6440766 25.57464815 -9.6471405 22.45000839 C-9.65319428 20.95163523 -9.66925478 19.45326779 -9.69551086 17.95511246 C-9.72965246 15.85722392 -9.72587613 13.7626048 -9.71289062 11.66455078 C-9.72018188 10.47145294 -9.72747314 9.2783551 -9.73498535 8.04910278 C-9 5 -9 5 -6.14294434 2.64596558 C-3 1 -3 1 0 0 Z " fill="#FEFEFE" transform="translate(54,479)"/>
<path d="M0 0 C3.1108191 -0.00217371 6.22127509 -0.02035662 9.33203125 -0.03930664 C28.90125827 -0.09696494 48.0111206 1.40835094 67.20703125 5.24780273 C68.33952805 5.4696524 68.33952805 5.4696524 69.49490356 5.69598389 C96.76105762 11.07936812 122.49093954 20.45327003 147.64453125 32.18530273 C148.45841309 32.56283691 149.27229492 32.94037109 150.11083984 33.3293457 C171.14636433 43.17874097 190.58939858 55.59884075 208.64453125 70.18530273 C209.68854483 71.01635518 210.73279805 71.84710671 211.77734375 72.67749023 C217.93301225 77.63288911 223.81234624 82.85604442 229.64453125 88.18530273 C230.56878906 89.00514648 231.49304688 89.82499023 232.4453125 90.66967773 C264.3004312 119.19161183 300.88535494 164.12363364 312.64453125 206.18530273 C312.31453125 207.17530273 311.98453125 208.16530273 311.64453125 209.18530273 C310.69835937 208.79858398 309.7521875 208.41186523 308.77734375 208.01342773 C280.34537017 196.67272774 250.44058767 195.13181116 221.90698242 207.20410156 C208.68994165 213.14938194 197.99636019 221.14764159 187.64453125 231.18530273 C185.33987651 233.22297873 182.99910713 235.20531847 180.64453125 237.18530273 C180.2784375 236.36932617 179.91234375 235.55334961 179.53515625 234.71264648 C164.95725746 202.81481556 147.06255064 173.48515989 122.64453125 148.18530273 C121.67290039 147.17282471 121.67290039 147.17282471 120.68164062 146.13989258 C112.07331215 137.21086958 103.36677982 128.81371228 93.3671875 121.45922852 C91.6089129 120.15896252 89.87607054 118.82950453 88.14453125 117.49389648 C78.15289007 109.87184131 67.53387492 103.43684659 56.64453125 97.18530273 C55.6709668 96.61900146 55.6709668 96.61900146 54.67773438 96.04125977 C38.53011522 86.70947877 20.57423886 79.28837336 2.64453125 74.18530273 C1.82178711 73.94859863 0.99904297 73.71189453 0.15136719 73.46801758 C-16.47586958 68.77805565 -33.21301358 66.17606562 -50.35546875 64.18530273 C-51.60602051 64.02952759 -51.60602051 64.02952759 -52.88183594 63.87060547 C-60.51808458 62.99162989 -68.17707883 62.89930691 -75.85546875 62.87280273 C-76.58668945 62.87018433 -77.31791016 62.86756592 -78.07128906 62.86486816 C-100.81465612 62.85627186 -124.42777305 64.9310728 -146.35546875 71.18530273 C-147.37108887 71.47453613 -148.38670898 71.76376953 -149.43310547 72.06176758 C-152.89280444 73.06172382 -156.3442375 74.08567027 -159.79296875 75.12280273 C-160.87191406 75.44667969 -161.95085937 75.77055664 -163.0625 76.10424805 C-169.24189361 78.02481884 -175.08969731 80.27416712 -180.93310547 83.05737305 C-183.27253407 84.1466857 -185.62755743 85.09171984 -188.04296875 85.99780273 C-213.98010789 96.23290201 -237.06011154 112.45314506 -258.35546875 130.18530273 C-258.35546875 125.82522103 -255.68254178 123.72766912 -252.91796875 120.62280273 C-252.36447754 119.99148437 -251.81098633 119.36016602 -251.24072266 118.7097168 C-250.12396566 117.43869015 -249.00388446 116.17057593 -247.88037109 114.90551758 C-246.63844369 113.50452167 -245.41081241 112.09086305 -244.1875 110.67358398 C-234.04444529 99.07284476 -223.05817871 87.65389406 -210.890625 78.16577148 C-208.15334512 76.02740338 -205.54658448 73.76813704 -202.91796875 71.49780273 C-174.77264808 48.12165065 -141.62795973 30.64631293 -107.35546875 18.18530273 C-106.55657227 17.89284668 -105.75767578 17.60039062 -104.93457031 17.29907227 C-93.69990726 13.23399269 -82.3007288 10.31906251 -70.64990234 7.70825195 C-68.71915693 7.26819485 -66.79600711 6.79499977 -64.875 6.31420898 C-58.27406869 4.666111 -51.64449387 3.5436498 -44.91796875 2.56030273 C-44.08394531 2.43703613 -43.24992188 2.31376953 -42.390625 2.18676758 C-28.27699067 0.21837297 -14.22453848 -0.00110714 0 0 Z " fill="#FEFEFE" transform="translate(366.35546875,6.814697265625)"/>
<path d="M0 0 C19.9664682 15.42577154 33.91567627 37.84892374 38.32373047 62.74511719 C38.62923828 64.29585937 38.62923828 64.29585937 38.94091797 65.87792969 C43.14535307 89.31909526 38.91510025 112.58813484 28.32373047 133.74511719 C27.76685547 134.86273438 27.20998047 135.98035156 26.63623047 137.13183594 C15.40375336 157.78771332 -2.82325411 172.55613625 -24.67626953 180.74511719 C-25.74619141 181.16148437 -26.81611328 181.57785156 -27.91845703 182.00683594 C-45.97261059 187.94844536 -68.12269045 186.91140845 -85.67626953 179.74511719 C-86.36076172 179.46635742 -87.04525391 179.18759766 -87.75048828 178.90039062 C-98.29819975 174.43294998 -107.04574764 168.20904622 -115.67626953 160.74511719 C-116.34916016 160.1740625 -117.02205078 159.60300781 -117.71533203 159.01464844 C-131.93646221 145.90559716 -141.0034683 127.25126067 -145.67626953 108.74511719 C-145.8514209 108.14699219 -146.02657227 107.54886719 -146.20703125 106.93261719 C-148.22593115 99.32527271 -148.07479916 91.558807 -148.05126953 83.74511719 C-148.05006104 83.0076828 -148.04885254 82.27024841 -148.04760742 81.51046753 C-147.92021585 52.92543112 -137.42728299 28.03768699 -117.37158203 7.37011719 C-84.64127896 -23.53587391 -36.2012529 -27.10085055 0 0 Z " fill="#FEFEFE" transform="translate(697.67626953125,244.2548828125)"/>
<path d="M0 0 C4.574864 1.00281425 8.37772873 3.08203085 12.5 5.25 C13.34095215 5.69110107 14.1819043 6.13220215 15.04833984 6.58666992 C21.13812783 9.84853168 26.89397477 13.46168677 32.625 17.3125 C39.94672827 22.22735182 47.434613 26.41695749 55.3125 30.375 C64.98471626 35.23748623 73.96516351 40.71923731 82.94824219 46.74975586 C90.12484523 51.53311563 97.43638671 55.43772209 105.21191406 59.13037109 C134.53304305 73.39059248 162.23199949 97.09266925 182 123 C182.48581543 123.63647461 182.97163086 124.27294922 183.47216797 124.92871094 C191.93384087 136.10155697 199.41673906 147.62566465 206 160 C206.45616699 160.85625977 206.91233398 161.71251953 207.38232422 162.59472656 C219.58446897 185.88856537 227.7996343 211.0469632 232 237 C232.18256348 238.0516333 232.36512695 239.1032666 232.55322266 240.18676758 C234.40018294 252.03083214 234.39640656 263.84985763 234.375 275.8125 C234.37478851 276.899935 234.37457703 277.98737 234.37435913 279.10775757 C234.34267515 295.41840191 233.65804556 311.04381259 230 327 C229.80744629 327.8873584 229.61489258 328.7747168 229.41650391 329.68896484 C227.21159561 339.74828332 224.38080469 349.52411093 220.79150391 359.1796875 C219.29147853 363.36145845 219.04898242 365.74044681 220 370 C220.11520869 371.7358299 220.18762805 373.47485549 220.22460938 375.21411133 C220.24712769 376.22899124 220.269646 377.24387115 220.29284668 378.289505 C220.36429777 382.91110095 220.4213223 387.53255029 220.45996094 392.15454102 C220.48659704 394.58800913 220.52755337 397.02136371 220.58300781 399.4543457 C220.66226005 402.97653476 220.69528593 406.49658055 220.71875 410.01953125 C220.75174194 411.09999222 220.78473389 412.18045319 220.81872559 413.2936554 C220.80105991 419.9982751 219.6804007 423.57460476 214.94009399 428.38813782 C211.51677572 431.23228727 207.81863481 433.34105236 203.875 435.375 C203.08996094 435.79910156 202.30492187 436.22320312 201.49609375 436.66015625 C198.37482518 438.32869273 195.34218501 439.87094994 192.02734375 441.12109375 C189.70426315 441.86735148 189.70426315 441.86735148 188.6875 444.6875 C183.32806815 455.20786623 169.23567731 461.19368196 159 466 C158.34 466 157.68 466 157 466 C156.938125 466.53625 156.87625 467.0725 156.8125 467.625 C153.91182225 476.10390421 145.26011191 479.78590039 138 484 C137.1028125 484.57363281 136.205625 485.14726563 135.28125 485.73828125 C133 487 133 487 130 487 C129.51171875 483.828125 129.51171875 483.828125 130 480 C132.27829268 477.69795116 134.97784791 476.28066338 137.8125 474.75 C139.27924483 473.91478809 140.74416014 473.0763533 142.20703125 472.234375 C142.8616333 471.87569336 143.51623535 471.51701172 144.19067383 471.14746094 C146.20891271 469.86750915 147.52217754 468.8945329 149 467 C149.43638405 464.193766 149.43638405 464.193766 149.34057617 460.96801758 C149.34023628 459.10642754 149.34023628 459.10642754 149.33988953 457.20722961 C149.32456968 455.85299316 149.3089217 454.49876039 149.29296875 453.14453125 C149.28737251 451.7587683 149.28310254 450.37299941 149.28010559 448.98722839 C149.26865883 445.34237236 149.23919358 441.69787577 149.20599365 438.05316162 C149.17528885 434.33301658 149.16159941 430.61281339 149.14648438 426.89257812 C149.11432331 419.59488833 149.06312951 412.29749456 149 405 C147.68 404.34 146.36 403.68 145 403 C146.73533541 396.80454814 148.77153275 390.74248576 150.9375 384.6875 C154.56030035 374.49559237 157.74252725 364.41192222 159.9375 353.8125 C161.38344733 346.89440855 163.4900399 341.16582991 167 335 C168.057976 332.68672709 169.02874869 330.35145054 170 328 C170.33 328 170.66 328 171 328 C171.4138004 349.80971498 163.805426 371.66934196 155.95800781 391.75732422 C155.67151367 392.52318848 155.38501953 393.28905273 155.08984375 394.078125 C154.83066162 394.74231445 154.57147949 395.40650391 154.30444336 396.09082031 C153.89663613 398.64820007 154.68809717 399.81868888 156 402 C157.27469407 404.54938815 157.12016184 406.33040998 157.11352539 409.18408203 C157.11344986 410.26505157 157.11337433 411.34602112 157.11329651 412.45974731 C157.10813522 413.63060883 157.10297394 414.80147034 157.09765625 416.0078125 C157.09553383 417.8014473 157.09553383 417.8014473 157.09336853 419.63131714 C157.08775663 423.46256987 157.07520208 427.29376484 157.0625 431.125 C157.05748653 433.71744707 157.05292336 436.30989506 157.04882812 438.90234375 C157.03778333 445.26824898 157.02103359 451.63412037 157 458 C159.23679377 456.90706409 161.47062261 455.80867183 163.703125 454.70703125 C164.64502686 454.24786316 164.64502686 454.24786316 165.60595703 453.77941895 C171.3985034 450.9115406 176.43293082 447.56706918 181 443 C181.29265487 440.61367376 181.29265487 440.61367376 181.22705078 437.81591797 C181.22689972 436.73494843 181.22674866 435.65397888 181.22659302 434.54025269 C181.21627045 433.36939117 181.20594788 432.19852966 181.1953125 430.9921875 C181.1924826 429.79643097 181.18965271 428.60067444 181.18673706 427.36868286 C181.17551305 423.53735481 181.15040431 419.70625778 181.125 415.875 C181.11497308 413.28255545 181.10584673 410.69010725 181.09765625 408.09765625 C181.07556646 401.73169158 181.04206706 395.36586229 181 389 C179.68 388.34 178.36 387.68 177 387 C178.72829492 381.09479535 180.56341644 375.24145302 182.54956055 369.41796875 C197.45836174 325.67127469 202.11204808 277.71126788 194 232 C193.84966309 231.10071777 193.69932617 230.20143555 193.54443359 229.27490234 C185.5335758 182.73206815 163.60227218 136.93206048 132.38134766 101.57006836 C131.38900114 100.44214675 130.4052916 99.30660435 129.42724609 98.16625977 C113.61546815 79.81128121 95.50345928 65.19453819 76 51 C76.99 51.928125 76.99 51.928125 78 52.875 C80 55 80 55 80 57 C80.639375 57.268125 81.27875 57.53625 81.9375 57.8125 C84 59 84 59 85 62 C86.485 62.495 86.485 62.495 88 63 C89.5078125 64.49609375 89.5078125 64.49609375 91.125 66.4375 C93.67529742 69.45870296 96.29027369 72.37155488 99 75.25 C114.84789481 92.8557671 127.86265918 113.15144126 139 134 C139.33064453 134.61601074 139.66128906 135.23202148 140.00195312 135.86669922 C144.58883345 144.49559685 148.52916279 153.36725128 152.3125 162.375 C152.73329834 163.37337891 153.15409668 164.37175781 153.58764648 165.40039062 C160.56883593 182.29349222 160.56883593 182.29349222 159 187 C158.68546875 186.48050781 158.3709375 185.96101562 158.046875 185.42578125 C156.15547585 182.34371215 154.33319749 179.39567202 152 176.625 C147.87934444 171.21663958 145.35938428 164.87976189 142.71337891 158.65234375 C127.09328884 122.04474768 104.32102096 90.26265917 76.375 62.125 C75.65293869 61.39476624 75.65293869 61.39476624 74.91629028 60.64978027 C66.01339271 51.67192172 56.47038782 43.7024559 46.3125 36.1875 C45.64025391 35.68597412 44.96800781 35.18444824 44.27539062 34.66772461 C41.51348713 32.60753729 38.74725126 30.55326548 35.97802734 28.50292969 C27.62115018 22.31340688 19.40769836 16.00460113 11.40234375 9.36352539 C8.52554828 6.98874867 5.66783441 4.72330712 2.5390625 2.6875 C1.70117188 2.130625 0.86328125 1.57375 0 1 C0 0.67 0 0.34 0 0 Z " fill="#080908" transform="translate(566,62)"/>
<path d="M0 0 C13.17584559 8.9334102 22.37958716 22.49213778 26.60083008 37.86669922 C28.98767166 50.62279815 28.48886253 66.15021268 23 78 C22.57589844 78.94488281 22.15179687 79.88976562 21.71484375 80.86328125 C18.21777522 87.906124 13.52663032 93.45377171 8 99 C7.45859375 99.56460938 6.9171875 100.12921875 6.359375 100.7109375 C-4.18635806 110.77731906 -18.27608445 114.50510114 -32.4453125 114.24609375 C-47.41808842 113.20951696 -58.55613632 106.42541162 -69 96 C-69.56460938 95.44699219 -70.12921875 94.89398438 -70.7109375 94.32421875 C-81.74531628 82.56005301 -86.70023848 66.21090299 -86.46850586 50.34350586 C-85.69883928 32.69342353 -77.86780026 16.98703263 -65 5 C-46.31634804 -10.69796129 -20.82523638 -12.77110028 0 0 Z " fill="#DCDCDC" transform="translate(678,275)"/>
<path d="M0 0 C6.93286219 6.74028269 6.93286219 6.74028269 9 10 C8.71655755 16.00898001 5.89750559 21.39350493 3.5 26.8125 C3.05148682 27.83206787 2.60297363 28.85163574 2.14086914 29.90209961 C-9.03385602 54.98769546 -23.80673225 77.44380698 -42 98 C-42.47550293 98.53866699 -42.95100586 99.07733398 -43.44091797 99.63232422 C-48.93638185 105.81816378 -54.62292985 111.74361343 -60.6875 117.375 C-61.43459229 118.0702478 -61.43459229 118.0702478 -62.19677734 118.77954102 C-66.59138108 122.78352918 -71.27662641 126.39426044 -76 130 C-50.84715896 127.12405933 -26.41822402 121.7840901 -1.81396484 115.90722656 C1.96907223 115.00735678 5.75555626 114.12343907 9.54296875 113.2421875 C23.75332082 109.91009209 37.92262071 106.42416665 51.76196289 101.74780273 C53.71262631 101.09602112 55.69284657 100.53406242 57.67578125 99.98828125 C62.90676378 96.85952672 65.26921834 92.10805859 68.3125 86.9375 C68.96041504 85.86798096 69.60833008 84.79846191 70.27587891 83.6965332 C79.75251073 68.89307418 79.75251073 68.89307418 87 53 C84.03 53 81.06 53 78 53 C78 52.67 78 52.34 78 52 C78.68707031 51.99742187 79.37414062 51.99484375 80.08203125 51.9921875 C81.43361328 51.93417969 81.43361328 51.93417969 82.8125 51.875 C83.70582031 51.85179687 84.59914063 51.82859375 85.51953125 51.8046875 C86.33808594 51.53914063 87.15664063 51.27359375 88 51 C88.58201172 49.54787109 88.58201172 49.54787109 89.17578125 48.06640625 C91 45 91 45 93.04516602 44.24609375 C95.81634877 43.74335588 98.57697495 43.38404402 101.375 43.0625 C117.57230377 40.70977624 132.42749114 36.2692561 146.3828125 27.6015625 C149 26 149 26 152 25 C149.01575596 39.58091166 144.52425279 53.76471646 138.8828125 67.53125 C137.83164305 70.03382891 137.83164305 70.03382891 138 73 C138.56589844 73.27714844 139.13179687 73.55429687 139.71484375 73.83984375 C140.44832031 74.20207031 141.18179687 74.56429687 141.9375 74.9375 C142.66839844 75.29714844 143.39929688 75.65679687 144.15234375 76.02734375 C146 77 146 77 147 78 C147.09417773 80.08619022 147.11742878 82.17560477 147.11352539 84.26391602 C147.11367142 84.91755127 147.11381744 85.57118652 147.1139679 86.24462891 C147.11326883 88.41442128 147.10547678 90.58412879 147.09765625 92.75390625 C147.09579205 94.25463311 147.09436816 95.75536057 147.09336853 97.25608826 C147.08954352 101.21318226 147.0797134 105.17023978 147.06866455 109.12731934 C147.05845006 113.16234849 147.05387083 117.19738353 147.04882812 121.23242188 C147.03809111 129.15496469 147.0210149 137.07747781 147 145 C146.67 145 146.34 145 146 145 C145.67 123.88 145.34 102.76 145 81 C140.38 82.98 135.76 84.96 131 87 C126.79953514 88.52673723 122.6084525 90.01242262 118.375 91.4375 C116.09885365 92.21453717 113.82281299 92.99188401 111.546875 93.76953125 C110.43763672 94.14674316 109.32839844 94.52395508 108.18554688 94.91259766 C103.65659128 96.45857928 99.14018718 98.0393523 94.625 99.625 C93.82513672 99.90448486 93.02527344 100.18396973 92.20117188 100.47192383 C88.11211772 101.90151496 84.0291844 103.3462465 79.953125 104.8125 C69.73962687 108.46900293 59.5072112 111.66783306 49.02392578 114.45458984 C46.02503236 115.26273555 43.04472374 116.13263249 40.0625 117 C33.02054101 119.02010114 25.941762 120.88472615 18.8515625 122.7265625 C15.85855674 123.50575778 12.87494852 124.30853808 9.8984375 125.1484375 C-1.2578372 128.25771429 -12.54589092 130.68055471 -23.875 133.0625 C-24.66226471 133.22835602 -25.44952942 133.39421204 -26.26065063 133.56509399 C-31.83526678 134.73599906 -37.41537692 135.87783258 -43 137 C-43.83437592 137.16825287 -44.66875183 137.33650574 -45.52841187 137.50985718 C-58.06718929 140.02106962 -70.62634574 142.08473378 -83.29663086 143.81030273 C-86.09389387 144.19178136 -88.88973687 144.58263706 -91.68554688 144.97460938 C-104.12251948 146.7020315 -116.41783169 148.2505299 -129 148 C-126.14915042 145.69931438 -123.14556752 143.93233962 -119.92456055 142.19726562 C-102.15503749 132.60840394 -86.21120977 120.7014943 -71.328125 107.10546875 C-69.27570017 105.24933287 -67.18154291 103.46629008 -65.0625 101.6875 C-55.13891546 92.99938181 -46.87945064 82.52221404 -39 72 C-38.51917969 71.3596582 -38.03835938 70.71931641 -37.54296875 70.05957031 C-22.10500236 49.3160759 -11.17418339 26.93070054 -1.81445312 2.9050293 C-1 1 -1 1 0 0 Z " fill="#DCDCDC" transform="translate(543,406)"/>
<path d="M0 0 C0.96164062 0.75667969 1.92328125 1.51335937 2.9140625 2.29296875 C10.45321192 8.41974522 17.36566921 15.15524343 24.25 22 C25.17288818 22.91362305 26.09577637 23.82724609 27.04663086 24.76855469 C48.96767033 46.78997784 65.33837992 73.25915573 79 101 C79.34272949 101.69399902 79.68545898 102.38799805 80.03857422 103.10302734 C84.31362139 111.9213325 84.31362139 111.9213325 83.2265625 115.66015625 C81.82634768 118.33126669 80.3004268 120.05901489 78 122 C77.34 122 76.68 122 76 122 C75.53851562 120.84886719 75.07703125 119.69773438 74.6015625 118.51171875 C62.7609775 89.4285518 46.64469557 61.91533559 25 39 C23.89072135 37.71272082 22.78643909 36.42111716 21.6875 35.125 C13.55641982 25.8296543 4.68802159 17.64309488 -5 10 C-5.71671875 9.39285156 -6.4334375 8.78570312 -7.171875 8.16015625 C-34.2156804 -14.52019828 -67.19291045 -30.41570883 -101 -40 C-101.72574219 -40.23066162 -102.45148438 -40.46132324 -103.19921875 -40.69897461 C-138.93559514 -51.96354582 -178.23225864 -52.57432838 -215 -47 C-215.94633301 -46.86078125 -216.89266602 -46.7215625 -217.86767578 -46.578125 C-240.6119181 -43.14203034 -261.98752556 -36.25554375 -283 -27 C-283.7532959 -26.67418945 -284.5065918 -26.34837891 -285.28271484 -26.01269531 C-303.16610826 -18.23380207 -319.61266084 -7.93886284 -335 4 C-336.38251953 5.06347656 -336.38251953 5.06347656 -337.79296875 6.1484375 C-342.8827791 10.14137399 -347.72997702 14.36225278 -352.50390625 18.7265625 C-354.14162692 20.21819541 -355.79495423 21.69290781 -357.46484375 23.1484375 C-368.67905796 32.96308943 -378.04632074 44.13910981 -387 56 C-387.41072754 56.53786133 -387.82145508 57.07572266 -388.24462891 57.62988281 C-404.54211717 79.0929463 -417.32010499 103.50703165 -426 129 C-426.2470166 129.70737305 -426.4940332 130.41474609 -426.74853516 131.14355469 C-435.96523505 157.72547445 -440.22345366 185.52276096 -440.09765625 213.6171875 C-440.09553383 215.45194138 -440.09553383 215.45194138 -440.09336853 217.32376099 C-440.08783678 221.17420045 -440.07529771 225.02457855 -440.0625 228.875 C-440.05747616 231.50911373 -440.05291481 234.14322839 -440.04882812 236.77734375 C-440.03788984 243.18491625 -440.0212215 249.59245374 -440 256 C-443.07805084 253.11968146 -444.70146304 249.9184915 -446.4375 246.125 C-446.89709106 245.12351929 -446.89709106 245.12351929 -447.3659668 244.10180664 C-459.13895013 217.84378801 -460.12867449 184.81975763 -450.25 157.75 C-445.4630932 145.45771461 -439.02664326 133.7826745 -430.1484375 123.94921875 C-425.51511556 118.69335795 -423.56674915 113.21569081 -421.53930664 106.62841797 C-412.78701746 78.86002082 -396.77894544 52.17233382 -378 30 C-377.51241211 29.42362793 -377.02482422 28.84725586 -376.52246094 28.25341797 C-358.27080728 6.74763604 -337.19599617 -9.56098199 -313 -24 C-312.22269531 -24.49628906 -311.44539062 -24.99257812 -310.64453125 -25.50390625 C-292.92246445 -36.69839595 -272.85229533 -43.65437187 -253 -50 C-251.83726562 -50.37253906 -250.67453125 -50.74507812 -249.4765625 -51.12890625 C-164.4762509 -76.8712809 -68.46368826 -55.17574876 0 0 Z " fill="#AAAAAA" transform="translate(463,130)"/>
<path d="M0 0 C4.25444561 3.06041864 8.25815505 6.20343511 12.0625 9.8125 C30.7342849 26.56595084 55.57700554 33.72809354 80 36 C79.42718394 39.55824908 78.51889337 42.25391925 76.734375 45.37890625 C76.26298096 46.20849854 75.79158691 47.03809082 75.3059082 47.89282227 C74.7924585 48.77381592 74.27900879 49.65480957 73.75 50.5625 C72.95178833 51.93523071 72.95178833 51.93523071 72.13745117 53.33569336 C70.43866193 56.23214017 68.72155574 59.11703506 67 62 C66.16106201 63.42119141 66.16106201 63.42119141 65.30517578 64.87109375 C63.66912123 67.61993228 61.9977997 70.34363366 60.3125 73.0625 C59.81524414 73.90047119 59.31798828 74.73844238 58.80566406 75.60180664 C55.07935275 81.47237918 51.5910558 83.91844197 45 86 C44.15977295 86.27142822 43.3195459 86.54285645 42.45385742 86.82250977 C39.62786666 87.68631484 36.78962674 88.47693753 33.9375 89.25 C32.85879639 89.54592041 31.78009277 89.84184082 30.66870117 90.14672852 C-6.71771896 100.30541888 -45.32417909 110.53240569 -84 114 C-80.31921194 110.2714095 -76.54265243 106.67246688 -72.6875 103.125 C-72.11136963 102.59253662 -71.53523926 102.06007324 -70.94165039 101.51147461 C-67.99167856 98.79431898 -65.0116571 96.13936698 -61.9375 93.5625 C-35.40934721 70.48969484 -14.35040381 36.37302768 -2.05859375 3.7109375 C-1 1 -1 1 0 0 Z " fill="#FEFEFE" transform="translate(550,423)"/>
<path d="M0 0 C24.63194073 11.80407619 48.00146811 35.59691228 63.80566406 57.36132812 C65.00233421 59.00320262 66.22858707 60.61916788 67.4609375 62.234375 C90.36297129 92.71624611 105.52027283 130.21159582 110.70751953 167.92773438 C110.98134994 169.86786167 111.29963329 171.8015687 111.62109375 173.734375 C114.92800325 196.08452194 114.07702502 219.84882698 110 242 C109.82839355 242.99402832 109.65678711 243.98805664 109.47998047 245.01220703 C107.04935598 259.0159926 103.65032777 272.32409233 98.82324219 285.69140625 C97.48648225 289.44004266 96.24322891 293.21950011 95 297 C95.99 297.66 96.98 298.32 98 299 C98.40786743 301.0223999 98.40786743 301.0223999 98.45166016 303.53808594 C98.4740274 304.47956482 98.49639465 305.4210437 98.5194397 306.39105225 C98.52915298 307.92224701 98.52915298 307.92224701 98.5390625 309.484375 C98.55141937 310.53272522 98.56377625 311.58107544 98.57650757 312.66119385 C98.5961075 314.88377279 98.60731181 317.106439 98.61083984 319.32910156 C98.62489027 322.72349146 98.69214852 326.11416688 98.76171875 329.5078125 C98.77412126 331.66665028 98.78333875 333.82550918 98.7890625 335.984375 C98.81578033 336.99707458 98.84249817 338.00977417 98.87002563 339.05316162 C98.80390286 345.94462404 98.80390286 345.94462404 96.53297424 348.92593384 C94.76470161 350.47880648 92.99767813 351.76038643 91 353 C90.26354248 353.49741699 89.52708496 353.99483398 88.76831055 354.50732422 C87.83692261 355.02576904 87.83692261 355.02576904 86.88671875 355.5546875 C85.8512793 356.13476562 85.8512793 356.13476562 84.79492188 356.7265625 C84.09947266 357.10554688 83.40402344 357.48453125 82.6875 357.875 C81.97271484 358.2771875 81.25792969 358.679375 80.52148438 359.09375 C75.27738361 362 75.27738361 362 73 362 C72.99191315 361.4097554 72.98382629 360.8195108 72.97549438 360.21138 C72.88937567 354.06298432 72.78986873 347.91490831 72.68261719 341.7668457 C72.64435595 339.47295504 72.60949811 337.17900497 72.578125 334.88500977 C72.53241294 331.5858844 72.47442778 328.28716704 72.4140625 324.98828125 C72.40251129 323.96414627 72.39096008 322.94001129 72.37905884 321.88484192 C72.35918915 320.92422348 72.33931946 319.96360504 72.31884766 318.97387695 C72.30552399 318.13226517 72.29220032 317.29065338 72.2784729 316.42353821 C71.96396382 313.68637865 71.03360376 311.54080539 70 309 C70.42797852 306.53076172 70.42797852 306.53076172 71.37890625 303.9296875 C71.72083008 302.96087646 72.06275391 301.99206543 72.41503906 300.99389648 C72.79370117 299.96466064 73.17236328 298.9354248 73.5625 297.875 C74.32329251 295.69810639 75.07976511 293.51969849 75.83203125 291.33984375 C76.20537598 290.26202637 76.5787207 289.18420898 76.96337891 288.07373047 C81.91055099 273.4046545 84.6924862 258.27723722 87 243 C87.12004395 242.24412598 87.24008789 241.48825195 87.36376953 240.70947266 C90.86697033 217.96216137 90.68417231 192.68362198 87 170 C86.71683841 168.08993401 86.43433587 166.17977025 86.15234375 164.26953125 C83.08679183 144.16391507 77.80589253 125.14598834 71 106 C70.75668945 105.31454102 70.51337891 104.62908203 70.26269531 103.92285156 C66.51700714 93.56277468 61.53587563 83.95900975 56.26269531 74.31054688 C55.07903776 72.14462749 53.9099752 69.97137623 52.7421875 67.796875 C39.84952037 44.06087817 22.91499544 23.51173448 3.65649414 4.69287109 C2.42052758 3.47911996 1.2076595 2.24191935 0 1 C0 0.67 0 0.34 0 0 Z " fill="#4DDBEA" transform="translate(681,135)"/>
<path d="M0 0 C5.06685697 1.6000601 8.80601449 4.65396803 12.9375 7.875 C14.07010254 8.75381836 14.07010254 8.75381836 15.22558594 9.65039062 C17.49316162 11.42202371 19.74930774 13.20698075 22 15 C22.60021973 15.47727539 23.20043945 15.95455078 23.81884766 16.44628906 C39.65711507 29.18546291 54.86271485 43.84829102 66.79052734 60.34179688 C68.05755165 62.07890409 69.36234537 63.78213947 70.67578125 65.484375 C87.79406366 87.8887393 100.88653956 113.36289264 110 140 C110.30921387 140.90298828 110.61842773 141.80597656 110.93701172 142.73632812 C114.64856142 153.77978913 117.58371467 164.87599796 119.8125 176.3125 C120.00739014 177.31240967 120.20228027 178.31231934 120.40307617 179.3425293 C123.33901383 195.35238237 124.38024713 211.18152885 124.3125 227.4375 C124.31067719 228.35142517 124.30885437 229.26535034 124.30697632 230.20697021 C124.25541017 245.64154117 123.49685974 260.7411347 121 276 C120.8443457 276.97888184 120.68869141 277.95776367 120.52832031 278.96630859 C117.26509748 298.653117 111.27033752 318.81066291 103 337 C104.65 337.66 106.3 338.32 108 339 C108.20323762 346.56178745 108.34310386 354.12286833 108.43945312 361.68676758 C108.47962611 364.25832436 108.53417673 366.82969908 108.60351562 369.40063477 C108.70083062 373.10218229 108.74599092 376.80131074 108.78125 380.50390625 C108.82254028 381.64896133 108.86383057 382.79401642 108.90637207 383.97377014 C108.91075665 391.81482131 108.91075665 391.81482131 106.26148987 395.26234436 C104.25405308 397.04292706 102.25384662 398.54913802 100 400 C99.10152344 400.63550781 98.20304688 401.27101563 97.27734375 401.92578125 C96.50519531 402.38339844 95.73304688 402.84101562 94.9375 403.3125 C94.16277344 403.78300781 93.38804687 404.25351562 92.58984375 404.73828125 C89.48072116 406.252982 86.32840615 407.08154199 83 408 C82.99413376 407.33236633 82.98826752 406.66473267 82.98222351 405.97686768 C82.91833479 399.03377695 82.83392652 392.09115169 82.73754883 385.1484375 C82.70427568 382.55670301 82.67625129 379.96489565 82.65356445 377.37304688 C82.62006325 373.64942336 82.56774777 369.92646919 82.51171875 366.203125 C82.50532883 365.04258606 82.4989389 363.88204712 82.49235535 362.68634033 C82.47256119 361.60552185 82.45276703 360.52470337 82.43237305 359.41113281 C82.42126999 358.46071106 82.41016693 357.51028931 82.39872742 356.53106689 C81.93458541 353.58475718 80.84846056 352.2842848 79 350 C79.24462891 347.7668457 79.24462891 347.7668457 80.1015625 345.36328125 C80.40352539 344.48236816 80.70548828 343.60145508 81.01660156 342.69384766 C81.34112305 341.80487793 81.66564453 340.9159082 82 340 C82.55100398 338.38984391 83.10051518 336.77917611 83.6484375 335.16796875 C83.92905029 334.36117676 84.20966309 333.55438477 84.4987793 332.72314453 C89.43344067 318.44301273 93.09172556 304.08535345 95.41137695 289.15405273 C96.78967505 280.33483202 98.5516203 272.69890794 102.42211914 264.64331055 C115.734282 236.76162492 113.85526101 199.49628931 104.11547852 170.90332031 C99.88961093 159.34372357 94.08770722 148.19605543 87.3359375 137.91015625 C84.87443033 134.02527264 83.53914476 130.14062292 82.25 125.75 C79.00776156 115.43575047 74.64186316 105.75053972 70 96 C69.66210449 95.28569824 69.32420898 94.57139648 68.97607422 93.83544922 C56.36586126 67.35211707 39.69167883 43.7140935 20.44384766 21.66772461 C19.43446903 20.50183597 18.43489428 19.32741964 17.44287109 18.14672852 C14.83814094 15.05162428 12.31462567 12.20376025 9.125 9.6875 C7.3203125 8.26171875 7.3203125 8.26171875 6 7 C6 6.34 6 5.68 6 5 C5.38125 4.731875 4.7625 4.46375 4.125 4.1875 C2 3 2 3 0 0 Z " fill="#F5F684" transform="translate(640,112)"/>
<path d="M0 0 C1.76996338 0.66902344 1.76996338 0.66902344 3.57568359 1.3515625 C38.18277214 14.71273147 69.78893903 33.86741829 96.8828125 59.25390625 C99.1536045 61.36911921 101.45779043 63.41721416 103.8125 65.4375 C110.62909955 71.36497787 116.70366526 77.88945594 122.5625 84.75 C123.38621094 85.68457031 124.20992187 86.61914062 125.05859375 87.58203125 C145.14357345 110.53268005 145.14357345 110.53268005 145.5 119.8125 C144.84888981 125.23299237 143.27887362 129.38548825 139.0546875 133.0625 C135.17121394 135.66352415 131.57941421 136.21243412 126.96875 136.28125 C119.60087241 134.65457573 115.90556086 130.21286825 111.8125 124.3125 C110.77535365 122.8752763 109.73492668 121.4404149 108.69140625 120.0078125 C108.1720752 119.29270508 107.65274414 118.57759766 107.11767578 117.84082031 C101.24243109 109.94198271 94.6712754 102.55265589 87.5625 95.75 C85.06570423 93.27363627 82.59283325 90.78166495 80.16015625 88.2421875 C73.14100188 80.99591103 65.61905709 74.80470241 57.5625 68.75 C56.9535791 68.28561523 56.3446582 67.82123047 55.71728516 67.34277344 C33.911623 50.72291927 9.09294639 36.66327592 -17.32397461 28.96606445 C-23.66894022 27.0165905 -27.88112435 24.36069464 -31.375 18.5 C-32.6922509 13.85087918 -33.00776198 10.35820601 -31.4375 5.75 C-22.83320881 -7.36985915 -13.15633178 -5.0428516 0 0 Z " fill="#FCFCFC" transform="translate(348.4375,110.25)"/>
<path d="M0 0 C13.17584559 8.9334102 22.37958716 22.49213778 26.60083008 37.86669922 C28.98767166 50.62279815 28.48886253 66.15021268 23 78 C22.57589844 78.94488281 22.15179687 79.88976562 21.71484375 80.86328125 C18.21777522 87.906124 13.52663032 93.45377171 8 99 C7.45859375 99.56460938 6.9171875 100.12921875 6.359375 100.7109375 C-4.18635806 110.77731906 -18.27608445 114.50510114 -32.4453125 114.24609375 C-47.41808842 113.20951696 -58.55613632 106.42541162 -69 96 C-69.56460938 95.44699219 -70.12921875 94.89398438 -70.7109375 94.32421875 C-81.74531628 82.56005301 -86.70023848 66.21090299 -86.46850586 50.34350586 C-85.69883928 32.69342353 -77.86780026 16.98703263 -65 5 C-46.31634804 -10.69796129 -20.82523638 -12.77110028 0 0 Z M-55.9375 22.5 C-58.77196712 26.43977367 -61.16476551 30.50324062 -63 35 C-63.35578125 35.84046875 -63.7115625 36.6809375 -64.078125 37.546875 C-67.1345338 48.9954571 -66.58918581 63.57926626 -61.546875 74.34375 C-54.6170585 86.2434349 -45.14612482 94.61795839 -32 99 C-17.73928676 99.84172201 -6.52731207 98.20117286 5 89 C10.13790368 83.71579085 14.27534481 77.85770702 17 71 C17.29777344 70.27683594 17.59554687 69.55367187 17.90234375 68.80859375 C22.52682638 55.87282896 20.36233798 42.73252647 14.8671875 30.47265625 C9.05880294 19.2213153 0.56454894 11.65859106 -11.4375 7.625 C-28.50538338 2.91798234 -44.73899068 8.73367962 -55.9375 22.5 Z " fill="#A9A9A9" transform="translate(678,275)"/>
<path d="M0 0 C4.29155082 0.71021602 8.24641965 2.08141508 12.30859375 3.58984375 C13.77787314 4.12763282 15.24719461 4.66530693 16.71655273 5.20288086 C17.48603241 5.48582001 18.25551208 5.76875916 19.04830933 6.06027222 C41.99574216 14.48577205 65.05234236 22.69530086 88.66064453 29.09082031 C91.18472829 29.77803247 93.70607656 30.4728987 96.22607422 31.17480469 C154.40115195 47.3657842 213.64326844 59.12610695 274 63 C275.28148926 63.08677002 275.28148926 63.08677002 276.58886719 63.17529297 C299.55641994 64.68879811 322.59444927 64.41780093 345.5625 63.125 C346.63990448 63.06619156 346.63990448 63.06619156 347.73907471 63.00619507 C365.29690027 62.50168137 365.29690027 62.50168137 382 58 C377.93718259 62.53504869 373.50814257 65.28333424 368.1875 68.1875 C367.03411133 68.84395508 367.03411133 68.84395508 365.85742188 69.51367188 C350.56341558 77.96732092 332.59082499 76.23649968 315.625 76.25 C313.9624115 76.25250763 313.9624115 76.25250763 312.26623535 76.25506592 C295.71981985 76.25654682 279.25864756 75.73921672 262.75 74.625 C261.80312317 74.56187622 260.85624634 74.49875244 259.88067627 74.43371582 C248.85219016 73.68111066 237.93620639 72.63509586 227 71 C225.16574463 70.72929688 225.16574463 70.72929688 223.29443359 70.453125 C214.51064284 69.13515873 205.73964838 67.73447142 196.97131348 66.31774902 C195.14629663 66.02358103 193.32072946 65.73283269 191.49511719 65.44238281 C150.78348529 58.89317292 110.27019776 48.50383686 71 36 C70.28013916 35.77143311 69.56027832 35.54286621 68.81860352 35.30737305 C32.87726498 23.8912367 32.87726498 23.8912367 18.3125 18.5 C17.50731934 18.21068604 16.70213867 17.92137207 15.87255859 17.62329102 C9.78106621 15.2883769 5.9953047 11.66966177 2.1875 6.375 C1.76855469 5.80523437 1.34960938 5.23546875 0.91796875 4.6484375 C0 3 0 3 0 0 Z " fill="#080808" transform="translate(57,480)"/>
<path d="M0 0 C2.375 2.5625 2.375 2.5625 4 5 C3.01 5.33 2.02 5.66 1 6 C1 6.66 1 7.32 1 8 C0.01644531 8.43828125 -0.96710938 8.8765625 -1.98046875 9.328125 C-28.0614551 21.15643926 -51.39200228 36.44918268 -72.5390625 55.76171875 C-74.16422249 57.23984046 -75.80473906 58.70127261 -77.4609375 60.14453125 C-88.67575842 69.9619218 -98.04489067 81.13721541 -107 93 C-107.41072754 93.53786133 -107.82145508 94.07572266 -108.24462891 94.62988281 C-124.54211717 116.0929463 -137.32010499 140.50703165 -146 166 C-146.2470166 166.70737305 -146.4940332 167.41474609 -146.74853516 168.14355469 C-155.96523505 194.72547445 -160.22345366 222.52276096 -160.09765625 250.6171875 C-160.09553383 252.45194138 -160.09553383 252.45194138 -160.09336853 254.32376099 C-160.08783678 258.17420045 -160.07529771 262.02457855 -160.0625 265.875 C-160.05747616 268.50911373 -160.05291481 271.14322839 -160.04882812 273.77734375 C-160.03788984 280.18491625 -160.0212215 286.59245374 -160 293 C-163.07805084 290.11968146 -164.70146304 286.9184915 -166.4375 283.125 C-166.89709106 282.12351929 -166.89709106 282.12351929 -167.3659668 281.10180664 C-179.13895013 254.84378801 -180.12867449 221.81975763 -170.25 194.75 C-165.4630932 182.45771461 -159.02664326 170.7826745 -150.1484375 160.94921875 C-145.51511556 155.69335795 -143.56674915 150.21569081 -141.53930664 143.62841797 C-132.78701746 115.86002082 -116.77894544 89.17233382 -98 67 C-97.51241211 66.42362793 -97.02482422 65.84725586 -96.52246094 65.25341797 C-78.27243233 43.74955083 -57.19737362 27.43352111 -33 13 C-31.79923828 12.23816406 -31.79923828 12.23816406 -30.57421875 11.4609375 C-25.30564908 8.14926513 -19.83193066 5.30224403 -14.25 2.5625 C-13.52844727 2.19576172 -12.80689453 1.82902344 -12.06347656 1.45117188 C-7.69383778 -0.63962243 -4.81511745 -1.61456461 0 0 Z " fill="#989898" transform="translate(183,93)"/>
<path d="M0 0 C6.93286219 6.74028269 6.93286219 6.74028269 9 10 C8.71655755 16.00898001 5.89750559 21.39350493 3.5 26.8125 C3.05148682 27.83206787 2.60297363 28.85163574 2.14086914 29.90209961 C-9.03385602 54.98769546 -23.80673225 77.44380698 -42 98 C-42.47550293 98.53866699 -42.95100586 99.07733398 -43.44091797 99.63232422 C-62.48358739 121.06725682 -86.39909702 145.66094369 -116.015625 147.84765625 C-120.34710899 148.06876603 -124.66454634 148.0863254 -129 148 C-126.14915042 145.69931438 -123.14556752 143.93233962 -119.92456055 142.19726562 C-102.15503749 132.60840394 -86.21120977 120.7014943 -71.328125 107.10546875 C-69.27570017 105.24933287 -67.18154291 103.46629008 -65.0625 101.6875 C-55.13891546 92.99938181 -46.87945064 82.52221404 -39 72 C-38.51917969 71.3596582 -38.03835938 70.71931641 -37.54296875 70.05957031 C-22.10500236 49.3160759 -11.17418339 26.93070054 -1.81445312 2.9050293 C-1 1 -1 1 0 0 Z " fill="#AAAAAA" transform="translate(543,406)"/>
<path d="M0 0 C1.26627475 2.53254951 0.85700843 3.3985617 0.21484375 6.12109375 C-0.08172119 7.38602661 -0.08172119 7.38602661 -0.38427734 8.67651367 C-0.60809082 9.58763916 -0.8319043 10.49876465 -1.0625 11.4375 C-1.29146973 12.37891846 -1.52043945 13.32033691 -1.75634766 14.2902832 C-5.65699882 29.98100102 -10.95072123 45.01998126 -17 60 C-15.35 60.66 -13.7 61.32 -12 62 C-11.83751585 69.97998788 -11.71328682 77.95928026 -11.6373148 85.94051552 C-11.60084354 89.64697485 -11.55141288 93.35229931 -11.47192383 97.05810547 C-11.39563392 100.63733365 -11.35396378 104.21547342 -11.3358593 107.79545212 C-11.32296527 109.15829984 -11.29778363 110.52109062 -11.2598896 111.88347244 C-10.97557357 122.53283754 -10.97557357 122.53283754 -13.48986816 126.13375854 C-15.2598677 127.68342873 -16.95094761 128.85388475 -19 130 C-20.08023438 130.69867187 -21.16046875 131.39734375 -22.2734375 132.1171875 C-23.29695312 132.69726562 -24.32046875 133.27734375 -25.375 133.875 C-26.93347656 134.76832031 -26.93347656 134.76832031 -28.5234375 135.6796875 C-31 137 -31 137 -32 137 C-32.00142502 136.25941849 -32.00285004 135.51883698 -32.00431824 134.7558136 C-32.02216848 127.76692617 -32.06384178 120.77854019 -32.13209057 113.78997517 C-32.16634128 110.19721996 -32.19146738 106.60488907 -32.19555664 103.01196289 C-32.19984401 99.54265892 -32.22834016 96.07431177 -32.27343178 92.60530663 C-32.2926893 90.64177446 -32.28705357 88.67804919 -32.28105164 86.71443176 C-32.11552187 79.62515862 -32.11552187 79.62515862 -35.41918945 73.71166992 C-37.84892949 72.02483963 -37.84892949 72.02483963 -40 71 C-39.38957964 66.76891034 -38.41596684 62.90391357 -37.0390625 58.859375 C-36.64976562 57.70566406 -36.26046875 56.55195313 -35.859375 55.36328125 C-35.45203125 54.17089844 -35.0446875 52.97851562 -34.625 51.75 C-33.82406548 49.39111865 -33.02456271 47.03175063 -32.2265625 44.671875 C-31.64696777 42.97442139 -31.64696777 42.97442139 -31.05566406 41.24267578 C-30.10316073 38.31687807 -29.30245018 35.38932118 -28.5234375 32.4140625 C-27.26682975 28.16598453 -25.71949016 26.18755572 -22 23.625 C-13.29145113 17.11091305 -5.99016846 9.08853145 0 0 Z " fill="#E06177" transform="translate(728,405)"/>
<path d="M0 0 C19.27900899 10.91702919 35.76796904 26.61949707 51.375 42.125 C51.88574066 42.63029236 52.39648132 43.13558472 52.92269897 43.65618896 C59.74076087 50.42002049 66.06861956 57.43334626 72 65 C72.53753906 65.67820801 73.07507813 66.35641602 73.62890625 67.05517578 C88.38403593 85.85110879 100.58455051 106.49002974 110.9375 128 C111.48603638 129.12921875 111.48603638 129.12921875 112.0456543 130.28125 C114.60138362 135.71180134 116.41280614 141.21576142 118 147 C114.27369418 144.22353684 110.56129286 141.43577763 106.890625 138.5859375 C106.34704346 138.1640918 105.80346191 137.74224609 105.2434082 137.30761719 C104.1140982 136.42910094 102.98766541 135.54687468 101.86401367 134.66113281 C98.73374537 132.2216792 95.62286235 130.22856808 92.125 128.375 C86.8546151 124.9026345 85.28758758 119.54050735 83.05078125 113.92578125 C72.97196723 88.95816165 57.78553435 65.92060482 41 45 C40.57348145 44.46310547 40.14696289 43.92621094 39.70751953 43.37304688 C34.3878103 36.68294602 28.76616893 30.30585962 23 24 C22.12214844 23.01773438 21.24429688 22.03546875 20.33984375 21.0234375 C11.2055913 10.2061987 11.2055913 10.2061987 0 2 C0 1.34 0 0.68 0 0 Z " fill="#E16278" transform="translate(596,86)"/>
<path d="M0 0 C-1.49443106 3.46865314 -3.50925726 5.73517344 -6.125 8.4375 C-14.07721732 17.13005216 -20.66373612 28.02326508 -25 39 C-24.67 39.66 -24.34 40.32 -24 41 C-24.53625 41.1959375 -25.0725 41.391875 -25.625 41.59375 C-52.75190741 51.94480677 -76.81662588 68.52841092 -99 87 C-99 82.6399183 -96.32707303 80.54236638 -93.5625 77.4375 C-93.00900879 76.80618164 -92.45551758 76.17486328 -91.88525391 75.52441406 C-90.76849691 74.25338742 -89.64841571 72.9852732 -88.52490234 71.72021484 C-87.28297494 70.31921893 -86.05534366 68.90556032 -84.83203125 67.48828125 C-74.68897654 55.88754203 -63.70270996 44.46859133 -51.53515625 34.98046875 C-48.79787637 32.84210064 -46.19111573 30.58283431 -43.5625 28.3125 C-32.56919649 19.14665474 -20.62358107 11.01708898 -8.375 3.625 C-7.75391357 3.24980225 -7.13282715 2.87460449 -6.49291992 2.48803711 C-2.26331689 0 -2.26331689 0 0 0 Z " fill="#DDDDDD" transform="translate(207,50)"/>
<path d="M0 0 C5.65477747 2.61962534 10.40149318 6.23809357 13 12 C13.99629236 17.63167363 13.05935905 22.24692568 10.27734375 27.20703125 C7.58124289 30.99146641 4.44924858 33.51691714 0 35 C-4.91266479 35.51578753 -8.8290227 35.57444169 -13.3125 33.375 C-17.59460788 29.59081164 -21.53405649 25.94142381 -22.23828125 19.984375 C-22.43531989 14.05247496 -21.50053966 10.82506818 -18 6 C-12.5142996 0.92572713 -7.46165022 -1.35883087 0 0 Z " fill="#F6F783" transform="translate(564,550)"/>
<path d="M0 0 C4.96609674 2.21346026 8.67935053 5.23256962 10.73828125 10.3515625 C11.75867519 15.95536527 11.4795696 20.80097627 8.61328125 25.7890625 C6.01469829 29.28494621 3.81951713 31.60246141 -0.26171875 33.3515625 C-6.16898228 34.07490089 -11.35753672 34.22013676 -16.82421875 31.7265625 C-21.78924618 26.88884346 -23.86195265 22.81620204 -24.63671875 16.1015625 C-24.02611533 9.99552828 -21.05714984 5.97997675 -16.57421875 1.9140625 C-11.47188247 -1.53346202 -5.91729783 -1.69649644 0 0 Z " fill="#E06076" transform="translate(507.26171875,564.6484375)"/>
<path d="M0 0 C5.14174948 2.45624975 8.48506752 5.89528586 11 11 C11.8246573 16.52000338 11.74825056 21.4480729 9.3125 26.5 C4.43136871 31.77689869 1.04291033 34.16738235 -6.125 34.5 C-12.2697123 34.4727809 -15.21479233 33.22800254 -19.51171875 28.921875 C-23.23346166 24.11584478 -23.54442088 20.04851553 -23.44921875 14.05078125 C-22.74666598 9.27953158 -20.54204177 6.18860593 -17 3 C-11.58724671 -0.87913986 -6.46245496 -1.0380109 0 0 Z " fill="#4CDBEC" transform="translate(621,533)"/>
<path d="M0 0 C4.34545632 2.01811455 7.20074267 4.17034606 9.8359375 8.28125 C11.49620211 13.26204383 11.43497175 17.58398629 9.7109375 22.46875 C6.88893003 26.70176121 3.75864758 29.64034664 -1.1640625 31.28125 C-7.72906523 31.59891142 -11.79969083 31.42568012 -16.8515625 26.84375 C-21.16714992 22.06161258 -21.60409138 19.25487614 -21.48046875 13.0078125 C-20.88634919 7.88811558 -18.27328534 5.25842251 -14.5390625 1.96875 C-9.93625226 -1.3016678 -5.35643766 -1.77903345 0 0 Z " fill="#FAFAFA" transform="translate(506.1640625,246.71875)"/>
<path d="M0 0 C0.66 0 1.32 0 2 0 C1.34 3.63 0.68 7.26 0 11 C-0.99 11 -1.98 11 -3 11 C-5.62114749 12.34877433 -8.18327368 13.74213411 -10.75 15.1875 C-18.63428569 19.49915275 -26.3619984 22.52752853 -35 25 C-35.77859375 25.23332031 -36.5571875 25.46664063 -37.359375 25.70703125 C-45.42033763 27.94797886 -53.69189782 28.13400165 -62 28 C-61.690625 27.236875 -61.38125 26.47375 -61.0625 25.6875 C-60.32106407 23.81210323 -59.63771783 21.91315348 -59 20 C-58.11985229 19.87322876 -58.11985229 19.87322876 -57.22192383 19.74389648 C-26.42449386 15.40386972 -26.42449386 15.40386972 0 0 Z " fill="#AAAAAA" transform="translate(693,431)"/>
<path d="M0 0 C5.65477747 2.61962534 10.40149318 6.23809357 13 12 C13.99629236 17.63167363 13.05935905 22.24692568 10.27734375 27.20703125 C7.58124289 30.99146641 4.44924858 33.51691714 0 35 C-4.91266479 35.51578753 -8.8290227 35.57444169 -13.3125 33.375 C-17.59460788 29.59081164 -21.53405649 25.94142381 -22.23828125 19.984375 C-22.43531989 14.05247496 -21.50053966 10.82506818 -18 6 C-12.5142996 0.92572713 -7.46165022 -1.35883087 0 0 Z M-14 10 C-15.84467846 13.68935692 -15.35009552 17.96435342 -15 22 C-13.3002055 26.20475482 -11.1574796 28.20472472 -7 30 C-1.76969824 30.57057837 1.57839146 29.84948106 6 27 C8.49525689 24.76740173 9.80672059 23.19442334 10.34765625 19.8515625 C10.52790132 15.13384381 10.16387508 11.70937079 7 8 C3.18029978 4.64329375 -0.65354577 4.43864004 -5.5546875 4.5703125 C-9.55175316 5.27267228 -11.26833621 7.05820822 -14 10 Z " fill="#A9A9AA" transform="translate(564,550)"/>
<path d="M0 0 C4.96609674 2.21346026 8.67935053 5.23256962 10.73828125 10.3515625 C11.75867519 15.95536527 11.4795696 20.80097627 8.61328125 25.7890625 C6.01469829 29.28494621 3.81951713 31.60246141 -0.26171875 33.3515625 C-6.16898228 34.07490089 -11.35753672 34.22013676 -16.82421875 31.7265625 C-21.78924618 26.88884346 -23.86195265 22.81620204 -24.63671875 16.1015625 C-24.02611533 9.99552828 -21.05714984 5.97997675 -16.57421875 1.9140625 C-11.47188247 -1.53346202 -5.91729783 -1.69649644 0 0 Z M-16.26171875 9.3515625 C-17.99631311 12.82075122 -17.73345752 16.55852782 -17.26171875 20.3515625 C-15.25670995 24.1541654 -13.83485613 25.96947091 -10.26171875 28.3515625 C-5.23361986 29.09582499 -1.29562099 28.88697616 3.23828125 26.5390625 C5.86093334 24.24424192 7.53572612 22.59034706 8.109375 19.08203125 C8.27356077 13.03735801 8.27356077 13.03735801 5.48828125 7.8515625 C1.31190989 4.05486126 -1.32900278 2.78142737 -7.16015625 2.890625 C-11.048796 3.74352368 -13.6681723 6.44979749 -16.26171875 9.3515625 Z " fill="#A8AAA9" transform="translate(507.26171875,564.6484375)"/>
<path d="M0 0 C5.14174948 2.45624975 8.48506752 5.89528586 11 11 C11.8246573 16.52000338 11.74825056 21.4480729 9.3125 26.5 C4.43136871 31.77689869 1.04291033 34.16738235 -6.125 34.5 C-12.2697123 34.4727809 -15.21479233 33.22800254 -19.51171875 28.921875 C-23.23346166 24.11584478 -23.54442088 20.04851553 -23.44921875 14.05078125 C-22.74666598 9.27953158 -20.54204177 6.18860593 -17 3 C-11.58724671 -0.87913986 -6.46245496 -1.0380109 0 0 Z M-17 12 C-17.6424803 18.42480303 -16.69663216 21.71909692 -13 27 C-8.5424425 29.971705 -4.22586818 29.75294249 1 29 C4.17568542 27.34766078 6.37696485 25.24607029 8 22 C8.76087249 17.27004008 9.20220558 12.86725548 6.53125 8.71875 C3.14299072 5.43805451 0.13488669 3.56517077 -4.625 3.25 C-10.64950695 3.73903597 -13.72206907 7.0831036 -17 12 Z " fill="#AAA8A8" transform="translate(621,533)"/>
<path d="M0 0 C-1.87346227 1.41873842 -3.74870493 2.83501625 -5.625 4.25 C-6.66914063 5.03890625 -7.71328125 5.8278125 -8.7890625 6.640625 C-21.39388077 15.90255959 -34.64487225 16.30574369 -50 16 C-46.32966895 13.03148936 -42.30325428 10.83889595 -38.1875 8.5625 C-36.80586381 7.79319459 -35.42435243 7.02366499 -34.04296875 6.25390625 C-33.36613037 5.88128662 -32.68929199 5.50866699 -31.99194336 5.12475586 C-30.68542409 4.38702645 -29.39346651 3.62275712 -28.11938477 2.83032227 C-24.41836563 0.54978424 -21.90837822 -0.46517127 -17.5625 -0.1875 C-14.12691227 -0.04592358 -10.96318625 -0.04224576 -7.5625 -0.5625 C-4.39129038 -0.95194679 -2.93480965 -0.8707677 0 0 Z " fill="#989898" transform="translate(464,538)"/>
<path d="M0 0 C1.64703306 0.81006526 3.29259506 1.6231221 4.9375 2.4375 C5.85402344 2.88996094 6.77054688 3.34242188 7.71484375 3.80859375 C10 5 10 5 11 6 C11.09417773 8.08619022 11.11742878 10.17560477 11.11352539 12.26391602 C11.11367142 12.91755127 11.11381744 13.57118652 11.1139679 14.24462891 C11.11326883 16.41442128 11.10547678 18.58412879 11.09765625 20.75390625 C11.09579205 22.25463311 11.09436816 23.75536057 11.09336853 25.25608826 C11.08954352 29.21318226 11.0797134 33.17023978 11.06866455 37.12731934 C11.05845006 41.16234849 11.05387083 45.19738353 11.04882812 49.23242188 C11.03809111 57.15496469 11.0210149 65.07747781 11 73 C10.67 73 10.34 73 10 73 C9.505 41.32 9.505 41.32 9 9 C5.04 10.65 1.08 12.3 -3 14 C-3.66 14 -4.32 14 -5 14 C-4.54363464 12.603522 -4.08480512 11.2078492 -3.625 9.8125 C-3.36976563 9.03519531 -3.11453125 8.25789063 -2.8515625 7.45703125 C-1.97793078 4.93632321 -1.00879602 2.46935722 0 0 Z " fill="#B8B8B8" transform="translate(679,478)"/>
<path d="M0 0 C0.8353125 0.37125 0.8353125 0.37125 1.6875 0.75 C0.759375 1.306875 -0.16875 1.86375 -1.125 2.4375 C-4.47557757 4.86831118 -5.84556807 5.91967773 -7.3125 9.75 C-7.85096745 14.70838778 -8.01843177 19.13644167 -6 23.75 C-2.79462384 27.62488018 -2.79462384 27.62488018 1.6875 29.75 C3.91568441 29.81937062 6.14584524 29.83457084 8.375 29.8125 C9.55449219 29.80347656 10.73398437 29.79445313 11.94921875 29.78515625 C12.85285156 29.77355469 13.75648438 29.76195312 14.6875 29.75 C12.82298759 32.23382042 11.89230946 32.71964773 8.76171875 33.18359375 C-2.74860732 33.19686979 -2.74860732 33.19686979 -7.3125 28.75 C-11.65894762 23.11136525 -13.02370599 18.86205988 -12.3125 11.75 C-10.12465858 6.89317361 -6.04660752 -0.6536873 0 0 Z " fill="#939393" transform="translate(495.3125,565.25)"/>
<path d="M0 0 C0 0.66 0 1.32 0 2 C-1.423125 2.928125 -1.423125 2.928125 -2.875 3.875 C-6.02100418 6.01428284 -6.74022741 6.60099093 -8 10 C-8.66701024 15.56875991 -8.73172128 20.45525508 -6.3125 25.5625 C-1.33597293 30.80802854 3.02394904 31.55924733 10 32 C9.67 32.66 9.34 33.32 9 34 C4.07017894 34.35073826 0.19484365 34.58614972 -4.3125 32.375 C-8.59460788 28.59081164 -12.53405649 24.94142381 -13.23828125 18.984375 C-13.43531989 13.05247496 -12.50053966 9.82506818 -9 5 C-3.47368421 0 -3.47368421 0 0 0 Z " fill="#969696" transform="translate(555,551)"/>
<path d="M0 0 C0.99 0.33 1.98 0.66 3 1 C2.21625 1.7425 1.4325 2.485 0.625 3.25 C-2.80045397 6.83857082 -4.28629182 9.39544615 -4.3125 14.375 C-4.15465293 20.02963914 -2.64042753 23.44159385 1.5 27.375 C7.3712339 30.10093002 13.81930237 29.78456762 20 28 C16.40507195 31.75833387 14.09052293 32.25798037 8.875 32.5 C2.7302877 32.4727809 -0.21479233 31.22800254 -4.51171875 26.921875 C-8.23272146 22.11680064 -8.53430843 18.05299868 -8.4609375 12.05859375 C-7.74686831 7.32032107 -5.43362425 4.24682086 -2 1 C-1.34 0.67 -0.68 0.34 0 0 Z " fill="#949494" transform="translate(606,535)"/>
<path d="M0 0 C3 1 3 1 4.16757202 2.74725342 C5.11454519 5.30998631 5.27748312 7.31388581 5.31884766 10.04394531 C5.33871735 11.04468079 5.35858704 12.04541626 5.37905884 13.07647705 C5.39061005 14.14952087 5.40216125 15.2225647 5.4140625 16.328125 C5.43342865 17.43226746 5.4527948 18.53640991 5.4727478 19.67401123 C5.53250892 23.19926233 5.57891564 26.72454615 5.625 30.25 C5.66318292 32.64063921 5.70223483 35.03126471 5.7421875 37.421875 C5.83820767 43.28112826 5.92326548 49.14046415 6 55 C6.66 55.33 7.32 55.66 8 56 C6.35 56.66 4.7 57.32 3 58 C2.99191315 57.33236633 2.98382629 56.66473267 2.97549438 55.97686768 C2.8894985 49.03386241 2.78999678 42.09114429 2.68261719 35.1484375 C2.6443123 32.55668964 2.60946213 29.96488834 2.578125 27.37304688 C2.53250783 23.64954517 2.4745069 19.92641185 2.4140625 16.203125 C2.40251129 15.04258606 2.39096008 13.88204712 2.37905884 12.68634033 C2.35918915 11.60552185 2.33931946 10.52470337 2.31884766 9.41113281 C2.30552399 8.46071106 2.29220032 7.51028931 2.2784729 6.53106689 C1.99061956 3.91474024 1.32780382 2.25141613 0 0 Z " fill="#FEFE8A" transform="translate(720,462)"/>
<path d="M0 0 C4.24404412 3.88026891 7.10917547 8.04254346 10 13 C3.0886636 12.52877252 -2.72204161 9.79363994 -9 7 C-8.04362922 4.66220476 -7.46790368 3.28370631 -5.2734375 1.953125 C-3.515625 1.30208333 -1.7578125 0.65104167 0 0 Z " fill="#ACACAC" transform="translate(54,479)"/>
<path d="M0 0 C6.93286219 6.74028269 6.93286219 6.74028269 9 10 C8.75 13.3125 8.75 13.3125 8 16 C7.34 16 6.68 16 6 16 C3.984375 13.76953125 3.984375 13.76953125 1.75 10.8125 C0.62851562 9.36810547 0.62851562 9.36810547 -0.515625 7.89453125 C-2 5 -2 5 -1.234375 2.13671875 C-0.82703125 1.43160156 -0.4196875 0.72648437 0 0 Z " fill="#969696" transform="translate(543,406)"/>
<path d="M0 0 C0.33 0 0.66 0 1 0 C0.57712218 3.45350221 0.08224491 6.72206892 -0.90625 10.0625 C-2.33822143 14.94670828 -3.20215195 19.93703077 -4.125 24.9375 C-4.30675781 25.90751953 -4.48851562 26.87753906 -4.67578125 27.87695312 C-5.12014064 30.25076774 -5.56146909 32.62510299 -6 35 C-6.66 35 -7.32 35 -8 35 C-5.11701943 10.47770645 -5.11701943 10.47770645 0 0 Z " fill="#E2E27F" transform="translate(742,378)"/>
<path d="M0 0 C4.96342307 1.59986064 8.70198762 4.52539832 12.8125 7.625 C13.50537109 8.140625 14.19824219 8.65625 14.91210938 9.1875 C16.61173663 10.45342926 18.30637435 11.72605265 20 13 C18.68 13.99 17.36 14.98 16 16 C12.40147125 13.2239921 9.08225674 10.34645017 6 7 C6 6.34 6 5.68 6 5 C5.38125 4.731875 4.7625 4.46375 4.125 4.1875 C2 3 2 3 0 0 Z " fill="#EAEA89" transform="translate(640,112)"/>
<path d="M0 0 C4.37859255 0.50522222 6.81651224 3.17827222 10 6 C9.67 6.99 9.34 7.98 9 9 C8.34 7.68 7.68 6.36 7 5 C6.01 5.33 5.02 5.66 4 6 C3.01 5.34 2.02 4.68 1 4 C-1.0492094 3.54860541 -1.0492094 3.54860541 -3.1875 3.375 C-4.445625 3.25125 -5.70375 3.1275 -7 3 C-7 2.67 -7 2.34 -7 2 C-4.69 2 -2.38 2 0 2 C0 1.34 0 0.68 0 0 Z " fill="#AEAEA3" transform="translate(565,552)"/>
<path d="M0 0 C1.32 0 2.64 0 4 0 C4.33 3.63 4.66 7.26 5 11 C3.68 11 2.36 11 1 11 C-0.17571451 7.32589215 -0.07366746 3.83070817 0 0 Z " fill="#9D9D9D" transform="translate(483,577)"/>
<path d="M0 0 C0.66 1.32 1.32 2.64 2 4 C-1.3 6.64 -4.6 9.28 -8 12 C-8 8.03869629 -6.65122875 7.17085599 -4 4.3125 C-3.2575 3.50425781 -2.515 2.69601563 -1.75 1.86328125 C-1.1725 1.24839844 -0.595 0.63351563 0 0 Z " fill="#E6E6E6" transform="translate(116,125)"/>
<path d="M0 0 C3.55516781 2.08185502 6.94832145 4.31014716 10.3125 6.6875 C11.19550781 7.31011719 12.07851563 7.93273437 12.98828125 8.57421875 C13.65214844 9.04472656 14.31601562 9.51523438 15 10 C14.67 10.99 14.34 11.98 14 13 C4.08805031 5.67924528 4.08805031 5.67924528 0 2 C0 1.34 0 0.68 0 0 Z " fill="#D56278" transform="translate(596,86)"/>
<path d="M0 0 C0 0.99 0 1.98 0 3 C-3.22791555 5.1519437 -4.28400809 5.20086443 -8 5 C-8 4.67 -8 4.34 -8 4 C-10.97 3.505 -10.97 3.505 -14 3 C-14 2.67 -14 2.34 -14 2 C-13.07316406 1.93941406 -12.14632813 1.87882813 -11.19140625 1.81640625 C-9.39509766 1.69072266 -9.39509766 1.69072266 -7.5625 1.5625 C-5.77005859 1.44068359 -5.77005859 1.44068359 -3.94140625 1.31640625 C-1.11429756 1.32343886 -1.11429756 1.32343886 0 0 Z " fill="#ABA1A2" transform="translate(513,591)"/>
<path d="M0 0 C0.66 0 1.32 0 2 0 C2.33 0.99 2.66 1.98 3 3 C1.78515625 4.82421875 1.78515625 4.82421875 0.0625 6.6875 C-0.50339844 7.31011719 -1.06929687 7.93273437 -1.65234375 8.57421875 C-2.09707031 9.04472656 -2.54179688 9.51523437 -3 10 C-3.99 9.67 -4.98 9.34 -6 9 C-5.01 8.34 -4.02 7.68 -3 7 C-3 6.01 -3 5.02 -3 4 C-1.625 1.8125 -1.625 1.8125 0 0 Z " fill="#A0A0A4" transform="translate(572,573)"/>
<path d="M0 0 C3.5786304 1.65167557 6.74820188 3.78286492 10 6 C9.67 7.32 9.34 8.64 9 10 C7.49702124 8.52386015 5.99768715 7.04400843 4.5 5.5625 C3.6646875 4.73878906 2.829375 3.91507813 1.96875 3.06640625 C0 1 0 1 0 0 Z " fill="#47C1C6" transform="translate(681,135)"/>
<path d="M0 0 C3.3 0.33 6.6 0.66 10 1 C9.67 1.66 9.34 2.32 9 3 C6.36 3 3.72 3 1 3 C0.67 2.01 0.34 1.02 0 0 Z " fill="#A6B0AF" transform="translate(496,593)"/>
<path d="M0 0 C0 0.66 0 1.32 0 2 C-5.29411765 6 -5.29411765 6 -9 6 C-3.15384615 0 -3.15384615 0 0 0 Z " fill="#939393" transform="translate(555,551)"/>
<path d="M0 0 C2.09350689 3.4019487 2.17942163 6.05272412 2 10 C1.01 10.495 1.01 10.495 0 11 C-0.19491452 9.54263913 -0.38069358 8.08405407 -0.5625 6.625 C-0.66691406 5.81289063 -0.77132812 5.00078125 -0.87890625 4.1640625 C-1 2 -1 2 0 0 Z " fill="#DEDE7B" transform="translate(759,290)"/>
<path d="M0 0 C0.33 0 0.66 0 1 0 C1.33 3.96 1.66 7.92 2 12 C0.68 12 -0.64 12 -2 12 C-1.34 8.04 -0.68 4.08 0 0 Z " fill="#9D9D9D" transform="translate(545,563)"/>
<path d="M0 0 C-1.65 0.66 -3.3 1.32 -5 2 C-5 1.34 -5 0.68 -5 0 C-7.31 0 -9.62 0 -12 0 C-12 -0.33 -12 -0.66 -12 -1 C-10.56465159 -1.2226746 -9.12654475 -1.42761906 -7.6875 -1.625 C-6.48673828 -1.79902344 -6.48673828 -1.79902344 -5.26171875 -1.9765625 C-3 -2 -3 -2 0 0 Z " fill="#9EB1B4" transform="translate(625,563)"/>
<path d="M0 0 C0.33 0.99 0.66 1.98 1 3 C0.01 3.99 -0.98 4.98 -2 6 C-3.32 5.34 -4.64 4.68 -6 4 C-5.38125 3.71125 -4.7625 3.4225 -4.125 3.125 C-1.86674235 2.06279958 -1.86674235 2.06279958 0 0 Z " fill="#A6A1A1" transform="translate(629,557)"/>
<path d="M0 0 C0.99 0 1.98 0 3 0 C2.25 4.75 2.25 4.75 0 7 C-0.38133299 5.0085944 -0.71325582 3.00720923 -1 1 C-0.67 0.67 -0.34 0.34 0 0 Z " fill="#A2A2A2" transform="translate(44,231)"/>
<path d="M0 0 C2.89932357 2.39509338 3.50168276 4.31245243 4 8 C2.35 6.35 0.7 4.7 -1 3 C-0.67 2.01 -0.34 1.02 0 0 Z " fill="#ED6A83" transform="translate(710,225)"/>
<path d="M0 0 C3.93673644 1.31224548 6.22719294 2.91910327 9 6 C8.01 6.33 7.02 6.66 6 7 C6 6.34 6 5.68 6 5 C5.38125 4.731875 4.7625 4.46375 4.125 4.1875 C2 3 2 3 0 0 Z " fill="#CCCC7E" transform="translate(640,112)"/>
</svg>
