<?xml version="1.0" encoding="UTF-8"?>
<svg version="1.1" xmlns="http://www.w3.org/2000/svg" width="541" height="980">
<path d="M0 0 C3.40013186 0.5765441 4.92670485 1.60997661 7.25 4.125 C9.66319801 6.66116351 12.10913152 8.96473036 14.8125 11.1875 C35.15768312 28.86188688 50.10448423 58.12053339 52 85 C53.2923657 114.95891299 47.93823546 140.33701664 34.015625 167.03955078 C21.91923305 190.38101299 15.09133227 215.02340933 22 241 C23.41072203 245.14212001 25.09420378 249.06316953 27 253 C27.43054688 253.90105469 27.86109375 254.80210937 28.3046875 255.73046875 C36.01526116 270.82489684 48.0823453 284.19135015 61 295 C62.01735654 295.88864656 63.03282291 296.77945952 64.046875 297.671875 C72.04227767 304.67609293 80.3466968 311.12257832 88.89404297 317.43505859 C102.35180314 327.43555044 115.71030593 337.57662863 128 349 C128.72445312 349.65871094 129.44890625 350.31742187 130.1953125 350.99609375 C135.24306433 355.76554747 138.70169355 360.90313051 142 367 C142.7115625 365.1746875 142.7115625 365.1746875 143.4375 363.3125 C143.83775391 362.28576172 143.83775391 362.28576172 144.24609375 361.23828125 C151.72059453 339.04714681 141.25248433 316.26930611 133 296 C133.99 295.67 134.98 295.34 136 295 C168.82902547 326.47396171 189.70965836 361.21205662 191.38647461 407.70483398 C191.78625405 429.6047135 184.70433298 450.02948288 178.27832031 470.71435547 C170.93685207 492.38478055 170.93685207 492.38478055 172.0625 514.6875 C173.88765768 517.26448627 173.88765768 517.26448627 177.1875 518.125 C183.05898083 517.93249243 187.13959924 515.76248493 191.375 511.75 C192.179375 510.88375 192.179375 510.88375 193 510 C193.66 510 194.32 510 195 510 C195.26941406 509.40574219 195.53882813 508.81148438 195.81640625 508.19921875 C197.00008453 505.99984293 198.20536533 504.59545525 199.9375 502.8125 C219.93520133 480.32545825 238.48128224 443.13360318 238.0625 412.5625 C238.04896484 411.26505859 238.04896484 411.26505859 238.03515625 409.94140625 C238.02355469 409.30074219 238.01195312 408.66007812 238 408 C239.81982422 408.16601562 239.81982422 408.16601562 242 409 C243.48876953 411.28710938 243.48876953 411.28710938 244.8828125 414.34375 C245.40528564 415.47522461 245.92775879 416.60669922 246.46606445 417.77246094 C247.01997095 419.01456055 247.57292577 420.25708492 248.125 421.5 C248.70289266 422.77658299 249.28126753 424.05294779 249.86010742 425.32910156 C262.77438148 453.98372209 273.3449867 483.24304663 280 514 C280.25974609 515.16853516 280.51949219 516.33707031 280.78710938 517.54101562 C284.91700842 536.93773942 285.49456424 556.15052663 285.5625 575.9375 C285.57135223 577.13386078 285.58020447 578.33022156 285.58932495 579.56283569 C285.69867318 601.36163812 283.50254944 622.73642308 277.75 643.8125 C277.4511792 644.92737793 277.1523584 646.04225586 276.84448242 647.19091797 C266.76346144 683.72710856 248.34581098 717.86784648 223.41625977 746.37915039 C222.40376824 747.53790426 221.39708102 748.70174012 220.39428711 749.86889648 C205.76965478 766.80279039 189.4979261 780.55538194 171 793 C196.82588305 794.63973861 225.68838793 779.9299988 246.42578125 765.6796875 C249 764 249 764 251 764 C249.12095141 770.28375954 246.7231522 775.91800891 243.5 781.625 C243.0656665 782.3991626 242.63133301 783.1733252 242.18383789 783.97094727 C237.71219537 791.7685785 232.54637956 798.93907234 227 806 C226.23816406 806.97453125 225.47632813 807.9490625 224.69140625 808.953125 C213.15895778 823.3429894 200.26450591 837.31495935 185.78515625 848.7734375 C183.31011588 850.75208128 180.91080445 852.79677953 178.52172852 854.87768555 C158.94153997 871.83873345 136.67912022 885.73212176 113.90283203 897.95800781 C111.95223695 899.02615508 110.03781124 900.14584036 108.12109375 901.2734375 C105 903 105 903 103 903 C103.63554765 899.52832098 105.04738935 897.22733465 107 894.3125 C109.89387471 889.57770258 111.46086589 885.59469755 111 880 C109.81982604 876.45947812 108.72549494 874.63755616 105.9375 872.1875 C90.19161981 865.82214418 72.49557124 874.29332342 58.00390625 880.3828125 C50.49470101 883.6186678 43.19927068 887.1284259 36 891 C35.35305176 891.33821777 34.70610352 891.67643555 34.03955078 892.02490234 C19.26223761 899.76094278 6.04716507 909.4523028 -6 921 C-6.89074219 921.82757812 -7.78148437 922.65515625 -8.69921875 923.5078125 C-24.81715801 938.9288813 -35.58038288 957.73896303 -39 980 C-39.99 980 -40.98 980 -42 980 C-60.42884403 938.2492938 -60.01693518 894.00515008 -46 851 C-45.62367432 849.83621826 -45.62367432 849.83621826 -45.23974609 848.64892578 C-36.95337942 823.5340408 -24.54322904 798.9999658 -8.28515625 778.109375 C5.52585204 759.3169603 18.59371359 736.96365706 17 713 C15.87258959 707.43396595 13.44577776 703.55662221 9 700 C0.79630924 695.16276402 -6.73053063 693.71196545 -16.15625 695.6484375 C-30.1052041 699.53421757 -42.29702533 708.44752265 -51.22265625 719.8359375 C-51.80917969 720.55007813 -52.39570313 721.26421875 -53 722 C-53.66 722 -54.32 722 -55 722 C-60.58191111 691.16444267 -53.57297074 658.72992347 -40 631 C-39.65453125 630.2898877 -39.3090625 629.57977539 -38.953125 628.84814453 C-30.381609 611.44524848 -19.05856187 595.87529176 -7.64550781 580.25439453 C-3.26384329 574.25138411 1.082273 568.2225613 5.42236328 562.18945312 C6.45475081 560.7566999 7.4894913 559.32563846 8.52685547 557.89648438 C44.37686606 508.4787672 82.64630437 437.77093616 72.6875 374.421875 C70.08286345 361.45788852 63.85512423 349.39921087 53 341.5546875 C50.39408562 339.89884607 47.72959764 338.44386777 45 337 C44.42991211 336.68869141 43.85982422 336.37738281 43.27246094 336.05664062 C16.03173231 321.37872848 -15.86544169 313.70227411 -45.77880859 306.69335938 C-68.91171168 301.26517475 -96.54815903 294.74176139 -111 274 C-114.9936109 266.69807238 -116.22005109 260.25560469 -114.33984375 252.15625 C-110.02513585 237.66181999 -100.4765791 227.46023499 -90 217 C-89.27941406 216.24460938 -88.55882812 215.48921875 -87.81640625 214.7109375 C-81.06517945 207.71399881 -73.7339312 201.84536669 -66 196 C-65.05979004 195.28457031 -65.05979004 195.28457031 -64.10058594 194.5546875 C-57.13415968 189.25637856 -50.10461563 184.06128462 -42.97338867 178.98681641 C-35.56941338 173.70804912 -28.5380191 168.34816737 -22 162 C-21.25878906 161.32066406 -20.51757812 160.64132813 -19.75390625 159.94140625 C3.94441125 137.55738019 14.53678554 105.12203509 15.92797852 73.22753906 C16.5363205 50.51885438 13.52623216 25.1372132 1.8125 5.1640625 C0 2 0 2 0 0 Z " fill="#006CFB" transform="translate(256,0)"/>
<path d="M0 0 C2.97036911 2.74321627 4.86598626 5.24361247 6.62890625 8.875 C7.10094482 9.84526123 7.5729834 10.81552246 8.05932617 11.81518555 C8.55537354 12.86617432 9.0514209 13.91716309 9.5625 15 C10.08626221 16.10577393 10.61002441 17.21154785 11.1496582 18.35083008 C23.59869507 45.04017254 33.09038697 72.72003381 39.375 101.5 C39.71494995 103.05267578 39.71494995 103.05267578 40.06176758 104.63671875 C40.7731223 108.08246857 41.40208434 111.53266136 42 115 C42.13097076 115.75228882 42.26194153 116.50457764 42.3968811 117.27966309 C44.89523067 132.05648898 45.49899163 146.6135414 45.44604492 161.58447266 C45.43754039 165.23267279 45.46642491 168.87929686 45.49804688 172.52734375 C45.56088383 193.32926352 43.23629467 213.71192202 37.75 233.8125 C37.4511792 234.92737793 37.1523584 236.04225586 36.84448242 237.19091797 C26.76346144 273.72710856 8.34581098 307.86784648 -16.58374023 336.37915039 C-17.59623176 337.53790426 -18.60291898 338.70174012 -19.60571289 339.86889648 C-34.23034522 356.80279039 -50.5020739 370.55538194 -69 383 C-43.17411695 384.63973861 -14.31161207 369.9299988 6.42578125 355.6796875 C9 354 9 354 11 354 C9.12095141 360.28375954 6.7231522 365.91800891 3.5 371.625 C2.84849976 372.7862439 2.84849976 372.7862439 2.18383789 373.97094727 C-2.28780463 381.7685785 -7.45362044 388.93907234 -13 396 C-13.76183594 396.97453125 -14.52367187 397.9490625 -15.30859375 398.953125 C-26.84104222 413.3429894 -39.73549409 427.31495935 -54.21484375 438.7734375 C-56.68988412 440.75208128 -59.08919555 442.79677953 -61.47827148 444.87768555 C-81.05846003 461.83873345 -103.32087978 475.73212176 -126.09716797 487.95800781 C-128.04776305 489.02615508 -129.96218876 490.14584036 -131.87890625 491.2734375 C-135 493 -135 493 -137 493 C-136.36445235 489.52832098 -134.95261065 487.22733465 -133 484.3125 C-130.10612529 479.57770258 -128.53913411 475.59469755 -129 470 C-130.18017396 466.45947812 -131.27450506 464.63755616 -134.0625 462.1875 C-149.80838019 455.82214418 -167.50442876 464.29332342 -181.99609375 470.3828125 C-189.50529899 473.6186678 -196.80072932 477.1284259 -204 481 C-204.64694824 481.33821777 -205.29389648 481.67643555 -205.96044922 482.02490234 C-220.73776239 489.76094278 -233.95283493 499.4523028 -246 511 C-246.89074219 511.82757812 -247.78148437 512.65515625 -248.69921875 513.5078125 C-264.81715801 528.9288813 -275.58038288 547.73896303 -279 570 C-279.99 570 -280.98 570 -282 570 C-290.23792765 551.33690336 -296.25380088 531.58854572 -296.09765625 511 C-296.0962413 510.2788501 -296.09482635 509.5577002 -296.09336853 508.81469727 C-296.08783381 506.54308676 -296.07529423 504.27158 -296.0625 502 C-296.05747654 500.44661602 -296.05291512 498.89323048 -296.04882812 497.33984375 C-296.03788589 493.55985672 -296.0206676 489.77994586 -296 486 C-295.34 486 -294.68 486 -294 486 C-294.04253906 484.9790625 -294.08507812 483.958125 -294.12890625 482.90625 C-292.99681874 448.60056793 -257.42735712 406.72551891 -237 381 C-236.49855469 380.36707031 -235.99710937 379.73414063 -235.48046875 379.08203125 C-229.12234108 371.08409449 -222.62478817 363.29601246 -215.6328125 355.84375 C-213.59708159 353.64491899 -211.61377463 351.42458643 -209.6484375 349.1640625 C-199.33283415 337.32776566 -188.39100367 326.19243248 -176.78173828 315.62890625 C-175.02826229 314.02583804 -173.29110043 312.4069345 -171.55859375 310.78125 C-165.79849258 305.38594681 -159.9479656 300.20481533 -153.7890625 295.26171875 C-151.31298845 293.25380996 -148.88575268 291.19904229 -146.46948242 289.11987305 C-141.01184346 284.43103332 -135.42291932 279.96979793 -129.6875 275.625 C-117.63284562 266.48294329 -105.91829427 257.09452517 -94.90234375 246.71484375 C-92.35538616 244.33242716 -89.76205323 242.03129563 -87.125 239.75 C-83.76589837 236.78035943 -80.81021582 233.65540499 -77.921875 230.23046875 C-75.65182681 227.59592096 -73.26230144 225.0912456 -70.875 222.5625 C-49.30727222 199.30920822 -33.05846425 171.73097636 -20 143 C-19.45230957 141.80503906 -19.45230957 141.80503906 -18.89355469 140.5859375 C-16.29179356 134.84147871 -14.3498373 129.09167976 -12.59472656 123.03320312 C-11.93039211 120.76203018 -11.24221134 118.49863212 -10.5546875 116.234375 C-6.87351365 103.93776227 -4.17744238 91.64348022 -2 79 C-1.67708984 77.21916016 -1.67708984 77.21916016 -1.34765625 75.40234375 C0.85886754 62.92018364 1.15911273 50.63787505 1.13037109 37.99487305 C1.12503197 35.20420854 1.13033111 32.41370637 1.13671875 29.62304688 C1.14002613 19.69926431 0.91459354 9.88865201 0 0 Z " fill="#FBFB00" transform="translate(496,410)"/>
<path d="M0 0 C6.72486495 -0.09893926 13.44946194 -0.16771907 20.17489624 -0.21749878 C22.70316638 -0.24000096 25.23137586 -0.27108017 27.75942993 -0.31106567 C31.27316295 -0.36464233 34.78572069 -0.38624761 38.29980469 -0.39990234 C39.84089401 -0.43383842 39.84089401 -0.43383842 41.41311646 -0.46846008 C47.99564372 -0.44922101 52.52127402 0.7407542 57.55371094 5.12353516 C61.8363318 10.23534683 62.20077238 15.38479439 62.30371094 21.87353516 C62.32973389 22.78514404 62.35575684 23.69675293 62.38256836 24.63598633 C62.43172494 26.52728981 62.47162154 28.41885574 62.50244141 30.31054688 C62.55186632 33.02232738 62.64447365 35.7296463 62.74511719 38.43994141 C62.78785004 40.1052469 62.82831509 41.77061257 62.86621094 43.43603516 C62.89618164 44.19303711 62.92615234 44.95003906 62.95703125 45.72998047 C63.0247097 52.34187115 60.91247032 57.21371191 56.76464844 62.33056641 C55.85585938 63.12527344 55.85585938 63.12527344 54.92871094 63.93603516 C54.33832031 64.47873047 53.74792969 65.02142578 53.13964844 65.58056641 C46.15049919 69.75082918 37.83698619 70.70364326 29.87841797 71.56567383 C28.86235474 71.68315475 27.8462915 71.80063568 26.79943848 71.92167664 C23.47109759 72.30405167 20.14144191 72.67314122 16.81152344 73.04150391 C14.47794777 73.30564679 12.14444252 73.57041237 9.81100464 73.83576965 C4.9314429 74.38862661 0.05122175 74.9350975 -4.82958984 75.47680664 C-11.05992387 76.16864814 -17.2885584 76.87459974 -23.51678276 77.58515453 C-28.33256917 78.13327947 -33.14908607 78.67474703 -37.96585464 79.21416664 C-40.26158283 79.47188557 -42.55710743 79.73142533 -44.85241318 79.99287987 C-48.07164755 80.35838282 -51.29174228 80.7151031 -54.51220703 81.06958008 C-55.91069382 81.23082367 -55.91069382 81.23082367 -57.33743286 81.39532471 C-69.13600506 82.67073646 -80.56987041 83.59069634 -90.77050781 76.51025391 C-97.14249887 71.19829833 -100.73637826 65.35130066 -103.02441406 57.37353516 C-103.24071472 56.6383667 -103.45701538 55.90319824 -103.67987061 55.14575195 C-104.13219786 53.59418862 -104.57898952 52.04100183 -105.02050781 50.48632812 C-105.68825989 48.15160826 -106.3863859 45.82750423 -107.08691406 43.50244141 C-113.04373169 23.1430437 -113.04373169 23.1430437 -109.45751953 13.45141602 C-105.92503176 7.36008319 -100.90488547 4.54723064 -94.44628906 2.12353516 C-90.9991599 1.45772124 -87.65825132 1.36012296 -84.15332031 1.34619141 C-83.16926712 1.32291275 -82.18521393 1.29963409 -81.17134094 1.27565002 C-79.04202741 1.22846437 -76.91244887 1.19220581 -74.78277588 1.16583252 C-71.39288334 1.12285812 -68.00488961 1.0484946 -64.61572266 0.96679688 C-48.02557567 0.58406679 -31.43043507 0.39842877 -14.83713818 0.20232391 C-9.89128741 0.14318219 -4.94565658 0.07344896 0 0 Z M-0.43847656 24.36572266 C-2.35750479 24.49558055 -4.27654182 24.62530849 -6.19558716 24.75491333 C-10.19472268 25.02609861 -14.19361507 25.30059555 -18.19238281 25.57714844 C-23.30940962 25.93051875 -28.42711183 26.27282513 -33.54507256 26.61236382 C-37.4985811 26.87633368 -41.4515723 27.14749619 -45.40445328 27.42068863 C-47.29167677 27.54999472 -49.17907615 27.67676055 -51.06664658 27.80089951 C-53.70142432 27.97498756 -56.33532125 28.15910105 -58.96923828 28.34570312 C-59.74232834 28.394617 -60.5154184 28.44353088 -61.31193542 28.493927 C-66.46589604 28.87344426 -71.4385089 29.28341077 -75.36425781 32.88134766 C-77.91257658 38.16197933 -74.91024106 45.32958745 -73.50878906 50.74853516 C-72.56170082 53.43153118 -72.56170082 53.43153118 -69.44628906 55.12353516 C-59.3142576 56.45604892 -48.1925178 54.27426633 -38.07910156 53.26025391 C-36.11141109 53.06553971 -34.14370865 52.87094641 -32.17599487 52.6764679 C-28.07232515 52.26932888 -23.9691473 51.85757579 -19.86621094 51.44311523 C-14.61180226 50.91317138 -9.35591926 50.39973965 -4.09948921 49.89029217 C-0.04431116 49.49460243 4.00969224 49.0877681 8.06344986 48.67780495 C10.00151027 48.48362975 11.93997919 48.29348732 13.8788414 48.10748863 C16.58412877 47.8467761 19.28739412 47.57048551 21.99072266 47.2902832 C22.78768051 47.21691238 23.58463837 47.14354156 24.40574646 47.06794739 C29.22377381 46.54793216 33.04890113 45.62834496 36.55371094 42.12353516 C36.98087162 36.29229512 37.16094507 30.47522626 34.55371094 25.12353516 C26.23741385 19.5793371 9.36526095 23.69170926 -0.43847656 24.36572266 Z " fill="#EFEFEF" transform="translate(110.4462890625,673.87646484375)"/>
<path d="M0 0 C0.79486816 0.08677002 1.58973633 0.17354004 2.40869141 0.26293945 C8.05574449 0.93074449 8.05574449 0.93074449 9.1875 2.0625 C8.79376571 7.37457613 7.29258398 11.62938134 4.875 16.3125 C4.43124023 17.22902344 4.43124023 17.22902344 3.97851562 18.1640625 C2.19541544 21.691751 0.82177595 24.38788265 -2.8125 26.0625 C-7.01581958 26.5293734 -11.23506128 26.4506069 -15.45898438 26.4140625 C-21.02622055 26.50475923 -21.02622055 26.50475923 -25.73828125 29.34375 C-26.42277344 30.2409375 -27.10726562 31.138125 -27.8125 32.0625 C-28.39515625 32.76632812 -28.9778125 33.47015625 -29.578125 34.1953125 C-30.06796875 34.85273437 -30.5578125 35.51015625 -31.0625 36.1875 C-31.56265625 36.85007812 -32.0628125 37.51265625 -32.578125 38.1953125 C-33.98518266 40.1482485 -33.98518266 40.1482485 -34.8125 43.0625 C-30.40178701 43.18702065 -25.99203143 43.27726527 -21.58007812 43.3371582 C-20.08250077 43.36215007 -18.58504349 43.39615627 -17.08789062 43.43969727 C-5.02789398 43.88274803 -5.02789398 43.88274803 5.1875 38.0625 C5.71279297 37.62365479 6.23808594 37.18480957 6.77929688 36.73266602 C8.29133301 35.43226679 9.74044533 34.0598426 11.1875 32.6875 C12.22859837 31.71163295 13.27026477 30.73637154 14.3125 29.76171875 C15.26125 28.87097656 16.21 27.98023438 17.1875 27.0625 C19.12986278 25.30937477 21.08969206 23.58403788 23.07421875 21.87890625 C24.71710865 20.46681049 26.3410237 19.03262623 27.95703125 17.58984375 C40.11948837 6.89826896 51.13954525 3.06636122 67.1875 4.0625 C74.70875352 4.77911062 82.18955074 5.83118035 89.66918945 6.88842773 C93.14023856 7.37714556 96.61368929 7.84482641 100.08789062 8.31054688 C102.31788064 8.61854671 104.54770497 8.92774899 106.77734375 9.23828125 C107.80456039 9.37591385 108.83177704 9.51354645 109.89012146 9.65534973 C118.1144294 10.83918552 125.74293931 12.15991321 131.0546875 19.0390625 C133.03009367 22.56754662 133.66210693 26.05759765 133.1875 30.0625 C130.9035654 36.61639929 127.10729169 42.24715964 123.375 48.0625 C122.77107422 49.0215625 122.16714844 49.980625 121.54492188 50.96875 C112.42968616 65.25484601 112.42968616 65.25484601 105.1875 69.375 C104.383125 69.84550781 103.57875 70.31601562 102.75 70.80078125 C90.52531222 76.81994917 75.91281796 74.1075414 62.8125 72.75 C61.61729736 72.63245361 60.42209473 72.51490723 59.19067383 72.39379883 C57.50687622 72.20466919 57.50687622 72.20466919 55.7890625 72.01171875 C54.78182129 71.90174561 53.77458008 71.79177246 52.73681641 71.6784668 C49.92288983 70.99856479 48.83854736 70.4217912 47.1875 68.0625 C47.24600281 62.08058739 49.57340315 58.06593036 52.6875 53.1875 C53.10386719 52.51203125 53.52023438 51.8365625 53.94921875 51.140625 C56.95721726 46.29278274 56.95721726 46.29278274 58.1875 45.0625 C60.59813425 45.12920938 62.97195515 45.25956842 65.375 45.4375 C66.08881836 45.48350342 66.80263672 45.52950684 67.53808594 45.5769043 C71.10955884 45.81265942 74.66521754 46.10062706 78.22265625 46.49609375 C79.44855469 46.62113281 80.67445313 46.74617187 81.9375 46.875 C83.04609375 47.00519531 84.1546875 47.13539063 85.296875 47.26953125 C88.29050355 47.32857819 88.29050355 47.32857819 90.453125 45.26171875 C93.34249844 41.59794117 94.43918862 39.71873948 94.1875 35.0625 C89.65492259 34.31684635 85.12015555 33.58711302 80.58276367 32.87133789 C79.04301915 32.6262357 77.50393077 32.37697074 75.96557617 32.12329102 C62.75158278 29.47964738 62.75158278 29.47964738 49.91015625 32.15625 C49.36230469 32.6203125 48.81445312 33.084375 48.25 33.5625 C47.59773438 34.10261719 46.94546875 34.64273438 46.2734375 35.19921875 C45.58507812 35.81410156 44.89671875 36.42898438 44.1875 37.0625 C43.41664063 37.74957031 42.64578125 38.43664062 41.8515625 39.14453125 C40.16448084 40.66396915 38.48237396 42.18894472 36.8046875 43.71875 C33.3733122 46.7916234 29.83311719 49.70591013 26.2421875 52.58984375 C23.96863141 54.43020309 21.73291723 56.29426611 19.5078125 58.19140625 C6.74668937 68.94322139 6.74668937 68.94322139 -1.8125 70.0625 C-2.42876755 70.14638474 -3.0450351 70.23026947 -3.67997742 70.31669617 C-9.41109793 71.03475334 -14.97810176 71.1363347 -20.74609375 70.9765625 C-21.66407242 70.95532318 -22.58205109 70.93408386 -23.52784729 70.91220093 C-25.45654302 70.8662413 -27.38517076 70.81734175 -29.3137207 70.765625 C-32.23831257 70.68781097 -35.1630071 70.6205201 -38.08789062 70.5546875 C-39.97397375 70.50843705 -41.86004217 70.46158197 -43.74609375 70.4140625 C-44.60681992 70.39421295 -45.46754608 70.3743634 -46.35435486 70.35391235 C-50.63952186 70.23443063 -54.91369394 70.03108245 -59.18774414 69.69677734 C-59.97790421 69.63614105 -60.76806427 69.57550476 -61.58216858 69.51303101 C-65.7062157 68.67996598 -68.43441474 66.46488102 -70.8125 63.0625 C-72.51945982 59.06666224 -72.44560444 55.76679454 -70.9375 51.70703125 C-69.37792761 48.71320925 -67.63015309 45.9083875 -65.8125 43.0625 C-64.86872476 41.55014444 -63.92610575 40.03706699 -62.984375 38.5234375 C-60.91102137 35.20494936 -58.81729324 31.90060037 -56.70703125 28.60546875 C-55.02533132 25.97872599 -53.37757495 23.34425234 -51.76171875 20.67578125 C-45.16802787 9.80755973 -38.14149925 3.33957205 -25.8671875 -0.5546875 C-17.480611 -2.11720556 -8.41820515 -0.92444084 0 0 Z " fill="#EFEFEF" transform="translate(93.8125,548.9375)"/>
<path d="M0 0 C0.77359863 0.07839111 1.54719727 0.15678223 2.34423828 0.23754883 C6.06532615 0.66394903 9.23527273 1.10343478 12.4375 3.125 C11.95924896 8.76981154 10.45853553 12.60558409 7.5625 17.4375 C7.21058594 18.05689453 6.85867187 18.67628906 6.49609375 19.31445312 C4.6970479 22.39423235 3.45093761 24.11604159 0.4375 26.125 C-1.67553711 26.3203125 -1.67553711 26.3203125 -4.08984375 26.25 C-5.40178711 26.22679687 -5.40178711 26.22679687 -6.74023438 26.203125 C-8.57617501 26.15115216 -10.41211253 26.0990693 -12.24804688 26.046875 C-13.12396484 26.03140625 -13.99988281 26.0159375 -14.90234375 26 C-15.70019287 25.97679687 -16.49804199 25.95359375 -17.32006836 25.9296875 C-21.28917342 26.27539072 -23.20056365 27.73629861 -25.88671875 30.62109375 C-26.66660156 31.59175781 -27.44648437 32.56242187 -28.25 33.5625 C-29.03761719 34.53058594 -29.82523438 35.49867188 -30.63671875 36.49609375 C-32.702203 39.03491175 -32.702203 39.03491175 -33.5625 42.125 C-32.18191406 42.21587891 -32.18191406 42.21587891 -30.7734375 42.30859375 C-29.50757813 42.39238281 -28.24171875 42.47617187 -26.9375 42.5625 C-26.26323975 42.6047168 -25.58897949 42.64693359 -24.89428711 42.69042969 C-21.49547467 42.90763659 -18.11944093 43.17061566 -14.73046875 43.51953125 C-13.54066406 43.63683594 -12.35085937 43.75414062 -11.125 43.875 C-10.05378906 43.99359375 -8.98257813 44.1121875 -7.87890625 44.234375 C-0.71499204 43.99810928 4.51635359 40.76856811 9.9375 36.25 C10.52571533 35.77530273 11.11393066 35.30060547 11.7199707 34.81152344 C13.63582039 33.26115969 15.5381545 31.6955305 17.4375 30.125 C46.79078865 5.85658885 46.79078865 5.85658885 66.28515625 7.60351562 C74.60438832 8.5675379 82.83737872 10.20339978 91.05932617 11.77099609 C94.25729649 12.37638125 97.45929337 12.95603033 100.66210938 13.53515625 C102.71904591 13.92291271 104.77569774 14.31218322 106.83203125 14.703125 C108.2510247 14.9550058 108.2510247 14.9550058 109.69868469 15.2119751 C116.27644207 16.50482393 122.67686386 18.48436809 126.88226318 24.03030396 C129.47490838 28.30916663 129.73718084 31.81776341 129.08178711 36.68554688 C127.88040524 41.23431823 125.18657569 44.74633614 122.4375 48.5 C121.55336426 49.74172974 121.55336426 49.74172974 120.65136719 51.00854492 C118.93551695 53.39787806 117.19267723 55.7644636 115.4375 58.125 C114.99212891 58.73327637 114.54675781 59.34155273 114.08789062 59.96826172 C109.33321429 66.40801707 104.53763355 71.35024545 97.4375 75.125 C96.83808594 75.46273437 96.23867187 75.80046875 95.62109375 76.1484375 C85.24597643 81.03348194 72.02353768 77.96666191 61.1875 76.3125 C60.07963135 76.14741943 58.9717627 75.98233887 57.83032227 75.81225586 C56.78803467 75.64089111 55.74574707 75.46952637 54.671875 75.29296875 C53.26760254 75.06516724 53.26760254 75.06516724 51.83496094 74.83276367 C49.18670282 74.0509612 48.06384441 73.33895531 46.4375 71.125 C46.45357991 65.56135201 49.26022723 61.77615252 52.3125 57.375 C52.75980469 56.70339844 53.20710938 56.03179688 53.66796875 55.33984375 C55.80717956 52.19097591 57.20517875 50.27988083 60.4375 48.125 C63.58203125 48.33203125 63.58203125 48.33203125 67.25 48.9375 C69.05404297 49.22560547 69.05404297 49.22560547 70.89453125 49.51953125 C73.12021327 49.89988485 75.34553197 50.28237711 77.5703125 50.66796875 C83.99983517 51.69454885 83.99983517 51.69454885 90.4375 51.125 C92.86293089 49.15872641 94.31516184 47.03126512 95.4375 44.125 C95.4375 42.805 95.4375 41.485 95.4375 40.125 C88.42297078 38.62415318 81.40282258 37.15385708 74.37353516 35.72363281 C72.63258667 35.3686681 70.89236111 35.01007442 69.15380859 34.64355469 C67.41956079 34.28164768 65.67878683 33.95136218 63.9375 33.625 C63.0403125 33.4496875 62.143125 33.274375 61.21875 33.09375 C53.69938092 33.17823729 48.14254623 37.46811195 42.5 42 C41.01185969 43.16554456 39.52357408 44.33090361 38.03515625 45.49609375 C36.90037842 46.39303955 36.90037842 46.39303955 35.74267578 47.30810547 C12.05015006 65.98209153 -2.88796711 72.52109912 -33.28955078 70.02856445 C-35.95390067 69.81116176 -38.61918553 69.61243759 -41.28515625 69.41601562 C-43.01050137 69.28233874 -44.73576542 69.14761048 -46.4609375 69.01171875 C-47.24238129 68.95328293 -48.02382507 68.89484711 -48.82894897 68.8346405 C-64.31242354 67.53416969 -64.31242354 67.53416969 -69.5625 62.125 C-71.88217302 58.8111814 -72.15196091 56.10386115 -71.5625 52.125 C-67.47838711 43.21263502 -60.77566044 35.20817948 -55.08203125 27.26464844 C-53.64773435 25.24501829 -52.24099538 23.20944014 -50.84375 21.1640625 C-37.13092436 1.20436998 -23.543799 -2.4876916 0 0 Z " fill="#EFEFEF" transform="translate(146.5625,469.875)"/>
<path d="M0 0 C4.6299815 0.35794993 8.75655327 2.49524822 12.9453125 4.3671875 C14.12401161 4.88670486 14.12401161 4.88670486 15.32652283 5.41671753 C17.92812926 6.56475952 20.52652649 7.71988659 23.125 8.875 C24.95869665 9.68568824 26.79260341 10.4959014 28.62670898 11.30566406 C32.4726075 13.0046709 36.31717739 14.70663295 40.16064453 16.41113281 C45.82246686 18.92202691 51.48696191 21.42683679 57.15234375 23.9296875 C58.97924822 24.73681602 60.80615252 25.54394492 62.63305664 26.35107422 C63.53025421 26.7474408 64.42745178 27.14380737 65.35183716 27.55218506 C68.0608762 28.74928246 70.769611 29.94706585 73.47827148 31.14501953 C86.95411883 37.10388794 100.44595992 43.02541788 113.94921875 48.921875 C115.08536621 49.42267578 116.22151367 49.92347656 117.39208984 50.43945312 C120.00815887 51.57099415 122.62626902 52.66495422 125.26806641 53.73242188 C125.98678421 54.02965149 126.70550201 54.3268811 127.44599915 54.63311768 C128.8252305 55.20295077 130.20976274 55.76019287 131.6002655 56.30194092 C136.56400009 58.37751832 139.05506951 60.62569392 142 65 C141.98238949 70.80559788 140.26116048 75.81039032 138.1875 81.1875 C137.8152832 82.21520508 137.8152832 82.21520508 137.43554688 83.26367188 C135.64119692 88.00751311 133.64608798 92.20636594 129.30761719 95.14717102 C126.06951061 96.34388213 123.46549947 96.03789223 120.02734375 95.78198242 C119.32874741 95.73016154 118.63015106 95.67834066 117.91038513 95.62494946 C108.75943933 94.89529824 99.66228174 93.67923647 90.5625 92.48828125 C88.60628289 92.23625818 86.6500028 91.98472353 84.69366455 91.73364258 C79.52299941 91.06883663 74.35313867 90.39796971 69.1834259 89.72580338 C63.85939707 89.03458607 58.53467572 88.34875171 53.20996094 87.6628418 C51.08953825 87.38966618 48.96911589 87.11648809 46.84869385 86.8433075 C45.80652962 86.70905554 44.76436539 86.57480358 43.69062042 86.43648338 C40.56042268 86.03299632 37.43031785 85.62879509 34.30023193 85.22444153 C22.93785152 83.7575352 11.57355699 82.30941266 0.203125 80.90625 C-0.96037476 80.76253464 -2.12387451 80.61881927 -3.32263184 80.4707489 C-8.39024345 79.84609636 -13.45843884 79.22661139 -18.52734375 78.61254883 C-20.2213648 78.40454624 -21.91537606 78.19646381 -23.609375 77.98828125 C-24.35048523 77.90030273 -25.09159546 77.81232422 -25.85516357 77.72167969 C-30.77343321 77.11328339 -30.77343321 77.11328339 -33 76 C-32.38429135 71.23974508 -30.42862062 67.53998642 -28.1875 63.375 C-27.84396484 62.70726562 -27.50042969 62.03953125 -27.14648438 61.3515625 C-25.19046468 57.68173192 -23.63210937 55.0595943 -20 53 C-16.79199219 52.65942383 -16.79199219 52.65942383 -13.046875 52.70703125 C-12.05654266 52.71339851 -12.05654266 52.71339851 -11.04620361 52.71989441 C-8.94704609 52.73662565 -6.84886504 52.77426449 -4.75 52.8125 C-3.32293058 52.82755416 -1.89584604 52.84124129 -0.46875 52.85351562 C3.02114817 52.88650999 6.5104787 52.93825257 10 53 C10.47555272 51.41935875 10.95074201 49.83860815 11.42578125 48.2578125 C11.69044189 47.37754395 11.95510254 46.49727539 12.2277832 45.59033203 C13.17863774 42.40077573 14.09486151 39.20279772 15 36 C14.18144531 35.74992187 13.36289063 35.49984375 12.51953125 35.2421875 C8.42213965 33.79604929 4.58592414 32.03341874 0.6875 30.125 C-0.04017578 29.78597656 -0.76785156 29.44695312 -1.51757812 29.09765625 C-6.77879672 26.51853139 -6.77879672 26.51853139 -7.78320312 24.1640625 C-8.04327843 21.56799549 -7.61205197 19.79963751 -6.85546875 17.3046875 C-6.59056641 16.42425781 -6.32566406 15.54382813 -6.05273438 14.63671875 C-5.76720703 13.72535156 -5.48167969 12.81398438 -5.1875 11.875 C-4.91357422 10.95589844 -4.63964844 10.03679687 -4.35742188 9.08984375 C-2.26914683 2.26914683 -2.26914683 2.26914683 0 0 Z M40 46 C39.32404685 47.41225926 38.65959941 48.83002905 38 50.25 C37.62875 51.03890625 37.2575 51.8278125 36.875 52.640625 C35.76818748 55.2056657 35.76818748 55.2056657 36 59 C41.92196071 59.83964382 47.84441511 60.67568684 53.76733398 61.50854492 C55.77788677 61.79175997 57.78830659 62.07592077 59.79858398 62.36108398 C62.70521275 62.7732233 65.61231906 63.18184269 68.51953125 63.58984375 C69.40332962 63.71592514 70.28712799 63.84200653 71.19770813 63.97190857 C77.45124281 64.84478856 83.70779289 65.47763218 90 66 C86.93634673 63.95756449 84.09141706 62.74593717 80.671875 61.390625 C80.0458136 61.1413324 79.4197522 60.89203979 78.77471924 60.63519287 C76.76775516 59.83687172 74.75894024 59.0433333 72.75 58.25 C71.4451847 57.73209269 70.140496 57.21386633 68.8359375 56.6953125 C66.87887867 55.91749611 64.92152377 55.14048617 62.9630127 54.36633301 C59.54909625 53.01655651 56.14083721 51.65449723 52.74023438 50.27148438 C52.05262024 49.9928656 51.3650061 49.71424683 50.65655518 49.42718506 C49.33927575 48.89279931 48.02309994 48.35568281 46.70819092 47.81549072 C43.4585738 46.44264124 43.4585738 46.44264124 40 46 Z " fill="#F1F1F1" transform="translate(158,382)"/>
<path d="M0 0 C1.78464335 0.58218811 3.56931175 1.16429941 5.35400391 1.74633789 C18.17844855 5.93385447 30.98989732 10.1609235 43.77832031 14.45727539 C51.15247744 16.93345912 58.53298236 19.38497912 65.93481445 21.77742004 C69.77231067 23.01908064 73.60637716 24.2711487 77.44024658 25.5239563 C79.29033052 26.12547973 81.14198838 26.72218706 82.99530029 27.31369019 C107.95100576 35.28376091 107.95100576 35.28376091 114.5625 46.0625 C117.28668488 51.72035975 118.04869643 56.7651965 117.9375 63 C117.92952393 63.81758789 117.92154785 64.63517578 117.91333008 65.47753906 C117.65405125 76.83329544 116.85300193 90.9580747 109.125 99.875 C104.37690823 103.92824907 100.81605028 104.54266424 94.66464233 104.41708374 C88.99503294 103.76903117 83.97609961 101.60062112 78.73828125 99.42578125 C77.55203659 98.94932663 76.36579193 98.47287201 75.14360046 97.98197937 C72.64947508 96.97596863 70.15949619 95.96350768 67.67358398 94.93774414 C64.51061674 93.63290815 61.33878218 92.35163525 58.16294575 91.07848835 C55.10100853 89.84922182 52.04468944 88.60621876 48.98828125 87.36328125 C47.86102127 86.90786453 46.73376129 86.45244781 45.57234192 85.98323059 C37.87022377 82.80066144 30.16942846 79.56737204 24.6875 73.0625 C23.85605469 72.1034375 23.85605469 72.1034375 23.0078125 71.125 C17.53142742 63.31005048 19.40528627 53.68025652 20.07421875 44.65234375 C20.16533936 43.41218506 20.25645996 42.17202637 20.3503418 40.89428711 C20.420354 39.95979736 20.49036621 39.02530762 20.5625 38.0625 C20.03489578 37.89820999 19.50729156 37.73391998 18.96369934 37.56465149 C13.4583261 35.84698274 7.96014263 34.10763545 2.46557617 32.35571289 C0.41589818 31.7053016 -1.63553099 31.06038174 -3.6887207 30.42114258 C-6.64495112 29.49969222 -9.59425693 28.55847583 -12.54296875 27.61328125 C-13.45773483 27.33285477 -14.37250092 27.05242828 -15.31498718 26.76350403 C-20.48664236 25.08124004 -24.02037066 23.52181985 -27.4375 19.0625 C-28.37231445 16.77001953 -28.37231445 16.77001953 -28.80078125 14.4453125 C-28.96513672 13.59066406 -29.12949219 12.73601562 -29.29882812 11.85546875 C-29.5221582 10.53482422 -29.5221582 10.53482422 -29.75 9.1875 C-29.91822266 8.31480469 -30.08644531 7.44210937 -30.25976562 6.54296875 C-31.16268749 1.64139292 -31.62070445 -2.95705316 -31.4375 -7.9375 C-24.64313296 -11.33468352 -7.24022399 -2.36973223 0 0 Z M48.5625 43.0625 C48.11718474 49.29691366 48.79793775 53.92802542 52.5625 59.0625 C56.88329536 63.19181503 62.05286487 65.39217352 67.4375 67.8125 C68.31019531 68.22371094 69.18289063 68.63492188 70.08203125 69.05859375 C75.14766966 71.35146166 78.98959513 72.74727524 84.5625 72.0625 C87.15109984 69.89141626 87.49790857 68.44197467 88.0625 65.125 C87.38163014 60.95467212 85.74067828 59.80513741 82.5625 57.0625 C80.0834511 55.74011987 77.72031079 54.59322496 75.14453125 53.51171875 C74.4460759 53.20804886 73.74762054 52.90437897 73.02799988 52.59150696 C71.56215585 51.95673732 70.09386339 51.32759464 68.62329102 50.70385742 C66.3664682 49.74638031 64.11742595 48.77225623 61.86914062 47.79492188 C60.44052282 47.17871598 59.01150012 46.56344778 57.58203125 45.94921875 C56.90807816 45.65867111 56.23412506 45.36812347 55.53974915 45.06877136 C52.1695904 43.56260173 52.1695904 43.56260173 48.5625 43.0625 Z " fill="#F1F1F1" transform="translate(189.4375,318.9375)"/>
<path d="M0 0 C1.22607422 1.61645508 1.22607422 1.61645508 2.0546875 3.51953125 C2.35890625 4.21240234 2.663125 4.90527344 2.9765625 5.61914062 C3.27304688 6.34294922 3.56953125 7.06675781 3.875 7.8125 C4.1946875 8.52470703 4.514375 9.23691406 4.84375 9.97070312 C6.11870419 12.96684547 6.97176767 15.44099988 7.13671875 18.70703125 C5.3558431 22.29938179 2.27033306 23.88030396 -1.0625 25.875 C-1.79533203 26.33116699 -2.52816406 26.78733398 -3.28320312 27.25732422 C-4.9231868 28.27641843 -6.56751861 29.28853707 -8.21533203 30.29492188 C-12.40469821 32.86010979 -16.56482404 35.47163804 -20.72827148 38.07861328 C-22.89620256 39.43460151 -25.06626636 40.78718638 -27.23852539 42.13623047 C-28.23231201 42.75385254 -29.22609863 43.37147461 -30.25 44.0078125 C-31.58804688 44.83756592 -31.58804688 44.83756592 -32.953125 45.68408203 C-34.91148803 46.840686 -34.91148803 46.840686 -36 48 C-34.81446533 47.75765625 -33.62893066 47.5153125 -32.4074707 47.265625 C-28.00090743 46.36618672 -23.59306628 45.47315358 -19.18481445 44.58203125 C-17.27853611 44.19575266 -15.37260681 43.80774729 -13.46704102 43.41796875 C-10.72502551 42.85741069 -7.98180704 42.30311262 -5.23828125 41.75 C-4.38913651 41.57500977 -3.53999176 41.40001953 -2.66511536 41.21972656 C5.19168772 39.64762458 5.19168772 39.64762458 9 40 C11.56418869 41.88785452 12.64287642 43.99458478 13.75 46.9375 C14.14445312 47.94103516 14.14445312 47.94103516 14.546875 48.96484375 C15.10472433 51.4703567 15.07843622 52.65865821 14 55 C10.11877626 57.70918227 5.96381802 59.19154217 1.49609375 60.62890625 C0.77696304 60.86407455 0.05783234 61.09924286 -0.68309021 61.34153748 C-2.20249886 61.83623177 -3.72295695 62.32771304 -5.24438477 62.81616211 C-7.5344484 63.55346854 -9.81899195 64.30627656 -12.10351562 65.06054688 C-20.34166421 67.74502344 -28.36775235 69.94393161 -37 71 C-37.8976709 71.11311523 -38.7953418 71.22623047 -39.72021484 71.34277344 C-57.95836165 73.48320975 -76.08700287 72.51688761 -93 65 C-93.76054688 64.6803125 -94.52109375 64.360625 -95.3046875 64.03125 C-97 63 -97 63 -98 60 C-91.85657281 55.05438302 -85.52668173 50.60696798 -78.875 46.375 C-77.16307235 45.28019257 -75.45211634 44.18386416 -73.7421875 43.0859375 C-72.9982373 42.6120459 -72.25428711 42.1381543 -71.48779297 41.64990234 C-68.26533532 39.51277096 -65.13774293 37.25969141 -62 35 C-63.00691895 35.22550537 -63.00691895 35.22550537 -64.03417969 35.45556641 C-71.0402451 37.02286849 -78.04887176 38.57829803 -85.05908203 40.12695312 C-87.67295979 40.70502614 -90.28561947 41.28794784 -92.89794922 41.87304688 C-96.65942009 42.71497488 -100.42316095 43.54600287 -104.1875 44.375 C-105.34926758 44.63748535 -106.51103516 44.8999707 -107.70800781 45.17041016 C-122.64635542 48.4314755 -122.64635542 48.4314755 -126.93041992 45.82592773 C-127.57394409 45.01297241 -127.57394409 45.01297241 -128.23046875 44.18359375 C-128.72353516 43.58353516 -129.21660156 42.98347656 -129.72460938 42.36523438 C-130.20736328 41.72908203 -130.69011719 41.09292969 -131.1875 40.4375 C-131.68185547 39.82841797 -132.17621094 39.21933594 -132.68554688 38.59179688 C-134.16149554 36.75415327 -135.58157358 34.88224647 -137 33 C-137.49838379 32.37754395 -137.99676758 31.75508789 -138.51025391 31.11376953 C-139.92578125 29.28515625 -139.92578125 29.28515625 -142 26 C-141.62963867 23.79467773 -141.62963867 23.79467773 -141 22 C-135.54037183 20.3214753 -130.1162917 19.22923826 -124.48583984 18.29174805 C-123.55604309 18.13367676 -122.62624634 17.97560547 -121.66827393 17.81274414 C-118.59977812 17.29201888 -115.5303735 16.77687046 -112.4609375 16.26171875 C-110.29833025 15.89576826 -108.1357845 15.52945417 -105.97329712 15.16279602 C-100.26728312 14.19626084 -94.5604944 13.23437952 -88.85351562 12.27355957 C-82.03334324 11.12449838 -75.21401839 9.97041897 -68.39471817 8.81619453 C-62.91194916 7.8883917 -57.42882461 6.96282948 -51.94476318 6.04269409 C-42.78564011 4.50383307 -33.63131157 2.9529155 -24.49707031 1.27197266 C-23.12019624 1.02163954 -21.74329527 0.77145428 -20.36636353 0.5214386 C-17.9534518 0.07958814 -15.54253038 -0.37336112 -13.1343689 -0.84040833 C-12.1085672 -1.02737778 -11.0827655 -1.21434723 -10.02587891 -1.40698242 C-9.16411041 -1.57163498 -8.30234192 -1.73628754 -7.41445923 -1.90592957 C-4.46351913 -2.02090198 -2.62156283 -1.31870219 0 0 Z " fill="#EFEFEF" transform="translate(175,750)"/>
<path d="M0 0 C1.64767632 0.02501634 1.64767632 0.02501634 3.32863903 0.05053806 C6.92151543 0.11218827 10.51266115 0.2051764 14.10473633 0.30249023 C16.51070347 0.35752716 18.91667891 0.41220242 21.32266235 0.46652222 C28.44847384 0.63906188 35.57276996 0.85346089 42.69711709 1.07727504 C46.26408418 1.18866175 49.83117077 1.2961046 53.39823914 1.40419006 C59.36583822 1.58562035 65.33333628 1.77011674 71.30078125 1.95654297 C78.16453306 2.17093098 85.02842521 2.38027138 91.89241153 2.5870046 C98.56297541 2.78803406 105.23342436 2.992663 111.90382957 3.19888496 C114.7156659 3.28575227 117.52753552 3.37138833 120.3394413 3.45597649 C124.2643349 3.57423397 128.18905345 3.69776257 132.11376953 3.82177734 C133.25629684 3.85558502 134.39882416 3.8893927 135.57597351 3.92422485 C140.98695105 4.09931239 146.39003828 4.34134484 151.79167175 4.70753479 C153.2516573 4.80544233 153.2516573 4.80544233 154.7411375 4.9053278 C157.10473633 5.30249023 157.10473633 5.30249023 159.10473633 7.30249023 C158.86307128 14.79410678 157.33551962 23.68592579 152.95816708 29.94085789 C150.14161026 32.01005571 147.77974689 31.6834157 144.31703186 31.69017029 C143.62308695 31.69555583 142.92914204 31.70094136 142.21416849 31.7064901 C139.88332251 31.72082495 137.55304003 31.71365266 135.22216797 31.70654297 C133.55335532 31.71224368 131.88454658 31.71920678 130.21574402 31.7273407 C125.67855173 31.74532064 121.14155232 31.74409465 116.60433507 31.73839831 C112.8193924 31.73531334 109.03448716 31.74139121 105.24954981 31.74743706 C96.32177123 31.76149664 87.39408831 31.75990918 78.46630859 31.74853516 C69.24981174 31.73705291 60.03360583 31.7511281 50.81714731 31.77793163 C42.90963788 31.80006913 35.00221991 31.80673041 27.09468168 31.80085522 C22.36947283 31.7974797 17.64445051 31.79994001 12.91926765 31.81710625 C8.47620616 31.83254225 4.03357652 31.82865729 -0.4094677 31.8098011 C-2.04130977 31.80610587 -3.6731836 31.80925082 -5.30499649 31.81968689 C-7.53069128 31.83283564 -9.75494349 31.82140588 -11.98057556 31.80369568 C-13.84965781 31.80338175 -13.84965781 31.80338175 -15.75649929 31.80306149 C-18.89526367 31.30249023 -18.89526367 31.30249023 -21.35111332 29.4989481 C-22.89526367 27.30249023 -22.89526367 27.30249023 -22.51635742 23.65795898 C-22.14579769 22.26205119 -21.75022628 20.87259576 -21.33276367 19.48999023 C-21.14907227 18.80356445 -20.96538086 18.11713867 -20.77612305 17.40991211 C-17.20862049 4.54011619 -13.63484209 -0.40079 0 0 Z " fill="#EEEEEE" transform="translate(23.895263671875,631.697509765625)"/>
<path d="M0 0 C0.66 0.33 1.32 0.66 2 1 C-11.86 14.86 -25.72 28.72 -40 43 C-40.66 42.67 -41.32 42.34 -42 42 C-40.82244141 40.83984375 -40.82244141 40.83984375 -39.62109375 39.65625 C-34.42202157 34.51018732 -29.32818437 29.35921796 -24.5703125 23.796875 C-20.12533998 18.71058804 -15.17685981 14.24414054 -10.06640625 9.84375 C-6.56017716 6.71531875 -3.28207479 3.36063509 0 0 Z " fill="#DAEA23" transform="translate(326,719)"/>
<path d="M0 0 C0.99457718 0.00212242 0.99457718 0.00212242 2.00924683 0.00428772 C4.12860613 0.00988871 6.24786009 0.02244125 8.3671875 0.03515625 C9.80338389 0.04017113 11.23958194 0.04473406 12.67578125 0.04882812 C16.19795095 0.05985843 19.72005895 0.07712366 23.2421875 0.09765625 C22.9121875 0.75765625 22.5821875 1.41765625 22.2421875 2.09765625 C20.95586426 2.12738525 20.95586426 2.12738525 19.64355469 2.15771484 C16.45271108 2.23595146 13.2622401 2.32264968 10.07177734 2.41503906 C8.69263507 2.45324963 7.31339583 2.48811627 5.93408203 2.51953125 C3.94801783 2.56535249 1.96227071 2.62431888 -0.0234375 2.68359375 C-1.21743164 2.71501465 -2.41142578 2.74643555 -3.64160156 2.77880859 C-6.56555789 3.07798495 -8.28508861 3.57227463 -10.7578125 5.09765625 C-8.25026605 -0.45476803 -5.88779049 -0.02473862 0 0 Z " fill="#868686" transform="translate(144.7578125,434.90234375)"/>
<path d="M0 0 C0.33 0 0.66 0 1 0 C1.33 2.64 1.66 5.28 2 8 C1.01 8 0.02 8 -1 8 C-0.96519531 8.845625 -0.93039063 9.69125 -0.89453125 10.5625 C-0.72611094 17.62011303 -1.22031839 22.55113867 -4 29 C-4.48422696 31.34043029 -4.75196506 33.61886453 -5 36 C-5.33 36 -5.66 36 -6 36 C-6.22570304 29.56746338 -5.39264194 23.73525303 -4.125 17.4375 C-3.95097656 16.53064453 -3.77695313 15.62378906 -3.59765625 14.68945312 C-2.62242103 9.70852954 -1.4785976 4.85539483 0 0 Z " fill="#245374" transform="translate(207,860)"/>
<path d="M0 0 C1.32 0.33 2.64 0.66 4 1 C3.835 1.495 3.67 1.99 3.5 2.5 C2.93508088 5.32459562 3.04967542 7.98337529 3.09765625 10.8515625 C2.96624504 13.74260919 2.22401853 16.32673677 1.4453125 19.1015625 C0.82342476 21.75276814 0.86464021 24.29280419 1 27 C0.34 27.33 -0.32 27.66 -1 28 C-1.90364929 23.72820333 -1.94437225 20.5152645 -1.0625 16.25 C-0.03966872 10.75828843 0.22189381 5.57200024 0 0 Z " fill="#25587E" transform="translate(494,408)"/>
<path d="M0 0 C0.61303711 1.84057617 0.61303711 1.84057617 1 4 C-0.80859375 6.55078125 -0.80859375 6.55078125 -3.4375 9.3125 C-3.89326416 9.79525391 -4.34902832 10.27800781 -4.81860352 10.77539062 C-8.14042758 14.24607411 -11.62275937 17.48455898 -15.30859375 20.5625 C-16.9619921 21.96769768 -18.48728998 23.44565576 -20 25 C-20.66 24.67 -21.32 24.34 -22 24 C-21.5467334 23.55720703 -21.0934668 23.11441406 -20.62646484 22.65820312 C-18.53716484 20.61097672 -16.45608644 18.55557399 -14.375 16.5 C-13.66214844 15.80390625 -12.94929687 15.1078125 -12.21484375 14.390625 C-7.66792792 9.885424 -3.67680839 5.24099498 0 0 Z " fill="#004398" transform="translate(249,145)"/>
<path d="M0 0 C0.66 0.33 1.32 0.66 2 1 C1.01 1 0.02 1 -1 1 C-0.67 0.67 -0.34 0.34 0 0 Z M-2.82250977 2.39404297 C-1.92036743 2.6939917 -1.92036743 2.6939917 -1 3 C-3.36799823 4.8016068 -5.74363831 6.59120847 -8.125 8.375 C-8.79015625 8.88289062 -9.4553125 9.39078125 -10.140625 9.9140625 C-13.97658281 12.77222714 -17.29316738 14.78296851 -22 16 C-18.5135032 12.39150792 -14.92150283 9.19736628 -10.9375 6.125 C-9.91527344 5.32320312 -8.89304688 4.52140625 -7.83984375 3.6953125 C-5 2 -5 2 -2.82250977 2.39404297 Z " fill="#004BB0" transform="translate(215,179)"/>
<path d="M0 0 C0.66 0.33 1.32 0.66 2 1 C-1.39182299 5.31121823 -4.69289176 8.63067848 -9.25390625 11.66796875 C-12.31342223 14.00196193 -14.63155778 16.98956245 -17 20 C-17.99 19.67 -18.98 19.34 -20 19 C-18.89648418 17.89648418 -17.79258442 16.79335123 -16.6875 15.69140625 C-15.41161723 14.41257005 -14.141838 13.12764046 -12.875 11.83984375 C-8.74018184 7.65613416 -4.60574416 3.66097613 0 0 Z " fill="#0045A0" transform="translate(182,202)"/>
<path d="M0 0 C0 5.56505721 -2.58954294 9.08077478 -6 13.3125 C-6.70125 14.19550781 -7.4025 15.07851563 -8.125 15.98828125 C-9.053125 16.98408203 -9.053125 16.98408203 -10 18 C-10.66 18 -11.32 18 -12 18 C-10.46906512 13.32800909 -7.89242605 9.97829995 -4.875 6.1875 C-4.40707031 5.59001953 -3.93914062 4.99253906 -3.45703125 4.37695312 C-2.30994435 2.91383208 -1.15568766 1.45633703 0 0 Z " fill="#0057C2" transform="translate(256,570)"/>
<path d="M0 0 C0.33 0.66 0.66 1.32 1 2 C-1.31122027 7.86775558 -4.71017729 15.98955279 -10.25 19.375 C-10.8275 19.58125 -11.405 19.7875 -12 20 C-10.37885498 15.20178341 -7.70723241 11.3327141 -4.875 7.1875 C-4.40707031 6.49462891 -3.93914062 5.80175781 -3.45703125 5.08789062 C-2.30887563 3.38908895 -1.15500633 1.69415136 0 0 Z " fill="#00479F" transform="translate(282,532)"/>
<path d="M0 0 C5.40839975 3.16589254 9.04174791 7.17514834 13 12 C12.01 12.33 11.02 12.66 10 13 C8.32438946 11.40517782 6.65974066 9.79883156 5 8.1875 C3.6078125 6.84751953 3.6078125 6.84751953 2.1875 5.48046875 C0 3 0 3 0 0 Z " fill="#004EB5" transform="translate(265,7)"/>
<path d="M0 0 C0 5.63483242 -3.2916948 8.94673617 -7 13 C-9.5625 14.75 -9.5625 14.75 -12 16 C-12.763125 16.391875 -13.52625 16.78375 -14.3125 17.1875 C-14.869375 17.455625 -15.42625 17.72375 -16 18 C-14.38405168 15.95880212 -12.7143618 13.95927063 -11 12 C-10.34 12 -9.68 12 -9 12 C-8.74476563 11.42765625 -8.48953125 10.8553125 -8.2265625 10.265625 C-6.86912841 7.75826267 -5.28025896 5.8669544 -3.375 3.75 C-2.74335938 3.04359375 -2.11171875 2.3371875 -1.4609375 1.609375 C-0.97882813 1.07828125 -0.49671875 0.5471875 0 0 Z " fill="#00409E" transform="translate(460,498)"/>
<path d="M0 0 C-3.77323675 2.2817217 -7.84701546 2.83929868 -12.125 3.5625 C-17.20749169 4.29942381 -17.20749169 4.29942381 -22 6 C-22 7.65 -22 9.3 -22 11 C-23.5625 9.75 -23.5625 9.75 -25 8 C-24.6875 5.8125 -24.6875 5.8125 -24 4 C-16.27022553 1.54052631 -8.1386931 -0.20868444 0 0 Z " fill="#696969" transform="translate(58,768)"/>
<path d="M0 0 C0 6.37667483 -3.80545788 11.43189815 -8 16 C-8.99 16.33 -9.98 16.66 -11 17 C-9.52869627 12.6426774 -7.16919385 9.28065866 -4.375 5.6875 C-3.95476562 5.13771484 -3.53453125 4.58792969 -3.1015625 4.02148438 C-2.07279961 2.67707832 -1.0370991 1.33798587 0 0 Z " fill="#004092" transform="translate(243,588)"/>
<path d="M0 0 C4.20393865 0.76836694 5.52187506 2.54832597 8 6 C7.01 6 6.02 6 5 6 C5.33 8.64 5.66 11.28 6 14 C3.47524538 11.47524538 2.95692129 9.26502003 1.875 5.875 C1.52179688 4.77929688 1.16859375 3.68359375 0.8046875 2.5546875 C0.53914063 1.71164062 0.27359375 0.86859375 0 0 Z " fill="#003984" transform="translate(389,295)"/>
<path d="M0 0 C1.125 1.6875 1.125 1.6875 2 4 C1.25 6.3125 1.25 6.3125 0 9 C-0.309375 10.216875 -0.61875 11.43375 -0.9375 12.6875 C-2 16 -2 16 -5 18 C-3.36959185 11.98922864 -1.72852643 5.98336072 0 0 Z " fill="#004196" transform="translate(320,448)"/>
<path d="M0 0 C0.66 0.99 1.32 1.98 2 3 C0.88321917 4.6721852 -0.24366352 6.33762803 -1.375 8 C-2.00148437 8.928125 -2.62796875 9.85625 -3.2734375 10.8125 C-3.84320313 11.534375 -4.41296875 12.25625 -5 13 C-5.66 13 -6.32 13 -7 13 C-5.35821735 8.22390502 -2.73453298 4.20617096 0 0 Z " fill="#004EB1" transform="translate(231,605)"/>
<path d="M0 0 C1.125 3.75 1.125 3.75 0 6 C-0.66 6 -1.32 6 -2 6 C-2.0825 6.61875 -2.165 7.2375 -2.25 7.875 C-3 10 -3 10 -5.0625 11.25 C-5.701875 11.4975 -6.34125 11.745 -7 12 C-5.44298069 7.32894208 -2.91552627 3.91294315 0 0 Z " fill="#0049A8" transform="translate(256,766)"/>
<path d="M0 0 C0.33 0 0.66 0 1 0 C1 5.61 1 11.22 1 17 C0.34 17.33 -0.32 17.66 -1 18 C-1.95627638 13.54629322 -1.90623315 10.09182255 -1.0625 5.625 C-0.86785156 4.56539063 -0.67320312 3.50578125 -0.47265625 2.4140625 C-0.23869141 1.21910156 -0.23869141 1.21910156 0 0 Z " fill="#003F91" transform="translate(494,418)"/>
<path d="M0 0 C0.33 0 0.66 0 1 0 C0.53680089 4.72463088 -0.09891706 8.17057052 -3 12 C-3.66 12 -4.32 12 -5 12 C-3.68938409 7.76570244 -2.05643741 3.92592596 0 0 Z " fill="#004BAB" transform="translate(480,464)"/>
<path d="M0 0 C0.97099482 2.62168601 1.06599958 3.79692438 0.1875 6.5 C-0.84880972 8.68170468 -1.88817428 10.85576468 -3 13 C-3.66 13 -4.32 13 -5 13 C-4.54554036 11.58208592 -4.08625056 10.16571954 -3.625 8.75 C-3.24214844 7.56664062 -3.24214844 7.56664062 -2.8515625 6.359375 C-2.04826333 4.13372042 -1.10288338 2.09068328 0 0 Z " fill="#004299" transform="translate(222,821)"/>
<path d="M0 0 C-1.55603771 3.81936528 -3.95604931 6.26044438 -7 9 C-7.66 9 -8.32 9 -9 9 C-7.45665977 5.21180126 -4.44676575 0 0 0 Z " fill="#AAAAAA" transform="translate(110,476)"/>
<path d="M0 0 C0.33 0 0.66 0 1 0 C2.00846437 4.79020574 2.58033208 7.67993022 0.0625 12 C-0.618125 12.99 -1.29875 13.98 -2 15 C-3.23922223 11.28233332 -2.57018942 9.56110463 -1.5625 5.8125 C-1.13130859 4.18248047 -1.13130859 4.18248047 -0.69140625 2.51953125 C-0.46324219 1.68808594 -0.23507812 0.85664063 0 0 Z " fill="#003682" transform="translate(402,354)"/>
<path d="M0 0 C0.66 1.32 1.32 2.64 2 4 C1.360625 4.763125 0.72125 5.52625 0.0625 6.3125 C-2.14232781 8.88246713 -2.14232781 8.88246713 -3 12 C-3.66 12 -4.32 12 -5 12 C-3.41037341 7.96479403 -1.71767682 3.98188718 0 0 Z " fill="#003D8F" transform="translate(267,745)"/>
<path d="M0 0 C1 2 1 2 -0.125 5.4375 C-1.68880731 8.92879075 -3.479691 10.38256073 -7 12 C-5.61735163 9.13132769 -4.07851447 6.43975968 -2.375 3.75 C-1.92898438 3.04359375 -1.48296875 2.3371875 -1.0234375 1.609375 C-0.68570312 1.07828125 -0.34796875 0.5471875 0 0 Z " fill="#00449C" transform="translate(468,486)"/>
<path d="M0 0 C0.53625 0.268125 1.0725 0.53625 1.625 0.8125 C-2.25064767 4.42389896 -2.25064767 4.42389896 -4.375 5.8125 C-6.75 5.625 -6.75 5.625 -8.375 4.8125 C-2.95961538 -0.23365385 -2.95961538 -0.23365385 0 0 Z " fill="#0050B9" transform="translate(227.375,170.1875)"/>
<path d="M0 0 C1.04296875 1.88671875 1.04296875 1.88671875 2 4 C1.3125 5.8125 1.3125 5.8125 0 8 C-0.55602879 9.24367792 -1.0969089 10.49420441 -1.625 11.75 C-2.07875 12.8225 -2.5325 13.895 -3 15 C-4.57156655 11.8568669 -3.11705576 9.634536 -2.0625 6.375 C-1.68222656 5.18648438 -1.30195313 3.99796875 -0.91015625 2.7734375 C-0.60980469 1.85820312 -0.30945313 0.94296875 0 0 Z " fill="#003986" transform="translate(491,434)"/>
<path d="M0 0 C0 3.33156142 -0.45664761 5.06028115 -2 8 C-4.625 9.8125 -4.625 9.8125 -7 11 C-5.22054913 6.95579349 -2.60470327 3.53921513 0 0 Z " fill="#00429A" transform="translate(256,570)"/>
<path d="M0 0 C0.99 0.33 1.98 0.66 3 1 C-1 7.57142857 -1 7.57142857 -5 9 C-3.7508258 5.54074837 -2.32472205 2.85306797 0 0 Z " fill="#004DB2" transform="translate(275,543)"/>
<path d="M0 0 C4 4 4 4 4 6 C3.34 6 2.68 6 2 6 C2 8.64 2 11.28 2 14 C1.67 14 1.34 14 1 14 C0.67 9.38 0.34 4.76 0 0 Z " fill="#CFD613" transform="translate(496,410)"/>
<path d="M0 0 C2.88575819 0.39803561 3.82189513 0.79009069 5.75 3.0625 C6.1625 3.701875 6.575 4.34125 7 5 C6.34 5 5.68 5 5 5 C4.34 5.66 3.68 6.32 3 7 C0 2.25 0 2.25 0 0 Z " fill="#002F71" transform="translate(256,0)"/>
<path d="M0 0 C0.99 0.33 1.98 0.66 3 1 C3.1875 3.3125 3.1875 3.3125 3 6 C2.01 6.99 1.02 7.98 0 9 C0 6.03 0 3.06 0 0 Z " fill="#1276E7" transform="translate(206,868)"/>
<path d="M0 0 C0 0.99 0 1.98 0 3 C-5.2734375 6.22265625 -5.2734375 6.22265625 -7 7 C-7.66 6.67 -8.32 6.34 -9 6 C-7.8803014 4.99406757 -6.7540588 3.9954151 -5.625 3 C-4.68527344 2.1646875 -4.68527344 2.1646875 -3.7265625 1.3125 C-2 0 -2 0 0 0 Z " fill="#0045A1" transform="translate(193,195)"/>
<path d="M0 0 C0.75 1.6875 0.75 1.6875 1 4 C-0.8125 6.75 -0.8125 6.75 -3 9 C-3.66 9 -4.32 9 -5 9 C-3.7508258 5.54074837 -2.32472205 2.85306797 0 0 Z " fill="#0049A2" transform="translate(255,136)"/>
<path d="M0 0 C0 3.23861295 -0.6250851 5.09740189 -2 8 C-2.99 8.495 -2.99 8.495 -4 9 C-3.46930939 5.17902761 -2.50298434 2.93828597 0 0 Z M-5 9 C-4.67 9.66 -4.34 10.32 -4 11 C-4.66 10.67 -5.32 10.34 -6 10 C-5.67 9.67 -5.34 9.34 -5 9 Z " fill="#0052BA" transform="translate(243,588)"/>
<path d="M0 0 C0.99 0.33 1.98 0.66 3 1 C1.38405168 3.04119788 -0.2856382 5.04072937 -2 7 C-2.66 7 -3.32 7 -4 7 C-2.92598892 4.08482708 -2.22189824 2.22189824 0 0 Z " fill="#0051B6" transform="translate(264,559)"/>
<path d="M0 0 C0.66 0.99 1.32 1.98 2 3 C0.35 5.31 -1.3 7.62 -3 10 C-3.33 9.34 -3.66 8.68 -4 8 C-3.22265625 6.0546875 -3.22265625 6.0546875 -2.0625 3.875 C-1.49208984 2.78832031 -1.49208984 2.78832031 -0.91015625 1.6796875 C-0.60980469 1.12539062 -0.30945313 0.57109375 0 0 Z " fill="#003C8B" transform="translate(147,240)"/>
<path d="M0 0 C0.99 0.33 1.98 0.66 3 1 C1.35 2.65 -0.3 4.3 -2 6 C-2.99 5.67 -3.98 5.34 -5 5 C-3.35 3.35 -1.7 1.7 0 0 Z " fill="#0058C4" transform="translate(167,216)"/>
<path d="M0 0 C0.33 0 0.66 0 1 0 C1.33 2.64 1.66 5.28 2 8 C1.01 8 0.02 8 -1 8 C-1.33 8.99 -1.66 9.98 -2 11 C-1 3.57142857 -1 3.57142857 0 0 Z " fill="#003580" transform="translate(207,860)"/>
<path d="M0 0 C0.66 1.32 1.32 2.64 2 4 C0.35 5.65 -1.3 7.3 -3 9 C-2.01 6.03 -1.02 3.06 0 0 Z " fill="#00429D" transform="translate(305,489)"/>
<path d="M0 0 C0.66 1.32 1.32 2.64 2 4 C0.35 5.65 -1.3 7.3 -3 9 C-2.01 6.03 -1.02 3.06 0 0 Z " fill="#0045A0" transform="translate(484,455)"/>
<path d="M0 0 C0.66 0.33 1.32 0.66 2 1 C1.01 1 0.02 1 -1 1 C-0.67 0.67 -0.34 0.34 0 0 Z M-5 2 C-3.68 2.33 -2.36 2.66 -1 3 C-4.75 6 -4.75 6 -7 6 C-6.34 4.68 -5.68 3.36 -5 2 Z " fill="#005CD1" transform="translate(215,179)"/>
<path d="M0 0 C0.33 0.66 0.66 1.32 1 2 C0.06421005 4.35981813 -0.93347808 6.69631264 -2 9 C-2.66 9 -3.32 9 -4 9 C-2.94124926 5.59687262 -1.99097846 2.98646769 0 0 Z " fill="#003F96" transform="translate(223,618)"/>
<path d="" fill="#000000" transform="translate(0,0)"/>
<path d="" fill="#000000" transform="translate(0,0)"/>
<path d="" fill="#000000" transform="translate(0,0)"/>
<path d="" fill="#000000" transform="translate(0,0)"/>
<path d="" fill="#000000" transform="translate(0,0)"/>
<path d="" fill="#000000" transform="translate(0,0)"/>
<path d="" fill="#000000" transform="translate(0,0)"/>
<path d="" fill="#000000" transform="translate(0,0)"/>
<path d="" fill="#000000" transform="translate(0,0)"/>
<path d="" fill="#000000" transform="translate(0,0)"/>
<path d="" fill="#000000" transform="translate(0,0)"/>
<path d="" fill="#000000" transform="translate(0,0)"/>
<path d="" fill="#000000" transform="translate(0,0)"/>
<path d="" fill="#000000" transform="translate(0,0)"/>
<path d="" fill="#000000" transform="translate(0,0)"/>
<path d="" fill="#000000" transform="translate(0,0)"/>
<path d="" fill="#000000" transform="translate(0,0)"/>
<path d="" fill="#000000" transform="translate(0,0)"/>
<path d="" fill="#000000" transform="translate(0,0)"/>
<path d="" fill="#000000" transform="translate(0,0)"/>
<path d="" fill="#000000" transform="translate(0,0)"/>
<path d="" fill="#000000" transform="translate(0,0)"/>
<path d="" fill="#000000" transform="translate(0,0)"/>
<path d="" fill="#000000" transform="translate(0,0)"/>
<path d="" fill="#000000" transform="translate(0,0)"/>
<path d="" fill="#000000" transform="translate(0,0)"/>
<path d="" fill="#000000" transform="translate(0,0)"/>
<path d="" fill="#000000" transform="translate(0,0)"/>
<path d="" fill="#000000" transform="translate(0,0)"/>
<path d="" fill="#000000" transform="translate(0,0)"/>
<path d="" fill="#000000" transform="translate(0,0)"/>
<path d="" fill="#000000" transform="translate(0,0)"/>
<path d="" fill="#000000" transform="translate(0,0)"/>
<path d="" fill="#000000" transform="translate(0,0)"/>
<path d="" fill="#000000" transform="translate(0,0)"/>
<path d="" fill="#000000" transform="translate(0,0)"/>
<path d="" fill="#000000" transform="translate(0,0)"/>
<path d="" fill="#000000" transform="translate(0,0)"/>
<path d="" fill="#000000" transform="translate(0,0)"/>
<path d="" fill="#000000" transform="translate(0,0)"/>
<path d="" fill="#000000" transform="translate(0,0)"/>
<path d="" fill="#000000" transform="translate(0,0)"/>
<path d="" fill="#000000" transform="translate(0,0)"/>
<path d="" fill="#000000" transform="translate(0,0)"/>
<path d="" fill="#000000" transform="translate(0,0)"/>
<path d="" fill="#000000" transform="translate(0,0)"/>
<path d="" fill="#000000" transform="translate(0,0)"/>
<path d="" fill="#000000" transform="translate(0,0)"/>
<path d="" fill="#000000" transform="translate(0,0)"/>
<path d="" fill="#000000" transform="translate(0,0)"/>
<path d="" fill="#000000" transform="translate(0,0)"/>
<path d="" fill="#000000" transform="translate(0,0)"/>
<path d="" fill="#000000" transform="translate(0,0)"/>
<path d="" fill="#000000" transform="translate(0,0)"/>
<path d="" fill="#000000" transform="translate(0,0)"/>
<path d="" fill="#000000" transform="translate(0,0)"/>
<path d="" fill="#000000" transform="translate(0,0)"/>
<path d="" fill="#000000" transform="translate(0,0)"/>
<path d="" fill="#000000" transform="translate(0,0)"/>
<path d="" fill="#000000" transform="translate(0,0)"/>
<path d="" fill="#000000" transform="translate(0,0)"/>
<path d="" fill="#000000" transform="translate(0,0)"/>
<path d="" fill="#000000" transform="translate(0,0)"/>
<path d="" fill="#000000" transform="translate(0,0)"/>
<path d="" fill="#000000" transform="translate(0,0)"/>
<path d="" fill="#000000" transform="translate(0,0)"/>
<path d="" fill="#000000" transform="translate(0,0)"/>
<path d="" fill="#000000" transform="translate(0,0)"/>
<path d="" fill="#000000" transform="translate(0,0)"/>
<path d="" fill="#000000" transform="translate(0,0)"/>
<path d="" fill="#000000" transform="translate(0,0)"/>
<path d="" fill="#000000" transform="translate(0,0)"/>
<path d="" fill="#000000" transform="translate(0,0)"/>
<path d="" fill="#000000" transform="translate(0,0)"/>
<path d="" fill="#000000" transform="translate(0,0)"/>
<path d="" fill="#000000" transform="translate(0,0)"/>
<path d="" fill="#000000" transform="translate(0,0)"/>
<path d="" fill="#000000" transform="translate(0,0)"/>
<path d="" fill="#000000" transform="translate(0,0)"/>
<path d="" fill="#000000" transform="translate(0,0)"/>
<path d="" fill="#000000" transform="translate(0,0)"/>
<path d="" fill="#000000" transform="translate(0,0)"/>
<path d="" fill="#000000" transform="translate(0,0)"/>
<path d="" fill="#000000" transform="translate(0,0)"/>
<path d="" fill="#000000" transform="translate(0,0)"/>
<path d="" fill="#000000" transform="translate(0,0)"/>
<path d="" fill="#000000" transform="translate(0,0)"/>
<path d="" fill="#000000" transform="translate(0,0)"/>
<path d="" fill="#000000" transform="translate(0,0)"/>
<path d="" fill="#000000" transform="translate(0,0)"/>
<path d="" fill="#000000" transform="translate(0,0)"/>
<path d="" fill="#000000" transform="translate(0,0)"/>
<path d="" fill="#000000" transform="translate(0,0)"/>
<path d="" fill="#000000" transform="translate(0,0)"/>
<path d="" fill="#000000" transform="translate(0,0)"/>
<path d="" fill="#000000" transform="translate(0,0)"/>
<path d="" fill="#000000" transform="translate(0,0)"/>
<path d="" fill="#000000" transform="translate(0,0)"/>
<path d="" fill="#000000" transform="translate(0,0)"/>
<path d="" fill="#000000" transform="translate(0,0)"/>
<path d="" fill="#000000" transform="translate(0,0)"/>
<path d="" fill="#000000" transform="translate(0,0)"/>
<path d="" fill="#000000" transform="translate(0,0)"/>
<path d="" fill="#000000" transform="translate(0,0)"/>
<path d="" fill="#000000" transform="translate(0,0)"/>
<path d="" fill="#000000" transform="translate(0,0)"/>
<path d="" fill="#000000" transform="translate(0,0)"/>
<path d="" fill="#000000" transform="translate(0,0)"/>
<path d="" fill="#000000" transform="translate(0,0)"/>
<path d="" fill="#000000" transform="translate(0,0)"/>
<path d="" fill="#000000" transform="translate(0,0)"/>
<path d="" fill="#000000" transform="translate(0,0)"/>
<path d="" fill="#000000" transform="translate(0,0)"/>
<path d="" fill="#000000" transform="translate(0,0)"/>
<path d="" fill="#000000" transform="translate(0,0)"/>
<path d="" fill="#000000" transform="translate(0,0)"/>
<path d="" fill="#000000" transform="translate(0,0)"/>
<path d="" fill="#000000" transform="translate(0,0)"/>
<path d="" fill="#000000" transform="translate(0,0)"/>
<path d="" fill="#000000" transform="translate(0,0)"/>
<path d="" fill="#000000" transform="translate(0,0)"/>
<path d="" fill="#000000" transform="translate(0,0)"/>
<path d="" fill="#000000" transform="translate(0,0)"/>
<path d="" fill="#000000" transform="translate(0,0)"/>
<path d="" fill="#000000" transform="translate(0,0)"/>
<path d="" fill="#000000" transform="translate(0,0)"/>
<path d="" fill="#000000" transform="translate(0,0)"/>
<path d="" fill="#000000" transform="translate(0,0)"/>
<path d="" fill="#000000" transform="translate(0,0)"/>
<path d="" fill="#000000" transform="translate(0,0)"/>
<path d="" fill="#000000" transform="translate(0,0)"/>
<path d="" fill="#000000" transform="translate(0,0)"/>
<path d="" fill="#000000" transform="translate(0,0)"/>
<path d="" fill="#000000" transform="translate(0,0)"/>
<path d="" fill="#000000" transform="translate(0,0)"/>
<path d="" fill="#000000" transform="translate(0,0)"/>
<path d="" fill="#000000" transform="translate(0,0)"/>
<path d="" fill="#000000" transform="translate(0,0)"/>
<path d="" fill="#000000" transform="translate(0,0)"/>
<path d="" fill="#000000" transform="translate(0,0)"/>
<path d="" fill="#000000" transform="translate(0,0)"/>
<path d="" fill="#000000" transform="translate(0,0)"/>
<path d="" fill="#000000" transform="translate(0,0)"/>
<path d="" fill="#000000" transform="translate(0,0)"/>
<path d="" fill="#000000" transform="translate(0,0)"/>
<path d="" fill="#000000" transform="translate(0,0)"/>
<path d="" fill="#000000" transform="translate(0,0)"/>
<path d="" fill="#000000" transform="translate(0,0)"/>
<path d="" fill="#000000" transform="translate(0,0)"/>
<path d="" fill="#000000" transform="translate(0,0)"/>
<path d="" fill="#000000" transform="translate(0,0)"/>
<path d="" fill="#000000" transform="translate(0,0)"/>
<path d="" fill="#000000" transform="translate(0,0)"/>
<path d="" fill="#000000" transform="translate(0,0)"/>
<path d="" fill="#000000" transform="translate(0,0)"/>
<path d="" fill="#000000" transform="translate(0,0)"/>
<path d="" fill="#000000" transform="translate(0,0)"/>
<path d="" fill="#000000" transform="translate(0,0)"/>
<path d="" fill="#000000" transform="translate(0,0)"/>
<path d="" fill="#000000" transform="translate(0,0)"/>
<path d="" fill="#000000" transform="translate(0,0)"/>
<path d="" fill="#000000" transform="translate(0,0)"/>
<path d="" fill="#000000" transform="translate(0,0)"/>
<path d="" fill="#000000" transform="translate(0,0)"/>
<path d="" fill="#000000" transform="translate(0,0)"/>
<path d="" fill="#000000" transform="translate(0,0)"/>
<path d="" fill="#000000" transform="translate(0,0)"/>
<path d="" fill="#000000" transform="translate(0,0)"/>
<path d="" fill="#000000" transform="translate(0,0)"/>
<path d="" fill="#000000" transform="translate(0,0)"/>
<path d="" fill="#000000" transform="translate(0,0)"/>
<path d="" fill="#000000" transform="translate(0,0)"/>
<path d="" fill="#000000" transform="translate(0,0)"/>
<path d="" fill="#000000" transform="translate(0,0)"/>
<path d="" fill="#000000" transform="translate(0,0)"/>
<path d="" fill="#000000" transform="translate(0,0)"/>
<path d="" fill="#000000" transform="translate(0,0)"/>
<path d="" fill="#000000" transform="translate(0,0)"/>
<path d="" fill="#000000" transform="translate(0,0)"/>
<path d="" fill="#000000" transform="translate(0,0)"/>
<path d="" fill="#000000" transform="translate(0,0)"/>
<path d="" fill="#000000" transform="translate(0,0)"/>
<path d="" fill="#000000" transform="translate(0,0)"/>
<path d="" fill="#000000" transform="translate(0,0)"/>
<path d="" fill="#000000" transform="translate(0,0)"/>
<path d="" fill="#000000" transform="translate(0,0)"/>
<path d="" fill="#000000" transform="translate(0,0)"/>
<path d="" fill="#000000" transform="translate(0,0)"/>
<path d="" fill="#000000" transform="translate(0,0)"/>
<path d="" fill="#000000" transform="translate(0,0)"/>
<path d="" fill="#000000" transform="translate(0,0)"/>
<path d="" fill="#000000" transform="translate(0,0)"/>
<path d="" fill="#000000" transform="translate(0,0)"/>
<path d="" fill="#000000" transform="translate(0,0)"/>
<path d="" fill="#000000" transform="translate(0,0)"/>
<path d="" fill="#000000" transform="translate(0,0)"/>
<path d="" fill="#000000" transform="translate(0,0)"/>
<path d="" fill="#000000" transform="translate(0,0)"/>
<path d="" fill="#000000" transform="translate(0,0)"/>
<path d="" fill="#000000" transform="translate(0,0)"/>
<path d="" fill="#000000" transform="translate(0,0)"/>
<path d="" fill="#000000" transform="translate(0,0)"/>
<path d="" fill="#000000" transform="translate(0,0)"/>
<path d="" fill="#000000" transform="translate(0,0)"/>
<path d="" fill="#000000" transform="translate(0,0)"/>
<path d="" fill="#000000" transform="translate(0,0)"/>
<path d="" fill="#000000" transform="translate(0,0)"/>
<path d="" fill="#000000" transform="translate(0,0)"/>
<path d="" fill="#000000" transform="translate(0,0)"/>
<path d="" fill="#000000" transform="translate(0,0)"/>
<path d="" fill="#000000" transform="translate(0,0)"/>
<path d="" fill="#000000" transform="translate(0,0)"/>
<path d="" fill="#000000" transform="translate(0,0)"/>
<path d="" fill="#000000" transform="translate(0,0)"/>
<path d="" fill="#000000" transform="translate(0,0)"/>
<path d="" fill="#000000" transform="translate(0,0)"/>
<path d="" fill="#000000" transform="translate(0,0)"/>
<path d="" fill="#000000" transform="translate(0,0)"/>
<path d="" fill="#000000" transform="translate(0,0)"/>
<path d="" fill="#000000" transform="translate(0,0)"/>
<path d="" fill="#000000" transform="translate(0,0)"/>
<path d="" fill="#000000" transform="translate(0,0)"/>
<path d="" fill="#000000" transform="translate(0,0)"/>
<path d="" fill="#000000" transform="translate(0,0)"/>
<path d="" fill="#000000" transform="translate(0,0)"/>
<path d="" fill="#000000" transform="translate(0,0)"/>
<path d="" fill="#000000" transform="translate(0,0)"/>
<path d="" fill="#000000" transform="translate(0,0)"/>
<path d="" fill="#000000" transform="translate(0,0)"/>
<path d="" fill="#000000" transform="translate(0,0)"/>
<path d="" fill="#000000" transform="translate(0,0)"/>
<path d="" fill="#000000" transform="translate(0,0)"/>
<path d="" fill="#000000" transform="translate(0,0)"/>
<path d="" fill="#000000" transform="translate(0,0)"/>
<path d="" fill="#000000" transform="translate(0,0)"/>
<path d="" fill="#000000" transform="translate(0,0)"/>
<path d="" fill="#000000" transform="translate(0,0)"/>
<path d="" fill="#000000" transform="translate(0,0)"/>
<path d="" fill="#000000" transform="translate(0,0)"/>
<path d="" fill="#000000" transform="translate(0,0)"/>
<path d="" fill="#000000" transform="translate(0,0)"/>
<path d="" fill="#000000" transform="translate(0,0)"/>
<path d="" fill="#000000" transform="translate(0,0)"/>
<path d="" fill="#000000" transform="translate(0,0)"/>
<path d="" fill="#000000" transform="translate(0,0)"/>
<path d="" fill="#000000" transform="translate(0,0)"/>
<path d="" fill="#000000" transform="translate(0,0)"/>
<path d="" fill="#000000" transform="translate(0,0)"/>
<path d="" fill="#000000" transform="translate(0,0)"/>
<path d="" fill="#000000" transform="translate(0,0)"/>
<path d="" fill="#000000" transform="translate(0,0)"/>
<path d="" fill="#000000" transform="translate(0,0)"/>
<path d="" fill="#000000" transform="translate(0,0)"/>
<path d="" fill="#000000" transform="translate(0,0)"/>
<path d="" fill="#000000" transform="translate(0,0)"/>
<path d="" fill="#000000" transform="translate(0,0)"/>
<path d="" fill="#000000" transform="translate(0,0)"/>
<path d="" fill="#000000" transform="translate(0,0)"/>
<path d="" fill="#000000" transform="translate(0,0)"/>
<path d="" fill="#000000" transform="translate(0,0)"/>
<path d="" fill="#000000" transform="translate(0,0)"/>
<path d="" fill="#000000" transform="translate(0,0)"/>
<path d="" fill="#000000" transform="translate(0,0)"/>
<path d="" fill="#000000" transform="translate(0,0)"/>
<path d="" fill="#000000" transform="translate(0,0)"/>
<path d="" fill="#000000" transform="translate(0,0)"/>
<path d="" fill="#000000" transform="translate(0,0)"/>
<path d="" fill="#000000" transform="translate(0,0)"/>
<path d="" fill="#000000" transform="translate(0,0)"/>
<path d="" fill="#000000" transform="translate(0,0)"/>
<path d="" fill="#000000" transform="translate(0,0)"/>
<path d="" fill="#000000" transform="translate(0,0)"/>
<path d="" fill="#000000" transform="translate(0,0)"/>
<path d="" fill="#000000" transform="translate(0,0)"/>
<path d="" fill="#000000" transform="translate(0,0)"/>
<path d="" fill="#000000" transform="translate(0,0)"/>
<path d="" fill="#000000" transform="translate(0,0)"/>
<path d="" fill="#000000" transform="translate(0,0)"/>
<path d="" fill="#000000" transform="translate(0,0)"/>
<path d="" fill="#000000" transform="translate(0,0)"/>
<path d="" fill="#000000" transform="translate(0,0)"/>
<path d="" fill="#000000" transform="translate(0,0)"/>
<path d="" fill="#000000" transform="translate(0,0)"/>
<path d="" fill="#000000" transform="translate(0,0)"/>
<path d="" fill="#000000" transform="translate(0,0)"/>
<path d="" fill="#000000" transform="translate(0,0)"/>
<path d="" fill="#000000" transform="translate(0,0)"/>
<path d="" fill="#000000" transform="translate(0,0)"/>
<path d="" fill="#000000" transform="translate(0,0)"/>
<path d="" fill="#000000" transform="translate(0,0)"/>
<path d="" fill="#000000" transform="translate(0,0)"/>
<path d="" fill="#000000" transform="translate(0,0)"/>
<path d="" fill="#000000" transform="translate(0,0)"/>
<path d="" fill="#000000" transform="translate(0,0)"/>
<path d="" fill="#000000" transform="translate(0,0)"/>
<path d="" fill="#000000" transform="translate(0,0)"/>
<path d="" fill="#000000" transform="translate(0,0)"/>
<path d="" fill="#000000" transform="translate(0,0)"/>
<path d="" fill="#000000" transform="translate(0,0)"/>
<path d="" fill="#000000" transform="translate(0,0)"/>
<path d="" fill="#000000" transform="translate(0,0)"/>
<path d="" fill="#000000" transform="translate(0,0)"/>
<path d="" fill="#000000" transform="translate(0,0)"/>
<path d="" fill="#000000" transform="translate(0,0)"/>
<path d="" fill="#000000" transform="translate(0,0)"/>
<path d="" fill="#000000" transform="translate(0,0)"/>
<path d="" fill="#000000" transform="translate(0,0)"/>
<path d="" fill="#000000" transform="translate(0,0)"/>
<path d="" fill="#000000" transform="translate(0,0)"/>
<path d="" fill="#000000" transform="translate(0,0)"/>
<path d="" fill="#000000" transform="translate(0,0)"/>
<path d="" fill="#000000" transform="translate(0,0)"/>
<path d="" fill="#000000" transform="translate(0,0)"/>
<path d="" fill="#000000" transform="translate(0,0)"/>
<path d="" fill="#000000" transform="translate(0,0)"/>
<path d="" fill="#000000" transform="translate(0,0)"/>
<path d="" fill="#000000" transform="translate(0,0)"/>
<path d="" fill="#000000" transform="translate(0,0)"/>
<path d="" fill="#000000" transform="translate(0,0)"/>
<path d="" fill="#000000" transform="translate(0,0)"/>
<path d="" fill="#000000" transform="translate(0,0)"/>
<path d="" fill="#000000" transform="translate(0,0)"/>
<path d="" fill="#000000" transform="translate(0,0)"/>
<path d="" fill="#000000" transform="translate(0,0)"/>
<path d="" fill="#000000" transform="translate(0,0)"/>
<path d="" fill="#000000" transform="translate(0,0)"/>
<path d="" fill="#000000" transform="translate(0,0)"/>
<path d="" fill="#000000" transform="translate(0,0)"/>
<path d="" fill="#000000" transform="translate(0,0)"/>
<path d="" fill="#000000" transform="translate(0,0)"/>
<path d="" fill="#000000" transform="translate(0,0)"/>
<path d="" fill="#000000" transform="translate(0,0)"/>
<path d="" fill="#000000" transform="translate(0,0)"/>
<path d="" fill="#000000" transform="translate(0,0)"/>
<path d="" fill="#000000" transform="translate(0,0)"/>
<path d="" fill="#000000" transform="translate(0,0)"/>
<path d="" fill="#000000" transform="translate(0,0)"/>
<path d="" fill="#000000" transform="translate(0,0)"/>
<path d="" fill="#000000" transform="translate(0,0)"/>
<path d="" fill="#000000" transform="translate(0,0)"/>
<path d="" fill="#000000" transform="translate(0,0)"/>
<path d="" fill="#000000" transform="translate(0,0)"/>
<path d="" fill="#000000" transform="translate(0,0)"/>
<path d="" fill="#000000" transform="translate(0,0)"/>
<path d="" fill="#000000" transform="translate(0,0)"/>
<path d="" fill="#000000" transform="translate(0,0)"/>
<path d="" fill="#000000" transform="translate(0,0)"/>
<path d="" fill="#000000" transform="translate(0,0)"/>
<path d="" fill="#000000" transform="translate(0,0)"/>
<path d="" fill="#000000" transform="translate(0,0)"/>
<path d="" fill="#000000" transform="translate(0,0)"/>
<path d="" fill="#000000" transform="translate(0,0)"/>
<path d="" fill="#000000" transform="translate(0,0)"/>
<path d="" fill="#000000" transform="translate(0,0)"/>
<path d="" fill="#000000" transform="translate(0,0)"/>
<path d="" fill="#000000" transform="translate(0,0)"/>
<path d="" fill="#000000" transform="translate(0,0)"/>
<path d="" fill="#000000" transform="translate(0,0)"/>
<path d="" fill="#000000" transform="translate(0,0)"/>
<path d="" fill="#000000" transform="translate(0,0)"/>
<path d="" fill="#000000" transform="translate(0,0)"/>
<path d="" fill="#000000" transform="translate(0,0)"/>
<path d="" fill="#000000" transform="translate(0,0)"/>
<path d="" fill="#000000" transform="translate(0,0)"/>
<path d="" fill="#000000" transform="translate(0,0)"/>
<path d="" fill="#000000" transform="translate(0,0)"/>
<path d="" fill="#000000" transform="translate(0,0)"/>
<path d="" fill="#000000" transform="translate(0,0)"/>
<path d="" fill="#000000" transform="translate(0,0)"/>
<path d="" fill="#000000" transform="translate(0,0)"/>
<path d="" fill="#000000" transform="translate(0,0)"/>
<path d="" fill="#000000" transform="translate(0,0)"/>
<path d="" fill="#000000" transform="translate(0,0)"/>
<path d="" fill="#000000" transform="translate(0,0)"/>
</svg>
