<?xml version="1.0" encoding="UTF-8"?>
<svg version="1.1" xmlns="http://www.w3.org/2000/svg" width="154" height="172">
<path d="M0 0 C1.08547119 0.63325195 2.17094238 1.26650391 3.28930664 1.91894531 C3.88191788 2.26080872 4.47452911 2.60267212 5.08509827 2.95489502 C6.96291179 4.04175667 8.83104175 5.14415764 10.69946289 6.24707031 C11.94822391 6.97204231 13.19756899 7.69600925 14.44750977 8.41894531 C20.6218323 12.00180027 26.73733402 15.66664294 32.76196289 19.49707031 C31.40755707 26.28074188 29.43935013 32.5663575 27.03149414 39.04394531 C26.30389761 41.04250384 25.57669552 43.041206 24.84985352 45.04003906 C23.70905213 48.1579501 22.56438593 51.27431346 21.41259766 54.38818359 C20.2954917 57.41541015 19.19377533 60.44788968 18.09399414 63.48144531 C17.7451265 64.41172546 17.39625885 65.34200562 17.03681946 66.30047607 C16.72286728 67.17198303 16.4089151 68.04348999 16.08544922 68.94140625 C15.80502274 69.70257751 15.52459625 70.46374878 15.235672 71.24798584 C14.19445518 76.19149347 16.36264053 79.98567923 18.70336914 84.23535156 C19.28666992 85.30205078 19.8699707 86.36875 20.47094727 87.46777344 C21.3884375 89.12196289 21.3884375 89.12196289 22.32446289 90.80957031 C22.93999023 91.93169922 23.55551758 93.05382812 24.18969727 94.20996094 C25.70788383 96.97564964 27.23213994 99.7378064 28.76196289 102.49707031 C29.42196289 102.49707031 30.08196289 102.49707031 30.76196289 102.49707031 C31.26083008 101.59730469 31.75969727 100.69753906 32.27368164 99.77050781 C35.80075788 93.44237032 39.36016192 87.14128801 43.07836914 80.92285156 C43.646604 79.97168457 44.21483887 79.02051758 44.80029297 78.04052734 C45.9135709 76.18299985 47.03164774 74.32833721 48.15527344 72.47705078 C53.55326883 63.46686298 58.09802108 54.79512838 59.57446289 44.30957031 C59.69499023 43.54837891 59.81551758 42.7871875 59.93969727 42.00292969 C60.22792358 40.16981035 60.49712441 38.3337144 60.76196289 36.49707031 C66.63696289 38.37207031 66.63696289 38.37207031 67.76196289 39.49707031 C67.96351106 42.17053723 68.09977175 44.8202445 68.19287109 47.49829102 C68.22514297 48.33747574 68.25741486 49.17666046 68.29066467 50.04127502 C68.5740561 57.81832275 68.74493077 65.59787891 68.88033772 73.37878132 C68.97328579 78.60581571 69.10383265 83.82578913 69.32568359 89.04907227 C70.72428044 122.80270431 70.72428044 122.80270431 65.84393311 130.53656006 C61.28246597 134.92335509 56.22586888 137.10789737 50.18173218 138.76205444 C47.78902251 139.48885083 45.93152353 140.41804045 43.80224609 141.71313477 C40.76196289 143.49707031 40.76196289 143.49707031 37.76196289 143.49707031 C37.07924996 135.14602824 36.6080425 126.8771806 36.76196289 118.49707031 C36.10196289 118.29082031 35.44196289 118.08457031 34.76196289 117.87207031 C25.56746506 113.65792547 21.44130318 107.52765058 16.76196289 98.74707031 C16.17801758 97.69390625 15.59407227 96.64074219 14.99243164 95.55566406 C10.76196289 87.83778313 10.76196289 87.83778313 10.76196289 85.49707031 C7.8838869 88.21198654 5.70994948 90.90013848 3.63305664 94.26269531 C3.07295898 95.15214844 2.51286133 96.04160156 1.93579102 96.95800781 C0.77013459 98.83040081 -0.39127146 100.70544605 -1.54858398 102.58300781 C-2.10739258 103.46730469 -2.66620117 104.35160156 -3.24194336 105.26269531 C-3.99713257 106.48134277 -3.99713257 106.48134277 -4.76757812 107.72460938 C-5.25282959 108.30952148 -5.73808105 108.89443359 -6.23803711 109.49707031 C-7.22803711 109.49707031 -8.21803711 109.49707031 -9.23803711 109.49707031 C-10.78100586 107.51269531 -10.78100586 107.51269531 -12.42553711 104.74707031 C-15.09154906 100.36637974 -17.81983842 96.06780187 -20.67553711 91.80957031 C-21.35487305 90.79507813 -22.03420898 89.78058594 -22.73413086 88.73535156 C-23.23041992 87.99671875 -23.72670898 87.25808594 -24.23803711 86.49707031 C-26.9246242 88.88931808 -28.36502646 91.38046298 -29.98803711 94.57519531 C-30.51526367 95.57164063 -31.04249023 96.56808594 -31.58569336 97.59472656 C-32.67413698 99.67126084 -33.74497463 101.75713379 -34.79663086 103.85253906 C-37.88232212 109.60213645 -40.25103602 112.85260609 -46.07006836 115.95410156 C-50.15866453 118.25686079 -50.15866453 118.25686079 -52.3059082 122.27880859 C-52.76450058 125.53536939 -52.9157807 128.64666009 -52.92553711 131.93457031 C-52.97129883 133.04767578 -53.01706055 134.16078125 -53.06420898 135.30761719 C-53.16973586 138.03959075 -53.22623322 140.76335328 -53.23803711 143.49707031 C-56.89672538 142.82132028 -59.65090904 141.24855255 -62.84350586 139.37207031 C-64.44162109 138.43621094 -64.44162109 138.43621094 -66.07202148 137.48144531 C-67.73201172 136.49917969 -67.73201172 136.49917969 -69.42553711 135.49707031 C-70.54379883 134.84222656 -71.66206055 134.18738281 -72.81420898 133.51269531 C-81.08123483 128.6538726 -81.08123483 128.6538726 -82.23803711 127.49707031 C-82.35448816 124.77442185 -82.40604772 122.07679901 -82.41503906 119.35302734 C-82.42489586 118.07256531 -82.42489586 118.07256531 -82.43495178 116.76623535 C-82.45473284 113.92911706 -82.46635734 111.09205178 -82.47631836 108.25488281 C-82.48039389 107.28867886 -82.48446941 106.3224749 -82.48866844 105.32699203 C-82.50954862 100.21425335 -82.5238425 95.10154167 -82.53320312 89.98876953 C-82.54427833 84.69664979 -82.57868546 79.40494929 -82.61837482 74.11297798 C-82.64446706 70.05357051 -82.65288831 65.99426408 -82.6564846 61.93478012 C-82.66136888 59.98347005 -82.67303481 58.03216503 -82.6915226 56.08093643 C-82.71575983 53.35358304 -82.71497763 50.62732948 -82.70800781 47.89990234 C-82.72081787 47.08939423 -82.73362793 46.27888611 -82.74682617 45.44381714 C-82.69596401 40.00057025 -82.69596401 40.00057025 -80.39616394 37.47189331 C-78.23803711 36.49707031 -78.23803711 36.49707031 -75.23803711 36.49707031 C-75.15166992 37.51285156 -75.06530273 38.52863281 -74.97631836 39.57519531 C-74.83536658 40.96591951 -74.69338256 42.35653935 -74.55053711 43.74707031 C-74.49704102 44.40964844 -74.44354492 45.07222656 -74.38842773 45.75488281 C-73.16959772 56.98931596 -67.19260097 66.79209529 -61.48803711 76.30957031 C-60.57030518 77.8612793 -60.57030518 77.8612793 -59.6340332 79.44433594 C-57.8435692 82.46689153 -56.04255087 85.48288676 -54.23803711 88.49707031 C-53.2666257 90.12594243 -52.29526599 91.75484537 -51.32397461 93.38378906 C-49.30586005 96.7613173 -47.27658931 100.13184128 -45.23803711 103.49707031 C-44.89023193 102.88710205 -44.54242676 102.27713379 -44.18408203 101.64868164 C-42.59847372 98.86865041 -41.01201351 96.08910624 -39.42553711 93.30957031 C-38.87833008 92.34986328 -38.33112305 91.39015625 -37.76733398 90.40136719 C-36.96972656 89.0043457 -36.96972656 89.0043457 -36.15600586 87.57910156 C-35.66898193 86.72550049 -35.18195801 85.87189941 -34.68017578 84.99243164 C-33.23803711 82.49707031 -33.23803711 82.49707031 -31.49316406 80.11694336 C-29.06051788 75.03919075 -31.23858787 70.30413362 -32.92797852 65.25195312 C-33.64250933 63.23256406 -34.36339211 61.21541469 -35.08959961 59.20019531 C-35.86575458 57.00362076 -36.64179281 54.80700496 -37.41772461 52.61035156 C-38.64400682 49.16383757 -39.87328363 45.71842113 -41.10522461 42.27392578 C-42.29517408 38.93950924 -43.47414449 35.60136425 -44.65209961 32.26269531 C-45.02597809 31.22832336 -45.39985657 30.19395142 -45.7850647 29.12823486 C-46.12226532 28.17003845 -46.45946594 27.21184204 -46.80688477 26.22460938 C-47.25869614 24.96055267 -47.25869614 24.96055267 -47.71963501 23.67095947 C-48.23803711 21.49707031 -48.23803711 21.49707031 -47.23803711 18.49707031 C-44.63817127 16.8804484 -42.06659281 15.42030469 -39.36303711 13.99707031 C-34.19088134 11.22565641 -29.06485617 8.43019369 -24.06225586 5.36035156 C-23.22355957 4.85117188 -22.38486328 4.34199219 -21.52075195 3.81738281 C-19.90407301 2.83056633 -18.2958499 1.82972769 -16.69750977 0.81347656 C-15.9542041 0.36488281 -15.21089844 -0.08371094 -14.44506836 -0.54589844 C-13.80029541 -0.94832764 -13.15552246 -1.35075684 -12.49121094 -1.76538086 C-8.00029727 -3.23542639 -4.1575827 -1.92973529 0 0 Z M-8.23803711 56.49707031 C-10.42743599 59.45809986 -12.37124467 62.58848478 -14.36303711 65.68457031 C-14.93924805 66.54888672 -15.51545898 67.41320312 -16.10913086 68.30371094 C-16.91930664 69.56538086 -16.91930664 69.56538086 -17.74584961 70.85253906 C-18.24745605 71.62235107 -18.7490625 72.39216309 -19.26586914 73.18530273 C-20.4851824 76.08476964 -20.1764607 77.53462583 -19.23803711 80.49707031 C-17.76994086 83.0141548 -17.76994086 83.0141548 -15.92553711 85.43457031 C-15.29905273 86.29695313 -14.67256836 87.15933594 -14.02709961 88.04785156 C-13.43670898 88.85609375 -12.84631836 89.66433594 -12.23803711 90.49707031 C-10.88242474 92.48347341 -9.55983415 94.48793881 -8.23803711 96.49707031 C-4.41287673 93.02940156 -1.78048999 89.04127837 1.01196289 84.74707031 C1.47086914 84.0496875 1.92977539 83.35230469 2.40258789 82.63378906 C3.52661695 80.9243282 4.64487514 79.21107519 5.76196289 77.49707031 C-0.30281958 66.72019261 -0.30281958 66.72019261 -7.23803711 56.49707031 C-7.56803711 56.49707031 -7.89803711 56.49707031 -8.23803711 56.49707031 Z M-71.23803711 81.49707031 C-71.09693725 83.60155969 -70.94999536 85.70565802 -70.80053711 87.80957031 C-70.71932617 88.98132813 -70.63811523 90.15308594 -70.55444336 91.36035156 C-70.3513 94.52297989 -70.3513 94.52297989 -69.23803711 97.49707031 C-66.94409698 98.98769639 -64.69872393 100.32433988 -62.30053711 101.62207031 C-61.65407227 101.98171875 -61.00760742 102.34136719 -60.34155273 102.71191406 C-57.99329577 104.01406278 -55.63987701 105.29615036 -53.23803711 106.49707031 C-54.63712909 102.04541401 -56.7121079 99.5310094 -60.23803711 96.49707031 C-61.14553711 96.18769531 -62.05303711 95.87832031 -62.98803711 95.55957031 C-63.73053711 95.20894531 -64.47303711 94.85832031 -65.23803711 94.49707031 C-65.86303711 91.80957031 -65.86303711 91.80957031 -66.23803711 88.49707031 C-67.11888567 86.09519364 -68.16750383 83.82431658 -69.23803711 81.49707031 C-69.89803711 81.49707031 -70.55803711 81.49707031 -71.23803711 81.49707031 Z M53.76196289 81.49707031 C53.48223633 82.38910156 53.20250977 83.28113281 52.91430664 84.20019531 C49.23444166 94.94398116 49.23444166 94.94398116 45.13696289 96.99707031 C43.46633789 97.73957031 43.46633789 97.73957031 41.76196289 98.49707031 C39.71511076 100.95678641 39.71511076 100.95678641 38.76196289 103.49707031 C39.09196289 104.15707031 39.42196289 104.81707031 39.76196289 105.49707031 C42.07828564 104.21188479 44.38993231 102.91935765 46.69946289 101.62207031 C47.35881836 101.25726563 48.01817383 100.89246094 48.69750977 100.51660156 C52.34132658 98.64289133 52.34132658 98.64289133 54.76196289 95.49707031 C54.99226245 93.12583786 55.17316231 90.74965089 55.32446289 88.37207031 C55.40825195 87.09074219 55.49204102 85.80941406 55.57836914 84.48925781 C55.66924805 83.008125 55.66924805 83.008125 55.76196289 81.49707031 C55.10196289 81.49707031 54.44196289 81.49707031 53.76196289 81.49707031 Z " fill="#FEFE00" transform="translate(82.238037109375,2.5029296875)"/>
<path d="M0 0 C0.64875595 0.0954007 1.2975119 0.19080139 1.96592712 0.28909302 C4.03125595 0.5941722 6.09157276 0.92342416 8.15234375 1.2578125 C23.31993236 3.68448159 36.88742737 2.64425331 52.02148438 0.13671875 C56.30465664 -0.49036759 59.41652152 -0.79589968 63.63671875 0.32421875 C66.95084448 3.10534018 67.61130743 5.98766532 68.40234375 10.0703125 C68.6353418 11.09415039 68.6353418 11.09415039 68.87304688 12.13867188 C69.91109831 16.85668248 70.54597819 21.58494898 71.08984375 26.3828125 C65.484375 29.5859375 59.87890625 32.7890625 54.2734375 35.9921875 C53.36129486 36.51401611 53.36129486 36.51401611 52.4307251 37.04638672 C51.19396329 37.75229111 49.9557896 38.45572736 48.71624756 39.15673828 C45.53411099 40.9605883 42.3890602 42.80331048 39.28222656 44.734375 C38.66348663 45.11049927 38.0447467 45.48662354 37.40725708 45.87414551 C35.70146429 46.91332217 34.00682474 47.97074351 32.31298828 49.02929688 C28.30955568 50.71048384 26.26126605 50.475475 22.08984375 49.3828125 C19.13061523 48.01928711 19.13061523 48.01928711 16.2109375 46.28515625 C15.13054199 45.6516626 14.05014648 45.01816895 12.93701172 44.36547852 C11.24922607 43.35312134 11.24922607 43.35312134 9.52734375 42.3203125 C8.36282732 41.63287084 7.19762223 40.94659444 6.03173828 40.26147461 C3.74875921 38.91852105 1.4695016 37.56988611 -0.80810547 36.21777344 C-4.69412493 33.91907029 -8.60794579 31.67266181 -12.53515625 29.4453125 C-13.59992187 28.83816406 -14.6646875 28.23101562 -15.76171875 27.60546875 C-16.47070312 27.20199219 -17.1796875 26.79851562 -17.91015625 26.3828125 C-17.26770902 22.94467067 -16.62061699 19.50741915 -15.97265625 16.0703125 C-15.69905273 14.60561523 -15.69905273 14.60561523 -15.41992188 13.11132812 C-15.24267578 12.17353516 -15.06542969 11.23574219 -14.8828125 10.26953125 C-14.72047119 9.40545654 -14.55812988 8.54138184 -14.39086914 7.65112305 C-13.33320682 2.6603965 -13.33320682 2.6603965 -10.27954102 0.65673828 C-6.32710633 -0.837632 -4.1478738 -0.66408862 0 0 Z M5.08984375 9.3828125 C9.564532 17.7003318 14.22965195 25.89891336 18.96484375 34.0703125 C19.66027955 35.27271515 20.35559271 36.47518875 21.05078125 37.67773438 C22.72927105 40.58012298 24.4089785 43.48179917 26.08984375 46.3828125 C28.66187162 43.27256525 30.90681377 40.19867694 32.89453125 36.6875 C33.39307617 35.8111792 33.89162109 34.9348584 34.40527344 34.03198242 C34.91993164 33.11650635 35.43458984 32.20103027 35.96484375 31.2578125 C36.4949707 30.32235596 37.02509766 29.38689941 37.57128906 28.4230957 C41.14070882 22.11079516 44.67409602 15.77984881 48.08984375 9.3828125 C46.99929687 9.47369141 46.99929687 9.47369141 45.88671875 9.56640625 C43.76074518 9.74357071 41.63440853 9.91640816 39.5078125 10.0859375 C37.36152957 10.2723575 35.21731299 10.48692771 33.078125 10.7421875 C26.45318769 11.48517112 20.65064191 11.09544473 14.09765625 9.85546875 C11.04104623 9.37514432 8.17817924 9.35036862 5.08984375 9.3828125 Z " fill="#FEFE00" transform="translate(47.91015625,121.6171875)"/>
</svg>
