<?xml version="1.0" encoding="UTF-8"?>
<svg version="1.1" xmlns="http://www.w3.org/2000/svg" width="900" height="878">
<path d="M0 0 C6.92231819 12.209717 13.51400905 24.58588002 20.0612793 36.99911499 C24.77217152 45.92919218 29.51154661 54.83919484 34.375 63.6875 C38.86185624 71.85183083 43.19898282 80.08562454 47.47949219 88.35986328 C51.5758109 96.2541202 55.82547338 104.05878912 60.16796875 111.8203125 C60.64105469 112.67496094 61.11414063 113.52960938 61.6015625 114.41015625 C62.22538818 115.52596069 62.22538818 115.52596069 62.86181641 116.66430664 C64.182198 119.3738928 65.09967686 122.12656775 66 125 C66.73710205 124.73896484 67.4742041 124.47792969 68.23364258 124.20898438 C101.76739539 112.3775035 136.17464866 101.19396022 171.63671875 96.92260742 C178.13810196 96.0883379 181.62214975 93.6432484 185.9375 88.875 C191.59959758 83.08056625 198.04242246 79.05518033 205 75 C205.73605469 74.566875 206.47210938 74.13375 207.23046875 73.6875 C232.93306713 60.55403656 271.8486179 63.2290765 298.5 71.3125 C312.75557943 75.99325234 324.98762468 82.9131203 333 96 C333 96.66 333 97.32 333 98 C333.84304688 98.06058594 334.68609375 98.12117188 335.5546875 98.18359375 C337.19824219 98.30927734 337.19824219 98.30927734 338.875 98.4375 C340.51082031 98.55931641 340.51082031 98.55931641 342.1796875 98.68359375 C345 99 345 99 347 100 C347.40726318 98.93640259 347.40726318 98.93640259 347.82275391 97.85131836 C349.02584557 94.93740141 350.38643808 92.17810886 351.8359375 89.37890625 C352.39933838 88.29013184 352.96273926 87.20135742 353.54321289 86.07958984 C354.14770264 84.9189502 354.75219238 83.75831055 355.375 82.5625 C355.68645966 81.96286438 355.99791931 81.36322876 356.31881714 80.74542236 C360.945113 71.84123853 365.68722223 63.00588224 370.52661133 54.21557617 C374.3104725 47.3218639 377.95408867 40.3619401 381.5625 33.375 C385.70137177 25.36568351 389.90631828 17.40034489 394.25 9.5 C394.71607666 8.65099121 395.18215332 7.80198242 395.66235352 6.92724609 C398.86797588 1.13202412 398.86797588 1.13202412 400 0 C405.45709332 -0.3301102 410.04237088 0.5356097 415.24609375 1.94921875 C416.03703934 2.1576944 416.82798492 2.36617004 417.64289856 2.58096313 C420.24427416 3.271868 422.84111904 3.97806925 425.4375 4.6875 C426.33859497 4.93164642 427.23968994 5.17579285 428.16809082 5.42733765 C504.02444062 26.04293972 584.7934615 56.25216142 650 101 C649.50771305 106.24568057 647.53837137 109.98258307 644.8125 114.375 C643.89497604 115.89401375 642.9783611 117.41357683 642.0625 118.93359375 C641.32 120.15731689 641.32 120.15731689 640.5625 121.40576172 C637.76292444 126.05393201 635.04157716 130.74771178 632.3125 135.4375 C631.72243164 136.44941406 631.13236328 137.46132812 630.52441406 138.50390625 C623.64225415 150.31243801 616.82151006 162.15636842 610 174 C602.12419276 187.6741218 594.23144154 201.33736974 586.26928711 214.96142578 C581.98755083 222.29312479 577.73779993 229.64282981 573.5 237 C568.1208592 246.33863207 562.70740553 255.65640317 557.26953125 264.9609375 C552.98777878 272.29283723 548.73789061 279.64267238 544.5 287 C539.1208592 296.33863207 533.70740553 305.65640317 528.26953125 314.9609375 C523.98777878 322.29283723 519.73789061 329.64267238 515.5 337 C510.1208592 346.33863207 504.70740553 355.65640317 499.26953125 364.9609375 C494.98777878 372.29283723 490.73789061 379.64267238 486.5 387 C481.1208592 396.33863207 475.70740553 405.65640317 470.26953125 414.9609375 C465.98777878 422.29283723 461.73789061 429.64267238 457.5 437 C452.1208592 446.33863207 446.70740553 455.65640317 441.26953125 464.9609375 C436.98777878 472.29283723 432.73789061 479.64267238 428.5 487 C423.69148156 495.34798459 418.86094317 503.68243184 414 512 C406.61585107 524.63743454 399.30509865 537.31675298 392 550 C384.12419276 563.6741218 376.23144154 577.33736974 368.26928711 590.96142578 C363.98755083 598.29312479 359.73779993 605.64282981 355.5 613 C350.1208592 622.33863207 344.70740553 631.65640317 339.26953125 640.9609375 C334.98777878 648.29283723 330.73789061 655.64267238 326.5 663 C321.1208592 672.33863207 315.70740553 681.65640317 310.26953125 690.9609375 C305.98777878 698.29283723 301.73789061 705.64267238 297.5 713 C292.1208592 722.33863207 286.70740553 731.65640317 281.26953125 740.9609375 C276.98777878 748.29283723 272.73789061 755.64267238 268.5 763 C263.1208592 772.33863207 257.70740553 781.65640317 252.26953125 790.9609375 C247.98777878 798.29283723 243.73789061 805.64267238 239.5 813 C234.12967691 822.32332379 228.73539409 831.63200179 223.29150391 840.91259766 C220.48038651 845.71263045 217.69386111 850.52416199 214.965271 855.371521 C213.60424109 857.78899953 212.23591106 860.20231682 210.86767578 862.61572266 C209.89490745 864.33971887 208.93365389 866.07019617 207.97265625 867.80078125 C207.08513672 869.36505859 207.08513672 869.36505859 206.1796875 870.9609375 C205.66132324 871.88696777 205.14295898 872.81299805 204.60888672 873.76708984 C202.90484311 876.13206448 201.69225766 876.97608092 199 878 C190.91932922 865.24648125 183.51483955 852.09084309 176 839 C168.43547563 825.82560871 160.83366888 812.67882271 153.0625 799.625 C146.88017668 789.23815537 140.83934117 778.77983848 134.86181641 768.27441406 C130.03611628 759.79559317 125.14521851 751.35709206 120.21826172 742.93676758 C115.95093777 735.64045426 111.7183643 728.32471803 107.5 721 C102.12388634 711.66644047 96.71368563 702.35360425 91.27832031 693.05444336 C86.27037635 684.47978691 81.30793079 675.87926861 76.35717773 667.27148438 C73.54201134 662.38227887 70.71584536 657.50143734 67.83203125 652.65234375 C67.35926758 651.85691162 66.88650391 651.06147949 66.39941406 650.24194336 C65.53427489 648.79114478 64.66537628 647.34257863 63.79199219 645.89672852 C61 641.21791331 61 641.21791331 61 639 C59.92238403 639.40726318 59.92238403 639.40726318 58.82299805 639.82275391 C40.50704293 646.72611174 22.39210406 653.51345271 3.25 657.75 C2.3518457 657.94891846 1.45369141 658.14783691 0.52832031 658.3527832 C-12.89687222 661.18226998 -26.01071879 662.38448407 -39.6875 662.3125 C-40.42978851 662.31034485 -41.17207703 662.3081897 -41.93685913 662.30596924 C-93.89524696 662.06479187 -137.98493453 637.6882981 -177 605 C-177.51755859 604.56880859 -178.03511719 604.13761719 -178.56835938 603.69335938 C-193.3056797 591.38584814 -207.03615245 578.04893371 -220.625 564.5 C-221.14028259 563.98739624 -221.65556519 563.47479248 -222.1864624 562.94665527 C-227.48512371 557.66894901 -232.71440454 552.37669077 -237.52685547 546.64477539 C-239.07477054 544.91651821 -240.75257034 543.46072833 -242.5 541.9375 C-245 539 -245 539 -244.94921875 536.01171875 C-243.94392505 530.66665164 -241.54140029 525.80018198 -239.3125 520.875 C-238.82773193 519.79114014 -238.34296387 518.70728027 -237.84350586 517.59057617 C-228.80246214 497.53758401 -219.18956461 477.83020785 -208.45458984 458.62402344 C-206.98452409 455.97208207 -205.54465847 453.30581386 -204.11328125 450.6328125 C-189.85566718 424.04506455 -174.50332298 397.19521791 -156.09667969 373.23583984 C-153.73040426 370.43959336 -153.73040426 370.43959336 -153 367 C-154.62390477 365.61490475 -156.30140333 364.29241051 -158 363 C-164.18907523 358.04873981 -172.3959772 351.1734397 -174 343 C-173.04431562 340.083159 -171.51185623 337.56095023 -169.9375 334.9375 C-169.48576416 334.15745605 -169.03402832 333.37741211 -168.56860352 332.57373047 C-160.98623795 319.65049689 -153.01354619 306.86121368 -143.31640625 295.41015625 C-142.88199219 294.61480469 -142.44757813 293.81945312 -142 293 C-143.15861686 289.37027658 -144.94426713 286.13254131 -146.80078125 282.81640625 C-147.35886475 281.81810791 -147.91694824 280.81980957 -148.49194336 279.79125977 C-149.3931189 278.19302368 -149.3931189 278.19302368 -150.3125 276.5625 C-150.93842041 275.44866943 -151.56434082 274.33483887 -152.20922852 273.18725586 C-156.7200195 265.19186038 -161.34012926 257.26723808 -166.03466797 249.37866211 C-170.22841123 242.32784443 -174.34622047 235.23572056 -178.4375 228.125 C-183.2656729 219.73460397 -188.11477902 211.35731589 -193 203 C-197.83684993 194.72227937 -202.64862008 186.43056809 -207.4375 178.125 C-208.37251343 176.50356079 -208.37251343 176.50356079 -209.32641602 174.84936523 C-212.46116816 169.41096863 -215.59200536 163.97034791 -218.71875 158.52734375 C-225.96305814 145.92776163 -233.29040499 133.3823392 -240.72241211 120.89282227 C-241.95512146 118.82122284 -243.18387422 116.74726129 -244.40771484 114.67041016 C-245.37324313 113.0511295 -246.3580849 111.44288032 -247.37744141 109.85693359 C-248.98807783 107.29878296 -249.97233079 105.38398085 -250.19140625 102.34375 C-248.37020293 98.76105493 -245.35002815 97.34980693 -241.9375 95.5 C-241.18436523 95.07549561 -240.43123047 94.65099121 -239.65527344 94.21362305 C-237.113616 92.79001851 -234.55791438 91.39415953 -232 90 C-230.18350246 88.99625894 -228.36709856 87.9923484 -226.55078125 86.98828125 C-220.3953958 83.60555873 -214.20177177 80.29672648 -208 77 C-206.89640137 76.41057617 -205.79280273 75.82115234 -204.65576172 75.21386719 C-147.9513758 45.02241554 -87.7939827 21.6221557 -25.8125 4.8125 C-24.91929047 4.56790039 -24.02608093 4.32330078 -23.10580444 4.07128906 C-20.55886168 3.37699214 -18.008787 2.69589814 -15.45703125 2.01953125 C-14.70430939 1.81387039 -13.95158752 1.60820953 -13.17605591 1.39631653 C-8.64724703 0.21835469 -4.6799327 -0.19879428 0 0 Z " fill="#121A22" transform="translate(250,0)"/>
<path d="M0 0 C5.76279028 5.8519056 5.10241679 13.14351182 5.06201172 20.76660156 C4.51359519 42.11872299 -2.59602169 62.16544086 -10.43457031 81.80786133 C-11.54302943 84.69165949 -12.52771327 87.6017867 -13.484375 90.5390625 C-12.79625732 90.84497314 -12.10813965 91.15088379 -11.39916992 91.46606445 C8.54707361 100.37955759 27.64167542 109.51449883 44.515625 123.5390625 C45.09683105 124.00957031 45.67803711 124.48007813 46.27685547 124.96484375 C55.31836005 132.28496175 63.01623223 139.78997334 69.515625 149.5390625 C64.85957764 126.64682963 48.26402458 102.30802777 29.609375 88.3671875 C28.5884375 87.59890625 27.5675 86.830625 26.515625 86.0390625 C25.0615625 85.00265625 25.0615625 85.00265625 23.578125 83.9453125 C21.515625 81.5390625 21.515625 81.5390625 21.49609375 78.46484375 C21.79583265 77.14648569 22.1416063 75.83830127 22.515625 74.5390625 C22.74459473 73.71905762 22.97356445 72.89905273 23.20947266 72.05419922 C23.75886759 70.15005784 24.31994502 68.24926254 24.89038086 66.35131836 C29.1268556 52.23451539 31.63635255 38.1414931 33.515625 23.5390625 C63.40525376 27.18413918 93.58998321 33.16418887 122.23046875 42.5234375 C124.99402157 43.37780579 127.67000676 44.04229423 130.515625 44.5390625 C129.91727775 48.68204917 128.50898215 51.72100627 126.453125 55.3515625 C125.63134766 56.81529297 125.63134766 56.81529297 124.79296875 58.30859375 C124.16068359 59.41267578 124.16068359 59.41267578 123.515625 60.5390625 C124.04172363 60.620354 124.56782227 60.70164551 125.10986328 60.78540039 C133.79966238 62.31491332 142.05316946 65.16355706 150.390625 67.9765625 C151.18252228 68.24261292 151.97441956 68.50866333 152.79031372 68.78277588 C173.32052424 75.69717956 193.40797674 83.35511036 212.953125 92.7265625 C214.119646 93.28456543 215.28616699 93.84256836 216.48803711 94.41748047 C224.48883193 98.33597908 232.01303378 102.75117886 239.515625 107.5390625 C235.13545063 116.67973761 230.18128978 125.34069129 224.99755859 134.04150391 C222.24993039 138.67218537 219.54016373 143.32497768 216.828125 147.9765625 C216.23837891 148.98750977 215.64863281 149.99845703 215.04101562 151.04003906 C210.04091419 159.61969753 205.07890514 168.22108178 200.12231445 176.82592773 C195.37214449 185.06762312 190.58500567 193.28716511 185.78515625 201.5 C181.50340378 208.83189973 177.25351561 216.18173488 173.015625 223.5390625 C167.6364842 232.87769457 162.22303053 242.19546567 156.78515625 251.5 C152.50340378 258.83189973 148.25351561 266.18173488 144.015625 273.5390625 C138.6364842 282.87769457 133.22303053 292.19546567 127.78515625 301.5 C123.50340378 308.83189973 119.25351561 316.18173488 115.015625 323.5390625 C109.6364842 332.87769457 104.22303053 342.19546567 98.78515625 351.5 C94.50340378 358.83189973 90.25351561 366.18173488 86.015625 373.5390625 C80.6364842 382.87769457 75.22303053 392.19546567 69.78515625 401.5 C65.50340378 408.83189973 61.25351561 416.18173488 57.015625 423.5390625 C51.6364842 432.87769457 46.22303053 442.19546567 40.78515625 451.5 C36.50340378 458.83189973 32.25351561 466.18173488 28.015625 473.5390625 C22.6364842 482.87769457 17.22303053 492.19546567 11.78515625 501.5 C7.50340378 508.83189973 3.25351561 516.18173488 -0.984375 523.5390625 C-6.3635158 532.87769457 -11.77696947 542.19546567 -17.21484375 551.5 C-22.13249472 559.9207866 -27.00555534 568.36686393 -31.87231445 576.81713867 C-36.11373664 584.17675187 -40.38423169 591.5187956 -44.671875 598.8515625 C-49.25061809 606.6847313 -53.79521156 614.5363213 -58.296875 622.4140625 C-58.80694092 623.30649658 -59.31700684 624.19893066 -59.8425293 625.1184082 C-62.24053989 629.28727496 -62.24053989 629.28727496 -64.484375 633.5390625 C-65.144375 633.5390625 -65.804375 633.5390625 -66.484375 633.5390625 C-66.96511475 632.68248047 -66.96511475 632.68248047 -67.45556641 631.80859375 C-74.24110588 619.7304775 -81.10482341 607.703364 -88.10327148 595.74731445 C-92.48723007 588.25626079 -96.83771024 580.74652829 -101.171875 573.2265625 C-101.79521729 572.14665039 -102.41855957 571.06673828 -103.06079102 569.95410156 C-105.98836102 564.88031536 -108.90721883 559.80197987 -111.8046875 554.7109375 C-112.31298096 553.82188721 -112.82127441 552.93283691 -113.3449707 552.0168457 C-114.28802618 550.36685542 -115.22691207 548.71447247 -116.16088867 547.05932617 C-118.16274233 543.16346594 -118.16274233 543.16346594 -121.484375 540.5390625 C-121.75169434 541.25022217 -122.01901367 541.96138184 -122.29443359 542.6940918 C-123.52052248 545.62548568 -124.95066521 548.29853257 -126.5234375 551.05859375 C-127.39355469 552.5909668 -127.39355469 552.5909668 -128.28125 554.15429688 C-128.88453125 555.20939453 -129.4878125 556.26449219 -130.109375 557.3515625 C-131.02589844 558.96321289 -131.02589844 558.96321289 -131.9609375 560.60742188 C-133.46593385 563.25292326 -134.97383291 565.896725 -136.484375 568.5390625 C-139.16251252 566.1239876 -140.7887261 563.52853338 -142.56640625 560.40234375 C-143.16130859 559.36271484 -143.75621094 558.32308594 -144.36914062 557.25195312 C-145.00529297 556.12982422 -145.64144531 555.00769531 -146.296875 553.8515625 C-147.31089674 552.07572507 -148.32668029 550.30090266 -149.34249878 548.52609253 C-150.03684091 547.31264476 -150.73062225 546.09887595 -151.42385864 544.88479614 C-154.73929327 539.08057124 -158.10732223 533.30762986 -161.484375 527.5390625 C-165.18176784 521.21660531 -168.86627862 514.88714164 -172.51953125 508.5390625 C-172.85681244 507.95318359 -173.19409363 507.36730469 -173.54159546 506.76367188 C-175.17117507 503.9322277 -176.79880728 501.0996884 -178.42382812 498.265625 C-179.01228516 497.24210937 -179.60074219 496.21859375 -180.20703125 495.1640625 C-180.76148926 494.19726562 -181.31594727 493.23046875 -181.88720703 492.234375 C-183.71239989 489.15425743 -185.67394094 486.18679546 -187.73217773 483.2578125 C-188.484375 481.5390625 -188.484375 481.5390625 -188.2565918 479.39990234 C-187.484375 477.5390625 -187.484375 477.5390625 -185.1328125 476.265625 C-168.2679395 470.59033361 -151.0790313 466.21302242 -133.484375 463.5390625 C-132.26363281 463.34570312 -131.04289062 463.15234375 -129.78515625 462.953125 C-117.89730512 461.14836872 -106.05175719 460.41156887 -94.03515625 460.29296875 C-91.69856404 460.26002491 -89.36197559 460.22681336 -87.02539062 460.19335938 C-83.41677426 460.14618313 -79.80817254 460.10168594 -76.19946289 460.06225586 C-50.28056156 459.95162643 -50.28056156 459.95162643 -24.859375 455.3515625 C-24.08142578 455.13798096 -23.30347656 454.92439941 -22.50195312 454.7043457 C-1.53205352 448.68765665 15.61243068 437.91955704 26.515625 418.5390625 C36.15737316 401.0062359 38.02564163 376.54770168 32.48828125 357.30859375 C32.00681641 355.93767578 32.00681641 355.93767578 31.515625 354.5390625 C30.98775391 353.02892578 30.98775391 353.02892578 30.44921875 351.48828125 C25.58815031 338.86233782 17.72430655 326.43321294 6.515625 318.5390625 C6.75796875 319.04050781 7.0003125 319.54195313 7.25 320.05859375 C16.67656749 341.34088267 18.72626128 370.90386024 10.390625 392.8515625 C2.46163126 410.01550189 -11.43853725 421.64877577 -28.9140625 428.37890625 C-45.2936713 433.70138307 -60.94468841 435.10200619 -78.08935547 435.44873047 C-119.60997781 436.5534788 -161.14285745 445.39595998 -199.109375 462.2890625 C-199.87354736 462.62905273 -200.63771973 462.96904297 -201.42504883 463.31933594 C-206.72890433 465.70139538 -211.97034317 468.19137442 -217.171875 470.7890625 C-217.80625488 471.10584961 -218.44063477 471.42263672 -219.09423828 471.74902344 C-222.24253067 473.34197414 -225.29283529 475.01633299 -228.31640625 476.8359375 C-229.36183594 477.39796875 -230.40726563 477.96 -231.484375 478.5390625 C-232.144375 478.2090625 -232.804375 477.8790625 -233.484375 477.5390625 C-227.21218209 470.98810546 -220.60440353 465.14964498 -213.484375 459.5390625 C-212.00324219 458.34990234 -212.00324219 458.34990234 -210.4921875 457.13671875 C-186.72358025 438.37670829 -159.42575697 423.16046887 -130.48266602 414.19213867 C-128.50997881 413.54743027 -126.58889209 412.82193156 -124.65625 412.06640625 C-119.67833759 410.17052283 -114.57233703 408.81834054 -109.421875 407.4765625 C-108.40762451 407.21198242 -107.39337402 406.94740234 -106.34838867 406.67480469 C-99.48025773 404.93200624 -92.77625702 403.66212534 -85.7265625 402.90625 C-82.73260286 402.56717505 -79.86993899 402.02371879 -76.921875 401.4140625 C-67.59171482 399.76680663 -57.92287951 400.37528706 -48.484375 400.5390625 C-52.53314811 374.8309991 -60.2683953 351.53968998 -72.484375 328.5390625 C-72.8148584 327.90081543 -73.1453418 327.26256836 -73.48583984 326.60498047 C-81.53973542 311.10055027 -91.47549845 296.23346758 -104.66113281 284.6340332 C-106.23046875 283.203125 -106.23046875 283.203125 -108.484375 280.5390625 C-108.66291582 276.01602841 -105.69088545 271.79984427 -103.546875 267.9140625 C-103.18658203 267.24632812 -102.82628906 266.57859375 -102.45507812 265.890625 C-100.89747812 263.0221167 -99.29599008 260.25648512 -97.484375 257.5390625 C-128.20236008 270.37107961 -154.33950452 285.41224699 -178.484375 308.5390625 C-179.23460937 309.24804688 -179.98484375 309.95703125 -180.7578125 310.6875 C-208.9240846 337.96313899 -227.49330482 375.45420567 -241.484375 411.5390625 C-241.76619629 412.26287109 -242.04801758 412.98667969 -242.33837891 413.73242188 C-244.74161822 419.9372028 -247.03227902 426.17174106 -249.16015625 432.4765625 C-254.0736088 446.99875791 -259.29889631 459.79951077 -269.484375 471.5390625 C-270.42796875 472.77849609 -270.42796875 472.77849609 -271.390625 474.04296875 C-280.87964814 485.35544223 -297.95076765 493.75845498 -312.484375 495.5390625 C-336.16795362 497.12281101 -359.80068236 493.87820363 -378.40234375 477.890625 C-384.35232507 472.28317991 -388.99942044 466.10411483 -389.72265625 457.8046875 C-389.88697869 451.12800742 -389.683048 445.9245604 -385.484375 440.5390625 C-381.10021306 435.93860414 -376.49235341 431.82781618 -370.484375 429.5390625 C-369.494375 429.5390625 -368.504375 429.5390625 -367.484375 429.5390625 C-367.64808594 428.26160156 -367.81179688 426.98414063 -367.98046875 425.66796875 C-368.5447564 420.58937994 -368.59835593 415.58109515 -368.546875 410.4765625 C-368.54236328 409.61095703 -368.53785156 408.74535156 -368.53320312 407.85351562 C-368.52157413 405.74866711 -368.50364573 403.64385492 -368.484375 401.5390625 C-369.35835938 401.40371094 -370.23234375 401.26835938 -371.1328125 401.12890625 C-374.18540301 400.59167878 -377.11174724 399.88126891 -380.109375 399.1015625 C-411.1885062 391.93755938 -446.8266142 393.43385401 -476.484375 405.5390625 C-475.86127931 401.23850011 -474.33373159 397.92648729 -472.34375 394.078125 C-471.86648468 393.15067978 -471.86648468 393.15067978 -471.37957764 392.20449829 C-470.33826354 390.18725494 -469.28704469 388.17540079 -468.234375 386.1640625 C-467.6933313 385.12397034 -467.6933313 385.12397034 -467.14135742 384.06286621 C-460.54611234 371.38637647 -453.68304673 358.88403615 -446.484375 346.5390625 C-445.54875732 344.9310376 -445.54875732 344.9310376 -444.59423828 343.29052734 C-427.04078346 313.1982724 -408.06233159 284.04531717 -387.859375 255.6640625 C-387.08871704 254.56819824 -387.08871704 254.56819824 -386.30249023 253.45019531 C-382.84180806 248.65820685 -382.84180806 248.65820685 -379.484375 247.5390625 C-377.76074396 247.50254489 -376.03557376 247.52498475 -374.3125 247.58203125 C-352.57211093 248.09011747 -333.30391827 244.3372516 -312.2824707 239.12036133 C-304.51170176 237.20885465 -296.74505407 235.52798711 -288.859375 234.1640625 C-287.52036133 233.93106445 -287.52036133 233.93106445 -286.15429688 233.69335938 C-275.09764683 231.86312025 -264.18452064 231.34442228 -252.984375 231.3515625 C-251.66518066 231.35236816 -250.34598633 231.35317383 -248.98681641 231.35400391 C-234.59313124 231.44373352 -220.62848724 232.88527697 -206.484375 235.5390625 C-213.2892842 231.04989236 -220.12432424 227.04197436 -227.484375 223.5390625 C-228.81907444 222.87513508 -230.15286646 222.20936634 -231.484375 221.5390625 C-230.700625 221.2915625 -229.916875 221.0440625 -229.109375 220.7890625 C-216.2055178 216.33945657 -203.36783314 211.40745323 -196.98046875 198.5 C-193.33652831 190.27789005 -193.33652831 190.27789005 -192.7734375 181.4921875 C-193.7529904 169.149559 -193.7529904 169.149559 -190.1796875 164.61328125 C-186.17858267 161.71062297 -182.37372474 159.48200852 -177.484375 158.5390625 C-177.484375 157.8790625 -177.484375 157.2190625 -177.484375 156.5390625 C-202.80660568 157.23044491 -202.80660568 157.23044491 -227.484375 162.5390625 C-229.17626953 163.04566406 -229.17626953 163.04566406 -230.90234375 163.5625 C-250.54008945 169.72904185 -267.4714432 179.94659894 -284.578125 191.1875 C-285.52011749 191.80624245 -285.52011749 191.80624245 -286.48114014 192.43748474 C-289.61194368 194.49585298 -292.73817448 196.5606311 -295.85644531 198.63793945 C-306.77514888 205.88647719 -317.77402496 213.11410946 -330.234375 217.4140625 C-331.44613403 217.84537476 -331.44613403 217.84537476 -332.68237305 218.28540039 C-340.20528174 220.90420639 -347.44369002 222.96225645 -355.484375 222.5390625 C-356.46469438 202.93267483 -346.16903244 185.25041874 -335.484375 169.5390625 C-335.154375 168.8790625 -334.824375 168.2190625 -334.484375 167.5390625 C-343.28863923 174.08545897 -351.55703422 180.9551156 -359.484375 188.5390625 C-359.96680664 188.9942627 -360.44923828 189.44946289 -360.94628906 189.91845703 C-370.53846793 198.99780589 -378.0381765 208.4684014 -383.484375 220.5390625 C-389.69160171 219.98730901 -395.98373582 218.53681569 -401.484375 215.5390625 C-402.5703125 213.80078125 -402.5703125 213.80078125 -402.484375 211.5390625 C-401.15798128 209.23308443 -399.83757805 207.26347424 -398.234375 205.1640625 C-397.77909424 204.54974365 -397.32381348 203.9354248 -396.85473633 203.30249023 C-395.41293926 201.36950176 -393.95132667 199.45301047 -392.484375 197.5390625 C-392.0394873 196.95237793 -391.59459961 196.36569336 -391.13623047 195.76123047 C-373.06090448 171.9814473 -352.33340149 148.81666034 -329.484375 129.5390625 C-328.36428557 128.55781279 -327.2459808 127.57452428 -326.12890625 126.58984375 C-318.14704785 119.56979254 -310.03635322 112.86029027 -301.484375 106.5390625 C-300.81035645 106.03906738 -300.13633789 105.53907227 -299.44189453 105.02392578 C-267.79900421 81.63137324 -233.64538087 61.69311014 -196.89013672 47.47070312 C-194.68742116 46.61769292 -192.49355428 45.74535475 -190.30078125 44.8671875 C-179.58908838 40.64193833 -168.58345055 37.56832534 -157.484375 34.5390625 C-156.18472545 34.17639128 -154.88522897 33.81317073 -153.5859375 33.44921875 C-146.01215481 31.36768245 -138.38888435 29.54748904 -130.734375 27.7890625 C-129.76830322 27.56597412 -128.80223145 27.34288574 -127.80688477 27.11303711 C-126.44841431 26.80571655 -126.44841431 26.80571655 -125.0625 26.4921875 C-123.84675293 26.21616699 -123.84675293 26.21616699 -122.60644531 25.93457031 C-120.484375 25.5390625 -120.484375 25.5390625 -117.484375 25.5390625 C-118.98812556 29.53289464 -120.80334727 33.33936589 -122.65844727 37.17749023 C-129.63098426 50.29856368 -129.63098426 50.29856368 -132.484375 64.5390625 C-131.65035156 63.57226562 -130.81632812 62.60546875 -129.95703125 61.609375 C-124.25720358 55.01167581 -118.54739157 48.43019205 -112.6796875 41.98046875 C-111.44266077 40.60477176 -110.21214083 39.22293843 -109.00488281 37.82104492 C-82.90721581 7.55153347 -41.36073162 -25.89703466 0 0 Z " fill="#FEFEFE" transform="translate(535.484375,119.4609375)"/>
<path d="M0 0 C6.92231819 12.209717 13.51400905 24.58588002 20.0612793 36.99911499 C24.77217152 45.92919218 29.51154661 54.83919484 34.375 63.6875 C38.86185624 71.85183083 43.19898282 80.08562454 47.47949219 88.35986328 C51.5758109 96.2541202 55.82547338 104.05878912 60.16796875 111.8203125 C60.64105469 112.67496094 61.11414063 113.52960938 61.6015625 114.41015625 C62.22538818 115.52596069 62.22538818 115.52596069 62.86181641 116.66430664 C64.182198 119.3738928 65.09967686 122.12656775 66 125 C66.73710205 124.73896484 67.4742041 124.47792969 68.23364258 124.20898438 C101.76739539 112.3775035 136.17464866 101.19396022 171.63671875 96.92260742 C178.13810196 96.0883379 181.62214975 93.6432484 185.9375 88.875 C191.59959758 83.08056625 198.04242246 79.05518033 205 75 C205.73605469 74.566875 206.47210938 74.13375 207.23046875 73.6875 C232.93306713 60.55403656 271.8486179 63.2290765 298.5 71.3125 C312.75557943 75.99325234 324.98762468 82.9131203 333 96 C333 96.66 333 97.32 333 98 C333.84304688 98.06058594 334.68609375 98.12117188 335.5546875 98.18359375 C337.19824219 98.30927734 337.19824219 98.30927734 338.875 98.4375 C340.51082031 98.55931641 340.51082031 98.55931641 342.1796875 98.68359375 C345 99 345 99 347 100 C347.40726318 98.93640259 347.40726318 98.93640259 347.82275391 97.85131836 C349.02584557 94.93740141 350.38643808 92.17810886 351.8359375 89.37890625 C352.39933838 88.29013184 352.96273926 87.20135742 353.54321289 86.07958984 C354.14770264 84.9189502 354.75219238 83.75831055 355.375 82.5625 C355.68645966 81.96286438 355.99791931 81.36322876 356.31881714 80.74542236 C360.945113 71.84123853 365.68722223 63.00588224 370.52661133 54.21557617 C374.3104725 47.3218639 377.95408867 40.3619401 381.5625 33.375 C385.70137177 25.36568351 389.90631828 17.40034489 394.25 9.5 C394.71607666 8.65099121 395.18215332 7.80198242 395.66235352 6.92724609 C398.86797588 1.13202412 398.86797588 1.13202412 400 0 C405.45709332 -0.3301102 410.04237088 0.5356097 415.24609375 1.94921875 C416.03703934 2.1576944 416.82798492 2.36617004 417.64289856 2.58096313 C420.24427416 3.271868 422.84111904 3.97806925 425.4375 4.6875 C426.33859497 4.93164642 427.23968994 5.17579285 428.16809082 5.42733765 C504.02444062 26.04293972 584.7934615 56.25216142 650 101 C649.50771305 106.24568057 647.53837137 109.98258307 644.8125 114.375 C643.89497604 115.89401375 642.9783611 117.41357683 642.0625 118.93359375 C641.32 120.15731689 641.32 120.15731689 640.5625 121.40576172 C637.76292444 126.05393201 635.04157716 130.74771178 632.3125 135.4375 C631.72243164 136.44941406 631.13236328 137.46132812 630.52441406 138.50390625 C623.64225415 150.31243801 616.82151006 162.15636842 610 174 C602.12419276 187.6741218 594.23144154 201.33736974 586.26928711 214.96142578 C581.98755083 222.29312479 577.73779993 229.64282981 573.5 237 C568.1208592 246.33863207 562.70740553 255.65640317 557.26953125 264.9609375 C552.98777878 272.29283723 548.73789061 279.64267238 544.5 287 C539.1208592 296.33863207 533.70740553 305.65640317 528.26953125 314.9609375 C523.98777878 322.29283723 519.73789061 329.64267238 515.5 337 C510.1208592 346.33863207 504.70740553 355.65640317 499.26953125 364.9609375 C494.98777878 372.29283723 490.73789061 379.64267238 486.5 387 C481.1208592 396.33863207 475.70740553 405.65640317 470.26953125 414.9609375 C465.98777878 422.29283723 461.73789061 429.64267238 457.5 437 C452.1208592 446.33863207 446.70740553 455.65640317 441.26953125 464.9609375 C436.98777878 472.29283723 432.73789061 479.64267238 428.5 487 C423.69148156 495.34798459 418.86094317 503.68243184 414 512 C406.61585107 524.63743454 399.30509865 537.31675298 392 550 C384.12419276 563.6741218 376.23144154 577.33736974 368.26928711 590.96142578 C363.98755083 598.29312479 359.73779993 605.64282981 355.5 613 C350.1208592 622.33863207 344.70740553 631.65640317 339.26953125 640.9609375 C334.98777878 648.29283723 330.73789061 655.64267238 326.5 663 C321.1208592 672.33863207 315.70740553 681.65640317 310.26953125 690.9609375 C305.98777878 698.29283723 301.73789061 705.64267238 297.5 713 C292.1208592 722.33863207 286.70740553 731.65640317 281.26953125 740.9609375 C276.98777878 748.29283723 272.73789061 755.64267238 268.5 763 C263.1208592 772.33863207 257.70740553 781.65640317 252.26953125 790.9609375 C247.98777878 798.29283723 243.73789061 805.64267238 239.5 813 C234.12967691 822.32332379 228.73539409 831.63200179 223.29150391 840.91259766 C220.48038651 845.71263045 217.69386111 850.52416199 214.965271 855.371521 C213.60424109 857.78899953 212.23591106 860.20231682 210.86767578 862.61572266 C209.89490745 864.33971887 208.93365389 866.07019617 207.97265625 867.80078125 C207.08513672 869.36505859 207.08513672 869.36505859 206.1796875 870.9609375 C205.66132324 871.88696777 205.14295898 872.81299805 204.60888672 873.76708984 C202.90484311 876.13206448 201.69225766 876.97608092 199 878 C190.91932922 865.24648125 183.51483955 852.09084309 176 839 C168.43547563 825.82560871 160.83366888 812.67882271 153.0625 799.625 C146.88017668 789.23815537 140.83934117 778.77983848 134.86181641 768.27441406 C130.03611628 759.79559317 125.14521851 751.35709206 120.21826172 742.93676758 C115.95093777 735.64045426 111.7183643 728.32471803 107.5 721 C102.12388634 711.66644047 96.71368563 702.35360425 91.27832031 693.05444336 C86.27037635 684.47978691 81.30793079 675.87926861 76.35717773 667.27148438 C73.54201134 662.38227887 70.71584536 657.50143734 67.83203125 652.65234375 C67.35926758 651.85691162 66.88650391 651.06147949 66.39941406 650.24194336 C65.53427489 648.79114478 64.66537628 647.34257863 63.79199219 645.89672852 C61 641.21791331 61 641.21791331 61 639 C59.92238403 639.40726318 59.92238403 639.40726318 58.82299805 639.82275391 C40.50704293 646.72611174 22.39210406 653.51345271 3.25 657.75 C2.3518457 657.94891846 1.45369141 658.14783691 0.52832031 658.3527832 C-12.89687222 661.18226998 -26.01071879 662.38448407 -39.6875 662.3125 C-40.42978851 662.31034485 -41.17207703 662.3081897 -41.93685913 662.30596924 C-93.89524696 662.06479187 -137.98493453 637.6882981 -177 605 C-177.51755859 604.56880859 -178.03511719 604.13761719 -178.56835938 603.69335938 C-193.3056797 591.38584814 -207.03615245 578.04893371 -220.625 564.5 C-221.14028259 563.98739624 -221.65556519 563.47479248 -222.1864624 562.94665527 C-227.48512371 557.66894901 -232.71440454 552.37669077 -237.52685547 546.64477539 C-239.07477054 544.91651821 -240.75257034 543.46072833 -242.5 541.9375 C-245 539 -245 539 -244.94921875 536.01171875 C-243.94392505 530.66665164 -241.54140029 525.80018198 -239.3125 520.875 C-238.82773193 519.79114014 -238.34296387 518.70728027 -237.84350586 517.59057617 C-228.80246214 497.53758401 -219.18956461 477.83020785 -208.45458984 458.62402344 C-206.98452409 455.97208207 -205.54465847 453.30581386 -204.11328125 450.6328125 C-189.85566718 424.04506455 -174.50332298 397.19521791 -156.09667969 373.23583984 C-153.73040426 370.43959336 -153.73040426 370.43959336 -153 367 C-154.62390477 365.61490475 -156.30140333 364.29241051 -158 363 C-164.18907523 358.04873981 -172.3959772 351.1734397 -174 343 C-173.04431562 340.083159 -171.51185623 337.56095023 -169.9375 334.9375 C-169.48576416 334.15745605 -169.03402832 333.37741211 -168.56860352 332.57373047 C-160.98623795 319.65049689 -153.01354619 306.86121368 -143.31640625 295.41015625 C-142.88199219 294.61480469 -142.44757813 293.81945312 -142 293 C-143.15861686 289.37027658 -144.94426713 286.13254131 -146.80078125 282.81640625 C-147.35886475 281.81810791 -147.91694824 280.81980957 -148.49194336 279.79125977 C-149.3931189 278.19302368 -149.3931189 278.19302368 -150.3125 276.5625 C-150.93842041 275.44866943 -151.56434082 274.33483887 -152.20922852 273.18725586 C-156.7200195 265.19186038 -161.34012926 257.26723808 -166.03466797 249.37866211 C-170.22841123 242.32784443 -174.34622047 235.23572056 -178.4375 228.125 C-183.2656729 219.73460397 -188.11477902 211.35731589 -193 203 C-197.83684993 194.72227937 -202.64862008 186.43056809 -207.4375 178.125 C-208.37251343 176.50356079 -208.37251343 176.50356079 -209.32641602 174.84936523 C-212.46116816 169.41096863 -215.59200536 163.97034791 -218.71875 158.52734375 C-225.96305814 145.92776163 -233.29040499 133.3823392 -240.72241211 120.89282227 C-241.95512146 118.82122284 -243.18387422 116.74726129 -244.40771484 114.67041016 C-245.37324313 113.0511295 -246.3580849 111.44288032 -247.37744141 109.85693359 C-248.98807783 107.29878296 -249.97233079 105.38398085 -250.19140625 102.34375 C-248.37020293 98.76105493 -245.35002815 97.34980693 -241.9375 95.5 C-241.18436523 95.07549561 -240.43123047 94.65099121 -239.65527344 94.21362305 C-237.113616 92.79001851 -234.55791438 91.39415953 -232 90 C-230.18350246 88.99625894 -228.36709856 87.9923484 -226.55078125 86.98828125 C-220.3953958 83.60555873 -214.20177177 80.29672648 -208 77 C-206.89640137 76.41057617 -205.79280273 75.82115234 -204.65576172 75.21386719 C-147.9513758 45.02241554 -87.7939827 21.6221557 -25.8125 4.8125 C-24.91929047 4.56790039 -24.02608093 4.32330078 -23.10580444 4.07128906 C-20.55886168 3.37699214 -18.008787 2.69589814 -15.45703125 2.01953125 C-14.70430939 1.81387039 -13.95158752 1.60820953 -13.17605591 1.39631653 C-8.64724703 0.21835469 -4.6799327 -0.19879428 0 0 Z M-44.26171875 31.4921875 C-48.73557343 32.92959253 -53.235582 34.2591288 -57.75 35.5625 C-67.59344042 38.41927497 -77.37861433 41.51598853 -86.94116211 45.21704102 C-89.23970466 46.09115769 -91.55229105 46.92015624 -93.8671875 47.75 C-138.61904816 64.01097579 -181.45907697 84.83695864 -223 108 C-221.73577908 112.13489783 -220.19522439 115.6993981 -218.015625 119.4296875 C-217.4175 120.45964844 -216.819375 121.48960938 -216.203125 122.55078125 C-215.55859375 123.64777344 -214.9140625 124.74476562 -214.25 125.875 C-213.57241378 127.03746744 -212.89533873 128.20023297 -212.21875 129.36328125 C-210.48455261 132.3414967 -208.74407437 135.31598625 -207.00170898 138.28942871 C-205.4718065 140.90197118 -203.94688494 143.51741191 -202.421875 146.1328125 C-200.70556027 149.0760422 -198.98887303 152.01904698 -197.27026367 154.9609375 C-189.82695834 167.70599484 -182.47085669 180.50139772 -175.10449219 193.29101562 C-168.43043688 204.87681766 -161.74535916 216.45553353 -155 228 C-149.53796523 237.34809783 -144.1015501 246.71059443 -138.7109375 256.10009766 C-135.76154373 261.23448519 -132.79745838 266.35818835 -129.77220154 271.44821167 C-128.35014936 273.84271608 -126.93707651 276.24246069 -125.52462769 278.64263916 C-124.51934363 280.34229529 -123.50112121 282.03427754 -122.48266602 283.72607422 C-121.87994873 284.7523291 -121.27723145 285.77858398 -120.65625 286.8359375 C-120.11806641 287.73876465 -119.57988281 288.6415918 -119.02539062 289.57177734 C-118 292 -118 292 -118.1809082 294.10058594 C-119.07078527 296.16414586 -120.09007923 297.76438777 -121.44921875 299.5546875 C-122.21709717 300.58493042 -122.21709717 300.58493042 -123.00048828 301.63598633 C-123.55720215 302.37486084 -124.11391602 303.11373535 -124.6875 303.875 C-132.34130751 314.23275049 -139.24173644 325.04194176 -146 336 C-146.84884766 337.31871094 -146.84884766 337.31871094 -147.71484375 338.6640625 C-149.28311486 340.87888711 -149.28311486 340.87888711 -148.4609375 343.04296875 C-142.55411402 350.95558523 -133.839883 356.81551962 -125 361 C-124.01 361 -123.02 361 -122 361 C-122.61101562 361.77214844 -123.22203125 362.54429687 -123.8515625 363.33984375 C-152.11090359 399.75081552 -175.46186415 440.37268941 -197 481 C-197.58168945 482.09489746 -198.16337891 483.18979492 -198.76269531 484.31787109 C-205.06541251 496.21676101 -211.2403357 508.17250479 -216.9375 520.375 C-217.36893311 521.27814941 -217.80036621 522.18129883 -218.24487305 523.11181641 C-218.81782104 524.36744385 -218.81782104 524.36744385 -219.40234375 525.6484375 C-219.73741943 526.37208496 -220.07249512 527.09573242 -220.41772461 527.84130859 C-221.20567198 530.76249547 -221.05774168 532.14000265 -220 535 C-218.07832821 537.27488655 -216.18579975 539.30395056 -214.05859375 541.3671875 C-213.45749283 541.96500031 -212.85639191 542.56281311 -212.23707581 543.17874146 C-210.31305683 545.08703505 -208.37534751 546.98076189 -206.4375 548.875 C-205.15994481 550.14105736 -203.88324273 551.4079762 -202.60742188 552.67578125 C-197.11631437 558.11293512 -191.61274888 563.49370502 -185.72924805 568.50927734 C-182.61757091 571.19174248 -179.66895517 574.04975405 -176.6875 576.875 C-170.66412292 582.53309803 -164.47473796 587.86089788 -158 593 C-156.83727428 593.95288269 -155.67589641 594.90741161 -154.515625 595.86328125 C-146.02152954 602.8238445 -137.27963525 609.13070389 -128 615 C-127.40251953 615.3825293 -126.80503906 615.76505859 -126.18945312 616.15917969 C-111.87679787 625.27359044 -96.32028245 633.2267561 -80 638 C-79.35772461 638.19464844 -78.71544922 638.38929688 -78.05371094 638.58984375 C-65.95051781 642.09868041 -53.81776819 642.39546837 -41.3125 642.4375 C-40.53429901 642.4436734 -39.75609802 642.4498468 -38.95431519 642.45620728 C-27.65203545 642.5137968 -17.05989634 641.28268379 -6 639 C-5.08645752 638.82799072 -4.17291504 638.65598145 -3.23168945 638.47875977 C18.76700016 634.28226433 40.81456276 625.81752683 61.0144043 616.23510742 C63.88938928 614.87365819 65.77069061 614 69 614 C69.41137207 614.72251953 69.82274414 615.44503906 70.24658203 616.18945312 C78.02766251 629.84894899 85.83876716 643.4881392 93.77783203 657.05664062 C98.04653955 664.35510406 102.28036097 671.67306854 106.5 679 C111.88037582 688.34095912 117.29439161 697.66145933 122.73486328 706.9675293 C126.97830095 714.23205189 131.18122717 721.51921992 135.375 728.8125 C140.49278664 737.7090132 145.68657582 746.55646839 150.9375 755.375 C157.11607399 765.75530497 163.15275298 776.20731338 169.12719727 786.70581055 C178.91555007 803.90204478 188.94957473 820.95596084 199 838 C202.94209538 836.68596821 203.30057532 835.21143347 205.30078125 831.62109375 C205.94088135 830.48462402 206.58098145 829.3481543 207.24047852 828.17724609 C207.57782013 827.56838562 207.91516174 826.95952515 208.26272583 826.33221436 C209.68551984 823.76424468 211.12797827 821.20750864 212.56907654 818.64978027 C213.30759806 817.33829734 214.04502577 816.02619789 214.78138733 814.71350098 C218.14080362 808.72748783 221.58877156 802.7953677 225.0625 796.875 C229.90552247 788.60072814 234.71528346 780.30812538 239.5 772 C244.87906155 762.66132259 250.29259477 753.34359631 255.73046875 744.0390625 C260.01222122 736.70716277 264.26210939 729.35732762 268.5 722 C273.8791408 712.66136793 279.29259447 703.34359683 284.73046875 694.0390625 C289.01222122 686.70716277 293.26210939 679.35732762 297.5 672 C302.8791408 662.66136793 308.29259447 653.34359683 313.73046875 644.0390625 C318.01222122 636.70716277 322.26210939 629.35732762 326.5 622 C331.8791408 612.66136793 337.29259447 603.34359683 342.73046875 594.0390625 C347.01222122 586.70716277 351.26210939 579.35732762 355.5 572 C360.8791408 562.66136793 366.29259447 553.34359683 371.73046875 544.0390625 C376.01222122 536.70716277 380.26210939 529.35732762 384.5 522 C389.8791408 512.66136793 395.29259447 503.34359683 400.73046875 494.0390625 C405.01222122 486.70716277 409.26210939 479.35732762 413.5 472 C418.8791408 462.66136793 424.29259447 453.34359683 429.73046875 444.0390625 C434.01222122 436.70716277 438.26210939 429.35732762 442.5 422 C447.8791408 412.66136793 453.29259447 403.34359683 458.73046875 394.0390625 C463.01222122 386.70716277 467.26210939 379.35732762 471.5 372 C476.8791408 362.66136793 482.29259447 353.34359683 487.73046875 344.0390625 C492.01222122 336.70716277 496.26210939 329.35732762 500.5 322 C505.8791408 312.66136793 511.29259447 303.34359683 516.73046875 294.0390625 C521.01222122 286.70716277 525.26210939 279.35732762 529.5 272 C534.8791408 262.66136793 540.29259447 253.34359683 545.73046875 244.0390625 C550.01222122 236.70716277 554.26210939 229.35732762 558.5 222 C563.8791408 212.66136793 569.29259447 203.34359683 574.73046875 194.0390625 C579.01222146 186.70716236 583.26204691 179.35729193 587.5 172 C591.75831085 164.6085261 596.02526625 157.22241912 600.32421875 149.85449219 C601.47329664 147.88492105 602.62046653 145.91423538 603.765625 143.94238281 C606.81537492 138.6995347 609.90862546 133.48802804 613.05859375 128.3046875 C613.71786865 127.20785645 614.37714355 126.11102539 615.05639648 124.98095703 C616.32793545 122.86720918 617.61214728 120.76102033 618.91040039 118.66357422 C619.47621826 117.71756348 620.04203613 116.77155273 620.625 115.796875 C621.13289062 114.96510742 621.64078125 114.13333984 622.1640625 113.27636719 C623.22451623 111.05117764 623.22451623 111.05117764 622.46435547 108.89013672 C620.56756224 106.44182509 618.68596008 105.40813946 615.9453125 103.9609375 C614.87482666 103.38996338 613.80434082 102.81898926 612.70141602 102.23071289 C611.50966176 101.61140163 610.31750931 100.99285613 609.125 100.375 C607.87209695 99.71712955 606.61941678 99.05883449 605.36694336 98.40014648 C601.96438239 96.61751099 598.55182116 94.85490736 595.13555908 93.09869385 C593.00380935 92.00195982 590.87456423 90.90048021 588.74560547 89.79833984 C562.15227268 76.05967036 535.01054774 63.58192119 507 53 C504.85401254 52.16706365 502.70818345 51.33371919 500.5625 50.5 C488.53970537 45.88224533 476.37515276 41.71645993 464.125 37.75 C463.40519958 37.5168811 462.68539917 37.28376221 461.94378662 37.0435791 C451.42412668 33.64790685 440.86725397 30.39340915 430.2387085 27.35461426 C428.83698083 26.95365806 427.43612622 26.54963622 426.03619385 26.14245605 C424.09227025 25.57917428 422.14387304 25.03140071 420.1953125 24.484375 C419.09203613 24.17209961 417.98875977 23.85982422 416.85205078 23.53808594 C413.28988492 22.84401139 413.28988492 22.84401139 410 24 C408.32430887 26.22519115 408.32430887 26.22519115 406.92578125 29.09765625 C406.34957031 30.19271484 405.77335938 31.28777344 405.1796875 32.41601562 C404.55716927 33.63144774 403.93477726 34.8469445 403.3125 36.0625 C402.65373018 37.32429252 401.99354502 38.585347 401.33203125 39.84570312 C399.93077249 42.51909954 398.53648905 45.19597078 397.14697266 47.87548828 C393.9975902 53.93918191 390.77918332 59.96614696 387.56661987 65.996521 C386.14172994 68.6729544 384.72040245 71.35127266 383.29896545 74.02954102 C378.79881178 82.5075212 374.28015292 90.97551624 369.75 99.4375 C368.83831055 101.14196289 368.83831055 101.14196289 367.90820312 102.88085938 C364.65621758 108.94952532 361.3678931 114.99482003 358 121 C351.42937529 120.54862528 345.0323293 119.70217886 338.5625 118.5 C331.72315449 117.231424 324.95310052 116.38851621 318 116 C317.938125 114.5459375 317.938125 114.5459375 317.875 113.0625 C316.97650874 107.06446374 313.52042889 102.28801229 309.09375 98.26953125 C288.68946479 83.4611974 257.50663655 84.0560349 233.625 86.75 C220.24815647 88.9167778 208.91755476 94.22360888 199.94287109 104.47192383 C190.06856378 115.68901192 190.06856378 115.68901192 182.9152832 116.69360352 C180.07233822 116.85927471 177.23904997 116.90519338 174.39160156 116.91015625 C169.78358955 117.08326246 165.27896231 117.98918951 160.75 118.8125 C159.77844971 118.98442871 158.80689941 119.15635742 157.8059082 119.33349609 C143.66496716 121.8913858 129.7651026 125.23102131 116.1015625 129.68359375 C112.23125542 130.94282785 108.33192073 132.08966755 104.42602539 133.23291016 C95.77783486 135.77122073 87.33793713 138.55438889 79 142 C77.97519531 142.4228125 76.95039063 142.845625 75.89453125 143.28125 C73.88756594 144.11557778 71.88226252 144.95391817 69.87890625 145.796875 C65.60630793 147.58243848 61.30527649 149.29503431 57 151 C56.78085937 150.2265625 56.56171875 149.453125 56.3359375 148.65625 C54.5245912 143.69888118 52.09195284 139.15910586 49.625 134.5 C49.09261719 133.48679687 48.56023437 132.47359375 48.01171875 131.4296875 C43.91920178 123.66834943 39.72637257 115.96382929 35.50244141 108.2734375 C31.39280457 100.77271586 27.43504848 93.19888262 23.5 85.60546875 C19.60651778 78.11254333 15.58161352 70.6983583 11.51538086 63.2980957 C7.264455 55.53902266 3.15789311 47.70894632 -0.90429688 39.84960938 C-3.84062297 34.17706841 -6.86279125 28.56408999 -10 23 C-21.44966215 23 -33.43561784 28.00261999 -44.26171875 31.4921875 Z " fill="#FCFDFD" transform="translate(250,0)"/>
<path d="M0 0 C1.89013672 2.60668945 1.89013672 2.60668945 3.6796875 6.11328125 C4.00938538 6.74644257 4.33908325 7.37960388 4.67877197 8.0319519 C5.76042097 10.11752869 6.81732834 12.21467682 7.875 14.3125 C8.62295549 15.76374807 9.3728149 17.21401636 10.12451172 18.66333008 C11.66736098 21.64088726 13.20241358 24.62227131 14.73242188 27.60644531 C17.80819108 33.58769097 20.9897567 39.51134008 24.17974854 45.43222046 C26.22305379 49.22652499 28.25588042 53.02646979 30.29003906 56.82568359 C31.5121939 59.09445248 32.74259638 61.35722213 33.98339844 63.61572266 C34.30871552 64.21097244 34.63403259 64.80622223 34.96920776 65.41950989 C35.88006691 67.08504824 36.79513792 68.74828116 37.71044922 70.41137695 C39 73 39 73 39 75 C38.07960938 75.268125 37.15921875 75.53625 36.2109375 75.8125 C19.50594339 80.89363018 3.23976314 89.48417133 -6 105 C-11.21917256 115.33465296 -12.21052825 125.29724612 -11.51293945 136.72167969 C-10.58861549 154.14535536 -10.58861549 154.14535536 -14.5 159.015625 C-17.1448834 161.47650235 -20.10197453 163.30503154 -23.26904297 165.02294922 C-25.88236287 166.49805588 -28.08557968 168.38220444 -30.375 170.3125 C-31.73044922 171.42238281 -31.73044922 171.42238281 -33.11328125 172.5546875 C-48.63232528 185.70072479 -62.68413597 200.57840581 -77 215 C-79.65565787 212.60030318 -81.27998553 210.03555811 -83.046875 206.93359375 C-83.63670166 205.90411621 -84.22652832 204.87463867 -84.83422852 203.81396484 C-85.7825354 202.14261475 -85.7825354 202.14261475 -86.75 200.4375 C-87.41867512 199.2674468 -88.08787351 198.0976925 -88.75756836 196.92822266 C-90.14953254 194.49645633 -91.53923202 192.06341756 -92.92724609 189.62939453 C-96.12019395 184.03377343 -99.34176084 178.45465587 -102.5625 172.875 C-103.18286133 171.79919678 -103.80322266 170.72339355 -104.44238281 169.61499023 C-109.17841184 161.40714837 -113.94930874 153.22004303 -118.73071289 145.03857422 C-123.01244989 137.70687397 -127.2620126 130.35706309 -131.5 123 C-136.37999406 114.53242464 -141.26911222 106.07034471 -146.1875 97.625 C-147.04045654 96.16006104 -147.04045654 96.16006104 -147.91064453 94.66552734 C-150.75361744 89.7973337 -153.62434627 84.94826344 -156.54296875 80.125 C-157.10411377 79.1973584 -157.66525879 78.2697168 -158.2434082 77.31396484 C-159.30665198 75.56167291 -160.3740017 73.81186375 -161.44604492 72.06494141 C-161.91502197 71.29327637 -162.38399902 70.52161133 -162.8671875 69.7265625 C-163.28081543 69.05189941 -163.69444336 68.37723633 -164.12060547 67.68212891 C-165 66 -165 66 -165 64 C-149.65499535 55.62827948 -133.91338709 48.22055537 -118 41 C-116.21674316 40.18982422 -116.21674316 40.18982422 -114.39746094 39.36328125 C-97.76576264 31.82953692 -81.1173913 24.39983253 -63.67578125 18.921875 C-61.03426091 18.01180376 -58.50384132 16.92802228 -55.9440918 15.81201172 C-52.27116452 14.27789692 -48.50884247 12.99331966 -44.75 11.6875 C-43.88391113 11.38553711 -43.01782227 11.08357422 -42.12548828 10.77246094 C-33.79896389 7.89188467 -25.41434933 5.21469908 -16.99414062 2.62255859 C-15.24507959 2.07651236 -13.50454136 1.5033199 -11.765625 0.92578125 C-10.45851562 0.49845703 -10.45851562 0.49845703 -9.125 0.0625 C-8.07699219 -0.29134766 -8.07699219 -0.29134766 -7.0078125 -0.65234375 C-4.25427297 -1.12912394 -2.66024378 -0.92315546 0 0 Z " fill="#FC4F00" transform="translate(227,54)"/>
<path d="M0 0 C10.24374961 2.28389144 20.15717244 5.50864047 30.12329102 8.76831055 C32.89836382 9.67471717 35.67650853 10.57117596 38.45507812 11.46679688 C70.42694449 21.84249087 101.40544642 34.96968915 131.8125 49.25 C132.51294434 49.57762329 133.21338867 49.90524658 133.93505859 50.24279785 C143.79282795 54.86167156 153.44052088 59.79215342 163 65 C162.41086447 68.97510033 161.17954805 71.80697025 159.1484375 75.26171875 C158.55216553 76.28475098 157.95589355 77.3077832 157.34155273 78.36181641 C156.36810913 80.00802979 156.36810913 80.00802979 155.375 81.6875 C154.69595025 82.8477084 154.01765913 84.00836111 153.34008789 85.16943359 C151.93127575 87.58227311 150.5192137 89.99316635 149.10498047 92.40283203 C145.84912115 97.95760401 142.64731991 103.5435503 139.4375 109.125 C134.39764047 117.86739666 129.33418368 126.59580699 124.25 135.3125 C123.66532959 136.31490723 123.08065918 137.31731445 122.47827148 138.35009766 C120.00775016 142.58057758 117.52638594 146.80256359 115 151 C109.97107224 150.4401389 106.28077923 148.06258747 102 145.5625 C82.45336297 134.48235373 61.88965942 126.14292668 41 118 C39.027322 117.22792016 37.05466365 116.4557901 35.08203125 115.68359375 C31.05863702 114.11203262 27.0312407 112.55131756 23 111 C24.9967645 105.82147525 27.49436135 100.94533944 30 96 C28.94643311 95.7512915 28.94643311 95.7512915 27.87158203 95.49755859 C19.75994738 93.53226629 11.82855038 91.14781222 3.875 88.625 C-8.43337817 84.75452864 -20.76421476 81.03087726 -33.29296875 77.93359375 C-37 77 -37 77 -40 76 C-38.72447253 71.87684512 -37.18067619 68.20379836 -35.12109375 64.4140625 C-34.5377124 63.33366699 -33.95433105 62.25327148 -33.35327148 61.14013672 C-32.71472881 59.96839842 -32.07613696 58.79668691 -31.4375 57.625 C-30.43136292 55.76698335 -29.42695516 53.90803929 -28.42274475 52.04898071 C-27.71763726 50.74367184 -27.01201042 49.4386434 -26.30589294 48.13388062 C-23.65648415 43.23340213 -21.03983577 38.31624316 -18.4375 33.390625 C-18.06077652 32.6781662 -17.68405304 31.9657074 -17.2959137 31.23165894 C-15.81655177 28.43327944 -14.33744884 25.63477672 -12.86300659 22.83380127 C-8.78536897 15.0901861 -4.61886367 7.43950213 0 0 Z " fill="#FC4F00" transform="translate(674,53)"/>
<path d="M0 0 C2.57534874 9.02427529 5.08887973 18.05380504 7.25 27.1875 C7.41274414 27.86868896 7.57548828 28.54987793 7.74316406 29.25170898 C8.7283193 33.48986356 9.44105067 37.69050064 10 42 C6.08334973 42.02953391 2.16672887 42.04697503 -1.75 42.0625 C-2.84183594 42.07087891 -3.93367188 42.07925781 -5.05859375 42.08789062 C-12.4247337 42.10968394 -19.67078775 41.7350759 -27 41 C-27.12246094 42.23621094 -27.24492187 43.47242188 -27.37109375 44.74609375 C-28.01742575 50.56308176 -29.03411659 56.30282614 -30.0625 62.0625 C-30.24876953 63.11888672 -30.43503906 64.17527344 -30.62695312 65.26367188 C-31.08211204 67.8429057 -31.53984373 70.4216539 -32 73 C-35.43617708 73.83885377 -38.87414337 74.67012919 -42.3125 75.5 C-43.77719727 75.85771484 -43.77719727 75.85771484 -45.27148438 76.22265625 C-46.20927734 76.44824219 -47.14707031 76.67382812 -48.11328125 76.90625 C-48.97735596 77.11572266 -49.84143066 77.32519531 -50.73168945 77.54101562 C-53 78 -53 78 -56 78 C-56.15855469 78.76441406 -56.31710937 79.52882813 -56.48046875 80.31640625 C-58.39738643 89.11728243 -61.0280412 97.50701103 -64 106 C-63.5875 105.33355469 -63.175 104.66710937 -62.75 103.98046875 C-61.53065322 102.03441306 -60.29212263 100.10030188 -59.0390625 98.17578125 C-57.70829286 96.10314577 -56.42895591 93.99630897 -55.2109375 91.85546875 C-50.70498925 84.54049319 -50.70498925 84.54049319 -46.12890625 83.08984375 C-42.70332444 82.79214937 -39.43482152 82.84387175 -36 83 C-34.60935321 83.00066158 -33.21867967 82.99258272 -31.828125 82.9765625 C-28.21777553 82.93733333 -24.61040867 82.95505715 -21 83 C-20.443125 81.14375 -20.443125 81.14375 -19.875 79.25 C-18.53692079 75.19477617 -16.81709997 71.47754628 -14.8828125 67.671875 C-14.34285645 66.60549805 -13.80290039 65.53912109 -13.24658203 64.44042969 C-12.83520996 63.63508789 -12.42383789 62.82974609 -12 62 C19.11401495 60.80611597 19.11401495 60.80611597 34 61 C33.84112808 60.41993195 33.68225616 59.83986389 33.51856995 59.24221802 C32.69568989 55.68420909 32.63999872 52.06595322 32.46484375 48.4296875 C32.42186661 47.59341827 32.37888947 46.75714905 32.33460999 45.89553833 C32.24453016 44.1254415 32.15639622 42.35524472 32.07006836 40.58496094 C31.93898355 37.90532668 31.80105653 35.22611179 31.66210938 32.546875 C31.24644236 24.35803401 30.87210706 16.2022005 31 8 C31.66 8 32.32 8 33 8 C44.69212978 23.36267493 62.45122407 50.83975206 61 71 C59.82308594 71.21914063 58.64617187 71.43828125 57.43359375 71.6640625 C35.46842751 75.85037539 13.61317846 81.19045725 -7 90 C-7.58458984 90.24524414 -8.16917969 90.49048828 -8.77148438 90.74316406 C-40.49786636 104.11244045 -70.63416899 121.53496769 -96 145 C-97.14441338 141.56675987 -96.89761192 141.08625651 -95.55859375 137.89453125 C-95.22545166 137.08443604 -94.89230957 136.27434082 -94.54907227 135.43969727 C-94.18225342 134.57272217 -93.81543457 133.70574707 -93.4375 132.8125 C-92.68336606 130.98500553 -91.9307774 129.15687266 -91.1796875 127.328125 C-90.80553711 126.42126953 -90.43138672 125.51441406 -90.04589844 124.58007812 C-88.63626104 121.10270931 -87.34502324 117.58818153 -86.0625 114.0625 C-73.53788155 80.20857258 -57.23559884 49.1088589 -32 23 C-31.46487793 22.43716309 -30.92975586 21.87432617 -30.37841797 21.29443359 C-26.03230732 16.81402254 -21.36176143 12.99447634 -16.375 9.25 C-15.63765625 8.68667969 -14.9003125 8.12335938 -14.140625 7.54296875 C-4.1903258 0 -4.1903258 0 0 0 Z " fill="#F9FAFA" transform="translate(397,427)"/>
<path d="M0 0 C1.23621094 0.01804688 2.47242188 0.03609375 3.74609375 0.0546875 C5.14021484 0.08949219 5.14021484 0.08949219 6.5625 0.125 C5.881875 0.805625 5.20125 1.48625 4.5 2.1875 C4.03851563 2.65414062 3.57703125 3.12078125 3.1015625 3.6015625 C2.09613279 4.5967848 1.07046601 5.57207657 0.0234375 6.5234375 C-14.47237986 20.05744707 -22.85228543 38.43601277 -28.4375 57.125 C-37.2770853 56.51755947 -45.9077568 55.11619736 -54.625 53.5625 C-55.97193296 53.32576043 -57.31893785 53.08942974 -58.66601562 52.85351562 C-61.923904 52.28134168 -65.18101327 51.70508867 -68.4375 51.125 C-66.10619061 37.10173139 -48.70145774 22.87395253 -37.625 14.8125 C-26.53744781 7.03321674 -13.82221338 -0.26328025 0 0 Z " fill="#131B23" transform="translate(504.4375,138.875)"/>
<path d="M0 0 C0.89203125 0.00902344 1.7840625 0.01804687 2.703125 0.02734375 C3.37859375 0.03894531 4.0540625 0.05054688 4.75 0.0625 C5.19674108 8.28584513 4.24306076 14.08726245 -0.9375 20.75 C-6.91846864 27.33644941 -15.25888882 29.76016914 -23.92578125 30.28515625 C-33.65463283 30.58145461 -42.4937646 29.68161501 -51.25 25.0625 C-48.00076429 16.28560111 -33.74959515 10.41926791 -25.7578125 6.56640625 C-20.38325656 4.26217013 -14.89724028 2.55877734 -9.25 1.0625 C-8.24066406 0.76666016 -8.24066406 0.76666016 -7.2109375 0.46484375 C-4.77121732 -0.03573629 -2.48820932 -0.0327396 0 0 Z " fill="#F74E00" transform="translate(320.25,294.9375)"/>
<path d="M0 0 C0.66 0.33 1.32 0.66 2 1 C-0.68058098 4.57410797 -3.42589203 7.31941902 -7 10 C-7.66 9.67 -8.32 9.34 -9 9 C-6.03 6.03 -3.06 3.06 0 0 Z " fill="#D4D5D7" transform="translate(311,588)"/>
<path d="M0 0 C0.33 0.66 0.66 1.32 1 2 C1.66 2 2.32 2 3 2 C1.50163895 5.11198065 -0.19933758 8.0534615 -2 11 C-3 9 -3 9 -2.44140625 6.8359375 C-2.15136719 6.02382813 -1.86132812 5.21171875 -1.5625 4.375 C-1.27503906 3.55773437 -0.98757813 2.74046875 -0.69140625 1.8984375 C-0.46324219 1.27195312 -0.23507812 0.64546875 0 0 Z " fill="#575C62" transform="translate(335,523)"/>
<path d="M0 0 C2.05078125 0.03255208 4.1015625 0.06510417 6.15234375 0.09765625 C6.15234375 0.42765625 6.15234375 0.75765625 6.15234375 1.09765625 C5.07984375 1.36578125 4.00734375 1.63390625 2.90234375 1.91015625 C-0.41274553 2.95993452 -2.28643271 3.84377953 -4.84765625 6.09765625 C-2.55432956 0.13500685 -2.55432956 0.13500685 0 0 Z " fill="#B9BCBE" transform="translate(349.84765625,510.90234375)"/>
</svg>
