<?xml version="1.0" encoding="UTF-8"?>
<svg version="1.1" xmlns="http://www.w3.org/2000/svg" width="119" height="75">
<path d="M0 0 C0.23341328 6.30215855 -0.60522267 11.86486456 -2 18 C-2.28617188 19.30517578 -2.28617188 19.30517578 -2.578125 20.63671875 C-3.04466097 22.7594574 -3.52128463 24.87997481 -4 27 C-10.6386918 27.1144602 -16.47331014 26.30533797 -23 25 C-22.67 21.04 -22.34 17.08 -22 13 C-23.65 13.33 -25.3 13.66 -27 14 C-28.485 23.9 -28.485 23.9 -30 34 C-28.22625 33.175 -26.4525 32.35 -24.625 31.5 C-17.76245819 28.6399324 -12.01723935 27.71448341 -4.875 30 C-4.25625 30.33 -3.6375 30.66 -3 31 C-3.65306901 33.80454017 -4.51198806 36.4385943 -5.51171875 39.13671875 C-7.42660264 44.80018212 -7.68286138 50.39691927 -7.90820312 56.33398438 C-8.20408669 60.47967879 -8.37196171 62.37196171 -11.38671875 65.38671875 C-20.65501242 69.52488662 -29.22245303 70.47943982 -39.3125 70.375 C-40.45267578 70.38660156 -41.59285156 70.39820312 -42.76757812 70.41015625 C-53.39985017 70.37291537 -53.39985017 70.37291537 -58 67 C-59.24658899 63.26023303 -58.53215629 62.11008373 -57.125 58.5 C-56.57199219 57.06140625 -56.57199219 57.06140625 -56.0078125 55.59375 C-55.67523438 54.7378125 -55.34265625 53.881875 -55 53 C-54.67 52.01 -54.34 51.02 -54 50 C-54.7425 49.731875 -55.485 49.46375 -56.25 49.1875 C-58.89061949 48.04723249 -60.85552844 46.90619694 -63 45 C-63 44.34 -63 43.68 -63 43 C-61.86111328 42.61134766 -61.86111328 42.61134766 -60.69921875 42.21484375 C-55.83413657 40.15144314 -52.69774094 38.67223947 -50.6015625 33.6484375 C-49.36859887 27.6545252 -48.90459725 22.00733319 -49.1875 15.875 C-49.28848183 11.87136763 -49.24953561 11.31520288 -46.625 8 C-37.76817272 2.30459806 -26.61722811 2.14616019 -16.4375 1.3125 C-14.94978653 1.18259065 -13.46215511 1.051738 -11.97460938 0.91992188 C-1.49406822 0 -1.49406822 0 0 0 Z M-32 37 C-34.58007572 48.38371871 -34.58007572 48.38371871 -35 60 C-33.03733104 59.79795858 -33.03733104 59.79795858 -31 59 C-27.64958439 53.43753393 -26.77096735 45.38019523 -27 39 C-27.66 38.34 -28.32 37.68 -29 37 C-29.99 37 -30.98 37 -32 37 Z " fill="#FFFFFF" transform="translate(119,5)"/>
<path d="M0 0 C-0.69881448 4.59156951 -2.36893466 8.7008654 -4.125 12.96875 C-4.43195801 13.72667847 -4.73891602 14.48460693 -5.05517578 15.26550293 C-6.3629733 18.49427349 -7.68098407 21.71884798 -8.99804688 24.94384766 C-9.96057216 27.30489359 -10.9178944 29.66800303 -11.875 32.03125 C-12.17293457 32.75534058 -12.47086914 33.47943115 -12.77783203 34.22546387 C-16.96777735 44.57540878 -17.2062745 53.63453784 -13 64 C-16.03978161 63.08099626 -18.60851436 62.27569411 -21.21875 60.4375 C-24.78877782 58.59231708 -27.9012914 58.66653145 -31.8125 58.8125 C-32.50537109 58.82603516 -33.19824219 58.83957031 -33.91210938 58.85351562 C-35.60841265 58.88861155 -37.30431136 58.94241057 -39 59 C-38.95359375 57.38931641 -38.95359375 57.38931641 -38.90625 55.74609375 C-38.98655565 52.537214 -39.13313528 50.85318213 -40.5 48.0625 C-40.995 47.051875 -41.49 46.04125 -42 45 C-42.59167969 45.85464844 -43.18335937 46.70929687 -43.79296875 47.58984375 C-44.59040699 48.70625728 -45.38862529 49.82211392 -46.1875 50.9375 C-46.57486328 51.50146484 -46.96222656 52.06542969 -47.36132812 52.64648438 C-50.23799692 56.61676279 -50.87858013 56.97571603 -56 58 C-59.63 58 -63.26 58 -67 58 C-67 40.51 -67 23.02 -67 5 C-59 4 -59 4 -49 4 C-48.67 12.25 -48.34 20.5 -48 29 C-44.83415124 25.05871229 -44.83415124 25.05871229 -41.68823242 21.1015625 C-40.52411875 19.67836471 -39.26281419 18.33639549 -38 17 C-37.01 17 -36.02 17 -35 17 C-33.02 20.63 -31.04 24.26 -29 28 C-28.31292969 26.13472656 -27.62585937 24.26945312 -26.91796875 22.34765625 C-26.00841209 19.91904619 -25.09822316 17.49067287 -24.1875 15.0625 C-23.73568359 13.83080078 -23.28386719 12.59910156 -22.81835938 11.33007812 C-22.37685547 10.16025391 -21.93535156 8.99042969 -21.48046875 7.78515625 C-21.07723389 6.70113525 -20.67399902 5.61711426 -20.25854492 4.50024414 C-19 2 -19 2 -16 1 C-13.8369871 0.77422159 -11.66931194 0.59140389 -9.5 0.4375 C-8.3553125 0.35371094 -7.210625 0.26992187 -6.03125 0.18359375 C-4.02358116 0.06199525 -2.0113479 0 0 0 Z " fill="#FCFCFC" transform="translate(67,11)"/>
<path d="M0 0 C0.99 0 1.98 0 3 0 C3.33 2.64 3.66 5.28 4 8 C8.455 7.505 8.455 7.505 13 7 C12.67 8.32 12.34 9.64 12 11 C10.4840625 11.8353125 10.4840625 11.8353125 8.9375 12.6875 C5.80778275 14.62214001 5.80778275 14.62214001 5.60546875 17.25390625 C5.62327286 19.52927169 5.73926039 21.74025672 6 24 C2.8614943 23.25561083 -0.02009661 22.24162641 -3 21 C-4.11375 22.0209375 -4.11375 22.0209375 -5.25 23.0625 C-6.1575 23.701875 -7.065 24.34125 -8 25 C-9.32 24.67 -10.64 24.34 -12 24 C-10.68 21.36 -9.36 18.72 -8 16 C-8.825 15.401875 -9.65 14.80375 -10.5 14.1875 C-11.7375 13.1046875 -11.7375 13.1046875 -13 12 C-13 11.01 -13 10.02 -13 9 C-9.7 8.67 -6.4 8.34 -3 8 C-2.690625 7.05125 -2.38125 6.1025 -2.0625 5.125 C-1 2 -1 2 0 0 Z " fill="#F43E3E" transform="translate(33,0)"/>
</svg>
