<?xml version="1.0" encoding="UTF-8"?>
<svg version="1.1" xmlns="http://www.w3.org/2000/svg" width="205" height="235">
<path d="M0 0 C3.40808226 0.31864184 4.98029969 1.66799432 7.25 4.125 C9.56018951 6.60673823 11.97077602 8.85577853 14.54296875 11.05859375 C19.45016172 15.3168549 24.03680203 19.88618934 28.6184082 24.48803711 C30.06025221 25.93524385 31.50737116 27.37702026 32.95507812 28.81835938 C38.18144266 34.0404163 43.24108468 39.3467302 48 45 C48.72884399 45.86226196 48.72884399 45.86226196 49.47241211 46.74194336 C50.80076828 48.32256895 52.12092221 49.9095578 53.4375 51.5 C53.88287109 52.03625 54.32824219 52.5725 54.78710938 53.125 C55.85900904 54.41588992 56.92964897 55.70782572 58 57 C66.63645544 55.42606653 74.9734143 48.10715502 81 42 C81.33 41.34 81.66 40.68 82 40 C82.66 40 83.32 40 84 40 C84.25652344 39.44441406 84.51304687 38.88882813 84.77734375 38.31640625 C86.65836437 34.75268347 89.08330037 31.60001093 91.44140625 28.33984375 C93.14400881 26.00588292 93.14400881 26.00588292 94 23 C94.99 23 95.98 23 97 23 C99.38256388 31.16606751 100.52232142 38.68665721 100.4375 47.1875 C100.42920166 48.27611328 100.42090332 49.36472656 100.41235352 50.48632812 C100.10407504 65.34513146 96.25283671 78.51678141 89.96972656 91.92578125 C89.32491895 93.30500719 88.69905091 94.69325194 88.09277344 96.08984375 C84.90022977 103.31489446 81.6422079 108.87868574 74.21020508 112.16723633 C70.200657 113.67795857 66.12622751 114.85390573 62 116 C59.78085707 116.65361532 57.56212799 117.3086369 55.34375 117.96484375 C38.02123593 123 38.02123593 123 35 123 C34.68289062 122.1028125 34.36578125 121.205625 34.0390625 120.28125 C27.59114425 102.75327467 16.30564551 83.20339301 1 72 C-3.74406789 76.53947668 -7.96938175 81.22343541 -11.875 86.5 C-12.38748291 87.1906958 -12.89996582 87.8813916 -13.42797852 88.59301758 C-21.34807782 99.42812774 -27.71510357 110.23143929 -32 123 C-41.57289899 120.98003049 -50.90098342 118.53082617 -60.1875 115.4375 C-61.51334106 114.99845337 -61.51334106 114.99845337 -62.8659668 114.55053711 C-74.93281138 110.45129621 -79.9910611 105.12546112 -86 94 C-96.57310401 72.330371 -101.56460651 46.45928566 -94 23 C-93.01 23 -92.02 23 -91 23 C-90.75507812 23.51046875 -90.51015625 24.0209375 -90.2578125 24.546875 C-83.7629057 37.17834891 -74.53330618 46.03400739 -63 54 C-61.69482422 54.91072266 -61.69482422 54.91072266 -60.36328125 55.83984375 C-58.13254488 57.14949673 -58.13254488 57.14949673 -55.953125 57.00390625 C-53.10352954 55.53921418 -51.6888566 53.47265962 -49.75 50.9375 C-46.42046005 46.71280505 -43.01675926 42.84479156 -39.1171875 39.14453125 C-37.27747554 37.28105917 -35.58381231 35.37557116 -33.87890625 33.390625 C-29.49858758 28.34685115 -24.79500562 23.64870402 -20.0625 18.9375 C-19.20720703 18.07833984 -18.35191406 17.21917969 -17.47070312 16.33398438 C-12.97674078 11.84687781 -8.42114977 7.5022588 -3.59155273 3.37719727 C-2.34887861 2.30189051 -1.16200766 1.16200766 0 0 Z " fill="#FA293E" transform="translate(99,61)"/>
<path d="M0 0 C0.33 0 0.66 0 1 0 C1.31685891 9.1181209 1.58919768 18.23619354 1.8056488 27.35725403 C1.90755146 31.59317997 2.02442839 35.82755839 2.17626953 40.06201172 C2.32240245 44.15298711 2.42822856 48.24324954 2.50683594 52.33605957 C2.54368912 53.89286413 2.59476258 55.44940258 2.66064453 57.00524902 C3.16298385 69.19618261 3.16298385 69.19618261 0.28782654 73.65562439 C-1.70610104 75.64900914 -3.75870309 77.2979258 -6 79 C-8.11864664 81.4209713 -10.02973435 83.9731325 -11.9375 86.5625 C-12.44547119 87.24868408 -12.95344238 87.93486816 -13.47680664 88.6418457 C-21.36921811 99.46462638 -27.72351141 110.2564938 -32 123 C-41.57289899 120.98003049 -50.90098342 118.53082617 -60.1875 115.4375 C-61.51334106 114.99845337 -61.51334106 114.99845337 -62.8659668 114.55053711 C-74.93281138 110.45129621 -79.9910611 105.12546112 -86 94 C-96.57310401 72.330371 -101.56460651 46.45928566 -94 23 C-93.01 23 -92.02 23 -91 23 C-90.75507812 23.51046875 -90.51015625 24.0209375 -90.2578125 24.546875 C-83.7629057 37.17834891 -74.53330618 46.03400739 -63 54 C-61.69482422 54.91072266 -61.69482422 54.91072266 -60.36328125 55.83984375 C-58.13254488 57.14949673 -58.13254488 57.14949673 -55.953125 57.00390625 C-53.10352954 55.53921418 -51.6888566 53.47265962 -49.75 50.9375 C-46.42046005 46.71280505 -43.01675926 42.84479156 -39.1171875 39.14453125 C-37.27747554 37.28105917 -35.58381231 35.37557116 -33.87890625 33.390625 C-29.49858758 28.34685115 -24.79500562 23.64870402 -20.0625 18.9375 C-19.20720703 18.07833984 -18.35191406 17.21917969 -17.47070312 16.33398438 C-12.97674078 11.84687781 -8.42114977 7.5022588 -3.59155273 3.37719727 C-2.34887861 2.30189051 -1.16200766 1.16200766 0 0 Z " fill="#20ABF8" transform="translate(99,61)"/>
<path d="M0 0 C0.99 0 1.98 0 3 0 C4.98 6.27 6.96 12.54 9 19 C16.59 19.33 24.18 19.66 32 20 C27.5 25.625 27.5 25.625 24.765625 27.45703125 C23.90517578 28.04194336 23.90517578 28.04194336 23.02734375 28.63867188 C22.44082031 29.02603516 21.85429688 29.41339844 21.25 29.8125 C20.64800781 30.21919922 20.04601562 30.62589844 19.42578125 31.04492188 C17.95522809 32.0369617 16.47825841 33.01947888 15 34 C16.52463563 41.49612516 18.68006154 48.71359134 21 56 C17.87586715 55.39386998 15.86630076 54.39972557 13.328125 52.49609375 C12.66425781 52.00302734 12.00039062 51.50996094 11.31640625 51.00195312 C10.63449219 50.48568359 9.95257813 49.96941406 9.25 49.4375 C8.55261719 48.91736328 7.85523438 48.39722656 7.13671875 47.86132812 C5.42025444 46.57985819 3.70955569 45.29067202 2 44 C-5.56182294 48.569019 -5.56182294 48.569019 -12.5 54 C-13.325 54.66 -14.15 55.32 -15 56 C-15.99 55.67 -16.98 55.34 -18 55 C-17.81300537 54.47567383 -17.62601074 53.95134766 -17.43334961 53.41113281 C-16.59034082 51.02783443 -15.76380477 48.63913842 -14.9375 46.25 C-14.64294922 45.425 -14.34839844 44.6 -14.04492188 43.75 C-13.77099609 42.95078125 -13.49707031 42.1515625 -13.21484375 41.328125 C-12.82993774 40.22839355 -12.82993774 40.22839355 -12.43725586 39.10644531 C-11.92556158 36.64139884 -12.05029792 35.32661936 -13 33 C-15.28376199 31.17241297 -17.50802111 29.54350834 -19.9375 27.9375 C-26.76037282 23.35944077 -26.76037282 23.35944077 -29 20 C-21.41 19.67 -13.82 19.34 -6 19 C-4.02 12.73 -2.04 6.46 0 0 Z " fill="#FEFEFE" transform="translate(99,0)"/>
<path d="M0 0 C4.66761362 0.5520082 8.11026317 1.86261472 12.25 4.0625 C15.94045603 6.23482641 15.94045603 6.23482641 20 7 C20.66 4.69 21.32 2.38 22 0 C22.99 0 23.98 0 25 0 C25 4.29 25 8.58 25 13 C26.32 13.66 27.64 14.32 29 15 C31.90490775 16.67994665 34.80574623 18.36534615 37.69140625 20.078125 C41.36930254 22.21625126 44.91879334 23.80184759 49 25 C49 25.99 49 26.98 49 28 C40.91748964 30.08580912 33.33284744 30.16338917 25 30 C26.485 36.435 26.485 36.435 28 43 C24 42 24 42 22.515625 39.8203125 C22.09796875 38.93085938 21.6803125 38.04140625 21.25 37.125 C20.82203125 36.24070313 20.3940625 35.35640625 19.953125 34.4453125 C19 32 19 32 19 29 C17.4840625 29.061875 17.4840625 29.061875 15.9375 29.125 C13.12322582 28.7205193 12.12502234 28.12891308 10.1171875 26.05859375 C4.3164013 18.03542843 0.732301 9.88606348 0 0 Z " fill="#FEFEFE" transform="translate(34,192)"/>
<path d="M0 0 C2.05078257 2.67808077 3.93166487 5.41012829 5.75 8.25 C13.59095714 19.94466357 23.72777626 28.24407885 36 35 C35.34719189 39.0454321 33.28836591 42.01018955 31.125 45.4375 C30.42632812 46.54996094 29.72765625 47.66242188 29.0078125 48.80859375 C28.34523438 49.86175781 27.68265625 50.91492188 27 52 C25.99507828 53.66370373 24.99310257 55.32921424 24 57 C15.64137546 49.08053261 10.24263779 39.10023637 5.5625 28.6875 C5.2327417 27.95958252 4.9029834 27.23166504 4.56323242 26.48168945 C1.53980302 19.50022993 -0.31883786 12.59409548 -0.125 4.9375 C-0.10695313 3.99777344 -0.08890625 3.05804688 -0.0703125 2.08984375 C-0.04710937 1.40019531 -0.02390625 0.71054688 0 0 Z " fill="#1382C5" transform="translate(7,84)"/>
<path d="M0 0 C0.99 0.33 1.98 0.66 3 1 C2.67 1.66 2.34 2.32 2 3 C1.75480036 4.87297077 1.52901952 6.74849749 1.3125 8.625 C-1.37307423 26.31476069 -10.36146532 43.5277412 -22 57 C-25.19520646 53.12010645 -28.09199929 49.11643259 -30.875 44.9375 C-31.30296875 44.32583984 -31.7309375 43.71417969 -32.171875 43.08398438 C-35.10666981 38.64822424 -35.10666981 38.64822424 -34.64453125 35.83984375 C-32.35274789 33.27587709 -29.67771879 31.47776123 -26.8125 29.625 C-18.26935137 24.42489194 -18.26935137 24.42489194 -12 17 C-11.34 17 -10.68 17 -10 17 C-9.74347656 16.44441406 -9.48695313 15.88882813 -9.22265625 15.31640625 C-7.34163563 11.75268347 -4.91669963 8.60001093 -2.55859375 5.33984375 C-0.85599119 3.00588292 -0.85599119 3.00588292 0 0 Z " fill="#A81B23" transform="translate(193,84)"/>
<path d="M0 0 C-1.61415991 7.75584154 -3.61313834 14.36717024 -8 21 C-8.36867187 21.59941406 -8.73734375 22.19882813 -9.1171875 22.81640625 C-11.32293186 25.97290248 -13.1387919 27.05089036 -16.75 28.375 C-27.24694984 30.09811739 -38.74936958 29.8208123 -49 27 C-49 26.01 -49 25.02 -49 24 C-48.46632813 23.78085938 -47.93265625 23.56171875 -47.3828125 23.3359375 C-39.90123087 20.15173494 -33.12531307 16.14931634 -26.41796875 11.56640625 C-6.2058638 -2.23981751 -6.2058638 -2.23981751 0 0 Z " fill="#FEFEFE" transform="translate(164,193)"/>
<path d="M0 0 C3.00947682 2.00631788 4.50462948 3.46435138 5.625 6.9375 C6.23822702 10.31024864 6.14506595 12.65642274 4.8125 15.8125 C1.61405261 19.67269512 0.21358974 20.8651567 -4.9375 21.4375 C-9.02528187 21.29259728 -11.12399716 19.96315444 -14 17 C-15.72869779 13.54260443 -15.48966895 9.78024432 -15 6 C-11.13603811 -0.18233902 -6.96160688 -1.03402106 0 0 Z " fill="#FEFEFE" transform="translate(196,57)"/>
<path d="M0 0 C3.15237657 1.81093973 4.56641269 3.25107647 6.375 6.375 C7.16443985 9.69064735 6.95479302 11.72642391 6 15 C2.84745763 19.57627119 2.84745763 19.57627119 0 21 C-4.87706826 21.48770683 -7.10632868 21.46279408 -11.5 19.1875 C-14.22924681 16.5778914 -14.50262282 14.20254035 -14.6875 10.5 C-14.45264872 6.71685222 -14.07264478 5.11951238 -12.0625 1.8125 C-7.93138537 -0.63244539 -4.6886289 -0.9190053 0 0 Z " fill="#FEFEFE" transform="translate(14,57)"/>
</svg>
