<svg height="341.493888" viewBox="0 0 686.01822 799.99997" width="292.831009" xmlns="http://www.w3.org/2000/svg"><g transform="matrix(.52022343 0 0 .52022343 .025803 0)"><g><path d="m.05000937 0-.09960937 1101.0996c0 74.6999 20.899651 133.4008 62.099609 174.3008 39.699961 39.4 96.100471 59.6988 172.400391 61.7988 182.19982 5.1 290.80087 45.5017 374.80078 139.6016l50.04883 61 50.05078-61c83.99992-94.0999 192.59901-134.5016 374.79881-139.6016 76.2999-2.1 132.7004-22.3988 172.4004-61.7988 41.2-40.9 62.0996-99.6009 62.0996-174.3008l-.0996-1101.0996z" fill="#c88c28"/><path d="m32.849799 32.800781.09961 1068.298819c0 65.6999 17.600425 116.5 52.400391 151 34.49996 34.3 85.09927 50.5008 150.19921 52.3008 187.69981 5.3 306.00087 46.8997 398.80078 151.0996l24.94922 30.5996 24.95117-30.5996c92.79991-104.1999 211.09902-145.7996 398.79882-151.0996 65.0999-1.8 115.7012-18.0008 150.2012-52.3008 34.7999-34.5 52.3984-85.3001 52.3984-151l.1016-1068.298819z" fill="#fff"/></g><g><path d="m1253.3 65.3h-1187.9l-.1 422.5h1188z" fill="#f40043"/><g fill="#fff" transform="translate(-.09961)"><path d="m1190.1 241.1h-85.3v-123.5h84.7v21.4h-60.5v29h53.3v21.5h-53.3v30.4h61v21.2z"/><path d="m1138.5 437.1c-24.2 0-42.2-6.4-56.7-17.6l14.3-22.8c13.1 10.5 27.5 15.5 42.8 15.5 13 0 22.8-5.6 22.8-17.4s-8.3-16.8-30-22.8c-24.6-6.8-43.9-16.4-43.9-41.8s21.1-42.4 52.4-42.4c21.3 0 37.2 6 48.6 14.9l-13.1 21.5c-9.9-7.3-21.1-11.6-35.8-11.6-13.2 0-23.2 5-23.2 15.7s9.5 13.9 29.6 19.9c24.6 7.2 43.7 16.8 43.7 44.7s-20.4 44.2-51.5 44.2"/><path d="m1074.8 188c0 35.7-21.6 54.7-54.3 54.7s-54.3-19-54.3-54.7v-70.5h24.3v72.5c0 16.7 9.8 30.8 30.2 30.8s30.1-14.1 30.1-30.8v-72.4h24.1v70.4z"/><path d="m1057 435.3h-28.6v-145.6h28.6z"/><path d="m926.80078 289.80078-63.80078 145.5h30.30078l11.59961-28.10156h62.29883l11.60156 28.10156h30.09962l-63.30079-145.5zm9.29883 40.5 21.90039 52.59961h-44z"/><path d="m844 436.9h-16.2l-86.7-97.3v95.6h-28v-147h16.2l86.5 97.1v-95.6h28.2z"/><path d="m649.80078 117.59961v123.5h24.19922v-35.5l18.40039.0996c30.59997-.2 51.5-16.09847 51.5-43.39844s-20.60003-44.70117-50.5-44.70117zm24.19922 21.40039h18.09961c16.89998 0 26.70117 10.60079 26.70117 22.80078s-9.50119 22.19922-26.70117 22.19922h-18.09961z"/><path d="m675.7 436.9h-16.2l-86.7-97.3v95.6h-28v-147h16.2l86.5 97.1v-95.6h28.2z"/><path d="m440 287.90039c-44.49996 0-77 32.90043-77 74.90039s32.50004 74.29883 77 74.29883c44.09996 0 76.19922-31.29887 76.19922-74.29883s-31.69926-74.90039-76.19922-74.90039zm0 26.5c26.89997 0 47 20.90042 47 48.40039s-19.50003 48-47 48-47.80078-20.50003-47.80078-48 20.30081-48.40039 47.80078-48.40039z"/><path d="m304.6 378.5v56.7h-28.6v-56.7l-53.4-88.8h34.1l34.8 60.6 34.8-60.6h32.3z"/><path d="m236.7 435.3h-99v-145.6h28.6v120.5h70.4z"/><path d="m194.09961 116c-37.79996 0-65.40039 27.89965-65.40039 63.59961s27.90043 63.09961 65.40039 63.09961 64.70117-26.59965 64.70117-63.09961-27.20121-63.59961-64.70117-63.59961zm0 22.5c22.89998 0 39.90039 17.69963 39.90039 41.09961s-17.00041 40.80078-39.90039 40.80078c-23.39998 0-40.59961-17.5008-40.59961-40.80078s17.69963-41.09961 40.59961-41.09961z"/><path d="m283 117.5h24.2v102.3h59.8v21.3h-84z"/><path d="m384.1 117.5 29.5 51.5 29.5-51.5h27.4l-45.8 75.5v48.2h-24.3v-48.2l-45.4-75.4h29.1z"/><path d="m491 117.5h15.3l46.8 81.2 47.8-81.2h15.1l3.7 123.6h-23.9l-1-74.2-34.1 59.8h-15.1l-33.4-59.8-1.2 74.2h-23.7z"/><path d="m765.2 117.5h24.2v123.6h-24.3z"/><path d="m878.90039 116c-37.79996 0-65.40039 27.89965-65.40039 63.59961s27.60043 63.09961 65.40039 63.09961c5.6 0 10.90001-.49922 16-1.69922l31 28.09961 15-17.40039-23-20.89844c15.99998-11.09999 25.69922-29.60119 25.69922-51.20117 0-36.49996-27.19926-63.59961-64.69922-63.59961zm.09961 22.5c22.89998 0 39.90039 17.89963 39.90039 41.09961s-17.00041 40.80078-39.90039 40.80078c-23.39998 0-40.59961-17.6008-40.59961-40.80078s17.69963-41.09961 40.59961-41.09961z"/></g></g><g><path d="m65.349799 520.30078v580.79882c0 114.2999 57.400101 166.5996 169.999991 170.0996 196.0998 6.3 330.34931 50.7009 423.94922 158.3008 93.59991-107.5999 227.85137-152.0008 423.95119-158.3008 112.5999-3.5 170-55.7997 170-170.0996v-580.79882z" fill="#0f23aa"/><path d="m1143.1 1160.8h-332.1v-550.6h160.3v411.1h171.8z" fill="#fff"/><path d="m442.5 1173.9c-159 0-288.4-129.4-288.4-288.4s129.4-288.4 288.4-288.4 288.4 129.4 288.4 288.4-129.4 288.4-288.4 288.4" fill="#fff"/><g fill="#c88c28"><path d="m384.9 770.5c11.9-3.6 21.9-8.7 33.6-4.8-4.3-8.7-14.4-12.7-23.6-10.1-4.8 1.3-9.1 3.5-13 4.8-11.9 5.3-23.1 5.3-35.3 1.7 9 11.1 25.7 12.7 38.3 8.4"/><path d="m628.5 806.3c-16.6 33.2-82.1 27.1-78.2 65l-4.8-8.7c-5.6-10.5-1.3-23.6 9.2-29.2l60.2-31.8c19.2-10.1 26.2-35.4 13.5-54.2-10.1-14.8-29.3-20-45.9-13.9 0 0-17.5 7.8-24.9-12.7-8.7 9.2-4.3 21.8 1.3 25.4-5.6.8-16.6 8.6-17 24 12.7 3.5 26.6-1.3 29.2-5.3-.8 4.8 7.4 14.8 19.3 12.7-10.1-10.5-7.4-22.3 0-25.3 6.9-2.6 15.7-.5 20.5 5.6 6.6 8.7 3.5 21-5.8 25.7l-60.2 31.8c-20.5 10.5-28.4 36.3-17.4 56.8l27.1 51.1c3 5.6 2.2 13.1-2.6 17.5-6.1 6.5-16.6 5.2-21.9-2.3-16.5-24-30.5-49.7-41.4-77.2 9.2 3.5 16.2-2.6 16.2-2.6s-10.5-7.4-4.8-22.6c3-9.2 4-17.1 2.6-24.5 2.6 2.3 6.6 4 11.4 3.6-4-18 .8-18.8 2.2-34.5.3-7.1-1.3-12.3-3.5-16.2 3.8.4 8.3 0 12.2-4-17.1-7.1-14-31-34.5-33.7 7.8-3.5 8.3-10.4 8.3-11.7-17.5 1.3-30.2-11.4-49-11.4-20.5 0-26.1 5.3-33.5 5.3-10.5 0-15.7 5.2-14.4 10.4l-17.5 4.8c-2.6 4.8 0 8.7 2.2 10.1 0 0-3 2.6-1.8 7 1.3 4.9 4.4 13.5 4.4 13.5l3.5-3.5c1.8-1.7 4.3-3 7.4-3.5l5.6-.5c7.1-.8 13.5 2.6 17.1 9.2l7.4 14.8h-37.6s2.6 8.3 3.5 10.9c1.8 4 5.3 5.8 11.9 5.8 7 0 10.9-1 10.9-1v10.1c0 5.6-4.4 13-19.6 8.7l-31.9-9.2c-18.8-4.8-28-13.5-40.7-29.2l-3.8-6.1c-3.1-4-4.4-8.7-4-13.5.4-4 .4-9.1-.5-14-1.7-11.7-10.4-15.7-12.7-16.2.5 1.3 4.4 11.9 0 21.4-3.5-10.4-10.4-18.3-26.6-19.6 0 0 11.9 10.1 12.2 23.1-14.4-9.6-31.9-3-31.9-3s27.9 5.6 27.9 27.9c0 8.3-4.3 19.3-17.4 26.7 0 0 13.9 3 23.1-2.3 2.6-1.7 6.1-1.7 8.7.5 9.1 9.2 29.2 28.9 32.2 35 6.6 13.1-2.2 23.6-2.2 23.6s14-1 18.8-9.2c.8-1.3 2.6-1.8 4-1.3l26.1 15.7-17.6 11.8c-15.7 10.4-34 15.7-52.5 15.7h-17.8c-5.6 0-11.4-1.3-16.2-4-4.8-2.2-12.2-5.3-19.6-5.3-15.7 0-20.5 7.9-20.5 7.9s15.7-.8 21.8 5.3c-9.6-1.3-27.1 3-28.9 18.8 0 0 11.4-6.6 22.3-4.9-7.8 3.6-16.5 14-6.1 30.7 0 0 1-17.5 22.8-17.5s18.8 19.2 18.8 19.2 9.6-2.2 11.7-14.4c.5-2.6 2.2-4.8 4.8-4.8h45.9c1.8 0 3 1.3 3 2.6 2.3 9.6 15 12.2 15 12.2s-6.2-11.4 3.5-15.7l33.5-14.5 15.3 20.1c-25.3 14.4-61.1 30.5-70.8 34.5-20 7.9-25.8 7.9-34.5 7.4 0 0 10.5 9.6 30.2 7.4 1.8 0 3.5-.5 5.6-1.3 1.8-.8 4 0 4.8 1.8 3.1 6.1 7.9 15.7 9.2 19.6 3.1 8.3-2.6 10.4-8.7 13.1-8.3 4-17 7.9-31 12.7-21.3-12.2-37.5-.8-37.5-.8s12.6 2.2 18.7 9.6c-12.2-1-25.3 6.1-29.7 20 3.1-1.3 16.6-6.9 28.4-5.2-3.5 3-8.3 9.6-8.3 18.3.5 4.3 1.3 6.5 1.3 6.5s10.5-16.5 29.7-16.5c8.3 0 12.2 4.3 12.2 8.7 0 3.5-2.6 7.8-2.6 7.8s25.4-2.2 17.1-24.8l46.2-16.6c2.2-.8 4.8-.5 6.1 1.3 3.1 2.6 8.7 6.1 16.6 5.3l-13.5-30.5c-3.6-7.9.8-16.6 9.9-19.3l24.1-7.8s6.5 5.2 27.5 22.6c13.9 11.4 13.9 31.5 13.9 31.5s12.2-4.8 12.2-15.8c2.3 1 4.9 1.8 7.4 2.3 12.2 3 20.6 13.5 12.2 30.5l-7.8 14.4c-3.1 5.3-6.1 6.6-10.5 6.6-4.8-.5-10.9-.8-17 0-22.6 2.2-23.1 17.5-23.1 17.5s7.4-4.4 16.5-4.4c3.6 0 7.1 1 10.1 1.8 0 0-18.8 3-18.8 19.2 0 6.6 5.3 10.1 5.3 10.1s4.8-17 24.1-17c0 0-10.5 4.8-10.5 14.8s9.2 13.1 9.2 13.1-6.1-15.2 23.1-15.2h7.9c5.2 0 9.6-3.1 11.4-7.9l5.6-15.7c3.5-9.2 9.2-9.2 12.7-8.4 5.6 1.3 5.6 9.2 5.6 9.2s9.6-14.4-1.8-27.5c-2.2-2.6-3-6.9-1.7-10.4l7.9-21.8c17.4 4.3 25.8-10.1 25.8-10.1-18.5-4-27.5-9.7-54.1-31.5-11.8-9.6-19.3-21.8-19.3-24 6.6 7 15.7 10.9 25.3 10.9 7.4 0 14.8-2.6 21.4-7.4 5.8-4.8 9.6-10.9 11.4-17.5 9.2-15.7 31-3.1 34.5-35.3-9.2 13-29.2 4.3-33.2 20.5-8.3-35.8 43.2-12.2 43.7-66.3-12.7 21.8-57.7 14.4-54.6 41.4l-.5-.4c-17.4-56.1 68.2-19.9 63.4-94m-211.8-76.1c-6.5 0-8.3-9.6 1.8-9.6 7.1 0 13.5 2.2 13.5 2.2s-9.1 7.4-15.3 7.4"/></g></g></g></svg>