<?xml version="1.0" encoding="utf-8"?>
<!-- Generator: Adobe Illustrator 22.0.1, SVG Export Plug-In . SVG Version: 6.00 Build 0)  -->
<svg version="1.1" id="Layer_1" xmlns="http://www.w3.org/2000/svg" xmlns:xlink="http://www.w3.org/1999/xlink" x="0px" y="0px"
	 width="316" height="316" 
viewBox="0 0 200 200" style="enable-background:new 0 0 200 200;" xml:space="preserve">
<style type="text/css">
	.st0{fill:url(#SVGID_1_);}
	.st1{fill:#071B2C;}
	.st2{fill:url(#SVGID_2_);}
	.st3{fill:#3E8EDE;}
	.st4{fill:url(#SVGID_3_);}
	.st5{fill:url(#SVGID_4_);}
	.st6{fill:url(#SVGID_5_);}
	.st7{fill:url(#SVGID_6_);}
	.st8{fill:url(#SVGID_7_);}
	.st9{fill:url(#SVGID_8_);}
	.st10{fill:url(#SVGID_9_);}
	.st11{fill:url(#SVGID_10_);}
	.st12{fill:url(#SVGID_11_);}
	.st13{fill:url(#SVGID_12_);}
	.st14{fill:url(#SVGID_13_);}
	.st15{fill:url(#SVGID_14_);}
	.st16{fill:url(#SVGID_15_);}
	.st17{fill:url(#SVGID_16_);}
	.st18{fill:url(#SVGID_17_);}
	.st19{fill:url(#SVGID_18_);}
	.st20{fill:url(#SVGID_19_);}
	.st21{fill:url(#SVGID_20_);}
	.st22{fill:url(#SVGID_21_);}
	.st23{fill:url(#SVGID_22_);}
	.st24{fill:url(#SVGID_23_);}
	.st25{fill:url(#SVGID_24_);}
	.st26{fill:url(#SVGID_25_);}
	.st27{fill:url(#SVGID_26_);}
	.st28{fill:url(#SVGID_27_);}
	.st29{fill:url(#SVGID_28_);}
	.st30{fill:url(#SVGID_29_);}
	.st31{fill:url(#SVGID_30_);}
	.st32{fill:url(#SVGID_31_);}
	.st33{fill:url(#SVGID_32_);}
	.st34{fill:url(#SVGID_33_);}
	.st35{fill:url(#SVGID_34_);}
	.st36{fill:url(#SVGID_35_);}
	.st37{fill:url(#SVGID_36_);}
</style>
<g>
	
		<linearGradient id="SVGID_1_" gradientUnits="userSpaceOnUse" x1="-2197.6228" y1="-640.0295" x2="-2196.385" y2="-640.0295" gradientTransform="matrix(155.0687 155.0687 -155.0687 155.0687 241534.4688 440031.5313)">
		<stop  offset="0" style="stop-color:#BDA267"/>
		<stop  offset="7.390000e-02" style="stop-color:#BDA267"/>
		<stop  offset="0.1379" style="stop-color:#CBB580"/>
		<stop  offset="0.2729" style="stop-color:#F0E4BE"/>
		<stop  offset="0.2746" style="stop-color:#F0E5BF"/>
		<stop  offset="0.3925" style="stop-color:#CDB782"/>
		<stop  offset="0.4557" style="stop-color:#BDA267"/>
		<stop  offset="0.6613" style="stop-color:#F0E5BF"/>
		<stop  offset="0.853" style="stop-color:#CDB782"/>
		<stop  offset="0.9557" style="stop-color:#BDA267"/>
		<stop  offset="1" style="stop-color:#BDA267"/>
	</linearGradient>
	<path class="st0" d="M200,100.4v-0.9C199.8,44.6,155,0,100,0C44.9,0,0,44.9,0,100s44.9,100,100,100C155,200,199.8,155.4,200,100.4z
		"/>
	<path class="st1" d="M100,3.9C47,3.9,3.9,47,3.9,100S47,196.1,100,196.1s96.1-43.1,96.1-96.1S153,3.9,100,3.9"/>
	
		<linearGradient id="SVGID_2_" gradientUnits="userSpaceOnUse" x1="-2197.6228" y1="-640.0295" x2="-2196.385" y2="-640.0295" gradientTransform="matrix(155.0687 155.0687 -155.0687 155.0687 241534.4688 440031.5313)">
		<stop  offset="0" style="stop-color:#BDA267"/>
		<stop  offset="7.390000e-02" style="stop-color:#BDA267"/>
		<stop  offset="0.1379" style="stop-color:#CBB580"/>
		<stop  offset="0.2729" style="stop-color:#F0E4BE"/>
		<stop  offset="0.2746" style="stop-color:#F0E5BF"/>
		<stop  offset="0.3925" style="stop-color:#CDB782"/>
		<stop  offset="0.4557" style="stop-color:#BDA267"/>
		<stop  offset="0.6613" style="stop-color:#F0E5BF"/>
		<stop  offset="0.853" style="stop-color:#CDB782"/>
		<stop  offset="0.9557" style="stop-color:#BDA267"/>
		<stop  offset="1" style="stop-color:#BDA267"/>
	</linearGradient>
	<path class="st2" d="M165.8,100c0-36.3-29.5-65.8-65.8-65.8S34.2,63.7,34.2,100s29.5,65.8,65.8,65.8
		C136.3,165.8,165.8,136.3,165.8,100z"/>
	<path class="st3" d="M100,165.9c7.7,0,15.1-1.4,22-3.8v-20c-8.3,1.4-15.8,5.2-22.1,10.6c-6.3-5.4-13.7-9.1-21.9-10.6v20
		C84.9,164.5,92.3,165.9,100,165.9"/>
	<path class="st1" d="M156.2,95.4c-1.4-0.5-2.7-0.9-2.7-0.9c-16.7-5-34.7-7.6-53.6-7.6c-18.6,0-37.1,2.6-53.6,7.6
		c0,0-1.2,0.4-2.6,0.9l3.1,2.8c2.6-0.8,5.3-1.5,8-2.2c5,29,22,53.3,45.3,66.1c23.2-12.8,40.3-37.1,45.3-66.1
		c2.6,0.7,5.2,1.3,7.7,2.1L156.2,95.4"/>
	<path class="st1" d="M100,83.6c16.1,0,31.6,1.9,46.3,5.5c0.4-3.4,0.5-6.9,0.5-10.4c0-7.8-0.9-15.3-2.5-22.5
		c-4.6,1.6-9.5,2.5-14.6,2.5c-11.2,0-21.5-4.2-29.7-11.3c-8.2,7.1-18.5,11.3-29.7,11.3c-5.1,0-10-0.9-14.6-2.5
		c-1.6,7.2-2.5,14.7-2.5,22.5c0,3.5,0.2,7,0.5,10.4C68.4,85.5,84.2,83.6,100,83.6"/>
	<path class="st3" d="M100.1,34.2c-7.7,0-15.1,1.4-22,3.8v20c8.3-1.4,15.8-5.2,22.1-10.6c6.3,5.4,13.7,9.1,21.9,10.6V38
		C115.2,35.5,107.8,34.2,100.1,34.2"/>
	<g>
		
			<linearGradient id="SVGID_3_" gradientUnits="userSpaceOnUse" x1="-2197.6228" y1="-639.9883" x2="-2196.385" y2="-639.9883" gradientTransform="matrix(155.0687 155.0687 -155.0687 155.0687 241507.5781 440058.4375)">
			<stop  offset="0" style="stop-color:#BDA267"/>
			<stop  offset="7.390000e-02" style="stop-color:#BDA267"/>
			<stop  offset="0.1379" style="stop-color:#CBB580"/>
			<stop  offset="0.2729" style="stop-color:#F0E4BE"/>
			<stop  offset="0.2746" style="stop-color:#F0E5BF"/>
			<stop  offset="0.3925" style="stop-color:#CDB782"/>
			<stop  offset="0.4557" style="stop-color:#BDA267"/>
			<stop  offset="0.6613" style="stop-color:#F0E5BF"/>
			<stop  offset="0.853" style="stop-color:#CDB782"/>
			<stop  offset="0.9557" style="stop-color:#BDA267"/>
			<stop  offset="1" style="stop-color:#BDA267"/>
		</linearGradient>
		<path class="st4" d="M22.7,89.3c0.2,0,0.3,0.1,0.5,0.1c0.1,0,0.2,0.1,0.3,0.1c0.1,0.1,0.1,0.1,0.2,0.2c0.2,0.2,0.4,0.4,0.5,0.7
			c0.1,0.3,0,0.7,0,1.2l1.5,0.3l1.7-8.1l-1.5-0.3c-0.1,0.5-0.3,0.9-0.4,1.2c-0.1,0.2-0.3,0.4-0.5,0.5c-0.1,0.1-0.2,0.1-0.3,0.1
			c-0.1,0-0.2,0-0.4,0c-0.1,0-0.3,0-0.5-0.1c-0.2,0-0.5-0.1-0.8-0.2l-6.9-1.4c-0.4-0.1-0.7-0.2-0.9-0.3c-0.2-0.1-0.3-0.2-0.4-0.4
			c-0.2-0.3-0.2-0.8-0.1-1.4c0.1-0.8,0.4-1.2,0.9-1.3c0.6-0.2,1.5-0.2,2.9,0.1c1,0.2,1.7,0.5,2,0.8s0.4,0.8,0.3,1.4
			c-0.1,0.3-0.2,0.7-0.4,1.1l1.5,0.9c0.7-0.7,1.1-1.6,1.4-2.8c0.3-1.6,0.1-2.8-0.5-3.7c-0.7-0.9-1.9-1.5-3.7-1.9
			c-0.8-0.2-1.5-0.3-2.2-0.3c-0.8,0-1.5,0.1-2.1,0.4c-1,0.5-1.6,1.5-1.9,3c0,0.2-0.1,0.4-0.1,0.7s-0.1,0.6-0.1,0.9
			c-0.1,0.5-0.2,1-0.3,1.5c-0.1,0.5-0.2,1-0.3,1.7l-1,4.8l1.5,0.3c0.1-0.5,0.2-0.8,0.4-1c0.1-0.2,0.3-0.4,0.5-0.5
			c0.1,0,0.2-0.1,0.3-0.1c0.1,0,0.2,0,0.4,0s0.3,0,0.5,0.1c0.2,0,0.5,0.1,0.8,0.2l6.8,1.4C22.3,89.2,22.5,89.2,22.7,89.3z"/>
		
			<linearGradient id="SVGID_4_" gradientUnits="userSpaceOnUse" x1="-2197.6228" y1="-640.0079" x2="-2196.385" y2="-640.0079" gradientTransform="matrix(155.0687 155.0687 -155.0687 155.0687 241520.3438 440045.6875)">
			<stop  offset="0" style="stop-color:#BDA267"/>
			<stop  offset="7.390000e-02" style="stop-color:#BDA267"/>
			<stop  offset="0.1379" style="stop-color:#CBB580"/>
			<stop  offset="0.2729" style="stop-color:#F0E4BE"/>
			<stop  offset="0.2746" style="stop-color:#F0E5BF"/>
			<stop  offset="0.3925" style="stop-color:#CDB782"/>
			<stop  offset="0.4557" style="stop-color:#BDA267"/>
			<stop  offset="0.6613" style="stop-color:#F0E5BF"/>
			<stop  offset="0.853" style="stop-color:#CDB782"/>
			<stop  offset="0.9557" style="stop-color:#BDA267"/>
			<stop  offset="1" style="stop-color:#BDA267"/>
		</linearGradient>
		<path class="st5" d="M28,69.8c0.2,0.1,0.3,0.2,0.4,0.2c0.1,0.1,0.2,0.1,0.2,0.2c0.1,0.1,0.1,0.1,0.2,0.2c0.2,0.3,0.3,0.5,0.3,0.8
			s-0.1,0.7-0.4,1.1L30,73l2.8-5.4l-6.1-3.1l2-4l6.1,3.1l2.8-5.4l-1.3-0.7c-0.3,0.4-0.5,0.7-0.7,0.9c-0.2,0.2-0.4,0.3-0.6,0.3
			c-0.1,0-0.2,0-0.3,0c-0.1,0-0.2,0-0.3-0.1c-0.1,0-0.3-0.1-0.5-0.2s-0.4-0.2-0.7-0.4L27.1,55c-0.3-0.1-0.5-0.3-0.6-0.3
			c-0.2-0.1-0.3-0.2-0.4-0.2c-0.1-0.1-0.2-0.1-0.3-0.2c0-0.1-0.1-0.1-0.2-0.2c-0.2-0.3-0.3-0.5-0.3-0.8s0.2-0.7,0.4-1.2l-1.3-0.7
			l-2.9,5.5l5,2.5l-2.1,4l-5-2.6l-2.8,5.4l1.3,0.7c0.3-0.4,0.5-0.7,0.6-0.9c0.2-0.2,0.4-0.3,0.6-0.3c0.1,0,0.2,0,0.3,0
			c0.1,0,0.2,0,0.4,0.1c0.1,0,0.3,0.1,0.5,0.2c0.2,0.1,0.4,0.2,0.7,0.4l6.1,3.2C27.6,69.6,27.8,69.7,28,69.8z"/>
		
			<linearGradient id="SVGID_5_" gradientUnits="userSpaceOnUse" x1="-2197.6228" y1="-640.0244" x2="-2196.385" y2="-640.0244" gradientTransform="matrix(155.0687 155.0687 -155.0687 155.0687 241531.125 440034.9063)">
			<stop  offset="0" style="stop-color:#BDA267"/>
			<stop  offset="7.390000e-02" style="stop-color:#BDA267"/>
			<stop  offset="0.1379" style="stop-color:#CBB580"/>
			<stop  offset="0.2729" style="stop-color:#F0E4BE"/>
			<stop  offset="0.2746" style="stop-color:#F0E5BF"/>
			<stop  offset="0.3925" style="stop-color:#CDB782"/>
			<stop  offset="0.4557" style="stop-color:#BDA267"/>
			<stop  offset="0.6613" style="stop-color:#F0E5BF"/>
			<stop  offset="0.853" style="stop-color:#CDB782"/>
			<stop  offset="0.9557" style="stop-color:#BDA267"/>
			<stop  offset="1" style="stop-color:#BDA267"/>
		</linearGradient>
		<path class="st6" d="M39.8,50.6c0.1,0.1,0.3,0.2,0.3,0.3s0.2,0.2,0.2,0.2c0,0.1,0.1,0.2,0.1,0.3c0.1,0.3,0.2,0.6,0.1,0.8
			c-0.1,0.3-0.3,0.6-0.6,1l1.1,1l5.3-6.1l-1.1-1c-0.3,0.3-0.6,0.6-0.8,0.7C44.2,48,44,48.1,43.7,48c-0.1,0-0.2,0-0.3,0
			c-0.1,0-0.2-0.1-0.3-0.2c-0.1-0.1-0.3-0.2-0.4-0.3c-0.2-0.1-0.4-0.3-0.6-0.5l-5.2-4.5c-0.2-0.2-0.4-0.4-0.5-0.5
			c-0.1-0.1-0.3-0.2-0.3-0.3c-0.1-0.1-0.2-0.2-0.2-0.2c0-0.1-0.1-0.2-0.1-0.3c-0.1-0.3-0.2-0.6-0.1-0.8c0.1-0.3,0.3-0.6,0.6-1
			l-1.2-1l-5.3,6.1l1.1,1c0.3-0.3,0.6-0.6,0.8-0.7c0.2-0.1,0.4-0.2,0.7-0.2c0.1,0,0.2,0,0.3,0.1c0.1,0,0.2,0.1,0.3,0.1
			c0.1,0.1,0.3,0.2,0.4,0.3c0.2,0.1,0.4,0.3,0.6,0.5l5.2,4.5C39.5,50.3,39.6,50.5,39.8,50.6z"/>
		
			<linearGradient id="SVGID_6_" gradientUnits="userSpaceOnUse" x1="-2197.6228" y1="-640.0387" x2="-2196.385" y2="-640.0387" gradientTransform="matrix(155.0687 155.0687 -155.0687 155.0687 241540.5625 440025.4688)">
			<stop  offset="0" style="stop-color:#BDA267"/>
			<stop  offset="7.390000e-02" style="stop-color:#BDA267"/>
			<stop  offset="0.1379" style="stop-color:#CBB580"/>
			<stop  offset="0.2729" style="stop-color:#F0E4BE"/>
			<stop  offset="0.2746" style="stop-color:#F0E5BF"/>
			<stop  offset="0.3925" style="stop-color:#CDB782"/>
			<stop  offset="0.4557" style="stop-color:#BDA267"/>
			<stop  offset="0.6613" style="stop-color:#F0E5BF"/>
			<stop  offset="0.853" style="stop-color:#CDB782"/>
			<stop  offset="0.9557" style="stop-color:#BDA267"/>
			<stop  offset="1" style="stop-color:#BDA267"/>
		</linearGradient>
		<path class="st7" d="M57.3,32.8l-1.5,1.1c0.3,0.5,0.5,0.9,0.7,1.2s0.1,0.6,0.1,1c0,0.1,0,0.2-0.1,0.3s-0.1,0.2-0.2,0.3
			c-0.1,0.1-0.2,0.2-0.4,0.4s-0.4,0.3-0.6,0.5L55,37.8c-0.2,0.2-0.4,0.3-0.5,0.4s-0.3,0.2-0.4,0.2c-0.1,0-0.2,0.1-0.3,0.1
			c-0.1,0-0.2,0-0.3,0c-0.1,0-0.1,0-0.2,0s-0.1-0.1-0.2-0.1s-0.2-0.2-0.3-0.3c-0.1-0.1-0.2-0.3-0.4-0.5L48.3,32
			c-0.2-0.2-0.3-0.4-0.4-0.6c-0.1-0.1-0.2-0.3-0.3-0.4c-0.1-0.1-0.1-0.2-0.1-0.3c0-0.1,0-0.2-0.1-0.3c-0.1-0.3,0-0.6,0.1-0.8
			s0.4-0.5,0.8-0.9l-0.9-1.2L41,32.5l0.9,1.2c0.4-0.3,0.7-0.4,0.9-0.5c0.2-0.1,0.5-0.1,0.7,0c0.1,0,0.2,0.1,0.3,0.1s0.2,0.1,0.3,0.2
			c0.1,0.1,0.2,0.2,0.4,0.4c0.1,0.2,0.3,0.4,0.5,0.7l4.2,5.5c0.2,0.2,0.3,0.4,0.4,0.6c0.1,0.2,0.2,0.3,0.3,0.4
			c0.1,0.1,0.1,0.2,0.1,0.3c0,0.1,0,0.2,0.1,0.3c0.1,0.3,0,0.6-0.1,0.8c-0.1,0.2-0.4,0.5-0.8,0.9l0.9,1.2l10.2-7.7L57.3,32.8z"/>
		
			<linearGradient id="SVGID_7_" gradientUnits="userSpaceOnUse" x1="-2197.6228" y1="-640.0549" x2="-2196.385" y2="-640.0549" gradientTransform="matrix(155.0687 155.0687 -155.0687 155.0687 241551.0938 440014.9375)">
			<stop  offset="0" style="stop-color:#BDA267"/>
			<stop  offset="7.390000e-02" style="stop-color:#BDA267"/>
			<stop  offset="0.1379" style="stop-color:#CBB580"/>
			<stop  offset="0.2729" style="stop-color:#F0E4BE"/>
			<stop  offset="0.2746" style="stop-color:#F0E5BF"/>
			<stop  offset="0.3925" style="stop-color:#CDB782"/>
			<stop  offset="0.4557" style="stop-color:#BDA267"/>
			<stop  offset="0.6613" style="stop-color:#F0E5BF"/>
			<stop  offset="0.853" style="stop-color:#CDB782"/>
			<stop  offset="0.9557" style="stop-color:#BDA267"/>
			<stop  offset="1" style="stop-color:#BDA267"/>
		</linearGradient>
		<path class="st8" d="M71.3,29.6l0.6,1.4l7.1-2.9l-0.6-1.4c-0.3,0.1-0.6,0.1-0.8,0.1s-0.5-0.1-0.7-0.2c-0.2-0.1-0.5-0.3-0.7-0.5
			c-0.3-0.2-0.6-0.6-0.9-1l-6.5-7.3c-0.1-0.1-0.3-0.3-0.4-0.4c-0.1-0.1-0.2-0.2-0.3-0.3c-0.1-0.1-0.2-0.2-0.3-0.4
			c-0.1-0.1-0.2-0.3-0.3-0.4l-3.2,1.3c0,0.2,0.1,0.4,0.1,0.8c0,0.3,0.1,0.8,0.1,1.3l0.5,9.7c0,0.5,0,0.9,0,1.3
			c0,0.3-0.1,0.6-0.1,0.8c-0.1,0.2-0.2,0.4-0.3,0.6c-0.2,0.2-0.3,0.3-0.6,0.5l0.6,1.4l5.7-2.4l-0.6-1.4c-0.6,0.2-1,0.2-1.2,0.2
			c-0.2,0-0.4-0.2-0.6-0.5c-0.1-0.1-0.1-0.3-0.2-0.5c0-0.2-0.1-0.5-0.1-0.7l0-0.4l3.6-1.5l0.3,0.3c0.5,0.6,0.7,1,0.8,1.1
			c0.1,0.3,0.1,0.5-0.1,0.7C72.1,29.1,71.8,29.4,71.3,29.6z M67.3,25.9l-0.1-2.6l-0.1-1.9c0.1,0.1,0.1,0.1,0.2,0.2
			c0.1,0.1,0.1,0.1,0.2,0.2l0.3,0.4c0.1,0.1,0.2,0.3,0.3,0.4l0.3,0.3c0.1,0.1,0.1,0.1,0.2,0.2c0,0.1,0.1,0.1,0.2,0.2l1.2,1.5
			L67.3,25.9z"/>
		
			<linearGradient id="SVGID_8_" gradientUnits="userSpaceOnUse" x1="-2197.623" y1="-640.0721" x2="-2196.3853" y2="-640.0721" gradientTransform="matrix(155.0752 155.0752 -155.0752 155.0752 241573.0625 440021.5625)">
			<stop  offset="0" style="stop-color:#BDA267"/>
			<stop  offset="7.390000e-02" style="stop-color:#BDA267"/>
			<stop  offset="0.1379" style="stop-color:#CBB580"/>
			<stop  offset="0.2729" style="stop-color:#F0E4BE"/>
			<stop  offset="0.2746" style="stop-color:#F0E5BF"/>
			<stop  offset="0.3925" style="stop-color:#CDB782"/>
			<stop  offset="0.4557" style="stop-color:#BDA267"/>
			<stop  offset="0.6613" style="stop-color:#F0E5BF"/>
			<stop  offset="0.853" style="stop-color:#CDB782"/>
			<stop  offset="0.9557" style="stop-color:#BDA267"/>
			<stop  offset="1" style="stop-color:#BDA267"/>
		</linearGradient>
		<path class="st9" d="M92.2,26c0.2,0,0.4,0,0.6-0.1c2.1-0.2,3.6-1,4.4-2.4c0.9-1.4,1.2-3.3,0.9-5.7c-0.1-1.1-0.3-2.1-0.6-3
			c-0.3-0.9-0.7-1.7-1.1-2.3c-0.5-0.7-1.2-1.2-2-1.5c-0.5-0.2-1.2-0.3-1.9-0.3c-0.4,0-0.8,0-1.2,0.1c-0.2,0-0.4,0.1-0.8,0.1
			s-0.7,0.1-1,0.2c-0.4,0.1-0.9,0.1-1.5,0.2s-1.4,0.2-2.3,0.3L81.4,12l0.2,1.5c0.5,0,0.8,0,1.1,0c0.2,0.1,0.4,0.2,0.6,0.4
			c0.1,0.1,0.1,0.2,0.2,0.3c0.1,0.1,0.1,0.2,0.1,0.3s0.1,0.3,0.1,0.5c0,0.2,0.1,0.5,0.1,0.8l0.8,6.9c0,0.3,0.1,0.5,0.1,0.7
			c0,0.2,0,0.4,0,0.5c0,0.1,0,0.2,0,0.3s-0.1,0.2-0.1,0.3c-0.1,0.3-0.3,0.5-0.5,0.6c-0.2,0.1-0.6,0.3-1.2,0.3l0.2,1.5l5.3-0.6
			c0.5-0.1,0.9-0.1,1.4-0.2s1-0.1,1.5-0.1C91.7,26,92,26,92.2,26z M90.1,23.9c-0.1,0-0.2,0-0.3,0c-0.2,0-0.4-0.1-0.6-0.3
			c-0.1-0.1-0.2-0.1-0.2-0.2c-0.1-0.1-0.1-0.1-0.1-0.2c0-0.1-0.1-0.2-0.1-0.4c0-0.1-0.1-0.4-0.1-0.6l-0.8-7.1c0-0.3-0.1-0.6,0-0.8
			c0-0.2,0.1-0.4,0.2-0.5c0.1-0.1,0.3-0.2,0.6-0.3c0.2-0.1,0.6-0.1,1-0.2c0.7-0.1,1.2-0.1,1.7,0.1c0.5,0.1,0.8,0.4,1.2,0.7
			c0.3,0.4,0.6,0.9,0.8,1.5c0.2,0.6,0.3,1.5,0.5,2.4c0.1,1,0.2,1.9,0.1,2.6c0,0.7-0.2,1.3-0.4,1.7c-0.2,0.5-0.5,0.8-1,1
			c-0.4,0.2-1,0.4-1.6,0.5C90.5,23.8,90.3,23.9,90.1,23.9z"/>
		
			<linearGradient id="SVGID_9_" gradientUnits="userSpaceOnUse" x1="-2197.6228" y1="-640.0872" x2="-2196.385" y2="-640.0872" gradientTransform="matrix(155.0687 155.0687 -155.0687 155.0687 241572.1563 439993.8438)">
			<stop  offset="0" style="stop-color:#BDA267"/>
			<stop  offset="7.390000e-02" style="stop-color:#BDA267"/>
			<stop  offset="0.1379" style="stop-color:#CBB580"/>
			<stop  offset="0.2729" style="stop-color:#F0E4BE"/>
			<stop  offset="0.2746" style="stop-color:#F0E5BF"/>
			<stop  offset="0.3925" style="stop-color:#CDB782"/>
			<stop  offset="0.4557" style="stop-color:#BDA267"/>
			<stop  offset="0.6613" style="stop-color:#F0E5BF"/>
			<stop  offset="0.853" style="stop-color:#CDB782"/>
			<stop  offset="0.9557" style="stop-color:#BDA267"/>
			<stop  offset="1" style="stop-color:#BDA267"/>
		</linearGradient>
		<path class="st10" d="M118.2,22.5l-1.8-0.3c-0.1,0.5-0.3,1-0.4,1.3s-0.3,0.5-0.5,0.7s-0.5,0.2-0.8,0.3c-0.3,0-0.7,0-1.2-0.1
			l-0.6-0.1c-0.4-0.1-0.8-0.1-1-0.2c-0.3-0.1-0.4-0.1-0.5-0.3c-0.1-0.1-0.2-0.3-0.2-0.5c0-0.2,0-0.5,0.1-0.8l0.4-2.7l3,0.5
			c0.4,0.1,0.8,0.1,0.9,0.2c0.2,0,0.4,0.1,0.6,0.1l0.4-2.6c-0.2,0-0.4,0-0.7,0c-0.2,0-0.5,0-0.8-0.1l-3.2-0.5l0.4-2.5
			c0-0.3,0.1-0.5,0.2-0.7c0.1-0.2,0.2-0.3,0.3-0.4c0.1-0.1,0.3-0.1,0.5-0.1c0.2,0,0.5,0,0.9,0.1l0.3,0.1c0.5,0.1,0.9,0.2,1.2,0.3
			c0.3,0.1,0.5,0.3,0.7,0.5c0.2,0.2,0.3,0.5,0.3,0.8s0.1,0.7,0.1,1.2l1.8,0.3l0.7-4.9c-0.3,0-0.5,0.1-0.6,0.1c-0.2,0-0.4,0-0.6,0
			c-0.2,0-0.4,0-0.7-0.1c-0.3,0-0.6-0.1-0.9-0.1l-9.7-1.4l-0.2,1.5c0.5,0.1,0.8,0.2,1,0.3c0.2,0.1,0.4,0.3,0.5,0.5
			c0,0.1,0.1,0.2,0.1,0.3c0,0.1,0.1,0.2,0.1,0.4c0,0.1,0,0.3,0,0.5c0,0.2-0.1,0.5-0.1,0.8l-1,6.8c-0.1,0.3-0.1,0.5-0.1,0.7
			c0,0.2-0.1,0.3-0.1,0.5c0,0.1-0.1,0.2-0.1,0.3c0,0.1-0.1,0.1-0.2,0.2c-0.2,0.3-0.4,0.4-0.7,0.5c-0.3,0.1-0.7,0.1-1.2,0l-0.2,1.5
			l12.9,1.9L118.2,22.5z"/>
		
			<linearGradient id="SVGID_10_" gradientUnits="userSpaceOnUse" x1="-2197.6228" y1="-640.0952" x2="-2196.385" y2="-640.0952" gradientTransform="matrix(155.0687 155.0687 -155.0687 155.0687 241577.2813 439988.75)">
			<stop  offset="0" style="stop-color:#BDA267"/>
			<stop  offset="7.390000e-02" style="stop-color:#BDA267"/>
			<stop  offset="0.1379" style="stop-color:#CBB580"/>
			<stop  offset="0.2729" style="stop-color:#F0E4BE"/>
			<stop  offset="0.2746" style="stop-color:#F0E5BF"/>
			<stop  offset="0.3925" style="stop-color:#CDB782"/>
			<stop  offset="0.4557" style="stop-color:#BDA267"/>
			<stop  offset="0.6613" style="stop-color:#F0E5BF"/>
			<stop  offset="0.853" style="stop-color:#CDB782"/>
			<stop  offset="0.9557" style="stop-color:#BDA267"/>
			<stop  offset="1" style="stop-color:#BDA267"/>
		</linearGradient>
		<path class="st11" d="M136.4,29.2l-1.7-0.7c-0.3,0.5-0.5,0.9-0.7,1.2c-0.2,0.3-0.5,0.5-0.8,0.5c-0.1,0-0.2,0.1-0.3,0.1
			c-0.1,0-0.2,0-0.4,0c-0.1,0-0.3-0.1-0.5-0.1c-0.2-0.1-0.4-0.2-0.7-0.3l-0.3-0.1c-0.3-0.1-0.4-0.2-0.6-0.3s-0.3-0.1-0.4-0.2
			c-0.1-0.1-0.2-0.1-0.2-0.2c-0.1,0-0.1-0.1-0.1-0.2c0-0.1-0.1-0.1-0.1-0.2c0-0.1,0-0.1,0-0.2s0.1-0.2,0.1-0.4
			c0.1-0.1,0.1-0.3,0.2-0.6l2.7-6.5c0.1-0.3,0.2-0.5,0.3-0.7c0.1-0.2,0.1-0.3,0.2-0.4c0.1-0.1,0.1-0.2,0.2-0.3
			c0.1-0.1,0.1-0.1,0.2-0.2c0.2-0.2,0.5-0.3,0.8-0.3c0.3,0,0.7,0.1,1.2,0.3L136,18l-7.5-3.1l-0.6,1.4c0.4,0.2,0.7,0.4,0.9,0.5
			c0.2,0.2,0.3,0.4,0.4,0.6c0,0.1,0,0.2,0,0.3c0,0.1,0,0.2,0,0.4c0,0.1-0.1,0.3-0.2,0.5c-0.1,0.2-0.2,0.5-0.3,0.8l-2.6,6.4
			c-0.1,0.3-0.2,0.5-0.3,0.7s-0.2,0.3-0.2,0.4c-0.1,0.1-0.1,0.2-0.2,0.3c-0.1,0-0.1,0.1-0.2,0.2c-0.2,0.2-0.5,0.3-0.8,0.3
			c-0.3,0-0.7-0.1-1.2-0.3l-0.6,1.4l11.8,4.9L136.4,29.2z"/>
		
			<linearGradient id="SVGID_11_" gradientUnits="userSpaceOnUse" x1="-2197.6228" y1="-640.1005" x2="-2196.385" y2="-640.1005" gradientTransform="matrix(155.0687 155.0687 -155.0687 155.0687 241580.7188 439985.3125)">
			<stop  offset="0" style="stop-color:#BDA267"/>
			<stop  offset="7.390000e-02" style="stop-color:#BDA267"/>
			<stop  offset="0.1379" style="stop-color:#CBB580"/>
			<stop  offset="0.2729" style="stop-color:#F0E4BE"/>
			<stop  offset="0.2746" style="stop-color:#F0E5BF"/>
			<stop  offset="0.3925" style="stop-color:#CDB782"/>
			<stop  offset="0.4557" style="stop-color:#BDA267"/>
			<stop  offset="0.6613" style="stop-color:#F0E5BF"/>
			<stop  offset="0.853" style="stop-color:#CDB782"/>
			<stop  offset="0.9557" style="stop-color:#BDA267"/>
			<stop  offset="1" style="stop-color:#BDA267"/>
		</linearGradient>
		<path class="st12" d="M152.8,39.2c1.1-0.2,2.2-1.1,3.3-2.5c1.1-1.5,1.7-2.8,1.6-3.9c-0.1-1.1-0.7-2.1-1.9-3
			c-0.1-0.1-0.4-0.3-0.6-0.4c-0.2-0.2-0.5-0.3-0.7-0.5c-0.4-0.3-0.9-0.6-1.3-0.9c-0.4-0.3-0.9-0.6-1.4-1l-3.9-3l-0.9,1.2
			c0.4,0.3,0.6,0.6,0.8,0.8c0.1,0.2,0.2,0.4,0.2,0.7c0,0.1,0,0.2,0,0.3c0,0.1-0.1,0.2-0.1,0.3s-0.2,0.3-0.3,0.5s-0.3,0.4-0.5,0.7
			l-4.1,5.5c-0.2,0.2-0.3,0.4-0.4,0.6c-0.1,0.1-0.2,0.3-0.3,0.4c-0.1,0.1-0.2,0.2-0.2,0.2c-0.1,0-0.1,0.1-0.2,0.1
			c-0.3,0.1-0.5,0.2-0.8,0.1c-0.3-0.1-0.6-0.2-1.1-0.5l-0.9,1.2l6.6,4.9l0.9-1.2c-0.4-0.3-0.7-0.6-0.9-0.8c-0.1-0.2-0.2-0.5-0.2-0.7
			c0-0.1,0-0.2,0-0.3c0-0.1,0.1-0.2,0.1-0.3s0.2-0.3,0.3-0.4c0.1-0.2,0.3-0.4,0.5-0.7l0.6-0.8c0.5,0.8,1.6,1.8,2.4,2.4
			C150.5,39.1,151.7,39.5,152.8,39.2z M147.8,34.4l2.7-3.6c0.3-0.3,0.4-0.6,0.6-0.7c0.1-0.1,0.3-0.2,0.5-0.2c0.4,0,0.8,0.2,1.3,0.6
			c0.6,0.5,0.9,0.9,0.8,1.4c-0.1,0.6-0.5,1.5-1.3,2.6c-0.6,0.8-1.1,1.3-1.6,1.5c-0.4,0.2-0.9,0.1-1.4-0.3
			C149.4,35.5,148.4,34.9,147.8,34.4z"/>
		
			<linearGradient id="SVGID_12_" gradientUnits="userSpaceOnUse" x1="-2197.6228" y1="-640.1008" x2="-2196.385" y2="-640.1008" gradientTransform="matrix(155.0687 155.0687 -155.0687 155.0687 241580.9375 439985.0938)">
			<stop  offset="0" style="stop-color:#BDA267"/>
			<stop  offset="7.390000e-02" style="stop-color:#BDA267"/>
			<stop  offset="0.1379" style="stop-color:#CBB580"/>
			<stop  offset="0.2729" style="stop-color:#F0E4BE"/>
			<stop  offset="0.2746" style="stop-color:#F0E5BF"/>
			<stop  offset="0.3925" style="stop-color:#CDB782"/>
			<stop  offset="0.4557" style="stop-color:#BDA267"/>
			<stop  offset="0.6613" style="stop-color:#F0E5BF"/>
			<stop  offset="0.853" style="stop-color:#CDB782"/>
			<stop  offset="0.9557" style="stop-color:#BDA267"/>
			<stop  offset="1" style="stop-color:#BDA267"/>
		</linearGradient>
		<path class="st13" d="M164.8,59.3c-0.1-0.2-0.1-0.5,0-0.7c0-0.1,0.1-0.2,0.1-0.3c0-0.1,0.1-0.2,0.2-0.3c0.1-0.1,0.2-0.2,0.4-0.3
			c0.2-0.1,0.4-0.3,0.6-0.5l5.5-4.2c0.2-0.2,0.4-0.3,0.6-0.4c0.2-0.1,0.3-0.2,0.4-0.3c0.1-0.1,0.2-0.1,0.3-0.1c0.1,0,0.2,0,0.3-0.1
			c0.3-0.1,0.6,0,0.8,0.1c0.2,0.1,0.5,0.4,0.9,0.8l1.2-0.9l-3.7-4.8l-4.5,3.4l-2.7-3.5l4.5-3.4l-3.7-4.8l-1.2,0.9
			c0.3,0.4,0.4,0.7,0.5,0.9c0.1,0.2,0.1,0.5,0,0.7c0,0.1-0.1,0.2-0.1,0.3s-0.1,0.2-0.2,0.3c-0.1,0.1-0.2,0.2-0.4,0.3
			c-0.2,0.1-0.4,0.3-0.6,0.5l-5.5,4.2c-0.2,0.2-0.4,0.3-0.6,0.4c-0.1,0.1-0.3,0.2-0.4,0.3c-0.1,0.1-0.2,0.1-0.3,0.1
			c-0.1,0-0.2,0-0.3,0.1c-0.3,0.1-0.6,0-0.8-0.1c-0.2-0.1-0.5-0.4-0.9-0.8l-1.2,0.9l3.7,4.8l5.4-4.2l2.7,3.5l-5.4,4.2l3.7,4.9
			l1.2-0.9C165.1,59.9,164.9,59.6,164.8,59.3z"/>
		
			<linearGradient id="SVGID_13_" gradientUnits="userSpaceOnUse" x1="-2197.6228" y1="-640.0966" x2="-2196.385" y2="-640.0966" gradientTransform="matrix(155.0687 155.0687 -155.0687 155.0687 241578.25 439987.7813)">
			<stop  offset="0" style="stop-color:#BDA267"/>
			<stop  offset="7.390000e-02" style="stop-color:#BDA267"/>
			<stop  offset="0.1379" style="stop-color:#CBB580"/>
			<stop  offset="0.2729" style="stop-color:#F0E4BE"/>
			<stop  offset="0.2746" style="stop-color:#F0E5BF"/>
			<stop  offset="0.3925" style="stop-color:#CDB782"/>
			<stop  offset="0.4557" style="stop-color:#BDA267"/>
			<stop  offset="0.6613" style="stop-color:#F0E5BF"/>
			<stop  offset="0.853" style="stop-color:#CDB782"/>
			<stop  offset="0.9557" style="stop-color:#BDA267"/>
			<stop  offset="1" style="stop-color:#BDA267"/>
		</linearGradient>
		<path class="st14" d="M179.6,66.8c0.2-0.1,0.3-0.1,0.4-0.2s0.2-0.1,0.3-0.1s0.2,0,0.3,0c0.3,0,0.6,0.1,0.8,0.3
			c0.2,0.2,0.4,0.5,0.7,1l1.4-0.6l-3.3-7.4l-1.4,0.6c0.2,0.5,0.3,0.8,0.3,1c0,0.2,0,0.5-0.1,0.7c-0.1,0.1-0.1,0.2-0.2,0.3
			c-0.1,0.1-0.1,0.2-0.3,0.2c-0.1,0.1-0.3,0.2-0.5,0.3s-0.4,0.2-0.8,0.3l-6.3,2.8c-0.3,0.1-0.5,0.2-0.7,0.3s-0.3,0.1-0.4,0.2
			c-0.1,0.1-0.2,0.1-0.3,0.1c-0.1,0-0.2,0-0.3,0c-0.3,0-0.6-0.1-0.8-0.3c-0.2-0.2-0.4-0.5-0.7-1l-1.4,0.6l3.3,7.4l1.4-0.6
			c-0.2-0.4-0.3-0.8-0.3-1c0-0.2,0-0.5,0.1-0.7c0.1-0.1,0.1-0.2,0.2-0.3c0.1-0.1,0.1-0.1,0.3-0.2c0.1-0.1,0.3-0.2,0.4-0.3
			s0.4-0.2,0.8-0.3l6.3-2.8C179.2,66.9,179.4,66.8,179.6,66.8z"/>
		
			<linearGradient id="SVGID_14_" gradientUnits="userSpaceOnUse" x1="-2197.6228" y1="-640.0881" x2="-2196.385" y2="-640.0881" gradientTransform="matrix(155.0687 155.0687 -155.0687 155.0687 241572.6875 439993.3438)">
			<stop  offset="0" style="stop-color:#BDA267"/>
			<stop  offset="7.390000e-02" style="stop-color:#BDA267"/>
			<stop  offset="0.1379" style="stop-color:#CBB580"/>
			<stop  offset="0.2729" style="stop-color:#F0E4BE"/>
			<stop  offset="0.2746" style="stop-color:#F0E5BF"/>
			<stop  offset="0.3925" style="stop-color:#CDB782"/>
			<stop  offset="0.4557" style="stop-color:#BDA267"/>
			<stop  offset="0.6613" style="stop-color:#F0E5BF"/>
			<stop  offset="0.853" style="stop-color:#CDB782"/>
			<stop  offset="0.9557" style="stop-color:#BDA267"/>
			<stop  offset="1" style="stop-color:#BDA267"/>
		</linearGradient>
		<path class="st15" d="M187,84.2c0.1-0.1,0.3-0.1,0.4-0.2c0.1-0.1,0.3-0.1,0.4-0.2c0.1-0.1,0.3-0.1,0.4-0.2l-0.7-3.4
			c-0.2,0-0.4,0-0.8,0c-0.3,0-0.8-0.1-1.3-0.2l-9.6-1.4c-0.5-0.1-0.9-0.2-1.2-0.2s-0.6-0.2-0.8-0.3c-0.2-0.1-0.4-0.3-0.5-0.4
			c-0.1-0.2-0.3-0.4-0.4-0.7l-1.5,0.3l1.2,6.1l1.5-0.3c-0.1-0.6-0.1-1,0-1.2c0.1-0.2,0.3-0.4,0.6-0.4c0.2,0,0.4-0.1,0.6-0.1
			s0.5,0,0.7,0.1l0.4,0.1l0.8,3.8l-0.4,0.2c-0.6,0.3-1.1,0.5-1.3,0.6c-0.3,0.1-0.5,0-0.7-0.2c-0.2-0.2-0.3-0.5-0.5-1.1l-1.5,0.3
			l1.5,7.5l1.5-0.3c0-0.3,0-0.6,0.1-0.8s0.2-0.4,0.3-0.7c0.1-0.2,0.4-0.4,0.7-0.6c0.3-0.2,0.6-0.5,1.1-0.7l8.4-5
			C186.7,84.4,186.9,84.3,187,84.2z M183.1,82.3c-0.1,0-0.2,0.1-0.3,0.1l-0.4,0.2c-0.1,0.1-0.3,0.2-0.5,0.3l-0.4,0.2
			c-0.1,0.1-0.1,0.1-0.2,0.1c-0.1,0-0.1,0.1-0.2,0.1l-1.7,0.9l-0.6-2.7l2.6,0.4l1.9,0.3C183.3,82.3,183.2,82.3,183.1,82.3z"/>
	</g>
	<g>
		
			<linearGradient id="SVGID_15_" gradientUnits="userSpaceOnUse" x1="-2197.6228" y1="-639.9724" x2="-2196.385" y2="-639.9724" gradientTransform="matrix(155.0687 155.0687 -155.0687 155.0687 241497.2656 440068.75)">
			<stop  offset="0" style="stop-color:#BDA267"/>
			<stop  offset="7.390000e-02" style="stop-color:#BDA267"/>
			<stop  offset="0.1379" style="stop-color:#CBB580"/>
			<stop  offset="0.2729" style="stop-color:#F0E4BE"/>
			<stop  offset="0.2746" style="stop-color:#F0E5BF"/>
			<stop  offset="0.3925" style="stop-color:#CDB782"/>
			<stop  offset="0.4557" style="stop-color:#BDA267"/>
			<stop  offset="0.6613" style="stop-color:#F0E5BF"/>
			<stop  offset="0.853" style="stop-color:#CDB782"/>
			<stop  offset="0.9557" style="stop-color:#BDA267"/>
			<stop  offset="1" style="stop-color:#BDA267"/>
		</linearGradient>
		<polygon class="st16" points="20.4,110.7 24.9,108.7 20.1,107.7 19.5,102.8 17.1,107.1 12.2,106.1 15.6,109.8 13.1,114.1 
			17.6,112 21,115.7 		"/>
		
			<linearGradient id="SVGID_16_" gradientUnits="userSpaceOnUse" x1="-2197.6228" y1="-639.9635" x2="-2196.385" y2="-639.9635" gradientTransform="matrix(155.0687 155.0687 -155.0687 155.0687 241491.5 440074.5313)">
			<stop  offset="0" style="stop-color:#BDA267"/>
			<stop  offset="7.390000e-02" style="stop-color:#BDA267"/>
			<stop  offset="0.1379" style="stop-color:#CBB580"/>
			<stop  offset="0.2729" style="stop-color:#F0E4BE"/>
			<stop  offset="0.2746" style="stop-color:#F0E5BF"/>
			<stop  offset="0.3925" style="stop-color:#CDB782"/>
			<stop  offset="0.4557" style="stop-color:#BDA267"/>
			<stop  offset="0.6613" style="stop-color:#F0E5BF"/>
			<stop  offset="0.853" style="stop-color:#CDB782"/>
			<stop  offset="0.9557" style="stop-color:#BDA267"/>
			<stop  offset="1" style="stop-color:#BDA267"/>
		</linearGradient>
		<polygon class="st17" points="22.9,131.5 27.1,134.2 25.3,129.6 29.2,126.5 24.2,126.7 22.5,122.1 21.1,126.8 16.2,127.1 
			20.4,129.8 19,134.6 		"/>
		
			<linearGradient id="SVGID_17_" gradientUnits="userSpaceOnUse" x1="-2197.6228" y1="-639.9586" x2="-2196.385" y2="-639.9586" gradientTransform="matrix(155.0687 155.0687 -155.0687 155.0687 241488.3281 440077.6875)">
			<stop  offset="0" style="stop-color:#BDA267"/>
			<stop  offset="7.390000e-02" style="stop-color:#BDA267"/>
			<stop  offset="0.1379" style="stop-color:#CBB580"/>
			<stop  offset="0.2729" style="stop-color:#F0E4BE"/>
			<stop  offset="0.2746" style="stop-color:#F0E5BF"/>
			<stop  offset="0.3925" style="stop-color:#CDB782"/>
			<stop  offset="0.4557" style="stop-color:#BDA267"/>
			<stop  offset="0.6613" style="stop-color:#F0E5BF"/>
			<stop  offset="0.853" style="stop-color:#CDB782"/>
			<stop  offset="0.9557" style="stop-color:#BDA267"/>
			<stop  offset="1" style="stop-color:#BDA267"/>
		</linearGradient>
		<polygon class="st18" points="32.7,149.1 37.4,150.8 34.5,146.7 37.6,142.7 32.8,144.1 30,140.1 29.9,145 25.1,146.4 29.8,148.1 
			29.7,153.1 		"/>
		
			<linearGradient id="SVGID_18_" gradientUnits="userSpaceOnUse" x1="-2197.6228" y1="-639.9577" x2="-2196.385" y2="-639.9577" gradientTransform="matrix(155.0687 155.0687 -155.0687 155.0687 241487.7188 440078.3125)">
			<stop  offset="0" style="stop-color:#BDA267"/>
			<stop  offset="7.390000e-02" style="stop-color:#BDA267"/>
			<stop  offset="0.1379" style="stop-color:#CBB580"/>
			<stop  offset="0.2729" style="stop-color:#F0E4BE"/>
			<stop  offset="0.2746" style="stop-color:#F0E5BF"/>
			<stop  offset="0.3925" style="stop-color:#CDB782"/>
			<stop  offset="0.4557" style="stop-color:#BDA267"/>
			<stop  offset="0.6613" style="stop-color:#F0E5BF"/>
			<stop  offset="0.853" style="stop-color:#CDB782"/>
			<stop  offset="0.9557" style="stop-color:#BDA267"/>
			<stop  offset="1" style="stop-color:#BDA267"/>
		</linearGradient>
		<polygon class="st19" points="51.4,164.3 47.6,161 49.6,156.5 45.3,159 41.6,155.7 42.7,160.6 38.4,163.1 43.4,163.6 44.5,168.4 
			46.4,163.9 		"/>
		
			<linearGradient id="SVGID_19_" gradientUnits="userSpaceOnUse" x1="-2197.6228" y1="-639.9604" x2="-2196.385" y2="-639.9604" gradientTransform="matrix(155.0687 155.0687 -155.0687 155.0687 241489.4375 440076.5938)">
			<stop  offset="0" style="stop-color:#BDA267"/>
			<stop  offset="7.390000e-02" style="stop-color:#BDA267"/>
			<stop  offset="0.1379" style="stop-color:#CBB580"/>
			<stop  offset="0.2729" style="stop-color:#F0E4BE"/>
			<stop  offset="0.2746" style="stop-color:#F0E5BF"/>
			<stop  offset="0.3925" style="stop-color:#CDB782"/>
			<stop  offset="0.4557" style="stop-color:#BDA267"/>
			<stop  offset="0.6613" style="stop-color:#F0E5BF"/>
			<stop  offset="0.853" style="stop-color:#CDB782"/>
			<stop  offset="0.9557" style="stop-color:#BDA267"/>
			<stop  offset="1" style="stop-color:#BDA267"/>
		</linearGradient>
		<polygon class="st20" points="63.3,174.9 68.2,174.1 63.8,171.8 64.6,166.9 61.1,170.4 56.7,168.1 58.9,172.6 55.4,176.1 
			60.3,175.3 62.5,179.8 		"/>
		
			<linearGradient id="SVGID_20_" gradientUnits="userSpaceOnUse" x1="-2197.6228" y1="-639.967" x2="-2196.385" y2="-639.967" gradientTransform="matrix(155.0687 155.0687 -155.0687 155.0687 241493.7969 440072.2188)">
			<stop  offset="0" style="stop-color:#BDA267"/>
			<stop  offset="7.390000e-02" style="stop-color:#BDA267"/>
			<stop  offset="0.1379" style="stop-color:#CBB580"/>
			<stop  offset="0.2729" style="stop-color:#F0E4BE"/>
			<stop  offset="0.2746" style="stop-color:#F0E5BF"/>
			<stop  offset="0.3925" style="stop-color:#CDB782"/>
			<stop  offset="0.4557" style="stop-color:#BDA267"/>
			<stop  offset="0.6613" style="stop-color:#F0E5BF"/>
			<stop  offset="0.853" style="stop-color:#CDB782"/>
			<stop  offset="0.9557" style="stop-color:#BDA267"/>
			<stop  offset="1" style="stop-color:#BDA267"/>
		</linearGradient>
		<polygon class="st21" points="82.3,181.5 86.9,179.6 82.1,178.4 81.7,173.5 79.1,177.7 74.3,176.6 77.5,180.3 74.9,184.6 
			79.5,182.7 82.7,186.4 		"/>
		
			<linearGradient id="SVGID_21_" gradientUnits="userSpaceOnUse" x1="-2197.6228" y1="-639.978" x2="-2196.385" y2="-639.978" gradientTransform="matrix(155.0687 155.0687 -155.0687 155.0687 241500.9063 440065.125)">
			<stop  offset="0" style="stop-color:#BDA267"/>
			<stop  offset="7.390000e-02" style="stop-color:#BDA267"/>
			<stop  offset="0.1379" style="stop-color:#CBB580"/>
			<stop  offset="0.2729" style="stop-color:#F0E4BE"/>
			<stop  offset="0.2746" style="stop-color:#F0E5BF"/>
			<stop  offset="0.3925" style="stop-color:#CDB782"/>
			<stop  offset="0.4557" style="stop-color:#BDA267"/>
			<stop  offset="0.6613" style="stop-color:#F0E5BF"/>
			<stop  offset="0.853" style="stop-color:#CDB782"/>
			<stop  offset="0.9557" style="stop-color:#BDA267"/>
			<stop  offset="1" style="stop-color:#BDA267"/>
		</linearGradient>
		<polygon class="st22" points="99.9,185.2 104,188.1 102.4,183.4 106.4,180.4 101.4,180.4 99.9,175.8 98.4,180.5 93.4,180.5 
			97.4,183.4 95.9,188.1 		"/>
		
			<linearGradient id="SVGID_22_" gradientUnits="userSpaceOnUse" x1="-2197.6228" y1="-639.9922" x2="-2196.385" y2="-639.9922" gradientTransform="matrix(155.0687 155.0687 -155.0687 155.0687 241510.1719 440055.8438)">
			<stop  offset="0" style="stop-color:#BDA267"/>
			<stop  offset="7.390000e-02" style="stop-color:#BDA267"/>
			<stop  offset="0.1379" style="stop-color:#CBB580"/>
			<stop  offset="0.2729" style="stop-color:#F0E4BE"/>
			<stop  offset="0.2746" style="stop-color:#F0E5BF"/>
			<stop  offset="0.3925" style="stop-color:#CDB782"/>
			<stop  offset="0.4557" style="stop-color:#BDA267"/>
			<stop  offset="0.6613" style="stop-color:#F0E5BF"/>
			<stop  offset="0.853" style="stop-color:#CDB782"/>
			<stop  offset="0.9557" style="stop-color:#BDA267"/>
			<stop  offset="1" style="stop-color:#BDA267"/>
		</linearGradient>
		<polygon class="st23" points="120.4,182.7 125,184.6 122.3,180.4 125.5,176.5 120.7,177.8 118,173.6 117.7,178.5 112.9,179.7 
			117.5,181.6 117.2,186.5 		"/>
		
			<linearGradient id="SVGID_23_" gradientUnits="userSpaceOnUse" x1="-2197.6228" y1="-640.0084" x2="-2196.385" y2="-640.0084" gradientTransform="matrix(155.0687 155.0687 -155.0687 155.0687 241520.8125 440045.2188)">
			<stop  offset="0" style="stop-color:#BDA267"/>
			<stop  offset="7.390000e-02" style="stop-color:#BDA267"/>
			<stop  offset="0.1379" style="stop-color:#CBB580"/>
			<stop  offset="0.2729" style="stop-color:#F0E4BE"/>
			<stop  offset="0.2746" style="stop-color:#F0E5BF"/>
			<stop  offset="0.3925" style="stop-color:#CDB782"/>
			<stop  offset="0.4557" style="stop-color:#BDA267"/>
			<stop  offset="0.6613" style="stop-color:#F0E5BF"/>
			<stop  offset="0.853" style="stop-color:#CDB782"/>
			<stop  offset="0.9557" style="stop-color:#BDA267"/>
			<stop  offset="1" style="stop-color:#BDA267"/>
		</linearGradient>
		<polygon class="st24" points="144.5,176.1 140.9,172.6 143.1,168.2 138.7,170.5 135.2,167.1 136,171.9 131.6,174.3 136.6,175 
			137.4,179.9 139.6,175.4 		"/>
		
			<linearGradient id="SVGID_24_" gradientUnits="userSpaceOnUse" x1="-2197.6228" y1="-640.0252" x2="-2196.385" y2="-640.0252" gradientTransform="matrix(155.0687 155.0687 -155.0687 155.0687 241531.7344 440034.2813)">
			<stop  offset="0" style="stop-color:#BDA267"/>
			<stop  offset="7.390000e-02" style="stop-color:#BDA267"/>
			<stop  offset="0.1379" style="stop-color:#CBB580"/>
			<stop  offset="0.2729" style="stop-color:#F0E4BE"/>
			<stop  offset="0.2746" style="stop-color:#F0E5BF"/>
			<stop  offset="0.3925" style="stop-color:#CDB782"/>
			<stop  offset="0.4557" style="stop-color:#BDA267"/>
			<stop  offset="0.6613" style="stop-color:#F0E5BF"/>
			<stop  offset="0.853" style="stop-color:#CDB782"/>
			<stop  offset="0.9557" style="stop-color:#BDA267"/>
			<stop  offset="1" style="stop-color:#BDA267"/>
		</linearGradient>
		<polygon class="st25" points="156.5,163.7 161.5,163.1 157.2,160.7 158.2,155.8 154.5,159.1 150.2,156.7 152.2,161.2 148.5,164.5 
			153.5,164 155.5,168.5 		"/>
		
			<linearGradient id="SVGID_25_" gradientUnits="userSpaceOnUse" x1="-2197.6228" y1="-640.0422" x2="-2196.385" y2="-640.0422" gradientTransform="matrix(155.0687 155.0687 -155.0687 155.0687 241542.8125 440023.2188)">
			<stop  offset="0" style="stop-color:#BDA267"/>
			<stop  offset="7.390000e-02" style="stop-color:#BDA267"/>
			<stop  offset="0.1379" style="stop-color:#CBB580"/>
			<stop  offset="0.2729" style="stop-color:#F0E4BE"/>
			<stop  offset="0.2746" style="stop-color:#F0E5BF"/>
			<stop  offset="0.3925" style="stop-color:#CDB782"/>
			<stop  offset="0.4557" style="stop-color:#BDA267"/>
			<stop  offset="0.6613" style="stop-color:#F0E5BF"/>
			<stop  offset="0.853" style="stop-color:#CDB782"/>
			<stop  offset="0.9557" style="stop-color:#BDA267"/>
			<stop  offset="1" style="stop-color:#BDA267"/>
		</linearGradient>
		<polygon class="st26" points="170.1,148.2 174.8,146.5 170,145.1 169.9,140.2 167.1,144.3 162.3,142.9 165.4,146.8 162.6,151 
			167.2,149.3 170.3,153.2 		"/>
		
			<linearGradient id="SVGID_26_" gradientUnits="userSpaceOnUse" x1="-2197.6228" y1="-640.0589" x2="-2196.385" y2="-640.0589" gradientTransform="matrix(155.0687 155.0687 -155.0687 155.0687 241553.6875 440012.3438)">
			<stop  offset="0" style="stop-color:#BDA267"/>
			<stop  offset="7.390000e-02" style="stop-color:#BDA267"/>
			<stop  offset="0.1379" style="stop-color:#CBB580"/>
			<stop  offset="0.2729" style="stop-color:#F0E4BE"/>
			<stop  offset="0.2746" style="stop-color:#F0E5BF"/>
			<stop  offset="0.3925" style="stop-color:#CDB782"/>
			<stop  offset="0.4557" style="stop-color:#BDA267"/>
			<stop  offset="0.6613" style="stop-color:#F0E5BF"/>
			<stop  offset="0.853" style="stop-color:#CDB782"/>
			<stop  offset="0.9557" style="stop-color:#BDA267"/>
			<stop  offset="1" style="stop-color:#BDA267"/>
		</linearGradient>
		<polygon class="st27" points="179.6,129.9 183.7,127.2 178.8,127 177.4,122.2 175.7,126.9 170.8,126.7 174.6,129.8 172.9,134.4 
			177.1,131.6 181,134.7 		"/>
		
			<linearGradient id="SVGID_27_" gradientUnits="userSpaceOnUse" x1="-2197.6228" y1="-640.0743" x2="-2196.385" y2="-640.0743" gradientTransform="matrix(155.0687 155.0687 -155.0687 155.0687 241563.6875 440002.3125)">
			<stop  offset="0" style="stop-color:#BDA267"/>
			<stop  offset="7.390000e-02" style="stop-color:#BDA267"/>
			<stop  offset="0.1379" style="stop-color:#CBB580"/>
			<stop  offset="0.2729" style="stop-color:#F0E4BE"/>
			<stop  offset="0.2746" style="stop-color:#F0E5BF"/>
			<stop  offset="0.3925" style="stop-color:#CDB782"/>
			<stop  offset="0.4557" style="stop-color:#BDA267"/>
			<stop  offset="0.6613" style="stop-color:#F0E5BF"/>
			<stop  offset="0.853" style="stop-color:#CDB782"/>
			<stop  offset="0.9557" style="stop-color:#BDA267"/>
			<stop  offset="1" style="stop-color:#BDA267"/>
		</linearGradient>
		<polygon class="st28" points="182.4,112.2 186.9,114.2 184.4,109.9 187.8,106.2 182.9,107.3 180.4,102.9 179.9,107.9 175,108.9 
			179.6,110.9 179,115.9 		"/>
	</g>
	<g>
		
			<linearGradient id="SVGID_28_" gradientUnits="userSpaceOnUse" x1="-2197.6228" y1="-640.0287" x2="-2196.385" y2="-640.0287" gradientTransform="matrix(155.0687 155.0687 -155.0687 155.0687 241534.0313 440032)">
			<stop  offset="0" style="stop-color:#BDA267"/>
			<stop  offset="7.390000e-02" style="stop-color:#BDA267"/>
			<stop  offset="0.1379" style="stop-color:#CBB580"/>
			<stop  offset="0.2729" style="stop-color:#F0E4BE"/>
			<stop  offset="0.2746" style="stop-color:#F0E5BF"/>
			<stop  offset="0.3925" style="stop-color:#CDB782"/>
			<stop  offset="0.4557" style="stop-color:#BDA267"/>
			<stop  offset="0.6613" style="stop-color:#F0E5BF"/>
			<stop  offset="0.853" style="stop-color:#CDB782"/>
			<stop  offset="0.9557" style="stop-color:#BDA267"/>
			<stop  offset="1" style="stop-color:#BDA267"/>
		</linearGradient>
		<path class="st29" d="M75.1,79.1V62.7l0,0l-3,0.4v15.7l-2.8,0.4V63.5l-3,0.4v16.4c0,0.9,0.6,1.5,1.5,1.5c0.1,0,0.2,0,0.3,0
			l5.2-0.8C74.4,80.9,75.1,80.1,75.1,79.1z"/>
		
			<linearGradient id="SVGID_29_" gradientUnits="userSpaceOnUse" x1="-2197.6228" y1="-640.0394" x2="-2196.385" y2="-640.0394" gradientTransform="matrix(155.0687 155.0687 -155.0687 155.0687 241540.9375 440025.0938)">
			<stop  offset="0" style="stop-color:#BDA267"/>
			<stop  offset="7.390000e-02" style="stop-color:#BDA267"/>
			<stop  offset="0.1379" style="stop-color:#CBB580"/>
			<stop  offset="0.2729" style="stop-color:#F0E4BE"/>
			<stop  offset="0.2746" style="stop-color:#F0E5BF"/>
			<stop  offset="0.3925" style="stop-color:#CDB782"/>
			<stop  offset="0.4557" style="stop-color:#BDA267"/>
			<stop  offset="0.6613" style="stop-color:#F0E5BF"/>
			<stop  offset="0.853" style="stop-color:#CDB782"/>
			<stop  offset="0.9557" style="stop-color:#BDA267"/>
			<stop  offset="1" style="stop-color:#BDA267"/>
		</linearGradient>
		<polygon class="st30" points="91,79.5 91,61.3 91,61.3 88.2,61.5 88.2,70.3 84,61.8 82.3,61.9 82.3,80 82.3,80 85.2,79.9 
			85.2,71.3 89.3,79.6 		"/>
		
			<linearGradient id="SVGID_30_" gradientUnits="userSpaceOnUse" x1="-2197.6228" y1="-640.0479" x2="-2196.385" y2="-640.0479" gradientTransform="matrix(155.0687 155.0687 -155.0687 155.0687 241546.4688 440019.5625)">
			<stop  offset="0" style="stop-color:#BDA267"/>
			<stop  offset="7.390000e-02" style="stop-color:#BDA267"/>
			<stop  offset="0.1379" style="stop-color:#CBB580"/>
			<stop  offset="0.2729" style="stop-color:#F0E4BE"/>
			<stop  offset="0.2746" style="stop-color:#F0E5BF"/>
			<stop  offset="0.3925" style="stop-color:#CDB782"/>
			<stop  offset="0.4557" style="stop-color:#BDA267"/>
			<stop  offset="0.6613" style="stop-color:#F0E5BF"/>
			<stop  offset="0.853" style="stop-color:#CDB782"/>
			<stop  offset="0.9557" style="stop-color:#BDA267"/>
			<stop  offset="1" style="stop-color:#BDA267"/>
		</linearGradient>
		<polygon class="st31" points="101.4,61.2 98.4,61.2 98.4,79.3 101.4,79.3 		"/>
		
			<linearGradient id="SVGID_31_" gradientUnits="userSpaceOnUse" x1="-2197.6228" y1="-640.056" x2="-2196.385" y2="-640.056" gradientTransform="matrix(155.0687 155.0687 -155.0687 155.0687 241551.8125 440014.2188)">
			<stop  offset="0" style="stop-color:#BDA267"/>
			<stop  offset="7.390000e-02" style="stop-color:#BDA267"/>
			<stop  offset="0.1379" style="stop-color:#CBB580"/>
			<stop  offset="0.2729" style="stop-color:#F0E4BE"/>
			<stop  offset="0.2746" style="stop-color:#F0E5BF"/>
			<stop  offset="0.3925" style="stop-color:#CDB782"/>
			<stop  offset="0.4557" style="stop-color:#BDA267"/>
			<stop  offset="0.6613" style="stop-color:#F0E5BF"/>
			<stop  offset="0.853" style="stop-color:#CDB782"/>
			<stop  offset="0.9557" style="stop-color:#BDA267"/>
			<stop  offset="1" style="stop-color:#BDA267"/>
		</linearGradient>
		<path class="st32" d="M116.3,79.8c0.8,0,1.7-0.6,1.7-1.6V63.5c0-1.1-1-1.7-1.8-1.8l-5.6-0.3c-0.8,0-1.7,0.6-1.7,1.6v14.8
			c0,1.1,1,1.7,1.8,1.8L116.3,79.8L116.3,79.8z M115.1,77.3l-3.1-0.2V63.8l3.1,0.2V77.3z"/>
		
			<linearGradient id="SVGID_32_" gradientUnits="userSpaceOnUse" x1="-2197.6228" y1="-640.0651" x2="-2196.385" y2="-640.0651" gradientTransform="matrix(155.0687 155.0687 -155.0687 155.0687 241557.6875 440008.3438)">
			<stop  offset="0" style="stop-color:#BDA267"/>
			<stop  offset="7.390000e-02" style="stop-color:#BDA267"/>
			<stop  offset="0.1379" style="stop-color:#CBB580"/>
			<stop  offset="0.2729" style="stop-color:#F0E4BE"/>
			<stop  offset="0.2746" style="stop-color:#F0E5BF"/>
			<stop  offset="0.3925" style="stop-color:#CDB782"/>
			<stop  offset="0.4557" style="stop-color:#BDA267"/>
			<stop  offset="0.6613" style="stop-color:#F0E5BF"/>
			<stop  offset="0.853" style="stop-color:#CDB782"/>
			<stop  offset="0.9557" style="stop-color:#BDA267"/>
			<stop  offset="1" style="stop-color:#BDA267"/>
		</linearGradient>
		<polygon class="st33" points="131.1,63.3 131.1,72.1 127,62.7 125.3,62.5 125.3,62.5 125.3,80.7 128.1,81 128.1,72.6 132.2,81.6 
			133.9,81.8 133.9,63.7 		"/>
	</g>
	<g>
		
			<linearGradient id="SVGID_33_" gradientUnits="userSpaceOnUse" x1="-2197.6228" y1="-640.0131" x2="-2196.385" y2="-640.0131" gradientTransform="matrix(155.0687 155.0687 -155.0687 155.0687 241523.8125 440042.2188)">
			<stop  offset="0" style="stop-color:#BDA267"/>
			<stop  offset="7.390000e-02" style="stop-color:#BDA267"/>
			<stop  offset="0.1379" style="stop-color:#CBB580"/>
			<stop  offset="0.2729" style="stop-color:#F0E4BE"/>
			<stop  offset="0.2746" style="stop-color:#F0E5BF"/>
			<stop  offset="0.3925" style="stop-color:#CDB782"/>
			<stop  offset="0.4557" style="stop-color:#BDA267"/>
			<stop  offset="0.6613" style="stop-color:#F0E5BF"/>
			<stop  offset="0.853" style="stop-color:#CDB782"/>
			<stop  offset="0.9557" style="stop-color:#BDA267"/>
			<stop  offset="1" style="stop-color:#BDA267"/>
		</linearGradient>
		<path class="st34" d="M72.6,105.7c2.5-0.3,7-2.3,9.7-3.9c-0.3-0.1-0.5-0.3-0.8-0.5c-3.9,1.5-8.1,1.8-11.2,1.4
			c0.3,0.1,0.7,0.3,1.1,0.4c1.2,0.3,2.6,0.6,4.4,0.3l0.7-0.1l-0.6,0.5C75.4,104.3,74,105.2,72.6,105.7z"/>
		
			<linearGradient id="SVGID_34_" gradientUnits="userSpaceOnUse" x1="-2197.6228" y1="-640.0087" x2="-2196.385" y2="-640.0087" gradientTransform="matrix(155.0687 155.0687 -155.0687 155.0687 241520.9375 440045.0938)">
			<stop  offset="0" style="stop-color:#BDA267"/>
			<stop  offset="7.390000e-02" style="stop-color:#BDA267"/>
			<stop  offset="0.1379" style="stop-color:#CBB580"/>
			<stop  offset="0.2729" style="stop-color:#F0E4BE"/>
			<stop  offset="0.2746" style="stop-color:#F0E5BF"/>
			<stop  offset="0.3925" style="stop-color:#CDB782"/>
			<stop  offset="0.4557" style="stop-color:#BDA267"/>
			<stop  offset="0.6613" style="stop-color:#F0E5BF"/>
			<stop  offset="0.853" style="stop-color:#CDB782"/>
			<stop  offset="0.9557" style="stop-color:#BDA267"/>
			<stop  offset="1" style="stop-color:#BDA267"/>
		</linearGradient>
		<path class="st35" d="M118,132.2c0-1.1-0.3-2.3-1-3.4c-2.6,4.4-10,7.5-18.2,7.5c-8.2,0-15.6-3.1-18.1-7.5c-0.7,1.1-1,2.3-1,3.4
			c0,1.9,0.8,3.8,2.5,5.4c3.4,3.4,9.8,5.5,16.6,5.5C109.4,143.1,118,138.2,118,132.2z"/>
		
			<linearGradient id="SVGID_35_" gradientUnits="userSpaceOnUse" x1="-2197.6228" y1="-640.0275" x2="-2196.385" y2="-640.0275" gradientTransform="matrix(155.0687 155.0687 -155.0687 155.0687 241533.2344 440032.7813)">
			<stop  offset="0" style="stop-color:#BDA267"/>
			<stop  offset="7.390000e-02" style="stop-color:#BDA267"/>
			<stop  offset="0.1379" style="stop-color:#CBB580"/>
			<stop  offset="0.2729" style="stop-color:#F0E4BE"/>
			<stop  offset="0.2746" style="stop-color:#F0E5BF"/>
			<stop  offset="0.3925" style="stop-color:#CDB782"/>
			<stop  offset="0.4557" style="stop-color:#BDA267"/>
			<stop  offset="0.6613" style="stop-color:#F0E5BF"/>
			<stop  offset="0.853" style="stop-color:#CDB782"/>
			<stop  offset="0.9557" style="stop-color:#BDA267"/>
			<stop  offset="1" style="stop-color:#BDA267"/>
		</linearGradient>
		<path class="st36" d="M119.2,125.1L119.2,125.1c0.6,1,1.2,2.4,1.6,4c0.3,0,0.8,0.1,1.5,0.1c1.8,0,4.5-0.4,7.2-1.9
			C127.5,127.3,123.5,127,119.2,125.1z"/>
		
			<linearGradient id="SVGID_36_" gradientUnits="userSpaceOnUse" x1="-2197.6228" y1="-640.0201" x2="-2196.385" y2="-640.0201" gradientTransform="matrix(155.0687 155.0687 -155.0687 155.0687 241528.4688 440037.5625)">
			<stop  offset="0" style="stop-color:#BDA267"/>
			<stop  offset="7.390000e-02" style="stop-color:#BDA267"/>
			<stop  offset="0.1379" style="stop-color:#CBB580"/>
			<stop  offset="0.2729" style="stop-color:#F0E4BE"/>
			<stop  offset="0.2746" style="stop-color:#F0E5BF"/>
			<stop  offset="0.3925" style="stop-color:#CDB782"/>
			<stop  offset="0.4557" style="stop-color:#BDA267"/>
			<stop  offset="0.6613" style="stop-color:#F0E5BF"/>
			<stop  offset="0.853" style="stop-color:#CDB782"/>
			<stop  offset="0.9557" style="stop-color:#BDA267"/>
			<stop  offset="1" style="stop-color:#BDA267"/>
		</linearGradient>
		<path class="st37" d="M116.3,123.2c0-3.4-3.3-6-8.4-7.4c-1.2,0.5-2.6,0.9-4.1,1.4c-1.4,0.4-3,1-4.7,1.6c-3.8,1.4-4.6,2.6-4.7,3.2
			c-0.1,0.4,0.1,0.7,0.2,0.8c1.5-0.8,3.6-1.5,5.9-1.7c0.7-0.1,1.3-0.1,2-0.1c3.6,0,5.9,1,5.9,2.6c0,0.4-0.2,0.9-0.6,1.3
			c-1.2,1.2-4.3,2-7.8,2c-3,0-5.8-0.9-7.3-2.4c-0.8-0.8-1.2-1.7-1.2-2.6c0-3.3,4.8-4.9,7.9-6c0.4-0.1,0.8-0.3,1.1-0.4
			c2.8-1,6.1-2.2,6.1-2.2c5.4-1.7,8.2-6.4,7.5-10.8c-0.8-5.3-6-9-12.6-9c-0.6,0-1.3,0-1.9,0.1c0,0-0.6,0.1-1.3,0.1
			c-0.8,0-1.3-0.1-1.8-0.3c-1-0.5-1.9-0.6-1.9-0.6c-7.7,1.7-12.2,5-13,5.6c0.3,0.7,1.5,3.1,5.3,2.6c1.4-0.2,2.6-0.2,3.6-0.3
			c2.3-0.1,3.5-0.1,5.3-2.1c1.2-1.4,2.8-1.5,3.2-1.5h0.1c5,0,9.4,2.8,9.5,6.2c0,1.5-0.7,3-2.1,4.1c-1.1,0.9-2.8,1.5-4.2,2.1
			c0,0-3.5,1.2-6.3,2.3c-0.2,0-13.6,4.3-13.6,12.4c0,1.6,0.7,3.2,2.1,4.5c3,3,8.7,4.8,14.9,4.6C108.7,132.9,116.3,128.4,116.3,123.2
			z M91.4,96.7c-0.3,0.2-1.1,0.2-2,0.2c-1.2,0-2.4-0.1-2.4-0.1s2.8-1.4,5.4-2.1C92.4,94.7,92,96.3,91.4,96.7z"/>
	</g>
</g>
</svg>
