<svg clip-rule="evenodd" fill-rule="evenodd" stroke-linejoin="round" stroke-miterlimit="2" viewBox="0 0 560 400" xmlns="http://www.w3.org/2000/svg"><g fill="#101820" fill-rule="nonzero" transform="matrix(.467976 0 0 .467976 92.9944 119.784)"><path d="m330.19 18.15c1.51-.63 3.19-.42 4.79-.5 22.97.13 45.95-.09 68.92.11-4.72 16.66-9.48 33.32-14.3 49.95-1.44 5.59-6.76 9.88-12.57 9.88-10.35.06-20.7.05-31.05 0-6.22.07-10.86-4.56-15.45-8.09-4.02-3.36-8.52-6.15-12.2-9.89 1.71-8.02 4.48-15.79 6.6-23.72 1.84-5.88 3.11-11.96 5.26-17.74z"/><path d="m414.6 132.54c11.19-38.28 21.83-76.73 33.14-114.98 23.67.11 47.34-.08 71 .1-8.14 30.43-17.58 60.51-25.76 90.93 18.34.02 36.69-.01 55.04.01 4.13-.08 8.14 1.46 11.33 4.04 8.99 7.01 17.96 14.05 27 20.99 2.6 2.06 5.4 4.29 6.45 7.57 1.24 3.3.37 6.86-.57 10.11-14.9 51.52-29.59 103.1-44.44 154.64-3.3 11.5-14.85 19.68-26.77 19.27-53.84-.07-107.69.14-161.53-.1 18.1-64.27 36.84-128.36 55.11-192.58m62.35 31.35c-10.12 35.5-20.52 70.94-30.39 106.51 10.14.22 20.29.01 30.44.13 2.94-.04 6.27.15 8.63-1.94 2.78-2.37 3.29-6.21 4.33-9.5 8-28.07 16.06-56.12 24.11-84.18.82-2.96 1.91-5.86 2.33-8.9.22-2.4-2.03-4.39-4.37-4.22-10.02-.19-20.05.03-30.07-.1-1.9.06-4.81-.48-5.01 2.2z"/><path d="m49.28 108.67c90.24-.17 180.49-.01 270.74-.09 4.16-.14 8.34 1.14 11.6 3.76 9.61 7.4 19.16 14.89 28.81 22.26 2.51 1.92 4.95 4.28 5.72 7.46 1.39 4.77-.88 9.48-2.04 14.04-16.04 56.33-32.35 112.59-48.33 168.94-24.58.35-49.18.21-73.76.07 14.78-52.48 30.12-104.8 45.01-157.25 1.53-3.26-1.62-6.64-4.97-6.12-10.98.09-21.98-.27-32.94.17-.28.31-.83.93-1.11 1.23-15.53 53.92-30.89 107.89-46.3 161.84-23.74.51-47.51.17-71.27.17 3.15-12.42 7.02-24.65 10.49-36.99 10.63-37.11 21.22-74.23 31.91-111.32.96-3.58 2.4-7.07 2.83-10.77.26-2.47-2.27-4.51-4.63-4.3-10.35-.14-20.71.04-31.06-.08-1.94.11-5.1-.53-5.29 2.26-15.29 53.68-30.71 107.33-45.96 161.02-5.9.45-11.82.19-17.73.25-18.68-.05-37.36.11-56.03-.09 14.57-52.26 29.82-104.34 44.54-156.56 1.54-6.3 1.6-12.96.32-19.3-3.31-13.59-7.41-26.98-10.55-40.6z"/><path d="m683.46 111.49c3.39-2.26 7.5-3.08 11.54-2.92 29.74.17 59.5-.19 89.24.18-13.08 16.36-26.92 32.09-40.21 48.27-1.41 1.55-2.59 3.43-4.42 4.5-9.87.44-19.77-.22-29.63.25-4.99.36-8.85 4.51-9.84 9.24-14.62 51.41-29.54 102.73-44.17 154.14-23.73.09-47.47.16-71.2-.04 16.43-58.49 33.46-116.83 50.13-175.26 1.48-5.67 4.97-10.81 9.97-13.95 12.85-8.14 25.74-16.25 38.59-24.41z"/></g></svg>