<?xml version="1.0" encoding="utf-8"?>
<!-- Generator: Adobe Illustrator 24.2.3, SVG Export Plug-In . SVG Version: 6.00 Build 0)  -->
<svg version="1.1" id="Layer_1" xmlns="http://www.w3.org/2000/svg" xmlns:xlink="http://www.w3.org/1999/xlink" x="0px" y="0px"
	 viewBox="0 0 800 800" style="enable-background:new 0 0 800 800;" xml:space="preserve">
<g>
	<g>
		<g>
			<polygon points="338.1,294.3 292.1,323.7 263.9,384.9 377.1,312.5 			"/>
			<path d="M539.7,526.1c-16.4,18-38,24-59.4,14.2c-0.2,0-0.6-0.4-1.4-0.6c2.6-5.8,28.4-61.6,28.4-61.6l-68,43.4l-93.4-43.2
				l53.4-34.2l-39-18l-69.8,44.6l-8.2,18l333.6,154L539.7,526.1z"/>
			<g>
				<path d="M540.3,319.7c-1.8,4-22.4,48.4-22.4,48.4l56.6-36.2l68.2-147.8l-116.6,76.4C544.3,276.9,550.1,298.5,540.3,319.7z"/>
			</g>
			<path d="M259.9,480.3l41-88.8l-56.8,36.2l-86.8,188.2l116.6-76.2C255.9,523.3,250.1,501.5,259.9,480.3z"/>
			<path d="M396.9,475.9l39.4,18.2l90.2-57.6l28.4-61.4C554.9,374.9,410.3,467.3,396.9,475.9z"/>
		</g>
		<g>
			<path d="M364.7,215.1c7.6-1.4,15.2-2.4,23-3c43-2.8,84.6,8.8,119.4,33l32-21c-43.6-34.6-97.8-51.6-153.8-48
				c-24.6,1.6-48.2,7.2-69.8,16L364.7,215.1z"/>
			<path d="M584.9,365.1c1.4,7.4,2.4,15,2.8,22.8c2.8,42.8-8.8,84.4-33,119.2l20.8,32c33.2-42,51.6-96,48-153.6
				c-1.6-24.4-7-47.8-15.8-69.8L584.9,365.1z"/>
			<path d="M215.1,435.3c-1.4-7.6-2.4-15.2-3-23.2c-2.8-44,9.6-85.4,33-119.2l-21-32c-33.2,42-51.8,96-48,153.6
				c1.6,24.8,7.2,48.2,16,70L215.1,435.3z"/>
			<path d="M435.3,584.9c-7.6,1.4-15.2,2.4-23,3c-44,2.8-85.4-9.6-119.2-33l-32,21c42,33.2,96,51.6,153.6,48
				c24.6-1.6,48.2-7.2,69.8-16L435.3,584.9z"/>
		</g>
	</g>
	<g>
		<path d="M518.7,311.7L184.1,157.3l76.2,116.6c16.4-18,38-24,59.4-14.2l84.8,39.2l-17.2,37.4l-49.4,31.4l-28,60.8l46.8-30l66,30.4
			l59.2-37.8L518.7,311.7z M453.3,366.5l-33.2,21.4l-27-12.4l22.6-14.4l21.6-47l33.2,15.4L453.3,366.5z"/>
	</g>
</g>
</svg>
