<?xml version="1.0" encoding="UTF-8"?>
<svg version="1.1" xmlns="http://www.w3.org/2000/svg" width="5000" height="5000">
<path d="M0 0 C479.49 0 958.98 0 1453 0 C1453.20625 234.815625 1453.4125 469.63125 1453.625 711.5625 C1453.71604004 785.84158447 1453.80708008 860.12066895 1453.90087891 936.65063477 C1453.94604492 1027.00964355 1453.94604492 1027.00964355 1453.95443726 1069.2440033 C1453.96410288 1099.86576224 1454.00390052 1130.48729505 1454.06125454 1161.10899234 C1454.12150691 1193.37224587 1454.14963616 1225.63536732 1454.13562234 1257.89867828 C1454.13367981 1262.39216313 1454.13209415 1266.88564805 1454.13072276 1271.37913311 C1454.13044096 1272.25982524 1454.13015916 1273.14051738 1454.12986882 1274.04789716 C1454.12635025 1287.8953424 1454.15600728 1301.74250158 1454.20019775 1315.58986831 C1454.24250171 1329.05783869 1454.24956816 1342.52543516 1454.2183534 1355.99344041 C1454.20111626 1363.896858 1454.21161954 1371.7990943 1454.26216373 1379.70237555 C1454.29664539 1385.56831752 1454.27938585 1391.43334357 1454.24139837 1397.29929071 C1454.23421833 1399.66647517 1454.24404371 1402.03378323 1454.27235283 1404.4008093 C1454.47011689 1422.04433943 1454.47011689 1422.04433943 1450.84116833 1426.87184101 C1448.26461817 1428.71794242 1445.94563465 1429.86382746 1443 1431 C1441.56324531 1431.88558661 1440.1414093 1432.79655586 1438.74609375 1433.74609375 C1437.31130174 1434.64547593 1435.87504475 1435.5425243 1434.4375 1436.4375 C1432.77558358 1437.47973866 1431.11415075 1438.5227487 1429.453125 1439.56640625 C1428.57462891 1440.11828613 1427.69613281 1440.67016602 1426.79101562 1441.23876953 C1421.74051929 1444.42581297 1416.71499869 1447.65184781 1411.6875 1450.875 C1403.79983267 1455.92959979 1395.90624376 1460.97450397 1388 1466 C1377.0429733 1472.96616179 1366.10699343 1479.96500068 1355.17333984 1486.96777344 C1349.94966156 1490.31304949 1344.72477559 1493.65643813 1339.5 1497 C1337.41666075 1498.33332409 1335.33332742 1499.66665743 1333.25 1501 C1320.75 1509 1308.25 1517 1295.75 1525 C1294.7185083 1525.66016113 1293.6870166 1526.32032227 1292.62426758 1527.00048828 C1290.5433993 1528.33223097 1288.46250742 1529.66393677 1286.3815918 1530.99560547 C1281.1353477 1534.35297179 1275.88953061 1537.71100188 1270.64453125 1541.0703125 C1259.8734827 1547.96802832 1249.09483934 1554.85339869 1238.30126953 1561.71582031 C1228.24498626 1568.11182594 1218.20930445 1574.53995139 1208.17333984 1580.96777344 C1202.94966155 1584.31304949 1197.72476828 1587.65642669 1192.5 1591 C1190.43098665 1592.32421417 1188.36197624 1593.64843293 1186.29296875 1594.97265625 C1181.98332152 1597.73085746 1177.67338771 1600.48861021 1173.36328125 1603.24609375 C1172.26628906 1603.94798828 1171.16929688 1604.64988281 1170.0390625 1605.37304688 C1167.97533806 1606.69348073 1165.91154283 1608.01380396 1163.84765625 1609.33398438 C1156.22463944 1614.211685 1148.61271258 1619.10611334 1141 1624 C1243.96 1624.33 1346.92 1624.66 1453 1625 C1453.18696742 1746.73252767 1453.18696742 1746.73252767 1453.24936909 1789.27544438 C1453.25355193 1792.12681681 1453.25773611 1794.97818923 1453.26192158 1797.82956166 C1453.29657383 1821.44179393 1453.3308969 1845.05402668 1453.36499023 1868.66625977 C1453.36613813 1869.46103966 1453.36728602 1870.25581956 1453.36846869 1871.0746837 C1453.49199056 1956.60720002 1453.61041599 2042.13972405 1453.97149706 2381.46486631 C1453.97389422 2384.29776893 1453.97629626 2387.13067155 1453.97869991 2389.96357417 C1454.04679971 2470.23550761 1454.11043714 2550.50744406 1454.16809933 2630.77938569 C1454.1702335 2633.7503612 1454.17236794 2636.72133671 1454.17450258 2639.69231221 C1454.17520755 2640.67357326 1454.17591251 2641.65483432 1454.17663885 2642.66583055 C1454.2031587 2679.56262767 1454.23069814 2716.45942401 1454.25884616 2753.35621992 C1454.26190349 2757.36512509 1454.26494921 2761.37403026 1454.26798438 2765.38293545 C1454.33964154 2860.01726467 1454.42963288 2954.65152526 1454.57928467 3049.2857666 C1454.58085866 3050.28192016 1454.58243266 3051.27807372 1454.58405436 3052.30441375 C1454.63642614 3085.43120017 1454.69057746 3118.55798369 1454.74497413 3151.68476685 C1454.79411815 3181.61607094 1454.84262326 3211.54737594 1454.88902187 3241.47868443 C1454.89054635 3242.46193821 1454.89207082 3243.44519199 1454.89364148 3244.45824134 C1454.98893963 3306.0312913 1455.05656312 3367.60432505 1455.09621525 3429.17743587 C1455.09683127 3430.12834188 1455.0974473 3431.07924789 1455.09808199 3432.05896924 C1455.12511384 3473.81957119 1455.14637348 3515.58017397 1455.16103169 3557.34078207 C1455.16695541 3574.14111345 1455.17373423 3590.94144449 1455.18098131 3607.74177535 C1455.1821758 3610.52740661 1455.18334257 3613.31303787 1455.18450636 3616.09866914 C1455.20250993 3658.71701542 1455.23960573 3701.33523646 1455.33206058 3743.9534924 C1455.33405467 3744.87282911 1455.33604876 3745.79216581 1455.33810327 3746.7393612 C1455.37029864 3761.52853545 1455.40408413 3776.31770607 1455.43814395 3791.10687613 C1455.53482396 3833.08677252 1455.62081071 3875.06653832 1455.62505352 3917.04656112 C1455.62514494 3917.8982056 1455.62523635 3918.74985008 1455.62533054 3919.62730196 C1455.62709677 3938.20665278 1455.62258349 3956.78599653 1455.61192359 3975.36534422 C1455.60777364 3982.77514567 1455.60448408 3990.18494746 1455.60147667 3997.59474945 C1455.60112625 3998.40303989 1455.60077582 3999.21133032 1455.60041478 4000.0441144 C1455.5897102 4025.68897959 1455.64988366 4051.33302439 1455.75100077 4076.9776746 C1455.85027298 4102.22687306 1455.87995454 4127.47505486 1455.80807365 4152.72438101 C1455.79824099 4156.18237626 1455.78921515 4159.64037318 1455.78067458 4163.09837186 C1455.77897192 4163.77534523 1455.77726926 4164.45231859 1455.77551501 4165.14980631 C1455.74926794 4176.47139326 1455.81368963 4187.79069209 1455.90299104 4199.11201221 C1455.97403195 4208.91001885 1455.96217875 4218.70562507 1455.88192467 4228.50355591 C1455.83871892 4234.06574887 1455.83157811 4239.6214239 1455.92641063 4245.18312256 C1456.43688633 4277.11170525 1456.43688633 4277.11170525 1450.78358256 4285.15241783 C1445.53135727 4290.17083875 1439.71641061 4293.12161705 1432.99608386 4295.72723745 C1427.994588 4297.8519165 1423.61385836 4300.9053897 1419.125 4303.9375 C1417.30134776 4305.09594438 1415.47728235 4306.25373938 1413.65234375 4307.41015625 C1407.65406075 4311.21617338 1401.66982018 4315.04395523 1395.6875 4318.875 C1394.12346436 4319.87648071 1394.12346436 4319.87648071 1392.52783203 4320.89819336 C1390.40961678 4322.25464011 1388.29145287 4323.61116706 1386.17333984 4324.96777344 C1379.91065762 4328.97843407 1373.64633986 4332.9865396 1367.38232422 4336.99511719 C1362.13584796 4340.35266497 1356.88977765 4343.71084365 1351.64453125 4347.0703125 C1340.8734827 4353.96802832 1330.09483934 4360.85339869 1319.30126953 4367.71582031 C1309.24498626 4374.11182594 1299.20930445 4380.53995139 1289.17333984 4386.96777344 C1283.94966156 4390.31304949 1278.72477559 4393.65643813 1273.5 4397 C1271.41666075 4398.33332409 1269.33332742 4399.66665743 1267.25 4401 C1254.75 4409 1242.25 4417 1229.75 4425 C1228.20276245 4425.9902417 1228.20276245 4425.9902417 1226.62426758 4427.00048828 C1224.5433993 4428.33223097 1222.46250742 4429.66393677 1220.3815918 4430.99560547 C1215.1353477 4434.35297179 1209.88953061 4437.71100188 1204.64453125 4441.0703125 C1193.8734827 4447.96802832 1183.09483934 4454.85339869 1172.30126953 4461.71582031 C1162.24498626 4468.11182594 1152.20930445 4474.53995139 1142.17333984 4480.96777344 C1136.94966156 4484.31304949 1131.72477559 4487.65643813 1126.5 4491 C1124.41666075 4492.33332409 1122.33332742 4493.66665743 1120.25 4495 C1107.75 4503 1095.25 4511 1082.75 4519 C1081.20276245 4519.9902417 1081.20276245 4519.9902417 1079.62426758 4521.00048828 C1077.5433993 4522.33223097 1075.46250742 4523.66393677 1073.3815918 4524.99560547 C1068.1353477 4528.35297179 1062.88953061 4531.71100188 1057.64453125 4535.0703125 C1046.8734827 4541.96802832 1036.09483934 4548.85339869 1025.30126953 4555.71582031 C1015.24498626 4562.11182594 1005.20930445 4568.53995139 995.17333984 4574.96777344 C989.94966156 4578.31304949 984.72477559 4581.65643813 979.5 4585 C977.41666075 4586.33332409 975.33332742 4587.66665743 973.25 4589 C960.75 4597 948.25 4605 935.75 4613 C934.7185083 4613.66016113 933.6870166 4614.32032227 932.62426758 4615.00048828 C930.5433993 4616.33223097 928.46250742 4617.66393677 926.3815918 4618.99560547 C921.1353477 4622.35297179 915.88953061 4625.71100188 910.64453125 4629.0703125 C899.87570707 4635.96660385 889.09957248 4642.85100181 878.30786133 4649.71142578 C872.42492753 4653.45275365 866.54910072 4657.20500734 860.67797852 4660.96484375 C857.53476625 4662.97773593 854.39043908 4664.9888784 851.24609375 4667 C847.02497222 4669.70067051 842.80974695 4672.41026916 838.59765625 4675.125 C836.58599309 4676.41675325 834.57427662 4677.70842347 832.5625 4679 C831.62664063 4679.60585938 830.69078125 4680.21171875 829.7265625 4680.8359375 C828.86933594 4681.38507813 828.01210937 4681.93421875 827.12890625 4682.5 C826.37681885 4682.9846875 825.62473145 4683.469375 824.84985352 4683.96875 C823 4685 823 4685 821 4685 C820.67 3742.52 820.34 2800.04 820 1829 C810.1 1835.435 810.1 1835.435 800 1842 C795.94093766 1844.6099165 791.88034246 1847.21642554 787.8125 1849.8125 C785.68358091 1851.17315699 783.55467504 1852.53383468 781.42578125 1853.89453125 C780.36311035 1854.57338379 779.30043945 1855.25223633 778.20556641 1855.95166016 C772.96847475 1859.2981338 767.73438162 1862.64928974 762.5 1866 C760.42058176 1867.33074299 758.34115467 1868.66147214 756.26171875 1869.9921875 C752.05549223 1872.68411987 747.84981955 1875.37691472 743.64453125 1878.0703125 C732.8734827 1884.96802832 722.09483934 1891.85339869 711.30126953 1898.71582031 C701.252187 1905.10724612 691.22394868 1911.53114981 681.1953125 1917.95458984 C677.98551332 1920.00927333 674.77422814 1922.0616145 671.5625 1924.11328125 C670.49427002 1924.79600098 669.42604004 1925.4787207 668.32543945 1926.18212891 C666.3425803 1927.44931984 664.35938827 1928.71599017 662.37573242 1929.98193359 C660.46910979 1931.20087065 658.58864853 1932.46161402 656.735321 1933.76014953 C653.94121665 1935.59077587 651.23747289 1936.64471753 648.07310526 1937.69616036 C641.70065081 1940.19006051 636.78686763 1943.17251043 633 1949 C628.59453983 1961.55155717 630.30592401 1976.87261958 630.48888189 1989.93673263 C630.54807305 1995.74892386 630.49073077 2001.5601777 630.44837981 2007.37235495 C630.38994142 2017.59956622 630.40542411 2027.82475534 630.47038153 2038.05188236 C630.54002722 2049.08197743 630.5654136 2060.1108919 630.5379543 2071.14118656 C630.53623918 2071.8409018 630.53452405 2072.54061705 630.53275696 2073.26153578 C630.52380275 2076.83428313 630.51414679 2080.40702824 630.50425147 2083.97977309 C630.43349511 2110.06973908 630.46123523 2136.15889121 630.53851509 2162.24879837 C630.6165229 2188.69423506 630.65079061 2215.1391985 630.63144493 2241.58474922 C630.63085441 2242.41861712 630.63026389 2243.25248502 630.62965548 2244.11162164 C630.62422799 2251.75340347 630.61831343 2259.39518485 630.61181854 2267.03696585 C630.59555469 2286.199759 630.58590105 2305.36255262 630.58063364 2324.52535188 C630.5802646 2325.84254572 630.5802646 2325.84254572 630.57988811 2327.18634954 C630.56834707 2370.48114833 630.63186722 2413.77580201 630.70020294 2457.07053566 C630.72420867 2472.31239545 630.74785778 2487.55425568 630.77019215 2502.79611802 C630.77158077 2503.74359905 630.7729694 2504.69108008 630.77440011 2505.66727266 C630.83828678 2549.55648932 630.8508689 2593.44567459 630.85030726 2637.33493217 C630.85027311 2640.20529418 630.8502631 2643.07565619 630.85025929 2645.9460182 C630.85021362 2663.25432023 630.84963349 2680.56262221 630.8484363 2697.8709242 C630.8454834 2740.89942485 630.84894124 2783.92792374 630.85674667 2826.95642376 C630.85692119 2827.93599153 630.8570957 2828.9155593 630.85727551 2829.92481094 C630.86862993 2893.36923787 630.90637636 2956.81361622 630.96622086 3020.25801563 C630.96717609 3021.27095389 630.96813133 3022.28389214 630.96911551 3023.3275255 C630.9982497 3054.16213189 631.02933737 3084.99673627 631.06080719 3115.83134035 C631.09562383 3149.95366062 631.13010723 3184.07598118 631.16314697 3218.19830322 C631.16463893 3219.73741029 631.16463893 3219.73741029 631.16616103 3221.30761043 C631.26052046 3318.76250381 631.30109501 3416.21739601 631.32776301 3513.67232867 C631.3288965 3517.80021536 631.33004557 3521.92810205 631.33119528 3526.05598874 C631.34177388 3564.04171157 631.35172119 3602.02743457 631.36087568 3640.01315777 C631.36111916 3641.02323303 631.36136264 3642.03330829 631.3616135 3643.0739919 C631.36235053 3646.13222814 631.36308733 3649.19046439 631.36382411 3652.24870064 C631.38373187 3734.86832293 631.40914545 3817.48794326 631.43812597 3900.10756286 C631.43914709 3903.0226296 631.44016399 3905.93769633 631.44117961 3908.85276307 C631.47418376 4003.53161437 631.51710382 4098.21045351 631.77441406 4434.05004883 C631.77511346 4434.86965746 631.77581286 4435.6892661 631.77653345 4436.53371136 C631.84721506 4519.35581108 631.92137452 4602.17790743 632 4685 C627.76907097 4683.37375345 624.06196202 4681.30628617 620.25 4678.875 C619.56736084 4678.44396973 618.88472168 4678.01293945 618.18139648 4677.56884766 C615.78390446 4676.05163352 613.39150729 4674.52662968 611 4673 C610.08041504 4672.41347656 609.16083008 4671.82695312 608.21337891 4671.22265625 C601.8935512 4667.18903591 595.58084871 4663.14436008 589.27001953 4659.09667969 C584.01558218 4655.72762579 578.75766546 4652.36401301 573.5 4649 C571.41664892 4647.6666944 569.33331561 4646.33336103 567.25 4645 C566.21875 4644.34 565.1875 4643.68 564.125 4643 C504.75000014 4605.00000009 504.75000014 4605.00000009 501.62426758 4602.99951172 C499.5433993 4601.66776903 497.46250742 4600.33606323 495.3815918 4599.00439453 C490.1353477 4595.64702821 484.88953061 4592.28899812 479.64453125 4588.9296875 C469.77120485 4582.60686764 459.89397507 4576.29047013 450 4570 C439.0430562 4563.03370716 428.10699399 4556.03499968 417.17333984 4549.03222656 C411.94966156 4545.68695051 406.72477559 4542.34356187 401.5 4539 C399.41666075 4537.66667591 397.33332742 4536.33334257 395.25 4535 C394.21875 4534.34 393.1875 4533.68 392.125 4533 C307.75000016 4479.0000001 307.75000016 4479.0000001 304.62426758 4476.99951172 C302.5433993 4475.66776903 300.46250742 4474.33606323 298.3815918 4473.00439453 C293.1353477 4469.64702821 287.88953061 4466.28899812 282.64453125 4462.9296875 C272.77120485 4456.60686764 262.89397507 4450.29047013 253 4444 C242.0430562 4437.03370716 231.10699399 4430.03499968 220.17333984 4423.03222656 C214.94966156 4419.68695051 209.72477559 4416.34356187 204.5 4413 C202.41666075 4411.66667591 200.33332742 4410.33334257 198.25 4409 C197.21875 4408.34 196.1875 4407.68 195.125 4407 C85.75000014 4337.00000009 85.75000014 4337.00000009 82.62426758 4334.99951172 C80.5433993 4333.66776903 78.46250742 4332.33606323 76.3815918 4331.00439453 C71.1353477 4327.64702821 65.88953061 4324.28899812 60.64453125 4320.9296875 C58.53388588 4319.57807548 56.42320894 4318.22651276 54.3125 4316.875 C53.27714111 4316.21201904 52.24178223 4315.54903809 51.17504883 4314.8659668 C46.20208503 4311.68322304 41.22609063 4308.50543437 36.2421875 4305.33984375 C35.30592529 4304.74510254 34.36966309 4304.15036133 33.4050293 4303.53759766 C31.70661488 4302.4594379 30.00764984 4301.38214446 28.30786133 4300.30615234 C26.66454053 4299.26318964 25.03889021 4298.19195738 23.43032995 4297.09614337 C20.77064858 4295.36958373 18.03284098 4294.09764258 15.13745219 4292.81015518 C8.5766755 4289.63310374 1.74680923 4286.22242585 -1.16555514 4279.18259437 C-2.92621643 4271.26424072 -2.69219479 4263.17086537 -2.51792443 4255.1041187 C-2.45944719 4251.35826782 -2.51817637 4247.61384731 -2.5614297 4243.86804079 C-2.62154218 4237.27351403 -2.6073332 4230.68238055 -2.5447049 4224.08792548 C-2.45111016 4214.18798501 -2.47383145 4204.29058772 -2.51868567 4194.39042718 C-2.59209236 4177.44182164 -2.57030687 4160.49451303 -2.49766365 4143.5459583 C-2.4240441 4126.27377259 -2.39452028 4109.00233018 -2.4179779 4091.72999457 C-2.41943763 4090.63543544 -2.42089735 4089.5408763 -2.42240131 4088.4131487 C-2.43005123 4082.82460277 -2.4384034 4077.23605811 -2.44699516 4071.64751355 C-2.50827518 4030.80774236 -2.47089387 3989.96851382 -2.3841095 3949.1288147 C-2.29645196 3907.72535068 -2.25246714 3866.3221787 -2.26215363 3824.91861916 C-2.26243944 3823.61367211 -2.26272525 3822.30872506 -2.26301972 3820.96423416 C-2.26565475 3809.00555741 -2.26877698 3797.04688083 -2.27247976 3785.08820436 C-2.28174253 3755.09855482 -2.28439208 3725.10890654 -2.28265524 3695.11925566 C-2.28258029 3693.74490454 -2.28250535 3692.37055342 -2.28242813 3690.9545553 C-2.27814283 3623.17516926 -2.19876806 3555.39589339 -2.11460114 3487.61656761 C-2.08501783 3463.75154758 -2.05579104 3439.88652717 -2.02787876 3416.02150512 C-2.02614342 3414.53800452 -2.02440808 3413.05450393 -2.02262015 3411.52604878 C-1.9426896 3342.82167546 -1.91404495 3274.11731025 -1.89855938 3205.41289575 C-1.89754418 3200.9202318 -1.89650483 3196.42756786 -1.89545929 3191.93490392 C-1.88917738 3164.8442984 -1.88343 3137.75369277 -1.8782998 3110.663087 C-1.86552247 3043.31417129 -1.84633304 2975.9652582 -1.82279587 2908.61634541 C-1.8222632 2907.08306892 -1.82173053 2905.54979243 -1.82118171 2903.97005302 C-1.78662715 2804.65397209 -1.72567345 2705.33792836 -1.64262772 2606.02187634 C-1.64130194 2604.43608179 -1.63997616 2602.85028724 -1.63861021 2601.21643831 C-1.59819602 2552.94310839 -1.55582847 2504.66978021 -1.51307884 2456.39645232 C-1.46577958 2402.97591104 -1.41881352 2349.55536949 -1.37329102 2296.13482666 C-1.37192102 2294.52846177 -1.37055103 2292.92209687 -1.36913953 2291.26705426 C-1.23914241 2138.71156945 -1.16292168 1986.15607284 -1.10061531 1833.60054713 C-1.09797245 1827.13918848 -1.09531403 1820.67782984 -1.09265495 1814.2164712 C-1.06818697 1754.75785843 -1.04435033 1695.29924542 -1.02130659 1635.84063209 C-1.02069378 1634.25958016 -1.02008098 1632.67852824 -1.0194496 1631.04956564 C-1.01759435 1626.26256572 -1.01573934 1621.4755658 -1.01388434 1616.68856588 C-0.96376675 1487.36383313 -0.90814271 1358.03910292 -0.84895161 1228.71437402 C-0.84686454 1224.15135874 -0.84478171 1219.58834346 -0.84270014 1215.02532818 C-0.77504042 1066.74658822 -0.69763056 918.46785811 -0.51594408 656.62668298 C-0.51304601 652.58862406 -0.5101533 648.55056513 -0.50726262 644.5125062 C-0.50631611 643.19070842 -0.5053696 641.86891063 -0.5043944 640.50705837 C-0.50267189 638.10137414 -0.50095008 635.69568991 -0.49922933 633.29000568 C-0.34801203 422.19332554 -0.17053684 211.09666497 0 0 Z M632 632 C632 818.78 632 1005.56 632 1198 C640.3465443 1193.52542418 640.3465443 1193.52542418 648.33203125 1188.625 C649.22067871 1188.03984619 650.10932617 1187.45469238 651.02490234 1186.85180664 C651.94480957 1186.24071045 652.8647168 1185.62961426 653.8125 1185 C655.84177586 1183.66434296 657.87174066 1182.32973212 659.90234375 1180.99609375 C661.42964111 1179.99231689 661.42964111 1179.99231689 662.98779297 1178.96826172 C667.59172087 1175.95992433 672.23044882 1173.00759841 676.875 1170.0625 C678.69924192 1168.90498443 680.52346037 1167.74743188 682.34765625 1166.58984375 C683.26820801 1166.0057373 684.18875977 1165.42163086 685.13720703 1164.81982422 C690.20293924 1161.59963252 695.25758671 1158.36213852 700.3125 1155.125 C701.87653564 1154.12351929 701.87653564 1154.12351929 703.47216797 1153.10180664 C705.59038322 1151.74535989 707.70854713 1150.38883294 709.82666016 1149.03222656 C715.05033844 1145.68695051 720.27522441 1142.34356187 725.5 1139 C727.58333925 1137.66667591 729.66667258 1136.33334257 731.75 1135 C744.25 1127 756.75 1119 769.25 1111 C770.28261963 1110.33911377 771.31523926 1109.67822754 772.37915039 1108.99731445 C774.44861357 1107.67287744 776.51811189 1106.34849533 778.58764648 1105.02416992 C783.43336354 1101.92323199 788.27874357 1098.82177167 793.12283325 1095.71829224 C794.8331032 1094.62260469 796.54348758 1093.52709599 798.25390625 1092.43164062 C800.39606063 1091.0595996 802.53800168 1089.68722543 804.6796875 1088.31445312 C805.65292969 1087.69119141 806.62617188 1087.06792969 807.62890625 1086.42578125 C808.8984314 1085.61234253 808.8984314 1085.61234253 810.19360352 1084.7824707 C813 1083 813 1083 814.99024057 1082.34858066 C817.71085494 1081.24221914 819.1197082 1080.28353374 821 1078 C822.26407643 1072.18753178 822.04459651 1066.39062878 821.96203613 1060.46684265 C821.96552376 1058.62285678 821.97252662 1056.77887476 821.98274946 1054.93491393 C822.00067323 1049.86060296 821.9685925 1044.78763788 821.92852497 1039.71349847 C821.89403683 1034.24455087 821.905664 1028.77568161 821.91174316 1023.30665588 C821.9159418 1013.82890976 821.89080255 1004.35160358 821.84584045 994.87396812 C821.7808751 981.17090876 821.75999415 967.46806253 821.74993652 953.76486585 C821.73241942 931.53347943 821.67922667 909.30229852 821.60351562 887.07104492 C821.53004617 865.47307556 821.47337442 843.8751689 821.43945312 822.27709961 C821.43840092 821.6114083 821.43734871 820.945717 821.43626461 820.25985323 C821.42466984 812.91139692 821.4135351 805.56293997 821.40258884 798.21448267 C821.31962986 742.80944677 821.17213567 687.40484468 821 632 C758.63 632 696.26 632 632 632 Z " fill="#FF198F" transform="translate(1773,315)"/>
<path d="M0 0 C208.56 0 417.12 0 632 0 C632 395.01 632 790.02 632 1197 C650.42395653 1185.50268647 650.42395653 1185.50268647 668.6953125 1173.7890625 C673.60891619 1170.59671186 678.55405648 1167.45442802 683.5 1164.3125 C694.62480531 1157.2438666 705.72748186 1150.14101438 716.82666016 1143.03222656 C722.05033844 1139.68695051 727.27522441 1136.34356187 732.5 1133 C734.58333925 1131.66667591 736.66667258 1130.33334257 738.75 1129 C751.25000001 1120.99999999 751.25000001 1120.99999999 754.37548828 1118.99975586 C756.45727679 1117.66736566 758.53898263 1116.33484628 760.62060547 1115.00219727 C765.8519017 1111.65336576 771.08464843 1108.30684297 776.3203125 1104.96484375 C778.42194219 1103.62250102 780.52350509 1102.28005373 782.625 1100.9375 C783.644729 1100.28652344 784.66445801 1099.63554688 785.71508789 1098.96484375 C791.03569677 1095.56154479 796.33674811 1092.13145734 801.61328125 1088.66015625 C802.67530762 1087.96220947 803.73733398 1087.2642627 804.83154297 1086.54516602 C806.86325228 1085.20735523 808.89233956 1083.86555173 810.91845703 1082.51928711 C811.82063965 1081.92510986 812.72282227 1081.33093262 813.65234375 1080.71875 C814.84331665 1079.92887695 814.84331665 1079.92887695 816.05834961 1079.12304688 C818 1078 818 1078 820 1078 C820 722.26 820 366.52 820 0 C1028.56 0 1237.12 0 1452 0 C1452.40401477 357.69222877 1452.40401477 357.69222877 1452.48164964 494.2340771 C1452.48274339 496.15086681 1452.4838376 498.06765653 1452.48493221 499.98444624 C1452.48575536 501.42609143 1452.48575536 501.42609143 1452.48659513 502.89686077 C1452.50601091 536.85292071 1452.52607987 570.8089802 1452.54729256 604.76503907 C1452.5493115 608.00603309 1452.55131328 611.24702713 1452.55331089 614.48802117 C1452.58397063 664.12771356 1452.62299904 713.76738135 1452.68664551 763.40704346 C1452.68869899 765.00880222 1452.68869899 765.00880222 1452.69079396 766.64291975 C1452.71291823 783.86012566 1452.7357541 801.07733062 1452.7586844 818.29453547 C1452.82470367 867.87321692 1452.88547853 917.45187955 1452.91139793 967.03060055 C1452.91193328 968.04971532 1452.91246864 969.0688301 1452.91302021 970.11882714 C1452.92467668 992.48854451 1452.93362576 1014.85826212 1452.94000983 1037.2279816 C1452.94262612 1046.22821502 1452.94563231 1055.22844831 1452.94877243 1064.22868156 C1452.9491067 1065.21373016 1452.94944097 1066.19877875 1452.94978537 1067.21367731 C1452.96075745 1098.97478736 1453.00349387 1130.73575763 1453.06282208 1162.49681124 C1453.12241972 1194.4797037 1453.15100629 1226.46246041 1453.13623988 1258.44540982 C1453.13420896 1262.86113669 1453.13253518 1267.27686362 1453.13107681 1271.69259071 C1453.13077801 1272.55822908 1453.1304792 1273.42386745 1453.13017134 1274.31573729 C1453.12635892 1288.04464803 1453.15626086 1301.7732723 1453.20009862 1315.50210491 C1453.2424751 1328.98892154 1453.24945494 1342.47536542 1453.21831814 1355.96221709 C1453.20112313 1363.87789593 1453.21155179 1371.79239554 1453.26217002 1379.70793772 C1453.29664388 1385.57243397 1453.27939526 1391.43601377 1453.24139976 1397.30051516 C1453.23421794 1399.66718015 1453.2440471 1402.03396874 1453.27235245 1404.40047536 C1453.47000189 1422.03395462 1453.47000189 1422.03395462 1449.86423962 1426.85646015 C1447.28220508 1428.70736764 1444.94622719 1429.84338052 1442 1431 C1440.34379966 1432.03052886 1438.70408564 1433.08850817 1437.08984375 1434.18359375 C1435.37377986 1435.27041758 1433.65627111 1436.3549626 1431.9375 1437.4375 C1429.99457967 1438.66763397 1428.05187985 1439.89811629 1426.109375 1441.12890625 C1424.60600586 1442.08047607 1424.60600586 1442.08047607 1423.07226562 1443.05126953 C1417.9341153 1446.31038554 1412.81092962 1449.59280917 1407.6875 1452.875 C1406.64585693 1453.54200928 1405.60421387 1454.20901855 1404.53100586 1454.89624023 C1402.41172063 1456.25331924 1400.29249876 1457.61049719 1398.17333984 1458.96777344 C1391.91065762 1462.97843407 1385.64633986 1466.9865396 1379.38232422 1470.99511719 C1374.13584796 1474.35266497 1368.88977765 1477.71084365 1363.64453125 1481.0703125 C1352.8734827 1487.96802832 1342.09483934 1494.85339869 1331.30126953 1501.71582031 C1321.24498626 1508.11182594 1311.20930445 1514.53995139 1301.17333984 1520.96777344 C1295.94966156 1524.31304949 1290.72477559 1527.65643813 1285.5 1531 C1283.41666075 1532.33332409 1281.33332742 1533.66665743 1279.25 1535 C1266.75 1543 1254.25 1551 1241.75 1559 C1240.7185083 1559.66016113 1239.6870166 1560.32032227 1238.62426758 1561.00048828 C1236.5433993 1562.33223097 1234.46250742 1563.66393677 1232.3815918 1564.99560547 C1227.1353477 1568.35297179 1221.88953061 1571.71100188 1216.64453125 1575.0703125 C1205.88374927 1581.96145367 1195.11571202 1588.84078959 1184.33203125 1595.69604492 C1176.12280111 1600.91678811 1167.9281682 1606.16022431 1159.73632812 1611.40820312 C1158.75728516 1612.03533203 1157.77824219 1612.66246094 1156.76953125 1613.30859375 C1155.91979736 1613.85314209 1155.07006348 1614.39769043 1154.19458008 1614.95874023 C1149.46739445 1617.97929805 1144.73278706 1620.98822641 1140 1624 C1242.96 1624.33 1345.92 1624.66 1452 1625 C1452 2461.88 1452 3298.76 1452 4161 C1443.00680272 4156.50340136 1443.00680272 4156.50340136 1439.6171875 4154.2578125 C1438.85446533 4153.75660889 1438.09174316 4153.25540527 1437.3059082 4152.73901367 C1436.5037085 4152.20638916 1435.70150879 4151.67376465 1434.875 4151.125 C1433.09567624 4149.95608061 1431.31570551 4148.78814556 1429.53515625 4147.62109375 C1428.62137207 4147.02151855 1427.70758789 4146.42194336 1426.76611328 4145.80419922 C1422.30527734 4142.89461602 1417.80986145 4140.0401795 1413.3125 4137.1875 C1405.42797367 4132.18145154 1397.55268629 4127.16138767 1389.6875 4122.125 C1388.1238269 4121.12376099 1388.1238269 4121.12376099 1386.52856445 4120.10229492 C1384.41010798 4118.74568084 1382.29169991 4117.38899117 1380.17333984 4116.03222656 C1374.94966156 4112.68695051 1369.72477559 4109.34356187 1364.5 4106 C1362.41666075 4104.66667591 1360.33332742 4103.33334257 1358.25 4102 C1357.21875 4101.34 1356.1875 4100.68 1355.125 4100 C1320.75000002 4078.00000001 1320.75000002 4078.00000001 1317.62426758 4075.99951172 C1315.5433993 4074.66776903 1313.46250742 4073.33606323 1311.3815918 4072.00439453 C1306.1353477 4068.64702821 1300.88953061 4065.28899812 1295.64453125 4061.9296875 C1285.77120485 4055.60686764 1275.89397507 4049.29047013 1266 4043 C1255.0430562 4036.03370716 1244.10699399 4029.03499968 1233.17333984 4022.03222656 C1227.94966156 4018.68695051 1222.72477559 4015.34356187 1217.5 4012 C1215.41666075 4010.66667591 1213.33332742 4009.33334257 1211.25 4008 C1210.21875 4007.34 1209.1875 4006.68 1208.125 4006 C1173.75000001 3984 1173.75000001 3984 1170.62426758 3981.99951172 C1168.5433993 3980.66776903 1166.46250742 3979.33606323 1164.3815918 3978.00439453 C1159.1353477 3974.64702821 1153.88953061 3971.28899812 1148.64453125 3967.9296875 C1138.77120485 3961.60686764 1128.89397507 3955.29047013 1119 3949 C1108.0430562 3942.03370716 1097.10699399 3935.03499968 1086.17333984 3928.03222656 C1080.94966156 3924.68695051 1075.72477559 3921.34356187 1070.5 3918 C1068.41666075 3916.66667591 1066.33332742 3915.33334257 1064.25 3914 C1063.21875 3913.34 1062.1875 3912.68 1061.125 3912 C1026.74999994 3889.99999996 1026.74999994 3889.99999996 1023.62426758 3887.99951172 C1021.5433993 3886.66776903 1019.46250742 3885.33606323 1017.3815918 3884.00439453 C1012.1353477 3880.64702821 1006.88953061 3877.28899812 1001.64453125 3873.9296875 C991.77120485 3867.60686764 981.89397507 3861.29047013 972 3855 C961.0430562 3848.03370716 950.10699399 3841.03499968 939.17333984 3834.03222656 C933.94966156 3830.68695051 928.72477559 3827.34356187 923.5 3824 C921.41666075 3822.66667591 919.33332742 3821.33334257 917.25 3820 C916.21875 3819.34 915.1875 3818.68 914.125 3818 C879.74999999 3795.99999999 879.74999999 3795.99999999 876.62280273 3793.99853516 C874.54686461 3792.66997371 872.47085589 3791.34152255 870.39477539 3790.01318359 C865.0727007 3786.60775777 859.75199948 3783.20021593 854.43359375 3779.7890625 C853.345625 3779.09167969 852.25765625 3778.39429687 851.13671875 3777.67578125 C849.09848797 3776.36922306 847.06068147 3775.06200258 845.0234375 3773.75390625 C844.07597656 3773.14675781 843.12851562 3772.53960938 842.15234375 3771.9140625 C841.24838362 3771.29804554 840.34442348 3770.68202858 839.41307062 3770.04734444 C836.78251689 3768.46939597 834.79110475 3767.51501043 831.96839958 3766.53264029 C827.07365292 3764.59637652 823.08683634 3762.36840413 820 3758 C817.02335057 3748.85889895 817.84717473 3738.55539616 818.00260079 3729.03363993 C818.05170165 3724.9352769 818.00747082 3720.83772165 817.97529078 3716.73933721 C817.93153543 3709.52895383 817.94739594 3702.32059297 818.00186908 3695.1103109 C818.08309347 3684.31687312 818.07183389 3673.5248804 818.04240387 3662.73124752 C817.99493401 3644.33745254 818.02333238 3625.94446936 818.0927124 3607.55077553 C818.16272525 3588.90726851 818.19787816 3570.26418116 818.1902771 3551.62053871 C818.18981802 3550.44367591 818.18935895 3549.26681311 818.18888596 3548.0542878 C818.18638401 3542.05362256 818.18331283 3536.05295775 818.18004058 3530.05229289 C818.15751107 3486.60128733 818.21244629 3443.15065504 818.30831909 3399.69976425 C818.33198604 3388.95479109 818.35536759 3378.2098174 818.37769699 3367.46484137 C818.3797794 3366.46292644 818.3797794 3366.46292644 818.38190388 3365.44077081 C818.44586482 3334.4986869 818.46876617 3303.55661445 818.4811525 3272.61447196 C818.48196465 3270.59078396 818.48279613 3268.56709597 818.48363257 3266.54340798 C818.48865814 3254.34053473 818.49325604 3242.13766134 818.49736016 3229.93478775 C818.50758162 3199.59857742 818.52293292 3169.26237082 818.54176331 3138.92616463 C818.54218944 3138.23554861 818.54261558 3137.54493259 818.54305463 3136.83338882 C818.5706951 3092.10475492 818.61945401 3047.3761739 818.68589783 3002.6475811 C818.68748876 3001.57641522 818.68748876 3001.57641522 818.68911183 3000.48360963 C818.72144274 2978.74560476 818.75533693 2957.00760234 818.78953693 2935.26960033 C818.82737657 2911.21381238 818.86494952 2887.15802404 818.90136719 2863.10223389 C818.90246318 2862.37886572 818.90355917 2861.65549755 818.90468838 2860.91020914 C819.00869874 2792.2039854 819.06966673 2723.49774488 819.11950776 2654.791463 C819.12162204 2651.88123253 819.12374878 2648.97100208 819.12587604 2646.06077162 C819.14545052 2619.2801635 819.16451984 2592.49955503 819.18295473 2565.71894609 C819.18344497 2565.0068243 819.18393522 2564.29470251 819.18444032 2563.56100126 C819.18592452 2561.40488797 819.18740852 2559.24877468 819.18889252 2557.09266139 C819.22898591 2498.84449582 819.27348512 2440.59633387 819.32083871 2382.34817376 C819.32250837 2380.2930108 819.32417464 2378.23784784 819.32583989 2376.18268487 C819.38155486 2307.44022811 819.44634059 2238.69778812 819.74609375 2005.91748047 C819.74769272 2004.76170461 819.74929168 2003.60592874 819.7509391 2002.41512937 C819.83094797 1944.61008187 819.91373292 1886.8050385 820 1829 C817.12462051 1830.75169374 814.25021682 1832.50498262 811.37597656 1834.25854492 C810.5678653 1834.75082329 809.75975403 1835.24310165 808.92715454 1835.75029755 C802.79190102 1839.49495341 796.74671145 1843.34928518 790.75 1847.3125 C783.24139342 1852.24077097 775.70856578 1857.12531421 768.125 1861.9375 C767.22724854 1862.50718506 766.32949707 1863.07687012 765.40454102 1863.66381836 C763.5572947 1864.83594228 761.71004531 1866.00806135 759.86279297 1867.18017578 C754.79706067 1870.40036754 749.74242741 1873.63788338 744.6875 1876.875 C743.64698486 1877.54120361 742.60646973 1878.20740723 741.53442383 1878.89379883 C738.35612742 1880.9289571 735.17802946 1882.96442489 732 1885 C719.11112236 1893.25551771 706.21781053 1901.50363919 693.30126953 1909.71582031 C686.42266314 1914.09075726 679.553153 1918.47976607 672.6875 1922.875 C671.66132568 1923.53185791 670.63515137 1924.18871582 669.57788086 1924.86547852 C664.62023197 1928.03959477 659.66361455 1931.21530917 654.70884705 1934.3939209 C652.38660408 1935.88351511 650.06389006 1937.37237384 647.74111938 1938.86114502 C646.09150724 1939.91890014 644.44259779 1940.9777509 642.79370117 1942.03662109 C641.30447144 1942.99109131 641.30447144 1942.99109131 639.78515625 1943.96484375 C638.90738525 1944.5280835 638.02961426 1945.09132324 637.12524414 1945.67163086 C635 1947 635 1947 633 1948 C632.67 2505.04 632.34 3062.08 632 3636 C626.98592565 3634.32864188 623.52288342 3632.56894772 619.3125 3629.625 C617.97406437 3628.71147516 616.63415165 3627.80011167 615.29296875 3626.890625 C614.59091309 3626.41431641 613.88885742 3625.93800781 613.16552734 3625.44726562 C609.53062815 3623.01798914 605.82874249 3620.69742709 602.125 3618.375 C594.68607637 3613.70101973 587.27245072 3608.98936813 579.875 3604.25 C578.29452881 3603.23752197 578.29452881 3603.23752197 576.68212891 3602.20458984 C574.52855028 3600.82469339 572.37506773 3599.44464697 570.22167969 3598.06445312 C564.98263308 3594.70727079 559.74123461 3591.35376497 554.5 3588 C548.21422079 3583.97753457 541.92874747 3579.95459443 535.64453125 3575.9296875 C525.77120485 3569.60686764 515.89397507 3563.29047013 506 3557 C495.0430562 3550.03370716 484.10699399 3543.03499968 473.17333984 3536.03222656 C467.94966156 3532.68695051 462.72477559 3529.34356187 457.5 3526 C455.41666075 3524.66667591 453.33332742 3523.33334257 451.25 3522 C450.21875 3521.34 449.1875 3520.68 448.125 3520 C438.75000002 3514.00000001 438.75000002 3514.00000001 435.62426758 3511.99951172 C433.5433993 3510.66776903 431.46250742 3509.33606323 429.3815918 3508.00439453 C424.1353477 3504.64702821 418.88953061 3501.28899812 413.64453125 3497.9296875 C403.77120485 3491.60686764 393.89397507 3485.29047013 384 3479 C373.0430562 3472.03370716 362.10699399 3465.03499968 351.17333984 3458.03222656 C345.94966156 3454.68695051 340.72477559 3451.34356187 335.5 3448 C333.41666075 3446.66667591 331.33332742 3445.33334257 329.25 3444 C328.21875 3443.34 327.1875 3442.68 326.125 3442 C291.74999994 3419.99999996 291.74999994 3419.99999996 288.62426758 3417.99951172 C286.5433993 3416.66776903 284.46250742 3415.33606323 282.3815918 3414.00439453 C277.1353477 3410.64702821 271.88953061 3407.28899812 266.64453125 3403.9296875 C256.77120485 3397.60686764 246.89397507 3391.29047013 237 3385 C226.0430562 3378.03370716 215.10699399 3371.03499968 204.17333984 3364.03222656 C198.94966156 3360.68695051 193.72477559 3357.34356187 188.5 3354 C186.41666075 3352.66667591 184.33332742 3351.33334257 182.25 3350 C181.21875 3349.34 180.1875 3348.68 179.125 3348 C144.75000007 3326.00000004 144.75000007 3326.00000004 141.62426758 3323.99951172 C139.5433993 3322.66776903 137.46250742 3321.33606323 135.3815918 3320.00439453 C130.1353477 3316.64702821 124.88953061 3313.28899812 119.64453125 3309.9296875 C109.77120485 3303.60686764 99.89397507 3297.29047013 90 3291 C79.0430562 3284.03370716 68.10699399 3277.03499968 57.17333984 3270.03222656 C52.98722014 3267.35140948 48.80032168 3264.6718104 44.61328125 3261.99243164 C42.54932556 3260.67154532 40.48552172 3259.3504217 38.421875 3258.02905273 C33.54165852 3254.90449567 28.66013691 3251.78203435 23.77401733 3248.66671753 C22.03262378 3247.55629907 20.29164056 3246.44524016 18.55078125 3245.33398438 C16.35758898 3243.93426411 14.16361515 3242.53576747 11.96875 3241.13867188 C10.98261719 3240.50896484 9.99648437 3239.87925781 8.98046875 3239.23046875 C8.11317139 3238.67770264 7.24587402 3238.12493652 6.35229492 3237.55541992 C5.5760376 3237.04213135 4.79978027 3236.52884277 4 3236 C3.30176929 3235.65604893 2.60353858 3235.31209786 1.88414936 3234.95772404 C-1.11782909 3231.83852049 -0.54518615 3228.21933346 -0.49868466 3224.12099548 C-0.50666018 3222.73244168 -0.50666018 3222.73244168 -0.51479681 3221.31583629 C-0.52785827 3218.17606231 -0.51211863 3215.03706883 -0.49679399 3211.89731389 C-0.50025293 3209.62567652 -0.50546702 3207.35404126 -0.51228594 3205.08241149 C-0.52603591 3198.77825407 -0.51457199 3192.47434629 -0.4993498 3186.17020133 C-0.48645561 3180.01719947 -0.49633754 3173.86421172 -0.50373713 3167.71120768 C-0.51844961 3154.91258188 -0.51403571 3142.11402462 -0.49953273 3129.31540147 C-0.48482705 3116.26562577 -0.47889801 3103.21588938 -0.48359558 3090.16610577 C-0.48388753 3089.34018804 -0.48417947 3088.5142703 -0.48448026 3087.66332476 C-0.48601018 3083.4466493 -0.48768063 3079.22997391 -0.48939903 3075.01329853 C-0.50166613 3044.17141372 -0.49416611 3013.32955762 -0.4768219 2982.48767662 C-0.45929939 2951.21338434 -0.45049237 2919.93910751 -0.45243073 2888.66481018 C-0.45251647 2887.1870626 -0.45251647 2887.1870626 -0.45260394 2885.67946153 C-0.45313094 2876.65148388 -0.45375538 2867.62350625 -0.45449595 2858.59552862 C-0.45634867 2835.95386868 -0.45687839 2813.31220881 -0.45653105 2790.6705488 C-0.45651606 2789.63285928 -0.45650107 2788.59516976 -0.45648563 2787.5260351 C-0.45562827 2736.33215081 -0.43975045 2685.13827235 -0.42292023 2633.94439125 C-0.41700364 2615.91594835 -0.41115831 2597.88750544 -0.40557575 2579.85906243 C-0.40522868 2578.73839696 -0.40488162 2577.61773149 -0.40452403 2576.46310647 C-0.38854197 2524.57576103 -0.38280952 2472.68841602 -0.37971188 2420.8010684 C-0.37950884 2417.40866056 -0.37930097 2414.01625272 -0.37909186 2410.62384489 C-0.37783549 2390.16791913 -0.37668601 2369.71199336 -0.37565996 2349.25606759 C-0.3731044 2298.3999174 -0.36926645 2247.54376734 -0.36455917 2196.6876173 C-0.36445264 2195.52977981 -0.36434611 2194.37194233 -0.36423634 2193.17901885 C-0.35732465 2118.1730242 -0.34513292 2043.16703152 -0.32852554 1968.1610384 C-0.32826039 1966.96327841 -0.32799523 1965.76551842 -0.32772204 1964.53146267 C-0.3196391 1928.069826 -0.31116562 1891.60818942 -0.30261577 1855.14655285 C-0.29315597 1814.79704276 -0.28376279 1774.44753264 -0.2746582 1734.09802246 C-0.2743842 1732.88471636 -0.27411021 1731.67141026 -0.27382791 1730.42133731 C-0.24783159 1615.2082264 -0.23258534 1499.99511487 -0.22012306 1384.7820018 C-0.21959449 1379.90263602 -0.2190628 1375.02327023 -0.21853099 1370.14390445 C-0.21363742 1325.2432976 -0.20887009 1280.34269073 -0.20426132 1235.44208385 C-0.20413876 1234.2481476 -0.2040162 1233.05421134 -0.20388992 1231.82409519 C-0.20351887 1228.20917749 -0.20314787 1224.59425979 -0.20277687 1220.97934209 C-0.19275318 1123.31771782 -0.18162837 1025.65609369 -0.16979032 927.99446962 C-0.16937291 924.54858709 -0.16895634 921.10270456 -0.16854003 917.65682203 C-0.15500748 805.67524332 -0.13952491 693.69366514 -0.10318882 495.94276176 C-0.1026092 492.89295629 -0.10203066 489.84315082 -0.10145252 486.79334535 C-0.10126322 485.79503771 -0.10107392 484.79673006 -0.10087888 483.76817067 C-0.10053438 481.95124182 -0.10019002 480.13431298 -0.09984587 478.31738413 C-0.06960143 318.87825547 -0.03410707 159.43912785 0 0 Z " fill="#FF198F" transform="translate(133,315)"/>
<path d="M0 0 C208.56 0 417.12 0 632 0 C632 835.89 632 1671.78 632 2533 C646.74162951 2524.01174912 646.74162951 2524.01174912 661.25 2514.6875 C668.75860658 2509.75922903 676.29143422 2504.87468579 683.875 2500.0625 C685.2216272 2499.20797241 685.2216272 2499.20797241 686.59545898 2498.33618164 C688.4427053 2497.16405772 690.28995469 2495.99193865 692.13720703 2494.81982422 C697.20293924 2491.59963252 702.25758671 2488.36213852 707.3125 2485.125 C708.35519043 2484.45734619 709.39788086 2483.78969238 710.47216797 2483.10180664 C712.59038322 2481.74535989 714.70854713 2480.38883294 716.82666016 2479.03222656 C722.05033844 2475.68695051 727.27522441 2472.34356187 732.5 2469 C734.58333925 2467.66667591 736.66667258 2466.33334257 738.75 2465 C742.91666667 2462.33333333 747.08333333 2459.66666667 751.25 2457 C752.2814917 2456.33983887 753.3129834 2455.67967773 754.37573242 2454.99951172 C756.4566007 2453.66776903 758.53749258 2452.33606323 760.6184082 2451.00439453 C765.8646523 2447.64702821 771.11046939 2444.28899812 776.35546875 2440.9296875 C787.62122071 2433.7152433 798.89384615 2426.51198734 810.1862793 2419.33935547 C811.0400415 2418.79682129 811.89380371 2418.25428711 812.7734375 2417.6953125 C813.52028809 2417.22109863 814.26713867 2416.74688477 815.03662109 2416.25830078 C816.7028932 2415.1904114 818.35328639 2414.09780907 820 2413 C820.45699863 2410.00766554 820.45699863 2410.00766554 820.37664418 2406.4028249 C820.38305346 2405.36693283 820.38305346 2405.36693283 820.38959222 2404.31011365 C820.40036166 2401.96634002 820.38952381 2399.62314456 820.37900752 2397.27937639 C820.38230337 2395.58421251 820.38691522 2393.88905076 820.39273081 2392.19389365 C820.40499284 2387.48843468 820.39834332 2382.78315583 820.38888145 2378.07769723 C820.38186834 2372.95732016 820.39219505 2367.83697431 820.40036663 2362.71660304 C820.41233916 2353.69213335 820.41304071 2344.66771562 820.40660437 2335.64324109 C820.39702835 2322.13328153 820.40467599 2308.62336987 820.41580265 2295.11341346 C820.43425679 2272.09384266 820.43845614 2249.07429568 820.43499184 2226.05471992 C820.43152756 2202.71217493 820.43459743 2179.36964428 820.44572449 2156.02710152 C820.44607207 2155.29181162 820.44641965 2154.55652173 820.44677776 2153.79895032 C820.44996533 2147.06081599 820.45322596 2140.3226817 820.45657366 2133.58454745 C820.4649661 2116.68563215 820.47236656 2099.78671649 820.47910941 2082.88780046 C820.47941914 2082.11330379 820.47972887 2081.33880713 820.48004798 2080.54084087 C820.4952402 2042.33082088 820.49917009 2004.1208006 820.50238609 1965.91077805 C820.50352641 1952.45462274 820.50472015 1938.99846743 820.50611091 1925.54231215 C820.50619732 1924.70586524 820.50628373 1923.86941833 820.50637276 1923.00762455 C820.51043916 1884.28019783 820.52219038 1845.55277461 820.53591727 1806.82535025 C820.53681434 1804.29336137 820.53770779 1801.76137249 820.53860032 1799.22938361 C820.54398555 1783.9617158 820.54945094 1768.69404801 820.55500887 1753.42638026 C820.56882314 1715.46887814 820.58167589 1677.51137573 820.59387684 1639.55387306 C820.59415509 1638.68969662 820.59443335 1637.82552017 820.59472004 1636.93515656 C820.61273809 1580.95255202 820.62679719 1524.96994733 820.63754559 1468.98734093 C820.6378031 1467.64636686 820.6378031 1467.64636686 820.63806581 1466.27830241 C820.64328344 1439.06409076 820.64820825 1411.84987906 820.6530758 1384.63566735 C820.65846366 1354.51962375 820.66390147 1324.40358017 820.66955566 1294.28753662 C820.66981044 1292.92915714 820.66981044 1292.92915714 820.67007037 1291.54333565 C820.68621567 1205.5511599 820.7104211 1119.55898701 820.73671398 1033.56681383 C820.73782691 1029.92499132 820.73893751 1026.2831688 820.74004801 1022.64134629 C820.75026718 989.12879334 820.76058101 955.61624043 820.77101372 922.10368755 C820.77129112 921.21256726 820.77156853 920.32144698 820.77185434 919.40332305 C820.77269427 916.70525064 820.77353423 914.00717823 820.7743742 911.30910581 C820.79706652 838.41717161 820.81893323 765.52523717 820.84026516 692.63330256 C820.84101805 690.06138945 820.84177156 687.48947634 820.84252527 684.91756323 C820.8670161 601.3373824 820.89004482 517.75720137 820.9239675 370.16078731 C820.92447626 367.88448281 820.92498582 365.60817831 820.92549569 363.33187381 C820.92566255 362.58676001 820.9258294 361.8416462 820.92600131 361.07395319 C820.9264505 359.06819198 820.92689978 357.06243077 820.92734906 355.05666955 C820.95374862 236.70444683 820.97638586 118.3522233 821 0 C1029.56 0 1238.12 0 1453 0 C1453.38338577 321.91366625 1453.38338577 321.91366625 1453.47655168 410.26801994 C1453.4783342 411.95676552 1453.48011681 413.64551111 1453.48189949 415.33425669 C1453.48279312 416.18105818 1453.48368675 417.02785968 1453.48460745 417.90032182 C1453.48739375 420.53885289 1453.49018541 423.17738394 1453.49297861 425.81591499 C1453.59325809 520.55915731 1453.68248998 615.30240336 1453.80254105 785.94090228 C1453.80452131 788.88399773 1453.80650561 791.82709317 1453.80849123 794.77018862 C1453.86474706 878.16373801 1453.91731715 961.55728938 1453.96495162 1044.95084415 C1453.96671463 1048.03732345 1453.96847787 1051.12380275 1453.97024126 1054.21028204 C1453.97082363 1055.22969197 1453.97140599 1056.24910189 1453.972006 1057.29940303 C1453.99391378 1095.63079062 1454.01666375 1133.96217771 1454.03991639 1172.29356451 C1454.04244201 1176.45835132 1454.04495805 1180.62313813 1454.04746536 1184.78792495 C1454.1066634 1283.10694191 1454.18101004 1381.4259138 1454.30462646 1479.74487305 C1454.30592672 1480.77988812 1454.30722698 1481.81490319 1454.30856664 1482.88128235 C1454.35183054 1517.30059789 1454.39656414 1551.71991152 1454.44150037 1586.13922491 C1454.48209738 1617.23830927 1454.52216673 1648.33739423 1454.56049633 1679.43648148 C1454.56175568 1680.45808899 1454.56301502 1681.47969651 1454.56431253 1682.53226183 C1454.64303177 1746.50274379 1454.69889775 1810.4732151 1454.73165607 1874.44373703 C1454.73216497 1875.43160134 1454.73267386 1876.41946564 1454.73319817 1877.43726523 C1454.75552834 1920.82000717 1454.77309086 1964.20274965 1454.78520009 2007.58549562 C1454.79009363 2025.03813606 1454.79569353 2042.49077627 1454.80168021 2059.94341637 C1454.80266696 2062.83721705 1454.80363082 2065.73101775 1454.80459221 2068.62481844 C1454.81946635 2112.90291872 1454.85012069 2157.18093673 1454.92648482 2201.4589777 C1454.92813212 2202.41426349 1454.92977941 2203.36954927 1454.93147662 2204.35378311 C1454.9580731 2219.72145914 1454.98598275 2235.08913278 1455.01411892 2250.45680605 C1455.09397521 2294.07377626 1455.16501682 2337.69066077 1455.16852248 2381.30771399 C1455.16859799 2382.19238714 1455.16867351 2383.0770603 1455.16875131 2383.98854174 C1455.1702103 2403.28743365 1455.16648246 2422.58632092 1455.15767601 2441.88521078 C1455.15424774 2449.58171493 1455.1515303 2457.27821931 1455.14904594 2464.97472382 C1455.14875646 2465.81429349 1455.14846698 2466.65386316 1455.14816873 2467.51887433 C1455.13932271 2494.16556046 1455.18905934 2520.81170812 1455.27256586 2547.45825313 C1455.35453393 2573.68909923 1455.37912457 2599.91927772 1455.31971301 2626.15020758 C1455.31159013 2629.74083231 1455.30413407 2633.33145815 1455.297079 2636.92208514 C1455.29567246 2637.6250366 1455.29426591 2638.32798807 1455.29281675 2639.05224109 C1455.27235546 2650.14654541 1455.31543703 2661.23964242 1455.38560476 2672.33370548 C1455.45293123 2683.18247676 1455.45147522 2694.02970575 1455.38072038 2704.87850181 C1455.3449783 2710.65773299 1455.33930772 2716.43267875 1455.41746965 2722.21158783 C1455.84036044 2755.52046105 1455.84036044 2755.52046105 1451.12814478 2762.95210716 C1446.79942227 2767.29492915 1442.08999669 2769.54081609 1436.26434202 2771.2613453 C1432.92239663 2772.35152675 1430.42750249 2774.10024154 1427.5546875 2776.109375 C1426.61689453 2776.71007813 1425.67910156 2777.31078125 1424.71289062 2777.9296875 C1423.77638672 2778.53039063 1422.83988281 2779.13109375 1421.875 2779.75 C1419.73698941 2781.11980765 1417.59896827 2782.48959884 1415.4609375 2783.859375 C1413.85750488 2784.88708008 1413.85750488 2784.88708008 1412.22167969 2785.93554688 C1406.98263306 2789.29272922 1401.74121962 2792.64621158 1396.5 2796 C1394.41665484 2797.33331485 1392.33332152 2798.6666482 1390.25 2800 C1386.08333333 2802.66666667 1381.91666667 2805.33333333 1377.75 2808 C1376.20276245 2808.9902417 1376.20276245 2808.9902417 1374.62426758 2810.00048828 C1372.5433993 2811.33223097 1370.46250742 2812.66393677 1368.3815918 2813.99560547 C1363.1353477 2817.35297179 1357.88953061 2820.71100188 1352.64453125 2824.0703125 C1341.8734827 2830.96802832 1331.09483934 2837.85339869 1320.30126953 2844.71582031 C1310.24498626 2851.11182594 1300.20930445 2857.53995139 1290.17333984 2863.96777344 C1284.94966156 2867.31304949 1279.72477559 2870.65643813 1274.5 2874 C1272.41666075 2875.33332409 1270.33332742 2876.66665743 1268.25 2878 C1255.75 2886 1243.25 2894 1230.75 2902 C1229.20276245 2902.9902417 1229.20276245 2902.9902417 1227.62426758 2904.00048828 C1225.5433993 2905.33223097 1223.46250742 2906.66393677 1221.3815918 2907.99560547 C1216.1353477 2911.35297179 1210.88953061 2914.71100188 1205.64453125 2918.0703125 C1194.8734827 2924.96802832 1184.09483934 2931.85339869 1173.30126953 2938.71582031 C1163.24498626 2945.11182594 1153.20930445 2951.53995139 1143.17333984 2957.96777344 C1137.94966156 2961.31304949 1132.72477559 2964.65643813 1127.5 2968 C1125.41666075 2969.33332409 1123.33332742 2970.66665743 1121.25 2972 C1108.75 2980 1096.25 2988 1083.75 2996 C1082.20276245 2996.9902417 1082.20276245 2996.9902417 1080.62426758 2998.00048828 C1078.5433993 2999.33223097 1076.46250742 3000.66393677 1074.3815918 3001.99560547 C1069.1353477 3005.35297179 1063.88953061 3008.71100188 1058.64453125 3012.0703125 C1047.8734827 3018.96802832 1037.09483934 3025.85339869 1026.30126953 3032.71582031 C1016.24498626 3039.11182594 1006.20930445 3045.53995139 996.17333984 3051.96777344 C990.94966156 3055.31304949 985.72477559 3058.65643813 980.5 3062 C978.41666075 3063.33332409 976.33332742 3064.66665743 974.25 3066 C961.75 3074 949.25 3082 936.75 3090 C935.7185083 3090.66016113 934.6870166 3091.32032227 933.62426758 3092.00048828 C931.5433993 3093.33223097 929.46250742 3094.66393677 927.3815918 3095.99560547 C922.1353477 3099.35297179 916.88953061 3102.71100188 911.64453125 3106.0703125 C900.8734827 3112.96802832 890.09483934 3119.85339869 879.30126953 3126.71582031 C869.24498626 3133.11182594 859.20930445 3139.53995139 849.17333984 3145.96777344 C843.94966156 3149.31304949 838.72477559 3152.65643813 833.5 3156 C831.41666075 3157.33332409 829.33332742 3158.66665743 827.25 3160 C789.75 3184 752.25 3208 714.75 3232 C713.7185083 3232.66016113 712.6870166 3233.32032227 711.62426758 3234.00048828 C709.5433993 3235.33223097 707.46250742 3236.66393677 705.3815918 3237.99560547 C700.1353477 3241.35297179 694.88953061 3244.71100188 689.64453125 3248.0703125 C678.8734827 3254.96802832 668.09483934 3261.85339869 657.30126953 3268.71582031 C647.24498626 3275.11182594 637.20930445 3281.53995139 627.17333984 3287.96777344 C620.91065762 3291.97843407 614.64633986 3295.9865396 608.38232422 3299.99511719 C603.13584796 3303.35266497 597.88977765 3306.71084365 592.64453125 3310.0703125 C581.8734827 3316.96802832 571.09483934 3323.85339869 560.30126953 3330.71582031 C550.24498626 3337.11182594 540.20930445 3343.53995139 530.17333984 3349.96777344 C524.94966156 3353.31304949 519.72477559 3356.65643813 514.5 3360 C512.41666075 3361.33332409 510.33332742 3362.66665743 508.25 3364 C495.75 3372 483.25 3380 470.75 3388 C469.20276245 3388.9902417 469.20276245 3388.9902417 467.62426758 3390.00048828 C465.5433993 3391.33223097 463.46250742 3392.66393677 461.3815918 3393.99560547 C456.1353477 3397.35297179 450.88953061 3400.71100188 445.64453125 3404.0703125 C434.8734827 3410.96802832 424.09483934 3417.85339869 413.30126953 3424.71582031 C403.24498626 3431.11182594 393.20930445 3437.53995139 383.17333984 3443.96777344 C377.94966156 3447.31304949 372.72477559 3450.65643813 367.5 3454 C365.41666075 3455.33332409 363.33332742 3456.66665743 361.25 3458 C342.5 3470 342.5 3470 323.75 3482 C322.20276245 3482.9902417 322.20276245 3482.9902417 320.62426758 3484.00048828 C318.5433993 3485.33223097 316.46250742 3486.66393677 314.3815918 3487.99560547 C309.1353477 3491.35297179 303.88953061 3494.71100188 298.64453125 3498.0703125 C287.8734827 3504.96802832 277.09483934 3511.85339869 266.30126953 3518.71582031 C256.24498626 3525.11182594 246.20930445 3531.53995139 236.17333984 3537.96777344 C230.94966156 3541.31304949 225.72477559 3544.65643813 220.5 3548 C218.41666075 3549.33332409 216.33332742 3550.66665743 214.25 3552 C210.08333333 3554.66666667 205.91666667 3557.33333333 201.75 3560 C200.20276245 3560.9902417 200.20276245 3560.9902417 198.62426758 3562.00048828 C196.5433993 3563.33223097 194.46250742 3564.66393677 192.3815918 3565.99560547 C187.1353477 3569.35297179 181.88953061 3572.71100188 176.64453125 3576.0703125 C165.8734827 3582.96802832 155.09483934 3589.85339869 144.30126953 3596.71582031 C134.24498626 3603.11182594 124.20930445 3609.53995139 114.17333984 3615.96777344 C108.94966156 3619.31304949 103.72477559 3622.65643813 98.5 3626 C96.41666075 3627.33332409 94.33332742 3628.66665743 92.25 3630 C54.75000003 3653.99999998 54.75000003 3653.99999998 51.62109375 3656.00244141 C49.55071022 3657.32752574 47.480397 3658.65271994 45.41015625 3659.97802734 C40.57572597 3663.07270284 35.74064759 3666.16634881 30.9029541 3669.25592041 C29.20010027 3670.34351484 27.49747714 3671.43146951 25.79492188 3672.51953125 C23.66647147 3673.87961989 21.53759512 3675.23904228 19.40820312 3676.59765625 C14.13438517 3679.9686947 8.90656801 3683.38405677 3.75976562 3686.94677734 C2 3688 2 3688 0 3688 C0 2470.96 0 1253.92 0 0 Z " fill="#FF198F" transform="translate(3414,788)"/>
<path d="M0 0 C2.90000828 1.61047375 5.09080616 3.79496887 7.39719635 6.13820958 C8.19934342 6.93516435 8.19934342 6.93516435 9.01769549 7.74821922 C10.81994429 9.54248449 12.61123397 11.34731146 14.40282303 13.1522162 C15.70082217 14.44890792 16.99948003 15.74494055 18.29874164 17.04036731 C21.87657734 20.61147357 25.4449558 24.19190303 29.01191193 27.77387178 C32.85650022 31.63138076 36.70971837 35.48025194 40.56191117 39.33016419 C47.23805337 46.00473114 53.90866825 52.68478153 60.57559067 59.36855721 C70.21492048 69.03223838 79.86249535 78.6876532 89.51212135 88.34105187 C105.1666801 104.00218117 120.81453704 119.66998995 136.45818192 135.34202027 C151.6571358 150.56852088 166.85923289 165.79187203 182.06560379 181.01096559 C182.53421124 181.47996762 183.0028187 181.94896965 183.48562637 182.43218386 C188.65846107 187.60936655 193.83138202 192.78646304 199.00433832 197.96352422 C238.0128883 237.00318892 277.01055683 276.05370968 316.00115067 315.11130738 C310.2903939 322.08930501 303.88678571 328.36200952 297.51082474 334.72188783 C296.22674491 336.00640405 294.94288498 337.29114013 293.6592254 338.57607633 C290.14053626 342.09699709 286.61874409 345.61479955 283.09643012 349.13209355 C279.29509698 352.92910325 275.49665934 356.7290076 271.69786698 360.52855897 C265.11889002 367.10805996 258.53808642 373.68572934 251.95603424 380.26215386 C242.43952457 389.77053222 232.92578146 399.28167475 223.41270863 408.79349149 C207.97783649 424.22617567 192.54073309 439.65662594 177.10222489 455.08567262 C162.10626088 470.07245587 147.11134881 485.06029035 132.11784989 500.0495398 C131.1934576 500.97366937 130.26906531 501.89779893 129.31666113 502.84993242 C124.67920565 507.48608286 120.04177083 512.12225398 115.40434629 516.75843537 C76.93981846 555.21259858 38.4716687 593.66313699 0.00115067 632.11130738 C-6.95567524 626.41157794 -13.22538737 620.03650114 -19.57819504 613.68586183 C-20.85930925 612.4087671 -22.14063292 611.13188246 -23.42214721 609.8551892 C-26.93360903 606.35564227 -30.44195352 602.85298486 -33.94975156 599.34976602 C-37.73660368 595.56888849 -41.52626658 591.79082987 -45.31548446 588.01232362 C-54.45523376 578.89704248 -63.59008423 569.77685984 -72.72406715 560.655801 C-75.3028285 558.08075344 -77.88171933 555.50583562 -80.46065658 552.93096423 C-96.47354966 536.94329212 -112.48485941 520.95403624 -128.49137253 504.95997643 C-132.19452899 501.25974963 -135.89770146 497.55953885 -139.60090011 493.85935426 C-140.52130388 492.93969654 -141.44170764 492.02003883 -142.39000243 491.0725127 C-157.32937197 476.14582073 -172.27900329 461.22944975 -187.23282176 446.31723444 C-202.58000278 431.01240265 -217.91780886 415.69822634 -233.24644703 400.3748225 C-241.85567668 391.76901318 -250.4690647 383.16745507 -259.09299606 374.5763762 C-266.42979948 367.267477 -273.75816369 359.95025048 -281.07540858 352.62176822 C-284.81172138 348.88024563 -288.55205199 345.14297555 -292.30326027 341.41638207 C-295.73203376 338.00992197 -299.14923754 334.59229792 -302.55730897 331.1651295 C-303.79697502 329.92263829 -305.04094744 328.68442697 -306.28944308 327.45080833 C-307.976566 325.78257862 -309.64778692 324.09992589 -311.31568283 322.41250634 C-312.06023606 321.68722694 -312.06023606 321.68722694 -312.81983078 320.94729543 C-315.96686139 317.71785633 -315.96686139 317.71785633 -316.10405421 315.1164338 C-314.50660262 312.21824501 -312.33291827 310.03204961 -309.99873775 307.72808576 C-309.47032133 307.19470982 -308.94190491 306.66133388 -308.39747587 306.11179504 C-306.61299746 304.31429367 -304.81795546 302.52772459 -303.02282089 300.74086976 C-301.73311127 299.44627445 -300.44405405 298.15102892 -299.15559649 296.85518748 C-295.60366334 293.28679142 -292.04235676 289.72787905 -288.47946411 286.17043006 C-284.64238623 282.33601451 -280.81390886 278.49302838 -276.98429245 274.65116334 C-269.47717761 267.12295985 -261.96178985 259.6030678 -254.44323375 252.08629253 C-248.33543244 245.9797969 -242.23018613 239.87075832 -236.12675804 233.75989175 C-234.37121518 232.00224979 -232.61567156 230.24460857 -230.86012721 228.4869681 C-229.98645992 227.61225728 -229.11279263 226.73754646 -228.21265057 225.83632926 C-212.1489228 209.75422552 -196.07598649 193.68135153 -179.99971564 177.61178763 C-165.31444119 162.932486 -150.63991859 148.24251129 -135.97370285 133.54416871 C-119.50602398 117.04044769 -103.03001312 100.54510821 -86.54184794 84.06185251 C-77.80795228 75.33020624 -69.07787869 66.59481598 -60.35752815 57.84964013 C-52.93525622 50.40641912 -45.50443001 42.97187334 -38.06219699 35.54860856 C-34.26200555 31.75761372 -30.46603311 27.96262574 -26.68071693 24.15677285 C-23.22040674 20.67789654 -19.74892144 17.21060846 -16.26787905 13.75248078 C-15.00572981 12.49455379 -13.74785444 11.23232213 -12.49456348 9.96556928 C-10.79973836 8.25377518 -9.09049067 6.55787785 -7.37648433 4.86532331 C-6.88511811 4.36167956 -6.39375189 3.85803581 -5.88749579 3.33913013 C-2.60747432 0.14519911 -2.60747432 0.14519911 0 0 Z " fill="#FF188F" transform="translate(4550.998849332333,-0.11130738258361816)"/>
<path d="M0 0 C2.89818879 1.5974516 5.08438419 3.77113594 7.38834804 6.10531646 C7.92172398 6.63373288 8.45509992 7.1621493 9.00463876 7.70657834 C10.80214013 9.49105675 12.58870921 11.28609876 14.37556404 13.08123332 C15.67015935 14.37094294 16.96540488 15.66000016 18.26124632 16.94845772 C21.82964238 20.50039087 25.38855475 24.06169745 28.94600374 27.6245901 C32.78041929 31.46166798 36.62340542 35.29014536 40.46527046 39.11976177 C47.99347395 46.62687661 55.51336599 54.14226437 63.03014127 61.66082046 C69.1366369 67.76862177 75.24567548 73.87386808 81.35654205 79.97729617 C83.11418401 81.73283904 84.87182523 83.48838265 86.6294657 85.243927 C87.50417652 86.11759429 88.37888733 86.99126158 89.28010454 87.89140364 C105.36220828 103.95513141 121.43508227 120.02806772 137.50464617 136.10433857 C152.1839478 150.78961302 166.87392251 165.46413563 181.57226509 180.13035136 C198.07598611 196.59803023 214.57132559 213.07404109 231.05458128 229.56220627 C239.78622755 238.29610194 248.52161781 247.02617552 257.26679367 255.74652606 C264.71001468 263.16879799 272.14456046 270.59962421 279.56782524 278.04185722 C283.35882008 281.84204866 287.15380806 285.6380211 290.95966095 289.42333728 C294.43853726 292.88364748 297.90582534 296.35513277 301.36395302 299.83617517 C302.62188001 301.0983244 303.88411167 302.35619977 305.15086452 303.60949073 C306.86265862 305.30431585 308.55855595 307.01356355 310.25111049 308.72756988 C310.75475424 309.2189361 311.25839799 309.71030232 311.77730367 310.21655843 C314.97123469 313.49657989 314.97123469 313.49657989 315.1164338 316.10405421 C313.50596005 319.00406249 311.32146493 321.19486037 308.97822422 323.50125057 C308.44692104 324.03601528 307.91561786 324.57077999 307.36821458 325.1217497 C305.57394931 326.9239985 303.76912234 328.71528818 301.9642176 330.50687724 C300.66752588 331.80487639 299.37149325 333.10353425 298.07606649 334.40279585 C294.50496023 337.98063155 290.92453077 341.54901002 287.34256202 345.11596614 C283.48505304 348.96055443 279.63618186 352.81377258 275.78626961 356.66596538 C269.11170265 363.34210758 262.43165227 370.01272246 255.74787658 376.67964488 C246.08419542 386.3189747 236.4287806 395.96654956 226.77538193 405.61617556 C211.11425262 421.27073431 195.44644385 436.91859125 179.77441353 452.56223613 C164.54791292 467.76119001 149.32456177 482.9632871 134.10546821 498.16965801 C133.63646618 498.63826546 133.16746415 499.10687291 132.68424994 499.58968059 C127.50706725 504.76251528 122.32997075 509.93543623 117.15290958 515.10839254 C78.11324488 554.11694251 39.06272411 593.11461104 0.00512642 632.10520488 C-6.97287121 626.39444811 -13.24557572 619.99083992 -19.60545403 613.61487895 C-20.88997025 612.33079912 -22.17470633 611.04693919 -23.45964253 609.76327962 C-26.98056329 606.24459047 -30.49836575 602.7227983 -34.01565975 599.20048434 C-37.81266945 595.39915119 -41.61257381 591.60071355 -45.41212517 587.80192119 C-51.99162616 581.22294423 -58.56929554 574.64214063 -65.14572006 568.06008846 C-74.65409842 558.54357878 -84.16524095 549.02983568 -93.67705769 539.51676284 C-109.10974187 524.08189071 -124.54019214 508.6447873 -139.96923882 493.2062791 C-154.95602207 478.21031509 -169.94385655 463.21540302 -184.93310601 448.2219041 C-185.85723557 447.29751181 -186.78136513 446.37311952 -187.73349863 445.42071535 C-192.36964906 440.78325986 -197.00582018 436.14582504 -201.64200157 431.5084005 C-240.09616478 393.04387267 -278.54670319 354.57572292 -316.99487358 316.10520488 C-311.29514414 309.14837898 -304.92006734 302.87866684 -298.56942803 296.52585918 C-297.2923333 295.24474496 -296.01544866 293.9634213 -294.7387554 292.681907 C-291.23920847 289.17044518 -287.73655106 285.66210069 -284.23333222 282.15430266 C-280.45245469 278.36745054 -276.67439607 274.57778764 -272.89588982 270.78856975 C-263.78060868 261.64882045 -254.66042605 252.51396998 -245.5393672 243.37998706 C-242.96431964 240.80122571 -240.38940182 238.22233488 -237.81453043 235.64339763 C-221.82685832 219.63050456 -205.83760244 203.6191948 -189.84354264 187.61268169 C-186.14331583 183.90952522 -182.44310505 180.20635275 -178.74292046 176.5031541 C-177.82326274 175.58275033 -176.90360503 174.66234657 -175.9560789 173.71405178 C-161.02938693 158.77468225 -146.11301595 143.82505092 -131.20080064 128.87123245 C-115.89596885 113.52405143 -100.58179254 98.18624535 -85.2583887 82.85760719 C-76.65257938 74.24837753 -68.05102127 65.63498951 -59.4599424 57.01105815 C-52.1510432 49.67425474 -44.83381668 42.34589053 -37.50533442 35.02864563 C-33.76381183 31.29233283 -30.02654176 27.55200223 -26.29994828 23.80079395 C-22.89348817 20.37202045 -19.47586412 16.95481667 -16.0486957 13.54674524 C-14.80620449 12.30707919 -13.56799317 11.06310677 -12.33437453 9.81461114 C-10.66614482 8.12748821 -8.98349209 6.4562673 -7.29607254 4.78837138 C-6.57079314 4.04381815 -6.57079314 4.04381815 -5.83086163 3.28422344 C-2.60142253 0.13719283 -2.60142253 0.13719283 0 0 Z " fill="#FF198F" transform="translate(3730.994873583317,-0.10520488023757935)"/>
</svg>
