<?xml version="1.0" encoding="UTF-8"?>
<svg version="1.1" xmlns="http://www.w3.org/2000/svg" width="562" height="562">
<path d="M0 0 C0.92465728 -0.01185823 1.84931456 -0.02371646 2.80199176 -0.03593403 C3.82977668 -0.04393511 4.85756159 -0.05193618 5.91649151 -0.06017971 C6.99918762 -0.07232319 8.08188374 -0.08446667 9.19738883 -0.09697813 C12.85605775 -0.13635233 16.51475097 -0.16815157 20.17349529 -0.19969082 C22.78468317 -0.22558072 25.39586885 -0.25169366 28.00705242 -0.27801418 C51.88355783 -0.5117962 75.76106892 -0.6395977 99.63845062 -0.74338531 C102.83616854 -0.75753296 106.03388513 -0.77194918 109.23160076 -0.78660488 C110.02638168 -0.79023635 110.8211626 -0.79386781 111.64002778 -0.79760932 C124.49764898 -0.85807034 137.35403933 -0.97797455 150.21097986 -1.12083942 C163.41408777 -1.26632911 176.61655647 -1.35082904 189.82044333 -1.37834543 C197.2330524 -1.39546962 204.64332524 -1.44002065 212.05512714 -1.55450535 C218.37251952 -1.65208524 224.6873263 -1.69506249 231.00546489 -1.66779441 C234.22760196 -1.65560152 237.44295355 -1.67760682 240.66439152 -1.75300503 C259.47056078 -2.17077031 259.47056078 -2.17077031 264.94662547 1.74530053 C269.20665224 5.97448201 272.04923324 10.84987307 274.74063396 16.16774082 C276.65915598 19.59695846 276.65915598 19.59695846 279.17813396 22.54274082 C281.05033487 24.48982976 282.15662404 26.67633883 283.45547771 29.02711582 C286.2174107 33.62753916 289.54851798 37.86073138 292.74063396 42.16774082 C298.55196815 50.08568365 304.24276738 58.08480217 309.88907146 66.12086582 C311.58816537 68.53850441 313.30033395 70.9432978 315.02969646 73.33961582 C315.65618084 74.21102207 316.28266521 75.08242832 316.92813396 75.98024082 C317.45793865 76.70856113 317.98774334 77.43688145 318.53360271 78.18727207 C319.74063396 80.16774082 319.74063396 80.16774082 320.16641521 82.30445957 C320.3559074 82.91934238 320.54539959 83.5342252 320.74063396 84.16774082 C321.35036053 84.47195957 321.96008709 84.77617832 322.58829021 85.08961582 C325.57429561 86.58532814 326.49146483 88.56637407 328.17813396 91.41774082 C330.13729287 94.68582055 331.88660608 97.45740534 334.67813396 100.04274082 C337.91344667 104.94472978 337.80891205 110.4653461 336.74063396 116.16774082 C334.83047771 118.56617832 334.83047771 118.56617832 332.74063396 120.16774082 C332.08063396 120.16774082 331.42063396 120.16774082 330.74063396 120.16774082 C330.74063396 120.82774082 330.74063396 121.48774082 330.74063396 122.16774082 C329.27847576 123.4404459 329.27847576 123.4404459 327.25235271 124.87477207 C324.31073727 127.00794531 321.4415929 129.18337011 318.63516521 131.49195957 C317.62486248 132.32243809 317.62486248 132.32243809 316.59414959 133.16969395 C315.22075114 134.30389764 313.84837267 135.43933744 312.47696209 136.57594395 C309.73614204 138.82610708 307.12228458 140.94209338 304.06485271 142.74977207 C301.17063264 144.51548953 299.13390308 146.76745333 296.74063396 149.16774082 C294.25820926 151.16554875 291.68856194 153.03862925 289.11563396 154.91774082 C281.54050267 160.521924 274.26614215 166.40298617 267.02188396 172.42945957 C266.14532146 173.14746738 265.26875896 173.8654752 264.36563396 174.60524082 C263.59477459 175.24332676 262.82391521 175.8814127 262.02969646 176.53883457 C259.74063396 178.16774082 259.74063396 178.16774082 257.07657146 179.14039707 C254.20520186 180.4032235 253.98287759 181.38194342 252.74063396 184.16774082 C251.04141521 185.69508457 251.04141521 185.69508457 249.05313396 187.10524082 C248.34672771 187.61442051 247.64032146 188.1236002 246.91250896 188.64820957 C245.50724387 189.63138964 244.10105398 190.61324978 242.69375896 191.59352207 C239.17759023 193.87573619 239.17759023 193.87573619 236.74063396 197.16774082 C236.21513478 202.2451992 237.23347635 204.52105283 240.36563396 208.48024082 C241.09911053 209.43414707 241.83258709 210.38805332 242.58829021 211.37086582 C243.29856365 212.29383457 244.00883709 213.21680332 244.74063396 214.16774082 C246.26804055 216.39076148 247.74482117 218.6410849 249.22110271 220.89820957 C251.52301762 224.33628813 253.97373297 227.66742129 256.42032146 231.00367832 C257.74063396 233.16774082 257.74063396 233.16774082 257.74063396 236.16774082 C258.73063396 236.49774082 259.72063396 236.82774082 260.74063396 237.16774082 C261.71546381 238.8148671 262.68084671 240.46873471 263.58438396 242.15602207 C264.77135711 244.22119495 266.09439045 246.03611687 267.55313396 247.91774082 C270.71294212 252.01586764 273.42268707 256.34147795 276.12735271 260.74977207 C277.60366871 263.13544474 277.60366871 263.13544474 279.32266521 264.74195957 C282.38233504 267.81848709 283.05015204 270.85546396 283.11563396 275.10524082 C283.02830296 278.41896734 282.85234781 279.96293211 281.24063396 282.91774082 C278.6566457 285.24333026 276.01487777 287.33929271 273.20157146 289.37867832 C270.24013312 291.53159699 267.33082705 293.74923126 264.42813396 295.98024082 C263.87029217 296.40820957 263.31245037 296.83617832 262.73770428 297.27711582 C259.11713987 300.06827223 255.57124463 302.93510931 252.05313396 305.85524082 C247.83300434 309.34733639 243.48761729 312.522719 238.93204021 315.56227207 C236.6445215 317.13946915 236.6445215 317.13946915 234.64297771 319.36695957 C232.74063396 321.16774082 232.74063396 321.16774082 229.74063396 321.16774082 C229.41063396 322.15774082 229.08063396 323.14774082 228.74063396 324.16774082 C226.65019866 325.99615187 224.57564812 327.6858228 222.36563396 329.35524082 C221.77524334 329.81865879 221.18485271 330.28207676 220.57657146 330.7595377 C216.11930434 334.16774082 216.11930434 334.16774082 212.74063396 334.16774082 C212.55500896 334.72461582 212.36938396 335.28149082 212.17813396 335.85524082 C210.09952571 339.19908889 207.13249794 341.2158191 203.74063396 343.16774082 C203.08063396 343.16774082 202.42063396 343.16774082 201.74063396 343.16774082 C201.49055584 343.77617832 201.24047771 344.38461582 200.98282146 345.01149082 C199.5440415 347.50899567 198.35784175 348.27586628 195.86563396 349.66774082 C193.59986632 350.94277356 191.82109185 352.08674655 189.98282146 353.93727207 C186.82147415 357.08209667 183.29579305 359.67228705 179.74063396 362.35524082 C178.98967449 362.92460361 178.23871502 363.49396641 177.4649992 364.08058262 C175.94569862 365.23167585 174.42544391 366.3815109 172.90420818 367.53004551 C170.93820835 369.01818892 168.98040008 370.51625173 167.02579021 372.01930332 C165.95171918 372.83980923 164.87751082 373.6601354 163.80313396 374.48024082 C162.86598553 375.19824863 161.92883709 375.91625645 160.96329021 376.65602207 C158.74063396 378.16774082 158.74063396 378.16774082 156.74063396 378.16774082 C156.40032146 379.0417252 156.40032146 379.0417252 156.05313396 379.93336582 C154.37638483 382.7878316 152.46412863 384.04533824 149.74063396 385.91774082 C146.02570577 388.53266431 142.39627861 391.18349746 138.86563396 394.04274082 C134.39772211 397.65996226 129.86023236 401.17596018 125.29385662 404.66725254 C122.07716127 407.12895823 118.90298418 409.6368662 115.74063396 412.16774082 C113.76456786 413.69260064 111.78514445 415.21311552 109.80313396 416.73024082 C100.99748295 423.48703341 92.25576247 430.3253412 83.61563396 437.29274082 C79.04145186 440.96560626 74.35875723 444.48115824 69.65079021 447.98024082 C66.20578851 450.5697723 62.83535982 453.24507763 59.48282146 455.95289707 C57.74063396 457.16774082 57.74063396 457.16774082 55.74063396 457.16774082 C55.41063396 458.15774082 55.08063396 459.14774082 54.74063396 460.16774082 C53.95688396 460.25024082 53.17313396 460.33274082 52.36563396 460.41774082 C51.06625896 460.78899082 51.06625896 460.78899082 49.74063396 461.16774082 C49.45188396 461.74524082 49.16313396 462.32274082 48.86563396 462.91774082 C47.13584557 466.3773176 44.05196991 468.2621607 40.74063396 470.16774082 C40.08063396 470.16774082 39.42063396 470.16774082 38.74063396 470.16774082 C38.41063396 471.15774082 38.08063396 472.14774082 37.74063396 473.16774082 C35.85000896 474.59742832 35.85000896 474.59742832 33.49063396 476.04274082 C29.70483879 478.36757477 26.86886392 481.0204363 23.74063396 484.16774082 C21.85127539 485.66128405 19.93326254 487.11917438 17.99063396 488.54274082 C14.29204988 491.27588568 10.61165426 494.02003222 6.99063396 496.85524082 C6.26875896 497.40695957 5.54688396 497.95867832 4.80313396 498.52711582 C2.72448271 500.13383319 2.72448271 500.13383319 0.86563396 501.93336582 C-4.28747388 506.52822032 -8.60295539 506.7912416 -15.40389729 506.67164707 C-18.46166931 506.13204024 -19.49789176 505.6832497 -21.25936604 503.16774082 C-21.25936604 502.50774082 -21.25936604 501.84774082 -21.25936604 501.16774082 C-21.91936604 501.16774082 -22.57936604 501.16774082 -23.25936604 501.16774082 C-24.8029624 498.96558308 -26.23384166 496.77096779 -27.63436604 494.48024082 C-30.30774033 490.15383009 -33.0624296 486.1343101 -36.25936604 482.16774082 C-37.27702699 480.51179881 -38.2777145 478.8452801 -39.25936604 477.16774082 C-42.81750713 471.88908087 -46.56179081 466.74112901 -50.32186604 461.60524082 C-53.24408456 457.6040493 -56.04304647 453.54766405 -58.76717854 449.40992832 C-62.12476271 444.36476258 -65.65558997 439.4361746 -69.15389729 434.48805332 C-69.76620197 433.6192252 -70.37850666 432.75039707 -71.00936604 431.85524082 C-71.56108479 431.07535801 -72.11280354 430.2954752 -72.68124104 429.49195957 C-73.79686786 427.84889531 -74.85592035 426.1667429 -75.87264729 424.46070957 C-77.10819326 422.19275742 -77.10819326 422.19275742 -78.69686604 420.79274082 C-80.60414773 418.80916786 -81.72603786 416.57619466 -83.00936604 414.15992832 C-84.2255199 412.07969533 -84.2255199 412.07969533 -86.07186604 410.23805332 C-90.42171991 405.59002398 -91.80100725 402.2127958 -92.00936604 395.79274082 C-91.7177249 389.69865618 -90.44064917 385.20572645 -87.62264729 379.83961582 C-85.24014573 375.17018583 -83.84006582 370.15302475 -82.25936604 365.16774082 C-80.15008581 358.65792303 -77.9322207 352.26429784 -75.32577229 345.93727207 C-74.00735727 342.51325653 -72.88623243 339.0329857 -71.75936604 335.54274082 C-70.26726634 330.93979136 -68.61602697 326.65495253 -66.29842854 322.40602207 C-64.49946334 318.53080757 -63.28329457 314.42978424 -62.00936604 310.35719395 C-61.02601763 307.25709232 -60.07990043 304.89854242 -58.25936604 302.16774082 C-57.75386883 300.70402089 -57.30072004 299.22176783 -56.88436604 297.73024082 C-52.52458615 282.70104986 -52.52458615 282.70104986 -49.38436604 276.04274082 C-46.97063339 270.84611641 -45.31493098 265.4124152 -43.54769611 259.97194004 C-41.7425322 254.47032517 -39.65572826 249.16443303 -37.34920979 243.85133457 C-35.96409933 240.44068625 -34.96026207 236.98091977 -34.03280354 233.42164707 C-33.25936604 231.16774082 -33.25936604 231.16774082 -31.78280354 228.74195957 C-30.14778996 225.97920586 -29.35809171 223.50838338 -28.50936604 220.41774082 C-26.91437086 214.99475724 -24.96572173 209.86043569 -22.75936604 204.66774082 C-20.09723745 198.39272344 -17.87328054 192.16564382 -15.98592854 185.60914707 C-15.25936604 183.16774082 -15.25936604 183.16774082 -14.25936604 181.16774082 C-13.59936604 181.16774082 -12.93936604 181.16774082 -12.25936604 181.16774082 C-12.09887775 179.44684238 -12.09887775 179.44684238 -11.93514729 177.69117832 C-11.36304881 173.13643287 -10.04196748 169.08064794 -8.44686604 164.79274082 C-8.17624348 164.0452457 -7.90562092 163.29775059 -7.62679768 162.5276041 C-5.93749396 157.8944587 -4.13388541 153.31724842 -2.25545979 148.75758457 C-0.96891483 145.41256768 0.13255864 142.01229011 1.24063396 138.60524082 C2.8131744 133.77925058 4.55455548 129.14066365 6.70547771 124.54274082 C9.02953223 119.21057046 10.81457535 113.65310369 12.74063396 108.16774082 C14.33589176 103.77339642 16.03788218 99.43400163 17.80313396 95.10524082 C18.95039385 92.26523145 19.91050122 89.56258873 20.74063396 86.60524082 C21.7987419 82.96799478 23.22843397 79.70120723 24.83829021 76.28102207 C26.71725677 71.88049866 27.35659057 67.94140453 26.74063396 63.16774082 C24.73530227 59.58504457 22.24581328 56.41308676 19.74063396 53.16774082 C18.40233212 51.33803127 17.06902587 49.50465776 15.74063396 47.66774082 C15.06645428 46.74477207 14.39227459 45.82180332 13.69766521 44.87086582 C11.912401 42.4049919 10.16328599 39.91901008 8.42813396 37.41774082 C6.30490653 34.36068651 4.14021067 31.34049753 1.92813396 28.34742832 C1.18623821 27.34340977 1.18623821 27.34340977 0.42935467 26.31910801 C-0.55369893 24.99216951 -1.53944086 23.66721742 -2.52816486 22.34449863 C-6.62086012 16.82172051 -8.88809471 13.33524774 -8.25936604 6.16774082 C-5.92016456 1.48933788 -5.13672037 0.05297339 0 0 Z M111.74063396 117.16774082 C111.04617794 119.17238515 110.40674228 121.19639593 109.80313396 123.23024082 C109.27913006 124.97240879 109.27913006 124.97240879 108.74454021 126.74977207 C108.14020312 128.80734001 107.54191471 130.86671849 106.95547771 132.92945957 C105.82027662 136.88095189 104.60226783 140.62495127 102.86563396 144.35524082 C100.44957721 149.55763123 98.74546895 154.97243243 96.98672771 160.42164707 C96.12892876 163.00042197 95.24204503 165.52624608 94.27579021 168.06227207 C92.32728176 173.19054744 90.66479938 178.40953726 88.99063396 183.63258457 C87.55137736 188.03281179 85.84086811 192.03074115 83.74063396 196.16774082 C83.11258277 198.04923318 82.5308431 199.94667175 81.99063396 201.85524082 C80.04043753 208.41090115 77.71657718 214.78800626 75.31900311 221.19191074 C73.2534482 226.72370925 71.33379117 232.28275134 69.56485271 237.91774082 C68.74063396 240.16774082 68.74063396 240.16774082 66.74063396 243.16774082 C64.04762017 250.66820502 62.08719357 258.31871574 60.74063396 266.16774082 C60.08063396 266.16774082 59.42063396 266.16774082 58.74063396 266.16774082 C58.51400066 266.85287754 58.28736736 267.53801426 58.05386639 268.2439127 C57.01357747 271.38572841 55.97087393 274.52673778 54.92813396 277.66774082 C54.57170818 278.74539707 54.2152824 279.82305332 53.84805584 280.93336582 C51.92272441 286.7270237 49.90912773 292.46117828 47.74063396 298.16774082 C46.79706351 300.78387275 45.88757266 303.41030537 44.99063396 306.04274082 C44.75731365 306.70531895 44.52399334 307.36789707 44.28360271 308.05055332 C43.71096679 309.73760049 43.21897858 311.45157461 42.74063396 313.16774082 C43.07063396 313.82774082 43.40063396 314.48774082 43.74063396 315.16774082 C45.32752425 314.08962452 46.90999479 313.0050013 48.49063396 311.91774082 C49.37235271 311.31445957 50.25407146 310.71117832 51.16250896 310.08961582 C53.60063977 308.27210013 55.60862992 306.32595803 57.74063396 304.16774082 C59.57436365 302.8185332 61.45005943 301.56950638 63.35000896 300.31617832 C63.80891521 299.93719395 64.26782146 299.55820957 64.74063396 299.16774082 C64.74063396 298.50774082 64.74063396 297.84774082 64.74063396 297.16774082 C65.25754803 296.94988926 65.77446209 296.7320377 66.30704021 296.50758457 C69.7349886 294.62028715 72.64074774 292.18511462 75.67813396 289.73024082 C79.58752697 286.57536482 83.42351751 283.75182128 87.74063396 281.16774082 C88.69969646 279.96117832 88.69969646 279.96117832 89.67813396 278.73024082 C92.06588325 275.76364323 94.55576828 274.250153 97.74063396 272.16774082 C100.46739446 269.90191947 103.09953981 267.5324414 105.74063396 265.16774082 C106.96549306 264.07953956 108.19442335 262.99589662 109.42813396 261.91774082 C109.94762615 261.45883457 110.46711834 260.99992832 111.00235271 260.52711582 C112.74063396 259.16774082 112.74063396 259.16774082 115.06094646 257.82008457 C118.28585567 255.83154726 121.07700415 253.45659225 123.92813396 250.98024082 C125.07567425 249.99612074 126.22412168 249.01305751 127.37344646 248.03102207 C128.22277752 247.30519932 128.22277752 247.30519932 129.08926678 246.56471348 C133.59750681 242.75097169 138.17828368 238.96094651 143.01797771 235.57399082 C143.58645428 235.10992832 144.15493084 234.64586582 144.74063396 234.16774082 C144.74063396 233.50774082 144.74063396 232.84774082 144.74063396 232.16774082 C145.62750896 231.94086582 146.51438396 231.71399082 147.42813396 231.48024082 C151.25643918 229.96336517 152.87569787 228.09596711 155.74063396 225.16774082 C158.59645495 222.78398861 161.50137638 220.47169572 164.41250896 218.15602207 C166.79582947 216.38211185 166.79582947 216.38211185 167.74063396 214.16774082 C133.58563396 213.67274082 133.58563396 213.67274082 98.74063396 213.16774082 C98.74063396 211.51774082 98.74063396 209.86774082 98.74063396 208.16774082 C101.01571053 205.94322151 103.2278058 204.09395056 105.74063396 202.16774082 C107.4733883 200.75546456 109.20228122 199.33844279 110.92813396 197.91774082 C112.32805584 196.7788541 112.32805584 196.7788541 113.75625896 195.61695957 C115.84310878 193.90432236 117.91533549 192.18182784 119.97500896 190.43727207 C120.5097282 189.98577793 121.04444744 189.53428379 121.59537029 189.06910801 C123.10321736 187.79361313 124.60756623 186.5139862 126.11172771 185.23414707 C128.31535037 183.50202763 130.24257326 182.3652927 132.74063396 181.16774082 C133.52438396 180.38399082 134.30813396 179.60024082 135.11563396 178.79274082 C137.80386651 176.10450828 140.58612741 174.27074519 143.74063396 172.16774082 C144.56563396 171.34274082 145.39063396 170.51774082 146.24063396 169.66774082 C148.87577937 167.03259542 151.64684441 165.23026719 154.74063396 163.16774082 C155.85245037 162.04432285 155.85245037 162.04432285 156.98672771 160.89820957 C160.08624304 157.8250731 163.36527442 155.15980261 166.80313396 152.48024082 C167.41479412 151.99490879 168.02645428 151.50957676 168.65664959 151.0095377 C171.59288761 148.70816195 174.34985553 146.75789898 177.74063396 145.16774082 C178.88428163 144.05772986 180.02284406 142.94170338 181.12735271 141.79274082 C186.58149674 136.29897832 192.28337005 131.42678723 198.74063396 127.16774082 C203.63753967 123.05783782 208.23050869 118.69559861 212.74063396 114.16774082 C199.8672131 114.09834614 186.99383645 114.04498322 174.12026691 114.01230431 C168.14306964 113.99662307 162.16599997 113.97533999 156.18887615 113.94142246 C150.42470699 113.90891665 144.66066085 113.89090634 138.89640713 113.88310909 C136.69308185 113.87754977 134.48976359 113.86669438 132.28649044 113.85055065 C129.20936868 113.82889313 126.13276061 113.825769 123.05557537 113.82716465 C121.67777653 113.81098591 121.67777653 113.81098591 120.27214336 113.79448032 C119.01851749 113.80066631 119.01851749 113.80066631 117.73956585 113.80697727 C117.01134939 113.80421189 116.28313293 113.80144651 115.53284931 113.79859734 C113.32123225 114.03521621 113.32123225 114.03521621 111.74063396 117.16774082 Z M41.74063396 315.16774082 C41.41063396 315.82774082 41.08063396 316.48774082 40.74063396 317.16774082 C41.40063396 317.16774082 42.06063396 317.16774082 42.74063396 317.16774082 C42.41063396 316.50774082 42.08063396 315.84774082 41.74063396 315.16774082 Z " fill="#010101" transform="translate(158.25936603546143,27.83225917816162)"/>
<path d="M0 0 C3.51973101 3.25901019 6.52760275 6.8860931 9 11 C9 11.66 9 12.32 9 13 C7 13 7 13 5.0625 11.375 C2.03145986 7.88471135 0 4.68625148 0 0 Z " fill="#3F3F3F" transform="translate(424,33)"/>
<path d="M0 0 C0.66 1.32 1.32 2.64 2 4 C1.01 4.495 1.01 4.495 0 5 C-0.72159424 6.64363134 -1.39351421 8.31050386 -2 10 C-2.66 10 -3.32 10 -4 10 C-2.99806563 6.20696275 -2.18975773 3.28463659 0 0 Z " fill="#2B2B2B" transform="translate(82,378)"/>
<path d="M0 0 C0 0.99 0 1.98 0 3 C-1.53125 4.38671875 -1.53125 4.38671875 -3.5 5.6875 C-4.47453125 6.34298828 -4.47453125 6.34298828 -5.46875 7.01171875 C-5.9740625 7.33785156 -6.479375 7.66398437 -7 8 C-7 7.01 -7 6.02 -7 5 C-5.46875 3.61328125 -5.46875 3.61328125 -3.5 2.3125 C-2.8503125 1.87550781 -2.200625 1.43851562 -1.53125 0.98828125 C-1.0259375 0.66214844 -0.520625 0.33601563 0 0 Z " fill="#121212" transform="translate(299,264)"/>
<path d="M0 0 C0.66 0 1.32 0 2 0 C1.44271087 3.34373475 0.64826111 6.03312999 -1 9 C-1.66 8.67 -2.32 8.34 -3 8 C-2.01 5.36 -1.02 2.72 0 0 Z " fill="#1B1B1B" transform="translate(144,209)"/>
</svg>
