<?xml version="1.0" encoding="UTF-8"?>
<svg width="556.86" height="555.83" version="1.1" viewBox="0 0 556.86 555.83" xml:space="preserve" xmlns="http://www.w3.org/2000/svg" xmlns:cc="http://creativecommons.org/ns#" xmlns:dc="http://purl.org/dc/elements/1.1/" xmlns:rdf="http://www.w3.org/1999/02/22-rdf-syntax-ns#"><metadata><rdf:RDF><cc:Work rdf:about=""><dc:format>image/svg+xml</dc:format><dc:type rdf:resource="http://purl.org/dc/dcmitype/StillImage"/><dc:title/></cc:Work></rdf:RDF></metadata><g transform="matrix(1.3333 0 0 -1.3333 -254.9 811.25)"><g fill="#00aeef"><path d="m551.21 191.56 30.902 55.376c1.058 1.809 1.934 3.765 2.651 5.866 0.716 2.099 1.076 3.913 1.076 5.441 0 4.093-1.337 7.462-4.009 10.087-2.672 2.617-6.015 3.938-10.015 3.938-4.007 0-7.348-1.321-10.015-3.938-2.674-2.625-4.011-5.994-4.011-10.087 0-9.357 5.008-14.312 15.021-14.885l-10.159-18.893c-7.818 1.914-14.114 5.988-18.879 12.238-4.777 6.246-7.156 13.427-7.156 21.54 0 5.046 0.856 9.723 2.576 14.025 1.714 4.291 4.146 8.033 7.29 11.227 3.15 3.196 6.897 5.651 11.237 7.368 4.339 1.718 9.037 2.579 14.096 2.579 5.149 0 9.868-0.861 14.161-2.579 4.299-1.717 8.036-4.172 11.231-7.368 3.198-3.194 5.632-6.936 7.302-11.227 1.671-4.302 2.503-8.979 2.503-14.025 0-3.442-0.738-7.155-2.215-11.165-1.479-4.005-3.414-8.207-5.797-12.59l-23.468-42.928z"/><path d="m563.51 471.86c-39.535 18.731-86.769 1.865-105.5-37.674-2.731-5.769-4.684-11.708-5.943-17.691l45.97-21.784c-1.121 6.328-0.381 13.044 2.579 19.294 7.582 16.008 26.706 22.838 42.709 15.253 16.012-7.586 22.843-26.71 15.257-42.717-7.534-15.901-26.454-22.728-42.395-15.383l-84.886 40.215 0.015 0.034-0.182 0.081 41.796 88.243c15.508 38.573-1.525 83.029-39.594 101.06-39.535 18.735-86.77 1.869-105.5-37.669-18.728-39.531-1.865-86.766 37.669-105.5 5.777-2.739 11.712-4.689 17.699-5.951l21.781 45.974c-6.328-1.118-13.048-0.378-19.294 2.579-16.008 7.581-22.835 26.705-15.253 42.713 7.586 16.008 26.71 22.839 42.717 15.253 15.9-7.534 22.728-26.453 15.383-42.391l-39.887-84.187-88.756 42.04c-38.573 15.511-83.029-1.525-101.06-39.594-18.731-39.535-1.869-86.77 37.666-105.5 39.538-18.727 86.77-1.864 105.5 37.674 2.734 5.773 4.688 11.708 5.946 17.695l-45.973 21.78c1.118-6.327 0.381-13.047-2.579-19.293-7.582-16.008-26.706-22.835-42.71-15.253-16.011 7.586-22.838 26.709-15.256 42.717 7.534 15.9 26.453 22.727 42.395 15.382l84.705-40.13-0.015-0.03 42.484-20.13 4e-3 8e-3 89.116-42.214c38.572-15.512 83.032 1.529 101.06 39.594 18.731 39.534 1.868 86.766-37.67 105.5"/><path d="m191.81 258.58c0 19.968 15.901 35.3 35.768 35.3 12.488 0 23.377-5.677 30.186-15.993 2.18-3.502 3.973-7.286 4.542-11.356h-18.264c-2.741 7.001-8.892 12.017-16.464 12.017-11.164 0-18.356-9.459-18.356-19.968 0-10.501 7.192-20.343 18.356-20.343 7.755 0 13.439 4.825 16.464 11.547h18.264c-3.974-16.181-17.98-26.876-34.444-26.876-19.87 0-36.052 15.427-36.052 35.672"/><path d="m269.97 293.88h18.073v-54.977h21.103v-15.995h-39.176z"/><path d="m329.68 258.67c0-10.978 7.381-20.34 18.83-20.34 10.883 0 18.354 9.648 18.354 20.059 0 10.597-7.471 20.252-18.639 20.252-11.164 0-18.545-9.18-18.545-19.971m-17.507-0.943c0 5.015 0.853 9.837 2.744 14.575 0.945 2.55 2.554 5.297 4.451 7.565 6.996 9.273 17.122 14.008 28.857 14.008 19.97 0 36.145-15.234 36.145-35.486 0-20.158-16.175-35.487-36.24-35.487-19.401 0-35.957 15.045-35.957 34.825"/><path d="m455.62 293.88v-70.972h-37.373c-7.381 0.191-15.136 2.177-20.157 7.571-6.339 6.814-7.092 12.871-7.092 21.762v41.639h18.072v-41.639c0-6.337 1.036-13.436 9.177-13.436h21.47v55.075z"/><path d="m482.88 277.98v-39.179h7.756c12.491 0 17.411 8.042 17.411 19.589 0 11.261-5.206 19.59-17.223 19.59zm-18.08-55.076v70.972h23.474c12.87 0 23.269-2.083 31.316-13.246 4.635-6.34 6.537-14.199 6.537-22.054 0-23.183-13.253-35.672-36.533-35.672z"/></g></g></svg>
