<?xml version="1.0" encoding="UTF-8"?>
<svg version="1.1" xmlns="http://www.w3.org/2000/svg" width="1200" height="1163">
<path d="M0 0 C3.33900472 0.00461826 6.67764393 -0.00226661 10.01660156 -0.02050781 C28.07387083 -0.11807247 45.99932579 0.16918448 63.99975586 1.70239258 C64.73088655 1.76449102 65.46201725 1.82658947 66.21530342 1.89056969 C136.202943 7.98221384 205.01857834 31.97991218 267.46459961 63.31567383 C269.03927002 64.10506348 269.03927002 64.10506348 270.64575195 64.91040039 C290.33403592 74.84124018 309.1062415 86.11538633 327.46459961 98.31567383 C328.1078418 98.74138672 328.75108398 99.16709961 329.41381836 99.60571289 C345.41444764 110.24304808 360.77102656 121.93855279 375.46459961 134.31567383 C376.50478879 135.18176995 377.5451641 136.04764256 378.58569336 136.91333008 C385.5431475 142.72565164 392.29425111 148.72541819 398.93334961 154.89770508 C400.50964784 156.35738941 402.09526001 157.80633258 403.68334961 159.25317383 C413.0229562 167.77852261 422.29817625 176.42420161 430.49975586 186.06958008 C432.65454868 188.53281243 434.88271271 190.91527797 437.12329102 193.30029297 C443.19172293 199.76321611 448.94344052 206.37425065 454.46459961 213.31567383 C455.38401838 214.44421925 456.30465997 215.57176921 457.22631836 216.69848633 C481.09181603 245.99137713 501.48978012 278.1281561 519.46459961 311.31567383 C519.89063477 312.09394531 520.31666992 312.8722168 520.75561523 313.67407227 C564.85628393 394.45996388 585.3523343 486.25860248 584.85152435 577.94525146 C584.83934207 580.30301911 584.83196218 582.66076489 584.82550049 585.01855469 C584.7544486 607.56302427 584.4395582 629.93584243 581.46459961 652.31567383 C581.25849279 653.91527649 581.05244065 655.51488619 580.84643555 657.11450195 C572.5558843 720.5738147 554.15954173 780.99669132 525.46459961 838.31567383 C525.06096191 839.13084473 524.65732422 839.94601562 524.24145508 840.78588867 C517.16886042 854.99980198 508.85594716 868.46853447 500.52612305 881.96704102 C498.66203918 884.99496313 496.81374774 888.0316983 494.97241211 891.07348633 C485.45845498 906.72709801 475.46229293 922.4205351 463.46459961 936.31567383 C462.98635742 936.88801758 462.50811523 937.46036133 462.01538086 938.05004883 C460.71459961 939.50317383 460.71459961 939.50317383 458.46459961 941.31567383 C449.82883138 940.63146949 440.76532441 928.74203014 435.00366211 922.85864258 C432.94578793 920.79760244 430.87413239 918.88008237 428.65209961 917.00317383 C424.08855866 913.117107 419.92874105 908.83280006 415.73876953 904.55273438 C412.82489111 901.59563197 409.87002754 898.76481789 406.71459961 896.06567383 C400.83761873 890.99267299 395.47479357 885.38311732 390.02807617 879.85864258 C388.61326248 878.42547977 387.19524263 876.99554116 385.77709961 875.56567383 C384.53379883 874.3049707 384.53379883 874.3049707 383.26538086 873.01879883 C381.1142705 870.94269231 378.94585508 868.9824056 376.68334961 867.03442383 C372.12823125 863.08219665 367.8917124 858.85128684 363.65209961 854.56567383 C362.83894287 853.74873047 362.02578613 852.93178711 361.18798828 852.09008789 C357.74282621 848.6287234 354.30369671 845.16138792 350.86401367 841.69458008 C348.33713453 839.14952195 345.80718646 836.60754251 343.27709961 834.06567383 C342.51228271 833.29255859 341.74746582 832.51944336 340.95947266 831.72290039 C337.60222365 828.35055021 334.22983527 825.06216875 330.61499023 821.96606445 C325.76862979 817.79118769 321.29009226 813.25369042 316.78868103 808.71492004 C315.20886827 807.12213892 313.62577375 805.53268225 312.04187012 803.94396973 C308.11167302 800.00052767 304.18699189 796.05161097 300.262146 792.10284424 C296.93344247 788.75428356 293.60261029 785.40786689 290.26902771 782.06416321 C288.72278406 780.51152145 287.1796258 778.9558598 285.63659668 777.40002441 C281.03962019 772.77938944 276.38791128 768.30395236 271.43713379 764.06335449 C267.44778081 760.52875665 263.74442344 756.69545612 259.99584961 752.90942383 C259.11610474 752.02589233 258.23635986 751.14236084 257.32995605 750.23205566 C254.06803016 746.95595063 250.81067397 743.67532403 247.5536499 740.39434814 C244.34972701 737.16736845 241.14190845 733.94429303 237.93334961 730.72192383 C237.10291138 729.88318726 236.27247314 729.04445068 235.41687012 728.18029785 C231.17025878 723.91602908 226.8468413 719.83316499 222.28381348 715.91003418 C219.5656152 713.52780324 217.02853932 710.98585749 214.49584961 708.40942383 C213.97124146 707.88102905 213.4466333 707.35263428 212.90612793 706.80822754 C210.70343846 704.58947798 208.50689124 702.3646861 206.30981445 700.14038086 C200.79990044 694.56835568 195.30664274 689.05306542 189.33764648 683.96606445 C184.9424161 680.09331192 180.92259345 675.8093324 176.82006836 671.63208008 C172.79903785 667.5669432 168.68717951 663.71046971 164.35327148 659.98168945 C161.41938924 657.39368371 158.69741844 654.61262551 155.96459961 651.81567383 C151.91533049 647.71524381 147.8182951 643.78417758 143.42163086 640.05395508 C140.17740431 637.17235665 137.17808089 634.04843839 134.15209961 630.94067383 C131.38260832 628.23558932 128.50330815 625.71143637 125.5793457 623.17651367 C122.06235977 620.08179342 118.67507441 616.85231897 115.27709961 613.62817383 C105.59790457 604.48288645 95.85087009 595.42155257 85.93334961 586.53442383 C83.22372502 584.0991916 80.5312779 581.64572106 77.83959961 579.19067383 C72.36977512 574.21671907 66.83224021 569.33592773 61.21069336 564.53442383 C60.00362648 563.50321553 58.79659624 562.47196435 57.58959961 561.44067383 C56.98100098 560.92093994 56.37240234 560.40120605 55.74536133 559.86572266 C52.20817004 556.83661788 48.72058907 553.7641108 45.27709961 550.62817383 C41.13681843 546.87100309 36.85064467 543.33780744 32.50366211 539.82348633 C28.99402276 536.9273572 25.57435827 533.93892808 22.15209961 530.94067383 C16.84942452 526.30778213 11.4447907 521.86303299 5.87768555 517.55273438 C1.14165125 513.87747105 -3.48459582 510.08097257 -8.09790039 506.25317383 C-14.56764532 500.89656532 -21.11966608 495.69340655 -27.81616211 490.62133789 C-29.6872176 489.20037726 -31.55125156 487.77054419 -33.41430664 486.33911133 C-47.30088648 475.67470462 -61.23971094 465.07706995 -75.47290039 454.87817383 C-84.8770066 448.1383372 -94.0526976 441.10866329 -103.2355957 434.07202148 C-106.23774076 431.77930051 -109.25879313 429.51350266 -112.28540039 427.25317383 C-114.03540039 425.94067383 -115.78540039 424.62817383 -117.53540039 423.31567383 C-118.43258789 422.64793945 -119.32977539 421.98020508 -120.25415039 421.29223633 C-121.08946289 420.6605957 -121.92477539 420.02895508 -122.78540039 419.37817383 C-123.87594727 418.56026367 -123.87594727 418.56026367 -124.98852539 417.72583008 C-125.49899414 417.26047852 -126.00946289 416.79512695 -126.53540039 416.31567383 C-126.53540039 415.65567383 -126.53540039 414.99567383 -126.53540039 414.31567383 C-119.52429583 415.79169584 -113.304904 418.37496958 -106.78540039 421.31567383 C-106.19490906 421.58089844 -105.60441772 421.84612305 -104.99603271 422.11938477 C-90.87653223 428.48652453 -77.02163782 435.40952222 -63.16040039 442.31567383 C-62.06554321 442.8591748 -60.97068604 443.40267578 -59.84265137 443.96264648 C-45.28809251 451.19936501 -31.03070302 458.82774533 -16.94458008 466.93832397 C-14.01170696 468.61507411 -11.05887465 470.253206 -8.09780884 471.87953186 C21.7578557 488.33008396 49.72504698 508.56231718 77.46459961 528.31567383 C78.17841797 528.82324219 78.89223633 529.33081055 79.62768555 529.85375977 C89.4109624 536.82297047 99.02887768 543.98389297 108.56152344 551.29199219 C114.45861746 555.80747202 120.4079549 560.24252459 126.40209961 564.62817383 C132.99581402 569.45920543 139.48280873 574.39526188 145.88256836 579.47973633 C149.24431098 582.15055412 152.6376481 584.77926009 156.03369141 587.40625 C163.33598845 593.05712232 170.56094001 598.78849372 177.70849609 604.63378906 C181.90082504 608.05866269 186.132153 611.42572866 190.40209961 614.75317383 C201.46671972 623.39249778 212.24361951 632.39144313 222.93579102 641.48583984 C226.22658868 644.28152064 229.55043812 647.03086362 232.90209961 649.75317383 C238.91033425 654.64683741 244.77919094 659.69594174 250.64868164 664.75415039 C252.46760609 666.31825913 254.2914004 667.87648459 256.11694336 669.43286133 C261.35099933 673.89799306 266.56297004 678.37230712 271.65209961 683.00317383 C275.85399696 686.81435642 280.18996401 690.42274738 284.60522461 693.98364258 C286.59951117 695.61013038 288.56370982 697.24910075 290.51147461 698.92895508 C300.00951471 707.54190364 300.00951471 707.54190364 311.77709961 711.69067383 C316.02662492 709.51649809 316.98277604 705.63008011 318.46459961 701.31567383 C319.99474563 695.50134194 321.24225503 689.6387137 322.46459961 683.75317383 C322.81686052 682.08656415 323.16923779 680.41997906 323.52172852 678.75341797 C325.43985184 669.61370221 327.27486577 660.46085012 328.83959961 651.25317383 C329.05422852 650.00395142 329.05422852 650.00395142 329.27319336 648.72949219 C331.90954031 632.27312016 332.84680448 615.83802321 332.77709961 599.19067383 C332.77494446 598.25512665 332.77278931 597.31957947 332.77056885 596.35568237 C332.71467636 581.16213325 332.10111545 566.3132458 329.46459961 551.31567383 C329.17456055 549.6547168 329.17456055 549.6547168 328.87866211 547.96020508 C319.97234812 498.86552365 297.93020566 450.81278918 263.46459961 414.31567383 C262.39737015 413.06970933 261.33480403 411.81973427 260.27709961 410.56567383 C251.52662363 400.55642868 241.91680199 391.51597894 231.46459961 383.31567383 C230.33488911 382.38724131 229.20740735 381.45609236 228.08178711 380.52270508 C214.16668905 369.05405273 199.09860334 359.27227587 183.46459961 350.31567383 C182.69792969 349.87288086 181.93125977 349.43008789 181.14135742 348.97387695 C151.9834871 332.24338702 120.65117049 319.60579221 88.65209961 309.44067383 C87.58217773 309.09552734 86.51225586 308.75038086 85.40991211 308.39477539 C64.06842357 301.82571768 41.77874823 298.73864238 19.76575851 295.30920792 C17.3469677 294.93207784 14.92847893 294.55305699 12.51004028 294.17367554 C-96.10636828 277.15194019 -205.07123626 261.90886111 -363.53540039 242.31567383 C-362.42557832 257.83224957 -360.98615647 273.22812153 -358.78540039 288.62817383 C-358.64256622 289.63913116 -358.49973206 290.6500885 -358.35256958 291.69168091 C-345.33734961 383.28434909 -328.86150756 474.9923011 -290.53540039 625.31567383 C-290.30077087 626.06727783 -290.06614136 626.81888184 -289.82440186 627.59326172 C-274.18292212 677.53479211 -253.76735433 726.93889006 -222.53540039 769.31567383 C-222.02944336 770.00274414 -221.52348633 770.68981445 -221.00219727 771.39770508 C-205.76490559 791.94860879 -188.87916457 811.52555675 -169.53540039 828.31567383 C-168.94001465 828.8390332 -168.34462891 829.36239258 -167.73120117 829.90161133 C-120.02968283 871.61543559 -55.29342957 900.19777562 8.62475586 900.51879883 C9.5642659 900.52581314 10.50377594 900.53282745 11.47175598 900.54005432 C14.49025314 900.55747133 17.50855403 900.56390748 20.52709961 900.56567383 C21.55893372 900.56634857 22.59076782 900.56702332 23.65386963 900.56771851 C39.13330842 900.55162761 54.19852809 900.10492932 69.46459961 897.31567383 C70.91721191 897.05826416 70.91721191 897.05826416 72.39916992 896.7956543 C120.20289249 888.12027876 164.06599404 869.0327484 205.21459961 843.54614258 C216.61424721 836.49147643 228.34833539 830.05495688 240.46459961 824.31567383 C241.2109668 823.95344727 241.95733398 823.5912207 242.72631836 823.21801758 C249.16465045 820.41022569 255.75294762 820.0469456 262.37866211 822.31176758 C270.57914997 826.13072828 277.54393851 831.58198658 284.46459961 837.31567383 C285.3037793 838.00838379 285.3037793 838.00838379 286.15991211 838.71508789 C294.33014467 845.50029815 302.13713545 852.64915926 309.86303711 859.93286133 C313.11228124 862.99534741 316.40722345 866.00380045 319.71459961 869.00317383 C324.53196939 873.39967125 329.14662771 877.94567748 333.69897461 882.61254883 C335.80203687 884.66808426 337.91253364 886.58294494 340.14135742 888.49243164 C344.41399133 892.21764382 348.41971578 896.15949904 352.40209961 900.19067383 C353.12647217 900.91883301 353.85084473 901.64699219 354.59716797 902.3972168 C357.66002385 905.47624334 360.71682272 908.56125706 363.77416992 911.64575195 C366.02304078 913.91282841 368.27500199 916.17680348 370.52709961 918.44067383 C371.20442139 919.12629395 371.88174316 919.81191406 372.57958984 920.51831055 C373.23386963 921.17589355 373.88814941 921.83347656 374.56225586 922.51098633 C375.12436768 923.07833496 375.68647949 923.64568359 376.265625 924.23022461 C378.11668811 925.98572378 380.00417809 927.63729036 381.94250488 929.2935791 C387.80926468 934.40346673 393.23519932 939.96308091 398.72045898 945.47387695 C399.93994645 946.6952868 401.15966417 947.9164668 402.3795929 949.13743591 C404.99297332 951.75396214 407.60479568 954.37203003 410.21540833 956.99131775 C414.34887981 961.13838291 418.48622655 965.28156749 422.62414551 969.42419434 C432.15323406 978.96529395 441.67729015 988.51141187 451.20130157 998.05757904 C459.9348414 1006.8113316 468.66945531 1015.56400531 477.40813494 1024.31262732 C481.51602886 1028.42548442 485.62147655 1032.54076279 489.72502899 1036.65795135 C492.28373551 1039.22415028 494.84454187 1041.788246 497.40590477 1044.35179329 C498.58706051 1045.53481097 499.76735662 1046.7186877 500.94669533 1047.90351677 C506.32812374 1053.30919425 511.71477426 1058.63499329 517.51581573 1063.5956707 C521.57675877 1067.17987253 525.35771896 1071.0615332 529.18530273 1074.89111328 C530.1320872 1075.83489853 531.07907388 1076.77848096 532.02624512 1077.72187805 C534.57355494 1080.26043223 537.11768779 1082.80214652 539.66094398 1085.34476113 C541.25110109 1086.9342042 542.84196943 1088.52293181 544.43309021 1090.11141014 C549.9858256 1095.65492804 555.53600673 1101.20098824 561.08374023 1106.74951172 C566.25528088 1111.92165583 571.43240404 1117.08816573 576.6121068 1122.25213462 C581.06589577 1126.6928757 585.51584914 1131.13743539 589.9627986 1135.58502549 C592.61632207 1138.23880428 595.27138565 1140.8909967 597.93031311 1143.53936195 C600.88547395 1146.48309932 603.83262803 1149.43472561 606.77905273 1152.38720703 C607.66415527 1153.26669006 608.54925781 1154.1461731 609.46118164 1155.05230713 C610.25737915 1155.85269913 611.05357666 1156.65309113 611.87390137 1157.47773743 C612.57144783 1158.17473912 613.26899429 1158.87174082 613.98767853 1159.58986378 C615.46459961 1161.31567383 615.46459961 1161.31567383 615.46459961 1163.31567383 C593.40905422 1163.33918117 571.35351095 1163.35673965 549.29795551 1163.367486 C539.0539387 1163.37261147 528.80992974 1163.37958139 518.56591797 1163.39111328 C509.62256765 1163.40117607 500.67922302 1163.40755441 491.7358672 1163.40976232 C487.01379292 1163.41105004 482.2917349 1163.4140096 477.56966591 1163.42140388 C390.36221124 1163.55242677 390.36221124 1163.55242677 372.46459961 1147.31567383 C371.72741699 1146.65075928 371.72741699 1146.65075928 370.9753418 1145.97241211 C368.02113473 1143.30412669 365.09734379 1140.60524467 362.18447876 1137.89181519 C360.91617083 1136.72950528 359.63425571 1135.58200194 358.34506226 1134.44290161 C352.33505254 1129.12258141 346.64147187 1123.56256188 341.0411129 1117.8145256 C338.53007365 1115.24136461 336.00247638 1112.68450245 333.47827148 1110.12426758 C330.29256505 1106.89051125 327.11187711 1103.65215815 323.94580078 1100.39916992 C321.36013545 1097.74338836 318.76017004 1095.10238796 316.14997292 1092.4707222 C315.16334148 1091.47051019 314.18214418 1090.46490704 313.20660973 1089.45386887 C311.85044683 1088.0496065 310.47375647 1086.66525574 309.09619141 1085.28198242 C308.32027145 1084.4897226 307.5443515 1083.69746277 306.74491882 1082.88119507 C304.58015575 1081.05680226 304.58015575 1081.05680226 301.95722961 1081.43588257 C299.51304721 1082.29857391 297.25942406 1083.24773167 294.95092773 1084.42602539 C294.08286499 1084.86493607 293.21480225 1085.30384674 292.32043457 1085.75605774 C290.92226501 1086.47392708 290.92226501 1086.47392708 289.49584961 1087.20629883 C287.47378733 1088.2304504 285.45164892 1089.25445169 283.42944336 1090.27832031 C281.84558838 1091.08425125 281.84558838 1091.08425125 280.22973633 1091.90646362 C253.50430441 1105.48724544 226.78717517 1118.36375869 198.46459961 1128.31567383 C197.42190918 1128.68644043 196.37921875 1129.05720703 195.30493164 1129.43920898 C177.29414407 1135.80441278 159.03379654 1140.89502883 140.46459961 1145.31567383 C139.79928223 1145.47442993 139.13396484 1145.63318604 138.44848633 1145.79675293 C84.49873058 1158.62007467 28.81574734 1162.3105218 -26.53540039 1161.31567383 C-27.51669922 1161.30165527 -28.49799805 1161.28763672 -29.5090332 1161.27319336 C-109.14499498 1159.88735047 -189.80232719 1135.77248876 -260.53540039 1100.31567383 C-261.56084961 1099.80423828 -262.58629883 1099.29280273 -263.64282227 1098.76586914 C-285.08251906 1088.01923786 -305.83525878 1076.0085015 -325.53540039 1062.31567383 C-326.19378906 1061.86160156 -326.85217773 1061.4075293 -327.53051758 1060.93969727 C-342.35009154 1050.70235495 -356.72451429 1039.88203817 -370.53540039 1028.31567383 C-371.03990723 1027.89608398 -371.54441406 1027.47649414 -372.06420898 1027.04418945 C-379.51342574 1020.84593439 -386.74389416 1014.46214106 -393.84228516 1007.86523438 C-395.11638696 1006.69916024 -396.40289861 1005.54662347 -397.6953125 1004.40087891 C-404.06656993 998.74567921 -410.15008202 992.85588638 -416.15917969 986.82226562 C-417.72812399 985.24793228 -419.30238597 983.67905793 -420.87719727 982.1105957 C-425.77751036 977.21351093 -430.58326274 972.27634651 -435.08837891 967.0078125 C-437.13394625 964.61573771 -439.27486057 962.31487771 -441.41040039 960.00317383 C-446.33111819 954.60075926 -450.96332592 949.01398524 -455.53540039 943.31567383 C-456.44765329 942.19546866 -457.36043842 941.07569678 -458.27368164 939.95629883 C-511.35332787 874.6233875 -548.74777216 798.02985334 -568.53540039 716.31567383 C-568.83784668 715.07527344 -569.14029297 713.83487305 -569.4519043 712.55688477 C-574.68465959 690.77187795 -578.31706209 668.79856582 -581.23400879 646.59155273 C-581.50877815 644.51670461 -581.79538242 642.4434325 -582.08325195 640.37036133 C-587.64704628 599.04563845 -587.08593053 553.60047327 -581.53540039 512.31567383 C-581.2859668 510.35186768 -581.2859668 510.35186768 -581.03149414 508.34838867 C-571.15263572 431.16857572 -545.49610416 355.15841522 -505.53540039 288.31567383 C-504.90102051 287.2523584 -504.26664062 286.18904297 -503.61303711 285.09350586 C-495.88241479 272.19916435 -487.95933641 259.51090831 -479.05688477 247.39038086 C-477.41717651 245.1544629 -475.7964032 242.90547776 -474.17602539 240.65551758 C-466.36089689 229.86163624 -458.13347922 219.49387157 -449.53540039 209.31567383 C-449.02267578 208.70385254 -448.50995117 208.09203125 -447.98168945 207.46166992 C-435.60225049 192.6941349 -422.26332473 178.95115167 -408.66040039 165.31567383 C-408.02466095 164.67725555 -407.38892151 164.03883728 -406.73391724 163.381073 C-400.1794306 156.80567083 -393.64048392 150.30186238 -386.53540039 144.31567383 C-385.34321633 143.27116803 -384.1531136 142.22428193 -382.96508789 141.17504883 C-358.72976134 119.92694568 -332.51492772 101.15726953 -304.82202148 84.67797852 C-303.33732542 83.79343826 -301.8556799 82.90374998 -300.37768555 82.00805664 C-273.19608441 65.57779875 -243.93088826 51.30803642 -214.53540039 39.31567383 C-213.00882812 38.68943115 -213.00882812 38.68943115 -211.45141602 38.05053711 C-182.21714942 26.16570405 -152.2889114 18.07483374 -121.53540039 11.31567383 C-120.31691406 11.0473877 -119.09842773 10.77910156 -117.84301758 10.50268555 C-105.05530125 7.74327025 -92.19901327 5.74429932 -79.22290039 4.12817383 C-77.9920874 3.9730835 -76.76127441 3.81799316 -75.49316406 3.65820312 C-50.35397042 0.71076077 -25.28121459 -0.03782215 0 0 Z " fill="#0A8A4C" transform="translate(584.535400390625,-0.315673828125)"/>
</svg>
