<?xml version="1.0" encoding="UTF-8"?>
<svg version="1.1" xmlns="http://www.w3.org/2000/svg" width="500" height="829">
<path d="M0 0 C3.4196967 1.61531615 5.65199177 3.41251026 8.3125 6.125 C9.38951172 7.21167969 9.38951172 7.21167969 10.48828125 8.3203125 C12.38050808 10.33908016 14.18146184 12.37557841 15.97558594 14.4777832 C20.71111885 19.89857915 25.80969213 24.95419394 30.90234375 30.03515625 C31.94949136 31.08297946 32.99649066 32.1309509 34.04335022 33.17906189 C36.22609326 35.36326988 38.41061025 37.54568332 40.59643555 39.72680664 C43.37786424 42.50253881 46.15477776 45.28273782 48.93036556 48.06430912 C51.08801021 50.22559203 53.24806147 52.38445714 55.40881538 54.54263115 C56.4328577 55.56601321 57.45617674 56.59011961 58.47871208 57.6150074 C64.98075226 64.14941576 64.98075226 64.14941576 71.82446289 70.32006836 C77.47940226 75.17362316 82.64956319 80.53985771 87.89826965 85.82310486 C89.88137034 87.81911524 91.86770574 89.81185706 93.8548584 91.80383301 C98.78674428 96.74899951 103.71313887 101.69962469 108.63970947 106.65008545 C112.81395355 110.84414606 116.99029856 115.03609363 121.16938782 119.22532654 C123.11448045 121.17684251 125.05650666 123.13137385 126.99841309 125.08605957 C132.2160576 130.3250979 137.41850958 135.48242933 143.0526123 140.27746582 C146.91029097 143.6897208 150.49599031 147.38864447 154.12033081 151.04516602 C155.59931909 152.53714243 157.08160502 154.02577553 158.56469727 155.51367188 C162.24447387 159.20668154 165.91872627 162.90517112 169.59313965 166.60351562 C172.71045629 169.74070304 175.82991088 172.87573602 178.95211792 176.00805664 C180.39865069 177.46097908 181.84209167 178.91692281 183.28540039 180.37304688 C187.81990902 184.92430007 192.40252591 189.33297985 197.27963257 193.515625 C226.09233221 218.37592533 247.25239549 250.32954035 251 289 C251.15930041 292.98055297 251.17361306 296.95919472 251.18754578 300.94259644 C251.19545586 302.14279171 251.20336594 303.34298699 251.21151572 304.57955182 C251.2322 307.89842483 251.24846828 311.21726342 251.26265609 314.53616691 C251.27560511 317.38578324 251.29214233 320.23537455 251.30863335 323.08497225 C251.4642732 350.09204389 251.53959562 377.09969839 251.60025311 404.10713005 C251.60828125 407.61943469 251.61644968 411.13173897 251.62475586 414.64404297 C251.62681346 415.51696441 251.62887106 416.38988585 251.63099102 417.28925945 C251.6654307 431.43819136 251.73811105 445.58667122 251.82566347 459.73536335 C251.91486412 474.27096681 251.96618315 488.80633561 251.98155528 503.34220707 C251.99120686 511.50009659 252.01791914 519.65716968 252.08786583 527.814785 C252.14739255 534.75974827 252.17305488 541.70378637 252.15452697 548.6489986 C252.14614454 552.19110116 252.1538596 555.73120834 252.205513 559.27298737 C252.26113968 563.11723987 252.23882743 566.95884611 252.20927429 570.80343628 C252.23772059 571.91638467 252.26616688 573.02933306 252.29547518 574.17600715 C252.2012299 578.94043574 251.94559185 581.85715517 248.84682286 585.60233563 C246.31963087 587.88549004 243.70914218 589.93899194 241 592 C239.51894752 593.40116272 238.05589048 594.82191666 236.62194824 596.27125549 C235.90430298 596.99041641 235.18665771 597.70957733 234.44726562 598.45053101 C233.70089844 599.20363556 232.95453125 599.95674011 232.18554688 600.73266602 C231.36799927 601.55328018 230.55045166 602.37389435 229.70812988 603.21937561 C227.953439 604.98115982 226.19988162 606.74407359 224.44737244 608.50802803 C221.67638878 611.29653536 218.9017607 614.08136906 216.12609863 616.86521912 C208.24202521 624.77329305 200.36411264 632.68748843 192.49023438 640.60571289 C187.65912632 645.46394191 182.82280147 650.31693351 177.98365784 655.16715813 C176.14128813 657.01575164 174.30082004 658.86624232 172.46226501 660.71862984 C169.90575747 663.2942258 167.34326711 665.86372094 164.77929688 668.43188477 C163.63545532 669.58886871 163.63545532 669.58886871 162.46850586 670.76922607 C161.77341919 671.46300858 161.07833252 672.15679108 160.36218262 672.87159729 C159.7575695 673.47935281 159.15295639 674.08710833 158.53002167 674.71328068 C157 676 157 676 155 676 C155 676.66 155 677.32 155 678 C153.54221916 679.43721867 153.54221916 679.43721867 151.51950073 681.11061096 C147.01587373 684.94349215 142.84855202 689.03102403 138.68798828 693.23022461 C137.89999344 694.02128601 137.1119986 694.81234741 136.30012512 695.62738037 C134.60379301 697.33082174 132.90859101 699.03538911 131.21442032 700.74098015 C128.53598847 703.43689178 125.85394987 706.1291666 123.17086792 708.82044983 C115.5481066 716.46760067 107.93109761 724.12045989 100.31835938 731.77758789 C95.65165657 736.47141472 90.97973177 741.16000567 86.30498886 745.8458271 C84.5240236 747.63301752 82.74496018 749.42210518 80.96780777 751.21308708 C78.4949034 753.70508393 76.01601455 756.19097431 73.53564453 758.67553711 C72.79799362 759.42194962 72.06034271 760.16836212 71.30033875 760.93739319 C70.62760422 761.60882355 69.95486969 762.28025391 69.26174927 762.97203064 C68.67666155 763.56026076 68.09157383 764.14849089 67.48875618 764.75454617 C66 766 66 766 64 766 C64 766.66 64 767.32 64 768 C63.34 768 62.68 768 62 768 C62 768.66 62 769.32 62 770 C60.67242432 771.3013916 60.67242432 771.3013916 58.75097656 772.86914062 C53.41072838 777.41421951 48.55069204 782.39920054 43.6462326 787.40086365 C41.36702426 789.72262737 39.07804871 792.03466308 36.78970718 794.34741974 C32.5446727 798.63801142 28.30389237 802.93262923 24.07910156 807.24316406 C21.12396661 810.25752339 18.15690378 813.25966848 15.18146515 816.25398254 C14.05257917 817.39462727 12.92824751 818.53979793 11.80858612 819.6894989 C10.25052742 821.2883589 8.67776386 822.87120187 7.10058594 824.45117188 C6.20982361 825.35605347 5.31906128 826.26093506 4.40130615 827.1932373 C2 829 2 829 0.1662426 828.90711975 C-2.91148216 827.61831446 -4.70873197 825.65609335 -7.06118774 823.29284668 C-7.55730415 822.79858799 -8.05342055 822.30432929 -8.56457078 821.79509306 C-10.22685671 820.13540898 -11.87818118 818.4652312 -13.52978516 816.79492188 C-14.7185812 815.60364283 -15.90804588 814.41303071 -17.09812927 813.22303772 C-20.32978006 809.98797224 -23.55216434 806.74381396 -26.7731328 803.49811745 C-30.14179815 800.10699731 -33.51933898 796.72474256 -36.89608765 793.3416748 C-43.2919672 786.93129978 -49.68058558 780.51374189 -56.06628644 774.09322882 C-67.50898858 762.58861513 -78.96389548 751.09615916 -90.42151678 739.60640574 C-94.44484243 735.57122251 -98.46496919 731.53288595 -102.48248696 727.49192047 C-104.97765875 724.98295403 -107.4747948 722.47594922 -109.9723835 719.96938896 C-111.13348259 718.80320661 -112.29370338 717.63614904 -113.45299721 716.46817207 C-115.03065412 714.87888574 -116.61132382 713.29265822 -118.19277954 711.70715332 C-119.52066466 710.37204082 -119.52066466 710.37204082 -120.87537575 709.00995636 C-122.83473691 706.96187918 -122.83473691 706.96187918 -125 706 C-125 705.34 -125 704.68 -125 704 C-125.66 704 -126.32 704 -127 704 C-127 703.34 -127 702.68 -127 702 C-127.55768444 701.72641253 -128.11536888 701.45282507 -128.68995285 701.17094707 C-150.94189082 689.89159216 -171.06558807 675.14456403 -190.25 659.3125 C-190.94871767 658.73920377 -191.64743533 658.16590755 -192.36732626 657.5752387 C-228.06008992 628.11506984 -249.99353222 594.10047925 -254.61962891 547.70898438 C-258.33120636 508.83153235 -257.7608763 469.61674564 -256.63622546 430.62827343 C-256.56237382 428.05810859 -256.49098727 425.48788465 -256.42006874 422.91763735 C-255.42545489 387.21146608 -253.84742968 351.53805168 -251.35242015 315.90387748 C-251.21550941 313.94438667 -251.08108633 311.98472254 -250.94670725 310.02505648 C-249.82823033 294.00505886 -248.56131129 278.3514771 -243.3125 263.0625 C-243.05976318 262.31726074 -242.80702637 261.57202148 -242.54663086 260.80419922 C-239.7417312 252.83379905 -236.02948435 245.41101141 -232 238 C-231.16855469 236.42992187 -231.16855469 236.42992187 -230.3203125 234.828125 C-222.10195993 219.9643103 -210.51434359 208.06611009 -198.55859375 196.1953125 C-197.09885854 194.73609731 -195.63964476 193.27636034 -194.18092346 191.81613159 C-191.15257467 188.78787167 -188.11920447 185.76476867 -185.08178711 182.74560547 C-181.18255853 178.869296 -177.29475554 174.98175417 -173.41032314 171.09062386 C-170.41254059 168.08951189 -167.40981747 165.09338496 -164.40544319 162.09887314 C-162.9683304 160.66561297 -161.53256779 159.2309977 -160.09817314 157.79501724 C-158.10736182 155.80383727 -156.11021676 153.81924613 -154.11108398 151.83642578 C-153.22206894 150.94369461 -153.22206894 150.94369461 -152.31509399 150.03292847 C-148.22876911 146 -148.22876911 146 -146 146 C-146 145.34 -146 144.68 -146 144 C-144.64214325 142.66214752 -144.64214325 142.66214752 -142.69714355 141.06604004 C-137.12117857 136.31895585 -132.00602026 131.13035685 -126.84570312 125.94335938 C-125.74444105 124.84017437 -124.6429483 123.73721959 -123.54124451 122.63447571 C-121.18323338 120.27332153 -118.82678047 117.91062737 -116.47154236 115.54670715 C-112.7413375 111.80289407 -109.00724463 108.06297489 -105.27258301 104.3236084 C-97.34541285 96.3853734 -89.4224839 88.44291155 -81.5 80.5 C-72.94481713 71.9227581 -64.3888949 63.34626153 -55.82806921 54.77465105 C-52.12159115 51.06321416 -48.41755956 47.34935855 -44.71543121 43.63358307 C-42.40583579 41.31648783 -40.09413401 39.00150266 -37.78187752 36.68706322 C-36.71682467 35.62015066 -35.65263029 34.55238028 -34.58939934 33.48365211 C-29.405023 28.2733345 -24.19678217 23.14318291 -18.59894562 18.37254238 C-16.46714609 16.54259572 -14.4782919 14.59140355 -12.5 12.59765625 C-11.75878906 11.85322266 -11.01757812 11.10878906 -10.25390625 10.34179688 C-9.51011719 9.58962891 -8.76632813 8.83746094 -8 8.0625 C-6.83791016 6.89364258 -6.83791016 6.89364258 -5.65234375 5.70117188 C-3.76589243 3.8030758 -1.88183755 1.90266851 0 0 Z " fill="#19191A" transform="translate(249,0)"/>
<path d="M0 0 C0.66 0 1.32 0 2 0 C2.67317708 1.52994792 3.34635417 3.05989583 4.01953125 4.58984375 C4.4585376 5.58757812 4.89754395 6.5853125 5.34985352 7.61328125 C6.34385309 9.87238628 7.33783015 12.13150122 8.33178711 14.390625 C10.73631089 19.85569143 13.14102107 25.32067523 15.546875 30.78515625 C19.76955048 40.37718201 23.98801195 49.97105519 28.203125 59.56640625 C28.76242455 60.8395871 28.76242455 60.8395871 29.33302307 62.13848877 C31.26820599 66.54437141 33.20229438 70.95073037 35.13452148 75.35791016 C35.90606189 77.11752414 36.67762758 78.87712703 37.44921875 80.63671875 C37.82972885 81.50447937 38.21023895 82.37223999 38.60227966 83.26629639 C40.80461492 88.285568 43.01567711 93.30085601 45.23631287 98.3120575 C46.55947447 101.29907336 47.87868453 104.28782512 49.19735718 107.27682495 C49.81160479 108.66615174 50.42781018 110.05461475 51.04605103 111.44216919 C51.89242606 113.34211252 52.7321122 115.2448768 53.5703125 117.1484375 C54.04227051 118.21239746 54.51422852 119.27635742 55.00048828 120.37255859 C56 123 56 123 56 126 C36.86 126 17.72 126 -2 126 C-7.445 112.635 -7.445 112.635 -13 99 C-32.32617174 106.73046869 -46.3408518 132.72627013 -54.234375 151.07421875 C-56.27772827 156.01026542 -58.2348654 160.95758187 -60 166 C-60.25831069 166.70631152 -60.51662138 167.41262304 -60.78275967 168.14033794 C-63.90174784 177.88407534 -63.82358605 188.00368785 -64.19750977 198.13793945 C-64.28519674 200.27853393 -64.37326566 202.41911278 -64.46168518 204.55967712 C-65.24371831 224.20092308 -65.6889773 243.85270906 -66.04425144 263.50581074 C-66.28792789 276.67171841 -66.63271576 289.81825336 -67.23852539 302.97290039 C-72.8842093 368.56272477 -72.8842093 368.56272477 -47.42698193 426.02400112 C-37.68497892 436.35431462 -26.48780449 445.11521366 -14.69517517 452.97062683 C-10.38807354 455.88322126 -7.09669883 458.76395203 -3.84194279 462.79585743 C-1.54344821 465.54632817 0.95823897 468.06733945 3.49609375 470.59375 C3.97908902 471.0756601 4.46208429 471.55757021 4.95971578 472.05408365 C6.45028402 473.53810997 7.94381344 475.01911302 9.4375 476.5 C10.4657298 477.52320139 11.49372626 478.54663733 12.52148438 479.5703125 C15.01164338 482.04957999 17.50492833 484.52567538 20 487 C20.30403315 463.85169707 20.53309618 440.7037245 20.67355824 417.55382824 C20.7405191 406.8041671 20.83176289 396.05574831 20.98071289 385.30688477 C21.11051667 375.93520537 21.19420957 366.5644258 21.22315043 357.19187242 C21.24006265 352.23114829 21.27963635 347.27299768 21.37449074 342.31310081 C21.46317258 337.63779667 21.48986932 332.96610824 21.47039986 328.29004288 C21.47395754 326.58031441 21.49957342 324.87045701 21.54967117 323.16145897 C21.98129972 314.25119486 21.98129972 314.25119486 18.71575332 306.23195481 C15.22248152 302.54868221 11.22447412 299.78070381 7 297 C5.69678005 295.98338941 4.40221266 294.95534826 3.125 293.90625 C2.09375 293.1121875 1.0625 292.318125 0 291.5 C-1.62602644 290.24795964 -3.24907985 288.99063186 -4.82739258 287.67895508 C-7.12364806 285.84501708 -7.12364806 285.84501708 -10.3034668 283.9519043 C-14.75600356 281.00172619 -19.08057331 278.06163707 -20.67779541 272.74298096 C-21.61458203 266.44117397 -21.18754054 260.1457318 -20.8125 253.8125 C-20.74718483 251.88756618 -20.68788774 249.96241826 -20.63476562 248.03710938 C-20.49252741 243.3527224 -20.26893045 238.6787533 -20 234 C-16.70782021 234.60657057 -13.60201156 235.38909176 -10.43530273 236.47119141 C-9.55925888 236.76885406 -8.68321503 237.06651672 -7.78062439 237.37319946 C-6.84110428 237.69605927 -5.90158417 238.01891907 -4.93359375 238.3515625 C-3.94488785 238.68868256 -2.95618195 239.02580261 -1.93751526 239.37313843 C1.23016895 240.45415389 4.39631497 241.53960253 7.5625 242.625 C9.63467303 243.33230259 11.70693782 244.0393364 13.77929688 244.74609375 C24.38532271 248.36751143 34.97911401 252.02188878 45.54994202 255.74490356 C50.71161593 257.56081278 55.89007185 259.31180534 61.1015625 260.98046875 C65.45373774 262.51135519 69.71640633 264.28656253 74 266 C74 381.17 74 496.34 74 615 C70.535 612.03 70.535 612.03 67 609 C65.76697913 608.01826349 64.52463192 607.04785447 63.26506901 606.10041142 C62.61019056 605.60474167 61.95531211 605.10907192 61.28058887 604.59838188 C60.58504059 604.07390185 59.88949232 603.54942182 59.17286682 603.00904846 C30.49852927 581.19253698 2.95389914 558.19202542 -23.78335613 534.05555338 C-24.88451389 533.06163299 -25.98631122 532.0684207 -27.08875233 531.07592398 C-83.43224225 480.34389685 -125.19822365 432.8195697 -129.414673 354.50745007 C-130.51599894 332.75581079 -129.98430201 311.07977338 -128.80440885 289.34451407 C-128.68731326 287.18405462 -128.5737124 285.02343209 -128.46059561 282.86276102 C-126.45836069 245.03353916 -122.66729888 207.46459474 -117 170 C-116.86515772 169.1033564 -116.73031544 168.2067128 -116.59138703 167.28289819 C-116.19672215 164.67201352 -115.79623193 162.06211158 -115.39265442 159.45259094 C-115.27506545 158.68251054 -115.15747648 157.91243014 -115.0363242 157.11901397 C-114.12270253 151.31889417 -112.78160483 145.83751943 -110.8125 140.3125 C-110.51061768 139.44149658 -110.20873535 138.57049316 -109.89770508 137.6730957 C-102.86096409 117.98068315 -91.88414281 100.54162962 -78 85 C-76.83311784 83.62518287 -75.66642141 82.25020806 -74.5 80.875 C-65.01135891 70.17504303 -54.58137678 60.38434118 -42.453125 52.71875 C-32.75487333 46.50154277 -26.93581445 38.9022827 -20.58789062 29.36669922 C-18.00968137 25.52396236 -15.30968834 21.76869457 -12.625 18 C-9.97717365 14.25663979 -7.34433466 10.50626827 -4.765625 6.71484375 C-4.14171875 5.79832031 -3.5178125 4.88179687 -2.875 3.9375 C-2.35679687 3.16277344 -1.83859375 2.38804687 -1.3046875 1.58984375 C-0.87414062 1.06519531 -0.44359375 0.54054687 0 0 Z " fill="#FEFEFE" transform="translate(152,138)"/>
<path d="M0 0 C3.44083787 1.14694596 3.81913606 1.8011138 5.75 4.7265625 C6.27053955 5.50386719 6.7910791 6.28117188 7.32739258 7.08203125 C7.87935303 7.92121094 8.43131348 8.76039063 9 9.625 C10.1685401 11.36855163 11.33914186 13.11072314 12.51171875 14.8515625 C13.09743652 15.72200195 13.6831543 16.59244141 14.28662109 17.48925781 C17.15162353 21.68756004 20.15050554 25.78273899 23.19873047 29.84936523 C25.1887904 32.50699522 27.08804988 35.13936616 28.86328125 37.94921875 C33.82365829 45.65925048 40.15538051 49.93530455 47.62109375 54.97265625 C54.21081237 59.44871867 60.1499612 64.6070478 66 70 C66.5784668 70.53318848 67.15693359 71.06637695 67.75292969 71.61572266 C81.60341785 84.55328565 92.91698833 99.37637486 102 116 C102.32194336 116.5887793 102.64388672 117.17755859 102.97558594 117.78417969 C110.60355508 131.93925447 115.75264889 146.75962829 117.71194863 162.73939383 C118.10531431 165.82649901 118.55880231 168.90368892 119.01012737 171.98277175 C124.34313186 208.51098976 127.77546877 245.11106648 129.75489599 281.95970732 C129.87468701 284.18169431 129.99791094 286.40347434 130.1212554 288.62526655 C134.20883481 363.44531568 129.15143052 425.99023667 77.50033128 483.66233405 C61.05915253 501.89872443 43.50676852 518.8568378 25.26626074 535.2785731 C23.55738006 536.81710957 21.85070244 538.35806228 20.14423656 539.89927626 C-6.88416687 564.28191688 -34.71906057 587.54971155 -63.70457458 609.58113098 C-64.43705471 610.13844945 -65.16953483 610.69576792 -65.92421132 611.26997483 C-70.87579214 615 -70.87579214 615 -72 615 C-72 499.83 -72 384.66 -72 266 C-60.76923077 261.50769231 -60.76923077 261.50769231 -55.46875 259.78125 C-53.75751953 259.21857422 -53.75751953 259.21857422 -52.01171875 258.64453125 C-49.67057292 257.88151042 -47.32942708 257.11848958 -44.98828125 256.35546875 C-38.98619079 254.38190002 -33.09698863 252.28651341 -27.25195312 249.88867188 C-23.89075716 248.56226757 -20.46279999 247.52420845 -17 246.5 C-12.58657738 245.16035775 -8.25873069 243.78406286 -4 242 C0.36357671 240.17874567 4.80343963 238.72336019 9.3125 237.3125 C10.33633789 236.99055664 10.33633789 236.99055664 11.38085938 236.66210938 C14.90081476 235.5766453 18.38454366 234.69093316 22 234 C22.2235491 239.6922861 22.386276 245.38198624 22.49438477 251.07763672 C22.53947164 253.01200898 22.60076343 254.94607745 22.67895508 256.87939453 C23.30993046 272.88884823 23.30993046 272.88884823 20.19384766 277.91088867 C17.90507488 279.96400262 15.66469086 281.47755146 13 283 C11.82320885 283.91419109 10.65996639 284.84628373 9.515625 285.80078125 C8.42890593 286.64038517 7.34034892 287.47761539 6.25 288.3125 C0.80096285 292.53516688 -4.50665077 296.89393977 -9.73730469 301.3840332 C-13.87166561 304.9282453 -13.87166561 304.9282453 -16.14132309 306.19726276 C-18.31684256 307.9452061 -18.31684256 307.9452061 -18.49219131 311.16465282 C-18.48850414 312.481895 -18.48481697 313.79913717 -18.48101807 315.15629578 C-18.48614462 316.2565745 -18.48614462 316.2565745 -18.49137473 317.37908107 C-18.4979781 319.84385372 -18.47593831 322.30754403 -18.45410156 324.7722168 C-18.45297361 326.53618341 -18.45360592 328.30015191 -18.45587158 330.06411743 C-18.4570217 334.85940508 -18.43346433 339.65429447 -18.40557575 344.44948936 C-18.3806116 349.45831531 -18.37822404 354.46714987 -18.37347412 359.47602844 C-18.36102966 368.96395446 -18.32818817 378.45169666 -18.28807616 387.93954164 C-18.24340417 398.73986346 -18.22138292 409.54019394 -18.20129442 420.34058511 C-18.15945682 442.56049277 -18.08907622 464.78023482 -18 487 C-12.99762425 482.0231333 -7.99929517 477.04222846 -3.00366211 472.05859375 C-1.30633333 470.36627089 0.39189477 468.6748495 2.09106445 466.984375 C4.54359341 464.54407631 6.99279096 462.10047494 9.44140625 459.65625 C10.19273331 458.91008423 10.94406036 458.16391846 11.71815491 457.3951416 C12.43837326 456.67499878 13.15859161 455.95485596 13.90063477 455.21289062 C14.52462662 454.59111938 15.14861847 453.96934814 15.79151917 453.32873535 C17.05797404 451.99332044 18.30450058 450.63675522 19.48683727 449.22632235 C23.25522112 444.74200856 27.22318915 441.00617608 31.78597569 437.33936989 C48.24750981 424.06202626 65.97706525 409.66262951 69.02409589 387.67588657 C70.11879443 376.44662852 69.75617278 365.18514412 69.25334692 353.93396735 C69.02076456 347.76793167 69.01945233 341.6010939 68.98880005 335.43135071 C68.90679394 325.10462104 68.68114663 314.79004531 68.34716797 304.46850586 C67.87810479 289.96580899 67.67560577 275.46813881 67.52430129 260.95913064 C67.39685411 249.60092086 67.20254389 238.24365992 66.9921875 226.88671875 C66.9702223 225.68501659 66.94825709 224.48331443 66.92562628 223.24519706 C66.79370201 216.31668212 66.62649738 209.3904514 66.41038132 202.46403694 C66.34880091 200.3807513 66.29609568 198.2971786 66.25356293 196.21341705 C65.60128562 165.51130572 52.75222762 137.29865031 33 114 C32.236875 112.989375 31.47375 111.97875 30.6875 110.9375 C26.28033949 106.12037107 20.88501696 100.94250848 15 98 C11.37 107.24 7.74 116.48 4 126 C-15.14 126 -34.28 126 -54 126 C-53.05467939 121.27339693 -51.54550219 117.33854026 -49.59765625 112.984375 C-49.07424149 111.79794907 -49.07424149 111.79794907 -48.54025269 110.58755493 C-47.385585 107.97298297 -46.22397528 105.36155403 -45.0625 102.75 C-44.24694025 100.90599911 -43.43192631 99.06175674 -42.61743164 97.21728516 C-40.92321357 93.3818559 -39.22664407 89.54748015 -37.52832031 85.71386719 C-34.01695278 77.78370759 -30.53047169 69.84264732 -27.04580688 61.90072632 C-25.93882482 59.37801915 -24.83116046 56.85561243 -23.72338867 54.33325195 C-15.77859574 36.23831529 -7.8861238 18.12056674 0 0 Z " fill="#FEFEFE" transform="translate(346,138)"/>
<path d="M0 0 C3.4196967 1.61531615 5.65199177 3.41251026 8.3125 6.125 C9.38951172 7.21167969 9.38951172 7.21167969 10.48828125 8.3203125 C12.38050808 10.33908016 14.18146184 12.37557841 15.97558594 14.4777832 C20.71111885 19.89857915 25.80969213 24.95419394 30.90234375 30.03515625 C31.94949136 31.08297946 32.99649066 32.1309509 34.04335022 33.17906189 C36.22609326 35.36326988 38.41061025 37.54568332 40.59643555 39.72680664 C43.37786424 42.50253881 46.15477776 45.28273782 48.93036556 48.06430912 C51.08801021 50.22559203 53.24806147 52.38445714 55.40881538 54.54263115 C56.4328577 55.56601321 57.45617674 56.59011961 58.47871208 57.6150074 C64.98075226 64.14941576 64.98075226 64.14941576 71.82446289 70.32006836 C77.47940226 75.17362316 82.64956319 80.53985771 87.89826965 85.82310486 C89.88137034 87.81911524 91.86770574 89.81185706 93.8548584 91.80383301 C98.78674428 96.74899951 103.71313887 101.69962469 108.63970947 106.65008545 C112.81395355 110.84414606 116.99029856 115.03609363 121.16938782 119.22532654 C123.11448045 121.17684251 125.05650666 123.13137385 126.99841309 125.08605957 C132.2160576 130.3250979 137.41850958 135.48242933 143.0526123 140.27746582 C146.91029097 143.6897208 150.49599031 147.38864447 154.12033081 151.04516602 C155.59931909 152.53714243 157.08160502 154.02577553 158.56469727 155.51367188 C162.24447387 159.20668154 165.91872627 162.90517112 169.59313965 166.60351562 C172.71045629 169.74070304 175.82991088 172.87573602 178.95211792 176.00805664 C180.39865069 177.46097908 181.84209167 178.91692281 183.28540039 180.37304688 C187.81990902 184.92430007 192.40252591 189.33297985 197.27963257 193.515625 C226.09233221 218.37592533 247.25239549 250.32954035 251 289 C251.15930041 292.98055297 251.17361306 296.95919472 251.18754578 300.94259644 C251.19545586 302.14279171 251.20336594 303.34298699 251.21151572 304.57955182 C251.2322 307.89842483 251.24846828 311.21726342 251.26265609 314.53616691 C251.27560511 317.38578324 251.29214233 320.23537455 251.30863335 323.08497225 C251.4642732 350.09204389 251.53959562 377.09969839 251.60025311 404.10713005 C251.60828125 407.61943469 251.61644968 411.13173897 251.62475586 414.64404297 C251.62681346 415.51696441 251.62887106 416.38988585 251.63099102 417.28925945 C251.6654307 431.43819136 251.73811105 445.58667122 251.82566347 459.73536335 C251.91486412 474.27096681 251.96618315 488.80633561 251.98155528 503.34220707 C251.99120686 511.50009659 252.01791914 519.65716968 252.08786583 527.814785 C252.14739255 534.75974827 252.17305488 541.70378637 252.15452697 548.6489986 C252.14614454 552.19110116 252.1538596 555.73120834 252.205513 559.27298737 C252.26113968 563.11723987 252.23882743 566.95884611 252.20927429 570.80343628 C252.23772059 571.91638467 252.26616688 573.02933306 252.29547518 574.17600715 C252.2012299 578.94043574 251.94559185 581.85715517 248.84682286 585.60233563 C246.31963087 587.88549004 243.70914218 589.93899194 241 592 C239.51894752 593.40116272 238.05589048 594.82191666 236.62194824 596.27125549 C235.90430298 596.99041641 235.18665771 597.70957733 234.44726562 598.45053101 C233.70089844 599.20363556 232.95453125 599.95674011 232.18554688 600.73266602 C231.36799927 601.55328018 230.55045166 602.37389435 229.70812988 603.21937561 C227.953439 604.98115982 226.19988162 606.74407359 224.44737244 608.50802803 C221.67638878 611.29653536 218.9017607 614.08136906 216.12609863 616.86521912 C208.24202521 624.77329305 200.36411264 632.68748843 192.49023438 640.60571289 C187.65912632 645.46394191 182.82280147 650.31693351 177.98365784 655.16715813 C176.14128813 657.01575164 174.30082004 658.86624232 172.46226501 660.71862984 C169.90575747 663.2942258 167.34326711 665.86372094 164.77929688 668.43188477 C163.63545532 669.58886871 163.63545532 669.58886871 162.46850586 670.76922607 C161.77341919 671.46300858 161.07833252 672.15679108 160.36218262 672.87159729 C159.7575695 673.47935281 159.15295639 674.08710833 158.53002167 674.71328068 C157 676 157 676 155 676 C155 676.66 155 677.32 155 678 C153.54221916 679.43721867 153.54221916 679.43721867 151.51950073 681.11061096 C147.01587373 684.94349215 142.84855202 689.03102403 138.68798828 693.23022461 C137.89999344 694.02128601 137.1119986 694.81234741 136.30012512 695.62738037 C134.60379301 697.33082174 132.90859101 699.03538911 131.21442032 700.74098015 C128.53598847 703.43689178 125.85394987 706.1291666 123.17086792 708.82044983 C115.5481066 716.46760067 107.93109761 724.12045989 100.31835938 731.77758789 C95.65165657 736.47141472 90.97973177 741.16000567 86.30498886 745.8458271 C84.5240236 747.63301752 82.74496018 749.42210518 80.96780777 751.21308708 C78.4949034 753.70508393 76.01601455 756.19097431 73.53564453 758.67553711 C72.79799362 759.42194962 72.06034271 760.16836212 71.30033875 760.93739319 C70.62760422 761.60882355 69.95486969 762.28025391 69.26174927 762.97203064 C68.67666155 763.56026076 68.09157383 764.14849089 67.48875618 764.75454617 C66 766 66 766 64 766 C64 766.66 64 767.32 64 768 C63.34 768 62.68 768 62 768 C62 768.66 62 769.32 62 770 C60.67242432 771.3013916 60.67242432 771.3013916 58.75097656 772.86914062 C53.41072838 777.41421951 48.55069204 782.39920054 43.6462326 787.40086365 C41.36702426 789.72262737 39.07804871 792.03466308 36.78970718 794.34741974 C32.5446727 798.63801142 28.30389237 802.93262923 24.07910156 807.24316406 C21.12396661 810.25752339 18.15690378 813.25966848 15.18146515 816.25398254 C14.05257917 817.39462727 12.92824751 818.53979793 11.80858612 819.6894989 C10.25052742 821.2883589 8.67776386 822.87120187 7.10058594 824.45117188 C6.20982361 825.35605347 5.31906128 826.26093506 4.40130615 827.1932373 C2 829 2 829 0.1662426 828.90711975 C-2.91148216 827.61831446 -4.70873197 825.65609335 -7.06118774 823.29284668 C-7.55730415 822.79858799 -8.05342055 822.30432929 -8.56457078 821.79509306 C-10.22685671 820.13540898 -11.87818118 818.4652312 -13.52978516 816.79492188 C-14.7185812 815.60364283 -15.90804588 814.41303071 -17.09812927 813.22303772 C-20.32978006 809.98797224 -23.55216434 806.74381396 -26.7731328 803.49811745 C-30.14179815 800.10699731 -33.51933898 796.72474256 -36.89608765 793.3416748 C-43.2919672 786.93129978 -49.68058558 780.51374189 -56.06628644 774.09322882 C-67.50898858 762.58861513 -78.96389548 751.09615916 -90.42151678 739.60640574 C-94.44484243 735.57122251 -98.46496919 731.53288595 -102.48248696 727.49192047 C-104.97765875 724.98295403 -107.4747948 722.47594922 -109.9723835 719.96938896 C-111.13348259 718.80320661 -112.29370338 717.63614904 -113.45299721 716.46817207 C-115.03065412 714.87888574 -116.61132382 713.29265822 -118.19277954 711.70715332 C-119.52066466 710.37204082 -119.52066466 710.37204082 -120.87537575 709.00995636 C-122.83473691 706.96187918 -122.83473691 706.96187918 -125 706 C-125 705.34 -125 704.68 -125 704 C-125.66 704 -126.32 704 -127 704 C-127 703.34 -127 702.68 -127 702 C-127.55768444 701.72641253 -128.11536888 701.45282507 -128.68995285 701.17094707 C-150.94189082 689.89159216 -171.06558807 675.14456403 -190.25 659.3125 C-190.94871767 658.73920377 -191.64743533 658.16590755 -192.36732626 657.5752387 C-228.06008992 628.11506984 -249.99353222 594.10047925 -254.61962891 547.70898438 C-258.33120636 508.83153235 -257.7608763 469.61674564 -256.63622546 430.62827343 C-256.56237382 428.05810859 -256.49098727 425.48788465 -256.42006874 422.91763735 C-255.42545489 387.21146608 -253.84742968 351.53805168 -251.35242015 315.90387748 C-251.21550941 313.94438667 -251.08108633 311.98472254 -250.94670725 310.02505648 C-249.82823033 294.00505886 -248.56131129 278.3514771 -243.3125 263.0625 C-243.05976318 262.31726074 -242.80702637 261.57202148 -242.54663086 260.80419922 C-239.7417312 252.83379905 -236.02948435 245.41101141 -232 238 C-231.16855469 236.42992187 -231.16855469 236.42992187 -230.3203125 234.828125 C-222.10195993 219.9643103 -210.51434359 208.06611009 -198.55859375 196.1953125 C-197.09885854 194.73609731 -195.63964476 193.27636034 -194.18092346 191.81613159 C-191.15257467 188.78787167 -188.11920447 185.76476867 -185.08178711 182.74560547 C-181.18255853 178.869296 -177.29475554 174.98175417 -173.41032314 171.09062386 C-170.41254059 168.08951189 -167.40981747 165.09338496 -164.40544319 162.09887314 C-162.9683304 160.66561297 -161.53256779 159.2309977 -160.09817314 157.79501724 C-158.10736182 155.80383727 -156.11021676 153.81924613 -154.11108398 151.83642578 C-153.22206894 150.94369461 -153.22206894 150.94369461 -152.31509399 150.03292847 C-148.22876911 146 -148.22876911 146 -146 146 C-146 145.34 -146 144.68 -146 144 C-144.64214325 142.66214752 -144.64214325 142.66214752 -142.69714355 141.06604004 C-137.12117857 136.31895585 -132.00602026 131.13035685 -126.84570312 125.94335938 C-125.74444105 124.84017437 -124.6429483 123.73721959 -123.54124451 122.63447571 C-121.18323338 120.27332153 -118.82678047 117.91062737 -116.47154236 115.54670715 C-112.7413375 111.80289407 -109.00724463 108.06297489 -105.27258301 104.3236084 C-97.34541285 96.3853734 -89.4224839 88.44291155 -81.5 80.5 C-72.94481713 71.9227581 -64.3888949 63.34626153 -55.82806921 54.77465105 C-52.12159115 51.06321416 -48.41755956 47.34935855 -44.71543121 43.63358307 C-42.40583579 41.31648783 -40.09413401 39.00150266 -37.78187752 36.68706322 C-36.71682467 35.62015066 -35.65263029 34.55238028 -34.58939934 33.48365211 C-29.405023 28.2733345 -24.19678217 23.14318291 -18.59894562 18.37254238 C-16.46714609 16.54259572 -14.4782919 14.59140355 -12.5 12.59765625 C-11.75878906 11.85322266 -11.01757812 11.10878906 -10.25390625 10.34179688 C-9.51011719 9.58962891 -8.76632813 8.83746094 -8 8.0625 C-6.83791016 6.89364258 -6.83791016 6.89364258 -5.65234375 5.70117188 C-3.76589243 3.8030758 -1.88183755 1.90266851 0 0 Z M-2.92415142 24.55780125 C-3.65580422 25.29351825 -4.38745703 26.02923525 -5.14128113 26.7872467 C-5.9836734 27.62696014 -6.82606567 28.46667358 -7.69398499 29.33183289 C-8.61505539 30.26526016 -9.53612579 31.19868744 -10.48510742 32.16040039 C-11.46697913 33.14475468 -12.44951923 34.12844266 -13.43267822 35.11151123 C-15.55204209 37.23358525 -17.66654948 39.36034489 -19.77745628 41.49083138 C-23.12043176 44.86480424 -26.47372399 48.22839473 -29.82844543 51.59068298 C-35.14056212 56.91730892 -40.44541775 62.25110192 -45.74736434 67.58784908 C-55.221605 77.12383772 -64.70780247 86.64792389 -74.19697458 96.16905206 C-77.52371838 99.50757259 -80.84724853 102.84924984 -84.16806924 106.19366181 C-86.24500883 108.28453073 -88.32401769 110.3733337 -90.4034729 112.46170044 C-91.81355387 113.87918634 -93.22101645 115.29927548 -94.62837219 116.71946716 C-98.95561391 121.06166778 -103.34353976 125.2321103 -107.99291515 129.22574711 C-111.96917997 132.74074517 -115.69330026 136.51945126 -119.4543457 140.26147461 C-120.3644339 141.16338531 -121.27452209 142.06529602 -122.21218872 142.99453735 C-125.20372275 145.96012169 -128.1900603 148.93090859 -131.17578125 151.90234375 C-132.21317914 152.93437082 -133.25058037 153.96639454 -134.28798485 154.99841499 C-138.60967857 159.29851968 -142.92994121 163.60005379 -147.24650288 167.90531063 C-153.38454828 174.02716169 -159.5308941 180.14039341 -165.68932849 186.2417354 C-170.0458781 190.55929891 -174.39253218 194.8866737 -178.7322585 199.22114569 C-181.31132851 201.79660125 -183.89421854 204.36789462 -186.4878788 206.92866325 C-197.56927217 217.87625559 -207.91091381 228.61115664 -216 242 C-216.54082718 242.89266571 -217.08165436 243.78533142 -217.63887024 244.70504761 C-218.78586801 246.65109242 -219.84927047 248.61287186 -220.875 250.625 C-221.2373877 251.32536377 -221.59977539 252.02572754 -221.97314453 252.74731445 C-231.84144182 272.26938084 -233.50041669 291.09357364 -233.78796828 312.61807132 C-233.82708401 315.37902769 -233.87660949 318.13976315 -233.92590005 320.9005537 C-234.39231679 347.1435939 -234.61894219 373.39187061 -234.80075932 399.638237 C-234.82483768 403.0529359 -234.84934374 406.46763139 -234.87426758 409.88232422 C-234.88044039 410.73082555 -234.88661319 411.57932689 -234.89297306 412.45354038 C-234.99600222 426.16621116 -235.21381561 439.87464514 -235.47699041 453.58507615 C-235.74606361 467.72201153 -235.89878067 481.85676531 -235.94466585 495.99620581 C-235.97341553 503.91236467 -236.05240894 511.82081616 -236.26359749 519.73439026 C-238.59593496 556.67766539 -238.59593496 556.67766539 -224.19759053 589.01764727 C-217.92494454 595.62114746 -210.86994894 601.40596876 -203 606 C-202.34 606 -201.68 606 -201 606 C-200.6399503 606.86646243 -200.6399503 606.86646243 -200.27262688 607.75042915 C-198.74482021 610.45107095 -196.99580507 611.97686727 -194.63796997 613.99313354 C-188.42925186 619.44800224 -182.61856104 625.2557795 -176.79248047 631.10986328 C-175.60225503 632.30201261 -174.41179823 633.49393098 -173.22113037 634.68563843 C-170.6770805 637.23282614 -168.13458669 639.78155292 -165.59331894 642.33151627 C-161.56892081 646.36954305 -157.54061601 650.40365771 -153.51174927 654.43722534 C-144.963185 662.99684319 -136.41887234 671.56069924 -127.875 680.125 C-118.64147173 689.38059267 -109.40719573 698.63543212 -100.16802514 707.88539302 C-96.16884595 711.88953246 -92.17211231 715.89609176 -88.17728019 719.90456796 C-85.68740742 722.40193439 -83.19543368 724.8971964 -80.70290375 727.39191055 C-79.55399713 728.54267852 -78.40594984 729.69430521 -77.25886154 730.84688568 C-71.89985239 736.23072994 -66.52918765 741.53294398 -60.75238228 746.47444153 C-57.93430997 748.92774988 -55.30762767 751.56075237 -52.67578125 754.21069336 C-52.09915237 754.78717621 -51.5225235 755.36365906 -50.92842102 755.95761108 C-49.05406239 757.83265727 -47.18325455 759.71120234 -45.3125 761.58984375 C-44.00135899 762.90285306 -42.68999463 764.21563937 -41.37841797 765.5282135 C-37.95022763 768.96019656 -34.52505278 772.39517349 -31.1005249 775.83081055 C-27.59619796 779.34542187 -24.08898917 782.85715489 -20.58203125 786.36914062 C-13.71855143 793.24330044 -6.85825799 800.12063069 0 807 C12.57618961 796.42456783 24.1821834 784.94750159 35.76589203 773.30927277 C38.5390217 770.52322372 41.31533348 767.74036814 44.09259033 764.95843506 C49.98140406 759.05862285 55.86592671 753.15453943 61.75 747.25 C68.58837464 740.38788064 75.42847595 733.52749962 82.27277374 726.67128754 C84.99786352 723.9397524 87.7199069 721.20520668 90.4418335 718.47052002 C92.1209041 716.78781521 93.8001162 715.10525159 95.47949219 713.42285156 C96.22669022 712.67048721 96.97388824 711.91812286 97.74372864 711.14295959 C101.70422362 707.18207074 105.765289 703.42546601 110.00612259 699.76803207 C113.58784899 696.59200574 116.9367945 693.18487481 120.30859375 689.7890625 C121.09670441 688.99949158 121.88481506 688.20992065 122.69680786 687.39642334 C124.39478768 685.69466035 126.09161209 683.99174387 127.78738403 682.28778076 C130.47621768 679.58609729 133.16823814 676.88762547 135.86108398 674.18994141 C141.57687268 668.46276574 147.28875097 662.73170183 153 657 C159.62198724 650.35429848 166.24566672 643.71030287 172.87356567 637.07049561 C175.51665546 634.42095641 178.15669826 631.76840705 180.79663086 629.11572266 C182.42807333 627.48064527 184.05965771 625.84570945 185.69140625 624.2109375 C186.41683624 623.48034119 187.14226624 622.74974487 187.88967896 621.99700928 C193.50557026 616.38054371 199.14089541 610.97076338 205.66782379 606.41572952 C218.89621317 597.07365821 233.04084765 585.77593689 236.87184143 569.31694794 C239.78730059 552.31216828 239.02438219 534.69373529 238.51203914 517.51273211 C238.28361619 509.63732634 238.24718812 501.76399884 238.21802005 493.88575514 C238.16083845 479.82556504 237.95525371 465.77177273 237.65429688 451.71484375 C237.36358423 438.12285999 237.15154347 424.53314605 237.0390625 410.93847656 C237.03208883 410.09835975 237.02511517 409.25824295 237.01793018 408.39266805 C236.99017627 405.01408855 236.96291147 401.6355056 236.9363081 398.25691684 C236.73133486 372.38028337 236.45405307 346.50269869 235.94300461 320.63014793 C235.89005008 317.93701551 235.8441085 315.24405503 235.80173874 312.55070305 C235.51518834 293.08049176 235.51518834 293.08049176 232 274 C231.65382818 272.6861712 231.65382818 272.6861712 231.30066299 271.3458004 C230.72427121 269.24393508 230.07601986 267.18840745 229.375 265.125 C229.12339111 264.38233887 228.87178223 263.63967773 228.61254883 262.87451172 C226.6807146 257.42486319 224.35548023 252.25232418 221.6875 247.125 C221.35733887 246.48449707 221.02717773 245.84399414 220.68701172 245.18408203 C214.62640578 234.06874477 206.29360306 224.84719765 197.33984375 216.01171875 C196.33995145 215.01489825 195.34066131 214.0174734 194.3419342 213.01948547 C192.26822944 210.9503326 190.18978656 208.88611779 188.10717773 206.82592773 C185.45909219 204.20623167 182.8198589 201.57783858 180.18370724 198.94613934 C177.63472248 196.40234349 175.0811078 193.86321487 172.52734375 191.32421875 C172.05294294 190.85169867 171.57854214 190.37917858 171.08976555 189.89233971 C166.82439919 185.64883359 162.56989868 181.43023978 158.00219727 177.51098633 C153.40073242 173.55360991 149.15037816 169.2634632 144.87966919 164.95483398 C143.40068091 163.46285757 141.91839498 161.97422447 140.43530273 160.48632812 C136.75552613 156.79331846 133.08127373 153.09482888 129.40686035 149.39648438 C126.28954371 146.25929696 123.17008912 143.12426398 120.04788208 139.99194336 C118.60134931 138.53902092 117.15790833 137.08307719 115.71459961 135.62695312 C114.8200708 134.72912109 113.92554199 133.83128906 113.00390625 132.90625 C112.22861572 132.12572266 111.4533252 131.34519531 110.65454102 130.54101562 C108.57887854 128.55412194 106.48045317 126.67559708 104.30329895 124.80528259 C99.35128301 120.50237804 94.75846101 115.86780937 90.14331055 111.20922852 C89.18173641 110.24244901 88.2199117 109.27591866 87.25785828 108.30961609 C85.20276273 106.24465499 83.14915582 104.17822919 81.09665489 102.11068916 C77.85177755 98.84259291 74.60188784 95.57951198 71.35102844 92.31736755 C62.11336268 83.04638717 52.88006086 73.77108963 43.65698242 64.4855957 C38.55090253 59.34504566 33.4395236 54.20982776 28.32213241 49.08053726 C25.08718558 45.83748303 21.85892569 42.58795956 18.63537729 39.33357728 C16.63512659 37.31736667 14.62865766 35.30743757 12.62031746 33.2992878 C11.24300436 31.91838411 9.87320236 30.53000171 8.50360107 29.14144897 C7.68645126 28.326978 6.86930145 27.51250702 6.02738953 26.6733551 C5.31785975 25.95976113 4.60832998 25.24616716 3.87729931 24.51094913 C1.18588982 22.34476134 -0.24939613 22.39230788 -2.92415142 24.55780125 Z " fill="#A49E86" transform="translate(249,0)"/>
<path d="M0 0 C0.66 0 1.32 0 2 0 C2.67317708 1.52994792 3.34635417 3.05989583 4.01953125 4.58984375 C4.4585376 5.58757812 4.89754395 6.5853125 5.34985352 7.61328125 C6.34385309 9.87238628 7.33783015 12.13150122 8.33178711 14.390625 C10.73631089 19.85569143 13.14102107 25.32067523 15.546875 30.78515625 C19.76955048 40.37718201 23.98801195 49.97105519 28.203125 59.56640625 C28.76242455 60.8395871 28.76242455 60.8395871 29.33302307 62.13848877 C31.26820599 66.54437141 33.20229438 70.95073037 35.13452148 75.35791016 C35.90606189 77.11752414 36.67762758 78.87712703 37.44921875 80.63671875 C37.82972885 81.50447937 38.21023895 82.37223999 38.60227966 83.26629639 C40.80461492 88.285568 43.01567711 93.30085601 45.23631287 98.3120575 C46.55947447 101.29907336 47.87868453 104.28782512 49.19735718 107.27682495 C49.81160479 108.66615174 50.42781018 110.05461475 51.04605103 111.44216919 C51.89242606 113.34211252 52.7321122 115.2448768 53.5703125 117.1484375 C54.04227051 118.21239746 54.51422852 119.27635742 55.00048828 120.37255859 C56 123 56 123 56 126 C36.86 126 17.72 126 -2 126 C-7.445 112.635 -7.445 112.635 -13 99 C-31.54199958 106.41679983 -45.30183925 130.99873327 -53.15136719 148.57861328 C-57.92097739 159.52046571 -57.92097739 159.52046571 -61 171 C-61.61528564 171.18030762 -62.23057129 171.36061523 -62.86450195 171.54638672 C-68.69004289 173.27111555 -74.4544452 175.11484655 -80.1875 177.125 C-81.02321533 177.41705322 -81.85893066 177.70910645 -82.7199707 178.01000977 C-90.80341254 180.86950409 -98.78192067 183.98684855 -106.7487793 187.15478516 C-107.68117432 187.52522949 -108.61356934 187.89567383 -109.57421875 188.27734375 C-110.40526123 188.60984131 -111.23630371 188.94233887 -112.0925293 189.28491211 C-114 190 -114 190 -115 190 C-115.33 267.55 -115.66 345.1 -116 425 C-116.33 425 -116.66 425 -117 425 C-117.06859038 392.8379325 -117.1216075 360.675886 -117.15319599 328.51376234 C-117.15694764 324.70782386 -117.16083066 320.90188553 -117.16479492 317.09594727 C-117.16558185 316.3383244 -117.16636878 315.58070153 -117.16717956 314.80012039 C-117.18019678 302.56856562 -117.20383008 290.33705359 -117.23145839 278.10552409 C-117.25961555 265.53404705 -117.27619793 252.96259224 -117.28226548 240.39108497 C-117.28636066 232.64769576 -117.29924559 224.90442741 -117.3237494 217.16107545 C-117.34163692 211.20116436 -117.34333985 205.24135497 -117.33932304 199.28141403 C-117.34014198 196.8528132 -117.34602295 194.42420738 -117.35761642 191.99563408 C-117.43751929 174.37960504 -116.78963335 157.08345978 -110.8125 140.3125 C-110.51061768 139.44149658 -110.20873535 138.57049316 -109.89770508 137.6730957 C-102.86096409 117.98068315 -91.88414281 100.54162962 -78 85 C-76.83311784 83.62518287 -75.66642141 82.25020806 -74.5 80.875 C-65.01135891 70.17504303 -54.58137678 60.38434118 -42.453125 52.71875 C-32.75487333 46.50154277 -26.93581445 38.9022827 -20.58789062 29.36669922 C-18.00968137 25.52396236 -15.30968834 21.76869457 -12.625 18 C-9.97717365 14.25663979 -7.34433466 10.50626827 -4.765625 6.71484375 C-4.14171875 5.79832031 -3.5178125 4.88179687 -2.875 3.9375 C-2.35679687 3.16277344 -1.83859375 2.38804687 -1.3046875 1.58984375 C-0.87414062 1.06519531 -0.44359375 0.54054687 0 0 Z " fill="#E5E5E5" transform="translate(152,138)"/>
<path d="M0 0 C3.03123443 1.39631094 5.26886925 3.66028865 7.65429688 5.93969727 C8.18506836 6.43630859 8.71583984 6.93291992 9.26269531 7.44458008 C12.93845277 10.90188742 16.51003434 14.45581287 20.04882812 18.05297852 C21.91843334 19.89109564 23.85280295 21.60705415 25.84179688 23.31469727 C28.83231403 25.88384997 31.63546372 28.57036983 34.40429688 31.37719727 C37.13259095 34.14280134 39.88946521 36.79006758 42.84179688 39.31469727 C46.95875598 42.83881426 50.72858476 46.66624865 54.50976562 50.54516602 C56.8616679 52.83568096 59.30798541 54.87116621 61.90429688 56.87719727 C59.60015621 64.08328424 56.89732766 71.06556937 54.02929688 78.06469727 C53.5560498 79.22364502 53.08280273 80.38259277 52.59521484 81.57666016 C48.33372505 91.95080655 43.90071502 102.24825569 39.40869141 112.52441406 C36.61373206 118.92008287 33.87093857 125.33152416 31.19970703 131.77978516 C28.70120363 137.75387348 26.11010025 143.68832471 23.52929688 149.62719727 C22.95058019 150.96003275 22.3718857 152.29287788 21.79321289 153.62573242 C20.66725474 156.21859908 19.54063894 158.81117863 18.41357422 161.40356445 C17.15399048 164.30252231 15.89735182 167.20271829 14.64257812 170.10375977 C11.88995739 176.45360393 9.04427353 182.70938598 5.90429688 188.87719727 C3.98804825 193.15190574 2.32015915 197.41178547 0.90429688 201.87719727 C0.24429688 201.87719727 -0.41570312 201.87719727 -1.09570312 201.87719727 C-1.49917969 200.83950195 -1.90265625 199.80180664 -2.31835938 198.73266602 C-7.51898437 185.49417469 -13.09793759 172.42659119 -18.72680664 159.36621094 C-19.03970139 158.64012131 -19.35259613 157.91403168 -19.67497253 157.16593933 C-20.29294331 155.73194254 -20.91111513 154.29803236 -21.52949524 152.86421204 C-23.29805257 148.7561956 -25.0334215 144.63637374 -26.74023438 140.50219727 C-28.26927368 136.80754159 -29.86402701 133.15727 -31.53710938 129.52563477 C-34.84320585 122.32477332 -37.8003232 114.97969709 -40.79077148 107.64379883 C-43.93969364 99.92858367 -47.24487426 92.32461455 -50.7722168 84.77514648 C-52.44444697 81.11357627 -53.91231301 77.41005926 -55.28320312 73.62719727 C-55.63415039 72.68360352 -55.63415039 72.68360352 -55.9921875 71.72094727 C-57.80393003 66.80977742 -59.46173746 61.84994953 -61.09570312 56.87719727 C-60.6592749 56.47106201 -60.22284668 56.06492676 -59.77319336 55.64648438 C-51.12143062 47.58243119 -42.54781299 39.46651382 -34.27124023 31.015625 C-31.36700039 28.06827956 -28.41755646 25.25772178 -25.27148438 22.56860352 C-22.1200256 19.85135754 -19.19352317 16.99162044 -16.29882812 14.00219727 C-15.48542969 13.16301758 -14.67203125 12.32383789 -13.83398438 11.45922852 C-12.15197661 9.7138484 -10.47767226 7.96101677 -8.81054688 6.20141602 C-8.00230469 5.37254883 -7.1940625 4.54368164 -6.36132812 3.68969727 C-5.63719727 2.93301758 -4.91306641 2.17633789 -4.16699219 1.39672852 C-2.09570312 -0.12280273 -2.09570312 -0.12280273 0 0 Z " fill="#96907A" transform="translate(250.095703125,52.122802734375)"/>
<path d="M0 0 C3.44083787 1.14694596 3.81913606 1.8011138 5.75 4.7265625 C6.27053955 5.50386719 6.7910791 6.28117188 7.32739258 7.08203125 C7.87935303 7.92121094 8.43131348 8.76039063 9 9.625 C10.1685401 11.36855163 11.33914186 13.11072314 12.51171875 14.8515625 C13.09743652 15.72200195 13.6831543 16.59244141 14.28662109 17.48925781 C17.15162353 21.68756004 20.15050554 25.78273899 23.19873047 29.84936523 C25.1887904 32.50699522 27.08804988 35.13936616 28.86328125 37.94921875 C33.82365829 45.65925048 40.15538051 49.93530455 47.62109375 54.97265625 C54.21081237 59.44871867 60.1499612 64.6070478 66 70 C66.5784668 70.53318848 67.15693359 71.06637695 67.75292969 71.61572266 C81.60341785 84.55328565 92.91698833 99.37637486 102 116 C102.32194336 116.5887793 102.64388672 117.17755859 102.97558594 117.78417969 C111.46107477 133.53053716 116.95938084 150.09417384 118 168 C113.56672405 167.5476249 110.06934592 166.6127446 106.01489258 164.81811523 C102.23662344 163.28400886 98.30135042 162.27082129 94.375 161.1875 C92.51685386 160.66692795 90.65878323 160.14608634 88.80078125 159.625 C87.84896973 159.35945312 86.8971582 159.09390625 85.91650391 158.8203125 C82.9959541 157.99886203 80.08134098 157.15902888 77.16796875 156.3125 C76.22840332 156.04026611 75.28883789 155.76803223 74.32080078 155.48754883 C72.52297833 154.96608802 70.72574602 154.44258694 68.92919922 153.91674805 C68.10822754 153.67996338 67.28725586 153.44317871 66.44140625 153.19921875 C65.28741333 152.86277344 65.28741333 152.86277344 64.11010742 152.51953125 C61.81806873 151.88853209 61.81806873 151.88853209 58.6484375 151.79296875 C56 151 56 151 53.91015625 147.7890625 C53.27418904 146.41012726 52.65934049 145.02131591 52.0625 143.625 C51.38078871 142.15416219 50.69455786 140.685411 50.00390625 139.21875 C49.66762207 138.496875 49.33133789 137.775 48.98486328 137.03125 C44.8671989 128.53869481 38.98528008 121.2284753 33 114 C32.236875 112.989375 31.47375 111.97875 30.6875 110.9375 C26.28033949 106.12037107 20.88501696 100.94250848 15 98 C11.37 107.24 7.74 116.48 4 126 C-15.14 126 -34.28 126 -54 126 C-53.05467939 121.27339693 -51.54550219 117.33854026 -49.59765625 112.984375 C-49.07424149 111.79794907 -49.07424149 111.79794907 -48.54025269 110.58755493 C-47.385585 107.97298297 -46.22397528 105.36155403 -45.0625 102.75 C-44.24694025 100.90599911 -43.43192631 99.06175674 -42.61743164 97.21728516 C-40.92321357 93.3818559 -39.22664407 89.54748015 -37.52832031 85.71386719 C-34.01695278 77.78370759 -30.53047169 69.84264732 -27.04580688 61.90072632 C-25.93882482 59.37801915 -24.83116046 56.85561243 -23.72338867 54.33325195 C-15.77859574 36.23831529 -7.8861238 18.12056674 0 0 Z " fill="#E7E7E7" transform="translate(346,138)"/>
<path d="M0 0 C0.99 0.33 1.98 0.66 3 1 C-1.53120553 6.42836158 -6.32868985 11.47694439 -11.32861328 16.47387695 C-12.54923965 17.69954124 -12.54923965 17.69954124 -13.79452515 18.94996643 C-16.46715537 21.63204481 -19.1434933 24.31038405 -21.8203125 26.98828125 C-23.68552896 28.85671259 -25.55067067 30.72521854 -27.41574097 32.59379578 C-31.3157104 36.50013844 -35.21810661 40.40404584 -39.12158203 44.30688477 C-43.6307672 48.81546738 -48.1343239 53.32961898 -52.6353246 57.846371 C-56.97611489 62.20180788 -61.32241512 66.5517062 -65.67083359 70.8995266 C-67.51685955 72.74673407 -69.36126084 74.59556664 -71.20401382 76.4460392 C-73.77469271 79.02648408 -76.35159201 81.60055336 -78.93017578 84.1730957 C-79.69183044 84.94036987 -80.45348511 85.70764404 -81.23822021 86.49816895 C-81.94183685 87.19759109 -82.64545349 87.89701324 -83.37039185 88.61763 C-83.97835665 89.22613957 -84.58632145 89.83464914 -85.21270943 90.4615984 C-87.05750348 92.04949584 -88.83289453 92.91696825 -91 94 C-92.82047331 95.5310294 -92.82047331 95.5310294 -94.58732605 97.35354614 C-95.28134018 98.0462561 -95.97535431 98.73896606 -96.69039917 99.45266724 C-97.44120758 100.21223724 -98.19201599 100.97180725 -98.96557617 101.75439453 C-100.16373207 102.95452179 -100.16373207 102.95452179 -101.38609314 104.17889404 C-104.026342 106.82563661 -106.65955034 109.47927531 -109.29296875 112.1328125 C-111.12280846 113.9689207 -112.95316299 115.80451596 -114.78401184 117.63961792 C-119.11049959 121.97805514 -123.43286074 126.32056061 -127.7529071 130.66541088 C-135.95648913 138.91600392 -144.16722473 147.15945729 -152.38195229 155.39895248 C-155.08604643 158.11331642 -157.78672883 160.83104195 -160.48710632 163.54910278 C-162.13215979 165.20097981 -163.77732084 166.85274969 -165.42260742 168.50439453 C-166.17948853 169.268013 -166.93636963 170.03163147 -167.71618652 170.81838989 C-168.74451851 171.84899536 -168.74451851 171.84899536 -169.79362488 172.90042114 C-170.69149357 173.80356898 -170.69149357 173.80356898 -171.60750103 174.72496223 C-173 176 -173 176 -174 176 C-174 145.64 -174 115.28 -174 84 C-160.8 79.05 -147.6 74.1 -134 69 C-123.94876131 64.75354645 -113.94538154 60.47690608 -104 56 C-101.94279728 55.08313373 -99.88550916 54.16645905 -97.828125 53.25 C-87.83419416 48.77494266 -77.93669008 44.14153952 -68.19970703 39.13085938 C-66.624512 38.32105878 -65.04710379 37.51555749 -63.46826172 36.71289062 C-29.75166457 21.23930121 -29.75166457 21.23930121 0 0 Z " fill="#E6E6E6" transform="translate(450,573)"/>
<path d="M0 0 C3.03123443 1.39631094 5.26886925 3.66028865 7.65429688 5.93969727 C8.18506836 6.43630859 8.71583984 6.93291992 9.26269531 7.44458008 C12.93845277 10.90188742 16.51003434 14.45581287 20.04882812 18.05297852 C21.91843334 19.89109564 23.85280295 21.60705415 25.84179688 23.31469727 C28.83231403 25.88384997 31.63546372 28.57036983 34.40429688 31.37719727 C37.13259095 34.14280134 39.88946521 36.79006758 42.84179688 39.31469727 C46.99409359 42.867865 50.79368467 46.73191978 54.60742188 50.64282227 C56.81189814 52.89305716 56.81189814 52.89305716 59.20117188 54.54907227 C59.76320313 54.98735352 60.32523437 55.42563477 60.90429688 55.87719727 C60.90429688 56.53719727 60.90429688 57.19719727 60.90429688 57.87719727 C58.12912825 58.57098942 55.35363333 59.2629242 52.57617188 59.94750977 C50.07901339 60.57976904 47.58940217 61.24244579 45.10742188 61.93188477 C38.28732963 63.79917957 31.92299449 65.10053422 24.84179688 65.31469727 C8.01912777 66.05614693 -5.83167441 73.84731834 -18.42773438 84.66625977 C-20.32985147 86.71866421 -20.32985147 86.71866421 -20.06835938 89.15454102 C-18.77174218 92.78402771 -17.30021682 96.29995296 -15.72070312 99.81469727 C-15.41648438 100.50499023 -15.11226562 101.1952832 -14.79882812 101.90649414 C-13.38811915 105.08661801 -11.93616001 108.17851777 -10.30664062 111.25610352 C-9.90703125 112.12106445 -9.50742188 112.98602539 -9.09570312 113.87719727 C-9.42570312 114.53719727 -9.75570312 115.19719727 -10.09570312 115.87719727 C-11.50210601 113.47231064 -12.90777039 111.0669974 -14.3125 108.66113281 C-15.55540544 106.53389028 -16.80023543 104.4077712 -18.046875 102.28271484 C-21.12803155 97.01856041 -24.18556306 91.74632617 -27.14683533 86.41363525 C-28.1438407 84.61867827 -29.1471265 82.82737127 -30.15209961 81.03686523 C-31.42914624 78.75547381 -32.693417 76.4668748 -33.94360352 74.1706543 C-34.53004639 73.12893066 -35.11648926 72.08720703 -35.72070312 71.01391602 C-36.22859375 70.09312256 -36.73648438 69.1723291 -37.25976562 68.22363281 C-40.30134357 64.33631824 -44.47842114 62.82720692 -49.18164062 61.70922852 C-50.23544922 61.45302734 -50.23544922 61.45302734 -51.31054688 61.19165039 C-52.02339844 61.02600586 -52.73625 60.86036133 -53.47070312 60.68969727 C-54.20675781 60.51245117 -54.9428125 60.33520508 -55.70117188 60.15258789 C-57.49779363 59.72093201 -59.29654147 59.29814126 -61.09570312 58.87719727 C-59.80166245 55.99436436 -58.4915192 54.06140494 -56.14648438 51.95141602 C-55.55295166 51.4094458 -54.95941895 50.86747559 -54.34790039 50.30908203 C-53.70780029 49.73343506 -53.0677002 49.15778809 -52.40820312 48.56469727 C-46.22360752 42.90945793 -40.23604398 37.1033874 -34.37231445 31.11621094 C-31.43144975 28.13329266 -28.44867445 25.28295426 -25.26367188 22.56079102 C-22.11460117 19.84633689 -19.19101188 16.98900808 -16.29882812 14.00219727 C-15.48542969 13.16301758 -14.67203125 12.32383789 -13.83398438 11.45922852 C-12.15197661 9.7138484 -10.47767226 7.96101677 -8.81054688 6.20141602 C-8.00230469 5.37254883 -7.1940625 4.54368164 -6.36132812 3.68969727 C-5.63719727 2.93301758 -4.91306641 2.17633789 -4.16699219 1.39672852 C-2.09570312 -0.12280273 -2.09570312 -0.12280273 0 0 Z " fill="#A49E86" transform="translate(250.095703125,52.122802734375)"/>
<path d="M0 0 C0 27.06 0 54.12 0 82 C-7.875 75.25 -7.875 75.25 -10.38536072 72.7348938 C-10.95873169 72.16289749 -11.53210266 71.59090118 -12.12284851 71.00157166 C-12.72418106 70.39664383 -13.32551361 69.791716 -13.94506836 69.16845703 C-14.92683548 68.18690895 -14.92683548 68.18690895 -15.92843628 67.18553162 C-18.06795414 65.04532311 -20.20391876 62.90160617 -22.33984375 60.7578125 C-23.83177655 59.26401251 -25.32393186 57.77043472 -26.81629944 56.27706909 C-30.72618949 52.36337761 -34.63306594 48.44669135 -38.53930664 44.52935791 C-42.53284006 40.52555912 -46.52923809 36.52462187 -50.52539062 32.5234375 C-58.35305485 24.68507787 -66.17753599 16.84354907 -74 9 C-71.16415764 7.52198822 -69.05030446 6.71700964 -65.8515625 6.47265625 C-64.61273315 6.37017578 -64.61273315 6.37017578 -63.34887695 6.265625 C-62.44999756 6.19859375 -61.55111816 6.1315625 -60.625 6.0625 C-58.65222913 5.89850849 -56.67957897 5.73306041 -54.70703125 5.56640625 C-53.63791504 5.47762207 -52.56879883 5.38883789 -51.46728516 5.29736328 C-45.07739561 4.74934994 -38.69504425 4.12659681 -32.3125 3.5 C-31.06098145 3.38148682 -29.80946289 3.26297363 -28.52001953 3.14086914 C-22.12809115 2.51225981 -15.87213827 1.71920161 -9.58666992 0.38476562 C-7 0 -7 0 0 0 Z " fill="#E6E6E6" transform="translate(224,667)"/>
<path d="M0 0 C0.495 0.99 0.495 0.99 1 2 C0.24204158 4.25508924 -0.58233848 6.39174502 -1.5078125 8.578125 C-1.78483505 9.24893097 -2.0618576 9.91973694 -2.34727478 10.61087036 C-3.2653458 12.82726254 -4.19490972 15.03862758 -5.125 17.25 C-5.76401951 18.78448938 -6.40260565 20.3191593 -7.04077148 21.85400391 C-12.28964561 34.44332173 -17.69486208 46.96430165 -23.16015625 59.4609375 C-25.39543817 64.58084028 -27.55972007 69.72619897 -29.69799805 74.88720703 C-32.1989161 80.86633794 -34.79197117 86.80600631 -37.375 92.75 C-37.95371669 94.08283549 -38.53241118 95.41568061 -39.11108398 96.74853516 C-40.23704214 99.34140181 -41.36365794 101.93398136 -42.49072266 104.52636719 C-43.7503064 107.42532505 -45.00694505 110.32552102 -46.26171875 113.2265625 C-49.01433949 119.57640667 -51.86002334 125.83218871 -55 132 C-56.91624863 136.27470848 -58.58413772 140.53458821 -60 145 C-60.66 144.67 -61.32 144.34 -62 144 C-62.00837265 136.04444775 -61.98391404 128.08990784 -61.9197216 120.1346426 C-61.89088546 116.43895886 -61.87255724 112.7438987 -61.87988281 109.0480957 C-61.88656412 105.46844693 -61.86350446 101.8900208 -61.82144547 98.31062508 C-61.80519604 96.3087442 -61.8182477 94.3066922 -61.83224487 92.30479431 C-61.67658334 82.28000732 -59.16492112 74.98682339 -55 66 C-54.52247284 64.91081772 -54.04494568 63.82163544 -53.552948 62.69944763 C-50.21642645 55.27043987 -45.5334044 51.91734778 -38 49 C-37.34 49 -36.68 49 -36 49 C-36 48.34 -36 47.68 -36 47 C-36.97195313 47.03867188 -37.94390625 47.07734375 -38.9453125 47.1171875 C-43.41852015 47.11493399 -47.54601376 46.17739148 -51.875 45.125 C-52.64585937 44.95097656 -53.41671875 44.77695313 -54.2109375 44.59765625 C-56.15850964 44.13476498 -58.08248342 43.57483539 -60 43 C-60.33 42.34 -60.66 41.68 -61 41 C-60.4652002 40.85377197 -59.93040039 40.70754395 -59.37939453 40.55688477 C-56.96066661 39.89424479 -54.54282904 39.22841194 -52.125 38.5625 C-51.28324219 38.33240234 -50.44148438 38.10230469 -49.57421875 37.86523438 C-48.76855469 37.64287109 -47.96289062 37.42050781 -47.1328125 37.19140625 C-46.38918457 36.98717041 -45.64555664 36.78293457 -44.87939453 36.57250977 C-42.9363705 36.03783733 -42.9363705 36.03783733 -41 35 C-40.03866353 32.96720493 -39.15679207 30.8966292 -38.3125 28.8125 C-37.76563863 27.53979843 -37.21741943 26.2676796 -36.66796875 24.99609375 C-35.55576378 22.38902397 -34.5558536 19.77018959 -33.61328125 17.09765625 C-31.56418711 11.73336101 -29.83923125 7.85242452 -24.41796875 5.33984375 C-20.99837711 4.36743624 -17.54390943 3.79543432 -14.02587891 3.30908203 C-10.96018911 2.84135929 -7.99556865 2.04242207 -5 1.25 C-3.33333333 0.83333333 -1.66666667 0.41666667 0 0 Z " fill="#676355" transform="translate(311,109)"/>
<path d="M0 0 C0.99 0.33 1.98 0.66 3 1 C4.77361891 32.54317133 4.77361891 32.54317133 -1.3828125 40.3515625 C-4.59635111 43.55561829 -8.1385712 46.13448848 -11.95410156 48.57568359 C-14.8041383 50.55982612 -17.08621769 52.95880614 -19.48193359 55.45825195 C-21.69987837 57.71079638 -24.2184007 59.460966 -26.8125 61.25 C-28.3215778 63.10070715 -28.3215778 63.10070715 -27.8671875 66.28125 C-26.99705515 70.01262836 -25.80217058 73.06221752 -24.125 76.5 C-21.97018398 80.96122713 -19.93703822 85.43968641 -18 90 C-16.67716212 93.02550049 -15.33921957 96.04422131 -14 99.0625 C-13.65710938 99.83916016 -13.31421875 100.61582031 -12.9609375 101.41601562 C-11.45219441 104.81644614 -9.92551912 108.14109632 -8.1875 111.43359375 C-7.795625 112.28050781 -7.40375 113.12742187 -7 114 C-7.33 114.66 -7.66 115.32 -8 116 C-9.40640288 113.59511337 -10.81206726 111.18980013 -12.21679688 108.78393555 C-13.45970232 106.65669302 -14.70453231 104.53057393 -15.95117188 102.40551758 C-19.03232843 97.14136314 -22.08985993 91.8691289 -25.0511322 86.53643799 C-26.04813758 84.74148101 -27.05142337 82.95017401 -28.05639648 81.15966797 C-29.33344311 78.87827654 -30.59771387 76.58967754 -31.84790039 74.29345703 C-32.43434326 73.2517334 -33.02078613 72.21000977 -33.625 71.13671875 C-34.13289063 70.21592529 -34.64078125 69.29513184 -35.1640625 68.34643555 C-38.20564044 64.45912097 -42.38271801 62.95000965 -47.0859375 61.83203125 C-48.13974609 61.57583008 -48.13974609 61.57583008 -49.21484375 61.31445312 C-49.92769531 61.14880859 -50.64054688 60.98316406 -51.375 60.8125 C-52.11105469 60.63525391 -52.84710938 60.45800781 -53.60546875 60.27539062 C-55.4020905 59.84373475 -57.20083834 59.420944 -59 59 C-57.70595933 56.1171671 -56.39581607 54.18420767 -54.05078125 52.07421875 C-53.45724854 51.53224854 -52.86371582 50.99027832 -52.25219727 50.43188477 C-51.61209717 49.85623779 -50.97199707 49.28059082 -50.3125 48.6875 C-44.1279044 43.03226067 -38.14034086 37.22619014 -32.27661133 31.23901367 C-29.33909599 28.25949265 -26.35885897 25.4058329 -23.18359375 22.6796875 C-18.20986955 18.38706501 -13.62027469 13.72890647 -9 9.0625 C-8.12988281 8.18787109 -7.25976562 7.31324219 -6.36328125 6.41210938 C-4.23986451 4.27702551 -2.11883622 2.13962795 0 0 Z " fill="#CCC7B3" transform="translate(248,52)"/>
<path d="M0 0 C3.86779286 1.60394253 6.62644548 4.2263692 9.625 7.0625 C10.69365693 8.05767139 11.76267291 9.05245734 12.83203125 10.046875 C13.62988037 10.79227539 13.62988037 10.79227539 14.44384766 11.55273438 C16.71250491 13.66264969 19.01021878 15.73938919 21.3125 17.8125 C22.50939453 18.89144531 22.50939453 18.89144531 23.73046875 19.9921875 C25.83005472 21.84965254 27.96777068 23.64773459 30.125 25.4375 C31.07375 26.283125 32.0225 27.12875 33 28 C33 28.66 33 29.32 33 30 C32.09121094 30.01417969 31.18242187 30.02835938 30.24609375 30.04296875 C9.49519985 30.83043857 -6.41425143 39.41425143 -21 54 C-22.12531424 51.27096253 -23.250262 48.54177495 -24.375 45.8125 C-24.69210938 45.04357422 -25.00921875 44.27464844 -25.3359375 43.48242188 C-25.95271353 41.98545505 -26.56577664 40.48695213 -27.17480469 38.98681641 C-27.83665656 37.39328075 -28.55412861 35.8228965 -29.2890625 34.26171875 C-30.19122468 31.39165334 -29.84060942 29.87543956 -29 27 C-27.52880859 25.16650391 -27.52880859 25.16650391 -25.6484375 23.4765625 C-24.96136719 22.8475 -24.27429688 22.2184375 -23.56640625 21.5703125 C-22.84324219 20.92835937 -22.12007812 20.28640625 -21.375 19.625 C-19.96509298 18.34751519 -18.55623163 17.06887535 -17.1484375 15.7890625 C-16.45532471 15.16298096 -15.76221191 14.53689941 -15.0480957 13.8918457 C-12.47856027 11.5183411 -10.01669947 9.05174021 -7.57250977 6.55004883 C-5.18133101 4.19302447 -2.61450332 2.10435633 0 0 Z " fill="#B6AF97" transform="translate(249,87)"/>
<path d="M0 0 C0.66 0 1.32 0 2 0 C2.30703857 0.69971924 2.61407715 1.39943848 2.93041992 2.12036133 C4.34870959 5.35139831 5.76809917 8.58195101 7.1875 11.8125 C7.67025391 12.91271484 8.15300781 14.01292969 8.65039062 15.14648438 C9.13056641 16.23896484 9.61074219 17.33144531 10.10546875 18.45703125 C10.58290527 19.54967285 11.0603418 20.64231445 11.55224609 21.76806641 C12.50520871 23.89543894 13.49190105 26.00807198 14.51416016 28.10302734 C14.97999512 29.06289551 15.44583008 30.02276367 15.92578125 31.01171875 C16.34899658 31.85565186 16.77221191 32.69958496 17.20825195 33.5690918 C18.1451256 36.44557989 17.82655051 38.12742451 17 41 C15.77410156 41.21914062 14.54820312 41.43828125 13.28515625 41.6640625 C1.87914098 43.74797232 -9.3898839 46.19748613 -20.64624023 48.98095703 C-25.41537876 50.15781221 -30.13044711 51.30673604 -35 52 C-35.33 50.68 -35.66 49.36 -36 48 C-35.30003906 47.52046875 -34.60007812 47.0409375 -33.87890625 46.546875 C-30.11866051 43.22030754 -27.67741929 39.42824185 -24.9375 35.25 C-20.17633928 28.12977945 -15.24545596 21.20311671 -10.05102539 14.39355469 C-6.85271223 10.18675468 -3.8587561 5.90997961 -1.0859375 1.40625 C-0.72757813 0.9421875 -0.36921875 0.478125 0 0 Z " fill="#D8D8D8" transform="translate(152,138)"/>
<path d="M0 0 C3.47124312 1.15708104 3.86593214 1.87174928 5.8203125 4.83203125 C6.35180908 5.62536865 6.88330566 6.41870605 7.4309082 7.23608398 C7.9899585 8.08630127 8.54900879 8.93651855 9.125 9.8125 C13.68327074 16.64254684 18.35098062 23.24224692 23.48828125 29.65234375 C25 32 25 32 25 36 C17.10142139 35.51745018 9.24026543 34.86324131 1.375 34 C0.60559082 33.9170166 -0.16381836 33.8340332 -0.95654297 33.74853516 C-4.38023256 33.36307663 -7.67226753 32.88616454 -11 32 C-12.44309707 27.39333427 -11.45511976 24.91783783 -9.47265625 20.60546875 C-8.92802734 19.40341797 -8.38339844 18.20136719 -7.82226562 16.96289062 C-7.23596784 15.7042916 -6.64937554 14.44582973 -6.0625 13.1875 C-5.47858247 11.91006912 -4.89588619 10.63207925 -4.31445312 9.35351562 C-2.88822841 6.22996563 -1.44975488 3.11268106 0 0 Z " fill="#D7D7D7" transform="translate(346,138)"/>
<path d="M0 0 C0.33 0 0.66 0 1 0 C0.9914838 0.58183933 0.9829676 1.16367867 0.97419333 1.7631495 C0.4712938 36.36863608 0.11726009 70.97244587 -0.04764695 105.58120646 C-0.06764271 109.75108343 -0.08886254 113.92095333 -0.11083984 118.09082031 C-0.11519392 118.92084776 -0.119548 119.7508752 -0.12403402 120.60605499 C-0.19713676 133.9873031 -0.36903057 147.36550631 -0.57847288 160.74523595 C-0.79168995 174.50908393 -0.89634359 188.27078511 -0.90351081 202.0362947 C-0.91055816 209.75538116 -0.96582622 217.46754059 -1.14563751 225.18470001 C-3.48296983 262.18615469 -3.48296983 262.18615469 11.83320999 294.0008812 C16.46360095 298.43982435 21.43106675 302.30563656 26.77637482 305.84186459 C33.60272272 310.41193161 39.36039339 316.21256799 45.125 322.02734375 C45.75736572 322.66112442 46.38973145 323.29490509 47.04125977 323.94789124 C49.02989986 325.94205978 51.01500527 327.93970353 53 329.9375 C54.36044318 331.30296745 55.72111831 332.66820386 57.08203125 334.03320312 C60.3907031 337.35280886 63.69621322 340.67553273 67 344 C66.67 344.66 66.34 345.32 66 346 C64.72153198 344.71367676 64.72153198 344.71367676 63.41723633 343.40136719 C60.24223456 340.20821025 57.06387939 337.018409 53.88452148 333.82958984 C52.51121383 332.45126598 51.13880664 331.07204429 49.76733398 329.69189453 C47.79128588 327.70366188 45.81197897 325.7187234 43.83203125 323.734375 C43.22349808 323.12068054 42.6149649 322.50698608 41.98799133 321.87469482 C39.427692 319.3140622 36.92817511 316.94366159 34.07299805 314.70410156 C33.38890869 314.14174805 32.70481934 313.57939453 32 313 C32 312.34 32 311.68 32 311 C31.20860312 310.63070436 31.20860312 310.63070436 30.40121841 310.25394821 C17.9794554 303.76713826 5.94318441 293.92739194 0 281 C-5.34078156 263.06113845 -3.3980667 242.28558522 -2.89906143 223.71526061 C-2.69587331 215.94272648 -2.65659302 208.17163784 -2.62477782 200.3968251 C-2.56388481 186.539325 -2.37865332 172.68650796 -2.11230469 158.83154297 C-1.85425255 145.39395156 -1.65658224 131.95764386 -1.53808594 118.51806641 C-1.53072968 117.68607691 -1.52337342 116.85408741 -1.51579425 115.9968861 C-1.47924628 111.82194778 -1.44386412 107.64700053 -1.40906096 103.47204733 C-1.12001106 68.97799803 -0.6279561 34.48950897 0 0 Z " fill="#0A0B0E" transform="translate(16,295)"/>
<path d="M0 0 C0.99 0.33 1.98 0.66 3 1 C-30.66 34.66 -64.32 68.32 -99 103 C-99.66 102.34 -100.32 101.68 -101 101 C-67.67 67.67 -34.34 34.34 0 0 Z " fill="#131315" transform="translate(145,125)"/>
<path d="M0 0 C8.44532805 0.75404715 16.68741223 2.37828042 25 4 C25 4.66 25 5.32 25 6 C23.09392715 7.06092734 21.17467254 8.09820101 19.25 9.125 C18.18265625 9.70507812 17.1153125 10.28515625 16.015625 10.8828125 C13 12 13 12 10.90625 11.46484375 C8.49544779 9.61228058 6.38114015 7.60694495 4.25 5.4375 C3.45078125 4.63183594 2.6515625 3.82617188 1.828125 2.99609375 C0 1 0 1 0 0 Z " fill="#CEC9B5" transform="translate(250,152)"/>
<path d="M0 0 C3.56764285 1.51376081 5.83706287 3.60513129 8.546875 6.3515625 C9.39121094 7.20234375 10.23554688 8.053125 11.10546875 8.9296875 C12.41451172 10.26386719 12.41451172 10.26386719 13.75 11.625 C14.63816406 12.5221875 15.52632812 13.419375 16.44140625 14.34375 C18.63216969 16.55807004 20.81812763 18.77692435 23 21 C22.34 21.66 21.68 22.32 21 23 C18.00292183 20.05226582 15.01239506 17.09808792 12.02783203 14.13769531 C11.01106601 13.13100272 9.99251438 12.12611034 8.97216797 11.12304688 C7.50798782 9.68305629 6.05029795 8.23676744 4.59375 6.7890625 C3.71396484 5.91975098 2.83417969 5.05043945 1.92773438 4.15478516 C0 2 0 2 0 0 Z " fill="#2C2C2C" transform="translate(144,596)"/>
<path d="M0 0 C3.03872143 1.36845025 5.23033446 2.94169314 7.64453125 5.23046875 C8.32193359 5.86919922 8.99933594 6.50792969 9.69726562 7.16601562 C10.39529297 7.83310547 11.09332031 8.50019531 11.8125 9.1875 C12.49892578 9.83525391 13.18535156 10.48300781 13.89257812 11.15039062 C18.3371575 15.3594956 22.69454937 19.64889959 27 24 C24 24 24 24 21.36328125 21.62109375 C20.33946395 20.56654178 19.32291076 19.50490424 18.3125 18.4375 C17.23772934 17.32873614 16.16090558 16.22195872 15.08203125 15.1171875 C14.55689941 14.57932617 14.03176758 14.04146484 13.49072266 13.48730469 C11.57642427 11.57739546 9.56243961 9.81033018 7.5 8.0625 C4.61866233 5.61336298 2.23515028 3.07333164 0 0 Z " fill="#B0A98F" transform="translate(280,81)"/>
<path d="M0 0 C8.73512127 4.00199389 15.3814159 12.25935185 22 19 C19 19 19 19 16.328125 16.5859375 C15.29515995 15.52230525 14.26946602 14.45157763 13.25 13.375 C12.1790842 12.27019241 11.10617879 11.16730977 10.03125 10.06640625 C9.51304687 9.53547363 8.99484375 9.00454102 8.4609375 8.45751953 C6.63893195 6.63977669 4.72601058 4.96052521 2.75 3.3125 C1.8425 2.549375 0.935 1.78625 0 1 C0 0.67 0 0.34 0 0 Z " fill="#AFA88E" transform="translate(250,53)"/>
<path d="M0 0 C3.21043882 1.38188453 5.04936365 2.92421903 7.25 5.625 C8.03117188 6.57246094 8.03117188 6.57246094 8.828125 7.5390625 C9.40820312 8.26222656 9.40820312 8.26222656 10 9 C7 9 7 9 5.17578125 7.5390625 C4.56089844 6.90742187 3.94601563 6.27578125 3.3125 5.625 C2.68988281 4.99851562 2.06726563 4.37203125 1.42578125 3.7265625 C0 2 0 2 0 0 Z " fill="#9D9780" transform="translate(183,742)"/>
<path d="M0 0 C3.7952131 1.49097658 5.61042731 3.75700849 8 7 C5 7 5 7 2.3125 4.625 C0 2 0 2 0 0 Z " fill="#9D9781" transform="translate(51,611)"/>
<path d="M0 0 C3.36720387 1.39332574 4.9859524 2.9789286 7 6 C4 6 4 6 1.8125 4.125 C0 2 0 2 0 0 Z " fill="#242321" transform="translate(177,734)"/>
</svg>
