<?xml version="1.0" encoding="UTF-8"?>
<svg version="1.1" xmlns="http://www.w3.org/2000/svg" width="400" height="400">
<path d="M0 0 C0 0.66 0 1.32 0 2 C5.94 2.495 5.94 2.495 12 3 C12 3.66 12 4.32 12 5 C13.299375 5.0825 14.59875 5.165 15.9375 5.25 C21.14094865 5.80338263 25.37021568 7.64679993 30 10 C30 10.66 30 11.32 30 12 C31.98 12.33 33.96 12.66 36 13 C36 13.66 36 14.32 36 15 C36.7115625 15.09667969 37.423125 15.19335938 38.15625 15.29296875 C41.45351509 16.11275581 43.66351432 17.45205223 46.5 19.3125 C47.87671875 20.20388672 47.87671875 20.20388672 49.28125 21.11328125 C52.89072246 23.61813067 56.19440481 25.98650928 58.9375 29.4375 C60.98692404 32.15604996 60.98692404 32.15604996 64 34.5 C66.79677112 36.8306426 68.74852266 39.16749625 71 42 C71.845625 42.66 72.69125 43.32 73.5625 44 C76.74253976 46.6092634 78.26898496 49.44659304 80 53.125 C80.92980925 55.0875218 80.92980925 55.0875218 82.625 56.625 C83.07875 57.07875 83.5325 57.5325 84 58 C84 58.66 84 59.32 84 60 C84.66 60 85.32 60 86 60 C89.1754706 62.38160295 89.92577836 65.28154048 91 69 C91.66 69 92.32 69 93 69 C93.33 69.99 93.66 70.98 94 72 C95.2065625 73.175625 95.2065625 73.175625 96.4375 74.375 C99 77 99 77 100 79.6875 C100.79435751 82.22226006 100.79435751 82.22226006 103.375 83.125 C104.24125 83.41375 105.1075 83.7025 106 84 C108.3125 85.5 108.3125 85.5 110 87 C110 87.66 110 88.32 110 89 C112.97 89.495 112.97 89.495 116 90 C116 90.66 116 91.32 116 92 C117.65 92.33 119.3 92.66 121 93 C121 93.66 121 94.32 121 95 C124.96 95.66 128.92 96.32 133 97 C133 97.66 133 98.32 133 99 C136.63 99.33 140.26 99.66 144 100 C144 100.66 144 101.32 144 102 C148.14612814 101.86186975 152.29181162 101.71321141 156.4375 101.5625 C157.62150391 101.52318359 158.80550781 101.48386719 160.02539062 101.44335938 C161.15009766 101.40146484 162.27480469 101.35957031 163.43359375 101.31640625 C164.47572021 101.27974854 165.51784668 101.24309082 166.59155273 101.20532227 C168.9499826 101.26484659 168.9499826 101.26484659 170 100 C171.84891946 99.76636119 173.70488031 99.58696365 175.5625 99.4375 C176.57441406 99.35371094 177.58632813 99.26992187 178.62890625 99.18359375 C179.41136719 99.12300781 180.19382812 99.06242187 181 99 C181 98.34 181 97.68 181 97 C186.94 96.01 186.94 96.01 193 95 C193 94.34 193 93.68 193 93 C194.98 92.67 196.96 92.34 199 92 C199 91.34 199 90.68 199 90 C200.32 89.67 201.64 89.34 203 89 C203 88.34 203 87.68 203 87 C204.98 86.34 206.96 85.68 209 85 C209 84.34 209 83.68 209 83 C210.32 82.67 211.64 82.34 213 82 C213 81.34 213 80.68 213 80 C214.48331126 78.78038852 215.96808421 77.56244413 217.46484375 76.359375 C219.58686852 74.48033017 220.81661486 72.56400114 222 70 C222 68.68 222 67.36 222 66 C220.38263741 64.6072711 218.7074998 63.28062485 217 62 C216.319375 61.13375 215.63875 60.2675 214.9375 59.375 C213.03671549 57.04500608 211.75755913 56.0833268 209 55 C209 54.34 209 53.68 209 53 C208.34 53 207.68 53 207 53 C206.6363802 48.75776898 207.4606772 46.41831915 210 43 C210.66 43 211.32 43 212 43 C212.144375 42.401875 212.28875 41.80375 212.4375 41.1875 C212.8872439 39.43849596 213.42892341 37.71322977 214 36 C214.66 36 215.32 36 216 36 C216.33 34.02 216.66 32.04 217 30 C217.66 30 218.32 30 219 30 C219.33 28.35 219.66 26.7 220 25 C220.66 25 221.32 25 222 25 C221.67 24.01 221.34 23.02 221 22 C221.66 22 222.32 22 223 22 C223 21.34 223 20.68 223 20 C226.84800954 20.54971565 228.35309439 22.27037858 231 25 C233.13309192 26.23512079 233.13309192 26.23512079 235 27 C235 27.66 235 28.32 235 29 C235.99 29.33 236.98 29.66 238 30 C238 30.66 238 31.32 238 32 C238.99 32.33 239.98 32.66 241 33 C241 33.66 241 34.32 241 35 C242.32 35.66 243.64 36.32 245 37 C245 37.66 245 38.32 245 39 C245.99 39.33 246.98 39.66 248 40 C248 40.66 248 41.32 248 42 C248.66 42 249.32 42 250 42 C250.103125 42.639375 250.20625 43.27875 250.3125 43.9375 C250.539375 44.618125 250.76625 45.29875 251 46 C251.99 46.33 252.98 46.66 254 47 C254 47.66 254 48.32 254 49 C254.66 49 255.32 49 256 49 C260.42857143 56.42857143 260.42857143 56.42857143 261 60 C261.66 60 262.32 60 263 60 C265.0316327 64.19024245 265.53209197 67.36319853 265 72 C263.5485546 75.45919391 261.8404114 78.73326977 260 82 C259.34 82 258.68 82 258 82 C257.87625 82.639375 257.7525 83.27875 257.625 83.9375 C257.315625 84.9584375 257.315625 84.9584375 257 86 C256.34 86.33 255.68 86.66 255 87 C254.731875 87.7425 254.46375 88.485 254.1875 89.25 C252.71252384 92.66573426 250.68521598 94.43967779 248 97 C247.09229732 98.09443009 246.19626105 99.19864732 245.3125 100.3125 C244.549375 101.199375 243.78625 102.08625 243 103 C242.34 103 241.68 103 241 103 C240.67 103.99 240.34 104.98 240 106 C235.54285714 110 235.54285714 110 233 110 C233 110.66 233 111.32 233 112 C231.11947058 113.45194365 229.16863151 114.81364605 227.1875 116.125 C226.10855469 116.84945312 225.02960938 117.57390625 223.91796875 118.3203125 C221 120 221 120 218 120 C218 120.66 218 121.32 218 122 C216.421924 122.84324672 214.8372958 123.67423918 213.25 124.5 C211.92742187 125.19609375 211.92742187 125.19609375 210.578125 125.90625 C208 127 208 127 204 127 C204 127.66 204 128.32 204 129 C201.69 129.33 199.38 129.66 197 130 C197 130.66 197 131.32 197 132 C196.00097656 132.20496094 195.00195312 132.40992188 193.97265625 132.62109375 C192.68230469 132.89050781 191.39195312 133.15992188 190.0625 133.4375 C188.77472656 133.70433594 187.48695313 133.97117187 186.16015625 134.24609375 C183.15361121 134.67181616 183.15361121 134.67181616 182 136 C174.42342458 137.17839399 166.84885826 137.1532369 159.19848633 137.13037109 C157.0704025 137.12501987 154.94253049 137.13033918 152.81445312 137.13671875 C133.22057668 137.14743086 133.22057668 137.14743086 126 134 C123.01621233 133.25405308 120.01284176 132.61700899 117 132 C117 131.34 117 130.68 117 130 C116.00871094 129.90847656 115.01742187 129.81695312 113.99609375 129.72265625 C109.6143712 129.09669589 105.99969434 127.38871015 102.0625 125.4375 C101.37865234 125.10814453 100.69480469 124.77878906 99.99023438 124.43945312 C98.32268129 123.63482961 96.66073161 122.8186103 95 122 C95 121.34 95 120.68 95 120 C93.7934375 119.814375 93.7934375 119.814375 92.5625 119.625 C91.716875 119.41875 90.87125 119.2125 90 119 C89.67 118.34 89.34 117.68 89 117 C86.98330173 115.86649466 86.98330173 115.86649466 85 115 C85 114.34 85 113.68 85 113 C83.68 112.67 82.36 112.34 81 112 C81 111.34 81 110.68 81 110 C80.40703125 109.7215625 79.8140625 109.443125 79.203125 109.15625 C71.96564368 105.35785555 66.58137551 98.61622021 62 92 C62 91.34 62 90.68 62 90 C61.01 89.67 60.02 89.34 59 89 C58.67 88.01 58.34 87.02 58 86 C57.34 85.67 56.68 85.34 56 85 C55.375 82.4375 55.375 82.4375 55 80 C54.34 80 53.68 80 53 80 C50 74 50 74 49.125 71.875 C47.57382895 69.28971492 45.34407494 67.86323906 43 66 C42.67 65.01 42.34 64.02 42 63 C39.55332648 60.28147386 37.32961406 58.19776844 34.1875 56.3125 C33.465625 55.879375 32.74375 55.44625 32 55 C32 54.34 32 53.68 32 53 C30.68 52.67 29.36 52.34 28 52 C28 51.34 28 50.68 28 50 C27.319375 49.731875 26.63875 49.46375 25.9375 49.1875 C22.60289191 47.83946694 19.30256763 46.42463702 16 45 C16 44.34 16 43.68 16 43 C13.69 42.67 11.38 42.34 9 42 C9 41.34 9 40.68 9 40 C5.7 39.67 2.4 39.34 -1 39 C-1 38.34 -1 37.68 -1 37 C-5.87054715 36.89970361 -10.74046871 36.82787308 -15.61181641 36.78027344 C-17.26231379 36.76039179 -18.912743 36.73327644 -20.56298828 36.69824219 C-31.55668717 36.4710168 -40.52712236 37.39346808 -51 41 C-53.32692342 41.69188875 -55.66170939 42.34702675 -58 43 C-58 43.66 -58 44.32 -58 45 C-60.90600261 46.25664978 -62.79604584 47 -66 47 C-66 47.66 -66 48.32 -66 49 C-67.98 49.495 -67.98 49.495 -70 50 C-70 50.66 -70 51.32 -70 52 C-71.98 52.495 -71.98 52.495 -74 53 C-74 53.66 -74 54.32 -74 55 C-75.4583267 56.22632018 -76.92057475 57.44855845 -78.41015625 58.63671875 C-80.60062372 60.51503115 -82.25402121 62.71216572 -84 65 C-84.598125 65.515625 -85.19625 66.03125 -85.8125 66.5625 C-87.18878311 67.93047282 -87.18878311 67.93047282 -87.0625 69.875 C-85.74371195 72.5125761 -83.86017414 73.91770635 -81.5546875 75.69921875 C-80 77 -80 77 -77.8125 79.75 C-76.12619585 82.2581635 -76.12619585 82.2581635 -73 83 C-73 83.66 -73 84.32 -73 85 C-70.03 85.99 -70.03 85.99 -67 87 C-67 87.66 -67 88.32 -67 89 C-65.68 89.33 -64.36 89.66 -63 90 C-63 90.66 -63 91.32 -63 92 C-61.02 92.33 -59.04 92.66 -57 93 C-57 93.66 -57 94.32 -57 95 C-51.555 95.99 -51.555 95.99 -46 97 C-46 97.66 -46 98.32 -46 99 C-45.14535156 99.06058594 -44.29070312 99.12117188 -43.41015625 99.18359375 C-42.30542969 99.26738281 -41.20070313 99.35117188 -40.0625 99.4375 C-38.40927734 99.55931641 -38.40927734 99.55931641 -36.72265625 99.68359375 C-34 100 -34 100 -33 101 C-31.14825294 101.15786308 -29.2909089 101.25107356 -27.43359375 101.31640625 C-26.30888672 101.35830078 -25.18417969 101.40019531 -24.02539062 101.44335938 C-22.84138672 101.48267578 -21.65738281 101.52199219 -20.4375 101.5625 C-19.24962891 101.60568359 -18.06175781 101.64886719 -16.83789062 101.69335938 C-13.89205216 101.79983546 -10.9461257 101.90184841 -8 102 C-8 101.34 -8 100.68 -8 100 C-6.96552734 99.83564453 -6.96552734 99.83564453 -5.91015625 99.66796875 C-0.38304596 98.73541105 4.77946507 97.56737954 10.02734375 95.5859375 C12 95 12 95 16 95 C16 94.34 16 93.68 16 93 C18.475 92.505 18.475 92.505 21 92 C21 91.34 21 90.68 21 90 C23.475 89.505 23.475 89.505 26 89 C26 88.34 26 87.68 26 87 C32.625 83 32.625 83 36 83 C40 89.75 40 89.75 40 92 C40.66 92 41.32 92 42 92 C43.4606285 94.64738916 44 95.89448334 44 99 C44.99 99.33 45.98 99.66 47 100 C47 100.66 47 101.32 47 102 C47.99 102.33 48.98 102.66 50 103 C50.33 103.99 50.66 104.98 51 106 C51.53625 106.474375 52.0725 106.94875 52.625 107.4375 C53.07875 107.953125 53.5325 108.46875 54 109 C53.6875 111.1875 53.6875 111.1875 53 113 C52.34 113 51.68 113 51 113 C50.67 113.99 50.34 114.98 50 116 C49.01 116.33 48.02 116.66 47 117 C46.67 117.66 46.34 118.32 46 119 C43.4375 119.625 43.4375 119.625 41 120 C41 120.66 41 121.32 41 122 C39.25447527 122.84266711 37.5033792 123.67380038 35.75 124.5 C34.77546875 124.9640625 33.8009375 125.428125 32.796875 125.90625 C30 127 30 127 26 127 C26 127.66 26 128.32 26 129 C23.69 129.33 21.38 129.66 19 130 C19 130.66 19 131.32 19 132 C18.07316406 132.20496094 17.14632812 132.40992188 16.19140625 132.62109375 C14.99386719 132.89050781 13.79632813 133.15992188 12.5625 133.4375 C11.36753906 133.70433594 10.17257813 133.97117187 8.94140625 134.24609375 C6.1295314 134.70066748 6.1295314 134.70066748 5 136 C-8.69671413 137.95584373 -22.72663769 138.43582865 -36.5 137.25 C-38.0015564 137.12081177 -38.0015564 137.12081177 -39.53344727 136.98901367 C-43.87575612 136.54727588 -47.12519737 136.06285185 -51 134 C-52.73813388 133.57336714 -54.48988665 133.19923141 -56.25 132.875 C-57.58804688 132.62363281 -57.58804688 132.62363281 -58.953125 132.3671875 C-59.62859375 132.24601563 -60.3040625 132.12484375 -61 132 C-61 131.34 -61 130.68 -61 130 C-63.31 129.67 -65.62 129.34 -68 129 C-68 128.34 -68 127.68 -68 127 C-69.010625 126.9175 -70.02125 126.835 -71.0625 126.75 C-75.37786916 126.15993932 -78.34738197 124.31083998 -82 122 C-82 121.34 -82 120.68 -82 120 C-82.66 119.95875 -83.32 119.9175 -84 119.875 C-88.4374485 118.58074419 -91.43232628 115.86897852 -95 113 C-95.85722656 112.34 -96.71445313 111.68 -97.59765625 111 C-101.98572105 107.58777877 -105.5482047 104.37374917 -109 100 C-109.66 99.67 -110.32 99.34 -111 99 C-111.474375 98.195625 -111.94875 97.39125 -112.4375 96.5625 C-113.89664045 93.7644028 -113.89664045 93.7644028 -117 92 C-117.6875 89.375 -117.6875 89.375 -118 87 C-118.99 86.67 -119.98 86.34 -121 86 C-122.16796875 84.4765625 -122.16796875 84.4765625 -123.1875 82.625 C-123.53167969 82.01914063 -123.87585938 81.41328125 -124.23046875 80.7890625 C-125 79 -125 79 -125 76 C-125.99 75.67 -126.98 75.34 -128 75 C-128.90226443 69.51325682 -129.46970526 65.1993795 -127 60 C-126.01 59.505 -126.01 59.505 -125 59 C-124.3503125 57.700625 -124.3503125 57.700625 -123.6875 56.375 C-119 47 -119 47 -115 45 C-114.67 44.01 -114.34 43.02 -114 42 C-113.34 42 -112.68 42 -112 42 C-111.67 41.01 -111.34 40.02 -111 39 C-110.34 39 -109.68 39 -109 39 C-108.34 37.68 -107.68 36.36 -107 35 C-106.34 35 -105.68 35 -105 35 C-104.67 34.01 -104.34 33.02 -104 32 C-103.34 32 -102.68 32 -102 32 C-101.67 31.01 -101.34 30.02 -101 29 C-100.34 29 -99.68 29 -99 29 C-98.67 28.01 -98.34 27.02 -98 26 C-97.01 25.67 -96.02 25.34 -95 25 C-93.99563007 24.00438911 -92.99646854 23.00351903 -92 22 C-90.19456336 20.73021248 -88.3581522 19.50381532 -86.5 18.3125 C-85.5409375 17.68988281 -84.581875 17.06726563 -83.59375 16.42578125 C-81 15 -81 15 -78 15 C-78 14.34 -78 13.68 -78 13 C-76.02 12.67 -74.04 12.34 -72 12 C-72 11.34 -72 10.68 -72 10 C-66.7822593 7.45897261 -61.83430514 5.54998637 -56.1328125 4.4375 C-54.1452705 4.02979908 -52.19335925 3.45800777 -50.25 2.875 C-47.3072535 2.0827221 -45.02050241 1.81693925 -42 2 C-42 1.34 -42 0.68 -42 0 C-27.9573685 -1.37880823 -14.06875287 -0.71020147 0 0 Z " fill="#000000" transform="translate(132,129)"/>
<path d="M0 0 C0 0.66 0 1.32 0 2 C0.556875 2.103125 1.11375 2.20625 1.6875 2.3125 C4.4769101 3.14178408 6.6139064 4.34299056 9 6 C9 6.66 9 7.32 9 8 C9.598125 8.144375 10.19625 8.28875 10.8125 8.4375 C12.56150404 8.8872439 14.28677023 9.42892341 16 10 C16 10.66 16 11.32 16 12 C17.98 12.33 19.96 12.66 22 13 C22 13.66 22 14.32 22 15 C22.94875 15.268125 23.8975 15.53625 24.875 15.8125 C29.59763473 17.16043887 34.29833036 18.58098502 39 20 C39 20.66 39 21.32 39 22 C42.3 22.33 45.6 22.66 49 23 C49 23.66 49 24.32 49 25 C50.48113281 25.09087891 50.48113281 25.09087891 51.9921875 25.18359375 C53.27351562 25.26738281 54.55484375 25.35117187 55.875 25.4375 C57.15117187 25.51871094 58.42734375 25.59992188 59.7421875 25.68359375 C63 26 63 26 65 27 C67.27661645 27.12112098 69.55675917 27.17752145 71.83642578 27.20532227 C72.53897491 27.21522186 73.24152405 27.22512146 73.96536255 27.23532104 C76.29197803 27.2669568 78.61861394 27.29170159 80.9453125 27.31640625 C82.55671729 27.33697399 84.16811666 27.35797042 85.7795105 27.37937927 C90.02422706 27.43461854 94.26899247 27.48401961 98.51379395 27.53222656 C102.84387568 27.58242806 107.17388635 27.63812117 111.50390625 27.69335938 C120.00254411 27.80096363 128.50124135 27.90240354 137 28 C136.30672612 31.95082584 134.69866014 33.26374854 131.54296875 35.71484375 C129.79906969 37.08015527 129.79906969 37.08015527 128 39.5 C125.63956803 42.45053996 122.89848263 44.58459781 120 47 C119.34 47.825 118.68 48.65 118 49.5 C115.63956803 52.45053996 112.89848263 54.58459781 110 57 C108.66172696 58.66270287 107.32810215 60.32916181 106 62 C103.07128756 65.0171264 100.99626549 66.2565894 96.85546875 66.42578125 C95.29911566 66.40862044 93.74287422 66.37029673 92.1875 66.3125 C91.41857422 66.30283203 90.64964844 66.29316406 89.85742188 66.28320312 C76.01452238 66.01452238 76.01452238 66.01452238 74 64 C71.47804033 63.60056824 68.97036344 63.24920152 66.4375 62.9375 C65.72658203 62.84662109 65.01566406 62.75574219 64.28320312 62.66210938 C62.52261597 62.43760497 60.76136522 62.21831603 59 62 C59 61.34 59 60.68 59 60 C57.9275 60.020625 56.855 60.04125 55.75 60.0625 C52.85209576 60.0142016 50.71387859 59.86844115 48 59 C48 58.34 48 57.68 48 57 C47.40832031 56.93941406 46.81664062 56.87882812 46.20703125 56.81640625 C42.09021792 56.37987629 38.04455467 55.91328654 34 55 C34 54.34 34 53.68 34 53 C31.03 52.505 31.03 52.505 28 52 C28 51.34 28 50.68 28 50 C25.03 49.505 25.03 49.505 22 49 C22 48.34 22 47.68 22 47 C21.175 46.95875 20.35 46.9175 19.5 46.875 C15.35306843 45.83826711 13.01816061 44.02239305 9.734375 41.375 C8.03790226 39.93344495 8.03790226 39.93344495 6 39 C6 38.34 6 37.68 6 37 C4.35 36.34 2.7 35.68 1 35 C1 34.34 1 33.68 1 33 C0.01 32.67 -0.98 32.34 -2 32 C-2 31.34 -2 30.68 -2 30 C-2.99 29.67 -3.98 29.34 -5 29 C-5 28.34 -5 27.68 -5 27 C-5.66 27 -6.32 27 -7 27 C-7.33 27.99 -7.66 28.98 -8 30 C-8.66 30 -9.32 30 -10 30 C-10 30.66 -10 31.32 -10 32 C-11.62053812 33.38903267 -13.29705213 34.71332828 -15 36 C-15.86625 36.7425 -16.7325 37.485 -17.625 38.25 C-20 40 -20 40 -23 40 C-23.33 40.99 -23.66 41.98 -24 43 C-25.5234375 44.16796875 -25.5234375 44.16796875 -27.375 45.1875 C-27.98085937 45.53167969 -28.58671875 45.87585938 -29.2109375 46.23046875 C-31 47 -31 47 -34 47 C-34 47.66 -34 48.32 -34 49 C-35.98 49.33 -37.96 49.66 -40 50 C-40 50.66 -40 51.32 -40 52 C-41.98 52.33 -43.96 52.66 -46 53 C-46 53.66 -46 54.32 -46 55 C-50.84241633 56.33583899 -54.93437617 57.25328119 -60 57 C-60 57.66 -60 58.32 -60 59 C-62.75078884 59.91692961 -64.35948913 60.10886083 -67.1875 60.0625 C-68.445625 60.041875 -69.70375 60.02125 -71 60 C-71 60.66 -71 61.32 -71 62 C-72.07121094 62.13277344 -73.14242187 62.26554687 -74.24609375 62.40234375 C-75.64325769 62.5805056 -77.04039159 62.75890319 -78.4375 62.9375 C-79.14455078 63.02451172 -79.85160156 63.11152344 -80.58007812 63.20117188 C-84.08817968 63.38216191 -84.08817968 63.38216191 -87 65 C-92.73321874 65.89240471 -98.39026768 66.2396094 -104.1875 66.3125 C-105.35829102 66.35600586 -105.35829102 66.35600586 -106.55273438 66.40039062 C-110.4981916 66.44389439 -112.48347252 66.32692495 -115.89453125 64.16796875 C-118.41997947 61.56755361 -120.67983792 58.7841945 -123 56 C-123.825 55.34 -124.65 54.68 -125.5 54 C-128.45053996 51.63956803 -130.58459781 48.89848263 -133 46 C-133.825 45.34 -134.65 44.68 -135.5 44 C-138.45053996 41.63956803 -140.58459781 38.89848263 -143 36 C-144.3921875 34.948125 -144.3921875 34.948125 -145.8125 33.875 C-146.534375 33.25625 -147.25625 32.6375 -148 32 C-148 30.68 -148 29.36 -148 28 C-147.13271271 27.99191315 -146.26542542 27.98382629 -145.37185669 27.97549438 C-137.16324046 27.89726849 -128.95478203 27.80989529 -120.74637032 27.71247292 C-116.52723547 27.66271427 -112.30812322 27.61638396 -108.08886719 27.578125 C-104.01035276 27.54101215 -99.93203732 27.49458504 -95.85369492 27.44193649 C-94.30456947 27.42352964 -92.75540159 27.4083722 -91.20621109 27.39665604 C-81.59715862 27.32144278 -72.6991369 26.69974258 -63.4375 23.9375 C-59.30691735 22.81097746 -55.25555461 22.36669178 -51 22 C-51 21.34 -51 20.68 -51 20 C-45.34428139 18.29304267 -39.68507992 16.60665302 -34 15 C-34 14.34 -34 13.68 -34 13 C-31.03 12.505 -31.03 12.505 -28 12 C-28 11.34 -28 10.68 -28 10 C-25.35261084 8.5393715 -24.10551666 8 -21 8 C-21 7.34 -21 6.68 -21 6 C-15.70588235 2 -15.70588235 2 -12 2 C-11.67 1.01 -11.34 0.02 -11 -1 C-7.09615244 -4.30325563 -4.11961345 -2.05980673 0 0 Z " fill="#000000" transform="translate(206,256)"/>
<path d="M0 0 C0 0.66 0 1.32 0 2 C2.475 2.495 2.475 2.495 5 3 C5 3.66 5 4.32 5 5 C5.53625 5.0825 6.0725 5.165 6.625 5.25 C9.86430387 6.27293806 12.27318679 8.00033698 15 10 C15.495 10.99 15.495 10.99 16 12 C16.99 12.33 17.98 12.66 19 13 C19 13.66 19 14.32 19 15 C20.32 15.66 21.64 16.32 23 17 C23 17.66 23 18.32 23 19 C24.485 19.495 24.485 19.495 26 20 C26 20.66 26 21.32 26 22 C27.485 22.495 27.485 22.495 29 23 C29 23.66 29 24.32 29 25 C30.32 25.66 31.64 26.32 33 27 C33 27.66 33 28.32 33 29 C34.485 29.495 34.485 29.495 36 30 C36 30.99 36 31.98 36 33 C36.66 33 37.32 33 38 33 C40.89121024 35.33187529 42.35349978 38.24809166 44.0625 41.5 C45.61769555 44.444187 47.15122196 47.22683295 49 50 C49 50.99 49 51.98 49 53 C49.66 53 50.32 53 51 53 C51.495 56.465 51.495 56.465 52 60 C52.66 60 53.32 60 54 60 C54.84358924 62.7055112 55.67504771 65.41380543 56.5 68.125 C56.85771484 69.26582031 56.85771484 69.26582031 57.22265625 70.4296875 C58.52612223 74.74974618 59.291817 78.43306391 59 83 C59.66 83 60.32 83 61 83 C61.9819529 90.84667599 62.151368 98.5983892 62.125 106.5 C62.12886719 107.65886719 62.13273437 108.81773438 62.13671875 110.01171875 C62.12911959 116.73697169 61.83529604 123.32524261 61 130 C60.34 130 59.68 130 59 130 C58.96261719 130.7734375 58.92523438 131.546875 58.88671875 132.34375 C58.47635027 138.84527411 57.60395402 144.03260538 55 150 C54.67 150.99 54.34 151.98 54 153 C53.34 153 52.68 153 52 153 C51.67 155.31 51.34 157.62 51 160 C50.34 160 49.68 160 49 160 C48.9175 160.70125 48.835 161.4025 48.75 162.125 C47.8315061 165.64589327 46.05168554 168.0217468 44 171 C44 171.66 44 172.32 44 173 C43.34 173.33 42.68 173.66 42 174 C41.67 174.99 41.34 175.98 41 177 C40.34 177 39.68 177 39 177 C38.67 177.99 38.34 178.98 38 180 C37.34 180 36.68 180 36 180 C36 180.99 36 181.98 36 183 C34.68 183 33.36 183 32 183 C31.05985709 170.97960136 30.88885767 159.05276854 31 147 C30.34 147 29.68 147 29 147 C28.34 141.39 27.68 135.78 27 130 C26.34 130 25.68 130 25 130 C24.97316013 127.02077407 24.95323963 124.04178705 24.9375 121.0625 C24.92912109 120.21236328 24.92074219 119.36222656 24.91210938 118.48632812 C24.90888672 117.67744141 24.90566406 116.86855469 24.90234375 116.03515625 C24.89710693 115.2862915 24.89187012 114.53742676 24.88647461 113.76586914 C25 112 25 112 26 111 C26.16053815 109.12678052 26.16053815 109.12678052 26.125 107 C26.12757813 106.278125 26.13015625 105.55625 26.1328125 104.8125 C26.19695276 102.97910585 26.19695276 102.97910585 25 102 C24.83901281 100.0234351 24.72207209 98.04323287 24.625 96.0625 C24.26647541 90.71989592 23.37379253 86.07188088 21.62109375 81.0234375 C21 79 21 79 21 76 C20.34 76 19.68 76 19 76 C18.11064623 72.696686 17.53725895 69.37705625 17 66 C16.34 66 15.68 66 15 66 C14.67 64.68 14.34 63.36 14 62 C13.34 62 12.68 62 12 62 C11.71125 61.195625 11.4225 60.39125 11.125 59.5625 C10.26737432 56.8673532 10.26737432 56.8673532 8 56 C7.67 55.01 7.34 54.02 7 53 C3.72347439 49.43436919 0.11341325 46.36883501 -3.64453125 43.33203125 C-4.09183594 42.89246094 -4.53914063 42.45289063 -5 42 C-5 41.34 -5 40.68 -5 40 C-6.32 40 -7.64 40 -9 40 C-9 40.66 -9 41.32 -9 42 C-10.6796875 43.62109375 -10.6796875 43.62109375 -12.875 45.4375 C-15.46193722 47.58400884 -17.11184374 49.16776562 -19 52 C-19.66 52 -20.32 52 -21 52 C-21.33 53.32 -21.66 54.64 -22 56 C-24.60582371 56.93065133 -25.64198224 57.14917407 -28.25 56.0625 C-29.11625 55.5365625 -29.11625 55.5365625 -30 55 C-30 54.34 -30 53.68 -30 53 C-31.65 52.67 -33.3 52.34 -35 52 C-35 51.34 -35 50.68 -35 50 C-36.65 49.67 -38.3 49.34 -40 49 C-40 48.34 -40 47.68 -40 47 C-40.804375 46.9175 -41.60875 46.835 -42.4375 46.75 C-46.95934205 45.79803325 -50.84702701 43.98419821 -55 42 C-55.36666667 36.5 -55.36666667 36.5 -53.625 34.125 C-52 33 -52 33 -50 33 C-49.67 31.68 -49.34 30.36 -49 29 C-48.34 29 -47.68 29 -47 29 C-46.34 27.68 -45.68 26.36 -45 25 C-44.34 25 -43.68 25 -43 25 C-42.67 24.01 -42.34 23.02 -42 22 C-41.34 22 -40.68 22 -40 22 C-39.67 21.01 -39.34 20.02 -39 19 C-38.34 19 -37.68 19 -37 19 C-36.34 17.68 -35.68 16.36 -35 15 C-34.34 15 -33.68 15 -33 15 C-33 14.34 -33 13.68 -33 13 C-31.68 12.67 -30.36 12.34 -29 12 C-29 11.34 -29 10.68 -29 10 C-27.57421875 8.7109375 -27.57421875 8.7109375 -25.6875 7.375 C-24.76517578 6.70597656 -24.76517578 6.70597656 -23.82421875 6.0234375 C-22 5 -22 5 -19 5 C-19 4.34 -19 3.68 -19 3 C-17.35 2.67 -15.7 2.34 -14 2 C-14 1.34 -14 0.68 -14 0 C-9.25033916 -2.44679498 -4.82431346 -2.41215673 0 0 Z " fill="#000000" transform="translate(207,2)"/>
<path d="M0 0 C1.30195312 -0.00386719 2.60390625 -0.00773437 3.9453125 -0.01171875 C11.02646073 -0.00456608 17.97373509 0.21778521 25 1.125 C25 1.785 25 2.445 25 3.125 C28.96 3.455 32.92 3.785 37 4.125 C37 4.785 37 5.445 37 6.125 C41.95 7.115 41.95 7.115 47 8.125 C47 8.785 47 9.445 47 10.125 C48.2375 10.2178125 48.2375 10.2178125 49.5 10.3125 C53.35956436 11.2084703 55.82115562 12.68541593 59.0703125 14.87109375 C60.98946042 16.11815141 62.93654708 17.13912805 65 18.125 C65 18.785 65 19.445 65 20.125 C66.65 20.455 68.3 20.785 70 21.125 C70 21.785 70 22.445 70 23.125 C70.598125 23.228125 71.19625 23.33125 71.8125 23.4375 C74.30869017 24.22201691 75.25731865 25.22389308 77 27.125 C77.66 27.455 78.32 27.785 79 28.125 C79 28.785 79 29.445 79 30.125 C79.99 30.455 80.98 30.785 82 31.125 C82 31.785 82 32.445 82 33.125 C82.99 33.455 83.98 33.785 85 34.125 C85 34.785 85 35.445 85 36.125 C85.598125 36.393125 86.19625 36.66125 86.8125 36.9375 C89.01819033 38.13487475 90.43583187 39.16978984 92 41.125 C92 42.115 92 43.105 92 44.125 C92.66 44.125 93.32 44.125 94 44.125 C97.73279438 47.0854921 99.66256355 50.86990505 101.8515625 55.00390625 C103.06312312 57.31894958 103.06312312 57.31894958 105 60.125 C105 61.115 105 62.105 105 63.125 C105.66 63.125 106.32 63.125 107 63.125 C115.55379747 79.26424051 115.55379747 79.26424051 115 88.125 C115.66 88.125 116.32 88.125 117 88.125 C117.13277344 89.05183594 117.26554688 89.97867188 117.40234375 90.93359375 C117.66724609 92.72990234 117.66724609 92.72990234 117.9375 94.5625 C118.11152344 95.75746094 118.28554687 96.95242187 118.46484375 98.18359375 C118.68985213 101.00455676 118.68985213 101.00455676 120 102.125 C120.07179964 103.64428038 120.08392007 105.16667482 120.0625 106.6875 C120.05347656 107.51378906 120.04445312 108.34007812 120.03515625 109.19140625 C120.02355469 109.82949219 120.01195312 110.46757812 120 111.125 C118.68 110.795 117.36 110.465 116 110.125 C116 109.465 116 108.805 116 108.125 C115.01 107.795 114.02 107.465 113 107.125 C113 106.465 113 105.805 113 105.125 C112.34 105.125 111.68 105.125 111 105.125 C111 104.465 111 103.805 111 103.125 C110.34 103.125 109.68 103.125 109 103.125 C107.64613064 101.47497172 106.31321858 99.8075613 105 98.125 C104.34 97.795 103.68 97.465 103 97.125 C103 96.465 103 95.805 103 95.125 C102.42765625 94.856875 101.8553125 94.58875 101.265625 94.3125 C98.92115366 93.08367364 96.87595062 91.69977824 94.75 90.125 C94.04359375 89.609375 93.3371875 89.09375 92.609375 88.5625 C92.07828125 88.088125 91.5471875 87.61375 91 87.125 C91 86.465 91 85.805 91 85.125 C89.865625 84.83625 88.73125 84.5475 87.5625 84.25 C85.7990625 83.693125 85.7990625 83.693125 84 83.125 C83.67 82.465 83.34 81.805 83 81.125 C82.01 80.795 81.02 80.465 80 80.125 C80 79.465 80 78.805 80 78.125 C79.278125 78.0425 78.55625 77.96 77.8125 77.875 C71.55426603 76.20613761 68.42634264 71.2296066 64.69140625 66.30078125 C60.84565933 61.35371189 55.67578953 55.96289477 50 53.125 C50 52.465 50 51.805 50 51.125 C48.02 50.63 48.02 50.63 46 50.125 C46 49.465 46 48.805 46 48.125 C45.278125 48.021875 44.55625 47.91875 43.8125 47.8125 C40.74014552 47.06148002 38.67905871 45.77365151 36 44.125 C33.80869466 43.42920546 33.80869466 43.42920546 32 43.125 C32 42.465 32 41.805 32 41.125 C29.36 40.795 26.72 40.465 24 40.125 C24 39.465 24 38.805 24 38.125 C11.98785879 37.09169753 0.05023529 37.01182773 -12 37.125 C-11.98428955 38.19983643 -11.98428955 38.19983643 -11.96826172 39.29638672 C-11.92678701 42.53088905 -11.90070108 45.76533553 -11.875 49 C-11.85824219 50.12792969 -11.84148437 51.25585938 -11.82421875 52.41796875 C-11.81455078 54.03251953 -11.81455078 54.03251953 -11.8046875 55.6796875 C-11.78897705 57.17218018 -11.78897705 57.17218018 -11.77294922 58.69482422 C-12 61.125 -12 61.125 -14 63.125 C-16.61102221 63.70458318 -19.17667473 64.19782262 -21.8125 64.625 C-26.44006518 65.38718721 -30.64314788 66.36096912 -35 68.125 C-36.32 68.125 -37.64 68.125 -39 68.125 C-39 68.785 -39 69.445 -39 70.125 C-42.465 70.62 -42.465 70.62 -46 71.125 C-47.2752564 67.29923079 -47.42083122 63.62703731 -47.71875 59.62109375 C-47.8545027 57.12911573 -47.8545027 57.12911573 -49 55.125 C-49.09791023 52.42670926 -49.1390625 49.76015539 -49.125 47.0625 C-49.12886719 46.31677734 -49.13273437 45.57105469 -49.13671875 44.80273438 C-49.12663501 39.25163501 -49.12663501 39.25163501 -48 38.125 C-47.58184859 34.29321254 -47.23147461 30.46323974 -46.92578125 26.62109375 C-46.28978117 19.73288952 -45.24883766 11.15513609 -40 6.125 C-39.01 6.125 -38.02 6.125 -37 6.125 C-37 5.465 -37 4.805 -37 4.125 C-31.06 3.63 -31.06 3.63 -25 3.125 C-25 2.465 -25 1.805 -25 1.125 C-16.66350772 0.04861173 -8.39641453 -0.02493985 0 0 Z " fill="#000000" transform="translate(101,50.875)"/>
<path d="M0 0 C0.67665207 -0.00095673 1.35330414 -0.00191345 2.05046082 -0.00289917 C3.473176 -0.00357519 4.89589438 -0.00176157 6.31860352 0.00244141 C8.46442824 0.00777265 10.61004127 0.00248963 12.75585938 -0.00390625 C20.1079078 -0.00710099 27.36723527 0.16584252 34.66796875 1.1328125 C34.66796875 1.7928125 34.66796875 2.4528125 34.66796875 3.1328125 C38.29796875 3.4628125 41.92796875 3.7928125 45.66796875 4.1328125 C45.66796875 4.7928125 45.66796875 5.4528125 45.66796875 6.1328125 C46.28671875 6.2771875 46.90546875 6.4215625 47.54296875 6.5703125 C49.66796875 7.1328125 49.66796875 7.1328125 51.66796875 8.1328125 C52.265625 10.3828125 52.265625 10.3828125 52.73046875 13.1328125 C53.07250385 16.43340956 53.07250385 16.43340956 54.66796875 19.1328125 C54.88118603 20.45949782 55.03794338 21.79540869 55.16796875 23.1328125 C55.25046875 23.9371875 55.33296875 24.7415625 55.41796875 25.5703125 C55.58463542 27.27864583 55.75130208 28.98697917 55.91796875 30.6953125 C56.00046875 31.4996875 56.08296875 32.3040625 56.16796875 33.1328125 C56.27625 34.2465625 56.27625 34.2465625 56.38671875 35.3828125 C56.49648355 37.15664251 56.49648355 37.15664251 57.66796875 38.1328125 C57.76657006 39.53629985 57.79875812 40.94461727 57.80078125 42.3515625 C57.80207031 43.20105469 57.80335938 44.05054688 57.8046875 44.92578125 C57.80082031 45.81910156 57.79695313 46.71242187 57.79296875 47.6328125 C57.79683594 48.52613281 57.80070312 49.41945312 57.8046875 50.33984375 C57.80339844 51.18933594 57.80210937 52.03882813 57.80078125 52.9140625 C57.79965332 53.69845703 57.79852539 54.48285156 57.79736328 55.29101562 C57.66796875 57.1328125 57.66796875 57.1328125 56.66796875 58.1328125 C56.34057823 60.9662286 56.05632734 63.79342505 55.79296875 66.6328125 C55.12197863 73.18231514 54.17947206 79.01534343 51.66796875 85.1328125 C50.9978129 87.00656824 50.33133764 88.88164322 49.66796875 90.7578125 C48.13475783 94.95055466 46.48085689 99.05381417 44.66796875 103.1328125 C44.00796875 103.1328125 43.34796875 103.1328125 42.66796875 103.1328125 C42.35859375 104.339375 42.35859375 104.339375 42.04296875 105.5703125 C40.26089236 110.18751043 37.80625163 114.29523833 34.66796875 118.1328125 C34.00796875 118.1328125 33.34796875 118.1328125 32.66796875 118.1328125 C32.60609375 118.8753125 32.54421875 119.6178125 32.48046875 120.3828125 C31.40867707 124.01041512 29.63713416 124.83845741 26.66796875 127.1328125 C25.35013198 128.9255454 24.14724194 130.75281049 22.9765625 132.64453125 C21.33873951 134.50724934 20.07612417 134.75096968 17.66796875 135.1328125 C17.66796875 135.7928125 17.66796875 136.4528125 17.66796875 137.1328125 C16.01794047 138.48668186 14.35053005 139.81959392 12.66796875 141.1328125 C12.33796875 141.7928125 12.00796875 142.4528125 11.66796875 143.1328125 C9.68907914 143.85975154 7.68842317 144.53097501 5.66796875 145.1328125 C5.66796875 145.7928125 5.66796875 146.4528125 5.66796875 147.1328125 C4.67796875 147.4628125 3.68796875 147.7928125 2.66796875 148.1328125 C2.33796875 148.7928125 2.00796875 149.4528125 1.66796875 150.1328125 C-0.89453125 150.7578125 -0.89453125 150.7578125 -3.33203125 151.1328125 C-3.33203125 151.7928125 -3.33203125 152.4528125 -3.33203125 153.1328125 C-6.23803386 154.38946228 -8.12807709 155.1328125 -11.33203125 155.1328125 C-11.33203125 155.7928125 -11.33203125 156.4528125 -11.33203125 157.1328125 C-13.31203125 157.4628125 -15.29203125 157.7928125 -17.33203125 158.1328125 C-17.33203125 158.7928125 -17.33203125 159.4528125 -17.33203125 160.1328125 C-25.97383653 160.76130743 -32.13548531 157.77574537 -39.33203125 153.1328125 C-39.00203125 151.4828125 -38.67203125 149.8328125 -38.33203125 148.1328125 C-37.67203125 148.1328125 -37.01203125 148.1328125 -36.33203125 148.1328125 C-36.22890625 147.5346875 -36.12578125 146.9365625 -36.01953125 146.3203125 C-35.21363743 143.75610489 -34.25293855 142.98257508 -32.33203125 141.1328125 C-31.31109375 139.555 -31.31109375 139.555 -30.26953125 137.9453125 C-29.31046875 136.553125 -29.31046875 136.553125 -28.33203125 135.1328125 C-27.67203125 135.1328125 -27.01203125 135.1328125 -26.33203125 135.1328125 C-26.06390625 134.2665625 -25.79578125 133.4003125 -25.51953125 132.5078125 C-24.36091138 129.21489286 -22.94993286 126.22153375 -21.33203125 123.1328125 C-20.67203125 123.1328125 -20.01203125 123.1328125 -19.33203125 123.1328125 C-19.00203125 121.4828125 -18.67203125 119.8328125 -18.33203125 118.1328125 C-16.35203125 117.6378125 -16.35203125 117.6378125 -14.33203125 117.1328125 C-14.33203125 116.4728125 -14.33203125 115.8128125 -14.33203125 115.1328125 C-11.85703125 114.1428125 -11.85703125 114.1428125 -9.33203125 113.1328125 C-9.33203125 112.4728125 -9.33203125 111.8128125 -9.33203125 111.1328125 C-8.71328125 111.0503125 -8.09453125 110.9678125 -7.45703125 110.8828125 C-5.18160646 110.33357707 -5.18160646 110.33357707 -4.20703125 108.2578125 C-3.91828125 107.5565625 -3.62953125 106.8553125 -3.33203125 106.1328125 C-2.34203125 104.6478125 -2.34203125 104.6478125 -1.33203125 103.1328125 C-0.67203125 103.1328125 -0.01203125 103.1328125 0.66796875 103.1328125 C1.16296875 101.6478125 1.16296875 101.6478125 1.66796875 100.1328125 C2.32796875 100.1328125 2.98796875 100.1328125 3.66796875 100.1328125 C3.92707031 99.42382812 4.18617188 98.71484375 4.453125 97.984375 C5.75037828 94.93937533 7.34872478 92.31104697 9.10546875 89.5078125 C12.03185625 84.59002438 13.82673754 80.08118414 15.0625 74.5078125 C15.66796875 72.1328125 15.66796875 72.1328125 16.703125 70.0859375 C17.75954033 67.94744492 18.05665056 66.24599442 18.29296875 63.8828125 C18.47859375 62.0265625 18.47859375 62.0265625 18.66796875 60.1328125 C19.32796875 60.1328125 19.98796875 60.1328125 20.66796875 60.1328125 C20.66796875 52.5428125 20.66796875 44.9528125 20.66796875 37.1328125 C12.08796875 37.1328125 3.50796875 37.1328125 -5.33203125 37.1328125 C-5.99203125 33.5028125 -6.65203125 29.8728125 -7.33203125 26.1328125 C-7.99203125 24.4828125 -8.65203125 22.8328125 -9.33203125 21.1328125 C-9.99869792 19.1328125 -10.66536458 17.1328125 -11.33203125 15.1328125 C-11.72455078 14.16794922 -11.72455078 14.16794922 -12.125 13.18359375 C-13.82728526 8.98782021 -14.67818645 5.74821522 -14.33203125 1.1328125 C-9.50852074 0.353091 -4.88421286 0.00444164 0 0 Z " fill="#000000" transform="translate(290.33203125,50.8671875)"/>
<path d="M0 0 C4.9313111 0.42268381 6.69151135 2.46068656 10 6 C11.28270227 7.11456794 12.57512904 8.21800364 13.875 9.3125 C17.4053356 12.36324284 20.44159374 15.6525815 23.46484375 19.19921875 C25.21508832 21.25230462 26.9820489 23.20626569 29 25 C31.2629951 25.22524154 31.2629951 25.22524154 33.25 22.9375 C35.2076567 20.91135386 37.01568156 18.79391163 38.8125 16.625 C41.64050688 13.27220834 44.76995591 10.46604482 48.1171875 7.640625 C50.21028774 5.87315253 50.21028774 5.87315253 52.6875 3.125 C55.20117908 0.81513273 56.64391448 0.28766447 60 0 C60 0.66 60 1.32 60 2 C62.64 2.33 65.28 2.66 68 3 C68 3.66 68 4.32 68 5 C70.64 5.33 73.28 5.66 76 6 C76 6.66 76 7.32 76 8 C81.28 8.66 86.56 9.32 92 10 C93 15 93 15 91.671875 17.1328125 C90.72054687 18.11894531 90.72054687 18.11894531 89.75 19.125 C89.12609375 19.78757812 88.5021875 20.45015625 87.859375 21.1328125 C87.24578125 21.74898438 86.6321875 22.36515625 86 23 C85.46890625 23.57492187 84.9378125 24.14984375 84.390625 24.7421875 C83 26 83 26 81 26 C81 26.66 81 27.32 81 28 C79.52295788 29.25227484 78.04172601 30.50166522 76.5078125 31.68359375 C74.73237056 33.11764091 74.73237056 33.11764091 73 36 C72.34 36 71.68 36 71 36 C71 36.66 71 37.32 71 38 C69.7934375 38.4021875 69.7934375 38.4021875 68.5625 38.8125 C67.2940625 39.4003125 67.2940625 39.4003125 66 40 C65.67 40.99 65.34 41.98 65 43 C64.34 43 63.68 43 63 43 C62.67 43.99 62.34 44.98 62 46 C61.34 46 60.68 46 60 46 C59.34 47.32 58.68 48.64 58 50 C57.34 50 56.68 50 56 50 C55.67 50.99 55.34 51.98 55 53 C54.34 53 53.68 53 53 53 C52.67 53.99 52.34 54.98 52 56 C51.34 56 50.68 56 50 56 C49.34 57.32 48.68 58.64 48 60 C47.34 60 46.68 60 46 60 C45.67 60.99 45.34 61.98 45 63 C44.34 63 43.68 63 43 63 C42.67 63.99 42.34 64.98 42 66 C41.34 66 40.68 66 40 66 C39.773125 66.53625 39.54625 67.0725 39.3125 67.625 C37.49571575 70.91251435 35.72751218 73.39371058 33 76 C29.5 76.25 29.5 76.25 26 75 C23.3125 72.1875 23.3125 72.1875 21 69 C20.236875 68.2575 19.47375 67.515 18.6875 66.75 C17 65 17 65 17 63 C16.01 62.67 15.02 62.34 14 62 C14 61.34 14 60.68 14 60 C13.443125 59.773125 12.88625 59.54625 12.3125 59.3125 C8.31561114 57.04399551 5.46033351 54.38100054 4 50 C3.4225 49.71125 2.845 49.4225 2.25 49.125 C-0.77900411 47.61049795 -2.62026037 45.41344699 -5 43 C-7.10489307 41.01968501 -9.24140961 39.07431015 -11.375 37.125 C-17.63626796 31.36914166 -23.74119659 25.7095078 -29 19 C-29.763125 18.319375 -30.52625 17.63875 -31.3125 16.9375 C-33 15 -33 15 -33.0625 12.875 C-31.5412011 10.19035488 -29.89666653 9.95476718 -27 9 C-25.07096868 8.7240522 -23.1310968 8.51550097 -21.1875 8.375 C-19.72376953 8.26285156 -19.72376953 8.26285156 -18.23046875 8.1484375 C-17.12638672 8.07496094 -17.12638672 8.07496094 -16 8 C-16 7.34 -16 6.68 -16 6 C-13.36 5.67 -10.72 5.34 -8 5 C-8 4.34 -8 3.68 -8 3 C-5.36 2.67 -2.72 2.34 0 2 C0 1.34 0 0.68 0 0 Z " fill="#000000" transform="translate(170,323)"/>
<path d="M0 0 C7.59 0 15.18 0 23 0 C23 0.66 23 1.32 23 2 C23.969375 1.938125 24.93875 1.87625 25.9375 1.8125 C32.28269901 1.79962941 38.23106984 4.58077122 44 7 C44 7.66 44 8.32 44 9 C46.475 9.495 46.475 9.495 49 10 C49 10.66 49 11.32 49 12 C49.804375 12.268125 50.60875 12.53625 51.4375 12.8125 C52.283125 13.204375 53.12875 13.59625 54 14 C54.495 15.485 54.495 15.485 55 17 C54.34 17 53.68 17 53 17 C53 17.66 53 18.32 53 19 C51.37750059 19.83819158 49.75191503 20.6704116 48.125 21.5 C47.22007812 21.9640625 46.31515625 22.428125 45.3828125 22.90625 C43 24 43 24 41 24 C41 24.66 41 25.32 41 26 C38.69 26.33 36.38 26.66 34 27 C34 27.66 34 28.32 34 29 C32.02 29 30.04 29 28 29 C28 28.34 28 27.68 28 27 C26.02 26.67 24.04 26.34 22 26 C22 25.34 22 24.68 22 24 C21.0925 23.896875 20.185 23.79375 19.25 23.6875 C15.92070026 22.98322506 14.56280941 22.12094572 12 20 C11.01 19.67 10.02 19.34 9 19 C8.67 18.34 8.34 17.68 8 17 C7.01 16.67 6.02 16.34 5 16 C5 15.34 5 14.68 5 14 C4.0925 13.773125 3.185 13.54625 2.25 13.3125 C-1.47629867 11.80764861 -2.69443616 10.21132106 -5 7 C-5.66 6.67 -6.32 6.34 -7 6 C-6.67 4.68 -6.34 3.36 -6 2 C-4.02 2 -2.04 2 0 2 C0 1.34 0 0.68 0 0 Z " fill="#000000" transform="translate(99,182)"/>
</svg>
