<?xml version="1.0" encoding="UTF-8"?>
<svg version="1.1" xmlns="http://www.w3.org/2000/svg" width="719" height="400">
<path d="M0 0 C20.53155619 -0.02334787 41.0631102 -0.04098848 61.59467697 -0.05181217 C71.12757562 -0.0569711 80.66046602 -0.06400617 90.19335938 -0.07543945 C98.50105267 -0.08539856 106.80874 -0.09185636 115.1164391 -0.09408849 C119.51634157 -0.09539351 123.91622696 -0.09846621 128.31612396 -0.10573006 C132.45613608 -0.11250958 136.59612406 -0.114613 140.7361412 -0.11310768 C142.25671647 -0.11338314 143.77729253 -0.11537681 145.29786301 -0.11920547 C147.37216876 -0.12417288 149.4463831 -0.122987 151.52069092 -0.12025452 C153.26287966 -0.12163721 153.26287966 -0.12163721 155.04026413 -0.12304783 C157.55088156 -0.01867162 159.61225004 0.26276048 162 1 C162.33 2.32 162.66 3.64 163 5 C162.34 5 161.68 5 161 5 C160.814375 5.8353125 160.814375 5.8353125 160.625 6.6875 C159.47031122 10.9598485 157.78324733 14.79500411 155.375 18.5 C154.92125 19.325 154.4675 20.15 154 21 C154.33 21.66 154.66 22.32 155 23 C154.01 23 153.02 23 152 23 C150.5393715 25.64738916 150 26.89448334 150 30 C148.35794962 33.83145088 147.51610654 35.65592898 144 38 C141.7226499 40.81509993 141.7226499 40.81509993 142 44 C141.0409375 44.3403125 141.0409375 44.3403125 140.0625 44.6875 C137.72806339 45.85250896 137.72806339 45.85250896 137.25 48.625 C137.1675 49.40875 137.085 50.1925 137 51 C136.34 51 135.68 51 135 51 C133.73024528 54.88862382 132.99366093 57.61965563 133.0625 61.75 C133 65 133 65 131.8125 66.5625 C131.214375 67.036875 130.61625 67.51125 130 68 C126.30459016 71.95936769 124.39054127 74.53242229 124 80 C123.34 80 122.68 80 122 80 C121.34 80.66 120.68 81.32 120 82 C119.46375 82.495 118.9275 82.99 118.375 83.5 C116.77475846 84.90657595 116.77475846 84.90657595 117 87 C116.34 87 115.68 87 115 87 C114.71125 87.886875 114.4225 88.77375 114.125 89.6875 C113.16815459 92.50487816 112.11726355 95.24408324 111 98 C110.67 98.99 110.34 99.98 110 101 C109.2265625 101.99 109.2265625 101.99 108.4375 103 C106.70818198 104.99550643 106.70818198 104.99550643 107 108 C105.02 108.99 105.02 108.99 103 110 C103 111.32 103 112.64 103 114 C101.625 116.75 101.625 116.75 100 119 C99.34 119 98.68 119 98 119 C97.896875 119.598125 97.79375 120.19625 97.6875 120.8125 C97 123 97 123 95.625 124.3125 C93.22961996 126.80001004 92.34216286 129.84883502 91 133 C90.34 133.33 89.68 133.66 89 134 C88.40494001 136.04524321 88.04533219 138.09333957 87.66015625 140.1875 C87.44230469 140.785625 87.22445312 141.38375 87 142 C86.01 142.33 85.02 142.66 84 143 C83.67 145.64 83.34 148.28 83 151 C82.01 151.33 81.02 151.66 80 152 C78.87793551 154.09974141 78.87793551 154.09974141 78.125 156.9375 C76.78045742 160.59764369 75.53761533 162.04454751 72.28915787 164.06309319 C69.32740892 165.27527816 66.94895762 165.24579036 63.74847412 165.24050903 C61.82179901 165.24463303 61.82179901 165.24463303 59.85620117 165.24884033 C58.43505766 165.24176247 57.01391509 165.23449286 55.59277344 165.22705078 C54.0946656 165.22648657 52.59655722 165.22680342 51.09844971 165.22793579 C47.03265212 165.22850992 42.96697239 165.2167459 38.9012022 165.20278788 C34.65177189 165.19029053 30.40233892 165.1891108 26.15289307 165.18673706 C18.10649243 165.18051936 10.0601461 165.16410462 2.01376939 165.14403808 C-7.1469637 165.1216881 -16.30769937 165.11068792 -25.46845293 165.10064721 C-44.31233275 165.07973865 -63.15616201 165.04455704 -82 165 C-81.67 164.01 -81.34 163.02 -81 162 C-81.66 162 -82.32 162 -83 162 C-82.57486779 157.46525638 -80.57163619 154.5264051 -78.05859375 150.8671875 C-76.75340188 148.9227734 -76.75340188 148.9227734 -77 146 C-76.01 145.01 -76.01 145.01 -75 144 C-75 143.01 -75 142.02 -75 141 C-74.01 140.67 -73.02 140.34 -72 140 C-72.309375 139.071875 -72.309375 139.071875 -72.625 138.125 C-72.74875 137.42375 -72.8725 136.7225 -73 136 C-72.01 135.01 -72.01 135.01 -71 134 C-70.525625 132.989375 -70.05125 131.97875 -69.5625 130.9375 C-68 128 -68 128 -65 127 C-65.33 125.35 -65.66 123.7 -66 122 C-64.515 122.99 -64.515 122.99 -63 124 C-61.02 120.37 -59.04 116.74 -57 113 C-55.515 113.495 -55.515 113.495 -54 114 C-52.62579566 114.09808046 -51.24742607 114.14337649 -49.86976624 114.15390015 C-48.6101281 114.16680084 -48.6101281 114.16680084 -47.32504272 114.17996216 C-46.40703888 114.18422211 -45.48903503 114.18848206 -44.54321289 114.19287109 C-43.57384293 114.20104858 -42.60447296 114.20922607 -41.60572815 114.21765137 C-38.39471049 114.24248569 -35.18373686 114.25901339 -31.97265625 114.2734375 C-30.87714384 114.27876118 -29.78163143 114.28408485 -28.65292168 114.28956985 C-22.85822118 114.31628854 -17.06354216 114.33567053 -11.26879883 114.35009766 C-5.27502512 114.3667733 0.71820171 114.41157947 6.71176815 114.4624691 C11.31422076 114.49606351 15.91654205 114.50766632 20.51910591 114.51332474 C22.72917439 114.52005514 24.9392337 114.53532326 27.14918327 114.55921555 C30.23785456 114.5907118 33.32502973 114.59092742 36.41381836 114.58349609 C37.32979797 114.59990143 38.24577759 114.61630676 39.18951416 114.63320923 C44.40759225 114.63369341 44.40759225 114.63369341 48.52003479 111.58535767 C49.00842331 110.73218964 49.49681183 109.87902161 50 109 C50.62648438 108.03513672 50.62648438 108.03513672 51.265625 107.05078125 C53.3086204 103.73513159 53.3086204 103.73513159 54 100 C54.66 99.34 55.32 98.68 56 98 C55.67 97.34 55.34 96.68 55 96 C55.66 96 56.32 96 57 96 C57.33 94.68 57.66 93.36 58 92 C58.33 92.33 58.66 92.66 59 93 C59.99 91.02 60.98 89.04 62 87 C62.66 87 63.32 87 64 87 C63.79375 86.278125 63.5875 85.55625 63.375 84.8125 C62.93080335 81.48102512 63.31355068 79.89105597 65 77 C67.125 76.1875 67.125 76.1875 69 76 C69 75.01 69 74.02 69 73 C69.33 72.34 69.66 71.68 70 71 C70.66 71 71.32 71 72 71 C72.33 68.69 72.66 66.38 73 64 C73.99 64.33 74.98 64.66 76 65 C76.103125 64.071875 76.20625 63.14375 76.3125 62.1875 C77 59 77 59 78.5625 57.5 C80.34787668 55.96144927 80.34787668 55.96144927 80.1875 52.8125 C80.125625 51.884375 80.06375 50.95625 80 50 C80.66 49.67 81.32 49.34 82 49 C82.33 49.33 82.66 49.66 83 50 C83 49.34 83 48.68 83 48 C47.36 48 11.72 48 -25 48 C-24.01 45.69 -23.02 43.38 -22 41 C-21.67 40.01 -21.34 39.02 -21 38 C-20.34 38 -19.68 38 -19 38 C-18.896875 37.071875 -18.79375 36.14375 -18.6875 35.1875 C-17.93321999 31.69038359 -17.3934554 31.37585647 -15 29 C-13.79217451 26.84397222 -13.79217451 26.84397222 -12.8125 24.5 C-12.29623047 23.33984375 -12.29623047 23.33984375 -11.76953125 22.15625 C-10.83193989 19.91066586 -10.83193989 19.91066586 -11 17 C-10.68911632 15.32900023 -10.35919668 13.66128463 -10 12 C-9.01 12.495 -9.01 12.495 -8 13 C-6.68 10.36 -5.36 7.72 -4 5 C-3.34 5 -2.68 5 -2 5 C-1.34 3.35 -0.68 1.7 0 0 Z M-9 16 C-8 18 -8 18 -8 18 Z M146 32 C147 34 147 34 147 34 Z M131 60 C132 62 132 62 132 62 Z M129 63 C129 63.66 129 64.32 129 65 C129.66 64.67 130.32 64.34 131 64 C130.34 63.67 129.68 63.34 129 63 Z M121 77 C122 79 122 79 122 79 Z M-69 132 C-68.67 132.66 -68.34 133.32 -68 134 C-67.67 133.34 -67.34 132.68 -67 132 C-67.66 132 -68.32 132 -69 132 Z M-80 162 C-76 163 -76 163 -76 163 Z M-75 162 C-75 162.33 -75 162.66 -75 163 C-26.49 163 22.02 163 72 163 C72 162.67 72 162.34 72 162 C23.49 162 -25.02 162 -75 162 Z " fill="#000001" transform="translate(554,118)"/>
<path d="M0 0 C2.11178589 -0.35644531 2.11178589 -0.35644531 4.75341797 -0.328125 C6.23538162 -0.32196167 6.23538162 -0.32196167 7.74728394 -0.31567383 C9.3535112 -0.28316528 9.3535112 -0.28316528 10.9921875 -0.25 C12.63841599 -0.22812622 12.63841599 -0.22812622 14.31790161 -0.20581055 C16.64322202 -0.16962683 18.96842849 -0.12536926 21.29345703 -0.07373047 C24.85341704 -0.00044431 28.41208856 0.03049568 31.97265625 0.05859375 C34.22921446 0.09897492 36.48572951 0.14186112 38.7421875 0.1875 C40.34234207 0.19571777 40.34234207 0.19571777 41.974823 0.20410156 C49.41732835 0.42361736 49.41732835 0.42361736 52.57861328 3.55078125 C53.0476709 4.35902344 53.51672852 5.16726562 54 6 C54.66 6 55.32 6 56 6 C56.10957031 6.59167969 56.21914063 7.18335937 56.33203125 7.79296875 C57.267925 12.45721971 58.32713255 15.99069883 61 20 C61 20.66 61 21.32 61 22 C61.66 22 62.32 22 63 22 C63.45375 23.0725 63.9075 24.145 64.375 25.25 C64.91617444 26.50021318 65.45780082 27.75023089 66 29 C66.28875 29.680625 66.5775 30.36125 66.875 31.0625 C68.09456188 33.28916168 68.09456188 33.28916168 70.5625 36.0625 C73 39 73 39 74 42 C75.20588125 44.56322584 76.5597595 47.04220702 77.91015625 49.53125 C78.26013672 50.17707031 78.61011719 50.82289063 78.97070312 51.48828125 C79.69945832 52.83106811 80.43124022 54.17221668 81.16601562 55.51171875 C83.90749634 60.58928563 83.90749634 60.58928563 84.48608398 63.15820312 C84.65567627 63.76599609 84.82526855 64.37378906 85 65 C85.66 65.33 86.32 65.66 87 66 C87.66666667 68 88.33333333 70 89 72 C89.66 72.33 90.32 72.66 91 73 C91.28875 73.78375 91.5775 74.5675 91.875 75.375 C92.78334439 78.0973856 92.78334439 78.0973856 95 79.5 C97.52839732 81.39629799 97.99082154 83.04454881 99 86 C99.6492959 87.34187818 100.31731862 88.67479497 101 90 C101.433125 90.886875 101.86625 91.77375 102.3125 92.6875 C103.65145316 95.31581546 105.04735197 97.87246384 106.5 100.4375 C108.08572174 103.2433729 109.45400295 105.99854967 110.625 109 C111.07875 109.99 111.5325 110.98 112 112 C113.485 112.495 113.485 112.495 115 113 C115.66 110.03 116.32 107.06 117 104 C117.99 104 118.98 104 120 104 C120.0825 102.72125 120.165 101.4425 120.25 100.125 C120.390625 97.9453125 120.390625 97.9453125 121 96 C121.61488281 95.7009375 122.22976563 95.401875 122.86328125 95.09375 C125.93464072 93.52157331 126.5212243 91.4743291 127.9375 88.375 C130.33043241 83.32122418 132.94202798 78.67689838 136 74 C135.34 73.67 134.68 73.34 134 73 C134.99 73 135.98 73 137 73 C138.07525194 70.34771188 139.09456151 67.71631546 140 65 C140.66 65 141.32 65 142 65 C142.12117187 64.36191406 142.24234375 63.72382813 142.3671875 63.06640625 C142.61855469 61.82697266 142.61855469 61.82697266 142.875 60.5625 C143.11863281 59.32693359 143.11863281 59.32693359 143.3671875 58.06640625 C143.57601562 57.38449219 143.78484375 56.70257813 144 56 C145.33333333 55.33333333 146.66666667 54.66666667 148 54 C149.62734766 50.65489648 150 48.81164166 150 45 C150.61344757 43.31301918 151.27095914 41.64034193 152 40 C153.32 40 154.64 40 156 40 C156.185625 39.13375 156.185625 39.13375 156.375 38.25 C157.97249661 32.4990122 161.5775517 27.28560274 164.44140625 22.09375 C165.67911215 19.63695032 166.52071117 17.67876496 167 15 C167.66 15 168.32 15 169 15 C169.1546875 13.8553125 169.1546875 13.8553125 169.3125 12.6875 C170.06227192 9.75657342 170.83473267 8.98482838 173 7 C173.33 6.01 173.66 5.02 174 4 C179.26682718 -1.0717595 186.82700033 -0.1593013 193.66796875 -0.16796875 C194.58459793 -0.17129715 195.50122711 -0.17462555 196.44563293 -0.17805481 C198.37447612 -0.18309895 200.30332796 -0.18546392 202.23217773 -0.18530273 C205.18813234 -0.18750047 208.14372015 -0.20571328 211.09960938 -0.22460938 C212.97656123 -0.22754153 214.85351484 -0.22952752 216.73046875 -0.23046875 C217.6148613 -0.23765427 218.49925385 -0.24483978 219.41044617 -0.25224304 C220.23172501 -0.24916641 221.05300385 -0.24608978 221.89916992 -0.24291992 C222.62053635 -0.24434494 223.34190277 -0.24576996 224.08512878 -0.24723816 C226 0 226 0 229 2 C228.39246975 5.40216938 227.04845528 7.26872629 225 10 C224.835 10.66 224.67 11.32 224.5 12 C223.86474828 14.54100688 222.69869434 16.02951457 221 18 C220.34 18.33 219.68 18.66 219 19 C218.63304593 20.32447484 218.3052074 21.65994876 218 23 C217.36964993 24.39202307 216.70190072 25.76764787 216 27.125 C215.649375 27.80820313 215.29875 28.49140625 214.9375 29.1953125 C214.628125 29.79085937 214.31875 30.38640625 214 31 C213.67 31.66 213.34 32.32 213 33 C212.34 33 211.68 33 211 33 C211.2475 33.556875 211.495 34.11375 211.75 34.6875 C212 37 212 37 210.0625 39.75 C209.381875 40.4925 208.70125 41.235 208 42 C208.33 42.66 208.66 43.32 209 44 C208.54625 44.4125 208.0925 44.825 207.625 45.25 C205.94049626 47.06408095 205.00734029 48.75285627 204 51 C203.34 51 202.68 51 202 51 C201.896875 51.78375 201.79375 52.5675 201.6875 53.375 C201 56 201 56 198 58 C197.27617533 60.05925139 197.27617533 60.05925139 197 62 C196.34 62 195.68 62 195 62 C194.731875 62.86625 194.46375 63.7325 194.1875 64.625 C193.02636662 67.92506329 191.58899848 70.88821131 190 74 C189.649375 74.9075 189.29875 75.815 188.9375 76.75 C188 79 188 79 186 81 C186.99 81 187.98 81 189 81 C189 81.66 189 82.32 189 83 C187.68 83 186.36 83 185 83 C184.67 83.66 184.34 84.32 184 85 C183.505 85.61875 183.01 86.2375 182.5 86.875 C180.99611792 89.00549961 180.60024496 90.51327089 180 93 C179.01 93.495 179.01 93.495 178 94 C176.42451317 96.62581138 176 97.87099787 176 101 C175.34 101 174.68 101 174 101 C173.67 101.66 173.34 102.32 173 103 C173.66 103.33 174.32 103.66 175 104 C173.68 104.33 172.36 104.66 171 105 C171 106.98 171 108.96 171 111 C170.34 110.67 169.68 110.34 169 110 C169 112.64 169 115.28 169 118 C168.34 118 167.68 118 167 118 C166.67 118.66 166.34 119.32 166 120 C164.66666667 121.33333333 163.33333333 122.66666667 162 124 C160.8509288 125.9254644 160.8509288 125.9254644 161 128 C160.67 128.66 160.34 129.32 160 130 C159.34 130 158.68 130 158 130 C157.67 130.99 157.34 131.98 157 133 C156.34 133 155.68 133 155 133 C154.855625 133.61875 154.71125 134.2375 154.5625 134.875 C154 137 154 137 153 139 C153.66 139.66 154.32 140.32 155 141 C154.01 141.33 153.02 141.66 152 142 C151.67 142.99 151.34 143.98 151 145 C150.505 145.45375 150.01 145.9075 149.5 146.375 C147.57059624 148.4651874 147.50656463 150.25007773 147 153 C146.34 153.33 145.68 153.66 145 154 C143.94978897 155.84971696 143.94978897 155.84971696 143 158 C142.34 159.32 141.68 160.64 141 162 C123.18 162.33 105.36 162.66 87 163 C86.01 160.525 86.01 160.525 85 158 C84.34 157.34 83.68 156.68 83 156 C81.66641038 153.46959918 80.44958178 150.89424471 79.21875 148.3125 C78.08827591 145.89103098 78.08827591 145.89103098 76 144 C75.67 143.34 75.34 142.68 75 142 C74.67 142 74.34 142 74 142 C73.505 138.535 73.505 138.535 73 135 C72.01 135 71.02 135 70 135 C69.87625 134.21625 69.7525 133.4325 69.625 132.625 C69.20882007 129.85942178 69.20882007 129.85942178 67 128 C67 127.34 67 126.68 67 126 C66.34 125.34 65.68 124.68 65 124 C64.525625 123.030625 64.05125 122.06125 63.5625 121.0625 C62.24229072 118.06247973 62.24229072 118.06247973 60.375 116.4375 C58.4935748 114.47055547 58.35731038 112.64409683 58 110 C57.34 110 56.68 110 56 110 C55.505 106.535 55.505 106.535 55 103 C54.34 103 53.68 103 53 103 C53 102.01 53 101.02 53 100 C52.01 99.67 51.02 99.34 50 99 C48.9375 96.8203125 48.9375 96.8203125 48 94.125 C46.76877443 90.60574691 45.70253591 88.54444885 43 86 C42.855625 85.2575 42.71125 84.515 42.5625 83.75 C41.54361566 78.76878767 39.28183759 74.85455839 35 72 C32.4148687 69.4148687 31.1352697 65.40580909 30 62 C27.88611454 57.44701592 25.55369767 52.55369767 22 49 C22 48.34 22 47.68 22 47 C21.3507041 45.65812182 20.68268138 44.32520503 20 43 C19.67 42.01 19.34 41.02 19 40 C18.34 39.34 17.68 38.68 17 38 C15 35 15 35 14 32 C13.34 32 12.68 32 12 32 C12 31.34 12 30.68 12 30 C11.34 29.67 10.68 29.34 10 29 C10 27.68 10 26.36 10 25 C8.77195874 22.28643812 8.77195874 22.28643812 7 20 C6.01 19.67 5.02 19.34 4 19 C4 17.02 4 15.04 4 13 C3.34 13 2.68 13 2 13 C1.67 11.02 1.34 9.04 1 7 C-1.31 7 -3.62 7 -6 7 C-5.34 6.67 -4.68 6.34 -4 6 C-3.67 5.34 -3.34 4.68 -3 4 C-2.67 3.67 -2.34 3.34 -2 3 C-1.34 2.01 -0.68 1.02 0 0 Z M54 8 C54.99 9.485 54.99 9.485 56 11 C56 10.01 56 9.02 56 8 C55.34 8 54.68 8 54 8 Z M5 17 C5.66 17.66 6.32 18.32 7 19 C7 18.34 7 17.68 7 17 C6.34 17 5.68 17 5 17 Z M166 116 C165.34 116.66 164.68 117.32 164 118 C164.99 118 165.98 118 167 118 C166.67 117.34 166.34 116.68 166 116 Z " fill="#000002" transform="translate(246,118)"/>
<path d="M0 0 C3.65316671 1.24976756 4.78065836 1.67098753 7 5 C7.66 5 8.32 5 9 5 C10 8 10 8 10 11 C10.66 11.99 11.32 12.98 12 14 C14 17 14 17 14 20 C14.99 20.33 15.98 20.66 17 21 C16.505 21.495 16.505 21.495 16 22 C18.03268602 24.16343011 18.03268602 24.16343011 21 26 C20.505 27.485 20.505 27.485 20 29 C21.73222485 31.85817101 23.17496295 33.11664197 26 35 C26.6875 37.625 26.6875 37.625 27 40 C27.66 39.67 28.32 39.34 29 39 C29.57233937 41.20759471 30.06218296 43.37309778 30.4375 45.625 C30.82100329 48.17107484 30.82100329 48.17107484 33 50 C33 51.32 33 52.64 33 54 C33.66 54 34.32 54 35 54 C37.74375671 56.95481492 38 57.77471908 38 62 C39.62787833 65.17823865 41.43166555 67.54840803 44 70 C44.33 70.66 44.66 71.32 45 72 C46.64646685 73.68662458 48.31183067 75.35511706 50 77 C49.505 78.485 49.505 78.485 49 80 C50.06706487 82.55944083 50.06706487 82.55944083 51.6875 85.25 C52.24308594 86.22582031 52.79867187 87.20164062 53.37109375 88.20703125 C53.90863281 89.12871094 54.44617188 90.05039063 55 91 C55.75077482 92.31205695 56.50092038 93.6244745 57.25 94.9375 C57.8275 95.948125 58.405 96.95875 59 98 C61 101.7 61 101.7 61 104 C61.66 104.33 62.32 104.66 63 105 C64.78535439 107.67803158 65.85469949 110.02221867 67 113 C67.33 113.66 67.66 114.32 68 115 C69.25645325 114.99333817 70.51290649 114.98667633 71.80743408 114.97981262 C83.63794159 114.91904491 95.4684175 114.87404818 107.29904556 114.84456348 C113.38155869 114.82889563 119.46394601 114.80763669 125.54638672 114.77368164 C131.41430654 114.74112848 137.2821052 114.72315543 143.15010834 114.71536827 C145.39085549 114.70981752 147.63159588 114.6989785 149.87229156 114.68280983 C153.00647912 114.66108961 156.14016357 114.65803085 159.27441406 114.65942383 C160.20445755 114.648638 161.13450104 114.63785217 162.09272766 114.6267395 C168.35929147 114.65695394 168.35929147 114.65695394 171.60784912 116.39628601 C173 118 173 118 173 120 C173.99 120.33 174.98 120.66 176 121 C176 121.99 176 122.98 176 124 C176.45375 124.433125 176.9075 124.86625 177.375 125.3125 C179 127 179 127 179.875 130 C181.23289263 133.62104702 182.57755959 134.37884402 186 136 C185.34 136.33 184.68 136.66 184 137 C184.66 137.33 185.32 137.66 186 138 C186.33333333 139.33333333 186.66666667 140.66666667 187 142 C187.66 142.33 188.32 142.66 189 143 C189.2165625 144.36125 189.2165625 144.36125 189.4375 145.75 C190.02889741 149.16696279 191.15515693 151.11241954 193 154 C193 154.66 193 155.32 193 156 C193.66 156.33 194.32 156.66 195 157 C197 161.44444444 197 161.44444444 197 163 C145.19 163.33 93.38 163.66 40 164 C39.67 163.01 39.34 162.02 39 161 C39.33 160.67 39.66 160.34 40 160 C39.34 159.34 38.68 158.68 38 158 C37.690625 157.360625 37.38125 156.72125 37.0625 156.0625 C35.94164922 153.88673083 34.73094778 152.70978705 33 151 C29.45861847 146.77285962 27.62043842 143.58394579 27 138 C26.36658584 136.65055244 25.69612443 135.31819308 25 134 C24.68160156 133.30519531 24.36320312 132.61039063 24.03515625 131.89453125 C23.71417969 131.20746094 23.39320312 130.52039063 23.0625 129.8125 C22.74410156 129.11769531 22.42570312 128.42289063 22.09765625 127.70703125 C21.03583404 125.66365617 21.03583404 125.66365617 18 125 C18 124.01 18 123.02 18 122 C16.56249809 120.31201173 16.56249809 120.31201173 15 119 C15.33 118.34 15.66 117.68 16 117 C15.01 116.01 15.01 116.01 14 115 C14.33 114.34 14.66 113.68 15 113 C13.68 112.34 12.36 111.68 11 111 C11 110.01 11 109.02 11 108 C10.34 108 9.68 108 9 108 C8.67 107.01 8.34 106.02 8 105 C7.505 104.525625 7.01 104.05125 6.5 103.5625 C4.71764846 101.70588382 4.52702216 100.48453303 4 98 C3.3507041 96.65812182 2.68268138 95.32520503 2 94 C1.731875 93.113125 1.46375 92.22625 1.1875 91.3125 C0.5996875 90.1678125 0.5996875 90.1678125 0 89 C-2.51948778 88.26259783 -2.51948778 88.26259783 -5 88 C-5.33 87.34 -5.66 86.68 -6 86 C-4.68 86 -3.36 86 -2 86 C-4.74259827 81.83468004 -4.74259827 81.83468004 -7.6875 77.8125 C-9.47764297 75.34039781 -10.055897 72.80036785 -10.875 69.875 C-11.24625 68.92625 -11.6175 67.9775 -12 67 C-12.99 66.67 -13.98 66.34 -15 66 C-15 65.34 -15 64.68 -15 64 C-16.485 63.505 -16.485 63.505 -18 63 C-18.103125 62.071875 -18.20625 61.14375 -18.3125 60.1875 C-18.69025355 57.03868301 -18.69025355 57.03868301 -20.5 55.5 C-22 54 -22 54 -22.4375 51.1875 C-23.11419694 47.35288403 -24.77931217 45.15194401 -27 42 C-27 41.34 -27 40.68 -27 40 C-27.66 39.67 -28.32 39.34 -29 39 C-28.67 38.34 -28.34 37.68 -28 37 C-29.485 36.505 -29.485 36.505 -31 36 C-31.103125 35.21625 -31.20625 34.4325 -31.3125 33.625 C-31.77595022 30.66954819 -31.77595022 30.66954819 -35 29 C-35.6875 26.375 -35.6875 26.375 -36 24 C-36.66 24 -37.32 24 -38 24 C-38.12375 23.21625 -38.2475 22.4325 -38.375 21.625 C-38.79117993 18.85942178 -38.79117993 18.85942178 -41 17 C-41.66 16.67 -42.32 16.34 -43 16 C-45.71311255 12.64850803 -46.93344328 10.57048621 -47.4375 6.25 C-47.293125 5.1775 -47.14875 4.105 -47 3 C-43.92295698 0.94863799 -43.30415609 0.75034104 -39.83569336 0.75708008 C-39.00150375 0.75400345 -38.16731415 0.75092682 -37.30784607 0.74775696 C-35.96243492 0.75853523 -35.96243492 0.75853523 -34.58984375 0.76953125 C-33.2049752 0.77021858 -33.2049752 0.77021858 -31.79212952 0.7709198 C-29.84114292 0.77394024 -27.8901587 0.78182032 -25.93920898 0.79418945 C-22.94571433 0.81244989 -19.95252892 0.81469908 -16.95898438 0.81445312 C-15.06510148 0.81936825 -13.17122069 0.82519654 -11.27734375 0.83203125 C-10.37837875 0.83314407 -9.47941376 0.8342569 -8.5532074 0.83540344 C-7.72216995 0.84178329 -6.89113251 0.84816315 -6.03491211 0.85473633 C-4.93595863 0.86045403 -4.93595863 0.86045403 -3.81480408 0.86628723 C-2 1 -2 1 0 2 C0 1.34 0 0.68 0 0 Z M-46 8 C-45.34 9.32 -44.68 10.64 -44 12 C-44 11.01 -44 10.02 -44 9 C-44.66 8.67 -45.32 8.34 -46 8 Z M24 36 C25 38 25 38 25 38 Z M-20 53 C-19 55 -19 55 -19 55 Z M-16 60 C-16 63 -16 63 -16 63 Z " fill="#000001" transform="translate(50,117)"/>
<path d="M0 0 C10.89 0 21.78 0 33 0 C33 0.66 33 1.32 33 2 C35.64 2 38.28 2 41 2 C41.33 1.34 41.66 0.68 42 0 C42 0.66 42 1.32 42 2 C43.32 1.67 44.64 1.34 46 1 C47 3 47 3 46.1875 6.0625 C45 9 45 9 43 10 C43 11.65 43 13.3 43 15 C41.68 15.66 40.36 16.32 39 17 C39.061875 17.928125 39.12375 18.85625 39.1875 19.8125 C38.97039988 23.50320206 38.59631459 23.66271448 36 26 C34.94377139 27.13242421 33.90219692 28.27867734 32.875 29.4375 C32.35679687 30.01371094 31.83859375 30.58992188 31.3046875 31.18359375 C29.88361074 33.16203893 29.4620108 34.62865883 29 37 C28.67 37.99 28.34 38.98 28 40 C27.01 40 26.02 40 25 40 C24.7834375 41.175625 24.7834375 41.175625 24.5625 42.375 C24 45 24 45 23 47 C22.34 47 21.68 47 21 47 C20.89429688 47.54914063 20.78859375 48.09828125 20.6796875 48.6640625 C19.85474853 51.49919757 18.57323152 53.8027679 17.125 56.375 C14.98972592 60.21030044 12.92312636 64.0525301 11 68 C10.67 68.66 10.34 69.32 10 70 C9.505 71.485 9.505 71.485 9 73 C8.34 73 7.68 73 7 73 C7 73.99 7 74.98 7 76 C6.34 76 5.68 76 5 76 C4.71125 76.86625 4.4225 77.7325 4.125 78.625 C3.75375 79.73875 3.3825 80.8525 3 82 C2.566875 83.546875 2.566875 83.546875 2.125 85.125 C0.86302982 88.3500349 -0.53609283 89.60649018 -3 92 C-4.76689786 94.60755867 -6.39519185 97.29024197 -8 100 C-9.65 99.67 -11.3 99.34 -13 99 C-13 99.66 -13 100.32 -13 101 C-27.19 101 -41.38 101 -56 101 C-56 100.34 -56 99.68 -56 99 C-57.32 98.67 -58.64 98.34 -60 98 C-59.34 97.01 -58.68 96.02 -58 95 C-58 94.01 -58 93.02 -58 92 C-56.67189785 90.32916181 -55.33827304 88.66270287 -54 87 C-53.63215869 85.6757713 -53.28797019 84.34386088 -53 83 C-52.01 82.505 -52.01 82.505 -51 82 C-51 81.01 -51 80.02 -51 79 C-50.401875 78.443125 -49.80375 77.88625 -49.1875 77.3125 C-46.64069685 74.62016524 -45.78204927 72.26528553 -44.61328125 68.8046875 C-43.61071486 65.85446029 -42.78981179 64.80006487 -40.4375 62.5625 C-37.65539312 60.22716073 -37.65539312 60.22716073 -38 57 C-36 55 -36 55 -34 54 C-34 53.01 -34 52.02 -34 51 C-33.34 51 -32.68 51 -32 51 C-31.97421875 50.37351563 -31.9484375 49.74703125 -31.921875 49.1015625 C-31.86515625 48.28429687 -31.8084375 47.46703125 -31.75 46.625 C-31.68039062 45.40683594 -31.68039062 45.40683594 -31.609375 44.1640625 C-31 42 -31 42 -28.953125 40.7109375 C-28.30859375 40.47632813 -27.6640625 40.24171875 -27 40 C-27 39.01 -27 38.02 -27 37 C-26 34.8125 -26 34.8125 -25 33 C-24.34 33 -23.68 33 -23 33 C-22.525625 31.88625 -22.05125 30.7725 -21.5625 29.625 C-20.46377488 27.07595773 -19.33384512 24.64543389 -18.0625 22.1875 C-16.94102425 19.98547084 -16.94102425 19.98547084 -16.125 17.5 C-14.84926135 14.66502521 -13.21605778 13.14457205 -11 11 C-10.67 10.01 -10.34 9.02 -10 8 C-6.5 2.16666667 -6.5 2.16666667 -3 1 C-2.01 1.33 -1.02 1.66 0 2 C0 1.34 0 0.68 0 0 Z M41 12 C42 14 42 14 42 14 Z M-55 99 C-55 99.33 -55 99.66 -55 100 C-41.47 100 -27.94 100 -14 100 C-14 99.67 -14 99.34 -14 99 C-27.53 99 -41.06 99 -55 99 Z " fill="#000001" transform="translate(462,181)"/>
<path d="M0 0 C0 0.33 0 0.66 0 1 C1.83159668 0.97643433 1.83159668 0.97643433 3.70019531 0.95239258 C8.23251748 0.89807318 12.76481089 0.86364254 17.29736328 0.83520508 C19.25867553 0.82012305 21.21995408 0.79965453 23.18115234 0.77368164 C26.00106118 0.73727269 28.82052392 0.72026784 31.640625 0.70703125 C32.51680481 0.69154739 33.39298462 0.67606354 34.29571533 0.66011047 C37.86453985 0.65912495 40.34902268 0.68059811 43.58496094 2.26831055 C45 4 45 4 45 8 C45.66 8.66 46.32 9.32 47 10 C47.495 10.99 47.495 10.99 48 12 C48.33 12 48.66 12 49 12 C49.20625 12.78375 49.4125 13.5675 49.625 14.375 C51.19423039 18.51206194 53.31274344 21.99412221 55.66015625 25.73046875 C57 28 57 28 58 31 C58.9793879 32.02019573 59.97895449 33.02149805 61 34 C61.66255241 35.32510482 62.30869602 36.65855152 62.9375 38 C63.95426339 40.14940624 63.95426339 40.14940624 66 42 C66.33931794 43.3318229 66.67177981 44.66539879 67 46 C67.79155212 47.54299181 68.62761671 49.06372521 69.5 50.5625 C70.96316701 53.08476174 72.07312875 55.21938626 73 58 C73.825 58.78375 74.65 59.5675 75.5 60.375 C78.19847147 63.20839504 78.42843595 64.28483368 79 68 C80.53278858 70.39914735 81.44805857 71.72402928 84 73 C84.36548445 74.32488113 84.6937566 75.66018514 85 77 C86.12780672 79.5563619 87.00166497 81.00166497 89 83 C89 83.99 89 84.98 89 86 C89.95211112 88.02323613 90.94773272 90.02699884 92 92 C92.66 92 93.32 92 94 92 C94.495 95.465 94.495 95.465 95 99 C78.5 99 62 99 45 99 C44.67 99.66 44.34 100.32 44 101 C43.34 99.35 42.68 97.7 42 96 C41.34 96 40.68 96 40 96 C39.690625 95.21625 39.38125 94.4325 39.0625 93.625 C38.07124962 91.07669872 38.07124962 91.07669872 37 89 C36.01 88.67 35.02 88.34 34 88 C33.938125 87.195625 33.87625 86.39125 33.8125 85.5625 C32.94105039 81.74152862 31.56789823 79.14159344 29.609375 75.7890625 C27.54818316 72.21699703 25.61933003 68.5807097 23.6875 64.9375 C22.98309529 63.61326935 22.27866993 62.28904968 21.57421875 60.96484375 C21.05472656 59.98644531 20.53523438 59.00804687 20 58 C19.34 58 18.68 58 18 58 C17.01 54.535 17.01 54.535 16 51 C15.34 51 14.68 51 14 51 C13.896875 50.38125 13.79375 49.7625 13.6875 49.125 C13.12474627 46.63473516 13.12474627 46.63473516 10 45 C9.896875 44.175 9.79375 43.35 9.6875 42.5 C8.8544766 38.25915361 7.04686304 35.56041033 4.75390625 31.94140625 C2.37193394 27.94669546 0.39056052 23.78254064 -1.55126953 19.55859375 C-2.29438937 18.00199439 -3.14085909 16.49569567 -4 15 C-4.99 14.67 -5.98 14.34 -7 14 C-7.103125 13.13375 -7.20625 12.2675 -7.3125 11.375 C-8.03398414 7.83316877 -9.27123261 5.15687958 -11 2 C-7.17010894 0.19769832 -4.21878192 -0.19622241 0 0 Z M82 74 C83 76 83 76 83 76 Z M35 85 C36 87 36 87 36 87 Z " fill="#000002" transform="translate(221,181)"/>
<path d="M0 0 C0.495 0.99 0.495 0.99 1 2 C1.66 2 2.32 2 3 2 C3.33 1.34 3.66 0.68 4 0 C4 0.66 4 1.32 4 2 C5.1446875 1.9071875 5.1446875 1.9071875 6.3125 1.8125 C9 2 9 2 10.8125 3.5 C11.4003125 4.2425 11.4003125 4.2425 12 5 C10.71034824 6.37562854 9.37310707 7.70766393 8 9 C7.34 9 6.68 9 6 9 C5.814375 9.8353125 5.814375 9.8353125 5.625 10.6875 C4.94023145 13.22114364 4.00866237 15.57921032 3 18 C2.34 18 1.68 18 1 18 C0.20576139 19.56119422 -0.58527123 21.12401964 -1.375 22.6875 C-2.03628906 23.99267578 -2.03628906 23.99267578 -2.7109375 25.32421875 C-4.02450469 27.96590076 -4.02450469 27.96590076 -5.0390625 30.64453125 C-6 33 -6 33 -8 36 C-7.67 36.99 -7.34 37.98 -7 39 C-8.98 39.495 -8.98 39.495 -11 40 C-11.33 42.31 -11.66 44.62 -12 47 C-19.25678685 47.7696683 -26.40388791 48.13923121 -33.69921875 48.09765625 C-35.14081108 48.09553383 -35.14081108 48.09553383 -36.61152649 48.09336853 C-39.63688466 48.08783675 -42.66216475 48.07529773 -45.6875 48.0625 C-47.75716038 48.05747616 -49.82682193 48.05291481 -51.89648438 48.04882812 C-56.931019 48.03788981 -61.96549633 48.02067362 -67 48 C-67.33 47.34 -67.66 46.68 -68 46 C-67.0390625 43.72265625 -67.0390625 43.72265625 -65.625 41.0625 C-64.19875971 38.35742415 -62.96882638 35.90647913 -62 33 C-61.505 32.505 -61.505 32.505 -61 32 C-60.814375 31.01 -60.814375 31.01 -60.625 30 C-60.41875 29.34 -60.2125 28.68 -60 28 C-59.01 27.67 -58.02 27.34 -57 27 C-57 26.01 -57 25.02 -57 24 C-56.34 24 -55.68 24 -55 24 C-55.061875 23.21625 -55.12375 22.4325 -55.1875 21.625 C-55.125625 20.75875 -55.06375 19.8925 -55 19 C-54.01 18.34 -53.02 17.68 -52 17 C-51.87625 16.401875 -51.7525 15.80375 -51.625 15.1875 C-50.70044371 11.951553 -48.35675563 10.35675563 -46 8 C-45.01 6.02 -44.02 4.04 -43 2 C-28.81 2 -14.62 2 0 2 C0 1.34 0 0.68 0 0 Z " fill="#000001" transform="translate(535,117)"/>
<path d="M0 0 C0.92783798 -0.00960754 1.85567596 -0.01921509 2.81163025 -0.02911377 C4.31168358 -0.03548859 4.31168358 -0.03548859 5.84204102 -0.04199219 C6.87152359 -0.04769226 7.90100616 -0.05339233 8.96168518 -0.05926514 C11.13964816 -0.0687127 13.31762541 -0.07524815 15.49560547 -0.07910156 C18.82943554 -0.08881906 22.16265222 -0.11984996 25.49633789 -0.15136719 C27.6115686 -0.15789614 29.72680372 -0.16314703 31.84204102 -0.16699219 C32.84005234 -0.17933899 33.83806366 -0.19168579 34.86631775 -0.20440674 C35.79730789 -0.20140564 36.72829803 -0.19840454 37.6875 -0.1953125 C38.50451889 -0.19895813 39.32153778 -0.20260376 40.16331482 -0.20635986 C42.96241291 0.25180823 44.32471071 1.27073781 46.40844727 3.16113281 C47.1059331 4.47860605 47.77804683 5.81027475 48.40844727 7.16113281 C49.06844727 7.49113281 49.72844727 7.82113281 50.40844727 8.16113281 C50.77393172 9.48601394 51.10220387 10.82131795 51.40844727 12.16113281 C52.91414421 15.37468047 54.6746968 18.44138823 56.40844727 21.53613281 C58.51335638 25.35766683 60.09276024 28.99479058 61.40844727 33.16113281 C62.06844727 33.49113281 62.72844727 33.82113281 63.40844727 34.16113281 C63.87250977 35.39863281 63.87250977 35.39863281 64.34594727 36.66113281 C64.69657227 37.48613281 65.04719727 38.31113281 65.40844727 39.16113281 C66.89344727 39.65613281 66.89344727 39.65613281 68.40844727 40.16113281 C67.74844727 41.15113281 67.08844727 42.14113281 66.40844727 43.16113281 C67.39844727 42.83113281 68.38844727 42.50113281 69.40844727 42.16113281 C69.07844727 43.81113281 68.74844727 45.46113281 68.40844727 47.16113281 C20.30844727 47.16113281 20.30844727 47.16113281 16.40844727 46.16113281 C15.74844727 45.50113281 15.08844727 44.84113281 14.40844727 44.16113281 C14.40844727 43.50113281 14.40844727 42.84113281 14.40844727 42.16113281 C13.43907227 41.62488281 12.46969727 41.08863281 11.47094727 40.53613281 C8.40844727 38.16113281 8.40844727 38.16113281 7.78735352 36.12207031 C7.56019933 34.14408159 7.47477674 32.15101694 7.40844727 30.16113281 C6.74844727 30.16113281 6.08844727 30.16113281 5.40844727 30.16113281 C5.28469727 28.73800781 5.28469727 28.73800781 5.15844727 27.28613281 C4.91094727 26.25488281 4.66344727 25.22363281 4.40844727 24.16113281 C2.45823643 22.93585334 2.45823643 22.93585334 0.40844727 22.16113281 C-0.59155273 19.16113281 -0.59155273 19.16113281 -0.59155273 17.16113281 C-1.57702272 15.48583383 -2.58095752 13.82139637 -3.59155273 12.16113281 C-4.33626602 10.79449052 -5.06477829 9.41892746 -5.77905273 8.03613281 C-6.12323242 7.37355469 -6.46741211 6.71097656 -6.82202148 6.02832031 C-7.59155273 4.16113281 -7.59155273 4.16113281 -7.59155273 1.16113281 C-4.75002863 0.21395811 -2.94851995 0.02466544 0 0 Z M1.40844727 19.16113281 C2.40844727 21.16113281 2.40844727 21.16113281 2.40844727 21.16113281 Z " fill="#000001" transform="translate(182.591552734375,117.8388671875)"/>
<path d="M0 0 C48.18 0 96.36 0 146 0 C145.67 0.66 145.34 1.32 145 2 C73.225 1.505 73.225 1.505 0 1 C0 0.67 0 0.34 0 0 Z " fill="#000000" transform="translate(95,281)"/>
<path d="M0 0 C16.5 0 33 0 50 0 C50.495 0.99 50.495 0.99 51 2 C34.17 1.67 17.34 1.34 0 1 C0 0.67 0 0.34 0 0 Z " fill="#000000" transform="translate(335,281)"/>
<path d="M0 0 C13.53 0 27.06 0 41 0 C41 0.33 41 0.66 41 1 C27.47 1 13.94 1 0 1 C0 0.67 0 0.34 0 0 Z " fill="#000000" transform="translate(271,281)"/>
<path d="M0 0 C11.22 0 22.44 0 34 0 C34 0.33 34 0.66 34 1 C22.78 1 11.56 1 0 1 C0 0.67 0 0.34 0 0 Z " fill="#000000" transform="translate(222,181)"/>
<path d="M0 0 C0.66 0 1.32 0 2 0 C2 2.31 2 4.62 2 7 C1.34 7 0.68 7 0 7 C0 4.69 0 2.38 0 0 Z " fill="#120000" transform="translate(365,117)"/>
<path d="M0 0 C1.32 1.65 2.64 3.3 4 5 C3.67 5.66 3.34 6.32 3 7 C1.68 5.02 0.36 3.04 -1 1 C-0.67 0.67 -0.34 0.34 0 0 Z " fill="#000000" transform="translate(210,186)"/>
<path d="M0 0 C0.66 0.33 1.32 0.66 2 1 C1.01 2.32 0.02 3.64 -1 5 C-1 2 -1 2 0 0 Z " fill="#000000" transform="translate(459,273)"/>
<path d="M0 0 C0.66 0.99 1.32 1.98 2 3 C0.68 3.33 -0.64 3.66 -2 4 C-2 3.34 -2 2.68 -2 2 C-1.34 2 -0.68 2 0 2 C0 1.34 0 0.68 0 0 Z " fill="#000000" transform="translate(691,169)"/>
<path d="M0 0 C0.33 0.66 0.66 1.32 1 2 C0.67 2.66 0.34 3.32 0 4 C-0.66 4 -1.32 4 -2 4 C-1.34 2.68 -0.68 1.36 0 0 Z " fill="#000000" transform="translate(714,128)"/>
<path d="M0 0 C1.65 0 3.3 0 5 0 C4.34 0.66 3.68 1.32 3 2 C2.01 1.34 1.02 0.68 0 0 Z " fill="#000000" transform="translate(242,281)"/>
<path d="M0 0 C0.99 0.495 0.99 0.495 2 1 C1.67 2.32 1.34 3.64 1 5 C0.67 3.35 0.34 1.7 0 0 Z " fill="#000000" transform="translate(266,168)"/>
<path d="M0 0 C0.33 1.32 0.66 2.64 1 4 C0.34 4 -0.32 4 -1 4 C-0.67 2.68 -0.34 1.36 0 0 Z " fill="#000000" transform="translate(453,164)"/>
<path d="M0 0 C0.66 0 1.32 0 2 0 C2.33 0.99 2.66 1.98 3 3 C2.01 3.495 2.01 3.495 1 4 C0.67 2.68 0.34 1.36 0 0 Z " fill="#000000" transform="translate(81,162)"/>
<path d="M0 0 C1.485 0.99 1.485 0.99 3 2 C2.34 2.66 1.68 3.32 1 4 C0.67 2.68 0.34 1.36 0 0 Z " fill="#060000" transform="translate(15,147)"/>
<path d="M0 0 C2.475 0.495 2.475 0.495 5 1 C4.01 1.495 4.01 1.495 3 2 C2.01 1.34 1.02 0.68 0 0 Z " fill="#000000" transform="translate(541,117)"/>
<path d="M0 0 C0.66 1.32 1.32 2.64 2 4 C1.34 3.67 0.68 3.34 0 3 C0 2.01 0 1.02 0 0 Z " fill="#000000" transform="translate(116,226)"/>
<path d="M0 0 C1.32 0 2.64 0 4 0 C3.67 0.66 3.34 1.32 3 2 C2.01 1.34 1.02 0.68 0 0 Z " fill="#000000" transform="translate(658,227)"/>
<path d="M0 0 C0.66 0.99 1.32 1.98 2 3 C1.01 2.67 0.02 2.34 -1 2 C-0.67 1.34 -0.34 0.68 0 0 Z " fill="#000000" transform="translate(272,173)"/>
<path d="M0 0 C0.99 0.495 0.99 0.495 2 1 C1.67 1.99 1.34 2.98 1 4 C0.67 2.68 0.34 1.36 0 0 Z " fill="#000000" transform="translate(448,169)"/>
<path d="M0 0 C0.33 0.99 0.66 1.98 1 3 C0.01 2.67 -0.98 2.34 -2 2 C-1.34 2 -0.68 2 0 2 C0 1.34 0 0.68 0 0 Z " fill="#000000" transform="translate(468,157)"/>
<path d="M0 0 C0 0.99 0 1.98 0 3 C-0.66 2.34 -1.32 1.68 -2 1 C-1.34 0.67 -0.68 0.34 0 0 Z " fill="#040000" transform="translate(9,134)"/>
<path d="M0 0 C0.66 0.33 1.32 0.66 2 1 C1.01 1.66 0.02 2.32 -1 3 C-0.67 2.01 -0.34 1.02 0 0 Z " fill="#000000" transform="translate(485,125)"/>
<path d="M0 0 C0.99 0.33 1.98 0.66 3 1 C2.01 1.33 1.02 1.66 0 2 C0 1.34 0 0.68 0 0 Z " fill="#000000" transform="translate(450,281)"/>
<path d="M0 0 C0.99 0 1.98 0 3 0 C2.67 0.66 2.34 1.32 2 2 C1.34 1.34 0.68 0.68 0 0 Z " fill="#000000" transform="translate(402,281)"/>
<path d="M0 0 C0.99 0.495 0.99 0.495 2 1 C1.67 1.66 1.34 2.32 1 3 C0.67 2.01 0.34 1.02 0 0 Z " fill="#000000" transform="translate(295,239)"/>
<path d="M0 0 C0.99 0.495 0.99 0.495 2 1 C1.67 1.66 1.34 2.32 1 3 C0.67 2.01 0.34 1.02 0 0 Z " fill="#000000" transform="translate(57,226)"/>
<path d="M0 0 C0 3 0 3 0 3 Z " fill="#000000" transform="translate(350,211)"/>
<path d="M0 0 C0.66 0 1.32 0 2 0 C2 0.66 2 1.32 2 2 C1.34 2 0.68 2 0 2 C0 1.34 0 0.68 0 0 Z " fill="#000000" transform="translate(613,206)"/>
<path d="M0 0 C0.66 0.66 1.32 1.32 2 2 C1.01 2.495 1.01 2.495 0 3 C0 2.01 0 1.02 0 0 Z " fill="#090000" transform="translate(429,203)"/>
<path d="M0 0 C0.99 0.33 1.98 0.66 3 1 C2.01 1 1.02 1 0 1 C0 0.67 0 0.34 0 0 Z " fill="#000000" transform="translate(99,196)"/>
<path d="M0 0 C0.33 0.99 0.66 1.98 1 3 C0.34 2.67 -0.32 2.34 -1 2 C-0.67 1.34 -0.34 0.68 0 0 Z " fill="#000000" transform="translate(437,189)"/>
<path d="M0 0 C1 4 1 4 1 4 Z " fill="#000000" transform="translate(449,188)"/>
<path d="M0 0 C0.99 0.495 0.99 0.495 2 1 C1.67 1.66 1.34 2.32 1 3 C0.67 2.01 0.34 1.02 0 0 Z " fill="#010000" transform="translate(36,186)"/>
<path d="M0 0 C0 3 0 3 0 3 Z " fill="#000000" transform="translate(454,183)"/>
<path d="M0 0 C4 1 4 1 4 1 Z " fill="#000000" transform="translate(622,170)"/>
<path d="M0 0 C0.99 0.495 0.99 0.495 2 1 C1.67 1.66 1.34 2.32 1 3 C0.67 2.01 0.34 1.02 0 0 Z " fill="#000000" transform="translate(692,167)"/>
<path d="M0 0 C4 1 4 1 4 1 Z " fill="#000000" transform="translate(527,167)"/>
<path d="M0 0 C0.99 0.495 0.99 0.495 2 1 C1.67 1.66 1.34 2.32 1 3 C0.67 2.01 0.34 1.02 0 0 Z " fill="#000000" transform="translate(693,165)"/>
<path d="M0 0 C0 3 0 3 0 3 Z " fill="#020000" transform="translate(25,163)"/>
<path d="M0 0 C4 1 4 1 4 1 Z " fill="#000000" transform="translate(463,161)"/>
<path d="M0 0 C0.99 0.33 1.98 0.66 3 1 C2.01 1.33 1.02 1.66 0 2 C0 1.34 0 0.68 0 0 Z " fill="#000000" transform="translate(526,160)"/>
<path d="M0 0 C0.33 0.99 0.66 1.98 1 3 C0.34 2.67 -0.32 2.34 -1 2 C-0.67 1.34 -0.34 0.68 0 0 Z " fill="#000000" transform="translate(243,142)"/>
<path d="M0 0 C0.99 0.495 0.99 0.495 2 1 C1.67 1.66 1.34 2.32 1 3 C0.67 2.01 0.34 1.02 0 0 Z " fill="#000000" transform="translate(409,136)"/>
<path d="M0 0 C0.99 0.495 0.99 0.495 2 1 C1.34 1.66 0.68 2.32 0 3 C0 2.01 0 1.02 0 0 Z " fill="#000000" transform="translate(68,137)"/>
<path d="M0 0 C0.33 0.99 0.66 1.98 1 3 C0.34 2.67 -0.32 2.34 -1 2 C-0.67 1.34 -0.34 0.68 0 0 Z " fill="#000000" transform="translate(475,124)"/>
<path d="M0 0 C0.99 0 1.98 0 3 0 C2.67 0.66 2.34 1.32 2 2 C1.34 1.34 0.68 0.68 0 0 Z " fill="#000000" transform="translate(0,122)"/>
<path d="M0 0 C0.99 0.495 0.99 0.495 2 1 C1.01 1.495 1.01 1.495 0 2 C0 1.34 0 0.68 0 0 Z " fill="#000000" transform="translate(454,281)"/>
<path d="M0 0 C3 1 3 1 3 1 Z " fill="#000000" transform="translate(267,281)"/>
<path d="" fill="#000000" transform="translate(0,0)"/>
<path d="M0 0 C0.33 0.66 0.66 1.32 1 2 C0.34 1.67 -0.32 1.34 -1 1 C-0.67 0.67 -0.34 0.34 0 0 Z " fill="#000000" transform="translate(475,263)"/>
<path d="M0 0 C0.33 0.66 0.66 1.32 1 2 C0.34 1.67 -0.32 1.34 -1 1 C-0.67 0.67 -0.34 0.34 0 0 Z " fill="#000000" transform="translate(413,256)"/>
<path d="" fill="#000000" transform="translate(0,0)"/>
<path d="" fill="#000000" transform="translate(0,0)"/>
<path d="M0 0 C3 1 3 1 3 1 Z " fill="#000000" transform="translate(72,250)"/>
<path d="" fill="#060000" transform="translate(0,0)"/>
<path d="M0 0 C0.66 0.66 1.32 1.32 2 2 C1.34 2 0.68 2 0 2 C0 1.34 0 0.68 0 0 Z " fill="#000000" transform="translate(231,248)"/>
<path d="M0 0 C0.66 0.66 1.32 1.32 2 2 C1.34 2 0.68 2 0 2 C0 1.34 0 0.68 0 0 Z " fill="#000000" transform="translate(487,244)"/>
<path d="M0 0 C0.33 0.66 0.66 1.32 1 2 C0.34 1.67 -0.32 1.34 -1 1 C-0.67 0.67 -0.34 0.34 0 0 Z " fill="#000000" transform="translate(67,239)"/>
<path d="" fill="#000000" transform="translate(0,0)"/>
<path d="" fill="#000000" transform="translate(0,0)"/>
<path d="" fill="#000000" transform="translate(0,0)"/>
<path d="M0 0 C0.99 0.495 0.99 0.495 2 1 C1.01 1.495 1.01 1.495 0 2 C0 1.34 0 0.68 0 0 Z " fill="#000000" transform="translate(658,229)"/>
<path d="" fill="#000000" transform="translate(0,0)"/>
<path d="M0 0 C0.99 0.495 0.99 0.495 2 1 C1.01 1.495 1.01 1.495 0 2 C0 1.34 0 0.68 0 0 Z " fill="#000000" transform="translate(601,228)"/>
<path d="" fill="#000000" transform="translate(0,0)"/>
<path d="M0 0 C0.66 0 1.32 0 2 0 C1.67 0.66 1.34 1.32 1 2 C0.67 1.34 0.34 0.68 0 0 Z " fill="#000000" transform="translate(419,224)"/>
<path d="M0 0 C0.66 0 1.32 0 2 0 C1.67 0.66 1.34 1.32 1 2 C0.67 1.34 0.34 0.68 0 0 Z " fill="#000000" transform="translate(56,223)"/>
<path d="M0 0 C0.99 0.495 0.99 0.495 2 1 C1.01 1.495 1.01 1.495 0 2 C0 1.34 0 0.68 0 0 Z " fill="#000000" transform="translate(421,222)"/>
<path d="M0 0 C0.66 0.66 1.32 1.32 2 2 C1.34 2 0.68 2 0 2 C0 1.34 0 0.68 0 0 Z " fill="#000000" transform="translate(491,218)"/>
<path d="M0 0 C0.33 0.66 0.66 1.32 1 2 C0.34 1.67 -0.32 1.34 -1 1 C-0.67 0.67 -0.34 0.34 0 0 Z " fill="#000000" transform="translate(370,210)"/>
<path d="M0 0 C3 1 3 1 3 1 Z " fill="#000000" transform="translate(432,203)"/>
<path d="M0 0 C0.66 0 1.32 0 2 0 C1.67 0.66 1.34 1.32 1 2 C0.67 1.34 0.34 0.68 0 0 Z " fill="#000000" transform="translate(41,201)"/>
<path d="" fill="#000000" transform="translate(0,0)"/>
<path d="M0 0 C0.66 0.66 1.32 1.32 2 2 C1.34 2 0.68 2 0 2 C0 1.34 0 0.68 0 0 Z " fill="#000000" transform="translate(339,194)"/>
<path d="M0 0 C0.66 0 1.32 0 2 0 C1.67 0.66 1.34 1.32 1 2 C0.67 1.34 0.34 0.68 0 0 Z " fill="#000000" transform="translate(264,182)"/>
<path d="M0 0 C0.99 0.495 0.99 0.495 2 1 C1.01 1.495 1.01 1.495 0 2 C0 1.34 0 0.68 0 0 Z " fill="#000000" transform="translate(92,174)"/>
<path d="" fill="#000000" transform="translate(0,0)"/>
<path d="M0 0 C0.66 0 1.32 0 2 0 C1.67 0.66 1.34 1.32 1 2 C0.67 1.34 0.34 0.68 0 0 Z " fill="#000000" transform="translate(26,167)"/>
<path d="M0 0 C0.33 0.66 0.66 1.32 1 2 C0.34 1.67 -0.32 1.34 -1 1 C-0.67 0.67 -0.34 0.34 0 0 Z " fill="#000000" transform="translate(701,162)"/>
<path d="M0 0 C0.99 0.495 0.99 0.495 2 1 C1.01 1.495 1.01 1.495 0 2 C0 1.34 0 0.68 0 0 Z " fill="#000000" transform="translate(697,158)"/>
<path d="M0 0 C0.66 0.66 1.32 1.32 2 2 C1.34 2 0.68 2 0 2 C0 1.34 0 0.68 0 0 Z " fill="#000000" transform="translate(19,154)"/>
<path d="" fill="#000000" transform="translate(0,0)"/>
<path d="M0 0 C0.33 0.66 0.66 1.32 1 2 C0.34 1.67 -0.32 1.34 -1 1 C-0.67 0.67 -0.34 0.34 0 0 Z " fill="#000000" transform="translate(459,151)"/>
<path d="M0 0 C0.66 0.66 1.32 1.32 2 2 C1.34 2 0.68 2 0 2 C0 1.34 0 0.68 0 0 Z " fill="#000000" transform="translate(255,143)"/>
<path d="M0 0 C0.33 0.66 0.66 1.32 1 2 C0.34 1.67 -0.32 1.34 -1 1 C-0.67 0.67 -0.34 0.34 0 0 Z " fill="#000000" transform="translate(532,143)"/>
<path d="M0 0 C0.99 0.495 0.99 0.495 2 1 C1.01 1.495 1.01 1.495 0 2 C0 1.34 0 0.68 0 0 Z " fill="#000000" transform="translate(476,143)"/>
<path d="" fill="#010000" transform="translate(0,0)"/>
<path d="M0 0 C0.66 0 1.32 0 2 0 C1.67 0.66 1.34 1.32 1 2 C0.67 1.34 0.34 0.68 0 0 Z " fill="#000000" transform="translate(466,139)"/>
<path d="M0 0 C0.66 0.66 1.32 1.32 2 2 C1.34 2 0.68 2 0 2 C0 1.34 0 0.68 0 0 Z " fill="#000000" transform="translate(248,132)"/>
<path d="" fill="#000000" transform="translate(0,0)"/>
<path d="M0 0 C0.66 0 1.32 0 2 0 C1.67 0.66 1.34 1.32 1 2 C0.67 1.34 0.34 0.68 0 0 Z " fill="#000000" transform="translate(420,119)"/>
<path d="M0 0 C3 1 3 1 3 1 Z " fill="#000000" transform="translate(476,118)"/>
<path d="M0 0 C3 1 3 1 3 1 Z " fill="#020000" transform="translate(712,117)"/>
<path d="M0 0 C3 1 3 1 3 1 Z " fill="#0C0000" transform="translate(6,117)"/>
<path d="M0 0 C2 1 2 1 2 1 Z " fill="#000000" transform="translate(628,280)"/>
<path d="" fill="#000000" transform="translate(0,0)"/>
<path d="" fill="#000000" transform="translate(0,0)"/>
<path d="M0 0 C2 1 2 1 2 1 Z " fill="#000000" transform="translate(388,277)"/>
<path d="" fill="#000000" transform="translate(0,0)"/>
<path d="" fill="#000000" transform="translate(0,0)"/>
<path d="" fill="#000000" transform="translate(0,0)"/>
<path d="M0 0 C2 1 2 1 2 1 Z " fill="#000000" transform="translate(245,274)"/>
<path d="" fill="#000000" transform="translate(0,0)"/>
<path d="" fill="#000000" transform="translate(0,0)"/>
<path d="" fill="#000000" transform="translate(0,0)"/>
<path d="" fill="#000000" transform="translate(0,0)"/>
<path d="" fill="#000000" transform="translate(0,0)"/>
<path d="" fill="#000000" transform="translate(0,0)"/>
<path d="" fill="#000000" transform="translate(0,0)"/>
<path d="" fill="#000000" transform="translate(0,0)"/>
<path d="" fill="#000000" transform="translate(0,0)"/>
<path d="" fill="#000000" transform="translate(0,0)"/>
<path d="" fill="#000000" transform="translate(0,0)"/>
<path d="" fill="#000000" transform="translate(0,0)"/>
<path d="" fill="#000000" transform="translate(0,0)"/>
<path d="" fill="#000000" transform="translate(0,0)"/>
<path d="" fill="#000000" transform="translate(0,0)"/>
<path d="" fill="#000000" transform="translate(0,0)"/>
<path d="M0 0 C2 1 2 1 2 1 Z " fill="#000000" transform="translate(641,260)"/>
<path d="M0 0 C2 1 2 1 2 1 Z " fill="#000000" transform="translate(400,260)"/>
<path d="M0 0 C2 1 2 1 2 1 Z " fill="#000000" transform="translate(307,260)"/>
<path d="" fill="#000000" transform="translate(0,0)"/>
<path d="" fill="#000000" transform="translate(0,0)"/>
<path d="" fill="#000000" transform="translate(0,0)"/>
<path d="" fill="#000000" transform="translate(0,0)"/>
<path d="" fill="#000000" transform="translate(0,0)"/>
<path d="M0 0 C2 1 2 1 2 1 Z " fill="#000000" transform="translate(400,255)"/>
<path d="" fill="#000000" transform="translate(0,0)"/>
<path d="" fill="#000000" transform="translate(0,0)"/>
<path d="M0 0 C2 1 2 1 2 1 Z " fill="#000000" transform="translate(406,253)"/>
<path d="" fill="#000000" transform="translate(0,0)"/>
<path d="" fill="#000000" transform="translate(0,0)"/>
<path d="" fill="#000000" transform="translate(0,0)"/>
<path d="" fill="#000000" transform="translate(0,0)"/>
<path d="" fill="#000000" transform="translate(0,0)"/>
<path d="" fill="#000000" transform="translate(0,0)"/>
<path d="" fill="#000000" transform="translate(0,0)"/>
<path d="" fill="#000000" transform="translate(0,0)"/>
<path d="" fill="#000000" transform="translate(0,0)"/>
<path d="" fill="#000000" transform="translate(0,0)"/>
<path d="" fill="#000000" transform="translate(0,0)"/>
<path d="" fill="#000000" transform="translate(0,0)"/>
<path d="" fill="#000000" transform="translate(0,0)"/>
<path d="M0 0 C2 1 2 1 2 1 Z " fill="#000000" transform="translate(304,243)"/>
<path d="" fill="#000000" transform="translate(0,0)"/>
<path d="" fill="#000000" transform="translate(0,0)"/>
<path d="" fill="#000000" transform="translate(0,0)"/>
<path d="" fill="#000000" transform="translate(0,0)"/>
<path d="" fill="#000000" transform="translate(0,0)"/>
<path d="" fill="#000000" transform="translate(0,0)"/>
<path d="M0 0 C2 1 2 1 2 1 Z " fill="#000000" transform="translate(480,236)"/>
<path d="" fill="#000000" transform="translate(0,0)"/>
<path d="M0 0 C2 1 2 1 2 1 Z " fill="#000000" transform="translate(658,233)"/>
<path d="" fill="#000000" transform="translate(0,0)"/>
<path d="" fill="#000000" transform="translate(0,0)"/>
<path d="" fill="#000000" transform="translate(0,0)"/>
<path d="" fill="#000000" transform="translate(0,0)"/>
<path d="" fill="#000000" transform="translate(0,0)"/>
<path d="" fill="#000000" transform="translate(0,0)"/>
<path d="" fill="#000000" transform="translate(0,0)"/>
<path d="" fill="#000000" transform="translate(0,0)"/>
<path d="" fill="#000000" transform="translate(0,0)"/>
<path d="" fill="#000000" transform="translate(0,0)"/>
<path d="" fill="#000000" transform="translate(0,0)"/>
<path d="" fill="#000000" transform="translate(0,0)"/>
<path d="M0 0 C2 1 2 1 2 1 Z " fill="#000000" transform="translate(361,224)"/>
<path d="" fill="#000000" transform="translate(0,0)"/>
<path d="M0 0 C2 1 2 1 2 1 Z " fill="#000000" transform="translate(431,221)"/>
<path d="" fill="#000000" transform="translate(0,0)"/>
<path d="" fill="#000000" transform="translate(0,0)"/>
<path d="M0 0 C2 1 2 1 2 1 Z " fill="#000000" transform="translate(665,215)"/>
<path d="" fill="#000000" transform="translate(0,0)"/>
<path d="" fill="#000000" transform="translate(0,0)"/>
<path d="M0 0 C2 1 2 1 2 1 Z " fill="#000000" transform="translate(50,212)"/>
<path d="" fill="#000000" transform="translate(0,0)"/>
<path d="" fill="#000000" transform="translate(0,0)"/>
<path d="" fill="#000000" transform="translate(0,0)"/>
<path d="" fill="#000000" transform="translate(0,0)"/>
<path d="" fill="#000000" transform="translate(0,0)"/>
<path d="" fill="#000000" transform="translate(0,0)"/>
<path d="" fill="#000000" transform="translate(0,0)"/>
<path d="" fill="#000000" transform="translate(0,0)"/>
<path d="M0 0 C2 1 2 1 2 1 Z " fill="#000000" transform="translate(499,208)"/>
<path d="" fill="#000000" transform="translate(0,0)"/>
<path d="" fill="#000000" transform="translate(0,0)"/>
<path d="" fill="#000000" transform="translate(0,0)"/>
<path d="M0 0 C2 1 2 1 2 1 Z " fill="#000000" transform="translate(48,207)"/>
<path d="M0 0 C2 1 2 1 2 1 Z " fill="#000000" transform="translate(499,205)"/>
<path d="M0 0 C2 1 2 1 2 1 Z " fill="#000000" transform="translate(675,204)"/>
<path d="" fill="#000000" transform="translate(0,0)"/>
<path d="" fill="#000000" transform="translate(0,0)"/>
<path d="M0 0 C2 1 2 1 2 1 Z " fill="#000000" transform="translate(40,204)"/>
<path d="" fill="#000000" transform="translate(0,0)"/>
<path d="" fill="#000000" transform="translate(0,0)"/>
<path d="" fill="#000000" transform="translate(0,0)"/>
<path d="" fill="#000000" transform="translate(0,0)"/>
<path d="" fill="#000000" transform="translate(0,0)"/>
<path d="" fill="#000000" transform="translate(0,0)"/>
<path d="" fill="#000000" transform="translate(0,0)"/>
<path d="" fill="#000000" transform="translate(0,0)"/>
<path d="" fill="#000000" transform="translate(0,0)"/>
<path d="" fill="#000000" transform="translate(0,0)"/>
<path d="" fill="#000000" transform="translate(0,0)"/>
<path d="" fill="#000000" transform="translate(0,0)"/>
<path d="" fill="#000000" transform="translate(0,0)"/>
<path d="" fill="#000000" transform="translate(0,0)"/>
<path d="" fill="#000000" transform="translate(0,0)"/>
<path d="" fill="#000000" transform="translate(0,0)"/>
<path d="M0 0 C2 1 2 1 2 1 Z " fill="#000000" transform="translate(616,190)"/>
<path d="M0 0 C2 1 2 1 2 1 Z " fill="#000000" transform="translate(443,188)"/>
<path d="" fill="#000000" transform="translate(0,0)"/>
<path d="" fill="#000000" transform="translate(0,0)"/>
<path d="" fill="#000000" transform="translate(0,0)"/>
<path d="" fill="#000000" transform="translate(0,0)"/>
<path d="" fill="#000000" transform="translate(0,0)"/>
<path d="M0 0 C2 1 2 1 2 1 Z " fill="#000000" transform="translate(33,187)"/>
<path d="" fill="#000000" transform="translate(0,0)"/>
<path d="" fill="#000000" transform="translate(0,0)"/>
<path d="M0 0 C2 1 2 1 2 1 Z " fill="#000000" transform="translate(442,185)"/>
<path d="" fill="#000000" transform="translate(0,0)"/>
<path d="" fill="#000000" transform="translate(0,0)"/>
<path d="" fill="#000000" transform="translate(0,0)"/>
<path d="" fill="#000000" transform="translate(0,0)"/>
<path d="" fill="#090000" transform="translate(0,0)"/>
<path d="" fill="#000000" transform="translate(0,0)"/>
<path d="" fill="#000000" transform="translate(0,0)"/>
<path d="" fill="#000000" transform="translate(0,0)"/>
<path d="" fill="#000000" transform="translate(0,0)"/>
<path d="M0 0 C2 1 2 1 2 1 Z " fill="#000000" transform="translate(91,183)"/>
<path d="" fill="#000000" transform="translate(0,0)"/>
<path d="M0 0 C2 1 2 1 2 1 Z " fill="#000000" transform="translate(505,181)"/>
<path d="M0 0 C2 1 2 1 2 1 Z " fill="#000000" transform="translate(459,181)"/>
<path d="M0 0 C2 1 2 1 2 1 Z " fill="#000000" transform="translate(257,181)"/>
<path d="" fill="#000000" transform="translate(0,0)"/>
<path d="" fill="#000000" transform="translate(0,0)"/>
<path d="" fill="#000000" transform="translate(0,0)"/>
<path d="" fill="#000000" transform="translate(0,0)"/>
<path d="" fill="#000000" transform="translate(0,0)"/>
<path d="" fill="#000000" transform="translate(0,0)"/>
<path d="" fill="#000000" transform="translate(0,0)"/>
<path d="" fill="#000000" transform="translate(0,0)"/>
<path d="" fill="#000000" transform="translate(0,0)"/>
<path d="M0 0 C2 1 2 1 2 1 Z " fill="#000000" transform="translate(386,173)"/>
<path d="M0 0 C2 1 2 1 2 1 Z " fill="#000000" transform="translate(528,171)"/>
<path d="" fill="#000000" transform="translate(0,0)"/>
<path d="" fill="#000000" transform="translate(0,0)"/>
<path d="M0 0 C2 1 2 1 2 1 Z " fill="#000000" transform="translate(269,170)"/>
<path d="M0 0 C2 1 2 1 2 1 Z " fill="#000000" transform="translate(527,169)"/>
<path d="M0 0 C2 1 2 1 2 1 Z " fill="#000000" transform="translate(392,169)"/>
<path d="" fill="#000000" transform="translate(0,0)"/>
<path d="" fill="#000000" transform="translate(0,0)"/>
<path d="" fill="#000000" transform="translate(0,0)"/>
<path d="M0 0 C2 1 2 1 2 1 Z " fill="#000000" transform="translate(623,167)"/>
<path d="" fill="#000000" transform="translate(0,0)"/>
<path d="" fill="#000000" transform="translate(0,0)"/>
<path d="" fill="#000000" transform="translate(0,0)"/>
<path d="M0 0 C2 1 2 1 2 1 Z " fill="#000000" transform="translate(696,164)"/>
<path d="M0 0 C2 1 2 1 2 1 Z " fill="#000000" transform="translate(520,164)"/>
<path d="" fill="#000000" transform="translate(0,0)"/>
<path d="M0 0 C2 1 2 1 2 1 Z " fill="#000000" transform="translate(463,163)"/>
<path d="" fill="#000000" transform="translate(0,0)"/>
<path d="" fill="#000000" transform="translate(0,0)"/>
<path d="" fill="#000000" transform="translate(0,0)"/>
<path d="" fill="#000000" transform="translate(0,0)"/>
<path d="" fill="#000000" transform="translate(0,0)"/>
<path d="" fill="#010000" transform="translate(0,0)"/>
<path d="M0 0 C2 1 2 1 2 1 Z " fill="#000000" transform="translate(395,159)"/>
<path d="" fill="#000000" transform="translate(0,0)"/>
<path d="" fill="#000000" transform="translate(0,0)"/>
<path d="" fill="#000000" transform="translate(0,0)"/>
<path d="" fill="#000000" transform="translate(0,0)"/>
<path d="" fill="#000000" transform="translate(0,0)"/>
<path d="M0 0 C2 1 2 1 2 1 Z " fill="#000000" transform="translate(528,152)"/>
<path d="" fill="#000000" transform="translate(0,0)"/>
<path d="" fill="#000000" transform="translate(0,0)"/>
<path d="" fill="#000000" transform="translate(0,0)"/>
<path d="" fill="#000000" transform="translate(0,0)"/>
<path d="" fill="#000000" transform="translate(0,0)"/>
<path d="" fill="#000000" transform="translate(0,0)"/>
<path d="" fill="#000000" transform="translate(0,0)"/>
<path d="" fill="#000000" transform="translate(0,0)"/>
<path d="" fill="#000000" transform="translate(0,0)"/>
<path d="" fill="#000000" transform="translate(0,0)"/>
<path d="" fill="#000000" transform="translate(0,0)"/>
<path d="" fill="#000000" transform="translate(0,0)"/>
<path d="" fill="#000000" transform="translate(0,0)"/>
<path d="" fill="#000000" transform="translate(0,0)"/>
<path d="" fill="#000000" transform="translate(0,0)"/>
<path d="" fill="#000000" transform="translate(0,0)"/>
<path d="" fill="#000000" transform="translate(0,0)"/>
<path d="" fill="#000000" transform="translate(0,0)"/>
<path d="M0 0 C2 1 2 1 2 1 Z " fill="#000000" transform="translate(312,142)"/>
<path d="" fill="#000000" transform="translate(0,0)"/>
<path d="" fill="#000000" transform="translate(0,0)"/>
<path d="M0 0 C2 1 2 1 2 1 Z " fill="#000000" transform="translate(475,141)"/>
<path d="M0 0 C2 1 2 1 2 1 Z " fill="#000000" transform="translate(315,141)"/>
<path d="" fill="#000000" transform="translate(0,0)"/>
<path d="" fill="#000000" transform="translate(0,0)"/>
<path d="M0 0 C2 1 2 1 2 1 Z " fill="#000000" transform="translate(538,137)"/>
<path d="" fill="#000000" transform="translate(0,0)"/>
<path d="" fill="#000000" transform="translate(0,0)"/>
<path d="" fill="#000000" transform="translate(0,0)"/>
<path d="" fill="#000000" transform="translate(0,0)"/>
<path d="" fill="#000000" transform="translate(0,0)"/>
<path d="" fill="#000000" transform="translate(0,0)"/>
<path d="" fill="#0B0000" transform="translate(0,0)"/>
<path d="" fill="#000000" transform="translate(0,0)"/>
<path d="" fill="#000000" transform="translate(0,0)"/>
<path d="" fill="#070000" transform="translate(0,0)"/>
<path d="M0 0 C2 1 2 1 2 1 Z " fill="#000000" transform="translate(475,129)"/>
<path d="M0 0 C2 1 2 1 2 1 Z " fill="#000000" transform="translate(471,128)"/>
<path d="" fill="#010000" transform="translate(0,0)"/>
<path d="" fill="#000000" transform="translate(0,0)"/>
<path d="" fill="#000000" transform="translate(0,0)"/>
<path d="" fill="#030000" transform="translate(0,0)"/>
<path d="" fill="#000000" transform="translate(0,0)"/>
<path d="" fill="#000000" transform="translate(0,0)"/>
<path d="" fill="#000000" transform="translate(0,0)"/>
<path d="" fill="#000000" transform="translate(0,0)"/>
<path d="" fill="#000000" transform="translate(0,0)"/>
<path d="" fill="#000000" transform="translate(0,0)"/>
<path d="" fill="#000000" transform="translate(0,0)"/>
<path d="M0 0 C2 1 2 1 2 1 Z " fill="#000000" transform="translate(299,122)"/>
<path d="" fill="#000000" transform="translate(0,0)"/>
<path d="" fill="#000000" transform="translate(0,0)"/>
<path d="" fill="#000000" transform="translate(0,0)"/>
<path d="" fill="#000000" transform="translate(0,0)"/>
<path d="M0 0 C2 1 2 1 2 1 Z " fill="#000000" transform="translate(300,120)"/>
<path d="M0 0 C2 1 2 1 2 1 Z " fill="#000000" transform="translate(241,120)"/>
<path d="" fill="#000000" transform="translate(0,0)"/>
<path d="M0 0 C2 1 2 1 2 1 Z " fill="#000000" transform="translate(0,120)"/>
<path d="" fill="#000000" transform="translate(0,0)"/>
<path d="" fill="#000000" transform="translate(0,0)"/>
<path d="M0 0 C2 1 2 1 2 1 Z " fill="#000000" transform="translate(243,118)"/>
<path d="" fill="#000000" transform="translate(0,0)"/>
<path d="M0 0 C2 1 2 1 2 1 Z " fill="#000000" transform="translate(2,117)"/>
<path d="" fill="#000000" transform="translate(0,0)"/>
<path d="" fill="#000000" transform="translate(0,0)"/>
<path d="" fill="#000000" transform="translate(0,0)"/>
<path d="" fill="#000000" transform="translate(0,0)"/>
<path d="" fill="#000000" transform="translate(0,0)"/>
<path d="" fill="#000000" transform="translate(0,0)"/>
<path d="" fill="#000000" transform="translate(0,0)"/>
<path d="" fill="#000000" transform="translate(0,0)"/>
<path d="" fill="#000000" transform="translate(0,0)"/>
<path d="" fill="#000000" transform="translate(0,0)"/>
<path d="" fill="#000000" transform="translate(0,0)"/>
<path d="" fill="#000000" transform="translate(0,0)"/>
<path d="" fill="#000000" transform="translate(0,0)"/>
<path d="" fill="#000000" transform="translate(0,0)"/>
<path d="" fill="#000000" transform="translate(0,0)"/>
<path d="" fill="#000000" transform="translate(0,0)"/>
<path d="" fill="#000000" transform="translate(0,0)"/>
<path d="" fill="#000000" transform="translate(0,0)"/>
<path d="" fill="#000000" transform="translate(0,0)"/>
<path d="" fill="#000000" transform="translate(0,0)"/>
<path d="" fill="#000000" transform="translate(0,0)"/>
<path d="" fill="#000000" transform="translate(0,0)"/>
<path d="" fill="#000000" transform="translate(0,0)"/>
<path d="" fill="#000000" transform="translate(0,0)"/>
<path d="" fill="#000000" transform="translate(0,0)"/>
<path d="" fill="#000000" transform="translate(0,0)"/>
<path d="" fill="#000000" transform="translate(0,0)"/>
<path d="" fill="#000000" transform="translate(0,0)"/>
<path d="" fill="#000000" transform="translate(0,0)"/>
<path d="" fill="#000000" transform="translate(0,0)"/>
<path d="" fill="#000000" transform="translate(0,0)"/>
<path d="" fill="#000000" transform="translate(0,0)"/>
<path d="" fill="#000000" transform="translate(0,0)"/>
<path d="" fill="#000000" transform="translate(0,0)"/>
<path d="" fill="#000000" transform="translate(0,0)"/>
<path d="" fill="#000000" transform="translate(0,0)"/>
<path d="" fill="#000000" transform="translate(0,0)"/>
<path d="" fill="#000000" transform="translate(0,0)"/>
<path d="" fill="#000000" transform="translate(0,0)"/>
<path d="" fill="#000000" transform="translate(0,0)"/>
<path d="" fill="#000000" transform="translate(0,0)"/>
<path d="" fill="#000000" transform="translate(0,0)"/>
<path d="" fill="#000000" transform="translate(0,0)"/>
<path d="" fill="#000000" transform="translate(0,0)"/>
<path d="" fill="#000000" transform="translate(0,0)"/>
<path d="" fill="#000000" transform="translate(0,0)"/>
<path d="" fill="#000000" transform="translate(0,0)"/>
<path d="" fill="#000000" transform="translate(0,0)"/>
<path d="" fill="#000000" transform="translate(0,0)"/>
<path d="" fill="#000000" transform="translate(0,0)"/>
<path d="" fill="#000000" transform="translate(0,0)"/>
<path d="" fill="#000000" transform="translate(0,0)"/>
<path d="" fill="#000000" transform="translate(0,0)"/>
<path d="" fill="#000000" transform="translate(0,0)"/>
<path d="" fill="#000000" transform="translate(0,0)"/>
<path d="" fill="#000000" transform="translate(0,0)"/>
<path d="" fill="#000000" transform="translate(0,0)"/>
<path d="" fill="#000000" transform="translate(0,0)"/>
<path d="" fill="#000000" transform="translate(0,0)"/>
<path d="" fill="#000000" transform="translate(0,0)"/>
<path d="" fill="#000000" transform="translate(0,0)"/>
<path d="" fill="#000000" transform="translate(0,0)"/>
<path d="" fill="#000000" transform="translate(0,0)"/>
<path d="" fill="#000000" transform="translate(0,0)"/>
<path d="" fill="#000000" transform="translate(0,0)"/>
<path d="" fill="#000000" transform="translate(0,0)"/>
<path d="" fill="#000000" transform="translate(0,0)"/>
<path d="" fill="#000000" transform="translate(0,0)"/>
<path d="" fill="#000000" transform="translate(0,0)"/>
<path d="" fill="#000000" transform="translate(0,0)"/>
<path d="" fill="#000000" transform="translate(0,0)"/>
<path d="" fill="#000000" transform="translate(0,0)"/>
<path d="" fill="#000000" transform="translate(0,0)"/>
<path d="" fill="#000000" transform="translate(0,0)"/>
<path d="" fill="#000000" transform="translate(0,0)"/>
<path d="" fill="#000000" transform="translate(0,0)"/>
<path d="" fill="#000000" transform="translate(0,0)"/>
<path d="" fill="#000000" transform="translate(0,0)"/>
<path d="" fill="#010000" transform="translate(0,0)"/>
<path d="" fill="#000000" transform="translate(0,0)"/>
<path d="" fill="#000000" transform="translate(0,0)"/>
<path d="" fill="#000000" transform="translate(0,0)"/>
<path d="" fill="#000000" transform="translate(0,0)"/>
<path d="" fill="#000000" transform="translate(0,0)"/>
<path d="" fill="#000000" transform="translate(0,0)"/>
<path d="" fill="#000000" transform="translate(0,0)"/>
<path d="" fill="#000000" transform="translate(0,0)"/>
<path d="" fill="#000000" transform="translate(0,0)"/>
<path d="" fill="#000000" transform="translate(0,0)"/>
<path d="" fill="#000000" transform="translate(0,0)"/>
<path d="" fill="#000000" transform="translate(0,0)"/>
<path d="" fill="#000000" transform="translate(0,0)"/>
<path d="" fill="#000000" transform="translate(0,0)"/>
<path d="" fill="#000000" transform="translate(0,0)"/>
<path d="" fill="#000000" transform="translate(0,0)"/>
<path d="" fill="#000000" transform="translate(0,0)"/>
<path d="" fill="#000000" transform="translate(0,0)"/>
<path d="" fill="#000000" transform="translate(0,0)"/>
<path d="" fill="#000000" transform="translate(0,0)"/>
<path d="" fill="#000000" transform="translate(0,0)"/>
<path d="" fill="#000000" transform="translate(0,0)"/>
<path d="" fill="#000000" transform="translate(0,0)"/>
<path d="" fill="#000000" transform="translate(0,0)"/>
<path d="" fill="#000000" transform="translate(0,0)"/>
<path d="" fill="#000000" transform="translate(0,0)"/>
<path d="" fill="#000000" transform="translate(0,0)"/>
<path d="" fill="#000000" transform="translate(0,0)"/>
<path d="" fill="#000000" transform="translate(0,0)"/>
<path d="" fill="#000000" transform="translate(0,0)"/>
<path d="" fill="#000000" transform="translate(0,0)"/>
<path d="" fill="#000000" transform="translate(0,0)"/>
<path d="" fill="#000000" transform="translate(0,0)"/>
<path d="" fill="#000000" transform="translate(0,0)"/>
<path d="" fill="#000000" transform="translate(0,0)"/>
<path d="" fill="#000000" transform="translate(0,0)"/>
<path d="" fill="#000000" transform="translate(0,0)"/>
<path d="" fill="#000000" transform="translate(0,0)"/>
<path d="" fill="#000000" transform="translate(0,0)"/>
<path d="" fill="#000000" transform="translate(0,0)"/>
<path d="" fill="#000000" transform="translate(0,0)"/>
<path d="" fill="#000000" transform="translate(0,0)"/>
<path d="" fill="#000000" transform="translate(0,0)"/>
<path d="" fill="#000000" transform="translate(0,0)"/>
<path d="" fill="#000000" transform="translate(0,0)"/>
<path d="" fill="#000000" transform="translate(0,0)"/>
<path d="" fill="#000000" transform="translate(0,0)"/>
<path d="" fill="#000000" transform="translate(0,0)"/>
<path d="" fill="#000000" transform="translate(0,0)"/>
<path d="" fill="#000000" transform="translate(0,0)"/>
<path d="" fill="#000000" transform="translate(0,0)"/>
<path d="" fill="#000000" transform="translate(0,0)"/>
<path d="" fill="#000000" transform="translate(0,0)"/>
<path d="" fill="#000000" transform="translate(0,0)"/>
<path d="" fill="#000000" transform="translate(0,0)"/>
<path d="" fill="#000000" transform="translate(0,0)"/>
<path d="" fill="#000000" transform="translate(0,0)"/>
<path d="" fill="#000000" transform="translate(0,0)"/>
<path d="" fill="#000000" transform="translate(0,0)"/>
<path d="" fill="#000000" transform="translate(0,0)"/>
<path d="" fill="#000000" transform="translate(0,0)"/>
<path d="" fill="#000000" transform="translate(0,0)"/>
<path d="" fill="#000000" transform="translate(0,0)"/>
<path d="" fill="#000000" transform="translate(0,0)"/>
<path d="" fill="#000000" transform="translate(0,0)"/>
<path d="" fill="#000000" transform="translate(0,0)"/>
<path d="" fill="#000000" transform="translate(0,0)"/>
<path d="" fill="#000000" transform="translate(0,0)"/>
<path d="" fill="#000000" transform="translate(0,0)"/>
<path d="" fill="#000000" transform="translate(0,0)"/>
<path d="" fill="#000000" transform="translate(0,0)"/>
<path d="" fill="#000000" transform="translate(0,0)"/>
<path d="" fill="#000000" transform="translate(0,0)"/>
<path d="" fill="#000000" transform="translate(0,0)"/>
<path d="" fill="#000000" transform="translate(0,0)"/>
<path d="" fill="#000000" transform="translate(0,0)"/>
<path d="" fill="#000000" transform="translate(0,0)"/>
<path d="" fill="#000000" transform="translate(0,0)"/>
<path d="" fill="#000000" transform="translate(0,0)"/>
<path d="" fill="#000000" transform="translate(0,0)"/>
<path d="" fill="#000000" transform="translate(0,0)"/>
<path d="" fill="#010000" transform="translate(0,0)"/>
<path d="" fill="#000000" transform="translate(0,0)"/>
<path d="" fill="#000000" transform="translate(0,0)"/>
<path d="" fill="#000000" transform="translate(0,0)"/>
<path d="" fill="#000000" transform="translate(0,0)"/>
<path d="" fill="#000000" transform="translate(0,0)"/>
<path d="" fill="#000000" transform="translate(0,0)"/>
<path d="" fill="#000000" transform="translate(0,0)"/>
<path d="" fill="#000000" transform="translate(0,0)"/>
<path d="" fill="#000000" transform="translate(0,0)"/>
<path d="" fill="#120000" transform="translate(0,0)"/>
<path d="" fill="#000000" transform="translate(0,0)"/>
<path d="" fill="#000000" transform="translate(0,0)"/>
<path d="" fill="#000000" transform="translate(0,0)"/>
<path d="" fill="#000000" transform="translate(0,0)"/>
<path d="" fill="#000000" transform="translate(0,0)"/>
<path d="" fill="#000000" transform="translate(0,0)"/>
<path d="" fill="#000000" transform="translate(0,0)"/>
<path d="" fill="#000000" transform="translate(0,0)"/>
<path d="" fill="#000000" transform="translate(0,0)"/>
<path d="" fill="#000000" transform="translate(0,0)"/>
<path d="" fill="#000000" transform="translate(0,0)"/>
<path d="" fill="#000000" transform="translate(0,0)"/>
<path d="" fill="#000000" transform="translate(0,0)"/>
<path d="" fill="#000000" transform="translate(0,0)"/>
<path d="" fill="#000000" transform="translate(0,0)"/>
<path d="" fill="#000000" transform="translate(0,0)"/>
<path d="" fill="#000000" transform="translate(0,0)"/>
<path d="" fill="#000000" transform="translate(0,0)"/>
<path d="" fill="#000000" transform="translate(0,0)"/>
<path d="" fill="#000000" transform="translate(0,0)"/>
<path d="" fill="#000000" transform="translate(0,0)"/>
<path d="" fill="#000000" transform="translate(0,0)"/>
<path d="" fill="#000000" transform="translate(0,0)"/>
<path d="" fill="#000000" transform="translate(0,0)"/>
<path d="" fill="#000000" transform="translate(0,0)"/>
<path d="" fill="#000000" transform="translate(0,0)"/>
<path d="" fill="#000000" transform="translate(0,0)"/>
<path d="" fill="#000000" transform="translate(0,0)"/>
<path d="" fill="#000000" transform="translate(0,0)"/>
<path d="" fill="#000000" transform="translate(0,0)"/>
<path d="" fill="#000000" transform="translate(0,0)"/>
<path d="" fill="#000000" transform="translate(0,0)"/>
<path d="" fill="#000000" transform="translate(0,0)"/>
<path d="" fill="#000000" transform="translate(0,0)"/>
<path d="" fill="#000000" transform="translate(0,0)"/>
<path d="" fill="#000000" transform="translate(0,0)"/>
<path d="" fill="#000000" transform="translate(0,0)"/>
<path d="" fill="#000000" transform="translate(0,0)"/>
<path d="" fill="#000000" transform="translate(0,0)"/>
<path d="" fill="#000000" transform="translate(0,0)"/>
<path d="" fill="#000000" transform="translate(0,0)"/>
<path d="" fill="#000000" transform="translate(0,0)"/>
<path d="" fill="#000000" transform="translate(0,0)"/>
<path d="" fill="#000000" transform="translate(0,0)"/>
<path d="" fill="#000000" transform="translate(0,0)"/>
<path d="" fill="#000000" transform="translate(0,0)"/>
<path d="" fill="#000000" transform="translate(0,0)"/>
<path d="" fill="#000000" transform="translate(0,0)"/>
<path d="" fill="#000000" transform="translate(0,0)"/>
<path d="" fill="#000000" transform="translate(0,0)"/>
<path d="" fill="#000000" transform="translate(0,0)"/>
<path d="" fill="#000000" transform="translate(0,0)"/>
<path d="" fill="#000000" transform="translate(0,0)"/>
<path d="" fill="#000000" transform="translate(0,0)"/>
<path d="" fill="#000000" transform="translate(0,0)"/>
<path d="" fill="#000000" transform="translate(0,0)"/>
<path d="" fill="#000000" transform="translate(0,0)"/>
<path d="" fill="#000000" transform="translate(0,0)"/>
<path d="" fill="#000000" transform="translate(0,0)"/>
<path d="" fill="#000000" transform="translate(0,0)"/>
<path d="" fill="#000000" transform="translate(0,0)"/>
<path d="" fill="#000000" transform="translate(0,0)"/>
<path d="" fill="#000000" transform="translate(0,0)"/>
<path d="" fill="#000000" transform="translate(0,0)"/>
<path d="" fill="#000000" transform="translate(0,0)"/>
<path d="" fill="#000000" transform="translate(0,0)"/>
<path d="" fill="#000000" transform="translate(0,0)"/>
<path d="" fill="#000000" transform="translate(0,0)"/>
<path d="" fill="#000000" transform="translate(0,0)"/>
<path d="" fill="#000000" transform="translate(0,0)"/>
<path d="" fill="#000000" transform="translate(0,0)"/>
<path d="" fill="#000000" transform="translate(0,0)"/>
<path d="" fill="#000000" transform="translate(0,0)"/>
<path d="" fill="#000000" transform="translate(0,0)"/>
<path d="" fill="#000000" transform="translate(0,0)"/>
<path d="" fill="#000000" transform="translate(0,0)"/>
<path d="" fill="#000000" transform="translate(0,0)"/>
<path d="" fill="#000000" transform="translate(0,0)"/>
<path d="" fill="#000000" transform="translate(0,0)"/>
<path d="" fill="#000000" transform="translate(0,0)"/>
<path d="" fill="#000000" transform="translate(0,0)"/>
<path d="" fill="#000000" transform="translate(0,0)"/>
<path d="" fill="#000000" transform="translate(0,0)"/>
<path d="" fill="#000000" transform="translate(0,0)"/>
<path d="" fill="#000000" transform="translate(0,0)"/>
<path d="" fill="#000000" transform="translate(0,0)"/>
<path d="" fill="#000000" transform="translate(0,0)"/>
<path d="" fill="#000000" transform="translate(0,0)"/>
<path d="" fill="#000000" transform="translate(0,0)"/>
<path d="" fill="#000000" transform="translate(0,0)"/>
<path d="" fill="#000000" transform="translate(0,0)"/>
<path d="" fill="#000000" transform="translate(0,0)"/>
<path d="" fill="#000000" transform="translate(0,0)"/>
<path d="" fill="#000000" transform="translate(0,0)"/>
<path d="" fill="#000000" transform="translate(0,0)"/>
<path d="" fill="#000000" transform="translate(0,0)"/>
<path d="" fill="#000000" transform="translate(0,0)"/>
<path d="" fill="#000000" transform="translate(0,0)"/>
<path d="" fill="#000000" transform="translate(0,0)"/>
<path d="" fill="#000000" transform="translate(0,0)"/>
<path d="" fill="#000000" transform="translate(0,0)"/>
<path d="" fill="#000000" transform="translate(0,0)"/>
<path d="" fill="#000000" transform="translate(0,0)"/>
<path d="" fill="#000000" transform="translate(0,0)"/>
<path d="" fill="#000000" transform="translate(0,0)"/>
<path d="" fill="#000000" transform="translate(0,0)"/>
<path d="" fill="#000000" transform="translate(0,0)"/>
<path d="" fill="#000000" transform="translate(0,0)"/>
<path d="" fill="#000000" transform="translate(0,0)"/>
<path d="" fill="#000000" transform="translate(0,0)"/>
<path d="" fill="#000000" transform="translate(0,0)"/>
<path d="" fill="#000000" transform="translate(0,0)"/>
<path d="" fill="#000000" transform="translate(0,0)"/>
<path d="" fill="#000000" transform="translate(0,0)"/>
<path d="" fill="#000000" transform="translate(0,0)"/>
<path d="" fill="#000000" transform="translate(0,0)"/>
<path d="" fill="#000000" transform="translate(0,0)"/>
<path d="" fill="#000000" transform="translate(0,0)"/>
<path d="" fill="#000000" transform="translate(0,0)"/>
<path d="" fill="#000000" transform="translate(0,0)"/>
<path d="" fill="#000000" transform="translate(0,0)"/>
<path d="" fill="#000000" transform="translate(0,0)"/>
<path d="" fill="#000000" transform="translate(0,0)"/>
<path d="" fill="#000000" transform="translate(0,0)"/>
<path d="" fill="#000000" transform="translate(0,0)"/>
<path d="" fill="#000000" transform="translate(0,0)"/>
<path d="" fill="#000000" transform="translate(0,0)"/>
<path d="" fill="#000000" transform="translate(0,0)"/>
<path d="" fill="#000000" transform="translate(0,0)"/>
<path d="" fill="#000000" transform="translate(0,0)"/>
<path d="" fill="#000000" transform="translate(0,0)"/>
<path d="" fill="#000000" transform="translate(0,0)"/>
<path d="" fill="#000000" transform="translate(0,0)"/>
<path d="" fill="#000000" transform="translate(0,0)"/>
<path d="" fill="#000000" transform="translate(0,0)"/>
<path d="" fill="#000000" transform="translate(0,0)"/>
<path d="" fill="#000000" transform="translate(0,0)"/>
<path d="" fill="#000000" transform="translate(0,0)"/>
<path d="" fill="#000000" transform="translate(0,0)"/>
<path d="" fill="#000000" transform="translate(0,0)"/>
<path d="" fill="#000000" transform="translate(0,0)"/>
<path d="" fill="#000000" transform="translate(0,0)"/>
<path d="" fill="#000000" transform="translate(0,0)"/>
<path d="" fill="#000000" transform="translate(0,0)"/>
<path d="" fill="#000000" transform="translate(0,0)"/>
<path d="" fill="#000000" transform="translate(0,0)"/>
<path d="" fill="#000000" transform="translate(0,0)"/>
<path d="" fill="#000000" transform="translate(0,0)"/>
<path d="" fill="#000000" transform="translate(0,0)"/>
<path d="" fill="#000000" transform="translate(0,0)"/>
<path d="" fill="#000000" transform="translate(0,0)"/>
<path d="" fill="#000000" transform="translate(0,0)"/>
<path d="" fill="#000000" transform="translate(0,0)"/>
<path d="" fill="#000000" transform="translate(0,0)"/>
<path d="" fill="#000000" transform="translate(0,0)"/>
<path d="" fill="#000000" transform="translate(0,0)"/>
<path d="" fill="#000000" transform="translate(0,0)"/>
<path d="" fill="#000000" transform="translate(0,0)"/>
<path d="" fill="#000000" transform="translate(0,0)"/>
<path d="" fill="#000000" transform="translate(0,0)"/>
<path d="" fill="#000000" transform="translate(0,0)"/>
<path d="" fill="#000000" transform="translate(0,0)"/>
<path d="" fill="#000000" transform="translate(0,0)"/>
<path d="" fill="#000000" transform="translate(0,0)"/>
<path d="" fill="#000000" transform="translate(0,0)"/>
<path d="" fill="#000000" transform="translate(0,0)"/>
<path d="" fill="#000000" transform="translate(0,0)"/>
<path d="" fill="#000000" transform="translate(0,0)"/>
<path d="" fill="#000000" transform="translate(0,0)"/>
<path d="" fill="#000000" transform="translate(0,0)"/>
<path d="" fill="#000000" transform="translate(0,0)"/>
<path d="" fill="#000000" transform="translate(0,0)"/>
<path d="" fill="#040000" transform="translate(0,0)"/>
<path d="" fill="#000000" transform="translate(0,0)"/>
<path d="" fill="#000000" transform="translate(0,0)"/>
<path d="" fill="#120000" transform="translate(0,0)"/>
<path d="" fill="#000000" transform="translate(0,0)"/>
<path d="" fill="#000000" transform="translate(0,0)"/>
<path d="" fill="#010000" transform="translate(0,0)"/>
<path d="" fill="#000000" transform="translate(0,0)"/>
<path d="" fill="#000000" transform="translate(0,0)"/>
<path d="" fill="#000000" transform="translate(0,0)"/>
<path d="" fill="#000000" transform="translate(0,0)"/>
<path d="" fill="#000000" transform="translate(0,0)"/>
<path d="" fill="#000000" transform="translate(0,0)"/>
<path d="" fill="#000000" transform="translate(0,0)"/>
<path d="" fill="#000000" transform="translate(0,0)"/>
<path d="" fill="#000000" transform="translate(0,0)"/>
<path d="" fill="#000000" transform="translate(0,0)"/>
<path d="" fill="#000000" transform="translate(0,0)"/>
<path d="" fill="#000000" transform="translate(0,0)"/>
<path d="" fill="#000000" transform="translate(0,0)"/>
<path d="" fill="#000000" transform="translate(0,0)"/>
<path d="" fill="#000000" transform="translate(0,0)"/>
<path d="" fill="#000000" transform="translate(0,0)"/>
<path d="" fill="#000000" transform="translate(0,0)"/>
<path d="" fill="#000000" transform="translate(0,0)"/>
<path d="" fill="#000000" transform="translate(0,0)"/>
<path d="" fill="#000000" transform="translate(0,0)"/>
<path d="" fill="#000000" transform="translate(0,0)"/>
<path d="" fill="#000000" transform="translate(0,0)"/>
<path d="" fill="#000000" transform="translate(0,0)"/>
<path d="" fill="#000000" transform="translate(0,0)"/>
<path d="" fill="#000000" transform="translate(0,0)"/>
<path d="" fill="#000000" transform="translate(0,0)"/>
<path d="" fill="#000000" transform="translate(0,0)"/>
<path d="" fill="#000000" transform="translate(0,0)"/>
<path d="" fill="#000000" transform="translate(0,0)"/>
<path d="" fill="#000000" transform="translate(0,0)"/>
<path d="" fill="#000000" transform="translate(0,0)"/>
<path d="" fill="#000000" transform="translate(0,0)"/>
<path d="" fill="#000000" transform="translate(0,0)"/>
<path d="" fill="#000000" transform="translate(0,0)"/>
<path d="" fill="#000000" transform="translate(0,0)"/>
<path d="" fill="#000000" transform="translate(0,0)"/>
<path d="" fill="#000000" transform="translate(0,0)"/>
<path d="" fill="#000000" transform="translate(0,0)"/>
<path d="" fill="#000000" transform="translate(0,0)"/>
<path d="" fill="#000000" transform="translate(0,0)"/>
<path d="" fill="#000000" transform="translate(0,0)"/>
<path d="" fill="#000000" transform="translate(0,0)"/>
<path d="" fill="#000000" transform="translate(0,0)"/>
<path d="" fill="#000000" transform="translate(0,0)"/>
<path d="" fill="#000000" transform="translate(0,0)"/>
<path d="" fill="#000000" transform="translate(0,0)"/>
<path d="" fill="#000000" transform="translate(0,0)"/>
<path d="" fill="#000000" transform="translate(0,0)"/>
<path d="" fill="#000000" transform="translate(0,0)"/>
<path d="" fill="#000000" transform="translate(0,0)"/>
<path d="" fill="#000000" transform="translate(0,0)"/>
<path d="" fill="#000000" transform="translate(0,0)"/>
<path d="" fill="#000000" transform="translate(0,0)"/>
<path d="" fill="#000000" transform="translate(0,0)"/>
<path d="" fill="#000000" transform="translate(0,0)"/>
<path d="" fill="#000000" transform="translate(0,0)"/>
<path d="" fill="#000000" transform="translate(0,0)"/>
<path d="" fill="#000000" transform="translate(0,0)"/>
<path d="" fill="#010000" transform="translate(0,0)"/>
<path d="" fill="#000000" transform="translate(0,0)"/>
<path d="" fill="#000000" transform="translate(0,0)"/>
<path d="" fill="#000000" transform="translate(0,0)"/>
<path d="" fill="#000000" transform="translate(0,0)"/>
<path d="" fill="#000000" transform="translate(0,0)"/>
<path d="" fill="#000000" transform="translate(0,0)"/>
<path d="" fill="#000000" transform="translate(0,0)"/>
<path d="" fill="#000000" transform="translate(0,0)"/>
<path d="" fill="#000000" transform="translate(0,0)"/>
<path d="" fill="#000000" transform="translate(0,0)"/>
<path d="" fill="#000000" transform="translate(0,0)"/>
<path d="" fill="#000000" transform="translate(0,0)"/>
<path d="" fill="#000000" transform="translate(0,0)"/>
<path d="" fill="#000000" transform="translate(0,0)"/>
<path d="" fill="#000000" transform="translate(0,0)"/>
<path d="" fill="#000000" transform="translate(0,0)"/>
<path d="" fill="#000000" transform="translate(0,0)"/>
<path d="" fill="#000000" transform="translate(0,0)"/>
<path d="" fill="#000000" transform="translate(0,0)"/>
<path d="" fill="#000000" transform="translate(0,0)"/>
<path d="" fill="#000000" transform="translate(0,0)"/>
<path d="" fill="#000000" transform="translate(0,0)"/>
<path d="" fill="#000000" transform="translate(0,0)"/>
<path d="" fill="#000000" transform="translate(0,0)"/>
<path d="" fill="#000000" transform="translate(0,0)"/>
<path d="" fill="#000000" transform="translate(0,0)"/>
<path d="" fill="#000000" transform="translate(0,0)"/>
<path d="" fill="#000000" transform="translate(0,0)"/>
<path d="" fill="#000000" transform="translate(0,0)"/>
<path d="" fill="#000000" transform="translate(0,0)"/>
<path d="" fill="#000000" transform="translate(0,0)"/>
<path d="" fill="#000000" transform="translate(0,0)"/>
<path d="" fill="#000000" transform="translate(0,0)"/>
<path d="" fill="#000000" transform="translate(0,0)"/>
<path d="" fill="#000000" transform="translate(0,0)"/>
<path d="" fill="#000000" transform="translate(0,0)"/>
<path d="" fill="#000000" transform="translate(0,0)"/>
<path d="" fill="#000000" transform="translate(0,0)"/>
<path d="" fill="#000000" transform="translate(0,0)"/>
<path d="" fill="#000000" transform="translate(0,0)"/>
<path d="" fill="#000000" transform="translate(0,0)"/>
<path d="" fill="#000000" transform="translate(0,0)"/>
<path d="" fill="#000000" transform="translate(0,0)"/>
<path d="" fill="#000000" transform="translate(0,0)"/>
<path d="" fill="#000000" transform="translate(0,0)"/>
<path d="" fill="#000000" transform="translate(0,0)"/>
<path d="" fill="#000000" transform="translate(0,0)"/>
<path d="" fill="#000000" transform="translate(0,0)"/>
<path d="" fill="#000000" transform="translate(0,0)"/>
<path d="" fill="#000000" transform="translate(0,0)"/>
<path d="" fill="#000000" transform="translate(0,0)"/>
<path d="" fill="#000000" transform="translate(0,0)"/>
<path d="" fill="#000000" transform="translate(0,0)"/>
<path d="" fill="#000000" transform="translate(0,0)"/>
<path d="" fill="#000000" transform="translate(0,0)"/>
<path d="" fill="#000000" transform="translate(0,0)"/>
<path d="" fill="#000000" transform="translate(0,0)"/>
<path d="" fill="#000000" transform="translate(0,0)"/>
<path d="" fill="#000000" transform="translate(0,0)"/>
<path d="" fill="#000000" transform="translate(0,0)"/>
<path d="" fill="#000000" transform="translate(0,0)"/>
<path d="" fill="#000000" transform="translate(0,0)"/>
<path d="" fill="#000000" transform="translate(0,0)"/>
<path d="" fill="#000000" transform="translate(0,0)"/>
<path d="" fill="#000000" transform="translate(0,0)"/>
<path d="" fill="#000000" transform="translate(0,0)"/>
<path d="" fill="#000000" transform="translate(0,0)"/>
<path d="" fill="#000000" transform="translate(0,0)"/>
<path d="" fill="#000000" transform="translate(0,0)"/>
<path d="" fill="#000000" transform="translate(0,0)"/>
<path d="" fill="#000000" transform="translate(0,0)"/>
<path d="" fill="#000000" transform="translate(0,0)"/>
<path d="" fill="#000000" transform="translate(0,0)"/>
<path d="" fill="#000000" transform="translate(0,0)"/>
<path d="" fill="#000000" transform="translate(0,0)"/>
<path d="" fill="#070000" transform="translate(0,0)"/>
<path d="" fill="#000000" transform="translate(0,0)"/>
<path d="" fill="#000000" transform="translate(0,0)"/>
<path d="" fill="#000000" transform="translate(0,0)"/>
<path d="" fill="#000000" transform="translate(0,0)"/>
<path d="" fill="#000000" transform="translate(0,0)"/>
<path d="" fill="#000000" transform="translate(0,0)"/>
<path d="" fill="#000000" transform="translate(0,0)"/>
<path d="" fill="#000000" transform="translate(0,0)"/>
<path d="" fill="#000000" transform="translate(0,0)"/>
<path d="" fill="#000000" transform="translate(0,0)"/>
<path d="" fill="#000000" transform="translate(0,0)"/>
<path d="" fill="#000000" transform="translate(0,0)"/>
<path d="" fill="#000000" transform="translate(0,0)"/>
<path d="" fill="#000000" transform="translate(0,0)"/>
<path d="" fill="#000000" transform="translate(0,0)"/>
<path d="" fill="#000000" transform="translate(0,0)"/>
<path d="" fill="#000000" transform="translate(0,0)"/>
<path d="" fill="#000000" transform="translate(0,0)"/>
<path d="" fill="#000000" transform="translate(0,0)"/>
<path d="" fill="#000000" transform="translate(0,0)"/>
<path d="" fill="#000000" transform="translate(0,0)"/>
<path d="" fill="#000000" transform="translate(0,0)"/>
<path d="" fill="#000000" transform="translate(0,0)"/>
<path d="" fill="#000000" transform="translate(0,0)"/>
<path d="" fill="#000000" transform="translate(0,0)"/>
<path d="" fill="#000000" transform="translate(0,0)"/>
<path d="" fill="#000000" transform="translate(0,0)"/>
<path d="" fill="#000000" transform="translate(0,0)"/>
<path d="" fill="#000000" transform="translate(0,0)"/>
<path d="" fill="#000000" transform="translate(0,0)"/>
<path d="" fill="#000000" transform="translate(0,0)"/>
<path d="" fill="#000000" transform="translate(0,0)"/>
<path d="" fill="#000000" transform="translate(0,0)"/>
<path d="" fill="#000000" transform="translate(0,0)"/>
<path d="" fill="#000000" transform="translate(0,0)"/>
<path d="" fill="#000000" transform="translate(0,0)"/>
<path d="" fill="#000000" transform="translate(0,0)"/>
<path d="" fill="#000000" transform="translate(0,0)"/>
<path d="" fill="#000000" transform="translate(0,0)"/>
<path d="" fill="#000000" transform="translate(0,0)"/>
<path d="" fill="#000000" transform="translate(0,0)"/>
<path d="" fill="#000000" transform="translate(0,0)"/>
<path d="" fill="#000000" transform="translate(0,0)"/>
<path d="" fill="#000000" transform="translate(0,0)"/>
<path d="" fill="#000000" transform="translate(0,0)"/>
<path d="" fill="#000000" transform="translate(0,0)"/>
<path d="" fill="#000000" transform="translate(0,0)"/>
<path d="" fill="#000000" transform="translate(0,0)"/>
<path d="" fill="#000000" transform="translate(0,0)"/>
<path d="" fill="#000000" transform="translate(0,0)"/>
<path d="" fill="#000000" transform="translate(0,0)"/>
<path d="" fill="#000000" transform="translate(0,0)"/>
<path d="" fill="#000000" transform="translate(0,0)"/>
<path d="" fill="#000000" transform="translate(0,0)"/>
<path d="" fill="#000000" transform="translate(0,0)"/>
<path d="" fill="#000000" transform="translate(0,0)"/>
<path d="" fill="#000000" transform="translate(0,0)"/>
<path d="" fill="#000000" transform="translate(0,0)"/>
<path d="" fill="#000000" transform="translate(0,0)"/>
<path d="" fill="#000000" transform="translate(0,0)"/>
<path d="" fill="#000000" transform="translate(0,0)"/>
<path d="" fill="#000000" transform="translate(0,0)"/>
<path d="" fill="#000000" transform="translate(0,0)"/>
<path d="" fill="#000000" transform="translate(0,0)"/>
<path d="" fill="#000000" transform="translate(0,0)"/>
<path d="" fill="#000000" transform="translate(0,0)"/>
<path d="" fill="#000000" transform="translate(0,0)"/>
<path d="" fill="#000000" transform="translate(0,0)"/>
<path d="" fill="#000000" transform="translate(0,0)"/>
<path d="" fill="#000000" transform="translate(0,0)"/>
<path d="" fill="#000000" transform="translate(0,0)"/>
<path d="" fill="#000000" transform="translate(0,0)"/>
<path d="" fill="#000000" transform="translate(0,0)"/>
<path d="" fill="#000000" transform="translate(0,0)"/>
<path d="" fill="#000000" transform="translate(0,0)"/>
<path d="" fill="#000000" transform="translate(0,0)"/>
<path d="" fill="#000000" transform="translate(0,0)"/>
<path d="" fill="#000000" transform="translate(0,0)"/>
<path d="" fill="#000000" transform="translate(0,0)"/>
<path d="" fill="#000000" transform="translate(0,0)"/>
<path d="" fill="#000000" transform="translate(0,0)"/>
<path d="" fill="#000000" transform="translate(0,0)"/>
<path d="" fill="#000000" transform="translate(0,0)"/>
<path d="" fill="#000000" transform="translate(0,0)"/>
<path d="" fill="#000000" transform="translate(0,0)"/>
<path d="" fill="#120000" transform="translate(0,0)"/>
<path d="" fill="#000000" transform="translate(0,0)"/>
<path d="" fill="#000000" transform="translate(0,0)"/>
<path d="" fill="#000000" transform="translate(0,0)"/>
<path d="" fill="#000000" transform="translate(0,0)"/>
<path d="" fill="#000000" transform="translate(0,0)"/>
<path d="" fill="#000000" transform="translate(0,0)"/>
<path d="" fill="#000000" transform="translate(0,0)"/>
<path d="" fill="#000000" transform="translate(0,0)"/>
<path d="" fill="#000000" transform="translate(0,0)"/>
<path d="" fill="#000000" transform="translate(0,0)"/>
<path d="" fill="#000000" transform="translate(0,0)"/>
<path d="" fill="#000000" transform="translate(0,0)"/>
<path d="" fill="#000000" transform="translate(0,0)"/>
<path d="" fill="#000000" transform="translate(0,0)"/>
<path d="" fill="#000000" transform="translate(0,0)"/>
<path d="" fill="#000000" transform="translate(0,0)"/>
<path d="" fill="#000000" transform="translate(0,0)"/>
<path d="" fill="#000000" transform="translate(0,0)"/>
<path d="" fill="#070000" transform="translate(0,0)"/>
<path d="" fill="#000000" transform="translate(0,0)"/>
<path d="" fill="#000000" transform="translate(0,0)"/>
<path d="" fill="#000000" transform="translate(0,0)"/>
<path d="" fill="#000000" transform="translate(0,0)"/>
<path d="" fill="#000000" transform="translate(0,0)"/>
<path d="" fill="#000000" transform="translate(0,0)"/>
<path d="" fill="#000000" transform="translate(0,0)"/>
<path d="" fill="#000000" transform="translate(0,0)"/>
<path d="" fill="#000000" transform="translate(0,0)"/>
<path d="" fill="#000000" transform="translate(0,0)"/>
<path d="" fill="#000000" transform="translate(0,0)"/>
<path d="" fill="#000000" transform="translate(0,0)"/>
<path d="" fill="#000000" transform="translate(0,0)"/>
<path d="" fill="#000000" transform="translate(0,0)"/>
<path d="" fill="#000000" transform="translate(0,0)"/>
<path d="" fill="#000000" transform="translate(0,0)"/>
<path d="" fill="#000000" transform="translate(0,0)"/>
<path d="" fill="#000000" transform="translate(0,0)"/>
<path d="" fill="#000000" transform="translate(0,0)"/>
<path d="" fill="#000000" transform="translate(0,0)"/>
<path d="" fill="#030000" transform="translate(0,0)"/>
<path d="" fill="#000000" transform="translate(0,0)"/>
<path d="" fill="#000000" transform="translate(0,0)"/>
<path d="" fill="#040000" transform="translate(0,0)"/>
<path d="" fill="#000000" transform="translate(0,0)"/>
<path d="" fill="#000000" transform="translate(0,0)"/>
<path d="" fill="#000000" transform="translate(0,0)"/>
<path d="" fill="#000000" transform="translate(0,0)"/>
<path d="" fill="#000000" transform="translate(0,0)"/>
<path d="" fill="#000000" transform="translate(0,0)"/>
<path d="" fill="#000000" transform="translate(0,0)"/>
<path d="" fill="#000000" transform="translate(0,0)"/>
<path d="" fill="#000000" transform="translate(0,0)"/>
<path d="" fill="#000000" transform="translate(0,0)"/>
<path d="" fill="#000000" transform="translate(0,0)"/>
<path d="" fill="#000000" transform="translate(0,0)"/>
<path d="" fill="#000000" transform="translate(0,0)"/>
<path d="" fill="#000000" transform="translate(0,0)"/>
<path d="" fill="#000000" transform="translate(0,0)"/>
<path d="" fill="#000000" transform="translate(0,0)"/>
<path d="" fill="#000000" transform="translate(0,0)"/>
<path d="" fill="#000000" transform="translate(0,0)"/>
<path d="" fill="#000000" transform="translate(0,0)"/>
<path d="" fill="#000000" transform="translate(0,0)"/>
<path d="" fill="#000000" transform="translate(0,0)"/>
<path d="" fill="#020000" transform="translate(0,0)"/>
<path d="" fill="#020000" transform="translate(0,0)"/>
<path d="" fill="#020000" transform="translate(0,0)"/>
<path d="" fill="#020000" transform="translate(0,0)"/>
<path d="" fill="#000000" transform="translate(0,0)"/>
<path d="" fill="#000000" transform="translate(0,0)"/>
<path d="" fill="#000000" transform="translate(0,0)"/>
<path d="" fill="#000000" transform="translate(0,0)"/>
<path d="" fill="#000000" transform="translate(0,0)"/>
<path d="" fill="#000000" transform="translate(0,0)"/>
<path d="" fill="#000000" transform="translate(0,0)"/>
<path d="" fill="#000000" transform="translate(0,0)"/>
<path d="" fill="#000000" transform="translate(0,0)"/>
<path d="" fill="#000000" transform="translate(0,0)"/>
<path d="" fill="#000000" transform="translate(0,0)"/>
<path d="" fill="#000000" transform="translate(0,0)"/>
<path d="" fill="#000000" transform="translate(0,0)"/>
<path d="" fill="#000000" transform="translate(0,0)"/>
<path d="" fill="#000000" transform="translate(0,0)"/>
<path d="" fill="#000000" transform="translate(0,0)"/>
<path d="" fill="#000000" transform="translate(0,0)"/>
<path d="" fill="#000000" transform="translate(0,0)"/>
</svg>
