<?xml version="1.0" encoding="UTF-8"?>
<svg version="1.1" xmlns="http://www.w3.org/2000/svg" width="400" height="400">
<path d="M0 0 C0.8340033 -0.00979385 1.66800659 -0.01958771 2.52728271 -0.02967834 C20.69956511 -0.19911171 38.34354055 -0.16210568 56.09375 4.23828125 C57.46781006 4.57569336 57.46781006 4.57569336 58.86962891 4.91992188 C84.56746055 11.41257048 107.83843323 22.99487852 130.09375 37.23828125 C129.44779024 40.47313019 128.27800926 42.8901891 126.58984375 45.71484375 C126.09677734 46.55015625 125.60371094 47.38546875 125.09570312 48.24609375 C124.57943359 49.10976563 124.06316406 49.9734375 123.53125 50.86328125 C122.50518228 52.58229434 121.48284704 54.30354264 120.46484375 56.02734375 C119.7831311 57.16743896 119.7831311 57.16743896 119.08764648 58.33056641 C117.9397359 60.17538485 117.9397359 60.17538485 118.09375 62.23828125 C119.58856057 63.54395252 121.143566 64.7807915 122.71875 65.98828125 C156.74253029 93.31239824 178.6969304 134.06372443 184.09375 177.23828125 C193.00375 177.23828125 201.91375 177.23828125 211.09375 177.23828125 C211.87937214 225.07394053 211.87937214 225.07394053 207.09375 244.23828125 C206.87944336 245.12483398 206.66513672 246.01138672 206.44433594 246.92480469 C199.84783472 273.58926447 188.4390969 299.09008318 171.32275391 320.68310547 C170.21773478 322.08139149 169.14387552 323.50416813 168.07421875 324.9296875 C150.88237085 347.14006299 129.25149062 363.41698222 105.09375 377.23828125 C103.89144888 377.94319542 102.68956895 378.64882893 101.48828125 379.35546875 C96.11918298 382.43365719 96.11918298 382.43365719 94.09375 383.23828125 C90.34591815 381.98900397 90.05957803 380.92960686 88.17578125 377.546875 C87.64404297 376.60263672 87.11230469 375.65839844 86.56445312 374.68554688 C86.01724609 373.69232422 85.47003906 372.69910156 84.90625 371.67578125 C84.34744141 370.67869141 83.78863281 369.68160156 83.21289062 368.65429688 C81.83154595 366.18676664 80.45896151 363.71476291 79.09375 361.23828125 C77.6327396 361.67553775 76.17182221 362.11310502 74.7109375 362.55078125 C73.7940918 362.82535156 72.87724609 363.09992188 71.93261719 363.3828125 C69.36068181 364.15784359 66.79357386 364.94714363 64.2265625 365.73828125 C25.2204012 377.57030515 -18.28781948 377.07415254 -55.90625 360.23828125 C-56.13054687 360.87121094 -56.35484375 361.50414062 -56.5859375 362.15625 C-58.43041277 366.46184465 -60.73340302 370.47322926 -63.03125 374.55078125 C-63.49917969 375.38673828 -63.96710938 376.22269531 -64.44921875 377.08398438 C-65.5988759 379.13694358 -66.75128802 381.18830327 -67.90625 383.23828125 C-99.71684821 374.09080713 -129.72888992 345.28659412 -148.90625 319.23828125 C-149.67582031 318.201875 -150.44539063 317.16546875 -151.23828125 316.09765625 C-173.48900778 285.07913029 -188.24340527 246.05422533 -188.00390625 207.609375 C-188.00178383 206.2967141 -188.00178383 206.2967141 -187.99961853 204.95753479 C-187.99407719 202.19691363 -187.98153612 199.43637737 -187.96875 196.67578125 C-187.9637274 194.78971472 -187.95916583 192.90364691 -187.95507812 191.01757812 C-187.94498327 186.42442114 -187.92539705 181.83144482 -187.90625 177.23828125 C-178.66625 177.23828125 -169.42625 177.23828125 -159.90625 177.23828125 C-159.90625 174.92828125 -159.90625 172.61828125 -159.90625 170.23828125 C-153.98045618 127.59870892 -128.03214983 88.65513807 -94.90625 62.23828125 C-96.4286867 56.74350971 -99.08168321 52.3050808 -102.03125 47.48828125 C-102.95445031 45.97504657 -103.87392062 44.4595279 -104.7890625 42.94140625 C-105.39838623 41.94608887 -105.39838623 41.94608887 -106.02001953 40.93066406 C-106.90625 39.23828125 -106.90625 39.23828125 -106.90625 37.23828125 C-105.25170898 35.99243164 -105.25170898 35.99243164 -102.90234375 34.5859375 C-102.02827881 34.06209473 -101.15421387 33.53825195 -100.25366211 32.99853516 C-99.29339111 32.43827637 -98.33312012 31.87801758 -97.34375 31.30078125 C-96.3544751 30.72247559 -95.3652002 30.14416992 -94.34594727 29.54833984 C-65.60048201 12.99606579 -33.62239655 0.32692665 0 0 Z " fill="#081319" transform="translate(188.90625,8.76171875)"/>
<path d="M0 0 C1.34264671 0.00401825 1.34264671 0.00401825 2.7124176 0.00811768 C3.39182907 0.01156189 4.07124054 0.0150061 4.77124023 0.01855469 C4.81794657 10.13836635 4.85330134 20.25815163 4.87486458 30.37804985 C4.88522308 35.07905813 4.89923387 39.77999172 4.92211914 44.48095703 C4.94413486 49.03271322 4.95586818 53.58439837 4.96099472 58.13620377 C4.9646397 59.8573938 4.97175406 61.57858075 4.98270035 63.29973984 C5.07302129 78.1148563 4.34944468 92.92434266 0.89624023 107.39355469 C0.74799805 108.0703125 0.59975586 108.74707031 0.44702148 109.44433594 C-5.8349674 136.87058008 -19.00325789 162.93203075 -36.22875977 185.01855469 C-36.92098633 185.93507812 -37.61321289 186.85160156 -38.32641602 187.79589844 C-58.86840716 214.11656146 -85.75378948 230.71651835 -114.28735352 247.03027344 C-118.45436375 249.4148974 -122.60614434 251.82121543 -126.73901367 254.26448059 C-129.1346022 255.6805349 -131.5344017 257.08936951 -133.93438721 258.49795532 C-135.64057425 259.50341811 -137.34072968 260.51909347 -139.04077148 261.53491211 C-140.58595459 262.43947144 -140.58595459 262.43947144 -142.16235352 263.36230469 C-143.07041748 263.90048828 -143.97848145 264.43867188 -144.9140625 264.99316406 C-147.22875977 266.01855469 -147.22875977 266.01855469 -150.22875977 265.01855469 C-151.51168932 262.54497126 -152.61468198 260.15087139 -153.66625977 257.58105469 C-153.974104 256.84822266 -154.28194824 256.11539062 -154.59912109 255.36035156 C-155.21018438 253.90088447 -155.81665756 252.43948589 -156.41821289 250.97607422 C-157.0679411 249.40694144 -157.74543786 247.84931888 -158.43188477 246.29589844 C-161.66620162 238.81333206 -163.47838449 230.95138755 -165.22875977 223.01855469 C-165.50816406 221.78782227 -165.50816406 221.78782227 -165.79321289 220.53222656 C-169.06657989 205.80762315 -169.58383483 192.10924495 -169.22875977 177.01855469 C-160.64875977 177.01855469 -152.06875977 177.01855469 -143.22875977 177.01855469 C-143.10500977 173.67730469 -143.10500977 173.67730469 -142.97875977 170.26855469 C-140.81359825 130.55033222 -120.92701984 92.19159026 -91.60375977 65.58105469 C-87.4734018 62.09926533 -83.15540872 58.84698065 -78.85375977 55.58105469 C-77.78134033 54.76326538 -77.78134033 54.76326538 -76.68725586 53.92895508 C-76.01259277 53.42356201 -75.33792969 52.91816895 -74.64282227 52.39746094 C-74.03390137 51.93927979 -73.42498047 51.48109863 -72.79760742 51.0090332 C-71.22875977 50.01855469 -71.22875977 50.01855469 -69.22875977 50.01855469 C-69.62256836 49.36258301 -70.01637695 48.70661133 -70.42211914 48.03076172 C-72.19553349 45.0710486 -73.96221973 42.10737549 -75.72875977 39.14355469 C-76.65881836 37.59474609 -76.65881836 37.59474609 -77.60766602 36.01464844 C-78.19418945 35.02851562 -78.78071289 34.04238281 -79.38500977 33.02636719 C-80.20195312 31.65955811 -80.20195312 31.65955811 -81.03540039 30.26513672 C-82.22875977 28.01855469 -82.22875977 28.01855469 -82.22875977 26.01855469 C-57.05495558 12.09588548 -29.36457226 -0.11419472 0 0 Z " fill="#C4FD00" transform="translate(187.228759765625,25.9814453125)"/>
<path d="M0 0 C2.09163705 0.46109247 4.18803841 0.8437785 6.296875 1.21777344 C31.36269391 5.90208618 54.56973659 17.5526291 76.25 30.60058594 C83.32195097 34.8499329 90.50425787 38.91250205 97.66845703 43.00366211 C104.5745536 46.96839081 111.33667376 51.10775388 118.015625 55.44433594 C113.65537074 66.99262442 103.44057617 76.60424224 95.015625 85.44433594 C94.24992187 86.27449219 93.48421875 87.10464844 92.6953125 87.95996094 C81.38849098 99.84170559 67.52803306 109.82384487 53.015625 117.44433594 C52.355625 117.44433594 51.695625 117.44433594 51.015625 117.44433594 C47.055625 110.51433594 43.095625 103.58433594 39.015625 96.44433594 C34.59288619 97.91858221 30.37806835 99.48736957 26.078125 101.25683594 C-12.91056074 116.88873034 -55.76630266 119.11225895 -94.984375 102.44433594 C-100.04259978 100.22915482 -105.02992513 97.88189643 -109.984375 95.44433594 C-110.22285156 96.09917969 -110.46132812 96.75402344 -110.70703125 97.42871094 C-112.36163762 101.33499876 -114.36010506 104.99047782 -116.421875 108.69433594 C-116.81697266 109.42652344 -117.21207031 110.15871094 -117.61914062 110.91308594 C-118.20018555 111.95722656 -118.20018555 111.95722656 -118.79296875 113.02246094 C-119.14157959 113.65571289 -119.49019043 114.28896484 -119.84936523 114.94140625 C-120.984375 116.44433594 -120.984375 116.44433594 -123.984375 117.44433594 C-149.68049665 105.16166777 -172.31190758 81.77954112 -187.984375 58.44433594 C-188.479375 56.95933594 -188.479375 56.95933594 -188.984375 55.44433594 C-176.51400306 47.85099065 -163.86744533 40.56850212 -151.20556641 33.30029297 C-148.23304668 31.58761335 -145.26930669 29.86091477 -142.30859375 28.12792969 C-124.48288502 17.73096017 -106.77679066 9.39635588 -86.984375 3.44433594 C-85.91058594 3.11691406 -84.83679688 2.78949219 -83.73046875 2.45214844 C-80.82794833 1.65116841 -77.93989598 1.02093451 -74.984375 0.44433594 C-74.34387207 0.31043457 -73.70336914 0.1765332 -73.04345703 0.03857422 C-50.05753075 -4.60457244 -22.94954132 -5.17031817 0 0 Z " fill="#C4FC00" transform="translate(235.984375,251.5556640625)"/>
<path d="M0 0 C2.66700376 0.1356232 5.33348836 0.27712468 8 0.421875 C8.74378906 0.45909668 9.48757812 0.49631836 10.25390625 0.53466797 C23.9757739 1.29533672 36.96853712 4.83491338 50 9 C50.91652344 9.28359375 51.83304687 9.5671875 52.77734375 9.859375 C64.44750136 13.7678638 76.61642544 19.3744974 87 26 C85.45196735 31.76315769 82.51721614 36.37456974 79.375 41.375 C78.859375 42.20644531 78.34375 43.03789063 77.8125 43.89453125 C76.54713205 45.93317962 75.27621134 47.96812882 74 50 C74.70125 50.23976562 75.4025 50.47953125 76.125 50.7265625 C104.77603113 63.41710074 127.44119475 98.34545755 138.3125 126.4375 C144.55870862 143.17279642 148 160.09769758 148 178 C156.58 178 165.16 178 174 178 C174.57272594 209.49992696 168.19958436 237.32776455 155 266 C150.65442285 265.05409286 147.08926951 262.98591841 143.25 260.8125 C142.46850586 260.37397705 141.68701172 259.9354541 140.88183594 259.48364258 C131.20679263 254.02894588 121.62491166 248.41312484 112.05029297 242.78466797 C109.05318407 241.03111698 106.04577887 239.29663199 103.03515625 237.56640625 C92.7705312 231.6390443 83.08902385 225.62912883 74 218 C73.1347168 217.28263672 73.1347168 217.28263672 72.25195312 216.55078125 C61.04675231 207.24699658 50.96689232 197.52886155 42 186 C41.56929199 185.45102051 41.13858398 184.90204102 40.69482422 184.33642578 C12.99515347 148.79101045 -0.48198339 104.92241819 -0.1953125 60.15625 C-0.1915703 58.40791996 -0.18872906 56.65958779 -0.18673706 54.91125488 C-0.17919545 50.36743105 -0.15963155 45.82374041 -0.1373291 41.27996826 C-0.11666338 36.62025757 -0.10769158 31.96052481 -0.09765625 27.30078125 C-0.07637411 18.20046315 -0.04235664 9.10024276 0 0 Z " fill="#C4FD00" transform="translate(209,26)"/>
<path d="M0 0 C23.86984042 8.234 41.58023426 36.6100797 52.02392578 57.97363281 C59.63331158 73.77100703 63.09916264 91.50431719 63 109 C55.64510266 109.09333035 48.29033628 109.16408039 40.93496323 109.20724869 C37.51827593 109.22798401 34.10199842 109.25603762 30.68554688 109.30175781 C26.74354223 109.35417147 22.80169431 109.37306136 18.859375 109.390625 C17.04925934 109.42159271 17.04925934 109.42159271 15.20257568 109.45318604 C2.12846829 109.45659034 -8.21965975 105.73134476 -18 97 C-20.62171471 94.16386996 -22.86727085 91.21657511 -25 88 C-25.40992188 87.3915625 -25.81984375 86.783125 -26.2421875 86.15625 C-30.37187497 79.52463508 -31.37323605 72.3902692 -31.4375 64.75 C-31.47037109 64.07582031 -31.50324219 63.40164062 -31.53710938 62.70703125 C-31.65468032 51.2278317 -24.45391722 40.85327972 -18.8125 31.3125 C-18.15556152 30.18851807 -17.49862305 29.06453613 -16.82177734 27.90649414 C-15.50478724 25.65544224 -14.18454684 23.40628836 -12.86083984 21.15917969 C-11.17702717 18.30054206 -9.5023066 15.43687342 -7.83203125 12.5703125 C-6.9301087 11.02579563 -6.02779766 9.48150552 -5.125 7.9375 C-4.71483643 7.2360083 -4.30467285 6.5345166 -3.88208008 5.81176758 C-1.11895479 1.11895479 -1.11895479 1.11895479 0 0 Z " fill="#081319" transform="translate(272,95)"/>
<path d="M0 0 C0.48073975 0.85658203 0.48073975 0.85658203 0.97119141 1.73046875 C2.52044959 4.48811544 4.0723616 7.244255 5.625 10 C6.20169434 11.02424072 6.77838867 12.04848145 7.37255859 13.10375977 C10.49318671 18.62761575 13.64861995 24.12699572 16.875 29.58984375 C17.81545166 31.1840918 17.81545166 31.1840918 18.77490234 32.81054688 C19.98326863 34.85287406 21.19691252 36.89209043 22.41650391 38.92773438 C27.34846553 47.26819455 30.57099147 53.96168486 30.4375 63.75 C30.42992676 64.5349585 30.42235352 65.31991699 30.41455078 66.12866211 C30.05400334 78.97283565 25.05342729 89.40511245 15.8125 98.25 C11.02663073 102.30144414 5.87137566 104.86645786 0 107 C-0.94093506 107.34675781 -1.88187012 107.69351563 -2.85131836 108.05078125 C-8.49247675 109.6328716 -14.34419858 109.24483439 -20.15234375 109.1953125 C-21.40761368 109.1924826 -22.66288361 109.18965271 -23.95619202 109.18673706 C-27.27214347 109.17747127 -30.58781301 109.15954299 -33.90368652 109.1373291 C-37.29579245 109.11676595 -40.68792766 109.10771309 -44.08007812 109.09765625 C-50.72012917 109.07565124 -57.36004833 109.04221495 -64 109 C-64.01905108 107.26924928 -64.0325183 105.53843663 -64.04370117 103.80761719 C-64.0518132 102.84378113 -64.05992523 101.87994507 -64.06828308 100.88690186 C-63.96601545 96.56318633 -63.21457171 92.46925848 -62.3125 88.25 C-62.13170898 87.38729492 -61.95091797 86.52458984 -61.76464844 85.63574219 C-54.32011889 51.40612505 -33.7154964 21.34500883 -5.09375 1.1796875 C-3 0 -3 0 0 0 Z " fill="#091319" transform="translate(130,95)"/>
<path d="M0 0 C8.49096923 5.86117511 13.37174252 13.40279806 18.3125 22.3125 C19.28868844 24.04425339 20.26488529 25.77600225 21.24197388 27.50724792 C21.90106839 28.67706896 22.55851955 29.84781739 23.21432495 31.01948547 C25.36454911 34.85961214 27.56519537 38.66604452 29.80078125 42.45703125 C30.36321533 43.41657715 30.92564941 44.37612305 31.50512695 45.36474609 C32.56596606 47.17240953 33.63328166 48.97629142 34.70776367 50.77587891 C35.17545166 51.5807373 35.64313965 52.3855957 36.125 53.21484375 C36.5375 53.91343506 36.95 54.61202637 37.375 55.33178711 C38.125 57.1875 38.125 57.1875 37.125 60.1875 C33.19536768 62.26301003 29.05063161 63.84231597 24.92041016 65.47509766 C23.41233591 66.07348773 21.913889 66.69606176 20.41796875 67.32421875 C-9.31975693 79.17247796 -45.39726127 76.79307126 -74.875 65.1875 C-78.9902266 63.40517977 -82.9668982 61.38726988 -86.875 59.1875 C-85.57528749 55.77268037 -84.09239533 52.61986866 -82.29296875 49.44140625 C-81.77943848 48.53197266 -81.2659082 47.62253906 -80.73681641 46.68554688 C-80.18429199 45.71681641 -79.63176758 44.74808594 -79.0625 43.75 C-78.48935059 42.74388672 -77.91620117 41.73777344 -77.32568359 40.70117188 C-76.12057366 38.59132573 -74.91317335 36.48278635 -73.70361328 34.37548828 C-72.50004821 32.27720354 -71.30039439 30.17666967 -70.10498047 28.07373047 C-68.41511942 25.10469552 -66.70985631 22.14505526 -65 19.1875 C-64.48977295 18.28717041 -63.9795459 17.38684082 -63.45385742 16.45922852 C-57.9586982 7.04568905 -51.4930871 1.24965111 -41.875 -3.8125 C-41.26269531 -4.15539062 -40.65039062 -4.49828125 -40.01953125 -4.8515625 C-27.84129895 -10.60463471 -10.82663334 -6.81000714 0 0 Z " fill="#08131A" transform="translate(224.875,268.8125)"/>
<path d="M0 0 C0.33 0 0.66 0 1 0 C1.495 6.435 1.495 6.435 2 13 C-17.14 13 -36.28 13 -56 13 C-56 12.34 -56 11.68 -56 11 C-56.99 10.67 -57.98 10.34 -59 10 C-29.795 10.495 -29.795 10.495 0 11 C0 7.37 0 3.74 0 0 Z " fill="#243212" transform="translate(333,191)"/>
<path d="M0 0 C4.92230554 4.11866382 9.51181372 8.41586675 14 13 C14.97793424 13.98039755 15.95695326 14.95971536 16.9375 15.9375 C17.618125 16.618125 18.29875 17.29875 19 18 C13.61621151 16.51765671 10.46710227 12.87691437 6.6875 9 C6.04232422 8.35804688 5.39714844 7.71609375 4.73242188 7.0546875 C0 2.26717923 0 2.26717923 0 0 Z " fill="#05081C" transform="translate(259,222)"/>
<path d="M0 0 C4.46527093 1.59473962 6.85507843 5.06903334 9.75 8.625 C10.25660156 9.23601562 10.76320313 9.84703125 11.28515625 10.4765625 C12.5296029 11.97929053 13.76564128 13.48897467 15 15 C12 15 12 15 9.3359375 12.48046875 C8.34046653 11.39050789 7.35379133 10.29246365 6.375 9.1875 C5.87226563 8.64029297 5.36953125 8.09308594 4.8515625 7.52929688 C2.61093566 5.04473082 1.06882192 3.20646577 0 0 Z " fill="#CFEA00" transform="translate(311,99)"/>
<path d="M0 0 C0.66 0.33 1.32 0.66 2 1 C-3.0940919 7.70459519 -3.0940919 7.70459519 -6.875 8.9375 C-7.57625 8.958125 -8.2775 8.97875 -9 9 C-6 6 -3 3 0 0 Z " fill="#D3F200" transform="translate(151,187)"/>
<path d="M0 0 C3.23861303 1.44424635 5.61969163 3.25772247 8.25 5.625 C8.95640625 6.25664063 9.6628125 6.88828125 10.390625 7.5390625 C10.92171875 8.02117187 11.4528125 8.50328125 12 9 C11.34 9.66 10.68 10.32 10 11 C8.33035479 9.35718838 6.6643536 7.71067239 5 6.0625 C4.071875 5.14597656 3.14375 4.22945313 2.1875 3.28515625 C0 1 0 1 0 0 Z " fill="#D5EC00" transform="translate(287,104)"/>
<path d="M0 0 C0.66 0.33 1.32 0.66 2 1 C-1.32307692 5.8 -1.32307692 5.8 -4.75 6.8125 C-5.4925 6.874375 -6.235 6.93625 -7 7 C-2.25 1.125 -2.25 1.125 0 0 Z " fill="#C5E100" transform="translate(94,94)"/>
<path d="M0 0 C4.41889613 1.35021826 6.34345343 3.26115668 9 7 C6 7 6 7 4.39453125 5.46875 C3.87246094 4.8190625 3.35039062 4.169375 2.8125 3.5 C2.28269531 2.8503125 1.75289063 2.200625 1.20703125 1.53125 C0.80871094 1.0259375 0.41039062 0.520625 0 0 Z " fill="#CFEA00" transform="translate(301,90)"/>
<path d="M0 0 C0.66 0 1.32 0 2 0 C1.67 2.64 1.34 5.28 1 8 C0.34 8 -0.32 8 -1 8 C-0.67 5.36 -0.34 2.72 0 0 Z " fill="#B6D500" transform="translate(48,171)"/>
</svg>
