<?xml version="1.0" standalone="no"?>
<!DOCTYPE svg PUBLIC "-//W3C//DTD SVG 20010904//EN"
 "http://www.w3.org/TR/2001/REC-SVG-20010904/DTD/svg10.dtd">
<svg version="1.0" xmlns="http://www.w3.org/2000/svg"
 width="400.000000pt" height="400.000000pt" viewBox="0 0 400.000000 400.000000"
 preserveAspectRatio="xMidYMid meet">

<g transform="translate(0.000000,400.000000) scale(0.100000,-0.100000)"
fill="#000000" stroke="none">
<path d="M81 2423 c-1 -27 -19 -238 -39 -470 l-38 -423 138 0 c76 0 138 3 138
8 2 52 50 545 54 549 3 3 135 -121 293 -276 l288 -281 190 0 191 0 37 443 c21
243 40 454 43 470 l6 27 -140 0 -139 0 -11 -122 c-6 -68 -19 -214 -29 -325 -9
-112 -19 -203 -22 -203 -3 0 -157 146 -341 325 l-335 325 -141 0 -140 0 -3
-47z"/>
<path d="M1520 2449 c0 -26 -67 -801 -75 -871 l-6 -48 139 0 138 0 28 328 c15
180 30 339 32 355 l6 27 287 0 c285 0 288 0 308 -22 11 -13 23 -31 26 -41 9
-26 -16 -80 -48 -105 -26 -21 -39 -22 -189 -22 l-161 0 -75 -107 c-41 -59 -76
-110 -78 -113 -1 -3 52 -4 117 -2 l119 3 138 -150 139 -151 159 0 160 0 -30
33 c-241 262 -247 269 -233 278 8 5 20 9 27 9 7 0 35 11 63 25 109 56 180 164
187 287 8 125 -47 222 -156 275 l-57 28 -482 3 -483 3 0 -22z"/>
<path d="M3055 2456 c-59 -18 -83 -33 -138 -85 -90 -84 -106 -136 -128 -426
-16 -204 -5 -250 74 -329 87 -86 84 -86 618 -86 253 0 459 2 459 4 0 3 11 129
25 282 14 152 25 279 25 281 0 1 -91 3 -203 3 l-202 0 -67 -95 -67 -95 123 0
124 0 -5 -67 c-2 -38 -6 -74 -8 -80 -3 -10 -70 -13 -287 -13 -305 0 -318 2
-337 54 -4 11 0 103 9 204 15 164 19 185 40 207 l23 25 360 2 360 3 68 108
c38 59 69 110 69 112 0 3 -201 5 -447 4 -331 0 -458 -4 -488 -13z"/>
</g>
</svg>
