<?xml version="1.0" encoding="UTF-8"?>
<svg version="1.1" xmlns="http://www.w3.org/2000/svg" width="320" height="320">
<path d="M0 0 C9.0094156 -1.71185949 18.87434255 -2.97355982 27.09851074 1.79754639 C34.09652449 7.2349419 40.03072218 13.75598199 45.92810059 20.33843994 C48.35908349 23.02507291 50.85937129 25.64549341 53.35546875 28.27148438 C57.71203943 32.86546912 62.00391435 37.51313748 66.25057983 42.20933533 C67.8872522 44.07998376 67.8872522 44.07998376 70 45 C69.98259766 44.25661377 69.96519531 43.51322754 69.94726562 42.74731445 C69.82819783 33.46782227 70.56862149 24.40439668 71.5 15.1875 C71.64510403 13.70513408 71.7896385 12.2227123 71.93359375 10.74023438 C72.28148707 7.15933243 72.6409445 3.57986877 73 0 C80.26 0 87.52 0 95 0 C95 12.375 95 12.375 94.54101562 17.57299805 C94.44091187 18.73337082 94.34080811 19.89374359 94.2376709 21.08927917 C94.128302 22.30118423 94.01893311 23.51308929 93.90625 24.76171875 C93.73977966 26.66942802 93.73977966 26.66942802 93.56994629 28.61567688 C93.27743335 31.95807422 92.98084728 35.30005661 92.68218994 38.64190674 C92.37708149 42.06760512 92.07746049 45.49378322 91.77734375 48.91992188 C91.1898892 55.61372897 90.59704986 62.3070423 90 69 C63.34517844 72.29027667 63.34517844 72.29027667 55.20703125 66.65917969 C48.0754652 60.99169517 42.24619155 53.90216796 36.48095703 46.89794922 C33.79702964 43.76291497 30.96397195 41.12449771 27.79077148 38.50219727 C25.0143563 36.17318804 22.529307 33.59253967 20 31 C19.91435791 31.9379541 19.82871582 32.8759082 19.74047852 33.84228516 C19.41982111 37.34245239 19.09717055 40.84242425 18.77319336 44.34228516 C18.63372935 45.85327996 18.49504601 47.36434704 18.35717773 48.87548828 C18.15817209 51.05521077 17.95630348 53.23465263 17.75390625 55.4140625 C17.63345947 56.7232666 17.5130127 58.0324707 17.38891602 59.38134766 C17.0427462 62.60226986 16.53256578 65.80460533 16 69 C9.07 69 2.14 69 -5 69 C-5.2401011 56.26689655 -4.42823289 43.76228754 -3.34594727 31.07763672 C-3.05952833 27.71511299 -2.78392778 24.35182445 -2.50976562 20.98828125 C-2.33135312 18.8410939 -2.15233912 16.69395642 -1.97265625 14.546875 C-1.89032242 13.54589783 -1.80798859 12.54492065 -1.72315979 11.51361084 C-1.64315231 10.58453918 -1.56314484 9.65546753 -1.48071289 8.69824219 C-1.41187393 7.88490417 -1.34303497 7.07156616 -1.27210999 6.23358154 C-1.01058373 4.08687526 -0.57365054 2.0828661 0 0 Z " fill="#FA460A" transform="translate(21,125)"/>
<path d="M0 0 C9.37974764 -0.11613031 18.75924574 -0.20483442 28.13955688 -0.25906086 C32.49580376 -0.28509421 36.85155681 -0.32037635 41.20751953 -0.37719727 C45.41562719 -0.43174256 49.62326151 -0.46146759 53.83169556 -0.47438622 C55.43282517 -0.48358595 57.03393047 -0.50155102 58.63485718 -0.52865028 C74.80368319 -0.79132299 74.80368319 -0.79132299 81 5 C85.57065581 9.44712457 87.84605483 15.17505466 88.1015625 21.5234375 C87.61490199 29.05508829 85.37994898 35.10849408 79.75 40.25 C76.10921651 43.14051357 72.2191405 45.07547977 68 47 C68.6290625 47.67804688 69.258125 48.35609375 69.90625 49.0546875 C86 66.55421687 86 66.55421687 86 69 C81.97992472 69.20448678 77.96119536 69.32802689 73.9375 69.4375 C72.2369043 69.52547852 72.2369043 69.52547852 70.50195312 69.61523438 C62.21870796 69.78428019 62.21870796 69.78428019 58.7590332 67.55786133 C56.98606542 65.79808772 55.48374147 64.00661727 54 62 C53.31550781 61.24332031 52.63101563 60.48664063 51.92578125 59.70703125 C51.39339844 59.08183594 50.86101562 58.45664063 50.3125 57.8125 C48.45143682 55.6454512 46.61189039 53.62184192 44.5625 51.625 C43 50 43 50 43 48 C36.73 48 30.46 48 24 48 C28.1015625 40.1875 28.1015625 40.1875 30 37 C30.3700415 36.29657471 30.74008301 35.59314941 31.12133789 34.8684082 C33.2129014 31.41477117 34.66451713 29.33945953 38.68359375 28.31787109 C41.87672917 28.09527271 44.98829901 28.09020766 48.1875 28.1875 C50.34753796 28.21426153 52.50776543 28.22913776 54.66796875 28.23046875 C56.09532349 28.26756958 56.09532349 28.26756958 57.55151367 28.30541992 C60.03815325 28.19438598 60.03815325 28.19438598 61.8215332 26.68481445 C63.5783364 24.17317185 63.19842277 21.97634148 63 19 C58.49436109 17.89809875 54.03092105 17.78198767 49.41796875 17.68359375 C48.60378983 17.66281265 47.7896109 17.64203156 46.95075989 17.62062073 C44.36308821 17.55550537 41.77531947 17.49641792 39.1875 17.4375 C37.42772455 17.39427858 35.66795872 17.35066315 33.90820312 17.30664062 C29.60556691 17.1998632 25.30283357 17.09848982 21 17 C20.95391602 18.12116211 20.90783203 19.24232422 20.86035156 20.39746094 C20.17453216 36.64514597 18.53449623 52.81540767 17 69 C9.41 69 1.82 69 -6 69 C-5.21333505 54.46026167 -3.83090457 39.99257115 -2.4375 25.5 C-2.20093503 23.01955383 -1.96460509 20.53908523 -1.72851562 18.05859375 C-1.15505168 12.0388014 -0.57869273 6.01929183 0 0 Z " fill="#FA460A" transform="translate(124,125)"/>
<path d="M0 0 C1.02500107 -0.00043808 1.02500107 -0.00043808 2.07070923 -0.00088501 C4.32168425 0.00050454 6.57232523 0.01604776 8.82324219 0.03173828 C10.38694071 0.03546975 11.95064157 0.03831609 13.51434326 0.04031372 C17.62433357 0.04793964 21.73418189 0.06757914 25.84411621 0.08972168 C30.04026367 0.11020256 34.23643413 0.11932023 38.43261719 0.12939453 C46.66184892 0.15082606 54.89096537 0.18494939 63.12011719 0.22705078 C61.13740261 6.60285185 58.79990365 12.35006484 54.12011719 17.22705078 C50.10472202 18.74544494 46.38531605 18.63261346 42.13183594 18.48486328 C40.99228958 18.48912323 39.85274323 18.49338318 38.67866516 18.49777222 C35.05263638 18.50053827 31.43276754 18.4281012 27.80761719 18.35205078 C24.166047 18.32901046 20.52464109 18.32097902 16.88301086 18.31344604 C14.62037255 18.30286363 12.35775249 18.27986721 10.09538269 18.24343872 C9.07704849 18.22787933 8.05871429 18.21231995 7.00952148 18.19628906 C6.11130173 18.17865509 5.21308197 18.16102112 4.28764343 18.14285278 C2.07107948 18.07983691 2.07107948 18.07983691 0.12011719 19.22705078 C-1.71831937 26.4366059 -2.1025225 34.0706423 -2.56738281 41.47705078 C-2.64001343 42.60336914 -2.64001343 42.60336914 -2.71411133 43.75244141 C-2.81321564 45.57545579 -2.85228808 47.40155314 -2.87988281 49.22705078 C-0.72531313 51.38162047 4.19127989 50.48731704 7.18652344 50.54345703 C8.54945778 50.57462868 8.54945778 50.57462868 9.93992615 50.60643005 C12.85407665 50.6720275 15.76832023 50.73085758 18.68261719 50.78955078 C20.6533301 50.83272632 22.62403345 50.87634029 24.59472656 50.92041016 C29.43642707 51.02771922 34.27822155 51.12895753 39.12011719 51.22705078 C39.45011719 48.25705078 39.78011719 45.28705078 40.12011719 42.22705078 C34.51011719 42.22705078 28.90011719 42.22705078 23.12011719 42.22705078 C24.71152181 35.86143228 27.30063476 30.75558434 32.12011719 26.22705078 C37.53268583 24.74630969 42.57082533 25.07662536 48.12011719 25.47705078 C49.57692771 25.5373326 51.03397878 25.59207024 52.49121094 25.64111328 C56.03922929 25.77250992 59.57812168 25.97895842 63.12011719 26.22705078 C63.31075966 35.53414161 63.03799019 44.64107441 62.18261719 53.91455078 C62.0957666 54.85830566 62.00891602 55.80206055 61.91943359 56.77441406 C61.50902239 60.99155985 60.9694368 65.0739153 60.12011719 69.22705078 C50.83617483 69.31984286 41.55239277 69.39086222 32.26808739 69.43429947 C27.95671552 69.45515012 23.64566157 69.4834212 19.33447266 69.52880859 C15.17177848 69.57235705 11.00938958 69.59620686 6.84648514 69.60655975 C5.26047588 69.61393505 3.67448283 69.62833748 2.08860397 69.64997101 C-0.13774611 69.67912608 -2.36284437 69.68300195 -4.58935547 69.68115234 C-6.48797836 69.69447601 -6.48797836 69.69447601 -8.42495728 69.70806885 C-14.7658528 68.82524655 -18.75396277 64.80018194 -22.62207031 60.00048828 C-29.73694383 49.96895854 -25.76389214 30.70679348 -23.87988281 19.22705078 C-21.55247551 11.02930036 -16.29286043 5.65409893 -9.18707275 1.15530396 C-6.0427046 -0.10977165 -3.38710045 -0.01218381 0 0 Z " fill="#FA460A" transform="translate(240.8798828125,124.77294921875)"/>
</svg>
