<?xml version="1.0" encoding="UTF-8"?>
<svg version="1.1" xmlns="http://www.w3.org/2000/svg" width="600" height="599">
<path d="M0 0 C2.92710862 1.64293796 5.15872627 3.86169968 7.4998188 6.22760773 C8.04297098 6.7646688 8.58612316 7.30172987 9.14573449 7.85506552 C10.96703637 9.65969494 12.77741504 11.47489803 14.58799934 13.29027557 C15.8900811 14.58501965 17.19278505 15.87913826 18.49606514 17.17267609 C22.03597134 20.69033018 25.56613961 24.2176056 29.09398866 27.74734712 C32.03654692 30.69002487 34.98342995 33.62835296 37.93021554 36.56679648 C44.87855353 43.49588847 51.81867189 50.43313992 58.75401497 57.37523651 C65.91854271 64.54641201 73.09771515 71.70268597 80.28407222 78.85198003 C86.44676776 84.9840377 92.59981579 91.12565997 98.74526089 97.27500552 C102.41885149 100.95066908 106.09616344 104.6224113 109.78297043 108.28482246 C113.24716576 111.72684999 116.69921953 115.18059933 120.14213181 118.64391136 C121.410487 119.91569387 122.68315953 121.18318678 123.96032524 122.44612122 C125.69756771 124.16532847 127.4188307 125.89906705 129.13678169 127.63751984 C129.65057123 128.13879153 130.16436077 128.64006322 130.69371969 129.15652496 C133.96315589 132.51072403 133.96315589 132.51072403 134.12388039 135.1221981 C132.48094243 138.04930673 130.2621807 140.28092437 127.89627266 142.62201691 C127.35921159 143.16516908 126.82215051 143.70832126 126.26881486 144.26793259 C124.46418544 146.08923447 122.64898236 147.89961315 120.83360481 149.71019745 C119.53886074 151.0122792 118.24474213 152.31498315 116.9512043 153.61826324 C113.4335502 157.15816945 109.90627479 160.68833771 106.37653327 164.21618676 C103.43385552 167.15874503 100.49552743 170.10562806 97.5570839 173.05241364 C90.62799192 180.00075164 83.69074046 186.94086999 76.74864388 193.87621307 C69.57746837 201.04074082 62.42119441 208.21991325 55.27190036 215.40627033 C49.13984269 221.56896586 42.99822041 227.7220139 36.84887487 233.867459 C33.17321131 237.54104959 29.50146908 241.21836155 25.83905792 244.90516853 C22.3970304 248.36936387 18.94328106 251.82141763 15.47996902 255.26432991 C14.20818652 256.53268511 12.94069361 257.80535763 11.67775917 259.08252335 C9.95855191 260.81976581 8.22481334 262.5410288 6.48636055 264.2589798 C5.98508886 264.77276933 5.48381717 265.28655887 4.96735543 265.81591779 C1.61315636 269.08535399 1.61315636 269.08535399 -0.99831772 269.24607849 C-3.92542634 267.60314053 -6.15704399 265.38437881 -8.49813652 263.01847076 C-9.31286479 262.21287915 -9.31286479 262.21287915 -10.14405221 261.39101297 C-11.96535408 259.58638355 -13.77573276 257.77118046 -15.58631706 255.95580292 C-16.88839881 254.66105884 -18.19110276 253.36694023 -19.49438286 252.0734024 C-23.03428906 248.55574831 -26.56445733 245.02847289 -30.09230638 241.49873137 C-33.03486464 238.55605362 -35.98174767 235.61772553 -38.92853326 232.67928201 C-45.87687125 225.75019002 -52.81698961 218.81293857 -59.75233269 211.87084198 C-66.91686043 204.69966648 -74.09603287 197.54339252 -81.28238994 190.39409846 C-87.44508548 184.26204079 -93.59813351 178.12041852 -99.74357861 171.97107297 C-103.41716921 168.29540941 -107.09448116 164.62366719 -110.78128815 160.96125603 C-114.24548348 157.51922851 -117.69753725 154.06547916 -121.14044952 150.60216713 C-122.40880472 149.33038462 -123.68147724 148.06289171 -124.95864296 146.79995728 C-126.69588543 145.08075002 -128.41714842 143.34701144 -130.13509941 141.60855865 C-130.64888895 141.10728697 -131.16267849 140.60601528 -131.6920374 140.08955353 C-134.96147361 136.73535446 -134.96147361 136.73535446 -135.1221981 134.12388039 C-133.47926015 131.19677176 -131.26049842 128.96515412 -128.89459038 126.62406158 C-128.3575293 126.08090941 -127.82046823 125.53775723 -127.26713258 124.9781459 C-125.46250316 123.15684402 -123.64730007 121.34646534 -121.83192253 119.53588104 C-120.53717845 118.23379929 -119.24305984 116.93109534 -117.94952202 115.62781525 C-114.43186792 112.08790904 -110.9045925 108.55774078 -107.37485099 105.02989173 C-104.43217323 102.08733346 -101.49384515 99.14045044 -98.55540162 96.19366485 C-91.62630964 89.24532686 -84.68905818 82.3052085 -77.74696159 75.36986542 C-70.57578609 68.20533768 -63.41951213 61.02616524 -56.27021807 53.83980817 C-50.13816041 47.67711263 -43.99653813 41.52406459 -37.84719259 35.37861949 C-34.17152903 31.7050289 -30.4997868 28.02771694 -26.83737564 24.34090996 C-23.39534812 20.87671462 -19.94159878 17.42466086 -16.47828674 13.98174858 C-15.20650424 12.71339338 -13.93901132 11.44072086 -12.67607689 10.16355515 C-10.95686963 8.42631268 -9.22313106 6.70504969 -7.48467827 4.98709869 C-6.98340658 4.47330916 -6.48213489 3.95951962 -5.96567315 3.4301607 C-2.61147408 0.1607245 -2.61147408 0.1607245 0 0 Z M-2.44968319 50.45051575 C-3.38852934 51.39074459 -3.38852934 51.39074459 -4.34634209 52.34996796 C-5.06291985 53.06517105 -5.7794976 53.78037415 -6.51778984 54.51725006 C-7.30900734 55.31206284 -8.10022484 56.10687561 -8.91541862 56.92577362 C-9.74461815 57.75482712 -10.57381767 58.58388062 -11.42814445 59.43805695 C-13.70875034 61.71924196 -15.98711533 64.00263758 -18.26452565 66.2870121 C-20.64238461 68.6711035 -23.02305765 71.05238135 -25.40344048 73.43395233 C-29.91386413 77.94748963 -34.42173167 82.463571 -38.92869848 86.98055983 C-44.05846075 92.12148222 -49.19104776 97.25958044 -54.32388031 102.3974371 C-64.88546456 112.96948648 -75.44347569 123.54509768 -85.99915886 134.12303925 C-81.58852159 139.40183412 -76.94083445 144.31932815 -72.06605339 149.1696701 C-70.90894104 150.3270015 -70.90894104 150.3270015 -69.72845268 151.50771332 C-67.19865742 154.03681642 -64.66534724 156.562367 -62.13197136 159.087883 C-60.36912865 160.84885905 -58.60650777 162.6100572 -56.84409904 164.37146759 C-52.22020105 168.99155992 -47.59330705 173.60864036 -42.96577263 178.22509003 C-38.23782896 182.94223193 -33.51328327 187.66277676 -28.78822136 192.38280487 C-19.52798371 201.6323396 -10.26467361 210.8787909 -0.99915886 220.12303925 C4.27963601 215.71240197 9.19713005 211.06471484 14.047472 206.18993378 C15.20480339 205.03282143 15.20480339 205.03282143 16.38551521 203.85233307 C18.91461832 201.3225378 21.44016889 198.78922762 23.96568489 196.25585175 C25.72666095 194.49300904 27.48785909 192.73038815 29.24926949 190.96797943 C33.86936181 186.34408143 38.48644226 181.71718743 43.10289192 177.08965302 C47.82003382 172.36170935 52.54057865 167.63716366 57.26060677 162.91210175 C66.51014149 153.6518641 75.75659279 144.388554 85.00084114 135.12303925 C80.59226694 129.84880247 75.94970104 124.92873913 71.08360481 120.07640839 C70.31380287 119.30485413 69.54400093 118.53329987 68.75087166 117.73836517 C66.22601393 115.20913404 63.69754963 112.68354492 61.16880989 110.1581955 C59.40843515 108.39714683 57.64820885 106.63594977 55.88812447 104.8746109 C52.21060427 101.19562021 48.53129052 97.51843526 44.85069466 93.84252167 C41.06454565 90.0609536 37.28057964 86.2772282 33.49913216 82.49095917 C28.92988841 77.91593939 24.35823394 73.3433447 19.78446579 68.77284813 C18.04011523 67.02916663 16.29651265 65.28473655 14.55365753 63.53956032 C12.12854306 61.11192311 9.70027552 58.68748585 7.27110481 56.26390839 C6.54541801 55.53619736 5.81973122 54.80848633 5.07205391 54.05872345 C4.0859211 53.07682037 4.0859211 53.07682037 3.07986641 52.07508087 C2.50600795 51.50159944 1.93214949 50.928118 1.34090137 50.33725834 C-0.53277769 48.639531 -0.57175028 48.73188769 -2.44968319 50.45051575 Z " fill="#ECEC2F" transform="translate(134.99915885925293,164.87696075439453)"/>
<path d="M0 0 C14.28540414 7.14270207 28.39243805 18.10082988 35 33 C40.67197987 53.44696883 38.43367408 76.61592965 37.67821085 97.58632338 C37.38778515 105.82497216 37.28135986 114.06324552 37.18678939 122.30609882 C36.98889128 139.21131036 36.5711185 156.10317881 36 173 C37.2645401 171.71880531 37.2645401 171.71880531 38.55462646 170.41172791 C46.48703904 162.37811501 54.43250172 154.35761699 62.39104843 146.34989071 C66.48255872 142.23224702 70.5692727 138.11006518 74.64550781 133.97729492 C78.57682922 129.99178958 82.52011261 126.01849508 86.47211456 122.05349922 C87.98042723 120.53592235 89.48431998 119.01393972 90.98375702 117.4875927 C93.07900279 115.35624027 95.18918473 113.24086259 97.30371094 111.12866211 C97.92518005 110.48921661 98.54664917 109.84977112 99.18695068 109.19094849 C100.93743896 107.46128845 100.93743896 107.46128845 104 105 C108.27498943 105.44675108 110.26052957 107.91623648 113.203125 110.91015625 C113.6857782 111.39705429 114.1684314 111.88395233 114.66571045 112.38560486 C116.2010085 113.9376545 117.72552925 115.49982136 119.25 117.0625 C120.2909722 118.11852357 121.3326314 119.17387038 122.375 120.22851562 C124.92467633 122.81121415 127.46479196 125.40308882 130 128 C128.70701105 130.84374027 127.34960102 132.89894298 125.13998413 135.1005249 C124.55665817 135.68660019 123.97333221 136.27267548 123.37232971 136.87651062 C122.73431931 137.50733047 122.0963089 138.13815033 121.43896484 138.78808594 C120.42903221 139.79845665 120.42903221 139.79845665 119.3986969 140.82923889 C117.17415197 143.05239154 114.94260871 145.26837793 112.7109375 147.484375 C111.16636338 149.02521865 109.62223049 150.56650472 108.07852173 152.10821533 C104.01571302 156.16339037 99.94693378 160.21252324 95.87689209 164.26043701 C91.72420894 168.39265611 87.57718656 172.53054757 83.4296875 176.66796875 C75.29199602 184.78421499 67.14798731 192.89409083 59 201 C63.00384549 205.8071234 67.19399144 210.32303402 71.64794922 214.71386719 C72.28280746 215.34405258 72.91766571 215.97423798 73.57176208 216.6235199 C74.93747797 217.9788074 76.30429432 219.33298671 77.67211533 220.6861496 C79.83484267 222.82672125 81.99346487 224.97135325 84.15090942 227.11724854 C90.28062487 233.21347585 96.41459279 239.30537513 102.55859375 245.38720703 C106.32605063 249.11711738 110.08624096 252.85422012 113.84180069 256.59610748 C115.2736428 258.01987993 116.70826014 259.44086692 118.14565659 260.85903168 C120.14678077 262.83381594 122.13856409 264.81758028 124.12841797 266.80371094 C124.7267897 267.3897258 125.32516144 267.97574066 125.94166565 268.57951355 C130 272.65804599 130 272.65804599 130 276 C128.54882812 277.52758789 128.54882812 277.52758789 126.53125 279.16015625 C121.9294209 283.0163186 117.71763449 287.16909769 113.5 291.4375 C112.77296875 292.16904297 112.0459375 292.90058594 111.296875 293.65429688 C109.52890377 295.43389949 107.76379821 297.21626446 106 299 C101.25809265 295.04145382 96.77503166 290.9163086 92.42211914 286.53564453 C91.80662201 285.92029343 91.19112488 285.30494232 90.55697632 284.67094421 C88.54732002 282.6605979 86.54121726 280.64674589 84.53515625 278.6328125 C83.13290456 277.22869339 81.73043019 275.82479664 80.32774353 274.42111206 C76.65458732 270.74415621 72.98444546 267.06420609 69.31494141 263.38360596 C65.56270233 259.62109763 61.80759507 255.86145421 58.05273438 252.1015625 C50.69902664 244.73716251 43.34850292 237.36959333 36 230 C36.02526544 230.69110335 36.05053087 231.38220671 36.07656193 232.09425259 C36.6856612 249.07900899 37.10285834 266.05730146 37.31865025 283.05139828 C37.42743912 291.27146792 37.59686086 299.48126657 37.91674805 307.69604492 C40.1885855 367.38123838 40.1885855 367.38123838 25.36168957 384.37107563 C18.43563846 391.60148069 10.63958645 397.93361102 2 403 C1.34 403 0.68 403 0 403 C0 270.01 0 137.02 0 0 Z " fill="#ECEC2F" transform="translate(399,98)"/>
<path d="M0 0 C13.56508783 6.78254392 30.11156777 21.35050003 36.05232191 35.5077619 C40.07774167 48.42344015 39.31996282 62.56602588 39.08178282 75.93403387 C39.01479356 81.62588425 39.1285883 87.31486482 39.21731567 93.00602722 C39.3618076 104.11280908 39.34096808 115.21313937 39.25757384 126.32031439 C39.1926433 135.35874881 39.18845812 144.3953746 39.22616577 153.43394852 C39.23149344 154.72741562 39.23682111 156.02088272 39.24231023 157.35354579 C39.25336796 159.98241663 39.26455001 162.61128694 39.27585495 165.24015673 C39.37147045 189.11231791 39.29175717 212.98099736 39.13786893 236.8526872 C38.99907702 258.56406312 39.02635552 280.26933124 39.19238281 301.98046875 C39.37911707 326.468446 39.45627588 350.95266344 39.36570072 375.44133818 C39.35633048 378.0603649 39.34711069 380.67939217 39.33804321 383.29841995 C39.3335421 384.58652777 39.32904098 385.87463559 39.32440346 387.20177697 C39.30036969 396.21250105 39.35291572 405.22084667 39.43661499 414.23115158 C39.53692099 425.2386589 39.51715726 436.23851747 39.35045457 447.24533533 C39.26852286 452.84781363 39.23601821 458.43741103 39.35098648 464.03960609 C39.73626893 484.37386284 39.51959801 500.96170628 25.24949116 516.60934503 C18.0890195 524.02708971 10.37748566 530.98033509 2 537 C1.34 537 0.68 537 0 537 C0 359.79 0 182.58 0 0 Z " fill="#ECEC2F" transform="translate(332,31)"/>
<path d="M0 0 C0 93.06 0 186.12 0 282 C-4.56508338 280.85872915 -6.53963556 278.88705758 -9.72676086 275.66764832 C-10.29441436 275.10608593 -10.86206785 274.54452354 -11.44692296 273.96594411 C-13.35114204 272.07840219 -15.24444061 270.18027382 -17.13793945 268.28198242 C-18.49913354 266.92812574 -19.86094999 265.57489455 -21.2233429 264.22224426 C-24.92440184 260.5434404 -28.61572235 256.85500961 -32.30472207 253.16411757 C-35.38148784 250.08723233 -38.46257865 247.01469596 -41.54357213 243.94204503 C-48.80833659 236.6965277 -56.06488142 229.44284827 -63.31665039 222.18432617 C-70.80836539 214.68596353 -78.31473024 207.20249638 -85.82827598 199.72601432 C-92.27122315 193.31370403 -98.70452566 186.89182836 -105.13022202 180.46223146 C-108.9714849 176.61889549 -112.81647458 172.77947756 -116.67095375 168.94939232 C-120.29273416 165.34977803 -123.90238453 161.73843515 -127.502882 158.11753654 C-128.82928904 156.78770189 -130.16001375 155.4621584 -131.49523163 154.1411705 C-133.31128475 152.34314926 -135.11139413 150.53056976 -136.90815735 148.71330261 C-137.44529258 148.18868523 -137.9824278 147.66406785 -138.53583986 147.12355298 C-141.95173679 143.62298254 -141.95173679 143.62298254 -142.15472603 141.00279331 C-140.41592025 137.98695362 -138.07521614 135.66719918 -135.6162262 133.24200439 C-135.04916912 132.67097292 -134.48211205 132.09994144 -133.89787143 131.51160598 C-131.99181263 129.59590609 -130.07519379 127.69113472 -128.15844727 125.78613281 C-126.79147327 124.4167315 -125.42514542 123.04668492 -124.05941772 121.67604065 C-120.34529508 117.95249856 -116.6218063 114.23845395 -112.89632535 110.5262804 C-109.00471853 106.64597082 -105.12080804 102.75797152 -101.23582458 98.87103271 C-94.71148776 92.34581253 -88.18118971 85.82660547 -81.6472168 79.31103516 C-74.08310799 71.76810786 -66.52788123 64.21637451 -58.9774757 56.6597321 C-51.72438857 49.40095964 -44.46565888 42.14785661 -37.20411491 34.89754486 C-34.10869133 31.80677693 -31.01517375 28.71411939 -27.92312813 25.61997223 C-24.2859257 21.98089258 -20.64379637 18.3468177 -16.99772263 14.71662712 C-15.65678385 13.37994734 -14.3175588 12.04154594 -12.98013496 10.70134926 C-11.16158017 8.87959536 -9.3370431 7.06405978 -7.51075745 5.25006104 C-6.97642344 4.7119477 -6.44208943 4.17383437 -5.89156348 3.61941457 C-2.22832906 0 -2.22832906 0 0 0 Z M-40.67825317 88.55383301 C-41.19829926 89.07747437 -41.71834534 89.60111572 -42.25415039 90.140625 C-43.07366936 90.95992493 -43.07366936 90.95992493 -43.90974426 91.79577637 C-45.72476028 93.61149205 -47.53620337 95.43073008 -49.34765625 97.25 C-50.60154335 98.50575108 -51.85565062 99.76128235 -53.10997009 101.01660156 C-56.41823484 104.32869302 -59.72348626 107.64377603 -63.02813721 110.95947266 C-66.39781666 114.33936296 -69.77031225 117.71644063 -73.14257812 121.09375 C-79.76449156 127.72640345 -86.38322778 134.36221792 -93 141 C-87.56931355 147.60083757 -81.5558133 153.58995598 -75.51171875 159.62109375 C-74.40153149 160.73195558 -73.29149262 161.84296575 -72.18159485 162.95411682 C-69.86934616 165.26783159 -67.55531871 167.57974816 -65.23999023 169.89038086 C-62.26613183 172.85850238 -59.2968394 175.83114509 -56.32882977 178.80511379 C-54.04448873 181.09305585 -51.75778698 183.37862643 -49.47034645 185.66346931 C-48.37352832 186.75961897 -47.27745638 187.85651579 -46.18213463 188.95416069 C-44.65987292 190.47894567 -43.13447144 192.00051629 -41.6081543 193.52124023 C-40.74022751 194.38837143 -39.87230072 195.25550262 -38.97807312 196.14891052 C-37.32982677 198.11388032 -37.32982677 198.11388032 -36 198 C-36 160.71 -36 123.42 -36 85 C-38.06779977 85 -39.29712512 87.17672255 -40.67825317 88.55383301 Z " fill="#ECEC2F" transform="translate(301,317)"/>
<path d="M0 0 C0 93.06 0 186.12 0 282 C-4.01688359 279.99155821 -6.6176047 277.67082589 -9.72676086 274.5473938 C-10.5782411 273.70376858 -10.5782411 273.70376858 -11.44692296 272.84310043 C-13.34872158 270.95631 -15.2432972 269.06243152 -17.13793945 267.16845703 C-18.49934827 265.81466883 -19.86115937 264.46128506 -21.2233429 263.10827637 C-24.92214406 259.4314294 -28.61434255 255.74802123 -32.30472207 252.06272364 C-34.60865884 249.7624276 -36.91388899 247.46343587 -39.21956444 245.16488266 C-47.2573266 237.15161265 -55.28935398 229.13264021 -63.31665039 221.10888672 C-70.80982307 213.619355 -78.31604136 206.14307303 -85.82827598 198.67266572 C-92.27110014 192.2644658 -98.7043373 185.84674684 -105.13022202 179.42156112 C-108.97123992 175.58133836 -112.81618008 171.74524601 -116.67095375 167.91882706 C-120.29262248 164.3232059 -123.90228239 160.71595872 -127.502882 157.09924316 C-128.82928726 155.77101313 -130.16001197 154.44708119 -131.49523163 153.12771225 C-133.31126944 151.33193347 -135.11137893 149.52159159 -136.90815735 147.70657349 C-137.44529258 147.18263823 -137.9824278 146.65870297 -138.53583986 146.11889088 C-141.95275145 142.6217052 -141.95275145 142.6217052 -142.15193272 140.00084114 C-140.42495493 137.00117966 -138.10441445 134.69272569 -135.66091919 132.27996826 C-135.09865124 131.71302034 -134.53638328 131.14607241 -133.95707691 130.56194425 C-132.06718094 128.66006209 -130.16671746 126.76910645 -128.26611328 124.87792969 C-126.91062062 123.518373 -125.55576723 122.15817869 -124.20150757 120.7973938 C-120.5184184 117.10060658 -116.82587642 113.41339772 -113.13118601 109.7282095 C-109.27103094 105.87563653 -105.41818586 102.01576451 -101.56417847 98.15704346 C-95.09130815 91.67871203 -88.61213031 85.20673943 -82.12939453 78.73828125 C-74.62621707 71.2514378 -67.13391785 63.75383845 -59.64716542 56.25057292 C-53.22633683 49.81614785 -46.79970209 43.38756586 -40.36814296 36.96386647 C-36.52352807 33.12393732 -32.68098947 29.28198948 -28.84366226 25.43477631 C-25.23732276 21.81979593 -21.62377182 18.21218541 -18.00442886 14.61022568 C-16.67432094 13.28409772 -15.34678377 11.95538578 -14.02196503 10.62397385 C-12.21914773 8.81301086 -10.4074309 7.0114615 -8.5930481 5.21209717 C-7.80175276 4.41076359 -7.80175276 4.41076359 -6.99447167 3.59324145 C-3.34245075 0 -3.34245075 0 0 0 Z M-40.67825317 87.55383301 C-41.19829926 88.07747437 -41.71834534 88.60111572 -42.25415039 89.140625 C-43.07366936 89.95992493 -43.07366936 89.95992493 -43.90974426 90.79577637 C-45.72476028 92.61149205 -47.53620337 94.43073008 -49.34765625 96.25 C-50.60154335 97.50575108 -51.85565062 98.76128235 -53.10997009 100.01660156 C-56.41823484 103.32869302 -59.72348626 106.64377603 -63.02813721 109.95947266 C-66.39781666 113.33936296 -69.77031225 116.71644063 -73.14257812 120.09375 C-79.76449156 126.72640345 -86.38322778 133.36221792 -93 140 C-87.56931355 146.60083757 -81.5558133 152.58995598 -75.51171875 158.62109375 C-74.40153149 159.73195558 -73.29149262 160.84296575 -72.18159485 161.95411682 C-69.86934616 164.26783159 -67.55531871 166.57974816 -65.23999023 168.89038086 C-62.26613183 171.85850238 -59.2968394 174.83114509 -56.32882977 177.80511379 C-54.04448873 180.09305585 -51.75778698 182.37862643 -49.47034645 184.66346931 C-48.37352832 185.75961897 -47.27745638 186.85651579 -46.18213463 187.95416069 C-44.65987292 189.47894567 -43.13447144 191.00051629 -41.6081543 192.52124023 C-40.74022751 193.38837143 -39.87230072 194.25550262 -38.97807312 195.14891052 C-37.32982677 197.11388032 -37.32982677 197.11388032 -36 197 C-36 159.71 -36 122.42 -36 84 C-38.06779977 84 -39.29712512 86.17672255 -40.67825317 87.55383301 Z " fill="#ECEC2F" transform="translate(301,0)"/>
<path d="M0 0 C3.63343559 1.53824946 5.98907908 3.71855582 8.78442383 6.47802734 C9.47533615 7.15645439 9.47533615 7.15645439 10.1802063 7.84858704 C11.69459811 9.33896417 13.20129608 10.83681808 14.70703125 12.3359375 C15.75738606 13.37732427 16.80781746 14.41863379 17.85832214 15.45986938 C20.05502687 17.64010821 22.24732083 19.82468148 24.43725586 22.01171875 C27.24798777 24.81704854 30.07454498 27.60584001 32.90526295 30.39098167 C35.07805993 32.53409372 37.23957359 34.6883149 39.39807701 36.84581375 C40.43584978 37.87937241 41.47775633 38.90879726 42.52378273 39.93400192 C43.98175447 41.36522404 45.42261224 42.81381788 46.86254883 44.26318359 C47.68765457 45.08321869 48.51276031 45.90325378 49.36286926 46.74813843 C51 49 51 49 51.04107666 50.99227905 C49.59487144 53.78129222 47.71163274 55.64642182 45.48022461 57.86035156 C45.0119072 58.32910706 44.54358978 58.79786255 44.06108093 59.28082275 C42.51517453 60.82464325 40.95892317 62.3575726 39.40234375 63.890625 C38.32694816 64.96042394 37.25221408 66.03088824 36.17811584 67.10198975 C33.35210651 69.91655581 30.51720358 72.72199579 27.68035889 75.52563477 C24.78604148 78.38924028 21.90021924 81.26137861 19.01367188 84.1328125 C13.35073117 89.76359817 7.67836727 95.38477183 2 101 C-1.63343559 99.46175054 -3.98907908 97.28144418 -6.78442383 94.52197266 C-7.24503204 94.06968796 -7.70564026 93.61740326 -8.1802063 93.15141296 C-9.69459811 91.66103583 -11.20129608 90.16318192 -12.70703125 88.6640625 C-13.75738606 87.62267573 -14.80781746 86.58136621 -15.85832214 85.54013062 C-18.05502687 83.35989179 -20.24732083 81.17531852 -22.43725586 78.98828125 C-25.24798777 76.18295146 -28.07454498 73.39415999 -30.90526295 70.60901833 C-33.07805993 68.46590628 -35.23957359 66.3116851 -37.39807701 64.15418625 C-38.43584978 63.12062759 -39.47775633 62.09120274 -40.52378273 61.06599808 C-41.98175447 59.63477596 -43.42261224 58.18618212 -44.86254883 56.73681641 C-45.68765457 55.91678131 -46.51276031 55.09674622 -47.36286926 54.25186157 C-49 52 -49 52 -49.04107666 50.00772095 C-47.59487144 47.21870778 -45.71163274 45.35357818 -43.48022461 43.13964844 C-43.0119072 42.67089294 -42.54358978 42.20213745 -42.06108093 41.71917725 C-40.51517453 40.17535675 -38.95892317 38.6424274 -37.40234375 37.109375 C-36.32694816 36.03957606 -35.25221408 34.96911176 -34.17811584 33.89801025 C-31.35210651 31.08344419 -28.51720358 28.27800421 -25.68035889 25.47436523 C-22.78604148 22.61075972 -19.90021924 19.73862139 -17.01367188 16.8671875 C-11.35073117 11.23640183 -5.67836727 5.61522817 0 0 Z " fill="#ECEC2F" transform="translate(549,249)"/>
<path d="M0 0 C3.26385402 1.42926588 5.41226394 3.17285923 7.91064453 5.69946289 C8.6646756 6.45687271 9.41870667 7.21428253 10.19558716 7.99464417 C11.4020137 9.22126015 11.4020137 9.22126015 12.6328125 10.47265625 C13.46585907 11.31090439 14.29890564 12.14915253 15.15719604 13.01280212 C17.81791527 15.69133845 20.47185594 18.37646175 23.125 21.0625 C25.78614491 23.75123024 28.44871799 26.43850579 31.11422729 29.12290955 C32.7730062 30.7939792 34.42910518 32.46771399 36.08230591 34.14430237 C36.83003265 34.89856003 37.5777594 35.65281769 38.34814453 36.42993164 C39.33598434 37.43015099 39.33598434 37.43015099 40.34378052 38.45057678 C41.93405957 40.08555665 41.93405957 40.08555665 44 41 C44 44 44 44 42.53894043 45.53871155 C41.87060181 46.08031418 41.20226318 46.62191681 40.51367188 47.17993164 C36.02745079 50.94191503 31.90408264 54.96796702 27.78125 59.12109375 C26.66623108 60.23823509 26.66623108 60.23823509 25.52868652 61.37794495 C23.18340699 63.72876745 20.84165164 66.08306431 18.5 68.4375 C16.89867039 70.04385199 15.29711002 71.64997397 13.6953125 73.25585938 C9.79420527 77.16791985 5.8959758 81.08282952 2 85 C-1.28834683 83.55802532 -3.49811282 81.76875893 -6.05004883 79.25634766 C-6.83378372 78.48860016 -7.61751862 77.72085266 -8.42500305 76.92984009 C-9.26057236 76.09963348 -10.09614166 75.26942688 -10.95703125 74.4140625 C-11.81938889 73.56073334 -12.68174652 72.70740417 -13.57023621 71.82821655 C-15.38931341 70.02363904 -17.20559827 68.21624301 -19.01928711 66.40625 C-21.80709414 63.63038271 -24.61300092 60.87370828 -27.41992188 58.1171875 C-29.18343764 56.36313056 -30.9458462 54.60795961 -32.70703125 52.8515625 C-33.55272171 52.02540436 -34.39841217 51.19924622 -35.26972961 50.34805298 C-36.0377037 49.57400116 -36.8056778 48.79994934 -37.59692383 48.00244141 C-38.27991043 47.32452545 -38.96289703 46.6466095 -39.6665802 45.94815063 C-41 44 -41 44 -40.94927979 42.00772095 C-39.73917248 39.44835139 -38.22790596 37.86839587 -36.21459961 35.87402344 C-35.01346779 34.67323151 -35.01346779 34.67323151 -33.78807068 33.44818115 C-32.91828079 32.59387512 -32.04849091 31.73956909 -31.15234375 30.859375 C-30.2659169 29.97719299 -29.37949005 29.09501099 -28.46620178 28.18609619 C-26.11236944 25.84621423 -23.75226246 23.51304602 -21.38885498 21.18286133 C-18.97711583 18.80185337 -16.57388521 16.41229147 -14.16992188 14.0234375 C-9.45441941 9.3410322 -4.73045844 4.66729272 0 0 Z " fill="#ECEC2F" transform="translate(133,257)"/>
</svg>
