<?xml version="1.0" encoding="UTF-8"?>
<svg width="300" height="275" version="1.1" viewBox="0 0 79.375 72.76" xmlns="http://www.w3.org/2000/svg">
 <g stroke-width=".20299">
  <path class="st0" d="m3.8382 10.11c21.456 0.0203 42.891 0 64.347 0 1.5224 0.0203 3.1057-0.14209 4.5672 0.40597 2.1517 0.73076 3.9786 2.3953 4.9326 4.4657 0.85255 1.7863 0.93374 3.8568 0.48717 5.7648-22.187-0.0203-44.373 0-66.58 0-2.5982-3.5523-5.1965-7.0843-7.7541-10.637z"/>
  <path class="st0" d="m0.93545 26.84c6.252-0.0812 12.484-0.0203 18.736-0.0406 10.535 0.0203 21.07-0.0203 31.626 0.0203-0.83225 3.5726-1.8878 7.0843-2.7809 10.616h7.5106c0.85255 0 1.7457-0.1015 2.4765-0.58867 0.99464-0.60896 1.6239-1.6442 1.9081-2.7606 0.64956-2.4359 1.2991-4.8514 1.9284-7.2873 4.892-0.0406 9.8043-0.0406 14.696 0-0.91344 3.7553-1.969 7.4902-2.9433 11.246-0.56836 2.3953-1.9284 4.5672-3.6538 6.2723-2.1923 2.1923-5.1559 3.8162-8.3225 3.7553-5.4604-0.0203-10.921 0-16.361 0-1.2991 4.8514-2.5576 9.7231-3.8974 14.575-4.892 0-9.784 0.0203-14.656 0 2.2126-8.4037 4.4454-16.807 6.6783-25.211-8.424-0.0203-16.848 0.0406-25.272-0.0203-2.5576-3.5523-5.1965-7.0031-7.6729-10.576z"/>
  <path class="st1" d="m12.526 42.77h14.432l-3.7756 14.25-10.657-14.25z" fill="#ef2940"/>
 </g>
</svg>