<?xml version="1.0" standalone="no"?>
<!DOCTYPE svg PUBLIC "-//W3C//DTD SVG 20010904//EN"
 "http://www.w3.org/TR/2001/REC-SVG-20010904/DTD/svg10.dtd">
<svg version="1.0" xmlns="http://www.w3.org/2000/svg"
 width="1065.000000pt" height="948.000000pt" viewBox="0 0 1065.000000 948.000000"
 preserveAspectRatio="xMidYMid meet">

<g transform="translate(0.000000,948.000000) scale(0.100000,-0.100000)"
fill="#000000" stroke="none">
<path d="M2064 8598 l7 -692 59 -54 60 -54 0 -218 0 -219 -52 -6 c-29 -3 -161
-17 -293 -30 -229 -24 -778 -89 -877 -103 -45 -7 -51 -12 -180 -157 -189 -215
-294 -336 -457 -530 l-143 -170 6 -210 c3 -115 15 -793 27 -1505 11 -712 22
-1300 24 -1306 3 -11 351 -257 772 -547 l212 -146 268 83 c148 46 282 86 299
90 l31 7 91 -183 c92 -186 166 -312 279 -472 35 -49 63 -98 63 -108 0 -34 62
-213 106 -305 225 -472 678 -818 1290 -987 126 -35 382 -86 429 -86 13 0 56
-24 97 -55 251 -189 618 -288 1013 -271 421 17 846 135 1341 371 916 436 1597
1153 1949 2050 26 66 48 122 51 124 7 8 356 -93 719 -208 l250 -79 452 452
451 451 21 1290 c11 710 23 1349 25 1420 l5 131 -179 213 c-180 214 -511 592
-546 623 -20 17 -335 60 -844 113 -135 14 -260 28 -277 31 l-33 5 0 618 0 619
-207 189 c-115 103 -290 261 -390 351 l-182 162 -2872 0 -2872 0 7 -692z
m2147 -225 l149 -128 0 -342 0 -342 -120 -97 c-66 -54 -120 -101 -120 -104 0
-4 56 -54 125 -111 l125 -103 0 -262 0 -262 65 -47 65 -46 0 -114 0 -113 -62
-6 c-35 -3 -144 -8 -243 -11 -99 -3 -210 -8 -247 -12 l-68 -6 0 452 0 451
-108 0 c-60 0 -150 -3 -200 -6 l-92 -7 0 -291 0 -291 55 -38 55 -38 0 -120 c0
-87 -3 -121 -12 -124 -7 -2 -141 -13 -298 -25 -157 -12 -313 -24 -347 -27
l-63 -6 0 124 0 124 62 40 61 39 -6 216 c-4 118 -7 272 -7 342 l0 127 -45 56
-46 56 46 52 45 52 0 356 0 357 -59 54 -59 55 -2 119 c-2 65 -2 122 -1 127 0
4 271 7 602 7 l600 0 150 -127z m1884 -142 l0 -265 -235 -51 -235 -51 -3 138
-3 138 -169 0 -170 0 0 -265 0 -265 320 0 320 0 0 -185 0 -185 -320 0 -320 0
0 -290 0 -290 170 0 170 0 0 105 c0 58 2 105 5 105 3 0 109 23 236 50 127 28
232 50 235 50 2 0 3 -149 2 -331 l-3 -332 -713 -1 -712 -1 0 115 0 115 60 33
60 33 0 773 0 773 -65 62 -65 61 0 108 c0 60 3 112 7 115 3 4 326 6 717 5
l711 -3 0 -264z m1551 136 l148 -132 -3 -383 -3 -382 55 -57 55 -58 -54 -58
-54 -58 0 -388 0 -387 -149 -121 -149 -122 -178 14 c-222 17 -645 42 -866 51
l-168 7 0 117 0 116 58 40 57 39 3 786 2 785 -60 42 -60 43 0 113 c0 62 3 116
7 119 3 4 277 7 609 7 l602 0 148 -133z m-5217 -1942 l171 -140 0 -271 0 -272
-42 -16 c-24 -8 -156 -57 -294 -108 l-251 -93 -6 263 c-3 146 -7 266 -9 267
-2 2 -95 -10 -208 -26 -113 -15 -207 -28 -209 -29 -2 0 0 -325 4 -722 l7 -723
-36 34 c-31 30 -36 32 -42 17 -11 -29 3 -462 20 -601 9 -71 25 -179 35 -240
11 -60 21 -126 23 -144 l3 -35 -116 -36 -116 -37 -164 114 -164 113 -6 47 c-3
27 -9 278 -13 558 -9 575 0 524 -94 578 l-54 30 67 66 67 66 -7 500 -7 500
161 187 c89 103 165 189 169 192 15 9 870 105 914 103 18 -1 81 -47 197 -142z
m6586 79 c269 -30 313 -38 331 -55 12 -12 88 -98 169 -192 l147 -172 -1 -249
c-1 -137 -4 -252 -6 -256 -2 -4 -134 12 -292 35 l-288 40 -5 175 -5 175 -150
21 c-82 11 -169 23 -192 27 l-43 5 0 -341 0 -342 158 -28 c86 -15 229 -41 318
-58 l160 -31 162 -243 162 -244 0 -143 c0 -162 1 -165 92 -270 l48 -56 -46
-39 c-26 -21 -60 -56 -76 -77 -28 -39 -28 -41 -28 -185 l0 -146 -170 -170
-169 -169 -38 10 c-21 6 -126 37 -233 68 -107 32 -289 82 -404 111 -114 30
-209 55 -210 57 -6 9 -246 290 -283 330 l-43 47 0 175 0 174 73 6 c86 7 438
26 486 26 l34 0 -7 -168 -7 -169 192 -47 c105 -26 193 -46 194 -44 2 2 5 147
6 323 l4 320 -305 62 c-168 34 -310 62 -316 63 -6 0 -86 99 -177 220 l-167
220 1 493 0 492 173 141 173 140 134 -13 c74 -7 273 -29 444 -49z m-3377 -581
l3 -92 -55 -38 -55 -38 -1 -687 0 -686 33 -21 c73 -45 77 -53 77 -151 l0 -90
-222 0 -223 1 -205 375 c-113 207 -210 383 -217 392 -10 14 -12 -37 -12 -248
l0 -265 54 -38 55 -38 0 -90 c0 -63 -4 -91 -12 -94 -7 -2 -112 -9 -233 -15
-121 -6 -253 -14 -292 -17 l-73 -6 0 96 0 96 50 38 49 38 1 696 0 697 -50 32
-50 32 0 93 c0 52 3 96 8 98 4 3 106 8 227 12 l220 7 70 -179 c38 -98 132
-333 207 -523 l137 -345 1 397 0 396 -50 36 -50 36 0 88 c0 49 3 92 7 95 4 4
140 6 302 5 l296 -3 3 -92z m760 70 c21 -5 22 -10 22 -98 l0 -93 -50 -33 -49
-34 0 -695 0 -695 49 -39 50 -39 0 -95 0 -95 -92 6 c-51 4 -193 12 -315 18
l-223 13 0 93 0 93 50 36 50 36 -1 691 0 692 -50 38 -49 37 0 92 0 91 293 -7
c160 -4 302 -10 315 -13z m847 -53 c366 -30 315 -13 451 -152 l117 -120 -6
-525 c-4 -290 -7 -642 -7 -783 l0 -256 -120 -87 -119 -88 -118 20 c-169 29
-448 67 -663 91 -102 11 -191 22 -197 25 -9 3 -13 31 -13 94 l0 90 55 36 55
35 -1 697 0 698 -50 38 -49 37 0 98 0 98 208 -13 c114 -7 320 -22 457 -33z
m-3355 -70 l119 -95 0 -726 1 -727 50 -32 50 -32 0 -97 0 -96 -263 -29 c-144
-16 -279 -32 -299 -34 l-38 -4 0 101 0 101 40 36 40 36 0 177 0 178 -112 -14
c-62 -7 -128 -15 -145 -18 l-33 -6 0 -177 0 -177 45 -25 45 -25 0 -102 c0 -57
-1 -103 -2 -103 -3 0 -511 -87 -565 -97 l-33 -6 0 100 0 99 51 49 51 50 -7
750 -7 750 124 121 123 122 270 21 c149 12 286 23 305 25 62 6 68 3 190 -94z
m-1280 -1376 l0 -346 -72 -82 c-40 -44 -75 -85 -79 -89 -10 -12 -309 144 -411
215 l-28 19 0 193 0 193 168 72 c199 85 404 169 415 170 4 1 7 -155 7 -345z
m-759 -450 c18 -19 78 -69 131 -110 437 -336 995 -543 1707 -635 85 -10 156
-21 158 -22 1 -2 -48 -23 -110 -47 -106 -41 -372 -169 -365 -176 2 -1 43 6 92
17 260 58 685 126 997 160 231 25 702 35 1063 24 l240 -7 -235 -48 c-815 -165
-1439 -389 -1768 -634 l-34 -25 159 -104 c393 -259 816 -471 1159 -580 136
-44 327 -87 417 -94 38 -3 71 -9 73 -13 11 -19 -271 -198 -464 -294 -279 -140
-485 -204 -744 -231 l-57 -6 22 -32 c40 -57 172 -180 264 -246 255 -182 547
-269 879 -259 163 5 147 -1 -70 -28 -178 -21 -452 -14 -596 15 -193 39 -371
113 -475 197 -47 39 -56 42 -150 53 -554 69 -1027 289 -1384 643 -78 77 -210
234 -210 249 0 4 45 -11 99 -32 114 -45 268 -84 391 -99 94 -11 271 -13 320
-4 30 7 28 8 -52 39 -312 121 -607 326 -822 574 -302 347 -509 787 -620 1316
-38 182 -74 475 -58 475 4 0 24 -16 43 -36z m5036 -740 c-3 -3 -12 -4 -19 -1
-8 3 -5 6 6 6 11 1 17 -2 13 -5z m-290 -40 c-3 -3 -12 -4 -19 -1 -8 3 -5 6 6
6 11 1 17 -2 13 -5z m-90 -10 c-3 -3 -12 -4 -19 -1 -8 3 -5 6 6 6 11 1 17 -2
13 -5z m-124 -11 c-7 -2 -19 -2 -25 0 -7 3 -2 5 12 5 14 0 19 -2 13 -5z m-260
-10 c-24 -2 -62 -2 -85 0 -24 2 -5 4 42 4 47 0 66 -2 43 -4z"/>
<path d="M3470 7815 l0 -295 68 0 c38 0 124 3 190 7 l122 6 0 289 0 288 -190
0 -190 0 0 -295z"/>
<path d="M6897 8013 c-4 -54 -7 -382 -7 -729 l0 -632 68 -6 c37 -3 124 -8 195
-12 l127 -6 0 734 0 735 -52 7 c-29 3 -114 6 -189 6 l-136 0 -6 -97z"/>
<path d="M7078 4978 c-2 -359 -3 -654 -3 -655 0 -1 57 -9 125 -18 69 -8 140
-18 158 -21 l32 -6 0 664 0 665 -132 11 c-73 7 -143 12 -155 12 l-22 0 -3
-652z"/>
<path d="M3460 5623 c-69 -6 -133 -12 -142 -12 -17 -1 -18 -25 -18 -364 l0
-363 140 16 c77 9 142 19 145 22 3 3 4 164 3 359 l-3 354 -125 -12z"/>
</g>
</svg>
