<?xml version="1.0" standalone="no"?>
<!DOCTYPE svg PUBLIC "-//W3C//DTD SVG 20010904//EN"
 "http://www.w3.org/TR/2001/REC-SVG-20010904/DTD/svg10.dtd">
<svg version="1.0" xmlns="http://www.w3.org/2000/svg"
 width="60.000000pt" height="60.000000pt" viewBox="0 0 60.000000 60.000000"
 preserveAspectRatio="xMidYMid meet">

<g transform="translate(0.000000,60.000000) scale(0.100000,-0.100000)"
fill="#000000" stroke="none">
<path d="M284 560 c21 -80 23 -77 -33 -82 -30 -3 -64 -15 -86 -29 -42 -29 -44
-38 -7 -32 l27 5 -29 -21 c-47 -32 -76 -88 -76 -146 0 -60 14 -90 24 -51 8 34
22 33 31 -1 15 -62 88 -123 147 -123 22 0 21 1 -8 19 -66 40 -94 104 -74 165
20 61 35 61 35 0 0 -30 -3 -54 -7 -54 -5 0 -8 -4 -8 -9 0 -4 11 -6 25 -3 14 2
32 -1 40 -8 14 -11 14 -15 -1 -31 -20 -22 -20 -22 26 -9 33 10 37 8 62 -22 25
-31 28 -32 44 -16 17 16 16 19 -21 53 -20 20 -43 34 -50 31 -7 -2 -21 4 -31
15 -9 10 -23 19 -30 19 -19 0 -29 47 -15 76 13 29 35 33 26 4 -5 -14 -2 -20
10 -20 9 0 14 -4 11 -9 -3 -5 13 -12 36 -15 31 -5 52 -17 78 -45 l37 -38 20
21 c11 11 23 34 27 50 6 24 3 33 -19 50 -22 18 -25 25 -17 46 8 22 1 35 -51
105 -76 101 -81 106 -72 75 3 -14 9 -34 12 -45 3 -11 -13 4 -36 34 -51 68 -55
72 -47 41z m158 -224 c11 -20 10 -20 -13 -5 -13 9 -26 25 -28 35 -3 16 -1 17
13 5 10 -8 22 -24 28 -35z"/>
</g>
</svg>
