<?xml version="1.0" encoding="UTF-8"?>
<svg version="1.1" xmlns="http://www.w3.org/2000/svg" width="2479" height="3000">
<path d="M0 0 C-1.70042603 4.14415205 -4.6415183 7.24379837 -7.5625 10.5625 C-8.65723639 11.82206003 -9.75097798 13.08248534 -10.84375 14.34375 C-11.65199219 15.27574219 -11.65199219 15.27574219 -12.4765625 16.2265625 C-14.5478397 18.63774159 -16.55921009 21.09467909 -18.5625 23.5625 C-21.8457639 27.60710046 -25.18677239 31.59529875 -28.5625 35.5625 C-32.40393799 40.08412405 -36.17454723 44.64980961 -39.859375 49.30078125 C-41.46565509 51.32621837 -43.08005696 53.34356418 -44.703125 55.35546875 C-51.78561266 64.14524714 -58.68181626 73.06463187 -65.51416016 82.04980469 C-67.60300405 84.7914552 -69.70741566 87.52079518 -71.8125 90.25 C-73.54240449 92.49943749 -75.27154221 94.74945168 -77 97 C-77.87978516 98.1444458 -77.87978516 98.1444458 -78.77734375 99.31201172 C-91.06105538 115.30617045 -102.99070897 131.47938726 -114.32568359 148.16088867 C-117.5932971 152.96582232 -120.91492092 157.72366433 -124.3125 162.4375 C-128.69599767 168.52641556 -132.86964536 174.7373399 -137 181 C-137.7529535 182.12693923 -138.50689748 183.25321719 -139.26171875 184.37890625 C-158.76922595 213.47870087 -177.09239247 243.27903566 -194.77929688 273.51782227 C-196.87518574 277.10067133 -199.01001176 280.65335678 -201.1875 284.1875 C-203.69528699 288.34862024 -205.84841122 292.64314768 -207.984375 297.00488281 C-210.73220992 302.5677869 -213.69848885 308.0011523 -216.6875 313.4375 C-228.12663026 334.30371838 -238.87134297 355.46888846 -249 377 C-249.30077454 377.639375 -249.60154907 378.27875 -249.91143799 378.9375 C-285.58774164 454.92995806 -313.20350065 534.7925407 -339 682 C-339.11327637 683.00788574 -339.22655273 684.01577148 -339.34326172 685.05419922 C-339.49625732 686.41762451 -339.49625732 686.41762451 -339.65234375 687.80859375 C-339.73734131 688.56454834 -339.82233887 689.32050293 -339.90991211 690.09936523 C-341.85498131 709.1104066 -342.16234414 728.09022092 -342.13037109 747.19042969 C-342.1250082 750.99418115 -342.13035142 754.79781458 -342.13671875 758.6015625 C-342.14372683 778.18978037 -341.54458883 797.54188671 -339.25 817 C-339.16385437 817.74258057 -339.07770874 818.48516113 -338.98895264 819.25024414 C-337.27025309 833.95072677 -334.92649216 848.48894388 -332 863 C-331.78118164 864.09650879 -331.56236328 865.19301758 -331.33691406 866.32275391 C-322.30264398 910.92372587 -307.34666657 955.24212697 -285 995 C-283.9984133 996.85331004 -282.99827121 998.70740199 -282 1000.5625 C-281.525625 1001.42230469 -281.05125 1002.28210938 -280.5625 1003.16796875 C-279.40397846 1005.26778903 -278.26043956 1007.37589057 -277.125 1009.48828125 C-265.08173653 1031.65812352 -250.12631499 1052.61648871 -234 1072 C-232.76056641 1073.49853516 -232.76056641 1073.49853516 -231.49609375 1075.02734375 C-226.19540677 1081.38855029 -220.73104319 1087.56533637 -215.05957031 1093.59887695 C-212.21973319 1096.62819809 -209.57406129 1099.74359057 -207 1103 C-204.41649107 1105.70953375 -202.11856984 1107.92095344 -199 1110 C-199 1110.66 -199 1111.32 -199 1112 C-198.34 1112 -197.68 1112 -197 1112 C-197 1112.66 -197 1113.32 -197 1114 C-196.34 1114 -195.68 1114 -195 1114 C-195 1114.66 -195 1115.32 -195 1116 C-194.44441406 1116.22558594 -193.88882812 1116.45117188 -193.31640625 1116.68359375 C-190.31559681 1118.38894414 -188.32062463 1120.56706316 -185.9375 1123.0625 C-178.47637198 1130.72282677 -170.16573431 1137.23098842 -161.58203125 1143.58984375 C-161.05996094 1144.05519531 -160.53789062 1144.52054688 -160 1145 C-160 1145.66 -160 1146.32 -160 1147 C-159.42378906 1147.26844727 -158.84757812 1147.53689453 -158.25390625 1147.81347656 C-155.94504109 1149.02893201 -154.00687756 1150.39752987 -151.9375 1151.984375 C-150.75788696 1152.88192505 -150.75788696 1152.88192505 -149.55444336 1153.79760742 C-148.71147705 1154.44189697 -147.86851074 1155.08618652 -147 1155.75 C-124.73251237 1172.58817588 -101.55081803 1187.51727869 -77.44580078 1201.57373047 C-75.31407802 1202.8168453 -73.18603342 1204.06598592 -71.05859375 1205.31640625 C-59.06762895 1212.28726292 -46.63449499 1218.2858044 -34.07055664 1224.140625 C-30.04665628 1226.01921559 -26.07320317 1227.96541062 -22.125 1230 C-13.96537171 1234.1369544 -5.45552408 1237.52159616 3 1241 C0.4021671 1237.65369492 -2.29659167 1234.60177536 -5.328125 1231.64453125 C-6.12734375 1230.85755859 -6.9265625 1230.07058594 -7.75 1229.25976562 C-9.43050474 1227.61470904 -11.11282753 1225.97150783 -12.796875 1224.33007812 C-13.5909375 1223.54697266 -14.385 1222.76386719 -15.203125 1221.95703125 C-15.93176758 1221.24522705 -16.66041016 1220.53342285 -17.41113281 1219.80004883 C-19 1218 -19 1218 -19 1216 C-19.66 1216 -20.32 1216 -21 1216 C-21 1215.34 -21 1214.68 -21 1214 C-21.99 1213.67 -22.98 1213.34 -24 1213 C-25.33203125 1211.6796875 -25.33203125 1211.6796875 -26.8125 1209.875 C-30.36384414 1205.67521511 -34.09883417 1201.68328615 -37.875 1197.6875 C-42.70913389 1192.54565307 -47.32735069 1187.31381654 -51.734375 1181.796875 C-54.3793569 1178.53169045 -57.12297234 1175.36234593 -59.875 1172.1875 C-65.81625219 1165.29936368 -71.44779741 1158.20341525 -77 1151 C-77.50644043 1150.34660645 -78.01288086 1149.69321289 -78.53466797 1149.02001953 C-86.93053858 1138.18472083 -95.07590921 1127.18501263 -103 1116 C-103.46615723 1115.34209473 -103.93231445 1114.68418945 -104.41259766 1114.00634766 C-112.68744563 1102.27148769 -120.3948896 1090.1767619 -128 1078 C-128.41459473 1077.33709961 -128.82918945 1076.67419922 -129.25634766 1075.99121094 C-147.98526347 1045.86962865 -164.57312959 1013.83276609 -178 981 C-178.43618652 979.93958496 -178.87237305 978.87916992 -179.32177734 977.78662109 C-210.96458018 900.40140424 -227.37445895 818.04222211 -182.5546875 500.9453125 C-181.05371236 497.18460735 -179.70493389 493.3870925 -178.375 489.5625 C-176.64732687 484.66928383 -174.71198741 479.98210019 -172.50390625 475.2890625 C-170.8808552 471.73942876 -169.36242591 468.15428365 -167.84667969 464.55786133 C-162.0247214 450.76933543 -155.40467073 437.54752957 -148.35327148 424.35449219 C-146.17264299 420.263534 -144.06847566 416.14603517 -142.03222656 411.98144531 C-137.87900539 403.49515553 -133.24840445 395.3731233 -128.37255859 387.28320312 C-126.93230179 384.8873864 -125.50619184 382.48354117 -124.08203125 380.078125 C-110.07814008 356.48230902 -94.99746548 333.50574157 -78.30957031 311.71386719 C-76.3550959 309.15599799 -74.42813379 306.57775593 -72.5 304 C-71.44619141 302.60007812 -71.44619141 302.60007812 -70.37109375 301.171875 C-68.51674911 298.69126899 -66.67841844 296.20106182 -64.84765625 293.703125 C-64.30367187 292.96578125 -63.7596875 292.2284375 -63.19921875 291.46875 C-62.12241331 290.00902329 -61.0506446 288.54556534 -59.984375 287.078125 C-58.70427725 285.34881089 -57.35770971 283.66907216 -56 282 C-55.34 282 -54.68 282 -54 282 C-53.64421875 281.18208984 -53.64421875 281.18208984 -53.28125 280.34765625 C-51.67082426 277.39684567 -49.65847894 275.01295783 -47.5 272.4375 C-45.18760361 269.67088289 -43.00082301 267.00123452 -41 264 C-40.34 264 -39.68 264 -39 264 C-38.76667969 263.44828125 -38.53335938 262.8965625 -38.29296875 262.328125 C-36.65980716 259.38744733 -34.60660793 257.20922749 -32.3125 254.75 C-31.42046875 253.78449219 -30.5284375 252.81898438 -29.609375 251.82421875 C-28.74828125 250.89222656 -27.8871875 249.96023437 -27 249 C-25.68075642 247.52684466 -24.36727084 246.04848901 -23.0625 244.5625 C-22.53785156 243.96566406 -22.01320313 243.36882812 -21.47265625 242.75390625 C-19.92846293 240.96492716 -19.92846293 240.96492716 -18.43359375 238.77734375 C-17.96050781 238.19082031 -17.48742187 237.60429687 -17 237 C-16.34 237 -15.68 237 -15 237 C-14.62748108 236.14048737 -14.62748108 236.14048737 -14.24743652 235.26361084 C-12.80923841 232.65384211 -11.14579485 230.891671 -9.04101562 228.78222656 C-8.22677124 227.96167786 -7.41252686 227.14112915 -6.5736084 226.29571533 C-5.25326599 224.98144562 -5.25326599 224.98144562 -3.90625 223.640625 C-2.5525531 222.28405792 -2.5525531 222.28405792 -1.17150879 220.90008545 C0.73595104 218.99126509 2.64530412 217.08459451 4.55810547 215.18115234 C7.01306309 212.73762119 9.45888993 210.28517765 11.90215302 207.82995987 C14.23200594 205.49116087 16.56944531 203.15997507 18.90625 200.828125 C19.78647827 199.94384827 20.66670654 199.05957153 21.5736084 198.14849854 C22.79497498 196.93658844 22.79497498 196.93658844 24.04101562 195.70019531 C24.75890259 194.98389954 25.47678955 194.26760376 26.21643066 193.52960205 C28 192 28 192 30 192 C30.33 191.01 30.66 190.02 31 189 C32.390625 187.59765625 32.390625 187.59765625 34.25 186.0625 C38.11946262 182.78565778 41.8513017 179.39048178 45.5625 175.9375 C58.45736569 164 58.45736569 164 61 164 C61 163.34 61 162.68 61 162 C63.13185712 160.19450865 65.27335255 158.49375404 67.5 156.8125 C68.80339046 155.8102914 70.10548387 154.80639362 71.40625 153.80078125 C72.03402344 153.31561035 72.66179688 152.83043945 73.30859375 152.33056641 C75.27009028 150.78753002 77.14635107 149.17072305 79 147.5 C84.75720823 142.37041196 90.9000421 137.71047719 97 133 C97.79696289 132.38382813 98.59392578 131.76765625 99.41503906 131.1328125 C102.04374626 129.10440862 104.67733775 127.08250939 107.3125 125.0625 C108.11647217 124.44318604 108.92044434 123.82387207 109.7487793 123.18579102 C123.03754567 113.04035155 136.86581515 103.64331501 150.78442383 94.39013672 C153.0675886 92.8716156 155.34739779 91.34815139 157.62695312 89.82421875 C170.83975027 81.01101599 184.23083531 72.52655417 197.9375 64.5 C199.82426072 63.39199854 201.71097902 62.28392486 203.59765625 61.17578125 C204.51047363 60.64033691 205.42329102 60.10489258 206.36376953 59.55322266 C208.78996552 58.12374878 211.20734131 56.680826 213.62109375 55.23046875 C221.56032135 50.4735789 229.5798768 46.09853542 237.89453125 42.03515625 C241.40733485 40.31187828 244.86038803 38.49281376 248.30859375 36.64428711 C268.6364189 25.76035733 289.4843251 15.74696555 310.78857422 6.92578125 C312.96468055 6.01478598 315.12636136 5.0762143 317.28515625 4.125 C317.93991943 3.83761963 318.59468262 3.55023926 319.26928711 3.25415039 C320.97474673 2.50362251 322.67884658 1.75000673 324.3828125 0.99609375 C327 0 327 0 330 0 C328.72757348 2.66148909 327.34399338 5.07233827 325.63671875 7.4765625 C324.93494507 8.46825439 324.93494507 8.46825439 324.21899414 9.47998047 C323.71360107 10.18783691 323.20820801 10.89569336 322.6875 11.625 C322.15697021 12.37281738 321.62644043 13.12063477 321.07983398 13.89111328 C317.80322772 18.50035657 314.49330294 23.08470841 311.17041016 27.66064453 C305.54333047 35.4100543 300.05707566 43.23811417 294.67529297 51.15991211 C290.71210436 56.98653485 286.65231433 62.73191186 282.51171875 68.43359375 C278.87199196 73.5289032 275.46035923 78.78229189 272 84 C270.71409944 85.93005924 269.42765247 87.85975455 268.140625 89.7890625 C266.14112971 92.78817845 264.1417779 95.78738957 262.14282227 98.78686523 C259.04006276 103.44225316 255.93656489 108.09710809 252.82421875 112.74609375 C237.50945833 135.59370192 237.50945833 135.59370192 222.88916016 158.88720703 C221.03371941 161.94444011 219.16208607 164.99107618 217.28515625 168.03515625 C197.02537392 200.92929941 177.45865436 234.18071292 159.13671875 268.19921875 C156.65127293 272.80935693 154.12800543 277.39704907 151.58666992 281.9765625 C146.4708516 291.20306716 141.60231815 300.50759477 137 310 C136.55543457 310.91378418 136.11086914 311.82756836 135.65283203 312.76904297 C125.63767827 333.38493416 116.06235198 354.16833629 107.14746094 375.28417969 C106.37211126 377.1192839 105.59404505 378.95324236 104.81347656 380.78613281 C80.23174442 438.52646255 60.79657805 499.04337339 51.625 561.25 C51.50330444 562.0676181 51.38160889 562.88523621 51.25622559 563.72763062 C47.90552085 586.53737734 46.61485367 609.20399591 46.6875 632.25 C46.68932281 633.45711639 46.69114563 634.66423279 46.69302368 635.90792847 C46.73763269 653.47501304 47.26367171 670.62054481 50 688 C50.34439124 690.42308603 50.68811053 692.84626764 51.03125 695.26953125 C54.88905557 721.30720073 61.85223695 746.34869515 71 771 C71.45617389 772.25895353 71.91195458 773.51804966 72.3671875 774.77734375 C86.1228158 811.86359651 108.18755912 846.39927586 133 877 C133.75667969 877.95003906 134.51335938 878.90007813 135.29296875 879.87890625 C140.08867309 885.84595076 145.13519564 891.52112141 150.34375 897.125 C152.60449833 899.5719276 154.80655117 902.05570133 157 904.5625 C161.79358735 909.91020845 166.86798359 914.97745891 171.9375 920.0625 C173.21850586 921.35039429 173.21850586 921.35039429 174.52539062 922.66430664 C175.33041016 923.46731201 176.13542969 924.27031738 176.96484375 925.09765625 C177.6930835 925.82476807 178.42132324 926.55187988 179.17163086 927.30102539 C180.90094164 929.06765323 180.90094164 929.06765323 183 930 C183 930.66 183 931.32 183 932 C183.59683594 932.26683594 184.19367187 932.53367187 184.80859375 932.80859375 C187.04574324 934.02486932 188.34420067 935.20357259 190.0625 937.0625 C193.78870121 940.89945878 197.83130747 944.2097656 201.99609375 947.55859375 C204.56599938 949.64726868 207.08748348 951.78062027 209.59545898 953.94287109 C216.84783103 960.18206863 224.41881184 965.92561647 232.11474609 971.60400391 C233.86116455 972.89719488 235.59880402 974.20092307 237.33203125 975.51171875 C238.33621094 976.27097656 239.34039063 977.03023437 240.375 977.8125 C241.22835937 978.45832031 242.08171875 979.10414063 242.9609375 979.76953125 C251.44462661 985.99599202 260.17993482 991.8556007 268.9375 997.6875 C269.53014648 998.08217468 270.12279297 998.47684937 270.73339844 998.88348389 C296.12093877 1015.77419562 322.14433396 1031.54632341 349 1046 C342.1627777 1033.26751257 335.24834998 1020.5878799 328.10229492 1008.02587891 C322.86158544 998.79751947 317.74320653 989.50322725 312.64331055 980.1965332 C309.03411948 973.62588386 305.35286606 967.10921791 301.54394531 960.65209961 C299.50899155 957.1565742 297.5870009 953.6048252 295.6640625 950.046875 C293.64257044 946.34555151 291.5730616 942.67261172 289.5 939 C285.03133905 931.07429351 280.64186135 923.11325036 276.39697266 915.06494141 C270.98855798 904.8343677 265.262208 894.78646513 259.546875 884.72509766 C257.37799784 880.90423167 255.21810825 877.07836404 253.0625 873.25 C252.73386963 872.66806885 252.40523926 872.0861377 252.06665039 871.48657227 C247.31166885 863.04165796 242.72829508 854.50325287 238.15600586 845.95849609 C232.51274866 835.42238497 226.75924096 824.96204165 220.84350586 814.57666016 C215.21338139 804.66908669 209.75243342 794.66564677 204.43261719 784.58789062 C203.04145117 781.99367924 203.04145117 781.99367924 201.41894531 779.61523438 C197.92947243 774.22642815 197.92947243 774.22642815 198.11914062 770.92822266 C198.80704959 768.58005087 199.71509721 766.4676163 200.75 764.25 C201.5367669 762.38945337 202.3231977 760.52876459 203.109375 758.66796875 C203.56634766 757.62302246 204.02332031 756.57807617 204.49414062 755.50146484 C206.17007234 751.6045432 207.75716943 747.67837615 209.328125 743.73828125 C222.86904525 709.83110448 237.15516834 676.27174402 252.19384766 643.00292969 C253.74855296 639.56160998 255.28986461 636.11451309 256.82421875 632.6640625 C260.40417752 624.61990753 264.09254364 616.67424641 268.0859375 608.82421875 C270.47732528 604.0911046 272.72713986 599.29079247 275 594.5 C279.18081645 585.72013768 283.44080587 576.98165398 287.7734375 568.27587891 C288.41352444 566.98898412 289.0522464 565.7014093 289.68945312 564.41308594 C293.37155196 556.97462089 297.25752848 549.71495831 301.49511719 542.57543945 C303.24300501 539.58412396 304.76498067 536.56664787 306.25 533.4375 C309.51714056 526.78521833 313.15808247 520.39714947 316.91699219 514.01147461 C319.3078322 509.9462607 321.63096047 505.85964979 323.8671875 501.70703125 C327.24206864 495.47995403 330.89036823 489.43015007 334.5625 483.375 C339.71508942 474.89786538 339.71508942 474.89786538 344.62109375 466.27734375 C347.07745137 461.80205515 349.75665879 457.49149345 352.5 453.1875 C353.27331665 451.96969849 353.27331665 451.96969849 354.06225586 450.72729492 C363.45176639 435.97356169 372.98176569 421.33546495 383 407 C383.47791992 406.31341309 383.95583984 405.62682617 384.44824219 404.91943359 C391.74621359 394.44393411 399.26456303 384.15641106 407 374 C407.45149414 373.40670898 407.90298828 372.81341797 408.36816406 372.20214844 C415.30570317 363.10013796 422.40691453 354.14291307 429.6875 345.3125 C432.23618386 342.21892511 434.67143614 339.11828727 436.9375 335.8125 C437.618125 334.884375 438.29875 333.95625 439 333 C439.66 333 440.32 333 441 333 C441.32291016 332.19949219 441.32291016 332.19949219 441.65234375 331.3828125 C443.49576844 328.12342392 446.00013373 325.5718823 448.5625 322.875 C452.18633907 319.23596593 452.18633907 319.23596593 455 315 C455.66 315 456.32 315 457 315 C457.2475 314.443125 457.495 313.88625 457.75 313.3125 C460.36149067 308.48124227 464.13378998 304.83688224 468 301 C469.09623962 299.90002874 470.19164632 298.79922697 471.28637695 297.69775391 C474.58260183 294.38363131 477.88195521 291.07264202 481.18237305 287.76269531 C482.59799159 286.34204706 484.01271144 284.9205027 485.42651367 283.49804688 C487.48635431 281.42596386 489.54950788 279.35722771 491.61328125 277.2890625 C492.54494865 276.34965317 492.54494865 276.34965317 493.49543762 275.39126587 C497.27203338 271.61419776 501.16697831 268.03100475 505.21481323 264.5458374 C507.807244 262.30098744 510.30314766 259.96238274 512.8125 257.625 C528.66454082 243 528.66454082 243 532 243 C532 242.34 532 241.68 532 241 C534.39758227 238.99843324 536.81002402 237.113319 539.3125 235.25 C540.45307861 234.39088013 540.45307861 234.39088013 541.61669922 233.5144043 C544.07254591 231.66913967 546.5359132 229.83424218 549 228 C549.80131348 227.39945801 550.60262695 226.79891602 551.42822266 226.18017578 C561.74043405 218.45282502 572.1428208 210.94405474 583 204 C584.13912842 203.26813477 584.13912842 203.26813477 585.30126953 202.52148438 C604.44322769 190.2809967 624.27030566 179.42547223 644.92578125 169.96142578 C646.8264702 169.08043319 648.71106262 168.16492705 650.59375 167.24609375 C729.63660566 128.88182484 819.20497287 119.94821628 1088 165 C1088.69242798 165.2279425 1089.38485596 165.45588501 1090.0982666 165.69073486 C1102.780416 169.87693496 1115.44305402 174.11371406 1127.8359375 179.1015625 C1128.47034256 179.35609192 1129.10474762 179.61062134 1129.75837708 179.87286377 C1132.75187059 181.07816909 1135.73459828 182.30351816 1138.70678711 183.56054688 C1145.60852475 186.39557236 1151.55058147 187.82892902 1159 188 C1160.19294678 188.03061523 1161.38589355 188.06123047 1162.61499023 188.09277344 C1165.38921297 188.15397729 1168.16337733 188.19997802 1170.93798828 188.23950195 C1205.65021405 188.75623876 1240.77306426 191.03278602 1275 197 C1276.07427246 197.18143555 1277.14854492 197.36287109 1278.25537109 197.54980469 C1328.91167507 206.20989373 1384.4244145 224.5617636 1416 268 C1419.14527465 272.57506575 1422.1004539 277.26612087 1425 282 C1425.71567139 283.13816162 1425.71567139 283.13816162 1426.44580078 284.29931641 C1430.03042341 290.09439959 1432.95063341 295.93409021 1435.5 302.25 C1435.88309326 303.19746094 1436.26618652 304.14492188 1436.66088867 305.12109375 C1443.37576308 322.18941669 1447.16087181 339.9246383 1450 358 C1450.16935059 359.04019287 1450.33870117 360.08038574 1450.51318359 361.15209961 C1451.97285897 370.60746195 1452.63861874 380.01895836 1453.125 389.5625 C1453.18753967 390.75676605 1453.18753967 390.75676605 1453.25134277 391.97515869 C1454.55612608 417.11897473 1453.46152531 441.88392084 1452 467 C1448.83751017 465.78717381 1445.88484202 464.46565018 1442.9453125 462.78515625 C1442.17775635 462.35187012 1441.4102002 461.91858398 1440.61938477 461.47216797 C1439.79623779 461.00697754 1438.97309082 460.54178711 1438.125 460.0625 C1426.98454653 453.8613614 1415.58408624 448.31897573 1404 443 C1403.14889648 442.60570801 1402.29779297 442.21141602 1401.42089844 441.80517578 C1339.86531307 413.51277129 1265.23892134 400.29667129 1200 424 C1180.25338751 431.50222716 1162.53110897 441.33240734 1145.61547852 453.94360352 C1144 455 1144 455 1141 456 C1141 456.66 1141 457.32 1141 458 C1139.65064476 459.16050642 1138.24146852 460.25156471 1136.8125 461.3125 C1126.25836477 469.56445842 1117.13292336 479.37885707 1109 490 C1108.58041016 490.54317871 1108.16082031 491.08635742 1107.72851562 491.64599609 C1069.64648332 541.19433375 1052.20447987 602.63571457 1052.5625 664.625 C1052.56554138 665.75309082 1052.56858276 666.88118164 1052.57171631 668.04345703 C1052.64436129 686.34870012 1053.61659471 703.9834956 1057 722 C1057.32145996 723.76657959 1057.32145996 723.76657959 1057.64941406 725.56884766 C1062.46235616 751.44454143 1070.21446839 776.00867146 1081 800 C1081.43715332 800.97598145 1081.87430664 801.95196289 1082.32470703 802.95751953 C1096.36126666 833.99191663 1115.68171212 865.38728196 1140.34765625 889.2734375 C1142 891 1142 891 1142 893 C1142.66 893 1143.32 893 1144 893 C1145.36176922 894.64351457 1146.68962066 896.31522656 1148 898 C1151.86677224 902.09422944 1156.0745668 905.80400135 1160.2734375 909.55078125 C1162.06297012 911.15828405 1163.83957232 912.78032323 1165.6015625 914.41796875 C1172.75309105 921.05264642 1180.23685008 927.1067908 1188 933 C1188.59828613 933.4552002 1189.19657227 933.91040039 1189.81298828 934.37939453 C1199.55842538 941.75594883 1209.643913 948.51338505 1220 955 C1220.59151855 955.37302246 1221.18303711 955.74604492 1221.79248047 956.13037109 C1239.59185969 967.29770876 1258.35574687 977.09891454 1277.45800781 985.8293457 C1280.04773874 987.02198495 1282.62686725 988.23628308 1285.20610046 989.45141602 C1293.35725255 993.28288161 1301.58203814 996.92371454 1309.875 1000.4375 C1310.56309753 1000.72969421 1311.25119507 1001.02188843 1311.96014404 1001.32293701 C1330.0403486 1008.98350242 1348.35606619 1016.04178048 1366.67633057 1023.10345459 C1370.10231233 1024.42530708 1373.52588187 1025.75334734 1376.94921875 1027.08203125 C1387.01139528 1030.98486783 1397.0753175 1034.88258445 1407.15499878 1038.74000549 C1450.44181614 1055.31011772 1493.53304162 1072.41875449 1536 1091 C1537.40176673 1091.60805833 1538.80370955 1092.21571087 1540.20581055 1092.82299805 C1541.62159731 1093.43795311 1543.03736914 1094.05294254 1544.453125 1094.66796875 C1545.09439835 1094.94487549 1545.73567169 1095.22178223 1546.39637756 1095.50708008 C1550.9005677 1097.46862178 1555.30476078 1099.59362383 1559.6875 1101.8125 C1560.41565918 1102.18109131 1561.14381836 1102.54968262 1561.89404297 1102.92944336 C1562.48330566 1103.22987549 1563.07256836 1103.53030762 1563.6796875 1103.83984375 C1567.63242367 1105.83462234 1571.62808973 1107.72982864 1575.63427734 1109.61450195 C1602.3058414 1122.16739942 1628.6419116 1136.3455239 1653 1153 C1654.2055957 1153.82346924 1654.2055957 1153.82346924 1655.43554688 1154.66357422 C1672.94597109 1166.67630847 1689.45384091 1179.51432148 1705.359375 1193.58203125 C1706.7822061 1194.81176385 1708.26190222 1195.97510626 1709.75 1197.125 C1712.22316179 1199.18596816 1714.01011983 1201.47948511 1716 1204 C1716.99 1204.66 1717.98 1205.32 1719 1206 C1719 1206.66 1719 1207.32 1719 1208 C1719.66 1208 1720.32 1208 1721 1208 C1722.33984375 1209.328125 1722.33984375 1209.328125 1723.9375 1211.25 C1726.9194993 1214.77418099 1730.0161128 1218.14529562 1733.1875 1221.5 C1779.51995607 1271.49617584 1802.49527013 1339.37791743 1810 1406 C1810.08084839 1406.63636383 1810.16169678 1407.27272766 1810.24499512 1407.92837524 C1812.57044682 1426.40977804 1812.39688592 1444.96983266 1812.375 1463.5625 C1812.3749081 1464.40391792 1812.37481621 1465.24533585 1812.37472153 1466.11225128 C1812.37100261 1492.45992459 1811.64171841 1518.46787676 1808.29748535 1544.63409424 C1807.99518482 1547.03829518 1807.71107359 1549.44400146 1807.43261719 1551.85107422 C1804.7923822 1574.64706119 1801.05402935 1597.19581842 1796.79931641 1619.7421875 C1796.11009079 1623.39748861 1795.44694045 1627.05695835 1794.79296875 1630.71875 C1779.77235677 1713.58743316 1754.10383179 1795.18587776 1727.03082275 1874.81829834 C1726.39001408 1876.70577657 1725.75523626 1878.59529889 1725.12060547 1880.48486328 C1724.54656982 1882.15524658 1724.54656982 1882.15524658 1723.9609375 1883.859375 C1723.62884277 1884.83358398 1723.29674805 1885.80779297 1722.95458984 1886.81152344 C1722 1889 1722 1889 1720 1890 C1720.63720859 1883.97275636 1721.7351047 1878.09977598 1722.91674805 1872.15698242 C1725.79605433 1857.56162658 1728.14943653 1842.92318235 1730.1875 1828.1875 C1730.30765472 1827.34054565 1730.42780945 1826.49359131 1730.55160522 1825.62097168 C1734.70350684 1796.17509357 1736.57025922 1766.80367126 1736.44662857 1737.08455658 C1736.4373119 1734.70189525 1736.4329516 1732.3192607 1736.42929077 1729.93658447 C1736.38126147 1707.47369826 1735.89447175 1685.20140298 1732.58544922 1662.94384766 C1732.00499817 1659.03366991 1731.48658742 1655.11862272 1730.97265625 1651.19921875 C1725.07605895 1608.73398965 1712.42811969 1566.69094622 1694 1528 C1693.45931885 1526.86425537 1693.45931885 1526.86425537 1692.90771484 1525.70556641 C1691.01486318 1521.76868842 1689.05504923 1517.87146016 1687.03759766 1513.99707031 C1685.89240734 1511.79291577 1684.76496536 1509.58005943 1683.63671875 1507.3671875 C1676.20718764 1492.90337518 1667.81112655 1479.30874059 1658.40258789 1466.05004883 C1655 1461.2102512 1655 1461.2102512 1655 1459 C1654.34 1459 1653.68 1459 1653 1459 C1651.62280732 1457.15062697 1650.32516225 1455.24188444 1649.0625 1453.3125 C1644.62442031 1446.69848184 1639.69134646 1440.68845893 1634.46337891 1434.68994141 C1632.94341189 1432.93465084 1631.44439435 1431.16316031 1629.94921875 1429.38671875 C1624.72307025 1423.19500391 1619.45113901 1417.24114531 1613.546875 1411.671875 C1612 1410 1612 1410 1612 1408 C1611.34 1408 1610.68 1408 1610 1408 C1608.64613064 1406.34997172 1607.31321858 1404.6825613 1606 1403 C1605.34 1402.67 1604.68 1402.34 1604 1402 C1604 1401.34 1604 1400.68 1604 1400 C1602.68 1399.34 1601.36 1398.68 1600 1398 C1600 1397.34 1600 1396.68 1600 1396 C1599.40316406 1395.73316406 1598.80632813 1395.46632813 1598.19140625 1395.19140625 C1595.95425676 1393.97513068 1594.65579933 1392.79642741 1592.9375 1390.9375 C1589.2230053 1387.11259569 1585.19454376 1383.81109519 1581.04296875 1380.47265625 C1577.16458319 1377.32115682 1573.36945092 1374.07643273 1569.59130859 1370.80566406 C1567.02838082 1368.61210179 1564.45781444 1366.60518042 1561.61328125 1364.80078125 C1560.75089844 1364.20652344 1559.88851562 1363.61226562 1559 1363 C1559 1362.34 1559 1361.68 1559 1361 C1558.29230469 1360.76023437 1557.58460938 1360.52046875 1556.85546875 1360.2734375 C1553.53724311 1358.79362688 1551.13934592 1356.90864807 1548.3125 1354.625 C1540.21620416 1348.23392922 1531.65122813 1342.60552424 1523 1337 C1522.23381348 1336.50209961 1521.46762695 1336.00419922 1520.67822266 1335.49121094 C1508.37757867 1327.52601857 1495.79059609 1320.14700577 1483 1313 C1481.65566895 1312.24154785 1481.65566895 1312.24154785 1480.28417969 1311.46777344 C1467.595057 1304.31737335 1454.7246543 1297.9493522 1441.40087891 1292.07128906 C1438.15617826 1290.6234808 1434.95578307 1289.09459564 1431.75 1287.5625 C1354.02243111 1251.28398366 1269.29671588 1229.35165431 1185 1215 C1184.11755615 1214.84915955 1183.2351123 1214.69831909 1182.32592773 1214.54290771 C1152.99099101 1209.54236263 1123.55308782 1205.47372652 1094 1202 C1092.75171417 1201.85271454 1092.75171417 1201.85271454 1091.47821045 1201.70245361 C1060.40948592 1198.05657393 1029.21192699 1195.9874064 998 1194 C997.0590448 1193.93963562 996.1180896 1193.87927124 995.14862061 1193.81707764 C955.66896737 1191.29655788 916.16272693 1190.91199099 876.61413193 1190.87751007 C874.16093421 1190.87503624 871.70774242 1190.87107998 869.25454712 1190.86688232 C850.4787445 1190.83918644 831.75648369 1191.02153095 813 1192 C813.9708252 1192.13986328 814.94165039 1192.27972656 815.94189453 1192.42382812 C908.71856721 1205.84552963 999.87403693 1225.79210985 1089 1255 C1089.68243774 1255.22347107 1090.36487549 1255.44694214 1091.06799316 1255.67718506 C1123.96728712 1266.47753901 1156.40005126 1278.77848569 1188.09033203 1292.73193359 C1191.69587198 1294.30326893 1195.32543478 1295.81155503 1198.96020508 1297.3137207 C1206.16395268 1300.29325073 1213.17581524 1303.47979737 1220.1171875 1307.0390625 C1224.9869552 1309.52459193 1229.9362675 1311.84304493 1234.875 1314.1875 C1254.03241182 1323.32709008 1272.85855993 1332.81004081 1291.24902344 1343.41943359 C1293.88961391 1344.93657796 1296.53998118 1346.43461742 1299.1953125 1347.92578125 C1324.26047296 1362.03494453 1348.48845434 1377.43776558 1372 1394 C1372.60811523 1394.42788818 1373.21623047 1394.85577637 1373.84277344 1395.29663086 C1383.36697299 1402.01566046 1392.71019067 1408.96168252 1402 1416 C1402.56041992 1416.42249023 1403.12083984 1416.84498047 1403.69824219 1417.28027344 C1416.98041583 1427.30044213 1429.77287395 1437.92970519 1442.26708984 1448.91333008 C1444.77521326 1451.11220892 1447.22015493 1453.14676995 1450 1455 C1450 1455.66 1450 1456.32 1450 1457 C1450.59482178 1457.27336182 1451.18964355 1457.54672363 1451.80249023 1457.82836914 C1453.93285747 1458.96420209 1455.40873678 1460.10062334 1457.16015625 1461.74609375 C1457.77584473 1462.32294922 1458.3915332 1462.89980469 1459.02587891 1463.49414062 C1459.69796387 1464.13544922 1460.37004883 1464.77675781 1461.0625 1465.4375 C1461.77841309 1466.11619141 1462.49432617 1466.79488281 1463.23193359 1467.49414062 C1470.63037225 1474.56011683 1477.88178356 1481.77564068 1485.125 1489 C1485.71113068 1489.58345184 1486.29726135 1490.16690369 1486.90115356 1490.76803589 C1504.26405407 1508.07076567 1504.26405407 1508.07076567 1507 1514 C1507.66 1514 1508.32 1514 1509 1514 C1510.35382149 1515.48738235 1511.63139886 1517.04430551 1512.875 1518.625 C1515.93521756 1522.45760474 1519.03486484 1526.22314792 1522.26049805 1529.91723633 C1529.58047368 1538.30983255 1536.33083817 1547.08596197 1543 1556 C1543.46760742 1556.61955566 1543.93521484 1557.23911133 1544.41699219 1557.87744141 C1607.48869014 1641.49625478 1648.1030361 1743.35104408 1654.1875 1878.75 C1654.18689575 1879.92974396 1654.1862915 1881.10948792 1654.18566895 1882.32498169 C1654.16159815 1899.6252789 1653.96114456 1916.79194362 1652 1934 C1651.86577637 1935.18352051 1651.73155273 1936.36704102 1651.59326172 1937.58642578 C1642.38129807 2016.16865829 1618.52273034 2094.83314961 1580.39599609 2164.42724609 C1578.77570376 2167.41336722 1577.19388588 2170.41846721 1575.61328125 2173.42578125 C1564.33437541 2194.81753219 1552.39623857 2215.85006707 1539 2236 C1537.92307062 2237.63404442 1536.8462576 2239.26816554 1535.76953125 2240.90234375 C1524.95744732 2257.26173079 1513.68054026 2273.25100266 1502 2289 C1501.28094482 2289.97235596 1501.28094482 2289.97235596 1500.54736328 2290.96435547 C1491.00741256 2303.85099513 1481.04154088 2316.36304821 1470.83984375 2328.73046875 C1469.63644365 2330.21491771 1468.47956955 2331.73863503 1467.37890625 2333.30078125 C1466.92386719 2333.86152344 1466.46882813 2334.42226562 1466 2335 C1465.34 2335 1464.68 2335 1464 2335 C1465.40926143 2328.40666975 1467.03788425 2321.88620447 1468.71582031 2315.35644531 C1475.42846522 2289.17408554 1480.68466504 2262.84351858 1484 2236 C1484.08288269 2235.33035217 1484.16576538 2234.66070435 1484.25115967 2233.97076416 C1485.65718735 2222.45496182 1486.55348833 2210.96061873 1487.125 2199.375 C1487.18753967 2198.13194092 1487.18753967 2198.13194092 1487.25134277 2196.86376953 C1492.3546495 2094.1677186 1468.95189114 1993.73216038 1367.63671875 1823.16015625 C1366 1821 1366 1821 1366 1819 C1365.34 1819 1364.68 1819 1364 1819 C1362.6953125 1817.5234375 1362.6953125 1817.5234375 1361.125 1815.375 C1348.5438556 1798.7813507 1333.9228495 1783.85326854 1319.25 1769.125 C1318.37988281 1768.25020996 1317.50976562 1767.37541992 1316.61328125 1766.47412109 C1315.79730469 1765.66023926 1314.98132812 1764.84635742 1314.140625 1764.0078125 C1313.41391602 1763.28223145 1312.68720703 1762.55665039 1311.93847656 1761.80908203 C1309.92836939 1759.83512903 1309.92836939 1759.83512903 1307 1758 C1307 1757.34 1307 1756.68 1307 1756 C1306.46375 1755.773125 1305.9275 1755.54625 1305.375 1755.3125 C1302.17539839 1753.54429911 1299.70962777 1751.46329797 1297 1749 C1297 1748.34 1297 1747.68 1297 1747 C1296.47277344 1746.7834375 1295.94554687 1746.566875 1295.40234375 1746.34375 C1292.08673371 1744.48916487 1289.39302854 1742.00466458 1286.5625 1739.5 C1279.9094388 1733.71435339 1273.06557789 1728.27281932 1266 1723 C1265.26555664 1722.45021484 1264.53111328 1721.90042969 1263.77441406 1721.33398438 C1254.34842387 1714.2904719 1244.87845319 1707.39962292 1235 1701 C1233.52018199 1700.01790782 1232.04107646 1699.03474163 1230.5625 1698.05078125 C1219.4398076 1690.68729551 1208.07936234 1683.91458052 1196.4440918 1677.39648438 C1193.8784807 1675.93056734 1191.35049335 1674.41151443 1188.82421875 1672.87890625 C1182.87783074 1669.29106712 1176.71525914 1666.24768721 1170.47460938 1663.20849609 C1168.73647684 1662.35966459 1167.00102502 1661.50533244 1165.26757812 1660.64697266 C1149.13255877 1652.65802503 1132.76725735 1645.55350683 1116 1639 C1115.01773437 1638.61247559 1114.03546875 1638.22495117 1113.0234375 1637.82568359 C1063.07307701 1618.20111247 1011.04443497 1605.645223 958 1598 C964.94108843 1603.36536808 971.9062811 1608.69076775 978.9375 1613.9375 C993.04468628 1624.48194083 1006.74769269 1635.50156229 1020.16210938 1646.9140625 C1023.59040745 1649.82587913 1027.05974315 1652.67763477 1030.5625 1655.5 C1035.55168418 1659.55825768 1040.27670615 1663.84515566 1044.98046875 1668.2265625 C1047.19378639 1670.2797778 1049.45154838 1672.27281175 1051.73193359 1674.2512207 C1064.54744151 1685.44989512 1076.61720392 1697.45524096 1088.63061523 1709.50024414 C1091.08787782 1711.96293387 1093.55053317 1714.42014202 1096.01367188 1716.87695312 C1097.60448787 1718.468429 1099.19499413 1720.06021454 1100.78515625 1721.65234375 C1101.8696682 1722.73381935 1101.8696682 1722.73381935 1102.97608948 1723.83714294 C1115.45909824 1736.37729471 1115.45909824 1736.37729471 1117 1741 C1117.66 1741 1118.32 1741 1119 1741 C1120.3046875 1742.2578125 1120.3046875 1742.2578125 1121.875 1744.125 C1122.49375 1744.85332031 1123.1125 1745.58164063 1123.75 1746.33203125 C1124.4925 1747.21246094 1125.235 1748.09289063 1126 1749 C1126.93622987 1750.0883335 1127.87381646 1751.17550083 1128.8125 1752.26171875 C1139.38819171 1764.50995678 1149.47382472 1777.09267048 1159.36767578 1789.89599609 C1160.75525073 1791.68452749 1162.15274771 1793.46411601 1163.55859375 1795.23828125 C1179.87713083 1816.01483351 1194.52262203 1838.34933829 1207.89648438 1861.12402344 C1209.06482933 1863.11020987 1210.24276862 1865.09049759 1211.421875 1867.0703125 C1215.74668916 1874.35003675 1219.98944798 1881.67350768 1224.125 1889.0625 C1224.49616943 1889.72096924 1224.86733887 1890.37943848 1225.24975586 1891.05786133 C1240.64178305 1918.76749011 1253.18711956 1948.23854564 1264 1978 C1264.25372375 1978.6980072 1264.50744751 1979.3960144 1264.76885986 1980.11517334 C1272.27074835 2000.82305416 1278.7726919 2021.59164786 1284 2043 C1284.27537598 2044.12196777 1284.55075195 2045.24393555 1284.83447266 2046.39990234 C1291.07395869 2072.05363005 1295.69377041 2097.80979361 1299 2124 C1299.10940918 2124.84433594 1299.21881836 2125.68867188 1299.33154297 2126.55859375 C1302.43257769 2150.69750823 1303.34212927 2174.94375999 1303.26074219 2199.25585938 C1303.24937146 2202.68240804 1303.25613444 2206.10864494 1303.26761913 2209.53518295 C1303.33826754 2234.43607834 1302.27304219 2259.27073519 1299.1875 2284 C1299.10351959 2284.68759399 1299.01953918 2285.37518799 1298.93301392 2286.08361816 C1291.66928949 2345.43358213 1276.98779692 2405.94526961 1248.94726562 2459.18164062 C1247.61258641 2461.74367433 1246.33720168 2464.3338362 1245.05834961 2466.92407227 C1237.07686501 2483.06119006 1228.44501138 2498.66999721 1219 2514 C1218.49001465 2514.82886719 1217.9800293 2515.65773438 1217.45458984 2516.51171875 C1211.37210585 2526.36120665 1205.07070037 2535.9735243 1198.23095703 2545.31298828 C1196.0690148 2548.27590395 1193.94293726 2551.2643986 1191.8125 2554.25 C1191.39790527 2554.82806396 1190.98331055 2555.40612793 1190.55615234 2556.00170898 C1187.41776735 2560.38380578 1184.37161431 2564.82417284 1181.375 2569.3046875 C1180.92125 2569.86414062 1180.4675 2570.42359375 1180 2571 C1179.34 2571 1178.68 2571 1178 2571 C1177.76023437 2571.53882812 1177.52046875 2572.07765625 1177.2734375 2572.6328125 C1171.4815887 2583.39925537 1162.00637942 2592.82552567 1154 2602 C1153.01 2603.14275391 1153.01 2603.14275391 1152 2604.30859375 C1148.00831505 2608.90087945 1143.9235907 2613.40569561 1139.8203125 2617.8984375 C1137.96323333 2619.86723421 1137.96323333 2619.86723421 1137 2622 C1136.34 2622 1135.68 2622 1135 2622 C1134.76023437 2622.56847656 1134.52046875 2623.13695313 1134.2734375 2623.72265625 C1132.74154841 2626.46220023 1130.88906571 2628.26745695 1128.625 2630.4375 C1126.16509636 2632.8345307 1123.89786547 2635.12766816 1121.75 2637.8125 C1120 2640 1120 2640 1117.6875 2641.8125 C1114.57455894 2644.34628923 1112.18712888 2647.19714374 1109.6484375 2650.29296875 C1108 2652 1108 2652 1105 2653 C1105 2653.66 1105 2654.32 1105 2655 C1103.35648543 2656.36176922 1101.68477344 2657.68962066 1100 2659 C1097.53649043 2661.39507875 1095.14352662 2663.85173076 1092.75390625 2666.3203125 C1091.94824219 2667.14273438 1091.14257812 2667.96515625 1090.3125 2668.8125 C1089.54550781 2669.60269531 1088.77851562 2670.39289062 1087.98828125 2671.20703125 C1086 2673 1086 2673 1084 2673 C1083.67 2673.99 1083.34 2674.98 1083 2676 C1081.57421875 2677.4375 1081.57421875 2677.4375 1079.6875 2679 C1076.10031994 2682.03629169 1072.62873276 2685.17557761 1069.1875 2688.375 C1064.49068003 2692.71839149 1059.63727659 2696.80414323 1054.65234375 2700.81640625 C1052.00732363 2702.99397068 1049.46787475 2705.25318763 1046.9375 2707.5625 C1042.12863978 2711.93833489 1037.10890198 2715.98239828 1032 2720 C1030.49928317 2721.20744294 1028.99930296 2722.41580189 1027.5 2723.625 C1019.73509774 2729.83692181 1011.86027198 2735.90961398 1004 2742 C1003.37061523 2742.48855469 1002.74123047 2742.97710938 1002.09277344 2743.48046875 C994.82284081 2749.12183948 987.46837263 2754.62389759 980 2760 C978.67154419 2760.96438821 977.34344596 2761.92926912 976.015625 2762.89453125 C956.11383504 2777.34429403 935.88939491 2791.21663108 915.25 2804.58984375 C911.90798898 2806.75662185 908.57452974 2808.93540923 905.25 2811.12890625 C894.23141946 2818.37979907 883.03817255 2825.30097138 871.73046875 2832.08886719 C866.87262414 2835.00966626 862.03731352 2837.93045938 857.35546875 2841.12890625 C853.32223249 2843.86266213 849.12403618 2846.17133732 844.83007812 2848.46826172 C840.0669751 2851.04622138 835.41719514 2853.81592118 830.75 2856.5625 C812.13111546 2867.45472028 793.36300401 2877.97663375 774.26367188 2888.0012207 C767.27888482 2891.67474143 760.40858992 2895.47043057 753.61157227 2899.48583984 C750.24686716 2901.43665793 746.8135736 2903.18518502 743.3125 2904.875 C737.6687662 2907.64462907 732.1001955 2910.52434109 726.5625 2913.5 C720.20822272 2916.90462308 713.76473252 2920.03459386 707.22143555 2923.05737305 C702.68618872 2925.16653603 698.26409371 2927.4154261 693.875 2929.8125 C684.79966981 2934.75011563 675.44744592 2939.10189114 666.11181641 2943.52050781 C662.95798807 2945.01997429 659.81192886 2946.53464777 656.66796875 2948.0546875 C646.19823736 2953.11477642 635.72134697 2958.12750839 625.06958008 2962.79541016 C620.39394658 2964.85978745 615.82052407 2967.07851818 611.2578125 2969.3828125 C604.449907 2972.81921442 597.53682938 2975.97682212 590.5625 2979.0625 C588.0410184 2980.18083566 585.52032531 2981.3009361 583 2982.421875 C582.35458755 2982.70863602 581.70917511 2982.99539703 581.04420471 2983.29084778 C576.15532485 2985.46916668 571.29376664 2987.70319429 566.4375 2989.953125 C564.32991774 2990.92431008 562.22190629 2991.89455699 560.11373901 2992.86447144 C558.75571636 2993.49211369 557.39949783 2994.12367563 556.04519653 2994.75930786 C554.15058869 2995.64800884 552.24999747 2996.52253455 550.34765625 2997.39453125 C549.26492432 2997.89831299 548.18219238 2998.40209473 547.06665039 2998.92114258 C542.95658077 3000.36707823 539.79639533 3000.61467426 535.65185547 2999.1965332 C534.89791504 2998.81843506 534.14397461 2998.44033691 533.3671875 2998.05078125 C532.49400879 2997.62192627 531.62083008 2997.19307129 530.72119141 2996.7512207 C529.78194824 2996.27644287 528.84270508 2995.80166504 527.875 2995.3125 C525.79776023 2994.28986657 523.71959462 2993.26911212 521.640625 2992.25 C520.00770508 2991.445625 520.00770508 2991.445625 518.34179688 2990.625 C512.80929472 2987.93473595 507.21483224 2985.3808873 501.625 2982.8125 C488.93906884 2976.95534662 476.36342851 2970.88402717 463.80220032 2964.76498413 C463.11723984 2964.43132843 462.43227936 2964.09767273 461.7265625 2963.75390625 C461.05082687 2963.4246817 460.37509125 2963.09545715 459.67887878 2962.7562561 C455.01514526 2960.48670404 450.3356922 2958.25240553 445.64672852 2956.03540039 C433.59920258 2950.33430852 421.67395665 2944.39158892 409.75 2938.4375 C408.42151535 2937.77519882 408.42151535 2937.77519882 407.06619263 2937.09951782 C392.36499096 2929.76587526 377.81644857 2922.16718074 363.31777954 2914.44229126 C357.37400999 2911.27877557 351.40784844 2908.17782129 345.375 2905.1875 C329.75043092 2897.42608433 314.35697352 2889.29416401 299.20483398 2880.64575195 C293.68399037 2877.4991498 288.13460998 2874.43769683 282.5 2871.5 C272.86739299 2866.46857912 263.44185517 2861.07770158 253.99804688 2855.70263672 C251.00778423 2854.00442078 248.01267363 2852.31511363 245.015625 2850.62890625 C234.3522916 2844.62808657 223.73827083 2838.55920097 213.21679688 2832.31298828 C210.83021862 2830.89944006 208.43893309 2829.49409768 206.046875 2828.08984375 C194.38843856 2821.23758668 182.80378247 2814.26902304 171.25585938 2807.23266602 C165.22099791 2803.55643549 159.17293873 2799.90539332 153.09375 2796.30273438 C144.05059648 2790.93703208 135.22455362 2785.2886712 126.44213867 2779.5065918 C119.89342515 2775.20372101 113.28377292 2771.03179231 106.54833984 2767.02709961 C99.86473689 2763.02077803 93.42573311 2758.65219278 86.95709229 2754.31137085 C83.89232726 2752.2577919 80.81900387 2750.21714236 77.74609375 2748.17578125 C50.21521242 2729.86721422 22.79694308 2711.38155432 -3.94921875 2691.9375 C-7.01983805 2689.70537101 -10.10730386 2687.49912686 -13.20629883 2685.30664062 C-22.12310396 2678.99247284 -30.83775435 2672.4118351 -39.56201172 2665.83544922 C-42.51572151 2663.611737 -45.47637436 2661.39741444 -48.4375 2659.18359375 C-56.00866731 2653.5200057 -63.5271417 2647.79291341 -71 2642 C-71.70979004 2641.45021484 -72.41958008 2640.90042969 -73.15087891 2640.33398438 C-88.83071831 2628.1831878 -88.83071831 2628.1831878 -96.53125 2621.97265625 C-98.41701861 2620.46583165 -100.31182649 2618.97573749 -102.21875 2617.49609375 C-108.87915013 2612.32148955 -115.3758446 2607.0183567 -121.74243164 2601.48583984 C-125.79446218 2597.98288182 -129.94909458 2594.64905076 -134.1875 2591.375 C-139.47890345 2587.28196746 -144.44954085 2582.95240279 -149.35546875 2578.3984375 C-152.00081871 2575.99925748 -154.72008912 2573.74122942 -157.5 2571.5 C-162.31265364 2567.61417695 -166.89232019 2563.5252432 -171.4453125 2559.33984375 C-173.62697815 2557.34165152 -175.83011309 2555.37851111 -178.0625 2553.4375 C-181.89501379 2550.10453994 -185.6710797 2546.71164344 -189.44140625 2543.30859375 C-191.09252333 2541.8188072 -192.74600144 2540.33163123 -194.40234375 2538.84765625 C-201.33374486 2532.63523354 -208.17645924 2526.33029518 -215 2520 C-215.63196289 2519.41460449 -216.26392578 2518.82920898 -216.91503906 2518.22607422 C-223.49964301 2512.12346982 -230.06708402 2506.03128395 -236.34765625 2499.61328125 C-237.99370112 2498.00614997 -239.70560347 2496.56300369 -241.5 2495.125 C-242.7375 2494.073125 -242.7375 2494.073125 -244 2493 C-244 2492.34 -244 2491.68 -244 2491 C-244.928125 2490.62875 -244.928125 2490.62875 -245.875 2490.25 C-248.40358627 2488.76259631 -248.71839004 2487.56321991 -250 2485 C-250.56879883 2484.73509766 -251.13759766 2484.47019531 -251.72363281 2484.19726562 C-254.79004035 2482.5844747 -257.0067119 2480.27917978 -259.421875 2477.84375 C-260.17914886 2477.08934631 -260.17914886 2477.08934631 -260.95172119 2476.31970215 C-262.01307997 2475.25970014 -263.07193419 2474.19718512 -264.12841797 2473.13232422 C-265.75139124 2471.49859954 -267.38481068 2469.87586706 -269.01953125 2468.25390625 C-270.05012146 2467.22199524 -271.08009152 2466.18946441 -272.109375 2465.15625 C-272.59992371 2464.66974976 -273.09047241 2464.18324951 -273.59588623 2463.68200684 C-277 2460.22994349 -277 2460.22994349 -277 2458 C-277.99 2457.67 -278.98 2457.34 -280 2457 C-280 2456.34 -280 2455.68 -280 2455 C-280.99 2454.67 -281.98 2454.34 -283 2454 C-284.5078125 2452.46875 -284.5078125 2452.46875 -286.125 2450.5 C-288.79214921 2447.34893765 -291.55564922 2444.39410589 -294.5 2441.5 C-297.98546826 2438.06195307 -301.24618155 2434.50971296 -304.42578125 2430.7890625 C-305.86741181 2429.15068335 -307.36254459 2427.63378081 -308.9375 2426.125 C-311 2424 -311 2424 -311 2422 C-311.66 2422 -312.32 2422 -313 2422 C-314.375 2420.63671875 -314.375 2420.63671875 -316 2418.6875 C-318.88858397 2415.28352552 -321.84793678 2411.96917602 -324.875 2408.6875 C-328.99906676 2404.17096163 -332.87936865 2399.50866984 -336.71875 2394.75 C-339.06718968 2391.91900422 -341.50909902 2389.20616402 -344 2386.5 C-348.03386975 2382.1123909 -351.83630289 2377.59450227 -355.578125 2372.95703125 C-358.37141194 2369.54651801 -361.24286243 2366.21035716 -364.125 2362.875 C-367.9316198 2358.458091 -371.64851285 2354.0075072 -375.1875 2349.37109375 C-377.44976688 2346.41161962 -379.75676402 2343.48809713 -382.0625 2340.5625 C-383.51958535 2338.70823486 -384.9757375 2336.85324038 -386.43164062 2334.99804688 C-387.50006205 2333.63690726 -388.56909732 2332.2762493 -389.63867188 2330.91601562 C-400.97951143 2316.48102793 -411.97515306 2301.80029394 -422.57055664 2286.80834961 C-424.48130078 2284.10612063 -426.41793516 2281.43127796 -428.42578125 2278.80078125 C-429.17214844 2277.81464844 -429.91851562 2276.82851562 -430.6875 2275.8125 C-431.68330078 2274.52279297 -431.68330078 2274.52279297 -432.69921875 2273.20703125 C-433.12847656 2272.47871094 -433.55773437 2271.75039062 -434 2271 C-433.67 2270.01 -433.34 2269.02 -433 2268 C-432.54375244 2268.36125977 -432.08750488 2268.72251953 -431.61743164 2269.09472656 C-399.05686064 2294.81176979 -364.08293359 2317.54913689 -328 2338 C-326.90921143 2338.6197168 -326.90921143 2338.6197168 -325.79638672 2339.25195312 C-313.03028466 2346.48464484 -300.05635855 2353.30780629 -287 2360 C-285.93523437 2360.54672363 -284.87046875 2361.09344727 -283.7734375 2361.65673828 C-204.15598392 2402.39480591 -119.21012952 2431.3797315 58.35742188 2485.57958984 C82.92178696 2492.78377927 107.40992425 2500.23015605 131.86473083 2507.79676819 C136.33969632 2509.18076225 140.81700802 2510.55655241 145.29776001 2511.92169189 C164.35944399 2517.7338658 183.16934948 2524.14753639 201.93829346 2530.84312439 C206.58469107 2532.50029826 211.23972504 2534.12943416 215.90454102 2535.73413086 C258.07154392 2550.27815374 298.9038604 2567.46810746 339 2587 C339.95197266 2587.46164551 340.90394531 2587.92329102 341.88476562 2588.39892578 C356.24733213 2595.38142789 370.19536715 2602.9727426 384 2611 C384.69641602 2611.40428223 385.39283203 2611.80856445 386.11035156 2612.22509766 C416.98306396 2630.23550399 446.17743885 2650.79382423 473.4375 2673.9140625 C474.02917969 2674.41574951 474.62085938 2674.91743652 475.23046875 2675.43432617 C476.38076341 2676.41147356 477.52930277 2677.39069237 478.67578125 2678.37231445 C481.05436187 2680.40082171 483.39466649 2682.26311099 486 2684 C486 2684.66 486 2685.32 486 2686 C486.58265625 2686.25394531 487.1653125 2686.50789063 487.765625 2686.76953125 C490.24188033 2688.13320333 491.80520626 2689.64225203 493.75 2691.6875 C496.39009289 2694.40079324 499.05914152 2696.97854306 501.9375 2699.4375 C505.01478691 2702.07407604 507.89917894 2704.84691899 510.75390625 2707.72265625 C511.55256104 2708.52582275 512.35121582 2709.32898926 513.17407227 2710.15649414 C513.77662842 2710.76485107 514.37918457 2711.37320801 515 2712 C515.69046746 2662.37132334 508.35589811 2615.31255302 485 2571 C484.49855469 2570.02933594 483.99710938 2569.05867188 483.48046875 2568.05859375 C474.43823387 2550.94560376 462.76976507 2535.6953359 450.49243164 2520.80981445 C449.51893382 2519.62929108 448.54918126 2518.44566626 447.58374023 2517.25854492 C444.9540569 2514.04632755 442.24393579 2511.57851307 439 2509 C437.66666667 2507.33333333 436.33333333 2505.66666667 435 2504 C433.34997172 2502.64613064 431.6825613 2501.31321858 430 2500 C427.82392807 2497.88119312 425.68552554 2495.7399015 423.62109375 2493.51171875 C418.26833982 2487.89065635 412.15064062 2483.25449034 406.00927734 2478.54296875 C403.92404446 2476.94167205 401.84655162 2475.3306809 399.76953125 2473.71875 C391.35209229 2467.2071822 382.85607301 2460.90752165 374 2455 C373.41444336 2454.60699707 372.82888672 2454.21399414 372.22558594 2453.80908203 C350.93701565 2439.57381892 328.61232314 2426.98755059 306 2415 C304.39825205 2414.14357591 302.79667977 2413.28682317 301.1953125 2412.4296875 C284.0359761 2403.28253514 266.73714913 2394.23002566 248.82202148 2386.64770508 C245.29336062 2385.14065944 241.81835054 2383.53520383 238.34765625 2381.8984375 C229.55163507 2377.77055814 220.70866207 2373.74770484 211.85791016 2369.73876953 C209.13451429 2368.50431263 206.41296608 2367.26584216 203.69140625 2366.02734375 C194.72751105 2361.95996445 185.74653994 2357.9784388 176.61196899 2354.30737305 C172.22102805 2352.5379716 167.95490569 2350.60664906 163.6875 2348.5625 C157.12932276 2345.43653734 150.44849032 2342.70873788 143.66674805 2340.10375977 C138.66985848 2338.15899916 133.80052602 2336.00470846 128.953125 2333.71484375 C120.63974437 2329.78830287 112.20853823 2326.16320897 103.75 2322.5625 C102.19620588 2321.89863216 100.64249568 2321.23456786 99.08886719 2320.5703125 C91.15586911 2317.18139523 83.21099338 2313.82267215 75.25 2310.5 C68.70652978 2307.76545839 62.27323606 2304.84512159 55.86328125 2301.8125 C51.68361421 2299.84004877 47.4683085 2297.9505543 43.25 2296.0625 C39.49908985 2294.37702035 35.749562 2292.68847625 32 2291 C31.41261047 2290.7359436 30.82522095 2290.47188721 30.22003174 2290.1998291 C6.06863097 2279.34101103 -17.79408902 2267.94960811 -41.53356934 2256.21856689 C-43.94524006 2255.02705474 -46.35779616 2253.83735187 -48.77050781 2252.64794922 C-65.16794606 2244.55819193 -81.44611264 2236.33090011 -97.42138672 2227.42822266 C-100.14812863 2225.91795565 -102.88657929 2224.43098644 -105.62890625 2222.94921875 C-116.1190135 2217.27981386 -126.49108816 2211.46614284 -136.72753906 2205.35107422 C-139.23633247 2203.85949034 -141.75413048 2202.38391003 -144.2734375 2200.91015625 C-145.20220703 2200.36544678 -146.13097656 2199.8207373 -147.08789062 2199.25952148 C-148.84841613 2198.22704792 -150.60999768 2197.19637107 -152.37304688 2196.16821289 C-168.05389849 2186.94268512 -183.26080914 2176.9438098 -198.38891602 2166.84594727 C-201.06180836 2165.06296136 -203.73876969 2163.28620567 -206.41601562 2161.50976562 C-217.80567621 2153.93049412 -228.96702196 2146.08844864 -240 2138 C-241.46481812 2136.93422729 -241.46481812 2136.93422729 -242.95922852 2135.84692383 C-253.13928859 2128.43819765 -263.18366004 2120.88458858 -273 2113 C-273.63502441 2112.49114258 -274.27004883 2111.98228516 -274.92431641 2111.45800781 C-283.85030571 2104.29369827 -292.62318229 2096.97306009 -301.27783203 2089.48388672 C-303.02069184 2087.98217111 -304.7724685 2086.49155636 -306.52734375 2085.00390625 C-313.06909825 2079.45026682 -319.48684698 2073.79984819 -325.73852539 2067.91992188 C-327.87978006 2065.9132053 -329.98835726 2064.00843426 -332.3671875 2062.28515625 C-332.90601563 2061.86105469 -333.44484375 2061.43695312 -334 2061 C-334 2060.34 -334 2059.68 -334 2059 C-334.57435791 2058.75161377 -335.14871582 2058.50322754 -335.74047852 2058.24731445 C-338.33942136 2056.81263061 -340.06959671 2055.15681942 -342.15234375 2053.04296875 C-342.92900391 2052.25986328 -343.70566406 2051.47675781 -344.50585938 2050.66992188 C-345.30830078 2049.85072266 -346.11074219 2049.03152344 -346.9375 2048.1875 C-347.73607422 2047.37990234 -348.53464844 2046.57230469 -349.35742188 2045.74023438 C-350.9050985 2044.17460624 -352.45097626 2042.60719742 -353.99487305 2041.0378418 C-357.55169648 2037.42298667 -361.14957496 2033.85220978 -364.76953125 2030.30078125 C-366.11727642 2028.97144431 -367.46493096 2027.64201548 -368.8125 2026.3125 C-369.50537109 2025.63638672 -370.19824219 2024.96027344 -370.91210938 2024.26367188 C-371.8934082 2023.29204102 -371.8934082 2023.29204102 -372.89453125 2022.30078125 C-373.49112549 2021.71466064 -374.08771973 2021.12854004 -374.70239258 2020.5246582 C-376 2019 -376 2019 -376 2017 C-376.99 2016.67 -377.98 2016.34 -379 2016 C-380.4375 2014.57421875 -380.4375 2014.57421875 -382 2012.6875 C-385.1038686 2009.02348526 -388.30390916 2005.46373917 -391.5625 2001.9375 C-403 1989.49189638 -403 1989.49189638 -403 1987 C-403.66 1987 -404.32 1987 -405 1987 C-406.62890625 1985.19921875 -406.62890625 1985.19921875 -408.5625 1982.6875 C-411.43601122 1979.00258364 -414.33623451 1975.35256597 -417.3125 1971.75 C-422.64250292 1965.2446631 -427.84211373 1958.64217009 -433 1952 C-433.51079102 1951.34225586 -434.02158203 1950.68451172 -434.54785156 1950.00683594 C-446.21681085 1934.9443161 -457.44750187 1919.61130632 -467.89746094 1903.67578125 C-469.56077481 1901.14766203 -471.25099517 1898.63768736 -472.9375 1896.125 C-474.29397286 1894.08486483 -475.64796324 1892.04307776 -477 1890 C-477.59651367 1889.10087891 -477.59651367 1889.10087891 -478.20507812 1888.18359375 C-490.55350039 1869.51956621 -501.60148752 1850.09800829 -512.54248047 1830.5859375 C-513.86050651 1828.24748995 -515.19316901 1825.91850297 -516.53515625 1823.59375 C-521.11825612 1815.62790884 -525.20223327 1807.54183214 -529.046875 1799.1953125 C-530.88602119 1795.21171455 -532.83146162 1791.28955185 -534.8125 1787.375 C-542.21482655 1772.67233286 -549.40776466 1757.90667516 -555.53125 1742.62109375 C-556.74046599 1739.63986178 -558.01286427 1736.72544567 -559.375 1733.8125 C-561.88583796 1728.37649437 -564.16465815 1722.85107659 -566.4375 1717.3125 C-566.97673096 1716.00406128 -566.97673096 1716.00406128 -567.52685547 1714.66918945 C-597.2557813 1641.83265786 -617.95177695 1565.14114381 -633.55908203 1488.16162109 C-634.21440056 1484.94889116 -634.89070123 1481.74056849 -635.5625 1478.53125 C-657.11015101 1373.5153356 -668.07859928 1262.81038908 -667 1146 C-664.8264646 1148.1735354 -664.36033253 1149.42010265 -663.40283203 1152.29321289 C-663.10089432 1153.18884445 -662.7989566 1154.08447601 -662.48786926 1155.00724792 C-662.00274117 1156.47512505 -662.00274117 1156.47512505 -661.5078125 1157.97265625 C-661.16598434 1158.99003372 -660.82415619 1160.00741119 -660.4719696 1161.05561829 C-659.73587767 1163.24689179 -659.00219814 1165.43897682 -658.2706604 1167.6317749 C-656.3482085 1173.38863268 -654.40283436 1179.13771921 -652.45703125 1184.88671875 C-651.87827492 1186.59761688 -651.87827492 1186.59761688 -651.28782654 1188.34307861 C-642.97728437 1212.85985925 -633.77352421 1237.01675975 -624.30696106 1261.10731506 C-622.6814551 1265.24699721 -621.08071413 1269.3952212 -619.49609375 1273.55078125 C-616.61374234 1281.06081438 -613.56689797 1288.5015172 -610.5 1295.9375 C-610.19797668 1296.67033203 -609.89595337 1297.40316406 -609.58477783 1298.15820312 C-600.42409381 1320.3627289 -590.85871316 1342.35721579 -580.71484375 1364.1328125 C-578.32647634 1369.26867531 -576.02262903 1374.43713258 -573.75 1379.625 C-568.48737221 1391.57806909 -562.49834471 1403.13023243 -556.35351562 1414.64916992 C-553.84892566 1419.3560162 -551.42849774 1424.09714954 -549.0625 1428.875 C-536.8162348 1453.52862548 -523.18523644 1477.4161514 -509 1501 C-508.39317383 1502.00901367 -507.78634766 1503.01802734 -507.16113281 1504.05761719 C-488.64452948 1534.73494513 -468.48207061 1564.32232903 -447 1593 C-446.4548877 1593.72815918 -445.90977539 1594.45631836 -445.34814453 1595.20654297 C-437.68576103 1605.41001129 -429.7155066 1615.3232241 -421.55126953 1625.12841797 C-419.40816825 1627.7140356 -417.29927577 1630.32624335 -415.1875 1632.9375 C-410.95762008 1638.11343439 -406.50639238 1643.06479865 -402 1648 C-400.45676238 1649.70691433 -398.91508698 1651.41524242 -397.375 1653.125 C-396.6325 1653.94871094 -395.89 1654.77242187 -395.125 1655.62109375 C-393.1860507 1657.79171898 -391.27676876 1659.98433485 -389.375 1662.1875 C-386.65817883 1665.31121835 -383.79653048 1668.22885426 -380.84155273 1671.12597656 C-379.06842084 1672.93037274 -377.42013816 1674.79180649 -375.77734375 1676.71484375 C-372.04224835 1681.00906742 -368.09731448 1685.05103064 -364.0625 1689.0625 C-363.39798828 1689.73087891 -362.73347656 1690.39925781 -362.04882812 1691.08789062 C-358.14804633 1694.98110543 -354.13852066 1698.68288453 -349.96655273 1702.28295898 C-346.73356353 1705.1057539 -343.62301279 1708.05678468 -340.5 1711 C-332.95234936 1718.07198174 -325.26037297 1724.84549286 -317.2265625 1731.36328125 C-314.84837785 1733.29714848 -312.49486375 1735.25820236 -310.1484375 1737.23046875 C-300.76743469 1745.08870357 -291.1199156 1752.39853893 -281.13720703 1759.47265625 C-278.45792073 1761.3873941 -275.81294755 1763.34589517 -273.16943359 1765.30957031 C-265.29200628 1771.1549818 -257.23342428 1776.66922011 -249 1782 C-248.29955566 1782.45455566 -247.59911133 1782.90911133 -246.87744141 1783.37744141 C-184.26781372 1823.85361455 -116.55230946 1853.38999632 -45.83276367 1876.40167236 C-43.40129602 1877.19545408 -40.97417958 1878.002185 -38.546875 1878.80859375 C-26.20847939 1882.86201598 -13.64676105 1886.11277593 -1.0868988 1889.39807129 C3.60762472 1890.62796204 8.29350744 1891.8873678 12.9765625 1893.16015625 C54.92792665 1904.5312264 97.41154154 1913.3796385 140 1922 C141.09783813 1922.222323 142.19567627 1922.444646 143.32678223 1922.67370605 C161.36587192 1926.32435243 179.41144561 1929.93525674 197.48828125 1933.39453125 C234.80522153 1940.54543474 272.07576096 1948.02090899 309 1957 C309.93330139 1957.22623047 310.86660278 1957.45246094 311.82818604 1957.68554688 C337.39369153 1963.88693739 362.83813645 1970.30765886 388 1978 C389.35983867 1978.40980195 390.71987046 1978.81896354 392.08007812 1979.22753906 C452.61726981 1997.44211032 512.16202862 2021.58049667 566 2055 C566.70092773 2055.4321582 567.40185547 2055.86431641 568.12402344 2056.30957031 C587.43787248 2068.2409381 606.17923717 2080.92650033 624 2095 C625.42699219 2096.12341797 625.42699219 2096.12341797 626.8828125 2097.26953125 C629.26775697 2099.16477709 631.6369666 2101.07753215 634 2103 C634.84304688 2103.680625 635.68609375 2104.36125 636.5546875 2105.0625 C650.77448898 2116.60320844 664.93438964 2128.47053014 677.6328125 2141.6953125 C679.17266841 2143.24015148 679.17266841 2143.24015148 682 2145 C682 2145.66 682 2146.32 682 2147 C682.99 2147.33 683.98 2147.66 685 2148 C685 2148.66 685 2149.32 685 2150 C685.99 2150.33 686.98 2150.66 688 2151 C688 2151.66 688 2152.32 688 2153 C688.99 2153.33 689.98 2153.66 691 2154 C692.54296875 2155.56640625 692.54296875 2155.56640625 694.1875 2157.5625 C697.41826442 2161.39385524 700.86879734 2164.88071398 704.49609375 2168.3359375 C706 2170 706 2170 706 2172 C706.66 2172 707.32 2172 708 2172 C709.51740976 2173.69903023 710.965128 2175.46072723 712.375 2177.25 C714.59229313 2180.05313312 716.7305752 2182.73701197 719.2890625 2185.234375 C721 2187 721 2187 721 2189 C721.66 2189 722.32 2189 723 2189 C724.62890625 2190.80078125 724.62890625 2190.80078125 726.5625 2193.3125 C729.38959318 2196.94009627 732.24746989 2200.52578481 735.1875 2204.0625 C745.54833548 2216.7020072 755.22145916 2229.90908857 765 2243 C760.66354418 2225.44916177 755.51274602 2208.21437208 750 2191 C749.62391602 2189.81051758 749.24783203 2188.62103516 748.86035156 2187.39550781 C739.3406705 2157.37694418 727.8858015 2128.0384432 714.2578125 2099.64355469 C713.1218121 2097.25601348 712.02046006 2094.85726223 710.9375 2092.4453125 C705.90227493 2081.29218537 699.91121504 2070.73110547 693.79174805 2060.14135742 C692.49141919 2057.86157389 691.21300031 2055.57614211 689.95239258 2053.2746582 C685.01709454 2044.29687221 679.69004574 2035.71230278 673.89819336 2027.26245117 C672.55889436 2025.3072362 671.23097448 2023.34465444 669.90429688 2021.38085938 C662.05813581 2009.82350309 653.64297075 1998.8099464 644.6171875 1988.14453125 C643 1986 643 1986 643 1984 C642.34 1984 641.68 1984 641 1984 C639.50370821 1982.3214487 638.07707339 1980.58041102 636.6875 1978.8125 C634.29902741 1975.7833166 631.9640178 1972.96472235 629.20703125 1970.26171875 C627 1968 627 1968 627 1966 C626.34 1966 625.68 1966 625 1966 C623.63823078 1964.35648543 622.31037934 1962.68477344 621 1961 C617.54930074 1957.36768499 613.85234714 1954.19662848 610 1951 C607.625 1948.8125 607.625 1948.8125 606 1947 C606 1946.34 606 1945.68 606 1945 C605.47148438 1944.79117187 604.94296875 1944.58234375 604.3984375 1944.3671875 C601.00730481 1942.43413141 598.42884715 1939.81901903 595.625 1937.125 C592.42282535 1934.05001453 589.34706693 1931.12519317 585.5859375 1928.7421875 C584.73257812 1928.16726563 583.87921875 1927.59234375 583 1927 C583 1926.34 583 1925.68 583 1925 C582.42741455 1924.73445313 581.8548291 1924.46890625 581.26489258 1924.1953125 C578.88839942 1922.94110203 576.89184024 1921.51154225 574.76171875 1919.875 C573.94968994 1919.25608887 573.13766113 1918.63717773 572.30102539 1917.99951172 C571.43856201 1917.33967285 570.57609863 1916.67983398 569.6875 1916 C546.44476718 1898.41935957 521.429597 1882.82102444 495.21191406 1870.07714844 C493.70907267 1869.34530117 492.2084898 1868.60880157 490.70996094 1867.86816406 C475.11593637 1860.16416427 459.14131288 1853.45652515 443 1847 C442.01789551 1846.60458008 441.03579102 1846.20916016 440.02392578 1845.80175781 C376.47672185 1820.41872166 308.29390416 1805.83445911 241.50320435 1791.97724915 C230.4933944 1789.69234148 219.4963451 1787.34870799 208.5 1785 C196.48493594 1782.4339105 184.46709708 1779.88389694 172.4375 1777.38671875 C81.14878252 1758.39924208 -9.50939415 1735.83228522 -97.75 1698.625 C-98.42242737 1698.34199036 -99.09485474 1698.05898071 -99.78765869 1697.76739502 C-107.92741354 1694.33094446 -115.87575249 1690.64041084 -123.75292969 1686.63867188 C-127.49807979 1684.74863823 -131.28464087 1682.96306824 -135.0847168 1681.18701172 C-157.86690822 1670.50648999 -179.53451167 1658.11017877 -200.91503906 1644.89794922 C-203.59690457 1643.24799493 -206.28899503 1641.61857606 -208.9921875 1640.00390625 C-220.99588196 1632.82026345 -232.51208316 1624.97723726 -244 1617 C-244.75667969 1616.47792969 -245.51335937 1615.95585938 -246.29296875 1615.41796875 C-275.96330439 1594.93516874 -304.32979445 1572.25363009 -331 1548 C-332.72799465 1546.43620394 -334.45716422 1544.87370521 -336.1875 1543.3125 C-337.41146484 1542.20648437 -337.41146484 1542.20648437 -338.66015625 1541.078125 C-340.78140499 1539.19414448 -342.94108564 1537.37290788 -345.125 1535.5625 C-346.07375 1534.716875 -347.0225 1533.87125 -348 1533 C-348 1532.34 -348 1531.68 -348 1531 C-348.54422607 1530.78102051 -349.08845215 1530.56204102 -349.64916992 1530.33642578 C-352.7751299 1528.55934561 -355.10971815 1526.15642685 -357.61328125 1523.6171875 C-358.14592087 1523.08408966 -358.67856049 1522.55099182 -359.2273407 1522.0017395 C-360.35339921 1520.87266483 -361.4770312 1519.74116559 -362.59838867 1518.60742188 C-364.29108744 1516.89664129 -365.99147489 1515.19382508 -367.69335938 1513.4921875 C-374.3190872 1506.84472939 -380.65878792 1500.06311285 -386.625 1492.8125 C-389.48763109 1489.42254213 -392.56691376 1486.3342527 -395.8125 1483.3125 C-397 1482 -397 1482 -397 1480 C-397.66 1480 -398.32 1480 -399 1480 C-400.37491299 1478.49212839 -401.67364462 1476.91460239 -402.9375 1475.3125 C-405.87368012 1471.63642122 -408.8306688 1468.00468991 -411.90283203 1464.44018555 C-418.42034766 1456.86791431 -424.46360718 1448.96475348 -430.48486328 1440.99560547 C-431.84203403 1439.20805895 -433.2109756 1437.43098692 -434.58984375 1435.66015625 C-445.32764417 1421.85938521 -455.44711363 1407.64378958 -465 1393 C-465.44585449 1392.3208252 -465.89170898 1391.64165039 -466.35107422 1390.94189453 C-472.05056166 1382.25800624 -477.57756843 1373.49729454 -482.875 1364.5625 C-485.50672202 1360.1280966 -488.24109942 1355.75929243 -490.98046875 1351.390625 C-497.05663703 1341.18924382 -502.38702438 1330.55670526 -507.8125 1320 C-508.21284454 1319.22110413 -508.61318909 1318.44220825 -509.02566528 1317.63970947 C-519.07871548 1298.05939674 -528.28341504 1278.21351935 -537 1258 C-537.34836914 1257.19256348 -537.69673828 1256.38512695 -538.05566406 1255.55322266 C-542.1851334 1245.91991189 -545.77635972 1236.15346696 -549.1796875 1226.2421875 C-550.73871578 1221.71504198 -552.37585991 1217.22004007 -554.03369141 1212.72827148 C-560.72610825 1194.57425702 -566.11349601 1176.24471621 -571.04516602 1157.5390625 C-571.73554505 1154.98019405 -572.44268689 1152.43060637 -573.17163086 1149.8828125 C-576.35910456 1138.7123435 -579.02861658 1127.48756537 -581.4375 1116.125 C-581.62942932 1115.22657379 -581.82135864 1114.32814758 -582.019104 1113.40249634 C-584.75716696 1100.54401069 -587.23605743 1087.65918597 -589.375 1074.6875 C-589.54779984 1073.63964325 -589.54779984 1073.63964325 -589.72409058 1072.57061768 C-590.51730839 1067.71886349 -591.26697204 1062.8611748 -592 1058 C-592.12233002 1057.19737732 -592.24466003 1056.39475464 -592.37069702 1055.56781006 C-594.35180899 1042.49294108 -595.88383182 1029.42052448 -597.0625 1016.25 C-597.14649048 1015.31560089 -597.23048096 1014.38120178 -597.3170166 1013.41848755 C-597.8213782 1007.77482438 -598.3091375 1002.12989699 -598.78717041 996.48394775 C-598.97582875 994.28210424 -599.1720647 992.08116188 -599.37255859 989.88037109 C-603.52910635 943.03999215 -602.15173509 894.77235985 -598 848 C-597.92738953 847.16583557 -597.85477905 846.33167114 -597.77996826 845.472229 C-590.9096435 766.88194726 -574.17261213 688.59198797 -544.3125 602.9375 C-544.00647858 602.07452301 -543.70045715 601.21154602 -543.38516235 600.32241821 C-539.8209283 590.30700803 -536.01008859 580.44297063 -531.82981873 570.66809082 C-529.47838238 565.16948944 -527.28530737 559.62776331 -525.16699219 554.03466797 C-520.02753675 540.66993343 -514.45056763 527.37099455 -507.86328125 514.65234375 C-505.34844199 509.78658511 -503.03646699 504.82223854 -500.6875 499.875 C-486.6868798 470.50737604 -486.6868798 470.50737604 -479.56640625 458.62890625 C-478.04394497 456.07375303 -476.6036563 453.49035271 -475.1875 450.875 C-474.445 449.50794922 -474.445 449.50794922 -473.6875 448.11328125 C-472.80317183 446.48177766 -471.91922405 444.85006375 -471.0390625 443.21630859 C-456.92384984 417.08857238 -440.80358024 392.30856054 -424.17248535 367.73626709 C-422.53081597 365.30521197 -420.90230409 362.86542692 -419.2734375 360.42578125 C-412.42340932 350.21933209 -405.10255856 340.42779243 -397.6015625 330.69140625 C-393.62870063 325.53403163 -389.80789493 320.28006165 -386 315 C-384.38525969 312.76315973 -382.75900173 310.53530188 -381.125 308.3125 C-380.38507813 307.29800781 -379.64515625 306.28351563 -378.8828125 305.23828125 C-377.95082031 304.13033203 -377.95082031 304.13033203 -377 303 C-376.34 303 -375.68 303 -375 303 C-374.74863281 302.43925781 -374.49726563 301.87851562 -374.23828125 301.30078125 C-372.81178021 298.65027931 -371.1007898 296.51051917 -369.1875 294.1875 C-366.70877135 291.15094494 -364.33405422 288.11274812 -362.125 284.875 C-361.42375 283.92625 -360.7225 282.9775 -360 282 C-359.34 282 -358.68 282 -358 282 C-357.77957031 281.47148437 -357.55914062 280.94296875 -357.33203125 280.3984375 C-355.51665407 277.12969384 -353.13174548 274.43079257 -350.6875 271.625 C-349.8982312 270.71113525 -349.8982312 270.71113525 -349.09301758 269.77880859 C-344.16449768 264.11111973 -339.05475215 258.61871277 -333.921875 253.13671875 C-329.6564328 248.57498943 -325.50133836 243.94768219 -321.6875 239 C-321.130625 238.34 -320.57375 237.68 -320 237 C-319.34 237 -318.68 237 -318 237 C-317.78988281 236.46246094 -317.57976562 235.92492187 -317.36328125 235.37109375 C-315.48059205 232.09661712 -312.87786636 229.6682841 -310.1875 227.0625 C-309.66607422 226.55009766 -309.14464844 226.03769531 -308.60742188 225.50976562 C-307.57198791 224.49242913 -306.53473925 223.47693603 -305.49560547 222.46337891 C-303.31222194 220.32704184 -301.15624933 218.16367188 -299 216 C-294 211 -294 211 -291.64331055 208.64770508 C-289.15396889 206.15422486 -286.67866755 203.64773375 -284.20703125 201.13671875 C-282.40898809 199.32017993 -280.6108072 197.50377743 -278.8125 195.6875 C-277.89791016 194.75615234 -276.98332031 193.82480469 -276.04101562 192.86523438 C-275.16767578 191.98544922 -274.29433594 191.10566406 -273.39453125 190.19921875 C-272.59893799 189.39315186 -271.80334473 188.58708496 -270.98364258 187.7565918 C-269 186 -269 186 -267 186 C-267 185.34 -267 184.68 -267 184 C-265.70703125 182.6953125 -265.70703125 182.6953125 -263.8125 181.125 C-260.00075599 177.89242557 -256.33565591 174.5384321 -252.6875 171.125 C-247.81707519 166.59029667 -242.80349728 162.31322864 -237.61328125 158.14453125 C-235.00152377 156.00125044 -232.49634698 153.7761967 -230 151.5 C-224.82494991 146.79540901 -219.43920567 142.39399801 -214 138 C-212.79235153 137.01247307 -211.58535568 136.02414767 -210.37890625 135.03515625 C-194.28463519 121.86011309 -177.81313778 109.24250892 -161 97 C-160.20996582 96.4229834 -159.41993164 95.8459668 -158.60595703 95.25146484 C-150.34168839 89.21876884 -142.06956498 83.24853488 -133.48046875 77.68359375 C-130.92714646 75.99797115 -130.92714646 75.99797115 -128.37890625 73.90234375 C-126.01666929 72.01332996 -123.56703173 70.57770339 -120.92626953 69.11450195 C-118.86389875 67.92125447 -116.90321898 66.62792412 -114.9296875 65.29296875 C-101.23020854 56.10415768 -87.22323578 47.35337416 -73 39 C-71.92202148 38.36626465 -70.84404297 37.7325293 -69.73339844 37.07958984 C-62.30617263 32.71451939 -54.87488092 28.35640078 -47.4362793 24.01074219 C-45.19298218 22.69807469 -42.95213886 21.38120214 -40.71411133 20.05957031 C-35.24702664 16.8399553 -29.7756352 13.75905198 -24.0625 11 C-17.79127523 7.92924666 -11.66091088 4.67137776 -5.57421875 1.25 C-3 0 -3 0 0 0 Z " fill="#00BD6D" transform="translate(667,0)"/>
</svg>
