<?xml version="1.0" encoding="UTF-8"?>
<svg version="1.1" xmlns="http://www.w3.org/2000/svg" width="250" height="284">
<path d="M0 0 C1.56556137 0.54343803 1.56556137 0.54343803 3.16275024 1.09785461 C6.60490605 2.29372473 10.04462345 3.49645247 13.484375 4.69921875 C17.77037557 6.19109729 22.05714963 7.68074703 26.34388351 9.17051697 C28.27611309 9.84230011 30.20810002 10.5147773 32.14004517 11.18737793 C41.16834914 14.32930372 50.20558223 17.44455708 59.24845886 20.5442791 C61.3816037 21.2754797 63.51461218 22.00707674 65.64758301 22.73878479 C73.93527482 25.58163917 73.93527482 25.58163917 82.22473145 28.41934204 C84.84253576 29.31461521 87.4598271 30.21135642 90.07650757 31.10990906 C92.45870577 31.92791893 94.84166879 32.74370588 97.22549438 33.55696106 C98.27111542 33.91666489 99.31673645 34.27636871 100.39404297 34.64697266 C101.30958954 34.9605069 102.22513611 35.27404114 103.16842651 35.59707642 C105.234375 36.38671875 105.234375 36.38671875 106.234375 37.38671875 C106.34041603 40.31862083 106.3811494 43.22708491 106.37963867 46.15966797 C106.38299728 47.08204758 106.3863559 48.00442719 106.38981628 48.95475769 C106.39938189 52.033654 106.40127411 55.11249596 106.40234375 58.19140625 C106.40555937 60.34489972 106.40892367 62.49839297 106.41242981 64.65188599 C106.41843977 69.19338484 106.42026849 73.73486464 106.41967773 78.27636719 C106.41959729 82.88675937 106.42640058 87.4970505 106.44018555 92.10742188 C106.74938079 197.11309778 106.74938079 197.11309778 75.73828125 228.94921875 C56.29390513 247.44015592 30.50930295 258.7585563 6.234375 269.38671875 C5.22117188 269.83805176 4.20796875 270.28938477 3.1640625 270.75439453 C0.19657949 272.07069334 -2.78166568 273.35827615 -5.765625 274.63671875 C-6.65507812 275.03205811 -7.54453125 275.42739746 -8.4609375 275.8347168 C-16.36286297 279.13700274 -21.55020824 278.35587022 -29.35546875 275.3046875 C-31.47665902 274.40696408 -33.59230532 273.49606242 -35.703125 272.57421875 C-37.405896 271.84041992 -37.405896 271.84041992 -39.14306641 271.09179688 C-88.27940817 249.71222481 -88.27940817 249.71222481 -107.765625 233.38671875 C-108.44625 232.85691406 -109.126875 232.32710937 -109.828125 231.78125 C-131.55222497 214.46985784 -138.61093718 185.52750458 -141.67951965 159.35513306 C-144.56014242 132.70868966 -143.90017035 105.67565817 -143.83428955 78.91558838 C-143.82386096 74.21456365 -143.81945112 69.51353308 -143.81445312 64.8125 C-143.80388762 55.67055821 -143.78693586 46.52864139 -143.765625 37.38671875 C-136.44426762 34.35540697 -129.03574812 31.70752035 -121.5234375 29.19140625 C-119.14762288 28.389895 -116.77180911 27.58838124 -114.39599609 26.78686523 C-113.16903015 26.37411346 -111.94206421 25.96136169 -110.67791748 25.53610229 C-86.34533244 17.3644953 -86.34533244 17.3644953 -62.140625 8.82421875 C-59.09181797 7.72952974 -56.04239893 6.63656754 -52.99267578 5.54443359 C-50.6225242 4.69413409 -48.25401105 3.83975433 -45.88623047 2.98291016 C-42.45920573 1.74598103 -39.02364648 0.53549916 -35.58209229 -0.66036987 C-34.27022287 -1.12052107 -32.96109976 -1.58859681 -31.6552124 -2.06546021 C-29.85204583 -2.72267451 -28.03744193 -3.34824189 -26.22265625 -3.97265625 C-25.19116455 -4.33842773 -24.15967285 -4.70419922 -23.09692383 -5.08105469 C-15.2511694 -6.33453542 -7.31166146 -2.57103582 0 0 Z " fill="#13243F" transform="translate(143.765625,5.61328125)"/>
<path d="M0 0 C5.66128951 0.98847912 10.58914749 2.57976729 15.8671875 4.796875 C20.0210894 6.39213907 24.24941709 7.6884666 28.5 9 C34.19132387 10.76006835 39.72830203 12.61759241 45.21875 14.9375 C49.25414276 16.47911072 53.37423351 17.7237292 57.5 19 C67.45426829 22.07926829 67.45426829 22.07926829 72 24 C78.93466299 26.92307664 86.20561928 28.96736751 93.39282227 31.17211914 C95.82393988 31.94409403 98.24357104 32.74384768 100.66294861 33.55174255 C101.4747354 33.82270972 102.2865222 34.09367689 103.12290859 34.37285519 C103.74234876 34.57981297 104.36178892 34.78677076 105 35 C105.04680557 46.69390875 105.08210979 58.38779439 105.10362434 70.08177853 C105.11396191 75.51459553 105.12793223 80.94734741 105.15087891 86.38012695 C105.451127 159.50950317 105.451127 159.50950317 94 183 C93.52046875 184.00933594 93.0409375 185.01867187 92.546875 186.05859375 C86.44566479 198.16122801 77.7057994 209.77395744 66 217 C62.16949356 215.72316452 60.79720709 213.44143889 58.5 210.3125 C57.60232339 209.11791743 56.70385915 207.9239264 55.8046875 206.73046875 C55.3415918 206.11220215 54.87849609 205.49393555 54.40136719 204.85693359 C52.18158774 201.91553247 49.90578245 199.01920589 47.625 196.125 C47.17350586 195.55088379 46.72201172 194.97676758 46.25683594 194.38525391 C42.27080571 189.32498433 38.25267977 184.29028385 34.20849609 179.27636719 C31.46475506 175.86804908 28.82964772 172.41028995 26.25 168.875 C23.55469219 165.36194104 20.8045164 163.45866045 16.984375 161.296875 C9.33838477 156.29988926 4.70261584 147.91367287 2.75 139.1875 C1.90391267 133.82391065 1.79305108 128.48129814 1.75 123.0625 C1.73598145 121.81859497 1.73598145 121.81859497 1.72167969 120.54956055 C1.72586914 119.76105713 1.73005859 118.97255371 1.734375 118.16015625 C1.73663086 117.45511963 1.73888672 116.75008301 1.74121094 116.02368164 C2.04071482 113.68161779 2.84495028 112.04370391 4 110 C5.72315108 111.72315108 5.5376015 114.0584403 5.90112305 116.37255859 C7.07003156 123.70993397 8.50441911 128.92489069 13 135 C13 135.66 13 136.32 13 137 C13.56332031 137.12632812 14.12664062 137.25265625 14.70703125 137.3828125 C17.95312156 138.2565472 20.97407395 139.57842027 24.07421875 140.8671875 C26.83365768 142.02143557 26.83365768 142.02143557 29.16479492 142.47436523 C32.70185183 143.33876761 35.21150927 144.01077744 37.53344727 146.92382812 C38.83301604 149.34186778 39.90982463 151.76732268 40.9375 154.3125 C41.30939453 155.15490234 41.68128906 155.99730469 42.06445312 156.86523438 C47 168.1983842 47 168.1983842 47 174 C51.95 174 56.9 174 62 174 C61.3503125 173.01257813 60.700625 172.02515625 60.03125 171.0078125 C59.18726167 169.71369707 58.34352465 168.41941771 57.5 167.125 C57.07074219 166.47402344 56.64148438 165.82304687 56.19921875 165.15234375 C53 160.2265625 53 160.2265625 53 158 C58.03340085 159.79559651 62.43081287 162.57503791 66.91601562 165.4296875 C70.26316015 167.53705175 70.26316015 167.53705175 74.0703125 167.625 C76.92854669 165.21806594 79.37818581 162.58000896 81.8125 159.75 C82.32748047 159.18925781 82.84246094 158.62851563 83.37304688 158.05078125 C85.61165713 155.45555169 86.96481291 153.6799668 87.14453125 150.20703125 C85.47888101 145.5397997 83.22893604 141.29123014 80.875 136.9375 C80.09431152 135.45237915 80.09431152 135.45237915 79.29785156 133.93725586 C76.56779966 128.74975694 73.78590913 123.59638602 70.9178772 118.48417664 C69.51566318 115.97170513 68.14062016 113.44487086 66.76861572 110.915802 C66.10046541 109.70014798 65.42025937 108.4910263 64.72698975 107.28952026 C59.1095057 97.54070709 58.13680428 89.93292436 59 79 C58.27635254 78.73590332 57.55270508 78.47180664 56.80712891 78.19970703 C53.95726011 76.98173388 51.63764284 75.55745953 49.0859375 73.8046875 C48.16441895 73.17473877 47.24290039 72.54479004 46.29345703 71.89575195 C45.33036621 71.22890381 44.36727539 70.56205566 43.375 69.875 C42.39257324 69.19719482 41.41014648 68.51938965 40.39794922 67.82104492 C38.46343319 66.48362748 36.53059756 65.14377552 34.59960938 63.80126953 C32.44600996 62.30904034 30.28229163 60.83490972 28.109375 59.37109375 C27.12453125 58.69175781 26.1396875 58.01242188 25.125 57.3125 C24.30257812 56.75175781 23.48015625 56.19101563 22.6328125 55.61328125 C22.09398437 55.08089844 21.55515625 54.54851562 21 54 C21 49.42714132 21.42376826 49.10468944 24.4375 46 C29.15715163 41.11825932 29.21680752 37.20065415 29.16796875 30.6171875 C28.92833882 26.88341887 28.06141006 23.58225894 27 20 C23.12088471 19.55472684 23.12088471 19.55472684 21.32421875 21.50390625 C20.78410156 22.18324219 20.24398437 22.86257812 19.6875 23.5625 C17.39253646 26.34679479 15.08642433 28.98332194 12.5 31.5 C9.30302048 34.62497548 6.42467572 37.95331304 3.578125 41.3984375 C2 43 2 43 -1 44 C-2.92431333 36.73037185 -3.30390508 30.00179063 -3.25 22.5 C-3.25773438 21.42363281 -3.26546875 20.34726562 -3.2734375 19.23828125 C-3.23445131 3.23445131 -3.23445131 3.23445131 0 0 Z " fill="#FAFBFB" transform="translate(132,17)"/>
<path d="M0 0 C1.64800226 2.04601036 2.85192234 3.86082543 4.125 6.125 C10.66246818 16.98922523 18.53768096 26.5496589 27.1171875 35.8671875 C29.38909634 38.44076058 31.22519117 41.06770715 33 44 C29.7 47.3 26.4 50.6 23 54 C19.41126204 52.56450481 17.31362064 51.70761463 14.3984375 49.53125 C13.74875 49.04744873 13.0990625 48.56364746 12.4296875 48.06518555 C11.41261719 47.2904187 11.41261719 47.2904187 10.375 46.5 C9.31539062 45.69912964 9.31539062 45.69912964 8.234375 44.88208008 C3.03054357 40.90055769 -1.85120435 36.70538834 -6.62890625 32.21875 C-8.68152646 30.29801148 -10.7800953 28.48754319 -12.9375 26.6875 C-16.70374055 23.41661051 -20.10121995 19.83178339 -23.5 16.1875 C-24.04132568 15.61153076 -24.58265137 15.03556152 -25.14038086 14.44213867 C-29 10.24311672 -29 10.24311672 -29 8 C-25.10832482 6.65430981 -21.21104602 5.32564 -17.3125 4 C-16.20970703 3.6184375 -15.10691406 3.236875 -13.97070312 2.84375 C-12.90400391 2.4828125 -11.83730469 2.121875 -10.73828125 1.75 C-9.75899658 1.41484375 -8.77971191 1.0796875 -7.77075195 0.734375 C-4.99061473 -0.00248752 -2.85563007 -0.33956853 0 0 Z " fill="#F7F8F9" transform="translate(55,40)"/>
<path d="M0 0 C4.40433343 1.66531544 8.03009548 3.94474506 11.875 6.625 C22.64113201 13.95912778 34.04216161 19.83327441 46 25 C46.73605469 25.3196875 47.47210938 25.639375 48.23046875 25.96875 C49.81728942 26.65288825 51.4080645 27.32784946 53 28 C52.34097701 31.57040303 50.83770842 34.17732255 48.9375 37.25 C48.38964844 38.14203125 47.84179688 39.0340625 47.27734375 39.953125 C46.85582031 40.62859375 46.43429688 41.3040625 46 42 C38.84884481 41.38364914 32.13392489 39.96946381 25.1875 38.1875 C24.13103271 37.91977783 23.07456543 37.65205566 21.98608398 37.3762207 C2.32176001 32.32176001 2.32176001 32.32176001 0 30 C-0.08783542 27.78144736 -0.10694609 25.56011504 -0.09765625 23.33984375 C-0.0962413 22.67537735 -0.09482635 22.01091095 -0.09336853 21.3263092 C-0.08775518 19.19666101 -0.07520054 17.06711661 -0.0625 14.9375 C-0.05748671 13.49674631 -0.05292351 12.05599097 -0.04882812 10.61523438 C-0.03778145 7.07678898 -0.02050792 3.53840461 0 0 Z " fill="#F9F9FA" transform="translate(14,78)"/>
<path d="M0 0 C0.18006592 0.88800293 0.18006592 0.88800293 0.36376953 1.79394531 C2.96259068 14.4824512 5.97066593 26.88312532 9.86328125 39.23828125 C11 43 11 43 11 45 C9.09118566 46.03544174 7.17260796 47.05290085 5.25 48.0625 C4.18265625 48.63097656 3.1153125 49.19945312 2.015625 49.78515625 C-1 51 -1 51 -3.01538086 50.85205078 C-5.7732101 49.66803995 -6.37723353 48.21654484 -7.76953125 45.58203125 C-8.50949341 44.2043457 -8.50949341 44.2043457 -9.2644043 42.79882812 C-10.03071167 41.3205957 -10.03071167 41.3205957 -10.8125 39.8125 C-11.34077393 38.81541016 -11.86904785 37.81832031 -12.41333008 36.79101562 C-13.95602658 33.86766362 -15.47924076 30.93480758 -17 28 C-17.76770163 26.54529439 -18.5358625 25.09083096 -19.3046875 23.63671875 C-22.00965689 18.43124481 -24.27108492 13.90157752 -25 8 C-23.20974397 7.33304187 -21.41942924 6.66624111 -19.62890625 6 C-17.65050322 5.24744253 -15.6804731 4.47281684 -13.71484375 3.6875 C-12.57144531 3.23375 -11.42804688 2.78 -10.25 2.3125 C-9.16203125 1.87550781 -8.0740625 1.43851563 -6.953125 0.98828125 C-4 0 -4 0 0 0 Z " fill="#F8F8F9" transform="translate(104,22)"/>
<path d="M0 0 C13.37293838 -0.12803877 26.65012592 0.20468835 40 1 C39.71221756 2.52157311 39.41953999 4.04222053 39.125 5.5625 C38.96257813 6.40941406 38.80015625 7.25632813 38.6328125 8.12890625 C38.42398438 9.07636719 38.21515625 10.02382812 38 11 C37.78988281 12.21945313 37.57976563 13.43890625 37.36328125 14.6953125 C36 18 36 18 32.91015625 19.48828125 C31.64042969 19.76027344 30.37070312 20.03226563 29.0625 20.3125 C28.05195557 20.53921387 28.05195557 20.53921387 27.02099609 20.77050781 C25.01897396 21.210753 23.01190625 21.60784445 21 22 C19.45505859 22.33837891 19.45505859 22.33837891 17.87890625 22.68359375 C12.16649804 23.85848622 6.82574767 24.19100812 1 24 C0.09516363 18.63510405 -0.12303662 13.49682543 -0.0625 8.0625 C-0.05798828 7.28326172 -0.05347656 6.50402344 -0.04882812 5.70117188 C-0.03716908 3.80074732 -0.01923877 1.90036294 0 0 Z " fill="#F2F3F4" transform="translate(14,134)"/>
<path d="M0 0 C0.39664812 3.32901102 0.70879301 6.66021982 1 10 C1.103125 10.88429687 1.20625 11.76859375 1.3125 12.6796875 C1.76363469 18.86399221 1.76363469 18.86399221 -0.10546875 21.64453125 C-1.96640139 23.31247828 -3.9079118 24.62897133 -6 26 C-7.09908716 26.78394282 -8.19521982 27.57203721 -9.2890625 28.36328125 C-18.56601585 35 -18.56601585 35 -21 35 C-28.13709091 19.93583483 -28.13709091 19.93583483 -28 11 C-27.23816406 10.68546875 -26.47632812 10.3709375 -25.69140625 10.046875 C-20.79296182 8.01655846 -15.90250592 5.9790567 -11.0625 3.8125 C-2.54225709 0 -2.54225709 0 0 0 Z " fill="#F7F8F8" transform="translate(48,171)"/>
<path d="M0 0 C1.20469568 3.41084768 2.38570092 6.82943733 3.5625 10.25 C3.90474609 11.21808594 4.24699219 12.18617188 4.59960938 13.18359375 C4.91865234 14.11816406 5.23769531 15.05273438 5.56640625 16.015625 C5.86490479 16.87446289 6.16340332 17.73330078 6.47094727 18.61816406 C7.03684284 21.16586928 6.85092276 22.56315454 6 25 C0.46845828 21.20663048 -4.93322709 17.40009226 -10 13 C-9.47470631 8.8911959 -8.33192009 6.74480159 -5.5625 3.6875 C-4.94503906 2.99011719 -4.32757813 2.29273438 -3.69140625 1.57421875 C-2 0 -2 0 0 0 Z " fill="#EBEDEF" transform="translate(54,214)"/>
<path d="M0 0 C9.86214424 4.95214508 9.86214424 4.95214508 13 10 C13 10.66 13 11.32 13 12 C10.36 12 7.72 12 5 12 C4.15885829 10.56705502 3.32734313 9.12845595 2.5 7.6875 C1.80390625 6.48673828 1.80390625 6.48673828 1.09375 5.26171875 C0 3 0 3 0 0 Z " fill="#E5E7EA" transform="translate(167,101)"/>
<path d="M0 0 C0.66 0.33 1.32 0.66 2 1 C2 3.64 2 6.28 2 9 C1.67 9 1.34 9 1 9 C0.67 13.62 0.34 18.24 0 23 C-0.33 23 -0.66 23 -1 23 C-1.02911321 19.9166866 -1.04683682 16.83340875 -1.0625 13.75 C-1.07087891 12.87730469 -1.07925781 12.00460938 -1.08789062 11.10546875 C-1.09111328 10.26113281 -1.09433594 9.41679687 -1.09765625 8.546875 C-1.10551147 7.38430176 -1.10551147 7.38430176 -1.11352539 6.19824219 C-1.00036998 4.00716402 -0.60552448 2.10362139 0 0 Z " fill="#A1A8B2" transform="translate(135,127)"/>
<path d="M0 0 C3.77727089 1.81309003 7.37269822 3.9073259 11 6 C11 6.33 11 6.66 11 7 C8.36 7 5.72 7 3 7 C2.01 4.69 1.02 2.38 0 0 Z " fill="#D7D9DE" transform="translate(198,163)"/>
<path d="M0 0 C1.32 0.66 2.64 1.32 4 2 C3.67 2.66 3.34 3.32 3 4 C2.01 4 1.02 4 0 4 C-2.12708293 5.76248102 -2.12708293 5.76248102 -4.1875 8 C-4.90292969 8.7425 -5.61835938 9.485 -6.35546875 10.25 C-6.89816406 10.8275 -7.44085938 11.405 -8 12 C-8.66 11.67 -9.32 11.34 -10 11 C-9.52949219 10.54109375 -9.05898437 10.0821875 -8.57421875 9.609375 C-3.96631602 5.08450705 -3.96631602 5.08450705 0 0 Z " fill="#3A485F" transform="translate(156,35)"/>
</svg>
