<?xml version="1.0" encoding="UTF-8"?>
<svg version="1.1" xmlns="http://www.w3.org/2000/svg" width="416" height="491">
<path d="M0 0 C12.49456053 0.24028001 22.2242562 9.1036091 30.62451172 17.56933594 C57.20135725 45.21227432 68.3167873 84.39667291 68 122 C66.83639865 158.92169797 50.08914356 189.62677415 31.6875 220.734375 C26.94953898 228.74891296 22.36110191 236.84824023 17.76831055 244.9465332 C13.71656037 252.06850799 9.55732754 259.11583421 5.32739258 266.13256836 C2.96180551 270.05757672 0.61895622 273.99583727 -1.71875 277.9375 C-2.11205002 278.60043564 -2.50535004 279.26337128 -2.91056824 279.94639587 C-4.10733874 281.9640902 -5.30373592 283.98200539 -6.5 286 C-8.09330312 288.68776531 -9.68698504 291.37530509 -11.28125 294.0625 C-11.66821045 294.71484619 -12.0551709 295.36719238 -12.45385742 296.03930664 C-15.68050021 301.47354619 -18.93100454 306.89330966 -22.19543457 312.30493164 C-24.18570807 315.6033882 -24.18570807 315.6033882 -26 319 C-26.99 319 -27.98 319 -29 319 C-29.3309668 318.38294189 -29.66193359 317.76588379 -30.00292969 317.13012695 C-36.30818358 305.39076831 -42.68298573 293.70438508 -49.33251953 282.15625 C-54.15585483 273.7661976 -58.86851363 265.31553332 -63.53857422 256.83935547 C-66.3676387 251.70785527 -69.21344549 246.59783498 -72.2109375 241.5625 C-72.68708496 240.74998779 -73.16323242 239.93747559 -73.65380859 239.1003418 C-74.5170976 237.63318886 -75.39635093 236.17524599 -76.29541016 234.72973633 C-76.6722998 234.08286865 -77.04918945 233.43600098 -77.4375 232.76953125 C-77.76621094 232.22917236 -78.09492188 231.68881348 -78.43359375 231.13208008 C-80.35176634 223.91164851 -76.44594387 215.89326916 -74.046875 209.203125 C-73.63950104 208.04646332 -73.23212708 206.88980164 -72.81240845 205.6980896 C-71.92903802 203.19330815 -71.04285554 200.68975176 -70.15155029 198.18780518 C-68.72543014 194.18446847 -67.31036266 190.17727945 -65.89697266 186.16943359 C-64.16987966 181.27413369 -62.44028293 176.37973336 -60.70746803 171.48645592 C-56.32887061 159.12009164 -52.00223201 146.73576533 -47.67672729 134.35073853 C-34.84554765 97.62598019 -21.95958651 60.91998245 -8.9437561 24.26022339 C-8.23699009 22.26956941 -7.53058353 20.27878778 -6.82455444 18.28787231 C-5.86097892 15.57163035 -4.89565142 12.85601836 -3.9296875 10.140625 C-3.64526291 9.33827927 -3.36083832 8.53593353 -3.0677948 7.70927429 C-1.11497193 2.22994385 -1.11497193 2.22994385 0 0 Z " fill="#FFFF00" transform="translate(347,0)"/>
<path d="M0 0 C2.70499122 6.60702605 5.19856809 13.25432652 7.51171875 20.0078125 C7.83690994 20.95002655 8.16210114 21.8922406 8.49714661 22.86300659 C9.19696448 24.8907653 9.89580456 26.91886168 10.59375 28.94726562 C12.48731564 34.44875009 14.38959132 39.94721615 16.29296875 45.4453125 C16.68447113 46.57624329 17.07597351 47.70717407 17.4793396 48.87237549 C21.43005637 60.26825558 25.45939964 71.63574538 29.5 83 C35.23751346 99.14255423 40.9013395 115.30876927 46.5 131.5 C53.3116662 151.19884248 60.22946043 170.85839411 67.21099854 190.49765015 C67.86009377 192.32553728 68.50802889 194.15383685 69.15472412 195.98257446 C70.7645239 200.53441319 72.39052619 205.07926248 74.04589844 209.61474609 C74.69470926 211.41371974 75.3434741 213.21270997 75.9921875 215.01171875 C76.29577179 215.83001663 76.59935608 216.64831451 76.91213989 217.4914093 C78.71139439 222.51632373 80.19955446 226.97109956 78.13647461 232.18041992 C77.52557983 233.19519409 77.52557983 233.19519409 76.90234375 234.23046875 C76.20637085 235.41358643 76.20637085 235.41358643 75.49633789 236.62060547 C74.98192139 237.46768066 74.46750488 238.31475586 73.9375 239.1875 C72.82882324 241.06788799 71.72214881 242.94945758 70.6171875 244.83203125 C69.73305176 246.32984131 69.73305176 246.32984131 68.83105469 247.85791016 C65.65176226 253.31357596 62.61343202 258.84686271 59.5625 264.375 C54.28656933 273.90375674 48.96204815 283.40306089 43.59130859 292.87866211 C38.67552859 301.55705245 33.82708189 310.27202574 29 319 C28.01 319 27.02 319 26 319 C25.54753906 318.16984375 25.09507813 317.3396875 24.62890625 316.484375 C19.59116497 307.34573108 14.25053272 298.40463522 8.8125 289.5 C1.62970966 277.73387533 -5.38238813 265.87928413 -12.28955078 253.94873047 C-14.63123721 249.91177804 -16.98875427 245.88415431 -19.34545898 241.85595703 C-30.52425711 222.73743633 -41.64656686 203.58174879 -52 184 C-52.36496582 183.31244629 -52.72993164 182.62489258 -53.10595703 181.91650391 C-70.20227542 149.21379738 -71.57468987 110.14640458 -62 75 C-61.8045459 74.27780273 -61.6090918 73.55560547 -61.40771484 72.81152344 C-53.47555479 44.49768128 -36.53888487 17.17457446 -10.63671875 2.3828125 C-6.89152702 0.41866751 -4.17863636 -0.11293612 0 0 Z " fill="#FFFF00" transform="translate(69,0)"/>
<path d="M0 0 C3.33311654 1.39081769 4.8599738 2.80578549 6.81469727 5.82177734 C7.59408661 7.00873199 7.59408661 7.00873199 8.38922119 8.21966553 C8.94269226 9.08303528 9.49616333 9.94640503 10.06640625 10.8359375 C10.65379578 11.73507874 11.2411853 12.63421997 11.84637451 13.56060791 C13.76018223 16.49334249 15.66126191 19.4341047 17.5625 22.375 C20.17838789 26.39317541 22.8003001 30.40740845 25.421875 34.421875 C26.07001663 35.41639679 26.71815826 36.41091858 27.38594055 37.43557739 C33.68599174 47.08869468 40.15843648 56.61892646 46.71508789 66.09912109 C47.4239917 67.13117676 48.13289551 68.16323242 48.86328125 69.2265625 C49.78040894 70.55034912 49.78040894 70.55034912 50.71606445 71.90087891 C52 74 52 74 52 76 C52.66 76 53.32 76 54 76 C54.20818359 75.35949707 54.41636719 74.71899414 54.63085938 74.05908203 C56.57295664 69.71983831 59.2281434 65.97155487 61.90625 62.0546875 C62.49902237 61.17920761 63.09179474 60.30372772 63.70252991 59.40171814 C65.63039873 56.55631141 67.5648304 53.71544549 69.5 50.875 C72.14633238 46.9816902 74.7903426 43.08680846 77.43359375 39.19140625 C78.08649887 38.23012314 78.73940399 37.26884003 79.41209412 36.27842712 C83.25864703 30.60481228 87.05358105 24.90216592 90.78515625 19.15234375 C91.61586918 17.87840738 92.44659762 16.60448113 93.27734375 15.33056641 C94.41328753 13.58714535 95.54413882 11.84139456 96.66015625 10.08514404 C97.65866637 8.51397594 98.6745071 6.95386052 99.69140625 5.39453125 C100.23998291 4.53706299 100.78855957 3.67959473 101.35375977 2.79614258 C101.89701904 2.20341553 102.44027832 1.61068848 103 1 C104.32 1 105.64 1 107 1 C107.30067383 1.55647217 107.60134766 2.11294434 107.91113281 2.6862793 C113.93561267 13.82109364 120.03676518 24.90225272 126.34985352 35.8762207 C129.73340462 41.76383006 133.06522706 47.67805148 136.3671875 53.61181641 C138.15649558 56.81941992 139.96213279 60.01740792 141.76953125 63.21484375 C143.69696707 66.63244471 145.56108124 70.06148822 147.32421875 73.56640625 C152.27401361 83.11792713 158.46983286 87.6172186 167.7265625 92.70507812 C171.91869232 95.09286341 175.91967317 97.77032466 179.9375 100.4375 C181.11880493 101.20066528 181.11880493 101.20066528 182.32397461 101.97924805 C183.05108643 102.45918213 183.77819824 102.93911621 184.52734375 103.43359375 C185.17437256 103.85697021 185.82140137 104.28034668 186.48803711 104.71655273 C188.78696718 106.66802624 188.97097558 108.71978814 189.27210999 111.62704468 C189.37536842 113.21037094 189.37536842 113.21037094 189.48071289 114.82568359 C189.56072037 116.02478363 189.64072784 117.22388367 189.72315979 118.45932007 C189.80549362 119.75922882 189.88782745 121.05913757 189.97265625 122.3984375 C190.06067821 123.75307688 190.1489337 125.10770111 190.2374115 126.46231079 C190.42237448 129.30853356 190.60441119 132.15492483 190.78442383 135.00146484 C191.013084 138.61346917 191.24899137 142.22495473 191.48720646 145.83633995 C191.67128529 148.64007408 191.85131043 151.44405808 192.03021049 154.24812698 C192.15646906 156.21596961 192.28607758 158.1835964 192.41578674 160.1512146 C192.912993 168.11257375 193.10124907 176.02366647 193 184 C189.37 184 185.74 184 182 184 C180.62979737 180.06646459 179.52783383 176.19342592 178.67138672 172.11816406 C178.43128876 170.98388977 178.1911908 169.84961548 177.94381714 168.68096924 C177.69165436 167.47140564 177.43949158 166.26184204 177.1796875 165.015625 C176.91616486 163.76368347 176.65264221 162.51174194 176.38113403 161.22186279 C175.82645995 158.58297815 175.2731368 155.94385543 174.72216797 153.30419922 C174.01534323 149.91832686 173.3035853 146.53351507 172.59019279 143.14902115 C171.90951064 139.91751284 171.23216408 136.68530663 170.5546875 133.453125 C170.29847626 132.23546448 170.04226501 131.01780396 169.77828979 129.76324463 C169.54449615 128.64157898 169.31070251 127.51991333 169.06982422 126.36425781 C168.86267792 125.37419739 168.65553162 124.38413696 168.44210815 123.36407471 C168 121 168 121 168 119 C167.43152344 118.81824219 166.86304688 118.63648438 166.27734375 118.44921875 C162.53768328 117.23180007 159.00012591 116.00005964 155.4375 114.3125 C148.90242007 111.81728766 142.00617173 113.1172439 135.23242188 114.1015625 C134.39554337 114.21860535 133.55866486 114.33564819 132.69642639 114.45623779 C130.89282158 114.70918596 129.08956589 114.96463381 127.28663635 115.22235107 C124.42808654 115.63081042 121.56863652 116.03233787 118.7088623 116.43212891 C112.6383774 117.28200338 106.56911042 118.14037235 100.5 119 C93.4631988 119.99669119 86.42593505 120.98983423 79.38734436 121.97381592 C76.57947789 122.36822562 73.77259722 122.76918186 70.96569824 123.17041016 C69.23303679 123.41340881 67.50033227 123.65610068 65.76757812 123.8984375 C64.99539444 124.01064636 64.22321075 124.12285522 63.42762756 124.23846436 C55.48915901 125.33426976 48.14689178 125.04851834 40.23242188 123.8984375 C39.39554337 123.78139465 38.55866486 123.66435181 37.69642639 123.54376221 C35.89282158 123.29081404 34.08956589 123.03536619 32.28663635 122.77764893 C29.42808654 122.36918958 26.56863652 121.96766213 23.7088623 121.56787109 C16.60911264 120.57389844 9.51104446 119.56812358 2.41290283 118.56274414 C-3.59492881 117.71225902 -9.60336106 116.86627212 -15.61265564 116.02618408 C-18.42052211 115.63177438 -21.22740278 115.23081814 -24.03430176 114.82958984 C-25.76696321 114.58659119 -27.49966773 114.34389932 -29.23242188 114.1015625 C-30.00460556 113.98935364 -30.77678925 113.87714478 -31.57237244 113.76153564 C-39.5812737 112.6560079 -45.84415856 112.47144956 -53.375 116 C-59.82094595 119 -59.82094595 119 -62 119 C-62.10957031 119.58861816 -62.21914062 120.17723633 -62.33203125 120.78369141 C-64.96930523 134.87863435 -67.77169395 148.93518046 -70.70800781 162.97064209 C-71.06996095 164.70153622 -71.43063383 166.43269856 -71.79003906 168.16412354 C-72.2987462 170.611574 -72.81260877 173.05788214 -73.328125 175.50390625 C-73.48210754 176.24752914 -73.63609009 176.99115204 -73.79473877 177.75730896 C-74.88528721 182.88528721 -74.88528721 182.88528721 -76 184 C-79.66655195 184.14300125 -83.33144219 184.04216733 -87 184 C-87.11262779 174.73469359 -86.78357583 165.55417491 -86.1953125 156.30859375 C-86.11031725 154.94670763 -86.0254297 153.58481479 -85.94064331 152.22291565 C-85.76366999 149.39833333 -85.58332353 146.57398977 -85.40087891 143.74975586 C-85.16799862 140.13580259 -84.94702941 136.52122351 -84.72886848 132.90635586 C-84.55804846 130.1067094 -84.37937487 127.30760465 -84.19848251 124.50859261 C-84.07248879 122.53026546 -83.95440272 120.5514398 -83.8364563 118.57261658 C-83.75652435 117.37359207 -83.67659241 116.17456757 -83.59423828 114.93920898 C-83.52761993 113.88587875 -83.46100159 112.83254852 -83.3923645 111.74729919 C-82.84728181 107.93068168 -81.98860953 105.7752051 -78.94384766 103.38769531 C-78.10901855 102.87303711 -77.27418945 102.35837891 -76.4140625 101.828125 C-75.48207031 101.24546875 -74.55007812 100.6628125 -73.58984375 100.0625 C-72.61144531 99.464375 -71.63304688 98.86625 -70.625 98.25 C-67.74128616 96.46201831 -64.86106224 94.66968494 -61.99145508 92.85913086 C-59.97026409 91.60300017 -57.92451941 90.3856665 -55.8581543 89.20532227 C-47.62381346 84.26110932 -43.80789467 78.94768025 -39.5625 70.4375 C-38.93311991 69.23428664 -38.30040335 68.03281329 -37.66455078 66.83300781 C-36.37670829 64.39785685 -35.10225349 61.95644294 -33.83740234 59.50927734 C-31.13760652 54.35290408 -28.263907 49.30207276 -25.375 44.25 C-24.31830462 42.38711893 -23.26231409 40.52383786 -22.20703125 38.66015625 C-21.68447754 37.7386377 -21.16192383 36.81711914 -20.62353516 35.86767578 C-18.91529764 32.85038888 -17.21287374 29.82987901 -15.51171875 26.80859375 C-14.93437988 25.78411133 -14.35704102 24.75962891 -13.76220703 23.70410156 C-12.66973714 21.76521073 -11.57818824 19.82580051 -10.48779297 17.88574219 C-7.09078629 11.86243224 -3.58730246 5.91191907 0 0 Z " fill="#FFFF00" transform="translate(155,248)"/>
<path d="M0 0 C0.78814087 0.15113251 1.57628174 0.30226501 2.38830566 0.45797729 C54.10438407 10.95549054 54.10438407 10.95549054 106.04882812 5.95556641 C112.14634592 4.43118696 118.35305995 3.56148616 124.5625 2.625 C126.03650269 2.37544556 126.03650269 2.37544556 127.5402832 2.12084961 C132.4382324 1.29637251 137.03298819 0.82285006 142 1 C137.65969924 10.15697599 132.66321292 18.8057442 127.48193359 27.50244141 C124.73430539 32.13312287 122.02453873 36.78591518 119.3125 41.4375 C118.72275391 42.44844727 118.13300781 43.45939453 117.52539062 44.50097656 C113.16193514 51.98821624 108.82644277 59.49132552 104.5 67 C99.48814411 75.69270288 94.47490517 84.38457182 89.4375 93.0625 C88.87804687 94.03123047 88.31859375 94.99996094 87.7421875 95.99804688 C86.68556219 97.81467858 85.61832813 99.6251938 84.5390625 101.4284668 C83.50412866 103.1576797 82.49393814 104.90191947 81.5078125 106.65942383 C77.86886734 112.77734038 77.86886734 112.77734038 73.5703125 113.87890625 C72.43335938 113.77449219 71.29640625 113.67007813 70.125 113.5625 C68.39636719 113.44068359 68.39636719 113.44068359 66.6328125 113.31640625 C65.32957031 113.15978516 65.32957031 113.15978516 64 113 C63.5359375 112.15824219 63.071875 111.31648438 62.59375 110.44921875 C57.34360263 100.99371642 51.87137253 91.67936189 46.3399353 82.38598633 C41.26520398 73.8568666 36.25754767 65.29275795 31.3125 56.6875 C26.67410228 48.61605771 21.99703751 40.5705582 17.25 32.5625 C16.19912881 30.78651155 15.14834606 29.01047077 14.09765625 27.234375 C12.52373935 24.57381272 10.94885063 21.91385692 9.37060547 19.25585938 C7.80311928 16.61181594 6.24433454 13.96282547 4.6875 11.3125 C4.21280273 10.51593994 3.73810547 9.71937988 3.24902344 8.89868164 C2.60562012 7.79834595 2.60562012 7.79834595 1.94921875 6.67578125 C1.38207153 5.7153894 1.38207153 5.7153894 0.8034668 4.7355957 C0 3 0 3 0 0 Z " fill="#FFFF00" transform="translate(137,378)"/>
<path d="M0 0 C3.40758287 1.13586096 3.67354907 1.61751227 5.4609375 4.55078125 C6.15751465 5.67637451 6.15751465 5.67637451 6.86816406 6.82470703 C7.36541992 7.64567871 7.86267578 8.46665039 8.375 9.3125 C9.45965228 11.06720135 10.54563136 12.82108311 11.6328125 14.57421875 C12.47054199 15.93039307 12.47054199 15.93039307 13.32519531 17.31396484 C15.90801745 21.45626938 18.57783892 25.53999598 21.25 29.625 C22.3205259 31.27329892 23.39083169 32.92174081 24.4609375 34.5703125 C26.71767102 38.04191006 28.99087625 41.50203338 31.27575684 44.95516968 C32.78181207 47.23682317 34.27724863 49.52531986 35.77087402 51.81512451 C36.85829886 53.47451437 37.95884438 55.12528207 39.05957031 56.77587891 C39.71795898 57.78827637 40.37634766 58.80067383 41.0546875 59.84375 C41.64749512 60.74287109 42.24030273 61.64199219 42.85107422 62.56835938 C44 65 44 65 43.80761719 67.1159668 C42.39289541 70.41627149 40.35768939 73.33428596 38.375 76.3125 C37.89063477 77.05032715 37.40626953 77.7881543 36.90722656 78.54833984 C35.84292368 80.16951433 34.77641095 81.78923962 33.70800781 83.40771484 C31.33247557 87.01311812 28.9776853 90.63189305 26.62231445 94.25048828 C24.73217668 97.15236364 22.83680186 100.05077564 20.94140625 102.94921875 C18.19976812 107.14737364 15.48216538 111.36006813 12.77734375 115.58203125 C12.0925293 116.64599121 11.40771484 117.70995117 10.70214844 118.80615234 C9.37813682 120.86405019 8.05960177 122.92548381 6.74707031 124.99072266 C6.1537793 125.91030762 5.56048828 126.82989258 4.94921875 127.77734375 C4.42674561 128.59452881 3.90427246 129.41171387 3.3659668 130.25366211 C2.68981323 131.11809937 2.68981323 131.11809937 2 132 C1.34 132 0.68 132 0 132 C-1.3659668 130.25366211 -1.3659668 130.25366211 -2.94921875 127.77734375 C-3.5424292 126.85783936 -4.13563965 125.93833496 -4.74682617 124.9909668 C-5.38724854 123.98332275 -6.0276709 122.97567871 -6.6875 121.9375 C-8.05192753 119.81760805 -9.41651535 117.69781925 -10.78125 115.578125 C-11.83119141 113.9394043 -11.83119141 113.9394043 -12.90234375 112.26757812 C-15.52066521 108.18894516 -18.16183333 104.12558475 -20.80981445 100.06616211 C-22.05836757 98.15201704 -23.30431454 96.23616943 -24.54760742 94.31860352 C-27.51959957 89.74482083 -30.52860055 85.20767114 -33.64453125 80.73046875 C-34.21147705 79.90844971 -34.77842285 79.08643066 -35.36254883 78.23950195 C-36.42384008 76.70698282 -37.49722741 75.1827424 -38.5847168 73.66870117 C-39.05176025 72.99170166 -39.51880371 72.31470215 -40 71.6171875 C-40.4125 71.03565918 -40.825 70.45413086 -41.25 69.85498047 C-42.3237305 67.199315 -41.85200424 65.70868695 -41 63 C-39.68408203 60.59082031 -39.68408203 60.59082031 -38.0078125 58.078125 C-37.39099609 57.14419922 -36.77417969 56.21027344 -36.13867188 55.24804688 C-35.1419043 53.76401367 -35.1419043 53.76401367 -34.125 52.25 C-32.7419056 50.161645 -31.35909478 48.07310217 -29.9765625 45.984375 C-29.2949707 44.96021484 -28.61337891 43.93605469 -27.91113281 42.88085938 C-25.40820722 39.10792606 -22.94981642 35.30753468 -20.5 31.5 C-13.70498433 20.9751045 -6.84902676 10.48978861 0 0 Z " fill="#FFFF00" transform="translate(207,164)"/>
<path d="M0 0 C3.96 0 7.92 0 12 0 C11.26875853 8.98996863 11.26875853 8.98996863 10.88232422 12.90161133 C10.31943359 18.65884272 9.95218221 24.33117989 9.90234375 30.1171875 C9.46387469 46.80541178 9.46387469 46.80541178 5.41943359 52.04931641 C0.97448993 55.84951377 -4.29658036 58.03702789 -9.60498047 60.37939453 C-15.85184991 63.36132459 -21.69639929 67.05561393 -27.60928345 70.64355469 C-31.03233397 72.7126003 -34.47855939 74.74227513 -37.921875 76.77734375 C-41.92912129 79.14884184 -45.90695484 81.55435147 -49.828125 84.06640625 C-53 86 -53 86 -55 86 C-54.31133814 82.09578938 -52.44291758 78.90855818 -50.5 75.51171875 C-50.14542725 74.89029495 -49.79085449 74.26887115 -49.42553711 73.62861633 C-48.67189583 72.31492281 -47.9152306 71.00296007 -47.15576172 69.69262695 C-46.01514499 67.71377499 -44.90026225 65.72182319 -43.78515625 63.72851562 C-38.75354212 54.91472344 -33.77074091 48.95285724 -24.59716797 44.25878906 C-13.0315323 38.10905913 -10.05825887 30.03427779 -6.125 17.9375 C-5.51872728 16.19442538 -4.90807722 14.45286686 -4.29296875 12.71289062 C-2.81099652 8.49102163 -1.38952476 4.25314571 0 0 Z " fill="#FFFF00" transform="translate(389,242)"/>
<path d="M0 0 C3.96 0 7.92 0 12 0 C12.47119263 1.57128662 12.47119263 1.57128662 12.9519043 3.17431641 C19.71813026 28.05910521 19.71813026 28.05910521 37 45.75 C38.76434179 46.6328852 40.53494261 47.5034089 42.3125 48.359375 C47.82053761 51.08897393 50.03955577 54.7578378 53 60 C54.21111377 61.93804954 55.4275269 63.87279468 56.6484375 65.8046875 C57.89265902 67.8268749 59.13482421 69.85032889 60.375 71.875 C61.01566406 72.90625 61.65632813 73.9375 62.31640625 75 C62.92097656 75.98742187 63.52554688 76.97484375 64.1484375 77.9921875 C64.69677246 78.88276855 65.24510742 79.77334961 65.81005859 80.69091797 C67 83 67 83 67 86 C62.96378111 84.51437573 59.39786923 82.58486042 55.6953125 80.40234375 C55.09899017 80.05204102 54.50266785 79.70173828 53.88827515 79.34082031 C51.96512613 78.20983186 50.04499731 77.07382921 48.125 75.9375 C46.80156463 75.15740891 45.47799655 74.37754292 44.15429688 73.59790039 C26.29427709 63.06966639 26.29427709 63.06966639 21.43676758 60.00463867 C18.09758384 57.93866677 18.09758384 57.93866677 14.63793945 56.68286133 C9.90946275 54.59173237 6.06940299 52.75108916 4.1149292 47.72311401 C2.4545941 40.84032727 2.11629355 33.79484788 1.6875 26.75 C1.51139625 24.60370517 1.32980596 22.45785306 1.14257812 20.3125 C0 6.75165225 0 6.75165225 0 0 Z " fill="#FFFF00" transform="translate(15,242)"/>
</svg>
