<?xml version="1.0" encoding="UTF-8"?>
<svg version="1.1" xmlns="http://www.w3.org/2000/svg" width="170" height="201">
<path d="M0 0 C8.90969124 4.08549708 15.75978605 12.60565237 22.5625 19.4375 C23.46935547 20.34048828 24.37621094 21.24347656 25.31054688 22.17382812 C32.26343682 29.13680203 38.73584225 36.36719047 44.9375 44 C46.09572266 45.423125 46.09572266 45.423125 47.27734375 46.875 C48.13005859 47.926875 48.13005859 47.926875 49 49 C52.55287745 47.72270025 55.24503365 46.23124965 58.1875 43.875 C61.784689 41 61.784689 41 64 41 C64 40.34 64 39.68 64 39 C64.845625 38.34 65.69125 37.68 66.5625 37 C72.05187836 32.63196734 76.03105045 26.30174095 79 20 C79.99 20 80.98 20 82 20 C86.73150713 40.8693261 84.75545949 59.42723198 76 79 C75.71527832 79.65226562 75.43055664 80.30453125 75.13720703 80.9765625 C72.17278061 87.55762194 69.38200154 93.0609839 62.4375 96.0625 C60.30439427 96.74920324 58.15695314 97.39233683 56 98 C54.72233576 98.43153999 53.44766205 98.87201358 52.17578125 99.3203125 C35.97860151 105 35.97860151 105 29 105 C28.74347656 104.30777344 28.48695312 103.61554688 28.22265625 102.90234375 C22.92413464 89.36167742 15.46394303 77.96586898 6 67 C4.66018625 65.33853839 3.32496521 63.67332685 2 62 C-1.12263574 63.3521903 -2.8800338 64.73547666 -4.953125 67.421875 C-5.48623291 68.11079834 -6.01934082 68.79972168 -6.56860352 69.50952148 C-7.12346436 70.24887939 -7.6783252 70.9882373 -8.25 71.75 C-8.82484131 72.51062744 -9.39968262 73.27125488 -9.99194336 74.05493164 C-17.12332888 83.65190784 -23.03024416 93.66530241 -27 105 C-35.94029368 104.13381238 -44.17177763 101.51169814 -52.68457031 98.73925781 C-54.58569081 98.13227839 -56.50576394 97.58497167 -58.4296875 97.0546875 C-65.69443143 94.60566618 -68.58058176 89.9417094 -71.99731445 83.42041016 C-82.28727185 62.49144339 -85.2023264 42.66727933 -80 20 C-79.01 20 -78.02 20 -77 20 C-75.640625 21.90625 -75.640625 21.90625 -74.25 24.5 C-68.14975701 35.07871406 -58.79541362 44.89536889 -47 49 C-46.36835937 48.23558594 -45.73671875 47.47117188 -45.0859375 46.68359375 C-34.77395193 34.29626469 -23.74525563 22.66839098 -12.375 11.25 C-11.60470459 10.47503174 -10.83440918 9.70006348 -10.04077148 8.90161133 C-9.31317627 8.17611084 -8.58558105 7.45061035 -7.8359375 6.703125 C-7.19188965 6.06020508 -6.5478418 5.41728516 -5.88427734 4.75488281 C-4.01369945 3.0127587 -2.07238567 1.49349736 0 0 Z " fill="#21ABF8" transform="translate(84,52)"/>
<path d="M0 0 C4.94723666 3.57370114 9.47881774 7.22909561 13.78515625 11.5546875 C14.28994003 12.0599295 14.79472382 12.56517151 15.31480408 13.08572388 C16.36989232 14.14380185 17.42258176 15.20427708 18.47290039 16.26708984 C20.05760494 17.87004856 21.6501629 19.46486129 23.24414062 21.05859375 C30.54767893 28.38698735 37.41362186 35.97061152 43.9375 44 C44.70964844 44.94875 45.48179687 45.8975 46.27734375 46.875 C46.84582031 47.57625 47.41429687 48.2775 48 49 C51.55287745 47.72270025 54.24503365 46.23124965 57.1875 43.875 C60.784689 41 60.784689 41 63 41 C63 40.34 63 39.68 63 39 C63.845625 38.34 64.69125 37.68 65.5625 37 C71.05187836 32.63196734 75.03105045 26.30174095 78 20 C78.99 20 79.98 20 81 20 C85.73150713 40.8693261 83.75545949 59.42723198 75 79 C74.71527832 79.65226562 74.43055664 80.30453125 74.13720703 80.9765625 C71.17278061 87.55762194 68.38200154 93.0609839 61.4375 96.0625 C59.30439427 96.74920324 57.15695314 97.39233683 55 98 C53.72233576 98.43153999 52.44766205 98.87201358 51.17578125 99.3203125 C34.97860151 105 34.97860151 105 28 105 C27.74347656 104.30777344 27.48695312 103.61554688 27.22265625 102.90234375 C21.76880711 88.96472929 13.76555783 74.68866758 2.39672852 64.71655273 C-1.69358602 59.75345508 -0.6086137 53.14760589 -0.48828125 47.0703125 C-0.47894512 45.71126613 -0.47183278 44.35220282 -0.46684265 42.99313354 C-0.44783493 39.43185214 -0.39879121 35.87160521 -0.34332275 32.31072998 C-0.29199367 28.67083731 -0.26929971 25.03077598 -0.24414062 21.390625 C-0.19066391 14.25999581 -0.10542908 7.13006577 0 0 Z " fill="#FD273C" transform="translate(85,52)"/>
<path d="M0 0 C0.66 0 1.32 0 2 0 C2.83919398 2.26882087 3.67151724 4.53977027 4.5 6.8125 C4.73847656 7.45509766 4.97695312 8.09769531 5.22265625 8.75976562 C6.27068746 11.64933739 7 13.90076061 7 17 C13.6 17 20.2 17 27 17 C23.77871617 21.02660478 21.83839693 23.06897048 17.75 25.8125 C16.41195312 26.71935547 16.41195312 26.71935547 15.046875 27.64453125 C14.37140625 28.09183594 13.6959375 28.53914063 13 29 C14.24702151 35.35450323 15.57364259 41.68327435 17 48 C12.18219072 46.32903446 9.06911978 43.69100488 5.28125 40.36328125 C3.09577643 38.78544459 3.09577643 38.78544459 0.57421875 39.0390625 C-2.64991006 40.24260679 -4.96804315 41.95890923 -7.6875 44.0625 C-12.80140598 48 -12.80140598 48 -15 48 C-14.71125 46.72125 -14.4225 45.4425 -14.125 44.125 C-13.00617536 39.09828073 -11.9916404 34.05314632 -11 29 C-11.75925781 28.46890625 -12.51851562 27.9378125 -13.30078125 27.390625 C-14.29464844 26.68421875 -15.28851563 25.9778125 -16.3125 25.25 C-17.29863281 24.55390625 -18.28476563 23.8578125 -19.30078125 23.140625 C-22 21 -22 21 -25 17 C-18.4 17 -11.8 17 -5 17 C-4.34 14.03 -3.68 11.06 -3 8 C-2.11444244 5.2661457 -1.06855657 2.67139143 0 0 Z " fill="#021B3F" transform="translate(84,0)"/>
<path d="M0 0 C4.23322844 0.62045463 7.52290295 2.10523559 11.3125 4.0625 C12.38113281 4.61035156 13.44976562 5.15820312 14.55078125 5.72265625 C15.35902344 6.14417969 16.16726562 6.56570312 17 7 C17.33 5.02 17.66 3.04 18 1 C18.99 0.67 19.98 0.34 21 0 C20.88205078 1.051875 20.88205078 1.051875 20.76171875 2.125 C20.67537847 5.46954976 20.86705033 7.83440534 22 11 C25.96731748 14.4714028 30.25766434 16.68613312 35 19 C36.13050781 19.5671875 37.26101562 20.134375 38.42578125 20.71875 C39.27527344 21.1415625 40.12476563 21.564375 41 22 C41 22.66 41 23.32 41 24 C34.24112575 26.07965362 28.04440079 26.21133202 21 26 C21.33 27.258125 21.66 28.51625 22 29.8125 C22.67603227 32.38987302 23 34.30212925 23 37 C20.40765478 36.00501273 19.23427238 35.45726498 17.9453125 32.94140625 C17.67460938 32.15636719 17.40390625 31.37132812 17.125 30.5625 C15.24394659 25.92599725 13.51175991 25.16564476 9 23 C3.45891841 16.51975204 -0.65116368 8.68218245 0 0 Z " fill="#021B3F" transform="translate(29,164)"/>
<path d="M0 0 C0.66 0 1.32 0 2 0 C3.07547234 15.77359427 -6.29447198 33.93741518 -16 46 C-18.203125 47.2890625 -18.203125 47.2890625 -20 48 C-20.48210937 47.16855469 -20.96421875 46.33710937 -21.4609375 45.48046875 C-22.40839844 43.85044922 -22.40839844 43.85044922 -23.375 42.1875 C-24.00148437 41.10855469 -24.62796875 40.02960938 -25.2734375 38.91796875 C-26.46055346 36.91168907 -27.70689373 34.93965941 -29 33 C-28.96484375 31.078125 -28.96484375 31.078125 -28 29 C-25.56640625 26.859375 -25.56640625 26.859375 -22.5625 24.75 C-21.57378906 24.04359375 -20.58507812 23.3371875 -19.56640625 22.609375 C-17 21 -17 21 -15 21 C-15 20.34 -15 19.68 -15 19 C-14.154375 18.34 -13.30875 17.68 -12.4375 17 C-6.94812164 12.63196734 -2.96894955 6.30174095 0 0 Z " fill="#AA1A21" transform="translate(163,72)"/>
<path d="M0 0 C0.66 0 1.32 0 2 0 C3.26171875 1.90625 3.26171875 1.90625 4.6875 4.5 C10.46317054 14.34772602 17.81349773 20.43080867 27 27 C28.33624311 27.9961085 29.6708656 28.99442577 31 30 C30.09476787 34.2002771 28.09717906 37.57966461 25.9375 41.25 C25.56044922 41.8996875 25.18339844 42.549375 24.79492188 43.21875 C23.86765885 44.81505091 22.93441544 46.40787529 22 48 C13.26773046 44.60623586 8.62248925 31.03020017 5 23 C1.82964961 15.17509061 -0.16674745 8.50411989 0 0 Z " fill="#1482C5" transform="translate(5,72)"/>
<path d="M0 0 C-0.289703 8.69109008 -3.00524023 17.06556378 -9.328125 23.29296875 C-16.39539569 27.80816947 -27.74312111 26.85750507 -35.75390625 25.55078125 C-37.52202842 25.10479695 -39.26656945 24.56601814 -41 24 C-41 23.34 -41 22.68 -41 22 C-39.85337891 21.41605469 -39.85337891 21.41605469 -38.68359375 20.8203125 C-32.3049698 17.48899747 -26.25544799 13.93655792 -20.3125 9.875 C-5.82088186 0 -5.82088186 0 0 0 Z " fill="#021B3F" transform="translate(138,164)"/>
<path d="M0 0 C2.375 1.4375 2.375 1.4375 4 4 C4.6142385 7.45006859 4.65260021 10.55381292 4 14 C1.34178445 17.38318343 -0.27839823 17.88402829 -4.5 18.5625 C-8 18 -8 18 -10.9375 16.0625 C-13.36515385 12.45780185 -13.6706249 10.34876663 -13.4296875 6.08984375 C-12.8027204 3.04050378 -11.5321477 1.73632985 -9 0 C-5.41563853 -1.19478716 -3.63093708 -0.96330984 0 0 Z " fill="#021B3F" transform="translate(166,49)"/>
<path d="M0 0 C2.375 1.5 2.375 1.5 4 4 C4.62600365 7.13001824 4.63475275 9.87078033 4 13 C1.9375 16.0625 1.9375 16.0625 -1 18 C-5.05052242 18.65097682 -7.22953601 18.36064272 -10.9375 16.625 C-13.67325718 13.14312723 -13.64682274 10.68397472 -13.4296875 6.34765625 C-13 4 -13 4 -11.1875 1.4375 C-7.17473065 -1.19946272 -4.55929084 -1.20960777 0 0 Z " fill="#021B3F" transform="translate(13,49)"/>
<path d="M0 0 C0.66 0 1.32 0 2 0 C2.28571429 7.42857143 2.28571429 7.42857143 0 11 C-0.33 9.68 -0.66 8.36 -1 7 C-1.99 7.66 -2.98 8.32 -4 9 C-2.80100302 5.9168649 -1.52299523 2.93720508 0 0 Z " fill="#BA1C26" transform="translate(163,72)"/>
</svg>
