<?xml version="1.0" encoding="utf-8"?>
<!-- Generator: Adobe Illustrator 16.0.0, SVG Export Plug-In . SVG Version: 6.00 Build 0)  -->
<!DOCTYPE svg PUBLIC "-//W3C//DTD SVG 1.1//EN" "http://www.w3.org/Graphics/SVG/1.1/DTD/svg11.dtd">
<svg version="1.1" id="Layer_1" xmlns="http://www.w3.org/2000/svg" xmlns:xlink="http://www.w3.org/1999/xlink" x="0px" y="0px"
	 width="544.103px" height="485.757px" viewBox="127.95 57.123 544.103 485.757"
	 enable-background="new 127.95 57.123 544.103 485.757" xml:space="preserve">
<g id="Lions_Copyright" display="none">
	<text transform="matrix(1 0 0 1 16.0002 25.9998)" display="inline" font-family="'MyriadPro-Regular'" font-size="19">OSLO LIONS LOGOTYPE</text>
	<text transform="matrix(1 0 0 1 18.0002 43.9998)" display="inline" font-family="'MyriadPro-Regular'" font-size="19">WWW.OSLO-LIONS.NO</text>
	<text transform="matrix(1 0 0 1 579.0002 587.9998)" display="inline" font-family="'MyriadPro-Regular'" font-size="19">COPYRIGHT © OSLO LIONS</text>
</g>
<g id="Lions_Logo">
	<g display="none">
		<g id="Shield" display="inline">
			<path fill="#3D3D3C" d="M393.732,77.509c41.627-1.028,83.394,3.742,123.853,13.752c20.813,5.098,41.299,11.553,61.364,19.083
				c1.075,0.327,1.402,1.59,1.355,2.571c-0.654,36.016-1.311,72.029-1.965,108.043c-0.748,38.354-8.979,76.52-23.854,111.831
				c-10.71,25.818-24.93,50.142-41.533,72.59c-14.404,19.317-30.542,37.371-48.035,53.93c-15.809,14.78-32.6,28.577-50.514,40.69
				c-3.694,2.434-7.295,4.958-11.225,6.971c-1.122,0.606-2.198-0.234-3.182-0.702c-9.4-5.332-18.193-11.553-26.939-17.867
				c-23.152-17.212-44.48-36.902-63.423-58.698c-24.274-27.97-44.527-59.588-58.512-93.965
				c-15.342-37.277-22.871-77.735-22.264-118.052c0-34.938,0-69.877,0-104.815c-0.094-2.011,2.198-2.292,3.602-2.854
				C284.005,90.605,338.588,78.912,393.732,77.509L393.732,77.509z"/>
			<path fill="#D54B0B" d="M280.638,105.619c57.342-16.136,117.817-21.047,176.983-14.171c21.749,2.525,43.404,6.454,64.547,12.067
				c15.901,4.256,31.569,9.214,47.006,14.826c-0.517,27.222-0.982,54.396-1.45,81.57c-0.281,11.226-0.233,22.45-0.89,33.676
				c-1.216,18.568-3.976,37.138-8.746,55.145c-8.325,31.103-21.655,60.756-38.773,87.978
				c-15.154,24.182-33.488,46.305-53.646,66.463c-15.575,15.622-32.366,29.98-50.28,42.89c-4.256,3.041-8.699,5.94-13.144,8.84
				c-20.018-12.16-38.398-26.847-55.61-42.749c-24.182-22.685-46.024-48.175-63.189-76.659
				c-10.148-16.791-18.802-34.518-25.725-52.852c-6.314-16.838-11.178-34.237-13.984-52.012
				c-2.572-15.948-3.835-32.085-3.882-48.269c0.047-34.471,0-68.988,0.047-103.506C253.323,113.944,266.887,109.501,280.638,105.619
				L280.638,105.619z"/>
			<path fill="#FFFFFF" d="M325.352,106.18c53.646-9.495,108.979-9.309,162.626,0.515c23.946,4.163,47.38,11.131,70.345,19.083
				c-0.468,21.936-0.795,43.919-1.217,65.902c-97.658,39.054-195.271,78.062-292.932,117.116l-0.047,0.048
				c-3.086-9.495-6.127-19.083-7.951-28.905c-3.648-18.615-5.472-37.651-5.566-56.642c0-32.318,0.048-64.686,0-97.005
				c12.815-4.442,25.726-8.652,38.821-12.161C301.264,110.811,313.283,108.285,325.352,106.18L325.352,106.18z"/>
			<path fill="#3D3D3C" d="M264.174,308.796c97.66-39.055,195.272-78.063,292.932-117.116c-0.187,10.99-0.373,21.981-0.607,32.974
				c-0.515,14.406-1.918,28.765-4.536,42.89C465.855,302.201,379.7,336.813,293.594,371.47
				c-8.278-13.282-15.341-27.314-21.515-41.674C269.226,322.875,266.419,315.905,264.174,308.796L264.174,308.796z"/>
		</g>
		<g id="Lion" display="inline">
			<path d="M402.479,33.029c2.385-0.563,4.864-0.889,7.343-1.029c-1.964,1.964-4.583,3.087-6.359,5.192
				c-2.06,2.432-4.537,4.771-5.146,7.998c-0.515,2.712-1.637,5.425-1.309,8.23c0.467,2.713,2.011,5.099,2.993,7.671
				c1.263,3.414,3.976,6.128,7.017,8.045c2.806-5.191,6.734-9.589,11.038-13.564c2.479-2.245,4.441-5.004,7.296-6.782
				c3.555-2.198,6.782-4.911,10.664-6.548c4.537-1.871,9.168-3.695,14.078-4.116c4.116-0.374,8.186,0,12.301,0
				c-1.964,2.245-4.724,3.695-6.641,6.034c-3.368,4.069-6.597,8.653-7.624,13.985c-1.169,4.771-2.713,10.056-0.188,14.686
				c2.62-2.385,5.005-5.098,8.091-6.875c8.232-4.584,17.072-8.419,26.475-9.916c7.155-0.842,14.593-0.514,21.468,1.778
				c-4.351,3.086-6.828,7.998-8.56,12.909c-2.618,5.004-2.665,10.851-2.291,16.37c4.257-3.789,9.119-7.483,15.014-7.951
				c6.359-0.281,13.143,1.216,18.054,5.425c1.217,0.936,1.871,2.339,2.572,3.695c-5.238,0.561-10.71,4.303-10.943,9.962
				c5.285,0.654,10.57,2.385,14.967,5.472c5.052,3.695,9.073,8.653,12.066,14.078c4.069,7.577,8.419,15.201,9.494,23.854
				c-2.618-2.244-4.724-5.145-7.812-6.828c-2.945-1.497-6.032-2.947-9.307-3.321c-3.088-0.421-6.174-1.076-9.309-0.655
				c2.619,1.637,5.659,2.434,8.186,4.209c8.98,6.595,15.949,16.37,17.633,27.549c0.422,3.041,0.422,6.081,0.281,9.121
				c-2.105-1.355-3.367-3.555-4.351-5.8c-1.264-3.04-3.46-5.519-5.706-7.904c-5.332-5.519-12.207-9.869-19.926-10.944
				c1.639,1.263,3.463,2.433,4.817,4.068c4.163,5.146,8.513,10.29,11.086,16.511c2.572,6.454,4.068,13.377,4.115,20.346
				c-2.433-2.573-3.882-5.8-6.221-8.419c-3.883-5.239-9.4-9.822-16.091-10.478c5.613,4.864,8.419,11.928,11.227,18.615
				c0.981,2.572,2.433,5.051,2.945,7.812c1.076,5.19,3.183,10.195,3.321,15.574c0.563,8.605,1.73,17.773-1.917,25.911
				c-0.608,0.047-1.217,0.141-1.824,0.234c-0.701-3.882-0.936-8.045-3.229-11.412c-3.367-5.005-9.026-7.858-14.686-9.542
				c4.021,4.396,6.548,9.916,8.045,15.622c2.853,8.044,3.741,16.604,4.584,25.069c0.046,6.453,0.186,13.096-1.592,19.363
				c-0.981-0.749-2.292-1.45-2.339-2.806c-0.653-4.21-2.245-8.279-5.051-11.459c0.981,3.929,2.525,7.717,3.32,11.693
				c0.795,3.694,0.653,7.529,0.653,11.271c0.095,6.408-0.278,12.862-1.776,19.13c-1.776,6.642-4.068,13.144-6.547,19.551
				c-1.17,3.367-1.029,6.97-1.404,10.478c-2.01-2.105-3.133-4.959-3.367-7.858c-0.468-5.378,0.094-11.038-2.011-16.183
				c-3.274-6.969-6.829-14.313-13.097-19.13c0.981,5.332,2.386,10.57,2.854,15.996c0.842,8.372,0.842,16.884-0.654,25.21
				c-1.497,6.455-2.899,13.002-5.707,19.083c-2.15,4.724-3.929,9.962-7.95,13.47c-0.422-2.572-0.095-5.146-0.048-7.717
				c-0.374-7.577-3.929-14.968-9.729-19.832c-0.047,4.771,1.17,9.447,1.123,14.219c-0.234,5.613,0.561,11.272-0.094,16.838
				c-1.543,9.31-4.725,18.148-7.392,27.129c-1.216,4.256-2.944,8.277-4.021,12.534c-0.469,0.047-0.937,0.094-1.404,0.14
				c-0.748-9.399-4.629-18.334-9.962-26.004c-0.748,7.67-5.051,14.313-7.249,21.562c-1.729,6.83-0.141,13.984,2.338,20.393
				c-5.752-2.619-10.195-7.576-13.049-13.143c-3.181-6.174-4.022-13.283-3.461-20.158c-2.9,2.151-5.005,5.145-7.53,7.717
				c-2.714,2.808-4.584,6.408-5.753,10.15c-1.496,5.799-3.273,11.6-2.994,17.68c-0.187,4.304,1.312,8.418,1.356,12.676
				c-2.525-0.422-3.087-3.088-4.351-4.864c-4.442-5.986-10.43-11.132-12.814-18.382c-1.778-6.033-0.188-12.348,1.543-18.24
				c-3.041,2.104-5.005,5.284-7.203,8.138c-5.005,7.25-8.559,15.575-9.869,24.321c-0.795,3.228-0.421,6.501-0.842,9.776
				c-1.591-1.592-2.854-3.557-3.461-5.707c-1.543-4.957-3.087-10.011-3.04-15.202c0.14-5.379,1.263-10.616,2.292-15.854
				c-2.854,2.432-5.566,5.145-7.109,8.605c-1.871,4.443-4.491,8.514-5.66,13.189c-0.795,2.854-0.561,5.94-2.15,8.561
				c-3.321-9.963-3.977-20.628-7.717-30.496c-1.264,4.21-3.182,8.139-5.1,12.066c-0.561,1.216-2.011,1.497-3.086,1.965
				c0.188-4.489,0.748-9.167-0.889-13.47c-1.964-5.146-4.116-10.431-7.951-14.547c-1.777-1.918-4.724-2.899-7.25-1.918
				c-1.59,0.702-2.058,2.62-2.385,4.163c-0.795,3.461,1.31,6.642,2.011,9.916c-2.292-0.937-3.882-2.854-5.707-4.443
				c-2.666-2.479-5.565-4.816-7.437-7.999c-2.854-4.35-4.351-9.399-6.408-14.171c-1.076-2.526-1.964-5.192-2.198-7.951
				c-0.748-7.577-2.011-15.247-1.122-22.919c0.327-3.741,1.59-7.343,1.684-11.084c-3.508,2.854-5.426,7.529-5.005,12.066
				c0,1.776,1.403,3.134,1.685,4.865c-3.508,0-6.222-2.667-8.326-5.192c-2.524-3.461-4.911-7.202-5.893-11.412
				c-0.982-3.835-1.123-7.812-1.497-11.693c-0.748-7.996,0.562-16.089,3.694-23.479c1.311-3.134,2.572-6.408,2.479-9.916
				c-3.087,2.011-4.958,5.379-6.595,8.56c-1.311,2.433-1.123,5.239-1.123,7.905c-0.421-0.141-1.264-0.422-1.731-0.563
				c-0.187-3.086,0.421-6.221-0.187-9.308c-0.516-2.899-1.216-5.8-2.387-8.513c-0.981,3.273-0.795,6.922-2.618,9.916
				c-1.685,2.807-3.229,5.707-5.332,8.231c-0.469,0.607-1.311,0.701-1.965,0.982c1.73-9.542-2.151-18.662-4.257-27.783
				c-1.355-5.19-1.543-10.569-1.263-15.901c0.094-2.619,1.403-4.911,2.713-7.109c-2.947-2.619-5.052-6.081-6.455-9.729
				c-3.367,2.572-7.062,4.678-10.991,6.314c0.655-2.853,2.105-5.472,2.666-8.372c0.937-5.332,1.17-10.804,0.749-16.183
				c-0.187-2.807-0.654-5.612-0.468-8.465c0.327-3.93,2.245-7.483,3.835-10.991c-3.04-0.468-5.938,1.027-8.091,3.086
				c-2.479,2.011-3.742,5.005-5.285,7.671c-0.607-0.468-1.402-0.889-1.497-1.778c-1.216-5.332-0.374-10.943,1.311-16.089
				c1.729-5.286,4.677-10.01,8.091-14.313c1.824-2.947,4.209-5.474,6.313-8.186c-1.684-2.245-2.992-4.817-3.789-7.53
				c-4.256-13.984-1.402-29.466,5.659-42.048c1.73-3.742,3.415-8.326,7.765-9.635c-1.638,4.677-0.701,10.243,3.041,13.611
				c0.374-3.742,1.216-7.391,1.776-11.085c0.467-2.994,0.233-6.034,0.655-9.027c0.748-5.987,2.619-11.74,3.461-17.727
				c0.281-2.151-1.169-4.022-1.871-5.987c1.123,0.607,2.245,1.216,3.134,2.151c2.9,3.18,5.052,6.922,7.109,10.663
				c2.807-7.016,6.221-13.844,10.758-19.972c3.274-3.789,6.595-8.559,11.973-9.308c-2.432,4.209-6.174,7.764-7.343,12.628
				c-1.45,4.256-0.936,8.934,0.937,12.956c0.421,0.842,0.749,1.964,1.823,2.15c3.04-5.986,5.659-12.254,9.495-17.866
				c2.9-5.005,6.969-9.215,10.617-13.704c2.105-2.572,4.724-4.725,7.53-6.501c2.994-1.777,5.894-3.93,9.4-4.49
				c-0.795,3.181-2.386,6.081-3.18,9.261c-1.45,6.314-1.965,13.096,0.14,19.364c4.725-1.917,9.215-4.63,12.862-8.186
				c3.086-3.181,6.033-6.501,8.605-10.103c1.823-2.479,2.246-5.521,3.415-8.279c2.618-6.688,7.155-12.722,13.096-16.791
				c2.573-1.776,5.659-2.432,8.372-3.835c2.292-1.216,4.816-1.776,7.25-2.572C398.69,34.526,400.467,33.45,402.479,33.029
				L402.479,33.029z"/>
			<path fill="#D54B0B" d="M379.419,51.551c3.555-3.602,7.576-7.108,12.582-8.56c-2.059,7.063-1.591,14.874,1.729,21.468
				c1.73,3.835,4.817,6.735,7.67,9.729c3.04,2.898,6.127,5.846,9.448,8.419c2.011-5.94,4.396-11.975,8.699-16.698
				c2.15-2.526,5.052-4.256,7.671-6.313c2.994-2.339,5.8-4.911,9.167-6.735c2.76-1.497,5.332-3.415,8.277-4.443
				c-2.057,5.987-4.771,11.833-5.846,18.147c-0.795,3.882-0.469,7.857,0,11.74c0.562,4.209,0.467,8.699,2.525,12.582
				c2.104-3.462,4.771-6.643,7.951-9.215c4.816-4.489,10.336-8.185,15.995-11.553c6.455-3.228,13.33-6.081,20.627-6.735
				c-1.028,1.17-2.386,1.965-3.836,2.433c-4.303,1.543-8.698,3.134-12.487,5.753c-2.151,1.45-4.443,2.994-5.613,5.379
				c3.462-1.543,6.549-4.209,10.524-4.49c-0.981,1.918-2.104,3.882-1.917,6.127c1.169-0.702,2.243-1.637,3.227-2.62
				c0.889,1.264,2.105,2.526,1.918,4.163c-0.188,1.544-1.264,2.761-2.059,3.977c0.422,0.421,0.842,0.842,1.311,1.263
				c-0.702,0.608-1.451,1.169-1.965,1.917c0.234,2.245,1.449,4.21,2.713,5.987c1.449,2.011,2.9,4.021,4.724,5.707
				c-2.479-4.022-4.677-9.074-2.571-13.751c0.654,2.994,0.562,6.127,1.45,9.121c0.606-1.917-0.234-3.835-0.281-5.706
				c-0.28-3.789-0.327-7.624,0.281-11.319c0.795-4.771,3.227-8.979,4.816-13.47c0.188-0.748,0.936-1.029,1.543-1.311
				c1.544-0.654,3.134-1.123,4.726-1.59c-2.059,4.022-4.726,7.812-6.361,12.067c-2.198,5.19-2.946,10.943-1.823,16.463
				c0.888,4.396,2.665,8.56,5.098,12.301c1.777-2.9,3.228-6.127,5.8-8.419c6.127-6.127,15.106-9.682,23.761-7.951
				c-3.04,2.059-6.034,4.256-8.98,6.501c0.655-1.637,1.356-3.228,1.965-4.864c-2.011,0.327-3.787,1.496-5.005,3.087
				c-1.729,2.244-3.788,4.536-4.256,7.437c-0.422,2.198-0.141,4.443,0.374,6.595c2.012-2.807,2.059-6.642,4.583-9.073
				c0.047,3.367-1.871,6.595-0.889,9.962c3.228-0.188,6.502-1.356,9.682-0.374c7.156,1.964,14.313,5.472,18.851,11.553
				c2.432,3.367,5.098,6.595,7.016,10.29c-3.741-0.375-7.391-1.403-11.178-1.356c-5.66,0.095-11.133,2.012-16.043,4.678
				c3.319,2.853,7.717,3.882,11.506,5.847c3.272,1.59,5.846,4.163,8.84,6.08c1.917,1.216,3.648,2.666,5.051,4.442
				c-3.134-0.468-5.893-2.058-8.934-2.853c-4.536-1.169-9.213-1.543-13.844-1.216c-2.479,0.188-5.427-0.374-7.25,1.73
				c1.823,1.169,3.789,2.059,5.473,3.414c3.602,2.9,7.343,5.707,10.523,9.121c2.292,2.619,4.442,5.379,6.032,8.466
				c-2.012-0.327-3.929-0.936-5.846-1.637c-2.713-0.935-5.565-1.31-8.326-2.011c-2.291-0.608-4.63,0-6.922,0.141
				c-1.965,0.093-3.883,0.141-5.8,0.374c-0.047,0.516-0.141,1.029-0.188,1.543c1.449,0.89,2.854,1.871,4.162,3.041
				c3.789,3.461,8.14,6.594,10.758,11.178c6.455,11.132,9.964,23.761,11.786,36.436c-8.372-4.069-18.007-5.846-27.221-4.069
				c1.87,2.292,4.022,4.351,5.8,6.735c3.273,4.35,5.894,9.167,7.717,14.312c3.04,7.531,4.632,15.622,4.911,23.713
				c-5.332-3.273-10.851-7.623-17.493-6.874c1.123,2.854,3.648,4.864,4.959,7.623c1.496,3.088,2.386,6.455,3.273,9.729
				c1.777,6.641,2.946,13.517,2.479,20.392c-0.374,4.864,0.047,9.822-1.355,14.546c-4.49-6.875-10.664-12.861-18.055-16.604
				c-2.104-0.937-4.537-2.058-6.875-1.403c-1.45,0.516-0.982,2.105-0.375,3.134c3.789,7.624,3.273,16.37,3.836,24.648
				c-0.188,6.876,0.141,13.893-1.871,20.58c-0.937,3.367-1.496,6.922-3.18,10.057c-2.854-2.713-5.333-5.848-8.607-8.092
				c-3.602-2.713-8.091-3.976-12.487-4.631c0.142,2.994,0.516,5.986,1.264,8.934c1.263,5.146,1.637,10.431,1.918,15.716
				c0.141,5.146,0.141,10.384-0.843,15.481c-1.264,6.641-1.776,13.517-4.303,19.877c-4.537-4.77-4.678-12.02-9.026-16.931
				c-3.089-3.368-7.156-5.94-11.601-6.923c1.311,5.099,2.011,10.337,2.104,15.622c-0.046,3.415-0.889,6.828-2.34,9.962
				c-1.169,2.525-1.822,5.238-3.413,7.578c-1.591-5.755-1.824-12.161,0.747-17.681c-3.834,0.701-7.342,2.479-10.851,4.068
				c-3.602,1.638-6.642,4.21-9.588,6.782c-2.76,2.433-5.239,5.146-7.203,8.23c-1.497,2.293-2.011,5.052-3.462,7.344
				c-1.215-4.771-0.14-9.729,0.188-14.547c0.095-2.619,0.982-5.145,1.638-7.67c-5.473,1.029-9.494,5.146-13.845,8.232
				c-2.244,1.824-4.35,3.788-6.36,5.846c-1.871,1.918-3.134,4.35-4.958,6.269c-0.608-4.115,1.355-7.812,2.899-11.459
				c-3.602,0.747-6.922,2.339-10.337,3.602c-2.945,1.59-5.985,3.227-8.324,5.659c-1.685,1.729-3.135,3.646-4.817,5.379
				c-3.274-6.034-6.034-12.628-11.132-17.493c-1.871-1.964-4.256-3.414-6.782-4.443c0.234,1.918,0.655,3.789,0.982,5.66
				c-3.648-3.555-6.408-8.045-10.617-10.992c-3.04-2.15-7.296-2.806-10.57-0.936c-2.152,1.076-3.228,3.274-4.63,5.099
				c-1.731-2.807-2.432-6.127-2.993-9.354c-1.31-6.875-2.292-13.892-2.666-20.859c-0.233-3.742,0.234-7.483,0.14-11.227
				c-0.047-5.332,0.234-10.805-1.355-15.948c-0.468-1.497-0.468-3.087-0.375-4.631c-1.824,0.421-3.694,0.842-5.332,1.777
				c-3.04,1.685-5.332,4.396-7.905,6.688c-1.028-0.842-2.385-1.637-2.571-3.087c-0.655-2.993-0.515-6.081-0.702-9.12
				c-0.562-5.332,0.562-10.617,0.936-15.902c0.468-7.483,2.385-14.779,4.351-21.982c-2.479-0.234-5.004-0.515-7.483,0.14
				c-2.479,0.702-4.396,2.479-6.595,3.742c-2.76-5.378-4.303-11.693-9.261-15.575c0.187,5.707,0.093,11.506-1.824,16.933
				c-1.216-2.479-1.917-5.146-2.9-7.718c-1.31-3.694-2.713-7.577-2.619-11.553c0.281-3.228,1.17-6.408,2.9-9.121
				c2.619,1.169,5.191,2.433,8.044,3.04c2.854,0.655,5.8,0.563,8.7,0.514c1.637,4.069,4.021,7.766,6.501,11.366
				c0.562,0.889,1.402,1.45,2.246,2.059c0.093,0.14,0.279,0.374,0.374,0.468c1.31,2.479,3.508,4.35,5.847,5.846
				c-2.105-6.968-4.069-14.967-0.421-21.749c0.936,0.655,1.918,1.264,2.854,1.871c0.748-0.654,1.543-1.31,2.338-1.917
				c1.356,3.789,0.422,7.904,1.076,11.787c0.563,3.601,0.655,7.25,0.89,10.898c1.169-2.152,2.104-4.865,4.584-5.801
				c1.262-0.421,3.18-0.468,3.976,0.795c0.795,3.368-0.842,6.875-3.087,9.354c0.14-2.479,0.842-4.864,1.029-7.343
				c-0.982,1.824-2.151,3.555-3.182,5.332c-0.795,3.555-2.104,6.969-2.432,10.617c0.842-0.843,1.684-1.73,2.526-2.572
				c0,1.684-0.048,3.367,0.047,5.098c1.776-1.263,3.319-2.947,5.425-3.602c0.093,2.571-0.327,5.098-0.374,7.67
				c-0.094,3.368,1.543,6.455,3.134,9.354c0.514,1.028,1.263,2.059,1.076,3.273c-0.188,2.059-0.515,4.209-1.637,5.986
				c-1.076,1.729-2.479,3.273-3.228,5.238c-1.964,5.1-2.292,10.805-1.263,16.184c0.654,6.455,2.946,12.723,6.501,18.147
				c0.468-2.387,0.047-4.817,0.375-7.203c0.234-2.386,0.936-4.678,2.058-6.781c1.169,1.591,1.497,3.602,2.152,5.425
				c1.496,4.725,3.274,9.448,6.08,13.518c2.292,3.414,4.537,6.922,7.53,9.822c2.712,2.807,6.08,4.911,9.354,7.063
				c2.385,1.543,4.864,2.993,7.624,3.789c-1.543-3.088-4.021-5.612-5.659-8.652c-1.543-2.666-2.386-5.706-2.854-8.747
				c2.713,1.918,5.052,4.304,7.671,6.313c3.647,2.947,7.951,4.912,12.114,7.017c6.173,2.994,12.769,5.754,19.736,5.565
				c-1.823-2.571-5.004-3.694-6.969-6.127c-1.965-2.292-3.461-4.958-4.49-7.764c3.742,1.402,7.156,3.741,11.226,4.35
				c6.034,0.89,12.208,2.012,18.288,1.075c3.929-0.748,7.812-1.777,11.226-3.788c3.181-1.685,5.847-4.116,8.793-6.08
				c-2.15,0.141-4.35,0.42-6.501,0c-2.524-0.516-4.818-1.591-6.969-2.854c1.964-4.022,6.548-5.566,9.073-9.121
				c0.935-1.122,1.869-2.244,2.618-3.461c4.258-7.438,7.391-15.762,7.53-24.414c-0.047-4.07,0.094-8.139-0.188-12.161
				c-0.233-2.899-0.094-5.894,0.936-8.653c0.375,0.047,1.076,0.142,1.404,0.188c1.543,6.174-1.591,12.582,0.654,18.662
				c0.14-0.047,0.467-0.047,0.653-0.047c3.182-6.455-0.606-14.499,3.742-20.533c2.572,2.524,2.385,6.36,1.684,9.635
				c-1.075,5.099-1.028,10.337-2.385,15.342c-0.563,2.198-1.451,4.256-2.104,6.408c0.468,0.373,0.981,0.748,1.497,1.169
				c0.747-2.058,1.169-4.304,2.571-6.081c0.795-0.981,2.012-1.543,3.135-2.058c-0.281,1.263-0.654,2.525-0.982,3.788
				c4.021,0.375,7.344-2.058,10.664-3.881c3.32-1.871,5.8-4.818,8.466-7.438c2.151-2.012,3.976-4.396,5.847-6.642
				c2.808,1.965,2.993,5.706,2.386,8.794c1.075-1.544,2.386-2.947,3.555-4.443c1.123-3.041,1.497-6.361,2.479-9.449
				c0.422,0.702,0.889,1.404,1.311,2.105c2.011-1.73,2.385-4.49,3.04-6.876c1.355-6.782,1.777-14.031-0.516-20.672
				c-0.981-3.415-2.571-6.643-3.647-10.057c3.228,0.234,5.52,2.666,8.279,3.93c0.279-2.245,0-4.958,1.776-6.688
				c2.479-0.562,4.678,1.356,6.969,2.105c0.374-2.761-0.047-5.52-0.468-8.232c2.479-0.141,3.508,2.432,5.099,3.882
				c-0.28-3.134-1.543-5.985-2.386-8.934c-1.074-3.694-2.339-7.438-2.807-11.271c2.058,1.403,3.462,3.508,5.285,5.191
				c-0.608-3.181-1.777-6.268-3.04-9.309c-1.264-3.087-3.461-5.846-4.069-9.214c1.497,0.982,2.899,2.104,4.352,3.135
				c-0.422-3.93-2.152-7.577-2.62-11.554c2.479,2.433,3.602,5.801,6.034,8.186c-0.469-4.958-0.188-9.962-0.469-14.92
				c-1.028-6.875-4.396-13.144-6.033-19.831c1.543,1.076,2.899,2.385,4.35,3.555c-1.028-4.631-2.432-9.214-3.741-13.751
				c-0.374-1.684-1.776-2.807-2.898-4.022c1.262,0.142,2.898-0.421,3.882,0.702c0.98,0.936,1.776,2.059,2.712,3.04
				c-0.795-3.18-2.01-6.268-3.508-9.214c-2.244-4.303-5.939-7.53-9.261-10.897c-1.45-1.497-2.479-3.321-3.088-5.285
				c2.013-0.374,4.069-0.563,6.127-0.655c-2.338-1.684-6.08-3.274-5.705-6.735c2.197-3.227,6.97-4.209,8.186-8.277
				c-2.245,1.59-3.882,4.021-6.407,5.285c-1.217,0.607-2.573,0.701-3.883,0.749c2.151-2.807,5.566-4.49,7.25-7.671
				c2.572-4.816,4.957-10.148,4.069-15.762c-0.749-3.789-2.245-7.39-4.305-10.617c-1.59-2.385-2.338-5.284-4.396-7.343
				c-2.059-2.011-3.788-4.35-5.612-6.595c-1.497,2.899-3.461,5.706-6.407,7.343c-2.433,1.497-5.286,2.338-8.139,2.619
				c-3.742,0.374-7.483,1.029-11.226,1.403c-2.761,0.28-5.612,0.14-8.419,0.326c-3.462,0.234-7.017,0.608-10.523,0.048
				c3.273-4.022,9.494-3.977,12.254-8.513c1.45-2.479,4.022-3.882,6.268-5.52c-8.371,1.73-14.732,8.279-23.012,10.384
				c-1.123,0.28-2.291,0.093-3.414-0.047c2.525-2.058,5.894-2.619,8.746-4.116c3.882-1.824,7.109-4.771,10.758-6.969
				c1.169-0.702,2.244-1.543,3.228-2.479c-5.099,1.45-9.494,4.49-14.452,6.222c-4.069,1.497-8.186,2.994-12.301,4.35
				c-0.516-0.467-1.029-0.935-1.544-1.355c-0.937,2.15-1.591,4.442-2.338,6.688c-0.517-0.14-1.029-0.328-1.544-0.468
				c0.421-2.666,0.701-5.285,0.701-7.998c0-3.228,1.871-5.987,2.946-8.98c-1.403,1.311-2.62,2.854-3.882,4.256
				c-0.281-0.467-0.608-0.981-0.889-1.495c-3.884,1.964-6.503,6.501-11.18,6.688c-4.536,0-9.354,0.937-12.956,3.929
				c2.76-0.374,5.378-1.684,8.232-1.543c2.058-0.046,4.067,0.655,6.08,0.843c0.653,0.094,1.123-0.374,1.59-0.654
				c2.9-2.292,5.052-5.379,7.856-7.671c-0.606,3.461-2.338,6.782-4.909,9.261c-0.795,0.795-1.311,1.871-2.245,2.479
				c-4.49,0.094-8.887-1.497-13.377-0.796c-3.648,0.562-7.344,1.45-10.853,2.619c-2.666,0.89-4.958,2.666-7.482,3.789
				c1.637-3.181,4.303-5.706,7.203-7.764c4.209-2.993,8.979-5.098,13.609-7.483c2.012-1.075,4.21-2.479,4.864-4.863
				c0.702-2.479,0.281-5.146-0.188-7.624c-1.354,1.449-1.729,3.461-2.759,5.098c-2.104,2.619-5.191,4.303-8.419,5.145
				c-2.946,0.748-5.894,1.591-8.372,3.321c-4.068,2.666-6.734,6.829-9.774,10.523c-2.619-0.327-5.238-0.843-7.904-0.702
				c-6.034,0.188-11.88,2.151-17.354,4.677c-2.853,1.311-5.145,3.508-7.997,4.911c1.449-4.49,3.508-8.793,6.127-12.675
				c0.561,0.889,1.075,1.776,1.59,2.666c1.123-0.936,2.245-1.871,3.415-2.807c0.093,0.937,0.232,1.871,0.375,2.807
				c0.467-0.046,0.981-0.093,1.45-0.093c0.187-0.516,0.326-1.029,0.468-1.544c1.075,0,2.338,0.374,3.134-0.515
				c2.058-1.871,3.602-4.256,5.752-6.034c5.005-4.303,7.952-10.29,10.758-16.136c1.216,3.181,2.712,6.408,5.379,8.606
				c0.094-1.403,0.094-2.854,0.094-4.257c0.748,0.655,1.496,1.311,2.292,1.917c0.562-2.618,0.562-5.332,1.075-7.95
				c0.516-3.041,1.356-5.94,2.151-8.888c-0.702,0.047-1.45,0.141-2.151,0.234c0.281-0.748,0.516-1.543,0.795-2.292
				c-4.068,1.076-7.856,3.134-10.757,6.174c-2.104,2.245-4.442,4.256-6.642,6.454c-2.152,2.152-3.508,4.911-5.521,7.203
				c-1.355-3.835-1.637-8.092-3.976-11.506c-0.514,2.666-0.608,5.612-2.292,7.951c-2.479,3.415-4.63,7.155-7.483,10.242
				c-2.666,2.854-5.051,5.94-7.343,9.074c-1.403,1.964-3.695,2.9-5.519,4.256c-1.964,1.45-3.977,2.947-6.314,3.695
				c0.28-1.543,0.702-3.041,1.311-4.49c1.216-3.04,1.59-6.36,2.666-9.448c1.449-4.35,3.319-8.605,5.705-12.534
				c4.304-6.268,11.318-9.729,17.399-13.938c5.332-3.695,9.214-9.12,12.535-14.593c1.824-2.9,2.245-6.361,3.742-9.401
				C375.584,57.21,376.941,53.983,379.419,51.551L379.419,51.551z"/>
			<path fill="#D54B0B" d="M331.479,74.235c1.169-1.216,2.666-1.964,4.209-2.572c-0.094,3.648-0.655,7.343,0.234,10.945
				c0.749,2.432,2.151,4.583,3.228,6.828c-3.929,4.958-7.437,10.431-8.979,16.65c-0.795,3.648-1.638,7.296-2.807,10.805
				c-2.292,0.375-4.631,0.654-6.969,0.842c0.468-3.742,1.824-7.25,3.508-10.617c-5.379,1.824-9.214,6.314-12.675,10.57
				c-5.473-0.516-10.945-0.141-16.37-1.029c0.701-4.911,2.761-9.495,4.677-14.032c0.421-1.123,1.076-2.15,1.825-3.04
				c2.104,5.052,4.725,10.431,9.775,13.097c0.281-2.62,0.281-5.379,1.355-7.858c2.433-5.8,5.379-11.413,8.186-17.025
				C323.293,82.561,327.363,78.257,331.479,74.235L331.479,74.235z"/>
			<path fill="#D54B0B" d="M285.548,111.886c-0.888-1.917,0.141-4.069,1.216-5.659c1.637,3.32,3.742,6.455,5.52,9.729
				C289.711,115.301,287.092,114.131,285.548,111.886L285.548,111.886z"/>
			<path fill="#D54B0B" d="M283.958,120.867c0.094-1.965,0-4.021,0.936-5.847c1.777,5.098,0.468,10.71,2.292,15.854
				c0.937,2.9,2.9,5.239,4.537,7.717c-2.151,0.328-4.396,0.375-6.595,0.048C284.333,132.747,283.912,126.807,283.958,120.867
				L283.958,120.867z"/>
			<path fill="#F18F00" d="M473.617,123.252c3.321-0.749,6.549-1.823,9.729-3.087c1.029,1.123,2.058,2.292,2.525,3.789
				c1.685,5.378,2.572,11.365,0.468,16.744c-1.964,5.472-5.473,11.038-11.131,13.19c-4.117,1.263-8.373,2.197-12.63,2.712
				c-3.319,0.421-6.642-0.234-9.916,0.375c0.748,1.543,2.105,2.524,3.648,3.086c3.555,1.45,6.735,3.555,10.103,5.333
				c9.168,5.098,18.102,11.412,23.573,20.58c-5.846-0.421-12.207-2.713-17.68,0.421c0.936,2.104,3.087,2.993,4.817,4.303
				c1.355,0.982,2.572,2.105,3.741,3.274c3.228,3.32,6.688,6.455,9.401,10.242c2.291,3.182,4.209,6.643,5.799,10.243
				c-3.367-1.871-6.688-3.929-10.336-5.237c-3.883-1.545-8.092-1.778-12.254-1.965c-1.357-0.094-2.62,0.515-3.789,1.169
				c2.059,2.34,4.584,4.163,6.502,6.596c2.899,3.461,6.127,6.688,9.166,10.009c3.041,3.321,5.099,7.39,7.016,11.459
				c-4.442-1.684-8.887-3.742-13.702-4.257c-3.088-0.093-6.222,0.141-9.263,0.795c1.918,2.994,4.959,5.004,7.25,7.717
				c5.099,5.566,10.29,11.413,13.144,18.522c-5.425-0.516-10.852-0.281-16.275-0.048c-1.918,0.094-3.274,1.497-4.49,2.76
				c8.231,10.384,13.471,23.292,13.845,36.576c-2.854-2.761-6.408-4.911-10.384-5.754c0.095,3.789,0.468,7.624-0.421,11.319
				c-0.515,2.338-1.777,4.396-2.992,6.407c-2.06,3.273-4.258,6.501-7.063,9.12c-0.234-3.788,0.561-7.67-0.281-11.459
				c-0.748-4.49-2.946-8.606-5.612-12.301c-2.291-3.321-5.238-6.361-9.12-7.765c-2.434-0.607-3.647-2.947-4.864-4.958
				c-1.543-2.619-0.842-5.753-0.654-8.652c-1.356,0.561-2.666,1.169-4.021,1.729c-1.122-2.386-1.544-5.051-0.937-7.624
				c1.028,0.562,2.011,1.122,3.04,1.637c-0.795-3.461-1.496-7.108-0.748-10.664c0.89-4.068,1.264-8.277,1.777-12.44
				c2.385,1.169,4.443,2.853,6.922,3.882c-1.076-1.59-2.619-2.666-4.303-3.508c-2.808-1.403-5.613-3.04-8.746-3.648
				c1.496,1.264,3.32,2.012,5.051,2.854c-2.151,1.964-4.817,3.415-6.268,5.986c-4.396,7.624-6.269,16.558-5.939,25.351
				c0.047,4.022,1.216,7.951,1.449,11.974c0.141,3.882,1.356,7.624,1.543,11.553c0.281,2.572,0.048,5.146,0.375,7.718
				c0.889,7.482,0.936,15.061,0.188,22.543c-0.563,6.549-2.292,13.33-6.688,18.429c-2.291,2.386-4.723,4.817-7.67,6.408
				c-2.013,1.027-3.835,2.433-5.8,3.554c-2.807,1.404-5.986,0.422-8.841-0.373c0.843,2.946,3.368,4.957,5.987,6.314
				c2.151,1.122,4.537,1.964,6.501,3.461c-4.21,0.561-8.513,0.42-12.675-0.281c-4.584-0.795-8.98-2.572-13.284-4.396
				c-7.437-3.134-13.283-8.887-18.802-14.64c0.468,3.648,0.795,7.39,2.011,10.897c0.936,2.946,2.292,5.754,3.555,8.56
				c-6.828-4.163-12.675-9.962-16.792-16.837c-4.209-5.801-7.811-12.255-8.886-19.411c-0.702,1.122-1.31,2.292-1.917,3.508
				c-0.233-0.889-0.468-1.729-0.702-2.571c-1.123,1.544-1.028,3.555-1.355,5.331c-0.421,3.977-1.637,8.139-0.047,12.021
				c1.497,4.209,5.332,7.904,4.303,12.676c-4.443-3.416-6.501-8.841-8.092-14.032c-2.198-7.765-2.105-15.901-1.543-23.854
				c-2.479,0.98-4.351,2.993-6.735,4.21c0.374-1.451,0.842-2.9,1.871-3.93c1.73-1.918,4.396-2.713,5.66-5.052
				c-2.434,0.468-4.303,2.104-6.127,3.603c-0.795,0.748-1.685,1.496-2.105,2.524c-0.562,1.73,0.188,3.741-0.702,5.427
				c-0.889,1.684-2.104,3.227-3.415,4.63c-0.607-5.005,0.281-10.149,2.104-14.827c1.918-3.928,6.642-5.004,10.571-5.705
				c4.489-1.029,9.073,0.046,13.517,0.701c4.49,0.748,9.12,1.216,13.33,3.04c5.052,2.198,10.384,3.741,15.622,5.425
				c4.724,1.217,10.384,1.264,14.266-2.104c2.712-2.761,5.146-5.987,6.174-9.729c0.937-2.994,1.122-6.128,1.217-9.262
				c0.094-3.789,0.981-7.53,2.339-11.038c0.936-2.619,3.835-4.022,4.442-6.782c1.966-7.764-0.28-15.809-2.899-23.104
				c-2.104-5.38-2.713-11.272-2.244-17.025c0.14-2.338,0.561-4.677,0.607-7.016c0.141-2.198-0.048-4.397,0.468-6.549
				c0.421-1.729,1.497-3.319,1.45-5.145c0.047-2.011,0.047-4.163,1.59-5.66c0.889,2.432,1.402,5.004,2.899,7.156
				c0.982,1.31,1.777,2.853,1.685,4.583c-0.234,5.285-0.608,10.664-0.234,15.996c0.889-0.516,2.06-0.795,2.479-1.824
				c1.729-3.415,3.228-7.016,3.788-10.851c0.562-3.602,0.606-7.25,0.889-10.852c0.094-0.889,0.094-1.918,0.842-2.526
				c1.357,0.89,1.45,2.76,2.386,4.069c0.421-1.076,0.795-2.198,1.075-3.321c2.525,0.048,5.1,0.048,7.577,0.702
				c1.591,0.327,3.134,1.123,4.864,1.076c1.918-0.047,3.883,0.093,5.612,0.936c1.029,0.421,1.917,1.123,2.993,1.402
				c0.655-0.281,1.169-0.842,1.73-1.216c-1.823-0.655-3.741-1.169-5.379-2.339c-1.311-0.936-2.619-1.917-4.069-2.666
				c0.608,0.889,1.217,1.73,1.871,2.62c-5.145-0.188-10.196-1.264-15.107-2.712c-0.606-3.087-1.354-6.127-1.964-9.214
				c6.922,0.748,14.031,0.607,20.768,2.571c2.338,0.655,4.91,0.842,6.922,2.339c-1.964,0.094-3.929-0.094-5.894-0.188
				c2.104,2.947,4.351,5.847,5.939,9.121c1.31,2.432,1.871,5.145,3.414,7.482c-0.467-2.759-1.777-5.19-2.713-7.717
				c-1.075-3.18-2.807-6.081-5.285-8.372c2.525,0.28,5.099,0.607,7.438,1.543c3.088,1.217,5.565,3.509,8.513,4.864
				c-1.355-4.864-3.881-9.401-6.922-13.47c-1.966-2.666-4.443-4.911-6.549-7.483c-1.87-2.199-3.882-4.256-6.268-5.847
				c-2.433-1.685-4.817-3.461-7.577-4.49c1.029,1.169,2.76,2.011,2.432,3.835c1.824,1.169,3.648,2.339,5.332,3.789
				c-0.187,0.188-0.561,0.655-0.747,0.889c3.134,2.619,6.642,5.099,8.698,8.746c-5.051-3.133-8.746-8.419-14.686-10.103
				c5.051,3.647,11.085,6.595,14.266,12.208c-2.807-1.263-5.006-3.929-8.326-3.929c2.526,2.058,5.66,3.273,7.857,5.753
				c-2.104-0.374-4.115-1.169-6.221-1.356c-2.338-0.047-4.63,0.749-6.922,0.233c-4.583-0.889-9.261-1.543-13.984-1.403
				c-0.795-2.713-1.45-5.472-1.59-8.278c1.169,0.608,2.338,1.263,3.508,1.824c-1.217-3.273-3.836-5.893-4.865-9.308
				c-0.98-3.181-2.011-6.407-2.338-9.775c-0.281-2.338-0.328-4.677-0.422-7.016c-0.467,0.187-0.981,0.328-1.449,0.515
				c-0.562,2.619-0.421,5.379-1.403,7.904c-1.121,3.228-2.244,6.455-3.508,9.635c-1.31,3.274-1.402,7.063-0.093,10.336
				c0.514,1.356,1.917,1.965,3.086,2.666c0,0.281,0,0.889,0,1.169c-3.414-0.047-6.734-0.515-10.147-0.607
				c-0.797-1.685-1.544-3.414-2.293-5.146c0.562-0.28,1.17-0.468,1.685-0.888c0.327-0.795,0.468-1.685,0.654-2.573
				c-2.479-0.889-5.052-1.964-6.596-4.256c1.497-1.637,3.041-3.274,4.209-5.192c-3.601,1.029-7.154,2.619-10.99,2.338
				c2.058-3.461,6.642-4.771,7.811-8.84c-2.947,1.311-5.379,3.556-8.326,4.864c-4.396,2.199-9.354,2.339-14.125,2.9
				c1.917,0.795,4.022,0.889,6.034,1.402c-4.49,0.281-9.027-0.607-13.424,0.421c-4.911,1.169-9.962,1.45-14.78,2.994
				c-2.572,0.842-5.379,1.403-7.53,3.18c5.146-0.936,10.243-2.197,15.481-2.244c3.461-0.188,6.875,0.562,10.29,0.701
				c6.034,0.328,11.787,2.619,16.791,5.894c1.964,1.263,4.116,2.947,3.976,5.565c-3.04-1.169-5.237-3.741-8.185-5.051
				c-7.483-3.227-15.622-5.378-23.807-4.771c-2.433,0.233-5.612-0.655-7.391,1.45c1.964,0.375,4.022,0.375,6.033,0.561
				c6.268,0.468,12.582,1.543,18.475,3.789c2.104,0.748,3.835,2.245,5.378,3.835c-7.764,0.749-15.527,1.45-23.197,2.9
				c-0.516-0.702-1.076-1.403-1.638-2.105c-1.87,0.281-4.303,0.983-4.724,3.181c-0.515,1.591,1.028,2.714,2.198,3.461
				c0.749,0.515,1.544-0.233,2.246-0.468c2.524-1.355,5.472-1.591,8.23-2.058c4.817-0.795,9.683-1.543,14.5-2.292
				c2.479-0.281,4.958-0.563,7.438-0.188c2.292,0.608,3.367,2.946,4.396,4.864c-3.647,0.047-7.203,0.655-10.804,1.076
				c-0.655,0-0.982,0.515-1.31,0.936c2.898-0.094,6.267-1.871,8.887,0.141c-2.994,0.515-6.034,0.795-9.074,0.702
				c-1.917-0.889-3.882-2.059-6.081-2.104c-1.403-0.187-3.134,0.889-2.946,2.432c0,1.029,0.843,1.824,1.73,2.198
				c1.684,0.982,2.993-1.31,4.677-1.402c3.742-0.562,7.577-0.701,11.365-0.469c0.14,1.543,0.328,3.041,0.421,4.584
				c-7.857-0.842-15.762-1.45-23.667-1.169c-3.414,0.046-6.829,0.515-10.196,0.141c-0.889-0.608-1.45-1.591-2.104-2.433
				c-1.311,0.842-3.04,1.59-3.368,3.229c0.328,2.197,2.899,2.666,4.724,2.338c0.142-0.655,0.281-1.311,0.421-1.917
				c11.505-0.328,23.013,0.654,34.472,1.402c-0.374,2.713-1.824,5.238-4.069,6.782c-2.151,1.45-4.163,3.04-5.893,4.958
				c2.339-0.375,4.771-0.749,6.829-2.059c3.273-2.104,6.313-4.536,9.635-6.501c0.607,0.187,1.169,0.421,1.777,0.654
				c-3.134,3.556-6.501,7.25-11.039,9.027c-3.367,1.122-6.781,2.292-10.383,2.432c-3.976,0.142-7.764,1.545-11.692,1.45
				c-2.854-0.094-5.659-0.421-8.466-0.28c0.654-0.516,1.356-1.076,2.011-1.638c-3.648-0.279-7.391-0.14-10.897-1.216
				c-3.929-1.123-7.811-2.338-11.833-3.134c-2.292-0.468-4.396-1.685-6.127-3.274c0.702-0.187,1.45-0.328,2.199-0.515
				c-1.356-1.075-2.619-2.479-4.443-2.666c-2.198-0.28-4.396,0.188-6.548,0.234c1.263-1.917,3.087-3.368,5.051-4.443
				c0.281-1.497,0.047-3.274,1.076-4.49c2.011-1.684,4.864-1.169,7.25-1.123c-0.421-2.713-0.702-5.425-0.935-8.139
				c-0.095-1.076,0.561-2.011,1.402-2.525c0.702,2.807,0.796,5.753,2.059,8.372c0.702-3.694,0.188-7.437-0.42-11.084
				c0.702,0.515,1.355,1.075,2.058,1.543c-0.187-3.134-2.479-5.519-4.583-7.67c0.842-0.094,1.73-0.187,2.572-0.281
				c-0.842-1.497-2.011-2.993-2.104-4.771c0.28-4.958,3.229-9.121,4.817-13.704c-3.134,1.31-5.098,4.209-6.408,7.203
				c-1.31,3.04-3.041,6.034-3.789,9.308c-0.468,1.777-0.889,3.603-1.684,5.285c-0.702-2.993-0.468-6.127-0.375-9.167
				c-3.835,2.854-3.367,8.372-3.228,12.675c-5.753,1.685-11.833,2.713-17.071,5.895c-2.387-1.497-4.864-2.76-7.344-3.977
				c1.965-5.52,5.566-10.477,6.222-16.371c-1.122,1.356-1.917,2.994-3.321,4.116c-3.321,2.713-6.781,5.191-10.243,7.717
				c0.655,0.422,1.311,0.89,1.965,1.311c-1.824,1.637-4.069,2.76-5.52,4.724c-1.73,3.182-0.795,7.017,0.888,10.01
				c1.918-1.216,3.883,0.188,5.613,1.076c2.338,1.123,1.543,4.396,3.555,5.847c3.603,2.993,8.232,4.115,12.675,5.379
				c-0.654,5.753-4.724,10.43-9.308,13.61c-2.338,1.543-4.584,3.556-7.437,3.93c-5.566,0.7-11.271-1.543-15.294-5.427
				c2.245-1.543,5.099-1.449,7.53-2.479c1.543-1.356,0.374-3.461-0.562-4.864c2.058-0.702,4.116-1.31,6.221-1.684
				c0.468-1.264,0.842-2.526,1.123-3.789c-0.936-0.28-1.824-0.515-2.713-0.795c-1.216,1.356-2.292,2.994-4.116,3.648
				c-3.319,1.356-6.688,2.76-10.103,3.977c-0.701,0.14-1.871,0.701-2.245-0.234c-0.748-1.871-0.608-3.929-0.702-5.894
				c2.9-1.123,5.987-1.824,9.074-1.356c0.655-0.936,1.356-1.825,1.871-2.807c-0.468-1.497-2.198-2.292-3.648-2.387
				c-1.497-0.232-2.104,1.357-3.134,2.105c-1.123,0.982-2.713,0.749-4.069,0.842c0.702-3.367,2.104-6.501,4.022-9.307
				c2.573-3.882,5.379-7.858,9.588-10.104c0.187-2.666,0.468-5.332,1.543-7.764c1.123-2.76,3.134-4.958,4.958-7.203
				c2.432-2.854,5.286-5.379,8.045-7.905c1.871-1.776,4.63-2.244,6.268-4.303c-5.191-2.479-8.325-7.718-13.517-10.196
				c-6.081-3.039-13.33-1.075-19.457-3.976c-3.835-1.918-7.108-5.706-7.203-10.196c3.648,2.104,7.297,4.864,11.74,4.49
				c-1.403-2.479-2.806-5.098-2.9-7.998c1.871,0.748,3.509,1.824,5.38,2.572c2.899,1.123,6.032,1.216,8.979,2.151
				c2.432,0.748,4.49,2.386,5.893,4.442c1.59,2.245,2.807,4.958,5.285,6.361c1.964,1.029,4.022,2.15,6.314,1.824
				c-0.562-2.104-3.274-2.012-4.49-3.603c-2.105-2.712-2.76-6.313-5.332-8.699c-3.508-3.882-8.7-5.332-13.61-6.455
				c0.981-1.87,2.058-3.694,3.647-5.098c1.356-1.31,3.134-2.151,4.583-3.368c3.273-2.993,7.482-4.442,10.945-7.203
				c-1.591-0.141-3.135-0.233-4.678-0.515c3.228-2.339,7.017-4.163,9.308-7.624c1.918-3.041,2.713-6.595,3.835-10.009
				c2.806,1.123,4.163,4.209,7.063,5.145c0.702,0.28,1.403,0.515,2.151,0.795c-1.076,3.93-2.245,7.904-4.209,11.507
				c0.561,0.326,1.123,0.654,1.684,0.981c1.169-2.245,2.152-4.677,3.835-6.595c3.134-3.789,7.25-7.063,12.161-7.998
				c-1.123,6.174-1.029,12.909,2.198,18.428c2.479-5.939,5.847-12.114,11.74-15.248c5.472-2.806,10.944-6.081,17.07-7.296
				c1.544-0.328,3.087,0.047,4.584,0.421c-1.356,1.824-3.087,3.228-5.005,4.303c-3.789,2.151-7.482,4.537-11.459,6.361
				c-1.263,0.562-2.386,1.45-3.321,2.432c4.537,0.374,8.794-1.449,13.19-2.385c6.642-1.45,13.47-2.853,19.364-6.36
				c2.432-1.403,4.35-3.556,6.922-4.771c5.379-2.76,11.88-2.713,17.446-0.655c-3.368,1.685-7.203-0.515-10.759,0.374
				c-3.32,0.749-7.063,2.198-8.605,5.474c1.076-0.608,1.964-1.45,2.807-2.387c0,0.702-0.047,1.403-0.047,2.105
				c1.59-0.328,3.134-0.937,4.771-1.169c1.59-0.047,3.134,0.233,4.677,0.374c-0.937-0.468-1.824-0.937-2.76-1.356
				c0.094-0.28,0.326-0.795,0.468-1.028c2.151,0.094,4.351,0.374,6.361,1.31c-2.714,2.854-5.94,5.753-6.503,9.869
				c2.761-1.076,4.958-3.181,7.719-4.351c1.401-0.607,2.899-0.981,4.209-1.823c1.776-1.122,3.414-2.386,5.426-3.04
				c2.807-0.982,5.52-2.245,8.466-2.666c4.583-0.516,8.98,1.169,13.518,1.309c4.396,0.141,8.745,0.702,13.144,0.608
				C459.587,125.965,466.603,124.702,473.617,123.252L473.617,123.252z"/>
			<path fill="#F18F00" d="M291.489,128.911c-1.263-2.619-0.936-5.612-0.607-8.419c3.929,0.655,7.903,1.59,11.973,1.216
				c2.339-0.233,4.677-0.094,7.016,0.188c-0.046,0.561-0.14,1.076-0.187,1.59c-2.339-0.188-4.724-0.047-7.017,0.374
				c1.871,0.655,3.789,1.169,5.613,1.824c0.047,0.28,0.141,0.889,0.188,1.169c-1.777,0.094-3.648,0.468-5.425-0.094
				c-3.835-1.028-7.203-3.227-10.898-4.584c2.338,4.958,5.565,9.589,10.009,12.862c-1.262,0.563-2.666,1.591-4.116,0.889
				C295.137,134.43,292.798,131.858,291.489,128.911L291.489,128.911z"/>
			<path d="M476.752,125.076c1.965-0.608,3.647-1.777,5.473-2.713c1.122,1.543,2.525,3.087,2.806,5.098
				c0.655,3.695,0.749,7.483,0.188,11.179c-0.141,1.263-0.891,2.386-1.639,3.415c-0.561-4.257-1.262-8.747-3.928-12.302
				c-2.807,1.918-5.939,3.321-9.121,4.49c-8.277,3.321-17.071,5.192-25.817,6.922c-3.741,0.842-7.623,0.89-11.459,1.123
				c4.021,1.59,8.42,0.937,12.629,0.701c4.724-0.28,9.446-1.029,14.219-1.169c-3.602,3.742-8.699,5.238-13.377,7.063
				c2.572,0.095,5.145,0,7.67-0.374c2.947-0.375,5.66-1.729,8.606-2.292c-1.87,4.678-6.128,8.372-10.944,9.822
				c-1.871,0.608-3.742,1.45-5.613,2.059c-0.187-0.654-0.326-1.311-0.467-1.965c3.133-0.889,6.268-2.104,8.652-4.442
				c-4.584,0.328-9.215,0.141-13.657-1.076c-1.544-0.421-2.76-1.497-3.882-2.572c3.74-0.187,7.575-0.468,10.943-2.245
				c-4.489-0.187-8.979-0.515-13.376-1.497c-2.151-0.468-3.93-1.964-6.081-2.385c-2.525-0.515-5.146-0.421-7.624-1.169
				c-2.618-0.795-5.565-1.355-7.483-3.555c4.585,0.702,9.309,1.637,13.846,0.233c-3.135-1.169-6.502-2.104-9.027-4.35
				c-0.795-0.608-0.047-1.59,0-2.339c3.977,2.432,8.841,2.619,13.236,1.59c-2.059-1.543-4.49-2.339-6.875-3.227
				c0.421-0.421,0.748-0.937,1.263-1.169c2.012,0.187,3.93,0.936,5.987,0.936c4.536,0.093,9.119,0.608,13.656,0.14
				c5.285-0.326,10.523-0.468,15.763-1.123c3.555-0.374,6.923-1.73,10.431-2.104C473.432,125.544,475.161,125.544,476.752,125.076
				L476.752,125.076z"/>
			<path fill="#F6BA66" d="M307.485,140.324c2.806-2.292,5.098-5.052,7.391-7.811c0.14,3.508,0.748,7.811-2.105,10.43
				c-3.32,2.947-7.202,5.051-10.897,7.39c-2.104,1.31-4.162,2.759-6.642,3.414c1.824-2.385,4.63-3.694,7.016-5.425
				c3.088-2.245,6.643-4.022,8.935-7.203C309.963,140.838,308.747,140.604,307.485,140.324L307.485,140.324z"/>
			<path fill="#D54B0B" d="M270.301,132.934c1.918,1.449,3.041,3.742,5.145,4.958c0.796,0.468,1.685,0.795,2.34,1.497
				c1.263,2.759,1.496,5.939,3.04,8.605c0.701,1.263,1.637,2.385,2.104,3.789c-0.233,1.216-1.263,2.105-2.104,2.947
				c-0.234-2.339-0.655-4.677-1.824-6.782c-1.123-2.151-2.059-4.443-3.274-6.595c-1.076-1.73-2.713-2.993-4.35-4.163
				c-1.216,2.245-2.151,4.677-2.245,7.25c1.637-0.468,1.684-2.433,2.292-3.742c3.368,3.134,5.191,7.483,6.408,11.833
				c-0.982,1.216-2.012,2.479-2.479,3.976c-0.515,1.544-0.562,3.181-0.795,4.771c-2.292-1.263-3.929-3.321-5.939-4.958
				c-2.619,2.292-2.807,5.894-2.993,9.121c-0.982-5.146-0.328-10.383,0.279-15.528C266.793,144.159,267.542,138.219,270.301,132.934
				L270.301,132.934z"/>
			<path d="M396.959,137.518c3.32,0.514,5.145,3.461,7.108,5.846c0.281-1.123,0.607-2.245,0.89-3.368
				c3.134,2.854,5.705,6.548,6.922,10.617c1.028,3.228,0.889,7.016-1.169,9.822c-2.151,2.479-4.817,4.537-7.904,5.706
				c-1.917,0.702-3.742,1.776-5.098,3.32c-3.695,4.163-5.895,9.542-10.243,13.097c-3.788,3.508-8.98,5.005-14.031,4.863
				c-3.648-0.14-7.624-0.326-10.664-2.572c-1.31-0.701-2.76-2.198-4.35-1.356c-2.387,0.982-4.865,1.871-7.438,1.824
				c-4.816-0.14-9.729-3.414-10.711-8.325c2.105,0.889,4.163,2.198,6.501,2.432c1.964,0.234,3.882-0.561,5.52-1.637
				c2.479-1.637,4.35-4.021,6.688-5.894c2.479-2.104,5.004-4.396,8.185-5.332c3.695-1.123,7.53-2.104,11.412-2.059
				c4.584,0.047,9.214,0.655,13.751-0.374c3.835-0.795,7.67-1.684,11.227-3.32c3.646-2.245,4.583-7.156,3.555-11.085
				c-3.229,1.917-6.081,5.098-10.103,5.098c1.216-2.806,2.666-5.753,2.197-8.933c-2.15,0.795-4.115,1.964-6.173,2.945
				c-2.059,1.029-4.303,1.543-6.36,2.572c-2.012,0.982-3.228,2.994-4.583,4.677c-1.076-2.058-1.403-4.396-1.685-6.641
				c-3.461,4.256-8.185,7.343-13.377,9.027c0.749-2.059,1.591-4.163,1.871-6.361c-4.021,2.432-8.699,3.602-12.535,6.408
				c-4.256,3.134-4.958,8.887-8.373,12.675c-0.702,0.889-1.917,1.123-2.945,1.45c0.842-2.386,2.432-4.678,2.104-7.344
				c-0.046-2.479-0.561-5.565,1.59-7.39c3.882-3.695,9.962-3.835,13.658-7.857c2.011-1.965,2.946-4.725,3.742-7.344
				c3.367,1.216,5.564,4.163,7.437,7.017c2.62-3.274,3.321-7.718,2.292-11.74c4.209,0.889,7.017,4.443,8.793,8.092
				c2.198-1.403,4.771-2.011,7.296-2.432c1.965-0.421,4.069-1.076,5.192-2.854C397.38,139.715,397.053,138.594,396.959,137.518
				L396.959,137.518z"/>
			<path fill="#D54B0B" d="M284.988,141.072c2.059,1.263,4.162,2.432,6.221,3.695c-1.356,1.169-2.807,2.292-4.583,2.853
				C285.923,145.469,285.362,143.317,284.988,141.072L284.988,141.072z"/>
			<path d="M428.95,150.707c4.957-0.094,9.262,2.713,13.33,5.191c1.871,1.169,4.069,1.965,5.613,3.695
				c2.899,2.899,6.22,5.284,8.886,8.465c2.292,2.667,4.817,5.332,6.034,8.747c-6.361-2.993-11.6-8.561-18.803-9.683
				c1.637,1.497,3.414,2.9,4.678,4.725c2.15,3.087,4.91,5.8,6.314,9.354c-4.21-0.889-8.468-2.245-12.816-1.777
				c-3.414,0.188-6.269,2.714-9.729,2.479c1.73-3.368,5.146-5.285,7.951-7.577c-2.338-1.964-5.332-2.899-7.297-5.238
				c1.357-0.141,2.713-0.233,4.07-0.327c-0.89-1.638-1.918-3.274-3.461-4.304c-2.573-1.871-5.896-2.245-8.467-4.116
				c4.631-1.216,9.493-1.169,14.219-0.607c-1.637-2.385-3.695-4.583-6.174-6.174C431.852,152.625,430.354,151.783,428.95,150.707
				L428.95,150.707z"/>
			<path d="M312.255,159.781c1.355-1.871,3.789-2.572,5.986-2.526c1.824,0.048,3.461,1.264,5.332,0.89
				c2.525-0.374,5.191-0.374,7.483,0.936c2.993,1.45,6.081,4.256,5.659,7.998c-2.854-1.029-5.473-3.181-8.652-2.947
				c-2.058,0.608-3.181,2.9-3.368,4.911c-0.187,3.789,1.264,7.483,2.807,10.898c0.936,2.198,2.713,3.882,4.396,5.472
				c-0.047,0.374-0.14,1.076-0.187,1.403c-2.619-0.516-5.191-1.497-7.857-1.777c-3.181-0.188-6.221,1.029-9.354,1.403
				c1.264-2.76,3.181-5.239,4.069-8.186c1.263-3.741,2.666-7.857,1.311-11.739c-0.563-1.497-2.386-3.135-4.022-2.198
				c-2.338,1.355-3.742,3.976-6.408,4.818C309.355,165.814,310.243,162.447,312.255,159.781L312.255,159.781z"/>
			<path fill="#F6BA66" d="M283.023,163.429c3.04,0.094,6.174,0.327,9.027,1.355c1.357,0.468,2.058,1.824,2.76,2.947
				c0.982,1.824,2.151,3.508,3.274,5.19c-2.854-1.637-5.286-3.835-8.044-5.611C287.84,165.768,285.314,164.785,283.023,163.429
				L283.023,163.429z"/>
			<path fill="#D54B0B" d="M265.951,166.703c1.31,2.666,2.339,5.472,4.115,7.904c1.685,2.479,4.022,4.442,6.454,6.174
				c-1.402,1.918-2.898,3.742-3.694,5.987c-0.937,2.385-0.89,5.004-1.076,7.577c-0.142,1.59-0.188,3.18,0.28,4.724
				c1.544-0.749,2.76-1.918,4.069-2.947c0.046,1.356,0.046,2.666,0.046,4.022c-4.256,0-8.278-2.059-12.535-1.497
				c-3.273,0.281-5.707,2.62-8.513,4.022c0.515-5.612,4.35-9.963,7.857-14.031c2.946-2.854,5.565-6.08,8.793-8.606
				C268.477,176.338,266.419,171.614,265.951,166.703L265.951,166.703z"/>
			<path fill="#FFFFFF" d="M367.633,172.128c1.777-1.637,3.929-3.04,6.36-3.32c2.808-0.469,5.753-0.516,8.56-0.047
				c-1.73,1.122-3.835,1.075-5.8,1.449c2.339,0.748,5.191,0.795,6.688,3.087c-1.871,2.059-4.022,3.883-5.8,6.08
				c2.385-0.561,4.864-1.449,6.595-3.273c0.982-0.982,1.497-2.292,2.104-3.508c0.188,1.169,0.375,2.338,0.607,3.461
				c-3.508,2.667-7.577,4.958-12.113,4.91c-3.135,0-6.875-0.28-8.98-2.899C365.107,175.917,365.995,173.532,367.633,172.128
				L367.633,172.128z"/>
			<path d="M388.913,185.973c2.854-1.403,5.053-3.695,7.484-5.66c0.188,1.355,0.842,2.947,0,4.256
				c-3.555,5.706-10.29,8.84-16.838,9.121c-4.303,0.14-8.7,0.514-12.862-0.655c-2.898-0.748-5.939-1.122-8.84-1.964
				c0.047-0.655,0.047-1.356,0.047-2.012c3.508,0.375,6.875,1.544,10.383,1.449c2.761-0.093,5.613,0.048,8.372-0.468
				C380.916,189.34,385.031,187.938,388.913,185.973L388.913,185.973z"/>
			<path fill="#FFFFFF" d="M283.771,183.915c2.479-1.637,5.566-1.543,8.326-0.981c2.806,0.607,5.052,2.572,7.063,4.442
				c-2.104,1.543-4.021,3.321-5.846,5.099c-2.807-0.281-5.894-1.076-7.671-3.461C284.379,187.61,284.099,185.692,283.771,183.915
				L283.771,183.915z"/>
			<path fill="#F38D32" d="M276.007,193.129c0.187-2.292,1.122-4.396,2.432-6.267c1.45,1.917,2.854,3.976,4.771,5.519
				c2.058,1.824,4.49,3.088,6.969,4.257c-0.281,0.562-0.562,1.123-0.795,1.684c-3.461-0.421-6.782-1.59-9.588-3.602
				c0-1.591-0.093-3.135-0.42-4.678C278.252,191.071,277.223,192.193,276.007,193.129L276.007,193.129z"/>
			<path fill="#FCC24F" d="M314.781,188.078c2.386-1.123,5.1-0.935,7.671-0.889c2.059,0,4.116,0.421,6.08,1.029
				c-1.123,3.694-3.929,6.501-5.425,10.009c-0.889,2.104-1.45,4.303-2.338,6.408c-0.421-2.151-0.749-4.304-1.169-6.408
				c-1.263-0.094-2.572-0.188-3.835-0.327c0.981-1.076,1.965-2.152,2.899-3.274c-1.31-0.421-2.618-0.842-3.882-1.31
				c1.638-1.637,3.742-2.572,5.8-3.602C318.615,189.2,316.652,188.779,314.781,188.078L314.781,188.078z"/>
			<path fill="#F38D32" d="M279.515,200.565c0.982,0.936,2.105,1.918,2.713,3.181c0.188,1.403-0.281,2.759-0.328,4.116
				c-0.094,1.497,0.421,2.853,0.843,4.256c-0.982,0.655-1.917,1.311-2.947,1.918C278.813,209.594,279.234,205.056,279.515,200.565
				L279.515,200.565z"/>
			<path fill="#D54B0B" d="M272.874,203.653c0.702-1.076,1.729-1.917,2.759-2.619c0,4.069-0.795,8.231,0.281,12.254
				c0.188,1.497,1.216,3.274-0.046,4.584c-1.778,2.151-2.994,4.771-5.006,6.688c0.094-2.433,0.937-4.771,1.356-7.109
				c-2.105,1.076-2.479,3.555-2.806,5.707c-0.234,1.076,0.514,1.964,0.981,2.9c-1.31,2.945-2.15,6.032-3.415,8.979
				c-2.245-5.893-2.479-12.581-0.467-18.567C267.916,211.884,270.208,207.628,272.874,203.653L272.874,203.653z"/>
			<path fill="#F18F00" d="M406.127,213.755c2.713-0.14,5.425,0.048,8.138,0.142c-0.654,2.338-1.356,4.677-2.059,6.969
				c-1.122,0.14-2.197,0.281-3.32,0.421C407.95,218.76,406.922,216.328,406.127,213.755L406.127,213.755z"/>
			<path fill="#FFFFFF" d="M304.911,221.894c2.245-0.89,4.632-1.824,7.063-1.264c2.245,0.516,4.771,0.234,6.734,1.638
				c-2.197,1.637-5.005,0.607-7.482,0.654C309.074,222.735,306.455,223.952,304.911,221.894L304.911,221.894z"/>
			<path fill="#EE736C" d="M315.482,238.919c1.964,1.122,4.022,2.245,5.753,3.742c-1.45,0.562-2.854,1.262-4.396,1.637
				c-0.982-0.233-1.917-0.607-2.854-0.982C314.453,241.818,314.921,240.369,315.482,238.919L315.482,238.919z"/>
			<path fill="#F38D32" d="M276.849,245.607c2.479-1.169,5.146-1.917,7.812-2.666c0,0.749,0.046,1.543,0.046,2.339
				c-1.871,0.935-3.742,1.871-5.612,2.712C278.346,247.197,277.597,246.449,276.849,245.607L276.849,245.607z"/>
			<path fill="#D54B0B" d="M378.25,273.155c1.216,1.357,0.654,3.181,0.187,4.725c-0.842,2.525-2.479,4.725-2.806,7.438
				c2.011-2.339,2.292-5.847,4.911-7.67c1.169-1.169,2.524,0.327,3.602,0.888c-0.702,1.778-1.357,3.695-2.76,5.052
				c-0.937,0.843-1.824,1.73-2.526,2.76c2.526,0.14,4.958-0.702,7.39-1.311c-0.327,2.385-0.981,4.725-1.496,7.063
				c2.806-3.041,5.425-6.361,7.062-10.196c1.497-3.087,2.433-6.922,5.753-8.606c0.047,1.264,0.094,2.525,0.141,3.789
				c1.497-1.075,3.088-2.15,4.771-2.899c0.421,2.945-0.328,5.894-1.076,8.747c1.217-0.095,2.808-0.843,3.836,0.279
				c0.981,1.123,0.748,2.761,0.937,4.163c-1.265-0.748-2.479-1.497-3.742-2.292c0,2.199,0,4.397-0.188,6.596
				c-1.402-0.749-2.666-1.638-3.929-2.479c-0.889,3.788,0.281,7.624,0.655,11.412c-2.105-1.45-3.882-3.227-5.847-4.818
				c-0.374,5.005,0.515,10.058,1.918,14.873c0.327,1.357,0.795,2.713,0.654,4.116c-0.421,1.169-1.45,2.245-2.666,2.666
				c-4.068-0.468-7.391-3.087-10.57-5.425c-4.304-3.93-6.081-9.822-6.875-15.436c-0.422-2.666,0.467-5.284,0.7-7.95
				c-3.04,1.543-4.816,4.677-6.08,7.67c-1.355,3.508-0.981,7.343-1.823,10.943c-2.292-2.104-4.116-4.631-6.174-6.969
				c-0.843,0.842-1.638,1.637-2.433,2.479c-1.59-1.591-3.04-3.32-4.63-4.864c-0.702,1.169-1.45,2.338-2.292,3.415
				c-1.684-1.777-2.947-3.929-4.677-5.66c-0.749,1.637-1.264,3.368-1.638,5.098c-0.468-0.047-0.889-0.093-1.355-0.14
				c-0.608-0.563-1.169-1.123-1.777-1.684c-1.169-2.713-3.227-4.911-4.163-7.765c-1.169-3.647-2.244-7.67-1.028-11.459
				c0.42-1.637,1.45-2.993,2.524-4.209c4.351,3.603,8.092,8.045,13.097,10.898c4.35,2.759,9.963,2.572,14.64,0.702
				c2.479-0.982,4.256-3.274,4.958-5.754c0.842-2.524,0.421-5.425,2.058-7.67c0.234,0.936,0.515,1.871,0.748,2.76
				C376.894,275.307,377.549,274.231,378.25,273.155L378.25,273.155z"/>
			<path fill="#C7501A" d="M328.952,292.098c0.654-1.917,2.807-2.619,4.537-3.321c0.749,2.807,1.638,5.565,2.666,8.279
				c0.516,1.122,0.234,2.385-0.047,3.555C332.32,299.535,329.233,296.027,328.952,292.098L328.952,292.098z"/>
			<g id="Lion_Teeth">
				<path fill="#FFFFFF" d="M332.601,247.431c1.684,0.421,3.415,0.795,5.051,1.355c0.795,0.141,0.702,1.029,0.842,1.637
					c0.374,2.761-0.279,5.613-1.59,8.046C334.378,255.382,332.133,251.594,332.601,247.431L332.601,247.431z"/>
				<path fill="#FFFFFF" d="M311.787,250.378c-0.421-2.571,3.415-2.899,4.911-1.637c1.403,1.45,2.059,3.508,2.713,5.425
					c-0.233,1.731-0.842,3.415-1.402,5.053C315.716,256.458,312.582,254.026,311.787,250.378L311.787,250.378z"/>
				<path fill="#FFFFFF" d="M318.804,250.705c-0.468-1.59,1.169-3.087,2.712-2.853c1.824-0.095,3.087,1.497,3.647,3.04
					c1.029,2.76,0.142,5.753-1.122,8.278C321.797,256.692,319.926,253.839,318.804,250.705L318.804,250.705z"/>
				<path fill="#FFFFFF" d="M327.175,248.6c1.263-0.843,2.899-0.702,4.396-0.843c0.421,2.433,1.264,4.865,1.403,7.344
					c-0.467,1.402-1.543,2.479-2.385,3.647c-1.45-2.339-3.182-4.537-4.209-7.108C325.959,250.612,326.193,249.208,327.175,248.6
					L327.175,248.6z"/>
				<path fill="#FFFFFF" d="M338.728,249.208c2.526,0.468,5.051,1.076,7.531,1.638c-0.89,2.666-2.059,5.19-3.04,7.856
					C340.785,256.084,338.962,252.81,338.728,249.208L338.728,249.208z"/>
				<path fill="#FFFFFF" d="M307.017,252.997c0.981-1.076,2.011-2.15,3.04-3.134c0.795,1.356,0.046,2.712-0.702,3.929
					c0.842,0.655,1.637,1.356,2.479,2.012c-0.095-1.17-0.234-2.339-0.374-3.462c0.889,1.264,2.104,2.479,2.197,4.116
					c-0.233,1.356-1.075,2.433-1.918,3.461C309.777,257.955,307.812,255.757,307.017,252.997L307.017,252.997z"/>
				<path fill="#FFFFFF" d="M346.679,251.22c2.199,0.047,4.35,0.327,6.455,0.842c2.713,0.702,5.565,0.562,8.325,0.842
					c-2.713,5.332-3.087,11.553-1.637,17.259c0.608,2.854,1.871,5.52,2.993,8.187c-4.256-2.105-7.343-5.753-10.336-9.309
					C348.456,264.082,346.071,257.674,346.679,251.22L346.679,251.22z"/>
				<path fill="#FFFFFF" d="M295.558,260.153c3.742-1.169,6.782-3.602,9.962-5.752c0.608,1.029,1.216,2.011,1.637,3.086
					c-0.328,2.994-1.73,5.8-1.73,8.84c0.141,3.742,1.028,7.391,1.637,11.085c-1.122-0.842-2.198-1.776-3.227-2.76
					c-0.095-0.094-0.281-0.328-0.374-0.468c-2.339-2.947-4.209-6.174-6.174-9.401C296.399,263.38,295.979,261.743,295.558,260.153
					L295.558,260.153z"/>
				<path fill="#FFFFFF" d="M403.787,286.907c1.028,0.935,2.012,1.917,2.993,2.9c-0.981,1.402-1.824,3.227-3.789,3.319
					C403.133,291.022,403.366,288.917,403.787,286.907L403.787,286.907z"/>
				<path fill="#FFFFFF" d="M399.156,291.022c1.638,1.076,3.648,2.292,4.069,4.35c-0.562,2.246-1.871,4.209-2.994,6.223
					C398.877,298.226,399.672,294.53,399.156,291.022L399.156,291.022z"/>
				<path fill="#FFFFFF" d="M370.626,297.711c0.327-1.59,1.122-3.041,2.011-4.442c0.421,6.688,2.76,13.424,7.577,18.193
					c2.525,2.946,6.313,4.163,9.354,6.407c-2.011,0.094-4.069-0.14-5.987-0.936c-4.115-1.638-8.324-3.039-12.395-4.863
					c-0.608-0.188-0.702-0.889-0.889-1.404C369.177,306.41,369.598,301.92,370.626,297.711L370.626,297.711z"/>
				<path fill="#FFFFFF" d="M326.286,293.642c2.059,3.647,4.958,6.922,8.839,8.793c-0.653,2.385-1.027,4.815-1.637,7.202
					c-0.702,1.496-2.619,1.449-4.021,1.776c-1.311-2.479-2.761-4.911-3.32-7.671C325.445,300.424,326.1,297.009,326.286,293.642
					L326.286,293.642z"/>
				<path fill="#FFFFFF" d="M348.129,296.635c2.666,2.946,5.8,6.643,4.583,10.897c-1.638,0.233-3.228-0.421-4.817-0.842
					C347.286,303.37,346.912,299.862,348.129,296.635L348.129,296.635z"/>
				<path fill="#FFFFFF" d="M393.685,297.524c2.666,1.403,4.396,3.929,6.221,6.22c-1.216,2.947-1.871,6.127-3.555,8.84
					C394.761,307.721,393.639,302.669,393.685,297.524L393.685,297.524z"/>
				<path fill="#FFFFFF" d="M340.832,307.86c-1.028-3.368-0.654-7.109,1.123-10.196c0.469,0.421,0.982,0.842,1.45,1.263
					c0.608,0.563,1.169,1.123,1.777,1.685c1.964,1.497,1.544,4.209,1.964,6.361C345.041,307.439,342.938,307.767,340.832,307.86
					L340.832,307.86z"/>
				<path fill="#FFFFFF" d="M354.957,298.927c1.777,1.637,4.397,3.461,4.069,6.175c-0.047,1.215-0.281,2.432-0.421,3.646
					c-1.497-0.374-2.993-0.749-4.49-1.075C353.414,304.773,353.367,301.546,354.957,298.927L354.957,298.927z"/>
				<path fill="#FFFFFF" d="M334.658,309.685c-0.374-3.508,0.937-6.876,2.199-10.104c0.795,0.937,1.777,1.731,2.338,2.854
					c0.655,1.964,0.655,4.067,0.842,6.127c-0.468-0.047-1.449-0.047-1.964-0.047c0.469-0.655,0.982-1.312,1.496-1.965
					c-0.374-1.264-0.842-2.525-1.684-3.603c-0.188,1.777-1.123,3.695-0.094,5.379C336.811,308.843,335.781,309.357,334.658,309.685
					L334.658,309.685z"/>
				<path fill="#FFFFFF" d="M361.88,301.172c2.853,3.229,6.268,6.222,7.903,10.336c-3.32-1.027-6.781-1.637-10.148-2.479
					C359.261,306.223,360.242,303.464,361.88,301.172L361.88,301.172z"/>
			</g>
		</g>
		<g id="Text" display="inline">
			<g id="Text_Group">
				<g id="Lions_Background_Text">
					<path id="S" fill="#282827" d="M505.47,411.834c0.232,1.496,1.497,2.808,3.134,2.433c15.248-2.854,30.448-5.8,45.649-8.699
						c0.935-0.14,1.869-0.562,2.479-1.31c3.555-4.21,7.108-8.467,10.991-12.395c0.935-0.889,0.935-2.246,1.075-3.462
						c0.607-8.746,1.31-17.493,1.776-26.239c0.142-1.31-0.514-2.524-1.59-3.32c-2.619-2.198-5.052-4.771-8.186-6.221
						c-2.059-0.981-4.209-0.047-6.269,0.374c-8.559,2.198-17.165,4.21-25.725,6.313c0.094-2.291-0.047-4.583-0.094-6.875
						c12.395-3.273,24.789-6.642,37.091-10.242c1.355-0.234,1.964-1.591,1.918-2.854c-0.143-5.379-0.327-10.805-1.029-16.09
						c-0.188-1.729-2.339-2.385-3.741-1.776c-3.741,1.263-7.483,2.618-11.226,3.883l-48.456,14.397c0,0-0.545,2.706-0.521,4.331
						c-0.395-0.521,0.798,28.206,0.891,30.729c0.021,0.594,13.102,8.912,13.102,8.912l27.829-5.707l-0.28,8.092
						c0,0-35.332,7.097-36.074,7.174c-2.403,0.248-3.247,1.201-3.528,2.78C504.019,399.821,505.5,412.279,505.47,411.834z"/>
					<path id="N" fill="#282827" d="M448.454,354.68c-5.145,1.215-10.337,2.243-15.527,3.461c-1.403,0.14-2.151,1.684-1.87,2.992
						c3.133,20.205,6.033,40.41,9.166,60.616c0.234,1.264,0.281,2.572,0.842,3.741c0.702,0.937,2.012,1.264,3.135,0.983
						c5.659-1.076,11.365-2.152,17.071-3.182c1.028-0.234,2.151-0.421,2.899-1.217c0.795-0.702,0.654-1.87,0.562-2.806
						c-2.058-16.651-3.788-33.35-5.753-50.047c6.174-1.355,12.348-2.666,18.475-4.162c1.265,15.901,2.292,31.805,3.556,47.66
						c0.188,1.637,0.141,3.319,0.655,4.91c0.607,1.356,2.291,1.403,3.508,1.123c6.127-1.217,12.302-2.292,18.382-3.556
						c1.637-0.279,2.011-1.964,1.917-3.367c0.232,1.496-1.72-65.567-2.72-67.751c-0.853-1.125-3.125-1.359-3.125-1.359
						L448.454,354.68z"/>
					<path id="O" fill="#282827" d="M411.459,362.303c4.63-0.89,8.979,1.402,13.143,2.992c1.684,0.702,3.461,1.217,5.238,1.778
						c1.263,0.373,1.543,1.823,1.729,2.992c2.292,14.266,4.537,28.531,6.875,42.75c0.234,1.17,0.047,2.432-0.842,3.32
						c-3.18,3.741-5.939,7.812-8.652,11.928c-0.515,0.842-1.31,1.637-2.386,1.73c-12.113,2.291-24.228,4.537-36.341,6.78
						c-1.123,0.328-2.198,0-3.087-0.606c-4.584-2.808-9.309-5.426-13.985-7.998c-0.842-0.375-1.45-1.17-1.637-2.06
						c-4.069-14.639-8.326-29.231-12.254-43.918c-0.468-1.264,0.14-2.572,1.122-3.368c3.181-2.759,6.455-5.472,9.916-7.856
						c1.543-1.029,3.134-2.151,5.051-2.386C387.418,366.605,399.485,364.594,411.459,362.303L411.459,362.303z M386.582,383.209
						l7.729,31.979l18.813-3.563l-6.375-31.833L386.582,383.209z"/>
					<path id="I" fill="#282827" d="M351.17,371.703c1.402-0.14,3.133-0.606,4.209,0.608c0.842,1.263,0.981,2.854,1.402,4.304
						c5.426,20.064,11.693,39.943,17.212,60.008c0.374,1.356-0.326,3.182-1.918,3.321c-6.313,1.263-12.628,2.339-18.941,3.554
						c-1.45,0.328-2.899-0.7-3.228-2.104c-5.939-18.99-12.675-37.792-18.428-56.875c-0.702-2.572-1.59-5.146-2.151-7.812
						c-0.28-1.497,1.169-2.666,2.525-2.76C338.26,373.201,344.715,372.545,351.17,371.703L351.17,371.703z"/>
					<path id="L" fill="#282827" d="M266.793,378.626c7.016-0.279,14.079-0.653,21.094-1.075c1.356-0.188,2.806,0.607,3.181,1.965
						c5.004,17.212,12.067,33.723,18.802,50.327c10.29-1.777,20.58-3.648,30.917-5.474c1.356-0.375,2.947,0.234,3.321,1.685
						c1.73,4.957,3.368,9.869,4.958,14.873c0.608,1.402-0.141,3.462-1.824,3.647c-16.838,3.182-33.722,6.222-50.56,9.354
						c-1.169,0.232-2.666,0.327-3.461-0.795c-0.982-1.544-1.543-3.368-2.338-5.053c-9.354-21.654-20.112-42.889-26.521-65.668
						C263.613,380.684,264.875,378.626,266.793,378.626L266.793,378.626z"/>
				</g>
				<g id="Lions_Foreground_Text">
					<path id="S_1_" fill="#FEFEFE" d="M552.102,327.645L552.102,327.645c4.115-1.355,8.186-2.854,12.301-4.256
						c0.654,5.52,0.842,11.037,1.029,16.51c-12.956,3.789-26.006,7.344-39.055,10.805c0.047,3.789,0.047,7.624,0.279,11.412
						c9.869-2.291,19.691-4.677,29.515-7.156c1.31-0.278,2.806-0.842,4.115-0.046c2.993,1.685,5.378,4.21,7.951,6.407
						c-0.375,8.887-1.17,17.773-1.776,26.66c-0.095,0.842,0.046,1.824-0.655,2.432c-3.648,3.836-7.109,7.857-10.524,11.928
						c-0.42,0.607-1.027,0.982-1.729,1.029c-15.293,2.853-30.541,5.894-45.789,8.699c-0.188-5.566-0.515-10.758-0.563-16.277
						c13.098-2.619,26.192-5.145,39.288-7.811c0.188-4.257,0.422-8.935,0.47-13.189c-9.775,2.105-19.599,4.256-29.421,6.222
						c-4.115-2.245-7.764-5.332-11.834-7.718c-0.232-7.108-0.936-14.212-0.936-21.329c0-2.341-0.351-9.936,1.357-10.591"/>
					<path id="N_1_" fill="#FEFEFE" d="M496.068,346c4.855-1.375,4.183,2.625,4.537,7.463c1.453,19.78,1.59,39.662,2.666,59.447
						c-6.501,1.311-13.049,2.525-19.551,3.742c-1.59-18.103-2.619-36.296-4.162-54.396c-7.671,1.824-15.389,3.509-23.105,5.191
						c2.06,17.727,3.882,35.5,6.08,53.227c-6.502,1.218-13.049,2.434-19.551,3.695c-3.32-21.328-6.361-42.656-9.729-63.983
						c5.052-1.122,15.106-3.32,15.106-3.32"/>
					<path id="O_1_" fill="#FFFFFF" d="M383.955,381.315c8.139-1.311,16.23-2.759,24.322-4.256
						c2.338,12.021,4.816,24.04,7.109,36.061c-7.577,1.356-15.154,2.808-22.686,4.163
						C389.802,405.309,386.855,393.336,383.955,381.315L383.955,381.315z M374.602,370.955c-4.958,2.525-9.027,6.408-13.283,9.963
						c2.713,10.104,5.613,20.205,8.466,30.31c1.45,4.771,2.573,9.729,4.209,14.452c4.958,2.898,10.057,5.659,14.968,8.652
						c1.543,0,2.992-0.469,4.489-0.701c11.039-2.059,22.076-4.163,33.114-6.175c2.993-4.631,6.175-9.167,9.683-13.376
						c-2.386-14.968-4.725-29.935-7.155-44.854c-2.013-0.562-4.022-1.216-5.94-2.012c-3.602-1.402-7.343-3.414-11.366-2.62
						C399.438,367.027,386.996,368.897,374.602,370.955L374.602,370.955z"/>
					<path id="I_1_" fill="#FEFEFE" d="M331.525,376.287c7.39-0.748,14.78-1.637,22.17-2.524
						c5.566,21.422,12.349,42.516,18.194,63.891c-6.548,1.217-13.05,2.433-19.598,3.648
						C345.557,419.551,337.652,398.224,331.525,376.287L331.525,376.287z"/>
					<path id="L_1_" fill="#FEFEFE" d="M266.372,380.965c7.483-0.233,14.967-0.653,22.449-1.123
						c5.1,18.056,12.582,35.267,19.599,52.572c11.132-1.918,22.263-3.883,33.396-5.894c1.824,5.239,3.554,10.478,5.238,15.716
						c-17.306,3.273-34.658,6.407-51.963,9.635c-7.25-16.791-15.201-33.256-21.843-50.279
						C270.628,394.81,268.196,387.98,266.372,380.965L266.372,380.965z"/>
				</g>
			</g>
			<g id="Text_Shading_Group">
				
					<linearGradient id="S_3_" gradientUnits="userSpaceOnUse" x1="752.262" y1="-145.1077" x2="747.9202" y2="-109.097" gradientTransform="matrix(1 0 0 -1 -211.8145 264.314)">
					<stop  offset="0" style="stop-color:#FFFFFF"/>
					<stop  offset="0.8834" style="stop-color:#E3E3E3"/>
				</linearGradient>
				<path id="S_2_" fill="url(#S_3_)" d="M508.125,373.625L566.5,361.75l-1.438,27.375l-11.396,12.542l-44.918,8.583l-0.313-13.563
					l38.049-7.45c1.964-0.302,1.776-0.263,1.92-8.243c0.127-7.434,0.127-7.586-1.769-7.314c0,0-18.088,3.959-28.888,6.195
					C516.275,380.181,508.125,373.625,508.125,373.625z"/>
				
					<linearGradient id="N2_1_" gradientUnits="userSpaceOnUse" x1="706.8967" y1="-149.2366" x2="702.8209" y2="-115.4311" gradientTransform="matrix(1 0 0 -1 -211.8145 264.314)">
					<stop  offset="0" style="stop-color:#FFFFFF"/>
					<stop  offset="0.8834" style="stop-color:#E3E3E3"/>
				</linearGradient>
				<polygon id="N2" fill="url(#N2_1_)" points="483.343,378.26 499.652,375.506 500.924,410.243 485.885,413.209 				"/>
				
					<linearGradient id="N1_1_" gradientUnits="userSpaceOnUse" x1="663.4426" y1="-154.9065" x2="659.2816" y2="-120.3945" gradientTransform="matrix(1 0 0 -1 -211.8145 264.314)">
					<stop  offset="0" style="stop-color:#FFFFFF"/>
					<stop  offset="0.8834" style="stop-color:#E3E3E3"/>
				</linearGradient>
				<polygon id="N1" fill="url(#N1_1_)" points="440.006,385.849 445,421.438 459.063,418.125 454.875,383.125 				"/>
				
					<linearGradient id="O_3_" gradientUnits="userSpaceOnUse" x1="614.9446" y1="-160.8655" x2="610.8019" y2="-126.5051" gradientTransform="matrix(1 0 0 -1 -211.8145 264.314)">
					<stop  offset="0" style="stop-color:#FFFFFF"/>
					<stop  offset="0.8834" style="stop-color:#E3E3E3"/>
				</linearGradient>
				<path id="O_2_" fill="url(#O_3_)" d="M369.125,398.375L376,425.063l13,7.313l35.188-7.125l8.313-11.688l-4-25.688l-14.75,2.5
					c0,0,4.418,22.792,4,24.375c-0.416,1.583-26.375,5.375-28.063,4.313C388,418.001,383.5,395.75,383.5,395.75L369.125,398.375z"/>
				
					<linearGradient id="I_3_" gradientUnits="userSpaceOnUse" x1="569.135" y1="-166.4231" x2="565.0296" y2="-132.3724" gradientTransform="matrix(1 0 0 -1 -211.8145 264.314)">
					<stop  offset="0" style="stop-color:#FFFFFF"/>
					<stop  offset="0.8834" style="stop-color:#E3E3E3"/>
				</linearGradient>
				<polygon id="I_2_" fill="url(#I_3_)" points="342.375,403.125 358.75,400.5 369.563,435.938 353.688,439.563 				"/>
				
					<linearGradient id="L_3_" gradientUnits="userSpaceOnUse" x1="524.6028" y1="-171.9006" x2="520.4496" y2="-137.4543" gradientTransform="matrix(1 0 0 -1 -211.8145 264.314)">
					<stop  offset="0" style="stop-color:#FFFFFF"/>
					<stop  offset="0.8834" style="stop-color:#E3E3E3"/>
				</linearGradient>
				<polygon id="L_2_" fill="url(#L_3_)" points="280.125,413.625 297.375,411 307.166,434.668 339.188,428.25 343.313,441.063 
					296.688,450.375 				"/>
			</g>
		</g>
	</g>
	<g>
		<polygon fill="#FFFFFF" points="565.982,449.281 570.74,454.87 565.155,463.563 542.183,450.061 556.772,450.216 		"/>
		<path fill="#FFFFFF" d="M597.795,453.05c-0.259-3.786-1.266-7.649-2.906-11.143c-1.614-3.479-3.883-6.729-6.737-9.651
			c-4.826-4.95-11.159-8.869-18.825-11.645c-6.071-2.2-12.71-3.653-20.355-4.451l-0.632-0.063c-0.702-0.067-1.424-0.138-1.897-0.168
			l-1.135-0.088l-1.233-0.084l-1.624-0.087c-1.104-0.062-2.213-0.123-3.342-0.158c-1.949-0.06-3.739-0.088-5.473-0.088
			c-1.566,0-3.104,0.025-4.549,0.069c-6.76,0.208-13.681,0.855-20.578,1.933c-12.944,2.044-26.587,5.751-40.542,11.025
			c-11.183,4.207-22.735,9.374-37.46,16.756c-6.358,3.189-12.646,6.449-18.726,9.604c-5.441,2.826-10.584,5.496-15.78,8.117
			c-12.85,6.501-23.07,11.165-32.172,14.683c-10.438,4.064-20.329,6.924-29.41,8.507c-4.491,0.792-8.926,1.304-13.179,1.514
			c-0.44,0.014-0.894,0.032-1.341,0.051c-0.393,0.016-0.779,0.036-1.156,0.047l-6.336-0.031l-0.472-0.021
			c-0.918-0.037-1.813-0.104-2.687-0.168c-8.209-0.685-12.948-2.754-15.073-3.946c-2.556-1.417-4.415-3.076-5.844-5.199
			c-0.595-0.891-1.02-1.732-1.322-2.448l0.589-1.019l-1.477-2.559l-0.818-5.702l-2.308,0.276l-18.149-31.487l5.478,32.775
			l-22.622,2.896l-16.206,1.922l1.446,8.631c0.092,0.496,0.223,1.123,0.396,1.854c0.426,1.774,0.976,3.624,1.655,5.522
			c2.279,6.276,5.438,11.958,9.68,17.371c2.989,3.801,6.426,7.279,10.199,10.328c4.359,3.54,9.257,6.587,14.54,9.056
			c5.456,2.563,11.409,4.54,17.697,5.884c5.947,1.28,12.339,2.023,19.059,2.217c1.117,0.021,2.243,0.04,3.368,0.04
			c0.473,0,0.938-0.005,1.359-0.01l1.252-0.011l3.185-0.121c0.551-0.018,1.313-0.059,2.058-0.105l2.862-0.177
			c1.171-0.081,2.26-0.188,3.359-0.298c0.471-0.047,1.525-0.147,1.525-0.147c6.389-0.679,12.938-1.798,19.451-3.33
			c12.165-2.837,24.953-7.294,38.004-13.248c13.323-6.054,25.786-13.064,35.145-18.495c5.313-3.078,10.631-6.243,15.774-9.302
			c5.695-3.391,11.588-6.892,17.35-10.207c12.707-7.315,23.001-12.663,32.406-16.826c5.468-2.427,10.856-4.537,16.131-6.313
			c2.234,0.046,4.192,0.595,5.846,1.716c-24.611,3.273-49.823,29.489-49.823,29.489l13.814-0.465
			c-23.438,27.007-14.9,56.808-14.9,56.808s23.436-28.867,75.162-30.887c18.406-0.718,37.368-2.229,45-21.729
			c3.097-1.756,5.887-3.691,8.495-5.885c4.317-3.651,7.659-7.603,10.207-12.069c1.617-2.832,2.827-5.781,3.585-8.719
			C597.714,460.092,598.054,456.536,597.795,453.05 M544.3,448.163c0.393,0.01,0.69,0.029,0.979,0.046
			c0.239,0.016,0.472,0.027,0.636,0.036c4.496,0.271,8.602,0.949,11.902,1.991c2.852,0.88,5.303,2.138,6.744,3.469
			c1.093,0.999,1.32,1.749,1.396,2.3c0.106,0.754-0.147,1.84-0.7,2.933c-0.125,0.258-0.27,0.516-0.43,0.776
			c-9.037-7.563-21.412-10.316-32.808-11.252c2.018-0.156,4.159-0.264,6.646-0.328c0.719-0.02,1.436-0.02,2.146-0.02l1.885-0.006
			L544.3,448.163z"/>
		<path fill="#FFFFFF" d="M653.638,274.858c-12.847-1.524-26.311-2.51-40.129-2.935l-2.313-0.033l0.024-3.37
			c18.991-17.607,26.182-41.605,26.182-41.605s-50.571,1.906-77.552-34.138c-2.31-3.089-5.239-5.556-7.878-8.163l29.948-3.02
			l-25.621-11.404c-14.116-6.283-25.283-19.963-37.107-34.444c-13.13-16.082-27.7-33.924-48.775-43.926
			c1.036-1.021,2.055-2.113,3.046-3.285l12.155-14.311l-18.66,2.085c-3.177,0.354-6.563,0.532-10.072,0.536
			c-13.903,0-28.791-2.809-43.186-5.52c-14.704-2.771-29.906-5.636-44.493-5.636c-8.297,0-15.881,0.935-22.872,2.835l2.302-11.402
			l-12.854,5.227c-8.689,3.532-18.854,5.879-28.682,8.146c-16.279,3.758-32.953,7.604-45.788,17.001l-4.275-18.093l-9.372,16.394
			c-4.823,8.431-10.697,15.009-16.374,21.372c-7.937,8.884-16.134,18.069-21.18,31.828l-0.666,1.818l0.304,1.918
			c0.266,1.656,0.641,3.388,1.122,5.187c-9.146,6.656-14.657,15.253-17.539,20.868c-9.946,2.9-33.92,12.713-53.982,43.1
			l-1.979,2.997l1.114,3.415c1.252,3.838,12.697,37.79,29.194,47.993l2.006,1.239c9.632,20.859,39.748,29.298,39.748,29.298
			s-2.877-17.519-0.364-24.614c8.042,5.489,23.255,19.479,23.872,35.15c-2.486-0.901-5.197-4.538-7.752-8.913
			c0,0-6.373,8.913-5.261,23.237c-5.765,0.185-11.434,0.273-16.946,0.273c-2.33,0-4.656-0.015-6.989-0.051l-3.19-0.033
			c-14.072-0.308-27.819-1.216-40.914-2.711l-23.938-2.733l18.22,15.77c13.522,11.699,27.738,23.314,42.298,34.56l0.106,134.568
			l7.331,0.111c2.613,0.036,5.247,0.058,7.863,0.058c66.744,0,134.241-12.772,199.518-25.121
			c22.694-4.295,48.146-1.368,68.735-12.47c46.997-25.34,74.276-19.403,106.859-11.974c6.894,1.574,14.117-0.42,21.149-0.42
			c1.982,0,3.943,0.012,5.928,0.03l7.536,0.066l0.013-128.245c15.053-12.805,29.752-24.624,43.736-35.164l14.81-11.16
			L653.638,274.858z"/>
		<path fill="#1D1D1B" d="M279.31,473.141c0,0,0.009,0.066-0.018-0.098c-0.003-0.029-0.007-0.065-0.017-0.106
			c-0.003-0.015-0.009-0.029-0.012-0.042c-0.012-0.043-0.017-0.003-0.006,0.109c0.026,0.219,0.105,0.719,0.297,1.44
			c0.384,1.438,1.201,3.769,2.898,6.307c1.706,2.543,4.234,5.254,8.426,7.579c4.156,2.326,10.239,4.2,18.065,4.854
			c0.982,0.072,1.977,0.148,3,0.188l0.387,0.021l0.093,0.005c-0.574,0.003-0.089,0-0.188,0.003l0.239,0.003l0.958,0.018
			c0.636,0.015,1.28,0.025,1.925,0.035c0.711,0.019,1.134,0,1.648-0.003c0.502-0.003,1.003-0.004,1.511-0.007
			c1.021-0.006,2.216-0.085,3.333-0.115c4.554-0.225,9.294-0.763,14.181-1.622c9.778-1.703,20.15-4.747,30.816-8.897
			c10.675-4.132,21.637-9.316,32.831-14.98c11.202-5.651,22.651-11.776,34.479-17.707c11.824-5.927,24.054-11.664,36.75-16.443
			c12.675-4.792,25.867-8.554,39.071-10.636c6.604-1.031,13.188-1.648,19.646-1.847c3.229-0.105,6.425-0.082,9.573,0.015
			c1.573,0.054,3.137,0.156,4.687,0.231l1.233,0.088l1.067,0.08c0.658,0.042,1.591,0.144,2.39,0.219
			c6.4,0.672,12.564,1.88,18.53,4.04c5.913,2.143,11.614,5.313,16.027,9.84c2.197,2.253,4.031,4.829,5.315,7.59
			c1.292,2.755,2.037,5.679,2.229,8.511c0.207,2.84-0.106,5.591-0.778,8.117c-0.655,2.534-1.667,4.854-2.856,6.938
			c-2.39,4.189-5.459,7.462-8.549,10.076c-3.104,2.609-6.267,4.563-9.2,6.091c-5.907,3.028-10.889,4.431-14.255,5.271
			c-1.692,0.412-2.991,0.678-3.873,0.838c-0.879,0.162-1.331,0.246-1.331,0.246l-2.901-12.825c0,0,0.353-0.081,1.04-0.241
			c0.688-0.152,1.699-0.409,2.99-0.785c2.57-0.755,6.321-2.019,10.411-4.362c2.026-1.178,4.128-2.63,6.047-4.415
			c1.914-1.779,3.655-3.898,4.82-6.248c1.178-2.342,1.748-4.898,1.405-7.299c-0.338-2.401-1.492-4.688-3.741-6.745
			c-2.229-2.063-5.541-3.846-9.576-5.092c-4.002-1.262-8.76-2.021-13.66-2.31c-0.615-0.031-1.099-0.075-1.87-0.095l-1.073-0.034
			l-0.541-0.019l-0.134-0.007c0.014,0.003-0.229-0.012,0.003,0.003h-0.25c-1.328,0.011-2.66-0.009-4.002,0.024
			c-2.688,0.07-5.398,0.197-8.132,0.44c-5.469,0.47-11.018,1.305-16.594,2.493c-11.162,2.407-22.407,6.281-33.52,11.217
			c-11.125,4.921-22.127,10.856-33.104,17.179c-10.981,6.319-21.941,13.03-33.138,19.518c-11.188,6.486-22.623,12.767-34.491,18.158
			c-11.84,5.403-24.172,9.876-36.613,12.777c-6.21,1.457-12.434,2.525-18.546,3.174c-1.553,0.146-3,0.311-4.604,0.42
			c-0.806,0.051-1.609,0.104-2.411,0.151c-0.787,0.052-1.66,0.105-2.244,0.12c-0.644,0.022-1.282,0.051-1.924,0.073l-0.958,0.035
			l-0.237,0.009l-0.565,0.006l-0.568,0.006c-1.508,0.02-3.017,0-4.512-0.03c-6.003-0.167-11.943-0.82-17.65-2.048
			c-5.7-1.222-11.164-3.029-16.1-5.348c-4.94-2.308-9.329-5.11-13.007-8.094c-3.692-2.986-6.669-6.138-9.042-9.151
			c-4.745-6.063-7.134-11.46-8.529-15.31c-0.693-1.939-1.128-3.521-1.411-4.707c-0.141-0.59-0.244-1.092-0.318-1.489
			c-0.084-0.522-0.133-0.793-0.133-0.793L279.31,473.141z"/>
		<path fill="#EF8E00" d="M248.896,476.744c0,0,14.849,47.67,83.18,38.03c-31.051-4.406-56.419-9.075-64.26-40.447L248.896,476.744"
			/>
		<path fill="#1D1D1B" d="M565.491,469.38c-8.63-13.03-27.819-16.347-51.491-15.543c3.839,2.438,7.839,4.885,9.148,7.207
			c-18.23-0.034-33.645,8.77-48.849,18.229c4.276-0.322,8.252-0.351,11.378,0.457c-14.778,9.567-26.259,32.28-25.962,48.207
			c45.982-43.342,98.101-8.462,109.025-44.655L565.491,469.38z"/>
		<path fill="#D54915" d="M479.165,503.142c8.117-9.523,17.891-17.518,30.425-22.971c-2.862-1.436-6.397-2.31-10.399-2.792
			c11.072-5.769,24.446-6.887,39.578-4.454c-0.31-2.802-2.019-6.012-4.19-9.361c10.379,1.895,21.265,6.983,24.289,15.829
			c-16.221-0.466-29.064,0.297-37.017,3.958c2.455,0.791,5.104,1.854,6.985,3.96C513.781,489.263,496.86,495.347,479.165,503.142"/>
		<path fill="#1F1912" d="M320.795,330.051c0,0-9.724-1.574-9.982-3.144c-0.264-1.568-1.729-15.716,1.643-15.473
			c3.371,0.244,13.481-1.949,13.081-0.387c-0.396,1.561-3.195,12.426-2.883,13.978C322.969,326.577,320.795,330.051,320.795,330.051
			"/>
		<path fill="#1D1D1B" d="M621.843,240.289c0,0-15.549,32.836-43.799,37.563c-28.249,4.729-140.029,16.208-140.029,16.208
			l3.751-11.479l92.816-19.04l56.811-4.864L621.843,240.289"/>
		<path fill="#EF8E00" d="M162.525,245.671l-9.157-28.188l26.418-27.164l27.091-10.834l18.029-23.223
			c0,0,58.329-31.734,61.417-31.896c3.085-0.161,75.2,6.397,75.2,6.397l7.3,33.743l-10.77,48.4l-60.936,22.945l-53.22,7.521
			c0,0-60.612-0.107-67.167,5.633C170.175,254.752,162.525,245.671,162.525,245.671"/>
		<path fill="#FBC142" d="M246.319,180.714c5.186-0.52,10.521-6.529,18.132-12.047c15.154-10.979,35.439-22.192,54.269,0.389
			c0,0-7.072,2.332-13.498,5.285c0,0,4.367,2.785,8.223,3.192c-12.917,17.699-36.249,11.656-61.844,12.786l9.399-7.107
			L246.319,180.714z"/>
		<path fill="#FBC142" d="M224.906,197.867c0,0,6.267,9.256,7.039,16.583c0,0-3.729-3.471-9.516-4.371
			c0,0-12.146,8.547-16.195,16.068l0.643,12.342c0,0-35.226,13.112-36.249,11.829c-1.031-1.289-19.03-30.854-19.03-30.854
			l8.487-9.514l37.796-0.513l14.131-4.241L224.906,197.867z"/>
		<path fill="#1D1D1B" d="M249.249,237.011c0,0-2.456-20.955-8.82-30.661c0,0,20.761,5.658,27.315,14.85
			c25.647-13.562,44.93-9.576,67.942-25.935c0,0-4.759-7.618-11.863-11.379c0,0,11.733-0.063,18.225,3.471
			c0,0-1.736-14.685-6.652-24.872c0,0,16.229-7.171,26.514-7.168c8.487,0.003,19.283,53.991,19.283,53.991l-56.177,50.647
			l-50.392-5.91l-27.251-3.601L249.249,237.011z"/>
		<path fill="#FBC142" d="M228.088,169.906c0,0-6,5.197-9.212,13.714l-9.772-4.458l9.212-14.415l7.243-5.518l2.529,8.87l0.021,1.639
			L228.088,169.906"/>
		<path fill="#1D1D1B" d="M303.867,168.348c-25.19-12.757-42.06,12.505-57.549,12.365c0,0,4.036,4.788,10.516,4.655
			c0,0-3.615,2.758-5.234,4.95c8.813-3.166,25.163,0.047,40.391-8.03c0,0-4.989-2.498-7.952-4.912
			C284.037,177.377,292.95,169.666,303.867,168.348"/>
		<path fill="#1D1D1B" d="M228.088,169.906c0,0-9.834-15.04-11.954-28.346c8.032-21.919,25.001-31.046,37.021-52.063
			c1.396,5.912,1.517,11.475,0,16.584c16.201-26.826,55.532-25.066,84.458-36.83c-0.956,4.728-2.51,9.081-5.207,12.727
			c38.922-23,89.535,6.75,134.401,1.735c-3.644,4.288-7.967,7.915-13.884,10.027c47.948,12.212,63.374,67.232,99.372,83.257
			l-24.687,2.487l-168.979-23.173C319.646,131.181,276.95,134.262,228.088,169.906"/>
		<path fill="#1D1D1B" d="M196.849,176.997c0,0,6.364-18.661,24.296-27.146l6.027,10.269c0,0-10.896,6.534-14.077,19.042
			L196.849,176.997z"/>
		<path fill="#1D1D1B" d="M189.95,225.69c0,0,0.258,8.872,4.462,12.983l-12.657,3.021c0,0-4.286-4.877-4.478-12.107
			c-4.353-2.279-13.41-7.204-17.193-11.539l6.648-10.576l9.59-0.742l17.056,0.908L189.95,225.69z"/>
		<path fill="#1D1D1B" d="M526.394,176.271c25.365,9.517,36.983,46.978,76.404,52.499c-24.492,9.447-55.391-6.605-84.118,5.732
			c24.466-2.963,63.246,20.635,103.163,5.784c-41.522,47.951-117.37,15.299-184.73,51.293
			c-53.746,28.724-82.785,85.874-82.785,85.874s-13.884-23.268-10.414-46.922c0,0-14.652,12.215-15.941,21.212
			c0,0-11.825-22.495-10.541-34.967c1.286-12.468-11.441-67.36-11.441-67.36l51.165-48.592l-1.8-26.999l7.714-21.081l125.725,8.997
			L526.394,176.271z"/>
		<path fill="#EF8E00" d="M377.464,146.684c19.382-14.943,37.696,0,60.548-4.049c0,0-4.916,24.684-25.935,29.981
			c0,0,9.833-10.921,11.762-20.147c-13.402,1.639-26.647-0.736-34.806,6.459c0,0,1.544-7.617,6.75-11.279
			C395.783,147.648,388.265,145.912,377.464,146.684"/>
		<path fill="#D54915" d="M468.704,175.006c25.84,4.156,39.721,19.4,56.111,31.163c-22.175-1.347-40.687,7.717-57.075,2.314
			c0,0,21.789-3.47,31.816-9.642C499.558,198.844,482.009,181.059,468.704,175.006"/>
		<path fill="#D54915" d="M413.438,282.417c0,0,28.282-22.109,83.817-28.023c0,0-39.017-10.63-69.517-4.93
			c0,0,19.122,2.87,25.294,5.443C453.033,254.907,425.522,265.703,413.438,282.417"/>
		<path fill="#FBC142" d="M200.129,197.867c0,0,11.722-12.784,26.608-7.521c0,0-8.457-9.574-32.325-5.876
			c-23.872,3.693-26.71,22.809-26.71,22.809l17.965,0.354L200.129,197.867"/>
		<path fill="#1D1D1B" d="M174.161,246.46c0,0-8.604-10.808-10.918-27.324c4.933-9.605,4.462-11.855,4.462-11.855
			s31.844-32.938,59.032-16.933c0,0-5.591-15.813-28.44-15.331c0,0-29.602,4.469-53.705,40.978c0,0,11.377,34.9,26.032,43.964
			l4.246-9.256L174.161,246.46z"/>
		<path fill="#1D1D1B" d="M190.27,228.821c8.966-16.485,21.741-19.962,34.638-30.953c-6.459,2.249-15.059,4.839-19.573,5.523
			c-0.964-2.765-5.207-5.523-5.207-5.523c-13.206,6.269-38.04,10.469-38.04,10.469l3.975,0.651l14.399,9.448L190.27,228.821z"/>
		<path fill="#FBC142" d="M395.783,147.648c13.51-5.471,29.606,0.585,42.229-5.015c-17.985,4.146-43.729-10.944-60.548,4.052
			C384.068,146.292,390.238,146.516,395.783,147.648"/>
		<path fill="#D54915" d="M234.998,151.709c0,0-3.343-5.786-3.79-11.504c2.168-7.272,10.218-13.627,16.263-23.463
			c0.826,5.729,0.35,11.727-1.151,17.932c21.396-40.104,45.211-37.276,68.062-45.89c-7.906,11.954-25.069,13.239-36.443,42.229
			C277.937,131.013,251.905,137.503,234.998,151.709"/>
		<path fill="#D54915" d="M293.904,128.795c42.586-61.225,113.835-32.17,138.323-33.233c-13.142,4.343-22.785,2.928-34.099,6.142
			c0,0,43.003-1.093,77.713,23.333c-0.364-1.675-55.26-19.475-83.272-9.546c10.126,1.063,22.583,7.612,37.989,9.447
			c-20.344,5.496-54.279-7.325-76.94,11.764c-10.698-4.019-23.523-6.21-37.603-7.326c7.103-6.411,15.641-12.769,25.263-19.09
			C341.278,110.284,317.688,113.174,293.904,128.795"/>
		<path fill="#1D1D1B" d="M249.101,235.854c0,0-5.23-10.08-12.061-16.911c0,0,9.041,1.242,14.764,6.675
			C257.529,231.05,249.101,235.854,249.101,235.854"/>
		<path fill="#1D1D1B" d="M228.088,169.906c0,0,33.232-25.072,62.612-28.762c29.379-3.688,0,0,0,0s-4.888,3.773-6.636,8.2
			c0,0,36.668-15.069,73.536,6.311c36.863,21.38,0,0,0,0l3.568-8.008l-35.971-11.706l-29.918-3.726c0,0-26.072,8.033-26.889,8.381
			c-0.813,0.351-25.376,11.84-25.844,12.148c-0.466,0.308-13.853,12.001-13.853,12.001L228.088,169.906"/>
		<path fill="#1D1D1B" d="M500.681,318.146c0-23.938,0.045-38.82,0.045-62.763c34.036-4.863,68.032-8.958,102.072-8.768v68.351
			C568.758,313.217,534.722,314.844,500.681,318.146"/>
		<path fill="#1D1D1B" d="M224.551,384.972c24.329-8.585,48.663-18.681,72.996-29.66c-2.818-10.632-5.634-21.275-8.449-31.932
			c-46.341,5.979-92.686,8.481-139.025,3.196C174.897,348.056,199.723,367.298,224.551,384.972"/>
		<path fill="#1D1D1B" d="M587.689,335.108c-25.764-7.201-51.526-12.609-77.286-16.975c0.761-11.11,1.529-22.223,2.29-33.331
			c46.365-5.765,92.729-8.055,139.091-2.546C630.418,298.362,609.052,316.118,587.689,335.108"/>
		<path fill="#1D1D1B" d="M605.084,279.313c-136.726-1.417-273.446,51.975-410.171,50.054c0.045,54.879,0.087,109.753,0.129,164.629
			c136.676,2.064,273.354-51.485,410.026-49.893C605.074,389.047,605.077,334.37,605.084,279.313"/>
		<path fill="#FFFFFF" d="M299.462,337.109c8.659-1.177,17.315-2.466,25.979-3.832c0.03,43.535,0.062,87.067,0.095,130.605
			c-8.656,1.367-17.313,2.655-25.977,3.831C299.529,424.177,299.492,380.645,299.462,337.109"/>
		<path fill="#FFFFFF" d="M514.226,301.53c0.018,18.464,0.031,36.934,0.043,55.397c18.538,5.603,37.076,11.765,55.615,18.77
			c-2.658,0.126-5.316,0.27-7.978,0.432c0.008,9.435,0.014,18.865,0.024,28.295c-7.218,0.44-14.433,0.998-21.648,1.659
			c-0.009-9.318-0.015-18.641-0.021-27.963c-8.656,0.799-17.316,1.745-25.976,2.815c0.013,17.064,0.026,34.132,0.036,51.201
			c24.534-3.027,49.068-5.072,73.603-5.486c-0.018-21.603-0.033-43.206-0.048-64.808c-15.881-6.5-31.76-12.32-47.64-17.632
			c-0.006-7.347-0.011-14.693-0.017-22.038c7.213-0.66,14.431-1.222,21.646-1.657c0.003,5.774,0.01,11.557,0.011,17.339
			c8.66-0.527,17.317-0.877,25.979-1.026c-0.012-13.599-0.022-27.196-0.032-40.797C563.294,296.452,538.763,298.497,514.226,301.53"
			/>
		<path fill="#FFFFFF" d="M259.739,427.017c0.006,7.231,0.012,14.467,0.021,21.702c-7.218,0.646-14.434,1.183-21.651,1.6
			c-0.024-35.773-0.051-71.549-0.079-107.322c-8.656,0.496-17.316,0.821-25.976,0.938c0.033,43.538,0.067,87.076,0.098,130.617
			c24.531-0.335,49.067-2.316,73.603-5.297c-0.012-11.359-0.019-22.72-0.026-34.078C277.063,432.59,268.402,429.884,259.739,427.017
			"/>
		<path fill="#FFFFFF" d="M500.555,303.089c0.03,43.534,0.063,87.07,0.098,130.606c-8.66,1.189-17.314,2.488-25.976,3.867
			c-0.023-28.705-0.045-57.411-0.065-86.115c2.659-0.426,5.316-0.841,7.979-1.25c-9.879-2.683-19.759-5.252-29.635-7.741
			c0.024,32.9,0.051,65.804,0.073,98.703c-8.659,1.495-17.315,3.045-25.975,4.622c-0.033-43.536-0.067-87.068-0.102-130.604
			c15.881,3.876,31.762,7.854,47.643,12.094c-0.006-6.771-0.013-13.542-0.019-20.313
			C483.236,305.581,491.894,304.279,500.555,303.089"/>
		<path fill="#FFFFFF" d="M413.347,326.387c-8.685,9.313-17.365,18.641-26.052,27.949c0.006,8.964,0.015,17.921,0.019,26.883
			c8.688-11.396,17.367-22.81,26.051-34.206C413.358,340.14,413.353,333.263,413.347,326.387"/>
		<path fill="#FFFFFF" d="M399.102,391.226c4.761-5.186,9.521-10.368,14.284-15.548c-0.006-7.384-0.013-14.768-0.021-22.149
			c-8.683,8.355-17.369,16.719-26.056,25.071c0.018,17.106,0.029,34.217,0.043,51.328c-7.243,1.339-14.483,2.664-21.725,3.963
			c-0.018-20.074-0.031-40.149-0.044-60.225c-6.288,6.366-12.576,12.71-18.862,19.027c0,0,7.9-9.42,18.858-22.543
			c-0.006-6.771-0.009-13.54-0.018-20.31c6.667-1.196,13.336-2.414,20.007-3.645c8.133-9.745,16.415-19.66,23.63-28.236
			c-6.922,1.276-13.843,2.564-20.764,3.846c-11.554,11.056-23.11,22.092-34.665,33.035c7.58-10.249,15.157-20.534,22.735-30.846
			c-12.344,2.255-24.688,4.456-37.028,6.519c0.03,43.688,0.067,87.383,0.098,131.069c24.621-4.117,49.241-8.775,73.861-13.321
			c-0.017-23.038-0.034-46.073-0.05-69.108C408.627,383.174,403.862,387.201,399.102,391.226"/>
		<path fill="#FFFFFF" d="M514.226,301.53c30.287-3.715,60.574-5.926,90.861-5.431c-7.673,6.567-15.348,13.308-23.02,20.203
			C559.455,310.208,536.841,305.449,514.226,301.53"/>
		<path fill="#FFFFFF" d="M238.028,342.996c-14.367,0.854-28.742,1.225-43.114,0.98c8.915,6.832,17.828,13.429,26.746,19.816
			c4.523-1.573,9.048-3.198,13.567-4.877"/>
		<path fill="#EF8E00" d="M513.353,262.025c-0.039,10.159-0.082,20.321-0.121,30.479c5.406-0.681,10.81-1.308,16.215-1.885
			c0.043-10.159,0.082-20.317,0.118-30.478C524.16,260.721,518.759,261.348,513.353,262.025 M518.976,286.42
			c0.026-6.517,0.051-13.029,0.079-19.544c1.589-0.188,3.177-0.376,4.768-0.554c-0.024,6.514-0.05,13.027-0.076,19.544
			C522.152,286.044,520.564,286.23,518.976,286.42"/>
		<path fill="#EF8E00" d="M571.298,256.918c-0.041,10.156-0.08,20.313-0.12,30.47c5.406-0.25,10.81-0.428,16.216-0.527
			c0.04-10.156,0.078-20.313,0.116-30.469C582.106,256.491,576.703,256.667,571.298,256.918 M576.922,281.766
			c0.025-6.515,0.052-13.027,0.075-19.538c1.592-0.059,3.181-0.112,4.771-0.155c-0.025,6.511-0.051,13.023-0.076,19.535
			C580.099,281.654,578.512,281.706,576.922,281.766"/>
		<path fill="#EF8E00" d="M532.821,259.777c-0.018,4.312-0.033,8.62-0.054,12.927c4.079,1.426,8.154,2.88,12.229,4.368
			c-0.585,0.05-1.171,0.104-1.756,0.156c-0.009,2.2-0.018,4.397-0.025,6.602c-1.592,0.143-3.182,0.287-4.77,0.437
			c0.007-2.175,0.017-4.349,0.024-6.521c-1.906,0.182-3.815,0.368-5.723,0.565c-0.018,3.979-0.03,7.965-0.049,11.945
			c5.406-0.555,10.811-1.054,16.216-1.485c0.021-5.039,0.039-10.083,0.059-15.121c-3.488-1.3-6.979-2.569-10.472-3.817
			c0.009-1.716,0.018-3.427,0.021-5.143c1.589-0.149,3.177-0.296,4.771-0.437c-0.006,1.345-0.014,2.695-0.02,4.043
			c1.907-0.169,3.815-0.328,5.723-0.484c0.015-3.171,0.028-6.344,0.039-9.517C543.631,258.729,538.225,259.227,532.821,259.777"/>
		<path fill="#EF8E00" d="M562.461,277.318c-0.007,1.686-0.016,3.375-0.02,5.063c-1.592,0.097-3.18,0.197-4.771,0.308
			c0.032-8.349,0.063-16.694,0.098-25.04c-1.904,0.126-3.813,0.267-5.723,0.411c-0.042,10.158-0.078,20.314-0.118,30.475
			c5.402-0.413,10.807-0.761,16.213-1.04c0.009-2.648,0.02-5.299,0.03-7.95C566.271,278.793,564.365,278.049,562.461,277.318"/>
		<path fill="#D9D9D9" d="M339.479,330.515c3.426,1.967,6.854,3.922,10.282,5.871c6.742-1.146,13.483-2.324,20.227-3.523
			c2.174-2.952,4.344-5.91,6.521-8.865C364.164,326.252,351.82,328.451,339.479,330.515"/>
		<path fill="#D9D9D9" d="M299.462,337.104c3.428,2.075,6.856,4.131,10.282,6.173c5.234-0.745,10.468-1.529,15.702-2.336
			c-0.003-2.558-0.006-5.109-0.006-7.663C316.778,334.644,308.121,335.927,299.462,337.104"/>
		<path fill="#D9D9D9" d="M194.913,343.974c7.525,2.642,15.053,5.111,22.579,7.434c6.846-0.132,13.692-0.386,20.542-0.75
			c-0.004-2.555-0.004-5.105-0.007-7.664c-8.659,0.499-17.316,0.821-25.976,0.938"/>
		<path fill="#D9D9D9" d="M474.598,306.959c3.425,1.995,6.854,3.997,10.283,6.018c5.224-0.763,10.446-1.484,15.674-2.173v-7.715
			C491.902,304.281,483.248,305.579,474.598,306.959"/>
		<path fill="#FFFFFF" d="M513.338,262.023c0.616,0.378,1.229,0.759,1.846,1.141c4.795-0.585,9.59-1.13,14.383-1.636v-1.385
			c-1.555,0.164-3.107,0.333-4.663,0.508"/>
		<path fill="#FFFFFF" d="M532.823,259.776c0.617,0.393,1.229,0.789,1.847,1.181c4.789-0.47,9.576-0.899,14.365-1.277
			c0-0.463,0-0.926,0-1.386c-1.557,0.126-3.111,0.255-4.666,0.387"/>
		<path fill="#FFFFFF" d="M552.05,258.06c0.616,0.409,1.231,0.818,1.849,1.229c1.292-0.088,2.576-0.175,3.868-0.258
			c0-0.462,0-0.924,0-1.385c-1.554,0.104-3.108,0.214-4.664,0.329"/>
		<path fill="#FFFFFF" d="M571.301,256.917c0.616,0.429,1.232,0.858,1.846,1.288c4.79-0.2,9.577-0.345,14.363-0.427v-1.388
			c-1.555,0.027-3.108,0.063-4.662,0.102"/>
		<path fill="#D9D9D9" d="M514.187,301.525c3.429,2.117,6.854,4.251,10.282,6.405c23.906-2.598,47.813-4.177,71.719-4.138
			c2.967-2.594,5.932-5.154,8.899-7.693C574.784,295.602,544.488,297.813,514.187,301.525"/>
		<path fill="#D9D9D9" d="M378.409,331.395c7.729-1.445,15.453-2.901,23.179-4.364c2.537-3.022,5.074-6.05,7.612-9.071
			c-6.922,1.282-13.843,2.567-20.764,3.847C385.097,325.003,381.752,328.202,378.409,331.395"/>
		<polygon fill="#1D1D1B" points="503.137,286.58 487.381,300.024 419.485,314.448 410.066,307.771 432.732,290.834 
			475.222,284.816 		"/>
		<path fill="#FBC142" d="M246.319,180.714c10.526-7.799,8.294-14.85,21.876-22.115c0,0-1.228,6.06-0.492,9.431c0.73,3.369,0,0,0,0
			S253.955,180.44,246.319,180.714"/>
		<path fill="#FFFFFF" d="M262.027,183.924c3.618-0.606,7.204-3.486,12.345-6.028c0,0,2.342,0.586,3.711,3.444
			C277.142,182.347,268.434,184.75,262.027,183.924"/>
		<path fill="#FFFFFF" d="M145.059,327.322c66.402,8.027,156.429-2.694,226.389-18.587
			c-82.712,10.974-159.963,16.356-226.389,10.657V327.322L145.059,327.322z"/>
		<path fill="#1D1D1B" d="M170.175,254.752c0,0,6.877,19.09,30.402,30.145c0,0-0.643-17.997,1.543-22.494
			c0,0,2.73-0.129,4.563,0.159c0,0,42.662,22.854,30.534,55.76c0,0-6.303-3.214-10.225-6.941c0,0-5.105,12.504,9.321,31.11
			c0,0-3.855,15.167-2.057,26.738c0,0,23.655,11.569,46.794,13.627c0,0-2.25-6.235-3.213-10.093c0,0,13.688-2.508,23.523-7.521
			c0,0,6.169-35.482,17.354-47.821c11.185-12.341-5.015-69.517-5.015-69.517l-43.705-6.973
			C269.996,240.932,184.572,234.697,170.175,254.752"/>
		<path fill="#FFFFFF" d="M230.917,320.247c0,0,7.005,8.487,16.453,9.192c0,0-3.661-2.425-4.632-4.162c0,0,4.729-7.954,5.403-13.014
			c0,0,1.742,8.672,2.555,18.654c0,0,7.808,0,12.729-3.132c0,0,0.817-11.33-0.63-18.227c0,0,7.473,7.138,8.969,11.381
			c0,0,0.146-2.991-0.578-5.495c0,0,5.107-7.571,5.641-12.056c0,0,0.688,19.236-2.331,30.484c0,0-16.646,8.546-30.079,6.813
			C244.415,340.688,234.388,335.417,230.917,320.247"/>
		<path fill="#D54915" d="M260.792,282.911c0,0-2.492-5.984-6.474-8.553c0,0-1.667,6.832-4.975,11.057
			c0,0,12.537,14.046,12.729,21.953c0,0,10.228-12.007,11.265-24.528c0,0-5.26-8.678-9.459-11.403
			C263.879,271.436,263.234,278.954,260.792,282.911"/>
		<path fill="#EF8E00" d="M249.345,350.2c0,0,20.875-2.072,31.29-9.282c0,0,6.747-14.434,7.903-22.052c0,0,2.796,8.483,2.894,11.954
			c0,0,6.27-11.279,7.616-16.579c0,0,0.192,32.971-7.038,43.289c0,0-21.694,8.003-41.265,3.563c0,0,5.782-2.988,8.29-5.978
			C259.035,355.116,252.282,352.419,249.345,350.2"/>
		<path fill="#FFFFFF" d="M179.785,249.737c0,0,0.673,12.727,14.651,23.813c0,0-1.171-14.019,1.047-20.15
			c0,0,17.561-1.06,25.077,0.48c0,0,5.078,13.723,14.141,20.564c0,0-2.436-19.357-0.313-23.358c0,0,0.646,1.332,1.753,2.729
			l15.663-6.971C251.804,246.846,189.138,242.797,179.785,249.737"/>
		<path fill="#FFFFFF" d="M474.937,459.06c-0.465-0.58-3.726-5.147-3.726-5.147l26.045-13.709l27.04-4.927l29.685-1.943
			l16.763,6.057l1.28,6.81l-7.336,4.831l-54.013,1.047l-28.054,4.346L474.937,459.06z"/>
		<path fill="#1D1D1B" d="M170.627,259.957c15.028-21.19,47.437-8.87,81.18-13.111l-1.543-10.991
			c-20.635,5.785-66.196-9.681-81.621,13.073L170.627,259.957z"/>
		<polygon fill="#1D1D1B" points="196.412,345.12 221.044,363.351 210.125,362.435 		"/>
		<polygon fill="#1D1D1B" points="605.084,296.1 580.272,317.731 591.097,316.303 		"/>
		<path fill="#1D1D1B" d="M583.135,435.709c-4.416-4.526-10.117-7.697-16.027-9.84c-5.966-2.16-12.13-3.372-18.527-4.037
			c-0.802-0.078-1.736-0.18-2.39-0.222l-1.07-0.08l-1.23-0.088c-1.553-0.075-3.115-0.179-4.688-0.231
			c-3.148-0.094-6.345-0.121-9.573-0.018c-6.457,0.2-13.041,0.815-19.646,1.85c-13.208,2.078-26.4,5.847-39.072,10.636
			c-12.696,4.778-24.926,10.518-36.75,16.442c-11.827,5.932-23.274,12.057-34.479,17.711c-1.74,0.88-3.477,1.742-5.209,2.601
			l10.732,24.543c3.06-1.709,6.097-3.44,9.111-5.19c11.195-6.486,22.161-13.197,33.145-19.518
			c10.978-6.321,21.977-12.258,33.102-17.179c11.114-4.938,22.36-8.81,33.521-11.218c5.575-1.19,11.125-2.022,16.593-2.492
			c2.732-0.243,5.445-0.37,8.132-0.44c1.339-0.033,2.674-0.012,4.002-0.021h0.25c-0.228-0.019,0.015-0.004,0-0.004l0.131,0.004
			l0.538,0.019l1.076,0.034c0.775,0.02,1.256,0.065,1.87,0.095c4.9,0.288,9.659,1.048,13.661,2.309
			c4.035,1.247,7.346,3.033,9.573,5.093c1.294,1.182,2.212,2.439,2.834,3.748l12.313-12.312
			C584.448,437.145,583.815,436.408,583.135,435.709"/>
		<path fill="#EF8E00" d="M497.256,434.168c0,0,0.283-0.201,0.824-0.585c0.568-0.34,1.433-0.852,2.558-1.358
			c2.259-1.045,5.586-2.299,9.678-3.411c2.044-0.557,4.277-1.124,6.661-1.591c2.381-0.479,4.909-0.895,7.542-1.233
			c5.264-0.683,10.941-0.984,16.638-0.831c2.847,0.102,5.698,0.292,8.491,0.66c1.399,0.184,2.783,0.365,4.146,0.643
			c1.364,0.232,2.703,0.52,4.014,0.849c2.628,0.617,5.121,1.451,7.447,2.315c1.141,0.512,2.271,0.943,3.316,1.47
			c1.039,0.56,2.06,1.036,2.985,1.614c0.919,0.593,1.839,1.067,2.624,1.685c0.787,0.611,1.553,1.146,2.22,1.725
			c0.652,0.597,1.273,1.13,1.814,1.659c0.522,0.546,0.974,1.087,1.393,1.549c0.861,0.896,1.335,1.79,1.73,2.313
			c0.363,0.55,0.56,0.843,0.56,0.843s-0.282-0.213-0.812-0.609c-0.532-0.391-1.241-1.025-2.274-1.662
			c-0.511-0.324-1.05-0.705-1.667-1.072c-0.645-0.335-1.311-0.729-2.027-1.128c-1.476-0.736-3.165-1.49-5.045-2.208
			c-1.885-0.702-3.979-1.299-6.202-1.892c-2.244-0.522-4.614-1.029-7.107-1.404c-2.484-0.407-5.084-0.673-7.727-0.919
			c-2.648-0.222-5.353-0.396-8.064-0.456c-2.709-0.1-5.429-0.106-8.111-0.084c-2.685,0.029-5.324,0.104-7.888,0.21
			c-5.123,0.224-9.921,0.563-14.041,0.918c-2.052,0.222-3.947,0.379-5.613,0.592c-1.672,0.207-3.129,0.397-4.328,0.591
			c-1.195,0.21-2.126,0.376-2.759,0.535C497.594,434.072,497.256,434.168,497.256,434.168"/>
		<path fill="#FFFFFF" d="M359.258,485.592c13.473-4.411,44.437-17.877,65.736-30.719c-13.356,5.662-47.843,18.855-73.25,23.304
			c-19.608,3.43,0,0,0,0L359.258,485.592"/>
		<path fill="#FFFFFF" d="M578.211,431.537c0,0,10.903,8.201,12.041,17.164c1.135,8.964,0,0,0,0l7.399,2.824
			C597.652,451.525,593.282,435.991,578.211,431.537"/>
	</g>
</g>
</svg>
