<?xml version="1.0" standalone="no"?>
<!DOCTYPE svg PUBLIC "-//W3C//DTD SVG 20010904//EN"
 "http://www.w3.org/TR/2001/REC-SVG-20010904/DTD/svg10.dtd">
<svg version="1.0" xmlns="http://www.w3.org/2000/svg"
 width="300.000000pt" height="300.000000pt" viewBox="0 0 300.000000 300.000000"
 preserveAspectRatio="xMidYMid meet">

<g transform="translate(0.000000,300.000000) scale(0.100000,-0.100000)"
fill="#000000" stroke="none">
<path d="M1544 2188 c4 -17 71 -147 512 -988 l213 -405 350 -3 c193 -1 351 0
351 2 0 2 -20 41 -44 87 -84 161 -474 906 -582 1111 l-108 208 -348 2 c-328 3
-349 2 -344 -14z"/>
<path d="M677 2033 c-80 -155 -210 -403 -381 -728 -38 -71 -96 -182 -129 -245
-33 -63 -77 -148 -98 -187 -22 -40 -39 -75 -39 -78 0 -3 157 -5 349 -5 l349 0
120 228 c66 125 152 290 193 367 40 77 151 288 246 470 95 181 173 333 173
337 0 4 -157 8 -348 8 l-348 0 -87 -167z"/>
<path d="M1370 1319 c-189 -22 -329 -95 -409 -213 -35 -52 -161 -291 -161
-305 0 -8 125 -11 424 -11 l424 0 78 148 c42 81 106 202 141 270 l65 122 -244
-1 c-133 -1 -277 -5 -318 -10z"/>
</g>
</svg>
