<?xml version="1.0" encoding="UTF-8"?>
<svg width="163" height="163" viewBox="0 0 163 163" xmlns="http://www.w3.org/2000/svg">
 <path d="m67.82 27.76 38.53 50.23v-50.19h18.04v107.44l-79.82-107.48z"/>
 <path d="m95.18 135.24-38.53-50.23v50.19h-18.04v-107.44l79.82 107.48z"/>
 <path d="m151.5 81.5a70 70 0 0 1-70 70 70 70 0 0 1-70-70 70 70 0 0 1 70-70 70 70 0 0 1 70 70zm11.5 0a81.5 81.5 0 0 1-81.5 81.5 81.5 81.5 0 0 1-81.5-81.5 81.5 81.5 0 0 1 81.5-81.5 81.5 81.5 0 0 1 81.5 81.5z" fill-rule="evenodd"/>
</svg>
