<?xml version="1.0" encoding="UTF-8"?> <svg xmlns="http://www.w3.org/2000/svg" width="150" height="150" viewBox="0 0 150 150" fill="none"><path d="M74.8667 136.515L58.8334 109.669L60.714 122.19L34.9264 97.931L18 108.728L31.2826 76.8071L27.5703 77.5015L46.3658 17.3228L53.8055 36.9231L62.3688 38.9229L74.8667 12.6948L87.3648 38.9229L95.9281 36.9231L103.368 17.3228L122.163 77.5015L118.451 76.8071L131.734 108.728L115.783 96.8049L89.0196 122.19L90.9002 109.669L74.8667 136.515Z" fill="#111111"></path><path fill-rule="evenodd" clip-rule="evenodd" d="M109.768 56.1622L114.071 71.1672L109.028 69.8162L120.198 93.3608L101.259 76.9091L104.626 66.8274L100.867 53.7771L109.768 56.1622Z" fill="#E1281E"></path><path fill-rule="evenodd" clip-rule="evenodd" d="M101.327 83.9583L107.903 95.4811L96.332 106.959L101.327 83.9583Z" fill="#E1281E"></path><path fill-rule="evenodd" clip-rule="evenodd" d="M76.4219 122.399V84.7166L80.4242 85.9434L83.7915 105.425L76.4219 122.399Z" fill="#E1281E"></path><path fill-rule="evenodd" clip-rule="evenodd" d="M73.3149 122.399V84.7166L69.3126 85.9434L65.9453 105.425L73.3149 122.399Z" fill="#E1281E"></path><path fill-rule="evenodd" clip-rule="evenodd" d="M37.571 76.4494L28.9336 94.6214L40.1518 83.7345L53.3927 106.958L48.2944 76.0673L46.1623 69.6799L37.571 76.4494Z" fill="#E1281E"></path><path fill-rule="evenodd" clip-rule="evenodd" d="M40.0257 56.1615L35.7227 71.1674L46.3993 62.3597L48.898 53.7771L40.0257 56.1615Z" fill="#E1281E"></path><path fill-rule="evenodd" clip-rule="evenodd" d="M74.8716 80.2044L74.8711 80.2042H74.8716L84.6075 77.5779L91.1152 99.6886L87.1572 106.055L82.723 82.3081L74.8716 80.2044Z" fill="#E1281E"></path><path fill-rule="evenodd" clip-rule="evenodd" d="M74.8716 80.2044L74.8721 80.2042H74.8716L65.1359 77.5779L58.6094 99.6886L62.5862 106.055L67.0202 82.3081L74.8716 80.2044Z" fill="#E1281E"></path><path fill-rule="evenodd" clip-rule="evenodd" d="M74.8676 77.2789L62.5802 73.9865L58.5671 88.4252L53.5154 76.7896L56.0137 70.3593L52.1724 73.6961L49.3711 67.2443L51.6745 59.2111L56.0157 61.8813L60.8986 69.8837L62.3865 64.0323L68.631 62.4023L68.9426 72.7781L74.8676 74.3657L80.7927 72.7781L81.1043 62.4023L87.3487 64.0323L91.1017 65.0053L92.496 63.8864L98.0606 59.2111L100.364 67.2443L97.5621 73.6955L93.7214 70.3593L96.2194 76.7881L91.1117 88.5524L86.8105 74.0788L74.8676 77.2789Z" fill="#E1281E"></path><path fill-rule="evenodd" clip-rule="evenodd" d="M74.8688 57.2481V71.4546L71.7189 70.6134L71.2287 56.2725L42.2188 48.4995L47.012 31.5618L51.6349 47.6838L54.0231 44.8451L64.6863 47.7022L74.8688 26.0601V50.4308L95.7313 44.8404L98.1733 47.4347L102.679 31.7213L107.519 48.4995L74.8688 57.2481Z" fill="#E1281E"></path><path fill-rule="evenodd" clip-rule="evenodd" d="M95.3136 56.8857L89.4087 61.8277L83.082 60.1597L95.3136 56.8857Z" fill="#E1281E"></path></svg> 