<?xml version="1.0" standalone="no"?>
<!DOCTYPE svg PUBLIC "-//W3C//DTD SVG 20010904//EN"
 "http://www.w3.org/TR/2001/REC-SVG-20010904/DTD/svg10.dtd">
<svg version="1.0" xmlns="http://www.w3.org/2000/svg"
 width="300.000000pt" height="300.000000pt" viewBox="0 0 300.000000 300.000000"
 preserveAspectRatio="xMidYMid meet">

<g transform="translate(0.000000,300.000000) scale(0.100000,-0.100000)"
fill="#000000" stroke="none">
<path d="M1267 2115 c-197 -29 -381 -59 -409 -66 -291 -69 -588 -333 -671
-594 -26 -82 -30 -227 -8 -288 40 -115 167 -177 361 -177 36 0 204 21 375 45
171 25 364 53 431 62 l121 16 30 91 c17 50 68 198 114 329 45 130 80 240 77
242 -6 7 -696 -93 -712 -102 -20 -12 -276 -257 -276 -264 0 -3 10 -4 23 -2 61
12 542 80 545 78 2 -2 -7 -33 -20 -70 -15 -45 -30 -70 -43 -75 -47 -19 -480
-72 -533 -66 -102 12 -152 57 -152 137 0 126 105 261 262 339 87 43 88 43 425
91 186 27 343 51 349 53 7 3 32 66 57 140 38 115 43 136 29 135 -9 -1 -178
-25 -375 -54z"/>
<path d="M2095 2075 c-5 -2 -80 -13 -166 -25 l-156 -23 -17 -46 c-24 -67 -22
-70 26 -64 33 5 40 3 36 -8 -3 -8 -69 -206 -147 -440 l-142 -427 -31 -6 c-17
-3 -41 -6 -53 -6 -20 0 -27 -12 -54 -92 -17 -50 -29 -94 -26 -96 2 -3 37 0 77
7 40 6 267 40 503 76 237 36 439 67 451 70 20 5 290 292 282 300 -2 3 -103
-11 -224 -30 -120 -19 -262 -42 -314 -50 -52 -8 -146 -23 -207 -33 -62 -10
-113 -15 -113 -11 0 7 106 318 244 713 36 104 66 191 66 193 0 4 -21 3 -35 -2z"/>
<path d="M515 2000 c-3 -6 1 -7 9 -4 18 7 21 14 7 14 -6 0 -13 -4 -16 -10z"/>
<path d="M339 1853 c-13 -16 -12 -17 4 -4 9 7 17 15 17 17 0 8 -8 3 -21 -13z"/>
<path d="M299 1813 c-13 -16 -12 -17 4 -4 9 7 17 15 17 17 0 8 -8 3 -21 -13z"/>
<path d="M2543 1363 c9 -2 23 -2 30 0 6 3 -1 5 -18 5 -16 0 -22 -2 -12 -5z"/>
<path d="M1950 1280 c0 -5 5 -10 10 -10 6 0 10 5 10 10 0 6 -4 10 -10 10 -5 0
-10 -4 -10 -10z"/>
<path d="M2706 1183 c-6 -14 -5 -15 5 -6 7 7 10 15 7 18 -3 3 -9 -2 -12 -12z"/>
<path d="M61 1174 c0 -11 3 -14 6 -6 3 7 2 16 -1 19 -3 4 -6 -2 -5 -13z"/>
<path d="M2676 1144 c-5 -14 -4 -15 9 -4 17 14 19 20 6 20 -5 0 -12 -7 -15
-16z"/>
<path d="M2630 1095 l-23 -25 25 12 c13 7 25 18 25 25 0 17 0 17 -27 -12z"/>
<path d="M2489 933 c-13 -16 -12 -17 4 -4 16 13 21 21 13 21 -2 0 -10 -8 -17
-17z"/>
<path d="M1648 783 c6 -2 18 -2 25 0 6 3 1 5 -13 5 -14 0 -19 -2 -12 -5z"/>
<path d="M1588 773 c7 -3 16 -2 19 1 4 3 -2 6 -13 5 -11 0 -14 -3 -6 -6z"/>
</g>
</svg>
