<?xml version="1.0" encoding="UTF-8"?>
<svg id="logosandtypes_com" data-name="logosandtypes com" xmlns="http://www.w3.org/2000/svg" viewBox="0 0 150 150">
  <defs>
    <style>
      .cls-1 {
        fill: #fc0000;
      }

      .cls-2 {
        fill: none;
      }
    </style>
  </defs>
  <path class="cls-2" d="M0,0H150V150H0V0Z"/>
  <g>
    <path class="cls-1" d="M75.1,50.91L5.13,14.76l10.98,61.18c.89,4.94,3.64,9.24,7.76,12.11l16.43,11.46,1.14,14.76,33.5,24.12,33.52-23.97,1.33-15.05,16.77-12.01c4.02-2.88,6.71-7.15,7.57-12.01l10.74-60.58L75.1,50.91h0Zm55.59,23.35c-.74,4.19-2.39,6.73-5.84,9.21l-18.71,12.57-.95,15.76-30.28,21.25-29.93-20.37-1.06-15.23-17-12.33c-3.54-2.47-5.61-5.32-6.38-9.57L10.62,22.72l64.48,31.14,64.09-31.67-8.5,52.07Z"/>
    <path d="M75.1,53.86L8.65,19.52l10.04,55.95c.76,4.25,3.13,7.95,6.68,10.43l17.44,12.17,1.15,14.79,30.99,22.31,31.01-22.18,1.33-15.05,17.75-12.71c3.46-2.48,5.78-6.15,6.52-10.34l9.81-55.36L75.1,53.86ZM16.5,30.17l21.23,11.02,2.05,23.14-19.15-11.42-4.12-22.74Zm12.02,50.4c-2.23-1.58-3.74-3.97-4.21-6.66l-2.29-13.02,18.44,10.85,1.67,18.49-13.6-9.65Zm71.84,29.21l-22.39,16.12,.02-16.25c0-4.75,2.31-9.2,6.18-11.95l9.2-6.52,.96-10.33-19.22,11.48-19.38-11.48,.96,10.33,9.24,6.49c3.93,2.76,6.25,7.26,6.23,12.06l-.07,16.16-22.39-16.12-5.79-65.43h0s21.84,11.3,21.84,11.3l1.24,15.57,8.02-5.79,8.05,5.79,1.24-15.57,21.84-11.3-5.79,65.43Zm25.36-35.88c-.47,2.69-1.99,5.08-4.21,6.66l-13.6,9.65,1.67-18.49,18.44-10.85-2.29,13.02Zm3.68-21l-19.15,11.42,2.05-23.14,21.23-11.02-4.12,22.74Z"/>
  </g>
</svg>