<?xml version="1.0" encoding="UTF-8"?>
<svg width="246.83" height="300" version="1.1" viewBox="0 0 246.83 300" xmlns="http://www.w3.org/2000/svg" xmlns:cc="http://creativecommons.org/ns#" xmlns:dc="http://purl.org/dc/elements/1.1/" xmlns:rdf="http://www.w3.org/1999/02/22-rdf-syntax-ns#">
 <metadata>
  <rdf:RDF>
   <cc:Work rdf:about="">
    <dc:format>image/svg+xml</dc:format>
    <dc:type rdf:resource="http://purl.org/dc/dcmitype/StillImage"/>
    <dc:title>Logo_Monochrome_Vitality</dc:title>
   </cc:Work>
  </rdf:RDF>
 </metadata>
 <title>Logo_Monochrome_Vitality</title>
 <g id="Symbols" transform="scale(6.25)" fill="none" fill-rule="evenodd">
  <g id="Header_DEsktop" transform="translate(-96,-13)" fill="#000" fill-rule="nonzero">
   <g id="Logo_Monochrome_Vitality" transform="translate(96,13)">
    <path id="Path" d="m9.0511 30.567 4.9122-8.7475-7.6466-21.82c-4.4203 1.194-8.7403 10.209-4.7212 17.789 1.9319 3.6394 7.4555 12.779 7.4555 12.779z"/>
    <polygon points="7.6135 31.417 5.7293 28.263 3.5944 26.851 2.2761 23.343 1.3233 23.343 1.7985 27.959"/>
    <polygon points="37.216 23.343 35.9 26.851 33.765 28.263 31.881 31.417 37.693 27.959 38.171 23.343"/>
    <polygon points="19.745 48 26.465 36.425 19.745 37.485 12.953 36.408"/>
    <polygon points="19.747 15.792 15.68 22.104 19.747 28.334 23.814 22.104"/>
    <polygon points="6.835 34.08 6.3573 41.416 7.3126 41.416 8.6284 35.188 10.431 34.445 19.747 35.728 29.063 34.445 30.866 35.188 32.182 41.416 33.137 41.416 32.659 34.08 29.29 31.904 24.726 23.83 19.747 31.312 14.768 23.83 10.205 31.904"/>
    <path d="m37.896 17.789c4.0215-7.5797-0.29851-16.595-4.7188-17.789l-7.6418 21.82 4.9051 8.7475s5.526-9.1391 7.4555-12.779z"/>
   </g>
  </g>
 </g>
</svg>
